<?xml version="1.0" encoding="UTF-8" standalone="no"?>
<svg
   width="150"
   height="150"
   version="1.1"
   id="svg7"
   sodipodi:docname="Mutation texture.424.svg"
   xmlns:inkscape="http://www.inkscape.org/namespaces/inkscape"
   xmlns:sodipodi="http://sodipodi.sourceforge.net/DTD/sodipodi-0.dtd"
   xmlns="http://www.w3.org/2000/svg"
   xmlns:svg="http://www.w3.org/2000/svg">
  <defs
     id="defs7" />
  <sodipodi:namedview
     id="namedview7"
     pagecolor="#ffffff"
     bordercolor="#000000"
     borderopacity="0.25"
     inkscape:showpageshadow="2"
     inkscape:pageopacity="0.0"
     inkscape:pagecheckerboard="0"
     inkscape:deskcolor="#d1d1d1"
     fit-margin-top="5"
     fit-margin-left="5"
     fit-margin-right="5"
     fit-margin-bottom="5" />
  <clipPath
     transform="matrix(1.0, 0.0, 0.0, 1.0, 0.0, 0.0)"
     id="_2339d6719e64-fae1-47c2-8363-87ed544bad36">
    <path
       d="M -75,-75 H 75 V 75 H -75 V -75"
       fill="#000000"
       fill-rule="evenodd"
       stroke="none"
       id="path1" />
  </clipPath>
  <g
     clip-path="url(#_2339d6719e64-fae1-47c2-8363-87ed544bad36)"
     id="g3"
     transform="translate(75,75)">
    <g
       transform="matrix(1.770401,0,0,1.6079559,-99.25,-86.95)"
       id="g2">
      <g
         id="DefineShape_589">
        <path
           d="M 0,0 H 112.15 V 108.15 H 0 V 0"
           fill="#e0e0dd"
           fill-rule="evenodd"
           stroke="none"
           id="path2" />
      </g>
    </g>
  </g>
  <g
     clip-path="url(#_2339d6719e64-fae1-47c2-8363-87ed544bad36)"
     id="g7"
     transform="translate(75,75)">
    <g
       id="g6">
      <g
         id="DefineShape_2610">
        <path
           d="m 118.25,10.65 q 2.9,0.75 3.9,1.4 l 0.1,0.1 v 95 h -240.6 v -71.3 q 2.55,-1.7 6.05,-3.45 17.35,-9 36.1,-15.1 7.45,-2.4 12.85,-3.5 7.1,-1.45 13.2,-1.4 8.65,0.15 20.25,3.75 l 6.8,2.1 q 3.9,1.1 6.9,1.25 3.9,0.15 8.65,-1 L 0.8,15.95 q 9.25,-3 26.55,-8.05 13.35,-3.9 19.7,-5 8.85,-1.55 24,-1.85 l 18.25,0.6 q 10,1.05 17.6,4.2 l 5.6,2.55 5.75,2.25"
           fill="url(#gradient0)"
           fill-rule="evenodd"
           stroke="none"
           id="path3"
           style="fill:url(#gradient0)" />
      </g>
      <defs
         id="defs6">
        <radialGradient
           cx="0"
           cy="0"
           gradientTransform="matrix(0.0067,-0.1702,0.2204,0.0087,-4.25,107.6)"
           gradientUnits="userSpaceOnUse"
           id="gradient0"
           r="819.20001"
           spreadMethod="pad">
          <stop
             offset="0.0"
             stop-color="#98947f"
             id="stop3" />
          <stop
             offset="0.9882352941176471"
             stop-color="#98947f"
             stop-opacity="0.0"
             id="stop4" />
          <stop
             offset="0.9921568627450981"
             stop-color="#98947f"
             id="stop5" />
          <stop
             offset="1.0"
             stop-color="#98947f"
             id="stop6" />
        </radialGradient>
      </defs>
    </g>
  </g>
</svg>
