<?xml version="1.0" encoding="UTF-8" standalone="no"?>
<svg
   width="150"
   height="150"
   version="1.1"
   id="svg21"
   sodipodi:docname="Mutation texture.428.svg"
   xmlns:inkscape="http://www.inkscape.org/namespaces/inkscape"
   xmlns:sodipodi="http://sodipodi.sourceforge.net/DTD/sodipodi-0.dtd"
   xmlns="http://www.w3.org/2000/svg"
   xmlns:svg="http://www.w3.org/2000/svg">
  <defs
     id="defs22" />
  <sodipodi:namedview
     id="namedview21"
     pagecolor="#ffffff"
     bordercolor="#000000"
     borderopacity="0.25"
     inkscape:showpageshadow="2"
     inkscape:pageopacity="0.0"
     inkscape:pagecheckerboard="0"
     inkscape:deskcolor="#d1d1d1"
     fit-margin-top="5"
     fit-margin-left="5"
     fit-margin-right="5"
     fit-margin-bottom="5" />
  <clipPath
     transform="matrix(1.0, 0.0, 0.0, 1.0, 0.0, 0.0)"
     id="_233994f09126-0181-42e2-838f-609a88fa9e6a">
    <path
       d="M -75,-75 H 75 V 75 H -75 V -75"
       fill="#000000"
       fill-rule="evenodd"
       stroke="none"
       id="path1" />
  </clipPath>
  <g
     clip-path="url(#_233994f09126-0181-42e2-838f-609a88fa9e6a)"
     id="g3"
     transform="translate(75,75)">
    <g
       transform="matrix(1.770401,0,0,1.6079559,-99.25,-86.95)"
       id="g2">
      <g
         id="DefineShape_589">
        <path
           d="M 0,0 H 112.15 V 108.15 H 0 V 0"
           fill="#e0e0dd"
           fill-rule="evenodd"
           stroke="none"
           id="path2" />
      </g>
    </g>
  </g>
  <g
     clip-path="url(#_233994f09126-0181-42e2-838f-609a88fa9e6a)"
     id="g21"
     transform="translate(75,75)">
    <g
       id="DefineShape_2614">
      <path
         d="m -47.75,8.8 q -9.35,-5.7 -12.8,-16.45 -3.85,-11.9 1.8,-22.95 5.75,-11.15 17.65,-14.95 11.9,-3.85 23,1.95 7.2,3.65 11.3,9.85 2.3,3.5 3.65,7.7 1.3,4.2 1.5,8.25 0.3,7.15 -3,13.9 l -0.4,0.9 q -3.5,6.8 -9.3,10.8 -3.7,2.55 -8.3,4.05 l -4,1.05 q -9.8,1.8 -19.05,-2.9 l -2.05,-1.2"
         fill="url(#gradient0)"
         fill-rule="evenodd"
         stroke="none"
         id="path3"
         style="fill:url(#gradient0)" />
      <path
         d="m -6.8,-33.75 q -0.3,-7.45 3.4,-14.6 5.7,-11.15 17.6,-14.95 11.9,-3.85 23,1.95 11.1,5.6 14.95,17.5 3.8,11.9 -1.9,23.1 -5.7,11 -17.6,14.85 -2,0.65 -4,1.05 -9.75,1.8 -19,-2.9 l -2.1,-1.2 q -5.7,-3.45 -9.2,-8.85 -0.2,-4.05 -1.5,-8.25 -1.35,-4.2 -3.65,-7.7"
         fill="url(#gradient1)"
         fill-rule="evenodd"
         stroke="none"
         id="path4"
         style="fill:url(#gradient1)" />
      <path
         d="m 28.65,-4.85 q 9.45,5.7 12.9,16.45 3.85,11.9 -1.85,23 -5.75,11.05 -17.65,14.9 -11.9,3.8 -22.95,-1.9 -7.25,-3.7 -11.35,-10 -0.15,-4.05 -1.5,-8.25 -1.35,-4.2 -3.6,-7.65 -0.3,-7.1 3,-13.9 5.8,-4 9.3,-10.8 l 0.4,-0.9 q 3.7,-2.55 8.3,-4 l 3.9,-1.05 2.1,1.2 q 9.25,4.7 19,2.9"
         fill="url(#gradient2)"
         fill-rule="evenodd"
         stroke="none"
         id="path5"
         style="fill:url(#gradient2)" />
      <path
         d="m -12.25,37.6 q 0.3,7.55 -3.4,14.75 -5.7,11.1 -17.6,14.9 -11.9,3.8 -23,-1.9 -11.05,-5.7 -14.9,-17.6 -3.8,-11.9 1.85,-23 5.75,-11.1 17.65,-14.9 l 3.9,-1.05 2.05,1.2 q 9.25,4.7 19.05,2.9 5.75,3.45 9.3,8.8 2.25,3.45 3.6,7.65 1.35,4.2 1.5,8.25"
         fill="url(#gradient3)"
         fill-rule="evenodd"
         stroke="none"
         id="path6"
         style="fill:url(#gradient3)" />
    </g>
    <defs
       id="defs21">
      <radialGradient
         cx="0"
         cy="0"
         gradientTransform="matrix(-0.0131,-0.0409,0.0409,-0.0131,-31.85,-16.8)"
         gradientUnits="userSpaceOnUse"
         id="gradient0"
         r="819.20001"
         spreadMethod="pad">
        <stop
           offset="0.0"
           stop-color="#98947f"
           id="stop6" />
        <stop
           offset="0.9882352941176471"
           stop-color="#98947f"
           stop-opacity="0.0"
           id="stop7" />
        <stop
           offset="0.9921568627450981"
           stop-color="#98947f"
           id="stop8" />
        <stop
           offset="1.0"
           stop-color="#98947f"
           id="stop9" />
      </radialGradient>
      <radialGradient
         cx="0"
         cy="0"
         gradientTransform="matrix(-0.0125,-0.0389,0.0389,-0.0125,23.4,-34.55)"
         gradientUnits="userSpaceOnUse"
         id="gradient1"
         r="819.20001"
         spreadMethod="pad">
        <stop
           offset="0.0"
           stop-color="#98947f"
           id="stop10" />
        <stop
           offset="0.9882352941176471"
           stop-color="#98947f"
           stop-opacity="0.0"
           id="stop11" />
        <stop
           offset="0.9921568627450981"
           stop-color="#98947f"
           id="stop12" />
        <stop
           offset="1.0"
           stop-color="#98947f"
           id="stop13" />
      </radialGradient>
      <radialGradient
         cx="0"
         cy="0"
         gradientTransform="matrix(-0.0136,-0.0423,0.0423,-0.0136,12.85,20.75)"
         gradientUnits="userSpaceOnUse"
         id="gradient2"
         r="819.20001"
         spreadMethod="pad">
        <stop
           offset="0.0"
           stop-color="#98947f"
           id="stop14" />
        <stop
           offset="0.9882352941176471"
           stop-color="#98947f"
           stop-opacity="0.0"
           id="stop15" />
        <stop
           offset="0.9921568627450981"
           stop-color="#98947f"
           id="stop16" />
        <stop
           offset="1.0"
           stop-color="#98947f"
           id="stop17" />
      </radialGradient>
      <radialGradient
         cx="0"
         cy="0"
         gradientTransform="matrix(-0.013,-0.0407,0.0407,-0.013,-42.45,38.5)"
         gradientUnits="userSpaceOnUse"
         id="gradient3"
         r="819.20001"
         spreadMethod="pad">
        <stop
           offset="0.0"
           stop-color="#98947f"
           id="stop18" />
        <stop
           offset="0.9882352941176471"
           stop-color="#98947f"
           stop-opacity="0.0"
           id="stop19" />
        <stop
           offset="0.9921568627450981"
           stop-color="#98947f"
           id="stop20" />
        <stop
           offset="1.0"
           stop-color="#98947f"
           id="stop21" />
      </radialGradient>
    </defs>
  </g>
</svg>
