<?xml version="1.0" encoding="UTF-8" standalone="no"?>
<svg
   width="52.940022"
   height="18.299999"
   version="1.1"
   id="svg2"
   sodipodi:docname="Mutation eyebrows.408.svg"
   xmlns:inkscape="http://www.inkscape.org/namespaces/inkscape"
   xmlns:sodipodi="http://sodipodi.sourceforge.net/DTD/sodipodi-0.dtd"
   xmlns="http://www.w3.org/2000/svg"
   xmlns:svg="http://www.w3.org/2000/svg">
  <defs
     id="defs2" />
  <sodipodi:namedview
     id="namedview2"
     pagecolor="#ffffff"
     bordercolor="#000000"
     borderopacity="0.25"
     inkscape:showpageshadow="2"
     inkscape:pageopacity="0.0"
     inkscape:pagecheckerboard="0"
     inkscape:deskcolor="#d1d1d1"
     fit-margin-top="5"
     fit-margin-left="5"
     fit-margin-right="5"
     fit-margin-bottom="5" />
  <g
     id="DefineShape_5440"
     transform="translate(23.401786,8.75)">
    <path
       d="M 23.45,3.05 23.3,2.35 Q 23.05,2 22.6,1.9 L 21.05,2.1 Q 17.25,2.95 12.4,0.5 9.75,-1 8.3,-1.5 5.45,-2.6 0.1,-2.4 q -7.95,0.35 -12.75,2.2 -3.2,1.15 -4.4,3.1 L -12.55,2 -8.2,0.6 Q 0.45,-1.85 7.85,0.4 l 5,1.9 q 3.05,1.2 5.1,1.45 2.8,0.3 5.5,-0.7 M 23.3,-4.4 q 2,0.05 3.7,1.35 1.7,1.25 2.25,3.15 0.7,2.2 -0.3,3.95 -0.7,1.15 -2.5,2.4 -2.3,1.5 -3.9,2.1 -4,1.4 -10.5,-0.5 L 6.95,6.45 Q 3.95,5.6 1.7,5.5 -2.35,5.3 -8.5,7.55 l -3.45,1.2 -3.55,0.8 -3.6,-0.4 q -1.9,-0.6 -3,-1.95 -1.35,-1.65 -1.3,-4 0.05,-2.25 1.3,-4.1 2,-3.15 6.9,-5.05 4.3,-1.7 11.25,-2.5 l 8.15,-0.3 q 4.45,0.3 7.8,1.95 l 3.25,1.75 q 1.9,0.95 3.4,1.05 L 21,-4.2 23.3,-4.4"
       fill="#000000"
       fill-rule="evenodd"
       stroke="none"
       id="path1" />
    <path
       d="m 23.45,3.05 q -2.7,1 -5.5,0.7 Q 15.9,3.5 12.85,2.3 l -5,-1.9 Q 0.45,-1.85 -8.2,0.6 l -4.35,1.4 -4.5,0.9 q 1.2,-1.95 4.4,-3.1 4.8,-1.85 12.75,-2.2 5.35,-0.2 8.2,0.9 1.45,0.5 4.1,2 4.85,2.45 8.65,1.6 L 22.6,1.9 q 0.45,0.1 0.7,0.45 l 0.15,0.7"
       fill="#b9ae93"
       fill-rule="evenodd"
       stroke="none"
       id="path2" />
  </g>
</svg>
