<?xml version="1.0" encoding="UTF-8" standalone="no"?>
<svg
   width="22.799408"
   height="11.748276"
   version="1.1"
   id="svg1"
   sodipodi:docname="Mutation eyebrows.434.svg"
   xmlns:inkscape="http://www.inkscape.org/namespaces/inkscape"
   xmlns:sodipodi="http://sodipodi.sourceforge.net/DTD/sodipodi-0.dtd"
   xmlns="http://www.w3.org/2000/svg"
   xmlns:svg="http://www.w3.org/2000/svg">
  <defs
     id="defs1" />
  <sodipodi:namedview
     id="namedview1"
     pagecolor="#ffffff"
     bordercolor="#000000"
     borderopacity="0.25"
     inkscape:showpageshadow="2"
     inkscape:pageopacity="0.0"
     inkscape:pagecheckerboard="0"
     inkscape:deskcolor="#d1d1d1"
     fit-margin-top="5"
     fit-margin-left="5"
     fit-margin-right="5"
     fit-margin-bottom="5" />
  <g
     id="DefineShape_5466"
     transform="translate(10.713043,3.7982759)">
    <path
       d="M 3.35,-0.3 Q 2.9,-0.85 3,-1.65 q 0.1,-1.4 1.3,-1.9 1.25,-0.6 2.35,0.25 1.1,0.85 0.85,2.2 Q 7.25,0.35 5.7,0.7 L 4.35,0.55 3.35,-0.3 M -8.6,2.45 q 0.4,0.1 1.05,0.55 l 1,0.65 1.1,0.15 1.9,-0.35 q 1,-0.3 1.45,-0.7 L -0.95,1.6 0.35,1.35 Q 1.05,1.45 1.5,2 l 0.05,0.05 0.8,0.3 1.25,0.5 1.55,0.45 q 1,0.05 2.1,-0.7 L 9.1,1.35 Q 10.4,0.55 11.35,1.1 12.25,1.7 12.05,3 12,4.35 11,5.4 L 9.15,6.75 7.6,7.55 3.45,7.9 Q 1.5,7.45 0.1,6.05 L -0.25,6.35 -1.5,7.1 -2.85,7.75 -6.75,7.95 -9,7.1 -9.9,6.15 -10.4,5.45 q -0.6,-1.1 -0.05,-2.1 0.6,-1.15 1.85,-0.9 m 1.7,-3.25 q 0.1,-1.6 1.5,-2.2 1.45,-0.65 2.65,0.45 0.5,0.5 0.7,1.2 Q -1.85,-0.65 -2.1,0 -2.35,0.85 -3.15,1.3 -4,1.8 -4.85,1.65 -5.7,1.5 -6.3,0.8 -6.9,0.05 -6.9,-0.8"
       fill="#000000"
       fill-rule="evenodd"
       stroke="none"
       id="path1" />
  </g>
</svg>
