<?xml version="1.0" encoding="UTF-8" standalone="no"?>
<svg
   width="111.7147"
   height="83.72419"
   version="1.1"
   id="svg10"
   sodipodi:docname="Mutation head.705.svg"
   xmlns:inkscape="http://www.inkscape.org/namespaces/inkscape"
   xmlns:sodipodi="http://sodipodi.sourceforge.net/DTD/sodipodi-0.dtd"
   xmlns="http://www.w3.org/2000/svg"
   xmlns:svg="http://www.w3.org/2000/svg">
  <defs
     id="defs10" />
  <sodipodi:namedview
     id="namedview10"
     pagecolor="#ffffff"
     bordercolor="#000000"
     borderopacity="0.25"
     inkscape:showpageshadow="2"
     inkscape:pageopacity="0.0"
     inkscape:pagecheckerboard="0"
     inkscape:deskcolor="#d1d1d1"
     fit-margin-top="5"
     fit-margin-left="5"
     fit-margin-right="5"
     fit-margin-bottom="5" />
  <clipPath
     transform="matrix(1.0, 0.0, 0.0, 1.0, 0.0, 0.0)"
     id="_687935b9599f-37b2-44a8-a6b3-30f5e7c01e92">
    <path
       d="M 26.15,10.7 Q 25.35,9.65 23.9,9.2 L 21,9.3 q -1.5,0.5 -2.15,1.75 -0.5,1.05 -0.4,2.75 0.2,2.05 1,2.85 0.9,0.75 2.55,0.85 1.8,0.2 2.95,-0.4 1.05,-0.6 1.55,-1.85 0.5,-1.2 0.35,-2.55 -0.05,-1.05 -0.7,-2 m 10.45,14.5 2.85,-0.15 q 1.1,-0.2 1.7,-0.7 Q 42,23.6 41.8,22.7 41.6,21.8 40.35,21.3 L 37.2,20.85 h -1.35 v -0.2 l -0.2,-2.15 -0.5,-1.65 Q 34.6,16.15 33.65,16.1 32.7,16 32.1,16.6 q -0.65,0.65 -0.85,2.3 l -0.2,1.2 -1.7,-0.05 -2.75,-0.1 -1.8,-0.15 -1.75,0.3 q -1.4,0.65 -1.4,2.25 -0.1,1.55 1.3,2.3 l 3.45,0.3 4.7,-0.1 5.5,0.35 m 4.95,-8.25 1.2,1.45 q 0.8,0.6 1.75,0.65 2,0.25 3.4,-1.35 0.75,-0.85 0.9,-1.85 L 48.7,14.2 q -0.4,-1.55 -1.1,-2.2 -0.9,-0.8 -2.5,-0.7 -1.6,0 -2.6,0.85 -1.1,0.9 -1.3,2.75 -0.1,1.1 0.35,2.05 M 56.05,-3.1 53.8,1.05 Q 51.85,-3.9 49.05,-7.2 l 2.05,-0.6 q 1.9,-0.65 5.4,-2.2 0.65,2.5 0.6,3.8 -0.1,1.35 -1.05,3.1 M 17.4,-7.3 q 0.55,0.75 1.7,0.65 l 2.05,-0.5 q 3.65,-1.35 7.6,-1.5 4,-0.15 7.7,0.95 3.65,1.1 5.9,2.95 2.75,2.35 4.7,6.85 2.55,6 2.7,12.6 0.15,3.05 -0.45,5.45 -0.95,3.8 -4,7.05 -2.75,2.9 -6.75,4.8 -4.35,2.05 -8.3,2.3 l -0.7,0.05 Q 25.3,34.7 21.2,33.25 19.25,32.5 17.8,31.55 15.8,30.25 13.9,28 10.75,24.4 9.05,20.1 L 8.05,17.2 6.8,12.7 5.9,12.75 Q 4.6,13 3.95,14 q -0.7,1.1 -0.5,3.3 0.5,5.2 3.05,9.95 1.9,3.55 4.7,6.3 Q 1.95,37.2 -10.4,35.5 -23,33.6 -30.85,27.25 L -35.45,23 -39,18.95 q -2.2,-3.35 -2.8,-8.8 -1.1,-10.1 3.45,-20 4.4,-9.65 12.75,-16 6.3,-4.85 13.9,-7.05 7.8,-2.25 15.4,-1.25 l 7.2,1.45 7.65,2.15 q 5.1,1.9 9.35,5.4 4.25,3.5 7.15,8.1 l 1.65,3.25 -8.55,-0.35 q -5.25,0.65 -9.15,3.25 -1.2,0.75 -1.6,1.5 -0.65,1.2 0,2.1"
       fill="#52a250"
       fill-rule="evenodd"
       stroke="none"
       id="path1" />
  </clipPath>
  <g
     clip-path="url(#_687935b9599f-37b2-44a8-a6b3-30f5e7c01e92)"
     id="g8"
     transform="translate(48.929918,41.374194)">
    <g
       id="g7">
      <g
         transform="matrix(1.7298279,0,0,1.6976471,-97,-91.8)"
         id="g2">
        <g
           id="DefineShape_593">
          <path
             d="M 0,0 H 112.15 V 108.15 H 0 V 0"
             fill="#b9ae93"
             fill-rule="evenodd"
             stroke="none"
             id="path2" />
        </g>
      </g>
      <g
         transform="translate(-58.45,-92.8)"
         id="g4">
        <g
           id="g3" />
      </g>
      <g
         transform="translate(-43,-27.45)"
         id="g6">
        <g
           id="g5" />
      </g>
    </g>
  </g>
  <g
     clip-path="url(#_687935b9599f-37b2-44a8-a6b3-30f5e7c01e92)"
     id="g10"
     transform="translate(48.929918,41.374194)">
    <g
       transform="translate(-43.8,-42.35)"
       id="g9" />
  </g>
  <g
     id="DefineShape_6880"
     transform="translate(48.929918,41.374194)">
    <path
       d="m 44.05,-11.4 0.45,0.25 0.5,-0.2 5.55,-1.8 q 3.05,-1.15 5.25,-2.45 1.9,-1 2.75,-1 1.45,0.05 2.45,1.7 0.6,0.95 1,2.9 0.95,4.35 0.75,6.3 -0.25,2.55 -2.3,6.6 -1.8,3.4 -3.2,5.2 l -1.6,1.5 q 1.7,8.45 -0.6,15.9 -1.15,3.65 -3.05,6.35 -2.25,3.05 -6.5,5.9 -6.4,4.1 -12.85,4.95 -5.15,0.7 -10.35,-0.8 -2.7,-0.75 -5.1,-2 -0.95,0.6 -2.45,1.2 -5,2 -7.65,2.55 l -8.5,0.7 -12,-0.6 Q -21.9,40.5 -29.6,36.25 -37.25,32 -42.8,25.4 q -2.35,-2.8 -3.45,-5 -1.15,-2.4 -1.85,-5.9 -2.25,-11.15 1.6,-22.7 3.75,-11.2 12.1,-19.4 7.35,-7.15 16.95,-10.75 9.85,-3.75 19.75,-2.85 l 7.65,1.2 q 7.9,1.6 12.45,3.6 5.4,2.35 9.95,6.45 4.45,4.05 7.5,9.3 2.75,4.8 2.5,8.45 l 1.7,0.8 M 17.4,-7.3 q -0.65,-0.9 0,-2.1 0.4,-0.75 1.6,-1.5 3.9,-2.6 9.15,-3.25 l 8.55,0.35 -1.65,-3.25 q -2.9,-4.6 -7.15,-8.1 -4.25,-3.5 -9.35,-5.4 L 10.9,-32.7 3.7,-34.15 q -7.6,-1 -15.4,1.25 -7.6,2.2 -13.9,7.05 -8.35,6.35 -12.75,16 -4.55,9.9 -3.45,20 0.6,5.45 2.8,8.8 l 3.55,4.05 4.6,4.25 Q -23,33.6 -10.4,35.5 1.95,37.2 11.2,33.55 8.4,30.8 6.5,27.25 3.95,22.5 3.45,17.3 3.25,15.1 3.95,14 4.6,13 5.9,12.75 l 0.9,-0.05 1.25,4.5 1,2.9 q 1.7,4.3 4.85,7.9 1.9,2.25 3.9,3.55 1.45,0.95 3.4,1.7 4.1,1.45 8.35,1.1 l 0.7,-0.05 q 3.95,-0.25 8.3,-2.3 4,-1.9 6.75,-4.8 3.05,-3.25 4,-7.05 0.6,-2.4 0.45,-5.45 Q 49.6,8.1 47.05,2.1 45.1,-2.4 42.35,-4.75 40.1,-6.6 36.45,-7.7 q -3.7,-1.1 -7.7,-0.95 -3.95,0.15 -7.6,1.5 l -2.05,0.5 q -1.15,0.1 -1.7,-0.65 m 38.65,4.2 Q 57,-4.85 57.1,-6.2 57.15,-7.5 56.5,-10 53,-8.45 51.1,-7.8 l -2.05,0.6 q 2.8,3.3 4.75,8.25 L 56.05,-3.1 M 41.55,16.95 Q 41.1,16 41.2,14.9 q 0.2,-1.85 1.3,-2.75 1,-0.85 2.6,-0.85 1.6,-0.1 2.5,0.7 0.7,0.65 1.1,2.2 l 0.1,1.65 q -0.15,1 -0.9,1.85 -1.4,1.6 -3.4,1.35 Q 43.55,19 42.75,18.4 l -1.2,-1.45 m -4.95,8.25 -5.5,-0.35 -4.7,0.1 -3.45,-0.3 q -1.4,-0.75 -1.3,-2.3 0,-1.6 1.4,-2.25 l 1.75,-0.3 1.8,0.15 2.75,0.1 1.7,0.05 0.2,-1.2 q 0.2,-1.65 0.85,-2.3 0.6,-0.6 1.55,-0.5 0.95,0.05 1.5,0.75 l 0.5,1.65 0.2,2.15 v 0.2 h 1.35 l 3.15,0.45 q 1.25,0.5 1.45,1.4 0.2,0.9 -0.65,1.65 -0.6,0.5 -1.7,0.7 L 36.6,25.2 M 26.15,10.7 q 0.65,0.95 0.7,2 Q 27,14.05 26.5,15.25 26,16.5 24.95,17.1 23.8,17.7 22,17.5 q -1.65,-0.1 -2.55,-0.85 -0.8,-0.8 -1,-2.85 -0.1,-1.7 0.4,-2.75 Q 19.5,9.8 21,9.3 l 2.9,-0.1 q 1.45,0.45 2.25,1.5"
       fill="#000000"
       fill-rule="evenodd"
       stroke="none"
       id="path10" />
  </g>
</svg>
