<?xml version="1.0" encoding="UTF-8" standalone="no"?>
<svg
   width="33.426666"
   height="20.408001"
   version="1.1"
   id="svg2"
   sodipodi:docname="Mutation eyes.331.svg"
   xmlns:inkscape="http://www.inkscape.org/namespaces/inkscape"
   xmlns:sodipodi="http://sodipodi.sourceforge.net/DTD/sodipodi-0.dtd"
   xmlns="http://www.w3.org/2000/svg"
   xmlns:svg="http://www.w3.org/2000/svg">
  <defs
     id="defs2" />
  <sodipodi:namedview
     id="namedview2"
     pagecolor="#ffffff"
     bordercolor="#000000"
     borderopacity="0.25"
     inkscape:showpageshadow="2"
     inkscape:pageopacity="0.0"
     inkscape:pagecheckerboard="0"
     inkscape:deskcolor="#d1d1d1"
     fit-margin-top="5"
     fit-margin-left="5"
     fit-margin-right="5"
     fit-margin-bottom="5" />
  <g
     id="DefineShape_2144"
     transform="translate(17.326667,8.8689394)">
    <path
       d="m 10,-0.2 q 1,-1.6 1.15,-3.5 L 6.7,-4.05 3.15,-3.7 2.9,-2.3 Q 2.45,-1.15 1.85,-0.7 0.9,0.1 -1.3,0.1 -3.65,0 -4.45,-1.05 -5,-1.7 -5,-2.4 l -1.1,0.2 q -4.1,0.9 -6.05,1.7 -0.25,1.35 1.1,3 2.35,2.75 6.65,3.8 l 2.6,0.4 Q 1.3,6.85 4.3,5.15 6.9,3.65 9.1,1 L 10,-0.2 m 6.1,-4.55 q 0,3.6 -0.6,5.1 -0.45,1.15 -1.7,2.8 l -3,3.4 Q 8.1,9.1 4.55,10.4 q -3.6,1.35 -7.3,1.1 -3.7,-0.2 -7.15,-1.9 -3.4,-1.7 -5.8,-4.5 l -1.15,-1.8 q -0.45,-1 -0.45,-2.9 -0.2,-3.6 1.1,-4.95 0.85,-0.9 2.8,-1.5 9.5,-3.05 20.3,-2.8 l 6.6,0.7 q 1.55,0.4 2.05,1.1 0.45,0.6 0.55,2.3"
       fill="#000000"
       fill-rule="evenodd"
       stroke="none"
       id="path1" />
    <path
       d="M 10,-0.2 9.1,1 Q 6.9,3.65 4.3,5.15 1.3,6.85 -1.8,6.7 L -4.4,6.3 q -4.3,-1.05 -6.65,-3.8 -1.35,-1.65 -1.1,-3 1.95,-0.8 6.05,-1.7 L -5,-2.4 q 0,0.7 0.55,1.35 0.8,1.05 3.15,1.15 2.2,0 3.15,-0.8 0.6,-0.45 1.05,-1.6 L 3.15,-3.7 6.7,-4.05 11.15,-3.7 Q 11,-1.8 10,-0.2"
       fill="#b69393"
       fill-rule="evenodd"
       stroke="none"
       id="path2" />
  </g>
</svg>
