<?xml version="1.0" encoding="UTF-8" standalone="no"?>
<svg
   width="35.552284"
   height="29.950001"
   version="1.1"
   id="svg6"
   sodipodi:docname="Mutation eyes.349.svg"
   xmlns:inkscape="http://www.inkscape.org/namespaces/inkscape"
   xmlns:sodipodi="http://sodipodi.sourceforge.net/DTD/sodipodi-0.dtd"
   xmlns="http://www.w3.org/2000/svg"
   xmlns:svg="http://www.w3.org/2000/svg">
  <defs
     id="defs6" />
  <sodipodi:namedview
     id="namedview6"
     pagecolor="#ffffff"
     bordercolor="#000000"
     borderopacity="0.25"
     inkscape:showpageshadow="2"
     inkscape:pageopacity="0.0"
     inkscape:pagecheckerboard="0"
     inkscape:deskcolor="#d1d1d1"
     fit-margin-top="5"
     fit-margin-left="5"
     fit-margin-right="5"
     fit-margin-bottom="5" />
  <g
     id="DefineShape_2164"
     transform="translate(19.488,16.85)">
    <path
       d="M 5.9,-6.7 3.5,-6.95 q 0.7,0.9 1.65,1.5 0.3,0.2 0.7,0.35 L 6.25,-5.9 7.1,-6.6 5.9,-6.7 m 9.25,-1.35 q 0.8,0.95 0.9,2.25 0.1,1.3 -0.5,2.4 -1.15,2.05 -4.65,2.9 -3.1,0.65 -5.65,0.05 -2.4,-0.65 -4.5,-2.45 -1.8,-1.5 -2.6,-3.35 -0.85,-2.35 0.25,-4.15 0.65,-0.9 1.3,-1.15 l 2.05,-0.05 7.1,1.1 1.95,0.5 1.45,0.5 1.25,0.25 q 1,0.3 1.65,1.2 M 11,-5.1 11.55,-5.4 10.7,-6.1 9.65,-6.35 10.15,-5.9 10.7,-4.95 11,-5.1 m 2.1,13.45 -1.2,1.6 Q 8.95,12.75 3.85,13.1 L 1.25,12.85 Q -0.2,12.35 -0.65,11.1 -0.95,10.05 -0.4,8.9 0,8.1 0.95,7.05 L 2.65,5.4 4.95,3.75 Q 6.6,2.6 9.35,2.7 q 1.6,0.1 2.5,0.55 1.35,0.65 1.65,1.8 L 13.6,6.3 13.1,8.35 M 9.25,6.2 8.9,6.15 H 8.85 Q 9.25,7 8.75,7.85 L 8.6,8.1 9.7,7.15 10.1,6.35 9.25,6.2 M 1.9,0.05 3,1.3 Q 3.5,2.1 3.3,2.9 3.2,3.45 2.35,4.2 L -0.7,6.75 q -4,2.7 -8.7,2.3 -4.8,-0.4 -8.25,-3.6 L -19.2,3.4 q -0.6,-1.45 0.05,-2.55 l 1.55,-1.4 3.7,-2.45 q 2.15,-1.25 4,-1.6 l 3,-0.2 q 3.45,0.2 5.35,1.4 l 1.8,1.6 1.65,1.85 M 4.4,8.35 3.45,9.45 5,9.3 7.15,8.75 6.3,8.55 Q 5.45,8.15 5.25,7.4 L 5.2,7.45 4.4,8.35 m -11.1,-21 -0.45,-0.05 0.05,0.2 q 0.1,0.6 -0.25,1.1 -0.4,0.5 -0.95,0.65 -0.75,0.25 -1.45,-0.2 l -0.5,-0.5 -0.7,0.65 -1,1.15 2,-0.3 1.6,-0.45 1.65,-0.9 1.2,-1.05 -1.2,-0.3 m -2.1,6 -3.8,0.15 -2,-0.35 q -1.6,-0.2 -2.15,-1.5 -0.45,-1 0.05,-2.15 l 1.2,-1.9 1.65,-1.8 q 2.3,-2.2 4.25,-2.55 l 1.65,-0.1 3.45,0.45 q 1.85,0.6 2.7,2.1 0.45,0.75 0.45,1.65 0,0.95 -0.5,1.65 l -0.9,0.9 q -2.65,2.45 -4.55,3.05 l -1.5,0.4 m 5.05,7.2 -0.8,-0.3 q 0.4,0.65 0.4,1.45 0,1.7 -1.5,2.6 L -4.4,3.85 -4,3.65 -1.45,1.85 -3.75,0.55 M -10,4.45 -8.6,4.7 -7.4,4.75 -8.85,4.35 -10.2,3 l -0.25,-1.7 0.2,-0.7 -1.25,0.7 -0.4,0.25 -1.45,1 1.7,1.2 1.65,0.7"
       fill="#000000"
       fill-rule="evenodd"
       stroke="none"
       id="path1" />
    <path
       d="M -4.4,3.85 -5.65,4.3 q 1.5,-0.9 1.5,-2.6 0,-0.8 -0.4,-1.45 l 0.8,0.3 V 0.7 1.4 q 0,0.95 -0.15,1.45 l -0.5,1 m -7.1,-2.55 1.25,-0.7 -0.2,0.7 0.25,1.7 1.35,1.35 1.45,0.4 L -8.6,4.7 -10,4.45 -10.15,4.35 -10.65,4 -11.15,3.35 -11.55,2.1 -11.5,1.3"
       fill="#4d5a70"
       fill-rule="evenodd"
       stroke="none"
       id="path2" />
    <path
       d="m -10.95,-10.8 0.7,-0.65 0.5,0.5 q 0.7,0.45 1.45,0.2 0.55,-0.15 0.95,-0.65 0.35,-0.5 0.25,-1.1 l -0.05,-0.2 0.45,0.05 0.1,0.7 -0.1,0.65 -1.65,0.9 -1.6,0.45 -0.2,-0.1 -0.8,-0.75"
       fill="#705b4d"
       fill-rule="evenodd"
       stroke="none"
       id="path3" />
    <path
       d="M 5.15,-5.45 5.5,-6.3 5.9,-6.7 7.1,-6.6 6.25,-5.9 5.85,-5.1 Q 5.45,-5.25 5.15,-5.45 M 10.7,-6.1 10.85,-5.75 11,-5.1 10.7,-4.95 10.15,-5.9 9.65,-6.35 10.7,-6.1"
       fill="#4d704f"
       fill-rule="evenodd"
       stroke="none"
       id="path4" />
    <path
       d="M 9.7,7.15 8.6,8.1 8.75,7.85 Q 9.25,7 8.85,6.15 H 8.9 L 9.25,6.2 9.45,6.45 9.7,7.15 M 5,9.3 4.6,8.8 4.4,8.35 5.2,7.45 5.25,7.4 Q 5.45,8.15 6.3,8.55 L 7.15,8.75 5,9.3"
       fill="#4d6c70"
       fill-rule="evenodd"
       stroke="none"
       id="path5" />
    <path
       d="M 5.9,-6.7 5.5,-6.3 5.15,-5.45 Q 4.2,-6.05 3.5,-6.95 l 2.4,0.25 m 4.8,0.6 0.85,0.7 L 11,-5.1 10.85,-5.75 10.7,-6.1 M 9.7,7.15 9.45,6.45 9.25,6.2 10.1,6.35 9.7,7.15 M 5,9.3 3.45,9.45 4.4,8.35 4.6,8.8 5,9.3 m -15.95,-20.1 0.8,0.75 0.2,0.1 -2,0.3 1,-1.15 m 4.25,-0.5 0.1,-0.65 -0.1,-0.7 1.2,0.3 -1.2,1.05 m 2.3,15.15 0.5,-1 Q -3.75,2.35 -3.75,1.4 V 0.7 0.55 l 2.3,1.3 -2.55,1.8 -0.4,0.2 m -7.1,-2.55 -0.05,0.8 0.4,1.25 0.5,0.65 0.5,0.35 0.15,0.1 -1.65,-0.7 -1.7,-1.2 1.45,-1 0.4,-0.25"
       fill="#ffffff"
       fill-rule="evenodd"
       stroke="none"
       id="path6" />
  </g>
</svg>
