<?xml version="1.0" encoding="UTF-8" standalone="no"?>
<svg
   ffdec:objectType="frame"
   height="17.15"
   width="28.776911"
   version="1.1"
   id="svg3"
   xmlns:xlink="http://www.w3.org/1999/xlink"
   xmlns="http://www.w3.org/2000/svg"
   xmlns:svg="http://www.w3.org/2000/svg"
   xmlns:ffdec="https://www.free-decompiler.com/flash">
  <g
     transform="translate(14.903226,10.05)"
     id="g1">
    <use
       ffdec:characterId="2190"
       height="17.450001"
       transform="translate(-14.9,-10.05)"
       width="28.75"
       xlink:href="#shape0"
       id="use1" />
  </g>
  <defs
     id="defs3">
    <g
       id="shape0"
       transform="translate(14.9,10.05)">
      <path
         d="m 1.4,-0.8 0.7,-0.75 q 0.2,-0.45 0,-0.9 l -0.65,-0.75 -1.9,-0.3 -1.15,0.2 -0.9,0.8 -0.15,0.75 0.1,0.55 0.4,0.5 3.55,-0.1 M 8.45,-1.95 8.05,-2.3 6.1,-3.5 6.2,-1.8 6.05,-0.55 Q 5.9,0.35 5.25,1.15 V 1.2 Q 6.4,0.75 7.1,0.15 7.9,-0.4 8.3,-1.35 l 0.15,-0.6 m 5.4,0.9 Q 13.7,0.05 12.95,1.25 10.5,5.15 6.2,6.5 L 3.45,7.1 -6.3,6.7 q -5.25,-1.6 -7.75,-5.7 -1.15,-1.9 -0.75,-3.35 0.4,-1.4 2.55,-2.75 l 3.4,-2.1 3.6,-1.75 q 2.7,-1 6.15,-1.1 4.1,0 7.05,1.35 3.65,1.65 5.25,4.8 0.8,1.55 0.65,2.85 m -22.2,-0.1 Q -8.2,-0.55 -7.2,0 l 0.6,0.35 -0.05,-1.4 0.15,-1.15 q -0.9,0.5 -1.85,1.05"
         fill="#000000"
         fill-rule="evenodd"
         stroke="none"
         id="path1" />
      <path
         d="M 8.45,-1.95 8.3,-1.35 Q 7.9,-0.4 7.1,0.15 6.4,0.75 5.25,1.2 V 1.15 q 0.65,-0.8 0.8,-1.7 L 6.2,-1.8 6.1,-3.5 l 1.95,1.2 0.4,0.35 m -16.8,0.8 Q -7.4,-1.7 -6.5,-2.2 L -6.65,-1.05 -6.6,0.35 -7.2,0 q -1,-0.55 -1.15,-1.15"
         fill="#ffffff"
         fill-rule="evenodd"
         stroke="none"
         id="path2" />
      <path
         d="m 1.4,-0.8 -3.55,0.1 -0.4,-0.5 -0.1,-0.55 0.15,-0.75 0.9,-0.8 1.15,-0.2 1.9,0.3 0.65,0.75 q 0.2,0.45 0,0.9 L 1.4,-0.8"
         fill="#eeeeee"
         fill-rule="evenodd"
         stroke="none"
         id="path3" />
    </g>
  </defs>
</svg>
