<?xml version="1.0" encoding="UTF-8" standalone="no"?>
<svg xmlns:ffdec="https://www.free-decompiler.com/flash" xmlns:xlink="http://www.w3.org/1999/xlink" ffdec:objectType="shape" height="24.5px" width="38.3px" xmlns="http://www.w3.org/2000/svg">
  <g transform="matrix(1.0, 0.0, 0.0, 1.0, 1.2, -1.4)">
    <path d="M13.85 1.65 L15.3 1.4 16.0 1.5 Q16.65 1.55 17.95 2.3 19.2 1.55 19.9 1.5 L20.6 1.4 22.05 1.65 23.35 2.05 Q23.95 2.3 25.3 3.1 L27.45 4.35 29.9 5.2 32.45 4.65 Q34.0 4.0 34.7 4.25 L36.05 4.95 Q36.65 5.35 36.9 6.65 L37.1 7.85 37.0 9.2 Q36.65 10.95 35.25 12.6 35.1 14.5 33.2 17.55 31.2 20.6 28.4 22.55 25.55 24.5 22.9 25.2 L18.05 25.9 17.85 25.9 13.0 25.2 Q10.3 24.5 7.45 22.55 4.65 20.6 2.7 17.55 0.75 14.5 0.65 12.6 -0.75 10.95 -1.1 9.2 L-1.2 8.0 -1.2 7.85 -1.0 6.65 Q-0.75 5.35 -0.15 4.95 0.4 4.45 1.2 4.25 1.9 4.0 3.45 4.65 L6.0 5.2 8.4 4.35 10.6 3.1 Q11.9 2.3 12.5 2.05 L13.85 1.65 M14.1 11.75 Q11.9 13.0 9.9 13.2 L8.15 13.2 9.0 14.2 Q10.55 15.8 12.65 16.6 14.65 17.35 18.1 17.4 21.45 17.35 23.4 16.6 25.4 15.8 27.0 14.2 L27.85 13.2 26.05 13.2 Q24.05 13.0 21.85 11.75 L21.6 11.65 Q19.8 13.0 18.05 13.05 L17.9 13.05 Q16.1 13.0 14.35 11.65 L14.1 11.75" fill="#000000" fill-rule="evenodd" stroke="none"/>
  </g>
</svg>
