<?xml version="1.0" encoding="UTF-8" standalone="no"?>
<svg xmlns:ffdec="https://www.free-decompiler.com/flash" xmlns:xlink="http://www.w3.org/1999/xlink" ffdec:objectType="shape" height="26.05px" width="32.1px" xmlns="http://www.w3.org/2000/svg">
  <g transform="matrix(1.0, 0.0, 0.0, 1.0, 0.0, 0.85)">
    <path d="M13.7 22.85 Q11.5 20.55 8.85 19.6 L4.75 18.0 Q3.3 17.35 1.9 15.65 0.45 13.95 0.2 12.15 -0.05 10.3 0.0 8.9 0.05 7.65 0.45 6.1 L0.9 4.65 Q1.7 2.7 3.6 1.1 4.45 0.35 5.7 -0.3 L10.35 -0.5 Q12.9 0.2 14.15 1.4 L16.05 3.65 Q16.75 2.7 18.0 1.5 19.2 0.25 21.8 -0.5 L26.4 -0.3 Q27.65 0.35 28.5 1.1 30.4 2.7 31.2 4.65 L31.65 6.1 32.1 8.9 31.9 12.15 Q31.65 13.95 30.2 15.65 28.8 17.35 27.35 18.0 L23.25 19.6 Q20.6 20.55 18.4 22.85 L17.15 24.3 Q16.05 26.15 14.95 24.3 L13.7 22.85 M14.65 13.95 L14.65 17.35 Q14.9 18.2 15.5 18.25 L16.1 18.25 16.15 18.25 16.8 18.2 Q17.4 18.15 17.55 17.35 L17.55 13.95 20.95 13.95 Q21.8 13.65 21.85 13.1 L21.85 12.45 21.8 11.75 Q21.75 11.2 20.95 11.0 L17.55 11.0 17.55 7.6 Q17.4 6.8 16.8 6.75 L16.15 6.7 16.1 6.7 15.5 6.7 Q14.9 6.75 14.65 7.6 L14.65 11.0 11.2 11.0 Q10.4 11.2 10.35 11.75 L10.3 12.45 10.3 13.1 Q10.35 13.65 11.2 13.95 L14.65 13.95" fill="#000000" fill-rule="evenodd" stroke="none"/>
  </g>
</svg>
