<?xml version="1.0" encoding="UTF-8" standalone="no"?>
<svg xmlns:ffdec="https://www.free-decompiler.com/flash" xmlns:xlink="http://www.w3.org/1999/xlink" ffdec:objectType="frame" height="33.55px" width="31.75px" xmlns="http://www.w3.org/2000/svg">
  <g transform="matrix(1.0, 0.0, 0.0, 1.0, -1.15, -0.8)">
    <use ffdec:characterId="3001" height="33.55" transform="matrix(1.0, 0.0, 0.0, 1.0, 0.0, 0.0)" width="31.75" xlink:href="#shape0"/>
  </g>
  <defs>
    <g id="shape0">
      <path d="M9.45 10.7 Q8.4 9.2 8.05 8.05 L8.05 8.0 Q7.8 7.1 7.85 6.2 7.85 3.75 9.4 2.0 L10.2 1.4 Q11.05 0.9 12.0 0.85 L12.4 0.8 13.65 1.0 13.85 1.05 Q14.8 1.35 15.55 2.0 L15.7 2.1 16.6 3.15 17.7 2.0 Q18.45 1.35 19.35 1.05 L20.85 0.8 21.2 0.85 Q22.2 0.9 23.05 1.4 24.05 2.0 24.7 3.15 25.3 4.25 25.4 5.55 L25.45 6.05 25.15 8.0 25.15 8.05 23.8 10.7 23.1 11.65 Q26.8 9.5 28.7 10.0 30.5 10.35 31.95 11.85 L32.2 12.15 32.65 13.05 32.9 14.5 32.9 14.9 32.85 15.3 32.45 16.55 32.35 16.7 31.65 17.8 Q30.85 18.75 30.05 19.05 L30.95 20.3 31.5 22.1 31.5 23.6 31.45 23.95 30.6 25.65 Q29.9 26.55 28.7 27.05 L26.45 27.35 25.95 27.3 24.15 26.75 24.1 26.7 Q23.1 26.2 21.25 24.25 L18.75 21.4 Q19.6 25.2 19.0 28.25 18.4 31.3 17.45 32.85 16.5 34.3 14.25 34.35 11.95 34.35 11.65 32.55 11.35 30.7 12.1 30.6 L13.75 30.15 Q14.65 29.85 15.45 27.7 16.25 25.5 16.3 23.3 L16.15 21.1 14.9 22.9 13.2 25.4 11.15 27.35 11.1 27.4 9.4 28.15 8.95 28.25 7.95 28.35 6.6 28.15 Q5.35 27.8 4.55 27.0 3.85 26.35 3.6 25.4 L3.5 25.05 Q3.25 24.3 3.3 23.55 3.3 22.6 3.7 21.7 3.9 21.0 4.45 20.4 2.05 19.5 1.45 17.75 0.8 16.0 1.5 14.1 2.15 12.2 4.3 11.35 L5.1 11.1 6.55 11.05 6.6 11.05 Q7.65 11.05 9.35 11.7 L10.6 12.15 9.45 10.7" fill="#000000" fill-rule="evenodd" stroke="none"/>
    </g>
  </defs>
</svg>
