<?xml version="1.0" encoding="UTF-8" standalone="no"?>
<svg xmlns:ffdec="https://www.free-decompiler.com/flash" xmlns:xlink="http://www.w3.org/1999/xlink" ffdec:objectType="shape" height="26.8px" width="42.8px" xmlns="http://www.w3.org/2000/svg">
  <g transform="matrix(1.0, 0.0, 0.0, 1.0, 1.1, 0.35)">
    <path d="M32.35 11.05 Q35.0 10.9 37.4 12.0 39.8 13.05 40.95 15.7 42.05 18.35 41.5 20.45 40.9 22.5 40.15 23.45 39.35 24.45 28.3 25.6 L16.45 26.3 Q15.6 25.8 15.15 24.75 L12.6 4.65 Q12.35 1.4 18.95 0.3 L27.3 -0.05 Q29.05 0.65 28.25 9.05 L28.0 11.9 Q29.75 11.2 32.35 11.05 M10.65 4.95 Q11.15 5.3 11.4 6.55 11.5 7.8 9.45 8.1 L2.4 9.45 0.95 9.65 Q-0.45 9.75 -0.9 8.8 L-1.1 8.15 Q-1.2 7.55 -0.85 7.35 L0.15 6.55 3.55 5.45 5.8 4.9 8.95 4.55 Q10.05 4.5 10.65 4.95 M11.6 15.1 Q11.1 15.65 9.3 16.25 L5.25 17.15 2.35 17.55 1.1 17.35 Q0.5 17.1 0.55 15.85 0.6 14.6 1.85 14.15 L3.15 13.6 9.15 12.15 Q11.0 11.75 11.55 13.15 12.05 14.55 11.6 15.1 M12.5 23.25 Q12.15 23.95 11.1 24.4 L5.5 25.75 1.85 26.1 0.6 25.75 Q0.0 25.55 0.0 24.45 0.0 23.35 1.35 22.95 L2.8 22.55 10.1 20.8 Q12.1 20.25 12.5 21.45 12.85 22.65 12.5 23.25" fill="#000000" fill-rule="evenodd" stroke="none"/>
  </g>
</svg>
