<?xml version="1.0" encoding="UTF-8" standalone="no"?>
<svg
   ffdec:objectType="frame"
   height="44.349998"
   width="78.599998"
   version="1.1"
   id="svg14"
   sodipodi:docname="34.svg"
   xmlns:inkscape="http://www.inkscape.org/namespaces/inkscape"
   xmlns:sodipodi="http://sodipodi.sourceforge.net/DTD/sodipodi-0.dtd"
   xmlns:xlink="http://www.w3.org/1999/xlink"
   xmlns="http://www.w3.org/2000/svg"
   xmlns:svg="http://www.w3.org/2000/svg"
   xmlns:ffdec="https://www.free-decompiler.com/flash">
  <sodipodi:namedview
     id="namedview14"
     pagecolor="#ffffff"
     bordercolor="#000000"
     borderopacity="0.25"
     inkscape:showpageshadow="2"
     inkscape:pageopacity="0.0"
     inkscape:pagecheckerboard="0"
     inkscape:deskcolor="#d1d1d1"
     fit-margin-top="5"
     fit-margin-left="5"
     fit-margin-right="5"
     fit-margin-bottom="5" />
  <g
     transform="translate(2,2.05)"
     id="g3">
    <use
       ffdec:characterId="1"
       height="42.700001"
       transform="translate(-1.75,-2)"
       width="76.449997"
       xlink:href="#shape0"
       id="use1" />
    <use
       ffdec:characterId="34"
       height="42.700001"
       transform="translate(-0.05,-0.95)"
       width="75.449997"
       xlink:href="#shape1"
       id="use2" />
    <use
       ffdec:characterId="3"
       height="44.349998"
       transform="translate(-2,-2.05)"
       width="78.599998"
       xlink:href="#shape2"
       id="use3" />
  </g>
  <defs
     id="defs14">
    <g
       id="shape0"
       transform="translate(1.75,2)">
      <path
         d="M 2.8,0 V -0.4 H 5.4 V 0 H 9.7 V 19.45 0 H 20.55 L 19.3,19.45 H 9.7 0.25 V 0 H 2.8"
         fill="#ffffff"
         fill-rule="evenodd"
         stroke="none"
         id="path3" />
      <path
         d="M 0.25,19.45 H 9.7 19.3 L 18.7,28.6 16,28.5 10.95,27.95 9.7,27.8 Q 7.45,27.6 5.85,27.75 4.05,27.9 1.5,28.6 0.75,28.8 0.25,29.15 v -9.7 m 9.45,0 v 8.35 -8.35"
         fill="#121212"
         fill-rule="evenodd"
         stroke="none"
         id="path4" />
      <path
         d="m 9.7,27.8 1.25,0.15 5.05,0.55 2.7,0.1 h 1.05 l 3.75,0.15 q 2.45,0.3 3.6,1.25 0.6,0.5 0.6,1.1 0,0.65 -0.8,1 l -1.3,0.2 -7.15,0.15 -5.6,-0.3 L 9.7,31.75 7.95,31.6 3.1,31.95 0.95,32.3 0.25,32.1 -0.35,31.55 -0.5,31.3 V 29.9 L 0.25,29.15 Q 0.75,28.8 1.5,28.6 4.05,27.9 5.85,27.75 7.45,27.6 9.7,27.8 v 3.95 -3.95"
         fill="#999999"
         fill-rule="evenodd"
         stroke="none"
         id="path5" />
      <path
         d="M 2.8,0 H 0.25 M 9.7,0 H 5.4 m 16.15,0 h 10.7 M 20.55,0 H 9.7"
         fill="none"
         stroke="#666666"
         stroke-linecap="round"
         stroke-linejoin="round"
         stroke-width="4"
         id="path6" />
      <path
         d="m 9.7,-0.4 h 65 V 40.5 H 47.05 L 45.5,40.7 27,40.65 25.95,40.5 H 9.7 -0.5 V -0.4 H 9.7 V 40.5 -0.4"
         fill="#ffffff"
         fill-rule="evenodd"
         stroke="none"
         id="path7" />
    </g>
    <g
       id="shape1"
       transform="translate(0.05,0.95)">
      <path
         d="m 8.75,19.05 -0.5,2.1 1.75,0.95 q 1.15,0.65 1.15,1.55 0,0.65 -0.95,1.4 -1.25,0.85 -1.4,1.05 l -0.25,0.6 q -0.05,0.4 0.4,1.15 0.45,0.7 0.4,1.15 l 2.1,-0.1 q 1.35,-0.1 1.95,0.55 l 0.35,0.65 0.05,0.05 0.1,0.1 0.05,0.1 0.05,0.15 v 0.1 l 0.05,0.1 v 0.1 l 0.05,0.1 0.05,0.1 0.1,0.1 0.1,0.1 0.1,0.1 0.1,0.1 0.1,0.1 0.05,0.1 0.05,0.1 0.05,0.1 0.05,0.1 0.05,0.15 v 0.1 l 0.05,0.1 0.05,0.1 v 0.1 l 0.05,0.1 v 0.1 l 0.05,0.1 v 0.1 0.1 0.1 0.1 0.1 0.1 l -0.05,0.1 v 0.1 L 15,33.7 v 0.1 l -0.05,0.1 -0.05,0.1 -0.1,0.1 -0.05,0.1 -0.05,0.1 -0.1,0.1 -0.05,0.1 -0.1,0.1 -0.1,0.1 -0.1,0.1 -0.1,0.1 -0.05,0.1 -0.1,0.1 0.1,0.15 0.2,0.1 0.15,0.1 0.15,0.1 0.25,0.1 0.3,0.05 h 0.2 l 0.1,-0.05 0.1,-0.1 0.1,-0.1 0.15,-0.1 0.1,-0.1 0.15,-0.15 0.05,-0.1 0.05,-0.1 0.05,-0.1 0.1,-0.1 0.1,-0.1 0.15,-0.1 0.1,-0.05 0.1,-0.05 0.15,-0.05 h 0.2 0.25 0.25 l 0.2,0.1 0.2,0.1 0.25,0.1 0.2,0.1 0.2,0.1 0.2,0.1 0.1,0.1 0.15,0.1 0.25,0.1 0.2,0.1 h 0.05 l 0.35,0.1 0.25,0.1 0.1,0.1 0.1,0.1 0.1,0.1 0.1,0.1 0.05,0.1 v 0.1 l 0.05,0.1 0.05,0.1 v 0.1 l 0.05,0.1 0.05,0.1 v 0.15 0.1 0.1 l 0.05,0.1 v 0.1 0.1 0.1 0.1 l 0.8,0.05 0.15,-0.1 0.2,-0.1 0.2,-0.05 0.25,-0.05 0.4,-0.05 h 0.15 l 0.4,0.1 0.2,0.1 0.2,0.1 0.1,0.1 0.15,0.1 0.1,0.1 0.1,0.1 0.1,0.1 0.1,0.1 0.1,0.1 0.1,0.1 0.1,0.15 0.15,0.1 0.1,0.1 0.05,0.1 0.05,0.1 0.1,0.1 v 0.1 l 0.05,0.1 0.05,0.1 0.05,0.1 v 0.1 0.1 0.1 0.1 l -0.05,0.1 -0.05,0.15 -0.05,0.1 v 0.1 l -0.1,0.1 -0.05,0.1 -0.05,0.1 -0.1,0.1 -0.15,0.1 -0.15,0.1 -0.25,0.1 -0.4,0.05 H 23.95 16.9 9.4 7.3 2.25 L 1.85,40.9 1.6,40.8 1.4,40.7 1.3,40.6 1.2,40.5 1.1,40.4 1.05,40.3 1,40.2 0.95,40.1 0.9,40 0.85,39.85 V 39.75 39.7 L 0.75,39.65 0.55,39.55 0.45,39.45 0.35,39.3 0.25,39.2 0.2,39.1 0.1,39 V 38.9 L 0.05,38.8 0,38.7 v -0.1 -0.1 -0.1 l -0.05,-0.1 v -0.1 -0.1 -0.1 -0.1 -0.15 -0.1 -0.1 -0.1 -0.1 -0.1 -0.1 -0.1 -0.1 -0.1 -0.1 -0.1 -0.1 -0.1 -0.1 V 36.2 36.1 36 35.9 35.8 35.7 35.6 35.5 35.4 35.3 35.2 35.1 35 v -0.1 -0.1 -0.1 -0.15 -0.1 -0.1 -0.1 -0.1 -0.1 -0.1 -0.1 -0.1 -0.1 -0.1 -0.1 -0.1 -0.1 -0.1 V 33 32.9 32.8 32.7 32.6 32.5 32.4 32.3 32.2 32.1 32 v -0.1 -0.1 -0.1 -0.1 -0.1 -0.15 -0.1 -0.1 -0.1 -0.1 -0.1 -0.1 L 0,30.65 v -0.1 -0.1 -0.1 -0.1 -0.1 -0.1 -0.1 -0.15 -0.1 -0.1 -0.1 -0.1 -0.1 -0.1 -0.1 -0.1 -0.1 -0.1 -0.1 -0.1 -0.1 -0.1 -0.15 -0.1 -0.1 -0.1 -0.1 -0.1 -0.1 -0.1 -0.1 -0.1 -0.1 -0.1 -0.1 -0.1 -0.1 -0.1 -0.15 -0.1 -0.1 L 0.05,26.3 V 26.2 26.1 26 25.9 25.8 25.7 25.6 L 0.1,25.5 v -0.1 -0.1 -0.1 -0.15 -0.1 -0.1 -0.1 -0.1 -0.1 -0.1 -0.1 -0.1 -0.1 -0.1 -0.1 -0.1 -0.1 -0.1 -0.1 V 23.4 23.3 23.2 23.1 23 22.9 22.8 22.7 22.6 22.5 22.4 22.3 22.2 22.1 22 v -0.15 -0.1 -0.1 -0.1 -0.1 -0.1 -0.1 -0.1 -0.1 -0.1 -0.1 -0.1 -0.1 -0.1 -0.1 V 20.3 20.2 20.1 20 19.9 19.8 19.7 19.6 19.5 19.4 19.3 19.2 19.1 19 v -0.1 -0.1 -0.15 -0.1 -0.1 -0.1 -0.1 -0.1 -0.1 -0.1 -0.1 -0.1 -0.1 -0.1 -0.1 -0.1 -0.1 V 17.1 17 16.9 16.8 16.7 16.6 16.5 16.4 16.3 16.2 16.1 16 v -0.1 -0.1 -0.1 -0.1 -0.15 -0.1 -0.1 -0.1 -0.1 -0.1 -0.1 -0.1 -0.1 -0.1 -0.1 -0.1 -0.1 -0.1 -0.1 -0.15 -0.1 -0.1 -0.1 -0.1 -0.1 -0.1 -0.1 -0.1 -0.1 -0.1 -0.1 -0.1 -0.1 -0.1 -0.15 -0.1 -0.1 -0.1 -0.1 -0.1 -0.1 -0.1 -0.1 -0.1 -0.1 -0.1 -0.1 -0.1 -0.1 -0.1 V 10.7 10.6 10.5 10.4 10.3 10.2 10.1 10 9.9 9.8 9.7 9.6 9.5 9.4 9.3 9.15 9.05 8.95 8.85 8.75 8.65 8.55 8.45 8.35 8.25 8.15 8.05 7.95 7.85 7.75 7.65 7.5 7.4 7.3 7.2 7.1 7 6.9 6.8 6.7 6.6 6.5 6.4 6.3 6.2 6.1 5.95 5.85 5.75 5.65 5.55 5.45 5.35 5.25 5.15 5.05 4.95 4.85 4.75 4.65 L 0.15,4.55 V 4.4 4.3 4.2 4.1 4 3.9 3.8 L 0.2,3.7 V 3.6 3.5 3.4 3.3 3.2 3.1 3 L 0.25,2.9 V 2.75 2.65 L 0.3,2.55 V 2.45 2.35 2.25 2.15 2.1 L 0.2,2 0.15,1.9 0.1,1.8 0.05,1.7 0,1.6 V 1.5 1.4 1.3 1.2 1.1 1 L 0.05,0.9 0.1,0.8 V 0.65 L 0.15,0.55 0.2,0.45 0.3,0.35 0.4,0.25 0.5,0.15 0.65,0.05 0.85,-0.05 1,-0.1 1.1,-0.15 H 1.4 V -0.2 h 0.45 0.4 0.15 0.1 0.6 l 1.35,0.05 0.9,0.05 h 0.6 L 7.65,-0.05 9.1,0 h 3.05 l 0.6,0.05 0.3,0.05 h 0.3 l 0.2,0.05 h 0.05 l 0.95,-0.55 q 0.7,-0.2 1.1,0.25 0.3,0.4 0.05,1 L 14.95,1.65 14,2.25 q -0.5,0.4 -0.6,0.85 l 0.75,1.15 Q 14.7,4.9 14.7,5.4 14.75,6.1 14,6.65 L 12.7,7.4 q -0.8,0.5 -0.9,1.1 -0.05,0.35 0.25,1.15 0.3,0.75 0.2,1.15 1.35,0.25 1.95,1.5 0.55,1.05 0.3,2.5 -0.25,1.05 -0.85,1.5 -0.45,0.3 -1.55,0.4 l -1.95,0.35 -0.45,0.2 -0.05,-0.1 0.05,-1.1 Q 9.8,15.35 9.45,15 9.2,14.7 8.4,14.7 7.5,14.7 7.2,15 6.8,15.35 6.9,16 l 0.05,1.15 -0.15,0.8 Q 6.75,18.4 6.95,18.65 7.2,19 7.9,19.1 L 8.75,19.05 M 30.9,0.9 q 0,0.55 -0.75,1 L 28.9,2.35 27.8,2.9 Q 27.05,3.2 26.6,2.75 L 26.2,2.05 24.95,1 Q 24.1,0.4 24.25,-0.3 l 0.4,-0.5 0.7,-0.1 0.85,0.55 h 0.6 l 2.3,0.05 1.15,0.25 Q 30.9,0.3 30.9,0.9 M 53,2.15 51.75,2.6 51.15,2.45 50.5,2.5 49.85,2.7 48.15,2.5 q -0.85,-0.35 -1.4,-1.15 -0.4,-0.6 -0.35,-1.1 0.15,-0.65 0.85,-0.9 l 1.3,-0.15 4.1,0.05 1.4,0.3 q 0.45,0.3 0.5,0.9 0.1,0.65 -0.3,1.05 L 53,2.15 m 11.35,15 L 64.3,17.1 64.25,17 v -0.1 l -0.1,-0.1 -0.05,-0.1 -0.15,-0.15 -0.1,-0.1 -0.1,-0.1 -0.1,-0.1 -0.1,-0.1 -0.1,-0.1 -0.05,-0.1 -0.05,-0.1 -0.1,-0.1 -0.1,-0.1 -0.1,-0.1 -0.1,-0.1 -0.1,-0.1 -0.05,-0.1 -0.05,-0.1 L 62.65,15 62.6,14.9 62.5,14.8 V 14.7 L 62.35,14.6 62.3,14.5 62.25,14.4 V 14.3 L 62.15,14.2 62.1,14.1 62,14 61.9,13.9 61.8,13.8 61.75,13.7 61.7,13.6 v -0.1 l -0.05,-0.15 v -0.1 l -0.05,-0.1 0.05,-0.1 v -0.1 -0.1 l 0.05,-0.1 v -0.1 -0.1 -0.1 l 0.1,-0.1 v -0.1 l 0.1,-0.1 0.05,-0.1 0.1,-0.1 V 11.8 l 0.1,-0.1 0.05,-0.1 0.05,-0.1 v -0.1 l 0.05,-0.1 0.05,-0.1 0.05,-0.1 0.1,-0.1 0.05,-0.1 0.05,-0.1 0.05,-0.1 0.05,-0.1 0.05,-0.1 0.05,-0.1 v -0.1 -0.15 -0.1 -0.1 -0.1 -0.1 l 0.05,-0.1 0.05,-0.1 0.1,-0.1 0.05,-0.1 0.05,-0.1 0.05,-0.1 0.1,-0.1 0.1,-0.1 0.2,-0.1 0.15,-0.1 h 0.1 l 0.15,-0.1 0.2,-0.1 L 64.25,8.5 64.4,8.45 64.65,8.4 64.8,8.35 64.75,8.25 64.7,8.15 64.6,8.05 64.45,7.95 64.35,7.85 64.25,7.75 64.15,7.65 63.95,7.5 63.85,7.45 63.8,7.4 63.55,7.35 63.3,7.25 63.15,7.2 62.9,7.1 62.7,7 62.5,6.9 62.25,6.8 62,6.7 61.8,6.6 61.7,6.5 61.55,6.4 61.4,6.3 61.15,6.2 60.95,6.1 60.8,5.95 60.7,5.85 60.65,5.75 60.6,5.65 60.55,5.55 60.5,5.45 v -0.1 -0.1 l -0.05,-0.1 0.05,-0.1 v -0.1 -0.1 -0.1 l 0.05,-0.1 0.05,-0.1 V 4.4 4.3 L 60.65,4.2 60.7,4.1 V 4 L 60.8,3.9 60.9,3.8 61,3.7 61.05,3.6 61.15,3.5 V 3.4 L 61.2,3.3 61.25,3.2 61.3,3.1 61.35,3 V 2.9 2.75 L 61.25,2.65 61.2,2.55 61.15,2.45 V 2.35 L 61.1,2.25 V 2.15 2.05 L 61.05,1.95 V 1.85 1.75 L 61,1.65 60.95,1.55 60.9,1.45 60.85,1.35 60.8,1.2 V 1.1 1 L 60.75,0.9 V 0.8 L 60.8,0.7 V 0.6 0.5 0.4 l 0.1,-0.1 0.05,-0.1 0.1,-0.1 0.1,-0.1 0.15,-0.1 0.2,-0.1 h 0.2 l 0.35,0.05 0.2,0.1 0.05,-0.05 0.2,-0.1 h 0.15 0.3 v -0.05 h 0.35 l 2,0.05 h 0.65 l 1,0.05 2.25,0.05 h 1.7 l 0.8,0.05 0.55,0.05 h 0.5 l 0.3,0.05 H 73.1 L 73.2,0 l 0.15,-0.1 0.2,-0.05 0.1,-0.05 h 0.3 l 0.45,0.05 0.25,0.1 0.15,0.1 0.15,0.1 0.1,0.1 0.05,0.1 0.1,0.1 0.05,0.1 0.05,0.1 0.05,0.15 0.05,0.1 V 1 1.1 1.2 1.3 1.4 1.5 1.6 1.7 1.8 1.9 2 v 0.1 0.1 0.15 0.1 0.1 0.1 0.1 0.1 l -0.05,0.1 v 0.1 0.1 0.1 0.1 0.1 0.1 0.1 0.1 L 75.3,3.85 V 4 4.1 4.2 4.3 l 0.05,0.1 v 0.1 0.1 0.1 0.1 0.1 0.1 0.1 0.1 0.1 0.1 0.15 0.1 0.1 0.1 0.1 0.1 0.1 0.1 0.1 0.1 0.1 0.1 0.1 0.1 l 0.05,0.1 v 0.1 0.15 0.1 0.1 0.1 0.1 0.1 0.1 0.1 0.1 0.1 0.1 0.1 0.1 0.1 0.1 0.15 0.1 0.1 0.1 0.1 0.1 0.1 0.1 0.1 0.1 0.1 0.1 0.1 0.1 0.1 0.15 0.1 0.1 0.1 0.1 0.1 0.1 0.1 0.1 0.1 0.1 0.1 0.1 0.1 0.1 0.1 0.15 0.1 0.1 0.1 0.1 0.1 0.1 0.1 0.1 0.1 0.1 0.1 0.1 0.1 0.1 0.15 0.1 0.1 0.1 0.1 0.1 0.1 0.1 0.1 0.1 0.1 0.1 0.1 0.1 0.1 0.1 0.15 0.1 0.1 0.1 0.1 0.1 0.1 0.1 0.1 0.1 0.1 0.1 0.1 0.1 0.1 0.15 0.1 0.1 0.1 0.1 0.1 0.1 0.1 0.1 0.1 0.1 0.1 0.1 0.1 0.1 0.15 0.1 0.1 0.1 0.1 0.1 0.1 0.1 0.1 0.1 0.1 0.1 0.1 0.1 0.1 0.1 0.15 0.1 0.1 0.1 0.1 0.1 0.1 0.1 0.1 0.1 0.1 0.1 0.1 0.1 0.1 0.15 0.1 0.1 0.1 0.1 0.1 0.1 0.1 0.1 0.1 0.1 0.1 0.1 0.1 0.1 0.1 0.15 0.1 0.1 0.1 0.1 0.1 0.1 0.1 0.1 0.1 0.1 0.1 0.1 0.1 0.1 0.15 0.1 0.1 0.1 0.1 0.1 0.1 0.1 0.1 0.1 0.1 0.1 0.1 0.1 0.1 0.15 0.1 0.1 0.1 0.1 0.1 0.1 0.1 0.1 0.1 0.1 0.1 0.1 0.1 0.1 0.1 0.15 0.1 0.1 0.1 0.1 0.1 0.1 0.1 0.1 0.1 0.1 0.1 0.1 0.1 0.1 0.15 0.1 0.1 0.1 0.1 0.1 0.1 0.1 0.1 0.1 0.1 0.1 0.1 0.1 0.1 0.1 0.15 0.1 0.1 0.1 0.1 0.1 0.1 0.1 0.1 0.1 0.1 0.1 0.1 0.1 0.1 0.15 0.1 0.1 0.1 0.1 0.1 0.1 0.1 0.1 0.1 0.1 0.1 0.1 0.1 L 75.35,34 v 0.15 0.1 0.1 0.1 0.1 0.1 0.1 0.1 0.1 0.1 0.1 0.1 l -0.05,0.1 v 0.1 0.1 0.1 0.15 0.1 0.1 0.1 0.1 0.1 0.1 0.1 0.1 0.1 0.1 0.1 0.1 0.1 0.1 l -0.05,0.15 v 0.1 0.1 0.1 0.1 0.1 0.1 0.1 0.1 0.1 0.1 l -0.05,0.1 v 0.1 0.1 0.1 0.1 0.15 0.1 l -0.05,0.1 -0.05,0.1 -0.05,0.1 v 0.1 0.1 0.1 L 75,39.8 74.95,39.9 V 40 l -0.1,0.1 v 0.1 l -0.1,0.1 -0.05,0.1 -0.1,0.15 -0.15,0.1 -0.15,0.05 -0.1,0.05 v 0.1 l -0.1,0.1 -0.05,0.15 -0.1,0.1 -0.1,0.1 -0.1,0.1 -0.15,0.1 -0.2,0.1 -0.2,0.05 -0.1,0.05 -0.35,0.05 H 72.6 L 66.4,41.7 60.05,41.65 H 48.8 47.9 47.8 l -0.1,0.05 -0.4,0.05 -0.4,-0.05 -0.2,-0.05 -0.25,-0.15 -0.1,-0.1 -0.1,-0.1 -0.1,-0.1 -0.1,-0.1 L 45.95,41 45.9,40.9 V 40.8 L 45.85,40.7 45.8,40.6 V 40.5 40.4 40.3 40.2 40.1 L 45.85,40 v -0.15 l 0.05,-0.1 v -0.1 l 0.1,-0.1 0.05,-0.1 0.1,-0.1 0.1,-0.1 0.1,-0.1 0.1,-0.1 0.25,-0.1 0.2,-0.1 h 0.25 l 0.3,-0.05 0.1,-0.05 0.2,-0.05 0.15,-0.05 0.1,-0.05 0.15,-0.05 h 0.25 l 0.4,-0.05 0.05,-0.05 H 49 l 0.25,-0.05 0.15,-0.05 0.25,-0.05 0.5,-0.05 0.25,-0.1 0.2,-0.05 0.15,-0.05 L 51,38 h 0.15 l 0.6,0.05 0.4,0.05 0.2,0.1 0.15,0.1 h 0.05 l 0.1,0.05 0.65,-0.05 0.05,-0.1 V 38.1 L 53.4,38 53.45,37.9 V 37.8 37.7 37.6 37.5 37.4 37.3 L 53.5,37.2 V 37.1 L 53.55,37 v -0.1 l 0.05,-0.1 0.05,-0.15 0.1,-0.1 0.05,-0.1 0.05,-0.1 0.15,-0.1 0.05,-0.1 0.05,-0.1 0.1,-0.1 0.1,-0.1 0.1,-0.1 0.15,-0.1 0.15,-0.1 0.15,-0.1 0.25,-0.1 0.2,-0.1 0.15,-0.15 0.2,-0.1 0.15,-0.1 0.15,-0.05 0.15,-0.05 h 0.25 0.4 l 0.4,0.05 0.2,0.1 0.15,0.1 0.2,0.1 0.15,0.1 0.1,0.1 0.1,-0.05 V 35.2 35.1 35 34.9 34.8 l -0.1,-0.1 v -0.15 l -0.1,-0.1 v -0.1 l -0.05,-0.1 -0.05,-0.1 v -0.1 -0.1 -0.1 -0.1 l -0.05,-0.1 -0.05,-0.1 v -0.1 -0.1 L 57.6,33.25 V 33.15 33 32.9 32.8 l 0.05,-0.1 v -0.1 -0.1 l 0.05,-0.1 0.05,-0.1 v -0.1 -0.1 l 0.05,-0.1 0.05,-0.1 0.05,-0.1 0.05,-0.1 0.1,-0.1 0.1,-0.1 0.15,-0.15 0.1,-0.1 0.1,-0.1 0.15,-0.1 0.2,-0.1 0.2,-0.1 0.25,-0.1 0.2,-0.05 0.1,-0.05 0.25,-0.05 h 0.4 l 0.15,-0.05 0.25,-0.05 0.05,-0.15 0.05,-0.1 0.05,-0.1 0.05,-0.1 0.05,-0.1 0.05,-0.1 v -0.1 -0.1 -0.1 -0.1 -0.1 -0.1 -0.1 L 61,29.05 v -0.1 -0.1 -0.15 l 0.05,-0.1 V 28.5 28.4 28.3 L 61.1,28.2 V 28.1 L 61.15,28 v -0.1 -0.1 -0.1 -0.1 -0.1 -0.1 l 0.05,-0.1 0.05,-0.15 v -0.1 -0.1 -0.1 -0.1 -0.1 l -0.2,-0.1 -0.1,-0.1 -0.1,-0.1 -0.1,-0.1 -0.05,-0.1 -0.1,-0.1 v -0.1 L 60.5,25.85 60.45,25.75 60.4,25.6 60.3,25.5 60.25,25.4 60.2,25.3 60.15,25.2 V 25.1 L 60.1,25 60.05,24.9 59.95,24.8 59.8,24.7 59.7,24.6 59.6,24.5 59.55,24.4 59.5,24.3 59.4,24.2 59.35,24.1 59.3,23.95 59.25,23.85 v -0.1 -0.1 l -0.05,-0.1 v -0.1 -0.1 -0.1 -0.1 l 0.05,-0.1 v -0.1 l 0.05,-0.1 v -0.1 l 0.05,-0.1 V 22.55 22.4 22.3 22.2 L 59.3,22.1 V 22 21.9 l 0.05,-0.1 v -0.1 -0.1 l 0.05,-0.1 v -0.1 l 0.1,-0.1 v -0.1 l 0.05,-0.1 0.05,-0.1 0.1,-0.1 0.05,-0.15 0.1,-0.1 0.1,-0.1 0.05,-0.1 0.05,-0.1 0.05,-0.1 0.1,-0.1 0.05,-0.1 0.1,-0.1 0.05,-0.1 0.05,-0.1 0.1,-0.1 0.05,-0.1 0.15,-0.1 0.1,-0.1 0.1,-0.15 0.1,-0.1 0.05,-0.1 0.1,-0.1 0.1,-0.1 0.15,-0.1 0.2,-0.1 0.15,-0.1 0.25,-0.1 0.35,-0.05 h 0.95 0.35 0.1 l 0.7,0.15 0.25,0.05 0.3,0.25 1,0.3 1.45,-0.05 q 0.95,-0.1 1.15,-0.55 l 0.1,-0.95 0.15,-1.2 Q 69,15.6 68.5,15.3 L 67.4,15.1 66.5,15 65.65,15.05 Q 64.9,15.4 64.9,16.15 V 17 l -0.05,0.1 -0.5,0.05 M 64.05,5.5 64.35,5.85 Q 64.7,6.25 65.1,6.2 L 65.5,6 65.95,5.5 66.25,5 66.2,4.5 66.05,4.05 65.65,3.75 64.4,3.5 q -0.55,0.05 -1,0.7 L 63.15,4.7 Q 63.05,5 63.3,5.25 L 64.05,5.5 M 60.7,11.25 59.75,10.9 58.8,10.35 58.6,9.75 Q 58.5,8.9 58.8,8.5 59.15,8.1 59.95,8 h 0.8 l 0.65,0.45 0.1,0.95 -0.05,1.1 q -0.2,0.7 -0.75,0.75 m -1.3,4.55 0.3,-0.2 h 0.25 l 0.1,-0.05 q 0.85,0 1,0.85 l -0.1,0.65 -0.55,0.45 -0.7,0.05 -0.5,-0.45 Q 59,16.8 59.1,16.4 l 0.3,-0.6 m -0.5,11.1 0.95,0.15 q 0.6,0.35 0.5,1.05 0,0.6 -0.35,1.2 -0.45,0.8 -1.1,0.95 -0.4,0.1 -0.75,-0.2 L 57.7,29.4 57.65,28.45 57.8,27.9 Q 58,27.35 58.35,27.15 L 58.9,26.9 m 6.55,3.6 v -0.6 q 0,-0.65 -0.5,-1.15 l -0.5,-0.2 -0.25,0.1 q -1,0.35 -1.6,0.85 l -0.2,0.2 -0.05,0.65 -0.25,0.8 q -0.1,0.65 0.45,0.9 l 0.8,0.1 1,-0.05 0.95,-0.2 Q 65.8,31.55 65.6,31 L 65.45,30.5 M 16.4,9.05 l -0.2,0.9 -0.8,0.5 -1,0.05 -0.9,-0.2 -0.7,-0.6 Q 12.55,9.05 13.2,8.1 13.75,7.25 14.25,7.2 l 0.9,0.2 0.75,0.1 q 0.45,0.25 0.5,0.7 V 9.05 M 5.7,5.95 6.2,6.8 6.8,7.15 7.75,7.8 Q 8.6,8.1 9.25,7.3 L 9.5,6.7 9.25,6.2 8.9,4.9 Q 8.7,4.1 8.15,3.9 l -1,0.05 Q 6.6,4.1 6.1,4.5 5.65,4.85 5.55,5.2 L 5.7,5.95 M 10.5,19.1 V 18.65 L 10.75,18.1 Q 11,17.9 11.3,17.85 l 1.15,0.15 0.85,0.65 -0.05,0.85 -0.3,0.8 -0.1,0.55 q -0.15,0.7 -0.9,0.7 l -0.9,-0.2 -0.65,-0.4 Q 10.1,20.7 10.05,20.25 10,19.85 10.25,19.5 L 10.5,19.1 M 6.6,32.55 6.3,33.6 Q 6.15,34.1 6.6,34.55 6.9,34.9 7.5,35 7.95,35.1 8.45,34.75 L 8.85,34.25 9.15,33.8 9.5,33 Q 9.6,32.5 9.3,32.15 8.95,31.8 8.3,31.9 L 7.35,32 Q 6.7,32.2 6.6,32.55 m 2.5,7.4 1.5,0.25 q 1.3,0.1 1.75,-0.55 L 12.7,38.8 Q 13,37.45 12.65,36.85 l -1.2,-0.7 -0.75,-0.1 -0.65,0.35 -1.6,1.85 q -0.4,0.6 -0.25,1 0.15,0.5 0.9,0.7"
         fill="#999999"
         fill-rule="evenodd"
         stroke="none"
         id="path8" />
      <path
         d="M 9.7,17.25 9.85,17.7 Q 10.1,18.45 9.3,18.85 L 8.75,19.05 7.9,19.1 Q 7.2,19 6.95,18.65 6.75,18.4 6.8,17.95 L 6.95,17.15 6.9,16 q -0.1,-0.65 0.3,-1 0.3,-0.3 1.2,-0.3 0.8,0 1.05,0.3 0.35,0.35 0.25,1.05 l -0.05,1.1 0.05,0.1 m 54.1,1.1 -0.15,-0.05 q -0.25,-0.15 -0.25,-0.5 0,-0.35 0.3,-0.5 l 0.5,-0.15 h 0.15 L 64.85,17.1 64.9,17 v -0.85 q 0,-0.75 0.75,-1.1 L 66.5,15 l 0.9,0.1 1.1,0.2 q 0.5,0.3 0.4,1.05 l -0.15,1.2 -0.1,0.95 q -0.2,0.45 -1.15,0.55 l -1.45,0.05 -1,-0.3 -0.3,-0.25 L 64.5,18.5 63.8,18.35 M 64.05,5.5 63.3,5.25 Q 63.05,5 63.15,4.7 L 63.4,4.2 q 0.45,-0.65 1,-0.7 l 1.25,0.25 0.4,0.3 L 66.2,4.5 66.25,5 65.95,5.5 65.5,6 65.1,6.2 Q 64.7,6.25 64.35,5.85 L 64.05,5.5 m 1.4,25 0.15,0.5 q 0.2,0.55 -0.3,0.9 l -0.95,0.2 -1,0.05 -0.8,-0.1 Q 62,31.8 62.1,31.15 l 0.25,-0.8 0.05,-0.65 0.2,-0.2 q 0.6,-0.5 1.6,-0.85 l 0.25,-0.1 0.5,0.2 q 0.5,0.5 0.5,1.15 v 0.6 M 5.7,5.95 5.55,5.2 Q 5.65,4.85 6.1,4.5 6.6,4.1 7.15,3.95 l 1,-0.05 Q 8.7,4.1 8.9,4.9 L 9.25,6.2 9.5,6.7 9.25,7.3 Q 8.6,8.1 7.75,7.8 L 6.8,7.15 6.2,6.8 5.7,5.95 m 3.4,34 q -0.75,-0.2 -0.9,-0.7 -0.15,-0.4 0.25,-1 l 1.6,-1.85 0.65,-0.35 0.75,0.1 1.2,0.7 q 0.35,0.6 0.05,1.95 l -0.35,0.85 Q 11.9,40.3 10.6,40.2 L 9.1,39.95 M 6.6,32.55 Q 6.7,32.2 7.35,32 L 8.3,31.9 q 0.65,-0.1 1,0.25 0.3,0.35 0.2,0.85 l -0.35,0.8 -0.3,0.45 -0.4,0.5 Q 7.95,35.1 7.5,35 6.9,34.9 6.6,34.55 6.15,34.1 6.3,33.6 l 0.3,-1.05"
         fill="#ffffff"
         fill-rule="evenodd"
         stroke="none"
         id="path9" />
      <path
         d="M 41.85,23.35 Q 40.95,23 40.8,22.1 q -0.25,-0.85 0.35,-1.6 0.5,-0.6 1.6,-0.85 2.85,-0.7 5.3,0.95 1.15,0.75 0.95,1.6 -0.15,0.65 -0.8,0.9 l -1.2,0.2 -3.5,0.2 -1.65,-0.15"
         fill="#000000"
         fill-rule="evenodd"
         stroke="none"
         id="path10" />
      <path
         d="m 46.85,4 1.5,1.05 q 1.2,-0.7 3.55,-1.5 L 55.55,2.2 57.3,1.5 q 1.2,-0.2 1.75,0.45 0.6,0.65 0.4,1.8 l -0.2,0.8 -3.6,9.05 0.25,0.6 q 0.65,1.5 1,4.1 0.6,4.85 -0.7,9.2 -1.1,3.55 -3.3,6.05 L 52.3,33 Q 51.65,32.6 51,32.75 l -1.15,0.75 q -0.6,0.6 -0.7,1.1 -0.25,0.7 0.1,1.3 l 0.25,0.4 q -5.1,2.95 -14,2.6 L 30.1,38.3 Q 27.9,37.85 24.9,36.6 21.2,35 19.6,33.2 17.7,31.15 17.05,27.8 l 0.95,0.15 1,-0.3 0.75,-0.3 q 1.1,-0.5 1.75,-1.6 l 0.4,-0.9 0.05,-1.7 -0.1,-0.8 q -0.15,-0.65 -0.6,-1 L 20.8,21 20.4,20.5 Q 20,20.1 19.25,20.1 L 18,20.25 17.3,20.2 16.95,20.25 q 0.5,-3.45 1.9,-6.6 L 18.65,13 V 12.9 L 18.15,11.8 17.75,10.2 17.5,9.7 16.65,6.55 q -0.55,-1.9 -0.6,-3.3 l 0.2,-1.2 q 0.4,-0.75 1.2,-0.9 l 1.2,0.1 2.05,0.7 -0.4,0.45 -0.6,0.9 -0.6,1.15 q -0.2,0.85 0.4,1.1 l 1.1,-0.2 0.75,-0.7 0.3,-0.4 0.65,-0.5 Q 22.7,3.3 22.7,2.85 L 23.65,3.35 23.35,3.7 23,4.45 22.25,5.4 Q 21.8,6 21.75,6.45 21.65,6.9 22,7.25 l 0.75,0.2 0.8,-0.6 0.6,-0.75 0.35,-0.35 q 0.15,-0.15 0.6,-0.25 0.7,-0.35 0.75,-1 l 0.55,0.3 q 4.75,-3 11.1,-3.1 L 41.4,2 40.8,3 q -0.25,0.8 -0.1,1.5 0.2,0.95 1.05,1.6 0.8,0.65 1.8,0.85 l 1.8,-0.05 q 1,-0.35 1.35,-1.1 0.4,-0.75 0.15,-1.65 V 4 m 1.6,11.85 q -0.8,-0.65 -2.2,-0.8 -1.45,-0.15 -2.45,0.4 -1.2,0.65 -1.5,1.9 l -0.05,0.95 q 0,0.95 0.15,1.4 l 0.55,0.85 q 0.7,0.8 1.25,0.95 l 0.75,0.2 h 1.45 q 1.25,-0.15 2.1,-1.1 0.85,-0.9 1,-2.2 L 49.55,18.2 49.2,18.3 50.1,17.8 51.05,17 52,16.25 52.95,15.7 q 0.5,-0.4 0.35,-0.9 -0.15,-0.5 -0.8,-0.6 -0.6,-0.05 -1.7,0.45 l -1.85,0.95 -0.5,0.25 m 4.45,15.7 0.6,-0.5 0.75,-0.9 0.75,-1.35 0.3,-0.85 0.3,-1.25 q 0.2,-1.45 -0.3,-2.05 l -1.1,-0.7 -1.3,-0.15 -1.65,0.05 Q 50.4,24 49.85,24.7 l -0.35,0.6 q -0.65,1.3 -0.75,2.1 l -0.05,0.9 0.1,1.25 0.9,1.45 0.8,0.6 1.35,0.2 1.05,-0.25 m -2.15,-9.35 0.6,-0.6 0.5,-0.65 q 0.35,-0.45 1.2,-1.05 l 1.25,-1 q 0.7,-0.7 0.35,-1.35 -0.3,-0.45 -0.95,-0.35 -0.35,0.05 -0.95,0.45 l -2.8,1.7 -0.9,0.7 q -0.6,0.9 0,1.75 0.7,0.85 1.7,0.4 m -12.8,3 -0.5,-0.95 q -0.35,-0.45 -1,-0.5 -0.6,0 -1,0.4 l -0.8,1.1 -0.9,0.4 -0.9,0.15 -2.65,-0.4 -0.65,-0.2 -0.35,-0.5 -0.7,-1.35 -0.35,-0.5 Q 27.7,22.6 27.3,23.1 q -0.25,0.3 -0.25,0.9 -0.05,0.7 0.2,1.6 0.45,1.35 1.35,1.9 l 1.35,0.55 3.2,0.45 q 1.85,-0.1 3.05,-0.95 1.6,1.15 3.75,1.05 1.6,-0.15 2.75,-0.85 l 1.15,-1.15 0.05,-0.8 q -0.15,-0.45 -0.5,-0.65 l -0.85,-0.05 -0.9,0.3 Q 40.25,26 39.1,25.8 38.4,25.65 37.95,25.2 M 38.1,3.3 37.6,3.1 37,3.2 36.6,3.6 36.5,3.85 q -0.15,0.35 0.05,0.8 L 37.1,5.2 Q 38,5.55 38.5,4.7 L 38.55,3.95 38.1,3.3 m 5.3,29.05 q 0.45,0.75 1.3,0.85 0.75,0.1 1.4,-0.65 0.5,-0.75 0.25,-1.55 -0.15,-0.65 -0.8,-1.05 -0.75,-0.35 -1.45,0 -0.75,0.45 -0.85,1.2 v 0.7 l 0.15,0.5 M 24,18.9 l 0.1,0.2 0.95,-0.15 1.1,0.1 2.6,0.2 q 0.85,0.1 1.45,0.45 l 0.25,-0.35 0.3,-0.75 0.15,-1.25 q -0.15,-1.6 -1.6,-2.3 l -2.3,-0.3 -1.15,0.1 q -0.7,0.25 -1.25,0.85 -0.65,0.75 -0.75,1.8 v 0.75 L 24,18.9 m 0.65,7.1 q -0.7,-0.3 -1.3,0.5 -0.3,0.4 -0.5,1.45 l -0.25,1.3 -1.25,-0.3 q -0.55,0.1 -0.9,0.55 -0.35,0.45 -0.2,0.95 0.15,0.6 0.75,0.85 l 1.2,0.35 -0.1,0.35 q -0.2,1.15 0.1,1.65 0.35,0.6 1,0.6 0.7,0.1 1.1,-0.5 l 0.45,-1.55 v -0.05 l 0.7,0.15 q 1.05,0.2 1.4,-0.3 0.4,-0.55 -0.2,-1.15 l -1.15,-0.55 -0.55,-0.15 0.3,-1.9 0.1,-1.25 q -0.1,-0.75 -0.7,-1"
         fill="#000000"
         fill-rule="evenodd"
         stroke="none"
         id="path11" />
      <path
         d="m 48.45,15.85 -0.6,0.5 -0.15,0.25 q -0.2,0.5 0.05,1 0.25,0.55 0.75,0.7 l 0.35,0.05 0.35,-0.05 0.35,-0.1 -0.05,0.2 q -0.15,1.3 -1,2.2 -0.85,0.95 -2.1,1.1 H 44.95 L 44.2,21.5 Q 43.65,21.35 42.95,20.55 L 42.4,19.7 q -0.15,-0.45 -0.15,-1.4 l 0.05,-0.95 q 0.3,-1.25 1.5,-1.9 1,-0.55 2.45,-0.4 1.4,0.15 2.2,0.8 m -10.5,9.35 q 0.45,0.45 1.15,0.6 1.15,0.2 2.55,-0.4 l 0.9,-0.3 0.85,0.05 q 0.35,0.2 0.5,0.65 l -0.05,0.8 -1.15,1.15 Q 41.55,28.45 39.95,28.6 37.8,28.7 36.2,27.55 35,28.4 33.15,28.5 L 29.95,28.05 28.6,27.5 Q 27.7,26.95 27.25,25.6 27,24.7 27.05,24 q 0,-0.6 0.25,-0.9 0.4,-0.5 0.85,-0.25 l 0.35,0.5 0.7,1.35 0.35,0.5 0.65,0.2 2.65,0.4 0.9,-0.15 0.9,-0.4 0.8,-1.1 q 0.4,-0.4 1,-0.4 0.65,0.05 1,0.5 l 0.5,0.95 M 24,18.9 23.85,18.25 V 17.5 q 0.1,-1.05 0.75,-1.8 0.55,-0.6 1.25,-0.85 l 1.15,-0.1 2.3,0.3 q 1.45,0.7 1.6,2.3 l -0.15,1.25 -0.3,0.75 -0.25,0.35 q -0.6,-0.35 -1.45,-0.45 l -2.6,-0.2 -1.1,-0.1 L 24.1,19.1 24,18.9"
         fill="#ffffff"
         fill-rule="evenodd"
         stroke="none"
         id="path12" />
      <path
         d="M 52.9,33.55 53.15,34 q 0.2,0.65 0,1.3 l -0.75,1.1 q -1.2,0.75 -2.4,0.2 l -0.5,-0.3 -0.25,-0.4 q -0.35,-0.6 -0.1,-1.3 0.1,-0.5 0.7,-1.1 L 51,32.75 Q 51.65,32.6 52.3,33 l 0.6,0.55 M 17.05,27.8 16.45,27.35 16.1,26.8 l -0.15,-0.55 -0.4,-2.2 0.1,-1.85 0.2,-1 q 0.35,-0.75 1.1,-0.95 L 17.3,20.2 18,20.25 19.25,20.1 q 0.75,0 1.15,0.4 l 0.4,0.5 0.45,0.35 q 0.45,0.35 0.6,1 l 0.1,0.8 -0.05,1.7 -0.4,0.9 q -0.65,1.1 -1.75,1.6 L 19,27.65 18,27.95 17.05,27.8 M 20.7,1.95 q 0.15,-0.15 0.35,-0.2 0.85,-0.35 1.4,0.5 l 0.25,0.6 q 0,0.45 -0.4,0.9 l -0.65,0.5 -0.3,0.4 -0.75,0.7 -1.1,0.2 Q 18.9,5.3 19.1,4.45 L 19.7,3.3 20.3,2.4 20.7,1.95 m 2.95,1.4 Q 24,2.9 24.75,3.05 25.7,3.25 25.8,4.15 L 25.85,4.5 Q 25.8,5.15 25.1,5.5 24.65,5.6 24.5,5.75 L 24.15,6.1 23.55,6.85 22.75,7.45 22,7.25 Q 21.65,6.9 21.75,6.45 21.8,6 22.25,5.4 L 23,4.45 23.35,3.7 23.65,3.35 M 41.4,2 41.65,1.7 q 0.7,-0.45 1.7,-0.35 1.2,0.05 2.2,0.85 1,0.75 1.3,1.8 V 4.15 Q 47.1,5.05 46.7,5.8 46.35,6.55 45.35,6.9 l -1.8,0.05 Q 42.55,6.75 41.75,6.1 40.9,5.45 40.7,4.5 40.55,3.8 40.8,3 L 41.4,2 M 49.2,18.3 48.85,18.35 48.5,18.3 Q 48,18.15 47.75,17.6 47.5,17.1 47.7,16.6 l 0.15,-0.25 0.6,-0.5 0.5,-0.25 1.85,-0.95 q 1.1,-0.5 1.7,-0.45 0.65,0.1 0.8,0.6 0.15,0.5 -0.35,0.9 L 52,16.25 51.05,17 50.1,17.8 49.2,18.3 m 1.55,3.9 q -1,0.45 -1.7,-0.4 -0.6,-0.85 0,-1.75 l 0.9,-0.7 2.8,-1.7 q 0.6,-0.4 0.95,-0.45 0.65,-0.1 0.95,0.35 Q 55,18.2 54.3,18.9 l -1.25,1 q -0.85,0.6 -1.2,1.05 l -0.5,0.65 -0.6,0.6 M 52.9,31.55 51.85,31.8 50.5,31.6 49.7,31 48.8,29.55 48.7,28.3 48.75,27.4 q 0.1,-0.8 0.75,-2.1 l 0.35,-0.6 q 0.55,-0.7 1.4,-0.85 l 1.65,-0.05 1.3,0.15 1.1,0.7 q 0.5,0.6 0.3,2.05 l -0.3,1.25 -0.3,0.85 -0.75,1.35 -0.75,0.9 -0.6,0.5 m -9.5,0.8 -0.15,-0.5 v -0.7 q 0.1,-0.75 0.85,-1.2 0.7,-0.35 1.45,0 0.65,0.4 0.8,1.05 0.25,0.8 -0.25,1.55 -0.65,0.75 -1.4,0.65 -0.85,-0.1 -1.3,-0.85 M 38.1,3.3 38.55,3.95 38.5,4.7 Q 38,5.55 37.1,5.2 L 36.55,4.65 Q 36.35,4.2 36.5,3.85 L 36.6,3.6 37,3.2 37.6,3.1 38.1,3.3 M 24.65,26 q 0.6,0.25 0.7,1 l -0.1,1.25 -0.3,1.9 0.55,0.15 1.15,0.55 q 0.6,0.6 0.2,1.15 -0.35,0.5 -1.4,0.3 l -0.7,-0.15 v 0.05 l -0.45,1.55 q -0.4,0.6 -1.1,0.5 -0.65,0 -1,-0.6 Q 21.9,33.15 22.1,32 L 22.2,31.65 21,31.3 q -0.6,-0.25 -0.75,-0.85 -0.15,-0.5 0.2,-0.95 0.35,-0.45 0.9,-0.55 l 1.25,0.3 0.25,-1.3 q 0.2,-1.05 0.5,-1.45 0.6,-0.8 1.3,-0.5"
         fill="#999999"
         fill-rule="evenodd"
         stroke="none"
         id="path13" />
    </g>
    <g
       id="shape2"
       transform="translate(2,2.05)">
      <path
         d="M -0.5,-0.4 V -0.55 H 75.1 V -0.4 40.8 H -0.5 Z"
         fill="none"
         stroke="#000000"
         stroke-linecap="round"
         stroke-linejoin="round"
         stroke-width="3"
         id="path14" />
    </g>
  </defs>
</svg>
