<?xml version="1.0" encoding="UTF-8" standalone="no"?>
<svg
   ffdec:objectType="frame"
   height="44.700001"
   width="78.599998"
   version="1.1"
   id="svg12"
   sodipodi:docname="240.svg"
   xmlns:inkscape="http://www.inkscape.org/namespaces/inkscape"
   xmlns:sodipodi="http://sodipodi.sourceforge.net/DTD/sodipodi-0.dtd"
   xmlns:xlink="http://www.w3.org/1999/xlink"
   xmlns="http://www.w3.org/2000/svg"
   xmlns:svg="http://www.w3.org/2000/svg"
   xmlns:ffdec="https://www.free-decompiler.com/flash">
  <sodipodi:namedview
     id="namedview12"
     pagecolor="#ffffff"
     bordercolor="#000000"
     borderopacity="0.25"
     inkscape:showpageshadow="2"
     inkscape:pageopacity="0.0"
     inkscape:pagecheckerboard="0"
     inkscape:deskcolor="#d1d1d1"
     fit-margin-top="5"
     fit-margin-left="5"
     fit-margin-right="5"
     fit-margin-bottom="5" />
  <g
     transform="translate(2,2.4)"
     id="g3">
    <use
       ffdec:characterId="1"
       height="42.700001"
       transform="translate(-1.75,-2)"
       width="76.449997"
       xlink:href="#shape0"
       id="use1" />
    <use
       ffdec:characterId="236"
       height="42.650002"
       transform="translate(0,-2.4)"
       width="75.300003"
       xlink:href="#shape1"
       id="use2" />
    <use
       ffdec:characterId="3"
       height="44.349998"
       transform="translate(-2,-2.05)"
       width="78.599998"
       xlink:href="#shape2"
       id="use3" />
  </g>
  <defs
     id="defs12">
    <g
       id="shape0"
       transform="translate(1.75,2)">
      <path
         d="M 2.8,0 V -0.4 H 5.4 V 0 H 9.7 V 19.45 0 H 20.55 L 19.3,19.45 H 9.7 0.25 V 0 H 2.8"
         fill="#ffffff"
         fill-rule="evenodd"
         stroke="none"
         id="path3" />
      <path
         d="M 0.25,19.45 H 9.7 19.3 L 18.7,28.6 16,28.5 10.95,27.95 9.7,27.8 Q 7.45,27.6 5.85,27.75 4.05,27.9 1.5,28.6 0.75,28.8 0.25,29.15 v -9.7 m 9.45,0 v 8.35 -8.35"
         fill="#121212"
         fill-rule="evenodd"
         stroke="none"
         id="path4" />
      <path
         d="m 9.7,27.8 1.25,0.15 5.05,0.55 2.7,0.1 h 1.05 l 3.75,0.15 q 2.45,0.3 3.6,1.25 0.6,0.5 0.6,1.1 0,0.65 -0.8,1 l -1.3,0.2 -7.15,0.15 -5.6,-0.3 L 9.7,31.75 7.95,31.6 3.1,31.95 0.95,32.3 0.25,32.1 -0.35,31.55 -0.5,31.3 V 29.9 L 0.25,29.15 Q 0.75,28.8 1.5,28.6 4.05,27.9 5.85,27.75 7.45,27.6 9.7,27.8 v 3.95 -3.95"
         fill="#999999"
         fill-rule="evenodd"
         stroke="none"
         id="path5" />
      <path
         d="M 2.8,0 H 0.25 M 9.7,0 H 5.4 m 16.15,0 h 10.7 M 20.55,0 H 9.7"
         fill="none"
         stroke="#666666"
         stroke-linecap="round"
         stroke-linejoin="round"
         stroke-width="4"
         id="path6" />
      <path
         d="m 9.7,-0.4 h 65 V 40.5 H 47.05 L 45.5,40.7 27,40.65 25.95,40.5 H 9.7 -0.5 V -0.4 H 9.7 V 40.5 -0.4"
         fill="#ffffff"
         fill-rule="evenodd"
         stroke="none"
         id="path7" />
    </g>
    <g
       id="shape1"
       transform="translate(0,2.4)">
      <path
         d="m 16,-1.65 h 0.05 0.15 l 0.1,0.05 h 0.1 0.05 l 0.15,0.05 0.1,0.05 0.1,0.05 0.1,0.1 0.05,0.05 0.05,0.05 0.15,0.15 0.05,0.1 0.05,0.05 v 0.05 l 0.05,0.05 0.05,0.05 v 0.05 l 0.05,0.1 0.05,0.05 1.65,-0.25 H 72 V -1 l 0.05,-0.1 V -1.25 L 72.1,-1.3 v -0.05 l 0.05,-0.1 V -1.5 L 72.2,-1.55 V -1.6 l 0.1,-0.1 0.05,-0.1 0.05,-0.05 0.05,-0.05 0.1,-0.05 0.05,-0.05 0.05,-0.05 0.1,-0.1 0.1,-0.05 0.15,-0.05 0.15,-0.05 0.15,-0.05 h 0.1 0.25 V -2.4 l 0.25,0.05 H 74 l 0.15,0.05 0.15,0.05 0.1,0.05 0.1,0.05 0.1,0.1 0.1,0.05 0.2,0.2 0.05,0.1 0.1,0.1 v 0.05 l 0.05,0.05 0.05,0.05 v 0.1 0.05 l 0.05,0.05 v 0.1 l 0.05,0.05 v 0.1 0.05 l 0.05,0.05 v 0.15 0.1 0.05 l -0.05,0.05 v 0.15 l -0.05,0.1 v 0.25 0.1 0.25 0.1 0.25 0.1 0.15 l 0.05,0.05 V 1.05 1.3 1.4 1.65 1.75 1.8 L 75.3,1.85 V 2 2.1 2.35 2.45 2.7 2.8 3.05 3.15 3.4 3.5 3.75 3.85 4.1 4.2 4.45 4.55 4.8 4.9 5.1 5.2 5.45 5.55 5.8 5.9 6.15 6.25 6.5 6.6 6.85 6.95 7.2 7.3 7.55 7.65 7.9 8 v 0.25 0.1 0.25 0.1 0.25 0.1 0.25 0.1 0.2 0.1 0.25 0.1 0.25 0.1 0.25 0.1 0.25 0.1 0.25 0.1 0.25 0.1 0.25 0.1 0.25 0.1 0.25 0.1 0.25 0.1 0.25 0.1 0.2 0.1 0.25 0.1 0.25 0.1 0.25 0.1 0.25 0.1 0.25 0.1 0.25 0.1 0.25 0.1 0.25 0.1 0.25 0.1 0.25 0.1 0.25 0.1 0.25 0.1 0.2 0.1 0.25 0.1 0.25 0.1 0.25 0.1 0.25 0.1 0.25 0.1 0.25 0.1 0.25 0.1 0.25 0.1 0.25 0.1 0.25 0.1 0.25 0.1 0.25 0.1 0.2 0.1 0.25 0.1 0.25 0.1 0.25 0.1 0.25 0.1 0.25 0.1 0.25 0.1 0.25 0.1 0.25 0.1 0.25 0.1 0.25 0.1 0.25 0.1 0.2 0.1 0.25 0.1 0.25 0.1 0.25 0.1 0.25 0.1 0.25 0.1 0.25 0.1 0.25 0.1 0.25 0.1 0.25 0.1 0.25 0.1 0.25 0.1 0.25 0.1 0.2 0.1 0.25 0.1 0.25 0.1 0.25 0.1 0.25 0.1 0.25 0.1 0.25 0.1 0.25 0.1 0.25 0.1 0.25 0.1 0.25 0.1 0.25 0.1 0.2 0.1 0.25 0.1 0.25 0.1 0.25 0.1 0.1 l -0.05,0.05 v 0.1 0.1 0.25 0.1 0.25 0.1 0.15 l -0.05,0.05 v 0.05 0.1 0.1 l -0.05,0.05 v 0.1 0.1 0.35 0.1 0.25 0.1 0.1 L 75.1,39.4 v 0.1 l -0.05,0.1 v 0.05 L 75,39.7 v 0.05 l -0.05,0.05 v 0.05 L 74.9,39.95 74.85,40 74.8,40.05 v 0.05 l -0.1,0.05 -0.05,0.05 v 0.05 h -34.2 l -0.1,-0.05 v -0.05 l -0.1,-0.1 -0.05,-0.1 V 39.9 L 40.15,39.85 40.1,39.8 V 39.75 L 40.05,39.7 V 39.6 L 40,39.55 V 39.4 L 39.95,39.35 V 39.25 39.2 L 39.9,39.15 V 39.1 L 39.8,39 39.75,38.9 39.65,38.85 39.6,38.8 39.55,38.75 39.5,38.7 v -0.05 l -0.1,-0.1 -0.1,-0.1 -0.05,-0.05 -0.05,-0.05 v -0.1 L 39.15,38.2 V 38.15 L 39.1,38.1 39.05,38.05 V 38 L 39,37.9 38.95,37.85 V 37.8 L 38.9,37.75 38.85,37.7 v -0.05 l -0.1,-0.1 V 37.5 L 38.7,37.45 38.65,37.4 38.6,37.35 V 37.3 L 38.55,37.2 38.5,37.15 38.45,37.1 V 37.05 L 38.4,37 v -0.05 l -0.05,-0.1 V 36.8 L 38.3,36.75 38.25,36.7 V 36.65 L 38.2,36.6 38.15,36.5 38,36.35 V 36.3 l -0.05,-0.05 -0.05,-0.1 v -0.1 L 37.85,36 37.8,35.95 V 35.9 l -0.05,-0.1 -0.1,-0.1 v -0.05 l -0.1,-0.1 -0.05,-0.1 -0.05,-0.05 V 35.35 L 37.4,35.3 37.35,35.25 V 35.2 L 37.3,35.1 37.2,35 V 34.95 L 37.15,34.9 37.1,34.85 v -0.1 L 37.05,34.7 V 34.65 L 37,34.6 36.95,34.55 36.9,34.5 V 34.4 L 36.85,34.35 V 34.3 L 36.8,34.25 36.75,34.2 V 34.1 L 36.7,34.05 V 34 L 36.65,33.95 V 33.9 L 36.6,33.85 36.55,33.75 V 33.7 L 36.5,33.65 V 33.6 L 36.45,33.55 V 33.5 L 36.4,33.4 V 33.35 L 36.35,33.3 36.3,33.25 36.25,33.2 36.2,33.15 v -0.1 L 36.15,33 V 32.95 L 36.1,32.9 V 32.85 L 36.05,32.8 v -0.1 l -0.1,-0.05 V 32.6 L 35.9,32.55 35.85,32.5 V 32.45 L 35.8,32.35 35.75,32.3 35.7,32.25 V 32.2 L 35.6,32.1 35.55,32 35.5,31.95 V 31.9 L 35.45,31.85 V 31.8 L 35.4,31.75 v -0.1 L 35.35,31.6 V 31.55 L 35.25,31.45 35.2,31.4 35.15,31.3 V 31.25 L 35.1,31.2 35.05,31.15 35,31.1 V 31.05 L 34.95,30.95 34.9,30.9 V 30.8 L 34.8,30.7 34.75,30.6 34.7,30.55 V 30.5 L 34.65,30.45 V 30.4 L 34.6,30.35 34.55,30.25 V 30.2 l -0.1,-0.05 V 30.1 L 34.35,30 V 29.9 L 34.3,29.85 34.25,29.8 34.2,29.75 V 29.7 L 34.15,29.6 34.1,29.55 34,29.45 V 29.4 L 33.95,29.35 33.9,29.25 V 29.2 L 33.85,29.15 V 29.1 L 33.75,29 33.7,28.9 33.65,28.85 V 28.8 L 33.6,28.75 33.55,28.7 33.5,28.65 v -0.1 L 33.45,28.5 V 28.45 L 33.4,28.4 V 28.35 L 33.35,28.3 V 28.2 L 33.3,28.15 33.25,28.1 V 28.05 L 33.2,28 V 27.95 L 33.15,27.85 33.1,27.8 33,27.7 32.95,27.65 32.9,27.6 32.85,27.5 32.75,27.4 V 27.35 L 32.7,27.3 V 27.25 L 32.65,27.15 32.6,27.1 V 27.05 L 32.55,27 32.5,26.95 V 26.9 26.8 L 32.45,26.75 V 26.7 L 32.4,26.65 V 26.6 l -0.05,-0.05 v -0.1 L 32.3,26.4 32.25,26.35 V 26.3 L 32.2,26.25 32.15,26.2 32.1,26.1 32.05,26.05 V 26 L 32,25.95 31.95,25.9 31.9,25.85 v -0.1 L 31.85,25.7 V 25.65 L 31.8,25.6 V 25.55 L 31.75,25.5 V 25.4 L 31.7,25.35 V 25.3 L 31.6,25.2 31.55,25.1 V 25 L 31.5,24.95 31.45,24.9 V 24.85 L 31.4,24.75 31.35,24.7 V 24.65 L 31.3,24.6 31.25,24.55 V 24.5 L 31.2,24.4 31.1,24.3 V 24.25 L 31.05,24.2 V 24.15 L 31,24.05 V 24 L 30.95,23.95 30.9,23.9 30.85,23.85 30.8,23.8 30.75,23.7 V 23.65 L 30.7,23.6 30.65,23.55 V 23.5 L 30.6,23.45 v -0.1 L 30.55,23.3 V 23.25 L 30.5,23.2 V 23.15 L 30.45,23.1 30.4,23 30.3,22.95 V 22.9 L 30.2,22.8 30.15,22.75 30.1,22.65 V 22.6 L 30.05,22.55 V 22.5 L 30,22.45 29.95,22.4 V 22.3 L 29.9,22.25 29.85,22.2 V 22.15 L 29.8,22.1 29.75,22.05 v -0.1 L 29.7,21.9 29.65,21.85 29.6,21.8 29.55,21.75 V 21.7 L 29.5,21.6 29.4,21.5 V 21.45 L 29.35,21.4 V 21.35 L 29.3,21.25 29.25,21.2 v -0.05 l -0.1,-0.1 -0.05,-0.1 -0.05,-0.05 -0.1,-0.1 -0.05,-0.05 V 20.7 L 28.85,20.6 28.8,20.55 V 20.5 L 28.75,20.45 28.7,20.4 V 20.35 L 28.65,20.25 28.6,20.2 28.5,20.1 28.45,20.05 28.4,20 28.35,19.9 V 19.85 L 28.3,19.8 28.25,19.75 V 19.7 L 28.2,19.65 v -0.1 L 28.15,19.5 V 19.45 L 28.1,19.4 V 19.35 L 28.05,19.3 28,19.2 27.95,19.15 27.9,19.1 27.85,19.05 27.75,18.95 27.7,18.85 27.65,18.8 27.6,18.75 27.55,18.7 V 18.65 L 27.5,18.6 V 18.5 L 27.45,18.45 V 18.4 L 27.4,18.35 V 18.3 L 27.35,18.25 27.3,18.15 27.2,18.05 27.15,18 27.1,17.95 27.05,17.9 V 17.8 L 27,17.75 26.95,17.7 V 17.65 L 26.9,17.6 v -0.05 l -0.05,-0.1 -0.1,-0.1 L 26.7,17.3 V 17.25 L 26.65,17.2 26.6,17.1 26.5,17 26.45,16.95 26.4,16.9 v -0.05 l -0.05,-0.1 V 16.7 L 26.3,16.65 V 16.6 l -0.05,-0.05 v -0.1 L 26.2,16.4 26.15,16.35 V 16.3 l -0.1,-0.05 V 16.2 L 26,16.1 25.95,16.05 25.9,16 25.85,15.95 25.75,15.85 25.7,15.75 V 15.7 L 25.65,15.65 25.6,15.6 25.55,15.55 V 15.5 L 25.5,15.4 25.45,15.35 25.4,15.3 l -0.05,-0.05 -0.1,-0.1 -0.05,-0.1 -0.1,-0.1 V 14.9 L 25,14.8 24.95,14.7 V 14.65 L 24.9,14.6 24.85,14.55 V 14.5 L 24.8,14.45 v -0.1 L 24.75,14.3 24.7,14.25 24.55,14.1 24.5,14 24.45,13.95 24.4,13.9 24.35,13.85 V 13.8 L 24.3,13.75 v -0.1 L 24.25,13.6 24.2,13.55 24.15,13.5 24.1,13.45 V 13.4 l -0.05,-0.1 -0.1,-0.1 v -0.05 l -0.1,-0.1 -0.05,-0.1 V 12.9 L 23.75,12.85 23.6,12.7 23.55,12.6 23.5,12.55 23.45,12.5 23.4,12.45 V 12.4 L 23.35,12.35 23.3,12.25 V 12.2 L 23.25,12.15 23.2,12.1 23.15,12.05 v -0.1 L 23,11.8 22.95,11.75 V 11.7 L 22.9,11.6 22.85,11.55 V 11.5 L 22.8,11.45 22.7,11.35 22.65,11.25 22.6,11.2 V 11.15 L 22.55,11.1 22.5,11.05 22.45,11 V 10.9 L 22.4,10.85 V 10.8 L 22.35,10.75 V 10.7 L 22.3,10.65 22.25,10.55 22.2,10.5 V 10.45 L 22.15,10.4 22.1,10.35 V 10.3 L 22.05,10.2 22,10.15 V 10.1 L 21.85,9.95 21.8,9.85 21.7,9.75 21.65,9.7 V 9.65 L 21.6,9.6 21.55,9.5 21.5,9.45 V 9.4 L 21.45,9.35 21.4,9.3 V 9.25 L 21.35,9.15 21.3,9.1 21.25,9.05 21.2,9 V 8.95 L 21.15,8.9 21.1,8.8 21.05,8.75 21,8.7 20.95,8.65 20.9,8.6 20.85,8.55 20.8,8.45 20.7,8.35 V 8.3 L 20.6,8.25 V 8.2 L 20.55,8.1 20.5,8.05 V 8 L 20.45,7.95 20.4,7.9 V 7.8 L 20.35,7.75 V 7.7 L 20.3,7.65 20.25,7.6 V 7.55 l -0.1,-0.1 V 7.4 L 20.1,7.35 20.05,7.3 19.95,7.2 19.9,7.1 V 7.05 L 19.8,7 19.75,6.95 19.7,6.9 19.65,6.85 19.6,6.75 19.45,6.6 V 6.55 L 19.4,6.5 19.35,6.4 V 6.35 L 19.3,6.3 V 6.25 L 19.25,6.2 19.2,6.15 V 6.05 L 19.15,6 19.1,5.95 19.05,5.9 19,5.85 18.95,5.8 18.9,5.7 18.85,5.65 V 5.6 L 18.75,5.5 18.7,5.45 18.65,5.35 V 5.3 L 18.6,5.25 18.55,5.2 18.5,5.15 18.45,5.1 V 5 L 18.4,4.95 18.35,4.9 18.3,4.85 18.25,4.8 18.2,4.75 V 4.65 L 18.1,4.6 17.95,4.45 17.85,4.4 V 4.3 L 17.75,4.25 V 4.2 L 17.7,4.15 V 4.1 L 17.65,4.05 17.6,3.95 V 3.9 L 17.55,3.85 17.5,3.8 V 3.75 L 17.45,3.7 17.4,3.6 17.3,3.5 17.25,3.45 17.2,3.4 17.15,3.3 17.05,3.2 V 3.15 l -0.1,-0.1 V 2.95 L 16.9,2.9 16.8,2.8 V 2.75 L 16.7,2.7 V 2.6 L 16.65,2.55 16.6,2.5 16.55,2.45 16.5,2.4 16.45,2.35 16.4,2.25 16.35,2.2 V 2.15 L 16.3,2.1 16.25,2.05 V 2 L 16.2,1.9 16.1,1.8 V 1.75 L 16,1.65 15.95,1.55 15.9,1.5 V 1.45 L 15.85,1.4 V 1.35 L 15.8,1.3 15.75,1.2 15.65,1.1 V 1.05 L 15.6,1 15.55,0.95 V 0.85 L 15.5,0.8 15.45,0.75 V 0.7 L 15.4,0.65 15.35,0.6 15.3,0.5 V 0.45 L 15.25,0.4 15.2,0.35 V 0.25 L 15.15,0.15 15.1,0.1 V 0 L 15.05,-0.05 V -0.1 -0.2 L 15,-0.25 V -0.3 l -0.05,-0.05 v -0.1 -0.1 -0.2 L 15,-0.85 V -0.9 l 0.05,-0.05 v -0.1 L 15.1,-1.1 15.15,-1.2 15.2,-1.25 V -1.3 l 0.1,-0.05 0.05,-0.05 0.05,-0.05 0.1,-0.1 0.15,-0.05 h 0.1 l 0.1,-0.05 H 16 M 41.95,33.2 42,33.3 h -0.25 q -0.85,0 -1.15,0.25 -0.35,0.2 -0.5,0.7 l -0.2,0.65 q -0.05,0.85 0.6,1.5 0.6,0.6 1.5,0.6 h 0.05 l 0.3,0.15 1,-0.05 0.8,-0.65 Q 44.85,35.4 43.9,34.2 l -0.05,-0.05 -0.4,-1.65 -0.15,-0.75 -0.9,-3.05 -0.15,-0.5 0.45,-0.25 1.15,-0.75 0.8,-0.4 0.4,-0.7 q 0,-0.75 -0.9,-0.75 l -1.25,0.2 -1.6,0.25 -0.7,0.35 Q 40,26.45 40,27.1 l 0.1,0.4 1.85,5.7 M 45.05,6.75 45.4,7.85 43.8,8.1 42.7,8.4 42.6,7.7 V 7.5 q 0.1,-0.15 0.3,-0.15 l 2.15,-0.6 m -4.65,0.85 0.25,0.9 0.6,3.95 q 0,0.95 0.4,1.25 l 0.65,0.2 0.9,-0.05 q 1.15,-0.45 1.05,-1.6 0,-0.5 -0.35,-0.9 -0.35,-0.45 -0.85,-0.55 l -0.15,-1 0.45,-0.2 2.3,-0.6 0.05,0.3 0.55,2.35 q 0.2,0.7 0.7,0.7 H 47 l 0.7,0.2 1.05,-0.8 0.4,-0.75 Q 49.3,10.45 48.9,9.95 L 48,9.4 H 47.2 L 47.15,8.95 46.95,7.3 46.65,6.15 46.7,5.55 46.65,4.95 Q 46.4,4.5 45.85,4.4 L 44.9,4.5 q -1.8,0.35 -3.65,1.05 l -0.75,0.4 q -0.4,0.3 -0.4,0.7 l 0.3,0.95 m 20.7,0.75 0.1,0.25 q -0.3,0.05 -0.55,0.25 l -0.55,0.6 -0.2,0.9 q -0.1,0.7 0.05,1.05 l 0.5,0.75 q 0.75,0.5 1.5,0.35 l 0.95,-0.55 0.2,-0.05 0.2,-0.25 Q 63.5,11.2 63.3,10 L 62.9,7.75 62.85,7.15 63.05,7 63.6,6.45 64.2,6.05 64.7,5.6 Q 65.05,5 64.5,4.55 64.3,4.35 63.15,4.2 h -0.9 l -0.5,0.15 -0.65,0.2 q -0.65,0.4 -0.4,1.2 l 0.15,0.45 0.1,0.85 0.15,0.7 v 0.6"
         fill="#999999"
         fill-rule="evenodd"
         stroke="none"
         id="path8" />
      <path
         d="M 61.1,8.35 V 7.75 L 60.95,7.05 60.85,6.2 60.7,5.75 q -0.25,-0.8 0.4,-1.2 l 0.65,-0.2 0.5,-0.15 h 0.9 Q 64.3,4.35 64.5,4.55 65.05,5 64.7,5.6 L 64.2,6.05 63.6,6.45 63.05,7 62.85,7.15 62.9,7.75 63.3,10 q 0.2,1.2 0,1.65 l -0.2,0.25 -0.2,0.05 -0.95,0.55 q -0.75,0.15 -1.5,-0.35 L 59.95,11.4 Q 59.8,11.05 59.9,10.35 l 0.2,-0.9 0.55,-0.6 Q 60.9,8.65 61.2,8.6 L 61.1,8.35 M 40.4,7.6 40.1,6.65 q 0,-0.4 0.4,-0.7 l 0.75,-0.4 Q 43.1,4.85 44.9,4.5 l 0.95,-0.1 q 0.55,0.1 0.8,0.55 l 0.05,0.6 -0.05,0.6 0.3,1.15 0.2,1.65 0.05,0.45 H 48 l 0.9,0.55 q 0.4,0.5 0.25,1.05 l -0.4,0.75 -1.05,0.8 -0.7,-0.2 h -0.05 q -0.5,0 -0.7,-0.7 L 45.7,9.3 45.65,9 l -2.3,0.6 -0.45,0.2 0.15,1 q 0.5,0.1 0.85,0.55 0.35,0.4 0.35,0.9 0.1,1.15 -1.05,1.6 l -0.9,0.05 -0.65,-0.2 q -0.4,-0.3 -0.4,-1.25 L 40.65,8.5 40.4,7.6 m 4.65,-0.85 -2.15,0.6 q -0.2,0 -0.3,0.15 v 0.2 l 0.1,0.7 1.1,-0.3 1.6,-0.25 -0.35,-1.1 M 41.95,33.2 40.1,27.5 40,27.1 q 0,-0.65 0.6,-0.95 l 0.7,-0.35 1.6,-0.25 1.25,-0.2 q 0.9,0 0.9,0.75 l -0.4,0.7 -0.8,0.4 -1.15,0.75 -0.45,0.25 0.15,0.5 0.9,3.05 0.15,0.75 0.4,1.65 0.05,0.05 q 0.95,1.2 0.25,2.25 l -0.8,0.65 -1,0.05 L 42.05,37 H 42 q -0.9,0 -1.5,-0.6 -0.65,-0.65 -0.6,-1.5 l 0.2,-0.65 q 0.15,-0.5 0.5,-0.7 0.3,-0.25 1.15,-0.25 H 42 l -0.05,-0.1"
         fill="#ffffff"
         fill-rule="evenodd"
         stroke="none"
         id="path9" />
      <path
         d="m 69.55,18.7 0.45,1.1 0.1,0.3 0.3,0.35 q 0.5,0.5 0.5,1.3 -0.05,0.7 -0.65,1.3 l -1.25,0.5 -1.75,-0.2 q -1.05,-0.65 -0.8,-1.9 0.3,-1.2 1.45,-1.6 L 67.6,19.3 q -0.45,-1.1 -0.85,-3.5 v -0.3 l -0.5,-0.55 q -0.15,-0.6 0.4,-1 l 1.1,-0.2 0.9,-0.2 q 0.45,-0.15 0.9,0 0.55,0.1 0.55,0.65 l -0.5,0.9 -0.95,1.3 -0.1,0.1 0.55,1.2 0.45,1 m -55,-5.3 q 0.3,-1.1 0.75,-2.05 V 10.5 q 0,-3.2 0.15,-4.25 0.2,-1.4 0.65,-2.1 0.8,-1.05 1.85,-1 L 18.9,3.4 22,4.75 q 2.1,-0.9 4.45,-0.95 4.05,0 7.1,2.35 l 1.9,1.9 1.65,-0.1 1,0.1 q 0.75,0.15 1.2,0.7 0.5,0.5 0.5,1.3 L 39.55,11 38.3,14.4 37.95,15.05 v 0.75 q 0,5.45 -4.05,10 -1.65,1.8 -3.4,2.55 l -1.2,0.35 0.15,0.4 1.95,0.35 q 1.55,0.2 4,0 7.55,-0.7 12.1,-3.65 2.8,-1.85 4.45,-4.55 1.65,-2.8 1.7,-5.75 L 52.2,16.05 50.5,16.3 49.95,16.2 Q 49,15.9 48.75,15.5 l -0.25,-0.75 -2.25,2.4 -3.6,3.65 -2.95,2.85 -0.6,0.4 q -0.5,0 -0.5,-0.65 0,-0.35 0.35,-0.8 1,-1.65 2.9,-4 l 4.55,-5.7 -0.15,-0.15 q -0.6,-0.55 -0.6,-1.5 0,-0.9 0.55,-1.6 0.8,-1.15 2.85,-1.6 l 1.5,-0.2 0.05,-0.1 0.1,-0.2 L 50.95,7.2 51.5,6.55 Q 52,6 52.5,6.05 L 52.65,6 q 0.55,0 0.95,0.4 l 0.45,0.9 -0.1,0.85 q 1.25,0.4 2.05,1.35 0.85,1.05 1.15,3.1 0.55,4.2 -1.35,8.4 -1.8,4.05 -5.25,6.8 -3.25,2.65 -7.65,3.9 -4.1,1.15 -8.6,1 L 31,32.25 q 1.1,2.1 2.15,3.3 l 1.35,2 0.65,0.8 1.45,1.9 H 25.4 L 25,40.1 l -1.25,-0.65 0.2,0.5 0.05,0.3 h -4.95 l -0.3,-0.85 -0.7,-2.85 -0.1,-2.25 V 34.2 33.8 L 18,32.7 v -0.5 l 0.05,-0.2 -2.7,2.3 q -3.8,2.6 -8.5,2.15 L 4.35,35.8 q -0.9,-0.45 -1.9,-1.5 -1.85,-1.95 -2.3,-4.75 -0.5,-2.8 0.65,-5.2 1.05,-2.25 2.85,-3 l 2.1,-0.4 q 1.75,0 2.8,0.8 1.35,1.05 1.35,2.85 0,1.55 -1,3.05 -1.55,2.45 -3.85,2.5 0.7,1.45 2.5,1.9 1.3,0.3 3.2,-0.05 4.8,-1.05 7.75,-5.2 L 16.6,25 q -3.15,-3.65 -2.55,-9.45 0.1,-0.9 0.4,-1.5 l 0.1,-0.65 m 35.7,-0.8 -0.35,0.15 -0.1,0.35 -0.15,0.3 0.8,-0.25 0.2,-0.05 -0.4,-0.5 M 62,28.75 58.6,28.4 l -0.2,0.8 0.3,0.05 2.05,0.35 1.1,0.2 0.15,-1.05 m -7,1.8 h 0.3 L 55.45,30.3 56.4,27 q 0.1,-0.6 0.35,-0.85 0.5,-0.5 1.3,-0.4 l 1.4,0.3 h 1.4 l 1.95,-0.1 1.15,0.15 0.65,0.6 0.1,0.9 -0.45,0.95 -0.15,0.8 Q 63.75,32 62.55,34.7 L 62,35.45 61.4,36.1 59.65,36.05 Q 58.9,35.7 58.75,35 q -0.2,-0.9 0.6,-1.8 l 0.55,-0.45 1.2,0.05 0.4,-1.5 -1.15,-0.2 -1.65,-0.2 -0.85,0.1 -0.05,0.05 -0.45,1.4 -0.55,0.95 -1.1,0.75 q -0.8,0.5 -1.65,0.25 -0.95,-0.3 -1.1,-1.1 V 32.45 Q 53.1,31.6 53.6,31.05 54.2,30.4 55,30.55 M 36.1,17.5 q -0.55,-1 -1.45,-1.3 l -1.4,1.3 q -1.25,1 -2.5,1.4 l 0.05,0.5 q 0.25,1.4 1.45,1.95 l 2.45,0.15 q 1.25,-0.55 1.65,-1.9 0.25,-0.85 -0.05,-1.65 L 36.1,17.5 m -14.45,5.65 q -0.15,0.3 0.05,0.65 l 0.6,0.45 2.5,0.1 1.85,-0.85 0.35,0.15 2.3,0.5 1,-0.2 L 30.75,23.5 31,23 30.55,22.6 29.95,22.55 q -0.85,0 -1.55,-0.6 l -0.7,-0.6 -1.3,0.05 q -0.3,0.1 -0.65,0.3 l -1.3,0.85 -1.4,0.35 -0.75,-0.1 q -0.5,0 -0.65,0.35 m 2.05,-3 0.25,-1.15 q -1.25,-0.3 -2.3,-0.8 -2.3,-0.95 -3.3,-1.95 l -0.2,-0.2 -0.1,0.05 -0.75,1.1 -0.15,0.55 q -0.3,1.5 0.55,2.75 0.3,-0.25 0.85,-0.4 l 1.55,-0.3 2.1,0.1 1,0.15 0.45,0.2 0.05,-0.1"
         fill="#000000"
         fill-rule="evenodd"
         stroke="none"
         id="path10" />
      <path
         d="m 23.7,20.15 -0.05,0.1 -0.45,-0.2 -1,-0.15 -2.1,-0.1 -1.55,0.3 Q 18,20.25 17.7,20.5 16.85,19.25 17.15,17.75 l 0.15,-0.55 0.75,-1.1 0.1,-0.05 0.2,0.2 q 1,1 3.3,1.95 1.05,0.5 2.3,0.8 l -0.25,1.15 m -2.05,3 Q 21.8,22.8 22.3,22.8 l 0.75,0.1 1.4,-0.35 1.3,-0.85 q 0.35,-0.2 0.65,-0.3 l 1.3,-0.05 0.7,0.6 q 0.7,0.6 1.55,0.6 l 0.6,0.05 0.45,0.4 -0.25,0.5 -0.45,0.45 -1,0.2 -2.3,-0.5 -0.35,-0.15 -1.85,0.85 -2.5,-0.1 -0.6,-0.45 q -0.2,-0.35 -0.05,-0.65 m 14.45,-5.65 0.2,0.45 q 0.3,0.8 0.05,1.65 -0.4,1.35 -1.65,1.9 L 32.25,21.35 Q 31.05,20.8 30.8,19.4 l -0.05,-0.5 q 1.25,-0.4 2.5,-1.4 l 1.4,-1.3 q 0.9,0.3 1.45,1.3"
         fill="#ffffff"
         fill-rule="evenodd"
         stroke="none"
         id="path11" />
    </g>
    <g
       id="shape2"
       transform="translate(2,2.05)">
      <path
         d="M -0.5,-0.4 V -0.55 H 75.1 V -0.4 40.8 H -0.5 Z"
         fill="none"
         stroke="#000000"
         stroke-linecap="round"
         stroke-linejoin="round"
         stroke-width="3"
         id="path12" />
    </g>
  </defs>
</svg>
