<?xml version="1.0" encoding="UTF-8" standalone="no"?>
<svg
   ffdec:objectType="frame"
   height="44.349998"
   width="78.599998"
   version="1.1"
   id="svg12"
   sodipodi:docname="68.svg"
   xmlns:inkscape="http://www.inkscape.org/namespaces/inkscape"
   xmlns:sodipodi="http://sodipodi.sourceforge.net/DTD/sodipodi-0.dtd"
   xmlns:xlink="http://www.w3.org/1999/xlink"
   xmlns="http://www.w3.org/2000/svg"
   xmlns:svg="http://www.w3.org/2000/svg"
   xmlns:ffdec="https://www.free-decompiler.com/flash">
  <sodipodi:namedview
     id="namedview12"
     pagecolor="#ffffff"
     bordercolor="#000000"
     borderopacity="0.25"
     inkscape:showpageshadow="2"
     inkscape:pageopacity="0.0"
     inkscape:pagecheckerboard="0"
     inkscape:deskcolor="#d1d1d1"
     fit-margin-top="5"
     fit-margin-left="5"
     fit-margin-right="5"
     fit-margin-bottom="5" />
  <g
     transform="translate(2,2.05)"
     id="g3">
    <use
       ffdec:characterId="1"
       height="42.700001"
       transform="translate(-1.75,-2)"
       width="76.449997"
       xlink:href="#shape0"
       id="use1" />
    <use
       ffdec:characterId="67"
       height="40.599998"
       transform="translate(-0.9,-0.05)"
       width="77"
       xlink:href="#shape1"
       id="use2" />
    <use
       ffdec:characterId="3"
       height="44.349998"
       transform="translate(-2,-2.05)"
       width="78.599998"
       xlink:href="#shape2"
       id="use3" />
  </g>
  <defs
     id="defs12">
    <g
       id="shape0"
       transform="translate(1.75,2)">
      <path
         d="M 2.8,0 V -0.4 H 5.4 V 0 H 9.7 V 19.45 0 H 20.55 L 19.3,19.45 H 9.7 0.25 V 0 H 2.8"
         fill="#ffffff"
         fill-rule="evenodd"
         stroke="none"
         id="path3" />
      <path
         d="M 0.25,19.45 H 9.7 19.3 L 18.7,28.6 16,28.5 10.95,27.95 9.7,27.8 Q 7.45,27.6 5.85,27.75 4.05,27.9 1.5,28.6 0.75,28.8 0.25,29.15 v -9.7 m 9.45,0 v 8.35 -8.35"
         fill="#121212"
         fill-rule="evenodd"
         stroke="none"
         id="path4" />
      <path
         d="m 9.7,27.8 1.25,0.15 5.05,0.55 2.7,0.1 h 1.05 l 3.75,0.15 q 2.45,0.3 3.6,1.25 0.6,0.5 0.6,1.1 0,0.65 -0.8,1 l -1.3,0.2 -7.15,0.15 -5.6,-0.3 L 9.7,31.75 7.95,31.6 3.1,31.95 0.95,32.3 0.25,32.1 -0.35,31.55 -0.5,31.3 V 29.9 L 0.25,29.15 Q 0.75,28.8 1.5,28.6 4.05,27.9 5.85,27.75 7.45,27.6 9.7,27.8 v 3.95 -3.95"
         fill="#999999"
         fill-rule="evenodd"
         stroke="none"
         id="path5" />
      <path
         d="M 2.8,0 H 0.25 M 9.7,0 H 5.4 m 16.15,0 h 10.7 M 20.55,0 H 9.7"
         fill="none"
         stroke="#666666"
         stroke-linecap="round"
         stroke-linejoin="round"
         stroke-width="4"
         id="path6" />
      <path
         d="m 9.7,-0.4 h 65 V 40.5 H 47.05 L 45.5,40.7 27,40.65 25.95,40.5 H 9.7 -0.5 V -0.4 H 9.7 V 40.5 -0.4"
         fill="#ffffff"
         fill-rule="evenodd"
         stroke="none"
         id="path7" />
    </g>
    <g
       id="shape1"
       transform="translate(0.9,0.05)">
      <path
         d="m 74.75,3.5 0.15,0.1 0.15,0.1 0.1,0.1 0.05,0.1 0.1,0.1 0.05,0.1 0.05,0.1 v 0.1 l 0.05,0.1 0.05,0.15 v 0.1 0.1 0.1 0.1 l -0.05,0.1 -0.05,0.1 v 0.1 l -0.05,0.1 -0.05,0.1 -0.1,0.1 -0.05,0.1 -0.1,0.1 -0.15,0.1 -0.15,0.1 L 74.5,6.1 74.1,6.15 H 72.2 71.1 L 67.85,6.2 H 62 L 54.65,6.15 44.5,6.1 h -0.85 -3.9 -3 -12.9 -6.4 L 16.15,6.05 14.8,6 12.95,5.95 H 11.6 L 9.65,5.9 8.6,5.85 H 7.15 L 6,5.8 5.2,5.75 H 4.65 L 4.05,5.7 3.35,5.65 H 2.8 L 2.5,5.6 2.1,5.55 H 1.8 L 1.45,5.5 H 1.15 L 1.1,5.55 H 0.85 0.8 0.3 L 0.05,5.45 -0.1,5.35 -0.2,5.25 -0.25,5.15 -0.3,5.05 V 4.95 L -0.35,4.85 -0.3,4.75 V 4.65 L -0.25,4.55 -0.15,4.4 0,4.35 -0.2,4.25 -0.3,4.15 -0.4,4.05 -0.5,3.95 -0.55,3.85 -0.65,3.75 -0.7,3.65 -0.75,3.55 -0.8,3.45 V 3.3 L -0.85,3.2 V 3.1 3 L -0.9,2.9 -0.85,2.8 V 2.7 2.6 L -0.8,2.5 V 2.4 L -0.75,2.3 -0.7,2.2 -0.65,2.1 -0.55,2 -0.5,1.9 -0.4,1.75 -0.3,1.65 -0.2,1.55 0,1.45 0.2,1.35 0.45,1.3 h 0.1 V 1.25 1.15 1.05 L 0.6,0.95 0.65,0.85 0.75,0.75 0.85,0.65 1,0.55 1.3,0.45 H 1.85 L 2.1,0.5 H 2.2 L 3.45,0.45 h 0.4 L 4.3,0.4 5.55,0.35 h 1.7 L 8.95,0.3 11.05,0.25 H 12.5 L 14.45,0.2 15.9,0.15 H 21.85 35 L 43.05,0.1 h 8.9 L 60.75,0.05 65.95,0 h 1.15 1.4 v -0.05 h 5.35 l 0.3,0.05 0.2,0.05 0.2,0.1 0.2,0.1 0.1,0.1 0.1,0.1 0.05,0.1 0.05,0.1 0.05,0.15 0.05,0.1 0.05,0.1 v 0.1 0.1 0.1 0.1 0.1 0.1 0.1 l -0.05,0.1 -0.1,0.1 V 2 L 74.95,2.1 74.9,2.2 74.8,2.35 74.75,2.4 v 0.05 l 0.05,0.1 0.05,0.1 v 0.1 0.1 0.1 0.1 0.1 l -0.05,0.1 -0.05,0.1 -0.05,0.1 V 3.5 h 0.05 M 55.9,7.2 h 9.1 2.25 4.65 1.6 1.5 0.35 l 0.25,0.1 0.2,0.1 0.15,0.1 0.05,0.1 0.05,0.1 V 7.8 L 76.1,7.9 V 8 8.1 L 76.05,8.2 V 8.3 L 76,8.4 75.95,8.5 75.8,8.6 75.6,8.75 75.35,8.8 75,8.85 H 73.5 L 71.9,8.8 H 67.25 L 65,8.85 h -8.05 l 2,0.15 q 2.95,0.25 4.85,1.15 2.65,1.25 3.55,3.4 l 0.55,2.05 q 0.6,3 0.6,4.6 0.05,2.75 -1.15,5.2 -1.2,2.55 -3.35,4.05 -2.9,1.95 -7.15,2.1 -5.65,0.25 -8.9,-2.45 l -2.4,1.75 -1.45,0.65 -2.35,0.65 -1.55,0.15 -0.25,-0.05 -0.35,0.05 -0.1,0.05 H 39.25 L 39,32.4 38.1,32.45 h -0.65 l -1.15,0.05 -1,0.05 -5,0.05 H 29.6 L 23.75,32.55 23.1,32.5 22.65,32.45 h -0.3 L 22.1,32.4 21.2,32.35 H 19.45 L 17.7,32.3 16.25,32.25 h -1.6 l -0.7,-0.05 -0.8,-0.05 H 12.7 L 11.85,32.1 10.8,32.05 h -1 L 9.25,32 8.65,31.95 8.05,31.9 H 7.45 L 7.15,31.85 6.7,31.8 H 6.1 L 5.4,31.75 5,31.7 H 4.85 L 4.75,31.65 4.45,31.6 H 4.2 3.85 3.75 L 3.4,31.7 H 3.3 L 3.2,31.6 v -0.1 l 0.1,-0.1 0.05,-0.05 h 0.2 L 3.85,31.3 3.9,31.25 h 0.3 l 0.25,-0.05 0.3,-0.05 h 0.1 L 5,31.1 5.4,31.05 H 6.1 L 6.7,31 7.15,30.95 7.45,30.9 h 0.6 l 0.6,-0.05 0.6,-0.05 H 9.8 l 1,-0.05 1.05,-0.05 h 0.85 l 0.45,-0.05 0.8,-0.05 h 0.7 l 1.6,-0.05 1.45,-0.05 h 1.75 l 1.75,-0.05 0.9,-0.05 h 0.1 L 21.75,30.35 H 20.4 L 19.7,30.3 19.15,30.25 h -0.4 L 17.7,30.2 16.35,30.15 H 15.8 L 15.4,30.1 12.95,30.05 h -0.5 L 7.8,30 5.05,29.95 H 3.75 L 3,29.9 2.5,29.85 2.25,29.8 H 2 L 1.65,29.75 1.3,29.7 H 0.65 L 0.4,29.75 H 0.2 l -0.1,-0.1 -0.05,-0.1 v -0.1 l 0.05,-0.1 0.1,-0.1 0.15,-0.1 h 0.1 L 0.65,29.1 0.8,29.05 H 1.3 L 1.65,29 2,28.95 H 2.25 L 2.5,28.9 3,28.85 H 3.75 L 5.05,28.8 7.8,28.75 12.45,28.7 h 0.5 l 2.45,-0.05 0.4,-0.05 h 0.55 l 1.35,-0.05 1.05,-0.05 h 0.4 l 0.55,-0.05 0.7,-0.05 h 1.35 l 0.75,-0.05 0.45,-0.05 0.45,-0.05 h 1.75 l 2.55,-0.05 0.8,-0.05 h 0.7 l 1.35,-0.05 2,-0.05 H 33.2 L 36,28 h 2.25 v -0.05 h 4.05 l 0.3,0.05 0.1,0.05 0.25,0.05 0.2,0.1 0.15,0.1 0.1,0.1 0.1,0.1 0.1,0.1 0.05,0.1 0.95,-0.55 1.3,-0.85 0.95,-1 q 0.6,-0.55 1.1,-0.75 0.45,-0.2 0.75,0 l 0.35,0.4 q 0.4,0.7 0.15,1.5 3.15,1.8 8.05,1.55 3,-0.2 4.8,-1.25 2.55,-1.55 3.5,-4.75 0.75,-2.7 0,-5.95 Q 65,14.4 63.45,13.25 62.6,12.6 60.7,12.2 55.8,11.2 49.5,12.1 h 0.15 l 0.25,0.05 0.25,0.1 0.15,0.1 0.15,0.15 0.1,0.1 0.05,0.1 0.05,0.1 0.05,0.1 0.05,0.1 0.05,0.1 v 0.1 0.1 0.1 0.1 0.1 0.1 l -0.05,0.1 -0.1,0.1 v 0.15 l -0.1,0.1 -0.1,0.1 -0.1,0.1 -0.15,0.1 -0.2,0.1 -0.2,0.05 -0.15,0.05 -0.25,0.05 h -0.35 -0.5 v 0.1 0.1 l -0.05,0.1 -0.05,0.15 -0.1,0.1 -0.15,0.1 -0.15,0.05 -0.15,0.05 h -0.2 l -0.25,0.05 -0.2,0.05 -0.2,0.05 h -0.3 l -0.3,0.05 -0.4,0.05 -0.2,0.1 H 45.6 l -0.3,0.05 H 40.45 L 39.8,15.8 H 39.5 L 39.3,15.75 39.05,15.7 H 38.8 L 38.6,15.65 38.4,15.6 h -0.15 l -0.15,-0.05 -0.15,-0.05 -0.2,-0.05 -0.2,-0.1 -0.1,-0.1 -0.1,-0.1 L 37.3,15 v -0.1 -0.1 l 0.05,-0.1 H 35 32.7 L 32,14.65 31.7,14.6 H 30.4 L 28.4,14.55 27.35,14.5 24.2,14.45 H 20.7 L 19.7,14.4 16,14.35 h -0.75 l -1,-0.05 -2.65,-0.05 H 10.65 L 9.3,14.2 8.5,14.15 H 7.65 l -1,-0.05 -0.6,-0.05 H 5.2 L 4.2,14 3.75,13.95 2.95,13.9 H 1.55 L 1.15,13.85 H 0.95 L 0.8,13.9 H 0.65 L 0.45,13.8 0.3,13.7 V 13.6 L 0.25,13.5 0.3,13.4 V 13.3 L 0.45,13.2 0.6,13.1 0.75,13 1,12.95 1.15,12.9 1.55,12.85 2.95,12.8 h 0.8 l 0.45,-0.05 1,-0.05 h 0.85 l 0.6,-0.05 1,-0.05 H 8.5 l 0.8,-0.05 1.35,-0.05 h 0.95 l 2.65,-0.05 1,-0.05 0.75,-0.05 h 3.7 l 1,-0.05 3.5,-0.05 h 3.15 L 28.4,12.2 h 1.5 L 29,12.15 h -0.65 l -2.2,-0.05 -2.1,-0.05 H 23.2 L 22.65,12 l -1,-0.05 H 20.1 L 18.45,11.9 18,11.85 16.8,11.8 H 15.55 L 14.6,11.75 13.8,11.7 H 13.1 L 11.2,11.65 11.05,11.6 H 10.9 l -0.45,-0.1 -0.1,-0.1 -0.05,-0.1 0.05,-0.1 0.1,-0.1 0.45,-0.05 0.15,-0.05 0.15,-0.05 h 1.9 l 0.7,-0.05 0.8,-0.05 h 0.95 L 16.8,10.8 18,10.75 18.45,10.7 h 1.65 l 1.55,-0.05 1,-0.05 h 0.55 l 0.85,-0.05 2.1,-0.05 h 2.2 L 29,10.45 32.45,10.4 h 2.2 l 0.5,-0.05 0.45,-0.05 h 1.95 0.85 0.55 0.8 1.3 1.05 1.2 L 44,10.1 Q 48.4,9 52.95,8.85 L 50,8.8 47.2,8.75 H 43.4 38.7 37.55 L 36.4,8.8 H 28.05 L 23.2,8.75 H 18.85 L 12.45,8.7 7.95,8.65 6.1,8.6 H 4.65 L 2.4,8.55 1.9,8.5 H 1.7 L 1.35,8.45 1.1,8.4 0.85,8.35 0.65,8.3 0.6,8.25 0.4,8.2 0.3,8.05 0.25,7.95 0.2,7.85 0.25,7.75 0.3,7.65 0.4,7.55 0.6,7.5 H 0.7 L 0.9,7.55 1.1,7.6 1.35,7.55 1.7,7.5 H 1.9 L 2.4,7.45 4.65,7.4 H 6.1 L 7.95,7.35 12.45,7.3 h 6.4 L 23.2,7.25 28.05,7.2 h 8.35 l 1.15,0.05 h 1.15 4.7 3.8 L 50,7.2 h 5.9 m 17.5,24.15 h 1 l 0.35,0.1 0.2,0.1 0.2,0.1 0.1,0.1 0.05,0.1 0.05,0.1 0.05,0.1 0.05,0.1 v 0.1 0.1 0.1 0.15 l -0.05,0.1 -0.05,0.1 -0.05,0.1 -0.05,0.1 -0.1,0.1 -0.2,0.1 -0.2,0.1 -0.35,0.05 h -1 -0.7 L 72.4,33.3 72.2,33.25 h -1.4 l -1.45,-0.05 -0.6,-0.05 h -0.4 L 67.8,33.1 66.7,33.05 66.1,33 H 65.5 L 65,32.95 64.75,32.9 H 63.7 L 63.35,32.85 62.8,32.8 H 62.25 L 62,32.75 61.7,32.7 H 61.3 L 60.95,32.65 60.8,32.6 60.5,32.55 60.3,32.5 l -0.45,0.05 -0.4,-0.1 -0.05,-0.1 0.05,-0.1 0.4,-0.05 0.4,-0.05 0.15,-0.05 h 0.1 l 0.1,0.05 h 0.2 l 0.15,-0.05 0.35,-0.05 h 0.4 L 62,32 62.25,31.95 62.8,31.9 h 0.55 L 63.7,31.85 64.75,31.8 H 65 l 0.5,-0.05 0.6,-0.05 h 0.6 l 1.1,-0.05 0.55,-0.05 h 0.4 l 0.6,-0.05 1.45,-0.05 h 1.4 l 0.2,-0.05 0.3,-0.05 h 0.7 V 31.35 M 40.35,33.5 h 1.4 l 5.4,0.05 h 2.9 l 5.7,0.05 6.9,0.05 h 1.15 l 6,-0.05 1.55,-0.05 h 0.2 0.2 1 l 0.8,-0.05 h 0.1 l 0.2,0.05 0.35,0.05 0.2,0.1 0.1,0.1 0.1,0.1 0.05,0.1 0.05,0.15 0.05,0.1 v 0.1 0.1 l -0.05,0.1 -0.05,0.1 -0.05,0.1 -0.1,0.1 -0.1,0.1 -0.2,0.1 -0.35,0.05 -0.2,0.05 h -0.1 l -0.8,-0.05 h -1 -0.2 -0.2 L 69.8,35.05 63.8,35 h -1.15 l -6.9,0.05 -5.7,0.05 h -2.9 l -5.4,0.05 h -1.4 L 33.95,35.1 H 30.7 L 26.5,35.05 25.1,35 H 23.65 L 19.55,34.95 18.2,34.9 H 17.3 L 4.2,34.85 1.3,34.8 1.1,34.9 0.85,34.85 0.65,34.8 H 0.45 L 0.3,34.7 0.2,34.6 0.15,34.5 0.2,34.4 V 34.3 L 0.3,34.25 V 34.2 l 0.15,-0.05 h 0.2 L 0.8,34.05 0.9,33.95 1.15,33.9 1.35,33.85 4.2,33.8 h 13.1 l 0.9,-0.05 1.35,-0.05 h 4.1 l 1.45,-0.05 1.4,-0.05 4.2,-0.05 h 3.25 6.4 V 33.5 m 22.35,1.95 h 10.6 l 0.35,0.05 0.2,0.05 0.2,0.1 0.2,0.15 0.15,0.1 0.1,0.1 0.05,0.1 0.1,0.1 0.05,0.1 0.05,0.1 0.05,0.1 0.05,0.1 v 0.1 l 0.05,0.1 v 0.1 0.1 0.1 0.1 0.15 l -0.05,0.1 v 0.1 l -0.05,0.1 -0.05,0.1 v 0.1 l -0.1,0.1 -0.05,0.1 -0.1,0.1 -0.1,0.1 -0.1,0.1 0.1,0.05 0.05,0.1 0.05,0.1 0.05,0.1 v 0.1 0.1 0.1 l -0.05,0.1 -0.05,0.1 -0.05,0.1 -0.1,0.15 -0.15,0.1 -0.2,0.1 -0.15,0.1 -0.15,0.1 -0.35,0.05 -0.2,-0.05 H 72.95 L 72.7,39.9 72.45,39.95 72.15,40 h -0.8 L 70,40.05 68.9,40.1 H 68.2 L 67.25,40.15 65.3,40.2 H 60 l -4,0.05 -3.25,0.05 H 49.4 l -1.1,0.05 -2.7,0.05 h -1.55 l -1.2,0.05 -6.05,0.05 -2.25,0.05 H 26.6 22.5 17 L 8.25,40.5 6.3,40.45 H 2.15 L 1.65,40.5 1.3,40.55 H 0.85 L 0.55,40.5 0.3,40.4 0.1,40.3 -0.1,40.2 -0.2,40.1 -0.3,40 -0.4,39.9 -0.45,39.8 -0.55,39.7 -0.6,39.6 -0.65,39.5 -0.7,39.4 V 39.3 L -0.75,39.2 V 39.1 39 l -0.05,-0.15 0.05,-0.1 v -0.1 -0.1 l 0.05,-0.1 v -0.1 l 0.05,-0.1 0.05,-0.1 0.05,-0.1 0.1,-0.1 0.05,-0.1 0.1,-0.1 0.1,-0.1 0.1,-0.05 -0.05,-0.05 -0.15,-0.1 -0.1,-0.1 -0.05,-0.1 v -0.1 -0.1 -0.1 l 0.05,-0.1 0.05,-0.1 0.15,-0.1 0.2,-0.1 0.25,-0.1 0.2,-0.1 H 0.6 L 0.75,36.3 0.9,36.25 1.1,36.2 h 0.25 l 0.5,-0.05 0.7,-0.05 h 0.7 L 3.5,36.05 4,36 H 4.85 L 5.65,35.95 6.3,35.9 H 6.9 L 7.8,35.85 9.2,35.8 h 1.5 L 11.45,35.75 13,35.7 17.45,35.65 h 2.8 l 2.35,-0.05 3.95,-0.05 h 3.6 L 57.4,35.5 h 5.3 v -0.05"
         fill="#999999"
         fill-rule="evenodd"
         stroke="none"
         id="path8" />
      <path
         d="m 2,23.55 2.35,-2.3 4.35,-3.5 -2.05,0.1 -1.1,0.05 -0.9,-0.25 h -1.8 q -0.7,0 -0.7,-0.35 Q 2.1,17.05 2.4,16.85 l 0.5,-0.1 8.25,-0.9 0.95,0.15 q 0.55,0.4 0.15,1.2 l -1,0.85 Q 8,20.05 5.3,22.9 l 6.85,-0.7 q 1.05,0 1.5,0.35 L 14,23.25 13.35,23.95 11,24.25 7.6,24.5 4.7,25 2.9,25.45 2.05,25.5 1.5,25.1 1.35,24.45 Q 1.4,24.05 2,23.55"
         fill="#ffffff"
         fill-rule="evenodd"
         stroke="none"
         id="path9" />
      <path
         d="m 64.8,11.4 q 0.9,0.7 1.65,1.9 2.25,3.85 1.25,8.85 -0.55,2.9 -2.1,4.8 -1.95,2.5 -5.6,3.35 -3.35,0.85 -7,0.1 -3.4,-0.6 -5.4,-2.15 -2.15,1.95 -5.9,2.9 l -7.3,0.8 -10.3,0.05 -3.45,-0.2 -1.6,-0.3 q -0.95,-0.45 -0.85,-1.2 0,-0.6 0.75,-0.95 l 1.3,-0.2 11.8,-0.6 8.75,-1.1 -15.75,0.2 -6.6,-0.1 -8.5,0.3 -7.6,0.35 -1.1,0.05 Q 0.55,28.15 0.4,27.65 V 27.2 L 0.35,27.05 Q 0.35,26.6 1,26.45 L 1.15,26.4 Q 0.45,26.2 0.5,25.75 L 0.7,25.5 Q -0.45,24.95 -0.35,24 l 0.55,-1.3 0.1,-1.05 0.05,-2.3 0.1,-1.1 -0.2,-0.05 -0.9,-0.75 Q -1,16.85 -0.7,16.4 q 0.25,-0.5 1.1,-0.7 0.1,-0.55 0.45,-0.8 0.4,-0.4 1.7,-0.4 6.6,-0.3 17.85,0.05 l 1.8,-0.05 21.4,0.3 3.1,0.1 q 0.65,-1.05 1.6,-1.95 l -6.55,-0.5 Q 40.1,12.25 39.6,11.9 39.1,11.65 38.85,11.05 38.6,10.55 38.9,10.1 39.2,9.5 41.1,9.5 l 2.35,-0.1 q 5.8,-0.3 11.5,-0.05 L 57.1,9.4 58,9.5 q 2.55,0.15 4.1,0.65 l 1,0.35 q 1,0.35 1.7,0.9 M 2.3,24.05 q -0.6,0.6 -0.5,1.15 0.1,0.5 0.7,0.6 h 0.95 l 10.45,-1.2 3.25,-0.15 1,0.05 0.8,-0.55 q 0.2,-0.3 0,-0.7 L 18.35,22.65 16.8,22.45 9.15,23.3 6.4,23.65 Q 7.65,22.2 10.35,21.1 l 4.4,-1.7 2.3,-0.95 0.9,-0.3 0.4,-0.55 -0.1,-0.7 Q 18,16.5 17.4,16.4 l -1.05,0.05 -5.95,0.45 -5.95,0.4 q -0.65,0.1 -0.7,0.5 0,0.4 0.75,0.5 l 7.2,0.5 -3,1.2 -1.6,0.85 -1.3,1 -1.6,0.85 Q 3.1,23.25 2.3,24.05 M 32.9,16.6 q -0.4,-0.35 -1.05,-0.35 l -2.05,0.15 -3.1,0.2 -3.15,0.15 q -0.8,0.1 -1.25,0.35 -0.3,0.2 -0.3,0.45 l 0.35,0.35 0.95,0.1 3.4,0.15 -0.6,5.35 v 0.35 l -0.7,0.05 -1.25,0.15 -1.25,0.2 -1.5,0.4 -0.25,0.35 q 0.05,0.25 0.55,0.35 l 2.7,0.25 7.65,-0.35 1.3,-0.3 0.3,-0.7 L 33.3,23.55 32,23.3 28.15,23.65 28,18.25 h 3.75 l 1.1,-0.3 0.3,-0.65 -0.25,-0.7 M 52,27.8 q 0.7,0.6 1.45,0.2 0.85,-0.35 0.75,-1.3 L 53.85,26 53.2,25.6 q -0.9,-0.2 -1.4,0.55 l -0.1,0.3 q -0.15,0.45 0,0.85 l 0.3,0.5 m 0,-4.25 q 0,0.5 0.35,0.85 0.35,0.35 0.8,0.4 L 54,24.45 54.4,23.65 54.25,22.3 54.3,21.4 54.2,20.8 54.25,19.7 54.1,16.35 53.95,15.8 q -0.15,-0.25 -0.5,-0.25 l -0.5,0.25 -0.15,0.55 -0.15,2.4 v 0.4 l -0.15,0.4 q -0.1,0.4 -0.05,1.2 l -0.2,0.8 -0.15,1.35 -0.1,0.65 m -13.85,-5.2 v -0.1 l 7.2,0.35 2.45,0.4 -0.5,0.45 q -1.3,0.65 -3.2,1 l -6.05,0.5 0.1,-2.6 m -1.3,7.05 q 0.5,0.35 0.85,-0.25 l 0.2,-0.95 0.05,-1.4 4.1,-0.3 3.2,-0.35 2.4,-0.75 1.7,-0.95 0.55,-0.6 0.15,-0.85 q -0.1,-1.2 -1,-1.95 -0.6,-0.45 -1.4,-0.6 L 44.9,16.2 39.25,16.4 37.8,16.55 37.55,16.6 37.1,16.55 q -0.6,0 -0.8,0.8 l 0.05,1.25 v 3.15 q -0.1,1.95 0.2,3.1 l 0.3,0.55 M 65.2,23.65 66,23.1 66.05,23.05 66.55,22.7 66.8,21.9 V 20.6 Q 66.7,20 66.25,20 l -0.15,0.05 -0.35,0.35 -0.25,0.6 -0.05,0.5 -0.1,0.35 q -0.45,0 -0.85,0.35 l -2.1,1.65 -0.4,0.4 q -0.15,0.3 0,0.55 l 0.5,0.2 2.7,-1.35 M 65.1,15.7 q -1.15,-0.85 -2.45,-0.15 -1.2,0.65 -1.3,2.1 -0.1,0.65 0.25,1.2 0.3,0.45 1,0.7 l 1.75,0.15 q 1,-0.25 1.35,-1.05 l 0.2,-0.8 -0.05,-1.05 -0.75,-1.1"
         fill="#000000"
         fill-rule="evenodd"
         stroke="none"
         id="path10" />
      <path
         d="m 65.1,15.7 0.75,1.1 0.05,1.05 -0.2,0.8 q -0.35,0.8 -1.35,1.05 L 62.6,19.55 q -0.7,-0.25 -1,-0.7 -0.35,-0.55 -0.25,-1.2 0.1,-1.45 1.3,-2.1 1.3,-0.7 2.45,0.15 M 65.2,23.65 62.5,25 62,24.8 q -0.15,-0.25 0,-0.55 l 0.4,-0.4 2.1,-1.65 q 0.4,-0.35 0.85,-0.35 L 65.45,21.5 65.5,21 65.75,20.4 66.1,20.05 66.25,20 q 0.45,0 0.55,0.6 v 1.3 l -0.25,0.8 -0.5,0.35 -0.05,0.05 -0.8,0.55 m -28.35,1.75 -0.3,-0.55 q -0.3,-1.15 -0.2,-3.1 V 18.6 L 36.3,17.35 q 0.2,-0.8 0.8,-0.8 l 0.45,0.05 0.25,-0.05 1.45,-0.15 5.65,-0.2 2.75,0.25 q 0.8,0.15 1.4,0.6 0.9,0.75 1,1.95 l -0.15,0.85 -0.55,0.6 -1.7,0.95 -2.4,0.75 -3.2,0.35 -4.1,0.3 -0.05,1.4 -0.2,0.95 q -0.35,0.6 -0.85,0.25 m 1.3,-7.05 -0.1,2.6 6.05,-0.5 q 1.9,-0.35 3.2,-1 L 47.8,19 45.35,18.6 38.15,18.25 v 0.1 m 13.85,5.2 0.1,-0.65 0.15,-1.35 0.2,-0.8 q -0.05,-0.8 0.05,-1.2 l 0.15,-0.4 v -0.4 l 0.15,-2.4 0.15,-0.55 0.5,-0.25 q 0.35,0 0.5,0.25 l 0.15,0.55 0.15,3.35 -0.05,1.1 0.1,0.6 -0.05,0.9 0.15,1.35 -0.4,0.8 -0.85,0.35 Q 52.7,24.75 52.35,24.4 52,24.05 52,23.55 m 0,4.25 -0.3,-0.5 q -0.15,-0.4 0,-0.85 l 0.1,-0.3 q 0.5,-0.75 1.4,-0.55 l 0.65,0.4 0.35,0.7 Q 54.3,27.65 53.45,28 52.7,28.4 52,27.8 m -19.1,-11.2 0.25,0.7 -0.3,0.65 -1.1,0.3 H 28 l 0.15,5.4 3.85,-0.35 1.3,0.25 0.35,0.7 -0.3,0.7 -1.3,0.3 -7.65,0.35 -2.7,-0.25 Q 21.2,25.25 21.15,25 l 0.25,-0.35 1.5,-0.4 1.25,-0.2 1.25,-0.15 0.7,-0.05 V 23.5 L 26.7,18.15 23.3,18 22.35,17.9 22,17.55 q 0,-0.25 0.3,-0.45 0.45,-0.25 1.25,-0.35 l 3.15,-0.15 3.1,-0.2 2.05,-0.15 q 0.65,0 1.05,0.35 M 2.3,24.05 q 0.8,-0.8 1.9,-1.35 l 1.6,-0.85 1.3,-1 1.6,-0.85 3,-1.2 -7.2,-0.5 Q 3.75,18.2 3.75,17.8 3.8,17.4 4.45,17.3 l 5.95,-0.4 5.95,-0.45 1.05,-0.05 q 0.6,0.1 0.85,0.5 l 0.1,0.7 -0.4,0.55 -0.9,0.3 -2.3,0.95 -4.4,1.7 q -2.7,1.1 -3.95,2.55 l 2.75,-0.35 7.65,-0.85 1.55,0.2 0.6,0.6 q 0.2,0.4 0,0.7 l -0.8,0.55 -1,-0.05 L 13.9,24.6 3.45,25.8 H 2.5 Q 1.9,25.7 1.8,25.2 1.7,24.65 2.3,24.05"
         fill="#ffffff"
         fill-rule="evenodd"
         stroke="none"
         id="path11" />
    </g>
    <g
       id="shape2"
       transform="translate(2,2.05)">
      <path
         d="M -0.5,-0.4 V -0.55 H 75.1 V -0.4 40.8 H -0.5 Z"
         fill="none"
         stroke="#000000"
         stroke-linecap="round"
         stroke-linejoin="round"
         stroke-width="3"
         id="path12" />
    </g>
  </defs>
</svg>
