<?xml version="1.0" encoding="UTF-8" standalone="no"?>
<svg
   ffdec:objectType="frame"
   height="44.549999"
   width="78.599998"
   version="1.1"
   id="svg11"
   sodipodi:docname="284.svg"
   xmlns:inkscape="http://www.inkscape.org/namespaces/inkscape"
   xmlns:sodipodi="http://sodipodi.sourceforge.net/DTD/sodipodi-0.dtd"
   xmlns:xlink="http://www.w3.org/1999/xlink"
   xmlns="http://www.w3.org/2000/svg"
   xmlns:svg="http://www.w3.org/2000/svg"
   xmlns:ffdec="https://www.free-decompiler.com/flash">
  <sodipodi:namedview
     id="namedview11"
     pagecolor="#ffffff"
     bordercolor="#000000"
     borderopacity="0.25"
     inkscape:showpageshadow="2"
     inkscape:pageopacity="0.0"
     inkscape:pagecheckerboard="0"
     inkscape:deskcolor="#d1d1d1"
     fit-margin-top="5"
     fit-margin-left="5"
     fit-margin-right="5"
     fit-margin-bottom="5" />
  <g
     transform="translate(2,2.05)"
     id="g3">
    <use
       ffdec:characterId="1"
       height="42.700001"
       transform="translate(-1.75,-2)"
       width="76.449997"
       xlink:href="#shape0"
       id="use1" />
    <use
       ffdec:characterId="278"
       height="43.799999"
       transform="translate(-0.2,-1.15)"
       width="75.699997"
       xlink:href="#shape1"
       id="use2" />
    <use
       ffdec:characterId="3"
       height="44.349998"
       transform="translate(-2,-2.05)"
       width="78.599998"
       xlink:href="#shape2"
       id="use3" />
  </g>
  <defs
     id="defs11">
    <g
       id="shape0"
       transform="translate(1.75,2)">
      <path
         d="M 2.8,0 V -0.4 H 5.4 V 0 H 9.7 V 19.45 0 H 20.55 L 19.3,19.45 H 9.7 0.25 V 0 H 2.8"
         fill="#ffffff"
         fill-rule="evenodd"
         stroke="none"
         id="path3" />
      <path
         d="M 0.25,19.45 H 9.7 19.3 L 18.7,28.6 16,28.5 10.95,27.95 9.7,27.8 Q 7.45,27.6 5.85,27.75 4.05,27.9 1.5,28.6 0.75,28.8 0.25,29.15 v -9.7 m 9.45,0 v 8.35 -8.35"
         fill="#121212"
         fill-rule="evenodd"
         stroke="none"
         id="path4" />
      <path
         d="m 9.7,27.8 1.25,0.15 5.05,0.55 2.7,0.1 h 1.05 l 3.75,0.15 q 2.45,0.3 3.6,1.25 0.6,0.5 0.6,1.1 0,0.65 -0.8,1 l -1.3,0.2 -7.15,0.15 -5.6,-0.3 L 9.7,31.75 7.95,31.6 3.1,31.95 0.95,32.3 0.25,32.1 -0.35,31.55 -0.5,31.3 V 29.9 L 0.25,29.15 Q 0.75,28.8 1.5,28.6 4.05,27.9 5.85,27.75 7.45,27.6 9.7,27.8 v 3.95 -3.95"
         fill="#999999"
         fill-rule="evenodd"
         stroke="none"
         id="path5" />
      <path
         d="M 2.8,0 H 0.25 M 9.7,0 H 5.4 m 16.15,0 h 10.7 M 20.55,0 H 9.7"
         fill="none"
         stroke="#666666"
         stroke-linecap="round"
         stroke-linejoin="round"
         stroke-width="4"
         id="path6" />
      <path
         d="m 9.7,-0.4 h 65 V 40.5 H 47.05 L 45.5,40.7 27,40.65 25.95,40.5 H 9.7 -0.5 V -0.4 H 9.7 V 40.5 -0.4"
         fill="#ffffff"
         fill-rule="evenodd"
         stroke="none"
         id="path7" />
    </g>
    <g
       id="shape1"
       transform="translate(0.2,1.15)">
      <path
         d="m 30.75,40.85 q -0.2,0.9 -1.3,1.15 l -1.85,0.05 q -3.15,-0.45 -6,-1.4 -2.05,-0.6 -3.5,-1.45 -3.9,-2.35 -5.7,-7.2 -1,-2.6 -1.15,-5.35 -0.15,-1.6 0.05,-3.8 0.3,-3.65 0.8,-5.85 1.65,-7.05 6.95,-11.8 5.4,-4.8 12.5,-5.4 l 2.25,0.1 q 0.4,0.1 0.45,0.3 0.15,0.35 -0.2,0.6 L 33.4,1 q -8.5,1.35 -13,6.05 -1.3,1.35 -2.65,3.4 -1.25,1.8 -1.85,3.45 l -0.95,3.65 q -0.9,4.8 -0.7,8.2 0.25,4.5 2.45,7.75 1.65,2.4 4.05,3.65 2.1,1.15 6.55,2.05 2.65,0.5 3.45,1.65 m -16.35,1.6 -1.15,0.05 -1.5,-1.15 Q 7,36.1 4.95,30 3.45,25.3 3.95,21.2 4.25,19 5.35,15.9 7,11.25 9.2,8 11.9,4 15.45,1.85 16.95,1 19.6,-0.15 l 2.05,-0.85 1.2,0.05 q 0.35,0.4 -0.05,0.9 L 22,0.55 Q 16.65,3.1 14.15,5.7 12.3,7.65 10.85,10.6 9.8,12.65 8.6,16.15 q -1.2,3.7 -1.4,5.7 -0.3,2.9 0.8,7.2 1.25,4.25 3.05,6.75 L 13,38.3 q 1.15,1.45 1.55,2.65 0.4,1 -0.15,1.5 m -1.05,-42.6 -3.6,2.7 q -2.15,1.6 -3.35,3 -1.1,1.25 -1.95,2.8 -4.3,7.35 -4.1,15.2 0.15,8.5 5.2,14.75 l 0.8,1.2 q 0.35,0.8 0,1.4 -0.6,0.85 -1.7,0.5 Q 3.9,41.15 3.15,40.3 L 1.4,38 -0.2,35.15 V 10.9 q 1.7,-3.5 4.3,-6.35 3.75,-4 8.5,-5.6 1.1,-0.35 1.1,0.3 l -0.35,0.6 m 30.4,41 q 0.8,-1.15 3.45,-1.65 4.45,-0.9 6.55,-2.05 2.4,-1.25 4.05,-3.65 2.2,-3.25 2.45,-7.75 0.2,-3.4 -0.7,-8.2 L 58.6,13.9 Q 58,12.25 56.75,10.45 55.4,8.4 54.1,7.05 49.6,2.35 41.1,1 L 40.45,0.8 Q 40.1,0.55 40.25,0.2 40.3,0 40.7,-0.1 l 2.25,-0.1 q 7.1,0.6 12.5,5.4 5.3,4.75 6.95,11.8 0.5,2.2 0.8,5.85 l 0.05,3.8 Q 63.1,29.4 62.1,32 q -1.8,4.85 -5.7,7.2 -1.45,0.85 -3.5,1.45 -2.85,0.95 -6,1.4 L 45.05,42 q -1.1,-0.25 -1.3,-1.15 m 16.35,1.6 q -0.55,-0.5 -0.15,-1.5 0.4,-1.2 1.55,-2.65 l 1.95,-2.5 q 1.8,-2.5 3.05,-6.75 1.1,-4.3 0.8,-7.2 -0.2,-2 -1.4,-5.7 L 63.65,10.6 Q 62.2,7.65 60.35,5.7 57.85,3.1 52.5,0.55 l -0.8,-0.6 q -0.4,-0.5 -0.05,-0.9 L 52.85,-1 54.9,-0.15 Q 57.55,1 59.05,1.85 62.6,4 65.3,8 q 2.2,3.25 3.85,7.9 1.1,3.1 1.4,5.3 0.5,4.1 -1,8.8 -2.05,6.1 -6.8,11.35 l -1.5,1.15 -1.15,-0.05 m 1.05,-42.6 q -0.4,-0.3 -0.35,-0.6 0,-0.65 1.1,-0.3 4.75,1.6 8.5,5.6 3.25,3.55 5.1,8.2 V 33.3 q -0.95,2.45 -2.4,4.7 l -1.75,2.3 q -0.75,0.85 -1.5,1.1 -1.1,0.35 -1.7,-0.5 -0.35,-0.6 0,-1.4 l 0.8,-1.2 Q 74,32.05 74.15,23.55 74.35,15.7 70.05,8.35 L 68.1,5.55 q -1.2,-1.4 -3.35,-3 l -3.6,-2.7 m -27,38.4 q -0.45,0.85 -2.1,0.3 l -2.8,-0.9 -2.95,-1.1 -2.2,-1.15 -2.75,-1.7 q -1.05,-0.95 -2.2,-2.6 l -1.7,-2.65 q -1.4,-2.8 -1.3,-6.3 0.05,-3.2 1.35,-6.5 2.55,-6.55 8.2,-10.75 1.1,-0.8 2.55,-1.55 2.55,-1.3 5.2,-1.4 l 2.95,-0.2 0.85,0.1 0.85,-0.1 2.95,0.2 q 2.65,0.1 5.2,1.4 L 48.8,4.9 q 5.65,4.2 8.2,10.75 1.3,3.3 1.35,6.5 0.1,3.5 -1.3,6.3 l -1.7,2.65 -2.2,2.6 -2.75,1.7 -2.2,1.15 -2.95,1.1 -2.8,0.9 q -1.65,0.55 -2.1,-0.3 -0.45,-0.9 0.95,-1.85 1.85,-1.15 3.55,-1.65 l 2.2,-0.7 1.7,-0.95 2.25,-1.65 1.95,-2.4 q 1.5,-2.2 1.95,-4.1 0.35,-1.45 0.25,-3.25 -0.25,-6.1 -4,-11.05 Q 47.4,5.75 41.6,3.8 l -0.4,-0.1 -2,-0.2 -1.95,-0.3 -1.95,0.3 -2,0.2 -0.4,0.1 q -5.8,1.95 -9.55,6.85 -3.75,4.95 -4,11.05 -0.1,1.8 0.25,3.25 0.45,1.9 1.95,4.1 l 1.95,2.4 2.25,1.65 1.7,0.95 2.2,0.7 q 1.7,0.5 3.55,1.65 1.4,0.95 0.95,1.85"
         fill="#999999"
         fill-rule="evenodd"
         stroke="none"
         id="path8" />
      <path
         d="M 69.85,1.75 Q 71.3,1.5 72.3,2.95 l 0.3,0.6 -0.1,1.2 L 72.3,5 71.15,6.85 71.05,7 70.4,8.05 69.7,8.8 68.15,9 l -0.2,-0.05 -1.5,1.9 -0.9,0.7 -1.65,0.95 -1.6,-0.2 -2.3,1.45 -1,0.75 -0.3,0.25 h -0.35 l -0.2,-0.35 0.2,-0.4 q 0.25,-0.4 1.35,-1.25 l 1.6,-1.6 -0.1,-0.4 V 10 l 0.2,-0.85 0.9,-1.1 0.35,-0.4 0.9,-0.7 L 64.5,6.4 64.25,6 q -0.3,-0.9 0.45,-1.65 0.5,-0.55 1.5,-1 L 67.15,2.9 68.1,2.55 h 0.35 q 0.85,-0.7 1.4,-0.8 M 68.6,21.7 68.15,21.65 67.8,21.8 q -0.45,0 -0.35,-0.35 -0.1,-0.25 0.15,-0.35 l 0.45,-0.15 0.5,-0.3 0.6,-0.2 2.75,-0.85 0.9,-0.3 2,-0.2 q 0.45,0.05 0.7,0.35 V 21 q -0.3,0.3 -0.8,0.45 l -1.1,0.1 H 72.5 L 71.1,21.5 68.6,21.7 M 30.1,5.5 Q 31.75,4.75 33.45,4.35 L 36.7,4.05 H 37 l 3.25,0.3 q 1.7,0.4 3.35,1.15 l 1.25,0.65 0.25,-0.9 0.25,-1.3 Q 45.7,2.9 46.65,2.6 l 1.95,0.1 1.1,0.9 Q 51.75,6 52.85,9 l 0.8,3.1 h 0.2 q 1.4,0 2.35,1.3 0.6,0.95 0.8,2.65 0.25,2.15 0.1,4.15 2.9,0 5.4,1.7 2.55,1.7 3.65,4.35 1.3,3.35 -0.15,5.9 -0.65,1.15 -2,2.25 -1.8,1.45 -3.75,2.1 L 56.3,37 47.75,36.25 45.7,35.9 l 0.8,2 q 0.45,1.5 0.3,2.4 l -0.1,0.4 H 27.05 L 26.9,40.3 q -0.15,-0.9 0.3,-2.4 L 28,35.9 25.95,36.25 17.4,37 13.45,36.5 Q 11.5,35.85 9.7,34.4 8.35,33.3 7.7,32.15 6.25,29.6 7.55,26.25 8.65,23.6 11.2,21.9 q 2.5,-1.7 5.4,-1.7 -0.15,-2 0.1,-4.15 0.2,-1.7 0.8,-2.65 0.95,-1.3 2.35,-1.3 h 0.2 Q 20.3,10.55 20.85,9 21.95,6 24,3.6 24.7,2.9 25.1,2.7 l 1.95,-0.1 q 0.95,0.3 1.3,1.35 l 0.25,1.3 0.25,0.9 1.25,-0.65 m 12.35,20.95 0.55,0.95 1,0.85 1.2,0.5 2.1,0.3 q 2.05,-0.1 3.25,-1.6 1.3,-1.55 0.85,-3.5 -0.3,-1.2 -1.3,-2.15 V 22 l -0.4,1.6 -1.1,1.15 -1.9,1.15 -1.55,0.35 -2.75,0.05 0.05,0.15 m 8.95,2 q -1.4,1.4 -3.5,2.35 l 5.95,0.7 q 4.5,0.3 6.55,-1.45 l 0.65,-0.85 q 0.2,-0.6 -0.3,-1.4 -1.15,-1.95 -3.4,-2.5 l -1.6,-0.2 -1.55,-0.2 -0.6,-0.15 -0.25,0.7 q -0.7,1.65 -1.95,3 M 31.95,26.45 32,26.3 29.25,26.25 27.7,25.9 25.8,24.75 Q 25,24.25 24.7,23.6 L 24.3,22 v -0.2 q -1,0.95 -1.3,2.15 -0.45,1.95 0.85,3.5 1.2,1.5 3.25,1.6 l 2.1,-0.3 1.2,-0.5 1,-0.85 0.55,-0.95 M 36.1,30 q 0.55,-0.3 1.1,-0.35 l 1.1,0.35 0.6,0.55 0.2,0.4 q 0.35,0.7 1.05,0.85 0.75,0.15 1.3,-0.3 Q 42,31.15 42.1,30.3 L 41.85,29.4 41.15,28.7 40.1,28.1 39.15,27.8 38.6,27.7 38.35,27.65 V 27.4 26.9 L 38.2,25.95 37.8,25.5 q -0.25,-0.25 -0.6,-0.2 -0.35,-0.05 -0.6,0.2 l -0.4,0.45 q -0.15,0.3 -0.15,0.95 v 0.5 0.25 l -0.25,0.05 -0.55,0.1 -0.95,0.3 -1.05,0.6 -0.7,0.7 -0.25,0.9 q 0.1,0.85 0.65,1.2 0.55,0.45 1.3,0.3 0.7,-0.15 1.05,-0.85 l 0.2,-0.4 Q 35.65,30.2 36.1,30 M 1.75,3.05 Q 1.95,2.4 2.95,1.7 l 0.7,-0.4 1.3,-0.1 q 0.8,0 1.35,0.35 0.65,0.3 1.15,1.1 L 7.5,2.7 q 0.4,0 0.95,0.4 l 0.7,0.65 0.3,0.55 0.25,0.85 v 0.6 l 0.55,0.35 0.95,1.3 0.75,1.65 0.1,1 -0.05,0.9 -0.3,0.65 0.35,0.45 0.75,0.75 0.15,0.35 1.3,1.85 0.15,0.25 v 0.3 l -0.4,0.1 -0.3,-0.2 -0.8,-0.6 -0.5,-0.65 -0.45,-0.55 -1,-1 L 10.7,12.45 9.8,12.7 8.55,12.55 7.7,11.9 6.5,10.7 5.6,9.4 5.5,9.25 4.35,9.4 3.2,8.95 2.65,8.2 2.25,7.15 2.3,6.3 2.2,6.15 1.65,5.25 1.55,4.3 1.75,3.05 M -0.1,24.7 -0.2,24.65 V 20.8 q 0.6,-0.6 1.45,-0.4 l 0.75,0.25 0.75,0.6 0.6,0.7 0.1,0.15 1.35,-0.4 0.35,-0.15 2.75,-0.75 1.25,-0.4 0.6,-0.15 0.7,0.05 0.5,-0.1 0.5,0.05 -0.2,0.5 -0.6,0.4 -0.6,0.25 -1.5,0.8 -2.2,0.65 -0.85,0.3 -1.75,0.8 -0.2,1.7 -0.1,0.05 -0.3,0.75 -0.4,0.65 -1.2,0.95 -1.3,0.1 -0.45,-0.3 v -2.9 l 0.1,-0.25 m 22.4,3.75 q -1.25,-1.35 -1.95,-3 l -0.25,-0.7 -0.6,0.15 -1.55,0.2 -1.6,0.2 q -2.25,0.55 -3.4,2.5 -0.5,0.8 -0.3,1.4 0.15,0.5 0.65,0.85 2.05,1.75 6.55,1.45 l 5.95,-0.7 q -2.1,-0.95 -3.5,-2.35"
         fill="#000000"
         fill-rule="evenodd"
         stroke="none"
         id="path9" />
      <path
         d="M 42.45,26.45 42.4,26.3 45.15,26.25 46.7,25.9 48.6,24.75 49.7,23.6 50.1,22 v -0.2 q 1,0.95 1.3,2.15 0.45,1.95 -0.85,3.5 -1.2,1.5 -3.25,1.6 L 45.2,28.75 44,28.25 43,27.4 42.45,26.45 M 36.1,30 q -0.45,0.2 -0.6,0.55 l -0.2,0.4 q -0.35,0.7 -1.05,0.85 -0.75,0.15 -1.3,-0.3 -0.55,-0.35 -0.65,-1.2 l 0.25,-0.9 0.7,-0.7 1.05,-0.6 0.95,-0.3 0.55,-0.1 0.25,-0.05 V 27.4 26.9 q 0,-0.65 0.15,-0.95 l 0.4,-0.45 q 0.25,-0.25 0.6,-0.2 0.35,-0.05 0.6,0.2 l 0.4,0.45 0.15,0.95 v 0.5 0.25 l 0.25,0.05 0.55,0.1 0.95,0.3 1.05,0.6 0.7,0.7 0.25,0.9 q -0.1,0.85 -0.65,1.2 -0.55,0.45 -1.3,0.3 -0.7,-0.15 -1.05,-0.85 L 38.9,30.55 38.3,30 37.2,29.65 Q 36.65,29.7 36.1,30 m -4.15,-3.55 -0.55,0.95 -1,0.85 -1.2,0.5 -2.1,0.3 q -2.05,-0.1 -3.25,-1.6 -1.3,-1.55 -0.85,-3.5 0.3,-1.2 1.3,-2.15 V 22 l 0.4,1.6 q 0.3,0.65 1.1,1.15 l 1.9,1.15 1.55,0.35 2.75,0.05 -0.05,0.15"
         fill="#ffffff"
         fill-rule="evenodd"
         stroke="none"
         id="path10" />
    </g>
    <g
       id="shape2"
       transform="translate(2,2.05)">
      <path
         d="M -0.5,-0.4 V -0.55 H 75.1 V -0.4 40.8 H -0.5 Z"
         fill="none"
         stroke="#000000"
         stroke-linecap="round"
         stroke-linejoin="round"
         stroke-width="3"
         id="path11" />
    </g>
  </defs>
</svg>
