<?xml version="1.0" encoding="UTF-8" standalone="no"?>
<svg
   ffdec:objectType="frame"
   height="44.349998"
   width="78.599998"
   version="1.1"
   id="svg12"
   sodipodi:docname="79.svg"
   xmlns:inkscape="http://www.inkscape.org/namespaces/inkscape"
   xmlns:sodipodi="http://sodipodi.sourceforge.net/DTD/sodipodi-0.dtd"
   xmlns:xlink="http://www.w3.org/1999/xlink"
   xmlns="http://www.w3.org/2000/svg"
   xmlns:svg="http://www.w3.org/2000/svg"
   xmlns:ffdec="https://www.free-decompiler.com/flash">
  <sodipodi:namedview
     id="namedview12"
     pagecolor="#ffffff"
     bordercolor="#000000"
     borderopacity="0.25"
     inkscape:showpageshadow="2"
     inkscape:pageopacity="0.0"
     inkscape:pagecheckerboard="0"
     inkscape:deskcolor="#d1d1d1"
     fit-margin-top="5"
     fit-margin-left="5"
     fit-margin-right="5"
     fit-margin-bottom="5" />
  <g
     transform="translate(2,2.05)"
     id="g3">
    <use
       ffdec:characterId="1"
       height="42.700001"
       transform="translate(-1.75,-2)"
       width="76.449997"
       xlink:href="#shape0"
       id="use1" />
    <use
       ffdec:characterId="78"
       height="40.099998"
       transform="translate(-1.3,0.7)"
       width="74.650002"
       xlink:href="#shape1"
       id="use2" />
    <use
       ffdec:characterId="3"
       height="44.349998"
       transform="translate(-2,-2.05)"
       width="78.599998"
       xlink:href="#shape2"
       id="use3" />
  </g>
  <defs
     id="defs12">
    <g
       id="shape0"
       transform="translate(1.75,2)">
      <path
         d="M 2.8,0 V -0.4 H 5.4 V 0 H 9.7 V 19.45 0 H 20.55 L 19.3,19.45 H 9.7 0.25 V 0 H 2.8"
         fill="#ffffff"
         fill-rule="evenodd"
         stroke="none"
         id="path3" />
      <path
         d="M 0.25,19.45 H 9.7 19.3 L 18.7,28.6 16,28.5 10.95,27.95 9.7,27.8 Q 7.45,27.6 5.85,27.75 4.05,27.9 1.5,28.6 0.75,28.8 0.25,29.15 v -9.7 m 9.45,0 v 8.35 -8.35"
         fill="#121212"
         fill-rule="evenodd"
         stroke="none"
         id="path4" />
      <path
         d="m 9.7,27.8 1.25,0.15 5.05,0.55 2.7,0.1 h 1.05 l 3.75,0.15 q 2.45,0.3 3.6,1.25 0.6,0.5 0.6,1.1 0,0.65 -0.8,1 l -1.3,0.2 -7.15,0.15 -5.6,-0.3 L 9.7,31.75 7.95,31.6 3.1,31.95 0.95,32.3 0.25,32.1 -0.35,31.55 -0.5,31.3 V 29.9 L 0.25,29.15 Q 0.75,28.8 1.5,28.6 4.05,27.9 5.85,27.75 7.45,27.6 9.7,27.8 v 3.95 -3.95"
         fill="#999999"
         fill-rule="evenodd"
         stroke="none"
         id="path5" />
      <path
         d="M 2.8,0 H 0.25 M 9.7,0 H 5.4 m 16.15,0 h 10.7 M 20.55,0 H 9.7"
         fill="none"
         stroke="#666666"
         stroke-linecap="round"
         stroke-linejoin="round"
         stroke-width="4"
         id="path6" />
      <path
         d="m 9.7,-0.4 h 65 V 40.5 H 47.05 L 45.5,40.7 27,40.65 25.95,40.5 H 9.7 -0.5 V -0.4 H 9.7 V 40.5 -0.4"
         fill="#ffffff"
         fill-rule="evenodd"
         stroke="none"
         id="path7" />
    </g>
    <g
       id="shape1"
       transform="translate(1.3,-0.7)">
      <path
         d="m 66.85,15.85 q 1.3,1.15 2.15,2.8 l 0.8,1 1.75,2.4 1.1,2.3 q 0.9,1.65 0.65,2.6 -0.2,0.75 -0.95,1.15 l -0.95,0.25 -1.45,0.15 -0.7,2.35 q -0.7,2 -1.65,3.2 -1.95,2.45 -5.75,3.65 -1.8,0.65 -3.5,0.7 -2.1,0.2 -4.7,-0.55 -2.15,-0.65 -3.8,-1.7 L 46.8,40.8 H 25.5 q -0.05,-0.35 0.05,-0.75 0.3,-0.95 1.8,-2.05 L 27.6,37.8 Q 31.7,35.05 40.35,30 l -1.7,0.15 -3.6,0.4 q -4.1,0.65 -7.7,2.95 l -1.25,0.85 q -1.3,1 -1.95,1.15 Q 22.5,36 21.3,34.6 20.8,34 20.75,33.15 q -0.1,-0.8 0.25,-1.5 0.6,-1.1 2.35,-1.95 2,-1.05 4,-1.75 3.4,-1.25 6.7,-1.45 h 3.3 l 3.6,0.3 3.55,0.85 0.35,-0.2 v -0.1 q -0.3,-4.95 2.5,-9.15 1.3,-1.9 3.05,-3.05 1.1,-0.7 2.7,-1.15 L 53.55,13 55.4,9.25 55.95,8.4 q 0.45,-0.5 1.2,-0.65 0.95,-0.15 1.8,0.5 l 1.4,1.35 1.2,1.55 1.25,2.55 q 2.3,0.6 4.05,2.15 m 1.55,12.9 Q 68.35,28.1 67.9,27.3 l -0.25,-0.4 -0.5,0.05 -3.8,-0.4 -0.5,-0.15 q -0.7,0.55 -1.05,1.6 -0.3,0.95 -0.05,2 0.3,1 1.1,1.65 l 0.75,0.45 2.05,0.15 1.8,-1.05 q 1.1,-1.1 0.95,-2.45 M 56.8,30.9 h 0.05 l 0.1,0.4 0.45,1 q 0.5,0.5 1.2,0.5 l 1.3,-0.15 q 0.65,-0.15 1.05,-0.5 l 0.4,-0.7 q 0.3,-0.7 -0.15,-1.05 l -1.05,0.05 -0.95,0.7 H 58.85 L 58.7,30.8 58.55,29.7 58.05,29.25 58,29.2 q -0.5,-0.4 -1.1,-0.25 l -0.75,0.1 q -0.5,-0.15 -0.4,-0.95 l 0.3,-1.1 0.1,-0.35 -0.3,-0.4 H 55.3 q -0.7,0.2 -1.1,0.9 -0.4,0.65 -0.45,1.45 -0.1,0.85 0.3,1.35 0.3,0.35 1.2,0.65 l 1.55,0.3 m 1.4,-7.5 0.15,-0.35 q -1.1,-1.25 -1.65,-2.4 -0.6,-1.25 -0.45,-2.4 -0.9,-0.3 -1.9,0 -1,0.3 -1.7,1.05 l -0.2,0.3 q -1.2,1.55 -0.5,3.3 0.3,0.8 1,1.4 0.75,0.55 1.6,0.65 l 0.9,0.05 q 1.25,-0.15 2,-0.75 L 58.2,23.4 M 27.7,2.5 h 0.6 l 0.5,0.05 h 0.25 0.2 l 0.1,0.05 h 0.1 l 0.15,0.05 0.1,0.05 0.15,0.05 0.1,0.05 0.05,0.1 0.1,0.05 0.05,0.05 0.1,0.05 0.15,0.15 0.05,0.1 0.05,0.05 0.1,0.1 V 3.5 l 0.05,0.05 0.05,0.05 v 0.1 l 0.05,0.05 V 3.8 l 0.05,0.05 v 0.1 0.1 L 30.85,4.1 V 4.35 4.45 4.7 L 30.8,4.75 v 0.1 0.05 l -0.05,0.05 v 0.1 L 30.7,5.1 30.65,5.2 v 0.05 l -0.1,0.1 V 5.4 L 30.45,5.5 30.4,5.6 30.35,5.65 30.3,5.7 30.25,5.75 30.15,5.8 30.05,5.85 30,5.9 29.9,6 29.8,6.05 29.65,6.1 29.6,6.15 h -0.1 -0.05 l -0.1,0.05 h -0.1 V 6.25 H 28.8 28.25 27.7 27.35 26.7 L 26.05,6.2 H 26 V 6.15 H 25.9 25.8 L 25.75,6.1 h -0.1 -0.1 l -1,-0.05 h -0.4 L 23.7,6 H 23.35 L 23.25,5.95 H 23.2 L 23.1,5.9 H 23 22.2 L 21.75,5.85 H 21.5 L 21.35,5.8 h -0.1 L 21,5.75 h -0.35 -0.1 -0.8 -0.15 V 5.7 H 19.45 L 19.25,5.65 H 19.2 19.1 L 19,5.6 H 18.95 18.6 L 18.1,5.55 H 17.85 L 17.7,5.5 H 17.45 17.3 L 17.15,5.45 H 17 L 16.9,5.4 h -0.3 -0.05 l -0.1,-0.05 h -0.1 L 16.2,5.3 16,5.25 H 15.85 V 5.2 H 15.75 15.6 L 15.45,5.15 H 15.4 L 14.85,5.1 H 14.6 L 14.55,5.05 h -0.1 L 14.35,5 H 14.3 14.1 13.8 L 13.6,4.95 13.45,4.9 13.4,4.85 13.35,4.75 13.3,4.7 13.25,4.65 13.2,4.6 V 4.45 4.35 4.2 L 13.25,4.15 13.3,4.1 V 4.05 l 0.1,-0.1 0.05,-0.05 0.1,-0.05 0.1,-0.05 h 0.15 0.3 0.2 L 14.4,3.75 14.55,3.7 h 0.05 0.15 L 15,3.65 h 0.4 L 15.6,3.6 h 0.05 0.1 l 0.1,-0.05 H 15.9 16 L 16.05,3.5 h 0.15 l 0.1,-0.05 h 0.05 0.1 L 16.5,3.4 h 0.1 0.1 L 16.9,3.35 H 17 L 17.2,3.3 h 0.2 0.15 L 17.7,3.25 h 0.35 L 18.3,3.2 h 0.3 0.35 l 0.1,-0.05 h 0.1 0.05 L 19.3,3.1 h 0.15 L 19.6,3.05 H 19.75 20 20.35 20.9 L 21.1,3 h 0.2 l 0.2,-0.05 h 0.1 0.1 L 21.95,2.9 h 0.25 0.85 L 23.1,2.85 h 0.1 L 23.25,2.8 h 0.1 0.25 L 23.95,2.75 H 24.4 L 24.75,2.7 h 0.8 0.1 l 0.1,-0.05 h 0.1 l 0.1,-0.05 h 0.1 L 26.3,2.55 h 0.65 0.5 0.25 V 2.5 m -2.1,3.75 h 0.85 L 26.8,6.3 h 0.1 L 27,6.35 h 0.1 l 0.1,0.05 0.2,0.1 0.1,0.05 0.1,0.05 0.15,0.05 0.1,0.05 0.1,0.15 0.1,0.05 0.25,0.25 0.05,0.1 0.05,0.1 0.05,0.05 v 0.05 l 0.15,0.15 0.05,0.05 v 0.1 L 28.7,7.8 v 0.1 l 0.1,0.05 V 8 l 0.05,0.05 v 0.1 0.1 0.05 L 28.9,8.35 V 8.6 l -0.05,0.15 v 0.1 L 28.8,8.9 V 9.05 L 28.7,9.15 28.65,9.2 V 9.3 L 28.6,9.35 V 9.4 l -0.15,0.15 -0.05,0.1 -0.1,0.1 v 0.1 L 28.15,9.9 28.1,9.95 28.05,10 28,10.15 l -0.15,0.05 -0.05,0.05 -0.1,0.05 -0.15,0.1 -0.1,0.05 -0.2,0.1 H 27.2 L 27.1,10.6 H 27 26.9 l -0.1,0.1 H 26.45 25.3 25.15 l 0.05,0.05 0.1,0.05 0.1,0.05 v 0.1 l 0.1,0.1 0.05,0.1 0.05,0.1 v 0.05 l 0.1,0.05 0.05,0.05 v 0.1 l 0.05,0.05 v 0.1 l 0.05,0.05 v 0.1 l 0.1,0.05 v 0.2 l 0.05,0.1 v 0.3 0.1 0.35 l -0.05,0.05 v 0.1 0.15 l -0.1,0.05 v 0.05 l -0.05,0.05 v 0.1 l -0.05,0.1 -0.05,0.05 v 0.05 l -0.1,0.1 v 0.05 l -0.05,0.05 -0.05,0.15 -0.2,0.15 -0.05,0.05 -0.05,0.1 -0.05,0.05 -0.15,0.1 -0.05,0.1 -0.1,0.05 -0.15,0.05 -0.1,0.05 -0.05,0.05 -0.2,0.1 -0.1,0.1 h -0.2 L 24,15 h -0.05 l -0.15,0.05 h -0.2 q -0.05,0 -0.15,0.1 h -0.9 l 0.05,0.05 0.1,0.05 0.1,0.05 0.05,0.1 0.05,0.05 0.05,0.05 0.05,0.1 v 0.1 l 0.15,0.1 v 0.05 l 0.05,0.1 v 0.1 0.05 l 0.05,0.05 v 0.1 l 0.05,0.05 v 0.1 0.15 0.3 L 23.25,16.9 V 17 l -0.05,0.1 v 0.1 l -0.05,0.05 v 0.1 L 23.1,17.4 23,17.5 v 0.05 l -0.05,0.1 -0.15,0.15 -0.1,0.15 -0.1,0.05 -0.05,0.05 -0.15,0.05 -0.05,0.1 -0.1,0.05 -0.15,0.05 -0.1,0.15 -0.15,0.05 -0.15,0.05 -0.2,0.05 -0.2,0.05 -0.1,0.1 -0.2,0.05 -0.15,0.1 h -0.2 l -0.2,0.05 -0.4,0.1 H 19.7 18.55 17.75 17.4 l -0.1,-0.1 h -0.15 l -0.2,-0.05 h -0.3 -0.25 l -0.05,-0.05 h -0.2 L 16.1,18.8 h -0.05 -0.1 L 15.8,18.75 H 15.75 15.6 L 15.55,18.65 15.4,18.6 H 15.25 L 15.1,18.55 14.9,18.5 H 14.7 14.6 L 14.45,18.45 H 14.3 14.15 L 14,18.35 13.85,18.3 H 13.8 L 13.6,18.25 H 13.55 L 13.45,18.2 H 13.4 l -0.25,-0.1 h -0.2 L 12.85,18.05 12.6,18 12.4,17.95 h -0.05 -0.1 l -0.2,-0.05 h -0.1 L 11.6,17.8 H 11.3 L 11.15,17.7 H 11 l -0.05,-0.05 h -0.4 -0.5 L 10,17.55 H 9.85 L 7.95,17.5 H 7.25 6.85 V 17.45 H 6.45 V 17.4 H 6.05 5.8 V 17.35 H 5.55 5.4 L 4.75,17.25 4.65,17.2 H 3.5 L 3.4,17.15 2.9,17.1 H 2.75 L 2.6,17 H 2.45 L 2.3,16.95 2.25,16.9 2.1,16.85 2.05,16.7 2,16.65 V 16.5 L 2.05,16.4 2.1,16.3 2.25,16.25 H 2.3 L 2.4,16.15 2.55,16.1 H 2.6 L 2.75,16.05 H 2.9 3.4 L 3.5,16 H 3.55 L 3.7,15.95 h 0.95 0.1 l 0.2,-0.1 h 0.6 L 5.7,15.8 h 0.1 0.15 l 0.1,-0.05 h 0.3 0.1 0.2 L 6.85,15.7 H 7.1 l 0.15,-0.1 h 0.9 1.7 L 10,15.55 h 0.25 L 10.7,15.5 H 11 l 0.2,-0.05 0.2,-0.05 0.2,-0.1 h 0.15 0.2 l 0.1,-0.05 h 0.2 l 0.1,-0.05 h 0.2 l 0.1,-0.05 h 0.1 l 0.1,-0.1 H 12.9 L 13,15 h 0.15 0.25 l 0.15,-0.05 0.15,-0.05 0.1,-0.05 H 13.85 14 l 0.1,-0.1 h 0.15 l 0.1,-0.05 h 0.25 0.1 l 0.15,-0.05 h 0.1 0.15 l 0.15,-0.05 0.15,-0.05 h -0.1 l -0.2,-0.1 H 15 14.15 L 14.1,14.4 H 13.95 L 13.7,14.35 H 13.3 12.65 L 12.6,14.3 h -0.3 l -0.15,-0.1 h -0.1 l -0.6,-0.05 H 10.95 10.9 10.7 10.4 10.25 9.3 L 8.3,14.1 H 8.25 L 7.75,14.05 H 7.7 7.15 L 6.9,14 H 6.35 L 6.15,13.9 H 6.05 L 5.8,13.85 H 5.7 5.4 L 5.25,13.8 H 5.1 L 4.95,13.75 H 4.9 4.7 L 4.65,13.65 H 4.55 4.35 L 4.25,13.6 H 4.05 L 3.95,13.55 H 3.85 L 3.8,13.5 H 3.7 V 13.45 H 3.5 L 3.3,13.35 H 3.1 L 2.85,13.3 2.7,13.25 2.6,13.2 2.4,13.1 H 2.25 2.1 2 1.85 L 1.6,13.05 H 1.55 1.1 L 0.85,13 H 0.25 L 0,12.95 -0.2,12.9 h -0.3 -0.1 l -0.15,-0.15 -0.1,-0.1 v -0.2 -0.1 l 0.05,-0.1 V 12.2 l 0.1,-0.05 0.1,-0.05 h 0.05 L -0.5,12.05 H -0.2 0 0.05 0.25 L 0.9,11.95 H 1.1 1.6 L 1.7,11.9 H 1.85 2 2.1 L 2.25,11.85 H 2.4 L 2.65,11.8 2.75,11.7 2.9,11.65 H 3.1 3.2 L 3.4,11.6 H 3.5 L 3.55,11.55 H 3.7 L 3.85,11.5 h 0.1 l 0.1,-0.1 h 0.2 l 0.1,-0.05 H 4.45 4.6 L 4.7,11.3 H 4.85 L 4.9,11.25 H 5 5.2 l 0.1,-0.1 H 5.45 5.7 L 6.05,11.1 H 6.1 L 6.25,11.05 H 6.35 6.6 L 7.1,11 h 0.3 l 0.35,-0.05 h 0.3 0.25 l 0.25,-0.1 h 0.2 0.4 0.45 0.7 0.1 0.3 0.2 0.1 l 0.75,-0.05 h 0.3 l 0.05,-0.05 h 0.05 0.15 l 0.3,-0.05 h 0.3 0.4 l 0.4,-0.1 H 14 l 0.15,-0.05 h 0.3 0.55 l 0.15,-0.05 h 0.1 l 0.15,-0.05 h 0.05 L 15.6,10.4 h 0.15 l 0.05,-0.1 h 0.15 L 16,10.25 h 0.15 0.2 0.05 V 10.2 H 16.1 L 15.8,10.15 H 15.6 15.5 V 10.1 H 15.3 L 15.1,10 H 14.9 L 14.4,9.95 H 13.85 L 13.55,9.9 H 13.4 V 9.85 H 13.15 L 12.7,9.75 H 12.3 L 12,9.7 H 11.8 11.6 11.25 L 10.95,9.65 10.85,9.6 H 10.7 L 10.55,9.55 h -0.1 -0.1 l -0.1,-0.1 h -0.2 -0.1 L 9.6,9.4 9.15,9.35 H 8.9 8.35 8.05 L 7.75,9.3 H 7.5 V 9.2 H 7.4 7.3 L 7.2,9.15 H 7.1 L 6.9,9.1 H 6.35 L 6.25,9.05 H 6.05 5.85 5.55 5.4 L 5.15,9 4.6,8.9 H 4.55 L 4.25,8.85 H 4.15 L 4,8.8 3.85,8.75 3.8,8.65 V 8.6 L 3.75,8.55 V 8.45 8.35 L 3.8,8.3 V 8.25 L 3.85,8.2 3.95,8.15 4.05,8.05 h 0.1 L 4.35,8 4.45,7.95 H 4.6 4.75 L 5.15,8 5.25,7.95 h 0.15 0.15 0.4 0.1 L 6.25,7.9 h 0.2 L 7.15,7.8 7.25,7.75 H 7.4 L 7.5,7.7 H 7.6 L 7.75,7.65 h 0.5 0.3 0.15 0.45 L 9.6,7.6 h 0.15 l 0.2,-0.1 h 0.1 0.05 l 0.25,-0.05 h 0.05 0.15 L 10.75,7.4 10.9,7.35 H 11 l 0.1,-0.1 h 0.15 0.15 L 11.6,7.2 h 0.2 0.2 0.3 l 0.4,-0.05 h 0.45 0.1 L 13.4,7.1 h 0.1 l 0.1,-0.05 h 0.25 0.55 q 0.05,-0.1 0.2,-0.1 H 14.9 15 L 15.2,6.9 h 0.1 l 0.2,-0.05 h 0.1 0.2 L 16.1,6.8 h 0.05 L 16.4,6.7 h 0.2 0.15 L 16.9,6.65 h 0.1 0.15 l 0.1,-0.05 h 0.3 l 0.2,-0.05 h 0.3 0.25 0.25 0.7 l 0.5,-0.05 h 0.55 l 0.25,-0.1 h 0.6 0.3 l 0.3,-0.05 h 0.5 0.65 L 23.5,6.3 h 0.6 1.5 V 6.25"
         fill="#999999"
         fill-rule="evenodd"
         stroke="none"
         id="path8" />
      <path
         d="m 58.2,23.4 -0.75,0.85 q -0.75,0.6 -2,0.75 l -0.9,-0.05 q -0.85,-0.1 -1.6,-0.65 -0.7,-0.6 -1,-1.4 -0.7,-1.75 0.5,-3.3 l 0.2,-0.3 q 0.7,-0.75 1.7,-1.05 1,-0.3 1.9,0 -0.15,1.15 0.45,2.4 0.55,1.15 1.65,2.4 L 58.2,23.4 m -1.4,7.5 -1.55,-0.3 q -0.9,-0.3 -1.2,-0.65 -0.4,-0.5 -0.3,-1.35 0.05,-0.8 0.45,-1.45 0.4,-0.7 1.1,-0.9 h 0.55 l 0.3,0.4 -0.1,0.35 -0.3,1.1 q -0.1,0.8 0.4,0.95 l 0.75,-0.1 Q 57.5,28.8 58,29.2 l 0.05,0.05 0.5,0.45 0.15,1.1 0.15,0.35 h 0.35 l 0.95,-0.7 1.05,-0.05 q 0.45,0.35 0.15,1.05 l -0.4,0.7 q -0.4,0.35 -1.05,0.5 l -1.3,0.15 q -0.7,0 -1.2,-0.5 l -0.45,-1 -0.1,-0.4 H 56.8 m 11.6,-2.15 q 0.15,1.35 -0.95,2.45 L 65.65,32.25 63.6,32.1 62.85,31.65 Q 62.05,31 61.75,30 61.5,28.95 61.8,28 q 0.35,-1.05 1.05,-1.6 l 0.5,0.15 3.8,0.4 0.5,-0.05 0.25,0.4 q 0.45,0.8 0.5,1.45"
         fill="#ffffff"
         fill-rule="evenodd"
         stroke="none"
         id="path9" />
      <path
         d="m 38.85,8.85 q 1.3,1.15 2.15,2.8 l 0.8,1 1.75,2.4 1.1,2.3 q 0.9,1.65 0.65,2.6 -0.2,0.75 -0.95,1.15 l -0.95,0.25 -1.45,0.15 -0.7,2.35 q -0.7,2 -1.65,3.2 -1.95,2.45 -5.75,3.65 -1.8,0.65 -3.5,0.7 -2.1,0.2 -4.7,-0.55 -2.15,-0.65 -3.8,-1.7 l -3.95,5.95 -3.2,4.7 -0.8,1 H 9.95 Q 9.55,40.2 9.55,39.45 8.75,39.4 7.85,40 l -1,0.8 H -1.05 -1.1 V 38.05 L -1.05,38 -1.1,37.9 q -0.4,-0.95 0,-1.9 l 0.05,-0.15 H -1.1 v -4.5 L -0.65,31 -0.4,30.8 Q 3.7,28.05 12.35,23 l -1.7,0.15 -3.6,0.4 q -4.1,0.65 -7.7,2.95 l -0.45,0.3 v -5.7 l 0.45,-0.15 q 3.4,-1.25 6.7,-1.45 h 3.3 l 3.6,0.3 3.55,0.85 0.35,-0.2 v -0.1 Q 16.55,15.4 19.35,11.2 20.65,9.3 22.4,8.15 23.5,7.45 25.1,7 L 25.55,6 27.4,2.25 q 0.3,-0.6 0.55,-0.85 0.45,-0.5 1.2,-0.65 0.95,-0.15 1.8,0.5 l 1.4,1.35 1.2,1.55 1.25,2.55 q 2.3,0.6 4.05,2.15 m 1.55,12.9 Q 40.35,21.1 39.9,20.3 l -0.25,-0.4 -0.5,0.05 -3.8,-0.4 -0.5,-0.15 q -0.7,0.55 -1.05,1.6 -0.3,0.95 -0.05,2 0.3,1 1.1,1.65 l 0.75,0.45 2.05,0.15 Q 38.7,25 39.45,24.2 40.55,23.1 40.4,21.75 M 28.8,23.9 h 0.05 l 0.1,0.4 0.45,1 q 0.5,0.5 1.2,0.5 l 1.3,-0.15 1.05,-0.5 0.4,-0.7 q 0.3,-0.7 -0.15,-1.05 l -1.05,0.05 -0.95,0.7 H 30.85 Q 30.7,24.1 30.7,23.8 L 30.55,22.7 30.05,22.25 30,22.2 q -0.5,-0.4 -1.1,-0.25 l -0.75,0.1 q -0.5,-0.15 -0.4,-0.95 l 0.3,-1.1 0.1,-0.35 -0.3,-0.4 H 27.3 q -0.7,0.2 -1.1,0.9 -0.4,0.65 -0.45,1.45 -0.1,0.85 0.3,1.35 l 1.2,0.65 1.55,0.3 m 1.4,-7.5 0.15,-0.35 q -1.1,-1.25 -1.65,-2.4 -0.6,-1.25 -0.45,-2.4 -0.9,-0.3 -1.9,0 -1,0.3 -1.7,1.05 l -0.2,0.3 q -1.2,1.55 -0.5,3.3 0.3,0.8 1,1.4 0.75,0.55 1.6,0.65 l 0.9,0.05 q 1.25,-0.15 2,-0.75 L 30.2,16.4"
         fill="#000000"
         fill-rule="evenodd"
         stroke="none"
         id="path10" />
      <path
         d="m 30.2,16.4 -0.75,0.85 q -0.75,0.6 -2,0.75 l -0.9,-0.05 q -0.85,-0.1 -1.6,-0.65 -0.7,-0.6 -1,-1.4 -0.7,-1.75 0.5,-3.3 l 0.2,-0.3 q 0.7,-0.75 1.7,-1.05 1,-0.3 1.9,0 -0.15,1.15 0.45,2.4 0.55,1.15 1.65,2.4 L 30.2,16.4 m -1.4,7.5 -1.55,-0.3 -1.2,-0.65 q -0.4,-0.5 -0.3,-1.35 0.05,-0.8 0.45,-1.45 0.4,-0.7 1.1,-0.9 h 0.55 l 0.3,0.4 -0.1,0.35 -0.3,1.1 q -0.1,0.8 0.4,0.95 l 0.75,-0.1 Q 29.5,21.8 30,22.2 l 0.05,0.05 0.5,0.45 0.15,1.1 q 0,0.3 0.15,0.35 h 0.35 l 0.95,-0.7 1.05,-0.05 q 0.45,0.35 0.15,1.05 l -0.4,0.7 -1.05,0.5 -1.3,0.15 q -0.7,0 -1.2,-0.5 l -0.45,-1 -0.1,-0.4 H 28.8 m 11.6,-2.15 q 0.15,1.35 -0.95,2.45 -0.75,0.8 -1.8,1.05 L 35.6,25.1 34.85,24.65 Q 34.05,24 33.75,23 33.5,21.95 33.8,21 q 0.35,-1.05 1.05,-1.6 l 0.5,0.15 3.8,0.4 0.5,-0.05 0.25,0.4 q 0.45,0.8 0.5,1.45"
         fill="#ffffff"
         fill-rule="evenodd"
         stroke="none"
         id="path11" />
    </g>
    <g
       id="shape2"
       transform="translate(2,2.05)">
      <path
         d="M -0.5,-0.4 V -0.55 H 75.1 V -0.4 40.8 H -0.5 Z"
         fill="none"
         stroke="#000000"
         stroke-linecap="round"
         stroke-linejoin="round"
         stroke-width="3"
         id="path12" />
    </g>
  </defs>
</svg>
