<?xml version="1.0" encoding="UTF-8" standalone="no"?>
<svg
   ffdec:objectType="frame"
   height="44.349998"
   width="78.599998"
   version="1.1"
   id="svg11"
   sodipodi:docname="273.svg"
   xmlns:inkscape="http://www.inkscape.org/namespaces/inkscape"
   xmlns:sodipodi="http://sodipodi.sourceforge.net/DTD/sodipodi-0.dtd"
   xmlns:xlink="http://www.w3.org/1999/xlink"
   xmlns="http://www.w3.org/2000/svg"
   xmlns:svg="http://www.w3.org/2000/svg"
   xmlns:ffdec="https://www.free-decompiler.com/flash">
  <sodipodi:namedview
     id="namedview11"
     pagecolor="#ffffff"
     bordercolor="#000000"
     borderopacity="0.25"
     inkscape:showpageshadow="2"
     inkscape:pageopacity="0.0"
     inkscape:pagecheckerboard="0"
     inkscape:deskcolor="#d1d1d1"
     fit-margin-top="5"
     fit-margin-left="5"
     fit-margin-right="5"
     fit-margin-bottom="5" />
  <g
     transform="translate(2,2.05)"
     id="g3">
    <use
       ffdec:characterId="1"
       height="42.700001"
       transform="translate(-1.75,-2)"
       width="76.449997"
       xlink:href="#shape0"
       id="use1" />
    <use
       ffdec:characterId="267"
       height="43.349998"
       transform="translate(0.1,-1.95)"
       width="74.949997"
       xlink:href="#shape1"
       id="use2" />
    <use
       ffdec:characterId="3"
       height="44.349998"
       transform="translate(-2,-2.05)"
       width="78.599998"
       xlink:href="#shape2"
       id="use3" />
  </g>
  <defs
     id="defs11">
    <g
       id="shape0"
       transform="translate(1.75,2)">
      <path
         d="M 2.8,0 V -0.4 H 5.4 V 0 H 9.7 V 19.45 0 H 20.55 L 19.3,19.45 H 9.7 0.25 V 0 H 2.8"
         fill="#ffffff"
         fill-rule="evenodd"
         stroke="none"
         id="path3" />
      <path
         d="M 0.25,19.45 H 9.7 19.3 L 18.7,28.6 16,28.5 10.95,27.95 9.7,27.8 Q 7.45,27.6 5.85,27.75 4.05,27.9 1.5,28.6 0.75,28.8 0.25,29.15 v -9.7 m 9.45,0 v 8.35 -8.35"
         fill="#121212"
         fill-rule="evenodd"
         stroke="none"
         id="path4" />
      <path
         d="m 9.7,27.8 1.25,0.15 5.05,0.55 2.7,0.1 h 1.05 l 3.75,0.15 q 2.45,0.3 3.6,1.25 0.6,0.5 0.6,1.1 0,0.65 -0.8,1 l -1.3,0.2 -7.15,0.15 -5.6,-0.3 L 9.7,31.75 7.95,31.6 3.1,31.95 0.95,32.3 0.25,32.1 -0.35,31.55 -0.5,31.3 V 29.9 L 0.25,29.15 Q 0.75,28.8 1.5,28.6 4.05,27.9 5.85,27.75 7.45,27.6 9.7,27.8 v 3.95 -3.95"
         fill="#999999"
         fill-rule="evenodd"
         stroke="none"
         id="path5" />
      <path
         d="M 2.8,0 H 0.25 M 9.7,0 H 5.4 m 16.15,0 h 10.7 M 20.55,0 H 9.7"
         fill="none"
         stroke="#666666"
         stroke-linecap="round"
         stroke-linejoin="round"
         stroke-width="4"
         id="path6" />
      <path
         d="m 9.7,-0.4 h 65 V 40.5 H 47.05 L 45.5,40.7 27,40.65 25.95,40.5 H 9.7 -0.5 V -0.4 H 9.7 V 40.5 -0.4"
         fill="#ffffff"
         fill-rule="evenodd"
         stroke="none"
         id="path7" />
    </g>
    <g
       id="shape1"
       transform="translate(-0.1,1.95)">
      <path
         d="M 12.5,35.3 9.95,35.05 Q 8,34.45 6.55,32.8 4.9,30.8 4.95,28.4 l 0.2,-1.3 -1.65,0.3 q -0.15,0.8 0.3,2.95 l 0.35,3.2 q 0,1.2 -0.45,1.7 -0.45,0.5 -1.75,0.7 l -1.55,0.4 -0.3,0.1 v -3.2 L 1.1,32.9 0.85,30.3 Q 0.6,28.65 0.75,27.7 L 0.9,26.3 Q 1,25.8 1.5,25.55 L 2.7,25.4 5.1,25.2 5.9,25.1 6.15,24.55 Q 6.9,23.3 8,22.4 8.3,20.35 8.95,17.6 L 5.35,18 3.8,17.65 Q 3,17 3.55,15.3 L 3.8,14.65 H 3.6 l -3.5,0.7 v -2.1 L 1.8,12.5 2.65,12.25 3.7,11.8 4.4,11.4 5.1,11.3 H 5.15 L 6.7,8.65 3.4,5.6 0.1,3 v -4.6 l 0.25,-0.05 q 0.8,-0.05 1.6,0.55 L 3.3,0.1 5.95,2.7 9.2,5.65 q 1.65,1.55 1.6,2.75 0,0.7 -1.1,2.25 -1.25,1.6 -2.35,3.85 l 3,-0.1 q 1.05,0.25 1.3,0.55 0.4,0.6 0,1.95 l -1.4,4.2 q 0.95,-0.4 2,-0.45 1.9,-0.15 3.7,0.7 L 16,21.4 v -0.05 q -0.85,-3.6 -1.85,-5.9 -0.65,-1.6 -0.15,-2.3 0.65,-0.8 1.75,-0.35 l 1.55,1.05 1.6,0.95 1.05,-2.6 0.4,-1.45 Q 20.3,10.25 19.55,9.4 L 17.1,6.5 Q 16.3,5.6 16.15,5.05 15.8,3.85 17,2.05 17.9,0.7 18.95,-0.5 l 1.65,-1.35 q 1.1,-0.35 1.95,0.4 0.9,0.8 0.65,1.95 -0.15,0.8 -1.3,1.85 l -1.65,1.6 -0.35,0.5 Q 19.8,4.9 20.3,5.4 l 2.9,3.95 q 0.6,1 0.6,1.6 0,0.65 -0.6,1.65 -0.6,1.1 -1.1,2.65 l -0.75,1.85 q -0.6,1.05 -1.6,1.1 -0.55,0.05 -1.4,-0.45 l -1.4,-0.7 0.8,5.6 0.95,1.15 0.55,0.85 0.95,-1.2 3.2,-4.2 0.5,-0.9 0.35,-0.7 q 0.4,-0.5 1.1,-0.4 l 1.1,0.3 1.1,0.45 0.5,0.1 0.65,-0.2 0.6,-0.55 q 0.9,-0.8 2.05,-1.1 1.05,-0.2 1.4,0.35 0.25,0.4 0,0.95 l -0.6,0.8 -2.05,2.05 -1.15,0.75 -1.3,-0.3 -1.55,-0.8 -0.5,-0.1 -0.35,0.3 -1.4,1.75 -3.7,4.25 0.7,1.45 q 0.25,1 0,2.3 l -0.75,1.85 0.05,0.1 0.55,1.05 1.1,1.85 1.2,-0.75 q 0.85,-0.2 1.3,0.35 l 0.45,0.7 0.5,0.6 0.45,0.6 0.35,1.2 1.45,1.9 q 0.4,0.4 0.4,0.75 l -0.1,0.4 -0.3,0.2 -0.35,-0.1 -2.1,-1.4 -0.8,-0.85 -0.35,-0.75 -0.55,-0.6 -0.85,0.75 -0.9,0.6 q -0.85,0.25 -1.4,-0.4 l -0.6,-1.15 -1,-1.9 -0.75,-1.2 -2.5,1.05 v 0.05 l 0.15,0.85 q 0.2,1.15 0.05,2.5 -0.2,0.85 -0.6,1.1 L 14.4,39.5 h -0.6 l -3.35,0.9 Q 10,40.55 9.1,41.05 L 8.05,41.4 7.6,41.1 7.5,40.55 Q 7.55,40.3 7.85,40 q 0.8,-0.8 1.3,-1.05 l 0.9,-0.4 2.9,-0.95 0.2,-0.1 v -0.1 l -0.4,-2.1 H 12.5 m 49.8,-6.7 -0.15,-0.85 q -0.45,-0.9 -1.4,-1.35 -0.95,-0.5 -1.9,-0.3 l -0.3,0.1 -0.15,0.5 q -0.05,1 -0.7,1.95 0.75,0.7 2.75,1 l 1,-0.05 0.5,-0.45 0.35,-0.55 m -1.7,6.7 h -0.25 l -0.4,2.1 v 0.1 l 0.2,0.1 2.9,0.95 0.9,0.4 1.3,1.05 0.35,0.55 -0.1,0.55 -0.45,0.3 Q 64.65,41.5 64,41.05 63.1,40.55 62.65,40.4 L 59.3,39.5 h -0.6 l -0.55,-0.15 q -0.4,-0.25 -0.6,-1.1 -0.15,-1.35 0.05,-2.5 l 0.15,-0.85 v -0.05 l -2.5,-1.05 -0.75,1.2 -1,1.9 -0.6,1.15 q -0.55,0.65 -1.4,0.4 l -0.9,-0.6 -0.85,-0.75 -0.55,0.6 -0.35,0.75 -0.8,0.85 -2.1,1.4 -0.35,0.1 -0.3,-0.2 -0.1,-0.4 q 0,-0.35 0.4,-0.75 l 1.45,-1.9 0.35,-1.2 0.45,-0.6 0.5,-0.6 0.45,-0.7 q 0.45,-0.55 1.3,-0.35 0.55,0.2 1.2,0.75 L 52.4,33 52.95,31.95 53,31.85 Q 52.45,31.05 52.25,30 52,28.7 52.25,27.7 l 0.7,-1.45 -3.7,-4.25 -1.4,-1.75 -0.35,-0.3 -0.5,0.1 -1.55,0.8 -1.3,0.3 Q 43.7,21.1 43,20.4 l -2.05,-2.05 -0.6,-0.8 q -0.25,-0.55 0,-0.95 0.35,-0.55 1.4,-0.35 1.15,0.3 2.05,1.1 l 0.6,0.55 0.65,0.2 0.5,-0.1 1.1,-0.45 1.1,-0.3 q 0.7,-0.1 1.1,0.4 l 0.35,0.7 0.5,0.9 q 1.25,1.9 3.2,4.2 l 0.95,1.2 0.55,-0.85 0.95,-1.15 0.8,-5.6 -1.4,0.7 -1.4,0.45 q -1,-0.05 -1.6,-1.1 Q 51.4,16.55 51,15.25 L 49.9,12.6 q -0.6,-1 -0.6,-1.65 0,-0.6 0.6,-1.6 L 52.8,5.4 Q 53.3,4.9 53.2,4.45 L 52.85,3.95 51.2,2.35 Q 50.05,1.3 49.9,0.5 q -0.25,-1.15 0.65,-1.95 0.85,-0.75 1.95,-0.4 0.75,0.3 1.65,1.35 l 1.95,2.55 q 1.2,1.8 0.85,3 L 56,6.5 53.55,9.4 q -0.75,0.85 -0.8,1.35 -0.05,0.45 0.4,1.45 l 1.05,2.6 q 0.8,-0.15 1.6,-0.95 1.15,-0.9 1.55,-1.05 1.1,-0.45 1.75,0.35 0.5,0.7 -0.15,2.3 -1,2.3 -1.85,5.9 v 0.05 l 0.05,-0.05 q 1.8,-0.85 3.7,-0.7 l 2,0.45 -1.4,-4.2 q -0.4,-1.35 0,-1.95 0.25,-0.3 1.3,-0.55 l 3,0.1 Q 64.65,12.25 63.4,10.65 62.3,9.1 62.3,8.4 62.25,7.2 63.9,5.65 L 67.15,2.7 69.8,0.1 q 0.9,-0.9 1.35,-1.2 0.8,-0.6 1.6,-0.55 0.8,0 1.4,0.65 0.6,0.65 0.55,1.45 -0.05,1 -1.5,2.35 l -3.5,2.8 q -2.2,1.7 -3.3,3.05 l 1.55,2.65 H 68 l 0.7,0.1 0.7,0.4 1.05,0.45 0.85,0.25 2.35,1.05 1.4,0.75 v 1.55 l -1.9,-0.5 -3.65,-0.7 h -0.2 l 0.25,0.65 Q 70.1,17 69.3,17.65 l -1.55,0.35 -3.6,-0.4 0.95,4.8 q 1.1,0.9 1.85,2.15 l 0.25,0.55 0.8,0.1 2.4,0.2 1.2,0.15 q 0.5,0.25 0.6,0.75 l 0.15,1.4 q 0.15,0.95 -0.1,2.6 -0.3,1.8 -0.25,2.6 l 2.25,0.7 0.8,0.55 v 2.3 l -0.25,0.1 -2.1,-0.2 -1.55,-0.4 q -1.3,-0.2 -1.75,-0.7 -0.45,-0.5 -0.45,-1.7 0.1,-1.8 0.35,-3.2 0.45,-2.15 0.3,-2.95 l -1.65,-0.3 0.2,1.3 q 0.05,2.4 -1.6,4.4 -1.45,1.65 -3.4,2.25 L 60.6,35.3 m -49.8,-6.7 0.35,0.55 0.5,0.45 1,0.05 q 2,-0.3 2.75,-1 -0.65,-0.95 -0.7,-1.95 l -0.15,-0.5 -0.3,-0.1 q -0.95,-0.2 -1.9,0.3 -0.95,0.45 -1.4,1.35 -0.3,0.45 -0.15,0.85"
         fill="#999999"
         fill-rule="evenodd"
         stroke="none"
         id="path8" />
      <path
         d="M 24.85,10.2 25.1,9.45 25,8.7 24.85,5.7 25.05,4.05 25.3,3 q 0.3,-0.75 1.15,-1 l 1.55,0.05 2.65,0.6 0.65,0.2 Q 33.35,2 35.6,1.9 V 1.85 h 0.45 1.1 0.45 V 1.9 q 2.3,0.15 4.3,0.95 L 42.55,2.65 45.2,2.05 46.75,2 q 0.85,0.25 1.15,1 l 0.25,1.05 0.2,1.65 -0.15,3 -0.1,0.75 0.25,0.75 q 0.55,1.85 0.3,3.8 -0.3,1.95 -1.35,3.55 -1.25,1.85 -3.35,3 l -1.2,0.55 h 0.05 l 2.15,1.6 q 3.1,2.05 5.1,2.95 2.95,1.4 5.55,1.45 0.6,-1.65 1.9,-2.75 1.4,-1.2 3,-1.25 1.3,0 2.6,0.85 2.05,1.3 2.5,3.55 0.5,2.35 -1.05,4.15 -1.25,1.4 -3.25,1.8 -1.65,0.4 -3.8,0.05 L 54.45,32.9 Q 50,31.75 47.2,29.85 L 45.95,28.9 q 1.2,3.6 2.05,8.45 0.35,2.25 -0.05,3.35 H 25.3 Q 24.85,39.6 25.2,37.35 26.05,32.5 27.25,28.9 L 26,29.85 q -2.8,1.9 -7.25,3.05 l -3.05,0.6 q -2.15,0.35 -3.8,-0.05 -2,-0.4 -3.25,-1.8 -1.55,-1.8 -1.05,-4.15 0.45,-2.25 2.5,-3.55 1.3,-0.85 2.6,-0.85 1.6,0.05 3,1.25 1.3,1.1 1.9,2.75 2.6,-0.05 5.55,-1.45 l 5.1,-2.95 2.15,-1.6 h 0.05 l -1.2,-0.55 q -2.1,-1.15 -3.35,-3 -1.05,-1.6 -1.35,-3.55 -0.25,-1.95 0.3,-3.8 M 40.35,7.95 40.9,8.4 41.85,8.65 42.2,8.3 42.15,7.75 41.9,7.5 41.8,7.2 42.9,7.5 43.6,8.4 V 8.85 L 43.3,9.1 q -0.85,0.6 -2,0.35 L 40.65,9.2 Q 39.9,8.75 39.4,7.35 39.2,6.55 39.3,6.15 l 0.75,-0.8 0.5,-0.3 0.35,-0.8 -0.65,-0.65 -0.7,0.1 q -1.5,0.6 -1.8,2 L 37.7,6.75 q 0.1,1.3 0.4,1.85 l 0.4,1 0.7,0.8 0.8,0.55 0.75,0.35 0.85,0.1 2.1,-0.2 Q 44.65,10.8 45.2,10 L 45.45,9.5 V 8.85 L 45.3,7.75 Q 45,6.9 44.35,6.4 L 43.1,5.55 42.45,5.4 41.25,5.45 Q 40.55,5.7 40.3,6.25 L 40.2,7.2 q 0,0.5 0.15,0.75 m -7.8,6.75 1.4,-0.4 0.95,-0.4 0.9,-0.6 0.65,-0.65 0.65,0.65 0.9,0.6 0.95,0.4 1.4,0.4 2.9,-0.4 1.45,-0.55 1.2,-0.95 0.55,-0.65 q 0.25,-0.6 -0.25,-0.75 -0.35,-0.15 -0.65,0.25 l -0.2,0.3 -0.35,0.1 -0.45,0.25 -0.5,0.2 -2.7,0.15 -2,-0.5 Q 38.3,11.65 37.8,10.8 l -0.35,-0.6 -0.1,-0.1 -0.1,-0.2 Q 36.9,9.5 36.45,9.55 36,9.5 35.65,9.9 l -0.1,0.2 -0.05,0.1 -0.4,0.6 q -0.5,0.85 -1.55,1.35 l -2,0.5 -2.7,-0.15 -0.5,-0.2 -0.45,-0.25 -0.35,-0.1 -0.2,-0.3 q -0.3,-0.4 -0.65,-0.25 -0.5,0.15 -0.25,0.75 l 0.55,0.65 1.2,0.95 q 0.55,0.35 1.45,0.55 l 2.9,0.4 m 6.7,8.9 -3.65,-0.3 q -0.8,0.05 -1.65,0.4 -2.2,0.8 -3.3,3.2 -0.9,1.9 -1,4.6 0,1.75 0.4,2.7 0.45,1.05 2,2.4 l 1.55,1.05 q 1.15,0.6 3,0.75 l 3.25,-0.45 q 1.75,-0.7 2.4,-2.15 l 0.5,-1.6 q 0.4,-1.6 -0.05,-2.4 l -0.3,0.8 -0.45,0.8 -0.2,0.35 -0.9,1.05 -1.4,1 -2.1,0.15 Q 35.9,35.9 34.75,35.05 L 33.9,34.3 q -0.8,-0.8 -1,-1.55 l 0.05,-1.1 q 0.2,-1.95 0.65,-3.1 0.4,-0.95 0.95,-1.4 0.3,-0.25 1.35,-0.55 1.25,-0.3 1.85,0 l 0.75,0.7 q 0.7,1.2 0.4,2.55 -0.2,0.85 -0.75,1.1 L 37.5,30.9 q -0.35,-0.2 -0.3,-0.55 l 0.25,-0.5 0.45,-1.2 -0.45,-0.8 Q 37,27.55 36.5,27.6 q -0.9,0.05 -1.6,1.05 -0.7,1 -0.65,2.25 0.05,1.3 0.85,2.2 1.1,1.25 2.8,1.15 1.7,-0.1 2.75,-1.3 l 0.75,-1.1 q 0.95,-1.7 0.65,-3.8 -0.25,-2.1 -1.6,-3.55 l -1.2,-0.9 M 32.55,7.95 32.7,7.2 32.6,6.25 Q 32.35,5.7 31.65,5.45 L 30.45,5.4 Q 30.1,5.4 29.8,5.55 L 28.55,6.4 Q 27.9,6.9 27.6,7.75 l -0.15,1.1 V 9.5 L 27.7,10 q 0.55,0.8 1.5,1.2 l 2.1,0.2 0.85,-0.1 0.75,-0.35 0.8,-0.55 0.7,-0.8 0.4,-1 Q 35.1,8.05 35.2,6.75 L 35.15,5.7 q -0.3,-1.4 -1.8,-2 L 32.65,3.6 Q 32.2,3.7 32,4.25 31.95,4.7 32.35,5.05 l 0.5,0.3 0.75,0.8 -0.1,1.2 Q 33,8.75 32.25,9.2 L 31.6,9.45 Q 30.45,9.7 29.6,9.1 L 29.3,8.85 V 8.4 Q 29.5,7.85 30,7.5 30.55,7.15 31.1,7.2 L 31,7.5 30.75,7.75 Q 30.6,8 30.7,8.3 l 0.35,0.35 Q 31.4,8.8 32,8.4 l 0.55,-0.45"
         fill="#000000"
         fill-rule="evenodd"
         stroke="none"
         id="path9" />
      <path
         d="M 40.35,7.95 Q 40.2,7.7 40.2,7.2 L 40.3,6.25 Q 40.55,5.7 41.25,5.45 L 42.45,5.4 43.1,5.55 44.35,6.4 Q 45,6.9 45.3,7.75 l 0.15,1.1 V 9.5 L 45.2,10 q -0.55,0.8 -1.5,1.2 L 41.6,11.4 40.75,11.3 40,10.95 39.2,10.4 38.5,9.6 38.1,8.6 Q 37.8,8.05 37.7,6.75 L 37.75,5.7 q 0.3,-1.4 1.8,-2 l 0.7,-0.1 0.65,0.65 -0.35,0.8 -0.5,0.3 -0.75,0.8 q -0.1,0.4 0.1,1.2 0.5,1.4 1.25,1.85 l 0.65,0.25 q 1.15,0.25 2,-0.35 L 43.6,8.85 V 8.4 L 42.9,7.5 41.8,7.2 41.9,7.5 42.15,7.75 42.2,8.3 41.85,8.65 40.9,8.4 40.35,7.95 m -7.8,6.75 -2.9,-0.4 Q 28.75,14.1 28.2,13.75 L 27,12.8 26.45,12.15 q -0.25,-0.6 0.25,-0.75 0.35,-0.15 0.65,0.25 l 0.2,0.3 0.35,0.1 0.45,0.25 0.5,0.2 2.7,0.15 2,-0.5 q 1.05,-0.5 1.55,-1.35 l 0.4,-0.6 0.05,-0.1 0.1,-0.2 Q 36,9.5 36.45,9.55 36.9,9.5 37.25,9.9 l 0.1,0.2 0.1,0.1 0.35,0.6 q 0.5,0.85 1.55,1.35 l 2,0.5 2.7,-0.15 0.5,-0.2 0.45,-0.25 0.35,-0.1 0.2,-0.3 q 0.3,-0.4 0.65,-0.25 0.5,0.15 0.25,0.75 l -0.55,0.65 -1.2,0.95 -1.45,0.55 -2.9,0.4 -1.4,-0.4 -0.95,-0.4 -0.9,-0.6 -0.65,-0.65 -0.65,0.65 -0.9,0.6 -0.95,0.4 -1.4,0.4 m 6.7,8.9 1.2,0.9 q 1.35,1.45 1.6,3.55 0.3,2.1 -0.65,3.8 l -0.75,1.1 q -1.05,1.2 -2.75,1.3 -1.7,0.1 -2.8,-1.15 -0.8,-0.9 -0.85,-2.2 -0.05,-1.25 0.65,-2.25 0.7,-1 1.6,-1.05 0.5,-0.05 0.95,0.25 l 0.45,0.8 -0.45,1.2 -0.25,0.5 q -0.05,0.35 0.3,0.55 l 0.65,0.05 Q 38.7,30.7 38.9,29.85 39.2,28.5 38.5,27.3 l -0.75,-0.7 q -0.6,-0.3 -1.85,0 -1.05,0.3 -1.35,0.55 -0.55,0.45 -0.95,1.4 -0.45,1.15 -0.65,3.1 l -0.05,1.1 q 0.2,0.75 1,1.55 l 0.85,0.75 q 1.15,0.85 2.6,0.9 l 2.1,-0.15 1.4,-1 0.9,-1.05 0.2,-0.35 0.45,-0.8 0.3,-0.8 q 0.45,0.8 0.05,2.4 l -0.5,1.6 q -0.65,1.45 -2.4,2.15 L 36.6,38.4 q -1.85,-0.15 -3,-0.75 L 32.05,36.6 q -1.55,-1.35 -2,-2.4 -0.4,-0.95 -0.4,-2.7 0.1,-2.7 1,-4.6 1.1,-2.4 3.3,-3.2 0.85,-0.35 1.65,-0.4 l 3.65,0.3 M 32.55,7.95 32,8.4 Q 31.4,8.8 31.05,8.65 L 30.7,8.3 Q 30.6,8 30.75,7.75 L 31,7.5 31.1,7.2 Q 30.55,7.15 30,7.5 29.5,7.85 29.3,8.4 v 0.45 l 0.3,0.25 q 0.85,0.6 2,0.35 L 32.25,9.2 Q 33,8.75 33.5,7.35 l 0.1,-1.2 -0.75,-0.8 -0.5,-0.3 Q 31.95,4.7 32,4.25 32.2,3.7 32.65,3.6 l 0.7,0.1 q 1.5,0.6 1.8,2 l 0.05,1.05 q -0.1,1.3 -0.4,1.85 l -0.4,1 -0.7,0.8 -0.8,0.55 -0.75,0.35 -0.85,0.1 -2.1,-0.2 Q 28.25,10.8 27.7,10 L 27.45,9.5 V 8.85 L 27.6,7.75 Q 27.9,6.9 28.55,6.4 L 29.8,5.55 Q 30.1,5.4 30.45,5.4 l 1.2,0.05 q 0.7,0.25 0.95,0.8 l 0.1,0.95 -0.15,0.75"
         fill="#ffffff"
         fill-rule="evenodd"
         stroke="none"
         id="path10" />
    </g>
    <g
       id="shape2"
       transform="translate(2,2.05)">
      <path
         d="M -0.5,-0.4 V -0.55 H 75.1 V -0.4 40.8 H -0.5 Z"
         fill="none"
         stroke="#000000"
         stroke-linecap="round"
         stroke-linejoin="round"
         stroke-width="3"
         id="path11" />
    </g>
  </defs>
</svg>
