<?xml version="1.0" encoding="UTF-8" standalone="no"?>
<svg
   ffdec:objectType="frame"
   height="44.349998"
   width="78.849998"
   version="1.1"
   id="svg12"
   sodipodi:docname="69.svg"
   xmlns:inkscape="http://www.inkscape.org/namespaces/inkscape"
   xmlns:sodipodi="http://sodipodi.sourceforge.net/DTD/sodipodi-0.dtd"
   xmlns:xlink="http://www.w3.org/1999/xlink"
   xmlns="http://www.w3.org/2000/svg"
   xmlns:svg="http://www.w3.org/2000/svg"
   xmlns:ffdec="https://www.free-decompiler.com/flash">
  <sodipodi:namedview
     id="namedview12"
     pagecolor="#ffffff"
     bordercolor="#000000"
     borderopacity="0.25"
     inkscape:showpageshadow="2"
     inkscape:pageopacity="0.0"
     inkscape:pagecheckerboard="0"
     inkscape:deskcolor="#d1d1d1"
     fit-margin-top="5"
     fit-margin-left="5"
     fit-margin-right="5"
     fit-margin-bottom="5" />
  <g
     transform="translate(2,2.05)"
     id="g3">
    <use
       ffdec:characterId="1"
       height="42.700001"
       transform="translate(-1.75,-2)"
       width="76.449997"
       xlink:href="#shape0"
       id="use1" />
    <use
       ffdec:characterId="68"
       height="40.950001"
       transform="translate(-0.25,0.25)"
       width="77.099998"
       xlink:href="#shape1"
       id="use2" />
    <use
       ffdec:characterId="3"
       height="44.349998"
       transform="translate(-2,-2.05)"
       width="78.599998"
       xlink:href="#shape2"
       id="use3" />
  </g>
  <defs
     id="defs12">
    <g
       id="shape0"
       transform="translate(1.75,2)">
      <path
         d="M 2.8,0 V -0.4 H 5.4 V 0 H 9.7 V 19.45 0 H 20.55 L 19.3,19.45 H 9.7 0.25 V 0 H 2.8"
         fill="#ffffff"
         fill-rule="evenodd"
         stroke="none"
         id="path3" />
      <path
         d="M 0.25,19.45 H 9.7 19.3 L 18.7,28.6 16,28.5 10.95,27.95 9.7,27.8 Q 7.45,27.6 5.85,27.75 4.05,27.9 1.5,28.6 0.75,28.8 0.25,29.15 v -9.7 m 9.45,0 v 8.35 -8.35"
         fill="#121212"
         fill-rule="evenodd"
         stroke="none"
         id="path4" />
      <path
         d="m 9.7,27.8 1.25,0.15 5.05,0.55 2.7,0.1 h 1.05 l 3.75,0.15 q 2.45,0.3 3.6,1.25 0.6,0.5 0.6,1.1 0,0.65 -0.8,1 l -1.3,0.2 -7.15,0.15 -5.6,-0.3 L 9.7,31.75 7.95,31.6 3.1,31.95 0.95,32.3 0.25,32.1 -0.35,31.55 -0.5,31.3 V 29.9 L 0.25,29.15 Q 0.75,28.8 1.5,28.6 4.05,27.9 5.85,27.75 7.45,27.6 9.7,27.8 v 3.95 -3.95"
         fill="#999999"
         fill-rule="evenodd"
         stroke="none"
         id="path5" />
      <path
         d="M 2.8,0 H 0.25 M 9.7,0 H 5.4 m 16.15,0 h 10.7 M 20.55,0 H 9.7"
         fill="none"
         stroke="#666666"
         stroke-linecap="round"
         stroke-linejoin="round"
         stroke-width="4"
         id="path6" />
      <path
         d="m 9.7,-0.4 h 65 V 40.5 H 47.05 L 45.5,40.7 27,40.65 25.95,40.5 H 9.7 -0.5 V -0.4 H 9.7 V 40.5 -0.4"
         fill="#ffffff"
         fill-rule="evenodd"
         stroke="none"
         id="path7" />
    </g>
    <g
       id="shape1"
       transform="translate(0.25,-0.25)">
      <path
         d="M 14.2,30.3 12.9,28.7 Q 9.7,25.05 8.2,21.45 7.6,20.1 7.35,18.85 l -0.8,2.05 q -2.35,5.7 -6.8,9.8 V 26.3 Q 3.8,21.75 5.5,14.45 L 4.75,13.3 3.45,11.65 Q 1.15,9.05 -0.25,6.5 V 0.25 h 0.4 q 0.7,2.05 1.95,4.2 2.05,3.4 5.25,6.8 L 7.75,11.5 8.1,11.3 Q 12.9,7.25 15.15,0.25 h 5.45 q 0.55,1.4 1.4,2.8 2.05,3.35 5.25,6.8 l 0.4,0.25 0.4,-0.2 Q 32.3,6.25 34.6,0.25 h 3.1 l -0.8,2.2 Q 34.2,8.9 28.95,13.3 v 0.15 q 0.5,4 2.85,8.05 2,3.35 5.2,6.8 l 0.4,0.2 0.4,-0.15 q 5.9,-5 7.95,-14.5 l 0.1,-0.35 -0.2,-0.2 -0.2,-0.25 -0.7,-1.15 -1.3,-1.65 Q 40.25,6.6 38.7,3 L 37.8,0.25 h 2.9 q 0.55,1.4 1.4,2.8 2,3.35 5.2,6.8 l 0.4,0.25 0.4,-0.2 q 4.3,-3.65 6.6,-9.65 h 5.5 q 0.7,2.05 1.95,4.2 2.05,3.4 5.25,6.8 l 0.4,0.25 0.4,-0.2 Q 72.85,7.4 75.1,0.55 v 7.2 Q 72.7,11.7 69,14.7 l -0.05,0.05 q 0.7,3.35 2.65,6.75 l 3.5,4.85 v 13.5 L 74.45,41.2 H 71 q 2.4,-4 3.6,-9.45 l 0.15,-0.6 -0.5,-0.85 -1.3,-1.6 q -3.2,-3.65 -4.7,-7.25 -0.6,-1.35 -0.85,-2.6 l -0.8,2.05 q -2.7,6.5 -8.05,10.85 l -0.6,0.45 q 0.55,3.6 2.7,7.2 l 1.15,1.8 h -3.65 l -0.9,-1.9 -0.75,-2.25 -0.35,0.85 -1.6,3.3 h -3.5 q 2.75,-4 4.05,-9.7 l -0.75,-1.2 -1.3,-1.6 q -3.2,-3.65 -4.7,-7.25 -0.6,-1.35 -0.85,-2.6 L 46.7,20.9 Q 44,27.4 38.65,31.75 L 38.6,31.8 q 0.65,3.35 2.65,6.75 L 43,41.2 h -3.75 l -1.4,-2.7 -0.85,-2.6 -0.75,2 -1.6,3.3 h -3.5 q 2.7,-4 4,-9.7 l -0.7,-1.2 -1.3,-1.6 q -3.2,-3.65 -4.75,-7.25 l -0.05,-0.1 -0.95,-3.1 -0.95,2.65 q -2.65,6.4 -7.8,10.65 0.65,3.5 2.7,7 l 1.75,2.65 h -3.75 l -1.4,-2.7 q -0.8,-2 -1.1,-3.85 l -1.35,4.1 -1.15,2.45 h -3.4 q 2.4,-4 3.6,-9.45 L 14.7,31.15 14.2,30.3 M 48.85,13.45 q 0.5,4 2.85,8.05 2.05,3.35 5.25,6.8 l 0.35,0.2 0.4,-0.15 q 5.75,-4.85 7.85,-13.9 L 64.8,13.3 63.5,11.65 Q 60.3,8 58.8,4.4 58,2.5 57.65,0.65 L 57,2.45 q -2.7,6.5 -8.05,10.85 l -0.05,0.05 -0.05,0.05 v 0.05 m -37.3,8.05 q 2,3.35 5.25,6.8 l 0.35,0.2 0.4,-0.15 q 5.9,-5 7.95,-14.5 L 25.6,13.4 25.55,13.3 25.4,13.05 24.65,11.9 23.35,10.25 Q 20.15,6.6 18.65,3 L 17.95,1.15 17,3.85 Q 14.3,10.35 8.95,14.7 L 8.9,14.75 q 0.7,3.35 2.65,6.75 M 17.85,17 Q 17.55,16.95 17.35,16.5 16.9,15.7 16.7,14.45 L 16.2,10.2 16.4,8.55 q 0.25,-0.65 1,-1 l 1.4,-0.1 q 1.05,0.4 1.35,1.45 L 20,10.75 19.65,13.5 q -0.25,1.65 -0.7,2.65 -0.3,1.15 -1.1,0.85 m 0.9,4.85 -0.5,0.05 q -1.2,0 -1.45,-1.1 -0.15,-0.45 0.05,-0.95 Q 17,19.3 17.4,19.1 l 1.85,0.1 q 0.85,0.8 0.4,1.8 l -0.9,0.85 M 0.6,39.4 1.75,41.2 h -2 V 37.85 L 0.6,39.4"
         fill="#000000"
         fill-rule="evenodd"
         stroke="none"
         id="path8" />
      <path
         d="M 18.75,21.85 19.65,21 q 0.45,-1 -0.4,-1.8 L 17.4,19.1 q -0.4,0.2 -0.55,0.75 -0.2,0.5 -0.05,0.95 0.25,1.1 1.45,1.1 l 0.5,-0.05 M 17.85,17 q 0.8,0.3 1.1,-0.85 0.45,-1 0.7,-2.65 L 20,10.75 20.15,8.9 Q 19.85,7.85 18.8,7.45 l -1.4,0.1 q -0.75,0.35 -1,1 l -0.2,1.65 0.5,4.25 q 0.2,1.25 0.65,2.05 0.2,0.45 0.5,0.5 m -6.3,4.5 Q 9.6,18.1 8.9,14.75 L 8.95,14.7 Q 14.3,10.35 17,3.85 l 0.95,-2.7 0.7,1.85 q 1.5,3.6 4.7,7.25 l 1.3,1.65 0.75,1.15 0.15,0.25 0.05,0.1 -0.1,0.45 q -2.05,9.5 -7.95,14.5 l -0.4,0.15 -0.35,-0.2 q -3.25,-3.45 -5.25,-6.8"
         fill="#999999"
         fill-rule="evenodd"
         stroke="none"
         id="path9" />
      <path
         d="M 58.65,17.45 58.2,16.75 H 57.95 L 57.6,16.7 57.3,16.65 57.1,16.6 H 56.75 L 56.45,16.55 56.1,16.5 H 55.9 L 55.8,16.45 55.2,16.4 H 54.4 53.85 L 52.9,16.3 51.95,16.25 H 51.4 50.65 l -1.6,-0.05 -1.8,-0.05 h -0.4 L 46.25,16.1 45.4,16.05 44.8,16 H 44.35 L 44,15.95 43.5,15.85 H 43.3 43 42.6 L 41.85,15.8 41.3,15.75 H 41 40.75 l 0.2,0.4 q 0.3,0.8 -0.15,1.5 -0.65,0.75 -1.4,0.65 -0.65,-0.05 -1.35,-0.65 L 36.85,16.7 35.8,16 q -0.65,-0.5 -0.7,-1.05 -0.05,-0.6 0.4,-1.15 0.35,-0.4 1,-0.8 l 1.55,-1.05 q 1.55,-0.95 2.35,-0.8 0.45,0.1 0.75,0.4 l 0.15,0.7 -0.45,0.6 L 39.6,13.9 40.35,13.85 41,13.8 h 0.3 l 0.55,-0.05 h 0.25 l 0.5,-0.05 0.9,-0.1 h 0.5 0.1 l 0.25,-0.05 0.45,-0.05 h 0.6 l 0.85,-0.05 0.6,-0.05 h 0.4 l 1.8,-0.05 1.6,-0.05 h 0.15 1.15 l 0.95,-0.05 h 1.3 l 0.2,-0.1 h 0.8 L 55.8,13.1 55.9,13.05 56.1,13 h 0.35 l 0.3,-0.05 0.35,-0.05 h 0.2 l 0.3,-0.05 0.35,-0.05 h 0.5 l 0.2,-0.4 0.1,-0.05 0.6,-0.9 0.95,-1.1 q 0.4,-0.6 0.95,-0.6 l 0.3,0.1 0.4,0.7 -0.25,0.95 0.9,-0.8 1.15,-0.15 q 0.65,0.1 0.65,0.75 L 64.3,12 v 0.05 l -0.25,0.55 -0.1,0.3 -0.35,0.7 -0.2,0.3 0.05,0.1 0.05,0.15 0.05,0.1 v 0.1 l 0.05,0.1 v 0.15 0.1 0.1 0.1 0.15 l -0.05,0.1 v 0.1 l -0.05,0.1 -0.05,0.2 v 0.1 0.05 l -0.1,0.05 -0.05,0.1 -0.15,0.15 v 0.05 l 0.1,0.4 0.25,0.65 0.05,0.85 -0.05,0.7 Q 63.35,19 62.95,19 l -0.45,-0.25 -1.2,-1.45 -0.1,-0.2 0.05,0.35 0.05,1.05 v 0.05 0.15 l -0.05,0.4 -0.1,0.1 q -0.15,0.4 -0.55,0.4 -0.35,0 -0.85,-0.65 l -1.1,-1.5"
         fill="#000000"
         fill-rule="evenodd"
         stroke="none"
         id="path10" />
      <path
         d="M 58.75,12.35 59.2,10.8 q 0.55,-1.15 1.15,-1.55 0.95,-0.75 1.8,0 l 0.55,0.4 h 0.65 q 0.6,-0.2 1.15,0 l 0.35,0.2 h 1.75 l 0.45,0.05 h 0.3 L 67.6,9.95 68,10 h 0.35 l 0.35,0.1 0.7,0.05 0.65,0.05 h 0.5 l 1.1,0.05 0.45,0.05 H 73 73.85 76 l 0.2,0.05 0.3,0.05 0.15,0.15 0.1,0.1 0.1,0.15 v 0.1 0.15 l -0.05,0.1 -0.05,0.1 -0.15,0.1 -0.1,0.1 -0.05,0.05 -0.25,0.05 H 76 74.6 l 0.25,0.05 0.25,0.1 0.15,0.1 0.15,0.15 v 0.1 l 0.05,0.1 v 0.1 0.15 l -0.05,0.15 v 0.1 l -0.15,0.15 -0.15,0.1 -0.25,0.1 -0.3,0.05 -0.3,0.05 h -0.4 L 73.65,13.05 73.45,13 H 72.1 L 71.65,12.95 66.15,12.9 H 64.9 l -0.4,0.55 1.3,-0.05 h 4.35 2.85 0.35 l 0.15,0.05 0.25,0.05 h 0.1 l 0.3,0.05 0.1,0.05 h 0.15 l 0.3,0.1 0.3,0.1 0.3,0.1 0.3,0.1 0.15,0.15 0.15,0.1 0.1,0.1 0.05,0.1 0.05,0.15 v 0.1 0.1 l -0.1,0.1 -0.05,0.15 -0.1,0.1 -0.2,0.1 -0.2,0.1 q -0.2,0.05 -0.35,0.2 l -0.25,0.05 -0.15,0.05 h -0.3 l -0.15,0.05 -0.1,0.05 h -0.3 l -0.1,0.05 -0.25,0.05 H 73.35 L 73,15.95 h -2.85 l -4.35,-0.1 h -1.3 l -0.15,-0.05 0.05,0.25 0.3,1.25 0.05,1 0.1,-0.05 h 5.2 2.25 1.2 1.25 0.25 l 0.2,0.1 0.2,0.1 0.1,0.1 v 0.15 l 0.05,0.1 v 0.1 l -0.05,0.1 -0.05,0.15 -0.15,0.1 -0.1,0.1 H 75.1 L 75,19.4 74.75,19.45 H 73.5 L 72.3,19.4 h -2.25 -5.2 l -0.6,-0.05 H 64 l -1,0.2 -0.75,-0.15 -0.35,0.65 -1.05,0.2 q -0.55,-0.05 -1.55,-0.7 -0.7,-0.6 -0.8,-1.1 -0.15,-0.5 0.15,-1 l 1.1,1.5 q 0.5,0.65 0.85,0.65 0.4,0 0.55,-0.4 l 0.1,-0.1 0.05,-0.4 V 18.55 18.5 l -0.05,-1.05 -0.05,-0.35 0.1,0.2 1.2,1.45 0.45,0.25 q 0.4,0 0.55,-0.35 l 0.05,-0.7 -0.05,-0.85 -0.25,-0.65 -0.1,-0.4 V 16 l 0.15,-0.15 0.05,-0.1 0.1,-0.05 v -0.05 -0.1 l 0.05,-0.2 0.05,-0.1 v -0.1 l 0.05,-0.1 V 14.9 14.8 14.7 14.6 14.45 l -0.05,-0.1 v -0.1 L 63.5,14.15 63.45,14 63.4,13.9 l 0.2,-0.3 0.35,-0.7 0.1,-0.3 0.25,-0.55 V 12 l 0.1,-0.7 q 0,-0.65 -0.65,-0.75 l -1.15,0.15 -0.9,0.8 0.25,-0.95 -0.4,-0.7 -0.3,-0.1 q -0.55,0 -0.95,0.6 l -0.95,1.1 -0.6,0.9 m -4.9,4.05 q 0.35,0.55 -0.2,1.05 -0.3,0.35 -0.9,0.35 H 51.8 l -2,-0.15 h -2.2 l -0.9,0.1 -2.2,-0.3 L 44.2,17.3 43.85,17.15 43.3,17 42.85,16.95 q -0.35,-0.3 -0.2,-0.55 l 0.3,-0.45 0.05,-0.1 h 0.3 0.2 l 0.5,0.1 0.35,0.05 h 0.45 l 0.6,0.05 0.85,0.05 0.6,0.05 h 0.4 l 1.8,0.05 1.6,0.05 h 0.75 0.55 l 0.95,0.05 0.95,0.1 M 42.1,13.75 42.25,13.3 q 0.15,-0.3 1,-0.6 l 3.8,-0.3 3.7,0.1 1.75,0.05 q 0.65,0.1 1.7,0.7 H 52.9 L 51.95,13.3 H 50.8 50.65 l -1.6,0.05 -1.8,0.05 h -0.4 l -0.6,0.05 -0.85,0.05 H 44.8 L 44.35,13.55 44.1,13.6 H 44 43.5 l -0.9,0.1 -0.5,0.05 m 30.9,-2.2 -0.45,0.05 0.9,-0.05 H 73"
         fill="#ffffff"
         fill-rule="evenodd"
         stroke="none"
         id="path11" />
    </g>
    <g
       id="shape2"
       transform="translate(2,2.05)">
      <path
         d="M -0.5,-0.4 V -0.55 H 75.1 V -0.4 40.8 H -0.5 Z"
         fill="none"
         stroke="#000000"
         stroke-linecap="round"
         stroke-linejoin="round"
         stroke-width="3"
         id="path12" />
    </g>
  </defs>
</svg>
