<?xml version="1.0" encoding="UTF-8" standalone="no"?>
<svg
   ffdec:objectType="frame"
   height="44.349998"
   width="78.599998"
   version="1.1"
   id="svg11"
   sodipodi:docname="361.svg"
   xmlns:inkscape="http://www.inkscape.org/namespaces/inkscape"
   xmlns:sodipodi="http://sodipodi.sourceforge.net/DTD/sodipodi-0.dtd"
   xmlns:xlink="http://www.w3.org/1999/xlink"
   xmlns="http://www.w3.org/2000/svg"
   xmlns:svg="http://www.w3.org/2000/svg"
   xmlns:ffdec="https://www.free-decompiler.com/flash">
  <sodipodi:namedview
     id="namedview11"
     pagecolor="#ffffff"
     bordercolor="#000000"
     borderopacity="0.25"
     inkscape:showpageshadow="2"
     inkscape:pageopacity="0.0"
     inkscape:pagecheckerboard="0"
     inkscape:deskcolor="#d1d1d1"
     fit-margin-top="5"
     fit-margin-left="5"
     fit-margin-right="5"
     fit-margin-bottom="5" />
  <g
     transform="translate(2,2.05)"
     id="g3">
    <use
       ffdec:characterId="1"
       height="42.700001"
       transform="translate(-1.75,-2)"
       width="76.449997"
       xlink:href="#shape0"
       id="use1" />
    <use
       ffdec:characterId="340"
       height="43.5"
       transform="translate(6.75,-1.55)"
       width="68.75"
       xlink:href="#shape1"
       id="use2" />
    <use
       ffdec:characterId="3"
       height="44.349998"
       transform="translate(-2,-2.05)"
       width="78.599998"
       xlink:href="#shape2"
       id="use3" />
  </g>
  <defs
     id="defs11">
    <g
       id="shape0"
       transform="translate(1.75,2)">
      <path
         d="M 2.8,0 V -0.4 H 5.4 V 0 H 9.7 V 19.45 0 H 20.55 L 19.3,19.45 H 9.7 0.25 V 0 H 2.8"
         fill="#ffffff"
         fill-rule="evenodd"
         stroke="none"
         id="path3" />
      <path
         d="M 0.25,19.45 H 9.7 19.3 L 18.7,28.6 16,28.5 10.95,27.95 9.7,27.8 Q 7.45,27.6 5.85,27.75 4.05,27.9 1.5,28.6 0.75,28.8 0.25,29.15 v -9.7 m 9.45,0 v 8.35 -8.35"
         fill="#121212"
         fill-rule="evenodd"
         stroke="none"
         id="path4" />
      <path
         d="m 9.7,27.8 1.25,0.15 5.05,0.55 2.7,0.1 h 1.05 l 3.75,0.15 q 2.45,0.3 3.6,1.25 0.6,0.5 0.6,1.1 0,0.65 -0.8,1 l -1.3,0.2 -7.15,0.15 -5.6,-0.3 L 9.7,31.75 7.95,31.6 3.1,31.95 0.95,32.3 0.25,32.1 -0.35,31.55 -0.5,31.3 V 29.9 L 0.25,29.15 Q 0.75,28.8 1.5,28.6 4.05,27.9 5.85,27.75 7.45,27.6 9.7,27.8 v 3.95 -3.95"
         fill="#999999"
         fill-rule="evenodd"
         stroke="none"
         id="path5" />
      <path
         d="M 2.8,0 H 0.25 M 9.7,0 H 5.4 m 16.15,0 h 10.7 M 20.55,0 H 9.7"
         fill="none"
         stroke="#666666"
         stroke-linecap="round"
         stroke-linejoin="round"
         stroke-width="4"
         id="path6" />
      <path
         d="m 9.7,-0.4 h 65 V 40.5 H 47.05 L 45.5,40.7 27,40.65 25.95,40.5 H 9.7 -0.5 V -0.4 H 9.7 V 40.5 -0.4"
         fill="#ffffff"
         fill-rule="evenodd"
         stroke="none"
         id="path7" />
    </g>
    <g
       id="shape1"
       transform="translate(-6.75,1.55)">
      <path
         d="m 36.2,7.3 q 1.55,-2.2 3.95,-3.8 3.4,-2.25 10.15,-3.85 4.8,-1.1 7.9,-1.05 3.15,0 5.65,1.1 l 0.1,-0.1 2.1,-0.05 q 0.85,0.5 1.55,1.75 l 0.7,1.4 0.65,-0.05 1.85,0.1 q 1.7,0.35 2.75,1.6 l 1.3,2 0.05,1.1 -0.2,1.55 -0.3,0.9 0.05,0.6 0.35,4.9 q 0.35,4.65 0.2,7.5 -0.15,2.35 -0.9,3.95 -0.45,0.9 -1,0.75 -0.35,-0.05 -0.55,-0.6 -0.4,-0.9 -0.5,-2.15 L 72,22.6 q 0,-3.85 -0.55,-7.1 L 71.4,15.2 q -0.4,1.65 -1.35,3.4 l -0.4,0.7 0.7,2.4 q 0.5,2 0.35,3.05 l -0.05,0.65 0.15,0.55 0.25,0.55 -0.05,1.05 -0.7,0.85 q -1.1,0.65 -2,-0.2 l -0.65,-1 -1.35,-2.9 -0.25,-0.55 -0.8,0.75 Q 56.6,32.75 47.35,33 L 43.1,32.8 v 0.15 l -0.15,0.8 v 0.85 l 0.25,2.9 q 0.2,1.2 -0.15,1.75 l -0.4,0.5 -0.1,0.55 Q 42.3,41.5 41.1,41.65 40,41.8 39.25,41 q -0.45,0.95 -1.65,0.95 -1.25,0 -1.8,-1.25 l -0.1,-1.1 0.05,-1.35 0.15,-0.7 0.05,-0.8 Q 36,36.2 36.4,35.4 l 0.55,-1.3 0.45,-1.2 0.05,-0.15 Q 35.5,32.1 33.65,30.7 31.2,28.85 29.2,25.8 l -1.7,-3.15 q -0.75,-1.9 -1.05,-4.05 -0.5,-3.8 0.35,-7.5 0.35,-1.4 0.85,-2.7 L 27.1,7.05 26.95,6.15 26.8,5 q -0.1,-0.8 0.05,-1.15 0.2,-0.5 0.9,-0.9 Q 29.05,2.3 31,2.3 h 0.45 L 32.5,1.35 q 1.7,-1.2 3.75,-1.35 1.1,-0.65 2.15,-0.45 0.8,0.1 1.35,0.8 0.55,0.7 0.35,1.45 -0.15,0.8 -0.9,0.95 L 38.45,2.8 37.85,3.15 37.5,3.5 37.55,4.05 Q 37.4,4.6 36.8,4.85 L 36.55,4.9 35.8,6.75 34.95,9.5 36.2,7.3 M 60.65,2.65 Q 57.7,2 53.2,3.1 l -5.7,1.55 q -3,0.9 -4.35,1.65 -3.35,2 -5.95,7.25 -0.5,1.15 -1.2,1.3 -0.95,0.25 -1.5,-0.8 l -0.1,-0.2 v 2 l 0.2,2.85 q 0.25,1.5 0.9,2.55 l 0.4,0.55 0.25,-0.15 q 0.6,-0.2 0.75,0.3 l 0.05,1.05 0.55,0.55 q 1.8,1.1 2.85,1.35 l 2.05,0.15 2.05,-0.25 q 6,-1 8.9,-1.95 4.9,-1.6 7.85,-4.5 -0.4,-1.1 0.55,-3.4 1.7,-4.4 1.35,-8.55 Q 63,5.1 63.3,4.65 l 0.6,-0.5 Q 62.35,3.1 60.65,2.65 m 7.35,10.1 0.05,-0.5 -0.35,2.2 -0.3,1.25 q 0.55,-1.4 0.6,-2.95 m -20.95,16.35 4.9,-0.75 q 6.15,-1.75 12.1,-7.9 l 1.2,-1.3 -1.5,1.1 q -3.65,2.5 -6,3.7 -4.65,2.3 -12.3,3.4 l -3,0.25 0.05,0.05 q 0.45,0.45 0.35,1.05 v 0.05 l 4.2,0.35 M 36.3,26.4 q 1.5,1.1 4.2,1.85 l 0.05,-0.05 0.65,-0.6 q -2.1,-0.15 -3.55,-0.85 l -1.2,-0.85 -0.1,0.05 -0.5,0.1 0.45,0.35 M 21.45,17.7 21.6,17.6 q 0.35,0.1 0.5,0.3 0.3,0.2 0.2,0.55 l -0.35,0.55 -0.3,0.45 -0.2,0.6 -0.55,0.4 h -0.35 l -0.15,-0.2 0.05,-0.2 0.3,-1.05 0.15,-0.3 V 18.25 Q 21,17.8 21.45,17.7 m -4.3,2.45 -0.3,-0.45 V 19.1 L 16.65,18.7 16,17.8 q -0.3,-0.65 -0.15,-1.1 0.25,-0.55 0.8,-0.7 0.7,-0.1 1,0.4 0.4,0.4 0.4,1.15 l -0.05,1.3 0.05,1.25 -0.2,0.35 q -0.35,0.2 -0.7,-0.3 m -2.3,0.95 q 0.3,0.3 0.2,0.5 l -0.4,0.25 -0.4,-0.15 -1.35,-0.65 -0.45,-0.3 Q 12,20.3 12.35,19.85 12.6,19.3 13.2,19.4 q 0.55,0 0.8,0.5 l 0.25,0.5 0.6,0.7"
         fill="#999999"
         fill-rule="evenodd"
         stroke="none"
         id="path8" />
      <path
         d="m 31.35,15.95 -0.05,-1.8 0.05,-0.65 -0.4,-0.85 -1.1,-1.8 Q 29.2,9.7 28.5,7.2 L 28.3,5.85 Q 28.3,5 28.7,4.55 29,4.25 29.9,3.9 l 5.6,-0.2 1.4,-1.6 q 1.2,-1.15 3.15,-2.2 1.4,-0.85 2.6,-1.2 2.4,-0.7 4.75,0.45 l 0.65,0.45 H 58.8 l 0.5,0.25 0.15,-0.1 0.3,-0.15 h 4.6 q 0.75,0.3 0.9,0.9 0.05,0.5 -0.3,1.2 l -0.85,1.8 1.05,1.6 q 0.8,1.55 1.25,4 l 0.15,0.85 q 0.2,-1.4 1.05,-2.25 0.95,-0.85 2.25,-0.95 1.9,-0.2 2.75,1.1 0.55,0.85 0.35,2.9 -0.35,4.4 0.45,13.2 0.4,4 0.75,6.1 l 0.25,2.15 -0.05,1.4 0.1,1.2 0.05,0.3 0.75,2.2 q 0.6,2 -0.2,2.95 -0.5,0.5 -1.25,0.5 -0.7,-0.05 -1.15,-0.5 l -1.1,0.2 -4.6,-0.05 -4.6,-0.1 -6.2,0.2 L 52,40.75 H 49.45 L 46.6,40.3 h -0.75 l -0.55,0.85 q -0.4,0.4 -0.95,0.45 -1.25,0.15 -1.85,-0.95 L 42.2,39.8 41.65,37.3 41.5,35.15 q -0.1,-2.1 0.15,-3.5 0.2,-0.95 0.75,-2.2 L 41.9,29.3 Q 38.55,28.4 35.95,26.05 34.75,25 33.9,23.75 33.15,22.9 32.65,21.7 32,20.3 31.7,18.7 l 0.5,0.1 1.15,-0.3 0.1,-0.05 q 0.2,0.7 0.9,1.2 1.5,0.95 3,0.3 1.7,-0.65 1.85,-2.35 L 39.15,16.55 39.05,16.1 39.9,16 40.65,15.7 40.95,14.45 40.8,12.9 40.5,12.15 q -0.15,-0.5 -0.55,-0.65 -0.5,-0.15 -0.95,0.3 -0.3,0.4 -0.3,0.9 l 0.05,1 V 14 l -0.3,0.05 -1,0.05 -2.15,0.15 q -1.1,0.2 -3.2,1.2 -0.55,0.25 -0.75,0.5 m 35,2.35 -1.3,3.6 0.45,0.3 1.45,1.25 1.1,1.15 1.2,1.6 -2.05,-10 -0.35,-1.85 q -0.05,2.05 -0.5,3.95 m -27.8,3.2 q -0.4,0.75 0.05,1.05 0.35,0.2 1,-0.35 l 1.55,-0.95 q 3.6,-1.95 6.3,-3 3.45,-1.3 5.95,-1.4 0.6,0 0.65,0.3 L 53.75,17.7 52,18.55 50.7,19.3 q -1.35,0.9 -1.8,1.7 2.4,-0.65 5.3,-2.1 1.25,-0.6 1.5,-1.35 L 55.75,16.5 55.5,15.55 54.8,15 q -0.9,-0.45 -2.2,-0.45 -2.45,-0.05 -5.1,1 l -1.6,0.8 -0.1,-0.15 q -0.45,-0.75 -1.3,-1.05 -0.55,-0.3 -0.9,0 -0.35,0.2 -0.35,0.6 l 0.05,0.8 0.35,1.05 -0.8,0.45 q -1.55,0.95 -2.6,1.75 -1.2,0.85 -1.7,1.7 m 9.25,-8.8 0.75,-0.4 0.35,0.7 q 0.55,0.75 1.85,1 1.65,0.25 2.95,-0.65 L 54.5,12.4 54.75,11.1 54.35,9.55 54.8,9.4 Q 56.15,9 56.6,8.45 L 56.85,7.5 Q 56.85,6.95 56.5,6.55 55.8,5.8 54.65,6.05 54.15,6.15 52.8,6.8 L 47.1,10.55 46.6,10.8 46.1,9.85 Q 45.7,9.2 45.15,9.45 44.8,9.65 44.8,10.3 l 0.3,0.9 q 0.4,1.05 0.95,1.4 l 1.75,0.1 m 4.2,-2.25 0.55,-0.2 0.15,0.2 0.3,0.5 q 0.05,0.45 -0.7,0.9 L 51.05,12 Q 50.4,11.9 50.1,11.45 l 1.9,-1 m -25.45,16.1 q 0.25,1.35 0.05,3.1 l -0.45,1.65 -1.4,1.75 0.25,0.5 0.95,2 0.45,1 0.6,1.7 q 0.25,0.95 -0.1,1.7 -0.5,0.85 -1.35,1 L 24.45,40.9 19,40.55 18.3,40.6 18.05,41.1 q -0.45,0.7 -1.3,0.85 L 15.3,41.65 Q 14.65,41.15 14.55,40.45 14.2,40.5 13.8,40.2 L 13.35,39.65 12.95,38.1 12.4,36.05 h -0.2 q -0.4,0.15 -1.3,1.15 -0.75,0.85 -1.4,0.85 L 8.6,37.85 7.85,37.5 q -0.6,-0.4 -1,-1.55 l -0.1,-0.4 Q 6.7,35 7.15,34.35 L 7.45,34 Q 7.7,33.8 7.9,34.1 l -0.1,0.35 -0.3,0.3 q -0.15,0.35 0.15,1 L 8,36.3 q 0.45,0.5 1.15,0.5 l 0.35,-0.05 0.25,-0.35 1.5,-1.75 0.6,-0.45 1.5,-0.05 0.7,0.4 q 0.5,0.45 0.8,1.75 L 15,36.6 q 0.35,-1.35 0.85,-2.2 l -1.2,-0.55 Q 13.25,32.9 12.7,31.3 L 11.4,31.4 10.1,31.2 9.45,30.55 8.75,29.5 8.55,29 l -0.1,-1.3 0.4,-2 q 0.4,-1.15 1.25,-1.65 0.7,-0.5 2.25,-0.5 l 0.75,0.1 0.55,0.3 0.3,0.15 0.45,-0.5 q 1.35,-1.35 3.65,-1.85 l 2.55,-0.2 1.2,0.45 0.35,0.15 0.2,-0.35 q 0.55,-0.7 1.15,-0.95 l 1.7,0.1 q 0.8,0.35 1.3,1.2 0.65,0.9 0.7,2 0.05,1.1 -0.55,1.9 L 26.6,25.1 q -0.2,-0.8 -0.85,-1.3 -0.7,-0.55 -1.5,-0.5 -0.85,0.05 -1.5,0.6 -0.65,0.55 -0.75,1.35 -0.15,0.85 0.3,1.6 0.4,0.75 1.2,1 1.3,0.55 2.4,-0.4 l 0.65,-0.9 m -4.85,3.2 -0.3,-0.05 -0.05,-0.3 -0.25,-0.25 -0.15,-0.4 q -0.1,-0.2 -0.3,-0.2 l -0.3,0.2 q -0.1,0.15 -0.05,0.6 l -0.05,0.25 0.1,0.25 H 20.3 Q 19.85,30 19.05,30.5 l -0.55,0.45 q -0.25,0.4 -0.1,0.75 0.3,0.55 0.8,0.4 l 0.5,-0.45 q 0.35,-0.5 0.95,-0.8 0.35,-0.25 0.7,-0.2 0.4,0.05 1.1,0.5 l 0.5,-0.05 0.1,-0.35 Q 23,30.45 22.4,30.05 l -0.7,-0.3 m -5,-0.35 q 0.9,-0.2 1.45,-1.05 0.55,-0.85 0.4,-1.75 -0.2,-0.9 -1,-1.5 -0.8,-0.6 -1.7,-0.5 -0.9,0.1 -1.55,0.85 -0.7,0.75 -0.65,1.65 0.1,1.5 1.35,2.15 l 1.7,0.15 m 19.4,-11 q -1,-0.1 -1.25,-0.95 L 37.3,16.4 v 0.05 l 0.25,0.5 -0.05,0.6 q -0.45,0.95 -1.4,0.85"
         fill="#000000"
         fill-rule="evenodd"
         stroke="none"
         id="path9" />
      <path
         d="m 31.7,18.7 -0.6,-0.45 q -0.4,-0.45 -0.4,-1.1 0.05,-0.7 0.5,-1.1 l 0.15,-0.1 q 0.2,-0.25 0.75,-0.5 2.1,-1 3.2,-1.2 l 2.15,-0.15 1,-0.05 0.3,-0.05 v -0.3 l -0.05,-1 q 0,-0.5 0.3,-0.9 0.45,-0.45 0.95,-0.3 0.4,0.15 0.55,0.65 l 0.3,0.75 0.15,1.55 -0.3,1.25 -0.75,0.3 -0.85,0.1 0.1,0.45 0.05,1.05 q -0.15,1.7 -1.85,2.35 -1.5,0.65 -3,-0.3 -0.7,-0.5 -0.9,-1.2 l -0.1,0.05 -1.15,0.3 -0.5,-0.1 m 20.3,-8.25 -1.9,1 q 0.3,0.45 0.95,0.55 l 1.25,-0.15 q 0.75,-0.45 0.7,-0.9 l -0.3,-0.5 -0.15,-0.2 -0.55,0.2 M 47.8,12.7 46.05,12.6 Q 45.5,12.25 45.1,11.2 l -0.3,-0.9 q 0,-0.65 0.35,-0.85 0.55,-0.25 0.95,0.4 l 0.5,0.95 0.5,-0.25 5.7,-3.75 q 1.35,-0.65 1.85,-0.75 1.15,-0.25 1.85,0.5 0.35,0.4 0.35,0.95 L 56.6,8.45 Q 56.15,9 54.8,9.4 l -0.45,0.15 0.4,1.55 -0.25,1.3 -0.8,0.95 q -1.3,0.9 -2.95,0.65 -1.3,-0.25 -1.85,-1 l -0.35,-0.7 -0.75,0.4 m -9.25,8.8 q 0.5,-0.85 1.7,-1.7 1.05,-0.8 2.6,-1.75 l 0.8,-0.45 -0.35,-1.05 -0.05,-0.8 q 0,-0.4 0.35,-0.6 0.35,-0.3 0.9,0 0.85,0.3 1.3,1.05 l 0.1,0.15 1.6,-0.8 q 2.65,-1.05 5.1,-1 1.3,0 2.2,0.45 l 0.7,0.55 0.25,0.95 -0.05,1.05 q -0.25,0.75 -1.5,1.35 -2.9,1.45 -5.3,2.1 0.45,-0.8 1.8,-1.7 l 1.3,-0.75 1.75,-0.85 0.3,-0.55 q -0.05,-0.3 -0.65,-0.3 -2.5,0.1 -5.95,1.4 -2.7,1.05 -6.3,3 L 39.6,22.2 q -0.65,0.55 -1,0.35 -0.45,-0.3 -0.05,-1.05 m -11.9,4.55 -0.1,0.5 -0.65,0.9 q -1.1,0.95 -2.4,0.4 -0.8,-0.25 -1.2,-1 -0.45,-0.75 -0.3,-1.6 0.1,-0.8 0.75,-1.35 0.65,-0.55 1.5,-0.6 0.8,-0.05 1.5,0.5 0.65,0.5 0.85,1.3 l 0.05,0.95 M 36.1,18.4 q 0.95,0.1 1.4,-0.85 l 0.05,-0.6 -0.25,-0.5 V 16.4 l -2.45,1.05 Q 35.1,18.3 36.1,18.4 M 16.7,29.4 15,29.25 Q 13.75,28.6 13.65,27.1 13.6,26.2 14.3,25.45 q 0.65,-0.75 1.55,-0.85 0.9,-0.1 1.7,0.5 0.8,0.6 1,1.5 0.15,0.9 -0.4,1.75 -0.55,0.85 -1.45,1.05 m 5,0.35 0.7,0.3 q 0.6,0.4 0.65,0.7 l -0.1,0.35 -0.5,0.05 q -0.7,-0.45 -1.1,-0.5 -0.35,-0.05 -0.7,0.2 -0.6,0.3 -0.95,0.8 l -0.5,0.45 q -0.5,0.15 -0.8,-0.4 -0.15,-0.35 0.1,-0.75 l 0.55,-0.45 q 0.8,-0.5 1.25,-0.65 h 0.05 l -0.1,-0.25 0.05,-0.25 q -0.05,-0.45 0.05,-0.6 l 0.3,-0.2 q 0.2,0 0.3,0.2 l 0.15,0.4 0.25,0.25 0.05,0.3 0.3,0.05"
         fill="#ffffff"
         fill-rule="evenodd"
         stroke="none"
         id="path10" />
    </g>
    <g
       id="shape2"
       transform="translate(2,2.05)">
      <path
         d="M -0.5,-0.4 V -0.55 H 75.1 V -0.4 40.8 H -0.5 Z"
         fill="none"
         stroke="#000000"
         stroke-linecap="round"
         stroke-linejoin="round"
         stroke-width="3"
         id="path11" />
    </g>
  </defs>
</svg>
