<?xml version="1.0" encoding="UTF-8" standalone="no"?>
<svg
   ffdec:objectType="frame"
   height="44.349998"
   width="78.599998"
   version="1.1"
   id="svg14"
   sodipodi:docname="26.svg"
   xmlns:inkscape="http://www.inkscape.org/namespaces/inkscape"
   xmlns:sodipodi="http://sodipodi.sourceforge.net/DTD/sodipodi-0.dtd"
   xmlns:xlink="http://www.w3.org/1999/xlink"
   xmlns="http://www.w3.org/2000/svg"
   xmlns:svg="http://www.w3.org/2000/svg"
   xmlns:ffdec="https://www.free-decompiler.com/flash">
  <sodipodi:namedview
     id="namedview14"
     pagecolor="#ffffff"
     bordercolor="#000000"
     borderopacity="0.25"
     inkscape:showpageshadow="2"
     inkscape:pageopacity="0.0"
     inkscape:pagecheckerboard="0"
     inkscape:deskcolor="#d1d1d1"
     fit-margin-top="5"
     fit-margin-left="5"
     fit-margin-right="5"
     fit-margin-bottom="5" />
  <g
     transform="translate(2,2.05)"
     id="g3">
    <use
       ffdec:characterId="1"
       height="42.700001"
       transform="translate(-1.75,-2)"
       width="76.449997"
       xlink:href="#shape0"
       id="use1" />
    <use
       ffdec:characterId="28"
       height="41.599998"
       transform="translate(-0.4,-0.7)"
       width="68.900002"
       xlink:href="#shape1"
       id="use2" />
    <use
       ffdec:characterId="3"
       height="44.349998"
       transform="translate(-2,-2.05)"
       width="78.599998"
       xlink:href="#shape2"
       id="use3" />
  </g>
  <defs
     id="defs14">
    <g
       id="shape0"
       transform="translate(1.75,2)">
      <path
         d="M 2.8,0 V -0.4 H 5.4 V 0 H 9.7 V 19.45 0 H 20.55 L 19.3,19.45 H 9.7 0.25 V 0 H 2.8"
         fill="#ffffff"
         fill-rule="evenodd"
         stroke="none"
         id="path3" />
      <path
         d="M 0.25,19.45 H 9.7 19.3 L 18.7,28.6 16,28.5 10.95,27.95 9.7,27.8 Q 7.45,27.6 5.85,27.75 4.05,27.9 1.5,28.6 0.75,28.8 0.25,29.15 v -9.7 m 9.45,0 v 8.35 -8.35"
         fill="#121212"
         fill-rule="evenodd"
         stroke="none"
         id="path4" />
      <path
         d="m 9.7,27.8 1.25,0.15 5.05,0.55 2.7,0.1 h 1.05 l 3.75,0.15 q 2.45,0.3 3.6,1.25 0.6,0.5 0.6,1.1 0,0.65 -0.8,1 l -1.3,0.2 -7.15,0.15 -5.6,-0.3 L 9.7,31.75 7.95,31.6 3.1,31.95 0.95,32.3 0.25,32.1 -0.35,31.55 -0.5,31.3 V 29.9 L 0.25,29.15 Q 0.75,28.8 1.5,28.6 4.05,27.9 5.85,27.75 7.45,27.6 9.7,27.8 v 3.95 -3.95"
         fill="#999999"
         fill-rule="evenodd"
         stroke="none"
         id="path5" />
      <path
         d="M 2.8,0 H 0.25 M 9.7,0 H 5.4 m 16.15,0 h 10.7 M 20.55,0 H 9.7"
         fill="none"
         stroke="#666666"
         stroke-linecap="round"
         stroke-linejoin="round"
         stroke-width="4"
         id="path6" />
      <path
         d="m 9.7,-0.4 h 65 V 40.5 H 47.05 L 45.5,40.7 27,40.65 25.95,40.5 H 9.7 -0.5 V -0.4 H 9.7 V 40.5 -0.4"
         fill="#ffffff"
         fill-rule="evenodd"
         stroke="none"
         id="path7" />
    </g>
    <g
       id="shape1"
       transform="translate(0.4,0.7)">
      <path
         d="m 30.3,12.35 3.25,-0.1 Q 36.5,12 38.3,11 40.8,9.55 41.1,7.2 41.25,6.1 40.85,4.9 40.15,2.65 38.4,1.2 37.85,0.75 38.05,0.4 38.2,0 38.8,0.25 q 2.45,0.65 3.8,4.15 0.45,1.15 0.5,2 l -0.25,1.95 q -0.95,3.2 -3.35,4.55 -1.05,0.65 -2.7,1 -6.4,1.5 -11.55,-0.25 l -0.5,0.25 -2.4,0.9 -0.85,-0.25 q -0.4,-0.3 -0.4,-1.15 l 0.3,-1.2 0.05,-0.7 -0.65,-0.7 q -2.25,-2.7 -2.2,-5.7 0,-1.6 0.7,-3 0.75,-1.5 2.05,-2.3 0.85,-0.55 1.55,-0.5 1.05,0.2 1.05,1.05 0,0.55 -0.6,1 l -1,0.65 q -1.55,1 -1.7,3 -0.05,1.7 1,3.35 0.75,1.2 2,2.05 1.25,0.9 3.55,1.45 l 3.1,0.5 m 7.35,-9 h 0.45 l 0.6,0.05 q 0.35,0.2 0.45,0.85 L 39.1,4.9 38.4,5.7 37.7,6.75 36.4,6.65 Q 36,6.3 35.7,5.45 L 35.55,4.8 q 0,-0.45 0.4,-0.75 0.35,-0.35 0.8,-0.3 l 0.5,0.05 0.4,-0.45 M 31.5,2.3 32.35,2.9 32.7,3.55 q 0.3,0.8 0.25,1.75 l 0.85,0.3 q 0.25,-0.45 0.75,-0.35 0.3,0 0.8,0.3 l 0.45,0.9 Q 35.9,7 35.65,7.35 L 35.05,7.9 34.4,8.4 34.1,8.95 33.5,9.25 32.85,9.1 32.25,8.2 31.95,7.45 31.5,7.9 30.55,8.65 Q 29.5,9.1 29.1,9.45 L 28.8,9.75 28.75,9.8 Q 28.55,10.3 28,10.4 27.3,10.6 26.95,10 L 26.05,8.95 24.9,8.15 24.5,7.9 23.8,7.05 q -0.55,-0.6 -0.45,-1.75 0,-0.85 0.35,-1.4 l 0.65,-0.75 0.6,-0.55 1.45,-0.2 0.95,0.2 0.55,0.45 0.2,0.2 0.85,-0.85 0.4,-0.35 0.65,-0.1 1,0.1 0.5,0.25 M 0.65,21.85 q 0.4,-3.4 2.4,-5.8 L 2.75,15.3 2.65,14.8 2.45,14.4 2.2,13.5 2.15,13.05 2.05,12.8 q 0,-0.4 0.15,-0.7 l 0.4,-0.5 0.5,-0.05 1.7,0.05 1.15,0.4 1.1,0.35 0.4,0.25 0.1,-0.05 q 2,-0.8 4,-0.8 3.05,0 5.2,1.55 l 1.9,1.9 1.6,-0.05 2.25,0.3 q 0.95,0.15 1.25,0.6 l 0.2,0.8 -0.2,0.6 -0.5,0.45 -0.85,0.75 Q 21.9,19 21.5,19.3 l -0.6,0.55 -0.2,0.5 q 0.25,2.1 -0.05,5.5 -0.35,3.4 -2.9,5.35 l -2.1,1.7 q 0.9,3.5 0.75,5.9 v 0.7 L 16.25,40 v 0.7 L 16.2,40.9 H 1.5 L 0.9,39.75 q -0.85,-1.9 -0.8,-3.6 0.05,-1.1 0.5,-1.9 l -1,-5.9 1.3,-1 0.45,-0.25 q -1,-2.35 -0.7,-5.25 m 9.1,6.35 -0.45,-0.8 0.4,-0.2 1.05,0.05 0.25,0.1 0.35,0.3 0.55,-0.1 0.3,-0.05 0.25,0.1 0.05,0.05 -0.45,0.6 Q 11.4,28.8 10.8,28.75 10.45,28.3 10,28.25 L 9.75,28.2 m 7.85,-7.85 q -0.8,0.15 -1.25,0.75 -0.6,0.8 -0.3,1.75 l 1.45,0.6 0.95,0.65 0.15,0.15 0.9,-0.7 Q 20.2,22.7 19.8,21.6 19.4,20.5 18.25,20.35 H 17.6 M 8.05,23.7 7.8,23.95 Q 7.55,24.4 7.35,25.4 l -0.1,0.6 0.1,0.55 0.5,1.45 0.2,0.3 0.1,0.25 0.2,0.3 0.4,0.4 0.75,0.65 q 1.05,0.75 2.5,0.2 l 0.55,-0.3 0.65,-0.65 0.6,-0.9 0.15,-0.3 0.45,-1.6 V 26.3 l 0.35,-0.05 1.15,-0.95 0.1,-0.25 -0.1,-0.4 -0.05,0.05 -0.65,0.6 -0.5,0.2 -0.6,0.05 -0.8,-0.25 -0.4,-0.4 h -0.05 l -0.2,-0.25 -0.05,-0.1 -0.05,-0.6 0.05,-0.15 -0.35,-0.25 -0.1,0.05 -1.6,0.95 L 8.7,24.3 8.3,23.85 8.2,23.55 8.05,23.7 M 9.8,20.65 Q 9.9,19.8 9.3,19.05 8.75,18.3 7.9,18.15 7.1,18 6.3,18.5 5.5,18.95 5.25,19.75 4.8,21.25 5.9,22.15 L 6.15,22.4 7,22.25 8.1,22.15 9,22.3 q 0.75,-0.6 0.8,-1.65"
         fill="#999999"
         fill-rule="evenodd"
         stroke="none"
         id="path8" />
      <path
         d="M 49.35,20.95 49.4,20.2 q 0,-0.55 0.2,-0.7 0.3,-0.2 0.5,0.1 l 0.05,0.4 q 0,0.9 0.25,1.45 l 0.15,0.45 q 0.1,0.65 -0.4,0.95 l -1,-0.1 q -0.5,-0.35 -0.2,-0.95 l 0.3,-0.45 0.1,-0.4 M 9.8,20.65 Q 9.75,21.7 9,22.3 L 8.1,22.15 7,22.25 6.15,22.4 5.9,22.15 Q 4.8,21.25 5.25,19.75 5.5,18.95 6.3,18.5 7.1,18 7.9,18.15 q 0.85,0.15 1.4,0.9 0.6,0.75 0.5,1.6 m -1.75,3.05 0.15,-0.15 0.1,0.3 0.4,0.45 1.85,0.25 1.6,-0.95 0.1,-0.05 0.35,0.25 -0.05,0.15 0.05,0.6 0.05,0.1 0.2,0.25 h 0.05 l 0.4,0.4 0.8,0.25 0.6,-0.05 0.5,-0.2 0.65,-0.6 0.05,-0.05 0.1,0.4 -0.1,0.25 -1.15,0.95 -0.35,0.05 v 0.05 l -0.45,1.6 -0.15,0.3 -0.6,0.9 L 12.55,29.8 12,30.1 Q 10.55,30.65 9.5,29.9 L 8.75,29.25 8.35,28.85 8.15,28.55 8.05,28.3 7.85,28 7.35,26.55 7.25,26 7.35,25.4 q 0.2,-1 0.45,-1.45 L 8.05,23.7 m 9.55,-3.35 h 0.65 q 1.15,0.15 1.55,1.25 0.4,1.1 -0.3,1.95 l -0.9,0.7 -0.15,-0.15 -0.95,-0.65 -1.45,-0.6 q -0.3,-0.95 0.3,-1.75 0.45,-0.6 1.25,-0.75 M 9.75,28.2 10,28.25 q 0.45,0.05 0.8,0.5 0.6,0.05 1.25,-0.5 L 12.5,27.65 12.45,27.6 12.2,27.5 11.9,27.55 11.35,27.65 11,27.35 10.75,27.25 9.7,27.2 9.3,27.4 9.75,28.2"
         fill="#ffffff"
         fill-rule="evenodd"
         stroke="none"
         id="path9" />
      <path
         d="M 53.25,5.2 52.95,5.55 52.6,5.9 52.4,6 52.25,6.2 52.05,6.4 51.8,6.6 51.5,6.4 51.45,6.35 51.25,6.3 50.6,6.15 50.1,5.9 50.05,5.55 V 5.1 L 50.1,4.8 50.25,4.55 50.65,4.3 q 0.4,-0.15 0.75,0 l 0.15,0.05 0.1,-0.1 Q 51.9,4 52.05,4 h 0.5 Q 53,4.1 53.1,4.35 l 0.1,0.35 0.05,0.5 m -20.9,13.35 q 0.55,-0.45 1,-0.5 0.8,-0.15 1.35,0.55 0.55,0.65 0.4,1.45 -0.1,0.9 -0.85,1.4 l -0.45,0.7 -0.6,0.6 L 32.9,22.8 32.55,22.75 32,22.6 h -0.9 l -0.8,-0.15 -0.5,-0.6 q -0.3,-0.65 0,-1.4 0.25,-0.75 0.95,-1.1 l 0.7,-0.15 0.3,0.05 V 19.2 l 0.6,-0.65"
         fill="#000000"
         fill-rule="evenodd"
         stroke="none"
         id="path10" />
      <path
         d="m 61,19.65 q 0.3,2.7 0,4.35 -0.5,2.85 -2.65,5 l -0.4,0.4 1.2,-0.55 1.7,-0.8 L 62.45,27 63,26.65 62.95,26.1 q 0,-1.05 0.45,-1.55 0.35,-0.55 1.2,-0.65 0.75,0 1.35,0.45 l 0.5,0.7 0.15,0.7 q 0.6,0.15 1.05,0.55 0.7,0.6 0.85,1.65 0.1,1.1 -0.4,1.85 -0.5,0.75 -1.95,1.4 l -3.85,1.8 -2.55,1.1 -2.4,0.55 -0.35,0.1 0.05,0.4 0.4,1.05 1.15,3.45 0.15,0.65 h -21.3 q -0.3,-1.05 -0.25,-2.05 l 0.3,-1.35 0.3,-1.55 v -0.5 l -0.15,-0.4 Q 37.4,33.55 36.85,33 36.15,32.3 35.3,32.65 l -0.9,1.1 -1.05,1.25 q -0.6,0.5 -1.45,0.6 L 30.4,35.35 Q 29.7,34.95 29.35,34.2 29,33.4 29.25,32.65 L 29.4,32.2 29.25,31.6 q 0,-0.7 0.75,-0.8 0.7,0 0.95,0.6 l 0.15,1.2 q -0.1,0.7 0.15,0.8 l 0.35,0.05 0.65,-0.65 0.3,-0.9 Q 33,30.95 34,30.45 l 2.05,-0.4 1.3,0.25 1.1,0.75 0.75,0.7 0.55,1 q 0.6,1.55 0.5,3.15 0.6,-1.4 1.9,-3.55 l 1,-1.5 q -2.75,-0.9 -4.35,-2.8 -2.1,-2.45 -2,-6.5 0.05,-2.2 0.8,-4.2 Q 36.55,16.9 35.75,16.1 35.15,15.5 34.85,14.65 34.5,13.8 34.6,12.6 l 0.2,-1.55 q 0.65,-3 4.1,-4.7 2.3,-1.1 4,-0.5 1,0.35 1.95,1.3 0.95,0.85 1.35,1.8 l 0.05,0.2 1.05,-0.3 3.8,-0.35 3.2,0.5 0.05,-0.15 q 0.6,-1.9 2.5,-2.9 1.75,-0.85 3.85,-0.55 1.85,0.3 3.25,1.5 1.4,1.15 1.85,2.95 l 0.2,1.8 -0.15,1.8 q -0.6,2.7 -3.4,4.4 l -1.55,0.7 0.1,1.1 M 44.3,16 43.05,16.05 42.4,16.6 q -0.45,-0.4 -1.05,-0.4 -0.6,0 -1.15,0.45 -0.5,0.45 -0.65,1.05 -0.25,1.05 0.55,1.55 l 1.15,0.45 0.45,0.5 q 0.5,0.5 1,0.2 L 43.35,19.75 44,19 l 0.9,-0.5 0.3,-0.4 0.3,-0.55 q 0.35,-0.85 -0.45,-1.3 L 44.3,16 m 4.05,7.9 1,-0.6 1,0.6 0.3,0.1 1.1,0.1 h 0.2 l -1,1.05 -1.3,0.4 -1.1,0.1 q -0.7,-0.05 -1.5,-0.7 l -0.75,-0.9 0.65,0.05 1.1,-0.1 0.3,-0.1 m -3.7,-3.15 -0.2,0.1 q -0.6,0.35 -0.75,0.9 L 43.85,23 q 0.2,1.05 0.85,2 0.6,0.9 2.2,1.7 l 0.9,0.4 0.5,0.1 0.95,0.05 1.1,-0.1 0.7,-0.2 0.65,-0.3 1.2,-0.95 0.65,-1 0.35,-0.95 V 23.7 l 0.25,-0.15 0.25,-0.25 0.55,-0.95 0.05,-0.6 -0.75,-0.9 -0.2,-0.1 q -0.2,0 -0.3,0.2 l -0.05,0.35 -0.3,0.75 -0.3,0.2 -0.3,0.15 -0.85,0.15 -1,-0.25 -0.75,-0.6 -0.4,-0.5 -0.4,-0.1 h -0.1 l -0.4,0.1 -0.4,0.5 -0.75,0.6 -1,0.25 L 45.9,22.4 45.6,22.25 45.3,22.05 45,21.3 44.95,20.95 q -0.1,-0.2 -0.3,-0.2 M 54.4,16 53.65,16.25 q -0.8,0.45 -0.45,1.3 l 0.3,0.55 0.3,0.4 0.9,0.5 0.65,0.75 0.65,0.65 q 0.5,0.3 1,-0.2 l 0.45,-0.5 1.15,-0.45 Q 59.4,18.75 59.15,17.7 59,17.1 58.5,16.65 57.95,16.2 57.35,16.2 q -0.6,0 -1.05,0.4 L 55.65,16.05 54.4,16"
         fill="#000000"
         fill-rule="evenodd"
         stroke="none"
         id="path11" />
      <path
         d="m 44.65,20.75 q 0.2,0 0.3,0.2 l 0.05,0.35 0.3,0.75 0.3,0.2 0.3,0.15 0.85,0.15 1,-0.25 0.75,-0.6 0.4,-0.5 0.4,-0.1 h 0.1 l 0.4,0.1 0.4,0.5 0.75,0.6 1,0.25 0.85,-0.15 0.3,-0.15 0.3,-0.2 0.3,-0.75 0.05,-0.35 q 0.1,-0.2 0.3,-0.2 l 0.2,0.1 0.75,0.9 -0.05,0.6 -0.55,0.95 -0.25,0.25 -0.25,0.15 v 0.05 l -0.35,0.95 -0.65,1 -1.2,0.95 -0.65,0.3 -0.7,0.2 -1.1,0.1 L 48.3,27.2 47.8,27.1 46.9,26.7 Q 45.3,25.9 44.7,25 44.05,24.05 43.85,23 L 43.7,21.75 q 0.15,-0.55 0.75,-0.9 l 0.2,-0.1 m 3.7,3.15 -0.3,0.1 -1.1,0.1 -0.65,-0.05 0.75,0.9 q 0.8,0.65 1.5,0.7 l 1.1,-0.1 1.3,-0.4 1,-1.05 h -0.2 l -1.1,-0.1 -0.3,-0.1 -1,-0.6 -1,0.6"
         fill="#ffffff"
         fill-rule="evenodd"
         stroke="none"
         id="path12" />
      <path
         d="m 44.3,16 0.75,0.25 q 0.8,0.45 0.45,1.3 L 45.2,18.1 44.9,18.5 44,19 43.35,19.75 42.7,20.4 q -0.5,0.3 -1,-0.2 L 41.25,19.7 40.1,19.25 q -0.8,-0.5 -0.55,-1.55 0.15,-0.6 0.65,-1.05 0.55,-0.45 1.15,-0.45 0.6,0 1.05,0.4 L 43.05,16.05 44.3,16 m 10.1,0 1.25,0.05 0.65,0.55 q 0.45,-0.4 1.05,-0.4 0.6,0 1.15,0.45 0.5,0.45 0.65,1.05 0.25,1.05 -0.55,1.55 L 57.45,19.7 57,20.2 q -0.5,0.5 -1,0.2 L 55.35,19.75 54.7,19 53.8,18.5 53.5,18.1 53.2,17.55 q -0.35,-0.85 0.45,-1.3 L 54.4,16"
         fill="#999999"
         fill-rule="evenodd"
         stroke="none"
         id="path13" />
    </g>
    <g
       id="shape2"
       transform="translate(2,2.05)">
      <path
         d="M -0.5,-0.4 V -0.55 H 75.1 V -0.4 40.8 H -0.5 Z"
         fill="none"
         stroke="#000000"
         stroke-linecap="round"
         stroke-linejoin="round"
         stroke-width="3"
         id="path14" />
    </g>
  </defs>
</svg>
