<?xml version="1.0" encoding="UTF-8" standalone="no"?>
<svg
   ffdec:objectType="frame"
   height="44.349998"
   width="78.599998"
   version="1.1"
   id="svg13"
   sodipodi:docname="99.svg"
   xmlns:inkscape="http://www.inkscape.org/namespaces/inkscape"
   xmlns:sodipodi="http://sodipodi.sourceforge.net/DTD/sodipodi-0.dtd"
   xmlns:xlink="http://www.w3.org/1999/xlink"
   xmlns="http://www.w3.org/2000/svg"
   xmlns:svg="http://www.w3.org/2000/svg"
   xmlns:ffdec="https://www.free-decompiler.com/flash">
  <sodipodi:namedview
     id="namedview13"
     pagecolor="#ffffff"
     bordercolor="#000000"
     borderopacity="0.25"
     inkscape:showpageshadow="2"
     inkscape:pageopacity="0.0"
     inkscape:pagecheckerboard="0"
     inkscape:deskcolor="#d1d1d1"
     fit-margin-top="5"
     fit-margin-left="5"
     fit-margin-right="5"
     fit-margin-bottom="5" />
  <g
     transform="translate(2,2.05)"
     id="g3">
    <use
       ffdec:characterId="1"
       height="42.700001"
       transform="translate(-1.75,-2)"
       width="76.449997"
       xlink:href="#shape0"
       id="use1" />
    <use
       ffdec:characterId="97"
       height="40.25"
       transform="translate(0,0.1)"
       width="75.650002"
       xlink:href="#shape1"
       id="use2" />
    <use
       ffdec:characterId="3"
       height="44.349998"
       transform="translate(-2,-2.05)"
       width="78.599998"
       xlink:href="#shape2"
       id="use3" />
  </g>
  <defs
     id="defs13">
    <g
       id="shape0"
       transform="translate(1.75,2)">
      <path
         d="M 2.8,0 V -0.4 H 5.4 V 0 H 9.7 V 19.45 0 H 20.55 L 19.3,19.45 H 9.7 0.25 V 0 H 2.8"
         fill="#ffffff"
         fill-rule="evenodd"
         stroke="none"
         id="path3" />
      <path
         d="M 0.25,19.45 H 9.7 19.3 L 18.7,28.6 16,28.5 10.95,27.95 9.7,27.8 Q 7.45,27.6 5.85,27.75 4.05,27.9 1.5,28.6 0.75,28.8 0.25,29.15 v -9.7 m 9.45,0 v 8.35 -8.35"
         fill="#121212"
         fill-rule="evenodd"
         stroke="none"
         id="path4" />
      <path
         d="m 9.7,27.8 1.25,0.15 5.05,0.55 2.7,0.1 h 1.05 l 3.75,0.15 q 2.45,0.3 3.6,1.25 0.6,0.5 0.6,1.1 0,0.65 -0.8,1 l -1.3,0.2 -7.15,0.15 -5.6,-0.3 L 9.7,31.75 7.95,31.6 3.1,31.95 0.95,32.3 0.25,32.1 -0.35,31.55 -0.5,31.3 V 29.9 L 0.25,29.15 Q 0.75,28.8 1.5,28.6 4.05,27.9 5.85,27.75 7.45,27.6 9.7,27.8 v 3.95 -3.95"
         fill="#999999"
         fill-rule="evenodd"
         stroke="none"
         id="path5" />
      <path
         d="M 2.8,0 H 0.25 M 9.7,0 H 5.4 m 16.15,0 h 10.7 M 20.55,0 H 9.7"
         fill="none"
         stroke="#666666"
         stroke-linecap="round"
         stroke-linejoin="round"
         stroke-width="4"
         id="path6" />
      <path
         d="m 9.7,-0.4 h 65 V 40.5 H 47.05 L 45.5,40.7 27,40.65 25.95,40.5 H 9.7 -0.5 V -0.4 H 9.7 V 40.5 -0.4"
         fill="#ffffff"
         fill-rule="evenodd"
         stroke="none"
         id="path7" />
    </g>
    <g
       id="shape1"
       transform="translate(0,-0.1)">
      <path
         d="m 32.35,16.55 q -0.1,-0.3 0.25,-1 l 0.45,-0.75 q 0.7,-1.3 1.55,-2.25 l 0.3,-0.25 q 0.4,-0.2 0.5,0.3 v 0.6 l -0.6,1.2 q -0.45,0.7 -0.55,1.15 l 1.05,0.5 q 0.8,0.3 1.1,0.55 0.6,0.5 0.45,1.05 l -0.5,0.7 -1.8,1.5 -0.25,0.3 0.05,0.3 0.7,1.8 0.15,1.45 q -0.25,0.85 -1,1 -0.7,0.25 -1.35,-0.3 -0.4,-0.35 -0.7,-1.25 L 31.9,22 31.85,21.85 V 21.5 l -0.1,-0.3 -0.2,-1.6 q 0.1,-0.45 0.35,-0.65 l 0.2,-0.15 2.1,-0.95 -0.8,-0.55 q -0.95,-0.45 -1.05,-0.75"
         fill="#000000"
         fill-rule="evenodd"
         stroke="none"
         id="path8" />
      <path
         d="m 45.85,20.85 -0.75,0.55 -0.6,0.4 1.55,0.75 0.15,0.1 0.25,0.5 -0.15,1.2 -0.05,0.2 v 0.3 l -0.05,0.1 -0.2,0.85 -0.5,0.95 q -0.5,0.4 -1,0.2 -0.6,-0.1 -0.75,-0.75 -0.15,-0.35 0.1,-1.05 l 0.5,-1.35 0.05,-0.25 -0.2,-0.2 -1.35,-1.15 -0.35,-0.55 q -0.1,-0.4 0.35,-0.75 0.2,-0.2 0.8,-0.45 l 0.8,-0.35 -0.4,-0.85 -0.45,-0.9 V 17.9 q 0.05,-0.4 0.35,-0.25 l 0.25,0.2 1.15,1.7 0.35,0.55 0.15,0.75 M 60.5,9.35 61.45,9.6 62.25,9.15 63.7,8.7 65.3,8.3 q 0.95,0.1 1.65,1.1 0.4,0.5 0.8,1.85 0.8,3.2 0.65,6.15 l -0.05,1.05 q 0.4,1.85 0.3,3.5 -0.35,3.85 -3.05,5.75 -0.9,0.65 -2.6,1.1 1.4,1.45 2.6,3.6 1.45,2.85 2.2,5.45 l 0.05,0.2 0.05,-0.3 q -0.05,-0.8 -0.5,-1.8 L 66.7,34.2 q -0.8,-2.2 -0.2,-4 0.6,-2.2 2.55,-2.95 l 1.55,-0.3 q 1.45,0 2.4,0.55 0.55,0.25 1.3,1 0.9,0.9 1.2,1.9 0.4,1.3 -0.15,2.25 -0.5,0.9 -1.5,1.25 L 71.9,33.6 q -1.15,-0.65 -1.4,-2.35 h -0.55 q -0.2,1 0.25,2.7 l 0.65,2.7 q 0.2,1.3 -0.4,2.65 l -0.6,1 H 60.7 l -0.15,-0.2 -0.15,0.2 h -4.95 l -0.2,-0.8 0.05,-1 0.15,-3.6 v -0.15 q -1.25,0.9 -2.4,1.3 L 51.5,36.4 49.15,36.3 Q 46.9,36 45.9,35.5 q -1.1,-0.4 -1.95,-1.15 -0.9,-0.75 -1.3,-1.55 -0.5,-0.95 -0.4,-2.05 0.1,-1.1 0.8,-1.9 0.65,-0.8 1.75,-1.1 l 2.05,0.1 q 1.9,0.75 2.55,3.35 1.55,0.75 3.25,0.35 1.05,-0.3 2.35,-1.25 l 1.05,-0.75 v -0.1 l -0.6,-0.15 q -2.75,-0.65 -4.1,-1.45 -2.8,-1.65 -3.8,-4.7 -0.85,-2.4 -0.3,-4.75 -0.05,-1.65 0.2,-3.9 l 0.2,-3.2 q 0.2,-0.9 0.95,-1.2 l 1.1,-0.15 q 2,0.1 3.8,0.7 L 55.1,9.8 q 2.75,-1 5.4,-0.45"
         fill="#999999"
         fill-rule="evenodd"
         stroke="none"
         id="path9" />
      <path
         d="M 15.55,4.25 Q 18.6,3.6 21.8,4.8 q 0.95,0.4 1.9,0.95 2.1,-0.7 4.45,-0.8 L 29.4,5.1 q 0.9,0.35 1.1,1.45 l 0.25,3.7 0.25,4.55 q 0.6,2.75 -0.35,5.55 -1.2,3.55 -4.45,5.45 -1.55,0.95 -4.8,1.7 l -0.65,0.2 v 0.1 l 1.2,0.85 q 1.5,1.15 2.75,1.5 1.95,0.45 3.75,-0.45 0.8,-3 3,-3.9 l 2.4,-0.1 q 1.25,0.35 2.05,1.3 0.8,0.9 0.9,2.2 0.1,1.3 -0.45,2.4 -0.45,0.95 -1.5,1.8 -1,0.85 -2.3,1.35 -1.15,0.55 -3.8,0.9 l -2.7,0.15 -1.85,-0.45 q -1.3,-0.45 -2.75,-1.5 v 0.2 l 0.15,4.2 0.05,1.15 -0.25,0.95 H 15.65 L 15.5,40.1 15.3,40.35 H 4.65 l -0.7,-1.2 q -0.7,-1.55 -0.5,-3.1 l 0.8,-3.1 q 0.5,-2 0.25,-3.15 H 3.9 q -0.3,1.95 -1.65,2.7 -1,0.6 -2.25,0.35 v -6.8 L 0.95,25.4 q 1.1,-0.65 2.8,-0.65 l 1.8,0.35 q 2.3,0.9 3,3.45 0.7,2.1 -0.25,4.65 l -0.8,2.05 q -0.55,1.2 -0.6,2.1 L 6.95,37.7 7,37.5 q 0.9,-3.05 2.6,-6.35 1.4,-2.55 3,-4.2 -1.95,-0.55 -3,-1.3 Q 6.45,23.45 6.05,18.95 5.9,17 6.4,14.85 L 6.3,13.65 Q 6.15,10.2 7.1,6.45 7.55,4.9 8,4.3 8.85,3.15 9.95,3.05 l 1.85,0.45 1.7,0.5 0.9,0.55 1.15,-0.3 m -1.9,10.3 -0.3,0.5 q -0.3,0.55 -0.4,1.45 L 13,16.95 q 0.1,0.95 0.65,1.75 l 1.45,1.1 q 2,0.75 3.55,-0.65 0.7,-0.65 0.95,-1.6 0.25,-0.95 0,-1.85 Q 19.4,14.8 18.65,14.15 17.9,13.5 17,13.3 l -1.85,0.2 q -0.95,0.35 -1.5,1.05 m 8.55,5.15 -0.7,-0.05 q -0.35,-0.25 -0.15,-0.7 l 0.15,-0.3 v -0.3 L 21.05,18.3 q -0.65,0.3 -0.9,1.15 l -0.05,0.7 0.05,0.4 v 0.6 q 0.05,0.45 0.4,0.95 0.7,0.95 1.8,0.85 L 23,22.7 l 0.5,-0.6 0.25,-1.1 1.2,-0.25 0.65,-0.8 0.05,-1 -0.55,-0.55 q -0.5,-0.1 -0.6,0.35 l 0.05,0.65 -0.5,0.3 -0.55,-0.25 -0.65,-0.3 Q 22.7,19.2 22.5,19.4 l -0.3,0.3 m 3.5,-1.6 1.3,1.05 1.65,0.2 q 0.8,-0.15 1.45,-0.75 0.6,-0.6 0.8,-1.4 0.25,-0.8 -0.05,-1.6 -0.25,-0.8 -0.9,-1.35 -1.45,-1.2 -3.1,-0.35 -0.7,0.35 -1.2,1.05 -0.45,0.75 -0.45,1.55 l 0.2,1 0.3,0.6"
         fill="#000000"
         fill-rule="evenodd"
         stroke="none"
         id="path10" />
      <path
         d="m 65.3,20.75 q -0.4,0.9 -1.3,1.45 -0.9,0.55 -1.9,0.55 -1,-0.05 -1.8,-0.6 -0.9,-0.6 -1.25,-1.55 -0.25,-0.5 -0.25,-1.3 0,-0.85 0.45,-1.7 0.45,-0.8 1.25,-1.25 1.75,-1 3.4,0 0.95,0.55 1.4,1.5 0.7,1.55 0,2.9 m -11.25,-1.2 0.1,0.75 -0.05,0.4 Q 53.85,22.35 52.35,23 50.9,23.65 49.5,22.75 48.15,21.8 48.15,20.2 q 0.1,-1.6 1.35,-2.45 1.25,-0.85 2.75,-0.3 1.5,0.6 1.8,2.1 m 3.25,3.7 q 0.75,0.4 0.9,1.15 0.2,0.9 -0.45,1.35 l -1.1,0.35 -1.1,-0.25 q -0.85,-0.5 -0.7,-1.45 0.1,-0.8 0.85,-1.2 v -0.05 l 0.1,-0.55 0.4,-0.4 0.65,0.2 0.2,0.8 0.25,0.05 m -31.6,-5.15 -0.3,-0.6 -0.2,-1 q 0,-0.8 0.45,-1.55 0.5,-0.7 1.2,-1.05 1.65,-0.85 3.1,0.35 0.65,0.55 0.9,1.35 0.3,0.8 0.05,1.6 -0.2,0.8 -0.8,1.4 -0.65,0.6 -1.45,0.75 L 27,19.15 25.7,18.1 m -3.5,1.6 0.3,-0.3 q 0.2,-0.2 0.35,-0.25 l 0.65,0.3 0.55,0.25 0.5,-0.3 -0.05,-0.65 q 0.1,-0.45 0.6,-0.35 l 0.55,0.55 -0.05,1 -0.65,0.8 -1.2,0.25 -0.25,1.1 -0.5,0.6 -0.65,0.25 q -1.1,0.1 -1.8,-0.85 -0.35,-0.5 -0.4,-0.95 v -0.6 l -0.05,-0.4 0.05,-0.7 q 0.25,-0.85 0.9,-1.15 l 0.45,0.05 v 0.3 l -0.15,0.3 q -0.2,0.45 0.15,0.7 l 0.7,0.05 m -8.55,-5.15 q 0.55,-0.7 1.5,-1.05 L 17,13.3 q 0.9,0.2 1.65,0.85 0.75,0.65 0.95,1.55 0.25,0.9 0,1.85 -0.25,0.95 -0.95,1.6 -1.55,1.4 -3.55,0.65 L 13.65,18.7 Q 13.1,17.9 13,16.95 L 12.95,16.5 q 0.1,-0.9 0.4,-1.45 l 0.3,-0.5"
         fill="#ffffff"
         fill-rule="evenodd"
         stroke="none"
         id="path11" />
      <path
         d="M 55.1,2.6 54.9,1.4 Q 55,0.85 55.45,0.45 55.95,0.05 56.5,0.1 57.1,0.2 57.45,0.65 57.85,1.1 57.8,1.7 L 57.55,2.65 57.35,4.05 57.1,5.4 Q 57,6.1 56.5,6 56.15,5.95 56.05,5.4 L 55.1,2.6 m 0.55,5.05 0.15,-0.6 q 0.3,-0.4 0.7,-0.35 l 0.1,-0.05 q 0.65,0 0.9,0.6 0.25,0.55 -0.2,1.1 -0.5,0.45 -1.05,0.2 -0.6,-0.25 -0.6,-0.9"
         fill="#999999"
         fill-rule="evenodd"
         stroke="none"
         id="path12" />
    </g>
    <g
       id="shape2"
       transform="translate(2,2.05)">
      <path
         d="M -0.5,-0.4 V -0.55 H 75.1 V -0.4 40.8 H -0.5 Z"
         fill="none"
         stroke="#000000"
         stroke-linecap="round"
         stroke-linejoin="round"
         stroke-width="3"
         id="path13" />
    </g>
  </defs>
</svg>
