<?xml version="1.0" encoding="UTF-8" standalone="no"?>
<svg
   ffdec:objectType="frame"
   height="44.349998"
   width="78.599998"
   version="1.1"
   id="svg12"
   sodipodi:docname="119.svg"
   xmlns:inkscape="http://www.inkscape.org/namespaces/inkscape"
   xmlns:sodipodi="http://sodipodi.sourceforge.net/DTD/sodipodi-0.dtd"
   xmlns:xlink="http://www.w3.org/1999/xlink"
   xmlns="http://www.w3.org/2000/svg"
   xmlns:svg="http://www.w3.org/2000/svg"
   xmlns:ffdec="https://www.free-decompiler.com/flash">
  <sodipodi:namedview
     id="namedview12"
     pagecolor="#ffffff"
     bordercolor="#000000"
     borderopacity="0.25"
     inkscape:showpageshadow="2"
     inkscape:pageopacity="0.0"
     inkscape:pagecheckerboard="0"
     inkscape:deskcolor="#d1d1d1"
     fit-margin-top="5"
     fit-margin-left="5"
     fit-margin-right="5"
     fit-margin-bottom="5" />
  <g
     transform="translate(2,2.05)"
     id="g3">
    <use
       ffdec:characterId="1"
       height="42.700001"
       transform="translate(-1.75,-2)"
       width="76.449997"
       xlink:href="#shape0"
       id="use1" />
    <use
       ffdec:characterId="120"
       height="43.049999"
       transform="translate(-0.6,-1.3)"
       width="76.300003"
       xlink:href="#shape1"
       id="use2" />
    <use
       ffdec:characterId="3"
       height="44.349998"
       transform="translate(-2,-2.05)"
       width="78.599998"
       xlink:href="#shape2"
       id="use3" />
  </g>
  <defs
     id="defs12">
    <g
       id="shape0"
       transform="translate(1.75,2)">
      <path
         d="M 2.8,0 V -0.4 H 5.4 V 0 H 9.7 V 19.45 0 H 20.55 L 19.3,19.45 H 9.7 0.25 V 0 H 2.8"
         fill="#ffffff"
         fill-rule="evenodd"
         stroke="none"
         id="path3" />
      <path
         d="M 0.25,19.45 H 9.7 19.3 L 18.7,28.6 16,28.5 10.95,27.95 9.7,27.8 Q 7.45,27.6 5.85,27.75 4.05,27.9 1.5,28.6 0.75,28.8 0.25,29.15 v -9.7 m 9.45,0 v 8.35 -8.35"
         fill="#121212"
         fill-rule="evenodd"
         stroke="none"
         id="path4" />
      <path
         d="m 9.7,27.8 1.25,0.15 5.05,0.55 2.7,0.1 h 1.05 l 3.75,0.15 q 2.45,0.3 3.6,1.25 0.6,0.5 0.6,1.1 0,0.65 -0.8,1 l -1.3,0.2 -7.15,0.15 -5.6,-0.3 L 9.7,31.75 7.95,31.6 3.1,31.95 0.95,32.3 0.25,32.1 -0.35,31.55 -0.5,31.3 V 29.9 L 0.25,29.15 Q 0.75,28.8 1.5,28.6 4.05,27.9 5.85,27.75 7.45,27.6 9.7,27.8 v 3.95 -3.95"
         fill="#999999"
         fill-rule="evenodd"
         stroke="none"
         id="path5" />
      <path
         d="M 2.8,0 H 0.25 M 9.7,0 H 5.4 m 16.15,0 h 10.7 M 20.55,0 H 9.7"
         fill="none"
         stroke="#666666"
         stroke-linecap="round"
         stroke-linejoin="round"
         stroke-width="4"
         id="path6" />
      <path
         d="m 9.7,-0.4 h 65 V 40.5 H 47.05 L 45.5,40.7 27,40.65 25.95,40.5 H 9.7 -0.5 V -0.4 H 9.7 V 40.5 -0.4"
         fill="#ffffff"
         fill-rule="evenodd"
         stroke="none"
         id="path7" />
    </g>
    <g
       id="shape1"
       transform="translate(0.6,1.3)">
      <path
         d="m 74.65,21.25 q 0.3,2.9 -0.7,5.25 l 0.45,0.25 1.3,1 -1.1,6.7 L 62.55,34.5 62.2,34.1 62,33.6 46.6,29.7 44.25,28.8 Q 42.9,27.95 43,26.6 q 0,-0.85 0.65,-1.7 0.7,-0.9 1.6,-1.15 l 1.1,-0.15 0.05,-0.4 q 0.15,-0.85 0.9,-1.3 l 1.5,0.05 q 0.5,0.3 0.6,0.95 l -0.15,1.25 -0.05,0.1 q 0.8,0.2 2,0.75 l 4.15,1.85 q -0.65,-1.5 -0.85,-3.2 -0.2,-1.9 0.1,-3.9 h -0.15 l -0.6,-0.5 -0.8,-1 -1,-0.95 -0.5,-0.45 -0.2,-0.6 0.2,-0.8 q 0.3,-0.45 1.25,-0.6 l 2.25,-0.3 1.6,0.05 q 0.8,-1.15 1.9,-1.9 2.15,-1.55 5.2,-1.55 2,0 4,0.8 l 0.1,0.05 0.4,-0.25 1.1,-0.35 1.15,-0.4 1.7,-0.05 0.5,0.05 0.4,0.5 0.15,0.7 -0.1,0.25 -0.05,0.45 -0.25,0.9 -0.2,0.4 -0.1,0.5 -0.3,0.75 q 2,2.4 2.4,5.8"
         fill="#999999"
         fill-rule="evenodd"
         stroke="none"
         id="path8" />
      <path
         d="M 2.4,11.15 2.2,10 2.15,9.3 2,8.6 1.8,7.25 V 6.55 L 1.75,6.15 Q 1.85,5.55 2.1,5.15 2.35,4.65 2.9,4.5 L 3.7,4.45 6.2,4.9 7.85,5.6 9.5,6.4 l 0.55,0.45 0.15,-0.1 6.25,-0.5 q 4.65,0.55 7.55,3.2 1.4,1.35 2.35,3.15 l 2.5,0.25 3.35,0.85 q 1.4,0.4 1.75,1.05 Q 34.2,15.3 34,16 l -0.45,0.85 -0.8,0.65 -1.7,1.2 -1.5,1.4 -1.1,0.55 -0.25,0.05 q 0.05,3 -0.75,5.8 -0.7,2.55 -2.1,4.6 l 5.5,-1.6 -0.3,-1.2 h -0.2 L 29.7,28.25 29.15,28 Q 28.2,27.3 28.05,26.55 V 26 l 0.2,-1.05 0.25,-0.45 0.6,-0.75 0.55,-0.4 1.05,-0.3 q 0.9,-0.15 1.85,0.45 l 0.4,0.35 0.1,-0.05 1.05,-0.55 1.8,-0.55 0.05,-0.1 0.3,-0.55 0.7,-0.8 0.65,-0.5 q 0.3,-0.2 0.7,-0.3 l 1.25,-0.15 0.8,0.05 q 0.55,0.05 1.25,0.55 l 0.75,0.7 0.25,0.95 0.05,0.6 -0.55,1.5 -0.3,0.5 -0.15,0.15 0.05,0.2 q 0.3,0.85 0.25,1.7 L 42,27.8 v 0.75 q 0.9,0.6 1.6,1.7 0.8,1.4 0.65,2.7 -0.25,1.95 -2.45,3 l -0.5,0.2 0.15,0.6 q 0.25,1 -0.15,2 l 1.55,-0.2 1.75,-1.05 q 0.55,-0.45 0.55,-0.95 l -0.1,-0.75 0.25,-0.6 0.5,-0.45 0.35,-0.1 0.7,-0.2 q 0.5,0 0.5,0.35 0,0.35 -0.4,0.45 l -0.55,0.2 0.45,1.25 q 0.2,0.65 0,1.05 l -0.3,0.6 -1.6,1.9 -1.3,0.65 -2.3,0.45 -1.5,-0.3 -0.65,-0.25 -0.05,-0.05 -0.9,0.3 -1.35,0.15 q -0.75,-0.1 -1.1,-0.65 l -0.15,-0.35 -0.1,0.25 -0.35,0.6 -0.65,0.5 -0.6,0.2 -1.25,-0.25 -1,-0.8 -0.2,-0.4 -0.2,-0.45 q -0.35,-1 -0.2,-1.8 l 0.05,-0.3 -17.5,2.3 -0.45,0.7 L 12.55,41.3 -0.6,39.75 V 14.9 q 1.25,-2.1 3,-3.75 m 20.4,8.3 q -0.75,-0.05 -1.4,0.4 -0.7,0.4 -1,1.1 -0.3,0.65 -0.15,1.45 0.15,0.75 0.7,1.3 0.5,0.5 1.3,0.65 l 1.45,-0.15 1.1,-1 0.35,-1.4 Q 25.1,20.85 24.4,20.2 23.7,19.5 22.8,19.45 m 9.55,8.15 0.6,0.45 -0.3,0.55 q -0.2,0.55 -0.05,0.75 0.35,0.35 0.75,-0.1 l 0.4,-0.65 0.3,0.35 0.35,0.3 Q 34.8,29.35 35,29 35.2,28.4 34.65,27.85 L 34.45,27.7 34.7,27.4 35,27.1 v -0.55 q -0.15,-0.3 -0.5,-0.3 l -0.4,0.1 -0.35,0.4 -0.2,0.3 -0.65,-0.45 -0.45,-0.05 q -0.25,0.1 -0.35,0.3 -0.1,0.25 0.25,0.75 M 37.1,30.35 36.75,30.3 H 36.7 v -0.15 l -0.15,-0.3 -0.05,-0.6 -0.3,-0.35 -0.05,0.05 -0.25,0.2 -0.05,0.25 V 30 l -0.05,0.05 -0.7,0.75 -0.15,0.25 v 0.4 l 0.3,0.2 H 35.5 L 36,31.3 36.35,31 l 0.05,-0.05 0.4,0.1 0.1,0.1 0.3,0.15 0.25,-0.05 0.1,-0.4 -0.45,-0.5 m 0.35,-4.3 0.45,0.75 -0.45,0.45 -0.35,0.5 q -0.1,0.4 0.2,0.55 l 0.4,-0.05 0.5,-0.35 0.35,-0.25 0.15,0.3 q 0.4,0.5 0.85,0.15 L 39.7,27.35 39.45,27 39.6,26.85 40.05,26.4 v -0.65 q -0.3,-0.4 -0.75,-0.2 l -0.7,0.5 -0.3,-0.3 -0.35,-0.25 h -0.4 Q 37.4,25.6 37.4,26 l 0.05,0.05 m -31,-3.2 -0.2,1.4 q -0.1,1.5 1,2.45 l 1.05,0.6 q 1.65,0.55 3.15,-0.3 l 0.8,-0.3 1.1,1.25 2.8,0.35 0.85,-0.2 0.55,-0.5 0.85,-1 q 0.35,-0.55 0.25,-1.25 l -0.25,-0.4 -0.75,-0.05 -0.75,0.6 -0.8,0.55 q -0.55,0.25 -1.2,0 l -0.95,-0.8 -0.65,-1.15 -1.1,-0.05 -0.6,0.6 -0.8,0.5 q -1.35,0.6 -2.15,0 Q 8.1,24.7 7.9,23.6 L 7.85,23 7.95,22.35 Q 7.85,21.9 7.35,21.9 7,21.85 6.7,22.2 L 6.45,22.85 M 3.7,16.75 q -0.5,0.8 -0.35,1.8 0.2,1.05 1,1.55 0.8,0.55 1.8,0.4 1.05,-0.15 1.6,-0.9 0.6,-0.8 0.5,-1.8 Q 8.1,16.75 7.35,16.15 6.45,15.5 5.4,15.65 4.35,15.8 3.7,16.75"
         fill="#000000"
         fill-rule="evenodd"
         stroke="none"
         id="path9" />
      <path
         d="m 67.3,18.5 q -0.1,-0.35 0.05,-0.6 l 0.25,-0.5 q 0.25,-0.35 0.75,-0.5 l 0.9,0.05 q 1.05,0.35 0.95,1.45 l -0.3,0.85 -0.8,0.5 -0.9,-0.1 -0.7,-0.55 -0.2,-0.6 m -3.2,6.2 -0.2,0.25 -0.4,0.4 -0.95,0.55 -0.8,0.35 -0.9,-0.05 q -1,-0.2 -1.3,-0.75 l -0.15,-0.5 q 0.05,-0.3 0.25,-0.4 h 0.55 l 0.5,0.25 q 0.7,0.25 1.65,-0.3 0.85,-0.55 1.4,-1.5 0.25,-0.5 0.5,-0.55 0.3,-0.05 0.7,0.25 L 66.1,23 h 1.2 l 1,-0.65 0.5,-0.5 q 0.3,-0.25 0.7,-0.15 l 0.4,0.4 0.05,0.65 -0.75,0.95 q -0.75,0.75 -1.45,0.95 l -0.9,0.05 -2.45,-0.5 -0.3,0.5 m -7.75,-1.15 q -0.7,-0.6 -0.6,-1.5 0.1,-1.15 1.15,-1.55 1.05,-0.45 1.85,0.3 0.85,0.65 0.65,1.8 -0.25,1 -1.25,1.35 -1.05,0.35 -1.8,-0.4 M 22.8,19.45 q 0.9,0.05 1.6,0.75 0.7,0.65 0.75,1.6 l -0.35,1.4 -1.1,1 -1.45,0.15 q -0.8,-0.15 -1.3,-0.65 -0.55,-0.55 -0.7,-1.3 -0.15,-0.8 0.15,-1.45 0.3,-0.7 1,-1.1 0.65,-0.45 1.4,-0.4 M 3.7,16.75 q 0.65,-0.95 1.7,-1.1 1.05,-0.15 1.95,0.5 0.75,0.6 0.9,1.65 0.1,1 -0.5,1.8 -0.55,0.75 -1.6,0.9 -1,0.15 -1.8,-0.4 -0.8,-0.5 -1,-1.55 -0.15,-1 0.35,-1.8 m 2.75,6.1 0.25,-0.65 q 0.3,-0.35 0.65,-0.3 0.5,0 0.6,0.45 L 7.85,23 7.9,23.6 q 0.2,1.1 0.75,1.55 0.8,0.6 2.15,0 l 0.8,-0.5 0.6,-0.6 1.1,0.05 0.65,1.15 0.95,0.8 q 0.65,0.25 1.2,0 l 0.8,-0.55 0.75,-0.6 0.75,0.05 0.25,0.4 q 0.1,0.7 -0.25,1.25 l -0.85,1 -0.55,0.5 -0.85,0.2 -2.8,-0.35 -1.1,-1.25 -0.8,0.3 Q 9.95,27.85 8.3,27.3 L 7.25,26.7 q -1.1,-0.95 -1,-2.45 l 0.2,-1.4 m 31,3.2 L 37.4,26 q 0,-0.4 0.15,-0.5 h 0.4 l 0.35,0.25 0.3,0.3 0.7,-0.5 q 0.45,-0.2 0.75,0.2 V 26.4 L 39.6,26.85 39.45,27 39.7,27.35 39.55,28.1 Q 39.1,28.45 38.7,27.95 l -0.15,-0.3 -0.35,0.25 -0.5,0.35 -0.4,0.05 Q 37,28.15 37.1,27.75 l 0.35,-0.5 0.45,-0.45 -0.45,-0.75 m -0.35,4.3 0.45,0.5 -0.1,0.4 -0.25,0.05 -0.3,-0.15 -0.1,-0.1 -0.4,-0.1 L 36.35,31 36,31.3 35.5,31.65 h -0.25 l -0.3,-0.2 v -0.4 L 35.1,30.8 35.8,30.05 35.85,30 v -0.6 l 0.05,-0.25 0.25,-0.2 0.05,-0.05 0.3,0.35 0.05,0.6 0.15,0.3 v 0.15 h 0.05 l 0.35,0.05 M 32.35,27.6 Q 32,27.1 32.1,26.85 q 0.1,-0.2 0.35,-0.3 l 0.45,0.05 0.65,0.45 0.2,-0.3 0.35,-0.4 0.4,-0.1 q 0.35,0 0.5,0.3 v 0.55 l -0.3,0.3 -0.25,0.3 0.2,0.15 Q 35.2,28.4 35,29 q -0.2,0.35 -0.6,0.25 l -0.35,-0.3 -0.3,-0.35 -0.4,0.65 q -0.4,0.45 -0.75,0.1 -0.15,-0.2 0.05,-0.75 l 0.3,-0.55 -0.6,-0.45"
         fill="#ffffff"
         fill-rule="evenodd"
         stroke="none"
         id="path10" />
      <path
         d="m 45,11.75 3.1,-0.5 q 2.3,-0.55 3.55,-1.45 1.25,-0.85 2,-2.05 1.05,-1.65 1,-3.35 -0.15,-2 -1.7,-3 l -1,-0.65 q -0.6,-0.45 -0.6,-1 0,-0.85 1.05,-1.05 0.7,-0.05 1.55,0.5 1.3,0.8 2.05,2.3 0.7,1.4 0.7,3 0.05,3 -2.2,5.7 l -0.65,0.7 0.05,0.7 0.3,1.2 q 0,0.85 -0.4,1.15 l -0.85,0.25 -2.4,-0.9 -0.5,-0.25 Q 44.9,14.8 38.5,13.3 36.85,12.95 35.8,12.3 33.4,10.95 32.45,7.75 32.15,6.45 32.2,5.8 q 0.05,-0.85 0.5,-2 1.35,-3.5 3.8,-4.15 0.6,-0.25 0.75,0.15 0.2,0.35 -0.35,0.8 -1.75,1.45 -2.45,3.7 -0.4,1.2 -0.25,2.3 0.3,2.35 2.8,3.8 1.8,1 4.75,1.25 l 3.25,0.1 m 0.7,-3.55 -0.4,0.45 -0.85,0.6 -1,-0.15 Q 43,8.75 43,8.2 43,7.85 43.35,7.25 L 43.7,6.3 42.9,5.9 Q 42.4,5.65 42.4,5.05 42.3,4.45 42.8,4.15 L 43.6,3.9 44.55,3.85 44.75,3.8 44.9,3.55 45.5,2.2 q 0.1,-0.4 0.35,-0.6 0.55,-0.45 1.05,0 l 0.3,0.5 0.7,1.35 0.75,0.1 q 0.45,0.05 0.65,0.25 0.5,0.35 0.3,1 l -0.65,0.85 -0.3,0.25 q -0.2,0.25 0,0.65 L 49.1,8.3 48.65,9.1 47.7,9.2 47.2,8.9 46.2,8.2 45.9,8.1 45.7,8.2 m 28.7,30.95 q -0.35,1.1 -1.05,1.55 -0.5,0.35 -1.55,0.35 l -3.3,0.15 -3.3,-0.35 -0.9,-0.3 -0.1,0.05 q -0.5,0.4 -1.15,0.45 l -1.1,-0.2 -0.85,0.6 q -0.95,0.25 -1.5,-0.35 -0.45,-0.4 -0.55,-1 V 39.4 L 58.9,38.9 v -0.7 q -0.15,-2.4 0.75,-4.45 l 0.05,-0.35 0.15,-0.2 0.05,-0.55 q 0.3,-0.85 0.85,-1.35 0.25,-0.85 0.8,-1.3 0.4,-0.35 0.9,-0.4 0.55,-0.05 0.95,0.25 0.4,0.35 0.7,1.5 l 0.55,1.7 0.15,0.15 0.15,-0.1 1.5,-1.1 q 1.25,-0.65 3.5,-0.55 2.6,0.1 3.7,0.9 1.45,1.1 1.55,3.2 0.05,1.7 -0.8,3.6 M 38.55,7.35 Q 38.35,7.1 38.4,6.5 L 37.45,6.3 Q 36.85,5.85 37.2,5.15 37.45,4.7 38.2,4.6 l 0.35,0.05 V 4.1 l 0.55,-0.35 0.55,0.3 0.1,0.55 v 0.2 l 0.65,0.15 q 0.55,0.25 0.45,0.8 -0.15,0.45 -0.8,0.55 l -0.2,0.05 V 6.4 q 0.1,0.65 -0.15,0.95 -0.15,0.3 -0.6,0.3 -0.4,0 -0.55,-0.3 m -8.25,14.1 q -0.3,-0.55 0,-0.9 0.25,-0.45 0.75,-0.45 0.4,-0.05 0.75,0.25 0.4,0.25 0.45,0.65 0.4,0.3 0.4,0.9 L 32.5,22.15 31.3,22 l -1,-0.55 m 4.3,0.25 q -0.25,0.1 -0.35,-0.15 L 34.1,21.15 34,20.4 34.05,20 33.7,19.3 q -0.3,-0.75 0.3,-1.35 0.55,-0.55 1.35,-0.2 0.75,0.4 0.6,1.2 l -0.2,0.7 -0.8,1.7 -0.35,0.35"
         fill="#999999"
         fill-rule="evenodd"
         stroke="none"
         id="path11" />
    </g>
    <g
       id="shape2"
       transform="translate(2,2.05)">
      <path
         d="M -0.5,-0.4 V -0.55 H 75.1 V -0.4 40.8 H -0.5 Z"
         fill="none"
         stroke="#000000"
         stroke-linecap="round"
         stroke-linejoin="round"
         stroke-width="3"
         id="path12" />
    </g>
  </defs>
</svg>
