<?xml version="1.0" encoding="UTF-8" standalone="no"?>
<svg
   ffdec:objectType="frame"
   height="44.349998"
   width="78.599998"
   version="1.1"
   id="svg13"
   sodipodi:docname="222.svg"
   xmlns:inkscape="http://www.inkscape.org/namespaces/inkscape"
   xmlns:sodipodi="http://sodipodi.sourceforge.net/DTD/sodipodi-0.dtd"
   xmlns:xlink="http://www.w3.org/1999/xlink"
   xmlns="http://www.w3.org/2000/svg"
   xmlns:svg="http://www.w3.org/2000/svg"
   xmlns:ffdec="https://www.free-decompiler.com/flash">
  <sodipodi:namedview
     id="namedview13"
     pagecolor="#ffffff"
     bordercolor="#000000"
     borderopacity="0.25"
     inkscape:showpageshadow="2"
     inkscape:pageopacity="0.0"
     inkscape:pagecheckerboard="0"
     inkscape:deskcolor="#d1d1d1"
     fit-margin-top="5"
     fit-margin-left="5"
     fit-margin-right="5"
     fit-margin-bottom="5" />
  <g
     transform="translate(2,2.05)"
     id="g3">
    <use
       ffdec:characterId="1"
       height="42.700001"
       transform="translate(-1.75,-2)"
       width="76.449997"
       xlink:href="#shape0"
       id="use1" />
    <use
       ffdec:characterId="218"
       height="40.650002"
       transform="translate(-0.6,-0.3)"
       width="74.949997"
       xlink:href="#shape1"
       id="use2" />
    <use
       ffdec:characterId="3"
       height="44.349998"
       transform="translate(-2,-2.05)"
       width="78.599998"
       xlink:href="#shape2"
       id="use3" />
  </g>
  <defs
     id="defs13">
    <g
       id="shape0"
       transform="translate(1.75,2)">
      <path
         d="M 2.8,0 V -0.4 H 5.4 V 0 H 9.7 V 19.45 0 H 20.55 L 19.3,19.45 H 9.7 0.25 V 0 H 2.8"
         fill="#ffffff"
         fill-rule="evenodd"
         stroke="none"
         id="path3" />
      <path
         d="M 0.25,19.45 H 9.7 19.3 L 18.7,28.6 16,28.5 10.95,27.95 9.7,27.8 Q 7.45,27.6 5.85,27.75 4.05,27.9 1.5,28.6 0.75,28.8 0.25,29.15 v -9.7 m 9.45,0 v 8.35 -8.35"
         fill="#121212"
         fill-rule="evenodd"
         stroke="none"
         id="path4" />
      <path
         d="m 9.7,27.8 1.25,0.15 5.05,0.55 2.7,0.1 h 1.05 l 3.75,0.15 q 2.45,0.3 3.6,1.25 0.6,0.5 0.6,1.1 0,0.65 -0.8,1 l -1.3,0.2 -7.15,0.15 -5.6,-0.3 L 9.7,31.75 7.95,31.6 3.1,31.95 0.95,32.3 0.25,32.1 -0.35,31.55 -0.5,31.3 V 29.9 L 0.25,29.15 Q 0.75,28.8 1.5,28.6 4.05,27.9 5.85,27.75 7.45,27.6 9.7,27.8 v 3.95 -3.95"
         fill="#999999"
         fill-rule="evenodd"
         stroke="none"
         id="path5" />
      <path
         d="M 2.8,0 H 0.25 M 9.7,0 H 5.4 m 16.15,0 h 10.7 M 20.55,0 H 9.7"
         fill="none"
         stroke="#666666"
         stroke-linecap="round"
         stroke-linejoin="round"
         stroke-width="4"
         id="path6" />
      <path
         d="m 9.7,-0.4 h 65 V 40.5 H 47.05 L 45.5,40.7 27,40.65 25.95,40.5 H 9.7 -0.5 V -0.4 H 9.7 V 40.5 -0.4"
         fill="#ffffff"
         fill-rule="evenodd"
         stroke="none"
         id="path7" />
    </g>
    <g
       id="shape1"
       transform="translate(0.6,0.3)">
      <path
         d="m 67.45,17.7 0.55,-1.9 0.35,-0.65 0.1,-0.5 0.35,-0.6 0.4,-0.4 0.5,-0.25 q 0.6,-0.15 1.15,0 0.8,0.35 1.05,1.1 0.3,0.75 -0.2,1.5 l -0.55,0.6 -0.3,0.5 -1.1,1.45 -1,1.2 -0.2,0.3 -0.35,0.4 -0.7,0.7 -0.45,0.2 q -0.25,0 -0.35,-0.25 l 0.1,-0.5 0.35,-1.45 0.3,-1.45 m -3.6,-2.5 q -0.05,-0.55 0.4,-1 0.45,-0.4 1,-0.4 0.55,0 0.95,0.45 0.4,0.45 0.4,1 l -0.25,0.95 q -0.25,0.85 -0.35,2.5 -0.2,0.9 -0.7,0.9 l -0.65,-0.25 -0.3,-0.65 -0.2,-2.3 -0.3,-1.2 m 10.2,4.9 q -0.4,0.45 -1.35,0.75 l -3.2,1.05 -0.35,0.05 q -0.25,-0.1 -0.25,-0.4 l 0.2,-0.45 q 0.55,-0.9 1.35,-1.5 l 0.85,-0.7 0.5,-0.7 q 0.4,-0.4 1,-0.45 l 1.05,0.3 q 0.45,0.35 0.5,1 0.05,0.6 -0.3,1.05 m -26.7,7.55 q 1.1,-1.8 3.35,-3.55 1.75,-1.3 3.45,-2.05 1.3,-1.05 2.65,-1.4 l 2.85,-0.3 4.7,0.45 q 2.6,0.7 3.9,2.35 0.8,0.95 1.4,2.65 0.95,2.25 1.05,3.7 0.2,2 -0.75,4.5 l -1.55,3.15 q -1.5,2.05 -4,3.2 H 47.65 q -1.35,-1 -1.9,-2.5 -0.4,-1.05 -0.4,-2.8 0.1,-2.45 0.95,-4.6 0.2,-1.4 1.05,-2.8 m 9.4,3.1 -0.1,0.2 -0.1,0.7 1.25,-0.75 0.35,-0.3 0.4,-0.5 q -0.6,0.05 -1.6,0.55 l -0.2,0.1 M 32.75,8 Q 32.55,9.1 31,9.5 29.65,9.85 27.75,9.55 L 24.45,8.9 Q 19.5,8.25 13.2,10.9 7.45,13.3 4.5,16.6 4.35,16.35 4.6,15.9 7.5,10.7 15.5,6.8 q 1.35,-0.7 2.65,-1.15 4.85,-1.7 12,0 1.3,0.3 1.8,0.7 0.95,0.6 0.8,1.65 M 10.3,15.7 q -0.2,-0.2 -0.1,-0.35 l 0.25,-0.25 q 3.5,-2.9 7.3,-4.05 3.05,-0.9 6.95,-0.8 l 1.6,0.1 q 1.2,0.2 1.75,0.8 0.65,0.65 0.45,1.6 -0.25,0.95 -1.15,1.3 -0.7,0.3 -1.7,0 l -1.6,-0.6 -3.25,-0.35 -1.95,0.05 q -4.15,0.35 -8.2,2.5 L 10.3,15.7 m 9.2,-0.25 3.7,-0.5 q 1.45,0 2.35,0.7 0.85,0.75 0.65,1.6 -0.15,0.7 -0.85,0.95 L 24,18.35 20.15,17.2 17.8,17.1 l -1.35,0.2 -0.4,-0.05 -0.5,0.15 -0.1,-0.25 0.15,-0.25 0.85,-0.5 1.45,-0.6 1.6,-0.35 m 17.75,20.7 -1.35,0.65 -2.5,0.35 -0.1,0.15 0.45,0.8 q 0.35,1 0.1,1.7 l -0.3,0.55 h -2.5 l -0.2,-0.3 -0.15,0.15 -0.1,0.15 h -7 L 23.3,40.1 q -0.5,-0.65 -0.6,-1.85 -0.25,-2.3 0.55,-4.55 -2,-0.35 -2.6,-2 -0.15,-0.5 -0.15,-1.55 l 0.25,-1.75 q 0.35,-1.1 1.4,-1.9 0.95,-0.75 2.2,-1 l 2.45,0.2 q 1.25,0.45 1.95,1.55 l 0.35,0.75 0.6,-0.7 0.1,-0.6 q 0.35,-1.05 1.45,-1.05 0.7,0.05 1.1,0.55 l 0.55,-0.05 3.6,0.35 0.25,0.1 0.35,-0.25 1,-0.05 0.8,0.65 0.1,0.3 -0.15,1 -0.1,0.2 0.1,0.15 q 0.7,1.2 0.95,3.1 l -0.05,1.45 q -0.3,1.65 -2.5,3 m 0,-3.5 q 0.3,0.35 0.8,0.35 l 0.85,-0.25 q 0.3,-0.25 0.4,-0.7 L 39.2,31.3 q -0.3,-0.6 -0.8,-0.7 l -0.3,0.45 -0.4,0.55 -0.65,0.6 -0.05,0.05 0.25,0.4 M 29.9,32.3 q -0.05,0.55 0.3,1 l 0.85,0.5 0.95,-0.15 0.65,-0.8 0.05,-0.7 -0.65,-0.2 L 31.35,31.3 31,31.1 h -0.15 q -0.8,0.3 -0.95,1.2 m 3.55,3 h 0.35 l 0.9,-0.85 0.25,-0.15 H 35 l 0.1,0.1 0.6,0.25 0.25,0.1 h 0.4 L 36.45,34.5 36.4,34.2 36.2,33.95 36,33.85 35.75,33.45 35.7,33.4 V 33.05 L 35.55,32.6 35.4,32.3 Q 35.35,32.15 35.15,32.15 L 35.1,32.2 h -0.05 l -0.1,0.1 -0.25,0.35 -0.3,0.75 v 0.1 l -0.25,0.15 -0.6,0.6 -0.4,0.65 q 0,0.3 0.3,0.4"
         fill="#767676"
         fill-rule="evenodd"
         stroke="none"
         id="path8" />
      <path
         d="m 33.45,35.3 q -0.3,-0.1 -0.3,-0.4 l 0.4,-0.65 0.6,-0.6 0.25,-0.15 v -0.1 l 0.3,-0.75 0.25,-0.35 0.1,-0.1 h 0.05 l 0.05,-0.05 q 0.2,0 0.25,0.15 l 0.15,0.3 0.15,0.45 v 0.35 l 0.05,0.05 0.25,0.4 0.2,0.1 0.2,0.25 0.05,0.3 -0.1,0.25 h -0.4 L 35.7,34.65 35.1,34.4 35,34.3 h -0.05 l -0.25,0.15 -0.9,0.85 h -0.35 m -3.55,-3 q 0.15,-0.9 0.95,-1.2 H 31 l 0.35,0.2 0.7,0.65 0.65,0.2 -0.05,0.7 -0.65,0.8 -0.95,0.15 -0.85,-0.5 q -0.35,-0.45 -0.3,-1 m 7.35,0.35 -0.25,-0.4 0.05,-0.05 0.65,-0.6 0.4,-0.55 0.3,-0.45 q 0.5,0.1 0.8,0.7 l 0.1,0.75 q -0.1,0.45 -0.4,0.7 L 38.05,33 q -0.5,0 -0.8,-0.35"
         fill="#ffffff"
         fill-rule="evenodd"
         stroke="none"
         id="path9" />
      <path
         d="m 41.1,10.3 q 1.85,-0.2 3.75,0.45 l 1,0.45 q 0.4,-0.7 1,-0.85 l 1.1,0.15 0.65,0.95 -0.2,1.15 -0.25,0.5 q 1.15,1.35 1.6,3.05 0.35,1.4 0.25,2.8 l 1.65,0.3 q 0.65,0.4 0.95,1.15 0.35,0.75 0.05,1.45 -0.5,1.05 -1.7,1.05 -1.2,-0.1 -1.65,-1.2 l -0.2,0.05 q -0.7,1.2 -1.8,2.25 l -2.1,1.35 -2.05,0.5 q -3.1,0.5 -4.6,-0.05 -0.95,-0.3 -2.2,-1.25 -1.45,-1.05 -2.15,-2 L 33.75,22.4 H 33.3 l -0.55,0.2 -1.2,0.7 -1.05,-0.1 -0.55,-0.55 q -0.4,-0.6 -0.35,-1.25 0,-1.4 1.5,-2.15 L 33,18.7 v -0.25 l -1.1,-0.2 q -0.55,0.05 -1.15,0.4 -0.5,0.25 -2.65,2.05 -1.75,1.25 -3,1.2 l -0.75,0.35 -1.95,1 q -1.3,0.4 -2.05,-0.3 -0.55,-0.45 -0.45,-1.2 0,-0.7 0.7,-1.15 0.75,-0.45 1.75,0 l 0.3,0.1 -0.55,-0.9 -1.9,-0.15 q -1.05,-0.3 -1.65,-1.15 -0.7,-0.95 -0.4,-1.95 0.35,-1.15 1.5,-1.3 0.5,-0.05 0.95,0.25 0.5,0.35 0.65,0.85 l 0.35,1.1 0.2,0.2 0.25,-1.2 q 0,-0.75 0.5,-1.55 0.2,-0.4 1.3,-1.85 1.85,-2.45 2.3,-5.55 L 21.6,7.25 Q 19.05,6.3 18.45,4.1 18.25,3.15 18.5,1.95 18.75,0.75 19.4,-0.3 h 12.8 q 0.95,1.35 1.3,3.1 0.45,2.1 -0.1,4.15 l -1.6,3.6 -0.15,0.3 1.65,0.1 2.1,0.3 q 0.4,-0.45 1.1,-0.5 0.8,0 1.3,0.55 1.6,-0.85 3.3,-1 m 15.45,12.8 0.5,-0.15 v -1.7 q 0.2,-1.2 1.65,-2 1.2,-0.7 2.7,-0.6 1.45,0.15 2.45,1.15 1.05,1.15 0.75,2.6 l -0.3,0.9 -0.25,0.45 q 1.05,0.65 1.75,1.65 l 0.45,-0.2 1.55,0.05 0.7,0.15 0.8,0.45 q 0.85,0.8 1.15,1.7 l 0.2,0.95 0.05,0.85 q -0.05,0.75 -0.6,1.35 l -0.9,0.7 q -1.35,0.75 -2.55,0.7 h -0.2 l -0.85,1.7 q -0.45,0.65 -1.6,1.4 l -2,1.1 q -1.55,0.65 -3.25,0.55 l -2.15,-0.45 -0.05,0.1 -0.85,1.8 -0.3,1.25 0.4,-0.4 q 0.45,-0.3 1.25,-0.5 L 64.5,36.5 67.35,35.35 69,34.85 h 0.5 q 0.35,0.1 0.25,0.45 l -0.35,0.35 -1.5,0.85 -4.55,2.5 -2.1,1.35 H 45.8 l 0.2,-0.8 q 0.3,-0.8 1.2,-1.9 2.05,-2.35 5.45,-4.45 L 52.8,33.15 Q 52.1,32 51.85,30.7 l -0.1,-1.5 0.1,-1.65 Q 52.2,26 53.6,24.75 l 0.35,-0.25 -0.05,0.1 q -0.1,0.7 0.2,1.2 0.25,0.55 0.85,0.85 l 1.15,0.25 q 1,-0.1 1.5,-1.05 0.5,-0.9 0,-1.85 -0.35,-0.6 -0.85,-0.8 l -0.2,-0.1 M 41.1,19.6 q -0.6,0.45 -1.4,0.45 l -0.95,0.15 q -0.35,0.35 0.05,0.9 l 0.9,0.3 h 0.55 l -0.15,0.45 q -0.05,0.4 0.25,1 l 0.6,0.85 0.95,0.25 0.85,-0.1 Q 43.6,23.5 44,22 l 0.2,-0.7 h 0.2 l 1,-0.3 q 0.45,-0.35 0.25,-0.6 -0.05,-0.15 -0.35,-0.15 l -0.4,0.1 Q 44.05,20.5 43.45,19.8 L 43.1,19.3 43.05,19 42.9,18.65 42.55,18.5 42.1,18.6 41.85,19.05 v 0.1 q -0.2,0 -0.75,0.45 m 6.4,-2.55 -0.35,-0.4 -0.15,0.15 -1.7,1.35 -0.45,0.25 0.45,0.7 1,0.35 1,-0.45 0.45,-0.95 q 0.1,-0.55 -0.25,-1 M 63.3,29.8 q 0.1,-1.1 -0.9,-1.6 l -1.85,0.15 Q 59.75,29 59.9,30 q 0.15,0.9 1.1,1.35 1.1,0.35 1.8,-0.45 0.5,-0.4 0.5,-1.1 m -6.05,0.25 0.05,-0.25 0.25,-0.35 0.3,-0.25 0.2,-0.25 q 0,-0.35 -0.35,-0.35 l -0.05,0.05 -0.25,0.1 -0.75,0.5 -0.15,0.15 -0.05,-0.05 -0.7,0.1 -0.4,0.3 q -0.4,0 -0.5,0.15 -0.2,0.1 -0.1,0.25 -0.05,0.2 0.2,0.3 l 0.4,0.1 0.35,0.3 0.15,0.1 0.05,0.05 0.25,0.25 0.15,0.45 0.2,0.4 q 0.25,0.2 0.45,0 v -0.45 l 0.1,-0.25 0.2,-0.75 -0.05,-0.4 0.05,-0.2 m -15.5,-9.2 0.4,-0.3 q 0.25,0.2 0.8,0.4 l -0.15,0.45 -0.2,0.65 -0.45,0.4 q -0.3,0.1 -0.85,-0.35 L 40.95,21.6 40.9,21.3 41.75,20.85 M 36.7,18.1 q 0.15,1 1.2,1.25 1,0.15 1.6,-0.7 L 39.6,18.45 39,18.15 38.4,17.4 37.6,16.55 37.55,16.5 Q 37,16.7 36.8,17.3 l -0.1,0.8"
         fill="#000000"
         fill-rule="evenodd"
         stroke="none"
         id="path10" />
      <path
         d="m 53.95,24.5 0.5,-0.95 Q 54.9,23.1 55.55,23 l 1,0.1 0.2,0.1 q 0.5,0.2 0.85,0.8 0.5,0.95 0,1.85 -0.5,0.95 -1.5,1.05 l -1.15,-0.25 q -0.6,-0.3 -0.85,-0.85 -0.3,-0.5 -0.2,-1.2 l 0.05,-0.1 M 47.5,17.05 q 0.35,0.45 0.25,1 L 47.3,19 l -1,0.45 -1,-0.35 -0.45,-0.7 0.45,-0.25 1.7,-1.35 0.15,-0.15 0.35,0.4 m -6.4,2.55 q 0.55,-0.45 0.75,-0.45 v -0.1 l 0.25,-0.45 0.45,-0.1 0.35,0.15 0.15,0.35 0.05,0.3 0.35,0.5 q 0.6,0.7 1.45,0.55 l 0.4,-0.1 q 0.3,0 0.35,0.15 0.2,0.25 -0.25,0.6 l -1,0.3 H 44.2 L 44,22 q -0.4,1.5 -1.25,1.85 l -0.85,0.1 -0.95,-0.25 -0.6,-0.85 q -0.3,-0.6 -0.25,-1 L 40.25,21.4 H 39.7 l -0.9,-0.3 q -0.4,-0.55 -0.05,-0.9 l 0.95,-0.15 q 0.8,0 1.4,-0.45 m 0.65,1.25 -0.85,0.45 0.05,0.3 0.35,0.5 q 0.55,0.45 0.85,0.35 l 0.45,-0.4 0.2,-0.65 0.15,-0.45 q -0.55,-0.2 -0.8,-0.4 l -0.4,0.3 m 15.5,9.2 -0.05,0.2 0.05,0.4 -0.2,0.75 -0.1,0.25 v 0.45 q -0.2,0.2 -0.45,0 L 56.3,31.7 56.15,31.25 55.9,31 l -0.05,-0.05 -0.15,-0.1 -0.35,-0.3 -0.4,-0.1 q -0.25,-0.1 -0.2,-0.3 -0.1,-0.15 0.1,-0.25 0.1,-0.15 0.5,-0.15 l 0.4,-0.3 0.7,-0.1 0.05,0.05 0.15,-0.15 0.75,-0.5 0.25,-0.1 0.05,-0.05 q 0.35,0 0.35,0.35 l -0.2,0.25 -0.3,0.25 -0.25,0.35 -0.05,0.25 M 63.3,29.8 q 0,0.7 -0.5,1.1 Q 62.1,31.7 61,31.35 60.05,30.9 59.9,30 59.75,29 60.55,28.35 L 62.4,28.2 q 1,0.5 0.9,1.6 M 36.7,18.1 36.8,17.3 q 0.2,-0.6 0.75,-0.8 l 0.05,0.05 0.8,0.85 0.6,0.75 0.6,0.3 -0.1,0.2 q -0.6,0.85 -1.6,0.7 -1.05,-0.25 -1.2,-1.25 m -21.95,5.25 q 0.45,0.15 0.7,0.6 l 0.1,0.9 -0.5,0.75 -0.9,0.25 -0.8,-0.45 -0.15,-0.25 0.3,-0.45 0.45,-0.7 0.35,-0.7 0.45,0.05 m -3.2,2 0.15,0.2 0.15,0.3 0.45,0.35 h 0.25 l 0.95,0.55 0.3,0.1 0.4,0.35 0.1,0.3 -0.55,0.25 -1.05,-0.2 -0.35,-0.05 -0.2,0.25 q -0.4,0.3 -0.55,0.85 l -0.1,0.05 v 0.1 L 11.3,29 q -0.2,0.45 -0.55,0.2 -0.3,-0.1 -0.2,-0.4 L 10.75,28.35 11.5,27 11.4,26.85 10.95,25.9 10.85,25.5 q 0,-0.3 0.3,-0.3 l 0.05,-0.05 0.35,0.2 m -2.6,1.2 0.05,0.4 -0.3,0.8 -0.75,0.4 Q 6.95,28.25 6.6,27.3 6.45,26.9 6.65,26.45 L 7,26 l 0.3,0.05 1.25,0.3 0.4,0.15 v 0.05"
         fill="#ffffff"
         fill-rule="evenodd"
         stroke="none"
         id="path11" />
      <path
         d="m 6.25,22.2 q 0.6,-0.45 1.65,-1 l 1.35,-0.6 1.25,-0.2 0.25,-0.45 q 0.3,-0.4 0.7,-0.5 1,-0.25 1.5,0.6 l 0.2,0.75 0.65,0.3 q 1,0.6 1.9,2.4 l 0.75,1.85 q 0.2,1 -0.15,2.1 l 0.15,-0.05 0.75,-0.2 0.15,-0.05 q 0.65,0.1 1.1,0.35 l 0.7,0.9 q 0.3,0.8 -0.3,1.5 -0.65,0.65 -1.5,0.5 L 16.5,29.95 q -0.7,-0.1 -2.2,0.5 l 0.4,0.65 0.05,0.05 1.25,0.6 q 0.55,0.45 0.55,1.25 0,0.75 -0.55,1.15 l 0.15,0.5 0.6,3.3 v 0.95 q -0.25,0.95 -1.05,1.4 l -0.1,0.05 H 8.3 L 8.15,40.25 6.55,39 5.25,37 Q 4.35,35.75 3.6,35.4 2.95,37.6 1.15,38.55 0.25,39 -0.6,39.05 V 30 q 3.15,-0.65 5.45,0.7 l 1.25,0.9 q 2.15,1.9 2.7,3.3 L 9,35.35 9.25,33.55 9.3,32 9.35,31.75 8.65,31.65 7.05,31.25 5.55,30.4 4.35,29.1 Q 3.95,28.3 4.05,26.5 L 4.2,25.35 3.8,25.1 q -0.75,-0.65 -0.4,-1.6 0.35,-0.85 1.3,-0.95 0.6,0 0.95,0.3 l 0.6,-0.65 m 2.7,4.35 V 26.5 L 8.55,26.35 7.3,26.05 7,26 6.65,26.45 Q 6.45,26.9 6.6,27.3 6.95,28.25 7.95,28.15 L 8.7,27.75 9,26.95 8.95,26.55 m 2.6,-1.2 -0.35,-0.2 -0.05,0.05 q -0.3,0 -0.3,0.3 l 0.1,0.4 0.45,0.95 0.1,0.15 -0.75,1.35 -0.2,0.45 q -0.1,0.3 0.2,0.4 0.35,0.25 0.55,-0.2 l 0.2,-0.25 v -0.1 l 0.1,-0.05 q 0.15,-0.55 0.55,-0.85 l 0.2,-0.25 0.35,0.05 1.05,0.2 0.55,-0.25 -0.1,-0.3 -0.4,-0.35 -0.3,-0.1 -0.95,-0.55 H 12.3 l -0.45,-0.35 -0.15,-0.3 -0.15,-0.2 m 3.2,-2 -0.45,-0.05 -0.35,0.7 -0.45,0.7 -0.3,0.45 0.15,0.25 0.8,0.45 0.9,-0.25 0.5,-0.75 -0.1,-0.9 q -0.25,-0.45 -0.7,-0.6"
         fill="#767676"
         fill-rule="evenodd"
         stroke="none"
         id="path12" />
    </g>
    <g
       id="shape2"
       transform="translate(2,2.05)">
      <path
         d="M -0.5,-0.4 V -0.55 H 75.1 V -0.4 40.8 H -0.5 Z"
         fill="none"
         stroke="#000000"
         stroke-linecap="round"
         stroke-linejoin="round"
         stroke-width="3"
         id="path13" />
    </g>
  </defs>
</svg>
