<?xml version="1.0" encoding="UTF-8" standalone="no"?>
<svg
   ffdec:objectType="frame"
   height="44.349998"
   width="78.599998"
   version="1.1"
   id="svg12"
   sodipodi:docname="232.svg"
   xmlns:inkscape="http://www.inkscape.org/namespaces/inkscape"
   xmlns:sodipodi="http://sodipodi.sourceforge.net/DTD/sodipodi-0.dtd"
   xmlns:xlink="http://www.w3.org/1999/xlink"
   xmlns="http://www.w3.org/2000/svg"
   xmlns:svg="http://www.w3.org/2000/svg"
   xmlns:ffdec="https://www.free-decompiler.com/flash">
  <sodipodi:namedview
     id="namedview12"
     pagecolor="#ffffff"
     bordercolor="#000000"
     borderopacity="0.25"
     inkscape:showpageshadow="2"
     inkscape:pageopacity="0.0"
     inkscape:pagecheckerboard="0"
     inkscape:deskcolor="#d1d1d1"
     fit-margin-top="5"
     fit-margin-left="5"
     fit-margin-right="5"
     fit-margin-bottom="5" />
  <g
     transform="translate(2,2.05)"
     id="g3">
    <use
       ffdec:characterId="1"
       height="42.700001"
       transform="translate(-1.75,-2)"
       width="76.449997"
       xlink:href="#shape0"
       id="use1" />
    <use
       ffdec:characterId="228"
       height="43.599998"
       transform="translate(-1.4,-1.85)"
       width="74.650002"
       xlink:href="#shape1"
       id="use2" />
    <use
       ffdec:characterId="3"
       height="44.349998"
       transform="translate(-2,-2.05)"
       width="78.599998"
       xlink:href="#shape2"
       id="use3" />
  </g>
  <defs
     id="defs12">
    <g
       id="shape0"
       transform="translate(1.75,2)">
      <path
         d="M 2.8,0 V -0.4 H 5.4 V 0 H 9.7 V 19.45 0 H 20.55 L 19.3,19.45 H 9.7 0.25 V 0 H 2.8"
         fill="#ffffff"
         fill-rule="evenodd"
         stroke="none"
         id="path3" />
      <path
         d="M 0.25,19.45 H 9.7 19.3 L 18.7,28.6 16,28.5 10.95,27.95 9.7,27.8 Q 7.45,27.6 5.85,27.75 4.05,27.9 1.5,28.6 0.75,28.8 0.25,29.15 v -9.7 m 9.45,0 v 8.35 -8.35"
         fill="#121212"
         fill-rule="evenodd"
         stroke="none"
         id="path4" />
      <path
         d="m 9.7,27.8 1.25,0.15 5.05,0.55 2.7,0.1 h 1.05 l 3.75,0.15 q 2.45,0.3 3.6,1.25 0.6,0.5 0.6,1.1 0,0.65 -0.8,1 l -1.3,0.2 -7.15,0.15 -5.6,-0.3 L 9.7,31.75 7.95,31.6 3.1,31.95 0.95,32.3 0.25,32.1 -0.35,31.55 -0.5,31.3 V 29.9 L 0.25,29.15 Q 0.75,28.8 1.5,28.6 4.05,27.9 5.85,27.75 7.45,27.6 9.7,27.8 v 3.95 -3.95"
         fill="#999999"
         fill-rule="evenodd"
         stroke="none"
         id="path5" />
      <path
         d="M 2.8,0 H 0.25 M 9.7,0 H 5.4 m 16.15,0 h 10.7 M 20.55,0 H 9.7"
         fill="none"
         stroke="#666666"
         stroke-linecap="round"
         stroke-linejoin="round"
         stroke-width="4"
         id="path6" />
      <path
         d="m 9.7,-0.4 h 65 V 40.5 H 47.05 L 45.5,40.7 27,40.65 25.95,40.5 H 9.7 -0.5 V -0.4 H 9.7 V 40.5 -0.4"
         fill="#ffffff"
         fill-rule="evenodd"
         stroke="none"
         id="path7" />
    </g>
    <g
       id="shape1"
       transform="translate(1.4,1.85)">
      <path
         d="M 1.75,2.9 1.2,2.25 0.05,1.3 q -0.65,-0.4 -0.9,-1.1 -0.2,-0.5 0,-1 l 0.65,-0.85 1,-0.15 q 0.55,0.05 0.9,0.45 l 0.35,0.5 3.65,4.5 1.5,2.7 0.25,0.7 -0.5,0.5 L 6.25,7.45 5.8,7.05 3.85,4.95 2.4,3.45 1.75,2.9 M 10.9,4.65 Q 10.45,4.7 10.25,4.2 L 10.15,3.35 9.75,2.05 9.2,0.85 Q 8.8,-0.2 9.05,-0.7 q 0.2,-0.4 0.75,-0.5 0.55,0 0.85,0.45 l 0.2,1.35 0.45,2.85 0.05,0.7 -0.45,0.5 m 50.5,-1.1 q 2.2,-0.4 4.05,0 Q 67.4,3.9 68.95,5 L 69,4.95 69.7,4.4 70.5,3.95 q 0.6,-0.25 1.3,0 0.7,0.2 1.05,0.75 0.5,0.8 0.4,2.25 -0.2,2.1 -0.9,4 0.05,2.15 -1.2,4.5 -1.25,2.25 -3.15,3.8 l -1.9,1.2 -0.85,0.35 q -0.2,3.65 1.15,9.75 l 0.15,0.7 0.75,-1.05 0.25,-1.7 q 0.35,-1.35 1.55,-1.75 1.35,-0.45 2.3,0.35 1.7,1.25 0.9,4 -0.55,1.85 -2.05,3.3 -1,0.9 -2.15,1.5 l 0.4,0.75 q 1,1.5 1.05,2.4 0.1,0.95 -0.65,1.75 -0.7,0.75 -1.7,0.75 -0.9,0 -1.8,-0.7 l -0.9,0.6 -2.4,0.2 -2.35,0.05 q -1.25,-0.1 -1.9,-0.75 l -0.25,0.1 -1.85,0.05 q -0.9,-0.5 -1.25,-1.45 -2.9,2.05 -6.15,2.1 -1.7,0.1 -2.85,-0.6 -1.1,-0.7 -1.55,-2.05 -0.5,-1.3 -0.25,-2.65 0.45,-2.35 2.75,-4.45 2.05,-1.85 3.9,-2.5 l 4.55,-0.1 q 0.9,-4.2 2.85,-7.6 L 56.8,21.15 48.6,15.25 47.7,14.75 46.85,14.7 45.2,14.2 Q 43.9,13.6 43.45,13.05 42.7,12 43.05,10.6 43.35,9.45 44.2,8.65 L 44.5,8.4 43.8,8.35 Q 43.15,8.3 42.65,7.7 q -0.5,-0.55 -0.4,-1.25 0.1,-1.2 1.15,-1.6 1.1,-0.4 1.95,0.5 l 0.25,0.3 0.5,0.35 0.2,0.35 1.05,1.3 q 0.5,0.05 1,0.35 1.05,0.65 1.4,1.7 l 0.3,0.95 q 0.25,0.7 1.45,1.55 l 2.6,2.1 q -0.2,-1.6 0.2,-3.25 L 54.1,9.4 54.15,7.6 Q 54.15,5.25 54.7,4 L 55.35,3.1 57.3,3.05 59,4.1 59.3,4.3 q 0.95,-0.5 2.1,-0.75 m -4.75,7.85 q -0.3,1.15 0.15,2.25 l 0.1,0.05 0.4,0.6 0.8,0.5 q 1.6,0.75 3.05,-0.2 L 61.8,14.05 Q 61,13.7 60.55,13.3 59.85,12.6 59.6,11.5 59.4,10.5 59.55,9.45 V 9.4 H 59.1 l -0.75,0.15 -0.65,0.4 -0.55,0.45 -0.5,1 m 11.35,4 q 1.1,0.3 2.05,-0.4 0.85,-0.6 1.1,-1.75 0.2,-1.45 -0.8,-2.3 l -0.55,-0.3 -0.3,1 -0.4,0.8 q -0.8,1.45 -2.35,2 0.45,0.75 1.25,0.95 m -20.15,6.85 0.2,0.5 q -0.15,0.5 -0.95,0.15 l -1.75,-1.1 -1.6,-1.3 q -1.5,-1.25 -5,-3.5 -3.4,-2.15 -5,-3.55 L 30.35,10.6 29.2,9.85 28.25,8.95 Q 27.65,8.1 27.8,7.25 L 27.7,7.2 24.9,6.8 22.05,6.7 18.15,7.4 q -2.1,0.5 -3.05,1 -1.2,0.65 -2.75,2.4 -3.3,3.7 -3.9,6.65 -0.35,1.7 -0.1,3.75 0.2,1.75 0.6,2.8 l 1.25,2.35 q 1.2,2 2,2.8 l 1.3,1 1.8,0.15 21.9,3.45 q 1,0.1 1,0.75 0,0.6 -1,0.7 L 29.15,35.95 26.35,36 23.6,35.75 23.05,35.85 21.75,35.8 18.4,35.55 15.05,35.1 q -3.7,-0.65 -6,-2.75 Q 8.15,31.5 6.55,29.15 5.1,27 4.7,25.95 4.15,24.6 3.85,21.6 3.65,19.25 3.85,17.7 4.35,12.65 9.25,7.4 11.1,5.45 12.4,4.75 14,3.8 16.3,3.3 q 3.1,-0.85 5.55,-0.8 2.45,0.1 4.7,0.9 2.1,0.85 2.55,2.15 l 0.4,-0.1 q 1.1,-0.2 2.8,1.15 l 5.45,5 5.45,5.25 q 2.55,2.55 4.65,5.4 m 6.05,11 -2.55,0.05 -0.5,0.25 q -1.65,0.9 -2.65,2.25 l -0.65,1 -0.2,0.45 -0.05,0.5 0.15,0.35 0.25,0.05 q 2.7,0 4.8,-1.35 l 1.65,-1.05 0.1,-2.25 -0.35,-0.25 M 4.4,10.85 3.15,10.5 1.7,9.9 0.25,9.25 -0.65,8.6 Q -0.8,8.25 -0.6,7.85 -0.4,7.5 -0.05,7.4 L 0.7,7.5 Q 2,8 4.35,9.55 l 0.7,0.5 q 0.3,0.65 -0.2,0.8 H 4.4 M 9.05,40.65 8.15,40.6 Q 7.7,40.4 7.7,39.8 7.65,39.5 7.95,38.9 l 1.55,-3 0.3,-0.45 0.5,-0.05 0.2,0.5 -0.55,2.8 -0.25,1.1 -0.65,0.85 M 3.2,30.25 4.15,30.4 q 0.6,0.3 0.3,0.85 L 3.95,31.6 0.3,32.85 -1,32.7 q -0.4,-0.5 0.1,-1.1 L 0.2,31.05 1.35,30.7 3.2,30.25 m 2.9,5 -2.05,1.85 -2.6,2.65 -1.1,0.9 q -0.75,0.4 -1.35,0 -0.4,-0.3 -0.4,-0.85 0,-0.55 0.35,-0.9 l 0.75,-0.55 2.6,-2.1 4.15,-3.1 q 0.4,-0.3 0.65,-0.3 l 0.45,0.25 0.15,0.5 -0.5,0.65 -1.1,1"
         fill="#999999"
         fill-rule="evenodd"
         stroke="none"
         id="path8" />
      <path
         d="m 68,15.4 q -0.8,-0.2 -1.25,-0.95 1.55,-0.55 2.35,-2 l 0.4,-0.8 0.3,-1 0.55,0.3 q 1,0.85 0.8,2.3 Q 70.9,14.4 70.05,15 69.1,15.7 68,15.4 m -11.35,-4 0.5,-1 0.55,-0.45 0.65,-0.4 0.75,-0.15 h 0.45 v 0.05 q -0.15,1.05 0.05,2.05 0.25,1.1 0.95,1.8 0.45,0.4 1.25,0.75 l -0.65,0.55 q -1.45,0.95 -3.05,0.2 l -0.8,-0.5 -0.4,-0.6 -0.1,-0.05 q -0.45,-1.1 -0.15,-2.25"
         fill="#ffffff"
         fill-rule="evenodd"
         stroke="none"
         id="path9" />
      <path
         d="M 11.25,32.75 Q 9.5,31.65 8.4,30.25 7.15,28.65 6.4,26.25 5.65,23.85 5.5,21.65 4.85,18.4 5.95,15.5 7.05,12.55 7.5,11.65 L 7.35,10.7 Q 7.25,9.25 7.75,8.45 8.6,7.25 10.15,7.8 l 0.5,0.15 q 2.6,-2.35 5.75,-3.25 3.15,-1 6.5,-0.5 2,0.25 3.9,1 L 26.95,4.85 Q 27.4,4.2 28.85,3.75 L 30.4,3.6 q 1.5,0.45 1.85,1.85 0.5,1.45 -0.35,2.5 3.45,2.15 4.25,7.15 l 0.4,2 q 2.95,1.1 6.15,3.3 3.5,2.5 4.7,5.05 l 2.9,-0.05 2.95,-0.75 q -0.3,-1 0.2,-2.15 0.5,-1.05 1.45,-1.6 l 2.05,-0.35 q 1.1,0.1 2,0.85 1.7,1.55 1.6,4.1 -0.05,1.55 -1,2.9 -0.9,1.3 -2.25,1.8 l -2.85,0.3 -3,-0.45 -4.25,-0.5 -0.55,0.6 h 0.1 l 2.15,0.35 1.45,0.15 h 0.9 l 0.8,0.2 0.7,0.4 q 0.7,0.6 0.35,1.45 -0.25,0.85 -1.2,0.95 l -0.9,-0.1 -0.9,-0.35 -0.9,-0.15 -2.4,-0.6 -2.4,-1 q -2.1,1 -3.7,1.25 L 37.75,32.65 Q 34.5,32.4 30.9,31.4 q -2.65,2.25 -5.4,3.1 l -5.55,0.65 q -3.35,0 -5.25,-0.7 -1.75,-0.5 -3.45,-1.7 M 28.4,9.7 27.9,9.15 27.75,9 Q 27,8.4 25.45,8.5 h -0.1 l -0.1,0.35 -0.45,1 -0.3,0.5 -1.15,1.05 -0.55,0.3 -0.55,0.1 -0.05,0.4 0.05,0.6 0.6,1 q 0.6,0.7 1.55,1 l 1.35,0.2 0.85,-0.05 0.65,-0.3 q 0.8,-0.4 1.45,-1.35 L 29,11.45 28.85,10.5 28.7,10.2 28.4,9.7 m -8.85,10.15 v -1.7 Q 19.45,17.6 20,17.35 l 0.85,0.1 0.55,0.6 0.4,1.05 0.45,1.3 0.5,2.15 0.5,2.15 0.2,0.7 0.1,2.55 L 23.3,29 Q 23,29.6 22.5,29.6 L 21.85,29.35 21.2,29 l -0.75,0.05 -1.5,0.55 -1.5,0.65 q -0.95,0.3 -1.55,-0.3 L 15.5,29.3 Q 14.9,27.65 15,24.9 l 0.1,-1.5 Q 15,22.9 15.05,22.1 v -0.4 l 0.25,-1.05 0.1,-0.8 0.2,-0.7 0.15,-0.25 0.05,-0.2 v -0.15 l 0.05,-0.35 0.25,-0.5 0.25,-0.35 q 0.4,-0.15 0.6,0.25 l 0.2,0.7 -0.05,1.65 2.45,-0.1 m -0.6,11.4 q 1.2,-0.7 2.05,-0.3 l 1.15,0.8 q 0.6,0.4 1.4,0.25 0.75,-0.15 1.1,-0.8 l 0.3,-1.55 Q 25.05,21.4 21.7,15.4 20.6,13.45 19.3,13 v -1.1 l -0.1,-1.15 -0.6,-0.5 q -0.5,-0.1 -0.8,0.2 -0.35,0.3 -0.45,1.05 l -0.05,1.45 0.05,0.15 -0.95,0.65 Q 15.5,14.6 15,16 q -0.7,1.7 -1,4 l -0.4,4.15 -0.1,2.35 v 2.75 q 0.25,1.6 1.15,2.4 1.15,1.15 2.55,0.7 l 0.9,-0.45 0.85,-0.65 M 9.6,16.6 l 1.3,0.25 0.25,0.05 q 0.6,0 1.25,-0.4 L 13.3,15.55 13.6,15 13.85,13.75 V 13.7 H 13.8 l -1.45,-0.6 -0.9,-0.85 -0.25,-1.1 h -0.1 -0.15 -0.1 Q 9.4,11.1 8.5,12.35 8,13.05 8,14 v 0.5 L 8.15,15 q 0.4,1.1 1.45,1.6"
         fill="#000000"
         fill-rule="evenodd"
         stroke="none"
         id="path10" />
      <path
         d="m 28.4,9.7 0.3,0.5 0.15,0.3 0.15,0.95 -0.3,1.85 q -0.65,0.95 -1.45,1.35 L 26.6,14.95 25.75,15 24.4,14.8 q -0.95,-0.3 -1.55,-1 l -0.6,-1 -0.05,-0.6 0.05,-0.4 0.55,-0.1 0.55,-0.3 1.15,-1.05 0.3,-0.5 0.45,-1 0.1,-0.35 h 0.1 Q 27,8.4 27.75,9 l 0.15,0.15 0.5,0.55 m -8.85,10.15 -2.45,0.1 0.05,-1.65 -0.2,-0.7 q -0.2,-0.4 -0.6,-0.25 l -0.25,0.35 -0.25,0.5 -0.05,0.35 v 0.15 l -0.05,0.2 -0.15,0.25 -0.2,0.7 -0.1,0.8 -0.25,1.05 v 0.4 Q 15,22.9 15.1,23.4 L 15,24.9 q -0.1,2.75 0.5,4.4 l 0.4,0.65 q 0.6,0.6 1.55,0.3 l 1.5,-0.65 1.5,-0.55 0.75,-0.05 0.65,0.35 0.65,0.25 q 0.5,0 0.8,-0.6 l 0.25,-1.05 -0.1,-2.55 -0.2,-0.7 -0.5,-2.15 -0.5,-2.15 -0.45,-1.3 -0.4,-1.05 -0.55,-0.6 -0.85,-0.1 q -0.55,0.25 -0.45,0.8 v 1.7 M 9.6,16.6 Q 8.55,16.1 8.15,15 L 8,14.5 V 14 q 0,-0.95 0.5,-1.65 0.9,-1.25 2.35,-1.2 h 0.1 0.15 0.1 l 0.25,1.1 0.9,0.85 1.45,0.6 h 0.05 v 0.05 L 13.6,15 13.3,15.55 12.4,16.5 q -0.65,0.4 -1.25,0.4 L 10.9,16.85 9.6,16.6 m 9.35,14.65 -0.85,0.65 -0.9,0.45 q -1.4,0.45 -2.55,-0.7 -0.9,-0.8 -1.15,-2.4 V 26.5 L 13.6,24.15 14,20 q 0.3,-2.3 1,-4 0.5,-1.4 1.4,-2.25 L 17.35,13.1 17.3,12.95 17.35,11.5 q 0.1,-0.75 0.45,-1.05 0.3,-0.3 0.8,-0.2 l 0.6,0.5 0.1,1.15 V 13 q 1.3,0.45 2.4,2.4 3.35,6 3.25,14.25 l -0.3,1.55 q -0.35,0.65 -1.1,0.8 -0.8,0.15 -1.4,-0.25 L 21,30.95 q -0.85,-0.4 -2.05,0.3"
         fill="#ffffff"
         fill-rule="evenodd"
         stroke="none"
         id="path11" />
    </g>
    <g
       id="shape2"
       transform="translate(2,2.05)">
      <path
         d="M -0.5,-0.4 V -0.55 H 75.1 V -0.4 40.8 H -0.5 Z"
         fill="none"
         stroke="#000000"
         stroke-linecap="round"
         stroke-linejoin="round"
         stroke-width="3"
         id="path12" />
    </g>
  </defs>
</svg>
