<?xml version="1.0" encoding="UTF-8" standalone="no"?>
<svg
   ffdec:objectType="frame"
   height="44.349998"
   width="78.599998"
   version="1.1"
   id="svg13"
   sodipodi:docname="372.svg"
   xmlns:inkscape="http://www.inkscape.org/namespaces/inkscape"
   xmlns:sodipodi="http://sodipodi.sourceforge.net/DTD/sodipodi-0.dtd"
   xmlns:xlink="http://www.w3.org/1999/xlink"
   xmlns="http://www.w3.org/2000/svg"
   xmlns:svg="http://www.w3.org/2000/svg"
   xmlns:ffdec="https://www.free-decompiler.com/flash">
  <sodipodi:namedview
     id="namedview13"
     pagecolor="#ffffff"
     bordercolor="#000000"
     borderopacity="0.25"
     inkscape:showpageshadow="2"
     inkscape:pageopacity="0.0"
     inkscape:pagecheckerboard="0"
     inkscape:deskcolor="#d1d1d1"
     fit-margin-top="5"
     fit-margin-left="5"
     fit-margin-right="5"
     fit-margin-bottom="5" />
  <g
     transform="translate(2,2.05)"
     id="g3">
    <use
       ffdec:characterId="1"
       height="42.700001"
       transform="translate(-1.75,-2)"
       width="76.449997"
       xlink:href="#shape0"
       id="use1" />
    <use
       ffdec:characterId="354"
       height="41.849998"
       transform="translate(-0.5,-0.7)"
       width="75.75"
       xlink:href="#shape1"
       id="use2" />
    <use
       ffdec:characterId="3"
       height="44.349998"
       transform="translate(-2,-2.05)"
       width="78.599998"
       xlink:href="#shape2"
       id="use3" />
  </g>
  <defs
     id="defs13">
    <g
       id="shape0"
       transform="translate(1.75,2)">
      <path
         d="M 2.8,0 V -0.4 H 5.4 V 0 H 9.7 V 19.45 0 H 20.55 L 19.3,19.45 H 9.7 0.25 V 0 H 2.8"
         fill="#ffffff"
         fill-rule="evenodd"
         stroke="none"
         id="path3" />
      <path
         d="M 0.25,19.45 H 9.7 19.3 L 18.7,28.6 16,28.5 10.95,27.95 9.7,27.8 Q 7.45,27.6 5.85,27.75 4.05,27.9 1.5,28.6 0.75,28.8 0.25,29.15 v -9.7 m 9.45,0 v 8.35 -8.35"
         fill="#121212"
         fill-rule="evenodd"
         stroke="none"
         id="path4" />
      <path
         d="m 9.7,27.8 1.25,0.15 5.05,0.55 2.7,0.1 h 1.05 l 3.75,0.15 q 2.45,0.3 3.6,1.25 0.6,0.5 0.6,1.1 0,0.65 -0.8,1 l -1.3,0.2 -7.15,0.15 -5.6,-0.3 L 9.7,31.75 7.95,31.6 3.1,31.95 0.95,32.3 0.25,32.1 -0.35,31.55 -0.5,31.3 V 29.9 L 0.25,29.15 Q 0.75,28.8 1.5,28.6 4.05,27.9 5.85,27.75 7.45,27.6 9.7,27.8 v 3.95 -3.95"
         fill="#999999"
         fill-rule="evenodd"
         stroke="none"
         id="path5" />
      <path
         d="M 2.8,0 H 0.25 M 9.7,0 H 5.4 m 16.15,0 h 10.7 M 20.55,0 H 9.7"
         fill="none"
         stroke="#666666"
         stroke-linecap="round"
         stroke-linejoin="round"
         stroke-width="4"
         id="path6" />
      <path
         d="m 9.7,-0.4 h 65 V 40.5 H 47.05 L 45.5,40.7 27,40.65 25.95,40.5 H 9.7 -0.5 V -0.4 H 9.7 V 40.5 -0.4"
         fill="#ffffff"
         fill-rule="evenodd"
         stroke="none"
         id="path7" />
    </g>
    <g
       id="shape1"
       transform="translate(0.5,0.7)">
      <path
         d="M 0.35,-0.4 V 4.9 L 5.1,6.85 33.9,18 l 0.05,0.05 v 0.7 l 0.4,-0.3 -0.1,-0.3 0.5,0.15 0.05,2.2 -0.55,0.15 0.1,-0.35 -0.4,-0.3 v 0.75 H 33.9 L 5.1,31.9 Q 2.35,33 0.35,33.85 V 40.7 L 0.75,40.5 5.1,38.65 Q 8.6,37.2 15.2,33.6 l 6.45,-3.45 4.65,-2.65 4.25,-2.3 4.2,-2.4 -0.05,0.45 q 0,1.3 0.45,2.05 0.65,1.1 1.6,1.25 l 1.2,-0.1 1.1,-1.1 0.2,-1.2 V 22.6 q 1.8,1.1 4.5,2.6 l 4.25,2.3 4.65,2.65 6.45,3.45 q 6.6,3.6 10.1,5.05 l 4.35,1.85 0.6,0.3 h -4 l -1,-0.7 -4.6,-2.3 q -6.2,-2.9 -11.8,-6.65 L 49.4,29.1 46.95,28.1 44.5,27.05 43,26.1 q -0.9,-0.55 -1.6,-0.75 l -0.85,-0.1 q -0.5,0.1 -0.5,0.5 l 0.6,0.65 4.3,3 4.2,3.2 q 2.1,1.55 6.25,4.2 l 6.05,4 H 56.7 l -0.85,-0.85 -2.25,-1.4 q -1.3,-0.75 -3.15,-2.3 l -3.1,-2.4 -2.2,-1.5 -2.1,-1.9 -2.3,-1.8 q -0.55,-0.3 -0.7,0 l 0.1,0.4 9.5,10.7 1,1.05 H 44.7 l -0.25,-1 -0.75,-1.4 -1,-2.3 -1,-2.3 -1.9,-2.9 -0.15,-0.35 q -0.1,-0.35 -0.35,-0.1 v 0.5 l 0.1,1.05 1.2,5.2 0.5,2.4 0.2,1.2 H 39.25 V 40.3 L 39.2,40.25 V 40 l -0.05,-0.05 v -0.2 L 39.1,39.7 v -0.1 l -0.05,-0.05 v -0.4 L 39,39.1 V 38.75 L 38.95,38.7 V 38.2 L 38.9,38.15 V 37.9 l -0.05,-0.05 v -0.2 L 38.8,37.6 V 37 l -0.05,-0.05 v -0.6 L 38.7,36.3 V 35.7 L 38.65,35.65 V 35 L 38.6,34.95 v -0.3 L 38.55,34.6 V 34.45 L 38.5,34.4 V 34.25 L 38.45,34.2 V 34 L 38.4,33.95 V 33.8 L 38.35,33.75 V 33.6 L 38.3,33.55 V 33.1 L 38.25,33.05 V 32.6 L 38.2,32.55 V 32.3 L 38.15,32.25 V 31.9 L 38.1,31.85 V 31.2 L 38.05,31.15 V 30.9 L 38,30.85 v -0.1 L 37.95,30.7 V 30.6 L 37.9,30.55 V 30.3 L 37.85,30.25 V 30 L 37.8,29.95 V 29.6 l -0.05,-0.05 v -1.5 L 37.7,28 V 27.95 L 37.65,27.9 V 27.8 L 37.6,27.75 V 27.7 l -0.05,-0.05 v -0.3 L 37.5,27.3 V 27.2 L 37.45,27.15 V 27.1 L 37.35,27.05 37.3,27 H 37.15 37 l -0.1,0.05 -0.05,0.05 -0.05,0.05 v 0.05 l -0.05,0.05 v 0.35 l -0.05,0.05 v 0.05 l -0.05,0.05 v 0.05 l -0.05,0.05 v 0.1 L 36.55,28 v 1.35 L 36.5,29.4 v 0.35 l -0.05,0.05 v 0.3 l -0.05,0.05 v 0.3 l -0.05,0.05 v 0.1 l -0.05,0.05 v 0.1 L 36.25,30.8 V 31 l -0.05,0.05 v 0.45 l -0.05,0.05 v 0.6 L 36.1,32.2 v 0.2 l -0.05,0.05 v 0.4 L 36,32.9 v 0.45 l -0.05,0.05 v 0.3 l -0.05,0.05 v 0.1 l -0.05,0.05 v 0.15 L 35.8,34.1 v 0.2 l -0.05,0.05 v 0.15 l -0.05,0.05 v 0.2 l -0.05,0.05 v 0.55 L 35.6,35.4 v 0.65 l -0.05,0.05 v 0.6 l -0.05,0.05 v 0.6 l -0.05,0.05 v 0.4 L 35.4,37.85 V 38 l -0.05,0.05 v 0.4 L 35.3,38.5 v 0.45 L 35.25,39 v 0.4 l -0.05,0.05 v 0.2 l -0.05,0.05 v 0.15 L 35.1,39.9 v 0.2 l -0.05,0.05 v 0.4 L 35,40.6 v 0.2 H 33.15 L 33.3,39.6 33.8,37.2 35,32 35.1,30.95 v -0.5 q -0.25,-0.25 -0.35,0.1 l -0.15,0.35 -1.9,2.9 -1,2.3 -1,2.3 -0.75,1.4 -0.2,1 H 23.7 l 0.95,-1.05 9.5,-10.7 0.1,-0.4 q -0.15,-0.3 -0.7,0 -1,0.6 -2.3,1.8 l -2.1,1.9 -2.2,1.5 -3.1,2.4 -3.15,2.3 -2.25,1.4 -0.85,0.85 h -4.75 l 6.05,-4 6.25,-4.2 4.2,-3.2 q 2.5,-1.95 4.3,-3 l 0.6,-0.65 q 0,-0.4 -0.5,-0.5 l -0.85,0.1 q -0.7,0.2 -1.6,0.75 l -1.5,0.95 -2.45,1.05 -2.45,1 q -1.2,0.55 -3.35,2.05 -5.6,3.75 -11.8,6.65 l -4.6,2.3 -1,0.7 H -0.5 V -0.4 H 0.35 M 75.1,34.35 69.2,31.9 40.4,20.75 H 40.35 V 20 l -0.4,0.3 0.1,0.35 -0.75,-0.2 v -2.1 l 0.75,-0.2 -0.1,0.3 0.4,0.3 v -0.7 L 40.4,18 69.2,6.85 75.1,4.45 V 7 l -0.7,0.3 q -2.25,1.1 -7.75,3.05 L 55.5,14.15 46.9,17 q -1.6,0.5 -2.65,1.15 -0.85,0.5 -0.65,1.05 l 0.1,0.2 -0.1,0.15 q -0.2,0.55 0.65,1.05 1.05,0.65 2.65,1.15 l 8.6,2.85 11.15,3.8 q 5.5,1.95 7.75,3.05 l 0.7,0.35 v 2.55 M 70.45,-0.4 69.2,0.1 Q 65.7,1.55 59.1,5.15 L 52.65,8.6 48,11.25 l -4.25,2.3 q -2.7,1.5 -4.5,2.65 -0.15,-1.5 -0.6,-2 -0.55,-0.7 -1.45,-0.7 -0.9,0 -1.5,0.6 -0.5,0.55 -0.8,1.9 v 0.1 L 30.55,13.55 26.3,11.25 21.65,8.6 15.2,5.15 Q 8.6,1.55 5.1,0.1 L 3.9,-0.4 H 7 l 2.75,1.35 q 6.2,2.9 11.8,6.65 2.15,1.5 3.35,2.05 l 2.45,1 2.45,1.05 1.5,0.95 1.6,0.75 0.85,0.1 0.5,-0.5 -0.6,-0.65 q -1.8,-1.05 -4.3,-3 L 25.15,6.15 18.9,1.95 15.3,-0.4 h 4.45 l 0.95,0.6 3.15,2.3 3.1,2.4 2.2,1.5 2.1,1.9 q 1.3,1.2 2.3,1.8 0.55,0.3 0.7,0 L 34.15,9.7 25.2,-0.4 h 4.55 l 0.2,0.65 0.75,1.4 1,2.3 1,2.3 1.9,2.9 0.15,0.35 q 0.1,0.35 0.35,0.1 V 9.1 L 35,8.05 33.8,2.85 33.3,0.45 33.2,-0.4 h 1.85 v 0.3 l 0.05,0.05 v 0.2 L 35.15,0.2 V 0.35 L 35.2,0.4 v 0.2 l 0.05,0.05 v 0.4 L 35.3,1.1 V 1.55 L 35.35,1.6 V 2 L 35.4,2.05 V 2.2 l 0.05,0.05 v 0.4 L 35.5,2.7 v 0.6 l 0.05,0.05 v 0.6 L 35.6,4 V 4.65 L 35.65,4.7 V 5.25 L 35.7,5.3 v 0.2 l 0.05,0.05 V 5.7 l 0.05,0.05 v 0.2 L 35.85,6 V 6.15 L 35.9,6.2 v 0.1 l 0.05,0.05 v 0.3 L 36,6.7 v 0.45 l 0.05,0.05 v 0.4 l 0.05,0.05 v 0.2 L 36.15,7.9 V 8.5 L 36.2,8.55 V 9 l 0.05,0.05 v 0.2 L 36.3,9.3 v 0.1 l 0.05,0.05 v 0.1 L 36.4,9.6 v 0.3 l 0.05,0.05 v 0.3 l 0.05,0.05 v 0.35 l 0.05,0.05 v 1.35 l 0.05,0.05 v 0.1 l 0.05,0.05 v 0.05 l 0.05,0.05 v 0.05 l 0.05,0.05 v 0.35 l 0.05,0.05 v 0.05 l 0.05,0.05 0.05,0.05 0.1,0.05 h 0.15 0.15 L 37.35,13 37.45,12.95 V 12.9 l 0.05,-0.05 v -0.1 L 37.55,12.7 V 12.4 L 37.6,12.35 V 12.3 l 0.05,-0.05 v -0.1 L 37.7,12.1 V 12.05 L 37.75,12 V 10.5 L 37.8,10.45 V 10.1 l 0.05,-0.05 V 9.8 L 37.9,9.75 V 9.5 L 37.95,9.45 V 9.35 L 38,9.3 V 9.2 L 38.05,9.15 V 8.9 L 38.1,8.85 V 8.2 L 38.15,8.15 V 7.8 L 38.2,7.75 V 7.5 L 38.25,7.45 V 7 L 38.3,6.95 V 6.5 L 38.35,6.45 V 6.3 L 38.4,6.25 V 6.1 L 38.45,6.05 V 5.85 L 38.5,5.8 V 5.65 L 38.55,5.6 V 5.45 L 38.6,5.4 V 5.1 L 38.65,5.05 V 4.4 L 38.7,4.35 V 3.75 L 38.75,3.7 V 3.1 L 38.8,3.05 V 2.45 L 38.85,2.4 V 2.2 L 38.9,2.15 V 1.9 L 38.95,1.85 V 1.35 L 39,1.3 V 0.95 L 39.05,0.9 V 0.5 L 39.1,0.45 V 0.35 L 39.15,0.3 V 0.1 L 39.2,0.05 V -0.2 l 0.05,-0.05 V -0.4 h 2 l -0.15,0.85 -0.5,2.4 -1.2,5.2 -0.1,1.05 v 0.5 q 0.25,0.25 0.35,-0.1 l 0.15,-0.35 1.9,-2.9 1,-2.3 1,-2.3 0.75,-1.4 0.2,-0.65 h 4.45 l -8.95,10.1 -0.1,0.4 q 0.15,0.3 0.7,0 l 2.3,-1.8 2.1,-1.9 2.2,-1.5 3.1,-2.4 Q 52.3,0.95 53.6,0.2 l 1,-0.6 H 59 l -3.6,2.35 q -4.15,2.65 -6.25,4.2 l -4.2,3.2 -4.3,3 -0.6,0.65 q 0,0.4 0.5,0.5 l 0.85,-0.1 q 0.7,-0.2 1.6,-0.75 l 1.5,-0.95 2.45,-1.05 2.45,-1 3.35,-2.05 q 5.6,-3.75 11.8,-6.65 L 67.3,-0.4 h 3.15 M 75.1,26.15 64.9,23.7 51.8,20.45 47.3,19.4 l 4.5,-1.1 13.1,-3.25 10.2,-2.4 v 2.3 l -5.15,1.15 -5.4,1.05 -6.3,2 -0.8,0.2 0.05,0.05 h -0.05 l 0.8,0.25 6.3,1.95 5.4,1.05 q 3.25,0.5 5.15,1.2 v 2.3 m 0,-6.5 -3.35,-0.25 3.35,-0.25 v 0.5 m -58.25,-0.3 -0.8,-0.2 -6.3,-2 -5.4,-1.05 -4,-0.8 v 3.95 l 2.2,0.15 -2.2,0.15 v 3.95 l 4,-0.85 5.4,-1.05 6.3,-1.95 0.8,-0.25 H 16.8 l 0.05,-0.05 m 5.65,1.1 -13.1,3.25 q -5.35,1.2 -9.05,2.15 v 5.4 q 2.3,-1.1 7.3,-2.85 L 18.8,24.6 27.4,21.75 30.05,20.6 Q 30.9,20.1 30.7,19.55 L 30.6,19.4 30.7,19.2 Q 30.9,18.65 30.05,18.15 29,17.5 27.4,17 L 18.8,14.15 7.65,10.35 q -5,-1.75 -7.3,-2.8 v 5.35 l 9.05,2.15 13.1,3.25 4.5,1.1 -4.5,1.05"
         fill="#999999"
         fill-rule="evenodd"
         stroke="none"
         id="path8" />
      <path
         d="m 0.35,-0.4 v -0.3 h 2.8 l 0.75,0.3 1.2,0.5 q 3.5,1.45 10.1,5.05 l 6.45,3.45 4.65,2.65 4.25,2.3 4.35,2.55 V 16 q 0.3,-1.35 0.8,-1.9 0.6,-0.6 1.5,-0.6 0.9,0 1.45,0.7 0.45,0.5 0.6,2 1.8,-1.15 4.5,-2.65 L 48,11.25 52.65,8.6 59.1,5.15 Q 65.7,1.55 69.2,0.1 l 1.25,-0.5 0.7,-0.3 h 4.1 V 4.4 L 75.1,4.45 69.2,6.85 40.4,18 40.35,18.05 v 0.7 l -0.4,-0.3 0.1,-0.3 -0.75,0.2 v 2.1 l 0.75,0.2 -0.1,-0.35 0.4,-0.3 v 0.75 h 0.05 l 28.8,11.15 5.9,2.45 0.15,0.05 v 6.75 H 74.9 L 74.15,40.8 73.55,40.5 69.2,38.65 Q 65.7,37.2 59.1,33.6 L 52.65,30.15 48,27.5 43.75,25.2 q -2.7,-1.5 -4.5,-2.6 v 1.55 l -0.2,1.2 -1.1,1.1 -1.2,0.1 Q 35.8,26.4 35.15,25.3 34.7,24.55 34.7,23.25 l 0.05,-0.45 -4.2,2.4 -4.25,2.3 -4.65,2.65 -6.45,3.45 Q 8.6,37.2 5.1,38.65 L 0.75,40.5 0.35,40.7 V 33.85 Q 2.35,33 5.1,31.9 L 33.9,20.75 h 0.05 V 20 l 0.4,0.3 -0.1,0.35 0.55,-0.15 -0.05,-2.2 -0.5,-0.15 0.1,0.3 -0.4,0.3 v -0.7 L 33.9,18 5.1,6.85 0.35,4.9 V -0.4 M 7,-0.4 6.4,-0.7 h 8.45 l 0.45,0.3 3.6,2.35 6.25,4.2 4.2,3.2 q 2.5,1.95 4.3,3 l 0.6,0.65 -0.5,0.5 -0.85,-0.1 -1.6,-0.75 -1.5,-0.95 -2.45,-1.05 -2.45,-1 Q 23.7,9.1 21.55,7.6 15.95,3.85 9.75,0.95 L 7,-0.4 m 12.75,0 -0.5,-0.3 h 5.7 l 0.25,0.3 8.95,10.1 0.1,0.4 q -0.15,0.3 -0.7,0 -1,-0.6 -2.3,-1.8 L 29.15,6.4 26.95,4.9 23.85,2.5 20.7,0.2 19.75,-0.4 m 10,0 v -0.3 h 3.4 l 0.05,0.3 0.1,0.85 0.5,2.4 1.2,5.2 0.1,1.05 V 9.6 Q 34.85,9.85 34.75,9.5 l -0.15,-0.35 -1.9,-2.9 -1,-2.3 -1,-2.3 -0.75,-1.4 -0.2,-0.65 m 5.3,0 V -0.5 L 35,-0.55 V -0.7 h 4.25 v 0.3 0.15 L 39.2,-0.2 V 0.05 L 39.15,0.1 V 0.3 L 39.1,0.35 v 0.1 L 39.05,0.5 V 0.9 L 39,0.95 V 1.3 l -0.05,0.05 v 0.5 L 38.9,1.9 V 2.15 L 38.85,2.2 V 2.4 L 38.8,2.45 v 0.6 L 38.75,3.1 V 3.7 L 38.7,3.75 v 0.6 L 38.65,4.4 V 5.05 L 38.6,5.1 V 5.4 L 38.55,5.45 V 5.6 L 38.5,5.65 V 5.8 l -0.05,0.05 v 0.2 L 38.4,6.1 V 6.25 L 38.35,6.3 V 6.45 L 38.3,6.5 V 6.95 L 38.25,7 V 7.45 L 38.2,7.5 V 7.75 L 38.15,7.8 V 8.15 L 38.1,8.2 V 8.85 L 38.05,8.9 V 9.15 L 38,9.2 v 0.1 l -0.05,0.05 v 0.1 L 37.9,9.5 V 9.75 L 37.85,9.8 v 0.25 L 37.8,10.1 v 0.35 L 37.75,10.5 V 12 l -0.05,0.05 v 0.05 l -0.05,0.05 v 0.1 L 37.6,12.3 v 0.05 l -0.05,0.05 v 0.3 l -0.05,0.05 v 0.1 l -0.05,0.05 v 0.05 L 37.35,13 37.3,13.05 H 37.15 37 L 36.9,13 36.85,12.95 36.8,12.9 V 12.85 L 36.75,12.8 V 12.45 L 36.7,12.4 V 12.35 L 36.65,12.3 V 12.25 L 36.6,12.2 V 12.1 L 36.55,12.05 V 10.7 L 36.5,10.65 V 10.3 L 36.45,10.25 V 9.95 L 36.4,9.9 V 9.6 L 36.35,9.55 V 9.45 L 36.3,9.4 V 9.3 L 36.25,9.25 V 9.05 L 36.2,9 V 8.55 L 36.15,8.5 V 7.9 L 36.1,7.85 V 7.65 L 36.05,7.6 V 7.2 L 36,7.15 V 6.7 L 35.95,6.65 V 6.35 L 35.9,6.3 V 6.2 L 35.85,6.15 V 6 L 35.8,5.95 V 5.75 L 35.75,5.7 V 5.55 L 35.7,5.5 V 5.3 L 35.65,5.25 V 4.7 L 35.6,4.65 V 4 L 35.55,3.95 V 3.35 L 35.5,3.3 V 2.7 L 35.45,2.65 V 2.25 L 35.4,2.2 V 2.05 L 35.35,2 V 1.6 L 35.3,1.55 V 1.1 L 35.25,1.05 V 0.65 L 35.2,0.6 V 0.4 L 35.15,0.35 V 0.2 L 35.1,0.15 v -0.2 L 35.05,-0.1 v -0.3 m 6.2,0 0.05,-0.3 h 3.4 l -0.05,0.3 -0.2,0.65 -0.75,1.4 -1,2.3 -1,2.3 -1.9,2.9 -0.15,0.35 Q 39.55,9.85 39.3,9.6 V 9.1 l 0.1,-1.05 1.2,-5.2 0.5,-2.4 0.15,-0.85 m 7.85,0 0.3,-0.3 h 5.7 l -0.5,0.3 -1,0.6 q -1.3,0.75 -3.15,2.3 l -3.1,2.4 -2.2,1.5 -2.1,1.9 -2.3,1.8 q -0.55,0.3 -0.7,0 l 0.1,-0.4 8.95,-10.1 m 9.9,0 0.45,-0.3 h 8.45 l -0.6,0.3 -2.75,1.35 q -6.2,2.9 -11.8,6.65 l -3.35,2.05 -2.45,1 -2.45,1.05 -1.5,0.95 q -0.9,0.55 -1.6,0.75 l -0.85,0.1 q -0.5,-0.1 -0.5,-0.5 l 0.6,-0.65 4.3,-3 4.2,-3.2 Q 51.25,4.6 55.4,1.95 L 59,-0.4 M 75.1,31.8 74.4,31.45 Q 72.15,30.35 66.65,28.4 L 55.5,24.6 46.9,21.75 Q 45.3,21.25 44.25,20.6 43.4,20.1 43.6,19.55 L 43.7,19.4 43.6,19.2 Q 43.4,18.65 44.25,18.15 45.3,17.5 46.9,17 l 8.6,-2.85 11.15,-3.8 Q 72.15,8.4 74.4,7.3 L 75.1,7 75.25,6.95 v 5.65 l -0.15,0.05 -10.2,2.4 -13.1,3.25 -4.5,1.1 4.5,1.05 13.1,3.25 10.2,2.45 0.15,0.05 v 5.65 L 75.1,31.8 m 0,-7.95 q -1.9,-0.7 -5.15,-1.2 l -5.4,-1.05 -6.3,-1.95 -0.8,-0.25 h 0.05 l -0.05,-0.05 0.8,-0.2 6.3,-2 5.4,-1.05 5.15,-1.15 0.15,-0.05 v 4.25 H 75.1 l -3.35,0.25 3.35,0.25 h 0.15 V 23.9 L 75.1,23.85 M 61.45,40.8 55.4,36.8 q -4.15,-2.65 -6.25,-4.2 l -4.2,-3.2 -4.3,-3 -0.6,-0.65 q 0,-0.4 0.5,-0.5 l 0.85,0.1 q 0.7,0.2 1.6,0.75 l 1.5,0.95 2.45,1.05 2.45,1 3.35,2.05 q 5.6,3.75 11.8,6.65 l 4.6,2.3 1,0.7 0.35,0.35 h -8.55 l -0.3,-0.2 -0.2,-0.15 m -10.8,0 -1,-1.05 -9.5,-10.7 -0.1,-0.4 q 0.15,-0.3 0.7,0 l 2.3,1.8 2.1,1.9 2.2,1.5 3.1,2.4 q 1.85,1.55 3.15,2.3 l 2.25,1.4 0.85,0.85 0.2,0.35 h -5.95 l -0.3,-0.35 m -9.35,0 -0.2,-1.2 -0.5,-2.4 -1.2,-5.2 -0.1,-1.05 v -0.5 q 0.25,-0.25 0.35,0.1 l 0.15,0.35 1.9,2.9 1,2.3 1,2.3 0.75,1.4 0.25,1 -0.05,0.35 H 41.4 L 41.3,40.8 M 22.5,20.45 27,19.4 22.5,18.3 9.4,15.05 0.35,12.9 V 7.55 q 2.3,1.05 7.3,2.8 l 11.15,3.8 8.6,2.85 q 1.6,0.5 2.65,1.15 0.85,0.5 0.65,1.05 l -0.1,0.2 0.1,0.15 q 0.2,0.55 -0.65,1.05 L 27.4,21.75 18.8,24.6 7.65,28.4 q -5,1.75 -7.3,2.85 v -5.4 Q 4.05,24.9 9.4,23.7 l 13.1,-3.25 m -5.65,-1.1 -0.05,0.05 h 0.05 l -0.8,0.25 -6.3,1.95 -5.4,1.05 -4,0.85 V 19.55 L 2.55,19.4 0.35,19.25 V 15.3 l 4,0.8 5.4,1.05 6.3,2 0.8,0.2 m -12.7,21.45 1,-0.7 4.6,-2.3 q 6.2,-2.9 11.8,-6.65 2.15,-1.5 3.35,-2.05 l 2.45,-1 2.45,-1.05 1.5,-0.95 q 0.9,-0.55 1.6,-0.75 l 0.85,-0.1 q 0.5,0.1 0.5,0.5 l -0.6,0.65 q -1.8,1.05 -4.3,3 l -4.2,3.2 -6.25,4.2 -6.05,4 -0.2,0.15 -0.25,0.2 H 3.85 l 0.3,-0.35 m 13.45,0 0.85,-0.85 2.25,-1.4 3.15,-2.3 3.1,-2.4 2.2,-1.5 2.1,-1.9 q 1.3,-1.2 2.3,-1.8 0.55,-0.3 0.7,0 l -0.1,0.4 -9.5,10.7 -0.95,1.05 -0.3,0.35 h -6 l 0.2,-0.35 m 12.15,0 0.2,-1 0.75,-1.4 1,-2.3 1,-2.3 1.9,-2.9 0.15,-0.35 q 0.1,-0.35 0.35,-0.1 v 0.5 L 35,32 l -1.2,5.2 -0.5,2.4 -0.15,1.2 -0.1,0.35 h -3.3 V 40.8 m 5.25,0 v -0.2 l 0.05,-0.05 v -0.4 L 35.1,40.1 v -0.2 l 0.05,-0.05 V 39.7 l 0.05,-0.05 v -0.2 L 35.25,39.4 V 39 L 35.3,38.95 V 38.5 l 0.05,-0.05 v -0.4 L 35.4,38 v -0.15 l 0.05,-0.05 v -0.4 l 0.05,-0.05 v -0.6 L 35.55,36.7 V 36.1 L 35.6,36.05 V 35.4 l 0.05,-0.05 V 34.8 l 0.05,-0.05 v -0.2 L 35.75,34.5 V 34.35 L 35.8,34.3 v -0.2 l 0.05,-0.05 V 33.9 l 0.05,-0.05 v -0.1 L 35.95,33.7 V 33.4 L 36,33.35 V 32.9 l 0.05,-0.05 v -0.4 L 36.1,32.4 v -0.2 l 0.05,-0.05 v -0.6 L 36.2,31.5 V 31.05 L 36.25,31 v -0.2 l 0.05,-0.05 v -0.1 l 0.05,-0.05 v -0.1 l 0.05,-0.05 v -0.3 L 36.45,30.1 V 29.8 L 36.5,29.75 V 29.4 l 0.05,-0.05 V 28 l 0.05,-0.05 v -0.1 L 36.65,27.8 V 27.75 L 36.7,27.7 V 27.65 L 36.75,27.6 V 27.25 L 36.8,27.2 V 27.15 L 36.85,27.1 36.9,27.05 37,27 h 0.15 0.15 l 0.05,0.05 0.1,0.05 v 0.05 l 0.05,0.05 v 0.1 l 0.05,0.05 v 0.3 l 0.05,0.05 v 0.05 l 0.05,0.05 v 0.1 l 0.05,0.05 V 28 l 0.05,0.05 v 1.5 l 0.05,0.05 v 0.35 L 37.85,30 v 0.25 l 0.05,0.05 v 0.25 l 0.05,0.05 v 0.1 L 38,30.75 v 0.1 l 0.05,0.05 v 0.25 l 0.05,0.05 v 0.65 l 0.05,0.05 v 0.35 l 0.05,0.05 v 0.25 l 0.05,0.05 v 0.45 l 0.05,0.05 v 0.45 l 0.05,0.05 v 0.15 l 0.05,0.05 v 0.15 L 38.45,34 v 0.2 l 0.05,0.05 v 0.15 l 0.05,0.05 v 0.15 l 0.05,0.05 v 0.3 L 38.65,35 v 0.65 l 0.05,0.05 v 0.6 l 0.05,0.05 v 0.6 L 38.8,37 v 0.6 l 0.05,0.05 v 0.2 l 0.05,0.05 v 0.25 l 0.05,0.05 v 0.5 L 39,38.75 v 0.35 l 0.05,0.05 v 0.4 l 0.05,0.05 v 0.1 l 0.05,0.05 v 0.2 L 39.2,40 v 0.25 l 0.05,0.05 v 0.5 0.35 H 35 V 40.8"
         fill="#ffffff"
         fill-rule="evenodd"
         stroke="none"
         id="path9" />
      <path
         d="m 64.5,15.4 q -1.65,0.05 -2.85,-1.55 L 61.1,12.95 60.95,12.2 60.9,11.85 59.4,11.4 q -0.6,-0.15 -1,-0.45 L 57.45,10.2 56.8,9.4 Q 56.5,9.1 56.35,8.5 l -0.2,-0.95 q -0.1,-1.6 1.15,-2.5 l 1.5,-0.7 1.3,-0.25 q 0.65,0 1.65,0.5 l 1.85,1.35 0.5,-1 0.8,-0.75 0.8,-0.3 3.2,0.2 q 1.6,0.7 2.2,2.2 0.3,1 0.25,2.05 l -0.25,1.5 q -0.4,1.05 -1.45,1.7 l -1.2,0.5 -0.3,0.1 L 68,13 l -0.45,0.9 -0.6,0.75 -1.6,0.65 -0.85,0.1 M 65.65,8.2 67,9.15 67.2,9 68.05,8.55 68.15,8.1 68,7.5 67.4,7.05 66.7,6.95 66.3,7 l -0.4,0.45 -0.45,0.7 0.2,0.05 m -4.2,1.35 Q 61.8,8.9 62.3,8.55 61.65,7.8 60.6,7.2 L 60.05,6.9 58.6,7.05 q -0.15,0.2 0,0.45 0.45,1.05 1,1.35 l 1.85,0.7 m 8.05,15 L 68.7,23 Q 68,22.15 67.2,21.85 L 66.05,21.75 64.9,22 q -0.4,0.05 -0.8,0.25 -0.7,0.35 -1.15,1.4 l 0.2,0.6 0.55,2.7 0.15,1.4 0.5,0.2 0.45,0.2 0.55,-0.5 q 0.8,-0.5 1.55,0.2 l 0.45,0.6 0.2,-0.05 1.1,-0.45 v -0.1 q -0.15,-0.85 0.55,-1.3 0.3,-0.2 0.55,-0.25 L 69.8,26.8 69.75,25.6 69.5,24.55 m -27.15,2.7 0.95,-0.9 1.05,-0.85 1.25,-1.3 q -2,-0.05 -2.95,-0.5 L 41.4,22.95 Q 39.75,21.7 39.05,20.4 l -0.5,-1.3 -0.45,-1.6 q -0.35,-2.1 0.5,-4.1 0.65,-1.35 1.6,-2.3 L 39.9,10.8 39.35,10.1 39.1,9.25 Q 39,8.7 39.15,8.25 L 39.55,7.6 40.2,7 l 1.05,-0.5 0.6,-0.15 1.35,-0.1 0.6,0.05 0.6,0.25 q 0.75,0.4 1.5,1.55 L 46.65,7 Q 47.35,6.25 48.3,6 L 49.05,5.85 51,6 51.95,6.65 q 1.25,1 1.5,2.15 l 0.1,0.7 -0.1,0.95 -0.3,0.7 q -1.1,1.85 -2.9,2.1 l -0.3,0.05 -0.1,0.75 -0.2,0.45 -0.2,0.25 q 0.45,0.4 0.75,1.25 l 0.45,1.4 0.1,0.95 0.7,-0.35 q 1.3,-0.6 2.85,-0.6 3.65,-0.1 6.1,2 l 0.75,0.8 1.1,-1.05 q 2.3,-1.45 5.05,-1.1 2.8,0.45 4.4,2.55 l 0.7,1 1.05,2.45 0.2,1.8 -0.05,1.45 q -0.15,1.25 -0.85,2.3 l 0.05,0.6 -0.1,0.35 -0.45,1.6 q -0.2,0.95 -0.8,1.4 L 70.8,33.85 70.4,33.7 70.05,33.45 69.85,32.5 V 32 l -0.75,0.25 -1.35,0.25 -0.45,1.05 -0.6,0.9 -0.65,0.45 -0.6,-0.15 q -0.2,-0.2 -0.25,-0.7 L 65.1,33.5 65.2,33.15 65.35,32.45 64.7,32.3 63.5,32 62.75,33.65 q -0.8,1.2 -2,2 -1.55,1.15 -3.55,1.5 L 54,37.45 50.45,37.25 47,37.05 44.9,36.95 Q 43.75,36.8 43,36.35 41,35.1 41,31.6 q 0,-2.7 1.35,-4.35 m 0.7,-6.5 q 1.7,1.1 3.7,0.6 l 1.05,-0.6 q 0.35,-0.4 0.35,-1.45 L 47.8,17.45 47.4,16.25 47.35,16.1 45.65,16 q -1.1,-0.35 -1.6,-1.3 L 43.5,13.45 43.45,12.5 42.6,12.25 42.4,12.5 41.25,13.9 q -0.45,0.9 -0.55,1.6 -0.2,1.3 0.2,2.6 0.45,1.3 1.45,2.15 l 0.7,0.5 M 43.5,9.5 h 0.55 L 43.5,8.8 43,8.4 41.3,8.5 Q 40.95,8.6 40.95,8.8 L 41.1,9.05 41.85,9.8 42.25,9.6 43.5,9.5 M 48,9.85 q 0.7,0.3 1.2,1 l 0.45,-0.2 1,-1 L 50.7,9.45 50.6,9.2 Q 50.05,8.55 49.75,8.45 L 48.7,8.55 47.9,9.2 47.45,9.75 48,9.85 m -1.4,11 -0.75,-0.25 q -0.7,-0.55 -0.3,-1.3 l 0.55,-0.5 0.7,-0.05 0.6,0.45 0.15,0.7 -0.3,0.65 -0.65,0.3 m 7.1,-6.45 0.2,-0.15 0.35,-0.2 0.45,-0.1 0.55,0.05 h 0.15 q 0.3,0.05 0.6,0.35 l 0.35,0.5 v 0.9 L 56,16.3 55.55,16.6 55.2,16.7 h -0.85 l -0.2,-0.1 -0.2,-0.2 -0.55,-0.7 -0.05,-0.35 0.1,-0.55 0.25,-0.4 m 0,16.05 -0.1,-1.55 0.15,-1.55 0.65,-1.4 0.45,-0.55 Q 55.4,25.05 56,25.05 l 1.05,0.3 0.35,0.25 q 0.85,0.7 1.1,1.65 l 0.45,2.45 0.05,0.75 q -0.1,1.05 -1,1.5 l -1,0.25 h -0.8 -1 l -0.95,-0.3 -0.5,-0.8 -0.05,-0.45 v -0.2 m -7.9,2.75 h 2.7 l 2.75,0.25 3,0.05 2.1,-0.1 1.5,-0.55 1.5,-1.1 0.55,-1.45 q 0.25,-1.7 -0.3,-4.15 l -0.45,-0.1 -0.85,-0.6 Q 58,25 58,24.5 v -0.2 l 0.45,-0.35 0.15,-0.3 -0.05,-0.4 -0.4,-0.5 L 57.5,22 q -0.8,-0.55 -2.05,-0.75 -2.1,-0.5 -3.4,0.3 L 51,22.45 q -1.8,1.85 -3.05,3.75 l -1.9,2.35 -1.25,1 q -0.25,0.4 -0.3,1.35 0,1.2 0.25,1.75 l 0.3,0.45 0.75,0.1 m 8.85,-8.7 q -0.6,0.85 -1.4,0.8 -0.95,0 -1.45,-0.8 -0.25,-0.5 -0.15,-1.1 0.1,-0.65 0.55,-1 0.45,-0.35 0.95,-0.35 v 0.25 q 0,0.55 0.45,1 0.5,0.45 1.2,0.6 h 0.05 l -0.2,0.6 M 31.3,9.5 32.55,9.6 32.95,9.8 33.7,9.05 33.85,8.8 q 0,-0.2 -0.35,-0.3 l -1.7,-0.1 -0.45,0.4 -0.6,0.7 h 0.55 m 1.15,17.75 q 1.35,1.65 1.35,4.35 0,3.5 -2,4.75 l -1.9,0.6 -2.1,0.1 -3.45,0.2 -3.55,0.2 -3.2,-0.3 q -2,-0.35 -3.55,-1.5 -1.2,-0.8 -2,-2 L 11.3,32 10.1,32.3 9.45,32.45 9.6,33.15 9.7,33.5 9.6,34.05 9.35,34.75 8.75,34.9 8.1,34.45 7.5,33.55 7.05,32.5 5.7,32.25 5,32 v 0.5 L 4.75,33.45 4.4,33.7 4,33.85 Q 3.7,33.9 3.35,33.55 2.75,33.1 2.55,32.15 L 2.1,30.55 2,30.2 2.05,29.6 Q 1.35,28.55 1.2,27.3 l -0.05,-1.45 0.2,-1.8 q 0.3,-1.1 1.05,-2.45 l 0.7,-1 q 1.6,-2.1 4.4,-2.55 2.75,-0.35 5.05,1.1 0.65,0.45 1.1,1.05 l 0.75,-0.8 q 2.45,-2.1 6.1,-2 1.55,0 2.85,0.6 L 24.1,18.35 24.15,17.4 24.6,16 q 0.3,-0.85 0.75,-1.25 l -0.2,-0.25 -0.2,-0.45 -0.1,-0.75 -0.3,-0.05 q -1.8,-0.25 -2.9,-2.1 l -0.3,-0.7 -0.1,-0.95 0.1,-0.7 Q 21.6,7.65 22.85,6.65 23.35,6.2 23.8,6 L 25.75,5.85 26.5,6 q 0.95,0.25 1.65,1 L 28.9,8.1 Q 29.7,6.95 30.4,6.55 L 31,6.3 l 0.65,-0.05 1.3,0.1 0.6,0.15 1.05,0.5 0.65,0.6 0.4,0.65 0.05,1 -0.25,0.85 -0.5,0.7 -0.35,0.3 q 1,0.95 1.6,2.3 0.85,2 0.5,4.1 l -0.45,1.6 -0.5,1.3 q -0.7,1.3 -2.35,2.55 l -1.25,0.75 -2.95,0.5 1.25,1.3 1.05,0.85 0.95,0.9 M 26.8,9.85 27.35,9.75 26.9,9.2 26.1,8.55 25.05,8.45 q -0.3,0.1 -0.85,0.75 l -0.1,0.25 0.05,0.2 q 0.35,0.65 1,1 l 0.45,0.2 q 0.5,-0.7 1.2,-1 m 4.6,2.9 -0.1,0.7 -0.55,1.25 q -0.5,0.95 -1.6,1.3 l -1.7,0.1 -0.05,0.15 -0.35,1.2 q -0.35,0.85 -0.4,1.85 0,1.05 0.35,1.45 0.3,0.4 1.05,0.6 1.25,0.3 2.4,0 1.05,-0.25 2,-1.1 1,-0.85 1.45,-2.15 0.4,-1.3 0.2,-2.6 l -0.55,-1.6 -1.15,-1.4 -0.2,-0.25 -0.85,0.25 0.05,0.25 m -10.3,1.65 0.25,0.4 0.1,0.25 V 15.7 H 21.4 l -0.55,0.7 -0.2,0.2 -0.2,0.1 H 19.6 l -0.35,-0.1 -0.45,-0.3 -0.3,-0.55 -0.05,-0.35 0.05,-0.55 0.3,-0.5 q 0.35,-0.3 0.6,-0.35 h 0.15 l 0.55,-0.05 0.45,0.1 0.35,0.2 0.2,0.15 m -0.95,10.1 -0.2,-0.6 H 20 q 0.7,-0.15 1.2,-0.6 0.45,-0.45 0.45,-1 v -0.25 q 0.5,0 0.95,0.35 0.45,0.35 0.55,1 0.1,0.6 -0.15,1.1 -0.5,0.8 -1.45,0.8 -0.8,0.05 -1.4,-0.8 m 8.85,8.7 0.75,-0.1 0.3,-0.45 0.3,-1.75 -0.35,-1.35 -1.25,-1 -1.9,-2.35 Q 25.6,24.3 23.8,22.45 l -1.05,-0.9 q -1.3,-0.8 -3.4,-0.3 -1.25,0.2 -2.05,0.75 l -0.65,0.75 -0.4,0.5 -0.05,0.4 0.15,0.3 0.5,0.35 v 0.2 l -0.35,0.95 -0.85,0.6 -0.45,0.1 q -0.55,2.45 -0.3,4.15 0.2,0.95 0.55,1.45 0.4,0.6 1.5,1.1 l 1.55,0.55 2.05,0.1 3,-0.05 2.75,-0.25 H 29 m -0.8,-12.35 -0.65,-0.3 -0.3,-0.65 0.15,-0.7 q 0.25,-0.35 0.6,-0.45 l 0.7,0.05 0.55,0.5 q 0.4,0.75 -0.3,1.3 L 28.2,20.85 M 10.45,15.45 9.6,15.35 8,14.7 7.4,13.95 Q 7,13.45 6.95,13.05 6.8,12.7 6.8,12.2 L 6.5,12.1 5.3,11.6 Q 4.25,10.95 3.85,9.9 3.6,9.3 3.6,8.4 3.55,7.35 3.85,6.35 q 0.6,-1.5 2.2,-2.2 l 3.2,-0.2 0.8,0.3 0.8,0.75 0.5,1 1.85,-1.35 q 1,-0.5 1.65,-0.5 l 1.3,0.25 1.5,0.7 Q 18.9,6 18.8,7.6 l -0.2,0.95 -0.45,0.9 -0.65,0.8 -0.95,0.75 -1,0.45 -1.5,0.45 L 14,12.25 13.85,13 13.3,13.9 q -1.2,1.6 -2.85,1.55 m 5.65,-8.4 -1.2,-0.1 -0.55,0.3 q -1.05,0.6 -1.7,1.35 l 0.85,1 1.85,-0.7 q 0.55,-0.3 1,-1.35 L 16.45,7.25 16.35,7.1 16.1,7.05 M 9.3,8.25 9.5,8.2 9.05,7.5 8.65,7.05 8.3,7 7.55,7.1 6.95,7.55 6.8,8.15 6.9,8.6 7.75,9.05 7.95,9.2 Q 8.6,8.55 9.3,8.25 m 2.4,15.9 0.15,-0.5 Q 11.4,22.6 10.7,22.25 L 9.95,22 8.75,21.75 7.65,21.85 Q 6.8,22.15 6.1,23 5.7,23.5 5.45,24.2 L 5.05,25.6 5,26.8 5.05,26.9 q 0.25,0.05 0.55,0.25 0.7,0.45 0.55,1.3 v 0.1 l 1.1,0.45 0.2,0.05 q 0.2,-0.45 0.45,-0.6 0.75,-0.7 1.55,-0.2 l 0.55,0.5 0.45,-0.2 0.5,-0.2 0.15,-1.4 q 0.15,-1.5 0.6,-2.8 m 9.4,6.3 v 0.2 l -0.05,0.45 -0.5,0.8 -0.95,0.3 h -1 -0.8 l -1,-0.25 Q 15.9,31.5 15.85,30.45 V 29.7 l 0.45,-2.45 q 0.25,-0.95 1.1,-1.65 0.2,-0.2 0.35,-0.25 0.4,-0.3 1.05,-0.3 0.6,0 1.15,0.35 l 0.45,0.55 0.65,1.4 0.15,1.55 -0.1,1.55"
         fill="#000000"
         fill-rule="evenodd"
         stroke="none"
         id="path10" />
      <path
         d="m 63.15,24.25 -0.2,-0.6 q 0.45,-1.05 1.15,-1.4 0.4,-0.2 0.8,-0.25 l 1.15,-0.25 1.15,0.1 q 0.8,0.3 1.5,1.15 l 0.8,1.55 q -0.75,-1.05 -2.1,-1.6 -1.5,-0.5 -2.75,0 -0.95,0.45 -1.5,1.3 m -20.1,-3.5 -0.7,-0.5 q -1,-0.85 -1.45,-2.15 -0.4,-1.3 -0.2,-2.6 0.1,-0.7 0.55,-1.6 l 1.15,-1.4 0.2,-0.25 0.85,0.25 0.05,0.95 -1,0.6 q -0.6,0.7 -0.8,2.05 -0.25,1.65 0.2,2.85 l 0.45,0.9 0.7,0.9 m 11.6,3.75 0.2,-0.6 H 54.8 q -0.7,-0.15 -1.2,-0.6 -0.45,-0.45 -0.45,-1 v -0.25 q -0.5,0 -0.95,0.35 -0.45,0.35 -0.55,1 -0.1,0.6 0.15,1.1 0.5,0.8 1.45,0.8 0.8,0.05 1.4,-0.8 m -8.85,8.7 -0.75,-0.1 -0.3,-0.45 Q 44.5,32.1 44.5,30.9 q 0.05,-0.95 0.3,-1.35 l 1.25,-1 1.9,-2.35 Q 49.2,24.3 51,22.45 l 1.05,-0.9 q 1.3,-0.8 3.4,-0.3 1.25,0.2 2.05,0.75 l 0.65,0.75 0.4,0.5 0.05,0.4 -0.15,0.3 L 58,24.3 v 0.2 q 0,0.5 0.3,0.95 l 0.85,0.6 0.45,0.1 q 0.55,2.45 0.3,4.15 l -0.55,1.45 -1.5,1.1 -1.5,0.55 -2.1,0.1 -3,-0.05 -2.75,-0.25 h -2.7 m 7.9,-2.75 v 0.2 l 0.05,0.45 0.5,0.8 0.95,0.3 h 1 0.8 l 1,-0.25 q 0.9,-0.45 1,-1.5 L 58.95,29.7 58.5,27.25 Q 58.25,26.3 57.4,25.6 L 57.05,25.35 56,25.05 q -0.6,0 -1.15,0.35 l -0.45,0.55 -0.65,1.4 -0.15,1.55 0.1,1.55 m -23.25,-9.1 0.9,-0.9 1.2,-2.25 Q 33.2,16.6 33.2,15.55 33.1,13.9 32.1,13.1 31.75,12.85 31.4,12.75 l -0.05,-0.25 0.85,-0.25 0.2,0.25 1.15,1.4 0.55,1.6 q 0.2,1.3 -0.2,2.6 -0.45,1.3 -1.45,2.15 -0.95,0.85 -2,1.1 M 29,33.2 h -2.7 l -2.75,0.25 -3,0.05 -2.05,-0.1 -1.55,-0.55 q -1.1,-0.5 -1.5,-1.1 -0.35,-0.5 -0.55,-1.45 -0.25,-1.7 0.3,-4.15 l 0.45,-0.1 0.85,-0.6 0.35,-0.95 v -0.2 l -0.5,-0.35 -0.15,-0.3 0.05,-0.4 0.4,-0.5 L 17.3,22 q 0.8,-0.55 2.05,-0.75 2.1,-0.5 3.4,0.3 l 1.05,0.9 q 1.8,1.85 3.05,3.75 l 1.9,2.35 1.25,1 0.35,1.35 -0.3,1.75 -0.3,0.45 -0.75,0.1 m -8.85,-8.7 q 0.6,0.85 1.4,0.8 0.95,0 1.45,-0.8 0.25,-0.5 0.15,-1.1 -0.1,-0.65 -0.55,-1 -0.45,-0.35 -0.95,-0.35 v 0.25 q 0,0.55 -0.45,1 -0.5,0.45 -1.2,0.6 h -0.05 l 0.2,0.6 M 5.45,24.2 Q 5.7,23.5 6.1,23 6.8,22.15 7.65,21.85 l 1.1,-0.1 1.2,0.25 0.75,0.25 q 0.7,0.35 1.15,1.4 l -0.15,0.5 -0.4,-0.5 q -1.15,-1.3 -3,-1.15 -1.6,0.25 -2.85,1.7 M 21.1,30.45 21.2,28.9 21.05,27.35 20.4,25.95 19.95,25.4 q -0.55,-0.35 -1.15,-0.35 -0.65,0 -1.05,0.3 -0.15,0.05 -0.35,0.25 -0.85,0.7 -1.1,1.65 l -0.45,2.45 v 0.75 q 0.05,1.05 0.95,1.5 l 1,0.25 h 0.8 1 l 0.95,-0.3 0.5,-0.8 0.05,-0.45 v -0.2"
         fill="#ffffff"
         fill-rule="evenodd"
         stroke="none"
         id="path11" />
      <path
         d="M 61.45,9.55 59.6,8.85 q -0.55,-0.3 -1,-1.35 -0.15,-0.25 0,-0.45 L 60.05,6.9 60.6,7.2 q 1.05,0.6 1.7,1.35 -0.5,0.35 -0.85,1 M 65.65,8.2 65.45,8.15 65.9,7.45 66.3,7 66.7,6.95 67.4,7.05 68,7.5 68.15,8.1 68.05,8.55 67.2,9 67,9.15 65.65,8.2 m 3.85,16.35 0.25,1.05 0.05,1.2 -0.05,0.1 q -0.25,0.05 -0.55,0.25 -0.7,0.45 -0.55,1.3 v 0.1 l -1.1,0.45 -0.2,0.05 -0.45,-0.6 q -0.75,-0.7 -1.55,-0.2 l -0.55,0.5 -0.45,-0.2 -0.5,-0.2 -0.15,-1.4 -0.55,-2.7 q 0.55,-0.85 1.5,-1.3 1.25,-0.5 2.75,0 1.35,0.55 2.1,1.6 M 48,9.85 47.45,9.75 47.9,9.2 48.7,8.55 49.75,8.45 q 0.3,0.1 0.85,0.75 l 0.1,0.25 -0.05,0.2 -1,1 -0.45,0.2 q -0.5,-0.7 -1.2,-1 M 43.5,9.5 42.25,9.6 41.85,9.8 41.1,9.05 40.95,8.8 q 0,-0.2 0.35,-0.3 L 43,8.4 43.5,8.8 44.05,9.5 H 43.5 m 0,3.95 0.55,1.25 q 0.5,0.95 1.6,1.3 l 1.7,0.1 0.05,0.15 0.4,1.2 0.35,1.85 q 0,1.05 -0.35,1.45 l -1.05,0.6 q -2,0.5 -3.7,-0.6 l -0.7,-0.9 -0.45,-0.9 q -0.45,-1.2 -0.2,-2.85 0.2,-1.35 0.8,-2.05 l 1,-0.6 m 3.1,7.4 0.65,-0.3 0.3,-0.65 -0.15,-0.7 -0.6,-0.45 -0.7,0.05 -0.55,0.5 q -0.4,0.75 0.3,1.3 l 0.75,0.25 M 31.3,9.5 h -0.55 l 0.6,-0.7 0.45,-0.4 1.7,0.1 q 0.35,0.1 0.35,0.3 L 33.7,9.05 32.95,9.8 32.55,9.6 31.3,9.5 m -0.85,11.85 q -1.15,0.3 -2.4,0 -0.75,-0.2 -1.05,-0.6 -0.35,-0.4 -0.35,-1.45 0.05,-1 0.4,-1.85 l 0.35,-1.2 0.05,-0.15 1.7,-0.1 q 1.1,-0.35 1.6,-1.3 l 0.55,-1.25 0.1,-0.7 q 0.35,0.1 0.7,0.35 1,0.8 1.1,2.45 0,1.05 -0.65,2.65 l -1.2,2.25 -0.9,0.9 M 26.8,9.85 q -0.7,0.3 -1.2,1 l -0.45,-0.2 q -0.65,-0.35 -1,-1 L 24.1,9.45 24.2,9.2 q 0.55,-0.65 0.85,-0.75 l 1.05,0.1 0.8,0.65 0.45,0.55 -0.55,0.1 m 1.4,11 0.75,-0.25 q 0.7,-0.55 0.3,-1.3 L 28.7,18.8 28,18.75 q -0.35,0.1 -0.6,0.45 l -0.15,0.7 0.3,0.65 0.65,0.3 m -11.75,-13.6 -0.1,0.3 q -0.45,1.05 -1,1.35 l -1.85,0.7 -0.85,-1 q 0.65,-0.75 1.7,-1.35 l 0.55,-0.3 1.2,0.1 0.35,0.2 m -7.15,1 Q 8.6,8.55 7.95,9.2 L 7.75,9.05 6.9,8.6 6.8,8.15 6.95,7.55 7.55,7.1 8.3,7 8.65,7.05 9.05,7.5 9.5,8.2 9.3,8.25 M 5.45,24.2 q 1.25,-1.45 2.85,-1.7 1.85,-0.15 3,1.15 l 0.4,0.5 q -0.45,1.3 -0.6,2.8 l -0.15,1.4 -0.5,0.2 -0.45,0.2 -0.55,-0.5 q -0.8,-0.5 -1.55,0.2 -0.25,0.15 -0.45,0.6 L 7.25,29 6.15,28.55 v -0.1 Q 6.3,27.6 5.6,27.15 5.3,26.95 5.05,26.9 L 5,26.8 5.05,25.6 5.45,24.2"
         fill="#999999"
         fill-rule="evenodd"
         stroke="none"
         id="path12" />
    </g>
    <g
       id="shape2"
       transform="translate(2,2.05)">
      <path
         d="M -0.5,-0.4 V -0.55 H 75.1 V -0.4 40.8 H -0.5 Z"
         fill="none"
         stroke="#000000"
         stroke-linecap="round"
         stroke-linejoin="round"
         stroke-width="3"
         id="path13" />
    </g>
  </defs>
</svg>
