<?xml version="1.0" encoding="UTF-8" standalone="no"?>
<svg
   ffdec:objectType="frame"
   height="44.349998"
   width="78.599998"
   version="1.1"
   id="svg11"
   sodipodi:docname="175.svg"
   xmlns:inkscape="http://www.inkscape.org/namespaces/inkscape"
   xmlns:sodipodi="http://sodipodi.sourceforge.net/DTD/sodipodi-0.dtd"
   xmlns:xlink="http://www.w3.org/1999/xlink"
   xmlns="http://www.w3.org/2000/svg"
   xmlns:svg="http://www.w3.org/2000/svg"
   xmlns:ffdec="https://www.free-decompiler.com/flash">
  <sodipodi:namedview
     id="namedview11"
     pagecolor="#ffffff"
     bordercolor="#000000"
     borderopacity="0.25"
     inkscape:showpageshadow="2"
     inkscape:pageopacity="0.0"
     inkscape:pagecheckerboard="0"
     inkscape:deskcolor="#d1d1d1"
     fit-margin-top="5"
     fit-margin-left="5"
     fit-margin-right="5"
     fit-margin-bottom="5" />
  <g
     transform="translate(2,2.05)"
     id="g3">
    <use
       ffdec:characterId="1"
       height="42.700001"
       transform="translate(-1.75,-2)"
       width="76.449997"
       xlink:href="#shape0"
       id="use1" />
    <use
       ffdec:characterId="173"
       height="39.599998"
       transform="translate(-0.75,1.7)"
       width="75.449997"
       xlink:href="#shape1"
       id="use2" />
    <use
       ffdec:characterId="3"
       height="44.349998"
       transform="translate(-2,-2.05)"
       width="78.599998"
       xlink:href="#shape2"
       id="use3" />
  </g>
  <defs
     id="defs11">
    <g
       id="shape0"
       transform="translate(1.75,2)">
      <path
         d="M 2.8,0 V -0.4 H 5.4 V 0 H 9.7 V 19.45 0 H 20.55 L 19.3,19.45 H 9.7 0.25 V 0 H 2.8"
         fill="#ffffff"
         fill-rule="evenodd"
         stroke="none"
         id="path3" />
      <path
         d="M 0.25,19.45 H 9.7 19.3 L 18.7,28.6 16,28.5 10.95,27.95 9.7,27.8 Q 7.45,27.6 5.85,27.75 4.05,27.9 1.5,28.6 0.75,28.8 0.25,29.15 v -9.7 m 9.45,0 v 8.35 -8.35"
         fill="#121212"
         fill-rule="evenodd"
         stroke="none"
         id="path4" />
      <path
         d="m 9.7,27.8 1.25,0.15 5.05,0.55 2.7,0.1 h 1.05 l 3.75,0.15 q 2.45,0.3 3.6,1.25 0.6,0.5 0.6,1.1 0,0.65 -0.8,1 l -1.3,0.2 -7.15,0.15 -5.6,-0.3 L 9.7,31.75 7.95,31.6 3.1,31.95 0.95,32.3 0.25,32.1 -0.35,31.55 -0.5,31.3 V 29.9 L 0.25,29.15 Q 0.75,28.8 1.5,28.6 4.05,27.9 5.85,27.75 7.45,27.6 9.7,27.8 v 3.95 -3.95"
         fill="#999999"
         fill-rule="evenodd"
         stroke="none"
         id="path5" />
      <path
         d="M 2.8,0 H 0.25 M 9.7,0 H 5.4 m 16.15,0 h 10.7 M 20.55,0 H 9.7"
         fill="none"
         stroke="#666666"
         stroke-linecap="round"
         stroke-linejoin="round"
         stroke-width="4"
         id="path6" />
      <path
         d="m 9.7,-0.4 h 65 V 40.5 H 47.05 L 45.5,40.7 27,40.65 25.95,40.5 H 9.7 -0.5 V -0.4 H 9.7 V 40.5 -0.4"
         fill="#ffffff"
         fill-rule="evenodd"
         stroke="none"
         id="path7" />
    </g>
    <g
       id="shape1"
       transform="translate(0.75,-1.7)">
      <path
         d="m 72.85,8.9 1.35,2.8 q 0.6,1.9 0.45,4 -0.1,1.95 -0.7,3.55 -1.15,2.75 -4.35,4.8 -4.9,3.35 -12.2,3.75 -6.75,0.5 -12.3,-1.65 -2.25,-0.85 -3.75,-2 l -0.2,0.05 -1.7,0.55 -1.85,0.8 q -1.25,0.4 -1.85,-0.45 -0.4,-0.55 -0.15,-1.35 l 0.65,-1.2 2.1,-3.05 q -0.2,-1.1 -0.25,-2.6 0,-2.9 0.7,-4.8 0.65,-1.65 2.1,-3.35 Q 45.5,3.2 51.95,2 l 5.85,-0.3 6.4,0.4 q 3.5,0.65 5.75,2.7 1.35,1.3 2.9,4.1 m -7.6,-2.6 q -3.4,-1.05 -6.8,-1 L 55.2,5.45 H 52.85 Q 48.3,5.7 43.95,10.7 42.8,12 42.35,13 41.6,14.7 41.7,16.6 l 0.1,1.35 0.1,0.55 0.1,0.3 q 0.3,1.05 1.15,1.9 1.25,1.35 3.95,2.25 4.35,1.55 9.1,1.4 4.7,-0.2 9,-1.95 4.3,-1.8 5.45,-4.65 0.8,-2.2 -0.05,-4.8 Q 70.1,11.25 68.35,8.7 67.7,7.7 67.1,7.2 66.55,6.8 65.25,6.3"
         fill="#999999"
         fill-rule="evenodd"
         stroke="none"
         id="path8" />
      <path
         d="m 55.3,6.05 0.6,0.05 q 0.6,-0.8 1.8,-1.3 l 2,-0.25 0.7,0.25 q 1.05,0.6 1.35,1.25 L 61.8,6.1 q 0.5,0.75 0.4,1.8 -0.05,0.85 -0.7,1.65 l -0.4,0.35 -0.65,0.4 q 0.1,2.1 -1.6,3.6 l 0.15,0.2 0.9,1.4 v -0.1 q 0.15,-0.25 0.65,-0.55 1.3,-0.75 2.45,-0.5 0.65,0.1 1.15,0.6 0.5,0.45 0.55,1.1 0.75,-0.65 0.5,-1.5 l 0.05,-0.25 0.25,-0.05 q 0.55,0.25 0.55,0.85 l -0.25,1 q -0.45,0.8 -1.15,1 -0.8,0.35 -1.4,-0.3 l -0.4,-0.45 h -0.7 q -0.25,0.1 -0.25,0.15 l -0.05,0.3 Q 61.8,17.85 61.1,19.05 L 60.45,20 59.9,20.45 59.25,21.2 58.1,22.05 57,22.7 55.2,23.1 H 54.25 L 52.55,22.7 51,21.8 50.6,21.35 49.5,19.45 v -1.3 l 0.15,-0.8 q 0.2,-0.7 0.7,-1.35 0.7,-1.2 1.35,-1.75 L 52.15,13.85 51,12.55 50.6,11.7 50.55,11.25 h -0.1 l -1.3,-0.4 q -0.6,-0.4 -0.85,-1 l -0.15,-0.95 0.1,-1.2 0.3,-0.65 0.6,-0.8 Q 50.2,5.1 51.75,5.35 L 53,5.8 53.65,6.2 53.7,6.3 55.3,6.05 M 54,12.5 q -0.2,0 -0.2,0.35 0,0.45 0.15,0.65 l 0.45,0.25 1.3,-0.1 0.35,-0.1 0.5,0.2 1.05,0.05 0.8,-0.7 0.05,-0.75 q -0.2,-0.45 -0.6,-0.25 -0.25,0.05 -0.45,0.45 -0.3,0.4 -0.55,0.25 l -0.25,-0.25 -0.2,-0.3 q -0.3,-0.3 -0.6,0.1 L 55.65,12.7 Q 55.5,13.05 55,13.05 54.5,13.15 54.3,12.8 L 54,12.5 M 58.85,10.35 58.8,10.05 59.3,9.8 Q 59.75,9.45 59.6,8.95 59.4,8.5 58.75,8.5 L 58.05,8.8 58,8.7 57.4,8.2 Q 56.75,8 56.45,8.65 q -0.15,0.4 0.1,0.8 l 0.1,0.1 -0.6,0.4 -0.1,0.2 q 0,0.4 0.35,0.55 H 57 l 0.5,-0.15 0.6,0.65 q 0.35,0.35 0.6,0.2 L 58.9,11 58.85,10.45 v -0.1 m -7.3,0.15 0.8,0.4 -0.05,0.1 v 0.35 l -0.15,0.35 0.1,0.35 q 0.1,0.15 0.3,0.15 l 0.2,-0.1 0.65,-0.5 0.15,0.1 0.65,0.15 0.55,-0.35 -0.2,-0.7 -0.3,-0.25 v -0.2 l 0.5,-0.5 Q 55.05,9.4 54.65,9 L 53.75,8.9 53.3,9.45 53.1,9.85 52.9,9.65 52.35,9.2 Q 51.7,9 51.45,9.55 51.05,10 51.55,10.5 m -3.3,5.45 -0.55,0.35 -0.85,0.35 -0.6,0.6 q -0.6,0.1 -0.9,-0.3 l -0.3,-0.5 -0.6,-0.3 -0.6,-0.35 -0.25,-0.65 0.05,-0.7 q 0.25,-0.6 0.9,-0.85 0.65,-0.25 1.25,0 l 0.05,0.05 q 0.25,-0.5 0.9,-0.7 0.95,-0.25 1.6,0.4 0.6,0.4 0.5,1.1 l -0.3,0.95 -0.3,0.55 M 2.4,19.45 q 1.5,-5 5,-8.3 L 7.2,10 7.15,9.3 7,8.6 6.8,7.25 V 6.55 L 6.75,6.15 q 0.1,-0.6 0.35,-1 0.25,-0.5 0.8,-0.65 l 0.8,-0.05 2.5,0.45 1.65,0.7 1.65,0.8 0.55,0.45 0.15,-0.1 6.25,-0.5 q 4.65,0.55 7.55,3.2 1.4,1.35 2.35,3.15 l 2.5,0.25 3.35,0.85 q 1.4,0.4 1.75,1.05 Q 39.2,15.3 39,16 l -0.45,0.85 -0.8,0.65 -1.7,1.2 -1.5,1.4 -1.1,0.55 -0.25,0.05 q 0.05,3 -0.75,5.8 -0.7,2.55 -2.1,4.6 l 6.85,-2 3.15,-0.8 v -0.2 q -0.15,-1 0.1,-1.8 0.3,-0.95 1.05,-1.35 1.25,-0.7 2.35,0.2 1,0.75 1.1,2.1 l -0.1,0.6 1.6,0.45 q 1.3,0.55 2.15,1.95 0.8,1.4 0.65,2.7 -0.25,1.95 -2.45,3 -1.35,0.65 -3.85,0.9 l -24.3,3.2 -0.45,0.7 -0.65,0.55 -18.3,-2.15 V 29 Q 0.3,28.3 1.45,27.7 1.8,27.5 2.2,27.4 1.25,23.7 2.4,19.45 m 9.05,3.4 -0.2,1.4 q -0.1,1.5 1,2.45 l 1.05,0.6 q 1.65,0.55 3.15,-0.3 l 0.8,-0.3 1.1,1.25 q 0.9,0.55 2.8,0.35 l 0.85,-0.2 0.55,-0.5 0.85,-1 q 0.35,-0.55 0.25,-1.25 l -0.25,-0.4 -0.75,-0.05 -0.75,0.6 -0.8,0.55 q -0.55,0.25 -1.2,0 l -0.95,-0.8 -0.65,-1.15 -1.1,-0.05 -0.6,0.6 -0.8,0.5 q -1.35,0.6 -2.15,0 Q 13.1,24.7 12.9,23.6 L 12.85,23 12.95,22.35 Q 12.85,21.9 12.35,21.9 12,21.85 11.7,22.2 l -0.25,0.65 M 8.7,16.75 q -0.5,0.8 -0.35,1.8 0.2,1.05 1,1.55 0.8,0.55 1.8,0.4 1.05,-0.15 1.6,-0.9 l 0.3,-0.4 0.15,-0.45 -0.3,-0.2 -0.5,-0.5 -0.95,-1.3 L 11,15.9 10.9,15.65 H 10.4 Q 9.95,15.7 9.6,15.9 l -0.9,0.85 m 20.7,3.45 -0.25,-0.2 -0.8,0.5 q -1.9,1 -2.95,1.05 h -0.15 v 0.85 q 0.15,0.75 0.7,1.3 0.5,0.5 1.3,0.65 l 1.45,-0.15 1.1,-1 0.35,-1.4 Q 30.1,20.85 29.4,20.2"
         fill="#000000"
         fill-rule="evenodd"
         stroke="none"
         id="path9" />
      <path
         d="M 51.55,10.5 Q 51.05,10 51.45,9.55 51.7,9 52.35,9.2 l 0.55,0.45 0.2,0.2 0.2,-0.4 0.45,-0.55 0.9,0.1 q 0.4,0.4 0.1,0.85 l -0.5,0.5 v 0.2 l 0.3,0.25 0.2,0.7 -0.55,0.35 -0.65,-0.15 -0.15,-0.1 -0.65,0.5 -0.2,0.1 q -0.2,0 -0.3,-0.15 L 52.15,11.7 52.3,11.35 V 11 l 0.05,-0.1 -0.8,-0.4 m 7.3,-0.15 v 0.1 L 58.9,11 58.7,11.4 q -0.25,0.15 -0.6,-0.2 L 57.5,10.55 57,10.7 h -0.7 q -0.35,-0.15 -0.35,-0.55 l 0.1,-0.2 0.6,-0.4 -0.1,-0.1 Q 56.3,9.05 56.45,8.65 56.75,8 57.4,8.2 l 0.6,0.5 0.05,0.1 0.7,-0.3 q 0.65,0 0.85,0.45 0.15,0.5 -0.3,0.85 l -0.5,0.25 0.05,0.3 M 54,12.5 l 0.3,0.3 q 0.2,0.35 0.7,0.25 0.5,0 0.65,-0.35 l 0.15,-0.35 q 0.3,-0.4 0.6,-0.1 l 0.2,0.3 0.25,0.25 q 0.25,0.15 0.55,-0.25 0.2,-0.4 0.45,-0.45 0.4,-0.2 0.6,0.25 l -0.05,0.75 -0.8,0.7 -1.05,-0.05 -0.5,-0.2 -0.35,0.1 -1.3,0.1 -0.45,-0.25 Q 53.8,13.3 53.8,12.85 53.8,12.5 54,12.5 m -24.6,7.7 q 0.7,0.65 0.75,1.6 l -0.35,1.4 -1.1,1 -1.45,0.15 q -0.8,-0.15 -1.3,-0.65 -0.55,-0.55 -0.7,-1.3 v -0.85 h 0.15 q 1.05,-0.05 2.95,-1.05 l 0.8,-0.5 0.25,0.2 M 8.7,16.75 9.6,15.9 q 0.35,-0.2 0.8,-0.25 h 0.5 l 0.1,0.25 0.45,0.85 0.95,1.3 0.5,0.5 0.3,0.2 -0.15,0.45 -0.3,0.4 q -0.55,0.75 -1.6,0.9 -1,0.15 -1.8,-0.4 -0.8,-0.5 -1,-1.55 -0.15,-1 0.35,-1.8 m 2.75,6.1 0.25,-0.65 q 0.3,-0.35 0.65,-0.3 0.5,0 0.6,0.45 l -0.1,0.65 0.05,0.6 q 0.2,1.1 0.75,1.55 0.8,0.6 2.15,0 l 0.8,-0.5 0.6,-0.6 1.1,0.05 0.65,1.15 0.95,0.8 q 0.65,0.25 1.2,0 l 0.8,-0.55 0.75,-0.6 0.75,0.05 0.25,0.4 q 0.1,0.7 -0.25,1.25 l -0.85,1 -0.55,0.5 -0.85,0.2 q -1.9,0.2 -2.8,-0.35 l -1.1,-1.25 -0.8,0.3 q -1.5,0.85 -3.15,0.3 l -1.05,-0.6 q -1.1,-0.95 -1,-2.45 l 0.2,-1.4"
         fill="#ffffff"
         fill-rule="evenodd"
         stroke="none"
         id="path10" />
    </g>
    <g
       id="shape2"
       transform="translate(2,2.05)">
      <path
         d="M -0.5,-0.4 V -0.55 H 75.1 V -0.4 40.8 H -0.5 Z"
         fill="none"
         stroke="#000000"
         stroke-linecap="round"
         stroke-linejoin="round"
         stroke-width="3"
         id="path11" />
    </g>
  </defs>
</svg>
