<?xml version="1.0" encoding="UTF-8" standalone="no"?>
<svg
   ffdec:objectType="frame"
   height="44.349998"
   width="78.599998"
   version="1.1"
   id="svg11"
   sodipodi:docname="204.svg"
   xmlns:inkscape="http://www.inkscape.org/namespaces/inkscape"
   xmlns:sodipodi="http://sodipodi.sourceforge.net/DTD/sodipodi-0.dtd"
   xmlns:xlink="http://www.w3.org/1999/xlink"
   xmlns="http://www.w3.org/2000/svg"
   xmlns:svg="http://www.w3.org/2000/svg"
   xmlns:ffdec="https://www.free-decompiler.com/flash">
  <sodipodi:namedview
     id="namedview11"
     pagecolor="#ffffff"
     bordercolor="#000000"
     borderopacity="0.25"
     inkscape:showpageshadow="2"
     inkscape:pageopacity="0.0"
     inkscape:pagecheckerboard="0"
     inkscape:deskcolor="#d1d1d1"
     fit-margin-top="5"
     fit-margin-left="5"
     fit-margin-right="5"
     fit-margin-bottom="5" />
  <g
     transform="translate(2,2.05)"
     id="g3">
    <use
       ffdec:characterId="1"
       height="42.700001"
       transform="translate(-1.75,-2)"
       width="76.449997"
       xlink:href="#shape0"
       id="use1" />
    <use
       ffdec:characterId="201"
       height="38.599998"
       transform="translate(1.1,1.9)"
       width="74.150002"
       xlink:href="#shape1"
       id="use2" />
    <use
       ffdec:characterId="3"
       height="44.349998"
       transform="translate(-2,-2.05)"
       width="78.599998"
       xlink:href="#shape2"
       id="use3" />
  </g>
  <defs
     id="defs11">
    <g
       id="shape0"
       transform="translate(1.75,2)">
      <path
         d="M 2.8,0 V -0.4 H 5.4 V 0 H 9.7 V 19.45 0 H 20.55 L 19.3,19.45 H 9.7 0.25 V 0 H 2.8"
         fill="#ffffff"
         fill-rule="evenodd"
         stroke="none"
         id="path3" />
      <path
         d="M 0.25,19.45 H 9.7 19.3 L 18.7,28.6 16,28.5 10.95,27.95 9.7,27.8 Q 7.45,27.6 5.85,27.75 4.05,27.9 1.5,28.6 0.75,28.8 0.25,29.15 v -9.7 m 9.45,0 v 8.35 -8.35"
         fill="#121212"
         fill-rule="evenodd"
         stroke="none"
         id="path4" />
      <path
         d="m 9.7,27.8 1.25,0.15 5.05,0.55 2.7,0.1 h 1.05 l 3.75,0.15 q 2.45,0.3 3.6,1.25 0.6,0.5 0.6,1.1 0,0.65 -0.8,1 l -1.3,0.2 -7.15,0.15 -5.6,-0.3 L 9.7,31.75 7.95,31.6 3.1,31.95 0.95,32.3 0.25,32.1 -0.35,31.55 -0.5,31.3 V 29.9 L 0.25,29.15 Q 0.75,28.8 1.5,28.6 4.05,27.9 5.85,27.75 7.45,27.6 9.7,27.8 v 3.95 -3.95"
         fill="#999999"
         fill-rule="evenodd"
         stroke="none"
         id="path5" />
      <path
         d="M 2.8,0 H 0.25 M 9.7,0 H 5.4 m 16.15,0 h 10.7 M 20.55,0 H 9.7"
         fill="none"
         stroke="#666666"
         stroke-linecap="round"
         stroke-linejoin="round"
         stroke-width="4"
         id="path6" />
      <path
         d="m 9.7,-0.4 h 65 V 40.5 H 47.05 L 45.5,40.7 27,40.65 25.95,40.5 H 9.7 -0.5 V -0.4 H 9.7 V 40.5 -0.4"
         fill="#ffffff"
         fill-rule="evenodd"
         stroke="none"
         id="path7" />
    </g>
    <g
       id="shape1"
       transform="translate(-1.1,-1.9)">
      <path
         d="m 68.5,11.4 q 0,-0.8 0.7,-1.25 0.75,-0.4 1.5,0 0.7,0.45 0.7,1.25 v 0.3 l 0.05,0.9 0.05,1.3 -0.1,1.1 -0.6,1.45 -0.1,0.3 -0.65,0.1 -0.3,-0.55 -0.2,-0.5 Q 68.85,14.4 68.8,13.65 V 13.3 L 68.6,12.55 68.5,11.4 m 0.75,7.7 q 0,-0.55 0.5,-0.9 L 70.3,18 h 0.15 q 0.8,0 1.05,0.75 0.35,0.65 -0.25,1.25 -0.55,0.55 -1.3,0.2 -0.8,-0.25 -0.7,-1.1 m -4.7,13.4 q -1.05,-1.15 -1.2,-2.55 -0.1,-1.2 0.65,-3 L 64.4,26.2 63.9,25.3 Q 63.75,24.8 63.85,23.35 L 64,22.7 q 0.25,-0.8 0.75,-1.2 l 0.75,-0.55 q 1.25,-0.65 2.1,-0.6 l 0.75,0.1 0.75,0.2 q 1,0.45 1.55,1.95 l 0.2,0.65 1.2,0.4 q 1.05,0.45 1.75,1.4 1.65,1.95 1.4,4.35 l -0.45,1.8 q -0.95,2.35 -2.8,3.25 l 0.45,1.6 0.35,1.75 0.15,1.35 q -0.1,0.75 -0.55,1.3 L 72.3,40.5 h -9.8 q -0.4,-0.75 -0.2,-1.85 l 0.1,-1 q 0.2,-1.2 1,-2.2 l 0.75,-0.95 0.6,-0.75 0.6,-0.5 -0.8,-0.75 M 43.95,9.1 40.65,7.8 q -3.8,-1.55 -8,-1.2 -4.2,0.35 -7.65,2.5 -1,0.65 -2.8,2.05 -3.2,2.45 -4.9,4.2 L 15.2,17.75 4.3,31 q -0.6,0.7 -1,0.3 -0.2,-0.25 0.1,-0.75 l 8.95,-14.9 1.85,-2.8 3.2,-3.5 L 19.95,7 q 3.7,-3.1 8.5,-4.35 L 38,2.3 q 4.35,0.85 6.9,3.15 1,0.9 1.25,1.8 L 46.2,8 46.35,7.9 q 0.4,-0.25 1.15,0.3 l 1.2,1.1 3.7,3.9 5.75,6.8 1.65,2.2 0.95,2.4 q 0.55,2.3 -0.3,4.25 -0.95,2.25 -3.15,2.7 L 54.85,31.5 q -1.9,-0.35 -3.05,-1.3 -1.35,-1.05 -1.05,-2.3 0.2,-0.7 1,-1.05 l 1.4,0.1 0.8,0.6 0.95,0.05 1.05,-0.35 Q 56.5,26.75 56.1,25.7 55.8,24.75 54.6,23.15 50.6,17.6 46.3,9.6 L 45.95,8.7 Q 45.75,9 45.35,9.15 L 43.95,9.1 M 66.8,24.8 q -1.45,0.15 -1.9,1.65 -0.35,1.45 0.8,2.35 0.5,0.4 1.25,0.45 0.7,0.05 1.25,-0.3 1.35,-0.75 1.1,-2.25 -0.1,-0.85 -0.85,-1.45 -0.7,-0.6 -1.65,-0.45 m 6.55,6.45 q 0.9,-0.25 1.45,-1.1 0.5,-0.8 0.35,-1.7 Q 75,27.6 74.25,27 q -0.8,-0.6 -1.7,-0.55 -0.9,0.05 -1.55,0.75 -0.7,0.7 -0.7,1.6 0,1.7 1.5,2.35 l 1.55,0.1 M 25.6,14.5 26.2,14 26.6,13.55 q 0.35,-0.35 0.6,-0.35 0.4,0.1 0.4,0.55 l -0.3,0.65 -0.05,0.15 v 0.3 q -0.05,0.6 -0.5,1.2 l -7.4,12.25 q -4.9,8.1 -6.6,12 l -0.1,0.2 h -5.4 l 0.45,-1 3.6,-6.15 Q 15.35,26.7 20.75,20.2 l 1.35,-1.5 3.5,-4.2 m -8.65,25.45 q 0.5,-2.1 2.2,-5.4 6,-11.7 13.05,-17.75 0.25,-0.2 0.55,-0.25 0.3,-0.05 0.35,0.2 L 33,17.2 Q 24.7,30.15 22.05,39.95 l -0.1,0.55 H 16.8 l 0.15,-0.55"
         fill="#767676"
         fill-rule="evenodd"
         stroke="none"
         id="path8" />
      <path
         d="m 73.35,31.25 -1.55,-0.1 q -1.5,-0.65 -1.5,-2.35 0,-0.9 0.7,-1.6 0.65,-0.7 1.55,-0.75 0.9,-0.05 1.7,0.55 0.75,0.6 0.9,1.45 0.15,0.9 -0.35,1.7 -0.55,0.85 -1.45,1.1 M 66.8,24.8 q 0.95,-0.15 1.65,0.45 0.75,0.6 0.85,1.45 0.25,1.5 -1.1,2.25 -0.55,0.35 -1.25,0.3 -0.75,-0.05 -1.25,-0.45 -1.15,-0.9 -0.8,-2.35 0.45,-1.5 1.9,-1.65"
         fill="#ffffff"
         fill-rule="evenodd"
         stroke="none"
         id="path9" />
      <path
         d="M 39.75,9.8 Q 37,10.35 34,12.7 32.15,14.25 29.4,17.35 L 23.9,24 21.15,28.65 q -2.6,4.4 -3.6,6.75 l -1.3,3.3 -0.75,1.8 h -3.85 l -0.2,-0.25 q -0.35,-0.45 0.1,-1.5 L 13.05,35.7 12.5,35.4 12.1,35.05 11.4,34.8 10,34.65 9.35,34.45 Q 7.25,37.7 6.05,40.2 L 5.9,40.5 H 1.1 Q 1.2,39.45 2.05,38.1 9.2,26.2 18.2,15.7 q 2.35,-2.8 4.25,-4.5 2.15,-1.85 7.4,-5.05 l 3.4,-1.8 q 4.15,-1.8 8.5,-0.7 4.3,1.05 7.15,4.3 l 2.8,0.15 q 1.2,0.55 1.95,1.85 0.6,1.2 0.75,2.6 V 14 l -0.35,1.35 -0.1,0.25 0.8,2.45 0.05,0.35 1.1,1.8 q 0.75,0.75 2.65,1.35 2.05,0.55 2.75,1.15 0.6,0.45 0.75,1.05 0.2,0.5 0,1.6 L 61.4,29.5 q -0.3,1.75 -1,2.2 l -0.9,0.35 -1,0.2 -1.4,0.4 -1.4,0.15 Q 55,32.7 53.8,31.9 l -1.95,-1.35 -1.05,-1 Q 50.55,29 50.65,27.8 q 0.1,-1.1 0.55,-1.55 0.55,-0.45 1.35,-0.2 0.65,0.35 0.75,1.1 l 0.15,0.7 0.4,0.35 1.5,0.9 0.75,0.35 0.85,-0.2 0.8,-0.3 0.5,-3.1 -2.4,-0.85 q -2.4,-1.15 -3.2,-2.05 L 52.3,22.4 52.05,22.2 51.75,21.7 50.25,19.6 50,19.35 49.45,18.55 47,18.45 q -1.75,-0.4 -2.75,-1.65 -0.75,-1 -0.95,-2.1 -0.15,-0.5 -0.15,-1.5 0.2,-1.65 1.3,-2.7 -1.75,-1.3 -4.7,-0.7 m 10,3.55 -1.4,0.55 q -0.85,0.05 -1.5,-0.4 l -0.3,-0.25 0.1,0.7 q 0.25,0.6 0.95,0.85 l 1.3,0.2 1.45,-0.4 q 0.7,-0.45 0.85,-1.2 0.05,-0.6 -0.45,-1.5 l -0.2,-0.3 q -0.05,1 -0.8,1.75 m -28.3,7.05 1.2,-1.7 -0.4,-0.35 L 22,18.1 21.65,18 l -2.2,2.45 -1.3,1.65 0.2,0.2 0.8,0.45 0.6,0.4 1.7,-2.75 m 4.85,-6.55 q -1.85,1.4 -3.7,3.2 l 0.2,0.15 0.35,0.85 3.15,-4.2 m -7.45,10.3 -0.5,-0.4 -1.05,-0.55 -2.7,3.6 h 0.1 l 2.2,0.45 0.45,0.15 1.7,-3.05 -0.2,-0.2 m -2.5,4.2 -1.7,-0.2 -1.05,0.1 -3.45,4.95 h 0.1 q 1.6,0.3 2.25,0.7 l 1.05,0.7 h 0.05 l 3.2,-6.25 h -0.45"
         fill="#000000"
         fill-rule="evenodd"
         stroke="none"
         id="path10" />
    </g>
    <g
       id="shape2"
       transform="translate(2,2.05)">
      <path
         d="M -0.5,-0.4 V -0.55 H 75.1 V -0.4 40.8 H -0.5 Z"
         fill="none"
         stroke="#000000"
         stroke-linecap="round"
         stroke-linejoin="round"
         stroke-width="3"
         id="path11" />
    </g>
  </defs>
</svg>
