<?xml version="1.0" encoding="UTF-8" standalone="no"?>
<svg
   ffdec:objectType="frame"
   height="44.349998"
   width="78.599998"
   version="1.1"
   id="svg12"
   sodipodi:docname="374.svg"
   xmlns:inkscape="http://www.inkscape.org/namespaces/inkscape"
   xmlns:sodipodi="http://sodipodi.sourceforge.net/DTD/sodipodi-0.dtd"
   xmlns:xlink="http://www.w3.org/1999/xlink"
   xmlns="http://www.w3.org/2000/svg"
   xmlns:svg="http://www.w3.org/2000/svg"
   xmlns:ffdec="https://www.free-decompiler.com/flash">
  <sodipodi:namedview
     id="namedview12"
     pagecolor="#ffffff"
     bordercolor="#000000"
     borderopacity="0.25"
     inkscape:showpageshadow="2"
     inkscape:pageopacity="0.0"
     inkscape:pagecheckerboard="0"
     inkscape:deskcolor="#d1d1d1"
     fit-margin-top="5"
     fit-margin-left="5"
     fit-margin-right="5"
     fit-margin-bottom="5" />
  <g
     transform="translate(2,2.05)"
     id="g3">
    <use
       ffdec:characterId="1"
       height="42.700001"
       transform="translate(-1.75,-2)"
       width="76.449997"
       xlink:href="#shape0"
       id="use1" />
    <use
       ffdec:characterId="356"
       height="40.650002"
       transform="translate(-0.3,1)"
       width="76.300003"
       xlink:href="#shape1"
       id="use2" />
    <use
       ffdec:characterId="3"
       height="44.349998"
       transform="translate(-2,-2.05)"
       width="78.599998"
       xlink:href="#shape2"
       id="use3" />
  </g>
  <defs
     id="defs12">
    <g
       id="shape0"
       transform="translate(1.75,2)">
      <path
         d="M 2.8,0 V -0.4 H 5.4 V 0 H 9.7 V 19.45 0 H 20.55 L 19.3,19.45 H 9.7 0.25 V 0 H 2.8"
         fill="#ffffff"
         fill-rule="evenodd"
         stroke="none"
         id="path3" />
      <path
         d="M 0.25,19.45 H 9.7 19.3 L 18.7,28.6 16,28.5 10.95,27.95 9.7,27.8 Q 7.45,27.6 5.85,27.75 4.05,27.9 1.5,28.6 0.75,28.8 0.25,29.15 v -9.7 m 9.45,0 v 8.35 -8.35"
         fill="#121212"
         fill-rule="evenodd"
         stroke="none"
         id="path4" />
      <path
         d="m 9.7,27.8 1.25,0.15 5.05,0.55 2.7,0.1 h 1.05 l 3.75,0.15 q 2.45,0.3 3.6,1.25 0.6,0.5 0.6,1.1 0,0.65 -0.8,1 l -1.3,0.2 -7.15,0.15 -5.6,-0.3 L 9.7,31.75 7.95,31.6 3.1,31.95 0.95,32.3 0.25,32.1 -0.35,31.55 -0.5,31.3 V 29.9 L 0.25,29.15 Q 0.75,28.8 1.5,28.6 4.05,27.9 5.85,27.75 7.45,27.6 9.7,27.8 v 3.95 -3.95"
         fill="#999999"
         fill-rule="evenodd"
         stroke="none"
         id="path5" />
      <path
         d="M 2.8,0 H 0.25 M 9.7,0 H 5.4 m 16.15,0 h 10.7 M 20.55,0 H 9.7"
         fill="none"
         stroke="#666666"
         stroke-linecap="round"
         stroke-linejoin="round"
         stroke-width="4"
         id="path6" />
      <path
         d="m 9.7,-0.4 h 65 V 40.5 H 47.05 L 45.5,40.7 27,40.65 25.95,40.5 H 9.7 -0.5 V -0.4 H 9.7 V 40.5 -0.4"
         fill="#ffffff"
         fill-rule="evenodd"
         stroke="none"
         id="path7" />
    </g>
    <g
       id="shape1"
       transform="translate(0.3,-1)">
      <path
         d="m 69.65,17.8 q -1.1,-0.2 -2.6,-1.1 -1.1,-0.65 -1.5,-1.35 L 65.35,14.9 64.8,15 q -1.55,0.15 -2.6,-1.05 l -0.3,-0.4 q -0.15,-0.25 -0.15,-0.9 0,-1.05 0.3,-1.45 L 62.3,10.95 Q 63.05,10.1 63.8,9.9 l 0.4,-0.05 1.35,0.1 0.65,0.25 Q 66.8,9.25 67.7,8.65 L 68.05,8.45 68,7.55 q 0,-1.25 0.35,-1.8 l 0.4,-0.45 0.9,-0.65 1,-0.15 1.15,0.2 Q 72.4,5.1 72.75,6 L 72.95,6.45 73,7 72.85,8.15 72.75,8.5 73.5,9.2 q 0.8,1 1.05,2.55 l -0.15,2.55 0.65,0.95 0.7,8.15 0.2,0.75 q 0.25,1 -0.75,1.65 l -1.9,0.05 q -0.55,-0.25 -1.6,-1.4 -1,-1.2 -1.25,-1.95 L 70.3,21.6 q -0.2,-2 -0.1,-3.7 l -0.55,-0.1 m -0.8,-4.15 -0.05,-0.15 -1,0.2 -0.4,-0.1 V 13.55 L 67.1,13.5 66.55,13.2 66.2,12.95 V 12.9 l -0.1,0.05 -0.1,0.2 -0.15,0.2 -0.15,0.7 0.05,0.3 0.15,0.45 0.2,0.3 0.7,0.4 0.6,0.1 0.6,-0.2 0.35,-0.15 0.4,-0.6 0.15,-0.3 v -0.4 l -0.05,-0.3 m 1.5,-3.5 v 0.05 0.05 l 0.05,1.2 -0.05,0.55 -0.1,0.4 -0.15,0.3 0.75,0.3 v 0.05 H 71.3 V 13 l 0.4,-0.1 0.5,-0.35 0.25,-0.4 0.1,-0.2 L 72.6,11.7 72.55,11 72.4,10.7 72.3,10.55 71.55,10.05 71.05,9.95 V 10 l -0.45,0.05 -0.25,0.1 m -23,23.95 Q 45.8,33.35 45.1,31.75 L 44.65,30.1 43.9,30 Q 42.4,29.55 41.85,28.6 41.4,27.8 41.5,26.75 l 0.05,-0.9 0.45,-1.05 0.9,-0.95 q 0.5,-0.5 1.05,-0.7 L 44.7,23 q 1,-0.1 1.8,0.35 l 0.9,0.75 1.1,-0.7 q 1.55,-0.7 3.15,-0.45 l 0.4,-0.6 Q 53,21.2 54,20.75 q 1.4,-0.6 2.45,0 0.6,0.35 0.9,1 0.35,0.65 0.25,1.35 -0.1,0.75 -0.75,1.65 l -0.75,1.3 0.45,1.3 q 0.7,2.8 -1.1,5.1 l -0.15,0.2 0.05,0.05 1.85,3.05 0.9,2.5 0.1,0.85 q -0.05,0.6 -0.6,1.05 -0.5,0.45 -1.1,0.35 h -0.55 l -0.5,0.25 -1.65,-0.1 Q 53.75,40.5 53.5,40.5 53.4,40.45 53.2,40.65 l -0.95,0.1 -0.45,-0.1 -0.45,0.2 -1.45,0.1 -0.45,-0.3 -0.3,0.05 -0.95,-0.2 -0.7,-0.75 Q 47.35,39.3 47.35,38.4 l 0.1,-1.5 q 0.1,-1.05 0.75,-2.5 l -0.85,-0.3 m -1.2,-4.5 0.45,0.4 0.5,0.1 v 0.05 h 0.45 V 30.1 L 47.95,30 48.5,29.65 48.85,29.1 48.95,28.45 48.75,28.4 47.7,28.05 47.05,27.55 46.6,27 46.05,27.35 45.9,27.6 45.75,28 l -0.05,0.5 0.05,0.5 0.1,0.25 0.3,0.35 m 8.75,-3.45 -0.2,-0.25 -0.2,-0.25 -0.35,-0.25 -0.5,-0.1 -0.9,1.55 -0.6,0.55 -0.25,0.15 0.1,0.25 q 0.7,0.9 1.7,0.65 L 54.15,28.3 54.85,27.7 54.9,27.6 55,27.25 55.05,26.9 55,26.4 54.9,26.15 M 21.95,22 l 0.3,-0.05 0.45,-1.1 0.4,-0.45 0.7,-0.5 1.05,-0.05 0.55,0.05 0.4,0.15 0.5,0.3 q 0.8,0.65 0.8,1.6 l -0.15,0.7 -0.4,0.85 -0.5,0.6 0.1,0.3 0.3,1.4 0.15,1.45 q 0.1,1.95 -1.05,3.65 L 25.4,31.15 26.15,34 q 0.45,1.75 0.05,2.9 -0.35,1.2 -1.55,2.05 -0.85,0.65 -2.1,0.95 l -0.1,0.1 q -0.75,0.7 -2.05,0.7 l -1,-0.2 -1,-0.6 -1,-1 q -0.45,-0.7 -0.55,-1.8 -0.05,-0.8 0.2,-1.95 L 17.3,34.1 q 0.25,-0.85 0.75,-1.6 l 0.9,-2 q -1.15,-1.4 -1.2,-3 -1.3,0 -2,-0.65 L 14.95,25.9 14.8,25.6 q -0.15,-0.45 -0.05,-1.05 l 0.05,-0.6 q 0.1,-0.5 0.7,-1.2 l 0.3,-0.35 0.45,-0.35 q 0.4,-0.25 1,-0.35 h 0.7 l 0.75,0.2 0.4,0.3 0.45,0.25 0.4,0.5 0.05,0.1 q 1,-0.8 1.95,-1.05 m 2.65,5.05 h 0.45 V 27 l 0.6,-0.25 0.2,-0.15 v -0.1 l 0.1,-0.1 0.15,-0.25 v -0.1 L 26.15,25.7 26.1,25.4 25.95,25 Q 25.6,24.45 24.8,24.35 v 0.05 h -0.05 l -0.1,0.2 -0.55,0.75 -0.6,0.35 V 26 l 0.05,0.1 0.05,0.15 0.05,0.1 0.95,0.65 v 0.05 M 8.05,4.8 Q 9.2,4.1 10.5,4.4 l 0.2,-0.35 q 0.5,-0.45 1.15,-0.7 l 1,-0.15 0.1,-0.05 q 0.9,0.1 1.55,0.8 l 0.2,0.5 0.05,0.3 -0.1,1.1 -0.2,0.35 -0.5,0.65 L 13.2,7.4 V 7.45 L 13.3,9.2 13.1,10.1 12.55,10.9 11,12.25 9,12.65 8.45,12.6 8.4,12.7 8,13.7 Q 6.9,16.05 5.2,16.65 L 3.7,16.95 2.9,17 Q 2.1,16.95 1.3,16.3 L 0.2,14.95 -0.1,14.35 -0.25,13.1 0.1,11.4 q 0.8,-2 3.25,-2.85 l 2,-0.2 0.1,0.05 V 8.25 L 5.5,8.15 5.2,8.05 4.7,7.75 4.25,7.35 3.85,6.75 3.7,6.35 Q 3.55,5.75 3.8,5.1 L 3.85,4.85 4.5,4.2 4.85,3.95 5.85,3.9 6.8,4.15 7.2,4.45 7.7,5.05 8.05,4.8 m 13.4,22.55 V 26.5 26.45 L 20.5,26.6 20,26.55 Q 19.5,26.4 19.3,26.05 L 19.25,26.1 Q 19,26.5 19,26.95 q 0.05,0.5 0.35,0.8 0.3,0.35 0.8,0.4 l 0.85,-0.2 0.3,-0.3 0.15,-0.3 M 8.45,9.2 q 0.9,-0.15 1,-1.1 V 7.85 L 9.2,7.8 8.85,7.65 8.55,7.35 8.1,6.8 7.7,6.9 Q 7.15,7.25 7.1,7.7 6.9,8.25 7.35,8.8 7.85,9.3 8.45,9.2 M 11.1,9.15 11.75,9.6 12.55,9.55 Q 13.45,9.1 13.2,8.2 13.1,7.75 12.65,7.45 L 12.5,7.4 H 12.45 L 12.05,7.7 11.6,7.9 11.2,8 11,8.05 q -0.3,0.6 0.1,1.1"
         fill="#999999"
         fill-rule="evenodd"
         stroke="none"
         id="path8" />
      <path
         d="M 70.35,10.15 70.6,10.05 71.05,10 V 9.95 l 0.5,0.1 0.75,0.5 0.1,0.15 0.15,0.3 0.05,0.7 -0.05,0.25 -0.1,0.2 -0.25,0.4 -0.5,0.35 -0.4,0.1 v 0.05 H 70.85 V 13 l -0.75,-0.3 0.15,-0.3 0.1,-0.4 0.05,-0.55 -0.05,-1.2 V 10.2 10.15 m -1.5,3.5 0.05,0.3 v 0.4 l -0.15,0.3 -0.4,0.6 -0.35,0.15 -0.6,0.2 -0.6,-0.1 -0.7,-0.4 -0.2,-0.3 -0.15,-0.45 -0.05,-0.3 0.15,-0.7 0.15,-0.2 0.1,-0.2 0.1,-0.05 v 0.05 l 0.35,0.25 0.55,0.3 0.3,0.05 v 0.05 l 0.4,0.1 1,-0.2 0.05,0.15 m -13.95,12.5 0.1,0.25 0.05,0.5 -0.05,0.35 -0.1,0.35 -0.05,0.1 -0.7,0.6 -0.45,0.15 Q 52.7,28.7 52,27.8 l -0.1,-0.25 0.25,-0.15 0.6,-0.55 0.9,-1.55 0.5,0.1 0.35,0.25 0.2,0.25 0.2,0.25 M 46.15,29.6 45.85,29.25 45.75,29 45.7,28.5 45.75,28 45.9,27.6 46.05,27.35 46.6,27 l 0.45,0.55 0.65,0.5 1.05,0.35 0.2,0.05 -0.1,0.65 -0.35,0.55 -0.55,0.35 -0.4,0.1 v 0.05 H 47.1 V 30.1 L 46.6,30 46.15,29.6 M 24.6,27.05 V 27 L 23.65,26.35 23.6,26.25 23.55,26.1 23.5,26 v -0.3 l 0.6,-0.35 0.55,-0.75 0.1,-0.2 h 0.05 v -0.05 q 0.8,0.1 1.15,0.65 l 0.15,0.4 0.05,0.3 -0.05,0.35 v 0.1 l -0.15,0.25 -0.1,0.1 v 0.1 l -0.2,0.15 -0.6,0.25 v 0.05 H 24.6 M 11.1,9.15 Q 10.7,8.65 11,8.05 L 11.2,8 11.6,7.9 12.05,7.7 12.45,7.4 h 0.05 l 0.15,0.05 q 0.45,0.3 0.55,0.75 0.25,0.9 -0.65,1.35 L 11.75,9.6 11.1,9.15 M 8.45,9.2 Q 7.85,9.3 7.35,8.8 6.9,8.25 7.1,7.7 7.15,7.25 7.7,6.9 L 8.1,6.8 8.55,7.35 8.85,7.65 9.2,7.8 9.45,7.85 V 8.1 q -0.1,0.95 -1,1.1 m 13,18.15 -0.15,0.3 -0.3,0.3 -0.85,0.2 q -0.5,-0.05 -0.8,-0.4 -0.3,-0.3 -0.35,-0.8 0,-0.45 0.25,-0.85 l 0.05,-0.05 q 0.2,0.35 0.7,0.5 l 0.5,0.05 0.95,-0.15 v 0.05 0.85"
         fill="#ffffff"
         fill-rule="evenodd"
         stroke="none"
         id="path9" />
      <path
         d="m 58.75,32.05 q -1.1,-0.6 -2.2,-2.15 -0.8,-1.05 -1.05,-2.05 L 55.4,26.4 q -0.1,-1.95 0.25,-3.2 l -0.3,-0.25 -0.5,-0.75 q -0.55,-1.1 -0.55,-2 -0.05,-1.05 0.65,-1.95 l 0.55,-0.4 q 0.9,-0.7 1.65,-0.85 h 0.6 q 0.95,0.1 1.35,0.35 l 0.55,0.55 0.4,0.55 0.2,0.45 1.7,-0.4 1.85,-0.25 h 0.1 q 0.75,-1.5 2.5,-2.4 l 0.95,-0.4 0.95,-0.1 1.5,0.2 q 1,0.4 1.6,1.95 0.6,1.45 0.2,2.65 l -0.3,0.65 -1.1,1.05 -0.35,0.25 0.55,1.95 q 0.25,2.15 -0.55,4.2 l -1,1.8 q 1.55,1.6 2.85,5.2 l 0.9,3 -0.1,1.45 -0.7,0.75 -1,0.2 q -1.05,-0.1 -1.65,-1.15 l -1.05,0.85 q -0.75,0.2 -1.3,-0.2 -0.1,0.6 -0.6,1.05 -0.5,0.45 -1.15,0.45 -0.6,0 -1.15,-0.45 -0.5,-0.45 -0.6,-1.05 H 62.6 Q 62.2,41.2 61,41.3 L 60,40.95 59.4,40.1 59.3,39.05 q 0.05,-1.25 0.45,-3.55 l 0.55,-2.85 -1.55,-0.6 m 4.8,-7.3 0.6,0.45 1.35,0.1 0.25,-0.1 0.35,-0.2 0.65,-0.95 0.1,-0.55 -0.15,-0.65 -0.15,-0.3 -0.15,-0.2 Q 65.95,21.8 65.35,21.7 l -0.1,0.35 -0.3,0.7 -0.25,0.3 -0.25,0.45 -1,0.85 -0.1,0.05 v 0.05 l 0.2,0.3 m -35,2.35 q -1.4,-0.7 -2.3,-1.4 l -1.05,-1 Q 23.35,22.75 22.9,20.95 L 22.3,17.8 q -0.45,-2.3 0.65,-4.85 L 20.95,10.4 20.3,9.5 Q 20,8.65 20.7,7.85 21.2,7.3 22.15,6.85 L 23.75,6.2 29.15,5.05 30.2,4.9 30.4,4.8 32.8,4.2 q 2.35,-0.3 4.7,-0.05 l 3.6,-2.2 Q 42.6,0.9 43.3,1 q 0.75,0.15 1.15,0.85 l 0.2,1.1 0.85,4.15 0.4,2.15 0.1,0.15 0.65,1.1 q 1.4,2.8 0.75,7 l -0.75,3.2 -0.75,2 -1.1,1.7 -1.85,2 -1.45,1.05 q 0.25,2.25 1.25,8.05 l 0.6,4.55 V 40.2 H 33.5 l -0.15,-0.4 -1.15,-0.1 -0.35,-0.1 -0.4,0.1 -0.45,0.4 -0.05,0.1 h -8.1 l -0.2,-0.5 -1.15,-3.55 -1.5,-3.4 -1.5,1 -1.8,0.3 q -1.4,-0.25 -1.95,-1.75 -0.4,-1.4 0.4,-2.7 0.6,-1.05 2,-1.85 1,-0.5 1.55,-0.6 l 2.05,0.05 q 0.85,0.15 1.4,0.45 1.15,0.65 2.15,2.85 1.65,3.65 2.55,7.7 0.35,-3.1 0.65,-4.55 0.5,-3.1 1.5,-6.3 L 28.55,27.1 M 29.9,13.95 q -0.5,-0.7 -1.35,-0.8 L 27.65,13.1 H 27.2 l -0.3,0.1 -0.55,0.25 Q 25.8,13.8 25.6,14.3 l -0.15,0.3 -0.05,0.35 -0.05,1 q 0,0.55 0.3,1 l 0.1,0.15 h 0.35 l 1.2,0.2 1.25,0.55 0.65,-0.4 0.45,-0.35 0.55,-0.9 0.15,-1.3 -0.05,-0.3 -0.4,-0.65 m 34.7,13.5 0.05,-0.1 -0.05,-0.1 0.05,-0.05 -0.05,-0.15 -0.25,-0.35 -0.3,-0.1 -1,-0.15 -0.85,0.1 L 62.1,26.1 62,25.9 61.45,25.6 61.4,25.65 H 61.35 L 61,26 q -0.25,0.25 -0.15,0.55 l 0.05,0.1 -0.75,0.05 -0.3,0.2 -0.8,0.4 q -0.4,0.4 -0.3,0.75 l 0.05,0.15 0.1,0.2 0.55,0.15 0.55,-0.25 0.45,-0.35 q 0.35,-0.35 0.6,-0.35 l 0.1,-0.05 q 1.1,-0.4 1.7,-0.25 l 0.4,0.15 0.5,0.1 0.6,0.05 0.25,-0.15 m -7.05,-1.4 0.55,0.05 0.5,-0.1 0.45,-0.4 0.2,-0.3 0.05,-0.1 -0.6,-0.3 -0.8,-0.85 -0.3,-0.4 -0.15,-0.25 -0.1,0.05 -0.3,0.2 -0.3,0.35 -0.15,0.4 V 25 l 0.1,0.35 0.25,0.35 0.15,0.1 0.45,0.25 M 44.6,16.95 Q 43.8,16.9 42.55,17.5 l -2.1,0.7 -2,-0.3 -2,-0.6 Q 34.8,17.05 33.3,17.85 l -1.1,0.75 -1.5,0.7 -1.25,0.3 -1.4,-0.15 -1.4,-0.35 h -0.6 l -0.4,0.4 0.35,0.55 q 1.45,1.3 3.55,1.55 2.05,0.15 3.75,-0.85 l 0.95,-0.55 q 0.6,-0.35 1.05,-0.45 l 1.55,0.2 1.5,0.5 3.1,-0.2 2.75,-1.5 0.9,-1.2 L 45,17.1 44.6,16.95 m -4.05,-2.55 0.4,0.8 0.35,0.3 0.6,0.35 0.25,-0.15 0.25,-0.05 0.35,-0.15 1.1,-0.25 0.4,-0.1 0.6,-0.05 h 0.05 l 0.15,-0.25 q 0.45,-0.7 0.2,-1.7 L 45.05,12.7 44.8,12.3 44.55,12 43.8,11.5 l -1,-0.1 -1.1,0.2 -0.55,0.4 -0.35,0.35 q -0.45,0.5 -0.35,1.5 l 0.1,0.55 m -24.8,3.95 q 0.8,1.05 1.1,2 l 0.2,1.05 0.2,1.75 q -0.05,1 -0.65,2.15 -1.1,2.15 -3.1,3.2 -1.45,0.75 -3.45,0.9 h -1 v 0.7 1.95 l -0.2,1.3 q -0.6,2.8 -1.75,4.5 l -1.9,2.2 q -1.15,1.15 -2,1.2 -0.95,0 -1.4,-0.7 L 1.5,39.85 0.8,39.7 Q 0.25,39.35 0,38.5 l -0.05,-1.4 -0.2,-5.6 0.1,-1.8 0.55,-1.1 q 1.3,-1.95 3.3,-3.2 h 0.05 l -0.1,-0.25 q -0.2,-0.7 -0.1,-1.7 L 3.6,23.1 1.95,23.2 1.25,22.95 q -0.5,-0.25 -0.75,-1 l -0.15,-1.3 q 0.1,-1.75 0.7,-2.5 L 1.8,17.5 3.05,16.8 4.6,16.65 q 1.25,0.1 2.35,0.8 1.25,-0.8 2.8,-1.05 -0.4,-1.1 0.4,-2.15 l 0.35,-0.4 0.7,-0.5 0.65,-0.1 1.5,0.15 q 0.55,0.15 1.4,0.9 0.8,0.7 0.35,2.15 l 0.05,0.8 -0.05,0.35 0.65,0.75 m -2.05,1.95 0.5,0.3 0.2,0.05 0.6,-0.05 0.6,-0.3 0.2,-0.4 0.1,-0.3 0.05,-0.45 -0.05,-0.2 -0.1,-0.2 -0.2,-0.3 -0.65,-0.4 H 14.5 l -0.35,1.1 -0.3,0.55 -0.35,0.35 0.2,0.25 m 1,1.85 -0.65,-0.05 -0.7,0.05 -0.2,-0.4 -0.25,-0.15 -0.4,-0.1 q -0.3,0.1 -0.45,0.3 l -0.1,0.4 0.05,0.2 -0.55,0.15 -0.4,0.2 -0.4,0.3 -0.4,0.25 -0.45,0.5 q -0.35,0.25 -0.4,0.6 -0.1,0.5 0.1,0.75 0.25,0.3 0.65,0.3 0.35,0 0.7,-0.35 l 0.3,-0.55 0.3,-0.35 1,-0.75 0.4,-0.15 0.2,-0.1 1.25,-0.15 h 0.75 l 0.45,0.1 q 0.5,-0.1 0.3,-0.5 -0.1,-0.2 -0.55,-0.3 L 14.7,22.15 M 7.5,20.4 7.25,20.75 7.2,20.95 7.15,21.3 v 0.45 l 0.15,0.4 0.15,0.2 0.5,0.35 0.35,0.15 1,-0.2 0.4,-0.3 L 9.95,21.8 10,21.4 V 21.2 L 9.15,20.95 8.15,20.5 7.9,20.15 7.8,20.2 7.5,20.4"
         fill="#000000"
         fill-rule="evenodd"
         stroke="none"
         id="path10" />
      <path
         d="m 63.55,24.75 -0.2,-0.3 V 24.4 l 0.1,-0.05 1,-0.85 0.25,-0.45 0.25,-0.3 0.3,-0.7 0.1,-0.35 q 0.6,0.1 1.05,0.65 l 0.15,0.2 0.15,0.3 0.15,0.65 -0.1,0.55 -0.65,0.95 -0.35,0.2 -0.25,0.1 -1.35,-0.1 -0.6,-0.45 m -23,-10.35 -0.1,-0.55 q -0.1,-1 0.35,-1.5 l 0.35,-0.35 0.55,-0.4 1.1,-0.2 1,0.1 0.75,0.5 0.25,0.3 0.25,0.4 0.2,0.45 q 0.25,1 -0.2,1.7 L 44.9,15.1 h -0.05 l -0.6,0.05 -0.4,0.1 -1.1,0.25 -0.35,0.15 -0.25,0.05 -0.25,0.15 -0.6,-0.35 -0.35,-0.3 -0.4,-0.8 m 4.05,2.55 0.4,0.15 0.1,0.45 -0.9,1.2 -2.75,1.5 -3.1,0.2 -1.5,-0.5 -1.55,-0.2 q -0.45,0.1 -1.05,0.45 l -0.95,0.55 q -1.7,1 -3.75,0.85 -2.1,-0.25 -3.55,-1.55 l -0.35,-0.55 0.4,-0.4 h 0.6 l 1.4,0.35 1.4,0.15 1.25,-0.3 1.5,-0.7 1.1,-0.75 q 1.5,-0.8 3.15,-0.55 l 2,0.6 2,0.3 2.1,-0.7 Q 43.8,16.9 44.6,16.95 M 57.55,26.05 57.1,25.8 56.95,25.7 56.7,25.35 56.6,25 v -0.6 l 0.15,-0.4 0.3,-0.35 0.3,-0.2 0.1,-0.05 0.15,0.25 0.3,0.4 0.8,0.85 0.6,0.3 -0.05,0.1 -0.2,0.3 -0.45,0.4 -0.5,0.1 -0.55,-0.05 m 7.05,1.4 -0.25,0.15 -0.6,-0.05 -0.5,-0.1 -0.4,-0.15 q -0.6,-0.15 -1.7,0.25 l -0.1,0.05 q -0.25,0 -0.6,0.35 L 60,28.3 59.45,28.55 58.9,28.4 58.8,28.2 58.75,28.05 q -0.1,-0.35 0.3,-0.75 l 0.8,-0.4 0.3,-0.2 0.75,-0.05 -0.05,-0.1 Q 60.75,26.25 61,26 l 0.35,-0.35 h 0.05 l 0.05,-0.05 0.55,0.3 0.1,0.2 0.1,0.45 0.85,-0.1 1,0.15 0.3,0.1 0.25,0.35 0.05,0.15 -0.05,0.05 0.05,0.1 -0.05,0.1 m -34.7,-13.5 0.4,0.65 0.05,0.3 -0.15,1.3 -0.55,0.9 -0.45,0.35 -0.65,0.4 -1.25,-0.55 -1.2,-0.2 h -0.35 l -0.1,-0.15 q -0.3,-0.45 -0.3,-1 l 0.05,-1 0.05,-0.35 0.15,-0.3 q 0.2,-0.5 0.75,-0.85 l 0.55,-0.25 0.3,-0.1 h 0.45 l 0.9,0.05 q 0.85,0.1 1.35,0.8 m -22.4,6.45 0.3,-0.2 0.1,-0.05 0.25,0.35 1,0.45 0.85,0.25 v 0.2 l -0.05,0.4 -0.25,0.55 -0.4,0.3 -1,0.2 L 7.95,22.7 7.45,22.35 7.3,22.15 7.15,21.75 V 21.3 L 7.2,20.95 7.25,20.75 7.5,20.4 m 7.2,1.75 0.55,0.2 q 0.45,0.1 0.55,0.3 0.2,0.4 -0.3,0.5 l -0.45,-0.1 H 14.3 l -1.25,0.15 -0.2,0.1 -0.4,0.15 -1,0.75 -0.3,0.35 -0.3,0.55 q -0.35,0.35 -0.7,0.35 -0.4,0 -0.65,-0.3 Q 9.3,24.9 9.4,24.4 9.45,24.05 9.8,23.8 l 0.45,-0.5 0.4,-0.25 0.4,-0.3 0.4,-0.2 0.55,-0.15 -0.05,-0.2 0.1,-0.4 q 0.15,-0.2 0.45,-0.3 l 0.4,0.1 0.25,0.15 0.2,0.4 0.7,-0.05 0.65,0.05 m -1,-1.85 -0.2,-0.25 0.35,-0.35 0.3,-0.55 0.35,-1.1 h 0.45 l 0.65,0.4 0.2,0.3 0.1,0.2 0.05,0.2 -0.05,0.45 -0.1,0.3 -0.2,0.4 -0.6,0.3 -0.6,0.05 -0.2,-0.05 -0.5,-0.3"
         fill="#ffffff"
         fill-rule="evenodd"
         stroke="none"
         id="path11" />
    </g>
    <g
       id="shape2"
       transform="translate(2,2.05)">
      <path
         d="M -0.5,-0.4 V -0.55 H 75.1 V -0.4 40.8 H -0.5 Z"
         fill="none"
         stroke="#000000"
         stroke-linecap="round"
         stroke-linejoin="round"
         stroke-width="3"
         id="path12" />
    </g>
  </defs>
</svg>
