<?xml version="1.0" encoding="UTF-8" standalone="no"?>
<svg
   ffdec:objectType="frame"
   height="44.669445"
   width="78.884613"
   version="1.1"
   id="svg12"
   sodipodi:docname="291.svg"
   xmlns:inkscape="http://www.inkscape.org/namespaces/inkscape"
   xmlns:sodipodi="http://sodipodi.sourceforge.net/DTD/sodipodi-0.dtd"
   xmlns:xlink="http://www.w3.org/1999/xlink"
   xmlns="http://www.w3.org/2000/svg"
   xmlns:svg="http://www.w3.org/2000/svg"
   xmlns:ffdec="https://www.free-decompiler.com/flash">
  <sodipodi:namedview
     id="namedview12"
     pagecolor="#ffffff"
     bordercolor="#000000"
     borderopacity="0.25"
     inkscape:showpageshadow="2"
     inkscape:pageopacity="0.0"
     inkscape:pagecheckerboard="0"
     inkscape:deskcolor="#d1d1d1"
     fit-margin-top="5"
     fit-margin-left="5"
     fit-margin-right="5"
     fit-margin-bottom="5" />
  <g
     transform="translate(2.2846154,2.3694444)"
     id="g3">
    <use
       ffdec:characterId="1"
       height="42.700001"
       transform="translate(-1.75,-2)"
       width="76.449997"
       xlink:href="#shape0"
       id="use1" />
    <use
       ffdec:characterId="285"
       height="44.049999"
       transform="translate(-2.3,-2.35)"
       width="77.849998"
       xlink:href="#shape1"
       id="use2" />
    <use
       ffdec:characterId="3"
       height="44.349998"
       transform="translate(-2,-2.05)"
       width="78.599998"
       xlink:href="#shape2"
       id="use3" />
  </g>
  <defs
     id="defs12">
    <g
       id="shape0"
       transform="translate(1.75,2)">
      <path
         d="M 2.8,0 V -0.4 H 5.4 V 0 H 9.7 V 19.45 0 H 20.55 L 19.3,19.45 H 9.7 0.25 V 0 H 2.8"
         fill="#ffffff"
         fill-rule="evenodd"
         stroke="none"
         id="path3" />
      <path
         d="M 0.25,19.45 H 9.7 19.3 L 18.7,28.6 16,28.5 10.95,27.95 9.7,27.8 Q 7.45,27.6 5.85,27.75 4.05,27.9 1.5,28.6 0.75,28.8 0.25,29.15 v -9.7 m 9.45,0 v 8.35 -8.35"
         fill="#121212"
         fill-rule="evenodd"
         stroke="none"
         id="path4" />
      <path
         d="m 9.7,27.8 1.25,0.15 5.05,0.55 2.7,0.1 h 1.05 l 3.75,0.15 q 2.45,0.3 3.6,1.25 0.6,0.5 0.6,1.1 0,0.65 -0.8,1 l -1.3,0.2 -7.15,0.15 -5.6,-0.3 L 9.7,31.75 7.95,31.6 3.1,31.95 0.95,32.3 0.25,32.1 -0.35,31.55 -0.5,31.3 V 29.9 L 0.25,29.15 Q 0.75,28.8 1.5,28.6 4.05,27.9 5.85,27.75 7.45,27.6 9.7,27.8 v 3.95 -3.95"
         fill="#999999"
         fill-rule="evenodd"
         stroke="none"
         id="path5" />
      <path
         d="M 2.8,0 H 0.25 M 9.7,0 H 5.4 m 16.15,0 h 10.7 M 20.55,0 H 9.7"
         fill="none"
         stroke="#666666"
         stroke-linecap="round"
         stroke-linejoin="round"
         stroke-width="4"
         id="path6" />
      <path
         d="m 9.7,-0.4 h 65 V 40.5 H 47.05 L 45.5,40.7 27,40.65 25.95,40.5 H 9.7 -0.5 V -0.4 H 9.7 V 40.5 -0.4"
         fill="#ffffff"
         fill-rule="evenodd"
         stroke="none"
         id="path7" />
    </g>
    <g
       id="shape1"
       transform="translate(2.3,2.35)">
      <path
         d="M 44.5,26.45 43.4,29.8 41.75,33.4 41,34.5 q -3.2,4.35 -7,6 -1.05,0.55 -1.85,0.4 -0.35,0 -0.5,-0.25 -0.3,-0.3 0,-0.75 l 0.65,-0.5 q 2.8,-1.6 4.65,-3.4 l 2.2,-2.6 0.9,-1.35 0.7,-1.45 q 1.4,-3.45 1.8,-5.75 L 43,20.4 43.2,17 42.9,14.15 q -0.45,-3.2 -1.25,-5.2 -1,-2.75 -2.85,-4.5 L 37.8,3.6 Q 35.95,2.25 34.15,1.4 l -1.6,-0.95 q -0.8,-0.9 -0.3,-1.7 0.4,-0.6 1.25,-0.6 l 1.4,0.4 q 1.45,0.7 2.75,1.55 l 3.4,2.95 0.8,0.8 0.55,0.8 q 2,3.2 2.8,8.45 l 0.25,1.5 q 0.3,2.9 -0.15,7.15 l -0.8,4.7 m -38.65,-28 q 1.6,-0.9 2.6,-0.8 0.55,0 1,0.35 0.5,0.45 0.45,0.95 -0.05,0.55 -1,1.2 L 6.6,1.55 5.7,2.05 Q 3.3,3.4 1.6,5.65 L 0.65,6.6 Q -0.1,6.9 -0.6,6.3 -1,5.85 -0.9,5.2 l 0.35,-1.15 q 1,-1.8 2.75,-3.3 1.7,-1.3 3.65,-2.3 m 49.8,42.6 q -0.15,-0.35 0.1,-0.7 l 0.55,-0.5 3.3,-2.9 1.9,-2.3 1.55,-2.15 0.8,-1.8 q 1.6,-4 2.6,-8.45 L 66.9,20 Q 68.3,11.65 66,2.05 L 65.65,0 q -0.1,-0.75 0.15,-1.15 0.4,-0.65 1,-0.5 0.6,0.2 0.8,1.15 2.6,9 1.75,18.35 L 68.9,20.9 q -0.95,5.25 -2.95,10.25 l -0.7,1.55 q -0.9,1.7 -2.9,4 l -2.5,2.6 q -1.45,1.3 -2.95,1.9 l -0.65,0.15 q -0.45,0 -0.6,-0.3 m 2.7,-15.2 -0.45,1.8 -1.1,2.9 L 55,34.1 54.35,35 q -2.5,3.25 -5.9,5.6 -1.05,0.65 -1.6,0.35 -0.7,-0.45 -0.3,-1.1 l 0.75,-0.6 1,-0.85 q 4.15,-3.65 5.55,-6.2 l 0.8,-1.75 0.95,-2.25 q 1.25,-3.4 1.55,-9.65 L 57.2,14.85 57.15,12.6 57.2,11.5 57.1,10.45 55.55,3.4 54.8,1.2 54.35,0 q 0,-0.5 0.4,-0.85 L 55.6,-1.1 q 0.75,0.15 1.25,1.1 l 0.55,1.45 q 1.25,4.15 1.9,8.05 l 0.2,1 -0.05,6.15 q -0.15,4.85 -1.1,9.2 M 43.7,-0.55 q -0.25,-0.7 0.15,-1.35 0.55,-0.65 1.25,-0.4 l 0.8,0.65 1.25,1.5 0.65,1 1.55,2.65 q 1.05,2.2 1.9,6.3 l 0.2,1 0.25,2.55 0.15,6.35 -0.55,4.6 -0.3,1.45 q -0.95,4.7 -3.8,8.7 -2.85,4 -7,6.45 l -0.9,0.4 q -0.7,0 -0.85,-0.45 -0.2,-0.3 0.1,-0.8 0.25,-0.35 0.6,-0.55 3.25,-2.6 5.4,-5.2 2.5,-3.15 3.5,-6.5 l 0.55,-2.2 0.6,-3.55 q 0.45,-3.75 -0.1,-9.7 l -0.15,-1.4 -1,-4.2 L 46.45,3.4 44.6,0.7 q -0.8,-0.9 -0.9,-1.25 m -35.1,27.9 0.7,1.2 0.85,0.8 1,1.2 1.5,1.5 0.8,0.65 0.35,1 q -0.1,0.55 -0.75,0.85 l -1.2,0.05 Q 10.2,34.45 8.8,33.2 l -1.3,-1.35 -1,-0.9 Q 5.85,30.3 5.3,28.9 L 4.8,27.45 4.5,25.8 4.15,22.6 4.35,21.3 q 0.4,-2.85 1.55,-4.85 0.85,-1.5 2.7,-3.35 l 1,-0.95 2.45,-1.5 1.45,-0.7 2.5,-0.6 q 5.95,-0.9 9.8,0.9 1.8,0.9 3.2,2.3 l 0.8,1 q 1.45,1.85 2.15,3.8 0.75,2.05 0.6,4.2 l -0.5,3.45 -1.3,4.7 q -1.05,2.6 -2.55,4.1 l -2.25,1.65 q 2.6,-0.95 4.25,-2.9 1.25,-1.5 2.65,-4.9 l 1.35,-4.35 0.2,-1.25 0.15,-3 L 34.25,17 Q 33.5,14.1 32.3,12.55 l -0.9,-1 Q 30,10.15 28.5,9.3 26.75,8.35 23.4,7.7 L 17.45,7.25 q -1.3,0.2 -3.95,1.3 l -1.4,0.7 -1.4,0.95 q -4.55,3.35 -6.45,7.6 -1,2.3 -1.2,4.5 -0.15,1.3 0.05,2.45 l 0.7,2.15 1.3,3 0.5,0.85 1.4,1.9 1.6,1.35 1.65,1.3 q 0.5,0.5 0.5,0.95 Q 10.8,36.9 10,37.2 9.45,37.4 8.65,37.2 6.6,36.75 4.9,35.15 3.35,33.75 2.3,31.65 L 0.6,27.9 q -0.7,-1.85 -0.9,-3.25 l -0.05,-1.3 q 0.15,-6.45 4,-11.1 l 1.1,-1.3 Q 6.2,9.3 7.35,8.35 L 10,6.4 q 0.9,-0.55 2.1,-0.95 2.9,-1.3 4.85,-1.6 2.9,-0.45 7.8,0.8 l 3.45,1.05 2.65,1.4 1.05,0.7 1.3,1.2 1.2,1.25 q 3.35,3.9 3,10.4 -0.3,4.55 -2.4,9.25 -2.15,4.85 -5.3,6.95 -1.3,0.8 -3.45,1.6 4.75,-1.4 7.55,-4.9 1.3,-1.6 2.7,-4.65 L 38,25 q 1.25,-4.05 0.85,-8.3 l -0.6,-3 -0.9,-2.05 Q 35.95,8.6 34.45,7.5 L 32.8,6.6 Q 29.2,4.75 26.85,3.95 L 23.7,3.25 H 21.4 L 17.55,3.35 15.3,3.85 11.8,4.3 Q 10.75,4.55 9.2,5.5 L 5.35,8 4.15,9.2 Q 2.9,10.55 1.95,12.05 L 1.05,13.65 0,15.2 -0.75,15.75 -1.7,15.55 -2.25,14.7 Q -2.4,13.95 -1.9,12.7 -0.8,9.95 1.15,7.55 L 2.2,6.4 5.35,4 6.05,3.55 9.25,1.7 Q 11.1,0.95 12.75,0.8 L 14.8,0.6 16.55,0.2 18.1,0.05 h 4.2 l 2.5,0.1 q 1.25,0.15 2.95,0.75 2.4,0.85 6.9,3.25 l 1.7,0.95 q 1.35,1.05 2.6,3.2 2.3,3.8 2.6,7.9 l 0.05,2.6 -0.15,3.1 Q 41,25.25 39.05,29.7 L 38,32 q -3.25,6.1 -9.5,8.5 -3.8,1.4 -7.3,0.9 l -4.25,-0.9 q -2.25,-0.55 -3,-1.25 l -0.5,-0.8 Q 13.35,37.8 13.7,37.6 L 13.85,37.55 13.5,37.1 q -0.25,-0.4 -0.15,-0.9 0.1,-0.55 0.5,-0.75 l 0.8,-0.1 0.85,0.2 1.15,0.15 -0.15,-0.25 q -0.3,-0.55 -0.1,-1 0.3,-0.8 1.65,-1.1 l 3.25,-0.3 q 2,-0.15 3.1,-0.75 1.7,-0.9 2.75,-3.05 l 1.25,-3.95 0.65,-3.75 q 0.15,-2 -0.65,-3.7 l -0.7,-1.15 -1.65,-2 Q 25,13.65 23.05,13.1 L 21.15,12.7 18,12.75 16.05,13 13.65,14 11.6,15.3 10.55,16.45 9.4,17.9 q -0.45,0.75 -0.8,1.65 -0.65,1.5 -0.7,3 l 0.1,1.9 q 0.2,1.85 0.6,2.9 M 67.8,41.1 67.05,41.15 Q 66.55,41.05 66.55,40.6 66.5,40.35 67,39.85 l 2.65,-2.5 q 1.9,-1.9 3.45,-4.6 L 74.2,30.8 75.5,29 q 0.15,1 -0.05,1.85 l -1.1,2.85 -2.25,3.55 -1.2,1.3 -2.1,1.85 -1,0.7 m 0.8,-5.25 0.1,0.05 -0.15,0.15 v 0.05 l -0.05,0.15 -0.1,0.05 v 0.1 l -0.05,0.05 V 36.6 H 68.3 v -0.2 l 0.05,-0.1 0.15,-0.2 V 36.05 L 68.55,36 V 35.9 H 68.6 V 35.85 M -0.45,35 -0.35,34.7 -0.4,34.4 -0.8,33 q 0,-0.95 0.7,-1.2 L 0.45,31.7 Q 1.1,31.8 1.5,32.4 L 3.45,35.2 4,35.85 4.45,36.5 Q 4.7,37.3 4.25,37.9 3.85,38.55 3,38.55 L 1.9,38.5 1.35,38.3 0.45,37.7 0.05,37.15 -0.5,36.15 Q -0.65,35.5 -0.45,35"
         fill="#999999"
         fill-rule="evenodd"
         stroke="none"
         id="path8" />
      <path
         d="m 23.55,11.3 0.6,0.3 1.85,0.9 q 1.55,0.95 2.5,2.35 l 0.5,-0.05 0.75,0.1 1.65,-0.1 q 0.8,0.15 1.05,0.85 l 0.1,1.1 -0.4,2.7 -0.05,0.25 0.6,0.95 0.3,0.75 q 0.35,0.9 0.35,2.05 v 0.3 l 0.35,1.3 0.3,3.15 -0.15,1.85 q -0.35,2.35 -2.4,4.8 L 29.5,36.55 27,37.45 25.45,38 21.3,38.3 17.5,37.6 q -1.05,-0.4 -1.85,-0.95 v 2.4 l -0.05,1.5 q -0.2,0.55 -0.8,0.85 l -1.1,0.15 -0.9,-0.65 q -0.35,-0.55 -0.3,-1.1 l -0.75,1.25 Q 11.1,41.7 10.4,41.7 9.55,41.7 9.2,40.95 L 8.05,41 7.15,40.3 Q 6.5,41 5.6,40.85 L 4.85,40.6 4.35,40.55 Q 3.75,41.15 2.9,41 1.95,40.9 1.6,40 1.25,39.25 1.65,38.35 l 0.9,-1.4 2.85,-2.8 q -1.5,-0.2 -2.7,-1 -2,-1.3 -2.65,-3.7 l -0.2,-2.55 0.1,-2.25 q 0.2,-2 1.2,-4.05 l 0.8,-1.25 Q 2.8,18.3 4.75,17.15 5,15.65 6.3,14.15 L 7,13.4 l 0.95,-0.75 1,-0.35 1.75,-0.3 0.7,0.15 0.95,-2.6 q 0.7,-1.5 1.45,-1.8 L 15.45,7.9 Q 16,8.15 16.9,8.85 l 3.15,1.55 0.45,0.25 3.05,0.65 m 2.3,11.75 -0.1,0.1 -0.1,0.15 -0.05,0.85 0.1,0.25 0.1,0.05 0.1,0.1 0.2,0.15 0.2,0.1 h 0.05 v 0.05 h 0.3 l 0.05,-0.05 0.7,-0.55 0.05,-0.15 0.1,-0.2 0.05,-0.45 -0.05,-0.1 0.05,-0.15 -0.05,-1 -0.05,-0.1 -0.15,-0.9 v -0.25 l -0.2,-0.45 -0.3,-0.1 -0.15,-0.2 -0.1,0.1 v 0.15 l -0.15,0.15 -0.1,0.4 -0.05,1 -0.2,0.6 -0.25,0.25 v 0.2 m 0,-8.55 v -0.1 l -0.1,-0.3 -0.6,-0.35 V 13.7 l -0.3,-0.1 -0.2,0.2 v 0.15 l 0.1,0.15 0.05,0.4 0.1,0.15 0.15,0.5 -0.05,0.1 v 0.25 l -0.15,0.55 -0.05,0.65 0.05,0.1 0.05,0.2 q 0.3,0.4 0.75,0.4 0.5,0 0.75,-0.35 l 0.1,-0.2 0.05,-0.15 v -0.1 l 0.1,-0.3 V 15.9 L 26.6,15.75 26.55,15.5 v -0.1 l -0.1,-0.1 -0.1,-0.25 -0.1,-0.15 -0.4,-0.4 M 8.1,28.4 Q 7.5,27.3 7.2,25.95 6.65,23.8 6.95,21.6 L 6.4,21.35 5.7,20.85 5.6,20.75 5.5,20.8 q -0.9,0.45 -1.45,1.75 -1.1,2.55 -0.9,5.1 0.2,1.8 1.15,2.65 l 1,0.55 1.75,0.3 L 8.7,30.85 9.75,30.6 8.1,28.4 m 19.35,-3 -0.15,-0.1 -0.4,0.05 -3.95,0.55 -1.8,0.15 L 21,26.2 q -0.4,0.4 -0.2,1.05 0.15,0.55 0.75,0.8 l 0.9,0.15 1.55,0.3 1.5,-0.05 0.45,-0.1 0.5,-0.05 0.5,-0.2 Q 27.3,27.65 26.9,27.35 L 26.15,27.2 25.05,27 24.9,26.95 l 0.15,-0.1 2.15,-0.55 0.2,-0.15 0.2,-0.35 -0.15,-0.4 m -15.1,1.45 -0.95,0.1 q -0.75,0.35 -0.75,1.2 0.1,0.9 0.95,1.05 l 0.8,0.05 2.35,0.3 3.4,0.8 q 2.25,0.5 4.55,1.35 0.45,-0.35 0.1,-0.9 L 22.1,30.15 20.7,29.3 18.95,28.6 19,27.65 l -0.25,-0.6 -0.45,-0.1 -0.5,0.1 -0.3,0.4 -0.35,0.5 -0.35,-0.2 -0.95,-0.3 -3.5,-0.6 m 5.2,-1.45 0.25,-0.45 -1.05,-0.7 Q 15.85,23.5 14.65,21.4 L 14.1,20.3 h -0.5 l -0.2,0.1 -0.2,0.5 q -0.1,0.7 0.3,1.3 l 0.2,0.35 0.05,0.3 L 14.45,24 14.2,23.95 13,23.55 12.95,23.6 H 12.4 q -0.35,0 -0.45,0.3 l 0.1,0.4 0.5,0.5 0.8,0.55 1.7,0.8 1.3,0.2 0.55,-0.4 h 0.05 l 0.6,-0.55 m -3.6,-10 0.1,-0.15 0.3,-0.25 0.45,-0.5 0.25,-0.2 q 0.15,-0.05 0.25,-0.15 l 0.3,-0.2 -0.15,-0.2 h -0.3 q -0.3,0 -0.35,0.2 h -0.7 l -0.7,0.15 -0.9,0.35 -0.25,0.25 -0.5,0.85 -0.05,0.2 q -0.15,0.5 0.1,0.95 l 0.25,0.2 q 0.1,0.15 0.25,0.15 h 0.05 l 0.05,0.05 h 0.3 l 0.05,-0.05 0.45,-0.2 0.4,-0.55 0.05,-0.3 0.3,-0.6 m 14.8,15.7 q -1.65,2.05 -4.6,3.05 l -4.35,0.65 1.45,0.2 2.8,-0.1 1.2,-0.35 1.6,-0.5 1.25,-0.55 0.7,-0.6 q 1.95,-2.1 2,-4.45 l -0.6,0.2 -1.45,2.45"
         fill="#000000"
         fill-rule="evenodd"
         stroke="none"
         id="path9" />
      <path
         d="m 25.85,14.5 0.4,0.4 0.1,0.15 0.1,0.25 0.1,0.1 v 0.1 l 0.05,0.25 0.05,0.15 v 0.4 l -0.1,0.3 v 0.1 l -0.05,0.15 -0.1,0.2 Q 26.15,17.4 25.65,17.4 25.2,17.4 24.9,17 L 24.85,16.8 24.8,16.7 24.85,16.05 25,15.5 v -0.25 l 0.05,-0.1 -0.15,-0.5 -0.1,-0.15 -0.05,-0.4 -0.1,-0.15 V 13.8 l 0.2,-0.2 0.3,0.1 v 0.05 l 0.6,0.35 0.1,0.3 v 0.1 m 0,8.55 v -0.2 l 0.25,-0.25 0.2,-0.6 0.05,-1 0.1,-0.4 0.15,-0.15 V 20.3 l 0.1,-0.1 0.15,0.2 0.3,0.1 0.2,0.45 v 0.25 l 0.15,0.9 0.05,0.1 0.05,1 -0.05,0.15 0.05,0.1 -0.05,0.45 -0.1,0.2 -0.05,0.15 -0.7,0.55 -0.05,0.05 h -0.3 V 24.8 H 26.3 l -0.2,-0.1 -0.2,-0.15 -0.1,-0.1 -0.1,-0.05 -0.1,-0.25 0.05,-0.85 0.1,-0.15 0.1,-0.1 m -11.9,-7.65 -0.3,0.6 -0.05,0.3 -0.4,0.55 -0.45,0.2 -0.05,0.05 H 12.4 L 12.35,17.05 H 12.3 q -0.15,0 -0.25,-0.15 L 11.8,16.7 q -0.25,-0.45 -0.1,-0.95 l 0.05,-0.2 0.5,-0.85 0.25,-0.25 0.9,-0.35 0.7,-0.15 h 0.7 q 0.05,-0.2 0.35,-0.2 h 0.3 l 0.15,0.2 -0.3,0.2 q -0.1,0.1 -0.25,0.15 l -0.25,0.2 -0.45,0.5 -0.3,0.25 -0.1,0.15 m 3.6,10 -0.6,0.55 H 16.9 l -0.55,0.4 -1.3,-0.2 -1.7,-0.8 -0.8,-0.55 -0.5,-0.5 -0.1,-0.4 q 0.1,-0.3 0.45,-0.3 h 0.55 l 0.05,-0.05 1.2,0.4 0.25,0.05 -0.7,-1.15 -0.05,-0.3 -0.2,-0.35 q -0.4,-0.6 -0.3,-1.3 l 0.2,-0.5 0.2,-0.1 h 0.5 l 0.55,1.1 q 1.2,2.1 2.1,2.85 l 1.05,0.7 -0.25,0.45 m -5.2,1.45 3.5,0.6 0.95,0.3 0.35,0.2 0.35,-0.5 0.3,-0.4 0.5,-0.1 0.45,0.1 0.25,0.6 -0.05,0.95 1.75,0.7 1.4,0.85 0.7,0.65 q 0.35,0.55 -0.1,0.9 -2.3,-0.85 -4.55,-1.35 l -3.4,-0.8 -2.35,-0.3 -0.8,-0.05 q -0.85,-0.15 -0.95,-1.05 0,-0.85 0.75,-1.2 l 0.95,-0.1 m 15.1,-1.45 0.15,0.4 -0.2,0.35 -0.2,0.15 -2.15,0.55 -0.15,0.1 0.15,0.05 1.1,0.2 0.75,0.15 q 0.4,0.3 0.05,0.75 l -0.5,0.2 -0.5,0.05 -0.45,0.1 -1.5,0.05 -1.55,-0.3 -0.9,-0.15 Q 20.95,27.8 20.8,27.25 20.6,26.6 21,26.2 l 0.15,-0.15 1.8,-0.15 3.95,-0.55 0.4,-0.05 0.15,0.1"
         fill="#ffffff"
         fill-rule="evenodd"
         stroke="none"
         id="path10" />
      <path
         d="M 17.75,3.85 17.7,4.7 17.45,5.95 16.9,6.2 Q 16.5,6.1 16.45,5.75 v -0.2 l -0.1,-0.2 Q 16.05,4.9 15.95,3.85 L 15.65,1.5 q -0.2,-1.1 0.15,-1.65 l 0.25,-0.3 0.35,-0.2 1.4,0.1 q 0.65,0.5 0.65,1.3 L 18.4,1.1 17.9,2.95 q -0.15,0.4 -0.15,0.9 m 35.6,7.9 q -0.5,0.1 -0.7,-0.2 -0.15,-0.25 0.1,-0.6 l 0.5,-0.3 L 55,9.85 57.35,8.8 59,7.95 61.35,7.45 65,6.55 68.6,5.5 70.85,5.45 q 0.85,0.4 0.95,1.3 0.1,0.95 -0.65,1.5 l -1.2,0.5 -1.5,0.35 -7.35,1.55 -3.75,0.65 -4,0.45 m 8.5,4.95 q 0.9,0.4 1.05,1.35 0.1,1.05 -0.65,1.65 -0.6,0.5 -2.1,0.5 l -7.25,-0.5 -2.05,-0.3 -1.5,0.1 -1.85,-0.15 q -1.7,-0.15 -5.4,0.1 -3.6,0.2 -5.45,0 L 36,19.25 q -0.3,-0.2 -0.15,-0.55 l 0.5,-0.25 9.1,-1.2 2.05,-0.1 1.85,-0.1 1.45,-0.3 h 1.1 l 1.1,0.1 2.15,-0.05 4.75,-0.35 1.95,0.25 M 35.3,12.1 29.95,13.6 q -0.7,0.25 -0.9,-0.15 -0.2,-0.35 0.35,-0.9 l 3.2,-1.8 2.3,-1.1 Q 39.35,7.6 40.55,7.1 l 3.2,-1.55 1.9,-0.05 q 0.95,0.4 1.1,1.4 0.15,0.95 -0.6,1.65 -0.4,0.35 -1.2,0.6 L 35.3,12.1 m 20.15,21.25 q 0.45,0.8 0.15,1.5 -0.25,0.8 -1.1,1.05 -0.95,0.3 -2.55,-0.6 L 50.4,34.5 48.15,33.2 40.5,29 38.45,28.3 q -0.95,-0.35 -2.35,-1.2 -0.5,-0.3 -0.45,-0.6 0,-0.45 0.5,-0.35 l 0.65,0.2 1.85,0.65 2.3,0.55 1.35,0.05 q 2,0.2 5.25,1.7 l 3.05,1.5 2.4,1.2 1.35,0.5 q 0.75,0.35 1.1,0.85 M 35.1,35.4 34.9,34.95 Q 34.8,34.4 35.4,34.3 l 0.4,0.05 2,0.65 2.55,1.4 2.15,1.6 0.55,0.65 q 0.5,0.9 -0.1,1.8 -0.6,0.85 -1.65,0.75 L 39.95,40.45 38.8,39.4 37.85,38.65 36.8,37.45 35.95,36.7 35.5,36.05 35.1,35.4 M 24,10.9 Q 23.6,10.8 23.6,10.25 23.55,9.6 23.95,8.4 L 25.4,4.65 26.85,1.9 27.35,1.15 Q 28,0.4 29.05,0.65 30.1,1 30.2,2.05 30.2,2.7 29.6,3.7 l -4.25,6.2 -0.8,0.75 Q 24.25,10.95 24,10.9 M 5.65,3.85 5.2,3.25 Q 4.7,2.35 5.2,1.5 5.65,0.65 6.7,0.65 q 1,0 1.5,0.9 l 0.35,1.5 0.55,1.55 1.5,4.95 0.15,1.1 -0.1,0.5 L 10.1,11.3 9.55,10.65 8.2,8 7,5.85 5.65,3.85"
         fill="#ffffff"
         fill-rule="evenodd"
         stroke="none"
         id="path11" />
    </g>
    <g
       id="shape2"
       transform="translate(2,2.05)">
      <path
         d="M -0.5,-0.4 V -0.55 H 75.1 V -0.4 40.8 H -0.5 Z"
         fill="none"
         stroke="#000000"
         stroke-linecap="round"
         stroke-linejoin="round"
         stroke-width="3"
         id="path12" />
    </g>
  </defs>
</svg>
