<?xml version="1.0" encoding="UTF-8" standalone="no"?>
<svg
   ffdec:objectType="frame"
   height="44.349998"
   width="78.599998"
   version="1.1"
   id="svg12"
   sodipodi:docname="360.svg"
   xmlns:inkscape="http://www.inkscape.org/namespaces/inkscape"
   xmlns:sodipodi="http://sodipodi.sourceforge.net/DTD/sodipodi-0.dtd"
   xmlns:xlink="http://www.w3.org/1999/xlink"
   xmlns="http://www.w3.org/2000/svg"
   xmlns:svg="http://www.w3.org/2000/svg"
   xmlns:ffdec="https://www.free-decompiler.com/flash">
  <sodipodi:namedview
     id="namedview12"
     pagecolor="#ffffff"
     bordercolor="#000000"
     borderopacity="0.25"
     inkscape:showpageshadow="2"
     inkscape:pageopacity="0.0"
     inkscape:pagecheckerboard="0"
     inkscape:deskcolor="#d1d1d1"
     fit-margin-top="5"
     fit-margin-left="5"
     fit-margin-right="5"
     fit-margin-bottom="5" />
  <g
     transform="translate(2,2.05)"
     id="g3">
    <use
       ffdec:characterId="1"
       height="42.700001"
       transform="translate(-1.75,-2)"
       width="76.449997"
       xlink:href="#shape0"
       id="use1" />
    <use
       ffdec:characterId="339"
       height="38.700001"
       transform="translate(6.7,3)"
       width="64.349998"
       xlink:href="#shape1"
       id="use2" />
    <use
       ffdec:characterId="3"
       height="44.349998"
       transform="translate(-2,-2.05)"
       width="78.599998"
       xlink:href="#shape2"
       id="use3" />
  </g>
  <defs
     id="defs12">
    <g
       id="shape0"
       transform="translate(1.75,2)">
      <path
         d="M 2.8,0 V -0.4 H 5.4 V 0 H 9.7 V 19.45 0 H 20.55 L 19.3,19.45 H 9.7 0.25 V 0 H 2.8"
         fill="#ffffff"
         fill-rule="evenodd"
         stroke="none"
         id="path3" />
      <path
         d="M 0.25,19.45 H 9.7 19.3 L 18.7,28.6 16,28.5 10.95,27.95 9.7,27.8 Q 7.45,27.6 5.85,27.75 4.05,27.9 1.5,28.6 0.75,28.8 0.25,29.15 v -9.7 m 9.45,0 v 8.35 -8.35"
         fill="#121212"
         fill-rule="evenodd"
         stroke="none"
         id="path4" />
      <path
         d="m 9.7,27.8 1.25,0.15 5.05,0.55 2.7,0.1 h 1.05 l 3.75,0.15 q 2.45,0.3 3.6,1.25 0.6,0.5 0.6,1.1 0,0.65 -0.8,1 l -1.3,0.2 -7.15,0.15 -5.6,-0.3 L 9.7,31.75 7.95,31.6 3.1,31.95 0.95,32.3 0.25,32.1 -0.35,31.55 -0.5,31.3 V 29.9 L 0.25,29.15 Q 0.75,28.8 1.5,28.6 4.05,27.9 5.85,27.75 7.45,27.6 9.7,27.8 v 3.95 -3.95"
         fill="#999999"
         fill-rule="evenodd"
         stroke="none"
         id="path5" />
      <path
         d="M 2.8,0 H 0.25 M 9.7,0 H 5.4 m 16.15,0 h 10.7 M 20.55,0 H 9.7"
         fill="none"
         stroke="#666666"
         stroke-linecap="round"
         stroke-linejoin="round"
         stroke-width="4"
         id="path6" />
      <path
         d="m 9.7,-0.4 h 65 V 40.5 H 47.05 L 45.5,40.7 27,40.65 25.95,40.5 H 9.7 -0.5 V -0.4 H 9.7 V 40.5 -0.4"
         fill="#ffffff"
         fill-rule="evenodd"
         stroke="none"
         id="path7" />
    </g>
    <g
       id="shape1"
       transform="translate(-6.7,-3)">
      <path
         d="M 64.3,4.65 67.25,5 q 1.5,0.45 2.4,1.6 l 0.85,1.45 q 0.55,1.3 0.55,2.3 l -0.3,1.7 q -0.8,2.65 -2.2,4.05 l -1,0.85 -0.75,0.7 -1.3,0.9 -1.4,0.9 -1.75,1.55 -0.55,0.6 -0.4,0.75 Q 61.05,22.8 60.65,22.7 L 60.4,22.55 60.2,22.3 60.1,22.1 59.7,21.5 59.6,21.4 Q 59,20.9 57.5,20.2 54.75,18.85 53,18.25 l -2.2,-0.8 -1.9,-1.3 Q 47.95,15.1 47.7,13.6 47.35,11.85 48,10.1 48.6,8.3 49.95,7.15 51.3,5.95 53.15,5.6 l 3.5,0.2 q 1.1,0.3 1.85,1 L 59.15,7.45 60.3,6.2 q 1.1,-0.9 1.8,-1.15 l 2.2,-0.4 m -5.65,7.65 q 0.25,0.4 0.1,0.8 l -0.15,0.35 v 0.45 l -0.65,0.6 H 57.1 L 56.25,14 56.2,13.55 l 0.1,-0.8 q 0.1,-0.2 0.5,-0.45 l 0.5,-0.45 0.65,0.15 0.7,0.3 m -3.5,1.45 0.2,0.95 q 0.4,0.75 1.8,0.85 l 1,-0.05 q 0.75,-0.25 1.1,-1.05 L 59.55,12.9 59.4,12.05 58.85,11.5 57.7,10.95 57,10.9 56.55,11.1 q -0.95,0.55 -1.2,1.1 -0.3,0.6 -0.2,1.55 M 54.1,15 53.55,11.8 53.3,11.25 Q 52.95,11.1 52.75,11.4 L 52.5,12 q -0.1,1 0.15,3 0,0.6 0.15,0.85 0.25,0.45 0.65,0.35 l 0.6,-0.4 0.05,-0.8 m 14.25,-1.15 0.3,0.1 0.3,-0.1 q 0.6,-0.3 0.6,-0.75 l -0.3,-0.65 -0.6,-0.3 -0.1,0.05 Q 68,12.3 67.85,12.75 67.7,13.3 68,13.6 l 0.35,0.25 m 0.1,-3.6 -0.3,0.15 q -0.35,0.15 -0.55,0.45 l -0.8,0.85 -0.85,0.95 -0.3,0.5 q -0.1,0.3 0.2,0.6 l 0.65,0.1 0.55,-0.6 1.35,-1.9 0.3,-0.55 q 0.1,-0.4 -0.25,-0.55 m -2.9,-0.1 v 0.2 l 0.05,0.35 q 0.3,0.45 0.8,0.3 0.5,-0.1 0.5,-0.65 0,-0.65 -0.7,-0.75 v 0.05 h -0.1 l -0.15,0.05 -0.3,0.2 -0.1,0.25 M 64.5,11.5 q -0.55,-0.85 -2.25,-0.95 l -1.1,0.15 Q 60.6,11 60.2,12.05 L 60,13 l 0.45,1.1 0.9,1 1.1,0.1 q 0.75,0 1.3,-0.35 L 64.4,14 q 0.8,-1.55 0.1,-2.5 m -3.15,1.75 -0.2,-0.5 0.3,-1 q 0.1,-0.4 0.45,-0.5 0.1,0.4 0.65,0.4 l 0.75,0.05 0.4,0.4 0.15,0.3 L 63.6,13.15 62.9,14 62.5,14.05 62.05,14 61.35,13.25"
         fill="#999999"
         fill-rule="evenodd"
         stroke="none"
         id="path8" />
      <path
         d="M 61.35,13.25 62.05,14 62.5,14.05 62.9,14 63.6,13.15 63.85,12.4 63.7,12.1 63.3,11.7 62.55,11.65 q -0.55,0 -0.65,-0.4 -0.35,0.1 -0.45,0.5 l -0.3,1 0.2,0.5 M 64.5,11.5 q 0.7,0.95 -0.1,2.5 l -0.65,0.85 q -0.55,0.35 -1.3,0.35 l -1.1,-0.1 -0.9,-1 L 60,13 60.2,12.05 Q 60.6,11 61.15,10.7 l 1.1,-0.15 q 1.7,0.1 2.25,0.95 m 1.05,-1.35 0.1,-0.25 0.3,-0.2 0.15,-0.05 h 0.1 V 9.6 q 0.7,0.1 0.7,0.75 0,0.55 -0.5,0.65 -0.5,0.15 -0.8,-0.3 l -0.05,-0.35 v -0.2 m 2.9,0.1 q 0.35,0.15 0.25,0.55 l -0.3,0.55 -1.35,1.9 -0.55,0.6 -0.65,-0.1 q -0.3,-0.3 -0.2,-0.6 l 0.3,-0.5 0.85,-0.95 0.8,-0.85 q 0.2,-0.3 0.55,-0.45 l 0.3,-0.15 m -0.1,3.6 L 68,13.6 Q 67.7,13.3 67.85,12.75 68,12.3 68.55,12.2 l 0.1,-0.05 0.6,0.3 0.3,0.65 q 0,0.45 -0.6,0.75 l -0.3,0.1 -0.3,-0.1 M 54.1,15 l -0.05,0.8 -0.6,0.4 Q 53.05,16.3 52.8,15.85 52.65,15.6 52.65,15 52.4,13 52.5,12 l 0.25,-0.6 q 0.2,-0.3 0.55,-0.15 l 0.25,0.55 0.55,3.2 m 1.05,-1.25 q -0.1,-0.95 0.2,-1.55 0.25,-0.55 1.2,-1.1 l 0.45,-0.2 0.7,0.05 1.15,0.55 0.55,0.55 0.15,0.85 -0.3,1.55 q -0.35,0.8 -1.1,1.05 l -1,0.05 q -1.4,-0.1 -1.8,-0.85 l -0.2,-0.95 M 58.65,12.3 57.95,12 57.3,11.85 56.8,12.3 q -0.4,0.25 -0.5,0.45 l -0.1,0.8 0.05,0.45 0.85,0.5 h 0.85 l 0.65,-0.6 v -0.45 l 0.15,-0.35 q 0.15,-0.4 -0.1,-0.8"
         fill="#ffffff"
         fill-rule="evenodd"
         stroke="none"
         id="path9" />
      <path
         d="m 12.15,14.25 1.35,-2.4 V 11.1 l -0.4,-4 -0.2,-2.15 q 0.1,-1.2 1,-1.75 0.75,-0.4 2.15,0 l 3.7,1.15 2.35,1.25 Q 23.85,5 25.65,4.8 l 6.1,0.5 q 3.1,0.85 5.45,2.7 l 2.15,2 0.95,0.1 1.3,0.35 h 1.55 l 1.05,0.15 1.2,0.1 q 0.75,0.1 1.15,0.35 l 0.75,0.8 0.1,1.05 -0.35,0.75 -3.8,4.7 0.15,1.1 q 0.45,3.75 -0.7,7.3 -0.9,2.5 -2.05,3.95 -2.6,3.4 -7.55,4.4 l -0.3,0.1 q 0.45,0.4 1.65,0.8 l 3.6,0.6 2.05,-0.6 1,-0.6 q 0.3,-0.35 0.4,-1.1 L 41.95,32 42.6,29.5 q 0.85,-2.05 2.6,-3.05 l 0.1,-0.4 Q 45.8,23.6 45,22.45 l -0.2,-0.55 0.3,-0.35 q 0.5,-0.25 0.95,0 l 0.7,0.75 q 1,1.5 1.15,3.25 l 0.5,0.05 0.95,-1.2 q 0.95,-1.4 0.4,-3.6 -0.2,-0.55 0.05,-0.75 l 0.75,0.1 q 0.45,0.45 0.65,1.5 l 0.25,2.4 q -0.05,1.2 -0.75,2.65 v 0.1 l 0.5,0.55 0.7,-0.65 q 1.7,-1.55 1.7,-3.5 -0.1,-0.4 0.05,-0.75 0.2,-0.4 0.55,-0.25 l 0.25,0.3 q 0.6,1.6 0.15,3.4 -0.45,1.7 -1.6,3.05 l -0.8,0.75 q 0.5,2.7 -1.45,5.7 -1.05,1.5 -1.9,2.2 -1.3,1.1 -4.2,2.3 L 41.3,41 H 38.75 L 36.2,40.65 33.95,40.3 q -0.5,0.45 -1.2,0.55 L 31.3,40.9 H 30.45 L 29.15,41.15 21.1,41.7 9.7,41.45 7.85,41.15 Q 6.85,40.8 6.7,39.85 6.6,39.15 7.45,38 q 3.6,-4.85 6.35,-7.65 -2.65,-2.4 -3.4,-5.6 -1.15,-4.55 1.75,-10.5 m 15.25,11.4 -0.95,0.4 0.15,-1.05 0.05,-0.15 0.75,0.8 M 17.35,21.2 18.3,22 17.05,23.3 17.2,21.85 17.35,21.2 m 15.8,-2.6 q -0.35,1.15 0.05,2.1 l 0.35,-0.05 1.5,0.3 1.75,0.35 0.6,0.2 0.7,-0.95 q 0.9,-1.75 0.15,-2.8 -0.65,-1 -2.35,-1 -1.2,0 -1.95,0.6 -0.55,0.5 -0.8,1.25 m -2.35,5.45 -0.9,0.25 -1.1,0.25 q -0.65,0.1 -0.95,-0.35 L 27.55,23.4 27.3,22.6 Q 26.95,22 26.05,22 l -1.4,0.2 h -1.8 q -1.1,-0.3 -2.4,-1.5 l -2,-2.05 L 18.3,18.5 17.35,18.35 16.8,18.3 16,18.95 q -0.9,1 -1.3,2.3 l -0.3,1.8 q -0.1,1.5 0.05,2.25 0.5,2.35 3.15,3.6 2.75,1.25 6,0.6 2.55,-0.45 5.7,-2.2 l 1,-0.55 0.95,-0.6 1.85,-1.25 0.25,-0.5 -0.1,-0.4 0.05,-0.25 -0.15,-0.1 -2.35,0.4 m -7.25,0.45 h 0.4 l -0.65,1.35 q -0.25,0.75 -0.2,1.3 H 23 l -0.85,0.1 0.1,-0.65 0.9,-2 0.05,-0.05 0.35,-0.05 m -2.65,-0.45 0.05,0.05 -1.05,1.05 -0.9,1.4 -0.3,-0.15 -0.45,-0.2 0.35,-0.5 0.45,-0.85 0.7,-1.1 0.15,-0.25 1,0.55 m -2.1,-10.7 q -0.85,0.9 -0.95,2.15 2.7,0.25 3.9,1.9 l 0.3,0.45 0.15,-0.1 1,-1.05 0.55,-1.45 q 0.1,-1.1 -0.75,-1.95 -0.75,-0.8 -2,-0.8 -1.25,0 -2.2,0.85 M 49.9,33 q 0.55,-0.1 0.7,-0.6 0.15,-0.45 -0.1,-0.9 L 49.7,31 49.6,31.05 49.35,31.1 q -0.35,0.1 -0.55,0.45 -0.2,0.4 -0.1,0.75 0.1,0.4 0.45,0.6 L 49.9,33 m -5.8,1.5 q 0.65,0.75 1.6,0.65 1,-0.15 1.4,-1 0.3,-0.6 0.1,-1.3 -0.2,-0.65 -0.75,-1 l -1.25,-0.2 q -0.7,0.15 -1.1,0.65 -0.35,0.35 -0.35,0.95 -0.05,0.65 0.35,1.25 m 3.7,-6.1 -0.1,0.05 -0.3,0.05 q -0.35,0.1 -0.55,0.5 l -0.1,0.7 q 0.1,0.4 0.45,0.6 l 0.75,0.15 0.65,-0.35 0.2,-0.7 -0.35,-0.7 Q 48.2,28.4 47.8,28.4 m -3.95,0.9 q -0.1,0.55 0.3,0.95 0.5,0.4 0.95,0.25 0.6,-0.15 0.7,-0.85 l -0.1,-0.7 q -0.35,-0.6 -1.05,-0.5 -0.7,0.2 -0.8,0.85"
         fill="#000000"
         fill-rule="evenodd"
         stroke="none"
         id="path10" />
      <path
         d="m 43.85,29.3 q 0.1,-0.65 0.8,-0.85 0.7,-0.1 1.05,0.5 l 0.1,0.7 q -0.1,0.7 -0.7,0.85 -0.45,0.15 -0.95,-0.25 -0.4,-0.4 -0.3,-0.95 m 3.95,-0.9 q 0.4,0 0.65,0.3 l 0.35,0.7 -0.2,0.7 -0.65,0.35 -0.75,-0.15 q -0.35,-0.2 -0.45,-0.6 l 0.1,-0.7 q 0.2,-0.4 0.55,-0.5 l 0.3,-0.05 0.1,-0.05 m -3.7,6.1 q -0.4,-0.6 -0.35,-1.25 0,-0.6 0.35,-0.95 0.4,-0.5 1.1,-0.65 l 1.25,0.2 q 0.55,0.35 0.75,1 0.2,0.7 -0.1,1.3 -0.4,0.85 -1.4,1 -0.95,0.1 -1.6,-0.65 M 49.9,33 49.15,32.9 Q 48.8,32.7 48.7,32.3 48.6,31.95 48.8,31.55 49,31.2 49.35,31.1 l 0.25,-0.05 0.1,-0.05 0.8,0.5 q 0.25,0.45 0.1,0.9 -0.15,0.5 -0.7,0.6 M 18.8,13.35 q 0.95,-0.85 2.2,-0.85 1.25,0 2,0.8 0.85,0.85 0.75,1.95 l -0.55,1.45 -1,1.05 -0.15,0.1 -0.3,-0.45 q -1.2,-1.65 -3.9,-1.9 0.1,-1.25 0.95,-2.15 m 2.1,10.7 -1,-0.55 -0.15,0.25 -0.7,1.1 -0.45,0.85 -0.35,0.5 0.45,0.2 0.3,0.15 0.9,-1.4 1.05,-1.05 -0.05,-0.05 m 2.65,0.45 -0.35,0.05 -0.05,0.05 -0.9,2 -0.1,0.65 0.85,-0.1 h 0.1 q -0.05,-0.55 0.2,-1.3 l 0.65,-1.35 h -0.4 m 7.25,-0.45 2.35,-0.4 0.15,0.1 -0.05,0.25 0.1,0.4 -0.25,0.5 -1.85,1.25 -0.95,0.6 -1,0.55 q -3.15,1.75 -5.7,2.2 -3.25,0.65 -6,-0.6 -2.65,-1.25 -3.15,-3.6 -0.15,-0.75 -0.05,-2.25 l 0.3,-1.8 q 0.4,-1.3 1.3,-2.3 l 0.8,-0.65 0.55,0.05 0.95,0.15 0.15,0.15 2,2.05 q 1.3,1.2 2.4,1.5 h 1.8 l 1.4,-0.2 q 0.9,0 1.25,0.6 l 0.25,0.8 0.3,0.8 q 0.3,0.45 0.95,0.35 l 1.1,-0.25 0.9,-0.25 m 2.35,-5.45 q 0.25,-0.75 0.8,-1.25 0.75,-0.6 1.95,-0.6 1.7,0 2.35,1 0.75,1.05 -0.15,2.8 l -0.7,0.95 -0.6,-0.2 -1.75,-0.35 -1.5,-0.3 -0.35,0.05 Q 32.8,19.75 33.15,18.6 M 17.35,21.2 17.2,21.85 17.05,23.3 18.3,22 17.35,21.2 m 10.05,4.45 -0.75,-0.8 -0.05,0.15 -0.15,1.05 0.95,-0.4"
         fill="#ffffff"
         fill-rule="evenodd"
         stroke="none"
         id="path11" />
    </g>
    <g
       id="shape2"
       transform="translate(2,2.05)">
      <path
         d="M -0.5,-0.4 V -0.55 H 75.1 V -0.4 40.8 H -0.5 Z"
         fill="none"
         stroke="#000000"
         stroke-linecap="round"
         stroke-linejoin="round"
         stroke-width="3"
         id="path12" />
    </g>
  </defs>
</svg>
