<?xml version="1.0" encoding="UTF-8" standalone="no"?>
<svg
   ffdec:objectType="frame"
   height="44.349998"
   width="78.599998"
   version="1.1"
   id="svg11"
   sodipodi:docname="118.svg"
   xmlns:inkscape="http://www.inkscape.org/namespaces/inkscape"
   xmlns:sodipodi="http://sodipodi.sourceforge.net/DTD/sodipodi-0.dtd"
   xmlns:xlink="http://www.w3.org/1999/xlink"
   xmlns="http://www.w3.org/2000/svg"
   xmlns:svg="http://www.w3.org/2000/svg"
   xmlns:ffdec="https://www.free-decompiler.com/flash">
  <sodipodi:namedview
     id="namedview11"
     pagecolor="#ffffff"
     bordercolor="#000000"
     borderopacity="0.25"
     inkscape:showpageshadow="2"
     inkscape:pageopacity="0.0"
     inkscape:pagecheckerboard="0"
     inkscape:deskcolor="#d1d1d1"
     fit-margin-top="5"
     fit-margin-left="5"
     fit-margin-right="5"
     fit-margin-bottom="5" />
  <g
     transform="translate(2,2.05)"
     id="g3">
    <use
       ffdec:characterId="1"
       height="42.700001"
       transform="translate(-1.75,-2)"
       width="76.449997"
       xlink:href="#shape0"
       id="use1" />
    <use
       ffdec:characterId="119"
       height="38.150002"
       transform="translate(-0.75,-1.1)"
       width="75.699997"
       xlink:href="#shape1"
       id="use2" />
    <use
       ffdec:characterId="3"
       height="44.349998"
       transform="translate(-2,-2.05)"
       width="78.599998"
       xlink:href="#shape2"
       id="use3" />
  </g>
  <defs
     id="defs11">
    <g
       id="shape0"
       transform="translate(1.75,2)">
      <path
         d="M 2.8,0 V -0.4 H 5.4 V 0 H 9.7 V 19.45 0 H 20.55 L 19.3,19.45 H 9.7 0.25 V 0 H 2.8"
         fill="#ffffff"
         fill-rule="evenodd"
         stroke="none"
         id="path3" />
      <path
         d="M 0.25,19.45 H 9.7 19.3 L 18.7,28.6 16,28.5 10.95,27.95 9.7,27.8 Q 7.45,27.6 5.85,27.75 4.05,27.9 1.5,28.6 0.75,28.8 0.25,29.15 v -9.7 m 9.45,0 v 8.35 -8.35"
         fill="#121212"
         fill-rule="evenodd"
         stroke="none"
         id="path4" />
      <path
         d="m 9.7,27.8 1.25,0.15 5.05,0.55 2.7,0.1 h 1.05 l 3.75,0.15 q 2.45,0.3 3.6,1.25 0.6,0.5 0.6,1.1 0,0.65 -0.8,1 l -1.3,0.2 -7.15,0.15 -5.6,-0.3 L 9.7,31.75 7.95,31.6 3.1,31.95 0.95,32.3 0.25,32.1 -0.35,31.55 -0.5,31.3 V 29.9 L 0.25,29.15 Q 0.75,28.8 1.5,28.6 4.05,27.9 5.85,27.75 7.45,27.6 9.7,27.8 v 3.95 -3.95"
         fill="#999999"
         fill-rule="evenodd"
         stroke="none"
         id="path5" />
      <path
         d="M 2.8,0 H 0.25 M 9.7,0 H 5.4 m 16.15,0 h 10.7 M 20.55,0 H 9.7"
         fill="none"
         stroke="#666666"
         stroke-linecap="round"
         stroke-linejoin="round"
         stroke-width="4"
         id="path6" />
      <path
         d="m 9.7,-0.4 h 65 V 40.5 H 47.05 L 45.5,40.7 27,40.65 25.95,40.5 H 9.7 -0.5 V -0.4 H 9.7 V 40.5 -0.4"
         fill="#ffffff"
         fill-rule="evenodd"
         stroke="none"
         id="path7" />
    </g>
    <g
       id="shape1"
       transform="translate(0.75,1.1)">
      <path
         d="m 29.05,-1.1 0.2,0.05 0.15,0.1 0.05,0.05 0.05,0.1 0.05,0.1 v 0.1 0.1 l 0.05,0.1 v 0.05 l 0.05,0.1 v 0.1 0.1 0.1 0.05 0.1 0.1 0.1 0.1 0.1 0.05 0.1 0.1 0.1 0.1 0.05 0.1 0.1 0.1 0.1 0.1 0.05 0.1 0.1 0.1 0.1 0.05 0.1 0.1 0.1 l 0.05,0.1 v 0.1 0.05 0.1 0.1 0.1 0.1 0.05 0.1 0.1 l 0.05,0.1 0.05,0.1 v 0.1 0.05 0.1 l 0.05,0.1 v 0.1 l 0.05,0.1 0.05,0.1 0.1,0.05 0.05,0.1 v 0.1 l 0.1,0.1 v 0.1 l 0.05,0.05 v 0.1 0.1 l 0.05,0.1 v 0.1 0.1 l 0.05,0.05 v 0.1 0.1 0.1 0.1 0.05 0.1 0.1 0.1 0.1 0.1 0.05 0.1 0.1 l 0.05,0.1 v 0.1 0.05 0.1 0.1 l 0.05,0.1 0.05,0.1 v 0.1 l 0.05,0.05 0.05,0.1 0.05,0.1 0.05,0.1 0.05,0.1 0.05,0.05 v 0.1 l 0.05,0.1 v 0.1 0.1 l 0.05,0.1 V 8.2 8.3 8.4 l 0.05,0.1 v 0.1 0.05 l -0.05,0.1 v 0.1 0.1 0.1 l -0.05,0.1 V 9.2 L 30.8,9.3 v 0.1 l -0.05,0.1 -0.05,0.1 -0.05,0.05 -0.05,0.1 -0.05,0.1 -0.05,0.1 -0.1,0.1 -0.1,0.1 -0.1,0.05 -0.1,0.1 -0.15,0.1 -0.2,0.1 -0.15,0.05 -0.1,0.05 h -0.15 l -0.3,0.05 -0.35,-0.05 h -0.15 l -0.2,-0.1 -0.15,-0.05 -0.2,-0.1 -0.15,-0.1 -0.1,-0.1 -0.1,-0.1 L 27.6,9.95 27.5,9.9 27.45,9.8 27.4,9.7 27.35,9.6 27.3,9.5 27.25,9.45 27.2,9.35 V 9.25 9.15 L 27.15,9.05 V 8.95 8.9 8.8 L 27.1,8.7 V 8.6 8.5 8.45 l 0.05,-0.1 V 8.25 8.15 8.05 L 27.2,7.95 V 7.9 7.8 L 27.25,7.7 V 7.6 l 0.05,-0.1 0.05,-0.05 0.05,-0.1 0.05,-0.1 0.1,-0.1 V 7.05 6.95 L 27.6,6.9 27.65,6.8 V 6.7 6.6 6.5 6.45 L 27.7,6.35 V 6.25 6.15 6.05 5.95 5.9 5.8 5.7 5.6 5.5 5.45 5.35 5.25 5.15 l 0.05,-0.1 V 4.95 4.9 L 27.8,4.8 V 4.7 4.6 L 27.85,4.5 V 4.45 l 0.1,-0.1 0.05,-0.1 0.05,-0.1 0.05,-0.1 0.1,-0.1 V 3.9 3.8 L 28.25,3.7 V 3.6 3.5 3.45 l 0.05,-0.1 0.05,-0.1 V 3.15 3.05 2.95 2.9 2.8 2.7 2.6 2.5 2.45 L 28.4,2.35 V 2.25 2.15 2.05 1.95 1.9 1.8 1.7 1.6 1.5 1.45 1.35 1.25 1.15 1.05 0.95 0.9 0.8 0.7 0.6 0.5 0.45 0.35 0.25 0.15 0.05 -0.05 -0.1 -0.2 -0.3 l 0.05,-0.1 v -0.1 l 0.05,-0.05 v -0.1 -0.1 l 0.05,-0.1 0.1,-0.1 0.05,-0.1 0.15,-0.05 h 0.2 m 29.45,6.6 1.95,-1.35 0.65,-0.6 0.2,-0.05 0.2,0.05 0.65,0.6 q 1.1,1 1.95,1.35 l 1.7,0.4 2.05,0.35 q 0.9,0.1 1.25,0.55 l 0.2,1.1 q -0.15,1.55 -1.55,4.25 l -0.7,1.3 q -1.4,2.4 -4,4.25 -0.7,0.5 -1.15,0.45 h -1.2 q -0.45,0.05 -1.15,-0.45 -2.6,-1.85 -4,-4.25 l -0.7,-1.3 Q 53.45,9.45 53.3,7.9 L 53.5,6.8 Q 53.85,6.35 54.75,6.25 L 56.8,5.9 58.5,5.5 m 3,2.5 v 0.05 h -0.2 -0.1 l -0.15,0.1 -0.1,0.05 -0.1,0.1 -0.1,0.1 -0.05,0.1 -0.05,0.1 v 0.05 l -0.1,0.1 v 0.1 0.1 l -0.05,0.1 v 0.1 0.05 0.1 0.1 0.1 0.1 0.05 0.1 0.1 0.1 0.05 h -0.25 l -0.85,0.05 -0.35,0.05 -0.2,0.1 -0.15,0.1 -0.1,0.05 -0.1,0.1 -0.1,0.1 -0.05,0.1 -0.05,0.1 -0.05,0.05 v 0.1 L 58.2,11 v 0.1 0.1 0.1 0.05 0.1 0.1 l 0.05,0.1 v 0.1 l 0.05,0.05 0.05,0.1 0.05,0.1 0.1,0.1 0.1,0.1 0.1,0.1 0.15,0.05 0.2,0.1 0.35,0.05 0.85,0.05 h 0.2 L 60.4,12.6 v 0.05 0.1 0.1 0.1 0.1 0.1 0.05 0.1 0.1 l 0.05,0.1 v 0.1 l 0.05,0.05 v 0.1 l 0.05,0.1 0.05,0.1 0.05,0.1 0.1,0.1 0.1,0.05 0.1,0.1 0.25,0.1 0.3,0.05 h 0.25 l 0.1,-0.05 0.15,-0.05 0.1,-0.1 0.15,-0.1 0.1,-0.1 0.05,-0.05 0.05,-0.1 0.05,-0.1 v -0.1 l 0.05,-0.1 v -0.1 -0.05 l 0.05,-0.1 v -0.1 -0.1 -0.1 V 13 12.9 12.8 12.7 L 62.55,12.6 V 12.5 H 62.6 L 62.7,12.45 62.85,12.4 63,12.3 63.55,12.25 63.8,12.2 h 0.1 l 0.15,-0.05 0.1,-0.1 0.1,-0.1 0.1,-0.1 0.05,-0.1 v -0.1 l 0.1,-0.05 v -0.1 -0.1 -0.1 -0.1 -0.05 -0.1 L 64.45,10.95 64.4,10.85 64.35,10.75 64.3,10.65 64.25,10.6 64.1,10.5 63.95,10.4 63.8,10.35 63.55,10.3 h -0.5 L 63,10.25 62.9,10.2 62.7,10.1 62.55,10.05 V 9.95 9.9 9.8 9.7 9.6 9.5 9.45 9.35 L 62.5,9.25 V 9.15 9.05 8.95 L 62.45,8.9 62.4,8.8 V 8.7 L 62.35,8.6 62.3,8.5 62.25,8.45 62.2,8.35 62.1,8.25 62,8.15 61.8,8.05 61.5,8 m -28.55,13.5 -0.7,1.85 -0.1,0.6 0.25,0.4 0.85,0.85 1.7,1.25 0.95,0.8 0.6,-0.25 1.7,-0.85 q 1.2,-0.65 1.75,-0.7 L 40.3,25.4 40.55,25 40.9,23.95 q 0.25,-0.5 0,-1.05 -0.15,-0.4 -0.95,-0.7 l -1.2,-0.35 -0.45,-0.35 -0.65,0.55 -1.6,-0.1 q -0.5,-0.2 -0.65,-0.4 l -0.05,-0.1 -2.4,0.05 m -8.4,-3.75 q -0.7,-0.3 -0.65,-0.8 0,-0.4 0.6,-0.5 l 0.85,0.1 2.55,-0.15 2.5,-0.3 1.6,0.35 1.6,0.35 2.85,-0.4 2.85,-0.4 2.35,0.45 4.1,-0.5 q 1.45,-0.2 1.9,0.65 0.45,0.7 -0.2,1.35 l -0.75,0.35 0.15,0.1 q 0.5,0.5 0.4,1.7 l -0.55,2.2 -1.9,6.15 h 3.7 l 9,-0.05 3.75,-0.05 h 1.5 L 64.2,28.3 h 2.25 5.3 0.7 l 1.9,0.05 0.25,0.05 0.15,0.1 0.1,0.1 0.05,0.05 0.05,0.1 v 0.1 0.1 0.1 0.1 L 74.9,29.2 v 0.1 l -0.1,0.1 -0.1,0.1 -0.1,0.05 -0.05,0.05 h -0.2 l -1.9,0.05 h -0.7 -5.3 -2.25 L 62.75,29.6 h -1.5 l -3.75,-0.05 -9,-0.05 h -4.05 l -0.5,1.4 q -0.4,1.15 -1,1.65 l -1.4,0.5 0.9,0.05 q 1.25,0.1 1.7,0.55 0.4,0.4 0.35,1.05 -0.05,0.6 -0.45,1 l -1.35,0.7 -3.4,0.4 -7,0.25 -6.95,-0.7 q -1.6,-0.4 -1.9,-1.2 -0.2,-0.5 0.05,-1.05 l 0.7,-0.85 q 0.7,-0.45 2.05,-0.55 l 1.6,-0.15 -1,-1.55 -0.55,-1.5 -4.05,-0.05 H 19.2 L 11.8,29.5 H 6.85 L 6.4,29.45 H 4.15 L 2.8,29.4 1.5,29.35 H 0.1 -0.1 l -0.05,0.1 H -0.2 l -0.15,0.05 -0.2,-0.05 -0.15,-0.1 -0.05,-0.1 V 29.15 29.05 29 l 0.05,-0.1 0.1,-0.1 0.1,-0.1 0.1,-0.05 0.1,-0.05 H -0.15 0.1 1.5 L 2.8,28.55 4.15,28.5 H 6.4 l 0.45,-0.05 h 4.95 l 7.4,0.05 H 22.25 26 L 25.95,28.4 Q 24,22 24.8,17.85 l -0.25,-0.1 M 34.1,10.1 33.15,10.6 32.4,10.9 Q 32,10.8 32.1,10.4 l 0.15,-0.6 0.7,-0.9 0.6,-0.3 q 0.4,0 0.65,0.25 0.3,0.3 0.2,0.7 l -0.3,0.55 m -8.1,1 -0.65,0.1 -0.6,-0.35 -0.7,-0.45 q -0.45,-0.45 -0.1,-1 l 0.3,-0.3 1.1,0.05 0.45,0.75 0.2,0.7 v 0.5 M 9,5.5 10.95,4.15 11.6,3.55 11.8,3.5 12,3.55 l 0.65,0.6 q 1.1,1 1.95,1.35 l 1.7,0.4 2.05,0.35 q 0.9,0.1 1.25,0.55 l 0.2,1.1 q -0.15,1.55 -1.55,4.25 l -0.7,1.3 q -1.4,2.4 -4,4.25 -0.7,0.5 -1.15,0.45 h -1.2 q -0.45,0.05 -1.15,-0.45 -2.6,-1.85 -4,-4.25 l -0.7,-1.3 Q 3.95,9.45 3.8,7.9 L 4,6.8 Q 4.35,6.35 5.25,6.25 L 7.3,5.9 9,5.5 M 11.8,8 v 0.05 h -0.2 -0.1 l -0.15,0.1 -0.1,0.05 -0.1,0.1 -0.1,0.1 L 11,8.5 10.95,8.6 v 0.05 l -0.1,0.1 v 0.1 0.1 l -0.05,0.1 v 0.1 0.05 0.1 0.1 0.1 0.1 0.05 0.1 0.1 0.1 V 10 H 10.55 L 9.7,10.05 9.35,10.1 9.15,10.2 9,10.3 l -0.1,0.05 -0.1,0.1 -0.1,0.1 -0.05,0.1 -0.05,0.1 -0.05,0.05 v 0.1 L 8.5,11 v 0.1 0.1 0.1 0.05 0.1 0.1 l 0.05,0.1 v 0.1 l 0.05,0.05 0.05,0.1 0.05,0.1 0.1,0.1 0.1,0.1 0.1,0.1 0.15,0.05 0.2,0.1 0.35,0.05 0.85,0.05 h 0.2 L 10.7,12.6 v 0.05 0.1 0.1 0.1 0.1 0.1 0.05 0.1 0.1 l 0.05,0.1 v 0.1 l 0.05,0.05 v 0.1 l 0.05,0.1 0.05,0.1 0.05,0.1 0.1,0.1 0.1,0.05 0.1,0.1 0.25,0.1 0.3,0.05 h 0.25 l 0.1,-0.05 0.15,-0.05 0.1,-0.1 0.15,-0.1 0.1,-0.1 0.05,-0.05 0.05,-0.1 0.05,-0.1 v -0.1 l 0.05,-0.1 v -0.1 -0.05 l 0.05,-0.1 v -0.1 -0.1 -0.1 V 13 12.9 12.8 12.7 L 12.85,12.6 V 12.5 H 12.9 L 13,12.45 13.15,12.4 13.3,12.3 13.85,12.25 14.1,12.2 h 0.1 l 0.15,-0.05 0.1,-0.1 0.1,-0.1 0.1,-0.1 0.05,-0.1 v -0.1 l 0.1,-0.05 v -0.1 -0.1 -0.1 -0.1 -0.05 -0.1 L 14.75,10.95 14.7,10.85 14.65,10.75 14.6,10.65 14.55,10.6 14.4,10.5 14.25,10.4 14.1,10.35 13.85,10.3 h -0.5 L 13.3,10.25 13.2,10.2 13,10.1 12.85,10.05 V 9.95 9.9 9.8 9.7 9.6 9.5 9.45 9.35 L 12.8,9.25 V 9.15 9.05 8.95 L 12.75,8.9 12.7,8.8 V 8.7 L 12.65,8.6 12.6,8.5 12.55,8.45 12.5,8.35 12.4,8.25 12.3,8.15 12.1,8.05 11.8,8"
         fill="#999999"
         fill-rule="evenodd"
         stroke="none"
         id="path8" />
      <path
         d="m 61.5,8 0.3,0.05 0.2,0.1 0.1,0.1 0.1,0.1 0.05,0.1 0.05,0.05 0.05,0.1 0.05,0.1 v 0.1 l 0.05,0.1 0.05,0.05 v 0.1 0.1 0.1 l 0.05,0.1 v 0.1 0.05 0.1 0.1 0.1 0.1 0.05 0.1 l 0.15,0.05 0.2,0.1 0.1,0.05 0.05,0.05 h 0.5 l 0.25,0.05 0.15,0.05 0.15,0.1 0.15,0.1 0.05,0.05 0.05,0.1 0.05,0.1 0.05,0.1 0.05,0.1 v 0.1 0.05 0.1 0.1 0.1 0.1 l -0.1,0.05 v 0.1 l -0.05,0.1 -0.1,0.1 -0.1,0.1 -0.1,0.1 -0.15,0.05 H 63.8 L 63.55,12.25 63,12.3 62.85,12.4 62.7,12.45 62.6,12.5 h -0.05 v 0.1 l 0.05,0.1 v 0.1 0.1 0.1 0.05 0.1 0.1 0.1 l -0.05,0.1 v 0.05 0.1 l -0.05,0.1 v 0.1 l -0.05,0.1 -0.05,0.1 -0.05,0.05 -0.1,0.1 -0.15,0.1 -0.1,0.1 -0.15,0.05 -0.1,0.05 H 61.5 l -0.3,-0.05 -0.25,-0.1 -0.1,-0.1 -0.1,-0.05 -0.1,-0.1 -0.05,-0.1 -0.05,-0.1 -0.05,-0.1 v -0.1 L 60.45,13.6 V 13.5 L 60.4,13.4 v -0.1 -0.1 -0.05 -0.1 -0.1 -0.1 -0.1 -0.1 -0.05 l 0.05,-0.05 h -0.2 L 59.4,12.5 59.05,12.45 58.85,12.35 58.7,12.3 58.6,12.2 58.5,12.1 58.4,12 58.35,11.9 58.3,11.8 58.25,11.75 v -0.1 L 58.2,11.55 V 11.45 11.35 11.3 11.2 11.1 11 l 0.05,-0.1 v -0.1 l 0.05,-0.05 0.05,-0.1 0.05,-0.1 0.1,-0.1 0.1,-0.1 0.1,-0.05 0.15,-0.1 0.2,-0.1 L 59.4,10.05 60.25,10 H 60.5 V 9.95 9.85 9.75 9.65 9.6 9.5 9.4 9.3 9.2 9.15 9.05 l 0.05,-0.1 v -0.1 -0.1 l 0.1,-0.1 V 8.6 l 0.05,-0.1 0.05,-0.1 0.1,-0.1 0.1,-0.1 0.1,-0.05 0.15,-0.1 h 0.1 0.2 V 8 m -49.7,0 0.3,0.05 0.2,0.1 0.1,0.1 0.1,0.1 0.05,0.1 0.05,0.05 0.05,0.1 0.05,0.1 v 0.1 l 0.05,0.1 0.05,0.05 v 0.1 0.1 0.1 l 0.05,0.1 v 0.1 0.05 0.1 0.1 0.1 0.1 0.05 0.1 l 0.15,0.05 0.2,0.1 0.1,0.05 0.05,0.05 h 0.5 l 0.25,0.05 0.15,0.05 0.15,0.1 0.15,0.1 0.05,0.05 0.05,0.1 0.05,0.1 0.05,0.1 0.05,0.1 v 0.1 0.05 0.1 0.1 0.1 0.1 l -0.1,0.05 v 0.1 l -0.05,0.1 -0.1,0.1 -0.1,0.1 -0.1,0.1 -0.15,0.05 H 14.1 L 13.85,12.25 13.3,12.3 13.15,12.4 13,12.45 12.9,12.5 h -0.05 v 0.1 l 0.05,0.1 v 0.1 0.1 0.1 0.05 0.1 0.1 0.1 l -0.05,0.1 v 0.05 0.1 l -0.05,0.1 v 0.1 l -0.05,0.1 -0.05,0.1 -0.05,0.05 -0.1,0.1 -0.15,0.1 -0.1,0.1 -0.15,0.05 -0.1,0.05 H 11.8 l -0.3,-0.05 -0.25,-0.1 -0.1,-0.1 -0.1,-0.05 -0.1,-0.1 -0.05,-0.1 -0.05,-0.1 -0.05,-0.1 v -0.1 L 10.75,13.6 V 13.5 L 10.7,13.4 v -0.1 -0.1 -0.05 -0.1 -0.1 -0.1 -0.1 -0.1 -0.05 l 0.05,-0.05 h -0.2 L 9.7,12.5 9.35,12.45 9.15,12.35 9,12.3 8.9,12.2 8.8,12.1 8.7,12 8.65,11.9 8.6,11.8 8.55,11.75 v -0.1 L 8.5,11.55 V 11.45 11.35 11.3 11.2 11.1 11 L 8.55,10.9 V 10.8 L 8.6,10.75 8.65,10.65 8.7,10.55 8.8,10.45 8.9,10.35 9,10.3 9.15,10.2 9.35,10.1 9.7,10.05 10.55,10 H 10.8 V 9.95 9.85 9.75 9.65 9.6 9.5 9.4 9.3 9.2 9.15 9.05 l 0.05,-0.1 v -0.1 -0.1 l 0.1,-0.1 V 8.6 L 11,8.5 l 0.05,-0.1 0.1,-0.1 0.1,-0.1 0.1,-0.05 0.15,-0.1 h 0.1 0.2 V 8"
         fill="#ffffff"
         fill-rule="evenodd"
         stroke="none"
         id="path9" />
      <path
         d="m 23.4,12.35 h 1.85 2 1.45 2.1 4 3.65 2.15 1.85 0.8 5.15 v 0.05 h 0.25 l 0.15,0.05 0.15,0.05 0.2,0.1 0.15,0.05 0.1,0.1 0.05,0.1 0.1,0.1 0.05,0.1 0.1,0.1 0.05,0.05 v 0.1 l 0.05,0.1 v 0.1 h 0.05 v 0.05 l 0.05,0.1 0.1,1.25 -0.45,1.55 v 0.1 0.1 0.1 0.05 0.1 L 49.5,17 49.45,17.1 v 0.1 0.1 0.05 l -0.05,0.1 v 0.1 l -0.05,0.1 v 0.1 L 49.3,17.8 v 0.1 L 49.25,18 v 0.1 0.1 0.1 0.05 l -0.05,0.1 v 0.1 l -0.05,0.1 -0.05,0.1 v 0.05 l -0.05,0.1 V 19 19.1 L 49,19.2 v 0.1 0.05 0.1 0.1 l -0.05,0.1 -0.05,0.1 -0.05,0.05 v 0.1 0.1 l -0.05,0.1 v 0.1 0.1 l -0.05,0.05 v 0.1 l -0.05,0.1 -0.05,0.1 -0.05,0.1 -0.05,0.05 v 0.1 0.1 0.1 0.1 l -0.05,0.1 -0.05,0.05 v 0.1 l -0.05,0.1 -0.05,0.1 -0.05,0.1 v 0.05 0.1 0.1 0.1 l -0.05,0.1 v 0.1 0.05 0.1 l -0.05,0.1 -0.05,0.1 v 0.1 0.05 0.1 L 48.1,23 v 0.1 L 48.05,23.2 48,23.3 v 0.05 l -0.05,0.1 -0.05,0.1 v 0.1 0.1 0.05 l -0.05,0.1 V 24 l -0.05,0.1 -0.05,0.1 v 0.1 l -0.05,0.05 v 0.1 0.1 0.1 0.1 l -0.05,0.1 -0.05,0.05 -0.05,0.1 v 0.1 l -0.1,0.1 v 0.1 l -0.05,0.05 v 0.1 l -0.05,0.1 -0.05,0.1 -0.05,0.1 v 0.1 0.05 0.1 0.1 0.1 l -0.05,0.1 -0.05,0.05 v 0.1 l -0.05,0.1 -0.05,0.1 -0.05,0.1 v 0.1 0.05 0.1 l -0.05,0.1 v 0.1 l -0.05,0.1 v 0.05 l -0.05,0.1 v 0.1 l -0.05,0.1 -0.05,0.1 v 0.1 L 46.7,27.9 V 28 l -0.05,0.1 -0.05,0.1 v 0.1 l -0.05,0.05 v 0.1 l -0.05,0.1 -0.05,0.1 v 0.1 0.1 L 46.4,28.9 V 29 l -0.05,0.1 -0.05,0.1 v 0.1 l -0.05,0.05 v 0.1 0.1 0.1 l -0.05,0.1 -0.05,0.1 v 0.05 0.1 0.1 l -0.05,0.1 v 0.1 0.05 0.1 0.1 l -0.05,0.1 v 0.1 L 46,30.85 V 30.9 L 45.9,31 v 0.1 l -0.05,0.1 v 0.1 0.05 0.1 l -0.05,0.1 -0.05,0.1 v 0.1 L 45.7,31.85 45.65,31.9 45.6,32 v 0.1 l -0.05,0.1 v 0.1 0.05 l -0.05,0.1 -0.05,0.1 -0.05,0.1 -0.05,0.1 -0.05,0.1 v 0.05 0.1 0.1 l -0.05,0.1 v 0.1 l -0.05,0.05 -0.05,0.1 v 0.1 l -0.05,0.1 v 0.1 L 45.05,33.85 45,33.9 V 34 l -0.05,0.1 -0.05,0.1 -0.05,0.1 -0.05,0.05 -0.05,0.1 -0.1,0.1 -0.1,0.1 -0.1,0.1 -0.05,0.1 -0.15,0.05 -0.15,0.1 -0.15,0.1 -0.2,0.1 -0.2,0.05 -0.3,0.05 h -2.8 -3.95 -0.15 -0.9 -0.15 -3.95 -2.8 l -0.3,-0.05 -0.2,-0.05 -0.2,-0.1 -0.15,-0.1 -0.15,-0.1 -0.15,-0.05 -0.05,-0.1 -0.1,-0.1 -0.1,-0.1 -0.1,-0.1 L 27,34.35 26.95,34.3 26.9,34.2 26.85,34.1 26.8,34 v -0.1 l -0.05,-0.05 -0.05,-0.1 v -0.1 l -0.05,-0.1 v -0.1 L 26.6,33.35 26.55,33.3 V 33.2 L 26.5,33.1 V 33 32.9 32.85 l -0.05,-0.1 -0.05,-0.1 -0.05,-0.1 -0.05,-0.1 -0.05,-0.1 V 32.3 32.2 L 26.2,32.1 V 32 l -0.05,-0.1 -0.05,-0.05 -0.05,-0.1 v -0.1 L 26,31.55 25.95,31.45 V 31.35 31.3 31.2 L 25.9,31.1 V 31 l -0.1,-0.1 v -0.05 l -0.05,-0.1 v -0.1 l -0.05,-0.1 v -0.1 -0.1 -0.05 -0.1 L 25.65,30.1 V 30 29.9 29.85 l -0.05,-0.1 -0.05,-0.1 v -0.1 -0.1 -0.1 L 25.5,29.3 V 29.2 L 25.45,29.1 25.4,29 v -0.1 l -0.05,-0.05 v -0.1 -0.1 l -0.05,-0.1 -0.05,-0.1 v -0.1 L 25.2,28.3 V 28.2 L 25.15,28.1 25.1,28 v -0.1 l -0.05,-0.05 v -0.1 L 25,27.65 24.95,27.55 v -0.1 L 24.9,27.35 V 27.3 L 24.85,27.2 V 27.1 L 24.8,27 v -0.1 -0.05 -0.1 l -0.05,-0.1 -0.05,-0.1 -0.05,-0.1 v -0.1 L 24.6,26.3 24.55,26.2 V 26.1 26 25.9 25.85 25.75 l -0.05,-0.1 -0.05,-0.1 -0.05,-0.1 v -0.1 L 24.35,25.3 v -0.1 l -0.1,-0.1 V 25 L 24.2,24.9 24.15,24.85 24.1,24.75 v -0.1 -0.1 -0.1 -0.1 L 24.05,24.3 V 24.2 L 24,24.1 23.95,24 V 23.9 L 23.9,23.8 v -0.05 -0.1 -0.1 l -0.05,-0.1 -0.05,-0.1 V 23.3 L 23.75,23.2 23.7,23.1 V 23 l -0.05,-0.1 v -0.1 -0.05 -0.1 l -0.05,-0.1 -0.05,-0.1 V 22.35 22.3 22.2 L 23.5,22.1 V 22 21.9 21.8 21.75 l -0.05,-0.1 -0.05,-0.1 -0.05,-0.1 v -0.1 L 23.3,21.3 23.25,21.2 V 21.1 21 20.9 20.8 l -0.05,-0.05 -0.05,-0.1 -0.05,-0.1 -0.05,-0.1 v -0.1 L 23,20.3 V 20.2 20.1 L 22.95,20 v -0.1 -0.1 l -0.05,-0.05 -0.05,-0.1 -0.05,-0.1 v -0.1 -0.1 -0.05 -0.1 L 22.75,19.1 V 19 18.9 L 22.7,18.8 v -0.05 l -0.05,-0.1 -0.05,-0.1 v -0.1 l -0.05,-0.1 V 18.3 18.2 18.1 18 L 22.5,17.9 v -0.1 l -0.05,-0.05 v -0.1 l -0.05,-0.1 v -0.1 l -0.05,-0.1 V 17.3 17.2 17.1 L 22.3,17 22.25,16.9 v -0.1 -0.05 -0.1 -0.1 -0.1 Q 21.9,15.95 21.8,14.9 l 0.1,-1.25 0.05,-0.1 V 13.5 H 22 v -0.1 l 0.05,-0.1 v -0.1 l 0.05,-0.05 0.1,-0.1 0.05,-0.1 0.1,-0.1 0.05,-0.1 0.1,-0.1 0.15,-0.05 0.2,-0.1 0.15,-0.05 0.15,-0.05 h 0.25 v -0.05 m 1.15,3.1 0.05,0.05 v 0.1 0.1 l 0.05,0.1 v 0.1 l 0.05,0.1 0.1,0.05 0.05,0.1 0.05,0.1 v 0.1 l 0.05,0.1 v 0.05 0.1 l 0.05,0.1 0.05,0.1 v 0.1 l 0.05,0.1 0.05,0.05 0.05,0.1 v 0.1 l 0.05,0.1 v 0.1 0.05 0.1 0.1 l 0.05,0.1 0.05,0.1 v 0.1 0.05 l 0.05,0.1 v 0.1 l 0.05,0.1 v 0.1 0.05 l 0.05,0.1 0.05,0.1 v 0.1 l 0.1,0.1 V 19 l 0.05,0.05 v 0.1 0.1 0.1 0.1 l 0.05,0.05 0.05,0.1 0.05,0.1 0.05,0.1 0.05,0.1 V 20 L 26,20.05 v 0.1 0.1 l 0.05,0.1 v 0.1 0.05 l 0.05,0.1 0.05,0.1 0.05,0.1 v 0.1 l 0.05,0.1 v 0.05 0.1 0.1 l 0.05,0.1 0.05,0.1 0.05,0.05 0.05,0.1 0.05,0.1 v 0.1 0.1 l 0.05,0.1 v 0.05 0.1 l 0.05,0.1 0.05,0.1 0.05,0.1 v 0.05 l 0.05,0.1 0.05,0.1 v 0.1 0.1 l 0.1,0.1 v 0.05 l 0.05,0.1 v 0.1 0.1 l 0.05,0.1 0.05,0.05 v 0.1 0.1 0.1 l 0.05,0.1 0.05,0.1 0.05,0.05 v 0.1 l 0.05,0.1 0.05,0.1 0.05,0.1 0.05,0.05 v 0.1 l 0.05,0.1 0.05,0.1 v 0.1 l 0.05,0.1 v 0.05 0.1 0.1 0.1 l 0.1,0.1 v 0.05 0.1 l 0.05,0.1 v 0.1 l 0.05,0.1 0.05,0.1 v 0.05 l 0.05,0.1 v 0.1 0.1 l 0.05,0.1 0.05,0.05 0.05,0.1 0.05,0.1 v 0.1 l 0.05,0.1 v 0.1 0.05 l 0.05,0.1 0.05,0.1 0.05,0.1 v 0.1 l 0.05,0.05 0.05,0.1 v 0.1 0.1 0.1 L 28.4,28 v 0.05 l 0.05,0.1 0.05,0.1 0.05,0.1 v 0.1 0.05 0.1 l 0.05,0.1 0.05,0.1 v 0.1 l 0.05,0.1 0.05,0.05 v 0.1 0.1 0.1 l 0.05,0.1 v 0.05 0.1 l 0.05,0.1 0.05,0.1 v 0.1 l 0.05,0.1 v 0.05 l 0.05,0.1 0.05,0.1 v 0.1 0.1 0.05 l 0.05,0.1 v 0.1 l 0.05,0.1 0.05,0.1 V 31 l 0.05,0.05 v 0.1 l 0.05,0.1 0.05,0.1 v 0.1 l 0.05,0.05 v 0.1 l 0.1,0.1 v 0.1 l 0.05,0.1 v 0.1 0.05 h 1.8 3.95 0.15 0.9 0.15 3.95 1.8 V 32 31.9 l 0.05,-0.1 v -0.1 l 0.1,-0.1 v -0.1 l 0.05,-0.05 v -0.1 l 0.05,-0.1 0.05,-0.1 v -0.1 L 42.6,31 v -0.1 l 0.05,-0.1 0.05,-0.1 v -0.1 l 0.05,-0.1 v -0.05 -0.1 -0.1 l 0.05,-0.1 0.05,-0.1 V 30 L 42.9,29.9 V 29.8 L 42.95,29.7 43,29.6 v -0.1 -0.05 l 0.05,-0.1 v -0.1 -0.1 -0.1 L 43.1,29 43.15,28.9 v -0.1 l 0.05,-0.1 0.05,-0.1 v -0.1 -0.05 -0.1 l 0.05,-0.1 0.05,-0.1 0.05,-0.1 V 28 l 0.05,-0.1 v -0.1 -0.1 -0.1 l 0.05,-0.1 0.05,-0.05 v -0.1 l 0.05,-0.1 0.05,-0.1 0.05,-0.1 V 27 26.9 l 0.05,-0.1 v -0.1 l 0.05,-0.1 0.05,-0.1 0.05,-0.05 0.05,-0.1 v -0.1 -0.1 L 44,26.05 V 26 l 0.05,-0.1 0.05,-0.1 v -0.1 l 0.05,-0.1 v -0.1 -0.05 l 0.1,-0.1 v -0.1 -0.1 -0.1 V 25 l 0.05,-0.1 v -0.1 l 0.05,-0.1 0.05,-0.1 v -0.1 l 0.05,-0.05 0.05,-0.1 0.05,-0.1 0.05,-0.1 v -0.1 L 44.65,24 44.7,23.9 44.75,23.8 v -0.1 -0.1 -0.1 l 0.05,-0.05 0.05,-0.1 v -0.1 -0.1 l 0.05,-0.1 V 23 L 45,22.9 v -0.1 -0.1 l 0.05,-0.1 0.05,-0.1 v -0.05 l 0.05,-0.1 0.05,-0.1 0.05,-0.1 V 22.05 22 l 0.05,-0.1 v -0.1 -0.1 l 0.05,-0.1 0.05,-0.1 0.05,-0.05 0.05,-0.1 0.05,-0.1 V 21.15 21.05 21 l 0.05,-0.1 v -0.1 l 0.05,-0.1 0.05,-0.1 0.05,-0.1 v -0.05 -0.1 l 0.05,-0.1 v -0.1 -0.1 L 45.85,20 v -0.1 l 0.05,-0.1 0.05,-0.1 0.05,-0.1 0.05,-0.1 0.05,-0.05 v -0.1 -0.1 -0.1 -0.1 L 46.15,19 v -0.1 l 0.1,-0.1 v -0.1 l 0.05,-0.1 0.05,-0.1 v -0.05 -0.1 l 0.05,-0.1 v -0.1 l 0.05,-0.1 V 18 17.9 l 0.05,-0.1 0.05,-0.1 v -0.1 -0.1 -0.05 -0.1 l 0.05,-0.1 v -0.1 l 0.05,-0.1 0.05,-0.05 0.05,-0.1 v -0.1 l 0.05,-0.1 0.05,-0.1 v -0.1 -0.05 l 0.05,-0.1 v -0.1 l 0.05,-0.1 0.05,-0.1 0.1,-0.05 0.05,-0.1 v -0.1 l 0.05,-0.1 v -0.1 -0.1 l 0.05,-0.05 V 15.4 H 44.4 42.45 40.6 39 38.45 34.8 h -4 -2.45 -1.1 -2 -0.7 v 0.05 m 6.4,9 V 23.4 q 0.1,-0.75 0.65,-1.4 l 1.15,-1.05 0.65,-0.35 h 0.75 l 1.15,0.05 0.95,0.75 0.25,0.15 0.45,-0.1 q 1.15,-0.65 2.3,-0.25 1.2,0.3 1.85,1.45 l 0.25,0.65 -0.25,1.2 Q 40.4,25.9 39,26.45 L 37.7,26.8 Q 36.9,27 36.45,27.35 L 35.35,28.1 34.8,28 34.2,27.4 32.1,26.25 31.35,25.65 31,25.15 30.95,24.45 m 8.7,-0.9 -0.1,-0.4 q -0.6,-0.6 -1.3,-0.5 l -1.15,0.7 -0.3,0.45 -0.3,0.65 q -0.45,0.5 -1.05,0.25 l -0.3,-0.35 -0.05,-0.5 0.25,-0.75 0.05,-0.2 -0.05,-0.2 -0.2,-0.3 q -0.3,-0.3 -0.95,-0.2 l -0.35,0.05 -0.5,0.3 -0.45,0.5 q -0.35,0.5 -0.4,0.95 -0.1,0.35 0.05,0.55 0.15,0.25 0.9,0.45 l 0.65,0.45 1.05,0.4 0.65,0.25 0.3,-0.2 q 0.7,-0.45 1.35,-0.65 l 0.7,-0.2 1.15,-0.7 0.3,-0.5 0.05,-0.3"
         fill="#000000"
         fill-rule="evenodd"
         stroke="none"
         id="path10" />
    </g>
    <g
       id="shape2"
       transform="translate(2,2.05)">
      <path
         d="M -0.5,-0.4 V -0.55 H 75.1 V -0.4 40.8 H -0.5 Z"
         fill="none"
         stroke="#000000"
         stroke-linecap="round"
         stroke-linejoin="round"
         stroke-width="3"
         id="path11" />
    </g>
  </defs>
</svg>
