<?xml version="1.0" encoding="UTF-8" standalone="no"?>
<svg
   ffdec:objectType="frame"
   height="44.349998"
   width="78.599998"
   version="1.1"
   id="svg14"
   sodipodi:docname="72.svg"
   xmlns:inkscape="http://www.inkscape.org/namespaces/inkscape"
   xmlns:sodipodi="http://sodipodi.sourceforge.net/DTD/sodipodi-0.dtd"
   xmlns:xlink="http://www.w3.org/1999/xlink"
   xmlns="http://www.w3.org/2000/svg"
   xmlns:svg="http://www.w3.org/2000/svg"
   xmlns:ffdec="https://www.free-decompiler.com/flash">
  <sodipodi:namedview
     id="namedview14"
     pagecolor="#ffffff"
     bordercolor="#000000"
     borderopacity="0.25"
     inkscape:showpageshadow="2"
     inkscape:pageopacity="0.0"
     inkscape:pagecheckerboard="0"
     inkscape:deskcolor="#d1d1d1"
     fit-margin-top="5"
     fit-margin-left="5"
     fit-margin-right="5"
     fit-margin-bottom="5" />
  <g
     transform="translate(2,2.05)"
     id="g3">
    <use
       ffdec:characterId="1"
       height="42.700001"
       transform="translate(-1.75,-2)"
       width="76.449997"
       xlink:href="#shape0"
       id="use1" />
    <use
       ffdec:characterId="71"
       height="40.25"
       transform="translate(2.7,0.25)"
       width="65.800003"
       xlink:href="#shape1"
       id="use2" />
    <use
       ffdec:characterId="3"
       height="44.349998"
       transform="translate(-2,-2.05)"
       width="78.599998"
       xlink:href="#shape2"
       id="use3" />
  </g>
  <defs
     id="defs14">
    <g
       id="shape0"
       transform="translate(1.75,2)">
      <path
         d="M 2.8,0 V -0.4 H 5.4 V 0 H 9.7 V 19.45 0 H 20.55 L 19.3,19.45 H 9.7 0.25 V 0 H 2.8"
         fill="#ffffff"
         fill-rule="evenodd"
         stroke="none"
         id="path3" />
      <path
         d="M 0.25,19.45 H 9.7 19.3 L 18.7,28.6 16,28.5 10.95,27.95 9.7,27.8 Q 7.45,27.6 5.85,27.75 4.05,27.9 1.5,28.6 0.75,28.8 0.25,29.15 v -9.7 m 9.45,0 v 8.35 -8.35"
         fill="#121212"
         fill-rule="evenodd"
         stroke="none"
         id="path4" />
      <path
         d="m 9.7,27.8 1.25,0.15 5.05,0.55 2.7,0.1 h 1.05 l 3.75,0.15 q 2.45,0.3 3.6,1.25 0.6,0.5 0.6,1.1 0,0.65 -0.8,1 l -1.3,0.2 -7.15,0.15 -5.6,-0.3 L 9.7,31.75 7.95,31.6 3.1,31.95 0.95,32.3 0.25,32.1 -0.35,31.55 -0.5,31.3 V 29.9 L 0.25,29.15 Q 0.75,28.8 1.5,28.6 4.05,27.9 5.85,27.75 7.45,27.6 9.7,27.8 v 3.95 -3.95"
         fill="#999999"
         fill-rule="evenodd"
         stroke="none"
         id="path5" />
      <path
         d="M 2.8,0 H 0.25 M 9.7,0 H 5.4 m 16.15,0 h 10.7 M 20.55,0 H 9.7"
         fill="none"
         stroke="#666666"
         stroke-linecap="round"
         stroke-linejoin="round"
         stroke-width="4"
         id="path6" />
      <path
         d="m 9.7,-0.4 h 65 V 40.5 H 47.05 L 45.5,40.7 27,40.65 25.95,40.5 H 9.7 -0.5 V -0.4 H 9.7 V 40.5 -0.4"
         fill="#ffffff"
         fill-rule="evenodd"
         stroke="none"
         id="path7" />
    </g>
    <g
       id="shape1"
       transform="translate(-2.7,-0.25)">
      <path
         d="m 55.8,39.5 -0.7,0.55 -1.1,0.2 q -0.65,-0.15 -1.1,-0.6 l 2.9,-0.15 m -6.35,0.15 -0.8,0.55 -1.75,0.1 Q 46.1,39.95 45.95,39.25 H 45.7 Q 44.65,39 43.45,37.95 41.55,36.4 41.5,34.6 l 0.3,-1.9 0.6,-1.1 0.75,-0.95 0.3,0.1 q 1.85,0.15 3.6,-0.85 0.35,-0.25 0.65,-0.25 l 0.15,0.05 -0.15,0.1 -1.2,0.85 -0.8,0.95 -0.6,1.1 -0.3,1.9 q 0.05,1.8 2,3.35 1.15,1.05 2.2,1.3 h 0.25 l 0.2,0.4 m -7,-9.15 -2.3,0.25 q -2.1,-0.25 -3,-2 L 36.7,27 q -0.15,-1.5 0.15,-2.3 0.3,-0.8 1.05,-1.4 0.95,-0.85 1.9,-0.85 0.65,-0.05 1.25,0.4 l 0.35,0.25 -0.2,0.2 q -0.75,0.6 -1.05,1.4 -0.3,0.8 -0.1,2.3 0.05,0.9 0.4,1.75 0.65,1.25 2,1.75 m 2.1,-4.25 1.05,0.3 0.1,0.05 L 45,26.85 44.2,27 v -0.4 l 0.35,-0.35 m 3.2,0 0.85,-1.5 h 0.05 l -2.2,-0.6 q -1.55,-0.65 -2.6,-1.9 -1.7,-1.85 -2.05,-4.1 -0.2,-1.25 0,-3.1 0.1,-1.75 0.45,-2.7 l 0.1,-0.25 v -0.05 l 0.2,-1.4 q 0.4,-1.75 1.55,-5.2 l 0.35,-0.7 Q 45,3.95 45.8,4.2 q 0.3,0.1 0.8,0.55 l 0.8,0.7 -1.5,5.2 -0.25,1.4 v 0.05 l -0.1,0.25 q -0.35,0.95 -0.45,2.7 -0.2,1.85 0,3.1 0.35,2.25 2.05,4.1 1.1,1.25 2.6,1.9 l 2.2,0.6 H 51.9 L 50.15,27.7 48.9,26.55 47.75,26.25 M 51.6,6.35 53.35,6.5 51.9,6.75 51.65,6.45 51.6,6.35 m 3.75,0 1.5,-1.1 q 1.2,-0.8 2,-0.5 0.6,0.1 0.9,0.7 l 0.05,0.1 -1.45,1.05 -0.1,0.2 -2.9,-0.45 M 32.55,24.75 32.4,24.1 v -0.2 l 0.15,-1.35 -1.35,0.05 -0.8,-0.05 -1.3,0.15 -0.2,0.05 -0.6,-0.1 q -0.45,-0.3 -0.45,-1.25 v -0.95 q 0,-0.95 0.45,-1.25 l 0.6,-0.05 h 0.2 l 1.3,0.15 0.8,-0.05 1.35,0.15 -0.15,-1.45 V 17.7 17.6 L 32.65,17 q 0.45,-0.45 1.1,-0.15 l 0.95,0.65 2.45,1.75 q 0.3,0.3 0.7,0.45 l 0.8,0.35 q 0.5,0.3 0.5,0.7 v 0.2 0.15 l -0.5,0.7 -0.8,0.35 q -0.4,0.15 -0.7,0.45 l -2.45,1.75 -0.45,0.35 -0.5,0.3 -1.1,-0.15 -0.1,-0.1 m 0,11.2 -0.15,-0.65 v -0.2 l 0.15,-1.35 -1.35,0.05 -0.8,-0.05 -1.3,0.15 -0.2,0.05 -0.6,-0.1 q -0.45,-0.3 -0.45,-1.25 v -0.95 q 0,-0.95 0.45,-1.25 l 0.6,-0.05 h 0.2 l 1.3,0.15 0.8,-0.05 1.35,0.15 -0.15,-1.45 V 28.9 28.8 l 0.25,-0.6 q 0.45,-0.45 1.1,-0.15 l 0.95,0.65 2.45,1.75 q 0.3,0.3 0.7,0.45 l 0.8,0.35 q 0.5,0.3 0.5,0.7 v 0.2 0.15 l -0.5,0.7 -0.8,0.35 q -0.4,0.15 -0.7,0.45 l -2.45,1.75 -0.45,0.35 -0.5,0.3 -1.1,-0.15 -0.1,-0.1"
         fill="#999999"
         fill-rule="evenodd"
         stroke="none"
         id="path8" />
      <path
         d="m 59.8,5.55 0.4,-0.3 q 1.2,-0.8 1.95,-0.5 0.55,0.1 0.9,0.7 l 0.5,1.1 q 1.05,3.15 1.25,5.9 0.55,1.75 0.4,3.95 -0.25,3.25 -1.85,5.2 -1.6,2.1 -4.55,2.9 l -0.6,0.15 0.35,0.7 1.55,4.05 0.7,0.05 q 1.05,0.35 1.9,1.6 0.65,1.05 0.65,2.45 0,1.35 -0.65,2.55 -1.15,2.1 -3.45,2.95 l -0.05,0.25 -0.75,0.8 -1.15,0.2 Q 56.6,40.1 56.15,39.5 l -0.1,-0.05 H 56 l -0.2,0.05 -2.9,0.15 -0.15,-0.05 -0.8,0.6 -1.75,0.1 -0.75,-0.65 -0.2,-0.4 H 49 Q 47.95,39 46.8,37.95 44.85,36.4 44.8,34.6 l 0.3,-1.9 0.6,-1.1 0.8,-0.95 1.2,-0.85 0.15,-0.1 -0.15,-0.05 q -0.3,0 -0.65,0.25 -1.75,1 -3.6,0.85 l -0.3,-0.1 -0.7,-0.15 Q 41.1,30 40.45,28.75 40.1,27.9 40.05,27 q -0.2,-1.5 0.1,-2.3 0.3,-0.8 1.05,-1.4 l 0.2,-0.2 q 0.85,-0.65 1.7,-0.65 0.65,-0.05 1.25,0.4 l 0.8,1 q 0.25,0.6 0.05,1.35 L 44.55,26.25 44.2,26.6 V 27 l 0.8,-0.15 0.7,-0.25 2.05,-0.35 1.15,0.3 1.25,1.15 1.75,-2.95 h 0.05 l -2.2,-0.6 q -1.5,-0.65 -2.6,-1.9 -1.7,-1.85 -2.05,-4.1 -0.2,-1.25 0,-3.1 0.1,-1.75 0.45,-2.7 l 0.1,-0.25 v -0.05 l 0.25,-1.4 1.5,-5.2 0.35,-0.7 q 0.55,-0.8 1.4,-0.55 l 0.8,0.55 1.65,1.6 0.05,0.1 0.25,0.3 1.45,-0.25 0.3,-0.05 1.7,-0.1 2.9,0.45 0.1,-0.2 1.45,-1.05"
         fill="#ffffff"
         fill-rule="evenodd"
         stroke="none"
         id="path9" />
      <path
         d="M 19.85,5.45 19.75,5.1 19.9,4.8 19.95,4.45 20.15,3.95 20.25,3.3 20.4,2.65 20.9,2.2 h 0.6 l 0.45,0.45 0.1,0.6 -0.65,0.9 -1.25,1.25 -0.3,0.05 M 19,2.35 Q 18.85,2.8 18.85,3.7 L 18.45,5 18.05,5.45 Q 17.65,5.6 17.5,5.05 17.35,4.85 17.3,3.7 L 16.9,2.05 q -0.05,-1.1 0.5,-1.5 l 1.25,-0.1 q 0.75,0.35 0.6,1.1 L 19,2.35 M 16.2,5.45 15.85,5.4 14.65,4.15 14,3.25 14.05,2.65 14.5,2.2 h 0.65 l 0.45,0.45 0.2,0.65 0.1,0.65 0.2,0.5 0.05,0.35 0.1,0.3 -0.05,0.35"
         fill="#000000"
         fill-rule="evenodd"
         stroke="none"
         id="path10" />
      <path
         d="M 57,6.45 61.55,6.8 61.7,6.6 63.5,5.25 q 1.2,-0.8 2,-0.5 0.55,0.1 0.9,0.7 l 0.45,1.1 q 1.05,3.15 1.3,5.9 0.45,1.75 0.35,3.95 -0.25,3.25 -1.85,5.2 -1.6,2.1 -4.6,2.9 l -0.55,0.15 0.35,0.7 1.5,4.05 0.75,0.05 q 1,0.35 1.9,1.6 0.65,1.05 0.65,2.45 0,1.35 -0.65,2.55 -1.15,2.1 -3.4,2.95 l -0.1,0.25 q -0.2,0.55 -0.75,0.8 l -1.15,0.2 Q 59.9,40.1 59.45,39.5 L 59.4,39.45 h -0.05 l -3.3,0.15 -0.75,0.6 -1.75,0.1 Q 52.7,39.95 52.6,39.25 H 52.3 Q 51.25,39 50.1,37.95 48.15,36.4 48.1,34.6 L 48.35,32.7 49,31.6 49.8,30.65 51,29.8 51.15,29.7 51,29.65 q -0.3,0 -0.65,0.25 -1.8,1 -3.55,0.85 -2.15,-0.25 -3.05,-2 -0.35,-0.85 -0.4,-1.75 -0.25,-1.5 0.1,-2.3 0.3,-0.8 1.05,-1.4 0.95,-0.85 1.9,-0.85 0.65,-0.05 1.3,0.4 0.6,0.4 0.8,1 0.2,0.6 0.05,1.35 -0.2,0.65 -0.75,1.05 L 47.45,26.6 Q 47.4,26.8 47.5,27 L 48.3,26.85 49,26.6 q 1.75,-0.7 3.2,-0.05 l 1.3,1.15 1.75,-2.95 h 0.05 l -2.25,-0.6 q -1.5,-0.65 -2.6,-1.9 -1.7,-1.85 -2.05,-4.1 -0.15,-1.25 0,-3.1 0.15,-1.75 0.45,-2.7 l 0.1,-0.25 v -0.05 l 0.25,-1.4 q 0.35,-1.75 1.5,-5.2 l 0.35,-0.7 q 0.55,-0.8 1.4,-0.55 l 0.8,0.55 1.75,1.7 0.25,0.3 1.75,-0.3 m 1.15,13.2 q -0.25,0 -0.5,0.3 l -0.6,0.4 Q 56.8,20.05 57,19.7 l 0.25,-0.3 0.1,-0.35 q -0.1,-0.3 -0.35,-0.2 l -0.4,0.2 q -1,0.75 -0.85,1.55 0.1,0.9 0.95,1.05 0.75,0.2 1.35,-0.5 0.75,0.5 1.3,0.5 0.75,0.1 1.2,-0.5 0.3,-0.4 0.2,-1.15 l -0.45,-0.95 -0.5,-0.1 q -0.3,0.1 -0.35,0.35 l 0.05,0.5 0.15,0.55 Q 59.2,20.55 58.8,20.1 l -0.65,-0.45 m -4.35,-6 q -1.45,-0.3 -2.6,0.6 -1.1,1 -1.1,2.45 0,1.6 1.35,2.5 1.35,1 2.9,0.35 1.5,-0.6 1.85,-2.2 0.35,-1.65 -0.8,-2.8 -0.65,-0.75 -1.6,-0.9 m 10.8,5.75 q 0.75,-0.4 1.25,-1.2 0.45,-0.8 0.35,-1.7 0,-0.9 -0.65,-1.6 -0.55,-0.75 -1.4,-1.05 l -1.7,-0.05 q -0.9,0.3 -1.5,0.95 v 0.1 q -0.75,0.75 -0.65,1.85 -0.05,0.95 0.5,1.75 0.45,0.75 1.4,1.1 l 2.4,-0.15"
         fill="#999999"
         fill-rule="evenodd"
         stroke="none"
         id="path11" />
      <path
         d="m 64.6,19.4 -2.4,0.15 q -0.95,-0.35 -1.4,-1.1 -0.55,-0.8 -0.5,-1.75 -0.1,-1.1 0.65,-1.85 v -0.1 q 0.6,-0.65 1.5,-0.95 l 1.7,0.05 q 0.85,0.3 1.4,1.05 0.65,0.7 0.65,1.6 0.1,0.9 -0.35,1.7 -0.5,0.8 -1.25,1.2 M 53.8,13.65 q 0.95,0.15 1.6,0.9 1.15,1.15 0.8,2.8 -0.35,1.6 -1.85,2.2 -1.55,0.65 -2.9,-0.35 -1.35,-0.9 -1.35,-2.5 0,-1.45 1.1,-2.45 1.15,-0.9 2.6,-0.6 m 4.35,6 0.65,0.45 q 0.4,0.45 0.85,0.25 L 59.5,19.8 59.45,19.3 q 0.05,-0.25 0.35,-0.35 l 0.5,0.1 0.45,0.95 q 0.1,0.75 -0.2,1.15 -0.45,0.6 -1.2,0.5 -0.55,0 -1.3,-0.5 -0.6,0.7 -1.35,0.5 Q 55.85,21.5 55.75,20.6 55.6,19.8 56.6,19.05 l 0.4,-0.2 q 0.25,-0.1 0.35,0.2 L 57.25,19.4 57,19.7 q -0.2,0.35 0.05,0.65 l 0.6,-0.4 q 0.25,-0.3 0.5,-0.3 M 23,20.9 q -1.6,-0.35 -2.2,-1.75 1.05,-0.4 1.7,-1.25 l 0.95,-1.9 0.3,-1.05 1.3,0.35 q 1.5,0.9 1.5,2.6 0.15,1.65 -1.35,2.6 -0.95,0.65 -2.2,0.4 m -9.7,0.05 -1.5,0.25 -0.65,-0.1 q -1,-0.3 -1.6,-1.2 Q 9,19 9.05,18 q 0.1,-1.1 0.8,-1.85 0.75,-0.8 1.75,-1 v 0.8 q 0.15,1.05 1,1.9 0.95,0.9 2.2,1.35 H 15 q -0.45,1.3 -1.7,1.75"
         fill="#ffffff"
         fill-rule="evenodd"
         stroke="none"
         id="path12" />
      <path
         d="M 16.45,6.45 21,6.8 21.15,6.6 22.95,5.25 q 1.15,-0.8 2,-0.5 0.55,0.1 0.85,0.7 l 0.45,1.1 q 1.1,3.15 1.3,5.9 0.55,1.75 0.4,3.95 -0.25,3.25 -1.85,5.2 -1.6,2.1 -4.6,2.9 l -0.55,0.15 0.3,0.7 1.6,4.05 0.7,0.05 q 1.05,0.35 1.85,1.6 0.7,1.05 0.7,2.45 0,1.35 -0.7,2.55 -1.1,2.1 -3.35,2.95 l -0.1,0.25 -0.75,0.8 -1.15,0.2 -1.2,-0.75 V 39.45 H 18.8 l -3.25,0.15 -0.85,0.6 -1.75,0.1 q -0.8,-0.35 -0.9,-1.05 h -0.3 Q 10.7,39 9.5,37.95 7.6,36.4 7.5,34.6 L 7.8,32.7 8.4,31.6 9.25,30.65 10.45,29.8 10.6,29.7 10.45,29.65 9.8,29.9 q -1.8,1 -3.6,0.85 -2.1,-0.25 -3,-2 L 2.75,27 q -0.2,-1.5 0.2,-2.3 0.25,-0.8 1,-1.4 0.95,-0.85 1.9,-0.85 0.65,-0.05 1.25,0.4 l 0.85,1 q 0.2,0.6 0,1.35 L 7.25,26.25 6.9,26.6 6.95,27 7.75,26.85 8.4,26.6 q 1.85,-0.7 3.25,-0.05 l 1.3,1.15 1.75,-2.95 -2.2,-0.6 Q 11,23.5 9.9,22.25 8.2,20.4 7.85,18.15 7.7,16.9 7.85,15.05 7.95,13.3 8.3,12.35 L 8.4,12.1 v -0.05 l 0.2,-1.4 Q 9,8.9 10.15,5.45 l 0.4,-0.7 Q 11,3.95 11.85,4.2 l 0.85,0.55 1.75,1.7 0.25,0.3 1.75,-0.3 M 13.3,20.95 Q 14.55,20.5 15,19.2 h -0.2 q -1.25,-0.45 -2.2,-1.35 -0.85,-0.85 -1,-1.9 v -0.8 q -1,0.2 -1.75,1 -0.7,0.75 -0.8,1.85 -0.05,1 0.5,1.9 0.6,0.9 1.6,1.2 l 0.65,0.1 1.5,-0.25 M 23,20.9 q 1.25,0.25 2.2,-0.4 1.5,-0.95 1.35,-2.6 0,-1.7 -1.5,-2.6 l -1.3,-0.35 -0.3,1.05 -0.95,1.9 q -0.65,0.85 -1.7,1.25 0.6,1.4 2.2,1.75"
         fill="#000000"
         fill-rule="evenodd"
         stroke="none"
         id="path13" />
    </g>
    <g
       id="shape2"
       transform="translate(2,2.05)">
      <path
         d="M -0.5,-0.4 V -0.55 H 75.1 V -0.4 40.8 H -0.5 Z"
         fill="none"
         stroke="#000000"
         stroke-linecap="round"
         stroke-linejoin="round"
         stroke-width="3"
         id="path14" />
    </g>
  </defs>
</svg>
