<?xml version="1.0" encoding="UTF-8" standalone="no"?>
<svg
   ffdec:objectType="frame"
   height="44.349998"
   width="78.599998"
   version="1.1"
   id="svg11"
   sodipodi:docname="258.svg"
   xmlns:inkscape="http://www.inkscape.org/namespaces/inkscape"
   xmlns:sodipodi="http://sodipodi.sourceforge.net/DTD/sodipodi-0.dtd"
   xmlns:xlink="http://www.w3.org/1999/xlink"
   xmlns="http://www.w3.org/2000/svg"
   xmlns:svg="http://www.w3.org/2000/svg"
   xmlns:ffdec="https://www.free-decompiler.com/flash">
  <sodipodi:namedview
     id="namedview11"
     pagecolor="#ffffff"
     bordercolor="#000000"
     borderopacity="0.25"
     inkscape:showpageshadow="2"
     inkscape:pageopacity="0.0"
     inkscape:pagecheckerboard="0"
     inkscape:deskcolor="#d1d1d1"
     fit-margin-top="5"
     fit-margin-left="5"
     fit-margin-right="5"
     fit-margin-bottom="5" />
  <g
     transform="translate(2,2.05)"
     id="g3">
    <use
       ffdec:characterId="1"
       height="42.700001"
       transform="translate(-1.75,-2)"
       width="76.449997"
       xlink:href="#shape0"
       id="use1" />
    <use
       ffdec:characterId="253"
       height="40.400002"
       transform="translate(2.8,1.65)"
       width="64.400002"
       xlink:href="#shape1"
       id="use2" />
    <use
       ffdec:characterId="3"
       height="44.349998"
       transform="translate(-2,-2.05)"
       width="78.599998"
       xlink:href="#shape2"
       id="use3" />
  </g>
  <defs
     id="defs11">
    <g
       id="shape0"
       transform="translate(1.75,2)">
      <path
         d="M 2.8,0 V -0.4 H 5.4 V 0 H 9.7 V 19.45 0 H 20.55 L 19.3,19.45 H 9.7 0.25 V 0 H 2.8"
         fill="#ffffff"
         fill-rule="evenodd"
         stroke="none"
         id="path3" />
      <path
         d="M 0.25,19.45 H 9.7 19.3 L 18.7,28.6 16,28.5 10.95,27.95 9.7,27.8 Q 7.45,27.6 5.85,27.75 4.05,27.9 1.5,28.6 0.75,28.8 0.25,29.15 v -9.7 m 9.45,0 v 8.35 -8.35"
         fill="#121212"
         fill-rule="evenodd"
         stroke="none"
         id="path4" />
      <path
         d="m 9.7,27.8 1.25,0.15 5.05,0.55 2.7,0.1 h 1.05 l 3.75,0.15 q 2.45,0.3 3.6,1.25 0.6,0.5 0.6,1.1 0,0.65 -0.8,1 l -1.3,0.2 -7.15,0.15 -5.6,-0.3 L 9.7,31.75 7.95,31.6 3.1,31.95 0.95,32.3 0.25,32.1 -0.35,31.55 -0.5,31.3 V 29.9 L 0.25,29.15 Q 0.75,28.8 1.5,28.6 4.05,27.9 5.85,27.75 7.45,27.6 9.7,27.8 v 3.95 -3.95"
         fill="#999999"
         fill-rule="evenodd"
         stroke="none"
         id="path5" />
      <path
         d="M 2.8,0 H 0.25 M 9.7,0 H 5.4 m 16.15,0 h 10.7 M 20.55,0 H 9.7"
         fill="none"
         stroke="#666666"
         stroke-linecap="round"
         stroke-linejoin="round"
         stroke-width="4"
         id="path6" />
      <path
         d="m 9.7,-0.4 h 65 V 40.5 H 47.05 L 45.5,40.7 27,40.65 25.95,40.5 H 9.7 -0.5 V -0.4 H 9.7 V 40.5 -0.4"
         fill="#ffffff"
         fill-rule="evenodd"
         stroke="none"
         id="path7" />
    </g>
    <g
       id="shape1"
       transform="translate(-2.8,-1.65)">
      <path
         d="m 21.35,25.9 q -0.6,0.5 -1,0.3 -0.55,-0.3 -0.1,-1.2 0.9,-1.7 2.45,-2.6 -1.75,-0.25 -3.55,0.6 -1.7,0.75 -2.9,2.2 -2,2.45 -2.8,6.75 -0.4,2.05 0.1,3.1 l 1,1.7 q 0.65,1.45 -0.3,2.7 -0.9,1.2 -2.45,1.05 -1.45,-0.15 -2.65,-1.8 L 8.65,37.95 H 8.4 l -0.85,0.1 -2.05,0.6 -1.1,0.3 -0.45,-0.1 Q 3.7,38.75 3.7,38.5 3.9,38.05 5.05,37.35 L 6,36.75 6.9,36.1 7.85,35.4 q -0.2,-1.35 0,-3.1 L 4.7,31.8 4,31.55 3.15,31.35 Q 2.9,31.2 2.8,30.85 q 0,-0.35 0.25,-0.6 0.2,-0.2 0.85,-0.3 L 4.55,29.8 h 0.9 l 2.8,-0.25 Q 8.7,27.45 9.5,25.65 L 8.5,24.2 7.85,23.55 Q 7,22.75 6.1,21.25 L 5.4,20.2 Q 5.2,19.8 5.5,19.65 5.7,19.5 6.15,19.85 L 8.1,21.1 q 1.35,0.85 2.45,1.85 l 0.25,0.25 1.3,-1.85 q 1.8,-2 4.2,-3.15 V 17.8 L 16.15,16.5 V 16 l -0.2,-0.95 -0.1,-0.95 V 12.8 L 15.9,12 15.85,11.15 15.95,10.6 q 0.1,-0.2 0.4,-0.15 l 0.35,0.15 0.25,0.2 0.15,0.4 0.2,1.5 0.3,0.9 1.6,3.6 3.35,-0.1 1.25,0.3 1.75,-2.8 0.45,-0.55 0.95,-1.6 0.55,-0.95 0.4,-0.35 q 0.25,-0.2 0.45,0 0.25,0.25 0.05,0.75 l -1.05,3.1 -0.6,2 -0.1,1.45 1.05,0.65 q 1.45,1.15 2.85,4.3 l 0.3,1 q 0,0.65 -0.55,0.8 l -1,-0.4 q -1.2,-0.85 -2.75,-1 -1.55,-0.15 -2.85,0.45 -0.9,0.4 -2.35,1.65"
         fill="#999999"
         fill-rule="evenodd"
         stroke="none"
         id="path8" />
      <path
         d="m 48.45,4.4 q 4.6,-1.15 8.35,0.5 1.5,0.65 2.7,1.8 l 1.35,-0.75 q 1,-0.55 1.8,-0.6 1.1,-0.1 1.65,0.7 l 0.35,1.3 -0.15,3.05 q -0.2,3.35 -0.95,5.1 l -0.35,0.75 q -0.25,2.25 -1.45,4.4 -1.15,2.3 -3.1,3.8 -2.15,1.75 -4.4,2.15 l -0.6,0.1 1.15,3.15 0.9,3.15 q 3.2,0.1 4.9,-0.95 -0.5,-1.05 -0.2,-2.25 0.3,-1.25 1.25,-1.95 0.95,-0.75 2.2,-0.7 1.25,0 2.15,0.8 0.9,0.85 1.15,2.35 0.25,2.15 -1.4,4.05 -1.3,1.5 -3.7,2.45 -2.3,0.9 -5.1,1.1 0.25,1.4 -0.05,2.1 -0.6,1.35 -2.15,1.45 L 53.45,41.1 53,40.75 51.6,40.8 49.05,41 47.4,41.05 46.9,41.25 45.45,41.3 44.7,41.05 Q 43.05,41.8 40.85,42 38.1,42.3 36.8,41 q -1.1,-1.1 -0.95,-3.05 0.15,-1.5 0.85,-2.6 1,-1.6 2.95,-2.5 Q 41.4,32.1 43.5,32 h 1.05 l 0.7,-2.9 0.25,-0.8 q -2.75,1.6 -7.1,3.85 -6.15,3.1 -8.35,4.4 l -1.75,0.95 -1.85,0.55 q -1.3,0.15 -2.5,-0.5 Q 22.7,36.85 22.2,35.65 21.85,34.8 21.75,33 21.65,31.05 22,29.6 q 0.4,-1.8 1.65,-2.9 0.95,-0.85 2.2,-1 l 2.4,0.3 q 1.15,0.5 1.9,1.55 0.75,1.05 0.8,2.3 L 39,26.35 Q 41.7,25.2 43.65,24.55 40.9,22.95 39.8,20.2 39,18.05 39.25,14.85 l 0.3,-2.15 0.05,-1.2 Q 39.7,10.15 39.95,9 40.65,5.85 42.6,3.4 43.3,2.45 44,2.05 q 1.05,-0.6 1.9,-0.25 0.8,0.3 1.6,1.65 l 0.6,1.05 0.35,-0.1 m 5.85,18.65 q 0.55,-0.1 0.7,-0.55 0.25,-0.45 -0.05,-0.95 -0.3,-0.4 -1.1,-0.7 l -0.35,-0.1 v -0.1 l 0.05,-0.95 q -0.2,-0.65 -0.7,-0.65 -0.45,0 -0.7,0.4 l -0.25,1 v 0.15 q -1.4,0.1 -2.4,1.05 -0.35,0.35 -0.25,0.65 0.1,0.3 0.45,0.2 l 0.5,-0.1 1.3,-0.15 1.5,0.4 q 0.95,0.5 1.3,0.4 m -4.95,-3.35 0.55,-0.5 -1.65,0.25 -2,-0.35 q -1.3,-0.45 -1.95,-1.05 -0.85,-0.7 -1.15,-1.9 l -0.1,0.25 q -0.35,1.35 0.25,2.4 l 0.5,0.75 0.45,0.45 1.05,0.6 q 1.9,0.7 3.35,-0.3 l 0.7,-0.6 m 12.15,0.15 q 0.55,-0.8 0.7,-1.6 l -1.4,1.4 -2.3,0.65 -2.4,-0.2 -0.6,-0.1 0.05,0.05 q 0.6,0.85 1.5,1.15 1.05,0.35 2.4,0 l 1.2,-0.45 0.85,-0.9 m -18,16.75 0.05,-0.1 -1.6,0.2 q -1.6,0.45 -1.85,1.35 l 3.2,0.15 0.2,-1.6 M 19.75,19.75 q 0.65,-0.45 1.45,-0.4 l 0.9,0.2 0.45,-0.05 q 1.65,0.1 2.25,1.3 0.65,1.45 -0.1,2.35 l -1.45,1.3 q -0.7,0.45 -1.2,1.15 -0.55,0.7 -1,1.7 -0.5,1.05 -0.75,2.15 L 20,32.3 q -0.05,1.65 0.7,4.05 0.2,0.9 0.55,1.45 l 0.95,1.2 0.7,0.65 0.3,0.55 -0.5,0.45 -0.65,-0.1 -1.2,-0.55 -0.65,0.7 -2.1,0.1 -0.4,-0.3 -0.2,0.05 -1.7,0.65 -1.3,-0.3 -0.5,-0.2 -0.5,0.1 -1.95,-0.05 Q 10.6,40.4 10.15,39.35 L 10,38.95 9.75,38.7 Q 8.9,37.75 8.8,36.45 L 7.85,37.3 6.6,37.65 Q 6.2,37.6 5.8,37.35 4.65,36.7 4.55,35.5 v -0.7 l 0.2,-0.7 0.5,-0.4 q 0.3,-0.05 0.5,0.25 l 0.15,0.6 0.2,0.9 q 0.3,0.4 0.65,0.25 L 7,35.45 7.9,34.35 q 0.6,-0.6 1.2,-0.75 l 0.95,0.1 q 0.6,0.2 1.1,0.8 l 0.1,0.1 1.15,-1.65 -1.3,-1.5 -0.9,-1.55 Q 9.7,28.65 9.8,27.1 9.85,25.95 10.2,24.9 9.3,24.25 9.15,23.25 9,22.7 9.1,21.6 L 9.25,20.55 Q 9.5,19.7 9.9,19.1 q 1.4,-2.5 3.7,-3 l 0.9,-0.05 q 1.1,0 1.8,0.5 0.85,0.55 1.1,1.5 v 1.4 0.3 q 0.95,0.2 1.65,0.75 l 0.7,-0.75 M 18.05,29.3 17.8,29.05 17,29 16.1,29.5 q -0.75,0.4 -0.85,0.55 v 0.65 q 0.35,0.5 0.95,0.25 l 0.6,-0.45 0.85,-0.6 0.2,-0.35 0.2,-0.25 m -4.9,-4.85 -0.2,0.9 -0.05,0.95 q 0.1,0.6 0.35,1 0.85,1.2 2.25,1.2 1.05,-0.1 1.75,-0.8 0.7,-0.8 0.85,-1.75 L 18,24.6 17.85,24.15 17.55,23.65 17.15,23.3 Q 16.45,22.8 15.1,23 l -0.4,0.05 -0.75,0.35 q -0.65,0.55 -0.8,1.05"
         fill="#000000"
         fill-rule="evenodd"
         stroke="none"
         id="path9" />
      <path
         d="m 61.5,19.85 -0.85,0.9 -1.2,0.45 q -1.35,0.35 -2.4,0 -0.9,-0.3 -1.5,-1.15 L 55.5,20 l 0.6,0.1 2.4,0.2 2.3,-0.65 1.4,-1.4 q -0.15,0.8 -0.7,1.6 m -12.15,-0.15 -0.7,0.6 q -1.45,1 -3.35,0.3 L 44.25,20 43.8,19.55 43.3,18.8 q -0.6,-1.05 -0.25,-2.4 l 0.1,-0.25 q 0.3,1.2 1.15,1.9 0.65,0.6 1.95,1.05 l 2,0.35 1.65,-0.25 -0.55,0.5 m 4.95,3.35 q -0.35,0.1 -1.3,-0.4 l -1.5,-0.4 -1.3,0.15 -0.5,0.1 q -0.35,0.1 -0.45,-0.2 -0.1,-0.3 0.25,-0.65 1,-0.95 2.4,-1.05 v -0.15 l 0.25,-1 q 0.25,-0.4 0.7,-0.4 0.5,0 0.7,0.65 l -0.05,0.95 v 0.1 l 0.35,0.1 q 0.8,0.3 1.1,0.7 0.3,0.5 0.05,0.95 -0.15,0.45 -0.7,0.55 m -41.15,1.4 q 0.15,-0.5 0.8,-1.05 L 14.7,23.05 15.1,23 q 1.35,-0.2 2.05,0.3 l 0.4,0.35 0.3,0.5 0.15,0.45 0.1,1.35 q -0.15,0.95 -0.85,1.75 -0.7,0.7 -1.75,0.8 -1.4,0 -2.25,-1.2 -0.25,-0.4 -0.35,-1 l 0.05,-0.95 0.2,-0.9 m 4.9,4.85 -0.2,0.25 -0.2,0.35 -0.85,0.6 -0.6,0.45 Q 15.6,31.2 15.25,30.7 V 30.05 Q 15.35,29.9 16.1,29.5 L 17,29 l 0.8,0.05 0.25,0.25"
         fill="#ffffff"
         fill-rule="evenodd"
         stroke="none"
         id="path10" />
    </g>
    <g
       id="shape2"
       transform="translate(2,2.05)">
      <path
         d="M -0.5,-0.4 V -0.55 H 75.1 V -0.4 40.8 H -0.5 Z"
         fill="none"
         stroke="#000000"
         stroke-linecap="round"
         stroke-linejoin="round"
         stroke-width="3"
         id="path11" />
    </g>
  </defs>
</svg>
