<?xml version="1.0" encoding="UTF-8" standalone="no"?>
<svg
   ffdec:objectType="frame"
   height="44.349998"
   width="78.599998"
   version="1.1"
   id="svg10"
   sodipodi:docname="95.svg"
   xmlns:inkscape="http://www.inkscape.org/namespaces/inkscape"
   xmlns:sodipodi="http://sodipodi.sourceforge.net/DTD/sodipodi-0.dtd"
   xmlns:xlink="http://www.w3.org/1999/xlink"
   xmlns="http://www.w3.org/2000/svg"
   xmlns:svg="http://www.w3.org/2000/svg"
   xmlns:ffdec="https://www.free-decompiler.com/flash">
  <sodipodi:namedview
     id="namedview10"
     pagecolor="#ffffff"
     bordercolor="#000000"
     borderopacity="0.25"
     inkscape:showpageshadow="2"
     inkscape:pageopacity="0.0"
     inkscape:pagecheckerboard="0"
     inkscape:deskcolor="#d1d1d1"
     fit-margin-top="5"
     fit-margin-left="5"
     fit-margin-right="5"
     fit-margin-bottom="5" />
  <g
     transform="translate(2,2.05)"
     id="g3">
    <use
       ffdec:characterId="1"
       height="42.700001"
       transform="translate(-1.75,-2)"
       width="76.449997"
       xlink:href="#shape0"
       id="use1" />
    <use
       ffdec:characterId="93"
       height="40.349998"
       transform="translate(6.05,-0.25)"
       width="58.549999"
       xlink:href="#shape1"
       id="use2" />
    <use
       ffdec:characterId="3"
       height="44.349998"
       transform="translate(-2,-2.05)"
       width="78.599998"
       xlink:href="#shape2"
       id="use3" />
  </g>
  <defs
     id="defs10">
    <g
       id="shape0"
       transform="translate(1.75,2)">
      <path
         d="M 2.8,0 V -0.4 H 5.4 V 0 H 9.7 V 19.45 0 H 20.55 L 19.3,19.45 H 9.7 0.25 V 0 H 2.8"
         fill="#ffffff"
         fill-rule="evenodd"
         stroke="none"
         id="path3" />
      <path
         d="M 0.25,19.45 H 9.7 19.3 L 18.7,28.6 16,28.5 10.95,27.95 9.7,27.8 Q 7.45,27.6 5.85,27.75 4.05,27.9 1.5,28.6 0.75,28.8 0.25,29.15 v -9.7 m 9.45,0 v 8.35 -8.35"
         fill="#121212"
         fill-rule="evenodd"
         stroke="none"
         id="path4" />
      <path
         d="m 9.7,27.8 1.25,0.15 5.05,0.55 2.7,0.1 h 1.05 l 3.75,0.15 q 2.45,0.3 3.6,1.25 0.6,0.5 0.6,1.1 0,0.65 -0.8,1 l -1.3,0.2 -7.15,0.15 -5.6,-0.3 L 9.7,31.75 7.95,31.6 3.1,31.95 0.95,32.3 0.25,32.1 -0.35,31.55 -0.5,31.3 V 29.9 L 0.25,29.15 Q 0.75,28.8 1.5,28.6 4.05,27.9 5.85,27.75 7.45,27.6 9.7,27.8 v 3.95 -3.95"
         fill="#999999"
         fill-rule="evenodd"
         stroke="none"
         id="path5" />
      <path
         d="M 2.8,0 H 0.25 M 9.7,0 H 5.4 m 16.15,0 h 10.7 M 20.55,0 H 9.7"
         fill="none"
         stroke="#666666"
         stroke-linecap="round"
         stroke-linejoin="round"
         stroke-width="4"
         id="path6" />
      <path
         d="m 9.7,-0.4 h 65 V 40.5 H 47.05 L 45.5,40.7 27,40.65 25.95,40.5 H 9.7 -0.5 V -0.4 H 9.7 V 40.5 -0.4"
         fill="#ffffff"
         fill-rule="evenodd"
         stroke="none"
         id="path7" />
    </g>
    <g
       id="shape1"
       transform="translate(-6.05,0.25)">
      <path
         d="m 21.05,30.75 -1.25,-0.8 -1.75,-0.9 -1.7,-0.95 -1.1,-0.75 -1.45,-1.15 -1,-1.6 -1.45,-2.65 -0.3,-1.15 1.3,1.7 2.7,2.75 2.1,1.4 4.85,2.6 1.05,0.4 3.7,1.1 2.4,0.2 q 0.35,0 0.2,0.4 l -0.45,0.3 -1.7,0.2 -4.3,-0.45 q -1.15,-0.25 -1.85,-0.65 m 19.4,-6.5 -0.75,-0.45 -1.55,-0.1 q 1.45,0.6 2.75,2.25 l 0.7,1.15 0.9,-1.8 -1,-0.5 -1.05,-0.55 m 0.95,9.05 -0.8,1.2 -0.6,0.95 1.2,-0.05 1.25,-0.5 Q 41.9,34.15 41.5,33.1 l -0.1,0.2 M 53.25,40.05 53.2,40.1 H 46 l 3.3,-0.5 2.6,-0.95 1.25,-1.2 v -1.2 l -0.2,-1.15 q -0.1,-0.85 0.3,-0.95 0.55,-0.2 0.8,0.7 0.9,2.4 0.4,3.65 l -1.2,1.55 M 48.9,6.8 l 0.05,-0.25 -1,-0.4 0.95,0.65 m 3.05,-6.1 -3.7,-0.95 h 7.05 l 0.05,0.05 q 2.65,2.05 4.05,3.55 2.1,2.1 3.15,4.25 0.3,0.75 -0.15,0.8 L 61.95,8 Q 60.15,4.8 54.7,1.9 L 51.95,0.7 M 52.9,8.3 51.4,7.6 q 0.9,2.8 0.3,5.9 -0.4,2.2 -1.75,2.5 L 48.9,15.85 q -0.55,-0.3 -0.75,-0.8 -0.25,-0.6 0,-1.7 L 48.3,11.6 Q 48.1,10.4 46.1,9.25 39.95,5.9 34.35,6.25 31.2,6.45 28.5,7.9 25.65,9.45 24.1,12 q -0.95,1.65 -1.5,3.55 -0.35,0.9 -0.3,1.6 0.05,0.7 0.65,1.8 l 0.6,1.2 1.9,0.6 q -1.75,-0.8 -1.85,-2.95 -0.15,-1.65 1,-3.4 1.5,-2.45 4.35,-3.8 2.65,-1.3 5.75,-1.35 5.6,-0.1 10.05,3.45 0.9,0.8 1.3,1.7 0.5,1.05 -0.05,1.8 -0.8,0.95 -2.2,0.55 -0.5,-0.15 -2.1,-1.2 -3.8,-2.65 -7.55,-2.45 -2.1,0.15 -3.85,1.3 -1.8,1.2 -2.5,3.05 2.35,1.3 7.95,1.85 5.55,0.55 7.95,1.95 1.85,1.05 2.45,2.55 0.9,1.95 -0.35,3.35 2.7,3.1 2.8,5.3 0.05,2.8 -2.6,4.85 -2,1.5 -5.25,2 l -4.25,0.45 1.7,0.35 H 29.3 L 28.5,39.75 26.2,38.6 Q 22.45,37.7 18.35,36.1 14.95,34.75 13.2,33.65 10.25,31.8 7.35,28.4 q -1,-1.2 -1.2,-2.05 -0.15,-0.6 0,-1.2 0.2,-0.6 0.7,-0.9 1.35,-0.8 3.4,1.35 5.55,5.75 11.6,7.5 3.75,1.15 10.3,0.95 2.8,-0.1 4.2,-0.8 1.05,-0.5 1.65,-1.35 0.7,-0.95 0.65,-2 -0.1,-1.65 -1.7,-2.75 -1,-0.7 -3.1,-1.2 l -4.6,-0.7 -4.55,-0.8 q -5.45,-1.4 -7.4,-5.1 L 16.7,17.9 16.25,17.4 Q 15.45,16.5 14.7,14.7 L 14.15,12.55 Q 14.1,11.7 14.4,10 l 0.35,-1.65 q 0.4,-2 0.9,-2.9 0.45,-0.9 1.45,-1.95 l 1,-1.1 3.25,-2.6 0.05,-0.05 h 3 l -1.25,1 -3.55,3.2 q -1.75,1.95 -2.45,4 l -0.55,2.1 v 0.25 q 0.45,-1.65 1.3,-2.95 1.45,-2.05 4.9,-4.1 4.3,-2.5 7.6,-3.3 l 0.95,-0.2 h 8.4 q 4.45,0.7 9.7,2.8 9.1,3.5 11.4,8.95 0.3,0.7 0.25,1.35 -0.05,0.75 -0.65,1 -0.9,0.4 -2.1,-1.15 -2,-2.55 -5.45,-4.4"
         fill="#999999"
         fill-rule="evenodd"
         stroke="none"
         id="path8" />
      <path
         d="m 47.05,36.35 1.8,-1.5 0.4,-0.6 0.15,-1.15 q 0.1,-0.8 0.75,-0.8 0.4,0 0.6,0.55 l 0.1,0.85 0.2,1.25 L 50.8,36 q -0.65,1.55 -2.35,2.5 -1.15,0.7 -3.3,1.15 l -2.7,0.45 H 38.9 l -2.35,-0.15 -1.95,-0.2 -1.15,-0.7 -1.6,-1.4 4,-0.3 6.65,0.05 3.2,-0.65 1.35,-0.4 m -5.65,-25 1.3,1.15 q 1,0.8 1,1.4 l -0.35,0.6 -0.7,0.25 Q 42,14.8 41.3,14.3 l -1.15,-0.9 q -0.5,-0.35 -1.7,-0.75 l -2.2,-0.6 -3.55,-0.1 -2.2,0.2 q -1.2,0.3 -2.35,1.1 -1.85,1.35 -2.45,3.45 0.9,1 2.35,1.55 l 1.4,0.75 -2.4,0.2 q -1.5,0.2 -2.3,-0.35 l -0.85,-0.9 q -0.5,-0.7 -0.55,-1.4 -0.05,-0.75 0.4,-1.95 0.5,-1.3 0.9,-1.9 1.45,-2.35 4.6,-3.2 L 35,9.1 l 1.7,0.2 1.85,0.6 q 2,0.8 2.85,1.45 m 13.05,5.3 q -0.3,1.05 -1.65,1.25 l -2.2,0.1 -1.7,0.35 -1.7,0.2 3.15,1.55 0.95,0.6 q 0.75,0.65 0.65,1.6 l -0.35,1.4 -0.95,2.15 q 1.95,-0.95 3.1,-1.95 l 1,-0.85 q 0.6,-0.45 1.15,-0.5 0.65,-0.1 1.2,0.3 l 1.1,1.35 1.4,1 -0.95,-2.7 -0.6,-1.55 q -0.15,-1.25 1.05,-2.8 0.9,-1.2 1,-1.9 l -0.7,0.15 -0.65,0.3 -1.25,-0.05 -1.1,-0.8 -1.3,-2.4 -0.5,-0.65 q -0.3,1.7 -0.2,2.5 l 0.05,1.35 m -6.35,-6.15 0.65,0.75 -0.05,1.15 -0.8,0.85 q -1.05,0.45 -1.75,-0.3 -0.75,-0.75 -0.35,-1.7 0.35,-1 1.45,-1 l 0.3,0.05 0.55,0.2 M 13.15,30.55 q 3.8,-0.3 12.3,1.25 l 12.25,0.75 q 2.2,-0.3 2.85,-1.4 0.6,-0.95 0.1,-2.2 -0.5,-1.15 -1.55,-1.9 -1.9,-1.4 -6.45,-2.1 L 24.3,23.7 Q 21.35,23.2 20.1,22.45 17.45,20.8 17.2,17.25 17,14.5 18.65,11.3 20.4,8 23.35,5.6 26.4,3.2 30,2.25 q 6.9,-1.75 15.9,1.7 2.4,0.95 3.4,2 l 0.55,1 Q 50,7.55 49.6,7.9 L 47.95,7.85 q -8.2,-3.5 -14.9,-2.5 -3.9,0.55 -7.1,2.75 -3.4,2.35 -4.8,5.75 -0.7,1.75 -0.65,3.4 0.15,1.4 0.9,2.2 0.75,0.7 2.75,1 l 8.2,1.25 4.05,0.75 q 2.2,0.5 3.75,1.45 1.9,1.05 3,2.8 1.2,1.8 1.1,3.8 -0.25,2.35 -1.9,3.7 -1.9,1.65 -6.2,1.85 -12.15,0.45 -23,-5.5 M 56.95,2.5 Q 58.2,2.7 58.35,3.85 58.5,5 57.45,5.55 56.35,6.05 55.5,5.2 54.75,4.3 55.35,3.25 55.75,2.5 56.65,2.4 l 0.05,0.05 0.25,0.05 m -3.1,4.75 q 1.3,0.3 2.2,1.3 l 1.4,2.15 1.4,2.1 2.75,-1.05 2.45,0.15 q 0.55,0.5 0.55,1.45 l -0.3,1.6 q -1.1,3.4 -2.05,4.9 -0.4,0.6 -0.45,0.95 l 0.15,0.8 1.15,3 0.85,3.1 q 0.3,2 -0.95,2.65 -1,0.5 -2.55,-0.45 -2.35,-1.4 -4.75,-3.3 l -6.4,4.15 q -1.1,0.7 -1.8,0.6 -1.05,-0.15 -1.35,-1.45 -0.2,-0.9 0.15,-2.1 0.55,-2.5 1.9,-5 Q 45.65,21.2 42.75,20.05 41,19.4 40.8,18.5 q -0.25,-0.8 0.5,-1.55 0.6,-0.6 1.45,-0.9 2.75,-1.15 8.7,-1.65 L 51.8,9.2 q 0.1,-1.25 0.55,-1.6 0.55,-0.55 1.5,-0.35"
         fill="#000000"
         fill-rule="evenodd"
         stroke="none"
         id="path9" />
    </g>
    <g
       id="shape2"
       transform="translate(2,2.05)">
      <path
         d="M -0.5,-0.4 V -0.55 H 75.1 V -0.4 40.8 H -0.5 Z"
         fill="none"
         stroke="#000000"
         stroke-linecap="round"
         stroke-linejoin="round"
         stroke-width="3"
         id="path10" />
    </g>
  </defs>
</svg>
