<?xml version="1.0" encoding="UTF-8" standalone="no"?>
<svg
   ffdec:objectType="frame"
   height="44.349998"
   width="78.599998"
   version="1.1"
   id="svg12"
   sodipodi:docname="159.svg"
   xmlns:inkscape="http://www.inkscape.org/namespaces/inkscape"
   xmlns:sodipodi="http://sodipodi.sourceforge.net/DTD/sodipodi-0.dtd"
   xmlns:xlink="http://www.w3.org/1999/xlink"
   xmlns="http://www.w3.org/2000/svg"
   xmlns:svg="http://www.w3.org/2000/svg"
   xmlns:ffdec="https://www.free-decompiler.com/flash">
  <sodipodi:namedview
     id="namedview12"
     pagecolor="#ffffff"
     bordercolor="#000000"
     borderopacity="0.25"
     inkscape:showpageshadow="2"
     inkscape:pageopacity="0.0"
     inkscape:pagecheckerboard="0"
     inkscape:deskcolor="#d1d1d1"
     fit-margin-top="5"
     fit-margin-left="5"
     fit-margin-right="5"
     fit-margin-bottom="5" />
  <g
     transform="translate(2,2.05)"
     id="g3">
    <use
       ffdec:characterId="1"
       height="42.700001"
       transform="translate(-1.75,-2)"
       width="76.449997"
       xlink:href="#shape0"
       id="use1" />
    <use
       ffdec:characterId="159"
       height="41.200001"
       transform="translate(-0.55,-0.55)"
       width="75.650002"
       xlink:href="#shape1"
       id="use2" />
    <use
       ffdec:characterId="3"
       height="44.349998"
       transform="translate(-2,-2.05)"
       width="78.599998"
       xlink:href="#shape2"
       id="use3" />
  </g>
  <defs
     id="defs12">
    <g
       id="shape0"
       transform="translate(1.75,2)">
      <path
         d="M 2.8,0 V -0.4 H 5.4 V 0 H 9.7 V 19.45 0 H 20.55 L 19.3,19.45 H 9.7 0.25 V 0 H 2.8"
         fill="#ffffff"
         fill-rule="evenodd"
         stroke="none"
         id="path3" />
      <path
         d="M 0.25,19.45 H 9.7 19.3 L 18.7,28.6 16,28.5 10.95,27.95 9.7,27.8 Q 7.45,27.6 5.85,27.75 4.05,27.9 1.5,28.6 0.75,28.8 0.25,29.15 v -9.7 m 9.45,0 v 8.35 -8.35"
         fill="#121212"
         fill-rule="evenodd"
         stroke="none"
         id="path4" />
      <path
         d="m 9.7,27.8 1.25,0.15 5.05,0.55 2.7,0.1 h 1.05 l 3.75,0.15 q 2.45,0.3 3.6,1.25 0.6,0.5 0.6,1.1 0,0.65 -0.8,1 l -1.3,0.2 -7.15,0.15 -5.6,-0.3 L 9.7,31.75 7.95,31.6 3.1,31.95 0.95,32.3 0.25,32.1 -0.35,31.55 -0.5,31.3 V 29.9 L 0.25,29.15 Q 0.75,28.8 1.5,28.6 4.05,27.9 5.85,27.75 7.45,27.6 9.7,27.8 v 3.95 -3.95"
         fill="#999999"
         fill-rule="evenodd"
         stroke="none"
         id="path5" />
      <path
         d="M 2.8,0 H 0.25 M 9.7,0 H 5.4 m 16.15,0 h 10.7 M 20.55,0 H 9.7"
         fill="none"
         stroke="#666666"
         stroke-linecap="round"
         stroke-linejoin="round"
         stroke-width="4"
         id="path6" />
      <path
         d="m 9.7,-0.4 h 65 V 40.5 H 47.05 L 45.5,40.7 27,40.65 25.95,40.5 H 9.7 -0.5 V -0.4 H 9.7 V 40.5 -0.4"
         fill="#ffffff"
         fill-rule="evenodd"
         stroke="none"
         id="path7" />
    </g>
    <g
       id="shape1"
       transform="translate(0.55,0.55)">
      <path
         d="m 35.85,-0.55 h 14.8 L 38.9,7.9 35.85,-0.55 m 18.15,0 h 21.1 v 41.2 H 36.5 L 43.3,32.7 43.7,20.75 54,-0.55 M 29.45,40.65 H 22 l 6.45,-5.45 1,5.45 m -12.55,0 H -0.5 v -41.2 h 32.2 l -2.15,9.25 -12.3,-6.45 6.8,13.1 -15.45,9.25 12.65,4 -4.35,12.05"
         fill="#999999"
         fill-rule="evenodd"
         stroke="none"
         id="path8" />
      <path
         d="m 31.7,-0.55 h 4.15 L 38.9,7.9 50.65,-0.55 H 54 L 43.7,20.75 43.3,32.7 36.5,40.65 H 29.45 L 28.45,35.2 22,40.65 H 16.9 L 21.25,28.6 8.6,24.6 24.05,15.35 17.25,2.25 29.55,8.7 31.7,-0.55"
         fill="#ffffff"
         fill-rule="evenodd"
         stroke="none"
         id="path9" />
      <path
         d="M 65.25,22.55 64.2,26.2 q -1.05,2.65 -2.3,3.9 -1.5,1.6 -4.75,2.6 l -2.25,0.6 0.35,3.5 -0.05,2.45 -0.45,1.4 H 32.9 q -0.25,-0.6 -0.15,-1.4 0.1,-0.85 0.85,-2.15 l 0.1,-0.35 0.55,-1.05 q 1.95,-3.55 5.3,-6.15 l 1.1,-0.8 Q 38.95,26.5 37.95,23.1 37.35,20.9 37.3,19.8 37.25,17.95 37.8,16 L 38.35,14.35 36.8,14.2 Q 34.85,14 33.7,13.35 32.1,12.35 31.75,10.3 31.45,8.4 32.5,6.7 33.15,5.5 34.35,4.8 35.9,3.75 38.5,3.85 L 41.05,4.3 43.65,5.5 45,6.3 46.75,7.95 46.9,8.1 50.6,7.8 Q 50.7,6.5 51.1,5.85 L 52,4.8 q 1.95,-1.65 4.55,-1.4 2.7,0.35 4.2,2.3 l 0.85,1.25 q 1.35,2.35 1.5,4.05 0.15,1.3 -0.2,2.4 1.75,2.1 2.3,4.5 l 0.25,1.5 -0.85,0.05 q -1.15,0.45 -1.05,1.6 0.1,1.2 1.25,1.45 l 0.45,0.05 m -6.65,-1.65 -0.35,0.6 -0.05,0.4 -0.1,4.3 v 0.5 q 0.15,0.9 0.85,1.2 l 0.3,0.2 q 0.95,0.3 1.75,-0.4 0.55,-0.5 0.9,-1.55 0.25,-0.9 0.1,-1.7 l 0.15,-2.15 q 0,-0.95 -0.35,-1.5 l -0.95,-0.7 -0.05,-0.7 -0.1,-0.35 -0.2,-0.4 q -0.2,-0.35 -0.7,-0.35 -0.45,0 -0.7,0.4 -0.15,0.2 -0.15,0.75 l 0.25,0.8 -0.6,0.65 m -1.5,-5.45 q 0,0.85 0.8,1.1 h 0.05 l 0.15,0.15 q 0.4,0.35 0.95,0.3 l 1.3,-0.55 1.1,-0.2 1,-0.4 q 0.45,-0.45 0.3,-1 -0.15,-0.45 -0.8,-0.55 l -1.05,0.05 h -1.15 -0.1 q 0.15,-0.8 0.55,-1.55 0.4,-0.6 0.3,-1 0,-0.3 -0.45,-0.5 -0.35,-0.15 -0.65,0.15 l -0.3,0.5 -1.25,2 q -0.75,0.95 -0.75,1.5 m -16.95,17 h 1.15 l -0.1,0.2 -0.1,0.4 v 0.4 l 0.45,0.55 0.7,-0.1 q 0.3,-0.2 0.4,-0.8 L 42.9,32.05 42.95,31.85 42.9,31.3 42.8,30.95 42.7,30.7 q -0.3,-0.5 -1.05,-0.5 -0.45,0 -1.15,0.35 -0.95,0.3 -1,0.95 -0.1,0.7 0.65,0.95 M 48.95,29.3 48.8,29.25 48.6,29.15 47.85,29 47.6,28.9 h -1.3 l -1.4,0.15 q -0.7,0.25 -0.85,0.4 l -0.4,0.85 -0.05,1.2 -0.1,0.2 -0.05,0.45 -0.15,0.55 v 1 q 0.15,0.65 0.85,0.75 l 0.7,-0.25 q 0.4,-0.35 0.5,-1.2 l 0.25,-2 0.85,-0.2 0.65,-0.05 1.05,-0.2 0.75,-0.3 0.3,-0.5 -0.25,-0.45 M 46.35,24.25 46.4,23.55 46,23 q -0.4,-0.1 -0.55,0.3 l -0.2,0.25 -0.3,0.9 L 44.7,25 q -0.4,0.75 -0.45,1.35 -0.2,0.75 0.15,1.1 l 0.2,0.2 0.65,0.4 3.65,0.15 0.6,-0.05 Q 50.25,28 50.35,27.2 50.45,26.4 49.7,26.1 l -0.8,-0.2 -0.95,-0.1 -1.55,0.05 -0.05,-1.6 M 41.85,24 q 0.15,0.4 0.6,0.4 l 0.35,-0.05 q 0.4,-0.1 0.5,-0.6 l -0.15,-0.6 Q 42.9,22.8 42.5,22.8 l -0.1,0.05 q -0.25,0 -0.5,0.25 l -0.2,0.5 0.15,0.4 m 9.9,-9.4 -2.5,0.05 -0.15,0.4 -0.5,1.4 -0.75,1.3 -1.2,1.1 -0.2,0.15 H 46.3 q -1.2,-0.15 -1.75,0 -0.9,0.35 -0.9,1.3 0,1 0.9,1.25 0.9,0.35 1.55,-0.4 l 0.4,-0.45 0.25,-0.05 1.2,1 0.05,0.05 0.15,-0.15 Q 49.2,20.7 51.8,19.9 l 0.9,-0.2 0.75,0.05 0.95,0.05 0.15,-1.5 q 0,-1.1 -0.6,-2.1 -0.7,-1.05 -1.65,-1.4 L 51.75,14.6 M 4.65,9.2 Q 8.4,8.25 13.7,8.25 l 5.25,0.4 q 2.5,0.5 5.25,1.7 4.05,1.75 6.65,4.05 3.25,2.85 4.45,6.3 0.8,2.1 0.95,5 0.15,2.3 -0.15,3.95 -0.85,3.8 -4.15,6.15 -3.15,2.25 -7.2,2.1 -2.95,-0.1 -5.05,-1.35 -2.5,-1.45 -3.4,-4 -0.55,-1.6 -0.45,-5.45 0,-3.6 -1.2,-5.3 -1.55,-2.2 -6.1,-3.2 L 1.1,18.85 -0.55,19.7 V 11.15 Q 1.75,9.9 4.65,9.2"
         fill="#000000"
         fill-rule="evenodd"
         stroke="none"
         id="path10" />
      <path
         d="m 65.45,19.4 0.3,0.05 0.85,0.75 q 0.4,0.85 -0.05,1.55 -0.45,0.8 -1.3,0.8 L 64.8,22.5 q -1.15,-0.25 -1.25,-1.45 -0.1,-1.15 1.05,-1.6 L 65.45,19.4 M 68.3,17.95 Q 67.65,18.3 67,17.75 66.45,17.2 66.7,16.45 67.05,15.7 67.8,15.7 l 0.9,0.4 q 0.45,0.65 0.15,1.25 l -0.55,0.6 m -0.35,1 1.25,-0.95 0.4,-0.4 0.3,-0.6 0.3,-0.45 0.6,-0.65 1.5,-0.7 q 1.2,-0.15 1.8,0.9 0.5,1.15 -0.35,2 l -0.55,0.4 q -0.9,0.55 -1.8,0.7 L 70,19.35 69.4,19.75 68.85,20 68.3,20.3 h -0.65 q -0.2,0 -0.3,-0.15 L 67.3,19.8 q 0.05,-0.45 0.65,-0.85 M 57.1,15.45 q 0,-0.55 0.75,-1.5 l 1.25,-2 0.3,-0.5 q 0.3,-0.3 0.65,-0.15 0.45,0.2 0.45,0.5 0.1,0.4 -0.3,1 -0.4,0.75 -0.55,1.55 h 0.1 1.15 l 1.05,-0.05 q 0.65,0.1 0.8,0.55 0.15,0.55 -0.3,1 l -1,0.4 -1.1,0.2 -1.3,0.55 Q 58.5,17.05 58.1,16.7 L 57.95,16.55 H 57.9 q -0.8,-0.25 -0.8,-1.1 m 1.5,5.45 0.6,-0.65 -0.25,-0.8 q 0,-0.55 0.15,-0.75 0.25,-0.4 0.7,-0.4 0.5,0 0.7,0.35 l 0.2,0.4 0.1,0.35 0.05,0.7 0.95,0.7 q 0.35,0.55 0.35,1.5 L 62,24.45 q 0.15,0.8 -0.1,1.7 -0.35,1.05 -0.9,1.55 -0.8,0.7 -1.75,0.4 l -0.3,-0.2 q -0.7,-0.3 -0.85,-1.2 v -0.5 l 0.1,-4.3 0.05,-0.4 0.35,-0.6 m 9.85,3.4 -0.8,-0.25 Q 67,23.4 67.4,22.65 q 0.45,-0.8 1.3,-0.5 0.9,0.25 0.8,1.2 -0.15,0.85 -1.05,0.95 m -16.7,-9.7 0.55,0.2 q 0.95,0.35 1.65,1.4 0.6,1 0.6,2.1 L 54.4,19.8 53.45,19.75 52.7,19.7 51.8,19.9 q -2.6,0.8 -3.65,1.65 L 48,21.7 l -0.05,-0.05 -1.2,-1 -0.25,0.05 -0.4,0.45 q -0.65,0.75 -1.55,0.4 -0.9,-0.25 -0.9,-1.25 0,-0.95 0.9,-1.3 0.55,-0.15 1.75,0 h 0.15 l 0.2,-0.15 1.2,-1.1 0.75,-1.3 0.5,-1.4 0.15,-0.4 2.5,-0.05 m -9.9,9.4 -0.15,-0.4 0.2,-0.5 q 0.25,-0.25 0.5,-0.25 l 0.1,-0.05 q 0.4,0 0.65,0.35 l 0.15,0.6 q -0.1,0.5 -0.5,0.6 L 42.45,24.4 Q 42,24.4 41.85,24 m 4.5,0.25 0.05,1.6 1.55,-0.05 0.95,0.1 0.8,0.2 q 0.75,0.3 0.65,1.1 -0.1,0.8 -0.85,0.95 l -0.6,0.05 -3.65,-0.15 -0.65,-0.4 -0.2,-0.2 Q 44.05,27.1 44.25,26.35 44.3,25.75 44.7,25 l 0.25,-0.55 0.3,-0.9 0.2,-0.25 Q 45.6,22.9 46,23 l 0.4,0.55 -0.05,0.7 m 2.6,5.05 0.25,0.45 -0.3,0.5 -0.75,0.3 -1.05,0.2 -0.65,0.05 -0.85,0.2 -0.25,2 q -0.1,0.85 -0.5,1.2 l -0.7,0.25 q -0.7,-0.1 -0.85,-0.75 v -1 l 0.15,-0.55 0.05,-0.45 0.1,-0.2 0.05,-1.2 0.4,-0.85 q 0.15,-0.15 0.85,-0.4 l 1.4,-0.15 h 1.3 l 0.25,0.1 0.75,0.15 0.2,0.1 0.15,0.05 m -8.8,3.15 Q 39.4,32.2 39.5,31.5 q 0.05,-0.65 1,-0.95 0.7,-0.35 1.15,-0.35 0.75,0 1.05,0.5 l 0.1,0.25 0.1,0.35 0.05,0.55 -0.05,0.2 -0.25,1.05 q -0.1,0.6 -0.4,0.8 L 41.55,34 41.1,33.45 v -0.4 l 0.1,-0.4 0.1,-0.2 h -1.15 m 26,-3.1 q -0.8,0 -1.2,-0.65 -0.4,-0.7 -0.05,-1.4 0.45,-0.7 1.2,-0.7 0.7,0 1.1,0.55 0.4,0.5 0.25,1.15 -0.25,1.05 -1.3,1.05"
         fill="#ffffff"
         fill-rule="evenodd"
         stroke="none"
         id="path11" />
    </g>
    <g
       id="shape2"
       transform="translate(2,2.05)">
      <path
         d="M -0.5,-0.4 V -0.55 H 75.1 V -0.4 40.8 H -0.5 Z"
         fill="none"
         stroke="#000000"
         stroke-linecap="round"
         stroke-linejoin="round"
         stroke-width="3"
         id="path12" />
    </g>
  </defs>
</svg>
