<?xml version="1.0" encoding="UTF-8" standalone="no"?>
<svg
   ffdec:objectType="frame"
   height="44.5"
   width="78.599998"
   version="1.1"
   id="svg14"
   sodipodi:docname="182.svg"
   xmlns:inkscape="http://www.inkscape.org/namespaces/inkscape"
   xmlns:sodipodi="http://sodipodi.sourceforge.net/DTD/sodipodi-0.dtd"
   xmlns:xlink="http://www.w3.org/1999/xlink"
   xmlns="http://www.w3.org/2000/svg"
   xmlns:svg="http://www.w3.org/2000/svg"
   xmlns:ffdec="https://www.free-decompiler.com/flash">
  <sodipodi:namedview
     id="namedview14"
     pagecolor="#ffffff"
     bordercolor="#000000"
     borderopacity="0.25"
     inkscape:showpageshadow="2"
     inkscape:pageopacity="0.0"
     inkscape:pagecheckerboard="0"
     inkscape:deskcolor="#d1d1d1"
     fit-margin-top="5"
     fit-margin-left="5"
     fit-margin-right="5"
     fit-margin-bottom="5" />
  <g
     transform="translate(2,2.05)"
     id="g3">
    <use
       ffdec:characterId="1"
       height="42.700001"
       transform="translate(-1.75,-2)"
       width="76.449997"
       xlink:href="#shape0"
       id="use1" />
    <use
       ffdec:characterId="180"
       height="43.200001"
       transform="translate(-0.55,-0.75)"
       width="75.400002"
       xlink:href="#shape1"
       id="use2" />
    <use
       ffdec:characterId="3"
       height="44.349998"
       transform="translate(-2,-2.05)"
       width="78.599998"
       xlink:href="#shape2"
       id="use3" />
  </g>
  <defs
     id="defs14">
    <g
       id="shape0"
       transform="translate(1.75,2)">
      <path
         d="M 2.8,0 V -0.4 H 5.4 V 0 H 9.7 V 19.45 0 H 20.55 L 19.3,19.45 H 9.7 0.25 V 0 H 2.8"
         fill="#ffffff"
         fill-rule="evenodd"
         stroke="none"
         id="path3" />
      <path
         d="M 0.25,19.45 H 9.7 19.3 L 18.7,28.6 16,28.5 10.95,27.95 9.7,27.8 Q 7.45,27.6 5.85,27.75 4.05,27.9 1.5,28.6 0.75,28.8 0.25,29.15 v -9.7 m 9.45,0 v 8.35 -8.35"
         fill="#121212"
         fill-rule="evenodd"
         stroke="none"
         id="path4" />
      <path
         d="m 9.7,27.8 1.25,0.15 5.05,0.55 2.7,0.1 h 1.05 l 3.75,0.15 q 2.45,0.3 3.6,1.25 0.6,0.5 0.6,1.1 0,0.65 -0.8,1 l -1.3,0.2 -7.15,0.15 -5.6,-0.3 L 9.7,31.75 7.95,31.6 3.1,31.95 0.95,32.3 0.25,32.1 -0.35,31.55 -0.5,31.3 V 29.9 L 0.25,29.15 Q 0.75,28.8 1.5,28.6 4.05,27.9 5.85,27.75 7.45,27.6 9.7,27.8 v 3.95 -3.95"
         fill="#999999"
         fill-rule="evenodd"
         stroke="none"
         id="path5" />
      <path
         d="M 2.8,0 H 0.25 M 9.7,0 H 5.4 m 16.15,0 h 10.7 M 20.55,0 H 9.7"
         fill="none"
         stroke="#666666"
         stroke-linecap="round"
         stroke-linejoin="round"
         stroke-width="4"
         id="path6" />
      <path
         d="m 9.7,-0.4 h 65 V 40.5 H 47.05 L 45.5,40.7 27,40.65 25.95,40.5 H 9.7 -0.5 V -0.4 H 9.7 V 40.5 -0.4"
         fill="#ffffff"
         fill-rule="evenodd"
         stroke="none"
         id="path7" />
    </g>
    <g
       id="shape1"
       transform="translate(0.55,0.75)">
      <path
         d="m 58.55,40.25 -0.4,0.1 -4.3,0.85 -2.45,0.15 -1.85,-0.2 -1,-0.2 L 48.1,41 47.8,40.95 h -0.05 l -0.6,-0.2 -0.15,0.2 q -0.5,0.45 -1.3,0.45 h -0.25 q -0.6,0.55 -1.7,0.85 L 41.2,42.4 h -0.4 l -1.55,0.05 H 35.3 34.6 32.1 L 31.2,42.4 h -0.7 -0.4 l -1.85,-0.15 q -1.1,-0.3 -1.7,-0.85 H 26.3 q -0.95,0 -1.45,-0.65 l -0.5,0.2 h -0.1 -0.7 -0.05 -0.05 l -0.2,0.05 -0.8,0.15 -2.55,0.2 -1.75,-0.15 -4.3,-0.85 -0.4,-0.1 L 11.6,39.8 10.55,39.45 Q 8.85,38.8 7.5,37.65 L 5.7,35.75 5.6,35.65 4.8,34.45 Q 3.5,32.25 3.3,29.8 3.2,27.45 4.05,26.05 4.7,25 5.8,24.4 q 1.1,-0.6 2.35,-0.6 2.35,0 4.05,1.8 l 0.2,0.2 q 1.6,1.9 1.5,4.55 l -0.1,1.4 0.1,1.4 0.9,1.7 0.8,0.95 q 0.5,0.45 1.75,0.75 l 3,0.55 0.9,0.1 0.55,0.05 0.8,0.1 0.2,-0.35 0.15,-0.5 0.45,-0.7 0.1,-0.25 0.5,-1.1 0.6,-0.45 0.4,-0.1 0.25,0.05 0.35,0.3 0.1,0.25 0.05,0.15 0.25,0.05 0.65,0.5 0.05,-0.05 0.5,-0.3 1.05,0.15 q 0.5,-0.55 1.25,-0.75 l 0.8,-0.05 0.7,0.15 q 0.75,0.3 1.2,1.05 l 0.35,1.45 3.05,0.15 2.35,-0.05 h 0.25 l 1,-0.05 0.25,-0.05 Q 39.4,36.1 39.8,35.4 40.25,34.65 41,34.35 l 1.5,-0.1 1.25,0.75 q 0.2,-0.15 0.45,-0.2 l 0.6,0.05 0.5,0.3 0.05,0.05 0.3,-0.3 0.35,-0.2 h 0.05 l 0.75,-0.1 -0.05,0.15 H 46.7 q -0.25,0.45 -0.05,0.85 0.25,0.6 1.15,0.7 h 0.3 l 0.7,-0.05 0.6,1.1 0.8,-0.1 4.45,-0.7 q 1.25,-0.3 1.75,-0.75 l 0.8,-0.95 0.9,-1.7 0.1,-1.4 -0.1,-1.4 Q 58,27.7 59.6,25.8 q 1.75,-2 4.25,-2 1.25,0 2.35,0.6 1.1,0.6 1.75,1.65 0.85,1.4 0.75,3.75 -0.25,3.15 -2.3,5.85 l -1.9,2 q -1.35,1.15 -3.05,1.8 l -2.9,0.8"
         fill="#000000"
         fill-rule="evenodd"
         stroke="none"
         id="path8" />
      <path
         d="m 19.9,41.35 -2.45,-0.15 -4.3,-0.85 -0.4,-0.1 -1.85,-0.45 -0.65,0.65 h 0.05 -0.05 l -0.1,0.05 -1.25,0.3 -1,-0.35 H 4.65 L 3.5,40.4 H 3.15 L 2.85,40.35 H 2.5 2.1 L 2.05,40.4 1.95,40.45 1.85,40.55 1.7,40.6 1.6,40.7 H 1.55 L 1.4,40.75 H 1.3 L 1.05,40.8 0.75,40.75 H 0.65 L 0.45,40.7 0.3,40.6 0.15,40.5 0.05,40.45 0,40.35 -0.1,40.25 -0.2,40.2 -0.25,40.1 -0.3,40.05 -0.35,39.95 v -0.1 L -0.4,39.8 -0.45,39.7 V 39.6 L -0.5,39.55 v -0.1 -0.1 -0.05 -0.1 -0.05 -0.1 -0.1 -0.05 -0.1 -0.1 -0.05 -0.1 -0.05 -0.1 -0.1 -0.05 -0.1 -0.1 -0.05 -0.1 -0.1 -0.05 -0.1 -0.05 -0.1 -0.1 -0.05 -0.1 -0.1 -0.05 -0.1 -0.05 -0.1 -0.1 -0.05 -0.1 -0.1 -0.05 -0.1 -0.05 -0.1 -0.1 -0.05 -0.1 -0.1 -0.05 -0.1 -0.1 -0.05 -0.1 -0.05 -0.1 -0.1 -0.05 -0.1 -0.1 -0.05 -0.1 -0.05 -0.1 -0.1 -0.05 -0.1 -0.1 -0.05 -0.1 -0.1 -0.05 -0.1 -0.05 -0.1 -0.1 -0.05 -0.1 -0.1 -0.05 -0.1 -0.05 -0.1 -0.1 -0.05 -0.1 -0.1 -0.05 -0.1 -0.1 -0.05 -0.1 -0.05 -0.1 -0.1 -0.05 -0.1 -0.1 -0.05 -0.1 -0.05 -0.1 -0.1 -0.05 -0.1 -0.1 -0.05 -0.1 -0.05 -0.1 -0.1 -0.05 -0.1 -0.1 -0.05 -0.1 -0.1 -0.05 -0.1 -0.05 -0.1 -0.1 -0.05 -0.1 -0.1 -0.05 -0.1 -0.05 -0.1 -0.1 -0.05 -0.1 -0.1 -0.05 -0.1 -0.1 -0.05 -0.1 -0.05 -0.1 -0.1 -0.05 -0.1 -0.1 -0.05 -0.1 -0.05 -0.1 -0.1 -0.05 -0.1 -0.1 -0.05 -0.1 -0.1 -0.05 -0.1 -0.05 -0.1 -0.1 -0.05 -0.1 -0.1 -0.05 -0.1 -0.05 -0.1 -0.1 -0.05 -0.1 -0.1 -0.05 -0.1 -0.05 -0.1 -0.1 -0.05 -0.1 -0.1 -0.05 -0.1 -0.1 -0.05 -0.1 -0.05 -0.1 -0.1 -0.05 -0.1 -0.1 -0.05 -0.1 -0.05 -0.1 -0.1 -0.05 -0.1 -0.1 -0.05 -0.1 -0.1 -0.05 -0.1 -0.05 -0.1 -0.1 -0.05 -0.1 -0.1 -0.05 -0.1 -0.05 -0.1 -0.1 -0.05 -0.1 -0.1 -0.05 -0.1 -0.1 -0.05 -0.1 -0.05 -0.1 -0.1 -0.05 -0.1 -0.1 -0.05 -0.1 -0.05 -0.1 -0.1 -0.05 -0.1 -0.1 -0.05 -0.1 -0.05 -0.1 -0.1 -0.05 -0.1 -0.1 -0.05 -0.1 -0.1 -0.05 -0.1 -0.05 -0.1 -0.1 -0.05 -0.1 -0.1 -0.05 -0.1 -0.05 -0.1 -0.1 -0.05 -0.1 -0.1 -0.05 -0.1 l -0.05,-0.1 V 18.1 18 v -0.05 -0.1 -0.1 -0.05 -0.1 -0.1 -0.05 -0.1 -0.05 -0.1 -0.1 -0.05 -0.1 -0.1 -0.05 -0.1 -0.1 -0.05 -0.1 -0.05 -0.1 -0.1 -0.05 -0.1 -0.1 -0.05 -0.1 -0.05 -0.1 -0.1 -0.05 -0.1 -0.1 -0.05 -0.1 -0.05 -0.1 -0.1 -0.05 -0.1 -0.1 -0.05 -0.1 -0.1 -0.05 -0.1 -0.05 -0.1 -0.1 -0.05 -0.1 -0.1 -0.05 -0.1 -0.05 -0.1 -0.1 -0.05 -0.1 -0.1 -0.05 -0.1 -0.1 -0.05 -0.1 -0.05 -0.1 -0.1 V 12.4 12.3 12.2 12.15 12.05 12 11.9 11.8 11.75 11.65 11.55 11.5 11.4 11.3 11.25 11.15 11.1 11 10.9 10.85 10.75 10.65 10.6 10.5 10.45 10.35 10.25 10.2 10.1 10 9.95 9.85 9.8 9.7 9.6 9.55 9.45 9.35 9.3 9.2 9.1 9.05 8.95 8.9 8.8 8.7 8.65 8.55 8.45 8.4 8.3 8.25 8.15 8.05 8 7.9 7.8 7.75 7.65 7.55 7.5 7.4 7.35 7.25 7.15 7.1 7 6.9 6.85 6.75 6.7 6.6 6.5 6.45 6.35 6.25 6.2 6.1 6 5.95 5.85 5.8 5.7 5.6 5.55 5.45 5.35 5.3 5.2 5.15 5.05 4.95 4.9 4.8 4.7 4.65 4.55 4.5 4.4 4.3 4.25 4.15 4.05 4 3.9 3.8 3.75 3.65 3.6 3.5 3.4 3.35 3.25 3.15 3.1 3 2.95 2.85 L -0.5,2.75 V 2.7 2.6 2.5 2.45 2.35 2.25 2.2 2.1 2.05 1.95 1.85 L -0.45,1.8 V 1.7 1.6 1.55 1.45 L -0.4,1.4 V 1.3 L -0.35,1.2 V 1.15 1.05 L -0.3,0.95 V 0.9 0.8 L -0.25,0.7 V 0.65 L -0.2,0.55 -0.15,0.5 -0.1,0.4 -0.05,0.3 0,0.25 0.05,0.15 0.15,0.05 0.2,0 0.3,-0.1 0.4,-0.15 0.45,-0.2 0.5,-0.3 0.65,-0.35 0.8,-0.45 0.95,-0.5 1.05,-0.55 H 1.2 l 0.25,-0.05 1.5,0.05 h 1.55 2.4 0.3 1 L 8.8,-0.6 h 7.4 l 0.9,-0.05 h 22.05 l 5.7,-0.05 h 11.3 1.35 v -0.05 h 6.8 l 3.2,0.05 H 68 l 0.35,0.05 h 0.3 l 0.15,0.05 h 0.25 L 70,-0.55 h 1.55 l 0.45,0.05 0.3,0.05 h 0.25 l 0.25,0.05 h 0.25 l 0.2,0.05 0.15,0.05 0.2,0.05 h 0.1 l 0.05,0.05 0.2,0.05 0.2,0.1 0.1,0.05 0.1,0.1 0.05,0.1 0.1,0.05 0.05,0.1 0.05,0.1 0.05,0.05 0.05,0.1 v 0.05 l 0.05,0.1 0.05,0.1 V 0.9 1 1.1 1.15 L 74.75,1.25 74.7,1.3 v 0.1 l -0.05,0.1 -0.05,0.05 -0.05,0.1 v 0.1 L 74.5,1.8 v 0.05 0.1 0.1 0.05 0.1 0.05 0.1 0.1 L 74.45,2.5 v 0.1 0.1 0.05 0.1 0.1 0.05 0.1 0.05 0.1 0.1 0.05 0.1 0.1 0.05 0.1 L 74.5,3.8 v 0.1 0.1 0.05 0.1 0.1 0.05 0.1 0.1 0.05 0.1 0.05 0.1 0.1 0.05 0.1 0.1 0.05 0.1 0.05 0.1 l 0.05,0.1 V 5.6 5.7 5.8 5.85 5.95 6 6.1 6.2 6.25 6.35 6.45 6.5 6.6 6.7 6.75 6.85 L 74.6,6.9 v 0.1 0.1 0.05 0.1 0.1 0.05 0.1 0.05 0.1 0.1 0.05 0.1 0.1 0.05 0.1 0.1 0.05 0.1 0.05 0.1 0.1 0.05 0.1 0.1 0.05 0.1 0.05 0.1 0.1 0.05 0.1 l 0.05,0.1 v 0.05 0.1 0.1 0.05 0.1 0.05 0.1 0.1 0.05 0.1 0.1 0.05 0.1 0.05 0.1 0.1 0.05 0.1 0.1 0.05 0.1 0.05 0.1 0.1 0.05 0.1 0.1 0.05 0.1 0.1 0.05 0.1 0.05 0.1 0.1 0.05 0.1 0.1 0.05 0.1 0.05 0.1 0.1 0.05 0.1 0.1 0.05 0.1 0.1 0.05 0.1 0.05 0.1 0.1 0.05 0.1 0.1 0.05 0.1 0.05 0.1 0.1 0.05 0.1 0.1 0.05 0.1 0.1 0.05 0.1 0.05 0.1 0.1 0.05 0.1 0.1 0.05 0.1 0.05 0.1 0.1 0.05 0.1 0.1 0.05 0.1 0.05 0.1 0.1 0.05 0.1 0.1 0.05 0.1 0.1 0.05 0.1 0.05 0.1 0.1 0.05 0.1 0.1 0.05 0.1 0.05 0.1 0.1 0.05 0.1 l 0.05,0.1 v 0.05 0.1 0.1 0.05 0.1 0.05 0.1 0.1 0.05 0.1 0.1 0.05 0.1 0.05 0.1 0.1 0.05 0.1 0.1 0.05 0.1 0.1 l 0.05,0.05 v 0.1 0.05 0.1 0.1 0.05 l 0.05,0.1 v 0.1 0.05 0.1 0.05 0.1 0.1 0.05 0.1 0.1 0.05 0.1 0.05 0.1 0.1 l 0.05,0.05 v 0.1 0.1 0.05 0.1 0.1 0.05 0.1 0.05 0.1 0.1 0.05 0.1 0.1 0.05 0.1 0.05 0.1 0.1 0.05 0.1 0.1 0.05 0.1 0.1 0.05 0.1 0.05 0.1 0.1 0.05 0.1 0.1 0.05 0.1 0.05 0.1 0.1 0.05 0.1 0.1 0.05 0.1 0.1 0.05 0.1 0.05 0.1 0.1 0.05 0.1 0.1 0.05 0.1 0.05 0.1 0.1 0.05 0.1 0.1 0.05 0.1 0.05 0.1 0.1 0.05 0.1 0.1 0.05 0.1 0.1 0.05 0.1 0.05 0.1 0.1 0.05 0.1 0.1 0.05 0.1 0.05 0.1 0.1 0.05 0.1 0.1 0.05 0.1 0.1 0.05 0.1 0.05 0.1 0.1 0.05 0.1 0.1 0.05 0.1 0.05 0.1 0.1 0.05 0.1 0.1 0.05 0.1 0.1 0.05 0.1 0.05 0.1 0.1 0.05 0.1 0.1 0.05 0.1 0.05 0.1 0.1 0.05 0.1 0.1 0.05 0.1 0.05 0.1 0.1 0.05 0.1 0.1 0.05 0.1 0.1 0.05 0.1 0.05 0.1 0.1 0.05 0.1 0.1 0.05 0.1 0.05 0.1 0.1 0.05 0.1 0.1 0.05 0.1 0.1 0.05 0.1 0.05 0.1 0.1 0.05 0.1 0.1 0.05 0.1 0.05 0.1 0.1 0.05 0.1 0.1 0.05 0.1 0.1 0.05 0.1 0.05 0.1 0.1 l -0.05,0.05 v 0.1 0.1 0.05 0.1 0.05 0.1 0.1 0.05 0.1 0.1 0.05 l -0.05,0.1 v 0.05 0.1 L 74.7,38 v 0.05 0.1 0.1 l -0.05,0.05 v 0.05 l 0.05,0.1 v 0.1 l 0.05,0.05 0.05,0.1 v 0.1 0.05 0.1 0.05 0.1 0.1 l -0.05,0.05 -0.05,0.1 v 0.1 l -0.05,0.05 -0.05,0.1 v 0.05 l -0.05,0.1 -0.05,0.1 -0.1,0.05 -0.05,0.1 -0.1,0.1 -0.1,0.05 -0.15,0.1 -0.2,0.1 -0.2,0.05 h -0.25 -0.1 -0.3 -0.25 -0.2 l -0.25,-0.05 -0.2,-0.05 -0.2,-0.05 h -6.3 -1.3 -0.45 -0.55 L 61.6,40.2 h -0.55 l -0.8,0.05 H 59.1 58.55 l 2.9,-0.8 q 1.7,-0.65 3.05,-1.8 l 1.9,-2 q 2.05,-2.7 2.3,-5.85 0.1,-2.35 -0.75,-3.75 Q 67.3,25 66.2,24.4 q -1.1,-0.6 -2.35,-0.6 -2.5,0 -4.25,2 -1.6,1.9 -1.5,4.55 l 0.1,1.4 -0.1,1.4 -0.9,1.7 -0.8,0.95 q -0.5,0.45 -1.75,0.75 l -4.45,0.7 -0.8,0.1 -0.6,-1.1 -0.7,0.05 h -0.3 l 0.3,-0.05 1.65,-0.35 q 1.95,-0.6 2.9,-1.2 1.45,-0.95 3.15,-3.9 l 1.35,-2.6 0.75,-2.35 q 0.9,-3.2 0.9,-4.8 L 58.5,18.7 q -0.7,-3.3 -2.15,-4.7 -1.05,-1.05 -2.1,-0.85 -0.9,0.15 -1.35,1.1 -0.35,0.8 -0.1,1.75 l 0.75,1.95 q 1.35,3.2 0.45,6.9 -0.7,3.1 -3.05,6.25 -1.45,1.85 -2.7,2.35 -1.5,0.55 -1.65,0.65 l -0.5,0.5 -0.05,0.1 H 46 l -0.35,0.2 -0.3,0.3 -0.05,-0.05 -0.5,-0.3 -0.6,-0.05 Q 43.95,34.85 43.75,35 L 42.5,34.25 41,34.35 q -0.75,0.3 -1.2,1.05 -0.4,0.7 -0.35,1.45 l -0.25,0.05 -1,0.05 H 37.95 L 35.6,37 32.55,36.85 32.2,35.4 Q 31.75,34.65 31,34.35 L 30.3,34.2 29.5,34.25 Q 28.75,34.45 28.25,35 L 27.2,34.85 26.7,35.15 26.65,35.2 26,34.7 25.75,34.65 25.7,34.5 25.6,34.25 25.25,33.95 25.45,33.7 Q 25.9,33 25.7,32.25 25.55,31.6 24.8,31.1 L 23.4,30.3 Q 19.8,28.35 18.15,23.05 L 17.8,21.9 q -0.5,-2.3 0.2,-4.75 0.3,-1.05 0.05,-1.55 -0.4,-0.55 -1.2,-0.4 -0.55,0.2 -1.1,0.75 -0.85,0.85 -1.2,1.85 -0.3,0.75 -0.45,1.5 -0.7,3.55 0.55,7 0.55,1.6 2,4.1 l 0.9,1.3 q 1.25,1.65 3.7,2.6 l 1.5,0.4 0.45,0.05 0.1,-0.3 q 0.45,-0.55 1,-0.55 l 0.3,0.1 -0.6,0.45 -0.5,1.1 -0.1,0.25 -0.45,0.7 -0.15,0.5 -0.2,0.35 -0.8,-0.1 -0.55,-0.05 -0.9,-0.1 -3,-0.55 Q 16.1,36.25 15.6,35.8 l -0.8,-0.95 -0.9,-1.7 -0.1,-1.4 0.1,-1.4 Q 14,27.7 12.4,25.8 L 12.2,25.6 Q 10.5,23.8 8.15,23.8 6.9,23.8 5.8,24.4 4.7,25 4.05,26.05 3.2,27.45 3.3,29.8 q 0.2,2.45 1.5,4.65 l 0.8,1.2 0.1,0.1 1.8,1.9 q 1.35,1.15 3.05,1.8 l 1.05,0.35 1.85,0.45 0.4,0.1 4.3,0.85 1.75,0.15 m 31.5,0 -2.55,-0.2 -0.75,-0.15 0.45,-0.05 1,0.2 1.85,0.2 m -3.65,-0.4 H 47.05 47 l 0.15,-0.2 0.6,0.2 M 32.1,42.45 30.5,42.4 h 0.7 l 0.9,0.05 m -2,-0.05 -2.55,-0.15 q -1.1,-0.3 -1.7,-0.85 H 25.6 q -0.8,0 -1.25,-0.45 l 0.5,-0.2 q 0.5,0.65 1.45,0.65 h 0.25 q 0.6,0.55 1.7,0.85 L 30.1,42.4 M 23.5,40.95 23.25,41 23.45,40.95 H 23.5 M 24.15,10.55 26.9,9.4 29.55,7.95 Q 32.35,6.6 36,6.45 L 42.65,6.8 47.3,7.5 49.2,7.45 Q 49.9,6.9 49.5,5.85 49.2,5.2 48.3,4.6 45.2,2.45 39.6,1.8 32.15,1.1 27.45,3.5 25.25,4.65 24.2,6.15 22.8,8.25 23.5,10.2 l 0.2,0.3 0.45,0.05"
         fill="#999999"
         fill-rule="evenodd"
         stroke="none"
         id="path9" />
      <path
         d="m 24.6,34 -0.3,-0.1 q -0.55,0 -1,0.55 l -0.1,0.3 -0.45,-0.05 -1.5,-0.4 q -2.45,-0.95 -3.7,-2.6 l -0.9,-1.3 q -1.45,-2.5 -2,-4.1 -1.25,-3.45 -0.55,-7 0.15,-0.75 0.45,-1.5 0.35,-1 1.2,-1.85 0.55,-0.55 1.1,-0.75 0.8,-0.15 1.2,0.4 0.25,0.5 -0.05,1.55 -0.7,2.45 -0.2,4.75 l 0.35,1.15 q 1.65,5.3 5.25,7.25 l 1.4,0.8 q 0.75,0.5 0.9,1.15 0.2,0.75 -0.25,1.45 L 25.25,33.95 25,33.9 24.6,34 m 21.45,0.7 0.05,-0.1 0.5,-0.5 q 0.15,-0.1 1.65,-0.65 1.25,-0.5 2.7,-2.35 2.35,-3.15 3.05,-6.25 0.9,-3.7 -0.45,-6.9 L 52.8,16 q -0.25,-0.95 0.1,-1.75 0.45,-0.95 1.35,-1.1 1.05,-0.2 2.1,0.85 1.45,1.4 2.15,4.7 l 0.3,2.35 q 0,1.6 -0.9,4.8 l -0.75,2.35 -1.35,2.6 q -1.7,2.95 -3.15,3.9 -0.95,0.6 -2.9,1.2 l -1.65,0.35 -0.3,0.05 q -0.9,-0.1 -1.15,-0.7 -0.2,-0.4 0.05,-0.85 h 0.05 L 46.8,34.6 46.05,34.7 M 24.15,10.55 23.7,10.5 23.5,10.2 q -0.7,-1.95 0.7,-4.05 1.05,-1.5 3.25,-2.65 4.7,-2.4 12.15,-1.7 5.6,0.65 8.7,2.8 0.9,0.6 1.2,1.25 0.4,1.05 -0.3,1.6 L 47.3,7.5 42.65,6.8 36,6.45 Q 32.35,6.6 29.55,7.95 L 26.9,9.4 24.15,10.55"
         fill="#ffffff"
         fill-rule="evenodd"
         stroke="none"
         id="path10" />
      <path
         d="m 18.55,31.45 -0.6,-0.85 q -2.65,-4 -2.5,-8.7 0.05,-2.1 0.85,-4.95 l -0.15,-0.1 Q 15.4,16.5 14.35,14.9 L 12.9,12.5 Q 12.05,11.2 11.85,10.4 11.5,9.05 12.15,8.1 L 13.7,7 q 4.4,-2.15 8.15,-2.55 l 1.85,-0.15 3.15,-0.25 1.7,0.15 3.3,-0.6 4.7,-0.2 4.4,0.2 q 3.3,0.4 6,1.45 l 1.5,-0.05 4.2,0.1 2.3,0.25 3.9,1 q 1.5,0.55 1.95,1.25 0.65,0.85 0.1,2 l -0.8,1.15 -3.5,3.75 -0.65,0.55 q 1.35,4.15 1.4,6.85 0.15,4.7 -2.5,8.7 l -0.45,0.7 -0.2,0.2 -0.35,0.45 -1.55,1.6 0.8,-2.8 0.35,-2.55 q 0.3,-3.45 0.1,-5.1 l -0.5,-2.55 -0.45,-1.35 0.2,-0.9 -0.05,-1.5 -0.3,-1.5 q -0.7,-2.15 -2.5,-3.35 l -1.35,-0.7 -1.75,-0.5 Q 45.1,10.6 43.9,11.8 L 43,12.85 q -0.7,0.95 -0.95,1.8 -0.5,1.5 0.05,3.1 0.4,1.4 1.7,2.6 1.2,1.05 2.55,1.5 V 22 l 0.8,4.8 0.25,4.85 q -0.1,1.55 -0.5,2.4 l -0.65,1.55 q -0.15,0.6 0.1,1.15 l -2.9,0.65 -4.3,0.4 -2.9,-0.15 -2.6,0.15 -4.3,-0.4 -4.3,-1.1 -0.15,-0.05 -0.7,-0.3 -1.05,-0.5 0.15,0.05 0.2,0.1 0.2,-1.35 -0.1,-3.55 q -0.05,-2.2 0.2,-3.55 0.15,-0.95 0.45,-1.75 0.55,-1.85 1.25,-3.3 l 0.15,-0.05 q 1.75,-0.3 3.35,-1.7 1.3,-1.2 1.7,-2.6 0.55,-1.6 0.05,-3.1 L 29.8,12.85 28.9,11.8 q -1.2,-1.2 -2.95,-1.05 l -1.75,0.5 -1.35,0.7 q -1.8,1.2 -2.5,3.35 l -0.3,1.5 v 0.15 L 20,17.55 v 0.05 q -0.6,0.7 -1.1,2.35 l -0.5,1.95 q -0.35,1.6 -0.25,4.2 l 0.1,2.25 0.2,1.15 0.1,1.35 v 0.6 m 29.9,-9.3 1.4,-0.25 -0.45,0.15 h -0.15 l -0.8,0.1 m -7.8,-12.6 q -0.55,0.2 -0.7,0.65 l -0.1,0.4 q 0,0.85 0.8,1.15 0.8,0.25 1.3,-0.4 0.55,-0.7 0,-1.35 Q 41.4,9.3 40.65,9.55 M 29.6,29.9 q 0.25,1.15 0.95,1.85 0.85,0.8 2.1,0.7 1.05,-0.05 2.05,-0.75 1.05,-0.7 1.4,-0.65 l 0.15,0.05 v 0.15 l 0.2,-0.1 0.1,-0.05 0.15,-0.05 q 0.35,-0.05 1.4,0.65 1,0.7 2.05,0.75 1.25,0.1 2.1,-0.7 L 43.2,29.9 q 0.45,-1.9 -0.35,-3.8 -0.6,-1.65 -2.1,-3.25 -1.4,-1.5 -2.7,-1.8 L 37.8,19.65 Q 37.4,19 36.75,18.7 l -0.2,-0.1 h -0.1 l -0.2,-0.05 v 0.1 l -0.2,0.05 Q 35.4,19 35,19.65 q -0.35,0.7 -0.25,1.4 -1.3,0.3 -2.7,1.8 -1.5,1.6 -2.1,3.25 -0.8,1.9 -0.35,3.8 M 38.35,9.1 Q 38.9,9.55 39.6,9.3 40.3,9.15 40.45,8.45 40.7,7.45 39.9,6.9 L 38.3,7 q -0.75,0.7 -0.35,1.6 l 0.4,0.5 m -0.45,6.5 0.95,-0.55 0.65,-0.9 0.3,-0.5 0.15,-0.45 Q 40.2,12 39.35,10.9 38.55,9.8 37,9.7 35.25,9.6 34.25,10.85 l -0.45,0.6 -0.15,0.5 q -0.3,1.25 0.3,2.35 0.65,0.95 1.75,1.35 L 37.9,15.6 M 33.6,8.95 Q 33.15,8.55 32.5,8.75 31.9,9 31.75,9.6 v 0.25 q -0.1,0.9 0.85,1.2 1,0.2 1.35,-0.65 L 34,9.6 33.6,8.95 M 34.85,9 35.8,9.15 q 0.5,-0.05 0.8,-0.4 l 0.3,-0.9 Q 36.95,7.35 36.6,7 36.3,6.6 35.8,6.55 L 34.9,6.7 34.3,7.4 q -0.15,0.5 0,0.95 l 0.2,0.3 0.35,0.35"
         fill="#000000"
         fill-rule="evenodd"
         stroke="none"
         id="path11" />
      <path
         d="m 20,17.6 v -0.05 l 0.05,-0.6 V 16.8 l 0.3,-1.5 q 0.7,-2.15 2.5,-3.35 l 1.35,-0.7 1.75,-0.5 Q 27.7,10.6 28.9,11.8 l 0.9,1.05 0.95,1.8 q 0.5,1.5 -0.05,3.1 -0.4,1.4 -1.7,2.6 -1.6,1.4 -3.35,1.7 L 25.5,22.1 q -1.55,0.25 -2.95,-0.4 L 22,21.4 21.8,21.25 21.75,21.2 21,20.6 20,18.3 V 18.2 18.15 17.6 m 26.35,4.25 Q 45,21.4 43.8,20.35 q -1.3,-1.2 -1.7,-2.6 -0.55,-1.6 -0.05,-3.1 0.25,-0.85 0.95,-1.8 l 0.9,-1.05 q 1.2,-1.2 2.95,-1.05 l 1.75,0.5 1.35,0.7 q 1.8,1.2 2.5,3.35 l 0.3,1.5 0.05,1.5 -0.2,0.9 v -0.05 l -0.25,0.65 -1.4,1.5 -0.15,0.1 -0.95,0.5 -1.4,0.25 -0.95,-0.05 h -0.05 l -0.3,-0.05 -0.8,-0.2 M 29.6,29.9 q -0.45,-1.9 0.35,-3.8 0.6,-1.65 2.1,-3.25 1.4,-1.5 2.7,-1.8 -0.1,-0.7 0.25,-1.4 0.4,-0.65 1.05,-0.95 l 0.2,-0.05 v -0.1 l 0.2,0.05 h 0.1 l 0.2,0.1 q 0.65,0.3 1.05,0.95 l 0.25,1.4 q 1.3,0.3 2.7,1.8 1.5,1.6 2.1,3.25 0.8,1.9 0.35,3.8 l -0.95,1.85 q -0.85,0.8 -2.1,0.7 Q 39.1,32.4 38.1,31.7 37.05,31 36.7,31.05 l -0.15,0.05 -0.1,0.05 -0.2,0.1 V 31.1 L 36.1,31.05 Q 35.75,31 34.7,31.7 q -1,0.7 -2.05,0.75 -1.25,0.1 -2.1,-0.7 -0.7,-0.7 -0.95,-1.85"
         fill="#ffffff"
         fill-rule="evenodd"
         stroke="none"
         id="path12" />
      <path
         d="M 52.3,33.55 51.9,33.9 50.45,35 48.1,36.15 48,36.25 47.8,36.3 h -0.05 l -0.05,0.05 -1.35,0.4 Q 46.1,36.2 46.25,35.6 l 0.65,-1.55 q 0.4,-0.85 0.5,-2.4 L 47.15,26.8 46.35,22 v -0.15 l 0.8,0.2 0.3,0.05 h 0.05 l 0.95,0.05 0.8,-0.1 h 0.15 l 0.45,-0.15 0.95,-0.5 0.15,-0.1 1.4,-1.5 0.25,-0.65 v 0.05 l 0.45,1.35 0.5,2.55 q 0.2,1.65 -0.1,5.1 l -0.35,2.55 -0.8,2.8 m -29.15,1.9 -3.05,-2.25 -1.15,-1.25 -0.4,-0.5 v -0.6 l -0.1,-1.35 -0.2,-1.15 -0.1,-2.25 q -0.1,-2.6 0.25,-4.2 l 0.5,-1.95 Q 19.4,18.3 20,17.6 v 0.55 0.05 0.1 l 1,2.3 0.75,0.6 0.05,0.05 0.2,0.15 0.55,0.3 q 1.4,0.65 2.95,0.4 -0.7,1.45 -1.25,3.3 -0.3,0.8 -0.45,1.75 -0.25,1.35 -0.2,3.55 l 0.1,3.55 -0.2,1.35 -0.2,-0.1 -0.15,-0.05 m 17.5,-25.9 q 0.75,-0.25 1.3,0.45 0.55,0.65 0,1.35 -0.5,0.65 -1.3,0.4 -0.8,-0.3 -0.8,-1.15 l 0.1,-0.4 Q 40.1,9.75 40.65,9.55 M 34.85,9 34.5,8.65 34.3,8.35 Q 34.15,7.9 34.3,7.4 l 0.6,-0.7 0.9,-0.15 q 0.5,0.05 0.8,0.45 0.35,0.35 0.3,0.85 l -0.3,0.9 Q 36.3,9.1 35.8,9.15 L 34.85,9 M 33.6,8.95 34,9.6 33.95,10.4 q -0.35,0.85 -1.35,0.65 -0.95,-0.3 -0.85,-1.2 V 9.6 Q 31.9,9 32.5,8.75 q 0.65,-0.2 1.1,0.2 m 4.3,6.65 -2.2,0.05 q -1.1,-0.4 -1.75,-1.35 -0.6,-1.1 -0.3,-2.35 l 0.15,-0.5 0.45,-0.6 q 1,-1.25 2.75,-1.15 1.55,0.1 2.35,1.2 0.85,1.1 0.6,2.3 l -0.15,0.45 -0.3,0.5 -0.65,0.9 -0.95,0.55 M 38.35,9.1 37.95,8.6 Q 37.55,7.7 38.3,7 L 39.9,6.9 Q 40.7,7.45 40.45,8.45 40.3,9.15 39.6,9.3 38.9,9.55 38.35,9.1"
         fill="#999999"
         fill-rule="evenodd"
         stroke="none"
         id="path13" />
    </g>
    <g
       id="shape2"
       transform="translate(2,2.05)">
      <path
         d="M -0.5,-0.4 V -0.55 H 75.1 V -0.4 40.8 H -0.5 Z"
         fill="none"
         stroke="#000000"
         stroke-linecap="round"
         stroke-linejoin="round"
         stroke-width="3"
         id="path14" />
    </g>
  </defs>
</svg>
