<?xml version="1.0" encoding="UTF-8" standalone="no"?>
<svg
   ffdec:objectType="frame"
   height="44.349998"
   width="78.599998"
   version="1.1"
   id="svg12"
   sodipodi:docname="249.svg"
   xmlns:inkscape="http://www.inkscape.org/namespaces/inkscape"
   xmlns:sodipodi="http://sodipodi.sourceforge.net/DTD/sodipodi-0.dtd"
   xmlns:xlink="http://www.w3.org/1999/xlink"
   xmlns="http://www.w3.org/2000/svg"
   xmlns:svg="http://www.w3.org/2000/svg"
   xmlns:ffdec="https://www.free-decompiler.com/flash">
  <sodipodi:namedview
     id="namedview12"
     pagecolor="#ffffff"
     bordercolor="#000000"
     borderopacity="0.25"
     inkscape:showpageshadow="2"
     inkscape:pageopacity="0.0"
     inkscape:pagecheckerboard="0"
     inkscape:deskcolor="#d1d1d1"
     fit-margin-top="5"
     fit-margin-left="5"
     fit-margin-right="5"
     fit-margin-bottom="5" />
  <g
     transform="translate(2,2.05)"
     id="g3">
    <use
       ffdec:characterId="1"
       height="42.700001"
       transform="translate(-1.75,-2)"
       width="76.449997"
       xlink:href="#shape0"
       id="use1" />
    <use
       ffdec:characterId="244"
       height="41.349998"
       transform="translate(1.95,0.5)"
       width="73.050003"
       xlink:href="#shape1"
       id="use2" />
    <use
       ffdec:characterId="3"
       height="44.349998"
       transform="translate(-2,-2.05)"
       width="78.599998"
       xlink:href="#shape2"
       id="use3" />
  </g>
  <defs
     id="defs12">
    <g
       id="shape0"
       transform="translate(1.75,2)">
      <path
         d="M 2.8,0 V -0.4 H 5.4 V 0 H 9.7 V 19.45 0 H 20.55 L 19.3,19.45 H 9.7 0.25 V 0 H 2.8"
         fill="#ffffff"
         fill-rule="evenodd"
         stroke="none"
         id="path3" />
      <path
         d="M 0.25,19.45 H 9.7 19.3 L 18.7,28.6 16,28.5 10.95,27.95 9.7,27.8 Q 7.45,27.6 5.85,27.75 4.05,27.9 1.5,28.6 0.75,28.8 0.25,29.15 v -9.7 m 9.45,0 v 8.35 -8.35"
         fill="#121212"
         fill-rule="evenodd"
         stroke="none"
         id="path4" />
      <path
         d="m 9.7,27.8 1.25,0.15 5.05,0.55 2.7,0.1 h 1.05 l 3.75,0.15 q 2.45,0.3 3.6,1.25 0.6,0.5 0.6,1.1 0,0.65 -0.8,1 l -1.3,0.2 -7.15,0.15 -5.6,-0.3 L 9.7,31.75 7.95,31.6 3.1,31.95 0.95,32.3 0.25,32.1 -0.35,31.55 -0.5,31.3 V 29.9 L 0.25,29.15 Q 0.75,28.8 1.5,28.6 4.05,27.9 5.85,27.75 7.45,27.6 9.7,27.8 v 3.95 -3.95"
         fill="#999999"
         fill-rule="evenodd"
         stroke="none"
         id="path5" />
      <path
         d="M 2.8,0 H 0.25 M 9.7,0 H 5.4 m 16.15,0 h 10.7 M 20.55,0 H 9.7"
         fill="none"
         stroke="#666666"
         stroke-linecap="round"
         stroke-linejoin="round"
         stroke-width="4"
         id="path6" />
      <path
         d="m 9.7,-0.4 h 65 V 40.5 H 47.05 L 45.5,40.7 27,40.65 25.95,40.5 H 9.7 -0.5 V -0.4 H 9.7 V 40.5 -0.4"
         fill="#ffffff"
         fill-rule="evenodd"
         stroke="none"
         id="path7" />
    </g>
    <g
       id="shape1"
       transform="translate(-1.95,-0.5)">
      <path
         d="m 22.7,2.15 q 4.3,-0.1 6.7,1.45 1.55,1 2.9,3.1 0.35,-0.2 0.8,-0.35 1.65,-0.6 3.5,-0.85 3.65,-2.35 9.15,-4.15 l 2.1,-0.6 5.4,-0.2 1.6,0.15 q 1.85,0.25 5.7,1.7 l 1.2,0.55 q 1.65,0.8 2.75,2.1 1.2,1.45 1.35,3.15 L 65.8,10 65.55,11.45 q -0.35,1.1 -1.35,2.1 l -1.25,0.8 -1.2,0.2 -2.15,-0.35 q -1.5,-0.65 -2,-2.35 -0.45,-1.5 0.2,-3.1 L 58.1,7.6 q 0,-0.6 -0.65,-1.25 -0.95,-0.9 -3,-1.2 L 52.4,4.95 49.3,4.85 q -2,0.1 -4.95,0.95 l -0.3,0.1 0.2,0.05 2.85,0.75 q 5.75,2 9.55,6.8 l 1.85,2.7 q 1.7,2.9 2.25,4.5 1.05,2.75 0.85,5.7 L 62.2,25.15 62.55,22 q 0.15,-2.6 1.15,-4.85 1.1,-2.45 2.95,-3.95 l 0.95,-0.65 1.3,-0.4 2.3,-0.55 Q 73,11.1 73.8,10.45 L 75,8.75 v 7.05 q -2.1,0.95 -5.15,1.15 l -1.05,0.2 q -0.35,0.2 -0.6,0.55 -1.25,1.6 -1.85,5.15 l -0.2,1.05 q -0.4,2.3 -1,3.25 l -1.6,1.8 -0.8,0.7 L 60.3,31 q -1.25,2.05 -3.75,3.5 l 1.05,0.45 3,0.5 2.6,0.05 q 2.15,-0.35 4.5,-2.7 l 0.4,-0.55 0.1,-0.6 -0.5,-3 q -0.45,-1.9 -0.15,-3 0.25,-1.05 1.05,-1.8 0.8,-0.75 1.8,-1 l 2.05,0.1 q 1.05,0.3 1.75,1.1 l 0.8,1.4 v 5.5 l -0.55,1.55 -0.7,1.35 -0.8,1.15 q -2.05,2.65 -4.4,4.05 -2.75,1.7 -5.65,1.7 L 59.95,40.5 58.05,40.15 54.5,38.6 52.3,36.95 51.2,35.9 50.55,35.8 q -2.85,-0.45 -4.9,-2.85 l -0.7,-0.9 q -0.2,1.75 0.3,3.3 l 0.7,2.4 q 0.1,1 -0.5,1.85 -0.55,0.9 -1.5,1.25 l -1.9,0.05 Q 41,40.65 40.4,39.85 39.9,39.2 39.55,37.9 l -0.5,-2.6 q -0.35,-2.9 0.8,-6.1 0.9,-2.45 2.5,-4.6 v -0.05 l -0.6,-1.9 -1.4,-3.9 -1.25,-2.5 -0.05,-0.15 -0.15,0.85 -0.25,0.45 -1.15,1.8 -1.2,1.3 q -0.8,0.55 -1.7,0.35 -0.45,-0.1 -0.75,-0.35 l -0.5,0.2 -1.45,-0.15 -0.95,1.05 -1.9,2 q -0.95,0.8 -2.6,1.6 l -1.6,0.65 -1.8,0.45 -1.9,0.2 -2.75,1.55 q -2.35,1.5 -3.2,2.3 l -1.7,1.9 -0.95,1.1 2.3,-0.2 1.55,-1.05 q 1,-0.85 1.55,-1.1 l 3.35,0.15 q 0.75,0.5 1.15,1.3 0.4,0.85 0.3,1.7 -0.2,1.7 -2.25,3.2 l -1.85,1.1 -1.8,0.45 -4.6,0.4 Q 9.6,39.05 8.2,37.3 7.3,36.05 7.3,34.35 q 0.05,-1.5 1.05,-2.9 0.55,-0.8 2.05,-2.1 l 1.4,-1.1 1.85,-1.1 3.3,-1.55 -0.3,-0.15 Q 15,24.6 13.85,23.2 L 12,23.15 10.75,22.95 Q 9.05,22.75 8.5,22.2 7.65,21.35 8.05,20.25 l 0.4,-0.8 2.7,-3.85 0.05,-0.8 q 0.25,-2.85 1.95,-5.95 L 12.7,6.55 V 5 L 12.55,4.15 q -0.1,-0.6 0.25,-1.2 0.3,-0.55 0.9,-0.8 L 14.6,2 l 1.35,0.05 2.3,0.45 1.1,0.3 1.6,-0.5 1.75,-0.15 m -1.95,21.6 q 0.9,-0.2 1.6,-0.85 0.65,-0.7 0.85,-1.6 0.25,-0.9 -0.1,-1.8 -0.3,-0.95 -1,-1.5 l -0.85,-0.5 -0.1,0.15 -0.75,0.85 q -1.1,1.1 -2.3,1.45 l -1.35,0.15 -0.05,0.3 q -0.05,0.95 0.45,1.75 0.45,0.85 1.3,1.3 l 2.3,0.3 M 25.95,8.4 q -1,-1.45 -2.75,-1.55 -1.8,0 -2.75,1.45 l -0.15,0.25 0.35,0.55 1.45,2.6 0.45,1.7 q 1.75,0.35 2.95,-0.95 l 0.15,-0.2 0.65,-1.05 Q 26.75,9.7 25.95,8.4"
         fill="#999999"
         fill-rule="evenodd"
         stroke="none"
         id="path8" />
      <path
         d="m 25.95,8.4 q 0.8,1.3 0.35,2.8 l -0.65,1.05 -0.15,0.2 q -1.2,1.3 -2.95,0.95 L 22.1,11.7 20.65,9.1 20.3,8.55 20.45,8.3 q 0.95,-1.45 2.75,-1.45 1.75,0.1 2.75,1.55 m -5.2,15.35 -2.3,-0.3 Q 17.6,23 17.15,22.15 16.65,21.35 16.7,20.4 l 0.05,-0.3 1.35,-0.15 q 1.2,-0.35 2.3,-1.45 l 0.75,-0.85 0.1,-0.15 0.85,0.5 q 0.7,0.55 1,1.5 0.35,0.9 0.1,1.8 -0.2,0.9 -0.85,1.6 -0.7,0.65 -1.6,0.85"
         fill="#ffffff"
         fill-rule="evenodd"
         stroke="none"
         id="path9" />
      <path
         d="m 36.95,12.75 h 1 l 1.25,0.15 q 0.2,-0.75 0.75,-1.55 L 41,10.1 q 1.2,-1.05 3,-0.9 1.65,0.25 2.7,1.6 l 0.9,2.05 q 0.5,1.85 0.2,2.85 -0.3,1.05 -1.15,1.75 L 46.5,17.6 q 0.8,0.15 1.5,0.8 0.85,0.8 1.5,2.35 1.15,2.75 0.7,4.85 l -0.45,1.45 -0.55,1.3 q -1.4,3.2 -4.75,4.5 l -1.35,0.35 -0.8,0.05 0.05,0.05 0.9,1.65 0.25,0.8 q 0.7,-0.9 1.35,-1.3 1.95,-1.25 4.7,-0.55 l 0.85,0.05 0.7,-0.55 q 0.85,-1.25 0.85,-4.2 0,-0.55 0.3,-0.6 0.3,-0.1 0.45,0.45 l 0.45,2.4 v 1.25 l -0.3,0.95 q -0.75,1.65 -1.8,2.2 L 49,36.3 q -1.4,0.1 -2.05,0.5 -0.65,0.5 -1.25,1.8 l -1.1,1.95 Q 44.2,41 43.65,41.15 L 42.95,41.2 42.2,41.05 42,41.1 40.3,41.15 39.2,40.6 q -1.05,0.6 -2.6,0.7 h -3.25 l -1.75,0.15 h -0.9 l -0.1,0.05 q -0.4,0.35 -1,0.35 l -1.1,-0.3 q -1.05,-0.7 -0.95,-1.9 l 0.5,-2.9 0.8,-2.15 0.7,-1.15 L 29,33.25 28.55,33.05 28.3,32.9 26.85,32.45 25.45,31.4 Q 24,30.15 23.45,29.15 L 23,28 q -0.75,-2.45 -0.7,-4.45 0.1,-2.45 1.25,-4.3 l 0.1,-0.1 -0.65,-1.2 -0.05,-0.9 q 0.1,-2.35 2.05,-4.1 l 1.5,-0.9 2,-0.2 0.8,0.15 q 1,0.2 1.55,0.7 l 0.15,0.15 0.2,0.25 0.35,0.6 0.05,0.05 1.15,-0.45 0.05,0.35 v 0.3 l 0.15,0.85 v 0.05 l 0.15,0.55 v 0.9 l 0.25,0.55 0.3,0.2 1.85,-0.1 -0.4,0.7 v 0.05 l -0.1,0.45 -0.5,1.3 -0.2,0.4 h 0.2 l 0.1,-0.15 0.65,-0.75 1.5,-2.3 0.15,-0.35 -0.3,-0.4 -0.5,-0.15 -0.35,-0.05 -1.2,0.05 0.1,-0.85 v -0.1 l 0.1,-1.45 v -0.1 l 0.05,-0.4 1.75,-0.1 h 0.4 m 2.45,8.45 0.05,0.1 0.05,0.05 0.05,0.1 0.1,0.15 0.5,0.3 0.2,0.05 0.5,0.05 0.1,-0.05 0.15,-0.05 0.15,-0.1 0.45,-0.4 0.1,-0.15 L 41.95,20.7 41.8,20.05 41.6,19.8 41.3,19.55 41.05,19.4 h -0.1 l -0.15,-0.05 -0.5,0.05 -0.25,0.05 q -0.1,0.1 -0.25,0.15 l -0.15,0.15 -0.1,0.15 -0.1,0.1 -0.05,0.2 -0.05,0.1 -0.05,0.15 v 0.45 l 0.1,0.3 m -2.55,-0.65 0.1,0.8 q 0.3,1.4 1.55,2.15 1.25,0.8 2.7,0.45 l 1.75,-1 Q 43.7,22.2 43.9,21.2 L 43.85,19.75 Q 43.45,18 41.9,17.25 40.25,16.5 38.7,17.3 q -1.55,0.8 -1.8,2.6 l -0.05,0.65 m 3.3,2.7 q -0.95,-0.1 -1.6,-0.75 -0.7,-0.65 -0.8,-1.6 -0.15,-1 0.4,-1.85 0.6,-0.9 1.5,-1.15 l 0.8,-0.15 q 1.65,0 2.35,1.35 0.85,1.35 0.1,2.75 l -1.15,1.1 -1.6,0.3 m 4.1,4.6 -0.85,1.1 -1.3,0.9 -0.55,0.3 2.25,-0.25 Q 45.4,29.25 46,27.75 L 46.35,26 V 24.8 L 45.9,23.7 q -0.35,2.2 -1.65,4.15 m -15.9,-4.6 0.35,0.4 q 0.95,0.95 2.25,0.65 1.35,-0.35 1.75,-1.55 0.5,-1.25 -0.35,-2.35 -0.8,-1.05 -2.15,-0.95 l -0.7,0.15 q -1.35,0.6 -1.5,2 v 0.6 l 0.35,1.05 m 1.15,-2.55 0.25,-0.1 0.5,-0.1 0.5,0.1 0.55,0.3 0.1,0.15 v 0.1 l 0.1,0.1 0.05,0.1 0.1,0.3 v 0.45 l -0.05,0.15 v 0.1 l -0.25,0.45 -0.15,0.15 -0.2,0.15 -0.6,0.2 -0.45,-0.05 -0.2,-0.05 -0.45,-0.3 -0.25,-0.3 -0.1,-0.2 -0.1,-0.45 0.05,-0.4 0.1,-0.2 v -0.1 l 0.05,-0.1 0.15,-0.2 0.2,-0.15 0.1,-0.1 m 5.55,8.3 0.4,-0.3 0.25,-0.15 0.2,0.05 h 0.3 l 0.2,0.05 h 0.25 l 0.15,0.05 h 0.5 l 0.55,-0.55 0.1,-0.15 v -0.35 l -0.1,-0.15 -0.1,-0.1 -0.05,-0.15 -0.1,-0.2 V 26.7 L 37.55,26.35 37.4,25.75 36.95,24.8 36.65,24.45 H 36.6 l -0.1,-0.4 -0.15,-0.55 -0.1,-0.6 Q 36.2,22.75 36,22.75 l -0.3,0.1 -0.1,0.55 -0.2,1.05 h -0.05 l -0.5,0.55 -0.2,0.25 -0.2,0.6 -0.3,1.55 -0.05,0.9 0.1,0.25 q 0.05,0.3 0.4,0.45 h 0.45 M 9.85,2.75 10.65,2.3 q 0.5,-0.15 0.8,0.25 0.25,0.25 0.15,1.1 l -0.25,1.7 Q 10.55,9.1 7.9,11.2 L 7.15,11.7 6.8,11.8 6.5,11.7 5.7,11.2 Q 3.05,9.1 2.3,5.35 L 2,3.65 Q 1.9,2.8 2.15,2.55 2.45,2.15 2.95,2.3 l 0.8,0.45 Q 4.55,3.05 5.7,2.4 L 6.15,2.2 6.1,2.55 H 6.15 L 5.55,5.1 5.5,5.35 5.45,5.45 V 6 L 5.55,6.3 6,6.45 h 0.35 l 0.2,0.1 H 6.8 L 7.05,6.65 6.75,7.2 6.7,7.4 6.35,7.95 6.25,8.3 v 0.35 l 0.1,0.25 h 0.4 L 7.05,8.6 7.25,8.2 8.5,6.15 8.3,5.65 7.55,5.45 7.1,5.35 H 6.9 L 6.75,5.3 7.4,4.15 7.75,3.3 8.1,2.75 8.2,2.55 9.85,2.75 m 26.75,24.05 0.05,0.2 -0.55,0.05 -0.4,0.2 -0.15,0.1 -0.05,0.1 q -0.05,-0.55 0.05,-0.8 l 0.1,-0.3 V 26.1 l 0.15,-0.25 0.3,-0.15 0.15,0.15 0.1,0.25 0.15,0.2 v 0.3 l 0.1,0.2 m -7,3.55 q -2.25,-1.5 -3.05,-3.8 l -0.4,-1.45 v 0.5 q 0.1,2.75 1.7,4.2 1.25,1.15 2.9,1.2 L 29.6,30.35"
         fill="#000000"
         fill-rule="evenodd"
         stroke="none"
         id="path10" />
      <path
         d="m 29.3,12 -0.5,-0.85 -0.1,-0.4 Q 28.65,10.4 29.2,9.95 L 29.65,9.6 Q 29.9,9.35 30.25,9.2 L 29.6,8 Q 29.5,7.65 29.75,7.55 h 0.35 l 0.25,0.25 1.3,1 0.3,0.6 -0.55,0.85 -0.55,0.35 1,1.3 v -0.05 q 1,-1.1 2.5,-0.8 L 34.7,9.8 35.15,8.75 q 0.35,-0.6 0.95,-0.6 l 0.7,0.15 1.1,0.25 q 0,-1 0.45,-2.45 l 0.2,-0.45 0.4,-0.1 0.3,0.3 -0.05,2.35 -0.05,1.4 -0.2,0.25 -0.35,0.15 -1.55,0.05 -0.35,2.05 0.25,0.65 h -0.4 l -1.75,0.1 -0.05,0.4 v 0.1 l -0.1,1.45 v 0.1 l -0.1,0.85 1.2,-0.05 0.35,0.05 0.5,0.15 0.3,0.4 -0.15,0.35 -1.5,2.3 -0.65,0.75 -0.1,0.15 h -0.2 l 0.2,-0.4 0.5,-1.3 0.1,-0.45 v -0.05 l 0.4,-0.7 -1.85,0.1 -0.3,-0.2 L 33.1,16.3 V 15.4 L 32.95,14.85 V 14.8 L 32.8,13.95 v -0.3 L 32.75,13.3 31.6,13.75 31.55,13.7 31.2,13.1 31,12.85 30.85,12.7 Q 30.3,12.2 29.3,12 m 7.55,8.55 0.05,-0.65 q 0.25,-1.8 1.8,-2.6 1.55,-0.8 3.2,-0.05 1.55,0.75 1.95,2.5 l 0.05,1.45 q -0.2,1 -0.95,1.75 l -1.75,1 Q 39.75,24.3 38.5,23.5 37.25,22.75 36.95,21.35 l -0.1,-0.8 m 2.55,0.65 -0.1,-0.3 v -0.45 l 0.05,-0.15 0.05,-0.1 0.05,-0.2 0.1,-0.1 0.1,-0.15 0.15,-0.15 q 0.15,-0.05 0.25,-0.15 l 0.25,-0.05 0.5,-0.05 0.15,0.05 h 0.1 l 0.25,0.15 0.3,0.25 0.2,0.25 0.15,0.65 -0.15,0.55 -0.1,0.15 -0.45,0.4 -0.15,0.1 -0.15,0.05 -0.1,0.05 -0.5,-0.05 -0.2,-0.05 -0.5,-0.3 -0.1,-0.15 -0.05,-0.1 -0.05,-0.05 -0.05,-0.1 m 0.75,2.05 1.6,-0.3 1.15,-1.1 q 0.75,-1.4 -0.1,-2.75 -0.7,-1.35 -2.35,-1.35 l -0.8,0.15 q -0.9,0.25 -1.5,1.15 -0.55,0.85 -0.4,1.85 0.1,0.95 0.8,1.6 0.65,0.65 1.6,0.75 m -11.8,0 L 28,22.2 v -0.6 q 0.15,-1.4 1.5,-2 l 0.7,-0.15 q 1.35,-0.1 2.15,0.95 0.85,1.1 0.35,2.35 -0.4,1.2 -1.75,1.55 -1.3,0.3 -2.25,-0.65 l -0.35,-0.4 m 1.15,-2.55 -0.1,0.1 -0.2,0.15 -0.15,0.2 -0.05,0.1 v 0.1 l -0.1,0.2 -0.05,0.4 0.1,0.45 0.1,0.2 0.25,0.3 0.45,0.3 0.2,0.05 0.45,0.05 0.6,-0.2 0.2,-0.15 0.15,-0.15 0.25,-0.45 v -0.1 l 0.05,-0.15 v -0.45 l -0.1,-0.3 -0.05,-0.1 -0.1,-0.1 v -0.1 l -0.1,-0.15 -0.55,-0.3 -0.5,-0.1 -0.5,0.1 -0.25,0.1 M 35.05,29 H 34.6 q -0.35,-0.15 -0.4,-0.45 l -0.1,-0.25 0.05,-0.9 0.3,-1.55 0.2,-0.6 0.2,-0.25 0.5,-0.55 h 0.05 l 0.2,-1.05 0.1,-0.55 0.3,-0.1 q 0.2,0 0.25,0.15 l 0.1,0.6 0.15,0.55 0.1,0.4 h 0.05 l 0.3,0.35 0.45,0.95 0.15,0.6 0.05,0.35 v 0.35 l 0.1,0.2 0.05,0.15 0.1,0.1 0.1,0.15 V 28 l -0.1,0.15 -0.55,0.55 H 36.8 L 36.65,28.65 H 36.4 L 36.2,28.6 h -0.3 l -0.2,-0.05 -0.25,0.15 -0.4,0.3 m 1.55,-2.2 -0.1,-0.2 v -0.3 l -0.15,-0.2 -0.1,-0.25 -0.15,-0.15 -0.3,0.15 -0.15,0.25 v 0.25 l -0.1,0.3 q -0.1,0.25 -0.05,0.8 l 0.05,-0.1 0.15,-0.1 0.4,-0.2 L 36.65,27 36.6,26.8"
         fill="#ffffff"
         fill-rule="evenodd"
         stroke="none"
         id="path11" />
    </g>
    <g
       id="shape2"
       transform="translate(2,2.05)">
      <path
         d="M -0.5,-0.4 V -0.55 H 75.1 V -0.4 40.8 H -0.5 Z"
         fill="none"
         stroke="#000000"
         stroke-linecap="round"
         stroke-linejoin="round"
         stroke-width="3"
         id="path12" />
    </g>
  </defs>
</svg>
