<?xml version="1.0" encoding="UTF-8" standalone="no"?>
<svg
   ffdec:objectType="frame"
   height="44.349998"
   width="78.599998"
   version="1.1"
   id="svg12"
   sodipodi:docname="392.svg"
   xmlns:inkscape="http://www.inkscape.org/namespaces/inkscape"
   xmlns:sodipodi="http://sodipodi.sourceforge.net/DTD/sodipodi-0.dtd"
   xmlns:xlink="http://www.w3.org/1999/xlink"
   xmlns="http://www.w3.org/2000/svg"
   xmlns:svg="http://www.w3.org/2000/svg"
   xmlns:ffdec="https://www.free-decompiler.com/flash">
  <sodipodi:namedview
     id="namedview12"
     pagecolor="#ffffff"
     bordercolor="#000000"
     borderopacity="0.25"
     inkscape:showpageshadow="2"
     inkscape:pageopacity="0.0"
     inkscape:pagecheckerboard="0"
     inkscape:deskcolor="#d1d1d1"
     fit-margin-top="5"
     fit-margin-left="5"
     fit-margin-right="5"
     fit-margin-bottom="5" />
  <g
     transform="translate(2,2.05)"
     id="g4">
    <use
       ffdec:characterId="1"
       height="42.700001"
       transform="translate(-1.75,-2)"
       width="76.449997"
       xlink:href="#shape0"
       id="use1" />
    <use
       ffdec:characterId="366"
       height="41.599998"
       transform="translate(-0.7,-0.8)"
       width="75.75"
       xlink:href="#shape1"
       id="use2" />
    <use
       ffdec:characterId="375"
       height="30.700001"
       transform="translate(17.5,5.7)"
       width="35.200001"
       xlink:href="#shape2"
       id="use3" />
    <use
       ffdec:characterId="3"
       height="44.349998"
       transform="translate(-2,-2.05)"
       width="78.599998"
       xlink:href="#shape3"
       id="use4" />
  </g>
  <defs
     id="defs12">
    <g
       id="shape0"
       transform="translate(1.75,2)">
      <path
         d="M 2.8,0 V -0.4 H 5.4 V 0 H 9.7 V 19.45 0 H 20.55 L 19.3,19.45 H 9.7 0.25 V 0 H 2.8"
         fill="#ffffff"
         fill-rule="evenodd"
         stroke="none"
         id="path4" />
      <path
         d="M 0.25,19.45 H 9.7 19.3 L 18.7,28.6 16,28.5 10.95,27.95 9.7,27.8 Q 7.45,27.6 5.85,27.75 4.05,27.9 1.5,28.6 0.75,28.8 0.25,29.15 v -9.7 m 9.45,0 v 8.35 -8.35"
         fill="#121212"
         fill-rule="evenodd"
         stroke="none"
         id="path5" />
      <path
         d="m 9.7,27.8 1.25,0.15 5.05,0.55 2.7,0.1 h 1.05 l 3.75,0.15 q 2.45,0.3 3.6,1.25 0.6,0.5 0.6,1.1 0,0.65 -0.8,1 l -1.3,0.2 -7.15,0.15 -5.6,-0.3 L 9.7,31.75 7.95,31.6 3.1,31.95 0.95,32.3 0.25,32.1 -0.35,31.55 -0.5,31.3 V 29.9 L 0.25,29.15 Q 0.75,28.8 1.5,28.6 4.05,27.9 5.85,27.75 7.45,27.6 9.7,27.8 v 3.95 -3.95"
         fill="#999999"
         fill-rule="evenodd"
         stroke="none"
         id="path6" />
      <path
         d="M 2.8,0 H 0.25 M 9.7,0 H 5.4 m 16.15,0 h 10.7 M 20.55,0 H 9.7"
         fill="none"
         stroke="#666666"
         stroke-linecap="round"
         stroke-linejoin="round"
         stroke-width="4"
         id="path7" />
      <path
         d="m 9.7,-0.4 h 65 V 40.5 H 47.05 L 45.5,40.7 27,40.65 25.95,40.5 H 9.7 -0.5 V -0.4 H 9.7 V 40.5 -0.4"
         fill="#ffffff"
         fill-rule="evenodd"
         stroke="none"
         id="path8" />
    </g>
    <g
       id="shape1"
       transform="translate(0.7,0.8)">
      <path
         d="m 22.9,1.2 q -4,7.2 -8.6,9.7 -1.45,0.75 -4.7,1.7 -3.15,1 -4.7,1.8 -3.7,2 -5.6,5.9 V 13.35 Q 1.1,11.5 3.3,10.25 5.3,8.3 7.7,6.8 L 10.8,4.9 13.55,2.6 15.3,0.3 16.05,-0.8 H 24 l -1.1,2 m 8.7,38.35 q -5.7,-1.3 -11.65,-7.2 L 17.4,29.3 q -3.35,-5.05 -2.05,-11.7 0.8,-3.95 3,-7.35 2.25,-3.5 5.55,-5.75 2.95,-1.95 6.4,-2.75 4.1,-0.95 8.9,-1.1 4.75,-0.15 9.7,4.1 4.9,4.15 5.85,7.1 0.9,2.9 3.35,5.45 1.95,1.45 3.8,1.45 2.75,0.15 4.65,-2.25 1.55,-1.95 1.95,-4.95 L 68.6,9.7 67.75,7.25 q -1.1,-1.8 -4.4,-4 -3.55,-2.2 -4.65,-3.8 L 58.55,-0.8 h 10.7 q 4,3.9 5.15,11.95 l 0.25,4.15 q -0.05,2.8 -1.2,5.8 -1.9,5.35 -6.1,9.4 l -5.3,4.05 -4.25,2.55 q -2.8,1.25 -7.65,2.2 l -11,1.05 L 34.75,40 31.6,39.55 m 39.05,-5.9 1.7,0.05 h 1.7 l 1,-0.25 v 3.35 l -1.3,0.2 -4.15,0.1 q -1.2,0.3 -2.5,1.35 l -2.15,1.95 -0.4,0.4 H 60.2 l 0.35,-0.35 2.95,-3 q 3.7,-3.65 7.15,-3.8 M 6.6,35.85 q 1.65,0.5 3,1.6 1.3,1.05 2.05,2.4 L 12.1,40.8 H 7.05 Q 6.05,39.75 4.2,39.05 1,38.1 -0.4,37.3 l -0.3,-0.15 v -5 l 1.8,1.55 2.95,1.35 2.55,0.8"
         fill="#999999"
         fill-rule="evenodd"
         stroke="none"
         id="path9" />
    </g>
    <g
       id="shape2"
       transform="translate(-17.5,-5.7)">
      <path
         d="m 50.85,18.5 q -0.6,3.15 -2.2,5.85 -1.4,2.3 -3.5,4.3 -2.5,2.25 -6.45,4.1 l -0.25,0.1 q -4.95,2.15 -8.4,1.6 -0.8,-0.1 -1,-0.55 -0.15,-0.3 0,-0.6 L 28.9,32.9 28.55,31.3 Q 27.9,28.45 23.9,25.7 l -2.5,-1.95 q -1.4,-1.4 -1.95,-3.4 -0.6,-2 -0.2,-4 0.75,-3.9 4.25,-6.55 1.65,-1.25 3.3,-1.65 2.95,-0.7 5.7,1 l 1.7,1.45 0.8,1.15 1.6,-1.55 q 0.45,-0.45 1,-0.8 2.3,-1.5 4.9,-1.9 2.3,-0.35 4,0.4 1.8,0.8 3.25,3.1 0.9,1.55 1.25,3.1 0.4,1.85 -0.15,4.4"
         fill="#000000"
         fill-rule="evenodd"
         stroke="none"
         id="path10" />
      <path
         d="M 50.85,18.5 Q 51.4,15.95 51,14.1 50.65,12.55 49.75,11 48.3,8.7 46.5,7.9 q -1.7,-0.75 -4,-0.4 -2.6,0.4 -4.9,1.9 -0.55,0.35 -1,0.8 L 35,11.75 34.2,10.6 32.5,9.15 q -2.75,-1.7 -5.7,-1 -1.65,0.4 -3.3,1.65 -3.5,2.65 -4.25,6.55 -0.4,2 0.2,4 0.55,2 1.95,3.4 l 2.5,1.95 q 4,2.75 4.65,5.6 l 0.35,1.6 0.15,0.4 q -0.15,0.3 0,0.6 0.2,0.45 1,0.55 3.45,0.55 8.4,-1.6 l 0.25,-0.1 q 3.95,-1.85 6.45,-4.1 2.1,-2 3.5,-4.3 1.6,-2.7 2.2,-5.85 m -25.4,11.95 q -0.6,-1.9 -3.2,-3.95 l -1.95,-1.65 -1.7,-2 q -1.95,-3.05 -0.5,-7.5 0.9,-2.7 2.75,-4.8 1.9,-2.2 4.45,-3.2 2.65,-1.05 5.5,-0.55 2.9,0.45 4.9,2.35 L 35.8,9.25 38,7.8 q 1.8,-1.1 2.8,-1.5 3.2,-1.25 6.45,0.1 3.2,1.35 4.65,4.55 0.95,2.35 0.8,5.7 -0.25,5.55 -3.25,9.9 Q 47.55,29.3 45,31 l -0.5,0.4 -3.4,2.2 q -5.15,2.45 -10.4,2.75 -2.65,0.2 -3.75,-0.9 -0.75,-0.7 -1,-2.3 l -0.5,-2.7"
         fill="#ffffff"
         fill-rule="evenodd"
         stroke="none"
         id="path11" />
    </g>
    <g
       id="shape3"
       transform="translate(2,2.05)">
      <path
         d="M -0.5,-0.4 V -0.55 H 75.1 V -0.4 40.8 H -0.5 Z"
         fill="none"
         stroke="#000000"
         stroke-linecap="round"
         stroke-linejoin="round"
         stroke-width="3"
         id="path12" />
    </g>
  </defs>
</svg>
