<?xml version="1.0" encoding="UTF-8" standalone="no"?>
<svg
   ffdec:objectType="frame"
   height="44.349998"
   width="78.599998"
   version="1.1"
   id="svg15"
   sodipodi:docname="266.svg"
   xmlns:inkscape="http://www.inkscape.org/namespaces/inkscape"
   xmlns:sodipodi="http://sodipodi.sourceforge.net/DTD/sodipodi-0.dtd"
   xmlns:xlink="http://www.w3.org/1999/xlink"
   xmlns="http://www.w3.org/2000/svg"
   xmlns:svg="http://www.w3.org/2000/svg"
   xmlns:ffdec="https://www.free-decompiler.com/flash">
  <sodipodi:namedview
     id="namedview15"
     pagecolor="#ffffff"
     bordercolor="#000000"
     borderopacity="0.25"
     inkscape:showpageshadow="2"
     inkscape:pageopacity="0.0"
     inkscape:pagecheckerboard="0"
     inkscape:deskcolor="#d1d1d1"
     fit-margin-top="5"
     fit-margin-left="5"
     fit-margin-right="5"
     fit-margin-bottom="5" />
  <g
     transform="translate(2,2.05)"
     id="g3">
    <use
       ffdec:characterId="1"
       height="42.700001"
       transform="translate(-1.75,-2)"
       width="76.449997"
       xlink:href="#shape0"
       id="use1" />
    <use
       ffdec:characterId="261"
       height="41.450001"
       transform="translate(-0.85,-0.8)"
       width="76.300003"
       xlink:href="#shape1"
       id="use2" />
    <use
       ffdec:characterId="3"
       height="44.349998"
       transform="translate(-2,-2.05)"
       width="78.599998"
       xlink:href="#shape2"
       id="use3" />
  </g>
  <defs
     id="defs15">
    <g
       id="shape0"
       transform="translate(1.75,2)">
      <path
         d="M 2.8,0 V -0.4 H 5.4 V 0 H 9.7 V 19.45 0 H 20.55 L 19.3,19.45 H 9.7 0.25 V 0 H 2.8"
         fill="#ffffff"
         fill-rule="evenodd"
         stroke="none"
         id="path3" />
      <path
         d="M 0.25,19.45 H 9.7 19.3 L 18.7,28.6 16,28.5 10.95,27.95 9.7,27.8 Q 7.45,27.6 5.85,27.75 4.05,27.9 1.5,28.6 0.75,28.8 0.25,29.15 v -9.7 m 9.45,0 v 8.35 -8.35"
         fill="#121212"
         fill-rule="evenodd"
         stroke="none"
         id="path4" />
      <path
         d="m 9.7,27.8 1.25,0.15 5.05,0.55 2.7,0.1 h 1.05 l 3.75,0.15 q 2.45,0.3 3.6,1.25 0.6,0.5 0.6,1.1 0,0.65 -0.8,1 l -1.3,0.2 -7.15,0.15 -5.6,-0.3 L 9.7,31.75 7.95,31.6 3.1,31.95 0.95,32.3 0.25,32.1 -0.35,31.55 -0.5,31.3 V 29.9 L 0.25,29.15 Q 0.75,28.8 1.5,28.6 4.05,27.9 5.85,27.75 7.45,27.6 9.7,27.8 v 3.95 -3.95"
         fill="#999999"
         fill-rule="evenodd"
         stroke="none"
         id="path5" />
      <path
         d="M 2.8,0 H 0.25 M 9.7,0 H 5.4 m 16.15,0 h 10.7 M 20.55,0 H 9.7"
         fill="none"
         stroke="#666666"
         stroke-linecap="round"
         stroke-linejoin="round"
         stroke-width="4"
         id="path6" />
      <path
         d="m 9.7,-0.4 h 65 V 40.5 H 47.05 L 45.5,40.7 27,40.65 25.95,40.5 H 9.7 -0.5 V -0.4 H 9.7 V 40.5 -0.4"
         fill="#ffffff"
         fill-rule="evenodd"
         stroke="none"
         id="path7" />
    </g>
    <g
       id="shape1"
       transform="translate(0.85,0.8)">
      <path
         d="m 29.85,6.9 0.4,-0.2 0.75,-2 0.6,-1.3 1.15,-0.75 q 0.7,-0.1 1.95,0.65 l 3,2.2 h 0.1 q 2.55,0.7 4.15,3.3 0.7,1 0.9,2.05 Q 43.5,8.3 43,6 L 42.7,5.5 42.15,5.35 H 40.7 L 38.3,5.15 Q 36.7,4.75 35.8,3.55 34.75,2.3 35,0.7 q 0.1,-0.8 0.55,-1.5 h 8.35 l 0.3,0.3 q 2.85,3.05 3,7.45 0.2,3.85 -1.9,7.9 l -1.55,2.5 v 0.15 l 0.05,0.65 0.15,1.15 -0.05,4.95 0.2,-0.55 Q 45,21.95 46,21 q 1.35,-1.3 2.9,-1.5 l 2.75,0.15 q 2.95,0.5 4.45,2.1 0.9,0.95 0.7,1.9 l -0.75,0.95 -1.3,0.35 -1.25,-0.3 -1.2,-0.5 -1.65,-0.4 -1.25,-0.05 q -0.8,0.15 -1.4,1 l -0.75,1.6 -1.85,2.55 q -1.2,1.1 -2.5,1.25 l -0.4,1 -1.3,2.25 1.35,-1.35 1.5,-1.25 q 1.1,-0.55 2,-0.35 1.05,0.3 1.6,1.45 l 0.65,2.1 0.1,0.55 0.15,1.55 q -0.25,1 -1.25,1.4 -1.1,0.4 -1.9,-0.35 -0.5,-0.45 -0.8,-1.75 L 42.45,37.5 Q 41,38.6 39.5,38.45 L 38.25,38.15 37,37.4 Q 36.15,36.5 36.15,35.1 36.1,34.25 36.5,32.7 35.25,32.3 34.15,31.15 33.1,30.05 32.75,28.7 l -0.4,0.25 q -0.55,0.3 -1,0.65 l 0.1,0.2 1.2,0.95 q 1.8,1 2.2,1.75 0.45,1.1 -0.2,2 l -0.7,0.7 -0.9,0.55 -1.3,1.05 -1.65,0.7 -1.85,0.05 Q 27.05,37.3 26.7,36.05 26.4,34.8 27.25,33.9 27.85,33.3 29.2,32.95 28.35,32.2 27.85,31.1 l -1,0.15 Q 24.9,31.6 23.7,30.9 q -0.75,-0.5 -1.1,-1.3 -0.4,-0.8 -0.25,-1.75 0.35,-1.75 2.1,-2.6 l 1.8,-0.4 2.2,0.35 q 0.6,-1 1.75,-1.75 0.75,-0.65 1.75,-0.95 1.25,-0.6 3.1,-0.75 L 35.1,21.7 h -0.5 q -2.35,0.1 -3.75,-0.75 L 29.75,20.1 28.5,18.75 27.65,18.5 q -1.9,-0.75 -2.8,-1.65 l -0.4,-0.5 q -0.4,-0.8 0.1,-1.8 l 1.15,-1.5 0.5,-0.55 0.35,-0.3 q 0.2,-1.8 1.3,-3.35 0.8,-1.15 2,-1.95 m 3.75,9.5 Q 33.2,15.55 32.35,15.2 L 30.6,15.15 q -0.85,0.35 -1.3,1.2 -0.4,0.9 -0.15,1.75 0.25,0.85 1.1,1.35 0.85,0.5 1.75,0.3 1.15,-0.35 1.6,-1.3 0.5,-1.05 0,-2.05 M 39.1,9.45 Q 38.4,8.5 37.15,8.4 35.7,8.25 34.8,9.4 q -0.85,1.1 -0.45,2.5 0.4,1.35 1.8,1.75 l 0.7,0.15 h 0.3 q 1.65,-0.15 2.3,-1.65 l 0.2,-1.4 -0.55,-1.3"
         fill="#999999"
         fill-rule="evenodd"
         stroke="none"
         id="path8" />
      <path
         d="m 39.1,9.45 0.55,1.3 -0.2,1.4 q -0.65,1.5 -2.3,1.65 h -0.3 l -0.7,-0.15 q -1.4,-0.4 -1.8,-1.75 -0.4,-1.4 0.45,-2.5 0.9,-1.15 2.35,-1 1.25,0.1 1.95,1.05 m -5.5,6.95 q 0.5,1 0,2.05 -0.45,0.95 -1.6,1.3 -0.9,0.2 -1.75,-0.3 -0.85,-0.5 -1.1,-1.35 -0.25,-0.85 0.15,-1.75 0.45,-0.85 1.3,-1.2 l 1.75,0.05 q 0.85,0.35 1.25,1.2"
         fill="#ffffff"
         fill-rule="evenodd"
         stroke="none"
         id="path9" />
      <path
         d="M 4.7,37.95 Q 1.15,35.35 0.6,29.4 0.35,27.2 0.7,25.35 1.55,21.15 5.85,17 l 3.8,-3.25 3.8,-3.2 Q 15.2,9 15.8,7.6 16.75,5.55 15.7,3.9 14.85,2.65 12.8,2.2 L 9.7,2.1 Q 8.35,2.5 7.2,3.8 6.45,4.65 5.45,6.4 L 2.3,11.8 -0.15,15.35 -0.85,16 V 9.8 l 2.55,-5 2,-3.5 Q 4.55,0.05 5.6,-0.8 h 11.95 q 1.6,1.25 2.5,3.25 0.9,2.1 0.65,4.25 -0.4,3.4 -3.65,6.75 L 11,18.4 q -3.65,3 -4.9,5.95 -1.6,3.8 -0.15,7.5 0.65,1.55 1.65,2.3 0.75,0.5 2.2,0.9 l 4.6,0.1 q 2.55,-0.7 3.55,-2.8 L 18.35,31 18.2,31.05 17.3,31.3 q -0.55,-0.1 -0.75,-0.8 l 0.1,-1.1 0.6,-1.35 q -0.75,-0.7 -1.6,-0.6 -1.35,0.15 -2,1.85 l 0.85,1 0.25,1.25 q -0.1,0.65 -0.6,1.2 -0.5,0.5 -1.15,0.65 -1.1,0.25 -2.4,-0.65 Q 9.45,31.95 9.15,30.7 8.8,29.4 9.4,27.85 9.95,26.35 11.15,25.15 12.4,24 13.9,23.5 l 3.25,-0.15 q 1.35,0.25 2.45,1.05 l 0.2,-0.25 q 1.35,-1.75 1.25,-2.9 L 20.6,19.85 19.9,18.4 q -0.65,-1.6 0.1,-3.5 0.55,-1.55 2,-2.9 1.2,-1.2 2.25,-0.95 0.55,0.1 0.6,0.5 l -0.4,0.75 q -1.35,1.45 -1.8,3.2 -0.2,0.55 -0.05,0.95 l 0.65,0.9 q 1.1,1.25 1.45,3.05 0.3,1.7 -0.25,3.3 -0.45,1.25 -2.1,3.3 l -0.45,0.6 0.05,0.1 q 1.25,3.65 -0.45,7.1 -1.7,3.35 -5.4,4.65 l -6,0.4 Q 6.75,39.4 4.7,37.95 M 58.75,12.4 q 1.3,-1.45 3.3,-1.85 1.7,-0.35 3.4,0.05 Q 67.2,11 68.5,12.1 68.5,8.5 65.9,6 63.25,3.5 59.7,3.65 58,3.7 56.5,4.45 q -1.6,0.8 -2.5,2.1 -0.55,0.8 -1,2.1 l -0.7,2.2 q -1.8,5.85 -5,8.15 -0.5,0.45 -1.1,0.5 -0.75,0.1 -1,-0.5 -0.25,-0.5 0.35,-1.4 1.6,-2.5 2.3,-4.5 l 1,-4.25 q 0.5,-2.7 1.2,-4.15 1.55,-3 4.55,-4.55 1.25,-0.65 2.6,-0.95 h 5.65 q 3.75,0.75 6.5,3.7 3.45,3.5 3.6,8.55 l -0.25,3.3 q -0.3,1.3 -0.2,1.9 l 0.45,1.3 q 1.6,3.4 1.6,7.25 0.05,3.85 -1.5,7.3 -0.9,1.85 -1.8,2.95 -1.95,2.15 -5.2,3.4 -3.3,1.2 -6.5,1.4 l -1.8,0.1 -1.85,0.3 h -6.65 q 0.4,-1.2 1.5,-2.15 1.2,-1.15 2.85,-1.7 l 3.25,-0.75 3.3,-0.35 q 4.15,-0.35 6.3,-1.9 2.75,-2 3.5,-5.75 0.55,-3 -0.4,-6.85 -2.55,2.05 -4.05,2.5 -1.65,0.5 -3.45,-0.05 -1.75,-0.5 -2.95,-1.8 -1.2,-1.2 -1.65,-3 -0.45,-1.7 -0.1,-3.45 0.35,-1.8 1.4,-3 m 5.65,2.65 -0.95,-0.15 q -0.4,0.05 -1.1,0.45 l -0.3,0.2 -0.3,0.65 -0.05,0.45 0.05,0.7 q 0,0.45 0.15,0.8 l 0.45,0.75 0.8,0.45 0.65,0.15 0.55,-0.15 1.35,-0.85 1.15,-0.95 v -0.1 l 0.25,-0.25 0.05,-0.1 -0.1,-0.15 -1.3,-1.15 -0.65,-0.45 -0.7,-0.3"
         fill="#999999"
         fill-rule="evenodd"
         stroke="none"
         id="path10" />
      <path
         d="m 66.5,22.85 q -0.8,0.3 -1.65,0 -0.8,-0.3 -1.25,-1.1 -0.45,-0.8 -0.3,-1.6 0.15,-0.85 0.85,-1.4 l 2.2,0.25 0.95,-0.15 0.75,1.3 q 0.15,0.85 -0.3,1.6 -0.45,0.8 -1.25,1.1 M 61.4,21 l 0.2,0.45 q 0.1,0.5 -0.15,0.8 -0.25,0.4 -0.75,0.25 L 60.1,21.75 59.85,21.4 59.8,21 H 59.5 L 58.3,20.9 57.4,20.45 Q 56.95,20 57.2,19.55 57.45,19.1 58.3,19.1 l 1.05,-0.05 H 60 l 0.3,-0.2 v -0.1 q 0.25,-0.3 0.8,-0.5 0.5,0.2 0.6,0.65 0.15,0.5 -0.25,0.85 v 0.1 l -0.2,0.25 0.05,0.3 0.1,0.6 m -5.15,-4.75 -0.55,-1 q -0.25,-0.8 0.15,-1.7 0.4,-0.85 1.2,-1.2 l 1.75,-0.05 -0.15,0.65 q -0.05,0.8 0.45,1.75 L 60.05,16 59.5,16.55 Q 58.8,17.05 57.8,17 56.85,16.9 56.25,16.25 M 8.15,21.6 8.2,21.5 8.95,22.1 q 1.7,0.95 3.45,0.9 h 0.1 l -0.15,0.45 q -0.3,0.7 -0.95,1.05 L 10,24.8 Q 9.25,24.7 8.7,24.25 8.15,23.75 8,23 7.85,22.25 8.15,21.6 m 9.95,-6.1 q 0.9,0.15 1.5,1 0.6,0.8 0.5,1.7 -0.1,0.7 -0.6,1.3 l -1.2,0.75 -1.6,-0.1 0.15,-1 v -2.8 l -0.1,-0.7 1.35,-0.15"
         fill="#ffffff"
         fill-rule="evenodd"
         stroke="none"
         id="path11" />
      <path
         d="m 62.55,8.85 q 2.85,0.55 4.8,1.95 2.35,1.75 3,4.25 v 0.15 h 0.1 l 1.1,0.45 1.25,0.7 q 0.65,0.6 0.75,1.3 0.05,0.8 -0.8,2.05 l -0.45,0.65 q -1,1.25 -2.6,2.05 l -0.4,0.6 0.5,1.25 q 1.3,-1.2 2.7,-1.85 1.5,-0.7 2.95,-0.8 v 4.9 l -1.15,0.2 -2.4,1.8 1.2,2.05 0.5,0.6 1.1,0.55 0.75,0.4 v 6.15 l -0.65,0.1 q -1.4,0.2 -3.2,-0.65 -1.3,-0.6 -1.85,-1.3 -0.85,-0.9 -0.6,-2 l 0.15,-0.85 -0.25,-0.7 -0.9,-1.75 -0.15,0.05 0.2,0.65 q 0.8,2.5 -0.6,4.15 -1.4,1.6 -3.9,1.35 l -3.2,-0.95 -0.2,1.1 q -0.2,0.6 -0.9,0.85 l -1.3,-0.25 q -0.5,-0.3 -0.9,-1 l -1.1,-1.9 -0.2,-0.6 q -0.2,-0.6 -0.05,-1.2 l 0.05,-0.25 -1.1,-0.8 -0.85,-0.95 -0.8,1.7 -0.95,1.4 -0.9,1.5 -0.85,1.5 q -0.7,0.5 -1.95,0.6 -2.5,0.2 -3.75,-0.5 -0.9,-0.45 -1.4,-1.3 Q 42.8,35.3 43,34.4 q 0.4,-1.55 2.15,-2.1 l 3,0.25 q 1.7,-1.85 3.4,-5.15 l 1.9,-3.9 0.7,-2.5 0.05,-0.1 -0.05,-0.1 -0.75,-2.25 -0.05,-1.35 q -0.1,-2.05 0.2,-3.2 l 0.5,-1.25 0.15,-0.4 L 52.75,10.9 51.85,10.2 50.7,10 49.15,9.8 47.7,10.25 Q 45.65,10.9 44.1,9.95 43.3,9.4 42.9,8.55 42.5,7.65 42.7,6.75 42.95,5.75 44,4.9 46.35,3.15 49,3.85 49.85,4 51.15,4.8 53.2,6.05 55.25,8.2 L 56.35,9.45 56.4,9.4 57,7.95 Q 57.45,7.05 58.5,7.05 59.35,7 60.1,7.7 l 0.75,1 1.7,0.15 m -6.3,7.4 q 0.6,0.65 1.55,0.75 1,0.05 1.7,-0.45 L 60.05,16 59.1,14.7 q -0.5,-0.95 -0.45,-1.75 l 0.15,-0.65 -1.75,0.05 q -0.8,0.35 -1.2,1.2 -0.4,0.9 -0.15,1.7 l 0.55,1 m 5.15,4.75 -0.1,-0.6 -0.05,-0.3 0.2,-0.25 v -0.1 q 0.4,-0.35 0.25,-0.85 -0.1,-0.45 -0.6,-0.65 -0.55,0.2 -0.8,0.5 v 0.1 L 60,19.05 H 59.35 L 58.3,19.1 q -0.85,0 -1.1,0.45 -0.25,0.45 0.2,0.9 l 0.9,0.45 1.2,0.1 h 0.3 l 0.05,0.4 0.25,0.35 0.6,0.75 q 0.5,0.15 0.75,-0.25 0.25,-0.3 0.15,-0.8 L 61.4,21 m 5.1,1.85 q 0.8,-0.3 1.25,-1.1 0.45,-0.75 0.3,-1.6 L 67.3,18.85 66.35,19 64.15,18.75 q -0.7,0.55 -0.85,1.4 -0.15,0.8 0.3,1.6 0.45,0.8 1.25,1.1 0.85,0.3 1.65,0 m -2.1,10.3 -0.5,-1.55 q -0.25,0.7 -0.9,1.2 l 1.4,0.35 m 1.45,-7.6 -2,0.5 1.25,1.05 0.5,0.65 0.65,-0.15 0.3,-0.15 -0.7,-1.9 m -53.8,-16.7 1.7,-0.15 0.75,-1 q 0.75,-0.7 1.6,-0.65 1.05,0 1.5,0.9 l 0.6,1.45 0.05,0.05 1.1,-1.25 q 2.05,-2.15 4.1,-3.4 1.3,-0.8 2.15,-0.95 2.65,-0.7 5,1.05 1.05,0.85 1.3,1.85 0.2,0.9 -0.2,1.8 l -1.2,1.4 q -1.55,0.95 -3.6,0.3 L 25.45,9.8 23.9,10 l -1.15,0.2 -0.9,0.7 -1.45,1.45 0.15,0.4 0.5,1.25 q 0.3,1.15 0.2,3.2 l -0.05,1.35 -0.75,2.25 -0.05,0.1 0.05,0.1 0.7,2.5 1.9,3.9 q 1.7,3.3 3.4,5.15 l 3,-0.25 q 1.75,0.55 2.15,2.1 0.2,0.9 -0.35,1.85 -0.5,0.85 -1.4,1.3 -1.25,0.7 -3.75,0.5 -1.25,-0.1 -1.95,-0.6 l -0.85,-1.5 -0.9,-1.5 -0.95,-1.4 -0.8,-1.7 -0.85,0.95 -1.1,0.8 0.05,0.25 -0.05,1.2 -0.2,0.6 -1.1,1.9 -0.9,1 Q 15.8,38.5 15.2,38.3 14.5,38.05 14.3,37.45 14.05,37 14.1,36.35 L 10.9,37.3 Q 8.4,37.55 7,35.95 5.6,34.3 6.4,31.8 L 6.6,31.15 6.45,31.1 5.55,32.85 5.3,33.55 5.45,34.4 q 0.25,1.1 -0.6,2 Q 4.3,37.1 3,37.7 1.2,38.55 -0.2,38.35 l -0.65,-0.1 V 32.1 L -0.1,31.7 1,31.15 1.5,30.55 2.7,28.5 0.3,26.7 -0.85,26.5 v -4.9 q 1.45,0.1 2.95,0.8 1.4,0.65 2.7,1.85 L 5.3,23 4.9,22.4 Q 3.3,21.6 2.3,20.35 L 1.85,19.7 Q 1,18.45 1.05,17.65 q 0.1,-0.7 0.75,-1.3 l 1.25,-0.7 1.1,-0.45 h 0.1 v -0.15 q 0.65,-2.5 3,-4.25 1.95,-1.4 4.8,-1.95 m 6.05,6.65 -1.35,0.15 0.1,0.7 v 2.8 l -0.15,1 1.6,0.1 1.2,-0.75 q 0.5,-0.6 0.6,-1.3 0.1,-0.9 -0.5,-1.7 -0.6,-0.85 -1.5,-1 M 8.15,21.6 Q 7.85,22.25 8,23 8.15,23.75 8.7,24.25 9.25,24.7 10,24.8 l 1.4,-0.3 q 0.65,-0.35 0.95,-1.05 L 12.5,23 H 12.4 Q 10.65,23.05 8.95,22.1 L 8.2,21.5 8.15,21.6 m 2.05,11.55 1.4,-0.35 q -0.65,-0.5 -0.9,-1.2 -0.45,0.85 -0.5,1.55 m -1.45,-7.6 -0.7,1.9 0.3,0.15 0.65,0.15 0.5,-0.65 1.25,-1.05 -2,-0.5"
         fill="#000000"
         fill-rule="evenodd"
         stroke="none"
         id="path12" />
      <path
         d="m 27.2,15.15 q 0.35,-0.4 1.35,-0.7 1.85,-0.55 2.7,-1.45 0.65,-0.75 0.9,-2.15 l 0.35,-2.3 q 0.15,-0.85 0.55,-1.35 0.5,-0.7 1.3,-0.6 0.9,0.1 1.2,1.1 l 0.1,1.75 Q 35.5,11.4 35,13 q -0.65,1.9 -1.95,3.05 -0.9,0.8 -2.45,1.3 L 28.85,17.6 Q 27.8,17.5 27.3,16.85 26.6,16 27.2,15.15"
         fill="#999999"
         fill-rule="evenodd"
         stroke="none"
         id="path13" />
      <path
         d="m 40,8.5 h 0.15 l 0.1,0.05 0.15,0.05 0.1,0.05 0.05,0.05 0.05,0.1 0.05,0.05 0.05,0.05 V 8.95 L 40.75,9 v 0.05 l 0.05,0.1 V 9.4 L 40.75,9.5 V 9.75 9.85 9.9 L 40.7,9.95 v 0.15 0.1 0.25 0.1 0.25 0.1 0.2 0.1 0.25 0.1 0.25 0.1 0.1 l 0.05,0.05 v 0.1 0.1 0.2 L 40.7,12.5 v 0.1 0.1 l -0.05,0.05 v 0.1 0.1 L 40.7,13 v 0.2 0.1 0.1 l 0.05,0.05 v 0.1 0.1 0.25 L 40.8,14 v 0.25 0.1 0.05 l 0.05,0.05 v 0.1 l 0.05,0.05 v 0.1 0.25 l 0.05,0.1 v 0.2 0.1 0.25 0.1 0.1 l -0.05,0.05 v 0.1 0.1 l -0.05,0.05 v 0.05 L 40.8,16.2 v 0.1 l -0.05,0.1 -0.05,0.05 v 0.05 l -0.05,0.05 -0.05,0.05 -0.05,0.05 -0.05,0.1 -0.15,0.15 -0.1,0.05 L 40.2,17 40.1,17.1 40,17.15 39.85,17.2 39.7,17.25 h -0.1 -0.2 -0.25 -0.1 L 38.95,17.2 H 38.8 L 38.65,17.1 38.5,17.05 38.4,17 38.35,16.95 38.25,16.9 38.2,16.85 38.1,16.75 38.05,16.7 38,16.65 37.9,16.55 37.85,16.45 37.8,16.4 V 16.35 L 37.75,16.3 37.7,16.25 V 16.2 L 37.65,16.1 V 16 L 37.6,15.95 v -0.1 -0.1 L 37.55,15.7 V 15.55 L 37.5,15.5 37.45,15.4 V 15.3 L 37.4,15.25 v -0.1 l -0.05,-0.1 V 14.8 14.7 14.45 14.35 14.1 14 13.9 l 0.05,-0.05 v -0.1 -0.1 -0.2 L 37.45,13.4 V 13.3 13.05 12.95 12.9 L 37.5,12.85 V 12.7 12.6 12.35 12.25 12.2 l 0.05,-0.05 v -0.1 -0.1 -0.05 l 0.05,-0.05 0.05,-0.05 v -0.1 l 0.05,-0.1 v -0.1 l 0.05,-0.05 V 11.4 l 0.05,-0.05 v -0.1 -0.1 L 37.85,11.1 V 11 L 37.9,10.9 V 10.85 L 37.95,10.8 V 10.75 L 38,10.7 38.05,10.65 V 10.55 10.5 L 38.1,10.45 38.15,10.4 V 10.3 L 38.2,10.2 V 10.15 L 38.25,10.1 V 10.05 L 38.3,10 38.35,9.95 V 9.85 L 38.4,9.8 38.45,9.75 38.5,9.7 38.6,9.65 38.65,9.6 38.7,9.5 V 9.45 L 38.75,9.4 38.85,9.35 V 9.3 L 38.95,9.25 39,9.15 39.05,9.1 39.1,9.05 39.2,9 39.25,8.95 39.3,8.9 V 8.8 l 0.1,-0.05 0.1,-0.1 0.1,-0.05 0.1,-0.05 h 0.05 L 39.85,8.5 H 40"
         fill="#999999"
         fill-rule="evenodd"
         stroke="none"
         id="path14" />
    </g>
    <g
       id="shape2"
       transform="translate(2,2.05)">
      <path
         d="M -0.5,-0.4 V -0.55 H 75.1 V -0.4 40.8 H -0.5 Z"
         fill="none"
         stroke="#000000"
         stroke-linecap="round"
         stroke-linejoin="round"
         stroke-width="3"
         id="path15" />
    </g>
  </defs>
</svg>
