<?xml version="1.0" encoding="UTF-8" standalone="no"?>
<svg
   ffdec:objectType="frame"
   height="44.349998"
   width="78.599998"
   version="1.1"
   id="svg12"
   sodipodi:docname="241.svg"
   xmlns:inkscape="http://www.inkscape.org/namespaces/inkscape"
   xmlns:sodipodi="http://sodipodi.sourceforge.net/DTD/sodipodi-0.dtd"
   xmlns:xlink="http://www.w3.org/1999/xlink"
   xmlns="http://www.w3.org/2000/svg"
   xmlns:svg="http://www.w3.org/2000/svg"
   xmlns:ffdec="https://www.free-decompiler.com/flash">
  <sodipodi:namedview
     id="namedview12"
     pagecolor="#ffffff"
     bordercolor="#000000"
     borderopacity="0.25"
     inkscape:showpageshadow="2"
     inkscape:pageopacity="0.0"
     inkscape:pagecheckerboard="0"
     inkscape:deskcolor="#d1d1d1"
     fit-margin-top="5"
     fit-margin-left="5"
     fit-margin-right="5"
     fit-margin-bottom="5" />
  <g
     transform="translate(2,2.05)"
     id="g3">
    <use
       ffdec:characterId="1"
       height="42.700001"
       transform="translate(-1.75,-2)"
       width="76.449997"
       xlink:href="#shape0"
       id="use1" />
    <use
       ffdec:characterId="237"
       height="43.799999"
       transform="translate(-1.9,-1.55)"
       width="69.75"
       xlink:href="#shape1"
       id="use2" />
    <use
       ffdec:characterId="3"
       height="44.349998"
       transform="translate(-2,-2.05)"
       width="78.599998"
       xlink:href="#shape2"
       id="use3" />
  </g>
  <defs
     id="defs12">
    <g
       id="shape0"
       transform="translate(1.75,2)">
      <path
         d="M 2.8,0 V -0.4 H 5.4 V 0 H 9.7 V 19.45 0 H 20.55 L 19.3,19.45 H 9.7 0.25 V 0 H 2.8"
         fill="#ffffff"
         fill-rule="evenodd"
         stroke="none"
         id="path3" />
      <path
         d="M 0.25,19.45 H 9.7 19.3 L 18.7,28.6 16,28.5 10.95,27.95 9.7,27.8 Q 7.45,27.6 5.85,27.75 4.05,27.9 1.5,28.6 0.75,28.8 0.25,29.15 v -9.7 m 9.45,0 v 8.35 -8.35"
         fill="#121212"
         fill-rule="evenodd"
         stroke="none"
         id="path4" />
      <path
         d="m 9.7,27.8 1.25,0.15 5.05,0.55 2.7,0.1 h 1.05 l 3.75,0.15 q 2.45,0.3 3.6,1.25 0.6,0.5 0.6,1.1 0,0.65 -0.8,1 l -1.3,0.2 -7.15,0.15 -5.6,-0.3 L 9.7,31.75 7.95,31.6 3.1,31.95 0.95,32.3 0.25,32.1 -0.35,31.55 -0.5,31.3 V 29.9 L 0.25,29.15 Q 0.75,28.8 1.5,28.6 4.05,27.9 5.85,27.75 7.45,27.6 9.7,27.8 v 3.95 -3.95"
         fill="#999999"
         fill-rule="evenodd"
         stroke="none"
         id="path5" />
      <path
         d="M 2.8,0 H 0.25 M 9.7,0 H 5.4 m 16.15,0 h 10.7 M 20.55,0 H 9.7"
         fill="none"
         stroke="#666666"
         stroke-linecap="round"
         stroke-linejoin="round"
         stroke-width="4"
         id="path6" />
      <path
         d="m 9.7,-0.4 h 65 V 40.5 H 47.05 L 45.5,40.7 27,40.65 25.95,40.5 H 9.7 -0.5 V -0.4 H 9.7 V 40.5 -0.4"
         fill="#ffffff"
         fill-rule="evenodd"
         stroke="none"
         id="path7" />
    </g>
    <g
       id="shape1"
       transform="translate(1.9,1.55)">
      <path
         d="M 5.1,3.05 4.35,3.85 3.4,4.45 1.5,5.15 Q 0.25,5.75 -0.85,4.95 -2,4.2 -1.9,2.85 q 0.15,-1 1.05,-1.75 l 0.9,-0.65 0.7,-0.7 0.7,-0.7 q 0.9,-0.75 2.2,-0.6 1.35,0.25 1.8,1.4 0.4,0.75 0.1,2 -0.05,0.7 -0.45,1.2 m 49.55,10.75 -1.3,0.75 -0.8,2.05 q -0.9,1.45 -2.15,1.85 l -1.8,0.3 -0.2,0.4 -1.1,1.75 -0.6,0.7 q -0.6,0.45 -1.2,0 -0.6,-0.5 -0.35,-1.2 L 45.1,20.2 v -0.05 l -0.25,0.1 -1.6,0.35 -0.65,-0.15 q -0.55,-0.3 -0.45,-1.15 0.1,-0.55 0.65,-1.15 l 1.35,-1.3 0.7,-0.85 0.05,-0.05 v -0.1 L 44.95,14.7 45,14.25 H 43.95 L 43.05,13.95 42.3,13.2 41.9,12.2 41.95,12 41.3,11.85 Q 40.25,11.7 39.6,11.35 L 38.75,10.75 37.9,9.8 Q 37.55,9.15 37.75,8.4 37.9,7.65 38.45,7.25 38.95,6.95 40.4,6.7 42.6,6.35 44.6,5.5 l 1.55,-0.55 1.6,0.1 q 0.65,0.4 1.3,1.9 l 0.55,1.4 Q 50.25,7.7 51,7.4 l 2.15,-0.15 0.9,0.25 q 0.7,0.25 1.2,0.9 l 0.1,-0.05 1.15,-0.2 1.15,0.1 q 0.65,0.3 0.65,0.9 -0.05,0.6 -0.7,0.95 l -0.95,0.45 0.85,0.1 q 0.95,0.2 1.1,0.7 Q 58.85,12 58,12.4 l -1.3,0.25 -1.35,0.35 -0.7,0.8 M 53.6,10.25 52.65,10 Q 51.95,9.6 51.9,9 V 8.9 l -0.3,0.25 q -0.3,0.3 -0.3,0.8 0,0.45 0.3,0.8 0.45,0.5 1.15,0.35 0.7,-0.15 0.85,-0.85 m 9.85,29.8 -1.1,-0.1 -0.45,0.05 -0.35,0.4 q -0.75,1.2 -2.2,0.95 -1.05,-0.15 -1.6,-1 -0.6,-0.75 -0.5,-1.85 l 0.25,-1 q 0.4,-0.7 1.45,-1.35 l 1,-0.55 3.95,-0.15 0.9,0.25 q 0.6,0.2 1.6,1 l 0.65,0.65 0.45,0.7 q 0.45,1.15 0.35,2 l -0.5,0.9 q -0.4,0.4 -0.9,0.4 l -0.6,-0.1 -1.2,-0.6 -1.2,-0.6 M 35.8,31.2 l 0.8,-0.8 1,-0.7 q 0.45,-0.2 1,-0.3 l 3,0.25 0.95,0.55 q 1.25,0.95 1.7,2.4 0.4,1.55 -0.25,2.9 -0.8,1.45 -2.85,2.35 l -0.85,0.3 -2,0.05 -0.15,0.55 -0.55,1.1 v 0.4 q -0.25,1.5 -1.75,1.9 -1.45,0.35 -2.45,-0.8 L 33.25,41.1 32.2,41.5 Q 31.3,41.65 30.55,41 L 30.3,40.75 29.65,40.4 q -0.5,-0.5 -0.4,-1.6 0,-1.05 0.4,-2.15 l 1,-2.45 0.5,-0.9 q 0.4,-0.4 1,-0.55 l 1.1,0.1 q 1.05,0.45 1.15,1.65 l 0.35,-0.2 0.1,-0.8 Q 35.1,32 35.8,31.2 M 24.35,11.75 q -1.2,1 -3.15,1 -1.3,0 -2.45,-0.6 -1.3,-0.8 -1.65,-1.95 L 16.9,8.8 q 0,-1.75 0.7,-2.75 0.9,-1.45 2.8,-1.9 l 2.2,0.05 q 1.1,0.3 1.8,1.1 l 0.45,0.6 q 0.95,1.4 0.85,3.05 -0.1,1.7 -1.35,2.8 M 7.3,19.6 7.55,19.15 H 7.6 Q 7.05,18.8 6.8,18.15 6.3,16.9 7.3,15.95 7.75,15.45 8.45,15.4 l 1.25,0.25 0.8,0.9 0.4,-0.05 q 1.45,-0.15 2.65,0.8 0.9,0.7 1.55,2.4 l 0.25,0.9 q 0.1,0.9 -0.45,2.25 l -0.4,0.75 q -0.7,1.1 -2.25,1.45 L 10.2,24.95 9.45,29.7 9,31.1 q -0.55,0.85 -1.6,0.95 -0.9,0.1 -1.65,-0.7 L 5.1,32.6 3.85,33.15 2.75,32.95 Q 1.95,33.75 1.1,33.5 0.55,33.4 0.15,32.9 l -0.4,-1.1 0.2,-1.25 Q 0.5,27.75 0.65,25.2 L 0.6,24.65 0.25,24.15 q -0.8,-1 -0.5,-2.2 0.35,-1.25 1.6,-1.6 1.2,-0.45 2.15,0.5 l 0.6,0.8 0.7,1.95 1.45,-2.15 0.75,-1 0.3,-0.85 m 14.65,20.5 q -0.45,0.6 -1.3,0.85 l -0.5,0.1 -0.45,0.2 L 17.95,41 q -0.75,-0.6 -0.85,-1.55 -0.05,-1.1 1,-2.65 1,-1.6 1.8,-2.1 l 0.5,-0.35 0.3,-0.4 q 1.05,-1.25 1.85,-1.4 L 24,32.7 q 0.7,0.3 1.15,0.95 l 0.5,1.05 0.45,0.85 -0.05,1.7 -0.1,1.75 q -0.15,1 -0.8,1.55 -0.7,0.45 -1.6,0.3 L 23.05,40.7 H 23 q -0.7,-0.1 -1.05,-0.6"
         fill="#999999"
         fill-rule="evenodd"
         stroke="none"
         id="path8" />
      <path
         d="m 53.6,10.25 q -0.15,0.7 -0.85,0.85 -0.7,0.15 -1.15,-0.35 -0.3,-0.35 -0.3,-0.8 0,-0.5 0.3,-0.8 L 51.9,8.9 V 9 q 0.05,0.6 0.75,1 l 0.95,0.25"
         fill="#ffffff"
         fill-rule="evenodd"
         stroke="none"
         id="path9" />
      <path
         d="m 62.85,24.6 q 0.85,0.45 2.05,2.05 l 1.05,2 q 0.65,1.85 -0.2,4.15 -0.55,1.6 -1.7,2.75 -1.15,1.25 -2.65,1.7 -2.2,0.6 -4.55,-0.55 l -0.05,1.1 -0.15,2.15 -0.3,0.85 H 44.15 L 44.1,40.2 q 0.05,-0.6 0.5,-1.3 l 0.85,-1.2 0.5,-0.85 1.85,-3.8 -0.75,-0.15 q -0.85,-0.25 -1.45,-0.85 -0.85,-0.8 -1.15,-2 -0.35,-1.2 -0.05,-2.3 0.2,-0.85 0.8,-1.8 0.5,-0.85 1.1,-1.4 1.15,-1.15 2.85,-1.05 1.6,0.1 2.65,1.4 0.6,0.75 0.85,1.95 0.35,1.65 0.15,3.6 l 0.3,-0.5 v -0.2 q 0.2,-1.75 1.7,-3.6 0.8,-1.1 1.7,-1.5 l 1.1,-0.3 q 0.05,-0.6 0.25,-0.95 l 0.2,-0.3 0.65,-0.5 2,0.15 0.45,0.4 0.3,0.6 0.2,0.45 1.2,0.4 m -30.2,-1.2 q 0,1.3 0.85,2.4 l 2.95,0.35 q 1.3,0.25 2.6,0.9 1.1,-0.4 1.7,-1.3 l 0.45,-0.8 H 41.1 Q 40.15,24.75 39.4,24 L 38.95,23.35 Q 37.6,21.4 37.3,19.85 v -1.3 l -1.65,0.1 q -1.1,0.3 -2,1.35 l -0.45,0.6 -0.35,1 -0.2,1.8 m 30.5,9.25 0.5,-0.5 -0.9,-0.5 -0.35,-0.5 Q 61.9,30.3 61.85,29.75 V 29.1 l 0.05,-0.4 -0.25,-0.05 q -1.4,0.1 -2,1.15 -0.55,0.9 -0.3,1.9 l 1.8,0.25 0.6,0.35 1.05,0.6 0.35,-0.25 M 42.7,13.9 q 2.6,5.75 1.8,11 -0.45,2.85 -1.95,5.3 Q 41,32.75 38.65,34.15 37.3,35 35.3,35.6 30.3,37 25.6,35.45 24.25,35 23.05,34.4 l -1.45,2 q -1.1,1.55 -1.65,2.55 L 18.6,40.8 H 15.95 L 11.9,39.3 q 1.2,1 1.25,1.5 H 10.4 L 10.2,40.5 9.85,40.8 H 7.1 l -0.7,-0.75 -1.9,0.7 q -1.1,0.15 -1.85,-0.5 -1.3,0.5 -2.3,-0.45 l -0.6,-1.05 Q -0.4,38.1 -0.2,37.55 L -0.15,37.5 -0.3,37.35 -0.6,36.9 V 34.65 Q 0,33.55 1.7,32.4 l 6.75,-4.35 q 3.8,-2.25 7.15,-3.45 -0.1,-5.5 0.95,-8.45 1.65,-4.65 6.1,-7.25 l -0.1,-0.45 -0.1,-1.65 0.1,-3.75 q 0,-1.15 0.3,-1.65 0.55,-1.05 1.95,-0.95 0.95,0.05 2.15,0.9 l 3.6,2.5 4.4,3.3 Q 37.7,7.8 39.65,9.45 41.4,11 42.7,13.9 M 6.25,5.35 9.2,5.05 q 0.85,0.1 1.45,0.35 0.55,0.25 0.95,0.65 1.3,1 1.85,2.45 l 0.2,0.05 h 0.25 1.5 l 1.5,0.1 q 1,0.2 1.05,0.85 l -0.45,0.75 -0.75,0.3 -0.65,0.2 -0.2,0.05 -1.35,0.3 -0.7,0.25 -0.2,0.9 1.05,0.4 0.5,0.3 0.55,0.55 0.35,0.55 -0.15,0.7 L 15.3,15 15.05,14.95 14.5,15.05 H 13.4 L 13.1,15 11.95,15.05 H 11.8 L 11.25,15.65 10,16.35 8.8,16.8 H 7.6 l -0.7,-0.1 -0.4,0.85 -0.1,0.35 -0.85,2.3 -0.4,0.65 1.2,0.05 0.95,0.4 0.3,0.2 0.15,0.25 0.05,0.05 q 0.55,-0.45 1.75,-0.85 l 0.75,-0.15 0.6,0.15 q 0.3,0.3 0.1,0.55 l -0.65,0.25 Q 9.9,21.8 9.3,22.3 l 0.35,0.05 0.6,0.3 0.45,0.3 0.2,0.5 -0.7,0.45 -0.9,-0.05 H 8.4 l -0.2,0.1 -0.3,0.2 -0.15,0.3 -0.3,0.85 -0.2,0.15 -0.5,-0.3 L 6.6,24.6 6.55,23.6 6.6,23.2 6.45,23.05 6,22.85 5.35,22.75 3.3,23.1 3.25,23.15 2.1,24 -0.1,24.05 -0.6,23.8 v -3.55 l 0.1,-0.1 -0.1,-0.05 V 12.15 L -0.5,12.1 0.7,11.65 1.55,11.5 h 0.5 q 0,-1.35 0.8,-2.9 1.35,-2.5 3.4,-3.25 m 23.45,25.9 1.2,-0.3 0.25,-0.1 0.1,0.35 0.9,1.4 q 0.75,0.75 1.55,0.3 l 0.6,-0.65 0.45,-0.85 0.5,-0.75 0.65,0.15 1.25,0.4 1.15,0.5 1.15,-0.25 Q 39.9,30.95 39.4,30.15 39.1,29.8 38.3,29.4 l -1.6,-0.7 -2.6,-0.5 -2,-0.1 -2.55,0.7 -0.8,0.5 q -0.5,0.55 -0.15,1.25 0.35,0.7 1.1,0.7 M 10.2,12.05 q 0.45,-0.4 0.7,-1 L 9.6,10.6 8.9,9.9 8.45,8.75 8.4,8.4 7.6,8.8 q -0.55,0.4 -0.75,1.05 -0.2,0.65 0.1,1.3 L 7.75,12.2 9,12.55 q 0.7,-0.05 1.2,-0.5"
         fill="#000000"
         fill-rule="evenodd"
         stroke="none"
         id="path10" />
      <path
         d="m 63.15,32.65 -0.35,0.25 -1.05,-0.6 -0.6,-0.35 -1.8,-0.25 q -0.25,-1 0.3,-1.9 0.6,-1.05 2,-1.15 l 0.25,0.05 -0.05,0.4 v 0.65 q 0.05,0.55 0.55,1.4 l 0.35,0.5 0.9,0.5 -0.5,0.5 m -30.5,-9.25 0.2,-1.8 0.35,-1 0.45,-0.6 q 0.9,-1.05 2,-1.35 l 1.65,-0.1 v 1.3 q 0.3,1.55 1.65,3.5 L 39.4,24 q 0.75,0.75 1.7,0.95 h 0.1 l -0.45,0.8 q -0.6,0.9 -1.7,1.3 -1.3,-0.65 -2.6,-0.9 L 33.5,25.8 Q 32.65,24.7 32.65,23.4 M 10.2,12.05 Q 9.7,12.5 9,12.55 L 7.75,12.2 6.95,11.15 Q 6.65,10.5 6.85,9.85 7.05,9.2 7.6,8.8 L 8.4,8.4 8.45,8.75 8.9,9.9 l 0.7,0.7 1.3,0.45 q -0.25,0.6 -0.7,1 m 19.5,19.2 q -0.75,0 -1.1,-0.7 -0.35,-0.7 0.15,-1.25 l 0.8,-0.5 2.55,-0.7 2,0.1 2.6,0.5 1.6,0.7 q 0.8,0.4 1.1,0.75 0.5,0.8 0.05,1.3 L 38.3,31.7 37.15,31.2 35.9,30.8 35.25,30.65 34.75,31.4 34.3,32.25 33.7,32.9 q -0.8,0.45 -1.55,-0.3 l -0.9,-1.4 -0.1,-0.35 -0.25,0.1 -1.2,0.3"
         fill="#ffffff"
         fill-rule="evenodd"
         stroke="none"
         id="path11" />
    </g>
    <g
       id="shape2"
       transform="translate(2,2.05)">
      <path
         d="M -0.5,-0.4 V -0.55 H 75.1 V -0.4 40.8 H -0.5 Z"
         fill="none"
         stroke="#000000"
         stroke-linecap="round"
         stroke-linejoin="round"
         stroke-width="3"
         id="path12" />
    </g>
  </defs>
</svg>
