<?xml version="1.0" encoding="UTF-8" standalone="no"?>
<svg
   ffdec:objectType="frame"
   height="44.349998"
   width="78.599998"
   version="1.1"
   id="svg11"
   sodipodi:docname="139.svg"
   xmlns:inkscape="http://www.inkscape.org/namespaces/inkscape"
   xmlns:sodipodi="http://sodipodi.sourceforge.net/DTD/sodipodi-0.dtd"
   xmlns:xlink="http://www.w3.org/1999/xlink"
   xmlns="http://www.w3.org/2000/svg"
   xmlns:svg="http://www.w3.org/2000/svg"
   xmlns:ffdec="https://www.free-decompiler.com/flash">
  <sodipodi:namedview
     id="namedview11"
     pagecolor="#ffffff"
     bordercolor="#000000"
     borderopacity="0.25"
     inkscape:showpageshadow="2"
     inkscape:pageopacity="0.0"
     inkscape:pagecheckerboard="0"
     inkscape:deskcolor="#d1d1d1"
     fit-margin-top="5"
     fit-margin-left="5"
     fit-margin-right="5"
     fit-margin-bottom="5" />
  <g
     transform="translate(2,2.05)"
     id="g3">
    <use
       ffdec:characterId="1"
       height="42.700001"
       transform="translate(-1.75,-2)"
       width="76.449997"
       xlink:href="#shape0"
       id="use1" />
    <use
       ffdec:characterId="139"
       height="40.75"
       transform="translate(4.7,0.95)"
       width="69.099998"
       xlink:href="#shape1"
       id="use2" />
    <use
       ffdec:characterId="3"
       height="44.349998"
       transform="translate(-2,-2.05)"
       width="78.599998"
       xlink:href="#shape2"
       id="use3" />
  </g>
  <defs
     id="defs11">
    <g
       id="shape0"
       transform="translate(1.75,2)">
      <path
         d="M 2.8,0 V -0.4 H 5.4 V 0 H 9.7 V 19.45 0 H 20.55 L 19.3,19.45 H 9.7 0.25 V 0 H 2.8"
         fill="#ffffff"
         fill-rule="evenodd"
         stroke="none"
         id="path3" />
      <path
         d="M 0.25,19.45 H 9.7 19.3 L 18.7,28.6 16,28.5 10.95,27.95 9.7,27.8 Q 7.45,27.6 5.85,27.75 4.05,27.9 1.5,28.6 0.75,28.8 0.25,29.15 v -9.7 m 9.45,0 v 8.35 -8.35"
         fill="#121212"
         fill-rule="evenodd"
         stroke="none"
         id="path4" />
      <path
         d="m 9.7,27.8 1.25,0.15 5.05,0.55 2.7,0.1 h 1.05 l 3.75,0.15 q 2.45,0.3 3.6,1.25 0.6,0.5 0.6,1.1 0,0.65 -0.8,1 l -1.3,0.2 -7.15,0.15 -5.6,-0.3 L 9.7,31.75 7.95,31.6 3.1,31.95 0.95,32.3 0.25,32.1 -0.35,31.55 -0.5,31.3 V 29.9 L 0.25,29.15 Q 0.75,28.8 1.5,28.6 4.05,27.9 5.85,27.75 7.45,27.6 9.7,27.8 v 3.95 -3.95"
         fill="#999999"
         fill-rule="evenodd"
         stroke="none"
         id="path5" />
      <path
         d="M 2.8,0 H 0.25 M 9.7,0 H 5.4 m 16.15,0 h 10.7 M 20.55,0 H 9.7"
         fill="none"
         stroke="#666666"
         stroke-linecap="round"
         stroke-linejoin="round"
         stroke-width="4"
         id="path6" />
      <path
         d="m 9.7,-0.4 h 65 V 40.5 H 47.05 L 45.5,40.7 27,40.65 25.95,40.5 H 9.7 -0.5 V -0.4 H 9.7 V 40.5 -0.4"
         fill="#ffffff"
         fill-rule="evenodd"
         stroke="none"
         id="path7" />
    </g>
    <g
       id="shape1"
       transform="translate(-4.7,-0.95)">
      <path
         d="m 63.85,1.8 q 6.65,2.25 8.85,7.2 0.7,1.45 0.95,3.25 0.55,4 -1.25,7.8 -1.85,3.85 -5.3,5.85 -2.65,1.6 -6.6,2.2 l -3.45,0.2 -2.9,-0.6 -3.2,-0.95 Q 48.65,25.8 46.9,24 q -1.8,-1.85 -2.6,-4.15 -0.85,-2.3 -0.7,-4.8 0.15,-2.5 1.3,-4.7 l 1.9,-2.9 q 2.5,-3.15 4.45,-4.4 1.4,-0.85 3.15,-1.4 3.3,-0.9 6.05,-0.65 1.5,0.2 3.4,0.8 M 49.8,22.55 q 1.4,1.1 3.65,1.9 4.9,1.55 9.2,0.35 Q 64.9,24.2 66.8,22.75 68.75,21.3 69.85,19.3 72,15.3 70.6,11.05 70.1,9.5 69.2,8.45 68.35,7.35 66.9,6.4 64.3,4.65 61.15,4.15 l -6.1,0.3 q -3,0.9 -5.25,3.2 -2.3,2.3 -3,5.25 -0.65,2.65 0.15,5.3 0.8,2.7 2.85,4.35 M 56.35,17.7 53.9,17.95 52.85,17.7 q -0.35,-0.35 -0.1,-0.8 l -0.3,-0.45 q -0.35,-0.7 -0.1,-1.6 L 52.5,14.2 52.4,13.4 52.25,12.9 52.1,12.05 q 0,-0.6 0.4,-1.1 0.45,-0.55 1.2,-0.7 l 2.45,-0.1 0.95,0.1 q 0.55,0.15 0.95,0.7 l 0.3,0.75 -0.3,2.45 -0.15,0.65 -0.15,0.35 0.9,-0.1 1.7,-0.05 2.1,0.3 1.15,0.35 q 0.8,0.45 0.7,1.4 Q 64.2,18 63.4,18.3 L 61.7,18.35 60.35,17.9 59,17.65 56.35,17.7 m -36.1,-3.3 1.2,-0.2 q 0.7,0 1.05,0.45 0.45,0.5 0.35,1.1 -0.1,0.8 -0.9,1.25 l -0.7,0.25 0.2,0.15 q 0.25,0.4 0,0.8 l -0.7,0.45 -0.4,0.1 -0.1,0.3 q -0.15,1 -1.25,1.1 l -0.85,-0.2 Q 17.7,19.7 17.55,19.25 17.3,18.5 17.75,17.8 18.2,17.2 19,16.95 h 0.1 Q 18.6,16.7 18.45,16.1 18.3,15.4 18.8,14.9 q 0.4,-0.5 0.8,-0.5 h 0.65 m -3.4,-3.5 h -0.9 L 15,11.05 Q 14,10.95 13.75,10 13.7,9.6 13.9,9.15 14.1,8.75 14.45,8.6 l 2,0.2 q 0.85,0.25 1.45,0.65 0.7,0.55 0.85,1.25 0.1,0.65 -0.3,0.8 L 17.6,11.4 16.85,10.9 m 0.85,5.9 0.1,0.5 -0.25,0.55 q -0.45,0.45 -1.15,0.2 -0.5,-0.3 -0.5,-0.7 V 17 q 0.2,-0.5 0.55,-0.65 h 0.65 l 0.6,0.45"
         fill="#999999"
         fill-rule="evenodd"
         stroke="none"
         id="path8" />
      <path
         d="m 65.05,8.3 0.1,0.9 0.45,0.05 q 1.05,0.25 1.3,0.5 0.45,0.45 0.3,1.05 -0.05,0.6 -0.7,0.85 H 65.3 L 65,11.6 64.75,12.45 63.8,13 Q 63.2,13 62.85,12.45 62.5,12 62.7,11.1 l -0.2,-0.05 q -1.05,-0.4 -1.1,-1 0,-0.45 0.35,-0.7 0.45,-0.45 1.6,-0.4 l 0.2,-0.6 0.25,-0.6 q 0.25,-0.3 0.55,-0.3 0.6,0 0.7,0.85 M 57.9,18.9 62.4,19 62.75,17.65 Q 62.85,16.9 62.4,16.3 l -0.5,-0.4 -0.75,-0.45 -1.05,-0.3 -0.8,-0.05 -1.5,0.35 -0.55,-0.2 H 57.2 L 55.35,15.2 54.9,14.95 Q 54.65,14.7 54.8,14.5 l 0.4,-0.3 q 1,-0.45 1.7,-0.5 V 13.65 L 55.4,13.5 55,13.45 54.65,13.2 q -0.1,-0.3 0.3,-0.5 0.6,-0.4 1.7,-0.6 h 0.4 l 0.15,-0.7 -4.15,0.1 0.05,5.35 -0.1,1.15 -0.1,0.85 0.8,0.5 4.2,-0.45 m 6.9,-2.65 q 0.2,0.8 0.05,1.75 l -0.5,2.25 -0.3,0.7 q -0.25,0.4 -0.9,0.5 H 62.1 l -4.25,-0.25 -4.2,0.15 -0.8,-0.05 -1.15,0.2 q -0.6,0 -1,-0.5 -0.2,-0.25 -0.3,-0.9 v -1.6 l 0.1,-1.6 0.15,-5.9 q 0,-0.6 0.15,-0.85 Q 51,9.8 51.55,9.5 l 1,-0.25 3.95,-0.25 2,0.15 q 0.7,0.1 1,0.45 0.25,0.3 0.15,0.9 l -0.25,0.9 q -0.3,0.65 -0.45,1.5 2.65,-0.05 4.6,1.65 0.95,0.8 1.25,1.7 M 32.9,4 Q 34.8,3.7 37.5,3.95 39.7,4.2 41.45,4.8 L 44.05,4.1 46.6,3.25 47.25,3 q 0.65,-0.1 1.05,0.3 0.4,0.35 0.5,1.05 L 48.3,5.75 47.45,7.2 47,7.9 46.65,8.8 q 0.95,1.65 1.3,3.9 0.8,4.5 -1,8.7 -1.6,3.7 -4.65,5.8 l 4.15,0.2 4.05,-0.55 1.85,-0.85 v -0.45 l 0.2,-0.95 0.9,-0.8 1.45,-0.3 q 0.8,0.15 1.25,1 l 0.5,-0.1 Q 58,24.25 59,25 q 0.65,0.5 0.9,1.45 0.2,0.85 -0.05,1.7 -0.5,1.6 -2.25,2.55 -1.2,0.75 -3.25,1.1 l -5.35,0.65 -4.7,-0.4 -1.8,-0.3 0.7,1.6 q 1.5,3.75 1.45,7.05 h -21 l -0.1,0.2 -1.1,0.8 -1.1,0.3 q -0.55,0 -1.35,-0.6 -1.25,-1 -1.95,-2.5 -0.65,-1.55 -0.6,-3.15 L 17.3,33.7 16.7,33.85 16.1,34.1 q -0.35,0.25 -0.65,1.2 L 14.6,35.95 13.5,35.8 Q 12.9,35.4 12.65,34.45 12.5,34.1 12.5,33.6 12.45,32.3 13.65,31.35 14.5,30.7 16,30.35 l 2.25,-0.15 q 1.05,0.25 1.8,1.15 0.7,0.9 0.9,2 l 0.2,2.6 0.45,1.2 q 0.65,-3.3 3.15,-7.65 l 1.3,-2 -2.25,-1.45 q -2.3,-2 -2.95,-5.35 v -0.15 l -0.5,0.1 -6.9,1.5 -0.85,0.1 q -0.7,-0.1 -0.95,-0.75 l -0.3,-1.2 0.15,-2.05 0.05,-0.55 -4.1,0.4 H 6.35 Q 5.7,18 5.25,17.5 4.8,17.05 4.7,16.4 4.65,15.75 4.95,15.15 5.3,14.55 5.9,14.3 l 1.15,-0.25 1.8,-0.15 2.3,0.1 0.25,0.05 0.15,-0.3 q 0.4,-0.45 1.55,-0.55 l 4.9,-0.4 3.75,0.15 V 12.9 L 21.5,12.55 20.8,11.45 20.25,10.7 19.95,9.8 19.35,8.35 Q 19.1,7.45 19.4,6.85 19.75,6 20.5,5.95 l 1,0.05 0.7,-0.05 1.6,0.15 3.3,0.5 Q 30,4.55 32.9,4 m 2.95,14.65 -0.7,0.95 -0.85,0.75 -1.15,0.45 -1.2,-0.15 -0.55,-0.4 -0.65,-0.1 q -0.25,0.05 -0.35,0.5 l 0.1,0.6 q 0.5,1.05 1.9,1.3 0.85,0.2 1.7,0 0.25,0.8 0.9,1.4 0.75,0.65 1.65,0.7 1,0.05 1.8,-0.7 0.8,-0.7 1.05,-1.7 l 0.05,-0.4 2.3,-0.4 q 1.55,-0.65 1.8,-1.8 0.1,-0.8 -0.4,-1 -0.35,-0.15 -1.2,0.45 -0.8,0.6 -1.8,0.7 -1.05,0.1 -1.9,-0.4 L 37.2,18.65 q -0.85,-0.4 -1.35,0 m 3.6,-4.8 q -0.15,0.35 -0.05,0.85 0.1,1 0.9,1.65 0.8,0.55 1.85,0.4 l 1,-0.3 q 0.95,-0.45 1.1,-1.5 0.25,-1.05 -0.4,-1.85 -0.4,-0.6 -1.1,-0.9 L 41.4,12 q -0.7,0.1 -1.25,0.65 -0.55,0.5 -0.7,1.2 m 15.4,4.9 q -0.7,0.35 -1.15,-0.3 l -0.25,-0.7 q 0.1,-0.5 0.35,-0.7 0.5,-0.4 1.05,-0.15 l 0.6,0.6 q 0.15,0.4 -0.1,0.8 l -0.5,0.45 m -27.8,-2.9 h 0.3 l -0.6,0.3 -1.3,0.9 -0.35,0.5 q -0.1,0.35 0.05,0.6 0.2,0.3 0.55,0.2 l 0.45,-0.25 q 0.3,-0.25 1.2,-0.45 l 0.55,-0.2 1.2,-0.2 1.6,-0.45 q 0.45,-0.25 0.55,-0.75 0.1,-0.5 -0.25,-0.85 L 30.95,15.15 30.8,14.75 Q 30.45,14.2 29.45,14.1 l -1.55,0.15 -1.5,0.25 -1.2,0.2 q -0.7,0.2 -0.8,0.8 l 0.15,0.6 q 0.2,0.25 0.5,0.25 l 0.55,-0.3 1.45,-0.2 M 20.4,15.15 17.75,15.2 14,15.65 v 3.9 l 6,-1.4 0.65,-0.15 q 0.05,-1.4 0.4,-2.85 H 20.4 m -2.95,8.3 1.55,-1.4 q 0.6,-0.45 0.75,-0.55 l 0.5,-0.15 0.25,0.35 -0.05,0.45 -0.55,0.75 q -0.25,0.4 -0.3,1.35 l -0.25,1.4 -0.85,0.65 -1.1,-0.1 q -0.5,-0.25 -0.65,-0.85 -0.2,-0.6 0.05,-1.1 l 0.65,-0.8 m 19.2,-2.6 1.3,0.7 -0.4,0.85 q -0.45,0.55 -1.2,0.3 l -1,-0.65 1.3,-1.2 m -21.35,2.4 q 0.25,0.25 -0.05,0.6 l -0.45,0.4 q -0.65,0.5 -1.15,1.85 -0.35,1.05 -0.7,1.3 L 12.1,27.55 11.35,27.2 q -0.6,-0.7 -0.2,-1.6 l 0.65,-0.75 q 1.15,-1.1 2.75,-1.65 l 0.75,0.05"
         fill="#000000"
         fill-rule="evenodd"
         stroke="none"
         id="path9" />
      <path
         d="m 39.45,13.85 q 0.15,-0.7 0.7,-1.2 Q 40.7,12.1 41.4,12 l 1.35,0.2 q 0.7,0.3 1.1,0.9 0.65,0.8 0.4,1.85 -0.15,1.05 -1.1,1.5 l -1,0.3 Q 41.1,16.9 40.3,16.35 39.5,15.7 39.4,14.7 39.3,14.2 39.45,13.85 m -3.6,4.8 q 0.5,-0.4 1.35,0 l 1.15,0.75 q 0.85,0.5 1.9,0.4 1,-0.1 1.8,-0.7 0.85,-0.6 1.2,-0.45 0.5,0.2 0.4,1 -0.25,1.15 -1.8,1.8 l -2.3,0.4 -0.05,0.4 q -0.25,1 -1.05,1.7 -0.8,0.75 -1.8,0.7 -0.9,-0.05 -1.65,-0.7 -0.65,-0.6 -0.9,-1.4 -0.85,0.2 -1.7,0 -1.4,-0.25 -1.9,-1.3 l -0.1,-0.6 q 0.1,-0.45 0.35,-0.5 l 0.65,0.1 0.55,0.4 1.2,0.15 1.15,-0.45 0.85,-0.75 0.7,-0.95 m -8.8,-2.8 -1.45,0.2 -0.55,0.3 q -0.3,0 -0.5,-0.25 L 24.4,15.5 q 0.1,-0.6 0.8,-0.8 l 1.2,-0.2 1.5,-0.25 1.55,-0.15 q 1,0.1 1.35,0.65 l 0.15,0.4 0.05,0.05 q 0.35,0.35 0.25,0.85 -0.1,0.5 -0.55,0.75 l -1.6,0.45 -1.2,0.2 -0.55,0.2 q -0.9,0.2 -1.2,0.45 l -0.45,0.25 q -0.35,0.1 -0.55,-0.2 Q 25,17.9 25.1,17.55 l 0.35,-0.5 1.3,-0.9 0.6,-0.3 h -0.3 m 9.6,5 -1.3,1.2 1,0.65 q 0.75,0.25 1.2,-0.3 l 0.4,-0.85 -1.3,-0.7"
         fill="#ffffff"
         fill-rule="evenodd"
         stroke="none"
         id="path10" />
    </g>
    <g
       id="shape2"
       transform="translate(2,2.05)">
      <path
         d="M -0.5,-0.4 V -0.55 H 75.1 V -0.4 40.8 H -0.5 Z"
         fill="none"
         stroke="#000000"
         stroke-linecap="round"
         stroke-linejoin="round"
         stroke-width="3"
         id="path11" />
    </g>
  </defs>
</svg>
