<?xml version="1.0" encoding="UTF-8" standalone="no"?>
<svg
   ffdec:objectType="frame"
   height="44.349998"
   width="78.599998"
   version="1.1"
   id="svg12"
   sodipodi:docname="290.svg"
   xmlns:inkscape="http://www.inkscape.org/namespaces/inkscape"
   xmlns:sodipodi="http://sodipodi.sourceforge.net/DTD/sodipodi-0.dtd"
   xmlns:xlink="http://www.w3.org/1999/xlink"
   xmlns="http://www.w3.org/2000/svg"
   xmlns:svg="http://www.w3.org/2000/svg"
   xmlns:ffdec="https://www.free-decompiler.com/flash">
  <sodipodi:namedview
     id="namedview12"
     pagecolor="#ffffff"
     bordercolor="#000000"
     borderopacity="0.25"
     inkscape:showpageshadow="2"
     inkscape:pageopacity="0.0"
     inkscape:pagecheckerboard="0"
     inkscape:deskcolor="#d1d1d1"
     fit-margin-top="5"
     fit-margin-left="5"
     fit-margin-right="5"
     fit-margin-bottom="5" />
  <g
     transform="translate(2,2.05)"
     id="g3">
    <use
       ffdec:characterId="1"
       height="42.700001"
       transform="translate(-1.75,-2)"
       width="76.449997"
       xlink:href="#shape0"
       id="use1" />
    <use
       ffdec:characterId="284"
       height="39.650002"
       transform="translate(6.55,-1.45)"
       width="69.099998"
       xlink:href="#shape1"
       id="use2" />
    <use
       ffdec:characterId="3"
       height="44.349998"
       transform="translate(-2,-2.05)"
       width="78.599998"
       xlink:href="#shape2"
       id="use3" />
  </g>
  <defs
     id="defs12">
    <g
       id="shape0"
       transform="translate(1.75,2)">
      <path
         d="M 2.8,0 V -0.4 H 5.4 V 0 H 9.7 V 19.45 0 H 20.55 L 19.3,19.45 H 9.7 0.25 V 0 H 2.8"
         fill="#ffffff"
         fill-rule="evenodd"
         stroke="none"
         id="path3" />
      <path
         d="M 0.25,19.45 H 9.7 19.3 L 18.7,28.6 16,28.5 10.95,27.95 9.7,27.8 Q 7.45,27.6 5.85,27.75 4.05,27.9 1.5,28.6 0.75,28.8 0.25,29.15 v -9.7 m 9.45,0 v 8.35 -8.35"
         fill="#121212"
         fill-rule="evenodd"
         stroke="none"
         id="path4" />
      <path
         d="m 9.7,27.8 1.25,0.15 5.05,0.55 2.7,0.1 h 1.05 l 3.75,0.15 q 2.45,0.3 3.6,1.25 0.6,0.5 0.6,1.1 0,0.65 -0.8,1 l -1.3,0.2 -7.15,0.15 -5.6,-0.3 L 9.7,31.75 7.95,31.6 3.1,31.95 0.95,32.3 0.25,32.1 -0.35,31.55 -0.5,31.3 V 29.9 L 0.25,29.15 Q 0.75,28.8 1.5,28.6 4.05,27.9 5.85,27.75 7.45,27.6 9.7,27.8 v 3.95 -3.95"
         fill="#999999"
         fill-rule="evenodd"
         stroke="none"
         id="path5" />
      <path
         d="M 2.8,0 H 0.25 M 9.7,0 H 5.4 m 16.15,0 h 10.7 M 20.55,0 H 9.7"
         fill="none"
         stroke="#666666"
         stroke-linecap="round"
         stroke-linejoin="round"
         stroke-width="4"
         id="path6" />
      <path
         d="m 9.7,-0.4 h 65 V 40.5 H 47.05 L 45.5,40.7 27,40.65 25.95,40.5 H 9.7 -0.5 V -0.4 H 9.7 V 40.5 -0.4"
         fill="#ffffff"
         fill-rule="evenodd"
         stroke="none"
         id="path7" />
    </g>
    <g
       id="shape1"
       transform="translate(-6.55,1.45)">
      <path
         d="m 66.95,25.45 0.5,0.35 0.15,0.6 -0.45,0.35 -0.6,-0.05 -3.9,-1.5 -0.55,-0.15 h -0.3 l -0.3,-0.15 -0.05,-0.05 -0.15,-0.1 -0.5,-1 -0.65,-1.85 q -0.7,-1.45 -2.2,-2.75 L 55,17.05 51.4,14.85 50.1,14.55 45.15,14.2 40.55,14.8 39,15.1 q -0.7,0.2 -2.75,1.25 l -0.9,0.25 -0.6,-0.25 -0.4,-0.25 -1.05,-0.6 -0.65,-0.3 -1.1,-0.6 -0.05,-0.05 -0.1,-0.05 -0.65,-0.2 -0.55,-0.15 -3.1,0.1 q -2.9,0.45 -4.55,1.15 -3.1,1.3 -6.3,5.45 l -0.6,0.9 -0.6,1.1 q -0.45,0.45 -1.7,0.55 -3.3,0.4 -4.7,1.8 -0.55,0.45 -0.8,0.3 -0.35,-0.3 0.1,-0.85 1.5,-2 3.85,-2.65 v -0.3 l 0.05,-0.05 v -0.1 L 11.9,21.5 V 21.4 21.05 L 11.95,21 V 20.75 L 12,20.65 V 20 19.9 19.85 l 0.05,-0.05 v -0.3 l 0.05,-0.05 v -0.2 -0.1 -0.1 L 12.15,19 V 18.75 L 12.2,18.7 v -0.2 l 0.05,-0.1 v -0.05 l 0.05,-0.05 0.1,-0.05 0.05,-0.05 0.1,-0.05 h 0.15 l 0.15,0.05 0.1,0.05 0.1,0.05 v 0.05 l 0.1,0.1 v 0.05 l 0.05,0.05 v 0.1 0.1 0.05 l 0.05,0.05 v 0.5 l 0.05,0.05 v 0.1 0.2 l 0.05,0.05 v 0.2 L 13.4,19.9 v -0.2 l 0.05,-0.05 V 19.5 19.4 18.85 L 13.5,18.8 v -0.05 -0.1 -0.2 L 13.55,18.4 V 18.05 L 13.6,18 v -0.1 -0.2 l 0.05,-0.05 v -0.4 -0.1 -0.25 l 0.05,-0.05 v -0.4 -0.1 -0.15 l 0.05,-0.05 V 15.9 L 13.8,15.85 V 15.7 15.6 15.4 l 0.05,-0.05 v -0.4 l 0.05,-0.1 V 14.7 l 0.05,-0.05 V 14.6 L 14,14.55 14.05,14.5 14.15,14.45 14.2,14.4 h 0.1 0.05 l 0.15,0.05 0.1,0.05 0.1,0.1 v 0.05 l 0.05,0.05 v 0.35 l 0.05,0.05 v 0.1 0.2 l 0.05,0.05 v 0.4 l 0.05,0.1 v 0.2 l 0.05,0.05 v 0.4 0.1 L 15,16.75 v 0.65 0.1 0.1 l 0.05,0.05 V 18 l 0.05,0.05 v 0.1 0.1 0.2 l 0.05,0.05 v 0.15 l 0.05,0.05 v 0.2 0.1 0.25 q 1.1,-1.45 2.3,-2.55 l -0.05,-0.05 v -0.1 L 17.4,16.5 v -0.05 -0.1 L 17.35,16.3 V 15.9 L 17.4,15.85 V 15.7 15.6 15.45 L 17.45,15.4 V 15.05 L 17.5,15 V 14.95 14.85 14.2 14.1 13.95 L 17.55,13.9 V 13.65 L 17.6,13.6 v -0.15 -0.1 -0.55 l 0.05,-0.05 V 12.7 12.6 12.5 L 17.7,12.45 V 12.1 l 0.05,-0.05 V 11.9 11.8 L 17.8,11.75 V 11.5 l 0.05,-0.05 v -0.3 -0.1 -0.2 L 17.9,10.8 v -0.1 l 0.05,-0.05 V 10.4 L 18,10.3 V 9.65 9.55 9.4 L 18.05,9.35 V 8.9 8.8 8.6 L 18.1,8.55 V 8.25 L 18.15,8.2 V 8.15 8.05 L 18.2,8 18.25,7.95 V 7.9 L 18.3,7.85 V 7.8 L 18.35,7.75 V 7.7 L 18.45,7.65 18.5,7.6 h 0.1 L 18.75,7.65 18.8,7.7 18.85,7.75 18.9,7.8 18.95,7.85 19,7.9 V 8 l 0.05,0.05 V 8.3 l 0.05,0.1 v 0.3 l 0.05,0.05 v 0.3 0.1 0.2 L 19.2,9.4 v 0.4 0.1 0.45 l 0.05,0.05 v 0.15 0.1 0.05 l 0.05,0.05 v 0.35 l 0.05,0.05 v 0.15 0.1 0.25 l 0.05,0.05 v 0.2 l 0.05,0.05 v 0.1 l 0.05,0.1 v 0.35 l 0.05,0.05 v 0.3 0.1 L 19.6,13 v 0.6 0.1 0.05 l 0.05,0.05 v 0.05 L 19.7,13.8 V 13.75 L 19.75,13.7 V 13.6 L 19.8,13.55 V 13.5 l 0.05,-0.05 v -0.2 L 19.9,13.2 v -0.1 -0.2 l 0.05,-0.05 V 12.8 L 20,12.75 V 12.6 l 0.05,-0.05 V 12.4 12.3 L 20.1,12.25 V 11.9 l 0.05,-0.05 v -0.2 -0.1 -0.4 L 20.1,11.1 20.05,11.05 V 11 L 20,10.95 V 10.9 10.8 10.75 L 20.05,10.7 V 10.65 L 20.1,10.6 v -0.25 l 0.05,-0.05 v -0.05 l 0.1,-0.1 0.1,-0.1 h 0.15 0.05 0.1 l 0.1,0.1 0.05,0.05 0.05,0.05 v 0.3 l 0.05,0.05 v 0.2 0.1 0.65 0.1 0.05 l 0.05,0.05 v 0.3 L 21,12.1 v 0.2 0.1 0.05 l 0.05,0.05 v 0.15 l 0.05,0.05 v 0.15 l 0.05,0.05 v 0.2 l 0.05,0.1 v 0.15 l 0.05,0.05 v 0.1 l 0.05,0.05 v 0.05 l 0.05,0.05 v 0.15 l 0.05,0.05 v 0.1 0.1 l 1.2,-0.5 4.55,-1 1.65,-0.1 v -0.1 L 28.85,12.3 V 12.15 L 28.9,12.1 v -0.2 -0.1 -0.3 l 0.05,-0.05 v -0.3 -0.1 -0.2 L 29,10.8 v -0.3 l 0.05,-0.05 V 10.4 L 29.1,10.3 V 10.25 L 29.15,10.2 V 9.65 9.55 8.9 8.8 8.75 L 29.2,8.7 V 8.4 L 29.25,8.35 V 8.15 8.05 8 L 29.3,7.95 V 7.7 L 29.35,7.65 V 7.35 7.25 7.1 L 29.4,7.05 V 6.6 6.5 6.25 L 29.45,6.2 V 5.85 5.75 5.15 L 29.5,5.1 V 5 4.75 L 29.55,4.7 V 4.5 L 29.6,4.45 V 4.35 4.25 4 l 0.05,-0.05 v -0.1 l 0.1,-0.1 h 0.1 0.1 L 30,3.85 V 3.9 l 0.05,0.05 v 0.3 L 30.1,4.3 v 0.2 0.1 l 0.05,0.05 v 0.3 L 30.2,5 v 0.25 0.1 0.55 l 0.05,0.05 V 6 6.1 6.75 6.85 7.05 L 30.3,7.1 V 7.15 L 30.35,7.2 V 7.5 7.6 7.85 L 30.4,7.9 v 0.4 l 0.05,0.1 V 8.65 L 30.5,8.7 v 0.35 0.1 0.65 0.1 0.3 l 0.05,0.05 v 0.05 l 0.05,0.05 v 0.05 l 0.05,0.05 v 0.1 0.1 0.05 l 0.05,0.05 v 0.55 l 0.05,0.1 v 0.45 l 0.05,0.05 v 0.15 0.1 0.1 l 0.05,0.05 v 0.1 l 0.05,0.05 V 12.6 H 31 l 0.05,0.05 0.05,-0.3 q 0.45,-1.8 1.95,-5.2 l 1.05,-2 0.9,-1.1 q 2.9,-3.2 6.9,-3.95 l 1.75,-0.75 3.4,-0.75 1.7,-0.05 q 3.15,0.1 6,1.55 0.45,0.2 0.9,0.5 l 0.4,-0.6 1.55,-0.15 0.65,0.35 1.65,0.2 0.1,0.05 1.3,-1 q 0.9,-0.55 1.65,-0.6 h 1.45 l 1.55,-0.05 1.55,0.05 q 2.15,0.3 4.25,2.7 1.8,2.05 2.05,4.15 0.3,2.7 -1.8,5.2 l -1.35,1.25 0.65,1.3 0.05,0.1 0.7,-0.05 0.8,-0.95 0.7,-1.35 0.75,-0.8 0.3,-0.35 0.15,0.1 q 1,0.75 0.9,1.95 l -0.05,0.5 q -0.15,1 -0.65,1.85 -0.75,1.3 -1.75,1.6 l -0.95,0.2 0.05,0.2 0.45,2 0.65,3.4 0.15,1.3 v 0.1 q 0.3,0.05 0.6,0.35 0.5,0.45 0.5,1.25 l -0.25,1.4 Q 74,27.9 73.15,28.45 L 70.55,28.6 69.15,27.65 68.8,26.6 68.6,26.3 68.45,26.05 67.25,25.2 67.1,25.1 V 25.05 L 67,24.85 66.95,24.8 v -0.1 l -0.1,-0.1 v -0.1 l -0.1,-0.2 V 24.2 L 66.7,24.15 v -0.2 l -0.05,-0.2 v -0.3 l -0.1,-0.1 v -0.1 L 66.3,22.9 66.25,22.5 v -0.05 l 0.1,-0.9 -0.3,-1 Q 65.7,20.1 65.15,20.1 l -0.55,0.1 -0.45,0.25 -0.3,0.45 -0.1,0.25 -0.15,0.7 -0.05,0.5 -0.2,0.75 Q 63.2,23.25 63.2,23 l -0.35,-0.35 -0.1,-0.5 -0.15,-0.45 -0.3,-0.65 -0.45,-1.4 -0.5,-0.9 -0.1,-0.2 V 18.3 l 0.35,-1.15 0.6,-1.45 -0.8,0.15 -1.7,0.1 q -1.75,-0.2 -3,-2 Q 56.1,13 55.6,11.7 L 55.1,10.25 Q 54.9,9.4 55,8.15 l -0.05,-0.9 -0.3,-0.9 Q 54.45,5.25 55.2,4.15 55.75,3.4 56.45,3.1 L 56.3,2.8 55.8,2 54.95,1.8 53.7,1.35 51.9,1 Q 48.7,0.55 46.75,0.95 l -1,0.25 q -1.3,0.45 -2.65,1.3 l -1.2,0.85 q -2.05,1.75 -3.1,4.3 -1.05,2.55 -0.8,5.2 v 0.85 l 0.65,-0.2 -0.1,-0.65 Q 38.4,10.1 39.75,7.4 l 0.5,-0.85 0.7,-0.85 q 1.5,-1.55 3,-2.6 L 44.6,3 V 3.35 L 44.3,3.6 q -1,0.7 -1.65,1.95 l -0.8,1.95 -0.3,1 q -0.55,1.95 -0.3,4.05 l 0.05,0.4 5.25,-0.5 2.85,0.15 v -0.2 -0.1 -0.1 l 0.05,-0.05 v -0.2 L 49.5,11.9 v -0.1 l 0.05,-0.05 v -0.1 -0.1 -0.2 L 49.6,11.3 V 11 l 0.05,-0.05 V 10.9 10.8 l 0.05,-0.05 v -0.3 l 0.05,-0.05 v -0.25 -0.1 -0.3 L 49.8,9.7 V 9.4 9.3 L 49.85,9.25 V 8.85 L 49.9,8.8 V 8.65 8.55 8.25 L 49.95,8.2 V 7.95 L 50,7.9 V 7.8 7.6 L 50.05,7.55 V 7.2 L 50.1,7.15 V 7.1 7 6.7 L 50.15,6.65 50.2,6.6 50.25,6.55 50.4,6.5 l 0.15,0.05 0.1,0.1 V 6.7 L 50.7,6.75 V 7 7.1 7.35 L 50.75,7.4 V 7.55 L 50.8,7.6 V 7.8 7.9 8 l 0.05,0.05 V 8.4 l 0.05,0.05 v 0.1 0.1 0.3 L 50.95,9 V 9.3 9.4 9.45 L 51,9.5 v 0.2 l 0.05,0.05 v 0.3 0.1 0.45 l 0.05,0.05 v 0.15 0.1 l 0.05,0.05 v 0.15 l 0.05,0.05 v 0.35 l 0.05,0.05 v 0.1 0.15 l 0.05,0.05 V 12 l 0.05,0.05 v 0.25 0.1 l 0.05,0.05 v 0.45 l 0.65,0.2 V 12.9 L 52.1,12.85 V 12.7 12.6 l 0.05,-0.05 v -0.4 L 52.2,12.1 v -0.2 -0.1 -0.05 l 0.05,-0.05 v -0.4 l 0.05,-0.05 v -0.1 -0.1 -0.1 L 52.35,10.9 V 10.45 L 52.4,10.4 V 10.3 9.65 9.55 9.5 L 52.45,9.45 52.5,9.4 52.55,9.35 52.65,9.3 h 0.1 0.05 0.15 L 53,9.4 53.1,9.45 V 9.5 l 0.05,0.05 v 0.5 0.1 0.05 l 0.05,0.05 v 0.55 l 0.05,0.1 v 0.35 l 0.05,0.05 v 0.25 0.1 l 0.05,0.05 V 12 l 0.05,0.05 v 0.25 0.1 l 0.05,0.05 v 0.35 l 0.05,0.05 v 0.2 l 0.05,0.05 v 0.1 0.1 l 0.05,0.05 v 0.2 l 0.05,0.05 v 0.25 0.1 l 0.1,0.05 3.05,2.2 q 3.15,2.2 4.25,3.9 v 0.15 l 1.2,3.35 0.25,0.45 0.55,0.25 0.8,0.05 0.3,-0.05 h 0.1 v -0.1 l 0.05,-0.05 v -0.1 -0.1 -0.3 L 64.35,23.6 V 23.45 L 64.4,23.4 v -0.1 -0.1 -0.05 l 0.05,-0.05 v -0.15 l 0.1,-0.2 v -0.3 l 0.3,-0.9 0.2,-0.25 h 0.1 l 0.05,0.05 v 0.05 0.1 0.15 l 0.05,0.05 v 0.05 l 0.05,0.05 v 0.15 L 65.35,22 v 0.2 0.1 0.2 l 0.05,0.05 v 0.25 l 0.05,0.05 v 0.1 0.1 0.35 l 0.05,0.05 v 0.1 l 0.05,0.05 v 0.1 0.1 0.25 l 0.05,0.05 v 0.15 l 0.05,0.05 v 0.05 l 0.05,0.05 v 0.05 0.1 0.05 l 0.05,0.05 v 0.2 l 0.3,0.15 0.05,0.15 0.6,0.3 v 0.05 l 0.25,-0.05 M 62.85,9.15 63.3,8.45 63.55,7.65 62.45,7.4 Q 61.05,7.05 60.4,6.3 L 59.85,5.55 59.7,5.3 H 59.65 L 59.2,5.6 Q 58.35,6.25 58.15,7.15 57.9,8.1 58.5,8.95 l 1,0.75 1.05,0.4 0.95,-0.05 0.4,-0.1 0.95,-0.8 M 71.6,7.75 V 7.35 L 71.4,6.25 71.2,5.9 70.55,5.2 69.5,6.2 68.25,7 l -1,0.35 -0.8,0.2 q 0.1,1.3 1.35,1.85 L 69.25,9.65 70.2,9.5 71,8.95 q 0.55,-0.6 0.6,-1.2 M 58.95,11.1 q -0.8,-0.8 -1.2,-1.85 H 57.7 l 0.55,1.6 0.55,1.4 q 0.5,1.1 1.4,1.45 l 1.5,0.15 1.45,-0.15 0.05,-0.15 Q 61.95,13.2 60.3,12.15 L 58.95,11.1 M 69,29.7 68.3,29.3 67.35,28.85 64.4,27.75 62.1,27.3 l -0.35,0.05 -0.8,-0.2 -2.2,0.05 q 0.3,-2.15 -0.9,-4.1 l -1.3,-1.75 -2,-2 -1.75,-1 -2.95,-1.2 -3.4,-0.45 q -2.95,-0.2 -4.4,0 -1.5,0.25 -3.15,0.85 -1.95,0.75 -2.65,1.2 l -1,0.35 -0.4,0.2 L 34.8,19.35 34.7,19.3 34,19.2 33.1,18.65 q -1.75,-1.15 -3.9,-1.3 l -2.7,0.1 -0.5,0.05 q -2.7,0.35 -5.1,2.2 -1.95,1.5 -3.75,4.15 -0.55,0.8 -0.75,1.5 l -2.6,0.35 -0.9,0.25 q -0.9,0.25 -1.6,0.6 l -0.8,0.25 q -1.1,0.65 -1.65,2.4 l -0.3,0.9 Q 8.2,30.65 7.7,30.5 7.4,30.45 7.2,30 L 7.15,29.25 Q 7.35,27.6 8.5,26.3 9.6,24.95 11.2,24.55 l 4.3,-0.75 0.9,-1.55 1.45,-2.3 q 3,-3.9 8.8,-4.7 l 2.1,-0.1 q 3.4,0.1 6.1,2.15 l 0.2,0.15 0.5,-0.3 q 1.6,-0.8 2.5,-1.1 l 2.1,-0.45 1.75,-0.35 4.45,-0.55 q 2.45,-0.1 4.4,0.75 l 2.95,1.6 q 2,1.2 2.55,1.7 l 0.05,0.05 0.6,0.3 q 1.9,1.15 3.5,4.9 l 0.35,1.55 q 4.25,0.55 6.6,1.85 1.7,0.95 1.95,2.25 L 69,29.7 m -12.8,-1 0.1,0.4 0.6,0.4 0.7,-0.05 0.2,-0.1 h 0.45 l 1.8,-0.1 2.45,0.4 1.65,0.1 1.1,0.25 q 0.55,0 0.8,-0.3 l 0.8,0.25 1.25,0.3 1.35,1.05 0.75,1.1 q 0.4,0.9 0.1,1.95 -0.25,1 -1.05,1.7 -1.5,1.25 -3.75,1.35 L 61.15,37.1 56.9,37.25 55.25,37.8 51.4,38.15 Q 48.55,37.3 47.05,37.3 L 45.8,37.2 q -0.75,-0.2 -0.75,-0.85 0,-0.4 0.45,-0.75 l 0.85,-0.25 q 1.95,-0.3 3.85,0 l 2.2,0.3 2.05,-0.5 1.5,-0.6 1.9,-0.35 4.15,-0.1 2.5,0.3 -0.7,-0.45 -1.65,-0.4 -4.3,-0.15 -3.8,0.6 -15.95,0.65 -0.35,-0.05 -2.4,1.15 q -2.95,1.3 -6.6,1.3 L 22,36.45 q -1.5,-0.25 -2.25,-0.7 l -0.2,0.05 -2.8,0.3 L 11.5,35.8 10.35,35.65 9.2,35.2 7.85,34.5 Q 6.8,33.9 6.65,33.2 6.25,32.1 7.5,31.35 L 9.65,30.9 q 1.05,0 1.55,0.35 l 0.45,0.7 q 0.1,0.45 -0.2,0.7 L 15,32.9 18,32.85 h 0.2 q 0.35,-0.95 1.3,-0.8 0.6,0.05 1.55,0.9 l 1.3,0.4 6.45,0.5 q 3.6,-0.15 6.3,-1.55 l 1.65,-0.85 1.85,-0.1 q 0.45,0.15 0.75,0.55 l 0.1,0.1 4,-0.15 L 52.6,31 q -0.15,-0.35 0,-0.75 0.2,-0.6 0.65,-0.9 0.65,-0.5 2.1,-0.6 L 56.2,28.7 m 10.6,4.5 -0.2,0.9 0.8,-0.5 -0.6,-0.55 v 0.15 m -32.55,-20.9 0.1,0.05 V 12.1 l -0.1,0.2"
         fill="#999999"
         fill-rule="evenodd"
         stroke="none"
         id="path8" />
      <path
         d="m 67.1,25.1 -0.05,0.25 -0.1,0.1 -0.25,0.05 V 25.45 L 66.1,25.15 66.05,25 65.9,24.65 v -0.1 l -0.15,-0.3 0.05,-0.2 v -0.3 l -0.05,-0.1 -0.05,-0.35 0.05,-0.15 v -0.3 L 65.7,22.55 65.75,22.5 65.5,21.65 65.35,21.3 h -0.2 -0.1 l -0.2,0.25 -0.3,0.9 v 0.3 l -0.1,0.2 -0.1,0.15 v 0.25 l -0.15,0.2 0.05,0.25 0.05,0.15 v 0.1 l -0.15,0.25 -0.3,0.05 -0.8,-0.05 -0.55,-0.25 -0.25,-0.45 -1.2,-3.35 V 20.1 L 61,19.85 60.85,19.7 60.75,19.5 v -0.35 l -0.15,-0.2 0.1,-0.45 q -0.2,-0.25 0.1,-0.45 l 0.35,0.2 0.05,0.25 0.05,0.05 0.1,0.2 0.5,0.9 0.45,1.4 0.3,0.65 0.15,0.45 0.1,0.5 0.35,0.35 q 0,0.25 0.15,0.1 l 0.2,-0.75 0.05,-0.5 0.15,-0.7 0.1,-0.25 0.3,-0.45 0.45,-0.25 0.55,-0.1 q 0.55,0 0.9,0.45 l 0.3,1 -0.1,0.9 v 0.05 l 0.05,0.4 0.25,0.35 v 0.1 l 0.1,0.1 v 0.3 l 0.05,0.2 v 0.2 l 0.05,0.05 v 0.1 l 0.1,0.2 v 0.1 l 0.1,0.1 v 0.1 l 0.05,0.05 0.1,0.2 V 25.1 M 71.6,7.75 Q 71.55,8.35 71,8.95 L 70.2,9.5 69.25,9.65 67.8,9.4 Q 66.55,8.85 66.45,7.55 l 0.8,-0.2 1,-0.35 1.25,-0.8 1.05,-1 0.65,0.7 0.2,0.35 0.2,1.1 v 0.4 m -8.75,1.4 -0.95,0.8 -0.4,0.1 -0.95,0.05 -1.05,-0.4 -1,-0.75 Q 57.9,8.1 58.15,7.15 58.35,6.25 59.2,5.6 l 0.45,-0.3 h 0.05 l 0.15,0.25 0.55,0.75 q 0.65,0.75 2.05,1.1 l 1.1,0.25 -0.25,0.8 -0.45,0.7 m -28.05,10.2 0.05,-0.05 0.4,-0.2 1,-0.35 q 0.7,-0.45 2.65,-1.2 1.65,-0.6 3.15,-0.85 1.45,-0.2 4.4,0 l 3.4,0.45 2.95,1.2 1.75,1 2,2 1.3,1.75 q 1.2,1.95 0.9,4.1 l 2.2,-0.05 0.8,0.2 0.35,-0.05 2.3,0.45 2.95,1.1 0.95,0.45 0.7,0.4 0.9,0.55 0.2,0.3 -0.1,0.1 h -0.1 l -1.8,-0.4 -1.25,-0.3 -0.8,-0.25 Q 65.8,30 65.25,30 l -1.1,-0.25 -1.65,-0.1 -2.45,-0.4 -1.8,0.1 H 57.8 l -0.2,0.1 -0.7,0.05 -0.6,-0.4 -0.1,-0.4 -0.1,-1.2 q 0.1,-1.65 -0.7,-2.8 L 54.5,23.55 53.2,22.2 50.95,20.9 Q 50.05,20.45 49.4,20.25 L 46.1,19.75 44.05,19.7 Q 40.3,19.75 36.5,22.3 L 35.45,22.9 34.3,22.75 Q 33.8,22.45 33.9,21.8 V 21.65 L 33.55,21.1 Q 33.4,20.6 33.9,20 q 0.25,-0.3 0.9,-0.65 m -23.5,7.2 q 0.7,-0.35 1.6,-0.6 l 0.9,-0.25 2.6,-0.35 q 0.2,-0.7 0.75,-1.5 1.8,-2.65 3.75,-4.15 2.4,-1.85 5.1,-2.2 l 0.5,-0.05 1.9,-0.05 1.9,0.15 q 1.15,0.25 1.6,1 l 0.2,0.8 -0.35,0.65 -0.7,0.2 h -2.6 l -2.55,0.25 q -2.35,0.5 -4.45,2.4 -1.7,1.65 -3.1,3.9 l -0.1,0.3 -0.65,0.55 -0.25,0.1 -0.55,-0.05 -0.35,-0.05 -1.1,-0.1 -1.55,0.2 -1.6,0.55 q -0.75,0.35 -0.95,0.45 l -1,0.9 -0.55,0.3 Q 9.35,30 9.1,29.75 8.8,29.4 9.1,28.8 l 0.55,-1 0.5,-0.5 1.15,-0.75"
         fill="#ffffff"
         fill-rule="evenodd"
         stroke="none"
         id="path9" />
      <path
         d="m 32.8,19.2 1.95,1.45 q 0.5,-0.35 1.05,-0.6 5.15,-2.6 9.85,-2.4 l 2.9,0.3 1.2,0.25 2.05,1 1.55,0.65 q 1.9,1 3.4,3.2 l 0.85,1.45 q 0.85,1.85 0.3,3.9 l -0.05,0.25 q 2.7,-0.25 4.4,-0.05 2.7,0.25 4.45,1.55 l 1.2,1.2 q 0.8,1.2 0.5,2.6 -0.3,1.45 -1.6,2.1 L 64.4,36.4 62.45,36.2 60.8,35.75 57.15,35.4 55.6,35.6 54.75,36.15 53.95,36.8 49.5,36.6 45.3,36.35 q 0.75,-1.25 2.35,-1.5 l 2.85,0.05 1.25,0.05 0.95,-0.5 0.85,-0.75 q 1.15,-0.9 3.95,-1 l 2.3,0.1 2.8,0.6 2.9,0.05 q -0.9,-1.15 -3,-1.6 l -3.8,-0.3 H 56.65 L 55.3,31.8 q -1.5,0.85 -4,1.1 l -4.35,0.25 q -6.45,0.1 -9.1,-0.2 L 37,32.85 36,33.6 34.75,34.25 33.6,34.7 30.35,35.35 q -3.45,0.2 -7.6,-0.8 L 21.2,34.1 19.6,33.1 19.45,33 Q 17,33.95 14.55,34 L 12.95,33.9 11.6,33.55 Q 10.95,33.4 10.4,33.05 9.3,32.25 9.05,30.95 8.9,29.6 9.75,28.5 q 0.6,-0.65 1.75,-1.2 2.5,-1.2 5.95,-1.15 0.25,-1.65 0.9,-2.7 L 19.1,22.5 q 1.75,-2 3.6,-3.1 2.25,-1.25 4.6,-1.35 l 3.4,0.5 2.1,0.65 M 23.9,27.5 23,27.65 22.4,28 22,28.4 q -0.4,0.35 -0.6,1.1 l 0.15,0.1 1.5,1.05 0.2,0.25 0.15,0.15 q 0.4,0.35 0.8,1.55 l 0.05,0.3 1.5,-0.5 1.1,-1.2 q 0.4,-0.85 0.1,-1.55 L 26.75,29.1 26.5,28.7 26.15,28.3 25.6,27.85 Q 24.9,27.4 23.9,27.5 m 9.1,0.7 -0.3,-0.5 -0.9,0.5 -0.4,0.3 -0.8,0.5 -0.2,0.15 -0.3,0.1 -1,0.4 -0.35,0.25 q 0.5,1.15 1.65,1.8 l 0.85,0.3 q 1.1,0.15 1.95,-0.7 L 33.65,30.6 33.6,29.3 33,28.2 M 20.05,26.7 V 26.5 L 19.95,26.1 19.9,26 v -0.7 l 0.05,-0.1 -0.05,-0.25 v -0.2 L 19.85,24.6 19.9,24.5 20,24.45 V 24.3 l -0.2,-0.1 -0.2,0.1 -0.1,0.2 -0.2,0.15 -0.2,0.3 -0.1,0.15 -0.1,0.2 -0.2,0.3 -0.15,0.35 -0.1,0.4 v 0.3 l -0.05,0.1 v 0.1 l -0.05,0.25 0.05,0.35 0.1,0.25 0.45,0.35 0.45,0.05 0.6,-0.5 0.1,-0.2 V 26.85 L 20.05,26.7 M 31.3,24.55 31.35,24.2 H 31.3 L 30.45,24.05 30,23.95 h -0.25 l -0.2,-0.1 h -0.4 -0.65 l -0.1,1 -0.8,0.1 q -0.6,0.25 -0.85,0.8 l -0.1,0.35 0.25,0.45 q 0.7,0.55 1.45,0.45 v 0.25 l 0.1,1.4 0.7,-0.3 0.3,-0.15 0.65,-0.25 1.3,-0.7 0.8,-0.3 -0.35,-0.5 q -0.5,-0.7 -0.55,-1.2 v -0.7 m 0.4,-2.2 Q 31.7,21.8 31.3,21.4 30.9,21 30.4,21 q -0.9,0.1 -1.3,0.8 l -0.35,0.7 0.55,0.1 0.65,0.1 0.15,0.1 h 0.25 l 0.6,0.15 h 0.2 l 0.15,0.1 0.25,0.1 0.15,-0.8 m -5.75,-1.3 -0.55,-0.45 -0.55,-0.25 -0.4,-0.05 -0.3,0.35 -0.25,0.15 -0.25,0.25 -0.3,0.2 -1.35,0.7 V 22 l -0.4,0.2 q -0.35,0.8 0.15,1.6 l 0.15,0.25 q 1,1 2.15,0.85 l 0.45,-0.1 1.2,-0.8 0.3,-0.35 0.2,-0.4 0.1,-0.35 q 0.2,-0.8 -0.1,-1.5 L 25.95,21.05 M 42.9,27.5 42.5,27.05 42.35,26.8 42.15,26.55 h -0.4 q -0.15,0 -0.15,0.15 l -0.05,0.15 0.05,0.45 v 0.25 l 0.05,0.15 -0.05,0.4 v 0.2 l -0.05,0.15 v 0.25 l -0.05,0.15 -0.05,0.3 v 0.65 l 0.5,0.55 1,-0.05 0.3,-0.4 0.05,-0.2 0.05,-0.25 -0.05,-0.1 V 29.1 L 43.25,28.75 43.2,28.6 v -0.15 l -0.05,-0.2 V 28.1 L 43.1,28 43,27.7 42.9,27.5 m 9.8,-2.55 0.1,0.15 0.15,0.1 0.05,0.1 0.25,0.05 v 0.05 h 0.35 v -0.05 l 0.6,-0.35 0.05,-0.1 0.1,-0.4 -0.05,-0.1 -0.05,-0.15 v -0.1 l -0.1,-0.1 v -0.2 l -0.3,-0.7 -0.2,-0.2 L 53.6,22.8 53.4,22.65 53,22.2 l -0.3,-0.1 -0.2,-0.15 -0.05,0.1 0.05,0.15 0.05,0.1 v 0.1 l -0.05,0.1 0.1,0.15 v 0.1 l 0.15,0.65 -0.05,0.2 v 0.45 l -0.15,0.5 0.05,0.2 v 0.1 l 0.1,0.1"
         fill="#000000"
         fill-rule="evenodd"
         stroke="none"
         id="path10" />
      <path
         d="m 52.7,24.95 -0.1,-0.1 v -0.1 l -0.05,-0.2 0.15,-0.5 V 23.6 l 0.05,-0.2 -0.15,-0.65 v -0.1 l -0.1,-0.15 0.05,-0.1 v -0.1 l -0.05,-0.1 -0.05,-0.15 0.05,-0.1 0.2,0.15 0.3,0.1 0.4,0.45 0.2,0.15 0.05,0.15 0.2,0.2 0.3,0.7 v 0.2 l 0.1,0.1 v 0.1 l 0.05,0.15 0.05,0.1 -0.1,0.4 -0.05,0.1 -0.6,0.35 V 25.4 H 53.25 V 25.35 L 53,25.3 52.95,25.2 52.8,25.1 52.7,24.95 m -9.8,2.55 0.1,0.2 0.1,0.3 0.05,0.1 v 0.15 l 0.05,0.2 v 0.15 l 0.05,0.15 0.05,0.35 v 0.25 l 0.05,0.1 -0.05,0.25 -0.05,0.2 -0.3,0.4 -1,0.05 -0.5,-0.55 v -0.65 l 0.05,-0.3 0.05,-0.15 V 28.45 L 41.6,28.3 V 28.1 L 41.65,27.7 41.6,27.55 V 27.3 L 41.55,26.85 41.6,26.7 q 0,-0.15 0.15,-0.15 h 0.4 l 0.2,0.25 0.15,0.25 0.4,0.45 M 25.95,21.05 26.2,21.4 q 0.3,0.7 0.1,1.5 l -0.1,0.35 -0.2,0.4 -0.3,0.35 -1.2,0.8 -0.45,0.1 Q 22.9,25.05 21.9,24.05 L 21.75,23.8 Q 21.25,23 21.6,22.2 L 22,22 v -0.05 l 1.35,-0.7 0.3,-0.2 0.25,-0.25 0.25,-0.15 0.3,-0.35 0.4,0.05 0.55,0.25 0.55,0.45 m 5.75,1.3 -0.15,0.8 -0.25,-0.1 -0.15,-0.1 h -0.2 L 30.35,22.8 H 30.1 L 29.95,22.7 29.3,22.6 28.75,22.5 29.1,21.8 q 0.4,-0.7 1.3,-0.8 0.5,0 0.9,0.4 0.4,0.4 0.4,0.95 m -0.4,2.2 v 0.7 q 0.05,0.5 0.55,1.2 l 0.35,0.5 -0.8,0.3 -1.3,0.7 -0.65,0.25 -0.3,0.15 -0.7,0.3 -0.1,-1.4 V 27 Q 27.6,27.1 26.9,26.55 l -0.25,-0.45 0.1,-0.35 Q 27,25.2 27.6,24.95 l 0.8,-0.1 0.1,-1 h 0.65 0.4 l 0.2,0.1 H 30 l 0.45,0.1 0.85,0.15 h 0.05 L 31.3,24.55 M 20.05,26.7 20.1,26.85 V 27.4 L 20,27.6 19.4,28.1 18.95,28.05 18.5,27.7 18.4,27.45 18.35,27.1 18.4,26.85 v -0.1 l 0.05,-0.1 v -0.3 l 0.1,-0.4 0.15,-0.35 0.2,-0.3 0.1,-0.2 0.1,-0.15 0.2,-0.3 0.2,-0.15 0.1,-0.2 0.2,-0.1 0.2,0.1 v 0.15 l -0.1,0.05 -0.05,0.1 0.05,0.15 v 0.2 l 0.05,0.25 -0.05,0.1 V 26 l 0.05,0.1 0.1,0.4 v 0.2 m 12.95,1.5 0.6,1.1 0.05,1.3 -0.45,0.7 Q 32.35,32.15 31.25,32 L 30.4,31.7 q -1.15,-0.65 -1.65,-1.8 l 0.35,-0.25 1,-0.4 0.3,-0.1 0.2,-0.15 0.8,-0.5 0.4,-0.3 0.9,-0.5 0.3,0.5 m -9.1,-0.7 q 1,-0.1 1.7,0.35 l 0.55,0.45 0.35,0.4 0.25,0.4 0.2,0.55 q 0.3,0.7 -0.1,1.55 l -1.1,1.2 -1.5,0.5 -0.05,-0.3 Q 23.8,31.4 23.4,31.05 L 23.25,30.9 23.05,30.65 21.55,29.6 21.4,29.5 Q 21.6,28.75 22,28.4 L 22.4,28 23,27.65 23.9,27.5"
         fill="#ffffff"
         fill-rule="evenodd"
         stroke="none"
         id="path11" />
    </g>
    <g
       id="shape2"
       transform="translate(2,2.05)">
      <path
         d="M -0.5,-0.4 V -0.55 H 75.1 V -0.4 40.8 H -0.5 Z"
         fill="none"
         stroke="#000000"
         stroke-linecap="round"
         stroke-linejoin="round"
         stroke-width="3"
         id="path12" />
    </g>
  </defs>
</svg>
