<?xml version="1.0" encoding="UTF-8" standalone="no"?>
<svg
   ffdec:objectType="frame"
   height="44.349998"
   width="78.599998"
   version="1.1"
   id="svg10"
   sodipodi:docname="108.svg"
   xmlns:inkscape="http://www.inkscape.org/namespaces/inkscape"
   xmlns:sodipodi="http://sodipodi.sourceforge.net/DTD/sodipodi-0.dtd"
   xmlns:xlink="http://www.w3.org/1999/xlink"
   xmlns="http://www.w3.org/2000/svg"
   xmlns:svg="http://www.w3.org/2000/svg"
   xmlns:ffdec="https://www.free-decompiler.com/flash">
  <sodipodi:namedview
     id="namedview10"
     pagecolor="#ffffff"
     bordercolor="#000000"
     borderopacity="0.25"
     inkscape:showpageshadow="2"
     inkscape:pageopacity="0.0"
     inkscape:pagecheckerboard="0"
     inkscape:deskcolor="#d1d1d1"
     fit-margin-top="5"
     fit-margin-left="5"
     fit-margin-right="5"
     fit-margin-bottom="5" />
  <g
     transform="translate(2,2.05)"
     id="g3">
    <use
       ffdec:characterId="1"
       height="42.700001"
       transform="translate(-1.75,-2)"
       width="76.449997"
       xlink:href="#shape0"
       id="use1" />
    <use
       ffdec:characterId="110"
       height="34.049999"
       transform="translate(4.4,2.5)"
       width="65.449997"
       xlink:href="#shape1"
       id="use2" />
    <use
       ffdec:characterId="3"
       height="44.349998"
       transform="translate(-2,-2.05)"
       width="78.599998"
       xlink:href="#shape2"
       id="use3" />
  </g>
  <defs
     id="defs10">
    <g
       id="shape0"
       transform="translate(1.75,2)">
      <path
         d="M 2.8,0 V -0.4 H 5.4 V 0 H 9.7 V 19.45 0 H 20.55 L 19.3,19.45 H 9.7 0.25 V 0 H 2.8"
         fill="#ffffff"
         fill-rule="evenodd"
         stroke="none"
         id="path3" />
      <path
         d="M 0.25,19.45 H 9.7 19.3 L 18.7,28.6 16,28.5 10.95,27.95 9.7,27.8 Q 7.45,27.6 5.85,27.75 4.05,27.9 1.5,28.6 0.75,28.8 0.25,29.15 v -9.7 m 9.45,0 v 8.35 -8.35"
         fill="#121212"
         fill-rule="evenodd"
         stroke="none"
         id="path4" />
      <path
         d="m 9.7,27.8 1.25,0.15 5.05,0.55 2.7,0.1 h 1.05 l 3.75,0.15 q 2.45,0.3 3.6,1.25 0.6,0.5 0.6,1.1 0,0.65 -0.8,1 l -1.3,0.2 -7.15,0.15 -5.6,-0.3 L 9.7,31.75 7.95,31.6 3.1,31.95 0.95,32.3 0.25,32.1 -0.35,31.55 -0.5,31.3 V 29.9 L 0.25,29.15 Q 0.75,28.8 1.5,28.6 4.05,27.9 5.85,27.75 7.45,27.6 9.7,27.8 v 3.95 -3.95"
         fill="#999999"
         fill-rule="evenodd"
         stroke="none"
         id="path5" />
      <path
         d="M 2.8,0 H 0.25 M 9.7,0 H 5.4 m 16.15,0 h 10.7 M 20.55,0 H 9.7"
         fill="none"
         stroke="#666666"
         stroke-linecap="round"
         stroke-linejoin="round"
         stroke-width="4"
         id="path6" />
      <path
         d="m 9.7,-0.4 h 65 V 40.5 H 47.05 L 45.5,40.7 27,40.65 25.95,40.5 H 9.7 -0.5 V -0.4 H 9.7 V 40.5 -0.4"
         fill="#ffffff"
         fill-rule="evenodd"
         stroke="none"
         id="path7" />
    </g>
    <g
       id="shape1"
       transform="translate(-4.4,-2.5)">
      <path
         d="M 55.1,32.25 Q 54.7,30.3 54.6,26.3 v -9.8 q 0.1,-1.8 0.55,-2.5 0.65,-1 2.5,-1.6 l 2.9,-0.35 0.1,-0.55 Q 60,11 59.7,10.4 59.35,9.65 59.45,8.6 59.5,7.3 60.15,5.3 60.5,3.95 61.2,3.25 q 1,-1 2.3,-0.65 0.65,0.15 1.55,0.8 0.3,0.3 0.6,0.3 l 0.6,-0.2 2.1,-0.1 q 1.1,0.4 1.4,1.55 0.2,0.6 0,1.55 l -0.3,1.4 -0.25,1.2 -0.45,1.5 q -0.35,0.85 -1.05,1.1 l -0.55,0.3 -0.3,0.6 -0.35,1.35 q 1.6,0.95 2,2.45 0.3,1.1 0,2.8 l -1.1,6.9 q -0.8,3.8 -1.95,6.65 -0.85,2.25 -2.1,3.05 -1.45,1 -4,0.55 -2.45,-0.45 -3.4,-1.8 -0.55,-0.7 -0.85,-2.3 m 7.4,-7.6 -0.35,1.7 -0.95,3.4 -0.6,1.15 -0.65,0.5 v 0.05 l 0.4,0.05 0.45,0.15 0.25,-0.25 Q 62.1,29 63.1,23.9 l 0.4,-2.7 0.5,-2.9 v -0.4 l -0.3,-0.15 -1.15,-0.35 -0.95,-0.7 -0.45,-0.5 -0.5,0.05 -0.85,0.25 -0.3,0.15 -0.1,0.25 -0.15,1.45 0.05,1.4 0.75,-0.45 q 0.6,-0.15 1.15,0 0.85,0.1 1.35,0.6 0.75,0.7 0.65,2.25 l -0.4,1.8 -0.3,0.7 M 52.55,13 q -1.3,1.5 -5.05,1.8 l -0.7,0.05 v 0.6 l 0.05,3.95 -0.15,6.5 1.6,0.3 2.45,0.45 q 1.1,0.4 1.85,1.5 0.7,1.05 0.7,2.3 0,1.2 -0.7,2.3 -0.7,1.1 -1.8,1.65 -1.4,0.7 -4.35,0.7 L 30.05,35.15 26.1,35.1 q -2.9,-0.3 -4.15,-1.5 -1.6,-1.6 -1.05,-3.85 0.45,-2.1 2.55,-3.2 1.15,-0.6 2.95,-0.75 l 1.55,-0.15 -0.25,-5.8 Q 27.55,16.6 27.75,14.4 L 25,14.2 Q 22.4,13.75 21.5,11.9 21,10.85 21.25,9.6 21.5,8.4 22.3,7.45 23.8,5.8 26.55,5.45 L 31.35,5.6 45.65,6 48.4,5.95 q 1.5,0.05 2.55,0.6 1.85,0.95 2.4,2.85 0.5,2.15 -0.8,3.6 M 37.7,25.7 38.05,15.05 35.8,14.9 35.75,25.65 37.7,25.7 M 4.55,16.9 Q 5,15.8 6.65,14.9 L 7.8,14.3 7.75,13.55 7.65,13.1 6.35,12.45 4.8,11.2 Q 4.5,10.65 4.5,9.1 L 4.55,6.4 Q 4.55,5.15 4.7,4.75 5.15,3.7 6.4,3.35 l 2.3,0.1 0.85,0.1 1,-0.4 1.9,-0.1 q 1.05,0.3 1.5,1.25 l 0.35,1.75 0.05,2.6 q 0,1.35 -0.45,1.95 l -0.55,0.6 q -0.25,0.4 -0.25,1 l 0.05,0.65 1.1,-0.1 q 2.85,-0.1 4.1,1.3 0.75,0.75 0.95,2.1 l 0.1,2.4 -0.15,6.35 q -0.1,3.7 -0.55,6.3 -0.35,2.35 -1.25,3.45 -1.5,1.9 -4.75,1.9 -2.85,0 -4.2,-1.55 L 7.4,32.8 Q 6.25,29.3 4.95,22.1 l -0.4,-2.55 q -0.3,-1.75 0,-2.65 M 11.6,29 11.4,22.55 11.2,21.7 q -0.1,-0.75 0.35,-1.45 0.45,-0.65 1.15,-0.9 1.2,-0.25 1.95,0.5 l 0.1,0.1 v -2.6 l -3.5,0.35 q -0.7,0.15 -1.75,0.75 l -0.25,0.2 V 19 l 0.9,4.7 0.8,3.75 0.7,2.35 L 11.6,29 m 0.8,2.25 -0.5,-0.55 0.15,0.55 0.2,0.35 0.35,0.1 0.8,-0.05 q -0.55,-0.05 -1,-0.4"
         fill="#999999"
         fill-rule="evenodd"
         stroke="none"
         id="path8" />
      <path
         d="M 58.1,34.35 Q 57.45,33.95 57.2,33.25 57,32.5 56.75,29.9 l -0.2,-5.85 -0.1,-5.55 q -0.1,-2.35 0.05,-2.85 l 0.45,-0.7 1.8,-0.5 3.4,-0.25 0.35,-2.9 -0.2,-0.1 -1.25,-0.8 Q 60.25,9.8 60.3,9.2 60.35,8.6 60.9,8.4 60.3,7.7 60.35,7.3 60.45,6.75 61,6.5 L 61.7,6.35 Q 61.15,5.3 61.3,4.7 61.45,4.1 62.1,3.9 L 63.25,4 64.55,4.75 65,5.05 65.7,4.6 q 0.9,-0.55 1.5,-0.55 l 0.8,0.2 0.45,0.6 Q 68.6,5.45 68,6.1 L 67.85,6.25 67.9,6.3 q 0.5,0.25 0.5,0.8 l -0.6,1.1 -0.25,0.25 0.15,0.1 0.35,0.7 -0.2,0.75 -0.6,0.5 -1.5,0.8 -0.1,0.05 -0.85,3.45 1.4,0.65 q 0.95,0.6 1.25,1.15 0.3,0.7 0,2.2 l -0.9,4.25 -1.45,5.8 -0.5,1.7 q -0.45,3.25 -1.4,3.95 -0.95,0.65 -2.65,0.45 -1.75,-0.2 -2.45,-0.6 m 2.85,-3.95 0.3,-0.3 0.45,-0.6 0.2,-0.6 L 63.15,23 64,18.65 q -2.05,-0.9 -4.25,-0.35 v 5.5 4.5 l 0.25,2.05 0.5,0.05 h 0.45 M 25.4,7.7 h 1.05 0.1 3.45 0.55 1.5 1.25 l 4.05,0.05 h 5.4 3.9 0.75 l 1.5,0.05 h 0.25 0.15 l 0.4,0.15 0.25,0.1 0.15,0.05 0.1,0.05 0.2,0.15 0.15,0.1 0.2,0.15 0.1,0.1 0.1,0.1 L 51,8.9 51.1,9 51.15,9.1 51.3,9.25 v 0.1 l 0.1,0.2 v 0.1 l 0.05,0.1 V 9.8 l 0.05,0.1 v 0.1 0.15 0.1 0.15 0.1 0.1 0.15 0.1 0.1 0.15 l -0.05,0.1 -0.05,0.2 v 0.1 l -0.1,0.15 v 0.1 l -0.15,0.1 -0.05,0.15 -0.1,0.1 -0.05,0.15 -0.1,0.1 -0.1,0.1 -0.2,0.15 -0.05,0.05 -0.1,0.05 -0.2,0.1 -0.25,0.15 -0.25,0.1 -0.4,0.15 H 49.15 L 48.9,13.25 H 47.45 47.4 46.65 l -1.7,0.05 h -0.4 v 0.05 0.15 0.1 0.05 l 0.05,0.15 v 0.1 0.1 0.15 l 0.05,0.1 v 0.1 0.15 l 0.1,0.1 v 0.15 0.1 0.1 0.2 0.1 0.15 0.1 0.1 l 0.05,0.15 v 0.1 0.15 0.1 0.1 0.15 0.1 0.15 0.1 0.1 0.2 0.1 0.15 0.1 0.1 0.15 0.1 0.15 0.1 0.1 0.15 0.1 0.15 0.1 0.1 0.2 0.1 0.15 0.1 0.1 0.15 0.1 0.15 0.1 0.1 0.15 0.1 0.1 0.15 0.1 0.15 0.15 0.15 0.1 0.1 0.15 0.1 0.15 0.1 0.1 0.15 0.1 0.1 0.15 0.1 0.15 0.15 0.15 0.1 0.1 0.15 0.1 0.15 0.1 0.1 0.15 0.1 0.1 0.15 0.1 0.15 0.1 0.2 0.1 0.1 L 44.75,25 v 0.1 0.1 0.15 0.1 0.15 0.1 0.1 0.15 0.1 0.15 0.1 0.2 0.1 0.1 0.15 0.1 0.1 0.15 0.1 0.15 0.05 h 1.1 0.6 2.2 l 0.5,0.05 0.15,0.05 0.25,0.05 h 0.05 l 0.15,0.1 0.15,0.05 0.25,0.1 0.2,0.15 0.1,0.1 h 0.05 l 0.15,0.15 0.1,0.15 0.1,0.1 0.1,0.15 0.1,0.1 0.05,0.1 0.05,0.15 0.05,0.05 0.1,0.05 v 0.15 l 0.05,0.1 0.05,0.1 v 0.15 0.1 l 0.05,0.1 v 0.15 0.1 0.2 l 0.05,0.1 -0.05,0.15 v 0.1 0.1 L 51.4,30.9 v 0.1 0.15 l -0.05,0.1 -0.05,0.1 v 0.15 l -0.05,0.1 -0.1,0.1 -0.1,0.15 -0.05,0.1 -0.05,0.2 -0.2,0.1 -0.1,0.15 -0.05,0.05 -0.1,0.05 -0.1,0.1 -0.2,0.15 -0.25,0.1 -0.2,0.1 -0.25,0.1 -0.2,0.05 -0.15,0.05 H 48.65 46.6 43.55 40.8 37.35 V 33.1 h -1.5 -4.55 -1 -0.8 -1 -1.85 l -1.5,-0.05 h -0.4 L 24.4,32.9 24.1,32.8 23.95,32.75 23.85,32.7 23.7,32.55 23.5,32.45 23.3,32.3 23.2,32.2 23.15,32.1 23.1,31.95 22.95,31.85 22.9,31.7 22.8,31.6 v -0.1 l -0.05,-0.05 -0.1,-0.15 v -0.1 l -0.05,-0.15 -0.05,-0.1 v -0.1 -0.15 -0.1 -0.15 -0.1 -0.1 -0.15 -0.1 -0.15 -0.1 l 0.05,-0.1 0.05,-0.2 v -0.1 l 0.1,-0.1 0.05,-0.05 v -0.1 l 0.1,-0.1 0.05,-0.15 0.15,-0.1 0.05,-0.15 0.05,-0.1 0.05,-0.05 0.05,-0.05 0.2,-0.15 0.2,-0.1 0.15,-0.1 0.25,-0.15 0.3,-0.1 0.35,-0.15 0.4,-0.05 h 0.5 1 1.25 0.45 1.35 l -0.05,-0.05 v -0.1 L 29.6,27.3 29.5,27.2 29.45,27.05 v -0.1 -0.1 -0.15 L 29.4,26.6 v -0.1 -0.15 l -0.05,-0.1 V 26.1 26 25.9 25.7 25.6 25.45 25.35 25.2 L 29.3,25.1 v -0.1 -0.15 -0.1 -0.1 -0.15 -0.1 -0.15 -0.1 -0.1 -0.2 -0.1 V 23.6 23.5 23.4 23.25 23.15 23 22.9 22.8 22.65 22.55 22.4 22.3 22.2 22 21.9 21.75 21.65 21.55 21.4 21.3 21.15 21.05 20.95 20.8 20.7 20.55 20.45 20.35 20.2 20.05 19.9 19.8 19.7 19.55 19.45 19.3 19.2 19.1 18.95 18.85 18.7 18.6 18.5 18.35 18.2 18.05 17.95 17.85 17.7 17.6 17.45 17.35 17.25 17.1 17 16.9 16.75 16.65 16.5 16.4 16.2 16.1 16 l 0.05,-0.15 v -0.1 -0.15 -0.1 -0.1 -0.15 -0.1 -0.1 -0.15 -0.1 -0.15 -0.1 -0.2 -0.1 -0.1 V 14 13.9 13.8 13.65 13.55 13.4 13.35 h -0.1 -0.5 -0.7 -0.1 -2.55 L 24.15,12.95 23.5,12.55 23.45,12.5 23.3,12.4 23.2,12.3 23.15,12.15 23.05,12.1 22.95,11.85 22.85,11.15 22.6,10.7 V 10.55 L 22.55,10.45 22.6,10.3 V 10.2 10.1 L 22.65,9.95 V 9.85 9.7 L 22.7,9.6 22.8,9.5 V 9.35 L 22.85,9.25 22.9,9.1 23,9 23.1,8.9 23.15,8.7 23.3,8.6 23.45,8.45 23.55,8.35 23.7,8.25 23.85,8.1 23.95,8.05 24.1,8 24.35,7.85 24.55,7.8 24.75,7.75 24.95,7.7 H 25 25.4 m 12.65,19.85 h 1.25 v -0.05 -0.15 -0.1 l -0.05,-0.1 V 26.95 26.85 26.7 26.6 26.5 26.35 26.25 26.1 26 25.9 25.75 25.65 25.5 25.4 25.3 25.15 25 24.85 l -0.05,-0.1 v -0.1 -0.15 -0.1 -0.15 -0.1 -0.1 -0.15 -0.1 -0.15 -0.1 -0.1 V 23.3 23.15 23 22.9 22.8 22.65 22.55 22.4 22.3 22.2 22.05 21.95 21.8 21.7 21.6 21.45 21.3 21.15 21.05 20.95 20.8 20.7 20.55 20.45 20.35 20.2 20.1 20 19.85 19.75 19.6 19.5 19.3 19.2 19.1 18.95 18.85 18.7 18.6 18.5 18.35 18.25 18.15 18 17.9 17.75 17.65 17.45 17.35 17.25 17.1 17 16.9 16.75 16.65 16.5 16.4 16.3 16.15 16.05 15.9 15.8 l 0.05,-0.1 v -0.2 -0.1 -0.15 -0.1 l 0.05,-0.1 v -0.15 -0.1 -0.05 -0.1 -0.1 -0.1 -0.15 l 0.05,-0.1 v -0.15 l 0.05,-0.1 v -0.1 l 0.1,-0.2 v -0.1 L 39.55,13.4 39.6,13.3 H 39.25 35.6 34.75 v 0.05 0.15 0.1 l 0.1,0.1 v 0.2 0.1 0.15 0.1 0.1 0.15 0.1 0.15 0.1 0.1 0.15 0.1 0.15 0.1 0.1 0.15 0.15 0.15 l 0.05,0.1 v 0.1 0.15 0.1 0.15 0.1 0.1 0.15 0.1 0.1 0.15 0.1 0.15 0.15 0.15 0.1 0.1 0.15 0.1 0.15 0.1 0.1 0.15 0.1 0.1 0.15 0.1 0.15 0.15 0.15 0.1 0.1 0.15 0.1 0.1 0.15 0.1 0.15 0.1 0.1 0.15 0.1 0.15 0.1 0.2 0.1 0.1 0.15 0.1 0.1 0.15 0.1 0.15 0.1 0.1 0.15 0.1 0.15 0.1 0.2 0.1 0.1 0.15 0.1 0.1 0.15 0.1 0.15 0.1 0.1 0.15 0.1 0.15 0.1 l -0.05,0.1 v 0.2 0.1 0.15 0.1 l -0.1,0.1 v 0.15 0.1 0.15 0.1 0.1 0.15 l -0.05,0.1 v 0.1 0.05 l -0.05,0.1 V 27 l -0.05,0.2 v 0.1 l -0.05,0.15 -0.1,0.1 v 0.05 h 1.4 0.2 1.3 v -0.05 h 0.7 m -25,2.85 H 13.5 L 14,30.35 14.25,28.3 V 23.8 18.3 Q 12.05,17.75 10,18.65 l 0.85,4.35 1.25,5.9 0.2,0.6 0.45,0.6 0.3,0.3 m 2.85,3.95 -2.45,0.6 Q 11.75,35.15 10.8,34.5 9.85,33.8 9.4,30.55 L 8.9,28.85 Q 8.15,26.5 7.45,23.05 L 6.55,18.8 q -0.3,-1.5 0,-2.2 0.3,-0.55 1.25,-1.15 L 9.2,14.8 8.35,11.35 8.25,11.3 6.75,10.5 6.15,10 Q 5.9,9.7 5.95,9.25 L 6.3,8.55 6.45,8.45 6.2,8.2 5.6,7.1 Q 5.6,6.55 6.1,6.3 L 6.15,6.25 6,6.1 Q 5.4,5.45 5.55,4.85 5.6,4.45 6,4.25 6.35,4 6.8,4.05 7.4,4.05 8.3,4.6 L 9,5.05 9.45,4.75 10.75,4 11.9,3.9 q 0.65,0.2 0.8,0.8 0.15,0.6 -0.4,1.65 L 13,6.5 q 0.55,0.25 0.65,0.8 L 13.1,8.4 q 0.55,0.2 0.6,0.8 0.05,0.6 -0.75,1.2 l -1.25,0.8 -0.2,0.1 0.35,2.9 3.4,0.25 1.8,0.5 0.45,0.7 0.05,2.85 -0.1,5.55 -0.2,5.85 -0.45,3.35 q -0.25,0.7 -0.9,1.1"
         fill="#000000"
         fill-rule="evenodd"
         stroke="none"
         id="path9" />
    </g>
    <g
       id="shape2"
       transform="translate(2,2.05)">
      <path
         d="M -0.5,-0.4 V -0.55 H 75.1 V -0.4 40.8 H -0.5 Z"
         fill="none"
         stroke="#000000"
         stroke-linecap="round"
         stroke-linejoin="round"
         stroke-width="3"
         id="path10" />
    </g>
  </defs>
</svg>
