<?xml version="1.0" encoding="UTF-8" standalone="no"?>
<svg
   ffdec:objectType="frame"
   height="44.349998"
   width="78.599998"
   version="1.1"
   id="svg11"
   sodipodi:docname="43.svg"
   xmlns:inkscape="http://www.inkscape.org/namespaces/inkscape"
   xmlns:sodipodi="http://sodipodi.sourceforge.net/DTD/sodipodi-0.dtd"
   xmlns:xlink="http://www.w3.org/1999/xlink"
   xmlns="http://www.w3.org/2000/svg"
   xmlns:svg="http://www.w3.org/2000/svg"
   xmlns:ffdec="https://www.free-decompiler.com/flash">
  <sodipodi:namedview
     id="namedview11"
     pagecolor="#ffffff"
     bordercolor="#000000"
     borderopacity="0.25"
     inkscape:showpageshadow="2"
     inkscape:pageopacity="0.0"
     inkscape:pagecheckerboard="0"
     inkscape:deskcolor="#d1d1d1"
     fit-margin-top="5"
     fit-margin-left="5"
     fit-margin-right="5"
     fit-margin-bottom="5" />
  <g
     transform="translate(2,2.05)"
     id="g3">
    <use
       ffdec:characterId="1"
       height="42.700001"
       transform="translate(-1.75,-2)"
       width="76.449997"
       xlink:href="#shape0"
       id="use1" />
    <use
       ffdec:characterId="43"
       height="37.200001"
       transform="translate(0.65,1.6)"
       width="65.900002"
       xlink:href="#shape1"
       id="use2" />
    <use
       ffdec:characterId="3"
       height="44.349998"
       transform="translate(-2,-2.05)"
       width="78.599998"
       xlink:href="#shape2"
       id="use3" />
  </g>
  <defs
     id="defs11">
    <g
       id="shape0"
       transform="translate(1.75,2)">
      <path
         d="M 2.8,0 V -0.4 H 5.4 V 0 H 9.7 V 19.45 0 H 20.55 L 19.3,19.45 H 9.7 0.25 V 0 H 2.8"
         fill="#ffffff"
         fill-rule="evenodd"
         stroke="none"
         id="path3" />
      <path
         d="M 0.25,19.45 H 9.7 19.3 L 18.7,28.6 16,28.5 10.95,27.95 9.7,27.8 Q 7.45,27.6 5.85,27.75 4.05,27.9 1.5,28.6 0.75,28.8 0.25,29.15 v -9.7 m 9.45,0 v 8.35 -8.35"
         fill="#121212"
         fill-rule="evenodd"
         stroke="none"
         id="path4" />
      <path
         d="m 9.7,27.8 1.25,0.15 5.05,0.55 2.7,0.1 h 1.05 l 3.75,0.15 q 2.45,0.3 3.6,1.25 0.6,0.5 0.6,1.1 0,0.65 -0.8,1 l -1.3,0.2 -7.15,0.15 -5.6,-0.3 L 9.7,31.75 7.95,31.6 3.1,31.95 0.95,32.3 0.25,32.1 -0.35,31.55 -0.5,31.3 V 29.9 L 0.25,29.15 Q 0.75,28.8 1.5,28.6 4.05,27.9 5.85,27.75 7.45,27.6 9.7,27.8 v 3.95 -3.95"
         fill="#999999"
         fill-rule="evenodd"
         stroke="none"
         id="path5" />
      <path
         d="M 2.8,0 H 0.25 M 9.7,0 H 5.4 m 16.15,0 h 10.7 M 20.55,0 H 9.7"
         fill="none"
         stroke="#666666"
         stroke-linecap="round"
         stroke-linejoin="round"
         stroke-width="4"
         id="path6" />
      <path
         d="m 9.7,-0.4 h 65 V 40.5 H 47.05 L 45.5,40.7 27,40.65 25.95,40.5 H 9.7 -0.5 V -0.4 H 9.7 V 40.5 -0.4"
         fill="#ffffff"
         fill-rule="evenodd"
         stroke="none"
         id="path7" />
    </g>
    <g
       id="shape1"
       transform="translate(-0.65,-1.6)">
      <path
         d="m 66.55,14.8 q 0.1,2.55 -0.9,4.45 -0.95,1.65 -2.5,2.7 l 0.05,1.05 0.1,0.65 0.5,0.25 q 1.35,0.55 1.85,1.9 l 0.2,0.95 0.1,1.4 q -0.1,1.3 -1.8,2.85 0.3,0.5 0.2,1.15 l -0.55,1 q -0.6,0.5 -2.05,0.4 L 61.1,33.5 61,33.65 l -0.95,1.1 -1.3,0.15 -0.8,-0.15 q -0.75,0.7 -2.1,0.35 l -1.4,-0.85 h -0.1 l -1,0.25 -1.15,0.15 -1.35,-0.3 -0.55,-0.6 -0.35,-0.65 q -0.1,-0.65 0.35,-1.2 L 49.4,30.7 48.95,29.75 Q 47.3,30.3 46.4,30.8 l -1.6,1.1 0.65,-0.15 h 1.25 q 0.7,0 1.25,0.35 l 0.85,0.95 q 0.25,1.05 -0.55,1.8 -0.7,0.65 -1.75,0.75 l -2,-0.2 -2,-0.65 -0.8,-0.6 Q 41.45,33.8 41.45,33 l 0.1,-1.4 0.6,-0.95 q 1.05,-1.35 2.95,-2.3 1.15,-0.55 3.6,-1.3 l 0.5,-0.1 0.3,-0.65 q 0.65,-0.9 1.55,-1.4 l 0.75,-0.65 0.1,-0.6 0.25,-0.75 Q 52.3,22.3 52.55,22 L 51.5,21.25 q -1.15,-1 -1.7,-2.4 -0.6,-1.45 -0.45,-2.9 l 0.5,-2 0.8,-1.6 0.35,-0.5 -0.45,-0.7 -0.1,-1 0.1,-1.35 0.7,-1.5 0.3,-0.8 0.35,-0.8 q 0.35,-0.45 0.95,-0.55 l 1,0.3 0.6,0.75 0.75,1.4 0.55,0.75 5.05,-0.15 0.25,-0.25 1.8,-2 q 0.5,-0.8 0.95,-1.05 h 0.75 q 0.4,0.15 0.6,0.45 l 0.25,0.95 0.35,1.3 0.3,1.3 0.05,0.95 0.1,0.6 -0.05,0.55 0.1,0.55 0.05,0.7 v 0.2 l 0.25,2.35 m -40.8,0 q 0.1,2.55 -0.9,4.45 -0.95,1.65 -2.5,2.7 L 22.4,23 22.5,23.65 23,23.9 q 1.35,0.55 1.85,1.9 l 0.2,0.95 0.1,1.4 q -0.1,1.3 -1.8,2.85 0.3,0.5 0.2,1.15 -0.1,0.6 -0.55,1 -0.6,0.5 -2.05,0.4 l -0.65,-0.05 -0.1,0.15 -0.95,1.1 -1.3,0.15 -0.8,-0.15 q -0.75,0.7 -2.1,0.35 -1,-0.25 -1.4,-0.85 h -0.1 l -1,0.25 -1.15,0.15 q -0.95,0 -1.35,-0.3 L 9.5,33.75 9.15,33.1 Q 9.05,32.45 9.5,31.9 L 8.6,30.7 8.15,29.75 Q 6.5,30.3 5.6,30.8 L 4,31.9 4.65,31.75 H 5.9 q 0.7,0 1.25,0.35 L 8,33.05 Q 8.25,34.1 7.45,34.85 6.75,35.5 5.7,35.6 l -2,-0.2 -2,-0.65 -0.8,-0.6 Q 0.65,33.8 0.65,33 l 0.1,-1.4 0.6,-0.95 Q 2.4,29.3 4.3,28.35 l 3.6,-1.3 0.5,-0.1 0.3,-0.65 q 0.65,-0.9 1.55,-1.4 L 11,24.25 11.1,23.65 11.35,22.9 Q 11.5,22.3 11.75,22 L 10.7,21.25 Q 9.55,20.25 9,18.85 8.4,17.4 8.55,15.95 l 0.5,-2 0.8,-1.6 0.35,-0.5 -0.45,-0.7 -0.1,-1 0.1,-1.35 0.7,-1.5 0.3,-0.8 0.35,-0.8 q 0.35,-0.45 0.95,-0.55 0.5,-0.05 1,0.3 l 0.6,0.75 0.75,1.4 0.55,0.75 5.05,-0.15 0.25,-0.25 1.8,-2 Q 22.55,5.15 23,4.9 h 0.75 q 0.4,0.15 0.6,0.45 l 0.25,0.95 0.35,1.3 0.3,1.3 0.05,0.95 0.1,0.6 -0.05,0.55 0.1,0.55 0.05,0.7 v 0.2 l 0.25,2.35"
         fill="#999999"
         fill-rule="evenodd"
         stroke="none"
         id="path8" />
      <path
         d="m 48.25,13.6 q 0.05,3.15 -1.2,5.35 l -0.3,0.55 1.45,-0.1 1.4,0.15 q 1.6,0.35 2.45,1.8 0.85,1.4 0.25,3 -0.35,1.15 -1.3,1.7 -0.95,0.65 -2.05,0.35 -1.15,-0.35 -1.55,-1.5 l -0.1,-0.25 -0.25,0.05 q -0.45,0.1 -1,0.55 H 46 q 0.7,0.65 1.05,1.65 l 0.3,1.15 0.1,1.65 q -0.1,1.5 -1.95,3.3 l 0.35,0.65 0.2,0.5 q 0.15,0.6 -0.45,1.7 l -0.65,0.85 -1,0.5 -0.7,0.25 h -0.7 l -3,-0.55 -0.65,-0.3 -0.45,-0.4 -0.2,-0.2 h -0.5 -0.5 q -1.75,1.5 -4.95,1.6 l -1.15,-0.1 h -0.2 l -1.65,-0.35 -0.7,-0.7 -0.4,-0.8 Q 28.05,34.9 28.65,34.2 L 27.55,32.75 27,31.6 q -2,0.65 -3.1,1.25 -1.1,0.6 -1.85,1.35 L 22.8,34.1 24.3,34 q 0.8,0.05 1.55,0.45 0.7,0.45 0.9,1.15 0.4,1.25 -0.6,2.15 -0.8,0.8 -2.1,0.95 -1.4,0.25 -2.4,-0.3 -1.15,-0.05 -2.45,-0.75 -0.7,-0.35 -0.9,-0.7 -0.35,-0.45 -0.35,-1.4 0,-1.3 0.15,-1.7 l 0.65,-1.15 q 1.25,-1.6 3.6,-2.8 1.4,-0.65 4.35,-1.55 l 0.55,-0.15 0.4,-0.75 1.3,-1.3 Q 28.4,25.85 28.1,25.55 27.6,25 27.3,25.1 l -0.2,1.2 q -0.55,1.35 -2.2,1.5 -0.95,0.1 -1.9,-0.4 -0.9,-0.5 -1.1,-1.5 v -1.15 q 0.5,-2.6 2.8,-4 1.2,-0.55 2.8,-0.9 L 28.6,19.75 28,18.5 Q 27.25,16.8 27.45,15.05 L 28.05,12.6 29,10.65 29.45,10.1 28.9,9.25 28.8,8 28.9,6.35 29.75,4.6 l 0.4,-1 0.4,-1 Q 30.95,2.1 31.7,2 32.3,1.9 32.9,2.35 l 0.7,0.9 0.9,1.7 0.7,0.9 6.05,-0.2 0.3,-0.3 2.15,-2.4 q 0.7,-1 1.2,-1.25 0.4,-0.15 0.85,0 0.5,0.15 0.75,0.55 l 0.3,1.1 0.45,1.6 0.35,1.55 0.1,1.1 0.1,0.8 -0.05,0.65 0.1,0.6 0.05,0.9 v 0.25 q 0.35,1.25 0.35,2.8 M 30.4,14.35 q -0.1,0.4 -0.05,0.8 l 1.6,-0.2 2.15,0.4 0.05,-0.55 -0.3,-1.05 q -0.7,-1.1 -1.95,-0.85 -1.25,0.25 -1.5,1.45 m 11.5,3.7 q -0.45,-0.5 -1.9,-0.8 l -1.2,-0.4 v -0.5 L 38.5,15.1 q -0.2,-0.6 -0.6,-0.6 l -0.4,0.2 -0.2,0.35 -0.35,1.05 -0.15,0.65 v 0.1 l -0.4,0.1 -1.1,0.4 -0.95,0.5 q -0.5,0.4 -0.25,1 0.3,0.5 1.15,0.3 l 1.2,-0.45 1.55,0.25 1.9,0.7 1.95,-0.05 0.3,-0.75 -0.25,-0.8 m 3.05,-2.85 q 0.5,-1.25 -0.4,-2.25 -0.95,-1 -2.2,-0.6 -0.6,0.2 -1,0.7 -0.4,0.5 -0.45,1.1 -0.15,1.45 1.1,2.1 1.25,0.65 2.4,-0.3 l 0.55,-0.75 m 0.35,-4.75 0.8,0.05 0.55,-0.55 Q 46.95,9.3 46.4,8.55 45.9,7.9 45.05,7.55 L 43.4,7.45 q -1.75,0.3 -2.55,1.95 l -0.4,0.95 q -0.3,0.8 -0.25,1.25 1.05,-1.6 3.05,-2.1 h 0.9 l 0.6,0.5 0.55,0.45"
         fill="#000000"
         fill-rule="evenodd"
         stroke="none"
         id="path9" />
      <path
         d="M 45.3,10.45 44.75,10 44.15,9.5 h -0.9 q -2,0.5 -3.05,2.1 -0.05,-0.45 0.25,-1.25 l 0.4,-0.95 q 0.8,-1.65 2.55,-1.95 l 1.65,0.1 q 0.85,0.35 1.35,1 0.55,0.75 0.25,1.4 L 46.1,10.5 45.3,10.45 m -0.35,4.75 -0.55,0.75 q -1.15,0.95 -2.4,0.3 -1.25,-0.65 -1.1,-2.1 0.05,-0.6 0.45,-1.1 0.4,-0.5 1,-0.7 1.25,-0.4 2.2,0.6 0.9,1 0.4,2.25 m -3.05,2.85 0.25,0.8 -0.3,0.75 -1.95,0.05 -1.9,-0.7 -1.55,-0.25 -1.2,0.45 q -0.85,0.2 -1.15,-0.3 -0.25,-0.6 0.25,-1 l 0.95,-0.5 1.1,-0.4 0.4,-0.1 v -0.1 l 0.15,-0.65 0.35,-1.05 0.2,-0.35 0.4,-0.2 q 0.4,0 0.6,0.6 l 0.3,1.25 v 0.5 l 1.2,0.4 q 1.45,0.3 1.9,0.8 m -11.5,-3.7 q 0.25,-1.2 1.5,-1.45 1.25,-0.25 1.95,0.85 l 0.3,1.05 -0.05,0.55 -2.15,-0.4 -1.6,0.2 q -0.05,-0.4 0.05,-0.8"
         fill="#ffffff"
         fill-rule="evenodd"
         stroke="none"
         id="path10" />
    </g>
    <g
       id="shape2"
       transform="translate(2,2.05)">
      <path
         d="M -0.5,-0.4 V -0.55 H 75.1 V -0.4 40.8 H -0.5 Z"
         fill="none"
         stroke="#000000"
         stroke-linecap="round"
         stroke-linejoin="round"
         stroke-width="3"
         id="path11" />
    </g>
  </defs>
</svg>
