<?xml version="1.0" encoding="UTF-8" standalone="no"?>
<svg
   ffdec:objectType="frame"
   height="44.349998"
   width="78.599998"
   version="1.1"
   id="svg12"
   sodipodi:docname="33.svg"
   xmlns:inkscape="http://www.inkscape.org/namespaces/inkscape"
   xmlns:sodipodi="http://sodipodi.sourceforge.net/DTD/sodipodi-0.dtd"
   xmlns:xlink="http://www.w3.org/1999/xlink"
   xmlns="http://www.w3.org/2000/svg"
   xmlns:svg="http://www.w3.org/2000/svg"
   xmlns:ffdec="https://www.free-decompiler.com/flash">
  <sodipodi:namedview
     id="namedview12"
     pagecolor="#ffffff"
     bordercolor="#000000"
     borderopacity="0.25"
     inkscape:showpageshadow="2"
     inkscape:pageopacity="0.0"
     inkscape:pagecheckerboard="0"
     inkscape:deskcolor="#d1d1d1"
     fit-margin-top="5"
     fit-margin-left="5"
     fit-margin-right="5"
     fit-margin-bottom="5" />
  <g
     transform="translate(2,2.05)"
     id="g3">
    <use
       ffdec:characterId="1"
       height="42.700001"
       transform="translate(-1.75,-2)"
       width="76.449997"
       xlink:href="#shape0"
       id="use1" />
    <use
       ffdec:characterId="33"
       height="35.349998"
       transform="translate(-1.1,-0.25)"
       width="77.449997"
       xlink:href="#shape1"
       id="use2" />
    <use
       ffdec:characterId="3"
       height="44.349998"
       transform="translate(-2,-2.05)"
       width="78.599998"
       xlink:href="#shape2"
       id="use3" />
  </g>
  <defs
     id="defs12">
    <g
       id="shape0"
       transform="translate(1.75,2)">
      <path
         d="M 2.8,0 V -0.4 H 5.4 V 0 H 9.7 V 19.45 0 H 20.55 L 19.3,19.45 H 9.7 0.25 V 0 H 2.8"
         fill="#ffffff"
         fill-rule="evenodd"
         stroke="none"
         id="path3" />
      <path
         d="M 0.25,19.45 H 9.7 19.3 L 18.7,28.6 16,28.5 10.95,27.95 9.7,27.8 Q 7.45,27.6 5.85,27.75 4.05,27.9 1.5,28.6 0.75,28.8 0.25,29.15 v -9.7 m 9.45,0 v 8.35 -8.35"
         fill="#121212"
         fill-rule="evenodd"
         stroke="none"
         id="path4" />
      <path
         d="m 9.7,27.8 1.25,0.15 5.05,0.55 2.7,0.1 h 1.05 l 3.75,0.15 q 2.45,0.3 3.6,1.25 0.6,0.5 0.6,1.1 0,0.65 -0.8,1 l -1.3,0.2 -7.15,0.15 -5.6,-0.3 L 9.7,31.75 7.95,31.6 3.1,31.95 0.95,32.3 0.25,32.1 -0.35,31.55 -0.5,31.3 V 29.9 L 0.25,29.15 Q 0.75,28.8 1.5,28.6 4.05,27.9 5.85,27.75 7.45,27.6 9.7,27.8 v 3.95 -3.95"
         fill="#999999"
         fill-rule="evenodd"
         stroke="none"
         id="path5" />
      <path
         d="M 2.8,0 H 0.25 M 9.7,0 H 5.4 m 16.15,0 h 10.7 M 20.55,0 H 9.7"
         fill="none"
         stroke="#666666"
         stroke-linecap="round"
         stroke-linejoin="round"
         stroke-width="4"
         id="path6" />
      <path
         d="m 9.7,-0.4 h 65 V 40.5 H 47.05 L 45.5,40.7 27,40.65 25.95,40.5 H 9.7 -0.5 V -0.4 H 9.7 V 40.5 -0.4"
         fill="#ffffff"
         fill-rule="evenodd"
         stroke="none"
         id="path7" />
    </g>
    <g
       id="shape1"
       transform="translate(1.1,0.25)">
      <path
         d="M 17.6,21.65 14.35,21.6 H 12.4 L 10.85,21.7 10.15,21.6 5,21.55 H 4.5 4.4 4.2 2.65 2.4 L 2.2,21.5 2.1,21.45 H 1.9 L 1.6,21.4 1.25,21.35 0.75,21.3 H 0.3 L 0.1,21.25 0,21.2 -0.25,21.15 H -0.5 L -0.8,21.1 -0.9,21 -1,20.9 -1.05,20.75 v -0.1 l -0.05,-0.1 0.05,-0.1 v -0.1 l 0.05,-0.1 0.1,-0.1 0.1,-0.1 L -0.5,20 -0.25,19.95 0,19.9 H 0.1 L 0.3,19.85 H 0.4 L 0.35,19.75 0.3,19.65 0.2,19.55 0.15,19.45 0.1,19.35 v -0.1 -0.1 -0.1 l -0.05,-0.1 v -0.1 -0.1 -0.1 -0.1 -0.1 -0.1 -0.1 V 18.1 18 17.9 17.8 17.7 17.6 17.5 17.4 17.3 17.2 17.1 17 v -0.1 -0.1 -0.1 -0.15 -0.1 -0.1 -0.1 -0.1 -0.1 -0.1 -0.1 -0.1 -0.1 -0.1 -0.1 -0.1 -0.1 -0.1 V 15 14.9 14.8 14.7 14.6 14.5 14.4 14.3 14.2 14.1 14 v -0.1 -0.1 -0.1 -0.1 -0.1 -0.15 -0.1 -0.1 -0.1 -0.1 -0.1 -0.1 -0.1 -0.1 -0.1 -0.1 -0.1 -0.1 -0.1 -0.1 V 11.8 11.7 11.6 11.5 11.4 11.3 11.2 11.1 11 10.9 10.8 10.7 L 0.1,10.6 V 10.5 10.4 10.3 10.15 10.05 9.95 9.85 9.75 9.65 9.55 9.45 9.35 9.25 9.15 9.05 8.95 8.85 8.75 8.6 8.5 8.4 8.3 8.2 8.1 8 7.9 7.8 7.7 7.6 7.5 7.4 7.3 7.2 7.05 6.95 6.85 6.75 6.65 6.55 6.45 6.35 6.25 6.15 L 0.15,6.05 V 5.95 5.85 5.75 5.65 5.55 5.4 5.3 5.2 5.1 5 4.9 4.8 4.7 4.6 4.5 L 0.2,4.4 V 4.3 4.2 4.1 4 3.85 3.75 3.65 3.55 3.45 3.35 3.25 L 0.25,3.15 V 3.05 2.95 L 0.3,2.85 V 2.75 2.65 2.55 2.45 L 0.35,2.35 0.4,2.2 0.45,2.1 0.5,2.05 V 2 L 0.45,1.9 V 1.75 1.65 1.55 1.45 1.35 1.25 L 0.5,1.15 0.55,1.05 v -0.1 l 0.05,-0.1 0.05,-0.1 0.1,-0.1 0.1,-0.1 0.1,-0.1 0.1,-0.1 L 1.2,0.25 1.4,0.1 1.65,0.05 1.85,0 h 0.3 l 0.5,-0.05 h 2.2 V -0.1 h 18.8 L 34.1,-0.05 37.95,0 h 3.35 l 2.8,0.05 14.8,0.05 h 3.2 l 6,0.05 3,0.05 0.65,0.05 h 0.3 l 0.2,0.05 0.05,-0.05 0.1,-0.1 0.1,-0.1 0.15,-0.1 0.2,-0.1 0.2,-0.05 h 0.25 v -0.05 l 0.3,0.05 0.2,0.05 0.15,0.1 0.15,0.1 0.15,0.1 0.05,0.1 0.1,0.1 v 0.1 l 0.1,0.1 v 0.1 L 74.55,0.8 V 0.9 1 L 74.6,1.1 V 1.2 1.3 1.4 1.5 1.6 1.7 1.8 1.9 2 2.1 2.2 2.35 l -0.05,0.1 v 0.1 0.1 0.1 0.1 0.1 0.1 0.1 0.1 0.1 0.1 0.1 0.1 l 0.05,0.1 V 3.85 4 4.1 4.2 4.3 4.4 4.5 4.6 4.7 4.8 4.9 5 v 0.1 0.1 0.1 0.1 0.15 0.1 0.1 0.1 0.1 0.1 0.1 0.1 0.1 0.1 0.1 0.1 0.1 0.1 0.1 0.1 0.15 0.1 0.1 0.1 0.1 0.1 0.1 0.1 0.1 0.1 0.1 0.1 0.1 0.1 0.1 0.15 0.1 0.1 0.1 0.1 0.1 0.1 0.1 0.1 0.1 0.1 0.1 0.1 0.1 0.1 l 0.05,0.15 v 0.1 0.1 0.1 0.1 0.1 0.1 0.1 0.1 0.1 0.1 0.1 0.1 0.1 0.1 l -0.05,0.1 v 0.15 0.1 0.1 0.1 0.1 0.1 0.1 0.1 0.1 0.1 0.1 0.1 0.1 0.1 0.1 0.15 0.1 0.1 0.1 0.1 0.1 0.1 0.1 0.1 0.1 0.1 0.1 0.1 0.1 0.1 0.1 0.15 0.1 0.1 0.1 0.1 0.1 0.1 0.1 0.1 0.1 0.1 0.1 0.1 0.1 0.1 0.15 0.1 0.1 L 74.55,17 v 0.1 0.1 0.1 0.1 0.1 0.1 l -0.05,0.1 v 0.1 0.1 0.1 0.1 0.15 0.1 0.1 0.1 l -0.05,0.1 v 0.1 0.1 0.1 0.1 l -0.05,0.1 v 0.1 0.1 0.1 h 0.3 V 19.4 h 0.35 0.15 l 0.35,0.05 0.25,0.1 0.15,0.1 0.1,0.1 0.1,0.15 0.05,0.1 0.05,0.1 0.05,0.1 v 0.1 l 0.05,0.1 v 0.1 0.1 0.1 0.1 l -0.05,0.1 -0.05,0.1 -0.05,0.1 -0.05,0.1 -0.1,0.1 -0.1,0.15 -0.1,0.1 -0.2,0.1 -0.15,0.05 -0.3,0.05 H 75.05 74.7 L 74.2,21.7 70.3,21.65 h -6.95 -1.7 q 0.2,-0.95 -0.1,-2.05 L 60.65,17.55 59.9,16.4 q -1.25,-1.6 -3.35,-2.5 -4.1,-1.7 -7.9,0 l -0.05,0.05 -0.75,-0.5 Q 46.8,12.75 46,12.65 h -1 l -0.65,0.1 -0.7,0.4 -0.6,0.5 q -0.4,0.4 -0.5,1.15 l -0.05,1.25 0.05,0.25 -0.6,0.15 q -0.4,0.05 -0.7,-0.2 H 41.2 L 40.4,16.1 39,15.5 35.4,14.8 28.95,15.15 q -0.75,0.15 -1.25,0.5 -2.45,0.65 -4.35,2 l 0.05,-1.15 0.1,-1.05 0.1,-1.5 0.05,-0.3 L 23.6,13.5 23.55,13 23.4,11.8 Q 23.2,11 22.6,9.95 L 21.75,8.75 Q 20.6,7.5 18.9,7.45 L 17.85,7.15 Q 14.3,6.65 11.7,8.65 l -1.25,1.2 -0.5,0.6 -0.4,0.35 -0.85,0.95 -0.3,0.85 -0.15,0.25 -0.15,0.4 -0.1,0.1 -0.3,1.1 q -0.2,1.05 0,2.05 0.5,2.15 2.35,2.75 l 1.6,0.2 1.25,-0.2 q 1.15,-0.35 2,-1.2 0.85,-0.9 1.05,-2.05 l 0.05,-1.65 0.55,-0.1 0.75,0.1 q 0.5,0.2 0.6,1.25 l 0.05,2.1 -0.3,1.2 v 0.5 l -0.05,0.1 h 0.05 l -0.05,0.2 q -0.25,1.4 -0.05,1.8 l 0.05,0.15 m 40.95,0 H 47.8 34.9 l -3.3,0.05 h -4.2 l -3.65,-0.05 h -0.7 l 0.35,-0.25 3.05,-1.95 h 0.95 4.2 3.3 l 12.9,0.05 h 10 l 0.1,0.2 0.65,1.95 m -37.65,0 h -1.3 -1.1 l 0.05,-0.7 0.25,-1.2 0.1,-0.25 h 0.4 l -0.05,0.15 q -0.05,0.75 0.4,1.4 0.5,0.6 1.25,0.6 m 35.75,3.65 q 1,-1.15 3.45,-1.55 l 3.4,0.3 q 0.8,0.35 1.05,0.95 0.25,0.55 0.1,1.3 -0.2,0.8 -0.8,1.2 l -1,0.4 -5.55,0.75 -1.5,0.05 Q 54.85,28.5 54.6,27.9 54.3,27.35 54.65,26.7 55,26.1 55.6,25.95 l 0.55,-0.2 0.5,-0.45 m -32.15,-1.1 0.4,0.45 0.6,0.3 q 1.1,0.5 1.1,1.3 -0.1,0.8 -1,1.15 -1.35,0.7 -4.05,0.7 L 15.6,27.75 13.9,27.4 q -0.9,-0.35 -1.25,-1.1 -0.45,-0.85 0,-2.1 0.55,-1.65 1.8,-1.95 l 1,-0.1 2.6,0.05 3.75,0.7 q 2.1,0.4 2.7,1.3"
         fill="#999999"
         fill-rule="evenodd"
         stroke="none"
         id="path8" />
      <path
         d="M 61.65,21.65 61.6,21.8 60.85,22.9 Q 60.2,23.4 59.55,23.1 59,22.9 58.6,21.85 L 58.55,21.65 57.9,19.7 57.8,19.5 q -1,-2 -3.2,-2.7 l -1.4,-0.35 -2.5,-0.2 -0.5,0.2 q -0.1,0.6 -0.75,1 l -1.6,0.1 -1.65,-1.1 q -0.4,-0.35 -1,-0.6 l -0.1,0.85 0.2,1.15 -0.3,0.6 -1,0.05 q -1.05,-0.3 -1.3,-1 L 42.55,16.8 V 16.3 L 42.5,16.05 42.55,14.8 q 0.1,-0.75 0.5,-1.15 l 0.6,-0.5 0.7,-0.4 0.65,-0.1 h 1 q 0.8,0.1 1.85,0.8 l 0.75,0.5 0.05,-0.05 q 3.8,-1.7 7.9,0 2.1,0.9 3.35,2.5 l 0.75,1.15 0.9,2.05 q 0.3,1.1 0.1,2.05 m -38.6,0 L 22.1,22 q -0.6,0 -0.95,-0.35 H 21 20.9 q -0.75,0 -1.25,-0.6 -0.45,-0.65 -0.4,-1.4 L 19.3,19.5 19.4,18.95 19.9,16.3 Q 19.4,15.9 19.4,15 L 19.45,13.55 19,12.6 l -0.7,-0.95 -0.6,-0.6 -1.1,-0.2 -1.95,0.1 q -0.5,0.3 -0.9,0.8 1.25,-0.15 1.9,0.95 l 1.3,-0.15 q 0.95,0.15 1.6,0.8 0.6,0.7 0.8,1.85 v 2.05 l -0.45,2.25 -0.1,0.25 -0.25,1.2 -0.05,0.7 -0.1,0.2 h -0.5 l -0.3,-0.2 -0.05,-0.15 q -0.2,-0.4 0.05,-1.8 l 0.05,-0.2 v -0.1 -0.5 l 0.3,-1.2 -0.05,-2.1 Q 17.8,14.55 17.3,14.35 L 16.55,14.25 16,14.35 15.95,16 q -0.2,1.15 -1.05,2.05 -0.85,0.85 -2,1.2 l -1.25,0.2 -1.6,-0.2 Q 8.2,18.65 7.7,16.5 q -0.2,-1 0,-2.05 l 0.3,-1.1 0.1,-0.1 0.15,-0.4 0.15,-0.25 0.3,-0.85 0.85,-0.95 0.4,-0.35 0.5,-0.6 1.25,-1.2 q 2.6,-2 6.15,-1.5 l 1.05,0.3 q 1.7,0.05 2.85,1.3 l 0.85,1.2 q 0.6,1.05 0.8,1.85 l 0.15,1.2 0.05,0.5 v 0.45 l -0.1,1.5 -0.1,1.05 -0.05,1.15 q 1.9,-1.35 4.35,-2 l 3.3,-0.6 h 2.3 q 1.65,0.25 3,0.95 0.8,0.4 0.95,1.05 0.15,0.7 -0.7,1.2 l -1.45,0.3 h -1.45 l -1.2,-0.2 -2.2,0.15 -2.75,0.5 q -0.45,0.15 -1.05,0.45 L 23.4,21.4 23.05,21.65 M 11.9,14.75 v -0.4 h -0.05 l -0.05,0.2 v 0.15 l -0.05,0.05 v 0.15 h 0.05 l 0.05,-0.05 0.05,-0.1"
         fill="#ffffff"
         fill-rule="evenodd"
         stroke="none"
         id="path9" />
      <path
         d="m 53.05,14.6 q 2.05,0.35 3.75,1.45 1.75,1.2 2.65,2.95 l 0.8,1.9 0.45,-0.05 q 2.1,-0.1 2.9,0.8 0.85,0.95 0.35,2 l -0.75,1.05 -1,0.85 -0.7,0.7 -0.8,0.6 -0.4,0.2 -0.65,1.4 2,0.05 q 1.5,0.2 2.15,0.85 0.65,0.65 0.65,1.75 0.1,2.2 -1.45,2.95 L 60.9,34.3 55.05,34 51.5,33.75 l -5,-0.95 -3.05,-0.85 -5.55,0.8 q -9.1,0.7 -14.4,-1.55 l -1.05,0.5 -5.75,2.65 -1.85,0.7 -2.35,-0.35 q -1.1,-0.5 -1.55,-1.8 l -0.1,-1.35 0.2,-1.35 0.8,-0.9 q 0.6,-0.5 1.8,-0.85 l 4.5,-1.5 L 19,26.8 18.95,26.75 q -0.8,-1.65 -0.95,-3.7 -0.1,-1.4 0.25,-3.8 l 0.4,-3.85 q 0,-1.35 -0.65,-1.8 -0.25,-0.25 -1.3,-0.35 -1.5,0 -1.95,0.5 -0.2,0.3 -0.3,0.85 l -0.1,0.85 Q 14.2,17.35 12.6,18.2 L 9.35,18.1 q -0.75,-0.6 -1.1,-1.6 -0.3,-1 -0.05,-1.95 0.25,-1.3 1.3,-2.6 0.55,-1 1.6,-1.95 l 1.65,-1.2 q 1.7,-1.05 3.8,-1 2.1,0.05 3.65,1.25 1.35,1.05 2.05,2.8 0.65,1.7 0.4,3.5 l -0.65,2.5 -0.25,1.25 -0.3,2.05 1.05,-1.05 q 1.75,-1.55 3.2,-2.45 4.3,-2.55 9.9,-2.15 3.95,0.3 8.25,2.05 L 43.7,16.95 43.35,15.4 q 0,-1 0.45,-1.5 0.6,-0.7 1.85,-0.5 l 1.8,0.8 1.1,0.7 4.5,-0.3 m 5.75,8.85 -0.6,-0.15 -1.15,-0.15 q -0.45,0.1 -0.55,0.6 -0.1,0.4 0.3,0.7 l 1.05,0.25 0.75,0.15 0.7,0.4 0.75,0.05 0.3,-0.5 -0.2,-0.5 -0.65,-0.45 -0.4,-0.2 -0.3,-0.2 m -7.65,1.9 -0.7,-0.2 -0.4,-0.55 q -0.2,-0.4 -0.55,-0.4 l -0.35,0.3 Q 49,24.75 49.1,25.05 l 0.5,0.85 0.55,0.5 1,0.3 2.15,-0.15 0.95,0.8 q 2.1,0.9 3.7,0 l 0.5,-0.65 Q 58.5,26.4 58.2,26.25 L 57.65,26.1 56.5,26.3 55.05,26 54.3,25.6 Q 54.4,25.25 54.05,25 l -0.8,-0.05 -0.7,0.35 -1.4,0.05 M 50.7,21.3 49.85,21.05 47.9,20.75 q -0.6,-0.1 -0.9,0.3 l -0.2,0.6 0.3,0.55 1.15,0.2 2,0.4 H 51 l 0.5,-0.5 Q 51.6,21.95 51.3,21.65 51.05,21.4 50.7,21.3"
         fill="#000000"
         fill-rule="evenodd"
         stroke="none"
         id="path10" />
      <path
         d="m 50.7,21.3 q 0.35,0.1 0.6,0.35 0.3,0.3 0.2,0.65 L 51,22.8 h -0.75 l -2,-0.4 -1.15,-0.2 -0.3,-0.55 0.2,-0.6 q 0.3,-0.4 0.9,-0.3 l 1.95,0.3 0.85,0.25 m 0.45,4.05 1.4,-0.05 0.7,-0.35 0.8,0.05 q 0.35,0.25 0.25,0.6 l 0.75,0.4 1.45,0.3 1.15,-0.2 0.55,0.15 q 0.3,0.15 0.25,0.45 l -0.5,0.65 q -1.6,0.9 -3.7,0 l -0.95,-0.8 -2.15,0.15 -1,-0.3 -0.55,-0.5 -0.5,-0.85 Q 49,24.75 49.15,24.5 l 0.35,-0.3 q 0.35,0 0.55,0.4 l 0.4,0.55 0.7,0.2 m 7.65,-1.9 0.3,0.2 0.4,0.2 0.65,0.45 0.2,0.5 -0.3,0.5 -0.75,-0.05 -0.7,-0.4 -0.75,-0.15 -1.05,-0.25 q -0.4,-0.3 -0.3,-0.7 0.1,-0.5 0.55,-0.6 l 1.15,0.15 0.6,0.15"
         fill="#ffffff"
         fill-rule="evenodd"
         stroke="none"
         id="path11" />
    </g>
    <g
       id="shape2"
       transform="translate(2,2.05)">
      <path
         d="M -0.5,-0.4 V -0.55 H 75.1 V -0.4 40.8 H -0.5 Z"
         fill="none"
         stroke="#000000"
         stroke-linecap="round"
         stroke-linejoin="round"
         stroke-width="3"
         id="path12" />
    </g>
  </defs>
</svg>
