<?xml version="1.0" encoding="UTF-8" standalone="no"?>
<svg
   ffdec:objectType="frame"
   height="44.349998"
   width="78.599998"
   version="1.1"
   id="svg11"
   sodipodi:docname="28.svg"
   xmlns:inkscape="http://www.inkscape.org/namespaces/inkscape"
   xmlns:sodipodi="http://sodipodi.sourceforge.net/DTD/sodipodi-0.dtd"
   xmlns:xlink="http://www.w3.org/1999/xlink"
   xmlns="http://www.w3.org/2000/svg"
   xmlns:svg="http://www.w3.org/2000/svg"
   xmlns:ffdec="https://www.free-decompiler.com/flash">
  <sodipodi:namedview
     id="namedview11"
     pagecolor="#ffffff"
     bordercolor="#000000"
     borderopacity="0.25"
     inkscape:showpageshadow="2"
     inkscape:pageopacity="0.0"
     inkscape:pagecheckerboard="0"
     inkscape:deskcolor="#d1d1d1"
     fit-margin-top="5"
     fit-margin-left="5"
     fit-margin-right="5"
     fit-margin-bottom="5" />
  <g
     transform="translate(2,2.05)"
     id="g3">
    <use
       ffdec:characterId="1"
       height="42.700001"
       transform="translate(-1.75,-2)"
       width="76.449997"
       xlink:href="#shape0"
       id="use1" />
    <use
       ffdec:characterId="30"
       height="35.049999"
       transform="translate(0.45,3.4)"
       width="70.550003"
       xlink:href="#shape1"
       id="use2" />
    <use
       ffdec:characterId="3"
       height="44.349998"
       transform="translate(-2,-2.05)"
       width="78.599998"
       xlink:href="#shape2"
       id="use3" />
  </g>
  <defs
     id="defs11">
    <g
       id="shape0"
       transform="translate(1.75,2)">
      <path
         d="M 2.8,0 V -0.4 H 5.4 V 0 H 9.7 V 19.45 0 H 20.55 L 19.3,19.45 H 9.7 0.25 V 0 H 2.8"
         fill="#ffffff"
         fill-rule="evenodd"
         stroke="none"
         id="path3" />
      <path
         d="M 0.25,19.45 H 9.7 19.3 L 18.7,28.6 16,28.5 10.95,27.95 9.7,27.8 Q 7.45,27.6 5.85,27.75 4.05,27.9 1.5,28.6 0.75,28.8 0.25,29.15 v -9.7 m 9.45,0 v 8.35 -8.35"
         fill="#121212"
         fill-rule="evenodd"
         stroke="none"
         id="path4" />
      <path
         d="m 9.7,27.8 1.25,0.15 5.05,0.55 2.7,0.1 h 1.05 l 3.75,0.15 q 2.45,0.3 3.6,1.25 0.6,0.5 0.6,1.1 0,0.65 -0.8,1 l -1.3,0.2 -7.15,0.15 -5.6,-0.3 L 9.7,31.75 7.95,31.6 3.1,31.95 0.95,32.3 0.25,32.1 -0.35,31.55 -0.5,31.3 V 29.9 L 0.25,29.15 Q 0.75,28.8 1.5,28.6 4.05,27.9 5.85,27.75 7.45,27.6 9.7,27.8 v 3.95 -3.95"
         fill="#999999"
         fill-rule="evenodd"
         stroke="none"
         id="path5" />
      <path
         d="M 2.8,0 H 0.25 M 9.7,0 H 5.4 m 16.15,0 h 10.7 M 20.55,0 H 9.7"
         fill="none"
         stroke="#666666"
         stroke-linecap="round"
         stroke-linejoin="round"
         stroke-width="4"
         id="path6" />
      <path
         d="m 9.7,-0.4 h 65 V 40.5 H 47.05 L 45.5,40.7 27,40.65 25.95,40.5 H 9.7 -0.5 V -0.4 H 9.7 V 40.5 -0.4"
         fill="#ffffff"
         fill-rule="evenodd"
         stroke="none"
         id="path7" />
    </g>
    <g
       id="shape1"
       transform="translate(-0.45,-3.4)">
      <path
         d="m 66.9,12.8 -0.1,0.35 -0.75,1.2 q -0.5,0.55 -1.2,0.6 l -1.05,-0.15 -0.45,1.15 -0.95,0.6 -1,0.4 -1.55,0.75 -1.65,1.15 -0.6,0.3 h -0.05 l -0.1,0.1 -1.2,1.15 q -1.15,1.2 -2.5,3.85 l 6.4,-2 0.7,-0.65 q 0.6,-0.55 1.7,-0.45 l 0.95,0.15 q 1,0.4 1,1.5 0.1,1.05 -0.85,1.55 l -1.1,0.35 -1,0.05 -1.1,-0.35 -0.7,0.05 -6.7,1.3 -0.15,0.3 -0.3,0.35 Q 52.25,26.55 52,26.2 l -0.1,-0.45 q -0.25,-0.15 -0.2,-0.5 l 0.2,-0.3 q 0.1,-1.5 0.7,-4.2 l 0.6,-2.15 q 0.5,-1.45 2.55,-4.2 l 1,-1.25 q 0.5,-0.5 1.7,-1.3 1.1,-0.7 1.8,-0.8 l 1.4,0.2 0.45,0.25 0.1,-1.1 0.1,-0.6 q 0.2,-0.65 0.8,-1 0.55,-0.4 1.25,-0.4 0.65,0 1.2,0.45 0.55,0.4 0.7,1.05 l 0.15,0.75 0.5,1.45 v 0.7 M 45.1,10.55 44.65,11.15 44.2,11.2 44.05,10.95 Q 43.95,10.5 44.1,10.1 L 44.2,9.7 V 9.2 q 0.1,-0.65 0.45,-1 0.55,-0.45 1.05,-0.3 0.7,0.2 0.75,0.8 l -0.35,0.9 -0.5,0.45 -0.3,0.15 -0.2,0.35 M 33.5,5.4 q 0.75,-0.85 1.75,-0.85 1.15,0 1.7,0.9 0.4,0.7 0.25,1.4 0.2,-0.25 0.55,-0.4 L 39.2,6.35 Q 40,6.6 40.7,7.6 l 1.2,1.45 0.85,1.6 0.25,0.8 q 0.3,1.05 0,3.1 l -0.2,1.05 -0.4,0.85 -0.8,1.05 4.25,-0.5 1.7,0.3 q 0.9,0.35 1.3,1.05 0.35,0.65 0.2,1.5 -0.15,0.75 -0.65,1.35 -0.75,0.95 -2.55,1.6 -2.4,0.95 -6.75,1.7 L 37,24.65 Q 35.8,24.55 35.1,23.85 34.65,23.4 34.3,22.6 L 34.05,21.85 Q 33.8,20.6 35.1,19.8 35.7,19.4 36.55,19.15 L 39.15,18.2 39.3,17.95 39.6,17.6 39.8,17 40.1,16.45 40.3,15.9 40.45,15 40.25,13.4 39.8,12 Q 39.4,11.35 38.15,10.65 L 37.4,10.15 Q 36.8,9.65 36.65,8.9 L 36.55,8.25 36.2,9 35.7,9.55 q -1.1,0.75 -2.2,0.2 -1.15,-0.55 -1.15,-1.9 0,-0.45 0.3,-1.25 l 0.1,-0.25 0.3,-0.4 0.45,-0.55 m 15.95,25.5 2.3,-0.65 2.75,-0.1 0.2,0.05 -0.95,-0.75 -0.6,-0.75 q -0.2,-0.7 0.5,-1.5 0.65,-0.65 2,-1.2 2.35,-1.05 4.55,-1.2 2.6,-0.15 4.6,0.9 l 0.95,0.7 q 0.95,0.95 0.6,2.15 -0.3,1.25 -1.75,1.9 l -2.6,0.5 -4.6,-0.1 0.6,0.65 0.05,0.1 2.25,-0.2 h 1.95 l 3.5,0.1 1.85,-0.15 1.8,0.15 q 1.1,0.25 1.5,1.05 0.25,0.55 -0.05,1.15 l -0.8,0.85 -1.9,0.05 -2.4,-0.65 -3.15,-0.65 -2.25,-0.2 -1.95,-0.2 -0.1,0.45 q -0.2,0.85 -1.2,1.5 l -1.8,0.8 -3,0.75 -3.05,-0.15 q -0.95,-0.25 -1.6,-0.9 -0.7,-0.8 -0.7,-1.65 0,-0.75 0.6,-1.5 l 0.55,-0.6 q 0.35,-0.25 1.35,-0.7 M 45,26.4 q 2.05,-0.2 3.05,0.6 0.75,0.65 0.8,1.55 0,0.95 -0.7,1.55 l -0.9,0.4 -2.1,0.35 -3.4,2.55 -1.25,0.7 q -1.45,0.95 -2.55,2.45 L 37.3,37.3 q -0.5,0.45 -1.25,0.35 -0.75,-0.05 -1.2,-0.6 -0.4,-0.55 -0.4,-1.25 0,-0.75 0.45,-1.25 0.6,-0.65 2.15,-1.05 2.05,-0.65 3.9,-1.8 l 0.55,-0.35 -0.65,0.05 q -1.4,0 -2.3,-0.7 -1.15,-0.85 -0.9,-2.15 0.15,-0.75 1.25,-1.75 0.7,-0.7 1.15,-0.95 l 3.25,-0.2 q 0.6,0.2 1,0.5 l 0.3,0.2 0.4,0.05 m -2.85,11.35 -1,0.1 -0.75,-0.6 q -0.25,-0.45 -0.15,-1 l 0.55,-0.85 1.05,-0.45 1.45,-1.3 0.7,-0.75 0.35,-0.3 q 0.3,-0.1 0.45,0.15 l -0.15,0.4 -1.15,1.7 -0.3,0.55 -0.15,0.7 q -0.1,1.25 -0.9,1.65 m -22.3,-9.5 0.3,-0.5 q 1.6,-1.8 1.85,-2.9 L 22.15,23.5 22,20.65 q -0.45,-3.1 -2.35,-5.8 l -0.8,-1.2 q -0.2,-0.65 -0.05,-1.3 0.2,-0.7 0.7,-1.1 0.5,-0.45 1.2,-0.5 l 1.25,0.2 1.05,0.9 q 2,2.35 2.7,5.55 0.65,3.1 0.05,6.25 -0.25,1.7 -1.05,2.75 l -0.85,0.9 q 3.25,-1.15 6.95,-0.95 l 1.3,0.15 q 0.75,0.25 1.3,0.7 l 0.8,1 q 0.35,0.85 0.1,1.8 -0.25,0.95 -0.95,1.65 -1.1,1.1 -3.35,1.65 l -7.5,0.6 -2.1,-0.45 q -1.2,-0.75 -0.9,-1.85 0.25,-1 1.45,-1.1 -0.4,-0.75 0.15,-1.5 l -0.75,-0.05 q -0.6,-0.2 -0.5,-0.7 m 8.25,-12.3 q 0.35,-0.55 0.95,-0.65 0.7,0 1,0.5 0.35,0.5 0.05,1.05 l -0.85,0.75 -1.05,0.45 -0.25,0.35 -0.35,0.2 -0.4,-0.1 0.05,-0.45 0.55,-1.45 0.3,-0.65 M 16.9,6.8 q 0.7,-0.05 1.4,0.25 1.45,0.85 1.25,2.75 -0.1,1.25 -1.15,2.95 l -0.75,1.1 0.15,0.05 q 0.35,0.15 0.7,0.6 l 0.55,0.65 1.2,2.4 q 0.35,0.85 0.55,2.65 l 0.05,1.05 -0.15,0.85 -0.15,0.3 -0.35,0.15 q -0.25,0 -0.35,-0.2 Q 19.75,22.2 19.8,21.9 L 19.9,21.4 19.7,21.15 19.5,20.5 19.2,19.8 18.95,19.35 17.4,17.3 16.75,16.65 15.95,15.9 q -0.25,-0.35 -0.2,-0.8 l -0.35,0.05 q -0.95,0.1 -1.65,-0.55 l -0.4,-0.4 Q 12.6,13.25 12.6,12.4 l 0.15,-0.95 V 10.7 L 13.2,8.65 Q 13.5,7.4 13.95,6.95 14.35,6.55 14.9,6.5 L 16,6.65 16.45,6.85 16.9,6.8 m -2.9,15.3 1.5,0.25 1.4,0.55 1.45,0.45 q 0.7,0.1 0.75,0.5 0.15,0.3 -0.3,0.55 l -0.65,0.15 -2.85,-0.25 -2.9,-0.2 -0.9,0.05 -0.7,0.05 -0.5,0.2 q -1,0.45 -1.85,-0.5 -0.3,-0.4 -0.3,-0.95 -0.05,-0.6 0.25,-1 l 0.85,-0.6 q 0.5,-0.15 1,0 l 0.7,0.3 h 0.8 l 0.95,0.1 0.6,0.25 0.7,0.1 m 2.05,12.25 -0.15,0.7 -0.3,0.7 -0.4,0.4 q -1.45,1.1 -3.3,1.4 L 8.4,37.25 7.35,36.7 Q 6.8,36.25 6.65,35.5 6.55,34.7 6.9,34.1 7.35,33.3 8.9,32.65 L 9.6,32.4 q -3,0.55 -5.8,1.65 L 2.3,34.4 Q 1.2,34.4 0.75,33.55 0.2,32.75 0.7,31.8 1.15,31.15 2.05,30.95 L 3.7,30.7 5.45,30.45 H 7.3 l 2.65,-0.4 3.05,-0.3 2.3,-0.15 1.35,0.2 0.45,0.5 0.05,0.6 -1.05,0.6 -1.75,0.25 -0.65,0.1 h 0.05 q 0.85,0.35 0.75,1.15 0.65,-0.1 1.1,0.3 0.45,0.4 0.45,1.05 m 0.05,2.4 0.05,-0.25 0.1,-0.2 q 0.35,-0.4 0.85,-0.25 0.5,0.15 0.6,0.7 V 37 l -0.2,0.35 -0.95,0.15 -0.2,-0.1 -0.15,-0.15 -0.1,-0.5 m 9.2,-1.05 q 0.4,0.65 0.25,1.4 -0.25,0.75 -0.85,1.05 l -1.5,0.3 q -1.8,-0.1 -2.45,-0.9 -0.4,-0.55 -0.3,-1.25 0.1,-0.75 0.65,-1.1 0.4,-0.25 1.1,-0.35 l 1.7,-0.05 q 1,0.25 1.4,0.9"
         fill="#999999"
         fill-rule="evenodd"
         stroke="none"
         id="path8" />
      <path
         d="m 62.15,16.2 -0.5,-0.45 -0.7,0.3 -1.05,0.25 -0.35,0.15 -0.15,0.85 -0.05,0.7 -0.1,0.65 -0.15,0.2 -0.45,-0.2 -0.05,-0.25 0.05,-0.25 -0.15,-1.05 -0.35,-0.9 -0.1,-0.7 0.4,-0.55 0.6,-0.35 1.2,-0.7 -0.4,-0.85 Q 59.55,11.95 59.8,10.8 60.35,8.45 62.4,7.25 L 64,6.6 67.9,6.8 q 0.95,0.5 1.55,1.7 l -1.3,2.55 -1.9,-2.35 -1.65,2.65 -1.9,-1.65 1.05,4.5 3.05,-2.45 1.8,1.7 1.6,-2.05 q 0.25,1.85 -0.45,3.2 -0.55,0.95 -1.5,1.55 l -0.3,0.8 -0.65,1.15 -0.6,0.2 q -0.45,-0.1 -0.45,-0.6 v -0.4 l 0.1,-0.4 H 64.3 l -0.85,1 -0.2,0.3 Q 62.9,18.45 62.7,18.05 L 62.65,17.75 62.7,17 62.75,16.5 62.15,16.2 M 34.55,10.55 Q 32.65,10.15 32,9 31.65,8.4 31.6,7.7 l 1.5,-1 1.3,1.6 2.15,-2.5 -1.95,1.1 V 4.65 L 32,5.55 32.1,5.2 32.5,4.4 Q 33,3.75 33.9,3.5 l 1.65,-0.05 0.7,0.1 q 1.4,0.4 2.2,1.5 0.9,1.15 0.55,2.55 l 0.15,0.05 1.35,0.95 0.45,0.5 0.1,0.95 0.5,0.95 q 0.3,0.75 -0.15,1 -0.45,0.3 -0.9,-0.4 L 40.1,10.55 Q 39.9,10.05 39.3,9.9 L 38.25,9.75 37.9,9.7 37.55,10.05 37.6,10.4 v 1 q -0.1,0.3 -0.45,0.2 l -0.5,-0.6 -0.4,-0.4 -1.7,-0.05 m 12.7,3.7 0.05,0.2 -0.5,0.1 q -0.3,0 -0.45,0.15 -0.25,0.25 -0.15,0.6 l 0.5,0.2 0.25,-0.1 0.3,-0.05 0.2,-0.2 h 0.2 v 0.05 l 0.3,0.35 0.45,0.2 0.15,-0.1 q 0.4,-0.3 0.25,-0.75 l 0.05,-0.05 0.25,-0.4 -0.25,-0.4 h -0.5 l -0.1,0.05 -0.1,-0.3 -0.4,-0.25 -0.45,0.2 -0.05,0.5 m -35.8,9.95 q 2,-2.35 4.1,-3 L 18,20.9 q 2.45,0.1 4.2,1.3 3.15,-1.9 6.4,-2.35 l 3.1,0.2 0.85,-0.5 2.75,-0.05 -0.4,-0.7 -0.25,-1.1 q -0.1,-0.75 0.15,-1.45 0.25,-0.7 1.4,-1.55 3.6,-2.55 7.2,-1.9 l 0.45,0.1 0.25,-0.15 q 1.55,-0.85 3.35,-0.7 1.85,0.25 3,1.55 l 0.95,-0.05 q 1.1,0 1.6,0.35 l 0.5,0.35 0.4,0.5 0.15,0.35 q 0.2,0.85 0,1.4 -0.3,0.8 -1.5,1.4 L 52,18.1 51.1,18.15 49.7,17.8 47,18.05 h -0.15 q -0.7,1.4 -2.4,2.1 L 41.2,20.9 40.35,21 Q 39.4,22.1 38.05,22.55 36.25,23.05 35,22 l -0.75,-0.65 -0.25,-0.1 0.4,0.35 1.1,1.2 0.45,0.85 q 0.85,0.15 1.4,0.6 0.35,-0.85 1.4,-1.65 1.2,-1 2.2,-1.25 L 42.9,21 l 0.9,0.15 0.8,0.05 q 1.8,-0.7 4.4,-0.65 3.95,0.2 6.15,1.7 l 1.3,1.1 2.6,0.1 q 1.25,0.3 1.85,0.9 l 0.5,0.6 1.4,-0.05 1.1,0.25 0.6,0.25 0.75,0.5 q 0.65,0.55 0.85,1.45 0.25,0.9 0,1.75 l -0.15,0.45 -0.4,0.6 Q 64.6,31.25 63.2,31.4 L 61.65,31.25 60.8,32.1 59.45,32.9 59.3,33 59.2,33.6 58.7,34.75 58.45,35.1 Q 57.9,35.7 56.7,35.9 L 54.95,35.7 Q 54,35.25 53.6,34.6 l -0.2,-0.45 -0.05,-0.4 0.05,-0.6 q -1.55,-0.7 -2.2,-1.95 -2,0.25 -3.2,0 L 46.3,30.8 43.9,30.45 Q 42.65,30.1 41.8,28.95 L 41.55,28.6 q -1.8,0 -2.75,-0.5 l -0.35,1.3 Q 38,30.6 37,31.35 l -0.8,0.5 -1.35,0.6 -1.05,0.15 -3.55,0.25 -0.85,-0.05 -0.35,-0.15 q -0.1,-0.2 0.3,-0.5 l 0.8,-0.4 2.05,-0.5 q 2.3,-0.5 3.35,-1.4 l 0.35,-0.4 0.2,-0.5 q 0.3,-0.75 0.1,-1.25 l -0.3,-0.35 q -0.6,1.25 -1.9,2.1 -1,0.6 -2.45,0.85 l -7.3,0.35 -1.55,1.8 q -1.6,1.35 -3.25,1.75 l -1.1,1.25 -0.45,0.3 -0.95,0.45 -1.5,0.35 -2.15,-0.4 -0.65,-0.35 q -1,-0.55 -1.2,-1.6 -0.25,-0.85 0.1,-1.65 L 11.1,32.1 10.65,31.65 h -0.2 l -1,0.05 -1,-0.05 L 7.8,31.4 7.1,31 Q 6.4,30.4 6.25,29.45 6.1,28.65 6.45,27.7 6.9,26.5 8.05,25.75 L 9.3,25.2 10.85,25 l 0.6,-0.8 m 29.95,-0.25 1.15,-1.5 Q 41.1,22.9 40,24.05 39.25,24.8 39.25,25.4 l 0.2,0.55 0.75,0.25 0.65,0.05 q 0,-1.2 0.55,-2.3 M 17.9,4.05 q 0.15,0.05 1.1,0.6 l 1.2,0.9 q 1.5,1.4 1.8,3.35 0.2,1.6 -0.3,3 l 1.4,0.75 0.6,0.2 q 0.9,0.5 0.6,1.3 l -0.15,0.4 v 0.5 l -0.1,0.4 0.1,0.25 -0.2,1.25 0.05,0.2 -0.1,0.15 -0.2,0.05 L 23.4,16.9 23,14.95 21.5,14.4 21,14.15 20.5,14.05 h -0.2 l -0.2,0.1 -0.85,0.6 -0.8,0.7 -1.6,0.95 0.15,1.4 -0.15,0.55 H 16.5 l -0.35,-0.2 -0.45,-0.45 -0.4,-0.75 -0.15,-0.2 -1.8,-0.2 Q 10.7,15.85 9.15,13.4 l -0.1,-0.2 0.65,-2.7 2.4,2.55 2.1,-2.25 1.1,2.95 1.85,-1.3 1.75,-3.5 -2.3,1.95 -1.05,-3 -2.9,2.2 V 6.8 L 8.85,8.85 8.95,8.4 q 1.1,-2.8 4.3,-4.15 L 17.9,4.05 M 19,29.1 v -0.05 l 0.6,-0.45 0.55,-0.65 q 0.25,-0.5 -0.2,-0.85 -0.4,-0.4 -0.95,-0.15 -0.25,0.1 -0.65,0.5 L 18,27.75 17.4,27.05 17,26.75 q -0.6,-0.35 -1,0.35 -0.35,0.6 0.1,1.1 l 0.5,0.5 0.15,0.15 q -0.75,0.6 -0.85,1 v 0.55 q 0.25,0.35 0.65,0.25 l 0.65,-0.35 0.65,-0.4 0.5,0.3 0.7,0.1 q 0.3,-0.2 0.2,-0.6 L 19,29.1"
         fill="#000000"
         fill-rule="evenodd"
         stroke="none"
         id="path9" />
      <path
         d="m 47.25,14.25 0.05,-0.5 0.45,-0.2 0.4,0.25 0.1,0.3 0.1,-0.05 h 0.5 l 0.25,0.4 -0.25,0.4 -0.05,0.05 q 0.15,0.45 -0.25,0.75 l -0.15,0.1 -0.45,-0.2 -0.3,-0.35 v -0.05 h -0.2 l -0.2,0.2 -0.3,0.05 -0.25,0.1 -0.5,-0.2 q -0.1,-0.35 0.15,-0.6 0.15,-0.15 0.45,-0.15 l 0.5,-0.1 -0.05,-0.2 M 19,29.1 l 0.25,0.6 q 0.1,0.4 -0.2,0.6 l -0.7,-0.1 -0.5,-0.3 -0.65,0.4 -0.65,0.35 q -0.4,0.1 -0.65,-0.25 v -0.55 q 0.1,-0.4 0.85,-1 L 16.6,28.7 16.1,28.2 q -0.45,-0.5 -0.1,-1.1 0.4,-0.7 1,-0.35 l 0.4,0.3 0.6,0.7 0.35,-0.3 q 0.4,-0.4 0.65,-0.5 0.55,-0.25 0.95,0.15 0.45,0.35 0.2,0.85 L 19.6,28.6 19,29.05 v 0.05"
         fill="#ffffff"
         fill-rule="evenodd"
         stroke="none"
         id="path10" />
    </g>
    <g
       id="shape2"
       transform="translate(2,2.05)">
      <path
         d="M -0.5,-0.4 V -0.55 H 75.1 V -0.4 40.8 H -0.5 Z"
         fill="none"
         stroke="#000000"
         stroke-linecap="round"
         stroke-linejoin="round"
         stroke-width="3"
         id="path11" />
    </g>
  </defs>
</svg>
