<?xml version="1.0" encoding="UTF-8" standalone="no"?>
<svg
   ffdec:objectType="frame"
   height="44.466667"
   width="78.599998"
   version="1.1"
   id="svg15"
   sodipodi:docname="101.svg"
   xmlns:inkscape="http://www.inkscape.org/namespaces/inkscape"
   xmlns:sodipodi="http://sodipodi.sourceforge.net/DTD/sodipodi-0.dtd"
   xmlns:xlink="http://www.w3.org/1999/xlink"
   xmlns="http://www.w3.org/2000/svg"
   xmlns:svg="http://www.w3.org/2000/svg"
   xmlns:ffdec="https://www.free-decompiler.com/flash">
  <sodipodi:namedview
     id="namedview15"
     pagecolor="#ffffff"
     bordercolor="#000000"
     borderopacity="0.25"
     inkscape:showpageshadow="2"
     inkscape:pageopacity="0.0"
     inkscape:pagecheckerboard="0"
     inkscape:deskcolor="#d1d1d1"
     fit-margin-top="5"
     fit-margin-left="5"
     fit-margin-right="5"
     fit-margin-bottom="5" />
  <g
     transform="translate(2,2.05)"
     id="g3">
    <use
       ffdec:characterId="1"
       height="42.700001"
       transform="translate(-1.75,-2)"
       width="76.449997"
       xlink:href="#shape0"
       id="use1" />
    <use
       ffdec:characterId="99"
       height="44.049999"
       transform="translate(2.65,-1.65)"
       width="72.449997"
       xlink:href="#shape1"
       id="use2" />
    <use
       ffdec:characterId="3"
       height="44.349998"
       transform="translate(-2,-2.05)"
       width="78.599998"
       xlink:href="#shape2"
       id="use3" />
  </g>
  <defs
     id="defs15">
    <g
       id="shape0"
       transform="translate(1.75,2)">
      <path
         d="M 2.8,0 V -0.4 H 5.4 V 0 H 9.7 V 19.45 0 H 20.55 L 19.3,19.45 H 9.7 0.25 V 0 H 2.8"
         fill="#ffffff"
         fill-rule="evenodd"
         stroke="none"
         id="path3" />
      <path
         d="M 0.25,19.45 H 9.7 19.3 L 18.7,28.6 16,28.5 10.95,27.95 9.7,27.8 Q 7.45,27.6 5.85,27.75 4.05,27.9 1.5,28.6 0.75,28.8 0.25,29.15 v -9.7 m 9.45,0 v 8.35 -8.35"
         fill="#121212"
         fill-rule="evenodd"
         stroke="none"
         id="path4" />
      <path
         d="m 9.7,27.8 1.25,0.15 5.05,0.55 2.7,0.1 h 1.05 l 3.75,0.15 q 2.45,0.3 3.6,1.25 0.6,0.5 0.6,1.1 0,0.65 -0.8,1 l -1.3,0.2 -7.15,0.15 -5.6,-0.3 L 9.7,31.75 7.95,31.6 3.1,31.95 0.95,32.3 0.25,32.1 -0.35,31.55 -0.5,31.3 V 29.9 L 0.25,29.15 Q 0.75,28.8 1.5,28.6 4.05,27.9 5.85,27.75 7.45,27.6 9.7,27.8 v 3.95 -3.95"
         fill="#999999"
         fill-rule="evenodd"
         stroke="none"
         id="path5" />
      <path
         d="M 2.8,0 H 0.25 M 9.7,0 H 5.4 m 16.15,0 h 10.7 M 20.55,0 H 9.7"
         fill="none"
         stroke="#666666"
         stroke-linecap="round"
         stroke-linejoin="round"
         stroke-width="4"
         id="path6" />
      <path
         d="m 9.7,-0.4 h 65 V 40.5 H 47.05 L 45.5,40.7 27,40.65 25.95,40.5 H 9.7 -0.5 V -0.4 H 9.7 V 40.5 -0.4"
         fill="#ffffff"
         fill-rule="evenodd"
         stroke="none"
         id="path7" />
    </g>
    <g
       id="shape1"
       transform="translate(-2.65,1.65)">
      <path
         d="m 57.25,0.6 0.35,-1 H 75.1 V 40.8 H 58 l 0.55,-0.65 q 0.4,-0.6 0.3,-1.3 -0.05,-0.8 -0.65,-1.4 -0.65,-0.65 -1.45,-0.7 -0.85,-0.05 -1.5,0.5 -0.7,0.55 -0.85,1.35 -0.2,0.8 0.25,1.55 l 0.6,0.65 h -10.1 v -3.05 l 4.95,-14.2 0.15,0.6 q 0.35,0.8 1.05,1.15 1.15,0.55 2.25,-0.2 1.1,-0.75 0.85,-2.1 L 53.9,21.9 Q 53.45,21.4 52.85,21.25 L 51.3,21.4 50.7,21.85 57.25,3 V 0.9 0.6 m 13.3,25.3 0.6,0.35 L 71.8,26 72,25.65 72.05,25.2 71.95,25 71.85,24.85 71.2,24.5 71.15,24.55 h -0.1 l -0.25,0.1 -0.4,0.4 q -0.25,0.4 0.15,0.85 m -8.7,-1.85 0.15,0.05 0.2,-0.1 0.15,-0.1 0.1,-0.2 v -0.25 q 0,-0.4 -0.45,-0.4 v 0.05 h -0.25 l -0.1,0.1 -0.1,0.15 -0.05,0.15 -0.05,0.1 0.05,0.15 0.1,0.15 0.25,0.15 m -1.75,-6.85 0.45,0.6 0.05,0.05 -0.7,0.7 q -0.3,0.7 0.3,0.95 l 0.6,-0.1 0.4,-0.35 0.65,0.75 q 0.5,0.5 0.95,0.3 0.5,-0.25 0.4,-0.85 l -0.45,-0.9 -0.3,-0.4 0.3,-0.2 0.3,-0.3 0.1,-0.4 -0.35,-0.2 -0.45,0.1 -0.5,0.2 -0.4,-0.45 q -0.35,-0.35 -0.6,-0.4 -0.35,-0.1 -0.6,0.25 -0.3,0.25 -0.15,0.65 m 6.2,0.1 0.2,0.05 0.55,-0.1 0.15,-0.4 -0.1,-0.35 -0.35,-0.25 q -0.4,0 -0.55,0.25 l -0.1,0.2 v 0.2 l 0.2,0.4 M 58.05,10 q -0.35,0.65 -0.15,1.45 0.2,0.75 0.75,1.25 l 2.6,0.1 0.85,-1.05 Q 62.35,11.1 62.2,10.45 62.05,9.75 61.5,9.3 60.95,8.8 60.3,8.75 58.7,8.6 58.05,10 M 66.9,3.6 66.05,4.65 65.4,4.1 64.35,4.15 Q 63.8,4.55 63.95,5.1 L 64.55,5.75 65,6 64.9,6.25 q -0.2,0.55 0.1,0.9 0.4,0.5 0.85,0.25 l 0.45,-0.85 0.1,-0.1 0.55,0.2 0.5,0.15 L 67.9,6.55 68,6.05 67.45,5.5 67.1,5.3 67.65,4.4 67.9,3.9 Q 68,3.5 67.75,3.35 67.4,3.15 66.9,3.6 m 5.25,8.5 q 0.4,-0.4 0.45,-1 0.05,-0.6 -0.25,-1.1 L 71.55,9.35 70.5,9.25 q -0.55,0.1 -0.9,0.55 -0.4,0.45 -0.45,0.95 -0.1,1.3 1,1.8 1.25,0.45 2,-0.45 m 0.8,-9.15 -0.2,-0.1 Q 72.25,2.6 71.9,3 71.65,3.25 71.75,3.7 l 0.2,0.45 0.7,0.1 0.2,-0.1 L 73,3.95 73.1,3.25 73,3.1 72.95,2.95 M 56.6,33.4 l -0.2,0.15 -0.1,0.35 0.15,0.45 0.3,0.15 0.3,-0.05 0.4,-0.4 -0.2,-0.55 -0.65,-0.1 m -4.4,1.7 -0.45,-0.6 -0.05,-0.05 0.7,-0.7 q 0.3,-0.7 -0.3,-0.95 l -0.6,0.1 -0.4,0.35 -0.65,-0.75 Q 49.95,32 49.5,32.2 49,32.45 49.1,33.05 l 0.45,0.9 0.3,0.4 -0.3,0.2 -0.3,0.3 q -0.2,0.15 -0.1,0.4 l 0.35,0.2 0.45,-0.1 0.5,-0.2 0.4,0.45 0.6,0.4 0.6,-0.25 q 0.3,-0.25 0.15,-0.65 m -1.75,-6.85 -0.15,-0.05 -0.2,0.1 -0.15,0.1 -0.1,0.2 v 0.25 q 0,0.4 0.45,0.4 V 29.2 h 0.25 l 0.1,-0.1 0.1,-0.15 0.05,-0.15 0.05,-0.1 -0.05,-0.15 -0.1,-0.15 -0.25,-0.15 m 9,2.8 L 61,30.9 q 0.8,-0.4 1.1,-1.2 0.25,-0.75 -0.05,-1.55 Q 61.7,27.35 61,27 q -1.15,-0.55 -2.25,0.2 -1.1,0.75 -0.85,2.1 0.1,0.6 0.5,1.1 0.45,0.5 1.05,0.65 m 4,2.6 q -0.05,0.45 0.35,0.8 l 0.85,-0.1 0.2,-0.2 0.45,0.6 1.1,-0.05 q 0.45,-0.25 0.55,-1 Q 67,33.1 66.4,32.3 l 0.5,-0.65 0.3,-0.7 Q 67.1,30.4 66.55,30.4 L 65.8,31 65.55,31.35 64.9,30.9 64.2,30.65 q -0.45,-0.1 -0.7,0.25 -0.25,0.3 -0.05,0.75 l 0.65,1.15 q -0.6,0.55 -0.65,0.85 m 9.15,3.3 q 0.2,-0.65 -0.1,-1.05 -0.3,-0.55 -1,-0.65 l -0.85,0.15 -0.4,0.35 q -0.3,0.35 -0.2,0.85 L 70.1,37 q 0.35,0.95 1.25,0.85 0.9,0 1.25,-0.9 M 2.65,19.55 2.75,18.65 Q 2.8,18.05 3,17.65 L 3.6,16.6 3.85,15.95 4.5,15.9 l 0.1,0.25 0.1,1.75 -0.1,0.75 0.15,1.4 0.1,0.35 0.15,0.35 0.15,0.95 0.05,0.4 -0.3,1 -0.7,1.2 -0.3,0.55 H 3.75 L 3.8,23.5 3.6,22.9 3.25,22.2 3.05,21.25 2.65,19.55 M 15.7,17.1 Q 16.15,10.25 20.35,4.9 L 32.2,39.95 31.15,39.9 25.8,39.85 l -1.25,0.3 -0.8,0.6 -0.95,0.05 -0.15,0.05 -0.25,0.1 L 22.05,41 H 21 l -5.35,-0.05 h -1.8 q -0.4,0.35 -0.95,0.35 -0.4,0.05 -0.8,-0.25 L 12,40.95 H 6.55 q -0.65,0.3 -1.05,0 L 5.35,40.9 5.2,40.85 5.15,40.75 5,40.65 4.95,40.55 4.9,40.4 4.85,40.3 4.75,40.2 V 40.1 L 4.8,40 V 39.9 39.8 39.7 39.6 L 4.9,39.5 V 39.4 L 5,39.3 v -0.1 l 0.1,-0.1 0.05,-0.1 0.1,-0.15 0.05,-0.1 0.05,-0.1 0.05,-0.1 0.1,-0.1 v -0.1 l 0.05,-0.1 v -0.1 -0.1 -0.1 l 0.1,-0.1 0.05,-0.1 v -0.1 l 0.05,-0.1 V 37.5 L 5.8,37.05 5.45,34.95 4.9,32.7 4.75,31.65 q -0.05,-1.7 1.4,-3.3 L 6.7,28 l 0.55,0.1 0.1,0.55 -0.05,1.4 0.3,0.85 0.65,2 q 2.55,2.05 2.8,6.05 L 12.2,39 V 38.95 Q 12.85,37.2 11.9,34.4 L 11,32.15 10.35,29.9 Q 9.9,27.3 11.3,22.35 l 0.2,-0.75 0.45,-2.05 0.3,-2.2 -0.45,0.7 Q 10.1,21.1 9.35,24.1 L 8.4,26.7 7.9,26.3 7.6,25.65 6.85,24.6 Q 6.4,23.95 6.2,22.7 5.75,21.4 5.8,20.35 5.85,18.9 6.5,17.1 l 1.9,-4.05 q 1,-1.95 1.4,-3.5 V 9.4 L 9.85,8.65 9.8,6.8 9.25,4.95 Q 8.85,4.45 8.95,4.15 9.1,3.75 9.7,3.85 10,3.9 10.35,4.3 l 1.6,1.85 0.5,0.9 0.35,1.4 0.15,0.65 0.05,0.55 q 0.35,1.15 0.35,2.55 0.75,1.45 1,3.2 l 0.05,3.45 0.05,1.25 v 0.1 0.05 L 14.3,21.2 q -0.05,1.85 0.6,3.6 0.65,1.95 2.05,3.4 l 0.2,-0.35 q 0.75,-2.1 -0.65,-5.8 l -0.7,-2.4 Q 15.6,18.8 15.7,17.1"
         fill="#999999"
         fill-rule="evenodd"
         stroke="none"
         id="path8" />
      <path
         d="m 30.25,-0.4 0.35,-0.15 0.6,0.1 0.1,0.05 0.2,0.4 v 0.6 l 0.1,0.6 v 0.35 l 0.05,0.9 0.55,4.45 2.05,-1.65 q 3.9,-3.2 7.9,-5.65 l 1.7,-1 0.6,-0.25 q 0.5,0 0.55,0.35 0.1,0.3 -0.4,0.7 L 44.35,-0.4 33.95,8 q 4.15,1.95 7.55,4.65 1.05,0.85 1,1.55 0,0.7 -0.7,1.15 l -1.3,0.55 q -1.95,0.7 -3.6,1.95 l 1.4,2.6 1.85,-0.4 0.25,-0.3 6.25,-6.95 V 12.75 L 48.8,9.05 49.3,7.85 49.15,7.5 49,6.85 48.95,6.35 47.2,2.05 46.95,1.2 q 0,-0.55 0.25,-0.8 l 0.6,-0.15 0.45,0.1 0.15,-0.45 0.8,-0.1 0.3,0.4 0.75,1.75 0.15,0.25 0.2,-0.15 5.9,-2.4 0.1,-0.05 0.65,-0.25 V 0.6 0.9 L 56.7,1 53.95,2 51.3,2.8 50.8,3 50.75,3.05 52,6.65 l 0.15,1.6 q -0.1,1 -1.3,2.5 L 48.6,13.7 q -0.3,0.4 -0.3,0.7 l 0.1,0.45 1.25,2.95 0.2,-0.05 q 0.95,-0.1 0.95,0.4 0,0.25 -0.5,0.45 l -0.3,0.15 -0.25,0.45 -0.6,-0.1 -7.05,2.85 0.1,0.3 0.1,0.55 0.3,0.55 0.9,1.3 1.9,2.85 0.7,1.05 0.35,0.45 0.35,0.95 -0.1,0.55 -0.65,-0.15 q -1,-0.7 -1.8,-1.85 l -0.5,-0.75 -2.1,-2.8 -0.75,1.35 -1.15,1.6 -0.25,0.35 -1.75,3.6 -2.95,4.6 1.6,1.25 2.9,2.25 0.7,0.85 q 0.35,0.65 -0.2,1.2 -0.5,0.5 -1.15,0.4 -0.55,-0.05 -1.05,-0.55 l -0.85,-1 -0.05,-0.05 -1.65,-1.5 -1.85,-1.45 -0.15,-0.1 -0.4,0.7 -0.45,-1.3 0.1,-0.15 0.4,-0.35 0.05,-0.15 0.15,-0.35 1.35,-2.05 1.4,-2.05 2.65,-4.35 1.35,-1.85 0.1,-0.1 0.3,-0.75 0.25,-1.7 0.05,-0.7 -1.8,0.65 -0.9,0.3 -8.65,2.85 2.65,5.9 q 0.5,0.95 0.3,1.6 L 31.3,34.6 27.5,23.45 Q 28.8,22.8 30.75,22.3 V 21.65 L 30.7,17.7 Q 28.85,18 26,19.05 l -0.55,-1.6 0.45,-0.2 -0.45,-0.55 -0.75,-1.35 -2.8,-8.3 0.95,1.9 Q 23.85,7.9 25.1,7.1 L 24.4,3.75 24.2,2.4 24.05,1.3 Q 23.8,0.1 23.95,-0.2 l 0.15,-0.2 0.95,-0.15 0.2,0.15 0.45,1.2 0.85,6.6 L 26.5,7.85 25.7,8.6 Q 25.1,9 23.6,10.35 l 3.35,6.55 2.55,-0.7 1.45,-0.35 0.95,0.05 q 0.35,0.25 0.25,1.2 l -0.05,2.2 -0.05,2.65 3.5,-0.85 -1.25,-2.15 q -0.75,-1.1 -0.6,-1.7 0.1,-0.6 1,-1.1 l 4,-2.3 Q 36,11.8 32.8,10.25 31.7,9.75 31.35,9.35 30.55,8.55 31.05,7.75 H 31.1 L 30.8,6.5 30.7,5.4 30.55,4.5 30.5,4.05 30.3,2.75 30.25,1.75 30.1,1.4 30.05,0.7 29.95,0.3 q 0,-0.5 0.3,-0.7 M 58,40.8 57.15,41.2 55.9,41.15 55.25,40.8 54.65,40.15 Q 54.2,39.4 54.4,38.6 q 0.15,-0.8 0.85,-1.35 0.65,-0.55 1.5,-0.5 0.8,0.05 1.45,0.7 0.6,0.6 0.65,1.4 0.1,0.7 -0.3,1.3 L 58,40.8 m -13.7,-0.65 -0.1,0.6 v 0.05 l -0.25,0.3 -0.55,0.1 -0.65,-0.2 -0.2,-0.2 -0.1,-0.1 -0.2,-0.5 -0.5,-1.65 -0.35,-1.6 Q 41.3,36.3 41.45,36 l 0.7,-0.55 0.35,-0.4 1.35,-1.55 0.7,-0.7 1.15,-0.8 0.2,-0.05 h 0.35 q 0.3,0.2 0.1,0.55 l -0.3,0.35 -0.7,0.65 q -1.2,1.1 -2.2,2.5 l -0.1,0.25 0.05,0.2 1.1,3.1 0.1,0.6 M 72.95,2.95 73,3.1 l 0.1,0.15 -0.1,0.7 -0.15,0.2 -0.2,0.1 -0.7,-0.1 -0.2,-0.45 Q 71.65,3.25 71.9,3 72.25,2.6 72.75,2.85 l 0.2,0.1 m -0.8,9.15 q -0.75,0.9 -2,0.45 -1.1,-0.5 -1,-1.8 0.05,-0.5 0.45,-0.95 0.35,-0.45 0.9,-0.55 l 1.05,0.1 0.8,0.65 q 0.3,0.5 0.25,1.1 -0.05,0.6 -0.45,1 M 66.9,3.6 Q 67.4,3.15 67.75,3.35 68,3.5 67.9,3.9 L 67.65,4.4 67.1,5.3 67.45,5.5 68,6.05 67.9,6.55 67.45,6.8 66.95,6.65 66.4,6.45 66.3,6.55 65.85,7.4 Q 65.4,7.65 65,7.15 64.7,6.8 64.9,6.25 L 65,6 64.55,5.75 63.95,5.1 Q 63.8,4.55 64.35,4.15 L 65.4,4.1 66.05,4.65 66.9,3.6 M 58.05,10 q 0.65,-1.4 2.25,-1.25 0.65,0.05 1.2,0.55 0.55,0.45 0.7,1.15 0.15,0.65 -0.1,1.3 l -0.85,1.05 -2.6,-0.1 Q 58.1,12.2 57.9,11.45 57.7,10.65 58.05,10 m 8.25,7.3 -0.2,-0.4 v -0.2 l 0.1,-0.2 q 0.15,-0.25 0.55,-0.25 l 0.35,0.25 0.1,0.35 -0.15,0.4 -0.55,0.1 -0.2,-0.05 m -6.2,-0.1 q -0.15,-0.4 0.15,-0.65 0.25,-0.35 0.6,-0.25 0.25,0.05 0.6,0.4 l 0.4,0.45 0.5,-0.2 0.45,-0.1 0.35,0.2 -0.1,0.4 -0.3,0.3 -0.3,0.2 0.3,0.4 0.45,0.9 q 0.1,0.6 -0.4,0.85 -0.45,0.2 -0.95,-0.3 l -0.65,-0.75 -0.4,0.35 -0.6,0.1 q -0.6,-0.25 -0.3,-0.95 l 0.7,-0.7 -0.05,-0.05 -0.45,-0.6 m 1.75,6.85 -0.25,-0.15 -0.1,-0.15 -0.05,-0.15 0.05,-0.1 0.05,-0.15 0.1,-0.15 0.1,-0.1 H 62 v -0.05 q 0.45,0 0.45,0.4 V 23.7 L 62.35,23.9 62.2,24 62,24.1 61.85,24.05 m 8.7,1.85 q -0.4,-0.45 -0.15,-0.85 l 0.4,-0.4 0.25,-0.1 h 0.1 l 0.05,-0.05 0.65,0.35 0.1,0.15 0.1,0.2 L 72,25.65 71.8,26 71.15,26.25 70.55,25.9 M 50.7,21.85 51.3,21.4 52.85,21.25 q 0.6,0.15 1.05,0.65 l 0.5,1.1 q 0.25,1.35 -0.85,2.1 -1.1,0.75 -2.25,0.2 -0.7,-0.35 -1.05,-1.15 l -0.15,-0.6 0.6,-1.7 m -2.25,-3.75 -1.6,-2.9 -4.4,4.3 6,-1.4 m 11,12.95 Q 58.85,30.9 58.4,30.4 58,29.9 57.9,29.3 57.65,27.95 58.75,27.2 59.85,26.45 61,27 q 0.7,0.35 1.05,1.15 0.3,0.8 0.05,1.55 -0.3,0.8 -1.1,1.2 l -1.55,0.15 m -9,-2.8 0.25,0.15 0.1,0.15 0.05,0.15 -0.05,0.1 -0.05,0.15 -0.1,0.15 -0.1,0.1 H 50.3 v 0.05 q -0.45,0 -0.45,-0.4 V 28.6 l 0.1,-0.2 0.15,-0.1 0.2,-0.1 0.15,0.05 m 1.75,6.85 q 0.15,0.4 -0.15,0.65 l -0.6,0.25 -0.6,-0.4 -0.4,-0.45 -0.5,0.2 -0.45,0.1 -0.35,-0.2 q -0.1,-0.25 0.1,-0.4 l 0.3,-0.3 0.3,-0.2 -0.3,-0.4 -0.45,-0.9 q -0.1,-0.6 0.4,-0.85 0.45,-0.2 0.95,0.3 l 0.65,0.75 0.4,-0.35 0.6,-0.1 q 0.6,0.25 0.3,0.95 l -0.7,0.7 0.05,0.05 0.45,0.6 m 4.4,-1.7 0.65,0.1 0.2,0.55 -0.4,0.4 -0.3,0.05 -0.3,-0.15 -0.15,-0.45 0.1,-0.35 0.2,-0.15 m 16,3.55 q -0.35,0.9 -1.25,0.9 -0.9,0.1 -1.25,-0.85 l -0.05,-0.4 q -0.1,-0.5 0.2,-0.85 l 0.4,-0.35 0.85,-0.15 q 0.7,0.1 1,0.65 0.3,0.4 0.1,1.05 m -9.15,-3.3 q 0.05,-0.3 0.65,-0.85 l -0.65,-1.15 q -0.2,-0.45 0.05,-0.75 0.25,-0.35 0.7,-0.25 l 0.7,0.25 0.65,0.45 0.25,-0.35 0.75,-0.6 q 0.55,0 0.65,0.55 l -0.3,0.7 -0.5,0.65 q 0.6,0.8 0.55,1.4 -0.1,0.75 -0.55,1 l -1.1,0.05 -0.45,-0.6 -0.2,0.2 -0.85,0.1 q -0.4,-0.35 -0.35,-0.8"
         fill="#ffffff"
         fill-rule="evenodd"
         stroke="none"
         id="path9" />
      <path
         d="m 25.25,-0.4 h 5 q -0.3,0.2 -0.3,0.7 l 0.1,0.4 0.05,0.7 0.15,0.35 0.05,1 0.2,1.3 0.05,0.45 0.15,0.9 0.1,1.1 0.3,1.25 h -0.05 q -0.5,0.8 0.3,1.6 0.35,0.4 1.45,0.9 3.2,1.55 5.9,3.6 l -4,2.3 q -0.9,0.5 -1,1.1 -0.15,0.6 0.6,1.7 l 1.25,2.15 -3.5,0.85 0.05,-2.65 0.05,-2.2 q 0.1,-0.95 -0.25,-1.2 L 30.95,15.85 29.5,16.2 26.95,16.9 23.6,10.35 Q 25.1,9 25.7,8.6 L 26.5,7.85 26.55,7.4 25.7,0.8 25.25,-0.4 m 6.05,0 h 10.85 q -4,2.45 -7.9,5.65 L 32.2,6.9 31.65,2.45 31.6,1.55 V 1.2 L 31.5,0.6 V 0 l -0.2,-0.4 m 13.05,0 H 56.6 L 56.5,-0.35 50.6,2.05 50.4,2.2 50.25,1.95 49.5,0.2 49.2,-0.2 48.4,-0.1 48.25,0.35 47.8,0.25 47.2,0.4 q -0.25,0.25 -0.25,0.8 l 0.25,0.85 1.75,4.3 0.05,0.5 0.15,0.65 0.15,0.35 -0.5,1.2 -2.15,3.7 v 0.05 l -6.25,6.95 -0.25,0.3 -1.85,0.4 -1.4,-2.6 q 1.65,-1.25 3.6,-1.95 l 1.3,-0.55 q 0.7,-0.45 0.7,-1.15 0.05,-0.7 -1,-1.55 Q 38.1,9.95 33.95,8 l 10.4,-8.4 m 0.8,38.15 -0.85,2.4 -0.1,-0.6 -1.1,-3.1 -0.05,-0.2 0.1,-0.25 q 1,-1.4 2.2,-2.5 l 0.7,-0.65 0.3,-0.35 q 0.2,-0.35 -0.1,-0.55 H 45.9 l -0.2,0.05 -1.15,0.8 -0.7,0.7 -1.35,1.55 -0.35,0.4 -0.7,0.55 q -0.15,0.3 -0.05,0.95 l 0.35,1.6 0.5,1.65 0.2,0.5 0.1,0.1 H 40 l -0.7,-0.85 -2.9,-2.25 -1.6,-1.25 2.95,-4.6 1.75,-3.6 0.25,-0.35 1.15,-1.6 0.75,-1.35 2.1,2.8 0.5,0.75 q 0.8,1.15 1.8,1.85 L 46.7,30.5 46.8,29.95 46.45,29 46.1,28.55 45.4,27.5 l -1.9,-2.85 -0.9,-1.3 -0.3,-0.55 -0.1,-0.55 -0.1,-0.3 7.05,-2.85 0.6,0.1 0.25,-0.45 0.3,-0.15 q 0.5,-0.2 0.5,-0.45 0,-0.5 -0.95,-0.4 L 49.65,17.8 48.4,14.85 48.3,14.4 q 0,-0.3 0.3,-0.7 l 2.25,-2.95 q 1.2,-1.5 1.3,-2.5 L 52,6.65 50.75,3.05 50.8,3 51.3,2.8 53.95,2 56.7,1 57.25,0.9 V 3 l -6.55,18.85 -0.6,1.7 -4.95,14.2 M 36.7,40.8 h -3.25 l -0.8,-2.35 0.4,-0.7 0.15,0.1 1.85,1.45 1.65,1.5 m -4.5,-3.65 -0.9,-2.55 0.65,-0.7 q 0.2,-0.65 -0.3,-1.6 L 29,26.4 l 8.65,-2.85 0.9,-0.3 1.8,-0.65 -0.05,0.7 -0.25,1.7 -0.3,0.75 -0.1,0.1 -1.35,1.85 -2.65,4.35 -1.4,2.05 -1.35,2.05 -0.15,0.35 -0.05,0.15 -0.4,0.35 -0.1,0.15 M 27.5,23.45 26,19.05 Q 28.85,18 30.7,17.7 l 0.05,3.95 v 0.65 q -1.95,0.5 -3.25,1.15 m -2.05,-6 -0.75,-2.1 0.75,1.35 0.45,0.55 -0.45,0.2 M 21.9,7.05 19.85,1.15 V -0.4 h 4.25 l -0.15,0.2 q -0.15,0.3 0.1,1.5 l 0.15,1.1 0.2,1.35 0.7,3.35 Q 23.85,7.9 22.85,8.95 L 21.9,7.05 m 26.55,11.05 -6,1.4 4.4,-4.3 1.6,2.9"
         fill="#000000"
         fill-rule="evenodd"
         stroke="none"
         id="path10" />
      <path
         d="M 55.25,40.8 H 45.15"
         ffdec:has-small-stroke="true"
         ffdec:original-stroke-width="0.1"
         fill="none"
         stroke="#999999"
         stroke-linecap="round"
         stroke-linejoin="round"
         stroke-width="1"
         id="path11" />
      <path
         d="m 19.9,-0.8 v 0.1 l 0.05,0.1 0.05,0.1 0.05,0.1 v 0.1 l 0.05,0.15 0.05,0.1 0.05,0.1 v 0.1 l 0.05,0.1 0.05,0.1 0.05,0.15 v 0.1 l 0.05,0.1 0.05,0.1 0.05,0.15 v 0.1 l 0.05,0.1 0.05,0.1 v 0.1 l 0.05,0.1 0.05,0.15 0.05,0.1 v 0.1 l 0.1,0.05 v 0.1 L 20.9,2.05 20.95,2.1 21,2.25 v 0.1 L 21.05,2.5 21.1,2.6 V 2.7 L 21.15,2.8 21.2,2.95 21.25,3 v 0.1 l 0.05,0.1 0.05,0.15 0.05,0.1 0.05,0.15 v 0.1 l 0.05,0.1 0.05,0.05 V 4 l 0.05,0.1 v 0.05 h 0.1 V 4.2 l 0.05,0.1 v 0.1 l 0.05,0.1 0.05,0.15 0.05,0.05 0.05,0.15 v 0.1 l 0.05,0.1 0.05,0.1 V 5.3 l 0.05,0.1 0.05,0.15 0.05,0.05 v 0.1 l 0.05,0.1 0.05,0.15 0.1,0.1 0.05,0.15 v 0.1 l 0.05,0.1 0.05,0.05 V 6.6 l 0.05,0.1 0.05,0.1 v 0.1 l 0.05,0.15 0.05,0.1 0.05,0.15 0.05,0.05 v 0.1 L 22.9,7.55 22.95,7.7 23,7.8 v 0.15 l 0.05,0.1 0.05,0.1 v 0.1 l 0.05,0.1 0.05,0.1 0.05,0.15 0.05,0.1 v 0.1 l 0.05,0.1 0.05,0.15 v 0.1 l 0.05,0.1 0.05,0.1 0.05,0.1 v 0.1 l 0.05,0.15 0.05,0.1 0.05,0.15 0.05,0.1 v 0.05 l 0.05,0.1 0.05,0.15 v 0.1 l 0.05,0.1 0.05,0.1 v 0.15 0.1 L 24,11 l 0.05,0.1 0.05,0.1 v 0.1 l 0.05,0.15 0.05,0.1 0.05,0.15 v 0.1 l 0.05,0.05 0.05,0.1 0.05,0.15 v 0.1 l 0.05,0.15 0.05,0.1 0.05,0.1 v 0.1 l 0.05,0.1 0.05,0.1 0.05,0.15 v 0.1 l 0.05,0.1 0.05,0.1 0.05,0.15 v 0.1 l 0.05,0.1 0.05,0.1 0.05,0.1 v 0.1 l 0.05,0.15 0.05,0.1 0.05,0.1 v 0.1 l 0.05,0.1 0.05,0.1 0.05,0.15 v 0.1 l 0.05,0.1 0.05,0.1 0.05,0.15 v 0.1 l 0.05,0.1 0.05,0.1 0.05,0.1 v 0.1 l 0.05,0.15 0.05,0.1 0.05,0.15 v 0.1 l 0.05,0.1 0.05,0.05 0.05,0.15 v 0.1 l 0.05,0.15 0.05,0.1 v 0.1 l 0.05,0.1 0.05,0.15 0.05,0.05 v 0.1 l 0.05,0.1 0.05,0.15 0.05,0.1 0.05,0.15 v 0.1 l 0.05,0.1 0.05,0.05 v 0.15 l 0.05,0.1 0.05,0.15 0.05,0.1 v 0.1 l 0.05,0.1 0.05,0.15 0.05,0.05 0.05,0.15 v 0.1 l 0.05,0.1 0.05,0.1 v 0.15 l 0.05,0.1 0.05,0.15 0.05,0.05 V 20 l 0.05,0.1 0.05,0.15 0.05,0.1 0.05,0.15 v 0.1 l 0.05,0.1 0.05,0.05 v 0.15 l 0.05,0.1 0.05,0.1 v 0.1 l 0.05,0.15 0.05,0.1 0.05,0.15 0.05,0.05 v 0.1 l 0.05,0.1 0.05,0.15 0.05,0.1 v 0.15 l 0.05,0.1 0.05,0.1 v 0.1 l 0.05,0.1 0.05,0.1 0.05,0.15 0.05,0.1 v 0.1 l 0.05,0.1 0.05,0.15 0.05,0.1 v 0.1 l 0.05,0.1 0.05,0.1 v 0.1 l 0.05,0.15 0.05,0.1 0.05,0.15 0.05,0.1 v 0.05 l 0.05,0.1 0.05,0.15 v 0.1 l 0.05,0.1 0.05,0.1 0.05,0.15 v 0.1 l 0.05,0.1 0.05,0.1 0.05,0.1 v 0.1 l 0.05,0.15 0.05,0.1 0.05,0.15 v 0.1 l 0.05,0.05 0.05,0.1 0.05,0.15 v 0.1 l 0.05,0.15 0.05,0.1 0.05,0.1 v 0.1 l 0.05,0.1 0.05,0.1 0.05,0.15 v 0.1 l 0.05,0.1 0.05,0.1 0.05,0.15 v 0.1 l 0.05,0.05 0.05,0.1 0.05,0.15 v 0.1 l 0.05,0.15 0.05,0.1 0.05,0.1 v 0.1 l 0.05,0.1 0.05,0.1 0.05,0.15 v 0.1 l 0.05,0.1 0.05,0.1 0.05,0.15 v 0.1 l 0.05,0.1 0.05,0.1 0.05,0.1 V 30 l 0.05,0.15 0.05,0.1 0.05,0.15 v 0.1 l 0.05,0.1 0.05,0.05 0.05,0.15 v 0.1 l 0.05,0.15 0.05,0.1 0.05,0.1 v 0.1 l 0.05,0.15 0.05,0.05 v 0.1 l 0.05,0.1 0.05,0.15 0.05,0.1 0.05,0.15 v 0.1 l 0.05,0.1 0.05,0.05 v 0.15 l 0.05,0.1 0.05,0.15 0.05,0.1 V 33 l 0.05,0.1 0.05,0.15 0.05,0.05 0.05,0.15 v 0.1 l 0.05,0.1 0.05,0.1 v 0.15 l 0.05,0.1 0.05,0.15 0.05,0.05 v 0.1 l 0.05,0.1 0.05,0.15 0.05,0.1 0.05,0.15 v 0.1 l 0.05,0.1 0.05,0.05 v 0.15 l 0.05,0.1 0.05,0.1 v 0.1 l 0.05,0.15 0.05,0.1 0.05,0.15 0.05,0.05 v 0.1 l 0.05,0.1 0.05,0.15 0.05,0.1 v 0.15 l 0.05,0.1 0.05,0.1 v 0.1 l 0.05,0.1 0.05,0.1 0.05,0.15 0.05,0.1 v 0.1 l 0.05,0.1 0.05,0.15 0.05,0.1 v 0.1 l 0.05,0.1 0.05,0.1 v 0.1 l 0.05,0.15 0.05,0.1 0.05,0.1 v 0.1 l 0.05,0.1 0.05,0.1 0.05,0.15 0.05,0.1 v 0.1 l 0.05,0.1 0.05,0.15 v 0.1 l 0.05,0.1 0.05,0.1 0.05,0.1 v 0.1 l 0.05,0.15 0.05,0.1 0.05,0.15 v 0.1 l 0.05,0.05 0.05,0.1 0.05,0.15 v 0.1 l 0.05,0.15 0.05,0.1 0.05,0.1 h -3.1 L 31.1,41 V 40.9 L 31.05,40.8 31,40.7 30.95,40.55 v -0.1 L 30.9,40.4 30.85,40.3 30.8,40.15 v -0.1 L 30.75,39.9 30.7,39.8 V 39.7 L 30.65,39.6 30.6,39.5 30.55,39.4 30.5,39.25 v -0.1 L 30.45,39.05 30.4,38.95 30.35,38.8 V 38.7 L 30.3,38.6 30.25,38.5 V 38.4 L 30.2,38.3 30.15,38.15 30.1,38.05 30.05,37.9 V 37.8 L 30,37.75 29.95,37.65 29.9,37.5 v -0.1 l -0.05,-0.15 -0.05,-0.1 v -0.1 l -0.05,-0.1 -0.05,-0.1 -0.05,-0.1 v -0.1 L 29.6,36.55 29.55,36.4 29.5,36.3 29.45,36.15 v -0.1 L 29.4,36 V 35.9 L 29.35,35.75 29.3,35.65 29.25,35.5 29.2,35.4 V 35.3 L 29.15,35.2 29.1,35.1 29.05,35 29,34.85 v -0.1 l -0.05,-0.1 v -0.1 L 28.9,34.4 28.85,34.3 28.8,34.2 28.75,34.1 V 34 L 28.7,33.9 28.65,33.75 28.6,33.65 v -0.1 L 28.55,33.45 28.5,33.3 V 33.25 L 28.45,33.1 28.4,33 28.35,32.9 v -0.1 l -0.05,-0.15 -0.05,-0.1 -0.05,-0.1 -0.05,-0.1 v -0.1 L 28.1,32.15 28.05,32 V 31.9 L 28,31.75 27.95,31.65 27.9,31.55 V 31.5 L 27.85,31.35 27.8,31.25 27.75,31.1 27.7,31 V 30.9 L 27.65,30.8 27.6,30.65 V 30.6 l -0.05,-0.15 -0.05,-0.1 -0.05,-0.1 v -0.1 L 27.4,30 27.35,29.9 27.3,29.8 V 29.75 L 27.25,29.6 27.2,29.5 27.15,29.35 v -0.1 L 27.1,29.15 27.05,29.05 27,28.9 V 28.85 L 26.95,28.7 26.9,28.6 26.85,28.5 V 28.4 L 26.8,28.25 26.75,28.15 26.7,28 v -0.05 l -0.05,-0.1 -0.05,-0.1 -0.05,-0.15 v -0.1 l -0.05,-0.15 -0.05,-0.1 -0.05,-0.1 v -0.1 L 26.35,26.95 26.3,26.85 26.25,26.7 V 26.6 L 26.2,26.5 26.15,26.4 26.1,26.25 v -0.1 L 26.05,26.1 26,26 25.95,25.85 v -0.1 L 25.9,25.6 25.85,25.5 V 25.4 L 25.8,25.3 25.75,25.2 25.7,25.1 25.65,24.95 v -0.1 L 25.6,24.75 25.55,24.65 25.5,24.5 V 24.4 L 25.45,24.3 25.4,24.2 V 24.1 L 25.35,24 25.3,23.85 25.25,23.75 25.2,23.6 V 23.5 L 25.15,23.45 25.1,23.35 25.05,23.2 V 23.1 L 25,23 v -0.1 l -0.05,-0.15 -0.05,-0.1 -0.05,-0.1 -0.05,-0.1 v -0.1 L 24.75,22.25 24.7,22.1 24.65,22 24.6,21.85 v -0.1 L 24.55,21.7 V 21.6 L 24.5,21.45 24.45,21.35 24.4,21.2 24.35,21.1 V 21 L 24.3,20.9 24.25,20.8 24.2,20.7 24.15,20.55 v -0.1 l -0.05,-0.1 v -0.1 L 24.05,20.1 24,20 23.95,19.9 23.9,19.8 v -0.1 l -0.05,-0.1 -0.05,-0.15 -0.05,-0.1 v -0.1 L 23.7,19.15 23.65,19 V 18.95 L 23.6,18.8 23.55,18.7 23.5,18.6 v -0.1 l -0.05,-0.15 -0.05,-0.1 -0.05,-0.1 -0.05,-0.1 v -0.1 L 23.25,17.85 23.2,17.7 v -0.1 l -0.05,-0.15 -0.05,-0.1 -0.05,-0.1 V 17.2 L 23,17.05 22.95,16.95 22.9,16.8 22.85,16.7 V 16.6 L 22.8,16.5 22.75,16.35 V 16.3 l -0.05,-0.15 -0.05,-0.1 -0.05,-0.1 v -0.1 L 22.55,15.7 22.5,15.6 22.45,15.5 V 15.45 L 22.4,15.3 22.35,15.2 22.3,15.05 v -0.1 L 22.25,14.85 22.2,14.75 22.15,14.6 V 14.55 L 22.1,14.4 22.05,14.3 22,14.2 V 14.1 L 21.95,13.95 21.9,13.85 21.85,13.7 V 13.65 L 21.8,13.55 21.75,13.45 21.7,13.3 v -0.1 l -0.05,-0.15 -0.05,-0.1 -0.05,-0.1 v -0.1 L 21.5,12.65 21.45,12.55 21.4,12.4 V 12.3 L 21.35,12.2 21.3,12.1 21.25,11.95 V 11.9 L 21.2,11.8 21.1,11.7 21.05,11.55 v -0.1 L 21,11.3 20.95,11.2 V 11.1 L 20.9,11 20.85,10.9 20.8,10.8 20.75,10.65 v -0.1 L 20.7,10.45 20.65,10.35 20.6,10.2 V 10.1 L 20.55,10 20.5,9.9 V 9.8 L 20.45,9.7 20.4,9.55 20.35,9.45 20.3,9.3 V 9.2 L 20.25,9.15 20.2,9.05 20.15,8.9 V 8.8 L 20.1,8.7 V 8.6 L 20.05,8.45 20,8.35 19.95,8.25 19.9,8.15 V 8.05 L 19.85,7.95 19.8,7.8 19.75,7.7 19.7,7.55 V 7.45 L 19.65,7.4 V 7.3 L 19.6,7.15 19.55,7.05 19.5,6.95 19.55,6.9 19.5,6.8 V 6.7 L 19.45,6.6 19.4,6.5 19.35,6.4 19.3,6.25 V 6.15 L 19.25,6.05 V 5.95 L 19.2,5.8 19.15,5.7 19.1,5.6 19.05,5.5 V 5.4 L 19,5.3 18.95,5.15 18.9,5.05 V 4.95 L 18.85,4.85 18.8,4.75 V 4.65 L 18.75,4.5 18.7,4.4 V 4.3 4.2 L 18.65,4.05 18.6,3.95 18.55,3.85 18.5,3.75 V 3.65 L 18.45,3.55 18.4,3.4 V 3.3 L 18.35,3.15 18.3,3.05 18.25,2.95 V 2.9 L 18.2,2.75 18.15,2.65 18.1,2.5 18.05,2.4 V 2.3 L 18,2.2 17.95,2.05 V 2 L 17.9,1.85 17.85,1.75 17.8,1.65 V 1.55 L 17.75,1.4 17.7,1.3 17.65,1.2 V 1.15 L 17.6,1 17.55,0.9 17.5,0.75 V 0.65 L 17.45,0.55 17.4,0.45 17.35,0.3 V 0.25 L 17.3,0.1 17.25,0 17.2,-0.1 V -0.2 L 17.15,-0.35 17.1,-0.45 17.05,-0.6 V -0.65 L 17,-0.75 V -0.9 h 2.9 v 0.1 m 36.1,0 0.05,-0.1 h 2.85 v 0.15 l -0.05,0.1 v 0.05 l -0.05,0.15 -0.05,0.1 -0.05,0.15 v 0.1 L 58.65,0 58.6,0.1 58.55,0.25 V 0.3 l -0.05,0.15 -0.05,0.1 -0.05,0.1 v 0.1 L 58.35,0.9 58.3,1 58.25,1.15 V 1.2 L 58.2,1.3 58.15,1.4 58.1,1.55 v 0.1 L 58.05,1.75 58,1.85 57.95,2 V 2.05 L 57.9,2.2 57.85,2.3 V 2.4 L 57.8,2.5 57.75,2.65 57.7,2.75 57.65,2.9 V 2.95 L 57.6,3.05 57.55,3.15 57.5,3.3 v 0.1 l -0.05,0.15 -0.05,0.1 v 0.1 L 57.35,3.85 57.3,3.95 57.25,4.05 57.2,4.2 V 4.3 4.4 L 57.15,4.5 57.1,4.65 v 0.1 L 57.05,4.85 57,4.95 v 0.1 L 56.95,5.15 56.9,5.3 56.85,5.4 V 5.5 L 56.8,5.6 56.75,5.7 56.7,5.8 56.65,5.95 v 0.1 l -0.05,0.1 v 0.1 L 56.55,6.4 56.5,6.5 56.45,6.6 56.4,6.7 V 6.8 L 56.35,6.9 56.4,6.95 56.35,7.05 56.3,7.15 56.25,7.3 V 7.4 L 56.2,7.45 v 0.1 L 56.15,7.7 56.1,7.8 56.05,7.95 56,8.05 v 0.1 L 55.95,8.25 55.9,8.35 55.85,8.45 55.8,8.6 V 8.7 L 55.75,8.8 V 8.9 L 55.7,9.05 55.65,9.15 55.6,9.2 V 9.3 L 55.55,9.45 55.5,9.55 55.45,9.7 55.4,9.8 V 9.9 L 55.35,10 55.3,10.1 v 0.1 l -0.05,0.15 -0.05,0.1 -0.05,0.1 v 0.1 L 55.1,10.8 55.05,10.9 55,11 54.95,11.1 v 0.1 l -0.05,0.1 -0.05,0.15 v 0.1 l -0.05,0.15 -0.1,0.1 -0.05,0.1 v 0.05 l -0.05,0.15 -0.05,0.1 -0.05,0.1 v 0.1 l -0.05,0.15 -0.05,0.1 -0.05,0.1 v 0.1 l -0.05,0.1 -0.05,0.1 -0.05,0.15 v 0.1 l -0.05,0.15 -0.05,0.1 -0.05,0.1 V 13.7 L 54,13.85 53.95,13.95 53.9,14.1 v 0.1 l -0.05,0.1 -0.05,0.1 -0.05,0.15 v 0.05 l -0.05,0.15 -0.05,0.1 -0.05,0.1 v 0.1 l -0.05,0.15 -0.05,0.1 -0.05,0.15 v 0.05 l -0.05,0.1 -0.05,0.1 -0.05,0.15 v 0.1 l -0.05,0.1 -0.05,0.1 -0.05,0.15 v 0.05 l -0.05,0.15 -0.05,0.1 v 0.1 l -0.05,0.1 -0.05,0.15 -0.05,0.1 -0.05,0.15 v 0.05 l -0.05,0.1 -0.05,0.1 -0.05,0.15 v 0.1 l -0.05,0.15 -0.05,0.1 v 0.1 l -0.05,0.1 -0.05,0.1 -0.05,0.1 -0.05,0.15 v 0.1 l -0.05,0.1 -0.05,0.1 -0.05,0.15 V 19 l -0.05,0.15 -0.05,0.1 v 0.1 L 52.1,19.45 52.05,19.6 52,19.7 v 0.1 l -0.05,0.1 -0.05,0.1 -0.05,0.1 -0.05,0.15 v 0.1 l -0.05,0.1 v 0.1 L 51.7,20.7 51.65,20.8 51.6,20.9 51.55,21 v 0.1 l -0.05,0.1 -0.05,0.15 -0.05,0.1 -0.05,0.15 v 0.1 l -0.05,0.05 v 0.1 l -0.05,0.15 -0.05,0.1 -0.05,0.15 -0.05,0.1 v 0.1 l -0.05,0.1 -0.05,0.1 -0.05,0.1 -0.05,0.15 V 23 l -0.05,0.1 v 0.1 l -0.05,0.15 -0.05,0.1 -0.05,0.05 v 0.1 l -0.05,0.15 -0.05,0.1 -0.05,0.15 -0.05,0.1 v 0.1 l -0.05,0.1 -0.05,0.1 v 0.1 l -0.05,0.15 -0.05,0.1 -0.05,0.1 v 0.1 l -0.05,0.15 -0.05,0.1 -0.05,0.1 -0.05,0.1 v 0.1 L 50,25.6 49.95,25.75 v 0.1 L 49.9,26 49.85,26.1 49.8,26.15 v 0.1 l -0.05,0.15 -0.05,0.1 -0.05,0.1 v 0.1 l -0.05,0.15 -0.05,0.1 -0.05,0.1 v 0.1 l -0.05,0.1 -0.05,0.1 -0.05,0.15 v 0.1 l -0.05,0.15 -0.05,0.1 -0.05,0.1 V 28 l -0.05,0.15 -0.05,0.1 -0.05,0.15 v 0.1 L 49,28.6 48.95,28.7 48.9,28.85 v 0.05 l -0.05,0.15 -0.05,0.1 -0.05,0.1 v 0.1 l -0.05,0.15 -0.05,0.1 -0.05,0.15 v 0.05 l -0.05,0.1 -0.05,0.1 -0.05,0.15 v 0.1 l -0.05,0.1 -0.05,0.1 -0.05,0.15 v 0.05 L 48.25,30.8 48.2,30.9 V 31 l -0.05,0.1 -0.05,0.15 -0.05,0.1 L 48,31.5 v 0.05 l -0.05,0.1 -0.05,0.1 -0.05,0.15 V 32 l -0.05,0.15 -0.05,0.1 v 0.1 l -0.05,0.1 -0.05,0.1 -0.05,0.1 -0.05,0.15 v 0.1 L 47.5,33 47.45,33.1 47.4,33.25 v 0.05 l -0.05,0.15 -0.05,0.1 v 0.1 l -0.05,0.1 -0.05,0.15 -0.05,0.1 v 0.1 l -0.05,0.1 -0.05,0.1 -0.05,0.1 -0.05,0.15 v 0.1 l -0.05,0.1 v 0.1 L 46.85,35 46.8,35.1 46.75,35.2 46.7,35.3 v 0.1 l -0.05,0.1 -0.05,0.15 -0.05,0.1 -0.05,0.15 V 36 l -0.05,0.05 v 0.1 l -0.05,0.15 -0.05,0.1 -0.05,0.15 -0.05,0.1 v 0.1 l -0.05,0.1 -0.05,0.1 -0.05,0.1 v 0.1 L 46.05,37.25 46,37.4 v 0.1 l -0.05,0.15 -0.05,0.1 -0.05,0.05 v 0.1 l -0.05,0.15 -0.05,0.1 -0.05,0.15 -0.05,0.1 v 0.1 l -0.05,0.1 -0.05,0.1 v 0.1 l -0.05,0.15 -0.05,0.1 -0.05,0.1 v 0.1 l -0.05,0.15 -0.05,0.1 -0.05,0.1 -0.05,0.1 v 0.1 l -0.05,0.1 -0.05,0.15 v 0.1 L 45.05,40.3 45,40.4 44.95,40.45 v 0.1 L 44.9,40.7 44.85,40.8 44.8,40.9 V 41 l -0.05,0.15 h -3.1 l 0.05,-0.1 0.05,-0.1 0.05,-0.15 v -0.1 l 0.05,-0.15 0.05,-0.1 0.05,-0.05 V 40.3 L 42,40.15 42.05,40.05 42.1,39.9 v -0.1 l 0.05,-0.1 0.05,-0.1 0.05,-0.1 v -0.1 l 0.05,-0.15 0.05,-0.1 v -0.1 l 0.05,-0.1 0.05,-0.15 0.05,-0.1 0.05,-0.1 v -0.1 l 0.05,-0.1 0.05,-0.1 0.05,-0.15 v -0.1 l 0.05,-0.1 0.05,-0.1 v -0.1 l 0.05,-0.1 0.05,-0.15 0.05,-0.1 v -0.1 l 0.05,-0.1 0.05,-0.15 0.05,-0.1 0.05,-0.1 v -0.1 l 0.05,-0.1 0.05,-0.1 V 36.4 l 0.05,-0.1 0.05,-0.15 0.05,-0.1 v -0.1 l 0.05,-0.05 0.05,-0.15 0.05,-0.1 0.05,-0.15 v -0.1 l 0.05,-0.1 0.05,-0.1 V 35.05 L 43.75,35 43.8,34.9 V 34.8 L 43.85,34.65 43.9,34.55 43.95,34.4 44,34.3 V 34.2 L 44.05,34.15 44.1,34 44.15,33.9 v -0.15 l 0.05,-0.1 0.05,-0.1 v -0.1 L 44.3,33.3 44.35,33.25 44.4,33.1 44.45,33 v -0.1 l 0.05,-0.1 0.05,-0.15 0.05,-0.1 V 32.4 l 0.05,-0.05 0.05,-0.1 v -0.1 l 0.05,-0.15 0.05,-0.1 0.05,-0.15 0.05,-0.1 v -0.1 L 44.95,31.5 45,31.35 v -0.1 l 0.05,-0.1 0.05,-0.1 0.05,-0.15 v -0.1 l 0.05,-0.15 0.05,-0.05 0.05,-0.1 v -0.1 l 0.05,-0.15 0.05,-0.1 0.05,-0.15 v -0.1 l 0.05,-0.1 0.05,-0.1 0.05,-0.1 v -0.1 l 0.05,-0.15 0.05,-0.1 0.05,-0.1 v -0.1 l 0.05,-0.15 0.05,-0.1 0.05,-0.1 v -0.1 l 0.05,-0.1 0.05,-0.1 0.05,-0.15 v -0.1 L 46.1,28 46.15,27.9 46.2,27.85 v -0.1 l 0.05,-0.15 0.05,-0.1 0.05,-0.1 v -0.1 l 0.05,-0.15 0.05,-0.1 0.05,-0.1 v -0.1 l 0.05,-0.1 0.05,-0.1 0.05,-0.15 v -0.1 l 0.05,-0.15 0.05,-0.1 0.05,-0.05 V 26 l 0.05,-0.15 0.05,-0.1 0.05,-0.15 V 25.5 L 47,25.4 47.05,25.3 47.1,25.2 v -0.1 l 0.05,-0.15 0.05,-0.1 0.05,-0.1 v -0.1 l 0.05,-0.15 0.05,-0.1 v -0.05 l 0.05,-0.1 0.05,-0.15 0.05,-0.1 0.05,-0.15 v -0.1 l 0.05,-0.1 0.05,-0.1 v -0.1 l 0.05,-0.1 0.05,-0.15 0.05,-0.1 V 23 l 0.05,-0.1 0.05,-0.15 0.05,-0.1 0.05,-0.1 v -0.1 l 0.05,-0.1 0.05,-0.1 V 22.1 l 0.05,-0.1 0.05,-0.15 0.05,-0.1 v -0.1 l 0.05,-0.05 0.05,-0.15 0.05,-0.1 0.05,-0.15 V 21.1 L 48.5,21 48.55,20.9 V 20.75 L 48.6,20.7 48.65,20.6 V 20.5 L 48.7,20.35 48.75,20.25 48.8,20.1 48.85,20 V 19.9 L 48.9,19.85 48.95,19.7 49,19.6 v -0.15 l 0.05,-0.1 0.05,-0.1 v -0.1 L 49.15,19 49.2,18.95 49.25,18.8 49.3,18.7 v -0.1 l 0.05,-0.1 0.05,-0.15 0.05,-0.1 V 18.1 l 0.05,-0.05 0.05,-0.1 v -0.1 l 0.05,-0.15 0.05,-0.1 0.05,-0.15 0.05,-0.1 v -0.1 l 0.05,-0.05 0.05,-0.15 0.05,-0.1 v -0.1 L 49.95,16.75 50,16.6 v -0.1 l 0.05,-0.15 0.05,-0.05 0.05,-0.1 v -0.1 l 0.05,-0.15 0.05,-0.1 0.05,-0.15 v -0.1 l 0.05,-0.1 0.05,-0.1 0.05,-0.1 v -0.1 l 0.05,-0.15 0.05,-0.1 0.05,-0.1 v -0.1 l 0.05,-0.15 0.05,-0.1 0.05,-0.1 v -0.1 l 0.05,-0.1 0.05,-0.1 0.05,-0.15 v -0.1 l 0.05,-0.1 0.05,-0.1 0.05,-0.1 v -0.1 L 51.1,13.3 51.15,13.2 51.2,13.1 V 13 l 0.05,-0.15 0.05,-0.1 0.05,-0.1 v -0.1 l 0.05,-0.1 0.05,-0.1 0.05,-0.15 v -0.1 l 0.05,-0.15 0.05,-0.1 0.05,-0.05 v -0.1 l 0.05,-0.15 0.05,-0.1 0.05,-0.15 v -0.1 l 0.05,-0.1 0.05,-0.1 0.05,-0.1 v -0.1 -0.15 l 0.05,-0.1 0.05,-0.1 v -0.1 L 52.1,10.2 52.15,10.1 V 10.05 L 52.2,9.95 52.25,9.8 52.3,9.7 52.35,9.55 v -0.1 l 0.05,-0.1 0.05,-0.1 0.05,-0.1 V 9.05 L 52.55,8.9 52.6,8.8 V 8.7 l 0.05,-0.1 0.05,-0.15 0.05,-0.1 0.05,-0.1 v -0.1 l 0.05,-0.1 0.05,-0.1 V 7.8 L 52.95,7.7 53,7.55 53.05,7.45 V 7.35 L 53.1,7.3 53.15,7.15 53.2,7.05 53.25,6.9 V 6.8 L 53.3,6.7 53.35,6.6 V 6.45 L 53.4,6.4 53.45,6.3 V 6.2 L 53.5,6.05 53.6,5.95 53.65,5.8 53.7,5.7 V 5.6 L 53.75,5.55 53.8,5.4 53.85,5.3 V 5.15 l 0.05,-0.1 0.05,-0.1 V 4.85 L 54,4.7 54.05,4.65 54.1,4.5 54.15,4.4 V 4.3 L 54.2,4.2 V 4.15 h 0.1 V 4.1 L 54.35,4 V 3.85 L 54.4,3.8 54.45,3.7 V 3.6 L 54.5,3.45 54.55,3.35 54.6,3.2 54.65,3.1 V 3 L 54.7,2.95 54.75,2.8 54.8,2.7 V 2.6 L 54.85,2.5 54.9,2.35 V 2.25 L 54.95,2.1 55,2.05 55.05,1.95 V 1.85 L 55.15,1.8 V 1.7 L 55.2,1.6 55.25,1.45 55.3,1.35 v -0.1 l 0.05,-0.1 0.05,-0.1 V 0.95 L 55.45,0.8 55.5,0.7 55.55,0.6 V 0.5 l 0.05,-0.15 0.05,-0.1 0.05,-0.1 v -0.1 l 0.05,-0.1 0.05,-0.1 0.05,-0.15 V -0.4 L 55.9,-0.5 55.95,-0.6 56,-0.7 v -0.1 m 9.2,19.35 q 1.05,0.35 2.5,1.25 l 1.55,1.35 q 1.1,1.35 1.1,4.25 l -0.3,2.25 q -0.4,1.55 -1.65,2.8 -1.2,1.2 -2.85,1.7 l -1.95,0.3 Q 60.4,32.7 58.4,31.55 56.9,30.7 56.05,29 q -0.8,-1.6 -0.85,-3.45 -0.1,-2.25 0.85,-3.9 0.7,-1.1 1.95,-2.1 1.1,-0.95 2.15,-1.2 l 1.75,-0.15 3.3,0.35 m 0.1,5.7 0.45,-0.45 0.15,-0.1 H 66 l 0.65,-0.35 v -0.3 l -0.15,-0.4 -0.4,-0.3 -0.5,-0.2 v 0.05 l -0.45,0.15 -0.05,0.25 h -0.15 q -0.35,0.1 -0.8,0.6 l -0.5,0.45 V 23.6 23.45 23.3 23.2 23.05 22.95 22.85 22.7 22.6 22.5 22.35 l 0.05,-0.1 v -0.1 -0.1 -0.15 L 63.65,21.8 63.6,21.7 v -0.15 h 0.25 l 0.8,-0.2 q 0.45,-0.3 0.1,-0.75 -0.2,-0.35 -1,-0.35 L 62.9,20.3 61.95,20.25 q -0.8,0 -0.95,0.35 -0.35,0.45 0.05,0.75 l 0.8,0.2 h 0.3 V 21.7 L 62.1,21.8 62,21.9 v 0.15 0.1 0.1 l 0.1,0.1 v 0.15 0.1 0.1 0.15 0.1 0.1 0.15 0.1 0.15 0.15 0.05 l -0.55,-0.45 -0.8,-0.6 h -0.1 L 60.6,22.35 60.15,22.2 v -0.05 l -0.55,0.2 -0.4,0.3 -0.1,0.4 v 0.3 q 0.15,0.35 0.6,0.35 h 0.15 l 0.1,0.1 0.65,0.55 h -0.2 v -0.1 h -0.15 -0.4 -0.4 -0.65 -0.05 l -0.1,-0.4 -0.5,-0.25 -0.45,0.4 -0.1,0.6 v 1.25 l 0.1,0.6 0.45,0.4 0.5,-0.25 0.1,-0.45 h 0.05 0.65 0.4 0.4 0.15 V 26.1 h 0.2 q -0.55,0.3 -0.65,0.55 l -0.1,0.1 H 59.7 q -0.45,0 -0.6,0.35 v 0.3 l 0.1,0.4 0.65,0.4 0.3,0.1 v -0.05 l 0.45,-0.2 0.05,-0.2 h 0.1 l 0.8,-0.6 0.55,-0.45 v 0.05 0.15 0.15 0.1 0.15 0.1 0.1 0.15 0.1 0.1 0.1 L 62,28.2 v 0.1 0.1 0.15 l 0.1,0.1 0.05,0.1 v 0.15 h -0.3 l -0.8,0.2 q -0.4,0.3 -0.05,0.75 0.15,0.35 0.95,0.35 l 0.95,-0.05 0.85,0.05 q 0.8,0 1,-0.35 0.35,-0.45 -0.1,-0.75 l -0.8,-0.2 H 63.6 v -0.15 l 0.05,-0.1 0.05,-0.1 V 28.4 28.3 28.2 l -0.05,-0.15 v -0.1 -0.1 -0.1 V 27.6 27.5 27.4 27.25 27.15 27 26.85 26.8 l 0.5,0.45 q 0.45,0.5 0.8,0.6 h 0.15 l 0.05,0.2 q 0.2,0.25 0.45,0.2 v 0.05 l 0.9,-0.5 0.15,-0.4 V 27.1 L 66,26.75 h -0.1 l -0.15,-0.1 -0.6,-0.55 h 0.15 v 0.05 h 0.2 0.8 0.6 0.05 l 0.15,0.45 0.45,0.25 0.45,-0.4 0.15,-0.6 L 68.2,25.2 68.15,24.6 68,24 67.55,23.6 Q 67.2,23.7 67.1,23.85 66.95,24 66.95,24.25 H 66.9 66.3 65.5 65.3 v 0.1 h -0.15 l 0.15,-0.1 M 35.05,17.3 q -0.75,-0.1 -1,-0.75 -0.25,-0.65 0.25,-1.2 l 0.35,-0.3 1.15,-1.3 1,-1.05 1.55,-1.65 0.7,-0.55 q 0.6,-0.2 0.75,0.3 l -0.1,0.55 -0.05,0.45 -0.85,2.4 1.4,-0.25 q 0.4,0.05 0.7,0.35 l 0.15,0.05 q 0.7,0.4 0.6,1.1 l -0.3,0.85 -1.75,2.95 -0.9,1.7 -0.4,0.25 -0.45,0.05 -0.3,-0.4 v -0.5 l 0.15,-0.85 0.25,-1.15 0.15,-0.3 0.05,-0.8 v -0.2 l -1.1,0.15 -1.3,0.2 -0.35,-0.1 H 35.05 M 15.2,18.55 q 1.05,0.35 2.5,1.25 l 1.55,1.35 q 1.1,1.35 1.1,4.25 l -0.3,2.25 q -0.4,1.55 -1.65,2.8 -1.2,1.2 -2.85,1.7 l -1.95,0.3 Q 10.4,32.7 8.4,31.55 6.9,30.7 6.05,29 5.25,27.4 5.2,25.55 5.1,23.3 6.05,21.65 6.75,20.55 8,19.55 9.1,18.6 10.15,18.35 l 1.75,-0.15 3.3,0.35 M 9.55,25.1 9.1,25.7 q -0.25,0.35 -0.25,0.7 -0.1,1 0.55,2.1 l 0.5,0.7 q 0.95,1.05 2.55,0.95 1.45,0 2.5,-0.95 0.85,-0.8 0.85,-1.65 l -0.1,-0.75 -0.25,-1 Q 14.9,24.15 12.9,23.1 L 12.15,22.75 11.8,22.1 12.05,21.6 12.3,21.2 12.25,20.8 12.1,20.35 11.55,20.2 q 0.3,0.4 0.2,0.55 L 11.5,20.95 11.35,21 q -0.4,0.2 -0.5,0.8 l -0.1,0.7 q 0.05,0.7 0.5,1.25 l 0.95,0.85 0.45,0.55 v 0.25 0.05 l -0.1,0.3 -0.25,0.15 -0.6,-0.2 -0.05,-0.05 0.05,-0.1 0.15,-0.55 q 0,-0.4 -0.5,-0.7 -0.2,-0.15 -0.85,-0.35 l -0.05,0.1 0.1,0.15 -0.1,0.3 Q 10,24.6 9.55,25.1 m 6.25,-2 q -0.3,0 -0.4,0.35 l -0.05,0.85 q 0.05,0.55 0.6,1.15 l 0.25,0.4 -0.1,0.35 q -0.05,0.2 0.05,0.3 l 0.4,0.15 0.4,-0.25 q 0.4,-0.35 0.3,-0.75 L 16.65,24.6 Q 16,23.95 16,23.55 L 15.8,23.1"
         fill="#000000"
         fill-rule="evenodd"
         stroke="none"
         id="path12" />
      <path
         d="m 65.3,24.25 h 0.2 0.8 0.6 0.05 q 0,-0.25 0.15,-0.4 0.1,-0.15 0.45,-0.25 L 68,24 l 0.15,0.6 0.05,0.6 -0.05,0.65 -0.15,0.6 -0.45,0.4 L 67.1,26.6 66.95,26.15 H 66.9 66.3 65.5 65.3 V 26.1 h -0.15 l 0.6,0.55 0.15,0.1 H 66 l 0.65,0.35 v 0.3 l -0.15,0.4 -0.9,0.5 v -0.05 q -0.25,0.05 -0.45,-0.2 l -0.05,-0.2 h -0.15 q -0.35,-0.1 -0.8,-0.6 l -0.5,-0.45 v 0.05 0.15 0.15 0.1 0.15 0.1 0.1 0.15 0.1 0.1 0.1 l 0.05,0.15 v 0.1 0.1 0.15 l -0.05,0.1 -0.05,0.1 v 0.15 h 0.25 l 0.8,0.2 q 0.45,0.3 0.1,0.75 -0.2,0.35 -1,0.35 L 62.9,30.15 61.95,30.2 q -0.8,0 -0.95,-0.35 -0.35,-0.45 0.05,-0.75 l 0.8,-0.2 h 0.3 V 28.75 L 62.1,28.65 62,28.55 V 28.4 28.3 28.2 l 0.1,-0.15 v -0.1 -0.1 -0.1 V 27.6 27.5 27.4 27.25 27.15 27 26.85 26.8 l -0.55,0.45 -0.8,0.6 h -0.1 l -0.05,0.2 -0.45,0.2 v 0.05 l -0.3,-0.1 -0.65,-0.4 -0.1,-0.4 v -0.3 q 0.15,-0.35 0.6,-0.35 h 0.15 l 0.1,-0.1 q 0.1,-0.25 0.65,-0.55 h -0.2 v 0.05 h -0.15 -0.4 -0.4 -0.65 -0.05 l -0.1,0.45 -0.5,0.25 -0.45,-0.4 -0.1,-0.6 V 24.6 l 0.1,-0.6 0.45,-0.4 0.5,0.25 0.1,0.4 h 0.05 0.65 0.4 0.4 0.15 v 0.1 h 0.2 L 59.95,23.8 59.85,23.7 H 59.7 q -0.45,0 -0.6,-0.35 v -0.3 l 0.1,-0.4 0.4,-0.3 0.55,-0.2 v 0.05 l 0.45,0.15 0.05,0.25 h 0.1 l 0.8,0.6 0.55,0.45 V 23.6 23.45 23.3 23.2 23.05 22.95 22.85 22.7 22.6 22.5 22.35 L 62,22.25 v -0.1 -0.1 -0.15 l 0.1,-0.1 0.05,-0.1 v -0.15 h -0.3 l -0.8,-0.2 q -0.4,-0.3 -0.05,-0.75 0.15,-0.35 0.95,-0.35 l 0.95,0.05 0.85,-0.05 q 0.8,0 1,0.35 0.35,0.45 -0.1,0.75 l -0.8,0.2 H 63.6 v 0.15 l 0.05,0.1 0.05,0.1 v 0.15 0.1 0.1 l -0.05,0.1 v 0.15 0.1 0.1 0.15 0.1 0.1 0.15 0.1 0.15 0.15 0.05 l 0.5,-0.45 q 0.45,-0.5 0.8,-0.6 h 0.15 l 0.05,-0.25 0.45,-0.15 v -0.05 l 0.5,0.2 0.4,0.3 0.15,0.4 v 0.3 L 66,23.7 h -0.1 l -0.15,0.1 -0.45,0.45 -0.15,0.1 h 0.15 v -0.1 M 15.8,23.1 16,23.55 q 0,0.4 0.65,1.05 l 0.6,1.05 q 0.1,0.4 -0.3,0.75 l -0.4,0.25 -0.4,-0.15 q -0.1,-0.1 -0.05,-0.3 l 0.1,-0.35 -0.25,-0.4 q -0.55,-0.6 -0.6,-1.15 l 0.05,-0.85 q 0.1,-0.35 0.4,-0.35 m -6.25,2 q 0.45,-0.5 0.9,-0.6 l 0.1,-0.3 -0.1,-0.15 0.05,-0.1 q 0.65,0.2 0.85,0.35 0.5,0.3 0.5,0.7 l -0.15,0.55 -0.05,0.1 0.05,0.05 0.6,0.2 0.25,-0.15 0.1,-0.3 V 25.4 25.15 L 12.2,24.6 11.25,23.75 Q 10.8,23.2 10.75,22.5 l 0.1,-0.7 q 0.1,-0.6 0.5,-0.8 l 0.15,-0.05 0.25,-0.2 q 0.1,-0.15 -0.2,-0.55 l 0.55,0.15 0.15,0.45 0.05,0.4 -0.25,0.4 -0.25,0.5 0.35,0.65 0.75,0.35 q 2,1.05 2.55,2.7 l 0.25,1 0.1,0.75 q 0,0.85 -0.85,1.65 -1.05,0.95 -2.5,0.95 -1.6,0.1 -2.55,-0.95 L 9.4,28.5 q -0.65,-1.1 -0.55,-2.1 0,-0.35 0.25,-0.7 l 0.45,-0.6"
         fill="#ffffff"
         fill-rule="evenodd"
         stroke="none"
         id="path13" />
      <path
         d="m 40.2,9.55 q 1.05,0.35 2.5,1.25 l 1.55,1.35 q 1.1,1.35 1.1,4.25 l -0.3,2.25 q -0.4,1.55 -1.65,2.8 -1.2,1.2 -2.85,1.7 l -1.95,0.3 Q 35.4,23.7 33.4,22.55 31.9,21.7 31.05,20 q -0.8,-1.6 -0.85,-3.45 -0.1,-2.25 0.85,-3.9 0.7,-1.1 1.95,-2.1 1.1,-0.95 2.15,-1.2 L 36.9,9.2 40.2,9.55 m -5.15,7.75 h 0.35 l 0.35,0.1 1.3,-0.2 1.1,-0.15 v 0.2 l -0.05,0.8 -0.15,0.3 -0.25,1.15 -0.15,0.85 v 0.5 l 0.3,0.4 0.45,-0.05 0.4,-0.25 0.9,-1.7 1.75,-2.95 0.3,-0.85 q 0.1,-0.7 -0.6,-1.1 L 40.9,14.3 Q 40.6,14 40.2,13.95 l -1.4,0.25 0.85,-2.4 0.05,-0.45 0.1,-0.55 q -0.15,-0.5 -0.75,-0.3 l -0.7,0.55 -1.55,1.65 -1,1.05 -1.15,1.3 -0.35,0.3 q -0.5,0.55 -0.25,1.2 0.25,0.65 1,0.75"
         fill="#999999"
         fill-rule="evenodd"
         stroke="none"
         id="path14" />
    </g>
    <g
       id="shape2"
       transform="translate(2,2.05)">
      <path
         d="M -0.5,-0.4 V -0.55 H 75.1 V -0.4 40.8 H -0.5 Z"
         fill="none"
         stroke="#000000"
         stroke-linecap="round"
         stroke-linejoin="round"
         stroke-width="3"
         id="path15" />
    </g>
  </defs>
</svg>
