<?xml version="1.0" encoding="UTF-8" standalone="no"?>
<svg
   ffdec:objectType="frame"
   height="44.349998"
   width="78.599998"
   version="1.1"
   id="svg12"
   sodipodi:docname="85.svg"
   xmlns:inkscape="http://www.inkscape.org/namespaces/inkscape"
   xmlns:sodipodi="http://sodipodi.sourceforge.net/DTD/sodipodi-0.dtd"
   xmlns:xlink="http://www.w3.org/1999/xlink"
   xmlns="http://www.w3.org/2000/svg"
   xmlns:svg="http://www.w3.org/2000/svg"
   xmlns:ffdec="https://www.free-decompiler.com/flash">
  <sodipodi:namedview
     id="namedview12"
     pagecolor="#ffffff"
     bordercolor="#000000"
     borderopacity="0.25"
     inkscape:showpageshadow="2"
     inkscape:pageopacity="0.0"
     inkscape:pagecheckerboard="0"
     inkscape:deskcolor="#d1d1d1"
     fit-margin-top="5"
     fit-margin-left="5"
     fit-margin-right="5"
     fit-margin-bottom="5" />
  <g
     transform="translate(2,2.05)"
     id="g3">
    <use
       ffdec:characterId="1"
       height="42.700001"
       transform="translate(-1.75,-2)"
       width="76.449997"
       xlink:href="#shape0"
       id="use1" />
    <use
       ffdec:characterId="83"
       height="42.400002"
       transform="translate(-0.05,-1.2)"
       width="76.199997"
       xlink:href="#shape1"
       id="use2" />
    <use
       ffdec:characterId="3"
       height="44.349998"
       transform="translate(-2,-2.05)"
       width="78.599998"
       xlink:href="#shape2"
       id="use3" />
  </g>
  <defs
     id="defs12">
    <g
       id="shape0"
       transform="translate(1.75,2)">
      <path
         d="M 2.8,0 V -0.4 H 5.4 V 0 H 9.7 V 19.45 0 H 20.55 L 19.3,19.45 H 9.7 0.25 V 0 H 2.8"
         fill="#ffffff"
         fill-rule="evenodd"
         stroke="none"
         id="path3" />
      <path
         d="M 0.25,19.45 H 9.7 19.3 L 18.7,28.6 16,28.5 10.95,27.95 9.7,27.8 Q 7.45,27.6 5.85,27.75 4.05,27.9 1.5,28.6 0.75,28.8 0.25,29.15 v -9.7 m 9.45,0 v 8.35 -8.35"
         fill="#121212"
         fill-rule="evenodd"
         stroke="none"
         id="path4" />
      <path
         d="m 9.7,27.8 1.25,0.15 5.05,0.55 2.7,0.1 h 1.05 l 3.75,0.15 q 2.45,0.3 3.6,1.25 0.6,0.5 0.6,1.1 0,0.65 -0.8,1 l -1.3,0.2 -7.15,0.15 -5.6,-0.3 L 9.7,31.75 7.95,31.6 3.1,31.95 0.95,32.3 0.25,32.1 -0.35,31.55 -0.5,31.3 V 29.9 L 0.25,29.15 Q 0.75,28.8 1.5,28.6 4.05,27.9 5.85,27.75 7.45,27.6 9.7,27.8 v 3.95 -3.95"
         fill="#999999"
         fill-rule="evenodd"
         stroke="none"
         id="path5" />
      <path
         d="M 2.8,0 H 0.25 M 9.7,0 H 5.4 m 16.15,0 h 10.7 M 20.55,0 H 9.7"
         fill="none"
         stroke="#666666"
         stroke-linecap="round"
         stroke-linejoin="round"
         stroke-width="4"
         id="path6" />
      <path
         d="m 9.7,-0.4 h 65 V 40.5 H 47.05 L 45.5,40.7 27,40.65 25.95,40.5 H 9.7 -0.5 V -0.4 H 9.7 V 40.5 -0.4"
         fill="#ffffff"
         fill-rule="evenodd"
         stroke="none"
         id="path7" />
    </g>
    <g
       id="shape1"
       transform="translate(0.05,1.2)">
      <path
         d="M 5.65,8.5 Q 6.7,6.4 7.9,4.7 9.75,2 12.5,-0.65 l 0.6,-0.55 h 7.95 q -4.1,1.45 -7.4,5.25 L 13.05,4 12.2,4.05 q -1.35,0.3 -1.7,1.25 l -0.05,0.15 -0.5,0.65 -0.5,1 -0.05,0.75 0.05,1.6 0.3,0.4 q -1.7,3.2 -3.25,7.55 -2.85,7.9 -2.4,12.9 0.15,1.45 0.85,4.5 0.8,2.7 1.55,3.95 L 8.55,41.2 H 3.4 Q 2.05,39.1 1.2,36.15 -0.5,30.6 0.15,25.6 L 1,21.45 Q 2.6,15.1 4.75,10.4 l 0.8,0.15 v 0.75 q 0.1,0.5 0.5,0.75 L 7,12.15 Q 7.65,11.9 7.75,11.05 L 7.7,10.55 8.4,10.2 Q 8.75,9.85 8.55,9.25 8.35,8.8 7.85,8.65 L 7.45,8.55 V 8.5 Q 7.35,7.8 7.1,7.65 L 6.95,7.55 6.9,7.5 Q 6.65,7.25 6.35,7.5 L 6.25,7.8 H 6.2 L 5.9,8.5 H 5.65 m 9.95,1.8 Q 16.65,8.9 17.85,7.65 23.4,2.05 30.5,1 33.35,0.6 37.05,0.95 44.15,1.5 48.2,4.3 q 4.4,3.05 6.1,8.65 1.5,5 0.3,10.65 -0.6,3 -2.05,5.85 -3.05,5.85 -9,8.65 -2.1,1 -4.95,1.6 -5.15,1.1 -9.3,0 -2.95,-0.7 -5.35,-2.35 -2.2,-1.6 -3.45,-3.4 -3.1,-4.3 -2.45,-10.1 0.7,-5.25 4.25,-9.55 2.15,-2.6 4.95,-4.35 2.95,-1.85 6.15,-2.4 l 6.55,0.4 q 3.35,0.95 5.65,3.2 1.75,1.75 2.45,3.7 0.95,2.85 -0.2,6.55 -1.75,6.15 -6.4,8.65 -2.3,1.3 -5.95,1.55 -3.7,0.2 -6.2,-0.95 -3.25,-1.45 -4.4,-4.35 -1.35,-3.6 1.15,-7.8 2,-3.5 5.3,-4.9 1.75,-0.75 3.6,-0.7 1.95,0 3.5,0.85 l 0.8,0.75 0.1,0.55 -0.25,0.45 q -0.3,0.25 -1.1,0 -2.95,-0.75 -5.8,1.1 -2.4,1.65 -3.55,4.8 -0.75,2 -0.15,3.45 0.6,1.55 2.35,2.2 l 3.2,0.55 q 3.45,0.2 5.55,-0.95 3.1,-1.6 4.55,-6.05 0.9,-2.5 0.3,-4.35 -0.35,-1.2 -1.4,-2.25 -2.25,-2.3 -5.8,-2.55 -3,-0.2 -6.2,1.25 -2.05,1.05 -3.65,2.4 -3.75,3.4 -4.8,8.15 -0.5,1.85 -0.35,3.5 0.15,2 1.25,3.9 1.05,1.85 2.75,3.15 3.35,2.5 7.85,2.6 4.3,0.15 8.25,-1.9 4,-2.1 6.3,-5.7 2.35,-3.6 2.7,-8.05 0.4,-4.45 -1.35,-8.4 -0.85,-2 -2,-3.2 Q 46.55,7.55 44.3,6.6 41.4,5.4 36.35,5.1 33.5,4.9 31.7,5.15 25.55,5.9 20.75,10.85 16.7,15.05 14.7,21.7 q -1.8,6.05 -0.15,10.15 1.6,3.7 7.3,7.35 l 3.4,2 H 17.8 l -3.05,-2.35 q -2.6,-2.3 -3.8,-4.9 -2.7,-5.6 -0.25,-13.8 1.15,-3.7 2.9,-6.75 l 0.55,-0.05 0.9,-0.1 0.65,-0.6 -0.1,-0.8 V 10.3 M 72.15,28.55 Q 73.15,22.85 72,17.1 70.8,11.25 67.6,6.5 65.3,3.1 62.3,0.75 60.75,-0.4 59.15,-1.2 h 6.6 l 0.35,0.35 q 4.75,4.55 7.4,10.8 2.6,6.2 2.65,12.8 0.1,4.7 -1.3,9.35 l -1.55,4.35 -2.05,4.1 -0.4,0.65 H 66.8 q 4.1,-5.6 5.35,-12.65 m -22.1,11.3 q 4.25,-2.95 7.7,-9.7 l 2.15,-5.1 Q 60.8,22 60.95,18.65 61.3,10.25 56.95,5.7 55.45,4.1 52.85,2.6 48.3,0 42.05,-1.2 H 53.8 q 3,1.55 4.9,3.35 2.75,2.65 4.3,6.5 1.5,3.65 1.6,7.7 0.2,7.15 -3.7,15.2 -3,6.05 -7,9.65 h -6.2 l 2.35,-1.35"
         fill="#999999"
         fill-rule="evenodd"
         stroke="none"
         id="path8" />
      <path
         d="m 13.65,4.05 h 0.3 l 0.95,0.2 0.6,0.5 0.35,0.4 0.25,0.3 q 0.7,0.8 0.75,1.75 0.1,1 -0.55,1.85 l -0.95,0.9 0.2,0.3 0.05,0.05 v 1.55 l 0.1,0.8 -0.65,0.6 -0.9,0.1 -0.55,0.05 -1.65,-0.2 q -0.6,-0.1 -0.9,-0.45 -0.25,-0.4 -0.15,-0.85 0,-0.5 0.15,-0.95 L 10.3,10.55 10,10.1 9.75,9.85 9.45,9.45 9.4,7.85 9.45,7.1 9.95,6.1 10.45,5.45 10.5,5.3 Q 10.85,4.35 12.2,4.05 L 13.05,4 13.65,4.05 M 4.75,10.4 H 4.7 Q 4.2,10.05 4.2,9.5 4.25,8.9 4.75,8.6 L 5.65,8.5 H 5.9 L 6.2,7.8 h 0.05 l 0.1,-0.3 q 0.3,-0.25 0.55,0 L 6.95,7.55 7.1,7.65 Q 7.35,7.8 7.45,8.5 v 0.05 l 0.4,0.1 q 0.5,0.15 0.7,0.6 0.2,0.6 -0.15,0.95 l -0.7,0.35 0.05,0.5 Q 7.65,11.9 7,12.15 L 6.05,12.05 Q 5.65,11.8 5.55,11.3 V 10.55 L 4.75,10.4 M 14.75,7.95 14.9,7.1 14.85,6.7 14.4,6 14.15,5.8 13.7,5.75 h -0.8 l -0.6,0.3 q -0.9,0.7 -1.1,2.2 v 0.5 L 11.65,9.1 12.2,9.35 12.25,9.4 Q 12.1,7.95 12.4,7.3 l 0.4,-0.45 0.8,-0.1 0.6,0.2 0.1,0.5 L 14.55,8 14.45,8.55 14.1,9.4 14.75,7.95 M 13.6,9.65 13.65,9.25 13.6,8.85 13.8,8.1 13.6,7.45 Q 13.2,7.3 13,7.8 v 0.75 l 0.05,1.2 0.6,0.1 -0.05,-0.2 m -1.15,1.4 0.05,0.3 0.3,0.1 h 0.9 l 0.2,-0.05 0.05,-0.2 V 11.1 H 13.8 l -1.35,-0.05"
         fill="#000000"
         fill-rule="evenodd"
         stroke="none"
         id="path9" />
      <path
         d="m 49.95,12.6 q 0.1,4.05 -1.55,6.95 -1.35,2.55 -3.85,4.15 l 0.1,1.75 0.2,0.95 0.75,0.45 q 2.05,0.8 2.8,2.95 l 0.35,1.5 0.2,2.15 q -0.2,2.05 -2.85,4.45 0.5,0.75 0.35,1.75 l -0.3,1 H 23.95 Q 24,39.95 24.55,39.3 L 23.1,37.4 22.4,35.95 q -2.6,0.8 -4,1.6 -1.45,0.75 -2.45,1.75 l 1,-0.15 L 18.9,39 q 1.05,0.05 2,0.6 l 1.05,1.05 H 10.7 q 0,-1.35 0.15,-1.8 l 0.9,-1.5 q 1.6,-2.1 4.6,-3.6 1.8,-0.9 5.65,-2.05 l 0.75,-0.15 0.5,-1 q 1,-1.4 2.4,-2.15 1.05,-0.65 1.2,-1.05 l 0.2,-0.9 0.35,-1.25 q 0.25,-0.9 0.6,-1.3 l -1.6,-1.25 q -1.8,-1.55 -2.75,-3.7 -0.9,-2.25 -0.65,-4.5 0.1,-1.3 0.8,-3.2 L 25,8.75 25.6,8 24.9,6.9 24.7,5.35 24.9,3.2 26,0.9 26.45,-0.4 h 4.8 l 0.9,1.75 0.85,1.15 7.9,-0.25 0.4,-0.4 2.15,-2.25 h 4.7 l 0.5,1.75 0.45,2 q 0,0.95 0.15,1.45 l 0.1,1 -0.05,0.9 0.1,0.8 0.1,1.15 v 0.3 q 0.45,1.6 0.45,3.65 M 37.55,14.4 38,14.2 q 0.45,-0.45 0.5,-1.15 0,-0.65 -0.4,-1.15 -0.4,-0.45 -1.3,-0.65 l -1.75,0.15 q -0.9,0.4 -1.45,1.55 -0.65,1.5 -0.1,2.95 0.55,1.5 2.15,2 l 1.6,0.15 1.4,-0.1 q 0.7,-0.2 1.2,-0.6 l 1,-0.9 q 0.7,-0.75 0.95,-2 0.5,-2.1 -0.55,-4.15 -0.6,-1.1 -1.4,-1.7 -1.65,-1.2 -3.9,-0.95 -1.9,0.25 -3.4,1.4 -1.6,1.2 -2.25,2.95 l -0.6,2.2 q -0.25,0.85 -0.2,1.55 l 0.3,1.35 0.7,1.6 q 1,1.85 2.95,2.7 1.9,0.85 4.05,0.45 0.7,-0.2 0.8,-0.35 l 0.3,-0.65 -0.25,-0.7 q -0.4,-0.4 -1.55,-0.4 -1.75,-0.15 -3,-1.2 -1.35,-0.95 -1.75,-2.7 l -0.1,-0.75 0.2,-1.35 q 0.7,-2.4 2.55,-3.4 0.95,-0.55 2.1,-0.45 1.15,0.05 2,0.7 0.7,0.55 1,1.45 0.3,0.85 0.1,1.7 -0.35,1.35 -1.5,1.9 l -1.15,0.25 -1.1,-0.15 q -0.5,-0.25 -0.7,-0.85 -0.2,-0.55 0,-1.05 0.15,-0.5 0.6,-0.65 0.45,-0.15 0.8,0.2 l 0.25,0.6 0.45,0.4"
         fill="#000000"
         fill-rule="evenodd"
         stroke="none"
         id="path10" />
      <path
         d="M 37.55,14.4 37.1,14 36.85,13.4 q -0.35,-0.35 -0.8,-0.2 -0.45,0.15 -0.6,0.65 -0.2,0.5 0,1.05 0.2,0.6 0.7,0.85 l 1.1,0.15 1.15,-0.25 q 1.15,-0.55 1.5,-1.9 0.2,-0.85 -0.1,-1.7 -0.3,-0.9 -1,-1.45 -0.85,-0.65 -2,-0.7 -1.15,-0.1 -2.1,0.45 -1.85,1 -2.55,3.4 l -0.2,1.35 0.1,0.75 q 0.4,1.75 1.75,2.7 1.25,1.05 3,1.2 1.15,0 1.55,0.4 l 0.25,0.7 -0.3,0.65 q -0.1,0.15 -0.8,0.35 -2.15,0.4 -4.05,-0.45 -1.95,-0.85 -2.95,-2.7 l -0.7,-1.6 -0.3,-1.35 q -0.05,-0.7 0.2,-1.55 L 30.3,12 q 0.65,-1.75 2.25,-2.95 1.5,-1.15 3.4,-1.4 2.25,-0.25 3.9,0.95 0.8,0.6 1.4,1.7 1.05,2.05 0.55,4.15 -0.25,1.25 -0.95,2 l -1,0.9 q -0.5,0.4 -1.2,0.6 l -1.4,0.1 -1.6,-0.15 q -1.6,-0.5 -2.15,-2 -0.55,-1.45 0.1,-2.95 0.55,-1.15 1.45,-1.55 l 1.75,-0.15 q 0.9,0.2 1.3,0.65 0.4,0.5 0.4,1.15 -0.05,0.7 -0.5,1.15 l -0.45,0.2"
         fill="#999999"
         fill-rule="evenodd"
         stroke="none"
         id="path11" />
    </g>
    <g
       id="shape2"
       transform="translate(2,2.05)">
      <path
         d="M -0.5,-0.4 V -0.55 H 75.1 V -0.4 40.8 H -0.5 Z"
         fill="none"
         stroke="#000000"
         stroke-linecap="round"
         stroke-linejoin="round"
         stroke-width="3"
         id="path12" />
    </g>
  </defs>
</svg>
