<?xml version="1.0" encoding="UTF-8" standalone="no"?>
<svg
   ffdec:objectType="frame"
   height="45.084026"
   width="78.599998"
   version="1.1"
   id="svg13"
   sodipodi:docname="368.svg"
   xmlns:inkscape="http://www.inkscape.org/namespaces/inkscape"
   xmlns:sodipodi="http://sodipodi.sourceforge.net/DTD/sodipodi-0.dtd"
   xmlns:xlink="http://www.w3.org/1999/xlink"
   xmlns="http://www.w3.org/2000/svg"
   xmlns:svg="http://www.w3.org/2000/svg"
   xmlns:ffdec="https://www.free-decompiler.com/flash">
  <sodipodi:namedview
     id="namedview13"
     pagecolor="#ffffff"
     bordercolor="#000000"
     borderopacity="0.25"
     inkscape:showpageshadow="2"
     inkscape:pageopacity="0.0"
     inkscape:pagecheckerboard="0"
     inkscape:deskcolor="#d1d1d1"
     fit-margin-top="5"
     fit-margin-left="5"
     fit-margin-right="5"
     fit-margin-bottom="5" />
  <g
     transform="translate(2,2.35)"
     id="g3">
    <use
       ffdec:characterId="1"
       height="42.700001"
       transform="translate(-1.75,-2)"
       width="76.449997"
       xlink:href="#shape0"
       id="use1" />
    <use
       ffdec:characterId="347"
       height="45.099998"
       transform="translate(-1.25,-2.35)"
       width="77.25"
       xlink:href="#shape1"
       id="use2" />
    <use
       ffdec:characterId="3"
       height="44.349998"
       transform="translate(-2,-2.05)"
       width="78.599998"
       xlink:href="#shape2"
       id="use3" />
  </g>
  <defs
     id="defs13">
    <g
       id="shape0"
       transform="translate(1.75,2)">
      <path
         d="M 2.8,0 V -0.4 H 5.4 V 0 H 9.7 V 19.45 0 H 20.55 L 19.3,19.45 H 9.7 0.25 V 0 H 2.8"
         fill="#ffffff"
         fill-rule="evenodd"
         stroke="none"
         id="path3" />
      <path
         d="M 0.25,19.45 H 9.7 19.3 L 18.7,28.6 16,28.5 10.95,27.95 9.7,27.8 Q 7.45,27.6 5.85,27.75 4.05,27.9 1.5,28.6 0.75,28.8 0.25,29.15 v -9.7 m 9.45,0 v 8.35 -8.35"
         fill="#121212"
         fill-rule="evenodd"
         stroke="none"
         id="path4" />
      <path
         d="m 9.7,27.8 1.25,0.15 5.05,0.55 2.7,0.1 h 1.05 l 3.75,0.15 q 2.45,0.3 3.6,1.25 0.6,0.5 0.6,1.1 0,0.65 -0.8,1 l -1.3,0.2 -7.15,0.15 -5.6,-0.3 L 9.7,31.75 7.95,31.6 3.1,31.95 0.95,32.3 0.25,32.1 -0.35,31.55 -0.5,31.3 V 29.9 L 0.25,29.15 Q 0.75,28.8 1.5,28.6 4.05,27.9 5.85,27.75 7.45,27.6 9.7,27.8 v 3.95 -3.95"
         fill="#999999"
         fill-rule="evenodd"
         stroke="none"
         id="path5" />
      <path
         d="M 2.8,0 H 0.25 M 9.7,0 H 5.4 m 16.15,0 h 10.7 M 20.55,0 H 9.7"
         fill="none"
         stroke="#666666"
         stroke-linecap="round"
         stroke-linejoin="round"
         stroke-width="4"
         id="path6" />
      <path
         d="m 9.7,-0.4 h 65 V 40.5 H 47.05 L 45.5,40.7 27,40.65 25.95,40.5 H 9.7 -0.5 V -0.4 H 9.7 V 40.5 -0.4"
         fill="#ffffff"
         fill-rule="evenodd"
         stroke="none"
         id="path7" />
    </g>
    <g
       id="shape1"
       transform="translate(1.25,2.35)">
      <path
         d="m 33.25,4.4 0.15,0.05 q 2.2,3.15 4.05,6.6 l 0.4,0.7 q 1.3,-0.6 2.85,-0.9 l 3.25,-0.4 q 3.9,0.5 5.65,3.7 v 0.65 q -0.75,1.45 -2.55,0.85 L 43.7,14.5 40.35,14.15 39.2,14.3 l 2,3.6 2.5,4.6 5.05,8.85 q 2.45,4.25 4.2,8.75 0.2,0.55 0,1.1 -1.1,2.35 -3.45,1.1 Q 48.7,41.85 48.25,41 L 43.6,31.8 Q 41.45,27.9 39.65,23.8 38.5,21.25 37.7,18.65 L 37.3,17.85 37.2,17.2 36.2,15 34.35,15.6 34,15.85 33.7,16 l -0.25,0.3 -0.15,0.15 -0.05,0.15 -0.3,0.3 -0.2,0.1 -0.15,0.1 -0.05,0.1 -0.05,0.05 H 32.3 L 32.2,17.2 32.15,17.05 32.1,16.85 v -0.1 L 32.05,16.7 q 1.4,-2.15 3.3,-3.5 L 35.2,12.85 34.55,10.9 34.5,10.8 34.45,10.75 34.2,9.75 33.85,8.95 v -0.1 -0.1 l -0.6,-1.5 Q 33.1,6.8 33.1,6.3 L 32.95,5.95 V 5.5 L 32.9,5.4 32.85,5.2 V 5.15 4.85 L 32.9,4.6 33,4.5 33.05,4.45 33.25,4.4 M 44.5,20.6 45,21 l 0.15,0.2 0.15,0.4 0.25,0.4 2.15,3.15 0.65,1.1 1.85,2.65 0.5,0.9 5.75,8.55 q 1.05,1.65 -0.8,2.35 -0.6,0.25 -1.1,-0.2 -1.2,-1.05 -1.75,-2.55 L 50.9,34.5 50.25,32.95 49.3,31.35 49,30.55 47.4,27.9 46.85,26.9 46.7,26.45 46.4,26.05 Q 46.2,25.2 45.65,24.45 L 45.3,23.8 45.15,23.55 45.05,23.35 44.5,22.2 44.25,21.6 44.15,21.5 44.1,21.4 v -0.15 -0.2 -0.1 L 44.25,20.7 44.5,20.6 M 10.85,19.2 q 3.9,0.3 7.45,1.9 l 2.15,1.2 0.05,0.1 v 0.1 l 0.1,0.05 0.1,0.1 0.1,0.1 0.05,0.1 v 0.05 0.1 0.1 l -0.05,0.1 -0.05,0.05 H 20.7 l -0.1,0.05 h -0.15 l -0.4,-0.05 h -0.2 L 19.7,23.15 19.65,23.1 q -5.15,-1.8 -10.6,-0.6 -4.8,1.1 -8.3,4.55 -0.95,0.95 -2,0.55 v -4.4 l 0.2,-0.15 q 5.35,-3.8 11.9,-3.85"
         fill="#999999"
         fill-rule="evenodd"
         stroke="none"
         id="path8" />
      <path
         d="m 64.6,19.5 q 3.25,0.35 3.4,3.4 0.05,2 -1.7,3 -2.35,1.3 -4.2,-0.65 -1.5,-1.7 -0.55,-3.7 0.95,-1.95 3.05,-2.05"
         fill="#ffffff"
         fill-rule="evenodd"
         stroke="none"
         id="path9" />
      <path
         d="m 30.9,21.7 q 1.8,-3.65 5.75,-5.35 1.7,-0.7 3.5,-0.75 l 1.6,-0.15 3.2,0.35 L 45,14.5 Q 45.65,9.05 50.3,5.85 L 51.2,5.3 q 1.6,-1.75 3.65,-3.15 l 2.35,-1.6 q 1.95,-1.3 4.1,-2 2.25,0.6 2.55,3.05 l 0.2,2.15 v 0.2 l 2.5,1.55 q 2.25,1.75 3.8,4.15 1.7,2.6 2.25,5.45 1.8,1.15 2.9,3.2 0.45,0.8 0.5,1.7 0.15,1.65 -1.35,2.6 l -1.05,0.75 q -1.4,1.15 -3,1.95 -1.25,1.95 -3.15,3.55 -2.05,1.7 -4.7,2.1 -5.6,0.9 -9.95,-2.35 l -3.45,-2.95 -1,-1.25 q -1,-0.8 -2.25,-1 l -2.55,0.3 q -2.1,0.9 -3.45,2.85 l -1.9,3.8 q -1,1.85 -2.45,3.3 -2.15,2.2 -5.15,2.7 -3.8,0.7 -7.6,0 -5.65,-1.05 -9.1,3.35 l -0.7,0.65 -0.65,0.9 q -0.3,0.45 -0.85,0.5 -2.25,0.3 -2.65,-1.5 L 8.25,41.2 Q 7.4,42.2 6.4,41.35 L 5.8,40.55 5.35,40.6 q -0.75,1.15 -2.7,1.2 -0.9,0 -1.5,-0.65 Q -0.45,39.3 0.3,36.9 l 0.1,-0.25 -0.55,-0.2 -0.6,-0.25 -0.5,-0.65 v -4.5 q 0.5,-1.05 1.6,-1.95 1.55,-1.4 3.4,-2.4 4.75,-2.65 10.2,-2.4 4.2,0.2 8.3,1.1 l 6.4,-0.3 1,-0.8 0.2,0.45 0.05,0.1 0.05,0.1 0.15,0.15 0.05,0.1 0.05,0.15 0.4,0.85 0.15,0.4 0.05,0.1 0.1,0.1 0.05,0.1 0.8,1.6 0.9,1.85 0.05,0.05 0.3,0.05 h 0.05 q 0.45,-0.9 0.05,-1.9 l -0.75,-1.9 V 26.4 L 32.3,26.2 32.2,26.05 v -0.1 -0.1 L 31.6,23.8 30.9,21.7 m 21.8,-8.1 v 0.05 q -0.4,0.05 -0.7,0.4 l -0.15,0.6 -0.05,1.35 0.15,0.35 0.3,0.9 v 0.05 0.1 q 1.45,2.35 4.25,2.4 l -0.25,0.95 Q 56,22 56.45,23.15 l 0.05,0.25 0.15,0.4 q 0.45,1.1 1.35,1.9 1.9,1.7 3.45,-0.05 V 25.6 L 61.4,25.4 V 25.25 L 61.1,24.9 q -1.7,-0.7 -2.55,-2.2 -0.35,-0.8 -0.1,-1.6 l 0.25,-0.45 q 1.1,-1.3 0.55,-2.7 l -0.4,-0.25 q -3.05,0.1 -5.3,-1.8 L 53.5,15.7 53.25,15.35 53.2,14.85 53,13.75 52.9,13.7 52.7,13.6 m 3.35,-7.7 q -1.85,0.05 -2.8,1.7 -1.35,2.2 0.45,4.1 1.6,1.65 3.7,0.7 2,-0.85 1.95,-3 Q 59.3,6.3 56.05,5.9 M 67,18.55 q -2.05,0.1 -3,1.95 -1.05,2 0.4,3.7 1.7,2 4.1,0.85 1.65,-0.75 1.8,-2.55 0.2,-3.45 -3.3,-3.95 M 10.65,-0.15 q 4.95,-0.25 6.85,4.2 2.15,5.1 -0.45,9.95 -0.9,1.7 -2.65,2.7 -2.35,1.35 -4.85,1.55 L 9.25,18.35 5.4,19.3 Q 3,19.55 2.1,21.9 1.35,23.95 -0.05,25.45 L -0.45,25.5 -0.8,25.15 -0.85,24.8 -0.8,24.6 Q -1,23.75 -0.75,22.85 l 0.3,-0.9 V 21.9 L -0.8,21.3 -1.05,20.35 Q -1.7,16.8 1.05,14.3 4.45,11.15 9.25,12.05 L 10.1,12 Q 12,11.55 12.25,9.55 L 12.2,9.45 12.15,9.3 12.05,9 12,8.85 Q 7.9,9.5 5.95,6 5.5,5.25 5.7,4.4 6.65,0.5 10.65,-0.15"
         fill="#000000"
         fill-rule="evenodd"
         stroke="none"
         id="path10" />
      <path
         d="m 29.65,24.3 -1.4,-3 -0.9,-2.05 L 26.6,17.5 26,15.8 23,8.5 l 0.55,2 1.2,3.9 0.5,2.35 0.25,0.6 0.1,1.15 0.3,1.5 q 0.15,0.85 -0.05,1.6 l -0.1,0.05 -0.1,0.05 L 25.3,21.55 25.25,21.4 25.15,21.1 25.1,20.65 25.05,20.6 25,20.5 24.95,20.4 24.8,20.25 24.65,19.8 24.15,18.9 V 18.8 L 24.1,18.7 v -0.05 -0.1 l -0.05,-0.1 -0.1,-0.15 -0.1,-0.2 -0.1,-0.1 v -0.1 -0.05 l -2.2,-5.1 -0.9,-2.4 L 19,6.25 18.3,4 q -1,-2 -1.45,-4.15 -0.15,-0.5 0.25,-0.95 0.55,-0.6 1.35,-0.65 1.1,0.35 1.7,1.1 l 0.15,-0.5 q 0.35,-0.8 1.2,-1.05 l 0.6,-0.15 q 2.6,0.85 2.95,3.75 l 0.4,1.7 q 0.95,2.4 1.3,4.9 l 0.65,1.85 0.4,1.9 0.1,0.15 0.1,0.3 0.05,0.35 1.65,5.7 0.95,2.9 0.25,0.55 0.7,2.1 0.6,2.05 v 0.1 0.1 l 0.1,0.15 0.05,0.2 v 0.25 l 0.75,1.9 q 0.4,1 -0.05,1.9 H 33 L 32.7,30.4 32.65,30.35 31.75,28.5 30.95,26.9 30.9,26.8 30.8,26.7 30.75,26.6 30.6,26.2 30.2,25.35 30.15,25.2 30.1,25.1 29.95,24.95 29.9,24.85 29.85,24.75 29.65,24.3 m 10.25,6.15 0.2,0.1 0.1,0.05 0.5,2.4 -0.1,1 q -0.85,4.7 -5.5,6.65 -3.9,1.65 -8.05,0.8 -0.4,-0.1 -0.5,-0.5 -0.3,-1.5 1.3,-1.55 3.05,-0.2 6,-1.25 3.5,-1.25 4.95,-4.5 l 0.3,-0.5 0.2,-1.75 0.3,-0.8 0.05,-0.05 0.2,-0.05 0.05,-0.05"
         fill="#999999"
         fill-rule="evenodd"
         stroke="none"
         id="path11" />
      <path
         d="m 67,18.55 q 3.5,0.5 3.3,3.95 -0.15,1.8 -1.8,2.55 -2.4,1.15 -4.1,-0.85 -1.45,-1.7 -0.4,-3.7 0.95,-1.85 3,-1.95 M 56.05,5.9 q 3.25,0.4 3.3,3.5 0.05,2.15 -1.95,3 -2.1,0.95 -3.7,-0.7 -1.8,-1.9 -0.45,-4.1 0.95,-1.65 2.8,-1.7 m -3.35,7.7 0.2,0.1 0.1,0.05 0.2,1.1 0.05,0.5 0.25,0.35 0.05,0.2 q 2.25,1.9 5.3,1.8 l 0.4,0.25 q 0.55,1.4 -0.55,2.7 l -0.25,0.45 q -0.25,0.8 0.1,1.6 0.85,1.5 2.55,2.2 l 0.3,0.35 v 0.15 l 0.05,0.2 v 0.05 Q 59.9,27.4 58,25.7 57.1,24.9 56.65,23.8 L 56.5,23.4 56.45,23.15 Q 56,22 56.25,20.75 L 56.5,19.8 Q 53.7,19.75 52.25,17.4 V 17.3 17.25 L 51.95,16.35 51.8,16 51.85,14.65 52,14.05 q 0.3,-0.35 0.7,-0.4 V 13.6"
         fill="#ffffff"
         fill-rule="evenodd"
         stroke="none"
         id="path12" />
    </g>
    <g
       id="shape2"
       transform="translate(2,2.05)">
      <path
         d="M -0.5,-0.4 V -0.55 H 75.1 V -0.4 40.8 H -0.5 Z"
         fill="none"
         stroke="#000000"
         stroke-linecap="round"
         stroke-linejoin="round"
         stroke-width="3"
         id="path13" />
    </g>
  </defs>
</svg>
