<?xml version="1.0" encoding="UTF-8" standalone="no"?>
<svg
   ffdec:objectType="frame"
   height="44.349998"
   width="78.599998"
   version="1.1"
   id="svg10"
   sodipodi:docname="29.svg"
   xmlns:inkscape="http://www.inkscape.org/namespaces/inkscape"
   xmlns:sodipodi="http://sodipodi.sourceforge.net/DTD/sodipodi-0.dtd"
   xmlns:xlink="http://www.w3.org/1999/xlink"
   xmlns="http://www.w3.org/2000/svg"
   xmlns:svg="http://www.w3.org/2000/svg"
   xmlns:ffdec="https://www.free-decompiler.com/flash">
  <sodipodi:namedview
     id="namedview10"
     pagecolor="#ffffff"
     bordercolor="#000000"
     borderopacity="0.25"
     inkscape:showpageshadow="2"
     inkscape:pageopacity="0.0"
     inkscape:pagecheckerboard="0"
     inkscape:deskcolor="#d1d1d1"
     fit-margin-top="5"
     fit-margin-left="5"
     fit-margin-right="5"
     fit-margin-bottom="5" />
  <g
     transform="translate(2,2.05)"
     id="g3">
    <use
       ffdec:characterId="1"
       height="42.700001"
       transform="translate(-1.75,-2)"
       width="76.449997"
       xlink:href="#shape0"
       id="use1" />
    <use
       ffdec:characterId="31"
       height="35.650002"
       transform="translate(-0.15,2.85)"
       width="73.5"
       xlink:href="#shape1"
       id="use2" />
    <use
       ffdec:characterId="3"
       height="44.349998"
       transform="translate(-2,-2.05)"
       width="78.599998"
       xlink:href="#shape2"
       id="use3" />
  </g>
  <defs
     id="defs10">
    <g
       id="shape0"
       transform="translate(1.75,2)">
      <path
         d="M 2.8,0 V -0.4 H 5.4 V 0 H 9.7 V 19.45 0 H 20.55 L 19.3,19.45 H 9.7 0.25 V 0 H 2.8"
         fill="#ffffff"
         fill-rule="evenodd"
         stroke="none"
         id="path3" />
      <path
         d="M 0.25,19.45 H 9.7 19.3 L 18.7,28.6 16,28.5 10.95,27.95 9.7,27.8 Q 7.45,27.6 5.85,27.75 4.05,27.9 1.5,28.6 0.75,28.8 0.25,29.15 v -9.7 m 9.45,0 v 8.35 -8.35"
         fill="#121212"
         fill-rule="evenodd"
         stroke="none"
         id="path4" />
      <path
         d="m 9.7,27.8 1.25,0.15 5.05,0.55 2.7,0.1 h 1.05 l 3.75,0.15 q 2.45,0.3 3.6,1.25 0.6,0.5 0.6,1.1 0,0.65 -0.8,1 l -1.3,0.2 -7.15,0.15 -5.6,-0.3 L 9.7,31.75 7.95,31.6 3.1,31.95 0.95,32.3 0.25,32.1 -0.35,31.55 -0.5,31.3 V 29.9 L 0.25,29.15 Q 0.75,28.8 1.5,28.6 4.05,27.9 5.85,27.75 7.45,27.6 9.7,27.8 v 3.95 -3.95"
         fill="#999999"
         fill-rule="evenodd"
         stroke="none"
         id="path5" />
      <path
         d="M 2.8,0 H 0.25 M 9.7,0 H 5.4 m 16.15,0 h 10.7 M 20.55,0 H 9.7"
         fill="none"
         stroke="#666666"
         stroke-linecap="round"
         stroke-linejoin="round"
         stroke-width="4"
         id="path6" />
      <path
         d="m 9.7,-0.4 h 65 V 40.5 H 47.05 L 45.5,40.7 27,40.65 25.95,40.5 H 9.7 -0.5 V -0.4 H 9.7 V 40.5 -0.4"
         fill="#ffffff"
         fill-rule="evenodd"
         stroke="none"
         id="path7" />
    </g>
    <g
       id="shape1"
       transform="translate(0.15,-2.85)">
      <path
         d="m 64.65,9.3 0.1,0.4 q 0.35,1.3 -0.4,2.05 l -1.2,0.75 -1.8,0.45 -0.5,0.05 Q 59.75,13 59.1,12.1 58.55,11.45 58.55,10.65 58.5,10 58.9,9.35 l 0.3,-0.4 Q 59.45,8.7 60.05,8.4 l 2.4,-0.3 1.25,0.3 0.95,0.9 m -8.5,7.55 q -0.65,-0.4 -0.4,-1.1 0.2,-0.65 1.2,-0.85 l 3.9,-0.5 1.7,-0.05 3.95,0.1 2.65,0.3 q 1.2,0.2 1.65,0.55 0.95,0.65 0.5,1.5 -0.2,0.55 -1,0.65 L 69.05,17.4 64.2,16.9 57.05,17 56.15,16.85 m -3.6,5.75 q 0.2,-0.65 1.15,-0.95 l 1.8,-0.15 2.65,-0.3 7.3,-1.35 1.55,-0.2 q 0.95,0 1.4,0.6 0.65,0.8 0.1,1.6 -0.35,0.65 -1.3,0.85 l -1.65,0.2 -1.9,0.3 -1.35,0.05 -4.15,0.4 -4.2,0.3 L 53,23.8 q -0.7,-0.45 -0.45,-1.2 m -7.3,10.85 -2.35,0.35 -1.05,-0.1 -0.7,-0.35 q -1,-0.65 -1.15,-1.6 l 0.1,-1.1 0.45,-3.35 0.35,-1.35 0.25,-0.4 0.15,-1.1 0.3,-1 -0.1,-0.2 Q 40.85,22 40.75,19.95 L 40.8,19 q 0.3,-0.95 1.35,-1.6 0.85,-0.5 1.8,-0.55 1.05,-0.05 1.8,0.45 1.1,0.65 1.6,2.25 0.35,0.95 0.15,1.75 l -1.1,2.15 -0.45,1.75 0.05,0.1 0.75,1.4 0.05,4 -0.05,0.8 -0.25,0.55 -1.25,1.4 m 12.15,-5.3 1.1,0.25 0.75,0.45 q 0.25,0.2 0.85,0.4 l 2.55,0.45 q 4.15,0.3 6.3,-0.85 1.4,-0.8 1.75,-0.9 1.25,-0.3 1.7,0.55 0.4,0.65 -0.05,1.35 L 71.3,30.8 q -0.95,0.65 -2.7,1.3 l -1.25,0.4 -1.55,0.1 -5.85,-0.45 -2.3,-0.85 q -1.1,-0.7 -1.5,-1.9 -0.1,-0.8 0.2,-1.1 L 57.4,28.15 M 40.05,7.1 l 0.1,0.4 q 0.15,0.35 -0.2,0.6 H 39.3 L 39,7.85 37.9,7.65 37.75,7.75 H 37 L 36.95,7.7 36.2,7.85 Q 35.35,7.95 34.85,7.5 34.2,7 34.2,6.3 34.1,5.25 35.1,4.65 36,4.1 37.55,4.35 l 0.9,0.25 0.75,0.65 0.7,0.75 0.2,0.8 -0.05,0.3 m -25.8,7.5 q -1.2,-0.4 -1.35,-1.7 -0.15,-1 0.65,-1.95 0.7,-0.75 1.75,-1.25 3.25,-1.45 7.65,-0.5 1.95,0.4 2.9,1.05 1.7,1.1 3.3,4.65 l 1.35,3.45 q 0.55,2.2 0.15,3.7 l -0.45,1 q -0.35,0.45 -0.85,0.45 l 0.05,0.05 q 0.45,0.75 0.25,2.75 -0.15,1.2 -0.15,2.45 0,1.4 -0.3,1.95 -0.5,1 -2.1,1.45 -1.8,0.5 -2.35,1.05 L 23.8,34.1 Q 23.2,34.6 22.35,34.45 21.2,34.3 20.55,33 20.2,32.25 20,30.65 q -0.4,-2.5 0.2,-3.7 L 19.4,27 q -0.9,-0.1 -1.45,-0.6 l 0.35,6.05 -0.05,1.8 q -0.15,1.05 -0.8,1.6 -0.85,0.7 -1.95,0.45 -1.05,-0.2 -1.65,-1.15 -0.45,-0.7 -0.65,-2.05 -0.7,-3.85 -1.3,-11.65 -0.2,-2.8 0.2,-4.1 0.15,-0.7 0.55,-1.25 0.85,-1.1 2.15,-1 l 0.95,0.25 -0.25,-0.3 -1.25,-0.45 m 11.2,1.65 -0.5,0.15 h 0.7 l -0.2,-0.15 m -1.75,0.45 -0.75,0.05 -0.7,0.15 Q 21.5,17.35 21.6,19 l 0.35,4.2 q 0.15,1.3 -0.1,2.1 l 1.3,-0.25 0.4,-0.15 0.1,-0.35 -0.3,-3.2 -1,-0.35 Q 21.9,20.6 21.8,20.05 21.55,19.1 22.25,18 22.9,17.1 23.8,16.7 H 23.7 M 6.05,25.4 h 0.8 l 0.8,0.15 0.6,0.1 q 0.65,0.15 0.95,0.75 0.2,0.45 0.05,1 l -0.5,0.95 -0.4,0.4 L 7.7,29.15 6.85,29.5 4.8,29.9 3.75,29.75 Q 3.1,29.55 2.65,28.95 2.25,28.35 2.25,27.65 2.25,27 2.7,26.4 L 2.95,26.15 Q 2.5,25.7 2.4,24.85 q 0,-0.6 0.3,-1.7 l 1.65,-4.65 0.3,-0.75 0.4,-0.65 1.3,-1.65 Q 7.25,14.6 8.25,15 9,15.25 9.35,16.05 9.55,16.8 9.25,17.6 L 5.4,25.1 5.25,25.45 6.05,25.4"
         fill="#999999"
         fill-rule="evenodd"
         stroke="none"
         id="path8" />
      <path
         d="M 66,35.75 Q 60.9,36.85 56.25,34.6 54.85,34 54.6,33 54.5,32.6 54.7,31.8 55,30.2 54.9,28.35 l 0.05,-1.3 -1.7,-0.45 q -0.5,-0.15 -0.85,-0.45 -0.6,-0.6 -0.6,-2.05 l -0.05,-2 -0.05,-1 -0.45,-1 Q 51.2,19.5 51.7,19 51.95,18.8 52.75,18.45 L 54.65,18 54.45,15.3 V 14.5 L 54.4,14.15 54.25,13.7 q -0.05,-0.5 0.25,-1 l 0.1,-0.05 0.1,-0.35 0.05,-0.05 q -0.3,-0.6 -0.3,-1.2 l 0.35,-2.2 q 0.2,-1.2 1.25,-2.5 1.15,-1.65 2.8,-2.6 1.9,-1.05 3.75,-0.85 0.55,0.05 1.55,0.45 1.4,0.55 2.1,1.2 1,0.95 1.3,2.05 l 0.1,1 q 0.2,2.25 -0.55,3.4 l -0.2,0.3 3.35,0.25 q 1.8,0.2 2.25,0.95 0.3,0.5 0.3,1.35 0.1,3.05 -0.65,5.3 -0.2,0.8 -0.7,1.05 L 69.9,20.05 h -0.35 l 0.15,3.05 v 0.1 q 1.95,0.35 2.85,1.9 0.45,0.8 0.65,2.65 l 0.15,2.15 q 0.1,1.6 -0.5,2.65 l -1.25,1.4 -1.2,0.8 -1.25,0.35 -1.3,0.2 -1.85,0.45 m -6.8,-24.55 2.35,-0.25 1.7,0.1 1.5,-0.55 0.65,-0.55 Q 65.65,9.6 65.45,8.65 65.25,7.35 64.8,6.8 64.35,6.15 63.35,5.8 l -1.3,-0.3 q -1.4,-0.05 -2.9,1.45 -0.8,0.7 -1.1,1.4 l -0.4,1.95 -0.05,1.15 1.6,-0.25 m -2.45,6.35 5.55,-0.8 5.55,0.2 q 0.85,0.2 1.15,0.5 l 0.3,0.5 0.55,-0.1 0.2,-0.3 q 0.55,-1.65 0.25,-3.3 l -6,-0.6 Q 62.45,13.55 61,13.7 l -1.9,0.3 -1.95,0.1 -0.35,0.05 -0.05,0.1 -0.1,2.05 v 0.3 l 0.05,0.25 v 0.3 l -0.05,0.45 0.1,-0.05 m 8.2,5.95 q 1.45,-0.25 2.3,-0.7 L 67.1,19.95 67,19.6 66.8,19.5 q -2.05,-0.55 -5.85,0.05 -4.8,0.7 -7.1,1.35 l -0.35,0.2 -0.1,0.45 0.1,1.6 0.4,0.85 0.7,0.4 4.8,0.2 5.55,-1.1 m -22.3,-11.15 1.8,0.05 V 11.65 11.4 l -0.2,-0.15 h -0.9 l -2.15,0.35 0.1,0.85 1.35,-0.1 m 7.05,12.75 0.3,2.65 0.05,4.7 q 0,1.6 -0.4,2.25 l -1.4,1.1 q -2.8,1.4 -5.1,1.6 -3,0.15 -5.15,-1.35 -1.15,-0.85 -1.45,-1.8 -0.3,-0.7 -0.2,-2.65 l 0.35,-4 Q 37,25 37.85,24.05 l 0.3,-0.5 -0.3,-0.35 q -1.9,-1.5 -1.9,-4.2 0,-2.35 1.65,-4.4 L 38.65,13.5 38.6,13.35 38.45,12.2 38.4,10.25 q 0.15,-0.55 0.75,-1 l 1.2,-0.4 0.85,-0.2 1.55,-0.2 h 1.6 l 0.9,0.3 q 0.5,0.15 0.85,0.4 l 0.55,0.75 -0.15,1.6 -0.05,0.6 -0.15,0.65 0.95,0.35 q 1.55,0.7 2.15,1.85 0.35,0.65 0.45,2.2 0.3,4.2 -1.1,5.95 0.75,1 0.95,2 m -7.2,-9.65 -1.35,0.3 q -0.6,0.25 -0.95,0.75 -0.85,0.95 -0.95,2.45 l 0.05,0.7 0.5,0.8 0.65,0.65 0.6,0.9 2.75,0.05 2.6,0.25 0.1,-0.3 0.8,-2.25 -0.2,-2 -0.3,-1.35 -0.6,-0.45 q -1.2,-0.6 -3.7,-0.5 m 2.15,7.95 -1.95,0.1 -1.25,0.15 -0.2,0.9 1.35,-0.05 1.75,-0.1 1.75,-0.1 -0.05,-0.95 h -0.2 l -1.2,0.05 m 26.1,7.55 0.2,-0.95 q 0,-1.55 -0.4,-3.25 l -1.2,0.85 Q 67,29 62.55,28.9 L 60.15,28.7 59,28.45 57.8,28.3 57.6,32 q 4.15,1.7 6.65,1.3 l 1.85,-0.45 1.8,-0.4 0.75,-0.05 0.7,-0.15 0.9,-0.6 0.5,-0.7 m -30.3,-4.9 q -0.25,0.5 -0.35,1.7 l -0.4,4.55 0.1,0.8 0.9,0.55 2.25,0.4 q 1.45,0 4.15,-1.35 l -0.15,-5.55 -0.1,-1.25 h -0.8 L 43.1,26.05 42.3,26.1 41.55,26 H 40.5 l -0.05,0.05 M 66.3,26.8 q 1.85,-0.1 3.05,-0.9 l -1.65,-0.35 -4.2,1 2.8,0.25 m -34.25,6.55 q -4.8,2.5 -7.35,3.4 l -2.85,1 -1.05,0.4 -1.05,0.3 L 17,38.4 14.15,37.9 Q 9.75,36.85 8.75,33.8 8.5,33.05 8.4,31.55 L 7.8,31.5 5.65,31.8 Q 4.25,31.95 2.95,31.3 1.6,30.65 0.85,29.45 -0.4,27.6 -0.05,24.55 0.65,18.7 6.4,13.45 l 0.75,-0.7 q 0.55,-1.7 1.7,-3.25 1.6,-2.25 4,-3.7 4.55,-2.7 10.5,-2.15 2.2,0.15 3.8,0.9 1.2,0.55 2.6,1.8 1.55,1.4 2.5,2.75 1.95,2.9 2.3,8.55 0.5,5.45 0.1,11.65 -0.2,2 -0.75,2.75 l -1.85,1.3 M 29,11.05 27.05,9.1 Q 26.1,8.25 25.55,8.05 L 24.35,7.7 Q 20.2,7.05 16.8,8.5 q -3.7,1.45 -5.4,4.65 1.25,-0.45 3,0 1.4,0.35 2.1,1.1 l 0.55,1 0.25,0.65 v 0.7 l 0.15,0.7 0.95,7.7 2.8,-0.25 0.05,-0.6 -0.6,0.15 -1.25,-0.25 q -0.55,-0.35 -0.75,-1 -0.2,-0.65 0.05,-1.25 0.25,-0.6 0.75,-0.9 l 1.25,-0.2 0.4,0.15 -0.05,-0.3 -0.2,-2.5 0.1,-1 q 0.3,-0.75 1.7,-1.05 l 3.8,-0.9 1.65,-0.05 q 0.5,0.2 0.65,0.75 l 0.05,0.05 q 0.35,0.45 0.35,1.35 l -0.15,1.4 0.45,3.4 0.1,0.25 H 29.8 L 30.65,22 31.1,21.95 v -0.8 Q 30.5,21.1 30.05,20.65 29.6,20.15 29.7,19.5 29.8,18.6 30.65,18.35 L 30.9,18.3 30.75,17 30.25,13.85 Q 29.8,12.2 29,11.05 m -8.8,22.75 3.3,-1.05 6.45,-2.7 0.75,-0.55 0.2,-0.9 0.2,-3.5 -2.1,0.5 -0.7,0.05 q -0.7,-0.1 -1,-0.6 L 27,23.4 26.9,22.55 q -0.4,-2.6 -0.2,-4.7 l -2.1,0.55 -1.1,0.25 0.35,3 v 3 l -0.15,1.6 q -0.45,1 -2.25,1.5 l -1.65,0.4 -0.5,-0.05 -0.05,0.6 0.2,3.6 0.05,1.75 0.7,-0.25 M 7.6,17.3 7.25,16.85 6.7,17.5 Q 3.9,21.25 3.4,24.35 L 4.15,22.8 6.05,19.85 7.75,18.15 7.6,17.3 M 6.85,21.9 6.4,22.7 5.45,24.8 5.4,24.95 H 5.45 L 5.8,24.85 7.35,24.2 8,23.9 7.85,20.5 l -1,1.4 m 5.3,8.5 q 0.2,1.9 0.8,2.6 0.65,0.7 2.2,0.9 l 2.4,0.15 0.7,0.1 -0.05,-0.3 -0.15,-0.7 L 17.6,29 17.35,27.9 16.65,27.55 q -0.4,-0.35 -0.6,-1.45 -0.7,-4.65 -0.65,-8.85 l 0.1,-0.9 V 16.3 L 14.8,15.9 13.7,15.5 12.45,15.65 11.8,16 11.45,16.3 10.8,17.05 12.15,30.4 m -7.35,-2.6 2,-0.25 1.4,-0.1 -0.05,-0.9 -0.8,0.25 -0.1,0.05 -0.5,0.1 L 5.95,27 5.3,26.9 4.85,26.85 4.65,27.75 4.8,27.8"
         fill="#000000"
         fill-rule="evenodd"
         stroke="none"
         id="path9" />
    </g>
    <g
       id="shape2"
       transform="translate(2,2.05)">
      <path
         d="M -0.5,-0.4 V -0.55 H 75.1 V -0.4 40.8 H -0.5 Z"
         fill="none"
         stroke="#000000"
         stroke-linecap="round"
         stroke-linejoin="round"
         stroke-width="3"
         id="path10" />
    </g>
  </defs>
</svg>
