<svg id="svg" version="1.1" xmlns="http://www.w3.org/2000/svg" xmlns:xlink="http://www.w3.org/1999/xlink" width="400" height="400" viewBox="0, 0, 400,400"><g id="svgg"><path id="path0" d="M198.810 98.721 C 198.743 98.787,196.775 98.937,194.437 99.054 C 192.098 99.171,189.602 99.336,188.889 99.422 C 185.627 99.816,180.315 100.731,179.939 100.964 C 179.710 101.105,179.050 101.207,178.472 101.191 C 177.893 101.174,177.324 101.316,177.207 101.506 C 177.089 101.696,176.487 101.852,175.867 101.852 C 175.248 101.852,174.216 102.080,173.574 102.359 C 172.933 102.639,171.657 103.071,170.741 103.321 C 169.824 103.571,168.527 104.009,167.858 104.295 C 167.189 104.581,166.394 104.815,166.091 104.815 C 165.787 104.815,164.168 105.452,162.492 106.230 C 160.816 107.009,158.194 108.212,156.667 108.905 C 155.139 109.597,153.787 110.308,153.662 110.484 C 153.538 110.660,153.327 110.748,153.195 110.680 C 152.891 110.523,150.743 111.945,150.742 112.303 C 150.741 112.450,150.449 112.465,150.093 112.337 C 149.736 112.209,149.575 112.247,149.734 112.422 C 149.893 112.596,149.709 112.915,149.326 113.129 C 148.057 113.837,146.296 115.500,146.291 115.995 C 146.286 116.351,146.189 116.333,145.926 115.926 C 145.720 115.607,145.564 115.555,145.561 115.803 C 145.558 116.041,145.457 116.541,145.335 116.914 C 145.148 117.492,145.180 117.510,145.553 117.037 C 145.917 116.574,145.960 116.620,145.808 117.313 C 145.617 118.187,146.571 118.199,148.241 117.343 C 148.597 117.160,148.889 117.106,148.889 117.222 C 148.889 117.338,149.196 117.269,149.572 117.068 C 150.204 116.730,151.300 116.445,153.148 116.138 C 153.556 116.070,155.556 115.595,157.593 115.081 C 180.186 109.388,204.327 110.705,221.794 118.585 C 233.779 123.991,242.142 129.737,249.762 137.803 C 252.881 141.104,259.630 149.556,259.630 150.160 C 259.630 150.269,260.291 151.438,261.099 152.759 C 292.647 204.302,248.917 270.922,193.148 256.279 C 149.846 244.909,139.752 187.366,177.778 168.658 C 201.622 156.927,229.835 174.910,225.535 199.099 C 221.338 222.713,188.318 224.369,189.102 200.926 C 189.249 196.549,189.282 196.296,189.713 196.296 C 189.895 196.296,189.952 196.149,189.841 195.968 C 189.729 195.787,189.886 195.434,190.189 195.182 C 190.493 194.930,190.741 194.568,190.741 194.377 C 190.741 194.187,191.271 193.371,191.919 192.564 C 194.062 189.898,191.471 189.463,186.481 191.653 C 177.479 195.603,176.948 212.320,185.532 221.591 C 200.128 237.358,226.860 232.043,237.315 211.296 C 243.748 198.529,242.610 181.276,234.551 169.405 C 233.983 168.568,233.082 167.235,232.549 166.442 C 228.175 159.933,218.043 152.803,208.927 149.819 C 175.404 138.847,139.886 162.987,135.041 200.035 C 132.512 219.373,138.024 237.448,151.464 253.889 C 169.419 275.854,203.575 285.401,232.778 276.616 C 239.819 274.499,244.557 272.491,250.556 269.083 C 251.778 268.389,253.385 267.483,254.128 267.071 C 254.871 266.658,255.704 266.103,255.980 265.836 C 256.256 265.570,257.565 264.622,258.889 263.730 C 260.213 262.838,261.380 262.009,261.481 261.887 C 261.583 261.766,262.750 260.753,264.074 259.636 C 270.972 253.816,278.984 244.335,282.860 237.407 C 287.662 228.823,289.613 224.193,292.616 214.259 C 297.307 198.740,296.433 177.028,290.492 161.481 C 289.986 160.157,289.221 158.157,288.791 157.037 C 283.395 142.968,271.836 127.825,259.039 118.062 C 257.632 116.989,256.426 115.986,256.358 115.833 C 256.290 115.681,256.087 115.556,255.906 115.556 C 255.614 115.556,252.324 113.446,251.852 112.956 C 251.704 112.803,246.476 110.078,243.386 108.543 C 243.052 108.377,242.068 107.876,241.202 107.429 C 240.335 106.982,239.191 106.538,238.660 106.442 C 238.129 106.346,236.899 105.863,235.926 105.370 C 234.953 104.877,233.763 104.400,233.282 104.311 C 232.801 104.221,231.407 103.802,230.185 103.380 C 228.237 102.707,224.731 101.801,221.852 101.226 C 221.343 101.124,220.759 101.002,220.556 100.956 C 218.179 100.412,215.774 99.967,214.259 99.791 C 210.233 99.322,209.280 99.248,204.815 99.058 C 202.269 98.949,199.903 98.801,199.558 98.730 C 199.214 98.658,198.877 98.654,198.810 98.721 " stroke="none" fill="#fb0404" fill-rule="evenodd"></path><path id="path1" d="M178.148 85.800 C 167.902 86.893,164.631 87.438,157.344 89.264 C 152.722 90.422,144.871 92.862,144.259 93.330 C 144.056 93.486,143.472 93.735,142.963 93.885 C 141.100 94.431,133.980 97.654,132.130 98.788 C 131.366 99.256,130.741 99.528,130.741 99.392 C 130.741 99.256,130.449 99.379,130.093 99.665 C 129.736 99.951,129.111 100.367,128.704 100.589 C 113.352 108.955,99.571 120.848,88.821 135.005 C 87.118 137.248,85.320 139.748,84.826 140.560 C 84.332 141.373,83.808 142.122,83.662 142.225 C 83.222 142.535,77.868 151.717,76.130 155.142 C 66.024 175.056,60.921 196.517,60.927 219.074 C 60.929 224.174,61.376 234.057,61.643 234.881 C 61.730 235.150,61.898 236.370,62.016 237.593 C 62.134 238.815,62.301 240.231,62.388 240.741 C 62.475 241.250,62.643 242.333,62.763 243.148 C 62.883 243.963,63.050 244.880,63.135 245.185 C 63.220 245.491,63.386 246.392,63.504 247.188 C 63.805 249.225,65.508 256.666,65.928 257.778 C 66.120 258.287,66.355 259.120,66.450 259.630 C 66.546 260.139,66.809 261.139,67.036 261.852 C 67.263 262.565,67.513 263.398,67.593 263.704 C 67.985 265.212,70.844 273.200,71.323 274.126 C 71.624 274.709,71.780 275.185,71.670 275.185 C 71.559 275.185,71.902 276.040,72.432 277.085 C 72.961 278.130,73.450 279.255,73.519 279.585 C 73.828 281.074,80.999 295.149,82.026 296.284 C 82.338 296.629,82.519 296.987,82.428 297.078 C 82.154 297.352,92.024 311.912,92.652 312.160 C 92.823 312.228,92.966 312.478,92.969 312.716 C 92.972 312.954,93.430 313.677,93.987 314.324 C 96.647 317.411,97.974 319.033,98.096 319.345 C 98.169 319.533,98.669 320.156,99.207 320.730 C 99.745 321.304,101.185 322.890,102.407 324.253 C 108.326 330.855,114.524 336.681,123.189 343.783 C 128.844 348.419,130.094 349.339,136.663 353.704 C 137.429 354.213,138.535 354.948,139.121 355.337 C 139.706 355.726,140.852 356.461,141.667 356.969 C 142.481 357.478,143.565 358.174,144.074 358.517 C 144.583 358.861,146.309 359.876,147.908 360.774 C 149.508 361.673,151.508 362.798,152.353 363.276 C 156.327 365.522,171.491 372.963,172.094 372.963 C 172.517 372.963,182.407 377.913,183.515 378.679 C 185.649 380.155,186.584 381.488,186.407 382.801 C 186.234 384.085,186.289 384.128,188.760 384.623 C 189.789 384.830,193.516 385.310,197.407 385.737 C 206.559 386.741,218.936 386.961,227.222 386.267 C 237.172 385.434,257.522 381.858,259.592 380.579 C 259.721 380.499,261.823 379.905,264.265 379.259 C 266.706 378.612,268.870 377.954,269.074 377.796 C 269.278 377.639,269.944 377.390,270.556 377.245 C 271.167 377.099,272.167 376.757,272.778 376.485 C 273.389 376.213,274.556 375.787,275.370 375.540 C 276.185 375.292,277.269 374.874,277.778 374.611 C 278.287 374.347,279.454 373.806,280.370 373.408 C 285.191 371.315,288.393 369.808,288.889 369.399 C 289.194 369.148,289.569 368.930,289.722 368.915 C 290.268 368.863,298.059 364.903,298.518 364.444 C 298.620 364.343,299.454 363.860,300.370 363.372 C 301.287 362.885,302.568 362.093,303.216 361.613 C 303.864 361.133,304.559 360.741,304.759 360.741 C 304.960 360.741,305.179 360.616,305.247 360.463 C 305.315 360.310,307.195 358.952,309.426 357.445 C 313.888 354.431,313.701 354.566,315.604 352.976 C 316.344 352.358,317.054 351.852,317.182 351.852 C 317.379 351.852,318.516 350.926,320.144 349.439 C 320.370 349.232,321.305 348.482,322.222 347.772 C 323.138 347.062,324.318 346.047,324.844 345.515 C 325.369 344.983,325.982 344.483,326.204 344.404 C 326.615 344.257,334.476 337.026,335.524 335.831 C 335.838 335.473,337.389 333.806,338.971 332.127 C 343.140 327.703,343.391 327.424,345.204 325.201 C 346.110 324.090,347.191 322.840,347.606 322.424 C 348.021 322.007,348.929 320.917,349.624 320.000 C 350.319 319.083,351.109 318.083,351.381 317.778 C 352.644 316.356,353.333 315.414,353.333 315.111 C 353.333 314.929,353.718 314.412,354.188 313.964 C 354.658 313.515,355.441 312.481,355.927 311.667 C 356.413 310.852,357.029 310.052,357.295 309.889 C 357.560 309.726,357.778 309.439,357.778 309.252 C 357.778 308.919,359.958 305.555,360.413 305.185 C 360.538 305.083,360.758 304.625,360.901 304.167 C 361.044 303.708,361.304 303.333,361.479 303.333 C 361.795 303.333,364.746 298.487,366.852 294.507 C 367.463 293.352,368.088 292.352,368.241 292.284 C 368.394 292.216,368.519 291.851,368.519 291.472 C 368.519 291.094,368.693 290.677,368.906 290.545 C 369.118 290.414,370.143 288.529,371.182 286.357 C 372.220 284.185,373.213 282.352,373.387 282.284 C 373.561 282.216,373.704 281.874,373.704 281.525 C 373.704 281.175,373.858 280.731,374.046 280.537 C 374.235 280.344,374.915 278.852,375.558 277.222 C 376.954 273.682,377.704 271.919,378.229 270.943 C 378.443 270.546,379.350 268.046,380.244 265.388 C 381.137 262.730,381.975 260.306,382.106 260.000 C 382.237 259.694,382.365 259.361,382.391 259.259 C 382.417 259.157,382.715 258.241,383.053 257.222 C 383.391 256.204,383.933 254.287,384.257 252.963 C 384.581 251.639,384.948 250.306,385.072 250.000 C 385.359 249.293,385.583 248.486,385.691 247.771 C 385.738 247.462,385.870 247.045,385.984 246.845 C 386.099 246.645,386.480 244.898,386.832 242.963 C 387.183 241.028,387.566 239.194,387.683 238.889 C 387.799 238.583,387.858 238.113,387.814 237.843 C 387.769 237.573,387.893 237.156,388.090 236.917 C 388.286 236.677,388.722 234.231,389.059 231.481 C 389.396 228.731,389.833 225.898,390.031 225.185 C 390.786 222.464,392.021 201.353,391.633 197.810 C 391.512 196.707,391.354 193.790,391.283 191.328 C 391.211 188.866,390.977 186.270,390.762 185.558 C 390.546 184.846,390.366 183.346,390.361 182.225 C 390.356 181.103,390.181 179.444,389.972 178.537 C 389.764 177.631,389.435 175.649,389.243 174.133 C 389.051 172.617,388.656 170.526,388.364 169.485 C 387.645 166.913,386.700 162.833,386.258 160.388 C 386.057 159.277,385.738 158.183,385.549 157.955 C 385.361 157.728,385.018 156.637,384.789 155.530 C 384.559 154.424,384.162 153.185,383.906 152.778 C 383.651 152.370,383.348 151.537,383.232 150.926 C 382.977 149.570,381.384 145.071,381.068 144.815 C 380.943 144.713,380.715 144.213,380.561 143.704 C 380.408 143.194,379.991 142.111,379.636 141.296 C 379.280 140.481,378.677 139.065,378.294 138.148 C 377.273 135.702,373.032 127.434,372.199 126.264 C 371.804 125.709,371.481 125.162,371.481 125.047 C 371.481 124.667,367.736 119.092,367.289 118.808 C 367.049 118.655,366.978 118.527,367.132 118.524 C 367.688 118.513,361.171 110.054,359.332 108.398 C 357.293 106.563,356.741 105.975,356.905 105.811 C 357.008 105.708,356.747 105.513,356.324 105.379 C 355.901 105.245,355.556 104.869,355.556 104.543 C 355.556 104.217,355.455 104.052,355.331 104.175 C 355.208 104.299,354.729 104.035,354.267 103.589 C 352.769 102.143,351.919 101.538,351.698 101.759 C 351.579 101.878,351.481 101.781,351.481 101.543 C 351.481 101.306,351.292 101.111,351.059 101.111 C 350.827 101.111,350.398 100.819,350.106 100.463 C 349.814 100.106,349.680 100.023,349.809 100.278 C 350.173 100.996,349.344 100.823,348.919 100.093 C 348.621 99.582,348.537 99.562,348.524 100.000 C 348.513 100.379,348.421 100.420,348.235 100.129 C 347.812 99.466,345.643 99.239,345.414 99.833 C 345.309 100.109,344.890 100.271,344.484 100.193 C 343.966 100.093,343.807 100.208,343.949 100.579 C 344.061 100.869,344.343 100.992,344.576 100.853 C 344.809 100.713,344.777 100.873,344.505 101.209 C 344.233 101.545,344.134 102.019,344.285 102.263 C 344.458 102.544,344.402 102.610,344.131 102.443 C 343.896 102.297,343.694 102.313,343.682 102.478 C 343.469 105.395,343.470 106.626,343.685 106.493 C 344.041 106.273,343.931 107.480,343.536 108.119 C 343.327 108.458,343.357 108.548,343.624 108.383 C 343.860 108.237,344.024 108.406,344.017 108.788 C 344.010 109.149,344.117 109.861,344.255 110.370 C 344.392 110.880,344.568 111.796,344.645 112.407 C 344.847 114.021,345.271 116.438,345.716 118.519 C 345.824 119.028,346.002 119.861,346.111 120.370 C 346.584 122.587,346.678 123.008,346.871 123.796 C 347.105 124.754,347.338 125.898,347.567 127.216 C 347.655 127.722,347.820 128.287,347.934 128.472 C 348.048 128.657,348.216 129.451,348.307 130.237 C 348.398 131.023,348.577 132.083,348.706 132.593 C 348.834 133.102,349.000 133.935,349.074 134.444 C 349.148 134.954,349.303 135.787,349.418 136.296 C 349.533 136.806,349.711 137.722,349.813 138.333 C 350.084 139.946,350.341 141.340,350.582 142.500 C 350.698 143.060,350.870 144.102,350.963 144.815 C 351.057 145.528,351.191 146.528,351.262 147.037 C 351.332 147.546,351.515 148.963,351.668 150.185 C 351.820 151.407,351.990 152.657,352.044 152.963 C 352.098 153.269,352.265 154.852,352.413 156.481 C 352.562 158.111,352.756 159.778,352.844 160.185 C 353.268 162.159,353.387 181.029,353.004 185.818 C 352.365 193.816,352.241 194.863,351.096 201.931 C 349.454 212.070,345.222 227.697,342.487 233.725 C 341.316 236.305,339.630 240.315,339.630 240.519 C 339.630 240.953,333.219 253.497,332.619 254.236 C 332.444 254.452,331.880 255.386,331.366 256.311 C 330.392 258.068,323.048 268.937,322.619 269.259 C 322.483 269.361,321.969 270.028,321.477 270.741 C 320.985 271.454,320.399 272.204,320.174 272.407 C 319.949 272.611,319.026 273.693,318.123 274.811 C 315.370 278.221,314.792 278.850,309.982 283.673 C 305.264 288.403,302.796 290.626,298.737 293.802 C 297.496 294.772,295.788 296.146,294.940 296.855 C 294.091 297.564,292.258 298.907,290.865 299.841 C 289.473 300.774,288.042 301.801,287.685 302.122 C 287.329 302.444,287.034 302.557,287.031 302.372 C 287.028 302.188,286.903 302.208,286.754 302.416 C 286.481 302.796,284.905 303.888,283.519 304.658 C 282.326 305.320,280.379 306.446,277.407 308.192 C 275.030 309.589,272.905 310.712,272.222 310.933 C 271.882 311.043,269.100 312.290,266.702 313.407 C 262.784 315.233,253.807 318.563,251.442 319.069 C 251.115 319.139,249.698 319.529,248.294 319.935 C 223.835 327.015,191.480 325.822,169.630 317.034 C 168.713 316.666,166.713 315.861,165.185 315.246 C 141.877 305.861,119.741 286.920,108.090 266.389 C 107.715 265.727,107.052 264.560,106.617 263.796 C 103.232 257.845,98.483 246.971,97.195 242.222 C 97.112 241.917,96.624 240.167,96.110 238.333 C 95.597 236.500,95.088 234.500,94.979 233.889 C 94.871 233.278,94.629 232.194,94.441 231.481 C 93.170 226.649,92.001 215.372,92.074 208.637 C 92.123 204.037,92.517 196.708,92.786 195.370 C 92.868 194.963,93.035 193.796,93.157 192.778 C 94.451 181.941,99.280 167.106,104.792 157.037 C 105.628 155.509,106.492 153.801,106.711 153.241 C 106.930 152.681,107.260 152.222,107.444 152.222 C 107.627 152.222,107.778 152.062,107.778 151.867 C 107.778 149.306,124.408 129.630,130.185 125.355 C 131.000 124.753,131.833 124.081,132.037 123.864 C 133.472 122.333,142.470 116.026,145.257 114.598 C 145.930 114.253,146.604 113.786,146.754 113.559 C 146.910 113.323,147.031 113.306,147.037 113.519 C 147.043 113.722,147.171 113.696,147.321 113.461 C 147.658 112.931,159.635 106.950,161.667 106.297 C 162.481 106.035,163.477 105.594,163.879 105.318 C 164.281 105.041,164.922 104.815,165.304 104.815 C 165.686 104.815,166.524 104.590,167.166 104.315 C 169.495 103.318,174.304 101.852,175.244 101.852 C 175.773 101.852,176.817 101.597,177.564 101.285 C 178.310 100.972,179.077 100.814,179.268 100.931 C 179.458 101.049,179.909 100.988,180.270 100.796 C 180.631 100.604,182.009 100.333,183.333 100.194 C 184.657 100.055,186.448 99.787,187.312 99.599 C 188.176 99.411,189.010 99.278,189.164 99.302 C 189.318 99.327,189.528 99.309,189.630 99.262 C 192.272 98.048,212.444 99.039,219.815 100.744 C 221.993 101.248,222.760 101.414,224.259 101.705 C 225.686 101.981,225.794 102.008,227.776 102.569 C 228.692 102.828,229.692 103.094,229.999 103.160 C 231.249 103.428,235.117 104.802,236.852 105.595 C 237.870 106.060,238.870 106.474,239.074 106.514 C 239.728 106.642,247.956 110.525,248.156 110.800 C 248.262 110.946,248.762 111.245,249.267 111.465 C 249.772 111.684,251.099 112.362,252.215 112.969 C 253.331 113.577,254.456 114.074,254.715 114.074 C 254.974 114.074,255.185 114.238,255.185 114.437 C 255.185 114.637,255.644 114.910,256.204 115.043 C 256.764 115.176,257.474 115.502,257.781 115.767 C 258.088 116.032,258.811 116.335,259.387 116.439 C 259.963 116.544,260.644 116.803,260.900 117.015 C 261.155 117.227,261.483 117.283,261.628 117.138 C 261.773 116.993,261.771 117.188,261.623 117.572 C 261.437 118.057,261.487 118.188,261.789 118.002 C 262.426 117.608,262.317 116.758,261.574 116.326 C 261.214 116.116,261.132 115.943,261.389 115.937 C 262.094 115.920,261.944 115.277,261.019 114.352 C 260.560 113.894,260.185 113.406,260.185 113.268 C 260.185 112.857,258.065 110.635,256.536 109.444 C 255.752 108.833,254.830 108.083,254.487 107.778 C 254.144 107.472,253.120 106.722,252.210 106.111 C 251.300 105.500,250.330 104.786,250.054 104.525 C 249.778 104.264,248.861 103.699,248.017 103.271 C 247.172 102.843,246.398 102.382,246.296 102.246 C 245.142 100.702,231.083 94.089,223.519 91.531 C 210.198 87.027,190.258 84.508,178.148 85.800 " stroke="none" fill="#04fb04" fill-rule="evenodd"></path><path id="path2" d="M156.174 30.605 C 156.139 30.633,153.861 30.751,151.111 30.869 C 146.608 31.062,141.210 31.572,138.981 32.014 C 138.523 32.105,138.148 32.002,138.148 31.785 C 138.148 31.513,138.005 31.509,137.685 31.773 C 137.248 32.134,136.385 32.330,133.333 32.762 C 132.620 32.863,131.455 33.116,130.743 33.324 C 130.032 33.533,128.932 33.704,128.300 33.704 C 127.668 33.704,126.667 33.945,126.075 34.240 C 124.595 34.978,121.652 35.437,122.000 34.875 C 122.168 34.603,122.058 34.531,121.688 34.673 C 121.373 34.794,121.184 35.004,121.269 35.141 C 121.353 35.278,120.436 35.749,119.230 36.188 C 117.950 36.654,117.037 36.824,117.037 36.596 C 117.037 36.333,116.875 36.340,116.540 36.618 C 116.267 36.845,115.933 36.921,115.799 36.787 C 115.665 36.653,115.556 36.731,115.556 36.961 C 115.556 37.339,112.131 38.592,111.542 38.429 C 111.407 38.392,110.160 38.910,108.772 39.581 C 107.384 40.252,106.009 40.710,105.717 40.598 C 105.424 40.485,105.185 40.532,105.185 40.702 C 105.185 41.137,100.811 43.050,100.399 42.796 C 100.212 42.680,99.774 42.872,99.425 43.221 C 98.525 44.120,95.395 45.578,95.248 45.165 C 95.181 44.976,94.895 45.028,94.613 45.281 C 93.225 46.524,92.681 46.912,91.268 47.664 C 90.260 48.201,89.613 48.354,89.372 48.113 C 89.130 47.871,88.844 47.941,88.532 48.318 C 88.271 48.632,88.203 48.893,88.381 48.898 C 88.790 48.910,84.775 51.481,84.347 51.481 C 84.173 51.481,84.141 51.303,84.276 51.084 C 84.411 50.865,84.171 50.905,83.742 51.173 C 83.314 51.441,82.963 51.842,82.963 52.064 C 82.963 52.286,82.171 52.970,81.204 53.585 C 78.582 55.249,78.368 55.358,78.666 54.876 C 79.185 54.037,77.821 54.878,77.250 55.750 C 76.692 56.601,73.333 59.138,73.333 58.708 C 73.333 58.590,72.995 58.673,72.582 58.894 C 72.169 59.116,71.916 59.435,72.021 59.603 C 72.266 60.000,68.997 62.551,67.887 62.830 C 67.419 62.947,67.037 63.271,67.037 63.550 C 67.037 64.182,63.380 67.114,62.823 66.929 C 62.296 66.753,61.371 67.670,61.638 68.102 C 61.902 68.529,58.801 71.392,57.567 71.861 C 57.048 72.059,56.712 72.366,56.822 72.544 C 57.100 72.994,54.065 76.183,53.092 76.464 C 52.654 76.590,52.200 77.062,52.083 77.513 C 51.848 78.422,49.088 81.667,48.551 81.667 C 48.132 81.667,47.609 82.165,47.546 82.623 C 47.521 82.810,47.479 83.100,47.454 83.267 C 47.354 83.918,44.660 86.744,43.842 87.055 C 43.296 87.262,43.054 87.584,43.185 87.926 C 43.498 88.742,40.509 92.590,39.560 92.592 C 39.420 92.592,39.326 92.884,39.350 93.241 C 39.412 94.120,37.687 96.771,36.485 97.647 C 35.948 98.039,35.460 98.792,35.402 99.322 C 35.281 100.426,34.057 102.324,32.531 103.775 C 31.536 104.721,31.053 105.864,31.858 105.366 C 32.065 105.238,31.951 105.729,31.604 106.456 C 31.258 107.183,30.838 107.778,30.672 107.778 C 30.506 107.778,30.370 107.997,30.370 108.264 C 30.370 108.531,29.870 109.230,29.258 109.816 C 28.619 110.428,28.307 110.980,28.524 111.114 C 28.991 111.403,27.531 114.243,26.150 115.734 C 25.406 116.536,25.281 116.871,25.638 117.102 C 26.019 117.348,26.015 117.470,25.617 117.727 C 25.344 117.902,25.153 118.159,25.192 118.298 C 25.438 119.184,23.646 122.019,23.133 121.556 C 22.974 121.413,22.957 121.493,23.095 121.734 C 23.233 121.974,23.169 122.280,22.954 122.413 C 22.739 122.546,22.662 122.970,22.784 123.354 C 23.046 124.177,21.926 126.832,20.768 128.137 C 20.322 128.641,20.034 129.348,20.128 129.710 C 20.324 130.458,19.395 133.038,18.401 134.507 C 18.033 135.051,17.770 135.718,17.817 135.989 C 17.964 136.842,17.341 139.259,16.974 139.259 C 16.781 139.259,16.710 139.401,16.817 139.574 C 16.924 139.746,16.670 140.254,16.253 140.702 C 15.670 141.328,15.591 141.634,15.913 142.022 C 16.206 142.375,16.214 142.600,15.938 142.770 C 15.721 142.904,15.644 143.177,15.767 143.375 C 15.889 143.574,15.767 144.004,15.495 144.332 C 15.223 144.660,15.020 145.028,15.045 145.150 C 15.128 145.549,14.712 146.471,14.157 147.117 C 13.838 147.489,13.701 148.099,13.828 148.584 C 14.089 149.582,13.417 152.557,12.756 153.333 C 12.495 153.639,12.295 154.673,12.311 155.632 C 12.326 156.591,12.132 157.626,11.878 157.931 C 11.625 158.236,11.513 158.640,11.630 158.829 C 11.746 159.018,11.538 159.567,11.167 160.049 C 10.675 160.688,10.488 161.589,10.478 163.367 C 10.469 165.004,10.261 166.119,9.846 166.752 C 9.384 167.458,9.286 168.131,9.461 169.419 C 9.618 170.573,9.540 171.328,9.227 171.706 C 8.969 172.016,8.725 173.384,8.683 174.746 C 8.593 177.723,8.170 180.313,7.729 180.586 C 7.552 180.695,7.407 181.118,7.407 181.525 C 7.407 181.933,7.574 182.163,7.778 182.037 C 8.196 181.778,8.292 183.066,7.884 183.474 C 7.739 183.619,7.593 184.438,7.559 185.295 C 7.526 186.151,7.370 187.335,7.214 187.925 C 7.010 188.695,7.050 188.925,7.354 188.737 C 7.862 188.423,7.888 189.226,7.437 191.296 C 6.896 193.778,6.554 202.706,7.011 202.424 C 7.561 202.084,7.533 205.986,6.976 207.208 C 6.642 207.942,6.651 208.353,7.019 209.040 C 7.305 209.575,7.506 211.394,7.526 213.641 C 7.546 215.854,7.700 217.270,7.907 217.142 C 8.120 217.011,8.156 217.925,8.001 219.504 C 7.739 222.165,7.956 223.496,8.589 223.104 C 8.808 222.969,8.908 223.404,8.839 224.198 C 8.777 224.923,8.835 225.625,8.969 225.759 C 9.103 225.893,9.050 226.429,8.852 226.950 C 8.585 227.652,8.645 228.222,9.083 229.145 C 9.408 229.831,9.773 231.595,9.893 233.066 C 10.013 234.537,10.226 235.824,10.366 235.926 C 10.883 236.302,11.476 239.598,11.178 240.440 C 10.841 241.391,11.002 242.593,11.465 242.593 C 11.852 242.593,12.593 245.537,12.593 247.079 C 12.593 247.737,12.819 248.538,13.096 248.860 C 13.800 249.679,14.444 251.739,14.444 253.173 C 14.444 254.619,14.781 255.620,15.183 255.371 C 15.343 255.273,15.605 255.815,15.764 256.577 C 16.049 257.938,16.120 258.241,16.288 258.796 C 16.334 258.949,16.343 259.601,16.308 260.245 C 16.271 260.939,16.466 261.542,16.786 261.727 C 17.535 262.156,18.519 264.654,18.519 266.126 C 18.519 267.696,18.896 268.735,19.256 268.153 C 19.408 267.908,19.873 268.670,20.352 269.951 C 20.809 271.174,21.087 272.333,20.968 272.525 C 20.849 272.718,21.126 273.437,21.585 274.123 C 22.683 275.766,23.655 278.082,23.785 279.363 C 23.842 279.930,24.045 280.373,24.235 280.347 C 24.425 280.322,24.995 281.108,25.501 282.095 C 26.367 283.783,26.561 284.457,26.636 286.019 C 26.653 286.375,26.904 286.667,27.195 286.667 C 27.811 286.667,28.732 288.337,29.492 290.833 C 29.787 291.801,30.236 292.593,30.490 292.593 C 30.981 292.593,32.742 296.137,33.135 297.914 C 33.264 298.498,33.473 298.873,33.599 298.747 C 33.902 298.444,35.185 299.617,35.185 300.197 C 35.185 300.446,35.435 300.858,35.741 301.111 C 36.046 301.365,36.296 301.955,36.296 302.422 C 36.296 303.621,36.681 304.480,37.100 304.220 C 37.584 303.921,38.319 304.925,39.661 307.722 C 40.282 309.016,40.891 309.973,41.014 309.850 C 41.313 309.551,43.700 312.933,43.715 313.676 C 43.732 314.477,44.689 315.677,45.106 315.419 C 45.524 315.161,47.645 318.046,47.960 319.301 C 48.086 319.802,48.555 320.373,49.002 320.569 C 49.449 320.765,50.539 322.009,51.423 323.333 C 52.308 324.657,53.201 325.802,53.409 325.878 C 54.080 326.122,56.468 328.966,56.938 330.080 C 57.188 330.676,57.536 331.075,57.711 330.967 C 58.153 330.694,60.615 333.303,61.080 334.537 C 61.304 335.134,61.742 335.556,62.136 335.556 C 62.987 335.556,65.755 338.363,66.280 339.760 C 66.541 340.455,66.862 340.745,67.218 340.609 C 67.817 340.379,71.111 343.530,71.111 344.333 C 71.111 344.598,71.414 344.815,71.785 344.815 C 72.664 344.815,75.521 347.268,75.947 348.388 C 76.158 348.944,76.582 349.263,77.120 349.270 C 77.584 349.275,78.449 349.775,79.043 350.381 C 79.637 350.986,80.258 351.481,80.423 351.481 C 80.587 351.481,80.980 351.981,81.296 352.593 C 81.661 353.297,82.158 353.704,82.657 353.704 C 83.602 353.704,86.667 356.128,86.667 356.877 C 86.667 357.427,86.703 357.446,88.014 357.587 C 88.972 357.691,92.222 359.963,92.222 360.529 C 92.222 360.751,92.556 361.141,92.963 361.396 C 93.444 361.696,93.704 361.720,93.704 361.464 C 93.704 360.911,95.686 362.141,97.463 363.798 C 98.283 364.563,99.100 365.098,99.278 364.988 C 99.713 364.720,102.534 366.498,103.775 367.824 C 104.716 368.828,105.871 369.328,105.366 368.512 C 105.238 368.305,105.729 368.419,106.456 368.766 C 107.183 369.113,107.778 369.532,107.778 369.698 C 107.778 369.864,108.111 370.000,108.519 370.000 C 108.926 370.000,109.259 370.149,109.259 370.330 C 109.259 370.512,109.661 370.761,110.153 370.885 C 110.644 371.008,111.513 371.603,112.084 372.208 C 112.654 372.812,113.216 373.153,113.333 372.964 C 113.590 372.548,117.085 374.115,118.183 375.138 C 118.616 375.542,119.178 375.792,119.431 375.694 C 120.116 375.432,123.934 377.224,124.382 378.018 C 124.677 378.541,124.872 378.601,125.205 378.272 C 125.763 377.720,128.136 378.510,129.852 379.818 C 130.606 380.393,131.105 380.575,131.194 380.307 C 131.386 379.731,134.158 380.684,136.070 381.984 C 136.863 382.522,137.696 382.960,137.922 382.957 C 138.155 382.954,138.116 382.814,137.831 382.633 C 136.871 382.025,138.087 381.816,139.398 382.364 C 140.103 382.659,140.750 382.830,140.836 382.744 C 140.922 382.658,141.295 382.922,141.665 383.331 C 142.321 384.056,143.198 384.384,142.813 383.761 C 142.416 383.118,145.664 383.779,147.247 384.662 C 148.452 385.335,148.889 385.443,148.889 385.066 C 148.889 384.488,152.383 385.198,153.109 385.924 C 153.617 386.432,154.180 386.396,153.858 385.876 C 153.472 385.252,156.937 385.843,158.089 386.598 C 158.778 387.049,159.057 387.089,159.169 386.751 C 159.376 386.130,161.111 386.179,162.721 386.852 C 164.226 387.481,164.904 387.574,164.074 387.037 C 163.265 386.514,166.127 386.550,167.108 387.075 C 167.680 387.381,167.942 387.371,168.151 387.032 C 168.419 386.599,169.401 386.633,172.407 387.179 C 173.019 387.290,173.185 387.287,172.778 387.173 C 172.370 387.059,171.879 386.815,171.685 386.631 C 171.103 386.078,173.604 386.245,175.069 386.857 C 175.806 387.165,176.502 387.325,176.615 387.212 C 176.727 387.100,176.452 386.911,176.002 386.794 C 174.655 386.442,175.074 385.871,176.486 386.136 C 177.308 386.291,177.988 386.213,178.334 385.925 C 178.635 385.675,179.366 385.542,179.958 385.628 C 180.787 385.750,180.987 385.662,180.827 385.246 C 180.668 384.831,180.848 384.749,181.606 384.894 C 182.149 384.998,182.593 384.923,182.593 384.727 C 182.593 384.515,183.526 384.459,184.907 384.588 C 187.380 384.820,187.425 384.664,185.005 384.256 C 183.704 384.037,183.604 383.952,184.166 383.541 C 184.516 383.285,184.695 382.966,184.562 382.834 C 184.430 382.701,184.724 382.582,185.216 382.569 L 186.111 382.546 185.194 382.180 C 184.521 381.911,184.406 381.734,184.762 381.514 C 185.143 381.279,185.116 381.164,184.637 380.980 C 184.302 380.851,184.131 380.578,184.258 380.373 C 184.384 380.168,184.237 380.000,183.929 380.000 C 183.622 380.000,183.223 379.738,183.044 379.417 C 182.722 378.842,181.722 378.170,180.093 377.432 C 179.634 377.225,179.259 376.885,179.259 376.676 C 179.259 376.467,178.990 376.296,178.662 376.296 C 178.333 376.296,177.458 375.975,176.717 375.582 C 175.314 374.838,169.681 372.170,166.481 370.735 C 156.310 366.173,140.349 356.939,132.067 350.824 C 131.439 350.361,130.384 349.636,129.722 349.214 C 129.060 348.791,128.519 348.331,128.519 348.191 C 128.519 348.052,127.990 347.625,127.344 347.243 C 126.697 346.862,125.531 345.973,124.751 345.269 C 123.971 344.564,123.333 344.092,123.333 344.219 C 123.333 344.346,122.875 344.053,122.315 343.568 C 118.045 339.868,117.187 339.085,116.926 338.646 C 116.763 338.372,116.490 338.148,116.319 338.148 C 116.149 338.148,114.705 336.898,113.112 335.370 C 111.518 333.843,110.182 332.593,110.142 332.593 C 110.072 332.593,106.317 328.686,103.704 325.894 C 100.754 322.743,97.583 319.118,97.444 318.739 C 97.363 318.516,97.190 318.250,97.061 318.148 C 96.409 317.636,92.222 312.229,92.222 311.899 C 92.222 311.690,92.013 311.385,91.758 311.222 C 91.345 310.958,90.148 309.362,88.519 306.900 C 88.213 306.438,87.380 305.267,86.667 304.296 C 85.954 303.326,85.369 302.421,85.367 302.285 C 85.361 301.902,81.721 296.127,81.397 295.988 C 81.240 295.920,81.111 295.694,81.111 295.485 C 81.111 295.277,80.347 293.749,79.414 292.090 C 78.481 290.431,77.689 288.907,77.655 288.704 C 77.621 288.500,77.506 288.250,77.400 288.148 C 76.659 287.436,71.087 274.592,71.388 274.291 C 71.507 274.172,71.383 274.074,71.111 274.074 C 70.840 274.074,70.721 273.970,70.848 273.843 C 70.975 273.716,70.781 273.008,70.416 272.269 C 70.051 271.530,69.463 269.926,69.109 268.704 C 68.755 267.481,68.240 265.898,67.963 265.185 C 67.686 264.472,67.207 262.972,66.897 261.852 C 66.588 260.731,65.998 258.648,65.586 257.222 C 65.174 255.796,64.764 254.213,64.673 253.704 C 64.583 253.194,64.174 251.111,63.764 249.074 C 63.354 247.037,62.922 244.787,62.804 244.074 C 62.686 243.361,62.508 242.361,62.408 241.852 C 62.308 241.343,62.122 239.926,61.995 238.704 C 61.867 237.481,61.707 236.385,61.639 236.267 C 60.532 234.344,60.768 210.166,61.985 200.862 C 63.519 189.131,67.097 174.942,70.373 167.593 C 70.555 167.185,71.399 165.185,72.248 163.148 C 74.805 157.016,82.769 142.376,84.033 141.484 C 84.179 141.381,84.697 140.630,85.185 139.815 C 85.673 139.000,86.165 138.250,86.279 138.148 C 86.393 138.046,86.976 137.296,87.575 136.481 C 88.174 135.667,88.766 134.917,88.890 134.815 C 89.014 134.713,89.703 133.851,90.421 132.900 C 94.054 128.083,97.859 123.990,105.017 117.197 C 105.461 116.776,107.139 115.360,108.745 114.049 C 110.352 112.739,111.750 111.575,111.852 111.464 C 112.220 111.060,120.009 105.556,120.212 105.556 C 120.326 105.556,120.966 105.139,121.634 104.630 C 122.301 104.120,122.949 103.704,123.072 103.704 C 123.195 103.704,124.013 103.224,124.889 102.637 C 125.765 102.050,128.148 100.697,130.185 99.630 C 132.222 98.563,134.056 97.587,134.259 97.462 C 134.463 97.336,134.713 97.223,134.815 97.210 C 134.917 97.197,136.000 96.719,137.222 96.147 C 139.218 95.214,141.053 94.474,145.741 92.713 C 148.560 91.654,156.489 89.207,158.333 88.826 C 159.352 88.616,160.852 88.289,161.667 88.101 C 185.878 82.495,215.595 86.104,237.593 97.322 C 239.019 98.049,240.799 98.948,241.550 99.319 C 256.264 106.595,274.250 124.188,282.670 139.538 C 286.128 145.842,290.741 156.246,290.741 157.740 C 290.741 158.087,290.896 158.529,291.086 158.722 C 291.756 159.406,294.019 168.777,294.839 174.259 C 295.052 175.685,295.312 177.352,295.416 177.963 C 295.520 178.574,295.696 182.491,295.806 186.667 C 296.371 208.098,290.344 227.781,277.974 244.903 C 274.741 249.379,267.751 256.774,263.530 260.185 C 262.522 261.000,261.433 261.917,261.109 262.222 C 260.551 262.750,257.100 265.172,253.889 267.288 C 236.451 278.784,211.233 282.861,190.229 277.580 C 179.368 274.849,168.753 269.586,160.652 262.915 C 157.786 260.555,152.155 254.986,150.508 252.881 C 149.719 251.874,148.768 250.688,148.394 250.247 C 145.953 247.368,141.299 239.063,139.227 233.889 C 130.476 212.039,133.947 186.339,147.986 169.039 C 151.058 165.253,155.109 161.279,158.370 158.853 C 159.572 157.958,160.639 157.121,160.741 156.991 C 161.720 155.748,170.884 151.259,175.425 149.798 C 199.946 141.906,227.700 152.730,237.200 173.889 C 237.566 174.704,238.094 175.870,238.372 176.481 C 246.052 193.330,239.958 215.450,224.911 225.337 C 205.544 238.063,179.264 226.886,179.271 205.926 C 179.274 197.757,185.192 189.007,191.366 188.046 C 191.735 187.989,192.212 187.832,192.426 187.699 C 193.457 187.053,199.440 187.594,200.833 188.458 C 201.597 188.932,202.222 189.203,202.222 189.060 C 202.222 188.918,202.794 189.237,203.494 189.771 C 204.193 190.304,204.872 190.741,205.002 190.741 C 205.132 190.741,205.462 190.949,205.735 191.204 C 206.009 191.458,206.747 192.060,207.375 192.542 C 208.004 193.023,208.519 193.577,208.519 193.772 C 208.519 193.967,208.769 194.377,209.074 194.683 C 209.380 194.988,209.630 195.610,209.630 196.063 C 209.630 196.517,209.806 197.065,210.021 197.281 C 210.895 198.154,210.895 201.724,210.022 202.833 C 209.546 203.439,209.372 203.927,209.605 204.004 C 209.825 204.077,209.929 204.260,209.836 204.409 C 208.667 206.302,209.687 206.925,211.470 205.408 C 212.331 204.675,212.354 204.673,211.860 205.370 C 211.571 205.778,212.168 205.317,213.185 204.347 C 221.671 196.256,217.816 181.149,205.722 175.096 C 197.365 170.913,185.259 171.604,178.144 176.669 C 177.574 177.075,177.004 177.407,176.877 177.407 C 176.483 177.407,174.013 179.650,171.014 182.730 C 161.184 192.826,158.908 209.960,165.507 224.187 C 166.743 226.852,167.502 228.137,170.251 232.222 C 173.524 237.084,182.400 243.767,189.138 246.441 C 190.325 246.912,191.630 247.431,192.037 247.593 C 193.163 248.044,193.201 248.053,198.078 249.058 C 205.199 250.525,213.199 250.377,219.797 248.657 C 221.029 248.335,222.449 247.996,222.951 247.903 C 223.454 247.810,224.038 247.599,224.248 247.434 C 224.458 247.269,225.296 246.926,226.111 246.672 C 228.498 245.927,236.524 241.822,237.694 240.748 C 238.046 240.425,239.167 239.532,240.185 238.764 C 247.924 232.929,256.364 221.062,259.061 212.222 C 259.403 211.102,259.833 209.852,260.017 209.444 C 262.131 204.756,263.079 188.561,261.663 181.296 C 260.991 177.846,259.831 173.423,259.020 171.220 C 258.511 169.836,258.038 168.439,257.969 168.114 C 257.703 166.870,253.567 159.044,251.557 155.984 C 249.380 152.671,249.095 152.295,246.296 149.048 C 245.380 147.985,244.292 146.722,243.879 146.243 C 243.150 145.395,239.099 141.753,236.852 139.925 C 229.176 133.679,217.493 128.219,206.982 125.965 C 199.036 124.261,188.801 123.795,181.667 124.812 C 180.241 125.016,178.491 125.259,177.778 125.353 C 175.883 125.602,174.632 125.877,171.616 126.704 C 170.132 127.111,168.620 127.509,168.255 127.589 C 166.309 128.012,158.253 131.251,155.551 132.696 C 149.118 136.136,143.560 139.760,139.859 142.929 C 136.257 146.013,128.489 154.126,127.003 156.355 C 126.513 157.092,125.668 158.255,125.126 158.940 C 123.103 161.499,116.667 172.844,116.667 173.851 C 116.667 173.963,116.256 174.933,115.754 176.008 C 113.573 180.675,111.097 189.569,109.950 196.852 C 108.549 205.749,108.819 221.687,110.479 228.148 C 110.558 228.454,110.748 229.370,110.902 230.185 C 111.539 233.560,113.488 240.201,114.706 243.148 C 115.212 244.370,115.675 245.620,115.737 245.926 C 116.115 247.807,124.683 264.011,125.920 265.185 C 126.027 265.287,127.089 266.678,128.278 268.276 C 129.468 269.875,130.717 271.474,131.054 271.831 C 131.391 272.187,132.750 273.695,134.074 275.181 C 137.665 279.212,144.785 285.885,147.037 287.330 C 147.546 287.657,148.963 288.687,150.185 289.620 C 155.927 294.003,165.557 299.166,173.889 302.328 C 175.722 303.024,177.556 303.727,177.963 303.890 C 178.370 304.054,178.870 304.213,179.074 304.245 C 179.278 304.276,179.694 304.405,180.000 304.531 C 186.022 307.022,203.251 309.541,213.447 309.421 C 219.121 309.354,227.253 308.783,228.889 308.337 C 229.194 308.253,230.194 308.088,231.111 307.970 C 232.028 307.852,233.278 307.652,233.889 307.526 C 234.500 307.399,235.334 307.257,235.743 307.209 C 237.446 307.009,246.791 304.361,249.996 303.169 C 251.898 302.462,253.594 301.969,253.764 302.075 C 253.935 302.180,254.074 302.108,254.074 301.914 C 254.074 301.720,254.470 301.463,254.953 301.341 C 255.913 301.100,261.417 298.624,264.074 297.239 C 269.002 294.668,272.304 292.816,273.638 291.876 C 274.183 291.491,275.296 290.750,276.111 290.229 C 277.497 289.344,279.670 287.838,282.053 286.111 C 282.616 285.704,283.384 285.079,283.760 284.722 C 284.136 284.366,284.444 284.156,284.444 284.257 C 284.444 284.992,295.466 274.659,299.454 270.185 C 299.999 269.574,300.891 268.574,301.436 267.963 C 308.199 260.378,319.096 242.678,321.844 234.815 C 322.320 233.451,322.480 233.058,323.645 230.370 C 324.043 229.454,324.736 227.454,325.185 225.926 C 325.635 224.398,326.173 222.940,326.380 222.685 C 326.588 222.431,326.662 222.222,326.545 222.222 C 326.427 222.222,326.579 221.431,326.881 220.463 C 331.564 205.447,333.269 183.343,331.071 166.111 C 330.343 160.401,330.149 159.212,329.456 156.205 C 329.162 154.931,328.845 153.306,328.752 152.593 C 328.659 151.880,328.392 150.713,328.160 150.000 C 327.647 148.428,327.542 148.054,327.017 145.926 C 326.790 145.009,326.543 144.009,326.467 143.704 C 325.469 139.672,318.889 123.020,317.747 121.633 C 317.564 121.410,317.523 121.118,317.658 120.984 C 317.792 120.850,317.679 120.741,317.407 120.741 C 317.136 120.741,317.012 120.643,317.132 120.523 C 317.251 120.403,316.904 119.523,316.360 118.567 C 315.816 117.611,314.954 116.004,314.444 114.995 C 313.935 113.987,313.310 112.938,313.056 112.665 C 312.801 112.393,312.593 112.005,312.593 111.805 C 312.593 111.605,311.963 110.492,311.194 109.332 C 310.424 108.171,309.563 106.764,309.279 106.204 C 308.996 105.644,308.625 105.185,308.456 105.185 C 308.287 105.185,308.148 105.011,308.148 104.799 C 308.148 104.586,307.481 103.530,306.667 102.450 C 305.852 101.371,305.185 100.315,305.185 100.104 C 305.185 99.893,304.917 99.498,304.590 99.226 C 304.262 98.954,302.868 97.225,301.493 95.384 C 300.117 93.543,298.631 91.631,298.189 91.135 C 297.748 90.639,296.433 89.141,295.268 87.807 C 294.102 86.472,291.214 83.424,288.850 81.032 C 286.486 78.640,284.639 76.596,284.745 76.490 C 284.851 76.383,284.655 76.296,284.309 76.296 C 283.963 76.296,283.585 76.046,283.467 75.741 C 283.350 75.435,283.107 75.185,282.927 75.185 C 282.746 75.185,282.139 74.721,281.577 74.154 C 281.015 73.587,279.238 72.045,277.628 70.728 C 276.019 69.411,274.394 68.042,274.017 67.685 C 273.641 67.329,273.237 67.037,273.120 67.037 C 272.947 67.037,271.112 65.689,267.963 63.250 C 267.028 62.526,263.740 60.464,263.175 60.247 C 262.816 60.109,262.660 59.820,262.812 59.575 C 262.966 59.325,262.917 59.244,262.693 59.382 C 262.482 59.513,261.915 59.330,261.432 58.976 C 260.950 58.623,259.972 58.012,259.259 57.620 C 258.546 57.228,257.296 56.485,256.481 55.969 C 255.667 55.452,254.111 54.563,253.024 53.992 C 251.938 53.421,250.801 52.706,250.498 52.403 C 250.195 52.100,249.804 51.852,249.629 51.852 C 248.933 51.852,244.444 49.575,244.444 49.222 C 244.444 49.015,244.299 48.935,244.121 49.045 C 243.943 49.155,242.568 48.634,241.065 47.888 C 239.563 47.142,238.208 46.562,238.056 46.599 C 237.903 46.636,237.778 46.500,237.778 46.296 C 237.778 46.093,237.653 45.966,237.500 46.014 C 236.981 46.179,232.593 44.407,232.593 44.032 C 232.593 43.828,232.450 43.748,232.275 43.856 C 231.896 44.090,226.906 42.228,226.728 41.785 C 226.659 41.616,226.477 41.555,226.323 41.650 C 226.170 41.745,224.059 41.182,221.633 40.398 C 219.207 39.614,216.681 38.858,216.019 38.716 C 215.356 38.575,214.815 38.296,214.815 38.097 C 214.815 37.897,214.673 37.822,214.499 37.929 C 214.326 38.036,212.701 37.733,210.888 37.256 C 209.076 36.778,206.468 36.170,205.093 35.903 C 203.718 35.637,202.593 35.311,202.593 35.179 C 202.593 35.047,202.218 34.967,201.759 35.002 C 201.301 35.038,199.518 34.760,197.797 34.385 C 196.075 34.010,194.284 33.704,193.815 33.704 C 193.346 33.704,192.962 33.579,192.962 33.426 C 192.961 33.273,192.003 33.102,190.832 33.045 C 189.661 32.988,187.798 32.779,186.691 32.582 C 185.584 32.384,184.070 32.222,183.327 32.222 C 182.584 32.222,181.881 32.128,181.766 32.013 C 181.651 31.898,180.415 31.733,179.019 31.646 C 177.624 31.559,175.648 31.427,174.630 31.354 C 167.709 30.858,156.434 30.400,156.174 30.605 " stroke="none" fill="#0404fb" fill-rule="evenodd"></path><path id="path3" d="M149.630 30.370 C 148.759 30.649,148.777 30.669,149.929 30.704 C 150.660 30.726,151.062 30.591,150.926 30.370 C 150.800 30.167,150.665 30.017,150.626 30.037 C 150.587 30.057,150.139 30.207,149.630 30.370 M154.630 30.372 C 153.990 30.648,154.029 30.684,154.907 30.636 C 155.468 30.605,155.926 30.449,155.926 30.290 C 155.926 29.934,155.594 29.955,154.630 30.372 M158.440 30.426 C 158.109 30.637,158.210 30.731,158.774 30.735 C 159.221 30.738,159.672 30.602,159.777 30.432 C 160.022 30.035,159.064 30.031,158.440 30.426 M144.444 30.765 C 143.695 30.985,143.831 31.044,145.154 31.074 C 146.054 31.094,146.674 30.995,146.532 30.853 C 146.161 30.482,145.501 30.454,144.444 30.765 M163.241 30.632 C 163.699 30.720,164.449 30.720,164.907 30.632 C 165.366 30.543,164.991 30.471,164.074 30.471 C 163.157 30.471,162.782 30.543,163.241 30.632 M140.926 31.010 C 140.315 31.097,139.648 31.340,139.444 31.549 C 138.979 32.028,141.500 31.561,142.019 31.072 C 142.212 30.890,142.295 30.766,142.204 30.796 C 142.112 30.827,141.537 30.923,140.926 31.010 M136.246 31.655 C 136.150 31.751,135.539 31.870,134.888 31.919 C 134.237 31.969,133.704 32.159,133.704 32.342 C 133.704 32.715,136.174 32.335,137.037 31.829 C 137.522 31.545,137.518 31.503,137.006 31.493 C 136.684 31.487,136.342 31.560,136.246 31.655 M183.061 32.118 C 183.624 32.203,184.457 32.200,184.912 32.113 C 185.368 32.025,184.907 31.955,183.889 31.958 C 182.870 31.961,182.498 32.032,183.061 32.118 M130.703 32.754 C 130.615 32.842,130.093 32.975,129.544 33.048 C 128.996 33.122,128.446 33.282,128.323 33.405 C 127.959 33.769,130.893 33.295,131.278 32.928 C 131.499 32.717,131.488 32.593,131.247 32.593 C 131.036 32.593,130.792 32.665,130.703 32.754 M124.518 34.069 C 123.846 34.228,123.193 34.461,123.068 34.587 C 122.649 35.006,124.245 34.788,125.370 34.273 C 126.613 33.703,126.339 33.638,124.518 34.069 M118.519 35.741 C 117.378 36.180,117.333 36.242,118.148 36.255 C 118.657 36.263,119.491 36.032,120.000 35.741 C 121.162 35.076,120.244 35.076,118.519 35.741 M113.148 37.426 C 111.817 37.931,111.609 38.089,112.407 37.990 C 113.663 37.834,115.556 37.155,115.556 36.861 C 115.556 36.568,115.174 36.658,113.148 37.426 M107.963 39.259 C 107.111 39.654,106.765 39.957,107.148 39.973 C 107.818 40.000,110.000 39.022,110.000 38.694 C 110.000 38.405,109.523 38.537,107.963 39.259 M103.515 41.117 C 103.387 41.324,103.161 41.419,103.012 41.327 C 102.639 41.096,101.633 41.757,101.921 42.044 C 102.152 42.276,104.444 41.251,104.444 40.916 C 104.444 40.589,103.749 40.739,103.515 41.117 M96.887 44.085 C 95.127 44.963,94.683 45.375,95.900 45.000 C 96.961 44.673,99.242 43.330,98.704 43.349 C 98.500 43.357,97.682 43.688,96.887 44.085 M91.011 46.937 C 90.039 47.459,89.322 47.964,89.417 48.059 C 89.677 48.319,92.963 46.654,92.963 46.263 C 92.963 45.854,93.143 45.792,91.011 46.937 M240.370 47.593 C 240.880 47.884,241.463 48.122,241.667 48.122 C 241.870 48.122,241.620 47.884,241.111 47.593 C 240.602 47.301,240.019 47.063,239.815 47.063 C 239.611 47.063,239.861 47.301,240.370 47.593 M86.166 49.661 C 85.178 50.281,84.461 50.880,84.573 50.992 C 84.817 51.236,87.137 49.846,87.781 49.070 C 88.421 48.300,88.213 48.375,86.166 49.661 M80.463 53.200 C 79.597 53.722,78.889 54.308,78.889 54.503 C 78.889 54.935,80.936 53.766,81.749 52.870 C 82.520 52.020,82.345 52.065,80.463 53.200 M75.904 56.231 C 75.383 56.572,74.383 57.330,73.682 57.914 L 72.407 58.977 74.204 57.969 C 75.903 57.017,77.733 55.524,77.130 55.583 C 76.977 55.598,76.426 55.889,75.904 56.231 M69.503 60.975 C 68.720 61.487,68.175 62.002,68.292 62.119 C 68.486 62.313,71.481 60.449,71.481 60.135 C 71.481 59.827,70.844 60.097,69.503 60.975 M64.423 65.163 C 62.349 67.097,62.652 67.400,64.815 65.556 C 65.731 64.774,66.377 64.031,66.250 63.905 C 66.123 63.778,65.301 64.344,64.423 65.163 M59.259 69.815 C 58.568 70.528,58.161 71.104,58.353 71.096 C 58.958 71.069,61.637 68.519,61.060 68.519 C 60.761 68.519,59.950 69.102,59.259 69.815 M54.696 74.459 C 52.679 76.534,52.646 76.877,54.631 75.134 C 55.726 74.173,56.980 72.552,56.587 72.607 C 56.529 72.615,55.678 73.449,54.696 74.459 M50.556 78.764 C 49.465 79.986,49.017 80.741,49.382 80.741 C 49.650 80.741,51.967 77.765,51.804 77.632 C 51.728 77.570,51.167 78.080,50.556 78.764 M46.564 83.338 C 46.213 83.747,45.926 84.241,45.926 84.436 C 45.926 84.630,45.578 84.975,45.153 85.202 C 44.729 85.430,44.491 85.725,44.625 85.860 C 44.889 86.124,47.407 83.465,47.407 82.922 C 47.407 82.442,47.275 82.507,46.564 83.338 M42.165 88.981 C 41.698 89.644,41.022 90.506,40.662 90.899 C 40.302 91.292,40.091 91.696,40.193 91.798 C 40.450 92.055,41.530 90.822,42.497 89.167 C 43.495 87.459,43.311 87.356,42.165 88.981 M37.489 95.620 C 36.836 96.470,36.385 97.249,36.488 97.352 C 36.688 97.552,37.354 96.733,38.327 95.093 C 39.197 93.625,38.858 93.839,37.489 95.620 M34.444 100.067 C 34.444 100.375,34.111 101.012,33.704 101.481 C 32.942 102.360,32.752 102.966,33.241 102.959 C 33.656 102.952,34.974 100.036,34.690 99.752 C 34.555 99.617,34.444 99.758,34.444 100.067 M306.829 102.714 C 307.399 103.462,307.941 104.074,308.032 104.074 C 308.289 104.074,306.686 101.908,306.212 101.614 C 305.981 101.472,306.258 101.967,306.829 102.714 M29.996 107.870 C 29.251 109.092,28.955 110.279,29.649 109.259 C 30.374 108.195,31.129 106.667,30.930 106.667 C 30.820 106.667,30.400 107.208,29.996 107.870 M23.974 119.853 C 23.825 120.002,23.704 120.379,23.704 120.691 C 23.704 121.108,23.813 121.150,24.116 120.847 C 24.342 120.621,24.464 120.244,24.386 120.009 C 24.308 119.775,24.122 119.705,23.974 119.853 M19.530 130.648 C 19.427 131.005,19.217 131.630,19.062 132.037 C 18.641 133.143,19.402 132.242,19.922 131.019 C 20.160 130.458,20.211 130.000,20.035 130.000 C 19.860 130.000,19.632 130.292,19.530 130.648 M14.537 145.092 C 14.101 147.000,14.225 147.679,14.750 146.255 C 15.349 144.633,15.573 143.333,15.255 143.333 C 15.081 143.333,14.759 144.125,14.537 145.092 M10.197 163.072 C 10.038 163.437,10.012 163.840,10.139 163.967 C 10.516 164.343,10.819 163.814,10.646 163.085 C 10.492 162.438,10.472 162.437,10.197 163.072 M9.630 165.577 C 9.630 165.997,9.796 166.237,10.000 166.111 C 10.204 165.985,10.370 165.642,10.370 165.349 C 10.370 165.055,10.204 164.815,10.000 164.815 C 9.796 164.815,9.630 165.158,9.630 165.577 M8.895 170.648 C 8.899 171.389,8.990 171.525,9.231 171.145 C 9.412 170.858,9.475 170.399,9.371 170.126 C 9.070 169.343,8.888 169.542,8.895 170.648 M8.242 176.852 C 8.246 177.667,8.322 177.956,8.410 177.496 C 8.499 177.035,8.495 176.368,8.403 176.014 C 8.310 175.660,8.237 176.037,8.242 176.852 M7.123 185.556 C 7.123 186.269,7.199 186.560,7.292 186.204 C 7.386 185.847,7.386 185.264,7.292 184.907 C 7.199 184.551,7.123 184.843,7.123 185.556 M210.138 199.985 C 210.127 201.844,210.204 202.197,210.486 201.565 C 210.718 201.046,210.723 200.182,210.500 199.173 C 210.154 197.602,210.152 197.606,210.138 199.985 M6.719 205.000 L 6.748 207.222 7.067 205.597 C 7.258 204.622,7.247 203.732,7.038 203.374 C 6.794 202.957,6.698 203.446,6.719 205.000 M208.413 205.919 C 208.257 206.515,208.391 206.638,209.131 206.577 C 209.902 206.513,209.954 206.438,209.471 206.085 C 209.157 205.855,209.009 205.559,209.142 205.426 C 209.274 205.294,209.208 205.185,208.994 205.185 C 208.780 205.185,208.519 205.515,208.413 205.919 M7.143 211.667 C 7.146 212.685,7.218 213.058,7.303 212.495 C 7.388 211.932,7.386 211.099,7.298 210.643 C 7.210 210.188,7.140 210.648,7.143 211.667 M7.490 219.187 C 7.450 220.480,7.521 220.736,7.766 220.185 C 8.191 219.231,8.234 217.874,7.846 217.635 C 7.680 217.532,7.520 218.230,7.490 219.187 M8.119 224.723 C 8.296 226.001,8.322 226.027,8.444 225.047 C 8.517 224.462,8.430 223.838,8.252 223.659 C 8.065 223.473,8.009 223.926,8.119 224.723 M60.834 225.000 C 60.838 225.815,60.914 226.105,61.003 225.644 C 61.091 225.183,61.088 224.516,60.995 224.162 C 60.903 223.808,60.830 224.185,60.834 225.000 M9.141 230.741 C 9.557 232.988,10.007 234.056,9.765 232.222 C 9.645 231.306,9.401 230.306,9.224 230.000 C 9.024 229.656,8.993 229.938,9.141 230.741 M11.543 243.333 C 11.538 244.363,12.496 247.547,12.547 246.667 C 12.564 246.361,12.346 245.278,12.063 244.259 C 11.755 243.151,11.546 242.779,11.543 243.333 M13.276 249.448 C 13.161 249.650,13.285 250.315,13.553 250.926 C 14.067 252.098,14.178 251.563,13.744 250.004 C 13.602 249.497,13.392 249.247,13.276 249.448 M15.587 258.519 C 15.598 258.824,15.751 259.407,15.926 259.815 L 16.244 260.556 16.265 259.815 C 16.276 259.407,16.123 258.824,15.926 258.519 C 15.607 258.025,15.569 258.025,15.587 258.519 M17.214 262.963 C 17.330 263.472,17.525 264.347,17.648 264.907 C 17.770 265.468,18.016 265.926,18.194 265.926 C 18.614 265.926,18.637 266.031,17.761 263.889 C 17.344 262.870,17.098 262.454,17.214 262.963 M22.513 277.087 C 22.844 277.930,23.174 278.441,23.247 278.223 C 23.374 277.842,22.354 275.556,22.057 275.556 C 21.977 275.556,22.182 276.245,22.513 277.087 M24.462 281.218 C 24.439 282.099,26.001 285.122,26.191 284.565 C 26.273 284.326,25.921 283.326,25.409 282.343 C 24.897 281.360,24.471 280.854,24.462 281.218 M27.778 288.056 C 27.778 288.232,28.019 288.700,28.315 289.096 C 28.833 289.789,28.845 289.785,28.641 288.976 C 28.430 288.140,27.778 287.444,27.778 288.056 M31.327 294.722 C 31.902 295.916,32.222 296.230,32.222 295.597 C 32.222 295.415,31.891 294.874,31.485 294.393 L 30.749 293.519 31.327 294.722 M33.958 299.155 C 33.862 299.314,34.165 299.998,34.631 300.675 C 35.098 301.351,35.554 301.768,35.646 301.600 C 35.864 301.204,34.187 298.775,33.958 299.155 M38.577 306.667 C 39.029 307.278,39.460 307.778,39.535 307.778 C 39.610 307.778,39.376 307.278,39.015 306.667 C 38.654 306.056,38.223 305.556,38.057 305.556 C 37.891 305.556,38.125 306.056,38.577 306.667 M42.057 311.759 C 42.609 312.625,43.123 313.333,43.197 313.333 C 43.615 313.333,43.195 312.541,42.193 311.439 L 41.053 310.185 42.057 311.759 M45.483 316.481 C 45.707 316.889,46.322 317.722,46.851 318.333 L 47.812 319.444 47.277 318.332 C 46.983 317.721,46.368 316.888,45.910 316.481 C 45.078 315.741,45.078 315.741,45.483 316.481 M49.259 321.468 C 49.259 321.665,49.634 322.023,50.093 322.263 C 50.921 322.698,50.922 322.696,50.220 321.906 C 49.437 321.023,49.259 320.942,49.259 321.468 M53.704 326.437 C 53.704 326.616,54.287 327.408,55.000 328.197 C 55.713 328.986,56.296 329.495,56.296 329.328 C 56.296 329.160,55.713 328.368,55.000 327.567 C 54.287 326.766,53.704 326.258,53.704 326.437 M58.148 331.707 C 58.148 331.910,58.731 332.642,59.444 333.333 C 60.157 334.024,60.741 334.423,60.741 334.219 C 60.741 334.016,60.157 333.284,59.444 332.593 C 58.731 331.902,58.148 331.503,58.148 331.707 M118.889 340.505 C 118.889 340.607,119.389 341.046,120.000 341.481 C 120.611 341.917,121.111 342.189,121.111 342.087 C 121.111 341.986,120.611 341.546,120.000 341.111 C 119.389 340.676,118.889 340.403,118.889 340.505 M67.407 341.077 C 67.407 341.312,67.699 341.614,68.056 341.747 C 68.412 341.880,69.159 342.500,69.716 343.124 C 70.273 343.749,70.732 344.082,70.735 343.866 C 70.740 343.494,69.496 342.229,68.056 341.140 C 67.602 340.797,67.407 340.778,67.407 341.077 M79.109 351.054 C 78.990 351.247,79.166 351.509,79.500 351.637 C 80.318 351.951,80.510 351.688,79.857 351.146 C 79.540 350.883,79.238 350.846,79.109 351.054 M82.963 353.894 C 82.963 354.220,85.350 356.274,85.741 356.285 C 85.944 356.291,85.456 355.713,84.655 355.000 C 83.187 353.693,82.963 353.547,82.963 353.894 M88.471 358.276 C 88.751 358.613,89.209 358.889,89.490 358.889 C 89.770 358.889,90.000 359.051,90.000 359.250 C 90.000 359.448,90.542 359.891,91.204 360.233 C 92.311 360.806,92.367 360.806,91.899 360.242 C 91.620 359.905,91.161 359.630,90.881 359.630 C 90.600 359.630,90.370 359.467,90.370 359.269 C 90.370 359.070,89.829 358.628,89.167 358.286 C 88.059 357.713,88.004 357.712,88.471 358.276 M94.278 362.163 C 94.922 362.732,97.407 364.138,97.407 363.932 C 97.407 363.645,94.715 361.852,94.284 361.852 C 94.059 361.852,94.056 361.967,94.278 362.163 M100.370 366.037 C 100.880 366.274,101.517 366.680,101.786 366.938 C 102.255 367.388,102.963 367.577,102.963 367.252 C 102.963 366.948,100.459 365.556,99.956 365.581 C 99.675 365.594,99.861 365.800,100.370 366.037 M106.842 369.613 C 107.043 369.938,109.837 371.561,111.255 372.176 C 112.631 372.772,110.591 371.230,108.825 370.338 C 107.598 369.719,106.705 369.392,106.842 369.613 M114.815 373.631 C 114.815 373.809,115.273 374.185,115.833 374.466 C 117.392 375.247,117.663 375.290,116.852 374.626 C 115.744 373.720,114.815 373.266,114.815 373.631 M120.000 376.296 C 120.000 376.500,120.256 376.667,120.569 376.667 C 120.881 376.667,121.543 376.932,122.038 377.257 C 122.534 377.582,123.153 377.775,123.414 377.687 C 123.675 377.600,123.076 377.167,122.083 376.727 C 120.003 375.805,120.000 375.804,120.000 376.296 M126.296 378.864 C 126.296 379.081,126.421 379.228,126.574 379.190 C 126.727 379.153,127.497 379.403,128.286 379.746 C 129.967 380.478,130.125 380.502,129.801 379.977 C 129.364 379.270,126.296 378.296,126.296 378.864 M183.704 379.048 C 183.704 379.374,184.883 380.370,185.268 380.370 C 185.489 380.370,185.285 380.037,184.815 379.630 C 183.957 378.886,183.704 378.753,183.704 379.048 M131.852 380.712 C 131.852 381.126,134.405 382.015,134.711 381.708 C 134.831 381.589,134.325 381.239,133.587 380.931 C 132.020 380.276,131.852 380.255,131.852 380.712 M185.322 381.166 C 185.881 381.491,185.917 381.630,185.507 381.889 C 185.122 382.134,185.178 382.214,185.741 382.222 C 186.307 382.231,186.361 382.310,185.971 382.557 C 185.690 382.735,185.575 383.065,185.715 383.292 C 185.874 383.548,185.647 383.706,185.114 383.709 C 184.426 383.714,184.368 383.785,184.815 384.074 C 185.120 384.272,185.787 384.433,186.296 384.433 C 186.928 384.433,187.068 384.336,186.739 384.126 C 186.454 383.946,186.319 383.378,186.411 382.743 C 186.587 381.523,186.121 380.735,185.232 380.752 C 184.728 380.761,184.743 380.829,185.322 381.166 M137.963 382.522 C 138.483 383.015,141.116 383.822,141.372 383.566 C 141.602 383.337,140.473 382.858,138.704 382.435 C 137.998 382.267,137.728 382.298,137.963 382.522 M143.704 383.907 C 143.704 384.131,144.964 384.611,146.481 384.966 C 147.514 385.208,147.540 385.190,146.852 384.706 C 146.098 384.178,143.704 383.570,143.704 383.907 M183.867 384.973 C 184.691 385.640,185.409 385.722,185.741 385.185 C 185.867 384.981,185.751 384.813,185.485 384.810 C 185.218 384.807,184.583 384.711,184.074 384.597 C 183.180 384.397,183.173 384.410,183.867 384.973 M149.138 385.212 C 149.342 385.416,150.161 385.681,150.958 385.802 C 151.924 385.949,152.284 385.899,152.037 385.652 C 151.833 385.448,151.014 385.183,150.217 385.062 C 149.251 384.915,148.891 384.965,149.138 385.212 M181.691 385.515 C 181.579 385.697,182.080 385.915,182.803 385.999 C 184.188 386.161,184.850 385.790,183.856 385.409 C 183.005 385.082,181.926 385.135,181.691 385.515 M154.663 386.181 C 155.028 386.448,155.670 386.669,156.089 386.672 C 156.509 386.675,157.269 386.773,157.778 386.891 L 158.704 387.106 157.731 386.562 C 156.400 385.817,153.708 385.483,154.663 386.181 M178.889 386.296 C 179.194 386.494,179.944 386.655,180.556 386.655 C 181.408 386.655,181.537 386.572,181.111 386.296 C 180.806 386.099,180.056 385.937,179.444 385.937 C 178.592 385.937,178.463 386.021,178.889 386.296 M159.795 386.737 C 160.191 386.967,161.108 387.216,161.832 387.290 L 163.148 387.424 162.087 386.860 C 160.783 386.167,158.611 386.050,159.795 386.737 M176.503 386.840 C 177.307 387.448,178.737 387.582,179.048 387.079 C 179.276 386.711,178.058 386.309,176.688 386.301 C 175.814 386.296,175.808 386.314,176.503 386.840 M164.630 387.037 C 164.756 387.241,165.390 387.405,166.040 387.402 C 166.940 387.397,167.089 387.310,166.667 387.037 C 165.932 386.562,164.336 386.562,164.630 387.037 M173.333 387.222 C 174.526 387.904,174.815 387.904,174.815 387.222 C 174.815 386.840,174.440 386.671,173.611 386.680 L 172.407 386.693 173.333 387.222 M168.757 387.322 C 168.660 387.478,169.233 387.544,170.031 387.468 C 170.829 387.392,171.481 387.264,171.481 387.183 C 171.481 386.907,168.933 387.037,168.757 387.322 " stroke="none" fill="#0c1043" fill-rule="evenodd"></path><path id="path4" d="M147.778 30.718 C 147.778 30.909,148.100 31.041,148.493 31.011 C 148.886 30.982,149.126 30.825,149.027 30.664 C 148.773 30.253,147.778 30.296,147.778 30.718 M166.308 30.501 C 166.416 30.611,167.077 30.803,167.778 30.926 C 168.478 31.049,168.947 31.046,168.820 30.919 C 168.693 30.791,168.031 30.600,167.350 30.494 C 166.668 30.388,166.200 30.391,166.308 30.501 M142.187 31.140 C 141.837 31.362,142.202 31.472,143.302 31.476 C 145.053 31.482,145.211 31.265,143.661 30.983 C 143.137 30.888,142.474 30.959,142.187 31.140 M169.907 31.002 C 170.366 31.090,171.116 31.090,171.574 31.002 C 172.032 30.914,171.657 30.842,170.741 30.842 C 169.824 30.842,169.449 30.914,169.907 31.002 M131.913 32.642 C 131.472 32.806,131.111 33.024,131.111 33.127 C 131.111 33.230,131.511 33.163,131.999 32.977 C 132.487 32.792,132.971 32.724,133.073 32.826 C 133.175 32.928,133.352 32.862,133.465 32.679 C 133.720 32.266,132.978 32.248,131.913 32.642 M105.926 40.370 C 105.432 40.690,105.432 40.729,105.926 40.729 C 106.231 40.729,106.731 40.568,107.037 40.370 C 107.531 40.051,107.531 40.011,107.037 40.011 C 106.731 40.011,106.231 40.173,105.926 40.370 M81.924 52.615 C 81.484 53.319,81.506 53.347,82.205 52.972 C 82.622 52.749,82.963 52.406,82.963 52.209 C 82.963 51.603,82.425 51.813,81.924 52.615 M70.033 61.256 C 69.798 61.540,69.105 61.979,68.494 62.232 C 67.883 62.485,67.457 62.765,67.546 62.855 C 67.785 63.093,69.790 61.996,70.350 61.321 C 70.615 61.002,70.748 60.741,70.646 60.741 C 70.544 60.741,70.268 60.973,70.033 61.256 M65.944 64.542 L 65.088 65.741 66.136 64.733 C 66.712 64.179,67.097 63.640,66.991 63.534 C 66.886 63.429,66.414 63.882,65.944 64.542 M45.022 85.648 C 44.220 86.412,43.729 87.037,43.931 87.037 C 44.341 87.037,46.894 84.512,46.641 84.357 C 46.553 84.303,45.825 84.884,45.022 85.648 M38.861 93.426 C 38.447 94.776,38.681 95.155,39.259 94.074 C 39.528 93.572,39.532 93.333,39.272 93.333 C 39.061 93.333,38.876 93.375,38.861 93.426 M34.931 99.907 C 34.804 100.264,34.631 100.722,34.545 100.926 C 34.460 101.130,34.652 100.973,34.973 100.577 C 35.555 99.859,35.731 99.259,35.359 99.259 C 35.251 99.259,35.058 99.551,34.931 99.907 M31.278 106.331 C 30.953 106.961,30.752 107.542,30.832 107.622 C 30.913 107.703,31.256 107.187,31.594 106.477 C 32.356 104.880,32.092 104.757,31.278 106.331 M22.137 125.100 C 21.328 127.347,21.577 127.596,22.422 125.385 C 22.778 124.451,23.000 123.617,22.914 123.531 C 22.828 123.445,22.478 124.151,22.137 125.100 M15.525 142.293 C 15.508 142.560,15.453 143.145,15.403 143.594 C 15.353 144.043,15.461 144.318,15.644 144.205 C 15.827 144.092,15.895 143.786,15.795 143.526 C 15.695 143.266,15.782 142.885,15.987 142.680 C 16.238 142.428,16.229 142.224,15.958 142.057 C 15.737 141.920,15.542 142.026,15.525 142.293 M11.973 156.594 C 11.909 157.949,11.912 157.951,12.241 156.861 C 12.424 156.254,12.453 155.638,12.305 155.492 C 12.158 155.345,12.008 155.841,11.973 156.594 M7.685 182.066 C 7.532 182.220,7.407 182.685,7.407 183.099 C 7.407 183.644,7.519 183.740,7.813 183.447 C 8.035 183.224,8.160 182.759,8.090 182.414 C 8.020 182.068,7.838 181.911,7.685 182.066 M7.463 185.247 C 7.432 185.791,7.311 186.541,7.194 186.914 C 6.993 187.555,7.004 187.557,7.403 186.935 C 7.635 186.573,7.756 185.823,7.672 185.268 L 7.518 184.259 7.463 185.247 M7.366 188.704 C 7.251 188.907,7.142 189.824,7.124 190.741 L 7.091 192.407 7.446 190.936 C 7.804 189.451,7.753 188.019,7.366 188.704 M205.926 191.716 C 205.926 192.071,207.910 193.704,208.333 193.697 C 208.537 193.694,208.139 193.195,207.450 192.587 C 206.156 191.446,205.926 191.315,205.926 191.716 M7.807 222.796 C 7.791 223.010,7.928 223.344,8.112 223.537 C 8.296 223.731,8.527 224.222,8.625 224.630 C 8.738 225.101,8.819 224.925,8.846 224.145 C 8.870 223.471,8.736 223.013,8.550 223.129 C 8.364 223.244,8.127 223.129,8.024 222.873 C 7.921 222.617,7.823 222.582,7.807 222.796 M10.741 239.030 C 10.741 239.336,10.907 239.689,11.111 239.815 C 11.315 239.941,11.481 239.794,11.481 239.488 C 11.481 239.183,11.315 238.830,11.111 238.704 C 10.907 238.578,10.741 238.725,10.741 239.030 M15.126 255.368 C 14.832 255.662,15.586 258.148,15.969 258.148 C 16.128 258.148,16.113 257.690,15.936 257.130 C 15.759 256.569,15.555 255.892,15.484 255.625 C 15.413 255.358,15.252 255.242,15.126 255.368 M30.370 292.906 C 30.370 293.078,30.718 293.533,31.142 293.917 C 31.912 294.614,31.913 294.613,31.453 293.604 C 31.016 292.646,30.370 292.229,30.370 292.906 M32.448 296.481 C 32.753 297.843,32.965 298.139,32.957 297.191 C 32.954 296.801,32.782 296.231,32.576 295.926 C 32.301 295.520,32.267 295.670,32.448 296.481 M86.296 303.889 C 86.927 304.806,87.526 305.556,87.628 305.556 C 87.730 305.556,87.297 304.806,86.667 303.889 C 86.036 302.972,85.437 302.222,85.335 302.222 C 85.233 302.222,85.666 302.972,86.296 303.889 M41.024 309.895 C 40.944 310.055,41.264 310.554,41.735 311.005 C 42.776 312.001,42.852 311.743,41.881 310.509 C 41.490 310.012,41.104 309.735,41.024 309.895 M45.070 315.463 C 44.983 315.616,45.425 316.157,46.053 316.667 L 47.195 317.593 46.306 316.389 C 45.338 315.079,45.304 315.054,45.070 315.463 M48.889 320.988 C 48.889 321.327,49.000 321.493,49.137 321.357 C 49.273 321.221,49.731 321.400,50.155 321.756 C 50.717 322.227,50.682 322.126,50.028 321.386 C 48.978 320.198,48.889 320.167,48.889 320.988 M57.809 331.019 C 57.826 331.171,58.535 331.872,59.383 332.575 L 60.926 333.855 59.462 332.298 C 57.956 330.696,57.755 330.541,57.809 331.019 M62.222 335.926 C 62.222 336.130,62.404 336.296,62.626 336.296 C 62.848 336.296,63.764 337.053,64.663 337.977 C 66.835 340.212,66.766 339.729,64.579 337.392 C 62.903 335.600,62.222 335.176,62.222 335.926 M72.407 345.370 C 72.815 345.662,73.398 346.101,73.704 346.346 C 75.494 347.779,75.611 347.790,74.156 346.389 C 73.257 345.523,72.329 344.820,72.094 344.827 C 71.859 344.833,72.000 345.077,72.407 345.370 M137.198 354.406 C 137.336 354.628,137.793 354.995,138.213 355.220 C 138.761 355.513,138.907 355.515,138.728 355.224 C 138.590 355.001,138.133 354.635,137.712 354.409 C 137.164 354.116,137.019 354.115,137.198 354.406 M84.259 354.682 C 86.145 356.356,86.840 356.844,86.113 355.984 C 85.709 355.507,85.043 354.945,84.634 354.735 C 84.224 354.525,84.056 354.502,84.259 354.682 M105.185 368.330 C 105.185 368.583,107.453 369.708,107.622 369.538 C 107.703 369.458,107.187 369.115,106.477 368.776 C 105.766 368.437,105.185 368.236,105.185 368.330 M115.926 373.854 C 115.926 373.928,116.343 374.262,116.852 374.596 C 117.361 374.929,117.778 375.059,117.778 374.883 C 117.778 374.707,117.361 374.373,116.852 374.141 C 116.343 373.909,115.926 373.780,115.926 373.854 M181.135 377.992 C 181.624 378.581,182.222 378.691,182.222 378.191 C 182.222 378.011,181.879 377.775,181.460 377.665 C 180.835 377.501,180.777 377.560,181.135 377.992 M125.389 378.068 C 125.265 378.192,125.960 378.496,126.934 378.743 C 129.214 379.324,129.404 379.134,127.272 378.407 C 126.360 378.097,125.513 377.944,125.389 378.068 M183.032 379.282 C 183.122 379.550,183.413 379.841,183.681 379.931 C 183.958 380.023,184.097 379.884,184.005 379.606 C 183.916 379.339,183.624 379.047,183.356 378.958 C 183.079 378.866,182.940 379.005,183.032 379.282 M184.265 380.361 C 183.973 380.833,184.580 381.115,185.141 380.768 C 185.513 380.538,185.492 380.425,185.043 380.253 C 184.727 380.132,184.377 380.180,184.265 380.361 M184.850 381.460 C 184.584 381.624,184.516 381.852,184.700 381.966 C 184.885 382.080,185.254 382.039,185.520 381.874 C 185.787 381.709,185.854 381.481,185.670 381.367 C 185.486 381.253,185.117 381.295,184.850 381.460 M137.651 382.130 C 137.557 382.282,138.005 382.436,138.647 382.470 C 139.594 382.520,139.675 382.473,139.074 382.218 C 138.109 381.809,137.858 381.793,137.651 382.130 M184.562 382.834 C 184.695 382.966,184.514 383.313,184.161 383.605 C 183.556 384.104,183.558 384.122,184.197 383.919 C 184.570 383.801,185.107 383.704,185.389 383.704 C 185.693 383.704,185.816 383.477,185.689 383.148 C 185.572 382.843,185.216 382.593,184.899 382.593 C 184.581 382.593,184.430 382.701,184.562 382.834 M143.029 383.968 C 143.246 384.230,143.543 384.444,143.687 384.444 C 143.832 384.444,143.951 384.230,143.951 383.968 C 143.951 383.706,143.654 383.492,143.292 383.492 C 142.798 383.492,142.732 383.611,143.029 383.968 M182.593 384.815 C 182.593 385.019,182.746 385.185,182.933 385.185 C 183.120 385.185,183.578 385.291,183.951 385.420 C 184.547 385.627,184.540 385.583,183.889 385.062 C 183.030 384.374,182.593 384.290,182.593 384.815 M180.840 385.278 C 180.961 385.594,180.604 385.741,179.710 385.741 C 178.991 385.741,178.331 385.949,178.244 386.204 C 178.156 386.464,178.383 386.664,178.765 386.661 C 179.347 386.656,179.365 386.599,178.889 386.261 C 178.471 385.965,178.708 385.909,179.846 386.038 C 181.044 386.174,181.448 386.064,181.793 385.512 C 182.168 384.912,182.119 384.815,181.445 384.815 C 180.970 384.815,180.732 384.997,180.840 385.278 M175.048 386.490 C 174.871 386.950,174.966 386.982,175.564 386.662 C 176.422 386.203,176.504 385.926,175.780 385.926 C 175.497 385.926,175.167 386.180,175.048 386.490 M171.605 386.836 C 171.605 387.132,171.757 387.281,171.943 387.166 C 172.128 387.051,172.726 386.823,173.270 386.659 C 174.208 386.376,174.190 386.358,172.932 386.328 C 172.003 386.306,171.605 386.458,171.605 386.836 M168.148 387.014 C 168.148 387.206,168.768 387.265,169.537 387.147 C 171.460 386.850,171.519 386.667,169.691 386.667 C 168.843 386.667,168.148 386.823,168.148 387.014 " stroke="none" fill="#07069a" fill-rule="evenodd"></path></g></svg>