<svg xmlns="http://www.w3.org/2000/svg" xmlns:ffdec="https://www.free-decompiler.com/flash" xmlns:xlink="http://www.w3.org/1999/xlink" ffdec:objectType="frame" viewBox="39.95 7.40 75.60 41.35">
  <g transform="matrix(1.0, 0.0, 0.0, 1.0, 40.45, 7.95)">
    <use ffdec:characterId="1" height="42.7" transform="matrix(1.0, 0.0, 0.0, 1.0, 0.0, 0.0)" width="76.45" xlink:href="#shape0" />
    <use ffdec:characterId="399" height="38.45" transform="matrix(1.0, 0.0, 0.0, 1.0, 0.0, 0.0)" width="70.05" xlink:href="#shape1" />
    <use ffdec:characterId="3" height="44.35" transform="matrix(1.0, 0.0, 0.0, 1.0, 0.0, 0.0)" width="78.6" xlink:href="#shape2" />
  </g>
  <defs>
    <g id="shape0">
      <path d="M2.8 0.0 L2.8 -0.4 5.4 -0.4 5.4 0.0 9.7 0.0 9.7 19.45 9.7 0.0 20.55 0.0 19.3 19.45 9.7 19.45 0.25 19.45 0.25 0.0 2.8 0.0" fill="#ffffff" fill-rule="evenodd" stroke="none" />
      <path d="M0.25 19.45 L9.7 19.45 19.3 19.45 18.7 28.6 16.0 28.5 10.95 27.95 9.7 27.8 Q7.45 27.6 5.85 27.75 4.05 27.9 1.5 28.6 0.75 28.8 0.25 29.15 L0.25 19.45 M9.7 19.45 L9.7 27.8 9.7 19.45" fill="#121212" fill-rule="evenodd" stroke="none" />
      <path d="M9.7 27.8 L10.95 27.95 16.0 28.5 18.7 28.6 19.75 28.6 23.5 28.75 Q25.95 29.05 27.1 30.0 27.7 30.5 27.7 31.1 27.7 31.75 26.9 32.1 L25.6 32.3 18.45 32.45 12.85 32.15 9.7 31.75 7.95 31.6 3.1 31.95 0.95 32.3 0.25 32.1 -0.35 31.55 -0.5 31.3 -0.5 29.9 0.25 29.15 Q0.75 28.8 1.5 28.6 4.05 27.9 5.85 27.75 7.45 27.6 9.7 27.8 L9.7 31.75 9.7 27.8" fill="#999999" fill-rule="evenodd" stroke="none" />
      <path d="M2.8 0.0 L0.25 0.0 M9.7 0.0 L5.4 0.0 M21.55 0.0 L32.25 0.0 M20.55 0.0 L9.7 0.0" fill="none" stroke="#666666" stroke-linecap="round" stroke-linejoin="round" stroke-width="4.0" />
      <path d="M9.7 -0.4 L74.7 -0.4 74.7 40.5 47.05 40.5 45.5 40.7 27.0 40.65 25.95 40.5 9.7 40.5 -0.5 40.5 -0.5 -0.4 9.7 -0.4 9.7 40.5 9.7 -0.4" fill="#ffffff" fill-rule="evenodd" stroke="none" />
    </g>
    <g id="shape1">
      <path d="M52.2 18.5 L51.25 18.7 50.4 18.2 49.65 17.1 Q49.05 15.7 49.8 14.25 50.4 13.1 51.9 12.2 L52.55 11.75 52.7 11.0 Q52.65 10.2 52.15 9.5 L51.05 8.25 Q50.35 7.5 50.2 6.9 49.9 5.75 50.75 4.75 51.35 4.05 52.7 3.5 L53.2 3.4 Q53.6 3.5 53.65 3.7 53.85 4.05 53.15 4.5 52.15 5.15 52.15 5.75 54.75 7.5 55.25 9.6 L55.45 11.2 Q55.45 12.8 54.8 13.5 L53.7 14.25 52.6 14.95 Q52.15 15.3 52.15 15.75 L52.3 16.6 52.45 17.45 52.2 18.5 M47.35 3.9 L47.55 4.55 47.55 5.4 46.85 6.55 Q45.8 7.55 44.6 7.95 L44.4 8.75 44.3 9.1 44.45 9.4 Q44.65 9.75 44.45 9.95 44.25 10.2 43.9 10.1 L43.45 9.7 43.0 8.8 42.8 7.4 42.95 6.75 Q43.15 6.15 43.95 5.65 L45.2 4.75 45.35 4.5 44.85 3.25 Q44.6 2.6 44.75 1.9 L45.05 1.55 45.25 1.65 Q46.1 2.05 46.65 2.8 L47.05 3.35 47.35 3.9 M14.95 34.05 Q13.15 33.6 12.3 32.65 L11.9 32.0 Q9.4 32.25 7.4 32.0 L5.8 31.5 Q5.0 31.05 4.85 30.25 4.7 29.25 5.6 28.6 6.05 28.25 7.35 27.8 10.0 27.1 13.6 26.75 20.2 25.95 24.55 26.7 25.35 26.8 25.75 27.2 L25.85 27.35 25.95 27.35 27.1 27.8 28.6 27.85 Q30.5 27.95 31.35 28.9 32.0 29.65 32.0 30.75 L31.9 31.55 35.8 31.75 36.75 31.95 Q37.4 31.5 38.6 31.35 L38.95 31.3 37.8 31.3 Q36.75 31.2 36.1 30.55 36.25 29.35 38.0 28.55 39.85 27.7 43.85 26.8 L44.7 26.6 40.4 27.45 38.65 27.75 Q37.6 27.65 37.2 26.9 36.8 26.0 37.5 25.2 L39.0 24.35 41.05 23.85 48.0 22.7 54.4 22.65 56.2 22.8 Q57.25 23.1 57.6 23.85 58.0 24.5 57.8 25.1 L59.95 25.15 Q61.7 25.25 62.35 25.8 L63.0 26.7 63.0 27.8 62.35 29.05 Q61.05 30.7 58.7 31.85 L54.3 33.5 52.35 34.05 52.6 34.1 54.75 34.2 56.9 34.3 59.9 34.95 62.9 35.75 Q64.4 36.05 64.7 36.8 64.9 37.25 64.7 37.75 L64.05 38.55 Q63.35 39.0 62.1 38.9 L59.65 38.4 53.75 36.45 51.25 35.75 49.95 35.2 48.85 36.1 Q47.0 37.15 44.1 37.35 L36.5 36.8 36.25 36.7 35.0 37.0 24.3 37.35 Q22.65 37.15 21.8 36.6 L20.9 35.6 20.7 34.9 15.9 36.15 10.3 38.25 Q7.7 38.85 6.45 39.35 L4.45 39.85 Q3.35 39.75 3.0 38.7 2.65 37.65 3.45 36.85 3.95 36.4 5.05 36.2 L11.3 35.25 14.9 34.9 17.25 34.5 14.95 34.05 M65.9 33.35 L64.8 33.25 62.85 33.3 61.4 33.05 Q60.8 33.05 60.7 32.8 L60.7 32.55 60.95 32.35 61.55 32.25 63.5 31.85 68.2 30.85 68.9 30.75 69.75 30.25 71.6 30.1 72.6 30.85 Q73.3 31.85 72.5 32.9 71.75 33.85 70.6 33.75 L69.4 33.55 67.15 33.3 65.9 33.35 M66.0 26.15 Q66.1 25.65 66.5 25.2 66.8 24.95 67.3 24.85 68.7 24.55 69.4 25.4 69.85 26.1 69.6 26.75 69.35 27.5 68.6 27.65 L67.3 27.55 66.3 27.15 Q65.9 26.75 66.0 26.15 M21.4 12.45 Q21.35 12.9 21.75 13.3 L22.5 13.85 Q23.45 14.45 23.75 15.3 L23.85 16.7 23.65 17.75 Q23.4 18.4 22.35 19.15 L21.2 19.7 Q20.35 19.8 20.1 19.1 19.9 18.55 20.65 17.7 21.4 16.75 21.15 16.2 L20.6 15.65 19.5 14.5 19.05 13.5 Q18.9 12.75 19.15 12.0 19.7 10.2 21.4 9.45 L22.5 8.85 23.0 8.1 23.15 7.55 23.0 6.8 Q22.6 5.7 21.75 5.0 L20.9 4.2 Q20.75 3.8 20.95 3.4 21.2 3.0 21.6 2.95 L22.55 3.15 23.45 3.6 24.2 4.5 Q25.1 5.9 25.15 7.1 25.3 8.25 24.65 9.4 L23.7 10.5 22.6 11.05 Q22.0 11.45 21.75 11.75 L21.4 12.45 M19.15 23.4 L20.3 23.5 Q20.95 23.75 21.15 24.25 21.45 25.2 20.45 25.8 L18.65 25.95 17.7 25.8 16.75 25.3 Q16.5 25.0 16.55 24.55 16.6 24.15 16.9 23.9 17.2 23.7 17.6 23.6 L19.15 23.4 M15.55 14.55 L16.1 15.05 16.4 15.8 Q16.7 16.75 16.45 17.3 L15.7 18.35 Q14.9 19.25 14.8 19.8 L14.7 21.1 14.5 21.45 13.95 21.55 Q13.0 21.5 12.6 20.15 12.35 19.0 12.95 18.0 L14.35 16.3 13.65 15.35 13.1 14.9 Q12.55 14.35 12.35 13.55 12.15 12.7 12.45 12.0 L13.35 10.75 13.95 10.3 14.45 10.05 15.6 10.0 16.0 10.45 Q16.15 10.8 15.95 11.0 15.8 11.2 15.15 11.4 14.5 11.65 14.15 12.2 L13.95 12.8 14.3 13.4 14.9 13.85 15.55 14.55 M7.8 24.55 L7.95 24.5 Q8.75 24.7 8.75 25.35 L8.7 25.6 8.5 26.0 8.2 26.2 7.75 26.2 Q7.45 26.15 7.25 25.9 L7.1 25.35 Q7.1 24.75 7.8 24.55 M16.55 38.7 Q16.4 37.6 17.35 37.05 L18.35 36.9 Q18.9 37.0 19.3 37.45 19.7 37.95 19.65 38.5 19.65 39.05 19.2 39.5 18.75 39.95 18.2 40.0 L17.1 39.65 Q16.65 39.25 16.55 38.7" fill="#999999" fill-rule="evenodd" stroke="none" />
      <path d="M37.6 12.4 Q37.9 12.85 38.9 13.15 L41.5 13.65 Q43.05 13.95 44.0 14.35 45.35 14.9 46.55 16.05 48.5 17.95 48.3 20.1 L47.95 21.25 Q51.4 22.4 53.25 24.45 54.15 25.45 54.4 26.4 54.95 28.65 52.55 30.95 49.2 34.05 42.15 34.7 38.15 35.05 34.2 34.75 L34.0 34.75 28.7 34.5 Q26.25 34.1 24.55 33.0 22.5 31.75 21.9 29.6 21.45 28.0 22.15 26.3 22.75 24.7 24.1 23.5 25.4 22.4 27.55 21.5 26.75 20.0 27.25 18.45 27.85 16.45 30.2 15.55 L30.75 15.35 Q30.65 14.75 30.7 14.05 30.85 11.85 32.3 9.9 L33.8 8.4 35.4 7.25 Q36.05 6.9 36.6 6.85 37.35 6.45 38.0 6.5 38.65 6.6 39.1 7.15 39.5 7.7 39.3 8.25 L38.9 8.9 38.8 9.05 38.2 9.65 37.7 10.05 37.4 10.95 Q37.2 11.9 37.6 12.4" fill="#000000" fill-rule="evenodd" stroke="none" />
    </g>
    <g id="shape2">
      <path d="M-0.5 -0.4 L-0.5 -0.55 75.1 -0.55 75.1 -0.4 75.1 40.8 -0.5 40.8 -0.5 -0.4 Z" fill="none" stroke="#000000" stroke-linecap="round" stroke-linejoin="round" stroke-width="3.0" />
    </g>
  </defs>
</svg>