<svg xmlns="http://www.w3.org/2000/svg" xmlns:ffdec="https://www.free-decompiler.com/flash" xmlns:xlink="http://www.w3.org/1999/xlink" ffdec:objectType="frame" viewBox="39.95 7.40 75.60 41.35">
  <g transform="matrix(1.0, 0.0, 0.0, 1.0, 40.45, 7.95)">
    <use ffdec:characterId="1" height="42.7" transform="matrix(1.0, 0.0, 0.0, 1.0, 0.0, 0.0)" width="76.45" xlink:href="#shape0" />
    <use ffdec:characterId="434" height="42.35" transform="matrix(1.0, 0.0, 0.0, 1.0, 0.0, 0.0)" width="75.35" xlink:href="#shape1" />
    <use ffdec:characterId="3" height="44.35" transform="matrix(1.0, 0.0, 0.0, 1.0, 0.0, 0.0)" width="78.6" xlink:href="#shape2" />
  </g>
  <defs>
    <g id="shape0">
      <path d="M2.8 0.0 L2.8 -0.4 5.4 -0.4 5.4 0.0 9.7 0.0 9.7 19.45 9.7 0.0 20.55 0.0 19.3 19.45 9.7 19.45 0.25 19.45 0.25 0.0 2.8 0.0" fill="#ffffff" fill-rule="evenodd" stroke="none" />
      <path d="M0.25 19.45 L9.7 19.45 19.3 19.45 18.7 28.6 16.0 28.5 10.95 27.95 9.7 27.8 Q7.45 27.6 5.85 27.75 4.05 27.9 1.5 28.6 0.75 28.8 0.25 29.15 L0.25 19.45 M9.7 19.45 L9.7 27.8 9.7 19.45" fill="#121212" fill-rule="evenodd" stroke="none" />
      <path d="M9.7 27.8 L10.95 27.95 16.0 28.5 18.7 28.6 19.75 28.6 23.5 28.75 Q25.95 29.05 27.1 30.0 27.7 30.5 27.7 31.1 27.7 31.75 26.9 32.1 L25.6 32.3 18.45 32.45 12.85 32.15 9.7 31.75 7.95 31.6 3.1 31.95 0.95 32.3 0.25 32.1 -0.35 31.55 -0.5 31.3 -0.5 29.9 0.25 29.15 Q0.75 28.8 1.5 28.6 4.05 27.9 5.85 27.75 7.45 27.6 9.7 27.8 L9.7 31.75 9.7 27.8" fill="#999999" fill-rule="evenodd" stroke="none" />
      <path d="M2.8 0.0 L0.25 0.0 M9.7 0.0 L5.4 0.0 M21.55 0.0 L32.25 0.0 M20.55 0.0 L9.7 0.0" fill="none" stroke="#666666" stroke-linecap="round" stroke-linejoin="round" stroke-width="4.0" />
      <path d="M9.7 -0.4 L74.7 -0.4 74.7 40.5 47.05 40.5 45.5 40.7 27.0 40.65 25.95 40.5 9.7 40.5 -0.5 40.5 -0.5 -0.4 9.7 -0.4 9.7 40.5 9.7 -0.4" fill="#ffffff" fill-rule="evenodd" stroke="none" />
    </g>
    <g id="shape1">
      <path d="M24.9 38.75 L22.95 38.55 21.35 38.7 21.0 38.85 20.4 39.35 19.85 39.8 19.4 40.5 Q18.9 41.15 17.9 41.25 L16.65 41.3 Q15.75 41.2 15.35 40.5 L15.2 40.15 14.35 40.3 10.9 40.2 9.6 39.6 9.1 39.9 9.0 39.95 8.65 40.2 6.55 40.05 6.4 39.95 6.25 39.9 4.45 39.8 3.7 39.85 2.9 40.65 1.95 40.6 Q1.45 40.4 1.25 39.9 L1.25 38.95 1.45 38.0 1.4 36.9 1.2 35.75 1.05 33.1 Q1.0 31.45 0.6 30.5 L-0.1 29.2 -0.55 27.8 -0.3 26.15 Q-0.15 25.45 -0.15 24.05 L0.0 21.95 0.05 20.85 -0.1 20.0 -0.05 19.9 -0.45 19.1 -0.25 17.85 0.25 16.8 0.95 15.55 1.45 13.9 1.8 12.5 1.65 10.85 0.6 7.15 0.3 6.4 -0.15 6.15 -0.5 5.5 Q-0.6 4.6 0.2 4.25 L1.2 3.9 1.6 3.75 1.85 3.45 2.35 2.65 2.85 1.6 3.15 0.95 3.3 0.75 3.3 0.55 3.25 0.25 Q3.2 0.0 3.4 -0.2 L3.85 -0.35 Q4.1 -0.45 4.3 -0.15 L4.45 0.15 Q5.0 -0.3 5.6 0.15 L6.15 0.95 6.7 1.75 Q7.15 2.1 8.1 2.1 L9.55 1.9 10.05 1.75 11.75 0.5 12.1 0.25 12.1 0.2 12.15 0.15 12.25 0.05 12.35 0.0 12.45 -0.1 12.6 -0.15 12.7 -0.15 12.9 -0.2 13.1 -0.15 17.2 -0.15 18.15 -0.2 18.35 -0.2 18.65 -0.25 20.6 -0.25 22.85 -0.2 23.1 -0.2 23.4 -0.15 23.6 -0.15 23.85 -0.15 24.0 -0.1 24.3 -0.1 24.45 -0.1 24.75 -0.05 25.0 -0.05 30.55 0.0 32.5 0.0 33.2 0.0 33.95 0.0 36.3 0.0 36.9 0.05 37.2 0.05 37.4 0.05 37.55 0.1 37.65 0.1 Q37.15 0.95 37.7 2.05 38.05 2.6 38.7 2.9 L39.95 3.1 Q41.4 2.75 41.65 1.3 L41.55 0.25 41.65 0.2 41.85 0.2 42.25 0.15 42.5 0.15 42.7 0.15 42.8 0.1 42.9 0.1 43.05 0.05 43.3 0.05 43.9 0.05 44.05 0.0 44.2 0.0 44.35 0.0 44.6 -0.05 44.75 -0.05 44.8 -0.1 44.95 -0.1 45.05 -0.1 45.2 -0.15 45.35 -0.15 45.55 -0.15 45.75 -0.2 46.25 -0.2 46.3 -0.25 46.4 -0.25 46.6 -0.25 47.4 -0.3 48.3 -0.3 48.45 -0.3 49.05 -0.3 51.1 -0.3 53.35 -0.3 53.6 -0.3 53.8 -0.3 53.95 -0.25 54.1 -0.25 54.15 -0.25 Q53.85 0.05 53.75 0.5 53.5 1.2 53.75 1.85 54.0 2.5 54.6 2.9 L55.9 3.3 Q56.6 3.3 57.15 2.85 57.75 2.4 57.95 1.7 58.15 1.05 57.9 0.35 L57.45 -0.35 57.9 -0.05 58.1 0.1 59.8 0.2 60.55 0.3 61.1 0.25 61.75 0.35 63.5 0.3 65.2 0.45 65.45 0.6 66.0 0.15 67.3 0.1 67.4 0.15 68.2 0.25 68.65 0.05 69.1 -0.05 Q69.65 -0.65 70.5 -0.75 L71.85 -0.65 73.45 0.25 74.0 1.1 Q74.55 2.1 74.55 2.85 L74.3 5.65 Q74.55 6.25 74.3 6.85 L74.15 7.15 73.85 9.75 73.7 11.05 73.7 11.7 74.5 12.9 Q74.95 13.85 74.7 14.55 L73.9 15.7 Q73.4 16.35 73.2 17.4 73.15 18.1 73.4 19.05 L73.85 20.65 Q74.5 22.7 74.55 24.6 74.65 26.65 74.15 27.85 L74.45 28.15 Q74.95 28.7 74.55 29.45 L73.9 30.15 73.25 30.8 Q73.05 31.2 73.1 31.85 L73.25 32.95 73.45 33.9 73.9 35.3 Q74.15 36.1 73.85 36.7 73.55 37.25 72.85 37.4 L71.65 37.5 69.75 37.8 Q68.6 38.1 67.85 38.95 L67.0 39.8 65.25 40.15 62.3 40.1 61.5 40.25 59.3 40.0 56.35 40.05 53.35 39.95 51.6 39.35 Q48.0 38.15 44.45 39.4 L42.3 40.15 Q40.6 40.6 37.05 40.1 L36.35 39.9 35.95 39.9 34.55 39.25 31.4 39.5 Q29.4 40.3 28.3 40.1 L27.75 39.95 Q28.65 39.3 28.3 38.1 27.95 36.85 26.7 36.85 26.15 36.8 25.65 37.15 25.2 37.45 25.0 38.0 L24.9 38.75 M61.1 6.5 L60.95 7.1 61.2 6.4 61.1 6.5 M4.65 28.9 L4.45 29.55 Q4.25 30.0 4.45 30.7 L4.6 31.45 5.3 33.35 6.15 34.45 6.65 34.85 7.1 35.0 7.65 34.9 8.35 35.05 8.75 35.1 Q9.35 34.85 9.85 35.3 10.3 35.65 10.7 36.75 11.2 37.6 12.3 37.85 L14.25 37.9 Q15.5 37.75 16.5 37.25 17.65 36.7 18.2 35.7 L18.6 34.55 18.9 32.35 Q18.8 31.05 18.2 30.25 17.8 29.6 17.1 29.45 L15.55 29.3 Q14.9 29.25 14.65 28.9 L14.3 28.75 13.95 28.4 13.15 27.85 12.5 27.15 12.5 26.75 12.5 26.3 12.8 25.4 Q13.2 24.15 12.8 22.95 L12.6 22.35 Q12.5 21.7 13.1 21.4 L13.25 21.15 13.7 20.6 13.95 19.8 14.0 19.3 13.85 18.85 Q13.75 18.35 14.05 18.0 14.4 17.65 14.85 17.75 L15.3 17.9 16.7 17.55 17.2 17.25 18.35 16.0 Q18.75 15.6 19.15 15.6 L19.75 15.7 20.4 15.6 21.55 15.35 22.2 15.0 Q22.65 14.8 22.95 15.0 23.3 15.2 23.4 15.95 L23.35 16.9 23.1 17.2 22.9 17.6 21.55 19.3 Q20.15 21.05 20.1 22.85 L20.2 24.75 Q20.3 25.65 20.55 26.05 21.0 26.95 23.15 27.5 24.25 27.7 24.45 28.35 L24.4 29.15 24.2 29.9 24.5 30.95 Q25.1 32.45 25.95 32.75 L27.05 32.9 27.1 32.9 27.75 32.9 28.3 33.05 28.9 33.3 30.05 33.6 31.7 33.0 32.8 32.4 33.7 31.9 33.9 31.9 35.4 32.0 36.3 31.85 37.75 31.45 38.75 31.0 39.15 30.75 Q40.2 30.05 40.5 30.0 L40.55 30.0 Q40.85 29.4 41.65 29.5 L42.35 29.75 Q43.1 30.0 43.85 29.75 44.85 29.45 45.85 28.15 L46.65 27.1 Q47.55 25.7 47.45 23.85 L47.3 23.15 46.5 21.75 46.35 21.4 Q46.1 21.05 46.0 20.4 45.95 19.85 46.05 19.5 L45.9 19.25 45.55 18.5 45.15 17.45 Q45.0 16.95 45.25 16.4 45.6 15.85 46.15 15.85 L46.9 16.1 Q47.7 16.7 47.75 17.05 L47.75 17.5 48.05 18.8 48.1 18.95 49.7 20.65 49.95 21.55 49.95 22.7 49.95 23.7 50.05 24.05 50.6 24.0 51.9 24.95 52.9 25.85 53.5 26.2 54.85 26.55 55.7 26.6 56.75 26.5 56.95 26.55 Q57.35 26.4 57.75 26.55 L58.4 27.05 59.05 27.65 60.0 28.05 61.05 28.45 62.55 28.3 Q64.75 27.6 66.0 26.25 L66.65 25.3 67.3 22.8 Q67.6 21.4 67.0 19.95 66.4 18.6 65.2 17.55 64.45 16.95 63.7 16.75 63.0 16.55 61.8 16.75 L60.05 17.05 58.75 17.25 Q58.25 17.0 58.25 16.55 58.0 16.25 58.0 15.8 L58.3 14.6 58.3 13.8 Q58.05 12.2 57.2 11.05 L56.4 10.3 53.35 9.5 Q52.7 9.4 52.55 9.05 52.35 8.65 52.6 8.35 L52.45 8.05 52.3 7.65 Q52.05 7.15 51.4 6.7 L50.55 6.0 Q50.05 5.7 48.95 5.4 L48.25 5.25 46.35 5.35 Q46.15 5.35 45.9 5.5 L45.6 5.7 45.1 5.8 45.05 5.8 Q44.5 5.85 43.95 5.4 L43.1 4.9 42.3 4.8 41.0 4.9 40.3 5.2 39.7 5.6 38.95 6.25 Q38.5 6.7 38.1 6.75 L37.75 6.75 36.8 6.6 36.05 6.0 35.5 5.85 34.4 5.8 33.7 5.9 33.3 5.65 32.6 5.45 31.85 4.8 31.2 4.55 30.25 4.45 29.5 4.6 Q28.1 4.9 27.5 5.4 L26.9 5.85 25.8 5.7 25.65 5.5 25.6 5.5 24.65 5.05 22.25 4.85 21.3 5.0 20.45 5.4 19.15 6.15 18.6 6.55 17.65 7.35 17.1 7.3 16.9 7.35 15.55 7.2 Q14.2 6.95 12.2 8.15 11.3 8.75 10.95 9.2 10.25 9.95 9.85 11.8 L9.55 12.8 Q9.1 13.35 8.5 13.25 L8.4 13.25 8.25 13.35 7.2 13.95 Q5.55 14.9 5.0 16.7 4.45 18.35 5.0 20.25 L5.15 21.55 4.3 22.3 Q3.6 22.65 3.45 23.0 L3.3 23.65 Q3.1 24.9 3.3 25.75 L4.05 27.55 4.35 28.2 4.5 28.65 4.65 28.9 M64.1 21.6 L64.25 22.75 63.65 23.7 Q63.15 24.05 62.55 24.05 61.9 24.05 61.5 23.65 61.05 23.3 60.95 22.65 60.85 22.05 61.1 21.55 61.6 20.65 62.65 20.65 63.65 20.65 64.1 21.6 M54.8 6.6 L54.75 6.85 Q54.75 7.55 55.4 7.75 56.05 8.0 56.5 7.45 56.85 6.9 56.5 6.3 56.0 5.7 55.45 5.95 55.25 5.95 55.15 6.1 54.9 6.25 54.8 6.6 M71.6 24.3 Q71.25 23.95 70.85 24.05 70.25 23.95 69.85 24.55 69.5 25.15 69.85 25.7 L70.0 25.95 Q70.45 26.45 71.1 26.3 71.8 26.15 71.95 25.45 72.1 24.75 71.6 24.3 M42.25 10.7 L40.8 10.75 Q40.2 10.45 40.1 9.75 40.05 9.25 40.35 8.8 40.65 8.35 41.15 8.25 L42.1 8.4 42.75 9.15 Q43.0 10.1 42.25 10.7 M48.0 8.9 Q49.1 8.8 49.7 9.75 50.3 10.7 49.7 11.6 49.1 12.55 48.05 12.45 47.4 12.4 46.9 11.85 46.45 11.35 46.45 10.7 46.45 10.05 46.9 9.5 47.35 9.0 48.0 8.9 M41.15 19.1 Q40.65 19.35 40.15 19.1 39.65 18.8 39.55 18.25 L39.55 17.9 39.95 17.25 40.65 17.0 Q41.55 17.1 41.7 17.85 41.85 18.65 41.15 19.1 M42.7 26.05 L41.65 26.0 40.85 25.35 Q40.6 24.85 40.7 24.3 40.75 23.75 41.15 23.4 41.55 23.05 42.15 23.0 42.75 23.0 43.15 23.3 L43.7 24.2 Q43.85 24.75 43.6 25.25 L42.7 26.05 M51.25 14.25 Q51.45 13.55 51.85 13.2 52.3 12.85 52.95 12.85 53.55 12.85 54.05 13.2 54.5 13.55 54.6 14.2 L54.45 15.35 53.55 16.1 Q52.95 16.3 52.4 16.1 L51.5 15.35 Q51.2 14.8 51.25 14.25 M54.5 22.2 Q53.8 21.8 53.7 21.0 53.6 20.15 54.35 19.75 L55.25 19.55 Q55.75 19.6 56.1 19.95 56.9 20.8 56.2 21.75 L55.45 22.25 54.5 22.2 M35.4 1.65 Q34.45 1.55 34.05 2.4 33.65 3.25 34.35 3.85 34.7 4.2 35.2 4.15 35.7 4.15 36.05 3.85 36.7 3.3 36.35 2.4 36.1 1.85 35.4 1.65 M62.3 34.55 Q61.9 34.5 61.55 34.8 61.2 35.1 61.1 35.55 60.95 36.45 61.9 36.85 L62.75 36.8 63.35 36.25 63.45 35.45 62.95 34.75 Q62.7 34.55 62.3 34.55 M68.3 32.55 Q67.5 33.7 68.25 34.85 69.0 35.95 70.4 35.7 L71.45 35.1 71.95 34.0 Q72.15 32.6 70.9 31.95 L69.5 31.8 Q68.75 31.95 68.3 32.55 M47.0 31.95 Q46.15 32.05 45.7 32.9 45.35 33.75 45.85 34.5 46.65 35.55 47.8 35.15 L48.65 34.45 48.9 33.4 Q48.85 32.75 48.25 32.25 L47.0 31.95 M40.3 36.4 Q39.75 36.65 39.85 37.35 39.95 38.0 40.55 38.15 41.25 38.3 41.55 37.75 41.95 37.25 41.6 36.7 L41.3 36.4 40.9 36.25 40.3 36.4 M50.6 28.4 L50.5 28.25 49.95 27.95 49.85 28.0 Q49.4 28.0 49.25 28.4 49.05 28.8 49.3 29.1 49.55 29.45 49.9 29.45 50.55 29.55 50.65 28.9 L50.6 28.4 M35.95 10.25 L36.4 10.85 Q36.75 11.6 36.25 12.25 L35.35 12.85 34.3 12.7 33.65 11.9 Q33.5 11.3 33.7 10.8 33.95 10.3 34.45 10.1 L35.5 10.0 35.95 10.25 M29.85 8.35 L30.8 8.45 31.65 9.3 31.8 10.5 Q31.6 11.15 31.05 11.5 30.5 11.9 29.9 11.8 29.25 11.75 28.8 11.2 28.35 10.7 28.35 10.1 28.35 9.45 28.8 8.95 29.2 8.45 29.85 8.35 M23.85 10.85 Q23.15 11.85 21.95 11.4 21.45 11.2 21.15 10.7 20.85 10.25 20.9 9.7 21.0 8.55 22.1 8.2 23.3 7.95 23.95 8.9 L24.2 9.9 23.85 10.85 M27.8 15.8 L27.85 15.35 Q28.0 14.45 29.05 14.25 29.5 14.2 29.95 14.5 L30.5 15.2 30.5 16.1 29.95 16.8 29.1 17.05 28.25 16.7 Q27.9 16.35 27.8 15.8 M24.35 22.05 Q24.45 21.35 25.05 21.0 25.7 20.7 26.35 21.0 27.25 21.35 27.15 22.35 27.05 23.1 26.35 23.45 L24.95 23.3 Q24.25 22.9 24.35 22.05 M37.7 16.2 Q36.9 16.35 36.35 15.65 35.85 14.95 36.15 14.2 36.4 13.45 37.2 13.2 37.7 13.05 38.15 13.2 38.85 13.45 39.1 14.1 39.35 14.8 38.95 15.4 L38.25 16.05 37.7 16.2 M35.85 19.9 L36.1 20.55 36.45 21.05 Q36.9 21.75 36.25 22.3 35.95 22.6 34.75 22.7 L33.8 22.75 32.55 22.45 31.65 21.95 Q31.15 21.55 31.25 21.1 L31.6 20.5 32.05 19.95 32.4 19.45 32.8 19.0 34.1 19.1 35.05 19.35 35.85 19.9 M11.9 6.0 L12.05 5.9 12.1 5.8 12.2 5.7 Q12.35 5.45 12.15 5.1 L12.05 4.95 11.6 4.75 11.6 4.8 Q11.25 4.7 11.05 5.1 L10.95 5.3 Q10.9 5.65 11.2 5.9 L11.4 6.05 11.9 6.0 M16.15 5.05 L17.0 4.8 17.55 4.05 Q17.8 3.05 17.0 2.5 L15.3 2.55 Q14.5 3.2 14.85 4.15 15.1 4.75 15.6 4.95 L16.15 5.05 M16.95 13.25 Q16.7 14.0 16.0 14.15 14.95 14.4 14.45 13.5 14.25 13.15 14.3 12.65 14.35 12.15 14.65 11.85 15.0 11.5 15.5 11.45 L16.35 11.65 16.95 12.35 16.95 13.25 M7.2 10.65 Q6.95 9.9 6.15 9.8 L6.1 9.85 Q5.6 9.85 5.3 10.2 5.0 10.6 5.05 10.95 4.95 11.65 5.65 12.0 6.3 12.3 6.9 11.8 7.45 11.35 7.2 10.65 M5.9 7.75 Q6.35 7.25 6.4 6.45 6.4 5.7 6.0 5.15 5.6 4.6 4.9 4.35 4.15 4.15 3.5 4.35 L2.4 5.15 Q1.95 5.8 2.0 6.5 2.0 7.2 2.45 7.75 L3.65 8.55 4.9 8.5 5.9 7.75 M9.55 19.1 L9.1 18.65 8.9 18.0 Q9.0 17.15 9.7 16.85 10.55 16.6 11.05 17.2 11.6 17.85 11.2 18.6 10.85 19.35 10.0 19.25 L9.55 19.1 M3.4 18.0 Q3.8 17.7 3.8 17.2 3.8 16.65 3.35 16.4 L2.8 16.2 2.7 16.25 2.4 16.3 Q1.8 16.55 1.8 17.2 1.8 17.85 2.35 18.1 L3.4 18.0 M10.3 23.1 L10.25 23.65 9.95 24.25 9.1 24.75 8.1 24.65 Q7.6 24.4 7.4 23.9 7.2 23.4 7.35 22.9 7.45 22.4 7.9 22.1 L8.9 21.8 Q9.4 21.85 9.8 22.2 10.25 22.6 10.3 23.1 M18.4 23.1 Q17.7 22.7 16.95 23.1 16.25 23.45 16.25 24.3 16.25 25.25 17.1 25.6 17.95 26.0 18.65 25.3 19.3 24.65 18.95 23.8 L18.4 23.1 M17.85 20.95 Q18.3 20.95 18.55 20.6 18.95 20.2 18.65 19.6 18.4 19.1 17.8 19.1 17.15 19.1 17.0 19.7 16.9 19.9 16.95 20.05 L17.1 20.5 17.35 20.75 17.85 20.95 M8.25 29.05 Q8.95 28.35 9.75 28.9 L10.2 29.55 10.2 30.35 Q9.85 31.25 8.85 31.05 7.9 30.8 7.9 29.85 L7.95 29.6 8.25 29.05 M13.3 31.25 Q14.0 30.95 14.65 31.5 15.4 32.1 14.95 33.1 14.5 34.0 13.55 33.85 12.5 33.65 12.4 32.65 12.3 31.6 13.3 31.25 M5.05 37.5 Q4.8 38.2 5.2 38.75 L6.05 39.3 7.0 39.25 Q8.0 38.85 7.8 37.7 7.75 37.2 7.35 36.9 6.95 36.55 6.5 36.5 6.0 36.5 5.6 36.8 5.15 37.05 5.05 37.5 M35.1 26.15 Q35.85 25.5 36.8 25.75 37.75 26.0 38.1 26.95 38.3 27.6 38.0 28.25 L37.15 29.15 35.85 29.25 Q35.2 29.1 34.8 28.55 34.45 28.0 34.55 27.3 34.6 26.6 35.1 26.15 M30.65 28.8 Q29.95 29.4 29.1 29.0 28.3 28.55 28.45 27.6 28.55 26.7 29.55 26.5 30.55 26.4 30.95 27.25 31.3 28.15 30.65 28.8 M23.35 36.05 L23.2 35.85 22.75 35.6 Q22.25 35.5 21.95 35.9 21.6 36.25 21.75 36.7 21.9 37.35 22.6 37.35 L22.9 37.3 23.35 36.9 Q23.6 36.5 23.35 36.05 M34.2 35.05 L33.1 34.95 Q32.5 35.2 32.35 35.7 32.15 36.2 32.35 36.7 L33.05 37.35 34.0 37.4 34.7 36.75 34.75 35.8 34.2 35.05" fill="#717171" fill-rule="evenodd" stroke="none" />
      <path d="M37.65 0.1 L38.0 -0.4 Q38.45 -0.9 39.15 -1.0 L40.45 -0.85 41.4 0.0 41.55 0.25 41.65 1.3 Q41.4 2.75 39.95 3.1 L38.7 2.9 Q38.05 2.6 37.7 2.05 37.15 0.95 37.65 0.1 M54.15 -0.25 L54.5 -0.6 55.75 -1.05 Q56.5 -1.1 57.05 -0.7 L57.45 -0.35 57.9 0.35 Q58.15 1.05 57.95 1.7 57.75 2.4 57.15 2.85 56.6 3.3 55.9 3.3 L54.6 2.9 Q54.0 2.5 53.75 1.85 53.5 1.2 53.75 0.5 53.85 0.05 54.15 -0.25 M27.75 39.95 L27.65 40.0 25.6 39.95 Q24.95 39.4 24.9 38.75 L25.0 38.0 Q25.2 37.45 25.65 37.15 26.15 36.8 26.7 36.85 27.95 36.85 28.3 38.1 28.65 39.3 27.75 39.95 M61.1 6.5 L61.2 6.4 60.95 7.1 61.1 6.5 M71.6 24.3 Q72.1 24.75 71.95 25.45 71.8 26.15 71.1 26.3 70.45 26.45 70.0 25.95 L69.85 25.7 Q69.5 25.15 69.85 24.55 70.25 23.95 70.85 24.05 71.25 23.95 71.6 24.3 M54.8 6.6 Q54.9 6.25 55.15 6.1 55.25 5.95 55.45 5.95 56.0 5.7 56.5 6.3 56.85 6.9 56.5 7.45 56.05 8.0 55.4 7.75 54.75 7.55 54.75 6.85 L54.8 6.6 M50.6 28.4 L50.65 28.9 Q50.55 29.55 49.9 29.45 49.55 29.45 49.3 29.1 49.05 28.8 49.25 28.4 49.4 28.0 49.85 28.0 L49.95 27.95 50.5 28.25 50.6 28.4 M40.3 36.4 L40.9 36.25 41.3 36.4 41.6 36.7 Q41.95 37.25 41.55 37.75 41.25 38.3 40.55 38.15 39.95 38.0 39.85 37.35 39.75 36.65 40.3 36.4 M47.0 31.95 L48.25 32.25 Q48.85 32.75 48.9 33.4 L48.65 34.45 47.8 35.15 Q46.65 35.55 45.85 34.5 45.35 33.75 45.7 32.9 46.15 32.05 47.0 31.95 M68.3 32.55 Q68.75 31.95 69.5 31.8 L70.9 31.95 Q72.15 32.6 71.95 34.0 L71.45 35.1 70.4 35.7 Q69.0 35.95 68.25 34.85 67.5 33.7 68.3 32.55 M62.3 34.55 Q62.7 34.55 62.95 34.75 L63.45 35.45 63.35 36.25 62.75 36.8 61.9 36.85 Q60.95 36.45 61.1 35.55 61.2 35.1 61.55 34.8 61.9 34.5 62.3 34.55 M35.4 1.65 Q36.1 1.85 36.35 2.4 36.7 3.3 36.05 3.85 35.7 4.15 35.2 4.15 34.7 4.2 34.35 3.85 33.65 3.25 34.05 2.4 34.45 1.55 35.4 1.65 M16.15 5.05 L15.6 4.95 Q15.1 4.75 14.85 4.15 14.5 3.2 15.3 2.55 L17.0 2.5 Q17.8 3.05 17.55 4.05 L17.0 4.8 16.15 5.05 M11.9 6.0 L11.4 6.05 11.2 5.9 Q10.9 5.65 10.95 5.3 L11.05 5.1 Q11.25 4.7 11.6 4.8 L11.6 4.75 12.05 4.95 12.15 5.1 Q12.35 5.45 12.2 5.7 L12.1 5.8 12.05 5.9 11.9 6.0 M5.9 7.75 L4.9 8.5 3.65 8.55 2.45 7.75 Q2.0 7.2 2.0 6.5 1.95 5.8 2.4 5.15 L3.5 4.35 Q4.15 4.15 4.9 4.35 5.6 4.6 6.0 5.15 6.4 5.7 6.4 6.45 6.35 7.25 5.9 7.75 M7.2 10.65 Q7.45 11.35 6.9 11.8 6.3 12.3 5.65 12.0 4.95 11.65 5.05 10.95 5.0 10.6 5.3 10.2 5.6 9.85 6.1 9.85 L6.15 9.8 Q6.95 9.9 7.2 10.65 M3.4 18.0 L2.35 18.1 Q1.8 17.85 1.8 17.2 1.8 16.55 2.4 16.3 L2.7 16.25 2.8 16.2 3.35 16.4 Q3.8 16.65 3.8 17.2 3.8 17.7 3.4 18.0 M17.85 20.95 L17.35 20.75 17.1 20.5 16.95 20.05 Q16.9 19.9 17.0 19.7 17.15 19.1 17.8 19.1 18.4 19.1 18.65 19.6 18.95 20.2 18.55 20.6 18.3 20.95 17.85 20.95 M18.4 23.1 L18.95 23.8 Q19.3 24.65 18.65 25.3 17.95 26.0 17.1 25.6 16.25 25.25 16.25 24.3 16.25 23.45 16.95 23.1 17.7 22.7 18.4 23.1 M5.05 37.5 Q5.15 37.05 5.6 36.8 6.0 36.5 6.5 36.5 6.95 36.55 7.35 36.9 7.75 37.2 7.8 37.7 8.0 38.85 7.0 39.25 L6.05 39.3 5.2 38.75 Q4.8 38.2 5.05 37.5 M34.2 35.05 L34.75 35.8 34.7 36.75 34.0 37.4 33.05 37.35 32.35 36.7 Q32.15 36.2 32.35 35.7 32.5 35.2 33.1 34.95 L34.2 35.05 M23.35 36.05 Q23.6 36.5 23.35 36.9 L22.9 37.3 22.6 37.35 Q21.9 37.35 21.75 36.7 21.6 36.25 21.95 35.9 22.25 35.5 22.75 35.6 L23.2 35.85 23.35 36.05" fill="#ffffff" fill-rule="evenodd" stroke="none" />
      <path d="M60.75 24.55 Q61.35 25.0 62.1 25.0 L63.2 24.45 64.15 22.85 Q64.4 21.85 64.05 20.95 63.9 20.4 63.4 20.0 L61.9 19.8 60.35 19.65 Q59.8 20.35 59.7 22.3 L59.9 23.55 60.75 24.55 M47.65 15.2 L46.4 15.1 44.75 14.2 44.0 13.25 42.95 14.15 41.8 14.3 41.45 14.35 41.4 14.7 41.4 14.75 41.6 14.75 42.4 14.8 43.3 15.35 44.2 16.25 44.45 16.9 Q44.9 18.2 44.5 19.3 L44.15 19.95 45.15 20.7 45.9 21.35 Q46.5 22.0 46.65 23.0 L46.65 24.85 Q46.4 26.95 45.3 27.9 L44.45 28.4 43.25 28.9 41.25 28.75 40.25 28.35 40.05 28.75 39.6 29.45 Q38.9 30.45 37.6 30.85 L35.15 31.0 Q34.25 30.8 33.85 30.45 L33.5 30.15 32.7 31.35 32.15 31.95 31.15 32.5 28.4 32.95 Q27.75 32.9 27.05 32.45 L25.9 31.45 25.5 30.65 Q24.7 28.75 25.3 27.25 L24.1 27.15 22.75 26.8 21.9 26.1 Q21.1 25.4 20.95 24.8 L20.9 23.9 Q21.0 20.8 21.75 19.5 22.55 18.25 23.9 17.7 L24.3 17.6 24.25 17.15 24.2 16.1 Q24.2 14.45 25.05 13.15 L25.9 12.15 25.75 11.9 25.2 12.45 23.7 13.75 Q22.75 14.45 21.85 14.5 L21.1 14.55 20.05 14.6 Q19.5 14.45 19.15 14.1 L18.9 13.9 18.5 14.9 17.55 15.9 16.2 16.8 14.65 17.15 13.75 17.25 13.55 17.2 13.45 17.65 12.95 19.65 11.8 21.35 11.95 21.6 12.2 22.5 12.35 23.2 12.4 23.9 Q12.3 25.1 11.85 26.05 L11.5 26.65 12.15 27.35 12.45 28.0 Q12.9 28.85 12.95 29.65 L12.95 30.0 13.6 29.75 14.1 29.4 Q14.65 29.25 15.15 29.4 L16.1 29.85 16.65 30.2 Q17.6 30.85 17.9 32.75 L17.9 33.7 Q17.8 35.1 16.7 36.0 L15.65 36.6 13.7 37.15 13.1 37.15 12.4 36.95 11.1 36.35 Q10.55 35.9 10.15 34.75 L10.05 34.35 10.05 33.95 9.75 34.05 8.9 34.15 Q7.55 34.25 6.6 33.5 L5.7 32.3 5.45 31.85 5.35 30.85 5.4 29.95 5.5 29.35 5.8 28.75 6.3 27.95 5.4 27.3 Q4.95 26.95 4.75 26.1 L4.45 24.65 4.65 23.55 5.45 22.0 6.05 21.45 6.95 20.9 6.85 20.8 Q6.15 19.6 6.05 18.85 5.9 17.9 6.35 16.7 6.85 15.65 7.55 14.85 L8.0 14.35 Q8.85 13.6 10.25 13.4 L10.7 13.35 10.7 12.7 10.75 11.9 Q10.9 10.95 11.55 9.95 L11.95 9.5 12.8 8.85 13.75 8.35 Q15.3 7.65 16.95 7.9 L17.95 8.2 18.45 8.6 18.85 7.85 19.6 6.95 Q20.25 6.4 21.35 5.95 L23.6 5.6 Q24.5 5.75 25.5 6.55 L26.3 7.35 26.55 7.0 27.5 6.25 Q28.4 5.7 28.85 5.6 L29.7 5.6 31.05 5.65 31.8 5.95 Q32.45 6.35 32.6 7.05 L32.6 7.1 Q33.4 6.5 34.4 6.35 L35.5 6.3 37.0 6.8 37.95 7.45 38.0 7.3 38.55 6.5 Q39.0 6.05 40.2 5.55 L42.05 5.05 43.3 5.4 44.45 6.1 45.1 7.1 Q46.2 6.1 48.05 6.1 L49.05 6.25 49.65 6.55 50.45 7.15 51.3 8.1 52.05 9.25 52.35 10.2 53.0 10.2 54.0 10.3 54.9 10.45 Q55.5 10.7 56.15 11.45 L57.2 13.05 57.3 13.95 Q57.4 15.6 56.8 16.85 L56.95 16.9 58.55 18.4 58.7 18.6 Q59.55 17.85 60.65 17.55 L64.0 17.65 64.85 18.1 Q65.35 18.5 65.65 19.15 67.0 21.75 65.95 24.6 L65.6 25.3 64.6 26.35 64.0 26.75 63.1 27.1 61.75 27.45 Q60.25 27.7 58.95 26.8 57.85 26.1 57.4 25.05 L57.25 25.15 Q56.15 25.8 54.85 25.7 52.9 25.6 51.7 24.05 L51.15 23.2 50.85 22.55 50.7 21.95 Q50.55 20.7 51.0 19.65 L51.1 19.5 49.7 18.75 48.85 17.95 Q48.2 17.0 48.4 15.35 L48.45 14.95 48.2 14.95 47.65 15.2 M41.5 11.85 L42.15 12.05 Q42.5 12.0 42.7 11.6 L42.85 11.4 43.5 10.6 Q43.9 9.8 43.65 9.0 43.4 8.2 42.6 7.8 L41.05 7.6 Q40.25 7.85 39.8 8.6 39.35 9.35 39.55 10.15 39.9 11.45 41.15 11.7 L41.35 11.75 41.5 11.85 M48.25 12.65 L48.85 12.55 49.45 12.25 50.0 11.45 50.05 10.6 49.65 9.65 49.15 9.1 48.2 8.8 47.3 8.85 Q46.75 9.05 46.45 10.0 46.2 10.95 46.3 11.3 L46.5 11.85 47.2 12.45 48.25 12.65 M39.25 19.45 L39.6 19.75 39.95 20.1 41.1 20.3 Q41.7 20.25 42.1 19.85 L42.7 18.9 42.7 17.95 Q42.7 17.3 42.2 16.9 41.65 16.35 40.8 16.7 L40.85 16.75 40.7 16.75 Q39.8 16.9 39.3 17.8 L39.1 18.6 39.25 19.25 39.25 19.45 M42.3 22.65 L41.05 22.95 Q40.45 23.15 40.1 23.8 L39.8 24.35 39.75 24.6 39.95 24.9 Q39.95 25.5 40.4 26.0 40.85 26.55 41.65 26.7 L43.0 26.45 43.25 26.3 43.4 26.2 Q43.95 25.9 44.1 25.3 L44.25 24.15 44.1 23.5 43.1 22.85 42.3 22.65 M53.15 12.8 L52.3 12.9 52.1 12.9 51.55 13.75 51.5 13.8 50.95 14.5 Q50.65 15.05 50.95 16.1 51.45 16.65 52.85 16.65 L53.35 16.6 53.85 16.3 Q55.0 15.3 54.85 14.0 54.75 13.2 54.2 12.9 L53.15 12.8 M57.25 20.5 Q57.15 19.95 56.5 19.5 L55.95 19.25 55.7 19.25 55.0 19.15 54.75 19.2 54.6 19.15 54.25 19.35 54.0 19.5 53.75 19.55 53.75 19.65 53.55 19.8 Q52.75 20.7 53.15 21.8 53.55 22.9 54.75 23.05 55.85 23.2 56.5 22.45 L56.55 22.4 56.6 22.35 57.05 21.65 57.1 21.55 57.1 21.45 57.25 20.6 57.25 20.5 M30.95 8.95 L31.4 8.3 31.1 8.0 30.3 7.85 29.3 7.95 Q28.55 8.2 28.25 8.8 L28.05 9.45 28.0 10.15 28.35 11.05 28.95 11.0 30.2 11.2 Q30.4 10.0 30.95 8.95 M35.8 9.35 L34.8 9.4 34.7 9.4 Q33.9 9.4 33.25 10.05 32.6 10.7 32.55 11.55 32.5 12.4 33.1 13.05 L33.6 13.5 33.65 13.55 34.15 13.75 34.55 13.85 34.65 13.85 35.45 13.75 36.5 12.95 Q37.3 11.9 36.8 10.8 L36.6 10.35 Q36.35 9.55 35.8 9.35 M21.25 12.3 L21.6 12.55 21.95 12.45 23.2 11.5 24.1 10.7 24.7 9.55 Q24.8 8.8 24.4 8.3 23.7 7.3 22.25 7.8 21.4 8.1 20.8 8.95 20.25 9.75 20.15 10.7 20.15 11.55 20.5 11.85 L21.25 12.3 M27.95 17.5 L29.3 17.8 Q29.65 17.85 30.2 17.4 L30.75 16.85 30.9 16.15 30.75 14.75 30.55 14.45 29.1 13.95 Q28.15 13.8 27.6 14.7 27.2 15.35 27.3 16.4 27.5 17.25 27.95 17.5 M26.7 20.5 L25.45 19.65 25.3 19.75 24.6 20.35 Q24.2 20.8 24.0 22.05 L23.9 23.4 23.95 23.95 24.45 24.25 26.05 24.45 Q26.75 24.3 27.7 23.35 L28.0 22.4 28.05 22.05 27.9 21.65 27.6 21.3 27.4 20.7 26.7 20.5 M32.75 18.35 L32.2 18.95 30.8 20.05 30.05 20.4 30.1 20.65 Q30.45 21.65 30.4 22.35 L30.4 22.5 30.65 22.5 Q31.85 22.6 32.7 23.15 L33.75 24.1 34.1 23.65 Q34.95 22.95 36.0 22.8 L37.05 22.75 38.25 23.25 38.3 22.65 38.55 22.0 37.6 21.25 Q37.25 20.9 37.05 20.15 L37.05 18.9 36.55 18.9 35.75 18.85 34.85 18.55 34.3 18.0 33.85 17.7 33.4 16.75 33.25 16.25 33.05 16.2 Q33.15 17.7 32.75 18.35 M39.15 14.05 L38.35 13.75 38.3 13.95 37.6 15.05 36.45 15.9 36.55 15.95 36.95 16.25 37.35 16.3 38.65 15.95 Q39.05 15.5 39.5 15.25 L39.65 14.6 39.7 14.25 39.15 14.05 M13.65 12.15 Q13.35 13.05 13.7 13.85 14.1 14.75 15.05 14.85 16.2 15.0 16.9 13.95 17.4 13.2 17.5 11.9 L17.45 11.4 Q17.2 10.7 16.4 10.6 L14.9 10.85 Q14.2 11.25 13.95 11.55 L13.65 12.15 M11.05 16.2 L10.55 15.9 9.95 16.15 9.15 17.05 Q8.7 17.75 8.7 18.4 8.7 19.25 9.4 19.55 L10.25 19.9 10.45 19.95 10.6 19.85 Q11.55 18.85 11.6 17.55 L11.5 16.75 11.05 16.2 M8.45 25.55 L9.0 25.6 9.55 25.35 Q10.35 24.65 10.4 23.7 L10.35 23.25 10.0 22.9 9.1 22.2 8.85 22.2 8.3 22.55 Q7.8 22.8 7.6 23.0 L7.15 23.9 Q6.85 24.65 7.15 25.0 L7.6 25.25 7.95 25.5 8.45 25.55 M8.15 28.65 Q7.75 29.3 7.75 30.1 L7.8 30.4 8.0 30.65 8.3 31.05 8.6 31.4 9.45 31.2 Q10.5 30.6 10.6 29.95 10.7 29.55 10.4 28.75 L10.3 28.55 10.05 28.45 9.4 28.15 9.3 28.05 8.55 28.15 8.15 28.65 M14.05 34.45 L15.15 34.2 15.8 33.25 15.65 32.3 Q14.65 31.65 14.05 31.65 13.6 31.65 13.2 32.05 12.9 32.4 12.7 32.9 12.55 33.2 12.55 33.6 12.6 34.0 13.1 34.3 L14.05 34.45 M37.5 26.35 L37.3 25.95 36.85 25.65 36.45 25.3 35.85 25.35 Q34.95 25.6 34.35 26.4 L34.35 27.15 34.5 27.7 34.8 27.95 35.45 28.35 Q36.45 28.8 37.35 28.1 L37.7 27.6 Q37.9 27.1 37.5 26.35 M29.1 25.5 L28.1 26.4 28.05 26.65 27.75 27.3 27.65 28.15 Q27.65 28.9 28.05 29.35 28.65 30.0 29.95 29.7 L30.4 29.55 30.8 29.05 31.5 27.25 Q31.8 26.35 31.35 25.9 31.1 25.65 30.5 25.55 L29.55 25.5 29.25 25.4 29.1 25.5" fill="#000000" fill-rule="evenodd" stroke="none" />
      <path d="M60.8 12.35 Q59.65 11.2 59.2 9.55 58.75 7.95 59.1 6.35 59.5 4.75 60.7 3.6 61.95 2.4 63.5 2.0 L64.85 1.8 65.8 1.75 66.65 1.8 68.0 2.0 Q69.55 2.4 70.8 3.6 72.0 4.75 72.4 6.35 72.75 7.95 72.3 9.55 71.85 11.2 70.7 12.35 L69.3 13.45 Q69.7 13.95 69.5 14.65 69.25 15.55 68.25 15.65 67.45 15.75 67.0 15.1 L66.4 15.85 65.7 16.1 65.1 15.85 Q64.6 15.55 64.5 15.1 64.05 15.75 63.25 15.65 62.25 15.55 62.0 14.65 61.8 13.95 62.2 13.45 L60.8 12.35 M63.45 11.4 L63.7 10.9 63.65 9.8 62.95 9.0 61.85 8.8 60.9 9.35 Q60.55 9.8 60.5 10.4 60.5 11.0 60.85 11.45 61.2 11.9 61.8 12.0 L62.9 11.9 63.45 11.4 M68.05 11.4 L68.6 11.9 69.7 12.0 Q70.3 11.9 70.65 11.45 L71.0 10.4 70.6 9.35 69.65 8.8 68.55 9.0 Q68.05 9.25 67.85 9.8 67.6 10.4 67.8 10.9 L68.05 11.4" fill="#ffffff" fill-rule="evenodd" stroke="none" />
      <path d="M63.45 11.4 L62.9 11.9 61.8 12.0 Q61.2 11.9 60.85 11.45 60.5 11.0 60.5 10.4 60.55 9.8 60.9 9.35 L61.85 8.8 62.95 9.0 63.65 9.8 63.7 10.9 63.45 11.4 M68.05 11.4 L67.8 10.9 Q67.6 10.4 67.85 9.8 68.05 9.25 68.55 9.0 L69.65 8.8 70.6 9.35 71.0 10.4 70.65 11.45 Q70.3 11.9 69.7 12.0 L68.6 11.9 68.05 11.4" fill="#717171" fill-rule="evenodd" stroke="none" />
    </g>
    <g id="shape2">
      <path d="M-0.5 -0.4 L-0.5 -0.55 75.1 -0.55 75.1 -0.4 75.1 40.8 -0.5 40.8 -0.5 -0.4 Z" fill="none" stroke="#000000" stroke-linecap="round" stroke-linejoin="round" stroke-width="3.0" />
    </g>
  </defs>
</svg>