<svg xmlns="http://www.w3.org/2000/svg" xmlns:ffdec="https://www.free-decompiler.com/flash" xmlns:xlink="http://www.w3.org/1999/xlink" ffdec:objectType="frame" viewBox="39.95 7.40 75.60 41.35">
  <g transform="matrix(1.0, 0.0, 0.0, 1.0, 40.45, 7.95)">
    <use ffdec:characterId="1" height="42.7" transform="matrix(1.0, 0.0, 0.0, 1.0, 0.0, 0.0)" width="76.45" xlink:href="#shape0" />
    <use ffdec:characterId="454" height="42.75" transform="matrix(1.0, 0.0, 0.0, 1.0, 0.0, 0.0)" width="77.0" xlink:href="#shape1" />
    <use ffdec:characterId="3" height="44.35" transform="matrix(1.0, 0.0, 0.0, 1.0, 0.0, 0.0)" width="78.6" xlink:href="#shape2" />
  </g>
  <defs>
    <g id="shape0">
      <path d="M2.8 0.0 L2.8 -0.4 5.4 -0.4 5.4 0.0 9.7 0.0 9.7 19.45 9.7 0.0 20.55 0.0 19.3 19.45 9.7 19.45 0.25 19.45 0.25 0.0 2.8 0.0" fill="#ffffff" fill-rule="evenodd" stroke="none" />
      <path d="M0.25 19.45 L9.7 19.45 19.3 19.45 18.7 28.6 16.0 28.5 10.95 27.95 9.7 27.8 Q7.45 27.6 5.85 27.75 4.05 27.9 1.5 28.6 0.75 28.8 0.25 29.15 L0.25 19.45 M9.7 19.45 L9.7 27.8 9.7 19.45" fill="#121212" fill-rule="evenodd" stroke="none" />
      <path d="M9.7 27.8 L10.95 27.95 16.0 28.5 18.7 28.6 19.75 28.6 23.5 28.75 Q25.95 29.05 27.1 30.0 27.7 30.5 27.7 31.1 27.7 31.75 26.9 32.1 L25.6 32.3 18.45 32.45 12.85 32.15 9.7 31.75 7.95 31.6 3.1 31.95 0.95 32.3 0.25 32.1 -0.35 31.55 -0.5 31.3 -0.5 29.9 0.25 29.15 Q0.75 28.8 1.5 28.6 4.05 27.9 5.85 27.75 7.45 27.6 9.7 27.8 L9.7 31.75 9.7 27.8" fill="#999999" fill-rule="evenodd" stroke="none" />
      <path d="M2.8 0.0 L0.25 0.0 M9.7 0.0 L5.4 0.0 M21.55 0.0 L32.25 0.0 M20.55 0.0 L9.7 0.0" fill="none" stroke="#666666" stroke-linecap="round" stroke-linejoin="round" stroke-width="4.0" />
      <path d="M9.7 -0.4 L74.7 -0.4 74.7 40.5 47.05 40.5 45.5 40.7 27.0 40.65 25.95 40.5 9.7 40.5 -0.5 40.5 -0.5 -0.4 9.7 -0.4 9.7 40.5 9.7 -0.4" fill="#ffffff" fill-rule="evenodd" stroke="none" />
    </g>
    <g id="shape1">
      <path d="M24.9 37.35 Q21.2 35.75 19.6 33.95 16.7 30.8 16.7 24.6 16.7 19.2 18.85 14.4 L18.7 13.85 18.65 13.75 18.65 13.65 18.15 12.55 17.75 10.95 17.5 10.45 16.65 7.3 16.4 6.35 16.05 4.0 16.25 2.8 16.65 2.3 17.0 2.05 17.45 1.9 18.65 2.0 20.8 2.75 22.45 3.5 25.15 4.9 26.4 5.55 Q30.05 3.25 34.7 2.65 L37.5 2.45 Q40.65 2.4 43.3 3.2 L45.1 3.85 Q46.7 4.55 48.35 5.8 L49.4 5.3 51.9 4.3 53.35 3.8 55.0 3.2 55.55 2.95 57.3 2.25 Q58.5 2.05 59.05 2.7 59.65 3.35 59.45 4.5 L59.25 5.3 55.65 14.35 55.9 14.95 Q56.55 16.45 56.9 19.05 57.5 23.9 56.2 28.25 54.75 32.95 51.35 35.75 46.1 40.05 35.5 39.65 L30.1 39.05 Q27.9 38.6 24.9 37.35" fill="#000000" fill-rule="evenodd" stroke="none" />
      <path d="M50.2 11.6 Q51.6 11.9 52.65 12.95 53.7 13.95 54.2 15.35 55.05 17.7 54.45 21.0 L53.7 23.25 Q52.4 25.65 49.0 26.55 L44.65 26.65 42.65 25.5 Q39.95 23.55 39.3 21.05 38.55 18.35 40.1 15.8 41.45 13.5 44.1 12.2 45.15 11.65 45.95 11.55 L48.15 11.45 50.2 11.6 M45.0 20.55 Q45.4 21.2 46.2 21.5 L47.7 21.6 Q48.4 21.4 48.95 20.8 49.5 20.15 49.55 19.4 49.65 18.65 49.2 17.95 48.8 17.25 48.1 16.9 L46.6 16.75 45.25 17.45 Q44.7 18.05 44.6 18.95 44.5 19.85 45.0 20.55 M42.15 35.35 Q41.95 36.0 41.25 36.35 L39.95 36.5 39.2 36.2 38.4 36.1 36.8 35.25 Q36.15 36.35 35.1 36.85 L32.75 37.0 Q31.2 36.4 30.85 34.4 30.65 32.95 31.25 31.1 31.9 29.15 32.85 28.15 33.35 27.65 33.85 27.4 34.65 26.85 35.45 26.7 35.2 25.55 35.45 25.05 35.75 24.4 36.55 24.2 37.25 24.1 37.85 24.7 L38.1 25.15 38.05 26.7 38.5 26.85 39.7 27.5 40.9 28.6 Q41.75 29.6 42.1 31.3 L42.3 34.25 42.15 35.35 M24.2 18.9 Q24.4 18.45 24.9 18.1 25.55 17.65 26.35 17.7 27.2 17.75 27.8 18.25 28.4 18.75 28.6 19.55 28.75 20.35 28.45 21.05 L27.4 22.15 Q26.65 22.55 25.85 22.4 25.1 22.3 24.55 21.65 24.0 21.05 23.9 20.3 23.8 19.5 24.2 18.9 M26.6 15.9 Q25.0 15.8 23.9 16.5 22.55 17.3 22.2 18.95 21.8 20.15 22.3 21.45 22.8 22.75 23.85 23.35 24.8 23.95 26.0 23.9 27.15 23.9 28.1 23.3 29.75 22.3 30.15 20.45 30.5 18.5 29.25 17.1 28.5 16.25 27.55 16.05 L26.6 15.9 M19.0 22.4 Q18.65 20.2 19.05 18.75 19.55 16.85 21.35 15.0 L23.1 13.45 Q24.5 12.5 26.2 12.25 L29.55 12.4 Q32.95 13.35 34.5 16.6 35.05 17.85 35.1 18.75 35.4 21.5 33.2 24.05 31.65 25.85 28.5 27.3 26.8 28.0 25.85 28.05 24.5 28.1 22.7 27.3 L20.7 26.05 Q19.45 24.95 19.0 22.4" fill="#ffffff" fill-rule="evenodd" stroke="none" />
      <path d="M45.0 20.55 Q44.5 19.85 44.6 18.95 44.7 18.05 45.25 17.45 L46.6 16.75 48.1 16.9 Q48.8 17.25 49.2 17.95 49.65 18.65 49.55 19.4 49.5 20.15 48.95 20.8 48.4 21.4 47.7 21.6 L46.2 21.5 Q45.4 21.2 45.0 20.55 M24.2 18.9 Q23.8 19.5 23.9 20.3 24.0 21.05 24.55 21.65 25.1 22.3 25.85 22.4 26.65 22.55 27.4 22.15 L28.45 21.05 Q28.75 20.35 28.6 19.55 28.4 18.75 27.8 18.25 27.2 17.75 26.35 17.7 25.55 17.65 24.9 18.1 24.4 18.45 24.2 18.9 M26.6 15.9 L27.55 16.05 Q28.5 16.25 29.25 17.1 30.5 18.5 30.15 20.45 29.75 22.3 28.1 23.3 27.15 23.9 26.0 23.9 24.8 23.95 23.85 23.35 22.8 22.75 22.3 21.45 21.8 20.15 22.2 18.95 22.55 17.3 23.9 16.5 25.0 15.8 26.6 15.9" fill="#000000" fill-rule="evenodd" stroke="none" />
      <path d="M6.15 -1.55 Q8.15 -2.45 9.7 -2.0 10.95 -1.75 11.25 -0.8 11.45 -0.2 11.15 0.45 L10.15 0.2 Q8.5 -0.05 6.7 0.7 4.2 1.85 3.7 3.95 L3.55 5.0 3.55 5.65 Q1.9 6.75 1.35 8.85 1.1 9.85 1.2 11.45 L1.3 12.4 Q1.5 13.5 2.25 14.3 L1.95 15.35 Q1.05 17.85 1.0 19.7 0.9 22.2 2.05 23.9 L2.8 24.95 3.25 25.95 3.2 25.95 2.35 26.35 Q1.2 27.25 0.7 28.4 0.3 29.35 0.1 31.05 L0.15 32.6 Q0.35 33.75 1.1 35.1 L1.6 35.85 Q2.5 37.1 4.55 37.7 L6.1 37.95 7.15 37.85 7.2 37.95 Q7.9 38.75 8.95 38.95 L10.95 39.0 11.7 38.9 12.35 38.7 14.1 37.7 14.3 37.55 15.7 38.75 16.4 39.15 17.35 39.55 19.5 40.0 20.55 39.95 20.6 40.25 20.6 40.6 3.75 40.6 2.0 39.95 1.75 39.8 0.8 40.1 0.1 39.95 Q-0.6 39.6 -0.35 38.85 L-0.15 38.4 -0.45 38.1 -0.45 5.6 -0.15 4.9 -0.45 4.55 -0.45 0.1 -0.25 -0.25 Q0.45 -1.2 1.6 -1.2 2.9 -1.2 3.4 -0.1 L3.5 0.15 3.55 0.2 Q4.65 -0.9 6.15 -1.55 M42.45 -1.1 L42.5 -1.1 Q42.25 -0.5 42.35 0.2 L42.4 0.4 41.8 0.05 Q41.4 -0.35 41.65 -0.75 L42.45 -1.1 M50.3 -1.5 L53.95 -1.9 Q55.6 -1.7 56.65 -0.85 L55.9 -0.9 53.4 -0.7 51.85 0.05 50.8 0.7 49.85 -0.15 48.6 -0.9 48.45 -0.95 50.3 -1.5 M59.4 -1.0 L61.8 -1.35 Q63.15 -1.25 64.0 -0.5 L64.45 -0.2 64.95 -0.25 Q67.65 -1.25 69.7 -0.85 L71.35 -0.25 Q71.55 -0.15 71.8 0.0 L71.9 -0.15 72.9 -0.75 74.0 -0.6 74.85 0.25 Q75.35 1.1 75.3 1.9 L75.1 2.75 Q75.8 3.9 75.95 5.75 76.1 9.45 74.0 12.1 75.6 14.6 75.05 17.45 L74.95 18.85 75.4 20.0 Q77.35 23.85 75.95 27.95 L74.55 30.65 74.15 31.2 74.75 31.9 Q75.25 32.6 75.4 33.55 75.75 35.4 75.05 37.3 74.35 39.1 72.95 40.4 L72.7 40.6 63.8 40.6 62.6 40.05 62.1 39.9 61.45 40.15 60.6 40.6 54.4 40.6 Q55.6 40.1 56.5 39.3 L57.55 38.35 58.3 37.55 59.65 36.95 60.7 37.75 Q62.1 38.6 64.4 38.85 L66.05 38.95 Q67.95 38.95 69.4 38.0 70.95 36.85 71.25 35.1 71.4 34.0 70.7 31.8 L70.4 30.9 70.65 30.75 Q72.5 29.7 73.2 27.6 L73.7 24.95 Q73.85 22.6 72.35 20.75 L71.6 20.0 71.75 19.6 Q72.35 18.05 71.6 15.55 L70.6 13.35 69.9 12.6 70.55 12.1 Q72.5 10.4 72.8 7.75 L72.75 6.6 72.45 5.55 71.65 4.1 Q70.75 2.85 69.05 2.4 L69.0 2.35 Q66.2 0.95 63.75 1.65 62.8 1.9 62.15 2.3 L62.15 2.35 61.9 2.1 61.05 0.8 Q60.15 -0.2 58.75 -0.55 L59.4 -1.0 M66.2 4.25 L66.95 4.6 67.7 5.1 Q68.4 5.8 68.45 6.35 L68.45 6.75 68.55 7.2 Q68.6 7.85 67.9 8.85 L67.55 9.3 66.9 9.8 66.35 10.05 65.85 10.1 64.8 10.05 64.3 9.9 63.85 9.65 62.75 8.7 Q62.2 7.95 62.2 7.35 L62.2 6.75 62.3 6.3 62.8 5.4 63.35 4.8 63.85 4.35 64.5 4.15 65.55 4.1 66.2 4.25 M63.8 6.9 L63.95 7.35 64.1 7.7 64.5 7.9 65.4 8.15 66.3 7.95 66.65 7.55 67.0 6.6 Q66.9 6.05 66.25 5.85 L65.15 5.75 64.6 5.7 64.3 5.9 63.95 6.35 Q63.8 6.6 63.8 6.9 M61.55 13.2 Q62.35 11.9 63.15 11.65 63.8 11.4 64.7 11.65 65.8 11.9 66.3 12.6 66.65 13.2 66.55 14.1 66.3 16.0 64.8 17.2 L64.6 17.45 64.6 17.65 65.85 22.05 66.25 23.6 Q67.1 23.7 67.85 24.5 68.6 25.25 68.65 26.15 L68.6 26.8 68.45 27.4 68.2 27.8 67.75 28.35 67.5 28.8 67.05 29.15 66.7 29.5 Q66.25 29.9 65.3 29.8 L64.4 29.65 63.3 28.9 63.05 28.4 62.6 28.55 61.55 28.9 Q60.95 28.9 60.45 28.45 60.0 27.95 59.95 27.35 L59.85 26.15 59.9 25.45 Q60.35 23.85 61.6 23.4 L60.9 21.6 Q60.1 20.0 60.0 19.05 L60.0 18.75 59.6 18.65 Q59.1 18.5 58.75 18.2 58.2 17.7 58.2 16.85 58.2 16.15 58.55 15.35 58.95 14.25 59.55 13.9 L61.15 13.8 61.2 13.85 61.55 13.2 M62.75 14.55 L62.45 15.35 62.2 15.6 61.7 15.7 61.5 15.55 61.25 15.4 61.15 15.3 Q60.35 14.85 59.75 15.55 59.2 16.1 59.45 16.95 L60.75 16.85 60.8 16.85 61.25 16.8 Q61.8 16.9 62.05 17.45 L62.2 18.15 Q62.3 19.25 62.85 20.75 L63.75 23.3 Q64.05 24.3 63.5 24.75 L63.05 25.0 62.5 25.2 Q62.0 25.55 61.8 26.7 L61.85 26.95 62.1 27.0 63.0 26.55 63.45 26.4 63.55 26.35 Q63.95 26.2 64.25 26.6 L64.35 26.8 64.55 26.9 65.65 27.2 66.25 26.35 66.35 26.05 66.05 25.7 65.6 25.5 Q65.1 25.3 65.0 24.9 L64.95 24.85 64.5 23.95 Q63.55 21.15 62.85 18.15 L62.65 17.6 62.35 16.9 Q62.2 16.4 62.55 15.95 L63.3 15.45 Q64.3 14.9 64.55 13.7 L64.55 13.4 64.3 13.15 Q63.75 12.9 63.2 13.45 62.95 13.75 62.75 14.55 M62.9 34.35 L63.3 34.9 Q63.45 35.3 63.2 35.55 L62.4 35.7 60.55 35.0 60.05 35.4 59.05 35.95 58.4 36.0 58.0 35.85 57.7 35.55 57.85 35.0 58.2 34.5 58.95 33.95 59.05 33.85 58.95 33.8 58.45 33.35 Q58.15 32.95 58.3 32.45 L59.0 31.95 Q59.35 31.95 59.85 32.25 L60.5 32.65 61.55 31.65 61.85 31.25 Q62.25 30.85 62.9 30.85 L63.55 31.1 63.9 31.7 63.85 32.4 63.45 32.9 63.1 33.2 62.35 33.6 62.2 33.75 62.9 34.35 M6.6 10.3 L8.4 9.25 8.05 7.55 8.05 7.35 Q7.9 6.25 8.2 5.1 L8.35 4.8 8.55 4.5 Q9.0 4.0 9.75 3.9 10.5 3.8 11.05 4.35 L11.35 4.7 11.6 5.2 11.7 6.8 11.7 8.2 11.75 8.5 11.9 8.85 12.05 10.0 12.45 11.4 12.75 12.6 14.3 21.25 14.3 22.25 Q14.05 22.95 13.35 23.05 12.65 23.1 11.65 22.2 L9.65 20.35 8.45 19.15 7.75 18.25 Q5.85 15.6 5.55 12.2 5.45 11.65 5.6 11.25 L6.6 10.3 M11.8 15.75 L10.2 11.2 Q9.75 11.45 9.25 11.65 L8.6 12.05 8.0 12.55 Q8.35 14.05 8.95 14.85 L9.4 15.5 9.75 16.15 10.6 17.3 12.6 19.4 11.8 15.75 M7.05 19.65 Q7.35 20.0 7.15 20.45 L6.7 21.1 6.3 21.5 6.75 22.25 7.1 22.8 7.1 23.4 6.05 23.5 5.1 22.5 4.7 22.75 3.9 23.05 3.2 22.55 Q3.0 22.1 3.25 21.7 L3.7 21.2 4.1 20.85 4.05 20.8 3.3 19.85 Q3.15 19.1 3.85 18.75 4.5 18.45 4.95 19.1 L5.25 19.65 5.4 19.9 5.9 19.6 7.05 19.65 M9.5 29.8 L9.75 29.7 10.5 29.7 11.05 29.8 11.5 29.8 12.25 30.25 Q12.5 30.65 12.35 31.1 L12.0 31.65 10.8 35.65 10.6 36.0 10.45 36.2 10.05 36.85 8.5 36.95 7.05 36.2 Q5.0 35.55 4.2 34.9 L2.85 33.8 Q2.35 33.15 2.75 32.5 L3.8 31.05 4.85 29.55 6.55 27.25 7.1 26.65 Q7.6 26.35 8.05 26.4 L8.8 27.0 8.85 27.6 8.8 30.0 9.5 29.8 M9.4 34.15 L9.9 32.65 10.05 31.9 8.8 32.3 8.3 32.4 8.25 32.4 8.15 33.15 7.95 33.75 9.4 34.55 9.4 34.15 M5.25 32.7 L6.85 33.3 6.75 32.85 6.7 31.0 6.7 30.65 5.25 32.7" fill="#717171" fill-rule="evenodd" stroke="none" />
    </g>
    <g id="shape2">
      <path d="M-0.5 -0.4 L-0.5 -0.55 75.1 -0.55 75.1 -0.4 75.1 40.8 -0.5 40.8 -0.5 -0.4 Z" fill="none" stroke="#000000" stroke-linecap="round" stroke-linejoin="round" stroke-width="3.0" />
    </g>
  </defs>
</svg>