<svg xmlns="http://www.w3.org/2000/svg" xmlns:ffdec="https://www.free-decompiler.com/flash" xmlns:xlink="http://www.w3.org/1999/xlink" ffdec:objectType="frame" viewBox="39.95 7.40 75.60 41.35">
  <g transform="matrix(1.0, 0.0, 0.0, 1.0, 40.45, 7.95)">
    <use ffdec:characterId="1" height="42.7" transform="matrix(1.0, 0.0, 0.0, 1.0, 0.0, 0.0)" width="76.45" xlink:href="#shape0" />
    <use ffdec:characterId="466" height="36.5" transform="matrix(1.0, 0.0, 0.0, 1.0, 0.0, 0.0)" width="69.65" xlink:href="#shape1" />
    <use ffdec:characterId="3" height="44.35" transform="matrix(1.0, 0.0, 0.0, 1.0, 0.0, 0.0)" width="78.6" xlink:href="#shape2" />
  </g>
  <defs>
    <g id="shape0">
      <path d="M2.8 0.0 L2.8 -0.4 5.4 -0.4 5.4 0.0 9.7 0.0 9.7 19.45 9.7 0.0 20.55 0.0 19.3 19.45 9.7 19.45 0.25 19.45 0.25 0.0 2.8 0.0" fill="#ffffff" fill-rule="evenodd" stroke="none" />
      <path d="M0.25 19.45 L9.7 19.45 19.3 19.45 18.7 28.6 16.0 28.5 10.95 27.95 9.7 27.8 Q7.45 27.6 5.85 27.75 4.05 27.9 1.5 28.6 0.75 28.8 0.25 29.15 L0.25 19.45 M9.7 19.45 L9.7 27.8 9.7 19.45" fill="#121212" fill-rule="evenodd" stroke="none" />
      <path d="M9.7 27.8 L10.95 27.95 16.0 28.5 18.7 28.6 19.75 28.6 23.5 28.75 Q25.95 29.05 27.1 30.0 27.7 30.5 27.7 31.1 27.7 31.75 26.9 32.1 L25.6 32.3 18.45 32.45 12.85 32.15 9.7 31.75 7.95 31.6 3.1 31.95 0.95 32.3 0.25 32.1 -0.35 31.55 -0.5 31.3 -0.5 29.9 0.25 29.15 Q0.75 28.8 1.5 28.6 4.05 27.9 5.85 27.75 7.45 27.6 9.7 27.8 L9.7 31.75 9.7 27.8" fill="#999999" fill-rule="evenodd" stroke="none" />
      <path d="M2.8 0.0 L0.25 0.0 M9.7 0.0 L5.4 0.0 M21.55 0.0 L32.25 0.0 M20.55 0.0 L9.7 0.0" fill="none" stroke="#666666" stroke-linecap="round" stroke-linejoin="round" stroke-width="4.0" />
      <path d="M9.7 -0.4 L74.7 -0.4 74.7 40.5 47.05 40.5 45.5 40.7 27.0 40.65 25.95 40.5 9.7 40.5 -0.5 40.5 -0.5 -0.4 9.7 -0.4 9.7 40.5 9.7 -0.4" fill="#ffffff" fill-rule="evenodd" stroke="none" />
    </g>
    <g id="shape1">
      <path d="M69.95 9.0 L69.25 9.5 Q68.5 10.05 67.55 9.95 66.35 9.95 65.5 9.0 64.95 8.4 64.75 7.55 64.6 6.7 64.85 5.9 65.5 4.2 67.35 3.95 L68.95 4.2 Q69.75 4.55 70.2 5.25 71.25 6.8 70.35 8.4 L69.95 8.9 69.95 9.0 M58.75 4.95 Q59.6 4.35 60.5 4.6 61.5 4.85 61.8 5.8 62.05 6.45 61.75 7.15 61.45 7.85 60.85 8.15 L59.5 8.3 Q58.8 8.1 58.4 7.5 58.0 6.9 58.1 6.15 58.2 5.4 58.75 4.95 M64.75 19.35 Q65.6 19.4 66.35 19.9 67.05 20.4 67.35 21.2 67.65 21.95 67.5 22.8 67.3 23.65 66.7 24.2 66.1 24.75 65.25 24.95 L63.65 24.8 62.4 23.75 Q61.95 23.05 61.9 22.2 L62.1 21.2 62.5 20.45 Q63.45 19.35 64.65 19.4 L64.75 19.35 M44.8 9.75 Q45.75 10.45 46.1 11.45 46.55 12.8 46.1 15.25 L46.8 16.85 48.0 18.45 49.05 20.2 Q49.7 21.6 49.0 23.05 48.25 24.55 46.8 24.95 45.9 25.15 44.8 24.95 L43.4 25.3 41.45 25.95 Q40.9 26.2 40.1 26.85 L37.2 29.15 34.75 30.85 Q33.15 31.65 31.9 31.6 L31.05 31.8 29.35 32.15 27.7 32.6 26.05 32.55 Q24.85 32.15 24.35 31.0 23.85 29.8 24.55 28.7 25.0 28.0 26.15 27.35 L26.45 27.15 27.05 26.5 Q27.95 25.3 28.0 24.5 L27.9 23.2 27.7 22.2 27.5 21.65 26.9 20.85 26.15 20.0 25.3 19.05 Q24.95 18.45 25.2 17.75 25.5 17.1 26.2 16.85 26.95 16.65 27.85 17.1 L29.35 17.95 30.15 18.35 Q32.45 18.7 34.5 16.75 35.85 15.4 37.1 12.45 L38.0 10.65 Q38.7 9.7 39.9 9.2 41.05 8.7 42.3 8.8 L43.4 9.0 44.8 9.75 M72.4 31.35 Q73.1 32.65 72.45 34.05 71.9 35.4 70.4 35.75 L68.3 35.55 Q67.3 35.05 66.85 34.0 66.2 32.4 67.15 31.05 68.1 29.6 69.85 29.7 71.6 29.8 72.4 31.35 M16.45 4.6 Q15.45 4.2 15.45 3.0 15.55 2.1 16.35 1.6 L17.45 1.45 Q18.0 1.6 18.4 2.0 L18.8 3.05 18.45 4.1 17.55 4.7 16.45 4.6 M3.65 15.4 Q3.8 15.0 4.05 14.75 4.7 14.05 5.75 14.2 6.75 14.45 7.15 15.35 7.5 16.3 7.05 17.0 L6.15 17.85 4.9 17.95 3.85 17.25 Q3.45 16.7 3.5 16.05 L3.65 15.4 M11.3 14.5 Q12.1 13.8 12.9 13.65 14.6 13.3 15.75 14.65 16.8 16.05 16.15 17.65 15.4 19.25 13.65 19.4 L12.35 19.2 Q10.95 18.55 10.65 17.15 10.25 15.7 11.25 14.55 L11.3 14.5 M7.7 28.4 Q7.6 27.7 7.95 27.05 L8.3 26.6 8.3 26.5 8.8 26.1 Q9.85 25.2 11.3 25.55 12.65 25.85 13.25 27.2 13.8 28.5 13.15 29.8 L12.45 30.75 Q11.25 31.85 9.75 31.4 L9.2 31.1 8.6 30.55 8.0 29.75 Q7.65 29.1 7.7 28.4 M5.1 37.6 L4.15 37.75 3.35 37.3 Q3.05 36.9 3.1 36.35 3.2 35.8 3.55 35.5 3.9 35.15 4.45 35.2 4.95 35.2 5.3 35.55 L5.6 36.05 Q5.95 37.0 5.1 37.6" fill="#717171" fill-rule="evenodd" stroke="none" />
      <path d="M69.15 23.35 L68.1 24.55 66.05 25.85 64.4 26.25 Q62.5 26.5 61.15 25.7 60.05 25.05 59.5 23.7 58.95 22.5 59.05 21.1 59.2 18.75 60.7 17.1 62.25 15.3 64.6 15.4 L66.5 15.85 Q67.8 16.35 68.55 17.2 L69.2 18.25 Q69.8 19.15 69.85 20.05 L69.65 21.75 69.15 23.35 M63.8 18.5 L62.6 19.25 Q62.1 19.8 62.0 20.5 61.65 22.0 63.0 23.0 L65.8 23.1 66.85 21.85 Q67.45 20.3 66.25 19.1 65.15 18.1 63.8 18.5 M21.75 23.75 Q20.1 22.75 19.1 21.1 L18.3 21.55 17.5 21.9 Q16.55 22.1 16.1 21.2 15.7 20.35 16.3 19.65 16.5 19.4 17.2 19.05 17.65 18.8 18.05 18.65 17.55 16.75 17.9 14.9 18.2 13.6 18.8 12.65 L18.2 11.25 18.05 10.2 Q18.2 9.2 19.15 8.95 20.1 8.7 20.75 9.4 L21.4 10.7 Q23.15 10.2 25.55 11.0 L27.45 11.6 Q28.5 11.85 29.3 11.6 30.45 11.25 31.8 9.35 L34.7 6.05 34.6 5.9 Q33.6 4.65 33.55 4.25 33.3 3.15 34.25 2.55 35.2 1.95 36.1 2.55 L36.8 3.35 37.2 4.0 37.85 3.6 Q40.15 2.35 42.8 2.3 45.55 2.25 47.7 3.55 49.35 4.5 50.4 6.05 L51.65 5.45 Q52.35 4.9 53.0 4.75 54.15 4.65 54.55 5.65 54.75 6.05 54.6 6.55 L54.1 7.35 53.65 7.6 52.65 8.25 51.6 8.8 Q52.0 10.6 51.5 12.35 51.15 13.55 51.25 14.0 L52.0 15.15 54.25 18.15 54.9 19.15 Q55.7 18.7 56.65 18.5 L57.75 18.5 Q58.8 18.75 58.9 19.8 L58.7 20.75 58.05 21.35 56.95 21.6 56.0 21.65 55.85 21.65 55.85 21.9 Q56.05 23.4 55.25 25.35 L55.05 25.9 55.25 26.15 55.95 26.8 56.7 28.0 Q56.8 28.65 56.3 29.05 55.75 29.5 55.1 29.35 54.75 29.25 53.55 28.3 L51.95 29.7 Q49.55 31.45 46.7 31.15 L44.65 30.9 Q43.65 31.0 42.55 31.85 L40.95 33.3 41.8 34.8 Q42.05 35.95 41.5 36.65 41.15 37.1 40.6 37.2 L39.5 37.1 38.7 36.4 38.25 35.5 38.15 35.35 Q36.45 36.2 34.4 36.75 L27.35 37.8 Q24.95 38.0 23.5 37.8 21.4 37.55 20.05 36.5 L19.85 36.3 19.35 36.4 19.15 36.6 18.75 36.9 18.55 37.15 Q17.95 37.75 17.15 37.6 16.35 37.45 16.0 36.7 15.75 35.9 16.15 35.25 L18.15 33.6 17.9 32.5 17.35 32.6 16.35 32.65 Q15.5 32.55 15.15 31.7 14.85 30.9 15.35 30.2 15.9 29.55 17.15 29.35 L17.95 29.3 Q18.2 27.75 18.95 26.45 20.0 24.6 21.75 23.75 M59.45 14.4 Q59.0 15.15 58.2 15.55 L56.45 15.85 Q55.6 15.8 54.85 15.2 54.15 14.65 53.85 13.85 53.3 12.2 54.35 10.9 55.4 9.55 57.1 9.7 58.8 9.85 59.55 11.4 60.25 12.9 59.45 14.4 M43.4 12.3 L43.5 12.6 43.35 14.2 42.75 15.05 42.4 15.3 Q41.25 16.2 39.9 15.6 38.55 15.05 38.3 13.6 38.05 12.15 39.1 11.2 40.15 10.2 41.55 10.55 42.95 10.95 43.4 12.3 M40.65 27.65 Q43.0 26.05 45.8 26.55 L48.0 26.75 Q49.3 26.5 50.6 24.75 51.3 23.7 51.35 22.85 51.35 21.85 50.65 20.9 L48.5 18.3 Q47.2 16.8 46.8 15.55 46.45 14.4 46.6 13.0 L46.95 11.1 Q47.1 10.0 46.8 9.3 46.25 7.55 43.8 7.15 41.7 6.75 39.7 7.8 38.55 8.4 37.35 9.7 L35.45 12.1 Q33.1 15.3 30.95 16.1 L27.75 16.0 Q26.4 15.25 25.0 14.75 23.55 14.2 22.6 15.2 21.75 16.8 22.65 18.35 L24.95 20.5 Q26.6 21.75 26.9 22.85 27.25 24.15 26.25 25.55 L24.05 27.5 22.85 28.55 Q22.55 28.95 22.35 30.0 21.95 31.85 22.5 32.7 23.3 33.85 25.75 33.65 33.65 33.25 37.55 30.2 L39.05 28.9 Q40.0 28.05 40.65 27.65 M41.75 23.4 Q41.3 22.95 41.3 22.2 41.4 21.3 42.2 20.9 L43.75 21.05 Q44.55 21.55 44.45 22.45 44.35 23.45 43.4 23.8 42.4 24.15 41.75 23.4 M52.25 36.65 Q51.3 37.0 50.65 36.25 49.95 35.5 50.4 34.6 50.85 33.65 51.85 33.75 52.9 33.75 53.15 34.75 53.35 35.3 53.1 35.85 L52.25 36.65 M60.25 35.15 Q59.15 34.35 59.05 33.0 59.0 32.2 59.5 31.45 59.95 30.7 60.7 30.35 L62.35 30.25 Q63.2 30.4 63.75 31.0 64.35 31.6 64.45 32.5 64.6 33.35 64.25 34.1 L63.1 35.3 61.5 35.6 60.25 35.15 M26.0 9.05 Q25.3 8.65 24.95 7.85 24.6 7.05 24.75 6.25 24.85 5.45 25.45 4.85 26.0 4.2 26.8 4.0 L28.4 4.05 Q29.2 4.35 29.7 5.0 L30.0 5.4 30.2 5.95 Q30.6 7.3 29.7 8.45 29.05 9.3 28.0 9.45 26.85 9.6 26.0 9.05 M28.1 20.5 Q28.2 19.75 28.8 19.3 L30.7 19.2 Q31.65 19.7 31.55 20.85 31.45 21.95 30.45 22.35 29.5 22.7 28.75 22.1 28.0 21.55 28.1 20.5 M33.75 18.55 Q34.35 17.5 35.55 17.65 36.7 17.75 37.25 18.8 L37.65 20.25 38.05 22.9 Q38.15 23.85 37.9 24.5 L37.3 25.5 Q36.2 26.9 33.25 28.3 L32.45 28.65 31.5 29.2 30.25 29.25 Q29.55 29.1 29.15 28.55 28.75 28.05 28.75 27.35 28.7 26.65 29.1 26.1 29.55 25.45 31.55 24.55 L33.3 23.45 33.75 22.95 33.7 22.15 33.55 20.2 Q33.45 19.15 33.75 18.55 M16.1 9.95 Q15.85 11.1 14.7 11.25 13.6 11.4 13.0 10.5 12.4 9.5 13.05 8.6 13.7 7.7 14.85 7.95 15.55 8.15 15.85 8.7 16.25 9.3 16.1 9.95 M9.0 24.55 Q8.35 24.85 7.9 25.45 6.95 26.75 7.45 28.25 8.05 29.85 9.65 30.15 11.35 30.5 12.45 29.3 L12.45 29.2 Q13.35 28.2 13.2 26.9 13.05 25.65 12.0 24.85 10.95 24.1 9.65 24.35 L9.0 24.55 M11.25 21.5 L12.7 22.0 Q13.85 22.55 14.2 22.85 15.15 23.6 15.55 24.8 15.95 25.95 15.75 27.2 L15.55 28.05 14.85 30.0 Q13.9 31.55 12.15 32.2 L8.65 32.6 7.35 32.3 Q5.3 31.55 4.75 29.4 4.6 28.8 4.6 28.05 4.7 25.9 5.6 24.35 6.4 22.95 7.95 22.05 9.6 21.15 11.25 21.5" fill="#000000" fill-rule="evenodd" stroke="none" />
    </g>
    <g id="shape2">
      <path d="M-0.5 -0.4 L-0.5 -0.55 75.1 -0.55 75.1 -0.4 75.1 40.8 -0.5 40.8 -0.5 -0.4 Z" fill="none" stroke="#000000" stroke-linecap="round" stroke-linejoin="round" stroke-width="3.0" />
    </g>
  </defs>
</svg>