<svg xmlns="http://www.w3.org/2000/svg" xmlns:ffdec="https://www.free-decompiler.com/flash" xmlns:xlink="http://www.w3.org/1999/xlink" ffdec:objectType="frame" viewBox="39.95 7.40 75.60 41.35">
  <g transform="matrix(1.0, 0.0, 0.0, 1.0, 40.45, 7.95)">
    <use ffdec:characterId="1" height="42.7" transform="matrix(1.0, 0.0, 0.0, 1.0, 0.0, 0.0)" width="76.45" xlink:href="#shape0" />
    <use ffdec:characterId="472" height="41.15" transform="matrix(1.0, 0.0, 0.0, 1.0, 0.0, 0.0)" width="75.4" xlink:href="#shape1" />
    <use ffdec:characterId="3" height="44.35" transform="matrix(1.0, 0.0, 0.0, 1.0, 0.0, 0.0)" width="78.6" xlink:href="#shape2" />
  </g>
  <defs>
    <g id="shape0">
      <path d="M2.8 0.0 L2.8 -0.4 5.4 -0.4 5.4 0.0 9.7 0.0 9.7 19.45 9.7 0.0 20.55 0.0 19.3 19.45 9.7 19.45 0.25 19.45 0.25 0.0 2.8 0.0" fill="#ffffff" fill-rule="evenodd" stroke="none" />
      <path d="M0.25 19.45 L9.7 19.45 19.3 19.45 18.7 28.6 16.0 28.5 10.95 27.95 9.7 27.8 Q7.45 27.6 5.85 27.75 4.05 27.9 1.5 28.6 0.75 28.8 0.25 29.15 L0.25 19.45 M9.7 19.45 L9.7 27.8 9.7 19.45" fill="#121212" fill-rule="evenodd" stroke="none" />
      <path d="M9.7 27.8 L10.95 27.95 16.0 28.5 18.7 28.6 19.75 28.6 23.5 28.75 Q25.95 29.05 27.1 30.0 27.7 30.5 27.7 31.1 27.7 31.75 26.9 32.1 L25.6 32.3 18.45 32.45 12.85 32.15 9.7 31.75 7.95 31.6 3.1 31.95 0.95 32.3 0.25 32.1 -0.35 31.55 -0.5 31.3 -0.5 29.9 0.25 29.15 Q0.75 28.8 1.5 28.6 4.05 27.9 5.85 27.75 7.45 27.6 9.7 27.8 L9.7 31.75 9.7 27.8" fill="#999999" fill-rule="evenodd" stroke="none" />
      <path d="M2.8 0.0 L0.25 0.0 M9.7 0.0 L5.4 0.0 M21.55 0.0 L32.25 0.0 M20.55 0.0 L9.7 0.0" fill="none" stroke="#666666" stroke-linecap="round" stroke-linejoin="round" stroke-width="4.0" />
      <path d="M9.7 -0.4 L74.7 -0.4 74.7 40.5 47.05 40.5 45.5 40.7 27.0 40.65 25.95 40.5 9.7 40.5 -0.5 40.5 -0.5 -0.4 9.7 -0.4 9.7 40.5 9.7 -0.4" fill="#ffffff" fill-rule="evenodd" stroke="none" />
    </g>
    <g id="shape1">
      <path d="M8.4 -0.75 L13.3 -0.75 13.45 -0.35 Q14.15 1.5 15.2 3.5 L15.55 3.8 15.95 3.75 16.05 3.7 Q18.0 2.85 20.15 2.6 L20.45 2.6 21.85 2.8 22.6 3.55 22.9 4.15 24.85 8.1 26.1 10.1 26.8 11.9 26.9 12.85 Q26.8 13.4 26.35 13.55 25.7 13.8 24.95 12.85 21.5 9.0 20.7 6.5 L16.85 8.0 16.25 8.25 Q14.85 8.95 14.1 8.85 12.8 8.7 11.65 6.6 L9.0 1.35 Q8.4 0.05 8.4 -0.7 L8.4 -0.75 M25.15 -0.75 L29.8 -0.75 30.2 0.65 30.8 1.65 31.6 3.3 32.1 4.45 32.35 5.3 32.5 6.1 32.75 6.75 Q32.85 7.3 32.5 7.65 32.1 8.05 31.65 7.95 L30.55 7.35 29.95 7.05 29.3 6.55 27.75 4.8 27.35 4.2 26.15 2.5 25.45 1.25 25.15 0.45 Q24.95 -0.2 25.15 -0.75 M41.55 -0.75 L46.35 -0.75 46.2 0.0 45.7 0.85 45.2 1.4 44.8 1.7 44.5 2.05 43.7 3.3 43.6 3.4 42.35 4.95 41.3 5.75 40.75 6.1 Q40.1 6.35 39.6 5.85 39.1 5.4 39.15 4.75 L39.25 4.15 39.4 3.15 39.7 2.5 39.7 2.45 41.55 -0.75 M57.3 -0.75 L59.15 -0.75 60.3 -0.1 62.15 2.15 66.45 -0.75 73.55 -0.75 73.5 -0.5 73.0 0.3 70.8 1.75 Q67.25 3.6 64.2 6.35 63.0 7.45 62.15 7.55 60.85 7.65 59.45 5.95 L59.15 5.55 58.05 4.1 57.3 3.5 56.7 3.65 Q55.2 4.3 52.6 5.85 L48.55 8.15 47.0 8.2 Q46.65 7.85 46.85 7.25 L47.45 6.45 48.2 5.7 Q50.75 3.35 56.05 -0.1 L57.3 -0.75 M74.75 7.4 L74.75 11.8 74.2 12.1 68.45 14.55 Q64.35 16.05 62.65 16.85 L60.9 17.55 Q59.85 17.75 59.1 17.15 L58.35 15.8 57.35 12.85 56.0 13.5 54.1 14.5 50.85 16.1 49.75 16.3 Q49.05 16.2 48.85 15.75 48.55 15.15 49.0 14.55 L50.0 13.75 56.9 9.15 58.0 8.45 58.5 8.3 Q59.7 8.15 60.6 9.4 L61.45 11.7 61.6 12.05 62.2 12.05 71.85 7.9 Q73.45 7.2 74.3 7.3 L74.75 7.4 M74.75 18.85 L74.75 23.85 74.1 24.05 Q68.85 25.55 64.2 27.4 L62.15 27.85 Q60.95 27.7 60.45 26.55 L60.2 25.5 60.05 24.45 59.8 24.0 59.2 23.95 57.0 24.45 53.15 25.25 51.8 25.35 Q50.95 25.25 50.8 24.6 50.55 24.0 51.1 23.45 L52.05 22.8 Q53.3 22.2 55.5 21.65 L57.1 21.25 58.95 20.65 Q60.35 20.15 61.05 20.25 62.3 20.5 63.3 22.4 L71.9 19.4 74.2 18.85 74.75 18.85 M74.75 35.25 L74.75 39.75 74.15 39.75 71.8 39.3 67.4 38.55 60.6 37.85 Q58.8 37.75 58.15 37.2 57.55 36.75 57.25 35.7 L56.85 33.85 53.85 33.1 Q52.05 32.55 51.0 31.85 L49.95 30.9 Q49.5 30.15 49.75 29.55 50.1 28.8 51.15 28.7 L52.85 28.9 55.85 29.4 56.95 29.4 58.7 29.45 Q59.7 29.55 60.3 29.95 61.3 30.55 61.55 31.8 L61.75 32.6 Q61.95 32.85 62.45 32.95 L68.45 34.0 74.4 35.15 74.75 35.25 M53.25 40.4 L49.2 40.4 48.95 40.2 Q48.05 39.45 47.1 38.95 L46.5 38.6 46.3 38.45 Q45.45 37.75 45.55 36.5 45.7 35.2 46.95 34.6 48.2 34.1 49.25 34.9 L50.0 35.6 50.6 36.35 51.3 37.35 52.1 38.4 53.05 39.9 53.25 40.4 M24.55 40.4 L21.85 40.4 21.65 39.7 21.85 38.85 22.15 38.2 22.5 37.75 23.25 36.55 23.25 36.5 23.6 35.95 Q24.0 35.3 24.65 34.95 L25.6 34.75 Q26.6 34.75 27.3 35.6 27.95 36.45 27.65 37.45 L27.3 38.25 26.7 38.9 25.75 39.6 24.55 40.4 M8.75 40.4 L-0.65 40.4 -0.65 38.75 -0.25 38.3 Q0.25 37.9 1.9 37.45 L13.55 35.05 13.4 33.4 Q13.5 32.45 14.15 31.95 14.65 31.5 16.1 31.4 L17.85 31.2 20.75 30.45 22.05 30.15 Q22.85 30.15 23.15 30.7 23.55 31.3 23.0 32.0 L22.0 32.8 19.55 33.9 17.35 34.5 17.35 36.2 Q17.45 37.2 17.15 37.75 16.8 38.5 15.55 38.95 L12.55 39.65 8.75 40.4 M-0.65 28.0 L-0.65 23.2 -0.1 23.05 Q0.75 22.9 2.75 23.7 5.9 25.05 9.3 25.65 9.75 24.0 10.5 22.5 11.25 21.3 11.75 21.0 12.45 20.6 13.2 20.75 14.0 20.9 14.5 21.5 L15.2 22.65 16.25 23.6 16.7 24.0 17.95 24.95 19.4 26.5 19.75 27.65 Q19.65 28.35 19.0 28.45 L18.15 28.15 16.9 27.55 15.95 27.05 13.95 25.75 13.45 27.1 13.1 28.5 Q12.6 30.25 11.45 30.7 L9.6 30.75 Q5.85 30.2 3.65 29.45 L0.95 28.5 -0.65 28.0 M-0.65 2.5 L-0.65 -0.45 -0.45 -0.75 3.1 -0.75 4.15 1.35 Q6.1 7.25 8.85 13.4 L10.15 12.5 11.4 11.45 Q13.05 10.2 14.35 10.85 15.0 11.15 15.7 12.2 L18.1 16.4 19.4 19.3 Q19.95 20.75 19.45 21.4 19.15 21.8 18.55 21.85 L17.5 21.6 16.95 21.15 16.1 20.1 13.1 15.55 10.2 18.05 8.85 19.05 Q7.5 19.55 6.2 18.25 5.55 17.55 4.85 15.75 L-0.3 3.4 -0.65 2.5" fill="#ffffff" fill-rule="evenodd" stroke="none" />
      <path d="M3.1 -0.75 L3.95 -0.75 4.1 -0.75 4.2 -0.75 4.7 -0.7 5.7 -0.7 6.55 -0.7 6.8 -0.7 7.05 -0.75 7.4 -0.75 7.8 -0.75 8.4 -0.75 8.4 -0.7 Q8.4 0.05 9.0 1.35 L11.65 6.6 Q12.8 8.7 14.1 8.85 14.85 8.95 16.25 8.25 L16.85 8.0 17.5 10.45 17.75 10.95 18.15 12.55 18.65 13.65 18.65 13.75 18.7 13.85 18.85 14.4 Q18.4 15.35 18.1 16.4 L15.7 12.2 Q15.0 11.15 14.35 10.85 13.05 10.2 11.4 11.45 L10.15 12.5 8.85 13.4 Q6.1 7.25 4.15 1.35 L3.1 -0.75 M13.3 -0.75 L25.15 -0.75 Q24.95 -0.2 25.15 0.45 L25.45 1.25 26.15 2.5 27.35 4.2 27.75 4.8 26.4 5.55 25.15 4.9 22.6 3.55 21.85 2.8 20.45 2.6 18.65 2.0 17.45 1.9 17.0 2.05 16.65 2.3 16.25 2.8 16.1 3.4 16.05 3.7 15.95 3.75 15.55 3.8 15.2 3.5 Q14.15 1.5 13.45 -0.35 L13.3 -0.75 M29.8 -0.75 L41.55 -0.75 39.7 2.45 39.7 2.5 37.5 2.45 34.7 2.65 31.6 3.3 30.8 1.65 30.2 0.65 29.8 -0.75 M46.35 -0.75 L57.3 -0.75 56.05 -0.1 Q50.75 3.35 48.2 5.7 46.65 4.5 45.1 3.85 L44.15 3.45 43.7 3.3 44.5 2.05 44.8 1.7 45.2 1.4 45.7 0.85 46.2 0.0 46.35 -0.75 M59.15 -0.75 L66.45 -0.75 62.15 2.15 60.3 -0.1 59.15 -0.75 M73.5 -0.5 L73.55 -0.5 73.65 -0.5 73.75 -0.45 73.8 -0.45 73.9 -0.4 74.0 -0.4 74.15 -0.35 74.3 -0.3 74.35 -0.3 74.45 -0.3 74.5 -0.25 74.6 -0.25 74.75 -0.2 74.75 7.4 74.3 7.3 Q73.45 7.2 71.85 7.9 L62.2 12.05 61.6 12.05 61.45 11.7 60.6 9.4 Q59.7 8.15 58.5 8.3 L58.0 8.45 59.15 5.55 59.45 5.95 Q60.85 7.65 62.15 7.55 63.0 7.45 64.2 6.35 67.25 3.6 70.8 1.75 L73.0 0.3 73.5 -0.5 M74.75 11.8 L74.75 18.85 74.2 18.85 71.9 19.4 63.3 22.4 Q62.3 20.5 61.05 20.25 60.35 20.15 58.95 20.65 L57.1 21.25 56.9 19.05 Q56.55 16.45 55.9 14.95 L55.65 14.35 56.0 13.5 57.35 12.85 58.35 15.8 59.1 17.15 Q59.85 17.75 60.9 17.55 L62.65 16.85 Q64.35 16.05 68.45 14.55 L74.2 12.1 74.75 11.8 M74.75 23.85 L74.75 35.25 74.4 35.15 68.45 34.0 62.45 32.95 Q61.95 32.85 61.75 32.6 L61.55 31.8 Q61.3 30.55 60.3 29.95 59.7 29.55 58.7 29.45 L56.95 29.4 55.85 29.4 56.2 28.25 57.0 24.45 59.2 23.95 59.8 24.0 60.05 24.45 60.2 25.5 60.45 26.55 Q60.95 27.7 62.15 27.85 L64.2 27.4 Q68.85 25.55 74.1 24.05 L74.75 23.85 M74.75 39.75 L74.75 40.4 53.25 40.4 53.05 39.9 52.1 38.4 51.3 37.35 50.6 36.35 51.35 35.75 53.85 33.1 56.85 33.85 57.25 35.7 Q57.55 36.75 58.15 37.2 58.8 37.75 60.6 37.85 L67.4 38.55 71.8 39.3 74.15 39.75 74.75 39.75 M49.2 40.4 L24.55 40.4 25.75 39.6 26.7 38.9 27.3 38.25 30.1 39.05 35.5 39.65 Q41.85 39.9 46.3 38.45 L46.5 38.6 47.1 38.95 Q48.05 39.45 48.95 40.2 L49.2 40.4 M21.85 40.4 L8.75 40.4 12.55 39.65 15.55 38.95 Q16.8 38.5 17.15 37.75 17.45 37.2 17.35 36.2 L17.35 34.5 19.55 33.9 19.6 33.95 Q20.8 35.3 23.25 36.55 L22.5 37.75 22.15 38.2 21.85 38.85 21.65 39.7 21.85 40.4 M-0.65 38.75 L-0.65 28.0 0.95 28.5 3.65 29.45 Q5.85 30.2 9.6 30.75 L11.45 30.7 Q12.6 30.25 13.1 28.5 L13.45 27.1 13.95 25.75 15.95 27.05 16.9 27.55 Q17.15 29.55 17.85 31.2 L16.1 31.4 Q14.65 31.5 14.15 31.95 13.5 32.45 13.4 33.4 L13.55 35.05 1.9 37.45 Q0.25 37.9 -0.25 38.3 L-0.65 38.75 M-0.65 23.2 L-0.65 2.5 -0.3 3.4 4.85 15.75 Q5.55 17.55 6.2 18.25 7.5 19.55 8.85 19.05 L10.2 18.05 13.1 15.55 16.1 20.1 16.95 21.15 Q16.75 22.55 16.7 24.0 L16.25 23.6 15.2 22.65 14.5 21.5 Q14.0 20.9 13.2 20.75 12.45 20.6 11.75 21.0 11.25 21.3 10.5 22.5 9.75 24.0 9.3 25.65 5.9 25.05 2.75 23.7 0.75 22.9 -0.1 23.05 L-0.65 23.2" fill="#717171" fill-rule="evenodd" stroke="none" />
      <path d="M24.9 37.35 L24.15 37.0 Q21.05 35.55 19.6 33.95 16.7 30.8 16.7 24.6 16.7 19.2 18.85 14.4 L18.7 13.85 18.65 13.75 18.65 13.65 18.15 12.55 17.75 10.95 17.5 10.45 16.65 7.3 16.4 6.35 16.05 4.0 16.1 3.4 16.25 2.8 16.65 2.3 17.0 2.05 17.45 1.9 18.65 2.0 20.8 2.75 22.4 3.45 22.45 3.5 25.15 4.9 26.4 5.55 Q28.5 4.2 30.95 3.45 L34.7 2.65 37.5 2.45 Q40.65 2.4 43.3 3.2 L44.15 3.45 45.1 3.85 Q46.7 4.55 48.35 5.8 L49.4 5.3 51.9 4.3 53.35 3.8 54.3 3.45 55.0 3.2 55.55 2.95 57.3 2.25 Q58.5 2.05 59.05 2.7 L59.45 3.45 59.45 4.5 59.25 5.3 55.65 14.35 55.9 14.95 Q56.55 16.45 56.9 19.05 57.5 23.9 56.2 28.25 54.75 32.95 51.35 35.75 50.4 36.55 49.3 37.15 44.2 40.0 35.5 39.65 L30.1 39.05 Q27.9 38.6 24.9 37.35 M48.2 16.15 L47.4 15.65 46.35 15.7 Q45.25 16.05 45.15 17.3 45.05 18.5 46.15 19.0 47.25 19.5 48.15 18.7 49.05 17.9 48.6 16.8 L48.2 16.15 M50.15 17.85 L50.0 18.3 49.7 18.95 49.0 19.85 Q48.25 20.5 47.25 20.65 L45.35 20.4 Q44.5 20.0 43.9 19.2 43.35 18.35 43.3 17.4 43.2 15.25 45.1 14.2 45.95 13.75 46.95 13.8 47.95 13.9 48.75 14.45 49.55 15.0 49.9 15.95 50.3 16.85 50.15 17.85 M50.4 23.0 L50.0 28.7 49.7 30.45 52.35 30.6 53.4 29.0 54.5 26.25 54.7 25.15 55.1 23.5 Q55.2 22.55 54.65 21.95 54.2 21.35 53.4 21.35 L53.35 21.35 52.8 21.3 52.2 21.7 50.4 23.0 M43.05 24.3 L43.05 25.05 42.3 28.75 42.2 29.25 43.4 29.45 48.5 30.3 48.65 26.85 48.65 24.9 48.6 23.75 44.55 24.35 43.05 24.3 M33.75 23.25 L33.65 24.05 32.85 26.4 32.6 27.45 38.75 28.6 41.0 29.0 Q40.85 27.25 41.3 25.05 L41.7 23.95 41.8 23.9 40.65 23.35 Q38.8 22.35 37.15 22.65 L35.05 23.15 33.75 23.25 M43.9 21.5 Q45.9 22.75 48.2 22.1 50.45 21.5 51.7 19.5 L52.25 18.2 52.35 16.8 52.0 14.8 Q51.2 12.6 48.75 12.0 46.65 11.4 44.4 12.55 42.0 13.7 41.5 15.75 L41.4 17.05 41.5 18.35 41.95 19.5 Q42.65 20.7 43.9 21.5 M51.9 31.2 L50.7 31.2 49.55 31.15 49.4 31.3 48.95 31.45 48.55 31.15 48.55 31.1 45.7 30.95 45.75 31.1 45.75 31.6 44.9 35.4 44.9 35.65 46.15 35.15 48.6 33.9 Q50.05 33.25 51.2 32.0 L51.9 31.2 M43.05 36.2 L43.2 35.7 44.25 30.9 44.3 30.9 41.35 30.65 37.2 30.15 37.1 30.7 36.95 31.0 36.7 31.75 35.85 35.55 35.4 37.1 Q39.35 37.2 43.05 36.2 M33.3 18.95 Q34.75 16.7 34.25 14.55 33.75 12.35 31.45 10.9 30.8 10.5 29.85 10.25 L27.85 10.1 26.1 10.4 24.85 11.25 Q22.4 13.5 22.15 15.9 L22.15 16.85 24.2 16.6 Q26.2 16.7 27.9 17.5 L29.25 18.3 31.1 20.15 31.2 20.3 31.85 20.55 33.3 18.95 M27.15 16.25 L26.75 15.7 Q26.4 15.1 26.55 14.4 26.7 13.65 27.25 13.25 L28.5 12.85 Q29.25 12.85 29.75 13.3 30.3 13.75 30.4 14.45 30.55 15.2 30.2 15.75 L29.2 16.6 27.85 16.65 27.15 16.25 M19.3 24.6 L20.65 24.75 23.95 25.6 23.95 25.5 24.4 23.25 24.4 23.0 24.95 20.7 25.25 20.05 25.3 19.6 Q25.35 19.25 25.6 19.05 L25.15 18.9 24.8 18.8 23.45 18.9 22.5 19.2 21.7 19.75 21.65 19.8 Q20.35 20.85 19.8 22.1 L19.45 23.4 19.3 24.6 M26.85 19.85 L26.45 20.3 25.0 24.85 24.8 25.8 31.6 27.25 31.7 26.15 32.05 23.85 Q32.15 23.35 32.4 23.1 L30.8 22.55 Q29.05 21.75 27.25 20.15 L26.85 19.85 M25.45 34.7 L25.5 33.6 26.5 29.0 26.5 28.6 26.5 28.2 26.65 27.8 19.8 26.6 19.4 26.5 19.75 28.15 Q20.5 30.55 22.3 32.1 23.35 33.3 24.65 34.2 L25.45 34.7 M34.1 37.0 L34.1 36.75 34.5 34.45 34.6 34.15 34.9 32.25 35.05 31.85 35.25 31.15 35.35 30.95 35.25 30.7 35.15 30.3 35.25 29.8 32.1 29.1 28.65 28.2 28.6 28.5 28.4 28.85 Q28.0 29.5 27.85 30.25 L27.5 31.35 27.4 31.7 27.35 32.1 27.05 33.3 26.65 34.35 26.45 35.2 30.45 36.45 34.1 37.0" fill="#000000" fill-rule="evenodd" stroke="none" />
      <path d="M48.2 16.15 L48.6 16.8 Q49.05 17.9 48.15 18.7 47.25 19.5 46.15 19.0 45.05 18.5 45.15 17.3 45.25 16.05 46.35 15.7 L47.4 15.65 48.2 16.15 M50.15 17.85 Q50.3 16.85 49.9 15.95 49.55 15.0 48.75 14.45 47.95 13.9 46.95 13.8 45.95 13.75 45.1 14.2 43.2 15.25 43.3 17.4 43.35 18.35 43.9 19.2 44.5 20.0 45.35 20.4 L47.25 20.65 Q48.25 20.5 49.0 19.85 L49.7 18.95 50.0 18.3 50.15 17.85 M43.9 21.5 Q42.65 20.7 41.95 19.5 L41.5 18.35 41.4 17.05 41.5 15.75 Q42.0 13.7 44.4 12.55 46.65 11.4 48.75 12.0 51.2 12.6 52.0 14.8 L52.35 16.8 52.25 18.2 51.7 19.5 Q50.45 21.5 48.2 22.1 45.9 22.75 43.9 21.5 M33.75 23.25 L35.05 23.15 37.15 22.65 Q38.8 22.35 40.65 23.35 L41.8 23.9 41.7 23.95 41.3 25.05 Q40.85 27.25 41.0 29.0 L38.75 28.6 32.6 27.45 32.85 26.4 33.65 24.05 33.75 23.25 M43.05 24.3 L44.55 24.35 48.6 23.75 48.65 24.9 48.65 26.85 48.5 30.3 43.4 29.45 42.2 29.25 42.3 28.75 43.05 25.05 43.05 24.3 M50.4 23.0 L52.2 21.7 52.8 21.3 53.35 21.35 53.4 21.35 Q54.2 21.35 54.65 21.95 55.2 22.55 55.1 23.5 L54.7 25.15 54.5 26.25 53.4 29.0 52.35 30.6 49.7 30.45 50.0 28.7 50.4 23.0 M43.05 36.2 Q39.35 37.2 35.4 37.1 L35.85 35.55 36.7 31.75 36.95 31.0 37.1 30.7 37.2 30.15 41.35 30.65 44.3 30.9 44.25 30.9 43.2 35.7 43.05 36.2 M51.9 31.2 L51.2 32.0 Q50.05 33.25 48.6 33.9 L46.15 35.15 44.9 35.65 44.9 35.4 45.75 31.6 45.75 31.1 45.7 30.95 48.55 31.1 48.55 31.15 48.95 31.45 49.4 31.3 49.55 31.15 50.7 31.2 51.9 31.2 M33.3 18.95 L31.85 20.55 31.2 20.3 31.1 20.15 29.25 18.3 27.9 17.5 Q26.2 16.7 24.2 16.6 L22.15 16.85 22.15 15.9 Q22.4 13.5 24.85 11.25 L26.1 10.4 27.85 10.1 29.85 10.25 Q30.8 10.5 31.45 10.9 33.75 12.35 34.25 14.55 34.75 16.7 33.3 18.95 M27.15 16.25 L27.85 16.65 29.2 16.6 30.2 15.75 Q30.55 15.2 30.4 14.45 30.3 13.75 29.75 13.3 29.25 12.85 28.5 12.85 L27.25 13.25 Q26.7 13.65 26.55 14.4 26.4 15.1 26.75 15.7 L27.15 16.25 M19.3 24.6 L19.45 23.4 19.8 22.1 Q20.35 20.85 21.65 19.8 L21.7 19.75 22.5 19.2 23.45 18.9 24.8 18.8 25.15 18.9 25.6 19.05 Q25.35 19.25 25.3 19.6 L25.25 20.05 24.95 20.7 24.4 23.0 24.4 23.25 23.95 25.5 23.95 25.6 20.65 24.75 19.3 24.6 M34.1 37.0 L30.45 36.45 26.45 35.2 26.65 34.35 27.05 33.3 27.35 32.1 27.4 31.7 27.5 31.35 27.85 30.25 Q28.0 29.5 28.4 28.85 L28.6 28.5 28.65 28.2 32.1 29.1 35.25 29.8 35.15 30.3 35.25 30.7 35.35 30.95 35.25 31.15 35.05 31.85 34.9 32.25 34.6 34.15 34.5 34.45 34.1 36.75 34.1 37.0 M25.45 34.7 L24.65 34.2 Q23.35 33.3 22.3 32.1 20.5 30.55 19.75 28.15 L19.4 26.5 19.8 26.6 26.65 27.8 26.5 28.2 26.5 28.6 26.5 29.0 25.5 33.6 25.45 34.7 M26.85 19.85 L27.25 20.15 Q29.05 21.75 30.8 22.55 L32.4 23.1 Q32.15 23.35 32.05 23.85 L31.7 26.15 31.6 27.25 24.8 25.8 25.0 24.85 26.45 20.3 26.85 19.85" fill="#ffffff" fill-rule="evenodd" stroke="none" />
    </g>
    <g id="shape2">
      <path d="M-0.5 -0.4 L-0.5 -0.55 75.1 -0.55 75.1 -0.4 75.1 40.8 -0.5 40.8 -0.5 -0.4 Z" fill="none" stroke="#000000" stroke-linecap="round" stroke-linejoin="round" stroke-width="3.0" />
    </g>
  </defs>
</svg>