<svg xmlns:ffdec="https://www.free-decompiler.com/flash" xmlns:xlink="http://www.w3.org/1999/xlink" ffdec:objecttype="frame" xmlns="http://www.w3.org/2000/svg" viewBox="-0.65 -0.9 76.8 43.51">   <g>     <use ffdec:characterid="1" height="42.7" width="76.45" xlink:href="#shape0"></use>     <use ffdec:characterid="453" height="43.5" width="76.8" xlink:href="#shape1"></use>     <use ffdec:characterid="3" height="44.35" width="78.6" xlink:href="#shape2"></use>   </g>   <defs>     <g id="shape0">       <path d="M2.8 0.0 L2.8 -0.4 5.4 -0.4 5.4 0.0 9.7 0.0 9.7 19.45 9.7 0.0 20.55 0.0 19.3 19.45 9.7 19.45 0.25 19.45 0.25 0.0 2.8 0.0" fill="#ffffff" fill-rule="evenodd" stroke="none"></path>       <path d="M0.25 19.45 L9.7 19.45 19.3 19.45 18.7 28.6 16.0 28.5 10.95 27.95 9.7 27.8 Q7.45 27.6 5.85 27.75 4.05 27.9 1.5 28.6 0.75 28.8 0.25 29.15 L0.25 19.45 M9.7 19.45 L9.7 27.8 9.7 19.45" fill="#121212" fill-rule="evenodd" stroke="none"></path>       <path d="M9.7 27.8 L10.95 27.95 16.0 28.5 18.7 28.6 19.75 28.6 23.5 28.75 Q25.95 29.05 27.1 30.0 27.7 30.5 27.7 31.1 27.7 31.75 26.9 32.1 L25.6 32.3 18.45 32.45 12.85 32.15 9.7 31.75 7.95 31.6 3.1 31.95 0.95 32.3 0.25 32.1 -0.35 31.55 -0.5 31.3 -0.5 29.9 0.25 29.15 Q0.75 28.8 1.5 28.6 4.05 27.9 5.85 27.75 7.45 27.6 9.7 27.8 L9.7 31.75 9.7 27.8" fill="#999999" fill-rule="evenodd" stroke="none"></path>       <path d="M2.8 0.0 L0.25 0.0 M9.7 0.0 L5.4 0.0 M21.55 0.0 L32.25 0.0 M20.55 0.0 L9.7 0.0" fill="none" stroke="#666666" stroke-linecap="round" stroke-linejoin="round" stroke-width="4.0"></path>       <path d="M9.7 -0.4 L74.7 -0.4 74.7 40.5 47.05 40.5 45.5 40.7 27.0 40.65 25.95 40.5 9.7 40.5 -0.5 40.5 -0.5 -0.4 9.7 -0.4 9.7 40.5 9.7 -0.4" fill="#ffffff" fill-rule="evenodd" stroke="none"></path>     </g>     <g id="shape1">       <path d="M39.85 -0.2 L40.45 -0.2 40.45 -0.1 40.4 -0.05 40.4 0.05 40.4 0.35 40.4 0.45 40.4 0.75 40.4 0.85 40.4 1.15 40.4 1.25 40.4 1.6 40.4 1.7 40.4 1.75 40.45 1.8 40.45 2.0 40.45 2.1 40.45 2.4 40.45 2.5 40.45 2.55 40.5 2.6 40.5 2.8 40.5 2.9 40.55 2.95 40.55 3.15 40.6 3.2 40.6 3.25 40.6 3.35 40.6 3.6 40.65 3.65 40.65 3.75 40.65 3.95 40.7 4.0 40.7 4.05 40.7 4.15 40.7 4.45 40.7 4.55 40.7 4.8 40.75 4.85 40.75 4.9 40.75 5.0 40.75 5.3 40.75 5.4 40.75 5.65 40.8 5.7 40.8 5.8 40.8 6.05 40.85 6.1 40.85 6.2 40.85 6.55 40.85 6.65 40.85 6.8 40.9 6.85 40.9 6.95 40.9 7.05 40.9 7.35 40.9 7.45 40.9 7.75 40.9 7.85 40.9 8.2 40.9 8.3 40.9 8.6 40.9 8.7 40.9 9.0 40.95 9.1 40.95 9.4 40.95 9.5 40.95 9.85 40.95 9.95 40.95 10.25 40.95 10.35 40.95 10.65 41.0 10.75 41.0 10.9 41.05 10.95 41.05 11.05 41.05 11.15 41.05 11.45 41.1 11.55 41.1 11.9 41.1 12.0 41.1 12.3 41.1 12.4 41.1 12.45 41.15 12.5 41.15 12.7 41.15 12.8 41.15 13.1 41.15 13.2 41.15 13.55 41.15 13.65 41.15 13.95 41.15 14.05 41.15 14.35 41.15 14.45 41.15 14.75 41.15 14.85 41.15 15.2 41.15 15.3 41.15 15.6 41.15 15.7 41.15 16.0 41.15 16.1 41.15 16.4 41.15 16.5 41.15 16.6 41.2 16.65 41.2 16.75 41.25 16.8 41.25 16.85 41.25 16.95 41.25 17.25 41.3 17.35 41.3 17.65 41.3 17.75 41.3 18.05 41.3 18.15 41.3 18.5 41.3 18.6 41.3 18.9 41.35 19.0 41.35 19.3 41.35 19.4 41.35 19.7 41.35 19.8 41.35 19.85 41.4 20.5 41.3 22.15 Q41.05 23.1 40.45 23.55 39.9 23.95 39.25 24.0 L38.95 24.0 37.6 23.75 37.0 23.3 36.35 22.75 36.4 22.85 36.4 23.15 36.4 23.25 36.4 23.55 36.4 23.65 36.45 23.7 36.45 24.0 36.45 24.1 36.45 24.4 36.45 24.5 36.45 24.8 36.45 24.9 36.45 25.2 36.45 25.3 36.45 25.65 36.45 25.75 36.45 26.05 36.45 26.15 36.45 26.3 36.5 26.35 36.5 26.45 36.5 26.55 36.5 26.85 36.5 26.95 36.5 27.25 36.5 27.35 36.5 27.45 36.55 27.5 36.55 27.7 36.6 27.8 36.6 28.1 36.6 28.2 36.6 28.35 36.65 28.4 36.65 28.5 36.65 28.6 36.65 28.9 36.65 29.0 36.65 29.35 36.65 29.45 36.65 29.65 36.7 29.7 36.7 29.75 36.7 29.85 36.7 30.15 36.7 30.25 36.7 30.5 36.75 30.55 36.75 30.65 36.75 31.0 36.8 31.1 36.8 31.4 36.8 31.5 36.8 31.65 36.85 31.7 36.85 31.8 36.85 31.9 36.85 32.2 36.85 32.3 36.85 32.6 36.9 32.65 36.9 32.75 36.9 33.05 36.9 33.15 36.9 33.45 36.9 33.55 36.9 33.85 36.9 33.95 36.9 34.3 36.9 34.4 36.9 34.45 36.95 34.5 36.95 34.7 36.95 34.8 36.95 34.9 37.0 34.95 37.0 35.1 37.0 35.2 37.0 35.5 37.0 35.6 37.0 35.95 37.0 36.05 37.0 36.35 37.0 36.45 37.0 36.5 37.05 36.55 37.05 36.75 37.05 36.85 37.05 37.15 37.05 37.25 37.05 37.6 37.05 37.7 37.05 38.0 37.05 38.1 37.05 38.35 37.1 38.4 37.1 38.5 37.1 38.55 37.15 38.6 37.15 38.8 37.15 38.9 37.15 39.05 37.2 39.1 37.2 39.25 37.2 39.35 37.2 39.65 37.2 39.75 37.2 40.05 37.2 40.15 37.2 40.45 37.2 40.55 37.2 40.9 36.05 40.9 31.8 40.9 31.8 40.55 31.8 40.45 31.8 40.15 31.8 40.05 31.8 39.75 31.85 39.65 31.85 39.35 31.85 39.25 31.85 38.9 31.85 38.8 31.85 38.65 31.9 38.6 31.9 38.5 31.9 38.4 31.95 38.35 31.95 38.1 31.95 38.0 31.95 37.7 31.95 37.6 31.95 37.45 32.0 37.4 32.0 37.25 32.0 37.15 32.0 36.85 32.0 36.75 32.0 36.45 32.0 36.35 32.0 36.05 32.0 35.95 32.0 35.75 32.05 35.7 32.05 35.65 32.05 35.6 32.05 35.5 32.05 35.2 32.05 35.1 32.05 34.8 32.05 34.7 32.1 34.65 32.1 34.4 32.1 34.3 32.1 33.95 32.1 33.85 32.1 33.55 32.1 33.45 32.1 33.2 32.15 33.15 32.15 33.05 32.15 32.75 32.15 32.65 32.15 32.3 32.15 32.2 32.15 31.95 32.2 31.9 32.2 31.8 32.2 31.5 32.2 31.4 32.2 31.2 32.25 31.15 32.25 31.1 32.25 31.0 32.25 30.85 32.3 30.8 32.3 30.7 32.3 30.65 32.3 30.55 32.3 30.25 32.3 30.15 32.3 30.0 32.35 29.95 32.35 29.85 32.35 29.75 32.35 29.45 32.35 29.35 32.35 29.0 32.35 28.9 32.35 28.8 32.4 28.75 32.4 28.6 32.4 28.5 32.4 28.2 32.4 28.1 32.4 27.9 32.45 27.85 32.45 27.8 32.45 27.7 32.45 27.55 32.5 27.5 32.5 27.35 32.5 27.25 32.5 26.95 32.55 26.85 32.55 26.55 32.55 26.45 32.55 26.15 32.55 26.05 32.55 25.75 32.55 25.65 32.55 25.55 32.6 25.5 32.6 25.3 32.6 25.2 32.6 24.9 32.6 24.8 32.6 24.5 32.6 24.4 32.6 24.1 32.6 24.0 32.6 23.65 32.6 23.55 32.6 23.25 32.65 23.15 32.65 22.85 32.65 22.75 32.65 22.45 32.65 22.35 32.65 22.0 32.65 21.9 32.65 21.85 32.7 21.8 32.7 21.6 32.7 21.5 32.7 21.2 32.7 21.1 32.7 20.95 32.75 20.9 32.75 20.8 32.75 20.7 32.75 20.35 32.75 20.25 32.75 19.95 32.75 19.85 32.75 19.75 32.8 19.7 32.8 19.55 32.8 19.45 32.8 19.15 32.85 19.05 32.85 18.8 32.9 18.75 32.9 18.7 32.9 18.6 32.9 18.3 32.9 18.2 32.9 17.9 32.95 17.8 32.95 17.5 32.95 17.4 32.95 17.35 33.0 17.3 33.0 17.1 33.05 17.05 33.05 16.95 33.05 16.75 33.1 16.7 33.1 16.65 33.1 16.55 33.15 16.5 33.15 16.35 33.2 16.3 33.2 16.25 33.2 16.15 33.2 16.05 33.25 16.0 33.25 15.95 33.3 15.9 33.3 15.85 33.3 15.75 33.35 15.7 33.35 15.6 33.4 15.55 33.4 15.5 33.45 15.45 33.45 15.4 33.45 15.3 33.5 15.25 33.5 15.2 33.55 15.15 33.7 15.0 33.75 14.9 33.85 14.85 33.9 14.8 34.0 14.75 34.15 14.7 34.3 14.65 34.5 14.65 34.7 14.65 34.85 14.7 35.0 14.75 35.1 14.8 35.25 14.85 35.6 14.95 36.65 15.9 36.65 15.55 36.65 15.45 36.65 15.15 36.65 15.05 36.65 14.75 36.65 14.65 36.7 14.6 36.7 14.3 36.7 14.2 36.7 13.9 36.7 13.8 36.7 13.5 36.7 13.4 36.7 13.1 36.7 13.0 36.7 12.65 36.7 12.55 36.7 12.25 36.7 12.15 36.7 11.85 36.75 11.75 36.75 11.45 36.75 11.35 36.75 11.05 36.8 11.0 36.8 10.9 36.8 10.75 36.85 10.7 36.85 10.6 36.85 10.5 36.85 10.25 36.9 10.2 36.9 10.1 36.9 9.8 36.9 9.7 36.9 9.4 36.9 9.3 36.9 8.95 36.9 8.85 36.9 8.55 36.9 8.45 36.9 8.15 36.9 8.05 36.9 7.75 36.9 7.65 36.9 7.6 36.95 7.55 36.95 7.3 36.95 7.2 36.95 6.9 36.95 6.8 36.95 6.6 37.0 6.55 37.0 6.5 37.0 6.4 37.0 6.1 37.0 6.0 37.0 5.9 37.05 5.85 37.05 5.65 37.05 5.55 37.05 5.25 37.05 5.15 37.1 5.1 37.1 4.85 37.1 4.75 37.1 4.5 37.15 4.45 37.15 4.35 37.15 4.0 37.15 3.9 37.15 3.75 37.2 3.7 37.2 3.6 37.2 3.5 37.2 3.4 37.25 3.35 37.25 3.2 37.25 3.1 37.25 3.0 37.3 2.95 37.3 2.8 37.3 2.7 37.3 2.65 37.35 2.6 37.35 2.35 37.35 2.25 37.35 2.15 37.4 2.1 37.4 2.05 37.4 1.95 37.4 1.85 37.4 1.55 37.4 1.45 37.4 1.15 37.4 1.05 37.4 0.7 37.4 0.6 37.4 0.3 37.4 0.2 37.4 -0.1 37.4 -0.2 39.85 -0.2 M74.85 36.95 L74.85 37.3 Q69.8 39.95 61.3 39.65 L55.9 39.05 Q54.1 38.7 51.8 37.8 L50.7 37.35 50.5 37.3 Q46.95 35.7 45.4 33.95 42.6 30.9 42.5 25.05 L42.5 24.6 Q42.5 21.15 43.4 17.95 43.9 16.1 44.65 14.4 L44.5 13.85 44.45 13.75 44.45 13.65 43.95 12.55 43.55 10.95 43.3 10.45 42.45 7.3 42.2 6.35 42.05 5.7 41.9 4.45 41.85 4.0 42.05 2.8 42.35 2.4 42.45 2.3 42.8 2.05 43.25 1.9 44.45 2.0 46.6 2.75 48.25 3.5 50.95 4.9 52.2 5.55 Q55.85 3.25 60.5 2.65 L63.3 2.45 Q66.45 2.4 69.1 3.2 L70.9 3.85 Q72.5 4.55 74.15 5.8 L74.85 5.45 74.85 36.95 M-0.05 10.5 L-0.05 5.35 0.35 5.55 0.4 5.55 Q4.05 3.25 8.7 2.65 L11.5 2.45 15.9 2.85 17.3 3.2 19.1 3.85 Q20.4 4.45 21.8 5.4 L22.35 5.8 23.4 5.3 23.9 5.1 25.9 4.3 27.35 3.8 29.0 3.2 29.55 2.95 31.3 2.25 Q32.5 2.05 33.05 2.7 33.65 3.35 33.45 4.5 L33.25 5.3 29.65 14.35 29.9 14.95 30.35 16.2 30.9 19.05 Q31.5 23.9 30.2 28.25 28.75 32.95 25.35 35.75 21.35 39.0 14.3 39.6 L9.5 39.65 7.35 39.5 4.1 39.05 Q2.3 38.7 -0.05 37.8 L-0.05 35.8 -0.05 10.5" fill="#000000" fill-rule="evenodd" stroke="none"></path>       <path d="M26.2 0.55 L27.85 0.1 29.5 -0.2 30.3 0.0 30.9 0.4 30.7 0.8 30.05 1.25 26.95 1.95 24.15 2.75 23.15 3.05 22.45 2.8 18.65 0.75 18.1 0.2 Q17.85 -0.15 18.1 -0.5 18.35 -0.9 19.0 -0.9 L20.0 -0.6 22.6 0.6 22.75 0.35 23.25 0.05 24.0 -0.1 Q24.45 0.0 24.7 0.3 L24.95 0.8 26.2 0.55 M36.05 40.9 L37.2 40.9 37.2 40.55 37.2 40.45 37.2 40.15 37.2 40.05 37.2 39.75 37.2 39.65 37.2 39.35 37.2 39.25 37.2 39.1 37.15 39.05 37.15 38.9 37.15 38.8 37.15 38.6 37.1 38.55 37.1 38.5 37.1 38.4 37.05 38.35 37.05 38.1 37.05 38.0 37.05 37.7 37.05 37.6 37.05 37.25 37.05 37.15 37.05 36.85 37.05 36.75 37.05 36.55 37.0 36.5 37.0 36.45 37.0 36.35 37.0 36.05 37.0 35.95 37.0 35.6 37.0 35.5 37.0 35.2 37.0 35.1 37.0 34.95 36.95 34.9 36.95 34.8 36.95 34.7 36.95 34.5 36.9 34.45 36.9 34.4 36.9 34.3 36.9 33.95 36.9 33.85 36.9 33.55 36.9 33.45 36.9 33.15 36.9 33.05 36.9 32.75 36.9 32.65 36.85 32.6 36.85 32.3 36.85 32.2 36.85 31.9 36.85 31.8 36.85 31.7 36.8 31.65 36.8 31.5 36.8 31.4 36.8 31.1 36.75 31.0 36.75 30.65 36.75 30.55 36.7 30.5 36.7 30.25 36.7 30.15 36.7 29.85 36.7 29.75 36.7 29.7 36.65 29.65 36.65 29.45 36.65 29.35 36.65 29.0 36.65 28.9 36.65 28.6 36.65 28.5 36.65 28.4 36.6 28.35 36.6 28.2 36.6 28.1 36.6 27.8 36.55 27.7 36.55 27.5 36.5 27.45 36.5 27.35 36.5 27.25 36.5 26.95 36.5 26.85 36.5 26.55 36.5 26.45 36.5 26.35 36.45 26.3 36.45 26.15 36.45 26.05 36.45 25.75 36.45 25.65 36.45 25.3 36.45 25.2 36.45 24.9 36.45 24.8 36.45 24.5 36.45 24.4 36.45 24.1 36.45 24.0 36.45 23.7 36.4 23.65 36.4 23.55 36.4 23.25 36.4 23.15 36.4 22.85 36.35 22.75 37.0 23.3 37.6 23.75 38.95 24.0 39.25 24.0 Q39.9 23.95 40.45 23.55 41.05 23.1 41.3 22.15 L41.4 20.5 41.35 19.85 41.35 19.8 41.35 19.7 41.35 19.4 41.35 19.3 41.35 19.0 41.3 18.9 41.3 18.6 41.3 18.5 41.3 18.15 41.3 18.05 41.3 17.75 41.3 17.65 41.3 17.35 41.25 17.25 41.25 16.95 41.25 16.85 41.25 16.8 41.2 16.75 41.2 16.65 41.15 16.6 41.15 16.5 41.15 16.4 41.15 16.1 41.15 16.0 41.15 15.7 41.15 15.6 41.15 15.3 41.15 15.2 41.15 14.85 41.15 14.75 41.15 14.45 41.15 14.35 41.15 14.05 41.15 13.95 41.15 13.65 41.15 13.55 41.15 13.2 41.15 13.1 41.15 12.8 41.15 12.7 41.15 12.5 41.1 12.45 41.1 12.4 41.1 12.3 41.1 12.0 41.1 11.9 41.1 11.55 41.05 11.45 41.05 11.15 41.05 11.05 41.05 10.95 41.0 10.9 41.0 10.75 40.95 10.65 40.95 10.35 40.95 10.25 40.95 9.95 40.95 9.85 40.95 9.5 40.95 9.4 40.95 9.1 40.9 9.0 40.9 8.7 40.9 8.6 40.9 8.3 40.9 8.2 40.9 7.85 40.9 7.75 40.9 7.45 40.9 7.35 40.9 7.05 40.9 6.95 40.9 6.85 40.85 6.8 40.85 6.65 40.85 6.55 40.85 6.2 40.85 6.1 40.8 6.05 40.8 5.8 40.8 5.7 40.75 5.65 40.75 5.4 40.75 5.3 40.75 5.0 40.75 4.9 40.75 4.85 40.7 4.8 40.7 4.55 40.7 4.45 40.7 4.15 40.7 4.05 40.7 4.0 40.65 3.95 40.65 3.75 40.65 3.65 40.6 3.6 40.6 3.35 40.6 3.25 40.6 3.2 40.55 3.15 40.55 2.95 40.5 2.9 40.5 2.8 40.5 2.6 40.45 2.55 40.45 2.5 40.45 2.4 40.45 2.1 40.45 2.0 40.45 1.8 40.4 1.75 40.4 1.7 40.4 1.6 40.4 1.25 40.4 1.15 40.4 0.85 40.4 0.75 40.4 0.45 40.4 0.35 40.4 0.05 40.4 -0.05 40.45 -0.1 40.45 -0.2 39.85 -0.2 40.0 -0.3 41.1 -0.4 41.6 0.0 42.25 -0.45 44.15 -0.7 46.1 -0.4 49.65 0.25 49.8 0.15 51.55 -0.25 52.15 -0.35 53.95 0.0 55.1 0.5 57.7 0.25 61.2 -0.05 66.05 0.2 70.9 0.05 72.75 -0.25 Q73.85 -0.25 74.45 0.3 75.05 0.85 75.1 1.95 L75.0 3.9 74.85 5.45 74.15 5.8 Q72.5 4.55 70.9 3.85 L69.1 3.2 Q66.45 2.4 63.3 2.45 L60.5 2.65 Q55.85 3.25 52.2 5.55 L50.95 4.9 48.25 3.5 46.6 2.75 44.45 2.0 43.25 1.9 42.8 2.05 42.45 2.3 42.35 2.4 42.05 2.8 41.85 4.0 41.9 4.45 42.05 5.7 42.2 6.35 42.45 7.3 43.3 10.45 43.55 10.95 43.95 12.55 44.45 13.65 44.45 13.75 44.5 13.85 44.65 14.4 Q43.9 16.1 43.4 17.95 42.5 21.15 42.5 24.6 L42.5 25.05 Q42.6 30.9 45.4 33.95 46.95 35.7 50.5 37.3 L50.7 37.35 51.8 37.8 Q54.1 38.7 55.9 39.05 L61.3 39.65 Q69.8 39.95 74.85 37.3 L74.85 36.95 Q75.1 37.0 75.3 37.15 75.85 37.55 76.05 38.25 76.25 38.9 76.05 39.55 75.7 40.7 74.3 41.15 L71.85 41.55 60.55 42.4 Q53.9 42.85 49.2 42.35 L45.15 41.85 Q42.8 41.65 41.1 41.85 L38.4 42.1 Q36.75 42.0 36.05 40.95 L36.05 40.9 M37.4 2.05 L37.4 2.1 37.35 2.15 37.35 2.25 37.35 2.35 37.35 2.6 37.3 2.65 37.3 2.7 37.3 2.8 37.3 2.95 37.25 3.0 37.25 3.1 37.25 3.2 37.25 3.35 37.2 3.4 37.2 3.5 37.2 3.6 37.2 3.7 37.15 3.75 37.15 3.9 37.15 4.0 37.15 4.35 37.15 4.45 37.1 4.5 37.1 4.75 37.1 4.85 37.1 5.1 37.05 5.15 37.05 5.25 37.05 5.55 37.05 5.65 37.05 5.85 37.0 5.9 37.0 6.0 37.0 6.1 37.0 6.4 37.0 6.5 37.0 6.55 36.95 6.6 36.95 6.8 36.95 6.9 36.95 7.2 36.95 7.3 36.95 7.55 36.9 7.6 36.9 7.65 36.9 7.75 36.9 8.05 36.9 8.15 36.9 8.45 36.6 9.3 34.8 14.25 35.25 14.85 35.1 14.8 35.0 14.75 34.85 14.7 34.7 14.65 34.5 14.65 34.3 14.65 34.15 14.7 34.0 14.75 33.9 14.8 33.85 14.85 33.75 14.9 33.7 15.0 33.55 15.15 33.5 15.2 33.5 15.25 33.45 15.3 33.45 15.4 33.45 15.45 33.4 15.5 33.4 15.55 33.35 15.6 33.35 15.7 33.3 15.75 33.3 15.85 33.3 15.9 33.25 15.95 33.25 16.0 33.2 16.05 33.2 16.15 33.2 16.25 33.2 16.3 33.0 15.6 Q32.75 14.85 32.8 14.3 32.8 13.8 33.35 12.6 L35.75 7.4 Q36.4 5.5 36.0 3.4 L35.55 2.3 Q35.0 1.5 33.0 1.2 L31.45 0.95 31.05 0.8 Q30.95 0.6 31.15 0.4 L31.6 0.2 34.2 -0.3 Q35.8 -0.3 36.65 0.6 37.15 1.15 37.4 2.05 M32.3 30.7 L32.3 30.8 32.25 30.85 32.25 31.0 32.25 31.1 32.25 31.15 32.2 31.2 32.2 31.4 32.2 31.5 32.2 31.8 32.2 31.9 32.15 31.95 32.15 32.2 32.15 32.3 32.15 32.65 32.15 32.75 32.15 33.05 32.15 33.15 32.1 33.2 32.1 33.45 32.1 33.55 32.1 33.85 32.1 33.95 32.1 34.3 32.1 34.4 32.1 34.65 32.05 34.7 32.05 34.8 32.05 35.1 32.05 35.2 32.05 35.5 32.05 35.6 32.05 35.65 Q30.6 38.6 27.5 40.35 26.3 41.05 25.2 41.05 24.5 40.95 24.15 40.6 L23.95 40.1 24.05 39.6 24.65 39.3 25.35 39.25 26.55 38.9 27.8 37.95 29.25 36.6 30.45 34.9 31.8 32.05 32.3 30.7 M14.3 39.6 Q21.35 39.0 25.35 35.75 28.75 32.95 30.2 28.25 31.5 23.9 30.9 19.05 L30.35 16.2 29.9 14.95 29.65 14.35 33.25 5.3 33.45 4.5 Q33.65 3.35 33.05 2.7 32.5 2.05 31.3 2.25 L29.55 2.95 29.0 3.2 27.35 3.8 25.9 4.3 23.9 5.1 23.4 5.3 22.35 5.8 21.8 5.4 Q20.4 4.45 19.1 3.85 L17.3 3.2 15.9 2.85 11.5 2.45 8.7 2.65 Q4.05 3.25 0.4 5.55 L0.35 5.55 -0.05 5.35 -0.05 10.5 -0.2 10.3 -0.65 9.4 -0.65 7.4 -0.5 6.95 -0.65 6.85 -0.65 4.15 0.0 3.7 Q2.3 2.4 6.9 1.7 L10.3 1.3 12.95 1.35 13.15 1.4 14.6 1.25 Q15.9 1.25 18.4 2.05 21.2 2.95 22.4 3.75 L23.5 4.65 29.85 2.25 33.25 2.05 Q34.4 2.7 34.5 4.4 34.55 5.15 34.0 7.1 L31.95 13.5 31.35 15.15 Q32.85 18.6 32.6 22.9 32.4 26.55 30.7 31.0 29.9 33.3 28.7 34.9 26.55 37.7 21.65 39.65 19.25 40.6 17.6 40.8 L15.25 40.5 14.35 39.7 14.3 39.6 M-0.05 35.8 L-0.05 37.8 Q2.3 38.7 4.1 39.05 L7.35 39.5 7.05 39.8 5.9 40.45 3.7 41.15 2.4 41.3 Q1.6 41.25 -0.4 40.15 L-0.65 39.95 -0.65 36.0 -0.45 35.9 -0.05 35.8" fill="#717171" fill-rule="evenodd" stroke="none"></path>       <path d="M75.15 20.4 L75.15 24.0 74.35 24.25 Q73.0 24.55 71.4 23.85 70.55 23.55 69.95 22.85 L69.45 22.2 Q68.8 21.1 68.7 20.35 68.45 19.0 69.05 17.35 L69.25 16.75 69.35 16.9 Q70.45 18.55 72.35 19.5 73.7 20.15 75.15 20.4 M62.45 28.05 L61.65 28.4 61.0 29.3 60.85 29.75 60.9 30.35 60.55 31.5 59.55 32.15 58.4 32.05 57.5 31.35 Q57.15 30.75 57.15 29.75 57.15 28.1 57.85 26.75 58.65 25.35 60.0 24.65 60.6 24.35 61.25 24.2 L61.6 24.1 61.6 23.85 Q61.6 22.85 61.9 22.3 62.35 21.5 63.25 21.6 64.15 21.5 64.6 22.3 L64.9 23.85 64.9 24.1 65.25 24.2 66.5 24.65 Q67.85 25.35 68.65 26.75 69.35 28.1 69.35 29.75 69.35 30.75 69.0 31.35 L68.1 32.05 66.95 32.15 Q66.35 32.0 65.95 31.5 65.6 30.95 65.6 30.35 L65.65 29.75 65.5 29.3 64.85 28.4 Q64.55 28.15 64.05 28.05 L63.25 27.95 62.45 28.05 M58.1 16.35 Q58.65 17.05 58.75 18.05 58.9 19.1 58.65 20.3 58.4 21.6 57.7 22.35 L56.95 23.1 Q55.6 24.05 53.9 24.1 52.45 24.2 51.2 23.6 L51.55 25.1 51.7 26.3 51.25 27.15 50.35 27.5 Q49.8 27.5 49.45 27.15 49.05 26.8 48.95 26.3 L49.0 25.25 49.65 22.4 49.2 21.8 48.8 20.45 52.05 20.1 54.0 19.35 56.75 17.65 58.1 16.35 M16.55 14.0 L15.85 14.7 15.35 14.75 15.0 14.4 15.2 13.85 16.25 12.7 18.85 10.85 20.6 10.35 22.2 10.05 24.45 10.35 Q25.3 10.55 25.65 10.95 26.05 11.45 25.9 11.95 25.8 12.55 25.3 12.8 L24.1 12.95 22.9 12.6 21.95 12.45 20.4 12.5 18.8 12.8 17.75 13.15 16.55 14.0 M16.45 21.5 L16.05 20.3 Q15.8 19.1 15.95 18.05 16.1 16.85 16.85 16.05 L17.55 15.45 Q19.85 13.75 22.6 14.55 23.75 14.85 24.6 15.65 25.5 16.45 25.8 17.5 L26.0 18.9 Q26.1 20.65 25.5 21.8 L24.7 22.8 Q24.1 22.5 23.3 22.3 L22.55 22.1 23.5 21.3 Q24.2 20.5 24.35 19.4 24.45 18.3 23.95 17.4 L23.55 16.8 Q22.7 15.7 21.15 15.6 19.7 15.45 18.55 16.5 17.5 17.55 17.5 19.0 17.45 20.05 18.1 20.95 L18.5 21.45 16.45 21.5 M21.15 26.55 L20.9 27.05 19.8 28.35 19.1 28.95 17.6 29.7 16.05 29.75 16.0 30.2 15.9 31.4 Q15.65 33.4 14.85 34.8 13.85 36.5 12.25 37.25 L9.0 37.4 Q7.05 36.75 5.8 34.75 5.3 34.0 5.1 33.25 L5.0 30.2 4.95 29.9 4.95 29.8 4.1 29.7 Q3.1 29.45 1.9 28.35 L0.8 27.05 0.45 26.15 0.4 25.45 Q0.5 24.9 0.8 24.7 1.2 24.45 1.8 24.85 L2.8 25.7 3.2 25.95 4.2 26.2 5.45 26.35 Q6.85 26.35 8.4 25.5 L8.75 25.35 9.2 24.95 9.5 24.55 9.7 24.15 9.9 23.9 Q10.2 23.7 10.6 23.6 L10.85 23.6 11.1 23.6 11.4 23.7 11.8 23.9 12.25 24.55 12.5 24.95 13.3 25.5 Q14.35 26.05 15.3 26.25 L16.25 26.35 17.35 26.25 17.5 26.2 18.7 25.85 18.9 25.7 19.9 24.85 Q20.5 24.45 20.9 24.7 21.2 24.9 21.3 25.45 L21.25 26.1 21.25 26.15 21.15 26.55 M-0.45 21.5 L-0.45 19.2 -0.35 19.4 0.7 20.25 2.0 20.2 2.95 19.25 Q3.2 18.55 2.95 17.9 2.7 17.25 2.0 16.95 L0.65 16.85 Q-0.15 17.2 -0.45 17.9 L-0.45 14.7 0.4 14.4 3.1 14.6 Q3.7 14.85 4.15 15.3 L5.15 16.2 5.65 17.35 Q6.25 19.0 6.0 20.35 L5.35 22.0 5.25 21.95 Q4.6 21.55 3.6 21.4 L0.4 21.3 -0.45 21.5 M19.15 20.1 Q18.7 19.35 18.95 18.45 19.15 17.8 19.75 17.4 20.35 17.05 21.0 17.1 21.7 17.2 22.2 17.7 22.7 18.2 22.75 18.85 L22.5 20.1 21.45 20.9 Q20.8 21.15 20.15 20.9 L19.15 20.1 M5.35 14.0 L4.15 13.15 3.1 12.8 1.5 12.5 -0.05 12.45 -0.65 12.55 -0.65 10.05 -0.3 10.05 1.3 10.35 3.05 10.85 5.65 12.7 6.7 13.85 6.9 14.4 6.55 14.75 6.05 14.7 5.35 14.0 M10.4 28.15 L10.3 28.2 10.2 28.3 9.2 28.8 8.0 29.3 7.0 29.6 7.1 29.85 7.15 30.0 7.3 30.9 Q7.45 31.8 8.3 33.1 L8.9 33.75 9.55 34.1 11.05 34.45 Q11.8 34.4 12.5 33.5 13.3 32.35 13.5 30.1 L13.55 29.85 13.65 29.3 12.5 28.8 11.4 28.2 10.85 27.7 10.4 28.15" fill="#ffffff" fill-rule="evenodd" stroke="none"></path>       <path d="M69.25 16.75 L68.85 15.95 Q68.45 14.7 69.0 13.7 69.65 12.5 70.85 12.6 71.55 12.6 73.2 13.6 74.0 14.2 75.15 14.6 L75.15 20.4 Q73.7 20.15 72.35 19.5 70.45 18.55 69.35 16.9 L69.25 16.75 M48.8 20.45 L48.65 20.45 46.7 19.95 Q45.75 19.35 45.6 18.2 45.45 17.05 46.25 16.25 46.85 15.75 48.05 15.35 51.25 14.25 52.95 12.9 L53.95 12.15 Q54.75 11.65 55.75 11.65 56.75 11.7 57.5 12.25 58.25 12.8 58.55 13.75 58.85 14.7 58.55 15.55 L58.1 16.35 56.75 17.65 54.0 19.35 52.05 20.1 48.8 20.45 M16.45 21.5 L18.5 21.45 18.1 20.95 Q17.45 20.05 17.5 19.0 17.5 17.55 18.55 16.5 19.7 15.45 21.15 15.6 22.7 15.7 23.55 16.8 L23.95 17.4 Q24.45 18.3 24.35 19.4 24.2 20.5 23.5 21.3 L22.55 22.1 23.3 22.3 Q24.1 22.5 24.7 22.8 L25.5 23.2 Q26.6 24.0 26.9 25.1 L26.85 25.95 Q26.65 26.7 25.75 26.95 L24.25 27.0 21.15 26.55 21.25 26.15 21.25 26.1 21.3 25.45 Q21.2 24.9 20.9 24.7 20.5 24.45 19.9 24.85 L18.9 25.7 18.7 25.85 17.5 26.2 17.35 26.25 16.25 26.35 15.3 26.25 Q14.35 26.05 13.3 25.5 L12.5 24.95 12.25 24.55 11.8 23.9 11.4 23.7 Q11.6 23.1 12.15 22.6 12.8 22.05 13.95 21.85 L16.45 21.5 M19.1 28.95 Q18.0 29.85 17.1 30.1 L16.0 30.2 16.05 29.75 17.6 29.7 19.1 28.95 M5.0 30.2 L3.6 30.1 Q2.6 29.85 1.4 28.75 L0.3 27.45 -0.05 26.55 -0.45 26.75 -0.45 21.5 0.4 21.3 3.6 21.4 Q4.6 21.55 5.25 21.95 L5.35 22.0 Q6.2 22.5 6.45 23.2 6.85 24.05 6.35 24.9 L5.45 25.55 4.55 25.85 3.2 25.95 2.8 25.7 1.8 24.85 Q1.2 24.45 0.8 24.7 0.5 24.9 0.4 25.45 L0.45 26.15 0.8 27.05 1.9 28.35 Q3.1 29.45 4.1 29.7 L4.95 29.8 4.95 29.9 5.0 30.2 M-0.45 19.2 L-0.45 17.9 Q-0.15 17.2 0.65 16.85 L2.0 16.95 Q2.7 17.25 2.95 17.9 3.2 18.55 2.95 19.25 L2.0 20.2 0.7 20.25 -0.35 19.4 -0.45 19.2 M8.75 25.35 L9.0 24.95 9.4 24.3 9.7 24.15 9.5 24.55 9.2 24.95 8.75 25.35 M19.15 20.1 L20.15 20.9 Q20.8 21.15 21.45 20.9 L22.5 20.1 22.75 18.85 Q22.7 18.2 22.2 17.7 21.7 17.2 21.0 17.1 20.35 17.05 19.75 17.4 19.15 17.8 18.95 18.45 18.7 19.35 19.15 20.1 M10.2 28.3 L9.8 28.6 8.7 29.2 7.5 29.7 7.1 29.85 7.0 29.6 8.0 29.3 9.2 28.8 10.2 28.3 M13.55 29.85 L13.2 29.7 12.0 29.2 10.9 28.6 10.4 28.15 10.85 27.7 11.4 28.2 12.5 28.8 13.65 29.3 13.55 29.85" fill="#000000" fill-rule="evenodd" stroke="none"></path>     </g>     <g id="shape2">       <path d="M-0.5 -0.4 L-0.5 -0.55 75.1 -0.55 75.1 -0.4 75.1 40.8 -0.5 40.8 -0.5 -0.4 Z" fill="none" stroke="#000000" stroke-linecap="round" stroke-linejoin="round" stroke-width="3.0"></path>     </g>   </defs> </svg>