<svg xmlns:ffdec="https://www.free-decompiler.com/flash" xmlns:xlink="http://www.w3.org/1999/xlink" ffdec:objecttype="frame" xmlns="http://www.w3.org/2000/svg" viewBox="-0.5 -0.55 75.6 41.35">   <g>     <use ffdec:characterid="1" height="42.7" width="76.45" xlink:href="#shape0"></use>     <use ffdec:characterid="395" height="41.35" width="75.6" xlink:href="#shape1"></use>     <use ffdec:characterid="3" height="44.35" width="78.6" xlink:href="#shape2"></use>   </g>   <defs>     <g id="shape0">       <path d="M2.8 0.0 L2.8 -0.4 5.4 -0.4 5.4 0.0 9.7 0.0 9.7 19.45 9.7 0.0 20.55 0.0 19.3 19.45 9.7 19.45 0.25 19.45 0.25 0.0 2.8 0.0" fill="#ffffff" fill-rule="evenodd" stroke="none"></path>       <path d="M0.25 19.45 L9.7 19.45 19.3 19.45 18.7 28.6 16.0 28.5 10.95 27.95 9.7 27.8 Q7.45 27.6 5.85 27.75 4.05 27.9 1.5 28.6 0.75 28.8 0.25 29.15 L0.25 19.45 M9.7 19.45 L9.7 27.8 9.7 19.45" fill="#121212" fill-rule="evenodd" stroke="none"></path>       <path d="M9.7 27.8 L10.95 27.95 16.0 28.5 18.7 28.6 19.75 28.6 23.5 28.75 Q25.95 29.05 27.1 30.0 27.7 30.5 27.7 31.1 27.7 31.75 26.9 32.1 L25.6 32.3 18.45 32.45 12.85 32.15 9.7 31.75 7.95 31.6 3.1 31.95 0.95 32.3 0.25 32.1 -0.35 31.55 -0.5 31.3 -0.5 29.9 0.25 29.15 Q0.75 28.8 1.5 28.6 4.05 27.9 5.85 27.75 7.45 27.6 9.7 27.8 L9.7 31.75 9.7 27.8" fill="#999999" fill-rule="evenodd" stroke="none"></path>       <path d="M2.8 0.0 L0.25 0.0 M9.7 0.0 L5.4 0.0 M21.55 0.0 L32.25 0.0 M20.55 0.0 L9.7 0.0" fill="none" stroke="#666666" stroke-linecap="round" stroke-linejoin="round" stroke-width="4.0"></path>       <path d="M9.7 -0.4 L74.7 -0.4 74.7 40.5 47.05 40.5 45.5 40.7 27.0 40.65 25.95 40.5 9.7 40.5 -0.5 40.5 -0.5 -0.4 9.7 -0.4 9.7 40.5 9.7 -0.4" fill="#ffffff" fill-rule="evenodd" stroke="none"></path>     </g>     <g id="shape1">       <path d="M24.9 37.35 Q27.9 38.6 30.1 39.05 L35.5 39.65 Q46.1 40.05 51.35 35.75 54.75 32.95 56.2 28.25 57.5 23.9 56.9 19.05 56.55 16.45 55.9 14.95 L55.65 14.35 59.25 5.3 59.45 4.5 Q59.65 3.35 59.05 2.7 58.5 2.05 57.3 2.25 L55.55 2.95 55.0 3.2 53.35 3.8 51.9 4.3 49.4 5.3 48.35 5.8 Q46.7 4.55 45.1 3.85 L43.3 3.2 Q40.65 2.4 37.5 2.45 L34.7 2.65 Q30.05 3.25 26.4 5.55 L25.15 4.9 22.45 3.5 20.8 2.75 18.65 2.0 17.45 1.9 17.0 2.05 16.65 2.3 16.25 2.8 16.05 4.0 16.4 6.35 16.65 7.3 17.5 10.45 17.75 10.95 18.15 12.55 18.65 13.65 18.65 13.75 18.7 13.85 18.85 14.4 Q16.7 19.2 16.7 24.6 16.7 30.8 19.6 33.95 21.2 35.75 24.9 37.35 M-0.5 -0.55 L75.1 -0.55 75.1 40.8 -0.5 40.8 -0.5 -0.55" fill="#999999" fill-rule="evenodd" stroke="none"></path>       <path d="M24.9 37.35 Q21.2 35.75 19.6 33.95 16.7 30.8 16.7 24.6 16.7 19.2 18.85 14.4 L18.7 13.85 18.65 13.75 18.65 13.65 18.15 12.55 17.75 10.95 17.5 10.45 16.65 7.3 16.4 6.35 16.05 4.0 16.25 2.8 16.65 2.3 17.0 2.05 17.45 1.9 18.65 2.0 20.8 2.75 22.45 3.5 25.15 4.9 26.4 5.55 Q30.05 3.25 34.7 2.65 L37.5 2.45 Q40.65 2.4 43.3 3.2 L45.1 3.85 Q46.7 4.55 48.35 5.8 L49.4 5.3 51.9 4.3 53.35 3.8 55.0 3.2 55.55 2.95 57.3 2.25 Q58.5 2.05 59.05 2.7 59.65 3.35 59.45 4.5 L59.25 5.3 55.65 14.35 55.9 14.95 Q56.55 16.45 56.9 19.05 57.5 23.9 56.2 28.25 54.75 32.95 51.35 35.75 46.1 40.05 35.5 39.65 L30.1 39.05 Q27.9 38.6 24.9 37.35" fill="#ffffff" fill-rule="evenodd" stroke="none"></path>       <path d="M50.85 12.6 Q52.35 11.85 53.7 11.25 58.2 9.3 59.75 8.4 L61.05 7.75 Q61.9 7.6 62.4 8.15 L62.7 9.3 62.85 11.9 Q62.85 13.45 62.3 13.9 L61.15 14.25 Q57.7 14.65 52.05 16.15 49.9 16.7 48.7 17.2 L48.9 17.6 49.7 19.5 Q50.1 20.4 49.95 20.9 49.7 21.75 48.8 21.65 L48.65 21.6 47.7 20.8 46.3 19.05 45.9 19.7 45.7 20.05 45.05 20.8 44.9 20.95 44.55 21.25 43.45 21.3 Q43.1 21.1 43.1 20.45 L43.2 20.05 43.4 19.55 44.25 17.6 43.55 17.5 Q41.8 17.15 40.65 16.35 L39.7 15.5 39.15 14.55 Q39.05 13.85 39.5 13.55 L40.4 13.45 41.25 13.85 41.65 14.05 43.85 14.6 44.25 14.65 44.2 14.05 44.2 13.25 44.05 12.65 43.95 12.15 44.2 11.45 Q44.45 11.05 44.8 11.0 45.75 10.7 46.45 11.75 L47.0 13.4 47.05 13.6 47.15 13.9 47.3 14.5 47.8 14.25 50.85 12.6 M44.05 29.15 L42.9 28.75 Q39.5 27.55 35.35 28.2 L34.3 28.45 Q33.3 28.7 31.9 29.3 30.45 29.95 29.95 30.35 28.95 31.25 28.45 31.2 27.75 31.1 27.65 30.35 L28.05 29.4 Q30.55 25.95 34.4 24.95 L34.65 24.9 34.65 24.55 34.85 22.9 34.95 21.85 Q35.3 21.05 36.15 20.95 37.0 20.85 37.5 21.55 37.9 22.05 38.0 23.15 L38.15 24.1 38.2 24.45 40.25 24.4 43.3 25.0 44.25 25.25 45.0 25.5 Q45.95 25.95 46.2 26.75 46.5 27.55 46.1 28.35 45.6 29.1 44.7 29.2 L44.05 29.15 M62.95 19.95 L62.3 19.75 61.65 19.55 61.0 19.6 60.3 19.45 60.0 19.25 59.95 18.9 Q60.0 18.45 60.4 18.05 L60.9 17.65 Q63.0 16.4 64.75 16.65 L65.85 17.0 67.3 17.75 Q68.65 18.65 69.05 19.75 69.4 20.75 69.0 21.65 68.6 22.6 67.55 22.85 L66.75 22.85 65.3 22.4 64.5 21.55 63.95 20.65 63.8 20.25 62.95 19.95 M58.8 26.95 L58.65 26.65 58.75 26.4 Q59.7 25.2 61.25 25.55 L62.35 25.9 63.25 26.25 64.2 26.7 65.35 27.6 65.95 28.05 66.4 28.75 66.85 30.3 Q66.95 31.25 66.6 31.85 66.0 32.85 64.85 32.95 63.8 33.05 62.95 32.2 62.2 31.4 62.3 30.25 L62.3 29.6 62.0 29.25 61.6 29.0 60.3 27.85 59.45 27.4 58.8 26.95 M30.55 13.8 L30.35 15.25 29.9 16.25 28.7 17.5 28.45 17.75 29.4 18.85 Q29.85 19.75 29.7 20.8 L29.25 22.3 28.7 23.3 27.75 23.9 26.8 24.3 25.7 24.4 24.5 24.3 Q23.9 24.1 23.4 23.6 22.45 22.75 22.4 22.0 L22.5 21.1 22.35 21.15 21.2 21.4 Q20.25 21.4 19.85 20.5 19.45 19.65 20.1 18.9 20.4 18.5 21.1 18.3 L22.3 18.0 Q23.8 17.65 26.5 15.8 L27.3 15.15 28.25 13.8 Q28.6 13.05 28.85 12.85 29.4 12.55 29.95 12.85 30.5 13.2 30.55 13.8" fill="#000000" fill-rule="evenodd" stroke="none"></path>       <path d="M48.65 21.6 L47.9 22.15 46.5 22.3 46.5 23.15 Q46.55 24.4 47.0 26.05 L47.35 27.1 47.75 28.95 47.85 29.85 Q47.85 31.05 46.85 31.65 L45.25 31.75 Q44.4 31.5 44.1 30.65 43.9 30.15 44.0 29.25 L44.05 29.15 44.7 29.2 Q45.6 29.1 46.1 28.35 46.5 27.55 46.2 26.75 45.95 25.95 45.0 25.5 L44.25 25.25 44.5 22.55 44.55 21.25 44.9 20.95 45.05 20.8 45.7 20.05 45.9 19.7 46.3 19.05 47.7 20.8 48.65 21.6 M43.2 20.05 Q42.55 19.85 42.15 19.45 L41.45 18.6 41.0 18.05 40.8 17.55 40.65 16.35 Q41.8 17.15 43.55 17.5 L44.25 17.6 43.4 19.55 43.2 20.05 M41.65 14.05 L41.75 13.95 Q42.7 13.1 43.65 12.75 L44.05 12.65 44.2 13.25 44.2 14.05 44.25 14.65 43.85 14.6 41.65 14.05 M47.0 13.4 L47.2 13.55 47.2 13.45 Q47.4 12.6 48.05 12.15 48.7 11.75 49.55 11.85 50.35 12.0 50.85 12.6 L47.8 14.25 47.3 14.5 47.15 13.9 47.05 13.6 47.0 13.4 M39.15 21.0 Q38.45 20.55 38.45 19.6 38.65 18.25 39.8 18.1 L40.85 18.25 41.6 19.0 Q41.85 19.5 41.7 20.05 L41.15 20.95 Q40.75 21.3 40.15 21.3 39.55 21.35 39.15 21.0" fill="#999999" fill-rule="evenodd" stroke="none"></path>     </g>     <g id="shape2">       <path d="M-0.5 -0.4 L-0.5 -0.55 75.1 -0.55 75.1 -0.4 75.1 40.8 -0.5 40.8 -0.5 -0.4 Z" fill="none" stroke="#000000" stroke-linecap="round" stroke-linejoin="round" stroke-width="3.0"></path>     </g>   </defs> </svg>