<svg xmlns="http://www.w3.org/2000/svg" xmlns:ffdec="https://www.free-decompiler.com/flash" xmlns:xlink="http://www.w3.org/1999/xlink" ffdec:objectType="frame" viewBox="39.95 7.40 75.60 41.35">
  <g transform="matrix(1.0, 0.0, 0.0, 1.0, 40.45, 7.95)">
    <use ffdec:characterId="1" height="42.7" transform="matrix(1.0, 0.0, 0.0, 1.0, 0.0, 0.0)" width="76.45" xlink:href="#shape0" />
    <use ffdec:characterId="407" height="44.55" transform="matrix(1.0, 0.0, 0.0, 1.0, 0.0, 0.0)" width="78.9" xlink:href="#shape1" />
    <use ffdec:characterId="3" height="44.35" transform="matrix(1.0, 0.0, 0.0, 1.0, 0.0, 0.0)" width="78.6" xlink:href="#shape2" />
  </g>
  <defs>
    <g id="shape0">
      <path d="M2.8 0.0 L2.8 -0.4 5.4 -0.4 5.4 0.0 9.7 0.0 9.7 19.45 9.7 0.0 20.55 0.0 19.3 19.45 9.7 19.45 0.25 19.45 0.25 0.0 2.8 0.0" fill="#ffffff" fill-rule="evenodd" stroke="none" />
      <path d="M0.25 19.45 L9.7 19.45 19.3 19.45 18.7 28.6 16.0 28.5 10.95 27.95 9.7 27.8 Q7.45 27.6 5.85 27.75 4.05 27.9 1.5 28.6 0.75 28.8 0.25 29.15 L0.25 19.45 M9.7 19.45 L9.7 27.8 9.7 19.45" fill="#121212" fill-rule="evenodd" stroke="none" />
      <path d="M9.7 27.8 L10.95 27.95 16.0 28.5 18.7 28.6 19.75 28.6 23.5 28.75 Q25.95 29.05 27.1 30.0 27.7 30.5 27.7 31.1 27.7 31.75 26.9 32.1 L25.6 32.3 18.45 32.45 12.85 32.15 9.7 31.75 7.95 31.6 3.1 31.95 0.95 32.3 0.25 32.1 -0.35 31.55 -0.5 31.3 -0.5 29.9 0.25 29.15 Q0.75 28.8 1.5 28.6 4.05 27.9 5.85 27.75 7.45 27.6 9.7 27.8 L9.7 31.75 9.7 27.8" fill="#999999" fill-rule="evenodd" stroke="none" />
      <path d="M2.8 0.0 L0.25 0.0 M9.7 0.0 L5.4 0.0 M21.55 0.0 L32.25 0.0 M20.55 0.0 L9.7 0.0" fill="none" stroke="#666666" stroke-linecap="round" stroke-linejoin="round" stroke-width="4.0" />
      <path d="M9.7 -0.4 L74.7 -0.4 74.7 40.5 47.05 40.5 45.5 40.7 27.0 40.65 25.95 40.5 9.7 40.5 -0.5 40.5 -0.5 -0.4 9.7 -0.4 9.7 40.5 9.7 -0.4" fill="#ffffff" fill-rule="evenodd" stroke="none" />
    </g>
    <g id="shape1">
      <path d="M25.35 13.3 L24.7 12.95 Q23.8 12.25 22.2 10.25 L18.95 6.75 14.7 2.4 Q13.25 0.85 13.3 -0.15 13.4 -1.2 14.15 -1.65 L15.85 -1.7 16.75 -0.9 Q22.05 5.1 25.75 11.9 L26.0 12.8 Q25.85 13.3 25.35 13.3 M27.2 19.15 L26.65 19.6 25.85 19.5 24.05 18.5 Q13.45 11.85 8.2 7.9 L1.85 2.75 Q0.6 1.85 0.4 1.0 0.15 0.15 0.8 -0.65 1.4 -1.45 2.3 -1.4 3.15 -1.4 4.45 -0.3 19.05 11.4 26.7 18.3 27.25 18.85 27.2 19.15 M35.65 6.25 L35.25 3.5 35.05 1.65 35.0 1.2 35.0 1.15 Q35.0 0.2 35.15 -0.15 35.4 -0.95 36.25 -1.2 L37.5 -1.15 38.75 -1.2 Q39.6 -0.95 39.85 -0.15 L40.0 1.15 40.0 1.2 40.0 1.65 39.75 3.5 39.35 6.25 39.05 8.05 Q39.05 9.4 38.65 10.75 L38.55 11.1 Q38.4 11.75 37.7 11.85 L37.3 11.85 Q36.6 11.75 36.45 11.1 L36.4 10.75 Q35.95 9.45 35.95 8.05 L35.65 6.25 M27.15 1.9 L26.85 0.3 Q26.75 -0.65 27.3 -1.25 27.95 -1.95 28.9 -1.8 29.85 -1.65 30.15 -0.75 L30.4 0.15 30.6 0.75 31.2 3.15 31.5 5.55 31.55 7.3 31.3 9.55 30.7 10.25 29.85 10.3 Q29.2 10.0 29.1 9.05 L28.9 7.5 28.65 6.85 27.15 1.9 M25.8 6.8 L25.0 6.75 24.55 6.1 22.2 1.75 Q21.6 0.8 21.75 0.1 21.85 -0.8 22.8 -1.05 23.75 -1.2 24.25 -0.45 L24.55 0.6 25.3 3.25 26.0 5.9 Q26.1 6.55 25.8 6.8 M49.65 13.3 Q49.15 13.3 49.0 12.8 48.95 12.5 49.25 11.9 52.95 5.1 58.25 -0.9 L59.15 -1.7 60.85 -1.65 Q61.6 -1.2 61.7 -0.15 61.75 0.85 60.3 2.4 L56.05 6.75 52.8 10.25 50.3 12.95 49.65 13.3 M47.8 19.15 Q47.75 18.85 48.3 18.3 55.95 11.4 70.55 -0.3 71.85 -1.4 72.7 -1.4 73.6 -1.45 74.2 -0.65 74.85 0.15 74.6 1.0 74.4 1.85 73.15 2.75 L66.8 7.9 Q61.55 11.85 50.95 18.5 49.85 19.25 49.15 19.5 L48.35 19.6 47.8 19.15 M47.85 1.9 L46.35 6.85 46.1 7.5 45.9 9.05 Q45.8 10.0 45.15 10.3 L44.3 10.25 Q43.85 10.0 43.7 9.55 L43.45 7.3 43.5 5.55 43.8 3.15 44.4 0.75 44.6 0.15 44.85 -0.75 Q45.15 -1.65 46.1 -1.8 47.05 -1.95 47.7 -1.25 48.25 -0.65 48.15 0.3 L47.85 1.9 M49.2 6.8 Q48.9 6.55 49.0 5.9 L49.7 3.25 50.45 0.6 50.75 -0.45 Q51.25 -1.2 52.2 -1.05 53.15 -0.8 53.25 0.1 53.4 0.8 52.8 1.75 L50.45 6.1 50.0 6.75 49.2 6.8 M55.3 20.4 Q54.9 20.4 55.0 20.0 L55.3 19.5 57.3 17.9 65.6 12.25 68.8 9.75 72.1 7.45 Q73.6 6.55 74.6 6.9 75.45 7.15 75.7 8.1 75.95 9.0 75.4 9.7 L74.1 10.7 61.85 17.4 59.25 18.8 57.35 19.65 55.65 20.25 55.3 20.4 M71.15 19.5 L72.9 18.95 Q74.05 18.85 74.6 19.45 75.05 19.9 75.0 20.7 L74.45 21.9 Q73.65 22.7 72.0 23.05 L66.2 24.05 60.45 24.75 48.3 25.85 Q47.25 25.95 47.25 25.3 47.25 24.85 48.05 24.6 L56.05 22.65 68.2 20.1 71.15 19.5 M48.75 34.8 L48.35 34.3 Q48.15 33.9 48.35 33.7 48.45 33.5 48.7 33.55 L49.15 33.7 49.85 34.3 51.05 34.75 51.75 35.4 52.7 36.05 56.75 39.05 Q57.75 39.95 57.9 40.65 58.05 41.4 57.45 42.1 56.95 42.7 56.0 42.6 55.1 42.55 53.85 41.3 L50.35 37.7 49.3 35.9 48.75 34.8 M74.8 33.15 Q75.7 33.4 76.35 33.9 77.15 34.6 76.9 35.45 76.65 36.35 75.55 36.45 L73.8 36.2 71.95 35.6 65.85 33.15 58.1 29.8 Q55.75 28.75 54.95 28.1 L54.65 27.65 Q54.6 27.45 54.7 27.3 L55.05 27.05 55.9 27.1 Q60.55 28.05 65.8 29.85 L74.8 33.15 M47.75 29.25 Q46.4 28.6 46.65 27.7 46.8 27.05 47.65 27.05 L48.9 27.35 72.8 37.2 Q74.7 38.0 75.1 39.05 75.35 39.75 74.95 40.45 74.55 41.2 73.85 41.4 73.0 41.55 71.65 41.0 67.1 39.2 62.0 36.7 L47.75 29.25 M45.2 36.45 Q45.55 37.55 46.35 38.4 L47.25 39.4 47.8 40.5 Q47.9 41.45 47.05 42.05 L45.35 42.15 Q44.7 41.8 44.05 40.75 L43.35 39.45 43.1 37.4 42.95 36.5 Q42.85 36.0 43.05 35.7 43.25 35.25 43.8 35.15 44.3 35.05 44.65 35.4 L45.2 36.45 M29.8 36.45 L30.35 35.4 Q30.7 35.05 31.2 35.15 31.75 35.25 31.95 35.7 L32.05 36.5 31.9 37.4 31.65 39.45 30.95 40.75 29.65 42.15 27.95 42.05 Q27.1 41.45 27.2 40.5 27.25 39.95 27.75 39.4 L28.65 38.4 29.8 36.45 M26.25 34.8 L25.7 35.9 24.65 37.7 21.15 41.3 Q19.9 42.55 19.0 42.6 18.05 42.7 17.55 42.1 16.95 41.4 17.1 40.65 17.25 39.95 18.25 39.05 20.2 37.4 22.3 36.05 L23.25 35.4 23.95 34.75 25.15 34.3 25.85 33.7 26.3 33.55 Q26.55 33.5 26.65 33.7 26.85 33.9 26.65 34.3 L26.25 34.8 M27.25 29.25 L13.0 36.7 Q7.9 39.2 3.35 41.0 L1.15 41.4 Q0.45 41.2 0.05 40.45 -0.35 39.75 -0.1 39.05 0.3 38.0 2.2 37.2 L26.1 27.35 27.35 27.05 Q28.2 27.05 28.35 27.7 28.6 28.6 27.25 29.25 M0.2 33.15 L9.2 29.85 Q14.45 28.05 19.1 27.1 L19.95 27.05 20.3 27.3 20.35 27.65 20.05 28.1 Q19.25 28.75 16.9 29.8 L9.15 33.15 3.05 35.6 1.2 36.2 -0.55 36.45 Q-1.65 36.35 -1.9 35.45 -2.15 34.6 -1.35 33.9 -0.7 33.4 0.2 33.15 M3.85 19.5 L6.8 20.1 18.95 22.65 26.95 24.6 Q27.75 24.85 27.75 25.3 27.75 25.95 26.7 25.85 L14.55 24.75 8.8 24.05 3.0 23.05 Q1.35 22.7 0.55 21.9 0.05 21.4 0.0 20.7 -0.05 19.9 0.4 19.45 0.95 18.85 2.1 18.95 L3.85 19.5 M19.7 20.4 L19.35 20.25 17.65 19.65 15.75 18.8 13.15 17.4 0.9 10.7 -0.4 9.7 Q-0.95 9.0 -0.7 8.1 -0.45 7.15 0.4 6.9 1.4 6.55 2.9 7.45 L6.2 9.75 9.4 12.25 17.7 17.9 19.7 19.5 20.0 20.0 Q20.1 20.4 19.7 20.4" fill="#999999" fill-rule="evenodd" stroke="none" />
      <path d="M47.95 13.75 Q48.05 17.25 46.65 19.75 45.85 21.25 44.6 22.4 L46.25 22.1 46.6 21.95 49.05 20.55 49.1 20.55 50.4 18.65 Q51.2 17.1 51.4 15.1 51.05 13.65 51.7 12.6 51.7 11.5 51.4 11.05 L51.0 10.45 Q50.95 9.85 51.75 9.75 52.9 9.6 53.55 10.85 L53.75 11.3 53.95 11.25 53.8 10.35 53.65 9.75 53.35 9.15 53.2 8.55 Q53.45 7.95 54.1 8.2 54.55 8.35 54.9 8.85 L55.8 10.35 56.25 11.8 56.45 11.9 56.4 10.8 56.05 10.0 Q55.85 9.45 56.15 9.15 L57.2 9.2 Q58.3 9.95 58.5 12.2 58.8 14.5 58.0 15.7 57.9 18.3 56.05 20.55 54.3 22.7 50.9 24.35 L48.1 25.45 46.7 26.0 44.55 26.2 Q46.05 26.9 46.65 28.6 L46.95 29.9 47.1 31.75 Q46.95 33.5 44.65 35.6 45.1 36.25 44.95 37.1 44.85 37.95 44.2 38.45 43.4 39.1 41.45 39.0 L40.6 38.95 40.45 39.2 Q39.85 40.35 39.2 40.65 L37.4 40.85 36.35 40.65 Q35.3 41.55 33.5 41.15 32.1 40.75 31.6 39.95 L31.45 39.95 30.15 40.3 28.6 40.5 Q27.35 40.5 26.8 40.1 L26.0 39.3 Q25.6 38.8 25.55 38.4 25.4 37.55 26.05 36.8 L24.8 35.15 24.2 33.9 Q21.95 34.6 20.75 35.3 L18.65 36.8 19.5 36.65 21.2 36.55 Q22.1 36.6 22.9 37.05 23.7 37.55 23.95 38.35 24.35 39.75 23.25 40.75 22.35 41.65 20.9 41.8 L18.2 41.5 Q16.95 41.4 15.5 40.65 L14.45 39.85 Q14.1 39.35 14.1 38.3 14.1 36.85 14.25 36.4 L15.0 35.1 Q16.4 33.3 19.0 32.0 20.55 31.25 23.85 30.25 L24.5 30.1 Q24.65 29.65 24.95 29.25 25.8 28.05 27.0 27.4 L28.05 26.5 28.1 26.3 Q24.95 26.8 22.55 26.2 19.6 25.45 17.55 23.1 16.6 22.05 16.05 20.85 L15.2 19.6 14.8 18.7 14.7 17.7 14.8 15.85 14.8 15.75 Q14.5 14.05 15.3 12.45 15.8 11.45 16.5 10.95 L17.3 10.85 17.55 11.35 17.4 12.0 17.05 13.35 17.7 13.15 Q17.8 12.25 18.35 11.4 18.8 10.8 19.4 10.35 L20.05 10.15 Q20.4 10.05 20.6 10.5 L20.3 11.2 Q19.75 12.0 19.65 13.1 L20.0 13.2 20.3 12.45 21.55 11.35 22.15 11.05 Q22.6 11.05 22.6 11.35 L22.3 12.0 Q21.65 12.7 21.85 14.05 L21.9 14.95 22.0 15.2 22.15 15.9 22.05 17.1 21.7 18.9 21.8 19.25 22.2 20.0 22.8 21.1 23.7 21.95 25.0 22.7 25.05 22.7 28.1 22.8 27.65 22.45 Q26.1 21.1 25.3 19.25 24.5 17.3 24.7 15.35 24.8 14.25 25.4 12.6 L26.45 10.45 26.95 9.8 26.35 8.85 Q26.2 8.45 26.2 7.5 26.2 6.25 26.35 5.65 L27.3 3.65 27.7 2.55 Q27.9 1.85 28.2 1.45 28.65 0.9 29.45 0.75 30.15 0.65 30.8 1.15 L31.6 2.15 32.6 4.05 33.35 5.05 40.15 4.85 40.5 4.5 Q41.65 3.55 42.9 1.85 43.65 0.7 44.2 0.45 44.7 0.25 45.2 0.45 L46.0 1.05 46.35 2.3 46.85 4.05 47.25 5.8 47.35 7.05 47.45 7.9 47.4 8.65 47.5 9.35 47.6 10.35 47.6 10.6 Q47.95 12.0 47.95 13.75 M33.05 15.25 L33.1 14.95 33.85 14.75 34.2 14.0 34.15 13.25 33.5 12.7 32.15 11.9 30.7 11.2 29.75 11.15 Q29.2 11.35 29.05 11.8 28.9 12.35 29.45 12.8 L29.75 13.05 29.5 13.25 Q29.15 13.7 29.05 14.25 28.8 15.5 29.4 16.25 29.8 16.65 30.55 16.85 32.1 17.15 32.75 16.1 L33.05 15.25 M31.65 20.2 L31.1 19.5 Q30.7 19.1 30.3 19.15 29.7 19.25 29.7 19.95 29.6 20.95 30.55 21.3 30.6 21.85 31.45 22.05 33.95 22.6 35.95 21.0 37.55 22.6 39.55 22.35 41.65 22.2 42.85 20.45 L43.15 19.8 Q43.25 19.35 42.9 19.1 L42.2 19.05 41.6 19.45 Q40.65 20.2 39.95 20.45 L38.35 20.4 Q37.55 20.1 37.05 19.45 L36.55 18.8 35.75 18.85 35.25 19.45 34.05 20.25 32.85 20.6 Q32.1 20.6 31.65 20.2 M40.4 15.95 L41.4 16.75 42.7 16.9 Q44.05 16.6 44.55 15.2 44.85 14.2 44.4 13.55 L43.8 12.9 44.4 12.6 Q45.25 12.1 45.05 11.5 45.0 10.9 44.2 10.9 43.95 10.9 43.15 11.25 L40.35 12.6 39.5 13.2 Q39.0 13.95 39.5 14.65 L40.15 15.05 40.4 15.95" fill="#000000" fill-rule="evenodd" stroke="none" />
      <path d="M40.4 15.95 L40.15 15.05 39.5 14.65 Q39.0 13.95 39.5 13.2 L40.35 12.6 43.15 11.25 Q43.95 10.9 44.2 10.9 45.0 10.9 45.05 11.5 45.25 12.1 44.4 12.6 L43.8 12.9 44.4 13.55 Q44.85 14.2 44.55 15.2 44.05 16.6 42.7 16.9 L41.4 16.75 40.4 15.95 M31.65 20.2 Q32.1 20.6 32.85 20.6 L34.05 20.25 35.25 19.45 35.75 18.85 36.55 18.8 37.05 19.45 Q37.55 20.1 38.35 20.4 L39.95 20.45 Q40.65 20.2 41.6 19.45 L42.2 19.05 42.9 19.1 Q43.25 19.35 43.15 19.8 L42.85 20.45 Q41.65 22.2 39.55 22.35 37.55 22.6 35.95 21.0 33.95 22.6 31.45 22.05 30.6 21.85 30.55 21.3 29.6 20.95 29.7 19.95 29.7 19.25 30.3 19.15 30.7 19.1 31.1 19.5 L31.65 20.2 M33.05 15.25 L32.75 16.1 Q32.1 17.15 30.55 16.85 29.8 16.65 29.4 16.25 28.8 15.5 29.05 14.25 29.15 13.7 29.5 13.25 L29.75 13.05 29.45 12.8 Q28.9 12.35 29.05 11.8 29.2 11.35 29.75 11.15 L30.7 11.2 32.15 11.9 33.5 12.7 34.15 13.25 34.2 14.0 33.85 14.75 33.1 14.95 33.05 15.25" fill="#ffffff" fill-rule="evenodd" stroke="none" />
    </g>
    <g id="shape2">
      <path d="M-0.5 -0.4 L-0.5 -0.55 75.1 -0.55 75.1 -0.4 75.1 40.8 -0.5 40.8 -0.5 -0.4 Z" fill="none" stroke="#000000" stroke-linecap="round" stroke-linejoin="round" stroke-width="3.0" />
    </g>
  </defs>
</svg>