<svg xmlns="http://www.w3.org/2000/svg" xmlns:ffdec="https://www.free-decompiler.com/flash" xmlns:xlink="http://www.w3.org/1999/xlink" ffdec:objectType="frame" viewBox="39.95 7.40 75.60 41.35">
  <g transform="matrix(1.0, 0.0, 0.0, 1.0, 40.45, 7.95)">
    <use ffdec:characterId="1" height="42.7" transform="matrix(1.0, 0.0, 0.0, 1.0, 0.0, 0.0)" width="76.45" xlink:href="#shape0" />
    <use ffdec:characterId="509" height="42.75" transform="matrix(1.0, 0.0, 0.0, 1.0, 0.0, 0.0)" width="77.05" xlink:href="#shape1" />
    <use ffdec:characterId="3" height="44.35" transform="matrix(1.0, 0.0, 0.0, 1.0, 0.0, 0.0)" width="78.6" xlink:href="#shape2" />
  </g>
  <defs>
    <g id="shape0">
      <path d="M2.8 0.0 L2.8 -0.4 5.4 -0.4 5.4 0.0 9.7 0.0 9.7 19.45 9.7 0.0 20.55 0.0 19.3 19.45 9.7 19.45 0.25 19.45 0.25 0.0 2.8 0.0" fill="#ffffff" fill-rule="evenodd" stroke="none" />
      <path d="M0.25 19.45 L9.7 19.45 19.3 19.45 18.7 28.6 16.0 28.5 10.95 27.95 9.7 27.8 Q7.45 27.6 5.85 27.75 4.05 27.9 1.5 28.6 0.75 28.8 0.25 29.15 L0.25 19.45 M9.7 19.45 L9.7 27.8 9.7 19.45" fill="#121212" fill-rule="evenodd" stroke="none" />
      <path d="M9.7 27.8 L10.95 27.95 16.0 28.5 18.7 28.6 19.75 28.6 23.5 28.75 Q25.95 29.05 27.1 30.0 27.7 30.5 27.7 31.1 27.7 31.75 26.9 32.1 L25.6 32.3 18.45 32.45 12.85 32.15 9.7 31.75 7.95 31.6 3.1 31.95 0.95 32.3 0.25 32.1 -0.35 31.55 -0.5 31.3 -0.5 29.9 0.25 29.15 Q0.75 28.8 1.5 28.6 4.05 27.9 5.85 27.75 7.45 27.6 9.7 27.8 L9.7 31.75 9.7 27.8" fill="#999999" fill-rule="evenodd" stroke="none" />
      <path d="M2.8 0.0 L0.25 0.0 M9.7 0.0 L5.4 0.0 M21.55 0.0 L32.25 0.0 M20.55 0.0 L9.7 0.0" fill="none" stroke="#666666" stroke-linecap="round" stroke-linejoin="round" stroke-width="4.0" />
      <path d="M9.7 -0.4 L74.7 -0.4 74.7 40.5 47.05 40.5 45.5 40.7 27.0 40.65 25.95 40.5 9.7 40.5 -0.5 40.5 -0.5 -0.4 9.7 -0.4 9.7 40.5 9.7 -0.4" fill="#ffffff" fill-rule="evenodd" stroke="none" />
    </g>
    <g id="shape1">
      <path d="M9.0 40.3 Q8.85 39.5 8.85 38.3 L8.85 36.15 8.75 35.2 8.75 34.2 8.85 32.1 Q7.8 30.9 7.0 29.25 5.75 26.65 5.75 23.65 L5.65 23.65 5.5 23.7 1.3 24.2 -0.45 24.05 -0.45 12.95 -0.05 12.8 5.5 12.4 7.4 12.8 8.5 13.25 Q11.0 8.8 14.95 5.45 L16.9 3.85 Q20.5 1.05 24.55 -0.45 L29.4 -0.45 74.85 -0.45 75.0 -0.4 75.0 10.3 75.0 13.0 73.05 16.75 Q72.5 20.35 70.65 24.5 69.8 26.45 68.65 28.1 L66.75 30.45 Q64.3 32.85 60.55 34.15 L57.35 35.0 56.4 35.2 52.8 35.55 52.2 35.55 52.35 36.35 52.35 36.4 52.5 38.2 53.0 39.05 53.35 40.3 42.5 40.3 42.4 38.95 Q42.3 37.5 42.7 34.6 L42.8 34.3 42.9 33.05 42.8 32.95 41.35 32.0 40.2 32.85 40.95 37.3 41.05 37.5 41.85 38.5 Q42.4 39.25 42.4 40.3 L30.8 40.3 Q30.55 39.35 30.7 38.2 L30.9 36.85 29.35 37.3 29.05 39.15 28.95 40.05 29.05 40.3 19.9 40.3 20.3 38.1 20.3 37.6 18.1 37.4 18.25 38.4 18.25 38.95 18.85 39.75 19.1 40.3 9.0 40.3" fill="#000000" fill-rule="evenodd" stroke="none" />
      <path d="M9.0 40.3 L-0.45 40.3 -0.45 37.7 -0.6 37.5 -0.7 37.35 -0.9 37.2 -1.0 37.0 -1.05 36.85 -1.15 36.7 -1.2 36.5 -1.25 36.35 -1.35 36.2 -1.35 36.0 -1.4 35.85 -1.4 35.7 -1.4 35.5 -1.45 35.35 -1.45 35.15 -1.45 35.0 -1.45 34.85 -1.45 34.65 -1.45 34.5 -1.45 34.35 -1.45 34.15 -1.45 34.0 -1.45 33.85 -1.45 33.65 -1.45 33.5 -1.45 33.35 -1.45 33.15 -1.45 33.0 -1.45 32.8 -1.45 32.65 -1.45 32.5 -1.45 32.3 -1.45 32.15 -1.45 32.0 -1.45 31.8 -1.45 31.65 -1.45 31.5 -1.45 31.3 -1.45 31.15 -1.45 30.95 -1.45 30.8 -1.45 30.65 -1.45 30.45 -1.45 30.3 -1.45 30.15 -1.45 29.95 -1.45 29.8 -1.45 29.65 -1.45 29.45 -1.45 29.3 -1.45 29.15 -1.45 28.95 -1.45 28.8 -1.45 28.6 -1.45 28.45 -1.45 28.3 -1.45 28.1 -1.45 27.95 -1.45 27.8 -1.45 27.6 -1.45 27.45 -1.45 27.3 -1.45 27.1 -1.45 26.95 -1.45 26.8 -1.45 26.6 -1.45 26.45 -1.45 26.25 -1.45 26.1 -1.45 25.95 -1.45 25.75 -1.45 25.6 -1.45 25.45 -1.45 25.25 -1.45 25.1 -1.45 24.95 -1.45 24.75 -1.45 24.6 -1.45 24.45 -1.45 24.25 -1.45 24.1 -1.45 23.9 -1.45 23.75 -1.45 23.6 -1.45 23.4 -1.45 23.25 -1.45 23.1 -1.45 22.9 -1.45 22.75 -1.45 22.6 -1.45 22.4 -1.45 22.25 -1.45 22.1 -1.45 21.9 -1.45 21.75 -1.45 21.55 -1.45 21.4 -1.45 21.25 -1.45 21.05 -1.45 20.9 -1.45 20.75 -1.45 20.55 -1.45 20.4 -1.45 20.25 -1.45 20.05 -1.45 19.9 -1.45 19.7 -1.45 19.55 -1.45 19.4 -1.45 19.2 -1.45 19.05 -1.45 18.9 -1.45 18.7 -1.45 18.55 -1.45 18.4 -1.45 18.2 -1.45 18.05 -1.45 17.9 -1.45 17.7 -1.45 17.55 -1.45 17.35 -1.45 17.2 -1.45 17.05 -1.45 16.85 -1.45 16.7 -1.45 16.55 -1.45 16.35 -1.45 16.2 -1.45 16.05 -1.45 15.85 -1.45 15.7 -1.45 15.55 -1.45 15.35 -1.45 15.2 -1.45 15.0 -1.45 14.85 -1.45 14.7 -1.45 14.5 -1.45 14.35 -1.45 14.2 -1.45 14.0 -1.45 13.85 -1.45 13.7 -1.45 13.5 -1.45 13.35 -1.45 13.2 -1.45 13.0 -1.45 12.85 -1.45 12.65 -1.45 12.5 -1.45 12.35 -1.45 12.15 -1.45 12.0 -1.45 11.85 -1.45 11.65 -1.45 11.5 -1.45 11.35 -1.45 11.15 -1.45 11.0 -1.45 10.8 -1.45 10.65 -1.45 10.5 -1.45 10.3 -1.45 10.15 -1.45 10.0 -1.45 9.8 -1.45 9.65 -1.45 9.5 -1.45 9.3 -1.45 9.15 -1.45 9.0 -1.45 8.8 -1.45 8.65 -1.45 8.45 -1.45 8.3 -1.45 8.15 -1.45 7.95 -1.45 7.8 -1.45 7.65 -1.45 7.45 -1.45 7.3 -1.45 7.15 -1.45 6.95 -1.45 6.8 -1.45 6.65 -1.45 6.45 -1.45 6.3 -1.45 6.1 -1.45 5.95 -1.45 5.8 -1.45 5.6 -1.45 5.45 -1.45 5.3 -1.45 5.1 -1.45 4.95 -1.45 4.8 -1.45 4.6 -1.45 4.45 -1.45 4.3 -1.45 4.1 -1.45 3.95 -1.45 3.75 -1.45 3.6 -1.45 3.45 -1.45 3.25 -1.45 3.1 -1.45 2.95 -1.45 2.75 -1.45 2.6 -1.45 2.45 -1.45 2.25 -1.45 2.1 -1.45 1.95 -1.45 1.75 -1.4 1.6 -1.4 1.4 -1.4 1.25 -1.35 1.1 -1.35 0.9 -1.25 0.75 -1.2 0.6 -1.15 0.4 -1.05 0.25 -1.0 0.1 -0.9 -0.1 -0.7 -0.25 -0.6 -0.45 -0.45 -0.6 -0.25 -0.75 -0.1 -0.95 0.15 -1.1 0.45 -1.25 0.8 -1.45 1.2 -1.55 1.4 -1.6 1.65 -1.6 2.05 -1.6 2.05 -1.65 2.25 -1.65 2.35 -1.65 2.6 -1.65 3.2 -1.6 26.9 -1.55 27.5 -1.5 27.7 -1.45 28.05 -1.3 28.45 -1.15 28.75 -1.0 28.95 -0.8 29.15 -0.65 29.35 -0.5 29.4 -0.45 24.55 -0.45 Q20.5 1.05 16.9 3.85 L14.95 5.45 Q11.0 8.8 8.5 13.25 L7.4 12.8 5.5 12.4 -0.05 12.8 -0.45 12.95 -0.45 24.05 1.3 24.2 5.5 23.7 5.65 23.65 5.75 23.65 Q5.75 26.65 7.0 29.25 7.8 30.9 8.85 32.1 L8.75 34.2 8.75 35.2 8.85 36.15 8.85 38.3 Q8.85 39.5 9.0 40.3 M75.0 10.3 L75.05 10.4 75.15 10.55 75.25 10.7 75.3 10.9 75.35 11.05 75.4 11.2 75.45 11.4 75.5 11.55 75.5 11.7 75.5 11.9 75.5 12.05 75.6 12.2 75.6 12.4 75.6 12.55 75.6 12.75 75.6 12.9 75.6 13.05 75.6 13.25 75.6 13.4 75.6 13.55 75.6 13.75 75.6 13.9 75.6 14.05 75.6 14.25 75.6 14.4 75.6 14.6 75.6 14.75 75.6 14.9 75.6 15.1 75.6 15.25 75.6 15.4 75.6 15.6 75.6 15.75 75.6 15.9 75.6 16.1 75.6 16.25 75.6 16.4 75.6 16.6 75.6 16.75 75.6 16.95 75.6 17.1 75.6 17.25 75.6 17.45 75.6 17.6 75.6 17.75 75.6 17.95 75.6 18.1 75.6 18.25 75.6 18.45 75.6 18.6 75.6 18.75 75.6 18.95 75.6 19.1 75.6 19.3 75.6 19.45 75.6 19.6 75.6 19.8 75.6 19.95 75.6 20.1 75.6 20.3 75.6 20.45 75.6 20.6 75.6 20.8 75.6 20.95 75.6 21.1 75.6 21.3 75.6 21.45 75.6 21.65 75.6 21.8 75.6 21.95 75.6 22.15 75.6 22.3 75.6 22.45 75.6 22.65 75.6 22.8 75.6 22.95 75.6 23.15 75.6 23.3 75.6 23.45 75.6 23.65 75.6 23.8 75.6 24.0 75.6 24.15 75.6 24.3 75.6 24.5 75.6 24.65 75.6 24.8 75.6 25.0 75.6 25.15 75.6 25.3 75.6 25.5 75.6 25.65 75.6 25.85 75.6 26.0 75.6 26.15 75.6 26.35 75.6 26.5 75.6 26.65 75.6 26.85 75.6 27.0 75.6 27.15 75.6 27.35 75.6 27.5 75.6 27.65 75.6 27.85 75.6 28.0 75.6 28.2 75.6 28.35 75.6 28.5 75.6 28.7 75.6 28.85 75.6 29.0 75.6 29.2 75.6 29.35 75.6 29.5 75.6 29.7 75.6 29.85 75.6 30.0 75.6 30.2 75.6 30.35 75.6 30.55 75.6 30.7 75.6 30.85 75.6 31.05 75.6 31.2 75.6 31.35 75.6 31.55 75.6 31.7 75.6 31.85 75.6 32.05 75.6 32.2 75.6 32.35 75.6 32.55 75.6 32.7 75.6 32.9 75.6 33.05 75.6 33.2 75.6 33.4 75.6 33.55 75.6 33.7 75.6 33.9 75.6 34.05 75.6 34.2 75.6 34.4 75.6 34.55 75.6 34.7 75.6 34.9 75.6 35.05 75.6 35.25 75.6 35.4 75.6 35.55 75.6 35.75 75.6 35.9 75.6 36.05 75.6 36.25 75.6 36.4 75.6 36.55 75.6 36.75 75.5 36.9 75.5 37.1 75.5 37.25 75.45 37.4 75.45 37.6 75.4 37.75 75.35 37.9 75.3 38.1 75.2 38.25 75.15 38.4 75.0 38.6 74.9 38.75 74.8 38.9 74.7 39.1 74.5 39.25 74.35 39.45 74.1 39.6 73.85 39.75 73.55 39.95 73.3 40.05 73.15 40.1 72.95 40.15 72.7 40.2 72.1 40.25 71.6 40.25 71.55 40.25 71.3 40.45 71.05 40.6 70.75 40.75 70.5 40.9 70.35 40.95 70.15 41.0 69.9 41.05 69.3 41.1 55.55 41.1 54.9 41.05 54.7 41.0 54.3 40.9 53.95 40.7 53.65 40.55 53.4 40.4 53.35 40.3 53.0 39.05 52.5 38.2 52.35 36.4 52.35 36.35 52.2 35.55 52.8 35.55 56.4 35.2 57.35 35.0 60.55 34.15 Q64.3 32.85 66.75 30.45 L68.65 28.1 Q69.8 26.45 70.65 24.5 72.5 20.35 73.05 16.75 L75.0 13.0 75.0 10.3 M42.5 40.3 L42.4 40.3 Q42.4 39.25 41.85 38.5 L41.05 37.5 40.95 37.3 40.2 32.85 41.35 32.0 42.8 32.95 42.9 33.05 42.8 34.3 42.7 34.6 Q42.3 37.5 42.4 38.95 L42.5 40.3 M30.8 40.3 L29.05 40.3 28.95 40.05 29.05 39.15 29.35 37.3 30.9 36.85 30.7 38.2 Q30.55 39.35 30.8 40.3 M19.9 40.3 L19.1 40.3 18.85 39.75 18.25 38.95 18.25 38.4 18.1 37.4 20.3 37.6 20.3 38.1 19.9 40.3" fill="#717171" fill-rule="evenodd" stroke="none" />
      <path d="M65.0 16.65 Q65.0 14.7 66.0 13.45 67.05 12.1 68.7 11.6 70.55 11.05 72.3 12.1 74.15 13.05 74.7 14.9 L75.0 16.65 Q74.8 18.0 74.4 18.8 L73.95 19.65 72.6 20.75 Q70.15 22.2 67.65 20.85 65.0 19.45 65.0 16.65 M47.15 20.05 Q47.45 18.8 48.55 19.0 49.3 19.0 50.55 19.75 L52.0 19.85 Q53.55 19.85 54.05 19.45 L56.0 18.1 Q57.05 17.55 57.95 18.3 L58.7 19.0 59.7 20.65 60.45 21.6 Q61.25 22.0 62.3 21.6 63.95 21.4 64.55 22.1 65.0 22.55 65.0 23.25 64.9 24.6 63.55 25.3 62.7 25.85 60.95 26.05 59.0 26.05 57.75 25.4 56.6 24.9 55.8 23.75 L55.6 23.25 Q53.85 23.95 52.3 23.95 49.7 24.2 47.95 22.4 46.7 21.3 47.15 20.05 M42.05 8.5 L43.2 7.65 Q44.85 6.65 46.5 6.85 48.15 6.95 49.6 8.4 51.75 10.45 50.95 13.45 50.1 16.55 47.15 17.05 44.15 17.8 42.05 15.5 L42.05 15.3 Q39.9 12.7 41.25 9.95 L41.45 9.4 42.05 8.7 42.05 8.5" fill="#ffffff" fill-rule="evenodd" stroke="none" />
    </g>
    <g id="shape2">
      <path d="M-0.5 -0.4 L-0.5 -0.55 75.1 -0.55 75.1 -0.4 75.1 40.8 -0.5 40.8 -0.5 -0.4 Z" fill="none" stroke="#000000" stroke-linecap="round" stroke-linejoin="round" stroke-width="3.0" />
    </g>
  </defs>
</svg>