<svg xmlns:ffdec="https://www.free-decompiler.com/flash" xmlns:xlink="http://www.w3.org/1999/xlink" ffdec:objecttype="frame" xmlns="http://www.w3.org/2000/svg" viewBox="-2 -1.85 77.57 42.9">   <g>     <use ffdec:characterid="1" height="42.7" width="76.45" xlink:href="#shape0"></use>     <use ffdec:characterid="456" height="43.0" width="77.55" xlink:href="#shape1"></use>     <use ffdec:characterid="3" height="44.35" width="78.6" xlink:href="#shape2"></use>   </g>   <defs>     <g id="shape0">       <path d="M2.8 0.0 L2.8 -0.4 5.4 -0.4 5.4 0.0 9.7 0.0 9.7 19.45 9.7 0.0 20.55 0.0 19.3 19.45 9.7 19.45 0.25 19.45 0.25 0.0 2.8 0.0" fill="#ffffff" fill-rule="evenodd" stroke="none"></path>       <path d="M0.25 19.45 L9.7 19.45 19.3 19.45 18.7 28.6 16.0 28.5 10.95 27.95 9.7 27.8 Q7.45 27.6 5.85 27.75 4.05 27.9 1.5 28.6 0.75 28.8 0.25 29.15 L0.25 19.45 M9.7 19.45 L9.7 27.8 9.7 19.45" fill="#121212" fill-rule="evenodd" stroke="none"></path>       <path d="M9.7 27.8 L10.95 27.95 16.0 28.5 18.7 28.6 19.75 28.6 23.5 28.75 Q25.95 29.05 27.1 30.0 27.7 30.5 27.7 31.1 27.7 31.75 26.9 32.1 L25.6 32.3 18.45 32.45 12.85 32.15 9.7 31.75 7.95 31.6 3.1 31.95 0.95 32.3 0.25 32.1 -0.35 31.55 -0.5 31.3 -0.5 29.9 0.25 29.15 Q0.75 28.8 1.5 28.6 4.05 27.9 5.85 27.75 7.45 27.6 9.7 27.8 L9.7 31.75 9.7 27.8" fill="#999999" fill-rule="evenodd" stroke="none"></path>       <path d="M2.8 0.0 L0.25 0.0 M9.7 0.0 L5.4 0.0 M21.55 0.0 L32.25 0.0 M20.55 0.0 L9.7 0.0" fill="none" stroke="#666666" stroke-linecap="round" stroke-linejoin="round" stroke-width="4.0"></path>       <path d="M9.7 -0.4 L74.7 -0.4 74.7 40.5 47.05 40.5 45.5 40.7 27.0 40.65 25.95 40.5 9.7 40.5 -0.5 40.5 -0.5 -0.4 9.7 -0.4 9.7 40.5 9.7 -0.4" fill="#ffffff" fill-rule="evenodd" stroke="none"></path>     </g>     <g id="shape1">       <path d="M24.9 37.35 Q21.2 35.75 19.6 33.95 16.7 30.8 16.7 24.6 16.7 19.2 18.85 14.4 L18.7 13.85 18.65 13.75 18.65 13.65 18.15 12.55 17.75 10.95 17.5 10.45 16.65 7.3 16.4 6.35 16.05 4.0 16.25 2.8 16.65 2.3 17.0 2.05 17.45 1.9 18.65 2.0 20.8 2.75 22.45 3.5 25.15 4.9 26.4 5.55 Q30.05 3.25 34.7 2.65 L37.5 2.45 Q40.65 2.4 43.3 3.2 L45.1 3.85 Q46.7 4.55 48.35 5.8 L49.4 5.3 51.9 4.3 53.35 3.8 55.0 3.2 55.55 2.95 57.3 2.25 Q58.5 2.05 59.05 2.7 59.65 3.35 59.45 4.5 L59.25 5.3 55.65 14.35 55.9 14.95 Q56.55 16.45 56.9 19.05 57.5 23.9 56.2 28.25 54.75 32.95 51.35 35.75 46.1 40.05 35.5 39.65 L30.1 39.05 Q27.9 38.6 24.9 37.35" fill="#000000" fill-rule="evenodd" stroke="none"></path>       <path d="M62.6 4.8 Q61.7 4.55 61.6 3.55 61.5 2.65 62.35 2.15 63.25 1.7 63.95 2.35 L64.4 3.3 Q64.5 3.9 64.1 4.35 63.5 5.15 62.6 4.8 M73.8 24.6 L71.95 24.65 Q71.0 24.05 71.25 22.95 71.4 21.9 72.5 21.7 73.6 21.45 74.2 22.4 74.55 22.9 74.4 23.6 74.3 24.2 73.8 24.6 M50.6 18.15 Q50.0 19.95 48.45 21.0 47.05 22.0 45.05 22.15 42.7 22.25 41.15 21.1 L39.8 19.7 39.0 18.35 Q38.75 17.6 38.85 16.5 38.95 15.0 39.3 14.1 39.85 12.5 41.3 11.4 42.7 10.3 44.45 10.15 46.15 10.0 47.75 10.85 49.35 11.65 50.15 13.15 L50.7 14.45 50.85 15.75 Q50.95 17.1 50.6 18.15 M48.2 17.85 Q49.05 16.05 48.1 14.45 47.25 12.8 45.25 12.55 43.35 12.4 42.1 13.9 L41.7 14.55 Q41.45 15.1 41.35 15.95 41.25 16.85 41.45 17.45 41.95 19.2 43.7 19.7 L46.3 19.6 Q47.6 19.05 48.2 17.85 M38.95 28.4 L39.5 28.75 41.35 28.85 Q42.35 28.6 42.9 28.1 L43.85 26.5 Q44.55 25.35 45.85 24.75 47.2 24.15 48.55 24.35 L49.85 24.55 Q50.8 24.5 51.4 23.55 51.8 22.75 51.65 21.75 L51.25 20.0 Q51.05 18.95 51.55 18.3 51.85 17.95 52.35 17.85 52.85 17.75 53.2 18.05 L53.3 18.7 53.0 19.6 53.8 20.25 54.25 21.15 54.25 21.2 Q54.55 22.2 54.25 23.3 53.85 25.05 52.55 26.15 51.1 27.35 49.3 27.2 L47.6 27.1 Q46.8 27.35 46.25 28.35 L45.35 29.95 Q44.35 31.35 41.55 31.7 38.7 32.05 37.1 30.85 L36.25 30.0 Q35.65 29.5 35.15 29.35 L33.25 29.55 Q32.7 29.8 31.6 30.55 30.0 31.65 28.6 31.7 26.9 31.7 24.95 30.15 L24.3 29.65 24.35 30.55 24.5 31.75 24.5 31.9 24.5 32.35 24.05 33.35 23.1 33.9 22.0 33.7 Q21.5 33.45 21.3 32.9 21.0 32.3 21.3 30.95 L21.95 27.8 22.05 25.8 22.15 24.05 21.7 23.65 20.15 23.4 Q19.3 23.5 19.0 23.05 L18.85 22.75 Q18.65 22.05 19.65 21.55 L21.35 21.25 23.0 21.55 Q24.65 22.25 25.05 23.95 L25.25 25.15 Q25.3 25.85 25.5 26.3 25.85 27.0 27.05 27.75 28.1 28.4 28.8 28.35 L29.85 27.95 30.85 27.35 Q32.4 26.25 34.15 26.1 L36.3 26.35 36.4 26.3 Q37.05 25.75 37.1 25.25 L37.2 24.55 Q37.2 24.1 37.6 23.95 37.95 23.8 38.3 24.15 L38.6 24.75 38.8 26.25 38.5 27.5 38.35 27.85 38.5 28.0 38.95 28.4 M28.4 13.8 Q29.6 14.4 30.15 15.55 30.7 16.75 30.45 18.0 30.3 19.3 29.35 20.25 28.55 21.15 27.15 21.4 L24.6 21.25 23.55 20.75 Q22.65 20.15 22.25 19.05 21.95 17.9 22.15 16.85 22.45 15.15 23.85 14.25 L24.65 13.85 Q26.8 13.05 28.4 13.8 M27.5 18.0 Q27.7 17.45 27.5 16.9 L26.8 16.1 25.75 15.9 24.8 16.45 Q24.45 16.85 24.45 17.45 24.45 18.05 24.8 18.45 L25.75 18.95 26.8 18.8 27.2 18.5 27.5 18.0 M2.6 24.55 Q3.05 24.95 3.15 25.6 3.25 26.3 2.95 26.8 L2.05 27.55 0.85 27.6 -0.05 26.9 -0.4 25.75 Q-0.35 25.15 0.1 24.65 0.55 24.2 1.15 24.1 2.0 24.0 2.6 24.55" fill="#ffffff" fill-rule="evenodd" stroke="none"></path>       <path d="M67.6 15.7 L67.45 15.9 66.2 17.05 64.6 17.35 63.4 16.95 61.8 15.95 Q60.9 15.15 60.55 13.9 60.3 12.65 60.75 11.6 L61.65 10.3 64.45 6.7 66.05 5.2 Q67.1 4.45 68.1 4.45 69.65 4.4 70.55 5.7 71.5 6.85 71.4 8.35 71.35 9.3 70.65 10.7 L70.05 11.8 69.1 13.45 67.6 15.7 M64.75 5.0 Q63.9 5.85 62.75 5.7 61.65 5.65 60.95 4.6 60.55 3.85 60.7 2.9 60.9 1.95 61.6 1.45 62.3 0.95 63.25 1.05 64.2 1.15 64.75 1.8 65.35 2.45 65.35 3.4 65.3 4.35 64.75 5.0 M62.6 4.8 Q63.5 5.15 64.1 4.35 64.5 3.9 64.4 3.3 L63.95 2.35 Q63.25 1.7 62.35 2.15 61.5 2.65 61.6 3.55 61.7 4.55 62.6 4.8 M64.5 14.85 Q64.95 15.0 65.7 14.45 L66.85 13.1 66.45 12.9 Q64.8 12.05 63.95 11.0 L63.4 12.05 63.0 12.65 62.85 13.4 Q62.85 14.0 63.1 14.2 L63.8 14.55 64.5 14.85 M68.65 7.25 L68.55 7.1 67.85 6.8 67.25 7.0 66.7 7.45 65.75 8.4 64.7 9.75 65.45 10.5 67.4 11.75 67.65 11.8 67.65 11.75 68.9 8.85 68.85 7.9 68.65 7.25 M66.65 22.05 L66.2 22.35 65.9 22.65 Q65.55 23.0 65.2 22.65 64.85 22.3 65.05 21.95 L65.3 21.6 65.55 20.9 65.8 20.45 Q66.25 19.9 66.6 19.85 L67.2 19.9 67.65 20.4 Q67.8 20.9 67.45 21.4 L66.65 22.05 M62.3 22.6 L61.85 22.25 Q61.5 22.0 61.5 21.55 61.45 21.1 61.7 20.75 61.95 20.4 62.4 20.35 L63.2 20.5 63.65 21.0 64.2 21.85 64.45 22.3 Q64.6 22.65 64.3 23.0 64.05 23.35 63.6 23.25 L62.3 22.6 M66.15 26.05 L65.45 25.45 64.8 24.5 Q64.65 24.05 64.85 23.7 65.05 23.35 65.45 23.35 L66.25 23.45 67.5 24.15 67.9 24.55 Q68.15 25.15 68.0 25.6 67.75 26.25 67.2 26.3 66.75 26.45 66.15 26.05 M63.4 26.95 Q62.9 27.45 62.3 27.3 61.6 27.05 61.45 26.4 61.35 25.7 61.85 25.2 L62.25 24.95 Q62.6 24.1 63.45 24.3 L63.55 24.35 63.95 24.4 64.3 24.85 64.3 25.0 64.35 25.45 63.8 26.45 63.4 26.95 M69.85 24.55 L69.6 23.8 69.55 23.35 Q69.55 22.5 70.05 21.7 70.55 20.95 71.35 20.55 L73.1 20.4 Q74.0 20.55 74.65 21.15 75.3 21.75 75.5 22.65 75.7 23.55 75.35 24.35 75.05 25.2 74.3 25.7 73.55 26.25 72.65 26.3 71.8 26.35 71.0 25.85 70.25 25.35 69.85 24.55 M73.8 24.6 Q74.3 24.2 74.4 23.6 74.55 22.9 74.2 22.4 73.6 21.45 72.5 21.7 71.4 21.9 71.25 22.95 71.0 24.05 71.95 24.65 L73.8 24.6 M48.2 17.85 Q47.6 19.05 46.3 19.6 L43.7 19.7 Q41.95 19.2 41.45 17.45 41.25 16.85 41.35 15.95 41.45 15.1 41.7 14.55 L42.1 13.9 Q43.35 12.4 45.25 12.55 47.25 12.8 48.1 14.45 49.05 16.05 48.2 17.85 M46.45 14.6 Q45.5 13.75 44.4 14.15 43.75 14.35 43.3 14.95 42.9 15.5 42.95 16.2 42.95 16.9 43.4 17.45 43.9 18.0 44.55 18.15 L45.85 18.0 46.85 17.1 Q47.15 16.5 47.05 15.8 46.95 15.1 46.45 14.6 M53.3 18.7 L53.8 18.9 Q54.0 19.65 53.8 20.25 L53.0 19.6 53.3 18.7 M54.25 21.15 L54.85 22.35 Q55.15 23.45 54.85 24.65 54.45 26.55 53.1 27.75 51.65 29.05 49.8 28.9 L48.05 28.8 Q47.2 29.05 46.65 30.15 L45.75 31.9 Q44.7 33.45 41.85 33.85 38.9 34.2 37.3 32.9 L36.4 31.95 35.3 31.25 33.35 31.45 31.65 32.55 Q30.0 33.75 28.55 33.8 26.8 33.8 24.8 32.15 L24.5 31.9 24.5 31.75 24.35 30.55 24.3 29.65 24.95 30.15 Q26.9 31.7 28.6 31.7 30.0 31.65 31.6 30.55 32.7 29.8 33.25 29.55 L35.15 29.35 Q35.65 29.5 36.25 30.0 L37.1 30.85 Q38.7 32.05 41.55 31.7 44.35 31.35 45.35 29.95 L46.25 28.35 Q46.8 27.35 47.6 27.1 L49.3 27.2 Q51.1 27.35 52.55 26.15 53.85 25.05 54.25 23.3 54.55 22.2 54.25 21.2 L54.25 21.15 M22.05 25.8 L21.5 25.0 19.9 24.75 Q18.75 24.85 18.55 24.05 18.4 23.5 19.0 23.05 19.3 23.5 20.15 23.4 L21.7 23.65 22.15 24.05 22.05 25.8 M38.8 26.25 Q39.1 27.3 38.95 28.4 L38.5 28.0 38.35 27.85 38.5 27.5 38.8 26.25 M70.25 29.8 L70.75 30.9 71.2 32.75 Q71.3 33.95 70.65 35.05 69.95 36.1 68.85 36.55 L67.35 36.85 62.8 37.4 60.6 37.35 Q59.35 37.1 58.65 36.4 57.5 35.35 57.75 33.8 57.9 32.35 59.05 31.35 60.05 30.45 62.45 29.85 L64.25 29.35 67.15 28.75 68.85 28.85 Q69.85 29.1 70.25 29.8 M60.75 33.15 L60.5 33.45 Q60.2 33.85 60.2 34.2 L60.45 34.9 61.0 35.2 61.75 35.3 63.05 35.3 64.75 35.05 64.6 32.7 64.25 31.75 64.15 31.55 64.1 31.55 61.65 32.5 61.15 32.75 60.75 33.15 M68.75 32.1 L68.55 31.6 Q68.3 31.15 67.4 31.05 L65.6 31.15 65.75 31.6 66.0 32.45 Q66.3 33.65 66.2 34.7 L67.35 34.4 68.0 34.25 68.65 33.8 69.05 33.0 68.8 32.3 68.75 32.1 M27.5 18.0 L27.2 18.5 26.8 18.8 25.75 18.95 24.8 18.45 Q24.45 18.05 24.45 17.45 24.45 16.85 24.8 16.45 L25.75 15.9 26.8 16.1 27.5 16.9 Q27.7 17.45 27.5 18.0 M13.6 11.4 L14.2 12.1 Q14.9 13.1 14.9 14.4 14.85 15.65 14.1 16.6 L12.95 17.6 9.3 20.35 7.35 21.4 5.2 21.55 Q3.65 21.2 3.1 19.75 2.5 18.4 3.0 17.0 3.4 15.7 5.2 14.0 L6.5 12.65 8.7 10.7 9.25 10.35 10.25 9.95 11.95 10.05 Q12.4 10.25 12.9 10.75 L13.6 11.4 M5.95 5.3 Q5.5 5.3 5.3 4.7 5.05 4.3 5.15 3.9 L5.35 2.7 5.75 2.15 6.35 2.1 Q6.65 2.15 6.8 2.45 L6.95 2.9 6.95 4.2 6.65 4.8 5.95 5.3 M9.75 4.5 Q10.3 5.05 9.9 5.7 9.7 6.05 9.2 6.2 L8.3 6.2 7.2 6.05 Q6.8 5.85 6.8 5.3 L6.9 5.0 Q7.05 4.8 7.35 4.7 L8.55 4.25 Q9.25 4.1 9.75 4.5 M6.5 7.8 L6.45 8.7 Q6.35 9.25 5.9 9.4 5.35 9.6 5.0 9.05 4.85 8.85 4.85 7.95 L4.95 6.8 Q4.95 6.45 5.1 6.15 5.4 5.8 5.75 5.85 L6.3 6.25 6.4 6.7 6.5 7.8 M4.1 6.2 L3.25 6.3 2.7 6.25 Q2.25 6.2 2.1 5.7 1.95 5.3 2.2 4.9 2.5 4.45 3.45 4.45 L4.1 4.6 4.5 4.85 4.85 5.45 4.65 5.75 4.1 6.2 M12.15 13.1 L11.95 12.9 11.35 12.45 10.05 12.55 Q9.25 13.0 8.55 13.55 L8.95 13.85 9.55 14.5 10.9 16.3 11.75 15.5 12.2 15.0 12.55 14.3 Q12.7 13.7 12.5 13.45 L12.15 13.1 M8.5 15.45 L7.7 14.75 7.5 14.6 7.45 14.6 5.5 17.15 5.3 18.05 5.3 18.5 5.45 18.85 6.0 19.35 6.65 19.35 7.35 19.05 8.45 18.4 9.8 17.35 8.5 15.45 M3.65 23.25 Q4.95 24.15 4.85 25.8 4.85 27.3 3.45 28.25 L0.6 28.4 -0.6 27.4 Q-1.15 26.6 -1.1 25.65 -1.2 24.05 0.3 23.1 1.05 22.6 2.0 22.65 2.95 22.7 3.65 23.25 M2.6 24.55 Q2.0 24.0 1.15 24.1 0.55 24.2 0.1 24.65 -0.35 25.15 -0.4 25.75 L-0.05 26.9 0.85 27.6 2.05 27.55 2.95 26.8 Q3.25 26.3 3.15 25.6 3.05 24.95 2.6 24.55 M11.45 21.75 Q11.85 21.7 12.1 21.95 L12.4 22.55 12.45 23.25 12.5 23.65 12.4 24.2 Q12.25 24.65 11.7 24.75 11.25 24.85 10.85 24.45 L10.65 23.85 10.7 23.7 10.7 22.95 11.05 22.2 11.45 21.75 M15.05 24.25 Q15.5 24.9 14.95 25.45 14.5 25.95 13.8 25.95 L13.0 25.9 12.2 25.55 12.0 25.1 12.1 24.8 Q12.25 24.3 13.15 24.0 L14.15 23.8 Q14.75 23.8 15.05 24.25 M12.7 28.6 Q12.05 29.25 11.35 28.6 L10.9 27.6 10.85 27.25 10.95 26.5 11.15 26.0 11.6 25.65 12.2 25.75 12.7 26.45 13.05 27.55 Q13.15 28.15 12.7 28.6 M9.55 24.65 L10.35 24.75 10.7 24.75 Q11.3 24.95 11.15 25.55 10.95 26.1 10.35 26.0 9.95 26.5 9.25 26.5 L8.65 26.4 Q8.1 26.2 8.2 25.65 8.15 25.35 8.45 25.05 8.6 24.9 9.0 24.8 L9.55 24.65 M9.3 32.25 L9.25 32.25 9.15 32.45 Q8.55 33.35 8.65 35.75 L10.35 36.0 11.65 36.0 12.4 35.9 12.95 35.6 13.2 34.9 12.9 34.15 12.25 33.45 11.75 33.2 9.3 32.25 M15.7 35.15 Q15.65 35.95 15.2 36.6 L14.75 37.1 Q14.05 37.8 12.8 38.05 L10.6 38.1 6.05 37.55 4.55 37.25 4.35 37.2 Q3.4 36.7 2.75 35.75 2.35 35.05 2.25 34.3 L2.2 33.45 Q2.25 32.8 2.65 31.6 2.85 30.9 3.15 30.5 3.55 29.8 4.55 29.55 L6.25 29.45 9.15 30.05 10.95 30.55 Q13.35 31.15 14.35 32.05 15.5 33.05 15.65 34.5 L15.7 35.15 M4.9 32.25 L4.85 32.3 4.6 33.0 4.35 33.7 Q4.3 34.05 4.75 34.5 L5.4 34.95 6.05 35.1 7.2 35.4 Q7.1 34.2 7.55 32.7 L7.65 32.3 7.8 31.85 6.0 31.75 Q5.15 31.85 4.9 32.25" fill="#000000" fill-rule="evenodd" stroke="none"></path>       <path d="M26.85 -1.8 L26.9 -1.85 Q28.05 -1.85 28.9 -1.0 L29.0 -0.85 Q30.0 0.25 29.6 1.65 29.3 3.05 27.9 3.6 26.55 4.1 25.35 3.3 24.2 2.5 24.1 1.0 L24.15 0.6 Q24.3 -0.95 25.85 -1.65 L26.85 -1.8 M52.75 -1.35 L54.05 -0.7 54.8 0.55 Q54.95 1.25 54.7 2.0 L53.8 3.15 Q53.1 3.6 52.25 3.55 51.4 3.5 50.8 3.0 50.15 2.5 49.95 1.7 49.75 0.85 50.1 0.1 50.45 -0.65 51.2 -1.05 L52.75 -1.35 M70.65 10.7 L71.15 10.85 Q72.65 11.45 72.95 12.95 73.35 14.45 72.35 15.65 71.35 16.9 69.85 16.8 68.85 16.8 68.05 16.15 L67.6 15.7 69.1 13.45 70.05 11.8 70.65 10.7 M65.45 10.5 L65.4 9.9 Q65.45 9.15 66.1 8.35 67.0 7.15 67.95 7.1 L68.65 7.25 68.85 7.9 68.9 8.85 67.65 11.75 67.65 11.8 67.4 11.75 65.45 10.5 M46.45 14.6 Q46.95 15.1 47.05 15.8 47.15 16.5 46.85 17.1 L45.85 18.0 44.55 18.15 Q43.9 18.0 43.4 17.45 42.95 16.9 42.95 16.2 42.9 15.5 43.3 14.95 43.75 14.35 44.4 14.15 45.5 13.75 46.45 14.6 M59.05 15.3 Q59.75 15.3 60.35 15.8 60.95 16.3 61.0 17.0 61.1 17.7 60.65 18.35 60.2 19.0 59.5 19.15 58.35 19.5 57.55 18.5 56.7 17.6 57.3 16.4 57.8 15.3 59.05 15.3 M64.6 32.7 L64.75 35.05 63.05 35.3 61.75 35.3 61.0 35.2 60.45 34.9 60.2 34.2 Q60.2 33.85 60.5 33.45 L60.75 33.15 61.05 33.1 63.1 32.9 64.6 32.7 M52.85 40.0 L52.5 39.5 Q52.2 38.9 52.2 38.2 52.25 37.35 52.7 36.65 53.15 35.95 53.85 35.6 55.5 34.85 56.95 35.95 58.35 37.1 57.95 38.85 57.55 40.6 55.75 41.05 L54.15 40.95 Q53.35 40.65 52.85 40.0 M66.0 32.45 L66.05 32.4 67.4 32.05 68.75 32.1 68.8 32.3 69.05 33.0 68.65 33.8 68.0 34.25 67.35 34.4 66.2 34.7 Q66.3 33.65 66.0 32.45 M9.25 10.35 Q8.85 9.6 8.85 8.85 8.85 7.5 9.95 6.55 11.05 5.65 12.45 5.9 13.9 6.25 14.5 7.4 15.15 8.65 14.7 9.9 14.35 10.9 13.6 11.4 L12.9 10.75 Q12.4 10.25 11.95 10.05 L10.25 9.95 9.25 10.35 M2.3 15.35 L1.3 15.65 0.25 15.6 Q-0.75 15.4 -1.35 14.6 -2.0 13.8 -2.0 12.8 -2.0 11.9 -1.45 11.1 -0.9 10.4 0.0 10.1 L0.7 9.95 1.35 10.0 Q2.65 10.15 3.35 11.25 4.0 12.2 3.75 13.5 3.45 14.7 2.3 15.35 M9.55 14.5 L10.8 13.35 12.0 13.05 12.15 13.1 12.5 13.45 Q12.7 13.7 12.55 14.3 L12.2 15.0 11.75 15.5 10.9 16.3 9.55 14.5 M5.3 18.5 L5.75 17.7 6.9 16.85 8.5 15.45 9.8 17.35 8.45 18.4 7.35 19.05 6.65 19.35 6.0 19.35 5.45 18.85 5.3 18.5 M15.2 36.6 Q15.65 35.95 15.7 35.15 16.05 34.7 16.6 34.4 L19.25 34.45 Q20.0 34.95 20.3 35.7 20.7 36.5 20.45 37.3 20.1 38.85 18.7 39.3 17.3 39.8 16.15 38.8 15.1 37.95 15.2 36.6 M2.25 34.3 Q2.35 35.05 2.75 35.75 3.4 36.7 4.35 37.2 4.35 38.7 3.0 39.5 L0.05 39.6 Q-1.45 38.75 -1.45 37.05 L-1.4 36.5 -1.2 35.95 -0.8 35.2 Q0.2 34.05 1.7 34.2 L2.25 34.3 M7.55 32.7 Q7.1 34.2 7.2 35.4 L6.05 35.1 5.4 34.95 4.75 34.5 Q4.3 34.05 4.35 33.7 L4.6 33.0 4.85 32.3 4.9 32.25 5.7 32.15 Q6.85 32.15 7.55 32.7" fill="#717171" fill-rule="evenodd" stroke="none"></path>     </g>     <g id="shape2">       <path d="M-0.5 -0.4 L-0.5 -0.55 75.1 -0.55 75.1 -0.4 75.1 40.8 -0.5 40.8 -0.5 -0.4 Z" fill="none" stroke="#000000" stroke-linecap="round" stroke-linejoin="round" stroke-width="3.0"></path>     </g>   </defs> </svg>