<svg xmlns:ffdec="https://www.free-decompiler.com/flash" xmlns:xlink="http://www.w3.org/1999/xlink" ffdec:objecttype="frame" xmlns="http://www.w3.org/2000/svg" viewBox="-2 -2 78.77 44.45">   <g>     <use ffdec:characterid="1" height="42.7" width="76.45" xlink:href="#shape0"></use>     <use ffdec:characterid="386" height="44.5" width="78.75" xlink:href="#shape1"></use>     <use ffdec:characterid="3" height="44.35" width="78.6" xlink:href="#shape2"></use>   </g>   <defs>     <g id="shape0">       <path d="M2.8 0.0 L2.8 -0.4 5.4 -0.4 5.4 0.0 9.7 0.0 9.7 19.45 9.7 0.0 20.55 0.0 19.3 19.45 9.7 19.45 0.25 19.45 0.25 0.0 2.8 0.0" fill="#ffffff" fill-rule="evenodd" stroke="none"></path>       <path d="M0.25 19.45 L9.7 19.45 19.3 19.45 18.7 28.6 16.0 28.5 10.95 27.95 9.7 27.8 Q7.45 27.6 5.85 27.75 4.05 27.9 1.5 28.6 0.75 28.8 0.25 29.15 L0.25 19.45 M9.7 19.45 L9.7 27.8 9.7 19.45" fill="#121212" fill-rule="evenodd" stroke="none"></path>       <path d="M9.7 27.8 L10.95 27.95 16.0 28.5 18.7 28.6 19.75 28.6 23.5 28.75 Q25.95 29.05 27.1 30.0 27.7 30.5 27.7 31.1 27.7 31.75 26.9 32.1 L25.6 32.3 18.45 32.45 12.85 32.15 9.7 31.75 7.95 31.6 3.1 31.95 0.95 32.3 0.25 32.1 -0.35 31.55 -0.5 31.3 -0.5 29.9 0.25 29.15 Q0.75 28.8 1.5 28.6 4.05 27.9 5.85 27.75 7.45 27.6 9.7 27.8 L9.7 31.75 9.7 27.8" fill="#999999" fill-rule="evenodd" stroke="none"></path>       <path d="M2.8 0.0 L0.25 0.0 M9.7 0.0 L5.4 0.0 M21.55 0.0 L32.25 0.0 M20.55 0.0 L9.7 0.0" fill="none" stroke="#666666" stroke-linecap="round" stroke-linejoin="round" stroke-width="4.0"></path>       <path d="M9.7 -0.4 L74.7 -0.4 74.7 40.5 47.05 40.5 45.5 40.7 27.0 40.65 25.95 40.5 9.7 40.5 -0.5 40.5 -0.5 -0.4 9.7 -0.4 9.7 40.5 9.7 -0.4" fill="#ffffff" fill-rule="evenodd" stroke="none"></path>     </g>     <g id="shape1">       <path d="M16.65 2.3 L17.0 2.05 17.45 1.9 18.65 2.0 20.8 2.75 21.55 3.05 22.45 3.5 23.4 3.95 23.55 3.45 24.1 2.7 Q24.6 2.2 25.0 2.1 L26.05 2.2 26.5 2.4 27.5 1.55 28.4 1.1 28.65 1.05 29.6 0.95 Q31.3 1.0 32.45 1.55 33.3 1.9 33.85 2.55 L34.05 2.75 34.7 2.65 37.35 2.45 37.5 2.45 40.75 2.65 42.45 2.95 Q42.8 2.3 43.4 2.0 44.6 1.4 46.1 2.0 47.3 2.5 47.8 3.5 L48.0 3.85 Q48.35 4.65 48.0 5.55 L48.35 5.8 49.4 5.3 51.3 4.5 51.45 4.15 51.85 3.6 Q52.35 2.9 53.1 2.65 54.35 2.2 55.2 3.05 L55.25 3.1 55.55 2.95 57.3 2.25 Q58.5 2.05 59.05 2.7 59.65 3.35 59.45 4.5 L59.25 5.3 58.55 7.1 55.65 14.35 55.9 14.95 56.3 16.1 57.65 16.3 Q58.75 16.75 59.05 17.95 L59.05 18.1 59.0 19.3 58.45 20.3 Q57.9 21.0 57.1 21.25 L57.1 22.8 56.65 26.55 56.3 28.05 56.55 28.25 Q57.4 28.9 57.65 29.55 L57.8 30.2 57.8 30.75 57.8 31.5 57.8 31.65 57.5 33.1 57.1 33.6 56.25 34.4 Q54.9 35.2 53.25 34.7 L52.75 34.5 51.35 35.75 49.3 37.15 Q44.2 40.0 35.5 39.65 L33.45 39.5 30.6 39.15 30.5 39.3 30.0 39.95 29.65 40.15 Q28.4 40.7 27.35 39.65 L27.0 39.1 Q26.75 38.6 26.85 38.1 L25.05 37.4 24.45 37.75 23.8 38.1 23.5 38.15 22.45 38.2 20.95 38.05 19.95 37.45 18.95 36.5 Q18.45 35.95 18.4 35.3 L18.55 34.2 18.75 33.55 18.95 33.2 18.35 32.2 Q17.5 30.7 17.1 28.75 16.35 28.6 15.7 28.05 L15.05 27.15 15.0 27.1 Q14.75 26.45 15.0 25.7 15.25 25.0 15.85 24.55 16.25 24.2 16.7 24.1 L16.7 23.9 Q15.55 23.7 14.8 22.75 13.9 21.6 14.35 20.25 L14.7 19.55 14.3 18.75 14.25 18.7 Q13.95 17.75 14.35 16.7 L14.6 16.1 15.05 15.5 15.5 14.85 Q15.65 14.7 16.25 14.45 L17.1 14.0 17.5 13.95 17.85 13.85 18.7 13.9 18.7 13.85 18.65 13.75 18.65 13.65 18.15 12.55 17.75 10.95 17.5 10.45 17.25 9.4 17.2 9.4 15.7 9.05 Q14.45 8.3 14.65 6.9 14.9 5.45 16.2 5.2 L16.1 4.35 16.05 4.0 16.25 2.8 16.65 2.3 M63.1 15.75 L62.9 16.5 62.25 17.1 61.5 17.15 61.3 17.1 Q60.65 16.95 60.1 16.5 L59.6 16.05 59.45 15.4 59.9 14.9 60.55 14.7 61.8 14.6 Q62.55 14.7 62.9 15.2 L63.0 15.4 63.1 15.75 M9.25 16.3 L8.65 16.05 8.2 15.2 Q8.2 14.7 8.5 14.3 8.75 13.85 9.25 13.8 L9.75 13.85 Q10.55 14.0 10.7 14.9 10.8 15.7 10.1 16.15 L9.25 16.3 M59.7 13.25 L59.3 13.6 58.6 13.55 Q58.25 13.3 58.25 12.9 L58.45 12.15 58.55 11.4 Q58.65 10.9 59.05 10.6 59.45 10.25 59.95 10.25 L60.1 10.25 60.85 10.6 Q61.25 10.95 61.3 11.45 61.4 11.95 61.1 12.4 L60.35 13.0 59.7 13.25 M15.4 29.8 L16.1 30.7 Q16.35 31.45 16.0 32.25 15.65 33.05 14.9 33.35 L14.1 33.55 Q13.35 33.55 12.75 33.05 L12.1 32.0 Q11.9 31.25 12.3 30.45 12.7 29.7 13.45 29.45 L15.0 29.55 15.4 29.8 M7.55 29.85 Q7.0 29.65 6.8 29.15 6.6 28.65 6.8 28.05 L7.55 27.2 8.4 26.9 9.25 26.6 10.25 26.35 10.7 26.55 10.75 26.6 10.85 27.0 10.35 27.45 Q9.95 27.75 9.6 28.55 L8.85 29.65 Q8.3 30.05 7.7 29.9 L7.55 29.85" fill="#000000" fill-rule="evenodd" stroke="none"></path>       <path d="M5.9 -0.4 L6.05 1.05 Q5.9 1.85 5.35 2.35 4.6 2.95 3.35 3.05 2.25 3.05 1.7 2.55 1.05 1.95 1.1 1.15 1.1 0.25 1.85 -0.15 L2.7 -0.6 3.5 -1.3 4.9 -1.4 Q5.6 -1.1 5.9 -0.4 M16.1 4.35 L15.5 5.0 14.55 5.7 9.5 5.55 8.65 5.0 8.0 4.2 7.6 3.45 7.5 2.25 7.7 1.0 Q7.85 0.35 8.45 -0.05 L9.35 -0.45 10.05 -1.0 11.1 -1.25 12.6 -1.25 13.5 -0.95 14.75 -0.35 15.5 0.1 16.0 0.7 16.5 1.65 16.65 2.3 16.25 2.8 16.05 4.0 16.1 4.35 M21.55 3.05 L21.5 2.75 21.75 1.45 Q21.95 0.75 22.25 0.35 L23.3 -0.5 Q24.85 -1.35 25.9 -1.0 L26.75 -0.65 Q28.2 0.15 28.6 0.95 L28.65 1.05 28.4 1.1 27.5 1.55 26.5 2.4 26.05 2.2 25.0 2.1 Q24.6 2.2 24.1 2.7 L23.55 3.45 23.4 3.95 22.45 3.5 21.55 3.05 M32.45 1.55 L32.7 1.2 Q33.5 0.3 34.4 0.1 L35.8 0.05 Q36.85 0.3 37.2 1.1 37.45 1.65 37.35 2.45 L34.7 2.65 34.05 2.75 33.85 2.55 Q33.3 1.9 32.45 1.55 M40.75 2.65 L40.75 2.6 41.0 1.6 Q41.25 0.95 42.1 0.15 L43.05 -0.45 43.75 -0.65 46.25 -0.4 Q48.1 0.35 48.3 1.95 48.5 2.9 48.0 3.85 L47.8 3.5 Q47.3 2.5 46.1 2.0 44.6 1.4 43.4 2.0 42.8 2.3 42.45 2.95 L40.75 2.65 M51.85 3.6 L51.3 2.55 51.15 2.1 Q51.05 1.45 51.3 0.9 51.75 0.1 52.4 -0.1 L55.6 -1.15 56.7 -1.25 58.35 -1.2 60.0 -0.3 61.1 0.75 Q61.8 1.8 61.2 3.0 60.7 4.0 59.45 4.5 59.65 3.35 59.05 2.7 58.5 2.05 57.3 2.25 L55.55 2.95 55.25 3.1 55.2 3.05 Q54.35 2.2 53.1 2.65 52.35 2.9 51.85 3.6 M58.55 7.1 L61.75 7.2 Q62.55 7.35 63.05 7.7 L63.9 8.5 Q64.65 9.25 65.0 10.1 L65.15 11.65 Q65.05 13.05 64.35 14.15 L63.65 14.9 63.1 15.75 63.0 15.4 62.9 15.2 Q62.55 14.7 61.8 14.6 L60.55 14.7 59.9 14.9 59.45 15.4 59.6 16.05 60.1 16.5 Q60.65 16.95 61.3 17.1 L59.55 17.85 59.05 17.95 Q58.75 16.75 57.65 16.3 L56.3 16.1 55.9 14.95 55.65 14.35 58.55 7.1 M59.0 19.3 L59.55 19.15 61.15 19.2 62.5 19.55 Q63.35 19.95 64.2 20.7 L64.85 21.4 64.85 21.3 Q65.05 19.9 65.75 19.2 L66.7 18.5 Q68.65 17.45 70.65 18.0 71.15 18.05 71.75 18.4 L72.45 19.05 Q73.25 20.05 73.45 21.0 L73.6 21.9 73.55 22.8 73.3 23.7 72.85 24.75 72.1 25.6 70.85 26.55 Q71.95 28.15 71.8 29.65 L71.5 30.75 Q70.95 32.35 70.2 33.25 69.5 34.0 68.4 34.6 L66.75 35.35 Q64.5 35.95 62.75 35.0 60.65 33.9 60.4 31.75 L60.35 30.5 59.75 30.5 57.8 30.2 57.65 29.55 Q57.4 28.9 56.55 28.25 L56.3 28.05 56.65 26.55 57.1 22.8 57.1 21.25 Q57.9 21.0 58.45 20.3 L59.0 19.3 M57.8 31.5 L58.2 32.3 58.5 33.65 58.4 34.45 58.15 35.25 57.8 35.9 55.65 38.05 Q54.9 38.55 54.2 38.7 L52.9 38.65 51.5 38.4 Q50.45 38.1 49.6 37.4 L49.3 37.15 51.35 35.75 52.75 34.5 53.25 34.7 Q54.9 35.2 56.25 34.4 L57.1 33.6 57.5 33.1 57.8 31.65 57.8 31.5 M33.45 39.5 L33.4 39.8 Q33.25 40.5 32.75 40.85 32.25 41.25 31.6 41.2 30.9 41.15 30.45 40.7 L30.0 39.95 30.5 39.3 30.6 39.15 33.45 39.5 M23.8 38.1 L23.6 38.75 Q23.2 40.05 22.15 40.7 21.25 41.25 20.0 41.35 L17.75 41.2 16.7 40.9 Q16.2 40.7 15.65 40.15 L14.9 39.4 14.5 38.25 14.35 37.4 Q14.1 35.8 14.85 34.45 15.65 33.15 17.25 32.5 L18.35 32.2 18.95 33.2 18.75 33.55 18.55 34.2 18.4 35.3 Q18.45 35.95 18.95 36.5 L19.95 37.45 20.95 38.05 22.45 38.2 23.5 38.15 23.8 38.1 M15.05 27.15 L13.65 27.05 Q12.65 26.8 12.05 26.05 L11.65 25.4 Q11.0 24.0 11.0 22.6 11.0 21.95 11.15 21.65 L12.15 20.2 Q13.25 19.1 14.3 18.75 L14.7 19.55 14.35 20.25 Q13.9 21.6 14.8 22.75 15.55 23.7 16.7 23.9 L16.7 24.1 Q16.25 24.2 15.85 24.55 15.25 25.0 15.0 25.7 14.75 26.45 15.0 27.1 L15.05 27.15 M14.25 18.7 L13.05 18.7 Q11.0 18.35 9.75 17.0 L9.25 16.3 10.1 16.15 Q10.8 15.7 10.7 14.9 10.55 14.0 9.75 13.85 L9.25 13.8 9.65 13.25 10.35 12.4 12.5 11.1 13.75 10.85 Q15.85 10.85 16.9 12.1 17.5 12.95 17.5 13.95 L17.1 14.0 16.25 14.45 Q15.65 14.7 15.5 14.85 L15.05 15.5 14.6 16.1 14.35 16.7 Q13.95 17.75 14.25 18.7 M71.9 4.0 Q71.0 4.9 70.0 5.25 L69.1 5.5 66.15 5.25 Q64.7 4.7 63.8 3.5 63.35 3.0 63.2 2.3 L63.2 1.25 63.4 0.5 64.0 -0.3 Q65.0 -1.25 66.5 -1.65 L69.45 -2.0 72.2 -1.3 Q73.45 -0.5 73.6 0.6 73.65 1.25 73.3 2.05 L72.45 3.3 71.9 4.0 M75.0 8.9 L75.45 9.2 Q76.35 9.8 76.65 10.65 77.0 11.7 76.35 12.5 75.65 13.4 74.4 13.3 73.5 13.25 72.4 12.5 71.45 11.8 71.05 11.0 L70.65 9.35 70.65 7.55 Q70.75 6.9 71.3 6.1 L72.0 5.2 Q72.4 4.8 72.9 4.65 L74.6 4.8 Q75.45 5.3 75.3 6.3 L74.95 7.15 Q74.65 7.7 74.7 8.05 L74.8 8.5 75.0 8.9 M59.7 13.25 L60.35 13.0 61.1 12.4 Q61.4 11.95 61.3 11.45 61.25 10.95 60.85 10.6 L60.1 10.25 59.95 10.25 Q59.45 10.25 59.05 10.6 58.65 10.9 58.55 11.4 L58.45 12.15 58.25 12.9 Q58.25 13.3 58.6 13.55 L59.3 13.6 59.7 13.25 M69.45 7.45 Q70.1 8.45 69.65 9.5 69.15 10.75 67.7 10.85 67.05 10.85 66.5 10.5 L65.65 9.55 Q65.3 8.8 65.6 7.95 65.9 7.15 66.6 6.75 L68.15 6.55 Q69.0 6.75 69.45 7.45 M66.95 14.25 Q68.1 14.1 68.75 14.95 69.15 15.45 69.15 16.1 69.15 16.75 68.8 17.25 68.45 17.75 67.8 17.95 L66.55 17.9 Q65.95 17.7 65.6 17.1 65.3 16.55 65.35 15.9 65.45 15.3 65.9 14.8 66.35 14.35 66.95 14.25 M72.5 17.55 L72.0 17.6 Q71.55 17.6 71.25 17.3 L70.95 16.9 70.9 16.45 70.95 16.0 Q71.2 15.35 71.85 15.25 72.25 15.2 72.65 15.45 L73.2 16.1 73.1 16.95 72.5 17.55 M59.9 37.25 L62.05 37.5 Q63.2 38.0 63.4 39.05 63.75 40.25 62.8 41.0 62.35 41.35 61.75 41.3 61.15 41.3 60.7 40.9 60.25 41.75 59.2 41.85 58.25 41.95 57.6 41.1 56.8 39.95 57.7 38.6 58.35 37.6 59.9 37.25 M69.65 42.3 Q68.8 42.0 68.35 41.15 L68.05 40.4 68.0 39.6 68.05 37.75 Q68.15 36.85 68.35 36.5 L69.0 35.65 Q70.25 34.4 71.2 33.95 L72.5 33.5 Q73.85 33.25 74.65 33.85 L75.3 34.7 Q75.5 35.3 75.25 35.75 L75.1 36.1 75.2 36.5 Q75.55 37.65 75.35 38.65 L75.0 39.75 74.6 40.6 73.75 41.45 Q72.95 42.15 72.45 42.3 L71.4 42.45 69.65 42.3 M6.55 6.65 L8.1 6.1 8.9 6.1 9.9 6.3 10.45 6.7 Q11.45 7.7 11.5 9.05 L11.2 10.8 10.65 11.95 9.65 12.7 8.65 13.2 7.75 13.3 6.7 13.25 Q5.35 12.95 4.3 11.65 L4.0 11.15 Q3.8 10.65 3.9 9.8 L4.0 9.2 Q4.15 8.7 4.8 7.95 L5.65 7.15 6.55 6.65 M2.0 4.05 Q3.0 4.4 3.5 5.05 4.0 5.65 4.1 6.45 4.35 8.0 3.35 9.25 2.35 10.45 0.7 10.55 -0.2 10.55 -0.65 10.1 -1.2 9.6 -1.3 8.25 L-1.45 6.5 Q-1.65 5.25 -1.2 4.55 -0.75 3.8 0.3 3.7 L2.0 4.05 M1.1 23.4 Q0.2 23.2 -0.15 22.9 L-0.65 21.95 -0.8 20.8 -0.9 20.25 -1.1 19.65 Q-1.4 18.55 -1.15 17.35 L-0.5 15.1 Q0.1 13.45 0.85 13.05 1.5 12.65 2.45 12.75 4.05 12.85 5.15 13.6 6.85 14.75 7.1 16.95 7.4 18.9 6.3 20.85 L5.05 22.35 3.85 23.1 2.45 23.55 1.1 23.4 M5.0 23.0 L6.3 22.75 Q7.0 22.9 7.45 23.4 7.85 23.9 7.9 24.6 7.9 25.35 7.5 25.85 7.1 26.4 6.35 26.55 L5.05 26.4 Q4.45 26.1 4.2 25.45 3.9 24.8 4.1 24.1 4.4 23.3 5.0 23.0 M14.1 33.55 L13.2 34.25 11.1 34.45 Q9.4 34.15 8.65 33.3 L7.95 32.2 7.6 31.35 7.5 30.35 7.55 29.85 7.7 29.9 Q8.3 30.05 8.85 29.65 L9.6 28.55 Q9.95 27.75 10.35 27.45 L10.85 27.0 10.75 26.6 11.55 26.55 12.65 26.65 13.45 27.05 14.5 27.85 Q15.3 28.65 15.4 29.8 L15.0 29.55 13.45 29.45 Q12.7 29.7 12.3 30.45 11.9 31.25 12.1 32.0 L12.75 33.05 Q13.35 33.55 14.1 33.55 M10.15 34.4 L10.7 34.7 Q11.95 35.65 12.2 37.1 L12.2 37.9 12.0 38.7 11.6 39.6 Q11.0 40.8 9.75 41.35 L7.2 41.55 Q5.2 41.0 4.9 39.25 L4.85 38.75 4.85 37.05 Q5.05 36.05 5.55 35.55 L6.2 35.0 7.2 34.45 9.1 34.3 10.15 34.4 M4.3 29.55 Q4.85 29.4 5.35 29.55 5.95 29.75 6.35 30.3 L6.6 31.5 Q6.55 32.15 6.0 32.6 L4.85 33.05 Q4.25 33.05 3.75 32.6 3.2 32.2 3.1 31.55 3.0 30.9 3.35 30.35 L4.3 29.55 M-1.5 27.8 Q-1.65 27.2 -1.3 26.7 L-0.55 25.9 Q0.15 25.5 0.55 25.45 1.15 25.4 1.7 25.8 2.25 26.2 2.35 26.8 L2.3 27.8 Q2.1 28.45 1.6 28.9 1.05 29.35 0.4 29.4 -0.25 29.45 -0.85 28.95 L-1.5 27.8 M-1.95 35.5 L-1.75 33.55 -1.55 32.6 Q-1.25 31.7 -0.3 31.25 L1.55 31.4 2.6 32.65 3.15 33.6 3.6 34.85 Q3.85 36.0 3.45 37.15 L3.2 37.8 2.2 39.9 Q1.3 41.1 0.35 40.95 L-0.9 40.4 -1.7 39.65 Q-2.0 39.25 -2.0 38.45 L-1.9 37.2 -1.95 35.5" fill="#999999" fill-rule="evenodd" stroke="none"></path>       <path d="M51.8 15.1 L51.9 16.0 51.9 17.1 51.7 17.95 50.8 17.9 Q49.95 17.95 48.95 18.55 L48.35 19.0 47.7 18.8 46.35 18.75 45.05 19.15 Q44.35 19.55 44.25 20.15 L44.0 20.0 42.7 18.7 42.15 17.9 Q41.4 16.45 41.8 14.85 L42.35 13.55 42.8 12.8 42.95 12.6 43.15 13.15 Q43.6 13.95 44.75 14.8 L45.9 15.55 47.0 15.9 48.5 16.05 49.85 15.85 51.4 15.35 51.8 15.1 M45.6 28.1 L45.7 27.45 Q45.8 26.45 45.55 25.85 45.15 24.65 43.85 24.25 L41.5 24.35 Q41.1 24.0 40.55 23.75 L38.45 23.85 38.05 24.3 37.4 24.25 36.25 24.3 33.8 24.7 Q32.35 25.1 31.35 25.9 L30.2 27.0 29.15 28.1 Q28.6 28.75 28.0 28.75 27.55 28.8 27.2 28.45 26.8 28.15 26.7 27.7 26.5 26.9 26.95 25.9 28.0 23.35 30.6 21.9 L31.55 21.4 31.6 21.5 Q32.05 22.2 33.1 22.2 34.15 22.3 34.95 21.5 35.4 21.0 35.45 20.4 L35.55 20.4 35.55 20.05 35.65 18.75 Q35.75 17.4 36.25 16.85 36.65 16.4 37.35 16.4 L37.4 16.4 Q38.1 16.4 38.5 16.85 39.0 17.4 39.1 18.75 L39.2 20.05 39.2 20.4 Q42.0 20.65 44.15 21.9 46.75 23.35 47.8 25.9 48.25 26.9 48.05 27.7 L47.55 28.45 46.75 28.75 Q46.15 28.75 45.6 28.1 M28.85 11.15 L29.6 11.3 Q31.1 11.7 31.95 12.8 L32.4 13.55 32.95 14.85 Q33.35 16.45 32.6 17.9 L32.05 18.7 30.75 20.0 Q29.5 20.8 27.6 20.6 25.75 20.5 24.55 19.7 23.1 18.7 22.85 17.1 L22.85 16.9 23.7 16.65 Q24.8 16.25 25.25 15.4 L25.7 13.85 Q26.75 13.65 27.6 12.9 L28.85 11.15" fill="#ffffff" fill-rule="evenodd" stroke="none"></path>       <path d="M42.95 12.6 Q42.75 11.8 42.85 10.75 42.95 9.85 43.4 9.4 L44.05 9.0 44.45 8.55 Q45.0 7.75 46.05 7.85 46.95 7.85 47.55 8.7 L47.85 9.35 48.25 9.9 Q48.55 10.25 49.45 10.45 L50.85 11.05 Q52.0 11.6 52.4 12.4 52.9 13.3 52.5 14.25 L51.8 15.1 51.4 15.35 49.85 15.85 48.5 16.05 47.0 15.9 45.9 15.55 44.75 14.8 Q43.6 13.95 43.15 13.15 L42.95 12.6 M51.7 17.95 L52.5 18.15 Q53.2 18.35 53.55 18.8 53.85 19.2 53.7 19.75 L53.15 20.55 52.25 20.85 Q51.65 21.0 51.4 21.25 51.2 21.45 51.1 21.8 L50.85 22.4 Q50.5 23.0 49.8 23.25 L48.4 23.2 Q47.45 22.7 47.3 21.65 L47.25 21.3 46.6 21.45 45.8 21.8 Q45.05 22.0 44.6 21.45 44.05 21.0 44.25 20.25 L44.25 20.15 Q44.35 19.55 45.05 19.15 L46.35 18.75 47.7 18.8 48.35 19.0 48.95 18.55 Q49.95 17.95 50.8 17.9 L51.7 17.95 M38.05 24.3 L38.45 23.85 40.55 23.75 Q41.1 24.0 41.5 24.35 L43.85 24.25 Q45.15 24.65 45.55 25.85 45.8 26.45 45.7 27.45 L45.6 28.1 44.75 29.3 43.0 29.65 41.6 29.45 Q41.1 29.3 40.5 28.6 39.75 27.75 39.65 27.15 L39.65 26.75 39.55 26.7 38.95 26.55 Q38.0 26.3 37.85 25.35 37.75 24.7 38.05 24.3 M35.45 20.4 Q35.4 21.0 34.95 21.5 34.15 22.3 33.1 22.2 32.05 22.2 31.6 21.5 L31.55 21.4 Q31.35 20.95 31.5 20.4 31.65 19.85 32.25 19.6 L33.05 19.35 33.7 18.95 34.7 18.9 35.3 19.55 35.45 20.4 M22.85 16.9 L21.65 16.85 Q20.7 16.65 20.25 16.15 19.6 15.3 20.1 14.5 20.5 13.65 21.5 13.5 L21.9 13.35 21.9 12.8 Q21.7 12.1 22.15 11.35 22.55 10.65 23.25 10.45 L23.45 10.4 23.5 10.4 24.3 10.2 25.05 9.85 25.7 8.5 Q26.1 7.6 27.2 7.5 28.25 7.4 28.85 8.35 29.25 8.95 29.15 10.05 L28.85 11.15 27.6 12.9 Q26.75 13.65 25.7 13.85 L25.25 15.4 Q24.8 16.25 23.7 16.65 L22.85 16.9" fill="#000000" fill-rule="evenodd" stroke="none"></path>     </g>     <g id="shape2">       <path d="M-0.5 -0.4 L-0.5 -0.55 75.1 -0.55 75.1 -0.4 75.1 40.8 -0.5 40.8 -0.5 -0.4 Z" fill="none" stroke="#000000" stroke-linecap="round" stroke-linejoin="round" stroke-width="3.0"></path>     </g>   </defs> </svg>