<svg xmlns="http://www.w3.org/2000/svg" xmlns:ffdec="https://www.free-decompiler.com/flash" xmlns:xlink="http://www.w3.org/1999/xlink" ffdec:objectType="frame" viewBox="39.95 7.40 75.60 41.35">
  <g transform="matrix(1.0, 0.0, 0.0, 1.0, 40.45, 7.95)">
    <use ffdec:characterId="1" height="42.7" transform="matrix(1.0, 0.0, 0.0, 1.0, 0.0, 0.0)" width="76.45" xlink:href="#shape0" />
    <use ffdec:characterId="404" height="39.7" transform="matrix(1.0, 0.0, 0.0, 1.0, 0.0, 0.0)" width="73.85" xlink:href="#shape1" />
    <use ffdec:characterId="3" height="44.35" transform="matrix(1.0, 0.0, 0.0, 1.0, 0.0, 0.0)" width="78.6" xlink:href="#shape2" />
  </g>
  <defs>
    <g id="shape0">
      <path d="M2.8 0.0 L2.8 -0.4 5.4 -0.4 5.4 0.0 9.7 0.0 9.7 19.45 9.7 0.0 20.55 0.0 19.3 19.45 9.7 19.45 0.25 19.45 0.25 0.0 2.8 0.0" fill="#ffffff" fill-rule="evenodd" stroke="none" />
      <path d="M0.25 19.45 L9.7 19.45 19.3 19.45 18.7 28.6 16.0 28.5 10.95 27.95 9.7 27.8 Q7.45 27.6 5.85 27.75 4.05 27.9 1.5 28.6 0.75 28.8 0.25 29.15 L0.25 19.45 M9.7 19.45 L9.7 27.8 9.7 19.45" fill="#121212" fill-rule="evenodd" stroke="none" />
      <path d="M9.7 27.8 L10.95 27.95 16.0 28.5 18.7 28.6 19.75 28.6 23.5 28.75 Q25.95 29.05 27.1 30.0 27.7 30.5 27.7 31.1 27.7 31.75 26.9 32.1 L25.6 32.3 18.45 32.45 12.85 32.15 9.7 31.75 7.95 31.6 3.1 31.95 0.95 32.3 0.25 32.1 -0.35 31.55 -0.5 31.3 -0.5 29.9 0.25 29.15 Q0.75 28.8 1.5 28.6 4.05 27.9 5.85 27.75 7.45 27.6 9.7 27.8 L9.7 31.75 9.7 27.8" fill="#999999" fill-rule="evenodd" stroke="none" />
      <path d="M2.8 0.0 L0.25 0.0 M9.7 0.0 L5.4 0.0 M21.55 0.0 L32.25 0.0 M20.55 0.0 L9.7 0.0" fill="none" stroke="#666666" stroke-linecap="round" stroke-linejoin="round" stroke-width="4.0" />
      <path d="M9.7 -0.4 L74.7 -0.4 74.7 40.5 47.05 40.5 45.5 40.7 27.0 40.65 25.95 40.5 9.7 40.5 -0.5 40.5 -0.5 -0.4 9.7 -0.4 9.7 40.5 9.7 -0.4" fill="#ffffff" fill-rule="evenodd" stroke="none" />
    </g>
    <g id="shape1">
      <path d="M61.35 24.8 L61.5 24.85 61.65 24.95 61.7 25.05 61.75 25.2 61.75 25.3 61.75 25.4 61.8 25.5 61.8 25.6 61.85 25.7 61.85 25.8 61.9 25.9 61.9 26.0 61.95 26.1 61.95 26.2 61.95 26.3 61.95 26.4 61.95 26.5 61.95 26.6 62.0 26.75 62.0 26.85 62.0 26.95 62.0 27.05 62.05 27.15 62.05 27.25 62.05 27.35 62.05 27.45 62.05 27.55 62.05 27.65 62.05 27.75 62.1 27.85 62.1 27.95 62.1 28.05 62.1 28.15 62.1 28.25 62.1 28.4 62.1 28.5 62.15 28.6 62.2 28.7 62.2 28.8 62.25 28.9 62.25 29.0 62.3 29.1 62.3 29.2 62.3 29.3 62.3 29.4 62.3 29.5 62.3 29.6 62.35 29.7 62.35 29.8 62.35 29.95 62.4 30.05 62.4 30.15 62.4 30.25 62.4 30.35 62.4 30.45 62.45 30.55 62.45 30.65 62.5 30.75 62.5 30.85 62.55 30.95 62.6 31.05 62.6 31.15 62.65 31.25 62.65 31.35 62.65 31.5 62.65 31.6 62.7 31.7 62.7 31.8 62.7 31.9 62.75 32.0 62.75 32.1 62.7 32.2 62.7 32.3 62.7 32.4 62.7 32.5 62.7 32.6 62.65 32.7 62.65 32.8 62.65 32.9 62.65 33.0 62.6 33.15 62.55 33.25 62.5 33.35 62.4 33.45 62.35 33.55 62.3 33.65 62.15 33.75 61.95 33.85 61.85 33.9 61.75 33.95 61.65 34.0 61.35 34.0 61.1 34.0 60.85 33.9 60.65 33.8 60.5 33.7 60.4 33.6 60.3 33.5 60.2 33.4 60.15 33.3 60.1 33.2 60.1 33.1 60.05 33.0 60.05 32.9 60.05 32.8 60.0 32.7 60.0 32.6 60.0 32.45 60.0 32.35 60.0 32.25 60.0 32.15 60.0 32.05 60.0 31.95 60.0 31.85 60.0 31.75 60.0 31.65 60.05 31.55 60.05 31.45 60.1 31.35 60.1 31.25 60.1 31.15 60.1 31.05 60.15 30.9 60.15 30.8 60.2 30.7 60.2 30.6 60.25 30.5 60.3 30.4 60.3 30.3 60.3 30.2 60.3 30.1 60.3 30.0 60.3 29.9 60.35 29.8 60.35 29.7 60.4 29.6 60.4 29.5 60.4 29.4 60.4 29.25 60.4 29.15 60.4 29.05 60.45 28.95 60.45 28.85 60.5 28.75 60.55 28.65 60.55 28.55 60.6 28.45 60.6 28.35 60.6 28.25 60.6 28.15 60.6 28.05 60.6 27.95 60.6 27.85 60.65 27.7 60.65 27.6 60.65 27.5 60.65 27.4 60.65 27.3 60.65 27.2 60.65 27.1 60.65 27.0 60.7 26.9 60.7 26.8 60.7 26.7 60.75 26.6 60.75 26.5 60.75 26.4 60.75 26.3 60.75 26.2 60.75 26.05 60.75 25.95 60.8 25.85 60.85 25.75 60.85 25.65 60.85 25.55 60.9 25.45 60.95 25.35 60.95 25.25 60.95 25.15 60.95 25.05 61.1 24.95 61.15 24.85 61.2 24.85 61.35 24.85 61.35 24.8" fill="#999999" fill-rule="evenodd" stroke="none" />
      <path d="M74.2 40.2 Q73.65 41.05 72.9 41.1 71.85 41.25 71.1 40.1 L70.35 38.1 Q69.6 35.65 67.95 32.9 L64.7 28.15 62.45 25.05 61.3 23.15 61.05 21.75 61.0 21.7 60.0 21.6 59.5 21.8 Q58.9 21.9 58.7 21.25 58.55 20.75 58.9 20.3 59.15 19.9 59.75 19.65 60.5 19.2 61.4 19.2 L61.7 19.25 62.2 18.55 62.2 18.05 62.05 17.55 61.75 17.15 61.7 17.05 61.3 16.9 Q60.85 16.55 61.1 16.15 61.25 15.95 61.7 15.85 L63.2 15.75 64.3 16.45 64.8 17.0 65.3 16.9 65.1 16.3 64.45 15.0 64.25 14.5 Q64.35 14.05 64.95 13.95 65.75 13.8 66.55 14.3 67.3 14.75 67.7 15.55 L68.15 17.3 68.15 17.4 Q69.45 17.95 70.45 19.2 71.7 20.65 72.7 23.25 75.3 29.8 75.0 37.1 74.9 39.15 74.2 40.2 M60.4 5.5 L60.2 5.95 60.05 6.7 60.05 7.35 59.9 7.85 Q59.75 8.55 59.75 9.2 L59.6 10.35 58.75 11.2 57.6 11.05 Q57.0 10.7 56.7 9.85 L56.1 7.4 56.05 6.75 55.9 6.0 55.9 3.55 55.95 3.05 Q56.05 2.45 56.45 2.05 57.0 1.55 58.55 1.55 L59.4 1.65 59.9 2.0 60.4 2.5 60.55 3.05 60.55 4.35 60.4 4.95 60.4 5.5 M57.35 13.25 Q58.2 12.3 59.15 12.65 59.75 12.8 60.1 13.55 60.35 14.15 60.25 14.85 60.05 15.85 59.4 16.2 L58.45 16.35 57.55 16.15 Q56.75 15.75 56.75 14.8 56.75 13.85 57.35 13.25" fill="#000000" fill-rule="evenodd" stroke="none" />
      <path d="M8.1 25.15 Q5.75 23.0 5.0 19.4 4.4 16.25 5.2 13.9 5.95 11.4 8.1 9.75 8.9 9.2 10.6 8.3 L13.5 7.05 14.65 6.8 14.85 6.65 15.6 6.2 17.3 5.65 21.15 5.2 22.4 5.35 Q23.3 5.7 23.5 6.5 23.8 7.3 23.3 8.05 L22.05 9.25 23.2 10.3 Q25.2 12.4 25.85 14.85 L25.9 15.05 Q27.95 13.95 30.8 13.4 L34.4 13.0 Q39.2 12.9 42.75 15.25 L42.7 14.25 Q42.65 12.9 43.0 11.0 43.35 8.55 43.65 7.4 44.1 5.45 44.95 4.1 46.15 2.1 47.9 1.55 L49.9 1.5 Q50.95 1.75 51.55 2.5 52.05 3.1 52.25 4.25 52.35 5.35 52.0 6.1 L50.4 8.1 Q48.55 10.05 47.75 12.7 L47.05 16.2 46.45 19.3 Q47.45 21.0 47.6 22.85 L47.6 23.4 49.2 24.1 Q50.65 24.75 51.6 24.6 51.1 23.5 51.1 22.55 51.2 21.3 52.1 20.75 52.5 20.5 53.35 20.4 L54.45 20.5 Q55.45 20.9 55.8 22.3 56.5 24.6 55.65 26.85 L54.7 28.2 53.1 28.65 50.05 28.7 46.3 27.4 Q44.7 29.1 41.95 28.9 40.4 28.8 38.1 27.95 L37.55 29.2 38.45 29.85 40.15 30.9 Q41.2 31.8 41.55 32.8 41.8 33.55 41.55 34.15 L40.9 34.9 Q40.2 35.65 39.2 35.4 38.65 35.25 38.2 34.95 L34.35 32.45 33.35 31.5 Q32.7 30.5 32.95 28.85 33.15 27.55 33.7 26.35 L32.75 26.1 30.2 25.85 27.2 26.0 24.75 26.85 24.35 27.45 22.85 29.45 22.35 30.65 22.3 30.85 23.1 32.15 Q23.6 33.65 22.75 34.9 21.75 36.25 20.25 36.0 19.55 35.9 19.0 35.4 18.45 34.85 18.3 34.15 L18.25 33.6 Q17.8 32.8 17.75 31.75 17.75 31.15 17.9 30.45 18.2 28.7 18.85 27.35 L18.65 27.4 16.15 27.7 Q11.0 27.8 8.1 25.15 M56.65 30.9 L57.2 30.9 57.65 31.0 57.85 31.1 58.05 31.2 58.2 31.3 58.3 31.4 58.35 31.5 58.4 31.6 58.45 31.7 58.5 31.8 58.55 31.9 58.6 32.05 58.6 32.15 58.6 32.25 58.6 32.35 58.6 32.45 58.6 32.55 58.6 32.65 58.6 32.75 58.55 32.85 58.5 32.95 58.45 33.05 58.4 33.15 58.3 33.25 58.25 33.35 58.1 33.45 57.95 33.55 57.8 33.7 57.65 33.75 57.5 33.8 57.2 33.8 56.65 33.8 56.35 33.8 55.55 33.75 54.4 33.7 53.45 33.7 53.05 33.65 52.7 33.6 52.45 33.55 52.35 33.55 52.1 33.5 51.65 33.45 51.45 33.45 51.3 33.4 51.0 33.35 50.65 33.35 50.4 33.3 50.15 33.25 50.0 33.25 49.8 33.2 49.7 33.15 49.5 33.15 49.3 33.1 49.2 33.05 48.9 33.0 48.7 33.0 48.15 32.95 47.25 32.9 46.1 32.9 45.85 32.8 45.7 32.7 45.6 32.6 45.55 32.5 45.5 32.4 45.55 32.3 45.55 32.2 45.65 32.1 45.75 32.0 45.85 31.9 45.9 31.9 46.1 31.85 47.25 31.8 48.15 31.8 48.7 31.75 48.9 31.7 49.2 31.7 49.3 31.65 49.5 31.6 49.7 31.6 49.8 31.55 50.0 31.5 50.15 31.5 50.4 31.45 50.65 31.4 51.0 31.35 51.3 31.35 51.45 31.3 51.65 31.25 52.1 31.25 52.35 31.2 52.45 31.15 52.7 31.15 53.05 31.1 53.45 31.05 54.4 31.05 55.55 31.0 56.35 30.95 56.65 30.95 56.65 30.9 M36.55 7.95 L36.85 7.95 37.1 8.0 37.3 8.05 37.45 8.2 37.65 8.3 37.75 8.4 37.8 8.5 37.85 8.6 37.95 8.7 37.95 8.8 38.05 8.9 38.05 9.0 38.1 9.1 38.1 9.2 38.1 9.3 38.1 9.4 38.1 9.5 38.05 9.6 38.0 9.7 37.95 9.85 37.9 9.95 37.85 10.05 37.75 10.15 37.65 10.25 37.55 10.35 37.35 10.45 37.2 10.5 37.1 10.55 36.85 10.6 36.55 10.6 36.0 10.6 35.75 10.55 35.6 10.5 35.55 10.5 34.9 10.45 33.9 10.4 32.65 10.4 32.4 10.35 32.1 10.3 31.7 10.3 31.3 10.25 31.05 10.2 30.9 10.15 30.7 10.15 30.4 10.1 30.15 10.05 29.85 10.05 29.6 10.0 29.3 9.95 29.1 9.95 28.9 9.9 28.7 9.85 28.4 9.85 28.2 9.8 26.75 9.75 26.5 9.7 26.4 9.6 26.3 9.5 26.25 9.4 26.25 9.3 26.25 9.15 26.3 9.05 26.4 8.95 26.5 8.85 26.75 8.8 28.2 8.75 28.4 8.75 28.7 8.7 28.9 8.65 29.1 8.6 29.3 8.6 29.6 8.55 29.85 8.5 30.15 8.5 30.4 8.45 30.7 8.4 30.9 8.4 31.05 8.35 31.3 8.3 31.7 8.3 32.1 8.25 32.4 8.2 32.65 8.2 33.9 8.15 34.9 8.1 35.55 8.05 35.6 8.05 35.75 8.0 36.0 7.95 36.55 7.95 M20.5 18.55 L19.9 18.6 19.85 18.55 19.1 17.95 Q18.25 17.55 17.55 18.15 17.25 18.4 17.2 18.85 17.1 19.25 17.3 19.6 L17.8 20.1 18.25 20.45 18.15 21.15 18.25 22.75 Q18.35 23.3 18.55 23.5 18.9 23.85 19.3 23.7 L19.9 22.9 20.4 21.4 20.6 20.6 21.5 20.35 22.65 20.1 22.85 19.5 22.55 19.0 21.75 18.85 20.5 18.55 M22.45 14.75 Q22.95 13.9 22.85 12.95 L22.5 11.95 21.75 11.25 21.2 11.55 20.45 11.65 19.55 11.5 18.8 11.05 18.7 11.1 Q17.2 11.85 17.1 13.4 16.95 15.05 18.25 15.85 19.0 16.35 20.05 16.25 21.15 16.25 21.85 15.55 L22.45 14.75 M14.05 5.65 Q13.55 6.15 13.05 5.9 12.65 5.65 12.55 4.85 L12.45 3.15 12.65 2.65 13.4 1.8 Q14.1 1.45 14.7 1.95 15.35 2.45 15.2 3.25 L14.9 4.1 14.05 5.65 M8.05 7.45 Q7.65 7.75 7.0 7.45 L6.25 6.75 5.0 5.3 4.45 4.5 Q4.2 4.0 4.35 3.45 4.45 2.85 4.9 2.5 5.9 1.7 6.95 2.35 7.8 2.9 8.1 4.7 L8.35 5.8 8.45 6.7 8.05 7.45 M2.55 9.7 L3.3 9.9 4.55 10.75 4.75 11.4 4.2 12.0 2.5 12.2 1.7 11.9 Q0.95 11.4 1.3 10.5 1.65 9.6 2.55 9.7 M10.05 18.05 L9.6 18.4 9.5 19.4 8.95 20.5 Q9.3 21.95 10.45 22.55 L12.95 22.5 14.0 21.35 Q15.0 19.75 14.15 18.65 13.6 17.95 12.65 17.8 L11.15 17.65 10.05 18.05" fill="#999999" fill-rule="evenodd" stroke="none" />
      <path d="M22.45 14.75 L21.85 15.55 Q21.15 16.25 20.05 16.25 19.0 16.35 18.25 15.85 16.95 15.05 17.1 13.4 17.2 11.85 18.7 11.1 L18.8 11.05 19.55 11.5 20.45 11.65 21.2 11.55 21.75 11.25 22.5 11.95 22.85 12.95 Q22.95 13.9 22.45 14.75 M20.5 18.55 L21.75 18.85 22.55 19.0 22.85 19.5 22.65 20.1 21.5 20.35 20.6 20.6 20.4 21.4 19.9 22.9 19.3 23.7 Q18.9 23.85 18.55 23.5 18.35 23.3 18.25 22.75 L18.15 21.15 18.25 20.45 17.8 20.1 17.3 19.6 Q17.1 19.25 17.2 18.85 17.25 18.4 17.55 18.15 18.25 17.55 19.1 17.95 L19.85 18.55 19.9 18.6 20.5 18.55 M10.05 18.05 L11.15 17.65 12.65 17.8 Q13.6 17.95 14.15 18.65 15.0 19.75 14.0 21.35 L12.95 22.5 10.45 22.55 Q9.3 21.95 8.95 20.5 L9.5 19.4 9.6 18.4 10.05 18.05" fill="#ffffff" fill-rule="evenodd" stroke="none" />
    </g>
    <g id="shape2">
      <path d="M-0.5 -0.4 L-0.5 -0.55 75.1 -0.55 75.1 -0.4 75.1 40.8 -0.5 40.8 -0.5 -0.4 Z" fill="none" stroke="#000000" stroke-linecap="round" stroke-linejoin="round" stroke-width="3.0" />
    </g>
  </defs>
</svg>