<svg xmlns:ffdec="https://www.free-decompiler.com/flash" xmlns:xlink="http://www.w3.org/1999/xlink" ffdec:objecttype="frame" xmlns="http://www.w3.org/2000/svg" viewBox="-0.5 -0.55 75.6 41.35">   <g>     <use ffdec:characterid="1" height="42.7" width="76.45" xlink:href="#shape0"></use>     <use ffdec:characterid="449" height="41.05" width="74.85" xlink:href="#shape1"></use>     <use ffdec:characterid="3" height="44.35" width="78.6" xlink:href="#shape2"></use>   </g>   <defs>     <g id="shape0">       <path d="M2.8 0.0 L2.8 -0.4 5.4 -0.4 5.4 0.0 9.7 0.0 9.7 19.45 9.7 0.0 20.55 0.0 19.3 19.45 9.7 19.45 0.25 19.45 0.25 0.0 2.8 0.0" fill="#ffffff" fill-rule="evenodd" stroke="none"></path>       <path d="M0.25 19.45 L9.7 19.45 19.3 19.45 18.7 28.6 16.0 28.5 10.95 27.95 9.7 27.8 Q7.45 27.6 5.85 27.75 4.05 27.9 1.5 28.6 0.75 28.8 0.25 29.15 L0.25 19.45 M9.7 19.45 L9.7 27.8 9.7 19.45" fill="#121212" fill-rule="evenodd" stroke="none"></path>       <path d="M9.7 27.8 L10.95 27.95 16.0 28.5 18.7 28.6 19.75 28.6 23.5 28.75 Q25.95 29.05 27.1 30.0 27.7 30.5 27.7 31.1 27.7 31.75 26.9 32.1 L25.6 32.3 18.45 32.45 12.85 32.15 9.7 31.75 7.95 31.6 3.1 31.95 0.95 32.3 0.25 32.1 -0.35 31.55 -0.5 31.3 -0.5 29.9 0.25 29.15 Q0.75 28.8 1.5 28.6 4.05 27.9 5.85 27.75 7.45 27.6 9.7 27.8 L9.7 31.75 9.7 27.8" fill="#999999" fill-rule="evenodd" stroke="none"></path>       <path d="M2.8 0.0 L0.25 0.0 M9.7 0.0 L5.4 0.0 M21.55 0.0 L32.25 0.0 M20.55 0.0 L9.7 0.0" fill="none" stroke="#666666" stroke-linecap="round" stroke-linejoin="round" stroke-width="4.0"></path>       <path d="M9.7 -0.4 L74.7 -0.4 74.7 40.5 47.05 40.5 45.5 40.7 27.0 40.65 25.95 40.5 9.7 40.5 -0.5 40.5 -0.5 -0.4 9.7 -0.4 9.7 40.5 9.7 -0.4" fill="#ffffff" fill-rule="evenodd" stroke="none"></path>     </g>     <g id="shape1">       <path d="M24.9 37.35 Q21.2 35.75 19.6 33.95 16.7 30.8 16.7 24.6 16.7 19.2 18.85 14.4 L18.7 13.85 18.65 13.75 18.65 13.65 18.15 12.55 17.75 10.95 17.5 10.45 16.65 7.3 16.4 6.35 16.05 4.0 16.25 2.8 16.65 2.3 17.0 2.05 17.45 1.9 18.65 2.0 20.8 2.75 22.45 3.5 25.15 4.9 26.4 5.55 Q30.05 3.25 34.7 2.65 L37.5 2.45 Q40.65 2.4 43.3 3.2 L45.1 3.85 Q46.7 4.55 48.35 5.8 L49.4 5.3 51.9 4.3 53.35 3.8 55.0 3.2 55.55 2.95 57.3 2.25 Q58.5 2.05 59.05 2.7 59.65 3.35 59.45 4.5 L59.25 5.3 55.65 14.35 55.9 14.95 Q56.55 16.45 56.9 19.05 57.5 23.9 56.2 28.25 54.75 32.95 51.35 35.75 46.1 40.05 35.5 39.65 L30.1 39.05 Q27.9 38.6 24.9 37.35 M35.1 30.15 L37.05 28.15 37.3 28.3 39.2 29.1 39.4 29.1 39.35 29.15 38.85 30.3 37.65 31.9 Q36.8 32.7 35.85 32.45 L35.15 32.2 Q34.2 31.7 33.55 30.85 L34.0 30.7 35.1 30.15 M26.95 14.4 L26.25 14.4 25.65 14.45 Q24.4 14.7 23.4 15.45 21.55 16.8 21.4 18.8 L21.4 19.7 21.7 21.25 22.25 22.05 23.75 23.3 26.15 23.45 27.7 23.1 28.65 22.5 29.55 21.7 Q31.1 20.05 30.7 17.8 30.45 16.75 29.8 15.95 L28.95 15.15 Q28.15 14.5 26.95 14.4 M26.65 26.85 Q26.25 27.6 26.8 28.65 27.85 30.55 29.9 30.95 L30.65 31.05 31.0 32.3 Q31.65 34.15 33.65 35.05 L37.45 35.3 Q38.85 34.95 39.95 33.9 L41.35 31.7 42.1 29.8 42.2 29.1 44.3 28.55 Q45.4 28.0 45.65 27.15 46.0 26.15 45.25 25.5 44.6 24.75 43.6 25.0 L42.3 25.5 41.15 25.7 40.1 25.6 Q39.4 25.45 38.2 24.75 L37.95 23.6 37.3 21.95 Q36.9 21.55 36.35 21.55 35.8 21.55 35.4 21.9 35.05 22.25 34.7 23.55 34.4 24.75 34.5 25.4 L34.25 25.8 33.55 26.8 Q32.8 27.6 31.5 27.6 L29.3 27.1 28.8 26.9 28.25 26.45 27.4 26.35 Q26.9 26.5 26.65 26.85 M46.2 14.95 L44.55 15.15 42.3 15.7 Q40.8 15.95 39.9 16.45 L39.25 16.85 Q38.55 17.6 38.8 18.55 L39.1 19.25 Q39.15 19.9 39.65 20.3 40.2 20.8 40.9 20.7 L41.85 20.5 43.05 20.25 45.95 19.95 49.45 19.6 49.75 19.4 Q50.35 19.5 50.6 19.0 50.9 18.55 50.5 18.05 L49.95 17.75 48.95 17.4 46.7 17.25 46.0 17.3 46.35 17.1 47.0 16.65 47.65 16.25 48.3 16.0 48.45 15.5 Q48.3 15.1 47.8 15.0 L46.2 14.95" fill="#000000" fill-rule="evenodd" stroke="none"></path>       <path d="M46.2 14.95 L47.8 15.0 Q48.3 15.1 48.45 15.5 L48.3 16.0 47.65 16.25 47.0 16.65 46.35 17.1 46.0 17.3 46.7 17.25 48.95 17.4 49.95 17.75 50.5 18.05 Q50.9 18.55 50.6 19.0 50.35 19.5 49.75 19.4 L49.45 19.6 45.95 19.95 43.05 20.25 41.85 20.5 40.9 20.7 Q40.2 20.8 39.65 20.3 39.15 19.9 39.1 19.25 L38.8 18.55 Q38.55 17.6 39.25 16.85 L39.9 16.45 Q40.8 15.95 42.3 15.7 L44.55 15.15 46.2 14.95 M26.65 26.85 Q26.9 26.5 27.4 26.35 L28.25 26.45 28.8 26.9 29.3 27.1 31.5 27.6 Q32.8 27.6 33.55 26.8 L34.25 25.8 34.5 25.4 Q34.4 24.75 34.7 23.55 35.05 22.25 35.4 21.9 35.8 21.55 36.35 21.55 36.9 21.55 37.3 21.95 L37.95 23.6 38.2 24.75 Q39.4 25.45 40.1 25.6 L41.15 25.7 42.3 25.5 43.6 25.0 Q44.6 24.75 45.25 25.5 46.0 26.15 45.65 27.15 45.4 28.0 44.3 28.55 L42.2 29.1 42.1 29.8 41.35 31.7 39.95 33.9 Q38.85 34.95 37.45 35.3 L33.65 35.05 Q31.65 34.15 31.0 32.3 L30.65 31.05 29.9 30.95 Q27.85 30.55 26.8 28.65 26.25 27.6 26.65 26.85 M26.95 14.4 Q28.15 14.5 28.95 15.15 L29.8 15.95 Q30.45 16.75 30.7 17.8 31.1 20.05 29.55 21.7 L28.65 22.5 27.7 23.1 26.15 23.45 23.75 23.3 22.25 22.05 21.7 21.25 21.4 19.7 21.4 18.8 Q21.55 16.8 23.4 15.45 24.4 14.7 25.65 14.45 L26.25 14.4 26.95 14.4 M35.1 30.15 L34.0 30.7 33.55 30.85 Q34.2 31.7 35.15 32.2 L35.85 32.45 Q36.8 32.7 37.65 31.9 L38.85 30.3 39.35 29.15 39.4 29.1 39.2 29.1 37.3 28.3 37.05 28.15 35.1 30.15" fill="#ffffff" fill-rule="evenodd" stroke="none"></path>       <path d="M14.85 3.45 L14.5 4.5 14.4 5.55 Q14.4 6.3 14.7 6.95 L14.8 7.35 14.7 7.85 14.8 8.15 14.6 8.5 14.25 8.45 14.05 8.2 13.45 7.5 12.9 5.35 Q12.7 5.25 12.6 4.75 L12.5 3.75 12.6 3.05 12.7 2.35 12.9 1.75 Q13.15 1.1 13.5 0.6 L14.0 0.0 14.4 -0.35 16.15 -0.35 16.35 -0.15 Q16.75 0.35 16.6 0.95 L16.2 1.6 15.7 2.2 15.35 2.85 14.85 3.45 M74.8 3.7 Q74.3 4.2 73.6 3.7 L72.85 2.7 71.8 1.15 71.6 0.55 Q71.55 0.2 71.85 -0.05 L72.5 -0.15 73.0 0.25 73.25 0.4 73.65 0.05 73.75 -0.05 73.45 -0.35 74.85 -0.35 74.85 1.7 74.55 1.9 74.85 2.3 74.85 3.7 74.8 3.7 M46.5 -0.2 L47.7 0.3 48.9 1.3 49.4 1.95 Q49.85 2.8 49.15 3.5 48.9 3.8 48.45 3.85 L47.65 3.7 47.0 3.1 46.35 2.55 Q44.9 1.35 43.9 1.1 L43.2 0.9 42.7 0.65 42.0 0.55 41.35 0.45 40.95 -0.05 41.05 -0.35 46.1 -0.35 46.5 -0.2 M72.55 5.25 Q72.3 5.95 71.4 6.1 70.65 6.3 70.05 5.75 L69.4 4.95 Q68.8 4.05 68.7 3.6 68.5 2.75 68.9 2.05 69.4 1.25 70.25 1.45 L70.8 1.85 Q71.05 2.2 70.8 2.55 L70.65 2.75 70.5 2.8 70.25 2.9 70.15 2.85 70.2 2.9 69.95 3.4 70.05 3.85 Q70.1 4.25 70.4 4.4 70.75 4.7 71.25 4.4 L71.5 4.1 71.35 4.1 70.95 3.85 70.8 3.55 70.85 3.0 71.3 2.55 71.7 2.3 Q72.2 2.25 72.4 2.55 L72.55 2.7 72.65 2.85 72.7 3.25 72.85 3.35 73.05 3.5 73.15 3.75 73.3 4.4 73.1 4.55 72.75 4.7 72.65 4.65 72.55 5.25 M66.7 3.65 Q66.95 3.4 67.45 3.4 L67.75 3.55 67.95 3.75 68.45 4.5 68.95 5.3 69.2 5.65 69.35 6.45 69.35 6.75 69.15 7.45 68.3 8.3 67.05 8.45 66.3 8.1 65.85 7.75 65.2 7.0 65.0 6.6 64.8 6.15 64.8 5.85 64.85 5.45 Q64.9 4.95 65.35 4.9 L65.75 5.0 66.0 5.1 66.0 5.2 66.75 6.4 67.35 6.85 67.8 6.85 68.0 6.45 Q68.05 6.1 67.7 5.7 L66.45 4.25 66.7 3.65 M61.75 9.05 Q61.3 9.05 60.95 9.8 L61.55 10.3 Q62.05 10.55 62.25 10.7 L62.25 11.4 61.7 11.9 Q61.0 12.05 60.35 11.55 59.25 10.9 59.25 9.8 59.2 9.25 59.8 8.3 L60.45 7.5 Q61.1 7.05 62.15 7.25 L63.2 7.65 Q63.7 8.15 63.6 8.65 L63.2 9.25 62.45 9.35 61.75 9.05 M65.4 10.4 L64.9 10.25 Q64.3 10.3 64.05 10.8 63.75 11.3 64.0 11.75 64.3 12.25 64.85 12.25 65.4 12.25 65.7 11.75 L65.85 11.0 65.4 10.4 M66.25 12.4 L65.0 13.5 63.95 13.5 Q63.4 13.35 63.1 12.85 62.35 11.95 62.85 10.9 L63.55 9.9 Q64.15 9.35 64.7 9.2 65.6 9.0 66.35 9.7 67.05 10.4 66.8 11.35 L66.25 12.4 M70.45 11.95 L71.0 12.55 70.95 12.9 70.85 13.2 70.6 13.35 70.55 13.6 70.35 13.9 69.75 14.65 69.5 15.0 68.8 15.45 68.5 15.55 67.8 15.6 Q67.2 15.55 66.7 15.1 66.25 14.65 66.1 14.0 L66.3 12.65 66.8 11.8 67.15 11.45 67.45 11.05 67.75 11.05 68.1 10.85 Q68.6 10.75 68.8 11.15 L68.85 11.6 68.85 11.85 68.8 11.85 67.95 13.0 Q67.65 13.5 67.7 13.75 L67.9 14.15 68.35 14.2 68.9 13.6 69.8 11.95 70.45 11.95 M71.1 18.0 Q70.35 18.0 69.9 17.25 69.4 16.6 69.75 15.8 L70.2 14.95 Q70.85 14.1 71.25 13.8 71.95 13.4 72.75 13.45 73.65 13.7 73.85 14.5 L73.65 15.15 72.95 15.4 72.7 15.35 72.65 15.25 72.45 15.0 72.4 14.95 72.4 15.0 71.85 14.95 Q71.7 14.95 71.5 15.15 71.15 15.4 71.1 15.7 71.0 16.15 71.4 16.5 L71.8 16.65 71.75 16.5 71.8 16.0 72.05 15.75 72.6 15.6 73.1 15.9 73.5 16.2 Q73.7 16.6 73.5 16.95 L73.45 17.1 73.3 17.25 73.0 17.45 72.95 17.6 72.9 17.85 72.7 18.05 72.15 18.4 71.85 18.3 71.7 17.95 71.1 18.0 M64.2 24.3 L64.1 24.9 63.6 26.55 Q63.0 27.45 62.2 27.25 61.45 26.95 61.45 26.0 L61.75 24.45 62.05 21.5 62.05 20.3 61.8 15.6 61.85 14.95 Q62.0 14.55 62.4 14.6 L62.7 14.95 63.45 16.25 63.75 17.3 64.25 19.75 64.3 22.75 64.2 24.3 M57.8 13.1 L58.95 13.15 59.6 14.2 60.75 17.05 61.2 20.5 61.2 21.85 61.15 23.55 Q61.05 24.45 60.5 25.1 60.05 25.65 59.5 25.7 L58.5 25.45 Q58.05 25.1 57.95 24.55 57.9 24.25 58.15 23.4 58.9 20.65 58.8 18.9 L58.05 15.05 57.6 14.05 Q57.4 13.45 57.8 13.1 M73.35 19.55 Q72.7 19.3 72.9 18.5 72.95 18.05 73.5 17.35 L74.65 15.85 74.85 15.6 74.85 18.85 74.4 19.4 73.35 19.55 M73.95 30.05 Q73.45 30.55 72.75 30.05 L72.0 29.05 70.95 27.5 70.75 26.9 Q70.7 26.55 71.0 26.3 L71.65 26.2 72.15 26.6 72.4 26.75 72.8 26.4 72.9 26.3 72.35 25.75 Q72.1 25.05 72.6 24.7 L73.7 24.65 74.1 25.05 74.85 26.15 74.85 28.35 74.5 28.15 74.1 27.9 73.7 28.25 74.15 28.95 Q74.4 29.75 73.95 30.05 M56.65 32.8 L56.75 32.55 56.85 32.1 57.2 31.8 57.7 32.0 57.75 32.4 57.65 33.1 57.7 33.4 57.65 33.85 57.65 34.3 57.1 36.05 56.6 36.85 Q55.85 37.9 54.65 38.5 L53.7 38.75 52.95 38.4 52.6 37.6 Q52.7 37.0 53.05 36.65 L53.75 36.15 55.0 35.15 55.65 34.4 55.9 33.9 56.65 32.8 M60.0 37.05 Q59.85 37.5 60.4 38.1 L61.1 37.7 61.7 37.2 62.35 37.45 Q62.65 37.8 62.55 38.15 62.55 38.85 61.8 39.3 60.85 40.05 59.8 39.7 59.25 39.5 58.55 38.6 L58.1 37.75 Q57.9 37.0 58.5 36.1 58.7 35.55 59.2 35.25 L60.3 35.2 60.7 35.8 60.5 36.5 60.0 37.05 M71.7 31.6 Q71.45 32.3 70.55 32.45 69.8 32.65 69.2 32.1 L68.55 31.3 67.85 29.95 Q67.65 29.1 68.05 28.4 68.55 27.6 69.4 27.8 69.8 27.85 69.95 28.2 70.2 28.55 69.95 28.9 L69.8 29.1 69.65 29.15 69.4 29.25 69.3 29.2 69.35 29.25 69.1 29.75 69.2 30.2 69.55 30.75 Q69.9 31.05 70.4 30.75 L70.65 30.45 70.5 30.45 70.1 30.2 69.95 29.9 70.0 29.35 70.45 28.9 70.85 28.65 Q71.35 28.6 71.55 28.9 L71.7 29.05 71.8 29.2 71.85 29.6 72.0 29.7 72.2 29.85 72.3 30.1 72.45 30.75 72.25 30.9 71.9 31.05 71.8 31.0 71.7 31.6 M65.85 30.0 Q66.1 29.75 66.6 29.75 L66.9 29.9 67.1 30.1 67.6 30.85 68.1 31.65 68.35 32.0 68.5 32.8 68.5 33.1 68.3 33.8 67.45 34.65 66.2 34.8 65.45 34.45 65.0 34.1 64.35 33.35 64.15 32.95 63.95 32.5 63.95 32.2 64.0 31.8 Q64.05 31.3 64.5 31.25 L64.9 31.35 65.15 31.45 65.15 31.55 65.9 32.75 Q66.25 33.15 66.5 33.2 L66.95 33.2 67.15 32.8 Q67.2 32.45 66.85 32.05 L65.6 30.6 65.85 30.0 M62.6 34.2 L62.25 34.55 Q62.1 35.2 62.45 35.55 62.85 36.0 63.3 35.9 63.9 35.85 64.1 35.3 64.3 34.8 63.95 34.3 63.65 33.95 63.25 33.95 62.9 33.95 62.6 34.2 M64.7 34.1 Q65.25 34.95 65.25 35.6 65.3 36.15 64.95 36.6 L64.1 37.25 Q62.9 37.6 62.1 36.7 L61.4 35.7 Q61.1 34.95 61.25 34.35 61.35 33.45 62.25 33.05 L63.95 33.2 64.7 34.1 M9.15 6.75 Q8.9 5.95 8.9 4.75 8.8 4.15 9.05 3.6 9.4 2.9 10.15 2.9 10.95 2.8 11.2 3.6 L11.25 4.3 11.25 5.55 11.65 8.3 11.95 9.4 12.25 10.0 12.9 12.05 12.75 12.55 12.35 12.45 12.1 12.0 11.6 11.35 11.0 10.7 10.35 9.45 10.05 9.0 9.9 8.45 9.5 7.75 9.15 6.75 M16.25 17.3 Q15.75 17.8 15.05 17.3 L14.3 16.3 13.25 14.75 13.05 14.15 Q13.0 13.8 13.3 13.55 L13.95 13.45 Q14.1 13.45 14.45 13.85 L14.7 14.0 15.1 13.65 15.2 13.55 14.65 13.0 Q14.4 12.3 14.9 11.95 L16.0 11.9 16.4 12.3 17.5 13.9 17.95 14.75 Q18.05 15.4 17.6 15.55 17.25 15.75 16.8 15.4 L16.4 15.15 16.0 15.5 16.45 16.2 Q16.7 17.0 16.25 17.3 M5.0 2.95 Q5.2 3.25 5.05 3.75 L4.8 4.0 4.55 4.15 3.7 4.4 2.8 4.7 2.4 4.85 1.6 4.8 1.3 4.75 0.65 4.35 0.1 3.3 Q0.0 2.65 0.25 2.05 L1.25 1.05 2.15 0.6 2.6 0.55 3.05 0.5 3.35 0.55 3.7 0.7 Q4.2 0.9 4.15 1.3 L3.95 1.7 3.75 1.9 3.65 1.9 Q3.15 1.95 2.35 2.25 1.85 2.5 1.7 2.75 L1.6 3.2 1.95 3.5 2.75 3.4 4.45 2.6 5.0 2.95 M1.95 8.15 Q1.3 7.8 1.35 6.85 1.4 6.1 2.05 5.65 L3.05 5.25 4.5 4.9 Q5.35 4.9 5.95 5.5 6.6 6.2 6.15 6.95 L5.7 7.4 Q5.25 7.5 5.0 7.2 L4.8 7.0 4.8 6.85 4.75 6.6 4.8 6.55 4.4 6.15 3.9 6.15 Q3.5 6.1 3.3 6.35 2.9 6.6 3.05 7.15 L3.3 7.45 3.35 7.3 3.7 7.05 4.05 6.95 4.5 7.15 4.85 7.65 5.0 8.15 4.55 8.75 4.4 8.85 4.2 8.9 3.8 8.85 3.7 8.95 3.5 9.1 3.2 9.15 2.55 9.15 Q2.35 9.05 2.45 8.9 L2.35 8.5 2.45 8.45 1.95 8.15 M2.85 10.75 Q2.45 10.15 3.15 9.6 3.5 9.4 4.3 9.15 L6.05 8.55 6.7 8.5 7.2 8.9 Q7.35 9.3 7.15 9.5 L6.6 9.9 6.45 10.15 6.65 10.6 6.7 10.75 7.4 10.35 Q8.1 10.25 8.35 10.85 8.65 11.45 8.1 11.9 L7.6 12.2 5.75 12.85 4.85 13.1 Q4.2 13.0 4.2 12.55 4.1 12.1 4.5 11.8 4.6 11.6 4.85 11.5 L4.65 11.0 3.85 11.25 Q3.05 11.3 2.85 10.75 M8.15 17.25 Q8.4 17.0 8.9 17.0 L9.2 17.15 9.4 17.35 9.9 18.1 10.4 18.9 10.65 19.25 10.8 20.05 10.8 20.35 10.6 21.05 9.75 21.9 8.5 22.05 7.75 21.7 7.3 21.35 6.65 20.6 6.45 20.2 6.25 19.75 6.25 19.45 6.3 19.05 Q6.35 18.55 6.8 18.5 L7.2 18.6 7.45 18.7 7.45 18.8 8.2 20.0 8.8 20.45 9.25 20.45 9.45 20.05 Q9.5 19.7 9.15 19.3 L7.9 17.85 8.15 17.25 M7.0 21.35 Q7.55 22.2 7.55 22.85 7.6 23.4 7.25 23.85 L6.4 24.5 Q5.2 24.85 4.4 23.95 L3.7 22.95 Q3.4 22.2 3.55 21.6 3.65 20.7 4.55 20.3 L6.25 20.45 7.0 21.35 M2.3 24.3 Q2.15 24.75 2.7 25.35 3.0 25.35 3.4 24.95 L4.0 24.45 4.65 24.7 Q4.95 25.05 4.85 25.4 4.85 26.1 4.1 26.55 3.15 27.3 2.1 26.95 L0.85 25.85 0.4 25.0 Q0.2 24.25 0.8 23.35 1.0 22.8 1.5 22.5 L2.6 22.45 3.0 23.05 2.8 23.75 2.3 24.3 M4.9 21.45 L4.55 21.8 Q4.4 22.45 4.75 22.8 5.15 23.25 5.6 23.15 6.2 23.1 6.4 22.55 6.6 22.05 6.25 21.55 5.95 21.2 5.55 21.2 5.2 21.2 4.9 21.45 M14.0 18.85 Q13.75 19.55 12.85 19.7 12.1 19.9 11.5 19.35 L10.85 18.55 10.15 17.2 Q9.95 16.35 10.35 15.65 10.85 14.85 11.7 15.05 L12.25 15.45 Q12.5 15.8 12.25 16.15 L12.1 16.35 11.95 16.4 Q11.8 16.4 11.7 16.5 L11.6 16.45 11.65 16.5 11.4 17.0 11.5 17.45 11.85 18.0 Q12.2 18.3 12.7 18.0 L12.95 17.7 12.8 17.7 12.4 17.45 12.25 17.15 12.3 16.6 12.75 16.15 13.15 15.9 Q13.65 15.85 13.85 16.15 L14.0 16.3 14.1 16.45 14.15 16.85 14.3 16.95 14.5 17.1 14.6 17.35 14.75 18.0 14.55 18.15 14.2 18.3 14.1 18.25 14.0 18.85 M14.15 21.6 L14.5 21.1 14.85 21.1 15.0 21.4 14.9 21.8 15.0 22.4 15.0 23.95 Q14.8 25.35 15.15 27.15 15.55 28.95 16.2 30.6 L16.45 31.3 Q17.05 32.5 16.95 33.2 16.8 34.0 16.15 34.3 15.45 34.6 14.8 34.3 L14.0 33.6 Q12.9 32.25 12.6 28.85 L12.5 27.9 12.45 27.0 12.6 25.85 13.05 23.75 Q13.35 22.5 13.75 22.0 L14.15 21.6 M9.35 33.3 Q9.1 31.7 9.2 31.1 L9.6 29.3 Q9.7 28.8 9.95 28.75 10.15 28.7 10.35 28.95 L10.55 29.35 10.85 30.7 11.3 31.75 12.4 33.7 12.65 34.1 13.0 34.5 13.7 35.0 14.35 35.55 Q15.1 36.45 14.35 37.45 13.6 38.3 12.45 37.85 L11.7 37.3 10.95 36.6 10.5 36.1 9.65 34.8 9.35 33.3 M4.55 33.7 L5.0 34.4 4.95 34.75 4.8 35.0 4.15 35.65 3.55 36.35 3.25 36.7 2.55 37.05 2.25 37.1 1.5 37.1 Q0.9 36.95 0.45 36.45 0.05 36.0 0.0 35.3 L0.15 34.5 0.9 33.15 1.25 32.9 1.6 32.55 1.9 32.5 2.35 32.45 Q2.85 32.35 3.0 32.75 L3.0 33.45 2.9 33.45 1.9 34.5 Q1.6 34.95 1.65 35.2 L1.75 35.65 2.2 35.75 2.8 35.25 3.9 33.65 4.55 33.7 M4.5 39.8 Q3.75 39.75 3.4 38.9 3.05 38.25 3.4 37.5 L4.0 36.7 Q4.7 35.85 5.15 35.65 L6.7 35.45 Q7.55 35.75 7.6 36.6 7.65 37.0 7.35 37.25 7.1 37.55 6.65 37.45 L6.45 37.35 6.35 37.2 6.2 36.95 6.2 36.85 6.15 36.9 5.65 36.8 5.25 37.0 Q4.85 37.15 4.75 37.5 4.55 37.95 5.0 38.3 L5.35 38.5 5.3 38.35 5.45 37.9 5.7 37.7 6.25 37.6 6.8 37.9 7.15 38.2 Q7.35 38.7 7.1 39.0 L6.95 39.1 6.85 39.25 6.45 39.4 6.45 39.6 6.35 39.85 6.15 40.0 5.5 40.3 5.3 40.15 5.1 39.85 5.1 39.7 4.5 39.8 M6.3 40.45 L7.05 39.4 8.3 38.0 8.85 37.65 9.45 37.75 9.7 38.35 9.45 38.95 9.4 39.2 9.8 39.55 9.95 39.6 10.35 38.9 Q10.95 38.5 11.4 38.9 12.0 39.3 11.75 39.95 L11.45 40.45 11.25 40.7 6.25 40.7 6.3 40.45" fill="#717171" fill-rule="evenodd" stroke="none"></path>       <path d="M38.35 15.15 Q38.1 15.05 38.1 14.55 38.1 13.9 38.8 13.0 L39.35 12.25 40.2 11.3 Q40.75 10.85 41.3 10.85 42.35 10.85 42.6 11.8 42.9 12.7 42.1 13.35 L41.3 13.7 39.9 14.6 39.2 15.2 38.35 15.15 M44.1 36.55 L43.3 36.35 Q42.85 36.05 42.75 35.5 L42.65 34.3 42.25 33.65 Q42.05 33.1 42.2 32.9 42.4 32.6 43.0 32.7 44.6 32.95 45.15 34.35 45.5 35.1 45.2 35.75 44.85 36.55 44.1 36.55" fill="#ffffff" fill-rule="evenodd" stroke="none"></path>       <path d="M50.85 19.85 Q51.9 20.15 51.9 20.85 51.9 21.4 51.25 21.7 L50.2 21.9 45.6 22.1 41.05 22.9 39.85 23.1 Q39.15 23.1 38.8 22.4 38.5 21.75 38.8 21.1 L39.7 20.3 40.85 20.0 43.15 19.55 Q44.5 19.35 46.4 19.5 L49.7 19.7 50.85 19.85" fill="#000000" fill-rule="evenodd" stroke="none"></path>     </g>     <g id="shape2">       <path d="M-0.5 -0.4 L-0.5 -0.55 75.1 -0.55 75.1 -0.4 75.1 40.8 -0.5 40.8 -0.5 -0.4 Z" fill="none" stroke="#000000" stroke-linecap="round" stroke-linejoin="round" stroke-width="3.0"></path>     </g>   </defs> </svg>