<svg xmlns="http://www.w3.org/2000/svg" xmlns:ffdec="https://www.free-decompiler.com/flash" xmlns:xlink="http://www.w3.org/1999/xlink" ffdec:objectType="frame" viewBox="39.95 7.40 75.60 41.35">
  <g transform="matrix(1.0, 0.0, 0.0, 1.0, 40.45, 7.95)">
    <use ffdec:characterId="1" height="42.7" transform="matrix(1.0, 0.0, 0.0, 1.0, 0.0, 0.0)" width="76.45" xlink:href="#shape0" />
    <use ffdec:characterId="468" height="40.0" transform="matrix(1.0, 0.0, 0.0, 1.0, 0.0, 0.0)" width="76.15" xlink:href="#shape1" />
    <use ffdec:characterId="3" height="44.35" transform="matrix(1.0, 0.0, 0.0, 1.0, 0.0, 0.0)" width="78.6" xlink:href="#shape2" />
  </g>
  <defs>
    <g id="shape0">
      <path d="M2.8 0.0 L2.8 -0.4 5.4 -0.4 5.4 0.0 9.7 0.0 9.7 19.45 9.7 0.0 20.55 0.0 19.3 19.45 9.7 19.45 0.25 19.45 0.25 0.0 2.8 0.0" fill="#ffffff" fill-rule="evenodd" stroke="none" />
      <path d="M0.25 19.45 L9.7 19.45 19.3 19.45 18.7 28.6 16.0 28.5 10.95 27.95 9.7 27.8 Q7.45 27.6 5.85 27.75 4.05 27.9 1.5 28.6 0.75 28.8 0.25 29.15 L0.25 19.45 M9.7 19.45 L9.7 27.8 9.7 19.45" fill="#121212" fill-rule="evenodd" stroke="none" />
      <path d="M9.7 27.8 L10.95 27.95 16.0 28.5 18.7 28.6 19.75 28.6 23.5 28.75 Q25.95 29.05 27.1 30.0 27.7 30.5 27.7 31.1 27.7 31.75 26.9 32.1 L25.6 32.3 18.45 32.45 12.85 32.15 9.7 31.75 7.95 31.6 3.1 31.95 0.95 32.3 0.25 32.1 -0.35 31.55 -0.5 31.3 -0.5 29.9 0.25 29.15 Q0.75 28.8 1.5 28.6 4.05 27.9 5.85 27.75 7.45 27.6 9.7 27.8 L9.7 31.75 9.7 27.8" fill="#999999" fill-rule="evenodd" stroke="none" />
      <path d="M2.8 0.0 L0.25 0.0 M9.7 0.0 L5.4 0.0 M21.55 0.0 L32.25 0.0 M20.55 0.0 L9.7 0.0" fill="none" stroke="#666666" stroke-linecap="round" stroke-linejoin="round" stroke-width="4.0" />
      <path d="M9.7 -0.4 L74.7 -0.4 74.7 40.5 47.05 40.5 45.5 40.7 27.0 40.65 25.95 40.5 9.7 40.5 -0.5 40.5 -0.5 -0.4 9.7 -0.4 9.7 40.5 9.7 -0.4" fill="#ffffff" fill-rule="evenodd" stroke="none" />
    </g>
    <g id="shape1">
      <path d="M47.0 28.7 L46.6 29.25 Q45.5 30.35 44.05 29.85 L43.9 29.8 45.0 33.3 45.25 33.85 46.1 33.95 47.7 34.2 Q48.5 34.6 48.9 35.5 49.35 36.35 49.15 37.2 48.95 38.05 48.2 38.65 47.45 39.25 46.6 39.2 L45.5 39.05 44.45 38.75 42.85 38.5 Q41.95 38.3 41.55 37.8 41.05 37.25 40.95 35.8 L40.3 32.0 40.05 31.0 39.1 31.15 35.55 31.45 35.25 31.45 Q32.95 33.3 29.8 33.9 L29.65 33.95 29.35 35.8 Q29.25 37.25 28.75 37.8 L27.45 38.5 25.85 38.75 24.8 39.05 23.7 39.2 Q22.85 39.25 22.1 38.65 21.35 38.05 21.15 37.2 20.95 36.35 21.4 35.5 21.8 34.6 22.6 34.2 L24.2 33.95 25.05 33.85 25.1 33.85 23.3 33.3 21.85 32.75 20.4 32.4 Q18.7 32.3 17.6 33.65 L16.85 34.9 16.0 36.05 Q15.5 36.55 14.7 36.65 L13.3 36.4 Q12.65 36.05 12.3 35.4 12.0 34.7 12.05 33.95 12.25 32.75 13.8 31.45 15.7 29.95 17.85 29.3 20.25 28.65 22.3 29.25 L25.1 30.3 26.15 30.55 26.4 29.8 26.25 29.85 Q24.8 30.35 23.7 29.25 L23.35 28.8 Q22.75 27.85 23.2 26.7 23.45 26.0 23.95 25.6 24.45 25.2 25.2 25.05 L24.75 23.35 24.4 22.3 Q24.25 21.6 24.35 20.7 L24.6 19.6 Q25.05 18.75 26.0 18.1 27.1 17.4 28.4 17.25 L29.6 17.05 29.75 17.0 Q28.45 16.1 27.75 14.95 26.55 13.05 26.7 10.65 L25.65 10.15 Q24.45 9.35 24.15 8.7 L23.9 7.7 Q23.95 7.1 24.35 6.75 L24.85 6.4 25.6 6.05 Q27.25 5.15 29.7 4.6 31.4 3.25 33.25 3.0 L33.65 2.95 34.35 2.9 37.6 2.95 38.2 3.05 38.4 2.95 39.05 2.65 40.05 2.35 40.9 2.3 41.05 2.25 42.05 2.15 Q42.55 2.2 42.9 2.55 L43.2 2.95 43.3 3.4 43.25 4.25 43.0 5.4 42.7 6.95 43.45 9.5 Q44.05 12.6 42.55 14.95 41.85 16.1 40.55 17.0 L40.7 17.05 41.9 17.25 Q43.2 17.4 44.3 18.1 45.25 18.75 45.7 19.6 L45.95 20.7 45.9 22.3 45.55 23.35 Q45.25 24.15 45.1 25.05 45.95 25.2 46.5 25.7 L47.1 26.7 Q47.5 27.75 47.0 28.7 M42.45 20.85 L40.65 20.0 41.75 23.05 42.45 20.85 M27.85 20.85 L28.55 23.05 29.65 20.0 27.85 20.85" fill="#000000" fill-rule="evenodd" stroke="none" />
      <path d="M23.35 28.8 L22.4 28.8 17.7 28.8 12.1 28.8 11.25 28.75 9.45 28.75 8.45 28.7 7.55 28.7 7.05 28.7 6.55 28.65 4.85 28.65 4.45 28.65 1.95 28.65 1.0 28.7 0.85 28.75 0.8 28.75 0.75 28.8 0.65 28.8 0.4 28.8 0.15 28.8 0.05 28.8 -0.1 28.75 -0.25 28.7 -0.4 28.6 -0.45 28.55 -0.55 28.5 -0.65 28.4 -0.7 28.35 -0.75 28.3 -0.8 28.25 -0.85 28.15 -0.9 28.1 -0.95 28.05 -0.95 28.0 -1.0 27.9 -1.05 27.85 -1.05 27.75 -1.05 27.65 -1.1 27.6 -1.1 27.5 -1.1 27.4 -1.1 27.35 -1.15 27.3 -1.15 27.25 -1.1 27.15 -1.1 27.0 -1.1 26.9 -1.05 26.85 -1.05 26.75 -1.05 26.65 -1.0 26.6 -0.95 26.55 -0.95 26.5 -0.9 26.4 -0.8 26.3 -0.75 26.25 -0.7 26.15 -0.65 26.1 -0.55 26.05 -0.5 26.0 -0.45 26.0 -0.5 25.95 -0.55 25.85 -0.55 25.7 -0.6 25.6 -0.6 25.45 -0.65 25.35 -0.65 25.2 -0.65 25.1 -0.65 24.95 -0.65 24.85 -0.65 24.7 -0.65 24.6 -0.65 24.45 -0.65 24.35 -0.65 24.25 -0.65 24.15 -0.65 24.0 -0.65 23.9 -0.65 23.75 -0.65 23.65 -0.65 23.5 -0.65 23.4 -0.65 23.25 -0.65 23.15 -0.65 23.0 -0.65 22.9 -0.65 22.75 -0.65 22.65 -0.65 22.5 -0.6 22.4 -0.6 22.25 -0.6 22.15 -0.6 22.0 -0.6 21.9 -0.6 21.75 -0.6 21.65 -0.6 21.55 -0.6 21.45 -0.6 21.3 -0.6 21.2 -0.6 21.1 -0.55 21.05 -0.55 20.95 -0.55 20.8 -0.55 20.7 -0.55 20.55 -0.55 20.45 -0.55 20.3 -0.55 20.2 -0.55 20.05 -0.55 19.95 -0.55 19.8 -0.55 19.7 -0.55 19.55 -0.55 19.45 -0.55 19.3 -0.55 19.2 -0.55 19.05 -0.55 18.95 -0.55 18.85 -0.55 18.75 -0.55 18.6 -0.55 18.5 -0.55 18.35 -0.55 18.25 -0.55 18.1 -0.55 18.0 -0.55 17.85 -0.55 17.75 -0.55 17.6 -0.55 17.5 -0.55 17.35 -0.55 17.25 -0.55 17.1 -0.55 17.0 -0.55 16.85 -0.55 16.75 -0.55 16.6 -0.55 16.5 -0.55 16.4 -0.55 16.3 -0.55 16.15 -0.55 16.05 -0.55 15.9 -0.55 15.8 -0.55 15.65 -0.55 15.55 -0.55 15.4 -0.55 15.3 -0.55 15.15 -0.55 15.05 -0.55 14.9 -0.55 14.8 -0.55 14.65 -0.55 14.55 -0.55 14.4 -0.55 14.3 -0.55 14.15 -0.55 14.05 -0.55 13.9 -0.55 13.8 -0.55 13.7 -0.55 13.6 -0.55 13.45 -0.55 13.35 -0.55 13.2 -0.55 13.1 -0.55 12.95 -0.55 12.85 -0.55 12.7 -0.55 12.6 -0.55 12.45 -0.55 12.35 -0.55 12.2 -0.55 12.1 -0.55 11.95 -0.55 11.85 -0.55 11.7 -0.55 11.6 -0.55 11.45 -0.55 11.35 -0.55 11.2 -0.55 11.1 -0.55 11.0 -0.55 10.9 -0.55 10.75 -0.55 10.65 -0.55 10.5 -0.55 10.4 -0.55 10.25 -0.55 10.15 -0.55 10.0 -0.55 9.9 -0.55 9.75 -0.55 9.65 -0.55 9.5 -0.55 9.4 -0.55 9.25 -0.55 9.15 -0.55 9.0 -0.55 8.9 -0.55 8.75 -0.55 8.65 -0.55 8.55 -0.55 8.45 -0.55 8.3 -0.55 8.2 -0.55 8.05 -0.55 7.95 -0.55 7.8 -0.55 7.7 -0.55 7.55 -0.55 7.45 -0.55 7.3 -0.55 7.2 -0.55 7.05 -0.55 6.95 -0.55 6.8 -0.55 6.7 -0.55 6.55 -0.55 6.45 -0.55 6.3 -0.55 6.2 -0.55 6.05 -0.55 5.95 -0.55 5.85 -0.55 5.75 -0.55 5.6 -0.55 5.5 -0.55 5.35 -0.55 5.25 -0.55 5.1 -0.55 5.0 -0.55 4.85 -0.55 4.75 -0.55 4.6 -0.55 4.5 -0.55 4.35 -0.55 4.25 -0.55 4.1 -0.55 4.0 -0.55 3.85 -0.55 3.75 -0.55 3.6 -0.55 3.5 -0.55 3.45 -0.5 3.4 -0.5 3.35 -0.5 3.25 -0.5 3.15 -0.5 3.05 -0.5 2.9 -0.5 2.8 -0.5 2.7 -0.45 2.65 -0.45 2.55 -0.45 2.4 -0.45 2.3 -0.45 2.15 -0.4 2.05 -0.4 1.9 -0.4 1.8 -0.4 1.75 -0.35 1.7 -0.35 1.65 -0.35 1.55 -0.3 1.5 -0.3 1.4 -0.3 1.3 -0.25 1.25 -0.2 1.2 -0.2 1.15 -0.15 1.05 -0.15 0.9 -0.1 0.8 -0.1 0.7 -0.05 0.6 -0.05 0.5 0.0 0.45 0.05 0.35 0.1 0.3 0.15 0.25 0.2 0.2 0.2 0.1 0.3 0.05 0.35 0.0 0.4 -0.05 0.45 -0.15 0.55 -0.2 0.6 -0.25 0.7 -0.3 0.85 -0.4 1.0 -0.45 1.1 -0.5 1.2 -0.5 1.3 -0.55 1.4 -0.55 1.65 -0.55 1.8 -0.6 2.05 -0.6 2.4 -0.65 3.1 -0.65 4.35 -0.65 6.4 -0.7 6.8 -0.7 7.15 -0.7 8.3 -0.7 8.75 -0.7 11.85 -0.7 16.4 -0.75 29.2 -0.75 32.25 -0.75 37.7 -0.75 43.6 -0.75 47.75 -0.75 48.65 -0.75 51.05 -0.75 53.1 -0.8 60.15 -0.8 62.0 -0.8 69.45 -0.8 70.35 -0.75 70.85 -0.75 71.1 -0.7 71.3 -0.7 71.5 -0.65 71.65 -0.65 71.75 -0.65 71.85 -0.6 71.95 -0.6 72.05 -0.55 72.1 -0.55 72.35 -0.55 72.55 -0.5 72.7 -0.5 72.95 -0.45 73.1 -0.45 73.2 -0.4 73.3 -0.4 73.35 -0.4 73.55 -0.35 73.7 -0.35 73.8 -0.3 73.95 -0.25 74.1 -0.15 74.2 -0.1 74.25 -0.05 74.35 0.0 74.4 0.05 74.45 0.1 74.5 0.15 74.6 0.25 74.6 0.3 74.65 0.35 74.7 0.4 74.75 0.5 74.8 0.55 74.8 0.6 74.85 0.65 74.85 0.75 74.9 0.8 74.9 0.85 74.95 0.9 74.95 1.0 75.0 1.05 75.0 1.15 75.0 1.25 75.0 1.4 75.0 1.5 75.0 1.65 75.0 1.75 74.95 1.8 74.95 1.85 74.9 1.9 74.9 2.0 74.9 2.1 74.95 2.15 74.95 2.25 74.95 2.35 74.95 2.45 74.95 2.5 75.0 2.55 75.0 2.6 75.0 2.7 75.0 2.85 74.95 2.95 74.95 3.1 74.95 3.2 74.95 3.35 74.95 3.45 74.95 3.6 74.95 3.7 74.95 3.85 74.95 3.95 74.95 4.1 74.95 4.2 74.95 4.35 74.95 4.45 74.95 4.55 75.0 4.6 75.0 4.7 75.0 4.85 75.0 4.95 75.0 5.05 75.0 5.15 75.0 5.3 75.0 5.4 75.0 5.55 75.0 5.65 75.0 5.7 74.95 5.75 74.95 5.8 74.95 5.9 74.95 6.05 74.95 6.15 74.95 6.3 74.95 6.4 74.95 6.55 74.95 6.65 74.95 6.8 74.95 6.9 74.95 7.05 74.95 7.15 74.95 7.3 74.95 7.4 74.95 7.55 75.0 7.65 75.0 7.75 75.0 7.85 75.0 8.0 75.0 8.1 75.0 8.25 75.0 8.35 75.0 8.5 75.0 8.6 75.0 8.75 75.0 8.85 75.0 9.0 75.0 9.1 75.0 9.25 75.0 9.35 75.0 9.5 75.0 9.6 75.0 9.75 75.0 9.85 75.0 10.0 75.0 10.1 75.0 10.2 75.0 10.3 75.0 10.45 75.0 10.55 75.0 10.7 75.0 10.8 75.0 10.95 75.0 11.05 75.0 11.2 75.0 11.3 75.0 11.45 75.0 11.55 75.0 11.7 75.0 11.8 75.0 11.95 75.0 12.05 75.0 12.2 75.0 12.3 75.0 12.45 75.0 12.55 75.0 12.7 75.0 12.8 75.0 12.9 75.0 13.0 75.0 13.15 75.0 13.25 75.0 13.4 75.0 13.5 75.0 13.65 75.0 13.75 75.0 13.9 75.0 14.0 75.0 14.15 75.0 14.25 75.0 14.4 75.0 14.5 75.0 14.65 75.0 14.75 75.0 14.9 75.0 15.0 75.0 15.15 75.0 15.25 75.0 15.4 75.0 15.5 75.0 15.6 75.0 15.7 75.0 15.85 75.0 15.95 75.0 16.1 75.0 16.2 75.0 16.35 75.0 16.45 75.0 16.6 75.0 16.7 75.0 16.85 75.0 16.95 75.0 17.1 75.0 17.2 75.0 17.35 75.0 17.45 75.0 17.6 75.0 17.7 75.0 17.85 75.0 17.95 75.0 18.05 75.0 18.15 75.0 18.3 75.0 18.4 75.0 18.55 75.0 18.65 75.0 18.8 75.0 18.9 75.0 19.05 75.0 19.15 75.0 19.3 75.0 19.4 75.0 19.55 75.0 19.65 75.0 19.8 75.0 19.9 75.0 20.05 75.0 20.15 75.0 20.3 75.0 20.4 75.0 20.55 75.0 20.65 75.0 20.75 75.0 20.85 75.0 21.0 75.0 21.1 75.0 21.25 75.0 21.35 75.0 21.5 75.0 21.6 75.0 21.75 75.0 21.85 75.0 22.0 75.0 22.1 75.0 22.25 75.0 22.35 75.0 22.4 74.95 22.45 74.95 22.5 74.95 22.6 74.95 22.75 74.95 22.85 74.95 23.0 74.95 23.1 74.95 23.25 74.95 23.35 74.95 23.45 74.95 23.55 74.95 23.7 74.9 23.8 74.9 23.95 74.9 24.05 74.9 24.2 74.9 24.3 74.9 24.45 74.9 24.55 74.9 24.6 74.85 24.65 74.85 24.7 74.85 24.8 74.85 24.95 74.85 25.05 74.85 25.2 74.8 25.3 74.8 25.45 74.8 25.55 74.8 25.6 74.75 25.65 74.75 25.7 74.75 25.8 74.75 25.9 74.75 26.0 74.75 26.1 74.7 26.15 74.7 26.25 74.7 26.4 74.7 26.5 74.65 26.55 74.65 26.65 74.65 26.75 74.65 26.9 74.65 27.0 74.65 27.15 74.65 27.25 74.6 27.3 74.6 27.4 74.55 27.5 74.55 27.55 74.5 27.6 74.5 27.65 74.45 27.75 74.45 27.8 74.4 27.85 74.35 27.9 74.3 28.0 74.25 28.05 74.2 28.1 74.15 28.15 74.05 28.25 73.95 28.3 73.85 28.35 73.7 28.4 73.6 28.45 73.5 28.5 73.45 28.55 73.35 28.6 73.25 28.65 73.1 28.7 73.0 28.75 72.9 28.8 72.8 28.8 72.65 28.8 72.4 28.85 72.2 28.85 72.1 28.85 70.85 28.85 70.7 28.85 70.55 28.85 68.9 28.8 68.65 28.8 68.2 28.85 67.65 28.85 67.1 28.8 66.0 28.8 64.1 28.8 62.85 28.75 60.95 28.75 57.85 28.7 55.85 28.7 55.25 28.7 49.75 28.7 47.0 28.7 Q47.5 27.75 47.1 26.7 L46.5 25.7 Q45.95 25.2 45.1 25.05 45.25 24.15 45.55 23.35 L45.9 22.3 45.95 20.7 45.7 19.6 Q45.25 18.75 44.3 18.1 43.2 17.4 41.9 17.25 L40.7 17.05 40.55 17.0 Q41.85 16.1 42.55 14.95 44.05 12.6 43.45 9.5 L42.7 6.95 43.0 5.4 43.25 4.25 43.3 3.4 43.2 2.95 42.9 2.55 Q42.55 2.2 42.05 2.15 L41.05 2.25 40.9 2.3 40.05 2.35 39.05 2.65 38.4 2.95 38.2 3.05 37.6 2.95 34.35 2.9 33.65 2.95 33.25 3.0 Q31.4 3.25 29.7 4.6 27.25 5.15 25.6 6.05 L24.85 6.4 24.35 6.75 Q23.95 7.1 23.9 7.7 L24.15 8.7 Q24.45 9.35 25.65 10.15 L26.7 10.65 Q26.55 13.05 27.75 14.95 28.45 16.1 29.75 17.0 L29.6 17.05 28.4 17.25 Q27.1 17.4 26.0 18.1 25.05 18.75 24.6 19.6 L24.35 20.7 Q24.25 21.6 24.4 22.3 L24.75 23.35 25.2 25.05 Q24.45 25.2 23.95 25.6 23.45 26.0 23.2 26.7 22.75 27.85 23.35 28.8 M42.45 20.85 L41.75 23.05 40.65 20.0 42.45 20.85 M27.85 20.85 L29.65 20.0 28.55 23.05 27.85 20.85" fill="#717171" fill-rule="evenodd" stroke="none" />
      <path d="M28.75 12.6 L29.0 12.75 29.85 13.25 30.9 13.35 Q31.75 13.4 32.95 12.7 L33.5 12.35 33.95 11.8 34.1 11.55 Q34.2 11.1 34.75 10.95 L35.05 10.9 35.35 10.95 Q35.9 11.1 36.05 11.55 L36.15 11.8 36.6 12.35 37.15 12.7 Q38.35 13.4 39.2 13.35 L40.25 13.25 41.1 12.75 41.5 12.5 41.95 12.45 42.35 13.05 42.2 13.5 41.55 14.2 40.4 14.9 37.65 15.0 35.9 14.2 35.05 13.5 34.2 14.2 32.45 15.0 29.7 14.9 28.55 14.2 27.9 13.5 Q27.75 13.4 27.75 13.05 L28.15 12.45 28.3 12.4 28.75 12.6 M28.25 11.0 L27.85 10.3 Q27.5 9.5 27.75 8.75 28.0 7.95 28.7 7.45 29.4 6.95 30.2 7.0 30.95 7.05 31.5 7.45 L32.35 8.55 Q32.8 9.75 32.15 10.8 L31.65 10.7 29.45 10.65 28.45 10.85 28.25 11.0 M38.3 11.2 Q37.2 10.0 37.75 8.55 37.95 7.9 38.6 7.45 39.15 7.05 39.9 7.0 40.7 6.95 41.4 7.45 42.1 7.95 42.35 8.75 42.6 9.5 42.25 10.3 41.95 11.1 41.25 11.55 L39.7 11.85 Q38.85 11.75 38.3 11.2" fill="#ffffff" fill-rule="evenodd" stroke="none" />
      <path d="M28.3 12.4 L28.1 12.2 Q27.9 11.9 28.0 11.45 L28.25 11.0 28.45 10.85 29.45 10.65 31.65 10.7 32.15 10.8 Q32.65 10.95 32.85 11.35 L32.85 12.0 32.4 12.5 31.45 12.65 29.8 12.6 28.9 12.6 28.75 12.6 28.3 12.4" fill="#000000" fill-rule="evenodd" stroke="none" />
      <path d="M35.8 28.05 L36.05 29.25 36.2 29.85 36.5 30.9 36.65 31.55 36.6 31.75 Q36.45 31.95 36.2 31.75 L35.75 31.25 35.55 30.6 34.9 29.5 34.5 28.55 34.35 27.7 Q34.45 27.2 34.85 27.15 35.2 27.0 35.5 27.4 L35.8 28.05" fill="#000000" fill-rule="evenodd" stroke="none" />
      <path d="M32.45 26.9 L33.5 26.5 33.2 25.85 33.1 24.85 33.1 24.05 Q33.1 23.5 33.55 23.2 34.05 22.85 34.55 23.0 L35.3 23.7 Q35.55 24.2 35.35 24.65 L35.05 25.25 Q34.9 25.5 34.9 26.1 L34.85 26.25 35.6 26.5 36.1 26.75 36.75 26.8 38.0 26.8 Q38.5 27.0 38.85 27.45 39.2 27.9 39.15 28.4 39.15 29.1 38.65 29.6 L38.3 29.8 38.55 29.9 Q39.15 30.3 39.15 31.0 39.15 31.75 38.55 32.15 L38.5 32.2 38.95 32.55 Q39.35 33.0 39.4 33.6 39.55 34.25 39.25 34.75 L38.35 35.5 37.2 35.45 Q36.55 35.15 36.0 34.15 L35.7 33.75 35.25 34.0 Q34.3 34.45 33.45 33.75 L33.15 33.45 32.8 32.8 32.65 32.05 31.85 32.1 Q31.0 32.0 30.4 31.25 29.95 30.55 30.1 29.75 30.2 29.2 31.0 28.1 L31.4 27.65 Q31.75 27.3 32.45 26.9 M35.8 28.05 L35.5 27.4 Q35.2 27.0 34.85 27.15 34.45 27.2 34.35 27.7 L34.5 28.55 34.9 29.5 35.55 30.6 35.75 31.25 36.2 31.75 Q36.45 31.95 36.6 31.75 L36.65 31.55 36.5 30.9 36.2 29.85 36.05 29.25 35.8 28.05" fill="#717171" fill-rule="evenodd" stroke="none" />
    </g>
    <g id="shape2">
      <path d="M-0.5 -0.4 L-0.5 -0.55 75.1 -0.55 75.1 -0.4 75.1 40.8 -0.5 40.8 -0.5 -0.4 Z" fill="none" stroke="#000000" stroke-linecap="round" stroke-linejoin="round" stroke-width="3.0" />
    </g>
  </defs>
</svg>