<?xml version="1.0" encoding="UTF-8"?>
<svg version="1.1" xmlns="http://www.w3.org/2000/svg" width="109" height="60">
<path d="M0 0 C35.97 0 71.94 0 109 0 C109 19.8 109 39.6 109 60 C73.03 60 37.06 60 0 60 C0 40.2 0 20.4 0 0 Z " fill="#999999" transform="translate(0,0)"/>
<path d="M0 0 C35.97 0 71.94 0 109 0 C109 19.8 109 39.6 109 60 C73.03 60 37.06 60 0 60 C0 40.2 0 20.4 0 0 Z M41 3 C38.77948679 7.65375557 38.77948679 7.65375557 39 11.5625 C39 15 39 15 38 16.9375 C36.4235463 20.18893576 36.53157201 23.49028577 37 27 C38.26333273 29.80167287 38.26333273 29.80167287 40 32 C40.66 32.99 41.32 33.98 42 35 C39.10062795 40.49354704 35.78598325 43.47803367 29.9375 45.5 C26.4466142 46.73401823 24.15876018 47.85180807 22 51 C22 52.98 22 54.96 22 57 C49.72 57 77.44 57 106 57 C106 39.18 106 21.36 106 3 C84.55 3 63.1 3 41 3 Z " fill="#989898" transform="translate(0,0)"/>
<path d="M0 0 C8.91 0 17.82 0 27 0 C30.28275862 21.33793103 30.28275862 21.33793103 26 28 C25 29 24 30 23 31 C23 31.99 23 32.98 23 34 C24.2684375 35.11375 24.2684375 35.11375 25.5625 36.25 C28 39 28 39 27.9375 42.4375 C27.628125 43.613125 27.31875 44.78875 27 46 C26.79375 47.093125 26.5875 48.18625 26.375 49.3125 C25 52 25 52 21.96264648 53.15576172 C17.70885196 54.22558482 13.58713243 54.25358017 9.22265625 54.1953125 C8.41130722 54.1924826 7.59995819 54.18965271 6.76402283 54.18673706 C4.19669247 54.17562663 1.62972322 54.15053971 -0.9375 54.125 C-2.68814597 54.11495836 -4.43879746 54.10583459 -6.18945312 54.09765625 C-10.45977254 54.07571734 -14.72982525 54.0412516 -19 54 C-19.15234375 51.1640625 -19.15234375 51.1640625 -19 48 C-15.19534178 43.90267576 -11.15159943 42.10142804 -6.0546875 39.96484375 C-2.61802871 38.3510515 -0.68030334 36.36060668 1 33 C1.22422426 30.78208204 1.22422426 30.78208204 -0.875 28.9375 C-1.57625 28.298125 -2.2775 27.65875 -3 27 C-4.95108389 21.14674834 -4.32439081 16.52042817 -2 11 C-2 10.01 -2 9.02 -2 8 C-2 5 -2 5 0 0 Z " fill="#FDFDFD" transform="translate(41,3)"/>
<path d="M0 0 C35.97 0 71.94 0 109 0 C109 19.8 109 39.6 109 60 C73.03 60 37.06 60 0 60 C0 40.2 0 20.4 0 0 Z M3 3 C3 20.82 3 38.64 3 57 C36.99 57 70.98 57 106 57 C106 39.18 106 21.36 106 3 C72.01 3 38.02 3 3 3 Z " fill="#0C0C0C" transform="translate(0,0)"/>
<path d="M0 0 C5.28 0 10.56 0 16 0 C12 5 12 5 9.421875 5.48828125 C8.09929688 5.40126953 8.09929688 5.40126953 6.75 5.3125 C5.85796875 5.26738281 4.9659375 5.22226563 4.046875 5.17578125 C3.37140625 5.11777344 2.6959375 5.05976563 2 5 C1.34 3.35 0.68 1.7 0 0 Z " fill="#9F9F9F" transform="translate(47,3)"/>
<path d="M0 0 C0 1.32 0 2.64 0 4 C-4.51617599 4.07654536 -8.59085217 4.10228696 -13 3 C-13 2.01 -13 1.02 -13 0 C-8.70336653 -1.01097258 -4.08261196 -2.04130598 0 0 Z " fill="#101010" transform="translate(87,22)"/>
<path d="M0 0 C3.96 0.33 7.92 0.66 12 1 C12 1.66 12 2.32 12 3 C7.46298506 4.45184478 3.81938524 5.23509196 -1 5 C-0.67 3.35 -0.34 1.7 0 0 Z " fill="#0A0A0A" transform="translate(22,21)"/>
<path d="M0 0 C3.491933 0.64665426 6.15389899 1.86542424 9 4 C9 5.32 9 6.64 9 8 C5.41209425 7.70100785 4.21833224 7.23013399 1.6875 4.5625 C0 2 0 2 0 0 Z " fill="#0F0F0F" transform="translate(72,29)"/>
<path d="M0 0 C-3.515625 4.6875 -3.515625 4.6875 -5 6 C-6.32 6 -7.64 6 -9 6 C-8.75 3.625 -8.75 3.625 -8 1 C-5.12800349 -1.17875597 -3.33791789 -1.19211353 0 0 Z " fill="#090909" transform="translate(35,31)"/>
<path d="M0 0 C0.66 2.64 1.32 5.28 2 8 C1.01 8 0.02 8 -1 8 C-1 7.01 -1 6.02 -1 5 C-3.31 4.67 -5.62 4.34 -8 4 C-5.29881977 1.17603885 -4.05589853 0 0 0 Z " fill="#A3A3A3" transform="translate(37,49)"/>
<path d="M0 0 C1.32 0.33 2.64 0.66 4 1 C3.8125 2.875 3.8125 2.875 3 5 C0.625 6.3125 0.625 6.3125 -2 7 C-2.99 6.67 -3.98 6.34 -5 6 C-3.35 4.02 -1.7 2.04 0 0 Z " fill="#111111" transform="translate(76,10)"/>
<path d="M0 0 C2.79828356 0.38597015 3.8205884 0.80136573 5.75 2.9375 C7 5 7 5 7 7 C1.25 6.25 1.25 6.25 -1 4 C-0.625 1.875 -0.625 1.875 0 0 Z " fill="#0F0F0F" transform="translate(29,10)"/>
</svg>
