<svg xmlns="http://www.w3.org/2000/svg" xmlns:ffdec="https://www.free-decompiler.com/flash" xmlns:xlink="http://www.w3.org/1999/xlink" ffdec:objectType="frame" viewBox="39.95 7.40 75.60 41.35">
  <g transform="matrix(1.0, 0.0, 0.0, 1.0, 40.45, 7.95)">
    <use ffdec:characterId="1" height="42.7" transform="matrix(1.0, 0.0, 0.0, 1.0, 0.0, 0.0)" width="76.45" xlink:href="#shape0" />
    <use ffdec:characterId="462" height="36.1" transform="matrix(1.0, 0.0, 0.0, 1.0, 0.0, 0.0)" width="68.6" xlink:href="#shape1" />
    <use ffdec:characterId="3" height="44.35" transform="matrix(1.0, 0.0, 0.0, 1.0, 0.0, 0.0)" width="78.6" xlink:href="#shape2" />
  </g>
  <defs>
    <g id="shape0">
      <path d="M2.8 0.0 L2.8 -0.4 5.4 -0.4 5.4 0.0 9.7 0.0 9.7 19.45 9.7 0.0 20.55 0.0 19.3 19.45 9.7 19.45 0.25 19.45 0.25 0.0 2.8 0.0" fill="#ffffff" fill-rule="evenodd" stroke="none" />
      <path d="M0.25 19.45 L9.7 19.45 19.3 19.45 18.7 28.6 16.0 28.5 10.95 27.95 9.7 27.8 Q7.45 27.6 5.85 27.75 4.05 27.9 1.5 28.6 0.75 28.8 0.25 29.15 L0.25 19.45 M9.7 19.45 L9.7 27.8 9.7 19.45" fill="#121212" fill-rule="evenodd" stroke="none" />
      <path d="M9.7 27.8 L10.95 27.95 16.0 28.5 18.7 28.6 19.75 28.6 23.5 28.75 Q25.95 29.05 27.1 30.0 27.7 30.5 27.7 31.1 27.7 31.75 26.9 32.1 L25.6 32.3 18.45 32.45 12.85 32.15 9.7 31.75 7.95 31.6 3.1 31.95 0.95 32.3 0.25 32.1 -0.35 31.55 -0.5 31.3 -0.5 29.9 0.25 29.15 Q0.75 28.8 1.5 28.6 4.05 27.9 5.85 27.75 7.45 27.6 9.7 27.8 L9.7 31.75 9.7 27.8" fill="#999999" fill-rule="evenodd" stroke="none" />
      <path d="M2.8 0.0 L0.25 0.0 M9.7 0.0 L5.4 0.0 M21.55 0.0 L32.25 0.0 M20.55 0.0 L9.7 0.0" fill="none" stroke="#666666" stroke-linecap="round" stroke-linejoin="round" stroke-width="4.0" />
      <path d="M9.7 -0.4 L74.7 -0.4 74.7 40.5 47.05 40.5 45.5 40.7 27.0 40.65 25.95 40.5 9.7 40.5 -0.5 40.5 -0.5 -0.4 9.7 -0.4 9.7 40.5 9.7 -0.4" fill="#ffffff" fill-rule="evenodd" stroke="none" />
    </g>
    <g id="shape1">
      <path d="M66.45 20.4 L67.0 20.05 67.1 20.0 67.7 19.4 Q68.0 19.1 68.2 19.05 L68.7 19.15 69.05 19.55 Q69.3 20.05 68.7 20.55 L68.55 20.85 68.25 21.25 Q67.8 21.7 67.2 21.45 L67.0 21.6 66.8 21.85 66.3 22.3 65.2 23.1 64.85 23.25 63.95 23.95 Q63.6 24.25 63.0 24.15 L62.5 23.9 62.4 23.7 Q62.15 23.1 62.65 22.6 L62.85 22.4 65.7 20.75 66.45 20.4 M70.2 22.9 L70.5 23.75 70.35 24.25 Q69.95 25.1 68.65 25.95 L65.95 27.2 64.8 27.4 Q63.65 27.25 63.5 26.1 63.45 25.6 63.75 25.15 64.05 24.7 64.5 24.55 L65.0 24.4 65.6 24.0 66.4 23.5 68.75 21.55 69.35 21.2 Q69.8 21.2 69.9 21.45 70.15 21.7 70.0 22.05 L70.1 22.45 70.1 22.65 70.2 22.9 M40.9 10.4 Q40.5 11.35 39.5 11.65 L38.6 11.95 37.8 12.45 36.9 12.6 36.65 12.45 36.15 12.1 35.75 11.5 34.95 10.65 Q34.8 10.25 34.95 9.75 L35.35 8.75 Q35.85 8.25 36.5 8.25 37.2 8.25 37.7 8.7 L37.75 8.75 37.95 8.55 Q38.5 8.15 39.35 8.05 L40.15 8.2 Q40.75 8.45 40.95 9.15 L40.9 10.4 M50.85 17.05 L50.6 17.2 50.4 17.4 49.6 17.9 49.35 18.0 49.1 17.9 48.85 17.55 Q48.8 17.35 49.05 17.05 L50.7 15.8 51.2 15.3 Q51.75 14.75 53.0 13.75 L53.45 13.4 54.25 13.45 Q54.65 13.8 54.5 14.3 L54.3 14.6 54.1 14.8 53.25 15.25 50.85 17.05 M36.35 24.3 L36.5 23.65 Q36.7 23.2 37.4 22.75 L38.4 21.95 38.6 21.6 39.1 21.05 40.95 19.7 41.65 19.3 Q42.3 19.2 42.6 19.7 42.9 20.25 42.6 20.75 L42.2 21.2 40.8 23.7 39.8 24.95 39.3 25.65 Q38.65 26.5 37.55 26.15 36.6 25.9 36.4 24.8 L36.35 24.3 M53.35 16.2 L53.45 16.0 Q54.05 15.45 54.7 15.2 55.65 15.0 56.15 15.5 56.55 16.0 56.55 16.55 L56.25 17.45 55.7 18.05 55.7 18.15 53.15 20.5 52.45 21.0 Q51.6 21.35 50.95 20.7 50.3 20.05 50.45 19.2 L50.65 18.7 53.35 16.2 M34.55 1.65 L35.7 1.5 36.6 1.7 Q37.55 2.2 37.45 3.3 37.45 4.2 36.6 4.95 L34.85 5.65 34.65 5.7 34.5 5.85 33.85 6.4 33.75 6.6 Q33.3 7.3 32.55 7.0 L31.9 6.55 30.45 5.3 30.2 4.5 30.25 3.6 Q30.35 2.7 30.7 2.2 L31.55 1.65 32.25 1.6 32.9 1.75 33.2 1.95 33.6 2.4 Q34.1 1.8 34.55 1.65 M37.6 18.6 L38.35 17.95 39.35 17.8 Q39.95 18.0 39.8 18.6 L39.35 19.15 35.9 21.9 35.3 22.25 34.75 22.05 Q34.45 21.8 34.5 21.5 34.55 21.1 35.2 20.65 L37.6 18.6" fill="#717171" fill-rule="evenodd" stroke="none" />
      <path d="M61.7 18.8 L64.2 17.3 65.9 16.9 67.4 17.25 68.5 17.6 69.85 18.25 70.55 19.05 Q72.05 21.35 71.75 24.1 L71.4 25.35 70.75 26.35 Q69.55 27.9 68.3 28.4 L65.9 28.85 63.75 28.55 62.7 27.9 61.35 26.7 Q60.4 25.55 60.1 24.0 59.8 22.45 60.25 21.0 L60.75 19.9 61.7 18.8 M66.55 22.0 Q66.05 22.2 65.8 22.45 L65.5 22.95 Q65.4 23.3 65.6 23.45 L66.6 23.5 67.6 23.4 Q67.9 23.6 67.8 24.05 L67.4 24.7 67.25 24.85 67.25 24.9 67.2 25.1 66.85 25.55 66.35 25.65 Q66.1 25.65 65.9 25.45 L65.9 25.4 Q65.0 25.45 64.45 24.9 L64.1 24.4 Q63.35 23.1 64.3 21.8 L65.15 21.15 65.15 20.8 65.3 20.5 Q65.55 20.2 66.0 20.2 66.65 20.2 66.8 20.8 L66.85 20.95 Q67.45 21.2 67.35 21.6 67.3 21.9 66.55 22.0 M69.2 24.1 L69.45 23.5 69.45 22.6 69.35 21.95 68.8 20.95 68.1 20.25 67.65 19.95 Q67.45 19.75 67.3 19.7 L66.95 19.7 Q65.25 20.0 63.9 21.05 L63.9 21.15 Q63.55 21.4 63.35 21.95 L63.25 22.95 Q63.25 24.3 63.9 25.0 L64.4 25.45 65.0 25.85 66.05 26.0 67.55 25.65 68.65 24.75 68.95 24.4 69.2 24.1 M48.4 21.15 Q46.8 19.75 46.7 17.45 46.55 15.55 47.65 13.45 L48.5 12.3 Q49.15 11.6 50.4 11.15 53.1 10.1 55.2 11.35 56.4 12.05 57.5 14.1 L57.95 15.3 58.05 16.4 Q58.05 18.55 57.5 19.6 L56.6 20.7 55.8 21.4 Q54.4 22.35 52.3 22.45 49.9 22.45 48.4 21.15 M49.75 17.7 Q49.9 18.25 50.35 18.6 L50.7 19.0 50.95 19.15 Q50.6 18.9 50.6 18.4 L50.7 17.9 50.25 17.3 Q50.1 16.95 50.2 16.5 50.35 15.25 51.5 14.7 L52.6 14.45 Q53.0 14.15 53.3 14.2 L53.4 14.15 Q54.15 14.25 54.15 14.9 L54.1 15.1 Q54.4 15.55 54.05 15.95 53.7 16.35 53.2 16.2 L52.6 16.05 Q52.4 16.0 52.15 16.2 L51.9 16.6 52.6 17.0 Q52.95 17.35 52.9 17.7 L52.75 18.15 52.75 18.2 52.65 18.45 52.15 19.25 51.7 19.4 52.3 19.6 52.85 19.5 Q53.8 19.35 54.3 18.9 L54.65 18.6 55.15 18.15 55.3 17.55 Q55.5 16.3 55.25 15.75 L54.9 15.3 54.1 14.05 53.05 13.5 52.0 13.45 51.75 13.55 50.65 14.25 50.2 15.2 50.0 15.55 49.85 15.95 Q49.6 17.05 49.75 17.7 M32.9 21.55 L33.05 19.95 33.4 18.95 34.25 17.75 Q35.55 16.35 37.35 15.9 L41.0 16.1 Q42.9 16.85 43.45 18.7 L43.65 20.0 Q43.8 22.2 43.0 23.85 41.85 26.0 39.6 26.6 37.4 27.3 35.25 26.2 33.55 25.35 33.05 23.8 32.8 22.95 32.9 21.55 M35.5 22.5 L35.65 22.85 36.45 23.85 36.7 24.1 37.15 24.2 37.7 24.4 38.35 24.55 39.75 24.15 Q40.6 23.6 40.95 23.05 L41.45 21.55 41.5 20.85 41.3 20.25 41.2 19.85 40.7 19.1 39.5 18.45 Q38.8 18.2 38.15 18.45 L37.55 18.6 37.0 18.65 36.55 18.85 35.85 19.75 35.65 20.15 Q35.35 20.85 35.45 22.0 L35.5 22.5 M31.4 31.9 Q27.25 35.9 21.15 37.2 17.4 38.0 14.8 37.25 11.0 36.15 7.7 31.6 6.4 29.9 5.7 28.15 5.0 26.4 4.9 24.05 L4.95 19.8 5.0 19.4 4.6 18.4 3.7 15.45 3.25 11.2 3.25 9.15 Q3.4 8.0 4.15 7.35 4.7 6.9 6.05 6.6 L11.95 6.4 13.0 6.6 Q14.5 5.65 16.15 5.05 21.0 3.15 25.35 4.2 27.7 4.8 29.6 6.25 31.55 7.75 32.45 9.85 L33.15 11.65 23.65 20.7 32.5 30.65 31.4 31.9 M13.0 17.6 L13.1 18.95 13.55 20.05 Q14.2 21.0 15.4 21.5 L17.7 21.85 Q18.85 21.65 19.8 20.85 20.8 20.05 21.15 18.9 L21.35 17.5 21.0 16.05 Q20.15 14.0 18.25 13.55 16.5 13.1 14.7 14.4 13.35 15.3 13.1 16.5 L13.0 17.6 M40.3 21.95 L39.85 22.85 39.8 22.95 39.8 23.15 39.6 23.8 38.9 24.1 38.2 23.75 38.1 23.5 38.05 23.35 37.45 23.3 36.75 23.1 Q36.05 22.65 36.15 21.7 36.2 21.1 36.75 20.3 37.8 18.85 39.1 19.05 39.55 19.05 39.75 19.35 40.05 19.65 39.9 20.05 L39.3 20.5 38.5 20.7 Q37.85 20.95 37.75 21.65 38.1 21.9 38.5 21.65 L39.15 21.25 39.9 21.35 40.3 21.95" fill="#000000" fill-rule="evenodd" stroke="none" />
      <path d="M13.0 17.6 L13.1 16.5 Q13.35 15.3 14.7 14.4 16.5 13.1 18.25 13.55 20.15 14.0 21.0 16.05 L21.35 17.5 21.15 18.9 Q20.8 20.05 19.8 20.85 18.85 21.65 17.7 21.85 L15.4 21.5 Q14.2 21.0 13.55 20.05 L13.1 18.95 13.0 17.6" fill="#ffffff" fill-rule="evenodd" stroke="none" />
    </g>
    <g id="shape2">
      <path d="M-0.5 -0.4 L-0.5 -0.55 75.1 -0.55 75.1 -0.4 75.1 40.8 -0.5 40.8 -0.5 -0.4 Z" fill="none" stroke="#000000" stroke-linecap="round" stroke-linejoin="round" stroke-width="3.0" />
    </g>
  </defs>
</svg>