<svg xmlns="http://www.w3.org/2000/svg" xmlns:ffdec="https://www.free-decompiler.com/flash" xmlns:xlink="http://www.w3.org/1999/xlink" ffdec:objectType="frame" viewBox="39.95 7.40 75.60 41.35">
  <g transform="matrix(1.0, 0.0, 0.0, 1.0, 40.45, 7.95)">
    <use ffdec:characterId="1" height="42.7" transform="matrix(1.0, 0.0, 0.0, 1.0, 0.0, 0.0)" width="76.45" xlink:href="#shape0" />
    <use ffdec:characterId="469" height="44.1" transform="matrix(1.0, 0.0, 0.0, 1.0, 0.0, 0.0)" width="75.7" xlink:href="#shape1" />
    <use ffdec:characterId="3" height="44.35" transform="matrix(1.0, 0.0, 0.0, 1.0, 0.0, 0.0)" width="78.6" xlink:href="#shape2" />
  </g>
  <defs>
    <g id="shape0">
      <path d="M2.8 0.0 L2.8 -0.4 5.4 -0.4 5.4 0.0 9.7 0.0 9.7 19.45 9.7 0.0 20.55 0.0 19.3 19.45 9.7 19.45 0.25 19.45 0.25 0.0 2.8 0.0" fill="#ffffff" fill-rule="evenodd" stroke="none" />
      <path d="M0.25 19.45 L9.7 19.45 19.3 19.45 18.7 28.6 16.0 28.5 10.95 27.95 9.7 27.8 Q7.45 27.6 5.85 27.75 4.05 27.9 1.5 28.6 0.75 28.8 0.25 29.15 L0.25 19.45 M9.7 19.45 L9.7 27.8 9.7 19.45" fill="#121212" fill-rule="evenodd" stroke="none" />
      <path d="M9.7 27.8 L10.95 27.95 16.0 28.5 18.7 28.6 19.75 28.6 23.5 28.75 Q25.95 29.05 27.1 30.0 27.7 30.5 27.7 31.1 27.7 31.75 26.9 32.1 L25.6 32.3 18.45 32.45 12.85 32.15 9.7 31.75 7.95 31.6 3.1 31.95 0.95 32.3 0.25 32.1 -0.35 31.55 -0.5 31.3 -0.5 29.9 0.25 29.15 Q0.75 28.8 1.5 28.6 4.05 27.9 5.85 27.75 7.45 27.6 9.7 27.8 L9.7 31.75 9.7 27.8" fill="#999999" fill-rule="evenodd" stroke="none" />
      <path d="M2.8 0.0 L0.25 0.0 M9.7 0.0 L5.4 0.0 M21.55 0.0 L32.25 0.0 M20.55 0.0 L9.7 0.0" fill="none" stroke="#666666" stroke-linecap="round" stroke-linejoin="round" stroke-width="4.0" />
      <path d="M9.7 -0.4 L74.7 -0.4 74.7 40.5 47.05 40.5 45.5 40.7 27.0 40.65 25.95 40.5 9.7 40.5 -0.5 40.5 -0.5 -0.4 9.7 -0.4 9.7 40.5 9.7 -0.4" fill="#ffffff" fill-rule="evenodd" stroke="none" />
    </g>
    <g id="shape1">
      <path d="M55.05 18.15 Q56.5 18.65 57.5 19.8 58.7 21.25 58.55 22.9 58.45 23.75 57.95 24.45 L57.9 24.55 58.05 24.6 58.2 24.65 58.3 24.7 58.45 24.8 58.6 24.85 58.7 24.9 58.8 24.95 58.9 25.05 59.0 25.1 59.05 25.15 59.15 25.2 59.25 25.3 59.3 25.35 59.4 25.4 59.45 25.45 59.55 25.55 59.6 25.6 59.7 25.65 59.8 25.7 59.9 25.8 60.0 25.9 60.05 26.0 60.15 26.05 60.2 26.1 60.25 26.15 60.3 26.25 60.3 26.3 60.4 26.35 60.45 26.4 60.45 26.5 60.55 26.55 60.6 26.6 60.65 26.65 60.7 26.75 60.85 26.9 60.9 27.0 60.95 27.05 60.95 27.1 61.0 27.15 61.05 27.25 61.05 27.3 61.1 27.35 61.1 27.4 61.15 27.5 61.2 27.55 61.2 27.6 61.25 27.65 61.3 27.75 61.35 27.8 61.35 27.85 61.4 27.9 61.4 28.0 61.45 28.05 61.45 28.15 61.5 28.25 61.5 28.3 61.55 28.35 61.6 28.4 61.6 28.5 61.65 28.55 61.65 28.6 61.7 28.7 61.7 28.75 61.75 28.8 61.75 28.85 61.75 28.95 61.75 29.0 61.8 29.05 61.8 29.1 61.85 29.2 61.85 29.3 61.9 29.35 61.9 29.45 61.9 29.5 61.95 29.55 61.95 29.6 61.95 29.7 62.0 29.75 62.0 29.85 62.0 29.95 62.0 30.05 62.05 30.1 62.05 30.2 62.05 30.35 62.05 30.45 62.05 30.5 62.1 30.55 62.1 30.6 62.1 30.7 62.1 30.85 62.1 30.95 62.1 31.1 62.1 31.2 62.1 31.3 62.1 31.4 62.1 31.55 62.1 31.65 62.1 31.8 62.1 31.9 62.1 32.05 62.1 32.15 62.1 32.3 62.1 32.4 62.1 32.55 62.1 32.65 62.1 32.8 62.1 32.9 62.1 33.05 62.1 33.15 62.1 33.3 62.5 33.8 63.8 36.0 64.55 37.4 65.15 38.8 Q65.35 39.6 65.05 40.35 64.75 41.15 64.1 41.55 63.45 42.0 62.6 41.95 61.8 41.95 61.15 41.45 60.65 41.1 60.1 39.9 L60.05 39.9 60.0 40.0 59.9 40.05 59.8 40.1 59.65 40.15 59.55 40.25 59.4 40.3 59.25 40.35 59.1 40.4 59.05 40.4 58.9 40.45 58.8 40.45 58.5 40.5 58.15 40.45 58.05 40.45 57.95 40.4 57.65 40.4 57.35 40.4 56.75 40.35 56.7 40.35 54.9 40.4 53.5 40.4 52.35 40.4 44.8 40.4 36.35 40.4 35.25 40.45 33.6 40.45 32.5 40.5 30.65 40.5 26.85 40.5 24.5 40.5 22.5 40.5 22.4 40.5 21.25 40.5 20.3 40.5 20.0 40.45 19.85 40.45 19.75 40.4 19.65 40.4 19.5 40.35 19.35 40.3 19.2 40.25 19.1 40.15 19.0 40.15 Q18.2 40.9 17.65 40.95 17.2 40.95 16.8 40.55 16.45 40.2 16.35 39.7 16.25 38.95 16.7 37.8 L17.2 36.8 Q15.85 36.3 14.7 35.2 13.5 34.05 12.85 32.45 11.7 29.45 12.6 25.9 13.35 22.9 15.55 20.0 L17.75 17.25 17.1 17.0 Q14.5 15.85 13.55 13.45 12.45 10.8 13.9 8.5 14.75 7.1 16.85 5.9 18.0 5.25 19.7 4.65 19.95 3.35 20.7 2.45 21.6 1.45 23.35 0.65 25.15 -0.15 26.55 -0.35 L29.75 -0.4 33.4 -1.1 37.1 -1.25 40.85 -1.0 Q44.3 -0.9 45.6 -0.1 47.4 1.0 48.4 3.85 L48.85 6.15 48.45 7.6 Q50.55 10.0 52.05 13.4 53.15 15.9 53.25 17.85 L55.05 18.15 M39.5 13.8 L39.65 13.8 Q40.6 13.9 41.05 14.55 41.35 15.0 41.45 15.7 L41.75 16.9 41.95 18.35 41.95 19.9 42.1 20.85 Q42.05 21.75 40.95 22.65 L38.25 24.35 36.75 25.0 34.65 25.2 Q33.35 24.95 31.6 22.9 30.6 21.55 30.6 20.9 L30.8 19.7 31.35 17.95 31.85 16.7 33.2 15.65 Q34.9 14.65 37.55 14.05 L38.0 13.95 39.5 13.8 M22.9 16.4 L21.25 18.9 18.6 22.4 Q16.75 24.85 16.3 27.1 L16.2 28.05 16.35 29.7 Q16.7 31.1 17.6 31.95 L19.8 33.5 Q20.9 32.5 22.0 32.05 L22.05 32.05 22.05 31.7 22.1 30.2 22.15 29.8 Q22.3 28.1 23.75 25.6 L25.95 21.65 26.35 20.6 26.55 18.1 Q26.55 17.55 26.7 17.35 L27.3 16.9 27.8 17.3 27.9 18.0 Q27.95 20.85 25.9 25.65 L25.4 26.95 24.95 28.8 Q24.75 30.1 24.9 31.4 L25.25 31.35 29.05 31.1 30.55 31.2 32.05 31.25 Q34.05 31.1 36.15 29.85 37.65 28.95 39.75 27.1 L44.45 22.95 Q47.2 20.55 49.45 19.2 L50.35 18.7 50.2 18.15 Q48.8 13.3 45.95 10.4 L44.7 9.25 Q41.2 11.55 37.15 12.2 L29.9 11.85 29.15 11.6 28.55 11.4 27.25 12.85 Q26.2 13.75 24.75 14.2 24.0 14.45 23.85 14.6 L23.5 15.2 22.9 16.4 M33.75 20.55 L34.9 21.85 35.4 22.1 Q35.85 22.25 36.4 21.85 L37.5 21.3 38.6 20.7 38.95 20.45 39.6 19.95 39.8 19.3 39.85 18.85 39.7 18.1 39.15 16.75 37.7 17.15 37.35 17.2 34.5 18.35 34.25 18.5 34.15 18.75 33.95 19.65 33.75 20.1 33.7 20.35 33.75 20.55" fill="#000000" fill-rule="evenodd" stroke="none" />
      <path d="M20.0 -1.1 L20.2 -1.05 20.3 -1.05 20.4 -1.0 20.55 -0.95 20.65 -0.9 20.75 -0.8 20.8 -0.75 20.9 -0.7 20.95 -0.65 21.0 -0.55 21.0 -0.5 21.05 -0.45 21.05 -0.4 21.1 -0.3 21.15 -0.25 21.15 -0.15 21.2 -0.05 21.2 0.1 21.2 0.2 21.2 0.25 21.15 0.3 21.15 0.35 21.15 0.45 21.15 0.5 21.1 0.55 21.1 0.6 21.05 0.7 21.05 0.75 21.0 0.8 21.0 0.9 20.95 0.95 20.9 1.0 20.85 1.05 20.8 1.15 20.7 1.2 20.65 1.25 20.55 1.3 20.5 1.4 20.45 1.45 20.35 1.5 20.3 1.55 20.2 1.65 20.15 1.7 20.05 1.75 19.95 1.8 19.9 1.9 19.8 1.95 19.75 2.0 19.65 2.05 19.6 2.15 19.5 2.2 19.45 2.25 19.4 2.3 19.4 2.4 19.35 2.45 19.3 2.5 19.25 2.55 19.25 2.65 19.15 2.7 19.15 2.8 19.15 2.9 19.15 2.95 19.1 3.0 19.1 3.05 19.05 3.15 19.05 3.2 19.0 3.25 19.0 3.35 18.95 3.4 18.9 3.45 18.85 3.5 18.85 3.6 18.8 3.65 18.75 3.7 18.7 3.75 18.65 3.85 18.55 3.95 18.5 4.0 18.45 4.1 18.35 4.15 18.25 4.25 18.1 4.35 18.0 4.4 17.9 4.45 17.75 4.5 17.6 4.55 17.5 4.6 17.35 4.6 17.2 4.7 17.1 4.75 17.0 4.75 16.9 4.85 16.75 4.9 16.6 4.95 16.45 5.0 16.4 5.0 16.2 5.05 16.1 5.15 15.95 5.2 15.85 5.25 15.75 5.3 15.6 5.4 15.45 5.45 15.35 5.5 15.25 5.5 15.15 5.55 14.95 5.6 14.8 5.65 14.65 5.7 14.5 5.75 14.4 5.8 14.3 5.9 14.2 5.95 14.1 6.0 13.95 6.05 13.85 6.15 13.8 6.2 13.75 6.25 13.7 6.3 13.6 6.4 13.55 6.45 13.45 6.55 13.35 6.65 13.3 6.7 13.2 6.75 13.15 6.8 13.1 6.9 12.95 7.05 12.85 7.15 12.7 7.3 12.65 7.4 12.6 7.45 12.55 7.5 12.5 7.55 12.45 7.65 12.45 7.7 12.35 7.75 12.3 7.85 12.2 7.95 12.15 8.0 12.1 8.1 12.05 8.15 12.0 8.2 11.9 8.25 11.85 8.35 11.8 8.4 11.8 8.45 11.75 8.5 11.75 8.6 11.65 8.7 11.65 8.75 11.6 8.85 11.55 8.9 11.55 8.95 11.5 9.0 11.4 9.1 11.4 9.15 11.35 9.2 11.3 9.25 11.3 9.35 11.3 9.4 11.25 9.45 11.25 9.5 11.2 9.6 11.15 9.65 11.15 9.7 11.1 9.75 11.05 9.85 11.05 9.9 11.0 9.95 11.0 10.0 10.95 10.1 10.95 10.15 10.9 10.2 10.9 10.3 10.85 10.35 10.85 10.45 10.8 10.55 10.8 10.65 10.75 10.7 10.75 10.8 10.75 10.9 10.7 10.95 10.7 11.05 10.7 11.1 10.65 11.15 10.65 11.2 10.65 11.3 10.65 11.45 10.65 11.55 10.65 11.6 10.6 11.65 10.6 11.7 10.55 11.8 10.55 11.85 10.5 11.9 10.5 11.95 10.45 12.05 10.45 12.2 10.45 12.3 10.45 12.45 10.45 12.55 10.45 12.7 10.45 12.8 10.45 12.9 10.45 13.0 10.45 13.1 10.5 13.15 10.5 13.25 10.5 13.4 10.5 13.5 10.5 13.65 10.5 13.75 10.55 13.8 10.6 13.85 10.6 13.9 10.65 14.0 10.65 14.1 10.7 14.15 10.7 14.25 10.75 14.3 10.75 14.4 10.75 14.5 10.75 14.6 10.8 14.65 10.8 14.75 10.85 14.8 10.9 14.85 10.9 14.9 10.95 15.0 10.95 15.05 11.0 15.1 11.0 15.15 11.05 15.25 11.1 15.3 11.15 15.35 11.15 15.4 11.15 15.5 11.2 15.55 11.25 15.6 11.3 15.7 11.3 15.75 11.35 15.8 11.4 15.85 11.5 15.95 11.55 16.0 11.6 16.05 11.65 16.1 11.7 16.2 11.75 16.25 11.8 16.3 11.8 16.35 11.85 16.45 11.9 16.5 12.05 16.55 12.1 16.6 12.2 16.7 12.3 16.75 12.4 16.8 12.5 16.85 12.55 16.95 12.65 17.0 12.7 17.05 12.8 17.1 12.85 17.2 12.9 17.25 13.0 17.3 13.1 17.35 13.15 17.45 13.2 17.5 13.3 17.55 13.35 17.6 13.4 17.7 13.45 17.75 13.5 17.8 13.6 17.85 13.6 17.95 13.65 18.0 13.7 18.05 13.75 18.15 13.85 18.25 13.85 18.3 13.85 18.4 13.9 18.45 13.95 18.5 13.95 18.55 14.0 18.65 14.0 18.8 14.05 18.9 14.05 19.05 14.05 19.15 14.05 19.2 14.1 19.25 14.1 19.3 14.05 19.4 14.05 19.55 14.05 19.65 14.05 19.7 14.0 19.75 14.0 19.8 14.0 19.9 14.0 19.95 13.95 20.0 13.95 20.05 13.9 20.15 13.85 20.2 13.85 20.3 13.8 20.4 13.75 20.45 13.7 20.5 13.7 20.55 13.65 20.65 13.6 20.7 13.55 20.75 13.5 20.85 13.45 20.9 13.4 20.95 13.35 21.0 13.35 21.1 13.3 21.15 13.2 21.2 13.2 21.25 13.15 21.35 13.1 21.4 13.05 21.45 13.0 21.5 12.95 21.6 12.9 21.65 12.85 21.7 12.8 21.75 12.75 21.85 12.7 21.9 12.7 21.95 12.65 22.0 12.6 22.1 12.55 22.15 12.55 22.2 12.5 22.25 12.45 22.35 12.4 22.4 12.3 22.45 12.3 22.5 12.25 22.6 12.2 22.65 12.15 22.7 12.1 22.75 12.05 22.85 12.0 22.9 12.0 22.95 11.95 23.0 11.9 23.1 11.9 23.15 11.85 23.2 11.85 23.25 11.8 23.35 11.75 23.4 11.7 23.45 11.65 23.55 11.55 23.65 11.5 23.7 11.5 23.8 11.45 23.85 11.4 23.9 11.4 23.95 11.35 24.05 11.3 24.1 11.3 24.15 11.25 24.2 11.25 24.3 11.2 24.35 11.15 24.4 11.15 24.45 11.1 24.55 11.05 24.6 11.05 24.65 11.0 24.7 11.0 24.8 10.95 24.85 10.9 24.9 10.9 24.95 10.9 25.05 10.85 25.1 10.85 25.15 10.8 25.2 10.8 25.3 10.8 25.35 10.75 25.4 10.75 25.45 10.75 25.55 10.7 25.6 10.7 25.65 10.65 25.7 10.65 25.8 10.6 25.85 10.55 25.9 10.55 26.0 10.55 26.05 10.5 26.1 10.5 26.15 10.5 26.25 10.45 26.3 10.4 26.35 10.4 26.4 10.4 26.5 10.4 26.55 10.35 26.6 10.35 26.65 10.35 26.75 10.35 26.8 10.3 26.85 10.3 26.9 10.25 27.0 10.25 27.1 10.2 27.15 10.2 27.25 10.15 27.3 10.1 27.35 10.1 27.4 10.1 27.5 10.05 27.55 10.05 27.6 10.0 27.65 10.0 27.75 10.0 27.85 9.95 27.9 9.95 28.0 9.9 28.05 9.9 28.15 9.9 28.25 9.85 28.3 9.85 28.4 9.85 28.5 9.85 28.55 9.8 28.6 9.8 28.7 9.75 28.75 9.75 28.85 9.7 28.95 9.65 29.0 9.65 29.1 9.6 29.2 9.6 29.35 9.6 29.45 9.55 29.5 9.55 29.6 9.55 29.7 9.55 29.75 9.5 29.8 9.5 29.85 9.5 29.95 9.5 30.1 9.45 30.2 9.45 30.35 9.45 30.45 9.45 30.5 9.4 30.55 9.4 30.6 9.4 30.7 9.4 30.85 9.4 30.95 9.4 31.1 9.4 31.2 9.4 31.25 9.45 31.3 9.45 31.4 9.45 31.55 9.45 31.65 9.45 31.75 9.5 31.8 9.5 31.9 9.5 32.0 9.55 32.05 9.55 32.15 9.6 32.2 9.6 32.3 9.6 32.4 9.65 32.45 9.65 32.5 9.7 32.55 9.7 32.65 9.75 32.7 9.75 32.75 9.8 32.8 9.8 32.9 9.85 32.95 9.85 33.0 9.9 33.05 9.95 33.15 10.0 33.2 10.05 33.25 10.1 33.3 10.15 33.4 10.2 33.45 10.25 33.5 10.3 33.55 10.35 33.65 10.4 33.7 10.45 33.75 10.5 33.85 10.5 33.9 10.6 33.95 10.65 34.0 10.65 34.1 10.7 34.15 10.75 34.2 10.8 34.25 10.85 34.35 10.9 34.4 10.95 34.45 11.0 34.5 11.1 34.6 11.15 34.65 11.25 34.7 11.35 34.75 11.4 34.85 11.5 34.9 11.6 34.95 11.7 35.0 11.8 35.1 11.85 35.15 11.95 35.2 12.05 35.25 12.1 35.35 12.2 35.4 12.25 35.45 12.35 35.5 12.45 35.6 12.5 35.65 12.55 35.7 12.6 35.75 12.7 35.85 12.85 35.9 13.0 35.95 13.15 36.0 13.3 36.1 13.45 36.15 13.55 36.2 13.65 36.25 13.75 36.35 13.8 36.4 13.9 36.45 13.95 36.55 14.0 36.6 14.1 36.65 14.15 36.7 14.2 36.8 14.25 36.85 14.25 36.9 14.3 36.95 14.35 37.05 14.4 37.1 14.45 37.15 14.5 37.2 14.55 37.3 14.65 37.4 14.65 37.45 14.7 37.55 14.75 37.6 14.75 37.7 14.8 37.8 14.85 37.85 14.85 37.95 14.9 38.05 14.9 38.2 14.95 38.3 14.95 38.45 14.95 38.55 14.95 38.7 14.95 38.8 14.95 38.95 14.95 39.05 14.95 39.15 14.95 39.25 14.9 39.3 14.9 39.4 14.9 39.5 14.85 39.55 14.85 39.65 14.8 39.75 14.75 39.8 14.75 39.9 14.7 40.0 14.65 40.05 14.65 40.1 14.6 40.15 14.55 40.25 14.5 40.3 14.45 40.35 14.4 40.4 14.35 40.5 14.3 40.55 14.25 40.6 14.2 40.65 14.1 40.75 14.05 40.8 13.95 40.85 13.85 40.9 13.75 41.0 13.65 41.05 13.5 41.1 13.35 41.15 13.2 41.2 13.15 41.25 13.05 41.25 12.95 41.3 12.85 41.3 12.7 41.3 12.4 41.35 12.15 41.35 12.0 41.4 11.7 41.4 11.15 41.4 1.3 41.4 1.0 41.4 0.85 41.4 0.75 41.35 0.6 41.3 0.4 41.25 0.25 41.2 0.15 41.15 0.05 41.05 -0.05 41.0 -0.15 40.95 -0.25 40.9 -0.3 40.8 -0.4 40.75 -0.45 40.7 -0.5 40.65 -0.55 40.55 -0.6 40.5 -0.7 40.4 -0.75 40.3 -0.8 40.25 -0.8 40.2 -0.85 40.15 -0.9 40.05 -0.95 40.0 -0.95 39.9 -1.0 39.8 -1.0 39.75 -1.05 39.7 -1.05 39.6 -1.05 39.5 -1.1 39.45 -1.1 39.35 -1.1 39.2 -1.1 39.1 -1.1 39.05 -1.15 39.0 -1.1 38.95 -1.1 38.85 -1.1 38.7 -1.1 38.6 -1.1 38.55 -1.05 38.5 -1.05 38.45 -1.05 38.35 -1.05 38.3 -1.0 38.25 -1.0 38.2 -0.95 38.1 -0.95 38.0 -0.9 37.95 -0.85 37.85 -0.8 37.8 -0.8 37.75 -0.75 37.7 -0.7 37.6 -0.7 37.45 -0.7 37.35 -0.7 37.3 -0.75 37.25 -0.75 37.15 -0.75 37.0 -0.75 36.9 -0.8 36.85 -0.8 36.75 -0.8 36.65 -0.8 36.5 -0.8 36.4 -0.8 36.25 -0.8 36.15 -0.8 36.05 -0.85 36.0 -0.85 35.9 -0.85 35.75 -0.85 35.65 -0.85 35.5 -0.85 35.4 -0.85 35.25 -0.85 35.15 -0.85 35.0 -0.85 34.9 -0.85 34.8 -0.9 34.75 -0.9 34.65 -0.9 34.55 -0.9 34.45 -0.9 34.4 -0.95 34.35 -0.95 34.3 -0.95 34.2 -0.95 34.05 -0.95 33.95 -0.95 33.8 -0.95 33.7 -0.95 33.55 -0.95 33.45 -0.95 33.4 -1.0 33.35 -1.0 33.3 -1.0 33.2 -1.0 33.05 -1.0 32.95 -1.0 32.8 -1.0 32.7 -1.0 32.55 -1.0 32.45 -1.0 32.3 -1.0 32.2 -1.0 32.05 -1.0 31.95 -1.0 31.85 -1.0 31.75 -1.0 31.6 -1.0 31.5 -1.0 31.35 -1.0 31.25 -1.0 31.1 -1.0 31.0 -1.0 30.85 -1.0 30.75 -1.0 30.6 -1.0 30.5 -1.0 30.35 -1.0 30.25 -1.0 30.1 -1.0 30.0 -1.0 29.85 -1.0 29.75 -1.0 29.6 -1.0 29.5 -1.0 29.4 -1.0 29.3 -1.0 29.15 -1.0 29.05 -1.0 28.9 -1.0 28.8 -1.0 28.65 -1.0 28.55 -1.0 28.4 -1.0 28.3 -1.0 28.15 -1.0 28.05 -1.0 27.9 -1.0 27.8 -1.0 27.65 -1.0 27.55 -1.0 27.4 -1.0 27.3 -1.0 27.15 -1.0 27.05 -1.0 26.9 -1.0 26.8 -1.0 26.7 -1.0 26.6 -1.0 26.45 -1.0 26.35 -1.0 26.2 -1.0 26.1 -1.0 25.95 -1.0 25.85 -1.0 25.7 -1.0 25.6 -1.0 25.55 -0.95 25.5 -0.95 25.45 -0.95 25.35 -0.95 25.2 -0.95 25.1 -0.95 24.95 -0.95 24.85 -0.95 24.7 -0.95 24.6 -0.95 24.45 -0.95 24.35 -0.95 24.25 -0.95 24.15 -0.95 24.0 -0.95 23.9 -0.95 23.75 -0.95 23.65 -0.95 23.5 -0.95 23.4 -0.95 23.25 -0.95 23.15 -0.95 23.0 -0.95 22.9 -0.95 22.75 -0.95 22.65 -0.95 22.5 -0.95 22.4 -0.95 22.25 -0.95 22.15 -0.95 22.0 -0.95 21.9 -0.95 21.75 -0.95 21.65 -0.95 21.55 -0.95 21.45 -0.95 21.3 -0.95 21.2 -0.95 21.05 -0.95 20.95 -0.95 20.8 -0.95 20.7 -0.95 20.55 -0.95 20.45 -0.95 20.3 -0.95 20.2 -0.95 20.05 -0.95 19.95 -0.95 19.8 -0.95 19.7 -0.95 19.55 -0.95 19.45 -0.95 19.3 -0.95 19.2 -0.95 19.05 -0.95 18.95 -0.95 18.85 -0.95 18.75 -0.95 18.6 -0.95 18.5 -0.95 18.35 -0.95 18.25 -0.95 18.1 -0.95 18.0 -0.95 17.85 -0.95 17.75 -0.95 17.6 -0.95 17.5 -0.95 17.35 -0.95 17.25 -0.95 17.1 -0.95 17.0 -0.95 16.85 -0.95 16.75 -0.95 16.6 -0.95 16.5 -0.95 16.4 -0.95 16.3 -0.95 16.15 -0.95 16.05 -0.95 15.9 -0.95 15.8 -0.95 15.65 -0.95 15.55 -0.95 15.4 -0.95 15.3 -0.95 15.15 -0.95 15.05 -0.95 14.9 -0.95 14.8 -0.95 14.65 -0.95 14.55 -0.95 14.4 -0.95 14.3 -0.95 14.15 -0.95 14.05 -0.95 13.9 -0.95 13.8 -0.95 13.7 -0.95 13.6 -0.95 13.45 -0.95 13.35 -0.95 13.2 -0.95 13.1 -0.95 12.95 -0.95 12.85 -0.95 12.7 -0.95 12.6 -0.95 12.45 -0.95 12.35 -0.9 12.3 -0.9 12.2 -0.9 12.1 -0.9 11.95 -0.9 11.85 -0.9 11.7 -0.9 11.6 -0.9 11.45 -0.9 11.35 -0.9 11.2 -0.9 11.1 -0.9 11.0 -0.9 10.9 -0.9 10.75 -0.9 10.65 -0.9 10.5 -0.9 10.4 -0.9 10.25 -0.9 10.15 -0.9 10.0 -0.9 9.9 -0.9 9.75 -0.9 9.65 -0.9 9.5 -0.9 9.4 -0.9 9.25 -0.9 9.15 -0.9 9.0 -0.9 8.9 -0.9 8.75 -0.9 8.65 -0.9 8.55 -0.9 8.45 -0.9 8.3 -0.9 8.2 -0.9 8.05 -0.9 7.95 -0.9 7.8 -0.9 7.7 -0.9 7.55 -0.9 7.45 -0.9 7.3 -0.9 7.2 -0.9 7.05 -0.9 6.95 -0.9 6.8 -0.9 6.7 -0.9 6.55 -0.9 6.45 -0.9 6.3 -0.9 6.2 -0.9 6.05 -0.9 5.95 -0.9 5.85 -0.9 5.75 -0.9 5.6 -0.9 5.5 -0.9 5.35 -0.9 5.25 -0.9 5.1 -0.9 5.0 -0.9 4.85 -0.9 4.75 -0.9 4.6 -0.9 4.5 -0.9 4.35 -0.9 4.25 -0.9 4.1 -0.9 4.0 -0.9 3.85 -0.9 3.75 -0.9 3.6 -0.9 3.5 -0.9 3.45 -0.95 3.4 -0.95 3.35 -0.95 3.25 -0.95 3.15 -0.95 3.05 -1.0 3.0 -1.0 2.9 -1.0 2.8 -1.0 2.65 -1.05 2.55 -1.05 2.4 -1.05 2.3 -1.05 2.15 -1.05 2.05 -1.05 1.9 -1.0 1.8 -1.0 1.65 -1.0 1.55 -1.0 1.45 -0.95 1.4 -0.95 1.3 -0.95 1.2 -0.9 1.15 -0.85 1.05 -0.85 1.0 -0.8 0.95 -0.8 0.9 -0.75 0.8 -0.7 0.75 -0.7 0.7 -0.65 0.6 -0.6 0.55 -0.55 0.5 -0.5 0.45 -0.45 0.35 -0.35 0.3 -0.25 0.2 -0.15 0.1 -0.05 0.05 0.0 0.0 0.15 -0.05 0.25 -0.15 0.4 -0.2 0.5 -0.25 0.6 -0.25 0.65 -0.3 0.75 -0.3 0.9 -0.3 1.2 -0.3 1.2 -0.35 1.45 -0.3 1.55 -0.4 1.65 -0.45 1.8 -0.5 1.95 -0.55 2.0 -0.55 2.1 -0.6 2.15 -0.6 2.3 -0.65 2.5 -0.65 2.65 -0.65 2.85 -0.7 3.15 -0.7 3.45 -0.75 3.75 -0.75 4.4 -0.8 4.95 -0.8 7.65 -0.8 13.55 -0.8 13.85 -0.75 14.0 -0.75 14.1 -0.7 14.2 -0.7 14.3 -0.65 14.35 -0.65 14.5 -0.6 14.65 -0.55 14.8 -0.5 14.95 -0.4 15.05 -0.35 15.15 -0.3 15.25 -0.25 15.35 -0.15 15.4 -0.1 15.5 -0.05 15.55 0.0 15.6 0.1 15.7 0.2 15.75 0.25 15.8 0.35 15.8 0.4 15.9 0.5 15.9 0.6 15.95 0.65 16.0 0.7 16.0 0.75 16.05 0.85 16.05 0.9 16.1 0.9 16.15 0.85 16.25 0.85 16.35 0.8 16.5 0.75 16.55 0.7 16.6 0.65 16.7 0.6 16.75 0.5 16.8 0.45 16.9 0.4 16.95 0.35 17.05 0.25 17.15 0.2 17.25 0.15 17.4 0.1 17.5 0.0 17.65 -0.05 17.8 -0.1 17.95 -0.15 18.0 -0.2 18.1 -0.25 18.2 -0.3 18.3 -0.4 18.4 -0.45 18.5 -0.5 18.6 -0.55 18.75 -0.65 18.85 -0.7 19.0 -0.75 19.1 -0.8 19.25 -0.9 19.4 -0.95 19.55 -1.0 19.7 -1.05 19.8 -1.05 20.0 -1.05 20.0 -1.1 M54.0 14.6 Q53.2 11.6 51.4 9.45 L50.1 7.4 Q50.0 6.9 50.05 6.1 L50.1 4.8 Q50.15 3.55 49.35 1.25 48.95 0.05 49.0 -0.6 49.1 -1.8 50.0 -2.1 51.1 -2.45 52.2 -1.15 L53.3 0.2 53.4 0.1 53.55 0.1 53.6 0.05 53.7 0.05 53.85 0.0 54.15 0.0 54.75 0.0 56.5 0.0 57.0 0.05 60.25 0.05 67.0 0.05 67.65 0.05 68.4 0.1 69.2 0.1 69.5 0.1 69.65 0.15 69.75 0.15 69.85 0.2 69.95 0.2 70.05 0.25 70.1 0.25 70.25 0.3 70.5 0.35 Q71.0 -0.2 71.9 -0.3 73.05 -0.4 73.75 0.35 74.5 1.2 74.5 3.4 L74.55 37.5 Q74.65 39.35 73.95 40.15 73.15 41.15 71.55 41.05 L68.9 40.6 67.75 40.4 66.7 39.9 Q66.2 39.45 65.65 37.75 65.15 36.0 64.0 34.4 L62.95 32.7 Q62.8 32.1 62.95 31.3 L63.2 29.9 Q63.5 27.5 62.0 25.6 L60.85 24.25 60.75 24.1 Q59.9 23.75 59.6 22.95 59.35 22.3 59.55 20.9 59.7 19.45 59.45 18.8 59.05 17.75 57.9 17.5 L56.75 17.45 55.6 17.3 Q54.95 17.05 54.55 16.2 L54.0 14.6 M45.95 10.4 L45.9 10.45 Q44.3 12.5 41.3 13.35 L39.5 13.8 38.0 13.95 37.55 14.05 35.85 14.15 29.05 13.55 Q27.05 15.95 24.25 16.4 L22.9 16.4 23.5 15.2 23.85 14.6 Q24.0 14.45 24.75 14.2 26.2 13.75 27.25 12.85 L28.55 11.4 29.15 11.6 29.9 11.85 37.15 12.2 Q41.2 11.55 44.7 9.25 L45.95 10.4 M16.2 28.05 L16.5 28.35 17.55 29.8 18.3 30.3 20.3 30.35 22.1 30.2 22.05 31.7 22.05 32.05 22.0 32.05 Q20.9 32.5 19.8 33.5 L17.6 31.95 Q16.7 31.1 16.35 29.7 L16.2 28.05 M24.95 28.8 L25.15 28.85 Q28.4 30.05 32.0 29.5 35.6 29.0 38.35 26.85 L41.3 24.05 44.25 21.25 Q46.25 19.55 49.35 18.4 L50.2 18.15 50.35 18.7 49.45 19.2 Q47.2 20.55 44.45 22.95 L39.75 27.1 Q37.65 28.95 36.15 29.85 34.05 31.1 32.05 31.25 L30.55 31.2 29.05 31.1 25.25 31.35 24.9 31.4 Q24.75 30.1 24.95 28.8 M33.75 20.55 L33.7 20.35 33.75 20.1 33.95 19.65 34.15 18.75 34.25 18.5 34.5 18.35 37.35 17.2 37.7 17.15 39.15 16.75 39.7 18.1 39.85 18.85 39.8 19.3 39.6 19.95 38.95 20.45 38.6 20.7 37.5 21.3 36.4 21.85 Q35.85 22.25 35.4 22.1 L34.9 21.85 33.75 20.55" fill="#717171" fill-rule="evenodd" stroke="none" />
      <path d="M35.15 15.95 L36.45 15.9 Q38.15 16.15 38.65 17.8 39.1 19.45 37.85 20.6 L36.95 21.2 36.3 21.5 34.4 21.35 Q33.55 21.0 33.05 20.05 32.5 19.0 32.95 17.8 33.45 16.6 34.55 16.15 L35.15 15.95" fill="#000000" fill-rule="evenodd" stroke="none" />
    </g>
    <g id="shape2">
      <path d="M-0.5 -0.4 L-0.5 -0.55 75.1 -0.55 75.1 -0.4 75.1 40.8 -0.5 40.8 -0.5 -0.4 Z" fill="none" stroke="#000000" stroke-linecap="round" stroke-linejoin="round" stroke-width="3.0" />
    </g>
  </defs>
</svg>