<svg xmlns="http://www.w3.org/2000/svg" xmlns:ffdec="https://www.free-decompiler.com/flash" xmlns:xlink="http://www.w3.org/1999/xlink" ffdec:objectType="frame" viewBox="39.95 7.40 75.60 41.35">
  <g transform="matrix(1.0, 0.0, 0.0, 1.0, 40.45, 7.95)">
    <use ffdec:characterId="1" height="42.7" transform="matrix(1.0, 0.0, 0.0, 1.0, 0.0, 0.0)" width="76.45" xlink:href="#shape0" />
    <use ffdec:characterId="417" height="43.55" transform="matrix(1.0, 0.0, 0.0, 1.0, 0.0, 0.0)" width="77.7" xlink:href="#shape1" />
    <use ffdec:characterId="3" height="44.35" transform="matrix(1.0, 0.0, 0.0, 1.0, 0.0, 0.0)" width="78.6" xlink:href="#shape2" />
  </g>
  <defs>
    <g id="shape0">
      <path d="M2.8 0.0 L2.8 -0.4 5.4 -0.4 5.4 0.0 9.7 0.0 9.7 19.45 9.7 0.0 20.55 0.0 19.3 19.45 9.7 19.45 0.25 19.45 0.25 0.0 2.8 0.0" fill="#ffffff" fill-rule="evenodd" stroke="none" />
      <path d="M0.25 19.45 L9.7 19.45 19.3 19.45 18.7 28.6 16.0 28.5 10.95 27.95 9.7 27.8 Q7.45 27.6 5.85 27.75 4.05 27.9 1.5 28.6 0.75 28.8 0.25 29.15 L0.25 19.45 M9.7 19.45 L9.7 27.8 9.7 19.45" fill="#121212" fill-rule="evenodd" stroke="none" />
      <path d="M9.7 27.8 L10.95 27.95 16.0 28.5 18.7 28.6 19.75 28.6 23.5 28.75 Q25.95 29.05 27.1 30.0 27.7 30.5 27.7 31.1 27.7 31.75 26.9 32.1 L25.6 32.3 18.45 32.45 12.85 32.15 9.7 31.75 7.95 31.6 3.1 31.95 0.95 32.3 0.25 32.1 -0.35 31.55 -0.5 31.3 -0.5 29.9 0.25 29.15 Q0.75 28.8 1.5 28.6 4.05 27.9 5.85 27.75 7.45 27.6 9.7 27.8 L9.7 31.75 9.7 27.8" fill="#999999" fill-rule="evenodd" stroke="none" />
      <path d="M2.8 0.0 L0.25 0.0 M9.7 0.0 L5.4 0.0 M21.55 0.0 L32.25 0.0 M20.55 0.0 L9.7 0.0" fill="none" stroke="#666666" stroke-linecap="round" stroke-linejoin="round" stroke-width="4.0" />
      <path d="M9.7 -0.4 L74.7 -0.4 74.7 40.5 47.05 40.5 45.5 40.7 27.0 40.65 25.95 40.5 9.7 40.5 -0.5 40.5 -0.5 -0.4 9.7 -0.4 9.7 40.5 9.7 -0.4" fill="#ffffff" fill-rule="evenodd" stroke="none" />
    </g>
    <g id="shape1">
      <path d="M58.9 38.9 L58.6 40.0 Q58.25 40.55 57.65 40.3 57.25 40.15 57.15 39.2 L56.8 32.8 56.75 26.75 Q56.85 23.8 57.45 22.2 L57.95 21.45 58.8 21.4 Q59.25 21.7 58.9 22.6 58.5 24.25 58.5 27.1 L58.55 31.05 58.65 34.3 58.85 36.6 58.9 38.9 M51.35 31.05 Q51.7 31.15 51.9 31.8 L52.2 33.4 52.2 34.1 52.4 35.1 52.5 36.65 53.45 35.1 Q53.8 34.5 54.15 34.55 L54.6 34.8 54.7 35.25 54.35 36.2 Q53.6 37.5 53.35 39.0 L53.05 40.1 Q52.65 40.8 52.15 40.7 51.7 40.7 51.5 40.35 L51.2 40.35 Q50.85 40.3 50.6 40.05 50.3 39.65 50.6 38.75 L50.8 38.15 50.85 37.5 50.75 34.85 50.65 34.35 50.6 33.35 50.6 32.45 50.45 31.95 Q50.35 31.55 50.6 31.25 50.95 30.9 51.35 31.05 M61.15 39.65 L61.05 39.75 61.0 39.85 Q60.75 40.2 60.4 40.1 60.05 40.05 60.05 39.55 L59.95 39.45 Q59.6 39.0 59.6 38.1 59.5 36.15 60.15 32.85 60.25 32.25 60.6 32.3 L60.9 32.75 61.1 36.2 61.15 36.75 61.8 35.8 62.15 35.4 62.6 35.35 Q62.9 35.55 62.8 35.8 L62.65 36.3 61.85 37.7 61.45 38.6 Q61.45 39.4 61.15 39.65 M6.7 34.35 L7.4 34.4 7.75 34.75 7.95 34.3 8.45 32.35 8.55 31.4 8.55 27.9 Q8.3 25.9 8.4 24.95 8.5 24.3 8.7 24.05 9.25 23.6 9.8 24.05 10.05 24.25 10.15 25.15 L10.2 26.4 10.25 30.0 9.9 33.2 9.55 34.6 9.45 34.8 8.95 35.75 Q8.6 36.2 8.25 36.05 L8.3 37.0 8.5 38.6 8.85 37.9 9.55 36.9 10.1 36.25 10.6 36.25 10.9 36.6 10.7 37.45 9.9 39.15 Q9.6 40.1 9.15 40.25 L8.55 40.25 8.5 40.35 7.8 40.75 Q7.3 40.65 7.2 39.75 L6.95 37.5 6.85 35.95 6.5 35.15 Q6.4 34.55 6.7 34.35 M18.0 35.5 L17.4 34.75 Q17.15 34.0 17.15 32.45 17.05 30.0 17.9 29.0 L18.35 28.65 18.85 28.75 18.9 29.4 Q18.55 31.3 18.95 33.5 L19.0 34.8 18.65 35.4 18.0 35.5" fill="#000000" fill-rule="evenodd" stroke="none" />
      <path d="M0.0 15.7 Q-0.8 15.1 -0.65 14.6 -1.1 13.55 -0.65 12.3 L-0.55 12.1 -0.45 10.05 0.0 8.85 0.2 8.5 -0.25 8.3 Q-1.0 7.9 -1.25 6.95 L-1.2 5.2 -1.05 4.3 -1.2 3.55 Q-1.45 2.5 -0.85 1.5 -0.25 0.5 0.75 0.2 L2.1 0.0 3.4 -0.2 4.65 0.0 5.3 0.4 6.05 0.3 7.1 0.4 8.15 0.45 9.45 -0.05 12.1 -0.3 14.3 0.0 15.4 0.6 15.95 0.6 Q16.3 -0.55 17.95 -0.85 L20.55 -1.15 21.8 -1.4 23.05 -1.4 23.35 -1.25 24.15 -1.65 25.1 -1.35 Q25.55 -1.0 25.65 -0.45 25.95 0.45 25.4 1.6 24.65 3.25 23.1 4.35 L21.0 5.35 18.7 6.0 18.65 6.3 18.2 7.35 Q16.6 10.1 13.75 11.0 L9.35 11.3 9.05 12.15 8.75 13.1 Q8.25 14.3 7.0 15.1 6.3 15.65 4.6 16.35 L3.8 16.65 1.65 16.65 0.7 16.15 0.45 15.95 0.0 15.7 M75.85 15.2 L76.3 16.05 76.1 16.9 Q75.7 17.45 74.8 17.45 L73.5 17.3 73.25 17.4 Q70.15 18.75 66.45 17.0 64.25 15.95 62.9 14.2 61.95 12.9 61.65 11.55 60.2 11.15 58.9 10.05 56.8 8.25 56.4 5.5 L54.7 5.7 53.35 5.6 52.2 5.3 51.25 4.85 50.55 4.1 50.0 3.45 Q49.55 2.85 49.65 1.5 49.75 0.75 50.0 0.3 50.55 -0.6 51.5 -0.45 L52.1 -0.3 54.15 -0.65 62.8 -0.4 66.05 -0.15 68.55 0.25 Q70.05 0.45 71.05 0.25 L72.45 -0.05 73.75 0.2 Q74.45 0.75 74.45 1.7 L74.25 3.4 Q74.0 4.95 74.45 9.15 L74.5 9.5 74.75 11.15 74.7 11.9 75.55 12.05 Q76.4 12.5 76.4 13.55 L75.85 15.2" fill="#999999" fill-rule="evenodd" stroke="none" />
      <path d="M58.05 17.45 L59.2 17.2 Q60.1 17.05 60.8 17.65 61.5 18.25 61.4 19.2 L61.4 19.7 61.75 20.0 Q62.25 20.35 62.3 21.05 62.3 21.7 61.9 22.1 61.2 22.9 60.1 22.7 L60.1 22.75 59.9 23.45 Q59.6 24.05 58.85 24.05 58.2 24.1 57.7 23.55 57.4 23.25 57.25 22.7 L56.6 22.7 Q55.55 22.55 55.3 21.6 L55.35 20.9 Q55.45 20.55 55.9 20.2 L55.4 19.45 Q55.2 18.8 55.6 18.15 56.05 17.5 56.7 17.4 L58.05 17.45 M47.25 6.0 L47.65 5.9 Q48.65 5.7 49.05 6.3 49.4 6.75 49.1 7.5 L48.3 8.7 48.25 8.75 48.75 9.15 Q49.35 9.65 49.5 10.4 49.6 11.25 48.9 11.65 L47.85 11.75 47.6 11.7 46.95 11.55 46.95 11.8 Q46.95 12.85 46.15 13.1 L45.4 13.1 Q44.75 12.9 44.65 12.7 L44.45 12.05 44.45 11.7 44.05 11.8 Q43.1 12.0 42.55 11.5 L42.15 10.85 Q42.0 10.45 42.2 10.1 L43.0 9.4 43.55 9.05 43.15 8.4 Q42.8 7.55 42.8 6.85 42.8 5.9 43.55 5.6 43.95 5.4 44.6 5.6 45.15 5.75 45.6 6.05 L46.1 6.65 Q46.6 6.2 47.25 6.0 M21.35 27.85 L21.7 28.7 Q21.8 29.35 21.4 29.8 L20.8 30.15 Q20.05 30.45 19.25 30.15 L18.7 30.85 17.85 31.1 16.45 30.8 Q15.9 30.25 16.0 29.45 L16.0 29.3 Q14.6 29.2 14.1 28.5 13.75 28.05 13.8 27.45 13.85 26.8 14.25 26.35 14.95 25.6 16.0 25.55 15.8 24.5 16.0 23.95 16.15 23.3 16.6 22.8 17.1 22.3 17.7 22.25 L18.25 22.3 18.45 23.8 Q18.75 24.95 19.4 25.9 L19.25 25.8 18.3 25.75 Q17.3 26.0 17.3 26.95 17.2 27.75 18.0 28.2 L19.05 28.35 19.8 27.7 19.95 26.7 19.95 26.55 20.8 27.4 21.35 27.85 M22.35 16.55 L22.35 16.3 Q22.35 15.25 23.1 14.3 L22.85 14.3 21.75 14.15 Q21.3 13.95 21.15 13.4 21.0 12.85 21.2 12.35 21.55 11.4 22.8 11.2 L24.2 11.3 24.05 10.45 Q23.85 8.75 24.5 8.15 24.85 7.8 25.35 7.8 25.85 7.75 26.2 8.0 L26.3 8.05 26.95 9.1 27.15 10.75 27.85 10.4 29.5 10.2 Q30.6 10.4 30.6 11.35 30.6 12.2 29.4 12.8 L27.75 13.4 27.6 13.45 28.55 14.4 Q28.4 15.2 28.95 15.95 L28.95 16.2 Q28.85 17.2 28.4 17.55 L26.65 17.45 25.75 16.3 25.4 16.85 24.75 17.4 24.5 17.5 24.45 17.15 Q24.35 16.35 24.05 16.0 L22.6 15.95 22.35 16.55 M45.0 9.5 Q45.1 10.2 45.5 10.55 46.0 11.05 46.65 10.9 L47.55 10.35 47.8 9.7 47.7 9.2 47.7 8.55 Q47.55 7.7 46.7 7.6 45.9 7.45 45.35 8.1 44.9 8.7 45.0 9.5 M55.3 30.85 L54.45 30.9 54.25 30.9 54.05 32.5 Q53.7 33.55 52.8 33.7 51.85 33.75 51.05 32.75 L50.65 33.0 Q49.6 33.55 48.75 33.0 48.25 32.65 48.15 31.9 48.1 31.15 48.7 30.45 L48.8 30.35 48.0 29.8 Q47.6 29.35 47.6 28.6 L47.7 27.95 Q47.95 27.1 48.95 26.9 L49.7 26.9 Q49.8 25.7 50.05 25.2 50.4 24.55 51.05 24.2 51.65 23.9 52.35 23.95 52.8 23.95 53.15 24.25 L53.7 24.8 Q54.3 25.9 54.05 26.95 54.7 26.95 55.1 27.3 L55.85 28.05 56.3 28.8 56.25 30.0 55.3 30.85 M59.45 21.8 Q60.35 21.25 60.25 20.4 L59.95 19.55 Q59.3 18.65 58.2 18.9 57.1 19.15 57.0 20.3 56.9 21.3 57.75 21.8 58.5 22.25 59.45 21.8 M65.7 31.7 L65.6 32.5 65.4 33.1 64.95 33.55 Q64.7 33.8 64.15 33.9 L62.95 33.55 62.4 34.15 Q61.6 34.7 60.9 34.7 60.0 34.7 59.6 34.0 59.4 33.6 59.5 32.45 58.85 32.3 58.55 31.55 58.3 30.75 58.75 30.2 L58.95 29.85 59.0 29.4 Q59.1 28.2 60.15 27.6 L62.3 27.75 62.6 27.95 63.05 27.7 64.45 27.45 65.15 27.6 65.6 28.25 Q66.05 29.6 65.05 30.4 65.8 30.95 65.7 31.7 M53.45 28.45 L53.0 27.8 Q52.1 26.9 50.95 27.5 50.45 27.8 50.2 28.35 49.95 28.9 50.05 29.4 50.3 30.7 51.6 30.85 52.9 30.95 53.4 29.8 53.7 29.15 53.45 28.45 M37.95 31.9 Q36.95 32.3 36.4 31.6 36.1 31.25 36.2 30.65 L36.5 29.45 36.45 28.95 Q36.35 27.6 36.55 27.15 36.95 26.5 37.65 26.4 38.45 26.3 38.9 26.85 39.25 25.85 40.85 25.75 41.5 25.75 41.9 26.1 42.3 26.45 42.3 27.25 L42.1 28.1 42.6 28.9 Q42.9 30.0 42.25 30.45 L41.4 30.7 41.2 30.7 41.2 31.5 Q41.1 32.05 40.65 32.4 L39.65 32.6 Q39.25 32.55 38.75 32.05 L38.45 31.8 37.95 31.9 M26.4 11.75 Q25.8 11.3 25.05 11.75 24.5 12.1 24.25 12.85 24.0 13.65 24.25 14.2 24.55 15.05 25.3 14.95 L26.1 14.65 26.65 14.25 Q26.95 13.85 26.85 13.1 26.85 12.15 26.4 11.75 M61.45 31.8 Q62.15 32.5 63.1 32.0 64.0 31.5 63.85 30.5 63.7 29.5 62.7 29.3 L62.1 29.3 Q61.65 29.4 61.3 29.75 L60.95 30.55 Q60.85 31.35 61.45 31.8 M40.75 28.45 L40.25 27.85 39.05 27.8 Q38.45 28.05 38.2 28.65 37.95 29.25 38.2 29.8 38.45 30.45 39.15 30.45 39.6 30.5 40.2 30.0 L40.75 29.3 Q41.0 28.9 40.75 28.45 M11.05 19.2 L11.45 19.65 Q11.75 20.15 11.55 20.9 L11.55 21.05 12.05 21.35 12.3 22.0 12.15 22.75 11.8 23.4 11.9 24.05 11.65 24.9 Q11.25 25.5 10.7 25.4 10.2 25.4 9.75 25.05 L9.65 24.95 9.2 25.2 8.3 25.3 7.25 25.0 Q6.95 24.65 7.05 24.1 L7.1 23.8 6.6 23.45 Q6.35 23.1 6.35 22.45 6.35 21.4 6.65 21.05 7.05 20.65 7.6 20.65 L8.25 20.7 Q8.55 19.65 9.25 19.2 L10.4 19.0 11.05 19.2 M8.1 23.2 L8.9 23.7 9.8 23.6 10.4 22.9 Q10.55 22.4 10.35 21.95 10.0 21.2 9.15 21.2 8.35 21.2 8.0 21.95 7.7 22.6 8.1 23.2 M4.8 35.8 L3.9 35.6 3.25 34.95 Q3.1 34.65 3.2 34.15 L3.4 33.5 Q3.65 33.05 4.5 32.75 L4.75 32.6 4.75 32.35 Q4.65 31.5 4.9 31.0 5.3 30.1 6.3 30.0 7.25 29.9 7.85 30.75 L8.0 30.95 8.2 30.95 9.2 30.9 Q9.8 31.1 10.05 31.4 10.4 32.0 10.15 32.55 L9.35 33.35 Q9.7 33.6 9.8 34.5 9.9 35.25 9.65 35.65 L9.1 36.05 8.5 36.35 7.8 36.4 7.35 36.8 Q7.1 37.1 6.5 37.2 L5.25 36.95 Q4.65 36.5 4.8 35.8 M5.55 33.6 L5.55 33.95 5.85 34.6 6.45 35.0 Q7.3 35.25 7.8 34.55 8.35 33.9 7.9 33.1 7.35 32.4 6.55 32.55 5.75 32.7 5.55 33.6" fill="#999999" fill-rule="evenodd" stroke="none" />
      <path d="M26.2 8.0 L26.2 7.5 Q26.2 6.25 26.35 5.65 L27.3 3.65 27.7 2.55 Q27.9 1.85 28.2 1.45 28.65 0.9 29.45 0.75 30.15 0.65 30.8 1.15 L31.6 2.15 32.6 4.05 33.35 5.05 40.15 4.85 40.5 4.5 Q41.65 3.55 42.9 1.85 43.65 0.7 44.2 0.45 44.7 0.25 45.2 0.45 L46.0 1.05 46.35 2.3 46.85 4.05 47.25 5.8 47.25 6.0 Q46.6 6.2 46.1 6.65 L45.6 6.05 Q45.15 5.75 44.6 5.6 43.95 5.4 43.55 5.6 42.8 5.9 42.8 6.85 42.8 7.55 43.15 8.4 L43.55 9.05 43.0 9.4 42.2 10.1 Q42.0 10.45 42.15 10.85 L42.55 11.5 Q43.1 12.0 44.05 11.8 L44.45 11.7 44.45 12.05 44.65 12.7 Q44.75 12.9 45.4 13.1 L46.15 13.1 Q46.95 12.85 46.95 11.8 L46.95 11.55 47.6 11.7 47.85 11.75 47.95 13.75 Q48.05 17.25 46.65 19.75 45.45 21.95 43.3 23.35 L43.4 24.85 Q43.4 25.45 43.55 25.65 L44.2 26.05 Q46.0 26.75 46.65 28.6 L46.95 29.9 47.1 31.75 Q46.95 33.5 44.65 35.6 45.1 36.25 44.95 37.1 44.85 37.95 44.2 38.45 43.4 39.1 41.45 39.0 L40.6 38.95 40.45 39.2 Q39.85 40.35 39.2 40.65 L37.4 40.85 36.35 40.65 Q35.3 41.55 33.5 41.15 32.1 40.75 31.6 39.95 L31.45 39.95 30.15 40.3 28.6 40.5 Q27.35 40.5 26.8 40.1 L26.0 39.3 Q25.6 38.8 25.55 38.4 25.4 37.55 26.05 36.8 L24.8 35.15 24.2 33.9 Q21.95 34.6 20.75 35.3 L18.65 36.8 19.5 36.65 21.2 36.55 Q22.1 36.6 22.9 37.05 23.7 37.55 23.95 38.35 24.35 39.75 23.25 40.75 22.35 41.65 20.9 41.8 L18.2 41.5 Q16.95 41.4 15.5 40.65 L14.45 39.85 Q14.1 39.35 14.1 38.3 14.1 36.85 14.25 36.4 L15.0 35.1 Q16.4 33.3 19.0 32.0 20.55 31.25 23.85 30.25 L24.5 30.1 Q24.65 29.65 24.95 29.25 L25.0 29.2 23.95 29.0 22.8 28.6 Q22.05 28.3 21.35 27.85 L20.8 27.4 19.95 26.55 19.4 25.9 Q18.75 24.95 18.45 23.8 L18.25 22.3 Q18.15 20.9 18.65 19.55 19.0 18.45 19.7 17.85 19.7 17.1 19.85 16.7 19.95 16.2 20.3 15.8 L21.25 15.6 Q21.75 15.75 22.0 16.25 L22.05 16.9 22.1 17.1 22.15 17.15 22.25 16.75 22.35 16.55 22.6 15.95 24.05 16.0 Q24.35 16.35 24.45 17.15 L24.5 17.5 24.25 18.9 24.2 19.0 24.3 20.2 24.3 21.7 24.5 23.0 Q24.7 23.5 25.6 24.1 L26.45 24.6 26.55 24.55 27.6 23.65 28.15 22.9 28.2 22.9 27.65 22.45 Q26.1 21.1 25.3 19.25 L24.75 17.4 25.4 16.85 25.75 16.3 26.65 17.45 28.4 17.55 Q28.85 17.2 28.95 16.2 L28.95 15.95 29.0 16.0 Q29.5 16.55 30.3 16.65 31.1 16.75 31.75 16.35 32.4 15.95 32.6 15.15 32.8 14.35 32.45 13.65 32.1 13.0 31.4 12.7 L30.0 12.6 Q29.25 12.85 28.85 13.55 L28.55 14.4 27.6 13.45 27.75 13.4 29.4 12.8 Q30.6 12.2 30.6 11.35 30.6 10.4 29.5 10.2 L27.85 10.4 27.15 10.75 26.95 9.1 26.3 8.05 26.2 8.0 M35.75 18.05 L35.4 18.55 34.6 19.05 33.65 19.1 Q32.35 19.1 31.9 18.7 L31.45 18.2 Q31.2 17.95 30.9 18.0 L30.5 18.25 30.3 18.75 30.7 19.7 Q31.6 20.7 33.15 21.15 L34.05 21.3 35.05 21.1 36.1 20.45 36.35 20.25 Q36.5 20.2 36.8 20.5 37.4 21.1 38.8 21.1 L39.7 21.05 Q40.9 20.8 41.55 19.75 L41.75 19.15 41.3 18.45 40.5 18.35 39.2 19.0 37.65 18.85 37.05 18.5 36.65 18.0 36.2 17.85 Q35.9 17.85 35.75 18.05 M40.45 13.85 Q40.25 14.55 40.6 15.25 40.95 15.95 41.65 16.25 L43.1 16.35 44.2 15.5 Q44.6 14.85 44.5 14.1 44.4 13.3 43.85 12.8 43.05 12.05 41.85 12.4 40.75 12.75 40.45 13.85 M37.95 31.9 L38.45 31.8 38.75 32.05 Q39.25 32.55 39.65 32.6 L40.65 32.4 Q41.1 32.05 41.2 31.5 L41.2 30.7 41.4 30.7 42.25 30.45 Q42.9 30.0 42.6 28.9 L42.1 28.1 42.3 27.25 Q42.3 26.45 41.9 26.1 41.5 25.75 40.85 25.75 39.25 25.85 38.9 26.85 38.45 26.3 37.65 26.4 36.95 26.5 36.55 27.15 36.35 27.6 36.45 28.95 L36.5 29.45 36.2 30.65 Q36.1 31.25 36.4 31.6 36.95 32.3 37.95 31.9" fill="#000000" fill-rule="evenodd" stroke="none" />
      <path d="M28.55 14.4 L28.85 13.55 Q29.25 12.85 30.0 12.6 L31.4 12.7 Q32.1 13.0 32.45 13.65 32.8 14.35 32.6 15.15 32.4 15.95 31.75 16.35 31.1 16.75 30.3 16.65 29.5 16.55 29.0 16.0 L28.95 15.95 Q28.4 15.2 28.55 14.4 M45.0 9.5 Q44.9 8.7 45.35 8.1 45.9 7.45 46.7 7.6 47.55 7.7 47.7 8.55 L47.7 9.2 47.8 9.7 47.55 10.35 46.65 10.9 Q46.0 11.05 45.5 10.55 45.1 10.2 45.0 9.5 M40.45 13.85 Q40.75 12.75 41.85 12.4 43.05 12.05 43.85 12.8 44.4 13.3 44.5 14.1 44.6 14.85 44.2 15.5 L43.1 16.35 41.65 16.25 Q40.95 15.95 40.6 15.25 40.25 14.55 40.45 13.85 M35.75 18.05 Q35.9 17.85 36.2 17.85 L36.65 18.0 37.05 18.5 37.65 18.85 39.2 19.0 40.5 18.35 41.3 18.45 41.75 19.15 41.55 19.75 Q40.9 20.8 39.7 21.05 L38.8 21.1 Q37.4 21.1 36.8 20.5 36.5 20.2 36.35 20.25 L36.1 20.45 35.05 21.1 34.05 21.3 33.15 21.15 Q31.6 20.7 30.7 19.7 L30.3 18.75 30.5 18.25 30.9 18.0 Q31.2 17.95 31.45 18.2 L31.9 18.7 Q32.35 19.1 33.65 19.1 L34.6 19.05 35.4 18.55 35.75 18.05 M59.45 21.8 Q58.5 22.25 57.75 21.8 56.9 21.3 57.0 20.3 57.1 19.15 58.2 18.9 59.3 18.65 59.95 19.55 L60.25 20.4 Q60.35 21.25 59.45 21.8 M53.45 28.45 Q53.7 29.15 53.4 29.8 52.9 30.95 51.6 30.85 50.3 30.7 50.05 29.4 49.95 28.9 50.2 28.35 50.45 27.8 50.95 27.5 52.1 26.9 53.0 27.8 L53.45 28.45 M40.75 28.45 Q41.0 28.9 40.75 29.3 L40.2 30.0 Q39.6 30.5 39.15 30.45 38.45 30.45 38.2 29.8 37.95 29.25 38.2 28.65 38.45 28.05 39.05 27.8 L40.25 27.85 40.75 28.45 M61.45 31.8 Q60.85 31.35 60.95 30.55 L61.3 29.75 Q61.65 29.4 62.1 29.3 L62.7 29.3 Q63.7 29.5 63.85 30.5 64.0 31.5 63.1 32.0 62.15 32.5 61.45 31.8 M26.4 11.75 Q26.85 12.15 26.85 13.1 26.95 13.85 26.65 14.25 L26.1 14.65 25.3 14.95 Q24.55 15.05 24.25 14.2 24.0 13.65 24.25 12.85 24.5 12.1 25.05 11.75 25.8 11.3 26.4 11.75 M8.1 23.2 Q7.7 22.6 8.0 21.95 8.35 21.2 9.15 21.2 10.0 21.2 10.35 21.95 10.55 22.4 10.4 22.9 L9.8 23.6 8.9 23.7 8.1 23.2 M19.95 26.55 L19.95 26.7 19.8 27.7 19.05 28.35 18.0 28.2 Q17.2 27.75 17.3 26.95 17.3 26.0 18.3 25.75 L19.25 25.8 19.4 25.9 19.95 26.55 M5.55 33.6 Q5.75 32.7 6.55 32.55 7.35 32.4 7.9 33.1 8.35 33.9 7.8 34.55 7.3 35.25 6.45 35.0 L5.85 34.6 5.55 33.95 5.55 33.6" fill="#ffffff" fill-rule="evenodd" stroke="none" />
    </g>
    <g id="shape2">
      <path d="M-0.5 -0.4 L-0.5 -0.55 75.1 -0.55 75.1 -0.4 75.1 40.8 -0.5 40.8 -0.5 -0.4 Z" fill="none" stroke="#000000" stroke-linecap="round" stroke-linejoin="round" stroke-width="3.0" />
    </g>
  </defs>
</svg>