<svg xmlns="http://www.w3.org/2000/svg" xmlns:ffdec="https://www.free-decompiler.com/flash" xmlns:xlink="http://www.w3.org/1999/xlink" ffdec:objectType="frame" viewBox="39.95 7.40 75.60 41.35">
  <g transform="matrix(1.0, 0.0, 0.0, 1.0, 40.45, 7.95)">
    <use ffdec:characterId="1" height="42.7" transform="matrix(1.0, 0.0, 0.0, 1.0, 0.0, 0.0)" width="76.45" xlink:href="#shape0" />
    <use ffdec:characterId="514" height="43.55" transform="matrix(1.0, 0.0, 0.0, 1.0, 0.0, 0.0)" width="76.45" xlink:href="#shape1" />
    <use ffdec:characterId="3" height="44.35" transform="matrix(1.0, 0.0, 0.0, 1.0, 0.0, 0.0)" width="78.6" xlink:href="#shape2" />
  </g>
  <defs>
    <g id="shape0">
      <path d="M2.8 0.0 L2.8 -0.4 5.4 -0.4 5.4 0.0 9.7 0.0 9.7 19.45 9.7 0.0 20.55 0.0 19.3 19.45 9.7 19.45 0.25 19.45 0.25 0.0 2.8 0.0" fill="#ffffff" fill-rule="evenodd" stroke="none" />
      <path d="M0.25 19.45 L9.7 19.45 19.3 19.45 18.7 28.6 16.0 28.5 10.95 27.95 9.7 27.8 Q7.45 27.6 5.85 27.75 4.05 27.9 1.5 28.6 0.75 28.8 0.25 29.15 L0.25 19.45 M9.7 19.45 L9.7 27.8 9.7 19.45" fill="#121212" fill-rule="evenodd" stroke="none" />
      <path d="M9.7 27.8 L10.95 27.95 16.0 28.5 18.7 28.6 19.75 28.6 23.5 28.75 Q25.95 29.05 27.1 30.0 27.7 30.5 27.7 31.1 27.7 31.75 26.9 32.1 L25.6 32.3 18.45 32.45 12.85 32.15 9.7 31.75 7.95 31.6 3.1 31.95 0.95 32.3 0.25 32.1 -0.35 31.55 -0.5 31.3 -0.5 29.9 0.25 29.15 Q0.75 28.8 1.5 28.6 4.05 27.9 5.85 27.75 7.45 27.6 9.7 27.8 L9.7 31.75 9.7 27.8" fill="#999999" fill-rule="evenodd" stroke="none" />
      <path d="M2.8 0.0 L0.25 0.0 M9.7 0.0 L5.4 0.0 M21.55 0.0 L32.25 0.0 M20.55 0.0 L9.7 0.0" fill="none" stroke="#666666" stroke-linecap="round" stroke-linejoin="round" stroke-width="4.0" />
      <path d="M9.7 -0.4 L74.7 -0.4 74.7 40.5 47.05 40.5 45.5 40.7 27.0 40.65 25.95 40.5 9.7 40.5 -0.5 40.5 -0.5 -0.4 9.7 -0.4 9.7 40.5 9.7 -0.4" fill="#ffffff" fill-rule="evenodd" stroke="none" />
    </g>
    <g id="shape1">
      <path d="M23.25 3.65 L23.65 3.6 25.05 3.7 26.45 3.9 27.6 4.05 27.95 3.9 29.85 3.45 31.25 3.25 35.1 2.85 35.75 2.8 39.95 2.6 44.0 2.6 47.6 3.05 47.75 3.05 50.35 3.75 51.65 4.25 54.3 4.25 57.6 4.2 58.8 4.35 Q59.55 4.65 59.9 5.5 L60.3 7.05 60.35 7.4 60.75 10.0 60.95 11.15 62.95 14.05 63.1 14.3 63.9 15.85 Q64.95 18.2 65.2 20.55 L65.2 20.8 65.25 22.1 65.0 24.15 65.15 24.2 Q67.0 24.8 68.25 25.6 L68.6 25.8 Q69.4 26.35 70.4 27.4 L71.05 28.1 73.4 31.45 Q75.0 34.2 75.85 37.4 L75.85 39.7 75.1 40.3 74.35 40.55 74.3 40.55 74.25 40.65 74.15 40.75 74.05 40.9 73.9 41.0 73.7 41.1 73.55 41.2 73.25 41.35 73.1 41.4 72.95 41.45 72.8 41.5 72.4 41.5 70.9 41.5 70.6 41.5 68.35 41.55 67.35 41.55 66.85 41.55 65.2 41.55 64.8 41.55 47.05 41.6 43.0 41.65 37.55 41.65 32.15 41.7 21.85 41.75 13.9 41.8 1.5 41.8 1.35 41.85 0.95 41.9 0.55 41.85 0.4 41.8 0.1 41.75 -0.1 41.65 -0.35 41.5 -0.5 41.4 -0.6 41.35 -0.6 35.7 -0.55 35.65 -0.5 35.55 -0.45 35.45 -0.35 35.3 -0.3 35.2 -0.2 35.1 -0.2 35.0 -0.1 34.85 -0.05 34.75 0.0 34.65 0.1 34.55 0.1 34.4 0.2 34.3 0.25 34.2 0.3 34.1 0.35 33.95 0.4 33.85 0.5 33.75 0.55 33.65 0.7 33.5 0.75 33.4 0.85 33.3 1.0 33.2 1.05 33.05 1.15 32.95 1.3 32.85 1.4 32.75 1.5 32.6 1.6 32.5 1.7 32.4 1.8 32.3 1.9 32.15 2.0 32.05 2.1 31.95 2.25 31.85 2.4 31.7 2.5 31.6 2.55 31.5 2.7 31.4 2.8 31.25 2.9 31.15 3.05 31.05 3.15 30.95 3.3 30.8 3.4 30.7 3.5 30.6 3.6 30.5 3.75 30.35 3.9 30.25 4.05 30.15 4.2 30.05 4.3 29.9 4.45 29.8 4.6 29.7 4.75 29.6 4.85 29.45 4.95 29.35 5.1 29.25 5.25 29.15 5.4 29.0 5.55 28.9 5.7 28.8 5.8 28.75 5.85 28.7 6.0 28.55 6.15 28.45 6.3 28.35 6.55 28.25 6.75 28.1 6.9 28.0 7.0 28.0 7.1 27.9 7.25 27.8 7.45 27.65 7.65 27.55 7.95 27.45 8.15 27.35 8.35 27.2 8.55 27.1 8.7 27.0 8.9 26.9 9.15 26.75 9.35 26.65 9.5 26.55 9.65 26.4 9.8 26.3 9.95 26.2 10.2 26.1 10.4 25.95 10.65 25.85 10.7 25.8 10.8 25.75 10.95 25.65 Q10.5 24.25 10.4 23.05 L10.35 21.55 Q10.55 19.5 12.1 16.6 L12.3 16.25 13.15 14.9 Q14.65 12.7 16.55 10.85 L16.55 10.75 16.7 9.35 Q16.85 7.5 17.45 5.85 17.95 4.5 18.7 4.1 L19.8 3.85 23.25 3.65" fill="#000000" fill-rule="evenodd" stroke="none" />
      <path d="M18.7 4.1 L16.65 -1.65 21.55 -1.65 23.25 3.65 19.8 3.85 18.7 4.1 M27.95 3.9 Q27.65 2.5 27.6 0.45 L27.5 -1.65 31.2 -1.65 31.2 1.85 31.25 3.25 29.85 3.45 27.95 3.9 M35.75 2.8 L35.7 -1.65 40.15 -1.65 39.95 2.6 35.75 2.8 M44.0 2.6 L44.25 -0.65 44.35 -1.65 48.2 -1.65 47.6 3.05 44.0 2.6 M50.35 3.75 Q50.7 1.35 51.4 -1.65 L55.65 -1.65 55.25 -0.05 54.3 4.25 51.65 4.25 50.35 3.75 M57.6 4.2 L58.65 2.75 61.6 -1.65 66.45 -1.65 Q64.1 2.5 60.35 7.4 L60.3 7.05 59.9 5.5 Q59.55 4.65 58.8 4.35 L57.6 4.2 M60.75 10.0 L65.55 4.35 71.1 -1.65 75.85 -1.65 75.85 0.6 75.75 0.7 72.3 4.1 69.0 7.65 63.1 14.3 62.95 14.05 60.95 11.15 60.75 10.0 M63.9 15.85 L66.8 13.25 Q72.05 8.5 75.55 6.1 L75.85 5.9 75.85 11.7 65.2 20.55 Q64.95 18.2 63.9 15.85 M65.25 22.1 Q67.7 20.4 70.8 18.45 L75.85 15.25 75.85 20.75 69.55 24.75 68.25 25.6 Q67.0 24.8 65.15 24.2 L65.0 24.15 65.25 22.1 M70.4 27.4 L73.6 26.15 75.85 25.35 75.85 30.55 73.4 31.45 71.05 28.1 70.4 27.4 M2.4 31.7 L0.55 31.1 -0.6 30.6 -0.6 25.55 -0.15 25.85 Q1.45 27.05 3.1 27.7 L5.4 28.5 5.8 28.75 5.7 28.8 5.55 28.9 5.4 29.0 5.25 29.15 5.1 29.25 4.95 29.35 4.85 29.45 4.75 29.6 4.6 29.7 4.45 29.8 4.3 29.9 4.2 30.05 4.05 30.15 3.9 30.25 3.75 30.35 3.6 30.5 3.5 30.6 3.4 30.7 3.3 30.8 3.15 30.95 3.05 31.05 2.9 31.15 2.8 31.25 2.7 31.4 2.55 31.5 2.5 31.6 2.4 31.7 M7.0 28.0 L-0.6 21.2 -0.6 14.5 1.4 16.4 Q7.6 22.35 10.7 25.8 L10.65 25.85 10.4 25.95 10.2 26.1 9.95 26.2 9.8 26.3 9.65 26.4 9.5 26.55 9.35 26.65 9.15 26.75 8.9 26.9 8.7 27.0 8.55 27.1 8.35 27.2 8.15 27.35 7.95 27.45 7.65 27.55 7.45 27.65 7.25 27.8 7.1 27.9 7.0 28.0 M10.4 23.05 L8.55 20.15 0.25 5.45 -0.6 3.45 -0.6 -1.65 2.5 -1.65 3.15 -0.75 5.25 3.25 7.25 7.35 9.6 11.35 11.25 14.8 12.1 16.6 Q10.55 19.5 10.35 21.55 L10.4 23.05 M13.15 14.9 L13.05 14.6 11.7 11.25 Q8.3 2.85 5.55 -1.65 L10.95 -1.65 Q14.15 4.35 16.55 10.75 L16.55 10.85 Q14.65 12.7 13.15 14.9" fill="#717171" fill-rule="evenodd" stroke="none" />
      <path d="M53.55 12.15 L51.95 12.0 50.0 11.9 Q49.15 11.5 49.05 10.5 49.05 9.55 49.85 9.05 L52.0 8.9 53.4 9.1 Q55.1 9.4 55.6 9.85 56.05 10.25 56.2 10.85 56.3 11.5 55.9 11.9 55.5 12.3 54.75 12.3 L53.55 12.15 M30.95 12.1 Q31.35 11.4 32.2 11.15 32.8 11.05 33.0 11.35 33.2 11.65 32.85 12.1 L32.35 12.7 Q32.2 13.1 32.4 13.55 L32.55 14.0 33.35 14.25 34.3 14.3 35.95 13.95 36.5 13.45 37.1 12.95 Q37.6 12.45 38.05 12.4 L38.25 12.35 38.55 12.25 38.9 12.25 39.45 12.35 40.25 12.6 41.0 13.4 41.8 13.95 Q42.9 14.6 43.7 14.4 L44.45 14.05 44.9 13.55 44.95 12.95 44.6 12.3 44.2 11.8 44.1 11.25 Q44.0 10.75 44.25 10.5 44.45 10.3 44.8 10.3 L45.85 10.25 46.45 10.65 47.35 11.6 Q47.65 12.15 47.65 13.5 L47.55 14.5 Q47.3 15.4 46.15 16.25 45.05 17.05 44.3 17.15 L43.1 17.2 Q40.7 16.9 38.85 15.25 L37.35 16.5 36.8 16.8 35.6 17.2 34.1 17.2 32.55 16.9 Q31.65 16.65 31.1 16.1 30.45 15.5 30.35 14.7 L30.35 13.85 30.55 12.95 30.95 12.1 M38.3 26.55 L36.15 26.45 34.75 25.95 33.95 25.5 33.4 25.0 Q32.5 24.0 32.5 23.3 32.5 22.9 32.8 22.75 L33.55 22.85 35.7 23.95 37.65 24.2 39.15 24.15 Q39.65 24.1 40.15 23.75 L41.2 23.2 Q42.0 22.75 42.55 22.65 L43.35 22.8 Q43.55 23.1 43.25 23.75 L42.9 24.35 41.05 25.9 40.15 26.3 39.4 26.5 38.3 26.55 M24.6 28.2 Q25.65 30.3 28.65 31.75 33.85 34.3 40.2 33.65 L43.45 33.0 46.8 31.5 50.25 29.45 51.65 28.4 Q52.5 27.8 53.25 27.75 L51.8 30.85 Q51.0 31.95 48.85 33.3 45.0 35.7 43.05 36.25 L40.75 36.75 32.15 36.45 Q27.6 35.35 24.65 32.3 22.75 30.4 22.7 28.5 22.7 27.95 22.95 27.55 23.25 27.1 23.65 27.15 24.2 27.25 24.6 28.2 M27.95 10.0 Q28.45 10.5 28.4 11.25 28.35 12.05 27.8 12.5 27.3 12.9 26.45 12.95 L24.9 12.95 23.05 13.15 21.45 13.2 Q20.65 12.85 20.8 12.0 20.9 11.4 21.9 10.7 23.95 9.4 26.0 9.35 27.3 9.35 27.95 10.0" fill="#ffffff" fill-rule="evenodd" stroke="none" />
    </g>
    <g id="shape2">
      <path d="M-0.5 -0.4 L-0.5 -0.55 75.1 -0.55 75.1 -0.4 75.1 40.8 -0.5 40.8 -0.5 -0.4 Z" fill="none" stroke="#000000" stroke-linecap="round" stroke-linejoin="round" stroke-width="3.0" />
    </g>
  </defs>
</svg>