<svg xmlns:ffdec="https://www.free-decompiler.com/flash" xmlns:xlink="http://www.w3.org/1999/xlink" ffdec:objecttype="frame" xmlns="http://www.w3.org/2000/svg" viewBox="-1.4 -0.7 76.6 41.5">   <g>     <use ffdec:characterid="1" height="42.7" width="76.45" xlink:href="#shape0"></use>     <use ffdec:characterid="485" height="41.45" width="76.6" xlink:href="#shape1"></use>     <use ffdec:characterid="3" height="44.35" width="78.6" xlink:href="#shape2"></use>   </g>   <defs>     <g id="shape0">       <path d="M2.8 0.0 L2.8 -0.4 5.4 -0.4 5.4 0.0 9.7 0.0 9.7 19.45 9.7 0.0 20.55 0.0 19.3 19.45 9.7 19.45 0.25 19.45 0.25 0.0 2.8 0.0" fill="#ffffff" fill-rule="evenodd" stroke="none"></path>       <path d="M0.25 19.45 L9.7 19.45 19.3 19.45 18.7 28.6 16.0 28.5 10.95 27.95 9.7 27.8 Q7.45 27.6 5.85 27.75 4.05 27.9 1.5 28.6 0.75 28.8 0.25 29.15 L0.25 19.45 M9.7 19.45 L9.7 27.8 9.7 19.45" fill="#121212" fill-rule="evenodd" stroke="none"></path>       <path d="M9.7 27.8 L10.95 27.95 16.0 28.5 18.7 28.6 19.75 28.6 23.5 28.75 Q25.95 29.05 27.1 30.0 27.7 30.5 27.7 31.1 27.7 31.75 26.9 32.1 L25.6 32.3 18.45 32.45 12.85 32.15 9.7 31.75 7.95 31.6 3.1 31.95 0.95 32.3 0.25 32.1 -0.35 31.55 -0.5 31.3 -0.5 29.9 0.25 29.15 Q0.75 28.8 1.5 28.6 4.05 27.9 5.85 27.75 7.45 27.6 9.7 27.8 L9.7 31.75 9.7 27.8" fill="#999999" fill-rule="evenodd" stroke="none"></path>       <path d="M2.8 0.0 L0.25 0.0 M9.7 0.0 L5.4 0.0 M21.55 0.0 L32.25 0.0 M20.55 0.0 L9.7 0.0" fill="none" stroke="#666666" stroke-linecap="round" stroke-linejoin="round" stroke-width="4.0"></path>       <path d="M9.7 -0.4 L74.7 -0.4 74.7 40.5 47.05 40.5 45.5 40.7 27.0 40.65 25.95 40.5 9.7 40.5 -0.5 40.5 -0.5 -0.4 9.7 -0.4 9.7 40.5 9.7 -0.4" fill="#ffffff" fill-rule="evenodd" stroke="none"></path>     </g>     <g id="shape1">       <path d="M20.5 15.5 L20.55 15.35 20.3 15.2 Q13.5 12.2 5.55 10.2 L0.5 8.8 -1.4 8.1 -1.4 -0.7 17.3 -0.7 28.15 7.3 28.55 7.1 28.6 7.1 28.8 7.0 29.05 6.85 30.3 6.3 30.8 6.0 30.9 5.95 30.5 3.4 30.35 2.1 29.75 -0.7 44.05 -0.7 43.4 2.1 43.25 3.4 42.9 5.95 43.0 6.0 43.45 6.3 44.7 6.85 44.95 7.0 45.2 7.1 45.25 7.1 45.6 7.3 56.45 -0.7 75.2 -0.7 75.2 8.1 73.25 8.8 68.25 10.2 Q60.25 12.2 53.5 15.2 L53.2 15.35 53.4 15.75 Q53.5 15.6 53.65 15.6 L75.2 13.75 75.2 27.75 56.6 26.1 53.65 25.55 53.4 25.4 53.2 25.8 53.5 25.95 55.1 26.65 75.2 35.8 75.2 40.75 55.5 40.75 45.6 33.9 45.2 34.1 44.25 34.55 43.45 34.85 42.95 35.2 42.9 35.2 42.9 40.75 30.9 40.75 30.9 35.2 30.85 35.2 30.3 34.85 29.55 34.55 28.6 34.1 28.15 33.9 18.25 40.75 -1.4 40.75 -1.4 35.8 18.7 26.65 20.3 25.95 Q20.4 25.9 20.55 25.8 L20.4 25.4 20.15 25.55 17.15 26.1 -1.4 27.75 -1.4 13.75 20.15 15.6 20.4 15.75 20.5 15.5" fill="#717171" fill-rule="evenodd" stroke="none"></path>       <path d="M20.5 15.5 L-0.3 13.6" ffdec:has-small-stroke="true" ffdec:original-stroke-width="0.05" fill="none" stroke="#999999" stroke-linecap="butt" stroke-linejoin="miter-clip" stroke-miterlimit="3.0" stroke-width="1.0"></path>       <path d="M47.6 20.45 Q48.05 20.95 48.15 21.4 L48.35 21.95 Q48.5 23.15 47.45 23.7 46.4 24.25 45.55 23.4 L45.1 22.85 44.1 21.2 43.5 21.8 42.75 22.4 42.1 23.0 Q41.45 23.4 40.9 22.85 40.35 22.4 40.45 21.65 L41.25 20.25 42.6 18.8 41.75 17.5 41.5 16.95 41.35 16.25 40.9 14.8 Q41.0 14.05 41.6 13.75 L42.8 13.8 43.45 14.55 44.7 16.5 45.6 15.4 46.1 14.8 47.75 14.7 Q48.6 15.3 48.25 16.25 L47.9 16.9 46.95 18.15 46.3 18.8 46.2 18.9 47.0 19.9 47.6 20.45 M37.8 25.9 L38.85 26.6 Q40.35 27.2 41.2 26.6 L42.15 25.6 43.25 24.85 Q44.0 24.75 44.35 25.4 44.8 26.15 44.1 27.25 42.95 29.45 40.9 29.75 L39.4 29.75 38.35 29.7 37.5 29.3 36.05 28.35 35.2 29.3 32.65 29.85 Q31.35 29.95 30.2 29.3 29.05 28.65 28.4 27.55 27.95 26.7 28.0 26.0 28.0 25.1 28.75 24.65 29.65 24.15 30.2 24.9 30.5 25.25 30.65 26.15 30.95 26.9 31.75 27.15 L33.3 27.25 Q34.9 26.95 35.15 25.85 L35.3 25.2 Q35.55 24.65 36.1 24.55 36.65 24.45 37.1 24.85 L37.15 24.9 37.8 25.9 M27.2 15.15 Q27.8 15.4 28.7 16.3 L28.95 15.9 29.7 14.75 Q30.15 14.1 30.7 13.9 31.75 13.5 32.6 14.25 33.4 15.15 33.0 16.15 L32.1 17.3 30.95 18.3 30.95 18.35 31.5 18.7 32.1 19.6 32.75 20.7 Q33.35 21.7 32.75 22.7 32.1 23.7 30.95 23.55 L29.9 23.0 29.35 22.35 28.95 21.4 28.7 21.05 28.2 21.5 27.25 22.65 26.35 23.55 Q25.25 24.35 24.5 24.05 24.0 23.85 23.85 23.35 23.7 22.8 23.95 22.35 L26.7 18.95 25.75 17.8 Q25.25 17.1 25.35 16.3 L25.35 15.85 25.2 15.45 Q24.95 14.95 25.4 14.6 L26.3 14.55 26.7 14.9 27.2 15.15" fill="#000000" fill-rule="evenodd" stroke="none"></path>     </g>     <g id="shape2">       <path d="M-0.5 -0.4 L-0.5 -0.55 75.1 -0.55 75.1 -0.4 75.1 40.8 -0.5 40.8 -0.5 -0.4 Z" fill="none" stroke="#000000" stroke-linecap="round" stroke-linejoin="round" stroke-width="3.0"></path>     </g>   </defs> </svg>