<svg xmlns="http://www.w3.org/2000/svg" xmlns:ffdec="https://www.free-decompiler.com/flash" xmlns:xlink="http://www.w3.org/1999/xlink" ffdec:objectType="frame" viewBox="39.95 7.40 75.60 41.35">
  <g transform="matrix(1.0, 0.0, 0.0, 1.0, 40.45, 7.95)">
    <use ffdec:characterId="1" height="42.7" transform="matrix(1.0, 0.0, 0.0, 1.0, 0.0, 0.0)" width="76.45" xlink:href="#shape0" />
    <use ffdec:characterId="451" height="43.3" transform="matrix(1.0, 0.0, 0.0, 1.0, 0.0, 0.0)" width="78.75" xlink:href="#shape1" />
    <use ffdec:characterId="3" height="44.35" transform="matrix(1.0, 0.0, 0.0, 1.0, 0.0, 0.0)" width="78.6" xlink:href="#shape2" />
  </g>
  <defs>
    <g id="shape0">
      <path d="M2.8 0.0 L2.8 -0.4 5.4 -0.4 5.4 0.0 9.7 0.0 9.7 19.45 9.7 0.0 20.55 0.0 19.3 19.45 9.7 19.45 0.25 19.45 0.25 0.0 2.8 0.0" fill="#ffffff" fill-rule="evenodd" stroke="none" />
      <path d="M0.25 19.45 L9.7 19.45 19.3 19.45 18.7 28.6 16.0 28.5 10.95 27.95 9.7 27.8 Q7.45 27.6 5.85 27.75 4.05 27.9 1.5 28.6 0.75 28.8 0.25 29.15 L0.25 19.45 M9.7 19.45 L9.7 27.8 9.7 19.45" fill="#121212" fill-rule="evenodd" stroke="none" />
      <path d="M9.7 27.8 L10.95 27.95 16.0 28.5 18.7 28.6 19.75 28.6 23.5 28.75 Q25.95 29.05 27.1 30.0 27.7 30.5 27.7 31.1 27.7 31.75 26.9 32.1 L25.6 32.3 18.45 32.45 12.85 32.15 9.7 31.75 7.95 31.6 3.1 31.95 0.95 32.3 0.25 32.1 -0.35 31.55 -0.5 31.3 -0.5 29.9 0.25 29.15 Q0.75 28.8 1.5 28.6 4.05 27.9 5.85 27.75 7.45 27.6 9.7 27.8 L9.7 31.75 9.7 27.8" fill="#999999" fill-rule="evenodd" stroke="none" />
      <path d="M2.8 0.0 L0.25 0.0 M9.7 0.0 L5.4 0.0 M21.55 0.0 L32.25 0.0 M20.55 0.0 L9.7 0.0" fill="none" stroke="#666666" stroke-linecap="round" stroke-linejoin="round" stroke-width="4.0" />
      <path d="M9.7 -0.4 L74.7 -0.4 74.7 40.5 47.05 40.5 45.5 40.7 27.0 40.65 25.95 40.5 9.7 40.5 -0.5 40.5 -0.5 -0.4 9.7 -0.4 9.7 40.5 9.7 -0.4" fill="#ffffff" fill-rule="evenodd" stroke="none" />
    </g>
    <g id="shape1">
      <path d="M22.7 12.2 L26.4 11.85 26.6 11.85 26.55 9.95 Q24.2 8.5 23.0 6.75 21.45 4.6 21.7 2.15 21.75 1.1 22.55 -0.65 L26.0 -0.65 25.95 -0.1 Q25.95 1.2 27.3 2.85 L28.55 4.15 29.1 4.55 29.65 4.0 Q31.65 2.3 34.6 1.3 L37.4 0.6 40.35 0.9 Q42.65 1.5 44.75 2.95 L46.85 4.75 47.25 4.25 47.75 2.8 Q47.95 1.25 47.45 -0.65 L51.55 -0.65 51.75 0.45 51.95 2.65 51.85 4.7 Q51.55 6.7 50.35 8.4 49.4 9.75 48.05 10.6 L47.8 12.15 48.65 11.6 50.25 10.6 51.8 9.7 52.85 9.35 56.65 8.8 Q60.75 8.7 62.65 10.3 L63.25 10.85 63.45 10.85 64.55 11.15 64.7 11.25 65.5 11.85 65.8 12.1 66.5 13.15 66.6 13.45 66.8 13.85 67.05 14.85 66.95 15.7 66.45 16.55 65.85 16.65 Q65.5 16.5 65.5 16.15 65.1 15.75 65.1 15.2 L64.9 14.95 64.75 15.4 Q65.15 16.45 64.8 17.7 L64.65 18.25 63.95 19.15 Q63.45 19.55 63.05 19.35 L62.75 18.95 62.75 18.5 62.95 17.5 62.8 17.0 61.9 17.05 61.65 17.95 Q61.15 19.35 59.9 19.65 L59.2 19.65 58.7 19.1 Q58.65 18.8 58.95 18.4 L59.5 17.8 Q59.85 17.25 59.75 16.45 L59.75 15.9 58.95 14.85 58.05 14.65 Q55.3 14.35 52.35 15.15 L50.45 15.75 50.1 15.85 49.95 15.9 49.65 16.05 50.8 18.2 51.3 19.45 51.35 20.65 Q51.15 22.75 50.2 23.65 49.25 24.65 47.85 24.5 47.0 25.15 45.85 25.05 L45.3 25.0 44.75 25.35 Q43.6 26.2 42.1 26.4 40.55 26.55 39.25 25.95 37.9 25.35 37.05 24.1 36.2 22.8 36.1 21.35 36.05 20.5 36.3 19.35 L34.6 19.3 31.95 18.45 30.1 17.6 29.9 17.55 27.1 17.2 25.95 17.4 Q25.1 17.65 24.2 18.25 L23.85 18.55 21.75 20.3 19.6 21.85 19.05 22.5 18.15 23.6 17.7 24.25 16.85 24.1 16.4 23.45 16.3 22.45 16.35 22.3 15.85 22.1 15.3 22.3 14.9 22.6 14.75 22.8 14.65 23.1 14.55 23.3 14.2 23.9 13.8 24.4 13.2 24.55 12.9 24.4 Q12.6 24.1 12.6 23.65 L12.8 22.55 13.15 21.95 13.85 20.45 14.1 20.15 14.05 20.05 13.6 20.25 Q13.2 20.35 12.9 20.55 L12.3 21.15 11.9 21.45 11.65 21.65 11.2 21.4 11.15 20.85 11.2 20.65 11.7 19.05 12.0 18.4 12.35 17.95 12.9 17.55 14.6 16.75 15.4 15.95 17.5 14.6 19.4 13.4 Q20.95 12.55 22.7 12.2 M43.7 9.25 L43.3 9.05 42.75 10.4 Q41.8 12.2 39.9 13.3 L38.95 13.8 39.0 13.9 Q39.55 14.85 40.55 15.35 L42.6 15.7 Q43.65 15.55 44.5 14.75 45.3 13.95 45.45 12.9 45.65 11.85 45.15 10.8 44.65 9.8 43.7 9.25 M32.75 15.1 L33.6 13.95 Q31.65 13.4 30.5 12.1 29.65 11.15 29.45 10.1 L28.8 10.6 Q27.8 11.5 27.8 12.8 27.8 13.65 28.3 14.4 28.75 15.2 29.55 15.55 L31.25 15.8 Q32.1 15.65 32.75 15.1" fill="#000000" fill-rule="evenodd" stroke="none" />
      <path d="M43.7 9.25 Q44.65 9.8 45.15 10.8 45.65 11.85 45.45 12.9 45.3 13.95 44.5 14.75 43.65 15.55 42.6 15.7 L40.55 15.35 Q39.55 14.85 39.0 13.9 L38.95 13.8 39.9 13.3 Q41.8 12.2 42.75 10.4 L43.3 9.05 43.7 9.25 M32.75 15.1 Q32.1 15.65 31.25 15.8 L29.55 15.55 Q28.75 15.2 28.3 14.4 27.8 13.65 27.8 12.8 27.8 11.5 28.8 10.6 L29.45 10.1 Q29.65 11.15 30.5 12.1 31.65 13.4 33.6 13.95 L32.75 15.1" fill="#ffffff" fill-rule="evenodd" stroke="none" />
      <path d="M52.85 9.35 L55.95 5.45 Q57.15 4.05 58.05 4.05 59.35 4.0 60.25 5.6 L60.95 6.9 Q61.3 7.65 61.75 8.0 L70.9 0.25 Q72.15 -0.8 72.95 -0.95 74.45 -1.3 75.4 -0.1 76.4 1.15 75.7 2.5 75.35 3.35 73.8 4.35 70.6 6.5 64.55 11.15 L63.45 10.85 63.25 10.85 62.65 10.3 Q60.75 8.7 56.65 8.8 L52.85 9.35 M64.65 18.25 Q65.2 18.3 65.75 18.85 L66.6 20.4 Q67.4 22.4 67.8 24.55 L72.45 23.9 75.05 23.8 76.3 24.65 Q76.85 25.25 76.9 26.0 L76.65 27.5 Q76.3 28.25 75.65 28.6 L73.6 29.15 68.1 29.85 66.05 29.9 Q64.9 29.75 64.35 28.95 L63.85 27.3 62.6 22.3 55.7 23.7 54.95 23.65 54.5 23.1 Q54.5 22.75 55.05 22.4 56.9 21.2 61.0 19.7 L62.65 19.0 62.75 18.95 63.05 19.35 Q63.45 19.55 63.95 19.15 L64.65 18.25 M25.95 17.4 L27.0 19.5 27.2 20.25 Q27.1 20.85 26.6 20.95 25.9 21.1 25.15 20.15 L23.85 18.55 24.2 18.25 Q25.1 17.65 25.95 17.4 M14.65 23.1 L15.2 23.5 18.1 25.25 Q19.2 25.9 19.0 26.6 18.8 27.2 18.1 27.2 L17.0 26.85 11.3 24.15 Q8.5 26.75 7.05 28.55 L5.8 29.65 Q5.1 29.9 3.95 29.4 2.45 28.65 0.35 27.1 -1.7 25.55 -1.85 24.25 -2.0 23.1 -0.95 22.2 0.15 21.45 1.3 21.95 L2.8 23.25 5.2 25.7 9.55 21.65 Q10.45 20.7 11.2 20.65 L11.15 20.85 11.2 21.4 11.65 21.65 11.9 21.45 12.3 21.15 12.55 21.4 13.15 21.95 12.8 22.55 12.6 23.65 Q12.6 24.1 12.9 24.4 L13.2 24.55 13.8 24.4 14.2 23.9 14.55 23.3 14.65 23.1 M19.4 13.4 L17.7 11.55 Q16.1 13.2 14.95 15.1 14.15 16.45 13.6 16.75 L13.1 16.95 12.65 17.15 Q12.05 17.35 11.55 17.15 10.55 16.8 10.05 14.95 L7.25 4.85 7.05 4.55 6.8 4.55 Q5.2 4.95 3.15 5.7 L0.6 6.25 Q-0.7 6.1 -1.2 4.85 -1.7 3.7 -0.9 1.6 -0.3 0.15 0.45 -0.4 L1.85 -0.65 Q2.6 -0.55 3.1 -0.05 L3.5 0.25 4.0 0.2 6.2 -0.5 8.25 -0.95 Q9.45 -0.95 10.15 -0.25 10.6 0.2 10.9 1.5 L12.95 11.1 15.35 8.15 Q16.0 7.4 16.7 7.0 L18.4 6.85 Q19.0 7.1 19.85 8.5 L21.25 10.3 22.7 12.2 Q20.95 12.55 19.4 13.4 M57.9 33.9 Q57.8 33.1 58.25 32.85 58.8 32.4 59.65 33.15 L61.15 34.8 63.2 34.4 65.1 34.15 66.65 34.0 Q67.4 34.05 68.65 35.1 L72.3 38.05 73.1 38.85 Q73.6 39.5 73.55 40.35 73.45 41.2 72.9 41.7 L69.75 41.8 68.35 40.8 67.1 39.7 65.65 38.5 65.25 38.15 64.75 38.1 62.45 38.45 60.85 38.55 Q60.0 38.45 59.45 37.85 L59.0 37.05 58.6 36.1 Q58.0 34.6 57.9 33.9 M10.95 35.8 L11.75 35.95 Q12.3 36.15 12.2 36.6 12.1 37.05 11.3 37.15 L8.85 37.5 7.2 37.4 5.65 37.6 Q5.15 37.85 4.3 38.95 L2.5 40.7 1.25 41.55 -0.2 41.5 Q-1.25 41.1 -1.6 40.0 -1.9 38.95 -1.3 38.0 -0.8 37.3 0.45 36.65 L3.3 35.05 Q4.1 34.55 4.7 34.55 L5.8 34.9 6.7 35.0 8.8 35.4 10.95 35.8" fill="#717171" fill-rule="evenodd" stroke="none" />
      <path d="M20.05 28.2 Q20.75 26.65 21.55 25.65 22.5 24.7 24.0 23.7 26.35 21.9 27.7 21.55 L31.55 21.35 Q34.4 21.75 36.7 23.45 38.35 22.65 40.25 22.35 42.9 21.95 45.3 22.8 L46.25 23.15 Q46.95 22.7 48.05 22.35 L50.3 22.15 Q51.5 22.3 52.15 22.7 52.8 23.1 52.75 24.35 52.65 25.6 51.8 26.2 L50.75 26.95 51.4 28.4 53.6 27.35 Q56.95 25.55 57.65 25.7 58.3 25.75 59.3 26.3 60.05 26.7 60.4 27.55 60.75 28.25 60.65 29.05 60.5 30.8 58.8 31.55 57.9 31.75 57.5 31.9 L55.9 32.4 Q55.15 32.65 52.9 33.8 L48.8 34.7 53.85 35.9 Q55.25 36.4 55.9 37.35 56.5 38.25 56.1 39.6 L55.5 40.75 41.05 40.75 38.4 39.9 38.25 40.3 38.15 40.75 29.7 40.75 29.9 40.3 29.65 38.9 29.4 38.05 29.15 37.8 28.75 37.85 28.4 38.15 28.3 38.65 28.25 39.2 27.95 39.65 Q27.6 40.2 28.0 40.75 L22.75 40.75 20.65 39.1 20.2 39.1 Q19.05 39.2 17.15 38.45 16.1 38.05 15.55 37.65 13.85 37.05 15.05 34.85 L13.95 35.05 11.85 35.1 Q10.55 34.85 9.85 34.15 L9.25 33.1 Q8.7 31.45 9.7 30.1 10.55 29.1 12.85 28.5 L15.15 28.05 19.3 28.15 20.0 28.2 19.9 28.25 Q18.8 28.65 18.2 29.65 L18.0 30.1 Q17.5 31.2 17.9 32.4 18.35 33.6 19.45 34.15 L21.15 34.55 22.15 34.5 Q23.35 34.2 24.05 33.25 24.65 32.3 24.8 31.15 L24.8 30.5 24.45 29.4 Q23.8 28.3 22.4 28.0 L20.05 28.2 M24.0 31.35 L23.45 32.7 22.15 33.55 20.5 33.5 Q19.65 33.2 19.25 32.55 18.75 31.85 18.75 31.0 18.8 30.15 19.4 29.55 19.9 28.9 20.75 28.75 L22.35 28.8 Q23.1 29.05 23.6 29.85 24.1 30.55 24.0 31.35 M36.5 37.6 L37.1 36.8 37.45 35.6 37.4 34.5 36.95 33.05 Q36.25 31.45 34.6 31.1 32.9 30.65 31.4 31.6 29.95 32.45 29.5 34.1 29.25 34.85 29.4 35.75 29.6 37.25 31.05 38.2 32.3 39.0 33.9 38.9 35.65 38.7 36.5 37.6 M32.75 26.85 Q32.65 26.4 32.05 26.3 L31.25 26.35 30.6 26.6 30.05 26.7 29.15 26.5 28.75 26.2 Q28.65 25.4 28.0 25.1 L26.65 25.2 Q26.0 25.7 26.05 26.35 L26.1 26.7 26.45 27.05 26.7 27.65 27.4 28.25 27.35 28.25 Q27.05 28.7 27.15 29.25 L27.4 30.0 28.15 30.35 Q28.95 30.5 29.5 29.6 L29.7 28.8 29.75 28.75 30.6 28.7 31.0 28.6 31.25 28.5 31.7 28.35 32.2 28.1 32.4 27.8 32.7 27.25 32.75 26.85 M37.05 29.5 L37.3 30.1 37.45 30.35 37.35 30.65 Q37.0 31.35 37.4 31.9 37.85 32.5 38.55 32.25 L39.0 31.9 39.25 31.15 38.95 30.4 38.5 29.65 38.05 28.85 Q37.5 28.45 37.15 28.7 36.85 29.0 37.05 29.5 M34.25 32.1 Q34.8 32.25 35.2 32.55 L35.55 32.9 Q36.2 33.5 36.4 34.35 36.55 35.2 36.3 36.0 35.55 37.8 33.7 38.05 31.8 38.35 30.65 36.75 30.15 36.05 30.15 35.2 30.05 34.3 30.5 33.55 31.0 32.6 32.15 32.15 L34.25 32.1 M23.05 36.0 L22.8 35.6 22.35 35.5 Q22.15 35.55 21.9 35.85 L21.75 36.35 21.4 36.7 Q20.95 37.35 21.15 37.85 21.35 38.55 22.15 38.5 22.9 38.4 23.05 37.65 L22.95 36.9 Q22.85 36.45 23.0 36.2 L23.05 36.0" fill="#717171" fill-rule="evenodd" stroke="none" />
      <path d="M29.7 40.75 L28.0 40.75 Q27.6 40.2 27.95 39.65 L28.25 39.2 28.3 38.65 28.4 38.15 28.75 37.85 29.15 37.8 29.4 38.05 29.65 38.9 29.9 40.3 29.7 40.75 M20.0 28.2 L20.05 28.2 22.4 28.0 Q23.8 28.3 24.45 29.4 L24.8 30.5 24.8 31.15 Q24.65 32.3 24.05 33.25 23.35 34.2 22.15 34.5 L21.15 34.55 19.45 34.15 Q18.35 33.6 17.9 32.4 17.5 31.2 18.0 30.1 L18.2 29.65 Q18.8 28.65 19.9 28.25 L20.0 28.2 M24.0 31.35 Q24.1 30.55 23.6 29.85 23.1 29.05 22.35 28.8 L20.75 28.75 Q19.9 28.9 19.4 29.55 18.8 30.15 18.75 31.0 18.75 31.85 19.25 32.55 19.65 33.2 20.5 33.5 L22.15 33.55 23.45 32.7 24.0 31.35 M37.05 29.5 Q36.85 29.0 37.15 28.7 37.5 28.45 38.05 28.85 L38.5 29.65 38.95 30.4 39.25 31.15 39.0 31.9 38.55 32.25 Q37.85 32.5 37.4 31.9 37.0 31.35 37.35 30.65 L37.45 30.35 37.3 30.1 37.05 29.5 M32.75 26.85 L32.7 27.25 32.4 27.8 32.2 28.1 31.7 28.35 31.25 28.5 31.0 28.6 30.6 28.7 29.75 28.75 29.7 28.8 29.5 29.6 Q28.95 30.5 28.15 30.35 L27.4 30.0 27.15 29.25 Q27.05 28.7 27.35 28.25 L27.4 28.25 26.7 27.65 26.45 27.05 26.1 26.7 26.05 26.35 Q26.0 25.7 26.65 25.2 L28.0 25.1 Q28.65 25.4 28.75 26.2 L29.15 26.5 30.05 26.7 30.6 26.6 31.25 26.35 32.05 26.3 Q32.65 26.4 32.75 26.85 M36.5 37.6 Q35.65 38.7 33.9 38.9 32.3 39.0 31.05 38.2 29.6 37.25 29.4 35.75 29.25 34.85 29.5 34.1 29.95 32.45 31.4 31.6 32.9 30.65 34.6 31.1 36.25 31.45 36.95 33.05 L37.4 34.5 37.45 35.6 37.1 36.8 36.5 37.6 M34.25 32.1 L32.15 32.15 Q31.0 32.6 30.5 33.55 30.05 34.3 30.15 35.2 30.15 36.05 30.65 36.75 31.8 38.35 33.7 38.05 35.55 37.8 36.3 36.0 36.55 35.2 36.4 34.35 36.2 33.5 35.55 32.9 L35.2 32.55 Q34.8 32.25 34.25 32.1 M23.05 36.0 L23.0 36.2 Q22.85 36.45 22.95 36.9 L23.05 37.65 Q22.9 38.4 22.15 38.5 21.35 38.55 21.15 37.85 20.95 37.35 21.4 36.7 L21.75 36.35 21.9 35.85 Q22.15 35.55 22.35 35.5 L22.8 35.6 23.05 36.0" fill="#ffffff" fill-rule="evenodd" stroke="none" />
    </g>
    <g id="shape2">
      <path d="M-0.5 -0.4 L-0.5 -0.55 75.1 -0.55 75.1 -0.4 75.1 40.8 -0.5 40.8 -0.5 -0.4 Z" fill="none" stroke="#000000" stroke-linecap="round" stroke-linejoin="round" stroke-width="3.0" />
    </g>
  </defs>
</svg>