<svg xmlns="http://www.w3.org/2000/svg" xmlns:ffdec="https://www.free-decompiler.com/flash" xmlns:xlink="http://www.w3.org/1999/xlink" ffdec:objectType="frame" viewBox="39.95 7.40 75.60 41.35">
  <g transform="matrix(1.0, 0.0, 0.0, 1.0, 40.45, 7.95)">
    <use ffdec:characterId="1" height="42.7" transform="matrix(1.0, 0.0, 0.0, 1.0, 0.0, 0.0)" width="76.45" xlink:href="#shape0" />
    <use ffdec:characterId="433" height="41.15" transform="matrix(1.0, 0.0, 0.0, 1.0, 0.0, 0.0)" width="76.9" xlink:href="#shape1" />
    <use ffdec:characterId="3" height="44.35" transform="matrix(1.0, 0.0, 0.0, 1.0, 0.0, 0.0)" width="78.6" xlink:href="#shape2" />
  </g>
  <defs>
    <g id="shape0">
      <path d="M2.8 0.0 L2.8 -0.4 5.4 -0.4 5.4 0.0 9.7 0.0 9.7 19.45 9.7 0.0 20.55 0.0 19.3 19.45 9.7 19.45 0.25 19.45 0.25 0.0 2.8 0.0" fill="#ffffff" fill-rule="evenodd" stroke="none" />
      <path d="M0.25 19.45 L9.7 19.45 19.3 19.45 18.7 28.6 16.0 28.5 10.95 27.95 9.7 27.8 Q7.45 27.6 5.85 27.75 4.05 27.9 1.5 28.6 0.75 28.8 0.25 29.15 L0.25 19.45 M9.7 19.45 L9.7 27.8 9.7 19.45" fill="#121212" fill-rule="evenodd" stroke="none" />
      <path d="M9.7 27.8 L10.95 27.95 16.0 28.5 18.7 28.6 19.75 28.6 23.5 28.75 Q25.95 29.05 27.1 30.0 27.7 30.5 27.7 31.1 27.7 31.75 26.9 32.1 L25.6 32.3 18.45 32.45 12.85 32.15 9.7 31.75 7.95 31.6 3.1 31.95 0.95 32.3 0.25 32.1 -0.35 31.55 -0.5 31.3 -0.5 29.9 0.25 29.15 Q0.75 28.8 1.5 28.6 4.05 27.9 5.85 27.75 7.45 27.6 9.7 27.8 L9.7 31.75 9.7 27.8" fill="#999999" fill-rule="evenodd" stroke="none" />
      <path d="M2.8 0.0 L0.25 0.0 M9.7 0.0 L5.4 0.0 M21.55 0.0 L32.25 0.0 M20.55 0.0 L9.7 0.0" fill="none" stroke="#666666" stroke-linecap="round" stroke-linejoin="round" stroke-width="4.0" />
      <path d="M9.7 -0.4 L74.7 -0.4 74.7 40.5 47.05 40.5 45.5 40.7 27.0 40.65 25.95 40.5 9.7 40.5 -0.5 40.5 -0.5 -0.4 9.7 -0.4 9.7 40.5 9.7 -0.4" fill="#ffffff" fill-rule="evenodd" stroke="none" />
    </g>
    <g id="shape1">
      <path d="M5.4 6.5 L4.8 5.5 4.55 5.2 4.5 5.15 1.75 4.6 Q-0.4 4.3 -1.15 3.15 -1.7 2.35 -1.45 1.35 -1.25 0.35 -0.45 -0.15 L2.2 -0.55 3.5 -0.6 17.95 -0.6 18.15 0.45 19.6 0.55 19.55 -0.05 19.7 -0.6 26.85 -0.6 28.2 0.35 28.65 0.5 29.1 0.45 29.55 0.5 30.15 0.05 31.2 0.0 Q31.8 0.2 31.9 0.7 L31.75 1.55 31.25 2.4 Q30.4 3.85 31.0 5.65 31.5 7.15 32.9 8.4 L34.1 9.25 35.7 9.75 Q38.25 10.35 39.55 9.35 L40.6 8.2 41.55 6.0 41.5 4.15 40.9 1.25 Q40.65 0.1 40.75 -0.2 L41.0 -0.6 43.0 -0.6 43.6 0.8 43.65 1.05 44.4 1.65 45.35 1.75 45.7 1.7 45.8 1.6 Q46.75 0.5 48.1 0.75 L48.55 0.85 48.85 0.6 49.2 0.5 Q49.35 -0.2 49.9 -0.3 50.6 -0.45 51.0 0.35 L51.15 1.7 Q51.05 6.6 52.35 9.55 53.6 12.5 55.35 14.25 L57.35 16.0 57.7 16.15 58.15 16.45 58.6 16.75 60.7 17.85 Q63.05 18.55 66.05 17.3 67.45 16.7 68.2 15.95 L69.65 13.5 Q72.6 6.6 72.8 1.3 72.8 0.4 72.95 0.0 L73.35 -0.6 74.85 -0.6 75.1 -0.15 75.35 1.3 Q75.35 4.6 74.1 8.45 L74.0 8.85 Q74.5 9.05 74.65 9.8 L74.5 11.2 73.6 14.3 72.9 16.0 Q72.5 17.0 72.4 17.75 72.25 19.2 73.3 21.55 L74.65 25.35 74.55 27.75 74.2 29.9 72.9 32.15 71.4 34.35 Q70.45 36.1 70.45 37.9 L70.35 39.2 Q70.2 39.9 69.75 40.2 L68.0 40.4 67.2 40.55 64.75 40.55 64.35 40.25 63.8 40.5 63.65 40.55 57.0 40.55 56.4 40.35 55.45 39.65 55.3 39.5 54.7 39.95 53.3 40.05 52.25 39.7 51.45 39.2 Q50.5 38.6 49.3 38.6 47.55 38.55 44.9 40.1 L43.8 40.55 43.45 40.55 42.6 40.1 41.65 40.55 25.3 40.55 25.2 40.45 24.4 39.65 24.05 39.7 23.55 39.65 21.95 39.35 21.35 39.4 21.05 39.55 20.0 39.9 19.7 40.5 19.65 40.55 17.95 40.55 17.75 40.3 Q17.55 40.0 17.55 38.7 L17.45 37.9 Q17.25 37.05 16.55 36.4 L15.05 35.55 13.9 35.45 Q11.35 35.45 9.75 36.6 8.9 37.25 8.6 37.85 L7.95 39.4 7.45 39.95 7.15 40.05 Q7.0 40.35 6.6 40.45 6.1 40.6 5.6 40.15 L4.65 39.5 4.1 39.4 3.45 39.15 2.75 38.8 1.75 38.85 0.85 39.0 -0.05 39.0 Q-0.55 38.95 -0.85 38.55 -1.2 38.15 -1.15 37.65 L-1.05 37.1 Q-0.8 36.55 -0.1 36.3 L0.05 36.25 0.5 35.0 Q1.95 31.2 2.1 28.8 2.45 25.2 0.9 22.65 L0.2 21.4 0.1 20.6 -0.25 20.0 -0.3 19.3 -0.25 17.7 -0.15 17.5 -0.5 17.25 -0.75 16.6 -0.45 15.95 1.0 15.7 2.2 15.5 2.5 15.2 3.35 14.85 4.8 13.25 Q5.8 11.55 5.9 8.7 L5.8 7.45 5.4 6.5 M56.65 8.65 L55.7 5.5 Q55.1 3.05 55.05 2.35 55.05 1.3 55.2 0.8 55.45 0.0 56.15 -0.4 56.85 -0.7 57.55 -0.4 L57.95 -0.25 58.55 -0.25 61.05 -0.3 63.5 -0.3 65.95 -0.45 Q67.45 -0.25 68.0 0.75 68.3 1.4 68.2 2.25 L67.7 4.25 67.25 5.9 Q66.15 9.2 65.35 10.3 63.6 12.6 61.25 12.4 59.9 12.25 58.45 11.0 57.35 10.05 56.65 8.65 M40.0 14.2 Q40.25 14.75 40.85 15.05 L42.05 15.0 Q43.0 14.65 43.0 13.55 43.0 12.55 42.05 12.1 41.05 11.7 40.3 12.45 39.6 13.2 40.0 14.2 M47.3 6.9 Q47.95 6.8 48.1 6.3 48.3 5.75 47.95 5.35 47.55 4.95 47.05 5.05 46.5 5.2 46.35 5.75 L46.3 6.0 46.35 6.2 Q46.5 6.7 46.95 6.85 L47.3 6.9 M70.5 23.75 Q70.0 23.0 69.05 22.75 L67.3 22.85 Q66.5 23.25 66.1 24.15 65.75 25.05 66.05 25.9 66.5 27.1 67.65 27.4 L69.55 27.25 Q70.45 26.85 70.8 25.8 71.15 24.7 70.5 23.75 M59.8 22.2 Q59.1 22.85 59.45 23.8 59.8 24.7 60.75 24.8 61.8 24.8 62.2 23.95 62.45 23.45 62.3 22.9 L61.75 22.05 Q61.3 21.75 60.75 21.8 60.15 21.85 59.8 22.2 M69.45 16.7 L69.7 17.35 Q69.9 17.6 70.25 17.65 71.0 17.8 71.3 17.05 71.55 16.3 70.9 15.9 70.4 15.55 69.95 15.9 69.65 16.05 69.5 16.35 L69.45 16.7 M29.65 22.8 Q26.9 24.85 25.4 29.15 24.1 33.1 25.25 35.3 L26.55 37.1 Q27.5 38.25 28.3 38.7 29.5 39.4 31.35 39.4 L34.65 39.05 38.65 38.5 Q41.0 37.95 44.35 35.9 L47.8 33.9 50.25 31.35 52.0 28.9 52.85 26.85 54.7 22.35 Q55.65 19.6 55.35 17.55 L55.2 16.75 Q55.1 15.6 53.45 15.0 L53.3 15.0 52.05 14.95 49.25 14.7 44.25 15.3 41.1 16.1 Q39.95 16.5 37.75 17.7 L30.45 21.9 Q30.35 22.35 29.65 22.8 M46.6 19.6 L48.7 19.3 Q49.95 19.4 50.5 20.3 50.95 21.1 50.6 22.05 L49.7 23.6 Q45.4 29.35 39.2 32.75 36.9 34.05 35.3 34.1 33.85 34.25 32.45 33.5 31.2 32.9 30.75 31.8 30.25 30.55 30.9 29.1 31.4 28.05 32.6 26.85 34.7 24.9 39.8 22.0 L41.9 20.9 43.75 20.35 46.6 19.6 M58.65 27.9 L58.2 28.3 56.85 29.4 Q55.9 30.15 55.45 31.05 55.0 32.2 55.1 33.9 55.1 34.75 55.25 35.15 55.45 35.85 56.2 36.6 56.95 37.55 57.6 37.9 58.2 38.3 59.1 38.4 L61.4 38.45 62.95 38.2 64.3 37.35 65.35 36.4 66.4 34.95 Q67.55 32.7 66.55 30.75 L65.35 29.25 Q64.65 28.55 63.8 28.25 L62.25 27.85 61.15 27.45 60.35 27.5 59.25 27.7 58.65 27.9 M53.2 34.4 Q52.85 34.1 52.3 34.1 L51.5 34.55 Q51.0 35.25 51.4 35.9 51.75 36.6 52.6 36.5 53.35 36.4 53.6 35.65 53.85 34.9 53.2 34.4 M63.0 32.1 Q63.4 32.85 62.95 33.7 62.45 34.7 61.3 34.7 60.15 34.7 59.65 33.7 59.1 32.75 59.7 31.8 60.05 31.25 60.7 31.0 L62.05 31.15 Q62.75 31.45 63.0 32.1 M34.6 1.25 L35.05 0.8 35.85 0.35 36.85 0.0 Q37.85 -0.1 38.65 0.7 L39.0 1.2 Q39.7 2.45 39.05 3.7 L38.75 4.1 Q38.0 5.05 36.85 5.15 35.6 5.25 34.8 4.35 34.15 3.55 34.15 2.65 L34.2 2.1 34.6 1.25 M24.85 2.25 Q25.1 2.8 25.65 3.05 L26.7 3.1 27.55 2.55 27.8 1.55 27.4 0.55 Q27.0 0.15 26.45 0.1 25.85 0.05 25.4 0.35 25.0 0.65 24.85 1.2 24.65 1.75 24.85 2.25 M20.4 8.25 Q21.4 8.25 22.05 8.65 23.45 9.5 23.55 11.95 23.7 15.25 22.15 18.2 L20.0 21.25 17.5 24.05 15.9 25.8 Q14.9 26.65 13.75 26.7 12.4 26.8 11.75 25.7 11.35 25.05 11.55 23.45 12.75 16.2 15.85 11.25 16.5 10.15 17.25 9.5 18.6 8.35 20.4 8.25 M18.1 3.6 L16.2 3.85 Q14.4 4.4 12.5 7.2 8.25 13.45 7.25 18.25 6.9 19.8 6.6 22.8 6.4 24.9 6.5 26.0 6.75 27.95 8.05 30.2 L9.1 31.45 11.85 31.6 Q17.7 30.35 22.15 25.75 26.2 21.5 27.85 15.3 28.55 12.55 28.35 10.4 28.0 7.65 26.25 6.05 25.1 5.0 23.15 4.4 20.5 3.6 18.1 3.6 M29.15 21.0 L29.8 20.45 Q30.0 20.05 29.85 19.55 29.7 18.9 28.95 18.75 28.25 18.65 27.85 19.15 27.45 19.75 27.65 20.35 L28.0 20.8 28.35 21.0 29.15 21.0 M28.25 21.15 L28.35 21.05 28.3 21.05 28.25 21.15 M8.2 2.45 Q7.6 3.7 8.5 4.75 L9.7 5.45 11.0 5.3 12.0 4.4 12.25 3.1 Q12.2 2.45 11.7 1.9 11.2 1.35 10.5 1.25 L9.15 1.5 Q8.5 1.85 8.2 2.45 M31.35 15.5 Q31.25 16.55 31.95 17.15 32.5 17.65 33.2 17.7 L34.55 17.4 Q35.15 17.05 35.4 16.3 35.6 15.6 35.35 14.95 35.1 14.3 34.45 13.9 L33.1 13.6 Q32.4 13.7 31.9 14.25 31.4 14.8 31.35 15.5 M-0.55 11.1 L-0.6 10.15 Q-0.5 8.55 -0.15 8.15 0.2 7.75 0.8 7.65 L1.85 7.75 Q2.95 8.2 3.1 9.5 3.35 10.55 2.7 11.45 2.05 12.4 0.95 12.3 -0.2 12.2 -0.55 11.1 M7.45 32.95 Q7.05 32.45 6.4 32.35 L5.2 32.45 Q4.65 32.65 4.35 33.25 4.05 33.85 4.1 34.45 4.2 35.15 4.8 35.6 5.4 36.1 6.05 36.05 6.75 36.0 7.3 35.5 7.85 34.95 7.9 34.25 7.9 33.5 7.45 32.95 M3.65 29.85 L3.7 29.9 3.7 30.0 3.9 30.3 4.15 30.4 Q4.45 30.5 4.65 30.1 L4.7 29.95 4.6 29.55 4.45 29.45 4.0 29.35 3.7 29.7 3.65 29.85 M19.5 31.45 L19.05 31.95 18.95 32.65 Q19.15 33.45 19.9 33.55 20.65 33.7 21.1 33.0 21.5 32.3 20.95 31.65 20.45 31.1 19.65 31.35 L19.5 31.45 M9.7 8.2 Q9.7 7.35 8.9 7.0 8.1 6.65 7.5 7.3 6.9 7.9 7.2 8.7 7.45 9.5 8.35 9.5 L9.0 9.35 Q9.7 9.05 9.7 8.2 M13.9 37.65 Q14.8 37.75 15.25 38.4 15.75 39.15 15.5 39.9 L15.15 40.55 12.4 40.55 12.3 40.45 11.95 39.75 Q11.8 38.8 12.4 38.2 13.05 37.55 13.9 37.65" fill="#717171" fill-rule="evenodd" stroke="none" />
      <path d="M69.45 16.7 L69.5 16.35 Q69.65 16.05 69.95 15.9 70.4 15.55 70.9 15.9 71.55 16.3 71.3 17.05 71.0 17.8 70.25 17.65 69.9 17.6 69.7 17.35 L69.45 16.7 M59.8 22.2 Q60.15 21.85 60.75 21.8 61.3 21.75 61.75 22.05 L62.3 22.9 Q62.45 23.45 62.2 23.95 61.8 24.8 60.75 24.8 59.8 24.7 59.45 23.8 59.1 22.85 59.8 22.2 M70.5 23.75 Q71.15 24.7 70.8 25.8 70.45 26.85 69.55 27.25 L67.65 27.4 Q66.5 27.1 66.05 25.9 65.75 25.05 66.1 24.15 66.5 23.25 67.3 22.85 L69.05 22.75 Q70.0 23.0 70.5 23.75 M47.3 6.9 L46.95 6.85 Q46.5 6.7 46.35 6.2 L46.3 6.0 46.35 5.75 Q46.5 5.2 47.05 5.05 47.55 4.95 47.95 5.35 48.3 5.75 48.1 6.3 47.95 6.8 47.3 6.9 M40.0 14.2 Q39.6 13.2 40.3 12.45 41.05 11.7 42.05 12.1 43.0 12.55 43.0 13.55 43.0 14.65 42.05 15.0 L40.85 15.05 Q40.25 14.75 40.0 14.2 M53.2 34.4 Q53.85 34.9 53.6 35.65 53.35 36.4 52.6 36.5 51.75 36.6 51.4 35.9 51.0 35.25 51.5 34.55 L52.3 34.1 Q52.85 34.1 53.2 34.4 M24.85 2.25 Q24.65 1.75 24.85 1.2 25.0 0.65 25.4 0.35 25.85 0.05 26.45 0.1 27.0 0.15 27.4 0.55 L27.8 1.55 27.55 2.55 26.7 3.1 25.65 3.05 Q25.1 2.8 24.85 2.25 M29.15 21.0 L28.35 21.0 28.0 20.8 27.65 20.35 Q27.45 19.75 27.85 19.15 28.25 18.65 28.95 18.75 29.7 18.9 29.85 19.55 30.0 20.05 29.8 20.45 L29.15 21.0 M31.35 15.5 Q31.4 14.8 31.9 14.25 32.4 13.7 33.1 13.6 L34.45 13.9 Q35.1 14.3 35.35 14.95 35.6 15.6 35.4 16.3 35.15 17.05 34.55 17.4 L33.2 17.7 Q32.5 17.65 31.95 17.15 31.25 16.55 31.35 15.5 M8.2 2.45 Q8.5 1.85 9.15 1.5 L10.5 1.25 Q11.2 1.35 11.7 1.9 12.2 2.45 12.25 3.1 L12.0 4.4 11.0 5.3 9.7 5.45 8.5 4.75 Q7.6 3.7 8.2 2.45 M9.7 8.2 Q9.7 9.05 9.0 9.35 L8.35 9.5 Q7.45 9.5 7.2 8.7 6.9 7.9 7.5 7.3 8.1 6.65 8.9 7.0 9.7 7.35 9.7 8.2 M19.5 31.45 L19.65 31.35 Q20.45 31.1 20.95 31.65 21.5 32.3 21.1 33.0 20.65 33.7 19.9 33.55 19.15 33.45 18.95 32.65 L19.05 31.95 19.5 31.45 M3.65 29.85 L3.7 29.7 4.0 29.35 4.45 29.45 4.6 29.55 4.7 29.95 4.65 30.1 Q4.45 30.5 4.15 30.4 L3.9 30.3 3.7 30.0 3.7 29.9 3.65 29.85 M7.45 32.95 Q7.9 33.5 7.9 34.25 7.85 34.95 7.3 35.5 6.75 36.0 6.05 36.05 5.4 36.1 4.8 35.6 4.2 35.15 4.1 34.45 4.05 33.85 4.35 33.25 4.65 32.65 5.2 32.45 L6.4 32.35 Q7.05 32.45 7.45 32.95" fill="#ffffff" fill-rule="evenodd" stroke="none" />
      <path d="M32.5 1.0 Q33.35 0.1 34.9 -0.6 L38.35 -0.6 39.1 -0.3 Q40.75 0.65 41.0 2.65 L41.05 4.65 40.8 5.45 Q40.0 7.25 38.35 8.15 L37.45 8.5 36.35 8.55 Q34.35 8.45 33.05 7.25 L32.25 6.3 31.9 5.7 31.45 4.2 Q31.15 2.45 32.5 1.0 M71.9 0.15 Q71.6 4.55 71.05 6.7 L70.15 9.65 68.85 12.65 Q67.75 14.45 66.0 15.5 64.15 16.65 62.0 16.65 59.85 16.6 57.8 15.1 55.7 13.55 54.15 11.1 52.6 8.6 52.05 5.25 51.65 2.85 51.75 -0.3 L51.8 -0.6 54.1 -0.6 54.1 -0.15 Q54.15 1.7 54.6 4.25 L55.3 6.75 56.55 9.1 Q57.9 11.3 58.8 12.05 60.4 13.45 62.4 13.5 64.6 13.5 65.95 12.05 L67.15 10.1 Q69.3 5.55 69.3 0.55 L69.4 -0.6 71.85 -0.6 71.9 0.15 M59.25 7.75 L59.3 7.35 Q59.7 5.8 61.2 5.35 L61.6 5.25 Q62.65 5.0 63.7 5.5 64.65 5.85 65.25 6.9 65.8 7.95 65.55 9.15 L65.2 9.95 Q64.55 10.9 63.55 11.3 L61.35 11.45 60.5 11.1 Q59.65 10.5 59.3 9.2 59.15 8.6 59.25 7.75 M32.0 34.5 L35.15 35.15 Q38.9 35.35 43.5 31.5 50.55 25.6 51.7 18.8 L51.7 18.3 Q51.6 18.15 51.25 18.05 L49.85 17.75 Q48.2 17.75 45.9 18.3 L41.6 19.35 41.4 19.4 Q34.75 22.1 30.85 27.0 29.45 28.65 29.15 30.1 28.7 32.15 30.0 33.45 30.6 34.0 32.0 34.5 M53.75 16.2 Q55.0 17.65 54.3 20.5 52.6 27.55 45.8 33.45 43.4 35.6 41.05 36.75 38.25 38.1 35.0 38.1 31.8 38.1 28.95 36.8 27.1 35.9 26.25 34.7 25.55 33.55 25.45 31.95 25.35 29.75 26.35 27.5 27.25 25.45 28.95 23.75 31.45 21.2 36.6 18.7 L39.85 17.35 41.15 17.05 Q42.3 16.55 43.15 16.3 L45.1 15.9 49.75 15.35 50.55 15.2 Q52.7 15.0 53.75 16.2 M58.7 30.65 L58.25 31.45 58.15 32.05 58.05 32.5 58.1 33.35 58.2 33.7 58.5 34.2 59.2 34.7 59.8 34.95 61.9 34.8 62.45 34.35 63.25 33.25 63.45 32.15 63.25 31.4 62.7 30.6 61.9 30.25 61.65 30.0 61.3 30.0 60.85 29.9 60.15 29.85 59.7 29.9 59.3 30.2 58.95 30.4 58.7 30.65 M61.75 37.15 L60.75 37.3 Q58.75 37.3 57.7 36.5 L56.7 35.4 56.2 34.6 56.0 33.55 56.0 32.7 Q56.1 30.55 57.9 29.15 59.4 27.95 61.35 27.95 L62.35 28.1 Q63.35 28.35 64.15 29.15 64.95 29.95 65.15 30.95 L65.25 31.6 Q65.4 33.05 64.9 34.3 64.2 35.85 62.5 36.85 L61.75 37.15 M36.0 6.05 L37.25 6.15 38.2 5.5 38.8 4.8 Q39.2 4.2 39.1 3.5 39.05 2.8 38.55 2.3 38.05 1.7 36.95 1.45 L35.9 1.4 Q35.55 1.45 35.25 1.7 34.5 2.3 34.2 3.0 33.85 3.95 34.2 4.65 34.55 5.55 36.0 6.05 M21.65 14.35 L21.0 14.75 19.5 14.95 18.3 14.75 Q17.35 14.4 16.7 13.5 16.1 12.5 16.25 11.5 16.3 10.6 17.1 9.55 L18.2 8.6 Q18.7 8.25 19.1 8.2 L19.95 8.15 20.9 8.25 21.85 8.65 22.65 9.3 Q23.25 10.0 23.35 11.05 23.4 11.95 22.95 12.9 L22.45 13.7 21.65 14.35 M21.25 4.2 Q22.8 4.35 24.1 5.0 25.9 6.05 26.8 8.2 27.5 9.9 27.6 12.35 27.7 15.95 26.2 19.4 24.75 22.85 22.1 25.3 L19.7 27.25 16.15 29.65 Q14.05 30.8 12.15 30.9 9.8 31.0 8.65 29.7 7.8 28.8 7.5 26.5 7.15 24.4 7.15 22.95 7.2 19.0 10.0 12.75 12.1 8.25 14.35 6.4 17.35 3.9 21.25 4.2 M19.9 7.15 Q17.75 7.45 16.25 8.9 15.05 10.0 13.45 13.25 L11.9 16.85 Q10.3 21.7 11.45 26.45 L11.65 27.05 Q12.1 27.85 13.4 27.75 14.75 27.6 16.7 26.05 21.95 22.0 23.6 17.9 L24.3 15.65 24.75 12.95 Q24.8 11.55 24.3 9.8 L23.55 8.25 Q22.3 6.8 19.9 7.15 M1.65 12.25 L2.55 11.25 Q3.35 10.25 3.25 9.0 L2.95 8.0 2.35 7.35 Q2.1 7.1 1.85 7.05 L1.15 7.0 Q0.3 7.0 -0.2 6.5 -0.55 6.1 -0.45 5.55 -0.4 5.05 0.05 4.7 L1.55 4.55 3.05 5.0 Q3.75 5.4 4.5 6.55 L4.85 7.1 Q5.45 8.25 5.25 10.25 5.1 11.65 4.55 12.65 L3.65 13.75 Q2.55 14.95 0.95 14.85 L-0.05 14.65 -0.75 14.4 -1.05 13.9 Q-1.25 13.2 -0.8 12.9 L-0.05 12.75 0.85 12.6 1.65 12.25 M16.9 40.1 L16.5 40.55 15.45 40.55 15.35 40.35 Q15.2 40.0 15.45 39.65 15.75 39.05 15.35 38.5 L15.05 38.1 14.6 37.75 13.4 37.7 Q12.55 37.85 11.9 38.35 11.25 38.8 10.9 39.65 L10.65 40.55 8.7 40.55 8.55 39.9 Q8.5 39.35 8.85 38.6 L9.25 37.9 9.45 37.4 10.05 36.75 Q11.2 35.9 12.3 35.65 L14.8 35.6 Q15.2 35.7 15.55 35.95 L16.05 36.45 16.35 36.9 16.45 37.3 16.8 37.9 17.0 39.4 16.9 40.1 M37.65 32.15 Q37.1 33.2 36.1 33.65 L35.4 33.85 Q33.85 34.1 32.75 33.45 31.4 32.7 31.3 31.25 L31.35 30.4 Q31.55 29.35 31.9 28.65 32.45 27.65 33.6 27.25 L35.8 27.1 36.45 27.25 Q37.35 27.6 37.9 28.6 38.55 29.8 38.15 31.15 L37.65 32.15" fill="#000000" fill-rule="evenodd" stroke="none" />
    </g>
    <g id="shape2">
      <path d="M-0.5 -0.4 L-0.5 -0.55 75.1 -0.55 75.1 -0.4 75.1 40.8 -0.5 40.8 -0.5 -0.4 Z" fill="none" stroke="#000000" stroke-linecap="round" stroke-linejoin="round" stroke-width="3.0" />
    </g>
  </defs>
</svg>