<svg xmlns="http://www.w3.org/2000/svg" xmlns:ffdec="https://www.free-decompiler.com/flash" xmlns:xlink="http://www.w3.org/1999/xlink" ffdec:objectType="frame" viewBox="39.95 7.40 75.60 41.35">
  <g transform="matrix(1.0, 0.0, 0.0, 1.0, 40.45, 7.95)">
    <use ffdec:characterId="1" height="42.7" transform="matrix(1.0, 0.0, 0.0, 1.0, 0.0, 0.0)" width="76.45" xlink:href="#shape0" />
    <use ffdec:characterId="436" height="41.85" transform="matrix(1.0, 0.0, 0.0, 1.0, 0.0, 0.0)" width="77.75" xlink:href="#shape1" />
    <use ffdec:characterId="3" height="44.35" transform="matrix(1.0, 0.0, 0.0, 1.0, 0.0, 0.0)" width="78.6" xlink:href="#shape2" />
  </g>
  <defs>
    <g id="shape0">
      <path d="M2.8 0.0 L2.8 -0.4 5.4 -0.4 5.4 0.0 9.7 0.0 9.7 19.45 9.7 0.0 20.55 0.0 19.3 19.45 9.7 19.45 0.25 19.45 0.25 0.0 2.8 0.0" fill="#ffffff" fill-rule="evenodd" stroke="none" />
      <path d="M0.25 19.45 L9.7 19.45 19.3 19.45 18.7 28.6 16.0 28.5 10.95 27.95 9.7 27.8 Q7.45 27.6 5.85 27.75 4.05 27.9 1.5 28.6 0.75 28.8 0.25 29.15 L0.25 19.45 M9.7 19.45 L9.7 27.8 9.7 19.45" fill="#121212" fill-rule="evenodd" stroke="none" />
      <path d="M9.7 27.8 L10.95 27.95 16.0 28.5 18.7 28.6 19.75 28.6 23.5 28.75 Q25.95 29.05 27.1 30.0 27.7 30.5 27.7 31.1 27.7 31.75 26.9 32.1 L25.6 32.3 18.45 32.45 12.85 32.15 9.7 31.75 7.95 31.6 3.1 31.95 0.95 32.3 0.25 32.1 -0.35 31.55 -0.5 31.3 -0.5 29.9 0.25 29.15 Q0.75 28.8 1.5 28.6 4.05 27.9 5.85 27.75 7.45 27.6 9.7 27.8 L9.7 31.75 9.7 27.8" fill="#999999" fill-rule="evenodd" stroke="none" />
      <path d="M2.8 0.0 L0.25 0.0 M9.7 0.0 L5.4 0.0 M21.55 0.0 L32.25 0.0 M20.55 0.0 L9.7 0.0" fill="none" stroke="#666666" stroke-linecap="round" stroke-linejoin="round" stroke-width="4.0" />
      <path d="M9.7 -0.4 L74.7 -0.4 74.7 40.5 47.05 40.5 45.5 40.7 27.0 40.65 25.95 40.5 9.7 40.5 -0.5 40.5 -0.5 -0.4 9.7 -0.4 9.7 40.5 9.7 -0.4" fill="#ffffff" fill-rule="evenodd" stroke="none" />
    </g>
    <g id="shape1">
      <path d="M65.1 4.4 L66.15 4.6 66.8 4.8 Q67.15 5.05 67.15 5.35 67.2 5.8 66.7 6.0 L65.85 6.1 64.5 6.05 63.45 6.1 62.55 6.3 Q61.55 6.3 61.3 5.6 61.1 5.3 61.3 4.7 L61.7 3.8 63.05 1.75 61.95 1.8 61.45 1.6 Q61.05 1.25 61.1 0.8 L61.25 0.2 61.7 -0.1 63.9 -0.4 65.35 -0.3 65.95 -0.2 Q66.3 0.0 66.5 0.3 66.75 0.7 66.55 1.2 L66.05 1.85 64.55 3.3 64.3 3.6 63.85 4.4 65.1 4.4 M54.9 8.65 L54.25 8.65 Q53.75 8.55 53.65 8.05 53.5 7.65 53.8 7.15 L54.2 6.75 54.35 6.35 55.25 5.0 56.25 3.65 54.35 3.5 53.55 3.4 53.2 2.9 53.3 2.35 Q53.55 2.05 54.35 1.95 L58.05 1.65 58.9 1.65 Q59.35 1.75 59.6 2.05 L59.75 2.45 Q59.85 2.95 59.5 3.3 L58.95 3.6 Q58.4 3.9 57.3 5.1 L56.85 5.65 56.65 5.95 56.2 6.5 58.4 6.5 59.95 6.55 Q60.4 6.8 60.5 7.35 60.6 7.95 60.15 8.3 L59.2 8.55 58.15 8.45 56.5 8.45 54.9 8.65 M51.75 4.75 L52.35 4.9 Q52.8 5.15 52.9 5.7 53.0 6.25 52.55 6.6 L51.9 6.95 51.05 7.85 50.4 8.85 51.95 8.8 52.6 8.85 Q53.55 9.15 53.45 10.05 53.45 10.95 52.45 11.15 L51.7 11.1 48.85 11.35 48.35 11.45 47.45 10.8 Q47.2 10.2 47.6 9.7 L47.85 9.45 49.25 7.35 49.5 7.05 48.6 7.0 47.4 6.95 Q46.95 6.8 46.85 6.2 46.85 5.7 47.2 5.35 L48.7 4.95 49.4 4.75 51.75 4.75 M44.9 13.8 Q45.65 13.8 46.05 14.1 46.6 14.6 46.35 15.2 46.1 15.75 45.1 15.85 L44.15 15.9 43.5 15.9 42.95 16.0 Q42.45 16.1 42.0 15.7 41.6 15.35 41.6 14.8 L41.7 14.4 41.7 14.3 42.1 13.65 43.1 12.5 43.4 12.2 42.75 12.2 41.95 12.15 41.45 11.75 41.3 11.25 41.5 10.6 Q41.6 10.45 42.05 10.2 L44.05 10.0 44.8 10.0 45.3 10.1 45.75 10.05 Q46.2 10.05 46.45 10.4 46.7 10.8 46.55 11.2 L46.4 11.5 44.7 13.85 44.9 13.8 M73.9 27.35 L74.15 27.35 74.3 27.4 74.35 27.4 74.45 27.45 74.55 27.45 74.7 27.5 74.85 27.6 74.95 27.65 75.05 27.7 75.1 27.75 75.2 27.8 75.25 27.85 75.35 27.9 75.4 28.0 75.45 28.05 75.6 28.2 75.65 28.25 75.65 28.3 75.7 28.35 75.75 28.45 75.75 28.5 75.8 28.55 75.8 28.6 75.85 28.65 75.85 28.7 75.9 28.75 75.9 28.85 75.95 28.9 75.95 29.05 76.0 29.1 76.0 29.15 76.0 29.25 76.0 29.55 76.0 29.65 76.0 29.85 75.95 29.9 75.95 30.0 75.95 30.1 75.9 30.15 75.85 30.2 75.85 30.3 75.8 30.35 75.8 30.4 75.75 30.5 75.7 30.55 75.7 30.6 75.65 30.65 75.6 30.7 75.55 30.75 75.55 30.8 75.45 30.9 75.45 30.95 75.4 31.0 75.3 31.05 75.25 31.1 75.15 31.15 75.1 31.2 75.0 31.3 74.9 31.35 74.8 31.4 74.65 31.45 74.6 31.5 74.55 31.5 74.45 31.5 74.35 31.55 74.3 31.55 74.15 31.6 73.9 31.6 73.65 31.6 73.65 31.7 73.7 31.75 73.7 31.85 73.75 31.9 73.75 32.0 73.75 32.15 73.8 32.2 73.8 32.3 73.8 32.4 73.8 32.7 73.75 32.75 73.75 32.8 73.9 32.85 74.05 32.9 74.2 32.95 74.3 33.0 74.4 33.05 74.5 33.1 74.6 33.15 74.7 33.25 74.75 33.3 74.8 33.35 74.9 33.4 74.95 33.45 75.0 33.5 75.05 33.55 75.1 33.65 75.25 33.8 75.25 33.85 75.3 33.9 75.35 33.95 75.35 34.05 75.4 34.1 75.4 34.15 75.45 34.2 75.45 34.25 75.5 34.3 75.55 34.35 75.55 34.4 75.6 34.5 75.6 34.55 75.65 34.6 75.65 34.75 75.7 34.8 75.7 34.9 75.7 35.2 75.7 35.3 75.7 35.6 75.7 35.7 75.7 35.75 75.65 35.8 75.65 35.9 75.6 35.95 75.6 36.0 75.55 36.05 75.55 36.15 75.5 36.2 75.5 36.25 75.45 36.3 75.45 36.35 75.4 36.4 75.4 36.45 75.35 36.55 75.3 36.6 75.3 36.65 75.25 36.7 75.15 36.8 75.1 36.85 75.05 36.95 74.9 37.1 74.85 37.15 74.75 37.2 74.7 37.25 74.6 37.35 74.55 37.4 74.45 37.45 74.35 37.5 74.3 37.55 74.35 37.6 74.4 37.65 74.4 37.7 74.45 37.8 74.45 37.85 74.5 37.9 74.55 37.95 74.55 38.05 74.6 38.1 74.6 38.2 74.6 38.3 74.65 38.35 74.65 38.5 74.7 38.6 74.7 38.9 74.7 39.0 74.7 39.1 74.65 39.15 74.65 39.3 74.6 39.35 74.6 39.45 74.6 39.5 74.55 39.55 74.55 39.65 74.5 39.7 74.5 39.75 74.45 39.85 74.45 39.9 74.4 39.95 74.35 40.0 74.35 40.05 74.3 40.1 74.3 40.15 74.25 40.25 74.2 40.3 74.15 40.35 74.1 40.4 74.05 40.45 74.0 40.5 73.95 40.55 73.9 40.65 73.8 40.7 73.75 40.75 73.65 40.8 73.6 40.85 73.5 40.9 73.45 40.95 73.3 41.0 73.2 41.1 73.05 41.15 72.95 41.2 72.9 41.2 72.8 41.2 72.75 41.25 72.65 41.25 72.55 41.25 72.45 41.3 72.2 41.3 71.9 41.35 71.8 41.35 71.5 41.3 71.25 41.3 70.9 41.25 70.8 41.25 70.25 41.3 69.6 41.3 68.95 41.3 67.8 41.3 67.0 41.35 66.2 41.35 64.65 41.35 64.15 41.35 63.45 41.35 62.75 41.4 55.25 41.4 53.15 41.4 42.9 41.45 41.4 41.45 39.85 41.45 29.9 41.45 28.2 41.45 24.9 41.45 4.5 41.45 3.7 41.45 3.4 41.4 3.1 41.4 2.95 41.4 2.8 41.35 2.7 41.35 2.55 41.35 2.3 41.3 2.0 41.3 1.55 41.25 1.25 41.25 1.05 41.25 0.95 41.2 0.85 41.2 0.75 41.2 0.65 41.15 0.5 41.1 0.45 41.1 0.3 41.05 0.15 41.0 0.1 40.95 0.0 40.95 -0.05 40.9 -0.2 40.85 -0.35 40.8 -0.45 40.75 -0.55 40.7 -0.65 40.65 -0.75 40.6 -0.85 40.55 -0.9 40.45 -0.95 40.4 -1.0 40.35 -1.1 40.3 -1.15 40.25 -1.2 40.2 -1.25 40.15 -1.25 40.1 -1.35 40.0 -1.35 39.95 -1.4 39.9 -1.4 39.85 -1.45 39.8 -1.5 39.75 -1.5 39.7 -1.55 39.6 -1.55 39.5 -1.6 39.45 -1.6 39.35 -1.65 39.3 -1.65 39.2 -1.65 38.9 -1.7 38.8 -1.65 38.75 -1.65 38.45 -1.65 38.35 -1.6 38.3 -1.6 38.2 -1.55 38.15 -1.55 38.05 -1.5 37.95 -1.5 37.9 -1.45 37.85 -1.4 37.8 -1.4 37.75 -1.35 37.7 -1.35 37.65 -1.25 37.55 -1.25 37.5 -1.2 37.45 -1.15 37.4 -1.1 37.35 -1.0 37.3 -0.95 37.25 -0.9 37.15 -1.15 36.9 -1.2 36.85 -1.25 36.8 -1.25 36.7 -1.3 36.65 -1.35 36.6 -1.4 36.55 -1.4 36.5 -1.45 36.45 -1.5 36.4 -1.5 36.3 -1.5 36.25 -1.55 36.2 -1.55 36.15 -1.6 36.1 -1.6 36.0 -1.65 35.9 -1.65 35.75 -1.7 35.7 -1.7 35.6 -1.7 35.5 -1.7 35.15 -1.7 35.05 -1.7 34.85 -1.65 34.8 -1.65 34.75 -1.65 34.65 -1.65 34.55 -1.6 34.5 -1.6 34.45 -1.55 34.4 -1.55 34.35 -1.55 34.25 -1.5 34.2 -1.5 34.15 -1.45 34.1 -1.4 34.05 -1.4 34.0 -1.35 33.95 -1.35 33.85 -1.3 33.8 -1.25 33.8 -1.3 33.75 -1.35 33.7 -1.4 33.65 -1.45 33.6 -1.45 33.55 -1.5 33.5 -1.55 33.4 -1.55 33.35 -1.6 33.3 -1.6 33.25 -1.65 33.2 -1.65 33.1 -1.7 33.0 -1.7 32.8 -1.75 32.75 -1.75 32.7 -1.75 32.6 -1.75 32.3 -1.75 32.2 -1.75 32.15 -1.7 32.1 -1.7 31.9 -1.65 31.85 -1.65 31.75 -1.65 31.7 -1.6 31.65 -1.6 31.6 -1.55 31.55 -1.55 31.5 -1.5 31.45 -1.5 31.35 -1.45 31.3 -1.4 31.25 -1.35 31.2 -1.35 31.15 -1.25 31.1 -1.25 31.05 -1.15 30.95 -1.1 30.9 -1.15 30.85 -1.2 30.8 -1.25 30.75 -1.3 30.65 -1.35 30.6 -1.35 30.55 -1.4 30.5 -1.45 30.45 -1.45 30.4 -1.5 30.35 -1.5 30.25 -1.55 30.2 -1.55 30.15 -1.6 30.1 -1.6 30.0 -1.65 29.95 -1.65 29.85 -1.65 29.55 -1.7 29.45 -1.65 29.4 -1.65 29.1 -1.65 29.0 -1.6 28.95 -1.6 28.85 -1.55 28.8 -1.55 28.75 -1.5 28.7 -1.5 28.6 -1.45 28.55 -1.45 28.5 -1.4 28.45 -1.35 28.4 -1.35 28.35 -1.3 28.3 -1.25 28.2 -1.2 28.15 -1.15 28.1 -1.1 28.05 -1.0 28.0 -0.95 27.95 -0.9 27.9 -0.8 27.8 -0.7 27.75 -0.6 27.7 -0.5 27.65 -0.35 27.6 -0.25 27.55 -0.1 27.5 0.0 27.5 0.1 27.45 0.15 27.45 0.3 27.45 0.55 27.4 2.0 27.4 6.9 27.4 12.0 27.4 13.5 27.4 14.15 27.45 15.15 27.45 24.75 27.45 32.75 27.5 33.7 27.5 35.2 27.5 37.75 27.55 39.3 27.55 45.95 27.6 51.3 27.6 56.65 27.55 62.9 27.55 65.7 27.5 69.3 27.5 69.9 27.5 70.25 27.5 72.1 27.5 73.2 27.45 73.25 27.45 73.35 27.45 73.45 27.4 73.5 27.4 73.65 27.35 73.9 27.35" fill="#717171" fill-rule="evenodd" stroke="none" />
      <path d="M60.7 13.7 Q63.55 14.8 65.1 16.85 66.3 18.4 66.85 21.05 67.2 22.8 67.2 24.55 68.1 29.1 68.1 33.9 68.1 35.25 67.8 35.85 67.35 36.65 66.35 36.8 65.6 37.0 64.45 36.4 L62.7 35.35 61.9 35.05 60.65 35.8 Q58.0 37.25 55.2 37.15 L50.8 36.2 Q48.0 35.25 46.35 33.9 L45.8 33.45 46.3 37.3 46.35 39.4 Q46.15 40.3 45.4 40.95 L44.45 41.45 43.15 41.45 41.7 41.25 40.0 41.45 37.95 41.45 36.75 40.65 36.05 41.45 32.55 41.45 Q31.9 40.9 31.6 40.15 31.2 38.9 31.85 36.9 33.7 30.55 37.8 26.1 35.95 25.4 34.4 23.65 32.45 21.35 32.05 17.95 L31.85 17.4 Q31.8 17.25 31.35 17.05 30.35 16.55 29.75 15.5 29.15 14.45 29.15 13.3 29.15 10.9 31.2 9.4 32.4 8.55 33.6 8.55 34.6 8.55 35.5 9.05 36.6 9.65 37.25 10.85 37.85 12.0 37.75 13.25 L37.3 14.95 36.85 16.65 Q36.45 18.85 37.95 20.75 39.25 22.4 41.4 23.0 42.3 22.4 43.25 22.0 L43.9 20.2 Q44.85 17.9 46.1 16.55 47.4 15.1 49.5 14.1 52.15 12.9 55.05 12.8 L59.35 13.3 59.85 13.45 60.7 13.7 M56.3 33.3 L57.45 33.25 57.4 33.05 57.65 31.6 57.7 30.85 57.85 25.75 57.7 25.7 56.55 25.65 56.75 26.1 56.9 26.65 56.75 29.8 56.25 32.15 55.8 33.2 56.3 33.3 M57.0 14.05 L56.35 14.2 56.95 15.3 57.1 16.35 57.05 19.0 57.0 19.35 56.85 19.9 57.8 19.95 57.9 18.3 58.05 16.2 58.1 15.5 58.05 14.15 58.1 14.05 57.0 14.05 M52.3 25.85 L52.25 24.95 52.1 24.15 Q52.35 24.0 52.7 23.8 L53.05 23.55 53.45 23.25 Q53.65 23.0 53.45 22.8 L52.7 22.55 51.9 22.45 51.8 22.45 Q51.7 21.8 51.35 21.7 L50.85 21.75 50.5 22.15 50.3 23.25 49.7 24.75 Q49.35 25.8 49.55 26.4 L50.2 27.1 51.1 27.2 51.95 26.75 52.3 25.85 M23.8 26.15 Q24.3 27.8 24.1 29.45 23.9 31.25 22.9 32.65 L21.65 34.0 22.2 35.1 23.4 38.05 23.65 39.1 Q23.8 40.5 22.8 41.45 L11.3 41.45 11.15 41.15 10.6 41.15 Q9.6 41.05 9.2 40.75 L8.6 40.05 8.15 39.4 Q7.95 38.9 8.05 37.8 L7.9 36.75 Q7.65 36.2 7.1 36.1 L6.1 36.4 5.15 36.3 4.55 35.85 Q4.1 35.4 4.05 34.95 L4.0 34.15 4.1 33.4 Q4.25 33.05 4.7 33.05 5.2 33.15 5.25 33.5 L5.3 34.25 5.45 34.7 5.95 34.85 6.25 34.6 7.35 34.05 8.05 34.0 8.8 34.35 9.55 35.2 10.05 36.3 10.2 37.25 Q10.3 37.85 10.55 38.1 L10.95 38.45 11.05 38.55 11.1 38.15 Q11.25 37.4 12.25 35.65 L12.55 35.2 11.8 34.75 Q10.4 33.85 9.9 32.5 9.7 31.95 9.65 31.25 L7.4 31.35 Q5.95 31.05 5.15 29.85 4.3 28.65 4.6 27.2 4.8 26.45 5.5 25.55 L6.2 24.85 Q7.5 23.8 8.9 23.95 L9.8 24.15 Q10.7 24.4 11.25 24.85 11.85 24.05 12.7 23.4 14.35 22.1 16.4 21.85 L16.35 21.5 16.55 20.05 16.8 19.5 Q17.5 18.2 18.7 17.7 L20.65 17.5 Q21.7 17.7 22.45 18.35 24.05 19.8 23.75 21.9 23.6 22.9 23.0 23.7 L22.95 23.8 22.45 23.45 Q21.15 22.8 19.9 23.75 19.35 24.15 19.1 24.85 18.85 25.5 19.0 26.15 19.2 27.05 19.95 27.65 20.75 28.2 21.65 28.1 22.55 28.0 23.2 27.25 L23.8 26.15 M13.35 28.4 Q12.4 28.65 12.05 29.55 11.65 30.75 12.45 31.55 13.35 32.45 14.45 31.95 15.5 31.55 15.6 30.35 15.6 29.45 14.95 28.8 14.15 28.2 13.35 28.4 M21.4 30.25 Q21.4 29.65 20.85 29.65 20.45 29.6 19.95 30.0 L19.65 30.2 19.45 29.9 19.2 29.7 18.9 29.55 18.4 29.65 18.15 30.05 18.4 30.7 18.55 30.95 17.85 31.4 17.45 31.8 Q17.25 32.15 17.5 32.4 17.7 32.7 18.05 32.6 L18.6 32.25 19.75 31.35 20.45 31.1 21.05 30.8 21.4 30.25" fill="#000000" fill-rule="evenodd" stroke="none" />
      <path d="M52.3 25.85 L51.95 26.75 51.1 27.2 50.2 27.1 49.55 26.4 Q49.35 25.8 49.7 24.75 L50.3 23.25 50.5 22.15 50.85 21.75 51.35 21.7 Q51.7 21.8 51.8 22.45 L51.9 22.45 52.7 22.55 53.45 22.8 Q53.65 23.0 53.45 23.25 L53.05 23.55 52.7 23.8 Q52.35 24.0 52.1 24.15 L52.25 24.95 52.3 25.85 M57.0 14.05 L58.1 14.05 58.05 14.15 58.1 15.5 58.05 16.2 57.9 18.3 57.8 19.95 56.85 19.9 57.0 19.35 57.05 19.0 57.1 16.35 56.95 15.3 56.35 14.2 57.0 14.05 M56.3 33.3 L55.8 33.2 56.25 32.15 56.75 29.8 56.9 26.65 56.75 26.1 56.55 25.65 57.7 25.7 57.85 25.75 57.7 30.85 57.65 31.6 57.4 33.05 57.45 33.25 56.3 33.3 M22.95 23.8 Q23.75 24.45 23.85 25.65 L23.8 26.15 23.2 27.25 Q22.55 28.0 21.65 28.1 20.75 28.2 19.95 27.65 19.2 27.05 19.0 26.15 18.85 25.5 19.1 24.85 19.35 24.15 19.9 23.75 21.15 22.8 22.45 23.45 L22.95 23.8 M21.4 30.25 L21.05 30.8 20.45 31.1 19.75 31.35 18.6 32.25 18.05 32.6 Q17.7 32.7 17.5 32.4 17.25 32.15 17.45 31.8 L17.85 31.4 18.55 30.95 18.4 30.7 18.15 30.05 18.4 29.65 18.9 29.55 19.2 29.7 19.45 29.9 19.65 30.2 19.95 30.0 Q20.45 29.6 20.85 29.65 21.4 29.65 21.4 30.25 M13.35 28.4 Q14.15 28.2 14.95 28.8 15.6 29.45 15.6 30.35 15.5 31.55 14.45 31.95 13.35 32.45 12.45 31.55 11.65 30.75 12.05 29.55 12.4 28.65 13.35 28.4" fill="#ffffff" fill-rule="evenodd" stroke="none" />
    </g>
    <g id="shape2">
      <path d="M-0.5 -0.4 L-0.5 -0.55 75.1 -0.55 75.1 -0.4 75.1 40.8 -0.5 40.8 -0.5 -0.4 Z" fill="none" stroke="#000000" stroke-linecap="round" stroke-linejoin="round" stroke-width="3.0" />
    </g>
  </defs>
</svg>