<svg xmlns="http://www.w3.org/2000/svg" xmlns:ffdec="https://www.free-decompiler.com/flash" xmlns:xlink="http://www.w3.org/1999/xlink" ffdec:objectType="frame" viewBox="39.95 7.40 75.60 41.35">
  <g transform="matrix(1.0, 0.0, 0.0, 1.0, 40.45, 7.95)">
    <use ffdec:characterId="1" height="42.7" transform="matrix(1.0, 0.0, 0.0, 1.0, 0.0, 0.0)" width="76.45" xlink:href="#shape0" />
    <use ffdec:characterId="452" height="42.2" transform="matrix(1.0, 0.0, 0.0, 1.0, 0.0, 0.0)" width="71.75" xlink:href="#shape1" />
    <use ffdec:characterId="3" height="44.35" transform="matrix(1.0, 0.0, 0.0, 1.0, 0.0, 0.0)" width="78.6" xlink:href="#shape2" />
  </g>
  <defs>
    <g id="shape0">
      <path d="M2.8 0.0 L2.8 -0.4 5.4 -0.4 5.4 0.0 9.7 0.0 9.7 19.45 9.7 0.0 20.55 0.0 19.3 19.45 9.7 19.45 0.25 19.45 0.25 0.0 2.8 0.0" fill="#ffffff" fill-rule="evenodd" stroke="none" />
      <path d="M0.25 19.45 L9.7 19.45 19.3 19.45 18.7 28.6 16.0 28.5 10.95 27.95 9.7 27.8 Q7.45 27.6 5.85 27.75 4.05 27.9 1.5 28.6 0.75 28.8 0.25 29.15 L0.25 19.45 M9.7 19.45 L9.7 27.8 9.7 19.45" fill="#121212" fill-rule="evenodd" stroke="none" />
      <path d="M9.7 27.8 L10.95 27.95 16.0 28.5 18.7 28.6 19.75 28.6 23.5 28.75 Q25.95 29.05 27.1 30.0 27.7 30.5 27.7 31.1 27.7 31.75 26.9 32.1 L25.6 32.3 18.45 32.45 12.85 32.15 9.7 31.75 7.95 31.6 3.1 31.95 0.95 32.3 0.25 32.1 -0.35 31.55 -0.5 31.3 -0.5 29.9 0.25 29.15 Q0.75 28.8 1.5 28.6 4.05 27.9 5.85 27.75 7.45 27.6 9.7 27.8 L9.7 31.75 9.7 27.8" fill="#999999" fill-rule="evenodd" stroke="none" />
      <path d="M2.8 0.0 L0.25 0.0 M9.7 0.0 L5.4 0.0 M21.55 0.0 L32.25 0.0 M20.55 0.0 L9.7 0.0" fill="none" stroke="#666666" stroke-linecap="round" stroke-linejoin="round" stroke-width="4.0" />
      <path d="M9.7 -0.4 L74.7 -0.4 74.7 40.5 47.05 40.5 45.5 40.7 27.0 40.65 25.95 40.5 9.7 40.5 -0.5 40.5 -0.5 -0.4 9.7 -0.4 9.7 40.5 9.7 -0.4" fill="#ffffff" fill-rule="evenodd" stroke="none" />
    </g>
    <g id="shape1">
      <path d="M32.9 7.8 L35.25 4.3 Q35.85 2.85 36.2 2.5 36.6 2.2 37.15 2.15 L37.45 2.15 Q37.95 2.2 38.4 2.5 L39.35 4.3 41.7 7.8 Q44.6 11.4 46.7 15.1 49.15 19.25 49.9 22.65 50.95 27.05 49.55 30.75 48.55 33.4 46.25 35.3 43.95 37.2 41.1 37.85 L36.25 38.15 34.7 38.05 33.5 37.85 Q30.65 37.2 28.35 35.3 26.05 33.4 25.05 30.75 23.65 27.05 24.7 22.65 25.45 19.25 27.9 15.1 30.0 11.4 32.9 7.8" fill="#000000" fill-rule="evenodd" stroke="none" />
      <path d="M5.65 38.95 L6.3 39.9 Q6.45 40.45 6.05 40.95 L5.5 41.4 3.95 41.4 2.95 40.65 Q1.6 39.25 1.4 35.95 1.15 30.4 3.3 23.95 5.05 18.85 8.45 12.85 11.1 7.9 13.45 4.75 15.1 2.5 18.05 -0.8 L20.75 -0.8 16.2 6.05 Q12.6 11.45 10.7 14.8 4.8 25.45 4.6 34.35 4.6 37.5 5.65 38.95 M11.5 34.7 Q10.2 29.8 11.8 24.15 13.0 19.6 16.05 14.4 20.35 7.0 25.95 1.05 L27.7 -0.8 31.15 -0.8 Q24.1 9.45 20.75 15.0 18.2 19.15 17.1 22.1 15.5 26.3 15.75 29.9 15.9 32.8 17.3 35.6 18.05 37.1 19.05 38.1 L21.15 39.75 23.1 41.4 15.2 41.4 Q12.6 38.8 11.5 34.7 M41.5 1.35 Q42.65 3.75 45.5 7.15 L49.95 12.7 Q52.55 16.5 53.55 21.05 54.5 25.65 53.7 30.15 52.9 34.15 51.0 36.6 48.2 40.15 42.8 41.4 L31.1 41.4 28.45 40.5 Q25.75 39.35 23.7 37.35 21.55 35.25 20.55 32.6 18.8 28.05 20.5 22.4 21.6 18.7 25.1 13.15 L30.8 4.5 Q33.35 0.75 35.05 -0.8 L40.4 -0.8 41.5 1.35 M68.35 38.95 Q69.5 37.5 69.8 34.35 70.35 25.45 65.4 14.8 63.8 11.45 60.65 6.05 L56.75 -0.8 59.5 -0.8 63.55 4.75 Q65.6 7.9 67.8 12.85 70.7 18.85 72.0 23.95 73.6 30.4 72.85 35.95 72.35 39.25 70.9 40.65 L69.85 41.4 68.25 41.4 67.75 40.95 Q67.4 40.45 67.6 39.9 67.65 39.65 68.35 38.95 M52.65 40.5 L54.5 38.05 57.05 33.6 Q58.25 31.05 58.4 28.8 L58.25 25.35 57.45 20.5 Q55.8 13.6 49.45 6.0 L46.2 1.9 Q45.3 0.55 44.8 -0.8 L48.45 -0.8 52.15 3.2 Q56.2 7.5 57.95 10.4 L59.45 13.2 60.8 16.25 Q61.35 17.6 61.95 20.5 63.65 28.95 61.8 34.05 61.15 35.9 59.6 38.45 L57.6 41.4 51.75 41.4 52.65 40.5 M32.9 7.8 Q30.0 11.4 27.9 15.1 25.45 19.25 24.7 22.65 23.65 27.05 25.05 30.75 26.05 33.4 28.35 35.3 30.65 37.2 33.5 37.85 L34.7 38.05 36.25 38.15 41.1 37.85 Q43.95 37.2 46.25 35.3 48.55 33.4 49.55 30.75 50.95 27.05 49.9 22.65 49.15 19.25 46.7 15.1 44.6 11.4 41.7 7.8 L39.35 4.3 38.4 2.5 Q37.95 2.2 37.45 2.15 L37.15 2.15 Q36.6 2.2 36.2 2.5 35.85 2.85 35.25 4.3 L32.9 7.8" fill="#717171" fill-rule="evenodd" stroke="none" />
      <path d="M37.15 13.7 L37.45 13.7 37.55 13.7 37.65 13.75 37.8 13.75 37.95 13.85 38.1 13.9 38.2 13.95 38.3 14.0 38.4 14.05 38.45 14.1 38.55 14.15 38.6 14.25 38.65 14.3 38.7 14.35 38.8 14.4 38.8 14.45 38.9 14.55 38.95 14.65 39.05 14.75 39.05 14.8 39.1 14.85 39.1 14.9 39.15 14.95 39.15 15.0 39.2 15.1 39.2 15.15 39.25 15.2 39.25 15.35 39.3 15.4 39.3 15.5 39.3 15.55 39.35 15.6 39.35 15.8 39.35 15.9 39.35 16.1 39.4 16.15 39.4 16.2 39.4 16.3 39.4 16.65 39.4 16.75 39.4 16.8 39.7 16.8 39.8 16.8 40.1 16.8 40.2 16.8 40.4 16.8 40.45 16.85 40.5 16.85 40.6 16.85 40.75 16.85 40.8 16.9 40.85 16.9 40.9 16.95 41.0 16.95 41.05 16.95 41.1 17.0 41.15 17.0 41.2 17.05 41.25 17.05 41.3 17.1 41.35 17.1 41.45 17.15 41.55 17.25 41.6 17.25 41.75 17.4 41.85 17.45 41.9 17.5 41.95 17.6 42.05 17.7 42.1 17.8 42.15 17.9 42.25 18.0 42.3 18.1 42.35 18.25 42.4 18.4 42.45 18.55 42.45 18.65 42.45 18.75 42.5 19.05 42.45 19.3 42.45 19.45 42.45 19.55 42.4 19.65 42.35 19.85 42.3 19.95 42.25 20.1 42.15 20.2 42.1 20.25 42.05 20.35 42.0 20.4 41.95 20.5 41.9 20.55 41.85 20.6 41.75 20.65 41.7 20.7 41.65 20.75 41.6 20.8 41.55 20.85 41.5 20.9 41.45 20.95 41.35 20.95 41.3 21.0 41.25 21.0 41.2 21.05 41.15 21.1 41.05 21.1 41.0 21.15 40.9 21.15 40.85 21.2 40.65 21.2 40.6 21.25 40.5 21.25 40.2 21.25 40.1 21.25 39.9 21.25 39.85 21.3 39.8 21.25 39.7 21.25 39.4 21.25 39.4 21.6 39.4 21.7 39.4 22.0 39.4 22.1 39.4 22.3 39.35 22.35 39.35 22.4 39.35 22.5 39.35 22.65 39.3 22.7 39.3 22.75 39.25 22.8 39.25 22.9 39.25 22.95 39.2 23.0 39.2 23.05 39.15 23.1 39.15 23.15 39.1 23.2 39.1 23.25 39.05 23.35 38.95 23.45 38.95 23.5 38.8 23.65 38.75 23.75 38.7 23.8 38.6 23.85 38.5 23.95 38.4 24.0 38.3 24.05 38.2 24.15 38.1 24.2 37.95 24.25 37.8 24.3 37.65 24.35 37.55 24.35 37.45 24.35 37.15 24.4 36.9 24.35 36.75 24.35 36.65 24.35 36.55 24.3 36.35 24.25 36.25 24.2 36.1 24.15 36.0 24.05 35.95 24.0 35.85 23.95 35.8 23.9 35.7 23.85 35.65 23.8 35.6 23.75 35.55 23.65 35.5 23.6 35.45 23.55 35.4 23.5 35.35 23.45 35.3 23.4 35.25 23.35 35.25 23.25 35.2 23.2 35.2 23.15 35.15 23.1 35.1 23.05 35.1 22.95 35.05 22.9 35.05 22.8 35.0 22.75 35.0 22.55 34.95 22.5 34.95 22.4 34.95 22.1 34.95 22.0 34.95 21.8 34.9 21.75 34.95 21.7 34.95 21.6 34.95 21.25 34.85 21.25 34.75 21.25 34.4 21.25 34.3 21.25 34.0 21.25 33.9 21.25 33.85 21.2 33.6 21.2 33.5 21.15 33.4 21.15 33.35 21.1 33.25 21.1 33.2 21.05 33.1 21.05 33.05 21.0 33.0 21.0 32.95 20.95 32.9 20.95 32.85 20.9 32.8 20.85 32.75 20.85 32.65 20.8 32.6 20.75 32.55 20.7 32.5 20.65 32.4 20.55 32.35 20.45 32.25 20.4 32.2 20.35 32.15 20.25 32.1 20.15 32.05 20.1 32.0 19.95 31.95 19.85 31.85 19.65 31.85 19.55 31.8 19.45 31.8 19.3 31.8 19.05 31.8 18.75 31.8 18.65 31.85 18.55 31.85 18.4 31.95 18.25 32.0 18.1 32.05 18.0 32.1 17.9 32.15 17.8 32.2 17.75 32.25 17.65 32.35 17.6 32.4 17.55 32.45 17.5 32.5 17.4 32.55 17.4 32.65 17.3 32.75 17.25 32.85 17.15 32.9 17.15 32.95 17.1 33.0 17.1 33.05 17.05 33.1 17.05 33.2 17.0 33.25 17.0 33.3 16.95 33.45 16.95 33.5 16.9 33.6 16.9 33.65 16.9 33.7 16.85 33.9 16.85 34.0 16.85 34.2 16.85 34.25 16.8 34.3 16.8 34.4 16.8 34.75 16.8 34.85 16.8 34.95 16.8 34.95 16.75 34.95 16.65 34.95 16.3 34.95 16.2 34.95 15.9 34.95 15.8 35.0 15.75 35.0 15.5 35.05 15.4 35.05 15.3 35.1 15.25 35.1 15.15 35.15 15.1 35.15 15.0 35.2 14.95 35.2 14.9 35.25 14.85 35.25 14.8 35.3 14.75 35.35 14.7 35.35 14.65 35.4 14.55 35.45 14.5 35.5 14.45 35.55 14.4 35.65 14.3 35.75 14.25 35.8 14.15 35.85 14.1 35.95 14.05 36.05 14.0 36.1 13.95 36.25 13.9 36.35 13.85 36.55 13.75 36.65 13.75 36.75 13.7 36.9 13.7 37.15 13.7 M31.8 29.05 L31.8 28.75 31.8 28.65 31.85 28.55 31.85 28.4 31.95 28.25 32.0 28.1 32.05 28.0 32.1 27.9 32.15 27.8 32.2 27.75 32.25 27.65 32.35 27.6 32.4 27.55 32.45 27.5 32.5 27.4 32.55 27.4 32.65 27.3 32.75 27.25 32.85 27.15 32.9 27.15 32.95 27.1 33.0 27.1 33.05 27.05 33.1 27.05 33.2 27.0 33.25 27.0 33.3 26.95 33.45 26.95 33.5 26.9 33.6 26.9 33.65 26.9 33.7 26.85 33.9 26.85 34.0 26.85 34.2 26.85 34.25 26.8 34.3 26.8 34.4 26.8 34.75 26.8 34.85 26.8 35.15 26.8 35.25 26.8 35.55 26.8 35.65 26.8 35.95 26.8 36.05 26.8 36.4 26.8 36.5 26.8 36.8 26.8 36.9 26.8 37.2 26.8 37.3 26.8 37.6 26.8 37.7 26.8 38.05 26.8 38.15 26.8 38.45 26.8 38.55 26.8 38.85 26.8 38.95 26.8 39.25 26.8 39.35 26.8 39.7 26.8 39.8 26.8 40.1 26.8 40.2 26.8 40.4 26.8 40.45 26.85 40.5 26.85 40.6 26.85 40.75 26.85 40.8 26.9 40.85 26.9 40.9 26.95 41.0 26.95 41.05 26.95 41.1 27.0 41.15 27.0 41.2 27.05 41.25 27.05 41.3 27.1 41.35 27.1 41.45 27.15 41.55 27.25 41.6 27.25 41.75 27.4 41.85 27.45 41.9 27.5 41.95 27.6 42.05 27.7 42.1 27.8 42.15 27.9 42.25 28.0 42.3 28.1 42.35 28.25 42.4 28.4 42.45 28.55 42.45 28.65 42.45 28.75 42.5 29.05 42.45 29.3 42.45 29.45 42.45 29.55 42.4 29.65 42.35 29.85 42.3 29.95 42.25 30.1 42.15 30.2 42.1 30.25 42.05 30.35 42.0 30.4 41.95 30.5 41.9 30.55 41.85 30.6 41.75 30.65 41.7 30.7 41.65 30.75 41.6 30.8 41.55 30.85 41.5 30.9 41.45 30.95 41.35 30.95 41.3 31.0 41.25 31.0 41.2 31.05 41.15 31.1 41.05 31.1 41.0 31.15 40.9 31.15 40.85 31.2 40.65 31.2 40.6 31.25 40.5 31.25 40.2 31.25 40.1 31.25 39.9 31.25 39.85 31.3 39.8 31.25 39.7 31.25 39.35 31.25 39.25 31.25 38.95 31.25 38.85 31.25 38.55 31.25 38.45 31.25 38.15 31.25 38.05 31.25 37.7 31.25 37.6 31.25 37.3 31.25 37.2 31.25 36.9 31.25 36.8 31.25 36.5 31.25 36.4 31.25 36.05 31.25 35.95 31.25 35.65 31.25 35.55 31.25 35.25 31.25 35.15 31.25 34.85 31.25 34.75 31.25 34.4 31.25 34.3 31.25 34.0 31.25 33.9 31.25 33.85 31.2 33.6 31.2 33.5 31.15 33.4 31.15 33.35 31.1 33.25 31.1 33.2 31.05 33.1 31.05 33.05 31.0 33.0 31.0 32.95 30.95 32.9 30.95 32.85 30.9 32.8 30.85 32.75 30.85 32.65 30.8 32.6 30.75 32.55 30.7 32.5 30.65 32.4 30.55 32.35 30.45 32.25 30.4 32.2 30.35 32.15 30.25 32.1 30.15 32.05 30.1 32.0 29.95 31.95 29.85 31.85 29.65 31.85 29.55 31.8 29.45 31.8 29.3 31.8 29.05" fill="#ffffff" fill-rule="evenodd" stroke="none" />
    </g>
    <g id="shape2">
      <path d="M-0.5 -0.4 L-0.5 -0.55 75.1 -0.55 75.1 -0.4 75.1 40.8 -0.5 40.8 -0.5 -0.4 Z" fill="none" stroke="#000000" stroke-linecap="round" stroke-linejoin="round" stroke-width="3.0" />
    </g>
  </defs>
</svg>