<svg xmlns="http://www.w3.org/2000/svg" xmlns:ffdec="https://www.free-decompiler.com/flash" xmlns:xlink="http://www.w3.org/1999/xlink" ffdec:objectType="frame" viewBox="39.95 7.40 75.60 41.35">
  <g transform="matrix(1.0, 0.0, 0.0, 1.0, 40.45, 7.95)">
    <use ffdec:characterId="1" height="42.7" transform="matrix(1.0, 0.0, 0.0, 1.0, 0.0, 0.0)" width="76.45" xlink:href="#shape0" />
    <use ffdec:characterId="387" height="41.35" transform="matrix(1.0, 0.0, 0.0, 1.0, 0.0, 0.0)" width="75.6" xlink:href="#shape1" />
    <use ffdec:characterId="3" height="44.35" transform="matrix(1.0, 0.0, 0.0, 1.0, 0.0, 0.0)" width="78.6" xlink:href="#shape2" />
  </g>
  <defs>
    <g id="shape0">
      <path d="M2.8 0.0 L2.8 -0.4 5.4 -0.4 5.4 0.0 9.7 0.0 9.7 19.45 9.7 0.0 20.55 0.0 19.3 19.45 9.7 19.45 0.25 19.45 0.25 0.0 2.8 0.0" fill="#ffffff" fill-rule="evenodd" stroke="none" />
      <path d="M0.25 19.45 L9.7 19.45 19.3 19.45 18.7 28.6 16.0 28.5 10.95 27.95 9.7 27.8 Q7.45 27.6 5.85 27.75 4.05 27.9 1.5 28.6 0.75 28.8 0.25 29.15 L0.25 19.45 M9.7 19.45 L9.7 27.8 9.7 19.45" fill="#121212" fill-rule="evenodd" stroke="none" />
      <path d="M9.7 27.8 L10.95 27.95 16.0 28.5 18.7 28.6 19.75 28.6 23.5 28.75 Q25.95 29.05 27.1 30.0 27.7 30.5 27.7 31.1 27.7 31.75 26.9 32.1 L25.6 32.3 18.45 32.45 12.85 32.15 9.7 31.75 7.95 31.6 3.1 31.95 0.95 32.3 0.25 32.1 -0.35 31.55 -0.5 31.3 -0.5 29.9 0.25 29.15 Q0.75 28.8 1.5 28.6 4.05 27.9 5.85 27.75 7.45 27.6 9.7 27.8 L9.7 31.75 9.7 27.8" fill="#999999" fill-rule="evenodd" stroke="none" />
      <path d="M2.8 0.0 L0.25 0.0 M9.7 0.0 L5.4 0.0 M21.55 0.0 L32.25 0.0 M20.55 0.0 L9.7 0.0" fill="none" stroke="#666666" stroke-linecap="round" stroke-linejoin="round" stroke-width="4.0" />
      <path d="M9.7 -0.4 L74.7 -0.4 74.7 40.5 47.05 40.5 45.5 40.7 27.0 40.65 25.95 40.5 9.7 40.5 -0.5 40.5 -0.5 -0.4 9.7 -0.4 9.7 40.5 9.7 -0.4" fill="#ffffff" fill-rule="evenodd" stroke="none" />
    </g>
    <g id="shape1">
      <path d="M24.9 37.35 Q27.9 38.6 30.1 39.05 L35.5 39.65 Q46.1 40.05 51.35 35.75 54.75 32.95 56.2 28.25 57.5 23.9 56.9 19.05 56.55 16.45 55.9 14.95 L55.65 14.35 59.25 5.3 59.45 4.5 Q59.65 3.35 59.05 2.7 58.5 2.05 57.3 2.25 L55.55 2.95 55.0 3.2 53.35 3.8 51.9 4.3 49.4 5.3 48.35 5.8 Q46.7 4.55 45.1 3.85 L43.3 3.2 Q40.65 2.4 37.5 2.45 L34.7 2.65 Q30.05 3.25 26.4 5.55 L25.15 4.9 22.45 3.5 20.8 2.75 18.65 2.0 17.45 1.9 17.0 2.05 16.65 2.3 16.25 2.8 16.05 4.0 16.4 6.35 16.65 7.3 17.5 10.45 17.75 10.95 18.15 12.55 18.65 13.65 18.65 13.75 18.7 13.85 18.85 14.4 Q16.7 19.2 16.7 24.6 16.7 30.8 19.6 33.95 21.2 35.75 24.9 37.35 M-0.5 -0.55 L75.1 -0.55 75.1 40.8 -0.5 40.8 -0.5 -0.55" fill="#999999" fill-rule="evenodd" stroke="none" />
      <path d="M24.9 37.35 Q21.2 35.75 19.6 33.95 16.7 30.8 16.7 24.6 16.7 19.2 18.85 14.4 L18.7 13.85 18.65 13.75 18.65 13.65 18.15 12.55 17.75 10.95 17.5 10.45 16.65 7.3 16.4 6.35 16.05 4.0 16.25 2.8 16.65 2.3 17.0 2.05 17.45 1.9 18.65 2.0 20.8 2.75 22.45 3.5 25.15 4.9 26.4 5.55 Q30.05 3.25 34.7 2.65 L37.5 2.45 Q40.65 2.4 43.3 3.2 L45.1 3.85 Q46.7 4.55 48.35 5.8 L49.4 5.3 51.9 4.3 53.35 3.8 55.0 3.2 55.55 2.95 57.3 2.25 Q58.5 2.05 59.05 2.7 59.65 3.35 59.45 4.5 L59.25 5.3 55.65 14.35 55.9 14.95 Q56.55 16.45 56.9 19.05 57.5 23.9 56.2 28.25 54.75 32.95 51.35 35.75 46.1 40.05 35.5 39.65 L30.1 39.05 Q27.9 38.6 24.9 37.35" fill="#ffffff" fill-rule="evenodd" stroke="none" />
      <path d="M46.7 18.15 L46.6 18.1 44.5 16.75 43.3 16.2 Q42.6 15.95 42.25 15.4 41.7 14.5 42.3 13.55 42.85 12.65 44.0 12.65 L45.1 12.9 Q46.35 13.35 47.65 14.65 L48.1 15.1 48.5 15.5 48.7 15.7 48.95 15.9 49.5 16.05 50.5 16.1 51.3 16.35 51.55 16.95 51.55 17.2 51.35 17.6 50.2 18.3 50.15 18.3 48.95 18.55 Q47.7 18.65 46.7 18.15 M29.4 31.3 L29.25 31.25 Q26.95 30.9 26.5 29.1 L26.4 27.7 Q26.4 26.7 26.65 26.0 L27.2 24.95 Q29.15 22.0 32.2 20.55 33.95 19.7 35.4 19.75 35.4 18.35 35.65 17.9 35.9 17.45 36.3 17.25 L36.9 17.15 37.45 17.25 38.1 17.9 38.35 19.75 Q39.8 19.7 41.55 20.55 44.6 22.0 46.55 24.95 L47.1 26.0 47.35 27.7 47.25 29.1 Q46.8 30.9 44.5 31.25 L42.95 31.2 Q42.15 30.95 41.1 30.1 L39.45 28.65 Q38.25 27.95 37.0 27.9 L36.75 27.9 34.85 28.4 34.3 28.65 32.65 30.1 Q31.6 30.95 30.8 31.2 L29.4 31.3 M25.7 15.05 L26.1 14.65 Q27.4 13.35 28.65 12.9 L29.75 12.65 Q30.9 12.65 31.45 13.55 32.05 14.5 31.5 15.4 L30.45 16.2 29.25 16.75 27.3 18.05 27.15 18.1 23.6 18.3 22.4 17.6 22.2 16.95 Q22.2 16.55 22.45 16.35 L23.25 16.1 24.25 16.05 24.8 15.9 25.25 15.5 25.7 15.05" fill="#000000" fill-rule="evenodd" stroke="none" />
      <path d="M52.75 12.8 Q52.9 13.25 52.65 13.75 L51.95 14.35 51.05 14.25 Q50.55 14.0 50.4 13.55 50.2 13.05 50.45 12.55 50.7 12.05 51.25 11.9 51.8 11.75 52.3 12.15 52.7 12.4 52.75 12.8 M48.1 15.1 L50.1 14.8 Q51.5 14.9 52.15 15.5 52.9 16.25 52.75 17.45 52.6 18.45 51.8 19.2 L52.15 20.05 52.0 21.3 51.15 22.25 49.95 22.55 Q49.3 22.55 48.75 22.15 47.55 21.3 47.9 19.9 L47.95 19.75 47.05 18.9 46.7 18.15 Q47.7 18.65 48.95 18.55 L50.15 18.3 50.2 18.3 51.35 17.6 51.55 17.2 51.55 16.95 51.3 16.35 50.5 16.1 49.5 16.05 48.95 15.9 48.7 15.7 48.5 15.5 48.1 15.1 M29.4 31.3 L30.8 31.2 Q31.6 30.95 32.65 30.1 L34.3 28.65 34.85 28.4 34.8 29.75 34.25 31.35 33.2 32.3 Q31.9 33.0 30.8 32.65 29.6 32.25 29.4 31.3 M27.3 18.05 L27.25 18.1 26.2 19.55 25.2 20.2 25.2 20.95 24.6 21.95 Q24.15 22.3 23.5 22.35 22.9 22.35 22.4 22.0 21.65 21.4 21.65 20.5 21.7 20.1 21.9 19.8 L21.2 18.95 Q20.7 18.0 21.05 17.1 21.4 16.1 22.5 15.5 23.55 14.85 24.7 14.85 L25.7 15.05 25.25 15.5 24.8 15.9 24.25 16.05 23.25 16.1 22.45 16.35 Q22.2 16.55 22.2 16.95 L22.4 17.6 23.6 18.3 27.15 18.1 27.3 18.05 M18.8 20.8 Q18.75 20.6 18.85 20.35 18.95 19.95 19.35 19.7 19.7 19.4 20.15 19.45 L20.9 19.8 21.2 20.6 21.0 21.4 20.3 21.85 19.45 21.75 18.9 21.15 18.8 20.8 M29.3 34.35 L29.35 33.85 29.8 33.2 31.5 33.1 Q32.4 33.65 32.15 34.6 32.0 35.65 30.95 35.8 29.95 35.9 29.45 35.05 29.3 34.75 29.3 34.35" fill="#999999" fill-rule="evenodd" stroke="none" />
      <path d="M66.35 20.7 Q67.9 20.45 69.15 20.7 70.65 21.05 71.6 22.05 72.6 23.1 72.55 24.35 72.35 25.95 71.05 26.25 70.1 26.4 69.25 25.85 L67.95 24.55 Q67.5 23.9 67.1 23.8 L66.45 23.85 65.05 24.4 63.75 24.4 Q61.9 24.05 60.85 23.0 L60.45 22.35 Q60.3 21.85 60.6 21.45 60.9 21.05 61.4 21.05 L62.15 21.2 64.0 21.9 Q64.65 21.1 66.35 20.7 M61.7 13.2 L61.9 12.65 Q62.7 10.45 65.1 9.85 L66.85 9.7 68.0 9.8 Q68.5 9.95 68.85 10.25 L69.7 11.15 Q70.25 12.2 69.8 13.3 69.3 14.4 68.15 14.65 67.25 14.85 65.55 14.25 L65.15 14.15 64.85 14.5 Q64.05 15.7 62.85 16.2 L60.3 16.25 Q59.5 16.0 59.25 15.45 58.85 14.65 59.45 14.25 L60.85 14.2 61.15 14.2 61.3 14.0 61.7 13.2 M59.75 28.4 L60.6 28.25 Q61.05 28.3 61.3 28.65 L61.7 29.3 Q62.05 29.75 63.25 29.85 L64.3 29.9 Q65.85 30.0 66.5 30.4 L67.55 31.25 68.0 31.85 68.1 32.4 68.15 33.6 68.1 34.2 67.5 34.9 66.45 35.45 Q65.55 35.6 64.6 34.9 L63.3 33.45 63.05 33.15 62.7 32.95 61.6 32.55 60.5 32.0 59.95 31.4 Q59.65 31.05 59.5 30.55 L59.25 29.4 Q59.35 28.75 59.75 28.4 M12.7 13.2 L13.1 14.0 13.25 14.2 13.55 14.2 14.95 14.25 Q15.55 14.65 15.15 15.45 L14.1 16.25 11.55 16.2 Q10.35 15.7 9.55 14.5 L9.25 14.15 8.85 14.25 Q7.15 14.85 6.25 14.65 5.1 14.4 4.6 13.3 4.15 12.2 4.7 11.15 L5.55 10.25 Q5.9 9.95 6.4 9.8 L7.55 9.7 9.3 9.85 Q11.7 10.45 12.5 12.65 L12.7 13.2 M8.05 20.7 Q9.75 21.1 10.4 21.9 L12.25 21.2 13.0 21.05 Q13.5 21.05 13.8 21.45 14.1 21.85 13.95 22.35 L13.55 23.0 Q12.5 24.05 10.65 24.4 L9.35 24.4 7.95 23.85 7.3 23.8 Q6.9 23.9 6.45 24.55 L5.15 25.85 Q4.3 26.4 3.35 26.25 2.05 25.95 1.85 24.35 1.8 23.1 2.8 22.05 3.75 21.05 5.25 20.7 6.5 20.45 8.05 20.7 M14.65 28.4 L15.15 29.4 14.9 30.55 14.45 31.4 13.9 32.0 12.8 32.55 11.7 32.95 11.35 33.15 11.1 33.45 9.8 34.9 Q8.85 35.6 7.95 35.45 L6.9 34.9 6.3 34.2 6.25 33.6 6.3 32.4 6.4 31.85 6.85 31.25 7.9 30.4 Q8.55 30.0 10.1 29.9 L11.15 29.85 Q12.35 29.75 12.7 29.3 L13.1 28.65 Q13.35 28.3 13.8 28.25 L14.65 28.4" fill="#ffffff" fill-rule="evenodd" stroke="none" />
    </g>
    <g id="shape2">
      <path d="M-0.5 -0.4 L-0.5 -0.55 75.1 -0.55 75.1 -0.4 75.1 40.8 -0.5 40.8 -0.5 -0.4 Z" fill="none" stroke="#000000" stroke-linecap="round" stroke-linejoin="round" stroke-width="3.0" />
    </g>
  </defs>
</svg>