<svg xmlns="http://www.w3.org/2000/svg" xmlns:ffdec="https://www.free-decompiler.com/flash" xmlns:xlink="http://www.w3.org/1999/xlink" ffdec:objectType="frame" viewBox="39.95 7.40 75.60 41.35">
  <g transform="matrix(1.0, 0.0, 0.0, 1.0, 40.45, 7.95)">
    <use ffdec:characterId="1" height="42.7" transform="matrix(1.0, 0.0, 0.0, 1.0, 0.0, 0.0)" width="76.45" xlink:href="#shape0" />
    <use ffdec:characterId="481" height="42.55" transform="matrix(1.0, 0.0, 0.0, 1.0, 0.0, 0.0)" width="75.45" xlink:href="#shape1" />
    <use ffdec:characterId="3" height="44.35" transform="matrix(1.0, 0.0, 0.0, 1.0, 0.0, 0.0)" width="78.6" xlink:href="#shape2" />
  </g>
  <defs>
    <g id="shape0">
      <path d="M2.8 0.0 L2.8 -0.4 5.4 -0.4 5.4 0.0 9.7 0.0 9.7 19.45 9.7 0.0 20.55 0.0 19.3 19.45 9.7 19.45 0.25 19.45 0.25 0.0 2.8 0.0" fill="#ffffff" fill-rule="evenodd" stroke="none" />
      <path d="M0.25 19.45 L9.7 19.45 19.3 19.45 18.7 28.6 16.0 28.5 10.95 27.95 9.7 27.8 Q7.45 27.6 5.85 27.75 4.05 27.9 1.5 28.6 0.75 28.8 0.25 29.15 L0.25 19.45 M9.7 19.45 L9.7 27.8 9.7 19.45" fill="#121212" fill-rule="evenodd" stroke="none" />
      <path d="M9.7 27.8 L10.95 27.95 16.0 28.5 18.7 28.6 19.75 28.6 23.5 28.75 Q25.95 29.05 27.1 30.0 27.7 30.5 27.7 31.1 27.7 31.75 26.9 32.1 L25.6 32.3 18.45 32.45 12.85 32.15 9.7 31.75 7.95 31.6 3.1 31.95 0.95 32.3 0.25 32.1 -0.35 31.55 -0.5 31.3 -0.5 29.9 0.25 29.15 Q0.75 28.8 1.5 28.6 4.05 27.9 5.85 27.75 7.45 27.6 9.7 27.8 L9.7 31.75 9.7 27.8" fill="#999999" fill-rule="evenodd" stroke="none" />
      <path d="M2.8 0.0 L0.25 0.0 M9.7 0.0 L5.4 0.0 M21.55 0.0 L32.25 0.0 M20.55 0.0 L9.7 0.0" fill="none" stroke="#666666" stroke-linecap="round" stroke-linejoin="round" stroke-width="4.0" />
      <path d="M9.7 -0.4 L74.7 -0.4 74.7 40.5 47.05 40.5 45.5 40.7 27.0 40.65 25.95 40.5 9.7 40.5 -0.5 40.5 -0.5 -0.4 9.7 -0.4 9.7 40.5 9.7 -0.4" fill="#ffffff" fill-rule="evenodd" stroke="none" />
    </g>
    <g id="shape1">
      <path d="M0.25 0.0 L74.7 0.0 74.7 40.0 0.25 40.0 0.25 0.0" fill="#717171" fill-rule="evenodd" stroke="none" />
      <path d="M0.25 0.0 L74.7 0.0 74.7 40.0 0.25 40.0 0.25 0.0 Z" fill="none" stroke="#999999" stroke-linecap="round" stroke-linejoin="round" stroke-width="1.0" />
      <path d="M54.6 8.65 L55.95 9.95 57.25 12.1 57.85 13.3 58.25 13.35 60.75 14.35 61.5 14.75 62.8 15.55 Q63.5 16.15 63.6 16.75 63.8 17.5 63.25 18.4 L62.0 19.65 58.85 21.7 58.45 21.9 Q58.8 22.8 58.4 24.3 57.65 27.1 56.5 28.4 L55.85 29.3 55.65 30.6 Q55.55 31.7 54.9 33.15 L54.05 34.65 52.8 35.65 51.15 36.6 Q48.3 38.1 45.55 37.9 L41.4 36.8 39.7 35.95 37.95 34.15 36.9 32.7 36.4 31.4 36.15 31.8 Q34.2 35.2 33.3 37.7 32.65 39.5 32.2 39.95 L31.65 40.45 7.35 40.45 Q7.65 39.75 8.45 38.95 L10.4 37.1 10.8 36.65 Q11.25 36.25 12.75 35.2 L15.35 33.25 17.95 31.25 21.1 29.25 25.9 26.45 Q28.2 25.25 31.0 24.2 L28.75 23.65 27.3 23.25 25.6 23.1 20.6 23.3 18.4 23.9 Q17.8 24.1 16.95 24.55 15.15 25.55 14.2 27.5 L12.95 30.4 11.65 32.0 10.0 33.35 Q8.8 34.05 7.1 34.05 L5.6 33.8 Q4.7 33.45 4.25 32.55 3.8 31.65 3.95 30.65 4.25 28.7 6.2 27.7 L7.95 26.95 9.55 25.95 10.2 25.1 Q11.25 23.45 13.0 22.2 15.55 20.3 19.2 19.55 L26.0 19.25 27.9 19.5 34.95 22.25 Q34.55 21.05 34.45 19.75 34.2 16.95 35.2 14.4 L36.1 12.55 35.3 10.95 34.8 9.95 34.2 8.3 Q34.0 7.2 34.5 6.6 34.9 5.9 35.95 5.65 L39.7 5.15 45.55 5.4 46.15 5.6 Q48.65 5.35 51.0 6.35 52.65 7.05 54.6 8.65 M52.3 21.8 Q53.25 22.55 54.5 22.45 55.65 22.4 56.6 21.45 L57.0 20.9 55.9 19.9 Q54.9 18.35 55.2 16.45 L55.45 15.35 54.4 15.15 53.4 15.25 Q52.8 15.35 52.3 15.75 51.35 16.5 50.95 17.65 50.55 18.8 50.95 19.95 L51.15 20.4 51.4 20.8 52.3 21.8 M45.5 26.75 L45.9 26.1 47.15 24.1 48.35 22.05 48.75 20.75 48.95 19.45 Q49.1 18.4 48.9 17.85 L48.95 17.75 49.05 17.45 49.3 17.1 49.45 17.0 49.6 16.8 49.8 16.35 49.8 16.05 49.75 15.9 49.5 15.75 49.15 15.7 49.05 15.85 48.1 16.8 Q46.4 17.0 44.25 18.0 L44.0 18.1 Q41.5 19.55 40.2 20.9 L39.45 21.9 Q39.15 22.55 39.3 23.1 39.55 24.15 40.7 24.35 L42.7 24.1 43.1 24.0 43.4 24.25 43.65 25.3 Q43.6 26.1 43.7 26.4 L44.5 27.05 Q45.1 27.15 45.5 26.75 M44.7 9.0 Q42.8 8.9 41.65 10.2 40.75 11.25 40.75 12.7 L40.9 13.95 41.1 14.5 41.45 14.35 43.45 14.05 44.5 14.1 45.35 14.2 46.05 14.45 46.7 14.85 47.05 15.25 Q48.5 14.1 48.4 12.35 L48.25 11.35 Q47.8 10.3 46.85 9.65 45.8 9.0 44.7 9.0 M51.3 28.85 L47.85 29.4 Q43.15 29.7 40.95 28.6 L39.45 27.6 39.3 28.8 Q39.3 30.15 39.85 31.05 L40.8 32.15 41.6 32.8 42.4 33.05 45.3 33.55 48.1 33.25 49.55 32.55 50.55 31.8 Q51.15 31.15 51.25 29.75 L51.3 28.85" fill="#000000" fill-rule="evenodd" stroke="none" />
      <path d="M44.7 9.0 Q45.8 9.0 46.85 9.65 47.8 10.3 48.25 11.35 L48.4 12.35 Q48.5 14.1 47.05 15.25 L46.7 14.85 46.05 14.45 45.35 14.2 44.5 14.1 43.45 14.05 41.45 14.35 41.1 14.5 40.9 13.95 40.75 12.7 Q40.75 11.25 41.65 10.2 42.8 8.9 44.7 9.0 M45.5 26.75 Q45.1 27.15 44.5 27.05 L43.7 26.4 Q43.6 26.1 43.65 25.3 L43.4 24.25 43.1 24.0 42.7 24.1 40.7 24.35 Q39.55 24.15 39.3 23.1 39.15 22.55 39.45 21.9 L40.2 20.9 Q41.5 19.55 44.0 18.1 L44.25 18.0 Q46.4 17.0 48.1 16.8 L49.05 15.85 49.15 15.7 49.5 15.75 49.75 15.9 49.8 16.05 49.8 16.35 49.6 16.8 49.45 17.0 49.3 17.1 49.05 17.45 48.95 17.75 48.9 17.85 Q49.1 18.4 48.95 19.45 L48.75 20.75 48.35 22.05 47.15 24.1 45.9 26.1 45.5 26.75 M52.3 21.8 L51.4 20.8 51.15 20.4 50.95 19.95 Q50.55 18.8 50.95 17.65 51.35 16.5 52.3 15.75 52.8 15.35 53.4 15.25 L54.4 15.15 55.45 15.35 55.2 16.45 Q54.9 18.35 55.9 19.9 L57.0 20.9 56.6 21.45 Q55.65 22.4 54.5 22.45 53.25 22.55 52.3 21.8" fill="#717171" fill-rule="evenodd" stroke="none" />
      <path d="M44.6 6.0 Q44.45 5.9 44.45 5.6 L44.35 5.15 44.05 4.85 43.6 3.95 43.2 3.55 42.8 4.3 Q42.55 4.75 42.6 5.1 L42.7 5.5 42.7 5.8 42.85 6.15 42.95 6.65 42.8 7.15 42.65 7.5 Q42.45 7.75 42.2 7.5 L41.85 6.95 41.45 6.2 41.2 5.9 41.05 5.25 41.0 4.55 40.85 4.05 41.05 2.65 41.2 2.35 41.85 0.75 42.1 0.05 Q42.25 -0.35 42.7 -0.55 L43.55 -0.35 44.9 1.95 Q45.8 3.6 45.9 4.2 L45.95 5.0 45.9 5.65 45.75 6.05 45.75 6.5 45.45 7.2 44.75 8.35 44.3 8.7 43.85 8.75 Q43.45 8.75 43.3 8.5 L43.35 8.1 43.65 7.8 Q44.45 7.0 44.6 6.0 M55.55 4.75 L55.6 3.8 55.65 3.55 55.65 3.25 55.6 2.8 55.65 2.7 55.6 2.65 55.65 2.35 55.65 2.1 55.75 1.15 55.7 0.9 Q55.65 0.4 55.95 -0.1 L56.2 -0.3 56.65 -0.45 56.75 -0.5 Q57.6 -0.4 57.75 0.35 58.0 0.8 57.8 1.85 L57.7 2.45 57.65 2.5 57.35 3.0 57.2 3.2 56.65 3.55 56.5 3.8 56.3 4.6 56.3 4.9 56.2 5.1 56.1 5.4 55.85 5.55 55.75 5.5 55.7 5.15 55.6 5.0 55.55 4.75 M61.6 7.5 L62.0 6.35 62.5 5.65 63.3 4.8 63.7 4.45 63.95 4.4 64.1 4.6 64.0 4.9 63.75 5.3 63.25 6.3 63.05 7.2 Q63.05 7.8 63.2 8.25 L64.1 10.3 64.15 10.7 64.1 11.1 63.95 11.65 63.8 12.0 63.15 12.55 Q62.95 12.85 62.7 12.75 L62.35 11.45 62.05 10.8 61.65 9.55 61.6 8.8 Q61.45 8.1 61.6 7.5 M57.45 16.1 L58.85 14.8 Q59.5 13.8 59.35 13.0 L58.45 11.05 Q57.7 9.65 57.5 8.35 56.5 9.8 56.85 11.6 L57.25 13.55 Q57.25 14.85 56.3 15.15 L55.65 15.15 55.15 14.7 54.85 13.55 54.35 11.55 Q54.25 10.7 54.7 9.5 55.25 8.0 56.55 6.45 L59.05 3.75 59.9 2.7 Q60.4 1.85 60.65 1.8 61.15 1.6 61.4 2.05 L61.7 2.85 61.5 3.8 60.7 4.8 59.85 5.8 Q59.45 6.7 59.7 7.85 L60.45 9.85 Q61.25 12.0 61.0 13.6 60.75 15.8 59.1 16.75 L57.75 17.2 57.2 17.05 56.95 16.6 Q57.0 16.3 57.45 16.1 M68.2 23.45 Q66.9 25.15 66.6 26.2 66.2 27.65 66.7 28.95 L67.65 30.55 68.15 31.15 68.75 31.7 69.75 33.05 70.05 32.25 70.2 31.55 Q70.35 30.45 70.0 29.45 L69.55 28.15 69.55 27.15 Q69.8 25.65 70.6 24.8 L71.1 24.5 71.4 24.6 71.5 24.85 71.25 25.2 71.0 25.75 70.95 26.35 Q70.95 27.0 71.25 27.5 L71.8 28.4 Q72.45 29.65 72.2 31.85 L72.2 32.0 72.2 34.85 71.7 37.05 70.95 39.3 70.4 40.0 Q69.85 40.55 69.35 40.35 L69.2 40.25 Q68.65 40.35 68.65 40.0 68.65 39.75 68.9 39.6 69.75 38.65 69.8 37.8 L69.45 36.35 69.2 35.4 Q68.9 34.5 67.75 33.55 66.25 32.4 65.9 32.05 64.75 30.85 64.45 29.2 63.95 30.0 64.4 31.1 L65.35 32.8 Q65.95 34.0 65.85 35.4 65.75 36.75 65.05 37.9 64.55 38.8 64.5 39.25 L64.6 40.65 Q64.5 41.5 63.8 41.8 L62.4 41.65 61.8 40.75 Q61.5 39.75 61.9 38.65 L62.85 36.8 63.55 35.5 63.2 33.95 62.45 32.55 Q61.7 30.9 62.25 28.55 63.0 24.95 65.35 23.05 L67.15 21.65 68.6 21.0 69.4 20.8 Q69.9 20.8 70.05 21.25 70.2 21.6 69.8 22.0 L69.1 22.5 68.2 23.45 M46.75 3.3 L46.65 2.65 46.7 2.6 46.8 2.0 46.95 1.7 47.2 1.5 47.25 1.5 47.25 1.45 47.5 1.65 47.45 2.05 47.4 2.8 47.4 3.0 47.5 3.1 48.1 3.5 48.35 3.85 48.8 4.5 48.85 4.75 48.9 5.35 48.85 6.05 48.55 6.75 47.9 7.15 47.6 7.1 Q46.8 6.85 46.9 6.05 L46.95 5.75 46.85 4.7 46.85 4.25 46.75 4.05 46.8 3.5 46.75 3.3 M59.9 32.5 L60.05 30.65 60.1 30.6 Q60.1 30.0 60.25 29.9 L60.45 29.7 60.65 29.5 60.7 29.5 60.75 29.45 61.15 29.65 61.15 30.0 61.05 30.3 60.95 31.95 61.4 32.6 61.85 33.1 62.45 33.95 62.55 34.4 62.45 34.8 62.1 35.1 61.8 35.2 61.15 34.9 60.9 34.55 60.65 34.2 60.4 33.9 60.3 33.55 59.95 32.95 59.9 32.5 M70.65 34.95 L70.7 35.0 70.7 34.95 70.65 34.95 M22.7 17.4 L22.85 18.0 22.85 19.1 22.6 19.8 22.15 20.5 Q21.55 21.1 20.8 20.95 19.95 20.85 19.65 20.15 19.2 19.3 19.85 18.45 L20.1 18.1 20.15 17.75 19.95 17.5 19.75 17.0 19.65 15.8 19.7 15.15 Q19.75 14.7 20.15 13.8 L20.5 13.2 21.05 12.55 Q21.35 12.15 21.65 12.1 L22.1 12.3 Q22.35 12.5 22.2 12.8 L22.0 13.15 21.55 13.85 21.25 14.5 21.1 14.85 21.1 15.1 21.55 15.85 22.45 16.9 22.7 17.4 M11.8 11.65 Q10.7 13.25 10.75 14.6 10.75 15.25 11.15 16.35 L11.7 17.75 12.45 19.15 13.2 20.55 Q13.95 22.4 13.5 24.45 13.1 26.45 11.55 27.85 10.65 28.65 9.9 28.65 L9.5 28.5 Q9.25 28.25 9.6 27.75 L10.95 24.85 Q11.2 23.35 10.3 21.45 9.15 19.4 8.75 18.35 L8.35 16.95 8.15 17.4 Q7.15 20.5 7.75 23.1 L8.6 25.65 8.7 27.3 Q8.45 28.3 7.6 28.45 6.6 28.7 6.0 27.55 5.7 26.95 5.5 25.65 L5.05 23.75 Q4.75 22.65 4.75 21.85 L4.85 20.3 Q5.55 15.25 8.05 12.35 L9.7 10.5 10.95 9.1 11.25 8.05 11.6 6.45 11.95 6.1 12.3 6.3 Q13.4 7.3 13.0 9.2 L12.4 10.75 11.8 11.65 M17.7 15.3 L17.65 15.2 17.65 15.05 17.6 14.8 17.6 14.6 17.65 14.45 17.65 14.3 17.7 14.2 17.75 14.2 17.75 13.95 17.8 13.8 17.85 13.8 18.0 13.55 18.2 13.4 18.5 13.35 18.5 13.3 18.85 13.4 19.05 13.65 19.1 13.65 19.15 13.85 19.2 13.95 19.2 14.1 19.15 14.2 19.05 14.5 18.7 14.85 18.45 15.35 18.4 15.35 18.35 15.65 18.4 15.7 18.35 15.8 18.35 16.0 18.35 16.4 18.3 16.5 18.2 16.5 18.05 16.35 18.0 16.35 17.95 16.1 17.9 16.0 17.9 15.9 17.85 15.85 17.85 15.75 17.8 15.5 17.75 15.5 17.7 15.3 M14.3 15.25 L14.2 16.1 14.2 16.45 14.1 16.95 14.1 17.5 14.4 19.3 14.5 19.6 Q14.5 20.0 14.1 20.0 L13.6 19.75 13.3 19.3 12.7 18.0 12.25 16.5 12.15 15.5 12.55 13.55 12.85 13.05 13.6 12.65 14.4 12.85 14.75 13.6 14.45 14.7 14.3 15.25 M15.65 32.4 L15.55 31.15 15.65 29.7 15.8 28.8 16.1 27.85 16.35 27.2 16.95 26.1 17.3 25.75 Q17.45 25.6 17.75 25.6 18.2 25.6 18.35 25.95 L18.35 26.65 18.1 27.1 18.1 27.4 18.2 28.45 Q18.25 29.4 18.75 30.35 L19.0 30.9 19.1 31.55 19.15 32.25 19.05 33.05 18.9 33.55 18.65 33.75 17.9 33.9 17.65 33.4 17.85 32.55 17.9 32.1 17.75 31.55 17.15 30.7 17.15 32.15 16.85 33.0 16.45 33.15 16.0 33.0 Q15.75 32.8 15.65 32.4 M13.25 32.8 L13.4 31.65 13.65 31.35 13.7 31.15 13.95 31.0 14.25 31.1 14.3 31.25 14.2 31.55 14.2 31.75 14.25 32.35 14.3 32.55 14.6 32.85 14.9 33.25 15.1 33.45 15.3 33.8 15.4 34.95 15.3 35.4 15.15 35.5 14.6 36.05 13.8 36.05 13.5 35.85 13.35 35.7 13.2 35.3 13.25 34.6 13.3 34.4 13.25 34.25 13.25 34.1 13.2 34.0 13.25 33.95 13.2 33.9 13.25 33.85 13.2 33.65 13.3 33.4 13.25 33.2 13.3 33.15 13.25 33.1 13.3 33.05 13.25 32.8" fill="#ffffff" fill-rule="evenodd" stroke="none" />
    </g>
    <g id="shape2">
      <path d="M-0.5 -0.4 L-0.5 -0.55 75.1 -0.55 75.1 -0.4 75.1 40.8 -0.5 40.8 -0.5 -0.4 Z" fill="none" stroke="#000000" stroke-linecap="round" stroke-linejoin="round" stroke-width="3.0" />
    </g>
  </defs>
</svg>