<svg xmlns="http://www.w3.org/2000/svg" xmlns:ffdec="https://www.free-decompiler.com/flash" xmlns:xlink="http://www.w3.org/1999/xlink" ffdec:objectType="frame" viewBox="39.95 7.40 75.60 41.35">
  <g transform="matrix(1.0, 0.0, 0.0, 1.0, 40.45, 7.95)">
    <use ffdec:characterId="1" height="42.7" transform="matrix(1.0, 0.0, 0.0, 1.0, 0.0, 0.0)" width="76.45" xlink:href="#shape0" />
    <use ffdec:characterId="425" height="41.4" transform="matrix(1.0, 0.0, 0.0, 1.0, 0.0, 0.0)" width="75.6" xlink:href="#shape1" />
    <use ffdec:characterId="3" height="44.35" transform="matrix(1.0, 0.0, 0.0, 1.0, 0.0, 0.0)" width="78.6" xlink:href="#shape2" />
  </g>
  <defs>
    <g id="shape0">
      <path d="M2.8 0.0 L2.8 -0.4 5.4 -0.4 5.4 0.0 9.7 0.0 9.7 19.45 9.7 0.0 20.55 0.0 19.3 19.45 9.7 19.45 0.25 19.45 0.25 0.0 2.8 0.0" fill="#ffffff" fill-rule="evenodd" stroke="none" />
      <path d="M0.25 19.45 L9.7 19.45 19.3 19.45 18.7 28.6 16.0 28.5 10.95 27.95 9.7 27.8 Q7.45 27.6 5.85 27.75 4.05 27.9 1.5 28.6 0.75 28.8 0.25 29.15 L0.25 19.45 M9.7 19.45 L9.7 27.8 9.7 19.45" fill="#121212" fill-rule="evenodd" stroke="none" />
      <path d="M9.7 27.8 L10.95 27.95 16.0 28.5 18.7 28.6 19.75 28.6 23.5 28.75 Q25.95 29.05 27.1 30.0 27.7 30.5 27.7 31.1 27.7 31.75 26.9 32.1 L25.6 32.3 18.45 32.45 12.85 32.15 9.7 31.75 7.95 31.6 3.1 31.95 0.95 32.3 0.25 32.1 -0.35 31.55 -0.5 31.3 -0.5 29.9 0.25 29.15 Q0.75 28.8 1.5 28.6 4.05 27.9 5.85 27.75 7.45 27.6 9.7 27.8 L9.7 31.75 9.7 27.8" fill="#999999" fill-rule="evenodd" stroke="none" />
      <path d="M2.8 0.0 L0.25 0.0 M9.7 0.0 L5.4 0.0 M21.55 0.0 L32.25 0.0 M20.55 0.0 L9.7 0.0" fill="none" stroke="#666666" stroke-linecap="round" stroke-linejoin="round" stroke-width="4.0" />
      <path d="M9.7 -0.4 L74.7 -0.4 74.7 40.5 47.05 40.5 45.5 40.7 27.0 40.65 25.95 40.5 9.7 40.5 -0.5 40.5 -0.5 -0.4 9.7 -0.4 9.7 40.5 9.7 -0.4" fill="#ffffff" fill-rule="evenodd" stroke="none" />
    </g>
    <g id="shape1">
      <path d="M24.9 37.35 Q27.9 38.6 30.1 39.05 L35.5 39.65 Q46.1 40.05 51.35 35.75 54.75 32.95 56.2 28.25 57.5 23.9 56.9 19.05 56.55 16.45 55.9 14.95 L55.65 14.35 59.25 5.3 59.45 4.5 Q59.65 3.35 59.05 2.7 58.5 2.05 57.3 2.25 L55.55 2.95 55.0 3.2 53.35 3.8 51.9 4.3 49.4 5.3 48.35 5.8 Q46.7 4.55 45.1 3.85 L43.3 3.2 Q40.65 2.4 37.5 2.45 L34.7 2.65 Q30.05 3.25 26.4 5.55 L25.15 4.9 22.45 3.5 20.8 2.75 18.65 2.0 17.45 1.9 17.0 2.05 16.65 2.3 16.25 2.8 16.05 4.0 16.4 6.35 16.65 7.3 17.5 10.45 17.75 10.95 18.15 12.55 18.65 13.65 18.65 13.75 18.7 13.85 18.85 14.4 Q16.7 19.2 16.7 24.6 16.7 30.8 19.6 33.95 21.2 35.75 24.9 37.35 M-0.5 -0.55 L75.1 -0.55 75.1 40.8 -0.5 40.8 -0.5 -0.55" fill="#000000" fill-rule="evenodd" stroke="none" />
      <path d="M24.9 37.35 Q21.2 35.75 19.6 33.95 16.7 30.8 16.7 24.6 16.7 19.2 18.85 14.4 L18.7 13.85 18.65 13.75 18.65 13.65 18.15 12.55 17.75 10.95 17.5 10.45 16.65 7.3 16.4 6.35 16.05 4.0 16.25 2.8 16.65 2.3 17.0 2.05 17.45 1.9 18.65 2.0 20.8 2.75 22.45 3.5 25.15 4.9 26.4 5.55 Q30.05 3.25 34.7 2.65 L37.5 2.45 Q40.65 2.4 43.3 3.2 L45.1 3.85 Q46.7 4.55 48.35 5.8 L49.4 5.3 51.9 4.3 53.35 3.8 55.0 3.2 55.55 2.95 57.3 2.25 Q58.5 2.05 59.05 2.7 59.65 3.35 59.45 4.5 L59.25 5.3 55.65 14.35 55.9 14.95 Q56.55 16.45 56.9 19.05 57.5 23.9 56.2 28.25 54.75 32.95 51.35 35.75 46.1 40.05 35.5 39.65 L30.1 39.05 Q27.9 38.6 24.9 37.35" fill="#999999" fill-rule="evenodd" stroke="none" />
      <path d="M45.9 5.6 Q46.0 5.05 46.45 4.7 46.9 4.3 47.45 4.25 L48.45 4.55 49.15 5.35 Q49.35 5.85 49.2 6.45 L48.6 7.35 47.6 7.65 Q47.0 7.7 46.55 7.35 45.65 6.7 45.9 5.6 M50.75 19.45 L50.75 19.3 Q50.95 18.7 51.45 18.35 L52.65 18.05 Q53.3 18.1 53.75 18.55 54.4 19.2 54.3 20.05 54.25 20.65 53.8 21.15 53.35 21.65 52.75 21.7 L51.55 21.45 Q51.0 21.1 50.75 20.55 L50.65 20.15 50.75 19.45 M38.95 13.9 L39.7 13.2 40.9 13.05 Q41.6 13.25 41.95 13.75 42.35 14.25 42.25 14.95 42.2 15.65 41.75 16.05 41.3 16.5 40.6 16.55 L39.45 16.2 Q38.95 15.8 38.8 15.15 38.65 14.45 38.95 13.9 M56.7 30.1 Q57.15 30.7 56.9 31.6 L56.55 32.2 Q56.1 32.7 55.4 32.75 54.75 32.85 54.2 32.45 53.7 32.05 53.55 31.35 53.4 30.65 53.75 30.1 54.25 29.3 55.2 29.3 56.2 29.3 56.7 30.1 M48.75 27.5 Q48.7 27.1 48.95 26.75 49.2 26.35 49.6 26.25 50.2 26.05 50.8 26.45 51.6 27.1 51.2 28.0 50.75 28.95 49.75 28.7 48.75 28.5 48.75 27.5 M38.15 38.75 Q38.25 38.2 38.75 37.8 39.2 37.4 39.75 37.35 L40.8 37.65 41.5 38.55 Q41.7 39.1 41.5 39.65 L40.85 40.55 39.9 40.85 38.9 40.55 Q37.9 39.95 38.15 38.75 M33.4 4.3 Q34.5 4.45 34.75 5.5 35.0 6.4 34.45 7.0 33.9 7.7 33.05 7.6 32.1 7.6 31.65 6.65 31.25 5.75 31.8 4.95 32.35 4.2 33.4 4.3 M19.4 3.15 Q19.55 2.15 20.6 1.9 21.6 1.65 22.25 2.5 L22.55 3.5 Q22.55 4.05 22.2 4.45 21.4 5.4 20.3 4.9 L19.55 4.2 Q19.3 3.65 19.4 3.15 M24.35 15.1 Q23.5 14.6 23.85 13.6 24.15 13.0 24.8 12.9 L24.95 12.9 Q25.8 12.9 26.05 13.65 26.4 14.4 25.7 15.0 L24.35 15.1 M19.7 18.7 Q20.25 19.1 20.45 19.8 20.65 20.55 20.3 21.15 19.7 22.25 18.45 22.1 17.9 22.05 17.45 21.65 16.95 21.25 16.85 20.7 16.7 20.15 16.9 19.6 17.1 19.05 17.6 18.7 18.7 17.95 19.7 18.7 M21.0 34.35 Q20.8 34.75 20.25 34.9 L19.3 34.95 18.5 34.35 Q18.2 33.9 18.25 33.3 18.35 32.7 18.75 32.35 19.15 32.0 19.75 31.95 20.35 31.95 20.75 32.3 21.2 32.65 21.25 33.3 21.35 33.9 21.0 34.35 M28.3 32.55 Q28.9 32.65 29.3 33.1 29.65 33.5 29.65 34.15 29.65 35.35 28.6 35.7 27.5 36.1 26.75 35.2 26.05 34.3 26.6 33.35 27.15 32.4 28.3 32.55" fill="#ffffff" fill-rule="evenodd" stroke="none" />
      <path d="M50.65 20.15 L50.5 20.6 49.4 21.75 47.8 21.95 Q46.95 21.8 46.4 21.2 45.9 20.65 45.8 19.85 45.75 19.05 46.1 18.4 46.45 17.75 47.15 17.4 47.85 17.05 48.6 17.15 49.3 17.25 49.9 17.75 50.45 18.3 50.65 19.0 L50.75 19.45 50.65 20.15 M32.0 31.4 Q31.25 31.0 30.9 30.1 30.75 29.65 30.75 28.75 30.75 28.0 30.9 27.4 L31.8 25.9 32.7 24.85 Q34.0 23.8 35.85 23.45 L35.95 22.45 36.0 21.45 Q36.15 20.9 36.7 20.6 L37.8 20.45 Q38.4 20.65 38.85 21.45 L39.2 22.85 39.25 23.45 39.7 23.55 Q41.7 24.1 42.75 25.75 43.9 27.65 43.05 29.45 L42.55 30.3 42.1 30.8 41.4 30.75 Q41.05 30.6 41.0 30.25 L41.05 29.45 Q41.15 28.7 40.75 28.0 40.15 26.95 38.85 26.55 L36.4 26.6 Q35.05 26.95 34.25 27.95 33.95 28.45 34.0 28.8 L34.45 29.55 Q34.65 30.0 34.5 30.5 L33.95 31.3 32.0 31.4 M25.3 22.3 Q23.9 22.0 23.5 20.55 23.15 19.7 23.55 18.9 24.0 17.9 25.2 17.45 L27.45 17.55 Q28.05 17.9 28.35 18.55 28.7 19.25 28.6 20.05 28.55 20.85 28.05 21.45 L26.8 22.3 Q26.0 22.55 25.3 22.3" fill="#000000" fill-rule="evenodd" stroke="none" />
    </g>
    <g id="shape2">
      <path d="M-0.5 -0.4 L-0.5 -0.55 75.1 -0.55 75.1 -0.4 75.1 40.8 -0.5 40.8 -0.5 -0.4 Z" fill="none" stroke="#000000" stroke-linecap="round" stroke-linejoin="round" stroke-width="3.0" />
    </g>
  </defs>
</svg>