<svg xmlns="http://www.w3.org/2000/svg" xmlns:ffdec="https://www.free-decompiler.com/flash" xmlns:xlink="http://www.w3.org/1999/xlink" ffdec:objectType="frame" viewBox="39.95 7.40 75.60 41.35">
  <g transform="matrix(1.0, 0.0, 0.0, 1.0, 40.45, 7.95)">
    <use ffdec:characterId="1" height="42.7" transform="matrix(1.0, 0.0, 0.0, 1.0, 0.0, 0.0)" width="76.45" xlink:href="#shape0" />
    <use ffdec:characterId="446" height="39.7" transform="matrix(1.0, 0.0, 0.0, 1.0, 0.0, 0.0)" width="77.8" xlink:href="#shape1" />
    <use ffdec:characterId="3" height="44.35" transform="matrix(1.0, 0.0, 0.0, 1.0, 0.0, 0.0)" width="78.6" xlink:href="#shape2" />
  </g>
  <defs>
    <g id="shape0">
      <path d="M2.8 0.0 L2.8 -0.4 5.4 -0.4 5.4 0.0 9.7 0.0 9.7 19.45 9.7 0.0 20.55 0.0 19.3 19.45 9.7 19.45 0.25 19.45 0.25 0.0 2.8 0.0" fill="#ffffff" fill-rule="evenodd" stroke="none" />
      <path d="M0.25 19.45 L9.7 19.45 19.3 19.45 18.7 28.6 16.0 28.5 10.95 27.95 9.7 27.8 Q7.45 27.6 5.85 27.75 4.05 27.9 1.5 28.6 0.75 28.8 0.25 29.15 L0.25 19.45 M9.7 19.45 L9.7 27.8 9.7 19.45" fill="#121212" fill-rule="evenodd" stroke="none" />
      <path d="M9.7 27.8 L10.95 27.95 16.0 28.5 18.7 28.6 19.75 28.6 23.5 28.75 Q25.95 29.05 27.1 30.0 27.7 30.5 27.7 31.1 27.7 31.75 26.9 32.1 L25.6 32.3 18.45 32.45 12.85 32.15 9.7 31.75 7.95 31.6 3.1 31.95 0.95 32.3 0.25 32.1 -0.35 31.55 -0.5 31.3 -0.5 29.9 0.25 29.15 Q0.75 28.8 1.5 28.6 4.05 27.9 5.85 27.75 7.45 27.6 9.7 27.8 L9.7 31.75 9.7 27.8" fill="#999999" fill-rule="evenodd" stroke="none" />
      <path d="M2.8 0.0 L0.25 0.0 M9.7 0.0 L5.4 0.0 M21.55 0.0 L32.25 0.0 M20.55 0.0 L9.7 0.0" fill="none" stroke="#666666" stroke-linecap="round" stroke-linejoin="round" stroke-width="4.0" />
      <path d="M9.7 -0.4 L74.7 -0.4 74.7 40.5 47.05 40.5 45.5 40.7 27.0 40.65 25.95 40.5 9.7 40.5 -0.5 40.5 -0.5 -0.4 9.7 -0.4 9.7 40.5 9.7 -0.4" fill="#ffffff" fill-rule="evenodd" stroke="none" />
    </g>
    <g id="shape1">
      <path d="M15.55 5.15 L12.9 2.8 12.3 2.3 11.45 1.85 Q10.45 1.2 10.55 0.05 10.65 -1.15 11.7 -1.55 12.75 -1.95 13.7 -1.2 L14.45 -0.2 16.0 2.5 16.85 4.25 16.95 4.95 16.6 5.35 16.05 5.45 15.55 5.15 M58.55 5.15 L58.05 5.45 57.5 5.35 57.15 4.95 57.25 4.25 58.1 2.5 59.65 -0.2 60.4 -1.2 Q61.35 -1.95 62.4 -1.55 63.45 -1.15 63.55 0.05 63.65 1.2 62.65 1.85 62.05 2.1 61.8 2.3 L61.2 2.8 58.55 5.15 M68.85 14.45 L65.65 14.35 65.1 14.35 64.9 14.1 Q64.85 13.9 64.95 13.75 L65.35 13.5 67.75 12.65 70.45 11.9 70.85 11.85 72.25 11.55 74.5 11.15 Q75.55 11.4 75.85 12.35 76.2 13.35 75.55 14.15 75.1 14.75 74.2 15.0 L72.6 15.15 69.5 14.6 68.85 14.45 M61.0 12.4 L60.0 12.5 Q59.5 12.2 59.6 11.5 59.75 11.0 60.3 10.6 L61.35 10.0 62.8 8.85 66.35 5.45 70.05 2.15 Q71.2 1.2 72.05 0.9 73.4 0.45 74.35 1.2 75.0 1.65 75.05 2.5 75.15 3.35 74.7 4.05 L73.4 5.1 71.85 6.05 65.65 9.8 64.1 10.65 62.6 11.6 61.0 12.4 M18.65 16.55 L20.25 15.5 22.0 15.05 23.85 14.9 26.6 14.1 31.15 12.1 33.5 10.6 34.3 9.6 35.2 8.65 Q35.9 8.15 37.0 7.95 L39.05 7.75 43.25 7.1 47.4 6.25 49.7 6.4 Q50.5 6.75 50.8 7.7 51.1 8.65 50.7 9.4 50.3 10.15 49.3 10.6 L47.45 11.2 Q40.25 12.95 29.35 17.55 L26.65 18.55 26.95 18.75 28.3 18.85 Q33.05 18.25 39.2 16.3 L49.85 12.7 50.75 12.45 51.4 12.15 Q52.95 11.45 53.85 11.65 55.2 11.9 55.45 13.25 55.55 14.15 55.1 14.8 L55.2 14.95 56.6 17.75 56.9 18.55 56.95 18.6 57.2 18.8 57.55 18.95 Q58.35 19.25 58.7 20.0 59.05 20.65 58.8 21.5 L58.6 22.1 57.05 23.15 56.2 23.3 55.65 23.1 54.8 22.6 54.5 22.65 46.5 24.65 38.4 26.05 45.4 25.8 52.3 24.95 55.3 24.85 Q56.3 25.2 56.8 26.3 57.25 27.45 56.75 28.4 56.2 29.35 54.5 30.15 52.9 30.95 51.7 31.5 53.55 31.3 55.7 31.55 57.35 31.75 58.2 32.2 59.6 33.05 59.6 34.3 59.65 35.0 59.2 35.65 L58.1 36.65 Q57.2 37.15 55.2 37.35 L41.65 38.0 28.05 37.7 23.2 37.4 17.9 37.0 14.95 37.2 Q13.2 37.2 12.15 36.3 11.55 35.8 11.4 35.05 11.15 34.25 11.5 33.6 11.9 32.85 13.25 32.25 15.65 31.2 18.2 30.95 L20.05 31.05 20.4 31.2 20.25 30.25 20.2 28.85 Q20.0 28.35 19.4 28.0 L18.3 27.35 17.85 26.95 16.7 27.1 Q15.55 26.95 15.15 25.85 14.95 25.3 15.05 24.15 L15.5 21.1 16.0 19.35 16.65 17.95 16.9 17.75 Q16.95 17.35 17.45 17.05 L18.65 16.55 M5.25 14.45 L4.6 14.6 1.5 15.15 -0.1 15.0 Q-1.0 14.75 -1.45 14.15 -2.1 13.35 -1.75 12.35 -1.45 11.4 -0.4 11.15 L1.85 11.55 3.25 11.85 3.65 11.9 Q4.75 12.1 6.35 12.65 L8.75 13.5 Q9.1 13.65 9.15 13.75 L9.2 14.1 9.0 14.35 8.45 14.35 5.25 14.45 M13.1 12.4 L11.5 11.6 10.0 10.65 8.45 9.8 2.25 6.05 0.7 5.1 -0.6 4.05 Q-1.05 3.35 -0.95 2.5 -0.9 1.65 -0.25 1.2 0.7 0.45 2.05 0.9 L4.05 2.15 7.75 5.45 11.3 8.85 12.75 10.0 13.8 10.6 14.5 11.5 Q14.6 12.2 14.1 12.5 L13.1 12.4 M30.0 32.65 L25.8 32.5 25.45 32.65 31.6 32.95 30.0 32.65" fill="#717171" fill-rule="evenodd" stroke="none" />
      <path d="M26.65 8.7 Q28.9 8.15 29.7 7.5 L31.1 5.5 32.4 3.5 Q33.4 2.6 35.35 2.3 L39.0 1.9 42.65 1.45 44.0 1.2 45.3 1.4 Q46.0 1.75 46.75 3.25 47.05 3.9 47.4 4.15 L48.35 4.3 51.2 4.3 53.3 4.35 Q54.45 4.75 55.4 6.85 L58.15 13.9 Q59.8 18.15 61.15 20.8 61.8 21.95 61.75 22.7 61.65 23.4 60.75 24.4 58.3 27.05 54.85 31.45 53.5 33.15 53.05 34.2 L52.6 35.15 52.0 35.95 Q51.3 36.55 49.5 36.45 L31.75 35.8 26.6 35.8 22.15 36.35 Q20.35 36.55 19.75 35.9 L19.35 34.95 19.1 33.85 Q18.85 33.2 18.2 32.45 L13.4 27.2 11.6 25.4 Q10.7 24.3 10.5 23.2 10.35 22.2 10.85 20.1 L11.7 16.8 Q12.05 15.3 12.6 14.55 13.4 13.5 15.5 12.75 L21.5 10.35 Q24.9 9.15 26.65 8.7 M34.9 6.7 Q34.4 7.0 33.85 7.65 32.55 9.7 31.65 10.55 30.85 11.35 29.5 11.9 L27.05 12.8 Q21.4 14.6 16.5 16.7 L17.8 17.2 18.75 17.3 19.35 17.55 21.55 18.2 22.0 18.4 22.05 18.85 21.7 18.95 21.3 18.9 20.8 19.0 20.35 18.9 19.95 18.95 19.6 18.9 19.05 18.9 18.4 18.9 15.55 18.9 15.0 21.35 14.85 22.35 Q15.0 23.05 16.15 24.1 L19.4 27.4 22.35 30.95 23.2 31.75 24.75 32.0 48.05 31.9 49.15 31.7 49.8 31.05 55.05 24.5 51.95 24.7 50.65 24.65 49.1 24.95 47.45 24.9 47.0 24.95 46.9 24.7 47.0 24.45 Q47.2 24.25 47.55 24.25 L56.8 21.75 Q54.35 16.15 52.3 10.25 L31.9 17.6 Q28.1 19.0 26.1 19.25 L25.6 19.2 Q25.35 19.1 25.4 18.9 L25.65 18.6 Q26.7 17.9 29.8 16.8 32.7 15.8 37.65 13.45 L48.35 8.45 47.5 8.45 Q44.8 8.25 44.05 6.55 L43.55 5.8 42.8 5.65 36.65 6.25 34.9 6.7 M43.15 18.0 L43.75 17.4 Q45.4 16.15 47.2 16.55 48.1 16.75 48.8 17.4 49.55 18.05 49.75 18.95 L49.85 19.95 49.4 21.6 Q48.75 22.9 47.5 23.5 L44.8 23.6 43.95 23.15 43.4 22.65 Q42.8 22.0 42.6 20.55 42.4 18.95 43.15 18.0 M22.15 26.95 Q21.0 26.5 20.45 25.45 19.8 24.25 20.2 22.95 20.45 22.15 21.25 21.45 22.25 20.55 23.55 20.45 24.95 20.35 25.95 21.2 L26.35 21.6 Q27.0 22.35 27.05 23.4 27.15 24.5 26.65 25.35 L26.0 26.2 Q25.25 26.95 24.15 27.15 L22.15 26.95 M28.9 23.2 L29.1 22.75 Q29.5 22.15 29.9 22.2 L30.3 22.4 30.4 22.8 30.15 23.65 30.15 24.0 30.4 24.2 31.6 24.55 32.6 24.3 33.3 23.85 33.55 23.3 Q33.85 22.75 34.35 22.75 L35.0 22.7 Q35.6 22.9 35.8 23.5 L35.9 23.7 36.05 23.75 37.2 23.55 Q37.85 23.35 38.05 22.8 L38.1 22.45 38.05 21.55 38.05 21.3 Q38.05 20.7 38.65 20.6 L39.3 20.95 39.75 21.3 40.1 22.3 40.1 23.4 39.65 24.35 39.4 24.7 Q38.9 25.2 37.8 25.6 L37.0 25.75 37.0 26.2 Q37.0 27.3 36.05 28.15 L35.05 28.65 33.25 28.5 Q32.7 28.2 32.35 27.55 32.05 27.1 32.05 26.6 L31.55 26.6 30.65 26.5 30.1 26.2 29.65 25.9 Q29.0 25.3 28.9 24.35 L28.9 23.9 28.85 23.55 28.9 23.2" fill="#000000" fill-rule="evenodd" stroke="none" />
    </g>
    <g id="shape2">
      <path d="M-0.5 -0.4 L-0.5 -0.55 75.1 -0.55 75.1 -0.4 75.1 40.8 -0.5 40.8 -0.5 -0.4 Z" fill="none" stroke="#000000" stroke-linecap="round" stroke-linejoin="round" stroke-width="3.0" />
    </g>
  </defs>
</svg>