<svg xmlns:ffdec="https://www.free-decompiler.com/flash" xmlns:xlink="http://www.w3.org/1999/xlink" ffdec:objecttype="frame" xmlns="http://www.w3.org/2000/svg" viewBox="-0.5 -0.55 75.6 41.35">   <g>     <use ffdec:characterid="1" height="42.7" width="76.45" xlink:href="#shape0"></use>     <use ffdec:characterid="464" height="37.85" width="71.35" xlink:href="#shape1"></use>     <use ffdec:characterid="3" height="44.35" width="78.6" xlink:href="#shape2"></use>   </g>   <defs>     <g id="shape0">       <path d="M2.8 0.0 L2.8 -0.4 5.4 -0.4 5.4 0.0 9.7 0.0 9.7 19.45 9.7 0.0 20.55 0.0 19.3 19.45 9.7 19.45 0.25 19.45 0.25 0.0 2.8 0.0" fill="#ffffff" fill-rule="evenodd" stroke="none"></path>       <path d="M0.25 19.45 L9.7 19.45 19.3 19.45 18.7 28.6 16.0 28.5 10.95 27.95 9.7 27.8 Q7.45 27.6 5.85 27.75 4.05 27.9 1.5 28.6 0.75 28.8 0.25 29.15 L0.25 19.45 M9.7 19.45 L9.7 27.8 9.7 19.45" fill="#121212" fill-rule="evenodd" stroke="none"></path>       <path d="M9.7 27.8 L10.95 27.95 16.0 28.5 18.7 28.6 19.75 28.6 23.5 28.75 Q25.95 29.05 27.1 30.0 27.7 30.5 27.7 31.1 27.7 31.75 26.9 32.1 L25.6 32.3 18.45 32.45 12.85 32.15 9.7 31.75 7.95 31.6 3.1 31.95 0.95 32.3 0.25 32.1 -0.35 31.55 -0.5 31.3 -0.5 29.9 0.25 29.15 Q0.75 28.8 1.5 28.6 4.05 27.9 5.85 27.75 7.45 27.6 9.7 27.8 L9.7 31.75 9.7 27.8" fill="#999999" fill-rule="evenodd" stroke="none"></path>       <path d="M2.8 0.0 L0.25 0.0 M9.7 0.0 L5.4 0.0 M21.55 0.0 L32.25 0.0 M20.55 0.0 L9.7 0.0" fill="none" stroke="#666666" stroke-linecap="round" stroke-linejoin="round" stroke-width="4.0"></path>       <path d="M9.7 -0.4 L74.7 -0.4 74.7 40.5 47.05 40.5 45.5 40.7 27.0 40.65 25.95 40.5 9.7 40.5 -0.5 40.5 -0.5 -0.4 9.7 -0.4 9.7 40.5 9.7 -0.4" fill="#ffffff" fill-rule="evenodd" stroke="none"></path>     </g>     <g id="shape1">       <path d="M62.55 25.0 Q60.9 24.65 59.55 23.75 58.05 22.75 57.7 21.25 57.45 20.35 57.65 18.25 57.95 16.4 58.3 15.7 58.9 14.5 60.2 13.75 59.6 12.95 59.35 11.95 59.0 10.75 59.3 9.2 59.4 8.25 60.0 6.45 L60.55 5.15 Q60.85 4.6 61.55 4.0 62.8 2.8 64.45 2.35 66.15 1.8 67.8 2.3 68.65 2.55 69.35 3.1 70.95 4.05 71.45 5.35 71.8 6.1 71.65 6.9 71.5 7.75 71.0 8.3 70.35 8.85 69.8 8.6 L69.2 7.95 68.05 6.35 Q67.25 5.45 66.3 5.5 L65.0 5.8 Q63.95 6.3 63.7 6.7 L63.1 8.0 62.85 8.95 Q62.5 10.35 62.65 10.95 62.85 11.75 63.75 12.4 L64.65 13.2 Q65.15 13.6 65.15 14.1 L65.1 14.55 Q65.1 15.45 64.35 15.95 L62.85 16.5 Q61.9 16.75 61.6 17.3 L61.3 19.15 61.55 20.15 62.7 20.95 64.0 21.5 65.5 21.3 Q68.15 20.6 68.95 19.6 L69.65 18.75 Q70.05 18.2 70.55 18.5 71.0 18.65 70.9 19.3 L70.6 20.2 69.3 22.15 Q67.95 23.7 66.0 24.6 L64.25 25.15 62.55 25.0 M56.1 2.4 Q56.15 3.0 55.45 3.25 L54.3 3.45 Q52.8 3.65 50.55 5.25 52.6 7.05 53.25 9.6 54.0 12.45 52.65 14.75 L50.85 16.6 Q49.85 17.35 48.95 17.6 47.45 18.1 45.8 17.25 44.6 16.65 43.5 15.2 42.45 13.8 42.25 12.2 42.15 10.4 43.35 8.15 44.6 6.2 46.3 4.7 49.75 1.9 54.4 1.55 55.05 1.4 55.5 1.55 56.1 1.8 56.1 2.4 M26.0 24.6 Q25.05 24.15 24.45 23.65 L23.45 22.05 Q22.4 20.05 22.25 17.85 L22.6 15.4 Q22.7 14.8 22.95 14.4 23.25 13.95 23.7 14.05 24.3 14.15 24.4 14.85 L24.35 16.1 Q24.3 17.45 26.05 19.7 L27.15 20.95 28.6 21.3 30.05 21.45 30.8 20.8 31.9 19.1 Q32.0 18.4 31.35 17.55 L30.55 16.15 Q30.2 15.2 30.8 14.55 30.85 14.3 31.05 14.1 31.45 13.75 32.15 13.7 L33.35 13.75 Q34.6 13.75 35.25 13.25 35.8 12.85 36.4 11.45 L36.9 10.55 37.3 9.1 Q37.35 8.55 36.85 7.6 L36.0 6.4 Q35.15 5.7 33.9 5.95 L31.9 6.55 30.95 6.65 Q30.4 6.5 30.3 5.55 30.15 4.75 30.55 4.0 L31.85 2.85 Q33.1 2.2 35.1 2.45 36.0 2.5 36.9 2.95 38.5 3.5 39.6 5.15 40.6 6.6 40.85 8.45 L40.95 10.0 40.45 11.35 39.2 14.05 Q38.35 15.55 37.4 16.3 36.5 16.95 35.4 17.2 35.95 18.65 35.65 20.0 L34.45 22.45 Q33.3 24.35 32.4 24.9 31.05 25.75 29.2 25.6 27.55 25.45 26.0 24.6 M45.1 11.7 Q45.05 12.15 45.15 12.45 L45.6 13.5 45.95 13.95 46.2 14.1 46.65 14.45 Q47.05 14.75 47.55 14.65 L48.35 14.35 48.8 13.95 49.75 12.85 50.25 11.05 49.85 9.75 49.3 8.75 48.75 8.15 47.55 8.0 47.35 7.9 47.1 8.0 45.85 9.5 45.15 11.4 45.1 11.7 M51.1 25.65 L49.75 25.45 Q49.1 24.95 49.0 24.3 L49.0 23.65 48.85 23.05 Q48.65 22.65 47.9 22.4 L44.5 22.2 Q43.7 22.6 43.15 23.3 42.65 24.1 42.8 24.95 42.95 25.9 43.85 26.75 L45.75 27.65 47.65 28.2 48.5 28.1 49.4 28.3 Q49.9 28.5 50.25 29.0 50.5 29.5 50.4 30.05 L50.05 30.8 49.6 31.55 48.85 33.45 Q48.4 34.65 47.5 34.85 L46.5 34.85 45.1 34.55 Q40.6 33.85 38.45 32.95 L37.75 32.6 Q37.45 32.3 37.5 31.85 37.6 31.5 38.05 31.35 L38.9 31.3 46.2 32.15 46.5 31.35 Q44.1 30.85 42.0 29.65 41.25 29.2 40.8 28.75 L39.85 27.3 Q39.05 25.6 39.0 24.65 39.05 23.9 39.45 22.85 39.95 21.55 40.45 20.9 41.8 19.05 44.2 18.55 L48.6 18.8 Q49.85 19.15 50.5 19.6 51.55 20.35 52.15 21.7 52.7 22.95 52.55 24.0 52.25 25.4 51.1 25.65 M2.4 23.55 Q1.3 22.8 1.55 21.15 1.8 20.0 2.9 18.9 4.1 17.7 5.55 17.35 L7.9 17.2 Q10.65 17.45 12.7 18.75 15.1 20.3 15.7 22.8 L16.0 25.35 15.7 27.4 Q15.35 28.4 13.75 29.9 12.65 30.9 12.1 31.1 L10.45 31.5 Q7.75 31.9 5.0 31.5 L5.0 32.5 13.1 34.6 14.0 34.95 Q14.45 35.3 14.4 35.75 L13.85 36.4 12.95 36.55 Q10.25 36.6 5.15 35.5 L3.55 35.2 2.5 34.85 Q1.6 34.25 1.6 32.8 L1.6 30.5 1.45 29.5 1.4 28.5 Q1.5 27.9 2.0 27.45 2.5 27.05 3.15 27.05 L4.15 27.25 5.1 27.6 7.3 27.85 9.7 27.6 Q11.05 27.15 11.6 26.2 12.05 25.35 11.85 24.3 11.6 23.3 10.85 22.6 9.45 21.35 7.15 21.35 6.25 21.35 5.9 21.7 L5.5 22.25 5.2 22.95 Q4.85 23.65 3.95 23.85 L2.4 23.55 M18.8 7.65 L18.5 7.3 16.95 6.35 16.55 6.15 14.4 5.6 14.15 5.65 14.05 5.85 13.4 6.35 13.0 6.85 12.9 7.75 13.05 9.1 13.65 10.5 15.3 11.8 16.95 12.15 17.6 12.2 18.55 11.95 19.2 11.2 19.4 10.5 19.55 10.15 19.6 9.6 19.25 8.3 18.8 7.65 M2.3 6.6 Q1.9 6.05 2.35 5.4 2.6 4.95 3.3 4.6 7.8 1.8 12.85 2.05 15.45 2.2 17.9 3.2 20.6 4.4 21.65 6.15 22.6 7.7 22.6 9.7 22.6 11.75 21.85 13.2 20.95 15.0 19.25 15.65 L16.85 16.05 14.0 15.5 Q11.15 14.35 9.85 11.3 8.7 8.45 9.4 5.4 6.2 5.5 4.65 6.35 L3.5 6.9 Q2.7 7.15 2.3 6.6 M72.1 26.4 Q72.75 26.6 72.75 27.45 L72.5 28.6 Q70.45 33.55 66.2 36.3 64.05 37.65 61.45 38.3 L56.7 38.1 Q55.0 37.4 53.85 35.8 52.65 34.15 52.4 32.55 52.05 30.55 53.05 29.05 53.65 28.1 54.75 27.3 56.15 26.45 57.4 26.05 60.35 25.35 63.25 27.05 65.8 28.65 67.05 31.55 69.6 29.6 70.35 28.0 L70.95 26.85 Q71.45 26.2 72.1 26.4 M58.15 35.25 L58.6 35.35 60.4 35.2 60.8 35.1 Q61.95 34.9 62.9 34.3 L63.05 34.1 63.05 33.9 63.25 33.1 63.3 32.5 62.85 31.65 61.95 30.7 60.6 29.9 58.5 29.85 57.0 30.5 56.4 30.85 55.8 31.6 Q55.55 32.15 55.7 32.6 L55.95 33.3 56.05 33.7 56.35 34.15 57.35 35.0 58.15 35.25 M16.2 28.45 Q16.85 28.15 17.4 28.8 L18.15 29.8 Q19.0 31.35 21.75 33.05 22.7 30.05 25.1 28.1 27.75 26.15 30.75 26.6 32.05 26.8 33.55 27.5 34.75 28.2 35.4 29.05 36.55 30.45 36.4 32.45 36.35 34.15 35.3 35.9 34.3 37.65 32.75 38.5 30.95 39.5 28.0 39.2 25.4 38.8 23.1 37.65 18.55 35.35 16.05 30.65 L15.65 29.5 Q15.6 28.7 16.2 28.45 M31.05 35.8 L31.7 35.4 32.65 34.5 32.95 33.95 32.95 33.6 33.15 32.9 Q33.25 32.35 32.95 31.9 L32.25 31.25 31.7 30.95 30.05 30.45 27.95 30.7 26.75 31.6 25.95 32.75 25.6 33.55 25.7 34.2 26.0 34.95 26.0 35.15 26.15 35.35 Q27.15 35.85 28.35 35.95 L30.55 35.95 31.05 35.8" fill="#717171" fill-rule="evenodd" stroke="none"></path>       <path d="M58.15 5.55 L57.35 5.8 56.35 6.65 56.05 7.1 55.95 7.5 55.7 8.2 Q55.55 8.65 55.8 9.2 L56.4 9.95 57.0 10.3 58.5 10.95 60.6 10.9 61.95 10.1 62.85 9.15 63.3 8.3 63.25 7.7 63.05 6.9 63.05 6.7 62.9 6.5 Q61.95 5.9 60.8 5.7 L60.4 5.6 58.6 5.45 58.15 5.55 M72.1 14.4 Q71.45 14.6 70.95 13.95 L70.35 12.8 Q69.6 11.2 67.05 9.25 65.8 12.15 63.25 13.75 60.35 15.45 57.4 14.75 56.15 14.35 54.75 13.5 53.65 12.7 53.05 11.75 52.05 10.25 52.4 8.25 52.65 6.65 53.85 5.0 55.0 3.4 56.7 2.7 L61.45 2.5 Q64.05 3.15 66.2 4.5 70.45 7.25 72.5 12.2 L72.75 13.35 Q72.75 14.2 72.1 14.4 M45.1 29.1 L45.15 29.4 45.85 31.3 47.1 32.8 47.35 32.9 47.55 32.8 48.75 32.65 49.3 32.05 49.85 31.05 50.25 29.75 49.75 27.95 48.8 26.85 48.35 26.45 47.55 26.15 46.65 26.35 46.2 26.7 45.95 26.85 45.6 27.3 45.15 28.35 Q45.05 28.65 45.1 29.1 M56.1 38.4 Q56.1 39.0 55.5 39.25 L54.4 39.25 Q49.75 38.9 46.3 36.1 44.6 34.6 43.35 32.65 42.15 30.4 42.25 28.6 42.45 27.0 43.5 25.6 44.6 24.15 45.8 23.55 47.45 22.7 48.95 23.2 49.85 23.45 50.85 24.2 L52.65 26.05 Q54.0 28.35 53.25 31.2 52.6 33.75 50.55 35.55 52.8 37.15 54.3 37.35 L55.45 37.55 Q56.15 37.8 56.1 38.4 M51.1 15.15 Q52.25 15.4 52.55 16.8 52.7 17.85 52.15 19.1 51.55 20.45 50.5 21.2 L48.6 22.0 44.2 22.25 Q41.8 21.75 40.45 19.9 L39.45 17.95 Q39.05 16.9 39.0 16.15 39.05 15.2 39.85 13.5 40.45 12.35 40.8 12.05 41.25 11.6 42.0 11.15 44.1 9.95 46.5 9.45 L46.2 8.65 38.9 9.5 38.05 9.45 Q37.6 9.3 37.5 8.95 37.45 8.5 37.75 8.2 L38.45 7.85 Q40.6 6.95 45.1 6.25 L46.5 5.95 47.5 5.95 Q48.4 6.15 48.85 7.35 L49.6 9.25 50.05 10.0 50.4 10.75 50.25 11.8 49.4 12.5 48.5 12.7 47.65 12.6 45.75 13.15 Q44.45 13.65 43.85 14.05 42.95 14.9 42.8 15.85 42.65 16.7 43.15 17.5 L44.5 18.6 47.9 18.4 Q48.65 18.15 48.85 17.75 L49.0 17.15 49.0 16.5 Q49.1 15.85 49.75 15.35 L51.1 15.15 M62.55 15.8 L64.25 15.65 66.0 16.2 Q67.95 17.1 69.3 18.65 L70.6 20.6 70.9 21.5 Q71.0 22.15 70.55 22.3 70.05 22.6 69.65 22.05 L68.95 21.2 Q68.15 20.2 65.5 19.5 L64.0 19.3 Q63.7 19.4 62.7 19.85 L61.55 20.65 61.3 21.65 61.6 23.5 Q61.9 24.05 62.85 24.3 L64.35 24.85 Q65.1 25.35 65.1 26.25 L65.15 26.7 Q65.15 27.2 64.65 27.6 L63.75 28.4 Q62.85 29.05 62.65 29.85 62.5 30.45 62.85 31.85 L63.1 32.8 63.7 34.1 Q63.95 34.5 65.0 35.0 L66.3 35.3 Q67.25 35.35 68.05 34.45 L69.2 32.85 69.8 32.2 Q70.35 31.95 71.0 32.5 71.5 33.05 71.65 33.9 71.8 34.7 71.45 35.45 70.95 36.75 69.35 37.7 68.65 38.25 67.8 38.5 66.15 39.0 64.45 38.45 62.8 38.0 61.55 36.8 L60.55 35.65 60.0 34.35 Q59.4 32.55 59.3 31.6 59.0 30.05 59.35 28.85 59.6 27.85 60.2 27.05 58.9 26.3 58.3 25.1 57.95 24.4 57.65 22.55 57.45 20.45 57.7 19.55 58.05 18.05 59.55 17.05 60.9 16.15 62.55 15.8 M26.0 16.2 Q27.55 15.35 29.2 15.2 31.05 15.05 32.4 15.9 33.3 16.45 34.45 18.35 L35.65 20.8 Q35.95 22.15 35.4 23.6 36.5 23.85 37.4 24.5 38.35 25.25 39.2 26.75 L40.45 29.45 40.95 30.8 40.85 32.35 Q40.6 34.2 39.6 35.65 38.5 37.3 36.9 37.85 36.0 38.3 35.1 38.35 L31.85 37.95 30.55 36.8 Q30.15 36.05 30.3 35.25 30.4 34.3 30.95 34.15 L31.9 34.25 33.9 34.85 Q35.15 35.1 36.0 34.4 L36.85 33.2 Q37.35 32.25 37.3 31.7 37.3 31.2 36.9 30.25 L36.4 29.35 Q35.8 27.95 35.25 27.55 34.6 27.05 33.35 27.05 L32.15 27.1 Q31.45 27.05 31.05 26.7 L30.8 26.25 Q30.2 25.6 30.55 24.65 L31.35 23.25 Q32.0 22.4 31.9 21.7 L30.8 20.0 30.05 19.35 28.6 19.5 27.15 19.85 26.05 21.1 Q24.3 23.35 24.35 24.7 L24.4 25.95 Q24.3 26.65 23.7 26.75 23.25 26.85 22.95 26.4 22.7 26.0 22.6 25.4 L22.25 22.95 Q22.4 20.75 23.45 18.75 23.85 17.8 24.45 17.15 25.05 16.65 26.0 16.2 M16.2 12.35 Q15.6 12.1 15.65 11.3 15.65 10.8 16.05 10.15 18.55 5.45 23.1 3.15 25.4 2.0 28.0 1.6 30.95 1.3 32.75 2.3 34.3 3.15 35.3 4.9 36.35 6.65 36.4 8.35 36.55 10.35 35.4 11.75 L33.55 13.3 30.75 14.2 Q27.75 14.65 25.1 12.7 22.7 10.75 21.75 7.75 19.0 9.45 18.15 11.0 L17.4 12.0 Q16.85 12.65 16.2 12.35 M31.05 5.0 L30.55 4.85 28.35 4.85 Q27.15 4.95 26.15 5.45 L26.0 5.65 26.0 5.85 25.7 6.6 25.6 7.25 25.95 8.05 26.75 9.2 27.95 10.1 30.05 10.35 31.7 9.85 32.25 9.55 32.95 8.9 Q33.25 8.45 33.15 7.9 L32.95 7.2 32.95 6.85 32.65 6.3 31.7 5.4 31.05 5.0 M2.4 17.25 Q3.1 16.75 3.95 16.95 4.85 17.15 5.2 17.85 L5.5 18.55 5.9 19.1 Q6.25 19.45 7.15 19.45 9.45 19.45 10.85 18.2 11.6 17.5 11.85 16.5 12.05 15.45 11.6 14.6 11.05 13.65 9.7 13.2 L7.3 12.95 5.1 13.2 4.15 13.55 3.15 13.75 Q2.5 13.75 2.0 13.35 1.5 12.9 1.4 12.3 L1.45 11.3 1.6 10.3 1.6 8.0 Q1.6 6.55 2.5 5.95 L3.55 5.6 5.15 5.3 Q10.25 4.2 12.95 4.25 L13.85 4.4 Q14.3 4.6 14.4 5.05 14.45 5.5 14.0 5.85 L13.1 6.2 5.0 8.3 5.0 9.3 Q7.75 8.9 10.45 9.3 L12.1 9.7 Q12.65 9.9 13.75 10.9 15.35 12.4 15.7 13.4 L16.0 15.45 15.7 18.0 Q15.1 20.5 12.7 22.05 10.65 23.35 7.9 23.6 L5.55 23.45 Q4.1 23.1 2.9 21.9 1.8 20.8 1.55 19.65 1.3 18.0 2.4 17.25 M18.8 33.15 L19.25 32.5 19.6 31.2 19.55 30.65 19.4 30.3 19.2 29.6 Q19.05 29.1 18.55 28.85 L17.6 28.6 16.95 28.65 15.3 29.0 13.65 30.3 13.05 31.7 12.9 33.05 13.0 33.95 13.4 34.45 14.05 34.95 14.15 35.15 14.4 35.2 16.55 34.65 16.95 34.45 18.5 33.5 18.8 33.15 M2.3 34.2 Q2.7 33.65 3.5 33.9 3.85 34.0 4.65 34.45 6.2 35.3 9.4 35.4 8.7 32.35 9.85 29.5 11.15 26.45 14.0 25.3 15.2 24.85 16.85 24.75 L19.25 25.15 Q20.95 25.8 21.85 27.6 22.6 29.05 22.6 31.1 22.6 33.1 21.65 34.65 20.6 36.4 17.9 37.6 15.45 38.6 12.85 38.75 7.8 39.0 3.3 36.2 L2.35 35.4 Q1.9 34.75 2.3 34.2" fill="#000000" fill-rule="evenodd" stroke="none"></path>     </g>     <g id="shape2">       <path d="M-0.5 -0.4 L-0.5 -0.55 75.1 -0.55 75.1 -0.4 75.1 40.8 -0.5 40.8 -0.5 -0.4 Z" fill="none" stroke="#000000" stroke-linecap="round" stroke-linejoin="round" stroke-width="3.0"></path>     </g>   </defs> </svg>