<svg xmlns="http://www.w3.org/2000/svg" xmlns:ffdec="https://www.free-decompiler.com/flash" xmlns:xlink="http://www.w3.org/1999/xlink" ffdec:objectType="frame" viewBox="39.95 7.40 75.60 41.35">
  <g transform="matrix(1.0, 0.0, 0.0, 1.0, 40.45, 7.95)">
    <use ffdec:characterId="1" height="42.7" transform="matrix(1.0, 0.0, 0.0, 1.0, 0.0, 0.0)" width="76.45" xlink:href="#shape0" />
    <use ffdec:characterId="490" height="41.35" transform="matrix(1.0, 0.0, 0.0, 1.0, 0.0, 0.0)" width="75.6" xlink:href="#shape1" />
    <use ffdec:characterId="3" height="44.35" transform="matrix(1.0, 0.0, 0.0, 1.0, 0.0, 0.0)" width="78.6" xlink:href="#shape2" />
  </g>
  <defs>
    <g id="shape0">
      <path d="M2.8 0.0 L2.8 -0.4 5.4 -0.4 5.4 0.0 9.7 0.0 9.7 19.45 9.7 0.0 20.55 0.0 19.3 19.45 9.7 19.45 0.25 19.45 0.25 0.0 2.8 0.0" fill="#ffffff" fill-rule="evenodd" stroke="none" />
      <path d="M0.25 19.45 L9.7 19.45 19.3 19.45 18.7 28.6 16.0 28.5 10.95 27.95 9.7 27.8 Q7.45 27.6 5.85 27.75 4.05 27.9 1.5 28.6 0.75 28.8 0.25 29.15 L0.25 19.45 M9.7 19.45 L9.7 27.8 9.7 19.45" fill="#121212" fill-rule="evenodd" stroke="none" />
      <path d="M9.7 27.8 L10.95 27.95 16.0 28.5 18.7 28.6 19.75 28.6 23.5 28.75 Q25.95 29.05 27.1 30.0 27.7 30.5 27.7 31.1 27.7 31.75 26.9 32.1 L25.6 32.3 18.45 32.45 12.85 32.15 9.7 31.75 7.95 31.6 3.1 31.95 0.95 32.3 0.25 32.1 -0.35 31.55 -0.5 31.3 -0.5 29.9 0.25 29.15 Q0.75 28.8 1.5 28.6 4.05 27.9 5.85 27.75 7.45 27.6 9.7 27.8 L9.7 31.75 9.7 27.8" fill="#999999" fill-rule="evenodd" stroke="none" />
      <path d="M2.8 0.0 L0.25 0.0 M9.7 0.0 L5.4 0.0 M21.55 0.0 L32.25 0.0 M20.55 0.0 L9.7 0.0" fill="none" stroke="#666666" stroke-linecap="round" stroke-linejoin="round" stroke-width="4.0" />
      <path d="M9.7 -0.4 L74.7 -0.4 74.7 40.5 47.05 40.5 45.5 40.7 27.0 40.65 25.95 40.5 9.7 40.5 -0.5 40.5 -0.5 -0.4 9.7 -0.4 9.7 40.5 9.7 -0.4" fill="#ffffff" fill-rule="evenodd" stroke="none" />
    </g>
    <g id="shape1">
      <path d="M-0.5 -0.55 L75.1 -0.55 75.1 40.8 -0.5 40.8 -0.5 -0.55 M3.5 5.45 Q2.65 5.05 1.8 5.75 1.25 6.2 0.8 7.25 -0.55 10.8 0.5 14.2 1.7 17.85 4.8 19.75 L5.75 20.3 3.8 22.55 1.8 25.8 Q0.5 28.2 0.3 29.3 L0.15 30.65 -0.2 32.8 Q-0.3 34.15 0.0 34.9 L0.9 35.9 Q1.45 36.3 2.15 36.3 L3.4 35.95 4.3 34.95 4.55 32.75 Q4.6 30.8 4.95 28.95 L5.8 27.4 Q6.95 25.3 7.9 24.15 L8.85 23.15 8.85 23.2 Q10.7 26.5 9.95 30.2 L9.6 31.95 Q9.45 32.95 9.7 33.65 10.15 35.0 11.55 35.4 12.95 35.75 14.0 34.7 14.7 34.0 15.05 32.1 15.8 27.35 14.35 23.25 13.55 20.9 12.1 19.0 L13.1 17.2 Q14.55 14.4 14.85 13.2 15.4 11.05 15.05 7.9 14.8 5.95 14.15 5.25 13.15 4.15 11.75 4.5 10.4 4.85 9.95 6.2 9.75 6.85 9.9 7.85 L10.15 9.5 Q10.3 10.9 9.85 12.6 L8.75 15.55 8.7 15.6 7.15 14.45 Q6.0 13.55 5.5 12.65 4.9 11.65 4.75 9.95 L4.45 7.15 Q4.2 5.85 3.5 5.45 M24.9 37.35 Q27.9 38.6 30.1 39.05 L35.5 39.65 Q46.1 40.05 51.35 35.75 54.75 32.95 56.2 28.25 57.5 23.9 56.9 19.05 56.55 16.45 55.9 14.95 L55.65 14.35 59.25 5.3 59.45 4.5 Q59.65 3.35 59.05 2.7 58.5 2.05 57.3 2.25 L55.55 2.95 55.0 3.2 53.35 3.8 51.9 4.3 49.4 5.3 48.35 5.8 Q46.7 4.55 45.1 3.85 L43.3 3.2 Q40.65 2.4 37.5 2.45 L34.7 2.65 Q30.05 3.25 26.4 5.55 L25.15 4.9 22.45 3.5 20.8 2.75 18.65 2.0 17.45 1.9 17.0 2.05 16.65 2.3 16.25 2.8 16.05 4.0 16.4 6.35 16.65 7.3 17.5 10.45 17.75 10.95 18.15 12.55 18.65 13.65 18.65 13.75 18.7 13.85 18.85 14.4 Q16.7 19.2 16.7 24.6 16.7 30.8 19.6 33.95 21.2 35.75 24.9 37.35 M62.7 5.45 Q61.85 5.05 61.0 5.75 60.45 6.2 60.0 7.25 58.65 10.8 59.7 14.2 60.9 17.85 64.0 19.75 L64.95 20.3 63.0 22.55 61.0 25.8 Q59.7 28.2 59.5 29.3 59.35 29.95 59.35 30.65 59.1 31.7 59.0 32.8 58.9 34.15 59.2 34.9 59.5 35.5 60.1 35.9 60.65 36.3 61.35 36.3 L62.6 35.95 63.5 34.95 63.75 32.75 Q63.8 30.8 64.15 28.95 L65.0 27.4 Q66.15 25.3 67.1 24.15 L68.05 23.15 68.05 23.2 Q69.9 26.5 69.15 30.2 L68.8 31.95 Q68.65 32.95 68.9 33.65 69.35 35.0 70.75 35.4 72.15 35.75 73.2 34.7 73.9 34.0 74.25 32.1 75.0 27.35 73.55 23.25 72.75 20.9 71.3 19.0 L72.3 17.2 Q73.75 14.4 74.05 13.2 74.6 11.05 74.25 7.9 74.0 5.95 73.35 5.25 72.35 4.15 70.95 4.5 69.6 4.85 69.15 6.2 68.95 6.85 69.1 7.85 L69.35 9.5 Q69.5 10.9 69.05 12.6 L67.95 15.55 67.9 15.6 66.35 14.45 Q65.2 13.55 64.7 12.65 64.1 11.65 63.95 9.95 L63.65 7.15 Q63.4 5.85 62.7 5.45" fill="#999999" fill-rule="evenodd" stroke="none" />
      <path d="M62.7 5.45 Q63.4 5.85 63.65 7.15 L63.95 9.95 Q64.1 11.65 64.7 12.65 65.2 13.55 66.35 14.45 L67.9 15.6 67.95 15.55 69.05 12.6 Q69.5 10.9 69.35 9.5 L69.1 7.85 Q68.95 6.85 69.15 6.2 69.6 4.85 70.95 4.5 72.35 4.15 73.35 5.25 74.0 5.95 74.25 7.9 74.6 11.05 74.05 13.2 73.75 14.4 72.3 17.2 L71.3 19.0 Q72.75 20.9 73.55 23.25 75.0 27.35 74.25 32.1 73.9 34.0 73.2 34.7 72.15 35.75 70.75 35.4 69.35 35.0 68.9 33.65 68.65 32.95 68.8 31.95 L69.15 30.2 Q69.9 26.5 68.05 23.2 L68.05 23.15 67.1 24.15 Q66.15 25.3 65.0 27.4 L64.15 28.95 Q63.8 30.8 63.75 32.75 L63.5 34.95 62.6 35.95 61.35 36.3 Q60.65 36.3 60.1 35.9 59.5 35.5 59.2 34.9 58.9 34.15 59.0 32.8 59.1 31.7 59.35 30.65 59.35 29.95 59.5 29.3 59.7 28.2 61.0 25.8 L63.0 22.55 64.95 20.3 64.0 19.75 Q60.9 17.85 59.7 14.2 58.65 10.8 60.0 7.25 60.45 6.2 61.0 5.75 61.85 5.05 62.7 5.45 M24.9 37.35 Q21.2 35.75 19.6 33.95 16.7 30.8 16.7 24.6 16.7 19.2 18.85 14.4 L18.7 13.85 18.65 13.75 18.65 13.65 18.15 12.55 17.75 10.95 17.5 10.45 16.65 7.3 16.4 6.35 16.05 4.0 16.25 2.8 16.65 2.3 17.0 2.05 17.45 1.9 18.65 2.0 20.8 2.75 22.45 3.5 25.15 4.9 26.4 5.55 Q30.05 3.25 34.7 2.65 L37.5 2.45 Q40.65 2.4 43.3 3.2 L45.1 3.85 Q46.7 4.55 48.35 5.8 L49.4 5.3 51.9 4.3 53.35 3.8 55.0 3.2 55.55 2.95 57.3 2.25 Q58.5 2.05 59.05 2.7 59.65 3.35 59.45 4.5 L59.25 5.3 55.65 14.35 55.9 14.95 Q56.55 16.45 56.9 19.05 57.5 23.9 56.2 28.25 54.75 32.95 51.35 35.75 46.1 40.05 35.5 39.65 L30.1 39.05 Q27.9 38.6 24.9 37.35 M3.5 5.45 Q4.2 5.85 4.45 7.15 L4.75 9.95 Q4.9 11.65 5.5 12.65 6.0 13.55 7.15 14.45 L8.7 15.6 8.75 15.55 9.85 12.6 Q10.3 10.9 10.15 9.5 L9.9 7.85 Q9.75 6.85 9.95 6.2 10.4 4.85 11.75 4.5 13.15 4.15 14.15 5.25 14.8 5.95 15.05 7.9 15.4 11.05 14.85 13.2 14.55 14.4 13.1 17.2 L12.1 19.0 Q13.55 20.9 14.35 23.25 15.8 27.35 15.05 32.1 14.7 34.0 14.0 34.7 12.95 35.75 11.55 35.4 10.15 35.0 9.7 33.65 9.45 32.95 9.6 31.95 L9.95 30.2 Q10.7 26.5 8.85 23.2 L8.85 23.15 7.9 24.15 Q6.95 25.3 5.8 27.4 L4.95 28.95 Q4.6 30.8 4.55 32.75 L4.3 34.95 3.4 35.95 2.15 36.3 Q1.45 36.3 0.9 35.9 L0.0 34.9 Q-0.3 34.15 -0.2 32.8 L0.15 30.65 0.3 29.3 Q0.5 28.2 1.8 25.8 L3.8 22.55 5.75 20.3 4.8 19.75 Q1.7 17.85 0.5 14.2 -0.55 10.8 0.8 7.25 1.25 6.2 1.8 5.75 2.65 5.05 3.5 5.45" fill="#ffffff" fill-rule="evenodd" stroke="none" />
      <path d="M53.25 14.55 L52.1 13.85 51.2 13.7 48.85 13.85 47.05 14.7 45.4 14.65 Q44.55 14.3 44.15 13.55 43.75 12.85 43.9 12.0 44.05 11.1 44.65 10.55 45.25 10.0 46.65 9.7 L48.85 9.55 49.9 9.75 51.2 10.15 53.45 12.0 54.2 12.75 Q54.55 13.2 54.5 13.7 L54.05 14.4 53.25 14.55 M36.6 21.9 L37.15 21.85 37.7 21.9 Q38.05 22.0 39.3 23.0 40.35 23.8 42.1 24.15 45.0 24.55 47.35 23.1 49.75 21.6 50.7 18.9 L50.9 18.3 50.55 17.7 Q50.3 17.1 50.6 16.55 L50.75 16.15 51.5 15.6 52.75 15.45 53.6 15.65 54.65 16.25 55.3 16.75 56.2 17.85 56.35 18.2 56.65 19.3 56.7 19.9 Q56.85 20.4 56.4 20.65 L55.6 20.7 55.25 20.4 54.95 20.3 54.45 19.95 54.25 19.85 54.05 20.7 Q53.05 24.3 49.55 26.35 46.45 28.2 42.45 27.95 L40.4 27.6 Q38.85 27.15 37.15 25.95 35.45 27.15 33.9 27.6 L31.85 27.95 Q27.85 28.2 24.75 26.35 21.25 24.3 20.25 20.7 L20.05 19.85 19.85 19.95 19.35 20.3 19.05 20.4 18.7 20.7 17.9 20.65 Q17.45 20.4 17.6 19.9 L17.65 19.3 17.95 18.2 18.1 17.85 19.0 16.75 19.65 16.25 20.7 15.65 21.55 15.45 22.8 15.6 23.55 16.15 23.7 16.55 Q24.0 17.1 23.75 17.7 L23.4 18.3 23.6 18.9 Q24.55 21.6 26.95 23.1 29.3 24.55 32.2 24.15 33.95 23.8 35.0 23.0 36.25 22.0 36.6 21.9 M21.55 14.55 L20.75 14.4 20.3 13.7 Q20.25 13.2 20.6 12.75 L21.35 12.0 Q22.9 10.45 23.6 10.15 L24.9 9.75 25.95 9.55 28.15 9.7 Q29.55 10.0 30.15 10.55 30.75 11.1 30.9 12.0 31.05 12.85 30.65 13.55 30.25 14.3 29.4 14.65 L27.75 14.7 25.95 13.85 23.6 13.7 22.7 13.85 21.55 14.55" fill="#000000" fill-rule="evenodd" stroke="none" />
    </g>
    <g id="shape2">
      <path d="M-0.5 -0.4 L-0.5 -0.55 75.1 -0.55 75.1 -0.4 75.1 40.8 -0.5 40.8 -0.5 -0.4 Z" fill="none" stroke="#000000" stroke-linecap="round" stroke-linejoin="round" stroke-width="3.0" />
    </g>
  </defs>
</svg>