<svg xmlns="http://www.w3.org/2000/svg" width="42.85" height="42.85" baseProfile="full"><path fill="#fff" fill-rule="evenodd" d="M16.298 26.483q.593-.593 1.44-.826l.191-.043.657-.042q2.034.085 2.436 2.16v.043l.064.869q-.022 1.63-.911 2.923l-1.144 1.504-.53.551q-.297.34-1.292 1.102l-.212.148h-.254l-.212-.148q-.487-.7-1.314-1.335-.826-.657-1.461-.869-.636-.233-1.547-.762-.91-.509-1.335-1.547-.423-1.038-.084-2.182t1.398-1.737q1.06-.614 1.885-.53l1.23.191q.36.106.995.53m-.636-5.424q-3.707-1.504-5.529-3.41-1.674-1.716-1.674-3.665l.17-1.271q.212-.954.762-1.886.551-.953 1.568-1.758.996-.805 2.797-.932l2.86.169q1.419.424 1.8.911.403-1.377 1.632-2.394 1.228-1.038 3.643-1.25 2.86.276 4.386 2.648 1.44 2.225 1.377 5.466-.064 3.241-1.123 6.038-1.08 2.796-2.712 4.809-1.652 2.012-2.224 1.631l-1.398-1.123q-1.61-1.483-4.259-2.945zm15.614 1.356q1.504-.02 2.245.742t.657 2.16q1.568.276 2.224.954.551.572.551 1.631 0 1.759-1.08 2.564t-2.627.762-2.924.34q-1.398.38-1.737.614t-.784-1.039q-.487-1.398-.487-2.69 0-2.394 1.229-4.195 1.228-1.822 2.733-1.843"/><path fill="none" stroke="#fff" stroke-linecap="round" stroke-linejoin="round" stroke-width="2.966" d="M31.276 22.415q-1.505.021-2.733 1.843-1.229 1.801-1.229 4.195 0 1.292.487 2.69.445 1.272.784 1.039t1.737-.615q1.377-.381 2.924-.339 1.546.043 2.627-.762t1.08-2.564q0-1.06-.55-1.631-.657-.678-2.225-.953.085-1.399-.657-2.161-.741-.763-2.245-.742M15.662 21.06l2.076 1.038q2.648 1.462 4.259 2.945l1.398 1.123q.572.381 2.224-1.631 1.631-2.013 2.712-4.81 1.06-2.796 1.123-6.037t-1.377-5.466Q26.55 5.85 23.69 5.573q-2.415.212-3.643 1.25-1.23 1.017-1.632 2.394-.381-.487-1.8-.911l-2.86-.17q-1.801.128-2.797.933-1.017.805-1.568 1.758-.55.932-.762 1.886l-.17 1.27q0 1.95 1.674 3.666 1.822 1.906 5.53 3.41m.635 5.424q-.636-.424-.996-.53l-1.229-.19q-.826-.085-1.885.53-1.06.592-1.398 1.736-.34 1.144.084 2.182t1.335 1.547q.911.53 1.547.762.635.212 1.461.87.827.635 1.314 1.334l.212.148h.254l.212-.148q.995-.763 1.292-1.102l.53-.55 1.144-1.505q.89-1.292.91-2.923l-.063-.869v-.042q-.402-2.076-2.436-2.161l-.657.042-.19.043q-.848.233-1.441.826"/><path fill-rule="evenodd" d="M15.662 21.06q-3.707-1.505-5.529-3.411-1.674-1.716-1.674-3.665l.17-1.271q.212-.954.784-1.886.55-.932 1.694-1.674 1.123-.741 2.776-.932 1.652-.212 3.686.466l.91.34q.425-1.272 1.569-2.204 1.228-1.038 3.643-1.25 2.86.276 4.386 2.648 1.44 2.225 1.377 5.466-.064 3.241-1.123 6.038-1.08 2.796-2.712 4.809-1.652 2.012-2.224 1.631l-1.674-1.462q-1.101-1.059-3.983-2.606zM23.501 7.67q-1.78 0-2.733 1.314-.72.974-.72 1.949l.105 1.356q-.89-.763-2.372-1.398-1.483-.657-3.242-.53t-2.627 1.144q-.868.996-.953 1.991-.106.996.424 2.161t3.262 2.479q2.712 1.292 5.042 2.86l3.962 2.67q1.716-2.352 2.712-4.323.974-1.97 1.144-5.02.148-3.051-.932-4.788Q25.407 7.67 23.5 7.67m7.775 14.745q1.504-.02 2.245.742t.657 2.16q1.568.276 2.224.954.551.572.551 1.631 0 1.759-1.08 2.564t-2.627.762-2.924.34q-1.398.38-1.737.614t-.784-1.039q-.487-1.398-.487-2.69 0-2.394 1.229-4.195 1.228-1.822 2.733-1.843m.148 1.526q-1.335 0-1.992 1.27-.656 1.272-.699 2.522-.042 1.228.127 1.885l.234.848q.656-.467 3.898-.7 2.457-.169 2.457-1.758.042-.487-.339-.869-.763-.762-2.881-.275l.36-.784.127-.656q0-1.483-1.292-1.483m-15.126 2.542q.593-.593 1.44-.826l.191-.043.657-.042q2.034.085 2.436 2.16v.043l.064.869q-.022 1.63-.911 2.923l-1.144 1.504-.53.551q-.297.34-1.292 1.102l-.212.148h-.254l-.212-.148q-.487-.7-1.314-1.335-.826-.657-1.461-.869-.636-.233-1.547-.762-.91-.509-1.335-1.547-.423-1.038-.084-2.182t1.398-1.737q1.06-.614 1.885-.53l1.23.191q.36.106.995.53m-3.814 2.415q-.063.487.149.91l.127.234.106.106 1.78 1.038q.487.233 1.355.953l.954.826.868-.89 1.186-1.461.191-.297.254-.572.233-.847q.064-.551-.063-.869l-.297-.55q-.19-.234-.656-.382-.488-.148-1.123.212-.636.36-1.06 1.017l-.148.339-.085-.064q-.91-1.165-2.351-1.25-1.271.255-1.42 1.547"/><path fill="#e1adac" fill-rule="evenodd" d="M23.5 7.67q1.907 0 3.073 1.865 1.08 1.737.932 4.788-.17 3.05-1.144 5.02-.996 1.97-2.712 4.322l-3.962-2.67q-2.33-1.567-5.042-2.86-2.733-1.313-3.262-2.478-.53-1.165-.424-2.16.085-.996.953-1.992.87-1.017 2.627-1.144 1.759-.127 3.242.53 1.483.635 2.372 1.398l-.105-1.356q0-.975.72-1.949Q21.72 7.67 23.5 7.67m7.923 16.27q1.292 0 1.292 1.484l-.127.656-.36.784q2.118-.487 2.881.275.381.382.339.87 0 1.588-2.457 1.757-3.242.233-3.898.7l-.234-.848q-.169-.657-.127-1.885.043-1.25.7-2.521t1.99-1.271m-18.939 4.957q.149-1.292 1.42-1.547 1.44.085 2.351 1.25l.085.064.148-.34q.424-.656 1.06-1.016.635-.36 1.123-.212.466.148.656.381l.297.551q.127.318.063.869l-.233.847-.254.572-.19.297-1.187 1.462-.868.89-.954-.827q-.868-.72-1.356-.953l-1.78-1.038-.105-.106-.127-.233q-.212-.424-.149-.911"/></svg>