<svg xmlns="http://www.w3.org/2000/svg" width="42.85" height="42.85" baseProfile="full"><path fill="#fff" fill-rule="evenodd" d="m33.11 9.024 1.628.307.322.345-.018-.03q.239.27.335.685.371 1.032-.124 1.624l-.223.251-.536.453-.485.362-.914.895-.655.705q-.736.813-1.415 2.574-.697 1.73.07 2.739l.202.21.798.602-.025-.007 1.743 1.037.554.252 1.721.539q2.733.628 2.393 2.092-.043 1.128-.634 1.591l-.932.58-1.164.283q-.846.162-1.326.889-.627 1.179-.855 2.128-.222.925-.574 1.271l-.601.409-.694.073-.66-.047-.025-.007-.193-.052q-.873-.415-1.26-.907-1.439-1.396-3.194-2.384l-.218-.059q-1.107-.219-1.758.954l-.006.024q-.982 1.732-1.118 2.913l-.143 1.697-.026.097-.044.454-.034.224-.115.332-.194.337-.205.282q-.249.348-.694.462l-1.112.09-.369-.073-.145-.039q-1-.423-1.393-1.28l-.046-.115-.076-.202-.006.024-.1-.208q-.259-.484-.739-.82l-.192-.154-1.13-1.003-.823-.505-1.123-.353-2.34-.16q-1.646-.338-1.875-1.124-.299-1.013.916-2.164l.166-.137 2.117-1.712q1.091-1.366 1.22-2.523l-.007.024.024-.667q-.115-1.119-.566-1.758-.444-.663-1.17-1.142l-1.324-.666-.914-.167-1.5-.298-.048-.013q-2.272-.609-1.6-2.346.281-.857 1.293-1.44 1.791-.79 1.563-2.742-.866-2.279.821-3.355.913-.507 1.529-.29.821.22 1.156.905l.404.523.657.642.995.733 1.198.554 1.812.59q1.08.315 1.461.054.32-.225.927-1.332.884-1.654 1.184-3.258l.026-.096.196-.828.006-.025.217-1.004-.013.049q.088-.91.54-1.436.74-1.02 1.874-1 1.191.293 1.561 1.04l.368.85q1.186 2.053 3.235 2.913l1.305.35zM12.585 29.171l.037-.042-.092.053zm.215-.124-.049-.013q-.169-.045-.105.102l.062-.036.006-.024.08-.005.03-.017.079-.005-.08.005zm8.27 4.806.025.007zm4.37-26.469.12-.641.014-.049.064-.241q.498-.696-.617-.114l.053.092.049.013q.651-.11.43.038l-.373.133.107.184-.161-.173-.08.005-.004-.079-.022-.11-.025-.006.007-.024-.011-.055-.399.23.455.044.11.263zl-.112.514-.209.877q-.397 1.966-1.45 3.963-1.365 2.484-2.879 2.623l-.03.017q-1.382.226-2.595-.177l-1.757-.6-.048-.013-1.542-.724-.017-.03q-.632-.35-1.63-1.266.213 2.492-1.96 4.32l.931.197.814.347.554.253-.006.024.739.43q.475.258.852.592 1.23.822 1.697 1.983.565 1.369.462 3.206l-.007.024q-.103 1.838-1.858 4.036l-.105.101-.986.876.986.186 1.22.379.09.05q.735.352 1.382.837l.025.006q.737.534 1.388 1.2.82.61 1.323 1.443l-.021.176.077.098.154.197.082.178.03.085.024.007-.136-.27-.21-.47.07-.94q.094-1.607 1.42-3.946 1.652-2.977 4.57-2.17l.363.098.277.126q2.147 1.171 3.904 2.833.049-.764.792-1.99.906-1.544 1.872-1.959l.685-.334-2.038-.805-.024-.007-1.923-1.137-.018-.03q-.852-.591-1.132-.9l-.531-.53-.036-.062q-.375-.437-.584-1.011-.464-.876-.415-2.028l-.01-.055q.066-.733.226-1.234l.115-.332q.275-.833.76-1.48l.293-.518q.91-1.465 1.96-2.48l.006-.024.494-.49-.073-.019-1.836-.492-.097-.026q-2.737-1.096-4.362-3.733"/><path fill="none" stroke="#fff" stroke-linecap="round" stroke-linejoin="round" d="m33.11 9.024-1.136.084-1.305-.35q-2.05-.86-3.235-2.912l-.368-.85q-.37-.747-1.56-1.04-1.135-.02-1.875 1-.452.527-.54 1.436l.013-.049-.217 1.004-.006.025-.196.828-.026.096q-.3 1.604-1.184 3.258-.607 1.107-.927 1.332-.38.26-1.461-.055l-1.812-.589-1.198-.554-.995-.733-.657-.642-.404-.523q-.335-.685-1.156-.905-.616-.217-1.529.29-1.687 1.076-.82 3.355.227 1.952-1.564 2.741-1.012.584-1.293 1.441-.672 1.737 1.6 2.346l.048.013 1.5.298.914.167 1.324.666q.726.48 1.17 1.142.451.639.566 1.758l-.024.667.007-.024q-.129 1.157-1.22 2.523l-2.117 1.712-.166.137q-1.215 1.151-.916 2.164.23.786 1.875 1.124l2.34.16 1.123.353.823.505 1.13 1.003.192.155q.48.335.739.82l.1.207.006-.024.076.202.046.116q.393.856 1.393 1.28l.145.038.37.073 1.111-.09q.445-.114.694-.462l.205-.282.194-.337.115-.332.034-.224.044-.454.026-.097.143-1.697q.136-1.181 1.118-2.913l.006-.024q.65-1.173 1.758-.954l.218.059q1.755.988 3.195 2.384.386.492 1.26.907l.192.052.025.007.66.047.694-.073.601-.409q.352-.346.574-1.271.228-.95.855-2.128.48-.727 1.326-.889l1.164-.284.932-.579q.59-.463.634-1.591.34-1.464-2.393-2.092l-1.72-.539-.555-.252-1.743-1.037.025.007-.798-.602-.202-.21q-.767-1.008-.07-2.739.68-1.76 1.415-2.574l.655-.705.914-.895.485-.362.536-.453.223-.25q.495-.593.124-1.625-.096-.415-.335-.686l.018.03-.322-.344z"/><path fill="#fff" fill-rule="evenodd" d="m11.187 15.922.372-.134z"/><path fill="#7c5991" fill-rule="evenodd" d="M26.304 6.294q1.442 2.64 4.017 3.667l1.692.453 1.064-.104-.03.018-.983.67q-1.518 1.121-2.66 2.577-.558.731-.984 1.55-.519.87-.941 2.156l-.006.025-.048.272q-.422 1.674.583 3.239 1.47 2.155 3.94 3.283l1.866.863 2.101.666.145.039-1.472.564q-.716.352-1.562 1.576-.84 1.2-.706 1.573-.424-1.124-1.461-1.894-1.738-1.347-3.761-2.303-1.652-.702-2.71-.234-1.082.462-1.82 1.378-.737.916-1.31 2.187t-.887 2.923l-.43 2.475-1.35-1.345q-.584-.623-1.297-1.151l-1.184-.706-1.099-.346-1.12-.17-.12-.033-.159.01.857-.393 1.334-1.404q.906-1.156 1.509-2.73t.712-2.659q.085-1.09-.098-1.762l-.769-1.579q-.572-.956-1.605-1.647t-1.707-.976q-.7-.29-1.94-.493l-1.459-.262-.285.002-.127-.008q2.218-1.608 1.905-3.92l.322.345q1.428 1.342 3.23 2.058l.85.408q3.322 1.33 5.223.519 1.883-.843 2.906-2.822.776-1.735 1.316-3.56l.23-.663.32-2.064zm7.145 3.883.406.031.066.044-.024-.007zm-22.262 5.745.372-.134z"/><path fill-rule="evenodd" d="M33.077 10.31q.184-.106.372-.133l.448.068.024.007q.09.05.186.179l.117.238q.151.404.014.626l-.604.512q-.466.29-1.392 1.233-.95.937-1.774 2.27l-.325.535q-.41.564-.628 1.282l-.095.26-.168.914q-.02.849.303 1.48l.4.729.508.524.965.75 1.833 1.087 2.576.924q1.439.333 1.43.85-.008.515-.28.753l-.75.291-.177-.021-.145-.039-2.1-.666-1.868-.863q-2.47-1.128-3.939-3.283-1.005-1.565-.583-3.239l.048-.272.006-.025q.422-1.285.94-2.157.427-.818.986-1.55 1.14-1.455 2.659-2.577l.982-.669zm-.756 19.07q.3.522-.285 1.064-.258.19-.622.196l-.024-.007q-.579-.258-.828-.584-1.643-1.606-3.7-2.727l-.362-.097q-2.013-.513-3.164 1.562-1.145 2.05-1.26 3.444l-.161 1.667-.053.582-.076.187-.006.024-.242.323-.487.077-.556-.149q-.35-.145-.443-.377l-.096-.415-.014-.237.43-2.475q.313-1.652.886-2.923.574-1.27 1.312-2.187.737-.916 1.82-1.378 1.057-.468 2.709.234 2.023.956 3.76 2.303 1.038.77 1.462 1.894m-18.708.79-.36.086-.054.01-.11.023-.54-.015-.024-.006q-1.342-.308-.368-1.239l2.307-1.843q1.47-1.808 1.592-3.33.098-1.527-.374-2.664-.344-.844-1.293-1.46-.335-.297-.786-.548l-.625-.374-.572-.283-.657-.254-.762-.152-1.355-.26q-.87-.233-.715-.813.162-.604.655-.705l.463-.083.127.008.285-.002 1.459.262q1.24.203 1.94.493.675.285 1.707.976t1.605 1.647l.769 1.58q.183.67.098 1.761-.11 1.085-.712 2.659-.603 1.574-1.509 2.73L14.47 29.78zm-1.673-17.83-.012-.055-.006.025q-.632-1.413.313-2.04.486-.363.738.145l.828.973q1.051 1.007 1.676 1.382l1.403.66 1.708.588q.954.307 2.013.124 1.035-.189 2.012-2t1.33-3.607l.215-.9.212-1.083q.064-.527.306-.85l.29-.312q.736-.424 1.194.476l.07.122.075.305.032.268-.32 2.064-.23.664q-.54 1.824-1.316 3.559-1.023 1.98-2.906 2.822-1.901.812-5.223-.519l-.85-.408q-1.802-.716-3.23-2.058z"/></svg>