<svg xmlns="http://www.w3.org/2000/svg" width="42.85" height="42.85" baseProfile="full"><path fill="none" stroke="#fff" stroke-linecap="round" stroke-linejoin="round" stroke-width="2.886" d="m22.246 6.312-2.79 7.769-7.287-3.271-.794-.289-.457-.048q-.192.096.385 1.154l3.704 6.253q-6.23 2.43-7.119 2.814-.842.41-.505.746.337.337 4.064 1.275l3.8.962-4.184 6.541q-.193.313-.048.481l.673.024 8.273-3.535v.024q1.563 7.047 1.756 7.528.192.48.553.288l.36-.385.241-.457 2.405-6.95 7.456 2.91.89.289q.408.096.36-.12l-.144-.385-4.738-7.288q8.49-3.51 8.754-3.727.361-.385-.457-.554l-7.094-1.49 3.03-5.436q.313-.745.168-.89-.144-.168-.24-.168l-.313.048-7.36 3.078-1.875-7.455q-.168-.794-.457-1.034-.265-.217-.505.144z"/><path fill-rule="evenodd" d="m22.27 6.24.505-1.154q.24-.36.505-.144.289.24.457 1.034l1.876 7.455q7.215-3.054 7.36-3.078l.312-.048.24.168q.145.144-.168.89l-3.03 5.435 7.094 1.491q.818.169.457.553l-8.754 3.728 4.738 7.287.144.385q.048.217-.36.12l-.89-.288-7.456-2.91-2.405 6.95-.24.457-.361.385q-.36.192-.553-.289-.193-.48-1.756-7.527v-.024l-8.273 3.535-.673-.024q-.145-.168.048-.481l4.184-6.542-3.8-.962q-3.727-.938-4.064-1.274t.505-.746q.89-.385 7.119-2.814l-3.704-6.253q-.577-1.058-.385-1.154l.457.048.794.289 7.287 3.27zm9.26 6.109-6.927 3.535q-1.54.722-.986.12l.553-.577-1.299-6.349-2.236 6.494q1.683 1.25.505.841l-7.215-3.174q4.256 5.748 4.4 6.253.193.745-1.466-.722l-5.388 2.117 5.58 1.106.36-.337q.29-.264.506-.264.168-.024-.024.457l-3.8 6.229 6.998-3.103q1.395-.505.24.65l.939 5.098 1.707-4.978-.216-.217-.313-.433q-.096-.216.193-.144l7.672 3.271-4.45-6.734q-.168-.313 0-.385.145-.072.626.36l6.277-2.428h-.024l-5.195-.794-.77.722-.625.48q-.457.29-.481.193-.048-.12.24-.601z"/><path fill="#707355" fill-rule="evenodd" d="m31.53 12.349-4.618 6.686q-.289.48-.24.601.023.096.48-.192l.625-.481.77-.722 5.195.794h.024l-6.277 2.429q-.481-.433-.626-.36-.168.071 0 .384l4.45 6.734-7.672-3.27q-.289-.073-.193.143l.313.433.216.217-1.707 4.978-.938-5.098q1.154-1.155-.24-.65l-7 3.103 3.8-6.23q.193-.48.025-.456-.217 0-.505.264l-.36.337-5.58-1.106 5.387-2.117q1.66 1.467 1.467.722-.145-.505-4.401-6.253l7.215 3.174q1.178.41-.505-.841l2.236-6.494 1.299 6.35-.553.577q-.553.6.986-.12z"/><path fill="none" stroke="#000" stroke-linecap="round" stroke-linejoin="round" d="m22.27 6.24-2.79 7.768-7.287-3.27-.794-.289-.457-.048q-.192.096.385 1.154l3.704 6.253q-6.23 2.43-7.119 2.814-.842.409-.505.746.337.336 4.064 1.274l3.8.962-4.184 6.542q-.193.313-.048.481l.673.024 8.273-3.535v.024q1.563 7.046 1.756 7.527.192.481.553.289l.36-.385.241-.457 2.405-6.95 7.456 2.91.89.288q.408.097.36-.12l-.144-.385-4.738-7.287 8.754-3.728q.361-.384-.457-.553l-7.094-1.49 3.03-5.436q.313-.746.168-.89l-.24-.168-.313.048q-.144.024-7.36 3.078l-1.875-7.455q-.168-.794-.457-1.034-.265-.217-.505.144z"/></svg>