<?xml version="1.0" encoding="UTF-8" standalone="no"?>
<svg
   width="62.849998"
   height="64.349998"
   version="1.1"
   id="svg4"
   sodipodi:docname="Mutation ears.340.svg"
   xmlns:inkscape="http://www.inkscape.org/namespaces/inkscape"
   xmlns:sodipodi="http://sodipodi.sourceforge.net/DTD/sodipodi-0.dtd"
   xmlns="http://www.w3.org/2000/svg"
   xmlns:svg="http://www.w3.org/2000/svg">
  <defs
     id="defs4" />
  <sodipodi:namedview
     id="namedview4"
     pagecolor="#ffffff"
     bordercolor="#000000"
     borderopacity="0.25"
     inkscape:showpageshadow="2"
     inkscape:pageopacity="0.0"
     inkscape:pagecheckerboard="0"
     inkscape:deskcolor="#d1d1d1"
     fit-margin-top="5"
     fit-margin-left="5"
     fit-margin-right="5"
     fit-margin-bottom="5" />
  <clipPath
     transform="matrix(1.0, 0.0, 0.0, 1.0, 0.0, 0.0)"
     id="_7850fdae8551-8ab9-4a78-861d-890f2e04c849">
    <path
       d="m 1.35,3.4 -1.4,0.1 -1.1,-0.85 q -0.7,-1 -0.15,-2.3 0.45,-1 1.25,-1.2 1,-0.4 1.9,0.45 0.75,0.75 0.65,1.85 0,1.4 -1.15,1.95"
       fill="#000000"
       fill-rule="evenodd"
       stroke="none"
       id="path1" />
  </clipPath>
  <g
     clip-path="url(#_7850fdae8551-8ab9-4a78-861d-890f2e04c849)"
     id="g4"
     transform="translate(33.25,35.5)">
    <g
       transform="translate(-3.85,8.25)"
       id="g3">
      <g
         transform="matrix(1.7837677,0,0,1.802124,-100.05,-97.45)"
         id="g2">
        <g
           id="DefineShape_593">
          <path
             d="M 0,0 H 112.15 V 108.15 H 0 V 0"
             fill="#b9ae93"
             fill-rule="evenodd"
             stroke="none"
             id="path2" />
        </g>
      </g>
    </g>
  </g>
  <g
     id="DefineShape_7851"
     transform="translate(33.25,35.5)">
    <path
       d="m 14.2,14.75 -0.15,0.15 2.85,7.95 -6.85,-4.6 q -6,3.9 -13.7,3.9 l -3.2,-0.15 -4.3,6.85 -0.6,-7.95 q -5.4,-1.75 -9.8,-6.15 -2.4,-2.35 -3.9,-5 l -7.8,0.85 5.7,-5.25 q -1.4,-4 -1.4,-8.45 0,-5 1.7,-9.3 l -5.6,-5.55 7.9,1.15 q 1.4,-2.15 3.4,-4.15 4.65,-4.65 10.5,-6.35 l 0.9,-8.2 4.25,7.2 2.25,-0.05 q 7.9,0 14.05,4.25 l 7.25,-4.55 -3.1,8.05 q 6.2,6.4 6.95,15.05 l 8.1,2.85 -8.15,2.6 Q 20.5,8.45 14.2,14.75"
       fill="#ffffff"
       fill-opacity="0.498039"
       fill-rule="evenodd"
       stroke="none"
       id="path4" />
  </g>
</svg>
