<?xml version="1.0" encoding="UTF-8" standalone="no"?>
<svg
   ffdec:objectType="frame"
   height="60.549999"
   width="67.173683"
   version="1.1"
   id="svg7"
   sodipodi:docname="104.svg"
   xmlns:inkscape="http://www.inkscape.org/namespaces/inkscape"
   xmlns:sodipodi="http://sodipodi.sourceforge.net/DTD/sodipodi-0.dtd"
   xmlns:xlink="http://www.w3.org/1999/xlink"
   xmlns="http://www.w3.org/2000/svg"
   xmlns:svg="http://www.w3.org/2000/svg"
   xmlns:ffdec="https://www.free-decompiler.com/flash">
  <sodipodi:namedview
     id="namedview7"
     pagecolor="#ffffff"
     bordercolor="#000000"
     borderopacity="0.25"
     inkscape:showpageshadow="2"
     inkscape:pageopacity="0.0"
     inkscape:pagecheckerboard="0"
     inkscape:deskcolor="#d1d1d1"
     fit-margin-top="5"
     fit-margin-left="5"
     fit-margin-right="5"
     fit-margin-bottom="5" />
  <g
     transform="translate(1.5736842,1.5)"
     id="g3">
    <use
       ffdec:characterId="516"
       height="57.549999"
       width="64.099998"
       xlink:href="#shape0"
       id="use1" />
    <use
       ffdec:characterId="616"
       height="60.450001"
       transform="translate(-1.55,-1.45)"
       width="67.099998"
       xlink:href="#shape1"
       id="use2" />
    <use
       ffdec:characterId="518"
       height="60.549999"
       transform="translate(-1.5,-1.5)"
       width="67.099998"
       xlink:href="#shape2"
       id="use3" />
  </g>
  <defs
     id="defs7">
    <g
       id="shape0">
      <path
         d="M 53.6,0 H 64.1 V 57.55 H 53.6 28.25 0 V 0 H 28.25 53.6 V 57.55 0 M 28.25,0 V 57.55 0"
         fill="#ffffff"
         fill-rule="evenodd"
         stroke="none"
         id="path3" />
    </g>
    <g
       id="shape1"
       transform="translate(1.55,1.45)">
      <path
         d="M 6.35,1.8 Q 5.7,0.95 6,0 6.3,-1 7.4,-1.25 8.5,-1.4 9.15,-0.6 l 3.05,6.85 0.4,1.25 q 0,0.65 -0.35,0.7 L 11.8,8.1 10.8,7.1 6.35,1.8 M 53.6,11.65 Q 53.05,12.1 52.75,11.85 52.4,11.6 52.7,11 53.25,9.5 54.95,7.55 l 5.8,-6.9 q 1.3,-1.6 2.4,-1.65 1.2,-0.1 1.8,0.9 0.6,1 0.1,2.05 l -1.1,1.3 -10.35,8.4 m 4.05,-9.85 -4.45,5.3 -1,1 -0.45,0.1 Q 51.4,8.15 51.4,7.5 51.45,6.9 51.8,6.25 L 54.85,-0.6 Q 55.5,-1.4 56.6,-1.25 57.7,-1 58,0 58.3,0.95 57.65,1.8 M 62.5,6.35 Q 63.35,5.7 64.3,6 q 1,0.3 1.25,1.4 0.15,1.1 -0.65,1.75 l -6.85,3.05 -1.25,0.4 q -0.65,0 -0.7,-0.35 l 0.1,-0.45 1,-1 5.3,-4.45 m -23.35,25.1 -1.6,1.55 -0.6,0.5 q 1.2,0.95 2.5,2.9 1,1.45 1.3,2.6 0.4,1.15 0.4,2.65 0.2,3.05 -1.15,4.4 l -2.1,1.2 Q 33.3,49 28.4,48 27,47.8 25.7,47.1 24.35,46.35 23.55,45.25 L 22.2,44.05 Q 20.85,42.8 19.9,42.65 19.05,42.45 17.85,43 L 16,44 q -2.3,1.35 -3.95,0.9 -0.9,-0.2 -1.3,-0.8 L 10.5,43.7 10.1,43.25 Q 9.8,42.95 9.9,42.55 10,42 10.45,41.9 l 0.45,0.1 0.15,0.4 1.45,0.3 q 0.75,-0.1 2.35,-1.45 2.5,-2.2 5.1,-2.15 l 1.7,0.3 1.05,0.4 0.5,-1.6 q 1.25,-3.05 3.3,-4.9 L 25.35,32.15 Q 24.3,31 23.9,29.95 q -0.8,-1.8 -0.3,-4 L 23.9,25.05 22.8,24.7 21.7,24.3 20.75,23.55 20,22.6 19.65,21.25 q -0.1,-1.65 0.75,-3.1 0.8,-1.4 2.3,-2.25 l 0.85,-0.4 1,-0.1 1.45,0.15 1.4,0.8 0.9,0.7 0.8,1.15 0.3,0.8 0.15,-0.05 4.3,-0.2 0.8,0.2 Q 35.2,17.5 36.5,16.5 l 0.8,-0.55 q 1.45,-0.75 3,-0.35 1.45,0.3 2.7,1.4 l 0.85,1 q 0.7,1.15 0.55,2.6 -0.15,1.35 -1,2.5 -1,1.4 -2.6,2 l -0.6,0.2 q 0.4,2 -0.2,4.15 l -0.85,2 m 23.35,19.8 -5.3,-4.45 -1,-1 -0.1,-0.45 Q 56.15,45 56.8,45 l 1.25,0.4 6.85,3.05 q 0.8,0.65 0.65,1.75 -0.25,1.1 -1.25,1.4 -0.95,0.3 -1.8,-0.35 m -8.9,-5.3 10.35,8.4 1.1,1.3 q 0.5,1.05 -0.1,2.05 -0.6,1 -1.8,0.9 -1.1,-0.05 -2.4,-1.65 l -5.8,-6.9 Q 53.25,48.1 52.7,46.6 52.4,46 52.75,45.75 q 0.3,-0.25 0.85,0.2 M 34.45,28.5 q 0.6,1.3 2.05,1.65 1.45,0.35 2.55,-0.6 1.2,-1 1.1,-2.4 L 40,26.3 q -0.4,-1.35 -1.7,-1.85 l -2.5,0.1 q -1.2,0.55 -1.55,1.95 -0.2,0.8 0.1,1.7 l 0.1,0.3 M 1.5,6.35 l 5.3,4.45 1,1 0.1,0.45 Q 7.85,12.6 7.2,12.6 L 5.95,12.2 -0.9,9.15 Q -1.7,8.5 -1.55,7.4 -1.3,6.3 -0.3,6 0.65,5.7 1.5,6.35 m 8.9,5.3 -10.35,-8.4 -1.1,-1.3 q -0.5,-1.05 0.1,-2.05 0.6,-1 1.8,-0.9 1.1,0.05 2.4,1.65 l 5.8,6.9 q 1.7,1.95 2.25,3.45 0.3,0.6 -0.05,0.85 -0.3,0.25 -0.85,-0.2 M 1.5,51.25 Q 0.65,51.9 -0.3,51.6 -1.3,51.3 -1.55,50.2 -1.7,49.1 -0.9,48.45 L 5.95,45.4 7.2,45 q 0.65,0 0.7,0.35 l -0.1,0.45 -1,1 -5.3,4.45 m 8.9,-5.3 q 0.55,-0.45 0.85,-0.2 0.35,0.25 0.05,0.85 -0.55,1.5 -2.25,3.45 l -5.8,6.9 q -1.3,1.6 -2.4,1.65 -1.2,0.1 -1.8,-0.9 -0.6,-1 -0.1,-2.05 l 1.1,-1.3 10.35,-8.4 M 25.15,26.1 q -0.8,1.15 -0.4,2.45 0.35,1.2 1.45,1.7 l 2.3,0.05 q 1.15,-0.5 1.55,-1.65 l 0.1,-0.4 0.05,-0.75 Q 30.1,26.55 29.5,25.95 L 29.45,25.9 q -0.85,-1.05 -2.2,-0.95 -1.35,0.1 -2.1,1.15 m 7.55,6.05 0.9,-0.25 0.3,-0.55 -0.15,-0.6 L 33.1,30.6 V 30.35 L 32.95,30 Q 32.8,29.65 32.3,29.55 l -0.15,0.05 -0.4,0.3 -0.25,0.6 -0.05,0.25 -1,0.05 -0.7,0.15 q -0.45,0.2 -0.65,0.65 -0.25,0.5 -0.05,0.95 0.15,0.45 0.65,0.7 l 0.9,0.05 1.05,-0.7 Q 32.1,32.25 32.7,32.15 M 29,28.95 Q 28.1,30 26.9,29.6 26.35,29.45 25.95,29 q -0.4,-0.5 -0.45,-1.1 -0.1,-1.35 1.1,-1.95 1.25,-0.55 2.2,0.35 0.55,0.5 0.6,1.3 0.05,0.8 -0.4,1.35 M 6.35,55.8 l 4.45,-5.3 1,-1 0.45,-0.1 q 0.35,0.05 0.35,0.7 L 12.2,51.35 9.15,58.2 Q 8.5,59 7.4,58.85 6.3,58.6 6,57.6 5.7,56.65 6.35,55.8 m 51.3,0 q 0.65,0.85 0.35,1.8 -0.3,1 -1.4,1.25 Q 55.5,59 54.85,58.2 L 51.8,51.35 q -0.35,-0.65 -0.4,-1.25 0,-0.65 0.35,-0.7 l 0.45,0.1 1,1 4.45,5.3"
         fill="#767676"
         fill-rule="evenodd"
         stroke="none"
         id="path4" />
      <path
         d="m 34.45,28.5 -0.1,-0.3 q -0.3,-0.9 -0.1,-1.7 0.35,-1.4 1.55,-1.95 l 2.5,-0.1 q 1.3,0.5 1.7,1.85 l 0.15,0.85 q 0.1,1.4 -1.1,2.4 -1.1,0.95 -2.55,0.6 -1.45,-0.35 -2.05,-1.65 m -1.75,3.65 q -0.6,0.1 -1.05,0.45 L 30.6,33.3 29.7,33.25 Q 29.2,33 29.05,32.55 28.85,32.1 29.1,31.6 q 0.2,-0.45 0.65,-0.65 l 0.7,-0.15 1,-0.05 0.05,-0.25 0.25,-0.6 0.4,-0.3 0.15,-0.05 q 0.5,0.1 0.65,0.45 l 0.15,0.35 v 0.25 l 0.65,0.15 0.15,0.6 -0.3,0.55 -0.9,0.25 M 25.15,26.1 q 0.75,-1.05 2.1,-1.15 1.35,-0.1 2.2,0.95 l 0.05,0.05 q 0.6,0.6 0.7,1.55 l -0.05,0.75 -0.1,0.4 q -0.4,1.15 -1.55,1.65 l -2.3,-0.05 q -1.1,-0.5 -1.45,-1.7 -0.4,-1.3 0.4,-2.45 M 29,28.95 q 0.45,-0.55 0.4,-1.35 -0.05,-0.8 -0.6,-1.3 -0.95,-0.9 -2.2,-0.35 -1.2,0.6 -1.1,1.95 0.05,0.6 0.45,1.1 0.4,0.45 0.95,0.6 1.2,0.4 2.1,-0.65"
         fill="#ffffff"
         fill-rule="evenodd"
         stroke="none"
         id="path5" />
      <path
         d="M 28.5,6.45 28.45,5.95 27.95,3.3 Q 27.75,1.85 28.2,0.8 28.6,-0.35 29.75,-0.9 30.8,-1.55 32,-1.45 h 0.1 q 1.15,-0.1 2.1,0.55 1.25,0.55 1.7,1.7 0.4,1.05 0.25,2.5 l -0.55,2.65 -0.1,0.5 4.15,0.7 q 4.15,1.7 8.4,6 3.25,3.35 4.6,6.1 l 0.85,1.95 0.3,0.9 0.5,2.3 0.05,0.65 v 0.1 l 0.55,-0.1 2.65,-0.55 2.5,0.25 q 1.15,0.45 1.7,1.7 0.65,0.95 0.45,2.1 v 0.1 q 0.2,1.2 -0.45,2.25 -0.55,1.15 -1.7,1.55 L 57.55,32.7 54.9,32.2 54.35,32.15 53.5,36.4 q -1.7,4.15 -6,8.4 -3.35,3.25 -6.1,4.6 l -2.85,1.15 -0.95,0.25 -0.7,0.15 -0.35,0.05 -1.05,0.1 0.1,0.55 0.55,2.65 q 0.15,1.4 -0.25,2.5 -0.45,1.15 -1.7,1.7 -0.95,0.65 -2.1,0.45 H 32 Q 30.8,59.15 29.75,58.5 28.6,57.95 28.2,56.8 27.75,55.7 27.95,54.3 L 28.45,51.65 28.5,51.1 27.65,51 H 28.2 L 27.25,50.95 26.2,50.75 25.75,50.6 22.65,49.4 Q 19.9,48.05 16.5,44.8 13.85,42.1 12.2,39.45 L 11.35,38 10.6,36.4 Q 10.05,34.9 9.7,32.15 L 9.2,32.2 6.55,32.7 4.05,32.45 Q 2.9,32.05 2.35,30.9 1.7,29.85 1.8,28.65 v -0.1 Q 1.7,27.4 2.35,26.45 2.9,25.2 4.05,24.75 l 2.5,-0.25 2.65,0.55 0.5,0.1 q 0.25,-2.1 0.7,-3.35 0.35,-1.35 0.95,-2.55 1.45,-2.75 4.7,-6.1 4.25,-4.3 8.4,-6 Q 26,6.6 28.5,6.45 m -2.95,6.4 q -3.4,1.45 -6.05,4.3 -0.95,0.95 -1.75,2 -0.95,1.4 -1.65,2.95 l -0.35,0.95 q -0.4,1.15 -0.65,2.3 l 0.8,-0.05 1.95,0.25 q 1.45,0.25 2.1,0.9 0.85,0.65 0.8,1.85 v 0.35 0.3 q 0.05,1.15 -0.8,1.95 -0.65,0.55 -2.1,0.75 l -1.95,0.25 -0.8,-0.05 0.75,2.6 0.2,0.45 0.05,0.2 q 1.45,3.4 4.3,6.05 l 3.2,2.6 1.95,1 0.2,0.1 0.45,0.15 2.6,0.7 -0.05,-0.8 Q 28.8,43.8 29,43 q 0.2,-1.45 0.75,-2.1 0.8,-0.85 1.95,-0.8 h 0.3 0.35 q 1.2,-0.05 1.85,0.8 0.65,0.65 0.9,2.1 l 0.25,1.9 -0.05,0.8 2.3,-0.6 0.95,-0.35 2.4,-1.3 2.75,-2.3 Q 46.5,38.5 48,35.1 l 0.1,-0.2 0.15,-0.45 0.7,-2.6 -0.8,0.05 -1.9,-0.25 q -1.45,-0.2 -2.1,-0.75 -0.85,-0.8 -0.8,-1.95 v -0.3 -0.35 q -0.05,-1.2 0.8,-1.85 0.65,-0.65 2.1,-0.9 l 1.9,-0.25 0.8,0.05 -0.6,-2.3 L 48,22.1 46.7,19.65 44.5,17.15 q -2.6,-2.85 -5.95,-4.3 l -0.95,-0.35 -2.3,-0.65 0.05,0.8 -0.25,1.95 q -0.25,1.45 -0.9,2.1 -0.65,0.85 -1.85,0.8 H 32 31.7 Q 30.55,17.55 29.75,16.7 29.2,16.05 29,14.6 28.8,13.8 28.75,12.65 l 0.05,-0.8 -2.6,0.75 -0.45,0.2 -0.2,0.05"
         fill="#000000"
         fill-rule="evenodd"
         stroke="none"
         id="path6" />
    </g>
    <g
       id="shape2"
       transform="translate(1.5,1.5)">
      <path
         d="M 0,23.8 V 0 H 64.1 V 23.8 57.55 H 0 Z"
         fill="none"
         stroke="#000000"
         stroke-linecap="round"
         stroke-linejoin="round"
         stroke-width="3"
         id="path7" />
    </g>
  </defs>
</svg>
