<?xml version="1.0" encoding="UTF-8" standalone="no"?>
<svg
   ffdec:objectType="frame"
   height="60.549999"
   width="67.175003"
   version="1.1"
   id="svg6"
   sodipodi:docname="10.svg"
   xmlns:inkscape="http://www.inkscape.org/namespaces/inkscape"
   xmlns:sodipodi="http://sodipodi.sourceforge.net/DTD/sodipodi-0.dtd"
   xmlns:xlink="http://www.w3.org/1999/xlink"
   xmlns="http://www.w3.org/2000/svg"
   xmlns:svg="http://www.w3.org/2000/svg"
   xmlns:ffdec="https://www.free-decompiler.com/flash">
  <sodipodi:namedview
     id="namedview6"
     pagecolor="#ffffff"
     bordercolor="#000000"
     borderopacity="0.25"
     inkscape:showpageshadow="2"
     inkscape:pageopacity="0.0"
     inkscape:pagecheckerboard="0"
     inkscape:deskcolor="#d1d1d1"
     fit-margin-top="5"
     fit-margin-left="5"
     fit-margin-right="5"
     fit-margin-bottom="5" />
  <g
     transform="translate(1.5,1.5)"
     id="g3">
    <use
       ffdec:characterId="516"
       height="57.549999"
       width="64.099998"
       xlink:href="#shape0"
       id="use1" />
    <use
       ffdec:characterId="527"
       height="59.299999"
       transform="translate(-0.65,-0.55)"
       width="66.300003"
       xlink:href="#shape1"
       id="use2" />
    <use
       ffdec:characterId="518"
       height="60.549999"
       transform="translate(-1.5,-1.5)"
       width="67.099998"
       xlink:href="#shape2"
       id="use3" />
  </g>
  <defs
     id="defs6">
    <g
       id="shape0">
      <path
         d="M 53.6,0 H 64.1 V 57.55 H 53.6 28.25 0 V 0 H 28.25 53.6 V 57.55 0 M 28.25,0 V 57.55 0"
         fill="#ffffff"
         fill-rule="evenodd"
         stroke="none"
         id="path3" />
    </g>
    <g
       id="shape1"
       transform="translate(0.65,0.55)">
      <path
         d="M 8.35,2.2 7.15,2.5 Q 6.45,2.85 5.75,4 L 3.1,8.5 2,11.4 1.4,12.35 0.55,12.3 Q 0.15,12.05 0.15,11.55 L 1.2,7.35 Q 0.3,7 0.05,5.8 L 0.1,3.8 Q 0.3,2.65 0.7,2.05 1.45,1.1 2.35,1.4 l 0.5,0.15 q 0.4,0.05 1.1,-0.45 1.8,-1.3 3.1,-1.6 1.25,-0.2 1.8,0.35 0.6,0.5 0.4,1.3 Q 9,1.9 8.35,2.2 M 62,12.65 61.55,11.05 60.55,9.25 59.5,7.75 58.7,6.3 Q 58.45,6 57.65,5.6 L 55.9,4.15 54.7,3.05 53.65,2.7 Q 53.2,2.45 53.05,1.9 52.9,1.35 53.1,0.9 53.35,0.4 53.95,0.2 L 55.1,0.15 q 0.55,0.15 1.2,0.65 l 2.2,-0.3 q 2.05,0.05 3.65,1.15 1.6,1.05 1.75,2.55 v 1.35 l 0.3,0.9 0.05,0.85 q -0.15,0.55 -1.2,0.85 l -0.3,0.1 q 1.1,1.9 1.4,4.35 l 0.05,3.15 -0.25,2 -0.5,1.2 -0.6,0.6 -0.75,-0.15 q -0.25,-0.35 0.1,-1.15 L 62.3,16.8 62.15,13.7 62,12.65 m -8.55,-1.85 0.8,1.65 0.6,0.9 q 0.65,1 0.9,2.7 0.85,4.6 -0.4,9.3 -0.5,1.8 -1.4,2.4 l -0.9,0.15 Q 52.6,27.6 52.9,27 l 0.35,-0.95 -0.05,-0.85 0.2,-1.6 0.05,-2.7 -0.25,-3.15 q -0.55,-3.4 -2.8,-6.05 l -1.1,-1.05 -1.35,-1.1 q -0.75,-0.8 -0.45,-1.6 0.2,-0.5 0.8,-0.7 0.6,-0.2 1.15,0 l 1.85,1.35 2.15,2.2 M 40.9,4 41.35,4.4 V 5 L 40.75,5.25 40.1,5.15 39.3,5.1 h -1.8 -1 L 35.65,4.65 36.35,4.2 37.1,3.8 37.8,3.7 h 1.05 L 40.9,4 m 5.55,29.7 q -0.2,3.2 -3.45,5.1 -2,1.25 -6.05,1.9 L 24.8,41.3 Q 20.75,41.1 18.6,40.1 15,38.45 13.7,34.6 13.15,32.95 13.15,30.75 L 13.4,26.8 q 0.15,-1.95 0.55,-3.35 0.8,-2.8 3.3,-4.85 2.3,-1.95 5.35,-2.7 L 23,15.85 q 2.25,-0.9 5.65,-1 l 3.35,0.05 3.35,-0.1 3.5,-0.2 q 1.85,0.15 3.5,1.2 1.65,1.1 2.55,2.7 l 0.85,1.85 q 1.05,2.55 0.55,3.9 -0.55,1.55 -1.85,1.45 -0.65,0 -1.1,-0.55 -0.4,-0.55 -0.2,-1.1 l -3.75,-0.8 -2.55,0.2 -1,0.6 -1,0.55 -2.05,0.7 -0.8,0.6 -0.65,0.65 -2.05,1.45 0.4,0.95 0.4,1.15 0.7,0.55 q 0.95,0.7 1.45,1.65 -0.3,-1.35 0.3,-2.7 0.6,-1.3 1.8,-2 1.3,-0.75 3.45,-0.75 2.95,-0.1 4.85,0.9 1.65,0.85 2.6,2.25 1.3,1.7 1.2,3.7 m 10.9,-17.3 -0.65,-2.95 0.05,-0.3 0.25,-0.05 0.95,0.15 0.55,0.65 q 0.7,1.3 0.7,3.95 l -0.15,5.35 -0.55,1.75 -0.3,0.85 -0.25,0.5 -0.15,1.05 Q 57.45,28.1 57,27.8 56.75,27.7 56.75,27.3 l 0.1,-0.6 0.15,-1.5 0.05,-0.6 0.3,-1.75 0.1,-1.45 -0.1,-5 m -4,17 -0.2,0.8 -0.6,0.4 -0.5,0.5 q -0.6,0.95 -1.8,1.1 -0.4,-0.55 0.05,-1.25 L 51.15,34 52,33.05 l 0.35,-1 0.35,-0.5 0.4,-0.2 q 0.5,-0.1 0.65,0.45 l -0.1,0.8 -0.3,0.8 m -1.8,14.55 2.2,-1.8 1.6,-1.7 0.95,-0.9 1.5,-1.25 0.05,0.2 -0.45,0.8 -0.95,1.65 -1.55,2.25 -2.4,2.4 -0.8,0.7 -0.9,0.45 -2.15,0.85 -0.9,-0.1 q -0.5,-0.3 -0.35,-0.8 0.1,-0.3 1.05,-0.65 l 1.05,-0.8 2.05,-1.3 m 8.55,8.8 q -0.7,0.85 -1.8,0.5 -1,-0.4 -1.1,-1.5 -1.35,0.7 -4.35,1.4 l -1.5,0.1 q -0.8,-0.15 -1.15,-1.1 -0.25,-0.8 0.25,-1.6 l 0.9,-0.8 2.3,-1.85 3.5,-3.1 1.4,-1.95 2.4,-3.8 0.7,-1.9 0.7,-1.9 q 0.4,-0.85 0.9,-1.25 0.8,-0.6 1.55,-0.3 0.75,0.4 0.85,1.3 0.1,0.55 -0.2,1.65 -0.7,2.65 -1.8,5 l -0.15,0.7 0.3,0.45 0.3,1.1 -0.05,1.25 0.05,1.2 -0.35,1.7 -0.65,2.6 -0.6,1.35 q -0.55,0.5 -1.25,0.4 l -0.75,-0.05 -0.4,0.4 M 24.7,4.25 27.1,3.8 28.05,3.45 29.05,3.4 30.1,3.35 31.2,3.3 31.5,3.8 31.35,4.3 30.75,4.5 28.3,4.9 27.5,5.2 25.75,5.65 23.4,6.4 22,6.9 20.85,7.35 19.45,8.1 17.7,9.2 16.45,9.75 Q 15.65,9.9 15.15,9.25 14.6,8.65 14.95,7.9 l 0.7,-0.75 Q 16.45,6.6 18.3,5.85 L 19.65,5.2 22.5,4.5 24.7,4.25 m 13.45,14.55 0.75,0.05 -0.3,-0.1 h -0.55 l 0.1,0.05 M 15.4,5.65 12.65,6.85 q -1.7,0.9 -2.45,1.5 L 8.5,10.1 7.05,12.15 6.2,13.05 q -0.8,0.3 -1.15,-0.2 -0.3,-0.3 -0.1,-0.8 L 5.3,11.3 7,8.85 8.15,7.6 9.85,6.4 12.3,5.15 q 3.45,-1.8 5.15,-2.3 l 0.85,0.1 q 0.3,0.3 -0.05,0.75 L 17.6,4.2 17.05,4.65 16.5,4.95 16.1,5.3 15.4,5.65 M 4.55,19.85 4.9,19.05 6.25,16.7 7.4,14.7 8.55,13.15 q 0.8,-0.9 1.45,-1.3 0.4,-0.3 0.8,-0.3 0.45,0 0.7,0.4 0.15,0.4 -0.1,0.85 l -0.6,0.65 q -0.35,0.4 -0.95,1.45 L 9.2,15.75 8.45,17.1 6.5,21.95 6.4,23.4 6,25.95 5.7,26.9 Q 5.45,27.4 4.9,27.5 4,27.5 3.8,26.3 3.6,25.55 3.7,24.45 l 0.2,-1.85 0.15,-1.05 0.5,-1.7 m 16.05,16.4 q 0.2,-0.3 -0.1,-0.8 l -0.6,-0.6 Q 19.6,34.4 19.7,33.65 L 19.85,33.1 18.1,33.9 18,33.95 q 0.85,1.75 2.6,2.3 M 6.1,35.2 l 0.5,0.85 0.2,0.5 0.3,0.35 q 0.3,0.45 0.2,1 H 6.55 q -0.5,0 -0.85,-0.55 l -0.55,-1 -0.35,-0.6 -0.1,-0.7 q 0.2,-0.6 0.85,-0.4 L 6.1,35.2 M 0.9,42.95 0.55,42.25 0,40.95 V 39.6 l 0.05,-1.3 q 0.3,-0.8 0.9,-0.85 0.8,0 1,1.05 l 0.2,1.55 0.3,0.75 Q 3.5,43 4.85,45 l 0.45,0.7 3.2,3.55 0.55,0.95 0.3,0.6 -0.2,0.3 Q 7.15,50.75 5.4,49.3 L 3.45,47.1 1.75,44.4 0.9,42.95 M 6.65,58.3 2.25,57.95 q -1.2,-0.3 -1.55,-0.9 l -0.3,-0.7 -0.3,-0.65 -0.4,-2.05 -0.2,-1.5 0.25,-1.1 0.2,-0.45 -0.05,-0.5 -0.4,-2.05 -0.05,-1.4 -0.1,-0.75 0.05,-0.75 q 0.25,-0.5 0.85,-0.5 0.45,0 0.7,0.4 l 0.3,0.8 0.3,1.15 0.7,2 0.05,0.05 q 1,0.3 1.45,0.7 l 0.75,0.7 1.35,1.05 1,1.05 q 0.75,0.7 2.55,1.6 l 0.05,0.05 0.2,-0.05 1.15,0.15 q 0.6,0.2 0.7,0.8 l 0.05,0.2 0.65,0.6 q 0.25,0.65 -0.2,1.15 -0.45,0.45 -1.15,0.45 L 9.8,57.15 9.4,57.2 Q 9.3,58.25 8.35,58.65 7.35,59 6.65,58.3 m 32.55,-11.85 -1.35,1.1 q -1.7,0.95 -2.9,1.25 L 31.8,48.6 q -1.2,-0.75 -1.9,-0.9 l -0.65,-0.05 -5.15,0.45 -5.15,0.4 q -1.85,0 -2.45,-0.95 -0.35,-0.5 -0.25,-1.1 0.1,-0.65 0.5,-1.15 0.75,-0.85 2.05,-1.05 l 2.45,-0.15 5.45,-0.65 5.4,-1.25 q 3.9,-0.95 6,0 0.85,0.45 1.15,0.95 l 0.3,1.4 q 0.1,1.2 -0.35,1.9"
         fill="#999999"
         fill-rule="evenodd"
         stroke="none"
         id="path4" />
      <path
         d="m 28.6,31.55 q -0.5,-1.6 -0.1,-3.35 0.3,-1.35 1.05,-2.55 1.8,-2.75 5.4,-3.75 2.95,-0.8 6.65,-0.05 l 2.15,0.7 q 0.9,0.4 2,1.15 l 1.65,1.15 -0.1,-1.7 q -0.2,-3.05 -0.75,-4.6 -1,-2.7 -3.75,-4.55 -2.45,-1.7 -5.7,-2.3 -7.9,-1.55 -17.2,2.7 -3.05,1.45 -4.3,3 -0.8,1 -1.3,2.5 l -0.8,2.8 -0.55,2.1 0.15,0.95 q 0.65,2.55 1.7,4.05 0.7,1.05 1.6,1.7 1.5,1.15 3.7,1.75 l 4.1,0.7 3.3,0.1 2.15,-0.55 q -0.7,-0.8 -1.05,-1.95 m 13,-16.2 0.5,0.35 -0.7,-0.45 0.2,0.1 m 1.5,42.95 h -3.55 l 0.3,-7.35 0.1,-2.1 -2.5,0.55 q -8.65,1.4 -17.2,0.45 0.05,4.45 0.45,8.45 H 16.45 Q 16.05,53.65 16,48.9 14.75,48.35 13.9,47.45 12.45,45.9 12.65,44.1 12.8,42.7 13.95,41.6 L 12.1,39.9 Q 8.85,36.4 8.2,32.95 7.8,31 8.15,28.4 q 0.55,-5.6 2.8,-10.85 0.8,-2.1 1.8,-3.25 1.25,-1.5 3.95,-2.9 7.7,-3.95 16.4,-4.05 5.4,0 9.05,1.7 5.25,2.45 7.6,7.75 2.25,5.3 0.45,10.85 l -0.45,0.95 0.15,1.3 q 0.1,1.45 -0.3,4.25 l -0.4,1.7 q -0.3,0.8 -1.2,1.7 l -3.05,2.8 q 0.8,0.85 0.9,2.25 0.05,1.45 -0.75,2.8 l -1.2,1.55 q -0.2,5.9 -0.8,11.35 m -23.25,-18.4 3.1,0.3 q 3.7,0.3 8.9,-0.05 l 8.85,-0.8 h 1.25 l 2.4,-2.4 q 1.4,-1.4 1.85,-2.75 0.3,-0.9 0.4,-2.9 l -0.1,-1.65 q -0.5,-2.15 -3.65,-3.4 -3.2,-1.35 -5.75,-1 -1.55,0.2 -2.8,1 -1.35,0.9 -1.95,2.2 -0.6,1.4 0.05,2.15 0.5,0.7 1.75,0.8 1.7,0.1 3,-0.4 l 1.8,-0.7 1.8,-0.1 q 0.45,0.85 0.1,1.9 -0.35,0.95 -1.2,1.65 -1.95,1.5 -5.35,1.4 h -0.4 l -0.55,0.4 q -1.55,1.1 -3.2,1.5 L 24.8,37.4 19.45,36.2 17.2,35.35 q -1,-0.5 -2.85,-2.15 L 13.4,32.15 12.9,31.1 11.95,29.6 q -0.05,1.8 0.4,3.25 0.55,1.75 2.3,3.75 1.45,1.85 2.85,2.5 l 1.75,0.8 h 0.6 m -4.3,5.4 q 0.05,0.3 0.45,0.5 v -0.25 l 2.1,0.9 2.4,0.3 3.1,0.15 h 4.35 L 35,46.25 q 4.45,-0.6 6.65,-2 1.1,-0.8 0.8,-1.55 l -4.8,0.15 -8.45,0.7 -8.45,-0.25 -2.05,-0.05 q -1.8,0.15 -2.9,1.5 -0.3,0.3 -0.25,0.55"
         fill="#000000"
         fill-rule="evenodd"
         stroke="none"
         id="path5" />
    </g>
    <g
       id="shape2"
       transform="translate(1.5,1.5)">
      <path
         d="M 0,23.8 V 0 H 64.1 V 23.8 57.55 H 0 Z"
         fill="none"
         stroke="#000000"
         stroke-linecap="round"
         stroke-linejoin="round"
         stroke-width="3"
         id="path6" />
    </g>
  </defs>
</svg>
