<?xml version="1.0" encoding="UTF-8" standalone="no"?>
<svg
   ffdec:objectType="frame"
   height="60.650002"
   width="67.099998"
   version="1.1"
   id="svg6"
   sodipodi:docname="58.svg"
   xmlns:inkscape="http://www.inkscape.org/namespaces/inkscape"
   xmlns:sodipodi="http://sodipodi.sourceforge.net/DTD/sodipodi-0.dtd"
   xmlns:xlink="http://www.w3.org/1999/xlink"
   xmlns="http://www.w3.org/2000/svg"
   xmlns:svg="http://www.w3.org/2000/svg"
   xmlns:ffdec="https://www.free-decompiler.com/flash">
  <sodipodi:namedview
     id="namedview6"
     pagecolor="#ffffff"
     bordercolor="#000000"
     borderopacity="0.25"
     inkscape:showpageshadow="2"
     inkscape:pageopacity="0.0"
     inkscape:pagecheckerboard="0"
     inkscape:deskcolor="#d1d1d1"
     fit-margin-top="5"
     fit-margin-left="5"
     fit-margin-right="5"
     fit-margin-bottom="5" />
  <g
     transform="translate(1.5,1.6)"
     id="g3">
    <use
       ffdec:characterId="516"
       height="57.549999"
       width="64.099998"
       xlink:href="#shape0"
       id="use1" />
    <use
       ffdec:characterId="570"
       height="59.650002"
       transform="translate(7.05,-1.6)"
       width="48.349998"
       xlink:href="#shape1"
       id="use2" />
    <use
       ffdec:characterId="518"
       height="60.549999"
       transform="translate(-1.5,-1.5)"
       width="67.099998"
       xlink:href="#shape2"
       id="use3" />
  </g>
  <defs
     id="defs6">
    <g
       id="shape0">
      <path
         d="M 53.6,0 H 64.1 V 57.55 H 53.6 28.25 0 V 0 H 28.25 53.6 V 57.55 0 M 28.25,0 V 57.55 0"
         fill="#ffffff"
         fill-rule="evenodd"
         stroke="none"
         id="path3" />
    </g>
    <g
       id="shape1"
       transform="translate(-7.05,1.6)">
      <path
         d="m 34.55,11 v 0.2 0.25 0.2 0.25 0.2 0.25 0.2 0.25 0.2 0.25 0.2 0.25 0.2 0.1 q 0.55,0.3 0.8,0.95 0.4,0.85 0.05,1.85 l -0.45,0.8 q 1.05,0.5 1.6,1.9 0.45,1.05 0.3,1.95 -0.15,1.3 -1.3,2.1 -0.9,0.7 -2.05,0.6 l -0.3,0.2 q -1.05,0.6 -2.25,0.6 -1.25,0.05 -2.2,-0.6 -1,-0.65 -1.5,-1.75 -0.5,-1.15 -0.3,-2.3 0.2,-1.15 1.1,-2.05 0.8,-0.85 1.9,-1.2 V 16.95 16.7 16.5 16.25 L 29.9,16.05 V 15.8 15.6 15.35 15.15 14.9 14.7 14.45 14.2 14 13.75 13.55 13.3 13.1 12.85 12.65 12.4 12.2 11.95 11.75 11.5 11.3 11.05 10.85 L 29.25,10.2 28.6,9.15 27.9,7.85 Q 27.35,6.3 28.35,5.3 l 1,-0.7 Q 28.95,4.1 28.9,3.8 l 0.2,-1.6 0.1,-1 0.2,-1 q 0.45,-0.8 1.5,-1.25 l 4.4,0.15 q 1,0.6 1.45,1.7 0.4,1.1 0.05,2.15 l -1.05,1.75 -1.35,1.35 0.8,0.9 q 0.85,1.45 0.35,2.8 -0.3,0.75 -1,1.2 V 11 m -17,3.3 v 0.2 0.25 0.25 0.2 0.25 0.2 0.25 0.2 0.25 0.2 0.25 0.2 0.25 0.2 0.25 0.2 0.25 0.2 0.05 l 0.6,1 q 0.25,0.8 0.1,1.65 l -0.7,1.3 v 0.1 0.2 0.25 0.2 0.25 0.2 0.25 0.2 0.25 0.2 0.25 0.1 l 0.05,0.05 q 1.45,1.25 1.7,2.1 0.4,1.45 -1.05,3.25 l -1.3,1.3 -0.15,0.2 -0.25,0.2 -0.3,0.25 -0.45,0.2 -0.7,0.15 H 14.95 L 14.6,32.55 12.4,32.4 Q 11.25,31.95 10.7,31.05 9.75,29.45 10.75,26.7 11.5,24.8 12.6,24 l 0.1,-0.05 V 23.8 23.55 23.35 23.1 22.9 22.65 22.45 22.2 22 21.75 21.55 21.5 L 12.6,21 q -0.3,-1.65 0.1,-2.55 V 18.35 18.15 17.9 17.7 17.45 17.25 17 16.95 l -1.05,-0.1 Q 10.7,16.65 10.1,15.8 9.5,15 9.55,14.05 q 0,-1.25 1.05,-2.15 0.7,-0.6 1.75,-0.6 l 0.35,0.05 V 11.15 10.9 10.8 L 12.15,10.55 11.4,9.6 Q 11.25,9.3 11.25,8.65 L 11.35,7.8 Q 11.55,7.05 12.2,6.55 L 12.85,6.2 Q 11.95,5.05 12,3.75 V 3.6 Q 11.2,3.55 10.6,2.95 L 10.05,1.9 q -0.1,-0.65 0.1,-1.2 0.5,-1.15 1.9,-1.25 1.3,0.1 1.8,1 0.6,-0.4 1.3,-0.65 L 17.8,-0.4 Q 19.15,-0.1 20.1,1 21,2.1 21,3.5 21,5.45 19.45,6.75 L 19.15,7 q 0.5,0.7 0.75,1.95 l 0.05,2.45 q -0.25,1.4 -1.15,2.1 -0.2,0.15 -1.25,0.65 v 0.15 m 34.7,-1.15 q -0.25,0.9 -1.3,1.7 -1.1,0.8 -2.4,1.05 l -2.6,-0.3 q -1.25,-0.5 -2,-1.65 -0.8,-1.2 -0.6,-2.5 0.15,-1.05 0.8,-1.7 l 0.3,-0.2 h -0.4 Q 43.35,9.5 42.9,9.05 42.55,8.65 42.5,8.25 L 42.45,7.6 q 0,-0.65 0.4,-1.2 0.45,-0.6 1.1,-0.6 l 0.3,-0.1 0.6,0.15 L 45.05,3.3 45.1,2.75 44.95,2.5 H 44.7 Q 44.05,2.6 43.5,2.2 42.7,1.7 42.6,0.7 42.55,-0.2 43.25,-0.9 43.8,-1.3 44.4,-1.45 l 0.7,-0.15 q 0.8,0.1 1.3,0.55 L 46.45,-1 q 0.6,0.75 2.2,1.45 2.85,1.2 5.2,1.05 l -0.1,0.35 q -0.5,1.45 -2.7,2.1 L 50.3,4.15 V 4.2 l -0.05,2.35 0.3,0.25 q 0.75,0.65 0.75,1.6 l -0.15,1 -0.55,0.8 0.5,0.3 q 1.45,1.2 1.15,2.65 m -25.85,0.3 v -0.3 q 0.1,-0.6 0.45,-0.8 l 0.45,-0.1 0.15,-0.1 0.65,0.35 q 0.4,0.3 0.3,0.85 L 27.85,14.1 27.1,14.2 26.75,13.95 26.55,13.7 26.4,13.45 m -19.35,6.7 q 0,-1.4 1.15,-2 l 2.3,0.1 0.7,1 q 0.2,0.6 0,1.15 l -0.75,1.05 -1,0.6 Q 8.5,22.3 7.75,21.65 7.15,21.1 7.05,20.15"
         fill="#999999"
         fill-rule="evenodd"
         stroke="none"
         id="path4" />
      <path
         d="m 48.85,12.75 h 4 l 0.85,0.15 0.45,0.25 0.35,0.2 0.25,0.25 0.15,0.25 0.15,0.2 0.15,0.25 0.05,0.2 0.1,0.25 0.05,0.2 v 0.25 0.2 0.25 0.2 l -0.05,0.25 -0.1,0.2 -0.05,0.25 -0.15,0.2 -0.15,0.25 -0.15,0.2 -0.25,0.25 -0.35,0.2 -0.45,0.25 -0.85,0.15 H 50.2 l 0.1,9.8 -0.1,1.9 -0.1,0.45 v 0.25 l -0.2,2.65 -0.55,5.4 q -0.2,1.45 -0.75,1.9 -0.45,0.35 -1.05,0.2 Q 46.9,40.5 46.6,40 46.3,39.55 46.3,38.45 46.15,34.75 45.65,31.6 l -0.1,-0.8 -0.05,-0.1 v -0.05 l -0.05,-0.25 -0.2,-1.3 v -0.95 l -0.05,-1.1 0.05,-2.1 0.05,-1.9 V 21.7 20.35 l 0.05,-1.7 V 18 L 42.6,17.95 41.8,17.8 41.25,17.6 40.95,17.35 40.75,17.15 40.6,16.9 40.45,16.7 40.3,16.45 40.2,16.25 40.15,16 v -0.2 -0.25 l -0.1,-0.2 0.1,-0.25 v -0.2 l 0.05,-0.25 0.1,-0.2 0.05,-0.25 0.15,-0.2 0.15,-0.25 0.25,-0.25 0.3,-0.2 0.35,-0.25 0.45,-0.15 0.6,-0.05 h 6.25 v -0.1 m -19.1,8.4 v 0.1 H 36 l 0.6,0.05 0.45,0.15 0.35,0.25 0.3,0.2 0.25,0.25 0.15,0.25 0.15,0.2 0.05,0.25 0.1,0.2 0.05,0.25 v 0.2 l 0.1,0.25 -0.1,0.2 v 0.25 0.2 l -0.05,0.25 -0.1,0.2 -0.15,0.25 -0.15,0.2 -0.15,0.25 -0.2,0.2 -0.3,0.25 -0.55,0.2 -0.8,0.15 -2.75,0.05 v 0.65 l 0.05,1.7 v 1.35 1.35 l 0.05,1.9 0.05,2.1 -0.05,1.1 v 0.95 l -0.2,1.3 -0.05,0.25 v 0.05 l -0.05,0.1 -0.1,0.8 q -0.5,3.15 -0.65,6.85 L 32,48.4 Q 31.7,48.9 31.05,49 L 30,48.8 Q 29.45,48.35 29.25,46.9 L 28.7,41.5 28.5,38.85 V 38.6 l -0.1,-0.45 -0.1,-1.9 q -0.1,-4.9 0.1,-9.8 H 25.75 L 24.9,26.3 24.45,26.05 24.1,25.85 23.85,25.6 23.7,25.4 23.55,25.15 23.4,24.95 23.35,24.7 23.25,24.5 23.2,24.25 v -0.2 -0.25 -0.2 -0.25 l 0.05,-0.2 0.1,-0.25 0.05,-0.2 0.15,-0.25 0.15,-0.2 0.15,-0.25 0.25,-0.25 0.35,-0.2 0.45,-0.25 0.85,-0.15 h 4 m -13.9,9 h 4 l 0.85,0.15 0.45,0.25 0.35,0.2 0.25,0.25 0.15,0.25 0.15,0.2 0.15,0.25 0.05,0.2 0.1,0.25 0.05,0.2 v 0.25 0.2 0.25 0.2 l -0.05,0.25 -0.1,0.2 -0.05,0.25 -0.15,0.2 -0.15,0.25 -0.15,0.2 -0.25,0.25 -0.35,0.2 -0.45,0.25 -0.85,0.15 H 17.2 l 0.1,9.8 -0.1,1.9 -0.1,0.45 v 0.25 l -0.2,2.65 -0.55,5.4 Q 16.15,57.35 15.6,57.8 15.15,58.15 14.55,58 13.9,57.9 13.6,57.4 13.3,56.95 13.3,55.85 13.15,52.15 12.65,49 l -0.1,-0.8 -0.05,-0.1 v -0.05 l -0.05,-0.25 -0.2,-1.3 v -0.95 l -0.05,-1.1 0.05,-2.1 0.05,-1.9 V 39.1 37.75 l 0.05,-1.7 V 35.4 L 9.6,35.35 8.8,35.2 8.25,35 7.95,34.75 7.75,34.55 7.6,34.3 7.45,34.1 7.3,33.85 7.2,33.65 7.15,33.4 v -0.2 -0.25 l -0.1,-0.2 0.1,-0.25 V 32.3 L 7.2,32.05 7.3,31.85 7.35,31.6 7.5,31.4 7.65,31.15 7.9,30.9 8.2,30.7 8.55,30.45 9,30.3 9.6,30.25 h 6.25 v -0.1"
         fill="#000000"
         fill-rule="evenodd"
         stroke="none"
         id="path5" />
    </g>
    <g
       id="shape2"
       transform="translate(1.5,1.5)">
      <path
         d="M 0,23.8 V 0 H 64.1 V 23.8 57.55 H 0 Z"
         fill="none"
         stroke="#000000"
         stroke-linecap="round"
         stroke-linejoin="round"
         stroke-width="3"
         id="path6" />
    </g>
  </defs>
</svg>
