<?xml version="1.0" encoding="UTF-8" standalone="no"?>
<svg
   ffdec:objectType="frame"
   height="60.549999"
   width="68.219566"
   version="1.1"
   id="svg7"
   sodipodi:docname="667.svg"
   xmlns:inkscape="http://www.inkscape.org/namespaces/inkscape"
   xmlns:sodipodi="http://sodipodi.sourceforge.net/DTD/sodipodi-0.dtd"
   xmlns:xlink="http://www.w3.org/1999/xlink"
   xmlns="http://www.w3.org/2000/svg"
   xmlns:svg="http://www.w3.org/2000/svg"
   xmlns:ffdec="https://www.free-decompiler.com/flash">
  <sodipodi:namedview
     id="namedview7"
     pagecolor="#ffffff"
     bordercolor="#000000"
     borderopacity="0.25"
     inkscape:showpageshadow="2"
     inkscape:pageopacity="0.0"
     inkscape:pagecheckerboard="0"
     inkscape:deskcolor="#d1d1d1"
     fit-margin-top="5"
     fit-margin-left="5"
     fit-margin-right="5"
     fit-margin-bottom="5" />
  <g
     transform="translate(1.5,1.5)"
     id="g3">
    <use
       ffdec:characterId="516"
       height="57.549999"
       width="64.099998"
       xlink:href="#shape0"
       id="use1" />
    <use
       ffdec:characterId="1158"
       height="58.700001"
       transform="translate(-0.3,-0.75)"
       width="67"
       xlink:href="#shape1"
       id="use2" />
    <use
       ffdec:characterId="518"
       height="60.549999"
       transform="translate(-1.5,-1.5)"
       width="67.099998"
       xlink:href="#shape2"
       id="use3" />
  </g>
  <defs
     id="defs7">
    <g
       id="shape0">
      <path
         d="M 53.6,0 H 64.1 V 57.55 H 53.6 28.25 0 V 0 H 28.25 53.6 V 57.55 0 M 28.25,0 V 57.55 0"
         fill="#ffffff"
         fill-rule="evenodd"
         stroke="none"
         id="path3" />
    </g>
    <g
       id="shape1"
       transform="translate(0.3,0.75)">
      <path
         d="m 30.4,42.15 0.1,-0.45 -1.95,-0.05 q -1.4,0.1 -2.35,0.8 l -1.05,0.9 q -0.6,0.5 -1.4,0.55 L 22.2,43.65 q -0.7,-0.35 -1.1,-1.05 -0.45,-0.7 -0.4,-1.5 0.05,-0.9 0.8,-1.8 0.75,-0.8 1.5,-1.3 0.75,-0.55 1.5,-0.85 l 1.35,-0.25 0.9,-0.15 h 0.05 v -0.05 -0.1 -0.05 -0.1 -0.1 -0.05 -0.1 -0.1 -0.05 l -0.05,-0.1 v -0.1 -0.05 -0.1 -0.1 -0.05 -0.1 -0.1 -0.05 -0.1 -0.1 -0.05 -0.1 -0.1 -0.05 -0.1 -0.1 -0.05 -0.1 -0.1 -0.05 -0.1 -0.1 -0.1 -0.05 -0.1 -0.1 -0.05 -0.1 -0.1 -0.05 -0.1 -0.1 -0.05 -0.1 -0.1 -0.05 -0.1 -0.1 -0.05 -0.1 -0.1 -0.05 -0.1 -0.1 -0.05 -0.1 -0.1 -0.05 -0.1 -0.1 -0.1 -0.05 -0.1 -0.1 -0.05 -0.1 -0.1 -0.05 -0.1 -0.1 -0.05 -0.1 -0.1 -0.05 -0.1 -0.1 -0.05 -0.1 -0.1 -0.05 -0.1 -0.1 -0.05 -0.1 -0.1 -0.05 -0.1 -0.1 -0.05 -0.1 -0.1 -0.1 -0.05 -0.1 -0.1 -0.05 -0.1 -0.1 -0.05 -0.1 -0.1 -0.05 -0.1 -0.1 -0.05 -0.1 -0.1 -0.05 -0.1 -0.1 -0.05 -0.1 -0.1 -0.05 -0.1 -0.1 -0.05 -0.1 -0.1 -0.05 -0.1 -0.1 -0.1 -0.05 -0.1 -0.1 -0.05 -0.1 -0.1 L 26.7,25.9 v -0.1 -0.1 -0.05 -0.1 -0.1 -0.05 -0.1 -0.1 -0.05 -0.1 -0.1 -0.05 -0.1 -0.1 -0.05 -0.1 -0.1 -0.05 -0.1 -0.1 -0.1 -0.05 -0.1 -0.1 -0.05 -0.1 l -0.05,-0.1 v -0.05 -0.1 -0.1 -0.05 -0.1 -0.1 -0.05 -0.1 -0.1 -0.05 -0.1 -0.1 -0.05 -0.1 -0.1 -0.05 -0.1 -0.1 -0.05 -0.1 -0.1 -0.05 -0.1 -0.1 -0.1 -0.05 -0.1 -0.1 V 21.2 21.1 21 20.95 20.85 20.75 20.7 20.6 20.5 20.45 20.35 20.25 20.2 20.1 20 19.95 19.85 19.75 19.7 19.6 19.5 19.45 19.35 19.25 19.2 19.1 19 18.9 18.85 l 0.05,-0.1 v -0.1 -0.05 -0.1 -0.1 -0.05 -0.1 -0.1 -0.05 -0.1 -0.1 -0.05 -0.1 -0.1 -0.05 -0.1 -0.1 -0.05 -0.1 -0.1 l 0.05,-0.05 v -0.1 -0.1 -0.05 -0.1 -0.1 -0.05 -0.1 -0.1 -0.1 -0.05 -0.1 -0.1 -0.05 -0.1 -0.1 -0.05 -0.1 -0.1 -0.05 -0.1 -0.1 -0.05 -0.1 -0.1 -0.05 -0.1 -0.1 -0.05 -0.1 -0.1 -0.05 -0.1 -0.1 -0.05 -0.1 l 0.05,-0.1 v -0.1 -0.05 -0.1 -0.1 -0.05 -0.1 -0.1 -0.05 -0.1 -0.1 -0.05 -0.1 -0.1 -0.05 -0.1 -0.1 -0.05 -0.1 -0.1 -0.05 -0.1 l 0.05,-0.1 v -0.05 -0.1 -0.1 -0.05 -0.1 -0.1 -0.05 -0.1 -0.1 -0.1 -0.05 -0.1 -0.1 -0.05 -0.1 -0.1 -0.05 l 0.05,-0.1 v -0.1 -0.05 -0.1 -0.1 L 26.95,10.3 V 10.2 10.1 10.05 9.95 9.85 9.8 9.7 L 27,9.6 V 9.55 9.45 9.35 9.3 9.2 9.1 L 27.05,9.05 V 8.95 8.85 8.75 8.7 L 27.1,8.6 V 8.5 8.45 8.35 8.25 8.2 L 27.15,8.1 V 8 L 27.2,7.95 V 7.85 7.75 7.7 L 27.25,7.6 V 7.5 7.45 7.35 7.25 L 27.3,7.2 V 7.1 7 6.95 6.85 l 0.05,-0.1 V 6.7 6.6 6.5 6.45 l 0.05,-0.1 v -0.1 l 0.05,-0.1 V 6.1 6 L 27.5,5.9 V 5.85 5.75 l 0.05,-0.1 V 5.6 5.5 L 27.6,5.45 V 5.4 h 0.1 l 0.05,0.1 v 0.1 l 0.05,0.05 v 0.1 0.1 L 27.85,5.9 27.9,6 v 0.1 0.05 0.1 l 0.05,0.1 V 6.45 6.5 L 28,6.6 V 6.7 6.75 6.85 6.95 7 l 0.05,0.1 v 0.1 0.05 0.1 0.1 L 28.1,7.5 v 0.1 l 0.05,0.1 V 7.75 7.85 7.95 8 l 0.05,0.1 v 0.1 0.05 0.1 l 0.05,0.1 v 0.05 0.1 0.1 0.05 0.1 l 0.05,0.1 v 0.1 0.05 0.1 0.1 l 0.05,0.05 v 0.1 0.1 0.05 0.1 l 0.05,0.1 v 0.05 0.1 0.1 0.05 0.1 0.1 l 0.05,0.05 v 0.1 0.1 0.05 0.1 0.1 0.05 0.1 0.1 0.05 0.1 0.1 0.05 l 0.05,0.1 v 0.1 0.1 0.05 0.1 0.1 0.05 0.1 0.1 0.05 0.1 0.1 0.05 0.1 0.1 0.05 0.1 0.1 0.05 0.1 l 0.05,0.1 v 0.05 0.1 0.1 0.05 0.1 0.1 0.05 0.1 0.1 0.05 0.1 0.1 0.1 0.05 0.1 0.1 0.05 0.1 0.1 0.05 0.1 0.1 0.05 0.1 l 0.05,0.1 v 0.05 0.1 0.1 0.05 0.1 0.1 0.05 0.1 0.1 0.05 0.1 0.1 0.05 0.1 0.1 0.1 0.05 0.1 0.1 0.05 0.1 0.1 l 0.05,0.05 v 0.1 0.1 0.05 0.1 0.1 0.05 0.1 0.1 0.05 0.1 0.1 0.05 0.1 0.1 0.05 0.1 0.1 0.05 0.1 0.1 0.05 0.1 0.1 0.1 0.05 0.1 0.1 0.05 0.1 0.1 0.05 0.1 0.1 0.05 0.1 0.1 0.05 0.1 0.1 0.05 0.1 0.1 0.05 0.1 0.1 0.05 0.1 0.1 0.05 0.1 0.1 0.05 0.1 0.1 0.1 0.05 0.1 0.1 0.05 0.1 0.1 0.05 0.1 0.1 0.05 0.1 0.1 0.05 0.1 0.1 0.05 0.1 0.1 0.05 0.1 0.1 0.05 0.1 0.1 0.05 0.1 0.1 0.05 0.1 0.1 0.1 0.05 0.1 0.1 0.05 0.1 0.1 0.05 0.1 0.1 0.05 0.1 0.1 0.05 0.1 0.1 0.05 0.1 0.1 l -0.05,0.05 v 0.1 0.1 0.05 0.1 0.1 0.05 0.1 0.1 0.1 l -0.05,0.05 v 0.1 0.1 0.05 0.1 0.1 0.05 0.1 0.1 0.05 0.1 0.1 0.05 0.1 0.1 0.05 0.1 0.1 0.05 0.1 0.1 0.05 0.1 0.1 0.05 0.1 0.1 0.05 0.1 0.1 0.1 0.05 0.1 0.1 0.05 0.1 0.1 0.05 0.1 0.1 0.05 0.1 0.1 0.05 0.1 0.1 0.05 0.1 0.1 0.05 0.1 0.1 0.05 0.1 0.1 0.05 0.1 0.1 0.05 0.1 0.1 0.1 0.05 0.1 0.1 0.05 0.1 0.1 0.05 0.1 0.1 0.05 0.1 0.1 0.05 0.1 0.1 0.05 0.1 0.1 0.05 0.1 0.1 0.05 0.1 0.1 0.05 0.1 0.1 0.1 0.05 0.1 0.1 0.05 0.1 0.1 0.05 0.1 0.1 0.05 0.1 0.1 0.05 0.1 0.1 0.05 0.1 0.1 0.05 0.1 0.1 0.05 0.1 0.1 0.05 0.1 0.1 0.05 0.1 0.05 l 0.7,0.1 1.7,0.65 1.5,0.35 0.45,0.25 0.75,-0.45 q 2.65,-1.35 6.6,-1.7 6.6,-0.6 13.05,1.25 2.4,0.75 3.6,1.6 l 0.75,0.7 2.5,-0.55 v -0.05 -0.1 -0.1 -0.05 -0.1 -0.1 -0.05 -0.1 -0.1 -0.05 -0.1 -0.1 L 60.2,37.9 v -0.1 -0.1 -0.05 -0.1 -0.1 -0.05 -0.1 -0.1 -0.05 -0.1 -0.1 -0.05 -0.1 -0.1 -0.1 -0.05 l 0.05,-0.1 v -0.1 -0.05 -0.1 -0.1 -0.05 l -0.05,-0.1 v -0.1 -0.05 -0.1 -0.1 -0.05 -0.1 -0.1 -0.05 l 0.05,-0.1 v -0.1 -0.05 -0.1 -0.1 -0.05 -0.1 -0.1 -0.05 -0.1 -0.1 L 60.2,34.3 v -0.1 -0.1 -0.1 -0.05 -0.1 -0.1 -0.05 -0.1 -0.1 -0.05 -0.1 -0.1 -0.05 -0.1 -0.1 -0.05 -0.1 -0.1 -0.05 -0.1 -0.1 -0.05 -0.1 -0.1 -0.05 -0.1 -0.1 -0.05 -0.1 -0.1 -0.1 -0.05 -0.1 -0.1 -0.05 -0.1 -0.1 -0.05 -0.1 -0.1 -0.05 -0.1 -0.1 -0.05 -0.1 -0.1 -0.05 -0.1 -0.1 -0.05 -0.1 -0.1 -0.05 -0.1 -0.1 -0.05 -0.1 -0.1 -0.05 -0.1 -0.1 -0.1 -0.05 -0.1 -0.1 -0.05 -0.1 -0.1 -0.05 -0.1 -0.1 -0.05 -0.1 -0.1 L 60.15,28 v -0.1 -0.1 -0.05 -0.1 -0.1 -0.05 -0.1 -0.1 -0.05 -0.1 -0.1 -0.05 -0.1 -0.1 -0.05 -0.1 -0.1 -0.1 -0.05 -0.1 -0.1 -0.05 -0.1 -0.1 -0.05 -0.1 -0.1 -0.05 -0.1 -0.1 -0.05 -0.1 -0.1 -0.05 -0.1 -0.1 -0.05 -0.1 -0.1 -0.05 -0.1 -0.1 -0.05 -0.1 -0.1 -0.1 -0.05 -0.1 -0.1 -0.05 -0.1 -0.1 -0.05 -0.1 -0.1 -0.05 -0.1 -0.1 -0.05 -0.1 -0.1 -0.05 -0.1 -0.1 -0.05 -0.1 -0.1 -0.05 -0.1 -0.1 -0.05 -0.1 l 0.05,-0.1 0.05,-0.05 v -0.1 l 0.05,-0.1 v -0.1 -0.05 l 0.05,-0.1 V 21.25 21.2 21.1 L 60.4,21 v -0.05 l 0.05,-0.1 0.05,-0.1 0.05,-0.05 0.1,-0.1 0.1,-0.1 0.1,-0.05 L 61,20.4 h 0.2 v -0.05 h 0.05 l 0.25,0.05 0.15,0.1 0.1,0.05 0.1,0.1 0.05,0.1 0.05,0.1 L 62,20.9 V 21 l 0.05,0.1 v 0.05 l 0.05,0.1 v 0.1 0.05 l 0.05,0.1 v 0.1 0.05 l 0.05,0.1 v 0.1 l 0.05,0.05 v 0.1 0.1 0.05 0.1 0.1 0.05 0.1 0.1 0.05 0.1 0.1 0.05 0.1 0.1 0.05 0.1 0.1 0.1 0.05 0.1 0.1 0.05 l 0.05,0.1 v 0.1 0.05 0.1 0.1 0.05 0.1 0.1 0.05 0.1 0.1 0.05 0.1 0.1 0.05 0.1 0.1 0.05 0.1 0.1 0.05 0.1 0.1 0.05 0.1 0.1 0.1 0.05 0.1 0.1 0.05 0.1 0.1 0.05 0.1 0.1 0.05 0.1 l -0.05,0.1 v 0.05 0.1 0.1 0.05 0.1 0.1 0.05 0.1 0.1 0.05 0.1 0.1 0.05 0.1 0.1 0.1 0.05 0.1 0.1 0.05 0.1 0.1 0.05 0.1 0.1 0.05 0.1 0.1 0.05 0.1 0.1 0.05 0.1 0.1 0.05 0.1 0.1 0.05 0.1 0.1 0.05 0.1 0.1 0.05 0.1 0.1 0.1 0.05 0.1 0.1 0.05 0.1 0.1 0.05 0.1 0.1 0.05 0.1 0.1 0.05 0.1 0.1 0.05 0.1 0.1 0.05 0.1 0.1 0.05 0.1 0.1 0.05 0.1 0.1 0.05 0.1 0.1 0.1 0.05 0.1 0.1 0.05 0.1 0.1 0.05 0.1 l -0.05,0.1 v 0.05 0.1 0.1 0.05 0.1 0.1 0.05 0.1 0.1 0.05 0.1 l 0.05,0.1 v 0.05 0.1 0.1 0.05 0.1 0.1 L 62.2,35.9 v 0.1 0.1 0.1 0.05 0.1 0.1 0.05 l 0.05,0.1 v 0.1 0.05 0.1 0.1 0.05 0.1 0.1 0.05 0.1 0.1 0.05 0.1 0.1 0.05 0.1 0.1 0.05 0.1 0.1 0.05 0.1 0.1 l 0.05,0.1 v 0.05 0.1 0.1 0.05 0.1 0.05 l 0.3,0.15 q 2.4,0.95 3.45,1.95 0.6,0.6 0.65,1.1 0.15,0.95 -0.85,1.5 l -1.8,0.45 -2.55,-0.4 -0.8,-0.4 L 59.75,43.3 59,43.35 q -0.35,1.6 -1.95,2.95 -1.5,1.2 -4.4,1.85 l -8.5,0.4 -8.55,-1.3 -2.7,-0.75 q -1.5,-0.7 -2.1,-1.85 -0.5,-0.9 -0.4,-2.5 M 9.55,7.2 q 1.1,-1.1 2.5,-0.55 0.65,0.25 1,0.85 l 0.25,0.7 0.45,1.25 V 10 L 14,12.85 v 1 l -0.1,0.05 -0.25,0.35 -0.7,0.05 q -0.4,-0.2 -0.45,-0.5 l -0.1,-0.35 -0.6,-0.9 -0.5,-0.8 -0.15,-0.5 -0.25,0.2 -0.6,0.8 -0.7,0.7 Q 8.9,13.4 8,13.25 L 7.65,13.15 7.4,13.05 6.7,12.5 5.65,11.15 3.3,7.6 2.85,6.65 Q 2.8,6.15 3.15,5.5 L 4.7,3.7 6.65,2.5 7.35,2.15 8.45,2.25 Q 9,2.5 9.2,3.05 L 9.35,3.85 9.55,7 v 0.2"
         fill="#999999"
         fill-rule="evenodd"
         stroke="none"
         id="path4" />
      <path
         d="M 31.65,29 Q 28.5,28.2 26.6,26.35 L 25.9,25.6 h -3.15 l -1.55,2.45 q -1,1.25 -2.4,1.55 L 16.9,29.45 Q 15.75,29.1 14.95,28.2 14.1,27.25 14.05,26.05 14,24.7 14.85,23.45 q 0.6,-0.9 1.95,-1.9 l 0.5,-0.3 v -0.1 -0.05 -0.1 -0.1 -0.05 -0.1 -0.1 -0.05 -0.1 -0.1 -0.05 -0.1 -0.1 -0.05 -0.1 -0.1 -0.1 -0.05 -0.1 -0.1 -0.05 -0.1 -0.1 -0.05 -0.1 -0.1 -0.05 -0.1 -0.1 -0.05 -0.1 -0.1 -0.05 -0.1 -0.1 -0.05 -0.1 -0.1 -0.05 -0.1 -0.1 -0.05 -0.1 -0.1 -0.05 -0.1 -0.1 -0.1 -0.05 -0.1 -0.1 -0.05 -0.1 -0.1 -0.05 -0.1 -0.1 -0.05 -0.1 -0.1 -0.05 -0.1 -0.1 -0.05 -0.1 -0.1 -0.05 -0.1 -0.1 -0.05 -0.1 -0.1 -0.05 -0.1 -0.1 -0.1 -0.05 -0.1 -0.1 -0.05 -0.1 -0.1 -0.05 -0.1 -0.1 -0.05 -0.1 -0.1 -0.05 -0.1 -0.1 -0.05 -0.1 -0.1 -0.05 -0.1 -0.1 -0.05 -0.1 -0.1 -0.05 -0.1 -0.1 -0.05 -0.1 -0.1 -0.1 V 12.2 12.1 12 11.95 11.85 11.75 11.7 11.6 11.5 11.45 11.35 11.25 11.2 11.1 11 10.95 10.85 10.75 10.7 10.6 10.5 10.45 10.35 10.25 10.2 10.1 10 9.95 9.85 9.75 9.65 9.6 9.5 9.4 9.35 9.25 9.15 9.1 9 8.9 L 17.35,8.85 V 8.75 8.65 8.6 8.5 8.4 8.35 8.25 8.15 8.1 8 7.9 7.85 7.75 7.65 7.6 7.5 7.4 7.35 7.25 7.15 7.05 7 6.9 6.8 6.75 6.65 6.55 6.5 6.4 6.3 6.25 6.15 6.05 6 5.9 5.8 5.75 5.65 5.55 5.5 5.4 5.3 5.25 5.15 5.05 5 4.9 4.8 4.7 4.65 4.55 4.45 4.4 4.3 4.2 4.15 4.05 3.95 3.9 L 17.3,3.8 V 3.7 3.65 3.55 3.45 3.4 3.3 3.2 3.15 3.05 2.95 2.9 2.8 2.7 2.65 2.55 2.45 2.4 2.3 2.2 2.1 2.05 1.95 1.85 1.8 1.7 1.6 1.55 L 17.25,1.45 V 1.35 1.3 1.2 1.1 1.05 0.95 0.85 0.8 0.7 0.6 L 17.2,0.55 V 0.45 0.35 0.3 0.2 0.1 0.05 v -0.1 -0.1 -0.05 -0.1 -0.1 -0.1 -0.05 -0.1 -0.1 h 2.3 v 0.1 0.1 0.05 0.1 0.1 0.1 0.05 0.1 0.1 0.05 0.1 0.1 0.05 0.1 l -0.05,0.1 v 0.05 0.1 0.1 0.05 0.1 0.1 0.05 0.1 0.1 0.05 0.1 0.1 0.05 0.1 0.1 0.05 0.1 0.1 0.05 0.1 0.1 0.1 0.05 l -0.05,0.1 v 0.1 0.05 0.1 0.1 0.05 0.1 0.1 0.05 0.1 0.1 0.05 0.1 0.1 0.05 0.1 0.1 0.05 0.1 0.1 0.05 0.1 0.1 0.05 0.1 0.05 L 20.05,3.75 Q 21.8,1.8 24.4,1.9 q 2.45,0 4.5,1.8 0.9,0.8 1.4,1.8 l 2.05,-1 Q 34.6,3.65 36.1,3.6 h 0.3 V 3.55 3.45 3.4 3.3 3.2 3.15 3.05 2.95 2.9 2.8 2.7 2.65 2.55 2.45 2.4 L 36.35,2.3 V 2.2 2.1 2.05 1.95 1.85 1.8 1.7 1.6 1.55 1.45 1.35 1.3 1.2 1.1 1.05 0.95 0.85 0.8 L 36.3,0.7 V 0.6 0.55 0.45 0.35 0.3 0.2 0.1 0.05 v -0.1 -0.1 -0.05 -0.1 -0.1 -0.1 -0.05 -0.1 -0.1 h 1.9 v 0.05 0.1 0.05 0.1 0.1 0.05 0.1 0.1 0.05 0.1 0.1 0.05 0.1 0.1 0.05 0.1 0.1 l -0.05,0.1 V 0.8 0.9 1 v 0.05 0.1 0.1 0.05 0.1 0.1 0.05 0.1 0.1 0.05 0.1 0.1 0.05 0.1 0.1 0.05 0.1 0.1 0.05 0.1 0.1 0.05 0.1 0.1 0.05 0.1 0.1 0.1 0.05 0.1 0.1 0.05 0.1 0.05 l 1.6,0.45 q 1.9,0.55 3.4,1.4 l 1.1,-1 q 1.4,-1 2.9,-1.2 l 3.15,0.3 q 1.6,0.55 2.6,1.8 0.8,1 1.15,2.2 0.6,1.6 0.45,2.95 -0.15,2.1 -1.75,3.35 -0.75,0.7 -1.9,1.1 l -1.95,0.6 q 0.05,1.85 -0.35,3.55 L 49,19.75 q 3.2,-1.65 5.2,-2.1 l 2.65,-0.4 2.1,-0.1 V 17.1 17 v -0.1 -0.05 -0.1 -0.1 -0.05 -0.1 -0.1 -0.05 -0.1 -0.1 -0.05 -0.1 -0.1 -0.05 -0.1 -0.1 -0.1 -0.05 -0.1 -0.1 -0.05 -0.1 L 58.9,15.05 V 15 14.9 14.8 14.75 14.65 14.55 14.5 14.4 14.3 14.25 14.15 14.05 14 13.9 13.8 13.75 l -0.05,-0.1 v -0.1 -0.05 -0.1 -0.1 -0.1 -0.05 -0.1 -0.1 -0.05 -0.1 -0.1 -0.05 -0.1 -0.1 -0.05 -0.1 -0.1 -0.05 -0.1 -0.1 -0.05 -0.1 L 58.8,11.7 v -0.05 -0.1 -0.1 -0.05 -0.1 -0.1 -0.05 -0.1 -0.1 -0.05 -0.1 -0.1 -0.1 -0.05 -0.1 -0.1 V 10.3 10.2 10.1 10.05 9.95 9.85 9.8 9.7 9.6 9.55 9.45 9.35 9.3 9.2 9.1 9.05 8.95 8.85 8.8 8.7 8.6 8.55 8.45 8.35 8.3 8.2 8.1 8 7.95 7.85 7.75 7.7 7.6 7.5 L 58.85,7.45 V 7.35 7.25 7.2 7.1 7 6.95 6.85 6.75 6.7 6.6 6.5 6.45 6.35 6.25 6.2 6.1 6 5.95 5.85 5.75 L 58.8,5.7 V 5.6 5.5 5.4 5.35 5.25 5.15 5.1 5 L 58.85,4.9 V 4.85 4.75 4.65 4.6 4.5 4.4 4.35 4.25 4.15 4.1 4 3.9 3.85 3.75 3.65 3.6 3.5 3.4 3.35 3.25 3.15 3.05 3 2.9 2.8 2.75 2.65 2.55 2.5 2.4 2.3 2.25 L 58.8,2.15 V 2.05 2 1.9 1.8 1.75 1.65 1.55 1.5 1.4 1.3 1.25 1.15 1.05 1 0.9 0.8 0.75 0.65 0.55 0.45 0.4 0.3 0.2 0.15 0.05 -0.05 -0.1 -0.2 -0.3 -0.35 -0.45 -0.55 -0.6 -0.7 -0.75 h 1.95 v 0.1 0.05 0.1 0.1 0.05 0.1 0.1 0.05 0.1 0.1 0.05 0.1 0.1 0.05 0.1 0.1 0.05 0.1 0.1 0.05 0.1 0.1 0.05 0.1 0.1 0.1 0.05 0.1 0.1 0.05 0.1 0.1 V 2 2.1 L 60.7,2.2 v 0.05 0.1 0.1 0.05 0.1 0.1 0.05 0.1 0.1 0.05 0.1 0.1 0.05 0.1 0.1 0.05 0.1 0.1 0.05 0.1 0.1 0.1 0.05 0.1 0.1 0.05 0.1 0.1 0.05 0.1 0.1 0.05 0.1 0.1 l 0.05,0.05 v 0.1 0.1 0.05 0.1 0.1 0.05 L 60.7,5.7 v 0.1 0.05 0.1 0.1 0.05 0.1 0.1 0.05 0.1 0.1 0.1 0.05 0.1 0.1 0.05 0.1 0.1 0.05 0.1 0.1 0.05 l 0.05,0.1 v 0.1 0.05 0.1 0.1 0.05 0.1 0.1 0.05 0.1 0.1 0.05 0.1 0.1 0.05 0.1 0.1 0.05 0.1 0.1 0.1 0.05 0.1 0.1 0.05 0.1 0.1 0.05 0.1 0.1 0.05 0.1 0.1 0.05 0.1 0.1 0.05 0.1 0.1 0.05 0.1 0.1 0.05 0.1 0.1 0.05 0.1 0.1 0.1 0.05 l -0.05,0.1 v 0.1 0.05 0.1 0.1 0.05 0.1 0.1 0.05 0.1 0.1 0.05 0.1 0.1 0.05 0.1 0.1 0.05 0.1 0.1 0.05 0.1 0.1 l -0.05,0.05 v 0.1 0.1 0.05 0.1 0.1 0.1 0.05 0.1 0.1 0.05 0.1 0.1 0.05 l -0.05,0.1 v 0.1 0.05 0.1 0.1 0.05 0.1 0.1 0.05 0.1 0.1 0.05 0.1 0.1 0.05 0.1 0.1 0.05 0.1 0.1 0.05 0.1 0.1 0.1 0.05 0.1 0.1 0.05 0.1 0.1 0.05 0.1 0.05 q 1,0.35 1.95,1.3 1.6,1.7 1.4,3.6 -0.15,1 -0.8,1.8 l -1.6,1.15 Q 59.5,26.1 57.8,24.7 l -1,-0.95 -0.85,-1.1 -3.95,0.6 q 2.2,3.2 2.3,8.35 0,2.9 -0.75,5.1 1,0.05 1.85,0.5 1.75,0.95 2,2.95 0.25,2.05 -1.2,3.4 l 3.35,0.2 1.65,-0.3 1.75,-0.15 q 0.5,-0.2 0.75,0 0.2,0.2 0.05,0.45 l -0.55,0.5 -0.7,0.35 -1,0.3 -2.3,0.5 -5.35,-0.3 q -1,-0.55 -1.15,-1.4 -0.2,-0.7 0.35,-1.6 L 54,40.75 q -0.45,-0.4 -1.1,-0.3 l -1.2,0.3 -1.25,0.35 q -1.3,1 -3,1.65 L 44.9,43.6 q -4.1,0.9 -7.6,-1.3 -3.6,-2.15 -4.55,-6.25 -0.6,-2.7 0.35,-5.55 L 33.55,29.3 32.8,29.2 V 29.15 L 32.85,28.7 33,28.3 q 0.2,-0.5 0.2,-2 l 2.75,0.05 V 26.3 h 1.25 q 0,1.5 0.2,2 l 0.15,0.4 0.05,0.3 H 38 l 0.7,-0.3 h 0.1 v -0.1 l -0.1,-0.8 -0.1,-1.95 v -0.7 q 0,-0.4 -0.35,-0.6 l -0.5,-0.1 -1.45,0.05 -0.05,-0.35 -0.1,-0.5 -0.25,-0.4 q -0.4,-0.4 -0.8,-0.4 l -0.45,0.2 q -0.45,0.3 -0.55,0.8 l -0.05,0.65 -1.4,-0.05 -0.5,0.1 q -0.35,0.2 -0.35,0.6 v 0.7 l -0.1,1.95 -0.1,0.8 0.05,0.4 M 25.1,20.85 q 0.45,0.95 1.35,1.5 1.2,0.75 2.5,0.65 1.35,-0.05 2.45,-0.95 l 0.7,-0.7 q 0.85,-0.95 1.05,-1.9 V 18.9 L 32.3,18.65 q -1.75,-0.7 -3.25,-3.1 l -0.5,-1 -0.05,-0.2 -0.3,0.05 q -1.85,0.4 -2.8,2.1 -0.85,1.55 -0.55,3.45 l 0.25,0.9 m 18.6,2.1 q 1.05,-0.3 1.9,-1 1.65,-1.4 1.8,-3.45 0.15,-2.15 -1.35,-3.6 L 44.6,14 43.4,13.9 h -0.15 l -0.35,0.7 q -1.1,2.2 -1.95,3.1 -1.15,1.35 -2.75,1.65 L 38.25,20 q 0.2,0.9 1.05,1.65 1.4,1.35 3.1,1.4 l 1.3,-0.1 M 23.4,17 23.7,14.45 22.6,14.3 Q 21.1,13.95 20,12.95 L 19.4,12.3 v 0.05 0.1 0.1 0.05 0.1 0.1 0.05 0.1 0.1 0.05 0.1 0.1 0.05 0.1 0.1 0.05 0.1 0.1 0.05 0.1 0.1 0.05 0.1 0.1 0.05 0.1 0.1 0.05 0.1 0.1 0.05 0.1 0.1 0.1 0.05 0.1 0.1 0.05 0.1 0.1 0.05 0.1 0.1 0.05 0.1 0.1 0.05 0.1 0.1 0.05 0.1 0.1 0.05 0.1 0.1 0.05 0.1 0.1 0.05 0.1 0.1 0.1 0.05 0.1 0.1 0.05 0.1 0.1 0.05 0.1 0.1 0.05 0.1 0.1 0.05 0.1 0.1 0.05 0.1 0.1 0.05 0.1 0.1 0.05 0.1 0.1 0.05 0.1 0.1 0.05 0.1 0.1 0.1 0.05 0.1 0.1 L 23.55,20.1 Q 23.35,18.65 23.4,17 M 6.95,23.4 6.5,24.85 6.35,26.4 q -0.2,1 -1.05,1 -0.6,0 -0.9,-0.7 L 4.1,25.5 3.5,23.5 3,21.45 2.85,20.4 2.6,19.75 Q 2.25,18.95 2.5,18 q 0.25,-0.95 0.95,-1.5 0.7,-0.55 1.7,-0.6 0.95,0 1.7,0.5 0.7,0.55 1,1.45 0.3,0.95 0,1.75 l -0.3,0.85 -0.1,0.7 Q 7.4,22.2 6.95,23.4 M 4.8,28.85 q 1.45,-0.3 2.5,0.75 1,1.15 0.6,2.55 -0.3,1.4 -1.8,1.9 L 5.75,34.1 Q 4.6,34.35 3.7,33.6 2.6,32.75 2.6,31.35 L 2.8,30.5 q 0.6,-1.4 2,-1.65 M 0.35,57.55 -0.3,56.8 V 37.35 l 2.2,-0.45 4.25,-0.15 2.1,0.35 1.7,-0.95 Q 15,33.45 18,33 l 4.4,0.25 q 2.25,0.65 3.6,2.2 1.35,1.6 1.5,3.85 0.1,2.25 -1.05,3.95 -1.9,2.85 -5.85,3.3 l -0.95,0.1 q 1.35,2.9 1.75,6.4 0.2,2.4 -0.35,3.85 l -0.6,1.05 H 1 l -0.65,-0.4"
         fill="#000000"
         fill-rule="evenodd"
         stroke="none"
         id="path5" />
      <path
         d="m 32.8,29.2 -0.4,0.6 -0.25,0.45 -0.5,0.15 q -0.3,-0.1 -0.2,-0.35 L 31.6,29.7 31.65,29.15 V 29 l -0.05,-0.4 0.1,-0.8 0.1,-1.95 v -0.7 q 0,-0.4 0.35,-0.6 l 0.5,-0.1 1.4,0.05 0.05,-0.65 q 0.1,-0.5 0.55,-0.8 l 0.45,-0.2 q 0.4,0 0.8,0.4 l 0.25,0.4 0.1,0.5 0.05,0.35 1.45,-0.05 0.5,0.1 q 0.35,0.2 0.35,0.6 v 0.7 l 0.1,1.95 0.1,0.8 v 0.1 H 38.7 L 38,29 H 37.6 L 37.55,28.7 37.4,28.3 q -0.2,-0.5 -0.2,-2 h -1.25 v 0.05 L 33.2,26.3 q 0,1.5 -0.2,2 l -0.15,0.4 -0.05,0.45 v 0.05 m 10.9,-6.25 -1.3,0.1 Q 40.7,23 39.3,21.65 38.45,20.9 38.25,20 L 38.2,19.35 q 1.6,-0.3 2.75,-1.65 0.85,-0.9 1.95,-3.1 l 0.35,-0.7 h 0.15 l 1.2,0.1 1.45,0.9 q 1.5,1.45 1.35,3.6 -0.15,2.05 -1.8,3.45 -0.85,0.7 -1.9,1 m -18.6,-2.1 -0.25,-0.9 q -0.3,-1.9 0.55,-3.45 0.95,-1.7 2.8,-2.1 l 0.3,-0.05 0.05,0.2 0.5,1 q 1.5,2.4 3.25,3.1 l 0.85,0.25 v 0.55 q -0.2,0.95 -1.05,1.9 l -0.7,0.7 q -1.1,0.9 -2.45,0.95 -1.3,0.1 -2.5,-0.65 -0.9,-0.55 -1.35,-1.5"
         fill="#ffffff"
         fill-rule="evenodd"
         stroke="none"
         id="path6" />
    </g>
    <g
       id="shape2"
       transform="translate(1.5,1.5)">
      <path
         d="M 0,23.8 V 0 H 64.1 V 23.8 57.55 H 0 Z"
         fill="none"
         stroke="#000000"
         stroke-linecap="round"
         stroke-linejoin="round"
         stroke-width="3"
         id="path7" />
    </g>
  </defs>
</svg>
