<?xml version="1.0" encoding="UTF-8" standalone="no"?>
<svg
   ffdec:objectType="frame"
   height="60.549999"
   width="67.099998"
   version="1.1"
   id="svg7"
   sodipodi:docname="643.svg"
   xmlns:inkscape="http://www.inkscape.org/namespaces/inkscape"
   xmlns:sodipodi="http://sodipodi.sourceforge.net/DTD/sodipodi-0.dtd"
   xmlns:xlink="http://www.w3.org/1999/xlink"
   xmlns="http://www.w3.org/2000/svg"
   xmlns:svg="http://www.w3.org/2000/svg"
   xmlns:ffdec="https://www.free-decompiler.com/flash">
  <sodipodi:namedview
     id="namedview7"
     pagecolor="#ffffff"
     bordercolor="#000000"
     borderopacity="0.25"
     inkscape:showpageshadow="2"
     inkscape:pageopacity="0.0"
     inkscape:pagecheckerboard="0"
     inkscape:deskcolor="#d1d1d1"
     fit-margin-top="5"
     fit-margin-left="5"
     fit-margin-right="5"
     fit-margin-bottom="5" />
  <g
     transform="translate(1.5,1.5)"
     id="g3">
    <use
       ffdec:characterId="516"
       height="57.549999"
       width="64.099998"
       xlink:href="#shape0"
       id="use1" />
    <use
       ffdec:characterId="1134"
       height="54.950001"
       transform="translate(5.45,2.2)"
       width="56.599998"
       xlink:href="#shape1"
       id="use2" />
    <use
       ffdec:characterId="518"
       height="60.549999"
       transform="translate(-1.5,-1.5)"
       width="67.099998"
       xlink:href="#shape2"
       id="use3" />
  </g>
  <defs
     id="defs7">
    <g
       id="shape0">
      <path
         d="M 53.6,0 H 64.1 V 57.55 H 53.6 28.25 0 V 0 H 28.25 53.6 V 57.55 0 M 28.25,0 V 57.55 0"
         fill="#ffffff"
         fill-rule="evenodd"
         stroke="none"
         id="path3" />
    </g>
    <g
       id="shape1"
       transform="translate(-5.45,-2.2)">
      <path
         d="m 54.1,7.15 4.5,-2.2 0.3,-0.1 0.5,0.55 0.05,0.7 -0.6,0.55 -0.4,0.3 -0.8,0.8 -0.85,0.8 v 0.1 L 56.7,8.7 56,9.6 55.1,10.5 v 0.1 L 54.95,10.8 54.75,11 53.85,10.9 53.6,10.3 53.1,8.2 V 7.65 l 0.5,-0.3 0.5,-0.2 M 54.8,7.8 54.5,8 q -0.2,0 -0.25,0.1 l 0.05,0.2 0.05,0.6 0.2,0.6 L 56.8,7 56.15,7.15 55.55,7.45 54.8,7.8 M 47.15,5.45 43.9,5.6 l -4,1.1 -1.9,0.35 0.2,5.75 0.85,-0.45 1.1,-0.55 -0.05,-0.3 0.2,-0.55 0.6,-1.5 0.3,-0.5 q 0.25,-0.2 0.85,-0.4 l 1.4,-0.75 0.7,-0.3 0.6,-0.45 1.9,-1.05 0.5,-0.55 M 49.65,8.4 50,9.2 q -0.05,0.6 -1,1 l -2.15,0.95 -3.65,1.3 q -1.4,0.6 -4.65,2.3 l -1.1,0.4 q -0.75,0 -1,-0.45 l -0.1,-0.95 q 0.3,-2.7 0.15,-5.4 l -0.3,-1.5 q 0.05,-0.4 0.6,-0.6 L 37.7,6.1 38.9,5.7 Q 42.15,4.25 44.85,4.05 L 46.7,3.95 48.55,3.7 q 0.85,-0.2 1.2,0 0.5,0.4 0.2,1.05 L 49.2,5.6 48.65,6.1 48.4,6.45 48.6,6.95 49.65,8.4 M 47.9,8.6 46.8,6.95 46.7,6.8 l -0.95,0.5 -1.3,0.8 -0.6,0.25 -1.8,1.15 -0.35,0.95 -0.15,0.65 1.2,-0.55 2.6,-0.95 2.55,-1 m 4.1,6.8 q 0.55,0 0.65,0.55 l -0.15,0.85 -0.15,2.65 v 0.2 l 0.25,0.1 2.75,0.55 0.5,0.25 0.15,0.5 -0.25,0.55 -1,0.55 -5.6,1.95 q -0.85,0.3 -3,1.4 l -1.05,0.35 q -0.8,-0.1 -0.7,-0.7 l 0.25,-0.55 2.85,-3.65 1.4,-2.7 0.45,-0.5 1.55,-1.95 0.65,-0.4 h 0.3 0.15 m -1.05,4.95 -0.05,-0.65 0.2,-2.1 -0.75,0.9 -0.75,0.9 -0.35,0.5 -1.6,2.45 -0.2,0.45 -0.6,0.8 1.7,-0.9 1.15,-0.4 0.1,-0.15 1.2,-1.65 -0.05,-0.15 m 0.8,0.5 h -0.1 l -0.3,0.5 -0.25,0.45 2.15,-0.75 -1.5,-0.2 m 6,7.65 -0.2,1.5 v 1.2 l 0.05,0.4 q 0,0.65 -0.65,0.65 l -0.6,-0.15 -1.9,-0.55 -0.6,-0.15 -0.4,-0.15 -2,-1 -0.5,-0.35 Q 50.8,29.7 50.8,29.4 l 0.35,-0.5 0.55,-0.25 3.9,-1.25 q 0.2,-0.05 0.35,-0.15 l 0.65,-0.15 0.95,-0.15 q 0.25,0.1 0.35,0.75 -0.15,0.4 -0.15,0.8 m -1.45,1.95 0.1,-0.1 -0.05,-0.1 0.1,-1.15 0.15,-0.8 -2.3,0.6 q -1.1,0.25 -1.35,0.5 l 3.25,1.05 h 0.1 m -2.6,6.45 q 0.15,0.05 0.35,0.25 l 0.35,0.1 q 0.45,0.1 0.7,0.4 0.3,0.4 0.1,0.85 l -0.3,0.4 -0.2,0.5 -0.35,1.65 -0.05,0.85 -0.1,0.5 -0.5,0.4 q -0.4,0.1 -0.65,-0.25 L 52.75,42.1 52,41.4 51.15,40.65 50.7,40.2 q -0.6,-0.35 -0.75,-0.65 -0.1,-0.45 0.2,-0.65 l 0.45,-0.2 0.7,-0.6 0.35,-0.25 1.6,-0.85 0.45,-0.1 M 38.8,31.55 q -0.4,-0.1 -0.5,-0.5 -0.1,-0.4 0.15,-0.65 l 0.55,-0.35 1.35,-0.4 3.2,-0.55 1.3,-0.2 2.45,-0.2 q 0.75,0 0.95,0.25 0.35,0.4 0.05,1 l -0.8,0.7 -2.65,1.7 -0.2,0.3 0.05,0.3 0.6,2 0.2,0.7 -0.2,0.7 -0.85,0.25 q -2.4,0.2 -3.75,1.05 L 39.95,38.1 39.05,38 q -0.35,-0.25 -0.35,-1.05 0.15,-2.9 -0.05,-4.3 V 32.4 L 38.6,32.2 38.65,32 q 0,-0.3 0.15,-0.45 m 4.8,-0.25 1.1,-0.8 -0.9,0.05 -1.95,0.25 -2.45,0.7 0.15,0.15 0.05,0.1 1.7,0.05 1.7,0.1 0.6,-0.6 m -3.5,4.85 1.4,-0.6 1.4,-0.35 0.95,-0.2 q -0.2,-0.2 -0.3,-0.8 l -0.45,-1.5 -0.05,-0.15 -1.75,0.1 -1.45,0.05 0.05,0.25 0.2,3.2 m 6.3,12.1 q 0.3,0.4 0.05,0.8 l -0.55,0.3 H 45.3 L 42.9,49.5 42.7,49.65 42,49.7 q -0.65,-0.2 -0.55,-0.8 l 0.1,-0.3 V 48.15 L 41.9,44.6 V 44.45 L 41.7,44.3 41.4,43.95 41.5,43.5 41.85,43.25 42.3,43.2 h 0.75 l 1.85,0.2 0.35,0.1 0.25,0.45 0.05,0.6 0.1,0.45 v 0.35 l 0.15,0.35 0.35,2.05 0.25,0.5 m -2,-3.6 -1.4,-0.2 -0.1,0.6 Q 42.6,46.5 42.65,47.8 L 42.7,47.95 42.9,48 45,47.9 Q 44.95,46.6 44.5,44.85 L 44.4,44.8 v -0.15 m 8.9,-4.3 0.1,-0.05 0.2,-0.8 0.15,-0.2 0.2,-0.9 -0.7,-0.25 -0.2,-0.05 -0.25,0.05 -1.25,0.9 1.1,1.2 0.15,0.25 0.45,0.35 0.05,-0.5 M 32.65,3.15 33.2,2.6 33.65,2.35 q 0.15,-0.15 0.4,-0.15 0.3,0 0.35,0.2 l 0.1,0.45 0.3,0.2 1.95,0.5 0.3,0.3 V 4.3 l -2.2,2 -1.65,2.3 -0.55,0.9 -0.5,0.05 -0.4,-0.3 -0.1,-0.7 L 31.4,7.05 31.05,5.65 30.9,5.1 30.85,4.35 l 0.4,-0.3 1.4,-0.9 M 33.4,3.75 32.75,4 31.9,4.6 32.5,7.2 33.05,6.6 33.9,5.5 35.1,4.4 34.7,4.15 34.05,3.95 33.4,3.75 m -10.5,6.1 0.35,-2.7 0.25,-0.85 1.05,-0.55 1.55,-0.5 1,-0.15 q 0.7,0.1 0.75,0.55 L 27.75,6.5 Q 27.6,7.1 27.6,8.4 l -0.1,1.65 -0.4,3.35 -0.2,1.25 0.05,2.55 -0.3,0.9 -0.95,0.2 -7.95,-0.35 -2.95,-0.05 -1.35,-0.2 q -0.3,-0.3 -0.3,-0.85 0,-0.3 0.3,-0.9 l 1.2,-1.75 1.1,-1.85 0.45,-0.85 0.75,-0.2 1.9,-0.65 2,-0.45 2.05,-0.35 m 2.45,6.45 0.2,-1.25 0.2,-1.25 0.25,-0.95 0.15,-1.2 0.2,-4.75 -1.1,0.3 -0.35,0.15 -0.05,0.25 -0.25,2.6 -0.1,0.5 V 11 l 0.1,0.55 v 0.55 l 0.1,0.6 v 0.55 l 0.15,0.55 0.3,1.35 0.1,1.15 h 0.1 M 17.3,13.65 q -0.5,1.2 -1.45,2.2 l 4.15,0.2 h 1.95 l 2.55,0.1 V 15.8 l -0.2,-0.4 -0.1,-0.6 -0.1,-0.35 -0.15,-0.3 -0.2,-0.65 V 13.05 L 23.5,12.25 23.45,11.7 23.4,11.6 h -0.2 q -2.6,0.25 -5.15,1.3 l -0.4,0.2 -0.35,0.55 M 15.85,7.95 15.7,7.3 Q 15.5,6.85 15.45,5.95 l -0.1,-1.35 -0.1,-0.1 -2,2.55 2.25,0.85 0.35,0.05 m 0.65,-0.1 0.2,0.9 q 0.1,0.65 -0.2,0.9 L 15.85,9.8 15.15,9.55 Q 13.1,8.6 12.2,8.45 L 11.65,8.3 Q 11.3,8.05 11.3,7.65 l 0.05,-0.45 0.25,-0.4 3.15,-4 q 0.5,-0.4 0.85,-0.4 0.55,0.1 0.65,0.6 v 0.35 l 0.05,0.45 0.2,1.85 v 2.2 M 5.65,20.2 6.3,18.8 6.7,18.15 q 0.35,-0.35 0.7,-0.2 l 0.55,0.5 2.05,3.3 0.3,0.55 q 0.1,0.4 -0.15,0.6 -0.2,0.2 -1,0 L 5.95,21.5 5.5,21.1 Q 5.35,20.85 5.65,20.2 M 7.35,19.45 7.3,19.25 7.05,19.65 6.7,20.6 q 0.25,0.4 0.95,0.5 l 1,0.4 -1.3,-2.05 m 5.35,5.45 1.2,-0.55 q 0.55,-0.15 1.05,0 l 0.4,0.2 L 15.4,25 15.15,25.75 14.75,26 14.2,26.6 10.1,32.3 9.6,32.75 8.75,32.6 Q 8.45,32.25 8.55,31.4 8.65,29.35 8.1,28.15 L 7.75,27.25 Q 7.6,26.75 8,26.4 l 0.6,-0.2 4.1,-1.3 m -1.7,3.65 0.9,-1.1 0.55,-0.65 -2.85,0.9 0.45,1.95 0.95,-1.1 m 3.05,9.2 0.35,2.5 0.15,0.75 -0.3,0.65 -0.7,0.15 -0.75,-0.05 -1.1,0.7 -0.9,1.05 Q 10.1,44 9.55,43.75 L 9,43.25 7.5,41.45 7,41.05 6.4,40.9 5.8,40.75 Q 5.35,40.35 5.65,39.65 L 6.5,38.85 8.55,37.05 12,33.9 q 0.4,-0.3 0.6,-0.3 l 0.55,0.25 q 0.5,0.5 0.5,1.3 l 0.1,1.45 0.3,1.15 m 7.4,-3.35 0.7,1 0.75,0.85 0.9,0.9 q 0.3,0.65 -0.25,1 l -0.95,0.25 -1,-0.1 v 0.95 q 0.1,0.6 -0.2,0.95 l -0.7,0.4 -1.8,0.55 -0.8,0.25 q -0.55,0.35 -0.8,0.45 l -0.95,0.1 q -0.5,-0.25 -0.5,-1.25 -0.1,-3.55 0.05,-6.35 0.1,-1.8 0.4,-2.65 l 0.35,-0.6 0.55,-0.2 q 0.6,-0.05 1.1,0.25 l 0.7,0.65 1.25,1.25 1.2,1.35 m -1.35,4 -0.3,-1.15 0.1,-0.4 q 0.05,-0.35 0.65,-0.55 l -0.3,-0.7 -2.05,-2.15 -0.75,-0.65 -0.15,0.95 0.05,5.4 0.1,0.5 1.5,-0.3 1.1,-0.4 0.05,-0.55 m -11.9,1.45 1.8,2 0.75,-0.7 1.05,-5.4 L 9.25,38.3 8.4,39 8.15,39.3 7.8,39.55 l 0.4,0.3 m 3.05,7.5 0.9,0.45 0.7,0.2 0.4,-0.05 q 0.65,0.1 0.65,0.8 0,0.65 -0.6,0.9 l -1.1,0.35 -0.35,0.2 -1.1,0.4 Q 9.7,51 8.8,51.7 L 8.4,52 H 7.75 Q 7.4,51.85 7.35,51.5 L 7.3,50.85 q 0.15,-1.9 -0.05,-3.6 L 7.5,46.8 8,46.7 9.1,47.05 h 0.75 l 0.9,0.2 0.5,0.1 m -2.05,2.15 1.55,-0.6 0.75,-0.3 -1.2,-0.4 -0.55,-0.15 -1,0.1 0.05,1.7 0.4,-0.35 m 3.8,-9.45 -0.2,-1 v -0.6 l -0.2,-0.7 -0.15,-0.85 -0.35,0.85 -0.35,1.7 -0.1,0.9 V 40.4 Q 12.25,40 13,40.05 m 7.3,2.4 0.1,-0.45 q 0.2,-0.25 0.6,-0.35 l 2.1,-0.65 2.25,-1 0.75,-0.25 0.5,-0.25 0.55,0.1 v 0.45 l -0.35,0.35 -1.8,0.95 -2.75,1.05 -0.3,0.2 -0.05,0.3 0.35,4.5 -0.15,0.8 -0.05,0.65 -0.4,0.55 -0.65,0.15 q -0.75,-0.1 -0.85,-0.95 l 0.15,-1 V 46.45 43 42.45 m 19.5,-0.3 0.05,0.45 v 0.85 l -0.65,0.1 q -0.25,-0.15 -0.25,-0.5 l -0.1,-0.55 -0.2,-0.65 V 41.5 L 38.4,41 l -0.05,-0.6 -2.9,0.25 -0.6,-0.1 q -0.5,-0.2 -0.4,-0.75 0,-0.2 0.15,-0.45 0.25,-0.3 0.75,-0.3 h 0.9 l 0.7,-0.1 1.4,-0.05 0.85,0.2 0.3,0.4 v 1.25 l 0.05,0.35 0.15,0.8 0.1,0.25 m 13.3,8.8 0.4,0.1 0.2,0.6 -0.05,0.5 -0.2,0.65 -0.05,0.65 -0.15,0.35 0.35,0.55 -0.25,0.6 -0.45,0.1 -0.95,-0.1 -1,-0.15 -1.85,0.15 -1.5,-0.1 L 46.55,54.6 46.15,54.4 46,53.95 q -0.05,-0.2 0.2,-0.4 l 0.95,-0.75 2.2,-1.25 h 0.4 l 1.3,-0.4 2.05,-0.2 m -2.5,2.55 1.6,0.2 q 0.05,-0.8 0.5,-1.65 l -1.35,0.15 -1.1,0.35 -1.15,0.2 h -0.35 l -0.35,0.15 -0.8,0.55 2,0.1 1,-0.05"
         fill="#999999"
         fill-rule="evenodd"
         stroke="none"
         id="path4" />
      <path
         d="m 40.95,18.1 -1.4,-0.4 -1.35,1.75 -2.75,2.3 -0.15,0.1 0.15,0.85 q 0.6,2.1 2.75,2.7 2.1,0.6 3.65,-1 Q 43.45,22.9 43,20.75 42.5,18.9 40.95,18.1 M 26.8,35.4 q -1.1,-0.2 -2.95,-1.1 -1.7,-0.95 -2.9,-2.3 -1.25,-1.6 -1.9,-4.6 -0.3,-1.65 -0.3,-3 V 23.95 Q 18.1,23.35 17.9,22.65 17.7,22.25 17.65,21.5 L 17.45,20.25 17.1,18.8 17,16.65 q 0.1,-1.6 0.95,-2.35 0.85,-0.75 2.1,-0.55 l 1.1,0.35 1.1,0.15 0.95,0.25 0.75,-0.65 q 3.05,-2.3 8.25,-2.3 2.15,-0.1 3.7,0.5 l 0.35,-0.35 1.7,-1.7 q 1.2,-0.95 2.1,-0.95 1.05,0 1.7,0.85 0.55,0.55 0.75,2.1 l 1.1,5.5 0.1,2.55 q 0.75,3.1 0,6.15 -0.85,3.6 -3.35,5.75 -1.9,1.7 -4.95,2.6 l 0.05,0.35 2.05,8.25 0.05,0.4 1.75,-1.85 q 2.9,-2.95 5.2,-3.35 l 2.9,0.25 q 1.5,0.6 2.4,1.75 L 51,42.1 q 0.75,1 1.55,1.15 1.35,0.4 3.4,-1.4 Q 55.6,41 55.8,40 q 0.3,-1.05 1.05,-1.65 0.8,-0.55 1.75,-0.65 1,-0.05 1.85,0.5 1.05,0.7 1.4,2.1 0.35,1.25 0.1,2.65 -0.15,1.5 -0.8,2.45 l -1.75,1.8 q -2.45,1.85 -5,2.25 -3.05,0.4 -5.25,-1.2 Q 48,47.4 46.3,44.7 q -0.6,-1.15 -1.35,-1.2 -0.45,-0.05 -1.2,0.35 -1.6,1 -4.2,3.15 l -0.2,0.2 1.05,0.9 q 1,1.25 1.2,3.1 l -0.1,1.5 -0.55,1.65 -1.2,2.3 -0.4,0.5 h -22.3 q -0.6,-1.2 -0.7,-2.75 -0.05,-2.65 1.45,-5.35 0.7,-1.15 1.3,-1.6 l 1.4,-0.55 2.05,-0.5 1.4,-3.6 Q 25.7,38.35 27.2,35.45 L 26.8,35.4 m 7.2,-6.45 1.1,0.15 1.05,-0.2 0.7,-1 q 0.35,-0.8 0.1,-1.35 -0.15,-0.25 -0.5,-0.4 l -0.65,0.05 -0.35,0.65 -0.5,0.5 L 34.45,27.2 34,26.9 q -0.4,-0.15 -0.7,0.15 l -0.4,0.55 -0.45,0.6 -0.35,0.05 -0.2,-0.2 q -0.15,-1 -0.7,-1 -0.65,0 -0.75,1 -0.15,0.5 0.05,0.9 0.3,0.9 1.6,1 l 1.2,-0.15 q 0.55,-0.2 0.7,-0.85 m -5.15,-2.9 -0.3,-1.7 -5.2,-0.15 -1.6,-0.6 -0.35,0.35 q -0.5,1 -0.55,2 v 0.75 q 0.1,1 0.75,1.85 0.65,0.8 1.6,1.25 l 0.25,0.1 0.2,-0.25 q 1.3,-1.15 3.7,-1.95 l 1.35,-0.25 0.15,-1.4"
         fill="#000000"
         fill-rule="evenodd"
         stroke="none"
         id="path5" />
      <path
         d="m 40.95,18.1 q 1.55,0.8 2.05,2.65 0.45,2.15 -1.15,3.65 -1.55,1.6 -3.65,1 -2.15,-0.6 -2.75,-2.7 l -0.15,-0.85 0.15,-0.1 2.75,-2.3 1.35,-1.75 1.4,0.4 m -12.1,7.95 -0.15,1.4 -1.35,0.25 q -2.4,0.8 -3.7,1.95 L 23.45,29.9 23.2,29.8 Q 22.25,29.35 21.6,28.55 20.95,27.7 20.85,26.7 v -0.75 q 0.05,-1 0.55,-2 l 0.35,-0.35 1.6,0.6 5.2,0.15 0.3,1.7 m 5.15,2.9 q -0.15,0.65 -0.7,0.85 l -1.2,0.15 q -1.3,-0.1 -1.6,-1 -0.2,-0.4 -0.05,-0.9 0.1,-1 0.75,-1 0.55,0 0.7,1 l 0.2,0.2 0.35,-0.05 0.45,-0.6 0.4,-0.55 q 0.3,-0.3 0.7,-0.15 l 0.45,0.3 0.5,0.15 0.5,-0.5 0.35,-0.65 0.65,-0.05 q 0.35,0.15 0.5,0.4 0.25,0.55 -0.1,1.35 l -0.7,1 -1.05,0.2 -1.1,-0.15"
         fill="#ffffff"
         fill-rule="evenodd"
         stroke="none"
         id="path6" />
    </g>
    <g
       id="shape2"
       transform="translate(1.5,1.5)">
      <path
         d="M 0,23.8 V 0 H 64.1 V 23.8 57.55 H 0 Z"
         fill="none"
         stroke="#000000"
         stroke-linecap="round"
         stroke-linejoin="round"
         stroke-width="3"
         id="path7" />
    </g>
  </defs>
</svg>
