<?xml version="1.0" encoding="UTF-8" standalone="no"?>
<svg
   ffdec:objectType="frame"
   height="60.549999"
   width="67.099998"
   version="1.1"
   id="svg7"
   sodipodi:docname="70.svg"
   xmlns:inkscape="http://www.inkscape.org/namespaces/inkscape"
   xmlns:sodipodi="http://sodipodi.sourceforge.net/DTD/sodipodi-0.dtd"
   xmlns:xlink="http://www.w3.org/1999/xlink"
   xmlns="http://www.w3.org/2000/svg"
   xmlns:svg="http://www.w3.org/2000/svg"
   xmlns:ffdec="https://www.free-decompiler.com/flash">
  <sodipodi:namedview
     id="namedview7"
     pagecolor="#ffffff"
     bordercolor="#000000"
     borderopacity="0.25"
     inkscape:showpageshadow="2"
     inkscape:pageopacity="0.0"
     inkscape:pagecheckerboard="0"
     inkscape:deskcolor="#d1d1d1"
     fit-margin-top="5"
     fit-margin-left="5"
     fit-margin-right="5"
     fit-margin-bottom="5" />
  <g
     transform="translate(1.5,1.5)"
     id="g3">
    <use
       ffdec:characterId="516"
       height="57.549999"
       width="64.099998"
       xlink:href="#shape0"
       id="use1" />
    <use
       ffdec:characterId="582"
       height="58.950001"
       transform="translate(-0.9,-0.2)"
       width="65.099998"
       xlink:href="#shape1"
       id="use2" />
    <use
       ffdec:characterId="518"
       height="60.549999"
       transform="translate(-1.5,-1.5)"
       width="67.099998"
       xlink:href="#shape2"
       id="use3" />
  </g>
  <defs
     id="defs7">
    <g
       id="shape0">
      <path
         d="M 53.6,0 H 64.1 V 57.55 H 53.6 28.25 0 V 0 H 28.25 53.6 V 57.55 0 M 28.25,0 V 57.55 0"
         fill="#ffffff"
         fill-rule="evenodd"
         stroke="none"
         id="path3" />
    </g>
    <g
       id="shape1"
       transform="translate(0.9,0.2)">
      <path
         d="M 1.2,48.8 4.05,47.6 4.1,47 q 0.2,-1.3 1.8,-2.35 l 1.2,-0.75 0.75,-0.35 4,-0.7 Q 12.3,42.8 12.7,43.1 l 0.95,-0.6 Q 16.7,40.6 17.9,38.95 L 19,37.05 19.9,35.3 19.75,35.2 Q 19.35,34.7 19.25,34.15 19.2,33.45 19.6,32.8 20,32.2 20.65,32 l 1.35,0.15 0.25,0.15 q 1.1,-1.05 2.55,-1.75 l 2.75,-1.1 q 1.75,-0.65 2.65,-1.3 1.4,-0.95 2.3,-2.55 0.9,-1.55 1,-3.3 0.3,-3.45 -2.1,-6.45 -0.5,-0.6 -0.9,-0.7 l -1.15,0.05 q -1,0.1 -1.9,-0.45 -0.9,-0.6 -1.05,-1.5 -0.2,-1.05 0.65,-1.95 0.8,-0.9 1.95,-1 2,-0.15 3.95,1.55 1.55,1.25 2.7,2.95 L 35.2,13.05 Q 34.4,9.85 33.6,8.35 L 33.1,7.9 32.45,7.95 30.85,8 Q 29.3,7.7 28.75,7.15 28.35,6.7 28.3,6.05 q -0.1,-0.6 0.25,-1.1 0.65,-1.1 2.25,-1.1 2.4,-0.05 4.35,2.25 1.2,1.45 1.95,3.85 l 1.35,5.55 0.6,3.25 Q 39.2,20.9 38.6,23.5 l -0.65,1.8 q -0.45,0.45 -0.8,0.35 -0.6,1.7 -1.75,3.3 -1.95,2.7 -4.85,3.95 l -2.8,1.05 q -1.65,0.6 -2.6,1.35 -1.1,0.9 -2.15,2.9 l -1.75,3.25 q -1.6,2.25 -5.5,4.75 l -2.55,1.5 0.45,0.15 q 1,0.45 1.2,1.35 0.6,-1.25 2,-1.8 1.45,-0.5 2.7,0 2.4,-5 4.1,-7.2 2.9,-3.7 6.55,-4.9 l 2.65,-0.7 q 1.5,-0.45 2.3,-1.25 0.85,-0.8 1.65,-2.9 1.65,-4.05 3.7,-6.1 0.55,-0.55 1.05,-0.75 0.85,-0.2 1.2,0.4 l 0.1,0.5 q 2.65,-1.85 7.55,-3.1 l 5.9,-1 q 3.3,-0.15 5.9,0.95 1.15,0.55 1.6,1.2 0.7,1 0.1,1.85 -0.5,0.75 -1.9,0.65 l -2,-0.45 -2.05,-0.55 -2.8,0.1 -5.85,1.1 -2.05,0.6 0.05,0.15 q 0.35,0.7 -0.2,1.25 -0.5,0.6 -1.2,0.35 l -0.55,-0.4 -0.2,-0.45 q -1.65,0.9 -4.15,2.8 l -0.5,1.25 0.45,0.25 q 0.5,0.4 0.7,1.1 0.15,0.65 -0.1,1.25 -0.2,0.6 -0.8,1 l -1.2,0.35 -0.65,-0.15 q -0.75,1.45 -1.55,2.1 l -2,1.1 -2.2,0.65 q -2.65,0.7 -4.35,2.05 -1.35,1.1 -2.85,3.55 -2.2,3.65 -3.8,8 -0.85,2.5 -1.5,3.35 -1.3,1.8 -3.1,1.55 -0.95,-0.1 -1.5,-0.9 -0.65,-0.85 -0.3,-1.7 -2.05,1.75 -3.55,1.85 -1.1,0.1 -1.95,-0.6 -0.9,-0.7 -0.85,-1.7 -3,2 -6.45,3.25 l -2.8,0.15 q -0.75,-0.35 -0.95,-1.25 -0.25,-0.9 0.25,-1.6 0.5,-0.6 2.15,-1.25 2.55,-0.9 4.95,-2.35 L 3.15,52 0.7,52.1 -0.3,51.35 Q -0.7,50.8 -0.55,50.2 -0.35,49.45 1.2,48.8 M 64.05,8.15 q 0.1,1.25 -1.25,2.15 l -2.35,1 q -3.1,1.1 -5.35,3.15 l -1.7,1.7 q -3.8,4 -8.7,7 -1,0.65 -1.5,0.15 -0.3,-0.3 -0.1,-0.85 l 0.5,-0.75 2.85,-2.6 2.8,-2.65 0.65,-0.7 q -0.3,-0.2 -0.2,-0.5 l 0.25,-0.5 0.95,-2.55 q 0.5,-1.8 0.9,-2.6 l 0.3,-0.7 0.25,-1.15 0.65,-3.3 0.05,-1 Q 53.15,2.6 53.85,2 54.55,1.4 55.4,1.45 l 0.8,0.2 q 0.55,0.4 0.6,1.05 L 56.7,3.9 56,5.45 55.15,7 l -1.55,3 -1.55,2.4 -0.9,2 0.45,-0.5 Q 54.25,10.95 57.7,8 l 2.2,-1.5 q 1.35,-0.65 2.6,-0.3 0.65,0.25 1.1,0.75 0.45,0.55 0.45,1.2 M 58.85,15 q 0.45,-0.5 1.15,-0.6 0.7,-0.15 1.25,0.2 0.55,0.35 0.8,1 0.25,0.65 0.05,1.25 l -0.75,1 q -0.55,0.4 -1.3,0.3 Q 59.3,18 58.85,17.5 58.4,17 58.4,16.25 58.4,15.55 58.85,15 M 49.45,4.3 q -0.1,-0.85 0.7,-1.2 l 0.9,-0.05 Q 51.6,3.2 51.8,3.75 52.05,4.3 51.7,4.85 51.25,5.55 50.4,5.4 49.55,5.15 49.45,4.3 m -14.1,-0.95 -0.1,-0.7 q 0.1,-0.75 0.6,-1.1 0.5,-0.35 1.1,-0.25 0.6,0.1 1,0.55 0.35,0.45 0.3,1.05 -0.05,0.65 -0.5,1 L 36.7,4.25 Q 36.1,4.2 35.7,3.8 L 35.35,3.35 M 24.4,5.3 Q 23.9,4.95 23.8,4.25 23.65,3.6 23.9,3.05 24.5,1.85 25.85,2 q 1.35,0.2 1.6,1.5 0.25,1.25 -0.85,2 L 25.5,5.75 Q 24.85,5.7 24.4,5.3 M 5,44 Q 5.15,44.5 4.9,45 4.45,45.8 3.55,45.7 2.9,45.6 2.6,45.15 2.3,44.75 2.35,44.2 2.4,43.7 2.8,43.35 q 0.4,-0.3 0.9,-0.25 0.55,0 0.9,0.35 L 5,44"
         fill="#999999"
         fill-rule="evenodd"
         stroke="none"
         id="path4" />
      <path
         d="m 19,0.1 1.35,-0.15 q 0.8,0.25 1.55,1.4 l 2.2,3.25 q 1.2,1.85 1.4,3.15 0.2,1.25 -0.4,3.9 -0.6,2.55 -0.3,3.85 l 1.55,0.55 1.6,0.2 q 2.2,0.4 2.7,1.65 0.3,0.7 0.1,1.95 L 30.2,25 q -0.2,1.75 -0.8,2.5 -0.55,0.6 -2.3,1.1 l -7.05,1.75 q -1.05,0.3 -1.4,0.7 -0.3,0.35 -0.5,1.3 l -0.8,4.75 q -0.4,2 -1.15,2.6 -0.55,0.5 -2.25,0.7 L 7.9,41.55 1.8,42.35 Q 0.55,42.35 0.2,41.7 0,41.4 0.1,40.95 L 0.6,40.25 0.7,40.2 0.65,40.15 0.55,40.05 0.5,39.95 0.45,39.85 0.4,39.75 0.35,39.65 0.3,39.55 V 39.45 39.3 39.2 L 0.25,39.1 V 39 38.9 38.8 38.7 38.6 38.5 38.4 38.3 38.2 38.1 38 v -0.1 -0.1 -0.15 -0.1 -0.1 -0.1 -0.1 -0.1 -0.1 -0.1 -0.1 -0.1 -0.1 -0.1 -0.1 -0.1 -0.1 V 36.1 36 35.9 35.8 L 0.2,35.7 V 35.6 35.5 35.4 35.3 35.2 35.1 35 34.9 l 0.05,-0.1 v -0.1 -0.15 -0.1 -0.1 -0.1 -0.1 -0.1 -0.1 -0.1 -0.1 -0.1 -0.1 -0.1 L 0.2,33.35 v -0.1 -0.1 -0.1 -0.15 l 0.05,-0.1 v -0.1 -0.1 -0.1 -0.1 -0.1 -0.1 -0.1 -0.1 -0.1 -0.1 -0.1 -0.1 -0.1 -0.15 -0.1 -0.1 -0.1 -0.1 -0.1 -0.1 -0.1 -0.1 -0.1 -0.1 -0.1 -0.1 -0.1 -0.1 -0.1 -0.15 -0.1 -0.1 -0.1 -0.1 -0.1 -0.1 -0.1 -0.1 -0.1 -0.1 -0.1 -0.1 -0.1 -0.1 -0.15 -0.1 -0.1 -0.1 -0.1 -0.1 -0.1 -0.1 -0.1 -0.1 -0.1 -0.1 -0.1 -0.1 -0.1 -0.15 -0.1 -0.1 -0.1 -0.1 -0.1 -0.1 -0.1 -0.1 -0.1 -0.1 -0.1 -0.1 -0.1 -0.1 -0.1 -0.15 -0.1 -0.1 -0.1 -0.1 -0.1 -0.1 -0.1 -0.1 -0.1 -0.1 -0.1 -0.1 -0.1 -0.1 V 23.4 23.3 23.2 23.1 23 L 0.3,22.9 v -0.1 -0.1 -0.1 -0.1 -0.1 -0.1 -0.1 -0.1 -0.1 -0.1 -0.15 -0.1 -0.1 -0.1 -0.1 -0.1 -0.1 -0.1 -0.1 -0.1 -0.1 -0.1 -0.1 -0.1 -0.1 V 20.2 20.1 20 19.9 19.8 19.7 19.6 19.5 19.4 19.3 19.2 19.1 19 v -0.1 -0.1 -0.15 -0.1 -0.1 -0.1 -0.1 -0.1 -0.1 -0.1 -0.1 -0.1 -0.1 -0.1 -0.1 -0.1 -0.1 -0.1 V 17 16.9 16.8 16.7 16.6 16.5 16.4 16.3 16.2 16.1 16 v -0.1 -0.1 -0.1 -0.1 -0.15 -0.1 -0.1 -0.1 -0.1 -0.1 -0.1 -0.1 -0.1 -0.1 -0.1 -0.1 -0.1 -0.1 -0.1 -0.1 -0.15 -0.1 -0.1 -0.1 -0.1 -0.1 -0.1 -0.1 -0.1 -0.1 -0.1 -0.1 -0.1 -0.1 -0.1 -0.15 -0.1 -0.1 -0.1 -0.1 -0.1 -0.1 -0.1 -0.1 -0.1 -0.1 -0.1 -0.1 -0.1 -0.1 V 10.7 10.6 10.5 10.4 10.3 10.2 10.1 10 9.9 9.8 9.7 9.6 L 0.35,9.5 V 9.4 9.3 9.2 9.05 8.95 8.85 L 0.4,8.75 V 8.65 8.55 8.45 8.35 8.25 8.15 8.05 7.95 7.85 7.75 7.65 7.5 7.4 7.3 7.2 7.1 7 6.9 L 0.45,6.8 V 6.7 6.6 6.5 6.4 6.3 6.2 6.1 6 5.85 5.75 5.65 5.55 5.45 5.35 5.25 5.15 5.05 4.95 4.85 4.75 4.65 4.55 4.45 4.3 4.2 4.1 4 3.9 3.8 3.7 3.6 3.5 L 0.5,3.4 V 3.3 3.2 3.1 L 0.55,3 0.3,2.9 0.15,2.75 0.05,2.65 -0.05,2.55 -0.15,2.45 -0.25,2.35 -0.3,2.25 -0.35,2.15 -0.4,2.05 -0.45,1.95 V 1.85 L -0.5,1.75 V 1.65 1.55 L -0.55,1.45 -0.5,1.35 V 1.25 1.1 L -0.45,1 V 0.9 L -0.4,0.8 -0.35,0.7 -0.3,0.6 -0.25,0.5 -0.15,0.4 -0.05,0.3 0.05,0.2 0.15,0.1 0.3,0 0.55,-0.1 0.8,-0.2 h 0.3 3 L 4.55,-0.15 5.3,-0.1 H 6.1 L 11.75,-0.05 15,0 h 0.4 l 0.35,0.05 0.3,0.05 h 0.3 l 0.3,0.05 0.7,0.05 0.8,0.05 H 18.7 L 18.75,0.3 Q 18.85,0.15 19,0.1 m 28.85,5.75 q 2,0.65 3.55,2.5 l 1.85,-0.55 1.1,-0.05 q 0.5,0.15 0.85,0.65 0.3,0.45 0.15,1.05 l -0.3,0.7 -0.25,1 -0.25,1.85 -0.4,1.55 -0.05,0.3 -0.05,1.05 0.4,-0.3 q 2.45,-1.8 3.9,-1.75 0.9,0 1.4,0.55 0.8,0.8 0.15,2.15 L 58.35,18.2 55.7,20 58.05,19.7 59.7,19.55 q 1.05,0.2 1.3,0.9 0.3,0.7 -0.3,1.5 -0.4,0.55 -1.3,0.9 -1.6,0.7 -5.05,1.1 l -6.6,0.5 -3.25,0.95 q -3.5,1.55 -5,4.15 l -0.85,1.8 -0.85,1.8 q -1.6,2.95 -5.35,3.95 l -1.85,0.4 q -1.1,0.25 -1.8,0.6 -1.25,0.6 -2.45,2.15 l -2,2.65 -1.65,1.8 -0.25,0.55 Q 22,46.6 21.65,48.4 l -0.75,4.65 -0.25,1.4 -0.95,0.85 -1.3,-0.1 q -1.1,-0.55 -1.1,-2.4 l 0.6,-3.8 -1.2,1.1 -1.2,1.95 -0.3,0.4 -0.2,0.35 -0.35,0.45 -1.2,1.05 -2.05,0.1 -0.85,-0.6 Q 10.2,53.3 10.3,52.2 l 0.2,-0.85 0.7,-1.05 0.3,-0.65 0.25,-0.4 -0.7,0.5 -0.75,0.6 q -2.9,2.7 -4.7,3.5 -1.9,0.9 -4.2,0.8 -1.05,0 -1.55,-0.5 -0.45,-0.45 -0.45,-1.25 0,-0.85 0.45,-1.25 0.4,-0.45 1.65,-0.55 l 2.35,-0.4 q 1.75,-0.6 4.3,-2.75 l 0.25,-0.2 q 2,-1.8 5.1,-4 l 4,-2.7 2.3,-3.4 q 1.6,-2.55 2.9,-3.65 1.4,-1.15 3.75,-1.95 l 4.15,-1.25 1.55,-0.8 0.65,-1 0.8,-2.1 0.85,-2.1 q 1.2,-2.25 3.45,-3.4 -2.1,-2 -2.55,-4.35 l -0.1,-2.15 q 0.25,-2.95 1.5,-5.15 L 36.3,7.4 36.25,6.5 36.4,5.55 Q 36.7,4.7 37.7,4.6 l 0.9,0.25 0.45,0.25 0.6,0.15 1.6,0.7 0.4,-0.15 2.8,-0.35 3.4,0.4 m -6.4,10.35 q -0.4,-0.1 -0.55,0.25 l -0.1,0.65 q 0.15,1 1.2,1.35 1,0.35 1.8,-0.4 0.25,0.9 1.75,1 1.05,0 1.7,-0.4 L 48,17.8 48.4,17.1 Q 48.45,16.75 48.1,16.45 47.8,16.2 47.45,16.3 l -0.65,0.5 -0.6,0.5 Q 45.5,17.6 45.1,17 l -0.45,-0.65 q -0.4,-0.3 -0.95,0.25 l -0.85,0.65 q -0.5,0.15 -1,-0.55 l -0.4,-0.5 m 9.7,-1.4 0.85,-0.85 q 0.2,-0.75 -0.2,-1.2 L 51,12.15 q -0.7,-0.2 -1.2,0.3 -0.55,0.4 -0.55,1.1 0.1,0.8 0.65,1.1 l 1.25,0.15 M 38.8,13.2 q 0.25,0.4 0.8,0.55 l 0.95,-0.05 0.7,-0.65 0.1,-1 L 40.8,11.25 39.85,11 q -0.5,0.05 -0.85,0.4 -0.4,0.35 -0.45,0.85 v 0.45 l 0.25,0.5 M 25.75,57.75 q -0.6,0.8 -1.6,0.95 -1.1,0.2 -1.65,-0.55 -0.5,-0.65 -0.25,-1.7 l 0.55,-1.9 0.25,-2.35 q 0.05,-1.45 0.4,-2.25 0.55,-1.3 2.5,-2.8 2.3,-1.65 2.9,-2.5 l 1.3,-2.7 q 0.65,-1.7 1.55,-2.4 0.8,-0.65 2.7,-1.05 l 7.65,-2.3 q 0.35,-0.7 0.4,-2.5 0.05,-1.75 0.55,-2.5 0.45,-0.7 2.1,-1.65 l 5.75,-2.95 q 2.1,-1.05 3.2,-1.1 0.95,-0.1 3.3,0.55 l 5.05,1.6 q 1.75,0.55 1.7,1.55 l -0.3,0.85 v 0.1 0.1 0.15 0.1 0.1 l 0.05,0.1 v 0.1 0.1 0.1 0.1 0.1 0.1 0.1 0.1 0.1 0.1 0.1 0.1 0.15 0.1 0.1 0.1 0.1 0.1 0.1 0.1 0.1 0.1 0.1 l 0.05,0.1 v 0.1 0.1 0.1 0.15 0.1 0.1 0.1 0.1 0.1 l -0.05,0.1 v 0.1 0.1 0.1 0.1 0.1 0.1 0.1 0.1 0.15 0.1 l 0.05,0.1 v 0.1 0.1 0.1 0.1 0.1 0.1 0.1 0.1 0.1 0.1 0.1 0.1 0.1 0.15 0.1 0.1 0.1 0.1 0.1 0.1 0.1 0.1 0.1 0.1 0.1 0.1 0.1 0.1 0.15 0.1 0.1 0.1 0.1 0.1 0.1 0.1 l -0.05,0.1 v 0.1 0.1 0.1 0.1 0.1 0.1 0.1 0.15 0.1 0.1 0.1 0.1 0.1 0.1 0.1 0.1 0.1 0.1 0.1 0.1 0.1 l 0.05,0.1 v 0.15 0.1 0.1 0.1 0.1 0.1 0.1 0.1 0.1 0.1 0.1 0.1 0.1 0.1 0.1 0.15 0.1 0.1 l -0.05,0.1 v 0.1 0.1 0.1 0.1 0.1 0.1 0.1 0.1 0.1 0.1 0.1 0.1 0.15 0.1 0.1 0.1 0.1 0.1 0.1 0.1 0.1 0.1 l -0.05,0.1 v 0.1 0.1 0.1 0.1 0.15 0.1 0.1 0.1 l -0.05,0.1 v 0.1 0.1 0.1 0.1 0.1 0.1 0.1 0.1 0.1 0.1 0.1 0.15 0.1 0.1 0.1 0.1 0.1 0.1 0.1 0.1 0.1 0.1 0.1 0.1 0.1 0.1 L 63.7,49.5 v 0.1 0.1 0.1 0.1 0.1 0.1 0.1 0.1 0.1 0.1 0.1 0.1 0.1 0.1 0.15 0.1 0.1 0.1 0.1 0.1 0.1 0.1 0.1 0.1 0.1 0.1 0.1 0.1 0.1 0.1 l -0.05,0.15 v 0.1 0.1 0.1 0.1 l -0.05,0.1 v 0.1 0.1 0.1 0.1 l -0.05,0.1 -0.05,0.1 v 0.1 L 63.45,54 v 0.1 0.15 l -0.05,0.1 -0.05,0.1 v 0.1 0.1 l -0.05,0.1 -0.05,0.1 v 0.1 l 0.05,0.05 0.05,0.1 0.1,0.1 0.1,0.1 0.05,0.1 0.05,0.1 0.05,0.1 v 0.1 l 0.05,0.1 v 0.1 0.1 0.1 0.1 0.1 l -0.05,0.15 v 0.1 l -0.05,0.1 -0.05,0.1 -0.05,0.1 -0.1,0.1 -0.05,0.1 -0.05,0.1 -0.15,0.1 -0.15,0.1 -0.2,0.1 -0.15,0.1 H 62.6 L 62.25,57.6 H 61.5 56.1 L 41.85,57.65 H 34.5 L 29.6,57.6 28.15,57.55 H 27.2 L 26.8,57.5 26.5,57.45 h -0.3 l -0.25,-0.05 -0.2,0.35"
         fill="#000000"
         fill-rule="evenodd"
         stroke="none"
         id="path5" />
      <path
         d="M 38.8,13.2 38.55,12.7 V 12.25 Q 38.6,11.75 39,11.4 39.35,11.05 39.85,11 l 0.95,0.25 0.55,0.8 -0.1,1 -0.7,0.65 -0.95,0.05 Q 39.05,13.6 38.8,13.2 m 12.35,1.6 -1.25,-0.15 q -0.55,-0.3 -0.65,-1.1 0,-0.7 0.55,-1.1 0.5,-0.5 1.2,-0.3 l 0.8,0.6 q 0.4,0.45 0.2,1.2 l -0.85,0.85 m -9.7,1.4 0.4,0.5 q 0.5,0.7 1,0.55 L 43.7,16.6 q 0.55,-0.55 0.95,-0.25 L 45.1,17 q 0.4,0.6 1.1,0.3 l 0.6,-0.5 0.65,-0.5 q 0.35,-0.1 0.65,0.15 0.35,0.3 0.3,0.65 l -0.4,0.7 -0.75,0.85 q -0.65,0.4 -1.7,0.4 -1.5,-0.1 -1.75,-1 Q 43,18.8 42,18.45 40.95,18.1 40.8,17.1 l 0.1,-0.65 q 0.15,-0.35 0.55,-0.25"
         fill="#ffffff"
         fill-rule="evenodd"
         stroke="none"
         id="path6" />
    </g>
    <g
       id="shape2"
       transform="translate(1.5,1.5)">
      <path
         d="M 0,23.8 V 0 H 64.1 V 23.8 57.55 H 0 Z"
         fill="none"
         stroke="#000000"
         stroke-linecap="round"
         stroke-linejoin="round"
         stroke-width="3"
         id="path7" />
    </g>
  </defs>
</svg>
