<?xml version="1.0" encoding="UTF-8" standalone="no"?>
<svg
   ffdec:objectType="frame"
   height="60.845715"
   width="67.099998"
   version="1.1"
   id="svg7"
   sodipodi:docname="349.svg"
   xmlns:inkscape="http://www.inkscape.org/namespaces/inkscape"
   xmlns:sodipodi="http://sodipodi.sourceforge.net/DTD/sodipodi-0.dtd"
   xmlns:xlink="http://www.w3.org/1999/xlink"
   xmlns="http://www.w3.org/2000/svg"
   xmlns:svg="http://www.w3.org/2000/svg"
   xmlns:ffdec="https://www.free-decompiler.com/flash">
  <sodipodi:namedview
     id="namedview7"
     pagecolor="#ffffff"
     bordercolor="#000000"
     borderopacity="0.25"
     inkscape:showpageshadow="2"
     inkscape:pageopacity="0.0"
     inkscape:pagecheckerboard="0"
     inkscape:deskcolor="#d1d1d1"
     fit-margin-top="5"
     fit-margin-left="5"
     fit-margin-right="5"
     fit-margin-bottom="5" />
  <g
     transform="translate(1.5,1.7957143)"
     id="g3">
    <use
       ffdec:characterId="516"
       height="57.549999"
       width="64.099998"
       xlink:href="#shape0"
       id="use1" />
    <use
       ffdec:characterId="850"
       height="61"
       transform="translate(0.15,-1.8)"
       width="64.849998"
       xlink:href="#shape1"
       id="use2" />
    <use
       ffdec:characterId="518"
       height="60.549999"
       transform="translate(-1.5,-1.5)"
       width="67.099998"
       xlink:href="#shape2"
       id="use3" />
  </g>
  <defs
     id="defs7">
    <g
       id="shape0">
      <path
         d="M 53.6,0 H 64.1 V 57.55 H 53.6 28.25 0 V 0 H 28.25 53.6 V 57.55 0 M 28.25,0 V 57.55 0"
         fill="#ffffff"
         fill-rule="evenodd"
         stroke="none"
         id="path3" />
    </g>
    <g
       id="shape1"
       transform="translate(-0.15,1.8)">
      <path
         d="M 3.15,39.75 Q 4.5,43.5 6.5,46 q 2.9,3.6 7.55,5.7 3.1,1.5 7.85,2.45 9.25,1.75 18.65,-0.1 8.3,-1.65 14,-5.9 3.15,-2.4 5.3,-5.55 2.25,-3.3 3,-6.95 0.6,-2.8 0.5,-7.25 1.45,3.15 1.4,6.9 0,3.55 -1.4,6.9 -2.6,6.4 -9.05,10.7 -5.5,3.65 -13.1,5.2 L 34.65,59 21.85,58.5 Q 16,57.6 11.5,55.45 6.2,53 2.9,49 1.35,47.05 0.15,44.75 V 17.5 Q 2,13.9 5,10.6 9.55,5.65 15.95,2.2 q 2.7,-1.45 5.25,-2.35 6.9,-2.4 14.45,-1.3 7.3,1.15 13.65,5.1 4.7,2.9 7.95,6.8 3.55,4.25 4.8,9.1 1.65,6.4 -0.7,13.05 -2.15,6.2 -7.2,10.95 -2.8,2.65 -5.9,4.2 -3.9,1.9 -8.75,2.2 L 33.25,49.8 25.7,49.1 Q 21.55,48.45 18.45,47.05 16.65,46.25 12.6,43.6 8.4,40.8 6.7,38.85 4.65,36.45 3.7,33.2 2.85,30.1 3.1,26.8 3.55,20.75 7.5,14.85 3.35,19.95 2.2,26.75 1,33.5 3.15,39.75 M 16.2,40.6 q 8.45,4.3 16.8,5.2 3.1,0.3 5.05,0.1 4.95,-0.5 9.55,-3.65 4.6,-3.25 7.1,-7.9 1.95,-3.8 1.95,-7.2 0,-2.1 -0.75,-4.7 Q 53.9,15.3 48.4,11.1 46.6,9.7 44.2,8.55 39.7,6.45 35.4,6.15 28.5,5.7 20.45,9.7 15.9,11.95 13.35,14.6 9.05,19.1 8,26 q -0.4,3.1 0.05,5.55 0.55,2.9 2.5,4.85 l 0.25,-1.45 0.35,-1.5 0.1,-2.7 q 0,-3.15 1.35,-6.15 1.3,-2.95 3.65,-5.2 4.6,-4.45 11.4,-5.1 5.8,-0.5 9.65,2.2 l 1.85,1.35 2.4,0.85 q 2.35,0.75 4.25,2.35 3.3,2.85 3.7,7.15 0.35,2.95 -1.05,6.6 l -1.35,2.6 q -2.1,3.2 -6.3,4.85 -3.4,1.35 -7.9,1.45 -5.6,0.15 -11.15,-1.55 -5.25,-1.6 -7.7,-4.6 -0.4,1 0.45,1.9 0.4,0.5 1.7,1.15 M 59.1,22.55 58.9,20.9 58.6,19.85 57.35,16.7 q -1.25,-2.55 -3.9,-5.35 1.2,1.35 2.8,4.1 l 1.4,2.75 1.45,4.35 m -28.05,14.3 q 4.7,0.35 6.9,-2.45 1.55,-2 1.45,-5.6 -0.15,-3.9 -1.65,-6.95 l -0.8,-1 -1.55,-0.4 -5.65,0.15 q -4.1,0.7 -7.8,3.75 -2.8,2.25 -5.75,6.45 -0.8,1.1 -0.85,1.8 -0.05,0.9 0.8,2.15 1.75,2.2 5.15,3.7 4.05,1.7 9.3,2.2 5.9,0.45 9.65,-1.3 2.55,-1.2 4.3,-3.45 1.8,-2.35 2.1,-5.05 0.3,-2.8 -1.1,-5.35 -1.45,-2.6 -4,-3.65 1.15,3.15 1.3,6.8 0.1,4.75 -1.8,7.4 -2.35,3.4 -7.4,4.1 L 28.7,39.9 q -2.6,-0.65 -4.25,-2.3 -1.65,-1.65 -2.5,-4.3 -0.8,-2.5 -0.5,-4.3 0.3,-2.05 1.9,-3.8 1.4,-1.6 3.5,-2.65 2.55,-1.15 4.25,-0.6 0.7,0.2 0.9,0.65 l 0.15,0.55 -0.25,0.45 -0.6,0.15 -0.6,-0.05 q -0.8,-0.05 -2,0.55 -3.65,1.9 -4.15,4.55 -0.35,1.7 0.55,3.8 0.9,2.05 2.1,3 1.5,1.1 3.85,1.25 m 33.3,9.6 0.35,0.35 q 0.45,0.9 0.2,2 l -0.75,1.85 -0.75,1.2 -1.2,1.35 q -3,2.7 -6.1,3.75 l -2.1,0.4 q -1.05,0 -1.55,-0.7 -0.25,-0.35 -0.2,-0.8 0.05,-0.5 0.45,-0.7 L 53.7,55 54.95,54.4 58,52.65 q 2.7,-1.75 4.3,-4.2 0.9,-1.35 1.35,-1.75 0.4,-0.4 0.7,-0.25 m -42,-26.15 q 2.8,-1.7 7.3,-2.65 -4.5,0 -8.1,2.05 -4,2.2 -5.65,6.1 l 1.15,-1.1 Q 20,21.65 22.35,20.3 M 11.55,10.15 Q 19.15,4.75 27.1,3.2 36.15,1.35 44,4.75 39.35,2.45 34.15,1.95 28.85,1.4 24.05,2.9 18.1,4.75 11.55,10.15 m -1,-9.35 Q 12.1,0.15 13.2,0.1 l 1.2,0.2 q 0.7,0.5 0.4,1.1 L 13.85,2 Q 9.35,3.3 5.75,6.35 L 4.1,7.85 q -2.8,2.7 -3.95,4.9 V 8.8 q 4,-5.5 10.4,-8"
         fill="#999999"
         fill-rule="evenodd"
         stroke="none"
         id="path4" />
      <path
         d="M 22.95,9.95 Q 26.6,8.25 32,8.4 l 3.8,-4.5 q 1.1,-1.45 2.15,-1.6 1,-0.15 2.3,0.7 1.6,1.05 3.45,3.15 4.4,4.95 7.1,10.8 l 1.65,2.6 q 2.3,4.1 2.75,8.65 l 0.1,4.15 q -0.15,2.8 -0.8,4.75 l -1.85,3.8 -2.35,3.5 2.15,-2.05 q 2.2,-2.3 3.2,-3.85 2.85,-4.45 2.3,-10.05 -0.45,-5.15 -3.8,-9.65 l -3.25,-4 Q 49,12.45 48.35,10.45 47.8,8.85 47.95,7.2 L 47.75,7 47.2,6.7 46.65,6.5 45.45,6.2 Q 44.65,5.9 44.6,5.35 44.7,4.9 44.95,4.7 l 0.6,-0.35 2,-0.3 1.1,0.05 L 49,3.4 48.25,2.9 46.95,2.2 45.8,1.4 45.45,0.75 45.5,0.55 45.75,0.3 46.8,0.05 47.95,0.1 q 1.35,0.15 2.85,0.8 l 0.2,0.15 0.65,-0.5 q 1.65,-1.05 3.5,-1.25 3.35,-0.4 6.65,1.95 1.3,0.9 2.4,2.15 v 33.65 q -2.7,5 -6.65,8.75 l -2.9,2.35 -1.95,1.2 2.5,4.8 q 0.85,1.8 0.7,2.6 H 0.35 V 38.7 L 0.55,38.6 0.6,38 1.05,36.55 1.15,35.9 1.4,35.3 2.65,33.45 q 0.4,-0.65 0.75,-0.85 0.75,-0.3 1.05,0.15 0.3,0.45 0,1 L 3.9,35.4 Q 3.75,36 3.75,36.7 v 1.15 l 0.1,0.45 1.15,0.25 0.3,-1.5 0.4,-1 Q 6,35.4 6.4,35.2 l 1,0.1 0.2,0.65 q -0.2,0.75 0.1,2.3 l 0.25,1.5 v 0.45 l 0.15,0.45 0.05,0.15 q 1.25,1.4 1.85,3.05 0.9,2.5 0.2,4.75 l -0.15,0.5 q 0.05,1.35 0.5,2.65 0.3,1.05 0.95,1.8 l 1.05,0.75 2.45,0.65 5.8,-0.25 q 3,-0.4 4.3,-1.1 L 26.95,52.2 26,52.05 20.6,50.7 Q 15.7,49 13,45.95 l -2.35,-3.2 Q 9.4,40.85 8.9,39.6 8.1,37.65 7.9,34.65 l -0.05,-0.9 -0.55,-1 Q 6.35,31.05 5.65,28.4 5.15,26.2 5.15,25 l 0.2,-2.45 0.6,-4.85 Q 6.15,16 6.5,15.2 7.15,13.75 8.3,13.5 l 1.6,0.05 1.6,0.65 2.5,1 1.25,0.5 1.2,-1.4 q 1.05,-1.1 3.35,-2.45 l 0.7,-0.4 q 1.15,-0.85 2.45,-1.5 M 49.45,22.9 Q 50.3,20.05 48.5,16.4 L 47.1,14.15 Q 45.35,12.1 42.6,11.55 39.95,11 37.4,12.05 l -0.3,0.15 0.25,0.55 q 1.8,5.5 -0.45,11.5 l -0.7,1.55 -0.55,0.8 q 2.15,1.75 4.75,2.1 2.3,0.25 4.5,-0.8 2.15,-1.05 3.5,-2.95 l 1.05,-2.05 m -3.5,-2.8 -1,0.3 q -1.65,0.15 -2.7,-1.05 -0.6,-0.65 -0.75,-1.65 -0.1,-0.95 0.4,-1.75 l 0.65,-0.8 1,-0.5 0.6,-0.05 1.8,0.3 q 1,0.45 1.35,1.65 0.3,1 -0.05,2.15 l -0.2,0.3 q -0.25,0.7 -1.1,1.1 M 44.3,47.25 Q 46.05,47 47,45.6 q 1.15,-1.5 0.8,-3.7 -0.15,-1.45 -1.2,-3.7 -1,-2.3 -2.15,-3.55 -1.05,-1.1 -2.7,-2.1 -2.6,-1.55 -4.75,-1.6 -1.3,0 -2.45,0.55 -0.9,0.45 -1.45,1.2 l -0.85,-1.15 -0.9,-1.15 q -0.6,-0.5 -1,-0.45 -0.75,0 -0.85,0.7 l 0.2,1.6 0.1,0.4 0.25,0.6 0.1,0.5 0.35,1.25 q -0.95,0.75 -1.45,2.1 -0.65,1.45 -0.65,3.6 0.1,4.95 3.05,8.85 1.1,1.35 2.1,1.95 1.2,0.65 2.65,0.5 1.45,-0.15 2.55,-1 L 40,49.65 41.25,48.3 q 0.6,-0.6 1.3,-0.8 l 1.75,-0.25 m -4,-1.8 -0.65,0.6 L 39.1,46.8 38.2,47.75 38,47.6 37.7,47.1 q -0.45,-0.55 -1.1,-0.4 -0.75,0.1 -0.75,0.85 l 0.1,0.7 v 0.35 q -1.1,0.1 -2,-0.55 l -1.3,-1.3 Q 32.1,46 31.7,44.95 31.4,44.15 31.25,43.2 l -0.1,-0.75 0.25,0.1 0.7,0.4 1.5,0.5 h 0.7 l 0.55,-0.35 q 0.4,-0.55 -0.1,-1.25 L 34.1,41.15 33.15,40 32.35,39.05 q -0.45,-0.45 -0.9,-0.6 l 0.6,-0.95 q 0.35,-0.35 1,-0.75 l 1.1,-0.7 1.15,-0.85 q 0.4,-0.25 0.85,-0.45 v 0.1 0.35 l 0.4,1 0.2,0.4 q 0.2,0.9 0.55,1.4 l 0.6,0.85 0.85,0.85 0.45,0.15 0.65,-0.3 L 40,38.9 39.95,37.4 39.7,36.75 39.65,35.5 l -0.2,-1 q 0.6,0.1 1.2,0.35 2.5,1.1 3.9,3.85 l 0.55,1.75 q 0.1,1.2 -0.35,2.2 L 44.6,42.6 43.45,42.55 q -0.7,0.2 -0.8,0.8 -0.05,0.3 0.4,1.2 V 44.6 L 42,44.95 40.3,45.45 M 16.95,44.7 20.8,44.55 23.1,43.3 24.8,42 q 1.8,-1.7 1.8,-4.45 0,-2.2 -1.2,-4.15 -0.8,0.3 -0.9,0.35 l -1.45,0.2 q -3.1,0.15 -5.8,-1.3 L 15.65,31.5 15.3,31.05 Q 14.15,31.8 13.25,32.9 L 12,34.65 q -0.65,1.3 -0.8,2.85 -0.25,2.9 1.45,4.7 0.6,0.6 1.9,1.35 l 2.4,1.15 m 0,-7.6 1.05,-0.05 0.8,0.1 q 1.35,0.35 1.8,1.55 0.4,0.85 0.15,2 l -0.3,0.9 -0.4,0.55 -1.25,1 -1.15,0.15 -0.95,-0.1 Q 15.75,42.95 14.95,41.95 L 14.6,41.3 14.45,40.15 q 0,-1 0.35,-1.55 l 0.45,-0.55 q 0.9,-0.85 1.7,-0.95"
         fill="#000000"
         fill-rule="evenodd"
         stroke="none"
         id="path5" />
      <path
         d="m 49.45,22.9 -1.05,2.05 q -1.35,1.9 -3.5,2.95 -2.2,1.05 -4.5,0.8 -2.6,-0.35 -4.75,-2.1 l 0.55,-0.8 0.7,-1.55 q 2.25,-6 0.45,-11.5 L 37.1,12.2 37.4,12.05 q 2.55,-1.05 5.2,-0.5 2.75,0.55 4.5,2.6 l 1.4,2.25 q 1.8,3.65 0.95,6.5 m -3.5,-2.8 q 0.85,-0.4 1.1,-1.1 l 0.2,-0.3 q 0.35,-1.15 0.05,-2.15 -0.35,-1.2 -1.35,-1.65 l -1.8,-0.3 -0.6,0.05 -1,0.5 -0.65,0.8 q -0.5,0.8 -0.4,1.75 0.15,1 0.75,1.65 1.05,1.2 2.7,1.05 l 1,-0.3 M 44.3,47.25 42.55,47.5 q -0.7,0.2 -1.3,0.8 L 40,49.65 38.75,51 q -1.1,0.85 -2.55,1 -1.45,0.15 -2.65,-0.5 -1,-0.6 -2.1,-1.95 -2.95,-3.9 -3.05,-8.85 0,-2.15 0.65,-3.6 0.5,-1.35 1.45,-2.1 l -0.35,-1.25 -0.1,-0.5 -0.25,-0.6 -0.1,-0.4 -0.2,-1.6 q 0.1,-0.7 0.85,-0.7 0.4,-0.05 1,0.45 l 0.9,1.15 0.85,1.15 q 0.55,-0.75 1.45,-1.2 1.15,-0.55 2.45,-0.55 2.15,0.05 4.75,1.6 1.65,1 2.7,2.1 1.15,1.25 2.15,3.55 1.05,2.25 1.2,3.7 0.35,2.2 -0.8,3.7 -0.95,1.4 -2.7,1.65 m -4,-1.8 1.7,-0.5 1.05,-0.35 v -0.05 q -0.45,-0.9 -0.4,-1.2 0.1,-0.6 0.8,-0.8 l 1.15,0.05 0.15,0.05 q 0.45,-1 0.35,-2.2 L 44.55,38.7 q -1.4,-2.75 -3.9,-3.85 -0.6,-0.25 -1.2,-0.35 l 0.2,1 0.05,1.25 0.25,0.65 0.05,1.5 -0.15,0.65 -0.65,0.3 L 38.75,39.7 37.9,38.85 37.3,38 q -0.35,-0.5 -0.55,-1.4 l -0.2,-0.4 -0.4,-1 v -0.35 -0.1 q -0.45,0.2 -0.85,0.45 l -1.15,0.85 -1.1,0.7 q -0.65,0.4 -1,0.75 l -0.6,0.95 q 0.45,0.15 0.9,0.6 l 0.8,0.95 0.95,1.15 0.65,0.7 q 0.5,0.7 0.1,1.25 l -0.55,0.35 h -0.7 l -1.5,-0.5 -0.7,-0.4 -0.25,-0.1 0.1,0.75 q 0.15,0.95 0.45,1.75 0.4,1.05 0.95,1.8 l 1.3,1.3 q 0.9,0.65 2,0.55 v -0.35 l -0.1,-0.7 q 0,-0.75 0.75,-0.85 0.65,-0.15 1.1,0.4 l 0.3,0.5 0.2,0.15 0.9,-0.95 0.55,-0.75 0.65,-0.6 M 16.95,44.7 14.55,43.55 q -1.3,-0.75 -1.9,-1.35 -1.7,-1.8 -1.45,-4.7 0.15,-1.55 0.8,-2.85 l 1.25,-1.75 q 0.9,-1.1 2.05,-1.85 l 0.35,0.45 1.6,1.15 q 2.7,1.45 5.8,1.3 l 1.45,-0.2 q 0.1,-0.05 0.9,-0.35 1.2,1.95 1.2,4.15 0,2.75 -1.8,4.45 l -1.7,1.3 -2.3,1.25 -3.85,0.15 m 0,-7.6 q -0.8,0.1 -1.7,0.95 L 14.8,38.6 q -0.35,0.55 -0.35,1.55 l 0.15,1.15 0.35,0.65 q 0.8,1 1.75,1.25 l 0.95,0.1 1.15,-0.15 1.25,-1 0.4,-0.55 0.3,-0.9 Q 21,39.55 20.6,38.7 20.15,37.5 18.8,37.15 L 18,37.05 16.95,37.1"
         fill="#ffffff"
         fill-rule="evenodd"
         stroke="none"
         id="path6" />
    </g>
    <g
       id="shape2"
       transform="translate(1.5,1.5)">
      <path
         d="M 0,23.8 V 0 H 64.1 V 23.8 57.55 H 0 Z"
         fill="none"
         stroke="#000000"
         stroke-linecap="round"
         stroke-linejoin="round"
         stroke-width="3"
         id="path7" />
    </g>
  </defs>
</svg>
