<?xml version="1.0" encoding="UTF-8" standalone="no"?>
<svg
   ffdec:objectType="frame"
   height="60.549999"
   width="67.099998"
   version="1.1"
   id="svg9"
   sodipodi:docname="399.svg"
   xmlns:inkscape="http://www.inkscape.org/namespaces/inkscape"
   xmlns:sodipodi="http://sodipodi.sourceforge.net/DTD/sodipodi-0.dtd"
   xmlns:xlink="http://www.w3.org/1999/xlink"
   xmlns="http://www.w3.org/2000/svg"
   xmlns:svg="http://www.w3.org/2000/svg"
   xmlns:ffdec="https://www.free-decompiler.com/flash">
  <sodipodi:namedview
     id="namedview9"
     pagecolor="#ffffff"
     bordercolor="#000000"
     borderopacity="0.25"
     inkscape:showpageshadow="2"
     inkscape:pageopacity="0.0"
     inkscape:pagecheckerboard="0"
     inkscape:deskcolor="#d1d1d1"
     fit-margin-top="5"
     fit-margin-left="5"
     fit-margin-right="5"
     fit-margin-bottom="5" />
  <g
     transform="translate(1.5,1.5)"
     id="g3">
    <use
       ffdec:characterId="516"
       height="57.549999"
       width="64.099998"
       xlink:href="#shape0"
       id="use1" />
    <use
       ffdec:characterId="898"
       height="58.400002"
       transform="translate(0.1,-0.6)"
       width="63.950001"
       xlink:href="#shape1"
       id="use2" />
    <use
       ffdec:characterId="518"
       height="60.549999"
       transform="translate(-1.5,-1.5)"
       width="67.099998"
       xlink:href="#shape2"
       id="use3" />
  </g>
  <defs
     id="defs9">
    <g
       id="shape0">
      <path
         d="M 53.6,0 H 64.1 V 57.55 H 53.6 28.25 0 V 0 H 28.25 53.6 V 57.55 0 M 28.25,0 V 57.55 0"
         fill="#ffffff"
         fill-rule="evenodd"
         stroke="none"
         id="path3" />
    </g>
    <g
       id="shape1"
       transform="translate(-0.1,0.6)">
      <path
         d="M 3.05,46.7 Q 3.8,46.1 7.4,43.45 L 12.9,39.1 26.6,27.8 q 1.4,-1.2 2.5,-2 L 26.6,23.8 12.9,12.5 7.4,8.15 3.05,4.9 0.1,2.35 V -0.6 h 1.7 l 27.9,26 0.9,-0.55 q 0.3,0.2 -0.2,0.7 l -0.25,0.25 0.25,0.25 q 0.5,0.5 0.2,0.7 L 29.7,26.25 1.4,52.55 0.1,53.5 V 49.25 Q 1.4,48 3.05,46.7 M 17.5,4.95 13.85,-0.6 h 4.7 l 0.8,2.45 1.15,3.25 1.85,4 2.4,4.45 0.3,0.55 -0.25,0.5 q -0.3,0.1 -0.7,-0.3 L 22.35,11.9 20.75,9.35 17.5,4.95 M 22.6,16.85 12.4,6.95 4.65,-0.6 h 4.4 q 6.35,8.3 13.5,16.25 l 1.05,1.55 q -0.5,0.25 -1,-0.35 m 2.3,-17.35 0.15,0.65 0.45,0.9 2.35,8.35 h -0.3 L 27.4,9.1 26.2,6.4 24.95,3.65 23.45,0.1 23.35,-0.55 V -0.6 h 1.55 v 0.1 m 8.35,-0.1 0.05,0.1 v 0.05 0.1 0.05 0.1 0.05 0.1 V 0 0.1 l -0.05,0.05 v 0.1 0.05 0.1 0.05 0.1 0.05 0.1 0.05 0.1 L 33.2,0.9 V 1 1.05 1.15 1.2 1.3 1.35 1.45 1.5 1.6 1.65 1.75 L 33.15,1.8 V 1.9 1.95 2.05 2.1 2.2 2.25 2.35 2.4 2.5 L 33.1,2.6 V 2.65 2.75 2.8 2.9 2.95 3.05 3.1 3.2 L 33.05,3.25 V 3.35 3.4 L 33,3.5 v 0.05 l -0.05,0.1 V 3.7 3.8 3.85 L 32.9,3.95 V 4 4.1 4.15 4.25 4.3 4.4 4.45 l -0.05,0.1 V 4.6 4.7 4.75 4.85 4.9 5 5.05 L 32.8,5.15 V 5.2 5.3 5.35 5.45 5.5 5.6 L 32.75,5.65 V 5.75 5.8 5.9 5.95 L 32.7,6.05 V 6.1 6.2 6.25 6.35 6.4 6.5 L 32.65,6.55 V 6.65 6.7 6.8 L 32.6,6.85 V 6.95 7 7.1 L 32.55,7.15 V 7.25 7.3 7.4 7.45 7.55 7.6 7.7 L 32.5,7.75 v 0.1 0.05 0.1 0.05 0.1 0.05 0.1 0.05 0.1 0.05 0.1 0.05 0.1 0.05 0.1 0.05 0.1 0.05 0.1 0.05 0.1 0.05 0.1 0.05 0.1 0.1 0.05 0.1 0.05 0.1 0.05 0.1 0.05 0.1 0.05 0.1 l 0.05,0.05 0.05,0.1 v 0.05 0.1 0.05 0.1 L 32.55,11 v 0.1 0.05 l -0.05,0.1 v 0.05 0.1 0.05 0.1 0.05 0.1 l -0.05,0.05 -0.05,0.1 -0.1,0.05 h -0.05 l -0.1,0.05 -0.2,-0.05 -0.1,-0.1 -0.05,-0.05 -0.1,-0.1 -0.05,-0.05 -0.05,-0.1 v -0.05 l -0.05,-0.1 V 11.3 11.2 11.15 11.05 11 10.9 10.85 10.75 10.7 10.6 10.55 10.45 10.4 10.3 10.25 10.15 10.1 10 9.95 9.85 9.8 9.7 9.6 9.55 9.45 9.4 9.3 9.25 9.15 9.1 9 8.95 8.85 8.8 8.7 8.65 8.55 8.5 8.4 8.35 8.25 8.2 8.1 8.05 7.95 7.9 7.8 7.75 7.65 7.6 7.5 7.45 L 31.5,7.35 V 7.3 7.2 7.15 7.05 7 L 31.45,6.9 V 6.85 6.75 L 31.4,6.7 V 6.6 6.55 6.45 6.4 L 31.35,6.3 V 6.25 6.15 6.1 6 5.95 L 31.3,5.85 V 5.8 5.7 5.65 5.55 5.5 5.4 L 31.25,5.35 V 5.25 5.2 5.1 5.05 4.95 4.9 L 31.2,4.8 V 4.75 4.65 4.6 4.5 4.45 4.35 4.3 4.2 L 31.15,4.15 V 4.05 4 3.9 3.85 L 31.1,3.75 V 3.7 3.6 L 31.05,3.55 V 3.45 L 31,3.4 V 3.3 3.25 3.15 3.1 L 30.95,3 V 2.95 2.85 2.8 2.7 2.65 2.55 2.5 2.4 2.3 2.25 L 30.9,2.15 V 2.1 2 1.95 1.85 1.8 1.7 1.65 1.55 1.5 L 30.85,1.4 V 1.35 1.25 1.2 1.1 1.05 0.95 0.9 0.8 0.75 0.65 0.6 L 30.8,0.5 V 0.45 0.35 0.3 0.2 0.15 0.05 0 -0.1 -0.15 -0.25 -0.3 -0.4 -0.45 -0.55 -0.6 h 2.45 M 40.6,0.5 39.95,1.6 39.2,3.25 38.7,3.9 36.75,7.65 36.4,8.6 36.2,8.55 v -0.2 l 0.35,-1.5 2.55,-6.7 0.35,-0.55 0.2,-0.2 h 0.8 L 40.8,0 40.6,0.5 m 19.95,46.2 3.5,3.1 v 3.8 H 63.9 Q 63.2,53.55 62.2,52.55 L 33.95,26.25 33,26.75 q -0.3,-0.2 0.2,-0.7 l 0.3,-0.25 -0.3,-0.25 q -0.5,-0.5 -0.2,-0.7 l 0.95,0.55 27.9,-26 h 2.2 V 1.85 L 60.55,4.9 56.2,8.15 50.7,12.5 37,23.8 l -2.45,2 2.45,2 13.7,11.3 5.5,4.35 4.35,3.25 M 41,16.85 q -0.5,0.6 -1,0.35 0.2,-0.6 1.05,-1.55 Q 48.2,7.7 54.6,-0.6 H 59 L 51.2,6.95 41,16.85 m 5.1,-11.9 -3.25,4.4 -1.6,2.55 -1.75,2.4 -0.7,0.3 q -0.25,-0.05 -0.25,-0.5 l 0.3,-0.55 2.4,-4.45 1.85,-4 1.15,-3.25 0.85,-2.45 h 4.65 L 46.1,4.95 m 16.3,5.6 q 0.8,0.05 1.25,0.85 0.45,0.75 0.15,1.5 -0.3,0.8 -2.1,1.65 l -20.3,8.3 q -0.5,0.25 -0.55,-0.1 0,-0.2 0.3,-0.3 3.3,-1.3 9,-4.75 l 2.3,-1.35 7.6,-4.85 q 1.45,-1.05 2.35,-0.95 m -61.2,0 q 0.9,-0.1 2.35,0.95 l 7.6,4.85 2.3,1.35 q 5.7,3.45 9,4.75 l 0.3,0.3 Q 22.7,23.1 22.2,22.85 L 1.9,14.55 Q 0.6,13.95 0.1,13.4 v -2.2 q 0.45,-0.6 1.1,-0.65 m 39.8,24.2 10.2,9.9 10.2,9.85 q 1.7,1.6 1.65,2.7 l -0.1,0.6 H 58.8 L 58.2,57.05 Q 50.3,46.25 41.05,35.95 L 40,34.4 q 0.5,-0.25 1,0.35 m 6,21.95 -1.6,-3.75 -1.15,-3.2 -1.15,-3.25 -1.85,-4 -2.4,-4.45 -0.3,-0.55 q 0,-0.45 0.25,-0.5 0.3,-0.1 0.7,0.3 l 1.75,2.4 1.6,2.55 3.25,4.4 q 1.45,1.95 5.3,8.2 1.05,1.8 1,2.8 v 0.15 h -5 L 47,56.7 M 62.4,41.05 q -0.9,0.1 -2.35,-0.95 -2.3,-1.7 -7.6,-4.85 l -2.3,-1.35 q -5.7,-3.45 -9,-4.75 l -0.3,-0.3 q 0.05,-0.35 0.55,-0.1 l 20.3,8.3 q 1.8,0.85 2.1,1.65 0.3,0.75 -0.15,1.5 -0.45,0.8 -1.25,0.85 m -20.55,-15.9 8.95,-0.5 10.85,-1.1 q 1.6,-0.1 2.4,0.4 V 27.7 L 61.65,28.05 50.85,27 H 50.8 l -8.95,-0.55 -1.9,-0.15 h -0.6 q -0.5,0 -0.65,-0.25 V 25.8 25.55 q 0.15,-0.25 0.65,-0.25 h 0.6 l 1.9,-0.15 m -20.1,0 1.95,0.15 h 0.55 l 0.65,0.25 0.05,0.25 -0.05,0.25 -0.65,0.25 H 23.7 L 21.75,26.45 12.85,27 H 12.8 L 1.95,28.05 0.1,27.9 v -4.2 l 1.85,-0.15 10.85,1.1 h 0.05 l 8.9,0.5 M 1.2,41.05 Q 0.55,41 0.1,40.45 v -2.2 q 0.5,-0.6 1.8,-1.2 l 20.3,-8.3 0.55,0.1 -0.3,0.3 q -3.3,1.3 -9,4.75 l -2.3,1.35 -7.6,4.85 Q 2.1,41.15 1.2,41.05 m 21.4,-6.3 q 0.5,-0.6 1,-0.35 l -1.05,1.55 Q 13.3,46.25 5.4,57.05 L 4.85,57.8 H 0.7 L 0.55,57.2 Q 0.5,56.1 2.2,54.5 l 10.2,-9.85 10.2,-9.9 m -6,21.95 -0.4,1.1 H 11.25 L 11.2,57.65 q -0.05,-1 1,-2.8 3.85,-6.25 5.3,-8.2 l 3.25,-4.4 1.6,-2.55 1.75,-2.4 q 0.4,-0.4 0.7,-0.3 l 0.25,0.5 -0.3,0.55 q -0.65,1 -2.4,4.45 l -1.85,4 -1.15,3.25 -1.15,3.2 -1.6,3.75"
         fill="#999999"
         fill-rule="evenodd"
         stroke="none"
         id="path4" />
      <path
         d="m 35.55,32.75 0.05,-1.35 0.2,-1.15 q 0.3,-0.6 0.65,-0.55 0.4,0.05 0.5,0.75 l 0.55,1.65 0.35,1.15 q -0.1,0.75 -0.75,1 -0.65,0.15 -1.15,-0.35 -0.4,-0.5 -0.4,-1.15"
         fill="#ffffff"
         fill-rule="evenodd"
         stroke="none"
         id="path5" />
      <path
         d="M 37.4,10.45 37.2,9.5 37.05,9.1 36.7,9 q -0.25,0 -0.35,0.15 l -0.1,0.7 -0.15,1.05 q 0,0.75 0.25,1 l 0.7,0.45 0.2,0.5 0.55,0.6 0.4,0.2 2.5,1.65 0.35,0.3 1.1,1.05 0.3,0.15 0.55,0.75 q 0.2,0.35 0.5,0.2 0.25,-0.1 0.05,-0.4 L 43.3,16.95 43,16.3 42.75,16 40.85,13.65 40.6,13.4 q 1,0.4 1.9,0.95 L 43,14.6 q 0.7,0.25 1.25,-0.35 0.55,-0.6 0.1,-1.3 l -0.8,-0.7 Q 42.3,11.45 40.9,11.1 L 37.4,10.45 M 18.3,34 q -2.3,-2.75 -3.05,-5 -0.9,-2.25 -0.65,-5.45 0.05,-2.75 0.8,-5.15 -0.45,-0.8 -0.75,-1.9 -0.35,-1.4 -0.3,-4.45 0,-1.55 0.5,-2.05 0.6,-0.85 2.4,-0.8 l 2.8,0.7 0.7,0.05 Q 21.1,9.6 21.6,9.25 24.95,6.65 29.25,6.1 l 2.65,-0.2 2.25,0.2 q 4.3,0.55 7.85,3.15 l 0.85,0.7 0.7,-0.05 2.65,-0.7 q 1.7,-0.05 2.45,0.8 l 0.6,2.05 -0.3,4.45 -0.9,1.9 q 0.85,2.5 0.95,5.15 0.05,3.2 -0.65,5.45 -0.85,2.25 -3.1,5 l -3.7,3.65 q 2.85,1.45 6.85,2.45 3.65,0.8 5.65,-0.1 -2.95,-1.2 -3.45,-3.85 -0.4,-1.35 0.15,-2.75 0.4,-1.6 1.7,-2.15 1.2,-0.95 3,-0.8 1.55,0.05 2.85,1.05 2.2,1.7 3.05,5.4 0.35,1.65 0.15,3.6 -0.45,1.9 -1.6,3.5 -1.45,1.65 -3.2,2.25 -3.55,1.2 -9,-0.45 l -5.3,-1.9 -1.8,-0.8 q 1.7,3.9 2.9,9.7 0.55,3.05 -0.1,5 H 20.15 Q 19.45,56 20,52.8 21.1,47 22.9,43.1 l -1.8,0.8 -5.25,1.9 Q 10,47.45 6.9,46.2 5,45.7 3.7,44 2.2,42.3 2.1,40.5 1.85,38.55 2.25,36.9 q 0.6,-3.7 3,-5.4 1.25,-1 2.9,-1.05 1.65,-0.15 2.95,0.8 1.05,0.55 1.65,2.15 0.45,1.4 0.25,2.75 -0.7,2.65 -3.55,3.85 1.95,0.95 5.75,0 3.8,-1.05 6.85,-2.35 L 18.3,34 M 26,10.45 22.5,11.1 q -1.4,0.35 -2.65,1.15 l -0.8,0.7 q -0.45,0.7 0.1,1.3 0.55,0.6 1.25,0.35 l 0.5,-0.25 q 0.9,-0.55 1.9,-0.95 l -0.25,0.25 -1.9,2.35 -0.25,0.3 -0.3,0.65 -0.25,0.4 q -0.2,0.3 0.05,0.4 0.3,0.15 0.5,-0.2 l 0.55,-0.75 0.3,-0.15 1.1,-1.05 0.35,-0.3 2.5,-1.65 0.4,-0.2 0.55,-0.6 0.2,-0.5 0.7,-0.45 0.25,-1 -0.15,-1.05 -0.1,-0.7 Q 26.95,9 26.7,9 L 26.35,9.1 26.2,9.5 26,10.45 m 12.2,23.3 Q 40.6,30.6 39.75,24.55 39,19.55 36.9,15 36.2,13.45 35.35,12.4 34.25,11.15 32.8,10.85 V 9.4 L 32.55,8.75 q -0.3,-0.35 -0.6,-0.35 -0.8,0 -0.9,1.1 v 1.55 q -3.35,1.05 -5.8,5.8 -3.8,7.15 -2.3,13.65 0.45,2 1.35,3.15 0.85,1.1 2.3,1.85 2.95,1.7 6.15,1.3 3.6,-0.5 5.45,-3.05 m -12.25,-9 0.05,-0.5 0.05,-0.1 0.45,-1.55 0.45,-1.6 0.45,-0.9 0.35,-0.35 q 0.95,-0.7 1.85,-0.95 -0.35,0.75 -0.4,1.45 l -0.05,0.55 0.25,0.95 0.2,0.35 0.4,0.35 0.85,0.45 0.7,0.05 0.85,-0.15 0.75,-0.95 Q 33.7,21.05 33.7,19.9 L 33.65,19.35 33.55,19 q 0.4,0.05 0.9,0.4 l 0.65,0.5 0.6,0.7 0.3,0.25 0.75,0.75 q 0.65,2.55 0.85,5.25 l -0.15,-0.1 -0.9,-0.5 -0.5,-0.15 -2,-0.25 -0.6,0.1 -0.85,0.3 -0.6,0.3 -0.35,0.3 -0.3,-0.2 -0.3,-0.25 -0.55,-0.1 -1.85,0.1 -0.55,0.05 -0.75,0.3 -1.4,0.7 -0.1,0.15 0.1,-2.85 m 1.65,13.5 0.65,0.6 0.95,0.55 0.8,0.3 h 0.55 l 0.45,0.15 0.9,0.05 1.25,-0.1 0.95,-0.3 1.55,-0.95 q 0.9,-0.55 0.95,-1.1 l -0.05,-0.3 -0.2,-0.05 -0.6,-0.05 -0.8,0.4 q -1,0.75 -1.75,0.9 -0.9,0.25 -1.75,0 L 30.3,38.15 29.8,38 27.9,37.35 27.3,37.05 q -0.35,0 -0.4,0.2 l 0.05,0.35 0.65,0.65"
         fill="#000000"
         fill-rule="evenodd"
         stroke="none"
         id="path6" />
      <path
         d="m 37.4,10.45 3.5,0.65 q 1.4,0.35 2.65,1.15 l 0.8,0.7 q 0.45,0.7 -0.1,1.3 Q 43.7,14.85 43,14.6 L 42.5,14.35 Q 41.6,13.8 40.6,13.4 l 0.25,0.25 1.9,2.35 0.25,0.3 0.3,0.65 0.25,0.4 q 0.2,0.3 -0.05,0.4 -0.3,0.15 -0.5,-0.2 l -0.55,-0.75 -0.3,-0.15 -1.1,-1.05 -0.35,-0.3 -2.5,-1.65 -0.4,-0.2 -0.55,-0.6 -0.2,-0.5 -0.7,-0.45 q -0.25,-0.25 -0.25,-1 l 0.15,-1.05 0.1,-0.7 Q 36.45,9 36.7,9 l 0.35,0.1 0.15,0.4 0.2,0.95 m 0.8,23.3 q -1.85,2.55 -5.45,3.05 -3.2,0.4 -6.15,-1.3 -1.45,-0.75 -2.3,-1.85 -0.9,-1.15 -1.35,-3.15 -1.5,-6.5 2.3,-13.65 2.45,-4.75 5.8,-5.8 V 9.5 q 0.1,-1.1 0.9,-1.1 0.3,0 0.6,0.35 L 32.8,9.4 v 1.45 q 1.45,0.3 2.55,1.55 0.85,1.05 1.55,2.6 2.1,4.55 2.85,9.55 0.85,6.05 -1.55,9.2 M 26,10.45 26.2,9.5 26.35,9.1 26.7,9 q 0.25,0 0.35,0.15 l 0.1,0.7 0.15,1.05 -0.25,1 -0.7,0.45 -0.2,0.5 -0.55,0.6 -0.4,0.2 -2.5,1.65 -0.35,0.3 -1.1,1.05 -0.3,0.15 -0.55,0.75 q -0.2,0.35 -0.5,0.2 -0.25,-0.1 -0.05,-0.4 l 0.25,-0.4 0.3,-0.65 0.25,-0.3 1.9,-2.35 0.25,-0.25 q -1,0.4 -1.9,0.95 l -0.5,0.25 q -0.7,0.25 -1.25,-0.35 -0.55,-0.6 -0.1,-1.3 l 0.8,-0.7 Q 21.1,11.45 22.5,11.1 L 26,10.45 m 6.15,3 -0.6,-0.15 q -0.25,0 -0.8,0.45 l -0.4,0.4 v 0.25 l -0.1,1.55 -0.3,0.8 -0.45,0.1 Q 29.2,16.8 29.05,16.6 L 28.8,15.85 q -1,1.35 -1.65,2.95 l 0.65,-0.55 q 0.45,-0.3 1.2,-0.65 l 1.3,-0.2 q 0.95,0.2 0.85,0.95 l -0.15,0.5 -0.3,0.45 -0.15,0.75 v 0.6 q 0.1,0.65 0.8,0.85 l 0.3,0.05 0.35,-0.35 0.3,-0.45 0.2,-0.85 -0.3,-1.3 0.05,-0.55 0.4,-0.3 0.2,-0.15 0.65,-0.15 q 0.9,-0.1 1.5,0.35 l 0.35,0.25 0.25,0.15 -1.3,-2.7 -0.1,0.4 -0.2,0.6 q -0.25,0.35 -0.5,0.1 l -0.25,-0.5 -0.15,-0.55 -0.05,-0.65 0.1,-1 q -0.45,-0.3 -1,-0.45 m -6.2,11.3 -0.1,2.85 0.1,-0.15 1.4,-0.7 0.75,-0.3 0.55,-0.05 1.85,-0.1 0.55,0.1 0.3,0.25 0.3,0.2 0.35,-0.3 0.6,-0.3 0.85,-0.3 0.6,-0.1 2,0.25 0.5,0.15 0.9,0.5 0.15,0.1 Q 37.4,24.15 36.75,21.6 L 36,20.85 35.7,20.6 35.1,19.9 34.45,19.4 q -0.5,-0.35 -0.9,-0.4 l 0.1,0.35 0.05,0.55 q 0,1.15 -0.55,1.95 L 32.4,22.8 31.55,22.95 30.85,22.9 30,22.45 29.6,22.1 29.4,21.75 29.15,20.8 29.2,20.25 q 0.05,-0.7 0.4,-1.45 -0.9,0.25 -1.85,0.95 l -0.35,0.35 -0.45,0.9 -0.45,1.6 -0.45,1.55 -0.05,0.1 -0.05,0.5 m 0.4,5.3 0.45,1.15 0.4,-0.85 0.35,-0.35 h 0.05 l 0.6,0.1 0.05,0.25 0.1,0.05 0.05,0.65 v 0.8 l -0.15,0.9 0.6,0.35 q 2.7,1.3 5.3,0.25 l 1.25,-0.7 0.05,-0.3 0.1,-0.4 0.05,-0.2 0.1,-1.25 0.1,-0.4 0.35,-0.25 q 0.3,-0.05 0.4,0.25 l 0.1,0.45 0.1,0.75 q 0.6,-0.95 0.8,-2 L 37.6,28.9 37.5,28.85 36.8,28.3 q -0.6,-0.5 -1.65,-0.65 l -0.8,-0.15 -0.9,0.1 -0.7,0.2 -0.45,0.3 -0.35,0.5 -0.1,0.1 -0.45,0.1 -0.05,-0.05 -0.3,-0.2 -0.25,-0.35 q -0.25,-0.25 -0.7,-0.35 l -1.5,-0.05 -1.95,0.4 -0.45,0.2 -0.25,0.2 0.4,1.45 m 1.25,8.2 -0.65,-0.65 -0.05,-0.35 q 0.05,-0.2 0.4,-0.2 l 0.6,0.3 1.9,0.65 0.5,0.15 1.15,0.2 q 0.85,0.25 1.75,0 0.75,-0.15 1.75,-0.9 l 0.8,-0.4 0.6,0.05 0.2,0.05 0.05,0.3 Q 36.55,38 35.65,38.55 L 34.1,39.5 33.15,39.8 31.9,39.9 31,39.85 30.55,39.7 H 30 l -0.8,-0.3 -0.95,-0.55 -0.65,-0.6"
         fill="#ffffff"
         fill-rule="evenodd"
         stroke="none"
         id="path7" />
      <path
         d="m 32.15,13.45 q 0.55,0.15 1,0.45 l -0.1,1 0.05,0.65 0.15,0.55 0.25,0.5 q 0.25,0.25 0.5,-0.1 l 0.2,-0.6 0.1,-0.4 1.3,2.7 L 35.35,18.05 35,17.8 q -0.6,-0.45 -1.5,-0.35 l -0.65,0.15 -0.2,0.15 -0.4,0.3 -0.05,0.55 0.3,1.3 -0.2,0.85 -0.3,0.45 -0.35,0.35 -0.3,-0.05 q -0.7,-0.2 -0.8,-0.85 v -0.6 L 30.7,19.3 31,18.85 31.15,18.35 Q 31.25,17.6 30.3,17.4 L 29,17.6 q -0.75,0.35 -1.2,0.65 l -0.65,0.55 q 0.65,-1.6 1.65,-2.95 l 0.25,0.75 q 0.15,0.2 0.45,0.25 l 0.45,-0.1 0.3,-0.8 0.1,-1.55 v -0.25 l 0.4,-0.4 q 0.55,-0.45 0.8,-0.45 l 0.6,0.15 m -5.8,16.6 -0.4,-1.45 0.25,-0.2 0.45,-0.2 1.95,-0.4 1.5,0.05 q 0.45,0.1 0.7,0.35 l 0.25,0.35 0.3,0.2 0.05,0.05 0.45,-0.1 0.1,-0.1 0.35,-0.5 0.45,-0.3 0.7,-0.2 0.9,-0.1 0.8,0.15 q 1.05,0.15 1.65,0.65 l 0.7,0.55 0.1,0.05 -0.05,0.4 q -0.2,1.05 -0.8,2 l -0.1,-0.75 -0.1,-0.45 q -0.1,-0.3 -0.4,-0.25 l -0.35,0.25 -0.1,0.4 -0.1,1.25 -0.05,0.2 -0.1,0.4 -0.05,0.3 -1.25,0.7 q -2.6,1.05 -5.3,-0.25 l -0.6,-0.35 0.15,-0.9 v -0.8 L 28.35,30.4 28.25,30.35 28.2,30.1 27.6,30 h -0.05 l -0.35,0.35 -0.4,0.85 -0.45,-1.15"
         fill="#999999"
         fill-rule="evenodd"
         stroke="none"
         id="path8" />
    </g>
    <g
       id="shape2"
       transform="translate(1.5,1.5)">
      <path
         d="M 0,23.8 V 0 H 64.1 V 23.8 57.55 H 0 Z"
         fill="none"
         stroke="#000000"
         stroke-linecap="round"
         stroke-linejoin="round"
         stroke-width="3"
         id="path9" />
    </g>
  </defs>
</svg>
