<?xml version="1.0" encoding="UTF-8" standalone="no"?>
<svg
   ffdec:objectType="frame"
   height="60.549999"
   width="67.427269"
   version="1.1"
   id="svg7"
   sodipodi:docname="696.svg"
   xmlns:inkscape="http://www.inkscape.org/namespaces/inkscape"
   xmlns:sodipodi="http://sodipodi.sourceforge.net/DTD/sodipodi-0.dtd"
   xmlns:xlink="http://www.w3.org/1999/xlink"
   xmlns="http://www.w3.org/2000/svg"
   xmlns:svg="http://www.w3.org/2000/svg"
   xmlns:ffdec="https://www.free-decompiler.com/flash">
  <sodipodi:namedview
     id="namedview7"
     pagecolor="#ffffff"
     bordercolor="#000000"
     borderopacity="0.25"
     inkscape:showpageshadow="2"
     inkscape:pageopacity="0.0"
     inkscape:pagecheckerboard="0"
     inkscape:deskcolor="#d1d1d1"
     fit-margin-top="5"
     fit-margin-left="5"
     fit-margin-right="5"
     fit-margin-bottom="5" />
  <g
     transform="translate(1.8272727,1.5)"
     id="g3">
    <use
       ffdec:characterId="516"
       height="57.549999"
       width="64.099998"
       xlink:href="#shape0"
       id="use1" />
    <use
       ffdec:characterId="1186"
       height="59.700001"
       transform="translate(-1.85,-1)"
       width="66.599998"
       xlink:href="#shape1"
       id="use2" />
    <use
       ffdec:characterId="518"
       height="60.549999"
       transform="translate(-1.5,-1.5)"
       width="67.099998"
       xlink:href="#shape2"
       id="use3" />
  </g>
  <defs
     id="defs7">
    <g
       id="shape0">
      <path
         d="M 53.6,0 H 64.1 V 57.55 H 53.6 28.25 0 V 0 H 28.25 53.6 V 57.55 0 M 28.25,0 V 57.55 0"
         fill="#ffffff"
         fill-rule="evenodd"
         stroke="none"
         id="path3" />
    </g>
    <g
       id="shape1"
       transform="translate(1.85,1)">
      <path
         d="M 0,0 H 64.1 V 57.55 H 0 V 0"
         fill="#999999"
         fill-rule="evenodd"
         stroke="none"
         id="path4" />
      <path
         d="m 50.1,6.65 0.3,-0.1 0.45,-0.25 0.6,-0.2 0.1,-0.25 0.5,-0.1 0.5,0.25 0.5,1.05 q 0.8,-0.55 1.9,-0.65 l 0.75,0.15 0.3,0.7 0.1,1.05 1.15,0.1 q 1,0.25 1.35,1.05 l 0.15,1.05 -0.05,0.6 -0.35,0.7 -0.2,0.25 -0.1,0.1 -0.4,0.25 -0.35,0.2 0.3,0.8 0.05,0.85 -0.35,1.1 -0.5,0.6 v 0.2 q 0.1,0.6 -0.2,1.1 -0.35,0.7 -1.15,0.6 -0.75,0 -1.1,-0.75 l -0.1,-0.5 -0.8,-0.25 -0.35,-0.1 -1.1,0.35 -0.65,-0.15 -0.1,-0.1 Q 50.6,16 50.5,15.4 50.4,14.85 50.75,14.45 50.9,14.1 51.2,13.9 l 0.1,-0.05 0.4,-0.25 0.4,-0.1 0.05,-0.25 0.3,-0.5 0.1,-0.3 0.35,-0.35 0.4,-0.35 Q 53.2,10.95 53.5,9.9 L 53.8,9.25 54.05,9 54.6,8.6 54.8,8.55 54.6,7.7 Q 53.8,7.85 53.15,8.3 52.85,8.6 52.6,8.55 52.4,8.5 52.15,7.75 L 51.75,7.2 51.05,7.5 50.4,7.7 H 50.05 L 49.7,7.55 V 7.15 L 50,6.7 50.1,6.65 m 4.35,16.85 q 0.4,-0.3 0.95,-0.4 l 1.45,-0.05 h 0.1 l 1.05,0.45 0.1,0.05 1.35,1.05 0.25,0.75 q 0.3,1.05 0.2,2.25 l -0.3,1.25 0.85,0.25 q 1.45,0.65 2.45,2.25 1,1.6 1.35,4 0.5,3.05 -0.55,4.75 l -1.35,1.5 -0.6,0.45 q 1.85,2.25 1.85,5.2 l -0.3,2.25 -0.5,1.4 -0.25,0.45 Q 61.8,52.7 59.75,54 56.35,56.1 53.5,55.15 L 52.85,54.9 51.65,54.2 51.35,54 49.8,53.9 47.75,54.1 Q 46.5,54 46,53.25 l -0.2,-0.7 -0.2,-0.7 Q 45.45,51.45 44.9,51 l -0.8,-0.75 -1.7,2.05 q -0.75,0.95 -1.45,0.85 -0.5,-0.05 -0.85,-0.6 l -0.5,-0.95 -0.8,-1.1 -0.9,-1 -0.6,-0.95 q -0.15,-0.65 0.2,-1.1 l 1.35,-0.15 1.05,0.95 0.05,0.05 1.3,1.5 v 0.05 l 0.05,-0.05 1.45,-1.85 q 0.65,-0.75 1.05,-0.9 l 1.2,0.2 0.15,0.15 0.8,0.65 1.7,1.75 0.45,0.35 0.45,0.05 -0.3,-1.4 q -0.1,-2.05 0.8,-3.7 l 0.6,-0.9 1.95,-2.15 0.2,-0.2 -0.35,-0.3 L 50.9,41 q -0.9,-1.15 -1.35,-2.55 -1.05,-3.55 1.2,-7 0.75,-1.1 1.6,-1.7 l -0.3,-0.7 -0.15,-0.9 0.1,-1.4 0.3,-0.9 0.4,-0.45 0.1,-0.15 0.65,-0.7 V 24.5 L 54,23.85 54.45,23.5 m -17.55,12.8 0.25,1.35 q 1.4,-0.1 2.15,1.05 0.3,0.6 0.2,1.25 L 38.95,41 37.65,41.5 36.25,41.45 35.1,41.1 Q 34.35,40.65 34.3,39.95 V 38.9 l -0.25,-2.15 -0.1,-0.9 H 33.9 l -1,0.3 -1.55,0.1 -0.7,0.35 -1.35,0.65 -0.65,0.25 -0.05,0.05 -0.2,0.65 -0.25,0.8 -0.25,1.1 -0.2,0.5 -0.6,0.45 -0.3,0.05 -0.95,0.1 H 24.9 l -0.65,-0.05 -0.75,-0.5 -0.15,-0.2 Q 23,39.95 23.05,39.35 23.1,38.8 23.5,38.3 l 0.95,-0.6 0.65,-0.2 0.25,-0.2 -0.85,-0.05 -1.5,0.1 q -0.9,0.1 -1.3,0.35 l -0.4,0.3 -1,0.95 q -0.55,0.4 -1.3,0.35 -0.75,-0.05 -1.3,-0.55 -0.5,-0.5 -0.6,-1.2 -0.15,-0.75 0.2,-1.35 l 0.8,-0.85 0.35,-0.3 1.45,-0.65 1.15,-0.25 h 0.95 0.7 0.25 l 0.95,0.1 1.85,0.4 0.75,0.35 0.65,-1.45 0.5,-1 v -0.3 l 0.45,-1.3 0.1,-0.6 0.15,-0.35 0.15,-0.5 0.6,-0.9 0.05,-0.1 0.25,-0.3 -1.2,-1.4 -1.7,-1.8 -0.9,-0.8 -0.7,-1.15 -0.05,-0.1 -0.7,-1 -0.8,-0.55 -0.1,-0.05 -0.95,-0.55 q -0.55,-0.5 -0.75,-1.25 -0.2,-0.8 0.05,-1.5 l 0.3,-0.55 0.65,-0.6 q 0.65,-0.45 1.45,-0.4 0.75,0.05 1.35,0.55 l 0.75,1 0.05,0.25 0.25,1.05 0.7,1.1 0.5,0.9 0.1,-0.2 V 20.8 l 0.15,-0.95 0.15,-0.65 0.6,-1 0.8,-0.35 0.8,0.25 0.05,0.05 0.5,0.4 h 0.15 l 0.35,-0.1 q 1.05,-0.15 2.5,0 l 0.85,0.15 0.05,-0.05 q 0.75,-0.5 1.3,-0.6 l 0.8,0.1 0.5,0.35 0.3,0.45 0.1,0.35 0.25,0.95 0.25,1.25 0.05,0.15 1.65,-2.3 0.4,-0.75 0.15,-0.7 0.15,-0.35 0.55,-0.7 q 0.55,-0.45 1.2,-0.45 0.7,0.05 1.2,0.5 0.55,0.5 0.65,1.15 l -0.25,1.25 -1,0.85 -0.65,0.3 -0.4,0.5 -0.9,0.95 -0.7,0.7 -1.1,1.4 -1.15,1.35 -0.15,0.15 -0.8,1.2 -0.75,0.8 -0.7,0.85 0.25,2.95 0.05,0.2 0.1,0.5 0.1,0.35 0.15,1.15 0.65,2.9 m -24.2,7.65 1.6,1.5 q 1.95,2.05 2.65,3.45 0.9,1.65 0.95,3.4 0.2,2.7 -1.4,4.2 l -1.45,1 Q 13.9,58.25 13.2,58.4 L 10.7,58.6 6.9,58.45 2.05,57.95 1.85,57.9 H 2 l 4.1,-0.2 1.85,-0.2 q 1.85,-0.2 2.4,-1 l 1,0.35 q 0.6,-0.05 1.05,-0.45 0.75,-0.7 0.85,-2.05 L 13.3,54.1 h -0.05 l -0.4,0.1 q -0.7,0.05 -1.45,0.4 l -1.15,0.55 -0.95,0.7 -0.2,0.2 -0.5,0.7 L 8.1,57.4 7.55,57.5 7,57.25 Q 6.55,56.85 6.9,56.1 7.1,55.75 7.8,55.25 l 0.85,-0.6 1.45,-0.7 0.75,-0.25 1.3,-0.45 0.5,-0.1 0.45,0.05 0.2,0.05 Q 13.1,51 11.5,49.2 9.5,47.05 6.65,46.75 3.9,46.45 1.25,47.9 l -1.3,1.15 -0.5,1.2 -0.35,1.6 -0.15,2.8 -0.05,-0.2 -0.35,-4.15 q 0,-1.8 0.4,-2.75 0.35,-1.05 1.3,-2.25 -0.8,-0.5 -1.3,-1.65 -0.6,-1.45 -0.6,-3.5 l 0.15,-2.4 0.05,-0.1 q 0.15,-1.35 0.6,-2.25 l 0.1,-0.15 q 0.7,-1.25 2.05,-2 1,-0.55 2.05,-0.7 l 0.9,-0.05 q 1.5,0.05 2.8,0.75 1.35,0.7 2.5,2.05 l 0.8,1.2 q 0.8,1.7 0.35,4.35 l -0.3,1.45 -0.2,0.55 q 1,0.25 1.8,0.7 l 0.55,0.3 0.15,0.1 m 0.65,-22 0.2,0.15 0.4,0.6 0.3,0.8 0.05,0.3 0.85,-0.45 0.9,-0.05 q 0.7,0.25 0.55,1.05 l 0.05,0.75 0.15,0.45 0.3,0.6 1.55,-0.05 q 0.55,0.1 0.55,0.45 0.1,0.3 -0.2,0.4 l -0.5,0.2 -1.4,0.25 h -0.65 q -0.4,-0.1 -0.4,-0.4 l 0.05,-0.25 -0.4,-0.6 -0.15,-0.4 -0.2,-0.3 h -0.2 l -0.7,0.35 -0.25,0.25 -0.65,0.3 -0.2,0.15 -0.35,0.15 q -0.65,0.4 -1.7,0.4 L 10.2,26.9 9.65,26.65 8.8,25.9 Q 8.4,25.45 8.35,24.95 L 8.3,24.85 8.35,24.1 Q 8.45,23 8.9,22.5 V 22.4 L 9.2,22.05 9.4,21.9 9.3,21.75 8.65,20.65 H 8.6 L 7.5,20.5 Q 7,20.25 6.8,19.8 6.45,19.05 7.05,18.35 7.55,17.8 8.4,17.55 L 9.15,17.5 9.7,17.7 q 0.3,-0.3 0.7,-0.4 h 0.3 q -0.05,-1.1 0.85,-1.6 l 1.05,-0.2 q 0.55,0.1 0.9,0.55 0.7,0.7 0.25,1.8 l -0.1,0.4 0.15,0.3 0.3,0.55 0.1,1.05 -0.05,0.15 -0.5,1.15 -0.2,0.3 -0.15,0.2 h 0.05 m 43.1,-10.7 -0.25,-0.1 0.1,-0.4 0.1,-0.05 0.5,0.2 0.3,-0.2 -0.05,-0.45 Q 57,9.95 56.55,9.85 L 55.8,9.75 H 55.5 L 55.05,9.8 54.7,10.1 q -0.1,0.4 0.25,0.55 l 0.3,0.1 -0.05,0.15 -0.45,0.05 q -0.2,0 -0.3,0.15 -0.2,0.2 -0.1,0.35 l 0.35,0.2 0.25,0.05 0.3,0.1 0.25,0.1 0.1,0.05 h 0.1 0.35 l 0.4,-0.25 q 0.2,-0.25 0,-0.45 m -1,1.45 -0.7,-0.2 q -0.65,-0.05 -1.3,0.55 -0.45,0.65 -0.4,1.4 0.1,0.5 0.35,0.85 l 1.05,0.3 1.3,-0.2 0.4,-0.65 0.15,-0.45 -0.1,-0.9 -0.75,-0.7 m 0.5,22.1 q -0.4,0.6 -1.1,0.7 -0.75,0.15 -1.3,-0.4 -0.55,-0.5 -0.5,-1.25 0.1,-0.75 0.65,-1.15 0.45,-0.3 1,-0.25 0.6,0.05 1,0.4 l 0.45,0.9 -0.2,1.05 m -4.4,1.2 0.1,0.8 0.95,-0.3 0.55,-0.05 0.05,-0.15 0.25,-0.15 0.1,-0.05 q 0.3,0 0.4,0.3 v 0.05 l 1.25,0.15 0.2,-0.25 q 0.45,-0.1 0.55,0.4 v 0.1 l 0.7,0.35 0.05,-0.1 0.25,-0.3 0.65,-0.05 0.35,0.6 -0.15,0.55 0.95,1.65 0.1,0.3 0.25,-0.1 1.5,-0.95 q 0.8,-0.9 0.8,-2.95 0,-2.2 -0.8,-3.3 -0.7,-0.8 -1.7,-1.1 l -2,-0.35 q -2.75,0 -4.05,1.3 -1.3,1.25 -1.3,3.6 m 6.8,1.2 -0.65,-0.75 q -0.4,-0.9 0.25,-1.65 0.65,-0.8 1.55,-0.55 1,0.15 1.25,1.15 0.25,1 -0.6,1.7 l -1.8,0.1 m -6.25,8.35 0.2,0.4 0.9,0.65 0.7,0.3 V 47 l 0.1,1.05 -1.7,-0.5 -0.55,-0.2 h -0.1 q -0.4,0 -0.6,0.35 Q 50.8,48 51,48.4 l 0.9,0.85 0.1,0.15 0.35,0.4 0.55,0.25 1.65,0.4 q 2,0.3 3.8,-0.05 0.75,-0.1 1.15,-0.5 l 0.25,-0.75 -0.35,-0.7 -0.9,-0.25 -0.9,0.15 -1.55,-0.05 0.05,-0.2 0.2,-0.75 2.15,-0.05 1,-0.6 q 0.5,-0.6 0.05,-1.1 -0.3,-0.35 -1.15,-0.35 L 55.95,45.1 54.2,44.9 53.55,44.75 52.95,44.5 52.4,44.2 q -0.5,0.1 -0.65,0.55 l 0.05,0.35 0.3,0.45 M 56.6,40.2 58.1,40.05 57.75,39.7 57.15,39.1 57,39.3 56.45,39.45 56,39.05 55.95,38.5 l 0.1,-0.2 -0.3,-0.15 -0.1,-0.05 -0.05,0.15 -0.1,0.05 -0.2,0.25 -0.5,0.25 -0.2,-0.05 q -0.1,-0.1 -0.05,-0.2 l 0.1,-0.2 -0.05,-0.3 V 37.9 L 54,37.85 53.95,38 53.8,38.25 53.55,38.2 53.35,38.1 53.3,37.9 52.45,38 l -0.1,0.05 0.45,0.5 1.05,0.8 q 1.1,0.75 2.75,0.85 m -44.4,-17.4 -0.95,-0.05 -0.5,0.1 -0.3,0.05 q -0.4,0.2 -0.45,0.55 v 0.05 l 0.2,0.4 0.65,0.1 0.1,-0.05 H 11 v 0.4 l -0.65,0.2 Q 10.1,24.8 10.2,25.1 l 0.4,0.4 0.95,-0.15 h 0.15 0.15 L 12,25.3 l 0.55,-0.05 0.75,-0.15 0.15,-0.35 -0.2,-0.4 -0.65,-0.1 -0.3,0.05 -0.1,-0.35 -0.05,-0.1 0.35,-0.1 q 0.35,-0.1 0.35,-0.45 l -0.2,-0.35 Q 12.5,22.8 12.3,22.8 h -0.1 m -2.35,-3 0.1,0.85 0.55,0.75 q 0.35,0.3 0.85,0.45 l 0.5,0.05 0.8,-0.2 q 0.6,-0.35 0.75,-1 v -0.05 -0.8 L 12.95,18.8 q -0.45,-0.5 -1.25,-0.5 -1,-0.1 -1.5,0.5 -0.25,0.4 -0.35,1 M 12.9,20 v 0.1 l 0.05,0.05 -0.05,0.2 -0.1,0.15 -0.1,0.1 h -0.15 l -0.35,-0.15 -0.05,-0.25 0.1,-0.25 0.1,-0.15 h 0.2 l 0.2,0.05 L 12.9,20 M 11.75,19.9 11.65,20.25 11.2,20.6 10.7,20.55 10.3,20 q 0,-0.3 0.3,-0.55 l 0.1,-0.1 0.5,-0.1 q 0.3,0.1 0.45,0.3 l 0.1,0.35 m -4.55,34.75 -2,0.1 Q 4.25,54.45 3.75,53.45 L 3.65,53.4 q -0.45,-1.1 0,-2.2 L 3.75,51.15 4,50.7 Q 4.95,49.4 6.5,49.75 8,50 8.5,51.45 9,52.95 7.95,54.1 l -0.2,0.2 -0.55,0.35"
         fill="#000000"
         fill-rule="evenodd"
         stroke="none"
         id="path5" />
      <path
         d="m 30.25,18.15 -0.5,-6.8 q -3.35,1 -5.65,1.9 l -0.7,0.1 Q 23,13.2 22.75,12.2 22.6,11.45 21.85,10.25 L 19.45,6.2 19.15,5.6 18.95,5.5 17.05,4.15 15.55,3.3 14.75,2.7 14.05,2.35 13.55,1.8 13,1.45 12.65,1.1 12.15,0.75 Q 11.9,0.6 12,0.25 12,-0.1 12.35,-0.2 l 0.65,0.15 0.5,0.5 0.75,0.5 0.45,0.4 3,1.85 1.15,0.8 0.25,0.25 0.6,-1 1.75,-3.1 0.5,-0.85 0.45,-0.15 0.45,0.15 q 0.35,0.4 -0.1,1.05 l -2.45,4.5 2.85,5.05 0.95,1.85 5.55,-1.7 q 0.5,-0.2 0.75,0 l 0.25,0.65 0.5,6.5 L 33.3,7.05 33.75,5.8 q 0.5,-0.7 1.15,-0.45 l 0.5,0.45 0.1,0.05 q 2.35,1.15 4,2.9 l 0.4,-1.5 1.5,-4 0.45,-0.8 0.15,-0.3 -0.5,-1.7 -0.1,-0.9 Q 41.6,-1 42.05,-1 q 0.6,0.05 0.7,1.05 l 0.1,0.35 V 0.35 q 0.65,-0.5 1.4,-0.15 0.8,0.3 0.8,1.2 l -0.1,0.7 -0.2,0.65 -0.3,0.8 -0.3,0.6 0.65,1.6 0.95,2.2 q 1.7,-0.9 3.35,-1.5 0.55,-0.25 0.85,0 L 50.1,6.65 50,6.7 49.7,7.15 v 0.4 l 0.35,0.15 h 0.35 l 0.5,1.55 1.15,3.6 0.4,-0.1 -0.3,0.5 -0.05,0.25 -0.4,0.1 -0.4,0.25 -0.1,0.05 0.05,-0.15 L 51,12.9 50.65,11.5 50.05,9.95 49.3,8.05 49.15,7.8 48.75,7.85 45.95,9.2 45.1,9.35 44.7,8.8 43.75,6.6 43.4,5.8 l -1,2.3 q -0.7,1.5 -0.95,2.5 l -0.3,0.85 -0.75,0.6 q -0.45,0.1 -0.85,-0.3 l -0.6,-0.7 Q 38.05,9.8 36.6,8.75 l -0.75,-0.55 0.1,1.8 0.3,3.35 0.25,1.45 0.2,2.3 0.05,0.95 -0.8,-0.1 q -0.55,0.1 -1.3,0.6 L 34.6,18.6 33.75,18.45 q -1.45,-0.15 -2.5,0 l -0.35,0.1 h -0.15 l -0.5,-0.4 m 27.8,-6 2.95,-0.2 q -1.7,-4.9 -2.15,-10.4 0,-0.5 0.2,-0.6 0.4,-0.25 0.75,0.45 0.85,1.65 1.65,4.85 0.9,3.65 1.45,5 0.45,1.35 0.2,1.8 -0.25,0.65 -1.4,0.85 l -4.05,0.35 -0.05,-0.85 -0.3,-0.8 0.35,-0.2 0.4,-0.25 m -4.6,4.2 0.05,7.1 0.95,0.05 -0.45,0.35 -0.55,0.65 v 0.05 l -0.65,0.7 -0.1,0.15 q -0.8,0.3 -2.2,-0.3 l -0.15,0.15 q -1.35,1.1 -3.15,3.9 l -0.75,0.9 v 0.05 l -0.2,0.35 -0.9,1.75 -0.55,0.7 -0.05,0.05 -0.25,0.5 -0.4,2.05 -1,10.3 7.8,-4.8 0.55,0.55 0.35,0.3 -0.2,0.2 -1.95,2.15 -0.6,0.9 -3.3,1.9 -0.6,0.4 -0.15,-0.15 -1.2,-0.2 q -0.4,0.15 -1.05,0.9 L 41.3,49.8 h -0.05 l -1.3,-1.5 Q 39.9,47.85 40,47.35 41,40.7 41.25,35 L 36.9,36.3 36.25,33.4 36.1,32.25 36,31.9 l -0.1,-0.5 -0.05,-0.2 5.65,-1.3 0.4,-0.05 1.15,-0.4 1.4,-0.3 q 0.8,-0.2 1.25,-0.6 l 0.75,-0.75 2.95,-3.15 -7.7,-2.8 -0.75,-0.05 0.9,-0.95 0.4,-0.5 0.65,-0.3 1,-0.85 2.4,1.25 4.85,2.45 q 0.4,-3.4 0.2,-6.45 l 0.65,0.15 1.1,-0.35 0.35,0.1 m 3.4,6.7 q 0.7,-1.25 1.8,-2.2 l 0.55,-0.35 0.7,0.1 2.1,0.2 2.5,0.6 0.2,0.1 -0.15,0.45 -0.5,0.05 -3.6,-0.3 -0.8,0.05 q -0.4,0.1 -0.95,0.65 L 58,23.5 56.95,23.05 h -0.1 m 5.95,27.85 0.1,-0.05 1,0.05 -0.4,0.65 q -4.6,3 -8.25,5.95 -0.75,0.65 -1.25,0.45 -0.45,-0.15 -0.65,-1 l -0.5,-2.05 0.65,0.25 q 2.85,0.95 6.25,-1.15 2.05,-1.3 2.8,-2.65 L 62.8,50.9 M 34.05,36.75 33.9,36.7 33.35,36.45 q -3.1,2.2 -5.65,4.15 l 0.2,-0.5 0.25,-1.1 0.25,-0.8 0.2,-0.65 0.05,-0.05 0.65,-0.25 1.35,-0.65 0.7,-0.35 1.55,-0.1 1,-0.3 h 0.05 l 0.1,0.9 m -6.95,4.3 q -1,0.7 -1.85,1.35 l 4.65,2.45 Q 31,45.4 31.15,46 l 0.05,0.35 0.9,1.1 1.4,1.7 2.7,4.3 1.95,2.9 0.6,1.05 q 0.2,0.8 -0.5,0.95 -0.45,0.1 -1,-0.45 L 36,56.1 34.9,54.2 32.3,50.15 31.65,49.4 30.6,47.95 q -0.65,1.3 -1.15,3.75 l -1.05,4 q -0.6,1.4 -1.35,1.7 l -0.2,0.1 -0.85,0.4 -2.6,0.6 -1.7,0.15 Q 20.75,58.4 20.65,57.4 20.6,56.7 21.4,55.6 l 2.75,-3.85 0.6,-1 1.95,-3.3 Q 24.75,46.3 22.8,45.7 L 21.1,45.05 20,44.3 q -0.4,0 -0.75,-0.35 L 18.95,43.5 18.7,43.4 Q 18.3,43.15 16.5,42.45 L 14.6,41.7 12.7,43.95 12.55,43.85 12,43.55 V 43.5 l 1.15,-1.4 0.95,-1.55 q 0.25,-0.25 0.7,-0.25 l 0.75,0.25 2.35,0.9 1.2,0.5 0.05,-0.15 Q 20.1,39.85 21.3,38 l 0.4,-0.3 q 0.4,-0.25 1.3,-0.35 l 1.5,-0.1 0.85,0.05 -0.25,0.2 -0.65,0.2 -0.95,0.6 q -0.4,0.5 -0.45,1.05 -0.05,0.6 0.3,1.1 l 0.15,0.2 0.75,0.5 0.65,0.05 h 0.95 l 0.95,-0.1 0.3,-0.05 M 1.85,57.9 Q -0.05,57.75 -0.7,56.75 -1.1,56.1 -1.1,55.1 l 0.05,-0.45 0.15,-2.8 0.35,-1.6 0.5,-1.2 1.3,-1.15 q 2.65,-1.45 5.4,-1.15 2.85,0.3 4.85,2.45 1.6,1.8 1.8,4.05 l -0.2,-0.05 -0.45,-0.05 -0.5,0.1 -1.3,0.45 -0.75,0.25 -1.45,0.7 -0.85,0.6 Q 7.1,55.75 6.9,56.1 6.55,56.85 7,57.25 l 0.55,0.25 0.55,-0.1 0.5,-0.65 0.5,-0.7 0.2,-0.2 0.95,-0.7 1.15,-0.55 q 0.75,-0.35 1.45,-0.4 l 0.4,-0.1 h 0.05 l -0.05,0.25 q -0.1,1.35 -0.85,2.05 -0.45,0.4 -1.05,0.45 l -1,-0.35 q -0.55,0.8 -2.4,1 L 6.1,57.7 2,57.9 H 1.85 M -1.45,37.65 H -1.5 q -0.6,-0.6 -0.1,-1.55 l 0.85,-0.85 -0.1,0.15 q -0.45,0.9 -0.6,2.25 m 4.8,-5.1 4.05,-2.3 q 1.4,-0.8 2.25,-0.8 0.65,0 1.95,0.5 4.05,1.6 6.95,2.45 l 0.9,0.15 0.85,-0.45 0.85,-0.35 0.05,-0.05 5.75,-4.1 -2.05,-4.55 0.7,1.15 0.9,0.8 1.7,1.8 1.2,1.4 -0.25,0.3 -0.05,0.1 -0.6,0.9 -0.15,0.5 -0.15,0.35 -0.1,0.6 -0.45,1.3 v 0.3 l -0.5,1 -0.65,1.45 -0.75,-0.35 -1.85,-0.4 0.3,-0.4 -1.35,0.2 -0.15,0.1 H 22 21.05 L 19.9,34.4 18.45,35.05 18.1,35.35 17.05,34.85 11.6,32.3 9.9,31.9 q -0.5,0 -1.5,0.55 l -1.35,0.8 q -1.3,-0.7 -2.8,-0.75 l -0.9,0.05 m 20,-11.15 -3.25,-0.3 -2.95,-0.4 q -1.1,-0.15 -1.6,-0.55 l -0.25,0.2 -1.95,1.6 H 13.3 l 0.15,-0.2 0.2,-0.3 0.5,-1.15 0.05,-0.15 0.8,-0.8 0.1,-0.1 V 17.9 l -0.3,-2 -2.05,-7.65 Q 11.3,8.15 9.45,9.1 l -3.15,1.65 -1.5,0.5 -1.5,0.6 Q 2,12.45 1.55,12.1 1.15,11.75 1.15,10.85 L 1,1.6 Q 0.9,0.85 1.2,0.5 1.35,0.25 1.65,0.2 l 0.5,0.1 0.2,0.65 0.4,8.9 Q 5.15,9.2 7.45,8.05 9.65,6.95 10.3,6.8 L 11.4,6.65 12.5,6.35 13.9,6 q 0.65,0.2 1.05,1.3 1.2,3.1 2.85,9.85 l 4.1,0.35 -0.3,0.55 q -0.25,0.7 -0.05,1.5 0.2,0.75 0.75,1.25 l 0.95,0.55 0.1,0.05 M 8.8,25.9 7.45,26.85 6.7,27 6.25,26.55 3.7,23.2 3.4,23.35 1.1,24.7 0.65,24.9 Q 0.3,25 0.2,24.7 0.05,24.4 0.45,24.1 1.6,22.95 2.9,22.15 L 3.2,22 v -0.05 l 0.3,-0.3 Q 4,21.55 4.45,22.2 l 2.65,3.55 1.25,-0.8 q 0.05,0.5 0.45,0.95 m 17.3,-7.85 0.6,0.35 q 0.55,0.4 1.15,1.45 L 27.7,20.8 v 0.35 l -0.1,0.2 -0.5,-0.9 -0.7,-1.1 -0.25,-1.05 -0.05,-0.25 m 30.35,-6.8 q 0.2,0.2 0,0.45 l -0.4,0.25 H 55.7 55.6 l -0.1,-0.05 -0.25,-0.1 -0.3,-0.1 -0.25,-0.05 -0.35,-0.2 q -0.1,-0.15 0.1,-0.35 0.1,-0.15 0.3,-0.15 l 0.45,-0.05 0.05,-0.15 -0.3,-0.1 Q 54.6,10.5 54.7,10.1 L 55.05,9.8 55.5,9.75 h 0.3 l 0.75,0.1 q 0.45,0.1 0.6,0.4 l 0.05,0.45 -0.3,0.2 -0.5,-0.2 -0.1,0.05 -0.1,0.4 0.25,0.1 m -1,1.45 0.75,0.7 0.1,0.9 -0.15,0.45 -0.4,0.65 -1.3,0.2 -1.05,-0.3 q -0.25,-0.35 -0.35,-0.85 -0.05,-0.75 0.4,-1.4 0.65,-0.6 1.3,-0.55 l 0.7,0.2 m 0.5,22.1 0.2,-1.05 -0.45,-0.9 q -0.4,-0.35 -1,-0.4 -0.55,-0.05 -1,0.25 -0.55,0.4 -0.65,1.15 -0.05,0.75 0.5,1.25 0.55,0.55 1.3,0.4 0.7,-0.1 1.1,-0.7 m -4.4,1.2 q 0,-2.35 1.3,-3.6 1.3,-1.3 4.05,-1.3 l 2,0.35 q 1,0.3 1.7,1.1 0.8,1.1 0.8,3.3 0,2.05 -0.8,2.95 l -1.5,0.95 -0.25,0.1 -0.1,-0.3 -0.95,-1.65 0.15,-0.55 -0.35,-0.6 -0.65,0.05 -0.25,0.3 -0.05,0.1 -0.7,-0.35 v -0.1 q -0.1,-0.5 -0.55,-0.4 L 55.2,36.6 53.95,36.45 V 36.4 q -0.1,-0.3 -0.4,-0.3 l -0.1,0.05 -0.25,0.15 -0.05,0.15 -0.55,0.05 -0.95,0.3 -0.1,-0.8 m 6.8,1.2 1.8,-0.1 Q 61,36.4 60.75,35.4 60.5,34.4 59.5,34.25 58.6,34 57.95,34.8 57.3,35.55 57.7,36.45 l 0.65,0.75 M 44.7,30.55 44.75,30.7 44.9,30.55 h -0.2 m 11.9,9.65 q -1.65,-0.1 -2.75,-0.85 l -1.05,-0.8 -0.45,-0.5 0.1,-0.05 0.85,-0.1 0.05,0.2 0.2,0.1 0.25,0.05 L 53.95,38 54,37.85 54.6,37.9 v 0.15 l 0.05,0.3 -0.1,0.2 q -0.05,0.1 0.05,0.2 l 0.2,0.05 0.5,-0.25 0.2,-0.25 0.1,-0.05 0.05,-0.15 0.1,0.05 0.3,0.15 -0.1,0.2 0.05,0.55 0.45,0.4 0.55,-0.15 0.15,-0.2 0.6,0.6 0.35,0.35 -1.5,0.15 M 52.1,45.55 51.8,45.1 51.75,44.75 Q 51.9,44.3 52.4,44.2 l 0.55,0.3 0.6,0.25 0.65,0.15 1.75,0.2 2.4,0.15 q 0.85,0 1.15,0.35 0.45,0.5 -0.05,1.1 l -1,0.6 -2.15,0.05 -0.2,0.75 -0.05,0.2 1.55,0.05 0.9,-0.15 0.9,0.25 0.35,0.7 -0.25,0.75 q -0.4,0.4 -1.15,0.5 -1.8,0.35 -3.8,0.05 L 52.9,50.05 52.35,49.8 52,49.4 51.9,49.25 51,48.4 q -0.2,-0.4 0.05,-0.7 0.2,-0.35 0.6,-0.35 h 0.1 l 0.55,0.2 1.7,0.5 L 53.9,47 v -0.1 l -0.7,-0.3 -0.9,-0.65 -0.2,-0.4 M 37.55,18.85 38.3,18 q 0.55,-0.55 1.15,-0.7 l 1.1,0.15 -0.15,0.35 -0.15,0.7 -0.4,0.75 -1.65,2.3 L 38.15,21.4 37.9,20.15 37.65,19.2 37.55,18.85 M 9.85,19.8 q 0.1,-0.6 0.35,-1 0.5,-0.6 1.5,-0.5 0.8,0 1.25,0.5 l 0.45,1.05 v 0.8 0.05 q -0.15,0.65 -0.75,1 l -0.8,0.2 -0.5,-0.05 Q 10.85,21.7 10.5,21.4 L 9.95,20.65 9.85,19.8 m 2.35,3 h 0.1 q 0.2,0 0.35,0.15 l 0.2,0.35 q 0,0.35 -0.35,0.45 l -0.35,0.1 0.05,0.1 0.1,0.35 0.3,-0.05 0.65,0.1 0.2,0.4 L 13.3,25.1 12.55,25.25 12,25.3 11.85,25.35 H 11.7 11.55 L 10.6,25.5 10.2,25.1 q -0.1,-0.3 0.15,-0.55 L 11,24.35 v -0.4 H 10.95 L 10.85,24 10.2,23.9 10,23.5 v -0.05 q 0.05,-0.35 0.45,-0.55 l 0.3,-0.05 0.5,-0.1 0.95,0.05 m -0.45,-2.9 -0.1,-0.35 q -0.15,-0.2 -0.45,-0.3 l -0.5,0.1 -0.1,0.1 Q 10.3,19.7 10.3,20 l 0.4,0.55 0.5,0.05 0.45,-0.35 0.1,-0.35 M 12.9,20 12.75,19.85 12.55,19.8 h -0.2 l -0.1,0.15 -0.1,0.25 0.05,0.25 0.35,0.15 h 0.15 l 0.1,-0.1 0.1,-0.15 0.05,-0.2 L 12.9,20.1 V 20 m 14.85,9.6 -0.1,0.05 0.1,-0.05 M 7.2,54.65 7.75,54.3 7.95,54.1 Q 9,52.95 8.5,51.45 8,50 6.5,49.75 4.95,49.4 4,50.7 l -0.25,0.45 -0.1,0.05 q -0.45,1.1 0,2.2 l 0.1,0.05 q 0.5,1 1.45,1.3 l 2,-0.1"
         fill="#ffffff"
         fill-rule="evenodd"
         stroke="none"
         id="path6" />
    </g>
    <g
       id="shape2"
       transform="translate(1.5,1.5)">
      <path
         d="M 0,23.8 V 0 H 64.1 V 23.8 57.55 H 0 Z"
         fill="none"
         stroke="#000000"
         stroke-linecap="round"
         stroke-linejoin="round"
         stroke-width="3"
         id="path7" />
    </g>
  </defs>
</svg>
