<?xml version="1.0" encoding="UTF-8" standalone="no"?>
<svg
   ffdec:objectType="frame"
   height="60.549999"
   width="67.099998"
   version="1.1"
   id="svg8"
   sodipodi:docname="131.svg"
   xmlns:inkscape="http://www.inkscape.org/namespaces/inkscape"
   xmlns:sodipodi="http://sodipodi.sourceforge.net/DTD/sodipodi-0.dtd"
   xmlns:xlink="http://www.w3.org/1999/xlink"
   xmlns="http://www.w3.org/2000/svg"
   xmlns:svg="http://www.w3.org/2000/svg"
   xmlns:ffdec="https://www.free-decompiler.com/flash">
  <sodipodi:namedview
     id="namedview8"
     pagecolor="#ffffff"
     bordercolor="#000000"
     borderopacity="0.25"
     inkscape:showpageshadow="2"
     inkscape:pageopacity="0.0"
     inkscape:pagecheckerboard="0"
     inkscape:deskcolor="#d1d1d1"
     fit-margin-top="5"
     fit-margin-left="5"
     fit-margin-right="5"
     fit-margin-bottom="5" />
  <g
     transform="translate(1.5,1.5)"
     id="g3">
    <use
       ffdec:characterId="516"
       height="57.549999"
       width="64.099998"
       xlink:href="#shape0"
       id="use1" />
    <use
       ffdec:characterId="641"
       height="55.799999"
       transform="translate(-0.55,2.3)"
       width="61.75"
       xlink:href="#shape1"
       id="use2" />
    <use
       ffdec:characterId="518"
       height="60.549999"
       transform="translate(-1.5,-1.5)"
       width="67.099998"
       xlink:href="#shape2"
       id="use3" />
  </g>
  <defs
     id="defs8">
    <g
       id="shape0">
      <path
         d="M 53.6,0 H 64.1 V 57.55 H 53.6 28.25 0 V 0 H 28.25 53.6 V 57.55 0 M 28.25,0 V 57.55 0"
         fill="#ffffff"
         fill-rule="evenodd"
         stroke="none"
         id="path3" />
    </g>
    <g
       id="shape1"
       transform="translate(0.55,-2.3)">
      <path
         d="M 36.8,6.55 35.55,5.7 Q 34.5,5 33.3,5.5 L 32.65,5.75 32.05,5.5 Q 31.9,5.2 32.15,4.85 32.6,4.15 33.45,3.9 l 1.6,-0.45 1.2,-0.25 q 1.15,-0.05 2.05,0.9 0.6,0.7 0.55,1.4 -0.1,0.7 -0.75,1.05 -0.65,0.25 -1.3,0 m -29,6.25 0.1,0.6 q 0.15,0.3 0.65,0.6 l 0.6,0.2 0.5,-0.3 0.45,-0.85 0.05,-0.75 q 0.15,-1.25 1.45,-1.7 1.3,-0.35 2.15,0.65 0.4,0.45 0.6,1.45 l -0.05,1.6 -0.2,1.15 -0.7,1.05 -0.15,0.2 -0.05,0.05 -1.1,0.95 -0.85,0.5 -0.6,0.15 -0.9,0.2 H 8.85 L 8.3,19.45 Q 7.75,20 6.7,20.1 4.65,20.25 3.6,18.6 3.25,18.1 3.25,17.55 3.25,17.1 3.8,16.1 l 0.7,-0.85 q -0.45,-1 -0.35,-1.95 l 0.3,-1.2 Q 4.6,11.4 5,10.7 L 5.3,10.4 6.05,9.6 7.1,9.4 q 0.5,0.1 0.8,0.55 0.35,0.45 0.25,1 l -0.2,0.8 Q 7.8,12.3 7.8,12.8 m 10.35,5.65 0.35,0.65 q 0.3,0.5 0.1,1.15 -0.2,0.6 -0.75,0.8 -0.85,0.3 -1.55,-0.4 -0.55,-0.55 -0.55,-1.55 0,-0.8 0.3,-1.65 l 0.25,-0.75 0.8,-1 0.55,-0.25 q 0.4,0 0.3,0.4 l -0.15,0.25 0.05,0.3 -0.05,0.4 0.1,0.55 0.25,1.1 M 11.4,48.95 Q 6.5,51 3.1,50.55 L 2.05,50.2 Q 1.5,49.8 1.55,49.3 1.6,48.55 3,48.25 9.55,46.6 14.25,42.05 l 2.05,-2.2 q 3.8,-4.55 5.85,-10.1 0.25,-0.7 0.65,-0.65 0.3,0.05 0.4,0.6 0.1,0.85 -0.35,2.25 l -0.6,1.65 0.45,0.3 q 0.35,0.4 0.35,1.35 l -0.1,1.75 -0.05,1 0.15,0.65 0.45,-0.55 1.7,-2 q 0.45,-0.55 0.85,-0.55 l 0.5,0.3 0.15,0.6 -0.45,1.05 q -4.9,7.4 -14.85,11.45 m -10.95,5.1 q 5,-0.6 11.7,-3.65 4.35,-1.95 6.8,-3.75 l 3.1,-2.7 5.1,-4.75 q 0.6,-0.6 0.95,-0.25 0.25,0.15 0.15,0.55 l -0.7,1.25 -2,2.3 0.35,0.5 0.3,0.4 0.5,0.45 0.45,0.4 1.75,1.8 0.4,0.55 0.15,0.05 0.4,-0.35 q 0.65,-0.55 1.05,-0.7 0.8,-0.2 1.15,0.3 0.3,0.45 0.05,1.05 l -0.75,0.85 q -6.35,5.6 -17.2,8.05 -6.35,1.35 -10.8,0.85 -1.95,-0.2 -2.9,-1 -0.4,-0.4 -0.4,-0.75 l -0.3,-0.15 q -0.45,-0.45 -0.2,-0.9 0.2,-0.3 0.9,-0.4 M 32.6,48.9 q 0.35,0.3 0.2,0.7 l -0.45,0.45 -0.7,0.85 -2.15,2.05 q -2.75,2.1 -6.15,3.85 -2.35,1.15 -3.9,1.3 -1.1,0.1 -1.45,-0.5 -0.4,-0.7 0.4,-1.3 0.25,-0.25 1.3,-0.6 l 2.4,-0.85 Q 24.2,54 26.9,52.2 l 4.6,-3.1 1.1,-0.2"
         fill="#999999"
         fill-rule="evenodd"
         stroke="none"
         id="path4" />
      <path
         d="m 41.1,19.35 q 0.2,-0.4 -0.1,-0.7 -0.25,-0.35 -0.7,-0.25 -0.45,0 -1.2,0.65 l -1.5,1.45 -0.9,1.1 -0.45,0.85 -0.2,0.3 -0.15,0.4 q -0.35,1.25 -0.15,1.65 l 0.5,0.45 0.7,-0.05 0.55,-0.45 q 0.65,-0.7 2.25,-1.7 L 40.5,22.65 41.2,22.4 42.35,22.15 43.2,22 h 1.3 q 0.75,0 1.2,-0.45 0.4,-0.4 0.3,-1 l -0.65,-0.75 -1.25,-0.05 -1.5,0.3 -0.95,0.35 -1.9,0.5 -1.15,0.65 0.8,-0.8 1.25,-1 0.45,-0.4 M 30.55,18.3 q 2.2,-1.2 4.7,-1.7 V 16.45 L 35,14.15 34.6,11.8 q 0,-0.95 0.2,-1.35 0.25,-0.7 0.95,-0.95 l 1.1,0.05 2.25,0.9 q 2.6,1.35 6.4,4.65 l 0.95,0.85 q 1.2,1.1 2,2.75 l 0.2,0.4 1.75,1.7 q 2,2.35 2.95,5.35 1.7,5.15 0.5,12.15 l -0.9,3.25 -1.35,2.25 0.4,1.4 0.3,1.25 q 0.75,3.55 0.6,5.6 l -0.55,2.8 -0.75,1.8 -0.45,0.75 h -3.7 Q 47.4,57.15 47.5,56.9 l -0.85,0.05 -11,-0.25 -1.2,-0.05 -1.2,0.35 Q 32.5,57.05 31.5,56.25 L 31.35,56.1 30.7,56.75 29.8,57.4 h -7.45 q 0.1,-0.45 0.5,-0.85 0.4,-0.4 1.6,-0.85 3.3,-1.25 4.75,-3.4 l 0.75,-1.35 0.35,-0.85 -0.05,-0.85 -0.05,-0.6 q -2.5,-1.2 -4.4,-3.3 -2.35,-2.5 -3.2,-5.65 l -0.5,-2.95 -0.75,-2.35 -1.1,-4.6 -0.2,-2.05 q -0.2,-2.65 0.3,-6.9 l 0.2,-1.4 Q 20.8,18.6 21.6,17 l 0.75,-0.95 1.8,0.1 0.65,1.15 0.75,1.95 0.65,1.35 0.5,0.6 q 1.65,-1.75 3.85,-2.9 m 29.5,24.75 0.25,1.9 v 1.3 l -0.25,2.9 -0.2,1.1 L 58.8,53 58.55,53.4 Q 58.3,53.5 58.1,53.2 L 58,52.7 57.85,49.65 57.7,47.05 57.2,44.45 57.15,43.6 57.1,43.4 56.45,43.55 q -0.65,0.1 -1,-0.3 Q 55.1,42.9 55.1,42.5 55,42 55.2,40.9 l 0.35,-2.85 q 0.05,-1.45 0.25,-1.75 0.45,-0.7 1.2,-0.55 0.55,0.1 1.2,0.65 l 0.75,0.65 1.45,1.9 L 61,40 q 0.3,0.65 0.1,1.25 -0.25,0.6 -0.95,0.8 H 59.9 l 0.15,1 m -19.2,-8.2 -0.25,0.15 -0.8,-1.55 -0.7,-1.2 1.15,-0.5 q 0.3,1.3 1.15,2.85 l -0.55,0.25 m 2.3,-6.45 h 0.05 q 0,0.7 0.3,1.65 l 0.4,1.3 0.95,2.05 0.2,0.4 -0.3,0.05 -0.5,-1.05 -1.25,-1.65 -1.3,-1.5 0.35,-0.55 1.1,-0.7 m 6.75,3.8 q 0.15,-1.05 -0.2,-2.3 L 49.15,28.4 47.9,27.05 46.25,25.8 43.55,25.5 q -1.45,0.25 -2.65,1.2 -0.95,0.75 -1.45,1.7 L 38.5,27.5 q -0.9,-0.7 -1.4,-0.9 -0.5,-0.3 -0.8,0 -0.25,0.3 0.05,0.8 l 1.25,2.3 0.05,0.15 -0.45,-0.1 q -1.85,-0.5 -3.8,0.05 -1.95,0.5 -3.4,1.8 -1.4,1.3 -2.1,3.2 -0.7,1.9 -0.5,3.85 0.2,1.35 0.65,2.05 l 1.6,1.4 q 2.55,1.35 4.7,0.4 l 2.5,-1.9 q 3.65,-3.45 6.85,-4 l 1.6,-0.2 1.55,-0.35 q 1.2,-0.45 2.05,-1.5 0.85,-1.1 1,-2.35 m -2.35,-1.5 0.05,1.1 -1.25,-2.1 -0.3,-0.75 -0.4,-0.65 0.3,0.2 q 1.25,0.9 1.6,2.2 m -16.5,4.1 0.25,-0.3 0.4,0.85 0.85,2.15 0.6,1.65 0.35,0.7 0.25,0.35 -0.75,0.25 -0.25,-0.95 -1.3,-2.85 -0.65,-0.8 -0.2,-0.1 0.45,-0.95 m 5.85,1.05 0.65,1.1 -0.95,0.7 -0.25,-0.7 -1,-2.1 q -0.7,-1.2 -1.8,-2.1 l 2,-0.45 0.4,1.25 0.95,2.3 M 24.75,29.3 q 1.15,-0.75 2.45,-1.05 l -1.9,2.05 q -0.95,1.05 -1.2,1.65 l -0.2,0.85 0.1,0.55 q 0.25,0.3 0.65,0.2 l 0.6,-0.4 0.45,-0.6 0.6,-0.65 2.35,-2.2 0.4,-0.45 0.8,-0.4 1,-0.5 q 0.5,-0.4 0.5,-1 L 31.3,27.1 V 26.9 L 31,26.15 Q 30.65,25.8 29.85,25.8 28.2,25.75 25.6,27 q -1.3,0.6 -1.75,1.25 -0.3,0.3 -0.3,0.75 0,0.5 0.45,0.6 0.2,0.05 0.75,-0.3"
         fill="#030303"
         fill-rule="evenodd"
         stroke="none"
         id="path5" />
      <path
         d="m 41.1,19.35 -0.45,0.4 -1.25,1 -0.8,0.8 1.15,-0.65 1.9,-0.5 0.95,-0.35 1.5,-0.3 1.25,0.05 0.65,0.75 q 0.1,0.6 -0.3,1 Q 45.25,22 44.5,22 h -1.3 l -0.85,0.15 -1.15,0.25 -0.7,0.25 -0.75,0.4 q -1.6,1 -2.25,1.7 l -0.55,0.45 -0.7,0.05 -0.5,-0.45 q -0.2,-0.4 0.15,-1.65 l 0.15,-0.4 0.2,-0.3 0.45,-0.85 0.9,-1.1 1.5,-1.45 q 0.75,-0.65 1.2,-0.65 0.45,-0.1 0.7,0.25 0.3,0.3 0.1,0.7 m 6.45,11.35 q -0.35,-1.3 -1.6,-2.2 l -0.3,-0.2 0.4,0.65 0.3,0.75 1.25,2.1 -0.05,-1.1 m 2.35,1.5 q -0.15,1.25 -1,2.35 -0.85,1.05 -2.05,1.5 l -1.55,0.35 -1.6,0.2 q -3.2,0.55 -6.85,4 l -2.5,1.9 q -2.15,0.95 -4.7,-0.4 l -1.6,-1.4 Q 27.6,40 27.4,38.65 27.2,36.7 27.9,34.8 q 0.7,-1.9 2.1,-3.2 1.45,-1.3 3.4,-1.8 1.95,-0.55 3.8,-0.05 l 0.45,0.1 -0.05,-0.15 -1.25,-2.3 q -0.3,-0.5 -0.05,-0.8 0.3,-0.3 0.8,0 0.5,0.2 1.4,0.9 l 0.95,0.9 q 0.5,-0.95 1.45,-1.7 1.2,-0.95 2.65,-1.2 l 2.7,0.3 1.65,1.25 1.25,1.35 0.55,1.5 q 0.35,1.25 0.2,2.3 m -6.75,-3.8 -1.1,0.7 -0.35,0.55 1.3,1.5 1.25,1.65 0.5,1.05 0.3,-0.05 -0.2,-0.4 -0.95,-2.05 -0.4,-1.3 Q 43.2,29.1 43.2,28.4 h -0.05 m -2.3,6.45 0.55,-0.25 q -0.85,-1.55 -1.15,-2.85 l -1.15,0.5 0.7,1.2 0.8,1.55 0.25,-0.15 M 12.5,13.15 h 0.05 l 0.4,0.15 0.15,0.4 -0.2,0.35 -0.65,-0.05 -0.5,-0.15 -0.3,-0.15 -0.3,-0.2 -0.3,-0.2 H 10.8 10.7 Q 9.85,13.5 9.6,13.65 L 9.25,13.8 8.95,13.55 Q 8.85,13.25 9,13.1 l 0.65,-0.5 q 0.55,-0.4 0.65,-0.45 l 0.1,-0.05 0.2,-0.2 0.35,-0.55 0.3,-0.3 0.25,-0.55 0.4,-0.1 0.25,0.3 -0.1,0.35 -0.25,0.75 -0.1,0.25 0.05,0.25 v 0.3 l 0.05,0.05 q 0.4,0.4 0.7,0.5 M 8.7,14.9 8.8,15 q 0.35,0.5 0.3,1.05 -0.1,1 -1,1.4 L 7.95,17.5 Q 6.9,17.8 6.2,16.95 5.5,16.05 6.05,15.1 6.3,14.6 6.85,14.4 l 1.1,-0.05 Q 8.4,14.5 8.7,14.9 M 8.5,10.2 q 0.45,0.55 0.3,1.25 -0.1,0.55 -0.55,0.9 -0.5,0.4 -1.05,0.4 L 6.2,12.4 Q 5.75,12 5.65,11.45 5.55,10.95 5.8,10.4 6.05,9.9 6.55,9.65 L 7.65,9.6 Q 8.2,9.75 8.5,10.2 M 24.75,29.3 Q 24.2,29.65 24,29.6 23.55,29.5 23.55,29 q 0,-0.45 0.3,-0.75 0.45,-0.65 1.75,-1.25 2.6,-1.25 4.25,-1.2 0.8,0 1.15,0.35 l 0.3,0.75 v 0.2 l 0.05,0.25 q 0,0.6 -0.5,1 l -1,0.5 -0.8,0.4 -0.4,0.45 -2.35,2.2 -0.6,0.65 -0.45,0.6 -0.6,0.4 q -0.4,0.1 -0.65,-0.2 l -0.1,-0.55 0.2,-0.85 q 0.25,-0.6 1.2,-1.65 l 1.9,-2.05 q -1.3,0.3 -2.45,1.05 m 12.15,6.55 -0.95,-2.3 -0.4,-1.25 -2,0.45 q 1.1,0.9 1.8,2.1 l 1,2.1 0.25,0.7 0.95,-0.7 -0.65,-1.1 m -5.85,-1.05 -0.45,0.95 0.2,0.1 0.65,0.8 1.3,2.85 0.25,0.95 0.75,-0.25 -0.25,-0.35 -0.35,-0.7 -0.6,-1.65 -0.85,-2.15 -0.4,-0.85 -0.25,0.3"
         fill="#ffffff"
         fill-rule="evenodd"
         stroke="none"
         id="path6" />
      <path
         d="m 8.1,17.45 0.05,0.1 0.5,0.85 L 8.05,18.35 6.55,18 Q 5.95,17.75 5.3,17 L 4.6,16 Q 4,14.8 4.15,13.15 4.3,12 4.75,11.2 l -0.2,-0.15 q -0.7,-0.5 -0.7,-1.8 0,-1.1 0.55,-2 Q 5,6.3 6,6 l 1.7,0.1 q 0.85,0.35 1.35,1.1 l 0.3,0.7 q 0.9,-1.7 2.85,-3.3 l 1.45,-1 Q 14.5,3.2 15.7,2.95 l 1.6,-0.3 q 2.45,-0.1 3.9,1.85 l 0.05,0.05 Q 22.35,2.8 24.6,2.35 L 25.75,2.3 Q 27,2.5 28.4,3.8 29.05,4.35 29.15,4.75 29.3,5.4 28.75,6.1 l -0.2,0.5 q 1.45,0 2.25,1.15 0.6,0.9 0.35,1.5 L 30.8,9.9 30.75,10.65 31,11 31.15,11.4 30.8,11.7 H 30.1 L 29.5,11.2 29.3,10.25 29.4,9.35 29.45,9 29.2,8.7 28.3,8.55 27.4,8.4 Q 26.85,8.1 26.7,7.45 26.55,6.9 26.65,6.2 26.65,5.65 26.8,5.4 L 24.45,5.35 23.45,6 22.7,7 22.6,7.15 22.75,7.6 q 0.3,1.5 -0.35,2.85 -0.85,1.9 -3.15,2.65 -1.8,0.65 -4.2,0.5 l -1.4,-0.1 -0.35,-0.25 -0.8,-0.1 q -0.3,-0.1 -0.7,-0.5 L 11.75,12.6 v -0.3 l -0.05,-0.25 0.1,-0.25 0.25,-0.75 0.1,-0.35 -0.25,-0.3 -0.4,0.1 -0.25,0.55 -0.3,0.3 -0.35,0.55 -0.2,0.2 -0.1,0.05 Q 10.2,12.2 9.65,12.6 L 9,13.1 Q 8.85,13.25 8.95,13.55 L 9.25,13.8 9.6,13.65 Q 9.85,13.5 10.7,13.3 h 0.1 0.05 L 9,14.6 8.7,14.9 Q 8.4,14.5 7.95,14.35 L 6.85,14.4 Q 6.3,14.6 6.05,15.1 5.5,16.05 6.2,16.95 6.9,17.8 7.95,17.5 L 8.1,17.45 M 8.5,10.2 Q 8.2,9.75 7.65,9.6 L 6.55,9.65 Q 6.05,9.9 5.8,10.4 5.55,10.95 5.65,11.45 5.75,12 6.2,12.4 l 1,0.35 q 0.55,0 1.05,-0.4 Q 8.7,12 8.8,11.45 8.95,10.75 8.5,10.2"
         fill="#999999"
         fill-rule="evenodd"
         stroke="none"
         id="path7" />
    </g>
    <g
       id="shape2"
       transform="translate(1.5,1.5)">
      <path
         d="M 0,23.8 V 0 H 64.1 V 23.8 57.55 H 0 Z"
         fill="none"
         stroke="#000000"
         stroke-linecap="round"
         stroke-linejoin="round"
         stroke-width="3"
         id="path8" />
    </g>
  </defs>
</svg>
