<?xml version="1.0" encoding="UTF-8" standalone="no"?>
<svg
   ffdec:objectType="frame"
   height="60.549999"
   width="67.099998"
   version="1.1"
   id="svg7"
   sodipodi:docname="513.svg"
   xmlns:inkscape="http://www.inkscape.org/namespaces/inkscape"
   xmlns:sodipodi="http://sodipodi.sourceforge.net/DTD/sodipodi-0.dtd"
   xmlns:xlink="http://www.w3.org/1999/xlink"
   xmlns="http://www.w3.org/2000/svg"
   xmlns:svg="http://www.w3.org/2000/svg"
   xmlns:ffdec="https://www.free-decompiler.com/flash">
  <sodipodi:namedview
     id="namedview7"
     pagecolor="#ffffff"
     bordercolor="#000000"
     borderopacity="0.25"
     inkscape:showpageshadow="2"
     inkscape:pageopacity="0.0"
     inkscape:pagecheckerboard="0"
     inkscape:deskcolor="#d1d1d1"
     fit-margin-top="5"
     fit-margin-left="5"
     fit-margin-right="5"
     fit-margin-bottom="5" />
  <g
     transform="translate(1.5,1.5)"
     id="g3">
    <use
       ffdec:characterId="516"
       height="57.549999"
       width="64.099998"
       xlink:href="#shape0"
       id="use1" />
    <use
       ffdec:characterId="1009"
       height="54.299999"
       transform="translate(-0.6,4.75)"
       width="48.950001"
       xlink:href="#shape1"
       id="use2" />
    <use
       ffdec:characterId="518"
       height="60.549999"
       transform="translate(-1.5,-1.5)"
       width="67.099998"
       xlink:href="#shape2"
       id="use3" />
  </g>
  <defs
     id="defs7">
    <g
       id="shape0">
      <path
         d="M 53.6,0 H 64.1 V 57.55 H 53.6 28.25 0 V 0 H 28.25 53.6 V 57.55 0 M 28.25,0 V 57.55 0"
         fill="#ffffff"
         fill-rule="evenodd"
         stroke="none"
         id="path3" />
    </g>
    <g
       id="shape1"
       transform="translate(0.6,-4.75)">
      <path
         d="M 5.15,24.45 4.75,23.8 4.15,23.2 Q 3.3,22.4 2.6,20.4 2,18.5 1.95,16.95 q 0,-4.2 3.9,-8.1 Q 7.1,7.6 8.3,6.8 10.6,5.35 13.65,4.95 l 3.85,-0.1 q 4.5,0.65 7.1,4.25 2.7,3.6 2,8 -0.3,2.3 -1.65,4.1 -1.05,1.4 -2.95,2.6 -4.85,3.05 -9.4,2.05 L 8.2,29.35 6.7,30.8 5.85,31.2 H 5.35 L 4.8,31.4 3.85,31.25 Q 3.15,30.75 3.6,29.1 4.05,27.15 4.65,26 l 0.5,-1.55 m 9.8,-0.6 2.25,-0.45 q 0.9,-0.25 2.6,-1.15 2.25,-1.2 3.15,-2.35 0.95,-1.3 1.1,-3.1 0.2,-1.7 -0.35,-3.35 Q 23.1,11.8 21.95,10.55 20.5,9.05 18.35,8.4 L 14.1,8.1 q -4.1,0.65 -7.05,4.35 -1.7,2.15 -1.85,4.3 -0.1,1.5 0.7,3.5 0.55,1.35 1.3,2.05 l 0.7,0.55 0.55,0.65 Q 8.7,24.25 7.9,25.6 l -0.95,2.05 0.8,-0.5 1.95,-1.35 2.6,-1.4 q 0.25,-0.15 0.45,-0.15 h 0.2 l 2,-0.4"
         fill="#999999"
         fill-rule="evenodd"
         stroke="none"
         id="path4" />
      <path
         d="m 21.75,9.4 0.25,1 0.1,1.05 -0.25,1.55 -0.7,2.8 -0.3,0.6 q -0.35,0.25 -0.6,0 L 19.9,15.8 19.4,13.55 19,12 18.5,10.65 Q 18.35,9.55 19,8.9 19.65,8.3 20.5,8.45 21.45,8.6 21.75,9.4 m 0.3,10.55 -0.85,0.6 -1.15,-0.05 -0.85,-0.75 q -0.3,-0.5 -0.15,-1.15 0.15,-0.65 0.6,-1 0.5,-0.35 1.15,-0.3 0.65,0.05 1.05,0.45 l 0.5,1.05 q 0.05,0.65 -0.3,1.15 m -14.4,1 L 7.15,20.2 6.65,19.15 6.6,18 6.8,15.8 q 0.35,-1.45 1.6,-2.7 l 1.75,-1.4 0.5,-0.3 q -0.1,-0.65 0.1,-1.3 0.1,-0.5 0.45,-0.9 0.35,-0.25 0.95,-0.25 H 13.2 L 14.3,8.9 q 0.8,0.2 0.8,1 l -0.15,0.8 1.6,0.95 1.05,1.45 q 0.7,1.2 0.75,2.25 L 18.2,17.6 Q 17.85,19 17,19.95 l -1.55,1.35 -1.4,0.85 -2.25,0.25 -1.9,-0.2 -1,-0.4 -1.25,-0.85 m 8.05,-3.4 0.25,-0.8 L 16,16.4 V 15.3 L 15.85,15 15.6,14.35 15.2,13.8 Q 14.7,13.25 14.1,13 l -0.6,-0.15 -1.15,0.25 q -0.8,0.25 -1.25,0.55 l -0.4,0.25 -0.9,1.15 -0.25,0.5 -0.15,1 -0.05,0.9 0.1,0.95 0.35,0.6 0.75,0.35 1.15,0.4 0.7,0.1 0.65,-0.05 0.55,-0.25 1.35,-1 0.55,-0.65 0.2,-0.35 m -2,0.05 q 0,0.5 -0.55,0.6 L 13,18.25 12.55,18.3 12.05,18.1 11.5,17.45 10.95,16.75 10.65,16.4 Q 10.55,16.15 10.7,16 l 0.2,-0.1 h 0.25 l 0.8,0.35 0.5,0.4 V 16.6 l 0.05,-1.8 q 0,-0.45 0.15,-0.65 0.2,-0.45 0.6,-0.25 l 0.3,0.4 v 0.5 q -0.15,1.1 0.05,2.1 l 0.1,0.7 m 0.4,37.05 -2.55,2.9 q -1,1.2 -1.8,1.4 Q 8.9,59.2 8.05,58.65 7.2,58.05 7.1,57.1 V 57.05 L 6.2,57.55 5.25,57.5 4.3,57.15 2.3,56.75 0.75,56.6 Q 0,56.4 -0.4,55.6 -0.75,54.8 -0.5,54.05 l 0.45,-0.95 v -1.05 -1.8 L 0.05,48.8 Q 0.3,47.75 1.1,46.65 l -0.35,0.1 q -0.7,0.3 -1.1,-0.2 -0.35,-0.45 0.2,-1.35 1.85,-2.95 6.9,-7.8 l 5.8,-5.55 q 3.15,-3.05 4.95,-4.3 1.35,-1 2.5,-1.25 1.7,-0.35 2.6,0.55 0.65,0.6 0.75,1.6 0.15,0.95 -0.3,1.75 -0.75,1.5 -2.75,2.3 2.05,1.65 2.6,4.35 0.45,2.65 -0.95,6.1 -1.2,2.95 -3.45,6.15 l -4.4,5.55"
         fill="#000000"
         fill-rule="evenodd"
         stroke="none"
         id="path5" />
      <path
         d="M 43.2,15.05 Q 42.9,15 42.7,14.55 42.35,13.7 42.15,11.8 L 42,10.6 v -1 q 0.1,-0.45 0.55,-0.75 0.4,-0.35 0.9,-0.3 L 44.3,9 l 0.4,0.9 -0.15,0.85 -0.3,1.85 -0.45,1.85 q -0.2,0.6 -0.6,0.6 m 0.9,2.4 L 43.75,17.9 42.5,18 Q 41.8,17.6 42,16.9 42.1,16.1 42.85,15.95 L 43.1,15.9 q 0.65,0.05 1,0.7 l 0.1,0.45 -0.1,0.4 m 0.2,7 q -0.45,0.5 -0.4,1.2 0,0.75 0.5,1.2 0.45,0.45 1.15,0.5 L 46.75,27 q 0.5,-0.4 0.65,-1.1 0.15,-0.65 -0.2,-1.25 L 46.3,23.85 45,23.9 q -0.4,0.15 -0.7,0.55 m -5.45,6.8 q -1.15,-0.6 -1.4,-1 l -0.6,-1.2 -0.3,-2 0.35,-1.55 0.8,-1.6 q -0.25,-0.35 -0.15,-0.85 0.1,-0.55 0.75,-0.75 l 0.2,-0.05 0.65,0.15 q 0.7,-0.45 1.7,-0.75 l 1.9,-0.25 0.95,0.15 1.5,0.35 0.55,0.2 0.5,-0.35 q 0.55,-0.25 1.05,0.3 0.45,0.5 0.1,1.05 l -0.2,0.2 0.6,0.95 q 0.8,1.6 0.45,3.55 l -0.55,1.6 -1.05,1.05 q -1.35,1.1 -2.9,1.45 V 32 l 0.3,1.65 0.25,1.6 -0.1,2.25 0.05,1.4 0.7,0.35 0.45,0.8 -0.2,0.9 -0.7,0.55 h -0.95 l -0.7,-0.35 -0.9,0.35 H 41.9 l -0.75,0.1 -0.25,0.45 Q 40.2,42.8 39.4,42.3 38.9,42 38.7,41.15 L 38.65,40.8 q -0.8,-0.6 -1,-1.75 L 37.5,38.25 37.4,37.4 37.2,37.05 37.15,36.95 36.75,36.6 36.5,36.7 33,36.8 31.6,35.7 q -0.55,-0.75 -0.65,-1.65 l 0.15,-1.3 q 0.2,-0.7 0.65,-1.2 l 0.95,-0.8 q 0.85,-0.55 1.4,-0.65 h 1.5 l 1.35,0.3 0.75,0.45 0.8,0.85 0.95,1.8 0.35,-1.3 0.2,-0.45 -1.15,-0.5 m -0.7,-3.95 q 0.45,0.45 1.15,0.45 0.6,0 1.05,-0.4 l 0.65,-1 q 0.1,-0.7 -0.2,-1.2 -0.55,-0.95 -1.7,-0.8 -1.1,0.1 -1.45,1.2 -0.35,1.05 0.5,1.75 m 6,1.4 0.05,-0.55 -0.1,-0.45 -0.35,-0.1 -0.25,0.25 -0.05,0.4 q -0.05,0.15 -0.3,0.15 l -0.3,-0.15 -0.6,-0.15 -0.35,0.25 q -0.3,0.2 -0.45,0 v -0.2 l 0.05,-0.55 -0.2,-0.15 -0.2,0.15 -0.4,0.95 0.1,0.35 0.25,0.2 0.35,0.2 h 0.15 q -0.15,0.5 0.3,0.7 l 0.5,0.1 0.6,-0.15 0.35,-0.55 v -0.05 l 0.25,-0.1 0.6,-0.55"
         fill="#999999"
         fill-rule="evenodd"
         stroke="none"
         id="path6" />
    </g>
    <g
       id="shape2"
       transform="translate(1.5,1.5)">
      <path
         d="M 0,23.8 V 0 H 64.1 V 23.8 57.55 H 0 Z"
         fill="none"
         stroke="#000000"
         stroke-linecap="round"
         stroke-linejoin="round"
         stroke-width="3"
         id="path7" />
    </g>
  </defs>
</svg>
