<?xml version="1.0" encoding="UTF-8" standalone="no"?>
<svg
   ffdec:objectType="frame"
   height="60.549999"
   width="67.300003"
   version="1.1"
   id="svg8"
   sodipodi:docname="543.svg"
   xmlns:inkscape="http://www.inkscape.org/namespaces/inkscape"
   xmlns:sodipodi="http://sodipodi.sourceforge.net/DTD/sodipodi-0.dtd"
   xmlns:xlink="http://www.w3.org/1999/xlink"
   xmlns="http://www.w3.org/2000/svg"
   xmlns:svg="http://www.w3.org/2000/svg"
   xmlns:ffdec="https://www.free-decompiler.com/flash">
  <sodipodi:namedview
     id="namedview8"
     pagecolor="#ffffff"
     bordercolor="#000000"
     borderopacity="0.25"
     inkscape:showpageshadow="2"
     inkscape:pageopacity="0.0"
     inkscape:pagecheckerboard="0"
     inkscape:deskcolor="#d1d1d1"
     fit-margin-top="5"
     fit-margin-left="5"
     fit-margin-right="5"
     fit-margin-bottom="5" />
  <g
     transform="translate(1.5,1.5)"
     id="g3">
    <use
       ffdec:characterId="516"
       height="57.549999"
       width="64.099998"
       xlink:href="#shape0"
       id="use1" />
    <use
       ffdec:characterId="1039"
       height="58.5"
       transform="translate(0.05)"
       width="65.75"
       xlink:href="#shape1"
       id="use2" />
    <use
       ffdec:characterId="518"
       height="60.549999"
       transform="translate(-1.5,-1.5)"
       width="67.099998"
       xlink:href="#shape2"
       id="use3" />
  </g>
  <defs
     id="defs8">
    <g
       id="shape0">
      <path
         d="M 53.6,0 H 64.1 V 57.55 H 53.6 28.25 0 V 0 H 28.25 53.6 V 57.55 0 M 28.25,0 V 57.55 0"
         fill="#ffffff"
         fill-rule="evenodd"
         stroke="none"
         id="path3" />
    </g>
    <g
       id="shape1"
       transform="translate(-0.05)">
      <path
         d="m 57.7,36.7 0.1,0.1 0.9,-0.2 q 1.05,0 1.65,1 l 0.2,1.05 -0.45,1.15 -0.1,0.15 0.3,1.85 q 0.1,3.15 -2.2,5 l 0.1,0.85 0.3,1.85 0.8,-1.35 1.3,-1.2 q 1.5,-1.05 2.9,-0.8 0.95,0.15 1.6,0.95 0.65,0.75 0.7,1.7 0,0.95 -0.65,1.75 -0.6,0.8 -1.55,1 l -1,0.25 q -0.6,0.25 -1.1,1.3 l -0.85,1.9 -0.85,1.85 -0.6,0.45 -0.45,0.55 q -0.75,0.7 -1.8,0.6 -0.8,-0.05 -1.35,-0.6 l -0.15,0.1 q -1,0.85 -2.25,0.35 -1.25,-0.5 -1.4,-1.8 -0.05,-0.7 0.2,-1.65 l 1.6,-6.5 -1.75,-0.25 q -1,-0.25 -1.8,-0.8 L 48.55,45.7 47.6,44.15 Q 47.25,43.3 47.35,41.8 47.5,39.75 48.2,38.45 47.8,37.9 47.85,37.3 l 0.2,-0.7 0.5,-0.55 q 0.5,-0.35 1.1,-0.35 0.55,0 0.95,0.3 1,-0.6 2.25,-0.7 2.65,-0.3 4.85,1.4 m 0.85,2.95 q -0.35,-0.6 -1.1,-0.85 -0.7,-0.25 -1.4,0 -0.6,0.2 -1.05,0.8 -0.4,0.55 -0.45,1.25 0,0.65 0.45,1.25 l 1.05,0.8 q 0.65,0.2 1.3,0 0.7,-0.25 1.1,-0.75 0.4,-0.55 0.45,-1.25 0.05,-0.7 -0.35,-1.25 m -9.75,2 1.05,0.85 1.35,0.1 1.1,-0.8 0.45,-1.3 q 0,-0.7 -0.45,-1.3 -0.45,-0.55 -1.15,-0.75 l -1.35,0.1 q -0.65,0.25 -1.05,0.85 -0.65,1.15 0.05,2.25 M 19.75,20.55 19.5,20.9 18.7,21.6 q -1.3,1 -3,1.15 -1.8,0.15 -3.15,-0.8 L 11.3,20.85 10.25,19.3 q -0.3,-0.9 0.1,-2.8 0.1,-0.75 0.35,-1.35 l 0.95,-1.4 -0.2,-0.15 Q 10.9,13.05 10.4,13.1 L 9.55,13.6 Q 8.6,14.45 7.3,14.6 L 6.75,14.65 6.7,14.9 6.55,15.35 6.4,16.2 Q 6.25,16.95 5.7,17.4 L 4.45,18.1 3.6,18.35 2.95,18.3 Q 1.85,18.1 1.55,17.25 L 1.5,16.6 1.55,15.9 q 0.2,-0.55 0.7,-0.85 0.5,-0.3 1.05,-0.25 H 3.8 L 4.3,14.6 4.7,14.25 4.75,13.95 4,13 3.75,11.75 q 0,-2.3 1.05,-4 L 4.85,7.7 4.5,5.55 Q 3.65,6.15 2.4,6.4 L 0.85,6.35 0.05,6.15 V 0 H 7 Q 7.4,0.75 7.6,1.65 L 8,3.25 8.3,5.2 12.05,5.4 Q 13,5.65 13.5,6.1 l 1.2,1.25 1.05,1.6 q 0.75,1.35 0.8,2.85 h 0.25 q 1.85,0.35 2.9,1.5 l 0.95,-0.05 q 0.6,0.1 1,0.55 0.55,0.8 0,1.7 l -0.45,0.6 -0.25,0.25 v 0.4 l -0.15,1.4 -0.7,-0.9 q -0.55,-0.4 -1.3,-0.35 -0.75,0.05 -1.25,0.55 -0.3,0.35 -0.45,0.85 -0.2,0.7 0.15,1.35 0.3,0.7 0.95,0.95 0.65,0.25 1.4,0 l 0.15,-0.05 m -6.1,-3.8 q -1.2,-0.15 -1.85,0.8 -0.7,1 -0.05,2 0.6,1.05 1.75,0.95 0.8,-0.1 1.3,-0.65 l 0.5,-1.1 Q 15.4,18 14.8,17.4 14.4,16.9 13.65,16.75"
         fill="#999999"
         fill-rule="evenodd"
         stroke="none"
         id="path4" />
      <path
         d="m 48.8,41.65 q -0.7,-1.1 -0.05,-2.25 0.4,-0.6 1.05,-0.85 l 1.35,-0.1 q 0.7,0.2 1.15,0.75 0.45,0.6 0.45,1.3 l -0.45,1.3 -1.1,0.8 -1.35,-0.1 -1.05,-0.85 m 9.75,-2 q 0.4,0.55 0.35,1.25 -0.05,0.7 -0.45,1.25 -0.4,0.5 -1.1,0.75 -0.65,0.2 -1.3,0 L 55,42.1 q -0.45,-0.6 -0.45,-1.25 0.05,-0.7 0.45,-1.25 0.45,-0.6 1.05,-0.8 0.7,-0.25 1.4,0 0.75,0.25 1.1,0.85 M 20.8,18.15 20.85,18.4 q 0.15,0.75 -0.2,1.35 l -0.9,0.8 -0.15,0.05 q -0.75,0.25 -1.4,0 Q 17.55,20.35 17.25,19.65 16.9,19 17.1,18.3 q 0.15,-0.5 0.45,-0.85 0.5,-0.5 1.25,-0.55 0.75,-0.05 1.3,0.35 l 0.7,0.9 m -7.15,-1.4 q 0.75,0.15 1.15,0.65 0.6,0.6 0.5,1.35 l -0.5,1.1 q -0.5,0.55 -1.3,0.65 -1.15,0.1 -1.75,-0.95 -0.65,-1 0.05,-2 0.65,-0.95 1.85,-0.8"
         fill="#ffffff"
         fill-rule="evenodd"
         stroke="none"
         id="path5" />
      <path
         d="m 47.6,9.35 2.05,1.6 0.3,-0.1 2.25,-0.25 1.5,0.2 q 0.9,0.35 1.3,1.2 0.45,0.8 0.35,1.8 L 54.4,18 54.3,18.25 q 1,2.95 1.2,6 0.25,4.3 -1.2,8 -0.55,1.5 -1.45,2.7 L 50.4,37.3 Q 48,39 45.5,39.85 l -2.4,0.8 1.55,8.2 q 0.85,4.85 0.8,7 l -0.15,1.2 H 21.9 L 21.4,55.4 q -0.75,-3.05 -2.4,-5.65 -0.75,-1.25 -1.45,-1.7 -0.6,-0.4 -1.6,-0.65 -1.4,1.95 -3.45,3.2 -1.75,1.05 -3.3,1.25 L 5.9,51.4 Q 3,50.45 1.25,48.4 L 0.05,46.8 V 33.5 L 0.1,33.4 q 0.8,-1.5 2.4,-3.4 1.9,-2.1 3.25,-3 1.8,-1.2 4,-1.55 l 4.3,0.2 q 4.3,1.2 7.3,5.65 1.8,2.6 4.1,8.5 l 1.35,3.55 1.25,-6.4 Q 24.6,34.7 23,31.45 q -2.25,-4.3 -1.2,-10.5 0.3,-1.8 0.85,-3.3 L 22.5,17.35 Q 21.6,14.45 21.45,12.9 21.35,11.7 21.6,11 21.85,9.95 22.65,9.45 23.5,8.9 25.25,9.1 L 28.5,9.85 29.1,9.4 q 3,-2.05 6.6,-2.65 l 7.05,0.3 q 1.8,0.55 3.6,1.65 L 47.6,9.35 M 27,15.95 q -0.6,0.25 -1.3,0.95 -0.95,1 -1.35,1.85 -0.4,0.85 -0.5,2.65 -0.1,1.1 0.15,1.85 0.3,1.2 1.4,2.15 l 0.6,0.45 0.15,-0.1 q 1.85,-1 3.25,-0.9 l 2.1,0.1 1.6,0.45 0.15,0.1 q 1.4,-1.2 1.85,-3.15 0.55,-2.25 -0.65,-4.3 -0.9,-1.6 -2.45,-2.2 l -3.25,-0.3 -1.75,0.4 m 10.3,10.35 -0.05,1.4 -0.35,0.15 -1.65,1.35 -1.55,1.55 -1.1,0.85 q -0.3,0.55 0.1,0.95 0.4,0.5 0.95,0.25 l 0.6,-0.4 1.5,-0.9 v 0.6 q 0,1 0.25,1.4 l 0.05,0.1 1.45,-0.1 0.05,-2.2 q 0,-0.25 0.35,-0.35 0.35,0 0.4,0.2 l 0.05,0.4 0.05,1.9 0.55,-0.05 0.85,-0.05 0.05,-0.35 0.1,-0.9 v -0.7 l 0.55,0.35 1.35,1.1 0.7,0.65 q 0.8,0.35 1.4,-0.2 0.65,-0.55 0.2,-1.35 L 43.75,31.45 43.3,31 42.95,30.75 40.5,28.7 40,28.2 39.5,27.75 39.2,27.6 39.1,26.15 39,25.35 q -0.2,-0.45 -0.85,-0.45 -0.6,0 -0.75,0.5 l -0.1,0.9 m 15,-7.7 -0.85,-1.4 q -1.4,-1.55 -3.9,-1.45 L 46,16 l -1.2,0.45 -1.25,0.95 -1.05,1.05 -0.6,1.2 q -0.75,2 0,3.75 l 0.6,1.1 q 1.35,1.95 3.65,2.4 2.4,0.5 4.3,-0.8 L 51.6,25.15 52.5,24 q 0.65,-1.1 0.55,-2.7 -0.1,-1.2 -0.75,-2.7"
         fill="#000000"
         fill-rule="evenodd"
         stroke="none"
         id="path6" />
      <path
         d="m 52.3,18.6 q 0.65,1.5 0.75,2.7 0.1,1.6 -0.55,2.7 l -0.9,1.15 -1.15,0.95 q -1.9,1.3 -4.3,0.8 -2.3,-0.45 -3.65,-2.4 l -0.6,-1.1 q -0.75,-1.75 0,-3.75 L 42.5,18.45 43.55,17.4 44.8,16.45 46,16 47.55,15.75 q 2.5,-0.1 3.9,1.45 l 0.85,1.4 m -15,7.7 0.1,-0.9 q 0.15,-0.5 0.75,-0.5 0.65,0 0.85,0.45 l 0.1,0.8 0.1,1.45 0.3,0.15 0.5,0.45 0.5,0.5 2.45,2.05 0.35,0.25 0.45,0.45 0.4,0.5 q 0.45,0.8 -0.2,1.35 -0.6,0.55 -1.4,0.2 l -0.7,-0.65 -1.35,-1.1 -0.55,-0.35 v 0.7 l -0.1,0.9 -0.05,0.35 -0.85,0.05 -0.55,0.05 -0.05,-1.9 -0.05,-0.4 q -0.05,-0.2 -0.4,-0.2 -0.35,0.1 -0.35,0.35 L 37.5,33.5 36.05,33.6 36,33.5 q -0.25,-0.4 -0.25,-1.4 v -0.6 l -1.5,0.9 -0.6,0.4 Q 33.1,33.05 32.7,32.55 32.3,32.15 32.6,31.6 l 1.1,-0.85 1.55,-1.55 1.65,-1.35 0.35,-0.15 0.05,-1.4 M 27,15.95 l 1.75,-0.4 3.25,0.3 q 1.55,0.6 2.45,2.2 1.2,2.05 0.65,4.3 -0.45,1.95 -1.85,3.15 l -0.15,-0.1 -1.6,-0.45 -2.1,-0.1 q -1.4,-0.1 -3.25,0.9 L 26,25.85 25.4,25.4 Q 24.3,24.45 24,23.25 23.75,22.5 23.85,21.4 q 0.1,-1.8 0.5,-2.65 0.4,-0.85 1.35,-1.85 0.7,-0.7 1.3,-0.95"
         fill="#ffffff"
         fill-rule="evenodd"
         stroke="none"
         id="path7" />
    </g>
    <g
       id="shape2"
       transform="translate(1.5,1.5)">
      <path
         d="M 0,23.8 V 0 H 64.1 V 23.8 57.55 H 0 Z"
         fill="none"
         stroke="#000000"
         stroke-linecap="round"
         stroke-linejoin="round"
         stroke-width="3"
         id="path8" />
    </g>
  </defs>
</svg>
