<?xml version="1.0" encoding="UTF-8" standalone="no"?>
<svg
   ffdec:objectType="frame"
   height="60.549999"
   width="67.099998"
   version="1.1"
   id="svg6"
   sodipodi:docname="743.svg"
   xmlns:inkscape="http://www.inkscape.org/namespaces/inkscape"
   xmlns:sodipodi="http://sodipodi.sourceforge.net/DTD/sodipodi-0.dtd"
   xmlns:xlink="http://www.w3.org/1999/xlink"
   xmlns="http://www.w3.org/2000/svg"
   xmlns:svg="http://www.w3.org/2000/svg"
   xmlns:ffdec="https://www.free-decompiler.com/flash">
  <sodipodi:namedview
     id="namedview6"
     pagecolor="#ffffff"
     bordercolor="#000000"
     borderopacity="0.25"
     inkscape:showpageshadow="2"
     inkscape:pageopacity="0.0"
     inkscape:pagecheckerboard="0"
     inkscape:deskcolor="#d1d1d1"
     fit-margin-top="5"
     fit-margin-left="5"
     fit-margin-right="5"
     fit-margin-bottom="5" />
  <g
     transform="translate(1.5,1.5)"
     id="g3">
    <use
       ffdec:characterId="516"
       height="57.549999"
       width="64.099998"
       xlink:href="#shape0"
       id="use1" />
    <use
       ffdec:characterId="1232"
       height="59.150002"
       transform="translate(-1.3,-0.8)"
       width="66.599998"
       xlink:href="#shape1"
       id="use2" />
    <use
       ffdec:characterId="518"
       height="60.549999"
       transform="translate(-1.5,-1.5)"
       width="67.099998"
       xlink:href="#shape2"
       id="use3" />
  </g>
  <defs
     id="defs6">
    <g
       id="shape0">
      <path
         d="M 53.6,0 H 64.1 V 57.55 H 53.6 28.25 0 V 0 H 28.25 53.6 V 57.55 0 M 28.25,0 V 57.55 0"
         fill="#ffffff"
         fill-rule="evenodd"
         stroke="none"
         id="path3" />
    </g>
    <g
       id="shape1"
       transform="translate(1.3,0.8)">
      <path
         d="M 1.1,23.3 0.6,23.15 H 0.3 q -0.6,0 -0.85,-0.3 Q -0.9,22.4 -0.4,21.8 l 0.05,-0.6 q 0.15,-0.75 1.1,-1.45 -0.7,-0.8 -0.7,-2.6 L 0.2,11.85 0.55,4.2 Q 0.65,2.15 1.5,1.4 2.3,0.75 4.25,0.85 L 7.6,0.75 10.9,0.7 16.05,1.1 q 3.15,0.3 5.15,0.1 l 2.95,-0.35 4.3,-0.15 1.5,-0.2 h 0.7 q 0.95,-0.65 1.6,-0.75 l 1.2,0.1 q 0.65,0.25 0.9,0.75 0.45,0.95 -0.4,2.05 L 32.2,3.9 27.4,7.15 22.7,10.55 19,12.8 4.8,21.3 l -1.35,1 q -1.4,1.1 -2.35,1 M -0.4,36.85 Q -0.8,36.35 -0.75,35.65 -0.7,35 -0.3,34.5 0.1,33.85 1.6,32.9 10.2,27.65 25.65,16.35 41.65,4.65 49.6,-0.3 q 0.6,-0.45 1.1,-0.5 0.9,0 0.95,0.6 Q 51.8,0.3 51,1 27.25,19.7 3.55,36.35 l -1.95,1 q -1.3,0.35 -2,-0.5 m 64.75,-16.6 0.45,0.55 v 0.75 l -0.9,1.25 -4.95,4.75 -9.65,9.15 q -5.5,5 -10.15,8.6 l -16,12 q -1.1,0.85 -1.85,1 l -1.05,-0.05 -0.8,-0.6 q -0.4,-0.75 0.15,-1.7 0.4,-0.55 1.3,-1.2 l 14.45,-10.6 5.3,-3.95 q 3.8,-3 11.1,-9.8 7.1,-6.65 11.05,-9.7 0.95,-0.75 1.55,-0.45 M 41.15,0.35 q 0.45,0.6 -0.1,1.35 L 40,2.6 Q 35.55,5.5 31.55,8.7 L 27.25,12.1 20.1,17.35 3.95,28.9 Q 2.55,29.85 1.8,30 L 0.6,29.9 -0.3,29.1 Q -0.7,28.2 0,27.25 0.35,26.7 1.45,26 L 15.3,16.6 q 8,-5.5 13.55,-9.75 l 4.9,-3.7 Q 36.6,1.2 39.1,0.2 l 2.05,0.15 M 35.9,57.4 q -0.5,-0.7 0.05,-1.65 l 1.25,-1.2 8.25,-6.45 1.95,-1.6 2,-2.3 4.3,-4.2 9.1,-8.35 q 0.7,-0.7 1.25,-0.45 0.55,0.25 0.35,0.95 l -0.65,0.9 -0.9,0.95 q 0.6,0.35 0.8,1.25 0.25,0.8 0.05,2 l -0.55,8.8 Q 63,47.8 63,49.6 l 0.05,3 0.2,1.2 0.5,1.5 q 0,0.9 -1.05,1.3 l -1.75,0.2 -5.05,-0.3 -8.7,0.35 -8.35,0.4 -1.2,0.65 q -1.2,0.35 -1.75,-0.5 m -5.5,0.25 q -0.8,-0.75 -0.25,-2 0.4,-0.75 1.45,-1.6 16.6,-13.8 31.95,-27.65 0.75,-0.75 1.25,-0.5 l 0.45,0.45 V 27 L 64.5,28.1 52,40.35 q -7,6.6 -13.05,11.6 -3.85,3.15 -5,4.4 L 32.4,57.75 31.35,58 q -0.6,0 -0.95,-0.35"
         fill="#999999"
         fill-rule="evenodd"
         stroke="none"
         id="path4" />
      <path
         d="m 50.3,14.5 0.55,-0.9 2.2,-1.85 q 0.75,-0.45 1.2,-0.3 l 0.5,0.4 0.15,0.65 q 0,0.6 -0.5,1.2 l -0.85,1 -0.8,1.15 Q 51.9,16.55 51,16.05 50.05,15.55 50.3,14.5 M 48.35,6.1 q 3.4,-1.45 6.7,-0.05 1.6,0.7 2.75,2 1.2,1.3 1.7,2.95 0.7,2.35 0.05,5.15 -0.8,3.3 -3.45,6.65 l -5.35,5.5 Q 36.25,41.45 20.3,52.6 14.2,56.9 10.15,58.2 8.7,58.65 8.35,57.85 8.05,57.15 9.25,56.3 30.5,41.95 49.15,24.7 l 4.15,-4.3 q 2.05,-2.6 2.7,-5.2 0.55,-2 -0.1,-3.55 -0.65,-1.6 -2.4,-2.3 Q 51.8,8.7 50.2,9.3 48.95,9.75 47.05,11.55 26.05,31.5 1.9,48.6 -0.2,50.1 -1.3,49.3 V 46.5 L 0.2,45.2 Q 22.75,29.7 43.65,9.7 q 3,-2.8 4.7,-3.6 m -1.05,6.7 1.15,-0.9 0.85,0.15 q 0.4,0.3 0.45,0.75 0.05,0.45 -0.3,1 l -0.7,0.8 -0.95,1.2 q -0.75,0.7 -1.4,0.55 -0.75,-0.15 -0.9,-0.85 -0.2,-0.65 0.25,-1.3 l 0.8,-0.65 0.75,-0.75 m -5.95,7.15 q 0.65,-0.45 1.75,-0.7 1.85,-0.3 2.7,0.7 0.7,0.85 0.45,2.05 -0.2,0.85 -1,1.85 -1.05,1.3 -2.6,1.9 L 39.95,25.7 Q 39.4,25.3 39.2,24.5 39,23.75 39.2,23 q 0.4,-2 2.15,-3.05 m 8.35,0.55 q -0.5,-0.75 0.05,-1.7 l 1.35,-1.2 1.2,-0.8 q 0.4,-0.35 0.8,-0.4 0.65,-0.1 1,0.5 0.5,0.7 -0.3,1.7 l -1.4,1.25 -0.75,0.8 q -0.4,0.35 -1,0.3 -0.6,-0.05 -0.95,-0.45"
         fill="#000000"
         fill-rule="evenodd"
         stroke="none"
         id="path5" />
    </g>
    <g
       id="shape2"
       transform="translate(1.5,1.5)">
      <path
         d="M 0,23.8 V 0 H 64.1 V 23.8 57.55 H 0 Z"
         fill="none"
         stroke="#000000"
         stroke-linecap="round"
         stroke-linejoin="round"
         stroke-width="3"
         id="path6" />
    </g>
  </defs>
</svg>
