<?xml version="1.0" encoding="UTF-8" standalone="no"?>
<svg
   ffdec:objectType="frame"
   height="60.549999"
   width="67.099998"
   version="1.1"
   id="svg10"
   sodipodi:docname="468.svg"
   xmlns:inkscape="http://www.inkscape.org/namespaces/inkscape"
   xmlns:sodipodi="http://sodipodi.sourceforge.net/DTD/sodipodi-0.dtd"
   xmlns:xlink="http://www.w3.org/1999/xlink"
   xmlns="http://www.w3.org/2000/svg"
   xmlns:svg="http://www.w3.org/2000/svg"
   xmlns:ffdec="https://www.free-decompiler.com/flash">
  <sodipodi:namedview
     id="namedview10"
     pagecolor="#ffffff"
     bordercolor="#000000"
     borderopacity="0.25"
     inkscape:showpageshadow="2"
     inkscape:pageopacity="0.0"
     inkscape:pagecheckerboard="0"
     inkscape:deskcolor="#d1d1d1"
     fit-margin-top="5"
     fit-margin-left="5"
     fit-margin-right="5"
     fit-margin-bottom="5" />
  <g
     transform="translate(1.5,1.5)"
     id="g3">
    <use
       ffdec:characterId="516"
       height="57.549999"
       width="64.099998"
       xlink:href="#shape0"
       id="use1" />
    <use
       ffdec:characterId="966"
       height="54.599998"
       transform="translate(-0.7,3.45)"
       width="65.949997"
       xlink:href="#shape1"
       id="use2" />
    <use
       ffdec:characterId="518"
       height="60.549999"
       transform="translate(-1.5,-1.5)"
       width="67.099998"
       xlink:href="#shape2"
       id="use3" />
  </g>
  <defs
     id="defs10">
    <g
       id="shape0">
      <path
         d="M 53.6,0 H 64.1 V 57.55 H 53.6 28.25 0 V 0 H 28.25 53.6 V 57.55 0 M 28.25,0 V 57.55 0"
         fill="#ffffff"
         fill-rule="evenodd"
         stroke="none"
         id="path3" />
    </g>
    <g
       id="shape1"
       transform="translate(0.7,-3.45)">
      <path
         d="M 0,46.55 0.05,46.5 0.2,46.45 0.4,46.35 0.55,46.3 H 0.7 l 0.25,-0.05 h 0.4 L 1.6,46.2 H 1.65 1.8 2.15 L 2.4,46.15 H 3.15 L 3.45,46.1 H 8 h 1.1 4.6 0.7 q -2.6,-3.85 -2.75,-8.75 l -0.1,-0.6 q -0.75,-5.1 0.7,-8.85 0.8,-2 3.45,-5.5 0.75,-1.4 0.75,-2.5 l -0.15,-1.45 -0.2,-1.5 q 0.05,-1 0.65,-2.1 0.25,-0.65 0.85,-1.25 0.45,-0.45 0.85,-0.45 0.7,0 0.75,0.5 l -0.15,0.65 -0.45,0.65 q -0.15,0.35 -0.15,1.1 0,0.95 0.15,1.4 l 0.45,1.15 0.35,1.15 v 0.35 l -0.05,1.3 q -0.3,2.2 0.4,4.45 l 0.25,0.7 0.1,0.1 q -0.3,-1.1 -0.3,-2.6 0.1,-5.1 1.9,-8.95 2.8,-6 8.7,-8.95 1.9,-0.95 3.15,-1 1.75,-0.05 3.35,0.9 l 0.85,0.65 0.9,0.15 0.95,-0.6 q 0.6,-0.6 0.85,-1.5 L 40.65,4 Q 40.8,3.6 41.1,3.45 L 41.6,4.8 Q 41.95,6.55 41.4,7.6 41,8.45 39.55,9.35 l -1.1,0.5 -1.8,-0.1 L 35.8,9.4 35.6,9.35 Q 34.75,9.3 34.05,10 q -0.7,0.65 -0.85,1.6 -0.15,1.35 0.8,3.5 1.85,3.8 5.2,6.75 l 3.35,2.65 q 3.15,2.65 4.45,5 1.55,2.95 1.45,6.9 -0.1,4.1 -2.05,7.65 l -1.35,2.15 h 1.35 6.8 l 1.55,0.05 h 0.4 l 6.1,0.05 h 1.4 0.2 0.6 l 0.3,0.05 h 0.2 l 0.1,0.05 h 0.05 l 0.1,0.05 0.2,0.05 0.1,0.1 0.1,0.1 0.1,0.05 0.1,0.1 0.05,0.05 0.1,0.1 0.05,0.05 0.05,0.1 0.05,0.05 0.05,0.1 v 0.1 l 0.05,0.05 v 0.1 l 0.05,0.05 v 0.1 0.05 0.1 0.05 0.1 0.05 0.1 0.1 0.05 l -0.05,0.1 v 0.05 l -0.05,0.1 -0.05,0.05 v 0.1 l -0.05,0.05 -0.1,0.1 -0.05,0.1 -0.05,0.05 -0.05,0.1 -0.1,0.05 -0.1,0.1 -0.15,0.05 -0.1,0.1 -0.15,0.05 H 64.15 L 64.1,49.5 v -0.15 -0.1 -2.85 2.85 0.1 0.15 H 64 l -0.05,0.05 -0.05,0.1 -0.1,0.1 -0.1,0.05 -0.1,0.1 -0.15,0.05 -0.15,0.1 -0.1,0.05 v 0.65 l -0.05,1.45 0.05,1.1 -0.15,0.95 h 0.05 l 0.05,0.1 0.05,0.05 0.05,0.1 v 0.05 l 0.05,0.1 0.05,0.05 v 0.1 l 0.05,0.1 v 0.05 0.1 0.05 0.1 0.05 0.1 0.05 0.1 l -0.05,0.1 v 0.05 l -0.05,0.1 -0.05,0.05 v 0.1 l -0.05,0.05 -0.05,0.1 -0.05,0.05 -0.1,0.1 -0.1,0.1 -0.1,0.05 -0.15,0.1 -0.15,0.05 -0.2,0.05 -0.25,0.05 -3.15,-0.05 H 58.45 57.65 56.8 54.9 51.75 48.25 46.5 L 42.15,56.6 H 29.5 l -3,-0.05 H 25.1 L 22.6,56.6 H 21.75 L 21,56.65 H 19.85 L 18.1,56.7 H 16.05 3.85 2.9 L 2.3,56.65 H 2 1.45 L 1.3,56.75 1.1,56.8 H 1 L 0.75,56.85 0.5,56.8 H 0.4 L 0.2,56.75 0.05,56.65 H 0 l -0.05,-0.05 -0.1,-0.1 -0.1,-0.05 -0.1,-0.1 L -0.4,56.3 -0.45,56.2 -0.5,56.1 -0.55,56.05 v -0.1 L -0.6,55.9 v -0.1 l -0.05,-0.05 v -0.1 L -0.7,55.6 v -0.1 -0.1 -0.05 -0.1 -0.05 -0.1 -0.05 l 0.05,-0.1 V 54.9 54.8 54.7 54.65 54.55 54.5 54.4 54.35 54.25 54.2 54.1 54.05 53.95 53.85 53.8 53.7 L -0.7,53.65 v -0.1 l 0.05,-0.05 v -0.1 -0.05 -0.1 -0.1 L -0.6,53.1 V 53 l 0.05,-0.05 v -0.1 L -0.5,52.8 v -0.1 l 0.05,-0.05 v -0.1 l 0.05,-0.1 V 52.4 52.3 l 0.05,-0.05 v -0.1 L -0.3,52.1 V 52 51.95 51.85 51.75 51.7 51.6 51.55 51.45 51.4 l 0.05,-0.1 v -0.05 -0.1 L -0.2,51.1 V 51 l 0.05,-0.1 v -0.05 l 0.05,-0.1 0.05,-0.05 V 50.6 L 0,50.55 v 6.1 -6.1 L 0.05,50.45 0.1,50.4 v -0.1 l 0.05,-0.1 v -0.05 -0.1 L 0.2,50 v -0.1 -0.05 l 0.05,-0.1 V 49.7 L 0.3,49.6 0.35,49.5 0.25,49.45 0.1,49.4 0,49.3 -0.1,49.25 -0.15,49.15 -0.25,49.1 -0.35,49 -0.4,48.95 -0.45,48.85 -0.5,48.75 -0.55,48.7 -0.6,48.6 v -0.05 l -0.05,-0.1 V 48.4 48.3 L -0.7,48.25 V 48.15 48.05 48 47.9 47.85 47.75 47.7 l 0.05,-0.1 v -0.05 -0.1 L -0.6,47.4 v -0.1 l 0.05,-0.1 0.05,-0.05 0.05,-0.1 0.05,-0.05 0.05,-0.1 0.05,-0.05 0.1,-0.1 0.1,-0.05 0.05,-0.1 L 0,46.55 v 2.75 -2.75 m 43.5,-27.7 q -0.1,1.35 0.1,2 l 0.35,0.9 0.2,0.9 -0.05,0.4 0.05,0.25 -0.2,0.2 -1.2,-1.45 -0.9,-1.25 Q 40.2,17.95 41.2,14.85 l 0.4,-1.05 q 0.85,-1.6 2.4,-2.55 l 1.25,-0.8 Q 46,9.9 46,9.25 V 8.3 q 0.1,-0.35 0.5,-0.45 l 0.65,0.1 0.4,0.75 q 0.85,3.25 -0.95,5.15 l -1.1,1 -1,1 q -0.7,0.9 -1,3 M 45.95,49.6 Q 46.1,48.25 44.7,47.4 L 44.25,47.15 44,47.4 q -1.35,1.35 -3,2.25 l -0.1,0.05 -1,0.4 h -0.5 -0.1 q -0.25,-0.05 -0.45,-0.25 l -0.7,0.25 Q 32,52 26.3,51.4 l -5.7,-1.1 -0.9,-0.25 -1.05,-0.3 -0.8,-0.35 Q 16.7,48.8 15.6,47.65 L 14.9,48 Q 14.25,48.5 14,49.15 L 13.85,49.8 V 50 l 0.1,0.6 q 0.45,1.1 2.3,1.6 l 2.95,0.4 14.85,0.75 4.95,-0.2 q 2.7,-0.3 4.7,-1.2 1.7,-0.75 2.15,-1.85 l 0.1,-0.4 V 49.6 M 37.1,46.9 Q 27.9,46 21.15,46.6 l 1.05,0.3 2.3,0.55 3.6,0.65 7.6,-0.65 0.4,-0.1 L 38,47 37.1,46.9"
         fill="#767676"
         fill-rule="evenodd"
         stroke="none"
         id="path4" />
      <path
         d="m 45.95,49.6 v 0.1 l -0.1,0.4 q -0.45,1.1 -2.15,1.85 -2,0.9 -4.7,1.2 L 34.05,53.35 19.2,52.6 16.25,52.2 Q 14.4,51.7 13.95,50.6 L 13.85,50 V 49.8 L 14,49.15 Q 14.25,48.5 14.9,48 l 0.7,-0.35 q 1.1,1.15 2.25,1.75 l 0.8,0.35 1.05,0.3 0.9,0.25 5.7,1.1 Q 32,52 38.15,50.1 l 0.7,-0.25 q 0.2,0.2 0.45,0.25 h 0.1 0.5 l 1,-0.4 0.1,-0.05 q 1.65,-0.9 3,-2.25 l 0.25,-0.25 0.45,0.25 q 1.4,0.85 1.25,2.2 M 37.1,46.9 38,47 36.1,47.35 35.7,47.45 28.1,48.1 24.5,47.45 22.2,46.9 21.15,46.6 Q 27.9,46 37.1,46.9"
         fill="#ffffff"
         fill-rule="evenodd"
         stroke="none"
         id="path5" />
      <path
         d="M 64.1,46.4 V 23.75 m 0,25.75 v 8.05 H 0 v -0.9 -6.1 -1.25 -2.75 -22.8 M 64.1,46.4 v 2.85 0.1 0.15"
         fill="none"
         stroke="#5f645e"
         stroke-linecap="round"
         stroke-linejoin="round"
         stroke-opacity="0.498039"
         stroke-width="1"
         id="path6" />
      <path
         d="m 42.45,31.6 q 0.9,0.2 1.2,0.45 l 0.6,0.7 0.15,0.2 q 0.35,0.7 0.3,1.6 -0.15,0.85 -0.7,1.5 L 42.9,37 q -1.65,0.95 -2.8,0.65 h -0.5 l -0.3,0.3 -1.8,2.15 -0.95,1.05 q -0.55,0.45 -1.3,0.4 -0.95,-0.2 -1.1,-1.2 0,-0.4 0.3,-1.25 l 1.85,-3.7 q -1.05,-0.45 -1.35,-1.7 -0.1,-0.8 0.1,-1.75 0.35,-1.1 1.05,-1.7 1.05,-0.8 2.65,-0.55 0.9,0.15 1.45,0.6 l 0.2,0.15 0.7,0.95 1.35,0.2"
         fill="#ffffff"
         fill-rule="evenodd"
         stroke="none"
         id="path7" />
      <path
         d="m 31.1,35.65 q 1.15,0.05 1.75,0.4 1,0.4 1.1,1.35 0.15,0.65 -0.25,1.45 l -0.7,1.25 -0.25,0.75 0.5,0.9 q 0.85,0.7 2.05,0.8 1.1,0.15 2.15,-0.4 -0.05,-0.7 0.3,-1.3 0.4,-0.6 1.05,-0.85 0.8,-0.2 1.6,0.5 l 1,1.4 q 0.85,1.65 1.25,3.85 0.35,1.7 -0.2,2.65 -0.5,0.85 -1.75,1.45 -1.65,0.75 -5.95,0.95 l -6.9,0.2 -6.8,-0.7 Q 18.4,49.9 17.8,48.55 17.3,47.7 17.5,46.1 q 0.3,-2.9 1.65,-4.7 0.55,-0.75 1.75,-1.75 5.1,-4.2 10.2,-4 m -0.6,5.45 0.3,-1 q -0.4,0.2 -0.55,1 -0.45,1.3 -0.4,2 l 0.4,1.35 0.25,0.65 0.55,0.25 q 0.75,0.35 1.1,0.95 l 0.3,0.3 0.3,0.2 h 1.05 l 3.3,-0.25 1.6,-0.3 -0.4,-1.55 -0.6,0.3 -1.6,0.5 H 35.2 L 33.4,44.95 32,44.2 30.9,43.05 q -0.3,-0.5 -0.4,-1.95"
         fill="#000000"
         fill-rule="evenodd"
         stroke="none"
         id="path8" />
      <path
         d="m 30.5,41.1 q 0.1,1.45 0.4,1.95 l 1.1,1.15 1.4,0.75 1.8,0.55 h 0.9 l 1.6,-0.5 0.6,-0.3 0.4,1.55 -1.6,0.3 -3.3,0.25 h -1.05 l -0.3,-0.2 -0.3,-0.3 Q 31.8,45.7 31.05,45.35 L 30.5,45.1 30.25,44.45 29.85,43.1 q -0.05,-0.7 0.4,-2 0.15,-0.8 0.55,-1 l -0.3,1"
         fill="#767676"
         fill-rule="evenodd"
         stroke="none"
         id="path9" />
    </g>
    <g
       id="shape2"
       transform="translate(1.5,1.5)">
      <path
         d="M 0,23.8 V 0 H 64.1 V 23.8 57.55 H 0 Z"
         fill="none"
         stroke="#000000"
         stroke-linecap="round"
         stroke-linejoin="round"
         stroke-width="3"
         id="path10" />
    </g>
  </defs>
</svg>
