<?xml version="1.0" encoding="UTF-8" standalone="no"?>
<svg
   ffdec:objectType="frame"
   height="44.349998"
   width="78.599998"
   version="1.1"
   id="svg12"
   sodipodi:docname="244.svg"
   xmlns:inkscape="http://www.inkscape.org/namespaces/inkscape"
   xmlns:sodipodi="http://sodipodi.sourceforge.net/DTD/sodipodi-0.dtd"
   xmlns:xlink="http://www.w3.org/1999/xlink"
   xmlns="http://www.w3.org/2000/svg"
   xmlns:svg="http://www.w3.org/2000/svg"
   xmlns:ffdec="https://www.free-decompiler.com/flash">
  <sodipodi:namedview
     id="namedview12"
     pagecolor="#ffffff"
     bordercolor="#000000"
     borderopacity="0.25"
     inkscape:showpageshadow="2"
     inkscape:pageopacity="0.0"
     inkscape:pagecheckerboard="0"
     inkscape:deskcolor="#d1d1d1"
     fit-margin-top="5"
     fit-margin-left="5"
     fit-margin-right="5"
     fit-margin-bottom="5" />
  <g
     transform="translate(2,2.05)"
     id="g3">
    <use
       ffdec:characterId="1"
       height="42.700001"
       transform="translate(-1.75,-2)"
       width="76.449997"
       xlink:href="#shape0"
       id="use1" />
    <use
       ffdec:characterId="239"
       height="38.349998"
       transform="translate(0.5,1.95)"
       width="73.300003"
       xlink:href="#shape1"
       id="use2" />
    <use
       ffdec:characterId="3"
       height="44.349998"
       transform="translate(-2,-2.05)"
       width="78.599998"
       xlink:href="#shape2"
       id="use3" />
  </g>
  <defs
     id="defs12">
    <g
       id="shape0"
       transform="translate(1.75,2)">
      <path
         d="M 2.8,0 V -0.4 H 5.4 V 0 H 9.7 V 19.45 0 H 20.55 L 19.3,19.45 H 9.7 0.25 V 0 H 2.8"
         fill="#ffffff"
         fill-rule="evenodd"
         stroke="none"
         id="path3" />
      <path
         d="M 0.25,19.45 H 9.7 19.3 L 18.7,28.6 16,28.5 10.95,27.95 9.7,27.8 Q 7.45,27.6 5.85,27.75 4.05,27.9 1.5,28.6 0.75,28.8 0.25,29.15 v -9.7 m 9.45,0 v 8.35 -8.35"
         fill="#121212"
         fill-rule="evenodd"
         stroke="none"
         id="path4" />
      <path
         d="m 9.7,27.8 1.25,0.15 5.05,0.55 2.7,0.1 h 1.05 l 3.75,0.15 q 2.45,0.3 3.6,1.25 0.6,0.5 0.6,1.1 0,0.65 -0.8,1 l -1.3,0.2 -7.15,0.15 -5.6,-0.3 L 9.7,31.75 7.95,31.6 3.1,31.95 0.95,32.3 0.25,32.1 -0.35,31.55 -0.5,31.3 V 29.9 L 0.25,29.15 Q 0.75,28.8 1.5,28.6 4.05,27.9 5.85,27.75 7.45,27.6 9.7,27.8 v 3.95 -3.95"
         fill="#999999"
         fill-rule="evenodd"
         stroke="none"
         id="path5" />
      <path
         d="M 2.8,0 H 0.25 M 9.7,0 H 5.4 m 16.15,0 h 10.7 M 20.55,0 H 9.7"
         fill="none"
         stroke="#666666"
         stroke-linecap="round"
         stroke-linejoin="round"
         stroke-width="4"
         id="path6" />
      <path
         d="m 9.7,-0.4 h 65 V 40.5 H 47.05 L 45.5,40.7 27,40.65 25.95,40.5 H 9.7 -0.5 V -0.4 H 9.7 V 40.5 -0.4"
         fill="#ffffff"
         fill-rule="evenodd"
         stroke="none"
         id="path7" />
    </g>
    <g
       id="shape1"
       transform="translate(-0.5,-1.95)">
      <path
         d="M 39.05,23.25 37.15,23 35.3,22.95 q -2,0.2 -3.7,1.25 l -0.35,0.05 -0.15,-0.35 0.3,-0.5 q 2.3,-2.3 5.25,-2.75 l 1.95,-0.05 2.9,0.35 0.1,-0.35 0.2,-0.35 q 0.25,-0.35 0.65,-0.3 0.35,0.05 0.6,0.4 l 0.45,0.8 0.9,3 0.1,0.25 q 0.35,0.8 0,1.35 L 43.95,26.1 H 43.2 L 41.3,25.9 40.5,26 Q 40.15,25.9 39.95,25.45 39.7,25.1 39.75,24.7 l 0.1,-0.65 0.2,-0.2 0.1,-0.05 -1.1,-0.55 m -3.2,12.2 1.9,0.25 1.9,0.05 q 2,-0.15 3.65,-1.25 l 0.4,-0.05 0.1,0.35 -0.3,0.55 q -2.25,2.3 -5.25,2.7 L 36.3,38.15 33.45,37.8 33.3,38.15 33.1,38.45 32.5,38.8 31.85,38.35 31.4,37.55 30.6,35 30.55,34.6 30.4,34.3 q -0.35,-0.75 0,-1.35 0.2,-0.25 0.6,-0.3 h 0.7 l 1.95,0.15 0.8,-0.05 0.55,0.5 0.2,0.8 -0.15,0.6 -0.2,0.25 -0.05,0.05 1.05,0.5 M 10.65,11.2 11.4,9.7 V 9.5 L 11.45,7 q 0,-0.75 0.15,-1.45 l 0.8,-1.15 2.05,-0.05 2.2,0.8 q 3.4,-1.25 6,-1.3 3.5,0 5.95,1.55 l 1.05,0.85 0.4,0.45 0.1,-0.05 2.1,-0.35 q 0.85,0.1 1.3,0.85 0.35,0.65 0.2,1.55 l -1.5,3.2 0.1,1.7 q 0.15,3.7 -1.35,6.65 -1.8,3.4 -4.85,4.6 l -1.7,0.5 -0.45,0.1 q 3.1,2.35 4.65,4.45 0.9,1.25 1.1,2.15 0.35,1.3 -0.2,2.35 -0.45,1 -1.9,1.55 l -2.5,0.35 -1.65,-0.05 -1.3,-0.15 1.1,2.1 0.7,1.4 0.1,0.7 H 9.5 l -0.1,-0.2 -0.15,-1.8 0.1,-2.55 0.35,-1.8 0.65,-1.8 q 1.2,-2.9 1.8,-3.85 1.4,-2.4 3.2,-3.55 L 14.8,24.5 Q 13,23.6 10.9,21.8 7.05,18.5 4.9,15.15 L 4.55,16.2 v 0.3 L 4.2,17.75 4,18.1 3.85,18.55 3.6,18.4 3.5,18.1 3.3,17.7 3.25,17.35 V 16.5 L 3.2,15.75 3.25,15 3.35,14.4 V 14.2 L 3.7,12.9 3.3,12 3.25,11.8 2.55,13.85 Q 2.2,15.25 1.95,19.7 L 1.7,20.15 Q 1.45,20.15 1.35,19.7 0.55,15.6 0.5,13.4 l 0.25,-3.3 0.9,-3.65 0.9,-1.7 Q 2.9,3.6 4,2.8 5.1,2 6.45,1.95 8.2,1.85 9.3,3.1 10.35,4.4 9.7,6.4 9.35,7.5 7.9,9.35 7.35,10 7.3,10.45 l 0.2,0.9 q 0.8,2.1 2.15,3.9 0.1,-1.85 1,-4.05 m 11.7,19.4 0.5,0.75 q 0.45,0.45 1.85,0.55 l -2.55,-3.1 -0.7,-1 -0.3,1.85 q 0.7,0.25 1.2,0.95"
         fill="#999999"
         fill-rule="evenodd"
         stroke="none"
         id="path8" />
      <path
         d="m 63.65,11.2 q 0.9,2.2 1,4.05 1.35,-1.8 2.15,-3.9 L 67,10.45 66.4,9.35 Q 64.95,7.5 64.6,6.4 63.95,4.4 65,3.1 66.1,1.85 67.85,1.95 69.2,2 70.3,2.8 q 1.1,0.8 1.45,1.95 l 0.9,1.7 0.9,3.65 0.25,3.3 q -0.05,2.2 -0.85,6.3 L 72.6,20.15 Q 72.35,20.1 72.35,19.7 72.1,15.25 71.75,13.85 L 71.05,11.8 71,12 l -0.4,0.9 0.35,1.3 v 0.2 l 0.1,0.6 0.05,0.75 -0.05,0.75 v 0.85 L 71,17.7 l -0.2,0.4 -0.1,0.3 -0.25,0.15 Q 70.3,18.5 70.3,18.1 L 70.1,17.75 69.75,16.5 V 16.2 L 69.4,15.15 q -2.15,3.35 -6,6.65 l -3.9,2.7 -0.55,0.25 q 1.8,1.15 3.2,3.55 l 1.8,3.85 0.65,1.8 0.35,1.8 0.1,2.55 -0.15,1.8 -0.05,0.2 H 50.25 Q 50.2,39.95 50.3,39.6 l 0.7,-1.4 1.1,-2.1 -1.3,0.15 -1.65,0.05 -2.5,-0.35 q -1.45,-0.55 -1.9,-1.55 -0.55,-1.05 -0.2,-2.35 0.2,-0.9 1.1,-2.15 1.55,-2.1 4.65,-4.45 l -0.45,-0.1 -1.7,-0.5 Q 45.1,23.65 43.3,20.25 41.8,17.3 41.95,13.6 l 0.1,-1.7 -1.5,-3.2 Q 40.4,7.8 40.75,7.15 41.2,6.4 42.05,6.3 l 2.1,0.35 0.1,0.05 0.4,-0.45 1.05,-0.85 q 2.45,-1.55 5.95,-1.55 2.6,0.05 6,1.3 l 2.2,-0.8 2.05,0.05 q 0.5,0.35 0.8,1.15 L 62.85,7 62.9,9.5 v 0.2 l 0.75,1.5 m -12.1,8.25 0.25,0.05 0.25,-0.1 0.55,-0.35 0.25,-0.2 0.45,-0.25 0.95,-0.65 0.25,-0.05 0.35,-0.2 0.2,-0.15 h 0.15 l 0.1,0.05 0.15,0.1 0.65,0.1 0.15,0.05 h 0.25 l 0.25,0.1 H 57 l 0.4,0.15 0.7,-0.15 0.25,-0.3 -0.15,-0.4 -0.15,-0.2 -0.4,-0.25 -0.85,-0.3 H 56.6 L 56.5,16.35 56,16.3 55.85,16.25 55.6,16.1 55.4,15.95 55.2,15.6 v -0.15 l -0.1,-0.6 -0.05,-0.15 -0.3,-0.4 -0.1,-0.15 -0.2,-0.2 -0.2,-0.1 -0.25,0.05 -0.2,0.3 0.05,0.2 -0.1,0.4 v 0.5 l -0.05,0.15 -0.05,0.4 v 0.3 l -0.05,0.2 0.05,0.05 -0.15,0.1 -2,1.75 -0.2,0.25 -0.1,0.25 -0.05,0.2 V 19 l 0.05,0.3 0.35,0.15 m -0.5,-4.25 q 0.2,-0.95 -0.1,-1.75 L 49.5,13 48.55,12.45 47.75,11.3 H 47.7 l -0.9,0.25 q -0.85,0.35 -1.4,1.15 -0.55,0.8 -0.55,1.75 0,0.95 0.5,1.75 L 46.1,17 46.45,16.9 49,16.45 h 0.95 l 0.45,0.1 0.65,-1.35 m 10.25,-5.15 -1,-0.2 -0.15,0.45 q -0.75,1.5 -2.55,2.35 0.05,1.3 1.15,2.05 l 1.05,-0.25 0.4,0.05 1.1,-0.1 0.75,0.05 0.3,-0.35 q 0.85,-1 0.5,-2.3 Q 62.4,10.5 61.3,10.05 M 51.95,30.6 q 0.5,-0.7 1.2,-0.95 l -0.3,-1.85 -0.7,1 -2.55,3.1 q 1.4,-0.1 1.85,-0.55 l 0.5,-0.75 m -11.2,2 q 0.9,0.6 0.55,1.6 -0.3,1 -1.4,0.9 L 39.15,34.9 H 39.1 l -0.3,0.35 -0.05,0.2 v 0.1 L 38.55,36 38.25,36.25 37.4,36.5 36.6,36.3 36.4,36.1 36.2,36 35.95,35.6 V 35.5 L 35.9,35.3 v -0.15 l 0.05,-0.4 0.25,-0.35 -8,-0.05 -0.3,-0.1 -0.1,-0.35 q -0.1,-0.35 0.35,-0.45 H 28.2 L 29,33 l 1.85,-0.45 0.75,-0.45 0.1,-0.15 -0.1,-0.2 -0.35,-0.35 -0.3,-0.15 -0.3,-0.1 -0.15,-0.2 -0.25,-0.45 0.05,-0.25 q 0.1,-0.45 0.55,-0.45 l 0.1,-0.05 h 0.1 l 0.6,-0.15 0.6,-0.2 1,-0.15 q 0.8,-0.25 1,-0.5 l 0.25,-1 -0.05,-0.5 -0.2,-0.4 -1.75,-2.4 v -0.4 l 0.05,-0.1 0.15,-0.2 h 0.05 V 23.7 q 0.2,-0.25 0.7,-0.25 l 0.65,0.35 0.85,0.2 q 0.65,0.15 2.35,-0.75 l 0.55,-0.35 0.2,-0.25 0.25,-0.25 0.1,-0.2 0.2,-0.55 q 0,-0.35 0.15,-0.4 l 0.1,-0.3 -0.05,-0.15 0.05,-0.15 v -0.2 l 0.1,-0.25 0.05,-0.5 0.1,-0.25 0.1,-0.6 V 18.5 l 0.2,-0.25 0.55,-0.1 q 0.25,0.3 0.1,0.55 l -0.05,0.25 0.15,0.5 -0.1,0.45 0.1,0.4 0.2,3.35 -0.1,0.95 v 0.5 l 0.05,0.05 v 0.15 0.1 0.1 l 0.05,0.05 Q 40.9,25.3 41.4,25 q 0.55,-0.4 1.05,-0.45 0.65,-0.1 1,0.35 l 0.25,0.6 v 1.95 l 0.2,1.1 q 0,0.8 -1.05,1.85 l -2.1,2.2 m -1.25,-1.65 -0.1,0.4 v 0.4 L 39.35,32 h 0.15 l 0.15,-0.15 0.1,-0.25 0.2,-0.25 0.2,-0.15 0.15,-0.3 0.2,-0.2 1.25,-1.85 0.05,-0.15 v -0.15 l 0.1,-0.3 -0.05,-0.15 -0.05,-1 -0.05,0.05 -1,0.45 -0.4,0.15 -0.05,0.15 -0.1,0.25 -0.35,1.2 v 0.3 l -0.35,1.3 m -4.3,1.65 q -0.15,-0.75 0.5,-1.25 l 1.4,-0.05 q 0.1,-1.45 0.55,-2.6 l 0.15,-0.55 0.4,-1.3 0.55,-0.4 0.15,-0.1 V 26.3 l 0.05,-0.1 V 25.95 L 39,25.9 V 25.85 25.7 l 0.1,-0.05 v -0.3 l 0.05,-0.05 v -0.15 -0.1 -0.5 -0.1 -0.05 L 39.2,24.35 V 23.9 l -0.3,0.4 -0.7,0.7 -0.95,0.4 -0.5,0.1 -0.85,0.05 -0.5,-0.05 h -0.2 -0.15 l 0.15,0.3 0.35,0.55 0.45,0.9 0.2,0.7 0.05,0.8 -0.05,0.55 -0.45,0.75 -0.25,0.2 -0.4,0.15 -1.25,0.35 -0.65,0.1 0.1,0.05 0.25,0.25 0.15,0.25 0.1,0.55 -0.1,0.35 -1.05,0.8 -0.25,0.05 -0.1,0.05 h 0.1 0.1 l 0.15,-0.05 h 0.15 0.25 0.15 l 0.7,-0.05 h 0.1 0.1 0.05 l 0.1,-0.05 h 0.15 1 L 35.2,32.6"
         fill="#000000"
         fill-rule="evenodd"
         stroke="none"
         id="path9" />
      <path
         d="m 41.75,27.15 0.05,-0.05 0.05,1 0.05,0.15 -0.1,0.3 v 0.15 l -0.05,0.15 -1.25,1.85 -0.2,0.2 -0.15,0.3 -0.2,0.15 -0.2,0.25 -0.1,0.25 L 39.5,32 h -0.15 l 0.05,-0.25 v -0.4 l 0.1,-0.4 2.25,-3.8"
         fill="#999999"
         fill-rule="evenodd"
         stroke="none"
         id="path10" />
      <path
         d="m 61.3,10.05 q 1.1,0.45 1.55,1.75 0.35,1.3 -0.5,2.3 l -0.3,0.35 -0.75,-0.05 -1.1,0.1 -0.4,-0.05 -1.05,0.25 q -1.1,-0.75 -1.15,-2.05 1.8,-0.85 2.55,-2.35 l 0.15,-0.45 1,0.2 M 51.05,15.2 50.4,16.55 49.95,16.45 H 49 L 46.45,16.9 46.1,17 45.35,16.2 q -0.5,-0.8 -0.5,-1.75 0,-0.95 0.55,-1.75 0.55,-0.8 1.4,-1.15 l 0.9,-0.25 h 0.05 l 0.8,1.15 0.95,0.55 1.45,0.45 q 0.3,0.8 0.1,1.75 m 0.5,4.25 L 51.2,19.3 51.15,19 v -0.05 l 0.05,-0.2 0.1,-0.25 0.2,-0.25 2,-1.75 0.15,-0.1 -0.05,-0.05 0.05,-0.2 v -0.3 l 0.05,-0.4 0.05,-0.15 v -0.5 l 0.1,-0.4 -0.05,-0.2 0.2,-0.3 0.25,-0.05 0.2,0.1 0.2,0.2 0.1,0.15 0.3,0.4 0.05,0.15 0.1,0.6 v 0.15 l 0.2,0.35 0.2,0.15 0.25,0.15 0.15,0.05 0.5,0.05 0.1,0.15 h 0.2 l 0.85,0.3 0.4,0.25 0.15,0.2 0.15,0.4 -0.25,0.3 L 57.4,18.1 57,17.95 H 56.75 L 56.5,17.85 H 56.25 L 56.1,17.8 55.45,17.7 55.3,17.6 55.2,17.55 h -0.15 l -0.2,0.15 -0.35,0.2 -0.25,0.05 -0.95,0.65 -0.45,0.25 -0.25,0.2 -0.55,0.35 -0.25,0.1 -0.25,-0.05 m -9.8,7.7 -2.25,3.8 0.35,-1.3 v -0.3 l 0.35,-1.2 0.1,-0.25 0.05,-0.15 0.4,-0.15 1,-0.45 M 26.85,9.7 q 0.9,0.3 1.45,1.05 0.9,1.2 0.4,2.65 -0.4,1.4 -1.85,1.9 -1.45,0.5 -2.65,-0.4 -1.15,-0.75 -1.25,-2.35 l 0.1,-0.7 Q 23.3,10.8 24.1,10.2 24.9,9.55 26,9.55 l 0.85,0.15 m -5,6.85 -0.45,0.2 -0.05,0.15 v 0.25 l -0.25,0.6 -0.25,0.45 -0.35,0.55 -0.25,0.15 -0.15,0.15 -0.7,0.45 -0.85,0.05 -0.45,-0.15 -0.55,-0.2 -0.2,-0.15 -0.1,-0.1 -0.2,-0.25 -0.15,-0.25 -0.05,-0.2 -0.15,-0.3 v -0.3 l 0.1,-0.6 V 16.9 L 16.5,16.85 16.2,16.75 15.85,16.3 15.75,16.05 15.7,15.7 v -0.65 l 0.05,-0.25 v -0.2 l 0.1,-0.15 0.25,-0.25 0.6,-0.4 0.65,0.1 0.2,0.3 0.05,0.15 -0.05,0.2 -0.1,0.25 -0.15,0.2 -0.15,0.15 -0.05,0.1 v 0.3 l 0.6,0.15 0.35,-0.2 0.4,-0.3 0.2,-0.15 0.4,-0.2 0.3,0.1 h 0.15 l 0.25,0.25 0.1,0.15 0.05,0.05 0.25,0.3 0.25,0.05 h 0.55 l 0.3,-0.1 0.15,-0.45 -0.05,-0.35 -0.1,-0.2 0.2,-0.55 0.3,-0.1 0.2,0.1 0.3,0.2 0.2,0.35 0.05,0.4 -0.05,0.6 -0.05,0.2 -0.2,0.35 -0.35,0.35 m 13.35,16.05 0.2,0.45 h -1 -0.15 l -0.1,0.05 H 34.1 34 33.9 l -0.7,0.05 H 33.05 32.8 32.65 L 32.5,33.2 h -0.1 -0.1 l 0.1,-0.05 0.25,-0.05 1.05,-0.8 0.1,-0.35 -0.1,-0.55 -0.15,-0.25 -0.25,-0.25 -0.1,-0.05 0.65,-0.1 1.25,-0.35 0.4,-0.15 0.25,-0.2 0.45,-0.75 0.05,-0.55 -0.05,-0.8 -0.2,-0.7 -0.45,-0.9 -0.35,-0.55 -0.15,-0.3 h 0.15 0.2 l 0.5,0.05 0.85,-0.05 0.5,-0.1 0.95,-0.4 0.7,-0.7 0.3,-0.4 v 0.45 l -0.05,0.05 v 0.05 0.1 0.5 0.1 0.15 l -0.05,0.05 v 0.3 L 39,25.7 v 0.15 0.05 l -0.05,0.05 v 0.25 l -0.05,0.1 v 0.05 l -0.15,0.1 -0.55,0.4 -0.4,1.3 -0.15,0.55 q -0.45,1.15 -0.55,2.6 l -1.4,0.05 q -0.65,0.5 -0.5,1.25 M 11.85,9.85 13,9.15 13.55,9.1 13.7,9.05 q 1.55,0 2.35,1.4 0.8,1.4 -0.05,2.7 -0.4,0.7 -1.15,1.05 l -1.6,0.2 q -0.95,-0.15 -1.6,-0.9 -0.6,-0.65 -0.6,-1.7 l 0.15,-0.95 q 0.25,-0.65 0.65,-1 m 7.8,6.8 -0.3,-0.25 H 19.3 l -0.7,0.15 -0.45,0.25 -0.1,0.05 L 18,17 v 0.25 q -0.1,0.2 -0.05,0.3 l 0.1,0.2 v 0.15 l 0.15,0.15 0.7,0.25 h 0.25 l 0.15,-0.15 0.35,-0.2 0.3,-0.35 0.1,-0.25 0.2,-0.5 -0.6,-0.2"
         fill="#ffffff"
         fill-rule="evenodd"
         stroke="none"
         id="path11" />
    </g>
    <g
       id="shape2"
       transform="translate(2,2.05)">
      <path
         d="M -0.5,-0.4 V -0.55 H 75.1 V -0.4 40.8 H -0.5 Z"
         fill="none"
         stroke="#000000"
         stroke-linecap="round"
         stroke-linejoin="round"
         stroke-width="3"
         id="path12" />
    </g>
  </defs>
</svg>
