<?xml version="1.0" encoding="UTF-8" standalone="no"?>
<svg
   ffdec:objectType="frame"
   height="60.549999"
   width="67.099998"
   version="1.1"
   id="svg7"
   sodipodi:docname="844.svg"
   xmlns:inkscape="http://www.inkscape.org/namespaces/inkscape"
   xmlns:sodipodi="http://sodipodi.sourceforge.net/DTD/sodipodi-0.dtd"
   xmlns:xlink="http://www.w3.org/1999/xlink"
   xmlns="http://www.w3.org/2000/svg"
   xmlns:svg="http://www.w3.org/2000/svg"
   xmlns:ffdec="https://www.free-decompiler.com/flash">
  <sodipodi:namedview
     id="namedview7"
     pagecolor="#ffffff"
     bordercolor="#000000"
     borderopacity="0.25"
     inkscape:showpageshadow="2"
     inkscape:pageopacity="0.0"
     inkscape:pagecheckerboard="0"
     inkscape:deskcolor="#d1d1d1"
     fit-margin-top="5"
     fit-margin-left="5"
     fit-margin-right="5"
     fit-margin-bottom="5" />
  <g
     transform="translate(1.5,1.5)"
     id="g4">
    <use
       ffdec:characterId="516"
       height="57.549999"
       width="64.099998"
       xlink:href="#shape0"
       id="use1" />
    <use
       ffdec:characterId="1321"
       height="60.400002"
       transform="translate(-0.95,-1.25)"
       width="66.199997"
       xlink:href="#shape1"
       id="use2" />
    <use
       ffdec:characterId="1333"
       height="39.599998"
       transform="translate(10.65,8.8)"
       width="41.299999"
       xlink:href="#shape2"
       id="use3" />
    <use
       ffdec:characterId="518"
       height="60.549999"
       transform="translate(-1.5,-1.5)"
       width="67.099998"
       xlink:href="#shape3"
       id="use4" />
  </g>
  <defs
     id="defs7">
    <g
       id="shape0">
      <path
         d="M 53.6,0 H 64.1 V 57.55 H 53.6 28.25 0 V 0 H 28.25 53.6 V 57.55 0 M 28.25,0 V 57.55 0"
         fill="#ffffff"
         fill-rule="evenodd"
         stroke="none"
         id="path4" />
    </g>
    <g
       id="shape1"
       transform="translate(0.95,1.25)">
      <path
         d="m 19.9,-1 q 1.5,0.2 1.55,1 0.05,0.8 -1.85,1.05 l -3.65,0.6 Q 14.2,1.95 10.15,4.1 6.1,6.25 3.9,11.05 q -2.25,4.8 -2.5,9.7 l -0.2,5.45 0.1,0.75 -0.25,0.2 -0.6,-0.1 q -0.8,-0.5 -1.4,-1.35 V 12.35 l 0.45,-1.2 -0.45,-0.5 V 0.8 l 0.3,-0.25 q 0.55,-0.5 1.5,-0.5 l 0.9,0.1 0.75,-0.1 2.4,-0.2 1.55,0.2 q 0.65,0.2 1.1,0.75 v 0.05 q 1.45,-0.9 3.1,-1.4 L 19.9,-1 m 24.5,0 9.25,0.45 q 1.65,0.5 3.1,1.4 V 0.8 q 0.45,-0.55 1.1,-0.75 l 1.55,-0.2 2.4,0.2 0.75,0.1 0.9,-0.1 q 0.95,0 1.5,0.5 l 0.3,0.25 v 9.85 l -0.45,0.5 0.45,1.2 V 25.7 l -1.4,1.35 -0.6,0.1 L 63,26.95 63.1,26.2 62.9,20.75 Q 62.65,15.85 60.4,11.05 58.2,6.25 54.15,4.1 50.1,1.95 48.35,1.65 L 44.7,1.05 Q 42.8,0.8 42.85,0 42.9,-0.8 44.4,-1 m 0,59.9 q -1.5,-0.2 -1.55,-1 -0.05,-0.8 1.85,-1.05 l 3.65,-0.6 q 1.75,-0.3 5.8,-2.45 4.05,-2.15 6.25,-6.95 2.25,-4.8 2.5,-9.7 L 63.1,31.7 63,30.95 q 0,-0.15 0.25,-0.2 l 0.6,0.1 q 0.8,0.5 1.4,1.35 v 13.35 l -0.45,1.2 0.45,0.5 v 9.85 l -0.3,0.25 q -0.55,0.5 -1.5,0.5 l -0.9,-0.1 -0.75,0.1 -2.4,0.2 -1.55,-0.2 q -0.65,-0.2 -1.1,-0.75 v -0.05 q -1.45,0.9 -3.1,1.4 L 44.4,58.9 m -24.5,0 -9.25,-0.45 Q 9,57.95 7.55,57.05 v 0.05 q -0.45,0.55 -1.1,0.75 l -1.55,0.2 -2.4,-0.2 -0.75,-0.1 -0.9,0.1 q -0.95,0 -1.5,-0.5 l -0.3,-0.25 v -9.85 l 0.45,-0.5 -0.45,-1.2 V 32.2 q 0.6,-0.85 1.4,-1.35 l 0.6,-0.1 0.25,0.2 -0.1,0.75 0.2,5.45 q 0.25,4.9 2.5,9.7 2.2,4.8 6.25,6.95 4.05,2.15 5.8,2.45 l 3.65,0.6 q 1.9,0.25 1.85,1.05 -0.05,0.8 -1.55,1"
         fill="#999999"
         fill-rule="evenodd"
         stroke="none"
         id="path5" />
    </g>
    <g
       id="shape2"
       transform="translate(-10.65,-8.8)">
      <path
         d="m 18.05,22.8 q -1.05,2.35 -1.3,4 -0.35,2.55 0.45,5.6 0.8,3 2.8,4.85 l 2.95,2.5 q 0.95,0.7 2.95,1.4 3.1,1.1 5.15,1.35 4.05,0.45 8.1,-1.8 3.6,-2 6.35,-5.55 l 1.4,-1.7 Q 47.75,32.6 48.75,32.4 50,32.15 51,33.15 52.05,34.1 51.95,35.3 51.8,36.25 50.8,37.65 46.45,43.5 40.95,46.2 34.6,49.45 28.2,47.95 l -4,-1.3 q -2.4,-0.8 -3.7,-1.6 -2.4,-1.5 -4.95,-5.05 -2.65,-3.75 -3.85,-6.85 -1.5,-4.2 -0.9,-7.8 0.35,-1.85 1.45,-4.15 2.7,-6.4 6.5,-8.9 2.2,-1.4 7,-2.6 l 5.7,-0.9 q 5.35,-0.15 9.7,3.4 4.1,3.4 5.4,8.7 1.15,4.85 -0.75,8.45 -0.9,1.6 -2.65,3.35 -3.05,3.05 -5.95,3.95 l -3.8,0.5 -4.35,-0.45 Q 27.1,36.15 24.8,34.35 22.45,32.5 22,29.3 q -0.5,-3.25 0.2,-5.25 0.65,-1.95 2.15,-3.35 1.5,-1.3 3.5,-1.9 l 3.95,-0.25 q 3.75,0.65 5.85,3.55 1.25,1.85 0.95,3.35 -0.2,1 -0.9,1.6 l -1.5,1 q -0.8,0.3 -1.7,-0.2 -0.9,-0.5 -1.8,-1.95 -0.95,-1.5 -2.15,-1.45 -1.2,0.05 -1.95,0.7 -0.65,0.65 -0.9,1.55 -0.3,0.85 0.1,2.2 0.4,1.35 3.05,2.05 2.6,0.65 4.6,-0.05 1.2,-0.4 2.55,-1.45 1.8,-1.4 2.5,-2.9 1.05,-2.15 0.35,-4.55 -0.6,-2.1 -2.35,-4.05 -2.05,-2.25 -4.2,-3.1 -2.2,-0.85 -6.45,0 -4.25,0.85 -6.15,2.6 -1.95,1.75 -3.65,5.35"
         fill="#000000"
         fill-rule="evenodd"
         stroke="none"
         id="path6" />
    </g>
    <g
       id="shape3"
       transform="translate(1.5,1.5)">
      <path
         d="M 0,23.8 V 0 H 64.1 V 23.8 57.55 H 0 Z"
         fill="none"
         stroke="#000000"
         stroke-linecap="round"
         stroke-linejoin="round"
         stroke-width="3"
         id="path7" />
    </g>
  </defs>
</svg>
