<?xml version="1.0" encoding="UTF-8" standalone="no"?>
<svg
   ffdec:objectType="frame"
   height="60.549999"
   width="67.099998"
   version="1.1"
   id="svg7"
   sodipodi:docname="341.svg"
   xmlns:inkscape="http://www.inkscape.org/namespaces/inkscape"
   xmlns:sodipodi="http://sodipodi.sourceforge.net/DTD/sodipodi-0.dtd"
   xmlns:xlink="http://www.w3.org/1999/xlink"
   xmlns="http://www.w3.org/2000/svg"
   xmlns:svg="http://www.w3.org/2000/svg"
   xmlns:ffdec="https://www.free-decompiler.com/flash">
  <sodipodi:namedview
     id="namedview7"
     pagecolor="#ffffff"
     bordercolor="#000000"
     borderopacity="0.25"
     inkscape:showpageshadow="2"
     inkscape:pageopacity="0.0"
     inkscape:pagecheckerboard="0"
     inkscape:deskcolor="#d1d1d1"
     fit-margin-top="5"
     fit-margin-left="5"
     fit-margin-right="5"
     fit-margin-bottom="5" />
  <g
     transform="translate(1.5,1.5)"
     id="g3">
    <use
       ffdec:characterId="516"
       height="57.549999"
       width="64.099998"
       xlink:href="#shape0"
       id="use1" />
    <use
       ffdec:characterId="842"
       height="46.5"
       transform="translate(5.7,6)"
       width="53.450001"
       xlink:href="#shape1"
       id="use2" />
    <use
       ffdec:characterId="518"
       height="60.549999"
       transform="translate(-1.5,-1.5)"
       width="67.099998"
       xlink:href="#shape2"
       id="use3" />
  </g>
  <defs
     id="defs7">
    <g
       id="shape0">
      <path
         d="M 53.6,0 H 64.1 V 57.55 H 53.6 28.25 0 V 0 H 28.25 53.6 V 57.55 0 M 28.25,0 V 57.55 0"
         fill="#ffffff"
         fill-rule="evenodd"
         stroke="none"
         id="path3" />
    </g>
    <g
       id="shape1"
       transform="translate(-5.7,-6)">
      <path
         d="M 16.6,49.6 Q 12.05,47.65 10.05,45.4 6.5,41.55 6.5,33.9 6.5,27.25 9.15,21.35 L 8.9,20.55 v -0.1 L 8.3,19.1 7.8,17.1 7.5,16.5 6.45,12.65 Q 5.75,10.3 5.7,8.55 5.7,7.65 5.95,7.1 6.45,6.15 7.4,6 l 1.5,0.1 q 3.05,0.8 8,3.6 l 1.55,0.8 q 5.8,-3.7 13.65,-3.85 5.25,-0.1 9.35,1.75 1.95,0.85 4,2.4 Q 46.9,9.9 49.8,8.95 L 54.3,7.3 Q 56,6.5 56.45,6.4 57.9,6.15 58.6,6.95 q 0.75,0.8 0.5,2.25 l -0.25,0.95 -4.45,11.15 0.3,0.75 q 0.8,1.85 1.25,5.05 0.75,5.95 -0.85,11.3 -1.8,5.8 -6,9.25 -6.45,5.25 -19.5,4.8 L 23,51.7 q -2.75,-0.55 -6.4,-2.1"
         fill="#767676"
         fill-rule="evenodd"
         stroke="none"
         id="path4" />
      <path
         d="m 49.35,21.75 q 0,2 -0.9,3.15 l -0.75,0.75 -0.35,-0.1 -3.05,-0.3 -2.35,0.1 -4.3,0.55 Q 36.3,24.4 36.5,21.5 l 0.2,-1.3 q 0.15,-0.7 0.65,-1.45 1.45,-2 3.75,-2.6 l 0.65,-0.1 0.15,0.25 q 1.45,2.65 4.3,4 l 1.65,0.6 1.5,0.5 v 0.35 M 22.3,48.6 Q 20.4,48.65 18.65,47.3 17,46.05 16.2,44.15 q -0.6,-1.55 -0.6,-2.8 0,-1.35 0.45,-2.55 1.5,-4.6 6.1,-7.4 3.55,-2.15 8.2,-2.75 v -0.1 q 0.1,-1.3 0.75,-2.35 l 0.55,-0.5 q 0.65,-0.25 1.1,0.5 l 0.35,1.2 0.2,0.95 3.1,0.25 q 2.75,0.6 4.4,2.3 2,2.25 1.55,5 -0.25,1.35 -1.2,2.4 -0.95,1.05 -2.25,1.4 l -1.7,0.15 -1.7,0.1 q -2.35,0.4 -4.65,2.6 L 29,44.5 27.1,46.4 q -2.4,2.15 -4.8,2.2 m -4.4,-29.15 -2.7,0.5 -0.6,0.15 -0.55,-0.3 q -0.2,-0.3 0.1,-0.8 0.7,-1.05 2.45,-1.8 2.75,-1.05 4.9,-0.6 0.9,0.2 2.7,1.15 1.7,0.9 2.7,1.1 h 0.4 q 0.35,-0.2 0.15,-0.95 -0.25,-1.35 0.7,-2.25 1.05,-0.95 2.25,-0.25 0.7,0.35 1.05,1.25 0.75,1.65 0.1,3.55 -0.6,1.75 -2.35,2.75 l -1.5,0.45 h -0.2 l -0.1,0.9 -0.25,0.9 -0.95,1.2 q -1.7,1.5 -4.7,1.85 L 19,28.4 16,28.2 q -1.65,-0.45 -2.3,-1.75 -0.4,-0.85 -0.3,-2.1 0.1,-1.2 0.35,-1.75 0.5,-1.1 2,-2.05 l 2.3,-1.1 H 17.9 m 1.5,20.8 -0.1,0.95 0.15,0.7 0.8,1.9 q 0.55,0.95 1.6,1.25 1.1,0.2 2.3,-0.55 l 0.3,-0.15 -0.85,-0.5 q -1.75,-1.15 -2.15,-1.6 l -1.8,-2.3 -0.1,-0.15 -0.15,0.45 M 30.65,38.3 q 1.75,-1.25 3.4,-1.7 L 34,35.9 33.8,34.3 q -0.1,-0.9 0.1,-2.8 -3.65,-0.15 -7,1.2 l 0.3,1.45 0.2,0.55 0.4,0.65 1.15,2.3 0.85,1.4 0.85,-0.75 m 5.8,-2 1.3,0.05 q 0.8,-0.1 1.2,-0.55 l 0.25,-1.1 q -0.15,-1.55 -1.75,-2.5 l -1.85,-0.55 0.7,4.35 0.05,0.3 h 0.1 m -15.55,0.8 -0.2,0.35 v 0.15 q 0.15,0.6 1,1.9 l 1.45,1.8 2.45,2 0.6,-0.7 1.65,-1.7 L 25.6,36.55 25.3,35.7 25.2,35.05 25.1,33.5 q -2.65,1.45 -4.2,3.6"
         fill="#000000"
         fill-rule="evenodd"
         stroke="none"
         id="path5" />
      <path
         d="m 47.9,39 q 0.4,0.2 0.4,0.9 0.15,2.4 -1.75,4.55 l -1.4,1.2 -1.8,0.15 q -0.9,-0.35 -1.15,-1.3 -0.15,-0.95 0.45,-1.65 L 44,42.05 q 1.85,-0.85 2.5,-2 L 47,39.2 Q 47.55,38.8 47.9,39 M 34.35,15.1 Q 34.2,14.75 34.2,13.9 l 0.05,-1.3 -0.1,-0.95 -0.3,-1 q -0.1,-0.6 0.35,-0.9 0.45,-0.25 1.1,0.4 1.6,1.45 2,3.7 0.2,1.05 -0.2,1.65 -0.55,0.8 -1.5,0.65 Q 34.65,16 34.35,15.1 m -23.3,12.4 0.3,-0.8 q 0.1,-0.45 0.35,-0.65 0.5,-0.25 0.65,0.15 l -0.1,1.2 0.05,0.55 0.1,0.45 0.5,3.7 0.15,0.45 0.2,1.9 L 13.4,35 13.15,36.1 12.3,36.75 11.2,36.7 Q 10.65,36.5 10.4,36 10.2,35.6 10.2,34.4 l 0.4,-4.7 0.45,-2.2 m 9.85,9.6 q 1.55,-2.15 4.2,-3.6 l 0.1,1.55 0.1,0.65 0.3,0.85 2.25,4.35 -1.65,1.7 -0.6,0.7 -2.45,-2 -1.45,-1.8 q -0.85,-1.3 -1,-1.9 v -0.15 l 0.2,-0.35 m 15.55,-0.8 h -0.1 L 36.3,36 35.6,31.65 37.45,32.2 q 1.6,0.95 1.75,2.5 l -0.25,1.1 q -0.4,0.45 -1.2,0.55 l -1.3,-0.05 m -5.8,2 -0.85,0.75 -0.85,-1.4 -1.15,-2.3 -0.4,-0.65 -0.2,-0.55 -0.3,-1.45 q 3.35,-1.35 7,-1.2 -0.2,1.9 -0.1,2.8 l 0.2,1.6 0.05,0.7 q -1.65,0.45 -3.4,1.7 m -11.25,1.95 0.15,-0.45 0.1,0.15 1.8,2.3 q 0.4,0.45 2.15,1.6 l 0.85,0.5 -0.3,0.15 q -1.2,0.75 -2.3,0.55 -1.05,-0.3 -1.6,-1.25 l -0.8,-1.9 -0.15,-0.7 0.1,-0.95"
         fill="#ffffff"
         fill-rule="evenodd"
         stroke="none"
         id="path6" />
    </g>
    <g
       id="shape2"
       transform="translate(1.5,1.5)">
      <path
         d="M 0,23.8 V 0 H 64.1 V 23.8 57.55 H 0 Z"
         fill="none"
         stroke="#000000"
         stroke-linecap="round"
         stroke-linejoin="round"
         stroke-width="3"
         id="path7" />
    </g>
  </defs>
</svg>
