<?xml version="1.0" encoding="UTF-8" standalone="no"?>
<svg
   ffdec:objectType="frame"
   height="60.549999"
   width="67.099998"
   version="1.1"
   id="svg8"
   sodipodi:docname="835.svg"
   xmlns:inkscape="http://www.inkscape.org/namespaces/inkscape"
   xmlns:sodipodi="http://sodipodi.sourceforge.net/DTD/sodipodi-0.dtd"
   xmlns:xlink="http://www.w3.org/1999/xlink"
   xmlns="http://www.w3.org/2000/svg"
   xmlns:svg="http://www.w3.org/2000/svg"
   xmlns:ffdec="https://www.free-decompiler.com/flash">
  <sodipodi:namedview
     id="namedview8"
     pagecolor="#ffffff"
     bordercolor="#000000"
     borderopacity="0.25"
     inkscape:showpageshadow="2"
     inkscape:pageopacity="0.0"
     inkscape:pagecheckerboard="0"
     inkscape:deskcolor="#d1d1d1"
     fit-margin-top="5"
     fit-margin-left="5"
     fit-margin-right="5"
     fit-margin-bottom="5" />
  <g
     transform="translate(1.5,1.5)"
     id="g4">
    <use
       ffdec:characterId="516"
       height="57.549999"
       width="64.099998"
       xlink:href="#shape0"
       id="use1" />
    <use
       ffdec:characterId="1321"
       height="60.400002"
       transform="translate(-0.95,-1.25)"
       width="66.199997"
       xlink:href="#shape1"
       id="use2" />
    <use
       ffdec:characterId="1324"
       height="49.75"
       transform="translate(7.95,3.75)"
       width="48.5"
       xlink:href="#shape2"
       id="use3" />
    <use
       ffdec:characterId="518"
       height="60.549999"
       transform="translate(-1.5,-1.5)"
       width="67.099998"
       xlink:href="#shape3"
       id="use4" />
  </g>
  <defs
     id="defs8">
    <g
       id="shape0">
      <path
         d="M 53.6,0 H 64.1 V 57.55 H 53.6 28.25 0 V 0 H 28.25 53.6 V 57.55 0 M 28.25,0 V 57.55 0"
         fill="#ffffff"
         fill-rule="evenodd"
         stroke="none"
         id="path4" />
    </g>
    <g
       id="shape1"
       transform="translate(0.95,1.25)">
      <path
         d="m 19.9,-1 q 1.5,0.2 1.55,1 0.05,0.8 -1.85,1.05 l -3.65,0.6 Q 14.2,1.95 10.15,4.1 6.1,6.25 3.9,11.05 q -2.25,4.8 -2.5,9.7 l -0.2,5.45 0.1,0.75 -0.25,0.2 -0.6,-0.1 q -0.8,-0.5 -1.4,-1.35 V 12.35 l 0.45,-1.2 -0.45,-0.5 V 0.8 l 0.3,-0.25 q 0.55,-0.5 1.5,-0.5 l 0.9,0.1 0.75,-0.1 2.4,-0.2 1.55,0.2 q 0.65,0.2 1.1,0.75 v 0.05 q 1.45,-0.9 3.1,-1.4 L 19.9,-1 m 24.5,0 9.25,0.45 q 1.65,0.5 3.1,1.4 V 0.8 q 0.45,-0.55 1.1,-0.75 l 1.55,-0.2 2.4,0.2 0.75,0.1 0.9,-0.1 q 0.95,0 1.5,0.5 l 0.3,0.25 v 9.85 l -0.45,0.5 0.45,1.2 V 25.7 l -1.4,1.35 -0.6,0.1 L 63,26.95 63.1,26.2 62.9,20.75 Q 62.65,15.85 60.4,11.05 58.2,6.25 54.15,4.1 50.1,1.95 48.35,1.65 L 44.7,1.05 Q 42.8,0.8 42.85,0 42.9,-0.8 44.4,-1 m 0,59.9 q -1.5,-0.2 -1.55,-1 -0.05,-0.8 1.85,-1.05 l 3.65,-0.6 q 1.75,-0.3 5.8,-2.45 4.05,-2.15 6.25,-6.95 2.25,-4.8 2.5,-9.7 L 63.1,31.7 63,30.95 q 0,-0.15 0.25,-0.2 l 0.6,0.1 q 0.8,0.5 1.4,1.35 v 13.35 l -0.45,1.2 0.45,0.5 v 9.85 l -0.3,0.25 q -0.55,0.5 -1.5,0.5 l -0.9,-0.1 -0.75,0.1 -2.4,0.2 -1.55,-0.2 q -0.65,-0.2 -1.1,-0.75 v -0.05 q -1.45,0.9 -3.1,1.4 L 44.4,58.9 m -24.5,0 -9.25,-0.45 Q 9,57.95 7.55,57.05 v 0.05 q -0.45,0.55 -1.1,0.75 l -1.55,0.2 -2.4,-0.2 -0.75,-0.1 -0.9,0.1 q -0.95,0 -1.5,-0.5 l -0.3,-0.25 v -9.85 l 0.45,-0.5 -0.45,-1.2 V 32.2 q 0.6,-0.85 1.4,-1.35 l 0.6,-0.1 0.25,0.2 -0.1,0.75 0.2,5.45 q 0.25,4.9 2.5,9.7 2.2,4.8 6.25,6.95 4.05,2.15 5.8,2.45 l 3.65,0.6 q 1.9,0.25 1.85,1.05 -0.05,0.8 -1.55,1"
         fill="#999999"
         fill-rule="evenodd"
         stroke="none"
         id="path5" />
    </g>
    <g
       id="shape2"
       transform="translate(-7.95,-3.75)">
      <path
         d="m 52.6,16.25 q 1.05,2.2 2.45,6.85 l 1.05,4.15 q 0.9,4.85 -0.4,10.7 -1.35,5.85 -4.35,8.85 -1.95,1.85 -5.4,3.4 L 40,52.45 q -7.2,2.05 -16.75,0.05 -2.2,-0.4 -3.6,-1 -3.9,-1.5 -7,-5.65 Q 8.5,40.25 8,33.2 7.65,28.35 9.35,21.45 q 1,-4 2.25,-6.1 1.85,-3.3 6.85,-6.8 Q 22.4,5.8 25.3,4.8 29.95,3.2 37.75,4.05 l 3.4,0.75 q 1.65,0.6 3.95,2.45 5.05,4.05 7.5,9 M 38.95,29.8 q 2.65,0.2 5.1,1.7 2.45,1.5 3.85,4 l 1.35,3.4 q 0.55,2 0.6,3.6 l 1.1,-2.2 q 0.75,-1.8 1.3,-4.7 l 0.45,-3.25 q 0.1,-2.2 -0.55,-5 l -1.4,-4.9 -2.1,-5.05 Q 47.1,14.75 43.65,11.55 41.8,9.7 40.45,9.25 L 39.75,9.05 39.1,8.75 Q 37.3,8.15 34.8,8.05 31,7.9 28.65,9.25 q -1.55,0.85 -3.4,2.95 -1.3,1.45 -1.8,2.5 -0.75,1.35 -0.9,3.5 -0.5,5.15 1.9,8.85 1.35,1.95 3.4,3.1 2.1,1.15 4.35,1.05 l 3.05,-0.6 3.7,-0.8 m 0.3,-9.9 -0.4,0.75 -0.55,0.75 q -0.8,0.9 -2.05,1 -1.1,0.15 -2.35,-0.45 l -0.65,-0.4 Q 32.55,20.9 32.2,19.8 l -0.2,-1 q 0,-1.25 0.75,-2.15 0.7,-0.95 1.9,-1.25 l 1.1,-0.1 1.1,0.15 0.9,0.35 0.85,0.55 q 0.5,0.5 0.65,1.3 l 0.15,1.45 -0.15,0.8 m -0.6,21.85 Q 38.7,40.05 37,38.85 l -0.6,-0.3 -0.6,-0.2 q -1.45,-0.3 -2.7,0.4 -1.3,0.65 -1.6,2.05 l -0.1,0.45 q -0.1,1.05 0.05,1.55 0.25,0.85 0.95,1.5 l 0.4,0.35 q 1.05,0.9 2.65,0.6 1.4,-0.15 2.4,-1.3 l 0.45,-0.7 0.35,-1.5"
         fill="#000000"
         fill-rule="evenodd"
         stroke="none"
         id="path6" />
      <path
         d="m 39.75,9.05 q 1.85,0.8 2.9,2.25 0.6,0.9 0.6,1.7 l -0.35,0.85 q -0.4,0.35 -0.85,0.35 -0.55,0 -1.25,-0.7 -2.7,-2.1 -7.4,-1.45 l -2.55,0.7 q -1.2,0.65 -2.15,2.05 -1.65,2.35 -1.5,5.2 0.05,2.9 1.95,5.1 1.2,1.4 2.5,1.45 l 1.9,-0.3 q 2.7,-0.75 5.55,-0.7 2.45,0.1 3.65,1.05 0.5,0.45 0.65,1.05 0.25,0.65 -0.05,1.15 -0.3,0.5 -1.05,0.65 l -1.35,0.15 -2,0.2 -3.7,0.8 -3.05,0.6 q -2.25,0.1 -4.35,-1.05 -2.05,-1.15 -3.4,-3.1 -2.4,-3.7 -1.9,-8.85 0.15,-2.15 0.9,-3.5 0.5,-1.05 1.8,-2.5 1.85,-2.1 3.4,-2.95 2.35,-1.35 6.15,-1.2 2.5,0.1 4.3,0.7 l 0.65,0.3 m -1.1,32.7 -0.35,1.5 -0.45,0.7 q -1,1.15 -2.4,1.3 -1.6,0.3 -2.65,-0.6 L 32.4,44.3 Q 31.7,43.65 31.45,42.8 31.3,42.3 31.4,41.25 l 0.1,-0.45 q 0.3,-1.4 1.6,-2.05 1.25,-0.7 2.7,-0.4 l 0.6,0.2 0.6,0.3 q 1.7,1.2 1.65,2.9"
         fill="#ffffff"
         fill-rule="evenodd"
         stroke="none"
         id="path7" />
    </g>
    <g
       id="shape3"
       transform="translate(1.5,1.5)">
      <path
         d="M 0,23.8 V 0 H 64.1 V 23.8 57.55 H 0 Z"
         fill="none"
         stroke="#000000"
         stroke-linecap="round"
         stroke-linejoin="round"
         stroke-width="3"
         id="path8" />
    </g>
  </defs>
</svg>
