<?xml version="1.0" encoding="UTF-8" standalone="no"?>
<svg
   ffdec:objectType="frame"
   height="44.349998"
   width="78.599998"
   version="1.1"
   id="svg12"
   sodipodi:docname="220.svg"
   xmlns:inkscape="http://www.inkscape.org/namespaces/inkscape"
   xmlns:sodipodi="http://sodipodi.sourceforge.net/DTD/sodipodi-0.dtd"
   xmlns:xlink="http://www.w3.org/1999/xlink"
   xmlns="http://www.w3.org/2000/svg"
   xmlns:svg="http://www.w3.org/2000/svg"
   xmlns:ffdec="https://www.free-decompiler.com/flash">
  <sodipodi:namedview
     id="namedview12"
     pagecolor="#ffffff"
     bordercolor="#000000"
     borderopacity="0.25"
     inkscape:showpageshadow="2"
     inkscape:pageopacity="0.0"
     inkscape:pagecheckerboard="0"
     inkscape:deskcolor="#d1d1d1"
     fit-margin-top="5"
     fit-margin-left="5"
     fit-margin-right="5"
     fit-margin-bottom="5" />
  <g
     transform="translate(2,2.05)"
     id="g3">
    <use
       ffdec:characterId="1"
       height="42.700001"
       transform="translate(-1.75,-2)"
       width="76.449997"
       xlink:href="#shape0"
       id="use1" />
    <use
       ffdec:characterId="216"
       height="40.599998"
       transform="translate(-1.8,0.8)"
       width="77.300003"
       xlink:href="#shape1"
       id="use2" />
    <use
       ffdec:characterId="3"
       height="44.349998"
       transform="translate(-2,-2.05)"
       width="78.599998"
       xlink:href="#shape2"
       id="use3" />
  </g>
  <defs
     id="defs12">
    <g
       id="shape0"
       transform="translate(1.75,2)">
      <path
         d="M 2.8,0 V -0.4 H 5.4 V 0 H 9.7 V 19.45 0 H 20.55 L 19.3,19.45 H 9.7 0.25 V 0 H 2.8"
         fill="#ffffff"
         fill-rule="evenodd"
         stroke="none"
         id="path3" />
      <path
         d="M 0.25,19.45 H 9.7 19.3 L 18.7,28.6 16,28.5 10.95,27.95 9.7,27.8 Q 7.45,27.6 5.85,27.75 4.05,27.9 1.5,28.6 0.75,28.8 0.25,29.15 v -9.7 m 9.45,0 v 8.35 -8.35"
         fill="#121212"
         fill-rule="evenodd"
         stroke="none"
         id="path4" />
      <path
         d="m 9.7,27.8 1.25,0.15 5.05,0.55 2.7,0.1 h 1.05 l 3.75,0.15 q 2.45,0.3 3.6,1.25 0.6,0.5 0.6,1.1 0,0.65 -0.8,1 l -1.3,0.2 -7.15,0.15 -5.6,-0.3 L 9.7,31.75 7.95,31.6 3.1,31.95 0.95,32.3 0.25,32.1 -0.35,31.55 -0.5,31.3 V 29.9 L 0.25,29.15 Q 0.75,28.8 1.5,28.6 4.05,27.9 5.85,27.75 7.45,27.6 9.7,27.8 v 3.95 -3.95"
         fill="#999999"
         fill-rule="evenodd"
         stroke="none"
         id="path5" />
      <path
         d="M 2.8,0 H 0.25 M 9.7,0 H 5.4 m 16.15,0 h 10.7 M 20.55,0 H 9.7"
         fill="none"
         stroke="#666666"
         stroke-linecap="round"
         stroke-linejoin="round"
         stroke-width="4"
         id="path6" />
      <path
         d="m 9.7,-0.4 h 65 V 40.5 H 47.05 L 45.5,40.7 27,40.65 25.95,40.5 H 9.7 -0.5 V -0.4 H 9.7 V 40.5 -0.4"
         fill="#ffffff"
         fill-rule="evenodd"
         stroke="none"
         id="path7" />
    </g>
    <g
       id="shape1"
       transform="translate(1.8,-0.8)">
      <path
         d="m 65.4,16.25 q 0.05,2.2 -0.85,3.8 -0.75,1.4 -2.1,2.3 l 0.05,0.9 0.1,0.55 0.45,0.25 0.05,0.05 1.7,-2.5 1.85,-2 0.5,-0.1 0.2,0.4 -0.25,0.45 q -1.6,2.25 -2.8,4.75 l 0.25,0.6 0.2,0.8 q 1.25,-1.6 2.8,-2.95 l 1.65,-1.3 q 1.15,-0.7 2,-0.7 l 0.4,0.25 -0.25,0.45 -1.65,1 q -0.7,0.5 -1.6,1.55 -1.35,1.6 -2.35,3.4 l 0.05,-0.05 0.45,-0.55 1.15,-1.05 q 1.5,-1.4 2.55,-1.65 l 0.35,0.05 0.1,0.15 v 0.15 q -0.25,0 -0.6,0.3 -1.15,1 -2.15,2.1 -1.3,1.4 -1.9,2.6 l -0.25,0.55 -0.3,0.35 -0.3,0.55 1.2,-1.1 q 1.1,-0.8 2.75,-1.6 l 0.9,-0.45 1.8,-0.55 0.4,0.05 -0.3,0.35 -2.15,1.45 -2.15,1.8 -0.65,0.7 1.15,0.4 0.55,0.3 h 0.15 L 69.3,33 h 0.15 l 0.1,-0.85 Q 69.5,31.5 69.6,31.2 q 0.2,-0.7 0.7,-0.55 0.25,0 0.4,0.35 l 0.2,0.7 0.45,-0.85 Q 71.9,30 72.4,29.45 l 0.35,-0.25 0.35,0.1 -0.1,0.5 q -0.85,1.5 -1.35,3.15 H 71.8 L 72.65,33 H 73 l 0.15,-0.05 h 0.25 0.1 0.25 l 0.2,0.05 0.1,0.05 h 0.2 l 0.1,0.05 0.2,0.05 0.2,0.05 0.1,0.1 0.1,0.05 0.1,0.1 0.1,0.05 0.05,0.1 0.05,0.05 0.05,0.1 0.05,0.1 0.05,0.05 0.05,0.1 v 0.05 l 0.05,0.1 v 0.05 0.1 0.05 0.1 0.1 0.05 0.1 0.05 l -0.05,0.1 v 0.05 l -0.05,0.1 -0.05,0.05 -0.05,0.1 -0.05,0.05 -0.05,0.1 -0.05,0.1 0.05,0.1 v 0.05 0.1 0.05 0.1 0.05 0.1 l -0.05,0.1 v 0.05 0.1 l -0.05,0.05 v 0.1 l -0.05,0.05 -0.05,0.1 -0.05,0.05 -0.05,0.1 -0.05,0.1 -0.05,0.05 v 0.1 0.1 0.05 0.1 0.05 0.1 0.05 0.1 0.1 l 0.05,0.05 v 0.1 0.05 l -0.05,0.1 v 0.05 l 0.05,0.1 v 0.05 0.1 0.1 0.05 0.1 0.05 0.1 0.05 l -0.05,0.1 v 0.05 l -0.05,0.1 v 0.05 l -0.05,0.1 -0.05,0.1 -0.05,0.05 -0.05,0.1 -0.05,0.05 -0.05,0.1 -0.1,0.05 -0.1,0.1 -0.1,0.05 -0.1,0.1 -0.2,0.1 -0.1,0.05 h -0.1 l -0.1,0.05 H 73.4 l -0.25,0.05 h -0.2 L 72.85,40 h -0.1 l -0.1,0.05 H 72.5 l -0.3,0.05 h -0.4 l -6.35,0.05 H 61 57.3 51.8 l -5.6,0.05 h -2.9 l -2.9,0.05 H 29.9 L 9.6,40.3 H 7.8 L 6.85,40.25 H 6.3 L 5.9,40.2 H 4.75 L 4.45,40.15 H 4.25 L 2.8,40.1 H 2.5 2.2 2.1 L 1.8,40.05 H 1.6 L 1.4,40 1.15,39.9 1,39.85 0.9,39.75 0.8,39.65 0.7,39.6 0.6,39.5 0.55,39.45 0.5,39.35 0.4,39.3 0.35,39.2 0.3,39.15 v -0.1 L 0.25,39 0.2,38.9 V 38.8 L 0.15,38.75 v -0.1 -0.05 -0.1 -0.05 -0.1 L 0.1,38.3 0.15,38.2 V 38.1 38.05 37.95 37.9 L 0.2,37.8 v -0.05 l 0.05,-0.1 V 37.6 L 0.3,37.5 0.35,37.4 0.4,37.35 0.45,37.25 0.55,37.2 0.6,37.1 0.65,37.05 0.7,37 H 0.65 L 0.55,36.9 0.45,36.85 0.35,36.75 0.3,36.65 0.25,36.6 0.2,36.5 0.15,36.45 0.1,36.35 0.05,36.3 V 36.2 L 0,36.15 v -0.1 -0.1 -0.05 -0.1 L -0.05,35.75 0,35.65 V 35.6 35.5 35.45 35.35 L 0.05,35.3 V 35.2 L 0.1,35.1 V 35.05 L 0.15,35 0.1,34.95 0.05,34.9 0,34.8 -0.05,34.75 V 34.65 34.6 34.5 L -0.1,34.4 -0.05,34.35 V 34.25 34.2 L 0,34.1 0.05,34.05 0.1,33.95 0.15,33.9 0.3,33.8 0.4,33.7 0.55,33.65 h 0.1 L 0.8,33.6 h 0.3 l 0.2,-0.5 0.95,-2.1 0.6,-0.8 0.3,-0.1 0.1,0.55 -0.55,1.7 -0.25,0.95 v 0.3 H 6.3 l 0.8,0.05 h 0.25 q -0.5,-1.4 -1.5,-2.4 L 4.45,29.85 4,29.15 3.45,28.15 2.8,27.35 2.5,26.45 V 26.1 l 0.4,-0.1 0.35,0.2 2.1,2.2 1.25,1.15 1.15,1.2 q 0.7,0.9 1.05,1.95 L 9.05,33.4 9,32.6 Q 9,31.4 8.3,29.2 L 7.05,26.05 5.95,24.45 5.35,23.7 4.95,23 4.65,22.45 q 0.1,-0.3 0.45,-0.2 l 0.45,0.35 1.25,1.3 1.7,2.2 0.35,0.55 1.25,2.75 0.85,2.8 0.05,1.55 h 6.5 l 1.45,-0.05 h 1.4 l 1.5,-0.05 h 8.2 3.35 l -0.05,-0.1 -0.25,-1.35 -0.4,-1.4 0.1,-0.95 0.15,-1 L 33,28.4 q 0.1,-0.3 0.35,-0.3 0.25,-0.1 0.35,0.25 l 0.05,0.55 0.5,2.1 0.55,2.1 v 0.5 H 34.95 35 L 35.05,32.85 35,32 l 0.1,-1.6 0.65,-4.55 0.2,-0.75 0.65,-1.7 0.3,-0.6 0.4,-0.25 0.25,0.35 -0.05,0.5 -0.3,1.5 -0.1,0.85 -0.2,3.8 0.05,2.2 2.55,-4.85 q 0.45,-0.75 1.65,-2.05 L 41.7,24.5 q 0.45,0 0.45,0.4 l -0.35,0.65 -0.45,0.75 -0.6,0.75 -0.5,0.85 -1.75,4.4 -0.2,0.75 -0.05,0.3 0.95,-0.25 0.7,-0.95 q 0.85,-1.15 1.6,-1.8 l 0.35,-0.3 q 0.3,-0.1 0.4,0.15 l -0.15,0.55 q -0.85,1 -1.4,2.3 l 1.1,0.1 0.55,-0.4 q 0.8,-0.4 1.6,-0.5 L 43.9,31.85 44,30.6 44.5,29.8 44.85,29.4 44.6,29 44,28.4 43.85,28.25 43.7,28.1 l -0.2,-0.2 -0.65,-0.45 -0.3,-0.2 -0.1,-0.3 v -0.1 l 0.2,-0.05 1,0.3 h 0.2 l 0.45,0.2 1.45,1.3 0.85,-0.5 -0.1,-0.1 -1.3,-1 -1.1,-1.2 h 0.25 l 1,0.45 2.4,1.3 1.5,-0.55 -0.4,-0.6 Q 46.9,23.55 46.3,22.05 l -0.1,-0.35 0.2,-0.2 0.3,0.3 0.35,0.35 0.4,0.3 1.15,1.1 2.15,2.6 0.05,-0.05 0.5,-0.6 -1.2,-2.95 -0.95,-2.15 q -0.15,-0.45 0,-0.65 l 1.75,2.1 1.2,2 0.4,0.8 0.25,-0.3 0.15,-0.55 0.15,-0.65 0.35,-0.75 -0.9,-0.65 Q 51.55,20.9 51,19.7 q -0.5,-1.2 -0.35,-2.45 0.05,-0.7 0.45,-1.75 0.35,-0.95 0.65,-1.35 l 0.3,-0.4 L 51.7,13.1 51.6,12.25 51.7,11.1 52.3,9.8 52.55,9.15 52.9,8.45 Q 53.15,8.05 53.65,8 54.1,7.95 54.5,8.25 l 0.55,0.65 0.6,1.15 0.5,0.65 4.3,-0.1 0.2,-0.25 1.55,-1.65 0.85,-0.9 q 0.3,-0.15 0.6,0 0.35,0.1 0.5,0.4 0.2,0.2 0.2,0.75 l 0.35,1.1 0.25,1.15 0.05,0.8 0.1,1.45 0.1,0.65 v 0.15 l 0.2,2 m -3.55,0.85 1.05,0.1 q 0.55,-0.15 0.95,-0.55 0.85,-0.95 0.25,-2.05 l -0.8,-0.75 -1.05,-0.2 q -1.35,0.25 -1.5,1.5 -0.1,0.6 0.2,1.15 0.3,0.6 0.9,0.8 M 35.25,6.4 q 1.65,-1.45 3.95,-2 l 4.5,-0.1 q 1.3,0.3 2,0.75 l 1.5,1.35 q 1.7,2.2 2.5,4.55 0.55,1.3 0.4,2.4 l -0.35,0.55 q -0.4,0.15 -0.7,-0.5 -0.8,-2.05 -1.4,-2.95 L 45.65,8.4 44.4,7.6 43,7.2 q -2.55,-0.3 -4.3,0.65 0.65,0.1 0.75,0.9 0.1,0.6 -0.45,1.05 L 38.05,10.5 36.4,11.7 35.9,12.15 35,12.2 34.3,11.55 34.1,11.05 33.45,9.8 32.85,7.9 33,7.2 33.55,6.8 q 0.4,-0.2 0.95,0 l 0.35,0.1 0.4,-0.5 M 52,16.2 q 0.15,1.15 1.25,1.55 1.15,0.35 1.9,-0.45 0.85,-0.85 0.5,-1.9 -0.4,-1.15 -1.6,-1.25 -1.2,-0.15 -1.8,0.95 -0.3,0.55 -0.25,1.1 m 5.45,1.55 -0.2,-0.1 V 17.4 L 57.05,17.05 56.65,17 q -0.45,0.15 -0.45,0.65 -0.1,0.8 0.65,1.15 0.7,0.35 1.3,-0.2 l 0.15,-0.1 0.2,0.2 0.5,0.2 h 0.7 l 0.75,-0.6 0.3,-0.65 -0.25,-0.65 -0.65,0.05 -0.2,0.5 Q 59.5,18 59,17.75 L 58.4,17.3 q -0.2,0 -0.45,0.2 l -0.5,0.25 m -9.3,12.15 -0.55,0.35 0.5,0.45 h 0.35 l 0.65,0.15 -0.8,-1 -0.15,0.05"
         fill="#767676"
         fill-rule="evenodd"
         stroke="none"
         id="path8" />
      <path
         d="m 61.85,17.1 q -0.6,-0.2 -0.9,-0.8 -0.3,-0.55 -0.2,-1.15 0.15,-1.25 1.5,-1.5 l 1.05,0.2 0.8,0.75 q 0.6,1.1 -0.25,2.05 -0.4,0.4 -0.95,0.55 l -1.05,-0.1 m -4.4,0.65 0.5,-0.25 q 0.25,-0.2 0.45,-0.2 l 0.6,0.45 q 0.5,0.25 0.65,-0.2 l 0.2,-0.5 0.65,-0.05 0.25,0.65 -0.3,0.65 -0.75,0.6 H 59 l -0.5,-0.2 -0.2,-0.2 -0.15,0.1 q -0.6,0.55 -1.3,0.2 -0.75,-0.35 -0.65,-1.15 0,-0.5 0.45,-0.65 l 0.4,0.05 0.2,0.35 v 0.25 l 0.2,0.1 M 52,16.2 q -0.05,-0.55 0.25,-1.1 0.6,-1.1 1.8,-0.95 1.2,0.1 1.6,1.25 0.35,1.05 -0.5,1.9 -0.75,0.8 -1.9,0.45 Q 52.15,17.35 52,16.2 M 17.7,12.25 q 0.5,0.5 0.55,1.2 0.1,0.75 -0.3,1.3 -0.6,0.95 -1.85,0.85 -1.15,-0.15 -1.65,-1.25 -0.4,-1.05 0.35,-2 0.6,-0.7 1.45,-0.7 0.95,0 1.45,0.6"
         fill="#ffffff"
         fill-rule="evenodd"
         stroke="none"
         id="path9" />
      <path
         d="m 32.75,13.35 q 0.05,3.25 -1.25,5.6 -1.15,2.1 -3.2,3.4 l 0.1,1.35 q 0,0.6 0.15,0.75 l 0.65,0.4 0.1,0.05 2.55,-3.65 Q 33.5,19 34.65,18.3 35,17.95 35.4,18.15 l 0.25,0.6 -0.3,0.65 q -2.4,3.3 -4.25,7.05 l 0.4,0.8 0.3,1.2 q 1.85,-2.35 4.2,-4.35 1.3,-1.15 2.5,-1.9 1.75,-1.05 2.95,-1 l 0.65,0.35 -0.35,0.65 -2.5,1.45 -2.4,2.3 q -2.1,2.35 -3.55,5 l 0.1,-0.05 0.65,-0.8 1.75,-1.55 Q 38,26.5 39.55,26.1 l 0.6,0.05 0.15,0.25 v 0.2 q -0.4,0 -0.95,0.45 l -3.2,3.1 q -2,2.05 -2.85,3.85 l -0.35,0.8 -0.5,0.45 -0.4,0.85 1.8,-1.6 q 1.6,-1.2 4.1,-2.4 l 1.35,-0.65 2.7,-0.8 q 0.45,-0.2 0.6,0.1 0.15,0.25 -0.4,0.55 -1.25,0.55 -3.25,2.1 l -3.25,2.65 -2.05,2.25 -0.5,0.65 0.3,0.15 0.45,0.4 1.95,-1.55 q 0.3,-0.2 1.75,-0.85 1.75,-1 2.1,-1.1 l 1.55,-0.45 0.5,-0.2 0.55,0.05 q 0.35,0.2 0.05,0.45 L 42.2,36 l -1.65,0.95 -3.2,2.35 -0.45,0.5 q 1.15,-0.15 1.7,0 l 1.65,0.55 0.95,0.7 0.25,0.35 H 24.5 l -0.05,-0.1 h -0.2 v 0.1 H 1.55 L 1.5,40.95 Q 1.6,40 2.25,39.6 L 3.4,39.2 3.55,39.15 Q 2.7,39 1.75,38.5 l -1,-0.75 Q 0.4,37.25 0.4,36.3 0.4,34.95 0.6,34.5 L 1.3,33.3 1.85,32.7 1.45,32.15 0.6,31.3 0.3,31 0.15,30.85 l -0.35,-0.3 -1,-0.7 -0.45,-0.3 -0.15,-0.45 0.05,-0.15 0.3,-0.05 q 0.55,0.05 1.5,0.5 H 0.3 L 1,29.65 3.2,31.55 4.45,30.8 4.35,30.7 2.4,29.2 q -1.2,-0.9 -1.7,-1.8 0.05,-0.15 0.4,0 l 1.5,0.7 q 2.15,1 3.55,1.9 l 2.3,-0.8 -0.6,-0.9 Q 4.95,24.1 4,21.9 L 3.9,21.4 q 0,-0.3 0.25,-0.3 l 0.45,0.4 0.55,0.55 0.65,0.45 1.7,1.65 3.25,3.8 0.05,-0.1 L 11.6,27 9.75,22.65 8.35,19.5 q -0.25,-0.7 0,-1 1.5,1.6 2.6,3.15 l 1.8,2.95 0.6,1.1 0.4,-0.4 0.15,-0.8 0.3,-0.95 q 0.2,-0.75 0.5,-1.1 l -1.35,-1 q -1.45,-1.25 -2.2,-3 -0.8,-1.8 -0.6,-3.6 0.1,-1.05 0.7,-2.55 l 1,-2 0.45,-0.6 -0.55,-0.95 -0.2,-1.25 0.2,-1.7 0.9,-1.9 0.35,-1 0.5,-1.05 Q 14.3,1.3 15.1,1.2 15.75,1.1 16.35,1.6 l 0.8,0.95 0.95,1.7 0.75,0.95 Q 21.95,4.5 25.3,5.05 L 25.65,4.7 27.9,2.25 q 0.75,-1.1 1.3,-1.3 0.45,-0.25 0.95,0 0.5,0.1 0.7,0.55 0.3,0.3 0.35,1.15 l 0.5,1.6 0.4,1.65 0.05,1.2 0.1,0.75 -0.05,0.75 0.1,0.65 0.15,0.9 v 0.25 l 0.3,2.95 m 16.35,24.15 0.65,1.9 v -0.05 l 0.2,-0.2 0.1,-0.55 1.4,-2.2 0.55,-0.45 0.3,-0.3 0.5,-0.65 0.45,-0.35 q 0.2,-0.05 0.35,0.15 l 0.2,0.3 -0.2,0.4 -0.35,0.35 -1.35,3.15 -0.4,1.9 v 0.5 H 48 L 47.9,41.05 Q 47.8,40.8 48,40.35 l 0.2,-0.7 0.05,-1 L 48.1,37.6 47.8,36.85 47.7,36.4 q 0,-0.3 0.25,-0.35 l 0.6,0.5 0.55,0.95 m 9.1,0.5 -0.3,0.5 -0.5,0.25 -0.45,0.75 -0.6,1.45 -0.2,0.45 h -2.3 q 0,-0.6 0.6,-1.3 1.55,-2 2.8,-2.35 L 57.8,37.7 58.2,38 m -44.45,-23.65 1,0.3 1.3,-0.4 0.9,-1.05 q 0.55,-1.45 -0.7,-2.5 -1.15,-0.95 -2.6,-0.2 l -0.9,1.05 q -0.3,0.65 -0.15,1.3 l 0.35,0.85 0.8,0.65 m 6.15,-2.1 h -0.3 q -0.7,0.15 -0.85,1.3 -0.2,1.3 0.35,1.85 0.45,0.45 1.25,0.35 l 1.15,-0.55 1.05,0.55 1.05,-0.25 0.5,-0.6 0.25,-1.35 q -0.1,-0.8 -0.8,-1.15 -0.25,0 -0.25,0.35 L 23.4,13.2 23,14.55 Q 22.55,14.7 22.25,14.1 l -0.6,-0.75 Q 21.15,13.2 21,13.6 l -0.1,0.55 -0.7,0.45 -0.3,-0.05 -0.25,-0.4 Q 19.55,13.5 19.85,13 l 0.05,-0.75 m 6.4,0.05 q 0.2,0.8 1,1.35 L 28.9,14 Q 29.75,13.9 30.35,13.15 31,12.45 30.85,11.6 30.8,10.7 30.1,10.1 29.4,9.5 28.55,9.5 28.15,9.45 27.5,9.75 q -0.7,0.3 -1.05,1.05 -0.4,0.8 -0.15,1.5 m -19.5,21.15 -0.85,0.5 0.8,0.7 h 0.5 l 1,0.2 -1.25,-1.5 -0.2,0.1"
         fill="#000000"
         fill-rule="evenodd"
         stroke="none"
         id="path10" />
      <path
         d="m 26.3,12.3 q -0.25,-0.7 0.15,-1.5 0.35,-0.75 1.05,-1.05 0.65,-0.3 1.05,-0.25 0.85,0 1.55,0.6 0.7,0.6 0.75,1.5 0.15,0.85 -0.5,1.55 Q 29.75,13.9 28.9,14 L 27.3,13.65 Q 26.5,13.1 26.3,12.3 M 19.9,12.25 19.85,13 q -0.3,0.5 -0.2,1.15 l 0.25,0.4 0.3,0.05 0.7,-0.45 0.1,-0.55 q 0.15,-0.4 0.65,-0.25 l 0.6,0.75 q 0.3,0.6 0.75,0.45 l 0.4,-1.35 -0.1,-0.45 q 0,-0.35 0.25,-0.35 0.7,0.35 0.8,1.15 l -0.25,1.35 -0.5,0.6 -1.05,0.25 -1.05,-0.55 -1.15,0.55 q -0.8,0.1 -1.25,-0.35 -0.55,-0.55 -0.35,-1.85 0.15,-1.15 0.85,-1.3 h 0.3 m -6.15,2.1 -0.8,-0.65 -0.35,-0.85 q -0.15,-0.65 0.15,-1.3 l 0.9,-1.05 q 1.45,-0.75 2.6,0.2 1.25,1.05 0.7,2.5 l -0.9,1.05 -1.3,0.4 -1,-0.3"
         fill="#ffffff"
         fill-rule="evenodd"
         stroke="none"
         id="path11" />
    </g>
    <g
       id="shape2"
       transform="translate(2,2.05)">
      <path
         d="M -0.5,-0.4 V -0.55 H 75.1 V -0.4 40.8 H -0.5 Z"
         fill="none"
         stroke="#000000"
         stroke-linecap="round"
         stroke-linejoin="round"
         stroke-width="3"
         id="path12" />
    </g>
  </defs>
</svg>
