<?xml version="1.0" encoding="UTF-8" standalone="no"?>
<svg
   ffdec:objectType="frame"
   height="44.349998"
   width="78.599998"
   version="1.1"
   id="svg11"
   sodipodi:docname="364.svg"
   xmlns:inkscape="http://www.inkscape.org/namespaces/inkscape"
   xmlns:sodipodi="http://sodipodi.sourceforge.net/DTD/sodipodi-0.dtd"
   xmlns:xlink="http://www.w3.org/1999/xlink"
   xmlns="http://www.w3.org/2000/svg"
   xmlns:svg="http://www.w3.org/2000/svg"
   xmlns:ffdec="https://www.free-decompiler.com/flash">
  <sodipodi:namedview
     id="namedview11"
     pagecolor="#ffffff"
     bordercolor="#000000"
     borderopacity="0.25"
     inkscape:showpageshadow="2"
     inkscape:pageopacity="0.0"
     inkscape:pagecheckerboard="0"
     inkscape:deskcolor="#d1d1d1"
     fit-margin-top="5"
     fit-margin-left="5"
     fit-margin-right="5"
     fit-margin-bottom="5" />
  <g
     transform="translate(2,2.05)"
     id="g3">
    <use
       ffdec:characterId="1"
       height="42.700001"
       transform="translate(-1.75,-2)"
       width="76.449997"
       xlink:href="#shape0"
       id="use1" />
    <use
       ffdec:characterId="343"
       height="41.700001"
       transform="translate(-0.25,-0.9)"
       width="75.900002"
       xlink:href="#shape1"
       id="use2" />
    <use
       ffdec:characterId="3"
       height="44.349998"
       transform="translate(-2,-2.05)"
       width="78.599998"
       xlink:href="#shape2"
       id="use3" />
  </g>
  <defs
     id="defs11">
    <g
       id="shape0"
       transform="translate(1.75,2)">
      <path
         d="M 2.8,0 V -0.4 H 5.4 V 0 H 9.7 V 19.45 0 H 20.55 L 19.3,19.45 H 9.7 0.25 V 0 H 2.8"
         fill="#ffffff"
         fill-rule="evenodd"
         stroke="none"
         id="path3" />
      <path
         d="M 0.25,19.45 H 9.7 19.3 L 18.7,28.6 16,28.5 10.95,27.95 9.7,27.8 Q 7.45,27.6 5.85,27.75 4.05,27.9 1.5,28.6 0.75,28.8 0.25,29.15 v -9.7 m 9.45,0 v 8.35 -8.35"
         fill="#121212"
         fill-rule="evenodd"
         stroke="none"
         id="path4" />
      <path
         d="m 9.7,27.8 1.25,0.15 5.05,0.55 2.7,0.1 h 1.05 l 3.75,0.15 q 2.45,0.3 3.6,1.25 0.6,0.5 0.6,1.1 0,0.65 -0.8,1 l -1.3,0.2 -7.15,0.15 -5.6,-0.3 L 9.7,31.75 7.95,31.6 3.1,31.95 0.95,32.3 0.25,32.1 -0.35,31.55 -0.5,31.3 V 29.9 L 0.25,29.15 Q 0.75,28.8 1.5,28.6 4.05,27.9 5.85,27.75 7.45,27.6 9.7,27.8 v 3.95 -3.95"
         fill="#999999"
         fill-rule="evenodd"
         stroke="none"
         id="path5" />
      <path
         d="M 2.8,0 H 0.25 M 9.7,0 H 5.4 m 16.15,0 h 10.7 M 20.55,0 H 9.7"
         fill="none"
         stroke="#666666"
         stroke-linecap="round"
         stroke-linejoin="round"
         stroke-width="4"
         id="path6" />
      <path
         d="m 9.7,-0.4 h 65 V 40.5 H 47.05 L 45.5,40.7 27,40.65 25.95,40.5 H 9.7 -0.5 V -0.4 H 9.7 V 40.5 -0.4"
         fill="#ffffff"
         fill-rule="evenodd"
         stroke="none"
         id="path7" />
    </g>
    <g
       id="shape1"
       transform="translate(0.25,0.9)">
      <path
         d="m 20.8,0.1 q -0.25,-0.5 -0.2,-1 h 5.25 l 1.75,1.7 q 5.2,5.2 13.15,14.55 1.8,2 2.4,3.35 0.25,0.5 -0.1,0.65 -0.2,0.1 -0.5,-0.2 L 29.7,8.05 22.5,1.85 Q 21.1,0.8 20.8,0.1 M 66.6,6.45 66.15,6.95 65.45,7 Q 65,6.75 65.2,6.2 L 65.65,5.45 66.45,4 66.7,3.45 q 0.3,-0.5 1,-0.4 0.6,0 1,0.5 L 68.95,3.7 69.1,3.65 71.65,1 72.6,0.2 q 0.65,-0.35 1.15,-0.3 0.75,0.1 1.05,0.7 0.4,0.55 0.15,1.2 L 74,2.95 l -3.2,2.7 -0.95,0.95 -1.1,0.05 -0.9,-0.7 -0.6,-0.6 -0.65,1.1 m 6.1,3.65 1.5,-0.05 q 1.1,0.15 1.35,1.25 0.35,1 -0.45,1.8 -0.45,0.45 -1.2,0.6 l -1.35,0.15 -2.7,0.15 -0.8,-0.15 q -0.6,-0.2 -1.25,-1.45 l -0.4,-0.95 -0.65,0.35 -0.65,0.45 q -0.5,0.1 -0.7,-0.2 -0.2,-0.25 0.1,-0.75 0.2,-0.2 0.65,-0.45 L 67.1,10.1 67.85,9.45 q 0.6,-0.15 1.1,0.35 l 0.65,1 0.2,0.2 0.25,-0.05 Q 70.8,10.5 72.7,10.1 m -13.75,2.3 0.1,-0.7 V 9.8 q -1.4,-0.5 -1.9,-1 -0.7,-0.65 -0.9,-1.6 -0.2,-0.95 0.2,-1.8 0.4,-0.85 1.2,-1.3 0.85,-0.5 1.8,-0.4 L 61,4.2 q 1,0.4 1.65,1 l 0.95,1.15 0.75,1.3 q 0.35,1 0.15,3.1 l -0.45,1.95 q -0.55,1.5 -1.85,2.4 -0.85,0.6 -1.7,0.65 -1,0.1 -1.7,-0.55 -0.8,-0.8 -0.45,-1.7 l 0.6,-1.1 M 12.95,2.2 Q 12.6,1.35 13.2,0.7 13.8,-0.05 15,0.25 15.7,0.4 16.7,1.2 l 22.6,16.3 2.1,1.65 q 0.4,0.3 0.25,0.55 L 41,19.8 39.15,18.95 q -6,-2.8 -12.8,-7.1 -4,-2.55 -9.75,-6.6 L 16.55,5.7 15.65,5.85 8.4,4.1 2.1,1.65 0.3,0.45 Q -0.15,-0.2 -0.1,-0.9 h 6.55 l 3.95,2.05 2.95,1.65 -0.4,-0.6 m -1.1,38.3 q -0.5,-0.9 0.2,-1.9 0.4,-0.5 1.55,-1.3 l 6.15,-3.7 3.6,-2 9.05,-4.45 5.15,-2.75 q 3.05,-1.5 5.45,-2.05 0.35,-0.1 0.45,0.15 l -0.2,0.25 q -3.9,2.7 -13.95,8.5 -9,5.2 -13.7,8.75 l -1.15,0.8 h -2.3 l -0.3,-0.3 m 17.2,-0.6 q 0.15,-0.7 1.15,-1.7 l 8.1,-8.55 1.75,-1.8 2.25,-2.85 2.4,-2.75 0.6,-0.35 q 0.45,-0.1 0.6,0.25 l -0.2,0.65 -3.95,6.25 -3.9,6.1 q -2.3,3.3 -4.5,5.65 h -4.3 V 39.9 M 34.9,19.95 q -0.05,0.45 -0.7,0.45 l -6.9,-0.45 -3.7,-1 q 0.15,0.55 -0.15,0.95 -0.25,0.4 -1.15,0.7 l -3.25,0.5 h -3.3 L 9.3,21.35 q -2.45,0.1 -3.7,0.7 L 4.1,22.95 2.55,23.7 Q 1.15,24.05 0.2,23.2 L -0.25,22.65 V 18.3 Q 0.2,16.05 -0.2,14.25 l -0.05,-0.2 v -3.1 L -0.2,10.9 -0.25,10.85 V 6.35 L -0.1,6.3 2.55,6.55 6.05,7.8 q 12.7,4.7 18.9,7.3 5.55,2.25 9.45,4.3 0.5,0.2 0.5,0.55 m 3.4,2.35 -8.95,3.35 -3.55,1.55 -4.55,1.55 q -2.85,0.9 -6.85,2.6 l -6,2.4 Q 6.15,34.7 4.95,34.2 3.85,33.8 3.5,32.55 3.2,31.4 4,30.4 4.45,29.9 5.55,29.5 5.05,29.25 4.85,28.8 4.65,28.1 5.15,27.4 5.55,26.9 6.3,26.5 l 3.45,-1.6 2.95,-1.45 3,-1.35 q 3.6,-1.4 6.4,-0.75 l 0.4,0.25 -0.1,0.35 q -0.55,1 -2.2,2.25 l -2.65,1.95 q 12.65,-3.4 20.6,-4.85 l 0.8,0.15 q 0.15,0.25 -0.1,0.5 L 38.3,22.3 M 4.8,16.65 8.7,16.15 12.15,16.1 15.6,16.35 4.65,12.7 q 0.45,1.85 0.15,3.95"
         fill="#999999"
         fill-rule="evenodd"
         stroke="none"
         id="path8" />
      <path
         d="m 62.65,10.75 q 0.8,4.2 -1.25,7.5 -0.85,1.4 -2.2,2.55 1.75,2.9 2.15,5.65 0.6,3.85 -1.1,6.75 -1.35,2.35 -4.05,3.85 -4.25,2.3 -8.15,1.2 l -0.35,-0.1 h -0.25 q -3.6,0.1 -6.6,-0.75 L 39.9,37.25 q -0.4,0.1 -0.9,0.6 l -1.4,1 -1.65,0.05 -1.1,-1.05 -1.2,-1.6 q -1.3,1.55 -3.2,2.55 l -0.4,0.1 -0.35,-0.2 -0.1,-0.5 0.45,-0.8 2.75,-3.15 1.15,-0.8 q 0.8,-0.15 1.5,0.9 l 1.25,1.35 1,-0.95 0.95,-1.05 q 0.95,-0.75 3.65,-0.3 l 0.2,0.05 -0.25,-0.8 Q 41.9,31.1 42.15,28.75 42.2,27.6 42.6,26.45 43.05,25.2 44.05,24 L 43.7,23.95 42.75,23.9 41.8,23.95 q -0.05,1.5 -0.75,2.8 -1.05,2 -3.25,3.2 -2.05,1.1 -4.55,1.25 L 28.6,30.9 24.05,29.8 q -7.65,-1.95 -12,-2.15 L 10.45,27.45 9.7,29.4 Q 8.15,34.15 8.5,38 l 0.1,1.9 v 0.4 H 0.9 Q 0.65,39.7 0.65,38.4 L 0.9,27.05 0.3,27.15 0.15,27 v -0.95 l -0.3,-0.95 q -0.1,-0.95 0.95,-2.75 l 2.6,-4.1 Q 2.8,17.5 2.35,16.6 1.4,14.65 1.35,12.25 1.3,7.85 3.95,3.7 5.5,1.3 7.35,0.25 8.6,-0.45 10.9,-0.9 h 6.85 q 1.2,0.5 2.3,1.35 1.55,1.1 2.55,2.35 L 23.2,2.7 24.9,2.25 26.7,2.2 Q 27.5,2.55 27.85,3.35 28.2,4.25 27.7,5 L 27.15,5.7 Q 26.8,6.15 26.4,7.25 L 25.15,9.8 23.7,11.9 v 0.05 q -0.15,-1.6 -1.5,-2.7 L 21.7,8.95 21,9.65 q -1.95,1.55 -5,1.45 h -0.15 l -0.15,0.35 -0.2,0.75 q -0.15,1.05 0.3,2.05 0.45,1 1.3,1.65 1.7,1.35 3.65,0.8 l -0.55,0.55 q -1.65,1.55 -3.8,2.5 l 13.25,-1.25 5.45,-0.25 1.3,0.1 h 1 l 2.85,0.05 2.2,0.2 -0.85,-2.15 -1.55,0.1 -1.55,-0.4 -1.15,-0.6 q -0.65,-0.4 -1.2,-1.45 -1.1,-2 -0.8,-4.15 0.4,-2.3 2.05,-3.7 l 1.15,-0.8 q 1.9,-1.15 2.9,-1.3 l 2.1,0.15 0.8,0.3 Q 46.1,3.05 48.4,2.35 50.15,1.8 52,1.8 l 0.4,-0.65 q 1.05,-1.45 2.8,-1.75 l 0.85,-0.15 0.45,-0.15 h 2.25 L 59.3,-0.6 61.15,1.05 62,2.1 Q 62.6,3 62.6,4.25 62.6,5.4 62,6.4 L 61.85,6.7 60.65,5.7 59.5,5.1 58.35,4.75 q -2.5,-0.55 -4.85,1.3 -0.75,0.65 -1,1.25 -0.2,0.4 -0.3,1.3 -0.1,1.35 0.05,2 0.35,1.4 1.55,2.5 0.5,0.5 1.1,0.8 L 56.05,14.25 59.5,14 q 1.75,-0.65 2.65,-2.15 l 0.5,-1.1 M 51.7,16.6 q -0.15,1.05 0.45,1.75 0.7,0.85 1.7,0.45 l 0.6,-0.55 0.3,-0.35 0.35,-0.15 q 0.8,-0.3 0.95,-1.1 0.15,-0.8 -0.45,-1.4 -0.35,-0.35 -1.2,-0.55 l -0.8,-0.05 -0.05,-0.2 -0.2,-0.3 -0.75,-0.4 -0.05,0.05 q -0.35,0 -0.6,0.25 -0.25,0.25 -0.2,0.6 v 0.3 q 0.05,0.35 0.4,0.5 -0.35,0.45 -0.45,1.15 m -2.9,-0.6 0.5,-0.25 0.15,-0.55 -0.8,-0.8 0.25,-0.45 0.7,-1.2 Q 49.75,12.1 49.35,11.5 49.05,11 48.45,10.85 L 47.3,11 l -0.4,0.25 -0.4,0.6 -0.2,0.45 -0.1,0.55 q -0.65,-0.4 -1.05,-0.35 -1,0.1 -1.2,1.15 l 0.15,0.85 0.65,0.55 0.6,0.15 -0.1,0.25 -0.1,1 0.05,0.5 0.15,0.25 q 0.3,0.45 0.8,0.3 l 1,-0.6 v -0.1 l 0.75,-1 0.05,-0.05 h 0.1 L 48.8,16 m 23.65,21 v 0.4 l -0.05,0.05 v 0.1 l -0.05,0.05 v 0.05 l -0.05,0.05 -0.05,0.1 -0.05,0.05 v 0.05 l -0.05,0.1 -0.1,0.05 -0.1,0.05 -0.1,0.1 -0.15,0.05 -0.15,0.05 h -0.2 -0.4 -0.2 l -0.1,-0.05 H 70.55 70.4 L 70.3,38.2 H 70.25 L 70.1,38.15 H 69.9 L 69.7,38.1 h -0.5 l -0.25,-0.05 h -0.3 -0.2 L 68.35,38 68.2,37.95 68.1,37.9 h -0.3 -0.15 l -0.2,-0.05 H 67.3 L 67.2,37.8 h -0.15 l -0.2,-0.05 h -0.3 L 66.4,37.7 H 66.2 65.8 L 65.15,37.65 64.95,37.6 64.9,37.55 H 64.8 L 64.65,37.5 64.55,37.45 64.5,37.35 64.45,37.3 V 37.2 37.1 L 64.5,37.05 64.55,37 64.6,36.9 64.7,36.85 h 0.1 L 64.9,36.8 65,36.75 h 0.15 L 65.8,36.7 h 0.4 0.2 l 0.15,-0.05 h 0.3 l 0.2,-0.05 h 0.15 l 0.1,-0.05 h 0.15 l 0.2,-0.05 h 0.15 0.3 l 0.1,-0.05 0.15,-0.05 0.1,-0.05 H 68.5 L 66.7,35.2 q -0.35,-0.35 -0.25,-0.5 0.1,-0.15 0.35,-0.15 l 0.8,0.15 1.65,0.35 -0.4,-1.7 -0.15,-0.8 q 0,-0.25 0.15,-0.35 0.15,-0.1 0.5,0.25 l 1.15,1.8 V 34.2 l 0.05,-0.1 0.05,-0.15 0.05,-0.1 v -0.3 -0.15 l 0.05,-0.2 v -0.15 l 0.05,-0.1 V 32.8 l 0.05,-0.2 v -0.3 l 0.05,-0.15 v -0.2 -0.4 L 70.9,30.9 v -0.15 l 0.05,-0.1 0.05,-0.1 v -0.1 l 0.05,-0.1 0.1,-0.05 0.05,-0.05 0.05,-0.05 h 0.1 0.1 l 0.05,0.05 0.1,0.05 0.05,0.1 0.05,0.15 v 0.1 l 0.05,0.05 0.05,0.2 0.05,0.65 v 0.4 0.2 l 0.05,0.15 v 0.3 l 0.05,0.2 v 0.15 l 0.05,0.1 v 0.15 l 0.05,0.2 v 0.15 0.3 l 0.05,0.1 0.05,0.15 0.05,0.1 v 0.2 0.3 l 0.05,0.25 v 0.5 l 0.05,0.2 v 0.2 L 72.35,36 v 0.05 l 0.05,0.1 v 0.15 0.1 l 0.05,0.1 v 0.2 0.3 m -9,-4.3 0.2,-0.1 h 0.05 l 0.05,-0.05 q 0.35,0 0.45,0.6 l 0.05,0.25 0.55,0.15 0.25,0.45 q 0.1,0.55 -0.6,0.75 l -0.2,0.05 -0.1,0.5 -0.2,0.25 L 63.5,35.7 63.1,35.55 62.9,34.95 63,34.7 62.85,34.65 62.25,34.45 62.1,34 q -0.05,-0.25 0.15,-0.45 0.2,-0.2 0.45,-0.15 h 0.5 l 0.25,-0.7 m -51,-16.6 h 0.75 l 0.5,-0.05 0.25,0.15 0.3,0.1 h 0.4 l 0.2,-0.3 -0.25,-0.45 -0.75,-0.5 0.05,-0.3 V 14.4 L 14.1,13.8 13.85,13.2 13.2,13 12.65,13.35 12.5,13.6 12.4,14 12.3,14.45 10.1,14 9.6,14.05 8.8,14.25 Q 8,14.5 8.1,15.35 v 0.25 q 0.1,0.55 0.5,0.8 0.3,0.2 0.75,0.2 l 0.8,-0.05 0.35,-0.1 0.35,-0.15 h 0.45 l 0.35,-0.1 h 0.4 l 0.4,-0.1 m 0.3,-5.4 0.15,-0.3 -1.35,-0.7 Q 9.75,8.3 9.6,6.2 V 5.85 H 9.55 L 8.2,5.95 Q 7.05,6.15 6.2,7 5.35,7.85 5.1,9 L 5,9.65 v 0.8 q 0.15,1.3 1.35,2.15 1,0.7 2.4,0.8 L 9.7,13.35 q 1.6,-0.2 2.75,-2 l 0.3,-0.65"
         fill="#000000"
         fill-rule="evenodd"
         stroke="none"
         id="path9" />
      <path
         d="m 23.7,11.95 v 0.4 l -0.15,1.45 q -0.2,1 -0.95,1.8 -0.7,0.75 -1.7,1.05 l -0.15,0.05 q -1.95,0.55 -3.65,-0.8 -0.85,-0.65 -1.3,-1.65 -0.45,-1 -0.3,-2.05 l 0.2,-0.75 0.15,-0.35 H 16 q 3.05,0.1 5,-1.45 l 0.7,-0.7 0.5,0.3 q 1.35,1.1 1.5,2.7 M 61.85,6.7 q 0.6,0.75 0.8,1.75 0.3,1.2 0,2.3 l -0.5,1.1 Q 61.25,13.35 59.5,14 L 56.05,14.25 54.9,13.9 Q 54.3,13.6 53.8,13.1 52.6,12 52.25,10.6 52.1,9.95 52.2,8.6 q 0.1,-0.9 0.3,-1.3 0.25,-0.6 1,-1.25 2.35,-1.85 4.85,-1.3 l 1.15,0.35 1.15,0.6 1.2,1 M 48.8,16 48.05,15.75 h -0.1 l -0.05,0.05 -0.75,1 v 0.1 l -1,0.6 q -0.5,0.15 -0.8,-0.3 l -0.15,-0.25 -0.05,-0.5 0.1,-1 0.1,-0.25 -0.6,-0.15 -0.65,-0.55 -0.15,-0.85 q 0.2,-1.05 1.2,-1.15 0.4,-0.05 1.05,0.35 l 0.1,-0.55 0.2,-0.45 0.4,-0.6 0.4,-0.25 1.15,-0.15 q 0.6,0.15 0.9,0.65 0.4,0.6 0.25,1.25 l -0.7,1.2 -0.25,0.45 0.8,0.8 -0.15,0.55 -0.5,0.25 m 2.9,0.6 q 0.1,-0.7 0.45,-1.15 -0.35,-0.15 -0.4,-0.5 v -0.3 q -0.05,-0.35 0.2,-0.6 0.25,-0.25 0.6,-0.25 l 0.05,-0.05 0.75,0.4 0.2,0.3 0.05,0.2 0.8,0.05 q 0.85,0.2 1.2,0.55 0.6,0.6 0.45,1.4 -0.15,0.8 -0.95,1.1 l -0.35,0.15 -0.3,0.35 -0.6,0.55 q -1,0.4 -1.7,-0.45 -0.6,-0.7 -0.45,-1.75 m -38.95,-5.9 -0.3,0.65 q -1.15,1.8 -2.75,2 L 8.75,13.4 Q 7.35,13.3 6.35,12.6 5.15,11.75 5,10.45 V 9.65 L 5.1,9 Q 5.35,7.85 6.2,7 7.05,6.15 8.2,5.95 L 9.55,5.85 H 9.6 V 6.2 q 0.15,2.1 1.95,3.5 l 1.35,0.7 -0.15,0.3 m -0.3,5.4 -0.4,0.1 h -0.4 l -0.35,0.1 h -0.45 l -0.35,0.15 -0.35,0.1 -0.8,0.05 Q 8.9,16.6 8.6,16.4 8.2,16.15 8.1,15.6 V 15.35 Q 8,14.5 8.8,14.25 l 0.8,-0.2 0.5,-0.05 2.2,0.45 0.1,-0.45 0.1,-0.4 0.15,-0.25 0.55,-0.35 0.65,0.2 0.25,0.6 -0.2,0.6 v 0.35 l -0.05,0.3 0.75,0.5 0.25,0.45 -0.2,0.3 h -0.4 l -0.3,-0.1 -0.25,-0.15 -0.5,0.05 h -0.75"
         fill="#ffffff"
         fill-rule="evenodd"
         stroke="none"
         id="path10" />
    </g>
    <g
       id="shape2"
       transform="translate(2,2.05)">
      <path
         d="M -0.5,-0.4 V -0.55 H 75.1 V -0.4 40.8 H -0.5 Z"
         fill="none"
         stroke="#000000"
         stroke-linecap="round"
         stroke-linejoin="round"
         stroke-width="3"
         id="path11" />
    </g>
  </defs>
</svg>
