<?xml version="1.0" encoding="UTF-8" standalone="no"?>
<svg
   ffdec:objectType="frame"
   height="44.349998"
   width="78.599998"
   version="1.1"
   id="svg14"
   sodipodi:docname="255.svg"
   xmlns:inkscape="http://www.inkscape.org/namespaces/inkscape"
   xmlns:sodipodi="http://sodipodi.sourceforge.net/DTD/sodipodi-0.dtd"
   xmlns:xlink="http://www.w3.org/1999/xlink"
   xmlns="http://www.w3.org/2000/svg"
   xmlns:svg="http://www.w3.org/2000/svg"
   xmlns:ffdec="https://www.free-decompiler.com/flash">
  <sodipodi:namedview
     id="namedview14"
     pagecolor="#ffffff"
     bordercolor="#000000"
     borderopacity="0.25"
     inkscape:showpageshadow="2"
     inkscape:pageopacity="0.0"
     inkscape:pagecheckerboard="0"
     inkscape:deskcolor="#d1d1d1"
     fit-margin-top="5"
     fit-margin-left="5"
     fit-margin-right="5"
     fit-margin-bottom="5" />
  <g
     transform="translate(2,2.05)"
     id="g3">
    <use
       ffdec:characterId="1"
       height="42.700001"
       transform="translate(-1.75,-2)"
       width="76.449997"
       xlink:href="#shape0"
       id="use1" />
    <use
       ffdec:characterId="250"
       height="43.400002"
       transform="translate(-1.25,-2.1)"
       width="76.849998"
       xlink:href="#shape1"
       id="use2" />
    <use
       ffdec:characterId="3"
       height="44.349998"
       transform="translate(-2,-2.05)"
       width="78.599998"
       xlink:href="#shape2"
       id="use3" />
  </g>
  <defs
     id="defs14">
    <g
       id="shape0"
       transform="translate(1.75,2)">
      <path
         d="M 2.8,0 V -0.4 H 5.4 V 0 H 9.7 V 19.45 0 H 20.55 L 19.3,19.45 H 9.7 0.25 V 0 H 2.8"
         fill="#ffffff"
         fill-rule="evenodd"
         stroke="none"
         id="path3" />
      <path
         d="M 0.25,19.45 H 9.7 19.3 L 18.7,28.6 16,28.5 10.95,27.95 9.7,27.8 Q 7.45,27.6 5.85,27.75 4.05,27.9 1.5,28.6 0.75,28.8 0.25,29.15 v -9.7 m 9.45,0 v 8.35 -8.35"
         fill="#121212"
         fill-rule="evenodd"
         stroke="none"
         id="path4" />
      <path
         d="m 9.7,27.8 1.25,0.15 5.05,0.55 2.7,0.1 h 1.05 l 3.75,0.15 q 2.45,0.3 3.6,1.25 0.6,0.5 0.6,1.1 0,0.65 -0.8,1 l -1.3,0.2 -7.15,0.15 -5.6,-0.3 L 9.7,31.75 7.95,31.6 3.1,31.95 0.95,32.3 0.25,32.1 -0.35,31.55 -0.5,31.3 V 29.9 L 0.25,29.15 Q 0.75,28.8 1.5,28.6 4.05,27.9 5.85,27.75 7.45,27.6 9.7,27.8 v 3.95 -3.95"
         fill="#999999"
         fill-rule="evenodd"
         stroke="none"
         id="path5" />
      <path
         d="M 2.8,0 H 0.25 M 9.7,0 H 5.4 m 16.15,0 h 10.7 M 20.55,0 H 9.7"
         fill="none"
         stroke="#666666"
         stroke-linecap="round"
         stroke-linejoin="round"
         stroke-width="4"
         id="path6" />
      <path
         d="m 9.7,-0.4 h 65 V 40.5 H 47.05 L 45.5,40.7 27,40.65 25.95,40.5 H 9.7 -0.5 V -0.4 H 9.7 V 40.5 -0.4"
         fill="#ffffff"
         fill-rule="evenodd"
         stroke="none"
         id="path7" />
    </g>
    <g
       id="shape1"
       transform="translate(1.25,2.1)">
      <path
         d="M 15.95,-0.55 H 75.1 V 40.8 H -0.5 V -0.55 h 14 L 14.05,0 14.5,0.55 15.45,1.9 16.1,3 16.3,3.25 Q 14.4,4.9 14.15,7.4 14.1,8 14.2,8.5 L 14.1,9.3 13.65,8.9 12.45,8.05 10.2,6.8 9.2,6.4 7.4,5.35 5.55,4.35 4.6,4 3.4,3.25 Q 2.55,2.9 1.85,2.9 1.75,3.1 1.95,3.4 L 2.4,3.7 q 0.55,0.35 1.45,1.25 l 0.85,0.45 2.1,1.55 4.55,3.4 1.2,0.8 1.4,-0.2 0.1,-0.05 0.05,0.45 -0.05,0.65 q -0.1,1.6 0.2,2.6 l 0.1,0.25 V 15 q -0.7,0.2 -1.8,1 l -5.95,3.65 -6,3.85 -0.45,0.4 q -0.1,0.4 0.2,0.55 l 0.5,-0.15 0.7,-0.25 4.6,-1.65 4.45,-2 2.25,-0.8 -2,1.95 -5.9,6.2 0.25,0.1 10.35,-7.45 Q 14.5,21.7 12.9,24.55 L 7.75,32.1 2.45,39.5 Q 2.1,40.1 2.5,40.25 l 0.4,-0.2 q 8.75,-9.35 12.5,-14.5 l 1.85,-2.15 1,-0.8 -2.5,9.45 -0.3,1.65 -0.25,1.2 -0.1,0.3 0.2,0.2 0.15,-0.2 1,-2.15 0.6,-1.6 q 0.9,-3.1 2.05,-5.35 l 0.95,-1.9 0.7,-1.65 0.2,-0.35 1.15,0.15 0.35,12.75 0.05,1.9 0.3,2.55 q 0,0.5 0.35,0.4 l 0.2,-0.3 0.95,-7.7 0.85,-9.3 0.85,2.9 0.35,1.15 1.05,4 1.15,4.2 q 0.1,0.4 0.3,0.45 0.1,-1.5 -0.2,-4.5 L 27.3,22.1 v -0.05 l 4.5,5.65 q 3,4.05 4.75,5.95 l 3.35,3.85 q 0.35,0.5 0.6,0.25 -0.7,-1.85 -3.05,-5.65 l -1.7,-2.7 -4.7,-7.2 -1.3,-1.85 q 1.3,-0.85 2.35,-1.9 l 7.05,5.8 4.1,3.6 3.25,2.6 q 0.65,0.4 0.8,-0.1 L 47,29.85 45.05,27.45 Q 43.25,25.1 39.7,21.6 l -5.25,-5.4 4.25,-0.15 3.25,-0.2 1.15,-0.05 3.15,0.25 L 46.7,16 q -0.1,-0.2 -0.6,-0.2 l -0.6,-0.1 0.9,-0.35 0.2,-0.3 -0.2,-0.25 Q 45.5,14.35 42.95,14.15 L 40,13.65 37.05,13.2 35.7,13.1 35.45,13 36,11.35 52.5,8.5 55.6,8.15 58.55,7.45 58.8,7.25 Q 58.8,7.1 58.45,7 L 40.2,7.1 35.95,7.3 35.9,7.25 46.3,2.55 46.5,2.3 q 0,-0.2 -0.4,-0.2 L 35.85,4.85 q 4,-2.7 8.45,-4.55 l 0.2,-0.15 v -0.3 H 44.25 Q 40.4,0.8 35.4,2.45 L 33.2,3.1 30.45,1.4 Q 26.95,-0.05 22.5,0.6 20.7,0.8 19.2,1.45 l -0.6,-0.5 -0.75,-0.45 -0.8,-0.35 -1.1,-0.7"
         fill="#999999"
         fill-rule="evenodd"
         stroke="none"
         id="path8" />
      <path
         d="m 13.5,-0.55 v -0.1 q -0.4,-0.2 -0.45,-0.55 -0.15,-0.35 0.1,-0.7 l 0.85,-0.15 0.75,0.5 1,0.85 0.2,0.15 1.1,0.7 0.8,0.35 0.75,0.45 0.6,0.5 q 1.5,-0.65 3.3,-0.85 4.45,-0.65 7.95,0.8 l 2.75,1.7 2.2,-0.65 q 5,-1.65 8.85,-2.6 h 0.25 v 0.3 L 44.3,0.3 Q 39.85,2.15 35.85,4.85 L 46.1,2.1 q 0.4,0 0.4,0.2 L 46.3,2.55 35.9,7.25 35.95,7.3 40.2,7.1 58.45,7 Q 58.8,7.1 58.8,7.25 L 58.55,7.45 55.6,8.15 52.5,8.5 36,11.35 35.45,13 l 0.25,0.1 1.35,0.1 2.95,0.45 2.95,0.5 q 2.55,0.2 3.45,0.65 l 0.2,0.25 -0.2,0.3 -0.9,0.35 0.6,0.1 q 0.5,0 0.6,0.2 l -0.45,0.05 -3.15,-0.25 -1.15,0.05 -3.25,0.2 -4.25,0.15 5.25,5.4 q 3.55,3.5 5.35,5.85 l 1.95,2.4 0.3,0.5 q -0.15,0.5 -0.8,0.1 l -3.25,-2.6 -4.1,-3.6 -7.05,-5.8 q -1.05,1.05 -2.35,1.9 l 1.3,1.85 4.7,7.2 1.7,2.7 Q 39.8,35.9 40.5,37.75 40.25,38 39.9,37.5 L 36.55,33.65 Q 34.8,31.75 31.8,27.7 l -4.5,-5.65 v 0.05 l 1.35,8.75 q 0.3,3 0.2,4.5 -0.2,-0.05 -0.3,-0.45 l -1.15,-4.2 -1.05,-4 -0.35,-1.15 -0.85,-2.9 -0.85,9.3 -0.95,7.7 -0.2,0.3 q -0.35,0.1 -0.35,-0.4 L 22.5,37 22.45,35.1 22.1,22.35 20.95,22.2 l -0.2,0.35 -0.7,1.65 -0.95,1.9 q -1.15,2.25 -2.05,5.35 l -0.6,1.6 -1,2.15 -0.15,0.2 -0.2,-0.2 0.1,-0.3 0.25,-1.2 0.3,-1.65 2.5,-9.45 -1,0.8 -1.85,2.15 Q 11.65,30.7 2.9,40.05 l -0.4,0.2 Q 2.1,40.1 2.45,39.5 l 5.3,-7.4 5.15,-7.55 q 1.6,-2.85 2.65,-4.15 l -10.35,7.45 -0.25,-0.1 5.9,-6.2 2,-1.95 -2.25,0.8 -4.45,2 -4.6,1.65 -0.7,0.25 -0.5,0.15 Q 0.05,24.3 0.15,23.9 L 0.6,23.5 6.6,19.65 12.55,16 q 1.1,-0.8 1.8,-1 v -0.15 l -0.1,-0.25 q -0.3,-1 -0.2,-2.6 l 0.05,-0.65 -0.05,-0.45 -0.1,0.05 -1.4,0.2 -1.2,-0.8 L 6.8,6.95 4.7,5.4 3.85,4.95 Q 2.95,4.05 2.4,3.7 L 1.95,3.4 Q 1.75,3.1 1.85,2.9 2.55,2.9 3.4,3.25 L 4.6,4 l 0.95,0.35 1.85,1 1.8,1.05 1,0.4 2.25,1.25 1.2,0.85 0.45,0.4 0.1,-0.8 Q 14.1,8 14.15,7.4 14.4,4.9 16.3,3.25 L 16.1,3 15.45,1.9 14.5,0.55 14.05,0 13.5,-0.55"
         fill="#ffffff"
         fill-rule="evenodd"
         stroke="none"
         id="path9" />
      <path
         d="M 15.95,-0.55 H 75.1 V 40.8 H -0.5 V -0.55 h 14"
         fill="none"
         stroke="#5f645e"
         stroke-linecap="round"
         stroke-linejoin="round"
         stroke-opacity="0.498039"
         stroke-width="1"
         id="path10" />
      <path
         d="m 33.5,6.8 0.45,-0.05 q 2,-0.15 3.75,0.95 1.1,0.8 1.65,1.7 0.85,1.5 0.35,3.25 -0.45,1.7 -1.95,2.7 l -2.25,1.1 -0.75,0.45 -0.45,0.35 -0.7,0.8 q -0.2,0.35 -0.25,0.8 0.65,1.15 2.4,2.15 2.7,1.55 5.7,2.25 l -0.1,-0.2 Q 40.65,22.3 40.2,21.2 39.75,20.05 39.85,18.3 l 0.1,-1.3 q 0.35,-2.25 0.65,-3 0.65,-1.4 1.85,-2.5 l 0.35,-0.3 q 0.7,-0.8 1.7,-1.4 l 0.1,-0.5 0.5,-0.8 0.6,-0.75 q 0.75,-1 2,-2.25 l 0.45,-0.4 1.4,-0.1 1,0.95 1.35,1.95 1.25,0.15 q 4,0.95 6.25,4.3 l 0.65,1 2.1,0.65 0.55,0.25 q 0.5,0.3 0.75,0.95 0.15,0.7 -0.15,1.25 l -3,3.6 q -0.9,2.85 -3.35,4.8 -2.85,2.35 -6.5,2.45 L 49,27.25 h -0.05 l 0.5,1.25 1.25,1.5 q 1.5,1.25 2.85,0.9 0.1,-1.95 1.7,-2.75 l 3.2,0.1 q 0.5,0.3 0.8,0.75 l 0.3,0.9 q 0.3,1.65 -0.85,2.95 -0.95,1.25 -2.65,1.65 l -2.35,0.2 2.2,1.6 2.6,1.7 0.8,1.3 0.05,1.3 H 45.7 L 44.4,38.95 Q 44,38.1 43.5,36.3 l -0.65,-3.25 -0.4,-2.75 q -0.1,-1.4 0.2,-4.3 L 42.7,25.8 36.65,26 Q 33,25.45 30.65,23.55 L 29.05,22.2 Q 27.6,20.7 26.9,18.95 l -0.3,-0.9 Q 25.85,15.4 26.65,13.2 l 0.8,-1.8 0.15,-0.2 Q 28,10.35 28.7,9.6 l 0.25,-0.25 1.2,-1.1 Q 31.7,7.05 33.5,6.8 m -15.25,6.6 -0.8,1.4 1.25,1.35 q 1.15,1.7 1.7,3.95 l 0.25,1.6 q 0.25,3.4 -2,5.55 -1.1,1.05 -2.6,1.5 L 13,28.8 Q 11.9,28.5 11.1,27.9 L 11,28.35 q 0.05,0.75 0.95,1.75 l 0.5,0.4 0.55,-0.1 4.1,-0.3 q 0.65,0.2 0.95,0.5 0.4,0.5 0.2,0.95 L 17.9,31.95 17.4,31.9 16.95,31.5 16.5,31.4 q -0.65,0.05 -1.55,0.4 l -1.5,0.65 -2.6,-0.1 -0.9,-0.7 L 9.25,30.9 8.7,30.2 8.4,29.4 Q 8.05,28 8.35,26.8 q 0.25,-1.1 1,-1.9 l -0.1,-0.6 v -1.65 q 0.25,-1.4 2.2,-3.9 L 11.9,18.1 11.55,18.15 8.05,17.9 Q 6.3,17.3 5.2,16.05 H 5.15 l -1.1,0.65 -1,0.1 L 1.7,16.7 Q -0.2,16.25 -1,14 l -0.25,-1.3 0.1,-0.7 0.3,-0.9 Q -0.3,9.75 1.05,9.2 L 3.75,9 3.8,9.05 4.15,8.15 Q 5,6.45 6.5,5.35 6.15,4.65 6.2,4 L 6.3,3.35 Q 6.4,2.75 6.65,2.3 7.1,1.3 8.2,0.75 9.2,0.2 10.35,0.3 q 1,0 2,0.5 L 12.9,1.15 Q 14.15,2.05 14,3.4 L 13.75,3.2 12.65,2.7 Q 11.5,2.45 10.5,3.15 9.9,3.6 9.6,4.2 9.3,4.85 9.35,5.4 L 9.45,6.35 9.6,6.7 q 0.65,1.4 2.25,1.5 1.6,0.15 2.5,-1.15 1,-1.25 0.35,-2.65 l 1.45,0.9 0.7,0.55 q 1.15,1 1.6,2 0.35,0.75 0.35,2.15 0,2 -0.55,3.4 m 35.45,6.85 q -0.25,0.55 -0.2,1.15 l 0.5,0.1 0.7,0.45 0.95,0.75 0.5,0.85 q 0.8,-0.15 1.35,-0.7 0.85,-1 0.6,-2.05 l -0.9,0.05 -0.8,-0.1 -1,-0.25 -1.65,-0.3 -0.05,0.05 m -1.9,3.6 0.05,-0.25 V 23.05 L 51.65,22.3 51.5,21.6 V 21.55 21.5 l 0.25,-0.7 0.05,-0.6 -0.05,-0.4 -0.3,-0.25 -0.1,0.05 q -0.35,0 -0.75,0.5 l -0.35,0.45 -0.05,0.2 -0.3,0.1 -1.35,0.35 q -0.4,0.15 -0.5,0.55 0,0.45 0.45,0.55 l 0.55,-0.1 h 1.15 l 0.15,0.25 0.3,0.3 0.25,0.6 0.3,0.5 q 0.3,0.3 0.6,0 M 46.6,14.2 q -0.95,0 -1.75,0.65 l -0.7,1.05 -0.1,0.35 0.05,0.05 0.8,0.3 0.7,0.3 0.95,0.65 0.95,1.05 0.25,0.65 0.1,0.15 0.05,-0.05 1.05,-0.9 0.4,-1 Q 49.6,16.15 48.8,15.2 48,14.15 46.7,14.15 L 46.6,14.2 M 72.45,37 v 0.4 l -0.05,0.05 v 0.1 l -0.05,0.05 v 0.05 l -0.05,0.05 -0.05,0.1 -0.05,0.05 v 0.05 l -0.05,0.1 -0.1,0.05 -0.1,0.05 -0.1,0.1 -0.15,0.05 -0.15,0.05 h -0.2 -0.4 -0.2 l -0.1,-0.05 H 70.55 70.4 L 70.3,38.2 H 70.25 L 70.1,38.15 H 69.9 L 69.7,38.1 h -0.5 l -0.25,-0.05 h -0.3 -0.2 L 68.35,38 68.2,37.95 68.1,37.9 h -0.3 -0.15 l -0.2,-0.05 H 67.3 L 67.2,37.8 h -0.15 l -0.2,-0.05 h -0.3 L 66.4,37.7 H 66.2 65.8 L 65.15,37.65 64.95,37.6 64.9,37.55 H 64.8 L 64.65,37.5 64.55,37.45 64.5,37.35 64.45,37.3 V 37.2 37.1 L 64.5,37.05 64.55,37 64.6,36.9 64.7,36.85 h 0.1 L 64.9,36.8 65,36.75 h 0.15 L 65.8,36.7 h 0.4 0.2 l 0.15,-0.05 h 0.3 l 0.2,-0.05 h 0.15 l 0.1,-0.05 h 0.15 l 0.2,-0.05 h 0.15 0.3 l 0.1,-0.05 0.15,-0.05 0.1,-0.05 H 68.5 L 66.7,35.2 q -0.35,-0.35 -0.25,-0.5 0.1,-0.15 0.35,-0.15 l 0.8,0.15 1.65,0.35 -0.4,-1.7 -0.15,-0.8 q 0,-0.25 0.15,-0.35 0.15,-0.1 0.5,0.25 l 1.15,1.8 V 34.2 l 0.05,-0.1 0.05,-0.15 0.05,-0.1 v -0.3 -0.15 l 0.05,-0.2 v -0.15 l 0.05,-0.1 V 32.8 l 0.05,-0.2 v -0.3 l 0.05,-0.15 v -0.2 -0.4 L 70.9,30.9 v -0.15 l 0.05,-0.1 0.05,-0.1 v -0.1 l 0.05,-0.1 0.1,-0.05 0.05,-0.05 0.05,-0.05 h 0.1 0.1 l 0.05,0.05 0.1,0.05 0.05,0.1 0.05,0.15 v 0.1 l 0.05,0.05 0.05,0.2 0.05,0.65 v 0.4 0.2 l 0.05,0.15 v 0.3 l 0.05,0.2 v 0.15 l 0.05,0.1 v 0.15 l 0.05,0.2 v 0.15 0.3 l 0.05,0.1 0.05,0.15 0.05,0.1 v 0.2 0.3 l 0.05,0.25 v 0.5 l 0.05,0.2 v 0.2 L 72.35,36 v 0.05 l 0.05,0.1 v 0.15 0.1 l 0.05,0.1 v 0.2 0.3 m -9,-4.3 0.2,-0.1 h 0.05 l 0.05,-0.05 q 0.35,0 0.45,0.6 l 0.05,0.25 0.55,0.15 0.25,0.45 q 0.1,0.55 -0.6,0.75 l -0.2,0.05 -0.1,0.5 -0.2,0.25 L 63.5,35.7 63.1,35.55 62.9,34.95 63,34.7 62.85,34.65 62.25,34.45 62.1,34 q -0.05,-0.25 0.15,-0.45 0.2,-0.2 0.45,-0.15 h 0.5 l 0.25,-0.7 M 5.95,13.35 6.35,13.7 6.3,13.55 6.5,12.1 6.65,11.6 6.9,11.2 7.9,10.35 8.3,10.25 7,10.15 q -0.65,0.15 -1.05,0.7 -0.45,0.55 -0.45,1.2 0,0.7 0.45,1.3 M 14.3,10.15 13.25,10 13,10.1 12.4,9.7 11.75,9.5 q -0.35,0 -0.55,0.35 l 0.05,0.3 0.2,0.4 0.3,0.35 0.4,0.25 v 0.5 q 0.1,0.55 0.5,0.9 l 0.9,0.3 0.9,-0.3 q 0.4,-0.3 0.5,-0.8 0.15,-0.5 -0.05,-0.9 l -0.6,-0.7"
         fill="#000000"
         fill-rule="evenodd"
         stroke="none"
         id="path11" />
      <path
         d="m 14,3.4 0.35,0.4 0.3,0.55 0.05,0.05 q 0.65,1.4 -0.35,2.65 -0.9,1.3 -2.5,1.15 Q 10.25,8.1 9.6,6.7 L 9.45,6.35 9.35,5.4 Q 9.3,4.85 9.6,4.2 9.9,3.6 10.5,3.15 q 1,-0.7 2.15,-0.45 l 1.1,0.5 0.25,0.2 m 32.6,10.8 0.1,-0.05 q 1.3,0 2.1,1.05 0.8,0.95 0.55,2.25 l -0.4,1 -1.05,0.9 -0.05,0.05 -0.1,-0.15 -0.25,-0.65 -0.95,-1.05 -0.95,-0.65 -0.7,-0.3 -0.8,-0.3 -0.05,-0.05 0.1,-0.35 0.7,-1.05 q 0.8,-0.65 1.75,-0.65 m 5.2,9.65 q -0.3,0.3 -0.6,0 l -0.3,-0.5 -0.25,-0.6 -0.3,-0.3 -0.15,-0.25 h -1.15 l -0.55,0.1 q -0.45,-0.1 -0.45,-0.55 0.1,-0.4 0.5,-0.55 l 1.35,-0.35 0.3,-0.1 0.05,-0.2 0.35,-0.45 q 0.4,-0.5 0.75,-0.5 l 0.1,-0.05 0.3,0.25 0.05,0.4 -0.05,0.6 -0.25,0.7 v 0.05 0.05 l 0.15,0.7 0.2,0.75 v 0.55 l -0.05,0.25 m 1.9,-3.6 0.05,-0.05 1.65,0.3 1,0.25 0.8,0.1 0.9,-0.05 q 0.25,1.05 -0.6,2.05 -0.55,0.55 -1.35,0.7 L 55.65,22.7 54.7,21.95 54,21.5 53.5,21.4 q -0.05,-0.6 0.2,-1.15 m -39.4,-10.1 0.6,0.7 q 0.2,0.4 0.05,0.9 -0.1,0.5 -0.5,0.8 l -0.9,0.3 -0.9,-0.3 q -0.4,-0.35 -0.5,-0.9 v -0.5 l -0.4,-0.25 -0.3,-0.35 -0.2,-0.4 -0.05,-0.3 Q 11.4,9.5 11.75,9.5 l 0.65,0.2 0.6,0.4 0.25,-0.1 1.05,0.15 m -8.35,3.2 Q 5.5,12.75 5.5,12.05 5.5,11.4 5.95,10.85 6.35,10.3 7,10.15 l 1.3,0.1 -0.4,0.1 -1,0.85 -0.25,0.4 -0.15,0.5 -0.2,1.45 0.05,0.15 -0.4,-0.35"
         fill="#ffffff"
         fill-rule="evenodd"
         stroke="none"
         id="path12" />
      <path
         d="M 26.9,18.95 25.5,19.8 24.95,19.95 24.35,19.8 22.9,18.95 Q 19.9,16.7 18.25,13.4 18.8,12 18.8,10 q 0,-1.4 -0.35,-2.15 -0.45,-1 -1.6,-2 L 16.15,5.3 q 0,-0.75 0.3,-1.1 Q 17,3.6 17.9,3.9 l 1.45,0.7 Q 20.8,5.1 22.9,4.05 l 1.4,-0.6 h 1.2 l 1.4,0.6 Q 29,5.1 30.45,4.6 L 31.9,3.9 q 0.9,-0.3 1.45,0.3 0.45,0.5 0.25,1.95 L 33.5,6.8 q -1.8,0.25 -3.35,1.45 l -1.2,1.1 -0.25,0.25 q -0.7,0.75 -1.1,1.6 l -0.15,0.2 -0.8,1.8 q -0.8,2.2 -0.05,4.85 l 0.3,0.9 m -3.65,-11.5 -0.85,2.6 -0.1,0.45 -0.95,3.1 0.45,0.7 0.4,0.4 0.3,-1 0.4,-1.35 0.25,-0.6 0.6,-1.65 0.7,-2.2 0.5,-0.95 L 24.9,6.9 24,7.25 23.25,7.45 M 20.1,11.3 20.5,10.2 21.4,8.2 21.65,7.65 21,7.7 18.9,7.55 q 0.4,2 1.2,3.75"
         fill="#999999"
         fill-rule="evenodd"
         stroke="none"
         id="path13" />
    </g>
    <g
       id="shape2"
       transform="translate(2,2.05)">
      <path
         d="M -0.5,-0.4 V -0.55 H 75.1 V -0.4 40.8 H -0.5 Z"
         fill="none"
         stroke="#000000"
         stroke-linecap="round"
         stroke-linejoin="round"
         stroke-width="3"
         id="path14" />
    </g>
  </defs>
</svg>
