<?xml version="1.0" encoding="UTF-8" standalone="no"?>
<svg
   ffdec:objectType="frame"
   height="60.549999"
   width="67.099998"
   version="1.1"
   id="svg6"
   sodipodi:docname="791.svg"
   xmlns:inkscape="http://www.inkscape.org/namespaces/inkscape"
   xmlns:sodipodi="http://sodipodi.sourceforge.net/DTD/sodipodi-0.dtd"
   xmlns:xlink="http://www.w3.org/1999/xlink"
   xmlns="http://www.w3.org/2000/svg"
   xmlns:svg="http://www.w3.org/2000/svg"
   xmlns:ffdec="https://www.free-decompiler.com/flash">
  <sodipodi:namedview
     id="namedview6"
     pagecolor="#ffffff"
     bordercolor="#000000"
     borderopacity="0.25"
     inkscape:showpageshadow="2"
     inkscape:pageopacity="0.0"
     inkscape:pagecheckerboard="0"
     inkscape:deskcolor="#d1d1d1"
     fit-margin-top="5"
     fit-margin-left="5"
     fit-margin-right="5"
     fit-margin-bottom="5" />
  <g
     transform="translate(1.5,1.5)"
     id="g3">
    <use
       ffdec:characterId="516"
       height="57.549999"
       width="64.099998"
       xlink:href="#shape0"
       id="use1" />
    <use
       ffdec:characterId="1279"
       height="53.049999"
       transform="translate(-0.5,4.5)"
       width="64.599998"
       xlink:href="#shape1"
       id="use2" />
    <use
       ffdec:characterId="518"
       height="60.549999"
       transform="translate(-1.5,-1.5)"
       width="67.099998"
       xlink:href="#shape2"
       id="use3" />
  </g>
  <defs
     id="defs6">
    <g
       id="shape0">
      <path
         d="M 53.6,0 H 64.1 V 57.55 H 53.6 28.25 0 V 0 H 28.25 53.6 V 57.55 0 M 28.25,0 V 57.55 0"
         fill="#ffffff"
         fill-rule="evenodd"
         stroke="none"
         id="path3" />
    </g>
    <g
       id="shape1"
       transform="translate(0.5,-4.5)">
      <path
         d="m 47.75,8 q 2.05,0.4 1.5,2.3 -0.25,0.85 -1.1,1 -1.5,0.25 -1.9,-1.15 -0.4,-1.35 0.9,-2 L 47.75,8 m 6.2,18 q 1.55,0.45 0.75,1.8 -0.3,0.5 -0.85,0.3 Q 52.45,27.65 53.2,26.45 53.5,26 53.95,26 m -12.1,12.25 q 1.1,0.3 1.05,1.45 l -0.15,0.65 Q 42.3,42.8 40.05,43.8 H 39.4 Q 38.1,43.15 38.3,41.65 L 38.5,41 38.75,40.65 q -0.15,-2 0.6,-3.85 0.35,-0.9 1.2,-1.05 1.25,0.5 0.75,1.85 L 40.85,38.9 41,38.7 q 0.35,-0.4 0.85,-0.45 M 0,38.3 h 0.05 q 0.25,-0.25 0.7,-0.4 1.75,-0.65 3.5,-0.95 l 7.6,0.45 q 1.25,0 2.35,0.55 l 2.2,0.35 h 17 l 0.85,-0.3 1.2,-1.25 q 0.2,-0.25 0.5,-0.25 l 0.25,0.1 0.05,-0.15 q 0.45,-0.75 1.2,-1.05 1.35,0.55 0.3,1.8 -0.5,0.55 -0.7,1.25 l -0.6,1.7 -0.05,0.25 -0.2,0.5 -0.2,0.9 q 0.9,0.7 0.85,2.15 l -0.2,0.75 3.2,-0.8 q 2.7,-0.8 3.2,-3.5 0.1,-0.75 -0.15,-1.45 L 42.6,38.3 h 7.9 l 1.9,-0.35 q 4.1,0.25 8,-0.75 2,-0.35 2.95,1.1 H 64.1 V 57.55 H 0 V 40.4 L -0.35,40.05 Q -0.75,38.95 0,38.35 V 38.3 M 28.55,17.95 q 2,0.35 1.45,2.25 -0.2,0.8 -1.05,0.95 -1.65,0.3 -1.9,-1.3 Q 26.8,18.5 28.1,18 l 0.45,-0.05 M 17.65,4.5 Q 19.5,5 18.5,6.6 L 17.9,6.95 Q 16.5,7.05 16.5,5.7 16.55,4.6 17.65,4.5 M 6.3,29.7 Q 8.25,30.2 7.25,31.9 6.95,32.45 6.3,32.4 4.95,32.25 5.05,30.95 5.1,29.8 6.3,29.7 M 32.55,43.4 Q 33,44.3 33.8,44.65 L 33.75,44.6 33.45,44.1 Q 32.5,43.3 32.7,42.6 l -0.3,-0.4 -0.1,-0.05 q -0.05,0.65 0.25,1.25"
         fill="#999999"
         fill-rule="evenodd"
         stroke="none"
         id="path4" />
      <path
         d="m 41.05,21.1 q 0.5,-0.95 1.4,-1.2 v -0.05 q 0,-1 -0.7,-1.65 L 40.7,18.1 q -0.65,0.1 -1.1,0.55 v 0.05 l -0.1,0.3 -0.15,0.25 -0.15,0.2 v 0.05 0.1 0.15 0.1 q 0.6,1.1 1.85,1.3 V 21.1 m 3.05,3.3 q -1.85,0.8 -3,-0.85 L 40.75,22.8 q -2.6,-0.2 -3.6,-2.5 l -0.2,-0.6 q -0.1,-1 0.5,-1.85 0.25,-0.65 0.8,-1.1 1.05,-0.8 2.25,-0.95 3.05,-0.15 3.7,2.6 l 0.1,0.5 q 0.95,-1.2 2.55,-1.6 2.9,-0.15 3.5,2.5 0.25,0.95 -0.35,1.75 -1.1,1.5 -3,1.85 l -1.75,-0.1 q -0.3,0.75 -1.15,1.1 m 2.85,-2.8 0.65,-0.15 1.1,-0.6 V 20.8 l 0.1,-0.15 0.1,-0.25 0.1,-0.2 q -0.1,-0.6 -0.6,-0.95 l -2.15,0.05 -1.15,1.6 0.3,0.9 1.55,-0.2 m -33.8,18.8 0.55,0.05 0.25,-0.15 q 1.1,-3.2 4.55,-3.95 l 3.35,-0.1 -2.15,-3.15 q -2.1,1.1 -4,-0.45 Q 14.9,32 15.05,31 q 0.25,-2 2.05,-2.5 0.1,-1.55 1.25,-2.75 0.95,-0.95 2.25,-1.05 3,-0.25 3.75,2.5 0.35,1.25 -0.35,2.45 l -0.5,0.9 2.15,4.55 q 0.4,-1.25 1.05,-2.35 1.8,-3.1 5.2,-4.3 1.35,-0.5 2.7,-0.65 4.3,-0.05 7.25,3.1 0.95,1 1.5,2.25 0.6,1.35 0.6,2.75 l 1.5,0.05 q -0.15,-3.1 1.6,-5.75 0.7,-1 1.75,-1.6 l 0.85,-0.2 q 2.5,0.45 1.85,2.75 -0.3,1.05 -1.35,1.35 l -0.95,0.25 q -1.6,1.4 -1.8,3.55 l 2.1,0.7 v -0.05 q 0.75,-2.5 3.2,-3.35 l 1.05,-0.2 q 2.5,0.5 1.8,2.85 -0.25,0.8 -1.05,1.05 l -2.05,0.25 q -0.7,0 -1.3,0.35 l 1.2,1.35 q 3.45,0.25 6,2.55 1.9,1.65 1.8,4.2 -0.15,2.75 -2.8,3.95 l -2.75,0.8 -6.2,0.65 q -2.9,2.55 -6.85,1.75 -1.05,-0.2 -2,-0.8 l -0.5,-0.3 q -5.95,0.3 -12,0 -3.4,2.45 -7.6,1.25 -2.75,-0.8 -4.05,-2.95 -4.4,1.4 -9,0.4 Q 5.4,50.5 4.85,49.65 3.45,47.3 4.8,44.95 5.9,43 7.95,41.9 q 2.5,-1.3 5.2,-1.5 M 42.2,38.7 42.15,38.45 42,38.85 41.25,39.7 40.9,39.9 q -3.4,2.5 -7.45,2.35 l 0.05,0.25 0.6,0.15 q 1.4,0.25 2.35,1.35 l 3.7,-1.35 0.85,-0.45 1,-1.7 q 0.4,-0.85 0.2,-1.8 m -3.25,-2.35 -1.05,0.1 -0.65,0.05 -0.2,0.15 H 37 l -0.1,0.05 -0.1,0.1 1,0.15 0.6,0.3 q 0.65,1.9 -1.4,2.7 l -0.95,0.25 v 0.1 l -0.1,0.35 -0.1,0.05 -0.2,0.05 L 35.45,40.7 35.4,40.65 35.25,40.5 35.2,40.2 34.35,39.9 34.3,39.8 34.2,39.7 v -0.1 -0.05 l 0.1,-0.15 0.05,-0.05 2.15,-0.55 1,-0.75 q -1.05,-0.3 -2.2,0 L 35.15,38 34.75,38.25 Q 33.9,38.9 33.3,39.7 l -0.05,0.15 v 0.1 l -0.05,0.1 -0.05,0.15 -0.05,0.45 0.1,0.15 0.05,0.05 0.05,0.1 0.25,0.05 0.1,0.05 0.05,0.05 q 4.15,-0.25 7,-3.1 l 0.25,-0.7 q 0,-0.4 -0.35,-0.65 l -0.7,-0.2 -0.95,-0.1 M 16.2,12.05 q 2.5,-0.2 3,2.1 0.35,1.45 -0.4,2.75 -0.6,1.05 -1.5,1.5 l -0.05,0.9 q -0.2,1.35 -1.6,1.7 l -1.3,0.05 -1,0.55 Q 10.6,22.7 9.05,20.35 8.35,19.3 8.8,18.1 9.5,16 11.6,15.65 l 1.4,0.2 q 0.15,-2.55 2.65,-3.65 l 0.55,-0.15 m 0.15,2 -0.45,0.2 -0.3,0.15 q -0.25,0.2 -0.35,0.5 l -0.3,0.7 0.1,0.85 1.2,0.35 0.95,-1.5 0.2,-0.65 -0.05,-0.15 v -0.1 l -0.2,-0.3 -0.8,-0.05 m -4.1,3.8 -0.75,0.05 -0.5,0.55 q -0.4,0.65 0,1.25 l 0.1,0.15 0.15,0.1 0.25,0.1 0.1,0.05 1.4,-0.25 q -0.5,-1.05 -0.15,-1.9 l -0.6,-0.1"
         fill="#000000"
         fill-rule="evenodd"
         stroke="none"
         id="path5" />
    </g>
    <g
       id="shape2"
       transform="translate(1.5,1.5)">
      <path
         d="M 0,23.8 V 0 H 64.1 V 23.8 57.55 H 0 Z"
         fill="none"
         stroke="#000000"
         stroke-linecap="round"
         stroke-linejoin="round"
         stroke-width="3"
         id="path6" />
    </g>
  </defs>
</svg>
