<?xml version="1.0" encoding="UTF-8" standalone="no"?>
<svg
   ffdec:objectType="frame"
   height="60.549999"
   width="67.099998"
   version="1.1"
   id="svg8"
   sodipodi:docname="273.svg"
   xmlns:inkscape="http://www.inkscape.org/namespaces/inkscape"
   xmlns:sodipodi="http://sodipodi.sourceforge.net/DTD/sodipodi-0.dtd"
   xmlns:xlink="http://www.w3.org/1999/xlink"
   xmlns="http://www.w3.org/2000/svg"
   xmlns:svg="http://www.w3.org/2000/svg"
   xmlns:ffdec="https://www.free-decompiler.com/flash">
  <sodipodi:namedview
     id="namedview8"
     pagecolor="#ffffff"
     bordercolor="#000000"
     borderopacity="0.25"
     inkscape:showpageshadow="2"
     inkscape:pageopacity="0.0"
     inkscape:pagecheckerboard="0"
     inkscape:deskcolor="#d1d1d1"
     fit-margin-top="5"
     fit-margin-left="5"
     fit-margin-right="5"
     fit-margin-bottom="5" />
  <g
     transform="translate(1.5,1.5)"
     id="g3">
    <use
       ffdec:characterId="516"
       height="57.549999"
       width="64.099998"
       xlink:href="#shape0"
       id="use1" />
    <use
       ffdec:characterId="776"
       height="55.549999"
       transform="translate(1.9,2.7)"
       width="57.799999"
       xlink:href="#shape1"
       id="use2" />
    <use
       ffdec:characterId="518"
       height="60.549999"
       transform="translate(-1.5,-1.5)"
       width="67.099998"
       xlink:href="#shape2"
       id="use3" />
  </g>
  <defs
     id="defs8">
    <g
       id="shape0">
      <path
         d="M 53.6,0 H 64.1 V 57.55 H 53.6 28.25 0 V 0 H 28.25 53.6 V 57.55 0 M 28.25,0 V 57.55 0"
         fill="#ffffff"
         fill-rule="evenodd"
         stroke="none"
         id="path3" />
    </g>
    <g
       id="shape1"
       transform="translate(-1.9,-2.7)">
      <path
         d="m 59.5,20.2 q 0,1.7 -0.7,2.95 -0.6,1.05 -1.6,1.75 v 0.75 l 0.1,0.4 0.35,0.15 q 0.85,0.4 1.15,1.3 l 0.15,0.6 0.1,0.95 q -0.1,0.85 -1.2,1.85 L 58,31.65 57.65,32.3 q -0.45,0.35 -1.35,0.3 l -0.45,-0.05 -0.1,0.1 -0.55,0.75 -0.9,0.1 -0.55,-0.1 -1.4,0.25 -0.9,-0.6 h -0.1 L 50.75,33.2 50,33.35 49.1,33.1 48.7,32.75 48.5,32.3 q -0.1,-0.4 0.25,-0.8 L 48.1,30.7 47.8,30.05 q -1.05,0.4 -1.65,0.75 -0.65,0.25 -1.05,0.7 l 0.4,-0.05 0.85,-0.1 0.85,0.3 0.5,0.6 q 0.2,0.7 -0.35,1.2 -0.45,0.45 -1.15,0.5 L 44.9,33.8 43.55,33.4 43.05,33 Q 42.9,32.75 42.9,32.2 l 0.05,-0.9 0.35,-0.65 q 0.7,-0.85 2,-1.5 l 2.35,-0.85 0.3,-0.1 0.25,-0.4 q 0.4,-0.6 1,-0.9 l 0.5,-0.45 0.05,-0.4 0.15,-0.5 0.3,-0.55 -0.7,-0.5 q -0.75,-0.7 -1.15,-1.6 -0.4,-0.95 -0.3,-1.9 l 0.35,-1.35 0.5,-1.05 0.3,-0.3 -0.3,-0.5 -0.1,-0.65 0.1,-0.9 0.45,-1 0.2,-0.5 0.2,-0.55 Q 50,13.9 50.4,13.85 l 0.65,0.2 0.4,0.45 0.5,0.95 0.35,0.5 3.35,-0.1 0.15,-0.2 1.2,-1.3 q 0.35,-0.55 0.65,-0.65 h 0.45 l 0.4,0.3 0.15,0.6 0.25,0.85 0.2,0.9 0.1,0.55 v 0.8 l 0.05,0.35 0.05,0.5 v 0.1 l 0.2,1.55 m -1.25,0.5 0.5,-0.4 v -0.8 l -0.3,-0.35 q -0.4,-0.25 -0.85,0 -0.35,0.2 -0.45,0.7 l 0.25,0.6 0.15,0.15 0.7,0.1 m -8.05,0.65 q 0.8,0 0.9,-0.8 l -0.2,-0.6 -0.5,-0.35 -0.6,0.15 q -0.35,0.2 -0.4,0.5 v 0.3 l 0.1,0.3 0.35,0.4 0.35,0.1 m -8.05,20 -0.45,0.6 -0.35,0.1 -0.4,-0.25 Q 40.6,41.4 40.8,40.65 l 0.05,-0.35 1.3,-4.7 0.3,-0.35 q 0.85,-0.75 1.8,-0.25 1,0.5 0.9,1.6 l -0.4,1.1 -1.55,2.2 -0.65,0.95 -0.4,0.5 m 16.55,-0.95 -2.6,2.4 -0.4,0.6 -0.55,0.5 -1,1.25 -2.3,2 q -0.5,0.4 -0.8,0.2 l -0.15,-0.45 0.2,-0.45 5.1,-8.3 q 0.4,-0.65 0.75,-0.85 0.45,-0.35 1.1,-0.3 0.6,0.05 1.05,0.4 l 0.55,1 -0.15,1.1 -0.8,0.9 M 40.35,21.95 q 0.05,2.3 -0.9,3.95 -0.8,1.45 -2.2,2.4 l 0.05,1 0.1,0.5 0.45,0.25 q 1.2,0.5 1.6,1.7 l 0.2,0.85 0.1,1.25 q -0.1,1.15 -1.6,2.55 0.3,0.4 0.2,1 -0.05,0.55 -0.5,0.85 -0.55,0.45 -1.8,0.4 l -0.6,-0.05 -0.1,0.15 -0.8,1 -1.2,0.1 -0.7,-0.1 q -0.7,0.55 -1.9,0.3 -0.9,-0.25 -1.25,-0.8 h -0.1 l -0.85,0.25 -1,0.15 -1.2,-0.3 -0.55,-0.5 -0.3,-0.6 Q 25.4,37.7 25.85,37.2 L 25,36.1 24.6,35.25 q -1.45,0.5 -2.25,0.95 -0.85,0.4 -1.4,1 L 21.5,37.1 22.65,37 q 0.6,0.05 1.1,0.35 0.55,0.35 0.7,0.85 0.25,0.95 -0.45,1.6 -0.6,0.6 -1.55,0.7 l -1.8,-0.2 -1.8,-0.55 -0.65,-0.55 q -0.25,-0.35 -0.25,-1.05 l 0.1,-1.25 0.5,-0.85 q 0.9,-1.2 2.65,-2.05 l 3.2,-1.15 0.4,-0.1 0.3,-0.55 q 0.6,-0.8 1.4,-1.25 l 0.65,-0.6 0.1,-0.5 0.2,-0.7 0.4,-0.75 -0.95,-0.7 Q 25.9,26.8 25.35,25.6 24.8,24.3 24.95,23 L 24.4,22.85 24.05,22.5 23.85,22.15 Q 23.8,21.8 24.1,21.45 l -0.55,-0.65 -0.25,-0.55 -1.4,0.6 q -0.55,0.25 -0.9,0.6 l 0.35,-0.05 0.7,-0.05 0.7,0.2 0.45,0.55 q 0.15,0.6 -0.25,1 -0.4,0.4 -1,0.45 L 20.8,23.45 19.65,23.1 19.25,22.75 Q 19.1,22.5 19.1,22.05 l 0.05,-0.75 0.35,-0.55 q 0.55,-0.75 1.65,-1.3 l 2.05,-0.75 0.25,-0.05 0.15,-0.35 0.9,-0.8 0.4,-0.35 0.1,-0.35 0.1,-0.4 0.25,-0.5 -0.6,-0.45 -0.95,-1.3 Q 23.45,13.3 23.55,12.5 l 0.25,-1.15 0.45,-0.9 0.2,-0.25 L 24.2,9.75 24.15,9.2 24.2,8.45 24.6,7.6 24.8,7.15 25,6.7 q 0.15,-0.25 0.5,-0.3 l 0.6,0.15 0.3,0.4 0.45,0.85 0.3,0.4 2.85,-0.1 0.15,-0.15 1,-1.1 q 0.3,-0.5 0.55,-0.6 h 0.4 L 32.45,6.5 32.55,7 32.8,7.8 32.95,8.5 33,9 33.05,9.35 33,9.7 33.05,10 33.1,10.4 v 0.1 l 0.15,1.35 q 0.05,1.45 -0.55,2.5 -0.5,0.9 -1.4,1.5 l 0.05,0.2 q 1.85,-0.35 3.8,0 l 0.25,-0.25 1.6,-1.75 0.85,-0.9 q 0.35,-0.15 0.65,0 l 0.55,0.4 0.2,0.8 0.35,1.2 0.25,1.15 0.1,0.8 0.05,0.55 -0.05,0.5 0.1,0.5 0.05,0.65 v 0.15 l 0.25,2.1 m -1.6,-0.05 0.3,-0.8 -0.1,-0.6 q -0.35,-0.9 -1.3,-0.8 -1,0.1 -1.2,1.1 -0.1,1.05 0.75,1.45 0.9,0.35 1.55,-0.35 M 28.3,22.95 q 1,-0.25 1,-1.3 0.1,-1 -0.85,-1.35 L 27.6,20.2 q -0.5,0.1 -0.75,0.45 -0.65,0.75 -0.2,1.65 l 0.4,0.4 0.55,0.25 h 0.7 m -3.35,-11 -0.05,0.25 0.05,0.25 0.1,0.15 0.8,0.05 q 0.3,-0.2 0.2,-0.7 l -0.1,-0.05 -0.15,-0.25 -0.3,-0.1 v 0.05 q -0.2,-0.05 -0.45,0.15 l -0.1,0.2 m 6.15,0.3 0.05,0.15 0.55,0.35 h 0.2 l 0.25,-0.2 0.15,-0.35 -0.05,-0.4 -0.45,-0.3 -0.35,0.05 Q 31.1,11.75 31.1,12 v 0.25 M 18.5,20.2 q 0,1.7 -0.7,2.95 -0.6,1.05 -1.6,1.75 v 0.75 l 0.1,0.4 0.35,0.15 q 0.85,0.4 1.15,1.3 l 0.15,0.6 0.1,0.95 q -0.1,0.85 -1.2,1.85 L 17,31.65 16.65,32.3 q -0.45,0.35 -1.35,0.3 l -0.45,-0.05 -0.1,0.1 -0.55,0.75 -0.9,0.1 -0.55,-0.1 -1.4,0.25 -0.9,-0.6 h -0.1 L 9.75,33.2 9,33.35 8.1,33.1 7.7,32.75 7.5,32.3 Q 7.4,31.9 7.75,31.5 L 7.1,30.7 6.8,30.05 Q 5.75,30.45 5.15,30.8 4.5,31.05 4.1,31.5 l 0.4,-0.05 0.85,-0.1 0.85,0.3 0.5,0.6 q 0.2,0.7 -0.35,1.2 Q 5.9,33.9 5.2,33.95 L 3.9,33.8 2.55,33.4 2.05,33 Q 1.9,32.75 1.9,32.2 l 0.05,-0.9 0.35,-0.65 2,-1.5 2.35,-0.85 0.3,-0.1 0.25,-0.4 q 0.4,-0.6 1,-0.9 L 8.7,26.45 8.75,26.05 8.9,25.55 9.2,25 8.5,24.5 Q 7.75,23.8 7.35,22.9 6.95,21.95 7.05,21 L 7.4,19.65 7.9,18.6 8.2,18.3 7.9,17.8 7.8,17.15 l 0.1,-0.9 0.45,-1 0.2,-0.5 0.2,-0.55 Q 9,13.9 9.4,13.85 l 0.65,0.2 0.4,0.45 0.5,0.95 0.35,0.5 3.35,-0.1 0.15,-0.2 1.2,-1.3 q 0.35,-0.55 0.65,-0.65 h 0.45 l 0.4,0.3 0.15,0.6 0.25,0.85 0.2,0.9 0.1,0.55 v 0.8 l 0.05,0.35 0.05,0.5 v 0.1 l 0.2,1.55 m -1.2,0.3 q 0.4,-0.4 0.2,-1 -0.25,-0.55 -0.85,-0.55 L 16.6,19 q -0.55,0 -0.8,0.5 -0.25,0.5 0.1,0.95 l 0.35,0.25 q 0.6,0.35 1.05,-0.2 m -8.9,0.25 0.4,0.5 0.6,0.2 Q 9.6,21.4 9.75,21.3 l 0.3,-0.2 0.2,-0.65 q 0,-0.65 -0.55,-0.9 L 9.35,19.5 Q 9,19.5 8.7,19.8 8.4,20.05 8.35,20.45 l 0.05,0.3 m 4.25,28.75 q 0,0.5 -0.35,0.65 -0.25,0.1 -0.75,-0.2 -1.45,-1 -2.35,-1.9 L 8.2,46.95 6.05,44.65 5.5,43.7 4.7,42.7 4.15,41.5 Q 4.1,40.95 4.4,40.45 q 0.3,-0.5 0.85,-0.7 l 1.15,0.1 q 0.55,0.2 0.8,0.7 l 0.25,0.65 1.15,2 1.85,2.85 1.3,1.75 q 0.85,1.05 0.9,1.7"
         fill="#999999"
         fill-rule="evenodd"
         stroke="none"
         id="path4" />
      <path
         d="m 50.2,21.35 -0.35,-0.1 -0.35,-0.4 -0.1,-0.3 v -0.3 q 0.05,-0.3 0.4,-0.5 l 0.6,-0.15 0.5,0.35 0.2,0.6 q -0.1,0.8 -0.9,0.8 m 8.05,-0.65 -0.7,-0.1 -0.15,-0.15 -0.25,-0.6 q 0.1,-0.5 0.45,-0.7 0.45,-0.25 0.85,0 l 0.3,0.35 v 0.8 l -0.5,0.4 M 31.1,12.25 V 12 q 0,-0.25 0.35,-0.45 l 0.35,-0.05 0.45,0.3 0.05,0.4 -0.15,0.35 -0.25,0.2 H 31.7 L 31.15,12.4 31.1,12.25 m -6.15,-0.3 0.1,-0.2 q 0.25,-0.2 0.45,-0.15 v -0.05 l 0.3,0.1 0.15,0.25 0.1,0.05 q 0.1,0.5 -0.2,0.7 l -0.8,-0.05 -0.1,-0.15 -0.05,-0.25 0.05,-0.25 m 3.35,11 H 27.6 L 27.05,22.7 26.65,22.3 Q 26.2,21.4 26.85,20.65 27.1,20.3 27.6,20.2 l 0.85,0.1 q 0.95,0.35 0.85,1.35 0,1.05 -1,1.3 M 38.75,21.9 q -0.65,0.7 -1.55,0.35 -0.85,-0.4 -0.75,-1.45 0.2,-1 1.2,-1.1 0.95,-0.1 1.3,0.8 l 0.1,0.6 -0.3,0.8 M 8.4,20.75 8.35,20.45 Q 8.4,20.05 8.7,19.8 9,19.5 9.35,19.5 l 0.35,0.05 q 0.55,0.25 0.55,0.9 l -0.2,0.65 -0.3,0.2 Q 9.6,21.4 9.4,21.45 l -0.6,-0.2 -0.4,-0.5 m 8.9,-0.25 q -0.45,0.55 -1.05,0.2 L 15.9,20.45 Q 15.55,20 15.8,19.5 16.05,19 16.6,19 l 0.05,-0.05 q 0.6,0 0.85,0.55 0.2,0.6 -0.2,1"
         fill="#ffffff"
         fill-rule="evenodd"
         stroke="none"
         id="path5" />
      <path
         d="M 53.45,12.1 52.4,11.25 51.65,10.85 Q 51.3,10.45 51.4,9.9 q 0.2,-1 1.05,-1.25 0.95,-0.35 1.65,0.3 0.5,-0.5 1.25,-0.5 0.75,0 1.25,0.5 0.45,0.35 0.45,0.9 -0.05,0.6 -0.9,1.15 l -1.1,0.8 q 0.15,0.5 -0.25,0.85 -0.5,0.3 -0.85,0 l -0.5,-0.55 m -28.1,30.95 6.15,-0.4 6.15,0.4 3.25,0.95 0.1,0.05 2.65,-1.7 q 1.25,-0.85 2.1,-1.2 1.25,-0.6 2.45,-0.3 0.55,0.1 0.8,0.4 0.45,0.35 0.55,1.1 l -0.05,1.3 -0.55,4.2 -0.45,2.4 2.25,3.9 q 0.95,1.9 0.15,2.9 -0.5,0.6 -1.8,0.7 l -2.6,0.2 h -0.05 l -2.5,0.3 -8.9,-0.45 -3.55,-0.15 -3.55,0.15 -8.9,0.45 -2.5,-0.3 -2.65,-0.2 q -1.3,-0.1 -1.8,-0.7 -0.8,-1 0.15,-2.9 1.05,-2.15 2.25,-3.9 l -0.45,-2.4 -0.55,-4.2 -0.05,-1.3 q 0.1,-0.75 0.55,-1.1 0.25,-0.3 0.8,-0.4 1.2,-0.3 2.45,0.3 0.85,0.35 2.1,1.2 L 22,44.05 22.1,44 25.35,43.05 M 32.65,13.8 32.6,13.6 32.35,13.45 31.7,12.95 30.95,12.75 30.5,12.45 30.15,12.1 29.7,11.45 29.65,11.3 29.5,10.25 29.6,9.95 29.8,9.15 30.6,8.3 31.15,8 l 0.4,-0.05 1.65,0.25 0.4,0.3 0.25,0.25 0.1,-0.15 0.9,-0.3 0.05,-0.05 1.5,0.1 0.35,0.15 0.35,0.25 0.5,0.8 -0.1,1.05 v 0.5 l -0.4,0.7 -0.75,0.65 -0.6,0.4 -1.45,0.8 -0.25,0.2 q -0.2,0.3 -0.65,0.4 -0.5,0 -0.75,-0.45 m -16.3,-4.35 -1.8,1.15 -0.4,0.6 -0.65,0.25 -0.55,-0.5 L 12.5,10.7 12.05,10.35 11.8,10.25 10.85,9.6 10.65,9.3 10.6,8.7 10.55,8.35 10.8,7.75 11.35,7.4 12.35,7.05 13.6,7.3 14.5,6.7 14.9,6.65 Q 15.25,6.6 15.85,6.9 l 0.35,0.2 0.2,0.3 0.1,0.25 0.25,0.7 -0.4,1.1"
         fill="#000000"
         fill-rule="evenodd"
         stroke="none"
         id="path6" />
      <path
         d="M 29.35,5.95 28.9,6.3 28.55,6.05 28.3,5.65 27.8,5.35 27.2,4.7 26.8,4.1 Q 26.55,3.3 27.25,2.85 28,2.45 28.55,3.1 28.7,3.25 28.8,3.25 L 29,3.1 q 0.25,-0.3 1.05,-0.3 l 0.6,0.1 q 0.3,0.25 0.2,0.95 l -0.2,0.6 -1,1.05 -0.3,0.45"
         fill="#999999"
         fill-rule="evenodd"
         stroke="none"
         id="path7" />
    </g>
    <g
       id="shape2"
       transform="translate(1.5,1.5)">
      <path
         d="M 0,23.8 V 0 H 64.1 V 23.8 57.55 H 0 Z"
         fill="none"
         stroke="#000000"
         stroke-linecap="round"
         stroke-linejoin="round"
         stroke-width="3"
         id="path8" />
    </g>
  </defs>
</svg>
