<?xml version="1.0" encoding="UTF-8" standalone="no"?>
<svg
   ffdec:objectType="frame"
   height="60.549999"
   width="67.099998"
   version="1.1"
   id="svg7"
   sodipodi:docname="830.svg"
   xmlns:inkscape="http://www.inkscape.org/namespaces/inkscape"
   xmlns:sodipodi="http://sodipodi.sourceforge.net/DTD/sodipodi-0.dtd"
   xmlns:xlink="http://www.w3.org/1999/xlink"
   xmlns="http://www.w3.org/2000/svg"
   xmlns:svg="http://www.w3.org/2000/svg"
   xmlns:ffdec="https://www.free-decompiler.com/flash">
  <sodipodi:namedview
     id="namedview7"
     pagecolor="#ffffff"
     bordercolor="#000000"
     borderopacity="0.25"
     inkscape:showpageshadow="2"
     inkscape:pageopacity="0.0"
     inkscape:pagecheckerboard="0"
     inkscape:deskcolor="#d1d1d1"
     fit-margin-top="5"
     fit-margin-left="5"
     fit-margin-right="5"
     fit-margin-bottom="5" />
  <g
     transform="translate(1.5,1.5)"
     id="g3">
    <use
       ffdec:characterId="516"
       height="57.549999"
       width="64.099998"
       xlink:href="#shape0"
       id="use1" />
    <use
       ffdec:characterId="1318"
       height="49.950001"
       transform="translate(-0.1,2.2)"
       width="62.049999"
       xlink:href="#shape1"
       id="use2" />
    <use
       ffdec:characterId="518"
       height="60.549999"
       transform="translate(-1.5,-1.5)"
       width="67.099998"
       xlink:href="#shape2"
       id="use3" />
  </g>
  <defs
     id="defs7">
    <g
       id="shape0">
      <path
         d="M 53.6,0 H 64.1 V 57.55 H 53.6 28.25 0 V 0 H 28.25 53.6 V 57.55 0 M 28.25,0 V 57.55 0"
         fill="#ffffff"
         fill-rule="evenodd"
         stroke="none"
         id="path3" />
    </g>
    <g
       id="shape1"
       transform="translate(0.1,-2.2)">
      <path
         d="M 24.45,29.1 24.7,28.6 31.9,21.05 34.75,18.1 35.8,17.05 42.55,9.1 Q 45.5,5.25 47,4.2 L 47.35,4 48.8,3.05 q 4,-1.9 8.85,0.5 1.65,0.9 2.45,1.95 0.6,0.8 1.2,2.45 1.05,3.55 0.35,6.65 -1,4 -5.75,8 l -3.6,2.45 -1.9,0.8 q -2.5,1.75 -7.2,4.05 -1.15,0.6 -2.35,1.15 l -6,2.75 L 29.2,36.05 28.4,36 q -0.25,-0.2 -0.05,-0.6 0.2,-0.35 0.55,-0.55 L 41.2,26.2 53.35,17.45 q 2.3,-1.8 2.85,-3 0.65,-1.4 0.35,-3.05 Q 56.2,9.85 55,8.85 54.05,8.05 52.8,7.95 51.45,7.8 50.4,8.45 49.8,8.8 49,9.7 l -1.35,1.7 -1.1,1.3 -2.5,2.15 -0.65,0.35 -12.6,10.65 q -3.4,2.65 -5.55,3.35 -0.7,0.35 -0.8,-0.1 m 24.7,-14.5 q 0.85,0.15 1.4,0.9 0.45,0.85 0.2,1.7 -0.2,0.9 -1.65,2 l -6.05,4.5 -6.35,4.1 -10.4,6.55 q -6,3.8 -9.55,5.45 l -0.7,0.2 q -0.45,0 -0.5,-0.4 -0.05,-0.25 0.4,-0.65 l 1.75,-1.3 Q 34,24.9 45.85,15.9 q 2,-1.5 3.3,-1.3"
         fill="#999999"
         fill-rule="evenodd"
         stroke="none"
         id="path4" />
      <path
         d="m 49.95,6.2 q 0.7,-0.8 1.8,-0.9 1.05,-0.1 1.75,0.65 0.65,0.55 0.7,1.45 0.1,0.85 -0.4,1.55 l -1.2,1 L 52.4,9.6 51.45,8.95 Q 50.65,8.45 50.1,8.3 L 49.45,8.15 49.4,7.7 Q 49.45,6.85 49.95,6.2 M 52,12.8 h -0.8 l -1,-0.3 q -0.45,-0.15 -0.55,-0.3 l -0.1,-0.4 0.2,-0.4 0.7,-0.15 1.2,-0.35 0.15,-0.05 0.35,-0.05 0.55,0.1 0.05,-0.05 0.4,-0.4 0.4,-0.3 0.85,0.05 0.15,0.25 -0.3,0.9 -0.3,0.35 0.2,0.55 -0.2,1 0.1,0.85 -0.25,0.5 -0.55,0.15 L 52.7,14.3 52.6,13.5 52.55,13.15 52.4,12.9 52.3,12.75 52,12.8 m 3.95,-3 Q 56.7,8.8 58,8.85 L 58.7,9 v 0.05 q -0.5,0.85 0.1,2.35 l 0.55,0.95 0.3,0.25 q -0.55,0.9 -1.75,1.05 l -1.3,-0.3 q -0.65,-0.3 -1,-0.95 -0.25,-0.55 -0.2,-1.3 0.1,-0.75 0.55,-1.3 M 4.85,46.45 Q 4.45,46.2 4.3,45.6 L 4.25,45.05 V 45 L 4.3,44.55 4.5,44.25 4.85,43.9 q 0.45,-0.35 1.05,-0.3 0.6,0.1 1,0.5 0.7,0.85 0.2,1.75 Q 6.65,46.8 5.6,46.7 L 4.85,46.45 m 0.8,-6.25 q 0,-1.65 0.8,-2.6 l 1,-0.9 0.6,-0.4 1.35,-0.25 q 1.4,0 2.25,0.6 l 1,1 q 0.8,1 0.7,2.5 l -0.1,0.75 -0.2,0.6 q -0.7,1.35 -2.1,2 L 8.05,43.65 6.9,43.05 6.3,42.4 5.8,41.45 Q 5.65,40.85 5.65,40.2 m 4.45,5.15 q 0.55,0 1.15,0.35 1.1,0.8 0.95,2.15 -0.2,1.4 -1.5,1.75 L 9.35,49.55 8.3,48.7 Q 7.9,48.15 7.95,47.4 8,46.65 8.45,46.15 9.1,45.35 10.1,45.35 m 4,1 -0.9,-0.65 -0.35,-0.8 q -0.25,-1.3 0.85,-2.05 0.5,-0.35 1.15,-0.35 0.6,0 1.1,0.3 1.1,0.75 0.85,2.1 -0.25,1.3 -1.6,1.55 l -1.1,-0.1"
         fill="#ffffff"
         fill-rule="evenodd"
         stroke="none"
         id="path5" />
      <path
         d="m 57.85,5.95 1.5,1.4 0.1,0.05 1.05,1.6 q 1.3,3.15 0.85,5.7 l -0.25,1.1 q -0.5,1.2 -1.75,1.55 -1.2,0.4 -2.2,-0.4 l -0.1,-0.1 -1.05,0.7 0.2,1.5 q 0.05,0.75 -0.3,1.8 l -0.55,1.85 -0.9,1.65 -0.75,1.2 -0.8,0.75 -1.1,0.85 -2.15,0.75 -4.2,-0.1 -1.55,-0.55 q -1.4,1.3 -3.35,1.65 -2.3,0.5 -4.3,-0.75 l -1.4,-0.7 -1.55,0.1 q -0.5,0.25 -1.45,0.85 l -0.8,0.6 -0.6,0.4 q -0.25,-0.1 -0.2,-0.5 l 0.25,-0.5 0.2,-0.8 q 0.25,-0.55 0.9,-1.15 1.05,-1.15 1.75,-1.35 l 1.3,-0.25 1.8,0.15 1.55,0.7 q 1.65,0.6 3.15,-0.4 l 0.15,-0.05 -0.25,-0.3 -1.1,-1.7 -0.75,-1.65 q -0.4,-1.1 -0.2,-2.8 0.15,-1.7 0.85,-3.05 0.95,-1.6 3.2,-3.15 1.25,-0.75 2.05,-0.95 l 1.15,-0.15 0.2,-0.75 Q 45.7,10.55 45.1,10.05 L 44.7,9.65 Q 43.8,8.6 44.25,7.2 q 0.2,-0.55 0.55,-1.05 1,-1.45 2.75,-2.1 l 3.9,-0.3 2.25,0.6 q 2,0 4.15,1.6 m -1.9,3.85 q -0.45,0.55 -0.55,1.3 -0.05,0.75 0.2,1.3 0.35,0.65 1,0.95 l 1.3,0.3 Q 59.1,13.5 59.65,12.6 L 59.35,12.35 58.8,11.4 Q 58.2,9.9 58.7,9.05 V 9 L 58,8.85 Q 56.7,8.8 55.95,9.8 m -3.95,3 0.3,-0.05 0.1,0.15 0.15,0.25 0.05,0.35 0.1,0.8 0.55,0.45 0.55,-0.15 0.25,-0.5 -0.1,-0.85 0.2,-1 -0.2,-0.55 0.3,-0.35 0.3,-0.9 -0.15,-0.25 -0.85,-0.05 -0.4,0.3 -0.4,0.4 -0.05,0.05 -0.55,-0.1 -0.35,0.05 -0.15,0.05 -1.2,0.35 -0.7,0.15 -0.2,0.4 0.1,0.4 q 0.1,0.15 0.55,0.3 l 1,0.3 H 52 M 49.95,6.2 q -0.5,0.65 -0.55,1.5 l 0.05,0.45 0.65,0.15 q 0.55,0.15 1.35,0.65 l 0.95,0.65 0.2,0.35 1.2,-1 Q 54.3,8.25 54.2,7.4 54.15,6.5 53.5,5.95 52.8,5.2 51.75,5.3 50.65,5.4 49.95,6.2 M 4.25,45 Q 3.4,42.35 3.8,39.35 l 1.3,-5.1 Q 5.95,31.2 5.55,29.2 5.1,27.15 3.15,24.55 L 1.4,22.85 -0.1,22.2 v -8.95 l 2.85,0.4 q 7.5,1.6 13.15,6.85 5.6,5.15 7.75,12.55 0.85,2.9 0.9,5.4 0,2.45 -0.8,5.05 -0.95,2.65 -2.35,4.3 -1.65,1.8 -4.5,3.2 -3.35,1.45 -5.6,1.05 -2.85,-0.45 -5,-3.3 L 4.85,46.45 5.6,46.7 Q 6.65,46.8 7.1,45.85 7.6,44.95 6.9,44.1 6.5,43.7 5.9,43.6 5.3,43.55 4.85,43.9 L 4.5,44.25 4.3,44.55 4.25,45 m 9.85,1.35 1.1,0.1 q 1.35,-0.25 1.6,-1.55 0.25,-1.35 -0.85,-2.1 -0.5,-0.3 -1.1,-0.3 -0.65,0 -1.15,0.35 -1.1,0.75 -0.85,2.05 l 0.35,0.8 0.9,0.65 m -4,-1 q -1,0 -1.65,0.8 Q 8,46.65 7.95,47.4 7.9,48.15 8.3,48.7 l 1.05,0.85 1.35,0.05 Q 12,49.25 12.2,47.85 12.35,46.5 11.25,45.7 10.65,45.35 10.1,45.35 M 5.65,40.2 q 0,0.65 0.15,1.25 l 0.5,0.95 0.6,0.65 1.15,0.6 2.9,-0.15 q 1.4,-0.65 2.1,-2 l 0.2,-0.6 0.1,-0.75 q 0.1,-1.5 -0.7,-2.5 l -1,-1 Q 10.8,36.05 9.4,36.05 l -1.35,0.25 -0.6,0.4 -1,0.9 q -0.8,0.95 -0.8,2.6"
         fill="#000000"
         fill-rule="evenodd"
         stroke="none"
         id="path6" />
    </g>
    <g
       id="shape2"
       transform="translate(1.5,1.5)">
      <path
         d="M 0,23.8 V 0 H 64.1 V 23.8 57.55 H 0 Z"
         fill="none"
         stroke="#000000"
         stroke-linecap="round"
         stroke-linejoin="round"
         stroke-width="3"
         id="path7" />
    </g>
  </defs>
</svg>
