<?xml version="1.0" encoding="UTF-8" standalone="no"?>
<svg
   ffdec:objectType="frame"
   height="44.349998"
   width="78.599998"
   version="1.1"
   id="svg12"
   sodipodi:docname="250.svg"
   xmlns:inkscape="http://www.inkscape.org/namespaces/inkscape"
   xmlns:sodipodi="http://sodipodi.sourceforge.net/DTD/sodipodi-0.dtd"
   xmlns:xlink="http://www.w3.org/1999/xlink"
   xmlns="http://www.w3.org/2000/svg"
   xmlns:svg="http://www.w3.org/2000/svg"
   xmlns:ffdec="https://www.free-decompiler.com/flash">
  <sodipodi:namedview
     id="namedview12"
     pagecolor="#ffffff"
     bordercolor="#000000"
     borderopacity="0.25"
     inkscape:showpageshadow="2"
     inkscape:pageopacity="0.0"
     inkscape:pagecheckerboard="0"
     inkscape:deskcolor="#d1d1d1"
     fit-margin-top="5"
     fit-margin-left="5"
     fit-margin-right="5"
     fit-margin-bottom="5" />
  <g
     transform="translate(2,2.05)"
     id="g3">
    <use
       ffdec:characterId="1"
       height="42.700001"
       transform="translate(-1.75,-2)"
       width="76.449997"
       xlink:href="#shape0"
       id="use1" />
    <use
       ffdec:characterId="245"
       height="41.049999"
       transform="translate(-0.05,-0.65)"
       width="75.25"
       xlink:href="#shape1"
       id="use2" />
    <use
       ffdec:characterId="3"
       height="44.349998"
       transform="translate(-2,-2.05)"
       width="78.599998"
       xlink:href="#shape2"
       id="use3" />
  </g>
  <defs
     id="defs12">
    <g
       id="shape0"
       transform="translate(1.75,2)">
      <path
         d="M 2.8,0 V -0.4 H 5.4 V 0 H 9.7 V 19.45 0 H 20.55 L 19.3,19.45 H 9.7 0.25 V 0 H 2.8"
         fill="#ffffff"
         fill-rule="evenodd"
         stroke="none"
         id="path3" />
      <path
         d="M 0.25,19.45 H 9.7 19.3 L 18.7,28.6 16,28.5 10.95,27.95 9.7,27.8 Q 7.45,27.6 5.85,27.75 4.05,27.9 1.5,28.6 0.75,28.8 0.25,29.15 v -9.7 m 9.45,0 v 8.35 -8.35"
         fill="#121212"
         fill-rule="evenodd"
         stroke="none"
         id="path4" />
      <path
         d="m 9.7,27.8 1.25,0.15 5.05,0.55 2.7,0.1 h 1.05 l 3.75,0.15 q 2.45,0.3 3.6,1.25 0.6,0.5 0.6,1.1 0,0.65 -0.8,1 l -1.3,0.2 -7.15,0.15 -5.6,-0.3 L 9.7,31.75 7.95,31.6 3.1,31.95 0.95,32.3 0.25,32.1 -0.35,31.55 -0.5,31.3 V 29.9 L 0.25,29.15 Q 0.75,28.8 1.5,28.6 4.05,27.9 5.85,27.75 7.45,27.6 9.7,27.8 v 3.95 -3.95"
         fill="#999999"
         fill-rule="evenodd"
         stroke="none"
         id="path5" />
      <path
         d="M 2.8,0 H 0.25 M 9.7,0 H 5.4 m 16.15,0 h 10.7 M 20.55,0 H 9.7"
         fill="none"
         stroke="#666666"
         stroke-linecap="round"
         stroke-linejoin="round"
         stroke-width="4"
         id="path6" />
      <path
         d="m 9.7,-0.4 h 65 V 40.5 H 47.05 L 45.5,40.7 27,40.65 25.95,40.5 H 9.7 -0.5 V -0.4 H 9.7 V 40.5 -0.4"
         fill="#ffffff"
         fill-rule="evenodd"
         stroke="none"
         id="path7" />
    </g>
    <g
       id="shape1"
       transform="translate(0.05,0.65)">
      <path
         d="M 2.55,3.6 1.9,2.95 H 1.2 Q 0.45,3 -0.05,2.65 V -0.3 l 0.6,-0.35 h 1.7 l 0.5,0.2 H 3.3 L 4,-0.05 6.8,1.6 q 2.05,1.1 3.55,1.3 2.25,0.25 4.1,-1.15 L 15.4,0.9 17.3,-0.65 h 6.2 l 0.05,0.05 0.05,-0.05 h 3.9 l 0.8,1.2 Q 29,2.15 28.75,3.4 28.5,4.45 27.5,5.15 26.55,5.85 25.4,5.85 24.3,5.8 23.3,5.15 22.35,4.55 21.75,3.55 21.05,2.4 20.55,2.3 20.1,2.2 19.6,2.55 l -2.1,1.7 -2.15,1.65 -1.3,0.45 -1.9,0.45 Q 10.65,6.95 8.65,6.2 L 7.15,5.65 6.95,5.55 Q 7.3,7.2 6.95,8.85 6.3,11.5 4.1,13 2.15,14.25 -0.05,14.15 v -2.5 L 0.25,11.6 Q 1.9,11.4 2.75,10.75 4.3,9.6 4,7.2 3.85,5.7 2.55,3.6 M 73.15,14.65 72.45,13.3 71.4,12.2 Q 70.3,11.1 69.55,9.35 68.1,6.3 68.7,3.9 68.9,3.05 69.6,1.95 69.4,1.75 69.05,1.65 67.45,1.15 65.75,2.6 L 64.5,3.95 63.35,5.3 q -2,2.1 -5.85,3.55 l -1.15,0.4 Q 54.6,9.65 52.95,8.65 52,8.05 51.55,7.25 50.95,6.3 50.95,5.1 q 0,-1.35 0.9,-2.25 1,-1 2.75,-0.85 1.7,0.1 2.3,1.4 L 57.2,3.95 57.65,4 58.75,3.85 60.2,3.4 61.95,1.95 63.5,0.25 q 0.65,-0.55 1.45,-0.9 h 5 l 1,0.55 0.05,0.05 0.6,-0.6 h 2.2 q 0.75,0.4 0.95,1.3 Q 74.95,1.7 74.1,3 l -1.45,2 -0.3,0.85 q -0.15,0.85 0.5,2.2 l 0.7,1.3 1.1,1.15 0.55,0.55 v 9.9 l -1.5,1.25 -1,1.1 q -0.15,0.35 -0.05,0.85 0,0.55 0.35,1.35 l 1.45,2 0.75,1.35 v 5.25 l -0.4,0.8 -0.8,1.2 q -2.4,3.1 -5.55,3.95 L 67.4,40.3 Q 66,40.55 64.8,40.3 63.2,40 61.85,38.95 L 60.75,38.1 Q 59.6,37.35 57.15,37.25 L 56.2,37.3 q -0.3,0.1 -0.65,0.45 L 55,38.3 53.8,39.1 52.7,39.95 52.45,40.3 H 51.3 l -0.05,-0.25 0.3,-0.7 0.95,-1.45 q 1,-1.5 2.25,-2.4 0.75,-0.65 1.6,-0.95 L 58.05,34.3 60,34.25 q 1.45,0.15 2.85,1.05 l 1.35,0.75 q 1.7,0.7 3.5,0.05 1.6,-0.5 2.95,-2 l 1.15,-1.8 q 0.45,-1.15 0,-2.05 L 71,29.1 q -1.85,-2.2 -2.15,-4.7 -0.35,-2.9 1.6,-4.75 l 1.7,-1.3 q 1,-0.75 1.2,-1.65 0.2,-0.7 -0.2,-2.05 m -12.65,5.6 -0.6,0.95 q -0.95,1.2 -2.35,1.65 L 54.7,23.2 53.4,22.95 q -1.65,-0.55 -2.5,-2.05 -0.85,-1.45 -0.6,-3.15 0.1,-1 0.55,-1.85 l 1.25,-1.85 q 0.85,-0.95 2.2,-1.3 l 0.3,-0.05 0.9,-1 q 1.7,-1.4 4.35,-1.25 l 1.75,0.3 1.55,1 q 1,0.9 1.35,1.7 l 0.45,1.55 0.2,1.65 0.05,0.15 h 0.2 Q 66,16.55 66,15.55 l 0.1,-1.45 q 0.3,-0.95 1.55,-0.95 l 0.4,0.05 0.2,0.35 -0.35,0.3 -0.5,0.15 q -0.35,0.25 -0.25,1 l 0.15,1.1 q 0.05,0.7 -0.4,1.3 l -1.1,0.8 -1.35,-0.05 q -0.7,-0.3 -1.1,-0.85 l -0.4,-0.85 Q 62.2,14.6 61,14.05 60.2,13.65 59.25,13.8 l -0.2,0.05 q 0.85,0.8 1.45,2.25 l 0.4,-0.05 0.45,0.4 q 2.25,3.05 3.15,6.5 0.7,2.75 0.25,4.85 -0.6,2.75 -2.65,3.9 l -1.45,0.6 -2.85,0.3 q -1.5,-0.15 -2.5,-1.25 l -1.15,-1.8 q -0.75,-1.15 -1.7,-1.2 -1.2,-0.15 -2.1,1.35 l -1.3,2.3 q -1,1.25 -2.6,1.15 -1.6,-0.1 -2.5,-1.3 l -0.55,-0.5 -0.6,0.05 -1.5,0.5 q 0.25,-1.5 1.35,-2.15 l 1.3,-0.2 q 0.75,0.1 1.05,0.65 l 0.3,0.6 0.4,0.45 Q 46.15,31.4 46.6,31 l 0.95,-1 0.7,-1.35 q 0.7,-1.3 1.7,-2.05 1.75,-1.35 3.95,-0.85 2.2,0.5 3.15,2.45 l 0.95,1.2 1.05,0.05 q 1.5,-0.3 2.15,-1 l 0.55,-1.25 q 0.7,-2.75 -0.9,-7 l -0.15,-0.4 -0.2,0.45 m -48.15,5.85 -0.75,-0.65 -1,-1.5 -0.1,-1.3 0.1,-1.15 q 0.4,-2.1 2.2,-3.35 1.75,-1.2 4.1,-0.85 1.65,0.25 2.55,1.3 l 0.3,0.35 V 18.9 17.85 q -0.45,-1.95 -1.9,-2.3 l -1.5,0.1 -1.75,0.6 -1.3,0.9 q -0.8,0.4 -1.6,0.4 -0.85,0 -1.4,-0.4 -0.75,-0.5 -0.65,-1.3 0,-0.25 0.35,-0.95 l 0.3,-0.4 q 0.2,-0.3 0.45,-0.1 l 0.25,0.45 -0.2,0.5 -0.1,0.45 q 0.05,0.3 0.4,0.4 0.7,0.2 1.45,-0.35 l 1.05,-1.1 q 1.25,-1.35 2.8,-1.85 l 3.35,0.15 q 2,0.9 2.8,3.7 0.45,1.65 0.1,3 -0.3,1.2 -1.1,1.9 0.4,0.05 0.6,0.55 1.05,1.65 0.25,4.3 l -2.1,3.9 q -1.05,1.85 -0.65,2.9 0.45,1.05 1.5,1.2 1.05,0.25 1.9,-0.45 l 1.2,-1.15 1.45,-0.95 q 1.55,-0.8 2.15,-0.9 1.35,-0.35 2.25,0.35 l 0.75,0.7 0.7,0.65 q 0.75,0.4 2,0 l 1.9,-0.55 Q 36,32.1 36.1,32.4 v 0.4 q -0.25,0.85 -1.65,1.45 l -1.6,0.55 Q 31.1,35.1 29.8,33.9 L 28.7,33 q -0.65,-0.2 -2.05,0.65 l -1.2,0.7 -1.25,1 -1.15,0.6 q -1.4,0.65 -2.3,0.65 -1.25,0.05 -2.55,-0.65 l -1.1,-0.9 Q 16.25,34 16.45,32.3 q 0.25,-2.4 2.7,-5.25 l 1.5,-1.9 q 0.65,-1.3 0.25,-2.3 l -0.2,-0.6 0.05,-0.15 -0.15,0.05 q -0.1,1.25 -0.9,2.4 -1.1,1.65 -3.2,2.15 l -3.05,-0.15 -1.1,-0.45 m 0.6,5 0.4,1.2 q 0.2,1.3 -0.5,2.6 l -1.1,1.4 0.1,0.35 0.15,0.55 0.15,0.35 0.15,1.2 q 0,0.95 -0.7,1.55 H 6.1 L 6,40.25 5.95,40.3 H 5.05 L 5,40.25 4.85,40 4.65,39.75 4.2,39.05 4,38.85 3.7,38.9 3.45,39 H 3.05 L 2.7,38.95 2.5,38.8 2.1,38.35 2,38 2.25,36.95 2.5,36.55 2.95,36.5 3.1,36.65 2.9,36.95 2.85,37.35 2.9,37.65 2.8,37.8 3,38 3.3,37.9 4.25,37.55 h 0.5 l 0.6,0.35 0.35,0.25 0.25,-1 -1,-0.75 -0.75,-1 q -1,0.15 -2,-0.45 Q 0.95,34.1 0.95,32.6 L 1,32.3 Q 1.1,31.3 1.85,30.6 2.6,29.85 3.6,29.85 L 3.75,29.8 4.8,30 5.9,29.1 6.05,29 v -0.05 q -0.15,-1.05 0.7,-2 0.8,-0.8 1.95,-0.65 1.2,0.15 1.8,1.25 l 0.3,1.1 h 0.05 l -0.6,0.55 -0.2,0.35 -0.05,0.25 -0.05,0.3 0.15,0.65 0.25,0.4 0.35,0.35 0.4,0.2 0.6,0.1 0.45,-0.1 0.4,-0.2 0.4,-0.4 M 8.35,34.2 8.5,33.75 8.6,33.2 8.55,33 8.3,32.35 8.15,32.1 7.8,31.8 7.5,31.6 6.75,31.5 6.15,31.6 5.8,31.8 5.3,32.35 5.1,32.8 5.05,33.15 v 0.45 l 0.3,0.75 0.1,0.05 0.1,0.15 0.8,0.45 0.5,0.05 q 0.8,0 1.25,-0.55 l 0.25,-0.3 m 2,1.05 q 0.3,-0.2 0.2,-0.55 v -0.5 l -0.05,-0.15 0.1,0.05 0.35,-0.05 0.2,-0.1 0.4,-0.1 0.15,-0.2 -0.1,-0.2 -0.2,-0.05 -0.25,-0.1 -0.7,-0.2 -0.2,-0.3 -0.35,-0.25 q -0.3,0 -0.4,0.2 l -0.05,0.15 0.2,0.4 0.05,0.15 0.15,0.15 0.05,0.15 -0.3,0.65 -0.05,0.45 0.15,0.3 0.65,0.1"
         fill="#999999"
         fill-rule="evenodd"
         stroke="none"
         id="path8" />
      <path
         d="m 10.85,28.65 0.05,-0.05 0.7,-0.1 v -0.05 l 0.7,0.15 0.65,0.55 0.15,0.25 0.1,0.3 0.05,0.25 -0.1,0.85 -0.15,0.25 -0.05,0.05 -0.4,0.4 -0.4,0.2 -0.45,0.1 -0.6,-0.1 -0.4,-0.2 -0.35,-0.35 -0.25,-0.4 -0.15,-0.65 0.05,-0.3 0.05,-0.25 0.2,-0.35 0.6,-0.55 m -0.5,6.6 L 9.7,35.15 9.55,34.85 9.6,34.4 9.9,33.75 9.85,33.6 9.7,33.45 9.65,33.3 9.45,32.9 9.5,32.75 q 0.1,-0.2 0.4,-0.2 l 0.35,0.25 0.2,0.3 0.7,0.2 0.25,0.1 0.2,0.05 0.1,0.2 -0.15,0.2 -0.4,0.1 -0.2,0.1 -0.35,0.05 -0.1,-0.05 0.05,0.15 v 0.5 q 0.1,0.35 -0.2,0.55 M 8.35,34.2 8.1,34.5 Q 7.65,35.05 6.85,35.05 L 6.35,35 5.55,34.55 5.45,34.4 5.35,34.35 5.05,33.6 V 33.15 L 5.1,32.8 5.3,32.35 5.8,31.8 6.15,31.6 6.75,31.5 7.5,31.6 7.8,31.8 8.15,32.1 8.3,32.35 8.55,33 8.6,33.2 8.5,33.75 8.35,34.2"
         fill="#ffffff"
         fill-rule="evenodd"
         stroke="none"
         id="path9" />
      <path
         d="m 52.55,16.15 q 0.55,-0.8 1.45,-1.4 2.45,-1.55 5.05,-0.85 2.75,0.65 3.95,3.2 0.55,1.05 0.7,2.55 0.4,3.6 -1.35,7 -1.8,3.3 -5,5.05 L 55.7,32.45 Q 52.75,33.6 50.95,33.4 L 49.35,33.05 48,32.55 Q 46.2,31.7 45.35,29.9 l -0.45,-0.55 -0.5,-0.05 -1.35,0.35 0.4,1 q 0.55,1.7 0.45,4.5 l -0.2,1.9 q 3.3,-2.4 7.55,-3.25 l 2.65,-0.1 q 1.05,0.25 2.7,1.5 l 2.65,1.6 3.65,-0.25 q 2,-0.55 2.65,-1.85 l 0.3,-1.05 0.4,-2.15 q 0.3,-1.2 0.9,-1.85 1.1,-1.25 2.7,-0.9 1.15,0.25 1.7,1.2 l 0.3,1.5 q 0,1.9 -0.85,3.6 l -1.15,1.8 -2.2,2.4 -1.5,1.05 h -9.8 L 55.8,39.95 54,38.3 q -1.2,-0.9 -2.2,-1.05 l -1.95,0.3 -7.15,2.75 H 23 q 0.2,-0.85 1.45,-1.65 l 3.05,-1.3 1.05,-0.55 1.4,-0.5 2.15,-1.15 q 2.65,-1.55 3.45,-3 l 0.3,-0.55 -1.6,0.95 -1.45,0.5 -1.95,0.75 -2.05,0.25 q -2.1,0.2 -3.5,0 Q 23.35,33.8 22.05,32.9 L 21.1,32 20.6,30.95 Q 19.95,29.3 20.15,27.85 L 20.4,26.45 20.2,25.05 19.85,24.2 19,23.6 q -1.55,1.45 -2.5,1.85 l -3,0.05 Q 12.75,25.1 12.35,24.25 12,23.5 12.1,22.7 l 0.1,0.1 1.25,0.1 q 0.65,-0.4 0.4,-1.2 -0.25,-0.75 -1.05,-0.65 l -0.25,0.1 Q 13,20.3 13.9,19.6 q 2.05,-1.75 4.95,-1.4 2.7,0.3 4.65,2.4 0.75,0.85 1.1,1.65 0.4,0.95 0.4,1.85 l -0.2,1.95 -0.5,1.9 -0.1,1.2 q 0.1,0.7 0.5,1.05 l 0.95,0.4 2.9,0.4 q 3.95,0.1 6.75,-1.6 L 35.4,29.35 34.9,29.3 Q 31,28.75 28.9,26.8 L 27.85,25.5 Q 25.95,23.05 25.6,20.35 L 25.45,18.55 25.5,17.2 25.4,16.95 23.95,12.5 q -0.25,-0.9 0.2,-1.5 0.3,-0.4 1.25,-0.6 L 26.45,10.15 27.85,9.9 28.7,9.85 H 29 L 29.6,9.3 Q 30.9,8.15 32.2,7.55 33.75,6.7 35.8,6.3 l 3.15,-0.25 2.3,-1.55 q 1.1,-0.8 1.9,-0.75 0.95,0 1.75,0.95 l 0.95,1.8 1.5,3.75 0.2,0.5 0.45,0.6 q 0.65,1 1.1,2.15 0.8,2 0.7,4.15 L 49.6,19.3 49,21.9 q -0.65,2.05 -2.2,3.7 l -0.6,0.65 q 0.95,0.1 1.5,0.85 l 0.6,1 q 0.8,1.1 2.5,1.1 l 2.7,-0.65 q 2.45,-1 3.45,-2.15 l 1.1,-1.5 0.85,-1.9 q 0.3,-1.25 0.1,-2.35 l -1.2,0.6 -1.25,0.5 -2.6,-0.1 q -1.15,-0.4 -1.75,-1.3 -0.65,-0.9 -0.45,-2 l 0.05,-0.5 0.2,0.2 0.65,0.2 q 0.8,0 1,-0.9 0.1,-0.85 -0.65,-1.1 l -0.45,-0.1 m -34.3,4.8 -0.4,-0.1 q -0.5,0 -0.9,0.4 -0.4,0.55 -0.05,1.25 0.45,0.65 1.15,0.45 0.7,-0.2 0.8,-0.95 0.1,-0.7 -0.6,-1.05 M 33.7,22.4 h -0.45 l -0.15,0.05 v 0.15 l -0.05,0.2 V 23 l 0.15,0.3 0.45,0.25 0.25,0.15 h 0.55 l 0.3,-0.1 0.8,-0.4 0.4,-0.45 0.1,-0.05 0.2,-0.3 0.05,-0.2 1.4,0.25 0.35,-0.05 1.05,-0.45 0.3,-0.3 0.5,-0.7 0.1,-0.2 -0.15,-0.4 -0.5,-0.15 -0.4,0.3 -0.25,0.15 -0.15,0.2 -0.3,0.1 H 38 L 37.8,20.8 37.45,20.65 36.9,20.25 36.25,20 36.2,20.05 H 36.1 Q 35.9,20 35.65,20.25 l -0.15,0.1 -0.15,0.1 -0.25,0.4 v 0.3 l -0.05,0.25 -0.15,0.35 -0.1,0.05 -0.25,0.3 -0.45,0.2 -0.15,0.05 -0.25,0.05 m -5.2,-4.3 q -1.5,0.25 -2.1,1.75 -0.5,1.6 0.5,2.75 0.95,1.2 2.6,0.95 1.5,-0.25 2.1,-1.75 0.35,-1 0.05,-1.9 H 31.6 Q 30.85,19.8 30.4,19.5 L 29.55,18.45 29.4,18.1 H 28.5 M 58.35,17.25 57.7,17 57.55,17.05 q -0.4,0.05 -0.7,0.35 -0.3,0.35 -0.25,0.75 l 0.3,0.75 q 0.3,0.35 0.75,0.4 0.4,0.05 0.8,-0.25 l 0.4,-0.75 q 0.1,-0.7 -0.5,-1.05 m -17.2,-4 -0.75,0.4 -0.25,2 -0.4,1 -0.5,0.65 q 0.25,0.9 1.05,1.55 0.85,0.7 1.8,0.75 1,0.1 1.9,-0.45 0.9,-0.5 1.3,-1.4 0.45,-0.9 0.3,-1.9 -0.15,-1.05 -0.85,-1.75 -0.65,-0.75 -1.7,-0.95 l -1.9,0.1"
         fill="#000000"
         fill-rule="evenodd"
         stroke="none"
         id="path10" />
      <path
         d="m 12.1,22.7 q -0.4,-0.55 -0.05,-1.15 l 0.15,-0.2 0.35,-0.2 0.25,-0.1 q 0.8,-0.1 1.05,0.65 0.25,0.8 -0.4,1.2 L 12.2,22.8 12.1,22.7 M 51.8,17.85 51.6,17.5 51.55,17.25 51.6,16.9 51.75,16.65 q 0.3,-0.5 0.8,-0.5 l 0.45,0.1 q 0.75,0.25 0.65,1.1 -0.2,0.9 -1,0.9 L 52,18.05 51.8,17.85 m -10.65,-4.6 1.9,-0.1 q 1.05,0.2 1.7,0.95 0.7,0.7 0.85,1.75 0.15,1 -0.3,1.9 -0.4,0.9 -1.3,1.4 -0.9,0.55 -1.9,0.45 -0.95,-0.05 -1.8,-0.75 -0.8,-0.65 -1.05,-1.55 l 0.5,-0.65 0.4,-1 0.25,-2 0.75,-0.4 m 17.2,4 q 0.6,0.35 0.5,1.05 l -0.4,0.75 q -0.4,0.3 -0.8,0.25 -0.45,-0.05 -0.75,-0.4 l -0.3,-0.75 q -0.05,-0.4 0.25,-0.75 0.3,-0.3 0.7,-0.35 L 57.7,17 58.35,17.25 M 28.5,18.1 h 0.9 l 0.15,0.35 0.85,1.05 q 0.45,0.3 1.2,0.4 h 0.05 q 0.3,0.9 -0.05,1.9 -0.6,1.5 -2.1,1.75 -1.65,0.25 -2.6,-0.95 -1,-1.15 -0.5,-2.75 0.6,-1.5 2.1,-1.75 m 5.2,4.3 0.25,-0.05 0.15,-0.05 0.45,-0.2 0.25,-0.3 0.1,-0.05 0.15,-0.35 0.05,-0.25 v -0.3 l 0.25,-0.4 0.15,-0.1 0.15,-0.1 Q 35.9,20 36.1,20.05 h 0.1 l 0.05,-0.05 0.65,0.25 0.55,0.4 0.35,0.15 0.2,0.15 h 0.25 l 0.3,-0.1 0.15,-0.2 0.25,-0.15 0.4,-0.3 0.5,0.15 0.15,0.4 -0.1,0.2 -0.5,0.7 -0.3,0.3 -1.05,0.45 -0.35,0.05 -1.4,-0.25 -0.05,0.2 -0.2,0.3 -0.1,0.05 -0.4,0.45 -0.8,0.4 -0.3,0.1 H 33.9 L 33.65,23.55 33.2,23.3 33.05,23 V 22.8 L 33.1,22.6 V 22.45 L 33.25,22.4 H 33.7 M 18.25,20.95 q 0.7,0.35 0.6,1.05 -0.1,0.75 -0.8,0.95 -0.7,0.2 -1.15,-0.45 -0.35,-0.7 0.05,-1.25 0.4,-0.4 0.9,-0.4 l 0.4,0.1"
         fill="#ffffff"
         fill-rule="evenodd"
         stroke="none"
         id="path11" />
    </g>
    <g
       id="shape2"
       transform="translate(2,2.05)">
      <path
         d="M -0.5,-0.4 V -0.55 H 75.1 V -0.4 40.8 H -0.5 Z"
         fill="none"
         stroke="#000000"
         stroke-linecap="round"
         stroke-linejoin="round"
         stroke-width="3"
         id="path12" />
    </g>
  </defs>
</svg>
