<?xml version="1.0" encoding="UTF-8" standalone="no"?>
<svg
   ffdec:objectType="frame"
   height="44.349998"
   width="78.599998"
   version="1.1"
   id="svg14"
   sodipodi:docname="127.svg"
   xmlns:inkscape="http://www.inkscape.org/namespaces/inkscape"
   xmlns:sodipodi="http://sodipodi.sourceforge.net/DTD/sodipodi-0.dtd"
   xmlns:xlink="http://www.w3.org/1999/xlink"
   xmlns="http://www.w3.org/2000/svg"
   xmlns:svg="http://www.w3.org/2000/svg"
   xmlns:ffdec="https://www.free-decompiler.com/flash">
  <sodipodi:namedview
     id="namedview14"
     pagecolor="#ffffff"
     bordercolor="#000000"
     borderopacity="0.25"
     inkscape:showpageshadow="2"
     inkscape:pageopacity="0.0"
     inkscape:pagecheckerboard="0"
     inkscape:deskcolor="#d1d1d1"
     fit-margin-top="5"
     fit-margin-left="5"
     fit-margin-right="5"
     fit-margin-bottom="5" />
  <g
     transform="translate(2,2.05)"
     id="g3">
    <use
       ffdec:characterId="1"
       height="42.700001"
       transform="translate(-1.75,-2)"
       width="76.449997"
       xlink:href="#shape0"
       id="use1" />
    <use
       ffdec:characterId="128"
       height="43.400002"
       transform="translate(-1.25,-2.05)"
       width="76.849998"
       xlink:href="#shape1"
       id="use2" />
    <use
       ffdec:characterId="3"
       height="44.349998"
       transform="translate(-2,-2.05)"
       width="78.599998"
       xlink:href="#shape2"
       id="use3" />
  </g>
  <defs
     id="defs14">
    <g
       id="shape0"
       transform="translate(1.75,2)">
      <path
         d="M 2.8,0 V -0.4 H 5.4 V 0 H 9.7 V 19.45 0 H 20.55 L 19.3,19.45 H 9.7 0.25 V 0 H 2.8"
         fill="#ffffff"
         fill-rule="evenodd"
         stroke="none"
         id="path3" />
      <path
         d="M 0.25,19.45 H 9.7 19.3 L 18.7,28.6 16,28.5 10.95,27.95 9.7,27.8 Q 7.45,27.6 5.85,27.75 4.05,27.9 1.5,28.6 0.75,28.8 0.25,29.15 v -9.7 m 9.45,0 v 8.35 -8.35"
         fill="#121212"
         fill-rule="evenodd"
         stroke="none"
         id="path4" />
      <path
         d="m 9.7,27.8 1.25,0.15 5.05,0.55 2.7,0.1 h 1.05 l 3.75,0.15 q 2.45,0.3 3.6,1.25 0.6,0.5 0.6,1.1 0,0.65 -0.8,1 l -1.3,0.2 -7.15,0.15 -5.6,-0.3 L 9.7,31.75 7.95,31.6 3.1,31.95 0.95,32.3 0.25,32.1 -0.35,31.55 -0.5,31.3 V 29.9 L 0.25,29.15 Q 0.75,28.8 1.5,28.6 4.05,27.9 5.85,27.75 7.45,27.6 9.7,27.8 v 3.95 -3.95"
         fill="#999999"
         fill-rule="evenodd"
         stroke="none"
         id="path5" />
      <path
         d="M 2.8,0 H 0.25 M 9.7,0 H 5.4 m 16.15,0 h 10.7 M 20.55,0 H 9.7"
         fill="none"
         stroke="#666666"
         stroke-linecap="round"
         stroke-linejoin="round"
         stroke-width="4"
         id="path6" />
      <path
         d="m 9.7,-0.4 h 65 V 40.5 H 47.05 L 45.5,40.7 27,40.65 25.95,40.5 H 9.7 -0.5 V -0.4 H 9.7 V 40.5 -0.4"
         fill="#ffffff"
         fill-rule="evenodd"
         stroke="none"
         id="path7" />
    </g>
    <g
       id="shape1"
       transform="translate(1.25,2.05)">
      <path
         d="m 44.5,-0.4 h 4.05 q -0.3,1 -0.35,2.6 L 47.75,9 47.55,11.25 46.45,7.4 Q 45,2.6 44.55,-0.2 L 44.5,-0.4 m 5.8,0 h 13.35 l -1.5,1.45 -9.05,9.35 -0.55,0.65 0.2,-0.95 1.3,-4.65 1.25,-3.2 0.3,-1.1 0.05,-0.5 0.15,-0.4 Q 55.7,-0.1 55.45,0.15 L 55.15,0.45 50.85,9.7 50.7,7.65 50.3,-0.4 m 14,0 H 75.1 V 40.8 H -0.5 V 22.35 l 0.3,0.55 1,0.75 1.65,0.05 H 2.9 l -0.45,8.1 q -0.2,3.25 0.15,4.8 l 0.35,0.85 0.8,0.25 0.5,-0.45 0.5,-2.2 q 0.3,-3.6 0.9,-7.25 L 6.3,23.7 6.95,23.65 7.7,23.75 9.45,23.5 q 0.9,-0.45 1,-1.55 Q 10.55,20.9 9.65,20.3 9.15,19.95 8.3,19.85 L 6.85,19.9 6.9,19.6 V 18.35 Q 6.65,17.3 5.65,17 4.65,16.65 3.9,17.4 3.2,18.05 3.1,19.75 L 2.35,19.7 0.9,19.8 Q 0.25,20 -0.15,20.55 L -0.5,21.2 V -0.4 h 44.2 v 0.45 l 1.65,10.65 0.2,1.2 -4.8,-6 L 36.55,0.4 36,-0.15 Q 35.5,-0.35 35.3,0 35.15,0.2 35.4,0.8 l 2.85,4.8 0.75,1.45 2.7,5.7 1.85,3.4 Q 38.85,13.3 33.5,10.55 L 32.15,9.75 30.2,8.5 29.55,8.6 q -0.15,0.35 0.5,0.55 l 1.5,1.05 1.45,1.2 1.85,1.25 2.35,1.85 2.65,1.75 2.3,1.7 0.8,0.6 -13.7,-0.7 L 24.6,17.35 22.9,17 21.2,16.95 q -0.55,0.1 -0.5,0.5 11.15,4.3 23.05,4.85 1.6,0.1 2.25,-0.4 l 0.6,-1 q 0.1,-0.65 -0.2,-1.15 l -0.05,-0.05 0.3,0.05 0.2,1.15 q 0.3,0.8 1,1.1 l 1.05,-0.1 0.7,-0.8 q 0.2,-0.45 -0.15,-1.65 L 49.3,18.9 q 0.95,-0.05 1.45,-0.85 0.35,-0.65 0.35,-1.8 l 0.35,-0.5 0.2,0.15 1.9,-0.1 0.4,-0.35 q 0.15,0.4 0.45,0.6 L 55,16.3 q 0.05,0.45 0.4,0.85 0.65,0.65 1.55,0.55 l 1.55,-0.65 14.1,-9.1 1.75,-1.4 Q 74.9,6 74.5,5.7 L 73.95,5.8 Q 70.2,7.85 67.2,9.15 l -5.25,2.15 -3.2,1.4 2.5,-2.65 4.15,-4.3 3.8,-3.85 Q 68.3,2.3 66.8,3.6 L 60,9.2 56.25,12.15 61.5,4.3 64.1,0.1 64.3,-0.4"
         fill="#999999"
         fill-rule="evenodd"
         stroke="none"
         id="path8" />
      <path
         d="m 43.7,-0.4 v -0.1 l 0.4,-0.35 0.4,0.45 0.05,0.2 q 0.45,2.8 1.9,7.6 l 1.1,3.85 L 47.75,9 48.2,2.2 q 0.05,-1.6 0.35,-2.6 l 0.3,-0.95 q 0.45,-0.85 1,-0.65 0.45,0.15 0.45,1.05 v 0.55 l 0.4,8.05 0.15,2.05 4.3,-9.25 0.3,-0.3 q 0.25,-0.25 0.35,0.1 l -0.15,0.4 -0.05,0.5 -0.3,1.1 -1.25,3.2 -1.3,4.65 -0.2,0.95 0.55,-0.65 9.05,-9.35 1.5,-1.45 0.05,-0.05 0.4,-0.1 0.2,0.15 -0.2,0.5 -2.6,4.2 -5.25,7.85 L 60,9.2 66.8,3.6 q 1.5,-1.3 2.4,-1.7 l -3.8,3.85 -4.15,4.3 -2.5,2.65 3.2,-1.4 5.25,-2.15 q 3,-1.3 6.75,-3.35 L 74.5,5.7 Q 74.9,6 74.35,6.55 l -1.75,1.4 -14.1,9.1 -1.55,0.65 Q 56.05,17.8 55.4,17.15 55.05,16.75 55,16.3 l -0.6,-0.25 q -0.3,-0.2 -0.45,-0.6 l -0.4,0.35 -1.9,0.1 -0.2,-0.15 -0.35,0.5 q 0,1.15 -0.35,1.8 -0.5,0.8 -1.45,0.85 l 0.15,0.55 q 0.35,1.2 0.15,1.65 l -0.7,0.8 -1.05,0.1 q -0.7,-0.3 -1,-1.1 l -0.2,-1.15 -0.3,-0.05 0.05,0.05 q 0.3,0.5 0.2,1.15 l -0.6,1 q -0.65,0.5 -2.25,0.4 -11.9,-0.55 -23.05,-4.85 -0.05,-0.4 0.5,-0.5 l 1.7,0.05 1.7,0.35 4.65,0.5 13.7,0.7 -0.8,-0.6 -2.3,-1.7 L 37.2,14.5 34.85,12.65 33,11.4 31.55,10.2 30.05,9.15 Q 29.4,8.95 29.55,8.6 l 0.65,-0.1 1.95,1.25 1.35,0.8 q 5.35,2.75 10.05,5.6 L 41.7,12.75 39,7.05 38.25,5.6 35.4,0.8 Q 35.15,0.2 35.3,0 35.5,-0.35 36,-0.15 l 0.55,0.55 4.2,5.5 4.8,6 -0.2,-1.2 L 43.7,0.05 V -0.4 M -0.5,22.35 -0.6,21.7 -0.5,21.2 -0.15,20.55 Q 0.25,20 0.9,19.8 l 1.45,-0.1 0.75,0.05 q 0.1,-1.7 0.8,-2.35 0.75,-0.75 1.75,-0.4 1,0.3 1.25,1.35 V 19.6 L 6.85,19.9 8.3,19.85 q 0.85,0.1 1.35,0.45 0.9,0.6 0.8,1.65 -0.1,1.1 -1,1.55 L 7.7,23.75 6.95,23.65 6.3,23.7 5.65,27.8 q -0.6,3.65 -0.9,7.25 L 4.25,37.25 3.75,37.7 2.95,37.45 2.6,36.6 Q 2.25,35.05 2.45,31.8 L 2.9,23.7 H 2.45 L 0.8,23.65 -0.2,22.9 -0.5,22.35"
         fill="#ffffff"
         fill-rule="evenodd"
         stroke="none"
         id="path9" />
      <path
         d="m 44.5,-0.4 h 4.05 m 1.75,0 h 13.35 m 0.65,0 H 75.1 V 40.8 H -0.5 V 22.35 m 0,-1.15 V -0.4 h 44.2"
         fill="none"
         stroke="#ffffff"
         stroke-linecap="round"
         stroke-linejoin="round"
         stroke-opacity="0.498039"
         stroke-width="1"
         id="path10" />
      <path
         d="m 43.85,18.2 q 1.55,-1.65 3.3,-2.7 l 0.4,-0.95 1.05,-1.8 0.55,-1 0.7,-0.85 q 0.45,-0.4 1.1,-0.55 l 1.25,0.15 q 0.35,0.1 0.95,0.5 l 1.3,1.05 1.2,1.25 0.1,0.15 1.6,0.25 q 3.15,0.6 6.1,2.35 2.1,1.25 3.1,2.75 l 0.45,0.8 3.4,0.85 q 1.1,0.45 1.45,0.85 0.7,0.8 0.4,1.75 l -0.45,0.9 q -2.15,3.2 -4.05,5.2 l -0.8,2.6 q -1.85,4.7 -5.9,7 -3.75,2.15 -8.45,1.7 l -0.45,0.7 -0.3,0.2 H 4.6 q -0.15,-0.95 0.3,-2.3 0.5,-1.35 2,-3.95 2.15,-3.7 3.85,-5.85 2.05,-2.75 4.3,-4.5 l -1.4,-1.1 Q 11,21.3 10.05,18.2 9.2,15.35 9.7,12.2 10.2,9.2 11.85,6.5 14.7,1.85 18.95,0.7 L 24.7,0.35 29.65,0.9 q 2.7,0.6 4.45,1.9 l 0.3,0.25 0.6,0.05 4.7,1.15 q 0.85,0.25 1.35,0.75 0.65,0.75 0.4,1.7 l -0.8,1.35 -1.15,1.4 -1.25,1.05 -0.1,0.05 0.05,1.1 q 0,3.5 -1.7,6.75 -1.65,3.25 -4.5,5.4 l -1.6,1.1 5.35,0.15 q 0.65,-1.6 1.3,-2.4 1.25,-1.45 2.75,-1.5 l 1.6,0.25 q 1.05,-1.7 2.45,-3.2 m -9.2,0.75 -1.3,-0.25 -4.4,-1.35 -0.15,0.15 -0.3,0.85 q 2.9,1.15 4.25,2.6 l 0.45,0.75 0.4,-0.35 0.7,-1.05 0.2,-0.5 0.15,-0.85 M 18.05,15.4 18,15.95 l 0.9,0.1 2,0.15 4,0.9 0.3,-1.05 0.05,-0.25 -0.85,-0.35 -5.35,-1.95 q -0.6,0.6 -0.85,1.1 l -0.15,0.8 m 30.7,14.6 0.45,0.25 0.75,0.55 0.9,0.85 0.3,0.4 q -0.15,0.8 0.25,1.45 0.45,0.7 1.25,0.85 l 1,-0.1 0.65,-0.5 q 0.4,-0.5 0.45,-1.15 0.05,-0.65 -0.35,-1.15 l -1.3,-1.25 0.1,-0.15 0.35,-0.5 0.35,-1.05 q 0,-0.65 -0.45,-0.95 -0.4,-0.4 -1,-0.25 -0.65,0.1 -1.25,1 l -0.25,0.55 H 50 l -0.65,0.1 -0.55,0.15 q -0.25,0.15 -0.25,0.45 l 0.2,0.45 m 13.35,2.25 q 1.25,-0.5 1.85,-1.85 l 0.1,-0.15 -0.55,-0.55 q -0.3,-0.45 -0.5,-1.25 -0.6,-1.9 -0.35,-2.9 l -0.45,-0.2 -2.65,-0.05 -0.8,0.35 Q 58.3,25.9 58,26.25 l -0.65,0.8 q -0.4,0.65 -0.5,1.45 -0.1,2 1.75,3.2 0.8,0.55 1.7,0.7 l 1.8,-0.15 M 51.85,23.3 51.9,22.4 q -0.1,-1.6 -0.55,-2.2 l -0.5,-0.5 -0.7,-0.45 -0.9,-0.3 -0.95,-0.1 -0.45,0.85 -1.3,1.35 q -0.95,0.7 -1.65,0.8 -0.2,1.25 -0.05,1.85 0.2,0.9 1.05,1.65 0.8,0.65 1.75,0.8 1.55,0.25 2.75,-0.6 l 1.15,-1.4 0.3,-0.85 m -27,13.4 q 3.25,-2.4 7.1,-3.5 3.7,-1.05 7.35,-0.75 L 39.05,31.5 38.25,31.45 28.5,30.25 27.3,30 l -2.05,-0.6 -2.1,-0.7 0.7,6.6 0.25,2 0.75,-0.6"
         fill="#000000"
         fill-rule="evenodd"
         stroke="none"
         id="path11" />
      <path
         d="m 51.85,23.3 -0.3,0.85 -1.15,1.4 Q 49.2,26.4 47.65,26.15 46.7,26 45.9,25.35 45.05,24.6 44.85,23.7 44.7,23.1 44.9,21.85 q 0.7,-0.1 1.65,-0.8 l 1.3,-1.35 0.45,-0.85 0.95,0.1 0.9,0.3 0.7,0.45 0.5,0.5 q 0.45,0.6 0.55,2.2 l -0.05,0.9 m 10.25,8.95 -1.8,0.15 q -0.9,-0.15 -1.7,-0.7 -1.85,-1.2 -1.75,-3.2 0.1,-0.8 0.5,-1.45 L 58,26.25 q 0.3,-0.35 0.75,-0.6 l 0.8,-0.35 2.65,0.05 0.45,0.2 q -0.25,1 0.35,2.9 0.2,0.8 0.5,1.25 l 0.55,0.55 -0.1,0.15 q -0.6,1.35 -1.85,1.85 M 48.75,30 48.55,29.55 q 0,-0.3 0.25,-0.45 l 0.55,-0.15 0.65,-0.1 h 0.95 L 51.2,28.3 q 0.6,-0.9 1.25,-1 0.6,-0.15 1,0.25 0.45,0.3 0.45,0.95 l -0.35,1.05 -0.35,0.5 -0.1,0.15 1.3,1.25 q 0.4,0.5 0.35,1.15 -0.05,0.65 -0.45,1.15 l -0.65,0.5 -1,0.1 Q 51.85,34.2 51.4,33.5 51,32.85 51.15,32.05 L 50.85,31.65 49.95,30.8 49.2,30.25 48.75,30 M 18.05,15.4 18.2,14.6 q 0.25,-0.5 0.85,-1.1 l 5.35,1.95 0.85,0.35 -0.05,0.25 -0.3,1.05 -4,-0.9 -2,-0.15 -0.9,-0.1 0.05,-0.55 m 16.6,3.55 -0.15,0.85 -0.2,0.5 -0.7,1.05 -0.4,0.35 -0.45,-0.75 Q 31.4,19.5 28.5,18.35 l 0.3,-0.85 0.15,-0.15 4.4,1.35 1.3,0.25"
         fill="#ffffff"
         fill-rule="evenodd"
         stroke="none"
         id="path12" />
      <path
         d="M 5.15,35.4 Q 4,36.1 2.7,36.15 1.35,36.25 0.35,35.5 -1.4,34.2 -1.25,31.95 -1.1,29.5 1,28.2 1.95,27.6 3.1,27.5 l 2.2,0.35 0.85,0.3 0.65,-0.1 q 2,-0.5 4.65,-1.65 L 16,24.35 17.35,24.3 q 0.7,0.45 0.05,1.5 l -1.25,1.35 q -3.25,2.9 -7.3,4.95 L 7.45,33 6.7,33.95 q -0.6,0.9 -1.55,1.45"
         fill="#000000"
         fill-rule="evenodd"
         stroke="none"
         id="path13" />
    </g>
    <g
       id="shape2"
       transform="translate(2,2.05)">
      <path
         d="M -0.5,-0.4 V -0.55 H 75.1 V -0.4 40.8 H -0.5 Z"
         fill="none"
         stroke="#000000"
         stroke-linecap="round"
         stroke-linejoin="round"
         stroke-width="3"
         id="path14" />
    </g>
  </defs>
</svg>
