<?xml version="1.0" encoding="UTF-8" standalone="no"?>
<svg
   ffdec:objectType="frame"
   height="60.549999"
   width="67.099998"
   version="1.1"
   id="svg7"
   sodipodi:docname="530.svg"
   xmlns:inkscape="http://www.inkscape.org/namespaces/inkscape"
   xmlns:sodipodi="http://sodipodi.sourceforge.net/DTD/sodipodi-0.dtd"
   xmlns:xlink="http://www.w3.org/1999/xlink"
   xmlns="http://www.w3.org/2000/svg"
   xmlns:svg="http://www.w3.org/2000/svg"
   xmlns:ffdec="https://www.free-decompiler.com/flash">
  <sodipodi:namedview
     id="namedview7"
     pagecolor="#ffffff"
     bordercolor="#000000"
     borderopacity="0.25"
     inkscape:showpageshadow="2"
     inkscape:pageopacity="0.0"
     inkscape:pagecheckerboard="0"
     inkscape:deskcolor="#d1d1d1"
     fit-margin-top="5"
     fit-margin-left="5"
     fit-margin-right="5"
     fit-margin-bottom="5" />
  <g
     transform="translate(1.5,1.5)"
     id="g3">
    <use
       ffdec:characterId="516"
       height="57.549999"
       width="64.099998"
       xlink:href="#shape0"
       id="use1" />
    <use
       ffdec:characterId="1026"
       height="54.299999"
       transform="translate(-0.6,4.75)"
       width="53.349998"
       xlink:href="#shape1"
       id="use2" />
    <use
       ffdec:characterId="518"
       height="60.549999"
       transform="translate(-1.5,-1.5)"
       width="67.099998"
       xlink:href="#shape2"
       id="use3" />
  </g>
  <defs
     id="defs7">
    <g
       id="shape0">
      <path
         d="M 53.6,0 H 64.1 V 57.55 H 53.6 28.25 0 V 0 H 28.25 53.6 V 57.55 0 M 28.25,0 V 57.55 0"
         fill="#ffffff"
         fill-rule="evenodd"
         stroke="none"
         id="path3" />
    </g>
    <g
       id="shape1"
       transform="translate(0.6,-4.75)">
      <path
         d="m 52.75,23.35 q 0.1,3.5 -1.3,6 -1.2,2.2 -3.35,3.6 l 0.1,1.5 q 0,0.6 0.15,0.8 l 0.65,0.4 q 1.8,0.7 2.45,2.55 l 0.3,1.3 0.15,1.85 q -0.15,1.75 -2.45,3.85 0.45,0.65 0.3,1.5 -0.1,0.85 -0.75,1.35 -0.8,0.65 -2.75,0.55 L 45.4,48.55 45.25,48.8 44,50.25 l -1.8,0.2 -1.05,-0.2 q -1.05,0.9 -2.85,0.5 -1.4,-0.4 -1.9,-1.2 h -0.15 l -1.3,0.35 -1.55,0.2 q -1.25,0 -1.8,-0.4 L 30.8,48.9 Q 30.4,48.4 30.35,48 30.2,47.15 30.85,46.4 L 29.6,44.75 29,43.5 q -2.25,0.7 -3.45,1.4 -1.25,0.65 -2.1,1.5 l 0.85,-0.15 1.7,-0.1 1.7,0.5 q 0.8,0.5 1.05,1.3 0.4,1.4 -0.7,2.4 -0.9,0.9 -2.35,1.05 L 23,51.1 Q 21.75,51 20.3,50.25 l -1.05,-0.8 q -0.35,-0.5 -0.35,-1.55 0,-1.45 0.15,-1.9 l 0.75,-1.3 q 1.4,-1.8 4,-3.1 1.55,-0.75 4.85,-1.75 L 29.3,39.7 29.75,38.85 Q 30.6,37.65 31.8,37 l 1.05,-0.9 0.15,-0.8 0.3,-1.05 q 0.25,-0.8 0.55,-1.15 l -1.4,-1.05 q -1.55,-1.35 -2.35,-3.2 -0.8,-1.95 -0.6,-3.9 0.1,-1.1 0.7,-2.75 l 1.05,-2.15 0.5,-0.65 -0.6,-0.95 Q 31,18.05 31,17.1 q 0,-1.25 0.15,-1.85 l 0.95,-2 0.4,-1.1 0.5,-1.1 q 0.45,-0.55 1.25,-0.7 0.7,-0.1 1.35,0.4 l 0.8,1 1,1.9 0.75,1 6.8,-0.2 0.35,-0.35 q 1.15,-0.95 2.4,-2.65 0.75,-1.15 1.3,-1.4 0.5,-0.2 1,0 l 0.8,0.6 0.35,1.25 0.5,1.75 0.4,1.75 0.1,1.25 0.1,0.85 -0.05,0.75 0.1,0.7 0.1,1 v 0.25 q 0.35,1.4 0.35,3.15 M 41.9,26.8 41.7,26.35 41.3,26 l -0.5,0.05 -0.5,0.55 -0.25,0.3 -0.3,0.2 q -0.25,0 -0.45,-0.2 l -0.15,-0.3 v -0.3 l 0.25,-0.5 0.25,-0.35 q 0.2,-0.25 0,-0.65 l -0.45,-0.2 -0.1,0.05 q -0.2,0 -0.3,0.15 l -0.5,0.55 -0.45,0.8 -0.05,1.05 q 0.1,0.55 0.5,0.9 l 0.45,0.3 1.05,0.05 0.6,-0.15 0.45,-0.4 0.5,0.35 0.45,0.15 h 1.1 q 0.7,-0.1 0.9,-0.6 L 44,27.2 44.15,25.95 43.9,25.4 q -0.25,-0.45 -0.6,-0.45 -0.5,-0.15 -0.8,0.5 -0.15,0.5 0.1,1 l -0.1,0.4 -0.6,-0.05 m 6,-1.45 q 1.65,-0.55 2.05,-2.25 0.35,-1.7 -0.9,-2.95 -1.35,-1.2 -2.95,-0.7 -1.75,0.4 -2.15,2.1 l -0.1,0.55 0.05,0.95 0.15,0.5 q 0.5,1.2 1.55,1.65 l 2.3,0.15 M 5.15,24.45 4.75,23.8 4.15,23.2 Q 3.3,22.4 2.6,20.4 2,18.5 1.95,16.95 q 0,-4.2 3.9,-8.1 Q 7.1,7.6 8.3,6.8 10.6,5.35 13.65,4.95 l 3.85,-0.1 q 4.5,0.65 7.1,4.25 2.7,3.6 2,8 -0.3,2.3 -1.65,4.1 -1.05,1.4 -2.95,2.6 -4.85,3.05 -9.4,2.05 L 8.2,29.35 6.7,30.8 5.85,31.2 H 5.35 L 4.8,31.4 3.85,31.25 Q 3.15,30.75 3.6,29.1 4.05,27.15 4.65,26 l 0.5,-1.55 m 9.8,-0.6 2.25,-0.45 q 0.9,-0.25 2.6,-1.15 2.25,-1.2 3.15,-2.35 0.95,-1.3 1.1,-3.1 0.2,-1.7 -0.35,-3.35 Q 23.1,11.8 21.95,10.55 20.5,9.05 18.35,8.4 L 14.1,8.1 q -4.1,0.65 -7.05,4.35 -1.7,2.15 -1.85,4.3 -0.1,1.5 0.7,3.5 0.55,1.35 1.3,2.05 l 0.7,0.55 0.55,0.65 Q 8.7,24.25 7.9,25.6 l -0.95,2.05 0.8,-0.5 1.95,-1.35 2.6,-1.4 q 0.25,-0.15 0.45,-0.15 h 0.2 l 2,-0.4 m 19.3,-3.1 q -0.8,0.1 -1.45,0.7 -0.6,0.55 -0.85,1.35 -0.2,0.8 0.1,1.6 0.3,0.8 0.95,1.3 0.65,0.55 1.5,0.6 l 1.55,-0.35 1.1,-1.15 q 0.45,-0.75 0.35,-1.55 -0.05,-0.85 -0.6,-1.5 -0.55,-0.65 -1.35,-0.9 l -0.85,-0.2 -0.1,0.05 -0.35,0.05 M 11.75,17 Q 11.25,16.65 11.1,16.15 L 11.05,15.5 q 0.1,-1.7 0.6,-2.35 0.6,-0.7 1.5,-0.55 0.45,0 0.65,0.3 l 0.45,0.65 0.2,0.65 -0.15,0.8 -0.25,0.8 q -0.2,0.6 -0.5,0.65 L 13.4,16.3 q 0.4,-1.1 0.25,-1.7 L 13.4,14.05 13,13.7 12.7,13.85 q -0.4,0.45 -0.3,1.3 L 12.65,16.7 12.3,17.15 11.75,17"
         fill="#999999"
         fill-rule="evenodd"
         stroke="none"
         id="path4" />
      <path
         d="M 47.9,25.35 45.6,25.2 q -1.05,-0.45 -1.55,-1.65 l -0.15,-0.5 -0.05,-0.95 0.1,-0.55 q 0.4,-1.7 2.15,-2.1 1.6,-0.5 2.95,0.7 1.25,1.25 0.9,2.95 -0.4,1.7 -2.05,2.25 m -6,1.45 0.6,0.05 0.1,-0.4 q -0.25,-0.5 -0.1,-1 0.3,-0.65 0.8,-0.5 0.35,0 0.6,0.45 l 0.25,0.55 -0.15,1.25 -0.2,0.6 q -0.2,0.5 -0.9,0.6 H 41.8 L 41.35,28.25 40.85,27.9 40.4,28.3 39.8,28.45 38.75,28.4 38.3,28.1 q -0.4,-0.35 -0.5,-0.9 l 0.05,-1.05 0.45,-0.8 0.5,-0.55 q 0.1,-0.15 0.3,-0.15 l 0.1,-0.05 0.45,0.2 q 0.2,0.4 0,0.65 l -0.25,0.35 -0.25,0.5 v 0.3 l 0.15,0.3 q 0.2,0.2 0.45,0.2 l 0.3,-0.2 0.25,-0.3 0.5,-0.55 0.5,-0.05 0.4,0.35 0.2,0.45 m -7.65,-6.05 0.35,-0.05 0.1,-0.05 0.85,0.2 q 0.8,0.25 1.35,0.9 0.55,0.65 0.6,1.5 0.1,0.8 -0.35,1.55 l -1.1,1.15 -1.55,0.35 q -0.85,-0.05 -1.5,-0.6 -0.65,-0.5 -0.95,-1.3 -0.3,-0.8 -0.1,-1.6 0.25,-0.8 0.85,-1.35 0.65,-0.6 1.45,-0.7"
         fill="#ffffff"
         fill-rule="evenodd"
         stroke="none"
         id="path5" />
      <path
         d="m 21.75,9.4 0.25,1 0.1,1.05 -0.25,1.55 -0.7,2.8 -0.3,0.6 q -0.35,0.25 -0.6,0 L 19.9,15.8 19.4,13.55 19,12 18.5,10.65 Q 18.35,9.55 19,8.9 19.65,8.3 20.5,8.45 21.45,8.6 21.75,9.4 m 0.3,10.55 -0.85,0.6 -1.15,-0.05 -0.85,-0.75 q -0.3,-0.5 -0.15,-1.15 0.15,-0.65 0.6,-1 0.5,-0.35 1.15,-0.3 0.65,0.05 1.05,0.45 l 0.5,1.05 q 0.05,0.65 -0.3,1.15 M 7.8,14.05 7.9,12.5 Q 8.25,10.85 9.5,9.6 10.8,8.35 12.45,8.1 h 1.4 l 1.4,0.55 0.9,0.55 q 1.5,1.2 1.15,3.5 -0.25,1.65 -1.65,3.4 l -0.2,0.35 0.1,0.45 0.15,1.15 -0.15,1.2 -0.2,1.15 Q 15.1,20.9 14.3,21 l -0.25,0.55 q -0.5,0.75 -1.6,0.45 l -0.5,-0.2 q -0.4,-0.3 -0.5,-0.7 l -0.8,-0.2 q -0.7,-0.3 -1,-1 -0.3,-0.65 -0.3,-1.45 L 9.3,17.65 8.75,16.65 8,15.4 7.8,14.05 m 5.35,2.15 0.35,-0.15 0.25,-0.45 0.5,-1.55 0.45,-1.25 q 0.2,-0.75 -0.15,-1.25 -0.3,-0.45 -0.9,-0.6 L 12.5,11 q -1.35,0.4 -1.8,1.85 -0.4,1.4 0.65,2.5 l 0.55,0.5 0.3,0.55 0.95,-0.2 m 0.95,38.45 -2.55,2.9 q -1,1.2 -1.8,1.4 Q 8.9,59.2 8.05,58.65 7.2,58.05 7.1,57.1 V 57.05 L 6.2,57.55 5.25,57.5 4.3,57.15 2.3,56.75 0.75,56.6 Q 0,56.4 -0.4,55.6 -0.75,54.8 -0.5,54.05 l 0.45,-0.95 v -1.05 -1.8 L 0.05,48.8 Q 0.3,47.75 1.1,46.65 l -0.35,0.1 q -0.7,0.3 -1.1,-0.2 -0.35,-0.45 0.2,-1.35 1.85,-2.95 6.9,-7.8 l 5.8,-5.55 q 3.15,-3.05 4.95,-4.3 1.35,-1 2.5,-1.25 1.7,-0.35 2.6,0.55 0.65,0.6 0.75,1.6 0.15,0.95 -0.3,1.75 -0.75,1.5 -2.75,2.3 2.05,1.65 2.6,4.35 0.45,2.65 -0.95,6.1 -1.2,2.95 -3.45,6.15 l -4.4,5.55"
         fill="#000000"
         fill-rule="evenodd"
         stroke="none"
         id="path6" />
    </g>
    <g
       id="shape2"
       transform="translate(1.5,1.5)">
      <path
         d="M 0,23.8 V 0 H 64.1 V 23.8 57.55 H 0 Z"
         fill="none"
         stroke="#000000"
         stroke-linecap="round"
         stroke-linejoin="round"
         stroke-width="3"
         id="path7" />
    </g>
  </defs>
</svg>
