<?xml version="1.0" encoding="UTF-8" standalone="no"?>
<svg
   ffdec:objectType="frame"
   height="60.549999"
   width="67.099998"
   version="1.1"
   id="svg10"
   sodipodi:docname="536.svg"
   xmlns:inkscape="http://www.inkscape.org/namespaces/inkscape"
   xmlns:sodipodi="http://sodipodi.sourceforge.net/DTD/sodipodi-0.dtd"
   xmlns:xlink="http://www.w3.org/1999/xlink"
   xmlns="http://www.w3.org/2000/svg"
   xmlns:svg="http://www.w3.org/2000/svg"
   xmlns:ffdec="https://www.free-decompiler.com/flash">
  <sodipodi:namedview
     id="namedview10"
     pagecolor="#ffffff"
     bordercolor="#000000"
     borderopacity="0.25"
     inkscape:showpageshadow="2"
     inkscape:pageopacity="0.0"
     inkscape:pagecheckerboard="0"
     inkscape:deskcolor="#d1d1d1"
     fit-margin-top="5"
     fit-margin-left="5"
     fit-margin-right="5"
     fit-margin-bottom="5" />
  <g
     transform="translate(1.5,1.5)"
     id="g3">
    <use
       ffdec:characterId="516"
       height="57.549999"
       width="64.099998"
       xlink:href="#shape0"
       id="use1" />
    <use
       ffdec:characterId="1032"
       height="47"
       transform="translate(5.5,4.1)"
       width="48.950001"
       xlink:href="#shape1"
       id="use2" />
    <use
       ffdec:characterId="518"
       height="60.549999"
       transform="translate(-1.5,-1.5)"
       width="67.099998"
       xlink:href="#shape2"
       id="use3" />
  </g>
  <defs
     id="defs10">
    <g
       id="shape0">
      <path
         d="M 53.6,0 H 64.1 V 57.55 H 53.6 28.25 0 V 0 H 28.25 53.6 V 57.55 0 M 28.25,0 V 57.55 0"
         fill="#ffffff"
         fill-rule="evenodd"
         stroke="none"
         id="path3" />
    </g>
    <g
       id="shape1"
       transform="translate(-5.5,-4.1)">
      <path
         d="m 39.55,16.95 0.85,-0.2 q 3.35,0.05 4.6,3.15 1.4,3.35 -1.55,5.35 H 43.4 q -0.9,0.6 -1.7,0.8 l -1.35,0.05 -0.7,1.55 q -0.8,1.5 -2.2,2.5 -1.3,0.95 -2.75,1.4 L 31.6,32 h -0.05 v 0.05 0.1 q -0.1,0.9 0.15,1.7 l 1.8,1.65 1.1,0.85 0.2,0.2 q 0.45,-1 1.25,-1.85 1.35,-1.4 2.95,-1.8 l 3.65,0.2 0.1,0.05 q 0.85,0.25 1.5,0.9 L 44.35,34 44.5,33.95 h 0.1 l 0.1,-0.35 0.2,-0.35 -0.5,-2.2 -0.05,-1.1 q 0,-0.5 0.35,-0.8 l 0.45,-0.2 0.2,0.05 0.1,0.05 0.1,0.15 0.05,0.15 v 0.05 0.15 l -0.05,0.1 v 0.05 0.1 l -0.05,0.3 v 0.05 l 0.85,1.9 q 0.25,1.2 -0.15,2.45 -0.3,0.95 -1.2,1.35 l -1.2,0.35 q -1.15,0.2 -2.35,-0.35 l -0.65,-0.1 -0.35,0.05 q -2.2,0.5 -2.3,2.75 l -0.25,1.6 q -0.3,1.05 -0.95,1.95 l -0.5,1.65 -0.05,0.2 q -0.75,1.55 -2.2,2.45 h -0.05 l -1.1,0.5 -0.3,0.1 -2.55,0.35 -1.1,-0.05 Q 27.3,47.1 25.85,46.4 L 25.4,46.15 24.85,45.85 23.5,44.75 22.95,44.2 22.9,44.1 22,42.9 21.55,42.05 Q 21.2,41.35 21.15,40.6 L 21.1,40.25 q -0.15,-1.55 0.05,-3 0.15,-1.05 0.45,-2.05 l 0.3,-0.85 q 0.65,-1.85 1.85,-3.25 0.75,-0.9 1.75,-1.65 -1.05,-1.1 -1.65,-2.7 -1.5,-4.05 0.5,-7.85 1.25,-2.3 3.25,-3.5 l -0.35,-1.35 q -0.25,-3.6 3.2,-5 L 31.6,8.75 Q 34.9,8.9 35.95,12 l 0.2,1.5 -0.35,1.5 q 1.2,0.5 2.25,1.35 l 0.85,0.75 0.1,0.1 0.55,-0.25 m -3.8,4.2 q -1,0.05 -1.65,0.85 -1.25,1.45 -0.6,3.15 l 0.45,0.55 0.25,0.15 q 1.15,0.6 2.25,0.3 L 37.8,25.4 q -0.55,-0.8 -0.55,-1.75 l 0.1,-1.15 q 0.1,-0.5 0.35,-0.85 -0.6,-0.45 -1.6,-0.5 h -0.35 m -6.8,3.35 q -1.95,0.25 -1.9,2.2 0,0.9 0.8,1.4 1.95,1.2 3.3,-0.5 0.6,-0.75 0.3,-1.7 l -0.05,-0.2 0.1,-0.35 0.1,-0.15 0.05,-0.1 0.05,-0.05 0.4,-0.4 Q 32.55,23.8 31.55,23.5 v 0.05 H 31.4 q -0.45,0.15 -0.85,0.4 l -0.6,0.55 h -1 m 2.25,-7.3 -0.1,0.05 H 31 l -0.2,0.2 q -0.35,1.05 -0.45,2.1 l -2.45,-0.9 -0.1,0.05 h -0.1 l -0.1,0.15 -0.1,0.1 V 19 q 0.05,0.75 0.6,1.3 l 1.35,1.35 q 0.4,0.35 0.9,0.4 h 0.3 q 0.35,0.25 1,0 l 0.3,-0.4 q 0.1,-1.75 -0.2,-3.6 l 0.1,-0.1 v -0.1 -0.15 l -0.1,-0.2 q -0.2,-0.3 -0.55,-0.3"
         fill="#000000"
         fill-rule="evenodd"
         stroke="none"
         id="path4" />
      <path
         d="m 31.2,17.2 q 0.35,0 0.55,0.3 l 0.1,0.2 v 0.15 0.1 l -0.1,0.1 q 0.3,1.85 0.2,3.6 l -0.3,0.4 q -0.65,0.25 -1,0 h -0.3 Q 29.85,22 29.45,21.65 L 28.1,20.3 Q 27.55,19.75 27.5,19 v -0.05 l 0.1,-0.1 0.1,-0.15 h 0.1 l 0.1,-0.05 2.45,0.9 q 0.1,-1.05 0.45,-2.1 l 0.2,-0.2 h 0.1 l 0.1,-0.05 m -2.25,7.3 h 1 l 0.6,-0.55 q 0.4,-0.25 0.85,-0.4 h 0.15 V 23.5 q 1,0.3 0.55,1.15 l -0.4,0.4 -0.05,0.05 -0.05,0.1 -0.1,0.15 -0.1,0.35 0.05,0.2 q 0.3,0.95 -0.3,1.7 -1.35,1.7 -3.3,0.5 -0.8,-0.5 -0.8,-1.4 -0.05,-1.95 1.9,-2.2 m 6.8,-3.35 h 0.35 q 1,0.05 1.6,0.5 -0.25,0.35 -0.35,0.85 l -0.1,1.15 q 0,0.95 0.55,1.75 l -1.35,0.75 q -1.1,0.3 -2.25,-0.3 L 33.95,25.7 33.5,25.15 q -0.65,-1.7 0.6,-3.15 0.65,-0.8 1.65,-0.85"
         fill="#ffffff"
         fill-rule="evenodd"
         stroke="none"
         id="path5" />
      <path
         d="m 38.05,16.35 q 1.35,-3.2 3.15,-6.05 l 0.05,0.05 h 0.1 Q 41.3,12.3 40.6,14.2 L 39.55,16.95 39,17.2 38.9,17.1 38.05,16.35 m 5.4,8.9 -3.25,5.55 -1.2,2.1 q -1.6,0.4 -2.95,1.8 -0.8,0.85 -1.25,1.85 l -0.2,-0.2 q 1.5,-2.6 3.3,-5.05 l 3.8,-5.25 q 0.8,-0.2 1.7,-0.8 h 0.05 m -0.7,7.9 1,-1.3 0.65,-0.8 0.5,2.2 -0.2,0.35 -0.1,0.35 h -0.1 l -0.15,0.05 -0.1,0.05 q -0.65,-0.65 -1.5,-0.9 m 2.8,-3.45 3.6,-4 1.15,-0.95 h 0.1 l 0.15,0.05 0.15,0.2 0.05,0.2 -2.6,4.15 -1.8,2.7 -0.85,-1.9 V 30.1 l 0.05,-0.3 v -0.1 m -1.75,6.5 -3.3,5.9 6.35,-4.8 0.5,-0.3 q 1.4,-1.45 3.35,-2.15 l 0.8,-0.25 0.2,0.05 0.15,0.1 v 0.1 L 51.8,35 l -1.6,1 -0.3,0.15 -5.4,5.4 -3.7,4.15 q 0.65,2.45 -1.65,3.75 -1.7,1 -3.7,1.3 Q 27.6,51.75 20,50 17.6,49.4 16.85,47.2 16.35,45.75 17.1,44.4 l 0.25,-0.35 -0.85,-1.5 -0.45,-0.9 -0.2,-0.85 -0.15,-0.3 -0.1,-0.3 -0.05,-0.05 -2.6,-4.9 -1.5,-2.8 L 9.8,30.05 9.45,29.4 9.2,28.7 9.25,28.65 9.3,28.55 9.35,28.45 9.4,28.4 h 0.05 0.1 l 0.15,0.05 0.1,0.05 0.3,0.25 0.25,0.15 q 2.6,2.9 4.85,6.05 l 3.35,4.9 0.35,0.5 -0.75,-3.2 -1.05,-4.8 -0.75,-3.15 Q 15.65,25.85 14.5,22.6 14.05,21.25 13.9,19.85 V 19.8 l 0.05,-0.15 v -0.1 l 0.1,-0.1 0.1,-0.05 0.15,-0.05 0.2,0.05 q 2.25,3.25 3.4,7.1 l 2.4,7.7 0.85,3.05 q -0.2,1.45 -0.05,3 l 0.05,0.35 q 0.05,0.75 0.4,1.45 l 0.45,0.85 0.9,1.2 0.05,0.1 0.55,0.55 1.35,1.1 0.55,0.3 0.45,0.25 q 1.45,0.7 3.25,0.9 l 1.1,0.05 2.55,-0.35 0.3,-0.1 1.1,-0.5 h 0.05 q 1.45,-0.9 2.2,-2.45 l 0.05,-0.2 0.5,-1.65 q 0.65,-0.9 0.95,-1.95 l 1.1,-1.7 1.8,-2.7 0.65,0.1 q 1.2,0.55 2.35,0.35 M 21.9,34.35 21.4,30.4 21.3,29.9 21.35,29.5 20.75,21.9 20.1,18.1 19.7,16.75 V 16.1 l -0.25,-1.1 0.1,-0.65 0.15,-0.1 0.1,-0.05 0.15,0.05 0.15,0.2 0.05,0.2 q 1.45,3.65 2.25,7.55 0.8,3.95 1.25,7.95 l 0.1,0.95 q -1.2,1.4 -1.85,3.25 m 32.1,5.35 0.3,0.1 0.15,0.15 v 0.15 0.1 0.05 l -0.05,0.05 -0.05,0.05 -0.45,0.3 -0.1,0.1 -0.85,1.25 -0.4,0.75 Q 52,44.7 51.05,46.45 L 50.7,46.7 49.75,46.4 q -0.8,0.05 -1.1,-0.7 -0.35,-0.8 -0.3,-1.75 0.15,-4.4 3.45,-7.35 l 0.2,-0.05 0.1,-0.05 0.2,0.05 0.1,0.05 0.1,0.15 0.1,0.1 v 0.05 l -0.05,0.25 -0.25,0.25 q -1.1,2.3 -1.3,4.75 1.1,-1.5 2.85,-2.4 L 54,39.7 m -6.45,1.85 0.2,0.05 0.1,0.1 0.1,0.2 q -0.25,1.85 0.5,3.55 l -0.1,0.5 q -1,1.1 -1.65,-0.2 -0.25,-0.45 -0.25,-1 -0.05,-1.7 0.85,-3.1 l 0.1,-0.05 0.15,-0.05 m -36.6,-3.7 0.15,0.05 0.15,0.1 -0.6,1.4 -0.35,0.5 q -1.3,3.2 -2,6.5 l -0.4,0.4 -0.7,0.05 -0.45,0.1 Q 5.2,46.65 5.55,45.05 6.25,41.7 6.4,38.2 L 6.5,37.3 6.85,35.75 7,35.65 7.15,35.6 l 0.2,0.05 q 0.5,1.45 0.4,3.1 v 1.3 l 0.2,1.7 0.25,-0.5 q 1,-1.8 2.45,-3.15 l 0.15,-0.2 0.15,-0.05 m 23.75,-6.3 -1.2,3.95 -1.8,-1.65 q -0.25,-0.8 -0.15,-1.7 L 31.6,32 34.7,31.55"
         fill="#999999"
         fill-rule="evenodd"
         stroke="none"
         id="path6" />
      <path
         d="m 28.95,18.7 -0.1,-0.35 v -0.4 l 0.05,0.4 0.05,0.35 m 0.35,-1.3 0.15,-0.25 q 0.45,-0.5 1.1,-0.55 l 0.4,-0.4 0.65,-0.2 q 0.85,0.05 1.15,0.8 l 0.15,0.45 q 1.35,1.6 0.55,3.35 l -0.6,0.5 v 0.8 l -0.45,0.65 q -1.2,0.6 -1.9,-0.35 L 31,22 31.25,21.55 q -0.35,-2.05 -1.5,-3.9 l -0.2,-0.1 -0.25,-0.15 m 3.95,5.45 q 1.65,0.95 1.95,2.95 0.25,1.95 -1.75,1.95 -0.55,0 -0.85,-0.5 -0.8,-1.3 -0.05,-2.7 v -0.5 L 32.6,23.25 32.8,23 q 0.25,-0.15 0.45,-0.15 m -17.15,4.5 1.75,0.4 0.45,0.5 1.1,1.2 0.7,1.65 v 0.1 L 20.05,31.25 20,31.3 h -0.05 -0.1 -0.1 L 19.2,30.85 18.4,30.25 15.6,29.9 q -0.3,-0.05 -0.5,-0.3 -0.9,-1.45 0.7,-2.15 l 0.3,-0.1 m 1.4,7.95 q 0.75,0.05 1.3,0.55 l 0.35,0.3 0.05,0.1 0.05,0.15 v 0.05 L 19.2,36.5 v 0.05 l -0.05,0.1 -0.1,0.05 h -0.1 -0.2 l -0.5,0.2 H 18.1 l -0.4,0.25 -0.25,0.1 Q 17.3,39.1 15.5,38.5 14.9,38.25 14.9,37.7 14.85,36.3 16.25,35.65 16.9,35.35 17.5,35.3 M 29.4,25.2 q 1.7,0.45 0.85,2 -0.3,0.5 -0.85,0.4 -1.5,-0.15 -1.1,-1.55 0.25,-0.8 1.1,-0.85"
         fill="#000000"
         fill-rule="evenodd"
         stroke="none"
         id="path7" />
      <path
         d="m 28.85,17.95 v -0.2 -0.05 l 0.05,-0.1 0.1,-0.1 0.1,-0.05 h 0.05 l 0.1,-0.05 h 0.05 l 0.25,0.15 0.2,0.1 q 1.15,1.85 1.5,3.9 L 31,22 30.5,22.2 q -0.65,0.1 -0.85,-0.75 L 29.4,20.35 29.2,19.6 29.15,19.25 V 19.2 L 29,18.95 28.95,18.7 28.9,18.35 28.85,17.95"
         fill="#ffffff"
         fill-rule="evenodd"
         stroke="none"
         id="path8" />
      <path
         d="m 46,9.05 q 2,0.35 1.25,2.15 l -0.8,0.75 Q 44.3,12.65 42.6,14 L 42.5,14.05 42.3,14.1 42.15,14.05 42,13.95 41.95,13.85 41.9,13.7 V 13.5 13.45 Q 42.65,11.7 43.95,10.2 44.8,9.2 46,9.05 M 41.8,4.1 q 1.95,0.35 1.45,2.2 l -0.65,1.2 -0.7,0.6 -2.45,3.1 -0.7,1.1 -0.1,0.05 L 38.4,12.5 38.25,12.45 38.15,12.4 38.1,12.3 38.05,12.25 38,12.2 v -0.25 q -0.05,-0.15 0.05,-0.3 L 38.1,11.4 Q 38.45,8.75 39.65,6.3 40.1,5.35 40.8,4.55 41.2,4.1 41.8,4.1 m -6.6,0.7 q 1.8,0.55 1.7,2.55 l -0.2,2.2 -0.1,0.3 -0.15,0.4 -0.15,0.1 L 36.1,10.4 35.85,10.35 35.75,10.2 35.7,10.1 35.65,9.9 35.1,9.1 34.8,8.25 Q 33.5,7.05 34.1,5.5 34.3,5.05 34.8,4.9 l 0.4,-0.1 m -16.5,18.75 0.2,0.05 0.1,0.05 q 2,3.4 3.45,7.1 1.55,3.7 2.55,7.65 0.95,3.9 1.1,7.95 0.05,1.4 -1.4,1.5 -0.9,0.05 -1.2,-0.75 -0.4,-0.95 -0.45,-2 -0.15,-4.05 -0.8,-8 l -0.3,-1.65 -0.35,-0.9 -0.1,-0.65 q -0.95,-3.55 -2.35,-7 L 18.3,24.1 V 24 23.9 l 0.05,-0.15 0.05,-0.05 0.1,-0.05 0.05,-0.05 h 0.05 l 0.1,-0.05 m 17.85,8.2 0.05,0.05 h 0.15 l 0.15,0.15 0.05,0.1 -0.15,0.45 -0.2,0.25 -2.9,7.3 q -1.4,3.8 -1.5,7.8 0,0.55 -0.5,0.8 -1.6,0.95 -2.35,-0.7 -0.25,-0.6 -0.15,-1.3 l 1,-3.85 q 1.2,-3.9 3.3,-7.5 0.85,-1.5 2.1,-2.8 0.45,-0.5 0.95,-0.75"
         fill="#999999"
         fill-rule="evenodd"
         stroke="none"
         id="path9" />
    </g>
    <g
       id="shape2"
       transform="translate(1.5,1.5)">
      <path
         d="M 0,23.8 V 0 H 64.1 V 23.8 57.55 H 0 Z"
         fill="none"
         stroke="#000000"
         stroke-linecap="round"
         stroke-linejoin="round"
         stroke-width="3"
         id="path10" />
    </g>
  </defs>
</svg>
