<?xml version="1.0" encoding="UTF-8" standalone="no"?>
<svg
   ffdec:objectType="frame"
   height="44.349998"
   width="78.599998"
   version="1.1"
   id="svg11"
   sodipodi:docname="48.svg"
   xmlns:inkscape="http://www.inkscape.org/namespaces/inkscape"
   xmlns:sodipodi="http://sodipodi.sourceforge.net/DTD/sodipodi-0.dtd"
   xmlns:xlink="http://www.w3.org/1999/xlink"
   xmlns="http://www.w3.org/2000/svg"
   xmlns:svg="http://www.w3.org/2000/svg"
   xmlns:ffdec="https://www.free-decompiler.com/flash">
  <sodipodi:namedview
     id="namedview11"
     pagecolor="#ffffff"
     bordercolor="#000000"
     borderopacity="0.25"
     inkscape:showpageshadow="2"
     inkscape:pageopacity="0.0"
     inkscape:pagecheckerboard="0"
     inkscape:deskcolor="#d1d1d1"
     fit-margin-top="5"
     fit-margin-left="5"
     fit-margin-right="5"
     fit-margin-bottom="5" />
  <g
     transform="translate(2,2.05)"
     id="g3">
    <use
       ffdec:characterId="1"
       height="42.700001"
       transform="translate(-1.75,-2)"
       width="76.449997"
       xlink:href="#shape0"
       id="use1" />
    <use
       ffdec:characterId="48"
       height="38.549999"
       transform="translate(-0.45,2.25)"
       width="75.25"
       xlink:href="#shape1"
       id="use2" />
    <use
       ffdec:characterId="3"
       height="44.349998"
       transform="translate(-2,-2.05)"
       width="78.599998"
       xlink:href="#shape2"
       id="use3" />
  </g>
  <defs
     id="defs11">
    <g
       id="shape0"
       transform="translate(1.75,2)">
      <path
         d="M 2.8,0 V -0.4 H 5.4 V 0 H 9.7 V 19.45 0 H 20.55 L 19.3,19.45 H 9.7 0.25 V 0 H 2.8"
         fill="#ffffff"
         fill-rule="evenodd"
         stroke="none"
         id="path3" />
      <path
         d="M 0.25,19.45 H 9.7 19.3 L 18.7,28.6 16,28.5 10.95,27.95 9.7,27.8 Q 7.45,27.6 5.85,27.75 4.05,27.9 1.5,28.6 0.75,28.8 0.25,29.15 v -9.7 m 9.45,0 v 8.35 -8.35"
         fill="#121212"
         fill-rule="evenodd"
         stroke="none"
         id="path4" />
      <path
         d="m 9.7,27.8 1.25,0.15 5.05,0.55 2.7,0.1 h 1.05 l 3.75,0.15 q 2.45,0.3 3.6,1.25 0.6,0.5 0.6,1.1 0,0.65 -0.8,1 l -1.3,0.2 -7.15,0.15 -5.6,-0.3 L 9.7,31.75 7.95,31.6 3.1,31.95 0.95,32.3 0.25,32.1 -0.35,31.55 -0.5,31.3 V 29.9 L 0.25,29.15 Q 0.75,28.8 1.5,28.6 4.05,27.9 5.85,27.75 7.45,27.6 9.7,27.8 v 3.95 -3.95"
         fill="#999999"
         fill-rule="evenodd"
         stroke="none"
         id="path5" />
      <path
         d="M 2.8,0 H 0.25 M 9.7,0 H 5.4 m 16.15,0 h 10.7 M 20.55,0 H 9.7"
         fill="none"
         stroke="#666666"
         stroke-linecap="round"
         stroke-linejoin="round"
         stroke-width="4"
         id="path6" />
      <path
         d="m 9.7,-0.4 h 65 V 40.5 H 47.05 L 45.5,40.7 27,40.65 25.95,40.5 H 9.7 -0.5 V -0.4 H 9.7 V 40.5 -0.4"
         fill="#ffffff"
         fill-rule="evenodd"
         stroke="none"
         id="path7" />
    </g>
    <g
       id="shape1"
       transform="translate(0.45,-2.25)">
      <path
         d="M 67.85,10.3 Q 67.5,10.05 67.7,9.15 l 0.8,-2.8 0.35,-0.95 q 0.6,-0.85 1.55,-0.6 1,0.25 1.15,1.2 0.15,0.85 -0.95,2.25 l -1,1.2 q -0.5,0.65 -1,0.9 L 67.85,10.3 M 60.6,8.15 60.2,6.75 59.9,5.3 59.5,4.6 Q 59,3.65 59.8,2.75 60.6,2 61.6,2.4 q 1,0.4 1,1.55 L 62.45,4.9 62.4,6.1 Q 62.3,7.2 61.85,7.95 L 61.2,8.45 Q 60.9,8.5 60.6,8.15 M 0.7,23.1 h 0.25 l 0.1,0.05 H 3.5 L 18.1,23.1 h 20.75 l 2.7,0.05 h 8.5 l 4.05,0.05 h 1.45 l 1.6,0.05 2.75,0.05 h 3.2 l 1.6,0.05 h 0.85 l 0.6,0.05 h 1 0.2 2.65 0.75 2.25 0.5 0.45 l 0.25,0.05 0.2,0.1 0.1,0.1 0.1,0.05 0.05,0.1 0.05,0.05 0.05,0.1 v 0.1 l 0.05,0.05 v 0.1 0.1 0.05 l -0.05,0.1 v 0.1 l -0.05,0.05 -0.1,0.1 -0.05,0.05 -0.1,0.1 0.05,0.1 V 25 25.1 l 0.05,0.1 v 0.05 0.1 0.05 l 0.05,0.1 v 0.1 0.05 0.1 0.1 0.05 0.1 0.05 0.1 0.1 0.05 0.1 l 0.05,0.1 v 0.05 0.1 0.05 0.1 0.1 0.05 0.1 0.1 0.05 0.1 0.05 0.1 0.1 0.05 0.1 0.1 l 0.05,0.05 v 0.1 0.05 0.1 0.1 0.05 0.1 0.1 0.05 0.1 0.05 l 0.05,0.1 v 0.1 0.05 0.1 0.1 0.05 0.1 0.05 0.1 0.1 0.05 0.1 0.1 0.05 0.1 0.05 0.1 0.1 0.05 0.1 l 0.05,0.1 v 0.05 0.1 0.05 0.1 0.1 0.05 0.1 0.1 0.05 0.1 0.05 0.1 0.1 0.05 0.1 0.1 0.05 0.1 0.1 0.05 0.1 0.05 0.1 0.1 0.05 0.1 0.1 0.05 0.1 0.05 0.1 0.1 0.05 0.1 0.1 0.05 0.1 0.05 0.1 0.1 0.05 0.1 0.1 0.05 0.1 0.05 0.1 0.1 0.05 0.1 0.1 0.05 0.1 0.05 0.1 0.1 0.05 0.1 0.1 0.05 0.1 0.05 0.1 0.1 0.05 0.1 0.1 0.05 0.1 0.05 0.1 0.1 l -0.05,0.05 v 0.1 0.1 0.05 l 0.05,0.1 v 0.05 0.1 0.1 0.05 0.1 0.1 0.05 0.1 0.05 0.1 0.1 0.05 0.1 0.1 0.05 0.1 0.05 0.1 0.1 l -0.05,0.05 v 0.1 0.1 0.05 0.1 0.05 0.1 0.1 0.05 0.1 0.1 l -0.05,0.05 v 0.1 l -0.05,0.1 -0.05,0.05 v 0.1 l -0.05,0.05 -0.05,0.1 -0.05,0.1 -0.05,0.05 -0.05,0.05 -0.05,0.05 -0.1,0.1 -0.05,0.1 -0.1,0.05 -0.15,0.1 -0.15,0.1 -0.15,0.05 h -0.05 l -0.1,0.05 H 73.15 72.9 L 72.55,40.4 H 72 l -0.6,-0.05 h -1.7 -1 -0.4 L 67.75,40.3 67.5,40.25 H 66.95 L 66.45,40.2 H 65.7 l -1.65,-0.05 h -0.85 -1.05 -1.1 l -4.3,0.05 H 51.6 l -3.1,0.05 H 34 33.65 21.45 l -3.7,-0.05 h -1.3 l -2.7,-0.05 H 13 L 12.05,40.1 H 10.4 7.5 3.3 L 2.85,40.05 H 2.35 L 2.1,40 v 0.05 L 2.05,40.1 2,40.2 1.95,40.25 1.85,40.35 1.8,40.45 1.7,40.5 1.55,40.6 1.4,40.7 1.25,40.75 H 1.15 L 0.9,40.8 0.65,40.75 0.45,40.7 0.25,40.65 0.1,40.55 0,40.45 -0.05,40.4 -0.15,40.3 -0.2,40.2 -0.25,40.15 -0.3,40.05 -0.35,40 -0.4,39.9 v -0.1 -0.05 l -0.05,-0.1 v -0.1 -0.05 -0.1 -0.05 -0.1 -0.1 -0.05 -0.1 -0.1 -0.05 -0.1 -0.1 -0.05 -0.1 -0.05 -0.1 -0.1 -0.05 -0.1 -0.1 -0.05 -0.1 -0.05 -0.1 -0.1 -0.05 -0.1 -0.1 -0.05 -0.1 -0.05 -0.1 -0.1 -0.05 -0.1 -0.1 -0.05 -0.1 -0.05 -0.1 -0.1 -0.05 -0.1 -0.1 -0.05 -0.1 -0.05 -0.1 -0.1 -0.05 -0.1 -0.1 -0.05 -0.1 -0.05 -0.1 -0.1 -0.05 -0.1 -0.1 -0.05 -0.1 -0.05 -0.1 -0.1 -0.05 -0.1 -0.1 -0.05 -0.1 -0.05 -0.1 -0.1 -0.05 -0.1 -0.1 -0.05 -0.1 -0.05 -0.1 -0.1 -0.05 -0.1 -0.1 -0.05 -0.1 -0.05 -0.1 -0.1 -0.05 -0.1 -0.1 -0.05 -0.1 -0.05 -0.1 -0.1 -0.05 -0.1 -0.1 -0.05 -0.1 -0.1 -0.05 -0.1 -0.05 -0.1 -0.1 -0.05 -0.1 -0.1 -0.05 -0.1 -0.05 -0.1 -0.1 -0.05 -0.1 -0.1 -0.05 -0.1 -0.05 -0.1 l 0.05,-0.1 V 29.5 29.4 29.3 29.25 29.15 29.1 29 v -0.1 -0.05 -0.1 -0.1 -0.05 -0.1 -0.05 -0.1 -0.1 -0.05 -0.1 -0.1 -0.05 -0.1 -0.05 -0.1 -0.1 -0.05 -0.1 -0.1 -0.05 -0.1 -0.05 -0.1 -0.1 -0.05 -0.1 -0.1 -0.05 -0.1 -0.05 -0.1 -0.1 -0.05 -0.1 l 0.05,-0.1 V 26 25.9 25.85 25.75 l 0.05,-0.1 V 25.6 25.5 25.4 25.35 L -0.35,25.25 -0.3,25.2 -0.35,25.1 -0.3,25 v -0.05 -0.1 L -0.25,24.8 -0.3,24.75 -0.35,24.65 -0.4,24.6 v -0.1 -0.1 -0.05 l -0.05,-0.1 0.05,-0.1 V 24.1 24 23.95 l 0.05,-0.1 v -0.1 l 0.05,-0.05 0.05,-0.1 0.05,-0.1 0.1,-0.05 0.05,-0.1 L 0.1,23.3 0.25,23.2 0.4,23.15 0.45,23.1 H 0.7 M 54.05,9.1 53.35,8.9 52.5,8.1 Q 52.2,7.5 52.4,6.9 52.6,6.35 53.15,6.05 l 1.15,-0.2 q 0.85,0.25 1.5,1.3 l 0.7,1.5 0.1,0.85 q -0.1,0.6 -0.55,0.65 -0.35,0.1 -1.1,-0.45 l -0.9,-0.6"
         fill="#999999"
         fill-rule="evenodd"
         stroke="none"
         id="path8" />
      <path
         d="m 50.3,19 0.15,0.1 1.05,0.95 L 52.75,18.3 52.3,17.6 51.4,14.85 51.2,14.2 Q 50.9,13 51.05,12.4 51.3,11.65 51.9,11.35 l 1,-0.3 q 1.35,-0.25 2.8,0 l 0.8,0.2 0.25,-0.15 q 1.45,-0.85 3.15,-0.95 h 1.05 l 1.6,-1.35 q 0.7,-0.6 1.1,-0.65 l 1.25,0.25 0.85,0.9 0.7,1.15 1.35,3.85 0.25,1.5 v 0.05 l -0.1,-0.3 -0.2,-0.3 -0.95,-1 -0.5,-0.2 -0.6,-0.1 -1.5,0.1 q -0.55,0.2 -1.05,0.7 l -0.25,0.3 q -0.45,0.55 -0.55,1.25 -0.15,0.7 0.2,1.3 l 0.35,0.5 q 0.6,0.8 1.05,1 l 0.55,0.2 q 1.4,0.35 2.4,-0.3 L 67.95,17.7 68,17.5 v 0.9 q -0.2,3.6 -2.8,6.75 -1.9,2.4 -5.65,4.8 L 56.6,31.5 q -3,1.25 -8.5,1.25 H 47.2 L 46,33.8 q -1.15,0.9 -2.9,1.5 l -4.2,1 -5.1,0.45 -3.7,-0.1 -3.4,-0.4 -4.8,-0.65 -3.8,-0.9 Q 16.75,34.15 13.75,32.5 10.7,30.8 9.1,28.95 q -1.65,-1.8 -1.65,-3.7 0,-1.9 0.55,-3 0.5,-1.15 1.75,-2.2 0.7,-0.65 1.55,-1 l 0.15,0.4 0.9,1 q 3.85,3.1 8.5,4.8 4.7,1.7 9.6,1.75 4.05,0.1 7.5,-1 2.3,-0.65 5.95,-2.45 4.4,-2.25 6.15,-4.25 L 50.3,19 m -38,-1.1 q 1.15,-2.95 3.9,-5.75 2.2,-2.25 4.6,-3.75 l 0.1,0.35 Q 20.8,9.05 21,9.4 l 0.45,0.85 0.6,1.1 1.1,1.65 0.15,0.3 0.55,0.85 0.3,0.4 0.25,0.4 V 15 l -0.15,0.1 -0.8,0.6 -2.5,2.4 -2.65,2.65 -0.45,0.5 v 0.1 Q 15.75,20.2 13.8,18.65 L 12.75,17.95 12.3,17.9 M 22.4,7.55 Q 24.7,6.35 27.25,5.9 30.8,5.2 34.95,6 39.3,7 42.8,9.4 L 38.45,14.45 37.7,15.6 36.5,15.35 34.4,14.8 32.85,14.6 26.1,14.2 25.75,14.25 25.7,14.15 25.45,12.9 24.55,10.85 24.3,10.55 Q 23.6,9.6 23.25,8.65 L 22.9,8.15 22.65,7.7 22.4,7.55 m 22,3.1 1.85,1.75 q 2.65,2.75 3.3,5.65 l -0.25,0.1 -4.25,2.25 q -2.65,1.55 -4.25,2.2 l -0.3,0.15 -0.25,-0.55 -0.6,-2 -0.55,-2.4 -0.25,-0.8 0.05,-0.05 0.45,-0.65 0.5,-0.6 0.1,-0.2 0.05,-0.05 1.25,-1.5 1,-1.1 1.2,-1.15 0.95,-1.05 m -15.45,14 Q 24.3,24.35 20,22.45 l 0.3,-0.3 4.75,-5.85 0.6,0.1 h 1.85 l 1.3,-0.05 1.25,0.05 1.75,0.3 1.4,0.1 1.7,0.45 1.65,0.25 0.55,0.1 0.2,0.4 0.75,2.4 1.1,2.9 q -4.9,1.75 -10.2,1.35 M 57,15.5 q -1.15,-0.3 -2.25,0.45 -0.85,0.75 -1.15,2.3 l -0.05,0.5 q 0,1.4 1.25,2.05 l 1.35,0.3 1.1,-0.1 q 1,-0.35 1.45,-1.15 L 59.05,19.1 59.3,18.2 59.2,17.35 59,16.9 Q 58.65,16.25 57.5,15.65 L 57,15.5 m 5.6,5.45 -0.65,0.25 H 61.9 L 61.65,21 61.6,20.95 V 20.9 l -0.4,-0.15 -0.4,0.1 q -0.2,0.2 -0.1,0.5 l -0.25,0.3 -0.3,0.3 -0.55,0.2 q -0.35,-0.1 -0.35,-0.4 l 0.05,-0.2 -0.3,-0.2 -0.3,0.2 -0.4,0.5 q -0.2,0.5 0.1,1 l 0.85,0.6 q 0.85,0.3 1.65,-0.3 l 0.95,-1.2 0.8,-0.05 0.4,-0.15 q 0.4,-0.2 0.6,-0.75 l 0.1,-0.6 -0.2,-0.7 -0.4,-0.1 q -0.25,0 -0.35,0.2 l -0.2,0.95"
         fill="#000000"
         fill-rule="evenodd"
         stroke="none"
         id="path9" />
      <path
         d="M 68.05,15.85 68,17.5 67.95,17.7 66.9,19 q -1,0.65 -2.4,0.3 l -0.55,-0.2 q -0.45,-0.2 -1.05,-1 l -0.35,-0.5 q -0.35,-0.6 -0.2,-1.3 0.1,-0.7 0.55,-1.25 l 0.25,-0.3 q 0.5,-0.5 1.05,-0.7 l 1.5,-0.1 0.6,0.1 0.5,0.2 0.95,1 0.2,0.3 0.1,0.3 M 11.3,19.05 Q 11.2,18.5 11.55,18.2 11.8,17.9 12.3,17.9 l 0.45,0.05 1.05,0.7 q 1.95,1.55 4.05,2.7 v -0.1 l 0.45,-0.5 2.65,-2.65 2.5,-2.4 0.8,-0.6 0.15,-0.1 v -0.05 l -0.25,-0.4 -0.3,-0.4 L 23.3,13.3 23.15,13 22.05,11.35 21.45,10.25 21,9.4 Q 20.8,9.05 20.9,8.75 L 20.8,8.4 V 8.35 q 0,-0.4 0.35,-0.7 0.35,-0.35 0.75,-0.3 l 0.5,0.2 0.25,0.15 0.25,0.45 0.35,0.5 q 0.35,0.95 1.05,1.9 l 0.25,0.3 0.9,2.05 0.25,1.25 0.05,0.1 0.35,-0.05 6.75,0.4 1.55,0.2 2.1,0.55 1.2,0.25 0.75,-1.15 4.35,-5.05 1.15,0.05 q 0.6,0.45 0.45,1.05 v 0.15 l -0.95,1.05 -1.2,1.15 -1,1.1 -1.25,1.5 -0.05,0.05 -0.1,0.2 -0.5,0.6 -0.45,0.65 -0.05,0.05 0.25,0.8 0.55,2.4 0.6,2 0.25,0.55 0.3,-0.15 q 1.6,-0.65 4.25,-2.2 l 4.25,-2.25 0.25,-0.1 0.7,0.05 q 0.4,0.3 0.05,0.9 l -0.25,0.3 q -1.75,2 -6.15,4.25 -3.65,1.8 -5.95,2.45 -3.45,1.1 -7.5,1 -4.9,-0.05 -9.6,-1.75 -4.65,-1.7 -8.5,-4.8 l -0.9,-1 -0.15,-0.4 m 51.3,1.9 0.2,-0.95 q 0.1,-0.2 0.35,-0.2 l 0.4,0.1 0.2,0.7 -0.1,0.6 q -0.2,0.55 -0.6,0.75 l -0.4,0.15 -0.8,0.05 -0.95,1.2 q -0.8,0.6 -1.65,0.3 l -0.85,-0.6 q -0.3,-0.5 -0.1,-1 l 0.4,-0.5 0.3,-0.2 0.3,0.2 -0.05,0.2 q 0,0.3 0.35,0.4 l 0.55,-0.2 0.3,-0.3 0.25,-0.3 q -0.1,-0.3 0.1,-0.5 l 0.4,-0.1 0.4,0.15 v 0.05 l 0.05,0.05 0.25,0.2 h 0.05 L 62.6,20.95 M 57,15.5 l 0.5,0.15 q 1.15,0.6 1.5,1.25 l 0.2,0.45 0.1,0.85 -0.25,0.9 -0.35,0.75 q -0.45,0.8 -1.45,1.15 l -1.1,0.1 -1.35,-0.3 q -1.25,-0.65 -1.25,-2.05 l 0.05,-0.5 q 0.3,-1.55 1.15,-2.3 1.1,-0.75 2.25,-0.45 m -28.05,9.15 q 5.3,0.4 10.2,-1.35 L 38.05,20.4 37.3,18 37.1,17.6 36.55,17.5 34.9,17.25 33.2,16.8 31.8,16.7 30.05,16.4 28.8,16.35 27.5,16.4 h -1.85 l -0.6,-0.1 -4.75,5.85 -0.3,0.3 q 4.3,1.9 8.95,2.2"
         fill="#ffffff"
         fill-rule="evenodd"
         stroke="none"
         id="path10" />
    </g>
    <g
       id="shape2"
       transform="translate(2,2.05)">
      <path
         d="M -0.5,-0.4 V -0.55 H 75.1 V -0.4 40.8 H -0.5 Z"
         fill="none"
         stroke="#000000"
         stroke-linecap="round"
         stroke-linejoin="round"
         stroke-width="3"
         id="path11" />
    </g>
  </defs>
</svg>
