<?xml version="1.0" encoding="UTF-8" standalone="no"?>
<svg
   ffdec:objectType="frame"
   height="60.549999"
   width="67.099998"
   version="1.1"
   id="svg7"
   sodipodi:docname="646.svg"
   xmlns:inkscape="http://www.inkscape.org/namespaces/inkscape"
   xmlns:sodipodi="http://sodipodi.sourceforge.net/DTD/sodipodi-0.dtd"
   xmlns:xlink="http://www.w3.org/1999/xlink"
   xmlns="http://www.w3.org/2000/svg"
   xmlns:svg="http://www.w3.org/2000/svg"
   xmlns:ffdec="https://www.free-decompiler.com/flash">
  <sodipodi:namedview
     id="namedview7"
     pagecolor="#ffffff"
     bordercolor="#000000"
     borderopacity="0.25"
     inkscape:showpageshadow="2"
     inkscape:pageopacity="0.0"
     inkscape:pagecheckerboard="0"
     inkscape:deskcolor="#d1d1d1"
     fit-margin-top="5"
     fit-margin-left="5"
     fit-margin-right="5"
     fit-margin-bottom="5" />
  <g
     transform="translate(1.5,1.5)"
     id="g3">
    <use
       ffdec:characterId="516"
       height="57.549999"
       width="64.099998"
       xlink:href="#shape0"
       id="use1" />
    <use
       ffdec:characterId="1137"
       height="57.849998"
       transform="translate(-0.3,-0.5)"
       width="64.25"
       xlink:href="#shape1"
       id="use2" />
    <use
       ffdec:characterId="518"
       height="60.549999"
       transform="translate(-1.5,-1.5)"
       width="67.099998"
       xlink:href="#shape2"
       id="use3" />
  </g>
  <defs
     id="defs7">
    <g
       id="shape0">
      <path
         d="M 53.6,0 H 64.1 V 57.55 H 53.6 28.25 0 V 0 H 28.25 53.6 V 57.55 0 M 28.25,0 V 57.55 0"
         fill="#ffffff"
         fill-rule="evenodd"
         stroke="none"
         id="path3" />
    </g>
    <g
       id="shape1"
       transform="translate(0.3,0.5)">
      <path
         d="m 63.05,32.8 0.9,0.2 v 9.45 l -0.9,0.35 -0.45,0.05 q -0.65,1.7 -2.15,2.9 l -0.7,0.45 -0.9,0.5 q 0.9,2.75 1,6.2 v 1.2 l -0.25,1.35 -0.65,1.25 -0.8,0.65 h -7.4 L 48.3,57 46.25,56.75 46,56.65 Q 44.75,56.1 44.1,54.7 l -0.2,-0.55 q -0.15,-0.55 -0.15,-1.3 -0.2,-1.2 0.25,-2.9 0.45,-1.6 1.25,-2.95 L 45.05,46.75 44.2,45.7 q -0.45,-0.65 -0.55,-1.25 l -0.05,-0.95 -0.1,-1.45 0.35,-1.25 0.8,-1.4 q 0.65,-0.9 2.1,-1.8 l 0.45,-1.05 0.2,-0.4 -0.5,-1 -0.3,-1 q -0.25,-1.75 1.15,-3.55 0.6,-0.85 1.3,-1.35 1.35,-0.95 3.1,-1.05 1.75,-0.05 3.25,0.75 0.7,0.35 1.1,0.75 0.95,0.9 1.2,2.3 l 0.05,0.1 0.7,0.2 q 1.1,0.4 1.95,1.1 0.85,-0.6 2,-0.65 l 0.65,0.05 M 39.3,56.65 38.9,57.2 38.8,57.35 H 17.4 L 17.35,57.3 16.8,56.75 16.4,56.3 q -0.7,-0.85 -0.95,-1.65 l -0.1,-0.6 q -0.15,-0.9 0.05,-2.1 l 0.3,-1.05 q 0.75,-2.3 2.85,-3.65 2.05,-1.35 4.5,-1.1 l 1.4,0.4 0.8,0.55 1.05,0.7 0.05,0.05 4.2,-0.25 0.45,-1 0.85,-0.85 q 1.4,-1.25 2.95,-1.6 l 3.3,0.25 1.75,1.25 q 1.35,1.25 1.75,2.2 l 0.3,1.9 v 1.2 l -0.6,1.85 -1,1.35 -0.45,0.35 -0.35,0.2 0.05,0.3 q 0.05,1 -0.25,1.65 M 0.05,33.3 -0.3,32.9 V 28.05 L 0.05,27.6 q 0.6,-0.7 1.6,-1.15 0.7,-0.4 1.35,-0.5 h 0.1 l 1.35,0.15 q 0.8,0.15 1.45,0.6 l 0.3,0.25 Q 6.8,26.5 7.55,26.2 9.15,25.55 10.8,25.6 l 0.75,-0.95 0.9,-0.7 q 0.85,-0.5 2.3,-0.4 1.25,0.15 2.15,0.65 1.15,0.7 1.55,1.65 l 0.25,0.75 0.15,0.75 q 0.15,2 -1.1,3.35 l 0.35,0.25 0.8,1.4 0.45,1.05 0.2,1.15 0.15,0.5 -0.05,0.85 -0.1,1.05 -0.15,0.8 -0.9,1.2 -0.35,0.4 0.4,1.3 0.15,1.45 q 0.25,0.95 0.15,2 -0.1,1.8 -1.15,3.1 -1.1,1.35 -3.45,1.95 L 9.9,49.8 7.45,49.45 Q 6.2,48.95 5.25,47.6 4.75,46.95 4.55,46.25 4.25,45.35 4.45,43.45 4.55,42.2 4.75,41.65 5,40.8 5.7,39.75 L 6.25,39.05 5.3,38.5 Q 3.7,37.4 3.1,35.85 L 2.95,35.35 2.8,34.35 2,34.25 1,33.9 0.15,33.4 0.05,33.3 m 47.6,10.8 -0.8,-1.55 -0.2,0.75 q -0.05,0.75 0.3,1.5 l 0.7,-0.7 m -30.9,-8.25 -0.55,0.95 0.85,0.85 0.2,-0.7 -0.05,-0.8 -0.25,-0.65 -0.2,0.35"
         fill="#000000"
         fill-rule="evenodd"
         stroke="none"
         id="path4" />
      <path
         d="M 0.05,27.6 V 27.5 27.4 27.3 27.25 27.15 27.1 27 26.95 26.85 26.8 26.7 26.65 26.55 26.45 26.4 26.3 26.25 26.15 26.1 26 25.95 25.85 25.75 25.7 25.6 25.55 25.45 25.4 25.3 25.25 25.15 25.05 25 24.9 24.85 24.75 24.7 24.6 24.55 24.45 24.35 24.3 24.2 24.15 24.05 24 23.9 23.85 23.75 23.7 23.6 23.5 23.45 23.35 23.3 23.2 23.15 23.05 23 22.9 22.8 L 0.1,22.75 v -0.1 -0.05 -0.1 -0.05 -0.1 -0.05 -0.1 -0.1 -0.05 -0.1 -0.05 -0.1 -0.05 -0.1 -0.05 -0.1 -0.05 -0.1 -0.1 -0.05 -0.1 -0.05 -0.1 -0.05 -0.1 -0.05 -0.1 -0.1 -0.05 -0.1 -0.05 -0.1 -0.05 -0.1 -0.05 -0.1 -0.1 -0.05 -0.1 -0.05 -0.1 -0.05 -0.1 -0.05 -0.1 -0.1 V 19.1 19 18.95 18.85 18.8 18.7 18.65 18.55 18.5 18.4 18.3 18.25 18.15 18.1 18 17.95 17.85 17.8 17.7 17.6 17.55 17.45 17.4 17.3 17.25 17.15 17.1 17 16.9 16.85 16.75 16.7 16.6 16.55 16.45 16.4 16.3 16.2 16.15 16.05 16 15.9 15.85 15.75 15.7 15.6 15.55 15.45 15.35 15.3 15.2 15.15 15.05 15 14.9 14.85 14.75 14.65 14.6 14.5 14.45 14.35 14.3 14.2 14.15 14.05 13.95 13.9 13.8 13.75 13.65 13.6 13.5 13.45 13.35 13.3 13.2 13.1 13.05 12.95 12.9 12.8 12.75 12.65 12.6 12.5 12.4 12.35 12.25 12.2 12.1 12.05 11.95 11.9 11.8 11.7 11.65 11.55 11.5 11.4 11.35 11.25 11.2 11.1 11 10.95 10.85 10.8 10.7 10.65 10.55 10.5 10.4 10.35 10.25 10.15 10.1 10 9.95 9.85 9.8 9.7 9.65 9.55 9.45 9.4 9.3 9.25 9.15 9.1 9 8.95 8.85 8.75 8.7 8.6 8.55 8.45 8.4 8.3 8.25 8.15 8.05 8 7.9 7.85 7.75 7.7 7.6 L 0.15,7.55 V 7.45 7.4 7.3 7.2 7.15 7.05 7 6.9 6.85 6.75 6.7 6.6 6.5 6.45 6.35 6.3 6.2 6.15 6.05 6 5.9 5.8 5.75 5.65 5.6 5.5 5.45 5.35 5.3 5.2 5.15 5.05 4.95 4.9 4.8 4.75 4.65 4.6 4.5 4.45 4.35 4.25 4.2 4.1 4.05 3.95 3.9 3.8 3.75 L 0.2,3.65 V 3.55 3.5 3.4 3.35 3.25 3.2 3.1 3.05 2.95 2.85 L 0.25,2.8 V 2.7 2.65 2.55 2.5 2.4 2.35 2.25 2.2 L 0.3,2.1 V 2 1.95 1.85 1.8 1.7 1.65 L 0.35,1.55 V 1.5 1.4 1.3 L 0.4,1.25 V 1.15 1.1 1 0.95 L 0.45,0.85 V 0.8 L 0.5,0.7 V 0.6 0.55 L 0.55,0.45 V 0.4 L 0.6,0.3 V 0.25 L 0.65,0.15 0.75,0.1 0.8,0 0.85,-0.05 0.95,-0.15 1.05,-0.25 1.2,-0.3 1.4,-0.35 H 1.65 V -0.4 H 1.7 l 0.2,0.05 0.15,0.05 0.2,0.05 0.1,0.1 0.1,0.1 L 2.5,0 2.6,0.1 2.65,0.15 V 0.2 h 1.5 0.7 0.25 L 5.45,0.15 H 5.7 L 6.3,0.1 h 0.4 7 7.55 l 3.55,0.05 h 0.55 L 25.7,0.2 h 0.6 l 1.15,0.05 h 1.75 l 6.85,0.05 h 15.85 0.55 3.95 l 2.95,0.05 h 0.75 l 0.3,0.05 h 0.25 l 0.25,0.05 h 0.15 L 61.2,0.5 h 0.1 l 0.1,0.05 h 0.2 l 0.15,0.05 h 0.15 l 0.15,0.05 0.1,0.05 h 0.1 l 0.1,0.05 h 0.1 l 0.1,0.05 h 0.1 l 0.1,0.05 0.2,0.05 0.2,0.05 0.1,0.1 0.1,0.05 0.05,0.1 0.05,0.05 0.05,0.1 v 0.1 L 63.55,1.5 V 1.6 1.65 L 63.6,1.75 63.55,1.8 V 1.9 1.95 L 63.5,2.05 V 2.1 L 63.45,2.2 63.4,2.3 63.35,2.35 63.3,2.45 63.25,2.5 63.15,2.6 63,2.65 V 2.7 2.75 2.8 2.9 3 3.05 l 0.05,0.1 V 3.2 3.3 3.35 3.45 3.5 3.6 3.7 3.75 3.85 3.9 4 4.05 4.15 4.2 4.3 4.4 4.45 4.55 4.6 4.7 4.75 4.85 4.9 5 5.05 5.15 5.25 5.3 5.4 5.45 5.55 5.6 5.7 5.75 5.85 5.95 6 6.1 6.15 6.25 6.3 6.4 6.45 6.55 6.65 6.7 6.8 6.85 6.95 7 7.1 7.15 7.25 7.3 7.4 7.5 7.55 7.65 7.7 7.8 7.85 7.95 8 v 0.1 0.1 0.05 0.1 0.05 0.1 0.05 0.1 0.05 0.1 0.1 0.05 0.1 0.05 0.1 0.05 0.1 0.05 0.1 0.1 0.05 0.1 0.05 0.1 0.05 0.1 0.05 0.1 0.05 0.1 0.1 0.05 0.1 0.05 0.1 0.05 0.1 0.05 0.1 0.1 0.05 0.1 0.05 0.1 0.05 0.1 0.05 0.1 0.1 0.05 0.1 0.05 0.1 0.05 0.1 0.05 0.1 0.1 0.05 0.1 0.05 0.1 0.05 0.1 0.05 0.1 0.05 0.1 0.1 0.05 0.1 0.05 0.1 0.05 0.1 0.05 0.1 0.1 0.05 0.1 0.05 0.1 0.05 0.1 0.05 0.1 0.1 0.05 0.1 0.05 0.1 0.05 0.1 0.05 0.1 0.05 0.1 0.1 0.05 0.1 0.05 0.1 0.05 0.1 0.05 0.1 0.1 0.05 0.1 0.05 0.1 0.05 0.1 0.05 0.1 0.1 0.05 0.1 0.05 0.1 0.05 0.1 0.05 0.1 0.1 0.05 0.1 0.05 0.1 0.05 0.1 0.05 0.1 0.05 0.1 0.1 0.05 0.1 0.05 0.1 0.05 0.1 0.05 0.1 0.1 0.05 0.1 0.05 0.1 0.05 0.1 0.05 0.1 0.1 0.05 0.1 0.05 0.1 0.05 0.1 0.05 0.1 0.1 0.05 0.1 0.05 0.1 0.05 0.1 0.05 0.1 0.05 0.1 0.1 0.05 0.1 0.05 0.1 0.05 0.1 0.05 0.1 0.1 0.05 0.1 0.05 0.1 0.05 0.1 0.05 0.1 0.1 0.05 0.1 0.05 0.1 0.05 0.1 0.05 0.1 0.05 0.1 0.1 0.05 0.1 0.05 0.1 0.05 0.1 0.05 0.1 0.1 0.05 0.1 0.05 0.1 0.05 0.1 0.05 0.1 0.1 0.05 0.1 0.05 0.1 0.05 0.1 0.05 0.1 0.1 0.05 0.1 0.05 0.1 0.05 0.1 0.05 0.1 0.05 0.1 0.1 0.05 0.1 0.05 0.1 0.05 0.1 0.05 0.1 0.1 0.05 0.1 0.05 0.1 0.05 0.1 0.05 0.1 0.1 0.05 0.1 0.05 0.1 0.05 0.1 0.05 0.1 0.05 0.1 0.1 0.05 0.1 0.05 0.1 0.05 0.1 0.05 0.1 0.1 0.05 0.1 0.05 0.1 0.05 0.1 0.05 0.1 0.1 0.05 0.1 0.05 0.1 0.05 0.1 0.05 0.1 0.1 0.05 0.1 0.05 0.1 0.05 0.1 0.05 0.1 0.05 0.1 0.1 0.05 0.1 0.05 0.1 0.05 0.1 0.05 0.1 0.1 0.05 0.1 L 62.4,32.75 q -1.15,0.05 -2,0.65 -0.85,-0.7 -1.95,-1.1 L 57.75,32.1 57.7,32 q -0.25,-1.4 -1.2,-2.3 -0.4,-0.4 -1.1,-0.75 -1.5,-0.8 -3.25,-0.75 -1.75,0.1 -3.1,1.05 -0.7,0.5 -1.3,1.35 -1.4,1.8 -1.15,3.55 l 0.3,1 0.5,1 -0.2,0.4 -0.45,1.05 q -1.45,0.9 -2.1,1.8 l -0.8,1.4 -0.35,1.25 0.1,1.45 0.05,0.95 q 0.1,0.6 0.55,1.25 l 0.85,1.05 0.2,0.25 q -0.8,1.35 -1.25,2.95 -0.45,1.7 -0.25,2.9 0,0.75 0.15,1.3 l 0.2,0.55 q 0.65,1.4 1.9,1.95 H 45.85 39.3 Q 39.6,56 39.55,55 l -0.05,-0.3 0.35,-0.2 0.45,-0.35 1,-1.35 0.6,-1.85 v -1.2 l -0.3,-1.9 Q 41.2,46.9 39.85,45.65 L 38.1,44.4 34.8,44.15 q -1.55,0.35 -2.95,1.6 L 31,46.6 l -0.45,1 -4.2,0.25 -0.05,-0.05 -1.05,-0.7 -0.8,-0.55 -1.4,-0.4 q -2.45,-0.25 -4.5,1.1 -2.1,1.35 -2.85,3.65 l -0.3,1.05 q -0.2,1.2 -0.05,2.1 l 0.1,0.6 q 0.25,0.8 0.95,1.65 l 0.4,0.45 H 9.35 7.55 L 6.1,56.7 H 5.05 L 4.6,56.65 H 4.15 L 3.8,56.6 H 3.4 L 3.15,56.55 H 2.9 L 2.7,56.5 2.65,56.6 2.6,56.65 2.5,56.75 2.4,56.8 2.3,56.9 2.1,56.95 1.95,57.05 H 1.85 L 1.6,57.1 1.3,57.05 H 1.2 L 1.05,56.95 0.9,56.9 0.75,56.8 0.65,56.75 0.55,56.65 0.5,56.6 0.4,56.5 0.35,56.45 0.3,56.35 0.25,56.3 V 56.2 L 0.2,56.1 V 56.05 L 0.15,55.95 V 55.9 55.8 55.75 55.65 L 0.1,55.6 0.15,55.5 v -0.1 -0.05 -0.1 L 0.1,55.2 v -0.1 -0.05 -0.1 -0.05 -0.1 -0.1 -0.05 -0.1 -0.05 -0.1 -0.05 -0.1 -0.05 -0.1 -0.05 -0.1 -0.1 -0.05 -0.1 -0.05 -0.1 -0.05 -0.1 -0.05 -0.1 -0.1 V 53.1 53 52.95 52.85 52.8 52.7 52.65 52.55 52.45 52.4 52.3 52.25 52.15 52.1 52 51.95 51.85 51.75 51.7 51.6 51.55 51.45 51.4 51.3 51.25 51.15 51.1 51 50.9 50.85 50.75 50.7 50.6 50.55 50.45 50.4 50.3 50.2 50.15 50.05 50 49.9 49.85 49.75 49.7 49.6 49.5 49.45 49.35 49.3 49.2 49.15 49.05 49 48.9 48.8 48.75 48.65 48.6 48.5 48.45 48.35 48.3 48.2 L 0.05,48.15 v -0.1 -0.1 -0.05 -0.1 -0.05 -0.1 -0.05 -0.1 -0.05 -0.1 -0.1 -0.05 -0.1 -0.05 -0.1 -0.05 -0.1 -0.05 -0.1 -0.1 V 46.5 46.4 46.35 46.25 46.2 46.1 46.05 45.95 45.9 45.8 45.7 45.65 45.55 45.5 45.4 45.35 45.25 45.2 45.1 45 44.95 44.85 44.8 44.7 44.65 44.55 44.5 44.4 44.3 44.25 44.15 44.1 44 43.95 43.85 43.8 43.7 43.6 43.55 43.45 43.4 43.3 43.25 43.15 43.1 43 42.95 42.85 42.75 42.7 42.6 42.55 42.45 42.4 42.3 42.25 42.15 42.05 42 41.9 41.85 41.75 41.7 41.6 41.55 41.45 41.35 41.3 41.2 41.15 41.05 41 40.9 40.85 40.75 40.65 40.6 40.5 40.45 40.35 40.3 40.2 40.15 40.05 40 39.9 39.8 39.75 39.65 39.6 39.5 39.45 39.35 39.3 39.2 39.1 39.05 38.95 38.9 38.8 38.75 38.65 38.6 38.5 38.4 38.35 38.25 38.2 38.1 38.05 37.95 37.9 37.8 37.75 37.65 37.55 37.5 37.4 37.35 37.25 37.2 37.1 37.05 36.95 36.85 36.8 36.7 36.65 36.55 36.5 36.4 36.35 36.25 36.15 36.1 36 35.95 35.85 35.8 35.7 35.65 35.55 35.45 35.4 35.3 35.25 35.15 35.1 35 34.95 34.85 34.8 34.7 34.6 34.55 34.45 34.4 34.3 34.25 34.15 34.1 34 33.9 33.85 33.75 33.7 33.6 33.55 33.45 33.4 33.3 l 0.1,0.1 0.85,0.5 1,0.35 0.8,0.1 0.15,1 0.15,0.5 q 0.6,1.55 2.2,2.65 l 0.95,0.55 -0.55,0.7 q -0.7,1.05 -0.95,1.9 -0.2,0.55 -0.3,1.8 -0.2,1.9 0.1,2.8 0.2,0.7 0.7,1.35 0.95,1.35 2.2,1.85 l 2.45,0.35 4.35,-0.65 q 2.35,-0.6 3.45,-1.95 1.05,-1.3 1.15,-3.1 0.1,-1.05 -0.15,-2 l -0.15,-1.45 -0.4,-1.3 0.35,-0.4 0.9,-1.2 0.15,-0.8 0.1,-1.05 0.05,-0.85 -0.15,-0.5 -0.2,-1.15 -0.45,-1.05 -0.8,-1.4 -0.35,-0.25 Q 19,29.35 18.85,27.35 L 18.7,26.6 18.45,25.85 Q 18.05,24.9 16.9,24.2 16,23.7 14.75,23.55 q -1.45,-0.1 -2.3,0.4 l -0.9,0.7 -0.75,0.95 Q 9.15,25.55 7.55,26.2 6.8,26.5 6.2,26.95 L 5.9,26.7 Q 5.25,26.25 4.45,26.1 L 3.1,25.95 H 3 q -0.65,0.1 -1.35,0.5 -1,0.45 -1.6,1.15 m 63,15.2 v 0.05 0.1 0.1 0.05 0.1 0.05 0.1 0.05 0.1 0.05 0.1 0.1 0.05 0.1 0.05 0.1 0.05 0.1 0.05 0.1 0.1 0.05 0.1 0.05 0.1 0.05 0.1 0.05 0.1 0.05 0.1 0.1 0.05 0.1 0.05 0.1 0.05 0.1 0.05 0.1 0.1 0.05 0.1 0.05 0.1 0.05 0.1 0.05 0.1 0.1 0.05 0.1 0.05 0.1 0.05 0.1 0.05 0.1 0.1 0.05 0.1 0.05 0.1 0.05 0.1 0.05 0.1 0.05 0.1 0.1 0.05 0.1 0.05 0.1 0.05 0.1 0.05 0.1 0.1 0.05 0.1 0.05 0.1 0.05 0.1 0.05 L 63,49.55 v 0.1 0.05 0.1 0.05 0.1 0.05 0.1 0.05 0.1 0.1 0.05 0.1 0.05 0.1 l -0.05,0.05 v 0.1 0.05 0.1 0.05 0.1 0.1 0.05 0.1 0.05 0.1 0.05 0.1 0.05 0.1 0.1 0.05 0.1 0.05 0.1 0.05 0.1 L 62.9,52.4 v 0.1 0.1 0.05 0.1 0.05 0.1 0.05 0.1 0.05 0.1 0.05 0.1 0.1 0.05 0.1 l -0.05,0.05 v 0.1 0.05 0.1 0.05 0.1 0.1 0.05 0.1 0.05 l -0.05,0.1 v 0.05 0.1 0.05 l -0.05,0.1 v 0.1 0.05 0.1 0.05 l -0.05,0.1 v 0.25 0.1 0.1 l -0.05,0.05 v 0.1 L 62.6,55.8 v 0.1 l -0.05,0.05 -0.05,0.1 -0.05,0.05 -0.05,0.1 -0.1,0.1 -0.1,0.05 -0.1,0.1 -0.15,0.05 -0.15,0.05 -0.1,0.05 h -0.15 l -0.1,0.05 H 61.3 l -0.2,0.05 h -1.3 -0.65 -0.2 l 0.65,-1.25 0.25,-1.35 v -1.2 q -0.1,-3.45 -1,-6.2 l 0.9,-0.5 0.7,-0.45 q 1.5,-1.2 2.15,-2.9 l 0.45,-0.05 m -46.3,-6.95 0.2,-0.35 0.25,0.65 0.05,0.8 -0.2,0.7 -0.85,-0.85 0.55,-0.95 m 30.9,8.25 -0.7,0.7 q -0.35,-0.75 -0.3,-1.5 l 0.2,-0.75 0.8,1.55"
         fill="#999999"
         fill-rule="evenodd"
         stroke="none"
         id="path5" />
      <path
         d="m 34.6,4.6 1.75,0.85 1.05,0.7 q 1,0.8 1.85,2.25 L 40,9.85 40.95,11.8 42.8,9.7 46.25,5.75 51.15,-0.5 h 4.6 L 54.7,0.85 44.15,11 41.5,13.3 42.15,15.55 53.8,7.4 Q 58.55,3.95 62.1,1.85 63.15,1.25 63.95,1 v 5.7 l -7.3,3.9 -5.5,2.9 -8.65,3.9 q 0.4,2.7 0.3,5.85 l -0.05,1.65 5.25,-1.25 2.95,-0.55 6.1,-1 6.9,-1 v 3.7 L 63.7,24.75 60.55,24.7 51.1,25.25 42.7,25.9 q -0.4,4.45 -1.75,8.35 l 5.6,3.85 8.3,6 8.25,5.4 0.85,0.6 v 6 l -0.9,-0.15 Q 62.3,55.7 61,54.9 48.8,47.1 40.25,37.65 l -0.5,-0.55 -0.45,0.9 0.45,0.55 4.75,6.2 4.6,5.8 3.5,3.9 q 1.4,1.3 1.25,2.25 l -0.4,0.65 h -1.7 l -0.5,-0.5 -4.15,-4.9 Q 45,49.3 42.2,45 l -1.5,-2.2 -2.15,-3.4 -0.1,0.1 q -2.95,4.85 -6.75,5.3 -2.75,0.35 -5.25,-1.45 l -0.95,-0.85 -4.65,6.4 -3.05,4.2 -2.05,3.2 -0.6,1.05 h -4.2 L 10.75,56.6 Q 10.65,55.85 11,55.1 l 1.2,-1.4 10.45,-10.4 1.85,-1.85 -1.55,-2.4 -0.4,-0.9 L 22.3,37.8 7.6,50.5 Q 5.2,52.4 3.45,54.15 1.8,55.8 0.7,55.95 l -1,-0.15 V 51.25 L 0.45,50.7 Q 10.7,43.4 21.6,36 L 21.35,34.95 20.45,30.8 18.6,31.15 15.55,31.85 12.9,32.2 9,32.95 q -5.2,1.1 -7.55,2.3 L 0.25,35.7 -0.3,35.65 V 32.8 q 0.6,-0.3 1.55,-0.35 l 10.7,-1.4 8.45,-0.95 Q 20,26.6 20.75,21.8 16.6,19.45 9.25,16 5.55,14.3 3.8,13.25 1.35,11.6 -0.3,10.65 v -3 l 0.45,0.25 2.75,2 q 2.6,1.8 10.05,6 4.85,2.7 7.95,4.9 L 21.15,19.6 11.35,11.4 6,6.35 Q 2.85,3.5 0.3,1.75 L -0.3,1.35 V -0.5 h 5.75 q 3.15,2.9 7.7,7.9 l 8.55,9.55 1.4,-4.65 q 1.25,-3 3.15,-4.8 l 0.2,-0.15 -4,-7.85 H 27 L 28.85,5.65 28.9,5.7 29.2,5.55 29.65,5.3 29.3,4.2 28.4,0.2 28.3,-0.5 h 2.1 l 0.8,5.15 Q 32.85,4.1 34.6,4.6"
         fill="#ffffff"
         fill-rule="evenodd"
         stroke="none"
         id="path6" />
    </g>
    <g
       id="shape2"
       transform="translate(1.5,1.5)">
      <path
         d="M 0,23.8 V 0 H 64.1 V 23.8 57.55 H 0 Z"
         fill="none"
         stroke="#000000"
         stroke-linecap="round"
         stroke-linejoin="round"
         stroke-width="3"
         id="path7" />
    </g>
  </defs>
</svg>
