<?xml version="1.0" encoding="UTF-8" standalone="no"?>
<svg
   ffdec:objectType="frame"
   height="60.549999"
   width="67.099998"
   version="1.1"
   id="svg9"
   sodipodi:docname="460.svg"
   xmlns:inkscape="http://www.inkscape.org/namespaces/inkscape"
   xmlns:sodipodi="http://sodipodi.sourceforge.net/DTD/sodipodi-0.dtd"
   xmlns:xlink="http://www.w3.org/1999/xlink"
   xmlns="http://www.w3.org/2000/svg"
   xmlns:svg="http://www.w3.org/2000/svg"
   xmlns:ffdec="https://www.free-decompiler.com/flash">
  <sodipodi:namedview
     id="namedview9"
     pagecolor="#ffffff"
     bordercolor="#000000"
     borderopacity="0.25"
     inkscape:showpageshadow="2"
     inkscape:pageopacity="0.0"
     inkscape:pagecheckerboard="0"
     inkscape:deskcolor="#d1d1d1"
     fit-margin-top="5"
     fit-margin-left="5"
     fit-margin-right="5"
     fit-margin-bottom="5" />
  <g
     transform="translate(1.5,1.5)"
     id="g3">
    <use
       ffdec:characterId="516"
       height="57.549999"
       width="64.099998"
       xlink:href="#shape0"
       id="use1" />
    <use
       ffdec:characterId="958"
       height="52.650002"
       transform="translate(-1.2,0.25)"
       width="64.900002"
       xlink:href="#shape1"
       id="use2" />
    <use
       ffdec:characterId="518"
       height="60.549999"
       transform="translate(-1.5,-1.5)"
       width="67.099998"
       xlink:href="#shape2"
       id="use3" />
  </g>
  <defs
     id="defs9">
    <g
       id="shape0">
      <path
         d="M 53.6,0 H 64.1 V 57.55 H 53.6 28.25 0 V 0 H 28.25 53.6 V 57.55 0 M 28.25,0 V 57.55 0"
         fill="#ffffff"
         fill-rule="evenodd"
         stroke="none"
         id="path3" />
    </g>
    <g
       id="shape1"
       transform="translate(1.2,-0.25)">
      <path
         d="m 63.4,18.55 0.1,0.45 0.15,2.45 -0.25,0.75 -1.05,1.3 q -0.85,0.75 -1.85,1 l -0.85,0.1 q -1.7,0 -2.7,-1.1 -0.65,-0.6 -1.2,-2 l -1,-2.1 q -0.55,-1 -1.9,-1.85 -3.7,-2.7 -8.45,-2.05 v 2.65 l -0.45,3.05 q -0.75,2.7 -3.25,4.8 -2.45,2.05 -5.45,2.65 l -3.4,0.15 -3.4,-0.15 Q 25.45,28.05 23,26 20.5,23.9 19.75,21.2 19.4,19.95 19.3,18.15 V 15.5 q -4.75,-0.65 -8.45,2.05 -1.35,0.85 -1.9,1.85 -0.35,0.5 -1,2.1 l -1.15,2 q -1,1.1 -2.75,1.1 L 3.35,24.55 Q 2.25,24.3 1.35,23.5 0.45,22.7 0.15,21.8 L 0.05,21.45 Q -0.1,20.75 0.15,19.5 L 0.25,19 Q 0.5,17.6 1,16.8 1.6,15.75 2.95,14.6 L 3.3,14.35 Q 6.8,11.6 11.35,10.5 L 18.05,10 Q 17.85,9.15 17.8,7.95 17.7,7.2 17.85,6.7 18,5.8 18.95,5.3 L 20.45,5.1 24.3,5.3 25.05,3.7 25.5,3 26.5,1.55 Q 27.35,0.8 28.1,0.8 l 1.4,0.15 1.8,-0.45 h 0.55 0.55 l 1.8,0.45 1.45,-0.15 q 0.7,0 1.55,0.75 l 1,1.45 0.45,0.7 0.75,1.6 3.85,-0.2 1.5,0.2 q 0.95,0.5 1.1,1.4 0.2,0.5 0.05,1.25 l -0.25,2.05 6.7,0.5 q 4.65,1.1 8.15,3.9 l 0.25,0.2 q 1.35,1.15 1.95,2.2 l 0.7,1.75"
         fill="#000000"
         fill-rule="evenodd"
         stroke="none"
         id="path4" />
      <path
         d="m 0.15,19.5 v -0.1 -0.05 -0.1 -0.1 -0.05 -0.1 -0.1 -0.1 -0.05 -0.1 -0.1 -0.05 -0.1 -0.1 -0.1 -0.05 -0.1 -0.1 -0.05 -0.1 -0.1 -0.1 -0.05 -0.1 -0.1 -0.05 -0.1 -0.1 -0.1 -0.05 -0.1 -0.1 -0.05 -0.1 -0.1 -0.1 -0.05 -0.1 -0.1 -0.05 -0.1 -0.1 -0.1 -0.05 -0.1 -0.1 -0.05 -0.1 -0.1 -0.1 -0.05 -0.1 -0.1 -0.05 -0.1 -0.1 -0.1 -0.05 -0.1 -0.1 -0.05 -0.1 -0.1 -0.05 -0.1 -0.1 -0.1 -0.05 -0.1 -0.1 -0.05 -0.1 -0.1 -0.1 -0.05 -0.1 -0.1 -0.05 -0.1 -0.1 -0.1 -0.05 -0.1 L 0.2,12.3 v -0.05 -0.1 -0.1 -0.1 -0.05 -0.1 -0.1 -0.05 -0.1 -0.1 -0.1 -0.05 -0.1 -0.1 -0.05 -0.1 -0.1 -0.1 -0.05 -0.1 -0.1 -0.05 -0.1 -0.1 -0.1 V 10.1 10 9.9 9.85 9.75 9.65 9.55 9.5 9.4 9.3 9.25 9.15 9.05 8.95 8.9 8.8 8.7 8.65 8.55 8.45 8.35 8.3 8.2 8.1 8.05 7.95 7.85 7.75 7.7 7.6 7.5 7.45 7.35 7.25 7.15 7.1 7 6.9 6.85 6.75 6.65 6.55 6.5 6.4 6.3 6.25 6.15 6.05 5.95 5.9 5.8 5.7 5.65 5.55 5.45 5.35 5.3 5.2 5.1 5.05 4.95 L 0.25,4.85 V 4.75 4.7 4.6 4.5 4.45 4.35 4.25 4.15 4.1 4 3.9 L 0.3,3.85 V 3.75 3.65 3.55 H 0.15 L 0,3.5 -0.2,3.45 -0.35,3.35 -0.5,3.3 -0.6,3.2 -0.7,3.1 -0.8,3.05 -0.85,2.95 -0.9,2.85 -0.95,2.75 -1,2.7 -1.05,2.6 -1.1,2.5 V 2.45 L -1.15,2.35 V 2.25 2.15 2.1 L -1.2,2 -1.15,1.9 V 1.85 1.75 1.65 1.55 L -1.1,1.5 -1.05,1.4 V 1.3 L -1,1.25 -0.95,1.15 -0.9,1.05 -0.8,0.95 -0.75,0.9 -0.65,0.8 -0.55,0.7 -0.45,0.65 -0.3,0.55 -0.15,0.5 -0.1,0.45 H 0 L 0.15,0.4 0.4,0.35 H 0.75 L 1.85,0.3 H 2.75 4.8 V 0.25 h 29.25 l 11.5,0.05 h 1.8 l 0.8,0.05 h 1.5 l 1.65,0.05 1.8,0.05 h 2.25 L 56.4,0.5 h 0.5 l 0.4,0.05 h 0.4 l 0.4,0.05 0.75,0.05 h 0.7 l 0.5,0.05 h 0.45 l 0.25,0.05 h 0.2 l 0.25,0.05 0.15,0.05 h 0.2 l 0.15,0.05 0.2,0.05 0.2,0.1 0.25,0.05 0.05,0.05 h 0.05 l 0.2,0.1 0.1,0.1 0.15,0.1 0.1,0.05 0.1,0.1 0.05,0.1 0.05,0.05 0.05,0.1 0.05,0.1 0.05,0.1 V 2.1 l 0.05,0.1 v 0.1 0.05 0.1 0.1 0.1 0.05 0.1 0.1 l 0.05,0.05 v 0.1 0.1 0.1 0.05 0.1 0.1 0.05 0.1 0.1 0.1 V 3.9 4 4.1 L 63.4,4.15 v 0.1 0.1 0.1 0.05 0.1 0.1 0.05 0.1 0.1 0.1 0.05 0.1 0.1 0.05 0.1 0.1 0.1 0.05 0.1 0.1 0.05 0.1 0.1 0.1 0.05 0.1 0.1 0.05 0.1 0.1 l 0.05,0.1 V 6.9 L 63.4,7 v 0.1 0.05 0.1 0.1 0.1 0.05 0.1 0.1 0.05 0.1 0.1 0.1 0.05 0.1 0.1 0.05 0.1 0.1 0.1 0.05 0.1 0.1 0.05 0.1 0.1 0.1 0.05 0.1 0.1 0.05 0.1 0.1 0.1 0.05 0.1 0.1 0.05 0.1 0.1 0.1 0.05 0.1 0.1 0.05 0.1 0.1 0.1 0.05 0.1 0.1 0.05 0.1 0.1 0.1 0.05 0.1 0.1 0.05 0.1 0.1 0.1 0.05 0.1 0.1 0.05 0.1 0.1 0.1 0.05 0.1 0.1 0.05 0.1 0.1 0.1 0.05 0.1 0.1 0.05 0.1 0.1 0.1 0.05 0.1 0.1 0.05 0.1 0.1 0.05 0.1 0.1 0.1 0.05 0.1 0.1 0.05 0.1 0.1 0.1 0.05 0.1 0.1 0.05 0.1 0.1 0.1 0.05 0.1 0.1 0.05 0.1 0.1 0.1 0.05 0.1 0.1 0.05 0.1 0.1 0.1 0.05 0.1 0.1 0.05 0.1 0.1 0.1 0.05 0.1 0.1 0.05 0.1 0.1 0.1 0.05 L 62.7,16.8 Q 62.1,15.75 60.75,14.6 L 60.5,14.4 Q 57,11.6 52.35,10.5 L 45.65,10 45.9,7.95 Q 46.05,7.2 45.85,6.7 45.7,5.8 44.75,5.3 L 43.25,5.1 39.4,5.3 38.65,3.7 38.2,3 37.2,1.55 Q 36.35,0.8 35.65,0.8 L 34.2,0.95 32.4,0.5 H 31.85 31.3 L 29.5,0.95 28.1,0.8 q -0.75,0 -1.6,0.75 L 25.5,3 25.05,3.7 24.3,5.3 20.45,5.1 18.95,5.3 Q 18,5.8 17.85,6.7 17.7,7.2 17.8,7.95 17.85,9.15 18.05,10 l -6.7,0.5 Q 6.8,11.6 3.3,14.35 L 2.95,14.6 Q 1.6,15.75 1,16.8 0.5,17.6 0.25,19 l -0.1,0.5 m 63.25,2.7 v 0.05 0.1 0.05 0.1 0.1 0.1 0.05 0.1 0.1 0.05 0.1 0.1 0.1 0.05 0.1 0.1 0.05 0.1 0.1 0.1 0.05 0.1 0.1 0.05 0.1 0.1 0.1 0.05 0.1 0.1 0.05 0.1 0.1 0.1 0.05 0.1 0.1 0.05 0.1 0.1 0.1 0.05 0.1 0.1 0.05 0.1 0.1 0.1 0.05 0.1 0.1 0.05 0.1 0.1 0.1 0.05 0.1 0.1 0.05 0.1 0.1 0.1 0.05 0.1 0.1 0.05 0.1 0.1 0.1 0.05 0.1 0.1 0.05 0.1 0.1 0.1 0.05 0.1 0.1 0.05 0.1 0.1 0.1 0.05 0.1 0.1 0.05 0.1 0.1 0.1 0.05 0.1 0.1 0.05 0.1 0.1 0.1 0.05 0.1 0.1 0.05 0.1 0.1 0.1 0.05 0.1 0.1 0.05 0.1 0.1 0.1 0.05 0.1 0.1 0.05 0.1 0.1 0.1 0.05 0.1 0.1 0.05 0.1 0.1 0.1 0.05 0.1 0.1 0.05 0.1 0.1 0.1 0.05 0.1 0.1 0.05 0.1 0.1 0.1 0.05 0.1 0.1 0.05 0.1 0.1 0.05 0.1 0.1 0.1 0.05 0.1 0.1 0.05 0.1 0.1 0.1 0.05 0.1 0.1 0.05 0.1 0.1 0.1 0.05 0.1 0.1 0.05 0.1 0.1 0.1 0.05 0.1 0.1 0.05 0.1 0.1 0.1 0.05 0.1 0.1 0.05 0.1 0.1 0.1 0.05 0.1 0.1 0.05 0.1 0.1 0.1 0.05 0.1 0.1 0.05 0.1 0.1 0.1 0.05 0.1 0.1 0.05 0.1 0.1 0.1 0.05 0.1 0.1 0.05 0.1 0.1 0.1 0.05 0.1 0.1 0.05 0.1 0.1 0.1 0.05 0.1 0.1 0.05 0.1 0.1 0.1 0.05 0.1 0.1 0.05 0.1 0.1 0.1 0.05 0.1 0.1 0.05 0.1 0.1 0.1 0.05 0.1 0.1 0.05 0.1 0.1 0.1 0.05 0.1 0.1 0.05 0.1 l -0.05,0.1 v 0.1 0.05 0.1 0.1 0.05 0.1 0.1 0.1 0.05 0.1 0.1 0.05 0.1 0.1 0.1 0.05 0.1 0.1 0.05 0.1 0.1 0.1 0.05 l -0.05,0.1 v 0.1 0.05 0.1 0.1 0.1 0.05 0.1 l -0.05,0.1 v 0.05 0.1 0.1 0.1 L 63.2,47 v 0.1 0.1 0.1 l 0.05,0.05 0.1,0.05 0.05,0.1 0.05,0.1 0.05,0.05 0.05,0.1 0.05,0.1 v 0.1 L 63.65,48 v 0.1 l 0.05,0.1 v 0.05 0.1 0.1 Q 25.45,41.8 0.2,48.45 L 0.15,48.35 0.2,48.25 V 48.2 L 0.15,48.15 v -0.1 -0.1 -0.1 -0.05 L 0.1,47.7 v -0.1 -0.05 -0.1 -0.1 -0.1 -0.05 -0.1 -0.1 -0.05 -0.1 l 0.05,-0.1 v -0.1 -0.05 -0.1 -0.1 -0.05 -0.1 -0.1 -0.1 V 46 45.9 45.8 45.75 45.65 L 0.1,45.55 v -0.1 -0.05 -0.1 -0.1 -0.05 -0.1 -0.1 -0.1 -0.05 -0.1 -0.1 -0.05 -0.1 -0.1 -0.1 -0.05 -0.1 -0.1 -0.05 -0.1 -0.1 -0.1 -0.05 -0.1 -0.1 -0.05 -0.1 -0.1 -0.1 -0.05 -0.1 -0.1 -0.05 -0.1 -0.1 -0.1 -0.05 -0.1 -0.1 -0.05 -0.1 -0.1 -0.1 -0.05 -0.1 -0.1 -0.05 -0.1 -0.1 -0.1 -0.05 -0.1 -0.1 -0.05 -0.1 -0.1 -0.1 -0.05 -0.1 -0.1 -0.05 -0.1 -0.1 -0.1 -0.05 -0.1 -0.1 -0.05 -0.1 -0.1 -0.1 -0.05 -0.1 -0.1 -0.05 -0.1 -0.1 -0.1 -0.05 -0.1 -0.1 l 0.05,-0.05 v -0.1 -0.1 -0.1 -0.05 -0.1 -0.1 -0.05 -0.1 -0.1 -0.1 -0.05 -0.1 -0.1 -0.05 -0.1 -0.1 -0.1 -0.05 -0.1 -0.1 -0.05 -0.1 -0.1 -0.1 -0.05 -0.1 -0.1 -0.05 -0.1 -0.1 -0.1 -0.05 -0.1 -0.1 -0.05 -0.1 -0.1 -0.1 -0.05 -0.1 -0.1 -0.05 -0.1 -0.1 -0.1 -0.05 -0.1 -0.1 -0.05 -0.1 -0.1 -0.05 -0.1 -0.1 -0.1 -0.05 -0.1 -0.1 -0.05 -0.1 -0.1 -0.1 -0.05 -0.1 -0.1 -0.05 -0.1 -0.1 -0.1 -0.05 -0.1 -0.1 -0.05 -0.1 -0.1 -0.1 -0.05 -0.1 -0.1 -0.05 -0.1 -0.1 -0.1 -0.05 -0.1 -0.1 -0.05 -0.1 -0.1 -0.1 -0.05 -0.1 -0.1 -0.05 -0.1 -0.1 -0.1 -0.05 -0.1 -0.1 -0.05 -0.1 -0.1 -0.1 -0.05 -0.1 -0.1 -0.05 -0.1 -0.1 -0.1 -0.05 -0.1 -0.1 -0.05 -0.1 -0.1 -0.1 -0.05 -0.1 -0.1 -0.05 -0.1 -0.1 -0.1 -0.05 -0.1 -0.1 -0.05 -0.1 -0.1 -0.1 -0.05 -0.1 -0.1 -0.05 -0.1 -0.1 -0.1 -0.05 -0.1 -0.1 -0.05 -0.1 -0.1 -0.1 -0.05 -0.1 -0.1 -0.05 -0.1 -0.1 -0.1 -0.05 -0.1 -0.1 -0.05 -0.1 -0.1 -0.1 -0.05 -0.1 -0.1 -0.05 -0.1 -0.1 -0.1 -0.05 -0.1 -0.1 -0.05 -0.1 -0.1 -0.1 -0.05 -0.1 -0.1 V 23.3 23.2 23.1 23 22.95 22.85 22.75 22.7 22.6 22.5 22.4 22.35 22.25 22.15 22.1 22 21.9 21.8 q 0.3,0.9 1.2,1.7 0.9,0.8 2,1.05 l 0.7,0.05 q 1.75,0 2.75,-1.1 l 1.15,-2 q 0.65,-1.6 1,-2.1 0.55,-1 1.9,-1.85 3.7,-2.7 8.45,-2.05 v 2.65 q 0.1,1.8 0.45,3.05 0.75,2.7 3.25,4.8 2.45,2.05 5.45,2.65 l 3.4,0.15 3.4,-0.15 q 3,-0.6 5.45,-2.65 2.5,-2.1 3.25,-4.8 L 44.4,18.15 V 15.5 q 4.75,-0.65 8.45,2.05 1.35,0.85 1.9,1.85 l 1,2.1 q 0.55,1.4 1.2,2 1,1.1 2.7,1.1 l 0.85,-0.1 q 1,-0.25 1.85,-1 l 1.05,-1.3"
         fill="#767676"
         fill-rule="evenodd"
         stroke="none"
         id="path5" />
      <path
         d="m 36.95,16.65 q 0.15,-0.9 0.85,-1.6 0.75,-0.6 1.7,-0.6 l 0.05,-0.05 q 1.55,0 2.3,1.35 0.8,1.4 -0.05,2.7 l -0.1,0.2 -0.9,-0.3 Q 39.05,18 37.6,18.3 l -0.3,0.1 q -0.4,-0.65 -0.35,-1.35 v -0.4 m 5.85,17.8 q 0.85,0.15 1.15,0.4 l 0.6,0.7 q 0.45,0.75 0.4,1.7 -0.1,0.8 -0.65,1.45 l -1.05,0.85 Q 41.7,40.5 40.55,40.2 H 40.1 l -0.3,0.3 -1.7,2.05 -0.9,1 q -0.55,0.4 -1.25,0.35 -0.9,-0.2 -1.05,-1.1 0,-0.45 0.3,-1.25 l 1.75,-3.5 q -1,-0.4 -1.3,-1.65 -0.1,-0.75 0.15,-1.6 0.3,-1.05 1,-1.65 0.95,-0.75 2.5,-0.5 1,0.15 1.55,0.7 l 0.65,0.9 1.3,0.2 M 22.15,17.9 q -0.5,-1.25 0.35,-2.35 0.7,-1.1 2.15,-1.1 1.35,0 2.1,1.15 0.8,1.1 0.3,2.4 l -0.1,0.3 q -1.2,-0.5 -2.5,-0.5 l -2.2,0.4 -0.1,-0.3 m 1.4,2.5 q 0,-0.65 0.3,-0.9 l 0.75,0.1 0.25,0.6 0.1,0.2 q 0.25,0.3 0.8,0.45 l 2.5,0.35 q 1,-0.05 2,-0.65 l 0.4,-0.3 0.75,-0.9 0.95,-0.1 0.5,0.35 v 0.05 l 0.3,0.45 0.8,0.5 2.05,0.45 1.35,-0.3 1.35,-0.55 1.2,-0.3 q 0.65,0.25 0.45,1 l -0.7,1 -2.2,1.05 L 36,23.3 q -1.45,0.15 -3.05,-0.7 l -0.35,-0.2 -0.15,1 q -0.4,1.7 -1.45,3.15 l -0.8,0.8 -0.8,0.5 -0.6,0.25 -0.4,0.6 -1.25,1.45 q -0.95,0.6 -2.75,0.4 L 23.75,30.4 22.95,29.8 22.4,29.1 q -0.3,-0.45 -0.2,-1.4 l 0.1,-0.55 0.25,-0.55 0.3,-0.5 0.5,-0.4 L 23.1,25 23,23.5 l 0.25,-1.6 0.25,-1.15 0.05,-0.2 V 20.4 M 27.7,23.25 26.3,23 25.6,22.7 24.85,22.2 q -0.05,0.7 0.05,1.4 l 0.3,-0.05 q 0.9,0 1.3,0.35 l 0.5,0.7 q 0.45,-0.2 1.45,0 0.65,0.2 0.95,0.5 l 0.8,-1.45 0.25,-0.7 -2.75,0.3 m -6.7,3.3 q 0.6,0.5 0.5,0.75 l -0.45,0.3 -0.55,-0.05 h -1.25 l -1,0.25 -1,-0.15 q -0.35,-0.2 -0.45,-0.7 -0.15,-0.45 0.1,-0.85 0.5,-0.9 1.95,-0.7 0.95,0.15 1.55,0.65 l 0.6,0.5 m -3.3,6.65 0.1,-0.65 0.3,-0.55 1,-0.75 0.6,-0.55 0.8,-0.15 -0.2,0.85 -0.45,0.65 -0.15,0.75 -0.2,0.75 Q 19.15,34.15 18.45,34 17.8,33.9 17.7,33.2"
         fill="#ffffff"
         fill-rule="evenodd"
         stroke="none"
         id="path6" />
      <path
         d="m 32,38.3 1.7,0.4 q 0.9,0.35 1.05,1.3 l -0.25,1.3 -0.7,1.25 -0.2,0.7 0.45,0.85 q 0.8,0.65 1.95,0.8 1.05,0.1 2.05,-0.45 -0.05,-0.6 0.3,-1.2 0.35,-0.6 1,-0.8 0.75,-0.2 1.5,0.45 l 0.95,1.35 1.05,2.7 0.15,0.95 q 0.3,1.65 -0.2,2.5 -0.5,0.85 -1.65,1.4 -1.55,0.7 -5.65,0.9 l -6.6,0.2 -6.45,-0.7 q -2.5,-0.35 -3.1,-1.6 -0.45,-0.85 -0.3,-2.35 0.05,-0.7 0.25,-1.3 0.35,-1.9 1.35,-3.2 0.5,-0.7 1.65,-1.65 4.85,-4 9.7,-3.8 m -0.6,5.2 0.3,-0.95 q -0.35,0.15 -0.5,0.95 -0.4,1.2 -0.35,1.9 0,0.5 0.35,1.3 l 0.05,0.25 0.15,0.3 0.55,0.25 q 0.75,0.35 1.05,0.95 l 0.3,0.25 0.3,0.2 h 0.95 l 3.15,-0.25 1.55,-0.3 -0.35,-1.4 V 46.9 l -0.6,0.3 -1.5,0.45 h -0.9 l -1.7,-0.5 -0.35,-0.2 -0.95,-0.5 -1.05,-1.1 Q 31.55,44.9 31.4,43.5"
         fill="#000000"
         fill-rule="evenodd"
         stroke="none"
         id="path7" />
      <path
         d="m 31.4,43.5 q 0.15,1.4 0.45,1.85 l 1.05,1.1 0.95,0.5 0.35,0.2 1.7,0.5 h 0.9 l 1.5,-0.45 0.6,-0.3 v 0.05 l 0.35,1.4 -1.55,0.3 -3.15,0.25 H 33.6 L 33.3,48.7 33,48.45 Q 32.7,47.85 31.95,47.5 L 31.4,47.25 31.25,46.95 31.2,46.7 q -0.35,-0.8 -0.35,-1.3 -0.05,-0.7 0.35,-1.9 0.15,-0.8 0.5,-0.95 l -0.3,0.95"
         fill="#767676"
         fill-rule="evenodd"
         stroke="none"
         id="path8" />
    </g>
    <g
       id="shape2"
       transform="translate(1.5,1.5)">
      <path
         d="M 0,23.8 V 0 H 64.1 V 23.8 57.55 H 0 Z"
         fill="none"
         stroke="#000000"
         stroke-linecap="round"
         stroke-linejoin="round"
         stroke-width="3"
         id="path9" />
    </g>
  </defs>
</svg>
