<?xml version="1.0" encoding="UTF-8" standalone="no"?>
<svg
   ffdec:objectType="frame"
   height="61.650002"
   width="67.099998"
   version="1.1"
   id="svg8"
   sodipodi:docname="127.svg"
   xmlns:inkscape="http://www.inkscape.org/namespaces/inkscape"
   xmlns:sodipodi="http://sodipodi.sourceforge.net/DTD/sodipodi-0.dtd"
   xmlns:xlink="http://www.w3.org/1999/xlink"
   xmlns="http://www.w3.org/2000/svg"
   xmlns:svg="http://www.w3.org/2000/svg"
   xmlns:ffdec="https://www.free-decompiler.com/flash">
  <sodipodi:namedview
     id="namedview8"
     pagecolor="#ffffff"
     bordercolor="#000000"
     borderopacity="0.25"
     inkscape:showpageshadow="2"
     inkscape:pageopacity="0.0"
     inkscape:pagecheckerboard="0"
     inkscape:deskcolor="#d1d1d1"
     fit-margin-top="5"
     fit-margin-left="5"
     fit-margin-right="5"
     fit-margin-bottom="5" />
  <g
     transform="translate(1.5,1.5)"
     id="g3">
    <use
       ffdec:characterId="516"
       height="57.549999"
       width="64.099998"
       xlink:href="#shape0"
       id="use1" />
    <use
       ffdec:characterId="637"
       height="61.099998"
       transform="translate(-1.4,-0.95)"
       width="66.349998"
       xlink:href="#shape1"
       id="use2" />
    <use
       ffdec:characterId="518"
       height="60.549999"
       transform="translate(-1.5,-1.5)"
       width="67.099998"
       xlink:href="#shape2"
       id="use3" />
  </g>
  <defs
     id="defs8">
    <g
       id="shape0">
      <path
         d="M 53.6,0 H 64.1 V 57.55 H 53.6 28.25 0 V 0 H 28.25 53.6 V 57.55 0 M 28.25,0 V 57.55 0"
         fill="#ffffff"
         fill-rule="evenodd"
         stroke="none"
         id="path3" />
    </g>
    <g
       id="shape1"
       transform="translate(1.4,0.95)">
      <path
         d="m 26.75,15.25 -0.05,0.05 -0.5,1.05 -0.15,0.15 -0.15,1.35 -0.3,1.3 q -0.1,0.5 -0.4,0.6 -0.45,0 -0.45,-0.75 l 0.1,-2.25 q -0.45,-0.2 -0.6,-0.6 L 24.1,15.6 v -1.45 l 0.2,-3.1 0.15,-1.4 0.1,-0.25 -1,0.75 -1.15,0.6 -1,0.7 -1.3,1.15 -1.05,0.6 q -0.6,0.1 -0.9,-0.55 V 12.6 Q 17.65,12 17.25,10.8 L 15.45,5 14.4,2.3 13.8,0.9 V 0.65 l -0.8,-0.4 0.3,-0.4 q 0.4,-0.35 0.8,-0.3 0.5,-0.6 1.3,-0.45 l 0.75,0.45 0.05,0.05 0.45,0.5 h 0.4 L 17.3,0.15 17.6,0.1 h 3.35 L 26.2,0.05 h 1.65 V 0 h 5.5 l 3.45,0.05 1.15,0.05 h 7.4 l 1.1,-0.15 0.4,0.15 h 0.75 13.2 1.95 l 0.6,-0.05 h 0.25 l 0.3,0.05 0.2,0.05 0.2,0.1 0.15,0.1 0.1,0.1 0.1,0.1 0.1,0.15 v 0.1 l 0.1,0.1 V 1 l 0.05,0.1 0.05,0.1 V 1.3 1.4 1.5 1.6 L 64.9,1.7 V 1.8 L 64.85,1.9 64.8,2 64.75,2.1 64.7,2.2 64.65,2.35 64.55,2.45 64.4,2.55 64.25,2.65 64.1,2.7 64,2.75 H 63.9 L 63.65,2.8 v 0.05 0.1 0.1 0.1 0.1 l 0.05,0.1 v 0.1 0.1 0.1 0.1 V 3.9 4 4.1 l 0.05,0.1 v 0.1 0.1 0.1 0.1 0.1 0.1 0.1 0.1 0.1 0.1 0.1 0.1 0.15 0.1 0.1 0.1 0.1 0.1 0.1 0.1 0.1 0.1 0.1 0.1 0.1 0.1 0.1 V 7.1 7.2 7.3 7.4 7.5 7.6 7.7 7.8 7.9 8 8.1 8.2 8.3 l 0.05,0.1 v 0.1 0.15 0.1 0.1 0.1 0.1 0.1 0.1 0.1 0.1 0.1 0.1 0.1 0.1 0.1 0.1 0.1 0.15 0.1 0.1 0.1 0.1 0.1 0.1 0.1 0.1 0.1 0.1 0.1 0.1 0.1 0.1 0.15 0.1 0.1 0.1 0.1 0.1 0.1 0.1 0.1 0.1 0.1 0.1 0.1 0.1 0.1 0.1 0.15 0.1 0.1 0.1 0.1 0.1 0.1 0.1 0.1 l 0.05,0.1 v 0.1 0.1 0.1 0.1 0.1 0.15 0.1 0.1 0.1 0.1 0.1 h -0.3 l -0.5,0.25 h -0.4 L 61.95,16.45 60,18 l -1.7,1.65 -2,1.95 -0.95,1 q -0.45,0.75 -0.05,1.3 0.4,0.55 1.05,0.35 l 0.85,-0.35 1,-0.8 -1.1,1.75 -1.35,1.9 -1.85,1.95 -1.8,2 q -0.5,0.7 -0.65,1.4 -0.1,0.6 0.25,1 0.5,0.55 1.3,0.2 0.5,-0.15 1.1,-0.85 l 3.65,-3.65 1.6,-2.25 2.1,-3.75 1.3,-2.8 1.1,-2.1 v 0.1 0.1 0.15 0.1 0.1 0.1 0.1 0.1 0.1 0.1 0.1 0.1 0.1 0.1 0.1 0.1 0.1 0.15 0.1 0.1 0.1 0.1 0.1 0.1 0.1 0.1 0.1 0.1 0.1 0.1 0.1 0.1 0.1 0.15 0.1 0.1 0.1 0.1 0.1 0.1 0.1 0.1 0.1 0.1 0.1 0.1 0.1 0.1 0.15 0.1 0.1 0.1 0.1 0.1 0.1 0.1 0.1 0.1 0.1 0.1 0.1 0.1 0.1 0.15 0.1 0.1 0.1 0.1 0.1 0.1 0.1 0.1 0.1 0.1 0.1 0.1 0.1 0.1 0.1 0.15 0.1 0.1 0.1 0.1 0.1 0.1 0.1 0.1 0.1 0.1 0.1 0.1 0.1 0.1 0.15 0.1 0.1 0.1 0.1 0.1 0.1 0.1 0.1 0.1 0.1 0.1 0.1 0.1 0.1 0.1 0.15 0.1 0.1 0.1 0.1 0.1 0.1 0.1 0.1 0.1 0.1 0.1 0.1 0.1 0.1 0.15 0.1 0.1 0.1 0.1 0.1 0.1 0.1 0.1 0.1 0.1 0.1 0.1 0.1 0.1 0.15 0.1 0.1 0.1 0.1 0.1 0.1 0.1 0.1 0.1 0.1 0.1 0.1 0.1 0.1 0.1 0.15 0.1 0.1 0.1 0.1 0.1 0.1 0.1 0.1 0.1 0.1 0.1 0.1 0.1 0.1 0.15 0.1 0.1 0.1 0.1 0.1 0.1 0.1 0.1 0.1 0.1 0.1 0.1 0.1 0.1 0.1 0.15 0.1 0.1 0.1 0.1 0.1 0.1 0.1 0.1 0.1 0.1 0.1 0.1 0.1 0.1 0.15 0.1 0.1 0.1 0.1 0.1 0.1 0.1 0.1 0.1 0.1 0.1 0.1 0.1 0.1 0.15 0.1 0.1 0.1 0.1 0.1 0.1 0.1 0.1 0.1 0.1 0.1 0.1 0.1 0.1 0.1 0.15 0.1 0.1 0.1 0.1 0.1 0.1 0.1 0.1 0.1 0.1 0.1 0.1 0.1 0.1 0.15 0.1 0.1 0.1 0.1 0.1 0.1 0.1 0.1 0.1 0.1 0.1 0.1 0.1 0.1 0.1 0.15 0.1 0.1 0.1 0.1 0.1 0.1 0.1 0.1 0.1 0.1 0.1 0.1 0.1 0.1 0.15 0.1 0.1 0.1 0.1 0.1 0.1 0.1 0.1 0.1 0.1 0.1 0.1 0.1 0.1 0.15 0.1 0.1 0.1 0.1 0.1 0.1 0.1 0.1 0.1 0.1 0.1 0.1 0.1 0.1 0.1 0.15 0.1 0.1 l 0.05,0.1 v 0.1 0.1 0.1 0.1 0.1 0.1 0.1 l -0.05,0.1 v 0.1 0.1 0.1 0.15 0.1 0.1 0.1 L 63.9,52 v 0.1 0.1 0.1 0.1 0.1 0.1 0.1 0.1 0.1 0.1 0.1 0.15 0.1 0.1 0.1 0.1 0.1 0.1 0.1 0.1 0.1 0.1 0.1 0.1 0.1 0.1 0.15 l -0.05,0.1 -0.05,0.1 -0.05,0.1 -0.05,0.1 -0.05,0.1 -0.05,0.1 -0.1,0.1 -0.05,0.05 v 0.05 0.1 0.1 0.1 L 63.4,56 63.35,56.1 63.3,56.2 v 0.1 l -0.1,0.15 -0.05,0.1 -0.05,0.1 -0.1,0.1 -0.1,0.1 -0.15,0.1 -0.2,0.1 -0.15,0.05 -0.15,0.05 -0.3,0.05 h -0.3 -0.45 -3.45 -0.4 -1.8 -3.5 -3.6 -0.5 l 0.05,0.15 1.15,2.8 q -0.85,-0.7 -2.4,-2.95 h -0.7 -0.6 l -0.4,0.05 H 44.8 l -0.3,-0.05 -0.3,-0.05 -0.25,-0.1 -0.15,-0.1 -0.15,-0.1 -0.1,-0.1 -0.1,-0.1 -0.1,-0.1 v -0.1 L 43.25,56.3 V 56.2 L 43.2,56.1 43.15,56 43.1,55.9 V 55.8 L 43.05,55.7 43,55.6 42.9,55.5 42.85,55.4 42.8,55.3 V 55.2 L 42.75,55.1 V 55 l -0.05,-0.1 -0.05,-0.1 -0.1,-0.15 v -0.1 -0.1 l -0.05,-0.1 v -0.1 l -0.05,-0.1 v -0.1 l -0.05,-0.1 -0.05,-0.1 -0.05,-0.1 -0.05,-0.1 v -0.1 l -0.1,-0.1 -0.05,-0.1 -0.05,-0.1 L 42,53.1 V 53 L 41.95,52.9 41.9,52.8 41.8,52.7 41.7,52.6 V 52.5 L 41.6,52.4 41.55,52.3 41.5,52.2 41.4,52.1 41.35,52 41.25,51.9 41.2,51.8 41.15,51.7 v -0.1 l -0.1,-0.15 -0.05,-0.1 -0.1,-0.1 -0.1,-0.1 q -1.7,-1.5 -4.35,-4.8 L 35.65,45.5 35,44.75 q -0.25,-0.55 0.2,-1.1 0.5,-0.45 1.65,-0.35 l 3.85,0.1 q 2.25,0.15 3.8,0.65 l 0.5,0.15 0.2,0.05 0.3,0.05 0.05,-0.05 -0.05,-0.1 v -0.1 -0.1 l -0.05,-0.1 v -0.1 L 45.4,43.65 45.35,43.5 45.25,43.4 45.2,43.3 V 43.2 L 45.1,43.1 V 43 L 45,42.9 v -0.1 l -0.05,-0.1 v -0.1 l -0.05,-0.1 -0.05,-0.1 -0.1,-0.1 v -0.1 l -0.05,-0.1 -0.05,-0.15 -0.05,-0.1 -0.05,-0.1 v -0.1 l -0.05,-0.1 -0.05,-0.1 v -0.1 -0.1 -0.1 -0.1 -0.1 l -0.05,-0.1 -0.05,-0.1 v -0.1 -0.1 l -0.05,-0.1 0.05,-0.15 v -0.1 -0.1 l 0.05,-0.1 0.05,-0.1 0.1,-0.1 0.1,-0.1 0.2,-0.1 h 0.1 q -0.05,-0.9 0.2,-2.3 1.1,-5.45 1.55,-11.6 L 46.55,24.55 45.5,23.7 q -3.6,-1.8 -6.15,-3.5 l -3.25,-2 q -1.9,-1 -3.55,-1.3 l -1.6,-0.2 0.3,-0.3 q 0.5,-0.55 0.6,-1.25 l -0.2,-1.3 Q 31.2,12.8 30.3,12.5 l -1.15,0.05 0.3,-0.5 1.7,-2.5 q 0.35,0.4 1,0.25 l 1.15,-0.55 5,-3.45 -0.1,0.1 -0.75,0.9 q -0.2,0.5 0.05,1.1 0.25,0.55 0.85,0.65 l 1.1,-0.25 0.5,-0.35 0.2,-0.05 0.8,-0.45 0.6,-0.7 0.1,-0.1 0.5,-0.15 0.3,-0.15 -0.05,0.15 q 0,0.6 0.45,0.9 l 0.9,-0.1 -0.15,0.2 q -0.25,0.55 0.15,0.95 0.35,0.45 0.9,0.15 l 0.6,-0.5 0.8,-0.85 1.3,-1.6 3.2,-3 L 52.35,1.4 52.8,1 V 0.7 L 52.55,0.55 50.65,1.65 44.2,6.9 44.55,6.35 Q 46.1,3.9 48.1,2.1 48.8,1.5 48.5,1.1 48.3,0.75 47.8,0.95 l -0.15,-0.2 -1.05,-0.2 -0.4,0.2 h -0.15 l -0.8,0.4 -0.3,0.25 -1.9,0.4 Q 42.4,2 40.55,2.9 L 37.2,4.5 33.7,6.6 34.65,5.6 37.1,3.5 Q 38.6,2.4 41.3,1.3 41.85,1.1 41.8,0.75 L 41.15,0.5 q -3.25,0.45 -5.9,2.15 l -5.6,4.2 -2.4,2.8 q -1.75,2.25 -1.9,3.75 0,0.7 0.25,1.2 0.3,0.65 0.95,0.65 h 0.2 m 0.6,-0.2 L 27.3,15 27.35,14.9 v 0.15 m -16.55,-14 0.1,0.3 0.15,0.6 0.25,1.25 v 0.7 l 0.25,1.45 V 5.9 l 0.5,2.55 -0.3,0.65 Q 11.3,9.6 10.8,9.1 L 10.45,8.55 9.6,7.2 9.4,6.75 5.95,0.7 q -0.2,-0.65 0,-0.9 L 6.45,-0.35 6.9,-0.1 7.4,0.55 7.65,0.1 q 0.6,-0.6 1.2,-0.15 l 0.3,0.25 q 0.35,-0.55 1,-0.4 0.65,0.2 0.65,0.9 v 0.35 m 43.75,15.65 0.95,0.05 0.65,-0.7 0.4,-0.75 4.4,-5.55 0.2,-0.6 Q 61.05,8.85 60.6,8.95 L 59.55,10.1 55.4,14 54.55,14.75 q -0.45,0.55 -0.45,1 -0.1,0.7 0.45,0.95 m 8.1,-16.1 -0.8,0.1 -10.6,8.2 -1.05,1 q -0.35,0.65 -0.25,1.1 0.1,0.45 0.65,0.65 0.5,0.25 0.9,0 L 52.15,10.95 53.6,9.4 59.4,3.9 60.1,3.1 62.35,1.4 62.7,1.05 62.65,0.6 m 0.85,2.05 -0.55,-0.1 -0.45,0.35 -1.25,0.85 -3.3,2.7 q -4.4,3.95 -7,6.6 L 50,14.25 q -0.45,0.8 -0.05,1.5 0.5,0.85 1.5,0.55 0.5,-0.1 1.1,-0.8 L 58.8,9 60.3,7.25 61.65,5.3 q 0.8,-1.15 1.5,-1.8 L 63.5,3.1 q 0.2,-0.25 0,-0.45 M 6.95,16.25 6.35,16.75 5.5,16.7 4.2,15.8 -0.55,10.95 Q -1.3,9.9 -1.25,9.3 -1.2,8.7 -0.65,8.35 L 0.4,8.2 V 7.85 L 0.45,6.3 Q 0.4,4.6 0.65,2.15 l 0.2,-0.7 Q 1.25,0.55 2.3,0.65 2.7,0.7 3,0.9 L 3.2,0.45 Q 3.55,-0.05 4.1,0.1 4.55,0.25 4.75,1.25 l 0.7,4.9 0.5,2.85 0.55,2.2 0.45,2.5 0.1,1.6 -0.1,0.95 m -4.4,-5.7 v 0.05 -0.05 m 14,7.05 q 0.2,-0.85 1.05,-1.05 0.9,-0.2 1.4,0.55 0.3,0.45 0.3,2.05 l 0.2,2.55 -0.15,1.35 V 23.9 L 19,24.2 18.65,24.15 18.5,23.9 16.8,19.05 Q 16.45,18.2 16.55,17.6 M 5.3,43.8 6.1,43.7 h 1.95 l 2.9,0.55 1.5,0.25 0.6,0.25 q 0.3,0.4 0,0.8 -0.25,0.3 -1.1,0.4 -1.65,0.15 -3,0.65 L 7.4,47.05 6.3,47.25 4.95,47.3 Q 4.45,47.25 4.05,46.85 3.65,46.45 3.55,45.9 3.3,44.7 4.35,44.1 L 5.3,43.8"
         fill="#999999"
         fill-rule="evenodd"
         stroke="none"
         id="path4" />
      <path
         d="m 63.85,15.55 q 0.45,0 0.7,0.35 0.25,0.4 -0.35,1.45 l -0.35,0.55 -1.1,2.1 -1.3,2.8 -2.1,3.75 -1.6,2.25 -3.65,3.65 q -0.6,0.7 -1.1,0.85 -0.8,0.35 -1.3,-0.2 -0.35,-0.4 -0.25,-1 0.15,-0.7 0.65,-1.4 l 1.8,-2 1.85,-1.95 1.35,-1.9 1.1,-1.75 -1,0.8 -0.85,0.35 q -0.65,0.2 -1.05,-0.35 -0.4,-0.55 0.05,-1.3 l 0.95,-1 2,-1.95 1.7,-1.65 1.95,-1.55 0.7,-0.65 h 0.4 l 0.5,-0.25 h 0.3 m -32.9,1.15 -0.9,0.35 -1.35,-0.15 -1.05,-0.85 -0.3,-1 V 14.9 L 27.3,15 26.75,15.25 h -0.2 q -0.65,0 -0.95,-0.65 -0.25,-0.5 -0.25,-1.2 0.15,-1.5 1.9,-3.75 l 2.4,-2.8 5.6,-4.2 Q 37.9,0.95 41.15,0.5 L 41.8,0.75 Q 41.85,1.1 41.3,1.3 38.6,2.4 37.1,3.5 l -2.45,2.1 -0.95,1 3.5,-2.1 3.35,-1.6 Q 42.4,2 43.05,1.8 l 1.9,-0.4 0.3,-0.25 0.8,-0.4 h 0.15 l 0.4,-0.2 1.05,0.2 0.15,0.2 q 0.5,-0.2 0.7,0.15 0.3,0.4 -0.4,1 -2,1.8 -3.55,4.25 L 44.2,6.9 50.65,1.65 52.55,0.55 52.8,0.7 V 1 l -0.45,0.4 -1.8,1.25 -3.2,3 -1.3,1.6 -0.8,0.85 -0.6,0.5 Q 44.1,8.9 43.75,8.45 43.35,8.05 43.6,7.5 l 0.15,-0.2 -0.9,0.1 Q 42.4,7.1 42.4,6.5 l 0.05,-0.15 -0.3,0.15 -0.5,0.15 -0.1,0.1 -0.6,0.7 -0.8,0.45 -0.2,0.05 -0.5,0.35 -1.1,0.25 Q 37.75,8.45 37.5,7.9 37.25,7.3 37.45,6.8 l 0.75,-0.9 0.1,-0.1 -5,3.45 -1.15,0.55 q -0.65,0.15 -1,-0.25 l -1.7,2.5 -0.3,0.5 1.15,-0.05 q 0.9,0.3 1.35,1.35 l 0.2,1.3 q -0.1,0.7 -0.6,1.25 l -0.3,0.3 M 63.5,2.65 q 0.2,0.2 0,0.45 l -0.35,0.4 q -0.7,0.65 -1.5,1.8 L 60.3,7.25 58.8,9 52.55,15.5 q -0.6,0.7 -1.1,0.8 -1,0.3 -1.5,-0.55 -0.4,-0.7 0.05,-1.5 l 0.95,-1.2 q 2.6,-2.65 7,-6.6 l 3.3,-2.7 1.25,-0.85 0.45,-0.35 0.55,0.1 M 62.65,0.6 62.7,1.05 62.35,1.4 60.1,3.1 l -0.7,0.8 -5.8,5.5 -1.45,1.55 -0.65,0.7 q -0.4,0.25 -0.9,0 -0.55,-0.2 -0.65,-0.65 -0.1,-0.45 0.25,-1.1 l 1.05,-1 10.6,-8.2 0.8,-0.1 m -8.1,16.1 Q 54,16.45 54.1,15.75 q 0,-0.45 0.45,-1 L 55.4,14 59.55,10.1 60.6,8.95 q 0.45,-0.1 0.55,0.2 l -0.2,0.6 -4.4,5.55 -0.4,0.75 -0.65,0.7 -0.95,-0.05"
         fill="#ffffff"
         fill-rule="evenodd"
         stroke="none"
         id="path5" />
      <path
         d="m 49.9,16.05 q 0.95,-0.15 1.7,0.35 0.6,0.4 0.85,1.15 0.2,0.8 -0.1,1.45 L 51.4,20.05 50,20.3 q -0.75,-0.15 -1.25,-0.75 -0.5,-0.6 -0.55,-1.35 0,-0.75 0.5,-1.35 0.5,-0.65 1.2,-0.8 M 39.35,21.3 q 0.4,0.3 0.5,1.2 0,0.9 0.5,1.2 l 1.2,0.15 0.7,-0.1 0.4,-0.45 1.1,-3.15 0.45,0.6 q 0.3,0.55 0.4,1.45 l -0.2,2.05 -0.4,1 q -0.65,0.95 -2.5,1.05 -2.05,0.1 -2.95,-0.85 -0.5,-0.55 -0.85,-1.55 -1.8,0.9 -2.8,0.9 -1.5,0.1 -2.5,-1.1 -0.6,-0.6 -0.7,-1.5 V 21.3 L 32,19.6 q 0.25,-0.7 0.75,-1.3 0.55,-0.65 1.05,-0.5 0.45,0.2 0.45,0.65 l -0.65,1.2 -0.05,0.45 v 1.15 q 0.1,0.65 0.5,1 0.65,0.6 1.9,0.2 0.8,-0.25 1.3,-0.65 l 1,-0.6 1.1,0.1 m -5.65,36.2 -0.5,0.35 -1.15,0.1 -0.95,-0.65 -0.05,-0.05 q -0.3,-0.4 -0.3,-1 0.05,-0.6 0.5,-1.1 0.45,-0.45 1.05,-0.5 l 1.15,0.3 q 0.5,0.35 0.65,0.9 L 34.05,57 33.7,57.5 M 29,16.95 q -0.15,0.65 -0.7,1.1 l -1.25,0.45 q -0.65,0 -1.2,-0.45 Q 25.3,17.6 25.15,16.95 25,16.3 25.3,15.65 25.6,15 26.2,14.7 l 1.3,-0.1 q 0.7,0.15 1.1,0.65 0.65,0.8 0.4,1.7 m -15.45,9 q -0.05,-0.8 0.7,-1.4 0.85,-0.5 1.6,0 0.85,0.55 0.75,1.45 -0.05,0.55 -0.5,1 -0.45,0.4 -1.05,0.4 -0.55,0 -1,-0.4 -0.45,-0.45 -0.5,-1.05 M 6.7,30.75 Q 6.55,30.25 6.85,29.7 7.1,29.15 7.6,28.9 L 8.7,28.85 Q 9.2,29 9.55,29.5 9.9,29.95 9.8,30.6 9.75,31.2 9.3,31.55 8.65,32.2 7.8,31.9 6.8,31.7 6.7,30.75 M 31.3,50.4 q 0.15,0.7 -0.25,1.35 L 30.2,52.4 q -0.6,0.2 -1.1,0 -0.75,-0.25 -1,-1.05 -0.35,-1 0.35,-1.65 0.65,-0.75 1.6,-0.5 1,0.25 1.25,1.2"
         fill="#ffffff"
         fill-rule="evenodd"
         stroke="none"
         id="path6" />
      <path
         d="M 21.45,19.25 Q 22.6,15.2 25.95,11.85 28.45,9.2 32.9,6.55 35,5.25 36.35,4.9 L 40.7,4.7 q 4.55,0.3 7.15,1.3 3,1.15 6.55,4.45 2.7,2.65 3.7,4.7 0.8,1.65 1.05,4.5 0.65,6.2 -1.45,11.4 -2.45,5.85 -7.4,8.65 -4.25,2.35 -10.45,2.35 -7,-0.1 -11.9,-3.05 -2.7,-1.7 -4.55,-4.2 -1.95,-2.65 -2.5,-5.6 -0.25,-1.65 -0.15,-4.95 0.2,-3.15 0.7,-5 m 17.9,2.05 -1.1,-0.1 -1,0.6 q -0.5,0.4 -1.3,0.65 -1.25,0.4 -1.9,-0.2 -0.4,-0.35 -0.5,-1 V 20.1 l 0.05,-0.45 0.65,-1.2 q 0,-0.45 -0.45,-0.65 -0.5,-0.15 -1.05,0.5 -0.5,0.6 -0.75,1.3 l -0.3,1.7 v 0.9 q 0.1,0.9 0.7,1.5 1,1.2 2.5,1.1 1,0 2.8,-0.9 0.35,1 0.85,1.55 0.9,0.95 2.95,0.85 1.85,-0.1 2.5,-1.05 l 0.4,-1 0.2,-2.05 q -0.1,-0.9 -0.4,-1.45 l -0.45,-0.6 -1.1,3.15 -0.4,0.45 -0.7,0.1 -1.2,-0.15 q -0.5,-0.3 -0.5,-1.2 -0.1,-0.9 -0.5,-1.2 M 49.9,16.05 q -0.7,0.15 -1.2,0.8 -0.5,0.6 -0.5,1.35 0.05,0.75 0.55,1.35 0.5,0.6 1.25,0.75 L 51.4,20.05 52.35,19 q 0.3,-0.65 0.1,-1.45 Q 52.2,16.8 51.6,16.4 50.85,15.9 49.9,16.05 M 31.05,57.25 29.9,56.9 29.6,56.8 29.3,56.95 28,57.05 Q 27.25,56.95 26.8,56.5 26,55.85 26,54.65 V 54.1 l -0.75,-0.05 q -0.9,-0.15 -1.45,-0.8 -0.85,-0.9 -0.6,-2.25 0.2,-1.15 1.2,-2.05 1.3,-1 2.6,-0.8 l 1.05,0.4 0.25,-0.3 q 1.3,-1.3 3.15,-1.75 l 3.6,-0.2 1.5,0.25 2.05,1.45 0.05,0.05 0.25,-0.2 q 3.5,-2.2 7,-2.9 4.05,-0.8 7.5,0.5 1.2,0.45 2,1.1 1.4,1.15 1.55,2.95 0.15,1.85 -1.05,3.15 l -1.8,1.2 q -1.75,0.9 -3.55,1.1 L 47.5,54.8 43,54 40.45,53.5 q -0.5,2.25 -2,3.4 -0.85,0.65 -1.95,0.75 L 34.95,57.4 33.7,57.5 34.05,57 34.1,55.85 q -0.15,-0.55 -0.65,-0.9 l -1.15,-0.3 q -0.6,0.05 -1.05,0.5 -0.45,0.5 -0.5,1.1 0,0.6 0.3,1 m -17.5,-31.3 q 0.05,0.6 0.5,1.05 0.45,0.4 1,0.4 0.6,0 1.05,-0.4 0.45,-0.45 0.5,-1 0.1,-0.9 -0.75,-1.45 -0.75,-0.5 -1.6,0 -0.75,0.6 -0.7,1.4 m 15.45,-9 q 0.25,-0.9 -0.4,-1.7 -0.4,-0.5 -1.1,-0.65 l -1.3,0.1 q -0.6,0.3 -0.9,0.95 -0.3,0.65 -0.15,1.3 0.15,0.65 0.7,1.1 0.55,0.45 1.2,0.45 L 28.3,18.05 Q 28.85,17.6 29,16.95 M 8.6,35.15 7.45,34.2 6.75,33.45 6.25,32.55 6.1,32.05 Q 4.8,32.05 3.95,31.1 3.55,30.6 3.45,29.85 3.3,28.65 3.9,27.65 4.75,26.15 6.4,26 l 1.15,0.15 q 0.6,-0.85 1.55,-1.5 1.1,-0.8 2.05,-1.1 0.15,-0.75 0.75,-1.3 0.65,-0.45 1.3,-0.45 0.9,-0.1 1.6,0.45 0.75,0.5 0.8,1.4 l -0.05,0.55 q 1.1,0.6 1.75,1.6 l 0.65,1.15 q 0.4,0.85 0.4,1.95 0,1.55 -1.1,3.25 l 0.6,0.15 1.7,0.85 q 1.3,0.75 1.8,1.25 1,0.95 1.35,2.35 0.35,1.35 0.1,2.7 l -0.5,1.5 -1,1.2 -1.3,1.4 -1.2,0.55 q -2.15,0.65 -4.2,0 -2.05,-0.6 -3.25,-2.3 L 10.25,39.55 9.9,38.5 9.75,37.45 Q 9.65,36.5 9.85,35.75 9.25,35.6 8.6,35.15 M 6.7,30.75 Q 6.8,31.7 7.8,31.9 8.65,32.2 9.3,31.55 9.75,31.2 9.8,30.6 9.9,29.95 9.55,29.5 9.2,29 8.7,28.85 L 7.6,28.9 q -0.5,0.25 -0.75,0.8 -0.3,0.55 -0.15,1.05 m 6.75,26.35 -2,0.6 q -1.3,0 -1.9,-0.75 L 3.6,57.7 Q 2.1,57.7 1.5,57.2 0.55,56.45 0.75,55.15 L -0.2,55 q -1.1,-0.5 -1.2,-1.75 l 0.15,-0.9 0.45,-1 0.75,-0.6 0.6,-0.25 1.15,-0.1 1.8,0.15 1.05,0.4 5.2,-3.1 q 2.05,-0.95 2.95,-1.1 l 1.75,-0.1 q 2.5,0.1 4.05,1.15 0.95,0.6 1.45,1.6 0.55,1 0.5,2 -0.05,1.85 -1.9,3.25 -0.85,0.7 -3.45,1.8 L 13.45,57.1 M 31.3,50.4 q -0.25,-0.95 -1.25,-1.2 -0.95,-0.25 -1.6,0.5 -0.7,0.65 -0.35,1.65 0.25,0.8 1,1.05 0.5,0.2 1.1,0 l 0.85,-0.65 q 0.4,-0.65 0.25,-1.35"
         fill="#000000"
         fill-rule="evenodd"
         stroke="none"
         id="path7" />
    </g>
    <g
       id="shape2"
       transform="translate(1.5,1.5)">
      <path
         d="M 0,23.8 V 0 H 64.1 V 23.8 57.55 H 0 Z"
         fill="none"
         stroke="#000000"
         stroke-linecap="round"
         stroke-linejoin="round"
         stroke-width="3"
         id="path8" />
    </g>
  </defs>
</svg>
