<?xml version="1.0" encoding="UTF-8" standalone="no"?>
<svg
   ffdec:objectType="frame"
   height="44.349998"
   width="78.599998"
   version="1.1"
   id="svg11"
   sodipodi:docname="4.svg"
   xmlns:inkscape="http://www.inkscape.org/namespaces/inkscape"
   xmlns:sodipodi="http://sodipodi.sourceforge.net/DTD/sodipodi-0.dtd"
   xmlns:xlink="http://www.w3.org/1999/xlink"
   xmlns="http://www.w3.org/2000/svg"
   xmlns:svg="http://www.w3.org/2000/svg"
   xmlns:ffdec="https://www.free-decompiler.com/flash">
  <sodipodi:namedview
     id="namedview11"
     pagecolor="#ffffff"
     bordercolor="#000000"
     borderopacity="0.25"
     inkscape:showpageshadow="2"
     inkscape:pageopacity="0.0"
     inkscape:pagecheckerboard="0"
     inkscape:deskcolor="#d1d1d1"
     fit-margin-top="5"
     fit-margin-left="5"
     fit-margin-right="5"
     fit-margin-bottom="5" />
  <g
     transform="translate(2,2.05)"
     id="g3">
    <use
       ffdec:characterId="1"
       height="42.700001"
       transform="translate(-1.75,-2)"
       width="76.449997"
       xlink:href="#shape0"
       id="use1" />
    <use
       ffdec:characterId="6"
       height="39.450001"
       transform="translate(-1.2,1.35)"
       width="76.300003"
       xlink:href="#shape1"
       id="use2" />
    <use
       ffdec:characterId="3"
       height="44.349998"
       transform="translate(-2,-2.05)"
       width="78.599998"
       xlink:href="#shape2"
       id="use3" />
  </g>
  <defs
     id="defs11">
    <g
       id="shape0"
       transform="translate(1.75,2)">
      <path
         d="M 2.8,0 V -0.4 H 5.4 V 0 H 9.7 V 19.45 0 H 20.55 L 19.3,19.45 H 9.7 0.25 V 0 H 2.8"
         fill="#ffffff"
         fill-rule="evenodd"
         stroke="none"
         id="path3" />
      <path
         d="M 0.25,19.45 H 9.7 19.3 L 18.7,28.6 16,28.5 10.95,27.95 9.7,27.8 Q 7.45,27.6 5.85,27.75 4.05,27.9 1.5,28.6 0.75,28.8 0.25,29.15 v -9.7 m 9.45,0 v 8.35 -8.35"
         fill="#121212"
         fill-rule="evenodd"
         stroke="none"
         id="path4" />
      <path
         d="m 9.7,27.8 1.25,0.15 5.05,0.55 2.7,0.1 h 1.05 l 3.75,0.15 q 2.45,0.3 3.6,1.25 0.6,0.5 0.6,1.1 0,0.65 -0.8,1 l -1.3,0.2 -7.15,0.15 -5.6,-0.3 L 9.7,31.75 7.95,31.6 3.1,31.95 0.95,32.3 0.25,32.1 -0.35,31.55 -0.5,31.3 V 29.9 L 0.25,29.15 Q 0.75,28.8 1.5,28.6 4.05,27.9 5.85,27.75 7.45,27.6 9.7,27.8 v 3.95 -3.95"
         fill="#999999"
         fill-rule="evenodd"
         stroke="none"
         id="path5" />
      <path
         d="M 2.8,0 H 0.25 M 9.7,0 H 5.4 m 16.15,0 h 10.7 M 20.55,0 H 9.7"
         fill="none"
         stroke="#666666"
         stroke-linecap="round"
         stroke-linejoin="round"
         stroke-width="4"
         id="path6" />
      <path
         d="m 9.7,-0.4 h 65 V 40.5 H 47.05 L 45.5,40.7 27,40.65 25.95,40.5 H 9.7 -0.5 V -0.4 H 9.7 V 40.5 -0.4"
         fill="#ffffff"
         fill-rule="evenodd"
         stroke="none"
         id="path7" />
    </g>
    <g
       id="shape1"
       transform="translate(1.2,-1.35)">
      <path
         d="m 68.35,12.65 q 0.35,-1.05 1.4,-1.2 1.05,-0.15 1.65,0.7 0.65,0.85 0.1,1.85 l -0.95,0.75 -1.2,-0.05 q -0.55,-0.2 -0.85,-0.85 -0.3,-0.6 -0.15,-1.2 m -6.25,10.5 -0.35,-0.1 -0.35,-0.2 q -0.6,-0.55 -0.45,-1.2 0.2,-0.8 0.95,-0.8 L 62,20.8 q 0.7,0.1 1.05,0.6 0.35,0.6 0.05,1.2 -0.25,0.65 -1,0.55 M 58.95,3.35 57.35,7.2 56.9,7.1 56.65,6.7 Q 56.3,5.85 56.3,3.6 L 56.4,2.85 Q 56.55,2.35 57,2.1 l 0.95,-0.2 q 0.5,0.1 0.8,0.5 0.3,0.45 0.2,0.95 m -1.05,6.4 -0.55,0.75 -0.9,0.2 Q 55.95,10.65 55.6,10.3 55.25,9.95 55.25,9.45 55.2,8.95 55.5,8.55 q 0.25,-0.4 0.8,-0.5 l 0.9,0.1 0.65,0.65 q 0.2,0.5 0.05,0.95 M 75.1,27.4 V 40.8 H -0.5 V 29.05 L -0.8,28.8 q -0.65,-0.65 -0.3,-1.6 0.2,-0.6 0.85,-1.05 0.7,-0.4 1.05,-0.5 l 3.1,-0.4 0.85,0.05 q 2.4,-1.15 5.55,-0.35 1.95,0.45 2.75,1.65 l 0.35,0.8 h 3.95 l 1.25,-0.7 3.05,-1 1.6,-0.15 q 2.3,0 4.65,0.7 1.3,0.4 1.55,1.15 h 8.65 q 0.25,-0.3 0.6,-0.5 l 0.9,-0.4 0.85,-0.25 1.2,-0.1 5.9,1 0.5,0.25 h 0.75 l 0.6,-0.3 q 5.45,-2.15 9.65,-0.8 l 1.6,0.45 2.95,-0.5 q 4.2,-1.35 6.75,-1.1 2.05,0.2 3.25,1.25 l 0.85,1 H 75.1 M 11.9,6.6 Q 11.3,6.6 11,6.05 10.65,5.55 10.9,5 11.15,4.35 11.8,4.25 H 12 q 0.7,-0.1 1.05,0.6 Q 13.4,5.5 13,6.05 12.7,6.7 11.9,6.6 m 4.95,1.1 q 0.4,-0.8 1.3,-0.8 0.85,0 1.2,0.85 0.2,0.5 0,1.9 l -0.15,2.2 -0.1,0.95 q -0.3,0.6 -0.8,0.45 -0.35,-0.15 -0.45,-0.8 L 17.55,11.2 17.3,10.25 16.85,9 q -0.2,-0.8 0,-1.3 m -9.8,7.95 Q 8,16.25 7.85,17.4 7.75,18.5 6.75,19 L 5.45,19.05 4.4,18.3 q -0.35,-0.5 -0.3,-1.25 0.05,-0.7 0.5,-1.15 0.45,-0.5 1.15,-0.55 0.75,-0.1 1.3,0.3 m 10.5,0.65 -0.25,-0.6 q -0.05,-0.45 0.15,-0.9 0.55,-1 1.6,-0.75 0.45,0.1 0.8,0.45 l 0.35,0.85 q 0.1,1.15 -0.95,1.5 H 18.3 L 17.55,16.3"
         fill="#999999"
         fill-rule="evenodd"
         stroke="none"
         id="path8" />
      <path
         d="M 52.15,19.15 Q 51,18.65 50.85,17.5 50.75,17 51.05,16.1 L 51.1,16 50.95,15.85 50.8,15.7 50.2,15.05 50,13.8 50.2,12.5 q 0.3,-1.05 1.4,-1.45 l 2.05,-0.3 1.2,0.4 q 0.55,0.4 0.95,1.15 l 0.25,0.6 q 0.3,-0.45 0.75,-0.8 l 0.55,-0.35 q 0.8,-0.5 1.5,-0.65 1.25,-0.3 2.5,0.6 l 0.7,0.85 0.1,1.25 q -0.2,1.2 -1.05,2.15 -0.85,1 -1.95,1.4 L 58.95,18 q -0.15,1.55 -0.8,2.45 l -0.7,0.8 -2.05,1.7 -0.9,0.55 -1.05,0.15 q -0.7,-0.15 -0.9,-0.75 -0.25,-0.55 0,-1.15 L 52.7,21.4 52.65,21 52.35,19.9 52.2,19.2 52.15,19.15 m -5,-5.6 Q 47.25,16.7 46,19 q -1.1,2 -3.05,3.25 l 0.1,1.35 0.1,0.75 0.6,0.35 q 1.65,0.65 2.25,2.35 l 0.25,1.15 0.15,1.7 q -0.15,1.6 -2.25,3.5 0.4,0.6 0.3,1.35 -0.1,0.75 -0.7,1.25 -0.7,0.55 -2.5,0.5 l -0.75,-0.05 -0.15,0.2 Q 39.8,37.7 39.2,38 l -1.6,0.15 -1,-0.15 q -0.95,0.8 -2.55,0.45 -1.3,-0.4 -1.75,-1.1 h -0.15 l -1.15,0.3 -1.4,0.2 q -1.15,0 -1.65,-0.35 l -0.75,-0.75 -0.4,-0.8 q -0.15,-0.8 0.45,-1.45 L 26.15,33 25.6,31.85 q -2.05,0.65 -3.15,1.25 l -1.9,1.4 0.75,-0.15 1.55,-0.1 q 0.85,0.05 1.55,0.45 0.75,0.45 0.95,1.2 0.35,1.25 -0.65,2.15 Q 23.9,38.9 22.6,39 L 20.15,38.75 Q 19,38.65 17.7,38 l -0.95,-0.75 q -0.35,-0.45 -0.35,-1.4 0,-1.3 0.15,-1.75 0.2,-0.5 0.7,-1.15 1.25,-1.65 3.6,-2.85 1.4,-0.65 4.4,-1.55 l 0.6,-0.15 0.4,-0.8 q 0.8,-1.05 1.9,-1.65 l 0.95,-0.85 0.1,-0.7 0.3,-0.95 Q 29.7,22.7 30,22.4 L 28.7,21.45 Q 27.3,20.2 26.6,18.55 25.85,16.75 26.05,15 l 0.6,-2.5 1,-1.95 L 28.1,9.95 27.55,9.1 Q 27.4,8.75 27.4,7.85 q 0,-1.1 0.15,-1.65 l 0.85,-1.85 0.35,-1 0.45,-1 1.15,-0.6 Q 31,1.65 31.6,2.1 l 0.7,0.9 0.9,1.75 0.7,0.9 6.15,-0.2 0.35,-0.3 2.15,-2.4 q 0.7,-1.05 1.2,-1.3 0.45,-0.15 0.9,0 0.5,0.15 0.75,0.55 l 0.3,1.15 0.45,1.6 0.35,1.55 0.1,1.15 0.1,0.8 -0.05,0.65 0.1,0.65 0.1,0.9 v 0.25 l 0.3,2.85 m -1.9,2.5 0.15,-0.8 h -0.05 l -0.2,0.05 -0.35,0.05 h -0.15 l -0.7,-0.05 -0.7,-0.05 H 43.2 l -0.85,0.45 -1.2,0.55 0.5,0.75 q 0.55,0.5 1.35,0.55 l 1.4,-0.35 q 0.6,-0.4 0.85,-1.15 m 9.85,-2.5 -0.05,-0.1 -0.35,-0.4 q -0.55,-0.55 -1.3,-0.55 -0.85,0 -1.35,0.5 l -0.25,0.25 -0.1,0.45 0.25,0.7 0.2,0.5 0.55,-0.45 q 0.75,-0.4 2.1,-0.4 h 0.4 l -0.1,-0.5 m 5.25,0.65 0.05,-0.8 Q 60,12.65 59.05,12.85 58.4,13 57.8,13.65 l -0.45,0.7 v 0.15 l 1.15,0.65 0.35,0.45 0.35,-0.1 0.85,-0.5 0.3,-0.8 m -1,18.45 q 0.6,0.5 1.2,0 0.65,-0.4 0.4,-1.15 -0.3,-0.75 -1,-0.75 l -0.1,0.05 q -0.35,0 -0.65,0.3 -0.3,0.3 -0.3,0.7 l 0.15,0.5 0.3,0.35 m -2.8,3.1 -4.7,0.2 L 49.5,35.6 48.45,35.15 Q 47.9,34.6 48.1,33.8 q 0.1,-0.5 0.7,-1.3 1.25,-1.45 3.85,-2.65 l 2,-0.8 q 1.85,-0.5 3.5,-0.05 1.25,0.25 1.95,0.85 1,0.65 1.3,1.7 l 0.25,1.65 q 0,1.5 -0.55,1.95 l -1.4,0.35 -3.15,0.25 M 32.8,16.35 33,15.9 32.65,15.8 30.7,14.9 H 30.6 30.05 L 29.7,14.85 29.4,14.8 29.05,14.75 28.9,14.7 h -0.05 l -0.1,0.65 q 0.05,0.75 0.45,1.3 0.45,0.55 1.2,0.75 l 1.4,-0.1 1,-0.95 m 22.45,16.55 0.4,-0.25 0.25,-0.35 0.15,-0.4 Q 56.2,31.45 56,31 L 55.35,30.3 54.4,30.2 q -0.5,0.1 -0.8,0.45 -0.7,0.9 -0.05,1.75 l 0.75,0.55 0.95,-0.05 M 18.35,24 q -0.7,-0.25 -1,-0.65 h -0.5 l -2.05,-0.4 q -1.1,-0.65 -1.25,-1.6 -0.1,-0.4 0.15,-1.45 l 0.35,-0.95 q 0.6,-0.95 2,-1.05 l 2.3,0.45 0.45,0.2 0.7,-0.85 q 0.95,-0.75 2.15,-0.85 0.75,-0.1 1.3,0.25 0.95,0.6 0.85,2 -0.15,2 -1.85,2.9 l -0.2,0.1 -0.15,0.65 q -0.4,0.95 -1.35,1.25 -0.85,0.35 -1.9,0 m 1.5,-4.1 q 1.2,0 1.7,0.85 L 22,20.15 q 0.5,-0.8 0.4,-1.7 L 21.25,18.3 q -1.1,0.3 -1.35,0.9 l -0.15,0.7 h 0.1 m -2.4,1.35 0.55,-0.75 0.4,-0.3 v -0.3 l -0.05,-0.05 -1,-0.45 Q 16,19.2 15.55,19.65 l -0.45,0.85 -0.05,0.5 0.35,0.3 1.3,0.25 h 0.6 l 0.15,-0.3 M 8.3,33.95 H 7.95 l -0.45,0.4 0.1,0.7 q 0,0.45 -0.35,0.55 -0.4,0.15 -0.7,-0.25 l -0.3,-0.7 -0.3,-1 L 5.85,33.6 5.05,34.7 5,35.25 4.6,35.05 4.2,33.95 Q 4.1,33.5 4.3,33.25 L 4.6,32.8 4.7,32.45 Q 4.5,31.8 4.6,31 4.85,29.6 6,28.75 l 1,-0.6 Q 8.3,27.6 8.85,27.6 l 1.35,0.25 0.75,0.25 0.75,0.6 q 0.7,0.7 0.75,1.45 l -0.1,0.95 v 0.05 l 0.55,0.8 q 0.4,1.2 -0.15,2.2 l -0.3,0.4 L 12,34.6 q -0.25,-0.1 -0.35,-0.7 0,-0.75 -0.2,-1.05 L 11.4,32.8 10.8,33.3 v 0.85 q 0,0.6 -0.4,0.9 L 9.75,35.3 9.3,35.25 Q 9.05,35.05 9.15,34.6 l 0.05,-0.75 -0.9,0.1"
         fill="#000000"
         fill-rule="evenodd"
         stroke="none"
         id="path9" />
      <path
         d="M 45.25,16.05 Q 45,16.8 44.4,17.2 L 43,17.55 Q 42.2,17.5 41.65,17 l -0.5,-0.75 1.2,-0.55 0.85,-0.45 h 0.05 l 0.7,0.05 0.7,0.05 h 0.15 l 0.35,-0.05 0.2,-0.05 h 0.05 l -0.15,0.8 m 14.1,16.6 -0.3,-0.35 -0.15,-0.5 q 0,-0.4 0.3,-0.7 0.3,-0.3 0.65,-0.3 l 0.1,-0.05 q 0.7,0 1,0.75 0.25,0.75 -0.4,1.15 -0.6,0.5 -1.2,0 M 55.25,32.9 54.3,32.95 53.55,32.4 Q 52.9,31.55 53.6,30.65 53.9,30.3 54.4,30.2 L 55.35,30.3 56,31 q 0.2,0.45 0.05,0.9 l -0.15,0.4 -0.25,0.35 -0.4,0.25 M 32.8,16.35 l -1,0.95 -1.4,0.1 q -0.75,-0.2 -1.2,-0.75 -0.4,-0.55 -0.45,-1.3 l 0.1,-0.65 h 0.05 l 0.15,0.05 0.35,0.05 0.3,0.05 0.35,0.05 h 0.55 0.1 l 1.95,0.9 0.35,0.1 -0.2,0.45"
         fill="#ffffff"
         fill-rule="evenodd"
         stroke="none"
         id="path10" />
    </g>
    <g
       id="shape2"
       transform="translate(2,2.05)">
      <path
         d="M -0.5,-0.4 V -0.55 H 75.1 V -0.4 40.8 H -0.5 Z"
         fill="none"
         stroke="#000000"
         stroke-linecap="round"
         stroke-linejoin="round"
         stroke-width="3"
         id="path11" />
    </g>
  </defs>
</svg>
