<?xml version="1.0" encoding="UTF-8" standalone="no"?>
<svg
   ffdec:objectType="frame"
   height="60.549999"
   width="67.099998"
   version="1.1"
   id="svg9"
   sodipodi:docname="553.svg"
   xmlns:inkscape="http://www.inkscape.org/namespaces/inkscape"
   xmlns:sodipodi="http://sodipodi.sourceforge.net/DTD/sodipodi-0.dtd"
   xmlns:xlink="http://www.w3.org/1999/xlink"
   xmlns="http://www.w3.org/2000/svg"
   xmlns:svg="http://www.w3.org/2000/svg"
   xmlns:ffdec="https://www.free-decompiler.com/flash">
  <sodipodi:namedview
     id="namedview9"
     pagecolor="#ffffff"
     bordercolor="#000000"
     borderopacity="0.25"
     inkscape:showpageshadow="2"
     inkscape:pageopacity="0.0"
     inkscape:pagecheckerboard="0"
     inkscape:deskcolor="#d1d1d1"
     fit-margin-top="5"
     fit-margin-left="5"
     fit-margin-right="5"
     fit-margin-bottom="5" />
  <g
     transform="translate(1.5,1.5)"
     id="g3">
    <use
       ffdec:characterId="516"
       height="57.549999"
       width="64.099998"
       xlink:href="#shape0"
       id="use1" />
    <use
       ffdec:characterId="1049"
       height="55.599998"
       transform="translate(-0.25,0.95)"
       width="64.050003"
       xlink:href="#shape1"
       id="use2" />
    <use
       ffdec:characterId="518"
       height="60.549999"
       transform="translate(-1.5,-1.5)"
       width="67.099998"
       xlink:href="#shape2"
       id="use3" />
  </g>
  <defs
     id="defs9">
    <g
       id="shape0">
      <path
         d="M 53.6,0 H 64.1 V 57.55 H 53.6 28.25 0 V 0 H 28.25 53.6 V 57.55 0 M 28.25,0 V 57.55 0"
         fill="#ffffff"
         fill-rule="evenodd"
         stroke="none"
         id="path3" />
    </g>
    <g
       id="shape1"
       transform="translate(0.25,-0.95)">
      <path
         d="M 45.85,42.6 45.7,41.75 q -1.5,0 -2.8,-0.95 l -0.95,-0.9 -0.8,-1.3 q -0.35,-0.95 0,-1.95 0.4,-0.95 1.25,-1.55 0.35,-0.3 1.4,-0.85 l 1,-0.35 2.55,0.1 0.95,0.4 0.15,0.15 q 1.45,-0.75 3.1,-1.05 l 1.65,-0.2 1.85,0.45 0.2,-0.35 0.95,-0.85 1.05,-0.8 1.05,-0.35 2,-0.1 q 1.55,0.2 2.7,1.5 1.05,1.35 0.7,2.9 l -0.4,1.15 -0.6,1.05 -1.8,1.95 -1.25,0.65 q -0.35,1.9 -1.9,3.7 v 0.2 1.65 q -0.3,4.1 -3.35,6.45 -1.45,1.2 -3.3,1.6 l -3.75,-0.15 q -0.8,-0.2 -1.45,-0.6 l -0.8,0.4 -0.55,0.5 q -0.75,0.6 -2.65,0.55 l -1.3,-0.05 q -0.95,-0.2 -2,-1.2 l -1.4,-2 -0.3,-0.25 -0.65,0.45 -0.5,0.35 -0.15,0.5 -0.4,0.25 -0.35,-0.05 q -0.15,-0.2 -0.15,-0.6 -0.4,-1.45 0.05,-2.1 0.1,-0.25 0.55,-0.55 0.35,-0.35 0.8,-0.55 0.75,-0.4 1.75,-0.25 0.9,0.2 1.55,0.8 l 1.1,1.5 q 0.75,0.9 1.6,0.8 L 42.85,51.55 43.3,51 43.5,50.75 43.45,50.7 q -0.5,-1.25 -0.35,-2.6 0.2,-1.4 1,-2.35 l 2.05,-1.45 0.45,-0.2 -0.75,-1.5 m 12.3,-2.25 0.1,-0.4 v -0.4 l -2,0.3 -1.4,-0.05 Q 54,39.7 52.9,39.2 l -0.05,0.05 q 0,0.85 0.3,1.55 l 0.55,0.7 1,0.6 2.1,-0.1 q 1.05,-0.55 1.35,-1.65 m -7.75,-1.2 q -0.75,-1.3 -2.15,-1.5 -1.55,-0.1 -2.35,1.05 -0.55,0.65 -0.55,1.6 0,1.35 1.05,2.15 1.1,0.75 2.3,0.45 1.1,-0.35 1.7,-1.5 0.45,-1.1 0,-2.25 m -35.7,-2.1 v 0.3 q 0.35,1.75 -0.35,3.45 -0.7,1.7 -2.1,2.8 l -0.3,0.2 1.4,0.9 q 2.05,1.55 2.55,3.35 l 0.45,-0.25 0.75,-1.05 q 0.6,-1.1 0.6,-1.6 l 0.1,-1.9 Q 17.75,42 18.05,41.4 l 0.3,-0.4 0.45,-0.05 0.75,0.75 0.15,1.05 0.15,2.95 v 0.9 l -0.45,1.95 q -0.75,1.95 -3.55,4.05 l -0.5,0.4 -1.1,1.4 q -1.3,1.3 -2.75,1.75 L 9.95,56.5 9.1,56.55 Q 7.4,56.45 5.85,55.5 4.35,54.5 3.4,52.95 1.7,50.15 2.1,46.25 2.25,44.7 2.7,43.65 1.55,42.5 1.15,41.4 L 0.8,41.35 -0.25,41 v -9.05 l 0.8,-0.05 q 1.4,0 2.9,0.8 0.75,-0.65 1.85,-0.85 l 1.3,-0.2 0.1,-1.1 Q 6.85,30 7.65,29.1 q 1,-1.2 2.2,-1.3 h 1.3 l 0.95,0.25 q 0.55,0.15 1.45,0.95 l 1.1,1.3 0.2,1.5 q 0,1.3 -0.75,2.55 l -0.3,0.4 0.45,0.85 -0.55,-0.55 q -0.85,-0.75 -2,-0.6 -1.1,0.1 -1.85,0.95 -0.55,0.75 -0.55,1.65 -0.1,0.9 0.45,1.65 l 0.6,0.6 0.7,0.4 q 0.85,0.25 1.7,0 1.6,-0.4 1.85,-2.05 l 0.1,-0.6 m -8.5,5.1 0.75,-0.35 q 0.75,-0.45 1.1,-1.3 0.3,-0.8 0.1,-1.7 L 7.5,37.45 7.25,37.9 l -0.9,1 -1,0.7 -1.3,0.6 -1.35,0.35 0.15,0.35 0.4,0.5 q 1,1 2.45,0.85 l 0.5,-0.1"
         fill="#999999"
         fill-rule="evenodd"
         stroke="none"
         id="path4" />
      <path
         d="m 50.4,39.15 q 0.45,1.15 0,2.25 -0.6,1.15 -1.7,1.5 -1.2,0.3 -2.3,-0.45 -1.05,-0.8 -1.05,-2.15 0,-0.95 0.55,-1.6 0.8,-1.15 2.35,-1.05 1.4,0.2 2.15,1.5 m 7.75,1.2 q -0.3,1.1 -1.35,1.65 l -2.1,0.1 -1,-0.6 -0.55,-0.7 q -0.3,-0.7 -0.3,-1.55 L 52.9,39.2 q 1.1,0.5 1.95,0.6 l 1.4,0.05 2,-0.3 v 0.4 l -0.1,0.4 m -43.9,-4.75 0.45,1.45 -0.1,0.6 q -0.25,1.65 -1.85,2.05 -0.85,0.25 -1.7,0 l -0.7,-0.4 -0.6,-0.6 Q 9.2,37.95 9.3,37.05 q 0,-0.9 0.55,-1.65 0.75,-0.85 1.85,-0.95 1.15,-0.15 2,0.6 l 0.55,0.55 M 6.2,42.15 5.7,42.25 Q 4.25,42.4 3.25,41.4 L 2.85,40.9 2.7,40.55 4.05,40.2 l 1.3,-0.6 1,-0.7 0.9,-1 0.25,-0.45 0.65,1.35 q 0.2,0.9 -0.1,1.7 -0.35,0.85 -1.1,1.3 L 6.2,42.15"
         fill="#ffffff"
         fill-rule="evenodd"
         stroke="none"
         id="path5" />
      <path
         d="m 33.15,13.55 q 1.8,0.45 3.2,1.65 1.4,1.2 2.05,2.85 0.4,1.35 0.45,2.75 l 0.8,-0.6 2.15,-1.85 1.65,-2 0.55,-0.95 0.65,-0.9 q 0.8,-0.7 1.95,-0.55 0.6,0.15 1.3,0.65 l 1.1,0.95 q 2.15,2 5.5,3.1 l 1.65,0.55 q 0.9,0.35 1.4,0.85 0.9,0.9 0.75,2.3 -0.25,1.4 -1.5,1.95 l -3.3,-0.15 -0.4,-0.1 q 0.5,1.55 -0.55,2.75 -1.05,1.15 -2.7,0.9 L 48.15,27 47.1,26.6 47,26.55 v 0.65 q -0.15,1.6 -1.55,2.25 l -2.85,-0.1 -0.8,-0.7 -0.1,-0.1 h -0.05 q -1.05,0.6 -2.15,0.3 -0.25,1.45 -1.1,2.9 l -1.35,1.8 1,1.35 q 0.9,1.5 0.3,2.8 l -0.15,0.35 -0.1,0.45 -0.25,0.45 0.2,0.05 q 1.15,0.4 1.4,1.55 0.15,0.95 -0.6,1.7 -0.7,0.65 -1.65,0.55 -0.8,-0.05 -1.7,-0.6 l -1,-0.65 Q 33.8,40.8 34.35,39.9 l 0.65,-0.6 0.5,-0.6 0.55,-0.85 0.1,-0.25 q 0.2,-0.5 0,-0.75 l -0.6,-0.4 -0.75,-0.25 -0.3,0.25 -2,1.5 -0.2,0.45 -0.7,1.95 -1.5,3.7 -2.4,5.6 q -0.9,2.25 -2.2,2.75 -1,0.4 -2.05,-0.3 -0.85,-0.55 -1,-1.75 l -0.5,0.3 -1.2,-0.1 q -0.45,-0.3 -0.45,-1 l 0.3,-1.1 q 1.1,-2.7 2.65,-5.35 l 3.25,-5.35 q -0.5,-0.6 -0.85,-1.4 l -0.1,-0.05 -1.1,-0.45 -1.1,0.1 -0.95,0.4 -0.05,0.55 0.35,0.5 0.3,0.75 -0.25,1.35 Q 22,40.7 20.65,40.55 L 20.1,40.45 19.7,40.55 18.9,40.5 18.35,40.25 17.1,39.1 q -0.25,-0.7 -0.2,-1.25 0,-0.75 0.55,-1.4 Q 18.1,35.8 19,35.8 l 0.05,-0.05 1.05,0.15 q 0.05,-0.95 0.4,-1.55 0.4,-0.85 1.45,-1.45 0.9,-0.45 2,-0.6 l 0.8,-0.05 q -0.05,-2 0.55,-3.9 -0.95,1.05 -1.95,1.3 -1.05,0.3 -2.05,0 l -0.8,-0.45 -1.05,0.9 q -1.2,0.75 -2.2,0.6 L 16.1,30.3 q -1.45,-0.9 -1.6,-2.2 v -0.2 l -1.75,0.05 -2,-0.5 Q 9.9,26.95 9.45,26.05 8.95,25.2 9,24.2 q 0.1,-1 0.7,-1.85 0.7,-0.8 2.6,-1.4 3.2,-1.2 4.8,-2.6 l 1.25,-1.15 q 0.7,-0.6 1.35,-0.8 1.15,-0.4 2.2,0.25 1.05,0.7 1.2,1.8 l 0.15,0.85 0.05,0.05 0.05,-0.2 0.7,-1.5 -0.15,-0.15 -1.15,-1.25 -1.05,-1 q -0.4,-0.4 -0.4,-0.95 0,-0.6 0.4,-0.95 0.25,-0.25 0.65,-0.25 h 0.7 l 0.6,0.3 1.85,0.7 1.1,0.35 0.4,0.2 q 0.8,-0.6 1.6,-0.9 L 29.75,8.95 30,8.25 Q 30,7.6 30.8,7.3 l 0.55,-0.05 q 0.5,0.1 0.7,0.7 l 0.1,1.05 -0.1,2.1 0.15,1.1 -0.1,0.75 v 0.4 l 1.05,0.2 m -7.8,-6.2 1.6,-0.15 q 1,0.2 1.15,1.05 l -0.1,0.8 -0.05,2.9 -0.15,1 q -0.3,0.5 -0.95,0.5 -0.7,-0.1 -0.85,-0.65 l -0.1,-0.85 v -1.7 l -1.5,0.4 -0.5,0.3 -0.95,0.3 -1,-0.3 Q 21.05,10.3 21.2,9.15 L 21.35,8.65 21.4,7.2 21.5,6.1 21.3,6.15 19.5,6.4 H 18.65 L 17.8,5.75 Q 17.45,5.15 17.7,4.35 18,3.65 18.55,3.2 l 1.2,-0.9 Q 21.4,1.1 22.25,1 l 1.3,0.15 0.1,-0.05 q 1.15,0 1.7,1.25 l 0.15,0.35 0.25,0.8 q 0.3,1.05 -0.1,2.1 l -0.05,0.05 -0.25,1.7 m 6.55,15 0.8,0.7 q 1.15,0.65 2.45,0.35 1.3,-0.3 1.95,-1.5 l 0.1,-0.15 Q 38.1,20 36.95,18.45 36.45,17.75 35.6,17.4 l -1.7,-0.25 q -0.85,0.1 -1.55,0.7 -0.75,0.6 -1,1.4 -0.3,0.8 -0.15,1.65 0.15,0.85 0.7,1.45 m 5.3,-1.85 -0.6,1.15 q -0.85,0.95 -2.05,0.6 -1.15,-0.3 -1.5,-1.55 -0.25,-1.2 0.6,-2 0.45,-0.45 1.15,-0.55 l 1.25,0.2 0.9,0.9 0.25,1.25"
         fill="#000000"
         fill-rule="evenodd"
         stroke="none"
         id="path6" />
      <path
         d="m 31.9,22.35 q -0.55,-0.6 -0.7,-1.45 -0.15,-0.85 0.15,-1.65 0.25,-0.8 1,-1.4 0.7,-0.6 1.55,-0.7 l 1.7,0.25 q 0.85,0.35 1.35,1.05 1.15,1.55 0.25,3.3 l -0.1,0.15 q -0.65,1.2 -1.95,1.5 -1.3,0.3 -2.45,-0.35 l -0.8,-0.7 m 5.3,-1.85 -0.25,-1.25 -0.9,-0.9 -1.25,-0.2 q -0.7,0.1 -1.15,0.55 -0.85,0.8 -0.6,2 0.35,1.25 1.5,1.55 1.2,0.35 2.05,-0.6 l 0.6,-1.15"
         fill="#ffffff"
         fill-rule="evenodd"
         stroke="none"
         id="path7" />
      <path
         d="m 57.65,8.45 0.5,-0.6 H 58.6 L 58.7,7.8 q 1.25,-0.3 2.45,0.35 l 0.7,0.7 q 0.35,0.8 -0.1,1.35 l -0.7,0.6 -0.75,0.45 -0.7,0.4 0.2,2.8 0.1,0.4 q 0.3,1.1 -0.65,2.05 l -0.75,0.55 -0.55,0.1 -1.85,-0.15 q -1.05,-0.5 -1.25,-1.25 l -0.1,-1.1 0.15,-0.7 q 0.2,-0.75 0.85,-1.3 0.65,-0.5 1.45,-0.6 -0.35,-1.95 0.45,-4 M 50.4,4.4 50.5,3.85 Q 50.65,3.3 51.25,3.05 L 51.3,2.9 q 0.55,-0.6 1.25,-0.2 l 0.55,0.4 1,1.05 q 0.75,0.65 0.75,1.25 0.05,0.7 -0.8,1.05 L 53.35,6.6 52.6,6.85 52.15,9.7 51.6,10.55 51.45,10.8 51.2,11 l -0.25,0.35 -1.05,0.6 -1.35,0.1 q -0.8,-0.15 -1.1,-0.75 -0.35,-0.6 -0.2,-1.45 0,-0.65 0.3,-1 Q 47.95,8.3 49.1,8 L 49.7,7.9 49.9,6.55 V 6.5 L 50.15,5.2 50.4,4.4 M 40.8,7.4 40.25,6.65 38.9,7.4 38.75,7.55 v 0.1 l 0.4,0.9 q 0.5,1.15 0.4,1.85 l -0.05,0.4 -0.7,1.1 q -0.5,0.9 -1.5,0.95 -0.55,0.05 -1,-0.3 L 35.65,11.7 q -0.1,-0.4 0.05,-0.85 0.2,-0.7 0.75,-1 L 35.95,8.15 35.8,6.95 36,6.5 l 0.1,-0.25 0.65,-0.5 0.95,-0.7 1.6,-0.8 0.65,-0.2 0.6,-0.05 0.8,0.5 0.45,0.85 h 0.1 L 42.6,6.5 42.9,7.15 43,7.5 43.25,7.9 V 8 l 0.25,0.2 q 0.7,0.75 0.25,1.7 -0.45,0.85 -1.45,1.1 l -1.55,-0.2 q -0.9,-0.45 -0.7,-1.4 l 0.3,-1.05 Q 40.5,7.9 40.9,7.6 H 41 L 40.8,7.4 m -26.95,4.85 -0.3,-0.75 q -0.3,-0.6 -0.25,-0.95 l -0.1,-0.05 -1.25,0.35 -0.7,0.15 0.15,1 0.25,1.5 0.9,0.15 q 0.55,0.2 0.75,0.55 l 0.2,0.9 q 0,1.65 -1.25,2.35 l -0.55,0.2 Q 11.05,17.8 10.2,17.3 9.55,17.05 9.3,16.45 L 9.2,15.8 V 15.1 L 8.65,10.5 Q 8.25,9.85 8.7,9.1 9.1,8.5 10.55,8.1 l 2.25,-0.75 1.35,-0.3 q 1.05,0.1 1.3,1.1 L 15.5,8.9 16,11.6 h 0.3 l 0.55,0.05 q 0.8,0.15 1.15,1 0.6,1.35 -0.4,2.45 l -1.15,0.65 -1.3,-0.05 -0.8,-0.65 -0.2,-0.65 Q 14,13.65 14.1,12.7 L 13.85,12.25 M 3.35,8.3 3.2,8.15 Q 2.45,7.7 2.2,6.9 1.95,6.05 2.45,5.3 3.3,4.2 4.7,4.55 l 0.55,0.1 h 0.6 Q 6.4,4.65 6.8,5.05 7.25,5.45 7.3,6 L 6.85,7.5 5.95,9.85 5.7,10.7 l 0.55,0.6 0.3,1.2 q 0.1,0.7 -0.2,1.25 L 5.4,14.7 4.05,14.95 Q 2.65,14.8 1.95,13.35 1.5,12.4 1.8,11.55 2.05,10.95 2.5,10.7 L 2.6,10.45 3.35,8.55 V 8.3"
         fill="#999999"
         fill-rule="evenodd"
         stroke="none"
         id="path8" />
    </g>
    <g
       id="shape2"
       transform="translate(1.5,1.5)">
      <path
         d="M 0,23.8 V 0 H 64.1 V 23.8 57.55 H 0 Z"
         fill="none"
         stroke="#000000"
         stroke-linecap="round"
         stroke-linejoin="round"
         stroke-width="3"
         id="path9" />
    </g>
  </defs>
</svg>
