<?xml version="1.0" encoding="UTF-8" standalone="no"?>
<svg
   ffdec:objectType="frame"
   height="60.549999"
   width="67.099998"
   version="1.1"
   id="svg8"
   sodipodi:docname="258.svg"
   xmlns:inkscape="http://www.inkscape.org/namespaces/inkscape"
   xmlns:sodipodi="http://sodipodi.sourceforge.net/DTD/sodipodi-0.dtd"
   xmlns:xlink="http://www.w3.org/1999/xlink"
   xmlns="http://www.w3.org/2000/svg"
   xmlns:svg="http://www.w3.org/2000/svg"
   xmlns:ffdec="https://www.free-decompiler.com/flash">
  <sodipodi:namedview
     id="namedview8"
     pagecolor="#ffffff"
     bordercolor="#000000"
     borderopacity="0.25"
     inkscape:showpageshadow="2"
     inkscape:pageopacity="0.0"
     inkscape:pagecheckerboard="0"
     inkscape:deskcolor="#d1d1d1"
     fit-margin-top="5"
     fit-margin-left="5"
     fit-margin-right="5"
     fit-margin-bottom="5" />
  <g
     transform="translate(1.5,1.5)"
     id="g3">
    <use
       ffdec:characterId="516"
       height="57.549999"
       width="64.099998"
       xlink:href="#shape0"
       id="use1" />
    <use
       ffdec:characterId="763"
       height="58"
       transform="translate(0,-0.3)"
       width="64.550003"
       xlink:href="#shape1"
       id="use2" />
    <use
       ffdec:characterId="518"
       height="60.549999"
       transform="translate(-1.5,-1.5)"
       width="67.099998"
       xlink:href="#shape2"
       id="use3" />
  </g>
  <defs
     id="defs8">
    <g
       id="shape0">
      <path
         d="M 53.6,0 H 64.1 V 57.55 H 53.6 28.25 0 V 0 H 28.25 53.6 V 57.55 0 M 28.25,0 V 57.55 0"
         fill="#ffffff"
         fill-rule="evenodd"
         stroke="none"
         id="path3" />
    </g>
    <g
       id="shape1"
       transform="translate(0,0.3)">
      <path
         d="M 10.65,37.15 H 10.15 9.65 9.15 8.45 7.95 7.45 6.95 6.55 6.05 5.6 4.85 4.35 3.85 3.4 2.9 2.4 2 1.25 0.75 0.3 0.1 L 0,37.25 V 19.6 l 0.2,0.2 h 0.1 0.45 0.5 0.75 0.4 0.5 0.5 0.45 0.5 0.5 0.75 0.45 0.5 0.4 0.5 0.5 0.5 0.7 0.5 0.5 0.5 l 0.5,0.25 h 0.45 0.2 l -0.45,-0.5 H 10.9 L 10.65,19.35 10.15,18.9 9.9,18.65 9.4,18.15 8.95,17.65 8.7,17.4 8.2,16.95 7.7,16.45 7.2,15.95 6.8,15.45 6.55,15.2 6.05,14.75 5.85,14.55 5.35,14.05 4.85,13.6 4.1,12.85 3.65,12.35 3.45,12.2 H 2.3 Q 1.6,12.1 1,11.55 0.55,11.05 0.35,10.25 0.3,9.75 0.55,9.25 L 0.3,9 0.05,8.75 0,8.7 v -9 h 15.6 v 0.1 l 0.35,0.35 0.5,0.4 0.65,0.7 0.45,0.5 0.5,0.5 0.25,0.25 0.5,0.5 0.25,0.25 0.45,0.45 0.5,0.5 0.5,0.5 0.5,0.4 0.25,0.25 0.4,0.5 0.5,0.5 q 0.25,0 0.25,0.2 l 0.45,0.5 0.25,0.25 V 6.8 6.35 5.85 5.1 4.7 4.2 3.7 3.25 2.75 2.25 1.5 1.05 0.55 0.15 -0.3 h 17.4 v 0.45 0.4 0.5 0.45 0.75 0.5 0.5 0.45 0.5 0.5 0.4 0.75 0.5 0.45 0.5 L 40.25,7.8 V 8.05 L 40.7,7.55 40.9,6.8 41.15,6.55 41.6,6.1 42.35,5.35 42.85,4.95 43.1,4.7 43.6,4.2 44.05,3.7 44.55,3.25 45.05,2.75 45.3,2.5 45.7,2 l 0.25,-0.25 0.5,-0.5 0.95,-0.95 0.5,-0.4 0.15,-0.2 h 16.5 V 7.8 L 64.05,8.3 63.8,8.55 63.3,9 63.25,9.2 63.3,10.1 q -0.15,0.8 -0.65,1.3 -0.55,0.55 -1.3,0.65 H 60.2 l -0.05,0.05 -0.45,0.5 -0.95,1 -0.5,0.45 -0.25,0.25 -0.5,0.45 -0.25,0.2 -0.45,0.5 -0.5,0.5 -0.5,0.5 -0.5,0.5 -0.15,0.2 -0.5,0.5 -0.7,0.75 -0.5,0.5 -0.25,0.25 -0.75,0.2 -0.5,0.45 -0.2,0.25 h 0.2 0.5 0.5 l 0.5,-0.25 h 0.5 0.45 0.5 0.65 0.5 0.5 0.5 0.45 0.5 0.5 0.75 0.45 0.45 0.45 0.5 0.5 0.5 0.7 0.5 0.15 L 64.2,19.05 64.55,18.8 V 38.05 L 64.2,37.8 63.55,37.15 H 63.3 62.8 62.1 61.6 61.1 60.6 60.15 59.7 59.25 58.5 58 h -0.5 -0.45 -0.5 -0.5 -0.5 -0.65 -0.5 -0.45 -0.5 l -0.5,-0.25 h -0.5 -0.25 l 0.5,0.5 0.75,0.25 0.25,0.25 0.5,0.45 0.7,0.65 0.4,0.5 0.25,0.25 0.5,0.5 0.5,0.5 0.5,0.45 0.45,0.5 0.25,0.25 0.5,0.5 0.25,0.25 0.5,0.5 0.95,0.9 0.4,0.45 0.2,0.2 h 0.9 q 0.7,0.05 1.3,0.65 0.5,0.45 0.65,1.3 l -0.1,0.8 0.25,0.25 0.5,0.5 0.25,0.15 0.25,0.25 v 9.05 h -16.4 v -0.8 l -0.5,-0.5 -1,-1 -0.45,-0.5 -0.25,-0.2 -0.4,-0.5 -0.25,-0.25 -0.5,-0.5 -0.5,-0.4 -0.5,-0.5 -0.45,-0.5 L 43.1,51.8 42.6,51.35 41.85,50.6 41.4,50.1 41.15,49.85 40.9,49.15 40.25,48.4 v 0.25 0.5 0.45 l 0.25,0.5 v 0.5 0.5 0.5 0.7 0.5 0.5 0.4 0.5 0.5 0.45 0.75 0.5 0.5 0.45 0.35 H 23.1 V 57.35 56.9 56.4 55.9 55.15 54.7 54.2 53.7 53.3 52.8 52.3 51.6 51.1 50.6 50.1 l 0.25,-0.5 v -0.45 -0.5 -0.25 l -0.5,0.5 v 0.5 l -0.25,0.2 -0.45,0.5 -0.25,0.25 -0.5,0.5 -0.4,0.5 -0.25,0.25 -0.5,0.45 -0.5,0.5 -0.45,0.5 -0.5,0.4 -0.25,0.25 -0.5,0.5 -0.25,0.25 -0.5,0.45 -0.45,0.5 -0.65,0.75 -0.5,0.5 -0.15,0.15 v 0.9 H 0 V 47.8 L 0.05,47.75 0.35,47.4 0.3,46.5 q 0.15,-0.8 0.65,-1.3 0.55,-0.55 1.3,-0.65 h 0.9 L 3.4,44.3 3.85,43.85 4.6,43.2 5.1,42.7 5.6,42.2 5.85,41.95 6.3,41.45 6.55,41.2 l 0.4,-0.45 0.5,-0.5 0.5,-0.5 0.5,-0.5 L 8.7,39 9.15,38.6 9.65,38.15 9.9,37.9 l 0.5,-0.5 0.25,-0.25 h 0.5 l 0.2,-0.25 h -0.2 l -0.5,0.25 M 23.1,7.3 v 0.5 l 0.25,0.25 V 7.8 L 23.1,7.3"
         fill="#999999"
         fill-rule="evenodd"
         stroke="none"
         id="path4" />
      <path
         d="M 20.2,9.25 20.7,9.2 q 0.5,0.1 0.8,0.4 l 0.4,0.8 v 0.55 0.35 l 0.1,1.4 -0.05,1.2 -0.05,0.4 0.05,1.35 v 0.6 l 0.05,0.05 0.1,0.1 0.15,0.15 0.1,0.1 0.05,0.05 0.1,0.1 0.35,0.35 0.1,0.1 0.05,0.05 0.1,0.1 0.35,0.35 0.1,0.1 0.05,0.05 0.1,0.1 h 0.1 l 0.1,0.1 0.1,0.1 0.1,0.1 0.1,0.1 0.05,0.05 0.1,0.1 0.1,0.1 h 0.1 l 0.1,0.1 0.1,0.1 0.1,0.1 0.15,0.15 0.1,0.1 v 0.1 l 0.1,0.1 0.1,0.1 0.1,0.1 0.1,0.1 0.05,0.05 0.1,0.1 0.05,0.05 0.1,0.1 0.1,0.1 0.15,0.15 h 0.1 l 0.05,0.05 0.1,0.1 0.05,0.05 0.1,0.1 0.05,0.05 0.1,0.1 0.1,0.1 0.1,0.1 0.1,0.1 0.05,0.05 0.1,0.1 0.15,0.15 0.1,0.1 0.1,0.1 0.1,0.1 0.05,0.05 0.1,0.1 0.1,0.1 0.05,0.05 0.1,0.1 0.1,0.1 0.1,0.1 0.1,0.1 0.05,0.05 0.1,0.1 0.05,0.05 0.1,0.1 0.1,0.1 0.15,0.15 0.1,0.1 0.1,0.1 0.05,0.05 0.1,0.1 0.05,0.05 0.1,0.1 0.1,0.1 0.1,0.1 0.1,0.1 0.05,0.05 0.1,0.1 0.1,0.1 0.05,0.05 0.1,0.1 0.05,0.05 v -0.1 -0.1 -0.1 -0.15 -0.1 -0.1 -0.1 -0.1 -0.1 -0.1 -0.15 -0.1 -0.1 -0.1 -0.1 -0.1 -0.1 -0.15 -0.1 -0.1 -0.1 -0.1 -0.1 -0.1 -0.15 -0.1 -0.1 -0.1 -0.1 -0.1 -0.1 -0.15 -0.1 -0.1 -0.1 -0.1 -0.1 -0.1 -0.15 -0.1 -0.1 -0.1 -0.1 -0.1 -0.1 -0.15 -0.1 -0.1 -0.1 -0.1 -0.1 l 0.05,-0.1 V 18.4 18.3 18.2 18.1 18 v -0.1 -0.1 -0.15 -0.1 -0.1 -0.1 -0.1 L 30,17.15 v -0.1 -0.15 -0.1 -0.1 -0.1 -0.1 -0.1 l 0.05,-0.1 v -0.15 -0.1 -0.1 -0.1 -0.1 -0.1 -0.1 -0.15 L 30.1,15.3 V 15.2 15.1 15 l 0.05,-0.1 v -0.1 -0.35 -0.1 -0.1 -0.1 -0.1 -0.1 -0.25 -0.1 -0.1 -0.1 -0.1 -0.15 -0.1 -0.1 -0.1 L 29.7,12.4 28.75,11.45 28.6,11.35 27.55,10.4 26.65,9.3 26.5,9.15 26.05,8.7 Q 25.75,8.35 25.75,7.85 25.75,7.4 26.05,7 L 26.5,6.65 26.8,6.5 q 0.45,-0.15 0.85,0 0.45,0.1 0.95,0.6 l 0.75,0.85 2.3,2.55 h 0.1 v -0.05 h 0.1 v 0.05 h 0.1 L 34.25,7.95 35.1,7 q 0.45,-0.4 0.85,-0.5 0.4,-0.15 0.85,0 l 0.35,0.15 0.4,0.35 0.3,0.85 -0.3,0.85 -0.4,0.4 -0.2,0.2 -0.9,1.1 -0.95,0.85 -0.25,0.2 -0.95,0.95 -0.45,0.45 v 0.1 0.1 0.1 0.15 0.1 0.1 0.1 0.1 0.35 0.1 0.1 0.1 0.1 0.35 0.1 L 33.5,15 v 0.1 0.1 0.1 l 0.05,0.1 v 0.15 0.1 0.1 0.1 0.1 0.1 0.1 0.15 l 0.05,0.1 v 0.1 0.1 0.1 0.1 0.1 0.15 0.1 l -0.05,0.1 v 0.1 0.1 0.1 0.1 0.15 0.1 0.1 0.1 0.1 0.1 0.1 0.15 l 0.05,0.1 v 0.1 0.1 0.1 0.1 0.1 0.15 0.1 0.1 0.1 0.1 0.1 0.1 0.15 0.1 0.1 0.1 0.1 0.1 0.1 0.15 0.1 0.1 0.1 0.1 0.1 0.1 0.15 0.1 0.1 0.1 0.1 0.1 0.1 0.15 0.1 0.1 0.1 0.1 0.1 0.1 0.15 0.1 0.1 0.1 0.1 0.1 0.1 0.15 0.1 0.1 0.1 l -0.05,0.1 v 0.05 l 0.1,-0.1 0.05,-0.15 0.05,-0.05 0.1,-0.1 0.15,-0.15 0.1,-0.1 0.05,-0.05 0.1,-0.1 0.1,-0.1 0.1,-0.1 0.1,-0.1 0.05,-0.05 0.1,-0.1 0.05,-0.05 0.1,-0.1 0.2,-0.2 0.1,-0.1 0.05,-0.05 0.1,-0.1 0.05,-0.05 0.1,-0.1 0.05,-0.05 0.1,-0.1 0.1,-0.05 0.05,-0.1 0.05,-0.05 0.1,-0.1 0.05,-0.05 0.1,-0.1 0.1,-0.1 0.05,-0.05 0.1,-0.1 0.1,-0.1 0.1,-0.1 0.15,-0.15 0.1,-0.1 0.05,-0.05 0.1,-0.1 0.1,-0.1 0.1,-0.1 0.1,-0.1 0.05,-0.05 0.1,-0.1 0.05,-0.05 0.1,-0.1 0.05,-0.05 h 0.1 L 37.8,20 l 0.1,-0.1 0.1,-0.1 0.05,-0.05 0.1,-0.1 0.05,-0.05 0.1,-0.1 0.1,-0.1 0.1,-0.1 0.1,-0.1 v -0.1 l 0.1,-0.1 0.15,-0.15 0.1,-0.1 0.1,-0.1 0.1,-0.1 h 0.1 l 0.1,-0.1 0.1,-0.1 0.05,-0.05 0.1,-0.1 0.1,-0.1 0.1,-0.1 0.1,-0.1 H 40 l 0.1,-0.1 0.05,-0.05 0.1,-0.1 0.1,-0.1 0.1,-0.1 0.3,-0.3 0.1,-0.1 0.35,-0.35 0.1,-0.1 0.05,-0.05 0.1,-0.1 0.15,-0.15 0.1,-0.1 0.05,-0.05 v -0.6 L 41.8,14.2 v -0.3 l -0.1,-1.3 0.1,-1.4 V 10.9 10.3 Q 41.85,9.85 42.2,9.5 42.5,9.2 43,9.1 l 0.5,0.05 0.4,0.15 0.6,0.6 0.25,1 -0.1,1.25 -0.15,3.45 0.05,0.05 0.05,-0.05 0.05,0.05 -0.05,0.05 0.1,0.1 3.4,-0.2 1.25,-0.05 1,0.2 0.6,0.6 0.15,0.35 0.05,0.55 -0.4,0.8 q -0.35,0.35 -0.8,0.4 h -0.7 -0.2 L 47.7,18.6 46.4,18.55 46.1,18.5 h -1.4 -0.6 l -0.05,0.05 -0.1,0.1 -0.15,0.15 -0.1,0.1 -0.05,0.05 -0.1,0.1 -0.35,0.35 -0.1,0.1 -0.3,0.3 -0.1,0.1 -0.05,0.05 v 0.1 l -0.1,0.1 -0.05,0.05 -0.1,0.1 -0.05,0.05 -0.1,0.1 -0.1,0.1 -0.1,0.1 -0.1,0.1 -0.05,0.05 -0.1,0.1 -0.1,0.1 v 0.1 l -0.1,0.1 -0.1,0.1 -0.1,0.1 -0.15,0.15 -0.1,0.1 h -0.1 l -0.1,0.1 -0.1,0.1 -0.1,0.1 -0.1,0.1 -0.05,0.05 -0.1,0.1 -0.05,0.05 -0.1,0.1 -0.1,0.1 -0.15,0.15 v 0.1 l -0.05,0.05 -0.1,0.1 -0.05,0.05 -0.1,0.1 -0.05,0.05 -0.1,0.1 -0.1,0.1 -0.1,0.1 -0.1,0.1 -0.05,0.05 -0.1,0.1 -0.15,0.15 -0.1,0.1 -0.1,0.1 -0.1,0.1 -0.05,0.05 -0.1,0.1 -0.1,0.1 -0.05,0.05 -0.1,0.1 -0.05,0.05 -0.05,0.1 -0.1,0.05 -0.1,0.1 -0.05,0.05 -0.1,0.1 -0.05,0.05 -0.1,0.1 -0.05,0.05 -0.1,0.1 -0.2,0.2 -0.1,0.1 -0.05,0.05 -0.1,0.1 -0.05,0.05 -0.1,0.1 -0.1,0.1 -0.1,0.1 -0.1,0.1 -0.05,0.05 -0.1,0.1 -0.15,0.15 -0.1,0.1 -0.05,0.05 -0.15,0.05 -0.1,0.1 -0.05,0.05 h 0.05 0.1 0.1 l 0.1,-0.05 h 0.1 0.1 0.1 0.15 0.1 0.1 0.1 0.1 0.1 0.1 0.15 0.1 0.1 0.1 0.1 0.1 0.1 0.15 0.1 0.1 0.1 0.1 0.1 0.1 0.15 0.1 0.1 0.1 0.1 0.1 0.1 0.15 0.1 0.1 0.1 0.1 0.1 0.1 0.15 0.1 0.1 0.1 0.1 0.1 0.1 0.15 0.1 0.1 0.1 0.1 0.1 l 0.1,0.05 h 0.15 0.1 0.1 0.1 0.1 0.1 0.1 0.15 0.1 0.1 0.1 0.1 l 0.1,-0.05 h 0.1 0.15 0.1 0.1 0.1 0.1 0.1 l 0.1,0.05 h 0.15 0.1 0.1 0.1 0.1 0.1 0.1 0.15 l 0.1,0.05 h 0.1 0.1 0.1 l 0.1,0.05 h 0.1 0.1 0.35 0.1 0.1 0.1 0.1 0.35 0.1 0.1 0.1 0.15 0.1 0.1 0.1 L 48,26.4 l 0.95,-0.95 0.2,-0.2 0.85,-1 1.1,-0.9 0.15,-0.15 0.45,-0.45 q 0.35,-0.3 0.85,-0.3 0.45,0 0.85,0.3 l 0.4,0.45 0.1,0.3 v 0.85 l -0.55,0.9 -0.9,0.8 -2.55,2.3 v 0.1 h 0.05 v 0.1 H 49.9 v 0.1 l 2.55,2.3 0.9,0.8 0.55,0.9 v 0.85 l -0.15,0.35 -0.35,0.4 -0.85,0.3 -0.85,-0.3 -0.4,-0.4 -0.2,-0.2 -1.1,-0.9 -0.85,-1 -0.2,-0.2 L 48,30.6 47.55,30.15 h -0.1 -0.1 -0.1 -0.15 -0.1 -0.1 -0.1 -0.35 -0.1 -0.1 -0.1 -0.1 -0.35 -0.1 -0.1 L 45.4,30.2 H 45.3 45.2 45.1 L 45,30.25 h -0.15 -0.1 -0.1 -0.1 -0.1 -0.1 -0.1 -0.15 L 44,30.3 h -0.1 -0.1 -0.1 -0.1 -0.1 -0.15 -0.1 l -0.1,-0.05 h -0.1 -0.1 -0.1 -0.1 H 42.6 42.5 42.4 42.3 42.2 42.1 42 41.85 l -0.1,0.05 h -0.1 -0.1 -0.1 -0.1 -0.1 -0.15 -0.1 -0.1 -0.1 -0.1 -0.1 -0.1 -0.15 -0.1 -0.1 -0.1 -0.1 -0.1 -0.1 -0.15 -0.1 -0.1 -0.1 -0.1 -0.1 -0.1 -0.15 -0.1 -0.1 -0.1 -0.1 -0.1 -0.1 -0.15 -0.1 -0.1 -0.1 -0.1 -0.1 -0.1 -0.15 -0.1 -0.1 -0.1 -0.1 -0.1 -0.1 -0.15 -0.1 -0.1 -0.1 l -0.1,-0.05 h -0.1 -0.05 l 0.1,0.1 0.15,0.05 0.05,0.05 0.1,0.1 0.15,0.15 0.1,0.1 0.05,0.05 0.1,0.1 0.1,0.1 0.1,0.1 0.1,0.1 0.05,0.05 0.1,0.1 0.05,0.05 0.1,0.1 0.2,0.2 0.1,0.1 0.05,0.05 0.1,0.1 0.05,0.05 0.1,0.1 0.05,0.05 0.1,0.1 0.1,0.05 0.05,0.1 0.05,0.05 0.1,0.1 0.05,0.05 0.1,0.1 0.1,0.1 0.05,0.05 0.1,0.1 0.1,0.1 0.1,0.1 0.15,0.15 0.1,0.1 0.05,0.05 0.1,0.1 0.1,0.1 0.1,0.1 0.1,0.1 0.05,0.05 0.1,0.1 0.05,0.05 0.1,0.1 0.05,0.05 v 0.1 l 0.15,0.15 0.1,0.1 0.1,0.1 0.05,0.05 0.1,0.1 0.05,0.05 0.1,0.1 0.1,0.1 0.1,0.1 0.1,0.1 h 0.1 l 0.1,0.1 0.15,0.15 0.1,0.1 0.1,0.1 0.1,0.1 v 0.1 l 0.1,0.1 0.1,0.1 0.05,0.05 0.1,0.1 0.1,0.1 0.1,0.1 0.1,0.1 v 0.1 l 0.1,0.1 0.05,0.05 0.1,0.1 0.1,0.1 0.1,0.1 0.3,0.3 0.1,0.1 0.35,0.35 0.1,0.1 0.05,0.05 0.1,0.1 0.15,0.15 0.1,0.1 0.05,0.05 h 0.6 l 1.35,0.05 h 0.4 l 1.2,-0.1 1.4,0.1 H 49.45 50 q 0.45,0.05 0.8,0.4 l 0.4,0.8 -0.05,0.5 -0.15,0.4 -0.6,0.6 -0.95,0.25 -1.3,-0.1 -3.45,-0.15 -0.05,0.05 0.05,0.05 -0.05,0.05 -0.05,-0.05 -0.1,0.1 0.2,3.4 0.1,1.2 -0.25,1.05 -0.6,0.6 -0.25,0.15 -0.65,0.05 q -0.5,-0.1 -0.8,-0.4 -0.35,-0.35 -0.4,-0.8 v -0.7 -0.2 L 41.7,44.4 41.8,43 v -0.2 -1.4 -0.6 l -0.05,-0.05 -0.1,-0.1 -0.15,-0.15 -0.1,-0.1 -0.05,-0.05 -0.1,-0.1 -0.35,-0.35 -0.1,-0.1 -0.3,-0.3 -0.1,-0.1 -0.05,-0.05 h -0.1 l -0.1,-0.1 -0.05,-0.05 -0.1,-0.1 -0.05,-0.05 -0.1,-0.1 -0.1,-0.1 -0.1,-0.1 -0.1,-0.1 -0.05,-0.05 -0.1,-0.1 -0.1,-0.1 h -0.1 l -0.1,-0.1 -0.1,-0.1 -0.1,-0.1 -0.15,-0.15 -0.1,-0.1 v -0.1 l -0.1,-0.1 -0.1,-0.1 -0.1,-0.1 -0.1,-0.1 -0.05,-0.05 -0.1,-0.1 -0.05,-0.05 -0.1,-0.1 -0.1,-0.1 -0.15,-0.15 h -0.1 l -0.05,-0.05 -0.1,-0.1 -0.05,-0.05 -0.1,-0.1 -0.05,-0.05 -0.1,-0.1 -0.1,-0.1 -0.1,-0.1 -0.1,-0.1 -0.05,-0.05 -0.1,-0.1 -0.15,-0.15 -0.1,-0.1 -0.1,-0.1 -0.1,-0.1 L 36.2,35.4 36.1,35.3 36,35.2 35.95,35.15 35.85,35.05 35.8,35 35.75,34.9 35.65,34.85 35.55,34.75 35.5,34.7 35.4,34.6 35.35,34.55 35.25,34.45 35.2,34.4 35.1,34.3 34.9,34.1 34.8,34 34.75,33.95 34.65,33.85 34.6,33.8 34.5,33.7 34.4,33.6 34.3,33.5 34.2,33.4 34.15,33.35 34.05,33.25 33.9,33.1 33.8,33 33.75,32.95 33.7,32.8 33.55,32.65 v 0.05 0.1 0.1 L 33.6,33 v 0.1 0.1 0.1 0.15 0.1 0.1 0.1 0.1 0.1 0.1 0.15 0.1 0.1 0.1 0.1 0.1 0.1 0.15 0.1 0.1 0.1 0.1 0.1 0.1 0.15 0.1 0.1 0.1 0.1 0.1 0.1 0.15 0.1 0.1 0.1 0.1 0.1 0.1 0.15 0.1 0.1 0.1 0.1 0.1 0.1 0.15 0.1 0.1 0.1 0.1 0.1 l -0.05,0.1 v 0.15 0.1 0.1 0.1 0.1 0.1 0.1 0.15 0.1 0.1 0.1 0.1 l 0.05,0.1 v 0.1 0.15 0.1 0.1 0.1 0.1 0.1 l -0.05,0.1 v 0.15 0.1 0.1 0.1 0.1 0.1 0.1 0.15 l -0.05,0.1 v 0.1 0.1 0.1 l -0.05,0.1 v 0.1 0.1 0.35 0.1 0.1 0.1 0.1 0.35 0.1 0.1 0.1 0.15 0.1 0.1 0.1 l 0.45,0.45 0.95,0.95 0.25,0.25 0.95,0.8 0.9,1.1 0.2,0.2 0.4,0.4 0.3,0.85 -0.3,0.85 -0.4,0.35 -0.35,0.15 h -0.85 q -0.4,-0.1 -0.85,-0.5 l -0.85,-0.95 -2.3,-2.55 h -0.1 v 0.05 h -0.1 V 46.6 h -0.1 L 29.35,49.15 28.6,50 q -0.5,0.5 -0.95,0.6 H 26.8 l -0.3,-0.1 -0.45,-0.4 q -0.3,-0.4 -0.3,-0.85 0,-0.5 0.3,-0.85 l 0.45,-0.45 0.15,-0.15 0.9,-1.1 1.05,-0.9 0.15,-0.15 0.95,-0.95 0.45,-0.45 v -0.1 -0.1 -0.1 -0.15 -0.1 -0.1 -0.1 -0.35 -0.1 -0.1 -0.1 -0.1 -0.35 -0.1 -0.1 L 30.1,42.1 V 42 41.9 41.8 l -0.05,-0.1 v -0.15 -0.1 -0.1 -0.1 -0.1 -0.1 -0.1 -0.15 L 30,40.7 v -0.1 -0.1 -0.1 -0.1 -0.1 -0.15 -0.1 l 0.05,-0.1 v -0.1 -0.1 -0.1 -0.1 V 39.3 39.2 39.1 39 38.9 38.8 38.7 38.55 L 30,38.45 v -0.1 -0.1 -0.1 -0.1 -0.1 -0.15 -0.1 -0.1 -0.1 -0.1 -0.1 -0.1 -0.15 -0.1 -0.1 -0.1 -0.1 -0.1 -0.1 -0.15 -0.1 -0.1 -0.1 -0.1 -0.1 -0.1 -0.15 -0.1 -0.1 -0.1 -0.1 -0.1 -0.1 -0.15 -0.1 -0.1 -0.1 -0.1 -0.1 -0.1 -0.15 -0.1 -0.1 -0.1 -0.1 -0.1 -0.1 V 33.3 33.2 33.1 33 l 0.05,-0.1 v -0.1 -0.1 -0.05 l -0.1,0.1 v 0.1 l -0.05,0.05 -0.1,0.1 -0.05,0.05 -0.1,0.1 -0.1,0.1 -0.05,0.05 -0.1,0.1 -0.1,0.1 -0.1,0.1 -0.1,0.1 -0.05,0.05 -0.1,0.1 -0.05,0.05 -0.1,0.1 -0.1,0.1 -0.15,0.15 -0.1,0.1 -0.1,0.1 -0.05,0.05 -0.1,0.1 -0.05,0.05 -0.1,0.1 -0.1,0.1 -0.1,0.1 -0.1,0.1 -0.05,0.05 -0.1,0.1 -0.1,0.1 -0.05,0.05 -0.1,0.1 -0.1,0.1 -0.1,0.1 -0.15,0.15 -0.1,0.1 -0.05,0.05 -0.1,0.1 -0.1,0.1 -0.1,0.1 -0.1,0.1 -0.05,0.05 -0.1,0.1 -0.05,0.05 -0.1,0.1 -0.05,0.05 H 26 l -0.15,0.15 -0.1,0.1 -0.1,0.1 -0.05,0.05 -0.1,0.1 -0.05,0.05 -0.1,0.1 -0.1,0.1 -0.1,0.1 -0.1,0.1 v 0.1 l -0.1,0.1 -0.15,0.15 -0.1,0.1 -0.1,0.1 -0.1,0.1 h -0.1 l -0.1,0.1 -0.1,0.1 -0.05,0.05 -0.1,0.1 -0.1,0.1 -0.1,0.1 -0.1,0.1 -0.05,0.05 -0.1,0.1 -0.05,0.05 -0.1,0.1 h -0.1 l -0.3,0.3 -0.1,0.1 -0.05,0.05 -0.1,0.1 -0.05,0.05 -0.1,0.1 -0.2,0.2 -0.1,0.1 -0.05,0.05 -0.1,0.1 -0.15,0.15 -0.1,0.1 -0.05,0.05 v 0.6 1.4 l 0.05,0.3 0.05,1.3 -0.15,1.35 v 0.25 0.65 l -0.4,0.8 q -0.3,0.3 -0.8,0.4 l -0.6,-0.05 -0.3,-0.15 -0.6,-0.6 -0.2,-1 L 19,44.7 19.2,41.3 19.1,41.2 19.05,41.25 19,41.2 19.05,41.15 19,41.1 l -3.45,0.15 -1.25,0.1 -1,-0.25 -0.6,-0.6 -0.15,-0.35 -0.05,-0.55 0.4,-0.8 q 0.35,-0.35 0.8,-0.4 h 0.55 0.35 l 1.4,-0.1 1.3,0.1 h 0.3 l 1.35,-0.05 h 0.6 l 0.05,-0.05 0.1,-0.1 0.15,-0.15 0.1,-0.1 0.05,-0.05 0.1,-0.1 0.35,-0.35 0.1,-0.1 0.05,-0.05 0.1,-0.1 0.35,-0.35 0.1,-0.1 0.05,-0.05 0.1,-0.1 v -0.1 l 0.1,-0.1 0.1,-0.1 0.1,-0.1 0.1,-0.1 0.05,-0.05 0.1,-0.1 0.1,-0.1 v -0.1 l 0.1,-0.1 0.1,-0.1 0.1,-0.1 0.15,-0.15 0.1,-0.1 h 0.1 l 0.1,-0.1 0.1,-0.1 0.1,-0.1 0.1,-0.1 0.05,-0.05 0.1,-0.1 0.05,-0.05 0.1,-0.1 0.1,-0.1 0.15,-0.15 v -0.1 l 0.05,-0.05 0.1,-0.1 0.05,-0.05 0.1,-0.1 0.05,-0.05 0.1,-0.1 0.1,-0.1 0.1,-0.1 0.1,-0.1 0.05,-0.05 0.1,-0.1 0.15,-0.15 0.1,-0.1 0.1,-0.1 0.1,-0.1 0.05,-0.05 0.1,-0.1 0.1,-0.1 0.05,-0.05 0.1,-0.1 0.1,-0.1 0.1,-0.1 0.1,-0.1 0.05,-0.05 0.1,-0.1 0.05,-0.05 0.1,-0.1 0.1,-0.1 0.15,-0.15 0.1,-0.1 0.1,-0.1 0.05,-0.05 0.1,-0.1 0.05,-0.05 0.1,-0.1 0.1,-0.1 0.1,-0.1 0.1,-0.1 0.05,-0.05 0.1,-0.1 0.1,-0.1 0.05,-0.05 0.1,-0.1 0.05,-0.05 h -0.1 -0.1 -0.1 -0.15 -0.1 -0.1 -0.1 -0.1 -0.1 -0.1 -0.15 -0.1 -0.1 -0.1 -0.1 -0.1 -0.1 -0.15 -0.1 -0.1 -0.1 -0.1 -0.1 -0.1 -0.15 -0.1 -0.1 -0.1 -0.1 -0.1 -0.1 -0.15 -0.1 -0.1 -0.1 -0.1 -0.1 -0.1 -0.15 -0.1 -0.1 -0.1 -0.1 -0.1 -0.1 -0.15 -0.1 -0.1 -0.1 -0.1 -0.1 l -0.1,-0.05 h -0.15 -0.1 -0.1 -0.1 -0.1 -0.1 -0.1 -0.15 -0.1 -0.1 -0.1 -0.1 l -0.1,0.05 H 20.35 20.2 20.1 20 19.9 19.8 19.7 l -0.1,-0.05 h -0.15 -0.1 -0.1 -0.1 -0.1 -0.1 -0.1 -0.15 L 18.6,30.2 h -0.1 -0.1 -0.1 l -0.1,-0.05 h -0.1 -0.35 -0.1 -0.1 -0.1 -0.1 -0.1 -0.25 -0.1 -0.1 -0.1 -0.1 -0.15 -0.1 -0.1 -0.1 l -0.45,0.45 -0.95,0.95 -0.15,0.2 -0.9,1 -1.1,0.9 -0.2,0.2 -0.4,0.4 -0.85,0.3 L 10.3,34.25 9.95,33.85 9.8,33.5 q -0.15,-0.45 0,-0.85 0.1,-0.4 0.55,-0.9 l 0.9,-0.8 2.55,-2.3 v -0.1 h -0.05 v -0.1 h 0.05 v -0.1 l -2.55,-2.3 -0.9,-0.8 Q 9.9,24.75 9.8,24.35 9.65,23.95 9.8,23.5 l 0.15,-0.3 q 0.1,-0.3 0.35,-0.45 0.4,-0.3 0.85,-0.3 0.5,0 0.85,0.3 l 0.45,0.45 0.15,0.15 1.1,0.9 0.9,1 0.15,0.2 0.95,0.95 0.45,0.45 h 0.1 0.1 0.1 0.15 0.1 0.1 0.1 0.1 0.35 0.1 0.1 0.1 0.1 0.35 0.1 l 0.1,-0.05 h 0.1 0.1 0.1 l 0.1,-0.05 h 0.15 0.1 0.1 0.1 0.1 0.1 0.1 0.15 l 0.1,-0.05 h 0.1 0.1 0.1 0.1 0.1 0.15 0.1 l 0.1,0.05 h 0.1 0.1 0.1 0.1 0.15 0.1 0.1 0.1 0.1 0.1 0.1 0.15 l 0.1,-0.05 h 0.1 0.1 0.1 0.1 0.1 0.15 0.1 0.1 0.1 0.1 0.1 0.1 0.15 0.1 0.1 0.1 0.1 0.1 0.1 0.15 0.1 0.1 0.1 0.1 0.1 0.1 0.15 0.1 0.1 0.1 0.1 0.1 0.1 0.15 0.1 0.1 0.1 0.1 0.1 0.1 0.15 0.1 0.1 0.1 0.1 0.1 0.1 0.15 0.1 0.1 0.1 l 0.1,0.05 h 0.1 0.05 l -0.1,-0.1 h -0.1 L 27.4,26.6 27.3,26.5 27.25,26.45 27.15,26.35 27.05,26.25 27,26.2 26.9,26.1 26.8,26 l -0.1,-0.1 -0.1,-0.1 -0.05,-0.05 -0.1,-0.1 -0.05,-0.05 -0.1,-0.1 -0.1,-0.1 -0.15,-0.15 -0.1,-0.1 -0.1,-0.1 -0.05,-0.05 -0.1,-0.1 -0.05,-0.05 -0.1,-0.1 -0.1,-0.1 -0.1,-0.1 -0.1,-0.1 -0.05,-0.05 -0.1,-0.1 -0.1,-0.1 -0.05,-0.05 -0.1,-0.1 -0.1,-0.1 -0.1,-0.1 -0.15,-0.15 -0.1,-0.1 -0.05,-0.05 -0.1,-0.1 -0.1,-0.1 -0.1,-0.1 -0.1,-0.1 L 23.9,23.1 23.8,23 23.75,22.95 23.65,22.85 23.6,22.8 v -0.1 l -0.15,-0.15 -0.1,-0.1 -0.1,-0.1 -0.05,-0.05 -0.1,-0.1 -0.05,-0.05 -0.1,-0.1 -0.1,-0.1 -0.1,-0.1 -0.1,-0.1 h -0.1 L 22.45,21.65 22.3,21.5 22.2,21.4 22.1,21.3 22,21.2 v -0.1 l -0.1,-0.1 -0.1,-0.1 -0.05,-0.05 -0.1,-0.1 -0.1,-0.1 -0.1,-0.1 -0.1,-0.1 -0.05,-0.05 -0.1,-0.1 -0.05,-0.05 -0.1,-0.1 v -0.1 l -0.3,-0.3 -0.1,-0.1 -0.05,-0.05 -0.1,-0.1 -0.05,-0.05 -0.1,-0.1 -0.2,-0.2 -0.1,-0.1 L 20,19 19.9,18.9 19.75,18.75 19.65,18.65 19.6,18.6 H 19 17.6 L 17.4,18.65 16,18.7 14.65,18.55 h -0.2 -0.7 q -0.45,-0.05 -0.8,-0.4 l -0.4,-0.8 0.1,-0.6 0.1,-0.3 0.6,-0.6 1.1,-0.2 1.15,0.05 3.4,0.2 0.1,-0.1 -0.05,-0.05 0.05,-0.05 0.05,0.05 0.05,-0.05 -0.15,-3.45 -0.1,-1.3 Q 19,10.35 19.2,10 L 19.8,9.4 20.2,9.25 M 30,24.1 v 0.1 l 0.05,0.05 V 24.2 L 30,24.1 m -2.6,6.2 h 0.1 l 0.05,-0.05 H 27.5 l -0.1,0.05"
         fill="#000000"
         fill-rule="evenodd"
         stroke="none"
         id="path5" />
      <path
         d="m 8.85,-0.3 h 5.25 v 0.25 l -0.15,2.9 0.1,0.55 v 1.9 1.1 l 0.05,0.05 0.2,0.2 0.25,0.25 0.2,0.2 0.1,0.1 0.15,0.15 0.65,0.65 0.2,0.2 0.1,0.05 0.15,0.2 0.65,0.65 0.15,0.15 0.1,0.1 0.2,0.2 h 0.15 l 0.2,0.15 0.2,0.2 0.15,0.2 0.2,0.15 0.1,0.1 0.15,0.2 0.2,0.15 h 0.2 l 0.15,0.2 0.05,0.05 0.1,1.3 0.15,3.45 -0.05,0.05 L 19.1,15.7 19.05,15.75 19.1,15.8 19,15.9 15.6,15.7 14.45,15.65 14.3,15.5 14.1,15.3 v -0.15 l -0.15,-0.2 -0.2,-0.15 -0.1,-0.1 -0.15,-0.2 -0.2,-0.15 -0.15,-0.2 -0.2,-0.2 -0.1,-0.05 -0.2,-0.2 -0.05,-0.1 -0.2,-0.15 v -0.2 L 11.85,12.7 11.7,12.5 11.6,12.45 11.4,12.25 11.3,12.15 11.15,12 10.8,11.6 10.6,11.45 10.5,11.35 10.3,11.15 10.05,10.9 9.85,10.7 9.8,10.6 H 8.7 6.8 6.15 l -2.9,0.2 -2.4,-0.25 H 0 V 5.3 h 1.55 l 1,0.1 L 8.7,5.75 8.9,5.55 8.8,5.45 8.9,5.4 8.95,5.45 9.05,5.4 8.85,-0.3 m 19.5,0 h 7 L 34.8,0.25 V 0.4 0.6 0.75 1.05 1.2 1.4 1.6 1.75 2.4 2.6 2.75 2.95 3.1 3.75 3.95 L 34.9,4.1 V 4.3 4.5 4.65 L 35,4.85 V 5.1 5.3 5.45 5.65 5.85 6 6.2 6.45 l 0.1,0.2 V 6.85 7 l -0.85,0.95 -2.3,2.55 h -0.1 v -0.05 h -0.1 v 0.05 h -0.1 L 29.35,7.95 28.6,7.1 V 7 6.85 6.65 l 0.05,-0.2 V 6.2 6 5.85 5.65 5.45 5.3 5.1 4.85 l 0.1,-0.2 V 4.5 4.3 4.1 l 0.1,-0.15 V 3.75 3.1 2.95 2.75 2.6 2.4 2.2 1.75 1.6 1.4 1.2 1.05 0.75 0.6 0.4 0.25 L 28.35,-0.3 M 49.85,3.1 49.9,2.65 49.75,-0.2 49.8,-0.3 h 5.25 l -0.25,5.5 0.1,0.1 0.05,-0.1 0.1,0.1 -0.1,0.1 0.2,0.15 6.15,-0.35 1.05,-0.1 2.2,0.1 v 5.15 H 63 L 60.6,10.6 57.7,10.45 H 57 55.15 54.05 l -0.05,0.1 -0.2,0.15 -0.25,0.3 -0.2,0.15 -0.1,0.1 -0.15,0.2 -0.65,0.6 -0.2,0.2 -0.55,0.55 -0.15,0.15 -0.1,0.1 v 0.2 l -0.2,0.2 -0.05,0.05 -0.2,0.2 -0.1,0.1 -0.15,0.15 -0.2,0.2 -0.2,0.2 -0.15,0.15 -0.1,0.1 -0.2,0.2 -0.15,0.15 v 0.2 l -0.2,0.15 -0.2,0.25 -1.25,0.05 -3.4,0.2 -0.1,-0.1 0.05,-0.05 -0.05,-0.05 -0.05,0.05 -0.05,-0.05 0.15,-3.45 0.1,-1.25 0.2,-0.2 0.15,-0.15 h 0.2 l 0.2,-0.2 0.15,-0.2 0.1,-0.05 0.2,-0.2 0.15,-0.2 0.2,-0.15 0.2,-0.2 h 0.15 L 46.85,9.2 46.95,9.1 47.1,8.9 47.3,8.75 47.45,8.55 48,8 48.2,7.8 48.85,7.2 49,7 49.1,6.9 49.3,6.75 49.55,6.45 49.75,6.3 49.8,6.2 V 5.1 l 0.05,-2 M 62.5,23.35 62.85,23 l 1.7,-1.9 v 7.15 0.2 0.15 0.2 7.2 L 62.85,34.05 62.5,33.7 61.1,32.3 60.3,31.5 h -0.15 -0.2 -0.2 -0.25 -0.2 -0.15 -0.2 -0.65 -0.15 -0.2 -0.15 -0.2 -0.65 -0.15 -0.2 l -0.2,0.1 h -0.15 -0.2 -0.15 l -0.2,0.1 h -0.25 -0.2 -0.2 -0.15 -0.2 -0.2 -0.15 -0.3 l -0.15,0.05 h -0.2 -0.15 -0.2 l -0.9,-0.8 -2.55,-2.3 v -0.1 h 0.05 v -0.1 H 49.9 v -0.1 l 2.55,-2.3 0.9,-0.8 h 0.2 0.15 0.2 l 0.15,0.1 h 0.3 0.15 0.2 0.2 0.15 0.2 0.2 0.25 l 0.2,0.1 h 0.15 0.2 0.15 l 0.2,0.1 h 0.2 0.15 0.65 0.2 0.15 0.2 0.15 0.65 0.2 0.15 0.2 0.25 0.2 0.2 0.15 l 0.8,-0.85 1.4,-1.35 m -5.3,23.2 0.5,0.05 2.9,-0.2 2.5,0.2 h 1.45 v 5.25 l -2,0.05 -1.15,-0.15 -6.25,-0.25 -0.1,0.05 0.1,0.1 -0.1,0.1 -0.1,-0.1 -0.15,0.2 0.35,5.85 h -5.3 l -0.1,-0.45 0.15,-2.9 v -0.65 -1.85 -1.1 l -0.1,-0.1 -0.15,-0.15 -0.3,-0.3 -0.15,-0.15 -0.1,-0.1 -0.2,-0.2 -0.6,-0.6 -0.2,-0.2 -0.55,-0.55 -0.15,-0.2 -0.1,-0.05 h -0.2 l -0.15,-0.2 -0.1,-0.1 -0.2,-0.15 -0.1,-0.1 -0.15,-0.2 -0.2,-0.15 -0.15,-0.2 -0.2,-0.2 -0.1,-0.05 -0.2,-0.2 -0.15,-0.2 h -0.2 l -0.15,-0.15 -0.2,-0.2 -0.05,-0.05 -0.1,-1.2 -0.2,-3.4 0.1,-0.1 0.05,0.05 0.05,-0.05 -0.05,-0.05 0.05,-0.05 3.45,0.15 1.3,0.1 0.2,0.2 0.15,0.15 V 42 l 0.2,0.15 0.2,0.2 0.05,0.1 0.2,0.15 0.2,0.2 0.15,0.2 0.2,0.15 v 0.2 l 0.2,0.15 0.05,0.1 0.2,0.2 0.2,0.2 0.15,0.15 0.55,0.55 0.2,0.2 0.6,0.6 0.2,0.2 0.1,0.1 0.15,0.15 0.3,0.3 0.15,0.15 0.1,0.1 h 1.1 l 1.95,0.05 M 35.55,57.7 h -7.4 L 28.85,57 V 56.8 56.65 56.45 56.2 56 55.8 55.65 55 54.8 54.65 54.45 54.3 53.65 53.45 53.3 l -0.1,-0.2 v -0.2 -0.15 -0.2 l -0.1,-0.15 v -0.3 -0.15 -0.2 -0.2 -0.15 -0.2 -0.15 -0.3 L 28.6,50.55 V 50.4 50.2 50.05 50 l 0.75,-0.85 2.3,-2.55 h 0.1 v 0.05 h 0.1 V 46.6 h 0.1 l 2.3,2.55 0.85,0.95 v 0.1 0.2 0.15 l -0.1,0.2 v 0.3 0.15 0.2 0.15 0.2 0.2 0.15 0.3 l -0.1,0.15 v 0.2 0.15 0.2 l -0.1,0.2 v 0.15 0.2 0.65 0.15 0.2 0.15 0.2 0.65 0.15 0.2 0.2 0.25 0.2 0.15 0.2 l 0.75,0.7 m -21.6,-4.25 v 0.75 l 0.15,2.9 -0.05,0.6 H 8.7 L 9.05,51.65 8.9,51.5 8.8,51.55 8.7,51.5 8.8,51.4 8.7,51.3 2.45,51.55 1.3,51.7 0,51.75 V 46.4 h 0.75 l 2.5,-0.15 2.9,0.15 h 0.5 L 8.6,46.35 h 1.1 l 0.1,-0.1 0.15,-0.2 0.3,-0.25 0.15,-0.2 0.1,-0.1 0.2,-0.15 0.6,-0.65 0.2,-0.2 0.1,-0.05 0.15,-0.2 0.65,-0.65 0.2,-0.15 0.05,-0.1 0.2,-0.2 V 43 l 0.2,-0.2 0.15,-0.2 0.2,-0.15 0.2,-0.2 0.05,-0.1 0.2,-0.15 0.2,-0.2 v -0.15 l 0.15,-0.2 0.1,-0.1 1.25,-0.1 3.45,-0.15 0.05,0.05 -0.05,0.05 0.05,0.05 0.05,-0.05 0.1,0.1 -0.2,3.4 -0.05,1.25 -0.15,0.1 -0.15,0.2 h -0.2 l -0.15,0.15 -0.2,0.2 -0.1,0.1 -0.15,0.15 -0.2,0.2 -0.2,0.2 -0.15,0.15 -0.1,0.1 -0.2,0.2 -0.1,0.05 -0.15,0.2 h -0.2 L 16,48.5 l -0.15,0.2 -0.1,0.05 -0.2,0.2 -0.05,0.1 -0.2,0.15 -0.35,0.4 -0.2,0.15 -0.1,0.1 -0.15,0.2 -0.3,0.25 -0.15,0.2 -0.1,0.05 v 1.1 1.8 M 1.35,33.7 1,34.05 0,35.2 V 21.9 l 1,1.1 0.35,0.35 1.4,1.35 0.8,0.85 h 0.2 0.15 0.2 0.25 0.2 0.15 0.2 0.2 0.6 0.2 0.2 0.15 0.2 0.6 0.2 l 0.2,-0.1 H 7.6 7.8 7.95 l 0.2,-0.1 h 0.3 0.15 0.2 0.15 0.2 0.2 0.15 0.3 l 0.15,-0.1 h 0.2 0.15 0.05 l 0.9,0.8 2.55,2.3 v 0.1 h -0.05 v 0.1 h 0.05 v 0.1 l -2.55,2.3 -0.9,0.8 H 10.3 10.15 9.95 L 9.8,31.7 H 9.5 9.35 9.15 8.95 8.8 8.6 8.45 8.15 L 7.95,31.6 H 7.8 7.6 7.45 L 7.25,31.5 H 7.05 6.45 6.25 6.1 5.9 5.7 5.55 5.1 4.9 4.7 4.55 4.35 4.1 3.9 3.75 3.55 l -0.8,0.8 -1.4,1.4 m 47.8,-8.45 -0.2,0.2 -0.95,0.95 -0.45,0.45 h -0.1 -0.1 -0.1 -0.15 -0.1 -0.1 -0.1 -0.35 -0.1 -0.1 -0.1 -0.1 -0.35 -0.1 -0.1 L 45.4,26.8 H 45.3 45.2 45.1 L 45,26.75 h -0.15 -0.1 -0.1 -0.1 -0.1 -0.1 -0.1 -0.15 L 44,26.7 h -0.1 -0.1 -0.1 -0.1 -0.1 -0.15 -0.1 l -0.1,0.05 h -0.1 -0.1 -0.1 -0.1 H 42.6 42.5 42.4 42.3 42.2 42.1 42 41.85 l -0.1,-0.05 h -0.1 -0.1 -0.1 -0.1 -0.1 -0.15 -0.1 -0.1 -0.1 -0.1 -0.1 -0.1 -0.15 -0.1 -0.1 -0.1 -0.1 -0.1 -0.1 -0.15 -0.1 -0.1 -0.1 -0.1 -0.1 -0.1 -0.15 -0.1 -0.1 -0.1 -0.1 -0.1 -0.1 -0.15 -0.1 -0.1 -0.1 -0.1 -0.1 -0.1 -0.15 -0.1 -0.1 -0.1 -0.1 -0.1 -0.1 -0.15 -0.1 -0.1 -0.1 l -0.1,0.05 H 36.1 36 35.95 L 36,26.7 l 0.1,-0.1 0.15,-0.05 0.05,-0.05 0.1,-0.1 0.15,-0.15 0.1,-0.1 0.05,-0.05 0.1,-0.1 0.1,-0.1 0.1,-0.1 0.1,-0.1 0.05,-0.05 0.1,-0.1 0.05,-0.05 0.1,-0.1 0.2,-0.2 0.1,-0.1 0.05,-0.05 0.1,-0.1 0.05,-0.05 0.1,-0.1 0.05,-0.05 0.1,-0.1 0.1,-0.05 0.05,-0.1 0.05,-0.05 0.1,-0.1 0.05,-0.05 0.1,-0.1 0.1,-0.1 0.05,-0.05 0.1,-0.1 0.1,-0.1 0.1,-0.1 0.15,-0.15 0.1,-0.1 0.05,-0.05 0.1,-0.1 0.1,-0.1 0.1,-0.1 0.1,-0.1 0.05,-0.05 0.1,-0.1 0.05,-0.05 0.1,-0.1 0.05,-0.05 v -0.1 l 0.15,-0.15 0.1,-0.1 0.1,-0.1 0.05,-0.05 0.1,-0.1 0.05,-0.05 0.1,-0.1 0.1,-0.1 0.1,-0.1 0.1,-0.1 h 0.1 l 0.1,-0.1 0.15,-0.15 0.1,-0.1 0.1,-0.1 0.1,-0.1 V 21 l 0.1,-0.1 0.1,-0.1 0.05,-0.05 0.1,-0.1 0.1,-0.1 0.1,-0.1 0.1,-0.1 0.05,-0.05 0.1,-0.1 0.05,-0.05 0.1,-0.1 v -0.1 l 0.05,-0.05 0.1,-0.1 0.3,-0.3 0.1,-0.1 0.35,-0.35 0.1,-0.1 0.05,-0.05 0.1,-0.1 0.15,-0.15 0.1,-0.1 0.05,-0.05 h 0.6 1.4 l 0.3,0.05 -0.1,0.05 -0.1,0.05 -0.15,0.2 -0.2,0.2 -0.2,0.15 -0.15,0.2 -0.1,0.1 -0.2,0.15 -0.25,0.3 -0.2,0.15 -0.15,0.2 -0.2,0.2 -0.1,0.05 -0.15,0.2 -0.2,0.2 -0.1,0.05 -0.15,0.2 -0.1,0.1 -0.1,0.15 -0.2,0.1 -0.15,0.2 -0.1,0.1 -0.2,0.15 -0.1,0.1 -0.15,0.2 -0.1,0.05 -0.2,0.2 -0.35,0.35 -0.15,0.2 -0.1,0.1 -0.2,0.15 -0.1,0.1 -0.15,0.2 -0.2,0.15 -0.2,0.2 -0.15,0.2 -0.1,0.05 -0.2,0.2 -0.25,0.25 -0.2,0.2 -0.05,0.1 -0.3,0.1 -0.15,0.15 -0.1,0.1 h 0.1 0.15 0.2 l 0.15,-0.1 h 0.2 0.2 0.15 0.3 0.15 0.2 0.2 0.15 0.2 0.15 0.3 0.15 0.2 0.2 0.15 0.2 0.15 0.3 0.2 0.15 0.2 0.15 0.2 0.2 0.25 0.2 0.15 0.2 0.15 0.2 0.2 0.25 0.2 0.15 0.2 0.2 0.15 0.2 0.25 0.2 0.15 0.2 0.2 0.15 0.2 0.25 0.2 0.05 m -14.05,-14 v 0.2 0.15 0.3 0.15 0.2 0.2 0.15 0.2 0.15 0.3 0.2 0.15 0.2 0.15 0.2 0.2 0.25 0.2 0.15 0.2 0.15 0.2 0.2 0.25 0.2 0.15 0.2 0.2 0.15 0.2 0.25 0.2 0.15 0.2 0.2 0.15 0.2 0.25 0.2 0.2 0.15 0.2 0.15 0.2 0.25 0.2 0.2 0.15 l -0.1,0.2 v 0.1 l 0.2,-0.2 0.05,-0.25 0.1,-0.1 0.2,-0.2 0.25,-0.25 0.2,-0.2 0.1,-0.1 0.15,-0.15 0.2,-0.2 0.2,-0.15 0.15,-0.2 0.1,-0.1 0.2,-0.15 0.05,-0.1 0.2,-0.2 0.35,-0.35 0.2,-0.2 0.1,-0.1 0.15,-0.15 0.1,-0.1 0.2,-0.2 0.05,-0.05 0.2,-0.2 0.2,-0.1 0.1,-0.15 0.05,-0.1 0.2,-0.2 0.1,-0.1 0.15,-0.15 0.2,-0.2 0.1,-0.1 0.15,-0.15 0.2,-0.2 0.2,-0.2 0.25,-0.25 0.2,-0.2 0.05,-0.05 0.2,-0.2 0.2,-0.2 0.15,-0.15 0.2,-0.2 0.1,-0.1 0.1,-0.05 v 0.3 l -0.05,1.35 v 0.6 l -0.05,0.05 -0.1,0.1 -0.15,0.15 -0.1,0.1 -0.05,0.05 -0.1,0.1 -0.35,0.35 -0.1,0.1 -0.3,0.3 -0.1,0.1 -0.1,0.1 -0.1,0.1 -0.05,0.05 -0.1,0.1 h -0.1 l -0.1,0.1 -0.1,0.1 -0.1,0.1 -0.1,0.1 -0.05,0.05 -0.1,0.1 -0.1,0.1 h -0.1 l -0.1,0.1 -0.1,0.1 -0.1,0.1 -0.15,0.15 -0.1,0.1 v 0.1 l -0.1,0.1 -0.1,0.1 -0.1,0.1 -0.1,0.1 -0.05,0.05 -0.1,0.1 -0.05,0.05 -0.1,0.1 -0.1,0.1 -0.15,0.15 h -0.1 l -0.05,0.05 -0.1,0.1 -0.05,0.05 -0.1,0.1 -0.05,0.05 -0.1,0.1 -0.1,0.1 -0.1,0.1 -0.1,0.1 -0.05,0.05 -0.1,0.1 -0.15,0.15 -0.1,0.1 -0.1,0.1 -0.1,0.1 -0.05,0.05 -0.1,0.1 -0.1,0.1 -0.05,0.05 -0.1,0.1 -0.05,0.05 -0.05,0.1 -0.1,0.05 -0.1,0.1 -0.05,0.05 -0.1,0.1 -0.05,0.05 -0.1,0.1 -0.05,0.05 -0.1,0.1 -0.2,0.2 -0.1,0.1 -0.05,0.05 -0.1,0.1 -0.05,0.05 -0.1,0.1 -0.1,0.1 -0.1,0.1 -0.1,0.1 -0.05,0.05 -0.1,0.1 -0.15,0.15 -0.1,0.1 -0.05,0.05 -0.05,0.15 -0.1,0.1 V 24.2 l 0.05,-0.1 v -0.1 -0.1 -0.1 -0.15 -0.1 -0.1 -0.1 -0.1 -0.1 -0.1 -0.15 -0.1 -0.1 -0.1 -0.1 -0.1 -0.1 -0.15 -0.1 -0.1 -0.1 -0.1 -0.1 -0.1 -0.15 -0.1 -0.1 -0.1 -0.1 -0.1 -0.1 -0.15 -0.1 -0.1 -0.1 -0.1 -0.1 -0.1 -0.15 -0.1 -0.1 -0.1 -0.1 -0.1 -0.1 -0.15 -0.1 -0.1 -0.1 -0.1 -0.1 l -0.05,-0.1 V 18.4 18.3 18.2 18.1 18 v -0.1 -0.1 -0.15 -0.1 -0.1 -0.1 -0.1 l 0.05,-0.1 v -0.1 -0.15 -0.1 -0.1 -0.1 -0.1 -0.1 l -0.05,-0.1 v -0.15 -0.1 -0.1 -0.1 -0.1 -0.1 -0.1 -0.15 L 33.5,15.3 V 15.2 15.1 15 l -0.05,-0.1 v -0.1 -0.35 -0.1 -0.1 -0.1 -0.1 -0.35 -0.1 -0.1 -0.1 -0.1 -0.15 -0.1 -0.1 -0.1 l 0.45,-0.45 0.95,-0.95 0.25,-0.2 m 14.05,20.5 h -0.05 -0.2 -0.25 -0.2 -0.15 -0.2 -0.2 -0.15 -0.2 -0.25 -0.2 -0.15 -0.2 -0.2 -0.15 -0.2 -0.25 -0.2 -0.2 -0.15 -0.2 -0.15 -0.2 -0.25 -0.2 -0.2 -0.15 -0.2 -0.15 -0.2 -0.3 -0.15 -0.2 -0.15 -0.2 -0.2 -0.15 -0.3 -0.15 -0.2 -0.15 -0.2 -0.2 -0.15 -0.3 -0.15 -0.2 -0.2 L 39.8,31.7 h -0.2 -0.1 l 0.2,0.15 0.25,0.1 0.1,0.1 0.2,0.2 0.25,0.25 0.2,0.2 0.1,0.05 0.15,0.2 0.2,0.2 0.2,0.15 0.15,0.2 0.1,0.1 0.2,0.15 0.05,0.1 0.2,0.2 0.35,0.35 0.2,0.2 0.1,0.05 0.15,0.2 0.1,0.1 0.2,0.15 0.05,0.1 0.2,0.2 0.2,0.1 0.1,0.15 0.05,0.1 0.2,0.2 0.1,0.05 0.15,0.2 0.2,0.2 0.1,0.05 0.15,0.2 0.2,0.2 0.2,0.15 0.25,0.3 0.2,0.15 0.05,0.1 0.2,0.2 0.2,0.15 0.15,0.2 0.2,0.2 0.1,0.05 0.1,0.15 h -0.4 l -1.35,-0.05 h -0.6 L 44.1,38.4 44,38.3 43.85,38.15 43.75,38.05 43.7,38 l -0.1,-0.1 -0.35,-0.35 -0.1,-0.1 -0.3,-0.3 -0.1,-0.1 -0.1,-0.1 -0.1,-0.1 -0.05,-0.05 -0.1,-0.1 v -0.1 l -0.1,-0.1 -0.1,-0.1 -0.1,-0.1 -0.1,-0.1 -0.05,-0.05 -0.1,-0.1 -0.1,-0.1 v -0.1 l -0.1,-0.1 -0.1,-0.1 -0.1,-0.1 L 41.3,35.4 41.2,35.3 H 41.1 L 41,35.2 40.9,35.1 40.8,35 40.7,34.9 40.65,34.85 40.55,34.75 40.5,34.7 40.4,34.6 40.3,34.5 40.15,34.35 v -0.1 L 40.1,34.2 40,34.1 39.95,34.05 39.85,33.95 39.8,33.9 39.7,33.8 39.6,33.7 39.5,33.6 39.4,33.5 39.35,33.45 39.25,33.35 39.1,33.2 39,33.1 38.9,33 38.8,32.9 38.75,32.85 38.65,32.75 38.55,32.65 38.5,32.6 38.4,32.5 38.35,32.45 38.3,32.35 38.2,32.3 38.1,32.2 38.05,32.15 37.95,32.05 37.9,32 l -0.1,-0.1 -0.05,-0.05 -0.1,-0.1 -0.2,-0.2 -0.1,-0.1 -0.05,-0.05 -0.1,-0.1 -0.05,-0.05 -0.1,-0.1 -0.1,-0.1 -0.1,-0.1 -0.1,-0.1 -0.05,-0.05 -0.1,-0.1 -0.15,-0.15 -0.1,-0.1 -0.05,-0.05 -0.15,-0.05 -0.1,-0.1 h 0.05 0.1 l 0.1,0.05 h 0.1 0.1 0.1 0.15 0.1 0.1 0.1 0.1 0.1 0.1 0.15 0.1 0.1 0.1 0.1 0.1 0.1 0.15 0.1 0.1 0.1 0.1 0.1 0.1 0.15 0.1 0.1 0.1 0.1 0.1 0.1 0.15 0.1 0.1 0.1 0.1 0.1 0.1 0.15 0.1 0.1 0.1 0.1 0.1 0.1 0.15 0.1 0.1 0.1 0.1 0.1 l 0.1,-0.05 h 0.15 0.1 0.1 0.1 0.1 0.1 0.1 0.15 0.1 0.1 0.1 0.1 l 0.1,0.05 h 0.1 0.15 0.1 0.1 0.1 0.1 0.1 l 0.1,-0.05 h 0.15 0.1 0.1 0.1 0.1 0.1 0.1 0.15 l 0.1,-0.05 h 0.1 0.1 0.1 l 0.1,-0.05 h 0.1 0.1 0.35 0.1 0.1 0.1 0.1 0.35 0.1 0.1 0.1 0.15 0.1 0.1 0.1 l 0.45,0.45 0.95,0.95 0.2,0.2 M 35.1,45.9 34.85,45.65 33.9,44.7 33.45,44.25 v -0.1 -0.1 -0.1 -0.15 -0.1 -0.1 -0.1 -0.35 -0.1 -0.1 -0.1 -0.1 -0.35 -0.1 -0.1 L 33.5,42.1 V 42 41.9 41.8 l 0.05,-0.1 v -0.15 -0.1 -0.1 -0.1 -0.1 -0.1 -0.1 -0.15 l 0.05,-0.1 v -0.1 -0.1 -0.1 -0.1 -0.1 -0.15 -0.1 l -0.05,-0.1 v -0.1 -0.1 -0.1 -0.1 V 39.3 39.2 39.1 39 38.9 38.8 38.7 38.55 l 0.05,-0.1 v -0.1 -0.1 -0.1 -0.1 -0.1 -0.15 -0.1 -0.1 -0.1 -0.1 -0.1 -0.1 -0.15 -0.1 -0.1 -0.1 -0.1 -0.1 -0.1 -0.15 -0.1 -0.1 -0.1 -0.1 -0.1 -0.1 -0.15 -0.1 -0.1 -0.1 -0.1 -0.1 -0.1 -0.15 -0.1 -0.1 -0.1 -0.1 -0.1 -0.1 -0.15 -0.1 -0.1 -0.1 -0.1 -0.1 -0.1 V 33.3 33.2 33.1 33 l -0.05,-0.1 v -0.1 -0.1 -0.05 l 0.15,0.15 0.05,0.15 0.05,0.05 0.1,0.1 0.15,0.15 0.1,0.1 0.05,0.05 0.1,0.1 0.1,0.1 0.1,0.1 0.1,0.1 0.05,0.05 0.1,0.1 0.05,0.05 0.1,0.1 0.2,0.2 0.1,0.1 0.05,0.05 0.1,0.1 0.05,0.05 0.1,0.1 0.05,0.05 0.1,0.1 0.1,0.05 0.05,0.1 0.05,0.05 0.1,0.1 0.05,0.05 0.1,0.1 0.1,0.1 0.05,0.05 0.1,0.1 0.1,0.1 0.1,0.1 0.15,0.15 0.1,0.1 0.05,0.05 0.1,0.1 0.1,0.1 0.1,0.1 0.1,0.1 0.05,0.05 0.1,0.1 0.05,0.05 0.1,0.1 0.05,0.05 h 0.1 l 0.15,0.15 0.1,0.1 0.1,0.1 0.05,0.05 0.1,0.1 0.05,0.05 0.1,0.1 0.1,0.1 0.1,0.1 0.1,0.1 v 0.1 l 0.1,0.1 0.15,0.15 0.1,0.1 0.1,0.1 0.1,0.1 h 0.1 l 0.1,0.1 0.1,0.1 0.05,0.05 0.1,0.1 0.1,0.1 0.1,0.1 0.1,0.1 0.05,0.05 0.1,0.1 0.05,0.05 0.1,0.1 h 0.1 l 0.05,0.05 0.1,0.1 0.3,0.3 0.1,0.1 0.35,0.35 0.1,0.1 0.05,0.05 0.1,0.1 0.15,0.15 0.1,0.1 0.05,0.05 v 0.6 1.4 0.2 l -0.1,-0.1 -0.2,-0.2 -0.15,-0.15 -0.2,-0.2 -0.2,-0.2 -0.1,-0.05 -0.15,-0.2 -0.3,-0.25 -0.15,-0.2 -0.2,-0.2 -0.15,-0.15 -0.1,-0.1 -0.2,-0.2 -0.15,-0.15 -0.1,-0.1 -0.2,-0.2 -0.1,-0.1 L 39,40.1 38.8,40 38.6,39.8 38.5,39.75 38.35,39.55 38.25,39.45 38.05,39.3 38,39.2 37.8,39 l -0.35,-0.35 -0.2,-0.2 -0.1,-0.1 -0.15,-0.15 -0.1,-0.1 -0.2,-0.2 -0.15,-0.15 -0.2,-0.2 -0.2,-0.15 -0.05,-0.1 -0.2,-0.2 -0.25,-0.25 -0.2,-0.2 -0.1,-0.1 L 35.25,36.3 35,36 v 0.1 0.2 0.15 l 0.1,0.2 v 0.2 0.15 0.2 0.25 0.2 0.2 0.15 0.2 0.15 0.2 0.25 0.2 0.2 0.15 0.2 0.2 0.15 0.3 0.15 0.2 0.15 0.2 0.2 0.15 0.3 0.15 0.2 0.2 0.15 0.2 0.15 0.3 0.15 0.2 0.2 0.15 0.2 0.2 0.25 0.2 0.15 0.2 0.15 0.2 0.2 0.25 0.2 0.1 m -13.15,-32 0.05,0.05 0.15,0.2 0.1,0.1 0.2,0.15 0.15,0.2 0.2,0.2 0.2,0.15 0.05,0.1 0.2,0.2 0.25,0.25 0.2,0.2 0.2,0.15 0.15,0.2 0.1,0.1 0.2,0.15 0.15,0.2 0.1,0.1 0.2,0.15 0.15,0.2 0.2,0.2 0.2,0.15 0.05,0.1 0.2,0.2 0.1,0.05 0.15,0.2 0.2,0.2 0.25,0.25 0.2,0.2 0.2,0.15 0.05,0.1 0.2,0.2 0.1,0.1 0.2,0.15 0.15,0.2 0.2,0.15 0.15,0.2 0.1,0.1 0.2,0.15 0.15,0.2 0.1,0.1 0.2,0.2 0.1,0.05 V 20.4 20.2 20 v -0.25 -0.2 -0.15 -0.2 -0.15 -0.2 -0.2 -0.25 -0.2 -0.15 -0.2 -0.2 -0.15 -0.2 -0.25 -0.2 -0.15 -0.2 -0.2 -0.15 -0.2 -0.25 -0.2 -0.2 -0.15 -0.2 -0.15 -0.2 -0.25 -0.2 -0.2 -0.15 -0.2 -0.15 -0.2 -0.3 -0.15 -0.2 -0.15 -0.2 -0.2 -0.15 -0.3 -0.15 -0.1 l 0.15,0.1 0.95,0.95 0.45,0.45 v 0.1 0.1 0.1 0.15 0.1 0.1 0.1 0.1 0.25 0.1 0.1 0.1 0.1 0.1 0.35 0.1 L 30.1,15 v 0.1 0.1 0.1 l -0.05,0.1 v 0.15 0.1 0.1 0.1 0.1 0.1 0.1 0.15 L 30,16.4 v 0.1 0.1 0.1 0.1 0.1 0.15 0.1 l 0.05,0.1 v 0.1 0.1 0.1 0.1 0.15 0.1 0.1 0.1 0.1 0.1 0.1 0.15 L 30,18.65 v 0.1 0.1 0.1 0.1 0.1 0.15 0.1 0.1 0.1 0.1 0.1 0.1 0.15 0.1 0.1 0.1 0.1 0.1 0.1 0.15 0.1 0.1 0.1 0.1 0.1 0.1 0.15 0.1 0.1 0.1 0.1 0.1 0.1 0.15 0.1 0.1 0.1 0.1 0.1 0.1 0.15 0.1 0.1 0.1 0.1 0.1 0.1 0.15 0.1 0.1 0.1 l -0.05,-0.05 -0.1,-0.1 -0.05,-0.05 -0.1,-0.1 -0.1,-0.1 -0.05,-0.05 -0.1,-0.1 -0.1,-0.1 -0.1,-0.1 -0.1,-0.1 L 29.1,23.2 29,23.1 28.95,23.05 28.85,22.95 28.75,22.85 28.6,22.7 28.5,22.6 28.4,22.5 28.35,22.45 28.25,22.35 28.2,22.3 28.1,22.2 28,22.1 27.9,22 27.8,21.9 27.75,21.85 27.65,21.75 27.55,21.65 27.5,21.6 27.4,21.5 27.3,21.4 27.2,21.3 27.05,21.15 26.95,21.05 26.9,21 26.8,20.9 26.7,20.8 26.6,20.7 26.5,20.6 26.45,20.55 26.35,20.45 26.3,20.4 26.2,20.3 26.15,20.25 h -0.1 L 25.9,20.1 25.8,20 25.7,19.9 25.65,19.85 25.55,19.75 25.5,19.7 25.4,19.6 25.3,19.5 25.2,19.4 25.1,19.3 v -0.1 l -0.1,-0.1 -0.15,-0.15 -0.1,-0.1 -0.1,-0.1 -0.1,-0.1 h -0.1 l -0.1,-0.1 -0.1,-0.1 L 24.2,18.4 24.1,18.3 24,18.2 23.9,18.1 23.8,18 H 23.7 L 23.6,17.9 23.55,17.85 23.45,17.75 23.1,17.4 23,17.3 22.95,17.25 22.85,17.15 22.5,16.8 22.4,16.7 22.35,16.65 22.25,16.55 22.1,16.4 22,16.3 21.95,16.25 v -0.6 L 21.9,14.3 21.95,13.9 m -4.55,4.75 0.2,-0.05 h 1.4 0.6 l 0.05,0.05 0.1,0.1 0.15,0.15 0.1,0.1 0.05,0.05 0.1,0.1 0.2,0.2 0.1,0.1 0.05,0.05 0.1,0.1 0.05,0.05 0.1,0.1 0.3,0.3 v 0.1 l 0.1,0.1 0.05,0.05 0.1,0.1 0.05,0.05 0.1,0.1 0.1,0.1 0.1,0.1 0.1,0.1 0.05,0.05 0.1,0.1 0.1,0.1 v 0.1 l 0.1,0.1 0.1,0.1 0.1,0.1 0.15,0.15 0.1,0.1 h 0.1 l 0.1,0.1 0.1,0.1 0.1,0.1 0.1,0.1 0.05,0.05 0.1,0.1 0.05,0.05 0.1,0.1 0.1,0.1 0.15,0.15 v 0.1 l 0.05,0.05 0.1,0.1 0.05,0.05 0.1,0.1 0.05,0.05 0.1,0.1 0.1,0.1 0.1,0.1 0.1,0.1 0.05,0.05 0.1,0.1 0.15,0.15 0.1,0.1 0.1,0.1 0.1,0.1 0.05,0.05 0.1,0.1 0.1,0.1 0.05,0.05 0.1,0.1 0.1,0.1 0.1,0.1 0.1,0.1 0.05,0.05 0.1,0.1 0.05,0.05 0.1,0.1 0.1,0.1 0.15,0.15 0.1,0.1 0.1,0.1 0.05,0.05 0.1,0.1 0.05,0.05 0.1,0.1 0.1,0.1 0.1,0.1 0.1,0.1 0.05,0.05 0.1,0.1 0.1,0.1 0.05,0.05 0.1,0.1 0.05,0.05 h 0.1 l 0.1,0.1 H 27.6 27.5 L 27.4,26.7 h -0.1 -0.1 -0.1 -0.15 -0.1 -0.1 -0.1 -0.1 -0.1 -0.1 -0.15 -0.1 -0.1 -0.1 -0.1 -0.1 -0.1 -0.15 -0.1 -0.1 -0.1 -0.1 -0.1 -0.1 -0.15 -0.1 -0.1 -0.1 -0.1 -0.1 -0.1 -0.15 -0.1 -0.1 -0.1 -0.1 -0.1 -0.1 -0.15 -0.1 -0.1 -0.1 -0.1 -0.1 -0.1 -0.15 -0.1 -0.1 -0.1 -0.1 -0.1 l -0.1,0.05 h -0.15 -0.1 -0.1 -0.1 -0.1 -0.1 -0.1 -0.15 -0.1 -0.1 -0.1 -0.1 L 20.45,26.7 H 20.35 20.2 20.1 20 19.9 19.8 19.7 l -0.1,0.05 h -0.15 -0.1 -0.1 -0.1 -0.1 -0.1 -0.1 -0.15 l -0.1,0.05 h -0.1 -0.1 -0.1 l -0.1,0.05 h -0.1 -0.35 -0.1 -0.1 -0.1 -0.1 -0.35 -0.1 -0.1 -0.1 -0.1 -0.15 -0.1 -0.1 -0.1 L 15.7,26.4 14.75,25.45 14.6,25.25 h 0.15 0.2 0.25 0.2 0.15 0.2 0.2 0.15 0.2 0.25 0.2 0.15 0.2 0.2 0.15 0.2 0.25 0.2 0.2 0.15 0.2 0.15 0.2 0.25 0.2 0.2 0.15 0.2 0.2 0.15 0.3 0.15 0.2 0.15 0.2 0.2 0.15 0.3 0.15 0.2 0.2 0.15 0.2 0.15 0.3 0.15 0.2 0.2 l 0.15,0.1 h 0.2 0.1 l -0.2,-0.15 h -0.2 l -0.05,-0.1 -0.2,-0.2 -0.1,-0.1 -0.15,-0.15 -0.2,-0.2 -0.1,-0.1 L 23,24.2 22.8,24 l -0.2,-0.2 -0.15,-0.15 -0.1,-0.1 -0.2,-0.2 -0.1,-0.05 -0.15,-0.2 -0.2,-0.2 -0.25,-0.25 -0.2,-0.2 L 21.1,22.3 21,22.2 20.8,22 20.7,21.9 20.55,21.75 20.35,21.55 20.2,21.4 20,21.2 l -0.1,-0.1 -0.2,-0.15 -0.15,-0.2 -0.1,-0.1 -0.2,-0.15 -0.15,-0.2 -0.2,-0.2 -0.25,-0.25 -0.2,-0.2 -0.1,-0.1 -0.15,-0.15 -0.2,-0.2 -0.15,-0.15 -0.2,-0.2 -0.1,-0.1 -0.15,-0.1 m 11.2,1.9 v 0.2 l 0.05,0.1 v -0.1 l -0.05,-0.2 m 1.4,3.55 0.05,0.1 v 0.05 L 30,24.2 v -0.1 m -15.4,7.65 0.15,-0.2 0.95,-0.95 0.45,-0.45 h 0.1 0.1 0.1 0.15 0.1 0.1 0.1 0.1 0.25 0.1 0.1 0.1 0.1 0.1 0.35 0.1 l 0.1,0.05 h 0.1 0.1 0.1 l 0.1,0.05 h 0.15 0.1 0.1 0.1 0.1 0.1 0.1 0.15 l 0.1,0.05 h 0.1 0.1 0.1 0.1 0.1 0.15 0.1 l 0.1,-0.05 h 0.1 0.1 0.1 0.1 0.15 0.1 0.1 0.1 0.1 0.1 0.1 0.15 l 0.1,0.05 h 0.1 0.1 0.1 0.1 0.1 0.15 0.1 0.1 0.1 0.1 0.1 0.1 0.15 0.1 0.1 0.1 0.1 0.1 0.1 0.15 0.1 0.1 0.1 0.1 0.1 0.1 0.15 0.1 0.1 0.1 0.1 0.1 0.1 0.15 0.1 0.1 0.1 0.1 0.1 0.1 0.15 0.1 0.1 0.1 0.1 0.1 0.1 0.15 0.1 0.1 0.1 l -0.05,0.05 -0.1,0.1 -0.05,0.05 -0.1,0.1 -0.1,0.1 -0.05,0.05 -0.1,0.1 -0.1,0.1 -0.1,0.1 -0.1,0.1 -0.05,0.05 -0.1,0.1 -0.05,0.05 -0.1,0.1 -0.1,0.1 -0.15,0.15 -0.1,0.1 -0.1,0.1 -0.05,0.05 -0.1,0.1 -0.05,0.05 -0.1,0.1 -0.1,0.1 -0.1,0.1 -0.1,0.1 -0.05,0.05 -0.1,0.1 -0.1,0.1 -0.05,0.05 -0.1,0.1 -0.1,0.1 -0.1,0.1 -0.15,0.15 -0.1,0.1 -0.05,0.05 -0.1,0.1 -0.1,0.1 -0.1,0.1 -0.1,0.1 -0.05,0.05 -0.1,0.1 -0.05,0.05 -0.1,0.1 -0.05,0.05 v 0.1 l -0.15,0.15 -0.1,0.1 -0.1,0.1 -0.05,0.05 -0.1,0.1 -0.05,0.05 -0.1,0.1 -0.1,0.1 -0.1,0.1 -0.1,0.1 h -0.1 l -0.1,0.1 -0.15,0.15 -0.1,0.1 -0.1,0.1 -0.1,0.1 v 0.1 l -0.1,0.1 -0.1,0.1 -0.05,0.05 -0.1,0.1 -0.1,0.1 -0.1,0.1 -0.1,0.1 v 0.1 l -0.1,0.1 -0.05,0.05 -0.1,0.1 -0.35,0.35 -0.1,0.1 -0.05,0.05 -0.1,0.1 -0.35,0.35 -0.1,0.1 -0.05,0.05 -0.1,0.1 -0.15,0.15 -0.1,0.1 -0.05,0.05 h -0.6 L 17.6,38.4 h -0.3 v -0.05 l 0.15,-0.15 0.1,-0.1 0.2,-0.2 0.15,-0.15 0.2,-0.2 0.2,-0.15 0.05,-0.1 0.2,-0.2 0.25,-0.25 0.2,-0.2 0.2,-0.2 0.15,-0.15 0.1,-0.1 0.2,-0.2 0.15,-0.15 0.1,-0.1 0.2,-0.2 0.15,-0.15 0.2,-0.2 0.2,-0.15 0.05,-0.1 0.2,-0.2 0.1,-0.1 0.15,-0.15 0.2,-0.2 0.25,-0.25 0.2,-0.2 0.2,-0.2 0.05,-0.05 0.2,-0.2 0.1,-0.1 0.2,-0.15 0.15,-0.2 0.2,-0.2 0.15,-0.15 0.1,-0.1 0.2,-0.2 0.15,-0.15 0.1,-0.1 0.2,-0.2 0.1,-0.1 h 0.15 l 0.1,-0.05 h -0.1 L 23.9,31.75 H 23.7 23.5 23.35 23.05 22.9 22.7 22.55 22.35 22.15 22 21.7 21.55 21.35 21.15 21 20.8 20.65 20.35 20.2 20 19.8 19.65 19.45 19.25 19 18.8 18.65 18.45 18.3 18.1 17.9 17.65 17.45 17.3 17.1 16.9 16.75 16.55 16.3 16.1 15.95 15.75 15.55 15.4 15.2 14.95 14.75 14.6 M 21.95,43 21.9,42.7 v -1.4 -0.6 l 0.05,-0.05 0.1,-0.1 0.15,-0.15 0.1,-0.1 0.05,-0.05 0.1,-0.1 0.2,-0.2 0.1,-0.1 0.05,-0.05 0.1,-0.1 0.05,-0.05 0.1,-0.1 0.3,-0.3 h 0.1 l 0.1,-0.1 0.05,-0.05 0.1,-0.1 0.05,-0.05 0.1,-0.1 0.1,-0.1 0.1,-0.1 0.1,-0.1 0.05,-0.05 0.1,-0.1 0.1,-0.1 h 0.1 l 0.1,-0.1 0.1,-0.1 0.1,-0.1 0.15,-0.15 0.1,-0.1 v -0.1 l 0.1,-0.1 0.1,-0.1 0.1,-0.1 0.1,-0.1 0.05,-0.05 0.1,-0.1 0.05,-0.05 0.1,-0.1 0.1,-0.1 L 26,36.7 h 0.1 l 0.05,-0.05 0.1,-0.1 0.05,-0.05 0.1,-0.1 0.05,-0.05 0.1,-0.1 0.1,-0.1 0.1,-0.1 0.1,-0.1 0.05,-0.05 0.1,-0.1 0.15,-0.15 0.1,-0.1 0.1,-0.1 0.1,-0.1 0.05,-0.05 0.1,-0.1 0.1,-0.1 0.05,-0.05 0.1,-0.1 0.1,-0.1 0.1,-0.1 0.1,-0.1 0.05,-0.05 0.1,-0.1 0.05,-0.05 0.1,-0.1 0.1,-0.1 0.15,-0.15 0.1,-0.1 0.1,-0.1 0.05,-0.05 0.1,-0.1 0.05,-0.05 0.1,-0.1 0.1,-0.1 0.1,-0.1 0.1,-0.1 0.05,-0.05 0.1,-0.1 0.1,-0.1 0.05,-0.05 0.1,-0.1 0.05,-0.05 v -0.1 l 0.1,-0.1 v 0.05 0.1 0.1 L 30,33 v 0.1 0.1 0.1 0.15 0.1 0.1 0.1 0.1 0.1 0.1 0.15 0.1 0.1 0.1 0.1 0.1 0.1 0.15 0.1 0.1 0.1 0.1 0.1 0.1 0.15 0.1 0.1 0.1 0.1 0.1 0.1 0.15 0.1 0.1 0.1 0.1 0.1 0.1 0.15 0.1 0.1 0.1 0.1 0.1 0.1 0.15 0.1 0.1 0.1 0.1 0.1 l 0.05,0.1 v 0.15 0.1 0.1 0.1 0.1 0.1 0.1 0.15 0.1 0.1 0.1 0.1 L 30,39.95 v 0.1 0.15 0.1 0.1 0.1 0.1 0.1 l 0.05,0.1 v 0.15 0.1 0.1 0.1 0.1 0.1 0.1 0.15 l 0.05,0.1 v 0.1 0.1 0.1 l 0.05,0.1 v 0.1 0.1 0.35 0.1 0.1 0.1 0.1 0.35 0.1 0.1 0.1 0.15 0.1 0.1 0.1 L 29.7,44.7 28.75,45.65 28.6,45.8 V 45.6 45.35 45.15 44.95 44.8 44.6 44.45 44.25 44 43.8 43.6 43.45 43.25 43.05 42.9 42.6 42.45 42.25 42.1 41.9 41.7 41.55 41.25 41.1 40.9 40.7 40.55 40.35 40.2 39.9 39.75 39.55 39.35 39.2 39 38.8 38.55 38.35 38.2 38 37.85 37.65 37.45 37.2 37 36.85 36.65 l 0.05,-0.2 V 36.3 36.1 36 l -0.15,0.2 v 0.2 l -0.1,0.05 -0.2,0.2 -0.05,0.1 -0.2,0.2 -0.2,0.15 -0.05,0.1 -0.2,0.2 -0.2,0.15 -0.15,0.2 -0.2,0.15 -0.1,0.1 -0.15,0.2 -0.1,0.1 -0.2,0.15 -0.15,0.2 -0.3,0.25 -0.15,0.2 -0.2,0.2 -0.1,0.05 -0.15,0.2 -0.1,0.1 -0.2,0.15 -0.15,0.2 -0.2,0.2 -0.2,0.15 -0.1,0.1 -0.15,0.2 -0.2,0.15 -0.1,0.1 -0.15,0.2 -0.2,0.15 -0.15,0.2 -0.3,0.25 -0.15,0.2 -0.1,0.1 -0.2,0.15 -0.15,0.2 -0.2,0.2 -0.2,0.15 -0.1,0.1 -0.1,0.2 m 5.45,-12.7 0.1,-0.05 h 0.05 L 27.5,30.3 h -0.1"
         fill="#999999"
         fill-rule="evenodd"
         stroke="none"
         id="path6" />
      <path
         d="M 1.55,5.3 1.3,5.1 1,4.8 0.85,4.65 0.55,4.35 0.4,4.2 0.1,3.9 V 3.6 L 0,3.5 V -0.3 H 8.85 L 9.05,5.4 8.95,5.45 8.9,5.4 8.8,5.45 8.9,5.55 8.7,5.75 2.55,5.4 1.55,5.3 m 12.5,-1.9 0.05,0.05 0.3,0.3 0.45,0.45 h 0.3 l 0.15,0.15 0.3,0.3 0.15,0.15 0.3,0.3 0.15,0.1 0.3,0.3 0.25,0.3 0.3,0.3 0.3,0.3 0.15,0.15 0.3,0.3 0.45,0.45 0.3,0.3 0.3,0.3 0.3,0.25 0.15,0.15 0.25,0.3 0.3,0.3 L 20,9.05 20.2,9.25 19.8,9.4 19.2,10 Q 19,10.35 18.95,10.95 L 18.9,10.9 18.75,10.7 h -0.2 L 18.35,10.55 18.2,10.35 18.1,10.25 17.9,10.1 17.75,9.9 17.55,9.7 17.35,9.55 H 17.2 L 17,9.35 16.9,9.25 16.75,9.1 16.1,8.45 15.95,8.25 15.85,8.2 15.65,8 15,7.35 14.85,7.2 14.75,7.1 14.55,6.9 14.3,6.65 14.1,6.45 14.05,6.4 V 5.3 3.4 m 7.85,7.55 0.2,0.2 0.3,0.25 0.4,0.45 0.3,0.3 0.3,0.3 0.15,0.15 0.3,0.3 0.15,0.15 0.3,0.3 0.3,0.3 0.3,0.3 0.3,0.25 0.15,0.15 0.25,0.3 0.3,0.3 0.15,0.15 0.3,0.3 0.15,0.15 v -0.3 -0.3 -0.3 -0.45 -0.25 -0.3 -0.3 -0.3 -0.3 -0.3 V 12 11.7 11.4 11.15 10.85 10.55 10.25 9.8 9.5 9.2 9.15 l 0.15,0.15 0.9,1.1 1.05,0.95 v 0.1 0.15 0.3 0.15 0.2 0.2 0.15 0.2 0.15 0.3 0.2 0.15 0.2 0.15 0.2 0.2 0.25 0.2 0.15 0.2 0.15 0.2 0.2 0.25 0.2 0.15 0.2 0.2 0.15 0.2 0.25 0.2 0.15 0.2 0.2 0.15 0.2 0.25 0.2 0.2 0.15 0.2 0.15 0.2 0.25 0.2 0.2 0.15 L 28.5,20.5 28.3,20.3 28.2,20.2 28.05,20 l -0.2,-0.15 -0.1,-0.1 -0.15,-0.2 -0.2,-0.15 -0.15,-0.2 -0.2,-0.15 -0.1,-0.1 -0.2,-0.2 -0.05,-0.1 -0.2,-0.15 -0.2,-0.2 -0.25,-0.25 -0.2,-0.2 -0.15,-0.2 -0.1,-0.05 -0.2,-0.2 -0.05,-0.1 -0.2,-0.15 -0.2,-0.2 -0.15,-0.2 -0.2,-0.15 -0.1,-0.1 -0.15,-0.2 -0.2,-0.15 -0.1,-0.1 -0.15,-0.2 -0.2,-0.15 -0.2,-0.2 -0.25,-0.25 -0.2,-0.2 L 23,14.95 22.8,14.8 22.6,14.6 22.45,14.4 22.25,14.25 22.15,14.15 22,13.95 21.95,13.9 22,12.7 21.9,11.3 v -0.35 m 4.6,-4.3 V 6.4 6.1 5.8 5.35 5.1 4.8 4.5 4.2 3.9 3.6 3.15 2.85 2.55 2.25 2 1.7 1.4 0.95 0.65 0.35 0.05 -0.25 -0.3 h 1.85 l 0.5,0.55 V 0.4 0.6 0.75 1.05 1.2 1.4 1.6 1.75 2.2 2.4 2.6 2.75 2.95 3.1 3.75 3.95 l -0.1,0.15 v 0.2 0.2 0.15 l -0.1,0.2 V 5.1 5.3 5.45 5.65 5.85 6 6.2 6.45 L 28.6,6.65 V 6.85 7 7.1 Q 28.1,6.6 27.65,6.5 27.25,6.35 26.8,6.5 l -0.3,0.15 m 8.85,-6.95 h 1.8 v 0.05 0.3 0.3 0.3 0.3 V 1.4 1.7 2 2.25 2.55 2.85 3.15 3.6 3.9 4.2 4.5 4.8 5.1 5.35 5.8 6.1 6.4 6.65 L 36.8,6.5 Q 36.35,6.35 35.95,6.5 35.55,6.6 35.1,7 V 6.85 6.65 L 35,6.45 V 6.2 6 5.85 5.65 5.45 5.3 5.1 4.85 L 34.9,4.65 V 4.5 4.3 4.1 L 34.8,3.95 V 3.75 3.1 2.95 2.75 2.6 2.4 1.75 1.6 1.4 1.2 1.05 0.75 0.6 0.4 0.25 l 0.55,-0.55 m 1.8,9.4 v 0.1 0.3 0.3 0.45 0.3 0.3 0.3 0.25 0.3 0.3 0.45 0.3 0.3 0.3 0.3 0.3 0.25 0.45 0.3 0.3 0.3 L 37,15.85 V 16 l 0.3,-0.3 0.1,-0.45 0.15,-0.15 0.3,-0.3 0.45,-0.45 0.3,-0.25 0.15,-0.15 0.3,-0.3 0.3,-0.3 0.3,-0.3 0.3,-0.3 0.15,-0.15 0.25,-0.3 0.15,-0.15 0.3,-0.3 0.6,-0.6 0.3,-0.25 0.1,-0.1 v 0.3 l -0.1,1.4 0.1,1.3 -0.1,0.05 -0.1,0.1 -0.2,0.2 -0.15,0.15 -0.2,0.2 -0.2,0.2 -0.05,0.05 -0.2,0.2 -0.25,0.25 -0.2,0.2 -0.2,0.2 -0.15,0.15 -0.1,0.1 -0.2,0.2 -0.15,0.15 -0.1,0.1 -0.2,0.2 -0.05,0.1 -0.1,0.15 -0.2,0.1 -0.2,0.2 -0.05,0.05 -0.2,0.2 -0.1,0.1 -0.15,0.15 -0.1,0.1 -0.2,0.2 -0.35,0.35 -0.2,0.2 -0.05,0.1 -0.2,0.15 -0.1,0.1 -0.15,0.2 -0.2,0.15 -0.2,0.2 -0.15,0.15 -0.1,0.1 -0.2,0.2 -0.25,0.25 -0.2,0.2 -0.1,0.1 -0.05,0.25 -0.2,0.2 v -0.1 l 0.1,-0.2 V 20.4 20.2 20 v -0.25 -0.2 -0.15 -0.2 -0.15 -0.2 -0.2 -0.25 -0.2 -0.15 -0.2 -0.2 -0.15 -0.2 -0.25 -0.2 -0.15 -0.2 -0.2 -0.15 -0.2 -0.25 -0.2 -0.2 -0.15 -0.2 -0.15 -0.2 -0.25 -0.2 -0.2 -0.15 -0.2 -0.15 -0.2 -0.3 -0.15 -0.2 -0.15 -0.2 -0.2 -0.15 -0.3 -0.15 -0.2 l 0.95,-0.85 0.9,-1.1 0.2,-0.2 m 6.35,0.05 0.1,-0.1 0.3,-0.3 0.15,-0.15 0.3,-0.3 0.3,-0.25 L 44.8,7.9 45.1,7.6 45.4,7.3 45.7,7 46.15,6.55 46.4,6.25 46.55,6.1 l 0.3,-0.3 0.3,-0.3 0.3,-0.3 0.3,-0.25 0.15,-0.15 0.3,-0.3 0.15,-0.15 0.3,-0.3 0.15,-0.15 h 0.3 l 0.4,-0.45 0.3,-0.3 0.05,-0.05 -0.05,2 V 6.2 L 49.75,6.3 49.55,6.45 49.3,6.75 49.1,6.9 49,7 48.85,7.2 48.2,7.8 48,8 47.45,8.55 47.3,8.75 47.1,8.9 46.95,9.1 46.85,9.2 46.65,9.35 H 46.5 l -0.2,0.2 -0.2,0.15 -0.15,0.2 -0.2,0.2 -0.1,0.05 -0.15,0.2 -0.2,0.2 H 45.1 L 44.95,10.7 44.75,10.9 44.5,9.9 43.9,9.3 43.5,9.15 M 55.05,-0.3 h 9.5 v 2.9 l -0.3,0.25 -0.3,0.3 -0.1,0.15 V 3.6 L 63.55,3.9 63.4,4.05 63.1,4.35 62.95,4.5 62.65,4.8 62.35,5.1 61.3,5.2 55.15,5.55 54.95,5.4 55.05,5.3 54.95,5.2 54.9,5.3 54.8,5.2 55.05,-0.3 M 57,10.45 56.75,10.7 56.3,11.15 v 0.25 l -0.15,0.15 -0.3,0.3 -0.15,0.15 -0.3,0.3 -0.15,0.15 -0.25,0.3 -0.3,0.3 -0.3,0.3 -0.3,0.3 -0.15,0.15 -0.3,0.3 -0.45,0.4 -0.3,0.3 -0.3,0.3 -0.3,0.3 -0.15,0.15 -0.25,0.3 -0.3,0.3 -0.15,0.15 -0.3,0.3 -0.05,0.1 -0.15,-0.35 -0.6,-0.6 -1,-0.2 0.2,-0.25 0.2,-0.15 v -0.2 l 0.15,-0.15 0.2,-0.2 0.1,-0.1 0.15,-0.15 0.2,-0.2 0.2,-0.2 0.15,-0.15 0.1,-0.1 0.2,-0.2 0.05,-0.05 0.2,-0.2 v -0.2 l 0.1,-0.1 0.15,-0.15 0.55,-0.55 0.2,-0.2 0.65,-0.6 0.15,-0.2 0.1,-0.1 0.2,-0.15 0.25,-0.3 0.2,-0.15 0.05,-0.1 h 1.1 1.85 m -7.75,8 -0.05,0.05 -0.25,0.3 -0.6,0.6 -0.3,0.3 -0.15,0.15 -0.3,0.25 -0.15,0.15 -0.3,0.3 -0.3,0.3 -0.3,0.3 -0.3,0.3 -0.1,0.15 -0.3,0.3 -0.45,0.45 -0.3,0.3 -0.15,0.15 q -0.3,0 -0.45,0.15 l -0.3,0.25 -0.15,0.15 h 0.15 0.3 0.3 l 0.3,-0.15 h 0.3 0.3 0.3 0.4 0.3 0.3 0.3 0.3 0.3 0.3 0.45 0.3 0.25 0.3 0.3 0.3 0.3 0.45 0.3 0.1 l -0.15,0.15 -1.1,0.9 -0.85,1 h -0.05 -0.2 -0.25 -0.2 -0.15 -0.2 -0.2 -0.15 -0.2 -0.25 -0.2 -0.15 -0.2 -0.2 -0.15 -0.2 -0.25 -0.2 -0.2 -0.15 -0.2 -0.15 -0.2 -0.25 -0.2 -0.2 -0.15 -0.2 -0.15 -0.2 -0.3 -0.15 -0.2 -0.15 -0.2 -0.2 -0.15 -0.3 -0.15 -0.2 -0.15 -0.2 -0.2 -0.15 -0.3 -0.15 -0.2 -0.2 l -0.15,0.1 h -0.2 -0.15 -0.1 l 0.1,-0.1 0.15,-0.15 0.3,-0.1 0.05,-0.1 0.2,-0.2 0.25,-0.25 0.2,-0.2 0.1,-0.05 0.15,-0.2 0.2,-0.2 0.2,-0.15 0.15,-0.2 0.1,-0.1 0.2,-0.15 0.1,-0.1 0.15,-0.2 0.35,-0.35 0.2,-0.2 0.1,-0.05 0.15,-0.2 0.1,-0.1 0.2,-0.15 0.1,-0.1 0.15,-0.2 0.2,-0.1 0.1,-0.15 0.1,-0.1 0.15,-0.2 0.1,-0.05 0.2,-0.2 0.15,-0.2 0.1,-0.05 0.2,-0.2 0.15,-0.2 0.2,-0.15 0.25,-0.3 0.2,-0.15 0.1,-0.1 0.15,-0.2 0.2,-0.15 0.2,-0.2 0.15,-0.2 0.1,-0.05 0.1,-0.05 1.3,0.05 1.35,-0.15 h 0.2 m 4.55,4.75 h 0.15 0.3 0.3 0.3 0.4 0.3 0.3 0.3 0.3 0.3 0.3 0.45 0.3 0.25 0.3 0.3 0.3 0.3 0.45 0.3 0.3 0.3 0.3 0.25 l 0.3,0.15 h 0.45 0.3 0.3 l -1.4,1.35 -0.8,0.85 h -0.15 -0.2 -0.2 -0.25 -0.2 -0.15 -0.2 -0.65 -0.15 -0.2 -0.15 -0.2 -0.65 -0.15 -0.2 l -0.2,-0.1 h -0.15 -0.2 -0.15 l -0.2,-0.1 h -0.25 -0.2 -0.2 -0.15 -0.2 -0.2 -0.15 -0.3 l -0.15,-0.1 h -0.2 -0.15 -0.2 l 0.55,-0.9 V 23.5 l -0.1,-0.3 m 8.7,10.5 h -0.3 -0.3 -0.45 l -0.3,0.15 H 60.9 60.6 60.3 60 h -0.3 -0.45 -0.3 -0.3 -0.3 -0.3 -0.25 -0.3 -0.45 -0.3 -0.3 -0.3 -0.3 -0.3 -0.3 -0.4 -0.3 -0.3 -0.3 -0.2 L 53.9,33.5 v -0.85 l -0.55,-0.9 h 0.2 0.15 0.2 l 0.15,-0.05 h 0.3 0.15 0.2 0.2 0.15 0.2 0.2 0.25 l 0.2,-0.1 h 0.15 0.2 0.15 l 0.2,-0.1 h 0.2 0.15 0.65 0.2 0.15 0.2 0.15 0.65 0.2 0.15 0.2 0.25 0.2 0.2 0.15 l 0.8,0.8 1.4,1.4 M 51.3,33.85 H 51.15 50.85 50.4 50.1 49.8 49.5 49.2 48.95 48.65 48.2 47.9 47.6 47.3 47 46.7 46.4 46 45.7 45.4 45.1 Q 44.95,33.7 44.8,33.7 h -0.3 -0.15 l 0.3,0.3 0.45,0.15 0.15,0.15 0.3,0.3 0.45,0.4 0.25,0.3 0.15,0.15 0.3,0.3 0.3,0.3 0.3,0.3 0.3,0.3 0.15,0.15 0.3,0.3 0.15,0.15 0.3,0.3 0.6,0.55 0.25,0.3 0.1,0.1 H 49.1 l -1.4,-0.1 -1.2,0.1 -0.1,-0.15 -0.1,-0.05 -0.2,-0.2 -0.15,-0.2 -0.2,-0.15 -0.2,-0.2 -0.05,-0.1 -0.2,-0.15 -0.25,-0.3 -0.2,-0.15 -0.2,-0.2 -0.15,-0.2 -0.1,-0.05 -0.2,-0.2 -0.15,-0.2 -0.1,-0.05 -0.2,-0.2 -0.05,-0.1 -0.1,-0.15 -0.2,-0.1 -0.2,-0.2 -0.05,-0.1 -0.2,-0.15 -0.1,-0.1 -0.15,-0.2 -0.1,-0.05 -0.2,-0.2 -0.35,-0.35 -0.2,-0.2 -0.05,-0.1 -0.2,-0.15 -0.1,-0.1 -0.15,-0.2 -0.2,-0.15 -0.2,-0.2 -0.15,-0.2 -0.1,-0.05 -0.2,-0.2 -0.25,-0.25 -0.2,-0.2 -0.1,-0.1 -0.25,-0.1 -0.2,-0.15 h 0.1 0.2 l 0.15,0.05 h 0.2 0.2 0.15 0.3 0.15 0.2 0.2 0.15 0.2 0.15 0.3 0.15 0.2 0.2 0.15 0.2 0.15 0.3 0.2 0.15 0.2 0.15 0.2 0.2 0.25 0.2 0.15 0.2 0.15 0.2 0.2 0.25 0.2 0.15 0.2 0.2 0.15 0.2 0.25 0.2 0.15 0.2 0.2 0.15 0.2 0.25 0.2 0.05 l 0.85,1 1.1,0.9 0.2,0.2 m -0.15,6.35 0.15,0.15 0.3,0.3 0.15,0.1 0.3,0.3 0.25,0.3 0.15,0.15 0.3,0.3 0.3,0.3 0.3,0.3 0.45,0.45 0.3,0.3 0.15,0.15 0.3,0.3 0.3,0.25 0.25,0.3 0.3,0.3 0.15,0.15 0.3,0.3 0.15,0.15 0.3,0.3 0.15,0.15 v 0.3 l 0.45,0.45 0.3,0.3 -1.95,-0.05 h -1.1 l -0.1,-0.1 -0.15,-0.15 -0.3,-0.3 -0.15,-0.15 -0.1,-0.1 -0.2,-0.2 -0.6,-0.6 -0.2,-0.2 L 51.8,44.15 51.65,44 51.45,43.8 51.25,43.6 51.2,43.5 51,43.35 v -0.2 L 50.8,43 50.65,42.8 50.45,42.6 50.25,42.45 50.2,42.35 50,42.15 49.8,42 v -0.2 l -0.15,-0.15 -0.2,-0.2 0.95,-0.25 0.6,-0.6 0.15,-0.4 m 11.4,11.7 0.25,0.25 0.3,0.3 v 0.25 l 0.3,0.3 0.15,0.15 0.3,0.3 0.25,0.3 0.3,0.3 0.15,0.15 v 3.5 h -9.4 l -0.35,-5.85 0.15,-0.2 0.1,0.1 0.1,-0.1 -0.1,-0.1 0.1,-0.05 6.25,0.25 1.15,0.15 M 49.9,53.7 49.65,53.45 49.2,53 H 48.95 L 48.8,52.85 48.5,52.6 48.35,52.45 48.05,52.15 47.9,52 47.6,51.7 47.3,51.4 47,51.1 l -0.3,-0.3 -0.15,-0.15 -0.3,-0.3 -0.4,-0.45 -0.3,-0.25 -0.3,-0.3 -0.3,-0.3 -0.15,-0.15 -0.3,-0.3 -0.3,-0.3 -0.15,-0.15 -0.3,-0.3 -0.05,-0.05 0.25,-0.15 0.6,-0.6 0.25,-1.05 0.05,0.05 0.2,0.2 0.15,0.15 h 0.2 l 0.15,0.2 0.2,0.2 0.1,0.05 0.2,0.2 0.15,0.2 0.2,0.15 0.15,0.2 0.1,0.1 0.2,0.15 0.1,0.1 0.15,0.2 h 0.2 l 0.1,0.05 0.15,0.2 0.55,0.55 0.2,0.2 0.6,0.6 0.2,0.2 0.1,0.1 0.15,0.15 0.3,0.3 0.15,0.15 0.1,0.1 v 1.1 1.85 m -8.05,-7.75 -0.3,-0.3 -0.6,-0.6 -0.3,-0.3 L 40.5,44.6 40.25,44.3 40.1,44.15 39.8,43.85 39.5,43.6 39.2,43.3 38.9,43 38.75,42.85 38.45,42.55 38,42.1 37.7,41.8 37.55,41.65 37.4,41.2 37,40.75 v 0.15 0.3 0.3 l 0.15,0.3 v 0.3 0.3 0.3 0.45 0.3 0.3 0.25 0.3 0.3 0.3 0.45 0.3 0.3 0.3 0.3 0.25 0.3 0.45 0.3 0.15 l -0.2,-0.2 -0.9,-1.1 -0.95,-0.8 V 45.8 45.6 45.35 45.15 44.95 44.8 44.6 44.45 44.25 44 43.8 43.6 43.45 43.25 43.05 42.9 42.6 42.45 42.25 42.1 41.9 41.7 41.55 41.25 41.1 40.9 40.7 40.55 40.35 40.2 39.9 39.75 39.55 39.35 39.2 39 38.8 38.55 38.35 38.2 38 37.85 37.65 37.45 37.2 37 36.85 36.65 L 35,36.45 V 36.3 36.1 36 l 0.25,0.3 0.1,0.25 0.1,0.1 0.2,0.2 0.25,0.25 0.2,0.2 0.05,0.1 0.2,0.15 0.2,0.2 0.15,0.15 0.2,0.2 0.1,0.1 0.15,0.15 0.1,0.1 0.2,0.2 0.35,0.35 0.2,0.2 0.05,0.1 0.2,0.15 0.1,0.1 0.15,0.2 0.1,0.05 0.2,0.2 0.2,0.1 0.05,0.15 0.1,0.1 0.2,0.2 0.1,0.1 0.15,0.15 0.2,0.2 0.1,0.1 0.15,0.15 0.2,0.2 0.15,0.2 0.3,0.25 0.15,0.2 0.1,0.05 0.2,0.2 0.2,0.2 0.15,0.15 0.2,0.2 0.1,0.1 -0.1,1.4 0.15,1.35 v 0.2 m -4.7,4.5 v 0.2 0.3 0.3 0.3 0.45 0.3 0.3 0.25 0.3 0.3 0.3 0.45 0.3 0.3 0.3 0.3 0.25 0.3 0.45 0.3 0.3 0.3 0.3 0.1 h -1.6 L 34.8,57 V 56.8 56.65 56.45 56.2 56 55.8 55.65 55 54.8 54.65 54.45 54.3 53.65 53.45 53.3 l 0.1,-0.2 v -0.2 -0.15 -0.2 L 35,52.4 v -0.3 -0.15 -0.2 -0.2 -0.15 -0.2 -0.15 -0.3 l 0.1,-0.2 V 50.4 50.2 50.1 q 0.45,0.4 0.85,0.5 h 0.85 l 0.35,-0.15 m -9,7.25 H 26.5 v -0.1 -0.3 -0.3 -0.3 -0.3 -0.45 -0.3 -0.25 -0.3 -0.3 -0.3 -0.3 -0.45 -0.3 -0.3 -0.3 -0.25 -0.3 -0.3 -0.45 -0.3 -0.3 -0.3 -0.15 l 0.3,0.1 h 0.85 Q 28.1,50.5 28.6,50 v 0.05 0.15 0.2 0.15 l 0.05,0.2 v 0.3 0.15 0.2 0.15 0.2 0.2 0.15 0.3 l 0.1,0.15 v 0.2 0.15 0.2 l 0.1,0.2 v 0.15 0.2 0.65 0.15 0.2 0.15 0.2 0.65 0.15 0.2 0.2 0.25 0.2 0.15 0.2 l -0.7,0.7 M 26.5,47.95 v -0.1 -0.3 -0.45 -0.3 -0.25 -0.3 -0.3 -0.3 -0.3 -0.45 -0.3 -0.3 -0.3 -0.25 -0.3 -0.3 -0.45 -0.3 -0.3 -0.3 l 0.15,-0.3 v -0.3 -0.3 -0.15 l -0.3,0.3 v 0.3 l -0.15,0.15 -0.3,0.3 -0.15,0.15 -0.3,0.3 -0.25,0.3 -0.15,0.15 -0.3,0.3 -0.3,0.3 -0.3,0.3 -0.3,0.25 -0.15,0.15 -0.3,0.3 -0.15,0.15 -0.3,0.3 -0.3,0.3 -0.4,0.45 -0.3,0.3 -0.1,0.1 V 45.65 L 22,44.3 21.95,43 l 0.1,-0.2 0.1,-0.1 0.2,-0.15 0.2,-0.2 0.15,-0.2 0.2,-0.15 0.1,-0.1 0.15,-0.2 0.3,-0.25 0.15,-0.2 0.2,-0.15 0.15,-0.2 0.1,-0.1 0.2,-0.15 0.15,-0.2 0.1,-0.1 0.2,-0.15 0.2,-0.2 0.15,-0.2 0.2,-0.15 0.1,-0.1 0.15,-0.2 0.1,-0.05 0.2,-0.2 0.15,-0.2 0.3,-0.25 0.15,-0.2 0.2,-0.15 0.1,-0.1 0.15,-0.2 0.1,-0.1 0.2,-0.15 0.15,-0.2 0.2,-0.15 0.2,-0.2 0.05,-0.1 0.2,-0.15 0.2,-0.2 0.05,-0.1 0.2,-0.2 0.1,-0.05 V 36.2 L 28.65,36 v 0.1 0.2 0.15 l -0.05,0.2 v 0.2 0.15 0.2 0.25 0.2 0.2 0.15 0.2 0.15 0.2 0.25 0.2 0.2 0.15 0.2 0.2 0.15 0.3 0.15 0.2 0.15 0.2 0.2 0.15 0.3 0.15 0.2 0.2 0.15 0.2 0.15 0.3 0.15 0.2 0.2 0.15 0.2 0.2 0.25 0.2 0.15 0.2 0.15 0.2 0.2 0.25 0.2 l -1.05,0.9 -0.9,1.1 -0.15,0.15 m -6.45,-0.25 -0.2,0.15 -0.15,0.15 -0.25,0.3 -0.3,0.3 -0.15,0.15 -0.3,0.3 -0.3,0.3 -0.3,0.3 -0.45,0.4 -0.3,0.3 -0.15,0.15 -0.3,0.3 -0.3,0.3 -0.25,0.3 -0.3,0.3 -0.15,0.15 -0.3,0.3 -0.15,0.15 -0.3,0.3 -0.15,0.1 h -0.3 l -0.45,0.45 -0.3,0.3 v -1.8 -1.1 l 0.1,-0.05 0.15,-0.2 0.3,-0.25 0.15,-0.2 0.1,-0.1 0.2,-0.15 0.35,-0.4 0.2,-0.15 0.05,-0.1 0.2,-0.2 0.1,-0.05 0.15,-0.2 0.55,-0.55 h 0.2 l 0.15,-0.2 0.1,-0.05 0.2,-0.2 0.1,-0.1 0.15,-0.15 0.2,-0.2 0.2,-0.2 0.15,-0.15 0.1,-0.1 0.2,-0.2 0.15,-0.15 h 0.2 l 0.15,-0.2 0.15,-0.1 0.2,1 0.6,0.6 0.3,0.15 M 8.7,57.7 H 0 v -4.45 l 0.1,-0.1 0.3,-0.3 0.15,-0.15 0.3,-0.25 q -0.15,-0.15 0,-0.3 L 1.15,51.85 1.3,51.7 2.45,51.55 8.7,51.3 8.8,51.4 8.7,51.5 8.8,51.55 8.9,51.5 9.05,51.65 8.7,57.7 M 6.65,46.4 6.75,46.25 7.05,45.95 7.5,45.5 V 45.2 L 7.65,45.05 7.9,44.75 8.05,44.6 8.35,44.3 8.5,44.15 8.8,43.85 9.1,43.6 9.4,43.3 9.7,43 l 0.15,-0.15 0.3,-0.3 0.45,-0.45 0.25,-0.3 0.3,-0.3 0.3,-0.3 0.15,-0.15 0.3,-0.3 0.3,-0.25 0.15,-0.15 0.2,-0.2 0.15,0.35 0.6,0.6 1,0.25 -0.1,0.1 -0.15,0.2 v 0.15 l -0.2,0.2 -0.2,0.15 -0.05,0.1 -0.2,0.2 -0.2,0.15 -0.15,0.2 -0.2,0.2 v 0.15 l -0.2,0.2 -0.05,0.1 -0.2,0.15 -0.65,0.65 -0.15,0.2 -0.1,0.05 -0.2,0.2 -0.6,0.65 -0.2,0.15 -0.1,0.1 -0.15,0.2 -0.3,0.25 -0.15,0.2 -0.1,0.1 H 8.6 L 6.65,46.4 m 7.6,-8 0.15,-0.15 0.3,-0.3 0.45,-0.4 0.3,-0.3 0.3,-0.3 0.15,-0.15 0.3,-0.3 0.15,-0.15 0.25,-0.3 0.3,-0.3 0.3,-0.3 0.3,-0.3 0.15,-0.15 0.3,-0.25 0.3,-0.3 0.15,-0.15 0.3,-0.3 0.15,-0.15 h -0.3 -0.3 -0.3 -0.45 -0.3 -0.3 -0.3 -0.25 -0.3 -0.3 H 15.3 15 14.7 14.4 14.1 13.8 13.55 13.1 12.8 12.5 12.4 l 0.2,-0.2 1.1,-0.9 0.9,-1 h 0.15 0.2 0.25 0.2 0.15 0.2 0.2 0.15 0.2 0.25 0.2 0.15 0.2 0.2 0.15 0.2 0.25 0.2 0.2 0.15 0.2 0.15 0.2 0.25 0.2 0.2 0.15 0.2 0.2 0.15 0.3 0.15 0.2 0.15 0.2 0.2 0.15 0.3 0.15 0.2 0.2 0.15 0.2 0.15 0.3 0.15 0.2 0.2 l 0.15,-0.05 h 0.1 l -0.1,0.05 H 23.9 l -0.1,0.1 -0.2,0.2 -0.1,0.1 -0.15,0.15 -0.2,0.2 -0.1,0.1 -0.15,0.15 -0.2,0.2 -0.15,0.2 -0.2,0.15 -0.1,0.1 -0.2,0.2 -0.05,0.05 -0.2,0.2 -0.2,0.2 -0.25,0.25 -0.2,0.2 -0.15,0.15 -0.1,0.1 -0.2,0.2 -0.05,0.1 -0.2,0.15 -0.2,0.2 -0.15,0.15 -0.2,0.2 -0.1,0.1 -0.15,0.15 -0.2,0.2 -0.1,0.1 -0.15,0.15 -0.2,0.2 -0.2,0.2 -0.25,0.25 -0.2,0.2 -0.05,0.1 -0.2,0.15 -0.2,0.2 -0.15,0.15 -0.2,0.2 -0.1,0.1 -0.15,0.15 V 38.4 L 16,38.3 14.6,38.4 H 14.25 M 9.95,33.85 H 9.7 9.4 9.1 8.65 8.35 8.05 7.75 7.5 7.2 6.9 6.45 6.15 5.85 5.55 5.25 4.95 4.7 4.25 3.95 3.65 3.35 3.05 2.75 L 2.45,33.7 H 2 1.7 1.45 1.35 l 1.4,-1.4 0.8,-0.8 h 0.2 0.15 0.2 0.25 0.2 0.15 0.2 0.2 0.45 0.15 0.2 0.2 0.15 0.2 0.6 0.2 l 0.2,0.1 H 7.6 7.8 7.95 l 0.2,0.1 h 0.3 0.15 0.2 0.15 0.2 0.2 0.15 0.3 l 0.15,0.05 h 0.2 0.15 0.05 q -0.45,0.5 -0.55,0.9 -0.15,0.4 0,0.85 l 0.15,0.35 M 1.35,23.35 H 1.45 1.7 2 2.45 l 0.3,-0.15 h 0.3 0.3 0.3 0.3 0.3 0.45 0.25 0.3 0.3 0.3 0.3 0.3 0.45 0.3 0.3 0.25 0.3 0.3 0.3 0.45 0.3 0.3 0.25 L 9.8,23.5 q -0.15,0.45 0,0.85 0.1,0.4 0.55,0.9 H 10.3 10.15 9.95 L 9.8,25.35 H 9.5 9.35 9.15 8.95 8.8 8.6 8.45 8.15 l -0.2,0.1 H 7.8 7.6 7.45 l -0.2,0.1 H 7.05 6.45 6.25 6.1 5.9 5.7 5.1 4.9 4.7 4.55 4.35 4.1 3.9 3.75 3.55 L 2.75,24.7 1.35,23.35 m 11.1,-0.15 h 0.05 0.3 0.3 0.45 0.25 0.3 0.3 0.3 0.3 0.3 0.45 0.3 0.3 0.25 0.3 0.3 0.3 0.45 0.3 0.3 0.3 l 0.3,0.15 h 0.3 0.1 L 19.3,23.05 H 19 l -0.15,-0.1 -0.3,-0.3 -0.15,-0.15 -0.3,-0.3 -0.3,-0.3 -0.15,-0.15 -0.3,-0.3 -0.3,-0.3 -0.3,-0.3 -0.25,-0.3 -0.15,-0.15 -0.3,-0.3 -0.15,-0.1 -0.3,-0.3 -0.3,-0.3 -0.45,-0.45 -0.3,-0.3 -0.1,-0.1 h 0.2 l 1.35,0.15 1.4,-0.05 0.15,0.1 0.1,0.1 0.2,0.2 0.15,0.15 0.2,0.2 0.15,0.15 0.1,0.1 0.2,0.2 0.25,0.25 0.2,0.2 0.15,0.2 0.2,0.15 0.1,0.1 0.15,0.2 0.2,0.15 0.1,0.1 0.2,0.2 0.15,0.15 0.2,0.2 0.15,0.15 0.1,0.1 0.2,0.2 0.1,0.1 0.15,0.15 0.2,0.2 0.25,0.25 0.2,0.2 0.15,0.2 0.1,0.05 0.2,0.2 0.1,0.1 0.15,0.15 0.2,0.2 0.2,0.2 0.15,0.15 0.1,0.1 0.2,0.2 0.15,0.15 0.1,0.1 0.2,0.2 0.05,0.1 h 0.2 l 0.2,0.15 h -0.1 -0.2 L 23.9,25.25 H 23.7 23.5 23.35 23.05 22.9 22.7 22.55 22.35 22.15 22 21.7 21.55 21.35 21.15 21 20.8 20.65 20.35 20.2 20 19.8 19.65 19.45 19.25 19 18.8 18.65 18.45 18.3 18.1 17.9 17.65 17.45 17.3 17.1 16.9 16.75 16.55 16.3 16.1 15.95 15.75 15.55 15.4 15.2 14.95 14.75 14.6 l -0.9,-1 -1.1,-0.9 -0.15,-0.15 m 0.2,-6.45 -0.15,-0.15 -0.15,-0.15 -0.3,-0.3 -0.3,-0.3 L 11.6,15.7 11.3,15.4 11,15.1 10.7,14.8 10.3,14.35 10,14.1 9.85,13.95 9.55,13.65 9.25,13.35 8.95,13.05 8.65,12.75 8.5,12.6 8.2,12.3 8.05,12.15 7.75,11.85 7.65,11.7 V 11.4 L 7.2,11 6.9,10.7 6.8,10.6 h 1.9 1.1 l 0.05,0.1 0.2,0.2 0.25,0.25 0.2,0.2 0.1,0.1 0.2,0.15 0.35,0.4 0.15,0.15 0.1,0.1 0.2,0.2 0.1,0.05 0.15,0.2 0.55,0.55 v 0.2 l 0.2,0.15 0.05,0.1 0.2,0.2 0.1,0.05 0.2,0.2 0.15,0.2 0.2,0.15 0.15,0.2 0.1,0.1 0.2,0.15 0.15,0.2 v 0.15 l 0.2,0.2 0.15,0.15 -1.1,0.2 -0.6,0.6 -0.1,0.3 m 13.85,-1.2 v 0.3 L 26.65,16 v -0.15 l -0.15,-0.3 m 2.1,5 0.05,0.2 v 0.1 l -0.05,-0.1 v -0.2 m -9.75,13.3 h 0.3 L 19.3,33.7 h -0.15 l -0.3,0.15"
         fill="#ffffff"
         fill-rule="evenodd"
         stroke="none"
         id="path7" />
    </g>
    <g
       id="shape2"
       transform="translate(1.5,1.5)">
      <path
         d="M 0,23.8 V 0 H 64.1 V 23.8 57.55 H 0 Z"
         fill="none"
         stroke="#000000"
         stroke-linecap="round"
         stroke-linejoin="round"
         stroke-width="3"
         id="path8" />
    </g>
  </defs>
</svg>
