<?xml version="1.0" encoding="UTF-8" standalone="no"?>
<svg
   ffdec:objectType="frame"
   height="44.349998"
   width="78.599998"
   version="1.1"
   id="svg11"
   sodipodi:docname="192.svg"
   xmlns:inkscape="http://www.inkscape.org/namespaces/inkscape"
   xmlns:sodipodi="http://sodipodi.sourceforge.net/DTD/sodipodi-0.dtd"
   xmlns:xlink="http://www.w3.org/1999/xlink"
   xmlns="http://www.w3.org/2000/svg"
   xmlns:svg="http://www.w3.org/2000/svg"
   xmlns:ffdec="https://www.free-decompiler.com/flash">
  <sodipodi:namedview
     id="namedview11"
     pagecolor="#ffffff"
     bordercolor="#000000"
     borderopacity="0.25"
     inkscape:showpageshadow="2"
     inkscape:pageopacity="0.0"
     inkscape:pagecheckerboard="0"
     inkscape:deskcolor="#d1d1d1"
     fit-margin-top="5"
     fit-margin-left="5"
     fit-margin-right="5"
     fit-margin-bottom="5" />
  <g
     transform="translate(2,2.05)"
     id="g3">
    <use
       ffdec:characterId="1"
       height="42.700001"
       transform="translate(-1.75,-2)"
       width="76.449997"
       xlink:href="#shape0"
       id="use1" />
    <use
       ffdec:characterId="189"
       height="41.400002"
       transform="translate(-0.6,-0.3)"
       width="75.75"
       xlink:href="#shape1"
       id="use2" />
    <use
       ffdec:characterId="3"
       height="44.349998"
       transform="translate(-2,-2.05)"
       width="78.599998"
       xlink:href="#shape2"
       id="use3" />
  </g>
  <defs
     id="defs11">
    <g
       id="shape0"
       transform="translate(1.75,2)">
      <path
         d="M 2.8,0 V -0.4 H 5.4 V 0 H 9.7 V 19.45 0 H 20.55 L 19.3,19.45 H 9.7 0.25 V 0 H 2.8"
         fill="#ffffff"
         fill-rule="evenodd"
         stroke="none"
         id="path3" />
      <path
         d="M 0.25,19.45 H 9.7 19.3 L 18.7,28.6 16,28.5 10.95,27.95 9.7,27.8 Q 7.45,27.6 5.85,27.75 4.05,27.9 1.5,28.6 0.75,28.8 0.25,29.15 v -9.7 m 9.45,0 v 8.35 -8.35"
         fill="#121212"
         fill-rule="evenodd"
         stroke="none"
         id="path4" />
      <path
         d="m 9.7,27.8 1.25,0.15 5.05,0.55 2.7,0.1 h 1.05 l 3.75,0.15 q 2.45,0.3 3.6,1.25 0.6,0.5 0.6,1.1 0,0.65 -0.8,1 l -1.3,0.2 -7.15,0.15 -5.6,-0.3 L 9.7,31.75 7.95,31.6 3.1,31.95 0.95,32.3 0.25,32.1 -0.35,31.55 -0.5,31.3 V 29.9 L 0.25,29.15 Q 0.75,28.8 1.5,28.6 4.05,27.9 5.85,27.75 7.45,27.6 9.7,27.8 v 3.95 -3.95"
         fill="#999999"
         fill-rule="evenodd"
         stroke="none"
         id="path5" />
      <path
         d="M 2.8,0 H 0.25 M 9.7,0 H 5.4 m 16.15,0 h 10.7 M 20.55,0 H 9.7"
         fill="none"
         stroke="#666666"
         stroke-linecap="round"
         stroke-linejoin="round"
         stroke-width="4"
         id="path6" />
      <path
         d="m 9.7,-0.4 h 65 V 40.5 H 47.05 L 45.5,40.7 27,40.65 25.95,40.5 H 9.7 -0.5 V -0.4 H 9.7 V 40.5 -0.4"
         fill="#ffffff"
         fill-rule="evenodd"
         stroke="none"
         id="path7" />
    </g>
    <g
       id="shape1"
       transform="translate(0.6,0.3)">
      <path
         d="m 59,19.65 0.95,-0.15 q 0.15,-0.4 0.45,-0.65 0.4,-0.4 1.1,-0.5 1.1,-0.2 1.8,0.35 0.5,0.45 0.7,1.2 l 0.1,1.1 -0.35,0.8 q 0.5,-0.35 1.1,-0.55 l 0.7,-0.15 h 0.1 q -1.4,-2.45 -1.05,-4.75 0.1,-0.6 0.35,-0.85 0.15,-0.5 0.7,-0.55 L 65.8,14.9 H 66 l 0.2,-0.1 v -0.05 l 0.2,-0.05 -1.35,-0.85 q -0.25,0.5 -1,0.6 L 63.2,14.3 62.35,13.65 Q 62,13.05 62.2,12.25 62.35,11.7 62.65,11.4 l 0.55,-0.3 0.15,-0.65 0.35,-0.65 0.35,-0.3 1,-0.1 q 0.45,0.1 0.75,0.4 l 0.45,0.65 q 0.4,0.9 0.2,1.55 l -0.05,0.2 0.15,0.2 1.05,1.05 0.05,-0.3 V 13.1 L 67.3,12.55 q -0.05,-0.4 0.3,-0.8 l 0.5,-0.3 q 0.1,-0.4 0.5,-0.85 L 68.95,10.2 70.2,9.15 71,8.8 l 0.9,0.15 0.2,0.6 h 0.05 L 72.35,9.8 72.4,9.75 72.1,8.05 71.9,7.95 Q 71.25,7.8 70.75,6.85 L 70.5,6.15 70.6,5.3 q 0.2,-0.5 0.7,-0.7 l 0.4,-0.2 0.7,0.2 q 0.4,0.05 0.7,0.25 l 0.55,-0.3 0.95,0.1 0.55,0.3 V 7.6 L 74.2,7.9 74.1,9.5 74.25,9.4 h 0.05 l 0.35,-0.25 0.1,-0.1 0.4,-0.25 v 29.5 l -0.85,1.1 q -1,0.65 -2.1,0.25 -1.1,-0.3 -1.45,-1.5 -1.1,-0.25 -1.7,-1.15 -0.55,-0.95 -0.4,-2 l 0.1,-0.65 -0.15,-0.8 q -0.15,-0.6 0.1,-1.2 L 64,32.2 60,31.55 q -0.85,-0.4 -1.2,-1 -0.35,-0.6 -0.15,-1.75 l 0.1,-0.7 q 0.3,-1.05 0.75,-1.9 l 0.7,-1 q 0.55,-0.45 1.05,-0.3 0.45,0.15 0.65,0.5 h 0.05 l 0.15,0.05 V 25.4 L 62.05,25.05 60.95,23.7 H 60.6 q -0.8,0.25 -1.9,-0.45 l -0.75,-0.6 Q 57.55,22.2 57.5,21.6 57.45,20.95 57.75,20.4 L 58.2,19.9 59,19.65 m 6.3,-13.2 0.2,0.2 0.7,0.15 0.7,0.15 q 0.65,0.25 0.95,1.3 L 67.9,9 67.65,9.3 67.3,9.25 67.05,8.6 Q 66.9,8.05 66.4,7.95 L 65.65,7.9 Q 64.75,7.9 64.2,7.2 63.65,6.5 64,5.65 L 64.25,5 64.2,4.65 64.45,4.25 65,4.2 q 0.4,0.2 0.5,0.9 0.1,0.45 -0.15,0.9 L 65.3,6.45 m -5.85,5.8 q -0.35,-0.45 -0.3,-0.95 0,-0.6 0.6,-0.7 L 60,11.45 q 0.95,0.3 1.2,1.4 0.2,1.05 -0.65,1.7 l -0.5,0.6 Q 59.9,15.5 60.3,16 l 0.85,0.65 q -0.2,0.45 -0.7,0.25 l -0.6,-0.55 -0.6,-1.2 q -0.2,-0.7 0.2,-1.25 l 0.5,-0.8 -0.5,-0.85 m -42.15,2.4 0.8,0.25 0.45,0.5 q 0.3,0.55 0.25,1.2 -0.05,0.6 -0.45,1.05 l -0.75,0.6 q -1.1,0.7 -1.9,0.45 h -0.35 l -1.4,1.7 v 0.05 l 0.4,-0.05 h 0.05 l 0.65,-0.5 q 0.5,-0.15 1.05,0.3 l 0.55,0.75 0.3,-0.4 0.5,-0.45 Q 18.3,19.35 19.1,19 l 2,-0.05 0.75,0.55 q 0.3,0.45 0.15,0.95 l -0.45,0.65 -0.1,0.25 -0.8,1.9 -0.2,0.7 q -0.35,0.8 -1.1,1.45 l -0.7,0.4 q -0.6,0.25 -1.3,0 l -1.05,0.75 q -1.1,0.5 -4,0.65 l -0.65,0.05 -1.5,1.35 -0.8,0.4 q -0.55,0.25 -0.8,0.5 l -0.95,1.05 -5.3,7.15 -1.5,1.45 -1.4,0.4 v -13.1 l 0.7,-1.9 -0.7,-0.25 v -3.9 l 0.15,-0.2 0.1,-0.1 -0.25,-0.3 v -6.9 l 0.25,0.5 0.1,-0.2 H -0.2 L -0.1,13 -0.05,12.8 0,12.65 q 0.1,-0.5 0.55,-0.7 l 0.9,-0.2 Q 2,11.3 2.6,11 L 3.55,10.7 Q 4.05,10.65 4.4,11 l 0.1,0.1 0.35,0.25 H 4.9 l 0.15,0.1 -0.1,-1.6 Q 4.35,9.9 3.85,9.4 3.6,9.1 3.5,8.6 3.35,8.05 3.5,7.55 3.75,6.9 4.55,6.6 L 5.5,6.5 6.05,6.8 q 0.3,-0.2 0.7,-0.25 l 0.7,-0.2 0.4,0.2 0.7,0.7 L 8.65,8.1 8.4,8.8 Q 7.9,9.75 7.25,9.9 L 7.05,10 6.75,11.7 6.8,11.75 7,11.5 h 0.05 l 0.2,-0.6 0.9,-0.15 q 0.4,0.1 0.8,0.35 l 1.25,1.05 0.35,0.4 q 0.6,0.7 0.6,1.25 0,0.55 -0.4,1.1 -0.5,0.75 -2.15,1.8 L 8.65,17 9.8,16.95 11,17.25 q 0.6,0.25 0.75,0.85 l 0.1,0.2 0.05,0.25 0.1,0.25 0.1,0.05 0.1,0.25 0.9,-1.9 q -0.7,-0.3 -0.9,-1.2 -0.1,-0.5 0.1,-1.1 0.2,-0.75 0.7,-1.2 0.7,-0.55 1.8,-0.35 0.7,0.1 1.1,0.5 l 0.45,0.65 0.95,0.15 m -6.25,-9.4 q 0.5,-0.65 0.4,-1.3 L 11.35,3.1 q 0,-0.65 0.5,-0.55 0.4,0 0.5,0.65 L 12.5,4 12.15,5.1 11.2,6.15 q -0.55,0.55 -0.5,0.8 l 0.15,0.4 q 0.1,0.3 -0.15,0.3 L 10.5,7.6 Q 9.85,7 10.2,6.2 l 0.85,-0.95 m 5.8,7.65 q -0.3,0.05 -0.4,-0.4 -0.1,-0.5 0.1,-1 l 0.7,-0.7 0.85,-0.35 0.45,-0.8 V 9 q 0.1,-0.35 0.5,-0.45 0.4,0 0.6,0.3 l 0.05,0.5 q 0,0.8 -0.4,1.45 -0.45,0.7 -1.25,0.85 -0.6,0.1 -0.7,0.25 -0.15,0.15 -0.15,0.55 L 16.85,12.9 M 5.7,1 Q 5.5,0.45 5.65,0.15 5.85,-0.4 6.35,-0.3 L 7.1,0.45 7.35,1.2 7,2.75 6,3.9 q 0.25,0.45 0.15,1 L 6.3,5.1 6.15,5.3 5.65,5.2 5.4,4.75 Q 5.1,3.85 5.2,3.3 L 5.7,2.45 Q 6.1,1.95 5.95,1.55 L 5.7,1 M -0.35,11 -0.6,11.6 V 9.7 l 0.2,0.45 q 0.1,0.45 0.05,0.85"
         fill="#767676"
         fill-rule="evenodd"
         stroke="none"
         id="path8" />
      <path
         d="m 31.2,2.6 4.35,-0.5 2,0.05 1.5,-0.05 4.35,0.5 q 1.65,0.45 3.2,1.35 l 1.8,-0.3 3.65,0.25 1.5,0.4 q 0.8,0.45 0.9,1.3 v 1 l -0.5,3.25 -0.4,1.3 1.25,2.9 q 1.1,3.65 -0.3,6.25 h 0.1 q 6.4,1.8 11.65,6.9 4.55,4.5 7.75,11.05 0.55,0.95 0.7,1.8 V 41.1 H -0.05 L -0.1,40.05 Q 0.05,39.2 0.55,38.25 3.75,31.7 8.3,27.2 13.55,22.1 20,20.3 h 0.1 Q 18.7,17.7 19.75,14.05 20.2,12.6 21,11.15 L 20.6,9.85 20.15,6.6 v -1 Q 20.25,4.75 21,4.3 l 1.5,-0.4 3.7,-0.25 1.8,0.3 q 1.55,-0.9 3.2,-1.35 m 11.6,6.25 q -0.25,0.4 -0.1,0.8 0.15,0.45 0.55,0.6 0.35,0.2 1.1,0 l 1.05,-0.4 q 1,-0.15 1.75,0.35 l 0.65,0.5 0.7,0.25 0.5,-0.3 0.15,-0.55 -0.6,-0.8 -1.45,-1.05 -2.8,-0.1 q -1.2,0.2 -1.5,0.7 M 24.85,30.7 25.65,30 26.35,29.7 28,29.3 h 1 l 1.6,0.4 3.5,2.1 -2.35,1.8 -2.45,1.4 q -1.5,0.75 -3.2,0.55 L 25.15,35.3 Q 24.5,34.9 23.9,33.7 23.6,32.9 23.7,32.55 l 0.2,-0.45 0.95,-1.4 m 11.4,-16.8 0.9,-0.6 0.9,0.6 1.3,0.65 0.45,0.2 v 0.55 l -0.05,0.45 -1,-0.25 q -0.75,0 -1.4,0.3 L 36.5,15.15 34.85,15.2 34.8,15.25 V 14.6 l 0.15,-0.05 1.3,-0.65 M 31.5,8.85 Q 31.2,8.35 30,8.15 l -2.8,0.1 Q 26.65,8.5 25.75,9.3 25.2,9.75 25.15,10.1 l 0.15,0.55 q 0.2,0.25 0.5,0.3 l 0.7,-0.25 0.65,-0.5 Q 27.9,9.7 28.9,9.85 l 1.05,0.4 q 0.75,0.2 1.1,0 l 0.55,-0.6 q 0.15,-0.4 -0.1,-0.8 m 16.55,24.4 -0.85,0.7 -0.7,0.35 -1.65,0.4 h -1 l -1.6,-0.4 -3.45,-2.2 2.35,-1.7 q 1.55,-1.05 2.4,-1.4 1.55,-0.75 3.25,-0.55 l 0.95,0.25 Q 48.4,29.1 49,30.25 L 49.15,31.4 49,31.8 48.05,33.25 M 37.15,29 36.5,29.4 q -2.55,-2.25 -4.75,-3 -3.4,-1.25 -6.5,-0.05 -3.35,1.35 -4.4,4.4 -0.5,1.65 -0.15,3.3 0.35,1.7 1.55,2.95 1.3,1.35 3.35,1.75 1.9,0.45 3.75,-0.05 2.75,-0.75 6.4,-3.7 l 0.65,-0.4 q 2.5,2.25 4.75,3 3.35,1.25 6.5,0.05 3.35,-1.4 4.4,-4.4 0.45,-1.65 0.1,-3.3 -0.35,-1.8 -1.5,-2.95 -1.3,-1.35 -3.35,-1.85 -1.9,-0.4 -3.8,0.05 -2.7,0.85 -6.35,3.8 M 29.3,14.25 q 1.7,1.15 3.85,0.8 L 33.1,15.8 q -0.1,0.55 0.05,0.95 l 0.4,0.8 0.1,0.1 -0.35,1.4 v 0.7 l 0.2,0.85 0.15,0.4 0.4,0.45 1.35,0.95 2.2,0.15 q 1,-0.35 1.8,-1.55 l 0.3,-0.6 0.2,-0.85 V 18.9 l 0.6,-0.4 0.55,-0.45 0.35,-0.6 0.45,-1.15 v -0.95 l 0.05,-0.2 q 1.65,0.05 3.1,-0.9 l 0.45,-0.35 0.6,-0.75 0.05,-0.5 L 46,12.3 45.7,12.1 44.5,12.7 43.6,13 41.6,12.95 40.1,12.4 38.45,11.3 37.95,10.85 37.7,10.65 37.5,10.5 H 37.15 36.8 l -0.2,0.15 q -0.1,0.05 -0.25,0.2 l -0.5,0.45 -1.65,1.1 -1.5,0.55 -2,0.05 -0.9,-0.3 -1.2,-0.6 q -0.2,0 -0.3,0.2 l -0.1,0.35 0.05,0.5 0.6,0.75 0.45,0.35"
         fill="#000000"
         fill-rule="evenodd"
         stroke="none"
         id="path9" />
      <path
         d="m 42.8,8.85 q 0.3,-0.5 1.5,-0.7 l 2.8,0.1 1.45,1.05 0.6,0.8 -0.15,0.55 -0.5,0.3 -0.7,-0.25 -0.65,-0.5 Q 46.4,9.7 45.4,9.85 l -1.05,0.4 q -0.75,0.2 -1.1,0 -0.4,-0.15 -0.55,-0.6 -0.15,-0.4 0.1,-0.8 m -13.5,5.4 -0.45,-0.35 -0.6,-0.75 -0.05,-0.5 0.1,-0.35 q 0.1,-0.2 0.3,-0.2 l 1.2,0.6 0.9,0.3 2,-0.05 1.5,-0.55 1.65,-1.1 0.5,-0.45 q 0.15,-0.15 0.25,-0.2 l 0.2,-0.15 h 0.35 0.35 l 0.2,0.15 0.25,0.2 0.5,0.45 1.65,1.1 1.5,0.55 2,0.05 0.9,-0.3 1.2,-0.6 0.3,0.2 0.1,0.35 -0.05,0.5 -0.6,0.75 -0.45,0.35 q -1.45,0.95 -3.1,0.9 l -0.05,0.2 v 0.95 l -0.45,1.15 -0.35,0.6 -0.55,0.45 -0.6,0.4 v 0.65 L 39.7,20.4 39.4,21 q -0.8,1.2 -1.8,1.55 L 35.4,22.4 34.05,21.45 33.65,21 33.5,20.6 33.3,19.75 v -0.7 l 0.35,-1.4 -0.1,-0.1 -0.4,-0.8 Q 33,16.35 33.1,15.8 l 0.05,-0.75 Q 31,15.4 29.3,14.25 M 37.15,29 q 3.65,-2.95 6.35,-3.8 1.9,-0.45 3.8,-0.05 2.05,0.5 3.35,1.85 1.15,1.15 1.5,2.95 0.35,1.65 -0.1,3.3 -1.05,3 -4.4,4.4 -3.15,1.2 -6.5,-0.05 -2.25,-0.75 -4.75,-3 L 35.75,35 q -3.65,2.95 -6.4,3.7 -1.85,0.5 -3.75,0.05 -2.05,-0.4 -3.35,-1.75 -1.2,-1.25 -1.55,-2.95 -0.35,-1.65 0.15,-3.3 1.05,-3.05 4.4,-4.4 3.1,-1.2 6.5,0.05 2.2,0.75 4.75,3 L 37.15,29 M 48.05,33.25 49,31.8 49.15,31.4 49,30.25 Q 48.4,29.1 47.75,28.7 L 46.8,28.45 q -1.7,-0.2 -3.25,0.55 -0.85,0.35 -2.4,1.4 l -2.35,1.7 3.45,2.2 1.6,0.4 h 1 l 1.65,-0.4 0.7,-0.35 0.85,-0.7 M 31.5,8.85 q 0.25,0.4 0.1,0.8 l -0.55,0.6 q -0.35,0.2 -1.1,0 L 28.9,9.85 q -1,-0.15 -1.75,0.35 l -0.65,0.5 -0.7,0.25 Q 25.5,10.9 25.3,10.65 L 25.15,10.1 Q 25.2,9.75 25.75,9.3 26.65,8.5 27.2,8.25 L 30,8.15 q 1.2,0.2 1.5,0.7 m 4.75,5.05 -1.3,0.65 -0.15,0.05 v 0.65 l 0.05,-0.05 1.65,-0.05 0.85,0.65 q 0.65,-0.3 1.4,-0.3 l 1,0.25 0.05,-0.45 v -0.55 l -0.45,-0.2 -1.3,-0.65 -0.9,-0.6 -0.9,0.6 m -11.4,16.8 -0.95,1.4 -0.2,0.45 q -0.1,0.35 0.2,1.15 0.6,1.2 1.25,1.6 l 0.95,0.25 q 1.7,0.2 3.2,-0.55 L 31.75,33.6 34.1,31.8 30.6,29.7 29,29.3 h -1 l -1.65,0.4 -0.7,0.3 -0.8,0.7"
         fill="#ffffff"
         fill-rule="evenodd"
         stroke="none"
         id="path10" />
    </g>
    <g
       id="shape2"
       transform="translate(2,2.05)">
      <path
         d="M -0.5,-0.4 V -0.55 H 75.1 V -0.4 40.8 H -0.5 Z"
         fill="none"
         stroke="#000000"
         stroke-linecap="round"
         stroke-linejoin="round"
         stroke-width="3"
         id="path11" />
    </g>
  </defs>
</svg>
