<?xml version="1.0" encoding="UTF-8" standalone="no"?>
<svg
   ffdec:objectType="frame"
   height="44.349998"
   width="78.599998"
   version="1.1"
   id="svg14"
   sodipodi:docname="103.svg"
   xmlns:inkscape="http://www.inkscape.org/namespaces/inkscape"
   xmlns:sodipodi="http://sodipodi.sourceforge.net/DTD/sodipodi-0.dtd"
   xmlns:xlink="http://www.w3.org/1999/xlink"
   xmlns="http://www.w3.org/2000/svg"
   xmlns:svg="http://www.w3.org/2000/svg"
   xmlns:ffdec="https://www.free-decompiler.com/flash">
  <sodipodi:namedview
     id="namedview14"
     pagecolor="#ffffff"
     bordercolor="#000000"
     borderopacity="0.25"
     inkscape:showpageshadow="2"
     inkscape:pageopacity="0.0"
     inkscape:pagecheckerboard="0"
     inkscape:deskcolor="#d1d1d1"
     fit-margin-top="5"
     fit-margin-left="5"
     fit-margin-right="5"
     fit-margin-bottom="5" />
  <g
     transform="translate(2,2.05)"
     id="g3">
    <use
       ffdec:characterId="1"
       height="42.700001"
       transform="translate(-1.75,-2)"
       width="76.449997"
       xlink:href="#shape0"
       id="use1" />
    <use
       ffdec:characterId="101"
       height="32.450001"
       transform="translate(-0.55,8.1)"
       width="75.949997"
       xlink:href="#shape1"
       id="use2" />
    <use
       ffdec:characterId="3"
       height="44.349998"
       transform="translate(-2,-2.05)"
       width="78.599998"
       xlink:href="#shape2"
       id="use3" />
  </g>
  <defs
     id="defs14">
    <g
       id="shape0"
       transform="translate(1.75,2)">
      <path
         d="M 2.8,0 V -0.4 H 5.4 V 0 H 9.7 V 19.45 0 H 20.55 L 19.3,19.45 H 9.7 0.25 V 0 H 2.8"
         fill="#ffffff"
         fill-rule="evenodd"
         stroke="none"
         id="path3" />
      <path
         d="M 0.25,19.45 H 9.7 19.3 L 18.7,28.6 16,28.5 10.95,27.95 9.7,27.8 Q 7.45,27.6 5.85,27.75 4.05,27.9 1.5,28.6 0.75,28.8 0.25,29.15 v -9.7 m 9.45,0 v 8.35 -8.35"
         fill="#121212"
         fill-rule="evenodd"
         stroke="none"
         id="path4" />
      <path
         d="m 9.7,27.8 1.25,0.15 5.05,0.55 2.7,0.1 h 1.05 l 3.75,0.15 q 2.45,0.3 3.6,1.25 0.6,0.5 0.6,1.1 0,0.65 -0.8,1 l -1.3,0.2 -7.15,0.15 -5.6,-0.3 L 9.7,31.75 7.95,31.6 3.1,31.95 0.95,32.3 0.25,32.1 -0.35,31.55 -0.5,31.3 V 29.9 L 0.25,29.15 Q 0.75,28.8 1.5,28.6 4.05,27.9 5.85,27.75 7.45,27.6 9.7,27.8 v 3.95 -3.95"
         fill="#999999"
         fill-rule="evenodd"
         stroke="none"
         id="path5" />
      <path
         d="M 2.8,0 H 0.25 M 9.7,0 H 5.4 m 16.15,0 h 10.7 M 20.55,0 H 9.7"
         fill="none"
         stroke="#666666"
         stroke-linecap="round"
         stroke-linejoin="round"
         stroke-width="4"
         id="path6" />
      <path
         d="m 9.7,-0.4 h 65 V 40.5 H 47.05 L 45.5,40.7 27,40.65 25.95,40.5 H 9.7 -0.5 V -0.4 H 9.7 V 40.5 -0.4"
         fill="#ffffff"
         fill-rule="evenodd"
         stroke="none"
         id="path7" />
    </g>
    <g
       id="shape1"
       transform="translate(0.55,-8.1)">
      <path
         d="m 66.7,21.25 q 2.85,-1.5 5.8,-1.35 1.6,0.1 2.9,0.65 V 34.2 h -0.35 v 0.05 0.1 0.15 0.1 l 0.05,0.05 v 0.05 0.1 0.15 l 0.05,0.1 v 0.1 0.1 0.15 0.1 0.15 0.1 0.1 0.1 0.15 0.1 0.15 0.1 0.1 0.1 0.15 0.1 0.15 0.1 0.1 0.1 0.15 0.1 0.15 0.1 0.1 l -0.05,0.1 v 0.1 l -0.05,0.05 v 0.1 L 75,38.35 v 0.1 l -0.05,0.1 v 0.1 0.1 L 75,38.8 v 0.1 0.1 0.05 l -0.05,0.05 v 0.1 0.05 l -0.05,0.05 -0.05,0.05 v 0.1 l -0.05,0.05 -0.05,0.05 v 0.05 l -0.1,0.1 -0.05,0.05 -0.1,0.05 -0.1,0.1 -0.1,0.05 L 74.15,40 74,40.05 h -0.2 -0.45 -0.2 -0.2 -0.15 L 72.6,40 H 72.35 L 69.6,40.05 H 68.7 L 62.65,40 h -1.3 -5.45 -9.5 l -3,-0.05 H 40.65 38.35 37.6 L 37.1,40 h -0.3 l -0.45,0.05 h -0.5 -1 l -2.8,0.05 H 30.1 L 28,40.05 H 26.6 24.45 L 22.65,40 h -3.2 L 19.1,39.95 H 18.65 L 18.1,39.9 H 17.45 17.3 l -1,0.3 q -1.15,0.1 -1.75,-0.95 l -0.4,-1.4 q -0.1,-1.8 0.1,-3.05 0.1,-0.9 0.5,-1.35 l 0.1,-0.1 q 0.3,-0.3 0.75,-0.5 1.65,-0.95 3.95,-2.2 h 0.05 l 1.1,-0.8 3.85,-2.05 q 1.1,-0.6 1.7,-0.65 l 1.9,0.3 0.25,-0.05 q 2,-0.3 2.35,-3.1 0.95,-1.5 2.2,-2.8 H 33 q 1.7,-2.35 3.95,-4.4 4.25,-3.8 9.55,-5.9 l 0.35,-0.05 0.2,0.2 -0.2,0.2 -1.75,0.8 q -0.9,0.45 -1.85,1.15 l -1.15,1 -3.8,3.45 q -2,2 -3.25,3.9 l -0.5,0.85 0.35,0.05 0.55,0.2 0.2,-0.35 0.45,-0.7 0.65,-0.9 q 1.05,-1.3 3.85,-3.9 l 1.75,-1.6 q 0.2,-0.2 0.35,-0.1 0.3,0.1 -0.05,0.4 l -1.55,1.75 -1.5,2.05 -1,1.55 q -0.8,1.1 -1.15,1.95 l -0.25,0.75 1,0.55 0.2,0.1 1.1,-0.45 3.5,-0.5 2.75,-0.2 0.55,-0.75 q 1.55,-1.75 3.05,-2.5 2.05,-1.05 3.95,-0.6 0.95,0.3 1.95,1.05 l 1.2,1.05 0.2,-0.05 0.15,-0.05 2.95,-0.3 1.3,0.1 1.5,0.3 1,0.45 0.9,0.6 2.25,-1.4 M 29.1,16 q 4.45,-3.6 9.6,-6.4 l 0.2,-0.1 0.15,0.15 -0.15,0.2 Q 33.45,13.7 28.75,18.2 l 0.1,-0.35 0.15,-0.2 0.15,-0.5 L 29.1,16 m -2.3,4.1 -1.15,1.15 -0.05,0.05 -0.4,0.6 -0.3,0.3 -0.65,0.6 -2.3,2.2 -0.25,0.25 -2.15,2.55 -1.1,1.1 -0.1,0.1 -0.15,0.2 -0.4,0.3 -0.3,-0.2 -0.1,-0.4 q 0.05,-0.6 0.45,-1.2 L 18.7,26.6 Q 17.85,27 17.1,26.4 16.35,25.85 16.6,24.95 l 0.25,-0.6 0.05,-1.4 0.2,-1.2 0.05,-0.8 L 17,20.55 Q 16.9,20.1 17.25,19.7 l 0.5,-0.35 q -0.2,-0.25 -0.1,-0.5 0.1,-0.45 1,-0.75 l 1.75,-0.3 1.6,0.25 0.8,0.35 1.2,-1.1 v 0.05 l 0.05,0.25 q 0,0.6 0.3,1.1 l 0.15,0.15 -0.4,0.4 0.45,0.4 0.15,0.15 0.5,-0.45 0.35,0.15 0.2,0.05 0.7,0.35 0.35,0.2 m 1.05,-5.55 0.35,-0.25 2.05,-1.35 1.05,-0.65 q 0.6,-0.35 0.8,-0.25 l -0.2,0.35 -0.85,0.6 -2.5,1.95 -0.65,-0.4 h -0.05 m -6.45,5.35 0.05,0.25 H 21.4 l -0.7,0.55 v 0.4 l 0.35,0.25 0.5,-0.15 0.15,-0.1 0.05,0.15 0.35,0.1 q 0.35,0 0.2,-0.25 L 22.25,20.85 V 20.7 l -0.05,-0.05 0.1,-0.1 0.35,-0.1 0.25,-0.3 -0.25,-0.3 L 22.5,19.9 22,20 h -0.05 l -0.15,-0.25 -0.15,-0.15 -0.2,0.1 -0.05,0.2 m 13.4,7.85 q 1.3,0.3 2.05,-0.8 0.75,-1.1 0.15,-2.2 -0.4,-0.8 -1.2,-0.95 l -0.4,0.05 -1.45,0.1 -0.6,0.1 q -0.6,0.1 -0.7,0.4 l 0.15,0.7 0.55,0.9 v 0.15 q 0.25,1.3 1.45,1.55 M 3.55,20.95 5.3,21.2 q 0.8,0.15 1.4,0.6 0.7,0.7 0.55,1.35 l -0.15,0.6 0.1,0.55 v 1.05 L 6.9,26.4 q -0.2,0.95 -0.25,2.9 l 0.05,0.85 0.3,0.55 0.85,2 1.1,5.05 L 8.9,39.2 8,40.2 6.6,40.55 3.8,40.3 1.95,40.35 q -1,0 -1.7,-0.6 Q -0.4,39.1 -0.4,37.4 L -0.55,27 -0.1,23.95 -0.05,23.65 -0.3,22.9 q -0.1,-0.8 0.4,-1.3 0.5,-0.55 1.55,-0.55 l 0.9,0.15 1,-0.25 m 19.5,9.55 -0.15,-0.3 q -0.05,-0.15 -0.25,-0.15 l -0.15,0.05 -0.2,0.2 -0.1,0.5 h -0.15 l -0.45,0.15 q -0.45,0.3 -0.3,0.7 l 0.3,0.3 0.4,0.05 0.3,-0.15 0.05,0.1 0.15,0.2 0.35,0.1 0.3,-0.3 0.05,-0.15 -0.05,-0.15 0.05,-0.2 0.3,-0.15 0.35,-0.25 -0.05,-0.35 -0.4,-0.1 -0.3,0.05 -0.05,-0.15 m 2.55,-0.4 q -0.2,0.35 -0.3,1.15 -0.1,0.75 0.15,1.35 0.5,1.15 1.75,1.3 l 1.2,-0.1 0.9,-0.65 q 0.75,-0.8 0.85,-1.5 0.2,-0.85 -0.3,-1.65 l -0.1,-0.35 -0.5,-1.05 q -0.3,-0.65 -0.75,-0.7 -0.35,-0.05 -1,0.5 l -1.1,0.7 -0.2,0.35 -0.6,0.65 M 32.2,28.9 32.75,28.7 33.1,28.45 33.15,28 Q 33,27.45 32.35,27.55 L 31.8,27.7 31.7,27.35 31.45,27.05 Q 31.25,27 31.1,27.25 l -0.05,0.4 v 0.5 l -0.65,0.3 -0.1,0.35 q 0.1,0.5 0.65,0.5 h 0.15 l 0.15,0.3 q 0.15,0.2 0.45,0.2 l 0.4,-0.25 0.1,-0.65"
         fill="#999999"
         fill-rule="evenodd"
         stroke="none"
         id="path8" />
      <path
         d="M 61,12.8 60.6,12.7 60.35,12.45 60.25,12 60.3,11.85 q 0.15,-0.25 0.55,-0.25 v -0.05 q 0.55,0.1 0.7,0.55 l 0.05,0.2 -0.05,0.2 -0.25,0.25 -0.3,0.05 m 2.7,1.5 -0.15,0.3 -0.25,0.2 -0.25,0.1 -0.3,-0.1 -0.25,-0.2 -0.1,-0.35 0.2,-0.5 q 0.15,-0.15 0.45,-0.15 v -0.05 l 0.3,0.1 0.1,0.1 0.15,0.1 0.1,0.3 V 14.3 M 54.95,9.05 55,9.35 54.8,9.75 54.4,9.95 53.8,9.9 53.65,9.8 53.3,9.7 52.9,9.5 52.75,9.25 52.8,8.75 53.1,8.55 h 0.7 l 0.35,0.1 h 0.1 q 0.55,0.05 0.7,0.4 M 50.65,8.4 q 0.25,0.25 0.1,0.65 V 9.2 L 50.5,9.45 49.45,9.65 48.6,9.4 Q 48.35,9.25 48.35,8.9 l 0.3,-0.5 0.5,-0.2 0.45,-0.1 h 0.05 0.25 l 0.35,0.05 0.4,0.25 m 6.8,1.4 0.05,-0.05 q 0.25,0 0.4,0.15 l 0.25,0.3 0.15,0.4 -0.1,0.25 -0.2,0.3 -0.55,0.05 q -0.3,-0.05 -0.5,-0.3 L 56.8,10.35 57,9.95 Q 57.15,9.8 57.45,9.8 M 45.4,8.3 h 0.2 l 0.15,-0.05 0.6,-0.05 q 0.4,0 0.55,0.25 l 0.15,0.5 v 0.1 L 46.8,9.7 46.1,10.1 45.65,10.25 45.2,10.5 q -0.7,0.15 -0.95,-0.45 L 44.15,9.6 44.1,9.25 q 0.1,-0.35 0.45,-0.6 l 0.3,-0.1 q 0.2,-0.2 0.55,-0.25 m -2.8,1.65 q 0.55,0.15 0.75,0.65 0.2,0.5 -0.15,0.9 l -0.7,0.5 -0.35,0.15 -0.35,0.3 -0.7,0.4 -0.35,0.1 L 40.6,13 q -0.5,0.1 -0.8,-0.3 l -0.35,-0.65 q -0.1,-0.45 0.05,-0.7 l 0.4,-0.45 0.75,-0.45 q 0.5,-0.3 0.8,-0.35 L 42.6,9.95 M 31.5,17.3 q 0.65,-0.55 1.1,-0.65 0.5,-0.1 1,0.25 0.45,0.3 0.5,0.75 0.05,0.85 -1.05,1.75 l -0.25,0.25 -0.15,0.1 -0.95,1.2 q -0.7,0.7 -1.4,0.4 l -0.15,-0.1 -0.4,-0.15 q -0.5,-0.25 -0.5,-0.75 0,-0.35 0.45,-0.85 l 0.2,-0.15 1.6,-2.05 m 4.75,-3.9 0.95,-0.7 q 0.75,-0.15 1.1,0.3 0.5,0.45 0.2,1.05 l -0.2,0.3 -0.7,0.85 -1.3,0.95 -0.65,0.3 L 34.8,16.3 Q 34.4,16 34.5,15.6 34.35,15.15 34.8,14.85 v -0.1 l 0.25,-0.25 0.55,-0.55 0.2,-0.05 0.45,-0.5"
         fill="#000000"
         fill-rule="evenodd"
         stroke="none"
         id="path9" />
      <path
         d="m 28.75,18.2 -0.35,1.05 -0.4,0.8 -0.8,0.15 -0.4,-0.1 -0.35,-0.2 -0.7,-0.35 -0.2,-0.05 -0.35,-0.15 -0.7,-0.5 -0.15,-0.15 q -0.3,-0.5 -0.3,-1.1 L 24,17.35 V 17.3 L 24.05,17 q 0.1,-0.6 0.55,-1.15 l 0.35,-0.4 0.2,-0.4 0.3,-0.3 0.65,-0.35 0.65,-0.05 0.65,0.05 0.45,0.15 h 0.05 l 0.65,0.4 0.15,0.15 0.4,0.9 0.05,1.15 -0.15,0.5 -0.15,0.2 -0.1,0.35 m -7.35,1.7 0.05,-0.2 0.2,-0.1 0.15,0.15 0.15,0.25 H 22 l 0.5,-0.1 0.15,-0.05 0.25,0.3 -0.25,0.3 -0.35,0.1 -0.1,0.1 0.05,0.05 v 0.15 l 0.05,0.25 q 0.15,0.25 -0.2,0.25 l -0.35,-0.1 -0.05,-0.15 -0.15,0.1 -0.5,0.15 -0.35,-0.25 v -0.4 l 0.7,-0.55 h 0.05 L 21.4,19.9 m 13.4,7.85 Q 33.6,27.5 33.35,26.2 v -0.15 l -0.55,-0.9 -0.15,-0.7 q 0.1,-0.3 0.7,-0.4 l 0.6,-0.1 1.45,-0.1 0.4,-0.05 q 0.8,0.15 1.2,0.95 0.6,1.1 -0.15,2.2 -0.75,1.1 -2.05,0.8 m -2.6,1.15 -0.1,0.65 -0.4,0.25 q -0.3,0 -0.45,-0.2 L 31.1,29.3 h -0.15 q -0.55,0 -0.65,-0.5 l 0.1,-0.35 0.65,-0.3 v -0.5 l 0.05,-0.4 q 0.15,-0.25 0.35,-0.2 l 0.25,0.3 0.1,0.35 0.55,-0.15 Q 33,27.45 33.15,28 l -0.05,0.45 -0.35,0.25 -0.55,0.2 m -6.6,1.2 0.6,-0.65 0.2,-0.35 1.1,-0.7 q 0.65,-0.55 1,-0.5 0.45,0.05 0.75,0.7 l 0.5,1.05 0.1,0.35 q 0.5,0.8 0.3,1.65 -0.1,0.7 -0.85,1.5 l -0.9,0.65 -1.2,0.1 Q 25.95,33.75 25.45,32.6 25.2,32 25.3,31.25 q 0.1,-0.8 0.3,-1.15 m -2.55,0.4 0.05,0.15 0.3,-0.05 0.4,0.1 0.05,0.35 -0.35,0.25 -0.3,0.15 -0.05,0.2 0.05,0.15 -0.05,0.15 -0.3,0.3 -0.35,-0.1 -0.15,-0.2 L 22.3,31.85 22,32 21.6,31.95 21.3,31.65 q -0.15,-0.4 0.3,-0.7 l 0.45,-0.15 h 0.15 l 0.1,-0.5 0.2,-0.2 0.15,-0.05 q 0.2,0 0.25,0.15 l 0.15,0.3"
         fill="#ffffff"
         fill-rule="evenodd"
         stroke="none"
         id="path10" />
      <path
         d="m 64.6,16.65 0.1,-0.15 q -0.3,-0.3 -0.25,-0.75 l 0.2,-0.5 0.3,-0.2 0.8,-0.05 0.3,0.25 0.2,0.5 0.25,0.1 h 0.05 l 0.2,0.05 0.4,0.3 h 0.1 l 0.85,-0.1 0.5,0.3 q 0.4,0.4 0.15,0.95 l -0.35,0.45 -0.55,0.15 h -0.1 l -0.1,0.2 q -0.25,0.5 -0.8,0.65 l -0.05,0.05 v 0.05 l 0.2,0.7 0.95,-0.8 0.15,-0.05 0.45,0.2 0.2,0.35 h 0.1 l 0.6,-0.7 0.25,-0.25 0.2,0.05 0.1,0.1 -0.1,0.1 v 0.15 l -0.35,0.45 -0.1,0.1 H 69.4 l -0.05,0.1 -0.1,0.05 -0.4,0.5 H 68.4 l -0.25,-0.3 -1.4,1.25 -0.15,0.1 -1.1,0.35 q -0.75,-0.1 -1.25,-0.5 -0.5,-0.5 -0.5,-1.25 0.1,-0.65 0.75,-1.15 l 0.2,-0.15 -0.3,-0.65 0.15,-0.8 V 16.8 l 0.05,-0.15 m -39.3,0.8 q -0.3,0 -0.45,-0.25 -0.15,-0.3 0,-0.55 l 0.5,-0.3 0.45,-0.25 0.3,-0.5 0.35,-0.55 q 0.3,-0.3 0.65,0 0.4,0.3 0.2,0.65 l 0.6,-0.25 0.6,0.2 -0.05,0.8 -0.7,0.45 0.2,0.7 q 0,0.45 -0.35,0.6 L 27.2,18.25 26.75,18.2 Q 26.5,18.25 26,18.65 l -0.75,0.2 q -0.4,-0.15 -0.3,-0.7 l 0.35,-0.7 m -5.85,6.1 v 0.65 0.55 l 4.1,-2.8 q 1.1,-0.95 1.85,-1.2 1.7,-0.65 3.3,0.5 1.2,0.9 1.35,2.5 0.15,1.55 -1.15,2.5 l -1.4,0.35 q -0.75,0 -1.35,-0.45 l -11.05,6 0.2,0.7 2.05,7.35 H 8.1 L 8.05,39.95 Q 7.5,35.75 7.4,32.6 4.8,31.75 3.5,29.6 L 2.8,27.5 q -0.35,-2 0,-3.75 L 2.7,23.05 2.3,18.9 Q 2.3,17.85 2.55,17.45 2.8,17 3.3,16.85 L 4.25,16.8 4.95,17.25 6,18.05 6.5,17.7 q 1.65,-1.25 4.55,-1.55 l 2.35,0.1 h 0.05 l 0.8,-0.75 0.85,-0.4 1,0.25 q 0.45,0.25 0.6,0.9 l 0.6,2.55 1.15,1.7 0.25,0.45 -0.15,-0.05 -1.2,-0.2 -0.05,0.35 -0.1,0.5 -0.45,0.9 -0.25,0.3 -0.75,0.7 q 0.3,0.9 1.25,1.15 l 1.65,-0.15 0.8,-0.9 m 15,0.85 q 0.35,-0.2 0.75,0.2 l 0.25,0.15 q 0.25,0.1 0.7,-0.35 0.4,0 0.45,0.3 l -0.1,0.5 -0.3,0.4 0.2,0.4 0.2,0.35 -0.25,0.35 -0.5,0.05 -0.5,-0.1 -0.25,0.4 q -0.3,0.5 -0.75,0.4 L 34.15,26.9 V 26.55 L 33.7,26.4 q -0.25,-0.2 -0.2,-0.45 0.1,-0.25 0.35,-0.35 0.25,0 0.3,-0.15 l 0.05,-0.25 0.05,-0.45 0.2,-0.35 m -19.95,1.55 -0.75,0.6 q -0.5,0.65 -1.25,0.85 -0.65,0.15 -0.75,0.35 -0.2,0.35 0.15,0.6 l 0.6,0.2 q 0.85,0 1.95,-1.05 l 0.3,-0.15 h 0.3 q 1.4,0.25 1.9,-0.35 l 0.25,-0.6 q 0,-0.5 -0.5,-0.5 -0.15,0 -0.35,0.15 -0.6,0.25 -1.15,0 l -0.7,-0.1 m -4.3,1.1 q 0.75,-0.1 1.25,-0.75 0.5,-0.65 0.6,-1.4 L 12,24.25 Q 11.3,24.1 10.35,23.55 L 9.6,22.95 9.45,22.55 8.9,22.7 q -0.75,0.3 -1.15,0.95 -0.35,0.7 -0.2,1.5 0.1,0.75 0.65,1.35 0.8,0.8 2,0.55 M 3.3,39.1 Q 3.25,38.45 3.65,37.9 4.05,37.35 4.7,37.2 l 1.25,0.1 q 0.6,0.3 0.85,0.9 l 0.3,2 H 3.65 L 3.3,39.1 m 24.6,-6.6 q -0.2,0 -0.3,0.2 L 27,33.15 26.25,33 q -0.2,-0.3 0,-0.75 l 0.4,-0.75 0.05,-0.2 -0.25,-0.15 q -0.2,-0.05 -0.2,-0.3 -0.05,-0.2 0.05,-0.35 0.3,-0.3 0.75,-0.2 l 0.4,-0.7 q 0.25,-0.25 0.6,-0.15 0.4,0.2 0.4,0.85 h 0.65 l 0.45,0.45 -0.3,0.5 -0.45,0.35 0.3,0.65 -0.3,0.65 q -0.4,0.15 -0.7,-0.25 L 27.9,32.5"
         fill="#000000"
         fill-rule="evenodd"
         stroke="none"
         id="path11" />
      <path
         d="m 18.7,20.95 0.85,1 q 0.25,0.7 -0.05,1.4 l -0.05,0.2 -0.8,0.9 L 17,24.6 q -0.95,-0.25 -1.25,-1.15 l 0.75,-0.7 0.25,-0.3 0.45,-0.9 0.1,-0.5 0.05,-0.35 1.2,0.2 0.15,0.05 m -8.5,6.1 Q 9,27.3 8.2,26.5 7.65,25.9 7.55,25.15 7.4,24.35 7.75,23.65 8.15,23 8.9,22.7 l 0.55,-0.15 0.15,0.4 0.75,0.6 q 0.95,0.55 1.65,0.7 l 0.05,0.65 q -0.1,0.75 -0.6,1.4 -0.5,0.65 -1.25,0.75 m 4.3,-1.1 0.7,0.1 q 0.55,0.25 1.15,0 0.2,-0.15 0.35,-0.15 0.5,0 0.5,0.5 L 16.95,27 q -0.5,0.6 -1.9,0.35 h -0.3 l -0.3,0.15 q -1.1,1.05 -1.95,1.05 l -0.6,-0.2 q -0.35,-0.25 -0.15,-0.6 0.1,-0.2 0.75,-0.35 0.75,-0.2 1.25,-0.85 l 0.75,-0.6"
         fill="#ffffff"
         fill-rule="evenodd"
         stroke="none"
         id="path12" />
      <path
         d="m 66.9,12.1 -0.05,-0.35 v -0.3 l -0.15,-0.3 v -0.3 q 0.15,-0.5 0.7,-0.6 l 0.5,0.25 0.2,0.55 -0.1,0.3 -0.05,0.35 -0.25,0.9 -0.3,0.3 -0.25,-0.15 -0.25,-0.65 m 0,2.4 -0.15,-0.4 0.05,-0.1 q 0,-0.3 0.35,-0.4 0.3,-0.05 0.55,0.2 l 0.1,0.35 -0.1,0.3 -0.1,0.1 -0.2,0.1 -0.5,-0.15"
         fill="#999999"
         fill-rule="evenodd"
         stroke="none"
         id="path13" />
    </g>
    <g
       id="shape2"
       transform="translate(2,2.05)">
      <path
         d="M -0.5,-0.4 V -0.55 H 75.1 V -0.4 40.8 H -0.5 Z"
         fill="none"
         stroke="#000000"
         stroke-linecap="round"
         stroke-linejoin="round"
         stroke-width="3"
         id="path14" />
    </g>
  </defs>
</svg>
