<?xml version="1.0" encoding="UTF-8" standalone="no"?>
<svg
   ffdec:objectType="frame"
   height="60.549999"
   width="69.050003"
   version="1.1"
   id="svg8"
   sodipodi:docname="85.svg"
   xmlns:inkscape="http://www.inkscape.org/namespaces/inkscape"
   xmlns:sodipodi="http://sodipodi.sourceforge.net/DTD/sodipodi-0.dtd"
   xmlns:xlink="http://www.w3.org/1999/xlink"
   xmlns="http://www.w3.org/2000/svg"
   xmlns:svg="http://www.w3.org/2000/svg"
   xmlns:ffdec="https://www.free-decompiler.com/flash">
  <sodipodi:namedview
     id="namedview8"
     pagecolor="#ffffff"
     bordercolor="#000000"
     borderopacity="0.25"
     inkscape:showpageshadow="2"
     inkscape:pageopacity="0.0"
     inkscape:pagecheckerboard="0"
     inkscape:deskcolor="#d1d1d1"
     fit-margin-top="5"
     fit-margin-left="5"
     fit-margin-right="5"
     fit-margin-bottom="5" />
  <g
     transform="translate(3.45,1.5)"
     id="g3">
    <use
       ffdec:characterId="516"
       height="57.549999"
       width="64.099998"
       xlink:href="#shape0"
       id="use1" />
    <use
       ffdec:characterId="597"
       height="57.349998"
       transform="translate(-3.45,-0.25)"
       width="68.150002"
       xlink:href="#shape1"
       id="use2" />
    <use
       ffdec:characterId="518"
       height="60.549999"
       transform="translate(-1.5,-1.5)"
       width="67.099998"
       xlink:href="#shape2"
       id="use3" />
  </g>
  <defs
     id="defs8">
    <g
       id="shape0">
      <path
         d="M 53.6,0 H 64.1 V 57.55 H 53.6 28.25 0 V 0 H 28.25 53.6 V 57.55 0 M 28.25,0 V 57.55 0"
         fill="#ffffff"
         fill-rule="evenodd"
         stroke="none"
         id="path3" />
    </g>
    <g
       id="shape1"
       transform="translate(3.45,0.25)">
      <path
         d="m 18.65,0.55 h 6.6 8.65 l -0.2,0.25 -2.25,2.85 -0.75,0.9 -2.15,2.8 -0.6,0.75 -0.5,0.6 -4.25,5.5 -1.45,1.75 -0.7,0.9 -3.9,4.95 -3.6,4.6 0.05,0.05 -0.85,1.15 -1.4,1.75 -1.15,1.6 L 7.1,34.9 6.7,35.45 6.05,36.3 5.95,36.45 5.9,36.5 5.8,36.65 5.75,36.8 5.7,36.9 5.6,37.05 5.65,37.15 5.6,37.3 v 0.1 l 0.1,0.1 -0.05,0.05 0.1,0.05 0.1,0.05 -0.05,0.1 0.1,-0.05 0.05,0.05 0.1,0.05 v 0.05 H 6.15 6.2 6.35 6.4 L 6.5,37.8 H 6.65 L 6.75,37.7 6.8,37.6 6.9,37.5 7,37.35 7.05,37.3 Q 7.1,37.2 7.2,37.2 l 0.65,-0.85 0.4,-0.5 3.15,-3.95 1.2,-1.6 1.45,-1.7 0.85,-1.15 3.6,-4.6 3.85,-5 L 23,16.9 24.4,15.15 28.6,9.65 29.1,9 29.7,8.25 31.8,5.4 32.5,4.45 34.75,1.6 35.55,0.55 h 5.8 l 11.2,0.05 h 0.6 l -0.8,0.75 -0.4,0.35 -1.55,1.35 -2.75,2.4 -0.95,0.75 -2.65,2.3 -0.7,0.65 -0.7,0.55 -5.2,4.6 -1.65,1.45 -0.85,0.75 -4.8,4.15 -4.4,3.85 0.05,0.05 -1.05,0.95 -1.65,1.5 -1.5,1.35 -3.75,3.3 -0.45,0.45 -0.8,0.7 -0.15,0.1 -0.05,0.1 -0.1,0.1 -0.1,0.15 -0.05,0.05 -0.05,0.1 -0.1,0.1 -0.05,0.1 v 0.1 0.1 0.1 l 0.05,0.05 0.05,0.1 0.05,0.05 v 0.1 h 0.1 l 0.1,0.1 v 0.05 h 0.05 0.1 l 0.1,0.05 h 0.1 l 0.05,-0.05 0.2,0.05 0.1,-0.1 0.05,-0.05 0.15,-0.1 0.1,-0.1 0.05,-0.1 0.2,-0.05 0.8,-0.7 0.5,-0.45 3.8,-3.25 1.5,-1.3 1.65,-1.45 1.05,-0.95 4.4,-3.85 4.75,-4.2 0.85,-0.8 1.65,-1.5 L 43.65,10.8 44.3,10.25 45,9.6 47.6,7.25 48.5,6.45 Q 49.9,5.2 51.25,4.05 L 52.8,2.65 53.2,2.3 54.8,0.85 54.95,0.75 55.1,0.6 h 0.4 l 0.55,0.05 h 0.65 l 0.65,0.05 h 0.4 0.55 l 0.4,0.05 h 0.7 L 60.7,0.8 H 61 l 0.25,0.05 h 0.3 L 61.6,0.8 61.65,0.75 61.75,0.7 61.85,0.6 h 0.1 L 62,0.55 h 0.1 0.2 V 0.5 l 0.15,0.05 0.15,0.05 0.15,0.05 0.1,0.05 0.05,0.05 0.1,0.1 0.15,0.05 0.1,0.05 0.1,0.05 0.05,0.1 0.1,0.05 0.05,0.05 v 0.05 0.1 L 63.6,1.4 v 0.1 l -0.05,0.1 v 0.1 l -0.05,0.1 -0.1,0.05 -0.05,0.1 v 0.1 0.15 0.1 0.15 0.1 0.1 0.1 V 2.9 3 3.15 3.25 3.4 3.5 l 0.05,0.05 v 0.1 0.1 0.1 l -0.05,0.1 V 4.1 4.2 4.35 4.45 4.6 4.7 4.8 4.9 5.05 5.15 L 63.3,5.2 v 0.1 0.1 0.15 0.1 0.15 0.1 0.1 0.1 0.15 0.1 0.1 l 0.05,0.05 v 0.1 0.15 0.1 0.1 0.1 0.15 0.1 0.15 0.1 0.05 l 0.05,0.05 v 0.05 0.1 0.15 0.1 0.1 0.1 0.15 0.1 0.15 0.1 0.15 0.1 0.15 0.1 0.1 0.1 0.15 0.1 0.15 0.1 0.15 0.1 0.1 0.1 0.15 0.1 0.15 0.1 0.15 0.1 0.15 0.1 0.1 0.1 0.15 0.1 0.15 0.1 0.15 0.1 0.1 0.1 0.15 0.1 0.15 0.1 0.15 0.1 0.15 0.1 0.1 0.1 0.15 0.1 0.15 0.1 0.15 0.1 0.1 0.1 0.15 0.1 0.15 0.1 0.15 0.1 0.15 0.1 0.1 0.1 0.15 0.1 0.15 0.1 0.15 0.1 0.1 0.1 0.05 l 0.05,0.05 v 0.05 0.1 0.15 0.1 0.15 0.1 0.15 0.1 0.1 0.1 0.15 0.1 0.15 0.1 0.15 0.1 0.1 0.1 0.15 0.1 0.15 0.1 0.15 0.1 0.15 0.1 0.1 0.1 0.15 0.1 0.15 0.1 0.15 0.1 0.1 0.1 0.15 0.1 0.15 0.1 0.15 0.1 0.15 0.1 0.1 0.1 0.15 0.1 0.15 0.1 0.15 0.1 0.15 0.1 0.1 0.1 0.15 0.1 l -0.1,0.05 -0.2,0.05 -1,0.45 -1,0.5 -0.5,0.2 -1.85,0.8 -3.4,1.35 -1.1,0.45 -3.3,1.35 -0.6,0.3 -0.15,-0.95 -0.2,-4 q -0.1,-1.55 0.1,-2.7 0.1,-0.55 0.35,-0.7 l 1,0.1 0.15,0.1 h 0.05 l 0.45,0.15 1.15,0.5 1.2,0.55 h 0.2 V 22.1 L 54.65,22 54.5,21.85 54,21.55 51.65,19.65 51.25,19.1 50.75,18.7 50.4,18.25 q -0.05,-0.4 0.55,-0.9 l 1.9,-2.55 0.1,-0.2 q 0,-0.2 -0.3,-0.2 l -0.3,0.2 -1.4,1.15 -0.55,0.3 -1.1,0.1 -0.1,-0.1 -0.25,-0.35 -0.05,-0.5 -0.15,-1.7 v -0.15 -0.1 -0.1 -0.1 -0.15 -0.1 -0.15 -0.1 L 48.7,12.5 v -0.1 -0.1 -0.15 l -0.05,-0.1 v -0.1 -0.1 -0.05 L 48.6,11.75 V 11.7 11.6 11.55 L 48.55,11.5 V 11.45 11.35 11.2 11.1 L 48.5,11.05 V 11 10.9 10.75 10.65 10.5 10.4 l -0.05,-0.05 v -0.1 -0.1 -0.05 L 48.4,10.05 V 10 9.9 9.85 L 48.45,9.8 V 9.7 9.55 9.45 9.4 L 48.4,9.35 V 9.3 9.2 9.05 8.95 8.9 L 48.35,8.85 V 8.75 8.7 L 48.3,8.65 V 8.6 L 48.25,8.5 48.15,8.45 48,8.4 V 8.45 H 47.9 L 47.85,8.5 47.75,8.55 47.7,8.6 v 0.05 l -0.05,0.1 V 8.9 9 L 47.6,9.05 v 0.1 0.1 0.1 0.1 0.15 0.1 0.15 0.1 0.15 l -0.05,0.1 v 0.1 0.1 0.15 0.1 0.1 L 47.5,10.8 v 0.1 0.15 0.1 0.05 l -0.05,0.05 v 0.05 0.1 0.1 0.1 0.1 l -0.05,0.05 v 0.1 l -0.05,0.05 v 0.1 0.1 0.1 l -0.05,0.05 v 0.1 0.1 0.1 0.15 0.1 0.05 l -0.05,0.05 v 0.05 0.1 0.15 0.1 0.15 0.1 0.05 l 0.05,0.05 v 0.1 0.1 l -0.05,0.05 v 0.1 0.15 0.1 0.15 0.1 0.1 l -0.05,0.1 v 0.15 0.1 L 47.15,15 v 0.1 0.1 0.15 0.1 0.15 0.1 0.1 0.1 l -0.05,0.05 v 0.1 0.1 l -1.1,-0.6 -1.75,-0.8 -0.3,-0.15 q -0.3,0 -0.3,0.15 l 0.1,0.4 2.4,2.7 0.25,0.25 -0.15,0.25 -0.55,0.8 q -1.05,1.55 -1.55,2.9 l -0.05,0.3 q 0.15,0.3 0.25,0.1 l 1.5,-1.35 0.7,0.05 0.75,0.2 q 0.4,0.3 0.4,1.2 l 0.25,2.3 q 0.25,1.7 1.7,4.75 l -0.35,0.1 -6.4,2.7 -2,0.85 Q 40.35,33.4 39.85,33.7 L 34,36.1 28.6,38.35 v 0.1 L 27.3,39 q -0.95,0.4 -2,0.9 l -1.85,0.8 -4.6,1.9 -0.6,0.3 -0.95,0.4 -0.2,0.05 -0.05,0.1 -0.15,0.05 -0.15,0.15 H 16.7 l -0.1,0.05 -0.15,0.1 v 0.05 l -0.05,0.1 v 0.1 l -0.05,0.1 v 0.2 l 0.05,0.05 -0.05,0.1 -0.8,0.05 h -0.2 L 15.3,44.6 h -0.2 l -0.15,0.05 -0.1,0.05 -0.05,0.05 h -0.15 l -0.1,0.05 -0.1,0.1 -0.05,0.05 -0.05,0.1 v 0.15 l 0.05,0.1 -0.1,0.1 0.05,0.05 0.05,0.1 v 0.05 l 0.05,0.05 0.05,0.05 0.05,0.1 0.1,0.05 H 14.7 L 14.85,46 h 0.1 0.1 0.15 l 0.15,-0.05 h 0.1 l 0.2,0.05 1.05,-0.1 0.7,-0.1 5,-0.35 1.95,-0.15 2.2,-0.25 1.4,-0.15 5.8,-0.55 6.35,-0.6 1.15,-0.15 2.2,-0.25 6.9,-0.75 0.85,-0.05 0.95,-0.15 3.5,-0.35 1.15,-0.15 3.65,-0.25 2.1,-0.25 0.5,-0.05 h 0.25 v 0.05 0.1 0.15 0.1 0.1 0.1 0.15 0.1 0.15 0.1 0.15 0.1 0.1 0.1 0.15 0.1 0.15 0.1 0.15 0.1 0.15 0.1 0.1 0.1 0.15 0.1 0.15 0.1 0.15 0.1 0.1 0.1 0.15 0.1 0.15 0.1 0.15 0.1 0.05 l -0.05,0.05 v 0.05 0.1 0.1 0.1 0.15 0.1 0.15 0.1 0.15 0.1 0.1 0.1 0.15 0.1 0.15 0.1 0.15 0.1 0.15 0.1 0.1 0.1 0.15 0.1 0.15 0.1 0.15 0.1 0.1 0.1 0.15 0.1 0.05 L 63.2,49.7 v 0.05 0.1 0.15 0.1 0.15 0.1 0.1 l -0.05,0.1 v 0.15 0.1 0.15 0.1 0.15 0.1 0.15 0.1 0.1 0.1 0.15 0.1 0.15 0.1 0.15 0.1 0.1 0.1 0.15 h 0.15 l 0.15,0.05 0.2,0.05 0.15,0.05 0.05,0.1 0.1,0.05 0.1,0.05 0.05,0.05 0.05,0.1 0.05,0.05 0.05,0.05 0.05,0.05 0.05,0.1 v 0.05 l 0.05,0.05 v 0.05 l 0.05,0.1 v 0.1 l 0.05,0.1 v 0.15 0.1 0.1 l -0.05,0.05 v 0.1 0.05 l -0.05,0.05 v 0.05 l -0.05,0.1 v 0.05 l -0.1,0.1 -0.05,0.1 -0.05,0.05 -0.05,0.05 -0.05,0.1 -0.1,0.05 -0.1,0.05 v 0.05 0.1 0.15 0.1 0.1 L 63.8,55.9 v 0.1 0.05 l -0.05,0.05 v 0.05 l -0.05,0.1 -0.05,0.05 -0.05,0.05 -0.05,0.1 v 0.05 l -0.1,0.05 -0.05,0.05 -0.1,0.1 -0.1,0.05 -0.1,0.05 -0.15,0.05 -0.1,0.05 -0.1,0.05 H 62.5 L 62.2,57 H 59.9 L 59,56.95 H 58.8 58.6 58.35 58 57.75 l -0.1,-0.05 h -1.9 -0.65 -0.7 -1.1 -0.75 l -0.2,-0.05 H 52.1 51.7 L 45.8,56.8 h -3.75 l -0.9,-0.05 H 39 L 38.8,56.7 h -0.15 -4.9 L 33.1,56.65 H 32.8 L 32,56.6 H 31.15 28.9 L 27.3,56.55 H 26.75 L 25.7,56.5 H 25.25 L 25,56.45 H 24.5 24.1 L 23.8,56.4 h -0.3 l -0.35,-0.05 h -0.7 L 21.25,56.3 H 18.7 l -0.15,0.05 H 18.3 L 18.1,56.3 H 18.05 17.9 l -0.05,-0.05 h -0.4 L 16.95,56.2 H 16.8 l -0.15,-0.05 -0.1,-0.05 -0.1,-0.05 H 16.4 L 16.25,56 16.05,55.95 15.95,55.9 15.85,55.85 15.8,55.75 15.75,55.7 15.7,55.65 v -0.1 L 11.45,55.5 H 9.7 5.9 5.4 4.9 L 4.05,55.45 H 3.75 L 3.5,55.4 H 3.3 L 3.2,55.35 H 3.05 2.95 L 2.7,55.3 H 2.45 L 2.35,55.25 H 2.15 L 2.05,55.3 H 1.9 1.7 L 1.55,55.25 1.4,55.2 1.3,55.1 1.25,55.05 1.2,55 1.1,54.95 1,54.9 0.9,54.85 0.85,54.8 0.75,54.7 0.65,54.6 0.6,54.55 0.5,54.45 0.45,54.35 V 54.3 L 0.4,54.25 V 54.15 54 53.9 53.85 53.75 53.6 53.5 L 0.35,53.45 v -0.1 -0.1 -0.15 -0.1 -0.1 -0.1 -0.15 -0.1 -0.15 -0.1 -0.15 -0.1 -0.15 -0.1 -0.1 -0.1 -0.15 -0.1 -0.15 -0.1 -0.15 -0.1 -0.1 -0.1 -0.15 -0.1 -0.15 -0.1 -0.15 -0.1 -0.15 -0.1 -0.1 -0.1 -0.15 -0.1 -0.15 -0.1 -0.15 -0.1 -0.1 -0.1 -0.15 -0.1 -0.15 -0.1 -0.15 -0.1 -0.15 -0.1 -0.1 -0.1 -0.15 -0.1 -0.15 -0.1 -0.15 -0.1 -0.1 -0.1 -0.15 -0.1 -0.15 -0.1 -0.15 -0.1 -0.15 -0.1 -0.1 -0.1 V 45 44.9 44.75 44.65 44.5 44.4 44.3 44.2 44.05 43.95 43.8 43.7 43.55 43.45 43.3 43.2 43.1 43 v -0.15 -0.1 -0.15 -0.1 -0.15 -0.1 -0.1 -0.1 -0.15 -0.1 -0.15 -0.1 -0.15 -0.1 -0.15 -0.1 -0.1 -0.1 -0.15 -0.1 -0.15 -0.1 -0.15 -0.1 -0.15 -0.1 -0.1 -0.1 V 39.5 39.4 39.25 39.15 39 38.9 38.8 38.7 38.55 38.45 38.3 38.2 38.05 37.95 37.8 37.7 37.6 37.5 37.35 37.25 37.1 37 v -0.15 -0.1 -0.1 -0.1 -0.15 -0.1 -0.15 -0.1 -0.15 -0.1 -0.15 -0.1 l 1,-1.85 0.9,-1.75 1.1,-2 0.65,-1.25 2.75,-5.15 2.95,-5.6 0.5,-1 1.05,-2 L 14.4,8.75 14.8,8 15.25,7.2 16.85,4.1 17.4,3 18.65,0.55 m 44.8,24.7 v 0.15 0.1 0.1 0.1 0.15 0.1 0.15 0.1 0.15 0.1 0.1 0.1 0.15 0.1 0.15 0.1 0.15 0.1 0.15 0.1 0.1 0.1 0.15 0.1 0.15 0.1 0.15 0.1 0.1 0.1 0.15 0.1 0.15 0.1 0.15 0.1 0.15 0.1 0.1 0.1 0.15 0.1 0.15 0.1 0.15 0.1 0.1 0.1 0.15 0.1 0.15 0.1 0.15 0.1 0.15 0.1 0.1 0.1 0.15 0.1 0.15 0.1 0.15 0.1 0.1 0.1 0.15 0.1 0.15 0.1 0.15 0.1 0.15 0.1 0.1 0.1 0.15 0.1 0.15 0.1 0.15 0.1 0.1 0.1 0.15 l -0.05,0.1 v 0.15 0.1 0.15 0.1 0.05 l -0.05,0.05 v 0.05 0.1 0.1 0.1 0.15 0.1 0.15 0.1 0.15 0.1 0.15 l -0.05,0.1 v 0.1 0.1 0.15 0.1 0.15 0.1 0.15 0.1 0.1 0.1 0.15 0.1 0.15 0.1 0.15 0.1 0.15 0.1 0.1 0.1 0.15 0.1 l -0.35,0.05 -0.55,0.05 -2.05,0.15 -3.6,0.3 -1.25,0.05 -3.5,0.35 -0.9,0.1 -0.9,0.05 -6.95,0.7 -2.15,0.15 -1.15,0.1 -6.3,0.55 -5.85,0.55 0.05,0.05 -1.4,0.2 -2.25,0.2 -2,0.25 -3.2,0.3 0.45,-0.2 4.65,-1.85 1.8,-0.8 2,-0.85 1.3,-0.6 5.45,-2.25 q 2.85,-1.25 5.8,-2.45 l 1.05,-0.5 2.05,-0.9 6.35,-2.75 0.35,-0.15 1.4,3 -0.2,-1.85 v -0.3 l -0.1,-0.1 Q 51,31.45 50.7,30.7 l 0.9,-0.35 3.2,-1.4 1.1,-0.5 3.35,-1.4 1.9,-0.85 0.5,-0.15 1.8,-0.8 M 0.4,32.1 v -0.1 -0.15 -0.1 -0.15 -0.1 -0.15 -0.1 -0.1 -0.1 -0.15 -0.1 -0.15 -0.1 -0.15 -0.1 -0.1 -0.1 -0.15 -0.1 -0.15 -0.1 -0.15 -0.1 -0.15 -0.1 -0.1 -0.1 -0.15 -0.1 -0.15 -0.1 -0.15 -0.1 -0.1 -0.1 -0.15 -0.1 -0.15 -0.1 -0.15 -0.1 -0.15 -0.1 -0.1 -0.1 -0.15 -0.1 -0.15 -0.1 -0.15 -0.1 -0.15 -0.1 -0.1 -0.1 -0.15 -0.1 -0.15 -0.1 -0.15 -0.1 -0.1 -0.1 -0.15 -0.1 -0.15 -0.1 -0.15 -0.1 -0.15 -0.1 -0.1 -0.1 -0.15 -0.1 -0.15 -0.1 -0.15 -0.1 -0.1 -0.1 -0.15 -0.1 -0.15 -0.1 -0.15 -0.1 -0.15 -0.1 -0.1 -0.1 V 21.1 21 20.85 20.75 20.6 20.5 20.4 20.3 20.15 20.05 19.9 19.8 19.65 19.55 19.4 19.3 19.2 19.1 18.95 18.85 18.7 18.6 18.45 18.35 L 0.45,18.3 V 18.25 18.15 18 17.9 17.75 17.65 17.5 17.4 17.25 17.15 17.05 16.95 16.8 16.7 16.55 16.45 16.3 16.2 16.1 16 15.85 15.75 15.6 15.5 15.35 15.25 15.1 15 v -0.1 -0.1 -0.15 -0.1 -0.15 -0.1 -0.15 -0.1 -0.1 -0.1 -0.15 -0.1 -0.15 -0.1 -0.15 -0.1 -0.15 -0.1 -0.1 -0.1 V 12.5 12.4 12.25 12.15 12 11.9 11.75 11.65 11.55 11.45 11.3 11.2 11.05 10.95 10.8 10.7 10.6 10.5 10.35 10.25 10.1 10 9.85 9.75 9.6 9.5 9.4 9.3 9.15 9.05 8.9 8.8 8.65 8.55 8.45 8.35 8.2 8.1 7.95 7.85 7.7 7.6 7.45 7.35 7.25 L 0.5,7.15 V 7 6.9 6.75 6.65 6.5 6.4 6.3 6.2 6.05 5.95 5.9 L 0.55,5.85 V 5.8 5.7 5.55 5.45 5.3 5.2 5.1 5 4.85 4.75 4.6 4.5 4.35 4.25 4.15 4.05 3.9 3.8 3.65 3.55 3.4 3.3 3.2 L 0.5,3.15 V 3.05 2.95 L 0.45,2.85 0.5,2.8 V 2.7 2.6 2.55 L 0.55,2.5 V 2.45 2.35 2.25 L 0.6,2.2 V 2.1 L 0.65,2.05 V 2 L 0.7,1.9 V 1.85 L 0.75,1.8 V 1.75 L 0.8,1.65 0.85,1.6 V 1.5 L 0.9,1.4 V 1.35 L 0.95,1.3 V 1.25 L 1.05,1.15 1.1,1.1 1.15,1 1.2,0.95 1.25,0.9 1.3,0.85 1.35,0.75 1.4,0.7 1.5,0.65 1.65,0.6 1.8,0.55 H 2 V 0.5 l 2.05,0.05 h 0.3 l 0.2,0.05 h 0.3 l 12.3,-0.05 -0.95,1.8 -0.6,1.1 -1.65,3.1 -0.45,0.8 -0.4,0.7 -3.2,6.15 -1.1,2 -0.55,1 -3,5.55 -2.75,5.15 0.05,0.05 -0.65,1.25 -1.05,2 -0.45,0.9"
         fill="#999999"
         fill-rule="evenodd"
         stroke="none"
         id="path4" />
      <path
         d="m 17.15,0.55 0.45,-0.8 h 1.45 L 18.65,0.55 17.4,3 16.85,4.1 15.25,7.2 14.8,8 l -0.4,0.75 -3.15,6.2 -1.05,2 -0.5,1 -2.95,5.6 -2.75,5.15 -0.65,1.25 -1.1,2 -0.9,1.75 -1,1.85 -1.4,2.55 -0.3,0.55 -0.5,1 -0.15,0.1 -0.05,0.1 -0.05,0.15 -0.1,0.1 -0.05,0.05 -0.1,0.15 -0.1,0.05 -0.1,0.05 H -2.6 -2.75 L -2.8,40.45 H -2.9 -2.95 L -3,40.4 h -0.1 l -0.05,-0.05 -0.1,-0.05 -0.1,-0.05 0.05,-0.1 -0.1,-0.1 V 40 39.85 L -3.45,39.8 -3.4,39.65 v -0.1 -0.1 l 0.05,-0.1 0.05,-0.15 0.05,-0.1 0.1,-0.1 0.5,-1 0.3,-0.6 L 0,32.95 0.4,32.1 0.85,31.2 1.9,29.2 2.55,27.95 2.5,27.9 l 2.75,-5.15 3,-5.55 0.55,-1 1.1,-2 3.2,-6.15 0.4,-0.7 0.45,-0.8 1.65,-3.1 0.6,-1.1 0.95,-1.8 m 16.75,0 0.65,-0.8 H 36.2 L 36.05,-0.1 35.55,0.55 34.75,1.6 32.5,4.45 31.8,5.4 29.7,8.25 29.1,9 l -0.5,0.65 -4.2,5.5 -1.4,1.75 -0.65,0.95 -3.85,5 -3.6,4.6 -0.85,1.15 -1.45,1.7 -1.2,1.6 -3.15,3.95 -0.4,0.5 -0.65,0.85 q -0.1,0 -0.15,0.1 L 7,37.35 6.9,37.5 6.8,37.6 6.75,37.7 6.65,37.8 H 6.5 L 6.4,37.85 H 6.35 6.2 6.15 6.05 V 37.8 L 5.95,37.75 5.9,37.7 5.8,37.75 5.85,37.65 5.75,37.6 5.65,37.55 5.7,37.5 5.6,37.4 V 37.3 L 5.65,37.15 5.6,37.05 5.7,36.9 5.75,36.8 5.8,36.65 5.9,36.5 5.95,36.45 6.05,36.3 6.7,35.45 7.1,34.9 l 3.1,-3.95 1.15,-1.6 1.4,-1.75 0.85,-1.15 -0.05,-0.05 3.6,-4.6 3.9,-4.95 0.7,-0.9 1.45,-1.75 4.25,-5.5 0.5,-0.6 0.6,-0.75 2.15,-2.8 0.75,-0.9 2.25,-2.85 0.2,-0.25 m 19.25,0.05 0.8,-0.75 0.15,-0.1 h 2 L 55.7,0.05 55.2,0.5 55.1,0.6 54.95,0.75 54.8,0.85 53.2,2.3 52.8,2.65 51.25,4.05 Q 49.9,5.2 48.5,6.45 l -0.9,0.8 -2.6,2.35 -0.7,0.65 -0.65,0.55 -5.15,4.65 -1.65,1.5 -0.85,0.8 -4.75,4.2 -4.4,3.85 -1.05,0.95 -1.65,1.45 -1.5,1.3 -3.8,3.25 -0.5,0.45 -0.8,0.7 -0.2,0.05 -0.05,0.1 -0.1,0.1 -0.15,0.1 -0.05,0.05 -0.1,0.1 -0.2,-0.05 -0.05,0.05 h -0.1 l -0.1,-0.05 H 16.35 16.3 V 34.3 L 16.2,34.2 H 16.1 V 34.1 L 16.05,34.05 16,33.95 15.95,33.9 v -0.1 -0.1 -0.1 l 0.05,-0.1 0.1,-0.1 0.05,-0.1 0.05,-0.05 0.1,-0.15 0.1,-0.1 0.05,-0.1 0.15,-0.1 0.8,-0.7 0.45,-0.45 3.75,-3.3 1.5,-1.35 1.65,-1.5 1.05,-0.95 -0.05,-0.05 4.4,-3.85 4.8,-4.15 0.85,-0.75 1.65,-1.45 5.2,-4.6 0.7,-0.55 0.7,-0.65 2.65,-2.3 0.95,-0.75 2.75,-2.4 1.55,-1.35 0.4,-0.35 0.8,-0.75 m 10.3,23.2 0.2,-0.05 0.6,-0.3 0.45,-0.1 V 24.7 L 64.15,24.9 64,25 l -0.2,0.1 -0.15,0.05 -0.2,0.1 -1.8,0.8 -0.5,0.15 -1.9,0.85 -3.35,1.4 -1.1,0.5 -3.2,1.4 -0.9,0.35 -0.45,0.2 -0.35,0.15 -6.35,2.75 -2.05,0.9 -1.05,0.5 q -2.95,1.2 -5.8,2.45 l -5.45,2.25 -1.3,0.6 -2,0.85 -1.8,0.8 -4.65,1.85 -0.45,0.2 3.2,-0.3 2,-0.25 2.25,-0.2 1.4,-0.2 -0.05,-0.05 5.85,-0.55 6.3,-0.55 1.15,-0.1 2.15,-0.15 6.95,-0.7 0.9,-0.05 0.9,-0.1 3.5,-0.35 1.25,-0.05 3.6,-0.3 2.05,-0.15 0.55,-0.05 0.35,-0.05 0.75,-0.1 0.65,-0.05 v 1.3 l -1.4,0.15 h -0.25 l -0.5,0.05 -2.1,0.25 -3.65,0.25 -1.15,0.15 -3.5,0.35 -0.95,0.15 -0.85,0.05 -6.9,0.75 -2.2,0.25 -1.15,0.15 -6.35,0.6 -5.8,0.55 -1.4,0.15 -2.2,0.25 -1.95,0.15 -5,0.35 -0.7,0.1 -1.05,0.1 -0.2,-0.05 h -0.1 L 15.2,46 h -0.15 -0.1 -0.1 L 14.7,45.85 H 14.65 L 14.55,45.8 14.5,45.7 14.45,45.65 14.4,45.6 v -0.05 l -0.05,-0.1 -0.05,-0.05 0.1,-0.1 -0.05,-0.1 v -0.15 l 0.05,-0.1 0.05,-0.05 0.1,-0.1 0.1,-0.05 h 0.15 l 0.05,-0.05 0.1,-0.05 0.15,-0.05 h 0.2 l 0.05,-0.05 h 0.2 l 0.8,-0.05 0.05,-0.1 -0.05,-0.05 v -0.2 l 0.05,-0.1 v -0.1 l 0.05,-0.1 V 43.8 l 0.15,-0.1 0.1,-0.05 h 0.05 l 0.15,-0.15 0.15,-0.05 0.05,-0.1 0.2,-0.05 0.95,-0.4 0.6,-0.3 4.6,-1.9 1.85,-0.8 q 1.05,-0.5 2,-0.9 l 1.3,-0.55 v -0.1 L 34,36.1 39.85,33.7 q 0.5,-0.3 1.05,-0.45 l 2,-0.85 6.4,-2.7 0.35,-0.1 0.5,-0.2 0.25,-0.1 0.6,-0.3 3.3,-1.35 1.1,-0.45 3.4,-1.35 1.85,-0.8 0.5,-0.2 1,-0.5 1,-0.45 0.2,-0.05 0.1,-0.05 m -17.6,-2.7 -1.5,1.35 q -0.1,0.2 -0.25,-0.1 l 0.05,-0.3 q 0.5,-1.35 1.55,-2.9 l 0.55,-0.8 0.15,-0.25 -0.25,-0.25 -2.4,-2.7 -0.1,-0.4 q 0,-0.15 0.3,-0.15 l 0.3,0.15 1.75,0.8 1.1,0.6 v -0.1 -0.1 L 47.15,15.9 V 15.8 15.7 15.6 15.45 15.35 15.2 15.1 15 l 0.05,-0.05 v -0.1 -0.15 l 0.05,-0.1 V 14.5 14.4 14.25 14.15 14 13.9 l 0.05,-0.05 v -0.1 -0.1 L 47.25,13.6 v -0.05 -0.1 -0.15 -0.1 -0.15 -0.1 -0.05 l 0.05,-0.05 v -0.05 -0.1 -0.15 -0.1 -0.1 -0.1 L 47.35,12.2 V 12.1 12 11.9 l 0.05,-0.05 v -0.1 L 47.45,11.7 V 11.6 11.5 11.4 11.3 11.25 L 47.5,11.2 v -0.05 -0.1 -0.15 -0.1 l 0.05,-0.05 v -0.1 -0.1 -0.15 -0.1 -0.1 L 47.6,10.1 V 9.95 9.85 9.7 9.6 9.45 9.35 9.25 9.15 9.05 L 47.65,9 V 8.9 8.75 L 47.7,8.65 V 8.6 L 47.75,8.55 47.85,8.5 47.9,8.45 H 48 V 8.4 l 0.15,0.05 0.1,0.05 0.05,0.1 v 0.05 l 0.05,0.05 v 0.05 0.1 L 48.4,8.9 V 8.95 9.05 9.2 9.3 9.35 L 48.45,9.4 V 9.45 9.55 9.7 9.8 L 48.4,9.85 V 9.9 10 10.05 l 0.05,0.05 v 0.05 0.1 0.1 l 0.05,0.05 v 0.1 0.15 0.1 0.15 0.1 0.05 l 0.05,0.05 v 0.1 0.15 0.1 0.05 l 0.05,0.05 v 0.05 0.1 0.05 l 0.05,0.05 v 0.05 0.1 0.1 l 0.05,0.1 v 0.15 0.1 0.1 l 0.05,0.05 v 0.1 0.15 0.1 0.15 0.1 0.1 0.1 0.15 0.1 0.15 0.1 0.15 0.1 0.1 0.1 0.15 0.1 l 0.05,0.05 v 0.1 0.1 0.1 l 0.05,0.05 v 0.1 0.1 l 0.05,0.05 v 0.1 0.1 0.1 0.15 0.1 0.15 0.1 0.1 l 0.05,0.05 v 0.1 0.1 0.1 0.15 0.1 0.15 0.1 V 17 L 49,17.05 v 0.05 0.1 0.15 0.1 0.1 0.1 0.05 l 0.05,-0.05 v -0.1 l 0.05,-0.05 0.05,-0.1 q 0.15,-0.3 0.65,-0.7 l 1.15,-0.95 1.4,-1.15 0.3,-0.2 q 0.3,0 0.3,0.2 l -0.1,0.2 -1.9,2.55 q -0.6,0.5 -0.55,0.9 l 0.35,0.45 0.5,0.4 0.4,0.55 2.35,1.9 0.5,0.3 0.15,0.15 0.05,0.1 v 0.25 H 54.5 L 53.3,21.8 52.15,21.3 51.7,21.15 h -0.05 l -2.2,-1.8 v -0.1 L 49.15,19.1 V 19 L 49,18.8 v 0.05 0.15 0.1 0.15 0.1 0.05 l -0.05,0.05 v 0.05 0.1 0.1 0.1 0.05 L 48.9,19.9 v 0.05 0.1 l -0.05,0.05 v 0.05 l -0.05,0.05 -0.05,0.1 v 0.05 L 48.7,20.4 v 0.05 l -0.05,0.1 -0.05,0.05 -0.05,0.05 -0.05,0.05 -0.1,0.1 -0.05,0.05 -0.1,0.05 h -0.1 L 48,20.95 47.85,20.9 47.75,20.85 47.65,20.8 47.55,20.75 47.5,20.7 47.45,20.6 47.4,20.55 47.3,20.45 v -0.1 L 47.25,20.3 47.2,20.25 V 20.2 L 47.15,20.1 V 20.05 L 47.1,20 v -0.1 -0.1 l -0.05,-0.05 v -0.1 -0.05 l -1,1.25 -0.2,0.25"
         fill="#ffffff"
         fill-rule="evenodd"
         stroke="none"
         id="path5" />
      <path
         d="m 1.6,16.6 q 3.95,-1.25 7.75,-0.1 l 0.7,0.25 0.75,0.3 0.45,-1.1 0.6,-1.35 Q 11.35,14.4 11.35,14.05 11.3,13.6 12.1,13.4 l 0.4,-0.1 0.4,-0.45 0.8,-0.1 0.2,0.25 8.95,-0.85 q 2.9,-0.05 4.35,0.05 5.85,0.4 11.2,3.8 3.05,1.85 5.75,4.7 l 0.35,-0.15 0.85,0.05 0.85,0.1 0.25,-0.05 1.55,-0.1 0.05,-0.05 0.15,-0.05 0.2,-0.05 0.15,-0.1 h 0.15 0.1 0.1 l 0.05,-0.05 h 0.15 l 0.1,0.05 0.15,0.05 0.05,-0.05 0.05,0.05 h 0.05 0.1 0.1 v 0.05 l 0.15,-0.05 v 0.1 l 0.1,0.15 0.1,0.05 h 0.1 l 0.05,0.05 h 0.1 l 0.05,0.1 0.05,0.1 0.1,0.1 -0.05,0.05 0.1,0.1 v 0.05 h 0.05 l 0.1,0.05 v 0.1 l 0.05,0.05 v 0.25 H 50.7 v 0.05 l 0.05,0.15 V 21.9 22 l -0.1,0.1 0.1,0.1 -0.1,0.15 -0.05,0.1 v 0.1 0.1 0.05 l -0.1,0.15 -0.05,0.1 0.05,0.15 -0.15,0.1 -0.15,0.15 -0.05,0.15 v 0.05 l -0.45,1.3 -0.2,0.65 1.55,1.05 q 1.05,1.15 1.25,2.75 0.1,1.45 -0.5,2.75 l 0.25,0.9 q 1.8,5.65 0.5,11.25 l -1.25,4.15 q -1.75,5.2 -3.4,8.2 l 0.1,0.3 0.05,0.25 H 45.2 l -0.05,-0.5 0.8,-0.15 0.6,-1.9 q 1.5,-5.05 1.85,-8.1 0.85,-5.75 -0.7,-11.15 l -0.15,-0.6 -1.1,-0.1 -1.5,-0.2 q -0.6,0 -1.65,0.65 -3.4,2 -8,3.95 L 27,42.25 q -5.5,2.15 -9.25,3.1 l -2.6,1.85 -0.05,0.05 q 0.35,0.9 1.05,2.05 l 1.7,3.35 q 3.45,-5.55 9.7,-8 2,-0.75 3.35,-0.65 1.85,0.2 3.85,1.65 0.3,0.3 0.75,0.4 l 0.8,-0.25 q 1.8,-0.95 3.3,-0.65 1.2,0.2 2,1.3 0.8,0.95 0.85,2.2 0.05,1.25 -0.65,2.3 -0.65,1.1 -1.7,1.8 -2.05,1.3 -4.7,0.75 -1.9,-0.4 -2.9,-1.45 l -1,-1.1 q -0.6,-0.7 -1.15,-0.8 l -1.75,0.2 q -2.8,1 -4.45,2.1 -1.05,0.75 -2.4,2.15 l -1.95,1.95 0.3,0.55 H -0.15 V 17.25 Q 0.7,16.85 1.6,16.6 M 17.5,5.1 Q 17.45,4.9 17.7,4.45 L 18.45,3.2 q 0.4,-0.7 0.8,-0.6 0.4,0.05 0.5,0.65 l 0.5,1.4 0.15,0.55 -0.25,0.65 -0.1,0.55 h 0.2 q 0.45,0.15 0.55,0.65 0.1,0.5 -0.35,0.75 L 20.15,7.95 20.1,8.45 19.9,9.2 19.3,9.5 18.65,9.25 18.4,8.4 V 7.85 h -0.2 l -1,-0.3 Q 16.9,7.1 17.25,6.75 17.5,6.45 18.1,6.45 L 17.95,6 Q 17.5,5.45 17.5,5.1 m 3.25,24.95 q 0.55,3.55 -0.7,6.9 -1.1,2.7 -3.05,4.8 0.85,-0.4 1.8,-0.85 l 2.5,-1.3 0.05,-0.05 0.1,-0.2 0.4,-0.25 2,-1.4 1.45,-1 0.35,-0.25 0.45,-0.4 0.9,-0.6 2.3,-1.65 0.35,-0.3 h 0.1 l 0.1,-0.15 0.1,-0.05 0.05,-0.1 0.25,-0.2 0.3,-0.15 0.5,-0.45 1.1,-0.75 0.6,-0.45 1.8,-1.2 0.55,-0.45 q 0.25,-0.25 0.55,-0.4 l 0.45,-0.25 0.95,-0.7 0.35,-0.35 0.15,-0.05 0.05,-0.1 0.1,-0.05 v -0.1 q 0.1,-0.1 0.15,-0.1 l 0.2,-0.1 0.2,-0.2 -0.05,-0.05 1.6,-1.05 2.1,-1.4 q -2.85,-3 -6.6,-5.25 -5.25,-3.05 -11.15,-4 L 15.6,14.75 h -2 l -1.1,3.2 0.65,-0.1 4.2,-1.25 1.25,-0.05 q 0.7,0.2 0.8,0.9 L 19.35,18 19,19.75 18.25,22.6 18,23.15 l 0.25,0.45 0.25,0.3 -0.3,-0.1 q -2.3,-0.8 -4.35,0.6 -2.05,1.4 -2.15,3.85 0,0.85 0.15,1.3 0.25,0.65 0.85,1.3 0.9,1.1 1.95,1.35 l 1.15,0.2 q 2.55,0.05 3.9,-1.1 l 1.05,-1.25 M 15.65,3.9 q 0.3,0.5 0.2,1.1 -0.1,0.8 -0.65,1.35 L 14.8,6.8 14.35,7.25 h 1.2 l 0.55,0.1 q 0.65,0.3 0.55,0.9 0,0.65 -0.6,0.9 h -1 L 13.3,9.3 12.25,9.35 Q 11.75,9.05 11.85,8.3 L 12.2,7.3 12.65,6.5 13.3,5.95 14.05,4.9 13.2,5.25 12.9,5.5 12.75,5.8 Q 12.6,6.15 12.35,6.1 L 11.95,6.05 11.9,5.95 11.75,5.55 11.9,5.2 12.05,4.7 12.8,3.8 13.45,3.25 14.7,3.1 q 0.65,0.15 0.95,0.8 M 6.95,4.25 7.6,4.15 Q 7.75,4.2 8.15,4.6 l 0.6,0.65 0.4,-0.65 q 0.45,-0.55 1.1,-0.75 0.4,0 0.75,0.35 0.3,0.45 0.15,0.85 L 10.9,5.6 10.3,6.05 10.05,6.25 9.85,6.5 10.35,7.05 Q 11.05,7.85 11,8.5 L 10.45,9.25 9.55,9.35 8.85,8.75 8.45,8.1 8.3,8.2 7.75,8.65 7.1,9.05 6.75,9.3 6.5,9.2 Q 6.2,8.9 6.4,8.5 L 7.7,6.7 6.95,5.25 q -0.35,-0.7 0,-1 M 2.5,31 Q 2.3,31.1 2,31.35 l -0.2,0.3 q -0.15,0.3 0.25,0.65 l 0.65,0.25 0.6,0.15 1.05,0.4 0.5,0.05 -0.5,0.5 -0.85,1.2 -0.05,0.25 0.4,0.35 0.9,-0.15 3.45,-1.7 0.85,-0.75 Q 9.35,32.5 9.3,31.95 L 8.9,31.05 Q 8.6,30.8 8.3,30.7 7.9,30.4 7.35,30.4 L 6.3,30.35 4.85,30.75 H 3.95 L 2.5,31 M 15.85,33.35 14.3,33.2 12.65,33.35 12.2,32.5 q -0.25,-0.25 -0.7,-0.2 -0.4,0.05 -0.65,0.35 -0.2,0.45 -0.05,0.95 l 0.05,0.2 Q 8.85,34.35 7.6,35.15 6.45,36 6.3,36.8 6.2,38 7.25,38.5 8.35,39 9.1,38.05 l 0.45,-0.6 0.5,-0.6 2.15,-1.3 q 1.5,-0.6 4.2,-1 l 0.45,-0.1 0.1,-0.45 -0.3,-0.4 -0.8,-0.25"
         fill="#000000"
         fill-rule="evenodd"
         stroke="none"
         id="path6" />
      <path
         d="m 18.5,23.9 0.65,0.3 q 0.65,0.45 1.15,1.35 1,1.4 1.05,2.25 l -0.25,1.4 -0.35,0.85 -1.05,1.25 q -1.35,1.15 -3.9,1.1 L 14.65,32.2 Q 13.6,31.95 12.7,30.85 12.1,30.2 11.85,29.55 11.7,29.1 11.7,28.25 11.8,25.8 13.85,24.4 15.9,23 18.2,23.8 l 0.3,0.1 m -2.65,9.45 0.8,0.25 0.3,0.4 -0.1,0.45 -0.45,0.1 q -2.7,0.4 -4.2,1 l -2.15,1.3 -0.5,0.6 -0.45,0.6 Q 8.35,39 7.25,38.5 6.2,38 6.3,36.8 6.45,36 7.6,35.15 8.85,34.35 10.85,33.8 L 10.8,33.6 q -0.15,-0.5 0.05,-0.95 0.25,-0.3 0.65,-0.35 0.45,-0.05 0.7,0.2 l 0.45,0.85 1.65,-0.15 1.55,0.15 M 2.5,31 3.95,30.75 h 0.9 l 1.45,-0.4 1.05,0.05 q 0.55,0 0.95,0.3 0.3,0.1 0.6,0.35 l 0.4,0.9 q 0.05,0.55 -0.25,0.9 L 8.2,33.6 4.75,35.3 3.85,35.45 3.45,35.1 3.5,34.85 4.35,33.65 4.85,33.15 4.35,33.1 3.3,32.7 2.7,32.55 2.05,32.3 Q 1.65,31.95 1.8,31.65 L 2,31.35 Q 2.3,31.1 2.5,31"
         fill="#ffffff"
         fill-rule="evenodd"
         stroke="none"
         id="path7" />
    </g>
    <g
       id="shape2"
       transform="translate(1.5,1.5)">
      <path
         d="M 0,23.8 V 0 H 64.1 V 23.8 57.55 H 0 Z"
         fill="none"
         stroke="#000000"
         stroke-linecap="round"
         stroke-linejoin="round"
         stroke-width="3"
         id="path8" />
    </g>
  </defs>
</svg>
