<?xml version="1.0" encoding="UTF-8" standalone="no"?>
<svg
   ffdec:objectType="frame"
   height="44.349998"
   width="78.599998"
   version="1.1"
   id="svg12"
   sodipodi:docname="390.svg"
   xmlns:inkscape="http://www.inkscape.org/namespaces/inkscape"
   xmlns:sodipodi="http://sodipodi.sourceforge.net/DTD/sodipodi-0.dtd"
   xmlns:xlink="http://www.w3.org/1999/xlink"
   xmlns="http://www.w3.org/2000/svg"
   xmlns:svg="http://www.w3.org/2000/svg"
   xmlns:ffdec="https://www.free-decompiler.com/flash">
  <sodipodi:namedview
     id="namedview12"
     pagecolor="#ffffff"
     bordercolor="#000000"
     borderopacity="0.25"
     inkscape:showpageshadow="2"
     inkscape:pageopacity="0.0"
     inkscape:pagecheckerboard="0"
     inkscape:deskcolor="#d1d1d1"
     fit-margin-top="5"
     fit-margin-left="5"
     fit-margin-right="5"
     fit-margin-bottom="5" />
  <g
     transform="translate(2,2.05)"
     id="g4">
    <use
       ffdec:characterId="1"
       height="42.700001"
       transform="translate(-1.75,-2)"
       width="76.449997"
       xlink:href="#shape0"
       id="use1" />
    <use
       ffdec:characterId="366"
       height="41.599998"
       transform="translate(-0.7,-0.8)"
       width="75.75"
       xlink:href="#shape1"
       id="use2" />
    <use
       ffdec:characterId="373"
       height="30.1"
       transform="translate(20.25,4.2)"
       width="30.65"
       xlink:href="#shape2"
       id="use3" />
    <use
       ffdec:characterId="3"
       height="44.349998"
       transform="translate(-2,-2.05)"
       width="78.599998"
       xlink:href="#shape3"
       id="use4" />
  </g>
  <defs
     id="defs12">
    <g
       id="shape0"
       transform="translate(1.75,2)">
      <path
         d="M 2.8,0 V -0.4 H 5.4 V 0 H 9.7 V 19.45 0 H 20.55 L 19.3,19.45 H 9.7 0.25 V 0 H 2.8"
         fill="#ffffff"
         fill-rule="evenodd"
         stroke="none"
         id="path4" />
      <path
         d="M 0.25,19.45 H 9.7 19.3 L 18.7,28.6 16,28.5 10.95,27.95 9.7,27.8 Q 7.45,27.6 5.85,27.75 4.05,27.9 1.5,28.6 0.75,28.8 0.25,29.15 v -9.7 m 9.45,0 v 8.35 -8.35"
         fill="#121212"
         fill-rule="evenodd"
         stroke="none"
         id="path5" />
      <path
         d="m 9.7,27.8 1.25,0.15 5.05,0.55 2.7,0.1 h 1.05 l 3.75,0.15 q 2.45,0.3 3.6,1.25 0.6,0.5 0.6,1.1 0,0.65 -0.8,1 l -1.3,0.2 -7.15,0.15 -5.6,-0.3 L 9.7,31.75 7.95,31.6 3.1,31.95 0.95,32.3 0.25,32.1 -0.35,31.55 -0.5,31.3 V 29.9 L 0.25,29.15 Q 0.75,28.8 1.5,28.6 4.05,27.9 5.85,27.75 7.45,27.6 9.7,27.8 v 3.95 -3.95"
         fill="#999999"
         fill-rule="evenodd"
         stroke="none"
         id="path6" />
      <path
         d="M 2.8,0 H 0.25 M 9.7,0 H 5.4 m 16.15,0 h 10.7 M 20.55,0 H 9.7"
         fill="none"
         stroke="#666666"
         stroke-linecap="round"
         stroke-linejoin="round"
         stroke-width="4"
         id="path7" />
      <path
         d="m 9.7,-0.4 h 65 V 40.5 H 47.05 L 45.5,40.7 27,40.65 25.95,40.5 H 9.7 -0.5 V -0.4 H 9.7 V 40.5 -0.4"
         fill="#ffffff"
         fill-rule="evenodd"
         stroke="none"
         id="path8" />
    </g>
    <g
       id="shape1"
       transform="translate(0.7,0.8)">
      <path
         d="m 22.9,1.2 q -4,7.2 -8.6,9.7 -1.45,0.75 -4.7,1.7 -3.15,1 -4.7,1.8 -3.7,2 -5.6,5.9 V 13.35 Q 1.1,11.5 3.3,10.25 5.3,8.3 7.7,6.8 L 10.8,4.9 13.55,2.6 15.3,0.3 16.05,-0.8 H 24 l -1.1,2 m 8.7,38.35 q -5.7,-1.3 -11.65,-7.2 L 17.4,29.3 q -3.35,-5.05 -2.05,-11.7 0.8,-3.95 3,-7.35 2.25,-3.5 5.55,-5.75 2.95,-1.95 6.4,-2.75 4.1,-0.95 8.9,-1.1 4.75,-0.15 9.7,4.1 4.9,4.15 5.85,7.1 0.9,2.9 3.35,5.45 1.95,1.45 3.8,1.45 2.75,0.15 4.65,-2.25 1.55,-1.95 1.95,-4.95 L 68.6,9.7 67.75,7.25 q -1.1,-1.8 -4.4,-4 -3.55,-2.2 -4.65,-3.8 L 58.55,-0.8 h 10.7 q 4,3.9 5.15,11.95 l 0.25,4.15 q -0.05,2.8 -1.2,5.8 -1.9,5.35 -6.1,9.4 l -5.3,4.05 -4.25,2.55 q -2.8,1.25 -7.65,2.2 l -11,1.05 L 34.75,40 31.6,39.55 m 39.05,-5.9 1.7,0.05 h 1.7 l 1,-0.25 v 3.35 l -1.3,0.2 -4.15,0.1 q -1.2,0.3 -2.5,1.35 l -2.15,1.95 -0.4,0.4 H 60.2 l 0.35,-0.35 2.95,-3 q 3.7,-3.65 7.15,-3.8 M 6.6,35.85 q 1.65,0.5 3,1.6 1.3,1.05 2.05,2.4 L 12.1,40.8 H 7.05 Q 6.05,39.75 4.2,39.05 1,38.1 -0.4,37.3 l -0.3,-0.15 v -5 l 1.8,1.55 2.95,1.35 2.55,0.8"
         fill="#999999"
         fill-rule="evenodd"
         stroke="none"
         id="path9" />
    </g>
    <g
       id="shape2"
       transform="translate(-20.25,-4.2)">
      <path
         d="M 29.2,33.85 Q 25.9,33.1 24.35,31.65 23.15,30.6 21.9,28.2 20.9,26.3 20.5,24.6 20.25,23.35 20.25,20.05 20.35,17.4 20.6,16.1 21.15,13.25 23.1,10.75 24.95,8.4 27.65,6.9 32.4,4.2 39.2,4.2 l 3.15,0.35 Q 43.8,5 45.3,6.1 q 2.55,1.95 4,4.9 1.55,2.95 1.6,6.1 0.05,2.15 -0.7,5.65 -0.65,2.75 -1.5,4.25 -1.35,2.55 -4.15,4.35 -2.5,1.6 -5.7,2.3 -4.95,1.2 -9.65,0.2 M 44.65,12.5 Q 44,11.25 42.8,10.35 41.2,9.15 39.15,8.9 l -4.4,0.25 q -1.5,0.4 -3.15,1.15 l -0.7,0.35 q -1.2,0.6 -2.25,1.3 l -2.15,1.8 -0.9,1.15 -0.1,0.15 q -1.35,1.95 -1.6,4.2 l -0.05,0.45 q -0.05,1 0.25,1.9 l 0.6,1.2 0.15,0.2 q 0.85,1.15 2.65,1.7 l 0.7,0.15 2.75,0.25 q 5.2,0 8.8,-1.4 l 1.8,-0.9 1.75,-1.25 0.6,-0.75 q 1.4,-1.75 1.5,-4.65 V 15.4 l -0.35,-2 -0.4,-0.9 M 34.3,10.2 q 0.35,-0.3 0.95,-0.3 0.5,0.1 0.8,0.3 0.6,0.4 0.75,1.25 l 2,0.4 q 1.2,0.55 1.6,1.45 0.5,1 0.1,1.85 L 40.05,15.7 Q 39.2,16.8 37.7,16.45 L 36.6,16 34.7,15.85 q -1,0.25 -1.7,0.95 -0.7,0.8 -0.45,1.45 0.25,0.6 1,0.7 l 1.3,-0.15 2.45,-0.8 1.2,-0.55 1.3,0.1 0.4,0.2 0.6,0.6 q 0.35,0.6 0.25,1.3 -0.1,0.7 -0.55,1.2 l -1.25,0.75 -2.45,0.85 -0.5,0.15 v 0.05 l -0.25,1.1 -0.85,0.65 -1.1,-0.05 Q 33.5,24.1 33.25,23.6 l -0.2,-0.75 v -0.2 q -2.1,-0.45 -3.25,-1.9 l -0.05,-0.1 -0.5,-0.75 -0.15,-0.35 q -0.3,-0.85 -0.3,-1.75 0,-1.5 0.9,-3.05 0.75,-1.3 2.05,-2.15 0.85,-0.55 1.85,-0.85 V 11.7 l 0.1,-0.65 0.2,-0.45 0.4,-0.4 m 5.9,18.55 2.1,-1.2 q 1.8,-1.25 2.65,-2.85 -1.55,1.4 -3.75,2.55 l -0.5,0.25 -2.3,0.9 -0.9,0.25 -3.7,0.4 h -0.9 l -1,-0.1 -3.5,-0.3 1.6,0.85 2.1,0.5 0.7,0.05 1.5,-0.1 2.85,-0.25 0.1,-0.05 0.85,-0.2 0.65,-0.2 1.45,-0.5"
         fill="#000000"
         fill-rule="evenodd"
         stroke="none"
         id="path10" />
      <path
         d="m 39.75,23.7 0.35,-1.15 3.5,-8.25 0.8,-1.5 0.25,-0.3 0.4,0.9 0.35,2 -0.85,2.8 -1.25,3.35 -1.75,1.25 -1.8,0.9 m -5,-14.55 -0.45,1.05 -0.4,0.4 -0.2,0.45 -0.1,0.65 v 0.05 q -1,0.3 -1.85,0.85 -1.3,0.85 -2.05,2.15 -0.9,1.55 -0.9,3.05 0,0.9 0.3,1.75 l 0.15,0.35 0.5,0.75 -1.3,3.5 -0.25,0.7 -0.7,-0.15 Q 25.7,24.15 24.85,23 L 30.9,10.65 31.6,10.3 q 1.65,-0.75 3.15,-1.15 m 5.95,18.35 -0.5,1.25 -1.45,0.5 -0.65,0.2 0.3,-1.05 2.3,-0.9 m -3.55,2.2 -2.85,0.25 -1.5,0.1 V 29.3 l 0.1,-0.25 h 0.9 l 3.7,-0.4 -0.05,0.1 -0.3,0.95 M 25.5,15.05 l 0.1,-0.15 0.9,-1.15 2.15,-1.8 -0.95,2 -3.4,7.35 -0.2,0.3 q -0.3,-0.9 -0.25,-1.9 l 1.3,-3.45 0.35,-1.2"
         fill="#ffffff"
         fill-rule="evenodd"
         stroke="none"
         id="path11" />
    </g>
    <g
       id="shape3"
       transform="translate(2,2.05)">
      <path
         d="M -0.5,-0.4 V -0.55 H 75.1 V -0.4 40.8 H -0.5 Z"
         fill="none"
         stroke="#000000"
         stroke-linecap="round"
         stroke-linejoin="round"
         stroke-width="3"
         id="path12" />
    </g>
  </defs>
</svg>
