<?xml version="1.0" encoding="UTF-8" standalone="no"?>
<svg
   ffdec:objectType="frame"
   height="60.549999"
   width="67.099998"
   version="1.1"
   id="svg6"
   sodipodi:docname="66.svg"
   xmlns:inkscape="http://www.inkscape.org/namespaces/inkscape"
   xmlns:sodipodi="http://sodipodi.sourceforge.net/DTD/sodipodi-0.dtd"
   xmlns:xlink="http://www.w3.org/1999/xlink"
   xmlns="http://www.w3.org/2000/svg"
   xmlns:svg="http://www.w3.org/2000/svg"
   xmlns:ffdec="https://www.free-decompiler.com/flash">
  <sodipodi:namedview
     id="namedview6"
     pagecolor="#ffffff"
     bordercolor="#000000"
     borderopacity="0.25"
     inkscape:showpageshadow="2"
     inkscape:pageopacity="0.0"
     inkscape:pagecheckerboard="0"
     inkscape:deskcolor="#d1d1d1"
     fit-margin-top="5"
     fit-margin-left="5"
     fit-margin-right="5"
     fit-margin-bottom="5" />
  <g
     transform="translate(1.5,1.5)"
     id="g3">
    <use
       ffdec:characterId="516"
       height="57.549999"
       width="64.099998"
       xlink:href="#shape0"
       id="use1" />
    <use
       ffdec:characterId="578"
       height="52.25"
       transform="translate(-0.3,5.95)"
       width="56.799999"
       xlink:href="#shape1"
       id="use2" />
    <use
       ffdec:characterId="518"
       height="60.549999"
       transform="translate(-1.5,-1.5)"
       width="67.099998"
       xlink:href="#shape2"
       id="use3" />
  </g>
  <defs
     id="defs6">
    <g
       id="shape0">
      <path
         d="M 53.6,0 H 64.1 V 57.55 H 53.6 28.25 0 V 0 H 28.25 53.6 V 57.55 0 M 28.25,0 V 57.55 0"
         fill="#ffffff"
         fill-rule="evenodd"
         stroke="none"
         id="path3" />
    </g>
    <g
       id="shape1"
       transform="translate(0.3,-5.95)">
      <path
         d="m 51.95,40.35 q -1.35,2.1 -3.4,3.1 l -0.3,0.15 1.5,-0.45 2.1,-0.4 q 1.2,0 2,0.65 0.65,0.55 0.95,1.6 l 0.4,-0.1 q 0.6,-0.2 0.9,0 l 0.3,0.65 -0.05,0.45 -0.5,0.3 -0.85,0.25 -0.05,1.15 -0.9,1.65 -1.2,1.2 0.15,0.4 0.1,0.65 q 0,0.55 -0.55,0.65 -0.5,0.15 -0.85,-0.3 l -0.2,-0.4 -0.2,-0.3 h -1 L 49.05,50.9 q -0.6,-0.3 -0.65,-0.6 -0.15,-0.55 0.45,-0.85 l 1,-0.3 1.2,-0.7 1.05,-1.1 q 0.5,-0.75 0.35,-1.45 l -0.3,-0.45 -0.45,0.05 -2.4,0.8 q -1.9,0.4 -3.55,-0.45 l -1,-0.7 L 44.2,44.2 44.1,44.05 44,44 43.5,43.9 v 0.45 l -0.65,1.35 -0.65,0.8 -0.9,0.9 -2.75,1.8 -1.2,0.25 -1.05,-0.15 -1.05,-0.2 -0.45,-0.3 -0.75,0.45 -0.9,0.15 q -0.7,-0.25 -0.6,-1.15 l 0.2,-0.5 0.45,-0.25 q -0.7,-0.8 -1.05,-1.9 l -0.2,-0.95 v -0.4 l -0.5,0.1 q -0.7,0 -0.95,-0.35 l -0.15,-0.6 0.35,-0.5 0.7,-0.15 0.75,0.05 h 0.2 q 0.35,-0.85 1,-1.8 L 34,40.1 34.85,39.35 q 0.8,-0.7 1.1,-0.75 h 0.3 l 1.25,-0.9 0.8,-0.85 0.05,-1.3 -0.5,-0.7 Q 37.25,34.25 36.2,34 L 33.55,33.3 Q 32,32.65 31.5,31.6 L 31.35,31.15 30.55,30.9 30.3,30.55 q -0.35,-0.8 0.4,-1.25 l 0.6,-0.25 q 0.1,-1.45 0.5,-2.35 0.6,-1.45 2.1,-2.5 -0.2,-0.8 -0.1,-1.1 0.25,-0.5 0.75,-0.5 0.35,-0.05 0.6,0.3 l 0.2,0.4 q 0.75,-0.4 1.85,-0.85 1,-0.25 1.4,-0.8 0.8,-1 -0.05,-2.3 l -0.45,-0.9 q -0.05,-0.55 0.55,-0.8 l 1,0.05 q 0.75,0.35 1.1,1.2 l 0.2,-1.1 -0.1,-0.7 q -0.1,-0.45 -0.5,-0.55 l -1.05,0.3 -2.35,0.55 -2.05,-0.25 -1,-1.05 -0.5,-0.8 H 33.1 L 32.4,15.2 32,14.6 q -0.1,-0.45 0.25,-0.7 l 0.3,-0.15 0.7,-0.1 V 13.6 q 0.1,-1.1 0.35,-1.6 0.45,-0.85 1.3,-0.85 0.7,0 1.05,0.6 L 36.1,13 35.9,14 q 0.2,0.65 1.2,0.55 l 1.85,-0.6 2.1,-0.05 0.05,-0.15 0.1,-0.45 q 0.15,-0.4 0.65,-0.55 l 0.85,0.05 q 0.65,0.4 0.55,1.25 l -0.35,0.8 0.4,0.4 0.5,1.35 0.05,0.25 0.15,-0.05 0.05,-0.05 q 0.45,-0.1 0.6,0.25 0.3,0.3 0.05,0.65 -0.1,0.3 -0.7,0.4 l -0.05,0.05 q -0.1,1.95 -1.35,3.55 -0.9,1.25 -1.95,1.8 l -0.05,0.1 -0.1,0.3 V 24 l -0.05,0.8 -0.05,0.1 -0.2,0.25 -0.2,0.15 -0.25,-0.05 -0.2,-0.05 -0.85,-0.45 -0.15,-0.1 -0.25,0.1 -2.7,1.6 q -1.35,1.2 -1.35,3 l 0.1,0.6 q 0.25,0.45 1.05,0.55 l 2.95,0.8 0.85,0.4 q 0.85,-2 2.65,-3.5 2.1,-1.7 3.9,-1.3 l 0.85,0.25 1.25,0.2 q 1.9,0.25 3.35,1.4 l 0.1,-0.05 0.45,-1.35 v -0.9 q -0.1,-0.8 -0.8,-1.3 l -0.55,-0.6 q -0.2,-0.3 0.1,-0.8 0.25,-0.25 0.75,-0.35 l 1.25,0.25 0.55,0.3 0.3,-0.3 q 0.4,-0.3 0.75,0 0.4,0.3 0.3,0.75 l -0.1,0.3 -0.3,0.45 0.35,0.7 0.15,1.25 h 0.9 l 0.1,-0.05 q 0.55,0.1 0.7,0.5 0.2,0.45 -0.15,0.8 L 55.4,28.6 h -0.75 v 0.15 L 54,30.2 53.35,30.95 53.1,31.2 q 0.5,1.1 0.6,2.35 V 34 h 0.25 q 0.45,0.1 0.6,0.4 v 0.65 q -0.25,0.35 -0.6,0.3 l -0.35,-0.05 -0.05,0.4 -0.4,2 q -0.4,1.45 -1.2,2.65 M 48,39.2 48.6,38.85 49,38.35 49.95,36.65 50.3,34.7 50.25,33.15 50,32.7 49.55,32.75 q -0.65,0.1 -1.1,-0.3 -0.65,-0.35 -0.45,-1 l 0.25,-0.45 -1,-0.3 -0.65,-0.05 0.1,0.45 0.05,0.4 q -0.1,0.65 -0.7,0.65 -0.45,0 -0.7,-0.35 L 45.1,31.05 v -0.3 L 44,30.9 43.6,31 l -0.45,0.6 -0.4,0.7 Q 42.4,33 42.3,33.65 l -0.25,1.25 v 0.7 1.4 q 0.05,0.8 0.35,1.3 l 0.9,0.9 1.2,0.75 q 1.5,0.6 2.75,-0.2 L 48,39.2 m -12.6,3.35 -0.1,0.05 -0.3,0.8 -0.15,0.85 0.35,0.7 q 0.95,1.4 2.25,1.25 l 1.15,-0.35 2.5,-2 0.8,-0.65 h 0.05 l -1.5,-1.1 -0.5,0.5 -1.05,0.65 -0.5,-0.3 q -0.2,-0.4 -0.05,-0.6 l 0.6,-0.7 0.55,-0.5 -0.5,-0.7 -3.6,2.1 m -23.15,-19.8 -1.3,0.7 q -1.6,0.85 -2.05,2 l -0.3,1.4 -0.4,1.3 -0.45,0.4 Q 7.35,28.65 6.8,28.1 5.7,26.75 5.85,24.85 5.95,23.4 6.75,22.4 L 6.45,22 6.25,21.3 q -0.1,-0.6 0.4,-0.95 0.5,-0.4 1.05,-0.15 l 0.7,0.75 0.8,-0.45 1.9,-1.25 0.5,-0.9 -0.25,-0.95 Q 10.55,15.3 12.2,13 L 13.45,11.7 13.4,11.65 13.2,11 q 0,-0.4 0.25,-0.55 0.25,-0.25 0.6,-0.15 L 14.7,10.85 15.65,10.4 17.25,10 17.4,9.7 Q 17.6,9.5 17.75,9.5 L 17.9,9.4 q 0.5,0.1 0.65,0.55 l 1.45,0.2 1.9,0.25 q 0.9,-0.1 1.75,-1.35 l 1.4,-1.8 q 0.8,-0.7 2,-0.8 L 27.3,6.2 Q 27.7,5.95 28.05,5.95 28.85,6.05 29,6.65 30.75,7.1 31.45,8.6 32,9.8 31.2,10.15 30.7,10.4 29.65,9.6 29.15,9.2 28.3,9.05 L 27.45,9.1 q -0.35,0.15 -0.8,1.05 -0.65,1.4 -1.85,2.35 -1.25,1 -2.65,1.2 l -0.5,0.05 -0.1,0.35 q -0.25,0.65 -0.9,0.55 -0.65,0 -0.9,-0.55 l -0.1,-0.4 -1.5,-0.1 q -1.05,0.05 -1.9,0.55 -1,0.55 -1.2,1.45 -0.1,0.45 -0.05,1.1 l 0.2,1.15 q 0.15,1.55 -0.5,2.75 l 0.4,0.3 q 0.4,0.55 0.05,1.1 -0.35,0.6 -1,0.5 l -0.75,-0.45 -1.15,0.7 M 4.6,33.95 4.95,32.5 Q 5.3,31.85 6.15,31.7 H 6.5 V 31.45 Q 6.6,30.9 7,30.85 l 0.1,-0.05 0.5,0.25 0.1,0.55 -0.15,0.25 v 0.1 L 7.65,32 q 1.1,0.7 1.55,2.55 0.45,1.75 0.25,3.85 H 9.6 q 0.6,0.1 0.75,0.65 0.1,0.55 -0.3,0.95 l -0.5,0.3 -0.5,0.3 -1.15,3.45 -0.1,0.6 0.45,0.25 q 1.2,0.45 2,1.6 0.75,1.15 0.85,2.5 0.2,2.55 -1.6,4.85 0.85,0.25 1.5,1 0.6,0.7 0.75,1.55 0.1,0.75 -0.15,1.2 -0.4,0.7 -1,0.6 L 10.05,57.95 Q 9.85,57.65 9.9,57.35 9,58.15 7.4,58.05 L 4.8,57.5 2.75,57 Q 1.65,56.6 1.15,55.9 0.8,55.35 0.6,54.05 L 0.25,48.7 -0.15,43.35 Q -0.45,40.7 -0.05,39.6 0.4,38.5 2.4,36.8 4.3,35.2 4.6,33.95"
         fill="#999999"
         fill-rule="evenodd"
         stroke="none"
         id="path4" />
      <path
         d="M 43.35,23.1 Q 43,22.3 41,22.1 39.2,21.85 38,20.85 l -0.45,-0.1 -1.3,-0.3 -0.9,-0.2 q -0.6,-0.3 -0.5,-0.75 l 0.5,-0.6 0.75,-0.15 0.55,-0.1 -0.15,-1.35 q 0.15,-1.3 0.85,-2 v -0.15 l 0.05,-1.1 q 0,-0.55 0.25,-0.85 0.3,-0.3 0.7,-0.3 0.45,0 0.7,0.45 l 0.15,0.45 0.1,0.7 0.05,0.05 q 0.7,0.1 1.2,0.6 0.5,0.55 0.4,1.35 -0.05,0.8 -0.7,1.15 0.15,0.6 1.45,0.6 1.4,-0.05 2.7,0.7 l 0.9,0.6 0.1,-0.05 0.9,-0.25 0.9,-0.3 0.55,-0.4 0.65,-0.1 0.3,0.25 -0.1,0.35 -0.5,0.55 -0.5,0.45 -0.35,0.65 -0.5,0.9 0.4,2 q 0,1.1 -0.4,2.1 L 47,25.8 q 1.25,0.55 2,1.1 l 0.1,0.05 0.8,-0.45 1.1,-0.6 q 0.3,-0.1 0.6,0.2 0.35,0.45 0.1,1.05 l -0.65,0.9 -0.55,0.7 0.2,0.35 q 0.6,1.25 0.6,2.7 l 0.2,0.1 0.8,0.9 0.1,0.35 -0.3,0.35 -0.75,0.4 -0.35,0.05 q -0.3,1.1 -1,2 l 1.55,0.3 0.75,-0.3 0.7,-0.8 0.8,-0.6 0.55,0.05 0.3,0.35 -0.05,0.55 -0.95,1.2 q -0.15,0.2 -0.2,0.75 l 0.6,0.9 q 0.55,1.1 0.45,2.6 l -0.15,1.45 1.35,0.55 0.55,0.35 0.25,0.6 -0.25,0.55 -0.85,0.3 -0.95,-0.1 H 53.6 l -0.3,0.5 Q 52,47.2 50,47.95 l -3.4,0.25 -0.25,-0.05 -0.05,0.15 -0.35,0.85 0.05,0.2 0.35,1 0.45,1.4 q 0.1,0.5 -0.3,0.65 H 46 l -0.85,-0.55 -0.45,-0.55 -0.45,-0.35 -1,0.55 -1.6,0.6 -1.25,0.05 -2.2,-0.45 -0.1,0.05 -1.35,0.8 q -0.45,0.35 -0.7,0.35 l -0.4,-0.25 -0.1,-0.5 0.35,-0.55 0.2,-0.55 0.3,-0.4 q -0.65,-0.6 -1,-1.45 -0.55,-1.3 0.1,-2.1 0.45,-0.65 1.35,-0.65 0.75,0 1.45,0.55 l 1.1,0.95 q 0.7,0.4 1.6,0.3 0.85,-0.15 1.4,-0.75 l 0.25,-0.4 -2.1,-0.05 Q 38.45,46.8 37.4,45.85 36.1,45.1 35.4,43.8 L 34.8,42.05 34,41.7 33.05,41.35 32.5,41.25 32.25,40.8 q 0,-0.35 0.25,-0.55 L 33,40 33.4,39.65 q 0.45,-0.35 1.25,-0.6 0.05,-1.45 0.45,-2.55 l 0.05,-0.05 -1.35,-1.9 q -0.35,-0.65 -0.2,-0.95 0.25,-0.55 0.9,-0.35 l 1.8,1.05 1.25,-1.15 q -1,-1.5 -1.05,-2.95 l -1.65,-0.55 q -0.6,-0.4 -0.55,-0.85 0.1,-0.5 0.9,-0.6 l 1.7,-0.3 q 0.3,-0.8 0.95,-1.45 0.85,-0.9 2.05,-1.15 l 1.15,-0.15 1.15,-0.25 0.95,-0.7 q 0.4,-0.55 0.2,-1.1 M 41.85,29 40.7,29.2 Q 40,29.75 40.6,30.65 41,31.2 42,31.3 h 1.55 q 1.75,0.15 3.2,1.55 l 0.4,0.4 0.25,-1.15 q 0,-1.15 -0.7,-2 l -0.2,-0.2 q -0.35,0.3 -1.3,0.4 l -0.5,-0.15 -0.15,-0.4 0.2,-1 -0.6,-0.3 Q 43.05,29 41.85,29 M 40.1,42.6 41.25,42.75 41.2,42.5 q -0.15,-1.6 0.1,-2.9 0.45,-1.85 2.1,-3.3 l -0.8,-0.05 -1.6,0.15 -0.55,0.35 0.05,0.35 0.1,0.6 0.1,0.45 0.15,0.4 -0.05,0.35 -0.6,0.15 -0.7,-0.7 -0.25,-0.05 q -0.3,0.85 -0.2,2.05 0,0.8 0.3,1.55 l 0.3,0.45 0.45,0.25 m 9,-1.95 -1.3,2.25 -1.05,1.2 1.5,0.35 0.75,-0.15 -0.15,-1.85 0.2,-0.7 0.65,0.1 0.4,0.55 0.25,0.25 0.4,-1.4 Q 50.85,40.3 50.5,40 l -0.9,-0.15 -0.3,0.1 -0.2,0.7 M 36.8,10.15 37.05,11 q 0,0.55 -0.4,0.8 l -1.35,-0.05 -1.2,-0.85 -1,-0.3 -0.9,-0.4 q -0.5,-0.4 -0.5,-1.05 0.1,-0.7 0.6,-1 l 1.5,-0.1 q 2.2,0.45 3,2.1 M 27.4,9.4 26.65,9.85 25.75,9.9 q -0.55,0.05 -1.2,0.4 l -1.15,0.55 -1,0.3 -0.75,-0.2 Q 21.25,10.7 21.15,10.3 20.9,9.5 21.65,8.85 22,8.55 23.1,8.15 L 26.2,7.9 Q 26.8,8 27.25,8.35 27.7,8.9 27.4,9.4 M 18,13.55 q 0.1,0.6 -0.55,1.35 l -1.6,1.9 q -0.65,0.75 -1.1,0.85 l -1,-0.2 q -0.5,-0.4 -0.45,-0.95 0,-0.5 0.6,-1.3 1.35,-1.65 2.15,-2.05 0.55,-0.3 1.1,-0.25 0.7,0.1 0.85,0.65 m -6.6,8.3 0.5,0.55 -0.15,0.8 -1.05,2.1 -0.35,1.1 L 9.7,27.25 8.75,27.35 8,26.75 q -0.3,-0.7 0.15,-1.7 0.4,-1.2 1.3,-2.5 0.6,-0.8 1.1,-0.85 l 0.85,0.15 M 5.6,36.1 5.85,34.6 6,33.85 q 0.2,-1.2 0.85,-1.5 L 7.5,32.3 8.05,32.7 8.2,33.6 8.05,34.6 8,36 7.55,37.35 Q 7,38 6.3,37.75 5.85,37.55 5.7,37.05 L 5.6,36.1 M 6.45,48.7 Q 6,49.25 5.4,49.15 q -0.6,0 -0.95,-0.6 L 4.25,47.6 4.45,45 q 0.2,-1.1 0.7,-1.5 0.35,-0.35 0.8,-0.3 l 0.7,0.65 0.1,1 v 2.35 l -0.3,1.5"
         fill="#000000"
         fill-rule="evenodd"
         stroke="none"
         id="path5" />
    </g>
    <g
       id="shape2"
       transform="translate(1.5,1.5)">
      <path
         d="M 0,23.8 V 0 H 64.1 V 23.8 57.55 H 0 Z"
         fill="none"
         stroke="#000000"
         stroke-linecap="round"
         stroke-linejoin="round"
         stroke-width="3"
         id="path6" />
    </g>
  </defs>
</svg>
