<?xml version="1.0" encoding="UTF-8" standalone="no"?>
<svg
   ffdec:objectType="frame"
   height="44.349998"
   width="78.599998"
   version="1.1"
   id="svg12"
   sodipodi:docname="207.svg"
   xmlns:inkscape="http://www.inkscape.org/namespaces/inkscape"
   xmlns:sodipodi="http://sodipodi.sourceforge.net/DTD/sodipodi-0.dtd"
   xmlns:xlink="http://www.w3.org/1999/xlink"
   xmlns="http://www.w3.org/2000/svg"
   xmlns:svg="http://www.w3.org/2000/svg"
   xmlns:ffdec="https://www.free-decompiler.com/flash">
  <sodipodi:namedview
     id="namedview12"
     pagecolor="#ffffff"
     bordercolor="#000000"
     borderopacity="0.25"
     inkscape:showpageshadow="2"
     inkscape:pageopacity="0.0"
     inkscape:pagecheckerboard="0"
     inkscape:deskcolor="#d1d1d1"
     fit-margin-top="5"
     fit-margin-left="5"
     fit-margin-right="5"
     fit-margin-bottom="5" />
  <g
     transform="translate(2,2.05)"
     id="g3">
    <use
       ffdec:characterId="1"
       height="42.700001"
       transform="translate(-1.75,-2)"
       width="76.449997"
       xlink:href="#shape0"
       id="use1" />
    <use
       ffdec:characterId="204"
       height="35.75"
       transform="translate(-1.5,3.8)"
       width="76.949997"
       xlink:href="#shape1"
       id="use2" />
    <use
       ffdec:characterId="3"
       height="44.349998"
       transform="translate(-2,-2.05)"
       width="78.599998"
       xlink:href="#shape2"
       id="use3" />
  </g>
  <defs
     id="defs12">
    <g
       id="shape0"
       transform="translate(1.75,2)">
      <path
         d="M 2.8,0 V -0.4 H 5.4 V 0 H 9.7 V 19.45 0 H 20.55 L 19.3,19.45 H 9.7 0.25 V 0 H 2.8"
         fill="#ffffff"
         fill-rule="evenodd"
         stroke="none"
         id="path3" />
      <path
         d="M 0.25,19.45 H 9.7 19.3 L 18.7,28.6 16,28.5 10.95,27.95 9.7,27.8 Q 7.45,27.6 5.85,27.75 4.05,27.9 1.5,28.6 0.75,28.8 0.25,29.15 v -9.7 m 9.45,0 v 8.35 -8.35"
         fill="#121212"
         fill-rule="evenodd"
         stroke="none"
         id="path4" />
      <path
         d="m 9.7,27.8 1.25,0.15 5.05,0.55 2.7,0.1 h 1.05 l 3.75,0.15 q 2.45,0.3 3.6,1.25 0.6,0.5 0.6,1.1 0,0.65 -0.8,1 l -1.3,0.2 -7.15,0.15 -5.6,-0.3 L 9.7,31.75 7.95,31.6 3.1,31.95 0.95,32.3 0.25,32.1 -0.35,31.55 -0.5,31.3 V 29.9 L 0.25,29.15 Q 0.75,28.8 1.5,28.6 4.05,27.9 5.85,27.75 7.45,27.6 9.7,27.8 v 3.95 -3.95"
         fill="#999999"
         fill-rule="evenodd"
         stroke="none"
         id="path5" />
      <path
         d="M 2.8,0 H 0.25 M 9.7,0 H 5.4 m 16.15,0 h 10.7 M 20.55,0 H 9.7"
         fill="none"
         stroke="#666666"
         stroke-linecap="round"
         stroke-linejoin="round"
         stroke-width="4"
         id="path6" />
      <path
         d="m 9.7,-0.4 h 65 V 40.5 H 47.05 L 45.5,40.7 27,40.65 25.95,40.5 H 9.7 -0.5 V -0.4 H 9.7 V 40.5 -0.4"
         fill="#ffffff"
         fill-rule="evenodd"
         stroke="none"
         id="path7" />
    </g>
    <g
       id="shape1"
       transform="translate(1.5,-3.8)">
      <path
         d="m 69.1,13.85 0.6,0.05 0.85,0.05 h 1.95 l 2.4,0.1 0.55,0.5 -0.1,0.55 -0.8,0.65 h -1 -4.05 l -0.85,-0.05 -1.3,-0.5 0.15,1.05 q 0.75,6.7 0.7,9.6 0,0.9 0.15,1.3 L 69,28 q 1.75,1.65 3.35,1.7 L 74,29.65 q 1.05,0.1 1.25,0.7 0.2,0.6 -0.35,1.15 L 73.75,32 q -2,0.35 -3.95,-0.5 -1.95,-0.85 -3.1,-2.55 -0.4,-0.5 -0.65,-1.4 L 65.8,25.95 65.15,14.5 65.35,13 v -0.3 q 0,-0.75 0.45,-1.25 0.55,-0.5 1.2,-0.7 1.65,-0.6 3.35,-0.7 l 3.15,0.05 0.75,0.1 0.35,0.6 q -0.05,0.45 -0.75,0.55 L 71.6,11.5 q -1.9,0.15 -4.3,1.2 1.1,1 1.8,1.15 m 4.4,6.1 h 0.75 l 0.35,0.25 -0.1,0.35 -0.65,0.5 q 0.75,0.55 0.8,1.25 l -0.1,0.85 0.1,1.05 0.05,2.85 q 0,1.15 -0.55,1.6 l -0.9,0.3 -0.95,-0.25 -1.85,-0.8 -0.6,-0.4 Q 69.35,27.1 69.2,26.45 L 68.9,23.65 68.85,22 v -0.75 l -0.1,-0.9 Q 68.8,20.1 69.2,19.9 l 0.65,-0.1 1.65,0.15 1,0.15 1,-0.15 m -26.05,13.55 1.2,-0.2 q 3.9,-0.7 6.75,-2 l 1.5,-1 q 0.65,-0.85 0.3,-1.65 -0.45,-0.85 -1.9,-0.95 -1.65,-0.2 -5,0.1 l -1.7,0.3 -1.1,0.65 2.1,0.25 2.15,-0.15 4.4,0.3 q -0.05,0.45 -0.8,0.75 -1.85,0.85 -5,1.7 l -4.25,0.95 -6.6,0.5 -8.05,0.15 -3.65,-0.1 -7.3,-0.9 -3.15,-0.95 q 0.65,-0.95 2.2,-1.4 l 2.6,-0.6 q 0.65,-0.2 0.7,-0.6 0,-0.35 -0.4,-0.55 L 21.7,28.05 q -2.95,0.35 -4.75,1.75 -0.6,0.55 -0.85,1.05 -0.25,0.75 0.1,1.25 0.3,0.4 1.05,0.6 4.3,1.35 10.35,1.6 l 4.45,0.05 8.1,-0.1 7.3,-0.75 m 3.5,-8.7 2.45,0.3 4,0.85 q 1.6,0.35 2.65,0.85 1.65,0.75 1.7,2.05 l -0.2,1.1 q -0.6,1.25 -1.8,2.05 l -2.45,1.3 -2.75,1 -3.25,0.5 -7,1.25 -7.05,1 -14.8,-0.8 -2.2,-0.3 Q 18.1,35.6 15,34.5 L 14.1,34.15 13.2,33.6 11.85,33.1 q -0.8,-0.5 -0.8,-2.05 0,-0.8 0.2,-1.15 0.25,-0.55 0.85,-0.95 1.3,-0.85 3.8,-1.5 3.75,-0.9 10.45,-1.65 l 2.5,-0.3 11.05,-0.95 Q 45.95,24.3 50.95,24.8 M 14.05,7.05 14.6,7.55 14.9,8 15,8.45 l 0.05,0.75 -0.2,0.85 -0.45,1.15 -0.2,0.25 -1,1 -1.2,0.9 -0.1,0.15 q 0.15,0.45 -0.1,0.85 L 11.4,14.65 10.3,14.6 9.95,14.2 9.65,13.85 8.25,13.65 6.9,13.2 Q 6.45,13.05 6.25,12.9 l -0.4,-0.45 -0.4,-0.7 -0.1,-0.6 Q 5.35,10.1 5.9,9.25 6.45,8.5 7.25,8.05 l 1.2,-0.45 0.7,0.05 1.1,0.3 0.25,-0.4 q 0.85,-0.75 1.7,-0.9 1.05,-0.15 1.85,0.4 m -2.3,4.4 0.7,-0.7 L 13,10.1 13.25,9.6 13.45,8.7 13.2,8.35 12.35,8.3 11.95,8.45 11.2,9.35 11,9.6 10.2,9.7 9.45,9.45 l -1,0.2 Q 7.7,10 7.4,10.65 v 0.6 l 0.45,0.3 1.5,0.45 1,0.05 0.6,0.3 0.8,-0.9 M 2.9,36.9 2.6,37.4 1.75,38.4 0.9,39.3 0.4,39.55 Q 0.05,39.5 0.05,39 L 0.3,38.4 0.55,38.05 0,38.4 -1.1,38.25 Q -1.4,38 -1.5,37.2 V 36.85 L -1.05,35.7 -0.45,35 0.8,33.8 0.95,33.65 1.15,33.2 2.05,32.4 4.9,29.8 6.1,28.6 8.45,26.45 q 0.75,-0.55 1.2,-0.5 0.4,0.05 0.65,0.4 l 0.15,0.8 -0.35,0.6 -2.75,5.2 -0.4,0.9 L 6.8,34.5 6.5,34.95 5.85,35.1 4.05,35.15 3.8,35.6 3,36.9 H 2.9"
         fill="#767676"
         fill-rule="evenodd"
         stroke="none"
         id="path8" />
      <path
         d="m 47.45,33.5 -7.3,0.75 -8.1,0.1 L 27.6,34.3 Q 21.55,34.05 17.25,32.7 16.5,32.5 16.2,32.1 q -0.35,-0.5 -0.1,-1.25 0.25,-0.5 0.85,-1.05 1.8,-1.4 4.75,-1.75 l 0.75,0.05 q 0.4,0.2 0.4,0.55 -0.05,0.4 -0.7,0.6 l -2.6,0.6 q -1.55,0.45 -2.2,1.4 l 3.15,0.95 7.3,0.9 3.65,0.1 8.05,-0.15 6.6,-0.5 4.25,-0.95 q 3.15,-0.85 5,-1.7 0.75,-0.3 0.8,-0.75 l -4.4,-0.3 -2.15,0.15 -2.1,-0.25 1.1,-0.65 1.7,-0.3 q 3.35,-0.3 5,-0.1 1.45,0.1 1.9,0.95 0.35,0.8 -0.3,1.65 l -1.5,1 q -2.85,1.3 -6.75,2 l -1.2,0.2"
         fill="#ffffff"
         fill-rule="evenodd"
         stroke="none"
         id="path9" />
      <path
         d="M 34.7,9.3 37,9 40.75,9.15 H 40.8 L 41.75,8.5 43.8,6.7 q 1.15,-0.9 2,-0.75 l 1.1,0.75 q 1.7,1.75 3.55,5.2 l 0.45,0.9 0.35,1.1 0.2,0.55 v 0.05 l 1.3,-0.9 q 1.4,-0.7 2.35,-0.6 l 1.15,0.35 0.35,0.2 3.5,-3.9 4.7,-4.75 1.3,-1 1.15,-0.05 0.95,0.55 0.5,1 Q 68.8,6 68.55,6.5 l -0.9,1.05 -4.35,3.75 -5.1,3.4 -0.5,0.35 0.2,0.45 0.2,0.55 V 17 l -0.4,1.35 -1.6,1.6 -1.65,1 q 0.7,2.65 0.45,4.85 -0.35,2.8 -2.15,4.45 -1.6,1.4 -5.4,2.2 l -6.85,1 -10.35,-0.1 -6.8,-1.2 Q 19.6,31 18.15,29.1 q -1,-1.3 -1.15,-3 -0.1,-1.2 0.35,-3.15 0.6,-2.1 1.1,-3.1 l 0.9,-1.35 -0.05,-0.05 q -1.15,-1.5 -1.9,-3.35 -0.3,-0.8 -0.25,-1.15 0.05,-0.65 0.7,-1.2 0.45,-0.4 1.25,-0.65 2.3,-0.9 7.15,-1.5 l 2.3,-0.25 h 1.7 Q 32.1,9.75 34.7,9.3 m -7.45,16.85 q -0.4,-0.3 -0.65,-0.35 -0.4,-0.05 -0.7,0.3 -0.3,0.3 -0.25,0.7 0.15,0.75 1.05,1.2 l 1.85,0.45 1.55,0.1 q 1.75,0.05 3.3,-0.85 1.6,-0.85 2.55,-2.35 0.55,0.7 1.95,1 l 4.9,0.15 q 2.75,-0.55 5.3,-2.7 0.8,-0.55 0.6,-1.1 l -0.4,-0.45 -0.6,-0.05 -1.1,0.6 q -1.65,1.25 -3.75,1.7 -2.05,0.45 -4.1,0.05 -1.35,-0.3 -1.8,-1.05 l -0.5,-0.85 q -0.3,-0.4 -0.85,-0.2 -0.3,0.1 -0.65,0.65 l -0.3,0.95 q -0.35,0.8 -1.4,1.55 l -1.1,0.7 -3.65,0.2 -1.25,-0.35 m 13.05,-5.8 0.85,0.65 0.9,-0.4 0.4,-0.25 0.4,-0.1 0.4,-0.2 0.55,-0.05 0.65,-0.2 1.95,-0.25 h 0.55 l 0.45,-1.65 0.05,-0.6 q 0.1,-1.75 -1.7,-2.75 -1.5,-0.8 -3.3,-0.4 l -0.95,0.3 q -1.3,0.55 -1.7,1.9 l -0.15,0.6 -0.05,1.8 q 0.15,1 0.7,1.6 m 14.1,-4.9 q -0.8,0.4 -1.2,0.75 l -0.4,0.4 0.1,0.25 0.25,-0.2 0.85,-0.6 0.35,-0.3 0.15,-0.1 0.25,-0.3 -0.35,0.1 m 0.2,2.8 0.95,-1.15 q -0.1,0 -0.5,0.3 l -0.5,0.35 -0.15,0.15 -0.8,0.5 0.2,0.5 0.8,-0.65 m -26.95,1.5 q 0.45,-0.35 0.5,-0.75 0.1,-0.55 -0.3,-0.85 L 26.95,18 26.45,18.4 25.4,19.55 25.05,19.3 24.5,19.05 24.05,18.75 q -0.7,-0.4 -1.45,0 -0.75,0.4 -0.75,1.25 -0.05,0.55 0.35,1 l 0.9,0.55 0.6,0.05 0.1,0.05 -1.35,1.75 -0.05,0.5 0.15,0.5 0.6,0.45 0.7,-0.15 0.35,-0.35 0.55,-0.75 0.3,-0.3 0.25,-0.5 0.25,-0.3 1.65,1.05 0.5,0.2 0.5,0.05 0.45,0.1 q 0.5,0 0.6,-0.5 0.15,-0.4 -0.2,-0.7 l -0.6,-0.4 -0.55,-0.65 -0.95,-0.85 -0.05,-0.05 0.75,-1"
         fill="#000000"
         fill-rule="evenodd"
         stroke="none"
         id="path10" />
      <path
         d="m 40.3,20.35 q -0.55,-0.6 -0.7,-1.6 l 0.05,-1.8 0.15,-0.6 q 0.4,-1.35 1.7,-1.9 l 0.95,-0.3 q 1.8,-0.4 3.3,0.4 1.8,1 1.7,2.75 l -0.05,0.6 -0.45,1.65 H 46.4 l -1.95,0.25 -0.65,0.2 -0.55,0.05 -0.4,0.2 -0.4,0.1 -0.4,0.25 -0.9,0.4 -0.85,-0.65 m -13.05,5.8 1.25,0.35 3.65,-0.2 1.1,-0.7 q 1.05,-0.75 1.4,-1.55 l 0.3,-0.95 q 0.35,-0.55 0.65,-0.65 0.55,-0.2 0.85,0.2 l 0.5,0.85 q 0.45,0.75 1.8,1.05 2.05,0.4 4.1,-0.05 2.1,-0.45 3.75,-1.7 l 1.1,-0.6 0.6,0.05 0.4,0.45 q 0.2,0.55 -0.6,1.1 -2.55,2.15 -5.3,2.7 l -4.9,-0.15 q -1.4,-0.3 -1.95,-1 -0.95,1.5 -2.55,2.35 -1.55,0.9 -3.3,0.85 L 28.55,28.45 26.7,28 q -0.9,-0.45 -1.05,-1.2 -0.05,-0.4 0.25,-0.7 0.3,-0.35 0.7,-0.3 0.25,0.05 0.65,0.35 m 0.4,-6.4 -0.75,1 0.05,0.05 0.95,0.85 0.55,0.65 0.6,0.4 q 0.35,0.3 0.2,0.7 -0.1,0.5 -0.6,0.5 l -0.45,-0.1 -0.5,-0.05 -0.5,-0.2 -1.65,-1.05 -0.25,0.3 -0.25,0.5 -0.3,0.3 -0.55,0.75 -0.35,0.35 -0.7,0.15 L 22.55,24.4 22.4,23.9 22.45,23.4 23.8,21.65 23.7,21.6 23.1,21.55 22.2,21 q -0.4,-0.45 -0.35,-1 0,-0.85 0.75,-1.25 0.75,-0.4 1.45,0 l 0.45,0.3 0.55,0.25 0.35,0.25 1.05,-1.15 0.5,-0.4 0.9,0.15 q 0.4,0.3 0.3,0.85 -0.05,0.4 -0.5,0.75"
         fill="#ffffff"
         fill-rule="evenodd"
         stroke="none"
         id="path11" />
    </g>
    <g
       id="shape2"
       transform="translate(2,2.05)">
      <path
         d="M -0.5,-0.4 V -0.55 H 75.1 V -0.4 40.8 H -0.5 Z"
         fill="none"
         stroke="#000000"
         stroke-linecap="round"
         stroke-linejoin="round"
         stroke-width="3"
         id="path12" />
    </g>
  </defs>
</svg>
