<?xml version="1.0" encoding="UTF-8" standalone="no"?>
<svg
   ffdec:objectType="frame"
   height="60.549999"
   width="67.099998"
   version="1.1"
   id="svg8"
   sodipodi:docname="591.svg"
   xmlns:inkscape="http://www.inkscape.org/namespaces/inkscape"
   xmlns:sodipodi="http://sodipodi.sourceforge.net/DTD/sodipodi-0.dtd"
   xmlns:xlink="http://www.w3.org/1999/xlink"
   xmlns="http://www.w3.org/2000/svg"
   xmlns:svg="http://www.w3.org/2000/svg"
   xmlns:ffdec="https://www.free-decompiler.com/flash">
  <sodipodi:namedview
     id="namedview8"
     pagecolor="#ffffff"
     bordercolor="#000000"
     borderopacity="0.25"
     inkscape:showpageshadow="2"
     inkscape:pageopacity="0.0"
     inkscape:pagecheckerboard="0"
     inkscape:deskcolor="#d1d1d1"
     fit-margin-top="5"
     fit-margin-left="5"
     fit-margin-right="5"
     fit-margin-bottom="5" />
  <g
     transform="translate(1.5,1.5)"
     id="g3">
    <use
       ffdec:characterId="516"
       height="57.549999"
       width="64.099998"
       xlink:href="#shape0"
       id="use1" />
    <use
       ffdec:characterId="1083"
       height="56.900002"
       transform="translate(0.2,0.75)"
       width="63.950001"
       xlink:href="#shape1"
       id="use2" />
    <use
       ffdec:characterId="518"
       height="60.549999"
       transform="translate(-1.5,-1.5)"
       width="67.099998"
       xlink:href="#shape2"
       id="use3" />
  </g>
  <defs
     id="defs8">
    <g
       id="shape0">
      <path
         d="M 53.6,0 H 64.1 V 57.55 H 53.6 28.25 0 V 0 H 28.25 53.6 V 57.55 0 M 28.25,0 V 57.55 0"
         fill="#ffffff"
         fill-rule="evenodd"
         stroke="none"
         id="path3" />
    </g>
    <g
       id="shape1"
       transform="translate(-0.2,-0.75)">
      <path
         d="m 61.75,46.2 0.15,0.1 2.25,-2.3 v 5.8 l -0.2,-0.1 -1.15,-0.45 -1,0.9 -2.55,1.8 q -2.55,1.7 -4.2,2.5 l -3.8,1.45 1.1,1.75 h -2 l -1.1,-1.15 -3.15,0.85 -1.4,0.3 H 9.45 L 8.7,57.45 4.85,56 Q 2.9,55.15 1.85,54.5 L 0.2,53.15 v -3.4 L 6.15,46.35 5.85,46 Q 5.3,45.15 5.3,43.6 q 0.15,-2.3 1.6,-4.4 1,-1.45 3.3,-3.45 2.15,-1.8 4.5,-3.3 L 12.75,32.2 5.5,30.9 0.2,30 v -1.1 l 2.15,0.2 6.75,0.85 3.25,0.35 3.55,0.25 1.65,0.2 q 2.65,-1.45 5.55,-2.5 l -2.2,-1.6 -2.25,-1.5 -1.7,-0.95 -5.55,-3.45 -0.15,-0.2 q 0,-0.25 0.45,-0.15 2.7,0.9 6.2,2.35 4.3,1.8 6.3,2.95 l 3.7,2.3 3.65,2.3 0.3,-0.05 1.55,-0.15 q -0.05,-0.5 0.2,-1.05 l 0.6,-1.15 4.85,-7.8 2,-2.7 1.95,-2.8 0.45,-0.5 q 0.4,-0.2 0.55,0.15 l -0.1,0.5 -1.05,1.9 -0.25,0.45 -0.5,0.95 -0.3,0.6 -2.1,4.9 q 2.75,-0.85 5.6,-1.1 2.35,-2.75 6.6,-8.9 l 3.75,-5.3 q 0.75,-1.05 1.45,-1.1 0.45,0 0.75,0.35 l 0.25,0.8 -0.45,0.9 -9.4,11.15 -2,1.9 -0.2,0.15 6.25,0.15 0.4,0.05 q 4.45,-2.2 8.55,-4.15 l 2.05,-0.9 q 0.6,-0.25 0.75,0 l 0.1,0.15 V 18 l -0.5,0.4 -8,4.85 1.05,0.4 q 2.35,1.1 3.45,2.9 1.15,1.75 1,4.2 l -0.3,2.15 3.3,0.1 v 2.1 l -4.25,0.2 q -1.8,3.85 -5.2,6.7 2.75,1.85 7.05,4.2 m -10.65,-6.65 1.95,1.3 q 2.8,-2.5 4.35,-5.45 l -1.95,0.1 -4.1,0.25 -0.4,1.25 q -0.4,1 -1.15,1.85 l 1.3,0.7 m 1.1,-6.65 h 6.25 v -0.05 q 0.75,-2.4 0.3,-3.95 -0.65,-2.3 -3.25,-3.55 -0.9,-0.4 -2.25,-0.7 l -1.1,0.6 q -3.95,2.25 -6.9,4.2 1.45,0.35 2.8,1 1.85,0.9 2.55,2.05 l 0.25,0.4 h 1.35 m -6.75,3.95 0.2,0.05 1,-0.75 -1,0.1 -0.2,0.6 m -2,5.4 -0.55,0.15 2,3.4 4.35,-2.2 Q 46.6,42.3 45.1,41.8 l -1.65,0.45 m 15.05,5.5 Q 56,47 51.7,44.8 l -0.6,-0.3 -0.55,0.3 q -2.3,1.25 -4.95,2.1 l 3.65,5.9 1.15,-0.35 3.3,-1.2 2.75,-1.45 3,-1.75 -0.95,-0.3 m -44.3,-38 q -0.05,0.5 0.35,0.85 l 0.9,0.15 0.5,-0.45 Q 16.2,9.8 15.95,9.4 15.7,8.9 15.15,8.9 L 14.9,8.95 Q 14.3,9.1 14.2,9.75 M 10.45,9.35 Q 11.4,8.2 12.3,7.95 L 12.7,7.9 12.8,7.75 Q 13.3,7.1 14.3,6.9 15.55,6.8 16.15,7.5 17,8.25 16.65,9.3 v 0.1 q 0.85,1.05 0.4,2.7 l -0.2,0.55 0.1,0.1 0.4,0.25 0.45,0.65 0.5,1.25 0.05,0.35 -0.1,0.95 v 0.1 l -0.5,1 -0.1,0.15 0.1,0.25 q 0.2,0.75 -0.1,1.4 -0.35,0.65 -0.25,0.9 0.2,0.55 0.75,0.45 L 19,20.15 q 0.6,-0.35 0.85,-0.4 h 0.05 q 0.25,0 0.3,0.15 l -0.05,0.3 v 0.05 l -1.05,0.8 -1.85,0.15 Q 16.7,21 16.4,20.4 16.1,19.9 16.15,19.3 V 18.45 H 15.1 L 14.15,18.25 13.3,17.6 12.7,16.85 12.55,15.9 12.7,15.2 11.7,14.95 10.4,13.85 9.95,13.9 8.7,13.7 Q 8.05,13.45 7.8,12.85 7.55,12.4 7.65,11.6 7.8,10.7 8.35,10.15 8.95,9.45 9.8,9.55 l 0.45,0.15 0.2,-0.35 m 1.6,3.85 q 0.6,-0.15 0.7,-0.85 0.15,-0.55 -0.35,-1 -0.55,-0.45 -1.1,-0.2 -0.55,0.25 -0.65,0.9 -0.1,0.65 0.5,1 l 0.9,0.15 M 10.2,43.85 17,39.75 q -0.35,-0.7 -0.35,-1.5 -0.05,-1.75 1.75,-3.5 0.7,-0.7 1.55,-1.25 l -1.4,-0.45 -1.5,-0.25 Q 12.2,35.65 9,39.2 q -1.1,1.1 -1.75,2.4 -0.5,1.1 -0.5,2.15 -0.1,0.9 0.25,1.5 l 0.3,0.4 2.9,-1.8 m -6.85,6.3 -2.8,1.25 1.4,1.2 2.5,1.1 5.05,1.5 6.1,0.65 0.9,0.05 3.65,-6.15 q -4.5,0.1 -8.9,-1 l -2.9,-0.95 -5,2.35 m 18.9,-7.3 -2.15,-0.6 -10.1,4.8 3.65,0.75 7.1,1 3.5,-5.55 -2,-0.4 M 37.35,29 l -0.1,0.55 2.5,-0.4 q 5.15,-2.7 10,-5.05 L 39.65,23.65 37.35,29 m -10.7,1.95 -2.25,-1.75 -4.45,2 3.2,0.7 q 1.55,-0.6 3.5,-0.95 m -2.2,19.5 -4.8,5.45 5.3,-0.15 4.85,-0.2 6,-0.35 5,-0.5 5.75,-1.2 -1.45,-1.7 -3.15,-3.9 -4.55,0.75 q 0.3,-0.3 0.95,-0.5 l 3,-0.95 -3.1,-3.8 -8.35,0.45 -4.4,5.35 h 0.15 l -0.15,0.05 -1.05,1.2"
         fill="#767676"
         fill-rule="evenodd"
         stroke="none"
         id="path4" />
      <path
         d="M 14.2,9.75 Q 14.3,9.1 14.9,8.95 L 15.15,8.9 q 0.55,0 0.8,0.5 0.25,0.4 0,0.9 l -0.5,0.45 -0.9,-0.15 Q 14.15,10.25 14.2,9.75 m -2.15,3.45 -0.9,-0.15 q -0.6,-0.35 -0.5,-1 0.1,-0.65 0.65,-0.9 0.55,-0.25 1.1,0.2 0.5,0.45 0.35,1 -0.1,0.7 -0.7,0.85"
         fill="#ffffff"
         fill-rule="evenodd"
         stroke="none"
         id="path5" />
      <path
         d="m 55.65,32.55 q -1.4,-0.35 -2.15,-1.3 l -0.7,0.1 -1.15,-0.15 -1.25,-0.95 q -0.4,-0.7 -0.5,-1.6 l 0.05,-0.6 q 0,-0.45 0.4,-1.35 l 0.4,-0.75 q 0.5,-0.55 1.25,-0.8 0.75,-0.15 1.5,0 l 0.3,0.15 0.75,-0.8 1.1,-0.8 v -0.05 l 0.15,-0.5 0.45,-0.8 0.25,-0.25 1.15,-0.7 0.7,-0.1 h 0.6 0.4 l 0.95,0.45 q 0.95,0.65 0.85,1.95 L 61,24.3 q 1.45,1.15 1.75,3.35 v 1.65 l 0.5,0.4 0.9,1 v 6.05 l -0.35,0.5 q -1.2,1.35 -3.05,1.35 h -0.6 l -0.2,0.1 Q 58.85,39.45 58,39.55 L 56.95,39.6 55.9,39.5 q -0.85,-0.25 -1.3,-0.75 l -0.5,-0.7 -0.15,-0.15 -1.05,0.35 -0.8,0.15 -0.45,-0.15 q -0.3,-0.15 -0.1,-0.35 0.15,-0.25 0.75,-0.2 l 0.1,-0.05 0.1,-0.15 v -0.15 l 0.2,-0.15 0.05,-0.05 0.15,-0.2 q 0.6,-0.6 1.35,-0.5 0.9,0.1 1.15,0.85 0.55,0.55 1.75,0.55 L 58,37.7 l -0.35,-0.25 -0.7,-0.8 q -0.25,-0.4 -0.35,-1 l -0.15,-1.2 Q 56.5,33.55 57,32.8 L 55.65,32.55 M 23.15,5.3 q 2.3,-1.7 4.75,-2 l 0.25,-0.1 0.2,-0.15 0.85,-1.25 1.05,-1 1.2,0.2 0.6,0.65 1.3,1.7 0.55,0.35 q 1,0.8 1.75,2.2 1.2,1.95 1.45,3.45 l 0.05,2.4 -0.4,2 -0.8,1.7 3.25,1.35 1.45,1.1 1.8,-1.55 q 1.7,-1.15 2.85,-1.45 1.75,-0.45 3.05,0.25 0.95,0.65 1.95,2.35 L 51,16.65 q 1.05,-1.2 1.7,-1.45 0.75,-0.2 1.4,0 0.7,0.3 1.1,0.95 0.8,1.2 0.2,2.75 -0.5,1.25 -1.9,2.2 -1.6,1 -3.2,1.05 -1.85,0 -2.95,-1.4 l -0.7,-1.3 -0.4,-0.6 -0.65,0.05 q -1.35,0.45 -2.6,1.4 l 0.4,0.75 q 1.1,2.2 0.25,4.05 -0.5,1.05 -1.55,1.8 l -0.45,0.45 q -0.75,0.75 -2.4,1.4 l 1.8,3.1 1.25,2.3 0.3,0.3 0.35,-0.05 1.95,-0.1 q 1.7,0.3 2.45,1.35 0.45,0.85 0.3,1.9 -0.15,0.9 -1.1,1.65 -0.95,0.6 -2.9,0.4 l -2,-0.25 Q 40.85,39.2 40.5,38.9 39.95,38.5 39.4,37.05 l -0.85,-2.1 -2,-4.05 -0.2,-0.45 -0.4,0.1 -2.1,0.35 -2.95,-0.35 -1.3,-0.8 q -2.45,1.5 -3.6,2.8 l 1.9,1.7 q 1,1.25 0.55,2.4 -0.5,1.1 -1.95,1.55 L 24,38.85 22.65,39.5 q -0.75,0.25 -1.45,0 -0.75,-0.2 -1.25,-0.7 -0.5,-0.55 -0.65,-1.3 -0.15,-0.8 0.15,-1.45 0.25,-0.7 0.95,-1.15 0.6,-0.55 1.3,-0.6 -0.6,-0.85 -0.45,-2 0.2,-1.15 0.9,-2.15 0.8,-1.2 3.4,-2.75 1.45,-0.8 2.55,-1.3 l 0.1,-2.6 -2.5,2.3 q -1.9,1.55 -3.85,2.2 l -4.25,0.25 q -1.1,-0.3 -1.7,-0.85 -1.2,-0.95 -1,-3.05 0,-1.05 0.45,-1.75 0.4,-0.75 1.3,-1.05 l 1.7,-0.2 q 1.6,0.3 2.75,1.8 l 0.5,0.35 0.5,-0.15 q 2.55,-1.25 3.6,-2.2 L 27.35,19.5 H 27 L 24.2,19.1 Q 22.6,18.65 21.35,17.45 21.3,17.3 21.05,17.3 l -0.1,-0.1 q -1.05,-1.05 -1.5,-2.5 l -0.2,-1.2 v -0.1 l 0.1,-1.05 -0.05,-0.4 V 11.9 l 0.1,-0.35 v -0.1 L 19.15,10.8 18.7,8.9 18.55,8.45 V 7.8 Q 18.6,7.25 19,6.8 l 0.5,-0.2 1.8,-0.15 0.4,0.05 1.45,-1.2 m 34.7,23.75 -0.25,-0.3 q -0.55,-0.55 -1.2,-0.3 -0.7,0.25 -0.8,1 0,0.8 0.7,1.05 0.7,0.35 1.25,-0.2 0.55,-0.5 0.3,-1.25 m 2.9,-3.1 q 0.5,-0.75 -0.1,-1.45 -0.55,-0.6 -1.35,-0.35 -0.8,0.25 -0.8,1.15 0,0.95 0.9,1.2 l 0.75,-0.05 0.6,-0.5 M 34.9,11.8 34.95,11.75 Q 35.2,11.15 35.05,10.5 34.9,9.45 34,8.85 l -0.2,0.5 q -0.9,1.9 -2.75,3.35 l 0.5,0.3 0.45,0.2 0.65,0.2 0.25,0.05 q 0.7,0 1.2,-0.4 0.6,-0.4 0.8,-1.25 m -12.3,5 0.85,0.1 0.8,-0.2 q 1.2,-0.5 1.4,-1.85 H 25.2 q -1.85,0 -2.95,-0.65 -0.65,-0.3 -1.05,-0.8 l -0.25,0.7 q -0.25,1 0.35,1.85 l 0.45,0.4 q 0.4,0.4 0.85,0.45 m 14.5,4.85 0.4,1.6 L 37.55,23 Q 38.1,21.4 38.5,20.75 37.45,19.7 35.95,19.1 l 1.15,2.55 M 8,29.25 q 0.75,0.6 1.1,1.55 1.2,0.3 1.55,1.6 0.25,1.35 -0.8,2.2 -0.75,0.65 -1.6,0.5 -0.8,0.95 -2.45,1.4 l -0.6,0.1 -0.95,1.4 -0.8,0.5 -0.6,0.15 q -1.3,0.05 -2,-0.6 l -0.4,-0.4 -0.25,-0.4 v -2.3 L 0.7,34.35 0.85,34.2 0.8,34.05 0.55,32.7 Q 0.6,31.55 1.2,30.4 L 1.3,30.35 0.2,28.7 V 25.35 Q 0.55,24.3 1.25,23.55 L 2.75,22.5 V 21.8 L 2.85,21.15 3,20.85 3.05,20.7 3.3,20.3 3.7,19.8 Q 4.5,18.75 5.6,18.55 L 6.25,18.4 Q 6.5,18.2 6.4,17.85 L 6.3,17.3 6,16.8 6.05,16.55 H 6.3 q 0.35,0 0.55,0.15 l 0.35,0.35 0.25,0.65 0.1,0.8 -0.65,1.05 -0.55,0.4 Q 5.3,20.7 4.85,21.4 L 5,22.25 q 0.65,0.15 1.25,0.6 0.8,0.45 1.1,1.35 l 0.15,0.75 q 0.2,0.65 0.05,1.2 -0.1,1.3 -1.1,2.25 L 8,29.25 m -5.85,4.6 Q 1.7,34.1 1.7,34.6 q 0,0.35 0.25,0.6 0.25,0.25 0.6,0.3 L 3.2,35.25 3.45,34.85 Q 3.65,34.2 3.15,33.9 l -1,-0.05 m 4.2,-3.7 q -0.5,0.2 -0.7,0.7 -0.25,0.5 -0.15,1.05 0.15,0.5 0.65,0.85 0.45,0.3 1,0.2 l 0.9,-0.5 Q 8.45,32 8.45,31.5 L 8.1,30.6 7.3,30.05 6.35,30.15 m 31.25,15.95 0.55,1 0.25,0.85 q 0.7,0.1 1.25,0.45 1.2,0.8 1.2,2.2 0,1.4 -1.05,2.35 -1.2,1 -2.65,0.7 l -0.65,-0.2 q -0.35,0.2 -0.75,0.5 L 34.5,54.7 31,54.9 30.9,55.1 30.05,56.95 H 22.5 q -0.6,-0.6 -0.85,-1.25 -0.2,-0.6 -0.15,-1.4 l -0.4,-0.25 -0.9,-0.8 -0.45,-0.8 q -0.4,-0.25 -0.4,-0.9 -0.15,-0.95 0.55,-2.7 l 0.35,-0.75 1.55,-1.7 q 0.3,-0.5 0.1,-0.85 -0.3,-0.25 -0.25,-0.5 0,-0.35 0.25,-0.45 0.45,-0.3 0.95,0.2 l 0.3,0.95 0.05,0.7 -0.15,0.6 -1.3,2.15 -0.15,0.5 q -0.2,0.65 -0.05,1.15 l 0.25,0.45 0.05,-0.35 q 0.45,-1.4 1.7,-2.35 1.2,-0.95 2.75,-1.25 l 1.25,-0.05 0.15,0.05 0.05,-0.1 v -0.1 q 0.15,-0.75 0.6,-1.2 l 0.7,-0.75 q 0.7,-0.7 1.3,-1 0.35,-0.3 0.7,-0.45 0.1,-1.15 1,-1.95 0.3,-0.35 0.7,-0.55 0.25,-0.2 0.65,-0.35 l 1.6,-0.1 0.65,0.1 q 1.5,0.3 2.05,1.85 0.45,1.4 -0.55,2.65 l 0.45,0.7 m -3.25,4.8 q -0.9,0.6 -0.75,1.7 0.25,1.05 1.35,1.3 1.1,0.15 1.7,-0.85 Q 37.2,52 36.4,51.2 36,50.8 35.4,50.7 l -1.05,0.2 M 30.6,46.2 q 0.05,0.45 0.4,0.8 0.35,0.35 0.8,0.4 l 0.9,-0.25 0.5,-0.75 -0.15,-0.9 -0.7,-0.6 q -0.4,-0.2 -0.9,0 -0.45,0.15 -0.7,0.55 L 30.6,46.2"
         fill="#000000"
         fill-rule="evenodd"
         stroke="none"
         id="path6" />
      <path
         d="m 60.75,25.95 -0.6,0.5 -0.75,0.05 q -0.9,-0.25 -0.9,-1.2 0,-0.9 0.8,-1.15 0.8,-0.25 1.35,0.35 0.6,0.7 0.1,1.45 m -2.9,3.1 q 0.25,0.75 -0.3,1.25 -0.55,0.55 -1.25,0.2 -0.7,-0.25 -0.7,-1.05 0.1,-0.75 0.8,-1 0.65,-0.25 1.2,0.3 l 0.25,0.3 M 34.9,11.8 q -0.2,0.85 -0.8,1.25 -0.5,0.4 -1.2,0.4 l 1.1,-1.8 0.25,-0.5 0.65,0.65 m -12.3,8.4 -0.75,-0.4 -0.6,-0.75 V 19 l 0.05,-0.15 q 1.1,0.95 2.55,1.35 -0.55,0.2 -1.25,0 m -16.25,9.95 0.95,-0.1 0.8,0.55 0.35,0.9 q 0,0.5 -0.4,0.95 l -0.9,0.5 q -0.55,0.1 -1,-0.2 Q 5.65,32.4 5.5,31.9 5.4,31.35 5.65,30.85 q 0.2,-0.5 0.7,-0.7 m -4.2,3.7 1,0.05 q 0.5,0.3 0.3,0.95 L 3.2,35.25 2.55,35.5 Q 2.2,35.45 1.95,35.2 1.7,34.95 1.7,34.6 1.7,34.1 2.15,33.85 M 30.6,46.2 30.75,45.45 q 0.25,-0.4 0.7,-0.55 0.5,-0.2 0.9,0 l 0.7,0.6 0.15,0.9 -0.5,0.75 -0.9,0.25 Q 31.35,47.35 31,47 30.65,46.65 30.6,46.2 m 3.75,4.7 1.05,-0.2 q 0.6,0.1 1,0.5 0.8,0.8 0.25,1.85 -0.6,1 -1.7,0.85 -1.1,-0.25 -1.35,-1.3 -0.15,-1.1 0.75,-1.7"
         fill="#ffffff"
         fill-rule="evenodd"
         stroke="none"
         id="path7" />
    </g>
    <g
       id="shape2"
       transform="translate(1.5,1.5)">
      <path
         d="M 0,23.8 V 0 H 64.1 V 23.8 57.55 H 0 Z"
         fill="none"
         stroke="#000000"
         stroke-linecap="round"
         stroke-linejoin="round"
         stroke-width="3"
         id="path8" />
    </g>
  </defs>
</svg>
