<?xml version="1.0" encoding="UTF-8" standalone="no"?>
<svg
   ffdec:objectType="frame"
   height="44.349998"
   width="78.599998"
   version="1.1"
   id="svg10"
   sodipodi:docname="150.svg"
   xmlns:inkscape="http://www.inkscape.org/namespaces/inkscape"
   xmlns:sodipodi="http://sodipodi.sourceforge.net/DTD/sodipodi-0.dtd"
   xmlns:xlink="http://www.w3.org/1999/xlink"
   xmlns="http://www.w3.org/2000/svg"
   xmlns:svg="http://www.w3.org/2000/svg"
   xmlns:ffdec="https://www.free-decompiler.com/flash">
  <sodipodi:namedview
     id="namedview10"
     pagecolor="#ffffff"
     bordercolor="#000000"
     borderopacity="0.25"
     inkscape:showpageshadow="2"
     inkscape:pageopacity="0.0"
     inkscape:pagecheckerboard="0"
     inkscape:deskcolor="#d1d1d1"
     fit-margin-top="5"
     fit-margin-left="5"
     fit-margin-right="5"
     fit-margin-bottom="5" />
  <g
     transform="translate(2,2.05)"
     id="g3">
    <use
       ffdec:characterId="1"
       height="42.700001"
       transform="translate(-1.75,-2)"
       width="76.449997"
       xlink:href="#shape0"
       id="use1" />
    <use
       ffdec:characterId="150"
       height="40.900002"
       transform="translate(-0.5,-0.4)"
       width="75.199997"
       xlink:href="#shape1"
       id="use2" />
    <use
       ffdec:characterId="3"
       height="44.349998"
       transform="translate(-2,-2.05)"
       width="78.599998"
       xlink:href="#shape2"
       id="use3" />
  </g>
  <defs
     id="defs10">
    <g
       id="shape0"
       transform="translate(1.75,2)">
      <path
         d="M 2.8,0 V -0.4 H 5.4 V 0 H 9.7 V 19.45 0 H 20.55 L 19.3,19.45 H 9.7 0.25 V 0 H 2.8"
         fill="#ffffff"
         fill-rule="evenodd"
         stroke="none"
         id="path3" />
      <path
         d="M 0.25,19.45 H 9.7 19.3 L 18.7,28.6 16,28.5 10.95,27.95 9.7,27.8 Q 7.45,27.6 5.85,27.75 4.05,27.9 1.5,28.6 0.75,28.8 0.25,29.15 v -9.7 m 9.45,0 v 8.35 -8.35"
         fill="#121212"
         fill-rule="evenodd"
         stroke="none"
         id="path4" />
      <path
         d="m 9.7,27.8 1.25,0.15 5.05,0.55 2.7,0.1 h 1.05 l 3.75,0.15 q 2.45,0.3 3.6,1.25 0.6,0.5 0.6,1.1 0,0.65 -0.8,1 l -1.3,0.2 -7.15,0.15 -5.6,-0.3 L 9.7,31.75 7.95,31.6 3.1,31.95 0.95,32.3 0.25,32.1 -0.35,31.55 -0.5,31.3 V 29.9 L 0.25,29.15 Q 0.75,28.8 1.5,28.6 4.05,27.9 5.85,27.75 7.45,27.6 9.7,27.8 v 3.95 -3.95"
         fill="#999999"
         fill-rule="evenodd"
         stroke="none"
         id="path5" />
      <path
         d="M 2.8,0 H 0.25 M 9.7,0 H 5.4 m 16.15,0 h 10.7 M 20.55,0 H 9.7"
         fill="none"
         stroke="#666666"
         stroke-linecap="round"
         stroke-linejoin="round"
         stroke-width="4"
         id="path6" />
      <path
         d="m 9.7,-0.4 h 65 V 40.5 H 47.05 L 45.5,40.7 27,40.65 25.95,40.5 H 9.7 -0.5 V -0.4 H 9.7 V 40.5 -0.4"
         fill="#ffffff"
         fill-rule="evenodd"
         stroke="none"
         id="path7" />
    </g>
    <g
       id="shape1"
       transform="translate(0.5,0.4)">
      <path
         d="M -0.5,-0.4 H 74.7 V 40.5 H -0.5 V -0.4"
         fill="#999999"
         fill-rule="evenodd"
         stroke="none"
         id="path8" />
      <path
         d="M 57.65,10.95 57.1,10.25 Q 55.75,9.2 53.9,9.45 51.75,9.65 51.15,11.25 51,11.65 51,12.45 l -0.05,1.25 q -0.2,0.8 -1,1.4 -0.75,0.55 -1.6,0.55 Q 47.5,15.6 46.75,15.05 46,14.5 45.7,13.7 45.4,12.85 45.5,11.75 45.65,9.3 47.1,7.4 q 1.45,-2 3.75,-2.75 l 3.7,-0.4 1.9,0.35 q 0.8,0.3 1.8,0.95 l 1.5,1.3 q 1.6,1.85 1.45,4.25 -0.1,1.8 -1.15,3.15 l 0.35,0.1 q 2.6,1 4.35,4.1 1.35,2.3 1.65,4.9 0.35,2.65 -0.45,5.1 -0.85,2.5 -2.8,4.25 -2.05,1.85 -4.55,2.2 -1.6,0.25 -3.1,0 -3.25,-0.55 -4.95,-2.25 -0.9,-0.95 -1.55,-2.45 -1.2,-2.7 -0.15,-4.6 0.85,-1.5 2.5,-1.65 1.75,-0.1 2.65,1.4 0.4,0.7 0.3,1.5 -0.1,0.85 -0.6,1.4 0.6,1.2 2,1.7 l 2.75,-0.05 q 1.25,-0.45 2.15,-1.6 0.8,-1.15 1.05,-2.55 0.35,-2.7 -1.2,-5.25 -0.85,-1.6 -2.3,-2.6 l -1.9,-0.95 q -0.8,-0.3 -0.9,-0.75 -0.1,-0.35 0.2,-0.85 l 0.6,-0.65 q 1.2,-1.2 1.5,-2.8 v -0.95 m -16.35,4.6 0.8,0.15 q 1.25,0.35 1.35,1.65 l -0.25,1.1 -0.85,0.75 -1.7,0.2 -2.05,-0.05 -1.45,0.15 q -1.05,-0.2 -1.45,-1.1 -0.4,-0.85 0,-1.7 0.4,-0.85 1.3,-1.05 l 0.8,-0.1 h 3.5 m 0,4.85 q 1,-0.15 1.7,0.55 v 0.1 q 0.65,0.7 0.4,1.6 -0.15,0.95 -1.05,1.3 l -0.45,0.15 -3.05,0.1 -0.6,-0.1 H 37.6 q -0.65,-0.05 -1.15,-0.55 -0.4,-0.5 -0.4,-1.15 0,-0.65 0.5,-1.25 l 0.35,-0.3 1.7,-0.3 2.05,-0.05 0.65,-0.1 m -7.75,11.4 q 0,1.5 -0.45,2.25 -0.4,0.8 -1.4,1.1 Q 30.75,35.4 30,34.9 28.85,34.15 28.95,31.6 V 14.25 L 27.9,13.6 27.25,12.8 26.6,11.75 26.45,10.55 Q 26.5,10.2 26.9,9.6 l 0.5,-0.85 1.95,-2.55 0.5,-0.5 0.1,-0.2 Q 30.6,4.85 31.35,5.05 32.2,5.35 32.3,7 l 0.25,2.7 q 1.25,14.3 1,22.1 M 22.95,18 23.1,18.85 23.8,18.7 q 0.5,0 0.9,0.35 l 0.55,0.8 -0.1,0.95 -0.7,0.7 -0.9,0.25 v 0.2 l 0.1,1.45 q -0.35,1 -1.35,1.1 -1.05,0.1 -1.5,-0.85 l -0.3,-1.2 -0.7,0.1 -0.55,-0.1 q -0.7,-0.2 -1,-0.5 L 18.05,21.3 18,21.05 q 0.05,-0.6 0.7,-1.05 l 0.45,-0.3 0.65,-0.25 H 20 L 19.95,18.8 20,18.05 q 0.35,-1.1 1.5,-1.1 0.5,-0.05 0.9,0.3 L 22.95,18 M 14.2,34.35 12.65,35.2 Q 11.6,35.3 10.95,34.7 10,33.8 9.9,31.95 l 0.1,-3.5 q 0.4,-7.1 0.4,-13.65 L 10.05,14.65 9.15,14.05 8,12.8 Q 7.5,11.95 7.7,11.15 L 8,10.5 8.55,9.5 q 1.3,-2.35 2,-3.2 l 0.6,-0.6 q 0.7,-1 1.75,-0.85 0.9,0.25 1.25,1.2 l 0.3,1.8 Q 15,17.9 14.7,27.35 v 3.6 l 0.05,1.8 q -0.1,1 -0.55,1.6"
         fill="#000000"
         fill-rule="evenodd"
         stroke="none"
         id="path9" />
    </g>
    <g
       id="shape2"
       transform="translate(2,2.05)">
      <path
         d="M -0.5,-0.4 V -0.55 H 75.1 V -0.4 40.8 H -0.5 Z"
         fill="none"
         stroke="#000000"
         stroke-linecap="round"
         stroke-linejoin="round"
         stroke-width="3"
         id="path10" />
    </g>
  </defs>
</svg>
