<?xml version="1.0" encoding="UTF-8" standalone="no"?>
<svg
   ffdec:objectType="frame"
   height="60.549999"
   width="67.099998"
   version="1.1"
   id="svg8"
   sodipodi:docname="528.svg"
   xmlns:inkscape="http://www.inkscape.org/namespaces/inkscape"
   xmlns:sodipodi="http://sodipodi.sourceforge.net/DTD/sodipodi-0.dtd"
   xmlns:xlink="http://www.w3.org/1999/xlink"
   xmlns="http://www.w3.org/2000/svg"
   xmlns:svg="http://www.w3.org/2000/svg"
   xmlns:ffdec="https://www.free-decompiler.com/flash">
  <sodipodi:namedview
     id="namedview8"
     pagecolor="#ffffff"
     bordercolor="#000000"
     borderopacity="0.25"
     inkscape:showpageshadow="2"
     inkscape:pageopacity="0.0"
     inkscape:pagecheckerboard="0"
     inkscape:deskcolor="#d1d1d1"
     fit-margin-top="5"
     fit-margin-left="5"
     fit-margin-right="5"
     fit-margin-bottom="5" />
  <g
     transform="translate(1.5,1.5)"
     id="g3">
    <use
       ffdec:characterId="516"
       height="57.549999"
       width="64.099998"
       xlink:href="#shape0"
       id="use1" />
    <use
       ffdec:characterId="1024"
       height="57.150002"
       transform="translate(0.5,0.85)"
       width="63.599998"
       xlink:href="#shape1"
       id="use2" />
    <use
       ffdec:characterId="518"
       height="60.549999"
       transform="translate(-1.5,-1.5)"
       width="67.099998"
       xlink:href="#shape2"
       id="use3" />
  </g>
  <defs
     id="defs8">
    <g
       id="shape0">
      <path
         d="M 53.6,0 H 64.1 V 57.55 H 53.6 28.25 0 V 0 H 28.25 53.6 V 57.55 0 M 28.25,0 V 57.55 0"
         fill="#ffffff"
         fill-rule="evenodd"
         stroke="none"
         id="path3" />
    </g>
    <g
       id="shape1"
       transform="translate(-0.5,-0.85)">
      <path
         d="M 55.5,6.35 Q 55,7.1 54.75,7.95 l -0.1,0.5 -0.2,0.5 L 53.8,9.85 52.55,10 51.75,9.8 51.1,9.2 50.7,8.65 q -0.2,-0.4 0,-1.05 0.15,-0.6 0.7,-1 l 1.2,-0.2 0.35,0.05 0.25,-0.25 0.5,-0.9 0.7,-0.75 0.8,-1 0.4,-0.5 0.35,-0.2 1,0.55 0.45,0.65 0.35,0.45 0.4,0.75 0.3,0.65 -0.1,0.75 Q 58,7.1 57.3,6.9 L 56.2,6.55 55.5,6.35 m -10.1,2.6 0.15,1.85 -0.4,0.85 -0.75,0.55 -0.9,0.35 -0.75,-0.15 Q 42.3,12.25 42,11.95 41.4,11.25 41.65,10.25 42,9.1 43.15,8.75 l -0.8,-2.9 Q 42.25,5.25 42.4,5 q 0.15,-0.4 1,-0.6 l 3.05,-0.35 h 0.95 q 0.4,0.1 0.45,0.5 0.55,0.3 0.7,0.95 l 0.1,1.25 0.1,0.05 0.45,2.6 0.15,0.4 0.4,0.6 V 11 l -0.2,0.85 -0.35,0.4 q -0.45,0.4 -1.2,0.3 l -1.25,-0.4 -0.45,-0.2 Q 46.05,11.7 45.95,11.15 L 46,10.25 46.15,9.7 Q 46.4,9.15 47,9.05 l -0.2,-0.7 -0.05,-0.5 -0.8,0.05 -0.7,0.25 0.15,0.8 M 46.4,5.7 44.5,6 44.8,6.9 46.1,6.85 46.6,6.8 46.5,6.3 46.45,5.7 H 46.4 M 29.3,1.55 q 4.45,1.6 7.45,6.35 2.6,4 3.05,8.6 0.2,2.05 -0.2,6.05 l -0.35,3.05 q -0.7,3.2 -2.55,5.7 l 0.1,1.05 0.05,0.9 0.15,0.6 0.1,0.85 -0.05,0.8 q -0.15,0.55 -0.75,0.55 l -0.8,-0.2 -3.15,-0.5 h -0.1 Q 28.2,37.9 23,38.15 l -8.45,-0.7 Q 9.45,36.45 6.75,34.4 4,32.4 2.35,28.9 0.2,24.65 0.55,20.6 0.65,18.9 1.25,16.6 2,13.7 2.55,12.35 3.9,9.2 7.05,6.35 8.85,4.75 10.2,4 14.5,1.4 22,0.95 q 4.7,-0.3 7.3,0.6 M 6.8,43.9 6.75,44.25 6.6,44.8 6.2,45.2 Q 5.4,45.9 4.65,45.75 4.1,45.7 3.55,45.15 L 3.25,44.75 3.2,44.05 Q 3.3,43.25 3.75,42.8 4.4,42.2 5.05,42.4 H 5.3 l 0.05,-0.15 q 0.1,-0.6 0.5,-1.45 l 0.6,-1.25 q 0.2,-0.7 0.8,-1.3 L 7.65,38 8.25,38.15 9.5,38.8 q 0.95,0.55 1,1 0,0.65 -0.55,0.9 L 8.9,40.95 7.8,41.05 7.4,41.15 7.05,42.5 6.8,43.4 v 0.5 m 3.55,5.95 Q 9,49.95 8.45,49 8.1,48.35 8.4,47.6 8.75,46.9 9.45,46.75 L 9.35,45.9 9.3,45 9,43.6 8.95,42.8 Q 9.1,42.15 9.95,41.75 11.4,40.9 14,40.8 l 0.9,0.1 q 0.5,0.2 0.6,0.65 l -0.05,0.75 0.05,0.85 0.45,3.35 v 0.8 l -0.2,0.35 0.05,0.7 Q 15.5,49.1 14.45,49.1 L 13.65,49 Q 12.9,48.6 12.8,47.6 l 0.1,-0.8 q 0.15,-0.4 0.8,-0.75 l 0.8,-0.25 -0.05,-0.25 -0.9,0.1 -1.65,0.15 -0.6,0.1 0.25,0.85 0.25,1.15 -0.05,0.9 q -0.1,0.5 -0.55,0.75 l -0.85,0.3 m 3.7,-6.9 -0.1,-0.15 -0.1,-0.05 q -1.5,0.05 -3,0.7 l 0.35,1.2 0.4,-0.1 1.75,-0.15 0.9,-0.15 -0.2,-1.3 m 0.8,4.15 h 0.05 -0.05"
         fill="#999999"
         fill-rule="evenodd"
         stroke="none"
         id="path4" />
      <path
         d="m 39.85,38.35 q -1.7,-1.9 -2.35,-4.55 -0.65,-2.5 -0.25,-5.15 l 0.4,-1.6 Q 37.5,26.2 37.8,24.9 q 0.55,-2.95 1.25,-4.8 l 1.1,-2.45 0.9,-2 q 0.95,-1.8 1.65,-2.35 0.6,-0.45 1.35,-0.45 0.8,-0.05 1.3,0.4 L 46,14.7 46.8,17.6 50.7,17 q 3.05,-0.15 5.5,0.55 l 0.2,-0.45 1.15,-3.05 0.4,-0.95 q 0.4,-0.6 1.1,-0.8 l 1.4,0.15 1.05,1.1 0.75,1.1 0.65,2.1 0.45,2.1 0.35,1.85 0.05,1.55 0.2,1.35 0.1,1.3 -0.1,0.65 0.15,0.55 v 8.2 l -0.55,1.45 q -1.15,2.75 -3.1,4.35 l -0.8,0.6 0.75,0.8 1.05,1 2.65,2.05 v 4.6 L 64,49.1 l -1.35,-0.7 -1.4,-1 2.75,4.95 0.1,0.2 v 4.65 l -0.6,0.4 -2.1,0.35 -9.1,0.05 -2.2,-0.15 q -0.8,-0.2 -1.3,-0.65 l -0.2,-0.05 q -1.3,-0.45 -1.85,-2.1 l -0.35,-1.5 -0.75,-5.5 -0.05,-2.2 q -2.8,2.95 -4.7,4.3 -5,3.55 -10.25,2.7 Q 27.9,52.4 25.8,50.6 23.55,48.7 22.95,46.1 22.4,43.9 23.1,41.85 L 22.9,41.6 q -0.45,-0.95 -0.55,-3.95 0,-0.75 0.55,-1.4 0.55,-0.55 1.35,-0.55 l 0.1,-0.05 q 0.65,0 1.2,0.4 0.55,0.4 0.7,1.05 l 0.1,0.7 q 1.5,-0.8 3.45,-0.5 l 0.75,0.15 0.1,-1.2 q 0.4,-1.2 1.6,-1.45 l 0.95,0.05 q 1.25,0.35 1.5,1.6 v 1.8 l -0.15,0.95 v 0.5 l -0.2,1 q 0.55,1.55 0.15,3.65 l 0.05,0.65 0.55,0.35 q 2.8,1 6,-1.1 l 2.55,-2.15 0.65,-0.6 q -2.7,-1.15 -4.45,-3.15 m -0.5,-5.05 q 0.35,0.95 1.2,1.55 0.85,0.6 1.85,0.65 1,0.05 1.9,-0.5 l 1.35,-1.45 0.35,-0.85 -0.2,-0.05 -1.55,-0.5 -1,-0.4 -1.5,-1.15 -1,-1.05 -0.25,-0.45 q -1.3,0.95 -1.4,2.6 l 0.05,0.9 0.2,0.7 m 9.35,2 -0.65,-0.4 -0.2,-0.4 -0.05,-0.3 0.15,-0.3 -0.15,-0.35 -0.7,0.05 -0.2,0.45 -0.2,1.05 0.1,0.3 0.4,0.7 q 0.35,0.45 0.9,0.65 v 0.2 q -0.1,0.8 0.15,1.3 0.45,1.05 1.85,1.05 l 1.1,-0.35 Q 51.95,38.4 52.05,37.3 L 52,36.55 l 0.2,-0.15 0.5,-0.6 0.25,-1.2 v -0.25 l -0.1,-0.55 q -0.2,-0.55 -0.75,-0.45 -0.5,0.1 -0.6,0.6 v 0.45 l -0.3,0.85 q -0.4,0 -0.65,-0.25 L 50.3,34.65 q -0.2,-0.2 -0.5,-0.25 -0.3,-0.05 -0.5,0.15 L 48.95,35 48.7,35.3 m 10.25,-0.95 q 1.45,-1 1.55,-2.75 0.1,-1.55 -0.9,-2.55 l -1.35,1.45 q -1.4,1.1 -3.25,1.65 l -1.45,0.4 q 0.55,1.6 2.3,2.2 1.65,0.55 3.1,-0.4"
         fill="#000000"
         fill-rule="evenodd"
         stroke="none"
         id="path5" />
      <path
         d="m 58.95,34.35 q -1.45,0.95 -3.1,0.4 -1.75,-0.6 -2.3,-2.2 L 55,32.15 q 1.85,-0.55 3.25,-1.65 l 1.35,-1.45 q 1,1 0.9,2.55 -0.1,1.75 -1.55,2.75 M 48.7,35.3 48.95,35 49.3,34.55 q 0.2,-0.2 0.5,-0.15 0.3,0.05 0.5,0.25 L 50.55,35 q 0.25,0.25 0.65,0.25 l 0.3,-0.85 v -0.45 q 0.1,-0.5 0.6,-0.6 0.55,-0.1 0.75,0.45 l 0.1,0.55 v 0.25 l -0.25,1.2 -0.5,0.6 -0.2,0.15 0.05,0.75 q -0.1,1.1 -0.85,1.65 l -1.1,0.35 q -1.4,0 -1.85,-1.05 -0.25,-0.5 -0.15,-1.3 v -0.2 q -0.55,-0.2 -0.9,-0.65 l -0.4,-0.7 -0.1,-0.3 0.2,-1.05 0.2,-0.45 0.7,-0.05 0.15,0.35 -0.15,0.3 0.05,0.3 0.2,0.4 0.65,0.4 m -9.35,-2 -0.2,-0.7 -0.05,-0.9 q 0.1,-1.65 1.4,-2.6 l 0.25,0.45 1,1.05 1.5,1.15 1,0.4 1.55,0.5 L 46,32.7 45.65,33.55 44.3,35 q -0.9,0.55 -1.9,0.5 -1,-0.05 -1.85,-0.65 -0.85,-0.6 -1.2,-1.55 M 30.9,12.4 q -0.8,0.2 -1.15,-0.3 -0.3,-0.4 -0.1,-0.8 l 0.5,-0.65 0.4,-0.65 -0.1,-0.4 Q 30.2,9.05 30.3,8.4 l 0.5,-1.05 q 0.95,-1.05 2.35,-0.55 1.3,0.55 1.3,1.95 l -0.05,0.55 0.65,0.25 0.85,1 q 0.25,0.7 0.05,1.35 L 35.2,12.8 Q 34.55,13.25 33.8,13.15 32.7,13 32.25,12.4 L 31.95,12.05 30.9,12.4 M 25.95,10 q 2.55,1.6 3.6,4.7 1,2.75 0.4,6.05 -0.15,1.45 -0.85,2.7 -0.6,1.25 -1.8,2.45 l -2,1.8 q 0.3,0.7 0.05,1.45 -0.2,0.8 -0.85,1.3 -0.65,0.6 -1.45,0.65 L 22,30.95 q -0.4,0.8 -1.2,1.25 l -1.7,0.2 q -0.85,-0.25 -1.4,-0.95 l -0.4,-0.7 -0.95,0.35 -1.65,-0.25 q -1.15,-0.55 -1.5,-1.7 -0.3,-0.8 0,-1.6 L 13.45,27 Q 11.5,25.7 10.4,23.35 9.35,21.1 9.55,18.6 q 0.45,-4.95 4.9,-8.2 1.35,-1 2.8,-1.5 l 3.4,-0.4 q 3.25,0.15 5.3,1.5 M 25.75,20.45 25.1,20.1 q -0.7,1.85 -2,2.9 -0.95,0.8 -2.1,1.1 0.3,0.85 1,1.4 1.1,1 2.55,0.7 1.45,-0.3 2.2,-1.55 l 0.3,-0.7 Q 27.35,22.9 27,22 l -0.05,-0.05 q -0.35,-0.9 -1.2,-1.5 M 9.15,12.5 9.05,12.45 8.95,12.6 Q 8.4,13.65 7.3,13.45 6.1,13.3 5.95,12.15 5.9,11.7 6.1,11.2 L 6.75,10.5 7,10.4 V 10.35 Q 6.95,9.9 7.2,9 7.5,8.05 7.85,7.75 8.6,7.05 9.5,7.35 q 1.05,0.25 1.15,1.3 l -0.1,1.4 -0.25,0.65 0.35,0.35 q 0.55,0.55 0.5,1.25 l -0.35,0.6 q -0.25,0.3 -0.6,0.25 L 9.15,12.5 m 9,12 0.3,-0.55 H 18.4 L 17.45,23.65 16.65,23 Q 15.3,21.8 14.9,20.9 l -0.2,-0.95 q -0.75,0.15 -1.4,0.6 -0.75,0.65 -1.05,1.6 -0.25,0.9 -0.05,1.6 l 0.4,1.1 0.6,0.6 q 0.85,0.85 2.1,0.85 1.2,0 2.15,-0.85 L 18,24.9 18.15,24.5 m -7.35,3.8 q 0.15,0.9 -0.4,1.4 -0.5,0.55 -1.1,0.4 -0.65,-0.05 -1,-0.6 L 8.1,28.85 Q 7.15,28.7 6.85,27.8 6.65,27.2 6.95,26.7 7.25,26.2 7.8,25.95 l 1.1,0.1 0.35,0.2 0.25,-0.1 0.7,-0.45 0.6,0.05 0.3,0.5 -0.4,0.9 0.1,1.15 m 19.8,2 -0.15,1.15 q -0.3,0.5 -0.9,0.7 l -1.1,-0.05 q -0.6,-0.2 -0.8,-0.8 -0.3,-0.65 0,-1.7 L 27.7,29 27.3,28.55 26.9,28.05 q -0.2,-0.5 0.35,-0.7 l 0.9,-0.15 0.9,0.3 0.5,0.25 0.6,-0.6 q 1,-0.5 1.75,0.2 0.8,0.8 0.4,1.75 L 32,29.55 Q 31.6,29.9 30.75,30 l -0.2,0.05 0.05,0.25"
         fill="#ffffff"
         fill-rule="evenodd"
         stroke="none"
         id="path6" />
      <path
         d="m 25.75,20.45 q 0.85,0.6 1.2,1.5 L 27,22 q 0.35,0.9 0.05,1.95 l -0.3,0.7 Q 26,25.9 24.55,26.2 23.1,26.5 22,25.5 q -0.7,-0.55 -1,-1.4 1.15,-0.3 2.1,-1.1 1.3,-1.05 2,-2.9 l 0.65,0.35 m -7.6,4.05 -0.15,0.4 -0.55,0.55 q -0.95,0.85 -2.15,0.85 -1.25,0 -2.1,-0.85 l -0.6,-0.6 -0.4,-1.1 q -0.2,-0.7 0.05,-1.6 0.3,-0.95 1.05,-1.6 0.65,-0.45 1.4,-0.6 l 0.2,0.95 q 0.4,0.9 1.75,2.1 l 0.8,0.65 0.95,0.3 h 0.05 l -0.3,0.55"
         fill="#999999"
         fill-rule="evenodd"
         stroke="none"
         id="path7" />
    </g>
    <g
       id="shape2"
       transform="translate(1.5,1.5)">
      <path
         d="M 0,23.8 V 0 H 64.1 V 23.8 57.55 H 0 Z"
         fill="none"
         stroke="#000000"
         stroke-linecap="round"
         stroke-linejoin="round"
         stroke-width="3"
         id="path8" />
    </g>
  </defs>
</svg>
