<?xml version="1.0" encoding="UTF-8" standalone="no"?>
<svg
   ffdec:objectType="frame"
   height="44.349998"
   width="78.599998"
   version="1.1"
   id="svg10"
   sodipodi:docname="304.svg"
   xmlns:inkscape="http://www.inkscape.org/namespaces/inkscape"
   xmlns:sodipodi="http://sodipodi.sourceforge.net/DTD/sodipodi-0.dtd"
   xmlns:xlink="http://www.w3.org/1999/xlink"
   xmlns="http://www.w3.org/2000/svg"
   xmlns:svg="http://www.w3.org/2000/svg"
   xmlns:ffdec="https://www.free-decompiler.com/flash">
  <sodipodi:namedview
     id="namedview10"
     pagecolor="#ffffff"
     bordercolor="#000000"
     borderopacity="0.25"
     inkscape:showpageshadow="2"
     inkscape:pageopacity="0.0"
     inkscape:pagecheckerboard="0"
     inkscape:deskcolor="#d1d1d1"
     fit-margin-top="5"
     fit-margin-left="5"
     fit-margin-right="5"
     fit-margin-bottom="5" />
  <g
     transform="translate(2,2.05)"
     id="g3">
    <use
       ffdec:characterId="1"
       height="42.700001"
       transform="translate(-1.75,-2)"
       width="76.449997"
       xlink:href="#shape0"
       id="use1" />
    <use
       ffdec:characterId="297"
       height="36.75"
       transform="translate(13.95,1.8)"
       width="46.75"
       xlink:href="#shape1"
       id="use2" />
    <use
       ffdec:characterId="3"
       height="44.349998"
       transform="translate(-2,-2.05)"
       width="78.599998"
       xlink:href="#shape2"
       id="use3" />
  </g>
  <defs
     id="defs10">
    <g
       id="shape0"
       transform="translate(1.75,2)">
      <path
         d="M 2.8,0 V -0.4 H 5.4 V 0 H 9.7 V 19.45 0 H 20.55 L 19.3,19.45 H 9.7 0.25 V 0 H 2.8"
         fill="#ffffff"
         fill-rule="evenodd"
         stroke="none"
         id="path3" />
      <path
         d="M 0.25,19.45 H 9.7 19.3 L 18.7,28.6 16,28.5 10.95,27.95 9.7,27.8 Q 7.45,27.6 5.85,27.75 4.05,27.9 1.5,28.6 0.75,28.8 0.25,29.15 v -9.7 m 9.45,0 v 8.35 -8.35"
         fill="#121212"
         fill-rule="evenodd"
         stroke="none"
         id="path4" />
      <path
         d="m 9.7,27.8 1.25,0.15 5.05,0.55 2.7,0.1 h 1.05 l 3.75,0.15 q 2.45,0.3 3.6,1.25 0.6,0.5 0.6,1.1 0,0.65 -0.8,1 l -1.3,0.2 -7.15,0.15 -5.6,-0.3 L 9.7,31.75 7.95,31.6 3.1,31.95 0.95,32.3 0.25,32.1 -0.35,31.55 -0.5,31.3 V 29.9 L 0.25,29.15 Q 0.75,28.8 1.5,28.6 4.05,27.9 5.85,27.75 7.45,27.6 9.7,27.8 v 3.95 -3.95"
         fill="#999999"
         fill-rule="evenodd"
         stroke="none"
         id="path5" />
      <path
         d="M 2.8,0 H 0.25 M 9.7,0 H 5.4 m 16.15,0 h 10.7 M 20.55,0 H 9.7"
         fill="none"
         stroke="#666666"
         stroke-linecap="round"
         stroke-linejoin="round"
         stroke-width="4"
         id="path6" />
      <path
         d="m 9.7,-0.4 h 65 V 40.5 H 47.05 L 45.5,40.7 27,40.65 25.95,40.5 H 9.7 -0.5 V -0.4 H 9.7 V 40.5 -0.4"
         fill="#ffffff"
         fill-rule="evenodd"
         stroke="none"
         id="path7" />
    </g>
    <g
       id="shape1"
       transform="translate(-13.95,-1.8)">
      <path
         d="m 39.6,31.15 q -0.25,-1.8 -0.35,-4.1 L 39.4,21.95 39.5,16.9 39.35,14 39.1,12.65 38.6,11.55 q -0.2,-0.55 0,-1 l -0.55,-0.3 Q 37.8,9.95 37.85,9.6 38,8.9 38.75,8.65 l 1.4,-0.15 6.7,0.65 6.7,1.15 1.65,0.5 q 0.85,0.65 0.95,1.95 L 56,14.95 q -0.25,1.6 -0.25,4.5 l -0.1,4.5 -0.7,5.25 q -0.2,1.65 -0.9,2.1 -0.5,0.35 -1.8,0.35 l -5.65,0.8 q -2.05,0.45 -3,0.8 l -1.2,0.55 -1.25,0.05 Q 40.35,33.6 40,32.8 39.7,32.25 39.6,31.15 M 18.65,13.25 q 0.35,-1.6 1,-2.2 0.8,-0.75 2.65,-0.95 L 32.25,8.55 Q 35.4,8 37.05,8.6 q 0.55,0.2 0.6,0.45 0.15,0.4 -0.3,0.7 l -0.8,0.25 -0.3,0.15 q 0.4,0.15 0.6,0.4 0.65,0.7 0.65,2.45 l -0.3,5.35 -0.25,3.55 -0.2,4 q 0.05,2.15 0.55,6.4 0.15,2.3 -0.95,3.1 -0.95,0.75 -2.5,0.25 l -2.4,-0.85 -2.3,-0.4 -2.65,-1.05 -2.7,-0.4 Q 23,32.75 22.4,32.35 L 21.75,32.5 Q 20.8,32.55 20.2,32 q -0.75,-0.75 -0.85,-2.45 -0.5,-3.9 -0.8,-11.75 -0.1,-3.05 0.1,-4.55"
         fill="#999999"
         fill-rule="evenodd"
         stroke="none"
         id="path8" />
      <path
         d="M 56.1,9.65 47.75,7.8 41.5,6.35 H 39.6 L 40,10.5 40.25,14 v 3.6 q -0.25,6.5 0.1,15.3 7.4,-2.4 15.25,-3.45 L 56.9,14.75 57,10.8 56.85,10.15 Q 56.6,9.75 56.1,9.65 M 39.25,1.95 49.3,4.85 q 4.15,0.55 7.25,1.8 L 59,7.8 q 1.2,0.45 1.5,1.2 0.4,0.7 -0.05,1.45 v 0.05 0.95 L 59.7,21 q -0.7,6.4 -0.8,9.5 l -0.25,1.75 q -0.5,1.05 -3.05,1.25 -1.75,0.1 -6.05,1.15 -6.75,1.75 -9.4,2.95 l -1.6,0.5 Q 37.9,38.8 36.3,38.45 33.25,38 27.35,36.35 L 17.2,33.65 Q 15.4,33.15 15,32.2 14.75,31.7 14.9,29.9 L 14.45,26 Q 14,23.35 14.2,18.55 L 14,11.1 Q 13.85,9.55 14.2,9 14.45,8.4 15.7,7.8 22.4,5 35.85,1.95 L 37.2,1.9 39.25,1.95 m 9.9,16.65 1.3,-0.9 q 0.85,-0.5 1.1,-0.95 0.4,-0.55 0.3,-1.2 -0.05,-0.6 -0.45,-1.1 -0.65,-0.55 -1.7,-0.75 -2.15,-0.2 -2.9,1.1 l -0.15,0.55 0.3,0.65 q 0.35,0.55 0.3,1.2 -0.05,0.7 -0.5,1.2 -0.95,1.05 -2.35,0.65 -1.25,-0.35 -1.65,-1.7 -0.2,-0.75 -0.05,-1.6 0.25,-1.55 1.2,-2.9 0.9,-1.35 2.25,-2.05 1.25,-0.55 3,-0.55 2.15,0 3.75,1.05 1.8,1.3 1.95,3.25 l -0.05,1.5 -0.45,1.7 q -0.9,1.7 -2.6,2.35 -1.3,0.5 -1.6,0.85 l -0.25,0.9 -0.1,1.2 -0.1,0.65 -0.3,0.15 -0.3,-0.15 -0.5,-0.5 q -0.55,-1.25 -0.4,-2.3 l 0.3,-1.3 0.65,-1 m 0.3,6.4 q 1.3,0.25 1.6,1.4 0.25,0.65 0,1.3 l -0.8,1.05 q -0.55,0.35 -1.2,0.3 -0.7,-0.05 -1.25,-0.5 -0.45,-0.4 -0.6,-1.1 -0.1,-0.7 0.15,-1.25 0.25,-0.6 0.9,-0.95 0.6,-0.3 1.2,-0.25 M 36.3,19.3 36.55,14.85 36.2,9.7 35.9,6.65 H 35.7 L 27.8,8 l -5.1,1.2 -1.75,0.6 -2.35,0.95 -0.75,0.5 -0.05,0.8 0.1,8.2 0.1,3.1 0.45,3.25 0.25,3.3 9.9,3.05 4.05,1 3.55,0.6 0.1,-15.25 m -9.1,-0.15 q 0.35,-0.4 1.45,-1 l 1.3,-1.1 Q 30.4,16.55 30.35,15.9 30.3,15.25 29.75,14.75 29,14.3 27.8,14.2 25.3,14.15 24.4,15.5 l -0.15,0.55 0.4,0.65 q 0.35,0.45 0.3,1.15 -0.1,0.75 -0.6,1.25 -1.1,1.15 -2.7,0.85 -1.5,-0.3 -1.9,-1.6 -0.3,-0.75 -0.1,-1.6 0.3,-1.55 1.35,-3 1.05,-1.4 2.65,-2.2 1.45,-0.7 3.55,-0.8 2.45,-0.15 4.3,0.75 2.15,1.2 2.3,3.1 l -0.05,1.5 -0.55,1.75 q -1,1.75 -2.95,2.55 -1.6,0.6 -1.9,1 -0.2,0.25 -0.3,0.95 l -0.1,1.15 q 0.1,0.45 -0.15,0.7 L 27.45,24.3 27.1,24.25 26.55,23.7 q -0.7,-1.15 -0.5,-2.2 l 0.4,-1.3 q 0.2,-0.55 0.75,-1.05 m 0.35,6.35 q 1.45,0.15 1.85,1.25 0.25,0.65 0,1.35 l -0.95,1.05 -1.4,0.45 q -0.8,0 -1.45,-0.4 -0.55,-0.4 -0.75,-1.05 -0.1,-0.7 0.2,-1.35 0.35,-0.55 1.05,-0.95 0.7,-0.35 1.45,-0.35"
         fill="#000000"
         fill-rule="evenodd"
         stroke="none"
         id="path9" />
    </g>
    <g
       id="shape2"
       transform="translate(2,2.05)">
      <path
         d="M -0.5,-0.4 V -0.55 H 75.1 V -0.4 40.8 H -0.5 Z"
         fill="none"
         stroke="#000000"
         stroke-linecap="round"
         stroke-linejoin="round"
         stroke-width="3"
         id="path10" />
    </g>
  </defs>
</svg>
