<?xml version="1.0" encoding="UTF-8" standalone="no"?>
<svg
   ffdec:objectType="frame"
   height="60.549999"
   width="67.099998"
   version="1.1"
   id="svg8"
   sodipodi:docname="186.svg"
   xmlns:inkscape="http://www.inkscape.org/namespaces/inkscape"
   xmlns:sodipodi="http://sodipodi.sourceforge.net/DTD/sodipodi-0.dtd"
   xmlns:xlink="http://www.w3.org/1999/xlink"
   xmlns="http://www.w3.org/2000/svg"
   xmlns:svg="http://www.w3.org/2000/svg"
   xmlns:ffdec="https://www.free-decompiler.com/flash">
  <sodipodi:namedview
     id="namedview8"
     pagecolor="#ffffff"
     bordercolor="#000000"
     borderopacity="0.25"
     inkscape:showpageshadow="2"
     inkscape:pageopacity="0.0"
     inkscape:pagecheckerboard="0"
     inkscape:deskcolor="#d1d1d1"
     fit-margin-top="5"
     fit-margin-left="5"
     fit-margin-right="5"
     fit-margin-bottom="5" />
  <g
     transform="translate(1.5,1.5)"
     id="g3">
    <use
       ffdec:characterId="516"
       height="57.549999"
       width="64.099998"
       xlink:href="#shape0"
       id="use1" />
    <use
       ffdec:characterId="694"
       height="55.150002"
       transform="translate(-1.1,3.15)"
       width="65.25"
       xlink:href="#shape1"
       id="use2" />
    <use
       ffdec:characterId="518"
       height="60.549999"
       transform="translate(-1.5,-1.5)"
       width="67.099998"
       xlink:href="#shape2"
       id="use3" />
  </g>
  <defs
     id="defs8">
    <g
       id="shape0">
      <path
         d="M 53.6,0 H 64.1 V 57.55 H 53.6 28.25 0 V 0 H 28.25 53.6 V 57.55 0 M 28.25,0 V 57.55 0"
         fill="#ffffff"
         fill-rule="evenodd"
         stroke="none"
         id="path3" />
    </g>
    <g
       id="shape1"
       transform="translate(1.1,-3.15)">
      <path
         d="m 25.1,31.1 h 5.25 l 1.3,0.05 h 0.75 l 0.6,0.05 0.65,0.05 h 5.2 6.45 0.6 0.3 0.25 l 0.2,0.1 0.15,0.1 0.15,0.1 0.05,0.1 0.1,0.1 0.05,0.1 0.05,0.1 0.05,0.1 v 0.1 0.1 0.1 0.1 0.15 0.1 l -0.1,0.1 v 0.1 L 47.05,33 47,33.1 46.85,33.2 46.7,33.3 46.6,33.35 46.45,33.4 46.2,33.45 H 45.9 45.3 38.85 33.65 33 l -0.6,0.05 -0.75,0.05 H 30.35 25.1 24 L 21.9,33.5 17.95,33.45 17.55,33.4 17.35,33.3 17.2,33.2 17.1,33.1 17,33 16.95,32.9 16.9,32.8 v -0.1 l -0.05,-0.1 v -0.15 l -0.05,-0.1 0.05,-0.1 v -0.1 -0.1 l 0.05,-0.1 v -0.1 l 0.1,-0.1 0.05,-0.1 0.1,-0.1 0.1,-0.1 0.2,-0.1 0.1,-0.1 h 0.1 l 0.3,-0.05 3.95,-0.05 H 24 25.1 V 31.1 m -1.05,3 h 5.6 l 0.75,0.05 h 1.3 l 1.4,0.05 2.35,0.05 h 3.75 l 4.6,0.05 h 2.45 0.65 0.55 0.5 l 0.35,0.05 0.2,0.1 0.2,0.1 0.1,0.15 0.05,0.1 0.1,0.1 0.05,0.1 0.05,0.1 v 0.1 l 0.05,0.1 v 0.1 0.1 0.1 0.1 l -0.05,0.1 v 0.1 L 49,36 l -0.05,0.1 -0.1,0.15 -0.05,0.1 -0.1,0.1 -0.2,0.1 -0.2,0.1 -0.35,0.05 H 47.45 46.9 46.25 43.8 l -4.6,0.05 -3.75,0.05 H 33.1 l -1.4,0.05 -1.3,0.05 h -0.75 -5.6 -2.5 L 20.9,36.85 20.05,36.8 H 19.3 l -0.75,-0.05 h -3.1 l -0.4,-0.1 -0.25,-0.1 -0.1,-0.1 -0.1,-0.1 -0.1,-0.1 -0.1,-0.1 -0.05,-0.1 -0.05,-0.1 -0.05,-0.1 v -0.1 -0.1 l -0.05,-0.1 0.05,-0.1 v -0.1 -0.1 -0.1 L 14.3,35 l 0.05,-0.1 0.05,-0.1 0.1,-0.1 0.1,-0.1 0.1,-0.1 0.2,-0.1 0.15,-0.05 0.1,-0.05 0.3,-0.05 h 3.1 0.75 l 0.75,-0.05 0.85,-0.05 h 0.65 2.5 V 34.1 M 44.9,44.3 h 3.1 2.9 l 1.65,0.05 H 53 53.65 l 4.5,0.05 h 0.85 0.5 0.25 0.1 0.3 l 0.15,0.05 0.25,0.05 0.15,0.1 0.15,0.15 0.1,0.1 0.1,0.1 0.05,0.1 0.1,0.1 v 0.1 l 0.1,0.1 v 0.1 0.1 0.1 0.1 0.1 0.1 0.1 l -0.05,0.1 -0.05,0.15 -0.05,0.1 -0.05,0.1 -0.1,0.1 -0.1,0.1 -0.15,0.1 -0.15,0.1 -0.15,0.05 L 60.3,47 60.15,47.05 H 59.85 59.75 59.5 59 58.15 l -4.5,0.05 H 53 52.55 L 50.9,47.15 H 48 44.9 40.7 L 40.3,47.1 H 29.45 l -6.3,0.05 H 4.6 l -0.4,-0.1 -0.25,-0.1 -0.2,-0.1 -0.1,-0.1 -0.15,-0.1 -0.1,-0.1 -0.1,-0.1 -0.1,-0.1 -0.05,-0.1 -0.05,-0.1 -0.05,-0.1 v -0.1 -0.1 L 3,45.75 3.05,45.6 V 45.5 45.4 L 3.1,45.3 3.15,45.2 3.2,45.1 3.3,45 3.4,44.9 3.5,44.8 3.65,44.7 3.75,44.6 3.95,44.5 4.2,44.4 4.6,44.3 h 18.55 l 6.3,0.05 H 40.3 l 0.4,-0.05 h 4.2 M 17.55,37.4 h 8.2 l 1.55,0.05 h 1.6 3.9 1.45 0.45 0.75 l 5.3,0.05 3.6,0.05 h 4.7 2.5 l 0.35,0.1 0.25,0.1 0.15,0.1 0.1,0.1 0.1,0.1 0.1,0.1 v 0.1 l 0.1,0.1 v 0.1 l 0.05,0.1 v 0.1 0.1 0.15 0.1 l -0.05,0.1 v 0.1 l -0.05,0.1 -0.05,0.1 -0.05,0.1 -0.1,0.1 -0.1,0.1 -0.1,0.1 -0.15,0.1 -0.2,0.1 h -0.1 l -0.25,0.05 h -2.5 l -4.7,0.05 h -3.6 l -5.3,0.05 H 34.7 34.25 L 32.8,40.2 h -3.9 -1.6 -1.55 -8.2 -5.1 l -0.3,-0.05 -0.3,-0.05 -0.25,-0.05 -0.2,-0.1 -0.1,-0.1 -0.15,-0.1 L 11.1,39.65 11,39.55 10.95,39.45 10.9,39.3 10.85,39.2 V 39.1 39 38.9 l -0.05,-0.1 0.05,-0.1 v -0.1 -0.1 -0.1 l 0.05,-0.1 0.05,-0.1 0.05,-0.1 0.1,-0.1 0.05,-0.1 0.15,-0.1 0.1,-0.15 0.2,-0.1 0.25,-0.05 0.3,-0.05 h 0.3 5.1 V 37.4 m 6.55,3.25 h 3.3 1.15 3.5 6.6 l 9.15,0.05 3.4,0.05 h 3.9 l 0.85,0.05 0.25,0.05 0.25,0.05 0.2,0.1 0.15,0.1 0.1,0.1 0.1,0.1 0.1,0.1 v 0.15 l 0.1,0.1 v 0.1 l 0.05,0.1 0.05,0.1 v 0.1 0.1 0.1 0.1 l -0.05,0.1 v 0.1 l -0.05,0.1 -0.05,0.1 -0.05,0.1 -0.05,0.1 -0.05,0.15 -0.1,0.1 -0.15,0.1 -0.15,0.1 -0.15,0.05 -0.1,0.05 H 56.2 l -0.25,0.05 -0.85,0.05 -3.9,0.05 h -3.4 l -9.15,0.05 h -6.6 -3.5 L 27.4,43.75 H 24.1 L 21.2,43.7 19.5,43.65 h -4.05 -7 L 8.05,43.6 7.75,43.5 7.6,43.4 7.5,43.3 7.4,43.2 7.3,43.1 7.2,42.95 7.15,42.85 7.1,42.75 v -0.1 L 7.05,42.55 7,42.45 v -0.1 -0.1 L 6.95,42.15 7,42.05 v -0.1 -0.1 l 0.05,-0.1 0.05,-0.1 v -0.1 l 0.1,-0.15 0.05,-0.1 0.1,-0.1 0.1,-0.1 0.1,-0.1 0.15,-0.1 0.25,-0.1 0.2,-0.05 0.3,-0.05 h 7 4.05 l 1.7,-0.05 h 2.9 m 40,16.9 V 57.7 H 0 v -7.05 l -0.3,-0.1 -0.2,-0.1 -0.1,-0.1 -0.1,-0.1 -0.1,-0.1 -0.05,-0.1 -0.1,-0.1 -0.05,-0.1 v -0.1 l -0.05,-0.1 V 49.5 49.4 L -1.1,49.3 -1.05,49.2 V 49.1 49 L -1,48.9 v -0.1 l 0.05,-0.1 0.1,-0.1 0.05,-0.1 0.1,-0.1 0.1,-0.1 0.1,-0.1 0.2,-0.1 L 0,47.95 0.25,47.9 h 0.3 v -0.05 h 1.1 L 2,47.9 6.2,47.95 h 0.4 4.15 7.55 L 36.45,47.9 H 56.4 l 0.9,0.05 H 59 l 3.5,0.05 0.3,0.05 0.25,0.05 0.25,0.05 0.15,0.1 0.15,0.1 0.15,0.1 0.05,0.1 0.05,0.1 0.05,0.1 0.05,0.1 0.05,0.1 V 49 l 0.05,0.1 v 0.05 h 0.05 v 8.4"
         fill="#999999"
         fill-rule="evenodd"
         stroke="none"
         id="path4" />
      <path
         d="m 64,49 h 0.1 v 0.15 8.4"
         ffdec:has-small-stroke="true"
         ffdec:original-stroke-width="0.1"
         fill="none"
         stroke="#ffffff"
         stroke-linecap="round"
         stroke-linejoin="round"
         stroke-width="1"
         id="path5" />
      <path
         d="m 22.4,56.85 0.1,1.45 h -4.25 q -0.85,-9.65 -0.1,-20 0.35,-5.35 1.3,-8.55 1,-3.55 3,-6.05 -0.9,-0.9 -0.8,-3.3 0.3,-3.5 1.35,-4.95 0.9,-1.25 2.1,-1.25 0.65,-0.05 1.15,0.45 0.5,0.5 0.4,1.1 l -0.35,0.75 -0.5,0.75 -0.4,1.2 q -0.2,1.1 0.1,2.35 l 0.05,0.15 Q 27,20 28.7,19.5 l 1.15,-0.3 Q 30,17.75 30.7,16.3 31.65,14.4 33.25,13.2 34,12.6 34.7,12.55 l 0.75,0.15 0.5,0.6 q 0.25,0.75 -0.85,1.8 -1.6,1.6 -1.6,3.2 l 0.1,0.7 0.75,0.1 q 1.35,0.2 2.65,0.75 0.25,-1.05 0.75,-1.95 1.15,-1.95 3.2,-2.65 l 2.45,0.1 q 1,0.55 0.7,1.25 l -0.9,0.65 q -1.1,0.5 -1.8,1.5 -0.65,1.05 -0.75,2.2 v 1.1 q 1.65,1.45 2.75,3.4 1.2,2.15 1.7,5.1 0.35,2.05 0.5,5.45 0.45,11.95 -0.7,22.3 h -3.55 l 0.05,-1.35 0.1,-2.6 0.15,-3.4 Q 42.1,41 41.55,34.5 41.05,29 39.05,26.35 36.95,23.6 33.4,23.2 L 32.85,23.15 H 32.2 l -1.75,0.15 q -1.35,0.15 -3.3,1.75 -2.55,2.1 -3.7,6.4 -0.95,3.3 -1.25,9.55 -0.35,7.25 0,13.45 l 0.2,2.4 M 10.5,8.05 V 7.8 q 0,-0.9 0.75,-2.1 1.8,-2.4 4.7,-2.55 L 17.2,3.3 q 0.45,0.15 1.25,0.85 L 19.5,5.1 q 0.75,0.8 1.05,1.9 l 0.1,1.25 -0.05,1.05 -0.65,1.25 -1.55,1.85 q -0.75,0.6 -1.55,0.65 l 0.1,0.9 V 15 l -0.55,0.95 -1.05,0.4 -1.05,-0.35 -0.6,-0.9 -0.05,-1.4 0.2,-1.6 q 0.2,-0.9 0.75,-1.35 l 0.95,-0.45 q 0.65,-0.2 0.9,-0.4 L 17.25,9 17.55,8.35 Q 17.6,7.65 16.65,6.9 16,6.35 15.65,6.3 l -0.9,0.1 Q 14,6.6 13.8,6.75 L 13.05,7.5 12.9,7.75 12.85,8 13,9.05 v 1 l -0.85,0.75 q -0.5,0.15 -1.05,-0.3 L 10.6,9.4 10.5,8.05 M 8.95,17.9 q -0.35,0.85 -1.2,0.85 -0.95,0 -1.25,-0.8 L 6.4,17.2 5.45,17.1 4.65,16.35 Q 4.4,15.8 4.75,15.3 5.1,14.85 5.7,14.75 l 1,-0.1 L 6.8,13.9 7,13.05 q 0.15,-0.4 0.65,-0.5 0.4,0 0.75,0.45 l 0.25,0.85 0.15,0.75 0.65,0.05 1,0.6 q 0.45,0.6 0.05,1.15 l -1.1,0.45 -0.35,0.05 -0.1,1 m 4.5,1.05 q 0.2,-0.65 0.8,-1.05 0.6,-0.45 1.25,-0.4 0.65,0 1.2,0.45 0.55,0.4 0.75,1.05 0.2,0.65 -0.05,1.3 l -0.85,1.05 -1.3,0.25 q -0.7,-0.05 -1.2,-0.5 -1.05,-0.85 -0.6,-2.15 m 22.45,11.75 -0.2,-0.95 0.15,-0.8 q 0.2,-0.65 0.9,-1 l 1.9,-0.1 q 0.9,0.4 1.25,1.4 0.2,0.8 -0.2,1.55 -0.4,0.8 -1.15,1.05 L 37,31.75 Q 36.2,31.4 35.9,30.7 m -5.4,-3.75 0.2,-1 q 0.35,-0.7 1.1,-1.05 l 1.5,-0.15 q 0.75,0.2 1.25,0.85 0.5,0.6 0.45,1.4 0,0.75 -0.5,1.4 -0.55,0.6 -1.3,0.75 l -1.5,-0.2 q -0.75,-0.4 -1.05,-1.1 -0.15,-0.45 -0.15,-0.9 m 4.3,5.1 q 1.4,1 1.7,2.65 0.3,1.2 0,2.35 -0.15,0.9 -0.7,1.45 -0.9,0.9 -2.7,0.9 -2.35,0.1 -3.95,-0.95 -0.85,-0.6 -1.35,-1.5 -0.55,-1 -0.45,-1.95 0.15,-1.25 1.2,-2.3 0.85,-0.85 2.05,-1.25 l 2.2,-0.2 q 1.15,0.15 2,0.8 m -8.4,0.5 q -1.1,-0.15 -1.55,-1.35 -0.35,-1.15 0.35,-2 0.6,-0.8 1.5,-0.7 l 0.15,-0.05 q 1.25,0 1.85,1.2 0.55,1.2 -0.25,2.15 -0.8,1.1 -2.05,0.75"
         fill="#000000"
         fill-rule="evenodd"
         stroke="none"
         id="path6" />
      <path
         d="M 41.4,56.95 H 39.7 26.45 L 24.8,56.9 H 24.05 L 23.1,56.85 h -0.7 l -0.2,-2.4 q -0.35,-6.2 0,-13.45 0.3,-6.25 1.25,-9.55 1.15,-4.3 3.7,-6.4 1.95,-1.6 3.3,-1.75 l 1.75,-0.15 h 0.65 l 0.55,0.05 q 3.55,0.4 5.65,3.15 2,2.65 2.5,8.15 0.55,6.5 0.1,16.45 l -0.15,3.4 -0.1,2.6 m -15,-24.4 q 1.25,0.35 2.05,-0.75 0.8,-0.95 0.25,-2.15 -0.6,-1.2 -1.85,-1.2 L 26.7,28.5 q -0.9,-0.1 -1.5,0.7 -0.7,0.85 -0.35,2 0.45,1.2 1.55,1.35 m 8.4,-0.5 q -0.85,-0.65 -2,-0.8 l -2.2,0.2 q -1.2,0.4 -2.05,1.25 -1.05,1.05 -1.2,2.3 -0.1,0.95 0.45,1.95 0.5,0.9 1.35,1.5 1.6,1.05 3.95,0.95 1.8,0 2.7,-0.9 0.55,-0.55 0.7,-1.45 0.3,-1.15 0,-2.35 -0.3,-1.65 -1.7,-2.65 m -4.3,-5.1 q 0,0.45 0.15,0.9 0.3,0.7 1.05,1.1 l 1.5,0.2 Q 33.95,29 34.5,28.4 35,27.75 35,27 35.05,26.2 34.55,25.6 34.05,24.95 33.3,24.75 l -1.5,0.15 q -0.75,0.35 -1.1,1.05 l -0.2,1 m 5.4,3.75 q 0.3,0.7 1.1,1.05 l 1.55,0.1 q 0.75,-0.25 1.15,-1.05 0.4,-0.75 0.2,-1.55 -0.35,-1 -1.25,-1.4 l -1.9,0.1 q -0.7,0.35 -0.9,1 l -0.15,0.8 0.2,0.95"
         fill="#ffffff"
         fill-rule="evenodd"
         stroke="none"
         id="path7" />
    </g>
    <g
       id="shape2"
       transform="translate(1.5,1.5)">
      <path
         d="M 0,23.8 V 0 H 64.1 V 23.8 57.55 H 0 Z"
         fill="none"
         stroke="#000000"
         stroke-linecap="round"
         stroke-linejoin="round"
         stroke-width="3"
         id="path8" />
    </g>
  </defs>
</svg>
