<?xml version="1.0" encoding="UTF-8" standalone="no"?>
<svg
   ffdec:objectType="frame"
   height="60.549999"
   width="67.099998"
   version="1.1"
   id="svg7"
   sodipodi:docname="80.svg"
   xmlns:inkscape="http://www.inkscape.org/namespaces/inkscape"
   xmlns:sodipodi="http://sodipodi.sourceforge.net/DTD/sodipodi-0.dtd"
   xmlns:xlink="http://www.w3.org/1999/xlink"
   xmlns="http://www.w3.org/2000/svg"
   xmlns:svg="http://www.w3.org/2000/svg"
   xmlns:ffdec="https://www.free-decompiler.com/flash">
  <sodipodi:namedview
     id="namedview7"
     pagecolor="#ffffff"
     bordercolor="#000000"
     borderopacity="0.25"
     inkscape:showpageshadow="2"
     inkscape:pageopacity="0.0"
     inkscape:pagecheckerboard="0"
     inkscape:deskcolor="#d1d1d1"
     fit-margin-top="5"
     fit-margin-left="5"
     fit-margin-right="5"
     fit-margin-bottom="5" />
  <g
     transform="translate(1.5,1.5)"
     id="g3">
    <use
       ffdec:characterId="516"
       height="57.549999"
       width="64.099998"
       xlink:href="#shape0"
       id="use1" />
    <use
       ffdec:characterId="592"
       height="58.549999"
       transform="translate(-0.5,-0.5)"
       width="65.099998"
       xlink:href="#shape1"
       id="use2" />
    <use
       ffdec:characterId="518"
       height="60.549999"
       transform="translate(-1.5,-1.5)"
       width="67.099998"
       xlink:href="#shape2"
       id="use3" />
  </g>
  <defs
     id="defs7">
    <g
       id="shape0">
      <path
         d="M 53.6,0 H 64.1 V 57.55 H 53.6 28.25 0 V 0 H 28.25 53.6 V 57.55 0 M 28.25,0 V 57.55 0"
         fill="#ffffff"
         fill-rule="evenodd"
         stroke="none"
         id="path3" />
    </g>
    <g
       id="shape1"
       transform="translate(0.5,0.5)">
      <path
         d="M 0,0 H 64.1 V 57.55 H 0 V 0"
         fill="#999999"
         fill-rule="evenodd"
         stroke="none"
         id="path4" />
      <path
         d="M 0,0 H 64.1 V 57.55 H 0 Z"
         fill="none"
         stroke="#ffffff"
         stroke-linecap="round"
         stroke-linejoin="round"
         stroke-width="1"
         id="path5" />
      <path
         d="M 10.65,51.2 9.1,52.25 Q 8.05,52.6 7.4,51.8 6.95,51.2 7.35,50.25 7.65,49.7 8.4,49.05 l 1.75,-1.65 q 0.1,-1 -0.35,-2.75 L 9.25,43 8.8,42.05 8.25,40.25 7.3,38.7 5.95,36.9 5.35,36.2 5.3,36.15 5.15,36.2 3.3,36.6 Q 2.05,36.5 1.9,35.55 1.65,34.3 3.8,33.5 l 4.95,-1.75 q 0,-0.25 0.3,-0.55 1.3,-1.55 2.35,-3.85 l 1.55,-4.25 0.4,-1.3 0.6,-4.25 0.2,-6.55 -0.2,-2.25 -1.3,-1.2 Q 12.35,7.1 12.35,6.6 12.3,6 12.6,5.65 12.95,5.2 13.6,5.2 14.2,5.15 14.7,5.45 l 1.6,1.6 2.15,2.3 1.85,1.8 0.35,0.1 1.05,0.25 0.9,0.35 2.4,0.25 2.15,-0.3 1.35,-0.45 3.5,-1.3 -0.05,-0.6 q 0,-1.6 0.15,-2.4 l 0.15,-1 V 5.35 Q 32.3,4.8 32.7,3.9 L 33.1,3.25 Q 33.6,2.65 34.3,3 l 0.55,0.75 0.1,0.95 V 5.45 L 34.8,5.95 V 6.9 l -0.1,0.6 v 0.2 1.2 0.9 l 3.85,1.05 2.65,0.1 3.8,-0.4 3.25,-0.7 0.6,-0.05 1.4,-1.35 1.45,-1.3 4.1,-3.25 q 0.7,-0.5 1,-0.6 0.95,-0.3 1.7,0.5 0.7,0.8 0.25,1.8 l -1.2,1.2 -5.6,4.05 -0.6,2 -0.25,2.25 q -0.1,1.95 0.1,2.85 l 0.2,0.9 0.8,1.9 3.35,-0.95 2.3,-0.4 q 1.05,0.35 1.2,1.3 0.25,1.05 -0.6,1.7 -0.4,0.35 -1.5,0.55 L 53,23.6 q -2.25,6.15 -2.25,12.3 l 0.15,3.15 q 0.3,2.15 1.25,5.05 l 1.5,4.4 0.45,0.4 q 1.3,1 1.6,1.65 0.3,0.95 -0.25,1.7 -0.55,0.8 -1.6,0.65 -0.4,-0.1 -1.3,-0.8 -2.4,-2.1 -3.25,-3.45 l -0.4,-0.7 -2.3,-0.3 -3.75,0.05 -3.65,0.15 Q 35.35,48 33.4,49.1 l 0.05,1.05 q 0.1,1.05 -0.15,1.5 -0.35,0.9 -1.3,1 -0.95,0.1 -1.5,-0.65 -0.6,-0.7 -0.4,-2.3 l 0.35,-3.3 -0.25,-0.2 -0.5,-0.05 -3.7,-0.8 -1.05,-0.3 -3.55,-0.45 -1.65,-0.1 -1.9,0.3 -0.9,0.2 -6.3,6.2 m 34.4,-34.4 -3.25,2.95 v 0.05 q 0.25,0.8 1.5,2.3 l 0.65,0.7 2.7,-0.5 1.65,-0.6 1.95,-0.5 -0.5,-1.55 Q 49.4,18.45 49.4,17.4 l 0.05,-1.3 q 0.2,-2.2 0.7,-3.4 l 0.45,-0.85 -5.55,4.95 m -8,7.35 5.05,-1 q -1,-1.25 -1.35,-2.45 l -3.7,3.45 m 1.6,-6.8 1.35,0.15 h 0.6 l 5.85,-5 -3,0.4 -3.9,0.1 Q 37.7,12.85 35.7,11.95 l -1.1,-0.5 -0.1,2.75 0.9,1.25 2.1,1.4 1.15,0.5 m 8.2,23.7 0.75,1.05 1.8,2 1,1.1 q -1.2,-4.1 -1.45,-6.55 -0.25,-3 0.35,-7.05 l 0.3,-1.95 q 0.6,-3 1.75,-5.75 l -5.5,0.85 -0.2,0.05 -0.85,1.05 q -0.7,1 -1.3,3.5 l -0.3,1.8 -0.05,2.15 0.15,1.75 0.4,1.35 0.9,2.2 1.05,1.2 1.2,1.25 m -8.7,-9.85 2.9,3.6 0.3,0.4 -0.05,-1.35 q -0.1,-1.6 0.05,-2.8 0.2,-1.6 0.85,-3.3 0.5,-1.5 1.3,-2.6 l -2.45,0.45 -6.55,1.7 3.65,3.9 M 39.8,42 37.65,42.55 q -2.1,0.6 -3.05,1.1 -0.75,0.35 -1.35,0.85 l 0.1,3.45 q 1.25,-0.65 2.95,-1 l 4,-0.5 3.1,-0.25 4.2,-0.1 L 47.2,45.65 44.25,41.7 44,41.65 39.8,42 m 2.35,-2.6 -2,-2.2 -1.85,-2.3 -0.4,-0.5 -0.95,0.25 q -1,0.35 -2.05,1.2 l -1.75,1.6 v 1.4 l 0.05,3.45 1.05,-0.5 2.45,-0.85 q 2,-0.6 3.15,-0.65 l 2.25,0.05 0.95,0.1 V 40.4 l -0.1,-0.35 -0.8,-0.65 m -17.8,-23.05 3.1,3.2 3.2,3.15 0.95,1.1 0.1,-4.25 q 0.05,-4.35 0.25,-7.7 l -1.55,0.6 -3.85,1.1 -2.35,0.1 -1.55,-0.1 -0.5,-0.15 2.2,2.95 m -5.4,-2.7 -3.15,-3.4 v 0.3 3.1 q -0.1,6.3 -1.05,9.6 -0.75,2.5 -2.7,6.1 l -1,1.6 9.35,-2.8 1.1,-0.9 q 1.85,-1.95 2.15,-3.75 l 0.1,-1.9 -0.1,-1.45 -0.3,-0.95 -0.1,-0.35 -4.3,-5.2 m 9.6,10.55 -3.15,-3.1 v 0.65 Q 25.5,24.1 25,25.3 l -0.35,0.75 -0.65,1.15 5.95,-1.5 -1.4,-1.5 m 5.4,-0.65 4.8,-4.4 -0.25,-0.05 -0.95,-0.4 q -2.2,-1.15 -3.2,-2.3 l -0.4,7.15 m -7.2,6.8 1.4,-1.35 -9.7,2.8 0.1,0.05 1.6,1.55 0.6,0.85 0.45,0.75 0.3,1 5.25,-5.65 m -8.65,9.2 1.75,-1.8 v -0.2 L 19.8,36.9 19.6,35.95 19.45,35.55 19.1,34.9 18.5,34.2 17.1,32.75 16.6,32.35 6.65,35.65 6.9,36 l 0.65,0.55 0.65,1 1.2,1.65 1.5,3.8 0.85,2.9 6.35,-6.35 m 4.9,-0.95 -3.8,4.05 0.2,-0.05 3.05,0.2 3.15,0.65 q 2.8,0.7 4.1,1.3 l 0.45,0.15 0.45,-0.55 0.15,-0.1 V 44.1 l 0.3,-2.35 0.15,-0.85 0.1,-4.4 -1.2,-0.2 -1.25,-0.7 -1.75,-0.15 -1.2,0.05 -2.9,3.1 m 8.45,-8.95 -4.05,4.25 0.2,-0.05 2.9,0.45 q 0.5,0.15 0.85,0.4 l 0.1,-5.05 m 3.6,1.55 -1.5,-1.65 -0.4,5.55 0.1,-0.1 q 1.55,-1.75 3.15,-2.3 l -1.35,-1.5"
         fill="#ffffff"
         fill-rule="evenodd"
         stroke="none"
         id="path6" />
    </g>
    <g
       id="shape2"
       transform="translate(1.5,1.5)">
      <path
         d="M 0,23.8 V 0 H 64.1 V 23.8 57.55 H 0 Z"
         fill="none"
         stroke="#000000"
         stroke-linecap="round"
         stroke-linejoin="round"
         stroke-width="3"
         id="path7" />
    </g>
  </defs>
</svg>
