<?xml version="1.0" encoding="UTF-8" standalone="no"?>
<svg
   ffdec:objectType="frame"
   height="60.549999"
   width="67.099998"
   version="1.1"
   id="svg7"
   sodipodi:docname="551.svg"
   xmlns:inkscape="http://www.inkscape.org/namespaces/inkscape"
   xmlns:sodipodi="http://sodipodi.sourceforge.net/DTD/sodipodi-0.dtd"
   xmlns:xlink="http://www.w3.org/1999/xlink"
   xmlns="http://www.w3.org/2000/svg"
   xmlns:svg="http://www.w3.org/2000/svg"
   xmlns:ffdec="https://www.free-decompiler.com/flash">
  <sodipodi:namedview
     id="namedview7"
     pagecolor="#ffffff"
     bordercolor="#000000"
     borderopacity="0.25"
     inkscape:showpageshadow="2"
     inkscape:pageopacity="0.0"
     inkscape:pagecheckerboard="0"
     inkscape:deskcolor="#d1d1d1"
     fit-margin-top="5"
     fit-margin-left="5"
     fit-margin-right="5"
     fit-margin-bottom="5" />
  <g
     transform="translate(1.5,1.5)"
     id="g3">
    <use
       ffdec:characterId="516"
       height="57.549999"
       width="64.099998"
       xlink:href="#shape0"
       id="use1" />
    <use
       ffdec:characterId="1047"
       height="57.75"
       transform="translate(0.15,-0.25)"
       width="64.349998"
       xlink:href="#shape1"
       id="use2" />
    <use
       ffdec:characterId="518"
       height="60.549999"
       transform="translate(-1.5,-1.5)"
       width="67.099998"
       xlink:href="#shape2"
       id="use3" />
  </g>
  <defs
     id="defs7">
    <g
       id="shape0">
      <path
         d="M 53.6,0 H 64.1 V 57.55 H 53.6 28.25 0 V 0 H 28.25 53.6 V 57.55 0 M 28.25,0 V 57.55 0"
         fill="#ffffff"
         fill-rule="evenodd"
         stroke="none"
         id="path3" />
    </g>
    <g
       id="shape1"
       transform="translate(-0.15,0.25)">
      <path
         d="m 28.05,5.2 q -0.3,2.1 -1.65,4 -1.3,1.75 -3.3,2.9 -2.1,1.2 -3.9,1.15 -1.1,-0.05 -2,-0.55 l -0.7,-0.45 -1,1 q -1.85,1.8 -3.85,6.4 l -3.4,7.75 -1.1,2.4 3,16.8 q 0.2,1.35 0.6,2.1 l 1.3,1.65 q 0.85,0.95 1,1.75 0.2,0.8 -0.25,1.6 -0.45,0.8 -1.25,1.1 l -2.3,0.05 -2.8,-0.4 -1.6,-0.05 Q 4,54.55 2.8,55.65 l -2.05,1.45 -0.6,0.15 v -57.5 h 26.7 q 1.65,2.6 1.2,5.45 M 47.2,16.55 q -2.5,0.35 -4.95,-0.9 -2.4,-1.2 -3.65,-3.45 l -0.7,-1 -1.05,-0.45 Q 34.15,10 33,8.6 32.05,7.4 31.6,5.2 31.05,2.15 31.55,0.05 l 0.1,-0.3 H 64.5 v 30.7 l -0.35,10.5 -0.35,4.55 -0.4,2.55 0.4,0.05 q 0.4,0.1 0.7,0.35 v 4.3 l -1.1,1 -1.1,1.15 -1.25,0.85 q -1.15,0.4 -2.5,-0.4 l -1.9,-1.85 -5.7,1.1 -2.8,-0.05 q -1.3,-0.55 -1.4,-2 -0.05,-1.2 1.3,-2.95 l 3,-4.05 1.3,-2.15 q 0.4,-0.9 0.6,-2.9 L 54.6,24.65 53.85,22.7 53.05,20.45 50.8,15.2 q -1.65,1.1 -3.6,1.35 m 7.1,-6.5 -0.85,2.25 1.95,5.7 1.15,-7.5 -2.25,-0.45 m -42.6,1.7 -1,0.1 Q 10.45,12 10.25,12.5 l -0.75,1.4 0.2,0.4 0.45,0.9 0.5,-1 1.8,-2.4 -0.75,-0.05 m -4.5,4.5 -1.05,0.75 0.2,6.9 0.1,0.9 2.45,-6.65 0.5,-1.1 -1.6,-1.25 -0.6,0.45"
         fill="#999999"
         fill-rule="evenodd"
         stroke="none"
         id="path4" />
      <path
         d="M 32.5,29.8 29,29.9 h -0.05 l -0.3,0.25 -2.65,2.35 -0.85,0.9 -0.55,0.7 -0.7,0.55 -1,0.2 q -1.4,0 -2.15,-0.9 -0.4,-0.5 -0.5,-1.2 -0.1,-0.7 0.2,-1.25 0.3,-0.6 0.95,-0.95 0.6,-0.3 1.25,-0.25 l 0.8,0.05 0.6,-0.35 1.55,-1.15 -1.05,-0.7 Q 22.75,26.8 22.1,24.4 21.4,22.1 22,19.8 22.6,17.3 24.25,15.65 23.9,14.8 24,14.2 q 0.1,-0.8 0.8,-1.35 0.7,-0.55 1.55,-0.45 1,0.1 1.6,1 1.6,-0.45 3.4,0 V 4.8 3.65 L 29.35,2 Q 27.9,0.95 26.65,0.8 25,0.65 23.15,2.15 q -0.6,0.5 -0.7,0.9 L 22.5,3.9 q 0.25,1.75 -0.4,3.4 -0.6,1.7 -1.95,2.75 -1.4,1.05 -3.2,1.15 -1.85,0.1 -3.2,-0.95 Q 12.5,9.3 11.9,7.7 11.4,6.2 11.5,4.5 11.7,2 13.15,-0.25 H 37.5 l 0.15,0.1 q 1.1,0.65 1.6,1.75 0.5,1.05 0.7,3.2 0.8,9.3 0.3,15.85 -0.3,4.45 -2.15,6.25 l 0.1,0.15 0.4,0.7 0.3,0.35 0.35,0.4 0.35,-0.15 q 0.45,-0.4 1.15,-0.4 l 1.15,0.3 q 0.55,0.4 0.7,1.05 l -0.05,1.2 -1,1.3 -0.85,0.65 -0.85,0.4 -1.1,-0.1 -0.75,-0.5 -0.5,-0.7 -0.85,-1.65 -0.4,-0.6 -0.4,-1.05 -0.3,0.15 -3.05,1.4 m 8.55,12.85 0.3,2.65 q 0.05,4.05 -1.3,6.05 l -1.75,1.95 -1.9,1.5 -0.35,0.15 0.1,0.25 0.9,2.3 h -11.2 l 1.45,-2.6 q -1.35,-0.6 -2.45,-1.75 -1.35,-1.4 -1.95,-3.2 h -1.4 q -1.45,-0.2 -2.55,-1.05 -1.2,-1.1 -1.35,-2.45 l -0.05,-1.1 q 0,-0.6 0.15,-1.25 0.25,-1.2 1.6,-2.65 0.75,-0.75 1.35,-1.05 1.55,-0.85 3.35,-0.25 l 0.65,0.3 q 1.2,-1.7 2.85,-2.65 1.4,-0.7 4.2,-1.2 l 4.4,0.15 q 2.15,0.7 3.8,3.35 0.75,1.15 1.15,2.55 m -2.25,0 q 0.7,-0.7 0.6,-1.7 -0.1,-0.85 -0.75,-1.45 -0.6,-0.65 -1.5,-0.65 -0.7,0 -1.25,0.4 l -0.8,0.9 -0.25,0.95 q 0,0.7 0.4,1.25 l 1.05,0.9 1.35,0.05 1.15,-0.65 m -2.7,2.4 q -0.15,-0.45 -0.65,-0.6 l -0.85,-0.1 -0.7,0.1 -0.25,-0.8 q -0.5,-0.6 -1.25,-0.25 -0.4,0.2 -0.5,0.55 l -0.1,0.65 v 0.1 l -0.25,0.05 -0.85,0.3 -0.8,0.25 q -0.3,0.3 -0.2,0.65 l 0.45,0.45 0.65,-0.05 0.95,0.05 3.1,0.35 0.55,-0.05 0.75,-0.65 q 0.2,-0.45 0,-1 H 36.1 m -10.3,-3.3 q -0.25,1.15 0.65,2 0.9,0.85 2.05,0.6 1.2,-0.25 1.6,-1.35 l 0.1,-0.3 0.2,-0.9 q 0,-0.6 -0.4,-1.1 -0.55,-0.75 -1.8,-0.8 l -0.9,0.15 q -0.55,0.1 -0.95,0.6 -0.5,0.55 -0.55,1.1 M 29.05,27 28.7,26.8 28,26.9 q -0.3,0.15 -0.3,0.6 l 0.2,0.5 q 0.55,0.85 1.7,0.85 0.7,0 1.4,-0.5 l 1.35,0.2 1.4,-0.4 1.1,-0.8 L 35,26.7 34.7,26.1 q -0.4,-0.2 -0.7,0 l -0.55,0.45 -0.9,-0.05 -0.85,-0.35 -0.8,0.05 -0.55,0.2 -0.6,0.45 -0.7,0.15 m 6.25,-5.95 -0.15,0.25 -0.3,0.7 -0.9,1.45 -0.65,0.7 q 0.2,0.55 0.75,0.9 0.7,0.45 1.55,0.3 0.85,-0.1 1.35,-0.75 0.55,-0.65 0.45,-1.55 -0.05,-0.9 -0.65,-1.45 -0.55,-0.55 -1.45,-0.55 m -10.25,1.6 q -1.05,0.3 -1.45,1.4 -0.35,1.15 0.25,1.95 0.35,0.6 1.05,0.9 l 1.35,0.15 q 0.65,-0.15 1.2,-0.7 0.5,-0.5 0.6,-1.2 l 0.05,-0.2 -0.8,-0.2 -0.6,-0.25 -0.45,-0.45 -0.8,-1.05 -0.2,-0.4 -0.2,0.05"
         fill="#000000"
         fill-rule="evenodd"
         stroke="none"
         id="path5" />
      <path
         d="m 25.05,22.65 0.2,-0.05 0.2,0.4 0.8,1.05 0.45,0.45 0.6,0.25 0.8,0.2 -0.05,0.2 q -0.1,0.7 -0.6,1.2 -0.55,0.55 -1.2,0.7 L 24.9,26.9 q -0.7,-0.3 -1.05,-0.9 -0.6,-0.8 -0.25,-1.95 0.4,-1.1 1.45,-1.4 m 10.25,-1.6 q 0.9,0 1.45,0.55 0.6,0.55 0.65,1.45 0.1,0.9 -0.45,1.55 -0.5,0.65 -1.35,0.75 -0.85,0.15 -1.55,-0.3 -0.55,-0.35 -0.75,-0.9 l 0.65,-0.7 0.9,-1.45 0.3,-0.7 0.15,-0.25 m -6.25,5.95 0.7,-0.15 0.6,-0.45 0.55,-0.2 0.8,-0.05 0.85,0.35 0.9,0.05 L 34,26.1 q 0.3,-0.2 0.7,0 l 0.3,0.6 -0.15,0.65 -1.1,0.8 -1.4,0.4 -1.35,-0.2 q -0.7,0.5 -1.4,0.5 -1.15,0 -1.7,-0.85 l -0.2,-0.5 q 0,-0.45 0.3,-0.6 l 0.7,-0.1 0.35,0.2 M 25.8,41.75 q 0.05,-0.55 0.55,-1.1 0.4,-0.5 0.95,-0.6 l 0.9,-0.15 q 1.25,0.05 1.8,0.8 0.4,0.5 0.4,1.1 l -0.2,0.9 -0.1,0.3 q -0.4,1.1 -1.6,1.35 -1.15,0.25 -2.05,-0.6 -0.9,-0.85 -0.65,-2 m 10.3,3.3 h 0.05 q 0.2,0.55 0,1 L 35.4,46.7 34.85,46.75 31.75,46.4 30.8,46.35 30.15,46.4 29.7,45.95 Q 29.6,45.6 29.9,45.3 l 0.8,-0.25 0.85,-0.3 0.25,-0.05 v -0.1 l 0.1,-0.65 q 0.1,-0.35 0.5,-0.55 0.75,-0.35 1.25,0.25 l 0.25,0.8 0.7,-0.1 0.85,0.1 q 0.5,0.15 0.65,0.6 m 2.7,-2.4 -1.15,0.65 -1.35,-0.05 -1.05,-0.9 q -0.4,-0.55 -0.4,-1.25 l 0.25,-0.95 0.8,-0.9 q 0.55,-0.4 1.25,-0.4 0.9,0 1.5,0.65 0.65,0.6 0.75,1.45 0.1,1 -0.6,1.7"
         fill="#ffffff"
         fill-rule="evenodd"
         stroke="none"
         id="path6" />
    </g>
    <g
       id="shape2"
       transform="translate(1.5,1.5)">
      <path
         d="M 0,23.8 V 0 H 64.1 V 23.8 57.55 H 0 Z"
         fill="none"
         stroke="#000000"
         stroke-linecap="round"
         stroke-linejoin="round"
         stroke-width="3"
         id="path7" />
    </g>
  </defs>
</svg>
