<?xml version="1.0" encoding="UTF-8" standalone="no"?>
<svg
   ffdec:objectType="frame"
   height="60.549999"
   width="67.099998"
   version="1.1"
   id="svg8"
   sodipodi:docname="618.svg"
   xmlns:inkscape="http://www.inkscape.org/namespaces/inkscape"
   xmlns:sodipodi="http://sodipodi.sourceforge.net/DTD/sodipodi-0.dtd"
   xmlns:xlink="http://www.w3.org/1999/xlink"
   xmlns="http://www.w3.org/2000/svg"
   xmlns:svg="http://www.w3.org/2000/svg"
   xmlns:ffdec="https://www.free-decompiler.com/flash">
  <sodipodi:namedview
     id="namedview8"
     pagecolor="#ffffff"
     bordercolor="#000000"
     borderopacity="0.25"
     inkscape:showpageshadow="2"
     inkscape:pageopacity="0.0"
     inkscape:pagecheckerboard="0"
     inkscape:deskcolor="#d1d1d1"
     fit-margin-top="5"
     fit-margin-left="5"
     fit-margin-right="5"
     fit-margin-bottom="5" />
  <g
     transform="translate(1.5,1.5)"
     id="g3">
    <use
       ffdec:characterId="516"
       height="57.549999"
       width="64.099998"
       xlink:href="#shape0"
       id="use1" />
    <use
       ffdec:characterId="1110"
       height="58.650002"
       transform="translate(-0.9,-0.5)"
       width="65.050003"
       xlink:href="#shape1"
       id="use2" />
    <use
       ffdec:characterId="518"
       height="60.549999"
       transform="translate(-1.5,-1.5)"
       width="67.099998"
       xlink:href="#shape2"
       id="use3" />
  </g>
  <defs
     id="defs8">
    <g
       id="shape0">
      <path
         d="M 53.6,0 H 64.1 V 57.55 H 53.6 28.25 0 V 0 H 28.25 53.6 V 57.55 0 M 28.25,0 V 57.55 0"
         fill="#ffffff"
         fill-rule="evenodd"
         stroke="none"
         id="path3" />
    </g>
    <g
       id="shape1"
       transform="translate(0.9,0.5)">
      <path
         d="m 26.1,-0.15 q 0.1,0.75 0.7,1.9 2.5,5.35 3.7,12.6 l 0.85,6.5 0.85,-6.5 Q 33.4,7.1 35.9,1.75 l 0.7,-1.9 v -0.1 h 7.45 L 44.1,-0.3 44.35,-0.5 H 46 l 0.25,0.25 h 2 l -0.1,0.6 q -0.3,1.1 -1.65,2.1 l -1.2,0.75 -0.4,0.65 -0.55,1 -0.2,0.3 -0.1,0.3 -0.3,0.5 L 42.55,7.5 42.2,7.85 41.7,7.9 41.4,7.25 41.45,6.4 41.75,5.75 42,4.15 40.25,4.1 Q 38,8.95 36.6,15.65 35.75,19.7 34.7,27.8 l -1.3,9.85 -0.35,1.2 -0.45,0.4 -0.6,-0.05 -0.45,-0.85 -0.2,-0.95 -0.2,0.95 -0.45,0.85 -0.6,0.05 -0.45,-0.4 Q 29.4,38.55 29.3,37.65 L 28,27.8 Q 26.95,19.7 26.1,15.65 24.7,8.95 22.45,4.1 L 20.7,4.15 20.95,5.75 21.25,6.4 21.3,7.25 21,7.9 20.5,7.85 20.15,7.5 18.95,5.95 18.65,5.45 18.55,5.15 18.35,4.85 17.8,3.85 17.4,3.2 16.2,2.45 q -1.35,-1 -1.65,-2.1 l -0.1,-0.6 h 2 L 16.7,-0.5 h 1.7 l 0.2,0.2 0.05,0.05 h 7.45 v 0.1 M 28.7,4.5 28.4,3.8 28.05,3.25 27.85,2.8 27.65,2.45 27.55,2.1 27.35,1.85 27.2,1.35 26.9,0.5 26.6,-0.35 V -0.5 h 3.1 l 0.55,2.6 0.05,1.75 -0.05,0.55 -0.05,0.4 0.1,0.4 -0.2,0.45 -0.45,0.1 Q 29.15,5.7 29.05,5.1 L 28.95,4.75 28.7,4.5 m 25.95,12.1 1.3,-0.2 q 0.7,0.15 1.15,0.65 0.45,0.5 0.5,1.2 0,0.75 -0.4,1.25 l -0.95,0.8 -2.75,2.2 -3.65,3.7 -0.9,1 -0.75,0.55 h -0.45 l -0.3,-0.25 q -0.1,-0.3 0.35,-1.1 l 0.7,-1.3 5.15,-7.7 1,-0.8 m 7.3,19.1 -1.05,0.8 1.95,0.15 q 0.9,0.65 0.75,1.8 -0.15,0.75 -0.8,1.4 l -1.3,0.9 -2.7,1.55 -1.8,0.95 -2.5,1.1 -2.4,1.4 -2,0.8 -0.35,-0.1 L 49.7,46 q 0.1,-0.45 0.8,-1.15 l 1,-0.85 3.65,-2.75 1.3,-0.95 3.45,-3 0.5,-0.5 -0.4,0.25 -3,1.45 -2.6,1.95 -3.95,2.75 -3.1,2 -3.55,2.25 q -0.65,0.35 -1.25,0.65 l 1.65,1.75 q 3.45,3.65 7.85,6.5 l 1.2,0.9 H 45.3 l -3.95,-4.5 -3.5,-5.1 -0.7,-1 q -0.55,-0.25 -0.95,-1.3 -0.55,-1.7 0.25,-5.05 1.5,-6.35 4.3,-15.75 2.15,-7.25 3.9,-11 2.8,-5.8 6.7,-9.15 1.55,-1.4 3,-1.85 l 3.9,-0.25 q 1.9,0.35 3.65,1.5 l 0.85,0.65 V 14.3 L 59.8,14.2 q -1.05,-0.3 -1.95,-0.9 l -2.55,1.25 -1.95,0.75 -1,0.5 -1.1,0.1 -0.45,-0.35 -0.15,-0.5 0.35,-0.6 1.55,-1.55 1.45,-1.2 0.7,-0.5 0.4,-0.45 0.35,-0.3 -0.65,-2 q -3.7,2.5 -6.15,7.5 -1.55,3.1 -3.5,9.4 l -6.1,19.3 0.25,0.2 0.05,-0.15 q 0.15,-0.45 1.05,-1.25 l 3.35,-2.85 2.5,-2.05 4.85,-3.4 q 3.05,-2 4.7,-3.55 l 0.6,-0.7 -0.05,-1.2 -0.7,0.6 -2.3,1.9 -1.1,0.6 q -0.9,0.2 -1.05,-0.55 -0.1,-0.35 0.35,-1 l 1.35,-1.85 2.05,-3 0.9,-1.7 0.75,-1.3 0.05,-0.05 0.05,-0.25 q 0.45,-1.85 1.25,-2.85 1.3,-1.7 3.8,-1.7 l 1,0.1 v 16.5 L 62.4,35.2 61.95,35.7 M 34,4.5 33.75,4.75 33.65,5.1 q -0.1,0.6 -0.6,0.65 L 32.6,5.65 32.4,5.2 32.5,4.8 32.45,4.4 32.4,3.85 32.45,2.1 33,-0.5 h 3.1 v 0.15 l -0.3,0.85 -0.3,0.85 -0.15,0.5 -0.2,0.25 -0.1,0.35 -0.2,0.35 -0.2,0.45 Q 34.4,3.45 34.3,3.8 L 34,4.5 M 0.75,35.7 0.3,35.2 -0.05,35.15 v -16.5 l 1,-0.1 q 2.5,0 3.8,1.7 0.8,1 1.25,2.85 l 0.05,0.25 0.05,0.05 0.75,1.3 0.9,1.7 2.05,3 1.35,1.85 q 0.45,0.65 0.35,1 -0.15,0.75 -1.05,0.55 l -1.1,-0.6 -2.3,-1.9 -0.7,-0.6 -0.05,1.2 0.6,0.7 4.7,3.55 4.85,3.4 2.5,2.05 3.35,2.85 1.05,1.25 0.05,0.15 0.25,-0.2 -6.1,-19.3 q -1.95,-6.3 -3.5,-9.4 -2.45,-5 -6.15,-7.5 l -0.65,2 0.35,0.3 0.4,0.45 0.7,0.5 1.45,1.2 1.55,1.55 0.35,0.6 -0.15,0.5 -0.45,0.35 -1.1,-0.1 -1,-0.5 L 7.4,14.55 Q 6.45,14.25 4.85,13.3 L 2.9,14.2 -0.05,14.3 V 4.45 L 0.8,3.8 Q 2.55,2.65 4.45,2.3 l 3.9,0.25 q 1.45,0.45 3,1.85 3.9,3.35 6.7,9.15 1.75,3.75 3.9,11 2.8,9.4 4.3,15.75 0.8,3.35 0.25,5.05 -0.4,1.05 -0.95,1.3 l -0.7,1 -3.5,5.1 -3.95,4.5 H 9.45 q 0.4,-0.45 1.2,-0.9 4.4,-2.85 7.85,-6.5 L 20.15,48.1 18.9,47.45 15.35,45.2 12.25,43.2 8.3,40.45 5.7,38.5 2.7,37.05 2.3,36.8 l 0.5,0.5 3.45,3 1.3,0.95 3.65,2.75 1,0.85 q 0.7,0.7 0.8,1.15 l -0.05,0.45 -0.35,0.1 Q 12,46.5 10.6,45.75 L 8.2,44.35 5.7,43.25 3.9,42.3 1.2,40.75 -0.1,39.85 Q -0.75,39.2 -0.9,38.45 -1.05,37.3 -0.15,36.65 0.75,36 1.8,36.5 L 0.75,35.7 m 7.3,-19.1 1,0.8 5.15,7.7 0.7,1.3 0.35,1.1 q -0.05,0.2 -0.3,0.25 H 14.5 L 13.75,27.2 12.85,26.2 9.2,22.5 6.45,20.3 5.5,19.5 Q 5.1,19 5.1,18.25 q 0.05,-0.7 0.5,-1.2 0.45,-0.5 1.15,-0.65 l 1.3,0.2 m 6.7,34.3 -3.55,2.85 q -1.85,1.4 -4,3.45 l -1.55,0.95 q -1.1,0.1 -1.45,-1 -0.25,-1 0.6,-1.7 L 6.3,54.95 7.75,54.3 8.8,53.45 q 2.25,-1.85 4.45,-3.35 0.65,-0.45 1.1,-0.45 0.3,0 0.55,0.25 l 0.2,0.5 -0.35,0.5 m 33.2,0 -0.35,-0.5 q -0.05,-0.3 0.2,-0.5 0.25,-0.25 0.55,-0.25 0.45,0 1.1,0.45 l 4.45,3.35 1.05,0.85 1.45,0.65 1.5,0.5 q 0.85,0.7 0.6,1.7 -0.35,1.1 -1.45,1 Q 56.4,58.1 55.5,57.2 l -4,-3.45 -3.55,-2.85"
         fill="#767676"
         fill-rule="evenodd"
         stroke="none"
         id="path4" />
      <path
         d="m 16.25,40.7 q -2.85,-3 -4.05,-7.35 -1,-3.85 -0.65,-8.45 0.2,-2.3 0.65,-4.3 -1,-3.25 -1.55,-6.7 -0.2,-1.95 -0.1,-2.65 0.25,-1.55 1.4,-2.2 L 13.85,8.5 17.1,8 20.8,8.2 22.25,8.4 Q 23.4,7.95 25.6,7.4 L 30.5,6.65 V 6.6 h 0.3 0.8 0.8 0.3 v 0.05 l 4.9,0.75 3.35,1 1.45,-0.2 3.7,-0.2 3.25,0.5 1.9,0.55 q 1.15,0.65 1.4,2.2 l -0.1,2.65 Q 52,17.35 51,20.6 l 0.65,4.3 Q 52,29.5 51,33.35 49.8,37.7 46.95,40.7 44.8,42.9 41.6,44.3 l 1.15,0.6 q 2.8,1.45 6.3,2.5 4.85,1.35 9.55,1.4 -2.5,-2.65 -2.7,-5.45 -0.15,-1.6 0.55,-3.05 0.7,-1.55 2.05,-2.2 1.35,-0.65 3.2,-0.5 1.4,0.15 2.45,0.65 V 53.7 l -1.8,0.6 Q 59.05,55.15 54.3,54.15 48.25,52.9 42.75,49.9 l -0.8,-0.4 2,4.6 0.5,1.65 -0.15,1.3 H 18.9 q -0.25,-0.65 -0.15,-1.3 l 0.5,-1.65 2,-4.6 -0.8,0.4 q -5.5,3 -11.55,4.25 -4.75,1 -8.05,0.15 L -0.25,54 V 37.95 L 1.5,37.6 q 1.85,-0.15 3.2,0.5 1.35,0.65 2.05,2.2 0.7,1.45 0.55,3.05 -0.2,2.8 -2.7,5.45 4.7,-0.05 9.55,-1.4 3.5,-1.05 6.3,-2.5 l 1.15,-0.6 q -3.2,-1.4 -5.35,-3.6 m 27.1,-1.3 0.7,-0.1 1,-0.5 q 1.95,-1.25 2.3,-2.95 l 0.1,-1 -0.15,-1.5 -0.3,-0.8 -1.35,0.25 -4,1.15 -3.55,0.8 q -0.05,0.8 0.2,1.7 l 0.45,0.9 1.3,1.35 q 1.25,0.8 3.3,0.7 m -22,0 0.7,-0.1 1,-0.5 q 1.95,-1.25 2.3,-2.95 l 0.1,-1 0.05,-0.55 -3.05,-0.85 -3.35,-1 -1.7,-0.55 q -0.45,0.45 -0.75,1.05 -0.9,1.7 -0.35,3.5 l 0.45,0.9 1.3,1.35 q 1.25,0.8 3.3,0.7 m 21.7,-18.5 q 0,-4.8 -3.4,-8.2 -3.35,-3.35 -8.15,-3.35 -4.8,0 -8.2,3.35 -3.35,3.4 -3.35,8.2 0,4.8 3.35,8.15 3.4,3.4 8.2,3.4 4.8,0 8.15,-3.4 3.4,-3.35 3.4,-8.15 m -18.3,21 0.25,0.35 0.65,-0.25 7.45,-0.45 1.6,0.15 1.2,0.25 1.1,0.4 0.2,0.1 0.7,-0.9 q 0.35,-0.8 -0.15,-1.6 L 36.8,39.15 Q 35.7,38.6 33.5,38.8 l -0.4,0.05 -0.05,-0.5 Q 32.8,37.4 31.8,37.3 l -0.85,0.15 -0.6,0.55 -0.25,0.85 v 0.2 l -1.25,0.2 -1.7,0.55 -1.15,0.5 -1,0.55 q -0.45,0.55 -0.25,1.05"
         fill="#000000"
         fill-rule="evenodd"
         stroke="none"
         id="path5" />
      <path
         d="m 43.35,39.4 q -2.05,0.1 -3.3,-0.7 l -1.3,-1.35 -0.45,-0.9 q -0.25,-0.9 -0.2,-1.7 l 3.55,-0.8 4,-1.15 1.35,-0.25 0.3,0.8 0.15,1.5 -0.1,1 q -0.35,1.7 -2.3,2.95 l -1,0.5 -0.7,0.1 m -9.05,-21 q -0.05,0.5 -0.75,0.6 h -1 q -0.8,0 -1.5,0.45 -0.7,0.45 -1.05,1.15 -0.35,0.8 -0.25,2.25 l 0.2,0.8 q 0.35,0.5 0.95,0.5 0.65,-0.1 0.9,-0.65 l 0.05,-1 q 0.1,-0.65 0.4,-0.85 l 0.8,-0.1 1.75,-0.2 q 1.15,-0.4 1.65,-1.55 0.5,-1 0.35,-2.25 -0.1,-1 -0.6,-1.75 l -1.15,-1 q -1.6,-1.05 -2.9,-1.25 -1.4,-0.15 -3.1,0.55 -1.55,0.75 -2.15,1.7 -0.35,0.65 -0.3,1.35 0.05,0.8 0.5,1.25 0.5,0.6 1.45,0.5 0.85,-0.1 1.25,-0.85 l 0.45,-0.9 0.8,-0.4 0.75,-0.05 q 0.6,0 1.4,0.35 l 0.65,0.45 q 0.5,0.5 0.45,0.9 m 8.75,2.5 q 0,4.8 -3.4,8.15 -3.35,3.4 -8.15,3.4 -4.8,0 -8.2,-3.4 -3.35,-3.35 -3.35,-8.15 0,-4.8 3.35,-8.2 3.4,-3.35 8.2,-3.35 4.8,0 8.15,3.35 3.4,3.4 3.4,8.2 m -21.7,18.5 q -2.05,0.1 -3.3,-0.7 l -1.3,-1.35 -0.45,-0.9 q -0.55,-1.8 0.35,-3.5 0.3,-0.6 0.75,-1.05 l 1.7,0.55 3.35,1 3.05,0.85 -0.05,0.55 -0.1,1 q -0.35,1.7 -2.3,2.95 l -1,0.5 -0.7,0.1 M 29.5,28.9 q 0.55,0.45 1.35,0.5 L 32.2,29 Q 32.8,28.6 33,27.85 33.25,27.1 33,26.4 32.75,25.75 32.1,25.35 L 30.7,25 q -0.7,0.1 -1.25,0.6 -0.6,0.55 -0.7,1.25 -0.15,1.2 0.75,2.05 m -4.75,13 Q 24.55,41.4 25,40.85 l 1,-0.55 1.15,-0.5 1.7,-0.55 1.25,-0.2 v -0.2 L 30.35,38 30.95,37.45 31.8,37.3 q 1,0.1 1.25,1.05 l 0.05,0.5 0.4,-0.05 q 2.2,-0.2 3.3,0.35 l 0.95,0.8 q 0.5,0.8 0.15,1.6 L 37.2,42.45 37,42.35 35.9,41.95 34.7,41.7 33.1,41.55 25.65,42 25,42.25 24.75,41.9"
         fill="#ffffff"
         fill-rule="evenodd"
         stroke="none"
         id="path6" />
      <path
         d="M 34.3,18.4 Q 34.35,18 33.85,17.5 L 33.2,17.05 Q 32.4,16.7 31.8,16.7 l -0.75,0.05 -0.8,0.4 -0.45,0.9 Q 29.4,18.8 28.55,18.9 27.6,19 27.1,18.4 q -0.45,-0.45 -0.5,-1.25 -0.05,-0.7 0.3,-1.35 0.6,-0.95 2.15,-1.7 1.7,-0.7 3.1,-0.55 1.3,0.2 2.9,1.25 l 1.15,1 q 0.5,0.75 0.6,1.75 0.15,1.25 -0.35,2.25 -0.5,1.15 -1.65,1.55 l -1.75,0.2 -0.8,0.1 q -0.3,0.2 -0.4,0.85 l -0.05,1 q -0.25,0.55 -0.9,0.65 -0.6,0 -0.95,-0.5 l -0.2,-0.8 Q 29.65,21.4 30,20.6 30.35,19.9 31.05,19.45 31.75,19 32.55,19 h 1 q 0.7,-0.1 0.75,-0.6 m -4.8,10.5 q -0.9,-0.85 -0.75,-2.05 0.1,-0.7 0.7,-1.25 Q 30,25.1 30.7,25 l 1.4,0.35 q 0.65,0.4 0.9,1.05 0.25,0.7 0,1.45 -0.2,0.75 -0.8,1.15 l -1.35,0.4 q -0.8,-0.05 -1.35,-0.5"
         fill="#767676"
         fill-rule="evenodd"
         stroke="none"
         id="path7" />
    </g>
    <g
       id="shape2"
       transform="translate(1.5,1.5)">
      <path
         d="M 0,23.8 V 0 H 64.1 V 23.8 57.55 H 0 Z"
         fill="none"
         stroke="#000000"
         stroke-linecap="round"
         stroke-linejoin="round"
         stroke-width="3"
         id="path8" />
    </g>
  </defs>
</svg>
