<?xml version="1.0" encoding="UTF-8" standalone="no"?>
<svg
   ffdec:objectType="frame"
   height="60.549999"
   width="67.099998"
   version="1.1"
   id="svg8"
   sodipodi:docname="637.svg"
   xmlns:inkscape="http://www.inkscape.org/namespaces/inkscape"
   xmlns:sodipodi="http://sodipodi.sourceforge.net/DTD/sodipodi-0.dtd"
   xmlns:xlink="http://www.w3.org/1999/xlink"
   xmlns="http://www.w3.org/2000/svg"
   xmlns:svg="http://www.w3.org/2000/svg"
   xmlns:ffdec="https://www.free-decompiler.com/flash">
  <sodipodi:namedview
     id="namedview8"
     pagecolor="#ffffff"
     bordercolor="#000000"
     borderopacity="0.25"
     inkscape:showpageshadow="2"
     inkscape:pageopacity="0.0"
     inkscape:pagecheckerboard="0"
     inkscape:deskcolor="#d1d1d1"
     fit-margin-top="5"
     fit-margin-left="5"
     fit-margin-right="5"
     fit-margin-bottom="5" />
  <g
     transform="translate(1.5,1.5)"
     id="g3">
    <use
       ffdec:characterId="516"
       height="57.549999"
       width="64.099998"
       xlink:href="#shape0"
       id="use1" />
    <use
       ffdec:characterId="1128"
       height="57.799999"
       transform="translate(-0.45,-0.15)"
       width="65.199997"
       xlink:href="#shape1"
       id="use2" />
    <use
       ffdec:characterId="518"
       height="60.549999"
       transform="translate(-1.5,-1.5)"
       width="67.099998"
       xlink:href="#shape2"
       id="use3" />
  </g>
  <defs
     id="defs8">
    <g
       id="shape0">
      <path
         d="M 53.6,0 H 64.1 V 57.55 H 53.6 28.25 0 V 0 H 28.25 53.6 V 57.55 0 M 28.25,0 V 57.55 0"
         fill="#ffffff"
         fill-rule="evenodd"
         stroke="none"
         id="path3" />
    </g>
    <g
       id="shape1"
       transform="translate(0.45,0.15)">
      <path
         d="m 52.7,6 0.75,1.2 0.65,-0.55 0.1,-0.1 2.2,-1.7 3.3,-2.9 0.35,-0.4 1.7,-1.25 2.1,-0.05 L 64.5,1 q 0.65,0.8 -0.4,2.1 l -1.6,1.4 -0.4,0.35 -3.5,2.65 -2.15,1.8 -0.75,0.6 1.1,1 q 0.4,0.55 0.4,1 -0.05,0.6 -0.8,0.75 l -1.2,0.1 -3.15,0.2 -0.85,0.1 -0.85,0.25 q -0.6,0.05 -0.9,-0.3 L 49.3,12.85 49.2,12.75 Q 48.95,12.45 49.15,11.8 L 49.5,11.05 49.8,10.2 50.55,7.1 Q 50.65,6.3 50.9,6 51.2,5.3 51.85,5.35 52.3,5.5 52.7,6 M 23.3,25.2 23.25,24.65 23.1,24.5 Q 22.75,24.2 22.4,23.05 L 22.15,22.2 Q 21.8,21 21.8,20.15 l 0.15,-0.8 0.6,-0.6 0.75,-0.25 1.45,-0.1 0.6,0.05 0.5,-0.6 q 1.4,-1.45 3.9,-2.05 2.05,-0.5 4.7,0 l 0.2,-0.15 0.6,-0.75 0.7,-0.6 0.55,-0.3 q 0.5,-0.15 1,0 l 0.8,0.6 0.35,0.7 0.85,1.95 0.55,1.9 1.1,0.05 q 0.6,0.2 0.95,0.7 0.6,0.75 0.55,2.85 l -0.1,1 q 1.1,1 1.45,2.55 0.35,1.55 -0.2,2.9 l -0.55,1.05 q -1.05,1.8 -2.9,2.9 -0.95,0.55 -1.55,0.6 l -1.65,-0.15 -0.2,-0.05 0.6,1.55 q 0.6,0.15 1.05,0.45 0.75,0.5 1.2,1.45 0.5,1.15 0.3,2.55 -0.15,1.3 -0.95,2.4 l -1.1,1.1 -0.9,0.75 -1.45,0.5 -0.85,0.65 -1.85,0.2 -1.1,-0.55 -0.55,0.3 -1.7,0.4 q -0.9,0 -1.35,-0.45 l -2.1,-0.1 -0.95,-0.45 -1.35,-1 q -0.75,-0.85 -0.8,-2.2 -0.05,-0.5 0.15,-0.95 l -0.45,0.45 -0.9,0.8 q -1.55,1.1 -2.55,1.2 -1.75,0.25 -2.9,-1.1 -1.2,-1.2 -0.75,-3 0.3,-1.15 1.2,-1.6 1.05,-0.45 2,0.4 0.8,0.85 0.35,2 0.9,-0.25 1.95,-1.6 1.45,-1.7 2.4,-2.1 0.6,-0.25 1.55,-0.35 l 0.05,-0.3 0.95,-1.45 q 1.1,-1.4 1.7,-1.7 l 0.6,-0.3 -1.95,-0.75 Q 24.65,29.8 23.85,27.9 23.5,27.1 23.3,25.2 m 15.3,4.05 -2.45,1.7 0.4,0.05 q 1.25,0.25 2,0 0.6,-0.2 1.45,-1.05 L 40.95,28.8 Q 41.5,27.95 41.4,27.35 41.3,26.7 40.5,26.1 39.95,27.8 38.6,29.25 M 52.7,51.2 51.85,51.8 Q 51.2,51.9 50.9,51.2 50.65,50.85 50.55,50.1 L 49.8,47 49.5,46.15 49.15,45.4 q -0.2,-0.65 0.05,-0.95 l 0.1,-0.1 0.15,-0.15 q 0.3,-0.35 0.9,-0.3 l 0.85,0.25 0.85,0.1 3.15,0.2 1.2,0.1 q 0.75,0.15 0.8,0.75 l -0.4,1 -1.1,1 0.75,0.6 2.15,1.8 3.5,2.65 0.4,0.35 1.6,1.4 q 1.05,1.3 0.4,2.1 l -0.65,0.75 -2.1,-0.05 -1.7,-1.25 -0.35,-0.4 -3.3,-2.9 -2.2,-1.7 -0.1,-0.1 L 53.45,50 52.7,51.2 M 38.1,24.75 Q 38.7,24 38.55,22.95 38.4,22 37.6,21.45 l -0.4,-0.25 -0.95,1 -1,0.85 -1.35,0.7 q 0.1,0.65 0.6,1.15 0.5,0.55 1.15,0.7 h 0.05 l 1.85,-0.35 h 0.1 l 0.45,-0.5 m -9,2.1 Q 29.35,25.9 28.9,25.1 l -0.35,-0.05 -1.35,-0.2 -1.05,-0.2 -0.5,-0.25 -0.7,0.75 q -0.4,0.7 -0.25,1.45 0.15,0.75 0.75,1.3 0.6,0.55 1.35,0.6 h 0.35 l 0.25,-0.25 q 0.55,-0.4 1.4,-0.75 l 0.3,-0.65 M 12.1,6 Q 12.5,5.5 12.95,5.4 13.6,5.3 13.9,6 l 0.35,1.1 0.75,3.1 0.3,0.85 0.35,0.75 q 0.2,0.65 -0.05,0.95 l -0.1,0.1 -0.15,0.15 q -0.3,0.35 -0.9,0.3 L 13.6,13.05 12.75,12.95 9.6,12.75 8.4,12.65 Q 7.65,12.5 7.6,11.9 7.6,11.45 8,10.9 L 9.1,9.9 8.35,9.3 6.2,7.5 2.7,4.85 2.3,4.5 0.7,3.1 Q -0.35,1.8 0.3,1 l 0.65,-0.75 2.1,0.05 1.7,1.25 0.35,0.4 3.3,2.9 2.2,1.7 0.1,0.1 L 11.35,7.2 12.1,6 m 0,45.2 -0.75,-1.2 -0.65,0.55 -0.1,0.1 -2.2,1.7 -3.3,2.9 -0.35,0.4 -1.7,1.25 -2.1,0.05 L 0.3,56.2 Q -0.35,55.4 0.7,54.1 L 2.3,52.7 2.7,52.35 6.2,49.7 8.35,47.9 9.1,47.3 8,46.3 q -0.4,-0.55 -0.4,-1 0.05,-0.6 0.8,-0.75 l 1.2,-0.1 3.15,-0.2 0.85,-0.1 0.85,-0.25 q 0.6,-0.05 0.9,0.3 l 0.15,0.15 0.1,0.1 q 0.25,0.3 0.05,0.95 L 15.3,46.15 15,47 14.25,50.1 13.9,51.2 q -0.3,0.7 -0.95,0.65 L 12.1,51.2"
         fill="#999999"
         fill-rule="evenodd"
         stroke="none"
         id="path4" />
      <path
         d="m 29.1,26.85 -0.3,0.65 q -0.85,0.35 -1.4,0.75 L 27.15,28.5 H 26.8 q -0.75,-0.05 -1.35,-0.6 -0.6,-0.55 -0.75,-1.3 -0.15,-0.75 0.25,-1.45 l 0.7,-0.75 0.5,0.25 1.05,0.2 1.35,0.2 0.35,0.05 q 0.45,0.8 0.2,1.75 m 9,-2.1 -0.45,0.5 h -0.1 L 35.7,25.6 H 35.65 Q 35,25.45 34.5,24.9 34,24.4 33.9,23.75 l 1.35,-0.7 1,-0.85 0.95,-1 0.4,0.25 q 0.8,0.55 0.95,1.5 0.15,1.05 -0.45,1.8"
         fill="#ffffff"
         fill-rule="evenodd"
         stroke="none"
         id="path5" />
      <path
         d="m 48.45,20.2 0.05,0.25 q 0.35,1.3 1.65,1.45 1.3,0.1 1.95,-1 l 0.25,-0.85 q 0.1,-1.3 -1.05,-1.9 l -0.75,-0.2 Q 51.1,17.5 51.8,17.2 l 1.5,-0.4 q 1.45,-0.15 2.7,0.85 l 0.35,0.3 0.1,-0.1 0.45,-0.2 0.75,-0.1 1.2,0.1 q 0.55,0.05 1.05,0.5 l 0.5,0.8 q 0.55,0.8 0.6,1.55 0.05,0.9 -0.5,1.8 -0.6,0.95 -1.55,1.15 l -0.45,0.05 -0.6,1.95 -0.65,1.05 0.75,1.45 0.45,1.15 0.15,1.7 2.35,-0.05 1.95,0.05 0.7,0.05 0.6,-0.05 q 0.45,0 0.45,0.35 l -0.2,0.35 -0.45,0.15 -5.1,0.9 -1.1,0.35 -1.05,0.75 -1.95,0.3 -2.65,-0.4 q -1.4,-0.5 -2.2,-1.5 L 49.4,31.1 q -0.65,-1.45 -0.35,-2.9 0.1,-0.5 0.55,-1.35 -1.3,-1.1 -1.7,-2.65 -0.5,-2.1 0.55,-4 m 9,1.55 Q 56.35,20.9 55.2,21.55 54,22.25 54.15,23.6 54.4,25 55.7,25.25 L 57,25.1 57.95,24.2 58.1,22.9 q -0.15,-0.75 -0.65,-1.15 m -5.45,2.8 0.2,0.2 0.45,0.4 0.5,-0.15 -0.15,-0.7 -0.3,-0.4 0.5,-1 -0.15,-0.3 -0.4,-0.05 q -0.15,0 -0.35,0.2 L 52.05,23 52,23.1 51.55,22.95 51,22.8 q -0.4,0 -0.65,0.3 -0.25,0.4 0,0.75 l 0.6,0.4 0.7,0.15 0.35,0.15 M 27.3,8.45 26.3,8.35 Q 25.1,8.05 24.45,6.8 L 24.15,6.15 V 4.9 Q 24.25,3.85 24.5,3.4 L 25.05,2.65 25.55,2.2 Q 25.7,2.05 26.2,1.8 l 1.9,-0.25 q 0.95,0.15 1.5,0.85 l 0.3,-0.2 0.9,-0.45 2.05,-0.3 H 33.2 L 33.65,0.8 Q 34.2,0.25 35,0.15 l 1.5,0.1 0.6,0.15 0.55,0.25 0.3,0.25 q 0.9,0.7 1,1.85 0.15,1.15 -0.6,2.05 l -0.3,0.3 0.1,1.6 q -0.1,1.5 -1.05,2.8 -0.9,1.3 -2.3,1.95 l -2.95,0.45 q -1.55,-0.15 -2.8,-1.05 -1.1,-0.75 -1.5,-1.8 L 27.5,8.9 27.6,9.05 q 0.75,1 1.95,0.75 L 30.65,9.15 31.15,8 Q 31.2,7.35 30.8,6.8 L 29.85,6 28.6,5.95 q -0.65,0.2 -1.05,0.7 -0.4,0.55 -0.35,1.2 l 0.1,0.6 m 4.85,1.9 0.6,-0.25 0.55,-0.25 0.6,-0.15 h 1.15 L 35.5,9.25 V 8.65 Q 35.35,7.95 34.55,8.05 L 34,8.25 Q 33.8,7.9 33.45,7.9 33.3,7.65 33.05,7.65 l -0.1,0.05 q -0.2,0 -0.2,0.35 l 0.05,0.2 -0.05,0.15 0.05,0.4 0.05,0.1 -0.55,0.4 -0.4,0.5 q -0.1,0.45 0.25,0.55 m 2,-3.7 Q 35,7.25 35.8,7.1 36.75,7 37.3,6.3 L 37.8,5.05 Q 37.85,4.35 37.5,3.8 L 36.55,2.9 35.3,2.7 Q 33.8,2.85 33.4,4.3 33,5.7 34.15,6.65 m -16,19.35 -0.25,0.6 -0.6,1.25 q -0.75,1.05 -2.05,1.7 l -0.2,0.1 -0.2,0.7 Q 13.9,32.9 11.1,34.3 L 8.6,35 Q 7,35.15 5.6,34.5 L 4.15,33.6 H 3.7 2.8 L 1.7,33.75 H 0.35 l -0.8,0.15 V 32.35 L 0,32.25 2.7,31.65 2.55,31.2 Q 2.2,29.85 3,28.55 3.6,27.4 4.9,26.65 6.15,25.9 7.3,25.7 7.15,24.7 7.5,23.6 L 7.6,23.35 6.9,22.55 6.5,21.75 Q 6.3,20.9 6.7,19.95 7.1,18.65 7.95,18.2 l 0.7,-0.25 2.7,-0.3 1.35,0.35 0.65,0.4 0.35,0.35 q 1.7,0 2.8,0.65 1.65,1.1 1.95,3.05 L 18.3,22.35 16,22.3 q -0.55,0.4 -0.85,1.1 -0.2,0.8 0,1.4 0.25,0.65 0.9,1.1 l 1.3,0.35 0.8,-0.25 M 15.2,26.95 Q 15,26.7 14.35,26.7 L 14.4,26.4 14.35,25.35 14,25.05 q -0.25,-0.1 -0.45,0.15 l -0.35,0.85 v 0.3 l -0.1,0.25 -0.05,0.1 -0.25,-0.05 -0.5,0.2 Q 12,27.1 12,27.4 l 0.3,0.5 1,-0.1 h 0.85 L 15,27.7 15.3,27.5 q 0.15,-0.25 -0.1,-0.55 m -6.7,-1.55 1.05,0.7 1.3,-0.05 q 0.55,-0.2 0.95,-0.75 0.35,-0.65 0.3,-1.3 0,-0.7 -0.45,-1.15 -0.55,-0.55 -1.15,-0.6 -1,-0.2 -1.8,0.45 -0.5,0.5 -0.55,1.3 -0.1,0.8 0.35,1.4 m 18.2,17.35 q 1.15,-0.95 2.75,-1.5 1.05,-0.45 2.15,-0.6 2.95,-0.25 5.05,2.1 1.1,1.2 1.45,2.6 l 0.7,0.85 q 0.5,1.15 0.35,2.25 L 39,49.1 38.8,49.6 q -0.6,1.3 -2.2,1.6 L 35.8,52 q 0.85,1.3 0.85,2.9 0,1.55 -0.8,2.75 H 25.2 l -0.3,-0.6 Q 24.7,56.4 24.85,55.75 24.9,54.9 25.45,54 l 1.6,-1.95 -0.4,-0.25 -2.35,0.3 q -1.4,-0.35 -2,-1.25 L 21.9,50.1 21.7,49.35 q -0.25,-1.2 0.65,-2.75 l 0.4,-0.5 0.45,-0.35 q 1.25,-0.9 2.05,-1.25 0.5,-1 1.45,-1.75"
         fill="#000000"
         fill-rule="evenodd"
         stroke="none"
         id="path6" />
      <path
         d="m 50.55,17.95 0.75,0.2 q 1.15,0.6 1.05,1.9 L 52.1,20.9 q -0.65,1.1 -1.95,1 -1.3,-0.15 -1.65,-1.45 L 48.45,20.2 q -0.1,-0.4 0.05,-0.85 0.15,-0.6 0.6,-0.95 0.7,-0.55 1.45,-0.45 m 1.45,6.6 -0.35,-0.15 -0.7,-0.15 -0.6,-0.4 Q 50.1,23.5 50.35,23.1 50.6,22.8 51,22.8 L 51.55,22.95 52,23.1 52.05,23 52.3,22.75 q 0.2,-0.2 0.35,-0.2 l 0.4,0.05 0.15,0.3 -0.5,1 0.3,0.4 0.15,0.7 -0.5,0.15 -0.45,-0.4 -0.2,-0.2 m 5.45,-2.8 q 0.5,0.4 0.65,1.15 L 57.95,24.2 57,25.1 55.7,25.25 Q 54.4,25 54.15,23.6 54,22.25 55.2,21.55 q 1.15,-0.65 2.25,0.2 M 27.5,8.9 27.3,8.45 27.2,7.85 q -0.05,-0.65 0.35,-1.2 0.4,-0.5 1.05,-0.7 L 29.85,6 30.8,6.8 q 0.4,0.55 0.35,1.2 l -0.5,1.15 -1.1,0.65 Q 28.35,10.05 27.6,9.05 L 27.5,8.9 M 34.15,6.65 Q 33,5.7 33.4,4.3 33.8,2.85 35.3,2.7 l 1.25,0.2 0.95,0.9 q 0.35,0.55 0.3,1.25 L 37.3,6.3 Q 36.75,7 35.8,7.1 35,7.25 34.15,6.65 m -2,3.7 Q 31.8,10.25 31.9,9.8 L 32.3,9.3 32.85,8.9 32.8,8.8 32.75,8.4 32.8,8.25 32.75,8.05 q 0,-0.35 0.2,-0.35 l 0.1,-0.05 q 0.25,0 0.4,0.25 0.35,0 0.55,0.35 l 0.55,-0.2 q 0.8,-0.1 0.95,0.6 v 0.6 L 35.05,9.7 H 33.9 l -0.6,0.15 -0.55,0.25 -0.6,0.25 m -13.7,12.1 0.6,0.9 q 0.3,0.55 0.2,1.15 -0.15,0.7 -0.7,1.15 l -0.4,0.35 -0.8,0.25 -1.3,-0.35 q -0.65,-0.45 -0.9,-1.1 -0.2,-0.6 0,-1.4 0.3,-0.7 0.85,-1.1 l 2.3,0.05 0.15,0.1 M 8.5,25.4 Q 8.05,24.8 8.15,24 8.2,23.2 8.7,22.7 q 0.8,-0.65 1.8,-0.45 0.6,0.05 1.15,0.6 0.45,0.45 0.45,1.15 0.05,0.65 -0.3,1.3 -0.4,0.55 -0.95,0.75 L 9.55,26.1 8.5,25.4 m 6.7,1.55 q 0.25,0.3 0.1,0.55 L 15,27.7 14.15,27.8 H 13.3 l -1,0.1 -0.3,-0.5 q 0,-0.3 0.3,-0.55 l 0.5,-0.2 0.25,0.05 0.05,-0.1 0.1,-0.25 v -0.3 l 0.35,-0.85 q 0.2,-0.25 0.45,-0.15 l 0.35,0.3 0.05,1.05 -0.05,0.3 q 0.65,0 0.85,0.25"
         fill="#ffffff"
         fill-rule="evenodd"
         stroke="none"
         id="path7" />
    </g>
    <g
       id="shape2"
       transform="translate(1.5,1.5)">
      <path
         d="M 0,23.8 V 0 H 64.1 V 23.8 57.55 H 0 Z"
         fill="none"
         stroke="#000000"
         stroke-linecap="round"
         stroke-linejoin="round"
         stroke-width="3"
         id="path8" />
    </g>
  </defs>
</svg>
