<?xml version="1.0" encoding="UTF-8" standalone="no"?>
<svg
   ffdec:objectType="frame"
   height="60.549999"
   width="67.099998"
   version="1.1"
   id="svg8"
   sodipodi:docname="205.svg"
   xmlns:inkscape="http://www.inkscape.org/namespaces/inkscape"
   xmlns:sodipodi="http://sodipodi.sourceforge.net/DTD/sodipodi-0.dtd"
   xmlns:xlink="http://www.w3.org/1999/xlink"
   xmlns="http://www.w3.org/2000/svg"
   xmlns:svg="http://www.w3.org/2000/svg"
   xmlns:ffdec="https://www.free-decompiler.com/flash">
  <sodipodi:namedview
     id="namedview8"
     pagecolor="#ffffff"
     bordercolor="#000000"
     borderopacity="0.25"
     inkscape:showpageshadow="2"
     inkscape:pageopacity="0.0"
     inkscape:pagecheckerboard="0"
     inkscape:deskcolor="#d1d1d1"
     fit-margin-top="5"
     fit-margin-left="5"
     fit-margin-right="5"
     fit-margin-bottom="5" />
  <g
     transform="translate(1.5,1.5)"
     id="g3">
    <use
       ffdec:characterId="516"
       height="57.549999"
       width="64.099998"
       xlink:href="#shape0"
       id="use1" />
    <use
       ffdec:characterId="713"
       height="53.849998"
       transform="translate(2.8,1.85)"
       width="58.75"
       xlink:href="#shape1"
       id="use2" />
    <use
       ffdec:characterId="518"
       height="60.549999"
       transform="translate(-1.5,-1.5)"
       width="67.099998"
       xlink:href="#shape2"
       id="use3" />
  </g>
  <defs
     id="defs8">
    <g
       id="shape0">
      <path
         d="M 53.6,0 H 64.1 V 57.55 H 53.6 28.25 0 V 0 H 28.25 53.6 V 57.55 0 M 28.25,0 V 57.55 0"
         fill="#ffffff"
         fill-rule="evenodd"
         stroke="none"
         id="path3" />
    </g>
    <g
       id="shape1"
       transform="translate(-2.8,-1.85)">
      <path
         d="m 49.7,10.45 q 2.45,-0.25 4.7,0.55 1.35,0.5 2.4,1.3 l 1.55,-0.55 1.75,-0.3 q 0.55,0.1 1,0.6 l 0.45,1 -0.05,0.8 -0.1,0.9 -0.4,2.45 -0.65,2.1 0.1,1.95 -0.2,2.85 q -0.8,4.2 -4,6.25 1.6,2.55 2.75,5.4 0.55,1.6 0.45,2.25 -0.1,1.6 -1.55,2.25 -1.45,0.6 -2.7,-0.4 Q 54.5,39.2 54,37.5 l -0.9,-3.8 -0.85,-2 -1.65,0.2 -3.45,-0.2 0.35,0.5 1.15,2.3 q 1.35,2.9 1.55,5.05 l 0.15,1.25 0.4,1.35 q 0.25,1.05 -0.4,2.05 -0.65,1 -1.7,1.2 -1.1,0.2 -2.1,-0.4 -1,-0.6 -1.3,-1.6 -0.2,-0.65 -0.15,-1.6 l 0.15,-1.65 -0.2,-2.15 -0.5,-2.05 q -0.7,-2 -3.15,-5.6 l -1.3,-1.5 -0.25,-0.15 -0.45,0.5 -1.85,2.4 q -0.75,1.35 -1.1,3.5 L 36,37.65 q -0.55,1.45 -1.75,1.75 l -1.2,-0.15 q -0.65,0.5 -1.6,0.6 -1.6,0.1 -2.5,-1.2 -0.5,-0.7 -0.55,-2 -0.45,-0.15 -0.9,-0.5 -0.75,-0.6 -1.05,-1.65 l -0.3,0.4 -0.75,1.5 -0.2,1.45 v 1 l 0.4,0.65 1.35,1.6 1.35,2.1 q 0.55,1.45 -0.2,2.4 -0.45,0.6 -1.25,0.8 l -1.6,-0.1 q -1.2,-0.45 -2.4,-1.8 l -0.7,-0.3 Q 21.1,43.65 20.55,42.75 L 20.05,41.5 Q 19.5,39.8 19.9,38.05 l 0.25,-0.9 0.2,-0.45 q 0.2,-0.9 0.5,-1.5 l 1.5,-2.3 q 0.7,-0.9 1.35,-1.4 1.15,-1 2.3,-0.85 l 0.55,0.2 q 0.65,-2.95 2.25,-5.4 1.7,-2.65 4.2,-4.2 1.7,-1.1 3.8,-1.65 l 3,-0.4 Q 40,18.05 40.55,17 l -0.4,-3.4 0.1,-3 q 0,-0.55 0.15,-1 0.45,-1.1 1.75,-1.1 l 0.9,0.15 Q 46.25,9.6 48,10.8 l 1.7,-0.35 M 47.25,28.7 q 0.95,0.6 2.3,0.7 l 0.85,-0.15 1.15,-0.85 0.05,0.1 q 0.8,0.6 2.75,0.5 l 0.9,-0.2 0.65,-0.45 0.45,-0.3 q 0.1,-0.35 -0.5,-0.35 l -1.25,0.25 q -0.8,0.2 -1.25,-0.25 l -0.6,-0.75 q -0.5,-0.5 -1.05,-0.2 h -0.1 q -0.4,0.05 -0.85,0.4 l -0.8,0.65 -2.2,0.05 q -0.5,-0.4 -0.75,-0.35 -0.45,0.2 -0.25,0.65 l 0.5,0.55 M 59.3,21.45 59.1,21.2 58.65,21.65 q -1.2,1.2 -2.25,1.7 L 55,23.8 53.95,24 q 0.05,0.65 0.6,1.25 0.6,0.8 1.65,1.05 l 1.3,0.05 0.4,-0.15 q 1.4,-0.45 1.9,-2 0.4,-1.6 -0.5,-2.75 m -15.1,-0.7 q -1.15,1.25 -0.85,2.9 0.35,1.7 1.85,2.35 l 3.05,-0.05 0.75,-0.6 0.6,-0.95 0.1,-0.05 0.25,-0.7 L 48,23.1 46.75,22.7 45.8,21.95 l -0.6,-0.9 -0.4,-0.8 -0.6,0.5 M 12.4,53.1 11.85,53.35 11.25,53.1 10.1,52.6 Q 9.35,52.05 8.9,51 8,49.25 7.8,47.45 l -0.2,-1.9 q 0,-2.35 0.3,-3.5 0.4,-1.45 1.6,-3.25 l -0.25,-0.15 -0.7,-0.5 q -0.25,-0.35 -0.25,-1 0,-0.3 0.15,-0.55 0.15,-0.3 0.9,-0.65 l 4.1,-1.65 q 0.5,-0.25 0.9,-0.25 0.9,0.1 1.15,0.95 l 0.1,1.25 -0.1,0.7 -0.15,0.5 -0.05,2.6 q 0,0.95 -0.35,1.3 l -1.1,0.3 -1.05,-0.45 -0.55,-0.3 q -0.8,1.15 -1.35,2.4 l -0.4,1.05 v 4.85 l 0.4,1.1 q 0.75,1.55 1.2,2.1 0.4,0.4 0.3,0.7"
         fill="#999999"
         fill-rule="evenodd"
         stroke="none"
         id="path4" />
      <path
         d="m 44.2,20.75 0.6,-0.5 0.4,0.8 0.6,0.9 0.95,0.75 1.25,0.4 1.95,0.55 -0.25,0.7 -0.1,0.05 -0.6,0.95 -0.75,0.6 L 45.2,26 Q 43.7,25.35 43.35,23.65 43.05,22 44.2,20.75 m 15.1,0.7 q 0.9,1.15 0.5,2.75 -0.5,1.55 -1.9,2 L 57.5,26.35 56.2,26.3 Q 55.15,26.05 54.55,25.25 54,24.65 53.95,24 L 55,23.8 56.4,23.35 q 1.05,-0.5 2.25,-1.7 l 0.45,-0.45 0.2,0.25 M 47.25,28.7 46.75,28.15 Q 46.55,27.7 47,27.5 q 0.25,-0.05 0.75,0.35 l 2.2,-0.05 0.8,-0.65 q 0.45,-0.35 0.85,-0.4 h 0.1 q 0.55,-0.3 1.05,0.2 l 0.6,0.75 q 0.45,0.45 1.25,0.25 l 1.25,-0.25 q 0.6,0 0.5,0.35 l -0.45,0.3 -0.65,0.45 -0.9,0.2 Q 52.4,29.1 51.6,28.5 l -0.05,-0.1 -1.15,0.85 -0.85,0.15 q -1.35,-0.1 -2.3,-0.7"
         fill="#ffffff"
         fill-rule="evenodd"
         stroke="none"
         id="path5" />
      <path
         d="m 48.2,34.3 q 0.15,-0.35 0.55,-0.25 l 0.6,0.25 1.15,0.5 q 0.75,0.55 1.2,1.6 0.9,1.75 1.1,3.55 l 0.2,1.9 -0.3,3.5 q -0.4,1.45 -1.6,3.25 l 0.25,0.15 0.7,0.5 0.25,1 -0.15,0.55 q -0.15,0.3 -0.9,0.65 l -4.1,1.65 -0.9,0.25 q -0.9,-0.1 -1.15,-0.95 l -0.1,-1.25 0.1,-0.7 0.15,-0.5 0.05,-2.6 q 0,-0.95 0.35,-1.3 0.4,-0.4 1.1,-0.3 0.35,0.05 1.05,0.45 l 0.55,0.3 1.35,-2.4 0.4,-1.05 V 38.2 L 49.7,37.1 48.5,35 Q 48.1,34.6 48.2,34.3 M 19.4,7.15 Q 21.7,6.3 22.65,6.35 L 23.6,6.1 27,3.3 q 1.25,-1 1.8,-1.2 l 2.15,0.05 q 0.8,0.4 1.2,1.7 l 1.85,5.2 0.4,1.55 0.35,0.3 q 2.85,2.75 3.25,7.2 0.35,3.65 -1.2,7.9 -0.95,2.5 -2.15,4.2 l 2.45,3.8 2.65,5.4 0.7,0.05 1.3,0.3 q 1.3,0.65 1.7,2 0.3,0.85 0.15,2.3 -0.25,2.15 -0.95,3.45 l -0.7,1.15 -0.35,0.6 -0.15,0.35 0.25,0.55 0.45,1.65 Q 42.4,53 41.6,53.95 L 40.85,54.6 40.2,54.85 38.25,55 37.15,54.6 36.4,54.15 36.2,54.2 29.8,54.8 26.4,54.35 q -0.55,0.5 -1.7,0.85 l -1.25,0.4 -0.6,0.1 L 21.9,55.65 20.95,55.4 Q 19.85,54.9 19.45,53.7 19.1,52.4 20,51.5 l 0.25,-0.15 -0.45,-0.4 q -1.25,-1.25 -2.05,-3.7 l -0.2,-0.85 -1.45,1.05 q -1.55,1 -3.5,1.65 L 7.2,49.35 Q 5.65,48.85 4.5,47.65 3.4,46.45 3,44.9 2.4,42.75 3.45,41.1 q 0.5,-0.9 1.35,-1.4 0.85,-0.5 1.85,-0.4 1,0.1 1.75,0.8 0.8,0.8 0.75,1.75 l -0.1,1.3 q -0.15,0.8 0.15,1.2 0.45,0.65 1.25,0.75 l 1.45,-0.3 2.1,-1.15 1.9,-1.4 q 2.5,-1.65 4.95,-1.65 l 0.35,0.05 0.6,-4.9 -0.4,-0.1 L 18.55,35 Q 14.75,33.7 11.85,29.75 11.1,28.7 10.65,27.7 L 9.85,26.75 8.65,25.15 7.25,23.9 6.3,22.6 5.3,21.25 q -0.8,-0.95 -0.9,-1.4 -0.2,-0.95 1,-2 l 3.8,-2.8 Q 10.55,14.15 11.65,13.7 12.4,12.05 14.7,10.05 17,8 19.4,7.15 m -8.4,18.2 0.35,0.8 q 0.75,1.6 2.3,2.2 2.05,0.7 4.1,-0.75 l 1.1,-1.25 Q 19.5,25.5 19.6,24.4 19.7,23.3 19.2,22.3 18.35,20.2 16,19.85 q -1.6,-0.3 -2.8,0.6 l -1.1,1.15 -1,1.75 q -0.3,1 -0.1,2 m 10,2.45 q 0.55,0.7 1.75,0.85 l 1.1,-0.1 q 1.05,-0.3 1.6,-1.7 l 0.1,-0.3 h 0.9 q 1.35,-0.15 1.95,-1.3 0.25,-0.7 0.15,-1.6 l -0.3,-0.75 -0.6,-0.05 v 0.65 q 0.1,0.55 -0.3,1 -0.45,0.4 -1.05,0.2 l -0.5,-0.35 -0.75,-0.4 -0.4,-0.25 -0.8,0.1 q -0.45,0.25 -0.5,0.7 v 0.1 l -0.1,0.45 0.3,0.6 0.05,0.75 -0.55,0.45 -0.85,-0.1 -0.35,-0.3 -0.1,-0.45 q -0.2,-0.35 -0.6,-0.2 l -0.4,0.6 Q 20.5,27.2 21,27.8 M 32.95,14.35 32.3,13 31.4,12 q -0.35,-0.3 -0.9,-0.45 -2.05,-0.7 -3.95,0.25 -2,1 -2.5,3.1 l -0.15,1.05 q -0.05,0.7 0.15,1.15 l 0.6,1.05 1,1.1 q 1,0.85 2.35,0.85 l 2.15,-0.35 q 1.85,-0.8 2.45,-2.1 0.35,-0.8 0.35,-2.25 v -1.05"
         fill="#000000"
         fill-rule="evenodd"
         stroke="none"
         id="path6" />
      <path
         d="m 32.95,14.35 v 1.05 q 0,1.45 -0.35,2.25 -0.6,1.3 -2.45,2.1 L 28,20.1 q -1.35,0 -2.35,-0.85 l -1,-1.1 -0.6,-1.05 q -0.2,-0.45 -0.15,-1.15 l 0.15,-1.05 q 0.5,-2.1 2.5,-3.1 1.9,-0.95 3.95,-0.25 0.55,0.15 0.9,0.45 l 0.9,1 0.65,1.35 M 21,27.8 q -0.5,-0.6 -0.25,-1.4 l 0.4,-0.6 q 0.4,-0.15 0.6,0.2 l 0.1,0.45 0.35,0.3 0.85,0.1 0.55,-0.45 -0.05,-0.75 -0.3,-0.6 0.1,-0.45 v -0.1 q 0.05,-0.45 0.5,-0.7 l 0.8,-0.1 0.4,0.25 0.75,0.4 0.5,0.35 q 0.6,0.2 1.05,-0.2 0.4,-0.45 0.3,-1 v -0.65 l 0.6,0.05 0.3,0.75 q 0.1,0.9 -0.15,1.6 -0.6,1.15 -1.95,1.3 h -0.9 l -0.1,0.3 q -0.55,1.4 -1.6,1.7 l -1.1,0.1 Q 21.55,28.5 21,27.8 M 11,25.35 q -0.2,-1 0.1,-2 l 1,-1.75 1.1,-1.15 q 1.2,-0.9 2.8,-0.6 2.35,0.35 3.2,2.45 0.5,1 0.4,2.1 -0.1,1.1 -0.75,1.95 l -1.1,1.25 q -2.05,1.45 -4.1,0.75 -1.55,-0.6 -2.3,-2.2 L 11,25.35"
         fill="#ffffff"
         fill-rule="evenodd"
         stroke="none"
         id="path7" />
    </g>
    <g
       id="shape2"
       transform="translate(1.5,1.5)">
      <path
         d="M 0,23.8 V 0 H 64.1 V 23.8 57.55 H 0 Z"
         fill="none"
         stroke="#000000"
         stroke-linecap="round"
         stroke-linejoin="round"
         stroke-width="3"
         id="path8" />
    </g>
  </defs>
</svg>
