<?xml version="1.0" encoding="UTF-8" standalone="no"?>
<svg
   ffdec:objectType="frame"
   height="60.549999"
   width="67.099998"
   version="1.1"
   id="svg7"
   sodipodi:docname="534.svg"
   xmlns:inkscape="http://www.inkscape.org/namespaces/inkscape"
   xmlns:sodipodi="http://sodipodi.sourceforge.net/DTD/sodipodi-0.dtd"
   xmlns:xlink="http://www.w3.org/1999/xlink"
   xmlns="http://www.w3.org/2000/svg"
   xmlns:svg="http://www.w3.org/2000/svg"
   xmlns:ffdec="https://www.free-decompiler.com/flash">
  <sodipodi:namedview
     id="namedview7"
     pagecolor="#ffffff"
     bordercolor="#000000"
     borderopacity="0.25"
     inkscape:showpageshadow="2"
     inkscape:pageopacity="0.0"
     inkscape:pagecheckerboard="0"
     inkscape:deskcolor="#d1d1d1"
     fit-margin-top="5"
     fit-margin-left="5"
     fit-margin-right="5"
     fit-margin-bottom="5" />
  <g
     transform="translate(1.5,1.5)"
     id="g3">
    <use
       ffdec:characterId="516"
       height="57.549999"
       width="64.099998"
       xlink:href="#shape0"
       id="use1" />
    <use
       ffdec:characterId="1030"
       height="58.549999"
       transform="translate(0,-0.7)"
       width="59.400002"
       xlink:href="#shape1"
       id="use2" />
    <use
       ffdec:characterId="518"
       height="60.549999"
       transform="translate(-1.5,-1.5)"
       width="67.099998"
       xlink:href="#shape2"
       id="use3" />
  </g>
  <defs
     id="defs7">
    <g
       id="shape0">
      <path
         d="M 53.6,0 H 64.1 V 57.55 H 53.6 28.25 0 V 0 H 28.25 53.6 V 57.55 0 M 28.25,0 V 57.55 0"
         fill="#ffffff"
         fill-rule="evenodd"
         stroke="none"
         id="path3" />
    </g>
    <g
       id="shape1"
       transform="translate(0,0.7)">
      <path
         d="m 56.05,-0.7 q 1.8,0.5 0.7,2.05 l -1.7,1.9 -2.95,2.9 -5.45,5.95 -5.45,6 -5.9,5.5 -0.4,0.2 -0.1,0.15 -0.05,0.1 -0.1,0.15 -0.25,-0.05 -0.15,-0.1 v -0.1 -0.1 -0.1 l 4.65,-5.9 4.6,-5.7 q 1.85,-2.45 4,-4.6 l 5.3,-5.8 Q 54.2,0.1 56.05,-0.7 m -1.2,13.4 q 2.1,0.55 1.2,2.5 -0.7,1.5 -1.95,2.7 l -6.05,5.4 -6.1,5.35 -6.15,5.2 -0.2,0.15 -0.15,0.2 -0.25,0.15 -0.1,0.05 -1.4,1.15 -0.55,0.3 -1.45,1.05 -0.45,0.35 -0.2,0.15 -0.1,0.05 h -0.2 L 30.7,37.4 v -0.05 -0.1 -0.05 l 0.05,-0.05 V 37.1 L 30.8,37 h 0.05 L 30.9,36.95 31,36.9 q 2.65,-3.15 5.6,-6.15 l 3.1,-3.25 5.1,-5.25 4.85,-5.5 q 2,-2.45 4.7,-3.9 l 0.5,-0.15 m 2.5,7.45 q 2.15,0.25 2.05,2.2 0,0.8 -0.7,1.15 -1.2,0.65 -1.95,-0.45 -3.5,0.95 -6.55,3.15 -2.1,1.55 -4.4,2.85 L 45.05,29.5 Q 44.65,29.7 44.3,30 L 44.2,29.9 44.15,29.85 44.1,29.8 v -0.05 q 2.35,-2.8 5.25,-5.2 l 4.35,-3.1 q 1.7,-1.1 3.65,-1.3 M 42.9,34.1 q 4.55,0.5 5.95,4.7 L 49,39.9 q -0.05,2.7 -2.7,3.15 -0.7,0.1 -1.3,-0.35 -1.4,-1.1 -0.75,-2.8 -0.8,-2.2 -3.35,-1.6 -2.6,0.6 -4.85,2.1 -4.3,2.95 -8.5,5.95 l -1.3,0.85 -4.35,3.1 -1.7,1.25 -1.35,0.95 -1.2,0.85 L 17.5,53.4 17.4,53.35 17.3,53.3 17.25,53.25 V 53.2 L 17.2,53.15 17.25,53 v -0.05 l 0.2,-0.25 0.4,-0.35 v -0.1 l 0.1,-0.05 0.1,-0.05 Q 20.6,49.45 23.45,47 L 30,41.05 q 3.35,-3.1 7.3,-5.4 2.6,-1.5 5.6,-1.55 M 30.2,5.6 q 2.05,0.15 1.7,2.15 L 31.3,9.8 q -0.8,2 -1.95,3.8 l -1.4,2.35 -1.05,1.1 v 0.05 l -0.05,0.05 -0.05,0.15 -0.05,0.1 -0.05,0.05 -0.1,0.05 -0.1,-0.05 -0.05,-0.1 -0.05,-0.1 V 16.8 q -0.05,-0.6 0.3,-1.05 L 28.4,11.5 29.25,9.35 Q 27.85,8.1 28.85,6.5 29.35,5.7 30.2,5.6 m 9.1,-0.45 q 2.2,0.45 1.45,2.5 l -0.65,1.1 -5.45,5.95 -5.4,6 -4,4.45 -1.45,1.2 -0.55,0.55 H 23.1 23.05 L 23,26.8 v -0.1 l 0.05,-0.05 V 26.6 l 4.05,-6.1 4.15,-5.9 4.4,-6.05 Q 36.95,6.8 38.6,5.4 38.75,5.2 39.05,5.2 L 39.3,5.15 M 15.1,15.8 q 4.15,-0.05 6,3.6 0.85,1.55 0.6,3.4 -0.5,4.1 -3.1,7.3 l -5.25,6.25 -5.5,5.9 Q 5.7,44.35 3.4,46.1 H 3.25 L 3.15,46 q 1.25,-2.35 3,-4.55 L 12,33.65 16.25,27.3 q 1.75,-2.75 1.5,-6 L 17.6,20.85 17.3,20.6 16.15,20.1 h -0.4 q -1.65,2 -3.55,0.15 -0.7,-0.7 -0.5,-1.65 0.4,-1.55 1.85,-2.3 0.75,-0.4 1.55,-0.5 M 5.9,27.9 q 2.3,0.15 2.2,2.35 -0.15,4.1 -2.55,7.55 l -1.9,2.85 -1.8,2.45 -0.5,0.35 v 0.05 l -0.1,0.05 V 43.6 H 1.15 1 L 0.9,43.5 V 43.45 L 0.85,43.35 0.8,43.25 0.85,43.2 V 43.15 L 0.9,43.05 V 42.95 42.8 Q 2.6,39.55 3.6,36 L 4.35,32.95 4.45,31.9 Q 3.2,30.55 4.2,28.95 q 0.6,-1 1.7,-1.05 m 25.2,19.5 q 2.7,0.35 2.7,3.05 0,0.8 -0.65,1.3 -1.6,1.15 -2.9,-0.3 -4.2,1.15 -8.05,3.5 -2.6,1.65 -5.4,2.9 L 16.65,57.8 16.6,57.75 16.55,57.7 v -0.15 -0.1 l 0.2,-0.2 0.15,-0.05 q 3.05,-3.1 6.65,-5.7 l 2.95,-2.15 q 2.1,-1.5 4.6,-1.95"
         fill="#999999"
         fill-rule="evenodd"
         stroke="none"
         id="path4" />
      <path
         d="m 52.2,12.65 0.05,0.3 q 0.45,0.8 0.2,2 -0.45,2.1 -2.55,2.1 L 49.25,16.7 48.85,16.15 48,16 47.85,16.15 Q 47,17 45.8,16.6 q -1.35,-0.55 -1.1,-1.95 0.2,-1.1 1,-1.55 0,-0.65 0.35,-1.3 -1.75,0.8 -3.25,-0.6 L 42.4,10.65 42.35,10.7 H 42.3 l -0.2,0.2 -2.95,2.95 -1.25,1.45 -0.45,0.35 -0.35,0.1 -0.2,-0.05 -0.05,-0.05 v -0.1 -0.05 l 0.05,-0.1 v -0.05 -0.1 -0.05 -0.1 -0.05 l 0.1,-0.1 0.05,-0.05 0.05,-0.05 3.65,-5.3 1.2,-1.4 L 42.3,7.9 V 7.85 h 0.05 q 0.7,-1.7 2.85,-2.05 3.15,-0.35 4.6,2.25 0.5,1 0.15,2.05 1.85,0.45 2.25,2.55 m -5.1,-0.3 q -0.45,0 -0.7,0.4 -0.7,0.95 0.4,1.45 0.6,0.3 0.95,-0.25 0.75,-1.2 -0.65,-1.6 m 3.4,-0.4 q -0.85,0.05 -1.1,0.85 -0.35,1.25 0.9,1.55 0.7,0.2 1.05,-0.4 1,-1.55 -0.85,-2 M 3.75,57.1 Q 3.05,57.7 2.2,57.5 0.05,57.1 0.1,55 l 0.2,-0.95 q -0.5,-0.65 -0.1,-1.7 0.3,-0.85 1,-1.5 l 3.6,-3.45 5.65,-5.65 2.5,-2.45 0.35,-0.45 1.6,-1.95 q -1,-1 -1.2,-2.55 l -0.1,-1 q -0.35,-4.1 1.55,-7.8 1.75,-3.3 5.5,-3.75 3.35,-0.2 5.95,1.55 1.5,0.6 2.3,2.1 l 0.45,0.85 q 1.7,3.5 0.9,7.35 l -0.05,0.3 q -0.25,2.9 -2.05,5.35 -1.8,2.4 -4.1,4.3 L 19.4,47.2 13.75,51.4 7.9,55.65 5,57.6 4.4,57.55 4.05,56.9 3.75,57.1"
         fill="#000000"
         fill-rule="evenodd"
         stroke="none"
         id="path5" />
      <path
         d="m 50.5,11.95 q 1.85,0.45 0.85,2 -0.35,0.6 -1.05,0.4 -1.25,-0.3 -0.9,-1.55 0.25,-0.8 1.1,-0.85 m -3.4,0.4 q 1.4,0.4 0.65,1.6 -0.35,0.55 -0.95,0.25 -1.1,-0.5 -0.4,-1.45 0.25,-0.4 0.7,-0.4"
         fill="#ffffff"
         fill-rule="evenodd"
         stroke="none"
         id="path6" />
    </g>
    <g
       id="shape2"
       transform="translate(1.5,1.5)">
      <path
         d="M 0,23.8 V 0 H 64.1 V 23.8 57.55 H 0 Z"
         fill="none"
         stroke="#000000"
         stroke-linecap="round"
         stroke-linejoin="round"
         stroke-width="3"
         id="path7" />
    </g>
  </defs>
</svg>
