<?xml version="1.0" encoding="UTF-8" standalone="no"?>
<svg
   ffdec:objectType="frame"
   height="44.349998"
   width="78.599998"
   version="1.1"
   id="svg11"
   sodipodi:docname="236.svg"
   xmlns:inkscape="http://www.inkscape.org/namespaces/inkscape"
   xmlns:sodipodi="http://sodipodi.sourceforge.net/DTD/sodipodi-0.dtd"
   xmlns:xlink="http://www.w3.org/1999/xlink"
   xmlns="http://www.w3.org/2000/svg"
   xmlns:svg="http://www.w3.org/2000/svg"
   xmlns:ffdec="https://www.free-decompiler.com/flash">
  <sodipodi:namedview
     id="namedview11"
     pagecolor="#ffffff"
     bordercolor="#000000"
     borderopacity="0.25"
     inkscape:showpageshadow="2"
     inkscape:pageopacity="0.0"
     inkscape:pagecheckerboard="0"
     inkscape:deskcolor="#d1d1d1"
     fit-margin-top="5"
     fit-margin-left="5"
     fit-margin-right="5"
     fit-margin-bottom="5" />
  <g
     transform="translate(2,2.05)"
     id="g3">
    <use
       ffdec:characterId="1"
       height="42.700001"
       transform="translate(-1.75,-2)"
       width="76.449997"
       xlink:href="#shape0"
       id="use1" />
    <use
       ffdec:characterId="232"
       height="39.5"
       transform="translate(-0.95,2.45)"
       width="75.699997"
       xlink:href="#shape1"
       id="use2" />
    <use
       ffdec:characterId="3"
       height="44.349998"
       transform="translate(-2,-2.05)"
       width="78.599998"
       xlink:href="#shape2"
       id="use3" />
  </g>
  <defs
     id="defs11">
    <g
       id="shape0"
       transform="translate(1.75,2)">
      <path
         d="M 2.8,0 V -0.4 H 5.4 V 0 H 9.7 V 19.45 0 H 20.55 L 19.3,19.45 H 9.7 0.25 V 0 H 2.8"
         fill="#ffffff"
         fill-rule="evenodd"
         stroke="none"
         id="path3" />
      <path
         d="M 0.25,19.45 H 9.7 19.3 L 18.7,28.6 16,28.5 10.95,27.95 9.7,27.8 Q 7.45,27.6 5.85,27.75 4.05,27.9 1.5,28.6 0.75,28.8 0.25,29.15 v -9.7 m 9.45,0 v 8.35 -8.35"
         fill="#121212"
         fill-rule="evenodd"
         stroke="none"
         id="path4" />
      <path
         d="m 9.7,27.8 1.25,0.15 5.05,0.55 2.7,0.1 h 1.05 l 3.75,0.15 q 2.45,0.3 3.6,1.25 0.6,0.5 0.6,1.1 0,0.65 -0.8,1 l -1.3,0.2 -7.15,0.15 -5.6,-0.3 L 9.7,31.75 7.95,31.6 3.1,31.95 0.95,32.3 0.25,32.1 -0.35,31.55 -0.5,31.3 V 29.9 L 0.25,29.15 Q 0.75,28.8 1.5,28.6 4.05,27.9 5.85,27.75 7.45,27.6 9.7,27.8 v 3.95 -3.95"
         fill="#999999"
         fill-rule="evenodd"
         stroke="none"
         id="path5" />
      <path
         d="M 2.8,0 H 0.25 M 9.7,0 H 5.4 m 16.15,0 h 10.7 M 20.55,0 H 9.7"
         fill="none"
         stroke="#666666"
         stroke-linecap="round"
         stroke-linejoin="round"
         stroke-width="4"
         id="path6" />
      <path
         d="m 9.7,-0.4 h 65 V 40.5 H 47.05 L 45.5,40.7 27,40.65 25.95,40.5 H 9.7 -0.5 V -0.4 H 9.7 V 40.5 -0.4"
         fill="#ffffff"
         fill-rule="evenodd"
         stroke="none"
         id="path7" />
    </g>
    <g
       id="shape1"
       transform="translate(0.95,-2.45)">
      <path
         d="m 74.15,10.3 q -1.15,0 -1.5,-0.6 -0.2,-0.25 -0.2,-1.1 l 0.2,-2.35 0.05,-1.9 V 3.55 Q 72.75,3.1 73.05,2.9 l 1.1,-0.3 h 0.6 v 7.65 l -0.6,0.05 M 68.3,9.35 Q 67.7,8.95 67.9,8.3 L 68,7.9 68.25,5.45 h -0.2 V 5.4 L 67.7,5.3 67.1,4.95 66.75,4.6 q -0.25,-0.35 0,-0.75 l 0.15,-0.2 q 0.05,-0.2 0.25,-0.25 l 0.2,-0.05 0.2,-0.1 L 68,2.9 68.55,2.55 q 0.45,-0.2 0.8,0 l 0.3,0.15 0.2,0.35 V 3.2 L 69.8,3.4 v 0.05 l 0.3,2.95 q 0.45,0.1 0.85,0.35 L 71.5,7.5 V 8.05 L 71.3,8.8 70.9,9.1 70.2,9.55 69.55,9.6 68.3,9.35 m 4.5,9 q -0.6,-0.4 -0.4,-1.05 l 0.1,-0.4 0.25,-2.45 h -0.2 V 14.4 L 72.2,14.3 71.6,13.95 71.25,13.6 q -0.25,-0.35 0,-0.75 l 0.15,-0.2 q 0.05,-0.2 0.25,-0.25 l 0.2,-0.05 0.2,-0.1 0.45,-0.35 q 0.4,-0.3 0.55,-0.35 0.45,-0.2 0.8,0 l 0.3,0.15 0.2,0.35 v 0.15 l -0.05,0.2 v 0.05 l 0.3,2.95 0.15,0.05 v 3.1 H 74.7 L 74.05,18.6 72.8,18.35 M 60.85,7.35 61.5,7.6 62,8.15 62.15,9.1 q -0.1,0.55 -0.75,0.95 l -1.25,0.25 q -1.15,0 -1.5,-0.6 -0.2,-0.25 -0.2,-1.1 l 0.2,-2.35 0.05,-1.9 V 3.55 Q 58.75,3.1 59.05,2.9 59.3,2.7 60.15,2.6 l 1.15,-0.05 2.4,0.05 0.85,0.15 0.4,0.4 0.05,0.05 0.3,0.95 -0.15,2.7 Q 65.75,7 66.05,7.6 L 66.35,8.75 66.3,9.1 66.15,9.35 65.6,9.8 65.05,10 63.9,10.1 Q 63.25,9.95 63.05,9.4 L 62.95,8.85 63,7.65 63.05,7.3 63.1,6.5 h -0.05 l -0.75,0.2 -1.35,0.05 -0.1,0.6 M 60.95,4.7 V 5.25 L 61.1,5.3 h 0.95 L 62.2,5.25 62.3,5.2 h 0.1 l 0.1,-0.05 0.65,0.1 0.05,-0.3 0.15,-0.6 L 61.15,4.5 61,4.55 60.95,4.7 m 4.4,11.65 0.65,0.25 0.5,0.55 0.15,0.95 q -0.1,0.55 -0.75,0.95 l -1.25,0.25 q -1.15,0 -1.5,-0.6 -0.2,-0.25 -0.2,-1.1 l 0.2,-2.35 0.05,-1.9 v -0.8 q 0.05,-0.45 0.35,-0.65 0.25,-0.2 1.1,-0.3 l 1.15,-0.05 2.4,0.05 0.85,0.15 0.4,0.4 0.05,0.05 q 0.3,0.25 0.3,0.95 l -0.15,2.7 q 0.6,0.15 0.9,0.75 l 0.3,1.15 -0.05,0.35 -0.15,0.25 -0.55,0.45 -0.55,0.2 -1.15,0.1 q -0.65,-0.15 -0.85,-0.7 l -0.1,-0.55 0.05,-1.2 0.05,-0.35 0.05,-0.8 h -0.05 l -0.75,0.2 -1.35,0.05 -0.1,0.6 m 0.1,-2.65 v 0.55 l 0.15,0.05 h 0.95 l 0.15,-0.05 0.1,-0.05 h 0.1 l 0.1,-0.05 0.65,0.1 0.05,-0.3 0.15,-0.6 -2.2,0.15 -0.15,0.05 -0.05,0.15 m -6.65,4.65 q -0.6,-0.4 -0.4,-1.05 l 0.1,-0.4 0.25,-2.45 h -0.2 V 14.4 L 58.2,14.3 57.6,13.95 57.25,13.6 q -0.25,-0.35 0,-0.75 l 0.15,-0.2 q 0.05,-0.2 0.25,-0.25 l 0.2,-0.05 0.2,-0.1 0.45,-0.35 q 0.4,-0.3 0.55,-0.35 0.45,-0.2 0.8,0 l 0.3,0.15 0.2,0.35 v 0.15 l -0.05,0.2 v 0.05 l 0.3,2.95 0.85,0.35 0.55,0.75 v 0.55 l -0.2,0.75 -0.4,0.3 -0.7,0.45 -0.65,0.05 -1.25,-0.25 m 2.05,7 0.65,0.25 0.5,0.55 0.15,0.95 q -0.1,0.55 -0.75,0.95 l -1.25,0.25 q -1.15,0 -1.5,-0.6 -0.2,-0.25 -0.2,-1.1 l 0.2,-2.35 0.05,-1.9 v -0.8 q 0.05,-0.45 0.35,-0.65 0.25,-0.2 1.1,-0.3 l 1.15,-0.05 2.4,0.05 0.85,0.15 0.4,0.4 0.05,0.05 0.3,0.95 -0.15,2.7 q 0.6,0.15 0.9,0.75 l 0.3,1.15 -0.05,0.35 -0.15,0.25 -0.55,0.45 -0.55,0.2 -1.15,0.1 q -0.65,-0.15 -0.85,-0.7 l -0.1,-0.55 0.05,-1.2 0.05,-0.35 0.05,-0.8 h -0.05 l -0.75,0.2 -1.35,0.05 -0.1,0.6 m 0.1,-2.65 v 0.55 l 0.15,0.05 h 0.95 l 0.15,-0.05 0.1,-0.05 h 0.1 l 0.1,-0.05 0.65,0.1 0.05,-0.3 0.15,-0.6 -2.2,0.15 -0.15,0.05 -0.05,0.15 m 7.35,4.65 q -0.6,-0.4 -0.4,-1.05 l 0.1,-0.4 0.25,-2.45 h -0.2 V 23.4 L 67.7,23.3 67.1,22.95 66.75,22.6 q -0.25,-0.35 0,-0.75 l 0.15,-0.2 q 0.05,-0.2 0.25,-0.25 l 0.2,-0.05 0.2,-0.1 0.45,-0.35 0.55,-0.35 q 0.45,-0.2 0.8,0 l 0.3,0.15 0.2,0.35 v 0.15 l -0.05,0.2 v 0.05 l 0.3,2.95 q 0.45,0.1 0.85,0.35 l 0.55,0.75 v 0.55 l -0.2,0.75 -0.4,0.3 -0.7,0.45 -0.65,0.05 -1.25,-0.25 m 5.85,0.95 q -1.15,0 -1.5,-0.6 -0.2,-0.25 -0.2,-1.1 l 0.2,-2.35 0.05,-1.9 v -0.8 q 0.05,-0.45 0.35,-0.65 l 1.1,-0.3 h 0.6 v 7.65 l -0.6,0.05 M 54.3,9.35 Q 53.7,8.95 53.9,8.3 L 54,7.9 54.25,5.45 h -0.2 V 5.4 L 53.7,5.3 53.1,4.95 52.75,4.6 q -0.25,-0.35 0,-0.75 l 0.15,-0.2 q 0.05,-0.2 0.25,-0.25 l 0.2,-0.05 0.2,-0.1 L 54,2.9 54.55,2.55 q 0.45,-0.2 0.8,0 l 0.3,0.15 0.2,0.35 V 3.2 L 55.8,3.4 v 0.05 l 0.3,2.95 q 0.45,0.1 0.85,0.35 L 57.5,7.5 V 8.05 L 57.3,8.8 56.9,9.1 56.2,9.55 55.55,9.6 54.3,9.35 m -7.45,-2 0.65,0.25 0.5,0.55 0.15,0.95 q -0.1,0.55 -0.75,0.95 l -1.25,0.25 q -1.15,0 -1.5,-0.6 -0.2,-0.25 -0.2,-1.1 l 0.2,-2.35 0.05,-1.9 V 3.55 L 45.05,2.9 q 0.25,-0.2 1.1,-0.3 l 1.15,-0.05 2.4,0.05 0.85,0.15 0.4,0.4 L 51,3.2 q 0.3,0.25 0.3,0.95 l -0.15,2.7 Q 51.75,7 52.05,7.6 L 52.35,8.75 52.3,9.1 52.15,9.35 51.6,9.8 51.05,10 49.9,10.1 Q 49.25,9.95 49.05,9.4 L 48.95,8.85 49,7.65 49.05,7.3 49.1,6.5 h -0.05 l -0.75,0.2 -1.35,0.05 -0.1,0.6 m 4.5,9 0.65,0.25 0.5,0.55 0.15,0.95 q -0.1,0.55 -0.75,0.95 l -1.25,0.25 q -1.15,0 -1.5,-0.6 -0.2,-0.25 -0.2,-1.1 l 0.2,-2.35 0.05,-1.9 v -0.8 q 0.05,-0.45 0.35,-0.65 l 1.1,-0.3 1.15,-0.05 2.4,0.05 0.85,0.15 0.4,0.4 0.05,0.05 q 0.3,0.25 0.3,0.95 l -0.15,2.7 q 0.6,0.15 0.9,0.75 l 0.3,1.15 -0.05,0.35 -0.15,0.25 -0.55,0.45 -0.55,0.2 -1.15,0.1 q -0.65,-0.15 -0.85,-0.7 l -0.1,-0.55 0.05,-1.2 0.05,-0.35 0.05,-0.8 h -0.05 l -0.75,0.2 -1.35,0.05 -0.1,0.6 M 46.95,4.7 V 5.25 L 47.1,5.3 h 0.95 L 48.2,5.25 48.3,5.2 h 0.1 l 0.1,-0.05 0.65,0.1 0.05,-0.3 0.15,-0.6 L 47.15,4.5 47,4.55 46.95,4.7 M 40.3,9.35 Q 39.7,8.95 39.9,8.3 L 40,7.9 40.25,5.45 h -0.2 V 5.4 L 39.7,5.3 39.1,4.95 38.75,4.6 q -0.25,-0.35 0,-0.75 l 0.15,-0.2 q 0.05,-0.2 0.25,-0.25 l 0.2,-0.05 0.2,-0.1 L 40,2.9 40.55,2.55 q 0.45,-0.2 0.8,0 l 0.3,0.15 0.2,0.35 V 3.2 L 41.8,3.4 V 3.45 L 42.1,6.4 42.95,6.75 43.5,7.5 V 8.05 L 43.3,8.8 42.9,9.1 42.2,9.55 41.55,9.6 40.3,9.35 m -2.95,7 0.65,0.25 0.5,0.55 0.15,0.95 q -0.1,0.55 -0.75,0.95 l -1.25,0.25 q -1.15,0 -1.5,-0.6 -0.2,-0.25 -0.2,-1.1 l 0.2,-2.35 0.05,-1.9 v -0.8 q 0.05,-0.45 0.35,-0.65 l 1.1,-0.3 1.15,-0.05 2.4,0.05 0.85,0.15 0.4,0.4 0.05,0.05 q 0.3,0.25 0.3,0.95 l -0.15,2.7 q 0.6,0.15 0.9,0.75 l 0.3,1.15 -0.05,0.35 -0.15,0.25 -0.55,0.45 -0.55,0.2 -1.15,0.1 q -0.65,-0.15 -0.85,-0.7 l -0.1,-0.55 0.05,-1.2 0.05,-0.35 0.05,-0.8 h -0.05 l -0.75,0.2 -1.35,0.05 -0.1,0.6 m 7.45,2 q -0.6,-0.4 -0.4,-1.05 l 0.1,-0.4 0.25,-2.45 h -0.2 V 14.4 L 44.2,14.3 43.6,13.95 43.25,13.6 q -0.25,-0.35 0,-0.75 l 0.15,-0.2 q 0.05,-0.2 0.25,-0.25 l 0.2,-0.05 0.2,-0.1 0.45,-0.35 0.55,-0.35 q 0.45,-0.2 0.8,0 l 0.3,0.15 0.2,0.35 v 0.15 l -0.05,0.2 v 0.05 l 0.3,2.95 0.85,0.35 0.55,0.75 v 0.55 l -0.2,0.75 -0.4,0.3 -0.7,0.45 -0.65,0.05 -1.25,-0.25 m 2.05,7 0.65,0.25 0.5,0.55 0.15,0.95 q -0.1,0.55 -0.75,0.95 l -1.25,0.25 q -1.15,0 -1.5,-0.6 -0.2,-0.25 -0.2,-1.1 l 0.2,-2.35 0.05,-1.9 v -0.8 l 0.35,-0.65 q 0.25,-0.2 1.1,-0.3 l 1.15,-0.05 2.4,0.05 0.85,0.15 0.4,0.4 0.05,0.05 q 0.3,0.25 0.3,0.95 l -0.15,2.7 q 0.6,0.15 0.9,0.75 l 0.3,1.15 -0.05,0.35 -0.15,0.25 -0.55,0.45 -0.55,0.2 -1.15,0.1 q -0.65,-0.15 -0.85,-0.7 l -0.1,-0.55 0.05,-1.2 0.05,-0.35 0.05,-0.8 h -0.05 l -0.75,0.2 -1.35,0.05 -0.1,0.6 m -6.55,2 q -0.6,-0.4 -0.4,-1.05 l 0.1,-0.4 0.25,-2.45 h -0.2 V 23.4 L 39.7,23.3 39.1,22.95 38.75,22.6 q -0.25,-0.35 0,-0.75 l 0.15,-0.2 q 0.05,-0.2 0.25,-0.25 l 0.2,-0.05 0.2,-0.1 0.45,-0.35 0.55,-0.35 q 0.45,-0.2 0.8,0 l 0.3,0.15 0.2,0.35 v 0.15 l -0.05,0.2 v 0.05 l 0.3,2.95 0.85,0.35 0.55,0.75 v 0.55 l -0.2,0.75 -0.4,0.3 -0.7,0.45 -0.65,0.05 -1.25,-0.25 m 6.65,-4.65 v 0.55 l 0.15,0.05 h 0.95 l 0.15,-0.05 0.1,-0.05 h 0.1 l 0.1,-0.05 0.65,0.1 0.05,-0.3 0.15,-0.6 -2.2,0.15 -0.15,0.05 -0.05,0.15 m 4.5,-9 v 0.55 l 0.15,0.05 h 0.95 l 0.15,-0.05 0.1,-0.05 h 0.1 l 0.1,-0.05 0.65,0.1 0.05,-0.3 0.15,-0.6 -2.2,0.15 -0.15,0.05 -0.05,0.15 m 2.85,13.65 q -0.6,-0.4 -0.4,-1.05 l 0.1,-0.4 0.25,-2.45 h -0.2 V 23.4 L 53.7,23.3 53.1,22.95 52.75,22.6 q -0.25,-0.35 0,-0.75 l 0.15,-0.2 q 0.05,-0.2 0.25,-0.25 l 0.2,-0.05 0.2,-0.1 0.45,-0.35 0.55,-0.35 q 0.45,-0.2 0.8,0 l 0.3,0.15 0.2,0.35 v 0.15 l -0.05,0.2 v 0.05 l 0.3,2.95 q 0.45,0.1 0.85,0.35 l 0.55,0.75 v 0.55 l -0.2,0.75 -0.4,0.3 -0.7,0.45 -0.65,0.05 -1.25,-0.25 m 4.5,9 q -0.6,-0.4 -0.4,-1.05 l 0.1,-0.4 0.25,-2.45 h -0.2 V 32.4 L 58.2,32.3 57.6,31.95 57.25,31.6 q -0.25,-0.35 0,-0.75 l 0.15,-0.2 q 0.05,-0.2 0.25,-0.25 l 0.2,-0.05 0.2,-0.1 0.45,-0.35 q 0.4,-0.3 0.55,-0.35 0.45,-0.2 0.8,0 l 0.3,0.15 0.2,0.35 v 0.15 l -0.05,0.2 v 0.05 l 0.3,2.95 0.85,0.35 0.55,0.75 v 0.55 l -0.2,0.75 -0.4,0.3 -0.7,0.45 -0.65,0.05 -1.25,-0.25 m -7.45,-2 0.65,0.25 0.5,0.55 0.15,0.95 q -0.1,0.55 -0.75,0.95 l -1.25,0.25 q -1.15,0 -1.5,-0.6 -0.2,-0.25 -0.2,-1.1 l 0.2,-2.35 0.05,-1.9 v -0.8 q 0.05,-0.45 0.35,-0.65 l 1.1,-0.3 1.15,-0.05 2.4,0.05 0.85,0.15 0.4,0.4 0.05,0.05 q 0.3,0.25 0.3,0.95 l -0.15,2.7 q 0.6,0.15 0.9,0.75 l 0.3,1.15 -0.05,0.35 -0.15,0.25 -0.55,0.45 -0.55,0.2 -1.15,0.1 q -0.65,-0.15 -0.85,-0.7 l -0.1,-0.55 0.05,-1.2 0.05,-0.35 0.05,-0.8 h -0.05 l -0.75,0.2 -1.35,0.05 -0.1,0.6 m 0.1,-2.65 v 0.55 l 0.15,0.05 h 0.95 l 0.15,-0.05 0.1,-0.05 h 0.1 l 0.1,-0.05 0.65,0.1 0.05,-0.3 0.15,-0.6 -2.2,0.15 -0.15,0.05 -0.05,0.15 m -6.65,4.65 q -0.6,-0.4 -0.4,-1.05 l 0.1,-0.4 0.25,-2.45 h -0.2 V 32.4 L 44.2,32.3 43.6,31.95 43.25,31.6 q -0.25,-0.35 0,-0.75 l 0.15,-0.2 q 0.05,-0.2 0.25,-0.25 l 0.2,-0.05 0.2,-0.1 0.45,-0.35 0.55,-0.35 q 0.45,-0.2 0.8,0 l 0.3,0.15 0.2,0.35 v 0.15 l -0.05,0.2 v 0.05 l 0.3,2.95 0.85,0.35 0.55,0.75 v 0.55 l -0.2,0.75 -0.4,0.3 -0.7,0.45 -0.65,0.05 -1.25,-0.25 m -7.45,-2 0.65,0.25 0.5,0.55 0.15,0.95 q -0.1,0.55 -0.75,0.95 l -1.25,0.25 q -1.15,0 -1.5,-0.6 -0.2,-0.25 -0.2,-1.1 l 0.2,-2.35 0.05,-1.9 v -0.8 q 0.05,-0.45 0.35,-0.65 l 1.1,-0.3 1.15,-0.05 2.4,0.05 0.85,0.15 0.4,0.4 0.05,0.05 q 0.3,0.25 0.3,0.95 l -0.15,2.7 q 0.6,0.15 0.9,0.75 l 0.3,1.15 -0.05,0.35 -0.15,0.25 -0.55,0.45 -0.55,0.2 -1.15,0.1 q -0.65,-0.15 -0.85,-0.7 l -0.1,-0.55 0.05,-1.2 0.05,-0.35 0.05,-0.8 h -0.05 l -0.75,0.2 -1.35,0.05 -0.1,0.6 m 35.45,2 q -0.6,-0.4 -0.4,-1.05 l 0.1,-0.4 0.25,-2.45 h -0.2 V 32.4 L 72.2,32.3 71.6,31.95 71.25,31.6 q -0.25,-0.35 0,-0.75 l 0.15,-0.2 q 0.05,-0.2 0.25,-0.25 l 0.2,-0.05 0.2,-0.1 0.45,-0.35 q 0.4,-0.3 0.55,-0.35 0.45,-0.2 0.8,0 l 0.3,0.15 0.2,0.35 v 0.15 l -0.05,0.2 v 0.05 l 0.3,2.95 0.15,0.05 v 3.1 H 74.7 L 74.05,36.6 72.8,36.35 m -7.45,-2 0.65,0.25 0.5,0.55 0.15,0.95 q -0.1,0.55 -0.75,0.95 l -1.25,0.25 q -1.15,0 -1.5,-0.6 -0.2,-0.25 -0.2,-1.1 l 0.2,-2.35 0.05,-1.9 v -0.8 q 0.05,-0.45 0.35,-0.65 0.25,-0.2 1.1,-0.3 l 1.15,-0.05 2.4,0.05 0.85,0.15 0.4,0.4 0.05,0.05 q 0.3,0.25 0.3,0.95 l -0.15,2.7 q 0.6,0.15 0.9,0.75 l 0.3,1.15 -0.05,0.35 -0.15,0.25 -0.55,0.45 -0.55,0.2 -1.15,0.1 q -0.65,-0.15 -0.85,-0.7 l -0.1,-0.55 0.05,-1.2 0.05,-0.35 0.05,-0.8 h -0.05 l -0.75,0.2 -1.35,0.05 -0.1,0.6 m 0.1,-2.65 v 0.55 l 0.15,0.05 h 0.95 l 0.15,-0.05 0.1,-0.05 h 0.1 l 0.1,-0.05 0.65,0.1 0.05,-0.3 0.15,-0.6 -2.2,0.15 -0.15,0.05 -0.05,0.15 M 32.85,7.35 33.5,7.6 34,8.15 34.15,9.1 q -0.1,0.55 -0.75,0.95 l -1.25,0.25 q -1.15,0 -1.5,-0.6 -0.2,-0.25 -0.2,-1.1 l 0.2,-2.35 0.05,-1.9 V 3.55 Q 30.75,3.1 31.05,2.9 l 1.1,-0.3 1.15,-0.05 2.4,0.05 0.85,0.15 0.4,0.4 L 37,3.2 q 0.3,0.25 0.3,0.95 l -0.15,2.7 Q 37.75,7 38.05,7.6 L 38.35,8.75 38.3,9.1 38.15,9.35 37.6,9.8 37.05,10 35.9,10.1 Q 35.25,9.95 35.05,9.4 L 34.95,8.85 35,7.65 35.05,7.3 35.1,6.5 h -0.05 l -0.75,0.2 -1.35,0.05 -0.1,0.6 M 32.95,4.7 V 5.25 L 33.1,5.3 h 0.95 L 34.2,5.25 34.3,5.2 h 0.1 l 0.1,-0.05 0.65,0.1 0.05,-0.3 0.15,-0.6 L 33.15,4.5 33,4.55 32.95,4.7 M 30.8,18.35 q -0.6,-0.4 -0.4,-1.05 l 0.1,-0.4 0.25,-2.45 h -0.2 V 14.4 L 30.2,14.3 29.6,13.95 29.25,13.6 q -0.25,-0.35 0,-0.75 l 0.15,-0.2 q 0.05,-0.2 0.25,-0.25 l 0.2,-0.05 0.2,-0.1 0.45,-0.35 0.55,-0.35 q 0.45,-0.2 0.8,0 l 0.3,0.15 0.2,0.35 v 0.15 l -0.05,0.2 v 0.05 l 0.3,2.95 q 0.45,0.1 0.85,0.35 L 34,16.5 v 0.55 l -0.2,0.75 -0.4,0.3 -0.7,0.45 -0.65,0.05 -1.25,-0.25 m -4.5,-9 Q 25.7,8.95 25.9,8.3 L 26,7.9 26.25,5.45 h -0.2 V 5.4 L 25.7,5.3 25.1,4.95 24.75,4.6 q -0.25,-0.35 0,-0.75 l 0.15,-0.2 q 0.05,-0.2 0.25,-0.25 l 0.2,-0.05 0.2,-0.1 L 26,2.9 26.55,2.55 q 0.45,-0.2 0.8,0 l 0.3,0.15 0.2,0.35 V 3.2 L 27.8,3.4 v 0.05 l 0.3,2.95 q 0.45,0.1 0.85,0.35 L 29.5,7.5 V 8.05 L 29.3,8.8 28.9,9.1 28.2,9.55 27.55,9.6 26.3,9.35 m -7.45,-2 0.65,0.25 0.5,0.55 0.15,0.95 q -0.1,0.55 -0.75,0.95 l -1.25,0.25 q -1.15,0 -1.5,-0.6 -0.2,-0.25 -0.2,-1.1 l 0.2,-2.35 0.05,-1.9 V 3.55 Q 16.75,3.1 17.05,2.9 17.3,2.7 18.15,2.6 l 1.15,-0.05 2.4,0.05 0.85,0.15 0.4,0.4 0.05,0.05 0.3,0.95 -0.15,2.7 Q 23.75,7 24.05,7.6 L 24.35,8.75 24.3,9.1 24.15,9.35 23.6,9.8 23.05,10 21.9,10.1 Q 21.25,9.95 21.05,9.4 L 20.95,8.85 21,7.65 21.05,7.3 21.1,6.5 h -0.05 l -0.75,0.2 -1.35,0.05 -0.1,0.6 M 18.95,4.7 V 5.25 L 19.1,5.3 h 0.95 L 20.2,5.25 20.3,5.2 h 0.1 l 0.1,-0.05 0.65,0.1 0.05,-0.3 0.15,-0.6 L 19.15,4.5 19,4.55 18.95,4.7 m 4.4,11.65 0.65,0.25 0.5,0.55 0.15,0.95 q -0.1,0.55 -0.75,0.95 l -1.25,0.25 q -1.15,0 -1.5,-0.6 -0.2,-0.25 -0.2,-1.1 l 0.2,-2.35 0.05,-1.9 v -0.8 l 0.35,-0.65 q 0.25,-0.2 1.1,-0.3 l 1.15,-0.05 2.4,0.05 0.85,0.15 0.4,0.4 0.05,0.05 q 0.3,0.25 0.3,0.95 l -0.15,2.7 q 0.6,0.15 0.9,0.75 l 0.3,1.15 -0.05,0.35 -0.15,0.25 -0.55,0.45 -0.55,0.2 -1.15,0.1 q -0.65,-0.15 -0.85,-0.7 l -0.1,-0.55 0.05,-1.2 0.05,-0.35 0.05,-0.8 h -0.05 l -0.75,0.2 -1.35,0.05 -0.1,0.6 m 0.1,-2.65 v 0.55 l 0.15,0.05 h 0.95 l 0.15,-0.05 0.1,-0.05 h 0.1 l 0.1,-0.05 0.65,0.1 0.05,-0.3 0.15,-0.6 -2.2,0.15 -0.15,0.05 -0.05,0.15 m 2.85,13.65 q -0.6,-0.4 -0.4,-1.05 l 0.1,-0.4 0.25,-2.45 h -0.2 V 23.4 L 25.7,23.3 25.1,22.95 24.75,22.6 q -0.25,-0.35 0,-0.75 l 0.15,-0.2 q 0.05,-0.2 0.25,-0.25 l 0.2,-0.05 0.2,-0.1 0.45,-0.35 0.55,-0.35 q 0.45,-0.2 0.8,0 l 0.3,0.15 0.2,0.35 v 0.15 l -0.05,0.2 v 0.05 l 0.3,2.95 q 0.45,0.1 0.85,0.35 l 0.55,0.75 v 0.55 l -0.2,0.75 -0.4,0.3 -0.7,0.45 -0.65,0.05 -1.25,-0.25 m -7.45,-2 0.65,0.25 0.5,0.55 0.15,0.95 q -0.1,0.55 -0.75,0.95 l -1.25,0.25 q -1.15,0 -1.5,-0.6 -0.2,-0.25 -0.2,-1.1 l 0.2,-2.35 0.05,-1.9 v -0.8 q 0.05,-0.45 0.35,-0.65 0.25,-0.2 1.1,-0.3 l 1.15,-0.05 2.4,0.05 0.85,0.15 0.4,0.4 0.05,0.05 0.3,0.95 -0.15,2.7 q 0.6,0.15 0.9,0.75 l 0.3,1.15 -0.05,0.35 -0.15,0.25 -0.55,0.45 -0.55,0.2 -1.15,0.1 q -0.65,-0.15 -0.85,-0.7 l -0.1,-0.55 0.05,-1.2 0.05,-0.35 0.05,-0.8 h -0.05 l -0.75,0.2 -1.35,0.05 -0.1,0.6 m 0.1,-2.65 v 0.55 l 0.15,0.05 h 0.95 l 0.15,-0.05 0.1,-0.05 h 0.1 l 0.1,-0.05 0.65,0.1 0.05,-0.3 0.15,-0.6 -2.2,0.15 -0.15,0.05 -0.05,0.15 m 18.5,-9 v 0.55 l 0.15,0.05 h 0.95 l 0.15,-0.05 0.1,-0.05 h 0.1 l 0.1,-0.05 0.65,0.1 0.05,-0.3 0.15,-0.6 -2.2,0.15 -0.15,0.05 -0.05,0.15 m -4.6,11.65 0.65,0.25 0.5,0.55 0.15,0.95 q -0.1,0.55 -0.75,0.95 l -1.25,0.25 q -1.15,0 -1.5,-0.6 -0.2,-0.25 -0.2,-1.1 l 0.2,-2.35 0.05,-1.9 v -0.8 q 0.05,-0.45 0.35,-0.65 l 1.1,-0.3 1.15,-0.05 2.4,0.05 0.85,0.15 0.4,0.4 0.05,0.05 q 0.3,0.25 0.3,0.95 l -0.15,2.7 q 0.6,0.15 0.9,0.75 l 0.3,1.15 -0.05,0.35 -0.15,0.25 -0.55,0.45 -0.55,0.2 -1.15,0.1 q -0.65,-0.15 -0.85,-0.7 l -0.1,-0.55 0.05,-1.2 0.05,-0.35 0.05,-0.8 h -0.05 l -0.75,0.2 -1.35,0.05 -0.1,0.6 m 0.1,-2.65 v 0.55 l 0.15,0.05 h 0.95 l 0.15,-0.05 0.1,-0.05 h 0.1 l 0.1,-0.05 0.65,0.1 0.05,-0.3 0.15,-0.6 -2.2,0.15 L 33,22.55 32.95,22.7 M 12.3,9.35 Q 11.7,8.95 11.9,8.3 L 12,7.9 12.25,5.45 h -0.2 V 5.4 L 11.7,5.3 11.1,4.95 10.75,4.6 q -0.25,-0.35 0,-0.75 l 0.15,-0.2 q 0.05,-0.2 0.25,-0.25 l 0.2,-0.05 0.2,-0.1 L 12,2.9 12.55,2.55 q 0.45,-0.2 0.8,0 l 0.3,0.15 0.2,0.35 V 3.2 L 13.8,3.4 v 0.05 l 0.3,2.95 q 0.45,0.1 0.85,0.35 L 15.5,7.5 V 8.05 L 15.3,8.8 14.9,9.1 14.2,9.55 13.55,9.6 12.3,9.35 M 4.85,7.35 5.5,7.6 6,8.15 6.15,9.1 Q 6.05,9.65 5.4,10.05 L 4.15,10.3 Q 3,10.3 2.65,9.7 2.45,9.45 2.45,8.6 L 2.65,6.25 2.7,4.35 V 3.55 Q 2.75,3.1 3.05,2.9 3.3,2.7 4.15,2.6 L 5.3,2.55 7.7,2.6 8.55,2.75 8.95,3.15 9,3.2 q 0.3,0.25 0.3,0.95 l -0.15,2.7 q 0.6,0.15 0.9,0.75 0.3,0.45 0.3,1.15 L 10.3,9.1 10.15,9.35 9.6,9.8 9.05,10 7.9,10.1 Q 7.25,9.95 7.05,9.4 L 6.95,8.85 7,7.65 7.05,7.3 7.1,6.5 H 7.05 L 6.3,6.7 4.95,6.75 4.85,7.35 m 4.5,9 0.65,0.25 0.5,0.55 0.15,0.95 q -0.1,0.55 -0.75,0.95 L 8.65,19.3 q -1.15,0 -1.5,-0.6 -0.2,-0.25 -0.2,-1.1 l 0.2,-2.35 0.05,-1.9 v -0.8 Q 7.25,12.1 7.55,11.9 l 1.1,-0.3 1.15,-0.05 2.4,0.05 0.85,0.15 0.4,0.4 0.05,0.05 0.3,0.95 -0.15,2.7 q 0.6,0.15 0.9,0.75 l 0.3,1.15 -0.05,0.35 -0.15,0.25 -0.55,0.45 -0.55,0.2 -1.15,0.1 q -0.65,-0.15 -0.85,-0.7 l -0.1,-0.55 0.05,-1.2 0.05,-0.35 0.05,-0.8 h -0.05 l -0.75,0.2 -1.35,0.05 -0.1,0.6 m 7.45,2 q -0.6,-0.4 -0.4,-1.05 l 0.1,-0.4 0.25,-2.45 h -0.2 V 14.4 L 16.2,14.3 15.6,13.95 15.25,13.6 q -0.25,-0.35 0,-0.75 l 0.15,-0.2 q 0.05,-0.2 0.25,-0.25 l 0.2,-0.05 0.2,-0.1 0.45,-0.35 q 0.4,-0.3 0.55,-0.35 0.45,-0.2 0.8,0 l 0.3,0.15 0.2,0.35 v 0.15 l -0.05,0.2 v 0.05 l 0.3,2.95 0.85,0.35 0.55,0.75 v 0.55 l -0.2,0.75 -0.4,0.3 -0.7,0.45 -0.65,0.05 -1.25,-0.25 M 4.95,4.7 V 5.25 L 5.1,5.3 H 6.05 L 6.2,5.25 6.3,5.2 H 6.4 L 6.5,5.15 7.15,5.25 7.2,4.95 7.35,4.35 5.15,4.5 5,4.55 4.95,4.7 M 2.8,18.35 Q 2.2,17.95 2.4,17.3 L 2.5,16.9 2.75,14.45 H 2.55 V 14.4 L 2.2,14.3 1.6,13.95 1.25,13.6 Q 1,13.25 1.25,12.85 l 0.15,-0.2 q 0.05,-0.2 0.25,-0.25 l 0.2,-0.05 0.2,-0.1 0.45,-0.35 q 0.4,-0.3 0.55,-0.35 0.45,-0.2 0.8,0 l 0.3,0.15 0.2,0.35 V 12.2 L 4.3,12.4 v 0.05 L 4.6,15.4 5.45,15.75 6,16.5 v 0.55 L 5.8,17.8 5.4,18.1 4.7,18.55 4.05,18.6 2.8,18.35 M 9.45,13.7 v 0.55 L 9.6,14.3 h 0.95 l 0.15,-0.05 0.1,-0.05 h 0.1 l 0.1,-0.05 0.65,0.1 0.05,-0.3 0.15,-0.6 -2.2,0.15 -0.15,0.05 -0.05,0.15 m -8.9,2.9 0.3,1.15 L 0.8,18.1 0.65,18.35 0.1,18.8 -0.05,18.85 V 16 l 0.6,0.6 M 4.85,25.35 5.5,25.6 6,26.15 6.15,27.1 Q 6.05,27.65 5.4,28.05 L 4.15,28.3 Q 3,28.3 2.65,27.7 2.45,27.45 2.45,26.6 l 0.2,-2.35 0.05,-1.9 v -0.8 Q 2.75,21.1 3.05,20.9 3.3,20.7 4.15,20.6 l 1.15,-0.05 2.4,0.05 0.85,0.15 0.4,0.4 L 9,21.2 q 0.3,0.25 0.3,0.95 l -0.15,2.7 q 0.6,0.15 0.9,0.75 0.3,0.45 0.3,1.15 L 10.3,27.1 10.15,27.35 9.6,27.8 9.05,28 7.9,28.1 Q 7.25,27.95 7.05,27.4 L 6.95,26.85 7,25.65 7.05,25.3 7.1,24.5 H 7.05 l -0.75,0.2 -1.35,0.05 -0.1,0.6 m 0.1,-2.65 v 0.55 L 5.1,23.3 H 6.05 L 6.2,23.25 6.3,23.2 h 0.1 l 0.1,-0.05 0.65,0.1 0.05,-0.3 0.15,-0.6 L 5.15,22.5 5,22.55 4.95,22.7 m 7.35,4.65 q -0.6,-0.4 -0.4,-1.05 l 0.1,-0.4 0.25,-2.45 h -0.2 V 23.4 L 11.7,23.3 11.1,22.95 10.75,22.6 q -0.25,-0.35 0,-0.75 l 0.15,-0.2 q 0.05,-0.2 0.25,-0.25 l 0.2,-0.05 0.2,-0.1 0.45,-0.35 0.55,-0.35 q 0.45,-0.2 0.8,0 l 0.3,0.15 0.2,0.35 v 0.15 l -0.05,0.2 v 0.05 l 0.3,2.95 q 0.45,0.1 0.85,0.35 l 0.55,0.75 v 0.55 l -0.2,0.75 -0.4,0.3 -0.7,0.45 -0.65,0.05 -1.25,-0.25 m 4.5,9 q -0.6,-0.4 -0.4,-1.05 l 0.1,-0.4 0.25,-2.45 h -0.2 V 32.4 L 16.2,32.3 15.6,31.95 15.25,31.6 q -0.25,-0.35 0,-0.75 l 0.15,-0.2 q 0.05,-0.2 0.25,-0.25 l 0.2,-0.05 0.2,-0.1 0.45,-0.35 q 0.4,-0.3 0.55,-0.35 0.45,-0.2 0.8,0 l 0.3,0.15 0.2,0.35 v 0.15 l -0.05,0.2 v 0.05 l 0.3,2.95 0.85,0.35 0.55,0.75 v 0.55 l -0.2,0.75 -0.4,0.3 -0.7,0.45 -0.65,0.05 -1.25,-0.25 m -7.45,-2 0.65,0.25 0.5,0.55 0.15,0.95 q -0.1,0.55 -0.75,0.95 L 8.65,37.3 q -1.15,0 -1.5,-0.6 -0.2,-0.25 -0.2,-1.1 l 0.2,-2.35 0.05,-1.9 v -0.8 Q 7.25,30.1 7.55,29.9 l 1.1,-0.3 1.15,-0.05 2.4,0.05 0.85,0.15 0.4,0.4 0.05,0.05 0.3,0.95 -0.15,2.7 q 0.6,0.15 0.9,0.75 l 0.3,1.15 -0.05,0.35 -0.15,0.25 -0.55,0.45 -0.55,0.2 -1.15,0.1 q -0.65,-0.15 -0.85,-0.7 l -0.1,-0.55 0.05,-1.2 0.05,-0.35 0.05,-0.8 h -0.05 l -0.75,0.2 -1.35,0.05 -0.1,0.6 m 0.1,-2.65 v 0.55 L 9.6,32.3 h 0.95 l 0.15,-0.05 0.1,-0.05 h 0.1 l 0.1,-0.05 0.65,0.1 0.05,-0.3 0.15,-0.6 L 9.65,31.5 9.5,31.55 9.45,31.7 M 2.8,36.35 Q 2.2,35.95 2.4,35.3 L 2.5,34.9 2.75,32.45 H 2.55 V 32.4 L 2.2,32.3 1.6,31.95 1.25,31.6 Q 1,31.25 1.25,30.85 l 0.15,-0.2 q 0.05,-0.2 0.25,-0.25 l 0.2,-0.05 0.2,-0.1 0.45,-0.35 q 0.4,-0.3 0.55,-0.35 0.45,-0.2 0.8,0 l 0.3,0.15 0.2,0.35 V 30.2 L 4.3,30.4 v 0.05 L 4.6,33.4 5.45,33.75 6,34.5 v 0.55 L 5.8,35.8 5.4,36.1 4.7,36.55 4.05,36.6 2.8,36.35 M 0.55,34.6 0.85,35.75 0.8,36.1 0.65,36.35 0.1,36.8 -0.05,36.85 V 34 l 0.6,0.6 m 30.25,1.75 q -0.6,-0.4 -0.4,-1.05 l 0.1,-0.4 0.25,-2.45 h -0.2 V 32.4 L 30.2,32.3 29.6,31.95 29.25,31.6 q -0.25,-0.35 0,-0.75 l 0.15,-0.2 q 0.05,-0.2 0.25,-0.25 l 0.2,-0.05 0.2,-0.1 0.45,-0.35 0.55,-0.35 q 0.45,-0.2 0.8,0 l 0.3,0.15 0.2,0.35 v 0.15 l -0.05,0.2 v 0.05 l 0.3,2.95 q 0.45,0.1 0.85,0.35 L 34,34.5 v 0.55 l -0.2,0.75 -0.4,0.3 -0.7,0.45 -0.65,0.05 -1.25,-0.25 m 6.65,-4.65 v 0.55 l 0.15,0.05 h 0.95 l 0.15,-0.05 0.1,-0.05 h 0.1 l 0.1,-0.05 0.65,0.1 0.05,-0.3 0.15,-0.6 -2.2,0.15 -0.15,0.05 -0.05,0.15 m -14.1,2.65 0.65,0.25 0.5,0.55 0.15,0.95 q -0.1,0.55 -0.75,0.95 l -1.25,0.25 q -1.15,0 -1.5,-0.6 -0.2,-0.25 -0.2,-1.1 l 0.2,-2.35 0.05,-1.9 v -0.8 l 0.35,-0.65 q 0.25,-0.2 1.1,-0.3 l 1.15,-0.05 2.4,0.05 0.85,0.15 0.4,0.4 0.05,0.05 q 0.3,0.25 0.3,0.95 l -0.15,2.7 q 0.6,0.15 0.9,0.75 l 0.3,1.15 -0.05,0.35 -0.15,0.25 -0.55,0.45 -0.55,0.2 -1.15,0.1 q -0.65,-0.15 -0.85,-0.7 l -0.1,-0.55 0.05,-1.2 0.05,-0.35 0.05,-0.8 h -0.05 l -0.75,0.2 -1.35,0.05 -0.1,0.6 m 0.1,-2.65 v 0.55 l 0.15,0.05 h 0.95 l 0.15,-0.05 0.1,-0.05 h 0.1 l 0.1,-0.05 0.65,0.1 0.05,-0.3 0.15,-0.6 -2.2,0.15 -0.15,0.05 -0.05,0.15"
         fill="#999999"
         fill-rule="evenodd"
         stroke="none"
         id="path8" />
      <path
         d="M 58.8,10.65 55.6,10.5 55.35,10.6 54.6,10.55 54.15,10.35 53.7,9.65 Q 53.55,9.25 53.55,8.3 L 53.6,7.35 53.3,4.15 V 3.45 Q 53.45,2.85 54,2.7 l 0.65,-0.05 2.45,0.05 0.85,0.25 q 0.4,0.25 0.4,0.75 L 58.3,4.65 q 0.9,0 1.8,0.5 1,0.6 1.3,1.4 0.45,1 0.2,2.2 l -0.2,0.7 q -0.4,0.65 -1.15,0.9 l -1.45,0.3 M 70.15,26.2 q -0.6,2.1 -2.6,4.1 l -2.8,2.2 0.35,0.25 1.1,0.5 1.9,0.3 h 0.15 L 68.3,33.3 q -0.1,-0.95 0.05,-1.45 0.25,-1.15 1.4,-1.55 l 1,-0.15 q 1.75,0.1 2.4,1.3 0.45,0.8 0.15,1.9 l -0.95,1.75 -0.45,0.5 -0.7,0.45 q -1.6,0.8 -3.25,0.8 l -1.55,-0.2 -0.9,-0.2 0.3,1.4 q 0.3,1.65 -0.1,2.3 Q 65.1,41 64.2,40.9 L 63.75,40.8 H 63.7 q -0.9,0 -1.5,-0.75 -0.3,1.05 -1.4,1.2 -1.15,0.1 -1.6,-0.95 -0.4,0.4 -0.8,0.4 l -0.45,0.1 -0.25,0.4 q -0.45,0.75 -1.4,0.75 -0.6,-0.05 -0.95,-0.4 L 54.8,41.5 q -0.65,-0.15 -1,-0.75 l -0.2,-0.5 -0.4,-0.6 -0.15,-1 q 0,-1.35 0.3,-2.65 l -1.1,0.25 -2.05,0.35 -2.7,-0.35 Q 46.45,36 45.75,35.45 44.2,34.25 44.3,32.5 q 0.05,-0.85 0.55,-1.6 0.5,-0.75 1.3,-1.1 l 1.5,-0.15 q 0.85,0.15 1.35,0.65 0.55,0.55 0.7,1.35 0.15,0.85 -0.25,1.5 1.85,0.15 3.4,-0.5 l 0.9,-0.3 L 53.05,31.9 51.5,30.7 51.15,30.3 49.4,28.25 Q 48,26 47.9,23.45 L 48,20.7 q -0.35,-1.2 -0.4,-2.2 l 0.2,-3.1 v -1.65 l 0.35,-2.05 q 0.2,-1.25 0.8,-1.8 0.75,-0.7 1.7,-0.25 l 0.8,0.6 2.9,2.8 q 0.55,-0.4 1.05,-0.65 l 1.65,-0.65 2,-0.1 3.15,0.3 1.35,-3.25 0.75,-1.15 q 0.65,-0.55 1.25,-0.4 0.85,0.1 1.5,1.65 l 2.3,6.25 0.4,1.45 0.3,2 0.5,2.7 0.05,1.25 q 0.05,2.3 -0.45,3.75 M 66.2,26.05 q 1.1,-0.45 1.8,-1.5 0.3,-0.4 0.1,-0.65 l -0.2,-0.1 h -0.05 l -0.2,0.05 -0.4,0.15 -1.6,0.85 -2.95,0.5 -1.9,-0.75 -0.7,-0.45 Q 59.8,23.7 59.15,23.7 58.7,23.75 58.1,24.15 l -0.9,0.8 -1.7,0.9 -1,0.25 -1.75,-0.2 -0.9,-0.2 -0.45,-0.35 Q 51.05,25 50.65,25.2 q -0.2,0.2 -0.1,0.5 l 0.25,0.45 0.65,0.9 q 0.35,0.3 0.85,0.45 0.95,0.5 2,0.55 L 55.45,28 q 0,0.4 0.15,0.8 l 0.2,0.5 0.25,0.45 q 0.7,1 1.2,1.25 l 1.45,0.4 1.2,0.1 0.8,-0.15 1.25,-0.55 1.15,-1.45 0.8,-2.45 v -0.1 l 1.85,-0.55 0.45,-0.2 m -4,-5.95 -0.1,0.85 0.05,1 q 0.25,1 1.25,1.5 l 0.1,0.05 3.95,-0.95 0.2,-0.6 -0.05,-1.2 -0.2,-0.85 q -0.5,-1.3 -1.7,-1.6 l -0.8,-0.1 -1.25,0.2 -0.8,0.75 -0.65,0.95 M 56.5,4.7 h -1.1 l 0.05,0.55 0.5,0.05 h 0.5 L 56.5,4.7 M 59.65,7.45 59.45,7.1 59.05,6.8 Q 58.65,6.5 58.3,6.5 l -0.95,0.1 q -0.6,0 -0.85,-0.5 V 6.05 L 55.8,6.1 55.5,6.2 55.45,7.4 h 0.05 l 0.35,-0.05 1,0.15 2.55,-0.05 0.25,0.05 V 7.45 M 51.45,9 H 51.1 V 8.95 L 50.8,8.85 50.6,8.65 50.4,8.35 50.35,8 V 7.55 L 49.4,7.35 49.15,7.15 49,6.85 48.95,6.55 49,6.25 49.1,6.05 49.5,5.7 49.95,5.6 V 5.55 L 50.4,5.6 50.45,5.25 50.7,4.8 51.2,4.65 51.6,4.85 51.9,5.3 52,5.65 52.35,5.7 52.9,6.15 53,6.3 53.1,6.5 53.05,6.85 52.8,7.15 52.6,7.3 52.35,7.4 52.2,7.45 V 8.3 L 52.05,8.65 51.7,8.9 51.45,8.95 V 9 m 4,-0.6 3.4,0.1 0.7,-0.25 H 57 L 55.45,8 V 8.05 8.4 m -16.3,8.45 0.35,-0.3 1.8,-1.65 q 1.2,-0.8 2.5,-0.65 1.05,0 1.65,0.65 0.8,0.85 0.25,1.7 L 45,17.1 44.15,17.05 43.5,16.8 q -0.75,-0.25 -1.75,0.65 l -1.4,1.35 q -1.15,0.65 -2.35,0 l -0.7,-0.3 q -0.35,0 -0.65,0.4 l -0.55,0.5 -0.7,-0.05 q -0.15,-0.2 -0.05,-0.5 l 0.3,-0.45 0.9,-1.15 q 0.7,-0.6 1.35,-0.6 l 0.75,0.15 0.5,0.05 m 3,6 q -0.75,0.75 -1.6,1.1 l -2,0.1 q -0.6,-0.15 -1.4,-0.85 l -0.7,-0.45 Q 36,22.6 34.95,23 l -0.9,0.7 -0.7,0.45 -0.4,-0.45 0.1,-0.6 0.6,-0.8 2,-1.4 2.45,0.05 0.55,0.3 0.55,0.15 0.95,-0.55 0.8,-0.7 0.8,-0.55 0.8,-0.15 1.4,0.1 q 0.85,0.15 1.15,0.8 0.35,0.5 0.1,1.25 -0.25,0.65 -0.95,0.8 l -0.8,0.05 H 42.7 l -0.55,0.4 m 18.95,3.95 0.8,0.15 -0.1,0.4 -0.35,0.85 -0.1,-0.05 -0.2,-0.15 -0.2,-0.05 -0.25,-0.1 -0.65,-0.15 v 0.05 L 59.3,28 l -0.05,0.05 -0.15,-0.1 -0.75,-0.2 -0.75,0.1 -0.2,0.1 -0.25,-0.55 0.8,-0.4 1.3,-0.95 0.45,0.2 1.4,0.55 m -10.65,-4.85 0.15,0.5 0.35,0.6 h 0.95 l 0.25,0.05 2,0.7 0.25,0.15 0.4,-0.3 0.4,-0.4 0.55,-0.9 0.15,-0.6 Q 56.15,20.2 55.2,19.3 54.5,18.6 53.5,18.6 l -1.1,0.25 -0.8,0.45 q -0.85,0.65 -1.1,1.35 l -0.1,0.9 0.05,0.4 M 39.3,27.9 q 0.95,-0.9 2.05,-1.3 l 1.4,-0.2 q 0.55,0.1 1.15,0.65 l 0.6,0.7 Q 44.95,28.7 44.15,29.4 43.4,30.1 42.5,29.55 42.05,29.2 41.8,29.25 40.35,30.7 39.15,31 l -2.3,-0.25 q -1.05,-0.5 -1.7,-1.65 l -0.7,-0.95 -1.15,0.05 -1.1,0.4 -0.7,0.05 -0.25,-0.35 0.05,-0.45 q 0.1,-0.25 0.65,-0.6 l 0.8,-0.45 1.55,-0.5 1.6,0.2 0.9,0.8 0.9,0.9 q 0.4,0.3 0.65,0.25 L 39.3,27.9 M 20.1,40.1 q -0.45,1 -1.55,0.9 -0.7,-0.05 -1.1,-0.55 l -0.8,0.5 -2.1,0.15 h -1.7 L 4.05,41.5 2.4,41.3 Q 1.45,40.85 1.45,39.85 l 0.3,-1.1 Q 2.65,36.65 4,34.85 L 5,33.7 4.8,33.75 q -1.4,0.75 -2.25,2 L 2.3,36.05 1.35,37.65 1,38.3 0.8,38.45 -0.3,38.85 -0.45,38.8 q -0.3,0 -0.4,-0.3 l -0.1,-0.55 0.15,-0.65 v -0.1 l 0.05,-0.3 0.1,-0.2 0.25,-0.35 -0.35,-0.55 -0.1,-1 0.45,-0.85 Q 0.6,32.5 2.6,31.4 3.75,30.8 6.25,30 L 7.8,29.7 7.05,29.05 Q 5.85,28 5.2,26.2 L 4.8,24.8 q -0.85,-3.95 0.45,-7.7 0.7,-2 1.9,-3.45 Q 7.45,9.95 9,5.5 9.3,4.6 9.7,4.2 q 0.85,-0.7 1.95,-0.35 0.6,0.2 1.8,0.95 l 3.35,2.3 4.8,-0.15 2.45,0.45 1.9,0.8 q 1.95,1.15 3.4,2.6 l 1.55,-0.15 2.3,-0.25 1.5,0.3 q 0.65,0.4 0.75,1.45 l -0.2,1.65 -1.2,4.8 -0.5,1.1 -1.25,2.5 -0.6,2.55 -0.8,2.2 q -1.65,3.5 -5.3,5.3 l -1.25,0.5 -2.1,0.3 H 21.4 l 0.05,0.5 0.35,1.2 0.35,0.7 q 0.8,1.6 2.6,2.4 1.75,0.7 3.6,0.45 H 28.6 L 28.55,38 28.35,37.95 Q 27.1,37.75 26.7,37.35 26.3,37 26,36.15 25.6,35.05 25.65,34.2 25.7,33.35 26.4,32.4 l 0.6,-0.7 0.85,-0.6 0.75,-0.2 1.95,-0.1 q 1.1,0.15 1.8,0.8 l 0.55,0.65 0.55,1.2 -0.25,1.65 -0.3,0.7 -0.05,0.1 0.2,1.1 h 0.05 l 0.35,0.05 0.45,0.25 q 1,0.7 1.25,1.4 0.2,0.55 0.05,1 l -0.3,0.7 -0.6,0.75 -0.9,0.35 -0.7,-0.2 -0.55,-0.3 -0.3,0.1 -0.9,-0.05 -0.7,0.05 h -0.1 l -1.2,0.35 -4.15,-0.15 -2.15,-0.8 -1.95,-1.55 -0.25,-0.3 -0.05,0.4 -0.3,1.05 m -1.5,-22.2 -0.3,-1.15 -0.7,-1 -0.8,-0.65 Q 16.45,14.85 15.65,14.65 L 14,14.7 q -1,0.25 -2.3,1.65 l -0.6,0.9 -0.2,0.95 q 0,1.5 0.65,2.55 l 2.45,0.35 0.65,0.2 q 0.9,0.35 1.4,0.8 1.65,-0.7 2.4,-2.35 L 18.65,19 18.6,17.9 m -3.15,10.05 0.5,0.6 q 0.45,0.5 1.1,0.8 l 1,0.25 2.15,0.15 q 1.25,-0.15 2.15,-0.9 L 23.2,27.7 q 0.25,-0.6 0.15,-1.6 l -0.1,-0.7 -0.4,-0.6 -0.4,-0.4 -1,-0.6 v -0.05 -0.1 l 0.05,-0.4 v -0.3 l -0.15,-0.3 -0.2,-0.3 -0.2,-0.15 -0.6,-0.2 v 0.05 L 20,22.1 l -0.7,0.55 -0.15,0.6 -2,0.15 q -0.9,0.35 -1.55,1.3 -0.5,0.8 -0.5,1.95 l 0.05,0.6 0.3,0.7 M 29.9,20.4 q -0.15,-0.9 -0.65,-1.45 l -0.2,-0.05 q -0.95,-0.15 -2.45,0.5 -1.5,0.8 -2.35,0.85 h -0.8 q -0.4,0.8 -0.25,1.75 0.1,1 0.7,1.75 l 0.4,0.4 0.65,0.35 1.75,0.35 q 1.05,-0.1 1.7,-0.6 L 28.95,23.6 Q 30.2,22 29.9,20.4 m -9.05,7.1 -0.25,0.15 -1,0.2 -1.05,-0.15 -0.6,-0.3 -0.3,-0.2 -0.3,-0.4 -0.1,-0.25 -0.05,-0.35 0.05,-0.35 0.05,-0.2 0.45,-0.5 0.25,-0.2 0.25,-0.1 0.55,-0.05 1.2,0.1 0.5,0.1 0.55,0.5 0.25,0.45 0.05,0.45 -0.1,0.6 -0.4,0.5 m 2.05,3.6 0.1,0.75 q 0.2,0.45 0.55,0.5 l 0.75,-0.1 0.35,-0.35 0.05,-0.5 -0.15,-0.65 -0.5,-0.55 q -0.2,-0.3 -0.6,-0.45 H 23.1 23 q -0.15,0.15 -0.15,0.4 L 22.9,31.1 M 28.6,27.7 28.65,27.35 28.6,27.05 28.35,26.7 28.2,26.6 28.1,26.5 28,26.45 27.65,26.4 H 27.3 l -0.4,-0.05 v 0.05 h -0.4 l -0.3,0.1 -0.15,0.1 -0.45,0.2 -0.25,0.25 -0.15,0.2 q -0.1,0.3 0.15,0.45 l 0.35,0.15 0.4,-0.05 v 0.05 h 0.3 v 0.05 l 0.2,0.05 0.25,0.25 0.7,0.2 v 0.05 h 0.3 V 28.4 l 0.35,-0.1 0.25,-0.25 0.1,-0.2 0.05,-0.15"
         fill="#000000"
         fill-rule="evenodd"
         stroke="none"
         id="path9" />
      <path
         d="m 62.2,20.1 0.65,-0.95 0.8,-0.75 1.25,-0.2 0.8,0.1 q 1.2,0.3 1.7,1.6 l 0.2,0.85 0.05,1.2 -0.2,0.6 -3.95,0.95 -0.1,-0.05 q -1,-0.5 -1.25,-1.5 l -0.05,-1 0.1,-0.85 m 4,5.95 -0.45,0.2 -1.85,0.55 v 0.1 L 63.1,29.35 61.95,30.8 60.7,31.35 59.9,31.5 58.7,31.4 57.25,31 q -0.5,-0.25 -1.2,-1.25 L 55.8,29.3 55.6,28.8 Q 55.45,28.4 55.45,28 L 54.3,28.05 Q 53.25,28 52.3,27.5 51.8,27.35 51.45,27.05 L 50.8,26.15 50.55,25.7 q -0.1,-0.3 0.1,-0.5 0.4,-0.2 0.75,0.15 l 0.45,0.35 0.9,0.2 1.75,0.2 1,-0.25 1.7,-0.9 0.9,-0.8 q 0.6,-0.4 1.05,-0.45 0.65,0 0.95,0.45 l 0.7,0.45 1.9,0.75 2.95,-0.5 1.6,-0.85 0.4,-0.15 0.2,-0.05 h 0.05 l 0.2,0.1 q 0.2,0.25 -0.1,0.65 -0.7,1.05 -1.8,1.5 M 59.65,7.45 V 7.5 L 59.4,7.45 56.85,7.5 55.85,7.35 55.5,7.4 H 55.45 L 55.5,6.2 55.8,6.1 56.5,6.05 V 6.1 q 0.25,0.5 0.85,0.5 L 58.3,6.5 q 0.35,0 0.75,0.3 l 0.4,0.3 0.2,0.35 M 56.5,4.7 56.45,5.3 h -0.5 L 55.45,5.25 55.4,4.7 h 1.1 M 55.45,8.4 V 8.05 8 L 57,8.25 h 2.55 l -0.7,0.25 -3.4,-0.1 m -5,13.55 -0.05,-0.4 0.1,-0.9 q 0.25,-0.7 1.1,-1.35 l 0.8,-0.45 1.1,-0.25 q 1,0 1.7,0.7 0.95,0.9 0.7,2.45 l -0.15,0.6 -0.55,0.9 -0.4,0.4 -0.4,0.3 -0.25,-0.15 -2,-0.7 -0.25,-0.05 h -0.95 l -0.35,-0.6 -0.15,-0.5 m 10.65,4.85 -1.4,-0.55 -0.45,-0.2 -1.3,0.95 -0.8,0.4 0.25,0.55 0.2,-0.1 0.75,-0.1 0.75,0.2 0.15,0.1 L 59.3,28 60.05,27.75 V 27.7 l 0.65,0.15 0.25,0.1 0.2,0.05 0.2,0.15 0.1,0.05 0.35,-0.85 0.1,-0.4 -0.8,-0.15 M 29.9,20.4 q 0.3,1.6 -0.95,3.2 l -0.55,0.65 q -0.65,0.5 -1.7,0.6 L 24.95,24.5 24.3,24.15 23.9,23.75 Q 23.3,23 23.2,22 23.05,21.05 23.45,20.25 h 0.8 q 0.85,-0.05 2.35,-0.85 1.5,-0.65 2.45,-0.5 l 0.2,0.05 q 0.5,0.55 0.65,1.45 m -14.45,7.55 -0.3,-0.7 -0.05,-0.6 q 0,-1.15 0.5,-1.95 0.65,-0.95 1.55,-1.3 l 2,-0.15 0.15,-0.6 0.7,-0.55 0.35,-0.05 V 22 l 0.6,0.2 0.2,0.15 0.2,0.3 0.15,0.3 v 0.3 l -0.05,0.4 v 0.1 0.05 l 1,0.6 0.4,0.4 0.4,0.6 0.1,0.7 q 0.1,1 -0.15,1.6 l -0.85,1.15 q -0.9,0.75 -2.15,0.9 l -2.15,-0.15 -1,-0.25 q -0.65,-0.3 -1.1,-0.8 l -0.5,-0.6 m 3.15,-10.05 0.05,1.1 -0.2,0.75 q -0.75,1.65 -2.4,2.35 -0.5,-0.45 -1.4,-0.8 L 14,21.1 11.55,20.75 Q 10.9,19.7 10.9,18.2 l 0.2,-0.95 0.6,-0.9 Q 13,14.95 14,14.7 l 1.65,-0.05 q 0.8,0.2 1.15,0.45 l 0.8,0.65 0.7,1 0.3,1.15 m 2.25,9.6 0.4,-0.5 0.1,-0.6 L 21.3,25.95 21.05,25.5 20.5,25 20,24.9 l -1.2,-0.1 -0.55,0.05 -0.25,0.1 -0.25,0.2 -0.45,0.5 -0.05,0.2 -0.05,0.35 0.05,0.35 0.1,0.25 0.3,0.4 0.3,0.2 0.6,0.3 1.05,0.15 1,-0.2 0.25,-0.15 m 7.75,0.2 -0.05,0.15 -0.1,0.2 -0.25,0.25 -0.35,0.1 v 0.05 h -0.3 V 28.4 L 26.85,28.2 26.6,27.95 26.4,27.9 V 27.85 H 26.1 V 27.8 L 25.7,27.85 25.35,27.7 Q 25.1,27.55 25.2,27.25 l 0.15,-0.2 0.25,-0.25 0.45,-0.2 0.15,-0.1 0.3,-0.1 h 0.4 v -0.05 l 0.4,0.05 h 0.35 l 0.35,0.05 0.1,0.05 0.1,0.1 0.15,0.1 0.25,0.35 0.05,0.3 -0.05,0.35 m -5.7,3.4 -0.05,-0.95 q 0,-0.25 0.15,-0.4 h 0.1 0.35 q 0.4,0.15 0.6,0.45 l 0.5,0.55 0.15,0.65 -0.05,0.5 -0.35,0.35 -0.75,0.1 Q 23.2,32.3 23,31.85 L 22.9,31.1"
         fill="#ffffff"
         fill-rule="evenodd"
         stroke="none"
         id="path10" />
    </g>
    <g
       id="shape2"
       transform="translate(2,2.05)">
      <path
         d="M -0.5,-0.4 V -0.55 H 75.1 V -0.4 40.8 H -0.5 Z"
         fill="none"
         stroke="#000000"
         stroke-linecap="round"
         stroke-linejoin="round"
         stroke-width="3"
         id="path11" />
    </g>
  </defs>
</svg>
