<?xml version="1.0" encoding="UTF-8" standalone="no"?>
<svg
   ffdec:objectType="frame"
   height="44.349998"
   width="78.599998"
   version="1.1"
   id="svg12"
   sodipodi:docname="277.svg"
   xmlns:inkscape="http://www.inkscape.org/namespaces/inkscape"
   xmlns:sodipodi="http://sodipodi.sourceforge.net/DTD/sodipodi-0.dtd"
   xmlns:xlink="http://www.w3.org/1999/xlink"
   xmlns="http://www.w3.org/2000/svg"
   xmlns:svg="http://www.w3.org/2000/svg"
   xmlns:ffdec="https://www.free-decompiler.com/flash">
  <sodipodi:namedview
     id="namedview12"
     pagecolor="#ffffff"
     bordercolor="#000000"
     borderopacity="0.25"
     inkscape:showpageshadow="2"
     inkscape:pageopacity="0.0"
     inkscape:pagecheckerboard="0"
     inkscape:deskcolor="#d1d1d1"
     fit-margin-top="5"
     fit-margin-left="5"
     fit-margin-right="5"
     fit-margin-bottom="5" />
  <g
     transform="translate(2,2.05)"
     id="g3">
    <use
       ffdec:characterId="1"
       height="42.700001"
       transform="translate(-1.75,-2)"
       width="76.449997"
       xlink:href="#shape0"
       id="use1" />
    <use
       ffdec:characterId="271"
       height="40.799999"
       transform="translate(-1.65,0.65)"
       width="76.349998"
       xlink:href="#shape1"
       id="use2" />
    <use
       ffdec:characterId="3"
       height="44.349998"
       transform="translate(-2,-2.05)"
       width="78.599998"
       xlink:href="#shape2"
       id="use3" />
  </g>
  <defs
     id="defs12">
    <g
       id="shape0"
       transform="translate(1.75,2)">
      <path
         d="M 2.8,0 V -0.4 H 5.4 V 0 H 9.7 V 19.45 0 H 20.55 L 19.3,19.45 H 9.7 0.25 V 0 H 2.8"
         fill="#ffffff"
         fill-rule="evenodd"
         stroke="none"
         id="path3" />
      <path
         d="M 0.25,19.45 H 9.7 19.3 L 18.7,28.6 16,28.5 10.95,27.95 9.7,27.8 Q 7.45,27.6 5.85,27.75 4.05,27.9 1.5,28.6 0.75,28.8 0.25,29.15 v -9.7 m 9.45,0 v 8.35 -8.35"
         fill="#121212"
         fill-rule="evenodd"
         stroke="none"
         id="path4" />
      <path
         d="m 9.7,27.8 1.25,0.15 5.05,0.55 2.7,0.1 h 1.05 l 3.75,0.15 q 2.45,0.3 3.6,1.25 0.6,0.5 0.6,1.1 0,0.65 -0.8,1 l -1.3,0.2 -7.15,0.15 -5.6,-0.3 L 9.7,31.75 7.95,31.6 3.1,31.95 0.95,32.3 0.25,32.1 -0.35,31.55 -0.5,31.3 V 29.9 L 0.25,29.15 Q 0.75,28.8 1.5,28.6 4.05,27.9 5.85,27.75 7.45,27.6 9.7,27.8 v 3.95 -3.95"
         fill="#999999"
         fill-rule="evenodd"
         stroke="none"
         id="path5" />
      <path
         d="M 2.8,0 H 0.25 M 9.7,0 H 5.4 m 16.15,0 h 10.7 M 20.55,0 H 9.7"
         fill="none"
         stroke="#666666"
         stroke-linecap="round"
         stroke-linejoin="round"
         stroke-width="4"
         id="path6" />
      <path
         d="m 9.7,-0.4 h 65 V 40.5 H 47.05 L 45.5,40.7 27,40.65 25.95,40.5 H 9.7 -0.5 V -0.4 H 9.7 V 40.5 -0.4"
         fill="#ffffff"
         fill-rule="evenodd"
         stroke="none"
         id="path7" />
    </g>
    <g
       id="shape1"
       transform="translate(1.65,-0.65)">
      <path
         d="m 37.8,33.3 0.3,0.1 q 0.05,0.65 0.75,1.05 l 2.05,0.25 1,-0.55 0.5,0.05 1.6,-0.05 0.45,-0.05 q 0.45,0.5 1.2,0.7 l 0.75,0.15 1.35,-0.05 q 0.75,-0.15 1.2,-0.6 L 49.7,32.95 V 32.9 l 0.25,-0.15 0.95,-0.85 0.9,-1.4 0.25,-0.7 0.25,-1 0.05,-1.75 L 52.2,26.2 51.8,25.35 51.4,24.7 51.75,24 q 0.4,-0.6 1.25,-0.95 0.5,-0.3 0.95,-0.25 l 1.3,0.8 1.25,0.85 1.4,0.4 q 1.75,0.2 2.9,-0.5 1.5,-0.85 1.65,-2.4 0.15,-0.95 -0.55,-1.9 -0.6,-0.85 -1.7,-1 l -1.25,-0.2 -1.1,-0.95 q -1,-0.95 -2.15,-1 -1.35,-0.15 -2.85,0.75 l -2.3,1.9 Q 49.6,20.4 49.2,21.15 L 48.65,20 48.55,19.8 q 2.25,-1.35 3.65,-3.4 1.7,-2.4 1.9,-5.05 0.1,-1.2 -0.2,-3.6 L 53.5,5.85 Q 53,4.5 51.35,2.75 50.45,1.65 49.65,1.6 l -1.3,0.3 Q 47.5,2.35 46.95,3.05 L 46.25,2.9 43.35,3.05 Q 42,3.25 41.2,3.6 L 38.75,5.2 Q 38.1,4.9 37.45,4.75 36.6,4.55 36,4.75 H 35.9 Q 35.05,4.95 34.55,6 L 34.3,6.85 Q 34.15,7.4 34.25,8.1 l 0.2,2.4 0.15,0.5 0.2,0.45 0.05,0.25 0.15,0.45 0.45,0.8 -0.15,0.75 q -0.25,2.25 1.4,4.05 1.3,1.45 3.5,2.2 l -0.05,0.2 q -0.4,0.3 -0.4,0.85 l -0.1,0.05 -0.35,0.75 -0.45,1.25 -0.2,0.45 -0.05,0.15 -0.9,0.3 -1.2,0.55 -0.95,0.8 -0.9,1.05 -0.5,1.7 -0.2,1.15 0.4,1.15 0.5,0.75 q 1.1,1.6 2.95,2.2 m 33.5,-7.95 h 2 0.1 l 0.25,0.05 h 0.1 l 0.15,0.05 0.2,0.1 0.1,0.1 0.1,0.05 0.1,0.1 0.05,0.05 0.05,0.1 0.05,0.05 0.05,0.1 v 0.05 l 0.05,0.1 v 0.05 l 0.05,0.1 v 0.1 0.05 0.1 0.05 0.1 l -0.05,0.05 v 0.1 L 74.6,27 v 0.1 l -0.05,0.1 -0.05,0.05 -0.05,0.1 -0.05,0.05 0.05,0.1 0.05,0.05 v 0.1 l 0.05,0.05 v 0.1 0.1 0.05 0.1 0.05 0.1 0.05 0.1 L 74.5,28.4 v 0.1 0.1 0.05 0.1 0.05 0.1 0.05 0.1 0.05 0.1 0.05 0.1 0.1 0.05 0.1 0.05 0.1 0.05 0.1 0.05 0.1 0.1 0.05 0.1 0.05 0.1 0.05 0.1 l -0.05,0.05 v 0.1 0.1 0.05 0.1 0.05 0.1 0.05 0.1 0.05 0.1 0.05 0.1 0.1 0.05 0.1 0.05 0.1 0.05 0.1 0.05 0.1 0.1 0.05 0.1 0.05 0.1 0.05 0.1 0.05 0.1 0.1 0.05 0.1 0.05 0.1 0.05 0.1 0.05 0.1 0.1 0.05 0.1 0.05 0.1 0.05 0.1 0.05 0.1 0.05 0.1 0.1 0.05 0.1 0.05 0.1 0.05 0.1 0.05 0.1 0.1 0.05 0.1 0.05 0.1 0.05 0.1 0.05 0.1 l -0.05,0.1 v 0.05 0.1 0.05 0.1 0.05 0.1 0.05 0.1 0.1 0.05 0.1 0.05 l -0.05,0.1 v 0.05 0.1 0.05 0.1 0.05 0.1 0.1 0.05 0.1 0.05 0.1 0.05 0.1 0.05 0.1 l -0.05,0.1 v 0.05 0.1 0.05 0.1 0.05 l -0.05,0.1 v 0.05 0.1 L 74.2,39 v 0.05 l -0.05,0.1 v 0.05 0.1 l -0.05,0.05 -0.05,0.1 v 0.05 l -0.1,0.1 -0.05,0.05 v 0.1 l -0.05,0.1 -0.1,0.05 -0.05,0.1 -0.1,0.05 -0.2,0.1 -0.1,0.05 h -0.1 l -0.1,0.1 -0.1,0.05 -0.1,0.1 -0.15,0.05 -0.05,0.05 H 72.6 L 72.5,40.6 H 72.25 72.2 71.8 L 71.55,40.55 H 71.4 L 70.7,40.5 H 70.4 L 70.05,40.45 H 69.6 68.35 68.1 67.2 62.7 62 58.65 l -3.7,0.05 h -2.1 l -12.5,0.05 H 35.4 L 32.75,40.5 H 31.7 L 29,40.45 h -9.8 -0.95 -3.2 l -0.9,0.05 h -1.8 L 11.4,40.55 H 10.2 L 8.25,40.6 H 5.3 L 3.8,40.55 H 3.1 2.9 2.45 L 2.1,40.5 Q 1.65,41 0.85,40.95 -0.25,40.85 -0.6,39.85 L -0.7,38.75 -0.55,28.5 -0.4,27 -0.45,26.95 -0.5,26.85 V 26.8 26.7 l -0.05,-0.05 0.05,-0.1 V 26.5 26.4 l 0.05,-0.1 v -0.05 l 0.1,-0.1 0.05,-0.05 0.15,-0.1 0.3,-0.05 H 0.4 L 0.45,25.9 1.2,25.75 H 1.3 1.55 L 2.9,25.7 H 3.45 L 4.4,25.65 H 4.9 5.4 6.1 L 6.4,25.6 6.85,25.55 h 0.6 L 7.65,25.5 H 7.9 l 0.5,-0.05 h 3.05 l -0.05,-0.6 q 0,-3.2 1.8,-5.85 1.9,-2.8 5.05,-3.55 1.9,-0.5 4,0 1.9,-0.4 3.3,-1.8 Q 25,12.9 23.5,12.9 L 19.05,13.15 14.6,13.5 Q 12.5,13.6 11.25,12.75 10.4,12.1 10,10.95 9.65,9.85 9.9,8.75 10.35,6.65 12.35,5.15 15.05,3 20.4,2.25 l 7.3,-0.5 q 4.15,0.2 8.05,1.65 L 36.6,3.3 37.75,3.4 38.5,3.5 39.05,3.1 Q 39.8,2.6 41.5,2 l 1.25,-0.4 3.35,0.15 1.75,-0.95 2.55,0.05 0.95,0.4 0.6,0.75 0.7,1.2 q 1.9,1.6 2.65,3.75 0.65,1.9 0.65,4.45 l -0.15,1.65 -0.35,1.45 -0.05,0.2 1.25,0.35 1.35,0.65 0.75,0.6 0.75,0.9 0.15,0.35 1.75,0.05 0.4,0.15 0.85,0.35 0.7,0.7 0.5,0.85 0.15,0.6 0.1,0.7 q 0.1,2.2 -1.4,4 l -0.35,0.4 H 71.3 M 37.8,12.2 37.7,10.7 Q 37.5,10.1 37.1,9.9 h -0.35 l 0.1,-2.3 0.95,0.55 1.05,0.25 q 0.95,-0.1 1.2,-1 L 40.1,6.6 41.15,6 41.85,5.85 44.3,5.5 l 1.65,0.05 1,0.25 0.7,-0.25 0.6,-0.7 0.05,-0.35 0.55,-0.4 q 1.95,2 2.1,5.6 l -0.1,1.65 q -0.3,1.9 -1.65,3.45 -1.3,1.4 -3.2,2.25 -1,0.4 -1.35,0.75 -0.45,0.55 -0.4,1.25 0.05,0.75 0.55,1.2 0.55,0.4 1.35,0.45 v 0.1 l 0.05,0.3 0.05,1.75 0.1,0.45 v 0.55 l 0.15,0.55 0.45,0.95 -0.45,-0.7 Q 46.35,24.45 46.35,24.1 L 46,22.6 45.9,21 45.2,20.7 Q 44.3,20.15 44.15,19.1 44,18.1 44.7,17.3 l 1.35,-0.85 1.4,-0.75 q 0.9,-0.6 1.65,-2.25 1.05,-2.2 1.2,-3.95 L 49.45,8.95 48.9,7.9 48.7,7.25 48.75,6.65 Q 48.4,5.95 48.6,5.25 L 48.45,5.05 48.3,5.15 48.2,5.6 47.5,6.75 46.25,7.3 45.25,7.2 44.25,6.95 42.85,6.9 41.7,7 40.95,7.25 40.85,8.3 q -0.35,1 -1.75,1 L 38.15,9.1 38,9.2 q 0.8,0.85 0.55,1.9 l -0.75,1.1 m 9.15,13.15 0.25,0.35 q 0.75,0.6 1.55,0.2 l 0.55,0.3 0.2,0.05 v 0.15 l -0.15,1.25 -0.15,0.7 -0.15,0.45 -0.3,0.6 -0.5,0.75 -0.6,0.6 q -0.35,0.4 -0.3,0.9 l -0.15,0.1 -0.4,0.2 -0.8,-0.05 -0.75,-0.2 -0.35,-0.1 -0.85,0.15 -1.6,0.35 -0.1,-0.1 -1.5,0.1 v 0.05 L 40.7,31.5 q -0.2,-0.45 -0.85,-0.75 l -1.1,-0.45 -1.2,-0.9 -0.3,-0.55 V 28.3 l 0.15,-0.65 0.75,-1.2 0.65,-0.65 0.4,-0.1 0.15,-0.1 0.85,0.2 q 0.55,0 1,-0.55 l 0.3,-0.65 0.3,-1.1 v 0.2 l -0.05,1.15 -0.25,0.6 2,-0.05 H 44 l 0.7,-0.05 h 2.25 m -4.6,-4 0.3,-1.2 0.05,-0.4 0.45,-1.05 -0.05,-0.6 q 0.35,0.5 0.35,1.25 L 43.1,20.6 42.35,21.35 M 55.95,20.2 56.4,20.75 55.95,20.4 55.5,20.15 55.1,20 l -0.8,-0.2 0.55,-0.05 0.65,0.1 0.45,0.35 m -2.7,3.95 -0.4,-0.25 0.4,0.9 0.15,0.55 H 55 l -1.75,-1.2 m 4.05,-2.7 v 0.05 l 0.3,0.1 0.1,0.05 0.45,0.15 -0.5,-0.1 -0.25,-0.1 -0.05,-0.05 -0.1,-0.05 v -0.05 h 0.05 m -27.25,4 h 3.35 l 0.55,-0.8 1.7,-1.45 q 0.85,-0.55 1.85,-0.75 l 0.35,-0.15 0.2,-0.5 q 0.05,-0.5 0.25,-0.9 l -0.75,-0.35 q -1.1,-0.6 -2,-1.85 Q 34.5,17.35 34,15.5 l -0.15,-1.5 0.2,-1.3 0.05,-0.05 -0.45,-0.4 q -1.3,-1.3 -1.2,-3.15 L 32.7,7.75 32.75,7.4 18.35,6.95 15.9,7.6 q -1.4,0.65 -2.25,1.65 -0.35,0.35 -0.3,0.65 0.05,0.35 0.55,0.55 l 2.9,0.4 3,-0.4 q 1.85,-0.2 3.95,-0.05 1.65,0.1 2.65,0.65 1.4,0.7 1.5,2.1 0.1,1.35 -1.1,2.25 -0.8,0.7 -2.35,1.05 H 24.4 l 1.6,1.7 1,1.65 0.35,1.2 0.25,1.55 q 0.15,1.5 -0.25,2.9 h 2.7 M 19.15,20.5 q -1,0.4 -1.65,1.3 -0.65,0.95 -0.75,2 l 0.1,1.6 v 0.05 H 23.2 V 24.8 L 22.6,22.5 Q 22.25,21.2 21.5,20.65 L 19.15,20.5 m -11,-4.6 Q 7.45,16 6.9,16.25 6.25,16.6 6.05,17.15 l 0.6,1 Q 6.75,18.8 6.5,19.3 L 5.75,20.15 4.6,20.4 Q 3.8,20.25 3.3,19.6 2.8,19 2.7,18.15 2.45,16.6 3.4,15.4 L 4,14.7 q 0.95,-0.8 1.95,-1.15 l 1,-0.2 q 2.8,-0.4 4.8,1.6 l 0.5,0.6 0.4,1 0.15,0.85 -0.25,0.8 q -0.35,0.35 -0.65,0.15 -0.25,-0.15 -0.25,-0.5 l -0.35,-0.9 -0.95,-0.7 -0.9,-0.35 q -0.7,-0.15 -1.3,0"
         fill="#999999"
         fill-rule="evenodd"
         stroke="none"
         id="path8" />
      <path
         d="m 37.8,33.3 q -1.85,-0.6 -2.95,-2.2 l -0.5,-0.75 -0.4,-1.15 0.2,-1.15 0.5,-1.7 0.9,-1.05 0.95,-0.8 1.2,-0.55 0.9,-0.3 0.05,-0.15 0.2,-0.45 0.45,-1.25 0.35,-0.75 0.1,-0.05 q 0,-0.55 0.4,-0.85 l 0.05,-0.2 Q 38,19.2 36.7,17.75 35.05,15.95 35.3,13.7 L 35.45,12.95 35,12.15 34.85,11.7 34.8,11.45 34.6,11 34.45,10.5 34.25,8.1 Q 34.15,7.4 34.3,6.85 L 34.55,6 Q 35.05,4.95 35.9,4.75 H 36 q 0.6,-0.2 1.45,0 0.65,0.15 1.3,0.45 L 41.2,3.6 Q 42,3.25 43.35,3.05 l 2.9,-0.15 0.7,0.15 q 0.55,-0.7 1.4,-1.15 l 1.3,-0.3 q 0.8,0.05 1.7,1.15 1.65,1.75 2.15,3.1 l 0.4,1.9 q 0.3,2.4 0.2,3.6 -0.2,2.65 -1.9,5.05 -1.4,2.05 -3.65,3.4 l 0.1,0.2 0.55,1.15 q 0.4,-0.75 1.35,-1.6 l 2.3,-1.9 q 1.5,-0.9 2.85,-0.75 1.15,0.05 2.15,1 l 1.1,0.95 1.25,0.2 q 1.1,0.15 1.7,1 0.7,0.95 0.55,1.9 -0.15,1.55 -1.65,2.4 -1.15,0.7 -2.9,0.5 l -1.4,-0.4 -1.25,-0.85 -1.3,-0.8 Q 53.5,22.75 53,23.05 52.15,23.4 51.75,24 l -0.35,0.7 0.4,0.65 0.4,0.85 0.15,0.85 -0.05,1.75 -0.25,1 -0.25,0.7 -0.9,1.4 -0.95,0.85 -0.25,0.15 v 0.05 l -0.75,1.35 q -0.45,0.45 -1.2,0.6 L 46.4,34.95 45.65,34.8 Q 44.9,34.6 44.45,34.1 L 44,34.15 42.4,34.2 41.9,34.15 40.9,34.7 38.85,34.45 Q 38.15,34.05 38.1,33.4 L 37.8,33.3 M 46.95,25.35 46.5,24.4 46.35,23.85 V 23.3 L 46.25,22.85 46.2,21.1 46.15,20.8 V 20.7 Q 45.35,20.65 44.8,20.25 44.3,19.8 44.25,19.05 44.2,18.35 44.65,17.8 45,17.45 46,17.05 47.9,16.2 49.2,14.8 50.55,13.25 50.85,11.35 L 50.95,9.7 Q 50.8,6.1 48.85,4.1 l -0.55,0.4 -0.05,0.35 -0.6,0.7 -0.7,0.25 -1,-0.25 L 44.3,5.5 41.85,5.85 41.15,6 40.1,6.6 40.05,7.4 q -0.25,0.9 -1.2,1 L 37.8,8.15 36.85,7.6 36.75,9.9 h 0.35 q 0.4,0.2 0.6,0.8 l 0.1,1.5 v 0.35 l 0.35,0.9 q 1.1,2.45 3.3,3.35 l 0.95,0.35 q 0.55,0.4 0.7,0.95 l 0.05,0.6 -0.45,1.05 -0.05,0.4 -0.3,1.2 -0.55,2.15 -0.3,1.1 -0.3,0.65 q -0.45,0.55 -1,0.55 l -0.85,-0.2 -0.15,0.1 -0.4,0.1 -0.65,0.65 -0.75,1.2 -0.15,0.65 v 0.55 l 0.3,0.55 1.2,0.9 1.1,0.45 q 0.65,0.3 0.85,0.75 l 0.15,0.65 V 32.1 l 1.5,-0.1 0.1,0.1 1.6,-0.35 0.85,-0.15 0.35,0.1 0.75,0.2 0.8,0.05 0.4,-0.2 0.15,-0.1 q -0.05,-0.5 0.3,-0.9 l 0.6,-0.6 0.5,-0.75 0.3,-0.6 0.15,-0.45 0.15,-0.7 0.15,-1.25 V 26.25 L 49.3,26.2 48.75,25.9 q -0.8,0.4 -1.55,-0.2 l -0.25,-0.35 m 9,-5.15 -0.45,-0.35 -0.65,-0.1 -0.55,0.05 0.8,0.2 0.4,0.15 0.45,0.25 0.45,0.35 -0.45,-0.55 m 1.35,1.25 h -0.05 v 0.05 l 0.1,0.05 0.05,0.05 0.25,0.1 0.5,0.1 -0.45,-0.15 -0.1,-0.05 -0.3,-0.1 v -0.05"
         fill="#ffffff"
         fill-rule="evenodd"
         stroke="none"
         id="path9" />
      <path
         d="m 67.95,4.25 h 0.85 l 0.4,0.4 0.05,0.6 -0.55,0.65 -1.55,1.3 0.75,1.7 0.25,0.9 q 0,0.55 -0.4,0.75 L 67.05,10.5 66.45,10.05 65.4,9.2 65.15,9.1 64.85,9.2 q -0.75,0.55 -1.15,1 L 63,10.85 62.2,10.7 Q 61.85,10.35 61.9,9.85 L 62.25,9 63.1,7.25 62.05,6.35 61.45,6 61.05,5.45 Q 61,5.1 61.35,4.8 61.8,4.4 62.65,4.45 l 0.75,0.1 0.65,-0.05 0.65,-1.55 0.5,-0.4 h 0.15 l 0.4,0.1 0.3,0.45 0.1,0.3 0.25,0.9 1.55,-0.05 m -7.8,4.8 q -0.1,0.55 -0.7,0.65 -0.65,0 -0.8,-0.5 L 58.6,8.45 57.8,8.4 57.45,7.95 Q 57.4,7.6 57.6,7.35 l 0.6,-0.25 0.6,-0.05 0.05,-0.3 0.05,-0.1 q 0,-0.5 0.6,-0.5 0.5,0 0.6,0.55 l -0.05,0.4 v 0.05 l 0.6,0.15 0.4,0.5 -0.3,0.65 -0.55,0.2 -0.05,0.4 m -16.2,-5.4 q 1.35,-0.2 3,0.45 l 0.2,-0.25 1.3,-1.2 1.55,0.1 0.8,0.8 q 1.45,2.15 1.9,4.7 0.3,1.45 0.25,2.9 l -0.05,0.75 -0.05,0.45 -0.2,1 -0.5,1.6 q -0.9,2.1 -2.8,3.15 -0.95,0.65 -2.25,1 l 0.7,2.6 0.45,1.65 0.4,0.05 0.35,-0.6 q 1.35,-2.5 2.6,-3.65 1.95,-1.75 4.1,-1.3 l 2.3,1.3 1,0.7 0.85,0.05 Q 61,20 61.5,21 q 0.5,1.05 -0.2,2 -0.75,1 -2.6,1.1 l -1.95,-0.3 q -1.05,-0.45 -2.1,-1.65 l -0.5,-0.4 -0.55,0.05 q -1.15,0.4 -1.9,1.1 l -0.85,1 -0.4,0.5 0.8,1.25 0.2,1.35 q -0.1,1.7 -0.75,3.2 l -0.55,0.85 -0.9,0.95 -0.3,0.75 q -0.4,0.85 -1.3,1.2 l -1.8,0.05 -1.3,-0.55 -0.6,0.05 H 42 l -0.35,0.3 -1.15,0.45 q -0.65,0 -1.15,-0.35 -0.5,-0.35 -0.7,-1 v -0.1 l -1.5,-0.85 -1,-0.95 -0.5,-0.95 q -0.5,-1.45 -0.15,-2.7 0.35,-1.5 1.35,-2.3 0.55,-0.5 1.85,-1.1 l 0.85,-0.35 h 0.05 l 0.05,-0.15 1.35,-3.1 0.3,-0.9 V 19 L 41.05,18.9 Q 38.7,18.2 37.3,16.2 36.05,14.6 35.9,12.55 L 35.75,12.1 35.5,11.5 Q 34.9,10.05 35.2,7.55 35.4,6.2 35.95,5.75 36.55,5.25 37.2,5.5 l 0.5,0.2 0.65,0.15 0.35,0.1 1.5,-1.05 Q 41.1,4.45 42,4.15 l 1.95,-0.5 M 41.45,12 41.35,11 40.8,10.85 39.8,10.3 39.3,9.6 38.7,9.7 q -0.7,0.25 -1.1,0.8 -0.85,1.25 0,2.45 l 1,0.75 1.25,0.1 q 1.45,-0.35 1.6,-1.8 m 3.45,2.05 1,-0.05 0.75,-0.55 0.2,-0.9 -0.3,-1 q -0.3,-0.4 -0.7,-0.25 -0.2,0.05 -0.25,0.35 l 0.05,0.45 0.2,0.55 q -0.4,0.25 -0.8,0 L 44.6,12.3 44,12.4 43.65,12.95 H 43.3 l -0.2,-0.3 0.15,-0.5 Q 43.4,11.75 43.1,11.7 h -0.25 q -0.35,0.2 -0.55,0.85 l -0.1,0.5 q 0,0.65 0.7,1 0.55,0.25 1.2,0 l 0.4,-0.1 0.4,0.1 m 6.45,-4.2 Q 51.3,9.05 50.65,8.45 50,7.85 49.15,7.85 L 48.7,7.9 48.5,8.45 Q 48,9.85 47,10.5 q 0.15,0.9 1,1.45 1.15,0.65 2.3,0 1.2,-0.75 1.05,-2.1 M 13.4,19.9 q 0.45,-0.85 1.45,-1.85 l 1.4,-1.1 q 1.65,-1.05 4.3,-0.8 1.55,0.1 2.55,0.7 l 1.25,1.1 q 1.1,1.15 1.65,2.75 0.95,2.65 0.3,5.65 -0.8,4.05 -3.7,5.4 l -0.7,0.25 -1.15,0.55 -9,4.35 q -5.4,2.6 -9.15,4.05 -2,0.8 -3.1,0.3 l -0.9,-0.9 q -0.35,-0.7 -0.2,-1.35 0.15,-0.95 1.7,-2.2 6.3,-5.05 10.1,-7.7 1.3,-0.9 2.45,-1.5 l -0.1,-0.5 -0.2,-2.75 q 0.2,-2.9 1.05,-4.45"
         fill="#000000"
         fill-rule="evenodd"
         stroke="none"
         id="path10" />
      <path
         d="m 51.35,9.85 q 0.15,1.35 -1.05,2.1 -1.15,0.65 -2.3,0 Q 47.15,11.4 47,10.5 48,9.85 48.5,8.45 L 48.7,7.9 49.15,7.85 q 0.85,0 1.5,0.6 0.65,0.6 0.7,1.4 m -6.45,4.2 -0.4,-0.1 -0.4,0.1 q -0.65,0.25 -1.2,0 -0.7,-0.35 -0.7,-1 l 0.1,-0.5 q 0.2,-0.65 0.55,-0.85 h 0.25 q 0.3,0.05 0.15,0.45 l -0.15,0.5 0.2,0.3 h 0.35 L 44,12.4 l 0.6,-0.1 0.45,0.35 q 0.4,0.25 0.8,0 L 45.65,12.1 45.6,11.65 q 0.05,-0.3 0.25,-0.35 0.4,-0.15 0.7,0.25 l 0.3,1 -0.2,0.9 -0.75,0.55 -1,0.05 M 41.45,12 q -0.15,1.45 -1.6,1.8 l -1.25,-0.1 -1,-0.75 q -0.85,-1.2 0,-2.45 0.4,-0.55 1.1,-0.8 l 0.6,-0.1 0.5,0.7 1,0.55 0.55,0.15 0.1,1"
         fill="#ffffff"
         fill-rule="evenodd"
         stroke="none"
         id="path11" />
    </g>
    <g
       id="shape2"
       transform="translate(2,2.05)">
      <path
         d="M -0.5,-0.4 V -0.55 H 75.1 V -0.4 40.8 H -0.5 Z"
         fill="none"
         stroke="#000000"
         stroke-linecap="round"
         stroke-linejoin="round"
         stroke-width="3"
         id="path12" />
    </g>
  </defs>
</svg>
