<?xml version="1.0" encoding="UTF-8" standalone="no"?>
<svg
   ffdec:objectType="frame"
   height="60.549999"
   width="67.099998"
   version="1.1"
   id="svg8"
   sodipodi:docname="312.svg"
   xmlns:inkscape="http://www.inkscape.org/namespaces/inkscape"
   xmlns:sodipodi="http://sodipodi.sourceforge.net/DTD/sodipodi-0.dtd"
   xmlns:xlink="http://www.w3.org/1999/xlink"
   xmlns="http://www.w3.org/2000/svg"
   xmlns:svg="http://www.w3.org/2000/svg"
   xmlns:ffdec="https://www.free-decompiler.com/flash">
  <sodipodi:namedview
     id="namedview8"
     pagecolor="#ffffff"
     bordercolor="#000000"
     borderopacity="0.25"
     inkscape:showpageshadow="2"
     inkscape:pageopacity="0.0"
     inkscape:pagecheckerboard="0"
     inkscape:deskcolor="#d1d1d1"
     fit-margin-top="5"
     fit-margin-left="5"
     fit-margin-right="5"
     fit-margin-bottom="5" />
  <g
     transform="translate(1.5,1.5)"
     id="g3">
    <use
       ffdec:characterId="516"
       height="57.549999"
       width="64.099998"
       xlink:href="#shape0"
       id="use1" />
    <use
       ffdec:characterId="815"
       height="58.75"
       transform="translate(0.4,-1.1)"
       width="63.150002"
       xlink:href="#shape1"
       id="use2" />
    <use
       ffdec:characterId="518"
       height="60.549999"
       transform="translate(-1.5,-1.5)"
       width="67.099998"
       xlink:href="#shape2"
       id="use3" />
  </g>
  <defs
     id="defs8">
    <g
       id="shape0">
      <path
         d="M 53.6,0 H 64.1 V 57.55 H 53.6 28.25 0 V 0 H 28.25 53.6 V 57.55 0 M 28.25,0 V 57.55 0"
         fill="#ffffff"
         fill-rule="evenodd"
         stroke="none"
         id="path3" />
    </g>
    <g
       id="shape1"
       transform="translate(-0.4,1.1)">
      <path
         d="m 13.2,5.2 v 0.45 l 0.05,0.65 0.1,0.3 -0.1,0.3 L 12.6,6.65 11.8,5.65 11.7,5.4 11.55,5.25 11.15,4.75 Q 10.9,4.25 10.9,3.4 l 0.05,-0.75 0.15,-0.75 0.6,-1.4 0.45,-0.6 0.6,-0.65 1.05,-0.25 0.55,0.05 q 0.9,0.15 1.25,1 0.4,0.75 0.05,1.6 L 14.85,2.45 14,3.35 13.85,3.85 13.5,4.65 13.2,5.2 M 24.65,4.9 24.9,4.1 25,3.4 25.35,2.65 Q 26.8,0.35 29.1,-0.7 l 1,-0.35 Q 31.2,-1.2 32,-0.5 32.9,0.3 32.55,1.35 32.25,2.55 30.7,3 l -1.6,0.55 -1.45,1.1 -1.7,1.6 -0.4,0.55 -0.4,0.3 -0.4,0.15 -0.2,-0.95 V 5.5 l 0.1,-0.6 m 34.3,8.7 1,-0.05 1.55,0.2 0.7,0.9 0.2,0.35 0.05,0.6 -0.1,0.95 -0.1,0.35 -0.15,0.35 -0.45,0.7 -0.6,0.6 -0.55,0.25 -0.8,0.3 h -0.05 l -0.45,0.1 -0.15,0.15 -2.35,0.7 H 56.5 L 55.05,17.95 54.7,17.3 54.3,16.35 54.1,16 54.05,15.4 54.25,14.2 54.4,13.95 Q 54.4,13.5 55,13 l 0.65,-0.45 0.65,-0.2 0.65,-0.1 q 1.35,0.1 1.85,1.25 l 0.1,0.15 0.05,-0.05 m 1.65,1.8 -0.35,-0.05 -0.8,0.05 -0.6,0.3 -0.2,0.05 -0.25,0.1 q -0.4,0.1 -0.6,-0.2 L 57.7,15.3 v -0.1 l -0.05,-0.15 q -0.1,-0.4 -0.4,-0.55 L 56.6,14.4 q -0.3,0 -0.55,0.15 l -0.1,0.2 -0.15,0.2 -0.15,0.95 0.85,1.2 0.4,0.4 0.4,0.2 0.15,0.25 h 0.4 l 0.2,-0.1 1.4,-0.6 1.15,-0.35 0.2,-0.8 V 15.95 L 60.6,15.4 M 51.3,3.75 Q 52.45,2.7 53.2,2.6 l 1.2,0.1 q 0.65,0.1 1.2,0.35 l 0.8,0.6 q 0.8,0.8 1.1,1.75 l 0.25,1.75 -0.15,1.2 -0.6,1 -2.2,2.15 -3.5,2.3 0.2,-0.15 -0.65,0.45 -0.8,0.3 -1,-0.4 -2.5,-1.85 -0.8,-0.8 L 44.9,10 44.25,8.75 Q 43.6,6.8 44.9,4.8 l 0.8,-1 q 1.25,-0.95 3,-0.7 l 1.05,0.3 0.8,0.7 0.25,0.25 0.5,-0.6 m 2.3,6.05 q 1.1,-0.8 1.7,-1.55 1,-1.2 0.65,-2.2 L 55.65,5.45 55.1,4.95 54.2,4.65 53.6,4.7 52.9,5.1 52,6.15 51.75,6.85 51.35,7.3 51.25,7.4 50.8,7.75 50.1,7.35 49.4,6.6 48.8,5.85 q -0.35,-0.3 -0.85,-0.25 -0.5,0 -0.85,0.3 -0.3,0.3 -0.5,0.9 -0.15,0.3 -0.15,0.65 l 0.2,0.75 q 0.75,1.4 2.05,2.4 l 1.65,1.25 0.65,-0.1 2.6,-1.95 m -25.5,0.3 3.3,-2.7 q 0.9,-0.6 2,-1 1.1,-0.45 2.3,-0.55 1.35,0 2.7,0.85 1.7,1.05 1.7,2.5 0,1.1 -0.9,1.75 -0.85,0.6 -1.9,0.45 L 35.45,10.65 Q 34.3,10.05 33.6,10.1 l -1.7,0.45 -2.3,0.6 -0.7,0.4 -0.45,0.1 -0.55,0.2 q -0.35,0.1 -0.6,-0.15 -0.3,-0.4 0.2,-1 l 0.6,-0.6 m -13.4,20.6 0.55,1.05 1.1,1.65 0.55,0.6 0.9,0.55 0.85,0.05 q 0.8,0.05 1.45,0.6 0.65,0.55 0.8,1.3 0.2,0.8 -0.25,1.55 -0.4,0.75 -1.15,1.05 l -1.3,0.2 -0.95,-0.15 -0.8,-0.35 -0.7,-0.45 -1,-1 -0.55,-0.8 -0.65,-1.2 -0.3,-0.85 Q 13.1,34.1 13.1,33.3 l 0.05,-1.25 0.5,-1.35 0.2,-0.45 0.4,-0.25 q 0.2,0 0.3,0.25 l 0.15,0.45 m -7.8,-3.05 0.25,1.05 0.3,0.75 0.85,1.5 0.8,0.9 q 0.45,0.55 0.45,1.35 0,0.75 -0.45,1.3 -0.45,0.55 -1.2,0.7 L 6.5,35 5.75,34.4 5.2,33.7 4.7,32.45 4.3,30.55 4.35,29.35 4.5,28.7 l 0.55,-1.65 0.4,-0.9 0.7,-1 0.3,-0.1 0.25,0.1 0.2,2.5 m 5,12.85 q 0.3,0.65 1.15,1.4 l 0.8,0.6 2,0.55 q 0.85,0.3 1.25,1.15 0.45,0.85 0.15,1.7 -0.3,1.05 -1.35,1.45 l -2,0.1 -1.3,-0.6 -0.65,-0.45 Q 10.05,45.1 9.5,42.85 l -0.15,-0.9 0.1,-1.25 0.7,-2.4 0.1,-0.45 q 0.15,-0.4 0.6,-0.4 l 0.55,0.45 0.15,1.35 0.35,1.25 m 18.75,7.8 -0.2,0.65 -0.7,1.45 -1.4,0.75 -0.5,0.05 -0.3,0.3 q -0.5,0.65 -1.35,0.9 l -1.6,-0.15 q -1,-0.4 -1.5,-1.7 -0.35,-1 -0.35,-2.3 0,-1.15 0.15,-1.7 0.25,-0.95 0.8,-1.5 l 0.85,-0.65 q 0.8,-0.4 1.6,-0.55 l 2.25,0.3 q 1.1,0.5 1.7,1.45 0.85,1.35 0.55,2.7"
         fill="#999999"
         fill-rule="evenodd"
         stroke="none"
         id="path4" />
      <path
         d="m 38.8,22.95 q -0.3,-0.3 -0.65,0 -0.2,0.15 -0.3,0.65 -0.25,1 0.05,1.9 l 0.35,0.5 0.75,0.15 0.9,-0.05 0.65,-0.45 q 0.6,-0.8 0.3,-2.8 l -0.2,-1 -0.2,-0.45 -0.45,-0.05 -0.1,0.5 0.15,0.75 0.05,0.7 q 0,0.75 -0.4,1.3 l -0.45,0.4 -0.6,-0.1 q 0,-0.6 0.15,-1.2 0.2,-0.5 0,-0.75 m 13.25,17.9 q -2.55,4.6 -7.25,6.75 l -0.85,0.4 -0.2,2.55 -0.2,1.45 -0.65,2.5 0.55,-0.35 2.1,-1.95 3.85,-4.15 q 2.85,-3.15 4.85,-4.2 3.45,-1.8 6.2,-0.35 1.5,0.85 2.3,2.35 0.7,1.3 0.8,2.75 0.1,1.5 -0.55,2.7 -0.8,1.3 -1.85,1.65 L 59.5,53 Q 58.7,52.75 58.15,52.15 57.6,51.5 57.5,50.65 57.35,49.8 57.75,49.05 l 0.1,-0.5 q -0.05,-0.3 -0.65,-0.3 -1.1,0.15 -2.35,1.1 l -2.75,2.45 -2.6,2.7 -3.85,3.15 h -21.9 q -0.5,-1.05 0.2,-2 0.35,-0.5 1.2,-0.95 l 0.55,-0.3 h -0.1 l -2.25,0.25 q -1.6,-0.2 -3.15,-1.9 -1,-1.05 -1.25,-2.15 -0.35,-1.2 0.1,-2.7 0.55,-1.95 1.8,-2.8 0.95,-0.65 2.25,-0.65 2.05,-0.1 3.5,1.15 1.6,1.4 1.5,3.35 1.45,-0.25 3.15,-1.6 l 0.2,-0.1 Q 29.2,46.05 27.1,44.1 l -2.45,-2.8 q -1.95,-3.25 -1.8,-7.85 0.15,-5 2.45,-9.05 0.85,-1.5 1.9,-2.7 l 0.15,-3.35 0.45,-1.95 q 0.45,-1.05 1.3,-1.4 l 1.9,-0.05 4.1,1 1.95,0.75 4,0.3 3.9,1.3 q 1.2,0.45 2.2,1 l 2,-1.65 0.9,-1.05 1.05,-0.8 1.5,-0.15 q 0.75,0.2 1.2,0.8 0.35,0.45 0.7,1.95 l 0.85,4.75 0.3,2 0.05,2.5 q -0.15,6 -2.1,10.25 l -0.65,1.1 -0.9,1.85 m -9.6,-9.25 -0.05,0.5 q -0.1,0.95 0.7,1.55 l 1,0.4 0.9,-0.1 0.4,-0.25 0.3,-0.35 0.35,-0.85 0.15,-0.5 0.05,-1.15 0.1,-0.3 0.1,-1.2 -0.15,-0.75 -0.2,-0.5 -0.15,-0.6 -0.25,-0.6 -0.25,0.9 v 0.1 l 0.15,1.25 -0.2,1.5 -0.15,0.6 -0.4,0.45 -0.65,0.25 h -0.05 l -0.6,-0.25 q -0.5,-0.4 -0.25,-1 l 0.05,-0.5 0.2,-0.55 q 0,-0.45 -0.35,-0.35 l -0.3,0.4 -0.2,0.35 -0.05,0.35 -0.2,1.2 m -2.65,8.75 q 2.8,0.85 4.8,-0.7 l 0.75,-0.75 -0.8,0.2 -3.15,0.3 q -1.7,0 -3.05,-0.7 L 38.1,38.55 37.8,38.4 37.4,38.15 37.15,37.9 l -0.1,-0.05 0.05,0.1 q 0.55,1.2 1.55,1.85 l 1.15,0.55 M 25.15,19.1 23.8,22 q -1.2,2.1 -2.6,3.4 l -1.5,1.45 q -1.2,0.65 -3.35,0.75 l -3.4,-0.25 q -2.3,-0.6 -4.45,-2.6 L 5,20.85 0.95,16.4 0.4,15.8 V 4.85 l 7.65,4.6 3.55,2.05 0.45,-0.7 q 2.15,-2.8 4.4,-3.35 1.4,-0.4 3.4,0.05 1.55,0.3 2.4,0.75 1.65,0.85 2.65,2.7 0.95,1.7 1,3.7 l -0.35,3.2 -0.15,-0.55 q -0.2,-0.6 -0.8,-0.95 l -1.25,-0.2 q -0.65,0.15 -1.05,0.7 -0.45,0.5 -0.45,1.15 0,1.25 1.15,1.65 1.1,0.5 1.95,-0.35 l 0.2,-0.2 m -8.25,6.3 1.85,-0.25 q 1,-0.4 1.5,-1.35 l 0.4,-1 0.4,-2.1 q -0.15,-1.55 -1.5,-2.55 l -0.7,-0.4 -0.95,-0.15 q -1.3,-0.1 -2.2,0.6 l -0.5,0.45 q -1.25,1.3 -1.55,2.65 -0.35,1.7 0.65,2.9 l 0.6,0.5 0.9,0.55 1.1,0.15 m 4,-10 1.05,-0.8 0.45,-1.2 q 0.1,-1.55 -1.25,-2.2 -0.6,-0.35 -1.3,-0.25 -0.7,0.1 -1.2,0.5 -0.5,0.4 -0.75,1.1 -0.2,0.65 -0.05,1.3 0.35,0.95 1.2,1.45 l 1.85,0.1 m 7.15,12.65 q 0.45,-0.5 0.5,-1 0.2,-0.65 -0.2,-1.1 -0.65,0.4 -1,0.95 l -0.45,0.4 q 0.25,-1.95 1.45,-3.4 l 0.4,-0.35 0.15,-0.2 q 0,-0.25 -0.4,0 l -1.95,1.7 -0.95,1.3 q -0.4,0.8 -0.15,1.65 l 0.5,0.55 0.85,0.15 0.75,-0.15 0.5,-0.5 m 3.25,15.3 0.8,-0.15 0.5,0.5 q 1.05,0.85 1.95,0.8 1,0 1.5,-0.95 0.5,-0.7 0.4,-1.75 l -0.1,-0.85 q -0.05,0.7 -0.5,1.25 -0.7,1 -1.85,0.85 -0.85,-0.1 -1.2,-0.85 l -0.15,-0.6 -1.2,0.3 q -1.25,-0.1 -1.65,-1.25 -0.3,-0.8 0.3,-1.8 l -0.45,0.4 q -0.75,1.15 -0.7,2 0.1,0.9 0.75,1.5 0.65,0.5 1.6,0.6 m -1.15,-6 0.25,-0.2 H 28.85 L 27,36.7 q -0.85,-0.3 -2.45,-1.45 0.3,1.4 1.55,2.15 1.3,0.85 2.9,0.45 l 1.15,-0.5 M 15.3,16.8 q 0.7,-0.55 0.7,-1.5 0,-0.9 -0.7,-1.45 -0.55,-0.45 -1.35,-0.4 -0.75,0.1 -1.25,0.6 -0.5,0.55 -0.5,1.3 0,0.8 0.5,1.3 0.5,0.5 1.25,0.55 l 1.35,-0.4"
         fill="#000000"
         fill-rule="evenodd"
         stroke="none"
         id="path5" />
      <path
         d="M 39.8,40.35 38.65,39.8 q -1,-0.65 -1.55,-1.85 l -0.05,-0.1 0.1,0.05 0.25,0.25 0.4,0.25 0.3,0.15 0.25,0.15 q 1.35,0.7 3.05,0.7 l 3.15,-0.3 0.8,-0.2 -0.75,0.75 q -2,1.55 -4.8,0.7 m -14.25,-22.5 -0.4,1.25 -0.2,0.2 Q 24.1,20.15 23,19.65 21.85,19.25 21.85,18 q 0,-0.65 0.45,-1.15 0.4,-0.55 1.05,-0.7 l 1.25,0.2 q 0.6,0.35 0.8,0.95 l 0.15,0.55 M 20.9,15.4 19.05,15.3 q -0.85,-0.5 -1.2,-1.45 -0.15,-0.65 0.05,-1.3 0.25,-0.7 0.75,-1.1 0.5,-0.4 1.2,-0.5 0.7,-0.1 1.3,0.25 1.35,0.65 1.25,2.2 l -0.45,1.2 -1.05,0.8 m -4,10 -1.1,-0.15 -0.9,-0.55 -0.6,-0.5 q -1,-1.2 -0.65,-2.9 0.3,-1.35 1.55,-2.65 l 0.5,-0.45 q 0.9,-0.7 2.2,-0.6 l 0.95,0.15 0.7,0.4 q 1.35,1 1.5,2.55 l -0.4,2.1 -0.4,1 q -0.5,0.95 -1.5,1.35 L 16.9,25.4 m -1.6,-8.6 -1.35,0.4 q -0.75,-0.05 -1.25,-0.55 -0.5,-0.5 -0.5,-1.3 0,-0.75 0.5,-1.3 0.5,-0.5 1.25,-0.6 0.8,-0.05 1.35,0.4 0.7,0.55 0.7,1.45 0,0.95 -0.7,1.5 M 30.15,37.35 29,37.85 q -1.6,0.4 -2.9,-0.45 -1.25,-0.75 -1.55,-2.15 1.6,1.15 2.45,1.45 l 1.85,0.45 h 1.55 l -0.25,0.2 m 1.15,6 q -0.95,-0.1 -1.6,-0.6 -0.65,-0.6 -0.75,-1.5 -0.05,-0.85 0.7,-2 l 0.45,-0.4 q -0.6,1 -0.3,1.8 0.4,1.15 1.65,1.25 l 1.2,-0.3 0.15,0.6 q 0.35,0.75 1.2,0.85 1.15,0.15 1.85,-0.85 0.45,-0.55 0.5,-1.25 l 0.1,0.85 q 0.1,1.05 -0.4,1.75 -0.5,0.95 -1.5,0.95 -0.9,0.05 -1.95,-0.8 l -0.5,-0.5 -0.8,0.15"
         fill="#ffffff"
         fill-rule="evenodd"
         stroke="none"
         id="path6" />
      <path
         d="m 38.8,22.95 q 0.2,0.25 0,0.75 -0.15,0.6 -0.15,1.2 l 0.6,0.1 0.45,-0.4 q 0.4,-0.55 0.4,-1.3 l -0.05,-0.7 -0.15,-0.75 0.1,-0.5 0.45,0.05 0.2,0.45 0.2,1 q 0.3,2 -0.3,2.8 L 39.9,26.1 39,26.15 38.25,26 37.9,25.5 q -0.3,-0.9 -0.05,-1.9 0.1,-0.5 0.3,-0.65 0.35,-0.3 0.65,0 m 3.65,8.65 0.2,-1.2 0.05,-0.35 0.2,-0.35 0.3,-0.4 q 0.35,-0.1 0.35,0.35 l -0.2,0.55 -0.05,0.5 q -0.25,0.6 0.25,1 l 0.6,0.25 h 0.05 l 0.65,-0.25 0.4,-0.45 0.15,-0.6 0.2,-1.5 -0.15,-1.25 v -0.1 l 0.25,-0.9 0.25,0.6 0.15,0.6 0.2,0.5 0.15,0.75 -0.1,1.2 -0.1,0.3 -0.05,1.15 -0.15,0.5 -0.35,0.85 -0.3,0.35 -0.4,0.25 -0.9,0.1 -1,-0.4 q -0.8,-0.6 -0.7,-1.55 l 0.05,-0.5 m -14.4,-3.55 -0.5,0.5 L 26.8,28.7 25.95,28.55 25.45,28 Q 25.2,27.15 25.6,26.35 l 0.95,-1.3 1.95,-1.7 q 0.4,-0.25 0.4,0 l -0.15,0.2 -0.4,0.35 q -1.2,1.45 -1.45,3.4 l 0.45,-0.4 q 0.35,-0.55 1,-0.95 0.4,0.45 0.2,1.1 -0.05,0.5 -0.5,1"
         fill="#999999"
         fill-rule="evenodd"
         stroke="none"
         id="path7" />
    </g>
    <g
       id="shape2"
       transform="translate(1.5,1.5)">
      <path
         d="M 0,23.8 V 0 H 64.1 V 23.8 57.55 H 0 Z"
         fill="none"
         stroke="#000000"
         stroke-linecap="round"
         stroke-linejoin="round"
         stroke-width="3"
         id="path8" />
    </g>
  </defs>
</svg>
