<?xml version="1.0" encoding="UTF-8" standalone="no"?>
<svg
   ffdec:objectType="frame"
   height="60.549999"
   width="67.099998"
   version="1.1"
   id="svg8"
   sodipodi:docname="291.svg"
   xmlns:inkscape="http://www.inkscape.org/namespaces/inkscape"
   xmlns:sodipodi="http://sodipodi.sourceforge.net/DTD/sodipodi-0.dtd"
   xmlns:xlink="http://www.w3.org/1999/xlink"
   xmlns="http://www.w3.org/2000/svg"
   xmlns:svg="http://www.w3.org/2000/svg"
   xmlns:ffdec="https://www.free-decompiler.com/flash">
  <sodipodi:namedview
     id="namedview8"
     pagecolor="#ffffff"
     bordercolor="#000000"
     borderopacity="0.25"
     inkscape:showpageshadow="2"
     inkscape:pageopacity="0.0"
     inkscape:pagecheckerboard="0"
     inkscape:deskcolor="#d1d1d1"
     fit-margin-top="5"
     fit-margin-left="5"
     fit-margin-right="5"
     fit-margin-bottom="5" />
  <g
     transform="translate(1.5,1.5)"
     id="g3">
    <use
       ffdec:characterId="516"
       height="57.549999"
       width="64.099998"
       xlink:href="#shape0"
       id="use1" />
    <use
       ffdec:characterId="794"
       height="56"
       transform="translate(3.75,1.25)"
       width="55.200001"
       xlink:href="#shape1"
       id="use2" />
    <use
       ffdec:characterId="518"
       height="60.549999"
       transform="translate(-1.5,-1.5)"
       width="67.099998"
       xlink:href="#shape2"
       id="use3" />
  </g>
  <defs
     id="defs8">
    <g
       id="shape0">
      <path
         d="M 53.6,0 H 64.1 V 57.55 H 53.6 28.25 0 V 0 H 28.25 53.6 V 57.55 0 M 28.25,0 V 57.55 0"
         fill="#ffffff"
         fill-rule="evenodd"
         stroke="none"
         id="path3" />
    </g>
    <g
       id="shape1"
       transform="translate(-3.75,-1.25)">
      <path
         d="m 56.8,10.6 0.3,0.05 0.2,0.1 0.15,0.1 0.55,0.4 0.5,1.15 0.15,0.95 0.25,0.65 q 0.2,0.5 -0.2,0.65 l -0.75,-0.2 -0.35,-0.3 v 0.05 0.1 0.1 0.1 0.1 0.1 0.15 0.1 0.1 0.1 0.1 0.1 0.1 0.1 0.1 0.1 0.1 0.1 0.1 0.1 l -0.05,0.1 v 0.1 0.1 0.1 0.1 0.1 0.1 0.1 0.1 0.1 0.1 0.1 0.1 0.1 0.1 0.15 0.1 0.1 0.1 0.1 0.1 0.1 0.1 0.1 0.1 0.1 0.1 0.1 0.1 0.1 0.1 0.1 0.1 0.1 0.1 0.1 0.1 0.1 0.1 l -0.05,0.1 v 0.1 0.1 0.1 0.1 0.1 0.15 0.1 0.1 l -0.05,0.1 v 0.1 0.1 0.1 0.1 0.1 0.1 0.1 0.1 0.1 0.1 l -0.05,0.1 v 0.1 0.1 0.1 0.1 0.1 0.1 0.1 l -0.05,0.1 v 0.1 0.1 0.1 0.1 0.1 0.1 0.15 0.1 0.1 0.1 l -0.05,0.1 v 0.1 0.1 0.1 l -0.05,0.1 v 0.1 l -0.05,0.1 -0.1,0.1 -0.1,0.05 -0.05,0.05 -0.15,0.05 -0.25,-0.1 -0.15,-0.1 -0.05,-0.1 -0.05,-0.1 v -0.1 -0.1 -0.1 -0.1 l -0.05,-0.1 v -0.1 -0.1 -0.1 -0.1 -0.1 l -0.05,-0.1 -0.05,-0.1 v -0.1 l -0.05,-0.1 0.05,-0.1 v -0.1 -0.1 -0.1 V 22.7 22.6 22.5 22.4 22.3 22.2 22.1 22 21.9 21.8 21.7 21.6 L 56.1,21.5 V 21.4 21.3 21.2 L 56.05,21.1 V 21 20.9 20.8 20.7 20.6 20.5 20.4 20.3 20.2 20.1 20 v -0.1 -0.1 -0.15 -0.1 -0.1 -0.1 -0.1 -0.1 -0.1 -0.1 -0.1 -0.1 -0.1 -0.1 -0.1 -0.1 -0.1 -0.1 -0.1 -0.1 -0.1 -0.1 -0.1 -0.1 -0.1 -0.1 -0.1 -0.1 -0.1 L 56,16.95 V 16.85 16.7 16.6 16.5 16.4 16.3 L 55.95,16.2 V 16.1 16 15.9 15.8 15.7 15.6 15.5 15.4 15.3 15.2 15.1 15 14.9 14.8 14.7 14.6 14.5 l -0.4,0.45 Q 55.2,15.1 54.9,14.6 54.75,14.3 54.85,13.85 l 0.2,-0.8 0.45,-1.25 q 0.15,-0.45 0.45,-0.75 l 0.1,-0.1 0.1,-0.1 0.15,-0.15 0.15,-0.05 0.1,-0.05 h 0.25 m -30.3,-4.85 3.1,-1 3.8,-0.25 0.45,0.05 2.75,-3 1.6,-0.1 q 0.7,0.3 1.25,1.1 l 1.5,2.3 0.45,0.95 0.9,2.15 1.85,3.05 q 0.85,2 1.1,3.75 0.4,3.1 -1.1,6.3 -1.45,3 -4.1,5 l -1.5,1.05 q 2.15,3.65 2.75,8.75 l 0.5,-1.15 1.3,-2.45 q 1.65,-2.7 3.7,-4 2.75,-1.6 5.35,-0.9 0.85,0.2 1.5,0.8 0.8,0.75 0.9,1.9 0.25,1.15 -0.45,1.9 -0.4,0.5 -1.5,0.75 l -2.9,-0.2 -1,-0.3 q -1.05,0 -1.95,1.35 -0.55,0.9 -1.95,3.75 -1.15,2.3 -2.4,3.45 l -1,0.85 q -0.1,2.8 -0.6,6.15 -0.1,1.4 -0.6,2 -0.5,0.7 -2.25,1.15 -5.85,1.35 -11.9,1.2 -2.05,0 -3,-0.65 -1.05,-0.65 -1.5,-2.1 -0.4,-1.3 -0.05,-2.65 0.2,-1.1 0.9,-2.55 l 1.25,-2.35 q 1.45,-2.9 2.5,-7.15 l 0.6,-2.3 -0.9,0.35 -4.35,0.8 -4.55,-0.15 -2.6,-0.4 Q 11.25,32.2 9.5,29.25 8.65,27.7 8.95,26.65 9.45,25.1 11,24.8 v -0.25 q 0.2,-0.6 0.65,-0.9 0.7,-0.6 1.55,-0.3 0.85,0.4 1.05,1.2 l 0.05,0.8 1.75,1.05 1.25,1 q 0.75,0.55 2.9,1 l 2.7,0.45 1.65,0.15 2.4,-0.6 0.5,-0.2 q -1.95,-0.4 -3.6,-1.15 -3.3,-1.6 -4.75,-4.5 -1.15,-2.15 -1,-4.85 L 18.3,15.9 17.7,14.35 17,13.3 16.4,11.8 q -0.45,-0.85 0,-1.75 0.4,-0.85 1.4,-0.95 l 1.6,-0.15 1.8,0.1 0.4,0.05 q 1.9,-2.05 4.9,-3.35 m 5.35,13.9 1.05,-0.15 0.05,0.1 0.3,0.5 0.05,0.15 -0.7,0.3 -0.25,-0.4 -0.5,-0.5 m 3.35,-2 -0.25,1 -0.35,-0.25 0.6,-0.75 M 23.6,18 q -0.05,-0.85 -0.75,-1.5 -0.65,-0.6 -1.5,-0.6 -0.85,0 -1.55,0.6 -0.7,0.6 -0.8,1.45 -0.05,0.85 0.45,1.55 0.55,0.75 1.35,0.95 l 1.6,-0.25 q 0.8,-0.4 1.1,-1.2 l 0.1,-1 m 5.5,0.4 -1.05,1 -0.9,0.35 L 26.4,19.7 26,19.45 25.7,18.85 q -0.35,-0.5 -0.95,-0.2 -0.5,0.35 -0.5,0.9 -0.15,1.25 1.3,1.95 l 2.5,0.3 0.35,0.05 0.35,0.25 q 1.05,0.95 3.1,0.75 1.35,-0.15 2.6,-0.85 l 1.55,-1.25 0.6,-0.7 q 0.8,-0.95 0.7,-2.2 -0.1,-1.2 -0.8,-2.15 -0.4,-0.55 -0.8,-0.75 L 34.65,14.9 q -0.35,0.15 -0.6,0.6 l -0.35,0.8 -1,1.05 -1.35,0.1 -0.75,-0.35 q -0.9,-0.3 -1.3,0.4 l -0.2,0.9 M 40,12.4 Q 40,11.65 39.55,11 39.1,10.3 38.4,10.1 l -1.45,0.05 q -0.75,0.3 -1.15,0.9 -0.35,0.65 -0.3,1.45 0.05,0.8 0.55,1.3 0.65,0.65 1.65,0.75 1,0 1.6,-0.7 Q 39.9,13.3 40,12.4 M 5.9,10.6 h 0.25 l 0.1,0.05 0.15,0.05 0.15,0.15 0.1,0.1 0.1,0.1 0.45,0.75 0.45,1.25 0.2,0.8 L 7.8,14.6 Q 7.5,15.1 7.15,14.95 L 6.75,14.5 v 0.1 0.1 0.1 0.1 0.1 0.1 0.1 0.1 0.1 0.1 0.1 0.1 0.1 0.1 0.1 0.1 0.1 L 6.7,16.3 v 0.1 0.1 0.1 0.1 0.15 0.1 l -0.05,0.1 v 0.1 0.1 0.1 0.1 0.1 0.1 0.1 0.1 0.1 0.1 0.1 0.1 0.1 0.1 0.1 0.1 0.1 0.1 0.1 0.1 0.1 0.1 0.1 0.1 0.1 0.1 0.15 0.1 0.1 0.1 0.1 0.1 0.1 0.1 0.1 0.1 0.1 0.1 0.1 0.1 L 6.6,21.2 v 0.1 0.1 0.1 l -0.05,0.1 v 0.1 0.1 0.1 0.1 0.1 0.1 0.1 0.1 0.1 0.1 0.1 0.15 0.1 0.1 0.1 l 0.05,0.1 -0.05,0.1 v 0.1 l -0.05,0.1 -0.05,0.1 v 0.1 0.1 0.1 0.1 0.1 l -0.05,0.1 v 0.1 0.1 0.1 0.1 L 6.35,24.75 6.3,24.85 6.15,24.95 5.9,25.05 5.75,25 5.7,24.95 5.6,24.9 5.5,24.8 5.45,24.7 V 24.6 L 5.4,24.5 V 24.4 24.3 24.2 L 5.35,24.1 v -0.1 -0.1 -0.1 -0.15 -0.1 -0.1 -0.1 -0.1 -0.1 -0.1 L 5.3,22.95 v -0.1 -0.1 -0.1 -0.1 -0.1 -0.1 -0.1 l -0.05,-0.1 v -0.1 -0.1 -0.1 -0.1 -0.1 -0.1 -0.1 -0.1 -0.1 -0.1 L 5.2,21.05 v -0.1 -0.1 -0.15 -0.1 -0.1 -0.1 -0.1 -0.1 L 5.15,20.1 V 20 19.9 19.8 19.7 19.6 19.5 19.4 19.3 19.2 19.1 19 18.9 18.8 18.7 18.6 18.5 18.4 18.3 18.2 18.1 18 v -0.1 -0.1 -0.15 -0.1 -0.1 -0.1 -0.1 -0.1 -0.1 -0.1 -0.1 -0.1 -0.1 -0.1 -0.1 -0.1 -0.1 L 5.1,16.15 v -0.1 -0.1 -0.1 -0.1 -0.1 -0.1 -0.1 -0.1 -0.1 -0.1 -0.1 -0.1 -0.1 -0.15 -0.1 -0.1 -0.1 -0.1 -0.1 -0.05 l -0.35,0.3 Q 4.25,14.75 4,14.65 3.6,14.5 3.8,14 L 4.05,13.35 4.2,12.4 4.7,11.25 5.25,10.85 5.4,10.75 5.6,10.65 5.9,10.6"
         fill="#999999"
         fill-rule="evenodd"
         stroke="none"
         id="path4" />
      <path
         d="m 40,12.4 q -0.1,0.9 -0.7,1.45 -0.6,0.7 -1.6,0.7 -1,-0.1 -1.65,-0.75 -0.5,-0.5 -0.55,-1.3 -0.05,-0.8 0.3,-1.45 0.4,-0.6 1.15,-0.9 L 38.4,10.1 q 0.7,0.2 1.15,0.9 0.45,0.65 0.45,1.4 m -10.9,6 0.2,-0.9 q 0.4,-0.7 1.3,-0.4 l 0.75,0.35 1.35,-0.1 1,-1.05 0.35,-0.8 q 0.25,-0.45 0.6,-0.6 l 1.05,0.05 q 0.4,0.2 0.8,0.75 0.7,0.95 0.8,2.15 0.1,1.25 -0.7,2.2 L 36,20.75 34.45,22 q -1.25,0.7 -2.6,0.85 -2.05,0.2 -3.1,-0.75 L 28.4,21.85 28.05,21.8 25.55,21.5 q -1.45,-0.7 -1.3,-1.95 0,-0.55 0.5,-0.9 0.6,-0.3 0.95,0.2 l 0.3,0.6 0.4,0.25 0.75,0.05 0.9,-0.35 1.05,-1 M 23.6,18 23.5,19 q -0.3,0.8 -1.1,1.2 l -1.6,0.25 Q 20,20.25 19.45,19.5 18.95,18.8 19,17.95 q 0.1,-0.85 0.8,-1.45 0.7,-0.6 1.55,-0.6 0.85,0 1.5,0.6 0.7,0.65 0.75,1.5 m 11.6,-0.35 -0.6,0.75 0.35,0.25 0.25,-1 m -3.35,2 0.5,0.5 0.25,0.4 0.7,-0.3 -0.05,-0.15 -0.3,-0.5 -0.05,-0.1 -1.05,0.15"
         fill="#ffffff"
         fill-rule="evenodd"
         stroke="none"
         id="path5" />
      <path
         d="m 54.6,42.5 q 0.85,1.45 1.15,3.05 0.25,1.4 -0.15,4.15 l -0.35,1.75 0.2,0.2 1.65,2.2 q 1,1.6 0.35,2.55 -0.5,0.75 -2.2,0.85 h -18.9 l -0.8,-0.75 q -0.3,-0.3 -2.75,0.75 H 17.15 L 16.7,57 Q 14.2,57 11.9,56 9.15,54.8 7.45,52.6 L 6.6,51.3 Q 4.65,47.8 4.85,40.75 q 0,-1.8 0.6,-2.55 0.6,-0.7 1.65,-0.75 1,0 1.65,0.65 0.45,0.55 0.6,1.45 L 9.4,41.2 q -0.1,2.65 0.15,4.4 0.35,2.2 1.15,3.55 0.85,1.55 2.25,2.4 L 12.9,50 q 0.1,-1.65 0.5,-2.6 l 0.75,-1.45 -0.05,-0.05 -0.3,-1 Q 13,42.5 12.7,40.8 l -0.4,-2.45 q -0.2,-1.95 0.65,-3.85 0.35,-0.9 0.95,-1.35 0.75,-0.6 1.85,-0.45 0.95,0.05 1.8,0.75 l 0.9,0.95 0.35,1.35 q 0.4,3.1 0.15,6.1 l -0.1,0.75 q 0.2,-0.1 0.35,-0.15 3.3,-1.2 6.95,-1.05 l 2.6,0.3 0.05,-4.9 0.2,-2.65 0.35,-1.25 0.45,-1 q 0.6,-0.9 1.8,-1.15 l 2.15,0.05 q 1.3,0.2 1.8,0.95 l 0.35,1.15 q 0.15,1.55 -0.65,4.5 l -0.6,2.35 -0.3,1.35 -0.15,1.55 -0.2,0.85 0.25,0.15 1.8,-2.6 q 2,-2.25 4.85,-3.4 2.9,-1.1 5.85,-0.85 l 1.3,0.2 0.7,-0.35 q 1.3,-0.5 2.2,-1.1 L 52,34.9 53.2,34.6 q 1.05,0.1 1.4,1.1 l -0.05,1.8 -0.1,0.75 -0.25,0.6 -0.4,1.2 -0.2,0.75 1,1.7 m -8.25,8.7 q -0.3,-0.15 -0.7,0.15 l -0.35,0.6 -0.35,1.15 -0.15,-0.05 q -0.85,-0.2 -1.25,0 -0.45,0.25 -0.45,0.65 -0.1,0.5 0.25,0.75 0.4,0.4 1.15,0.3 h 0.1 q -0.1,0.55 0.05,0.85 l 0.45,0.55 0.65,0.1 0.5,-0.55 0.15,-0.8 0.05,-0.35 0.95,0.1 0.25,-0.4 -0.1,-0.5 q -0.2,-0.3 -0.85,-0.5 h -0.15 l 0.1,-1.05 v -0.55 l -0.3,-0.45 m -7.05,0.25 q 0.15,-0.4 0.45,-0.7 L 40.4,50 l 0.15,-0.15 0.1,-0.15 0.3,-0.05 1,-0.4 q 0.5,-0.2 0.5,-0.6 L 42.25,48.3 41.5,48.1 40.4,48.2 40.05,47.9 39.5,47.5 39,47.35 38.75,47.2 38.3,47.15 q -0.4,0.4 -0.15,0.8 l 0.45,0.55 0.5,0.75 0.05,0.1 -0.15,0.35 -0.35,1.05 q -0.1,0.3 0.15,0.55 0.2,0.35 0.5,0.15 m 1.95,-6.4 q 0.2,0.4 0.7,0.45 l 0.8,-0.2 q 0.3,-0.35 0.4,-1.1 l 0.1,-0.35 0.4,0.05 1.3,0.15 0.6,-0.1 q 0.4,-0.35 0.05,-0.8 l -0.65,-0.5 -1.15,-0.5 0.15,-0.45 q 0.35,-0.8 0,-1.1 l -0.6,-0.05 -0.5,0.4 -0.5,0.7 -0.5,-0.15 -0.8,-0.05 q -0.5,0.1 -0.7,0.6 -0.25,0.5 0.1,0.95 l 0.95,0.55 q -0.45,1 -0.15,1.5"
         fill="#000000"
         fill-rule="evenodd"
         stroke="none"
         id="path6" />
      <path
         d="m 41.25,45.05 q -0.3,-0.5 0.15,-1.5 L 40.45,43 q -0.35,-0.45 -0.1,-0.95 0.2,-0.5 0.7,-0.6 l 0.8,0.05 0.5,0.15 0.5,-0.7 0.5,-0.4 0.6,0.05 q 0.35,0.3 0,1.1 l -0.15,0.45 1.15,0.5 0.65,0.5 q 0.35,0.45 -0.05,0.8 l -0.6,0.1 -1.3,-0.15 -0.4,-0.05 -0.1,0.35 q -0.1,0.75 -0.4,1.1 l -0.8,0.2 q -0.5,-0.05 -0.7,-0.45 m -1.95,6.4 Q 39,51.65 38.8,51.3 38.55,51.05 38.65,50.75 L 39,49.7 39.15,49.35 39.1,49.25 38.6,48.5 38.15,47.95 q -0.25,-0.4 0.15,-0.8 l 0.45,0.05 0.25,0.15 0.5,0.15 0.55,0.4 0.35,0.3 1.1,-0.1 0.75,0.2 0.2,0.35 q 0,0.4 -0.5,0.6 l -1,0.4 -0.3,0.05 -0.1,0.15 -0.15,0.15 -0.65,0.75 q -0.3,0.3 -0.45,0.7 m 7.05,-0.25 0.3,0.45 v 0.55 l -0.1,1.05 h 0.15 q 0.65,0.2 0.85,0.5 l 0.1,0.5 -0.25,0.4 -0.95,-0.1 -0.05,0.35 -0.15,0.8 -0.5,0.55 -0.65,-0.1 -0.45,-0.55 Q 44.5,55.3 44.6,54.75 h -0.1 q -0.75,0.1 -1.15,-0.3 Q 43,54.2 43.1,53.7 q 0,-0.4 0.45,-0.65 0.4,-0.2 1.25,0 l 0.15,0.05 0.35,-1.15 0.35,-0.6 q 0.4,-0.3 0.7,-0.15"
         fill="#ffffff"
         fill-rule="evenodd"
         stroke="none"
         id="path7" />
    </g>
    <g
       id="shape2"
       transform="translate(1.5,1.5)">
      <path
         d="M 0,23.8 V 0 H 64.1 V 23.8 57.55 H 0 Z"
         fill="none"
         stroke="#000000"
         stroke-linecap="round"
         stroke-linejoin="round"
         stroke-width="3"
         id="path8" />
    </g>
  </defs>
</svg>
