<?xml version="1.0" encoding="UTF-8" standalone="no"?>
<svg
   ffdec:objectType="frame"
   height="60.549999"
   width="67.550003"
   version="1.1"
   id="svg7"
   sodipodi:docname="96.svg"
   xmlns:inkscape="http://www.inkscape.org/namespaces/inkscape"
   xmlns:sodipodi="http://sodipodi.sourceforge.net/DTD/sodipodi-0.dtd"
   xmlns:xlink="http://www.w3.org/1999/xlink"
   xmlns="http://www.w3.org/2000/svg"
   xmlns:svg="http://www.w3.org/2000/svg"
   xmlns:ffdec="https://www.free-decompiler.com/flash">
  <sodipodi:namedview
     id="namedview7"
     pagecolor="#ffffff"
     bordercolor="#000000"
     borderopacity="0.25"
     inkscape:showpageshadow="2"
     inkscape:pageopacity="0.0"
     inkscape:pagecheckerboard="0"
     inkscape:deskcolor="#d1d1d1"
     fit-margin-top="5"
     fit-margin-left="5"
     fit-margin-right="5"
     fit-margin-bottom="5" />
  <g
     transform="translate(1.95,1.5)"
     id="g3">
    <use
       ffdec:characterId="516"
       height="57.549999"
       width="64.099998"
       xlink:href="#shape0"
       id="use1" />
    <use
       ffdec:characterId="608"
       height="52.900002"
       transform="translate(-1.95,5.7)"
       width="59.799999"
       xlink:href="#shape1"
       id="use2" />
    <use
       ffdec:characterId="518"
       height="60.549999"
       transform="translate(-1.5,-1.5)"
       width="67.099998"
       xlink:href="#shape2"
       id="use3" />
  </g>
  <defs
     id="defs7">
    <g
       id="shape0">
      <path
         d="M 53.6,0 H 64.1 V 57.55 H 53.6 28.25 0 V 0 H 28.25 53.6 V 57.55 0 M 28.25,0 V 57.55 0"
         fill="#ffffff"
         fill-rule="evenodd"
         stroke="none"
         id="path3" />
    </g>
    <g
       id="shape1"
       transform="translate(1.95,-5.7)">
      <path
         d="m 49.6,46.9 q 2.1,0.9 3,2.25 0.55,0.8 0.65,1.8 0.05,1.05 -0.45,1.8 -0.5,0.8 -1.9,1.45 l -5.4,1.25 -1.85,0.2 -2.9,-0.2 -4.65,-0.7 q -2.55,-0.55 -4.45,-1.45 -1.1,-0.45 -1.6,-1.1 -0.9,-1.15 -0.4,-2.7 0.5,-1.4 1.85,-1.95 l 2.3,-0.6 2.45,-0.7 4.1,-0.6 q 5.6,-0.35 9.25,1.25"
         fill="#999999"
         fill-rule="evenodd"
         stroke="none"
         id="path4" />
      <path
         d="m 48.85,32.5 q -0.35,1.8 -1.35,2.95 l -0.95,0.8 q 0.95,1.1 1.9,3.1 1,2 1.45,3.8 l 2.2,-0.4 q 1.15,0 2.15,0.55 1.05,0.6 1.5,1.55 0.6,1.35 -0.15,3.1 l -1.8,2.65 q -0.45,0.45 -0.35,0.8 0.05,0.3 0.7,0.35 1.35,0.1 2.3,-0.7 L 57.1,50.6 q 0.6,-0.2 0.75,0.3 l -0.45,0.75 -0.75,0.6 -1.35,0.8 -1.4,0.3 q -1,0 -1.7,-0.55 -0.75,-0.65 -0.85,-1.8 0,-1 0.55,-2 l 0.85,-1.4 V 46.9 Q 52.5,46.45 51.85,46.6 50.9,46.8 50,47.8 l -0.05,0.05 q -0.45,1.9 -1.85,3.2 -1.55,1.4 -3.9,1.75 l -4.35,0.1 -2.45,-0.45 -1.75,-1 Q 33.2,49.7 32.9,47.5 32.8,46.85 33,45.55 33.15,43.85 33.45,42.8 33.95,41 35.6,38.4 L 37,36.45 Q 36.35,36 36,35.35 35.7,34.75 35.55,33.3 l -0.1,-2 -1.25,-0.95 q -0.9,-1 -1.1,-1.95 -0.15,-0.7 0.1,-2.1 l 0.45,-1.5 q 0.4,-0.9 1.55,-1.95 1.25,-1.2 2.3,-1.3 l 1,0.1 q 1.25,0.2 2.05,0.85 1,0.8 1.15,1.95 v 0.6 h 0.9 q 1.25,0.1 2.5,0.7 0.7,-0.95 1.55,-1.4 0.85,-0.55 2,-0.55 l 1.1,0.2 q 2.05,0.55 2.8,1.75 0.95,1.35 0.4,3.3 -0.4,1.4 -1.4,2.4 l -0.8,0.65 -1.1,0.2 -0.7,0.05 0.2,-0.4 q 0.7,-1.45 -0.3,-2.85 -0.55,-0.7 -1.5,-0.95 L 45.6,28.2 q -0.85,0.3 -1.35,1.15 -0.5,0.85 -0.4,1.7 0.1,0.9 0.75,1.6 0.65,0.7 1.55,0.9 l 1.75,-0.35 0.95,-0.7 m -8.35,2.9 3.8,0.1 q 0.55,0 0.7,-0.2 Q 45.15,35 44.9,34.65 44.5,34.1 43.6,34 l 0.05,-0.8 -0.55,-0.65 q -0.65,-0.45 -1.3,0 -0.6,0.45 -0.4,1.25 l -0.8,-0.2 -1.05,0.15 Q 38.9,34 39,34.65 q 0.1,0.45 0.6,0.6 l 0.9,0.15 M 40.1,27.45 Q 39.35,27 38.4,27.1 q -0.95,0.1 -1.55,0.7 -0.65,0.55 -0.8,1.55 -0.15,0.95 0.25,1.7 l 1.3,1.15 1.7,0.15 q 0.9,-0.2 1.45,-0.95 0.6,-0.75 0.6,-1.6 l -0.3,-1.35 q -0.3,-0.55 -0.95,-1 M -0.5,25.3 -0.25,23.35 Q 0.5,17.75 -0.6,11.95 -1,10.1 -0.7,9.2 0.05,7.35 3.05,7.15 5.2,7.05 7.6,7.75 L 8.15,7.5 q 3.05,-1.35 6.45,-1.75 1.95,-0.2 2.7,0.6 0.5,0.65 0.6,1.85 0.35,2.85 0.05,8.7 l -0.1,1.45 0.5,2.8 Q 18.7,26.8 14.2,32.1 l -1.05,1.1 0.5,-0.05 4.9,-0.7 q 1.65,-0.2 4.25,0 1.85,0.1 2.6,0.7 l 0.7,0.8 0.25,0.05 1.5,0.25 1.2,0.4 0.65,0.8 v 0.7 l -0.5,0.4 -1.5,0.4 -1.05,0.25 Q 26.6,38.8 25.8,40.35 25.1,41.7 24.15,42.25 23.1,42.9 20.8,42.8 18,42.65 12.55,41.3 l -5.25,-1.1 2.5,8.05 0.6,2.5 0.25,3.1 q 0,1.65 -0.45,2.45 L 9,57.4 7.4,57.6 6.9,57.45 6,58 4.9,58.2 3.75,58.25 2.55,58.5 1.35,58.6 Q 0.55,58.55 -0.1,57.9 -0.7,57.3 -0.8,56.45 L -0.7,55.2 -0.45,53.9 -0.4,52 -0.15,45.35 Q 0.1,41.1 -0.1,38.65 l 0.05,-1.9 0.3,-0.65 -0.45,-0.5 -0.35,-1.05 q 0,-0.6 0.4,-0.95 L -0.6,32.7 q 0.8,1.05 1.55,1.25 L 2,34.05 q 1.3,0 2.05,-0.55 l 0.7,-0.65 0.9,-1.15 0.4,-1.2 Q 6.4,29.35 6.35,28.55 L 5.95,27.1 5.35,25.9 Q 4.55,24.7 3.25,24.25 L 3.1,24.2 3,22.85 2.85,21.7 2.4,21.15 1.55,21 q -0.5,0.1 -0.7,0.45 l -0.2,0.65 -0.35,1.8 0.1,0.6 -0.9,0.8 M 11.2,23.6 Q 12.1,23.35 13,22.45 14.05,21.3 14.35,20 14.7,18.55 14.1,17.3 13.55,16 12.3,15.3 11.1,14.7 9.7,14.7 L 8.55,14.9 Q 6.9,15.4 6,17.35 L 5.65,18.2 Q 5.3,19.4 5.6,20.65 5.95,21.95 6.85,22.8 L 8,23.55 9.75,23.75 11.2,23.6 m -9.3,2.65 q 0.95,0.2 1.65,1 0.7,0.8 0.85,1.85 0.2,1.1 -0.25,2 -0.5,0.95 -1.5,1.4 l -2,0.1 Q -0.2,32.35 -0.6,31.55 L -0.95,30.65 -1.3,29.6 Q -1.7,28.15 -0.65,27 0.45,25.9 1.9,26.25"
         fill="#000000"
         fill-rule="evenodd"
         stroke="none"
         id="path5" />
      <path
         d="m 48.95,32.35 -0.1,0.15 -0.95,0.7 -1.75,0.35 q -0.9,-0.2 -1.55,-0.9 -0.65,-0.7 -0.75,-1.6 -0.1,-0.85 0.4,-1.7 0.5,-0.85 1.35,-1.15 l 1.75,-0.05 q 0.95,0.25 1.5,0.95 1,1.4 0.3,2.85 l -0.2,0.4 m -8.85,-4.9 q 0.65,0.45 0.95,1 l 0.3,1.35 q 0,0.85 -0.6,1.6 -0.55,0.75 -1.45,0.95 L 37.6,32.2 36.3,31.05 q -0.4,-0.75 -0.25,-1.7 0.15,-1 0.8,-1.55 0.6,-0.6 1.55,-0.7 0.95,-0.1 1.7,0.35 m 0.4,7.95 -0.9,-0.15 Q 39.1,35.1 39,34.65 38.9,34 39.55,33.75 l 1.05,-0.15 0.8,0.2 q -0.2,-0.8 0.4,-1.25 0.65,-0.45 1.3,0 L 43.65,33.2 43.6,34 q 0.9,0.1 1.3,0.65 0.25,0.35 0.1,0.65 -0.15,0.2 -0.7,0.2 l -3.8,-0.1 m -41.1,-2.7 -0.6,-0.85 -0.55,-0.95 -0.2,-2 0.1,-1 0.3,-0.85 1.05,-1.75 0.9,-0.8 -0.1,-0.6 0.35,-1.8 0.2,-0.65 Q 1.05,21.1 1.55,21 L 2.4,21.15 2.85,21.7 3,22.85 3.1,24.2 3.25,24.25 q 1.3,0.45 2.1,1.65 l 0.6,1.2 0.4,1.45 q 0.05,0.8 -0.3,1.95 l -0.4,1.2 -0.9,1.15 -0.7,0.65 Q 3.3,34.05 2,34.05 L 0.95,33.95 Q 0.2,33.75 -0.6,32.7 M 11.2,23.6 9.75,23.75 8,23.55 6.85,22.8 Q 5.95,21.95 5.6,20.65 5.3,19.4 5.65,18.2 L 6,17.35 Q 6.9,15.4 8.55,14.9 L 9.7,14.7 q 1.4,0 2.6,0.6 1.25,0.7 1.8,2 0.6,1.25 0.25,2.7 -0.3,1.3 -1.35,2.45 -0.9,0.9 -1.8,1.15 M 1.9,26.25 Q 0.45,25.9 -0.65,27 -1.7,28.15 -1.3,29.6 l 0.35,1.05 0.35,0.9 q 0.4,0.8 1.25,1.05 l 2,-0.1 q 1,-0.45 1.5,-1.4 0.45,-0.9 0.25,-2 -0.15,-1.05 -0.85,-1.85 -0.7,-0.8 -1.65,-1"
         fill="#ffffff"
         fill-rule="evenodd"
         stroke="none"
         id="path6" />
    </g>
    <g
       id="shape2"
       transform="translate(1.5,1.5)">
      <path
         d="M 0,23.8 V 0 H 64.1 V 23.8 57.55 H 0 Z"
         fill="none"
         stroke="#000000"
         stroke-linecap="round"
         stroke-linejoin="round"
         stroke-width="3"
         id="path7" />
    </g>
  </defs>
</svg>
