<?xml version="1.0" encoding="UTF-8" standalone="no"?>
<svg
   ffdec:objectType="frame"
   height="44.349998"
   width="78.599998"
   version="1.1"
   id="svg12"
   sodipodi:docname="186.svg"
   xmlns:inkscape="http://www.inkscape.org/namespaces/inkscape"
   xmlns:sodipodi="http://sodipodi.sourceforge.net/DTD/sodipodi-0.dtd"
   xmlns:xlink="http://www.w3.org/1999/xlink"
   xmlns="http://www.w3.org/2000/svg"
   xmlns:svg="http://www.w3.org/2000/svg"
   xmlns:ffdec="https://www.free-decompiler.com/flash">
  <sodipodi:namedview
     id="namedview12"
     pagecolor="#ffffff"
     bordercolor="#000000"
     borderopacity="0.25"
     inkscape:showpageshadow="2"
     inkscape:pageopacity="0.0"
     inkscape:pagecheckerboard="0"
     inkscape:deskcolor="#d1d1d1"
     fit-margin-top="5"
     fit-margin-left="5"
     fit-margin-right="5"
     fit-margin-bottom="5" />
  <g
     transform="translate(2,2.05)"
     id="g3">
    <use
       ffdec:characterId="1"
       height="42.700001"
       transform="translate(-1.75,-2)"
       width="76.449997"
       xlink:href="#shape0"
       id="use1" />
    <use
       ffdec:characterId="184"
       height="37"
       transform="translate(4.1,1.4)"
       width="68.5"
       xlink:href="#shape1"
       id="use2" />
    <use
       ffdec:characterId="3"
       height="44.349998"
       transform="translate(-2,-2.05)"
       width="78.599998"
       xlink:href="#shape2"
       id="use3" />
  </g>
  <defs
     id="defs12">
    <g
       id="shape0"
       transform="translate(1.75,2)">
      <path
         d="M 2.8,0 V -0.4 H 5.4 V 0 H 9.7 V 19.45 0 H 20.55 L 19.3,19.45 H 9.7 0.25 V 0 H 2.8"
         fill="#ffffff"
         fill-rule="evenodd"
         stroke="none"
         id="path3" />
      <path
         d="M 0.25,19.45 H 9.7 19.3 L 18.7,28.6 16,28.5 10.95,27.95 9.7,27.8 Q 7.45,27.6 5.85,27.75 4.05,27.9 1.5,28.6 0.75,28.8 0.25,29.15 v -9.7 m 9.45,0 v 8.35 -8.35"
         fill="#121212"
         fill-rule="evenodd"
         stroke="none"
         id="path4" />
      <path
         d="m 9.7,27.8 1.25,0.15 5.05,0.55 2.7,0.1 h 1.05 l 3.75,0.15 q 2.45,0.3 3.6,1.25 0.6,0.5 0.6,1.1 0,0.65 -0.8,1 l -1.3,0.2 -7.15,0.15 -5.6,-0.3 L 9.7,31.75 7.95,31.6 3.1,31.95 0.95,32.3 0.25,32.1 -0.35,31.55 -0.5,31.3 V 29.9 L 0.25,29.15 Q 0.75,28.8 1.5,28.6 4.05,27.9 5.85,27.75 7.45,27.6 9.7,27.8 v 3.95 -3.95"
         fill="#999999"
         fill-rule="evenodd"
         stroke="none"
         id="path5" />
      <path
         d="M 2.8,0 H 0.25 M 9.7,0 H 5.4 m 16.15,0 h 10.7 M 20.55,0 H 9.7"
         fill="none"
         stroke="#666666"
         stroke-linecap="round"
         stroke-linejoin="round"
         stroke-width="4"
         id="path6" />
      <path
         d="m 9.7,-0.4 h 65 V 40.5 H 47.05 L 45.5,40.7 27,40.65 25.95,40.5 H 9.7 -0.5 V -0.4 H 9.7 V 40.5 -0.4"
         fill="#ffffff"
         fill-rule="evenodd"
         stroke="none"
         id="path7" />
    </g>
    <g
       id="shape1"
       transform="translate(-4.1,-1.4)">
      <path
         d="m 60.45,13.9 0.3,1.5 v 1.85 l -0.05,1.9 -0.4,1.65 -0.95,2.2 -1.9,2.3 -1.8,1.65 q -1.35,1 -4.35,2.05 l -2.05,0.65 -4.65,1.1 q -2.1,0.6 -2.7,1.6 l -0.05,0.05 4.3,0.9 2.3,0.1 1.9,-0.2 2.9,-0.85 -0.05,-0.5 q 0.1,-0.45 0.85,-0.75 l 1.85,-1.2 q 3.35,-2.7 4.6,-7.6 l 0.6,-2.9 0.2,-1.9 0.05,-0.7 -1,-4.4 L 59.6,8.95 59.55,7.55 58.3,7.2 Q 58.05,7.15 57.8,6.9 L 57.55,6.65 57.05,5.95 V 5.25 L 57.2,4.3 57.5,3.6 57.8,3.25 58.45,2.8 59.2,2.7 60.85,2.95 61.4,3.35 V 3.3 q 1.1,-0.95 2.4,-1.25 1.35,-0.35 2.7,0 1.3,0.35 2.3,1.2 0.35,-0.2 0.75,-0.25 l 1,0.05 0.45,0.2 0.35,0.25 0.8,0.8 q 0.55,0.65 0.4,1.55 l -0.4,0.95 -0.85,0.85 -0.2,0.1 0.25,1.4 q 0.4,4.15 -1.7,10.2 -0.55,3.1 -2.05,6 l -1.5,2.5 -1,1.25 q -2.85,3.2 -5.7,4.7 l -4.9,2.1 -1.3,0.25 -11.75,-0.4 -3.4,-1.35 -1.15,-0.55 -1.15,-0.25 -1.9,-0.55 -1.9,-0.4 -3.35,0.6 -2.9,0.9 Q 23.95,35 22.3,36 l -3.25,1.6 -1.3,0.25 Q 14.25,38.3 10.9,37.1 l -2,-1.05 Q 7.85,35.1 7.7,33.75 7.45,32.35 8.25,31.25 8.65,30.65 9.6,30 q 1.8,-1.2 4,-1.4 h 0.8 l 0.65,-0.15 1.15,0.05 1.7,0.1 1.3,0.25 q 0.85,0.15 1.35,0.55 l 0.35,0.45 0.05,0.2 0.15,0.65 -0.4,0.5 -0.8,0.05 -4.5,-0.3 -1,0.1 -2.6,0.95 -0.7,0.5 -0.15,0.55 Q 11,33.65 12,34 q 2.45,0.85 4.45,-0.05 l 1.2,-0.65 2.8,-0.15 0.4,0.2 q 3.35,-2.1 6.75,-3.45 0.85,-0.4 1.55,-0.55 l 1.6,-0.3 3.7,-0.2 q 2.1,0.1 3.6,0.9 l 0.75,0.4 1.7,0.55 0.3,0.15 0.9,-0.95 q 1.1,-0.9 3.8,-1.8 l 1.8,-0.6 1.45,-0.35 2.4,-1 2.05,-1 0.95,-0.7 2.1,-2.2 q 2,-2.8 1.45,-6.15 L 57.4,14.7 Q 56.6,11.9 55.35,10.3 53.6,8.1 51.25,7.9 L 48.1,8.3 48,8.35 46.6,9.45 45.65,10.6 q -0.7,1 -1.5,2.8 l -1.35,2.9 q -1.8,3.35 -5.55,5.65 -1.05,0.65 -2.1,1.1 -1.25,0.55 -4.25,1.5 l -1.25,0.4 -0.65,0.25 -4.95,1.9 -5.3,0.55 -2.4,0.4 q -1.75,0 -3.75,-0.75 L 11.75,27 10.65,26.45 8.6,25.25 Q 6.65,23.95 5.7,22.05 L 5.5,21.6 V 21.5 L 5.45,21.4 4.5,18.9 Q 3.9,16.8 4.25,13.85 L 4.5,12.3 Q 4.75,11.4 5.55,9.6 L 6.1,8.45 5.5,8.05 5.15,7.7 Q 4.85,7.35 4.85,6.25 L 5,5.35 5.25,4.95 5.7,4.4 6.2,4.05 7,3.7 8.7,3.6 9.65,4 q 1.85,-1.5 4.1,-2.2 3.4,-1 5.55,0.4 l 1.45,1.35 0.1,-0.05 0.9,-0.1 0.1,-0.05 q 1,0.1 1.55,0.85 l 0.15,0.3 0.1,0.8 -0.1,0.7 -0.45,0.75 -0.55,0.4 -0.1,0.1 q 0.1,1.35 -0.5,2.75 -0.9,2.15 -3.1,3.2 L 16,14.1 q -1.85,0.45 -2.75,1.15 l -1.4,1.5 q -1.2,1.7 -1.3,2.75 l -0.05,1 0.2,0.4 0.85,1.1 q 1.5,1.35 3.6,1.8 L 19.2,24.15 21.3,24 q 2.4,-0.3 6.45,-2.15 l 1.95,-1.05 1.95,-1.45 2.15,-1.1 q 3.1,-1.6 4.8,-3.9 1.15,-1.5 2.8,-4.9 1.75,-3 3.95,-3.95 L 46.7,5.05 q 3.85,-1 6.6,-0.1 2.3,0.75 4.1,2.75 l 1.5,2.1 q 0.95,1.7 1.55,4.1 M 68.3,11.65 67.95,10.5 67.15,9.7 66.3,9.5 66.1,8.95 Q 65.95,8.65 65.5,8.55 L 65.4,8.6 Q 64.95,8.7 64.8,9.1 V 9.6 L 64.55,9.65 Q 63.65,10 63.5,10.8 l -0.1,3.15 0.7,3.45 q 0.35,0.75 0.9,1.05 l 1.4,0.1 1,-1.25 0.35,-0.9 0.15,-1.2 0.2,-0.75 Q 68.5,13 68.3,11.65 M 63.8,5.65 63.6,5.45 62.95,5.1 62.05,5 62,5.05 61.4,5.15 61.05,5.4 60.95,5.6 60.5,6.25 60.45,6.8 q 0,0.85 0.25,1.2 l 0.35,0.35 0.7,0.45 0.6,0.05 0.55,-0.05 0.45,-0.2 0.3,-0.2 0.2,-0.25 0.25,-0.6 0.05,-0.5 L 64.1,6.7 V 6.45 L 63.9,5.85 63.8,5.65 M 69.35,5.5 68.7,5.1 67.55,5 67.3,5.1 67,5.3 l -0.3,0.3 -0.2,0.45 -0.1,0.9 0.05,0.3 0.1,0.15 0.1,0.35 0.25,0.4 0.3,0.25 0.4,0.2 0.8,0.05 L 68.8,8.5 69.4,8.05 69.6,7.8 69.75,6.75 69.7,6.25 69.45,5.7 69.35,5.5 m -7.7,1.2 q 0.2,-0.45 0.6,-0.35 V 6.3 q 0.45,0 0.6,0.35 l 0.1,0.3 L 62.9,7.15 62.6,7.5 62.35,7.6 61.95,7.5 61.7,7.2 61.6,6.95 V 6.85 L 61.65,6.7 m -41.2,-1.2 0.1,0.65 Q 20.45,6.9 19.7,7 19.2,7 18.9,6.7 L 18.65,6.25 Q 18.5,5.85 18.8,5.4 19.15,5.05 19.55,5.05 L 19.6,5 q 0.5,0.05 0.85,0.5 M 17,8.1 Q 16.75,7.85 16.4,7.75 16.5,7.1 16.25,6.75 15.9,6.3 15.3,6.45 15,6.5 14.8,7 L 14.7,7.75 14.45,7.8 q -0.65,0.25 -1.7,1.5 l -0.9,1.25 q -0.5,0.85 -0.75,1.8 -0.25,0.6 -0.15,1.25 0.1,0.8 0.55,1.1 l 0.85,0.3 0.85,-0.35 0.3,-0.3 0.95,-0.65 0.7,-0.45 1.65,-1.35 0.8,-1.15 0.15,-1 L 17.7,9.15 17.45,8.65 17,8.1 M 9.15,6 Q 8.85,6.6 8.85,7.2 L 9,7.85 9.2,8.2 9.45,8.5 9.85,8.75 12.3,8.6 13,7.95 13.2,7.7 13.35,6.7 13.3,6.15 13.1,5.65 Q 12.65,4.9 11.75,4.65 10.8,4.4 10.05,4.95 L 9.65,5.35 9.15,6 M 20.3,4.3 19.1,4.1 l -0.05,0.05 -1,0.25 -0.5,0.55 -0.15,0.25 -0.1,0.2 -0.05,0.85 0.3,0.95 0.35,0.55 q 0.7,0.7 1.9,0.55 L 20.25,8.2 21,7.65 21.25,7.3 21.4,6.95 21.55,6.6 Q 21.65,5.75 21.3,5.2 L 21.1,4.9 20.75,4.5 20.3,4.3"
         fill="#999999"
         fill-rule="evenodd"
         stroke="none"
         id="path8" />
      <path
         d="m 69.35,5.5 0.1,0.2 0.25,0.55 0.05,0.5 L 69.6,7.8 69.4,8.05 68.8,8.5 68.4,8.65 67.6,8.6 67.2,8.4 66.9,8.15 66.65,7.75 66.55,7.4 66.45,7.25 66.4,6.95 66.5,6.05 66.7,5.6 67,5.3 67.3,5.1 67.55,5 68.7,5.1 69.35,5.5 m -5.55,0.15 0.1,0.2 0.2,0.6 V 6.7 l 0.05,0.35 -0.05,0.5 -0.25,0.6 -0.2,0.25 -0.3,0.2 L 62.9,8.8 62.35,8.85 61.75,8.8 61.05,8.35 60.7,8 Q 60.45,7.65 60.45,6.8 L 60.5,6.25 60.95,5.6 61.05,5.4 61.4,5.15 62,5.05 62.05,5 l 0.9,0.1 0.65,0.35 0.2,0.2 m 4.5,6 q 0.2,1.35 -0.2,2.8 l -0.2,0.75 -0.15,1.2 -0.35,0.9 -1,1.25 -1.4,-0.1 Q 64.45,18.15 64.1,17.4 L 63.4,13.95 63.5,10.8 Q 63.65,10 64.55,9.65 L 64.8,9.6 V 9.1 q 0.15,-0.4 0.6,-0.5 l 0.1,-0.05 q 0.45,0.1 0.6,0.4 l 0.2,0.55 0.85,0.2 0.8,0.8 0.35,1.15 M 20.45,5.5 Q 20.1,5.05 19.6,5 l -0.05,0.05 q -0.4,0 -0.75,0.35 -0.3,0.45 -0.15,0.85 L 18.9,6.7 Q 19.2,7 19.7,7 20.45,6.9 20.55,6.15 L 20.45,5.5 m 41.2,1.2 -0.05,0.15 v 0.1 l 0.1,0.25 0.25,0.3 0.4,0.1 0.25,-0.1 0.3,-0.35 0.05,-0.2 -0.1,-0.3 Q 62.7,6.3 62.25,6.3 v 0.05 q -0.4,-0.1 -0.6,0.35 M 20.3,4.3 l 0.45,0.2 0.35,0.4 0.2,0.3 q 0.35,0.55 0.25,1.4 L 21.4,6.95 21.25,7.3 21,7.65 20.25,8.2 19.8,8.3 Q 18.6,8.45 17.9,7.75 L 17.55,7.2 17.25,6.25 17.3,5.4 17.4,5.2 17.55,4.95 18.05,4.4 19.05,4.15 19.1,4.1 20.3,4.3 M 9.15,6 l 0.5,-0.65 0.4,-0.4 q 0.75,-0.55 1.7,-0.3 0.9,0.25 1.35,1 l 0.2,0.5 0.05,0.55 -0.15,1 L 13,7.95 12.3,8.6 9.85,8.75 9.45,8.5 9.2,8.2 9,7.85 8.85,7.2 q 0,-0.6 0.3,-1.2 m 7.85,2.1 0.45,0.55 0.25,0.5 0.05,0.6 -0.15,1 -0.8,1.15 -1.65,1.35 -0.7,0.45 -0.95,0.65 -0.3,0.3 L 12.35,15 11.5,14.7 q -0.45,-0.3 -0.55,-1.1 -0.1,-0.65 0.15,-1.25 0.25,-0.95 0.75,-1.8 L 12.75,9.3 Q 13.8,8.05 14.45,7.8 L 14.7,7.75 14.8,7 q 0.2,-0.5 0.5,-0.55 0.6,-0.15 0.95,0.3 0.25,0.35 0.15,1 0.35,0.1 0.6,0.35"
         fill="#ffffff"
         fill-rule="evenodd"
         stroke="none"
         id="path9" />
      <path
         d="m 52.05,22.5 0.55,-0.6 q 0.5,-0.65 0.25,-1.65 l -0.3,-0.75 -0.35,-0.55 -0.35,-0.3 -0.55,-0.3 -1.5,-0.25 -0.5,0.1 -0.35,0.15 -0.05,0.05 h -0.05 l -0.4,0.25 q -0.65,0.6 -0.8,1.35 l -0.1,0.8 0.05,0.8 q 0.1,0.6 0.55,1.1 l 1.1,0.65 0.65,0.05 1.2,-0.15 0.5,-0.35 0.25,-0.2 0.2,-0.2 m -12.7,6.6 q -1.85,-1.35 -2.5,-3.35 -0.9,-2.85 0.45,-6.8 L 37.45,18.5 Q 36.8,18.1 36.3,17.4 l -0.7,-1.35 -0.1,-0.9 0.2,-1.9 q 0.25,-0.75 0.95,-1.55 l 0.9,-0.8 q 0.7,-0.4 1.85,-0.3 l 0.9,0.2 0.55,0.4 q 1.3,1.15 1.55,2.9 l 0.2,-0.05 2.8,-0.45 q 1.8,-0.1 3.5,0.6 l 0.7,0.35 q 1.5,-1.25 2.8,-1.5 l 1.2,-0.05 0.95,0.1 q 0.35,0.05 0.85,0.45 1.15,0.85 1.5,2 0.4,1.3 -0.3,2.4 l -0.9,0.9 q -0.9,0.65 -1.9,0.85 0.4,1.45 0.3,3.1 l -0.35,1.9 0.9,0.45 q 2,1.1 3,2.8 1.15,1.85 0.75,3.9 l -0.6,1.75 1.4,0.35 1.25,-0.25 1.2,-0.5 q 1.6,-0.6 3.3,-0.45 1.75,0.2 3.05,1.2 l 0.65,0.8 q 0.2,0.65 -0.4,0.9 L 67.4,35.4 q -1.2,-0.6 -1.95,-0.7 l -2.05,0.2 -1.2,0.8 q -2.45,1.7 -5.25,0.8 l -0.9,-0.3 H 56 q -0.55,0.45 -1.85,1 -4.1,1.6 -7.5,0.65 l -2.35,-0.9 -1.2,-0.6 -1.8,-1.45 q -1.6,-1.7 -1.95,-3.55 -0.2,-1.2 0.05,-2.2 L 39.35,29.1 m 5.4,-5.3 v 0.05 q -0.35,0.05 -0.6,0.35 l -0.2,0.2 -0.45,0.3 -0.45,0.5 -0.2,0.3 -0.15,0.25 v 0.2 l 0.2,0.3 0.35,0.1 h 0.3 L 43.7,26.3 h 0.1 l 0.15,-0.1 1.3,-0.5 v -0.05 l 0.35,-0.1 0.05,-0.05 0.55,0.45 0.35,0.2 0.25,0.1 0.2,0.05 v 0.05 l 0.35,0.05 h 0.35 l 0.65,0.1 0.2,-0.15 0.1,-0.25 -0.05,-0.3 -0.3,-0.5 -0.8,-0.7 -0.3,-0.35 -0.45,-0.35 -0.3,-0.05 V 23.8 l -0.1,-0.3 V 23.4 L 46.3,23.3 v -0.15 l -0.05,-0.1 -0.1,-0.5 v -0.1 L 46,21.95 45.8,21.8 45.6,21.75 45.3,21.9 45.2,22.05 44.95,23 44.9,23.1 v 0.1 l -0.05,0.2 -0.05,0.1 v 0.1 l -0.05,0.2 m -4.9,-6 L 39,18.55 38.65,19 38.3,20.15 q -0.15,1.05 0.65,1.8 0.4,0.35 1.3,0.65 l 0.4,0.15 1.55,-0.25 1.15,-1.05 0.15,-0.35 0.1,-0.8 -0.05,-0.7 -0.65,-1 -0.35,-0.4 Q 41.6,17.4 40.3,17.65 l -0.45,0.15 m 10.45,3.9 -0.7,-0.2 -0.4,-0.6 v -0.45 q 0.2,-0.7 0.85,-0.7 0.35,-0.05 0.7,0.2 l 0.35,0.5 -0.05,0.55 q -0.2,0.6 -0.75,0.7 M 18,23.05 q -0.35,-1.1 -0.4,-2.2 L 16.25,20.9 15.2,20.75 Q 14.65,20.6 13.65,19.9 l -0.9,-0.8 q -0.7,-0.95 -0.4,-2.15 0.2,-1.1 1.1,-1.9 1.6,-1.6 3.8,-1.5 1.4,0.1 2.6,0.9 1.6,-1.9 3.45,-2.55 l 5,-0.2 0.4,0.1 V 10.35 L 28.95,9.7 29.5,8.6 30.05,8.05 q 0.9,-0.9 1.8,-1.15 1.2,-0.25 2.1,0.5 l 0.95,1.25 q 0.6,1.2 0.6,1.9 l -0.15,1.35 q -0.3,1.95 -0.85,2.75 l -0.4,0.45 0.05,0.05 0.75,1.65 q 0.8,2.25 0.35,4.75 -0.4,2.45 -1.9,4.3 l 0.35,0.65 0.75,1.75 q 0.85,2.8 -0.95,6 Q 32,37 29.85,37.85 L 26.8,38.4 24.6,38.35 22.55,38 21.15,37.25 19.9,36.2 h -0.85 l -3,0.6 -3,0.2 q -1.1,-0.2 -2.6,-1.15 L 9.6,35.45 8.45,35.6 7.6,35.7 6.8,36 q -0.5,0.5 -0.7,0.45 -0.4,0 -0.4,-0.5 L 6.05,35.3 q 0.75,-0.8 2.5,-1.4 l 2.35,-0.2 q 0.55,0.2 1.55,0.75 l 1.75,0.1 1.3,-0.55 q 1.2,-0.55 2.5,-0.75 l -0.1,-1.05 0.2,-1.8 0.65,-1.45 Q 19.4,27.7 20.35,26.6 18.65,24.9 18,23.05 m 5.4,-5.2 -1.45,-0.2 -0.6,0.05 -0.65,0.3 -0.45,0.35 -0.35,0.4 q -0.4,0.5 -0.5,1.3 v 0.45 l 0.25,0.8 0.5,0.75 0.4,0.3 1.4,0.45 0.95,-0.25 0.9,-0.45 0.8,-1.25 0.05,-0.4 -0.05,-0.3 v -0.7 Q 24.45,18.75 23.75,18.1 L 23.4,17.85 M 32.35,15.2 Q 31.75,14.15 30.7,14 L 30.15,13.95 29.4,14 q -1,0.15 -1.6,1.15 -0.55,0.9 -0.3,2 0.1,0.65 0.5,1.15 l 0.4,0.4 1.5,0.45 q 1.45,0.1 2.25,-0.8 l 0.45,-0.7 0.2,-0.8 q 0,-0.9 -0.45,-1.65 m -10.7,5.65 q -0.6,-0.25 -0.4,-0.95 0.25,-0.65 0.9,-0.55 l 0.5,0.25 0.1,0.15 0.05,0.1 q 0.15,0.4 -0.1,0.75 -0.45,0.6 -1.05,0.25 m 6.55,0.35 h -0.1 l -0.5,-0.7 q -0.25,-0.55 -0.7,-0.6 l -0.4,0.2 q -0.15,0.35 0.05,0.8 l 0.25,0.7 0.05,0.2 -0.2,0.2 v 0.15 L 26.6,22.3 v 0.2 l -0.1,0.1 v 0.15 l -0.15,0.35 v 0.1 l -0.05,0.1 -0.1,0.45 v 0.5 l 0.05,0.2 v 0.15 l 0.2,0.2 0.4,-0.05 0.05,-0.1 0.05,-0.15 0.1,-0.1 0.3,-0.2 0.1,-0.2 0.15,-0.25 0.1,-0.15 0.2,-0.3 0.1,-0.15 v -0.1 l 0.1,-0.1 0.65,-0.05 v 0.05 L 29.7,23 30,23.1 30.55,23 30.75,22.85 30.8,22.75 30.85,22.7 30.8,22.6 V 22.5 L 30.7,22.15 30,21.75 29.8,21.7 29.3,21.5 h -0.15 l -0.1,-0.05 -0.35,-0.1 V 21.3 l -0.5,-0.15 v 0.05"
         fill="#000000"
         fill-rule="evenodd"
         stroke="none"
         id="path10" />
      <path
         d="m 52.05,22.5 -0.2,0.2 -0.25,0.2 -0.5,0.35 -1.2,0.15 -0.65,-0.05 -1.1,-0.65 Q 47.7,22.2 47.6,21.6 l -0.05,-0.8 0.1,-0.8 q 0.15,-0.75 0.8,-1.35 l 0.4,-0.25 h 0.05 l 0.05,-0.05 0.35,-0.15 0.5,-0.1 1.5,0.25 0.55,0.3 0.35,0.3 0.35,0.55 0.3,0.75 q 0.25,1 -0.25,1.65 l -0.55,0.6 m -12.2,-4.7 0.45,-0.15 q 1.3,-0.25 2.25,0.55 l 0.35,0.4 0.65,1 0.05,0.7 -0.1,0.8 -0.15,0.35 -1.15,1.05 -1.55,0.25 -0.4,-0.15 q -0.9,-0.3 -1.3,-0.65 -0.8,-0.75 -0.65,-1.8 L 38.65,19 39,18.55 39.85,17.8 m 4.9,6 0.05,-0.2 v -0.1 l 0.05,-0.1 0.05,-0.2 v -0.1 l 0.05,-0.1 0.25,-0.95 0.1,-0.15 0.3,-0.15 0.2,0.05 0.2,0.15 0.15,0.5 v 0.1 l 0.1,0.5 0.05,0.1 v 0.15 l 0.05,0.1 v 0.1 l 0.1,0.3 v 0.05 l 0.3,0.05 0.45,0.35 0.3,0.35 0.8,0.7 0.3,0.5 0.05,0.3 -0.1,0.25 -0.2,0.15 -0.65,-0.1 H 47.35 L 47,26.35 V 26.3 l -0.2,-0.05 -0.25,-0.1 -0.35,-0.2 -0.55,-0.45 -0.05,0.05 -0.35,0.1 v 0.05 l -1.3,0.5 -0.15,0.1 h -0.1 l -0.15,0.05 h -0.3 l -0.35,-0.1 -0.2,-0.3 v -0.2 l 0.15,-0.25 0.2,-0.3 0.45,-0.5 0.45,-0.3 0.2,-0.2 q 0.25,-0.3 0.6,-0.35 V 23.8 m 5.55,-2.1 q 0.55,-0.1 0.75,-0.7 l 0.05,-0.55 -0.35,-0.5 q -0.35,-0.25 -0.7,-0.2 -0.65,0 -0.85,0.7 v 0.45 l 0.4,0.6 0.7,0.2 M 32.35,15.2 q 0.45,0.75 0.45,1.65 l -0.2,0.8 -0.45,0.7 q -0.8,0.9 -2.25,0.8 L 28.4,18.7 28,18.3 q -0.4,-0.5 -0.5,-1.15 -0.25,-1.1 0.3,-2 0.6,-1 1.6,-1.15 L 30.15,13.95 30.7,14 q 1.05,0.15 1.65,1.2 m -8.95,2.65 0.35,0.25 q 0.7,0.65 0.85,1.35 v 0.7 l 0.05,0.3 -0.05,0.4 -0.8,1.25 -0.9,0.45 -0.95,0.25 -1.4,-0.45 -0.4,-0.3 -0.5,-0.75 -0.25,-0.8 v -0.45 q 0.1,-0.8 0.5,-1.3 l 0.35,-0.4 0.45,-0.35 0.65,-0.3 0.6,-0.05 1.45,0.2 m -1.75,3 q 0.6,0.35 1.05,-0.25 0.25,-0.35 0.1,-0.75 l -0.05,-0.1 -0.1,-0.15 -0.5,-0.25 q -0.65,-0.1 -0.9,0.55 -0.2,0.7 0.4,0.95 m 6.55,0.35 v -0.05 l 0.5,0.15 v 0.05 l 0.35,0.1 0.1,0.05 h 0.15 l 0.5,0.2 0.2,0.05 0.7,0.4 0.1,0.35 v 0.1 l 0.05,0.1 -0.05,0.05 -0.05,0.1 L 30.55,23 30,23.1 29.7,23 28.75,22.95 V 22.9 l -0.65,0.05 -0.1,0.1 v 0.1 l -0.1,0.15 -0.2,0.3 -0.1,0.15 -0.15,0.25 -0.1,0.2 -0.3,0.2 -0.1,0.1 -0.05,0.15 -0.05,0.1 -0.4,0.05 -0.2,-0.2 v -0.15 l -0.05,-0.2 v -0.5 l 0.1,-0.45 0.05,-0.1 V 23.1 L 26.5,22.75 V 22.6 l 0.1,-0.1 v -0.2 l 0.05,-0.15 V 22 l 0.2,-0.2 -0.05,-0.2 -0.25,-0.7 q -0.2,-0.45 -0.05,-0.8 l 0.4,-0.2 q 0.45,0.05 0.7,0.6 l 0.5,0.7 h 0.1"
         fill="#ffffff"
         fill-rule="evenodd"
         stroke="none"
         id="path11" />
    </g>
    <g
       id="shape2"
       transform="translate(2,2.05)">
      <path
         d="M -0.5,-0.4 V -0.55 H 75.1 V -0.4 40.8 H -0.5 Z"
         fill="none"
         stroke="#000000"
         stroke-linecap="round"
         stroke-linejoin="round"
         stroke-width="3"
         id="path12" />
    </g>
  </defs>
</svg>
