<?xml version="1.0" encoding="UTF-8" standalone="no"?>
<svg
   ffdec:objectType="frame"
   height="60.549999"
   width="67.099998"
   version="1.1"
   id="svg7"
   sodipodi:docname="496.svg"
   xmlns:inkscape="http://www.inkscape.org/namespaces/inkscape"
   xmlns:sodipodi="http://sodipodi.sourceforge.net/DTD/sodipodi-0.dtd"
   xmlns:xlink="http://www.w3.org/1999/xlink"
   xmlns="http://www.w3.org/2000/svg"
   xmlns:svg="http://www.w3.org/2000/svg"
   xmlns:ffdec="https://www.free-decompiler.com/flash">
  <sodipodi:namedview
     id="namedview7"
     pagecolor="#ffffff"
     bordercolor="#000000"
     borderopacity="0.25"
     inkscape:showpageshadow="2"
     inkscape:pageopacity="0.0"
     inkscape:pagecheckerboard="0"
     inkscape:deskcolor="#d1d1d1"
     fit-margin-top="5"
     fit-margin-left="5"
     fit-margin-right="5"
     fit-margin-bottom="5" />
  <g
     transform="translate(1.5,1.5)"
     id="g3">
    <use
       ffdec:characterId="516"
       height="57.549999"
       width="64.099998"
       xlink:href="#shape0"
       id="use1" />
    <use
       ffdec:characterId="992"
       height="45.099998"
       transform="translate(-0.1,7.4)"
       width="64.699997"
       xlink:href="#shape1"
       id="use2" />
    <use
       ffdec:characterId="518"
       height="60.549999"
       transform="translate(-1.5,-1.5)"
       width="67.099998"
       xlink:href="#shape2"
       id="use3" />
  </g>
  <defs
     id="defs7">
    <g
       id="shape0">
      <path
         d="M 53.6,0 H 64.1 V 57.55 H 53.6 28.25 0 V 0 H 28.25 53.6 V 57.55 0 M 28.25,0 V 57.55 0"
         fill="#ffffff"
         fill-rule="evenodd"
         stroke="none"
         id="path3" />
    </g>
    <g
       id="shape1"
       transform="translate(0.1,-7.4)">
      <path
         d="m 63.7,22.65 h 0.2 l 0.25,0.05 0.2,0.05 0.2,0.05 0.05,0.05 v 2.4 l -0.05,0.05 -0.2,0.05 -0.2,0.1 H 63.9 63.7 63.35 L 63.1,25.4 62.9,25.35 62.7,25.25 62.6,25.2 H 62.4 L 61.9,25.15 H 61.35 L 61,25.1 H 60.65 L 60,25.05 H 59.35 L 58.75,25 H 58.3 L 57.75,24.95 H 56.9 L 56.1,24.9 h -0.95 l -1.3,-0.05 h -1.1 l -0.9,-0.05 h -1 l -0.8,-0.05 H 49.1 L 48.2,24.7 H 37.6 L 35.75,24.65 35,24.6 H 34.4 L 33.9,24.55 H 33.15 L 32.7,24.5 H 32.05 L 31.9,24.45 H 31.5 L 31.2,24.4 31,24.35 30.95,24.3 30.85,24.2 V 24.15 24.05 24 23.9 l 0.1,-0.1 0.05,-0.05 0.2,-0.05 0.3,-0.05 h 0.4 l 0.15,-0.05 h 0.65 l 0.45,-0.05 H 33.9 L 34.4,23.5 H 35 l 0.75,-0.05 H 37.6 L 48.2,23.4 h 0.9 l 0.95,-0.05 h 0.8 l 1,-0.05 h 0.9 l 1.1,-0.05 h 1.3 L 56.1,23.2 h 0.8 l 0.85,-0.05 0.55,-0.05 h 0.45 l 0.6,-0.05 H 60 L 60.65,23 H 61 l 0.35,-0.05 H 61.9 L 62.4,22.9 62.65,22.85 62.8,22.8 63,22.75 63.1,22.7 h 0.25 0.35 V 22.65 M 53.55,11 l 0.5,0.85 -0.2,1 q -0.6,0.95 -1.8,0.7 -1.1,-0.25 -1.5,-1.3 -0.4,-0.9 -0.05,-2 0.35,-1.3 1.65,-2.1 1.2,-0.8 2.6,-0.75 2.2,0.1 3.6,1.7 1.5,1.65 1.15,3.75 -0.5,2.9 -3.7,4.3 -1.85,0.8 -5.8,1.1 l -10.55,0.5 h -1.4 q -0.4,0 -0.55,-0.2 -0.25,-0.4 0.2,-0.7 l 0.8,-0.2 Q 45.15,17.4 51.45,16.1 53.9,15.65 55.35,14.8 56.7,14 56.9,12.95 57.05,12.35 56.8,11.7 L 55.95,10.75 54.7,10.5 Q 54.05,10.6 53.55,11 M 39.3,14.85 38.95,15.1 q -0.3,0 -0.3,-0.35 l 0.15,-0.45 0.6,-0.95 0.45,-0.95 0.05,-0.35 -0.2,0.35 -0.35,0.8 q -0.25,0.3 -0.65,0.2 l -0.5,-0.45 q -0.15,-0.45 0.25,-1.15 0.7,-1.15 1.25,-1.4 0.55,-0.3 1.15,-0.25 0.6,0.1 0.85,0.4 0.5,0.5 0.2,1.75 -0.2,1.2 -0.7,1.6 -0.35,0.2 -0.75,0.35 L 39.9,14.3 39.7,14.2 39.3,14.85 M 63.8,27.2 h 0.35 0.45 v 3.05 H 64.15 63.8 L 61.85,30.2 h -0.5 L 61.1,30.15 H 60.9 L 60.8,30.1 h -0.3 l -0.65,-0.05 h -0.6 L 58.6,30 H 58.15 L 57.6,29.95 H 57.35 L 56.95,29.9 H 56.7 L 56.6,29.85 56.35,29.8 h -1.1 L 54.2,29.75 H 53.75 L 53.4,29.7 H 52.9 L 52.25,29.65 H 51.3 L 50.45,29.6 h -0.5 L 49.6,29.55 H 49.15 L 48.4,29.5 H 47.85 L 47.3,29.45 H 46.5 L 45.9,29.4 H 45.25 L 44.7,29.35 H 43.9 L 42.75,29.3 H 40.7 l -0.75,-0.05 h -0.7 L 36.35,29.2 H 35.4 L 35.2,29.15 H 34.95 L 34.7,29.1 34.5,29.05 H 34.25 L 33.35,29 33.2,28.95 33.1,28.9 33.05,28.8 v -0.05 -0.1 -0.05 l 0.1,-0.1 0.05,-0.05 h 0.05 l 0.1,-0.05 h 0.9 l 0.25,-0.05 0.2,-0.05 h 0.25 l 0.25,-0.05 h 0.2 l 0.95,-0.05 h 2.9 l 0.7,-0.05 h 0.75 l 2.05,-0.05 h 1.15 l 0.8,-0.05 h 0.55 L 45.9,28 h 0.6 l 0.8,-0.05 h 0.55 L 48.4,27.9 h 0.75 l 0.45,-0.05 h 0.35 l 0.5,-0.05 h 0.85 l 0.95,-0.05 h 0.65 l 0.5,-0.05 h 0.35 l 0.45,-0.05 h 1.05 l 1.1,-0.05 0.25,-0.05 h 0.1 l 0.25,-0.05 h 0.4 l 0.25,-0.05 h 0.55 L 58.6,27.4 h 0.65 l 0.6,-0.05 h 0.65 l 0.3,-0.05 h 0.1 l 0.2,-0.05 h 0.25 l 0.5,-0.05 h 1.95 m -20.65,6.1 11.1,-0.35 4.05,0.25 q 2.3,0.6 3.3,2.3 0.55,1 0.4,2.2 -0.15,1.25 -0.95,2.05 -0.8,0.85 -2,1 -1.25,0.15 -2.2,-0.5 l -1,-1.2 Q 55.5,38.2 56,37.5 q 0.45,-0.8 1.45,-0.7 0.9,0.1 1.25,1.05 0.6,-0.6 0.05,-1.3 L 57.6,35.75 Q 55.85,35 51.95,34.7 l -9.75,-0.8 -0.6,-0.3 1.55,-0.3 m -14.9,-5.95 2.2,1.8 q 10.55,7.15 19.1,7.6 2.35,0.1 3.15,0.65 1.3,0.85 1.2,2.35 0,1.5 -1.25,2.25 -1,0.6 -3,0.5 L 46.5,42.1 q 0.5,0.7 0.5,1.7 0,0.85 -0.5,1.55 l -1.25,1.05 -2.8,0.05 q -3.4,-0.85 -5.95,-3.3 0.2,0.8 -0.15,1.7 -0.6,1.25 -1.8,1.55 L 32.3,46.15 30.55,44.7 q -0.95,-1 -1.8,-2.45 l 0.2,0.6 q 0.15,1 -0.35,1.95 -0.5,0.95 -1.45,1.3 l -1.95,0.1 q -1.05,-0.25 -1.6,-1.1 -0.5,-0.75 -0.8,-2.25 l -0.05,-0.4 -0.25,0.5 q -0.75,1.25 -2.25,1.4 -1.5,0.1 -2.35,-1.1 -0.8,-1 -0.7,-2.55 l 0.6,-2.3 -1.75,0.05 Q 15.2,38.25 14.6,37.45 14.05,36.7 14.05,35.8 14,34.55 15.35,32.9 h -0.9 l -1.8,0.6 q 0.45,-1.4 1.1,-2.5 -0.2,-2.55 0.1,-5.05 0.25,-2.1 1.75,-3.55 2.9,-2.75 6.95,-1.85 3.7,0.95 5.6,4.05 l -1.45,0.75 1.55,2 m 24.85,21.05 0.35,0.15 0.45,0.35 0.9,0.55 0.65,0.4 -0.1,-0.2 -0.45,-0.4 q -0.3,-0.4 -0.05,-0.75 0.3,-0.45 0.7,-0.3 l 0.6,0.3 0.6,0.15 0.5,0.5 q 0.6,0.75 0.65,1.65 0.1,1 -0.75,1.5 l -1.8,0.05 q -1,-0.3 -1.45,-0.6 -0.8,-0.5 -0.85,-1.25 -0.1,-0.3 0.05,-0.65 l 0.2,-0.25 -0.65,-0.75 -0.15,-0.3 0.1,-0.25 0.3,-0.05 0.2,0.15 m -39.25,-1.65 0.4,-0.15 0.6,-0.15 q 0.6,-0.1 0.7,0.2 l -0.25,0.5 -2.3,1.9 -0.5,0.35 1.25,-0.55 q 0.75,-0.45 1.35,-0.35 0.35,0.05 0.6,0.4 0.25,0.35 0,0.75 l -0.6,0.5 -0.3,0.35 -0.3,0.25 -1.3,0.75 -0.45,0.15 -0.45,0.05 -0.9,0.05 q -1,0 -1.35,-0.35 L 9.75,51.1 9.3,50.75 Q 8.9,50.4 9,49.5 9,49.1 9.15,48.8 l 0.3,-0.45 q 0.5,-0.65 1.1,-1 l 0.35,-0.15 0.35,-0.3 q 0.6,-0.4 1.6,-0.3 0.6,0.1 0.85,0.3 l 0.15,-0.15"
         fill="#767676"
         fill-rule="evenodd"
         stroke="none"
         id="path4" />
      <path
         d="M 63.5,23.05 62.35,23 h -0.8 l -0.5,-0.05 H 60.5 L 59.6,22.9 H 59.05 L 58.5,22.85 H 58.15 L 57.8,22.8 H 57.4 L 56.9,22.75 H 56.55 L 56.25,22.7 H 55.9 L 55.7,22.65 H 55.2 L 54.8,22.6 H 54.35 L 54,22.55 H 53.5 L 53.15,22.5 H 52.8 L 52.55,22.45 H 52.3 L 52.05,22.4 51.4,22.35 H 50.75 L 50.4,22.3 H 50.05 L 49.4,22.25 H 48 L 47.1,22.2 h -0.65 l -0.9,-0.05 H 44.1 L 43.65,22.1 H 43.3 L 43.1,22.05 H 42.8 L 42.55,22 H 42.4 L 42.15,21.95 H 41.2 l -0.15,-0.05 -0.1,-0.1 v -0.05 l -0.05,-0.1 0.05,-0.1 V 21.5 l 0.1,-0.1 0.15,-0.05 h 0.95 L 42.4,21.3 h 0.15 l 0.25,-0.05 h 0.3 l 0.2,-0.05 h 0.35 l 0.45,-0.05 h 1.45 l 0.9,-0.05 H 47.1 L 48,21.05 h 1.4 L 50.05,21 h 0.35 l 0.35,-0.05 0.65,-0.05 h 0.65 l 0.25,-0.05 h 0.25 L 52.8,20.8 h 0.35 L 53.5,20.75 H 54 l 0.35,-0.05 h 0.45 l 0.4,-0.05 h 0.5 l 0.2,-0.05 h 0.35 l 0.3,-0.05 h 0.35 l 0.5,-0.05 h 0.4 l 0.35,-0.05 h 0.35 l 0.55,-0.05 h 0.55 l 0.9,-0.05 h 0.55 l 0.5,-0.05 h 0.8 L 63.5,20.25 H 64 v 2.8 h -0.5 m 0.4,4.5 -0.15,-0.05 h -0.1 l -0.1,-0.05 H 63.4 L 63,27.4 h -0.45 l -0.2,-0.05 h -0.1 L 62.1,27.3 61.7,27.25 H 61.25 L 60.9,27.2 H 60.65 L 60.2,27.15 H 58.4 L 58.05,27.1 H 57.8 l -0.25,-0.05 h -0.2 L 57.15,27 H 56.8 L 56.05,26.95 H 55.6 L 54.85,26.9 h -0.6 L 53.9,26.85 H 52.4 L 51.6,26.8 h -0.25 l -0.2,-0.05 h -0.4 L 50.3,26.7 H 49.9 L 49.6,26.65 H 49.3 L 48.75,26.6 h -0.6 L 47.8,26.55 47.6,26.5 H 47.3 L 45.9,26.45 H 45.75 L 45.6,26.4 45.5,26.35 45.45,26.3 44.9,26.25 44.85,26.2 44.95,26.15 45.5,26.1 45.6,26.05 45.65,26 h 0.1 l 0.15,-0.05 h 1.4 l 0.3,-0.05 h 0.2 l 0.35,-0.05 0.6,-0.05 h 0.55 l 0.3,-0.05 h 0.3 l 0.4,-0.05 h 0.45 l 0.4,-0.05 h 0.2 L 51.6,25.6 h 0.8 l 1.5,-0.05 h 0.35 l 0.6,-0.05 h 0.75 l 0.45,-0.05 h 0.75 l 0.35,-0.05 h 0.2 l 0.2,-0.05 h 0.25 l 0.25,-0.05 h 0.35 l 1.8,-0.05 h 0.45 L 60.9,25.2 h 0.35 l 0.45,-0.05 h 0.4 l 0.15,-0.05 0.1,-0.05 h 0.2 L 63,25 h 0.4 l 0.15,-0.05 h 0.1 l 0.1,-0.05 H 63.9 64 v 2.65 h -0.1 m -0.3,4.6 -2.4,-0.05 H 60.5 L 59.7,32.05 58.65,32 h -0.4 L 58,31.95 H 57.75 L 57.5,31.9 H 57.3 L 57.1,31.85 H 56.8 L 56.5,31.8 h -0.25 l -0.2,-0.05 H 55.6 L 54.9,31.7 h -0.75 l -0.3,-0.05 h -0.3 L 53.3,31.6 h -0.25 l -0.3,-0.05 H 52.5 L 52.15,31.5 H 51.8 l -0.7,-0.05 h -1 L 49.55,31.4 H 49 L 48.6,31.35 H 48.3 L 48,31.3 47.8,31.25 H 47.55 L 47,31.2 H 43.9 L 43.6,31.15 H 43.35 L 43.2,31.1 H 43.1 L 42.95,31.05 H 42.8 L 42.65,31 h -0.1 l -0.2,-0.05 H 41.6 L 41.15,31 40.75,30.95 40.6,30.85 V 30.8 30.7 l 0.05,-0.05 0.1,-0.05 0.05,-0.05 h 0.15 l 0.1,0.05 h 0.15 l 0.1,-0.05 h 0.3 0.75 l 0.2,-0.05 h 0.1 l 0.15,-0.05 h 0.15 L 43.1,30.4 h 0.1 l 0.15,-0.05 H 43.6 L 43.9,30.3 H 47 l 0.55,-0.05 H 47.8 L 48,30.2 h 0.3 l 0.3,-0.05 H 49 l 0.55,-0.05 h 0.55 l 1,-0.05 h 0.7 L 52.15,30 h 0.35 l 0.25,-0.05 h 0.3 L 53.3,29.9 h 0.25 l 0.3,-0.05 0.3,-0.05 h 0.75 l 0.7,-0.05 h 0.45 l 0.2,-0.05 h 0.25 l 0.3,-0.05 h 0.3 l 0.2,-0.05 h 0.2 l 0.25,-0.05 H 58 l 0.25,-0.05 h 0.4 l 1.05,-0.05 h 0.8 l 0.7,-0.05 h 2.4 0.4 v 2.75 H 63.6 M 35.75,20.45 v 0.65 l 1,0.6 1.05,0.9 1.2,0.8 1.35,0.9 0.55,0.8 q 0.25,0.5 0.1,0.9 -0.1,0.4 -0.6,0.5 h -0.8 l -4.75,-1 H 34.1 L 34,25.55 h -0.05 l -0.1,0.15 -0.1,0.15 0.05,0.95 0.25,1.5 0.05,0.95 0.05,0.35 v 0.9 l -0.1,0.5 v 0.5 l -0.2,0.25 h -0.4 l -0.9,-1 -1.05,-1.85 -0.35,-0.8 -0.8,0.5 -1.45,0.75 q 0.75,1.2 1.55,2 l 2.2,1.8 q 10.55,7.15 19.1,7.6 2.35,0.1 3.15,0.65 1.3,0.85 1.2,2.35 0,1.5 -1.25,2.25 -1,0.6 -3,0.5 L 48.7,46.1 q 0.5,0.7 0.5,1.7 0,0.85 -0.5,1.55 -0.45,0.75 -1.25,1.05 l -2.8,0.05 q -3.4,-0.85 -5.95,-3.3 0.2,0.8 -0.15,1.7 -0.6,1.25 -1.8,1.55 L 34.5,50.15 q -1,-0.55 -1.75,-1.45 l -1.8,-2.45 0.2,0.6 q 0.15,1 -0.35,1.95 -0.5,0.95 -1.45,1.3 L 27.4,50.2 Q 26.35,49.95 25.8,49.1 25.3,48.35 25,46.85 l -0.05,-0.4 -0.25,0.5 q -0.75,1.25 -2.25,1.4 -1.5,0.1 -2.35,-1.1 -0.8,-1 -0.7,-2.55 l 0.6,-2.3 -1.75,0.05 q -0.85,-0.2 -1.45,-1 -0.55,-0.75 -0.55,-1.65 -0.05,-1.25 1.3,-2.9 h -0.9 l -1.8,0.6 H 14.7 l -2.25,0.2 -0.1,1.25 -0.05,0.8 -0.6,0.55 -2.2,0.45 -0.15,0.85 v 0.85 L 9,43.2 8.75,43.35 8.45,43.15 Q 8,42.6 7.9,41.35 L 6.85,42.9 6.4,43.2 q -0.35,0 -0.45,-0.4 l 0.1,-0.65 0.6,-1.8 -0.6,0.3 -0.45,0.3 -0.55,-0.05 q -0.2,-0.15 -0.1,-0.5 l 0.4,-0.45 0.65,-0.5 0.5,-0.3 0.2,-0.4 Q 6.9,38.4 7.3,38.3 h 0.5 l 0.5,-0.15 1.55,0.25 0.55,-0.05 0.2,-0.05 0.15,-0.25 0.2,-0.6 Q 9.2,37 7.7,35.8 L 6,34 5.75,34.4 4.9,35.45 l -2,2.1 -0.6,0.65 q -1.15,1 -2.4,0.45 V 31.1 l 4.7,-1.9 q 0.1,-1.7 0.8,-3.45 1.2,-2.85 3.05,-4.6 2.2,-2 4.95,-2.25 h 0.15 q 0.1,-1.55 0.75,-3.05 0.95,-2.6 2.5,-4.25 2.95,-3.05 8.1,-3.2 4.8,-0.2 7.4,2.35 0.9,0.8 1.65,2.1 1.55,2.6 1.75,4.85 l 0.05,1 v 0.8 0.1 0.85 m -4.1,1.85 q 1.2,-0.65 1.65,-2 l -0.75,-0.6 -1.05,-2 Q 30.7,16.35 29.95,16.05 H 29.9 q -1.25,0.05 -2.2,1.05 -1.3,1.45 -0.7,3.3 0.45,1.4 1.9,2 l 2.75,-0.1"
         fill="#000000"
         fill-rule="evenodd"
         stroke="none"
         id="path5" />
      <path
         d="m 31.65,22.3 -2.75,0.1 q -1.45,-0.6 -1.9,-2 -0.6,-1.85 0.7,-3.3 0.95,-1 2.2,-1.05 h 0.05 q 0.75,0.3 1.55,1.65 l 1.05,2 0.75,0.6 q -0.45,1.35 -1.65,2"
         fill="#ffffff"
         fill-rule="evenodd"
         stroke="none"
         id="path6" />
    </g>
    <g
       id="shape2"
       transform="translate(1.5,1.5)">
      <path
         d="M 0,23.8 V 0 H 64.1 V 23.8 57.55 H 0 Z"
         fill="none"
         stroke="#000000"
         stroke-linecap="round"
         stroke-linejoin="round"
         stroke-width="3"
         id="path7" />
    </g>
  </defs>
</svg>
