<?xml version="1.0" encoding="UTF-8" standalone="no"?>
<svg
   ffdec:objectType="frame"
   height="60.549999"
   width="67.449997"
   version="1.1"
   id="svg8"
   sodipodi:docname="167.svg"
   xmlns:inkscape="http://www.inkscape.org/namespaces/inkscape"
   xmlns:sodipodi="http://sodipodi.sourceforge.net/DTD/sodipodi-0.dtd"
   xmlns:xlink="http://www.w3.org/1999/xlink"
   xmlns="http://www.w3.org/2000/svg"
   xmlns:svg="http://www.w3.org/2000/svg"
   xmlns:ffdec="https://www.free-decompiler.com/flash">
  <sodipodi:namedview
     id="namedview8"
     pagecolor="#ffffff"
     bordercolor="#000000"
     borderopacity="0.25"
     inkscape:showpageshadow="2"
     inkscape:pageopacity="0.0"
     inkscape:pagecheckerboard="0"
     inkscape:deskcolor="#d1d1d1"
     fit-margin-top="5"
     fit-margin-left="5"
     fit-margin-right="5"
     fit-margin-bottom="5" />
  <g
     transform="translate(1.85,1.5)"
     id="g3">
    <use
       ffdec:characterId="516"
       height="57.549999"
       width="64.099998"
       xlink:href="#shape0"
       id="use1" />
    <use
       ffdec:characterId="675"
       height="56.900002"
       transform="translate(-1.85,0.3)"
       width="66.449997"
       xlink:href="#shape1"
       id="use2" />
    <use
       ffdec:characterId="518"
       height="60.549999"
       transform="translate(-1.5,-1.5)"
       width="67.099998"
       xlink:href="#shape2"
       id="use3" />
  </g>
  <defs
     id="defs8">
    <g
       id="shape0">
      <path
         d="M 53.6,0 H 64.1 V 57.55 H 53.6 28.25 0 V 0 H 28.25 53.6 V 57.55 0 M 28.25,0 V 57.55 0"
         fill="#ffffff"
         fill-rule="evenodd"
         stroke="none"
         id="path3" />
    </g>
    <g
       id="shape1"
       transform="translate(1.85,-0.3)">
      <path
         d="M 35.55,10.45 H -0.65 V 0.3 H 64.6 V 10.45 H 35.55 M 63.2,18 h 0.25 l 0.1,0.05 0.15,0.05 0.15,0.1 0.1,0.1 0.1,0.1 0.05,0.15 0.05,0.1 0.05,0.1 v 0.1 0.1 l 0.05,0.1 -0.05,0.1 v 0.1 l -0.05,0.1 v 0.1 l -0.1,0.1 -0.05,0.1 -0.1,0.1 -0.15,0.1 -0.2,0.1 -0.35,0.1 H 61.85 L 59.05,20 53.2,19.95 H 47.65 L 43.4,19.9 40.4,19.85 H 35.9 L 33.85,19.8 30.9,19.75 H 29.25 L 28.15,19.7 H 24.5 24.05 23.45 23 22.65 22.15 20.75 20.55 19.7 18.15 17.55 15.3 L 15,19.65 14.85,19.5 14.8,19.4 14.7,19.3 V 19.2 L 14.65,19.1 V 19 18.9 l 0.05,-0.1 v -0.1 l 0.1,-0.1 0.05,-0.1 0.15,-0.1 0.3,-0.1 h 2.25 0.6 1.55 0.85 0.2 1.4 0.5 0.35 0.45 0.6 0.45 3.65 1.1 l 1.65,-0.05 2.95,-0.05 h 2.05 l 4.5,-0.05 3,-0.05 h 4.25 L 53.2,18.05 59.05,18 h 2.8 1.35 m -46.7,-3.15 13.6,0.05 34.5,0.05 v 1.7 H 30.1 L 16.5,16.7 -0.65,16.75 V 14.8 L 16.5,14.85 M -0.65,11.7 H 64.6 v 1.85 H -0.65 V 11.7 M -0.8,37.8 h 1.35 2.8 l 5.85,0.05 5.55,0.05 H 19 l 3,0.05 4.5,0.05 h 2.05 l 2.95,0.05 1.65,0.05 h 1.1 3.65 0.45 0.6 0.45 0.35 0.5 1.4 0.2 0.85 1.55 0.6 2.25 l 0.3,0.1 0.15,0.1 0.05,0.1 0.1,0.1 v 0.1 l 0.05,0.1 v 0.1 0.1 L 47.7,39 v 0.1 l -0.1,0.1 -0.05,0.1 -0.15,0.15 -0.3,0.05 h -2.25 -0.6 -1.55 -0.85 -0.2 -1.4 -0.5 -0.35 -0.45 -0.6 -0.45 -3.65 l -1.1,0.05 H 31.5 L 28.55,39.6 26.5,39.65 H 22 l -3,0.05 -4.25,0.05 H 9.2 L 3.35,39.8 0.55,39.85 H -0.8 l -0.35,-0.1 -0.2,-0.1 -0.15,-0.1 -0.1,-0.1 -0.05,-0.1 -0.1,-0.1 v -0.1 l -0.05,-0.1 v -0.1 l -0.05,-0.1 0.05,-0.1 v -0.1 -0.1 l 0.05,-0.1 0.05,-0.1 0.05,-0.15 0.1,-0.1 0.1,-0.1 0.15,-0.1 0.15,-0.05 0.1,-0.05 h 0.25 m 36.35,9.25 H 64.6 V 57.2 H -0.65 V 47.05 h 36.2 M -0.65,45.8 V 43.95 H 64.6 V 45.8 H -0.65 M 16.5,42.65 -0.65,42.7 v -1.95 l 17.15,0.05 13.6,0.05 h 34.5 v 1.7 L 30.1,42.6 16.5,42.65"
         fill="#999999"
         fill-rule="evenodd"
         stroke="none"
         id="path4" />
      <path
         d="M 34.85,40.7 Q 32.1,40.05 30.7,37 29.65,34.6 30,31.35 30.55,25.5 34.55,20.95 l 2.1,-2.05 q 2.35,-2.2 4.25,-2.95 1.7,-0.7 3.15,-0.5 1.9,-0.1 4.15,1 1.7,0.8 2.45,1.85 l 0.9,1.9 q 1.35,4.75 0.05,9.55 l -1.3,3.45 q -2.7,6.05 -6.15,8.15 -1.15,0.75 -2.4,0.9 l -2.6,-0.2 -3.3,-0.9 -0.7,-0.4 -0.3,-0.05 m 11.3,-20.1 -0.3,-0.7 -0.4,-0.7 q -0.5,-0.65 -1.2,-0.95 -1.5,-0.7 -3.65,0.4 -2.7,1.4 -4.5,4.25 l -1.2,2.25 q -0.7,1.6 -1.25,3.55 l -0.2,0.9 -0.35,1.95 -0.05,1 v 0.1 l 0.05,0.65 q 0.1,1.85 1,3.15 0.55,0.95 1.55,1.35 l 2.5,-0.3 q 3.45,-1.35 5.1,-4 l 1.05,-2.05 1.75,-4.85 0.45,-3.35 v -0.3 l -0.15,-1.45 -0.2,-0.9 m -4.25,0.5 0.05,0.05 0.15,0.1 0.05,0.05 q 0.55,0.5 0.4,1.2 l -0.3,0.9 0.25,0.2 0.35,0.35 0.15,0.25 0.1,0.1 0.05,0.1 0.15,0.4 0.1,0.85 -0.55,1.35 q -0.3,0.5 -0.8,0.35 L 41.65,26.8 V 25.95 25.8 L 41.3,25.15 Q 40.65,25.1 40,25.4 l -0.95,0.75 -0.7,1.05 v 0.05 l -0.05,0.05 -0.15,0.5 -0.25,1.05 v 0.05 l -0.05,0.7 0.05,0.15 q 0.25,0.65 0.9,0.55 0.3,0 0.75,-0.4 l 0.7,-0.45 0.9,0.15 q 0.45,0.35 0.35,0.85 l -0.35,0.9 -0.7,0.95 -1.4,0.6 -0.65,0.05 -0.15,0.9 -0.35,0.7 q -0.5,0.55 -1.25,0.4 -0.7,-0.15 -0.9,-0.9 V 33.2 l 0.2,-0.75 0.3,-0.3 L 36.2,32.1 35.55,31.45 V 31.4 L 35.2,30.8 35.05,30.2 35,28.95 l 0.05,-0.3 0.35,-1.55 0.4,-1.15 q 0.4,-0.85 1.4,-1.7 1,-0.95 2.1,-1.2 l 0.6,-0.15 0.05,-0.15 0.1,-0.65 q 0.25,-0.75 0.85,-1.05 l 1,0.05 m 6.65,-1.55 0.4,2 0.05,0.65 q 0.3,3.75 -1.35,8.05 l -1,2.3 L 46,33.8 q -1.2,2.3 -2.4,3.5 l -2.5,1.85 -1.95,1 2.4,0.2 Q 43.1,40.1 44.5,38.75 46.4,37 47.9,34.2 l 0.8,-1.8 0.5,-1.3 q 1.45,-4 1.15,-7.4 L 50.2,22.8 v -0.15 l -0.05,-0.2 q -0.35,-2 -1.3,-3 l -0.1,-0.1 -0.35,-0.25 0.15,0.45 m -19.7,0.3 h 1 l 0.4,0.05 0.25,0.1 0.2,0.15 0.1,0.1 0.1,0.1 0.1,0.1 0.05,0.1 0.05,0.1 0.1,0.1 0.05,0.1 v 0.1 l 0.05,0.1 v 0.1 0.1 0.1 0.1 0.1 l -0.05,0.15 v 0.1 l -0.05,0.1 -0.05,0.1 -0.05,0.1 -0.1,0.1 -0.05,0.1 -0.1,0.1 -0.15,0.1 -0.15,0.1 -0.2,0.1 -0.2,0.1 h -0.3 -1 -0.3 L 28.45,22.75 28.3,22.7 27.7,22.65 H 27.1 L 26.8,22.6 26.5,22.55 H 26.1 L 25.55,22.5 25.25,22.45 H 24.9 L 24.25,22.4 23.8,22.35 H 23.5 L 23,22.3 22.6,22.25 H 22.4 L 22.15,22.2 22,22.15 21.5,22.1 H 21 L 20.8,22.05 20.6,22 H 20.45 L 20.2,21.95 19.9,21.9 H 19.6 L 19.3,21.85 19.1,21.8 h -0.3 l -0.15,-0.05 -0.6,-0.05 -0.25,-0.05 -0.15,-0.1 -0.05,-0.1 v -0.1 l 0.05,-0.1 v -0.1 l 0.1,-0.1 0.15,-0.05 0.15,-0.05 0.6,-0.05 h 0.15 l 0.3,-0.05 0.2,-0.05 h 0.3 l 0.3,-0.05 0.3,-0.05 h 0.25 L 20.6,20.65 20.8,20.6 21,20.55 h 0.5 L 22,20.5 22.15,20.45 H 22.4 L 22.6,20.4 23,20.35 h 0.5 l 0.3,-0.05 0.45,-0.05 h 0.65 l 0.35,-0.05 0.3,-0.05 H 26.1 L 26.5,20.1 26.8,20.05 27.1,20 h 0.6 l 0.6,-0.05 0.15,-0.05 h 0.1 0.3 v -0.05 m -7.15,5.2 h 0.35 l 0.45,0.05 0.25,0.1 0.15,0.1 0.15,0.15 0.1,0.1 0.05,0.1 0.1,0.1 0.05,0.1 0.05,0.1 0.05,0.1 0.05,0.1 v 0.1 0.1 0.1 0.1 0.1 0.1 0.1 L 23.45,27 23.4,27.1 v 0.1 l -0.1,0.1 -0.05,0.1 -0.1,0.1 -0.1,0.1 -0.1,0.1 -0.15,0.1 -0.2,0.1 -0.2,0.05 L 22.05,28 H 21.7 L 20.45,27.95 20.05,27.9 19.85,27.85 19.55,27.8 19.2,27.75 H 18.4 L 17.85,27.7 17.6,27.65 h -0.85 l -0.2,-0.05 -0.5,-0.05 H 15.5 l -1.05,-0.05 -0.4,-0.05 -1.7,-0.05 h -0.6 L 11,27.35 10.35,27.3 H 10 L 9.75,27.25 9.2,27.2 H 8.8 L 8,27.15 7.25,27.1 H 7 L 6.45,27.05 5.5,27 H 5.25 5.1 4.6 L 4.35,26.9 4.2,26.8 4.1,26.7 V 26.6 L 4.05,26.5 4.1,26.4 4.2,26.3 4.3,26.2 4.45,26.1 H 4.6 L 5.1,26.05 H 5.25 5.5 L 6.45,26 H 7 L 7.25,25.95 8,25.9 8.8,25.85 H 9.2 L 9.75,25.8 10,25.75 h 0.35 L 11,25.7 11.75,25.65 h 0.6 l 1.7,-0.05 0.4,-0.05 h 1.05 l 0.55,-0.05 0.5,-0.05 h 0.2 L 17.6,25.4 17.85,25.35 18.4,25.3 h 0.8 l 0.35,-0.05 0.4,-0.05 0.2,-0.1 h 0.3 1.25 v -0.05 m 1.8,7.9 h 0.85 l 0.3,0.05 0.2,0.05 0.25,0.1 0.15,0.1 0.15,0.15 0.1,0.1 0.05,0.1 0.05,0.1 0.1,0.1 v 0.1 l 0.1,0.1 v 0.1 0.1 l 0.05,0.1 v 0.1 0.1 0.1 0.1 l -0.05,0.1 v 0.15 0.1 l -0.1,0.1 v 0.1 l -0.1,0.1 -0.05,0.1 -0.05,0.1 -0.1,0.1 -0.15,0.1 -0.15,0.1 -0.25,0.1 -0.2,0.1 h -0.3 -0.85 -0.35 l -0.2,-0.1 -0.2,-0.1 -0.2,-0.05 -0.5,-0.05 L 21.8,35.7 H 21.5 L 21.25,35.65 21.1,35.6 H 20.95 L 20.2,35.55 18.95,35.5 h -0.7 L 18,35.45 17.7,35.4 17.05,35.35 H 16.7 L 16.3,35.3 16.05,35.25 h -0.3 l -0.2,-0.05 -0.6,-0.05 h -0.3 l -0.2,-0.05 -0.2,-0.05 H 14 L 13.8,35 13.55,34.95 H 13.2 L 12.5,34.9 12.3,34.8 11.9,34.7 11.8,34.6 v -0.1 -0.1 l 0.1,-0.1 0.4,-0.1 0.2,-0.05 0.7,-0.05 0.35,-0.05 H 13.8 L 14,34 14.25,33.95 h 0.2 l 0.2,-0.05 0.3,-0.05 0.6,-0.05 h 0.2 l 0.3,-0.05 0.25,-0.05 h 0.4 L 17.05,33.65 17.7,33.6 H 18 l 0.25,-0.05 0.7,-0.05 h 1.25 l 0.75,-0.05 0.15,-0.05 h 0.15 l 0.25,-0.05 0.3,-0.05 0.25,-0.05 0.55,-0.05 0.25,-0.1 0.2,-0.05 0.1,-0.05 h 0.35 v -0.05"
         fill="#000000"
         fill-rule="evenodd"
         stroke="none"
         id="path5" />
      <path
         d="m 46.15,20.6 0.2,0.9 0.15,1.45 -0.3,0.15 -1.75,1 L 43.3,24.8 43.15,24.4 43.1,24.3 43,24.2 42.85,23.95 42.5,23.6 q 1.4,-1 3.75,-2.55 l -0.1,-0.45 m 0.35,2.65 -0.45,3.35 -1.75,4.85 -1.05,2.05 q -1.65,2.65 -5.1,4 l -2.5,0.3 q -1,-0.4 -1.55,-1.35 -0.9,-1.3 -1,-3.15 l 0.15,-0.1 2.3,-1.8 v 0.05 l 0.65,0.65 0.05,0.05 -0.3,0.3 -0.2,0.75 v 0.85 q 0.2,0.75 0.9,0.9 0.75,0.15 1.25,-0.4 l 0.35,-0.7 0.15,-0.9 0.65,-0.05 1.4,-0.6 0.7,-0.95 0.35,-0.9 q 0.1,-0.5 -0.35,-0.85 l -0.9,-0.15 -0.7,0.45 q -0.45,0.4 -0.75,0.4 -0.65,0.1 -0.9,-0.55 l -0.05,-0.15 3.4,-2.55 0.4,-0.25 0.4,0.55 q 0.5,0.15 0.8,-0.35 l 0.55,-1.35 0.8,-0.45 1.85,-1.15 0.45,-0.25 v -0.55 m -13.4,8.3 0.35,-1.95 1.05,-0.4 0.5,-0.25 0.05,1.25 -1.95,1.35 m 1.8,-6.4 1.2,-2.25 q 1.8,-2.85 4.5,-4.25 2.15,-1.1 3.65,-0.4 0.7,0.3 1.2,0.95 -1.4,0.65 -3.15,1.65 l -0.4,0.25 -1,-0.05 q -0.6,0.3 -0.85,1.05 l -0.1,0.65 0.1,-0.55 -0.15,0.05 -5,2.9 m 13.65,-5.6 0.2,-0.2 0.1,0.1 q 0.95,1 1.3,3 L 50.2,22.65 50.15,22.5 49.1,22.2 H 49 l 0.05,1.35 0.25,-0.05 0.95,0.2 h 0.1 q 0.3,3.4 -1.15,7.4 l -0.85,-0.5 -0.7,-0.35 Q 49.3,25.95 49,22.2 l -0.05,-0.65 -0.4,-2 m -10.65,9.3 0.25,-1.05 0.15,-0.5 0.05,-0.05 V 27.2 L 39.05,26.15 40,25.4 q 0.65,-0.3 1.3,-0.25 l 0.35,0.65 -1.95,1.25 -1.65,1.15 -0.05,0.3 -0.1,0.35 m 8.75,3.7 -0.35,0.75 q 0.45,0.4 1.25,0.75 l 0.35,0.15 q -1.5,2.8 -3.4,4.55 -1.4,1.35 -2.95,1.6 l -2.4,-0.2 1.95,-1 2.5,-1.85 q 1.2,-1.2 2.4,-3.5 l 0.65,-1.25"
         fill="#999999"
         fill-rule="evenodd"
         stroke="none"
         id="path6" />
      <path
         d="m 45.45,19.2 0.4,0.7 0.3,0.7 0.1,0.45 Q 43.9,22.6 42.5,23.6 l -0.25,-0.2 0.3,-0.9 q 0.15,-0.7 -0.4,-1.2 L 42.1,21.25 41.95,21.15 41.9,21.1 42.3,20.85 q 1.75,-1 3.15,-1.65 m 1.05,3.75 v 0.3 0.55 l -0.45,0.25 -1.85,1.15 -0.8,0.45 -0.1,-0.85 1.15,-0.7 1.75,-1 0.3,-0.15 M 33.1,33.3 33.05,32.65 v -0.1 l 0.05,-1 1.95,-1.35 0.15,0.6 0.35,0.6 -2.3,1.8 -0.15,0.1 m 0.35,-3.7 0.2,-0.9 q 0.55,-1.95 1.25,-3.55 l 5,-2.9 0.15,-0.05 -0.1,0.55 -0.05,0.15 -0.6,0.15 q -1.1,0.25 -2.1,1.2 -1,0.85 -1.4,1.7 l -0.4,1.15 -0.35,1.55 -0.05,0.3 -0.5,0.25 -1.05,0.4 m 15.3,-10.25 -0.2,0.2 -0.15,-0.45 0.35,0.25 M 49,22.2 h 0.1 l 1.05,0.3 0.05,0.15 v 0.15 l 0.15,0.9 h -0.1 L 49.3,23.5 49.05,23.55 49,22.2 m -7.35,4.6 -0.4,0.25 -3.4,2.55 0.05,-0.7 V 28.85 L 38,28.5 38.05,28.2 39.7,27.05 41.65,25.8 v 0.15 0.85 m 6,3.45 0.7,0.35 0.85,0.5 -0.5,1.3 -0.8,1.8 -0.35,-0.15 Q 46.75,33.7 46.3,33.3 l 0.35,-0.75 1,-2.3"
         fill="#ffffff"
         fill-rule="evenodd"
         stroke="none"
         id="path7" />
    </g>
    <g
       id="shape2"
       transform="translate(1.5,1.5)">
      <path
         d="M 0,23.8 V 0 H 64.1 V 23.8 57.55 H 0 Z"
         fill="none"
         stroke="#000000"
         stroke-linecap="round"
         stroke-linejoin="round"
         stroke-width="3"
         id="path8" />
    </g>
  </defs>
</svg>
