<?xml version="1.0" encoding="UTF-8" standalone="no"?>
<svg
   ffdec:objectType="frame"
   height="44.349998"
   width="78.599998"
   version="1.1"
   id="svg14"
   sodipodi:docname="130.svg"
   xmlns:inkscape="http://www.inkscape.org/namespaces/inkscape"
   xmlns:sodipodi="http://sodipodi.sourceforge.net/DTD/sodipodi-0.dtd"
   xmlns:xlink="http://www.w3.org/1999/xlink"
   xmlns="http://www.w3.org/2000/svg"
   xmlns:svg="http://www.w3.org/2000/svg"
   xmlns:ffdec="https://www.free-decompiler.com/flash">
  <sodipodi:namedview
     id="namedview14"
     pagecolor="#ffffff"
     bordercolor="#000000"
     borderopacity="0.25"
     inkscape:showpageshadow="2"
     inkscape:pageopacity="0.0"
     inkscape:pagecheckerboard="0"
     inkscape:deskcolor="#d1d1d1"
     fit-margin-top="5"
     fit-margin-left="5"
     fit-margin-right="5"
     fit-margin-bottom="5" />
  <g
     transform="translate(2,2.05)"
     id="g3">
    <use
       ffdec:characterId="1"
       height="42.700001"
       transform="translate(-1.75,-2)"
       width="76.449997"
       xlink:href="#shape0"
       id="use1" />
    <use
       ffdec:characterId="131"
       height="42.650002"
       transform="translate(-0.5,-0.4)"
       width="75.199997"
       xlink:href="#shape1"
       id="use2" />
    <use
       ffdec:characterId="3"
       height="44.349998"
       transform="translate(-2,-2.05)"
       width="78.599998"
       xlink:href="#shape2"
       id="use3" />
  </g>
  <defs
     id="defs14">
    <g
       id="shape0"
       transform="translate(1.75,2)">
      <path
         d="M 2.8,0 V -0.4 H 5.4 V 0 H 9.7 V 19.45 0 H 20.55 L 19.3,19.45 H 9.7 0.25 V 0 H 2.8"
         fill="#ffffff"
         fill-rule="evenodd"
         stroke="none"
         id="path3" />
      <path
         d="M 0.25,19.45 H 9.7 19.3 L 18.7,28.6 16,28.5 10.95,27.95 9.7,27.8 Q 7.45,27.6 5.85,27.75 4.05,27.9 1.5,28.6 0.75,28.8 0.25,29.15 v -9.7 m 9.45,0 v 8.35 -8.35"
         fill="#121212"
         fill-rule="evenodd"
         stroke="none"
         id="path4" />
      <path
         d="m 9.7,27.8 1.25,0.15 5.05,0.55 2.7,0.1 h 1.05 l 3.75,0.15 q 2.45,0.3 3.6,1.25 0.6,0.5 0.6,1.1 0,0.65 -0.8,1 l -1.3,0.2 -7.15,0.15 -5.6,-0.3 L 9.7,31.75 7.95,31.6 3.1,31.95 0.95,32.3 0.25,32.1 -0.35,31.55 -0.5,31.3 V 29.9 L 0.25,29.15 Q 0.75,28.8 1.5,28.6 4.05,27.9 5.85,27.75 7.45,27.6 9.7,27.8 v 3.95 -3.95"
         fill="#999999"
         fill-rule="evenodd"
         stroke="none"
         id="path5" />
      <path
         d="M 2.8,0 H 0.25 M 9.7,0 H 5.4 m 16.15,0 h 10.7 M 20.55,0 H 9.7"
         fill="none"
         stroke="#666666"
         stroke-linecap="round"
         stroke-linejoin="round"
         stroke-width="4"
         id="path6" />
      <path
         d="m 9.7,-0.4 h 65 V 40.5 H 47.05 L 45.5,40.7 27,40.65 25.95,40.5 H 9.7 -0.5 V -0.4 H 9.7 V 40.5 -0.4"
         fill="#ffffff"
         fill-rule="evenodd"
         stroke="none"
         id="path7" />
    </g>
    <g
       id="shape1"
       transform="translate(0.5,0.4)">
      <path
         d="M 52.3,40.5 H -0.5 V -0.4 h 75.2 v 40.9 h -9.75 l 0.1,-0.35 v -1 l -0.1,-0.95 0.35,0.2 q 1,0.6 1.65,0.7 l 0.8,-0.1 0.7,-0.05 0.55,-0.15 0.85,-0.55 q 0.6,-0.55 0.85,-1.4 L 70.55,35.4 Q 70.25,34.45 69.5,33.85 L 68.85,33.4 68.2,33.15 q -0.65,-0.15 -1.25,0 -0.55,0.1 -1,0.3 l -0.25,-0.3 -1.45,-2 -0.25,-1.35 2.35,-0.55 1.5,-0.65 q 0.95,-0.65 1.75,-2.5 1.05,-2.3 1.05,-3.7 -0.05,-1.5 -1.3,-3.35 l 0.8,-0.85 0.4,-0.75 0.05,-0.4 -0.05,-0.25 -0.5,-1.05 q -0.4,-0.5 -1.05,-0.5 l -1.3,0.1 -0.5,-0.05 -0.55,0.05 -0.5,0.15 -0.9,-0.55 -0.9,-0.6 L 63.8,14.1 62,13.7 61.75,13.45 60.5,12.4 60.05,12.1 59.55,11.95 h -1 q -0.55,0.2 -0.75,0.55 -0.15,0.2 -0.35,0.95 l -0.2,0.35 -0.15,0.5 -0.25,1.4 v 0.05 l -0.8,0.8 -0.7,1.1 -0.6,1.7 -0.2,1.2 -0.05,0.65 -4.35,-7.4 q -0.65,-1.2 -1.3,-1.85 -0.9,-0.95 -2,-1.1 -0.65,-0.1 -1,0.25 -0.35,0.4 -0.25,1.1 L 45.7,13.1 45.3,13.05 40,8.45 Q 36.9,5.9 34.15,4.55 31.8,3.25 30.3,3.95 q -1.1,0.5 -1.4,1.75 -0.35,1.25 0.3,2.25 0.5,0.8 2.45,2.05 2.3,1.4 5.3,3.95 l 5.05,4.4 7.9,6 2.75,2.95 2.6,2.55 -0.5,1.1 -1.2,2.8 -0.5,2.4 -0.65,1.75 q -0.35,1.05 -0.3,1.75 l 0.2,0.85 m 7.65,-22.1 0.05,0.5 0.3,1.25 q 0.3,0.8 1.1,1.85 l 0.3,0.45 q -0.4,0.65 -1.15,1 l -1.6,0.25 q -0.8,-0.1 -1.4,-0.7 -0.6,-0.6 -0.8,-1.4 -0.2,-0.8 0.15,-1.55 0.3,-0.8 1,-1.25 0.65,-0.45 1.5,-0.45 l 0.55,0.05 m 4.95,5.8 1.85,-0.05 Q 67.4,24 67.9,23.5 l 0.45,-0.7 0.45,0.3 q 0.6,0.55 0.75,1.4 0.15,0.85 -0.25,1.55 -0.4,0.7 -1.15,1.05 l -1.6,0.1 -1.3,-0.9 q -0.5,-0.7 -0.45,-1.55 l 0.1,-0.55"
         fill="#999999"
         fill-rule="evenodd"
         stroke="none"
         id="path8" />
      <path
         d="m 64.95,40.5 q -0.35,0.75 -1.15,0.95 -0.5,0.6 -1.45,0.75 h -1.7 L 58.9,42.15 57.3,41.75 56.75,41.35 55.7,42 54.1,42.1 52.7,41.2 52.3,40.5 52.1,39.65 q -0.05,-0.7 0.3,-1.75 l 0.65,-1.75 0.5,-2.4 1.2,-2.8 0.5,-1.1 -2.6,-2.55 -2.75,-2.95 -7.9,-6 -5.05,-4.4 Q 33.95,11.4 31.65,10 29.7,8.75 29.2,7.95 28.55,6.95 28.9,5.7 29.2,4.45 30.3,3.95 31.8,3.25 34.15,4.55 36.9,5.9 40,8.45 l 5.3,4.6 0.4,0.05 -0.1,-0.9 q -0.1,-0.7 0.25,-1.1 0.35,-0.35 1,-0.25 1.1,0.15 2,1.1 0.65,0.65 1.3,1.85 l 4.35,7.4 0.05,-0.65 0.2,-1.2 0.6,-1.7 0.7,-1.1 0.8,-0.8 V 15.7 l 0.25,-1.4 0.15,-0.5 0.2,-0.35 q 0.2,-0.75 0.35,-0.95 0.2,-0.35 0.75,-0.55 h 1 l 0.5,0.15 0.45,0.3 1.25,1.05 0.25,0.25 1.8,0.4 0.55,0.25 0.9,0.6 0.9,0.55 0.5,-0.15 0.55,-0.05 0.5,0.05 1.3,-0.1 q 0.65,0 1.05,0.5 l 0.5,1.05 0.05,0.25 -0.05,0.4 -0.4,0.75 -0.8,0.85 q 1.25,1.85 1.3,3.35 0,1.4 -1.05,3.7 -0.8,1.85 -1.75,2.5 l -1.5,0.65 -2.35,0.55 0.25,1.35 1.45,2 0.25,0.3 q 0.45,-0.2 1,-0.3 0.6,-0.15 1.25,0 l 0.65,0.25 0.65,0.45 q 0.75,0.6 1.05,1.55 l 0.15,1.45 q -0.25,0.85 -0.85,1.4 L 69,38.8 68.45,38.95 67.75,39 66.95,39.1 Q 66.3,39 65.3,38.4 l -0.35,-0.2 0.1,0.95 v 1 l -0.1,0.35 m -5,-22.1 -0.55,-0.05 q -0.85,0 -1.5,0.45 -0.7,0.45 -1,1.25 -0.35,0.75 -0.15,1.55 0.2,0.8 0.8,1.4 0.6,0.6 1.4,0.7 l 1.6,-0.25 q 0.75,-0.35 1.15,-1 L 61.4,22 Q 60.6,20.95 60.3,20.15 L 60,18.9 59.95,18.4 m 4.95,5.8 -0.1,0.55 q -0.05,0.85 0.45,1.55 l 1.3,0.9 1.6,-0.1 Q 68.9,26.75 69.3,26.05 69.7,25.35 69.55,24.5 69.4,23.65 68.8,23.1 L 68.35,22.8 67.9,23.5 Q 67.4,24 66.75,24.15 L 64.9,24.2"
         fill="#ffffff"
         fill-rule="evenodd"
         stroke="none"
         id="path9" />
      <path
         d="m 51.15,10.85 -0.4,3 0.75,-0.05 3,0.1 -1.7,-6.25 -0.65,-1.3 q -0.65,2.15 -1,4.5 M 31.7,2.25 36.75,2.15 h 4.15 l 9.85,0.8 1,0.25 Q 52.4,3.25 53,3.8 l 1.15,1.7 0.55,1.05 0.3,0.7 0.25,1 q 0.45,2.2 1.2,4.4 l 0.45,1.4 v 1.15 q -0.3,0.75 -1.2,0.95 l -1.6,0.1 -1.95,-0.1 h -1.9 q -0.45,1.15 -1.2,1.7 1.4,0.55 1.65,1.25 0.2,0.45 0,1.5 -0.35,1.75 -0.45,5.25 v 2.75 l 0.65,0.05 0.5,0.1 0.4,-0.15 0.85,-0.15 h 1.05 l 1.7,0.2 q 0.95,0.4 0.9,1.3 l -0.15,0.5 -0.85,4.3 -0.45,1.55 -0.05,0.15 -0.2,0.75 -0.35,0.85 -0.85,0.5 -0.75,0.05 -0.75,0.05 -0.55,-0.35 -4.55,0.05 q -4.6,0.2 -7.65,0 l -2.6,-0.15 -2.6,-0.05 -5.4,0.5 -4.2,0.05 -2.55,-0.35 -1.15,-0.4 -1.05,0.15 -2.4,0.3 -1.2,-0.05 -0.9,0.15 -2.25,0.15 -1.35,-0.1 Q 10.8,38.3 10.1,37.05 L 7.45,32.15 Q 6.5,30.4 6.3,29.6 6.05,28.6 5.95,27.35 5.35,21.6 5.75,15.5 L 6.2,10.65 Q 6.55,7.8 6.9,6.85 L 8.35,3.4 Q 8.8,2.1 9.2,1.8 l 1.4,-0.25 6.85,0.7 h 9.4 q 1.25,0 1.6,0.6 L 29,3.7 Q 29.05,2.9 30.05,2.5 L 31.7,2.25 m 21.35,32.9 0.1,0.25 0.15,-0.4 0.75,-4.35 -1.55,0.1 -0.7,0.1 -0.85,0.05 h -0.2 l 0.85,1.7 1.45,2.55 M 25.55,4.3 18.15,3.7 h -0.2 L 10.55,4 9.75,5.95 9,8 Q 8.6,9.45 8.4,11.7 L 7.9,15.9 Q 7.55,18.7 7.6,20.5 L 7.95,23.85 8,25.6 8.15,27.3 Q 8.45,29.35 10,32 l 2.6,4.45 1.7,-0.15 1.4,-0.05 1.5,-0.15 1.85,-0.15 1.15,-0.25 Q 19.65,35 19,34.8 l -0.55,-0.2 q -0.3,-0.2 -0.15,-0.45 l 0.9,-0.1 0.95,0.15 h 0.9 l 0.75,0.75 0.95,1.05 0.3,0.35 h 1.15 q 9,-0.6 17.6,-0.25 l 8.6,0.45 -1.45,-3 Q 47.9,31.5 47.7,30 47.55,29 47.75,27.1 l 0.65,-6.95 -1.3,-0.5 Q 46.45,19.3 46.35,18.9 46.25,18.6 46.55,18 l 0.55,-0.95 0.5,-0.9 0.9,-1.35 0.3,-1.5 Q 49.3,9.1 50.4,5.4 L 46.7,5.2 Q 41.45,4.7 32.1,5 l -1.15,0.2 -1,0.8 -1.1,0.25 Q 28.2,6.2 27.75,5.8 l -0.5,-0.65 -0.6,-0.6 -1.1,-0.25"
         fill="#000000"
         fill-rule="evenodd"
         stroke="none"
         id="path10" />
      <path
         d="m 51.15,10.85 q 0.35,-2.35 1,-4.5 l 0.65,1.3 1.7,6.25 -3,-0.1 -0.75,0.05 0.4,-3 m -25.6,-6.55 1.1,0.25 0.6,0.6 0.5,0.65 q 0.45,0.4 1.1,0.45 L 29.95,6 30.95,5.2 32.1,5 q 9.35,-0.3 14.6,0.2 l 3.7,0.2 q -1.1,3.7 -1.6,7.9 l -0.3,1.5 -0.9,1.35 -0.5,0.9 -0.55,0.95 q -0.3,0.6 -0.2,0.9 0.1,0.4 0.75,0.75 l 1.3,0.5 -0.65,6.95 q -0.2,1.9 -0.05,2.9 0.2,1.5 1.25,3.55 l 1.45,3 -8.6,-0.45 Q 33.2,35.75 24.2,36.35 H 23.05 L 22.75,36 21.8,34.95 21.05,34.2 h -0.9 l -0.95,-0.15 -0.9,0.1 q -0.15,0.25 0.15,0.45 L 19,34.8 q 0.65,0.2 1.2,0.9 L 19.05,35.95 17.2,36.1 15.7,36.25 14.3,36.3 12.6,36.45 10,32 Q 8.45,29.35 8.15,27.3 L 8,25.6 7.95,23.85 7.6,20.5 Q 7.55,18.7 7.9,15.9 L 8.4,11.7 Q 8.6,9.45 9,8 L 9.75,5.95 10.55,4 17.95,3.7 h 0.2 l 7.4,0.6 M 53.05,35.15 51.6,32.6 50.75,30.9 h 0.2 l 0.85,-0.05 0.7,-0.1 1.55,-0.1 -0.75,4.35 -0.15,0.4 -0.1,-0.25"
         fill="#ffffff"
         fill-rule="evenodd"
         stroke="none"
         id="path11" />
      <path
         d="m 27.7,9.8 q 2,-0.4 3.6,0.55 V 10.3 q 0.7,-1.6 2.6,-2 1.2,-0.25 2.4,0.4 1.65,1 1.8,3.15 0,1.25 -0.45,2.2 l -0.55,0.8 -0.75,0.55 q -1,0.6 -1.8,0.8 l -0.05,0.5 q -0.2,1.5 -1,2.75 -0.8,1.25 -2,2.1 l 0.05,0.05 1.3,2.2 0.5,1.05 0.3,0.6 1.35,-2.75 0.85,-1.8 1.05,-2.65 0.35,-0.5 q 0.35,-0.25 0.6,0 v 0.75 0.65 l -2.95,10.25 -0.35,0.8 -0.3,0.45 -1.15,1.45 q -2,1.85 -4.75,2.25 Q 25.7,34.7 23.05,33.7 20.75,32.9 20,31.35 19.6,30.4 19.6,29.45 19.4,27.05 20.45,25 l -0.95,0.25 -1.95,0.15 -1.4,-0.15 q -0.55,-0.15 -1.1,-0.7 -1.1,-1.2 -0.7,-2.6 0.3,-0.9 1.2,-1.4 l 1.1,-0.25 0.25,-0.5 q 0.45,-0.55 1.05,-0.3 0.6,0.15 0.8,0.8 v 0.5 l -0.05,0.25 0.25,0.2 0.35,0.2 0.6,0.05 1.8,-0.45 0.6,-0.2 Q 21.2,19.4 21.1,17.5 l 0.25,-2 0.1,-0.25 Q 20.2,15.05 19.65,14.4 L 19.2,13.7 18.9,12.95 18.8,11.45 18.95,10.5 Q 19.1,9.85 19.8,9 20.9,7.7 22.45,7.5 24.2,7.25 25.5,8.55 q 0.7,0.7 1,1.6 0.75,-0.3 1.2,-0.35 m 1.65,4.4 q -0.4,0.1 -0.65,0.45 -0.3,0.35 -0.3,0.75 0,0.8 0.9,1.35 l 1.25,0.55 0.05,0.05 0.6,0.2 0.55,-0.2 0.35,-0.1 q 0.75,-0.2 1.1,-0.8 0.4,-0.6 0.1,-1.3 l -0.45,-0.5 q -0.4,-0.4 -0.75,-0.4 l -0.9,0.1 q -0.25,0.05 -0.4,0.2 -0.7,-0.6 -1.45,-0.35 m 0.75,4.35 -1.35,-0.3 h -0.2 V 18.2 L 28.45,17.95 28.3,17.7 28,17.45 27.6,17.4 l -0.35,0.45 -0.15,0.4 -1.5,0.1 -0.7,0.15 q -0.35,0.2 -0.35,0.7 0.1,0.5 0.5,0.6 h 0.7 L 26.4,19.6 27.35,19.55 30,19.1 Q 30.45,19 30.35,18.7 L 30.1,18.55 M 26.55,14.2 Q 25.8,13.95 25.1,14.55 l -0.4,-0.2 -0.9,-0.1 q -0.35,0 -0.75,0.4 l -0.45,0.5 q -0.3,0.7 0.1,1.3 0.35,0.6 1.1,0.8 l 0.35,0.1 0.55,0.2 0.6,-0.2 0.05,-0.05 1.25,-0.55 Q 27.5,16.2 27.5,15.4 L 27.2,14.65 26.55,14.2"
         fill="#000000"
         fill-rule="evenodd"
         stroke="none"
         id="path12" />
      <path
         d="m 29.35,14.2 q 0.75,-0.25 1.45,0.35 0.15,-0.15 0.4,-0.2 l 0.9,-0.1 q 0.35,0 0.75,0.4 l 0.45,0.5 q 0.3,0.7 -0.1,1.3 -0.35,0.6 -1.1,0.8 l -0.35,0.1 -0.55,0.2 -0.6,-0.2 -0.05,-0.05 -1.25,-0.55 q -0.9,-0.55 -0.9,-1.35 0,-0.4 0.3,-0.75 0.25,-0.35 0.65,-0.45 m -2.8,0 0.65,0.45 0.3,0.75 q 0,0.8 -0.9,1.35 l -1.25,0.55 -0.05,0.05 -0.6,0.2 -0.55,-0.2 -0.35,-0.1 q -0.75,-0.2 -1.1,-0.8 -0.4,-0.6 -0.1,-1.3 l 0.45,-0.5 q 0.4,-0.4 0.75,-0.4 l 0.9,0.1 0.4,0.2 q 0.7,-0.6 1.45,-0.35 m 3.55,4.35 0.25,0.15 Q 30.45,19 30,19.1 l -2.65,0.45 -0.95,0.05 -0.65,0.2 h -0.7 q -0.4,-0.1 -0.5,-0.6 0,-0.5 0.35,-0.7 l 0.7,-0.15 1.5,-0.1 0.15,-0.4 0.35,-0.45 0.4,0.05 0.3,0.25 0.15,0.25 0.1,0.25 v 0.05 h 0.2 l 1.35,0.3"
         fill="#ffffff"
         fill-rule="evenodd"
         stroke="none"
         id="path13" />
    </g>
    <g
       id="shape2"
       transform="translate(2,2.05)">
      <path
         d="M -0.5,-0.4 V -0.55 H 75.1 V -0.4 40.8 H -0.5 Z"
         fill="none"
         stroke="#000000"
         stroke-linecap="round"
         stroke-linejoin="round"
         stroke-width="3"
         id="path14" />
    </g>
  </defs>
</svg>
