<?xml version="1.0" encoding="UTF-8" standalone="no"?>
<svg
   ffdec:objectType="frame"
   height="60.549999"
   width="67.099998"
   version="1.1"
   id="svg7"
   sodipodi:docname="706.svg"
   xmlns:inkscape="http://www.inkscape.org/namespaces/inkscape"
   xmlns:sodipodi="http://sodipodi.sourceforge.net/DTD/sodipodi-0.dtd"
   xmlns:xlink="http://www.w3.org/1999/xlink"
   xmlns="http://www.w3.org/2000/svg"
   xmlns:svg="http://www.w3.org/2000/svg"
   xmlns:ffdec="https://www.free-decompiler.com/flash">
  <sodipodi:namedview
     id="namedview7"
     pagecolor="#ffffff"
     bordercolor="#000000"
     borderopacity="0.25"
     inkscape:showpageshadow="2"
     inkscape:pageopacity="0.0"
     inkscape:pagecheckerboard="0"
     inkscape:deskcolor="#d1d1d1"
     fit-margin-top="5"
     fit-margin-left="5"
     fit-margin-right="5"
     fit-margin-bottom="5" />
  <g
     transform="translate(1.5,1.5)"
     id="g3">
    <use
       ffdec:characterId="516"
       height="57.549999"
       width="64.099998"
       xlink:href="#shape0"
       id="use1" />
    <use
       ffdec:characterId="1196"
       height="54.450001"
       transform="translate(2.75,2.85)"
       width="61.849998"
       xlink:href="#shape1"
       id="use2" />
    <use
       ffdec:characterId="518"
       height="60.549999"
       transform="translate(-1.5,-1.5)"
       width="67.099998"
       xlink:href="#shape2"
       id="use3" />
  </g>
  <defs
     id="defs7">
    <g
       id="shape0">
      <path
         d="M 53.6,0 H 64.1 V 57.55 H 53.6 28.25 0 V 0 H 28.25 53.6 V 57.55 0 M 28.25,0 V 57.55 0"
         fill="#ffffff"
         fill-rule="evenodd"
         stroke="none"
         id="path3" />
    </g>
    <g
       id="shape1"
       transform="translate(-2.75,-2.85)">
      <path
         d="m 56.3,16.9 -0.1,-1.95 -0.15,-0.45 -0.1,-1.05 -0.2,-0.7 Q 55.5,11.5 56.55,10.8 57,10.45 57.6,10.5 q 0.6,0 1.05,0.35 1,0.75 0.55,2 l -0.35,0.6 -0.45,1.15 -0.55,2.2 -0.15,0.8 -0.25,0.6 -0.15,0.85 q -0.2,0.55 -0.7,0.4 L 56.3,19.1 v -1.4 -0.8 m -19.15,13.3 -0.7,1.05 Q 35.7,31.9 34.7,31.65 33.75,31.5 33.4,30.5 33.05,29.65 33.45,28.65 33.8,27.8 34.45,27 l 4.1,-6.35 q 1.8,-3.1 2.75,-4.25 l 0.7,-0.65 0.9,-0.1 q 0.6,0.25 0.6,1.15 l -0.5,1.25 -1.55,3.5 -1.5,3.55 -2.8,5.1 m 4.55,12.15 -0.65,0.3 q 0.15,0.55 -0.2,0.9 L 40.1,43.8 39.35,43.65 38.6,43.35 q -0.85,-0.1 -1.65,-0.6 -1.25,-0.85 -1.7,-2.25 -0.45,-1.35 -0.1,-2.8 l 0.2,-1.35 q 0.85,-3.25 3.9,-4.6 0.75,-0.3 1.55,-0.45 l 1.2,-0.05 1.1,0.1 q 0.05,-2.25 1.05,-4.4 1.2,-2.55 3.35,-4.1 0.75,-0.55 1.3,-0.8 l 1.55,-0.55 2.55,-0.3 q 2.55,0.05 4.8,1.4 2.25,1.4 3.25,3.65 0.85,1.8 0.6,3.75 -0.15,1.15 -0.7,2.05 l 0.7,0.05 q 1.05,0.1 1.45,0.45 l 0.65,1.05 0.1,0.8 -0.2,0.3 -0.1,0.05 q 0.35,1.1 0.1,2.65 -0.4,1.8 -1.55,2.2 h -1.1 l -1.1,-0.2 -2.4,0.05 -0.3,0.2 0.05,0.45 0.15,0.55 q 0.85,-0.55 2.4,0 1,0.45 1.2,0.95 0.25,0.6 -0.05,1.15 l -0.9,0.8 q -0.6,0.2 -1.6,0 L 57.1,43.1 56.8,42.8 56.4,43.5 55.9,43 h -0.05 l 0.1,-0.2 0.45,-1 0.4,-1.45 q 0.05,-0.8 -0.25,-1.45 l 0.1,-0.15 0.25,-0.35 q 0.85,0 1.5,-0.65 0.9,-0.8 0.8,-2.25 0,-0.9 -0.6,-2.4 -0.4,-1.2 -1,-1.95 -0.55,-0.8 -2,-1.65 l -1.5,-0.75 -2.15,-0.2 -2.4,0.45 q -0.8,0.4 -1.5,0.9 -2.8,2.15 -3,4.9 l 0.1,1.15 q -0.65,0.15 -1.55,0.6 -0.95,0.45 -1.5,1.05 -0.7,0.8 -0.95,2.3 l -0.05,0.85 q 0.1,0.75 0.6,1.6 m 15.2,2.1 1.85,0.25 h 1.95 l 0.65,0.15 v -0.6 l 0.1,-0.75 q 0.15,-0.65 0.9,-0.75 0.7,0 1.05,0.6 l 0.2,1 0.05,2.7 q 0,3.25 -0.35,4.8 l -0.05,0.3 q 0.7,0 1,0.25 0.35,0.35 0.35,0.9 -0.05,0.5 -0.45,0.85 -0.55,0.6 -1.8,0.7 L 61.05,54.8 60.15,54.35 59.2,53.9 q -0.6,1.8 -2.6,2.65 -1.7,0.7 -3.8,0.45 L 51.05,56.5 49.85,55.55 48.7,54.1 q -3.1,2.75 -5.9,3.1 l -2.25,0.1 -1.8,-0.05 Q 36.4,56.95 34.7,55.45 34,54.9 33.65,54.2 q -0.3,-0.65 -0.3,-1.5 0,-2.4 1.75,-4.25 1.35,-1.35 3.5,-2 l 1.6,-0.05 0.5,0.6 q 0.15,0.4 -0.1,0.7 l -0.55,0.35 1.5,0.3 Q 43.2,48.7 44.9,47.9 l 2.35,-1.7 0.35,0.35 q -0.75,0.25 -0.85,1 l 0.05,0.75 0.55,1.2 0.8,0.5 1.5,0.55 1.65,0.15 1.55,-0.1 1.4,-0.5 1.25,-0.8 0.6,-0.75 q 1.05,-1.4 0.95,-3.2 l -0.15,-0.9 m -10.2,0.8 -0.45,-0.6 -0.05,-0.15 h 0.3 l 0.2,0.75 M 39.5,26.1 q 0.4,-0.4 0.95,-0.45 0.6,-0.05 1,0.3 0.45,0.3 0.75,1.25 l 0.35,1.4 0.3,0.9 q 0.1,0.65 -0.25,0.85 L 41.9,30.4 41.3,30.05 39.5,28.4 q -0.8,-1.35 0,-2.3 m 6.5,19 0.3,0.8 q -0.05,0.5 -0.4,0.7 l -0.85,0.15 -0.9,0.3 -0.9,0.35 -1.85,-0.05 q -0.55,-0.3 -0.55,-0.95 -0.05,-0.6 0.4,-1.05 0.4,-0.35 1.05,-0.5 l 0.65,-0.15 0.55,-0.25 0.7,-0.05 0.3,0.1 q 1.1,0.1 1.5,0.6 M 31.7,2.85 q 0.75,0 1.05,0.7 0.25,0.7 -0.25,1.2 -0.6,0.5 -1.25,0.25 -0.7,-0.35 -0.7,-1.05 0,-0.4 0.3,-0.75 0.3,-0.3 0.7,-0.35 H 31.7 M 30.45,9.8 30.2,8.95 Q 30.1,7.35 31.5,6.6 l 1.4,-0.15 1.2,0.7 q 0.65,0.9 0.4,2.1 -0.2,1.1 -0.95,1.5 l -2,-0.1 Q 30.75,10.3 30.45,9.8 m -7.9,-4.55 q 0.1,0.5 -0.4,0.8 l -0.3,0.1 q -0.35,0 -0.6,-0.35 L 21.15,5.65 21.1,5.4 q 0,-0.35 0.35,-0.6 l 0.65,-0.05 0.45,0.5 m 6.05,1.35 0.5,0.15 0.55,0.6 V 8.2 L 29.1,8.85 28.3,9 Q 27.9,8.95 27.6,8.55 27.3,8.15 27.35,7.75 27.35,7.25 27.7,6.9 28.1,6.5 28.6,6.6 M 36.5,20 q 0.1,0.75 -0.45,1.45 -0.5,0.65 -1.25,0.9 l -2.1,0.3 Q 32.15,22.8 30.95,23.7 24.45,29 19.4,40.1 l -1.8,3.85 -2.1,3.7 -0.3,0.2 q -0.3,0 -0.15,-0.55 L 18.9,37.05 q 2.1,-6.1 3.3,-8.7 2.15,-4.7 5,-7.65 1.75,-1.75 3.25,-2.4 2.1,-0.9 4,-0.4 1.85,0.6 2.05,2.1 M 8.15,5.75 Q 8.8,5.7 9.4,6.1 10,6.5 10.2,7.15 l 0.1,1.1 q -0.1,1.35 -0.7,1.9 -0.5,0.5 -1.4,0.5 -0.8,0.1 -1.6,-0.4 Q 5.8,9.75 5.75,8.95 L 5.85,8 Q 6.1,7.05 6.65,6.5 7.25,5.85 8.15,5.75 M 2.8,7.5 2.75,7.25 q 0,-0.45 0.4,-0.75 l 0.8,-0.1 q 0.6,0.25 0.6,0.85 0,0.6 -0.6,0.85 L 3.25,8.05 2.8,7.5 m 1.95,3.25 q 0.4,0.1 0.65,0.4 l 0.25,0.7 -0.35,0.7 q -0.3,0.3 -0.7,0.3 -0.8,0 -1,-0.75 V 11.75 L 3.7,11.3 Q 4,10.65 4.75,10.75 M 16.3,30.6 15.2,30.55 Q 14.65,30.35 14.35,30 L 13.3,28.65 12.75,30.2 q -2.7,5.95 -8.35,16.55 l -0.8,1.3 -0.45,0.25 q -0.35,-0.1 -0.1,-0.75 1.7,-3.3 3.65,-9.3 2.2,-6.95 3.3,-9.5 0.4,-1 0.85,-1.45 0.5,-0.45 1.05,-0.5 l -0.45,-0.75 -0.4,-1 L 9.75,23.2 9.2,21.9 v -0.45 -0.1 l 0.05,-0.2 0.2,-0.3 0.35,-0.35 h 0.15 l 0.9,-0.15 q 0.75,0.15 1.45,1.3 l 2.15,3.8 1.15,1.5 0.9,1.4 0.2,0.6 0.2,0.5 -0.15,0.75 -0.45,0.4 M 5.2,36.95 5.4,35.25 7.35,24.45 7.6,23.6 q 0.4,-0.65 1.2,-0.5 0.75,0.15 1,0.85 0.25,0.65 -0.15,1.7 L 5.85,37.2 q -0.2,0.5 -0.5,0.45 l -0.2,-0.3 0.05,-0.4 m 27.1,-10.8 q 0.65,0.45 0.45,1.45 l -0.9,1.3 -2.55,2.3 q -3.15,3.5 -4.05,4.8 l -2.45,3.4 -0.35,0.35 -0.5,-0.05 v -0.5 l 0.9,-2.95 q 0.9,-2.25 2.1,-4.35 l 2.6,-3.65 q 1.8,-2.15 3.5,-2.4 0.8,-0.1 1.25,0.3 M 24.8,47.5 q -0.95,0.1 -1.5,-0.7 -0.6,-0.75 -0.35,-1.65 0.2,-0.7 0.6,-1.05 l 1,-0.4 q 1.25,-0.25 3.15,0 l 3.15,0.45 h 4.85 l 0.6,0.1 0.25,0.45 -0.3,0.35 -0.45,0.1 -4.1,0.7 -1.55,0.15 -2.7,0.8 -1.35,0.35 -1.3,0.35 m 5.1,3.1 -4.3,2.9 -0.9,0.4 -0.95,-0.1 -0.7,-0.65 Q 22.6,52.1 23.45,51.4 l 1.25,-0.6 0.6,-0.3 q 0.8,-0.35 2.45,-0.6 l 1.95,-0.7 q 1.2,-0.5 1.95,-0.6 0.45,-0.1 0.6,0.15 0.25,0.25 -0.1,0.55 l -0.5,0.3 -1.75,1"
         fill="#999999"
         fill-rule="evenodd"
         stroke="none"
         id="path4" />
      <path
         d="m 56.4,43.5 0.5,0.95 0.15,0.9 q 0.1,1.8 -0.95,3.2 l -0.6,0.75 -1.25,0.8 -1.4,0.5 -1.55,0.1 -1.65,-0.15 -1.5,-0.55 -0.8,-0.5 -0.55,-1.2 -0.05,-0.75 q 0.1,-0.75 0.85,-1 L 47.25,46.2 46.8,45.5 46.7,45.25 46.5,44.5 h -0.3 -0.45 q -1.75,0 -2.5,-0.45 l -0.9,-0.8 -0.65,-0.9 q -0.5,-0.85 -0.6,-1.6 l 0.05,-0.85 q 0.25,-1.5 0.95,-2.3 0.55,-0.6 1.5,-1.05 0.9,-0.45 1.55,-0.6 l -0.1,-1.15 q 0.2,-2.75 3,-4.9 0.7,-0.5 1.5,-0.9 l 2.4,-0.45 2.15,0.2 1.5,0.75 q 1.45,0.85 2,1.65 0.6,0.75 1,1.95 0.6,1.5 0.6,2.4 0.1,1.45 -0.8,2.25 -0.65,0.65 -1.5,0.65 l -0.25,0.35 -0.1,0.15 q 0.3,0.65 0.25,1.45 l -0.4,1.45 -0.45,1 -0.1,0.2 h 0.05 l 0.5,0.5"
         fill="#ffffff"
         fill-rule="evenodd"
         stroke="none"
         id="path5" />
      <path
         d="m 44.95,13.5 q 1.65,1.25 1.6,2.6 l -0.4,1.3 -3.6,7.75 q -2.05,3.9 -5.35,8.55 -0.7,1 -1.35,1.2 -0.75,0.2 -1.8,-0.3 L 30.4,32.65 q -1.9,-1.2 -2,-2.45 -0.05,-0.65 0.4,-1.65 1.15,-2.65 4.25,-7.55 3.15,-4.9 4.25,-7.6 0.55,-1.25 1,-1.65 l 2.6,-0.2 0.65,0.2 v -0.1 L 41.95,10 Q 42.05,9.05 41.35,8.2 41.15,7.9 40.8,7.75 L 39.9,7.55 38.55,7.8 37.7,9.05 q -0.65,1.1 -1.45,1.55 l -1.8,0.35 q -1.05,0 -1.7,-0.4 Q 31.8,10 31.8,9.15 31.75,8.75 32.05,8.35 32.35,7.95 32.75,7.9 33,7.85 33.9,8.25 L 35.05,8.5 35.8,7.9 36.25,7 q 1.2,-1.95 4,-2.3 0.85,-0.15 1.65,0 1.4,0.4 2.2,1.6 0.7,0.95 0.95,2.6 0.15,1.75 -0.25,3.2 l -0.35,1 0.5,0.4 m -10.3,17.05 0.55,0.15 0.55,-0.4 q 2.1,-2.7 2.7,-4.25 l 0.45,-1.2 1.2,-2.45 1.35,-2.35 1.55,-3.5 q -1,-0.9 -2.2,-1.3 L 40.45,15.2 40.2,15.5 38,19.85 35.55,24 q -1.35,2.35 -2.6,5 l -0.1,0.4 0.4,0.4 1.4,0.75 M 48.2,34.8 48.15,34.2 q 0.1,-0.75 0.4,-1 0.2,-0.15 0.7,-0.25 l 0.75,-0.1 1.55,-0.05 0.7,0.1 0.5,0.3 0.35,0.3 0.15,0.45 q 0.2,1 -0.7,1.5 l -0.3,0.6 -0.75,1.55 -0.35,0.5 -0.4,0.35 -0.85,0.25 q -0.5,0 -0.85,-0.55 l -0.4,-1 -0.15,-0.5 v -0.4 L 48.35,35.8 V 35.35 L 48.2,34.8 m 3.05,0.1 -0.8,0.05 v 0.4 l 0.1,0.15 0.1,0.35 0.05,0.5 0.4,-0.8 0.05,-0.15 0.05,-0.1 v -0.2 l 0.05,-0.2 m -10.65,14.7 -0.8,-1 -1,-2.3 -0.65,-1.85 q -0.2,-0.85 0.15,-1.25 0.2,-0.25 1.35,-0.6 l 1.1,-0.5 0.2,-0.1 0.25,-0.1 0.2,-0.1 q 2.35,-1.15 4.35,-1.8 l 0.65,-0.15 0.45,0.2 q 0.5,0.3 0.6,0.65 l -0.15,1.25 -0.65,1.95 1.1,0.45 q 1,0.4 1.2,0.95 0.15,0.55 -0.25,1.1 l -0.9,0.7 q -0.95,0.55 -2.95,1.35 l -2.9,1.05 -1.35,0.1 m 1,-3.15 0.25,0.3 0.3,-0.05 2.75,-1.1 q -0.55,-0.3 -0.65,-1.05 0,-0.35 0.15,-0.6 V 43.9 l 0.2,-0.8 -2.8,1.1 -0.95,0.45 0.75,1.8 M 58.15,39.8 q 0.65,0.9 -0.05,1.75 l -0.8,0.85 2.9,0.25 0.6,-2.3 -2.65,-0.55 M 55,38.05 q 0.1,-0.55 0.75,-0.75 l 0.85,0.1 h 0.85 l 4.05,0.65 q 0.95,0.1 1.4,0.55 0.45,0.5 0.35,1.55 l -0.5,1.8 q -0.35,1.1 -0.3,1.8 l 0.05,0.65 q -0.1,0.9 -0.9,1.15 h -1 l -5,-0.65 -1,-0.25 q -0.85,-0.4 -0.65,-1.45 l 0.3,-0.55 0.85,-0.8 1.2,-1.45 -0.85,-1.1 Q 54.9,38.5 55,38.05 M 6.45,18.15 7.7,17.2 7.3,16.55 Q 6.75,15.35 7,14 7.15,12.9 8.4,10.8 L 8.6,10.35 8.15,9.85 Q 7.75,9.5 7.65,8.9 7.6,8.3 7.9,7.85 8.2,7.4 8.75,7.25 l 1.05,0.1 0.7,0.5 0.6,0.95 0.15,1.6 -0.1,1 -0.95,1.65 q -0.75,1 -0.85,1.65 v 1.05 L 9.4,16.1 v 0.05 l 1.05,-0.55 2,-0.2 q 0.5,0.25 1.25,1.65 0.75,1.55 2.25,3.7 l 2.5,3.6 1.9,3.4 0.5,1.2 q 0.2,1.05 -0.65,2 l -1.8,1.25 q -2.1,1 -3.35,0.5 -0.55,-0.25 -1.2,-0.9 l -2.9,-3.25 -2.15,-3 -2.95,-4.6 q -0.5,-0.8 -0.45,-1.3 0.05,-0.7 1.05,-1.5 m 4.85,0.4 -2,1.25 -0.2,0.25 0.1,0.3 2.55,3.8 0.65,0.85 1.8,2.35 1.6,1.65 0.65,0.4 L 17,29.3 17.95,28.65 18.1,28.4 17.95,28.1 15.4,24.15 14.6,23.3 13,21.1 11.85,19.6 11.3,18.55"
         fill="#000000"
         fill-rule="evenodd"
         stroke="none"
         id="path6" />
    </g>
    <g
       id="shape2"
       transform="translate(1.5,1.5)">
      <path
         d="M 0,23.8 V 0 H 64.1 V 23.8 57.55 H 0 Z"
         fill="none"
         stroke="#000000"
         stroke-linecap="round"
         stroke-linejoin="round"
         stroke-width="3"
         id="path7" />
    </g>
  </defs>
</svg>
