<?xml version="1.0" encoding="UTF-8" standalone="no"?>
<svg
   ffdec:objectType="frame"
   height="60.549999"
   width="67.099998"
   version="1.1"
   id="svg9"
   sodipodi:docname="619.svg"
   xmlns:inkscape="http://www.inkscape.org/namespaces/inkscape"
   xmlns:sodipodi="http://sodipodi.sourceforge.net/DTD/sodipodi-0.dtd"
   xmlns:xlink="http://www.w3.org/1999/xlink"
   xmlns="http://www.w3.org/2000/svg"
   xmlns:svg="http://www.w3.org/2000/svg"
   xmlns:ffdec="https://www.free-decompiler.com/flash">
  <sodipodi:namedview
     id="namedview9"
     pagecolor="#ffffff"
     bordercolor="#000000"
     borderopacity="0.25"
     inkscape:showpageshadow="2"
     inkscape:pageopacity="0.0"
     inkscape:pagecheckerboard="0"
     inkscape:deskcolor="#d1d1d1"
     fit-margin-top="5"
     fit-margin-left="5"
     fit-margin-right="5"
     fit-margin-bottom="5" />
  <g
     transform="translate(1.5,1.5)"
     id="g3">
    <use
       ffdec:characterId="516"
       height="57.549999"
       width="64.099998"
       xlink:href="#shape0"
       id="use1" />
    <use
       ffdec:characterId="1111"
       height="54"
       transform="translate(2.75,2.85)"
       width="58.849998"
       xlink:href="#shape1"
       id="use2" />
    <use
       ffdec:characterId="518"
       height="60.549999"
       transform="translate(-1.5,-1.5)"
       width="67.099998"
       xlink:href="#shape2"
       id="use3" />
  </g>
  <defs
     id="defs9">
    <g
       id="shape0">
      <path
         d="M 53.6,0 H 64.1 V 57.55 H 53.6 28.25 0 V 0 H 28.25 53.6 V 57.55 0 M 28.25,0 V 57.55 0"
         fill="#ffffff"
         fill-rule="evenodd"
         stroke="none"
         id="path3" />
    </g>
    <g
       id="shape1"
       transform="translate(-2.75,-2.85)">
      <path
         d="m 12.95,45.65 q -4,-4.5 -4.45,-10.2 -0.2,-2 0.1,-4.3 0.15,-2.05 0.65,-4.1 0.85,-3.5 2.7,-6.35 0.3,-5.35 1.9,-10.5 Q 14.5,7.85 15.7,7.15 L 18.4,7 l 2.35,1.3 3.9,3.2 q 1.8,-0.55 3.75,-0.8 l 2.85,-0.25 V 10.4 l 0.6,0.05 0.8,-0.05 v 0.05 l 2.85,0.25 3.75,0.8 3.85,-3.2 Q 44.85,7.25 45.5,7 l 2.7,0.15 q 1.2,0.7 1.85,3.05 1.6,5.15 1.85,10.5 1.9,2.85 2.75,6.35 l 0.65,4.1 q 0.3,2.3 0.1,4.3 -0.5,5.7 -4.45,10.2 -3.45,3.9 -9.1,6 l 0.7,1.15 1.5,4.05 h -24.8 l 2.1,-4.05 0.7,-1.15 q -5.65,-2.1 -9.1,-6 M 2.9,8.95 Q 2.5,7.8 3.05,6 L 3.3,5.35 3.95,4.45 q 1.7,-1.7 3.7,-1.55 0.95,0 2,0.6 0.85,0.4 1.3,0.95 0.9,1.1 0.7,2.9 l -0.2,1.1 -0.3,0.65 q -0.8,1.4 -2,1.95 L 9.3,12.15 9.1,13.2 8.15,14.3 6.7,14.6 Q 5.45,14.35 5.05,13.2 L 4.85,12.05 Q 4.85,11.5 5,11.1 3.35,10.35 2.9,8.95 M 9.75,7.65 9.65,6.6 Q 9.45,6.1 8.75,6 7.85,5.85 7.2,6.5 L 6.65,6.3 5.3,6.35 4.8,6.8 Q 3.95,7.95 4.55,8.95 l 0.9,1.15 0.8,0.05 Q 6.65,9.95 6.65,9.5 L 6.35,8.65 Q 6,8.1 6.25,7.75 L 6.9,7.9 7.5,7.95 7.6,7.9 H 7.65 Q 8.05,7.85 8.35,7.45 8.7,7.55 8.45,8 L 8,8.75 7.5,9.45 q -0.1,0.35 0.15,0.6 l 0.6,0.15 0.5,-0.35 0.55,-0.7 0.45,-1.5"
         fill="#767676"
         fill-rule="evenodd"
         stroke="none"
         id="path4" />
      <path
         d="M 9.75,7.65 9.3,9.15 8.75,9.85 8.25,10.2 7.65,10.05 Q 7.4,9.8 7.5,9.45 L 8,8.75 8.45,8 Q 8.7,7.55 8.35,7.45 8.05,7.85 7.65,7.9 H 7.6 L 7.5,7.95 6.9,7.9 6.25,7.75 Q 6,8.1 6.35,8.65 l 0.3,0.85 q 0,0.45 -0.4,0.65 L 5.45,10.1 4.55,8.95 Q 3.95,7.95 4.8,6.8 L 5.3,6.35 6.65,6.3 7.2,6.5 Q 7.85,5.85 8.75,6 q 0.7,0.1 0.9,0.6 l 0.1,1.05"
         fill="#ffffff"
         fill-rule="evenodd"
         stroke="none"
         id="path5" />
      <path
         d="m 31.35,18.7 1.05,0.2 2.35,0.05 Q 36,18.8 36.85,18.2 l 1,-0.75 1.1,-0.65 q 1,-0.3 1.75,0.25 0.85,0.5 0.95,1.55 0.05,0.8 -0.5,1.55 l -1.25,1.2 q -1.45,1.15 -2.95,1.55 -2.2,0.6 -5.1,-0.5 -1.35,-0.5 -2.05,-1.2 -1.05,-1.05 -0.9,-2.15 l 0.25,-0.65 1.1,-0.2 1.1,0.5 M 20.65,31 q 0.35,-0.55 1.85,-1.3 1.55,-0.8 2.8,-1.85 0.7,-0.7 0.65,-1.15 0,-0.45 -0.45,-0.8 l -0.95,-0.3 q -1.45,-0.05 -3,0.9 l -2.6,1.75 q -1.15,0.8 -1.95,0.5 l -0.65,-0.7 q -0.2,-0.5 -0.1,-1 0.1,-0.75 1,-1.75 1.45,-1.65 3.45,-2.85 2.35,-1.3 4.45,-1.3 2.7,0 4.1,1.85 0.75,0.95 1,2.3 0.4,1.85 -0.35,3.6 -0.7,1.8 -2.25,2.65 l 0.45,0.3 0.15,0.1 1.35,0.85 3.4,-0.15 q 1.5,-0.75 2.55,-2.1 L 36.85,28.4 38,26.1 q 1.55,-2.8 3.35,-3.7 1.05,-0.55 3.25,-0.65 1.95,0 3.05,0.6 1.1,0.5 2.3,2.2 1.1,1.25 1.65,2.6 0.5,1.1 0.75,3.6 l 0.15,3.4 q -0.2,2.25 -1.75,4.4 -1.35,2.1 -3.4,3.4 -2.2,1.35 -4.55,1.55 -1.95,0.2 -3.2,-0.5 -2,-1.15 -2.1,-3.3 -0.05,-1 0.5,-1.95 0.55,-0.9 1.45,-1.35 l 2,-0.2 q 1.05,0.2 1.75,0.95 L 43.85,38 q 0.4,0.45 0.9,0.4 l 0.7,-0.25 q 2.45,-1.65 2.75,-4.95 0.3,-2.8 -1.35,-5.55 -0.5,-1.05 -1.2,-1.4 L 43.9,26.1 q -0.95,0.25 -1.6,0.95 l -1.05,1.5 -0.8,1.7 Q 38.6,34 36.75,35 q -1.9,1.05 -3.2,1.2 -1.3,0.15 -3.5,-0.8 l 0.7,1.85 q 0.15,3.45 -2.25,6.1 -2.2,2.5 -5.7,3.25 -3.85,0.8 -6.85,-0.8 -1.6,-0.85 -2.65,-2.25 -1.1,-1.45 -1.35,-3.1 -0.35,-1.9 0.55,-3 0.55,-0.55 1.35,-0.7 0.85,-0.15 1.4,0.35 0.4,0.3 0.6,1 l 0.35,1.15 q 0.45,1.35 1.75,2.25 1.25,0.85 2.7,0.9 1.45,0 2.8,-0.75 l 2.1,-1.95 q 0.65,-1 0.65,-1.9 0.1,-1.15 -0.7,-2.1 -0.85,-1 -2.05,-1.3 L 22.3,34.2 21.25,33.85 q -0.7,-0.45 -0.9,-1.3 -0.2,-0.9 0.3,-1.55 m 14.9,-16.8 q 1.05,1 0.6,2.4 l -0.75,1 -1.25,0.45 q -1.3,0.1 -1.9,-1 -0.75,-1.15 -0.1,-2.2 0.55,-1.1 1.85,-1.2 0.85,0 1.55,0.55"
         fill="#000000"
         fill-rule="evenodd"
         stroke="none"
         id="path6" />
      <path
         d="m 51.65,3.65 1.25,0.3 q 1.55,0.15 2.75,-0.8 l 0.15,-0.1 0.1,-0.1 0.35,-0.1 h 0.05 l 0.35,0.1 0.1,0.1 0.1,0.1 q 1.25,0.95 2.75,0.8 l 1.25,-0.3 0.2,-0.05 h 0.15 q 0.25,0.05 0.3,0.45 0.35,2.3 -0.35,4.4 l -0.4,0.9 -1.4,1.95 -0.95,0.8 -0.6,0.4 q -0.45,0.2 -0.6,0.35 l -0.7,0.3 H 56.3 56.25 56 L 55.35,12.85 54.75,12.5 54.1,12.1 53.15,11.3 51.8,9.35 51.35,8.45 Q 50.65,6.35 51,4.05 51.05,3.65 51.3,3.6 h 0.15 l 0.2,0.05 m 4.7,7.1 H 56.5 V 10.7 l 0.05,-0.05 h 0.1 l 0.1,-0.1 h 0.05 l 0.05,-0.1 H 56.9 L 56.95,10.4 V 10.35 L 57,10.3 v -0.1 h 0.05 L 57.1,10.1 V 10.05 L 57.15,10 V 9.95 L 57.2,9.9 V 9.85 9.75 9.65 8.5 h 0.05 1 0.2 L 58.55,8.45 58.65,8.4 58.7,8.35 58.8,8.3 58.85,8.25 58.9,8.2 V 8.15 L 59,8.05 V 7.95 L 59.05,7.9 V 7.5 L 59,7.45 V 7.35 L 58.9,7.25 V 7.2 L 58.85,7.15 58.8,7.1 58.7,7.05 58.65,7 58.55,6.95 58.45,6.9 h -0.2 -1 -0.05 V 6.05 5.95 5.7 5.6 H 57.15 V 5.5 L 57.1,5.45 V 5.35 L 57,5.25 56.95,5.15 H 56.9 L 56.85,5.05 56.75,5 56.65,4.95 56.6,4.9 h -0.1 -0.05 -0.1 -0.3 L 55.95,4.95 55.85,5 55.8,5.05 55.75,5.15 H 55.7 l -0.05,0.1 H 55.6 V 5.3 L 55.55,5.35 55.5,5.4 V 5.5 5.6 H 55.45 V 5.7 5.95 6.05 6.9 H 55.4 54.35 54.2 L 54.1,6.95 54,7 53.9,7.05 53.85,7.1 53.8,7.15 53.75,7.2 v 0.05 l -0.1,0.1 v 0.1 L 53.6,7.5 V 7.65 L 53.55,7.7 53.6,7.75 V 7.9 l 0.05,0.05 v 0.1 l 0.1,0.1 V 8.2 L 53.8,8.25 53.85,8.3 53.9,8.35 54,8.4 54.1,8.45 54.2,8.5 h 0.15 1.05 0.05 v 1.15 0.1 0.1 0.05 l 0.05,0.05 v 0.15 h 0.05 l 0.05,0.1 0.05,0.1 0.05,0.05 v 0.05 l 0.05,0.05 h 0.05 l 0.05,0.1 h 0.05 l 0.05,0.1 h 0.15 l 0.05,0.05 v 0.05 h 0.15 0.05"
         fill="#767676"
         fill-rule="evenodd"
         stroke="none"
         id="path7" />
      <path
         d="M 56.35,10.75 H 56.3 56.15 V 10.7 L 56.1,10.65 H 55.95 L 55.9,10.55 H 55.85 L 55.8,10.45 H 55.75 L 55.7,10.4 V 10.35 L 55.65,10.3 55.6,10.2 55.55,10.1 H 55.5 V 9.95 L 55.45,9.9 V 9.85 9.75 9.65 8.5 H 55.4 54.35 54.2 L 54.1,8.45 54,8.4 53.9,8.35 53.85,8.3 53.8,8.25 53.75,8.2 V 8.15 l -0.1,-0.1 V 7.95 L 53.6,7.9 V 7.75 L 53.55,7.7 53.6,7.65 V 7.5 l 0.05,-0.05 v -0.1 l 0.1,-0.1 V 7.2 L 53.8,7.15 53.85,7.1 53.9,7.05 54,7 54.1,6.95 54.2,6.9 h 0.15 1.05 0.05 V 6.05 5.95 5.7 5.6 H 55.5 V 5.5 5.4 L 55.55,5.35 55.6,5.3 V 5.25 h 0.05 l 0.05,-0.1 h 0.05 L 55.8,5.05 55.85,5 55.95,4.95 56.05,4.9 h 0.3 0.1 0.05 0.1 l 0.05,0.05 0.1,0.05 0.1,0.05 0.05,0.1 h 0.05 l 0.05,0.1 0.1,0.1 v 0.1 l 0.05,0.05 v 0.1 h 0.05 v 0.1 0.25 0.1 0.85 h 0.05 1 0.2 l 0.1,0.05 0.1,0.05 0.05,0.05 0.1,0.05 0.05,0.05 0.05,0.05 v 0.05 l 0.1,0.1 v 0.1 L 59.05,7.5 V 7.9 L 59,7.95 v 0.1 l -0.1,0.1 V 8.2 L 58.85,8.25 58.8,8.3 58.7,8.35 58.65,8.4 58.55,8.45 58.45,8.5 h -0.2 -1 -0.05 v 1.15 0.1 0.1 0.05 L 57.15,9.95 V 10 l -0.05,0.05 v 0.05 l -0.05,0.1 H 57 v 0.1 l -0.05,0.05 v 0.05 l -0.05,0.05 h -0.05 l -0.05,0.1 h -0.05 l -0.1,0.1 h -0.1 L 56.5,10.7 v 0.05 h -0.15"
         fill="#ffffff"
         fill-rule="evenodd"
         stroke="none"
         id="path8" />
    </g>
    <g
       id="shape2"
       transform="translate(1.5,1.5)">
      <path
         d="M 0,23.8 V 0 H 64.1 V 23.8 57.55 H 0 Z"
         fill="none"
         stroke="#000000"
         stroke-linecap="round"
         stroke-linejoin="round"
         stroke-width="3"
         id="path9" />
    </g>
  </defs>
</svg>
