<?xml version="1.0" encoding="UTF-8" standalone="no"?>
<svg
   ffdec:objectType="frame"
   height="60.549999"
   width="67.963043"
   version="1.1"
   id="svg9"
   sodipodi:docname="813.svg"
   xmlns:inkscape="http://www.inkscape.org/namespaces/inkscape"
   xmlns:sodipodi="http://sodipodi.sourceforge.net/DTD/sodipodi-0.dtd"
   xmlns:xlink="http://www.w3.org/1999/xlink"
   xmlns="http://www.w3.org/2000/svg"
   xmlns:svg="http://www.w3.org/2000/svg"
   xmlns:ffdec="https://www.free-decompiler.com/flash">
  <sodipodi:namedview
     id="namedview9"
     pagecolor="#ffffff"
     bordercolor="#000000"
     borderopacity="0.25"
     inkscape:showpageshadow="2"
     inkscape:pageopacity="0.0"
     inkscape:pagecheckerboard="0"
     inkscape:deskcolor="#d1d1d1"
     fit-margin-top="5"
     fit-margin-left="5"
     fit-margin-right="5"
     fit-margin-bottom="5" />
  <g
     transform="translate(2.3630435,1.5)"
     id="g3">
    <use
       ffdec:characterId="516"
       height="57.549999"
       width="64.099998"
       xlink:href="#shape0"
       id="use1" />
    <use
       ffdec:characterId="1301"
       height="58.849998"
       transform="translate(-2.35,-1.3)"
       width="66.449997"
       xlink:href="#shape1"
       id="use2" />
    <use
       ffdec:characterId="518"
       height="60.549999"
       transform="translate(-1.5,-1.5)"
       width="67.099998"
       xlink:href="#shape2"
       id="use3" />
  </g>
  <defs
     id="defs9">
    <g
       id="shape0">
      <path
         d="M 53.6,0 H 64.1 V 57.55 H 53.6 28.25 0 V 0 H 28.25 53.6 V 57.55 0 M 28.25,0 V 57.55 0"
         fill="#ffffff"
         fill-rule="evenodd"
         stroke="none"
         id="path3" />
    </g>
    <g
       id="shape1"
       transform="translate(2.35,1.3)">
      <path
         d="M 20.3,0 H 64.1 V 57.55 H 0 V 29.85 26.1 l 0.1,1.25 v 1.35 l -0.1,1.15 0.1,1.9 q 0,0.85 0.2,1.1 0.25,0.45 0.85,0.25 0.45,-0.25 0.55,-0.8 v -0.55 l 0.2,-0.8 0.5,-4.9 0.6,-0.15 2.45,-0.95 3.25,7.55 0.35,0.55 0.6,0.15 0.4,-0.5 V 32.05 Q 9.6,28.65 8.3,23.3 v -0.1 l 1.85,-1.55 1,1.25 0.4,0.4 0.45,0.6 0.2,0.35 0.7,0.75 0.55,0.35 0.5,-0.3 -0.3,-0.55 -0.35,-1.2 -0.9,-1.8 -0.65,-1.4 0.5,-0.55 1.25,-1.4 0.45,0.3 3.3,2.05 q 1.5,0.85 2.6,0.95 l 0.8,-0.2 q 0.45,-0.3 0.25,-0.95 l -0.6,-0.9 -4.35,-4.55 1.35,-2.25 0.6,0.2 q 0.25,0.05 1.15,0.45 l 0.3,0.1 1.1,0.15 0.4,-0.05 0.25,-0.3 -0.05,-0.35 -0.3,-0.2 -0.3,-0.35 -1.45,-1 -0.7,-0.65 0.95,-2.45 h 0.3 l 2.8,-0.05 h 4.2 L 28.4,8.05 29.65,7.85 30.05,7.6 Q 30.1,7.3 29.8,7.1 L 29.1,6.75 21.95,5.15 21.2,5.05 20.5,4.8 20.2,4.75 20.55,2.9 20.6,2.65 20.95,2.55 26.75,1.7 27.3,1.55 27.65,1.15 q 0.1,-0.4 -0.45,-0.6 L 26.4,0.5 24.75,0.35 23.45,0.55 21.95,0.45 20.45,0.3 20.3,0"
         fill="#999999"
         fill-rule="evenodd"
         stroke="none"
         id="path4" />
      <path
         d="M 0,26.1 -0.1,26.05 Q -0.9,25.75 -1.3,25 -1.8,24.2 -1.5,23.5 l 0.6,-1.1 q 0.25,-0.55 0.15,-1.35 L -1.2,11.05 -1.3,10.2 -2.05,9.25 Q -2.65,8.4 -2.1,7.15 l 0.95,-1.5 Q -0.85,5.05 -0.95,4 L -1.05,2.1 Q -1,1 -0.55,0.35 0.25,-0.8 2.5,-1.1 l 4.05,-0.2 10.7,0.1 q 1.9,0 2.55,0.6 l 0.5,0.6 0.15,0.3 1.5,0.15 1.5,0.1 1.3,-0.2 1.65,0.15 0.8,0.05 q 0.55,0.2 0.45,0.6 l -0.35,0.4 -0.55,0.15 -5.8,0.85 -0.35,0.1 -0.05,0.25 -0.35,1.85 0.3,0.05 0.7,0.25 0.75,0.1 7.15,1.6 0.7,0.35 q 0.3,0.2 0.25,0.5 l -0.4,0.25 -1.25,0.2 -1.85,0.05 h -4.2 l -2.8,0.05 h -0.3 l -0.95,2.45 0.7,0.65 1.45,1 0.3,0.35 0.3,0.2 0.05,0.35 -0.25,0.3 -0.4,0.05 -1.1,-0.15 -0.3,-0.1 q -0.9,-0.4 -1.15,-0.45 l -0.6,-0.2 -1.35,2.25 4.35,4.55 0.6,0.9 q 0.2,0.65 -0.25,0.95 l -0.8,0.2 q -1.1,-0.1 -2.6,-0.95 l -3.3,-2.05 -0.45,-0.3 -1.25,1.4 -0.5,0.55 0.65,1.4 0.9,1.8 0.35,1.2 0.3,0.55 -0.5,0.3 L 12.9,25 12.2,24.25 12,23.9 l -0.45,-0.6 -0.4,-0.4 -1,-1.25 -1.85,1.55 v 0.1 q 1.3,5.35 1.75,8.75 V 32.7 L 9.65,33.2 9.05,33.05 8.7,32.5 5.45,24.95 3,25.9 2.4,26.05 1.9,30.95 1.7,31.75 V 32.3 Q 1.6,32.85 1.15,33.1 0.55,33.3 0.3,32.85 0.1,32.6 0.1,31.75 L 0,29.85 0.1,28.7 V 27.35 L 0,26.1"
         fill="#ffffff"
         fill-rule="evenodd"
         stroke="none"
         id="path5" />
      <path
         d="M 26.8,31.55 26.5,30 23.8,29.85 q -0.6,-0.25 -1,-0.7 l -0.45,-1 q -0.4,-1.45 0.35,-2.85 0.5,-1 1.85,-2.35 l 1.1,-0.9 q 1.2,-0.8 4.1,-1.85 l 1.5,-0.4 1.9,-0.1 q 1.95,-0.75 3.95,-0.55 1.45,0.2 2.85,1 l 0.6,0.35 0.7,0.05 q 3.05,0.45 5.05,2.95 1.9,2.4 2,5.55 0.1,1.6 -0.5,2.7 -0.95,1.8 -3.1,2.05 h -1.45 l -1.95,1.75 q 2.35,2.6 3,5.4 0.45,1.9 0.05,3.95 h 0.5 q 2.05,0.1 3.25,0.7 1.75,0.9 2.25,2.45 0.3,1 -0.05,2.15 -0.3,1.1 -1.1,1.9 -1.25,1.35 -3.8,2.05 l -3.7,0.55 -3,0.05 -2.95,0.3 H 35 L 34.8,54.6 35,54.1 q 0.3,-0.3 0.95,-0.4 l 5.6,-1.3 Q 45.3,51.45 46.9,49.85 L 47.05,49.6 46.8,49.3 q -0.55,-0.4 -1.45,-0.5 l -2.65,0.1 q -1.55,2.25 -3.8,3.25 l -7.35,0.25 -2.8,-0.85 -2.3,-1.65 q -1.75,-1.9 -2.4,-4.45 -0.6,-2.6 0.15,-5.05 0.35,-1.35 1.45,-3.05 1.1,-1.75 2.6,-3.15 -1.05,-1.5 -1.45,-2.65 m 14.8,-2.6 -1.3,0.15 q -0.7,-0.2 -1.1,-0.75 -0.4,-0.55 -0.3,-1.25 0.05,-0.7 0.55,-1.15 0.5,-0.45 1.2,-0.5 0.75,0 1.25,0.4 0.8,0.7 0.65,1.65 -0.1,1 -0.95,1.45 M 36.65,30.6 35.7,30 35.65,29.85 35.5,29.3 35.55,28.9 Q 35.5,28.4 34.8,28.3 34.45,28.25 34.2,28.55 l -0.2,0.5 -0.2,0.8 -0.65,0.1 -0.75,0.35 q -0.45,0.3 -0.6,0.7 -0.25,0.45 -0.1,0.9 0.2,0.75 0.85,0.9 0.7,0.25 1.25,-0.3 L 34,32.3 h 0.5 l 0.35,0.05 0.4,0.35 0.25,0.55 0.45,0.6 0.25,0.2 h 0.45 L 37,33.7 l 0.3,-0.45 0.1,-0.5 -0.15,-0.9 -0.4,-0.95 -0.2,-0.3 m -7.1,-6.4 q -1.4,0.4 -1.75,1.85 l -0.05,0.95 0.1,0.6 0.1,0.25 0.4,0.65 q 0.5,0.6 1.15,0.8 l 2.05,-0.1 q 1,-0.4 1.4,-1.4 l 0.1,-0.35 Q 33.2,26.6 33,25.95 l -0.6,-1.1 q -0.6,-0.6 -1.75,-0.7 h -0.7 l -0.4,0.05 m 9.95,6.55 0.65,0.15 q 1.5,0.15 2.6,-1.1 1.15,-1.3 0.9,-2.95 -0.25,-1.7 -1.75,-2.5 -0.8,-0.4 -1.9,-0.4 l -1,0.15 q -1.5,0.4 -2.1,2 -0.45,1.2 0,2.45 0.5,1.2 1.6,1.8 l 1,0.4"
         fill="#000000"
         fill-rule="evenodd"
         stroke="none"
         id="path6" />
      <path
         d="m 41.6,28.95 q 0.85,-0.45 0.95,-1.45 0.15,-0.95 -0.65,-1.65 -0.5,-0.4 -1.25,-0.4 -0.7,0.05 -1.2,0.5 -0.5,0.45 -0.55,1.15 -0.1,0.7 0.3,1.25 0.4,0.55 1.1,0.75 l 1.3,-0.15 m -2.1,1.8 -1,-0.4 q -1.1,-0.6 -1.6,-1.8 -0.45,-1.25 0,-2.45 0.6,-1.6 2.1,-2 l 1,-0.15 q 1.1,0 1.9,0.4 1.5,0.8 1.75,2.5 0.25,1.65 -0.9,2.95 -1.1,1.25 -2.6,1.1 L 39.5,30.75 m -9.95,-6.55 0.4,-0.05 h 0.7 q 1.15,0.1 1.75,0.7 l 0.6,1.1 q 0.2,0.65 0.05,1.5 l -0.1,0.35 q -0.4,1 -1.4,1.4 l -2.05,0.1 q -0.65,-0.2 -1.15,-0.8 l -0.4,-0.65 -0.1,-0.25 -0.1,-0.6 0.05,-0.95 q 0.35,-1.45 1.75,-1.85 m 7.1,6.4 0.2,0.3 0.4,0.95 0.15,0.9 -0.1,0.5 -0.3,0.45 -0.35,0.35 H 36.2 L 35.95,33.85 35.5,33.25 35.25,32.7 34.85,32.35 34.5,32.3 H 34 l -0.2,0.2 q -0.55,0.55 -1.25,0.3 -0.65,-0.15 -0.85,-0.9 -0.15,-0.45 0.1,-0.9 0.15,-0.4 0.6,-0.7 l 0.75,-0.35 0.65,-0.1 0.2,-0.8 0.2,-0.5 q 0.25,-0.3 0.6,-0.25 0.7,0.1 0.75,0.6 l -0.05,0.4 0.15,0.55 0.05,0.15 0.95,0.6"
         fill="#ffffff"
         fill-rule="evenodd"
         stroke="none"
         id="path7" />
      <path
         d="m 38.7,9.6 q -0.4,1.5 0.2,2.3 l 1.2,1 0.7,0.8 0.4,0.65 -0.05,1.8 -0.05,0.25 -0.4,1.25 q -0.5,0.95 -1.4,0.95 l -0.45,0.1 -0.5,-0.4 Q 38.2,18 38.45,17.65 38.5,17.55 38.9,17.3 l 0.2,-0.2 0.05,-1.5 -0.2,-0.55 -0.25,-0.25 -1.35,-0.85 q -0.25,-0.15 -0.4,-0.6 l -0.3,-0.8 q -0.2,0.85 -0.1,1.9 l 0.15,0.75 0.6,1.6 0.25,0.5 q 0.2,0.5 -0.3,0.9 l -0.65,0.2 -0.5,0.15 q -0.5,0 -0.75,-0.35 l -0.8,-0.45 q -1.1,-0.7 -1.4,-1.55 -0.35,-0.9 0,-2.4 l 0.3,-0.55 0.6,-0.05 0.1,0.4 0.2,1.65 L 34.7,16 34.65,15.85 34.6,15.1 34.8,12.35 q 0.3,-1.75 2.25,-3.8 0.9,-0.9 1.3,-1.1 0.85,-0.5 1.65,-0.3 l 0.6,0.35 0.1,0.65 -0.35,0.5 -0.65,0.1 -0.6,0.15 -0.4,0.7"
         fill="#ffffff"
         fill-rule="evenodd"
         stroke="none"
         id="path8" />
    </g>
    <g
       id="shape2"
       transform="translate(1.5,1.5)">
      <path
         d="M 0,23.8 V 0 H 64.1 V 23.8 57.55 H 0 Z"
         fill="none"
         stroke="#000000"
         stroke-linecap="round"
         stroke-linejoin="round"
         stroke-width="3"
         id="path9" />
    </g>
  </defs>
</svg>
