<?xml version="1.0" encoding="UTF-8" standalone="no"?>
<svg
   ffdec:objectType="frame"
   height="60.549999"
   width="67.099998"
   version="1.1"
   id="svg6"
   sodipodi:docname="598.svg"
   xmlns:inkscape="http://www.inkscape.org/namespaces/inkscape"
   xmlns:sodipodi="http://sodipodi.sourceforge.net/DTD/sodipodi-0.dtd"
   xmlns:xlink="http://www.w3.org/1999/xlink"
   xmlns="http://www.w3.org/2000/svg"
   xmlns:svg="http://www.w3.org/2000/svg"
   xmlns:ffdec="https://www.free-decompiler.com/flash">
  <sodipodi:namedview
     id="namedview6"
     pagecolor="#ffffff"
     bordercolor="#000000"
     borderopacity="0.25"
     inkscape:showpageshadow="2"
     inkscape:pageopacity="0.0"
     inkscape:pagecheckerboard="0"
     inkscape:deskcolor="#d1d1d1"
     fit-margin-top="5"
     fit-margin-left="5"
     fit-margin-right="5"
     fit-margin-bottom="5" />
  <g
     transform="translate(1.5,1.5)"
     id="g3">
    <use
       ffdec:characterId="516"
       height="57.549999"
       width="64.099998"
       xlink:href="#shape0"
       id="use1" />
    <use
       ffdec:characterId="1090"
       height="58.200001"
       transform="translate(-0.5,-0.3)"
       width="64.800003"
       xlink:href="#shape1"
       id="use2" />
    <use
       ffdec:characterId="518"
       height="60.549999"
       transform="translate(-1.5,-1.5)"
       width="67.099998"
       xlink:href="#shape2"
       id="use3" />
  </g>
  <defs
     id="defs6">
    <g
       id="shape0">
      <path
         d="M 53.6,0 H 64.1 V 57.55 H 53.6 28.25 0 V 0 H 28.25 53.6 V 57.55 0 M 28.25,0 V 57.55 0"
         fill="#ffffff"
         fill-rule="evenodd"
         stroke="none"
         id="path3" />
    </g>
    <g
       id="shape1"
       transform="translate(0.5,0.3)">
      <path
         d="M 24.05,4.1 23.7,2.95 23.55,1.6 23.1,-0.3 h 1.7 L 24.85,2.1 24.7,4.05 24.65,4.6 V 5 l -0.2,0.3 Q 24.2,5.35 24.15,5 V 4.6 L 24.05,4.1 M 28.7,-0.25 28.05,3.5 q -0.6,3.2 -0.7,6.5 l -0.1,0.3 -0.35,0.15 -0.15,-0.35 -0.6,-9.3 v -1.1 h 2.55 v 0.05 M 36,13.65 35.35,16 35.1,16.25 35,15.95 35.25,-0.3 h 2.8 L 36,13.65 m -3.25,5.95 q -0.2,2 -0.85,2.75 -0.25,-0.85 -0.4,-2.7 -0.25,-6.3 -0.1,-11.7 l -1,8.9 -0.2,0.5 -0.55,0.15 -0.2,-0.4 Q 28.7,9.1 29.1,-0.3 h 5.95 l -2.3,19.9 M 39.9,8.15 39.45,9.2 39.05,9.6 q -0.2,0 -0.2,-0.3 V 8.9 L 39,7.05 39.3,5.95 39.65,3.4 40.1,-0.3 h 2.25 l -0.4,1.8 -1.65,4.95 -0.4,1.7 M 17,32.65 -0.5,35.1 v -9.2 q 11.4,-0.65 20.9,0.25 l 0.45,0.15 q 0.25,0.25 -0.15,0.55 l -0.55,0.25 -8.9,1 q 5.4,-0.2 11.7,0.1 l 2.75,0.35 q -0.8,0.7 -2.75,0.85 l -22.65,2.55 19,-0.3 0.25,0.15 -0.25,0.25 -2.3,0.6 M 11.5,36.55 9.75,37 q -1.65,0.45 -4.9,1.6 l -5.35,1.25 v -2.7 l 7.25,-0.85 2.55,-0.35 1.05,-0.25 1.85,-0.15 0.45,-0.05 0.25,0.25 -0.4,0.4 -1,0.4 m -8.4,-11.2 -3.6,0.5 v -3.1 l 4.6,0.1 9.3,0.6 0.35,0.15 -0.1,0.3 -0.3,0.1 -6.5,0.7 -3.75,0.65 m 3.5,-4.9 0.85,0.25 0.45,0.15 h 0.4 q 0.4,0 0.3,0.3 L 8.3,21.35 7.95,21.3 7.4,21.35 5.45,21.5 2.4,21.45 1.2,21.65 0,21.45 q -0.5,-0.5 -0.3,-1.2 0.15,-0.65 0.95,-0.85 h 0.5 0.8 l 0.7,0.3 2.3,0.5 0.75,0.05 0.55,0.15 0.35,0.05 M 46.95,24.6 Q 55.5,23.15 64.3,22.2 v 9.15 q -11.35,0.7 -20.8,-0.2 l -0.4,-0.2 Q 42.85,30.7 43.25,30.4 L 43.8,30.25 52.65,29.2 Q 47.3,29.4 40.95,29.1 L 38.3,28.75 q 0.7,-0.7 2.7,-0.9 l 22.65,-2.55 -19,0.3 -0.25,-0.05 q -0.1,-0.2 0.2,-0.3 0.7,-0.3 2.35,-0.65 m 13.9,7.3 3.45,-0.45 v 3.1 l -4.5,-0.1 -9.3,-0.6 -0.3,-0.1 q -0.1,-0.2 0.1,-0.4 L 50.65,33.3 57.1,32.55 60.85,31.9 M 56.5,36.55 56,36.45 h -0.4 q -0.35,-0.05 -0.3,-0.3 0,-0.2 0.3,-0.2 H 56 l 0.55,-0.05 1.95,-0.15 3.05,0.05 1.2,-0.2 q 0.8,-0.1 1.15,0.25 0.35,0.3 0.4,0.75 v 0.15 L 64.25,37 q -0.2,0.7 -0.95,0.85 L 62.8,37.9 62,37.85 61.25,37.6 59,37.05 57.65,36.9 56.5,36.55 m -4.05,-15.85 1.7,-0.4 4.95,-1.65 5.2,-1.1 v 2.6 l -7.1,0.8 -2.55,0.35 -1.1,0.3 -1.85,0.15 h -0.4 l -0.3,-0.2 0.4,-0.4 1.05,-0.45 m -24.5,22.9 0.6,-2.3 q 0.15,-0.35 0.3,-0.2 l 0.1,0.2 -0.25,16.6 h -2.85 q 0.85,-7.2 2.1,-14.3 m -3.9,5.5 0.4,-1 q 0.25,-0.45 0.4,-0.4 l 0.25,0.25 -0.05,0.45 q -0.15,0.55 -0.15,1.85 l -0.25,1.05 -0.35,2.55 -0.45,4.05 h -2.3 L 22,55.75 23.6,50.85 24.05,49.1 M 31.2,37.65 q 0.15,-1.95 0.9,-2.7 l 0.3,2.7 q 0.3,6.3 0.1,11.7 0.75,-6.95 1.05,-8.85 l 0.2,-0.6 q 0.3,-0.4 0.55,-0.15 l 0.15,0.45 q 0.75,8.15 0.4,17.7 H 28.9 q 1.2,-11.55 2.3,-20.25 m 4.05,19.85 0.65,-3.75 0.75,-6.45 0.05,-0.35 0.35,-0.05 0.1,0.3 0.6,9.3 0.05,1.4 h -2.6 l 0.05,-0.4 m 4.9,-3.5 0.05,0.35 0.15,0.55 0.05,0.75 0.5,2.25 H 39.15 L 39.1,55.15 q 0,-1.4 0.15,-1.95 L 39.3,52.65 39.25,52.3 39.45,52 q 0.3,-0.1 0.3,0.3 v 0.4 l 0.15,0.45 0.25,0.85"
         fill="#999999"
         fill-rule="evenodd"
         stroke="none"
         id="path4" />
      <path
         d="M 55.1,6.85 55.55,6.4 55.7,6.35 55.95,6.25 h 0.1 l 0.2,-0.05 h 0.1 l 0.1,0.1 h 0.15 l 0.15,0.05 0.05,-0.05 0.2,0.05 0.05,0.05 0.1,0.1 0.1,0.15 0.2,0.15 0.1,0.1 0.1,0.1 0.15,0.1 0.15,0.2 0.1,0.1 v 0.1 0.1 l 0.05,0.05 0.1,0.15 v 0.15 0.1 0.1 0.2 L 58.1,8.45 58,8.6 57.95,8.7 57.5,9.1 57.1,9.45 56.8,9.7 q 0,-0.05 -0.1,0.05 l -0.4,0.4 -1.2,1.15 q -0.3,0.15 -0.6,0.4 l -0.25,0.2 -0.2,0.15 -0.8,0.75 -1.65,1.45 -0.4,0.3 -1.1,1 -0.25,0.25 -0.15,0.05 -0.1,0.1 -0.3,0.15 -0.4,0.4 -0.55,0.4 -0.5,0.45 -0.15,0.15 -0.45,0.35 -0.55,0.35 -0.45,0.45 -0.8,0.75 -1.05,1.05 -1.15,0.95 -1.05,1 q -0.25,0.1 -0.45,0.3 l -0.8,0.65 -0.55,0.5 -0.4,0.4 -0.6,0.45 -0.6,0.55 -0.85,0.7 -0.45,0.45 -0.75,0.7 -0.2,0.2 -0.9,0.75 -0.1,0.1 h -0.1 l -0.25,0.1 H 35.1 L 35.05,28.2 34.9,28.1 34.85,28.05 34.9,27.95 v -0.1 l 0.1,-0.15 0.05,-0.05 0.1,-0.1 0.75,-0.8 0.25,-0.25 0.65,-0.75 0.45,-0.45 0.8,-0.75 0.6,-0.55 0.5,-0.6 0.4,-0.35 0.45,-0.55 0.75,-0.7 0.35,-0.45 1.05,-0.95 1,-1.1 1.05,-1.1 0.8,-0.75 0.45,-0.4 0.45,-0.45 0.4,-0.4 0.15,-0.2 0.4,-0.5 0.5,-0.5 0.4,-0.35 0.2,-0.3 L 48,14.3 v -0.1 l 0.1,-0.1 0.15,-0.25 1.1,-1.05 0.35,-0.3 1.55,-1.6 0.8,-0.75 0.1,-0.2 0.25,-0.25 0.5,-0.45 1.15,-1.2 0.4,-0.4 0.1,-0.1 L 54.8,7.2 55.15,6.9 55.1,6.85 M 46.15,6.4 Q 46.45,7 46,7.45 45.6,7.95 44.95,7.85 43.8,7.75 43,6.45 42.25,5.1 42.65,3.45 43.1,2.15 44.4,1.05 L 44.95,0.7 h 4.15 l 0.7,0.5 q 1.55,1.35 1.8,3.55 0.2,1.7 -0.75,3.4 l -1.3,1.9 Q 45.3,15 39.9,19.6 l -0.3,0.15 Q 39.2,19.7 39.3,19.3 l 0.25,-0.35 q 4.35,-4.8 8.15,-10.1 l 1.2,-2.1 Q 49.45,5.45 49,4.15 48.9,3.6 48.4,3.1 47.95,2.65 47.25,2.65 46.8,2.8 46.45,3.1 L 45.5,4.2 q -0.4,0.7 0.1,1.35 l 0.55,0.85 m 5.6,14.55 q 0.3,-0.5 1,-0.4 0.8,0.1 1,0.65 0.55,0.05 1,-0.7 0.6,-1 0.05,-1.5 L 52.9,18.85 Q 51.15,19.7 47.85,22.35 43,26.4 36.75,30.7 L 36.6,30.65 V 30.5 l 0.05,-0.15 7.65,-7.7 q 3,-2.9 6.7,-5.55 1.1,-0.85 2.05,-1.05 l 2.1,0.15 1.7,1.1 q 1.75,1.4 1.45,3.4 -0.35,1.75 -2.2,2.7 l -2.05,0.35 q -1.35,0 -2.15,-1 l -0.4,-1 q -0.1,-0.5 0.25,-0.8 m 4.95,20 -0.95,-0.05 q -0.45,-0.35 -0.4,-0.95 0.1,-1.05 1.5,-1.8 1.4,-0.7 3.1,-0.45 1.2,0.25 2.25,1.4 l 0.8,1.5 q 0.4,1.7 -1.25,3.4 -1.4,1.45 -3.6,1.75 -1.8,0.3 -3.4,-0.45 l -1.8,-1.1 Q 48.05,40.55 43.85,36 L 43.7,35.8 q 0.15,-0.35 0.4,-0.4 l 0.4,0.3 q 4.6,3.7 9.7,6.75 l 2.1,1.05 2.6,-0.05 q 0.55,-0.1 1.1,-0.6 0.45,-0.45 0.45,-1.1 L 60.05,41.05 59,40.3 57.65,40.4 q -0.35,0.1 -0.95,0.55 m -0.75,8.2 0.4,0.35 0.1,0.15 0.15,0.2 -0.05,0.15 v 0.1 l 0.05,0.15 -0.1,0.1 -0.05,0.1 -0.1,0.15 0.1,0.05 -0.1,0.15 -0.05,0.05 -0.1,0.1 -0.1,0.15 -0.2,0.15 -0.1,0.1 -0.1,0.1 -0.15,0.1 -0.15,0.2 -0.1,0.1 h -0.15 -0.1 L 55,51.9 54.85,51.95 54.75,52 54.6,51.95 54.55,52 54.35,51.95 54.25,52 54.15,51.9 53.95,51.8 53.55,51.4 53.35,51.15 53.1,50.9 53,50.75 52.7,50.35 51.55,49.3 51.1,48.85 50.95,48.6 50.8,48.5 50.05,47.75 48.7,46.35 48.4,46 47.5,45.1 47.25,44.9 47.2,44.75 47.1,44.65 47,44.4 46.65,44.1 46.2,43.55 45.7,43.1 45.6,43 45.3,42.65 44.95,42.2 l -0.4,-0.4 -0.7,-0.7 -1,-0.9 -0.9,-1 -0.95,-0.85 -0.3,-0.45 -0.6,-0.65 -0.45,-0.4 -0.4,-0.4 -0.4,-0.5 -0.6,-0.55 -0.6,-0.7 -0.4,-0.35 -0.7,-0.65 -0.15,-0.2 -0.75,-0.8 -0.05,-0.05 v -0.1 l -0.15,-0.2 V 32.2 l 0.05,-0.05 0.15,-0.1 0.05,-0.05 0.05,0.05 0.05,-0.05 0.25,0.1 0.1,0.1 0.85,0.75 0.2,0.15 0.75,0.6 0.4,0.35 0.65,0.65 0.6,0.55 0.5,0.4 0.4,0.35 0.5,0.4 0.65,0.6 0.45,0.3 0.95,0.9 1,0.85 1.05,0.85 0.75,0.7 0.4,0.4 0.4,0.4 0.35,0.3 0.15,0.05 0.5,0.4 0.55,0.5 0.35,0.3 0.2,0.1 0.2,0.05 0.1,0.1 0.3,0.2 0.9,0.85 0.35,0.35 1.5,1.3 0.7,0.7 0.2,0.05 0.2,0.2 0.5,0.45 1.2,1 0.4,0.3 0.1,0.1 0.25,0.2 0.25,0.3 0.05,-0.05 M 41.9,46.75 q 0.5,0.25 0.3,0.85 -0.15,0.7 -0.65,1 -0.15,0.4 0.6,0.8 l 1.55,-0.05 q 0.65,-0.5 0.2,-1.7 -0.75,-1.55 -3.3,-4.35 -3.75,-4.15 -7.7,-9.5 -0.15,-0.1 0,-0.2 H 33 l 0.15,0.05 7.35,6.5 q 2.8,2.55 5.3,5.75 0.7,0.9 0.9,1.7 0.15,0.95 -0.3,1.9 -0.35,1 -1.1,1.7 -1.55,1.55 -3.55,1.4 -1.7,-0.2 -2.55,-1.8 -0.45,-0.95 -0.3,-1.9 0.1,-1.2 1.15,-1.95 0.5,-0.3 0.95,-0.5 0.55,-0.05 0.9,0.3 M 22.4,10.65 Q 21.95,10.45 22.05,9.8 22.2,9.15 22.7,8.9 22.8,8.45 22.15,8 L 20.6,8.05 q -0.6,0.55 -0.2,1.7 0.75,1.55 3.2,4.45 3.8,4.1 7.85,9.45 l -0.05,0.2 H 31.3 L 31.1,23.8 23.8,17.3 Q 21,14.75 18.5,11.55 17.7,10.55 17.6,9.8 17.5,8.95 17.85,7.95 18.25,7 19,6.25 20.5,4.7 22.55,4.8 q 1.75,0.3 2.5,1.85 0.5,0.95 0.35,1.85 -0.2,1.15 -1.2,2 l -1,0.4 Q 22.75,11 22.4,10.65 M 8.3,8.3 7.9,7.9 7.85,7.75 7.8,7.6 7.7,7.45 7.75,7.3 7.7,7.15 7.8,7.05 V 6.95 L 7.85,6.9 V 6.75 L 8,6.65 V 6.55 L 8.15,6.4 8.25,6.3 8.45,6.1 8.55,6 8.9,5.7 9.05,5.65 9.25,5.6 9.3,5.5 9.45,5.45 9.65,5.4 9.8,5.45 10,5.4 l 0.05,0.05 0.1,0.15 0.2,0.05 0.4,0.35 0.25,0.4 0.2,0.15 0.1,0.1 0.4,0.4 1.1,1 0.4,0.5 0.15,0.3 0.15,0.1 0.65,0.75 1.45,1.35 0.3,0.4 0.9,0.85 0.15,0.25 0.25,0.25 0.1,0.2 0.4,0.4 0.35,0.4 0.4,0.5 0.15,0.1 0.4,0.4 0.3,0.4 0.5,0.45 0.6,0.7 1,0.95 0.95,0.9 0.9,0.85 0.3,0.4 0.6,0.65 0.55,0.55 L 25,21 25.45,21.45 26,22 l 0.65,0.7 0.4,0.4 0.7,0.7 0.1,0.15 0.75,0.7 0.1,0.1 0.05,0.15 0.1,0.2 v 0.1 l -0.15,0.1 -0.1,0.1 -0.05,-0.05 H 28.45 28.3 L 28.2,25.25 28.05,25.2 27.3,24.5 27.1,24.4 26.35,23.75 25.9,23.4 25.2,22.75 24.65,22.2 24.2,21.8 23.85,21.45 23.2,20.95 22.55,20.4 22.2,20.1 21.25,19.25 20.25,18.35 19.2,17.5 18.5,16.85 18.05,16.4 17.6,16.1 17.2,15.7 17.1,15.6 16.55,15.2 16.15,14.85 15.7,14.5 15.55,14.35 15.35,14.3 15.25,14.2 14.95,14.05 14.05,13.15 13.65,12.9 12.2,11.55 11.45,10.85 11.3,10.8 11,10.6 10.55,10.2 9.45,9.15 9.05,8.75 8.95,8.65 8.7,8.55 8.4,8.25 8.3,8.3 m -0.7,8.15 0.95,0.05 q 0.5,0.4 0.4,0.95 -0.1,1.1 -1.5,1.85 Q 6.05,20 4.35,19.7 3.1,19.4 2.1,18.3 1.45,17.5 1.3,16.9 0.95,15.15 2.55,13.45 q 1.4,-1.5 3.5,-1.8 1.85,-0.3 3.5,0.5 0.65,0.3 1.75,1.1 4.85,3.55 9.15,8.15 0.2,0.15 0.05,0.25 L 20.2,22 19.7,21.8 q -4.5,-3.75 -9.6,-6.85 l -2.2,-1 -2.45,0.1 q -0.7,0.1 -1.15,0.5 -0.5,0.5 -0.45,1.1 0.05,0.4 0.4,0.7 L 5.3,17.1 6.65,17 7.6,16.45 m 4.4,20.5 q -0.3,0.5 -1,0.4 -0.75,-0.1 -0.95,-0.6 Q 9.5,36.7 9,37.4 q -0.5,1 0,1.5 L 10.85,39 Q 12.6,38.2 15.95,35.6 20.8,31.55 27,27.2 l 0.15,0.15 -0.05,0.15 -7.65,7.7 q -3,2.95 -6.7,5.6 -1.15,0.85 -2,1 l -2.1,-0.1 q -1,-0.3 -1.8,-1.05 -1.7,-1.5 -1.4,-3.5 0.35,-1.7 2.25,-2.65 1.1,-0.5 2,-0.35 1.3,0.05 2.25,1 l 0.3,1 -0.25,0.8 M 8.65,51.05 8.2,51.45 8.05,51.5 7.85,51.7 H 7.75 7.5 L 7.35,51.75 7.25,51.65 7.2,51.55 H 7.05 6.95 L 6.75,51.5 6.55,51.3 6.45,51.2 6.25,51.05 6.15,50.9 5.8,50.6 5.7,50.5 5.75,50.45 5.7,50.25 5.65,50.2 5.55,50.05 v -0.2 -0.1 l 0.1,-0.2 v -0.1 l 0.1,-0.1 0.05,-0.15 0.45,-0.45 0.4,-0.25 0.3,-0.3 0.1,-0.1 0.4,-0.25 1.25,-1.2 0.55,-0.5 0.25,-0.15 0.2,-0.15 0.85,-0.7 1.6,-1.55 0.4,-0.25 1.05,-1 0.35,-0.2 0.1,-0.1 0.1,-0.1 q 0.15,-0.15 0.3,-0.2 l 0.4,-0.35 0.55,-0.45 0.55,-0.35 0.15,-0.2 0.4,-0.35 0.55,-0.4 0.45,-0.45 0.85,-0.7 1.1,-1 1.05,-1.05 1,-0.9 0.5,-0.4 0.75,-0.6 0.6,-0.55 0.45,-0.3 0.55,-0.55 0.65,-0.55 0.8,-0.7 0.45,-0.45 0.75,-0.7 0.3,-0.15 0.8,-0.75 0.1,-0.1 h 0.1 l 0.25,-0.1 h 0.1 l 0.1,0.1 0.15,0.1 -0.05,0.05 V 30 l -0.1,0.15 -0.05,0.1 -0.05,0.15 -0.8,0.75 -0.2,0.2 -0.7,0.75 -0.4,0.5 -0.75,0.75 -0.65,0.55 -0.55,0.55 -0.4,0.4 -0.55,0.6 -0.6,0.7 -0.45,0.4 -1,0.95 -1,1.05 -1.05,1.1 -0.8,0.75 -0.45,0.45 -0.4,0.5 -0.4,0.35 -0.2,0.2 -0.4,0.45 -0.5,0.5 -0.35,0.45 -0.2,0.2 -0.1,0.05 v 0.1 l -0.1,0.1 -0.25,0.35 -1,0.95 -0.3,0.4 -1.6,1.5 -0.8,0.8 -0.1,0.2 -0.2,0.25 -0.5,0.5 -1.25,1.2 -0.3,0.35 -0.1,0.15 -0.3,0.25 L 8.6,51 8.65,51.05 m 8.95,0.4 q -0.25,-0.55 0.15,-1 0.4,-0.5 1.05,-0.45 1.15,0.1 1.95,1.4 0.75,1.35 0.3,3.1 -0.4,1.25 -1.65,2.35 L 18.9,57.2 H 14.7 L 13.95,56.65 Q 12.4,55.3 12.2,53.2 11.95,51.4 12.9,49.75 l 1.4,-1.85 q 4.15,-5.05 9.55,-9.6 l 0.35,-0.1 q 0.35,0 0.2,0.45 L 24.25,39 q -4.45,4.75 -8.2,10.05 -0.85,1.2 -1.2,2.2 -0.5,1.25 -0.1,2.5 0.15,0.6 0.6,1 0.55,0.5 1.15,0.45 l 0.75,-0.35 1,-1.15 q 0.35,-0.65 -0.1,-1.35 l -0.55,-0.9"
         fill="#000000"
         fill-rule="evenodd"
         stroke="none"
         id="path5" />
    </g>
    <g
       id="shape2"
       transform="translate(1.5,1.5)">
      <path
         d="M 0,23.8 V 0 H 64.1 V 23.8 57.55 H 0 Z"
         fill="none"
         stroke="#000000"
         stroke-linecap="round"
         stroke-linejoin="round"
         stroke-width="3"
         id="path6" />
    </g>
  </defs>
</svg>
