<?xml version="1.0" encoding="UTF-8" standalone="no"?>
<svg
   ffdec:objectType="frame"
   height="44.349998"
   width="78.599998"
   version="1.1"
   id="svg11"
   sodipodi:docname="231.svg"
   xmlns:inkscape="http://www.inkscape.org/namespaces/inkscape"
   xmlns:sodipodi="http://sodipodi.sourceforge.net/DTD/sodipodi-0.dtd"
   xmlns:xlink="http://www.w3.org/1999/xlink"
   xmlns="http://www.w3.org/2000/svg"
   xmlns:svg="http://www.w3.org/2000/svg"
   xmlns:ffdec="https://www.free-decompiler.com/flash">
  <sodipodi:namedview
     id="namedview11"
     pagecolor="#ffffff"
     bordercolor="#000000"
     borderopacity="0.25"
     inkscape:showpageshadow="2"
     inkscape:pageopacity="0.0"
     inkscape:pagecheckerboard="0"
     inkscape:deskcolor="#d1d1d1"
     fit-margin-top="5"
     fit-margin-left="5"
     fit-margin-right="5"
     fit-margin-bottom="5" />
  <g
     transform="translate(2,2.05)"
     id="g3">
    <use
       ffdec:characterId="1"
       height="42.700001"
       transform="translate(-1.75,-2)"
       width="76.449997"
       xlink:href="#shape0"
       id="use1" />
    <use
       ffdec:characterId="227"
       height="39.799999"
       transform="translate(2.95,2.15)"
       width="66.349998"
       xlink:href="#shape1"
       id="use2" />
    <use
       ffdec:characterId="3"
       height="44.349998"
       transform="translate(-2,-2.05)"
       width="78.599998"
       xlink:href="#shape2"
       id="use3" />
  </g>
  <defs
     id="defs11">
    <g
       id="shape0"
       transform="translate(1.75,2)">
      <path
         d="M 2.8,0 V -0.4 H 5.4 V 0 H 9.7 V 19.45 0 H 20.55 L 19.3,19.45 H 9.7 0.25 V 0 H 2.8"
         fill="#ffffff"
         fill-rule="evenodd"
         stroke="none"
         id="path3" />
      <path
         d="M 0.25,19.45 H 9.7 19.3 L 18.7,28.6 16,28.5 10.95,27.95 9.7,27.8 Q 7.45,27.6 5.85,27.75 4.05,27.9 1.5,28.6 0.75,28.8 0.25,29.15 v -9.7 m 9.45,0 v 8.35 -8.35"
         fill="#121212"
         fill-rule="evenodd"
         stroke="none"
         id="path4" />
      <path
         d="m 9.7,27.8 1.25,0.15 5.05,0.55 2.7,0.1 h 1.05 l 3.75,0.15 q 2.45,0.3 3.6,1.25 0.6,0.5 0.6,1.1 0,0.65 -0.8,1 l -1.3,0.2 -7.15,0.15 -5.6,-0.3 L 9.7,31.75 7.95,31.6 3.1,31.95 0.95,32.3 0.25,32.1 -0.35,31.55 -0.5,31.3 V 29.9 L 0.25,29.15 Q 0.75,28.8 1.5,28.6 4.05,27.9 5.85,27.75 7.45,27.6 9.7,27.8 v 3.95 -3.95"
         fill="#999999"
         fill-rule="evenodd"
         stroke="none"
         id="path5" />
      <path
         d="M 2.8,0 H 0.25 M 9.7,0 H 5.4 m 16.15,0 h 10.7 M 20.55,0 H 9.7"
         fill="none"
         stroke="#666666"
         stroke-linecap="round"
         stroke-linejoin="round"
         stroke-width="4"
         id="path6" />
      <path
         d="m 9.7,-0.4 h 65 V 40.5 H 47.05 L 45.5,40.7 27,40.65 25.95,40.5 H 9.7 -0.5 V -0.4 H 9.7 V 40.5 -0.4"
         fill="#ffffff"
         fill-rule="evenodd"
         stroke="none"
         id="path7" />
    </g>
    <g
       id="shape1"
       transform="translate(-2.95,-2.15)">
      <path
         d="m 44.65,10.7 2.45,1.65 q 3.2,2.25 6.4,2.85 3.6,0.8 6.95,-0.5 1.85,-0.75 2.85,-2.1 l 0.5,-0.8 0.6,-0.65 1.55,-0.1 q 0.8,0.35 1.2,1.1 0.6,1.3 -0.05,3.2 -1.05,3.15 -3.95,5.7 -2.25,2 -5.8,3.9 l -4,1.9 q -2.5,1 -7.15,1.95 l -2.25,0.25 q -1.3,-0.2 -1.85,-1.1 -0.45,-0.9 0.05,-2 l 1.2,-1.6 q 3.7,-3.6 8.45,-4.9 -2.75,-0.7 -5.05,-2.1 l -0.2,0.45 q -0.3,0.6 -0.85,0.5 l -0.6,-0.45 -0.25,-0.35 -0.35,-0.1 -2.3,-0.3 -1.4,0.75 -1.05,0.45 -1.1,-0.2 q -0.5,-0.4 -0.4,-1.1 0,-0.5 0.35,-1.2 l 0.45,-1.05 0.45,-0.65 -1.05,0.05 -4.55,0.4 q -2.35,0.35 -3.75,1 -1.15,0.5 -3.5,2.3 l -2.95,2.35 -0.45,0.35 q 0.45,0 0.6,0.4 0.15,0.45 -0.5,1.1 -1.85,2.05 -2.5,5.05 l 0.85,-0.2 q 0.6,0 1.05,0.6 l 0.4,1 0.2,0.9 0.25,0.7 q 0.3,0.45 1.35,1 2,0.85 2.9,2.15 0.45,0.5 0.5,1.1 0.1,0.7 -0.35,1.15 -0.45,0.45 -1.3,0.4 0.3,0.7 0.1,1.3 -0.3,0.85 -1.4,1.15 l -1.85,-0.1 q -2.8,-0.7 -4.55,-2.6 -1.9,-2.05 -2.05,-4.75 -0.15,-2.75 1.6,-5.7 1,-1.85 2.25,-3.1 l -0.25,-0.5 q -0.05,-0.45 0.15,-0.9 0.5,-1.2 2.3,-3 3.45,-3.45 5.7,-4.75 2.9,-1.7 8.35,-2.65 5.05,-0.9 7.6,0.4 M 10.15,4.05 10.7,3 q 0.4,-0.8 0.85,-0.85 0.45,0 0.75,0.4 l 0.25,0.85 0.2,0.4 0.2,0.05 h 0.9 q 0.5,0 0.8,0.3 l 0.2,0.45 q 0.1,0.6 -0.4,1.1 l -1.05,0.55 0.45,1.9 0.05,0.7 q 0,0.55 -0.5,0.8 -0.45,0.15 -1,-0.25 L 10.65,8.1 9.6,8.9 9.1,9.2 8.35,9.1 Q 8,8.85 8,8.45 8,8.05 8.45,7.4 L 8.95,6.35 Q 7.95,5.9 7.75,5.15 7.65,4.5 8.1,4.2 L 8.6,4.1 10.15,4.05 m -6,4.4 L 4.2,7.8 3.2,7.55 2.95,6.85 3.4,6.25 4.3,6.15 4.6,5.2 Q 4.85,4.85 5.25,4.85 5.8,4.85 5.9,5.4 V 6.05 L 6.3,6 7.05,6.25 7.3,6.95 6.9,7.55 6.2,7.75 H 5.75 L 5.5,8.65 q -0.2,0.3 -0.65,0.3 -0.6,0 -0.7,-0.5"
         fill="#999999"
         fill-rule="evenodd"
         stroke="none"
         id="path8" />
      <path
         d="m 21.05,16.5 q -0.15,-1.6 0.5,-3.3 L 21.4,13.1 Q 20.8,12.5 20.8,11.75 20.75,11.1 21.1,10.3 21.6,9.35 22.25,9.15 23,9 23.65,9.5 l 0.1,0.1 q 1.5,-1.7 3.8,-2.7 2.75,-1.2 5.6,-0.8 0.1,-0.6 0.35,-1 0.6,-0.85 1.85,-0.75 1.3,0.1 1.8,1.05 0.4,0.8 -0.05,1.95 l 0.8,0.55 q 1,0.85 1.85,2.1 1.55,2.3 1.75,4.15 l 0.05,0.25 0.4,0.25 0.15,-0.2 q 0.9,-1.2 2.15,-1.7 L 47.3,12.7 q 1.35,0.4 2.6,1.6 l 0.4,0.4 -0.55,-2.3 -0.2,-0.4 -0.6,-0.05 -2.1,-0.2 Q 45.7,11.25 45.15,10 44.65,8.8 44.95,7.55 45.25,6.4 46.25,5.5 47.2,4.65 48.45,4.4 50.2,4 51.65,4.9 q 1.1,0.65 1.85,2.05 2.6,4.1 2.5,8.55 0,2.6 -1.3,4.05 l -1.4,1.1 -1.65,0.85 -2.15,1.2 -2.1,0.85 -1.4,0.65 -0.4,1.95 -0.25,1 q 3.05,-2.75 6.7,-4.6 2.45,-1.2 4.4,-1.6 3.55,-0.7 6.85,0.95 3.25,1.6 4.95,4.8 1.05,2.05 1.05,4.25 0,2.35 -1.25,4.1 -1.4,2.05 -4.2,2.9 L 58.1,38.1 Q 55.15,37.2 53.65,34.65 L 53.2,33.7 q -2.8,-0.1 -5.6,0.95 -3.8,1.45 -7.05,4.75 -1.4,1.4 -2.15,1.65 l -2.05,-0.2 -1.05,0.6 -2.1,0.2 -1.2,-0.75 -0.15,-0.15 -1.4,0.4 -1.95,0.05 -2,0.05 -1.95,0.35 -1.55,0.05 -0.35,0.15 -1.25,0.1 q -1.45,-0.35 -1.7,-1.75 l -0.05,-0.5 -0.05,-0.15 0.2,-0.9 0.05,-0.15 0.75,-1.55 0.45,-0.6 2.85,-2.8 0.1,-0.25 q -1.15,-0.8 -1.85,-2 L 21.1,28.95 Q 20.85,28.3 20.75,27.4 l -0.05,-1 -0.4,0.05 -2.35,0.25 q -1.85,0 -2.85,-0.8 H 15.05 L 13.3,26 q -0.8,-0.1 -1.45,-0.45 -1.2,-0.7 -1.45,-2.1 v -1.2 l 0.2,-2.95 0.6,-2.35 -0.2,-1.9 q -0.1,-1.15 0.1,-1.7 0.1,-0.3 0.75,-1.05 l 0.7,-0.6 q 1.6,-1.2 3.45,-0.5 0.95,0.4 1.5,1.25 0.6,0.85 0.5,1.8 -0.05,1 -0.8,1.7 -0.65,0.7 -1.65,1 l -0.25,0.15 -0.1,0.35 0.05,0.95 0.2,1.1 v 0.05 q 1.15,-1.2 2.85,-1.75 l 1.25,-0.3 1.65,0.2 -0.15,-1.2 m 12.2,-2.95 q -0.35,0.65 -0.2,1.45 0.15,0.75 0.7,1.25 0.55,0.45 1.35,0.5 l 1.35,-0.45 q 0.55,-0.45 0.75,-1.25 0.2,-0.75 -0.15,-1.4 -0.55,-1.1 -1.85,-1.2 -1.25,0 -1.95,1.1 M 32.75,17 32.6,16.05 32.25,15.5 h -0.4 l -0.3,0.3 0.2,0.7 q 0.2,0.4 -0.05,0.65 l -0.65,-0.05 -0.6,-0.45 q -0.5,-0.2 -0.7,0 l -0.2,0.5 -0.2,0.5 -0.6,0.05 -0.2,-0.65 -0.1,-0.7 -0.25,-0.2 -0.3,0.05 -0.15,0.35 -0.1,0.85 v 0.75 q 0.2,0.85 1.45,0.95 h 0.15 v 0.05 l 0.15,0.65 0.15,0.4 0.5,0.3 0.55,-0.05 0.4,-0.2 q 0.65,0 0.85,-0.4 L 31.8,19.15 31.7,18.6 32.3,18.35 Q 32.75,18 32.75,17 m -7.9,-2 q -0.6,0 -1.1,0.35 -0.5,0.4 -0.7,0.95 -0.2,0.55 -0.05,1.15 0.15,0.65 0.65,1 0.45,0.4 1.1,0.4 0.6,0.05 1.1,-0.3 Q 27,17.9 26.75,16.5 26.5,15.65 25.85,15.3 25.4,15 24.85,15 m 6.85,21.85 1.2,-0.25 q 1.6,-0.6 3,-1.7 l 2.25,-1.9 2,-1.35 1.85,-1.5 q 1.15,-1.3 1.5,-3.1 0.35,-1.5 0.05,-2.9 l -0.15,-0.1 -1.6,-2 -0.2,-0.35 -0.25,-0.3 -0.55,-0.45 -0.15,-0.2 -0.15,0.1 -1.15,1 -1.9,1 -1.6,0.65 -2,0.7 -4.1,0.3 -2.8,-0.4 q -1.1,-0.3 -1.85,-0.85 l -0.2,0.2 -1.6,1.75 -0.4,0.6 -0.45,1.05 q -0.25,0.8 0.25,2.15 0.25,0.85 0.65,1.45 l 1.25,1.15 2.9,2.4 2.95,2.3 1.25,0.55 M 28.35,30.5 q -0.4,-0.5 -0.3,-1.55 l 0.05,-0.85 0.15,-0.75 0.45,-0.65 0.7,-0.65 0.75,-0.4 Q 31.1,25.3 31.9,25.3 l 1.65,0.5 q 1.15,0.4 1.45,0.95 l 0.3,0.95 -0.05,0.6 -0.45,0.35 -0.65,-0.35 q -1,-0.85 -2.45,-0.7 -1.05,0.1 -1.25,0.9 0,0.4 0.15,0.5 l 0.4,0.05 1.2,-0.15 h 0.95 l 1.1,0.35 0.75,0.5 0.5,0.8 q 0.25,1.15 -0.15,1.9 L 34.9,33.15 34.3,33.8 33.55,34.3 32.9,34.55 32,34.6 30.3,34.55 29.6,34.2 q -1.05,-0.75 -1.1,-1.4 0,-0.6 0.45,-1 l 1.05,-0.2 1,0.55 0.65,0.15 h 0.6 l 0.65,-0.6 q -0.15,-0.2 -0.5,-0.3 l -0.65,0.05 -2.65,-0.4 -0.75,-0.55"
         fill="#000000"
         fill-rule="evenodd"
         stroke="none"
         id="path9" />
      <path
         d="M 31.7,36.85 30.45,36.3 27.5,34 24.6,31.6 23.35,30.45 Q 22.95,29.85 22.7,29 22.2,27.65 22.45,26.85 l 0.45,-1.05 0.4,-0.6 1.6,-1.75 0.2,-0.2 q 0.75,0.55 1.85,0.85 l 2.8,0.4 4.1,-0.3 2,-0.7 1.6,-0.65 1.9,-1 1.15,-1 0.15,-0.1 0.15,0.2 0.55,0.45 0.25,0.3 0.2,0.35 1.6,2 0.15,0.1 q 0.3,1.4 -0.05,2.9 -0.35,1.8 -1.5,3.1 l -1.85,1.5 -2,1.35 -2.25,1.9 q -1.4,1.1 -3,1.7 l -1.2,0.25 M 24.85,15 q 0.55,0 1,0.3 0.65,0.35 0.9,1.2 0.25,1.4 -0.9,2.05 -0.5,0.35 -1.1,0.3 -0.65,0 -1.1,-0.4 -0.5,-0.35 -0.65,-1 -0.15,-0.6 0.05,-1.15 0.2,-0.55 0.7,-0.95 0.5,-0.35 1.1,-0.35 m 7.9,2 q 0,1 -0.45,1.35 l -0.6,0.25 0.1,0.55 0.05,0.7 q -0.2,0.4 -0.85,0.4 l -0.4,0.2 -0.55,0.05 -0.5,-0.3 -0.15,-0.4 -0.15,-0.65 V 19.1 H 29.1 Q 27.85,19 27.65,18.15 V 17.4 l 0.1,-0.85 0.15,-0.35 0.3,-0.05 0.25,0.2 0.1,0.7 0.2,0.65 0.6,-0.05 0.2,-0.5 0.2,-0.5 q 0.2,-0.2 0.7,0 l 0.6,0.45 0.65,0.05 q 0.25,-0.25 0.05,-0.65 l -0.2,-0.7 0.3,-0.3 h 0.4 l 0.35,0.55 0.15,0.95 m 0.5,-3.45 q 0.7,-1.1 1.95,-1.1 1.3,0.1 1.85,1.2 0.35,0.65 0.15,1.4 -0.2,0.8 -0.75,1.25 L 35.1,16.75 Q 34.3,16.7 33.75,16.25 33.2,15.75 33.05,15 32.9,14.2 33.25,13.55 m -4.9,16.95 0.75,0.55 2.65,0.4 0.65,-0.05 q 0.35,0.1 0.5,0.3 l -0.65,0.6 h -0.6 L 31,32.15 30,31.6 28.95,31.8 q -0.45,0.4 -0.45,1 0.05,0.65 1.1,1.4 l 0.7,0.35 1.7,0.05 0.9,-0.05 0.65,-0.25 0.75,-0.5 0.6,-0.65 0.45,-0.7 q 0.4,-0.75 0.15,-1.9 L 35,29.75 34.25,29.25 33.15,28.9 H 32.2 L 31,29.05 30.6,29 q -0.15,-0.1 -0.15,-0.5 0.2,-0.8 1.25,-0.9 1.45,-0.15 2.45,0.7 L 34.8,28.65 35.25,28.3 35.3,27.7 35,26.75 Q 34.7,26.2 33.55,25.8 L 31.9,25.3 q -0.8,0 -1.75,0.35 l -0.75,0.4 -0.7,0.65 -0.45,0.65 -0.15,0.75 -0.05,0.85 q -0.1,1.05 0.3,1.55"
         fill="#ffffff"
         fill-rule="evenodd"
         stroke="none"
         id="path10" />
    </g>
    <g
       id="shape2"
       transform="translate(2,2.05)">
      <path
         d="M -0.5,-0.4 V -0.55 H 75.1 V -0.4 40.8 H -0.5 Z"
         fill="none"
         stroke="#000000"
         stroke-linecap="round"
         stroke-linejoin="round"
         stroke-width="3"
         id="path11" />
    </g>
  </defs>
</svg>
