<?xml version="1.0" encoding="UTF-8" standalone="no"?>
<svg
   ffdec:objectType="frame"
   height="60.549999"
   width="67.099998"
   version="1.1"
   id="svg9"
   sodipodi:docname="523.svg"
   xmlns:inkscape="http://www.inkscape.org/namespaces/inkscape"
   xmlns:sodipodi="http://sodipodi.sourceforge.net/DTD/sodipodi-0.dtd"
   xmlns:xlink="http://www.w3.org/1999/xlink"
   xmlns="http://www.w3.org/2000/svg"
   xmlns:svg="http://www.w3.org/2000/svg"
   xmlns:ffdec="https://www.free-decompiler.com/flash">
  <sodipodi:namedview
     id="namedview9"
     pagecolor="#ffffff"
     bordercolor="#000000"
     borderopacity="0.25"
     inkscape:showpageshadow="2"
     inkscape:pageopacity="0.0"
     inkscape:pagecheckerboard="0"
     inkscape:deskcolor="#d1d1d1"
     fit-margin-top="5"
     fit-margin-left="5"
     fit-margin-right="5"
     fit-margin-bottom="5" />
  <g
     transform="translate(1.5,1.5)"
     id="g3">
    <use
       ffdec:characterId="516"
       height="57.549999"
       width="64.099998"
       xlink:href="#shape0"
       id="use1" />
    <use
       ffdec:characterId="1019"
       height="58.25"
       width="65.150002"
       xlink:href="#shape1"
       id="use2" />
    <use
       ffdec:characterId="518"
       height="60.549999"
       transform="translate(-1.5,-1.5)"
       width="67.099998"
       xlink:href="#shape2"
       id="use3" />
  </g>
  <defs
     id="defs9">
    <g
       id="shape0">
      <path
         d="M 53.6,0 H 64.1 V 57.55 H 53.6 28.25 0 V 0 H 28.25 53.6 V 57.55 0 M 28.25,0 V 57.55 0"
         fill="#ffffff"
         fill-rule="evenodd"
         stroke="none"
         id="path3" />
    </g>
    <g
       id="shape1">
      <path
         d="M 0,0 H 65.15 V 58.25 H 0 V 0"
         fill="#999999"
         fill-rule="evenodd"
         stroke="none"
         id="path4" />
      <path
         d="m 43.3,21.1 q -0.5,0 -1,-0.35 -0.95,-0.65 -0.8,-1.85 0.25,-1.15 1.35,-1.5 l 0.65,-0.2 0.5,-0.35 1.25,-0.7 0.85,-0.25 0.95,-0.7 1.95,-1.3 0.65,-0.25 q 0.35,-0.1 0.6,0.25 0.15,0.45 -0.2,0.8 l -0.55,0.6 q -1.95,1.25 -2.6,2.2 l -2.6,3.3 -0.1,0.1 0.85,0.75 0.25,-0.05 1.1,-0.25 1.55,-0.5 2.25,-0.4 2.2,-0.4 3.35,-1 1.2,-0.15 0.9,0.05 q 0.8,0.1 0.8,0.55 0.05,0.35 -0.65,0.7 l -1,0.55 -1.25,0.5 -3.3,1.3 -4.8,2.1 5.95,7.05 q 0.75,-0.15 1.5,0 3.1,0.6 2.75,3.7 -0.35,2.75 -3.2,2.85 Q 53.5,38.3 52.6,37.65 50.9,36.45 49.8,34.7 47.6,31.25 46,27.5 l -0.9,-1.8 -0.2,-0.35 q -1.15,-0.3 -1.4,-1.45 -0.15,-0.8 0.2,-1.35 l -0.4,-1.4 V 21.1 m 9.85,23.3 q 0.1,0.6 -0.4,0.75 l -1,-0.1 -1.85,-0.65 -1.15,-0.35 -4.65,-2.2 q -1.6,-0.7 -2.05,-1.6 -0.55,-1.15 0.2,-2.15 0.75,-1 2,-0.75 l 1.65,0.95 2.45,1.9 0.8,0.45 0.45,0.5 q 0.15,0.15 0.85,0.5 l 0.95,1 0.9,0.95 0.5,0.35 0.35,0.45 M 18.6,25.7 17.7,27.5 q -1.6,3.75 -3.8,7.2 -1.1,1.75 -2.8,2.95 -0.9,0.65 -2.05,0.6 Q 6.2,38.15 5.85,35.4 5.5,32.3 8.6,31.7 q 0.75,-0.15 1.5,0 l 4.75,-5.5 -0.5,-0.35 -1.45,-0.8 -1.05,-0.5 -2,-1.15 Q 9.45,23.1 9.4,22.8 9.2,22.35 9.5,22.05 l 0.7,-0.15 1.7,0.3 1.85,0.4 1.3,0.25 0.8,-0.05 q 0.55,-0.05 1.1,0.3 l 0.2,0.2 1,-1.1 -0.7,-0.75 -1.35,-1.45 -0.6,-0.95 -1.2,-1.6 -1,-1.6 -1.45,-1.8 -0.25,-0.5 q -0.1,-0.3 0.2,-0.45 l 0.55,0.2 q 2.6,2.15 3.35,2.6 l 3.85,2.35 1.45,1 q 0.7,0.7 0.85,1.5 0.1,1 -0.65,1.65 l -1.35,0.55 -1.25,2.75 m 0.4,14.5 -7.35,3.9 -2.8,1.5 q -0.75,0.3 -1,0 -0.3,-0.35 0.15,-0.95 0.75,-1 2.65,-2.7 l 1.25,-1.1 2.2,-1.75 1.4,-0.9 2.1,-2 q 1.4,-1.15 2.7,-0.8 0.85,0.25 1.25,1.05 0.35,0.9 -0.05,1.65 L 20.3,39.35 19,40.2"
         fill="#000000"
         fill-rule="evenodd"
         stroke="none"
         id="path5" />
      <path
         d="m 52.95,8.4 0.4,-0.75 0.7,-0.8 L 54.45,6.5 54.4,6.4 54.35,6.35 54,6.45 52.75,6.25 Q 52.15,5.95 51.85,5.3 51.55,4.65 51.7,4 51.9,3.35 52.4,2.95 52.95,2.5 53.6,2.5 54.65,2.5 55.25,3.35 55.6,3.9 55.6,4.6 L 55.55,5 55.8,5.25 56.05,5 56.6,4.6 56.65,4.05 Q 56.8,3.45 57.2,3 57.65,2.65 58.25,2.6 l 1.15,0.2 q 1.05,0.65 0.9,1.85 0,0.6 -0.5,1.05 -0.45,0.5 -1.05,0.55 l -1.05,-0.1 -0.45,0.55 0.05,0.05 1.05,0.7 0.45,0.4 q 0.55,0.55 0.25,1.35 -0.3,0.85 -1.1,0.9 Q 57.1,10.2 56.6,9.5 L 56.3,9.1 55.9,8.7 55.8,8.8 55.15,9.7 54.2,10.2 Q 53.5,10.3 53.05,9.65 52.6,9.1 52.95,8.4 M 49.55,8.25 49.1,8.55 48.6,8.4 Q 48.35,8.2 48.4,7.6 L 47.7,7.5 47.25,7.3 Q 47,7.15 47.1,6.85 47.2,6.7 47.5,6.6 l 1.1,-0.2 0.15,-1.05 0.65,-0.05 0.15,0.3 0.1,0.55 V 6.2 l 0.9,0.1 Q 51,6.55 51,7.05 l -0.45,0.7 -0.9,0.05 -0.1,0.45 m -33.9,-4.4 q 0.25,0.35 0.15,1 L 15.65,5.5 14.8,7.5 14.1,8.7 12.6,10.35 12.1,10.7 11.8,10.9 10.55,11 8.85,9.8 8.25,9.3 7.95,8.85 7.55,8.45 7.1,7.5 6.7,6.7 6.4,5.45 Q 6.3,4.55 6.5,4.25 6.75,3.95 7.15,3.85 L 7.9,3.75 Q 9.1,3.55 9.65,3 L 10.3,2.45 10.7,2.25 10.75,2.2 12,2.3 l 0.7,0.65 1.5,0.2 0.75,0.2 0.7,0.5 M 12.25,7.3 13.15,5.7 13.3,5.25 12.9,5.15 11.4,4.7 Q 10.55,5.5 8.95,5.9 l 0.8,1.45 0.8,0.7 0.8,0.55 V 8.55 L 12,7.75 12.25,7.3 M 5.35,9.95 Q 5.25,10.4 4.75,10.5 4.3,10.6 4.05,10.15 L 4,9.75 H 3.9 3.4 Q 3,9.65 2.9,9.25 2.8,8.75 3.1,8.55 3.35,8.25 3.8,8.25 H 3.9 L 3.85,7.55 Q 3.95,6.9 4.5,6.8 4.9,6.7 5.15,7.05 L 5.25,7.6 5.3,7.95 H 5.35 L 6.1,8.2 6.25,8.6 Q 6.35,9.25 5.9,9.45 L 5.4,9.6 H 5.35 v 0.35 m 20.05,36.35 6.45,0.3 6.45,-0.3 1.7,0.15 q 6,0.15 11.65,2.15 1.5,0.5 1.95,1.9 0.4,1.35 -0.8,2.1 -1.35,0.85 -2.9,1.1 l -5.2,0.75 -12.55,0.35 h -0.6 L 19,54.45 13.8,53.7 q -1.55,-0.25 -2.9,-1.1 -1.2,-0.75 -0.8,-2.1 0.45,-1.4 1.95,-1.9 5.65,-2 11.65,-2.15 l 1.7,-0.15"
         fill="#ffffff"
         fill-rule="evenodd"
         stroke="none"
         id="path6" />
      <path
         d="m 26.85,46 -2.5,-0.7 -0.15,0.65 Q 24.05,46.5 24.05,47.1 L 24,47.85 q 0.4,3.25 -2.35,4.95 -0.5,0.35 -1.15,0.45 -0.95,0.2 -1.8,0 l -2,-0.2 q -2.65,-0.55 -2.5,-3.1 0.1,-1.3 1.35,-1.9 1.2,-0.55 2.55,-0.45 l 0.2,-0.05 q 0.45,-2.45 1.8,-4.5 L 18.6,41.65 17.25,39.9 Q 15.95,38.05 15.3,36.05 14.7,34.35 15.25,26 q 0.45,-1.95 1.3,-3.75 l 0.25,-0.5 0.6,-1.1 q 1.9,-3.1 4.9,-5.2 v 0.1 h 0.05 q -0.7,-2.25 0.4,-4.6 -0.5,-0.7 -0.7,-1.6 -0.35,-1.65 1.1,-2.4 l 0.95,-0.3 0.8,-0.05 1.8,0.2 q 2.1,-1.2 4.6,-1.4 h 0.3 V 5.35 h 0.35 0.25 V 5.4 h 0.3 q 2.5,0.2 4.6,1.4 l 1.8,-0.2 0.8,0.05 0.95,0.3 q 1.45,0.75 1.1,2.4 l -0.7,1.6 q 1.1,2.3 0.45,4.5 2.95,2.05 4.9,5.2 l 0.85,1.6 q 1.7,3.7 2,7.75 l 0.05,1.9 q 1.35,-0.3 2.5,-1.35 0.7,-0.65 1.6,-0.75 3.15,-0.3 3.65,2.6 0.4,2.45 -1.85,3.75 -2.85,1.6 -6.25,0.85 l -0.75,-0.1 -1.65,3 -1.35,1.75 -1.5,1.4 q 1.35,2.05 1.8,4.5 l 0.2,0.05 q 1.35,-0.1 2.55,0.45 1.25,0.6 1.35,1.9 0.15,2.55 -2.5,3.1 l -2,0.2 q -0.85,0.2 -1.8,0 L 42.15,52.8 q -1.8,-1.1 -2.25,-2.85 l -1.35,1.1 q -1.75,1 -3.7,1.05 -3.45,0.15 -4.95,-2.9 -0.4,-0.75 -0.35,-1.65 l 0.2,-1.15 -2.9,-0.4 m 16.25,-21.8 0.5,1.8 0.2,0.7 0.25,1.65 -4.75,0.05 -0.8,0.1 -0.65,-0.85 q -0.8,-1.5 -2,-2.7 l -0.1,-0.25 3.35,-5.15 0.1,-0.25 0.95,0.85 1.15,1.15 1.55,2.3 0.25,0.6 M 30.7,42.4 q -3.15,0.35 -5.65,-0.9 l 0.8,-1.05 3.35,-6.2 0.25,-0.15 0.35,-0.2 1.8,0.2 v 0.05 L 32,34.1 h 0.2 l 1.8,-0.2 0.35,0.2 0.25,0.15 3.35,6.2 0.35,0.5 q 0.2,-1.2 0.65,-2.3 -1.4,-2.55 -3.4,-4.6 l 0.55,-0.55 1.3,-2.1 0.75,-1.15 0.2,-0.5 0.2,-0.05 1.5,-0.05 4.25,0.35 0.3,2.1 0.05,0.3 L 46.7,32 46.65,31.35 46.3,28.5 46,27.55 45.9,26.6 45.65,25.55 45.6,25.35 q -0.55,-2.5 -2.3,-4.3 L 41.8,19.4 39.6,17.45 Q 37.05,15.55 33.75,15.6 H 32.2 l -0.25,0.05 H 31.6 V 15.6 h -1.55 q -3.3,-0.05 -5.85,1.85 L 22,19.4 20.5,21.05 q -1.2,1.2 -1.8,2.75 l -0.1,0.25 -0.4,1.4 -0.05,0.1 -0.25,1.05 -0.1,0.95 -0.3,0.95 -0.35,2.85 q -0.1,1.3 0.1,2.6 0.2,1.5 0.9,2.95 1.85,3.9 5.65,5.8 2.8,1.45 5.95,1.1 l 1.85,0.1 h 0.2 0.4 l 1.85,-0.1 3.8,-0.25 V 43.4 l 0.1,-0.25 0.2,-1.35 q -2.1,0.8 -4.55,0.65 l 0.5,0.05 -3.4,-0.1 m 12.7,-2.85 -0.45,1.15 q 1.45,-1.4 2.45,-3.25 -1.35,0.75 -2,2.1 m -15.4,-9 -0.3,-0.4 -0.05,-0.1 -0.7,-0.9 0.3,-0.45 0.05,-0.1 2.15,-3 2.15,-0.3 0.25,-0.05 h 0.1 l 0.25,0.05 2.15,0.3 2.15,3 0.05,0.1 0.3,0.45 -0.7,0.9 -0.05,0.1 -0.3,0.4 -1.5,1.7 -0.05,0.05 -0.45,-0.05 H 32.45 30 L 29.55,32.3 29.5,32.25 28,30.55 m -8.85,2.5 -0.05,-0.3 0.1,-0.65 0.3,-2.1 4.25,-0.35 1.5,0.05 0.2,0.05 0.2,0.5 0.75,1.15 1.3,2.1 0.55,0.55 q -2.15,2.2 -3.6,5 l -0.9,1.15 -0.3,0.35 -1.35,-1.2 q -2.45,-2.5 -2.9,-5.9 l -0.05,-0.4 m 1.55,-8.85 0.25,-0.6 q 0.6,-1.25 1.55,-2.3 l 1.15,-1.15 0.95,-0.85 0.1,0.25 q 1.45,2.7 3.35,5.15 l -0.1,0.25 q -1.2,1.2 -2,2.7 L 25.3,28.5 24.5,28.4 19.75,28.35 20,26.7 20.2,26 20.7,24.2 m 8.95,-6.8 h 0.05 l 0.15,-0.05 1.6,-0.15 3,0.25 q 1.65,0.3 3.4,1.05 l 0.05,0.05 -0.8,1 -1.6,2.75 q -0.45,0.75 -0.75,1.6 h -0.2 l -1.5,-0.2 -0.35,0.05 h -0.5 -0.6 -0.5 l -0.35,-0.05 -1.5,0.2 h -0.2 l -0.75,-1.6 -1.6,-2.75 -0.8,-1 0.05,-0.05 q 1.75,-0.75 3.7,-1.1 M 36.95,46 33.2,46.45 Q 34.55,48 36.4,47 l 1.1,-1.1 -0.55,0.1"
         fill="#000000"
         fill-rule="evenodd"
         stroke="none"
         id="path7" />
      <path
         d="M 43.1,24.2 42.85,23.6 41.3,21.3 40.15,20.15 39.2,19.3 l -0.1,0.25 -3.35,5.15 0.1,0.25 q 1.2,1.2 2,2.7 L 38.5,28.5 39.3,28.4 44.05,28.35 43.8,26.7 43.6,26 43.1,24.2 m -12.4,18.2 3.4,0.1 -0.5,-0.05 q 2.45,0.15 4.55,-0.65 l -0.2,1.35 -0.1,0.25 v 0.15 l -3.8,0.25 -1.85,0.1 H 31.8 31.6 L 29.75,43.8 Q 26.6,44.15 23.8,42.7 20,40.8 18.15,36.9 q -0.7,-1.45 -0.9,-2.95 -0.2,-1.3 -0.1,-2.6 l 0.35,-2.85 0.3,-0.95 0.1,-0.95 0.25,-1.05 0.05,-0.1 0.4,-1.4 0.1,-0.25 q 0.6,-1.55 1.8,-2.75 L 22,19.4 24.2,17.45 q 2.55,-1.9 5.85,-1.85 h 1.55 v 0.05 h 0.35 L 32.2,15.6 h 1.55 q 3.3,-0.05 5.85,1.85 l 2.2,1.95 1.5,1.65 q 1.75,1.8 2.3,4.3 l 0.05,0.2 0.25,1.05 0.1,0.95 0.3,0.95 0.35,2.85 0.05,0.65 -2.05,0.4 -0.05,-0.3 -0.3,-2.1 -4.25,-0.35 -1.5,0.05 -0.2,0.05 -0.2,0.5 -0.75,1.15 -1.3,2.1 -0.55,0.55 q 2,2.05 3.4,4.6 -0.45,1.1 -0.65,2.3 L 37.95,40.45 34.6,34.25 34.35,34.1 34,33.9 32.2,34.1 H 32 l -0.4,0.05 V 34.1 l -1.8,-0.2 -0.35,0.2 -0.25,0.15 -3.35,6.2 -0.8,1.05 q 2.5,1.25 5.65,0.9 m 12.7,-2.85 q 0.65,-1.35 2,-2.1 -1,1.85 -2.45,3.25 L 43.4,39.55 M 29.65,17.4 q -1.95,0.35 -3.7,1.1 l -0.05,0.05 0.8,1 1.6,2.75 0.75,1.6 h 0.2 l 1.5,-0.2 0.35,0.05 h 0.5 0.6 0.5 l 0.35,-0.05 1.5,0.2 h 0.2 q 0.3,-0.85 0.75,-1.6 l 1.6,-2.75 0.8,-1 -0.05,-0.05 q -1.75,-0.75 -3.4,-1.05 l -3,-0.25 -1.6,0.15 -0.15,0.05 h -0.05 m -8.95,6.8 -0.5,1.8 -0.2,0.7 -0.25,1.65 4.75,0.05 0.8,0.1 0.65,-0.85 q 0.8,-1.5 2,-2.7 l 0.1,-0.25 Q 26.15,22.25 24.7,19.55 L 24.6,19.3 23.65,20.15 22.5,21.3 q -0.95,1.05 -1.55,2.3 l -0.25,0.6 m -1.55,8.85 0.05,0.4 q 0.45,3.4 2.9,5.9 l 1.35,1.2 0.3,-0.35 0.9,-1.15 q 1.45,-2.8 3.6,-5 l -0.55,-0.55 -1.3,-2.1 -0.75,-1.15 -0.2,-0.5 -0.2,-0.05 -1.5,-0.05 -4.25,0.35 -0.3,2.1 -0.1,0.65 0.05,0.3 m 8.85,-2.5 1.5,1.7 0.05,0.05 0.45,-0.05 h 2.45 1.35 l 0.45,0.05 0.05,-0.05 1.5,-1.7 0.3,-0.4 0.05,-0.1 0.7,-0.9 -0.3,-0.45 -0.05,-0.1 -2.15,-3 -2.15,-0.3 -0.25,-0.05 h -0.1 l -0.25,0.05 -2.15,0.3 -2.15,3 -0.05,0.1 -0.3,0.45 0.7,0.9 0.05,0.1 0.3,0.4"
         fill="#ffffff"
         fill-rule="evenodd"
         stroke="none"
         id="path8" />
    </g>
    <g
       id="shape2"
       transform="translate(1.5,1.5)">
      <path
         d="M 0,23.8 V 0 H 64.1 V 23.8 57.55 H 0 Z"
         fill="none"
         stroke="#000000"
         stroke-linecap="round"
         stroke-linejoin="round"
         stroke-width="3"
         id="path9" />
    </g>
  </defs>
</svg>
