<?xml version="1.0" encoding="UTF-8" standalone="no"?>
<svg
   ffdec:objectType="frame"
   height="60.549999"
   width="67.099998"
   version="1.1"
   id="svg7"
   sodipodi:docname="436.svg"
   xmlns:inkscape="http://www.inkscape.org/namespaces/inkscape"
   xmlns:sodipodi="http://sodipodi.sourceforge.net/DTD/sodipodi-0.dtd"
   xmlns:xlink="http://www.w3.org/1999/xlink"
   xmlns="http://www.w3.org/2000/svg"
   xmlns:svg="http://www.w3.org/2000/svg"
   xmlns:ffdec="https://www.free-decompiler.com/flash">
  <sodipodi:namedview
     id="namedview7"
     pagecolor="#ffffff"
     bordercolor="#000000"
     borderopacity="0.25"
     inkscape:showpageshadow="2"
     inkscape:pageopacity="0.0"
     inkscape:pagecheckerboard="0"
     inkscape:deskcolor="#d1d1d1"
     fit-margin-top="5"
     fit-margin-left="5"
     fit-margin-right="5"
     fit-margin-bottom="5" />
  <g
     transform="translate(1.5,1.5)"
     id="g3">
    <use
       ffdec:characterId="516"
       height="57.549999"
       width="64.099998"
       xlink:href="#shape0"
       id="use1" />
    <use
       ffdec:characterId="935"
       height="57.549999"
       transform="translate(-1.05)"
       width="65.150002"
       xlink:href="#shape1"
       id="use2" />
    <use
       ffdec:characterId="518"
       height="60.549999"
       transform="translate(-1.5,-1.5)"
       width="67.099998"
       xlink:href="#shape2"
       id="use3" />
  </g>
  <defs
     id="defs7">
    <g
       id="shape0">
      <path
         d="M 53.6,0 H 64.1 V 57.55 H 53.6 28.25 0 V 0 H 28.25 53.6 V 57.55 0 M 28.25,0 V 57.55 0"
         fill="#ffffff"
         fill-rule="evenodd"
         stroke="none"
         id="path3" />
    </g>
    <g
       id="shape1"
       transform="translate(1.05)">
      <path
         d="M 0,0 H 64.1 V 57.55 H 0 V 0"
         fill="#999999"
         fill-rule="evenodd"
         stroke="none"
         id="path4" />
      <path
         d="m 45.25,33.9 -0.05,0.55 q -0.2,2.05 -0.6,3.35 -0.55,1.8 -2.25,3.95 l -1.3,1.45 q 2.3,3.95 2.95,6.45 l 0.55,2.6 0.8,5.25 H 21.95 L 22,56.85 q 0.15,-0.8 0.75,-1.65 L 23.9,53.75 26.3,50.1 27.2,48.55 24,48.2 20.65,47.2 Q 18.7,46.5 17.45,45.6 L 14.9,42.85 Q 12.9,40.3 12.05,38.3 L 11.8,37.7 11.35,37.85 8.9,38.5 7,38.4 Q 3.7,38 2.35,36.8 1.45,36.1 0.45,34.3 l -1.1,-2.15 Q -1.05,31 -1.05,29 l 0.3,-2.2 1,-2.25 Q 1,23.2 1.9,22.5 3.05,21.75 4.5,21.75 l 2.75,0.45 3.7,1.3 2.1,0.85 q 0.95,-2.35 2.6,-4.3 2,-2.4 4.6,-3.95 l -0.65,-1.05 -0.55,-0.5 q -1.8,-2.1 -2.15,-5.95 -0.25,-2.4 0.45,-3.95 0.5,-0.9 1.1,-1.5 1.8,-1.85 4.4,-2.25 2.65,-0.3 4.9,0.95 L 30,3.75 q 0.9,1 1.4,2.1 1,2.2 0.65,5.6 2.1,-1.6 4.3,-1.75 l 2.1,-0.05 1.85,0.05 q 1,0.05 2.25,0.65 L 42.9,9.4 q 0.5,-0.9 0.85,-1.25 l 0.7,-0.6 Q 46.55,6.1 47.7,5.8 L 51,6 q 1.55,0.7 2.5,2.1 l 0.05,0.05 1.2,-0.25 q 1.65,0 2.65,1.1 0.65,0.65 0.95,1.6 l 0.35,1.7 -0.1,0.7 0.1,0.1 0.65,1.25 0.55,2.35 -0.2,1.55 -1,2.6 -0.55,0.6 -1.2,0.9 -1.15,0.35 V 22.65 Q 55.65,22.05 55.1,21.9 54.7,21.85 54.4,22.1 54,21.7 54.2,21.25 l 0.45,-0.5 1.75,-1.25 0.4,-0.75 0.4,-1.15 0.05,-1 q -0.1,-0.7 -0.45,-1 l -0.4,-0.25 -1.05,0.3 -0.05,0.15 -0.25,0.9 -0.5,1.5 q -0.55,1.3 -2,2.05 -1.15,0.6 -2.4,0.65 v 1 l -0.45,3.05 -0.75,1.7 -0.8,-0.1 -2,-0.9 -0.6,-0.75 -0.75,-0.65 -0.8,0.05 -0.5,0.6 q -0.15,0.4 0.15,0.95 l 0.6,0.75 0.95,0.85 1.05,0.5 0.25,0.15 -0.05,1.1 -0.2,0.7 v 0.05 l -0.8,0.65 v 0.55 L 45,31.5 44.8,31.65 43.4,30.95 Q 42.7,30.6 42.55,30.45 L 42.25,30.05 41.8,30 41.75,30.55 v 0.85 q 0.05,0.85 1.2,1.45 l 2.3,1.05 m 0.8,-22.8 0.85,-0.75 q 0.85,-0.6 2.3,-0.7 l 1.35,0.1 -0.3,-0.35 Q 49.6,8.8 48.6,8.8 l -1.7,0.3 q -0.7,0.15 -1.15,0.5 l -0.95,1.45 -0.15,0.35 0.75,0.5 0.65,-0.8 m 3.15,5.3 0.55,1.5 1.25,-0.4 q 0.8,-0.45 1.05,-1.1 l 0.2,-1.15 0.1,-0.5 -0.1,-0.15 -0.65,-0.95 q -0.5,-0.9 -2.7,-0.95 -1,0.15 -1.6,0.8 1.15,1.15 1.9,2.9 M 29.45,38.35 31,37.45 31.9,37 l 0.75,-0.15 1.1,-0.4 0.7,-0.1 0.85,0.05 q 1.45,-0.1 1.85,-1.4 0.2,-0.55 0,-1.2 L 36.4,32.9 Q 35.8,32.45 35,32.55 l -2.2,0.55 -1.25,0.55 Q 31.2,33.8 30.8,34.05 L 30.6,33.95 30.2,33.8 29.9,33.6 29,32.75 Q 28.85,32 27.95,32 l -0.8,0.25 q -0.4,0.35 -0.5,0.95 -0.05,0.5 0.25,1 l 0.75,0.75 0.25,0.4 0.25,0.3 0.1,0.35 0.05,0.05 q -0.45,0.65 -0.85,1.85 l -0.3,0.5 Q 27,38.85 27,39.35 q 0,0.55 0.15,0.75 l 0.75,0.15 0.6,-0.5 0.95,-1.4 m -12.7,2.7 q 0.85,0.65 1.85,0.65 0,0.5 0.3,1 l 0.95,0.75 q 1.15,0.5 1.9,-0.2 0.5,-0.45 0.5,-1.25 l -0.3,-1.35 -0.2,-0.35 0.4,-0.4 0.6,-0.75 q 0.55,-0.95 0.55,-2.05 -0.1,-2 -1.8,-3.05 -1.7,-1.05 -3.6,-0.4 -0.7,0.2 -1.2,0.6 v 0.05 l 0.25,0.75 0.1,0.85 0.1,0.7 -0.05,2.6 -0.15,0.8 -0.4,0.85 0.2,0.2 m 13,-12.55 2.1,-0.1 -0.05,-0.35 0.05,-0.9 q 0.05,-0.95 0.4,-1.95 l 0.45,-1.15 -0.8,-0.75 -1.25,-2 -0.7,-1.5 -0.1,-0.6 -0.45,0.1 -1.2,0.6 q -1.65,1.1 -2.1,2.35 l -0.2,1.4 q -0.1,0.85 0.15,1.75 0.2,0.65 0.7,1.3 l 0.7,0.7 q 0.95,0.85 2.3,1.1"
         fill="#000000"
         fill-rule="evenodd"
         stroke="none"
         id="path5" />
      <path
         d="m 55.8,22.7 v 0.45 l -0.1,0.75 -0.2,1.2 -0.2,0.55 -0.3,0.9 -0.45,1.3 -0.6,15.95 -0.15,3.1 -0.2,0.45 Q 53.4,47.4 53.35,47.2 L 53,47.9 Q 52.55,47.2 52.55,46.55 L 52.35,45.6 V 44.75 L 52.15,43.8 52.25,43.15 52,41.7 51.15,38.9 50.85,38.3 50.7,37.85 50.45,37.5 49.3,36.2 l -0.95,-0.7 -0.6,-0.25 -0.95,-0.4 -0.55,-0.7 -0.7,-0.2 -0.3,-0.05 -2.3,-1.05 Q 41.8,32.25 41.75,31.4 V 30.55 L 41.8,30 l 0.45,0.05 0.3,0.4 q 0.15,0.15 0.85,0.5 l 1.4,0.7 0.2,-0.15 0.45,-0.35 0.25,-0.25 0.55,-0.95 V 29.9 l 0.2,-0.7 0.05,-1.1 -0.25,-0.15 -1.05,-0.5 -0.95,-0.85 -0.6,-0.75 Q 43.35,25.3 43.5,24.9 l 0.5,-0.6 0.8,-0.05 0.75,0.65 0.6,0.75 2,0.9 0.8,0.1 h 0.4 q 2,0 3.1,-1.05 l 0.95,-1.35 0.4,-0.85 0.35,-1.15 0.25,-0.15 q 0.3,-0.25 0.7,-0.2 0.55,0.15 0.7,0.75 V 22.7 M 42.1,3.1 q 0.3,0.35 0.3,1.05 l -0.2,1.3 -0.6,1.35 -0.3,1.15 q -0.2,0.25 -0.45,0 L 40.65,7.5 Q 40.1,5.65 40.1,4.4 40.1,3.2 40.7,2.85 41.05,2.6 41.45,2.7 41.9,2.75 42.1,3.1 m 7.55,25.75 -1.45,-0.1 -0.1,0.9 L 48,30 47.8,30.4 v 0.5 l -0.2,0.7 -0.15,0.3 h 0.1 l 1.2,-0.4 q 1.05,-0.6 2.15,-2 l 0.85,-0.95 -2.1,0.3 m 0.9,4 -1.35,0.85 0.6,0.35 q 0.95,0.55 1.8,1.75 l 0.55,0.75 -0.1,-0.75 -0.25,-2.7 0.05,-1.35 -1.3,1.1 M 38,6.85 38.3,7.5 V 8.2 Q 38,8.75 37.3,8.4 L 36.6,7.55 35.45,6 34.85,5.45 q -0.3,-0.35 -0.25,-0.9 0.1,-0.5 0.45,-0.8 0.4,-0.3 0.9,-0.25 0.5,0.1 0.8,0.45 l 0.3,0.5 0.8,1.9 0.15,0.5 M 29.75,28.5 q -1.35,-0.25 -2.3,-1.1 l -0.7,-0.7 q -0.5,-0.65 -0.7,-1.3 -0.25,-0.9 -0.15,-1.75 l 0.2,-1.4 Q 26.55,21 28.2,19.9 l 1.2,-0.6 0.45,-0.1 0.1,0.6 0.7,1.5 1.25,2 0.8,0.75 -0.45,1.15 q -0.35,1 -0.4,1.95 l -0.05,0.9 0.05,0.35 -2.1,0.1 m -13,12.55 -0.2,-0.2 0.4,-0.85 0.15,-0.8 0.05,-2.6 -0.1,-0.7 -0.1,-0.85 -0.25,-0.75 v -0.05 q 0.5,-0.4 1.2,-0.6 1.9,-0.65 3.6,0.4 1.7,1.05 1.8,3.05 0,1.1 -0.55,2.05 l -0.6,0.75 -0.4,0.4 0.2,0.35 0.3,1.35 q 0,0.8 -0.5,1.25 -0.75,0.7 -1.9,0.2 L 18.9,42.7 q -0.3,-0.5 -0.3,-1 -1,0 -1.85,-0.65 m 12.7,-2.7 -0.95,1.4 -0.6,0.5 -0.75,-0.15 Q 27,39.9 27,39.35 q 0,-0.5 0.15,-0.95 l 0.3,-0.5 q 0.4,-1.2 0.85,-1.85 L 28.25,36 28.15,35.65 27.9,35.35 27.65,34.95 26.9,34.2 q -0.3,-0.5 -0.25,-1 0.1,-0.6 0.5,-0.95 L 27.95,32 q 0.9,0 1.05,0.75 l 0.9,0.85 0.3,0.2 0.4,0.15 0.2,0.1 q 0.4,-0.25 0.75,-0.4 L 32.8,33.1 35,32.55 q 0.8,-0.1 1.4,0.35 l 0.75,0.9 q 0.2,0.65 0,1.2 -0.4,1.3 -1.85,1.4 l -0.85,-0.05 -0.7,0.1 -1.1,0.4 -0.75,0.15 -0.9,0.45 -1.55,0.9"
         fill="#ffffff"
         fill-rule="evenodd"
         stroke="none"
         id="path6" />
    </g>
    <g
       id="shape2"
       transform="translate(1.5,1.5)">
      <path
         d="M 0,23.8 V 0 H 64.1 V 23.8 57.55 H 0 Z"
         fill="none"
         stroke="#000000"
         stroke-linecap="round"
         stroke-linejoin="round"
         stroke-width="3"
         id="path7" />
    </g>
  </defs>
</svg>
