<?xml version="1.0" encoding="UTF-8" standalone="no"?>
<svg
   ffdec:objectType="frame"
   height="44.349998"
   width="78.599998"
   version="1.1"
   id="svg13"
   sodipodi:docname="252.svg"
   xmlns:inkscape="http://www.inkscape.org/namespaces/inkscape"
   xmlns:sodipodi="http://sodipodi.sourceforge.net/DTD/sodipodi-0.dtd"
   xmlns:xlink="http://www.w3.org/1999/xlink"
   xmlns="http://www.w3.org/2000/svg"
   xmlns:svg="http://www.w3.org/2000/svg"
   xmlns:ffdec="https://www.free-decompiler.com/flash">
  <sodipodi:namedview
     id="namedview13"
     pagecolor="#ffffff"
     bordercolor="#000000"
     borderopacity="0.25"
     inkscape:showpageshadow="2"
     inkscape:pageopacity="0.0"
     inkscape:pagecheckerboard="0"
     inkscape:deskcolor="#d1d1d1"
     fit-margin-top="5"
     fit-margin-left="5"
     fit-margin-right="5"
     fit-margin-bottom="5" />
  <g
     transform="translate(2,2.05)"
     id="g3">
    <use
       ffdec:characterId="1"
       height="42.700001"
       transform="translate(-1.75,-2)"
       width="76.449997"
       xlink:href="#shape0"
       id="use1" />
    <use
       ffdec:characterId="247"
       height="42.200001"
       transform="translate(-0.1,-0.9)"
       width="76.599998"
       xlink:href="#shape1"
       id="use2" />
    <use
       ffdec:characterId="3"
       height="44.349998"
       transform="translate(-2,-2.05)"
       width="78.599998"
       xlink:href="#shape2"
       id="use3" />
  </g>
  <defs
     id="defs13">
    <g
       id="shape0"
       transform="translate(1.75,2)">
      <path
         d="M 2.8,0 V -0.4 H 5.4 V 0 H 9.7 V 19.45 0 H 20.55 L 19.3,19.45 H 9.7 0.25 V 0 H 2.8"
         fill="#ffffff"
         fill-rule="evenodd"
         stroke="none"
         id="path3" />
      <path
         d="M 0.25,19.45 H 9.7 19.3 L 18.7,28.6 16,28.5 10.95,27.95 9.7,27.8 Q 7.45,27.6 5.85,27.75 4.05,27.9 1.5,28.6 0.75,28.8 0.25,29.15 v -9.7 m 9.45,0 v 8.35 -8.35"
         fill="#121212"
         fill-rule="evenodd"
         stroke="none"
         id="path4" />
      <path
         d="m 9.7,27.8 1.25,0.15 5.05,0.55 2.7,0.1 h 1.05 l 3.75,0.15 q 2.45,0.3 3.6,1.25 0.6,0.5 0.6,1.1 0,0.65 -0.8,1 l -1.3,0.2 -7.15,0.15 -5.6,-0.3 L 9.7,31.75 7.95,31.6 3.1,31.95 0.95,32.3 0.25,32.1 -0.35,31.55 -0.5,31.3 V 29.9 L 0.25,29.15 Q 0.75,28.8 1.5,28.6 4.05,27.9 5.85,27.75 7.45,27.6 9.7,27.8 v 3.95 -3.95"
         fill="#999999"
         fill-rule="evenodd"
         stroke="none"
         id="path5" />
      <path
         d="M 2.8,0 H 0.25 M 9.7,0 H 5.4 m 16.15,0 h 10.7 M 20.55,0 H 9.7"
         fill="none"
         stroke="#666666"
         stroke-linecap="round"
         stroke-linejoin="round"
         stroke-width="4"
         id="path6" />
      <path
         d="m 9.7,-0.4 h 65 V 40.5 H 47.05 L 45.5,40.7 27,40.65 25.95,40.5 H 9.7 -0.5 V -0.4 H 9.7 V 40.5 -0.4"
         fill="#ffffff"
         fill-rule="evenodd"
         stroke="none"
         id="path7" />
    </g>
    <g
       id="shape1"
       transform="translate(0.1,0.9)">
      <path
         d="M 0.4,-0.4 H 76 V 40.8 H 0.4 V -0.4 m 8.65,22 q -1,-1.4 -1.15,-2.05 -0.15,-0.6 -0.15,-1.25 0,-1.4 0.5,-2.35 0.4,-0.75 1.45,-1.6 l 0.4,-0.3 q 0.35,-0.2 1.1,0 1.3,0.2 1.9,0.65 l 1.05,1.2 0.55,0.95 0.3,1.4 -0.35,1.85 -0.75,2.05 -0.45,0.5 -0.3,0.45 -0.95,0.1 -1.85,-0.35 -0.4,-0.15 -0.4,-0.4 -0.5,-0.7 m 10.75,-0.8 0.1,-0.35 3.1,0.4 1.8,0.1 1.4,0.2 h 0.6 l 0.45,0.1 0.2,-0.1 V 20.9 l -2.6,-0.95 -2.9,-1.15 -1.75,-0.9 -0.15,-1.85 q 3.85,2.25 6.7,3.05 l 0.4,-0.05 q 0.25,-0.2 -0.2,-0.65 l -7.8,-6.65 -3.8,-2.75 -0.3,-0.2 3,0.55 1.35,0.5 1.35,0.4 H 20.9 Q 21.05,10.1 20.85,10.1 L 18.95,8.45 17.65,7.4 Q 16.2,6.5 13.45,6.1 L 11.2,6 q -4.95,0.2 -8.8,5.05 -0.9,1.05 -1.2,2 -0.25,0.8 -0.25,2.5 0.1,2.5 0.45,3.7 l 0.3,0.7 q 0.2,1.7 0.9,3.1 0.25,0.6 1.4,2.2 l 1.8,2 Q 7.5,28.7 9.95,28.9 L 13.1,28.55 24.4,27.6 q 0.45,0 0.35,-0.25 l -0.2,-0.1 -2.5,-0.25 -2.5,-0.15 -3.1,-0.3 q 2.35,-2.1 3.35,-5.75 m 16.4,2.5 -1.4,-0.6 Q 33.9,22 33.55,20.65 l -0.35,-2.4 q -0.2,-1.1 -0.7,-1.4 -0.7,-0.4 -1.4,0.3 -0.5,0.55 -0.65,1.4 -0.5,1.9 -0.25,3.7 0.3,2 1.4,3.35 1.5,1.8 3.95,2.35 l 4.6,-0.25 2.1,-0.85 Q 45,25.1 45.7,21 46,18.95 45.6,17.9 q -0.65,-1.8 -2.15,-2.1 -0.8,-0.15 -1.55,0.3 -0.75,0.45 -0.85,1.2 l 0.05,1.2 q 0.35,2.35 -0.8,3.7 -0.7,0.85 -1.85,1.1 -1.1,0.3 -2.25,0 m 18.55,-1.5 q 0.2,2.25 2.15,3.95 l 0.45,0.4 -3.1,0.15 -3.65,0.2 -0.3,0.05 -0.1,0.3 8.95,0.95 1.85,0.15 2.9,-0.15 1,-0.35 1.3,-0.45 q 2.55,-1.05 4.1,-3.15 0.9,-1.05 1.7,-3.05 l 0.7,-2.45 Q 72.9,17 72.75,15.4 l -0.3,-1.75 Q 72.75,11.15 70.7,8.2 L 68.95,6.15 Q 66.7,4.1 63.65,3.95 60.5,3.85 58.15,5.6 L 56.05,7.55 54,9.6 53.7,10.05 q -0.1,0.4 0.2,0.45 0.2,0.1 0.5,-0.2 Q 56.7,8.1 58.45,7.35 59.65,6.8 60.9,6.7 L 59.95,7.05 Q 58,7.85 56.7,9.4 l -0.55,0.7 -0.7,0.6 Q 54,12.05 51.5,15.15 l -3.95,4.45 q -0.45,0.55 -0.25,0.8 l 0.45,0.1 0.35,-0.3 6.3,-5.45 v 1.8 l -1.9,1.45 -0.6,0.55 -0.7,0.9 -0.3,0.15 -0.05,0.3 q 0.1,0.2 0.45,-0.15 l 1.25,-0.5 q 0.85,-0.2 2.1,-1 h 0.05 l 0.05,0.45 v 3.1 m 7.35,0.55 -0.6,-0.05 -0.75,-0.4 -0.65,-0.65 -0.2,-0.8 -0.65,-1.55 -0.2,-0.4 -0.1,-0.6 q -0.1,-1.25 0.1,-2.3 1.2,-0.95 1.65,-1.9 V 13.2 L 60.35,13.1 H 60.2 L 60.25,13 q 0.85,-1.2 2.1,-1.35 l 1.65,0.1 q 1.55,0.4 2.2,1.1 l 0.45,0.75 q 0.8,1.55 0.95,3 l 0.05,0.9 -0.2,0.65 -0.6,1.4 -1.55,1.8 -0.8,0.6 q -0.85,0.5 -2.4,0.4"
         fill="#999999"
         fill-rule="evenodd"
         stroke="none"
         id="path8" />
      <path
         d="m 62.1,22.35 q 1.55,0.1 2.4,-0.4 l 0.8,-0.6 1.55,-1.8 0.6,-1.4 0.2,-0.65 -0.05,-0.9 q -0.15,-1.45 -0.95,-3 L 66.2,12.85 q -0.65,-0.7 -2.2,-1.1 l -1.65,-0.1 Q 61.1,11.8 60.25,13 l -0.05,0.1 h 0.15 l 0.35,0.1 v 0.5 q -0.45,0.95 -1.65,1.9 -0.2,1.05 -0.1,2.3 l 0.1,0.6 0.2,0.4 0.65,1.55 0.2,0.8 0.65,0.65 0.75,0.4 0.6,0.05 M 54.75,21.8 V 18.7 L 54.7,18.25 h -0.05 q -1.25,0.8 -2.1,1 l -1.25,0.5 q -0.35,0.35 -0.45,0.15 l 0.05,-0.3 0.3,-0.15 0.7,-0.9 0.6,-0.55 1.9,-1.45 v -1.8 l -6.3,5.45 -0.35,0.3 -0.45,-0.1 q -0.2,-0.25 0.25,-0.8 l 3.95,-4.45 q 2.5,-3.1 3.95,-4.45 l 0.7,-0.6 0.55,-0.7 Q 58,7.85 59.95,7.05 L 60.9,6.7 Q 59.65,6.8 58.45,7.35 56.7,8.1 54.4,10.3 54.1,10.6 53.9,10.5 53.6,10.45 53.7,10.05 L 54,9.6 56.05,7.55 58.15,5.6 q 2.35,-1.75 5.5,-1.65 3.05,0.15 5.3,2.2 L 70.7,8.2 q 2.05,2.95 1.75,5.45 l 0.3,1.75 Q 72.9,17 72.7,18.35 L 72,20.8 q -0.8,2 -1.7,3.05 -1.55,2.1 -4.1,3.15 l -1.3,0.45 -1,0.35 -2.9,0.15 -1.85,-0.15 -8.95,-0.95 0.1,-0.3 0.3,-0.05 3.65,-0.2 3.1,-0.15 -0.45,-0.4 Q 54.95,24.05 54.75,21.8 M 36.2,23.3 q 1.15,0.3 2.25,0 1.15,-0.25 1.85,-1.1 1.15,-1.35 0.8,-3.7 l -0.05,-1.2 q 0.1,-0.75 0.85,-1.2 0.75,-0.45 1.55,-0.3 1.5,0.3 2.15,2.1 0.4,1.05 0.1,3.1 -0.7,4.1 -3.45,5.85 l -2.1,0.85 -4.6,0.25 Q 33.1,27.4 31.6,25.6 q -1.1,-1.35 -1.4,-3.35 -0.25,-1.8 0.25,-3.7 0.15,-0.85 0.65,-1.4 0.7,-0.7 1.4,-0.3 0.5,0.3 0.7,1.4 l 0.35,2.4 Q 33.9,22 34.8,22.7 l 1.4,0.6 M 19.8,20.8 q -1,3.65 -3.35,5.75 l 3.1,0.3 2.5,0.15 2.5,0.25 0.2,0.1 q 0.1,0.25 -0.35,0.25 L 13.1,28.55 9.95,28.9 Q 7.5,28.7 5.8,27.25 l -1.8,-2 q -1.15,-1.6 -1.4,-2.2 -0.7,-1.4 -0.9,-3.1 l -0.3,-0.7 q -0.35,-1.2 -0.45,-3.7 0,-1.7 0.25,-2.5 0.3,-0.95 1.2,-2 Q 6.25,6.2 11.2,6 l 2.25,0.1 q 2.75,0.4 4.2,1.3 l 1.3,1.05 1.9,1.65 q 0.2,0 0.05,0.15 h -0.15 l -1.35,-0.4 -1.35,-0.5 -3,-0.55 0.3,0.2 3.8,2.75 7.8,6.65 q 0.45,0.45 0.2,0.65 l -0.4,0.05 q -2.85,-0.8 -6.7,-3.05 l 0.15,1.85 1.75,0.9 2.9,1.15 2.6,0.95 v 0.25 l -0.2,0.1 -0.45,-0.1 h -0.6 l -1.4,-0.2 -1.8,-0.1 -3.1,-0.4 -0.1,0.35 m -10.75,0.8 0.5,0.7 0.4,0.4 0.4,0.15 1.85,0.35 0.95,-0.1 0.3,-0.45 0.45,-0.5 L 14.65,20.1 15,18.25 14.7,16.85 14.15,15.9 13.1,14.7 q -0.6,-0.45 -1.9,-0.65 -0.75,-0.2 -1.1,0 l -0.4,0.3 q -1.05,0.85 -1.45,1.6 -0.5,0.95 -0.5,2.35 0,0.65 0.15,1.25 0.15,0.65 1.15,2.05"
         fill="#ffffff"
         fill-rule="evenodd"
         stroke="none"
         id="path9" />
      <path
         d="M 0.4,-0.4 H 76 V 40.8 H 0.4 Z"
         fill="none"
         stroke="#5f645e"
         stroke-linecap="round"
         stroke-linejoin="round"
         stroke-opacity="0.498039"
         stroke-width="1"
         id="path10" />
      <path
         d="M 62.55,13.3 62.45,13 61.75,12.2 Q 61.4,11.9 60.8,11.9 l -0.05,-0.05 -0.6,0.15 -0.4,0.25 -0.25,0.3 -0.25,0.4 -0.1,0.35 -0.1,0.45 0.15,0.65 0.45,0.6 0.25,0.2 0.55,0.2 0.25,0.05 q 0.75,0.1 1.35,-0.5 l 0.2,-0.25 0.1,-0.05 0.2,-0.65 v -0.7 m 3.65,-0.85 0.25,-0.6 0.05,-0.5 -0.15,-0.6 -0.4,-0.55 -0.35,-0.3 -1.5,-0.15 -0.8,0.5 q -0.3,0.3 -0.45,0.95 v 0.5 l 0.1,0.45 0.35,0.5 0.35,0.3 0.75,0.3 0.4,0.05 0.7,-0.2 0.3,-0.2 0.4,-0.45 m -27,-5 1.05,0.05 0.4,-0.3 2.65,-1.65 q 0.8,-0.4 1.25,-0.45 0.7,-0.1 1.2,0.4 l 0.35,1.1 -0.05,5.9 0.4,2.05 q 0.15,1.9 -0.15,3.25 -0.3,1.7 -1.35,2.95 L 43,22.4 l 1.85,-0.25 3.2,-0.4 1.9,-0.25 1.45,-0.4 3.3,-0.45 1.95,-0.1 -0.15,-0.6 -0.2,-2.1 -0.2,-1.6 q -0.15,-2.45 1.1,-4.5 1.2,-2.1 3.4,-3.1 L 62.15,8.1 q 2,-0.3 4.15,0.5 2.65,1.05 4.2,3.4 1.55,2.4 1.3,5.25 l -0.75,3 -0.85,1.9 -1.15,1.3 -1.55,1.25 -0.05,0.05 q -0.85,0.75 -2.4,1.1 l -2.6,0.4 -2.05,0.05 -7.85,-0.25 -1.7,-0.2 -1.15,-0.25 -3.55,-0.4 -0.3,-0.05 -4.35,0.15 h -0.2 l 0.2,0.85 0.15,0.6 0.15,0.3 h -0.05 l 2.1,8.05 q 1.1,-1.45 2.05,-1.9 0.7,-0.4 2.05,-0.5 l 1.95,0.05 q 0.65,0.2 1.45,0.7 l 1.4,0.9 1.7,0.7 1.25,0.1 1.1,-0.45 q 1.15,-0.65 1.2,-1.6 l -0.2,-1.25 q -0.05,-0.8 0.6,-1.5 0.65,-0.55 1.55,-0.4 1.05,0.15 1.5,1.25 0.4,0.9 0.25,2.05 -0.25,2.35 -2.1,3.8 l -2.3,1.25 -1.4,0.45 -1.75,-0.15 -1.5,-0.35 -2.8,-1.95 Q 49.2,35.65 48.8,35.5 l -1.1,-0.2 -1.35,0.1 q -0.5,0.15 -1.1,0.7 l -0.9,1 0.25,1.8 -0.3,1.15 H 28.85 Q 28.8,39.25 29.2,38.15 29.85,36.2 30.85,34 l 1.1,-2.7 1.7,-3.85 0.8,-1.8 h -0.6 L 29.5,25.8 29.2,25.85 25.7,26.5 24.55,26.85 22.9,27.15 15.1,27.9 13,28 10.35,27.75 Q 8.8,27.5 7.9,26.8 L 7.85,26.75 6.25,25.6 5,24.4 Q 4.55,23.85 4.05,22.55 3.25,20.7 3.1,19.6 2.65,16.8 4.05,14.3 5.45,11.85 8,10.6 10.1,9.65 12.1,9.85 l 1.65,0.45 q 2.25,0.85 3.6,2.9 1.35,1.95 1.35,4.4 l -0.1,1.6 -0.05,2.1 -0.1,0.6 h 1.95 l 3.3,0.25 1.5,0.3 1.9,0.1 3.2,0.2 2.25,0.15 -0.7,-0.4 -1.55,-1.25 q -1,-1.35 -1.15,-3.35 -0.05,-1.4 0.4,-3.5 l 0.2,-0.75 -0.1,-1.05 -0.15,-3.95 0.1,-1.2 q 0.3,-0.8 0.65,-1.05 0.45,-0.45 1.2,-0.35 0.25,0.05 1.5,0.8 l 1.45,1 0.25,0.25 Q 36.75,7.35 39.2,7.45 M 69.35,12.6 68.7,12.4 h -0.4 l -0.45,0.15 -0.4,0.25 -0.15,0.15 -0.1,0.15 -0.15,0.45 -0.05,0.6 0.1,0.3 0.15,0.3 0.1,0.15 0.25,0.2 0.9,0.35 0.6,-0.15 0.65,-0.5 L 69.9,14.5 70,14 v -0.4 l -0.05,-0.1 v -0.15 l -0.1,-0.1 -0.05,-0.1 -0.45,-0.55 m -5.5,2.5 -0.8,0.45 -0.6,0.65 q -1.15,1.75 -0.35,3.35 l 1.25,1.35 q 1.25,0.95 2.55,0.75 l 0.8,-0.2 1.5,-1.1 q 0.65,-0.85 0.5,-1.75 0,-2 -1.8,-3.1 -1.45,-0.9 -3.05,-0.4 m -51.8,0 0.05,0.7 0.25,0.6 0.1,0.05 0.2,0.25 q 0.65,0.55 1.45,0.4 l 0.25,-0.05 0.5,-0.25 0.25,-0.2 0.4,-0.65 0.05,-0.2 0.05,-0.45 -0.1,-0.45 -0.15,-0.35 -0.25,-0.35 -0.3,-0.3 -0.4,-0.2 -0.6,-0.1 -0.05,0.05 q -0.65,0 -1,0.35 -0.45,0.3 -0.6,0.85 l -0.1,0.3 m -1.2,1.85 q -1.6,-0.4 -3,0.6 -1.7,1.2 -1.6,3.2 -0.05,0.9 0.65,1.7 0.55,0.55 1.55,1 l 0.8,0.15 q 1.3,0.15 2.5,-0.9 l 1.15,-1.4 q 0.7,-1.65 -0.55,-3.35 l -0.65,-0.6 -0.85,-0.4 M 5.25,14.85 4.8,15.4 v 0.1 l -0.1,0.1 v 0.15 l -0.05,0.1 v 0.4 l 0.15,0.5 0.2,0.3 0.3,0.25 0.35,0.2 0.6,0.1 L 6.7,17.45 7.15,17.2 7.35,17 7.45,16.85 7.6,16.55 7.65,16.25 7.6,15.65 7.55,15.5 7.4,15.2 7.3,15.05 7.15,14.9 6.7,14.7 6.25,14.55 5.85,14.6 5.5,14.7 5.25,14.85 m 3.1,-0.35 0.45,0.4 0.3,0.2 0.7,0.15 0.4,-0.1 0.75,-0.35 0.3,-0.3 0.2,-0.3 0.1,-0.25 0.1,-0.45 L 11.6,13 11.1,12.1 10.8,11.9 10.25,11.65 Q 9.5,11.45 8.8,11.9 L 8.45,12.2 8.1,12.8 8,13.4 l 0.05,0.5 0.3,0.6 m 23,0.9 q -0.3,0.75 0.2,1.5 0.3,0.5 0.9,0.7 0.6,0.2 1.15,0 l 0.9,-0.75 0.25,-1.1 q -0.05,-0.6 -0.55,-1.05 -0.45,-0.4 -1.05,-0.5 -0.55,-0.05 -1.1,0.3 -0.5,0.35 -0.7,0.9 m 12.8,-1.5 q -0.65,-0.7 -1.7,-0.45 -1,0.25 -1.25,1.2 -0.35,1 0.35,1.75 0.55,0.65 1.3,0.65 1,0 1.5,-0.8 0.55,-0.75 0.2,-1.7 l -0.4,-0.65 m -6,3.25 q -0.2,0 -0.65,0.45 -0.5,0.5 -0.95,0.35 L 36.1,17.7 36.05,17.2 v -0.35 l -0.2,0.05 q -0.5,0.5 -0.25,1.2 l 0.4,0.55 q 0.9,0.8 1.65,0.25 l 0.35,-0.2 0.6,0.15 1.7,-0.1 q 0.85,-0.45 0.85,-1.55 l -0.3,-0.6 -0.45,-0.05 -0.3,0.3 -0.05,0.45 -0.45,0.55 -0.65,-0.05 q -0.45,-0.65 -0.8,-0.65"
         fill="#000000"
         fill-rule="evenodd"
         stroke="none"
         id="path11" />
      <path
         d="m 66.2,12.45 -0.4,0.45 -0.3,0.2 -0.7,0.2 -0.4,-0.05 -0.75,-0.3 -0.35,-0.3 -0.35,-0.5 -0.1,-0.45 V 11.2 Q 63,10.55 63.3,10.25 l 0.8,-0.5 1.5,0.15 0.35,0.3 0.4,0.55 0.15,0.6 -0.05,0.5 -0.25,0.6 M 62.55,13.3 V 14 l -0.2,0.65 -0.1,0.05 -0.2,0.25 q -0.6,0.6 -1.35,0.5 L 60.45,15.4 59.9,15.2 59.65,15 59.2,14.4 l -0.15,-0.65 0.1,-0.45 0.1,-0.35 0.25,-0.4 0.25,-0.3 0.4,-0.25 0.6,-0.15 0.05,0.05 q 0.6,0 0.95,0.3 l 0.7,0.8 0.1,0.3 m 1.3,1.8 q 1.6,-0.5 3.05,0.4 1.8,1.1 1.8,3.1 0.15,0.9 -0.5,1.75 l -1.5,1.1 -0.8,0.2 q -1.3,0.2 -2.55,-0.75 L 62.1,19.55 q -0.8,-1.6 0.35,-3.35 l 0.6,-0.65 0.8,-0.45 m 5.5,-2.5 0.45,0.55 0.05,0.1 0.1,0.1 V 13.5 L 70,13.6 V 14 l -0.1,0.5 -0.15,0.3 -0.65,0.5 -0.6,0.15 -0.9,-0.35 -0.25,-0.2 -0.1,-0.15 -0.15,-0.3 -0.1,-0.3 0.05,-0.6 0.15,-0.45 0.1,-0.15 0.15,-0.15 0.4,-0.25 0.45,-0.15 h 0.4 l 0.65,0.2 m -31.2,4.55 q 0.35,0 0.8,0.65 l 0.65,0.05 0.45,-0.55 0.05,-0.45 0.3,-0.3 0.45,0.05 0.3,0.6 q 0,1.1 -0.85,1.55 L 38.6,18.85 38,18.7 37.65,18.9 Q 36.9,19.45 36,18.65 L 35.6,18.1 q -0.25,-0.7 0.25,-1.2 l 0.2,-0.05 v 0.35 l 0.05,0.5 0.45,0.25 Q 37,18.1 37.5,17.6 q 0.45,-0.45 0.65,-0.45 m 6,-3.25 0.4,0.65 q 0.35,0.95 -0.2,1.7 -0.5,0.8 -1.5,0.8 -0.75,0 -1.3,-0.65 -0.7,-0.75 -0.35,-1.75 0.25,-0.95 1.25,-1.2 1.05,-0.25 1.7,0.45 m -12.8,1.5 q 0.2,-0.55 0.7,-0.9 0.55,-0.35 1.1,-0.3 0.6,0.1 1.05,0.5 0.5,0.45 0.55,1.05 l -0.25,1.1 -0.9,0.75 q -0.55,0.2 -1.15,0 -0.6,-0.2 -0.9,-0.7 -0.5,-0.75 -0.2,-1.5 M 8.35,14.5 8.05,13.9 8,13.4 8.1,12.8 8.45,12.2 8.8,11.9 q 0.7,-0.45 1.45,-0.25 l 0.55,0.25 0.3,0.2 0.5,0.9 0.05,0.5 -0.1,0.45 -0.1,0.25 -0.2,0.3 -0.3,0.3 -0.75,0.35 -0.4,0.1 L 9.1,15.1 8.8,14.9 8.35,14.5 m -3.1,0.35 0.25,-0.15 0.35,-0.1 0.4,-0.05 0.45,0.15 0.45,0.2 0.15,0.15 0.1,0.15 0.15,0.3 0.05,0.15 0.05,0.6 -0.05,0.3 -0.15,0.3 L 7.35,17 7.15,17.2 6.7,17.45 6.25,17.6 5.65,17.5 5.3,17.3 5,17.05 4.8,16.75 4.65,16.25 v -0.4 L 4.7,15.75 V 15.6 l 0.1,-0.1 v -0.1 l 0.45,-0.55 m 5.6,2.1 0.85,0.4 0.65,0.6 q 1.25,1.7 0.55,3.35 l -1.15,1.4 q -1.2,1.05 -2.5,0.9 l -0.8,-0.15 q -1,-0.45 -1.55,-1 -0.7,-0.8 -0.65,-1.7 -0.1,-2 1.6,-3.2 1.4,-1 3,-0.6 m 1.2,-1.85 0.1,-0.3 q 0.15,-0.55 0.6,-0.85 0.35,-0.35 1,-0.35 l 0.05,-0.05 0.6,0.1 0.4,0.2 0.3,0.3 0.25,0.35 0.15,0.35 0.1,0.45 -0.05,0.45 -0.05,0.2 -0.4,0.65 -0.25,0.2 -0.5,0.25 -0.25,0.05 q -0.8,0.15 -1.45,-0.4 l -0.2,-0.25 -0.1,-0.05 -0.25,-0.6 -0.05,-0.7"
         fill="#ffffff"
         fill-rule="evenodd"
         stroke="none"
         id="path12" />
    </g>
    <g
       id="shape2"
       transform="translate(2,2.05)">
      <path
         d="M -0.5,-0.4 V -0.55 H 75.1 V -0.4 40.8 H -0.5 Z"
         fill="none"
         stroke="#000000"
         stroke-linecap="round"
         stroke-linejoin="round"
         stroke-width="3"
         id="path13" />
    </g>
  </defs>
</svg>
