<?xml version="1.0" encoding="UTF-8" standalone="no"?>
<svg
   ffdec:objectType="frame"
   height="60.549999"
   width="67.099998"
   version="1.1"
   id="svg7"
   sodipodi:docname="445.svg"
   xmlns:inkscape="http://www.inkscape.org/namespaces/inkscape"
   xmlns:sodipodi="http://sodipodi.sourceforge.net/DTD/sodipodi-0.dtd"
   xmlns:xlink="http://www.w3.org/1999/xlink"
   xmlns="http://www.w3.org/2000/svg"
   xmlns:svg="http://www.w3.org/2000/svg"
   xmlns:ffdec="https://www.free-decompiler.com/flash">
  <sodipodi:namedview
     id="namedview7"
     pagecolor="#ffffff"
     bordercolor="#000000"
     borderopacity="0.25"
     inkscape:showpageshadow="2"
     inkscape:pageopacity="0.0"
     inkscape:pagecheckerboard="0"
     inkscape:deskcolor="#d1d1d1"
     fit-margin-top="5"
     fit-margin-left="5"
     fit-margin-right="5"
     fit-margin-bottom="5" />
  <g
     transform="translate(1.5,1.5)"
     id="g3">
    <use
       ffdec:characterId="516"
       height="57.549999"
       width="64.099998"
       xlink:href="#shape0"
       id="use1" />
    <use
       ffdec:characterId="943"
       height="54.299999"
       transform="translate(-0.6,3.4)"
       width="63"
       xlink:href="#shape1"
       id="use2" />
    <use
       ffdec:characterId="518"
       height="60.549999"
       transform="translate(-1.5,-1.5)"
       width="67.099998"
       xlink:href="#shape2"
       id="use3" />
  </g>
  <defs
     id="defs7">
    <g
       id="shape0">
      <path
         d="M 53.6,0 H 64.1 V 57.55 H 53.6 28.25 0 V 0 H 28.25 53.6 V 57.55 0 M 28.25,0 V 57.55 0"
         fill="#ffffff"
         fill-rule="evenodd"
         stroke="none"
         id="path3" />
    </g>
    <g
       id="shape1"
       transform="translate(0.6,-3.4)">
      <path
         d="m 46.85,36.15 0.85,0.45 0.35,0.3 0.55,-0.45 q 0.85,-0.45 1.55,0.25 0.7,0.7 0.25,1.55 l -0.3,0.5 0.6,0.6 q 0.3,0.55 0,1.3 l -0.6,1.2 -2.55,3.9 -0.7,0.8 -0.45,0.2 -1.3,2.55 q -0.7,1.25 -1.45,1.5 L 42.4,50.7 42.15,50.6 H 41.1 q -0.85,-0.15 -1.2,-1 l -1.95,0.15 Q 36.9,49.3 36.75,48.3 l -1.3,-0.25 q -0.55,-0.45 -0.55,-1.2 0,-0.7 0.8,-1.6 l 3.5,-5.2 3.55,-5.15 q 0.5,-0.6 0.85,-0.65 0.25,-0.1 0.5,0.15 l 0.15,0.45 q 1.2,-0.25 2,0.65 l 0.6,0.65 m -4.4,-3.6 q 0.2,0.3 -0.2,1.05 l -7.45,11.9 -1.05,1.15 -1.6,0.05 Q 31.4,46.25 31.3,45.4 31.25,44.45 32.6,43.1 l 3.65,-4.25 2.2,-3.1 2.45,-2.9 0.75,-0.55 q 0.55,-0.2 0.8,0.25 m -29.5,-23.9 3.7,15.75 q -0.25,0.2 -0.5,-0.2 L 15.1,22.3 10.75,12.25 9.65,9.8 9.05,8.45 Q 8.9,7.8 9.3,7.15 9.65,6.5 10.3,6.3 l 1.35,0.05 q 0.7,0.3 1,0.95 l 0.3,1.35 m 5.5,4.45 -0.35,1.75 -0.3,1.1 -0.4,2.1 -0.25,0.35 q -0.3,0 -0.3,-0.4 L 16.2,15.15 Q 15.95,14.3 16,13.6 q 0.1,-0.95 0.8,-1.25 0.45,-0.25 1,0 0.55,0.25 0.65,0.75 m -15,-9.15 0.9,1.7 2.1,3.55 6.8,12.65 q 0.35,0.55 0.05,0.8 -0.25,0.25 -0.8,-0.2 L 8.8,17.9 0.9,7.2 0.15,6.05 Q -0.1,5.4 0.15,4.75 0.4,4.05 1,3.7 1.55,3.35 2.25,3.4 q 0.7,0.1 1.2,0.55 m 2.2,14.2 8.2,6.9 0.3,0.45 q 0.2,0.3 -0.1,0.5 L 13.6,25.95 12.3,25.3 Q 11,24.55 8.3,23.4 L 4.3,21.5 1.95,20.2 0.25,19.25 -0.4,18.05 Q -0.5,17.3 -0.15,16.7 0.2,16.05 0.9,15.8 l 1.4,-0.05 1.35,0.9 2,1.5 m 2.75,9.7 -1.55,0.75 -0.35,0.3 -0.75,0.45 -1.1,0.3 Q 4.1,29.7 3.6,29.35 3.15,29 3,28.45 2.85,27.95 3.05,27.35 3.25,26.8 3.7,26.5 L 4.2,26.25 5.05,26 l 1.45,0.1 1.25,-0.05 0.6,0.1 2.25,0.4 q 0.4,0.15 0.4,0.3 l -0.2,0.35 -1.3,0.3 -0.6,0.05 -0.5,0.3 m 21.95,14.35 -1.1,1.3 q -0.9,0.6 -1.85,0 -0.95,-0.6 -0.7,-1.7 0.2,-0.6 0.7,-1.15 l 0.5,-0.5 -1.1,-0.1 -0.6,-0.4 -0.7,1.2 -1.15,1.25 -1.65,0.3 -0.7,-0.45 q -0.3,-0.4 -0.25,-0.8 l -1.45,-0.1 -1.45,-0.35 -0.9,0.3 -0.8,0.4 Q 15.7,42.05 14.5,41 13.25,39.95 13.6,38.45 12.95,38 12.65,37.2 q -0.3,-0.8 -0.1,-1.55 0.1,-0.55 0.75,-1.3 0.95,-1.1 2.35,-1.55 l 2.85,-0.2 0.5,0.05 0.55,-0.35 q 0.65,-0.6 1.65,-0.5 h 0.65 l 0.5,-0.4 q 0.5,-0.6 1.35,-0.8 0.8,-0.25 1.55,0 l 0.7,0.2 0.75,-0.15 q 1.2,-0.35 2.1,0.5 0.9,0.9 0.65,2.1 l -0.4,1.05 q 3.5,-3.6 6.8,-5.75 Q 36.65,28.1 37,28 l 0.65,0.15 q 0.25,0.35 0,0.7 l -0.45,0.5 -1.85,1.85 q -3.1,3.5 -4.45,5.45 l -1.25,1.75 1,-1.05 3.7,-4.2 q 2.2,-2.5 4.05,-3.8 0.6,-0.5 1.1,-0.4 0.6,0.15 0.6,0.85 l -0.4,0.7 -0.9,1.2 -5.75,7.25 q -1.9,2.1 -2.7,3.25"
         fill="#999999"
         fill-rule="evenodd"
         stroke="none"
         id="path4" />
      <path
         d="m 20.7,16.1 0.4,-0.45 q 2.3,-2.7 3.9,-3.95 l 1.7,-1.2 2.2,-1.35 1.55,-0.7 q 2.85,-1 5.8,-0.5 l 2.15,0.5 q 1.3,0.35 1.85,0.65 l 1.5,0.85 1.4,1 q 3.1,2.3 4.4,6.25 1.2,3.85 -0.05,7.6 l -0.6,1.5 -0.35,0.5 -0.4,0.75 -0.4,0.55 -1.05,1 -0.4,0.25 -0.45,0.4 -0.65,0.35 -0.2,0.1 1.3,1.1 3.15,2.2 6.3,4.85 q 0.95,0.75 1.1,1.3 0.15,0.7 -0.45,1.85 l -0.25,0.5 1.05,0.5 2.3,1.2 3.25,2.35 1.15,1 q 0.4,0.55 0.45,1.2 0.15,1.15 -0.5,2.3 L 60.7,51.7 Q 58.95,53 57.4,53 55.7,53.05 53.8,51.8 l -1.3,-1.15 -1.15,-1.75 -1.25,-2 q -2.25,2.05 -5.2,3.9 -1.6,1.05 -2.75,1.2 l -2.8,-0.3 Q 34.4,50.4 30.5,47.4 26.4,44.15 24.45,39.75 L 24.4,39.55 23.95,38.2 Q 23.8,37.25 24.1,36.55 l 0.1,-0.15 h 0.05 L 24.5,36 24.8,35.7 v -0.05 l 0.75,-0.75 3.6,-3.05 -3.1,1.75 L 26,33.65 24.8,34.8 24.65,35 24.5,34.75 22.95,32.6 l -1,-0.75 h -0.1 l -0.3,0.35 -2.15,2.2 -0.7,0.7 -0.8,0.85 q -0.6,0.4 -1.3,-0.2 l -0.95,-0.9 -0.2,-0.3 q -0.2,0 -0.3,0.15 v 0.15 l 0.6,1.05 v 0.05 l 0.1,0.15 0.6,1.35 0.05,0.1 0.25,0.3 q 0.5,0.3 1.05,0 l 1.95,-1.8 1.05,-0.8 0.3,-0.2 h 0.05 l 1.35,3.6 0.15,0.3 0.2,0.45 0.8,1.4 0.05,0.15 0.05,0.05 0.15,0.3 0.05,0.3 0.2,0.2 q 0.8,1.65 1.7,2.65 l -5.5,5.3 -5.05,5.1 -0.55,0.6 q -0.3,0.35 -0.65,1.2 l -1.45,0.95 -1.8,0.05 -3.5,-0.4 -2,-0.4 L 3.3,56.5 1.4,56.4 0.05,55.55 -0.6,54.1 q -0.1,-0.8 0.45,-2.3 l 2.65,-7.65 1.95,-4.2 2.6,-4.9 2.15,-3.4 1.8,-3.1 q 2.8,-4.5 9.7,-12.45 m 21.95,7.8 0.75,-0.6 0.35,-0.6 0.3,-1 -0.1,-0.75 -0.3,-0.6 L 43,19.75 42.55,19.5 42,19.4 41,19.35 40.95,19.4 q -1.3,-0.1 -2,1.05 -0.25,0.45 -0.25,1 v 0.4 q 0.05,0.5 0.25,0.85 l 1.55,1.05 0.8,0.6 0.55,-0.05 0.8,-0.4 m -3.8,-11.85 -1.2,-0.25 -1.8,0.25 q -1.6,0.6 -2,2.3 l -0.1,1.3 0.05,0.45 q 0.4,1.75 2.05,2.3 1.55,0.45 3.05,-0.5 1.85,-1.15 1.75,-3.4 l -0.1,-0.45 -0.4,-0.95 q -0.55,-0.75 -1.3,-1.05 m 14.2,14.25 q -0.25,0.1 -0.35,0.25 l -0.05,0.35 0.05,2.15 q 0.1,0.85 -0.15,1.25 -0.35,0.6 -1.85,1.05 -0.85,0.25 -1.95,0.85 L 48,32.6 46.6,32.55 q -0.7,-0.3 -1,-1 -0.25,-0.65 0,-1.4 0.2,-0.75 0.85,-1.1 l 2.85,-0.95 0.05,-1.6 0.2,-1.1 q 0.35,-0.85 1.25,-0.85 h 0.85 l 1.05,-0.2 2.3,-0.4 0.9,0.05 q 0.55,0.2 0.45,0.7 l -0.4,0.5 -0.7,0.2 -1.1,0.4 -1.1,0.5 M 55.3,29.05 56.45,29 h 1.75 l 0.35,0.15 q 0.35,0.35 0,0.8 l -0.7,0.45 -1.45,0.7 -0.1,3.15 -0.15,0.7 -0.85,0.8 -0.85,0.15 -1,0.35 Q 52,36.65 51.2,35.75 50.7,35.3 50.6,34.6 q -0.05,-0.75 0.3,-1.3 0.35,-0.55 1,-0.8 l 1.3,-0.1 h 0.3 l 0.05,-0.95 0.2,-1.25 q 0.15,-0.65 0.8,-1 l 0.75,-0.15 m -25.05,13.75 2.3,1.95 3.1,2.15 3.9,1.4 2.05,0.35 1.55,-0.5 q 5.3,-2.65 8.3,-7.7 l -7.95,-5.85 -2.35,-1.85 -2.4,-2.6 -2.3,-1.95 q -1.25,1.6 -4.4,4.25 -3.15,2.6 -4.4,4.2 l -0.4,0.7 0.15,0.95 q 1,2.65 2.85,4.5 m -1.7,-31.25 -0.6,0.2 -0.45,0.3 -0.35,0.3 q -0.35,0.5 -0.55,1.3 l -0.1,0.45 q -0.1,0.85 0.5,1.6 l 0.45,0.4 0.55,0.4 1.75,0.15 q 0.85,-0.25 1.3,-0.9 0.45,-0.55 0.55,-1.45 v -0.4 l -0.3,-1.05 -0.6,-0.7 q -0.85,-0.85 -2.15,-0.6 m -13.4,0.2 -0.85,0.75 -0.55,0.3 -1,0.9 -0.9,0.75 0.45,-0.15 0.95,-0.8 1.2,0.15 q 0.5,0.4 0.65,1.1 0.15,0.65 -0.1,1.4 l -0.5,0.9 -1,1.35 -1.4,1.1 q -1.45,0.95 -2.9,1 Q 7.55,20.65 6.35,19.55 5.4,18.7 5.25,17.4 5.05,16.3 5.4,14.95 5.65,13.85 6.2,13.25 L 8.25,11.5 Q 9.05,11 9.65,11 l 0.5,0.05 q 0.9,-0.1 1.6,0.5 l 0.3,0.3 0.4,-0.3 0.1,-0.2 0.55,-0.7 1.65,-1.85 q -0.3,-0.5 -0.3,-1.2 0.1,-0.7 0.6,-1.25 0.5,-0.6 1.2,-0.7 L 17.6,5.9 18.2,6.4 19.55,6.25 Q 21.05,6.6 21.4,8 21.65,8.85 21.2,9.75 20.8,10.6 19.95,10.9 l -1.45,0.1 -1.15,-0.65 -2.2,1.4 M 34.75,22.8 34.65,22.1 34.35,21.2 33.9,20.55 33.45,19.9 Q 32.5,18.95 31.5,18.75 l -1.15,-0.1 -1.1,0.05 q -0.75,0.15 -1.55,0.6 -1.55,0.85 -2.05,2.2 -0.35,0.75 -0.35,1.55 -0.15,0.7 0,1.45 0.2,1.05 1.1,1.75 0.95,0.75 3.45,0.85 L 31.7,27 q 1.6,-0.4 2.5,-1.85 0.6,-1.1 0.55,-2.3 L 34.8,22.8 H 34.75 M 8.65,9.2 8.7,9.55 8.65,9.9 8.45,10.45 7.8,10.4 7.4,9.85 7,8.95 Q 6.75,8.25 6.65,7.15 L 6.8,5.45 7.05,4.8 7.65,4.1 Q 8.25,3.6 9,3.85 9.8,4.1 9.95,4.9 10.2,5.6 9.75,6.3 9.15,7 9.1,7.2 L 8.95,8.05 8.7,8.75 8.65,9.2 M 11,24.45 10.4,24.3 H 9.65 L 8.6,24.55 Q 8.1,24.7 7.75,25 L 7,25.65 Q 6.15,26.35 5.15,26 4.05,25.65 3.75,24.65 3.5,23.6 4.2,22.8 4.55,22.4 5.2,22.15 L 8.6,22 l 0.75,0.3 1.25,0.15 q 0.4,0.15 1.05,0.65 l 0.65,0.4 -0.15,0.55 -0.55,0.3 -0.6,0.1 m 2.9,-5.9 q 0.65,-0.75 1.5,-0.3 0.85,0.45 0.6,1.4 l -0.5,0.75 -0.65,0.7 -0.15,0.25 v 0.4 l -0.3,0.45 -0.55,-0.1 -0.2,-0.5 q -0.25,-0.95 -0.1,-2.1 0.1,-0.65 0.35,-0.95 m 24.55,13.6 q 0.3,0.95 -0.25,1.7 l -0.8,0.6 -1,0.2 q -1.05,-0.1 -1.5,-0.95 -0.65,-1.1 0.1,-2.05 0.7,-1.05 1.9,-0.8 1.2,0.15 1.55,1.3 m -16.7,20.7 -0.1,-1 q 0.1,-0.7 0.7,-1.1 l 1.35,-0.2 0.9,0.3 0.65,-2 0.15,-0.6 q 0,-0.35 0.15,-0.7 0.25,-0.65 0.8,-1.05 l 0.5,-0.2 q 0.95,-0.25 1.65,0.3 0.7,0.45 0.85,1.3 0.1,0.9 -0.35,1.55 l -0.4,0.6 -0.65,1 -0.3,0.7 -0.3,0.85 -0.15,0.75 -0.2,0.7 q -0.3,0.7 -1.1,0.8 L 24.75,54.6 23.6,54 q -0.55,0.85 -1.3,2.8 l -0.25,0.35 Q 21.75,57.3 21.45,56.9 21.2,56.55 21.3,55.6 l 0.45,-2.75 M 28.2,56.8 28.15,55.1 V 54.75 L 28.1,53.95 Q 28.05,53.5 28.25,53.2 l 0.7,-0.45 h 0.9 L 30.05,51 v -0.7 q 0.2,-0.95 1.1,-1.3 1,-0.35 1.7,0.3 0.8,0.7 0.55,1.65 l -0.3,0.75 -0.8,3 -0.25,0.55 q -0.3,0.45 -1.1,0.35 l -1.15,-0.4 -0.5,1.6 -0.1,0.45 -0.35,0.2 -0.4,-0.1 -0.25,-0.55"
         fill="#000000"
         fill-rule="evenodd"
         stroke="none"
         id="path5" />
      <path
         d="m 38.85,12.05 q 0.75,0.3 1.3,1.05 l 0.4,0.95 0.1,0.45 q 0.1,2.25 -1.75,3.4 -1.5,0.95 -3.05,0.5 -1.65,-0.55 -2.05,-2.3 l -0.05,-0.45 0.1,-1.3 q 0.4,-1.7 2,-2.3 l 1.8,-0.25 1.2,0.25 m 3.8,11.85 -0.8,0.4 -0.55,0.05 -0.8,-0.6 -1.55,-1.05 q -0.2,-0.35 -0.25,-0.85 v -0.4 q 0,-0.55 0.25,-1 0.7,-1.15 2,-1.05 l 0.05,-0.05 1,0.05 0.55,0.1 0.45,0.25 0.65,0.6 0.3,0.6 0.1,0.75 -0.3,1 -0.35,0.6 -0.75,0.6 M 28.55,11.55 q 1.3,-0.25 2.15,0.6 l 0.6,0.7 0.3,1.05 v 0.4 q -0.1,0.9 -0.55,1.45 -0.45,0.65 -1.3,0.9 L 28,16.5 27.45,16.1 27,15.7 q -0.6,-0.75 -0.5,-1.6 l 0.1,-0.45 q 0.2,-0.8 0.55,-1.3 l 0.35,-0.3 0.45,-0.3 0.6,-0.2 m 6.2,11.3 q 0.05,1.2 -0.55,2.3 -0.9,1.45 -2.5,1.85 l -1.85,0.1 q -2.5,-0.1 -3.45,-0.85 -0.9,-0.7 -1.1,-1.75 -0.15,-0.75 0,-1.45 0,-0.8 0.35,-1.55 0.5,-1.35 2.05,-2.2 0.8,-0.45 1.55,-0.6 l 1.1,-0.05 1.15,0.1 q 1,0.2 1.95,1.15 l 0.45,0.65 0.45,0.65 0.3,0.9 0.1,0.7 v 0.05"
         fill="#ffffff"
         fill-rule="evenodd"
         stroke="none"
         id="path6" />
    </g>
    <g
       id="shape2"
       transform="translate(1.5,1.5)">
      <path
         d="M 0,23.8 V 0 H 64.1 V 23.8 57.55 H 0 Z"
         fill="none"
         stroke="#000000"
         stroke-linecap="round"
         stroke-linejoin="round"
         stroke-width="3"
         id="path7" />
    </g>
  </defs>
</svg>
