<?xml version="1.0" encoding="UTF-8" standalone="no"?>
<svg
   ffdec:objectType="frame"
   height="60.549999"
   width="67.099998"
   version="1.1"
   id="svg8"
   sodipodi:docname="168.svg"
   xmlns:inkscape="http://www.inkscape.org/namespaces/inkscape"
   xmlns:sodipodi="http://sodipodi.sourceforge.net/DTD/sodipodi-0.dtd"
   xmlns:xlink="http://www.w3.org/1999/xlink"
   xmlns="http://www.w3.org/2000/svg"
   xmlns:svg="http://www.w3.org/2000/svg"
   xmlns:ffdec="https://www.free-decompiler.com/flash">
  <sodipodi:namedview
     id="namedview8"
     pagecolor="#ffffff"
     bordercolor="#000000"
     borderopacity="0.25"
     inkscape:showpageshadow="2"
     inkscape:pageopacity="0.0"
     inkscape:pagecheckerboard="0"
     inkscape:deskcolor="#d1d1d1"
     fit-margin-top="5"
     fit-margin-left="5"
     fit-margin-right="5"
     fit-margin-bottom="5" />
  <g
     transform="translate(1.5,1.5)"
     id="g3">
    <use
       ffdec:characterId="516"
       height="57.549999"
       width="64.099998"
       xlink:href="#shape0"
       id="use1" />
    <use
       ffdec:characterId="676"
       height="58.150002"
       transform="translate(-0.75,-0.6)"
       width="64.849998"
       xlink:href="#shape1"
       id="use2" />
    <use
       ffdec:characterId="518"
       height="60.549999"
       transform="translate(-1.5,-1.5)"
       width="67.099998"
       xlink:href="#shape2"
       id="use3" />
  </g>
  <defs
     id="defs8">
    <g
       id="shape0">
      <path
         d="M 53.6,0 H 64.1 V 57.55 H 53.6 28.25 0 V 0 H 28.25 53.6 V 57.55 0 M 28.25,0 V 57.55 0"
         fill="#ffffff"
         fill-rule="evenodd"
         stroke="none"
         id="path3" />
    </g>
    <g
       id="shape1"
       transform="translate(0.75,0.6)">
      <path
         d="M 36.25,20.05 35.9,19.45 35.6,19 q -0.1,-0.3 0.3,-0.3 l 1,0.5 0.55,0.3 0.85,0.7 0.9,0.4 1.35,0.8 1.3,0.85 0.2,-1.15 q 0.1,-0.65 0.45,-0.75 0.45,-0.2 0.75,0.4 l 0.1,0.9 0.2,1.7 q 0.25,1.05 0.1,1.45 -0.35,0.8 -1.15,0.7 -0.7,-0.1 -0.9,-0.65 l -3.35,-2.7 -0.4,-0.4 -0.2,-0.25 -0.3,-0.25 -0.4,-0.55 -0.7,-0.65 m 0.1,8.15 -1.4,-1 L 32.5,25.3 30.25,24 q -4.45,-2.45 -6.6,-6.7 -0.3,-0.85 -0.05,-1.2 l 1.15,-0.05 q 1.1,0.4 2.2,1.25 l 1.55,1.35 q 1,0.85 2.95,1.85 2.35,1.15 3.1,1.65 l 1.9,1.4 1.95,1.25 1.65,0.9 0.65,1.35 q 0.1,0.85 -0.35,1.5 -0.5,0.65 -1.3,0.85 l -1.5,-0.2 -1.2,-1 M 0,47.9 h 64.1 v 9.65 H 0 V 47.9"
         fill="#999999"
         fill-rule="evenodd"
         stroke="none"
         id="path4" />
      <path
         d="m 13.45,0.3 h 0.2 l 1.5,1.45 0.8,1.65 0.2,1.7 -0.05,0.55 -0.35,2.05 0.6,0.35 0.5,0.3 4.1,2.65 0.35,0.25 1.4,1.2 L 22.95,11.9 23,11.85 Q 23.7,10.7 24.7,10.2 25.1,10 25.6,9.9 l 1.9,-0.15 1.8,0.35 1.3,0.9 2.85,3.2 1.15,1.45 q 0.45,0.85 0.35,1.75 l -0.25,0.65 -1.15,1.05 -2.2,0.2 -0.25,-0.05 -0.6,-0.2 -0.75,-0.45 Q 29.1,18.15 28.55,16.8 L 28.05,15.95 27.6,15.45 27.15,15.1 Q 27,14.95 27,15.2 l -0.25,0.6 -0.2,0.5 -0.2,0.6 0.3,0.75 0.15,1.75 0.5,0.2 2.9,1.65 1.5,0.8 1.65,0.55 0.35,0.1 0.8,0.4 0.8,0.85 q 0.4,0.8 0.15,1.6 l -0.3,0.65 q -0.55,0.9 -1.85,1.4 l -0.1,0.05 Q 31.4,28.3 30.05,27.4 l -1,-0.85 -4.6,-3.5 -0.9,-0.45 q -1.75,0.35 -3.7,-0.8 l -3.05,-2.65 -3.75,-3.8 0.1,0.35 1.35,3.2 0.35,0.6 0.05,0.05 q 0.7,1 0.8,1.95 l 0.05,0.6 -0.45,1.3 q -0.75,0.9 -1.8,0.85 -1.1,0 -1.75,-1 L 11.5,22.7 q -0.4,-1.1 -0.7,-3.05 l -0.05,-0.55 -0.5,-3.3 -0.3,-2 -0.75,0.3 -1.05,0.3 -1.4,0.15 q -1.4,0 -3.8,-1.25 L 1.15,12.15 0.9,11.8 H -0.35 V 10.85 4.3 Q 0.6,1.95 2.7,0.3 h 8.2 2.55 m 24.5,12 -1,-1.35 q -0.45,-0.8 -0.4,-1.4 0.2,-0.9 1.05,-1 l 0.85,0.05 3.25,0.2 1.6,0.1 1.8,0.05 0.7,0.1 0.65,0.6 -0.05,0.85 -0.55,0.7 -0.75,1.2 0.4,0.25 2.5,1.65 1.1,0.65 q 2.95,1.75 5.55,4.3 l 0.6,0.85 q 0.3,0.55 -0.1,0.95 -0.3,0.4 -0.8,0.3 -0.4,-0.05 -0.85,-0.4 L 51.5,19.5 49.05,18.05 46.6,16.9 44,15.2 43.6,14.85 42.25,16.9 Q 41.9,17.35 41.4,17.2 L 40.9,16.85 39.95,15.6 39.5,14.75 38.3,13 37.95,12.3 m 18,22.8 -0.35,1.15 -0.65,1.15 -0.45,0.4 q -0.65,0.75 -2,1.4 l -0.5,0.25 -0.5,0.2 0.5,1.05 q 0.4,1 0.5,3.6 0,2.5 -0.45,3.9 -0.7,2.15 -2.45,2.9 l -2.25,0.45 -2.15,0.2 -2.2,-0.1 -2.3,-0.7 q -3.05,-1.35 -3.75,-3.45 -0.3,-0.9 -0.2,-2 v -0.15 l -0.1,-0.15 -0.2,-0.55 -0.7,-0.8 -1,0.9 -0.45,0.6 -0.65,0.6 -0.55,0.35 H 32.3 L 31.25,46.05 Q 30.75,45.8 30.6,45.3 L 30.4,44.7 30.1,44.3 30,43.7 q 0,-0.75 0.15,-1.1 l 0.2,-0.65 0.45,-0.75 q 0.15,-0.2 0.4,-0.3 0.35,0 0.4,0.2 l -0.1,0.5 -0.35,0.4 q -0.2,0.4 0.05,1.3 v 0.35 l 0.3,0.25 0.55,0.6 0.5,-0.1 1.2,-1.8 q 0.4,-0.6 0.7,-0.85 l 0.85,-0.45 0.8,-0.3 0.6,0.15 q 0.7,0.25 1.15,0.65 l 0.05,0.05 0.9,-1.25 q 1.65,-1.9 4.25,-2.85 l -0.15,-0.2 q -1.05,-1.15 -1.25,-2.15 -0.2,-0.7 -0.1,-1.8 l 0.2,-1.45 0.55,-1.25 q 0.95,-1.65 2.2,-2.6 -0.25,-0.6 -0.2,-1.3 0.1,-0.95 0.45,-1.5 0.45,-0.75 1.25,-1.15 0.85,-0.45 1.7,-0.4 1,0.05 1.85,0.6 0.85,0.6 1.2,1.5 l 0.2,0.9 0.2,0.05 q 1.1,0.35 2,0.9 l 1,-0.8 1.4,-0.2 1.3,0.05 q 0.85,0.25 1.5,0.9 0.65,0.7 0.75,1.55 l -0.05,1.65 -0.15,0.6 -1.1,1.3 -1.1,0.75 q 0,-0.55 -0.35,-1 -0.35,-0.5 -0.9,-0.65 l -1,0.05 -0.85,0.6 q -0.75,1 0,2 0.65,1 1.9,0.65 L 55.95,35.1 M 49.8,30.95 q 0,-0.55 -0.4,-0.85 l -0.75,-0.3 q -0.75,0 -1.1,0.75 -0.3,0.75 0.3,1.25 0.55,0.6 1.25,0.25 0.7,-0.3 0.7,-1.1 m 0.85,4.55 0.05,-0.05 0.15,-0.15 0.3,-0.45 0.2,-0.25 0.1,-0.2 0.05,-0.2 0.15,-0.3 0.05,-0.5 -0.4,-0.4 -0.1,0.05 -0.45,0.35 -0.6,0.95 -0.15,-0.1 -0.75,-0.05 -0.8,0.05 -0.4,0.1 -0.3,0.3 -0.1,0.4 q 0,0.25 0.35,0.35 h 1.2 0.6 v 0.8 q 0,0.35 0.15,0.5 l 0.45,0.05 0.15,-0.45 v -0.5 l 0.1,-0.3 m -39.8,0.9 h -0.4 L 10.2,36.1 q -0.1,-0.55 0.55,-1.15 l 0.65,-0.55 0.9,-0.55 q 2.55,-1.65 5.55,-2.4 L 17.7,30.65 17.6,30.1 q -0.05,-0.65 0.35,-1.15 0.6,-0.5 1.15,-0.35 l 0.95,0.25 0.85,0.55 1.15,0.6 1.15,0.65 0.5,0.35 0.4,0.45 0.4,0.35 0.2,0.55 -0.25,0.45 -1.1,0.75 -0.65,0.25 -2.2,1.4 -0.35,0.45 Q 19.75,36 19.05,36 18.35,35.95 18.05,35.4 17.8,35 17.85,34.45 V 34 l -1.15,0.25 -2.65,0.75 -0.6,0.4 -0.6,0.1 -1,0.5 -1,0.4"
         fill="#000000"
         fill-rule="evenodd"
         stroke="none"
         id="path5" />
      <path
         d="m 56.7,33.7 v 0.05 q -0.1,0.9 -0.75,1.35 l -0.45,0.25 q -1.25,0.35 -1.9,-0.65 -0.75,-1 0,-2 l 0.85,-0.6 1,-0.05 q 0.55,0.15 0.9,0.65 0.35,0.45 0.35,1 m -6.05,1.8 -0.1,0.3 v 0.5 L 50.4,36.75 49.95,36.7 Q 49.8,36.55 49.8,36.2 V 35.4 H 49.2 48 q -0.35,-0.1 -0.35,-0.35 l 0.1,-0.4 0.3,-0.3 0.4,-0.1 0.8,-0.05 0.75,0.05 0.15,0.1 0.6,-0.95 0.45,-0.35 0.1,-0.05 0.4,0.4 -0.05,0.5 -0.15,0.3 -0.05,0.2 -0.1,0.2 -0.2,0.25 -0.3,0.45 -0.15,0.15 -0.05,0.05 M 49.8,30.95 q 0,0.8 -0.7,1.1 -0.7,0.35 -1.25,-0.25 -0.6,-0.5 -0.3,-1.25 0.35,-0.75 1.1,-0.75 l 0.75,0.3 q 0.4,0.3 0.4,0.85"
         fill="#ffffff"
         fill-rule="evenodd"
         stroke="none"
         id="path6" />
      <path
         d="m 10.9,0.3 0.3,-0.55 q 0.65,-0.65 1.45,-0.15 l 0.7,0.6 0.1,0.1 H 10.9 m 4.25,1.45 0.35,0.25 0.6,0.65 0.8,0.65 0.5,0.55 1.65,1.55 0.4,0.4 v 0.55 l -0.8,0.1 Q 17.75,6.2 16.15,5.1 l -0.2,-1.7 -0.8,-1.65 m 1.2,6.3 2.4,-0.4 1.05,-0.1 1.05,-0.3 1.65,0.2 1.85,0.65 q 1,0.65 1.2,1.5 l 0.05,0.3 q -0.5,0.1 -0.9,0.3 -1,0.5 -1.7,1.65 l -0.85,-0.4 -1.2,-0.45 -4.1,-2.65 -0.5,-0.3 m -1.5,11.45 3.85,3.1 0.2,0.35 -0.4,0.1 -2.7,-0.95 H 15.75 L 15.7,21.5 Q 15.6,20.55 14.9,19.55 L 14.85,19.5 m -4.1,-0.4 -1.5,-0.9 Q 7.7,17.3 1,13.9 q -1.1,-0.55 -1.55,-1.3 -0.35,-0.75 0,-1.4 l 0.2,-0.35 V 11.8 H 0.9 l 0.25,0.35 1.8,1.15 q 2.4,1.25 3.8,1.25 l 1.4,-0.15 0.65,0.4 1.45,1 0.5,3.3 M 27,7.75 26.75,7.95 26.4,7.9 17.05,1.6 16.3,0.8 q -0.3,-0.65 0.2,-1.05 0.4,-0.45 1.05,-0.3 l 0.75,0.6 8.45,7.3 0.25,0.4 M 3.35,19.7 1.05,18.65 -0.05,17.9 q -0.5,-0.7 -0.1,-1.45 L 0.45,16 1.2,15.95 8.6,20.5 8.95,20.9 q 0.1,0.4 -0.25,0.4 L 7.85,21.05 3.35,19.7 M 34,39.25 q -2.85,0.2 -4.85,0.75 -2.5,0.7 -6.4,3.05 L 21.2,44 l -2.7,2.55 -0.4,0.3 q -0.35,0 -0.35,-0.5 L 18,45.75 19.55,44 21.4,42.5 q 3.05,-2.3 6.05,-3.65 3.6,-1.55 6.85,-1.7 l 1,0.15 0.45,0.65 -0.15,0.75 q -0.45,0.55 -1.6,0.55 m 4.7,-4.2 q -0.55,0.65 -2.4,0.75 -6.4,0.3 -12.3,3.05 -3.55,1.7 -5.75,3.7 l -1.8,1.85 -1.85,1.85 q -0.45,0.45 -0.8,0.2 -0.35,-0.3 0.05,-0.9 3.3,-5.8 9.7,-9.25 4.55,-2.45 10.05,-3.45 L 24,27.4 23.3,26.75 23.15,26.25 q 0.1,-0.5 0.65,-0.5 l 0.8,0.2 q 3.3,1.25 7.05,2.95 l 5.6,2.75 q 1.45,0.65 1.7,1.5 l 0.05,0.3 0.05,0.3 q 0.15,0.75 -0.35,1.3"
         fill="#999999"
         fill-rule="evenodd"
         stroke="none"
         id="path7" />
    </g>
    <g
       id="shape2"
       transform="translate(1.5,1.5)">
      <path
         d="M 0,23.8 V 0 H 64.1 V 23.8 57.55 H 0 Z"
         fill="none"
         stroke="#000000"
         stroke-linecap="round"
         stroke-linejoin="round"
         stroke-width="3"
         id="path8" />
    </g>
  </defs>
</svg>
