<?xml version="1.0" encoding="UTF-8" standalone="no"?>
<svg
   ffdec:objectType="frame"
   height="44.349998"
   width="78.599998"
   version="1.1"
   id="svg13"
   sodipodi:docname="116.svg"
   xmlns:inkscape="http://www.inkscape.org/namespaces/inkscape"
   xmlns:sodipodi="http://sodipodi.sourceforge.net/DTD/sodipodi-0.dtd"
   xmlns:xlink="http://www.w3.org/1999/xlink"
   xmlns="http://www.w3.org/2000/svg"
   xmlns:svg="http://www.w3.org/2000/svg"
   xmlns:ffdec="https://www.free-decompiler.com/flash">
  <sodipodi:namedview
     id="namedview13"
     pagecolor="#ffffff"
     bordercolor="#000000"
     borderopacity="0.25"
     inkscape:showpageshadow="2"
     inkscape:pageopacity="0.0"
     inkscape:pagecheckerboard="0"
     inkscape:deskcolor="#d1d1d1"
     fit-margin-top="5"
     fit-margin-left="5"
     fit-margin-right="5"
     fit-margin-bottom="5" />
  <g
     transform="translate(2,2.05)"
     id="g3">
    <use
       ffdec:characterId="1"
       height="42.700001"
       transform="translate(-1.75,-2)"
       width="76.449997"
       xlink:href="#shape0"
       id="use1" />
    <use
       ffdec:characterId="117"
       height="42.200001"
       transform="translate(-1,-0.9)"
       width="76.599998"
       xlink:href="#shape1"
       id="use2" />
    <use
       ffdec:characterId="3"
       height="44.349998"
       transform="translate(-2,-2.05)"
       width="78.599998"
       xlink:href="#shape2"
       id="use3" />
  </g>
  <defs
     id="defs13">
    <g
       id="shape0"
       transform="translate(1.75,2)">
      <path
         d="M 2.8,0 V -0.4 H 5.4 V 0 H 9.7 V 19.45 0 H 20.55 L 19.3,19.45 H 9.7 0.25 V 0 H 2.8"
         fill="#ffffff"
         fill-rule="evenodd"
         stroke="none"
         id="path3" />
      <path
         d="M 0.25,19.45 H 9.7 19.3 L 18.7,28.6 16,28.5 10.95,27.95 9.7,27.8 Q 7.45,27.6 5.85,27.75 4.05,27.9 1.5,28.6 0.75,28.8 0.25,29.15 v -9.7 m 9.45,0 v 8.35 -8.35"
         fill="#121212"
         fill-rule="evenodd"
         stroke="none"
         id="path4" />
      <path
         d="m 9.7,27.8 1.25,0.15 5.05,0.55 2.7,0.1 h 1.05 l 3.75,0.15 q 2.45,0.3 3.6,1.25 0.6,0.5 0.6,1.1 0,0.65 -0.8,1 l -1.3,0.2 -7.15,0.15 -5.6,-0.3 L 9.7,31.75 7.95,31.6 3.1,31.95 0.95,32.3 0.25,32.1 -0.35,31.55 -0.5,31.3 V 29.9 L 0.25,29.15 Q 0.75,28.8 1.5,28.6 4.05,27.9 5.85,27.75 7.45,27.6 9.7,27.8 v 3.95 -3.95"
         fill="#999999"
         fill-rule="evenodd"
         stroke="none"
         id="path5" />
      <path
         d="M 2.8,0 H 0.25 M 9.7,0 H 5.4 m 16.15,0 h 10.7 M 20.55,0 H 9.7"
         fill="none"
         stroke="#666666"
         stroke-linecap="round"
         stroke-linejoin="round"
         stroke-width="4"
         id="path6" />
      <path
         d="m 9.7,-0.4 h 65 V 40.5 H 47.05 L 45.5,40.7 27,40.65 25.95,40.5 H 9.7 -0.5 V -0.4 H 9.7 V 40.5 -0.4"
         fill="#ffffff"
         fill-rule="evenodd"
         stroke="none"
         id="path7" />
    </g>
    <g
       id="shape1"
       transform="translate(1,0.9)">
      <path
         d="M 15.4,40.8 H -0.5 V -0.4 H 75.1 V 40.8 H 48.3 l -1.1,-7.3 -1.05,-4.05 4.4,0.45 6,0.55 3.4,-0.45 q 0.9,-0.5 1.4,-1.45 0.45,-1 0.35,-2 -0.15,-1 -0.8,-1.85 -0.65,-0.9 -1.6,-1.25 L 57.25,23 Q 54.6,22.8 52,23 L 49.75,23.35 50.3,22.4 Q 51,20.95 51,19.1 L 51.05,18.7 50.7,15.95 50.6,15.6 q 1.75,-2.4 2.3,-5.45 0.2,-0.8 0,-1.35 -0.25,-1.15 -1.35,-1.45 l -1,-0.1 -5.45,0.3 -0.3,0.05 Q 43.3,6.7 40.95,6.15 l -2.9,-0.4 V 5.7 H 37.3 37.05 l -2.9,0.45 Q 31.8,6.7 30.3,7.6 L 30,7.55 l -5.45,-0.3 -1,0.1 q -1.1,0.3 -1.35,1.45 -0.2,0.55 0,1.35 0.55,3.05 2.3,5.45 l -0.1,0.35 q -0.4,1.8 -0.35,2.75 l 0.05,0.4 q 0,1.85 0.7,3.3 L 25.35,23.35 23.1,23 q -2.6,-0.2 -5.25,0 l -2.05,0.45 q -0.95,0.35 -1.6,1.25 -0.65,0.85 -0.8,1.85 -0.1,1 0.35,2 0.5,0.95 1.4,1.45 l 3.4,0.45 6,-0.55 4.4,-0.45 q -0.6,1.9 -1.05,4.05 l -0.25,1.4 q -1.6,-0.2 -4.05,0.55 l -2.9,1.15 q -1.3,0.55 -2,0.5 l 0.1,-0.05 1.25,-0.55 q 1.1,-0.6 1.55,-1.55 0.55,-1.1 0.1,-2.2 -0.45,-1.05 -1.7,-1.4 l -2.3,-0.1 q -1.5,0.35 -2.45,1.1 -0.65,0.5 -1.4,1.5 -0.45,0.65 -0.8,1.6 -0.35,1.25 0.1,2.6 0.4,1.3 1.45,2.2 l 0.8,0.55 m 11.45,0 H 21.7 l 1.7,-0.75 q 2.15,-0.9 3.6,-0.75 l -0.15,1.5"
         fill="#999999"
         fill-rule="evenodd"
         stroke="none"
         id="path8" />
      <path
         d="m 48.3,40.8 v 0.1 H 26.85 V 40.8 L 27,39.3 q -1.45,-0.15 -3.6,0.75 l -1.7,0.75 -0.15,0.05 -0.1,0.05 h -5.9 L 15.4,40.8 14.6,40.25 q -1.05,-0.9 -1.45,-2.2 -0.45,-1.35 -0.1,-2.6 0.35,-0.95 0.8,-1.6 0.75,-1 1.4,-1.5 0.95,-0.75 2.45,-1.1 l 2.3,0.1 q 1.25,0.35 1.7,1.4 0.45,1.1 -0.1,2.2 -0.45,0.95 -1.55,1.55 l -1.25,0.55 -0.1,0.05 q 0.7,0.05 2,-0.5 l 2.9,-1.15 q 2.45,-0.75 4.05,-0.55 l 0.25,-1.4 q 0.45,-2.15 1.05,-4.05 l -4.4,0.45 -6,0.55 -3.4,-0.45 q -0.9,-0.5 -1.4,-1.45 -0.45,-1 -0.35,-2 0.15,-1 0.8,-1.85 0.65,-0.9 1.6,-1.25 L 17.85,23 q 2.65,-0.2 5.25,0 L 25.35,23.35 24.8,22.4 Q 24.1,20.95 24.1,19.1 L 24.05,18.7 Q 24,17.75 24.4,15.95 L 24.5,15.6 Q 22.75,13.2 22.2,10.15 22,9.35 22.2,8.8 22.45,7.65 23.55,7.35 l 1,-0.1 5.45,0.3 0.3,0.05 q 1.5,-0.9 3.85,-1.45 l 2.9,-0.45 h 0.25 0.75 v 0.05 l 2.9,0.4 Q 43.3,6.7 44.8,7.6 l 0.3,-0.05 5.45,-0.3 1,0.1 q 1.1,0.3 1.35,1.45 0.2,0.55 0,1.35 -0.55,3.05 -2.3,5.45 l 0.1,0.35 0.35,2.75 -0.05,0.4 q 0,1.85 -0.7,3.3 L 49.75,23.35 52,23 q 2.6,-0.2 5.25,0 l 2.05,0.45 q 0.95,0.35 1.6,1.25 0.65,0.85 0.8,1.85 0.1,1 -0.35,2 -0.5,0.95 -1.4,1.45 l -3.4,0.45 -6,-0.55 -4.4,-0.45 1.05,4.05 1.1,7.3"
         fill="#ffffff"
         fill-rule="evenodd"
         stroke="none"
         id="path9" />
      <path
         d="M 15.4,40.8 H -0.5 V -0.4 H 75.1 V 40.8 H 48.3 m -21.45,0 H 21.7"
         fill="none"
         stroke="#999999"
         stroke-linecap="round"
         stroke-linejoin="round"
         stroke-width="1"
         id="path10" />
      <path
         d="m 14.95,-0.05 0.15,0.15 0.05,-0.4 0.05,-0.25 h 0.9 v 0.05 l 0.6,1.85 0.2,0.95 -0.05,0.2 q 0.1,0.45 -0.4,0.8 l -1,0.1 -2.3,-0.55 -0.3,-0.15 V 2.3 Q 13,2.05 13.5,1.9 l 0.1,-0.05 -1.2,-1.4 -0.75,-1 h 2.75 l 0.55,0.5 m 56.05,4.9 -1.5,1.9 -2.1,2.8 -1.65,2 0.15,0.05 q 0.7,0.2 0.9,0.6 v 0.55 l -0.4,0.2 -3.25,0.8 -1.45,-0.2 Q 61.05,13.1 61.15,12.45 L 61.1,12.2 61.4,10.85 62.2,8.2 q 0.1,-0.75 0.5,-0.85 0.45,-0.1 0.65,0.35 L 63.55,8.5 63.6,9.1 63.85,8.85 68.8,4.4 Q 70,3.25 71.2,2.5 l 0.6,-0.15 q 0.3,0.1 0.3,0.55 L 71.85,3.5 71,4.85 m -11.15,-4.9 0.55,-0.5 h 2.75 l -0.75,1 -1.2,1.4 0.1,0.05 0.65,0.4 v 0.4 l -0.3,0.15 -2.3,0.55 -1,-0.1 Q 57.85,2.95 57.95,2.5 L 57.9,2.3 Q 57.85,2.05 58.1,1.35 l 0.6,-1.85 v -0.05 h 0.9 l 0.05,0.25 0.05,0.4 0.15,-0.15 M 58,14.6 q -0.1,-0.75 -0.4,-1 l -0.2,-0.35 -0.3,-0.2 -0.3,-0.15 -0.25,0.05 -0.35,0.2 Q 55.9,13.4 55.8,14 l -0.05,0.75 0.1,0.4 0.25,0.7 0.1,0.75 -0.05,0.75 1.85,0.5 1.4,0.65 0.5,0.15 1,0.15 0.4,-0.15 0.1,-0.7 -0.15,-0.85 -0.2,-0.2 -0.75,-0.6 -1,-0.15 h -0.8 l -0.35,-0.4 -0.1,-0.6 L 58,14.6 M 56.85,3.9 q 0.85,0.05 1.5,0.5 0.7,0.5 0.85,1.35 l 0.1,0.7 q 0,0.9 -0.3,1.3 l -0.85,0.5 Q 57.1,8.45 55.5,7.7 L 54.7,7.4 54,7.35 53.45,6.95 V 6.45 L 53.55,6 53.3,5 Q 52.95,3.85 53.25,2.7 L 53.45,2.35 53.7,2.1 q 1,-0.65 1.8,-0.25 l 0.5,0.3 q 0.75,0.75 0.85,1.75 m 17.4,13.3 -1.1,1.35 -1.45,2 -1.2,1.4 0.1,0.05 q 0.5,0.15 0.65,0.4 v 0.4 l -0.3,0.15 -2.3,0.55 -1,-0.1 q -0.5,-0.35 -0.4,-0.8 L 67.2,22.4 q -0.05,-0.25 0.2,-0.95 L 68,19.6 q 0.05,-0.55 0.35,-0.65 0.3,-0.05 0.45,0.25 l 0.15,0.6 0.05,0.4 0.15,-0.15 3.5,-3.15 q 0.85,-0.85 1.75,-1.35 0.25,-0.15 0.4,-0.15 l 0.2,0.4 -0.15,0.45 -0.6,0.95 m -8.1,6.8 q 0.85,0.05 1.5,0.5 0.7,0.5 0.85,1.35 l 0.1,0.7 -0.3,1.3 -0.85,0.5 Q 66.4,28.55 64.8,27.8 L 64,27.5 63.3,27.45 62.75,27.05 v -0.5 l 0.1,-0.45 -0.25,-1 Q 62.25,23.95 62.55,22.8 L 62.75,22.45 63,22.2 q 1,-0.65 1.8,-0.25 l 0.5,0.3 Q 66.05,23 66.15,24 M 59.6,14.4 q 1.2,0.1 2.1,0.75 1,0.7 1.25,1.85 l 0.15,1.05 q 0,1.25 -0.45,1.8 -0.4,0.5 -1.2,0.7 -1.45,0.3 -3.7,-0.8 l -1.15,-0.4 -1,-0.05 q -0.65,-0.2 -0.8,-0.55 v -0.7 l 0.2,-0.7 q 0.1,-0.4 -0.35,-1.4 -0.55,-1.6 -0.1,-3.2 l 0.25,-0.5 0.4,-0.35 q 1.4,-0.95 2.55,-0.35 0.4,0.15 0.7,0.45 1.05,1 1.15,2.4 M 44.7,13.15 h -0.75 l 1.25,0.95 q 0.35,0.35 0.1,0.5 L 45.05,14.65 43.5,14.3 42,13.9 40.8,13.7 Q 40.05,13.45 40,12.85 l 0.1,-0.65 0.05,-0.05 0.65,-0.7 1.25,-0.2 0.1,0.05 1.6,0.15 0.35,0.05 0.3,0.1 0.45,0.05 1.55,0.45 0.45,0.25 0.15,0.45 q -0.05,0.4 -0.6,0.5 H 46.05 L 45.8,13.2 44.7,13.15 m -9.7,6 -1.3,0.15 -0.7,-0.05 -0.95,-0.2 -1.2,-0.95 -0.2,-0.3 Q 30.5,17.5 30.6,16.6 l 0.15,-0.7 q 0.15,-0.35 0.6,-0.55 0.3,0.1 0.45,0.3 l -0.05,0.7 q -0.2,0.45 -0.1,0.65 0.4,0.4 1.35,0.5 1.3,0 2,-0.5 l 0.45,-0.3 0.6,-0.25 0.45,-0.45 0.35,-0.25 0.4,-0.1 h 0.05 0.15 0.15 l 0.35,0.1 0.35,0.25 0.45,0.45 0.6,0.25 0.45,0.3 q 0.7,0.5 2,0.5 0.95,-0.1 1.35,-0.5 L 43.05,16.35 43,15.65 q 0.15,-0.2 0.45,-0.3 l 0.6,0.55 0.15,0.7 -0.05,1.2 -0.2,0.3 -1.2,0.95 -0.95,0.2 -0.7,0.05 -1.3,-0.15 -0.7,-0.3 -1.7,-0.95 -1.7,0.95 -0.7,0.3 m -4.9,-6 -1.1,0.05 -0.25,0.1 H 28.4 q -0.55,-0.1 -0.6,-0.5 l 0.15,-0.45 0.45,-0.25 1.55,-0.45 0.45,-0.05 0.3,-0.1 0.35,-0.05 1.6,-0.15 0.1,-0.05 1.25,0.2 0.65,0.7 0.05,0.05 0.1,0.65 q -0.05,0.6 -0.8,0.85 l -1.2,0.2 -1.5,0.4 -1.55,0.35 -0.25,-0.05 q -0.25,-0.15 0.1,-0.5 l 1.25,-0.95 H 30.1 M 17.95,3.9 q 0.1,-1 0.85,-1.75 0.2,-0.2 0.5,-0.3 0.8,-0.4 1.8,0.25 l 0.25,0.25 0.2,0.35 Q 21.85,3.85 21.5,5 21.15,5.7 21.25,6 l 0.1,0.45 v 0.5 L 20.8,7.35 20.1,7.4 19.3,7.7 Q 17.7,8.45 16.65,8.25 16.1,8.1 15.8,7.75 15.5,7.35 15.5,6.45 l 0.1,-0.7 Q 15.75,4.9 16.45,4.4 17.1,3.95 17.95,3.9 M 3.8,4.85 2.95,3.5 2.7,2.9 Q 2.7,2.45 3,2.35 L 3.6,2.5 6,4.4 10.95,8.85 11.2,9.1 11.25,8.5 11.45,7.7 q 0.2,-0.45 0.65,-0.35 0.4,0.1 0.5,0.85 l 0.8,2.65 0.3,1.35 -0.05,0.25 q 0.1,0.65 -0.55,1.1 L 11.65,13.75 8.4,12.95 8,12.75 Q 7.85,12.5 8,12.2 8.2,11.8 8.9,11.6 L 9.05,11.55 7.4,9.55 5.3,6.75 3.8,4.85 m 11.4,9.55 q 0.1,-1.4 1.15,-2.4 0.3,-0.3 0.7,-0.45 1.15,-0.6 2.55,0.35 l 0.4,0.35 0.25,0.5 q 0.45,1.6 -0.1,3.2 -0.45,1 -0.35,1.4 l 0.2,0.7 v 0.7 l -0.8,0.55 -1,0.05 q -0.3,0.05 -1.15,0.4 -2.25,1.1 -3.7,0.8 l -1.2,-0.7 Q 11.7,19.3 11.7,18.05 L 11.85,17 Q 12.1,15.85 13.1,15.15 14,14.5 15.2,14.4 M 0.55,17.2 -0.05,16.25 -0.2,15.8 0,15.4 0.4,15.55 2.15,16.9 5.65,20.05 5.8,20.2 5.85,19.8 6,19.2 q 0.15,-0.3 0.45,-0.25 l 0.35,0.65 0.6,1.85 0.2,0.95 -0.05,0.2 q 0.1,0.45 -0.4,0.8 l -1,0.1 -2.3,-0.55 -0.3,-0.15 V 22.4 Q 3.7,22.15 4.2,22 l 0.1,-0.05 -1.2,-1.4 -1.45,-2 -1.1,-1.35 m 8.1,6.8 q 0.1,-1 0.85,-1.75 0.2,-0.2 0.5,-0.3 0.8,-0.4 1.8,0.25 l 0.25,0.25 0.2,0.35 q 0.3,1.15 -0.05,2.3 -0.35,0.7 -0.25,1 l 0.1,0.45 v 0.5 L 11.5,27.45 10.8,27.5 10,27.8 Q 8.4,28.55 7.35,28.35 6.8,28.2 6.5,27.85 6.2,27.45 6.2,26.55 l 0.1,-0.7 Q 6.45,25 7.15,24.5 7.8,24.05 8.65,24 m 8.15,-9.4 -0.05,0.55 -0.1,0.6 -0.35,0.4 h -0.8 l -1,0.15 -0.75,0.6 -0.2,0.2 -0.15,0.85 0.1,0.7 0.4,0.15 1,-0.15 0.5,-0.15 1.4,-0.65 q 0.6,-0.3 1.85,-0.5 l -0.05,-0.75 0.1,-0.75 0.25,-0.7 0.1,-0.4 L 19,14 Q 18.9,13.4 18.6,13.15 L 18.25,12.95 18,12.9 l -0.3,0.15 -0.3,0.2 -0.2,0.35 q -0.3,0.25 -0.4,1"
         fill="#000000"
         fill-rule="evenodd"
         stroke="none"
         id="path11" />
      <path
         d="m 58,14.6 0.05,0.55 0.1,0.6 0.35,0.4 h 0.8 l 1,0.15 0.75,0.6 0.2,0.2 0.15,0.85 -0.1,0.7 -0.4,0.15 -1,-0.15 L 59.4,18.5 58,17.85 56.15,17.35 56.2,16.6 56.1,15.85 55.85,15.15 55.75,14.75 55.8,14 q 0.1,-0.6 0.4,-0.85 l 0.35,-0.2 0.25,-0.05 0.3,0.15 0.3,0.2 0.2,0.35 q 0.3,0.25 0.4,1 M 43.05,3.85 q -0.55,-0.9 -0.4,-1.3 l 0.4,-0.45 1.2,-0.15 q 0.65,0.25 0.8,0.85 1.3,-0.1 1.8,0.4 0.4,0.4 0.25,1 -0.15,0.6 -0.7,0.75 L 45.6,5.15 45.1,5.45 44.6,5.6 44.2,5.3 43.05,3.85 m 6.3,31 q -0.55,-0.9 -0.4,-1.3 l 0.4,-0.45 1.2,-0.15 q 0.65,0.25 0.8,0.85 1.3,-0.1 1.8,0.4 0.4,0.4 0.25,1 -0.15,0.6 -0.7,0.75 l -0.8,0.2 -0.5,0.3 -0.5,0.15 -0.4,-0.3 -1.15,-1.45 M 32.05,3.85 30.9,5.3 30.5,5.6 30,5.45 29.5,5.15 28.7,4.95 Q 28.15,4.8 28,4.2 q -0.15,-0.6 0.25,-1 0.5,-0.5 1.8,-0.4 0.15,-0.6 0.8,-0.85 l 1.2,0.15 0.4,0.45 q 0.15,0.4 -0.4,1.3 M 16.8,14.6 q 0.1,-0.75 0.4,-1 l 0.2,-0.35 0.3,-0.2 0.3,-0.15 0.25,0.05 0.35,0.2 Q 18.9,13.4 19,14 l 0.05,0.75 -0.1,0.4 -0.25,0.7 -0.1,0.75 0.05,0.75 q -1.25,0.2 -1.85,0.5 l -1.4,0.65 -0.5,0.15 -1,0.15 -0.4,-0.15 -0.1,-0.7 0.15,-0.85 0.2,-0.2 0.75,-0.6 1,-0.15 h 0.8 l 0.35,-0.4 0.1,-0.6 0.05,-0.55 M 11.05,34.85 9.9,36.3 9.5,36.6 9,36.45 8.5,36.15 7.7,35.95 Q 7.15,35.8 7,35.2 q -0.15,-0.6 0.25,-1 0.5,-0.5 1.8,-0.4 0.15,-0.6 0.8,-0.85 l 1.2,0.15 0.4,0.45 q 0.15,0.4 -0.4,1.3"
         fill="#ffffff"
         fill-rule="evenodd"
         stroke="none"
         id="path12" />
    </g>
    <g
       id="shape2"
       transform="translate(2,2.05)">
      <path
         d="M -0.5,-0.4 V -0.55 H 75.1 V -0.4 40.8 H -0.5 Z"
         fill="none"
         stroke="#000000"
         stroke-linecap="round"
         stroke-linejoin="round"
         stroke-width="3"
         id="path13" />
    </g>
  </defs>
</svg>
