<?xml version="1.0" encoding="UTF-8" standalone="no"?>
<svg
   ffdec:objectType="frame"
   height="60.549999"
   width="67.099998"
   version="1.1"
   id="svg7"
   sodipodi:docname="280.svg"
   xmlns:inkscape="http://www.inkscape.org/namespaces/inkscape"
   xmlns:sodipodi="http://sodipodi.sourceforge.net/DTD/sodipodi-0.dtd"
   xmlns:xlink="http://www.w3.org/1999/xlink"
   xmlns="http://www.w3.org/2000/svg"
   xmlns:svg="http://www.w3.org/2000/svg"
   xmlns:ffdec="https://www.free-decompiler.com/flash">
  <sodipodi:namedview
     id="namedview7"
     pagecolor="#ffffff"
     bordercolor="#000000"
     borderopacity="0.25"
     inkscape:showpageshadow="2"
     inkscape:pageopacity="0.0"
     inkscape:pagecheckerboard="0"
     inkscape:deskcolor="#d1d1d1"
     fit-margin-top="5"
     fit-margin-left="5"
     fit-margin-right="5"
     fit-margin-bottom="5" />
  <g
     transform="translate(1.5,1.5)"
     id="g3">
    <use
       ffdec:characterId="516"
       height="57.549999"
       width="64.099998"
       xlink:href="#shape0"
       id="use1" />
    <use
       ffdec:characterId="783"
       height="58.5"
       transform="translate(3.35,-0.45)"
       width="50.5"
       xlink:href="#shape1"
       id="use2" />
    <use
       ffdec:characterId="518"
       height="60.549999"
       transform="translate(-1.5,-1.5)"
       width="67.099998"
       xlink:href="#shape2"
       id="use3" />
  </g>
  <defs
     id="defs7">
    <g
       id="shape0">
      <path
         d="M 53.6,0 H 64.1 V 57.55 H 53.6 28.25 0 V 0 H 28.25 53.6 V 57.55 0 M 28.25,0 V 57.55 0"
         fill="#ffffff"
         fill-rule="evenodd"
         stroke="none"
         id="path3" />
    </g>
    <g
       id="shape1"
       transform="translate(-3.35,0.45)">
      <path
         d="m 53.45,31.8 q 1.2,4.85 -1.15,9.15 L 51.1,42.6 Q 50.4,43.25 49,43.8 46.35,44.9 44,44.75 41.2,44.6 39.05,42.7 36.9,40.75 36.35,38.05 35.9,35.6 36.95,31.6 37.8,28.55 38.8,27 q 0.8,-1.25 1.9,-2 l -0.1,-0.9 0.1,-1.55 -0.25,-2.4 q -0.1,-1.55 0.6,-2.3 l 0.6,-0.5 q 0.35,-0.25 0.65,-0.4 0,-0.6 0.65,-1.25 v -0.05 -0.1 -0.1 -0.1 -0.1 -0.1 -0.1 -0.1 -0.1 V 14.7 14.6 14.5 14.4 14.3 14.2 14.1 14 13.9 13.8 13.7 13.6 13.5 13.4 13.3 13.2 13.1 13 12.9 12.8 12.7 12.6 12.5 12.4 12.3 12.2 12.1 12 v -0.1 -0.1 -0.15 -0.1 -0.1 -0.1 -0.1 -0.1 -0.1 -0.1 -0.1 -0.1 -0.1 -0.1 -0.1 -0.1 -0.1 -0.1 -0.1 V 9.95 9.85 9.75 9.65 9.55 9.45 9.35 9.25 9.15 9.05 8.95 8.85 8.7 8.6 8.5 8.4 8.3 8.2 8.1 8 7.9 7.8 7.7 7.6 7.5 7.4 7.3 7.2 7.1 7 6.9 6.8 6.7 6.6 6.5 6.4 6.3 6.2 6.1 6 5.9 5.8 5.65 5.55 5.45 5.35 5.25 5.15 5.05 4.95 4.85 4.75 4.65 4.55 4.45 4.35 4.25 4.15 4.05 3.95 3.85 3.75 3.65 3.55 3.45 3.35 3.25 3.15 3.05 2.95 2.85 2.7 2.6 2.5 2.4 2.3 2.2 L 43,2.1 V 2 1.9 1.8 1.7 1.6 1.5 1.4 1.3 L 43.05,1.2 V 1.1 L 43.1,1 V 0.9 L 43.15,0.8 43.2,0.7 V 0.6 L 43.3,0.5 43.35,0.4 43.4,0.3 43.5,0.2 43.6,0.1 43.75,0 l 0.1,-0.1 0.2,-0.1 0.2,-0.15 0.2,-0.05 0.15,-0.05 h 0.35 0.35 l 0.1,0.05 0.2,0.05 0.25,0.15 0.15,0.1 0.15,0.1 0.1,0.1 0.1,0.1 0.1,0.1 0.05,0.1 0.05,0.1 0.1,0.1 v 0.1 l 0.05,0.1 0.1,0.1 V 1 1.1 l 0.05,0.1 V 1.3 L 46.9,1.4 V 1.5 1.6 1.7 1.8 1.9 2 2.1 l 0.05,0.1 v 0.1 0.1 0.1 0.1 0.1 0.15 0.1 0.1 0.1 0.1 0.1 0.1 0.1 0.1 0.1 0.1 0.1 0.1 0.1 0.1 0.1 0.1 0.1 0.1 0.1 0.1 0.1 0.1 0.1 0.1 0.1 0.1 0.1 0.1 V 5.8 5.9 6 6.1 6.2 6.3 6.4 6.5 6.6 6.7 6.8 6.9 7 7.1 7.2 7.3 7.4 7.5 7.6 7.7 7.8 7.9 8 v 0.1 0.1 0.1 0.1 0.1 0.1 0.1 0.15 0.1 0.1 0.1 0.1 0.1 0.1 0.1 0.1 0.1 0.1 0.1 0.1 0.1 0.1 0.1 0.1 0.1 0.1 0.1 0.1 0.1 0.1 0.1 0.1 0.1 0.1 0.1 0.1 0.15 0.1 0.1 0.1 0.1 0.1 0.1 0.1 0.1 0.1 0.1 0.1 0.1 0.1 0.1 0.1 0.1 0.1 0.1 0.1 0.1 0.1 0.1 0.1 0.1 0.1 0.1 0.1 0.1 0.1 0.15 0.1 0.05 l 0.25,0.2 0.35,0.9 q 0.1,0.7 -0.25,1.25 l 0.35,0.1 q 0.85,0.4 1.05,1 l 0.1,0.75 q 0.1,2.25 -0.3,4.6 l -0.15,0.7 q 3.9,2.7 5.1,7.3 m -5.05,7.7 0.75,-1.25 0.4,-1.3 0.2,-1 Q 49.9,34.55 49.5,33.1 L 49,31.6 48.25,30.15 q -1,-1.45 -3.3,-2.55 l -0.5,-0.15 q -0.4,-0.1 -0.8,0.25 -0.5,0.25 -1,1.2 -1,1.7 -1.55,3.85 l -0.35,1.55 q -0.3,1.9 -0.05,2.85 l 0.3,0.9 1,1.55 q 1,1 2.5,1.1 l 0.9,-0.1 1.9,-0.5 q 0.8,-0.3 1.1,-0.6 M 14.7,14 q -0.6,0.05 -1.2,-0.65 l -0.8,-1.3 -0.2,-0.7 -0.3,-0.65 -0.25,-0.3 Q 10.75,9 10,6.8 L 9.75,6.05 Q 9.6,5.1 10.35,4.35 11.15,3.65 12.1,3.8 L 12.75,4 q 0.4,0.05 0.8,0.4 0.6,0.5 0.85,1.6 l 0.65,2.9 0.1,0.25 0.25,1.45 0.15,1.85 -0.15,0.95 q -0.15,0.5 -0.7,0.6 m -0.2,2.4 q 0.55,-0.55 1.35,-0.55 0.6,0.05 1.1,0.45 0.5,0.45 0.6,1.05 l -0.25,1.15 -0.85,0.8 -1.2,0.05 -0.95,-0.7 q -0.35,-0.5 -0.25,-1.15 0.05,-0.65 0.45,-1.1"
         fill="#999999"
         fill-rule="evenodd"
         stroke="none"
         id="path4" />
      <path
         d="m 30.55,26.35 q 1.4,2.45 1.15,5.3 l -0.5,2.4 -1,2.7 q -0.95,1.8 -2.6,3.05 1.9,1.1 3.15,3.6 0.95,1.8 1.5,5 0.6,2.9 0.3,4.55 -0.35,2.7 -2.25,3.85 -1.25,0.8 -4.3,0.9 l -7.85,0.2 Q 14.8,58 13,57.25 l 0.05,0.1 V 57.8 L 12.4,58.05 11.2,57.85 9.5,57.2 8.25,56.35 6.65,54.9 6.4,54.45 5,53.05 Q 3.45,51.2 3.45,49.8 l 0.2,-1.2 q 0.4,-2 0.85,-2.9 1.45,-2 1.7,-3.15 0.25,-1.35 -0.55,-2.4 L 5,39.3 q -0.35,-0.65 -0.15,-1.05 0.3,-0.6 1.1,-0.5 0.5,0.1 1.1,0.7 1.75,1.85 1.75,4.4 -0.05,1.55 -1.15,4.35 l -0.4,1.7 q 0,1.4 1.45,2.5 l 1.25,0.7 0.1,-2.35 q 0.2,-2.05 0.55,-3.4 0.55,-1.95 3,-5.25 L 13.2,40.95 Q 10.8,39.95 9.6,38.1 7.95,35.55 8.55,31.5 L 8,31.55 6.75,31.3 5.9,31.15 5.1,30.85 Q 4.5,30.5 3.95,29.5 L 3.45,28.55 3.35,27.7 q -0.1,-2.15 0.4,-3.25 l 0.6,-0.95 q 1.05,-1.45 1.7,-1.8 0.7,-0.4 1.8,-0.45 l 1.9,0.05 1.15,0.25 0.7,0.65 0.65,0.8 1.55,-1.25 q 1.85,-1.15 4.6,-1.5 l 3,-0.1 0.35,-1.2 q 0.9,-1.75 3.15,-2.6 l 1.45,-0.45 2.4,0.15 q 1.35,0.4 2.3,1.35 l 0.75,0.95 0.1,0.25 0.55,1.15 0.5,1.7 -0.05,1.3 -0.5,1 -1.35,1.45 -0.1,0.1 -0.35,0.3 -0.35,0.3 0.3,0.45 m -3.85,3.7 1.5,-0.1 1.1,-1 0.25,-1.45 q -0.15,-0.8 -0.7,-1.3 -0.55,-0.55 -1.3,-0.6 -0.8,-0.1 -1.45,0.3 -0.65,0.35 -0.95,1.15 -0.3,0.75 -0.05,1.45 0.35,1.3 1.6,1.55 m -12.4,4.6 q -0.7,0.1 -0.95,0.45 -0.2,0.25 -0.1,0.6 l 0.3,0.5 1.3,-0.05 1.45,-0.45 3.75,-1.15 5.8,-1.1 1.35,-0.15 q 0.35,-0.1 0.3,-0.4 0,-0.2 -0.4,-0.3 l -4.2,0.1 -1.25,0.3 -0.1,-0.2 -0.3,-1.05 q -0.2,-0.65 -0.7,-0.8 L 20.1,31.2 q -0.25,0.3 -0.15,0.9 l 0.05,1 0.05,0.25 -5.75,1.3 M 12.9,32.5 q 1.3,0 1.85,-1.15 0.65,-1 -0.05,-2.2 l -0.9,-0.8 -1.25,-0.15 q -0.65,0.15 -1.1,0.6 -0.7,0.7 -0.6,1.7 0.05,0.95 0.9,1.6 0.35,0.3 1.15,0.4"
         fill="#000000"
         fill-rule="evenodd"
         stroke="none"
         id="path5" />
      <path
         d="m 12.9,32.5 q -0.8,-0.1 -1.15,-0.4 -0.85,-0.65 -0.9,-1.6 -0.1,-1 0.6,-1.7 0.45,-0.45 1.1,-0.6 l 1.25,0.15 0.9,0.8 q 0.7,1.2 0.05,2.2 -0.55,1.15 -1.85,1.15 m 1.4,2.15 5.75,-1.3 -0.05,-0.25 -0.05,-1 q -0.1,-0.6 0.15,-0.9 l 0.45,-0.25 q 0.5,0.15 0.7,0.8 l 0.3,1.05 0.1,0.2 1.25,-0.3 4.2,-0.1 q 0.4,0.1 0.4,0.3 0.05,0.3 -0.3,0.4 l -1.35,0.15 -5.8,1.1 -3.75,1.15 -1.45,0.45 -1.3,0.05 -0.3,-0.5 q -0.1,-0.35 0.1,-0.6 0.25,-0.35 0.95,-0.45 m 12.4,-4.6 q -1.25,-0.25 -1.6,-1.55 -0.25,-0.7 0.05,-1.45 0.3,-0.8 0.95,-1.15 0.65,-0.4 1.45,-0.3 0.75,0.05 1.3,0.6 0.55,0.5 0.7,1.3 l -0.25,1.45 -1.1,1 -1.5,0.1"
         fill="#ffffff"
         fill-rule="evenodd"
         stroke="none"
         id="path6" />
    </g>
    <g
       id="shape2"
       transform="translate(1.5,1.5)">
      <path
         d="M 0,23.8 V 0 H 64.1 V 23.8 57.55 H 0 Z"
         fill="none"
         stroke="#000000"
         stroke-linecap="round"
         stroke-linejoin="round"
         stroke-width="3"
         id="path7" />
    </g>
  </defs>
</svg>
