<?xml version="1.0" encoding="UTF-8" standalone="no"?>
<svg
   ffdec:objectType="frame"
   height="60.549999"
   width="67.099998"
   version="1.1"
   id="svg9"
   sodipodi:docname="409.svg"
   xmlns:inkscape="http://www.inkscape.org/namespaces/inkscape"
   xmlns:sodipodi="http://sodipodi.sourceforge.net/DTD/sodipodi-0.dtd"
   xmlns:xlink="http://www.w3.org/1999/xlink"
   xmlns="http://www.w3.org/2000/svg"
   xmlns:svg="http://www.w3.org/2000/svg"
   xmlns:ffdec="https://www.free-decompiler.com/flash">
  <sodipodi:namedview
     id="namedview9"
     pagecolor="#ffffff"
     bordercolor="#000000"
     borderopacity="0.25"
     inkscape:showpageshadow="2"
     inkscape:pageopacity="0.0"
     inkscape:pagecheckerboard="0"
     inkscape:deskcolor="#d1d1d1"
     fit-margin-top="5"
     fit-margin-left="5"
     fit-margin-right="5"
     fit-margin-bottom="5" />
  <g
     transform="translate(1.5,1.5)"
     id="g3">
    <use
       ffdec:characterId="516"
       height="57.549999"
       width="64.099998"
       xlink:href="#shape0"
       id="use1" />
    <use
       ffdec:characterId="908"
       height="52.5"
       transform="translate(-0.05,4.95)"
       width="64.550003"
       xlink:href="#shape1"
       id="use2" />
    <use
       ffdec:characterId="518"
       height="60.549999"
       transform="translate(-1.5,-1.5)"
       width="67.099998"
       xlink:href="#shape2"
       id="use3" />
  </g>
  <defs
     id="defs9">
    <g
       id="shape0">
      <path
         d="M 53.6,0 H 64.1 V 57.55 H 53.6 28.25 0 V 0 H 28.25 53.6 V 57.55 0 M 28.25,0 V 57.55 0"
         fill="#ffffff"
         fill-rule="evenodd"
         stroke="none"
         id="path3" />
    </g>
    <g
       id="shape1"
       transform="translate(0.05,-4.95)">
      <path
         d="m 29.05,10.15 q 3.15,0.55 5.8,2.15 l 0.25,-0.25 q 1,-0.95 1.9,-1.5 l 1.1,-0.6 1.75,0.15 q 0.9,0.35 1.25,1.15 l 0.3,1.75 -0.15,2.45 q -0.45,4.95 -1.4,7.3 L 39.1,25.6 q -1.65,4.5 -5.15,6.15 l -3.6,0.95 -3,0.2 4.15,10.9 q 1.55,0 2.55,0.85 1.1,0.9 1.2,2.35 0.05,0.7 -0.45,2 l -1.35,1.85 q -0.85,0.65 -2.1,0.65 -1.1,0.1 -2.05,-0.35 -1.05,-0.5 -1.5,-1.35 l -0.55,-2.1 -1,-3.85 -0.6,-2.25 -0.9,6.3 -1,7.45 -0.55,2.1 H 1.15 Q 0.65,56.6 0.7,55.55 0.8,54.05 2.25,52.05 L 2.3,52 q 0.3,-0.9 1.1,-2.05 5.2,-7.25 7.9,-10.5 2.15,-2.6 4.25,-4.75 l -7.5,3.4 q -1.1,0.5 -1.6,0.85 L 4.9,40.15 Q 4,40.85 3.25,41.05 L 1.3,41 -0.05,40.2 v -6.1 q 0.6,-0.65 1.5,-1.05 2.2,-0.9 4.2,0.3 L 6.4,33.7 7,33.65 8.9,33.25 q 6.15,-1.25 9.3,-2.3 l 0.75,-0.2 q -2.05,-1.4 -3.2,-3.55 -1.9,-3.55 -0.75,-8.6 0.45,-1.9 1.15,-3.2 l 0.1,-0.5 q 0.6,-2 1.05,-2.9 L 19,8.9 20.15,7.05 q 1.2,-1.75 2.1,-2 1.4,-0.45 2.65,0.9 0.85,1 1.2,2.7 l 0.3,1.3 2.65,0.2 M 36.5,25.9 37.2,25.25 37.7,24.5 Q 38.35,23.25 38.1,21.75 37.8,20.3 36.85,19.2 L 36.35,18.65 35.6,18.2 q -0.9,1.9 -3.05,2.85 l -2.8,0.55 v 0.55 q 0.05,0.6 0.45,1.8 l 0.35,0.8 1,1.15 1.05,0.45 1.2,0.1 q 1.95,0 2.7,-0.55 m -7.25,-1.3 -0.3,-0.65 -0.3,-0.3 0.4,-0.9 v -0.3 q 0.1,-0.65 -0.55,-0.9 -0.5,-0.3 -1.05,0.15 l -0.35,0.5 -0.2,0.6 0.05,0.3 h -0.2 q -1.15,0.05 -2.2,1.05 -1.4,1.2 -1.6,2.8 -0.15,0.9 0.1,1.5 l 0.65,1.1 0.8,0.65 0.6,0.25 2.55,-0.25 q 1.2,-0.65 1.6,-2 l 0.25,-1.05 0.05,-0.9 q 0.1,-0.8 -0.3,-1.65 M 20.1,15.65 q -0.75,0.45 -1.4,1.45 l -0.35,0.75 -0.1,1.05 q -0.1,1.15 0.15,1.95 0.35,0.9 1.25,1.55 0.75,0.55 1.9,0.8 2.1,0.45 3.45,-0.35 0.8,-0.4 1.55,-1.45 l 0.25,-0.35 -0.65,-0.4 -1.05,-1 q -1,-1.2 -1.25,-2.15 -0.35,-1.35 0.25,-2.75 l -0.6,-0.05 -2.2,0.4 -1.2,0.55 m 5.3,13.2 Q 24.45,28.3 24.55,27 q 0,-1.2 0.95,-1.9 0.45,-0.3 1.05,-0.35 0.55,-0.05 1,0.25 0.6,0.45 0.75,1.2 l -0.15,1.35 q -0.35,0.9 -1.1,1.3 -0.9,0.45 -1.65,0"
         fill="#000000"
         fill-rule="evenodd"
         stroke="none"
         id="path4" />
      <path
         d="m 20.1,15.65 1.2,-0.55 2.2,-0.4 0.6,0.05 q -0.6,1.4 -0.25,2.75 0.25,0.95 1.25,2.15 l 1.05,1 0.65,0.4 -0.25,0.35 q -0.75,1.05 -1.55,1.45 -1.35,0.8 -3.45,0.35 -1.15,-0.25 -1.9,-0.8 -0.9,-0.65 -1.25,-1.55 -0.25,-0.8 -0.15,-1.95 l 0.1,-1.05 0.35,-0.75 q 0.65,-1 1.4,-1.45 m 9.15,8.95 q 0.4,0.85 0.3,1.65 l -0.05,0.9 -0.25,1.05 q -0.4,1.35 -1.6,2 l -2.55,0.25 -0.6,-0.25 -0.8,-0.65 -0.65,-1.1 q -0.25,-0.6 -0.1,-1.5 0.2,-1.6 1.6,-2.8 1.05,-1 2.2,-1.05 h 0.2 l -0.05,-0.3 0.2,-0.6 0.35,-0.5 q 0.55,-0.45 1.05,-0.15 0.65,0.25 0.55,0.9 v 0.3 l -0.4,0.9 0.3,0.3 0.3,0.65 m 7.25,1.3 q -0.75,0.55 -2.7,0.55 l -1.2,-0.1 -1.05,-0.45 -1,-1.15 -0.35,-0.8 q -0.4,-1.2 -0.45,-1.8 V 21.6 l 2.8,-0.55 Q 34.7,20.1 35.6,18.2 l 0.75,0.45 0.5,0.55 q 0.95,1.1 1.25,2.55 0.25,1.5 -0.4,2.75 l -0.5,0.75 -0.7,0.65 m -11.1,2.95 q 0.75,0.45 1.65,0 0.75,-0.4 1.1,-1.3 L 28.3,26.2 q -0.15,-0.75 -0.75,-1.2 -0.45,-0.3 -1,-0.25 -0.6,0.05 -1.05,0.35 -0.95,0.7 -0.95,1.9 -0.1,1.3 0.85,1.85"
         fill="#ffffff"
         fill-rule="evenodd"
         stroke="none"
         id="path5" />
      <path
         d="m 51.15,57.45 -0.25,-1.55 0.2,-2.85 0.15,-0.6 q -1.6,-0.15 -3,-0.95 l -0.4,0.3 q -0.8,0.65 -2.25,0.7 l -0.1,-0.95 q -0.2,-0.7 -0.75,-1.25 -0.8,-0.7 -1.95,-0.8 l -1.15,0.3 q -0.2,-0.7 -0.1,-1.45 0.15,-1.05 0.95,-1.6 0.6,-0.45 1.9,-0.55 H 45 v -0.3 q -0.1,-2.45 1.2,-4.4 l 1.2,-1.35 -0.25,-0.25 -1.2,-1.75 q 0.65,-0.05 1.25,-0.55 0.65,-0.5 0.85,-1.35 0.15,-0.9 -0.25,-1.6 l -0.6,-0.75 0.75,-0.5 q 0.85,-0.4 1.85,-0.3 1.6,0 2.45,0.8 l 1.1,1.1 q 1.1,1.1 1.2,3.45 L 54.5,39.4 q 1.3,0.55 2.2,1.5 l -0.15,0.45 q -0.15,0.75 0.2,1.45 0.3,0.75 0.95,1.15 l 0.7,0.3 0.25,1.15 0.05,0.55 3,1.05 q 2.1,0.85 2.8,2 v 5.7 q -0.1,1.05 -0.55,1.7 l -1.15,1.05 h -3.75 l 0.75,-1 0.45,-0.7 0.2,-0.4 0.2,-0.3 1.6,-1.45 1,-0.65 0.05,-0.85 q -0.2,-0.35 -0.75,-0.45 l -0.9,0.2 -0.5,-0.05 -0.55,0.05 -0.65,0.2 -0.65,0.4 -0.8,-0.85 0.6,-0.45 0.55,-0.25 1.2,-0.05 q 0.75,-0.2 0.85,-0.6 0.15,-0.5 -0.25,-0.85 l -0.8,-0.45 -1.7,-0.3 q -1.2,0.05 -2.8,1.2 -1.5,1.15 -2.2,2 -0.5,0.6 -0.65,1.2 -0.15,1.2 0.85,1.7 l 1,0.15 0.8,-0.5 0.45,-0.7 0.2,-0.2 0.15,0.15 0.7,0.4 -0.95,1.4 q -0.45,1.1 0.35,1.9 l 0.1,0.1 h -5.8 m 11.05,-21 q 0.1,0.6 -0.35,0.95 -0.4,0.4 -1,0.2 -0.55,-0.2 -0.65,-0.75 -0.1,-0.35 0.1,-0.6 l 0.4,-0.45 0.4,-0.1 0.1,-0.05 q 0.8,0 1,0.8 M 48.15,32.15 Q 47.5,32 47.2,31.45 q -0.3,-0.5 -0.25,-1.1 0.1,-0.65 0.5,-1 0.4,-0.35 1.05,-0.4 l 1.05,0.3 q 0.5,0.35 0.65,0.95 0.15,0.55 -0.1,1.05 l -0.8,0.8 -1.15,0.1 m -3.4,-4.55 0.55,0.2 0.2,0.2 q 0.25,0.4 0.1,0.75 l -0.5,0.6 -0.85,-0.1 Q 43.85,29 43.85,28.5 l 0.05,-0.2 0.3,-0.45 0.5,-0.2 0.05,-0.05 m 2.1,9.3 q -0.65,0.9 -1.8,0.65 -1.15,-0.35 -1.3,-1.4 -0.2,-1.2 0.8,-1.75 l 1.9,0.05 q 0.6,0.45 0.7,1.15 0.15,0.65 -0.3,1.3 m 1.35,4.65 q -0.65,0.4 -1,0.9 L 46.6,44 46.4,45.25 q 0,1 0.35,1.8 0.2,-0.25 0.55,-0.4 0.65,-0.4 1.4,-0.3 0.7,0.1 1.25,0.65 0.6,0.6 0.65,1.3 0.05,0.75 -0.35,1.4 l -0.15,0.25 1.25,0.15 v -0.15 l 0.55,-1.15 0.55,-0.7 -0.8,-0.55 q -0.3,-0.4 -0.05,-0.85 0.25,-0.45 0.75,-0.35 l 0.65,0.5 0.35,0.4 0.45,-0.4 -0.15,-0.15 q -0.55,-0.55 -0.2,-1.1 l 0.45,-0.4 0.6,0.05 0.45,0.4 0.2,0.2 0.95,-0.55 h 0.05 l -0.1,-1.25 -0.6,-1.4 -0.2,-0.3 -0.15,1.35 q -0.4,1.15 -1.45,1.55 -1.1,0.45 -2.1,0 -0.7,-0.3 -1.15,-1 Q 49.95,43.6 50,42.8 L 50.15,42 q 0.15,-0.7 0.85,-1.25 0.15,-0.15 0.35,-0.2 l -0.85,-0.05 -1,0.3 -1.3,0.75 M 58,37.4 q 0.35,0.65 -0.1,1.25 -0.5,0.55 -1.2,0.3 l -0.4,-0.2 Q 55.95,38.3 56,37.9 q -0.05,-0.4 0.25,-0.75 0.3,-0.3 0.7,-0.35 0.7,-0.1 1.05,0.6 m -0.25,5.95 -0.5,-0.6 q -0.3,-0.6 -0.15,-1.3 0.15,-0.7 0.65,-1.1 0.55,-0.4 1.25,-0.4 0.7,0 1.2,0.45 0.85,0.75 0.6,1.8 -0.1,0.65 -0.7,1.15 l -1.25,0.4 q -0.55,0 -1.1,-0.4 m -3.55,4.45 -0.1,0.2 0.75,0.6 0.35,-0.4 -0.45,-0.4 -0.3,-0.3 -0.25,0.3 m 1.85,-1.3 0.05,-0.15 -0.25,0.15 -0.1,0.1 0.1,0.25 0.1,0.15 0.1,-0.5 m -2.85,3.2 0.75,-0.35 -0.5,-0.35 -0.1,0.25 -0.15,0.45 m -12.45,1.65 q 0.65,-0.7 1.6,-0.8 l 1.35,0.3 q 0.65,0.35 0.95,1 0.7,1.5 -0.35,2.6 -1,1.25 -2.55,0.7 l -1.1,-0.8 q -0.45,-0.6 -0.5,-1.25 -0.1,-1.05 0.6,-1.75"
         fill="#000000"
         fill-rule="evenodd"
         stroke="none"
         id="path6" />
      <path
         d="m 54.1,25.4 q 0.3,0.5 0.15,1.15 l -0.6,1 -1.15,0.35 q -0.65,-0.05 -1.05,-0.45 -0.45,-0.4 -0.5,-1.05 -0.1,-0.65 0.25,-1.15 0.35,-0.5 0.95,-0.65 l 1.2,0.1 0.75,0.7 m 4.2,-3.1 q -0.4,-0.2 -0.5,-0.75 l 0.05,-0.35 q 0.1,-0.55 0.75,-0.65 l 0.1,-0.05 q 0.45,0 0.7,0.4 0.3,0.3 0.2,0.75 l -0.15,0.4 q -0.6,0.6 -1.15,0.25 m -0.15,5.95 0.5,0.25 0.7,0.6 q 0.75,1.5 0.15,2.95 l -0.2,0.45 -0.7,0.75 Q 57.8,33.8 56.85,33.8 L 56.2,33.75 q -1.3,-0.15 -1.95,-1.4 l -0.2,-0.5 -0.2,-0.8 0.05,-0.85 0.2,-0.65 0.7,-0.9 q 1.05,-0.9 2.15,-0.75 l 1.2,0.35 M 64.5,49 q -0.7,-1.15 -2.8,-2 l -3,-1.05 -0.05,-0.55 -0.25,-1.15 -0.7,-0.3 Q 57.05,43.55 56.75,42.8 56.4,42.1 56.55,41.35 L 56.7,40.9 q -0.9,-0.95 -2.2,-1.5 l 0.05,-0.95 Q 54.45,36.1 53.35,35 l -1.1,-1.1 Q 51.4,33.1 49.8,33.1 48.8,33 47.95,33.4 l -0.75,0.5 0.6,0.75 q 0.4,0.7 0.25,1.6 -0.2,0.85 -0.85,1.35 -0.6,0.5 -1.25,0.55 l 1.2,1.75 0.25,0.25 -1.2,1.35 q -1.3,1.95 -1.2,4.4 v 0.3 h -0.6 q -1.3,0.1 -1.9,0.55 -0.8,0.55 -0.95,1.6 -0.1,0.75 0.1,1.45 l 1.15,-0.3 q 1.15,0.1 1.95,0.8 0.55,0.55 0.75,1.25 l 0.1,0.95 q 1.45,-0.05 2.25,-0.7 l 0.4,-0.3 q 1.4,0.8 3,0.95 l -0.15,0.6 -0.2,2.85 0.25,1.55 H 36.2 Q 35.5,56.8 35.3,55.7 l -0.1,-1.3 0.15,-1.25 q 0.25,-1 1.15,-2.45 0.65,-1.1 1.05,-1.4 l 1,-0.6 Q 39.7,48.05 40.75,47.85 41.2,46 42.05,45 l 0.4,-0.6 -0.05,-0.55 -0.05,-0.5 q -1.3,-1.75 -1.35,-4 l 0.05,-0.9 0.05,-0.25 v -0.15 q 0.15,-1.5 0.85,-2.6 l 0.3,-0.4 0.6,-0.95 Q 43.7,33 44.35,32.55 L 44.45,32.5 44.2,31.85 43.75,30.8 q -1.3,0.3 -3.2,1.9 l -3.15,2.15 -2.5,0.3 Q 33.55,34.95 33.05,34.2 32.7,33.7 32.6,32.35 L 32,28.8 q -0.55,-0.05 -2.2,0.9 -1.4,0.9 -2.3,0.55 -0.85,-0.3 -1.1,-1.3 V 27.2 q 0.1,-0.75 0.5,-0.8 0.3,-0.05 0.55,0.25 l 0.2,0.7 q 0,1.05 0.45,1.2 1.65,-1.45 3.8,-2.2 l 1.85,-0.15 q 0.65,0.25 1.15,1.5 l 0.85,3.4 q 2.4,-2.75 5.6,-4.75 2.45,-1.35 4.1,-1.25 1.4,0.15 2.8,1.3 l 2.15,2.35 q 2.4,3 2.65,4.9 2.3,-0.35 5.05,1.2 l 0.15,-0.1 1.15,-0.35 h 1.1 l 1.5,0.25 0.85,0.45 0.65,0.55 0.8,1.4 0.2,0.7 v 2.6 l -0.1,0.2 -0.45,0.8 0.4,1.9 0.15,1.55 V 49 M 46.85,36.9 q 0.45,-0.65 0.3,-1.3 -0.1,-0.7 -0.7,-1.15 l -1.9,-0.05 q -1,0.55 -0.8,1.75 0.15,1.05 1.3,1.4 1.15,0.25 1.8,-0.65 m -2.1,-9.3 -0.05,0.05 -0.5,0.2 -0.3,0.45 -0.05,0.2 q 0,0.5 0.4,0.75 l 0.85,0.1 0.5,-0.6 Q 45.75,28.4 45.5,28 l -0.2,-0.2 -0.55,-0.2 m 3.4,4.55 1.15,-0.1 0.8,-0.8 q 0.25,-0.5 0.1,-1.05 -0.15,-0.6 -0.65,-0.95 l -1.05,-0.3 q -0.65,0.05 -1.05,0.4 -0.4,0.35 -0.5,1 -0.05,0.6 0.25,1.1 0.3,0.55 0.95,0.7 m 14.05,4.3 q -0.2,-0.8 -1,-0.8 l -0.1,0.05 -0.4,0.1 -0.4,0.45 q -0.2,0.25 -0.1,0.6 0.1,0.55 0.65,0.75 0.6,0.2 1,-0.2 0.45,-0.35 0.35,-0.95 m -4.45,6.9 q 0.55,0.4 1.1,0.4 l 1.25,-0.4 q 0.6,-0.5 0.7,-1.15 0.25,-1.05 -0.6,-1.8 -0.5,-0.45 -1.2,-0.45 -0.7,0 -1.25,0.4 -0.5,0.4 -0.65,1.1 -0.15,0.7 0.15,1.3 l 0.5,0.6 M 58,37.4 q -0.35,-0.7 -1.05,-0.6 -0.4,0.05 -0.7,0.35 -0.3,0.35 -0.25,0.75 -0.05,0.4 0.3,0.85 l 0.4,0.2 q 0.7,0.25 1.2,-0.3 0.45,-0.6 0.1,-1.25 m -17.15,6.3 q 0.35,1.6 -0.95,2.65 -1.25,1 -2.7,0.25 -0.65,-0.35 -1,-1 -0.35,-0.7 -0.25,-1.45 L 36.5,43 q 0.55,-0.8 1.4,-1.1 1.45,-0.45 2.4,0.6 l 0.55,1.2 m -8,0.1 q 0.5,0 0.75,0.4 0.3,0.35 0.2,0.85 l -0.1,0.05 -0.2,0.4 -1,0.15 Q 32,45.45 31.9,44.8 L 32,44.4 q 0.2,-0.55 0.8,-0.55 l 0.05,-0.05 m 7.9,7.55 q -0.7,0.7 -0.6,1.75 0.05,0.65 0.5,1.25 l 1.1,0.8 q 1.55,0.55 2.55,-0.7 1.05,-1.1 0.35,-2.6 -0.3,-0.65 -0.95,-1 l -1.35,-0.3 q -0.95,0.1 -1.6,0.8"
         fill="#999999"
         fill-rule="evenodd"
         stroke="none"
         id="path7" />
      <path
         d="m 56.95,57.45 -0.1,-0.1 q -0.8,-0.8 -0.35,-1.9 l 0.95,-1.4 -0.7,-0.4 -0.15,-0.15 -0.2,0.2 -0.45,0.7 -0.8,0.5 -1,-0.15 q -1,-0.5 -0.85,-1.7 0.15,-0.6 0.65,-1.2 0.7,-0.85 2.2,-2 1.6,-1.15 2.8,-1.2 l 1.7,0.3 0.8,0.45 q 0.4,0.35 0.25,0.85 -0.1,0.4 -0.85,0.6 l -1.2,0.05 -0.55,0.25 -0.6,0.45 0.8,0.85 0.65,-0.4 0.65,-0.2 0.55,-0.05 0.5,0.05 0.9,-0.2 q 0.55,0.1 0.75,0.45 l -0.05,0.85 -1,0.65 -1.6,1.45 -0.2,0.3 -0.2,0.4 -0.45,0.7 -0.75,1 h -2.1 m -8.75,-15.9 1.3,-0.75 1,-0.3 0.85,0.05 Q 51.15,40.6 51,40.75 50.3,41.3 50.15,42 L 50,42.8 q -0.05,0.8 0.4,1.45 0.45,0.7 1.15,1 1,0.45 2.1,0 1.05,-0.4 1.45,-1.55 l 0.15,-1.35 0.2,0.3 0.6,1.4 0.1,1.25 H 56.1 l -0.95,0.55 -0.2,-0.2 -0.45,-0.4 -0.6,-0.05 -0.45,0.4 q -0.35,0.55 0.2,1.1 l 0.15,0.15 -0.45,0.4 -0.35,-0.4 -0.65,-0.5 q -0.5,-0.1 -0.75,0.35 -0.25,0.45 0.05,0.85 l 0.8,0.55 -0.55,0.7 -0.55,1.15 V 50.1 L 50.1,49.95 50.25,49.7 q 0.4,-0.65 0.35,-1.4 -0.05,-0.7 -0.65,-1.3 -0.55,-0.55 -1.25,-0.65 -0.75,-0.1 -1.4,0.3 -0.35,0.15 -0.55,0.4 -0.35,-0.8 -0.35,-1.8 L 46.6,44 47.2,42.45 q 0.35,-0.5 1,-0.9 m 6,6.25 0.25,-0.3 0.3,0.3 0.45,0.4 -0.35,0.4 -0.75,-0.6 0.1,-0.2 m -1,1.9 0.15,-0.45 0.1,-0.25 0.5,0.35 -0.75,0.35 m 2.85,-3.2 -0.1,0.5 -0.1,-0.15 -0.1,-0.25 0.1,-0.1 0.25,-0.15 -0.05,0.15"
         fill="#ffffff"
         fill-rule="evenodd"
         stroke="none"
         id="path8" />
    </g>
    <g
       id="shape2"
       transform="translate(1.5,1.5)">
      <path
         d="M 0,23.8 V 0 H 64.1 V 23.8 57.55 H 0 Z"
         fill="none"
         stroke="#000000"
         stroke-linecap="round"
         stroke-linejoin="round"
         stroke-width="3"
         id="path9" />
    </g>
  </defs>
</svg>
