<?xml version="1.0" encoding="UTF-8" standalone="no"?>
<svg
   ffdec:objectType="frame"
   height="44.349998"
   width="78.599998"
   version="1.1"
   id="svg13"
   sodipodi:docname="243.svg"
   xmlns:inkscape="http://www.inkscape.org/namespaces/inkscape"
   xmlns:sodipodi="http://sodipodi.sourceforge.net/DTD/sodipodi-0.dtd"
   xmlns:xlink="http://www.w3.org/1999/xlink"
   xmlns="http://www.w3.org/2000/svg"
   xmlns:svg="http://www.w3.org/2000/svg"
   xmlns:ffdec="https://www.free-decompiler.com/flash">
  <sodipodi:namedview
     id="namedview13"
     pagecolor="#ffffff"
     bordercolor="#000000"
     borderopacity="0.25"
     inkscape:showpageshadow="2"
     inkscape:pageopacity="0.0"
     inkscape:pagecheckerboard="0"
     inkscape:deskcolor="#d1d1d1"
     fit-margin-top="5"
     fit-margin-left="5"
     fit-margin-right="5"
     fit-margin-bottom="5" />
  <g
     transform="translate(2,2.05)"
     id="g3">
    <use
       ffdec:characterId="1"
       height="42.700001"
       transform="translate(-1.75,-2)"
       width="76.449997"
       xlink:href="#shape0"
       id="use1" />
    <use
       ffdec:characterId="238"
       height="40"
       transform="translate(3.1,0.95)"
       width="68.099998"
       xlink:href="#shape1"
       id="use2" />
    <use
       ffdec:characterId="3"
       height="44.349998"
       transform="translate(-2,-2.05)"
       width="78.599998"
       xlink:href="#shape2"
       id="use3" />
  </g>
  <defs
     id="defs13">
    <g
       id="shape0"
       transform="translate(1.75,2)">
      <path
         d="M 2.8,0 V -0.4 H 5.4 V 0 H 9.7 V 19.45 0 H 20.55 L 19.3,19.45 H 9.7 0.25 V 0 H 2.8"
         fill="#ffffff"
         fill-rule="evenodd"
         stroke="none"
         id="path3" />
      <path
         d="M 0.25,19.45 H 9.7 19.3 L 18.7,28.6 16,28.5 10.95,27.95 9.7,27.8 Q 7.45,27.6 5.85,27.75 4.05,27.9 1.5,28.6 0.75,28.8 0.25,29.15 v -9.7 m 9.45,0 v 8.35 -8.35"
         fill="#121212"
         fill-rule="evenodd"
         stroke="none"
         id="path4" />
      <path
         d="m 9.7,27.8 1.25,0.15 5.05,0.55 2.7,0.1 h 1.05 l 3.75,0.15 q 2.45,0.3 3.6,1.25 0.6,0.5 0.6,1.1 0,0.65 -0.8,1 l -1.3,0.2 -7.15,0.15 -5.6,-0.3 L 9.7,31.75 7.95,31.6 3.1,31.95 0.95,32.3 0.25,32.1 -0.35,31.55 -0.5,31.3 V 29.9 L 0.25,29.15 Q 0.75,28.8 1.5,28.6 4.05,27.9 5.85,27.75 7.45,27.6 9.7,27.8 v 3.95 -3.95"
         fill="#999999"
         fill-rule="evenodd"
         stroke="none"
         id="path5" />
      <path
         d="M 2.8,0 H 0.25 M 9.7,0 H 5.4 m 16.15,0 h 10.7 M 20.55,0 H 9.7"
         fill="none"
         stroke="#666666"
         stroke-linecap="round"
         stroke-linejoin="round"
         stroke-width="4"
         id="path6" />
      <path
         d="m 9.7,-0.4 h 65 V 40.5 H 47.05 L 45.5,40.7 27,40.65 25.95,40.5 H 9.7 -0.5 V -0.4 H 9.7 V 40.5 -0.4"
         fill="#ffffff"
         fill-rule="evenodd"
         stroke="none"
         id="path7" />
    </g>
    <g
       id="shape1"
       transform="translate(-3.1,-0.95)">
      <path
         d="m 54.55,26.75 -0.6,-0.15 2.5,2.1 1.3,0.95 1.3,0.8 2.7,1.05 0.9,0.15 0.7,-0.25 0.6,-0.3 0.6,-0.6 q 1.35,-1.7 3.35,-1.45 0.95,0.1 1.8,0.65 0.8,0.6 1.2,1.45 0.5,1.15 0.15,2.55 -0.3,1.25 -1.25,2.2 -1.75,1.65 -4.75,1.75 -2.9,0.05 -5.8,-1.3 l -3.1,-1.95 -0.9,-0.75 q 1,1.95 2.35,4 l 0.65,1.3 q 0.35,1.1 -0.1,2 H 42.75 Q 42.4,40.05 42.3,38.7 L 42.2,36.45 40.25,35.2 q -1.5,-1.15 -2.3,-2.85 -0.8,-1.75 -0.6,-3.55 0.1,-1.15 1,-3.05 l 0.7,-1.2 2.05,-2.15 1.5,-1.1 q 1.7,-1.2 3.15,-1.65 l 0.7,-0.15 -0.05,-0.2 q -0.8,-2 -0.8,-4.8 0,-1 0.15,-1.5 L 46.2,11.75 47.35,9.4 q 1,-1.6 2.5,-2.7 Q 51.8,3.95 54.35,1.75 54.7,1.4 55.1,1.25 56.05,0.9 57,1.85 l 1.2,1.75 0.8,1 0.3,0.5 2.25,1.05 q 1.9,0.9 3.1,2.4 1.25,1.5 2.05,3.35 0.85,1.8 1.1,3.2 l 0.05,0.5 2.1,2.6 0.55,0.9 0.1,0.95 q -0.15,0.75 -0.95,1.4 l -1.6,0.75 -2.35,0.7 -1.3,1.6 -1.05,1.05 q -2.2,1.65 -6.2,1.45 l -2.6,-0.25 M 54.6,11.5 q -1.2,0.95 -1.2,2.5 -0.1,1.5 1.15,2.5 1.2,1 2.7,0.7 1.15,-0.25 1.8,-1.05 0.7,-0.8 0.8,-1.9 0.1,-1.65 -1.15,-2.7 -0.8,-0.75 -2.05,-0.75 -1.1,0 -2.05,0.7 m 6.9,12.4 q 0.9,0.65 2.05,0.5 1.15,-0.25 1.75,-1.15 0.85,-1.25 0.25,-2.55 -0.6,-1.35 -2,-1.6 Q 62,18.95 61.1,20 q -0.95,1.05 -0.55,2.5 l 0.35,0.75 0.6,0.65 M 39.05,4.25 37.15,4 35.3,3.95 q -2,0.2 -3.7,1.25 L 31.25,5.25 31.1,4.9 31.4,4.4 Q 33.7,2.1 36.65,1.65 L 38.6,1.6 41.5,1.95 41.6,1.6 41.8,1.25 q 0.25,-0.35 0.65,-0.3 0.35,0.05 0.6,0.4 l 0.45,0.8 0.9,3 0.1,0.25 q 0.35,0.8 0,1.35 L 43.95,7.1 H 43.2 L 41.3,6.9 40.5,7 Q 40.15,6.9 39.95,6.45 39.7,6.1 39.75,5.7 l 0.1,-0.65 0.2,-0.2 0.1,-0.05 -1.1,-0.55 m -3.2,13.9 1.9,0.25 1.9,0.05 q 2,-0.15 3.65,-1.25 l 0.4,-0.05 0.1,0.35 -0.3,0.55 q -2.25,2.3 -5.25,2.7 L 36.3,20.85 33.45,20.5 33.3,20.85 33.1,21.15 32.5,21.5 31.85,21.05 31.4,20.25 30.6,17.7 30.55,17.3 30.4,17 q -0.35,-0.75 0,-1.35 0.2,-0.25 0.6,-0.3 h 0.7 l 1.95,0.15 0.8,-0.05 0.55,0.5 0.2,0.8 -0.15,0.6 -0.2,0.25 -0.05,0.05 1.05,0.5 m 19.1,0.65 v -0.2 l -0.2,-0.55 Q 54.5,17.8 54.15,17.9 l -0.1,0.05 -0.25,0.3 -0.15,0.3 -0.1,0.35 -0.15,0.7 0.15,0.8 0.7,0.75 0.9,0.4 0.7,0.1 h 0.05 l -0.1,0.35 -0.05,0.8 0.05,0.2 0.5,0.85 q 0.25,0.2 0.85,0.4 l 0.6,0.2 1.1,-0.15 0.2,-0.15 0.1,-0.35 Q 59.1,23.5 58.7,23.3 l -0.65,-0.15 -0.5,-0.35 0.1,-0.75 0.4,-0.3 0.1,-0.1 0.1,-0.2 V 20.8 20.75 20.6 L 58.2,20.4 58.1,20.15 57.95,20 56.9,19.85 56.1,20 55.7,19.9 55.15,19.6 54.9,19.25 V 19 l 0.05,-0.2 m -12.8,10.45 q 0.05,0.7 0.65,1.2 0.55,-3.05 1.75,-6.05 -1.4,1.35 -2.2,3.45 -0.3,0.9 -0.2,1.4"
         fill="#999999"
         fill-rule="evenodd"
         stroke="none"
         id="path8" />
      <path
         d="M 61.5,23.9 60.9,23.25 60.55,22.5 q -0.4,-1.45 0.55,-2.5 0.9,-1.05 2.45,-0.9 1.4,0.25 2,1.6 0.6,1.3 -0.25,2.55 -0.6,0.9 -1.75,1.15 -1.15,0.15 -2.05,-0.5 M 54.6,11.5 q 0.95,-0.7 2.05,-0.7 1.25,0 2.05,0.75 1.25,1.05 1.15,2.7 -0.1,1.1 -0.8,1.9 -0.65,0.8 -1.8,1.05 -1.5,0.3 -2.7,-0.7 -1.25,-1 -1.15,-2.5 0,-1.55 1.2,-2.5 m 0.35,7.3 -0.05,0.2 v 0.25 l 0.25,0.35 0.55,0.3 0.4,0.1 0.8,-0.15 1.05,0.15 0.15,0.15 0.1,0.25 0.05,0.2 v 0.15 0.05 0.65 l -0.1,0.2 -0.1,0.1 -0.4,0.3 -0.1,0.75 0.5,0.35 0.65,0.15 q 0.4,0.2 0.45,0.5 l -0.1,0.35 -0.2,0.15 -1.1,0.15 -0.6,-0.2 q -0.6,-0.2 -0.85,-0.4 L 55.8,23 55.75,22.8 55.8,22 55.9,21.65 h -0.05 l -0.7,-0.1 -0.9,-0.4 -0.7,-0.75 -0.15,-0.8 0.15,-0.7 0.1,-0.35 0.15,-0.3 0.25,-0.3 0.1,-0.05 q 0.35,-0.1 0.6,0.15 l 0.2,0.55 v 0.2"
         fill="#ffffff"
         fill-rule="evenodd"
         stroke="none"
         id="path9" />
      <path
         d="m 19.05,10.95 0.1,-0.05 q 1.6,0 2.4,1.4 0.6,1.15 0.25,2.2 h -0.1 l -0.5,0.2 q -0.8,0.3 -1.15,0.55 l -0.75,0.6 -0.35,0.45 -0.05,0.1 q -1.15,-0.1 -1.8,-0.95 0.9,-1.85 0.85,-4.2 0.5,-0.3 1.1,-0.3 m -2.85,10.1 0.1,-0.2 -0.05,-0.1 0.05,-0.1 v -0.2 l -0.05,-0.1 -0.15,-0.2 v -0.1 L 15.75,19.6 15.7,19.45 15.5,19.25 15.45,19.05 15.25,18.7 V 18.55 L 15.2,18.3 q 0,-0.3 0.25,-0.4 h 0.5 l 0.4,0.3 1.3,0.8 0.15,-0.05 1.05,-0.1 0.25,-0.05 h 0.2 l 0.5,-0.1 0.65,0.05 q 0.4,0.1 0.5,0.3 v 0.45 l -0.4,0.25 -0.15,-0.05 -2,0.75 -0.3,0.15 -0.2,0.1 -0.1,0.3 -0.1,0.1 v 0.2 l -0.1,0.3 -0.15,0.25 -0.05,0.1 -0.05,0.2 -0.2,0.4 v 0.25 l -0.05,0.15 v 0.1 l -0.05,0.25 -0.2,0.1 v 0.05 q -0.3,0 -0.45,-0.2 l -0.2,-1 L 16.25,22 16.2,21.55 16.15,21.4 v -0.1 l 0.05,-0.05 v -0.2 m -6.1,2.7 -0.45,-0.3 -0.3,-0.3 Q 8.8,22.55 8.7,21.7 8.55,20.85 8.95,20.1 l 0.25,0.1 1.9,-0.05 2.2,-0.95 q 0.65,0.5 0.85,1.3 l 0.1,0.4 -0.15,0.05 -0.55,0.5 -0.3,0.45 -0.45,1.15 -0.1,0.2 -0.1,0.65 -0.85,0.2 -1.65,-0.35"
         fill="#ffffff"
         fill-rule="evenodd"
         stroke="none"
         id="path10" />
      <path
         d="m 37.8,5.65 1.4,0.45 q 2.1,0.85 3.55,0.45 L 44.2,6 q 0.9,-0.25 1.45,0.25 0.45,0.4 0.25,1.55 l -0.5,2.3 q -1.4,5.1 -6.2,8 l -1.4,0.7 -0.55,0.1 -0.6,-0.1 -1.45,-0.7 Q 30.4,15.2 29,10.1 L 28.5,7.8 Q 28.3,6.65 28.75,6.25 29.3,5.75 30.2,6 l 1.45,0.55 Q 33.1,6.95 35.2,6.1 l 1.4,-0.45 h 1.2 m -3.3,9.05 2.7,2.7 3.1,-3.05 Q 42.45,12 43.2,8.95 L 41.1,9.05 38.85,8.85 38.1,8.7 37.6,8.55 37.25,8.45 37.2,8.4 36.3,8.7 35.55,8.85 33.95,9 33.3,9.05 31.2,8.95 q 0.4,1.6 1.2,3 l 1.25,1.85 0.45,0.55 0.4,0.35 M 19.75,26.75 17.15,27 q -4,0.2 -6.2,-1.45 L 9.9,24.5 8.6,22.9 6.25,22.2 4.65,21.45 Q 3.85,20.8 3.7,20.05 L 3.8,19.1 4.35,18.2 6.45,15.6 6.5,15.1 q 0.25,-1.4 1.1,-3.2 0.8,-1.85 2.05,-3.35 1.2,-1.5 3.1,-2.4 Q 14.6,5.25 15,5.1 l 0.3,-0.5 0.8,-1 1.2,-1.75 q 0.95,-0.95 1.9,-0.6 l 0.75,0.5 q 2.55,2.2 4.5,4.95 1.5,1.1 2.5,2.7 l 1.15,2.35 0.45,1.25 0.15,1.5 q 0,2.8 -0.8,4.8 l -0.05,0.2 0.7,0.15 q 1.45,0.45 3.15,1.65 0.95,0.6 1.5,1.1 l 2.05,2.15 0.7,1.2 q 0.9,1.9 1,3.05 0.2,1.8 -0.6,3.55 -0.8,1.7 -2.3,2.85 L 32.1,36.45 32,38.7 31.55,40.95 h -15.4 q -0.45,-0.9 -0.1,-2 l 0.65,-1.3 2.35,-4 -0.9,0.75 -3.1,1.95 q -2.9,1.35 -5.8,1.3 Q 6.25,37.55 4.5,35.9 3.55,34.95 3.25,33.7 2.9,32.3 3.4,31.15 3.8,30.3 4.6,29.7 5.45,29.15 6.4,29.05 8.4,28.8 9.75,30.5 l 0.6,0.6 0.6,0.3 0.7,0.25 0.9,-0.15 2.7,-1.05 1.3,-0.8 1.3,-0.95 2.5,-2.1 -0.6,0.15 m -9.65,-3 1.65,0.35 0.85,-0.2 0.1,-0.65 0.1,-0.2 0.45,-1.15 0.3,-0.45 0.55,-0.5 0.15,-0.05 -0.1,-0.4 Q 13.95,19.7 13.3,19.2 L 11.1,20.15 9.2,20.2 8.95,20.1 q -0.4,0.75 -0.25,1.6 0.1,0.85 0.65,1.45 l 0.3,0.3 0.45,0.3 m 6.1,-2.7 v 0.2 l -0.05,0.05 v 0.1 l 0.05,0.15 0.05,0.45 -0.05,0.25 0.2,1 q 0.15,0.2 0.45,0.2 V 23.4 l 0.2,-0.1 0.05,-0.25 v -0.1 l 0.05,-0.15 v -0.25 l 0.2,-0.4 0.05,-0.2 0.05,-0.1 0.15,-0.25 0.1,-0.3 v -0.2 l 0.1,-0.1 0.1,-0.3 0.2,-0.1 0.3,-0.15 2,-0.75 0.15,0.05 0.4,-0.25 v -0.45 q -0.1,-0.2 -0.5,-0.3 L 19.8,18.7 19.3,18.8 h -0.2 l -0.25,0.05 -1.05,0.1 -0.15,0.05 -1.3,-0.8 -0.4,-0.3 h -0.5 Q 15.2,18 15.2,18.3 l 0.05,0.25 v 0.15 l 0.2,0.35 0.05,0.2 0.2,0.2 0.05,0.15 0.35,0.45 v 0.1 l 0.15,0.2 0.05,0.1 v 0.2 l -0.05,0.1 0.05,0.1 -0.1,0.2 m 2.85,-10.1 q -0.6,0 -1.1,0.3 0.05,2.35 -0.85,4.2 0.65,0.85 1.8,0.95 l 0.05,-0.1 0.35,-0.45 0.75,-0.6 Q 20.4,15 21.2,14.7 l 0.5,-0.2 h 0.1 q 0.35,-1.05 -0.25,-2.2 -0.8,-1.4 -2.4,-1.4 l -0.1,0.05 m 13.1,18.3 q 0.1,-0.5 -0.2,-1.4 -0.8,-2.1 -2.2,-3.45 1.2,3 1.75,6.05 0.6,-0.5 0.65,-1.2"
         fill="#000000"
         fill-rule="evenodd"
         stroke="none"
         id="path11" />
      <path
         d="m 37.25,8.45 0.35,0.1 0.5,0.15 0.75,0.15 2.25,0.2 2.1,-0.1 q -0.75,3.05 -2.9,5.4 l -3.1,3.05 -2.7,-2.7 0.3,-0.8 0.4,-1.1 0.25,-0.5 0.6,-1.3 0.7,-1.8 0.5,-0.75 m -3.6,5.35 -1.25,-1.85 0.4,-0.9 0.9,-1.6 0.25,-0.45 1.6,-0.15 -0.85,2.1 -0.1,0.35 -0.95,2.5"
         fill="#999999"
         fill-rule="evenodd"
         stroke="none"
         id="path12" />
    </g>
    <g
       id="shape2"
       transform="translate(2,2.05)">
      <path
         d="M -0.5,-0.4 V -0.55 H 75.1 V -0.4 40.8 H -0.5 Z"
         fill="none"
         stroke="#000000"
         stroke-linecap="round"
         stroke-linejoin="round"
         stroke-width="3"
         id="path13" />
    </g>
  </defs>
</svg>
