<?xml version="1.0" encoding="UTF-8" standalone="no"?>
<svg
   ffdec:objectType="frame"
   height="44.349998"
   width="78.599998"
   version="1.1"
   id="svg10"
   sodipodi:docname="77.svg"
   xmlns:inkscape="http://www.inkscape.org/namespaces/inkscape"
   xmlns:sodipodi="http://sodipodi.sourceforge.net/DTD/sodipodi-0.dtd"
   xmlns:xlink="http://www.w3.org/1999/xlink"
   xmlns="http://www.w3.org/2000/svg"
   xmlns:svg="http://www.w3.org/2000/svg"
   xmlns:ffdec="https://www.free-decompiler.com/flash">
  <sodipodi:namedview
     id="namedview10"
     pagecolor="#ffffff"
     bordercolor="#000000"
     borderopacity="0.25"
     inkscape:showpageshadow="2"
     inkscape:pageopacity="0.0"
     inkscape:pagecheckerboard="0"
     inkscape:deskcolor="#d1d1d1"
     fit-margin-top="5"
     fit-margin-left="5"
     fit-margin-right="5"
     fit-margin-bottom="5" />
  <g
     transform="translate(2,2.05)"
     id="g3">
    <use
       ffdec:characterId="1"
       height="42.700001"
       transform="translate(-1.75,-2)"
       width="76.449997"
       xlink:href="#shape0"
       id="use1" />
    <use
       ffdec:characterId="76"
       height="41.200001"
       transform="translate(0.3,-0.45)"
       width="75.5"
       xlink:href="#shape1"
       id="use2" />
    <use
       ffdec:characterId="3"
       height="44.349998"
       transform="translate(-2,-2.05)"
       width="78.599998"
       xlink:href="#shape2"
       id="use3" />
  </g>
  <defs
     id="defs10">
    <g
       id="shape0"
       transform="translate(1.75,2)">
      <path
         d="M 2.8,0 V -0.4 H 5.4 V 0 H 9.7 V 19.45 0 H 20.55 L 19.3,19.45 H 9.7 0.25 V 0 H 2.8"
         fill="#ffffff"
         fill-rule="evenodd"
         stroke="none"
         id="path3" />
      <path
         d="M 0.25,19.45 H 9.7 19.3 L 18.7,28.6 16,28.5 10.95,27.95 9.7,27.8 Q 7.45,27.6 5.85,27.75 4.05,27.9 1.5,28.6 0.75,28.8 0.25,29.15 v -9.7 m 9.45,0 v 8.35 -8.35"
         fill="#121212"
         fill-rule="evenodd"
         stroke="none"
         id="path4" />
      <path
         d="m 9.7,27.8 1.25,0.15 5.05,0.55 2.7,0.1 h 1.05 l 3.75,0.15 q 2.45,0.3 3.6,1.25 0.6,0.5 0.6,1.1 0,0.65 -0.8,1 l -1.3,0.2 -7.15,0.15 -5.6,-0.3 L 9.7,31.75 7.95,31.6 3.1,31.95 0.95,32.3 0.25,32.1 -0.35,31.55 -0.5,31.3 V 29.9 L 0.25,29.15 Q 0.75,28.8 1.5,28.6 4.05,27.9 5.85,27.75 7.45,27.6 9.7,27.8 v 3.95 -3.95"
         fill="#999999"
         fill-rule="evenodd"
         stroke="none"
         id="path5" />
      <path
         d="M 2.8,0 H 0.25 M 9.7,0 H 5.4 m 16.15,0 h 10.7 M 20.55,0 H 9.7"
         fill="none"
         stroke="#666666"
         stroke-linecap="round"
         stroke-linejoin="round"
         stroke-width="4"
         id="path6" />
      <path
         d="m 9.7,-0.4 h 65 V 40.5 H 47.05 L 45.5,40.7 27,40.65 25.95,40.5 H 9.7 -0.5 V -0.4 H 9.7 V 40.5 -0.4"
         fill="#ffffff"
         fill-rule="evenodd"
         stroke="none"
         id="path7" />
    </g>
    <g
       id="shape1"
       transform="translate(-0.3,0.45)">
      <path
         d="m 28.45,3.45 h -0.3 L 24.95,2.8 19.8,2.3 l -2.15,0.5 -1.1,0.4 -1.4,1 -2,2.05 Q 12.8,6.35 12.8,5.95 l 0.15,-0.5 q 1.1,-1.75 4.35,-4.4 l 0.95,-0.7 1.25,-0.45 5.2,-0.2 1.1,0.25 q 0.95,0.3 2,1.45 0.95,0.95 0.85,1.75 l -0.2,0.3 m 42.95,5.8 q 0.35,0.35 0.1,0.6 L 70.95,9.75 Q 69.3,8.7 66.8,8.6 L 64.65,8.65 62.5,8.8 58.9,9 q -6.4,0.6 -12.95,5.85 -1.3,1.1 -2.1,1.3 L 42.95,16 Q 42.6,15.6 43,14.9 q 0.55,-1.05 1.75,-2.1 5.1,-4.7 11.75,-5.9 6.8,-1.25 13.1,1.25 1.3,0.5 1.8,1.1 M 62.6,20 56.45,19.3 43.25,18.55 42.35,18.4 q -0.45,-0.2 -0.45,-0.65 0,-0.6 0.7,-0.7 l 1.05,0.05 h 1.4 l -0.2,-0.4 q -0.15,-0.75 0.7,-1.15 L 47,15.3 q 3.35,0 9.1,1.05 l 5.85,1.05 4,0.95 0.45,0.25 q 0.35,0.1 0.5,0.4 0.15,0.4 -0.1,0.75 v 0.05 l 0.05,0.05 0.5,-0.15 -0.05,-0.3 0.1,-0.95 -0.2,-0.05 -0.75,-0.3 Q 64.65,17 62.4,16.45 L 55,15 53.65,14.5 h -2.2 l -0.9,-0.05 q -0.45,-0.1 -0.75,-0.4 l -0.15,-0.45 0.2,-0.4 q 0.25,-0.3 0.9,-0.4 l 1.05,-0.1 0.65,-0.15 1.15,-0.1 q 0.4,-0.25 1,-0.35 l 1.7,-0.2 q 5.25,-0.6 7.75,0.1 1.8,0.5 3.4,1.7 l 0.65,0.55 q 1.3,-1.5 3.35,-1.4 2.1,0.1 3.3,1.7 1.55,2 0.8,5.65 -0.9,4.65 -4.35,8.5 -3.15,3.5 -7.9,5.45 l -5.85,1.85 -2.1,0.45 q -0.75,0.15 -0.75,-0.3 0,-0.3 0.45,-0.4 7.1,-2.5 11.15,-5.85 5.5,-4.5 6.65,-10.4 0.3,-1.9 -0.15,-2.9 l -0.8,-0.95 -1.25,-0.2 Q 69.35,15.4 68.6,14.9 l 0.1,0.2 q 0.5,1.05 0,1.85 l -0.15,0.25 q 0.9,-0.25 1.55,0.4 l 0.55,0.95 0.15,1.55 -0.35,1.65 -0.95,0.8 -0.25,1.1 Q 68.6,24.95 67.4,24.7 66.65,24.55 66.2,23.75 65.85,23.1 65.85,22.2 65.8,21.25 66.1,20.65 L 62.6,20 M 40.45,22.1 H 39.2 q -0.7,-0.15 -0.85,-0.8 -0.1,-0.6 0.6,-1 L 40.1,20 q 1.85,-0.15 4.8,0.1 l 4.8,0.55 13.55,1.75 q 0.65,0.1 0.75,0.4 l -0.1,0.5 q 0.35,0.05 0.7,0.4 l 0.4,0.8 0.2,0.75 q 0.45,1.3 0.1,1.95 l -0.75,0.65 -1,-0.05 q -0.5,-0.25 -0.75,-0.9 -0.2,-0.5 -0.1,-1.2 l 0.05,-0.65 -0.1,-0.6 q -0.1,-0.6 0.4,-0.9 h -0.2 l -5,-0.45 -2.45,-0.15 -5,-0.15 -5,-0.55 -4.95,-0.15 M 5.95,25.95 6.8,24.6 q 0.7,-0.8 1.95,-1.8 3.8,-3.15 12.45,-9.1 l 2.3,-1.6 Q 25.55,10.7 26.95,10 L 28.6,9.8 V 9.65 l -0.25,-2.6 q 0,-0.6 0.4,-1 L 28.1,5.2 28.05,5.8 Q 28,6.5 27.2,7.1 l -1.45,0.75 q -1.95,0.9 -5.8,3.4 l -7.65,5.1 -2.1,1.2 -0.7,0.05 Q 9,17.3 9.45,16.4 l 1.65,-1.8 3.25,-2.85 q 1.9,-1.5 5.55,-3.5 l 5.65,-3.3 q 1.2,-0.75 1.85,-0.5 l 0.6,0.5 q -0.1,-0.4 0.1,-0.75 0.4,-0.7 1.6,-0.5 2.7,0.35 4.5,3.05 1.3,2.1 1.65,5.3 0.2,2.2 -0.1,4.4 l 2.65,-1.75 0.2,-0.1 q 1.25,-0.9 2.7,-1.7 l 0.45,0.05 -0.15,0.35 -2.05,2.05 q -3.75,4.05 -5.1,6.6 -1.45,2.65 -2,5.7 -0.4,2.15 0.1,3.3 0.75,1.9 3.1,2.5 l 1.25,0.35 0.45,0.3 v -0.45 q 0.15,-0.8 0.95,-1.3 l 1.6,-0.15 1,0.3 h 0.7 q 0.65,0 1.15,0.3 l 0.15,0.05 0.15,-0.15 q 0.4,-0.7 1.3,-0.6 0.85,0.2 1,1 l 0.05,1 -0.05,0.7 -0.7,0.75 -1,0.25 -0.35,0.05 v 0.3 q -0.05,0.75 -1.15,1.35 -5.1,3.1 -10.25,2.3 -1.05,-0.2 -1.65,-0.55 L 29.4,38.6 q -1.9,-1.75 -2.45,-3.65 -0.35,-1.05 0,-1.85 0.2,-0.5 0.5,-0.55 0.6,-0.15 0.9,0.65 l 0.25,1.2 0.6,0.8 Q 31.05,36.9 34,37 L 33.85,36.95 Q 33.5,36.9 33.1,36.65 L 32.75,36.5 Q 32,36.15 31.2,35.5 30.15,34.7 29.65,33.9 29.2,33.1 29.05,32.15 l -0.15,-1.8 q -3.35,3.6 -8.15,6.75 l -0.5,0.1 Q 19.8,37 20.4,36.4 q 6.2,-5.95 9.1,-11.05 3.9,-7.15 3,-13.85 l -0.75,-2.65 -0.15,1.6 -0.05,0.5 v 1 l -0.25,1.2 q -0.4,1.1 -1.6,1 -0.5,-0.05 -0.9,-0.4 -0.4,-0.4 -0.5,-0.9 l 0.05,-0.65 q -1.95,2.2 -5.1,4.55 L 17.4,20.85 13.6,23.8 13.4,24 13,24.4 q -2.1,2.15 -4.4,3.5 L 7.75,28.45 7,29.05 6.1,29.3 Q 5.65,29.25 5.35,28.85 5.1,28.45 5.2,28.05 q 0.1,-0.4 0.55,-0.8 -0.15,-0.5 0.2,-1.3 m 52.45,-0.4 q 0.1,0.95 -0.95,1.4 l -0.85,0.25 -0.85,0.2 q -0.8,0.2 -3.65,1.55 -5.45,2.6 -11.35,2.3 -2.35,-0.1 -3.65,-0.8 -2,-0.95 -2.3,-2.8 -0.25,-1.85 1.4,-3.8 0.6,-0.8 1.35,-1.05 l 1.8,-0.1 17.75,1.25 2.55,0.15 q 0.55,0.1 0.7,0.35 L 60.3,25 59.7,25.4 58.4,25.55 M 48.2,31.1 q 0.35,-0.35 0.85,-0.45 l 0.9,0.15 q 0.5,0.2 0.75,0.9 l 0.2,1.2 q 0.1,1.2 -0.5,1.8 -0.6,0.6 -1.35,0.5 -0.75,-0.15 -1.15,-0.8 l -0.25,-1.25 q 0,-1.5 0.55,-2.05 m -21.75,-14.2 -2.3,2.4 q 0.25,0.55 -0.1,1.2 l -0.65,0.65 -0.2,0.2 -0.15,1 q -0.2,0.9 -1.25,2.2 l -2.55,2.85 -5.05,5.2 0.25,-0.1 0.6,-0.2 0.5,-0.35 q 0.7,-0.5 1.65,-0.4 l 1,0.35 0.7,0.3 0.85,0.85 q 0.6,1.15 -0.05,2.2 l -1,0.95 -0.75,0.4 -0.75,0.3 -0.45,0.35 -0.7,0.4 -0.55,0.55 q -1.2,1.05 -3.6,1.9 l -1.5,0.4 Q 8.05,41.05 5.65,40.5 4.45,40.25 3.8,39.8 L 2.2,38.35 Q 1.45,37.4 1,36.25 0.5,35.05 0.3,33.9 v -0.5 q 0.1,-0.25 0.35,-0.25 l 0.45,0.55 0.4,0.5 0.65,0.95 0.65,0.9 0.9,0.6 1.1,0.6 1.3,0.6 L 9.55,38 12.1,37.35 12,37.25 q -0.65,-0.55 -0.55,-1.4 0.1,-0.9 0.75,-1.25 0.25,-0.2 0.6,-0.3 l 0.25,-0.1 0.15,-0.3 0.2,-0.5 -0.95,0.55 -1.3,0.35 -1.1,0.6 -1.15,0.45 -0.8,-0.1 -0.4,-0.15 0.1,0.25 q 0.3,0.55 0,1 -0.25,0.4 -1.1,0.4 L 5.05,36.55 Q 4.15,36.2 3.3,34.95 0.4,30.55 1.7,24.25 2.5,20.35 5.9,14.05 7.65,10.85 9.05,9.45 9.3,9.2 9.5,9.25 L 9.75,9.7 9.5,10.15 Q 7.6,12.7 6.45,16.4 5.6,19 4.85,23.25 4.5,24.8 4.45,26.2 q 0,1.8 0.4,3.7 l 0.35,1.25 1,-1.05 q 8.25,-6.25 19.6,-14.35 0.5,-0.3 0.75,-0.2 L 26.9,16 q 0.5,-0.8 1.35,-0.8 1.1,-0.1 1.7,0.85 l 0.3,0.95 0.05,1.05 q -0.15,0.6 -0.65,0.85 L 28.85,19 Q 27.5,18.9 26.9,18.1 26.45,17.45 26.6,16.75 l -0.15,0.15 m -2.95,12.5 -0.25,1.1 -1.1,0.85 -1.35,-0.1 -1.05,-0.85 -0.6,-1.05 q -0.25,-1.15 0.65,-1.9 0.9,-0.7 2,-0.2 l 1,0.85 q 0.6,0.65 0.7,1.3"
         fill="#999999"
         fill-rule="evenodd"
         stroke="none"
         id="path8" />
      <path
         d="M 60.25,9.45 63.6,9.6 66.1,10 q 1.9,0.6 3.35,2.05 1.55,1.45 2.2,3.3 0.5,1.55 0.5,2.7 -0.1,2.05 -1.5,4.5 -2.75,4.75 -8.25,8.1 -4.1,2.45 -10.75,4.5 -3.95,1.2 -6.75,1.45 -3.75,0.35 -6.6,-0.75 l -2.05,-1.2 q -1.15,-0.9 -2.1,-3.3 L 33.8,31 Q 33.05,29.9 33.05,28.4 33,27.05 33.6,25.75 q 0.65,-1.45 2.3,-3.4 4.8,-5.65 10.85,-9 6.55,-3.6 13.5,-3.9 m 8.5,10.3 q -1.9,2.75 -5.7,5.55 -5.5,3.8 -13.1,6.5 -3.95,1.35 -6.6,1.65 -2.4,0.4 -4.5,0.05 1.45,0.8 3.2,0.95 L 46.95,34 q 7.1,-1.55 11.75,-4 6.1,-3.15 9.45,-8.05 l 1.05,-2.2 0.2,-0.95 -0.65,0.95 M 67.3,14.4 q -0.4,-0.65 -1.6,-1.2 -1.25,-0.6 -5,-0.95 -3.8,-0.35 -11,3 -7.25,3.3 -10.25,7.05 -3,3.65 -3.15,4.7 -0.1,1.05 0.1,1.65 0.2,0.55 0.85,0.95 1.55,0.9 4.5,0.65 7,-0.65 15.5,-4.85 6.55,-3.2 9.3,-7.05 Q 68.3,16 67.3,14.4 m -10.8,3.25 h 0.95 q 0.95,0.1 1.1,1.05 0.15,0.95 -0.6,1.45 l -0.9,0.35 -1.8,0.9 -0.5,0.35 -0.05,0.3 v 2.75 l -0.1,0.95 -0.9,0.65 q -0.6,0 -0.95,-0.5 l -0.3,-0.7 -0.35,-0.5 -1.15,-1.2 -3.5,1.6 -0.7,0.45 Q 46.1,25.8 45.6,25.3 q -0.5,-0.4 -0.4,-1.1 0.05,-0.45 0.55,-1.15 l 2.15,-3 -1.05,-0.85 q -0.35,-0.35 -0.25,-0.95 0.1,-0.6 0.55,-0.85 l 1.05,-0.15 1.2,0.15 0.7,0.05 0.4,-0.35 2.45,-2.3 0.75,-0.45 0.85,0.15 0.3,0.95 v 1.95 l 1.3,0.3 0.35,-0.05 M 17.15,4.4 Q 18.6,3.25 20,2.65 21.05,1.9 22.25,1.55 l 4,-0.2 q 2.05,0.3 3.6,1.5 1.35,0.95 2,1.95 1.05,1.7 1.25,4.55 0.45,5.5 -2.25,11.3 -1.95,4.4 -6.25,9.8 -2.6,3.2 -4.75,5 -2.9,2.45 -5.9,3.1 L 11.6,38.8 Q 10.15,38.7 8,37.25 l -0.5,-0.1 q -1.2,-0.5 -2.05,-1.7 -0.85,-1.15 -1.1,-2.5 -0.3,-1.6 0,-4.1 0.8,-7.45 3.9,-13.6 Q 11.6,8.6 17.15,4.4 M 25.8,4.45 23.8,4.4 Q 22.45,4.65 19.1,6.5 15.75,8.3 11.75,15.15 7.6,22 7.2,26.75 6.8,31.5 7.3,32.45 l 1.05,1.3 q 0.4,0.35 1.25,0.3 1.8,-0.15 4,-2.05 5.5,-4.45 10.1,-12.7 3.55,-6.4 3.7,-11.1 0.05,-2.95 -1.6,-3.75 m 4.25,3.7 Q 30,11.4 28.4,15.9 26,22.15 21.3,28.65 q -2.55,3.4 -4.5,5.1 -1.8,1.7 -3.7,2.55 1.6,-0.15 3.15,-0.9 1.65,-0.95 3.8,-3.2 4.95,-5.3 7.45,-10 3.2,-6.05 3.25,-11.9 L 30.35,7.85 30,6.95 l 0.05,1.2 m -9.6,10.3 q -0.65,0.1 -1.2,-0.4 -0.45,-0.45 -0.55,-1.15 0,-0.65 0.3,-1.25 l 0.25,-0.65 -0.3,-0.8 -0.75,-0.1 -0.5,0.1 -0.25,0.15 -1.2,1.2 q -0.65,1 -1.2,2.65 l -0.95,3.4 q -0.2,0.55 0.15,0.7 h 0.4 l 1.1,-0.7 1.2,-0.65 q 0.75,-0.2 1.45,0.25 0.65,0.4 0.75,1.25 0,1 -1.1,2 -1.3,1.1 -2.75,1.4 v 0.6 q -0.25,1.2 -1.5,1.55 -1.25,0.25 -1.95,-0.8 -0.65,-1 0,-2.05 -0.8,-0.55 -1.15,-1.45 -0.45,-1.15 -0.05,-3.05 0.6,-3 2.5,-5.7 l 1.55,-1.9 1.4,-1.3 q 0.75,-0.45 1.5,-0.5 l 0.2,-0.05 0.05,-0.25 q 0.65,-1.35 1.2,-1.7 1.05,-0.55 2,0.2 0.9,0.8 0.45,2 l -0.2,0.45 q 0.85,0.85 1.05,1.6 l 0.05,1.3 -0.05,0.85 -0.35,1.6 q -0.55,1.15 -1.55,1.2"
         fill="#000000"
         fill-rule="evenodd"
         stroke="none"
         id="path9" />
    </g>
    <g
       id="shape2"
       transform="translate(2,2.05)">
      <path
         d="M -0.5,-0.4 V -0.55 H 75.1 V -0.4 40.8 H -0.5 Z"
         fill="none"
         stroke="#000000"
         stroke-linecap="round"
         stroke-linejoin="round"
         stroke-width="3"
         id="path10" />
    </g>
  </defs>
</svg>
