<?xml version="1.0" encoding="UTF-8" standalone="no"?>
<svg
   ffdec:objectType="frame"
   height="60.549999"
   width="67.099998"
   version="1.1"
   id="svg7"
   sodipodi:docname="165.svg"
   xmlns:inkscape="http://www.inkscape.org/namespaces/inkscape"
   xmlns:sodipodi="http://sodipodi.sourceforge.net/DTD/sodipodi-0.dtd"
   xmlns:xlink="http://www.w3.org/1999/xlink"
   xmlns="http://www.w3.org/2000/svg"
   xmlns:svg="http://www.w3.org/2000/svg"
   xmlns:ffdec="https://www.free-decompiler.com/flash">
  <sodipodi:namedview
     id="namedview7"
     pagecolor="#ffffff"
     bordercolor="#000000"
     borderopacity="0.25"
     inkscape:showpageshadow="2"
     inkscape:pageopacity="0.0"
     inkscape:pagecheckerboard="0"
     inkscape:deskcolor="#d1d1d1"
     fit-margin-top="5"
     fit-margin-left="5"
     fit-margin-right="5"
     fit-margin-bottom="5" />
  <g
     transform="translate(1.5,1.5)"
     id="g3">
    <use
       ffdec:characterId="516"
       height="57.549999"
       width="64.099998"
       xlink:href="#shape0"
       id="use1" />
    <use
       ffdec:characterId="673"
       height="53"
       transform="translate(-0.25,2.3)"
       width="64.150002"
       xlink:href="#shape1"
       id="use2" />
    <use
       ffdec:characterId="518"
       height="60.549999"
       transform="translate(-1.5,-1.5)"
       width="67.099998"
       xlink:href="#shape2"
       id="use3" />
  </g>
  <defs
     id="defs7">
    <g
       id="shape0">
      <path
         d="M 53.6,0 H 64.1 V 57.55 H 53.6 28.25 0 V 0 H 28.25 53.6 V 57.55 0 M 28.25,0 V 57.55 0"
         fill="#ffffff"
         fill-rule="evenodd"
         stroke="none"
         id="path3" />
    </g>
    <g
       id="shape1"
       transform="translate(0.25,-2.3)">
      <path
         d="m 59.1,18.85 q 1.1,0.4 1.3,0.9 0.45,0.7 -0.15,1.7 l -1.45,1.1 q -0.55,0.35 -1.4,1 v 0.1 l 0.25,1 0.05,0.3 q 1,3.4 0.85,7.15 -0.2,3.9 -1.65,7.5 -1.2,2.85 -3.2,5.7 -4.05,5.6 -8.6,8 -4,2.05 -8.6,2 -4.7,-0.15 -8.6,-2.4 L 26.45,51.8 24.8,50.6 q -1.45,-1.2 -1.65,-2.15 -0.15,-1 0.35,-1.25 0.35,-0.2 1.05,0 l 2.9,1.2 q 0.55,0.1 1.45,0.7 1.2,0.5 2.15,0.65 2.3,0.4 5.85,-0.55 2.95,-0.75 4.25,-1.55 1.6,-0.9 2.75,-2.3 1.5,-1.6 2.35,-3.45 0.65,-2.7 -0.2,-5.55 L 45.5,34.8 45.15,34.1 44.65,33 43.7,33.7 v -0.05 l -1.85,1.3 q -0.8,0.6 -1.35,0.55 -0.9,-0.05 -1.25,-1.05 l -0.1,-1.75 1.3,-17.6 0.35,-1.65 q 0.35,-0.95 1.1,-1.15 l 1.6,0.05 q 3.15,0.9 7.85,3.05 l 7.75,3.45 M 4.7,38.75 Q 3.6,38.35 3.4,37.85 2.95,37.15 3.55,36.15 4.1,35.55 5,35.05 l 1.4,-1 v -0.1 l -0.3,-1.3 q -1,-3.4 -0.85,-7.15 0.2,-3.9 1.65,-7.5 1.2,-2.85 3.2,-5.7 4.05,-5.6 8.6,-8 4,-2.05 8.6,-2 4.7,0.15 8.6,2.4 L 37.35,5.8 39,7 q 1.45,1.2 1.65,2.15 0.15,1 -0.35,1.25 -0.35,0.2 -1.05,0 L 36.35,9.2 Q 35.8,9.1 34.9,8.5 L 32.75,7.85 q -2.3,-0.4 -5.85,0.55 -2.95,0.75 -4.25,1.55 -1.6,0.9 -2.75,2.3 -1.5,1.6 -2.35,3.45 -0.65,2.7 0.2,5.55 l 0.55,1.55 0.35,0.7 0.5,1.1 0.95,-0.7 v 0.05 l 1.85,-1.3 q 0.8,-0.6 1.35,-0.55 0.9,0.05 1.25,1.05 l 0.1,1.75 -1.3,17.6 L 23,44.15 Q 22.65,45.1 21.9,45.3 L 20.3,45.25 Q 17.15,44.35 12.45,42.2 6.3,39.4 4.7,38.75"
         fill="#999999"
         fill-rule="evenodd"
         stroke="none"
         id="path4" />
      <path
         d="m 62.65,37.85 h -0.1 l -2.45,0.25 -0.95,0.25 q 0.55,1.2 0.75,2.5 0.25,1.65 -0.4,2.65 l -1,0.95 -3.85,2.5 -1,0.45 q -1,0.25 -1.7,-0.5 L 51.3,46.15 q -0.25,-0.6 0,-1.35 0.35,-1 1.4,-1.9 0.75,-0.6 1.7,-1.05 l 0.9,-0.65 -0.55,-1.25 q -2.3,0.85 -3.85,0.95 -2.75,0.2 -4.35,-1.5 L 42.8,40.7 39.75,40.65 38.15,40.2 Q 37.55,39.8 37.2,38.85 36.35,36.6 37.05,34.3 37.4,32.9 38.4,32.5 l 1.1,-0.1 q 0.85,0.1 1.25,0.35 0.9,0.55 1,1.8 l -0.5,2.05 q 0.95,0.15 2.4,-0.5 l 1.6,-0.7 V 34.85 Q 45.4,33 46.4,31.3 l -0.6,-3.1 -0.7,-3.5 q -0.8,-2.65 -2.65,-4.6 l -1.6,-2 q -0.35,-0.75 -0.25,-1.85 0.2,-1.15 0.7,-1.75 0.6,-0.75 1.65,-1 l 2,0.05 q 1.75,0.55 2.95,2.55 0.85,1.35 1.3,3.3 l 0.65,3.6 q 0.35,1.9 0.3,3.25 l -0.05,1 Q 53.65,24.9 58.45,25 l 3.6,0.4 0.5,0.1 1.35,0.35 V 37.9 L 62.65,37.85 M 30.8,36.2 29.85,37.15 q -2.9,2.65 -8.05,2.55 l -2.5,-0.3 -0.2,-0.05 q 0.65,1.35 0.95,3.1 l 0.15,1.3 q -0.05,1.05 -0.5,1.85 l -0.05,0.55 q -0.15,0.7 -0.7,1.25 -0.55,0.5 -1.25,0.6 -1.5,0.25 -2.5,-1.1 -0.85,-1.25 -0.35,-2.75 l 0.8,-1.3 -0.05,-0.2 -0.5,-1.2 -1.5,-2 -0.4,-0.6 -2.45,-0.85 -3,-0.15 H 7.65 L 5.2,38.1 4.25,38.35 Q 4.8,39.55 5,40.85 5.25,42.5 4.6,43.5 l -1,0.95 -3.85,2.5 v -5.3 L 0.4,41.2 -0.15,39.95 -0.25,40 V 25.35 l 3.8,-0.35 3.6,0.4 0.5,0.1 q 2.55,0.55 4.4,1.55 l 0.05,-0.2 q 0.65,-2.45 2.65,-4.55 l 1.15,-1.05 -1.25,-1.2 q -0.5,-0.75 -0.2,-1.55 0.2,-0.8 1.1,-1.15 l 1.25,-0.15 3.85,0.45 1.7,0.55 0.75,0.45 0.2,0.15 1.15,0.25 2.9,1.25 q 1.7,0.9 2.5,1.45 2.15,1.65 2.9,4.15 0.8,2.35 0.2,5.5 -0.4,1.9 -1.25,3.4 l -0.25,-0.4 -0.8,-0.6 -0.05,-0.1 0.05,-0.15 0.2,-0.6 v -0.9 l -0.1,-0.75 q -0.3,-0.4 -0.6,-0.4 l -0.55,0.4 -0.5,1.1 -0.15,0.5 q -0.35,0.2 -0.75,0.75 l -2.65,-0.05 -0.5,-0.45 q -0.2,-0.8 -0.55,-1 -0.4,-0.25 -0.8,0.25 -0.25,0.35 -0.15,0.8 0.1,1.65 1.6,2.4 l 1.85,0.35 1.4,-0.2 1.1,-0.7 0.1,0.45 q 0.35,0.65 1,0.65 l 0.2,0.05 m -4.25,-5.9 1.1,-0.25 0.8,-0.85 Q 29,27.95 28.05,27 27.65,26.6 27,26.5 l -1.15,0.15 q -0.95,0.5 -1.05,1.6 0,0.85 0.45,1.35 0.45,0.6 1.3,0.7"
         fill="#000000"
         fill-rule="evenodd"
         stroke="none"
         id="path5" />
      <path
         d="m 31.7,34.8 -0.1,0.75 q -0.2,0.6 -0.8,0.65 l -0.2,-0.05 q -0.65,0 -1,-0.65 l -0.1,-0.45 -1.1,0.7 -1.4,0.2 -1.85,-0.35 q -1.5,-0.75 -1.6,-2.4 -0.1,-0.45 0.15,-0.8 0.4,-0.5 0.8,-0.25 0.35,0.2 0.55,1 l 0.5,0.45 2.65,0.05 q 0.4,-0.55 0.75,-0.75 l 0.15,-0.5 0.5,-1.1 0.55,-0.4 q 0.3,0 0.6,0.4 l 0.1,0.75 v 0.9 l -0.2,0.6 -0.05,0.15 0.05,0.1 0.8,0.6 0.25,0.4 m -5.15,-4.5 q -0.85,-0.1 -1.3,-0.7 -0.45,-0.5 -0.45,-1.35 0.1,-1.1 1.05,-1.6 L 27,26.5 q 0.65,0.1 1.05,0.5 0.95,0.95 0.4,2.2 l -0.8,0.85 -1.1,0.25"
         fill="#ffffff"
         fill-rule="evenodd"
         stroke="none"
         id="path6" />
    </g>
    <g
       id="shape2"
       transform="translate(1.5,1.5)">
      <path
         d="M 0,23.8 V 0 H 64.1 V 23.8 57.55 H 0 Z"
         fill="none"
         stroke="#000000"
         stroke-linecap="round"
         stroke-linejoin="round"
         stroke-width="3"
         id="path7" />
    </g>
  </defs>
</svg>
