<?xml version="1.0" encoding="UTF-8" standalone="no"?>
<svg
   ffdec:objectType="frame"
   height="60.549999"
   width="67.099998"
   version="1.1"
   id="svg9"
   sodipodi:docname="290.svg"
   xmlns:inkscape="http://www.inkscape.org/namespaces/inkscape"
   xmlns:sodipodi="http://sodipodi.sourceforge.net/DTD/sodipodi-0.dtd"
   xmlns:xlink="http://www.w3.org/1999/xlink"
   xmlns="http://www.w3.org/2000/svg"
   xmlns:svg="http://www.w3.org/2000/svg"
   xmlns:ffdec="https://www.free-decompiler.com/flash">
  <sodipodi:namedview
     id="namedview9"
     pagecolor="#ffffff"
     bordercolor="#000000"
     borderopacity="0.25"
     inkscape:showpageshadow="2"
     inkscape:pageopacity="0.0"
     inkscape:pagecheckerboard="0"
     inkscape:deskcolor="#d1d1d1"
     fit-margin-top="5"
     fit-margin-left="5"
     fit-margin-right="5"
     fit-margin-bottom="5" />
  <g
     transform="translate(1.5,1.5)"
     id="g3">
    <use
       ffdec:characterId="516"
       height="57.549999"
       width="64.099998"
       xlink:href="#shape0"
       id="use1" />
    <use
       ffdec:characterId="793"
       height="56.799999"
       transform="translate(0.15,0.3)"
       width="63.450001"
       xlink:href="#shape1"
       id="use2" />
    <use
       ffdec:characterId="518"
       height="60.549999"
       transform="translate(-1.5,-1.5)"
       width="67.099998"
       xlink:href="#shape2"
       id="use3" />
  </g>
  <defs
     id="defs9">
    <g
       id="shape0">
      <path
         d="M 53.6,0 H 64.1 V 57.55 H 53.6 28.25 0 V 0 H 28.25 53.6 V 57.55 0 M 28.25,0 V 57.55 0"
         fill="#ffffff"
         fill-rule="evenodd"
         stroke="none"
         id="path3" />
    </g>
    <g
       id="shape1"
       transform="translate(-0.15,-0.3)">
      <path
         d="M 41.95,0.3 H 63.6 V 6.05 L 41.95,0.3 M 63.6,15.6 v 5.55 q -7.85,18.55 -11.95,26.1 -2.9,5.3 -6.05,9.85 h -2.4 q 7.05,-9.15 11.95,-21.65 l 3.35,-9.4 q 0.7,-2.75 0.05,-3.9 -0.7,-1.55 -3.7,-2.2 l -17.4,-4.6 V 15.3 l -4.9,-1.35 -23.55,6 q -3,0.65 -3.75,2.2 -0.6,1.15 0.1,3.9 l 3.35,9.4 q 4.9,12.5 11.95,21.65 h -2.6 Q 14.9,52.55 12,47.25 L 11.55,46.4 11.45,45.95 Q 11.25,45.15 10.65,44.7 6.7,36.95 0.15,21.4 v -5.85 q 16.75,-4.7 31.65,-11 14.9,6.3 31.7,11 l 0.1,0.05 m 0,30.3 v 11.2 h -6.2 q 3.3,-5.35 6.2,-11.2 M 35.25,57.1 H 28.6 Q 23.8,52 19.7,44.5 16.95,39.5 11.6,26.65 11.25,25.8 11.5,25.5 q 0.15,-0.4 0.85,-0.55 10.4,-2.9 19.55,-6.8 9.2,3.9 19.6,6.8 0.7,0.15 0.85,0.55 0.2,0.3 -0.1,1.15 -5.35,12.85 -8.1,17.85 -4.1,7.5 -8.9,12.6 M 6.2,57.1 H 0.15 V 46.2 Q 3,51.9 6.2,57.1 M 0.15,6.05 V 0.3 H 22.8 L 0.15,6.05 m 16.3,25.9 1.95,5.5 q 3.25,8.4 8.2,14.15 1.65,1.95 3.15,3.15 1.3,1.05 2.2,0.9 0.9,0.15 2.25,-0.9 l 3.15,-3.15 q 4.9,-5.75 8.2,-14.15 l 1.95,-5.5 q 0.4,-1.6 0.05,-2.3 -0.4,-0.9 -2.2,-1.25 L 35.2,25.7 v -0.05 l -2.85,-0.8 -13.8,3.55 q -1.75,0.35 -2.15,1.25 -0.4,0.7 0.05,2.3 m 4.1,-0.65 q 6.05,-1.7 11.4,-3.95 5.4,2.25 11.45,3.95 l 0.5,0.3 -0.05,0.7 q -3.15,7.5 -4.75,10.45 -3.15,5.7 -6.9,9 L 31.95,52 31.75,51.75 q -3.8,-3.3 -6.95,-9 -1.6,-2.95 -4.75,-10.45 -0.15,-0.5 0,-0.7 0.05,-0.2 0.5,-0.3"
         fill="#999999"
         fill-rule="evenodd"
         stroke="none"
         id="path4" />
      <path
         d="M 41.95,0.3 63.6,6.05 v 9.55 l -0.1,-0.05 q -16.8,-4.7 -31.7,-11 -14.9,6.3 -31.65,11 V 6.05 L 22.8,0.3 H 41.95 M 63.6,21.15 V 45.9 q -2.9,5.85 -6.2,11.2 H 45.6 q 3.15,-4.55 6.05,-9.85 4.1,-7.55 11.95,-26.1 M 43.2,57.1 h -7.95 q 4.8,-5.1 8.9,-12.6 2.75,-5 8.1,-17.85 0.3,-0.85 0.1,-1.15 -0.15,-0.4 -0.85,-0.55 -10.4,-2.9 -19.6,-6.8 -9.15,3.9 -19.55,6.8 -0.7,0.15 -0.85,0.55 -0.25,0.3 0.1,1.15 5.35,12.85 8.1,17.85 4.1,7.5 8.9,12.6 H 20.65 Q 13.6,47.95 8.7,35.45 L 5.35,26.05 Q 4.65,23.3 5.25,22.15 6,20.6 9,19.95 l 23.55,-6 4.9,1.35 v 0.05 l 17.4,4.6 q 3,0.65 3.7,2.2 0.65,1.15 -0.05,3.9 l -3.35,9.4 Q 50.25,47.95 43.2,57.1 m -25.15,0 H 6.2 Q 3,51.9 0.15,46.2 V 21.4 q 6.55,15.55 10.5,23.3 0.6,0.45 0.8,1.25 l 0.1,0.45 0.45,0.85 q 2.9,5.3 6.05,9.85 m 2.5,-25.8 q -0.45,0.1 -0.5,0.3 -0.15,0.2 0,0.7 3.15,7.5 4.75,10.45 3.15,5.7 6.95,9 l 0.2,0.25 0.25,-0.25 q 3.75,-3.3 6.9,-9 1.6,-2.95 4.75,-10.45 L 43.9,31.6 43.4,31.3 Q 37.35,29.6 31.95,27.35 26.6,29.6 20.55,31.3 m -4.1,0.65 q -0.45,-1.6 -0.05,-2.3 0.4,-0.9 2.15,-1.25 l 13.8,-3.55 2.85,0.8 v 0.05 l 10.15,2.7 q 1.8,0.35 2.2,1.25 0.35,0.7 -0.05,2.3 l -1.95,5.5 q -3.3,8.4 -8.2,14.15 l -3.15,3.15 q -1.35,1.05 -2.25,0.9 -0.9,0.15 -2.2,-0.9 -1.5,-1.2 -3.15,-3.15 -4.95,-5.75 -8.2,-14.15 l -1.95,-5.5"
         fill="#000000"
         fill-rule="evenodd"
         stroke="none"
         id="path5" />
      <path
         d="m 43.35,20.05 0.85,0.85 q 0.75,1.15 0.75,2.05 0.1,1.15 -0.7,1.85 L 44,25.05 Q 43,25.7 41.9,25.7 40.65,25.6 39.85,25 L 38.8,23.8 q -0.85,-1.6 0,-2.8 l 0.9,-0.9 0.7,-0.35 2.45,0.05 0.5,0.25 m 13.8,27.3 q -0.25,1.1 -1.35,1.45 l -1.3,0.05 q -0.7,-0.2 -1.1,-0.7 -0.4,-0.5 -0.45,-1.25 -0.05,-0.7 0.3,-1.25 l 1,-0.85 1.3,-0.1 q 1.25,0.25 1.55,1.4 0.2,0.6 0.05,1.25 m 1.2,-1.1 0.05,-0.4 0.55,-0.5 0.75,0.15 q 0.45,0.35 0.35,0.9 l -0.2,0.3 -0.2,0.25 -0.45,0.15 -0.65,-0.25 -0.2,-0.6 m 0.85,2.15 q 0.5,0.25 0.4,0.8 -0.1,0.65 -0.8,0.65 -0.45,-0.1 -0.55,-0.35 l -0.1,-0.25 V 48.9 l 0.15,-0.35 q 0.15,-0.25 0.5,-0.25 l 0.4,0.1 m -1.8,1.7 -0.05,0.75 -0.6,0.45 L 56.2,51.2 55.85,51 55.7,50.55 Q 55.6,50.1 55.85,49.8 56.1,49.45 56.5,49.45 l 0.05,-0.05 q 0.65,-0.1 0.85,0.7 M 32.15,12.5 h 0.1 l 0.05,0.05 0.1,0.05 0.1,0.05 v 0.05 h 0.05 l 0.2,0.1 0.15,0.1 0.1,0.05 0.1,0.1 0.05,0.1 0.1,0.1 0.05,0.1 0.05,0.1 0.05,0.05 v 0.1 0.1 0.1 l 0.05,0.1 -0.05,0.1 v 0.05 0.1 0.1 0.1 0.1 0.05 0.1 0.1 0.1 0.1 0.1 0.05 0.1 h 1.2 L 34.75,15.05 35,15 h 0.3 0.3 l 0.2,0.05 0.2,0.1 0.2,0.1 0.1,0.1 0.1,0.1 0.1,0.05 0.05,0.1 0.1,0.1 0.05,0.1 0.05,0.1 0.05,0.1 0.05,0.05 v 0.1 0.1 l 0.05,0.1 v 0.1 0.05 0.1 0.1 0.1 0.1 0.1 l -0.05,0.05 v 0.1 l -0.05,0.1 -0.05,0.1 -0.05,0.1 -0.05,0.05 -0.1,0.1 -0.05,0.1 -0.1,0.1 -0.1,0.1 -0.1,0.1 -0.2,0.05 -0.2,0.1 -0.2,0.05 -0.3,0.05 L 35,18.2 h -0.15 l -0.15,-0.05 -1.3,-0.05 0.05,0.05 v 0.1 0.1 0.1 0.05 0.1 0.1 0.1 0.1 0.1 0.05 0.1 0.1 0.1 l 0.05,0.1 v 0.05 0.1 0.1 0.1 0.1 0.1 0.05 0.1 0.1 0.1 0.1 0.05 l 0.05,0.1 v 0.1 0.1 0.1 0.1 0.05 0.1 0.1 0.1 0.1 0.05 0.1 0.1 0.1 0.1 0.1 0.05 0.1 0.1 0.1 0.1 0.05 0.1 0.1 0.1 0.1 0.1 0.05 0.1 l -0.05,0.1 v 0.1 0.1 l -0.05,0.05 v 0.1 l -0.05,0.1 v 0.1 l -0.1,0.1 -0.05,0.1 -0.1,0.05 -0.1,0.1 -0.05,0.1 -0.15,0.1 -0.2,0.1 -0.2,0.05 H 32.3 32.05 31.9 31.75 l -0.2,-0.05 -0.2,-0.1 -0.15,-0.1 -0.05,-0.1 -0.1,-0.1 L 30.95,24 30.9,23.9 30.8,23.8 V 23.7 L 30.75,23.6 V 23.5 L 30.7,23.45 v -0.1 -0.1 l -0.05,-0.1 v -0.1 -0.05 -0.1 -0.1 -0.1 -0.1 -0.1 -0.05 -0.1 -0.1 -0.1 -0.1 -0.05 -0.1 -0.1 -0.1 -0.1 -0.1 -0.05 -0.1 -0.1 -0.1 -0.1 V 21 20.9 20.8 20.7 20.6 l 0.05,-0.1 v -0.05 -0.1 -0.1 -0.1 -0.1 V 20 19.9 19.8 19.7 19.6 19.5 19.45 l 0.05,-0.1 v -0.1 -0.1 -0.1 -0.05 -0.1 -0.1 -0.1 -0.1 -0.1 -0.05 -0.1 -0.1 -0.1 L 30.8,18.1 29.5,18.15 29.35,18.2 H 29.2 L 28.9,18.25 28.6,18.2 28.4,18.15 28.2,18.05 28,18 l -0.1,-0.1 -0.1,-0.1 -0.1,-0.1 -0.05,-0.1 -0.1,-0.1 -0.05,-0.05 -0.05,-0.1 -0.05,-0.1 -0.05,-0.1 v -0.1 L 27.3,17 v -0.1 -0.1 -0.1 -0.1 -0.1 -0.05 -0.1 l 0.05,-0.1 v -0.1 -0.1 L 27.4,16 l 0.05,-0.1 0.05,-0.1 0.05,-0.1 0.1,-0.1 0.05,-0.1 0.1,-0.05 0.1,-0.1 0.1,-0.1 0.2,-0.1 0.2,-0.1 0.2,-0.05 h 0.3 0.3 l 0.25,0.05 0.15,0.1 h 0.6 0.6 V 15.05 15 14.9 14.8 14.7 14.6 14.5 14.45 14.35 14.25 14.15 14.05 14 l -0.05,-0.1 0.05,-0.1 v -0.1 -0.1 -0.1 l 0.05,-0.05 0.05,-0.1 0.05,-0.1 0.1,-0.1 0.05,-0.1 0.1,-0.1 0.1,-0.05 0.15,-0.1 0.2,-0.1 0.05,-0.05 0.1,-0.05 0.1,-0.05 0.05,-0.05 h 0.1 0.1 m -11.3,7.55 0.5,-0.25 2.45,-0.05 0.7,0.35 0.9,0.9 q 0.85,1.2 0,2.8 L 24.35,25 q -0.8,0.6 -2.05,0.7 -1.1,0 -2.1,-0.65 L 19.95,24.8 q -0.8,-0.7 -0.7,-1.85 0,-0.9 0.75,-2.05 0.45,-0.6 0.85,-0.85 M 6,48.6 q 0.15,0.45 -0.1,0.9 -0.35,0.45 -0.8,0.45 L 4.65,49.85 4.15,49.2 Q 4,48.35 4.8,48.05 L 5.5,48.1 6,48.6 M 4.9,45.65 5.15,45.6 5.2,45.55 q 0.4,0.1 0.6,0.3 0.55,0.45 0.2,1.1 -0.35,0.6 -1.05,0.5 -0.7,-0.15 -0.7,-0.9 0,-0.75 0.65,-0.9 m 2.35,5.45 q -0.6,-0.15 -0.6,-0.8 0,-0.6 0.5,-0.85 L 7.4,49.4 H 7.45 L 7.5,49.35 q 0.6,0.1 0.75,0.65 l -0.1,0.7 -0.6,0.4 h -0.3 m 3.8,-4.3 q -0.1,1.15 -0.9,1.75 Q 9.25,49.2 8.2,48.8 7.15,48.45 6.8,47.4 6.4,46.1 7.45,45.15 q 1,-0.85 2.35,-0.35 1.25,0.6 1.25,2"
         fill="#000000"
         fill-rule="evenodd"
         stroke="none"
         id="path6" />
      <path
         d="m 16.8,29.2 q -0.5,-1.6 -0.4,-4.05 0.1,-2.9 0.75,-4.65 l 0.1,-0.2 -0.1,-0.55 -0.35,-3.1 -0.1,-2.35 0.2,-1.65 0.3,-0.85 q 0.35,-0.65 1.1,-0.75 l 1.1,0.1 1.75,0.35 q 2.15,0.55 3.2,1.1 3,-1.55 7.05,-1.65 V 10.9 h 0.6 0.4 q 4.05,0.15 7.05,1.7 1.05,-0.55 3.2,-1.1 l 1.75,-0.35 1.1,-0.1 q 0.75,0.1 1.1,0.75 l 0.3,0.85 0.2,1.65 -0.1,2.35 -0.35,3.1 -0.1,0.55 0.1,0.2 q 0.65,1.75 0.75,4.65 0.1,2.45 -0.4,4.05 -1.2,3.65 -5.65,5.7 l 0.2,0.15 q 6.2,4.55 10.35,6.9 2.25,1.3 3.6,1.6 l 2.75,0.55 q 1.3,0.45 2.25,1.6 0.9,1.15 1.1,2.55 0.15,1.3 -0.5,2.5 -0.65,1.25 -1.85,1.65 l -2.4,-0.05 -2.2,-0.85 -1.45,-0.9 q -3.75,-2.65 -7.75,-6.55 l 0.25,0.6 1.05,3.35 q 0.5,1.4 1.7,3.85 l 1.7,3.85 0.4,1.4 H 13.3 q 0,-0.6 0.35,-1.4 l 1.7,-3.85 1.7,-3.85 1.05,-3.35 0.25,-0.6 q -4,3.9 -7.75,6.55 l -1.45,0.9 -2.2,0.85 -2.4,0.05 Q 3.35,52 2.7,50.75 2.05,49.55 2.2,48.25 2.4,46.85 3.3,45.7 4.25,44.55 5.55,44.1 L 8.3,43.55 q 1.35,-0.3 3.6,-1.6 4.15,-2.35 10.35,-6.9 l 0.2,-0.15 Q 18,32.85 16.8,29.2 M 43.35,20.05 42.85,19.8 40.4,19.75 39.7,20.1 38.8,21 q -0.85,1.2 0,2.8 l 1.05,1.2 q 0.8,0.6 2.05,0.7 1.1,0 2.1,-0.65 l 0.25,-0.25 q 0.8,-0.7 0.7,-1.85 0,-0.9 -0.75,-2.05 L 43.35,20.05 M 57.4,50.1 q -0.2,-0.8 -0.85,-0.7 l -0.05,0.05 q -0.4,0 -0.65,0.35 -0.25,0.3 -0.15,0.75 l 0.15,0.45 0.35,0.2 0.55,0.1 0.6,-0.45 0.05,-0.75 m 1.8,-1.7 -0.4,-0.1 q -0.35,0 -0.5,0.25 l -0.15,0.35 v 0.35 l 0.1,0.25 q 0.1,0.25 0.55,0.35 0.7,0 0.8,-0.65 0.1,-0.55 -0.4,-0.8 m -0.85,-2.15 0.2,0.6 0.65,0.25 0.45,-0.15 0.2,-0.25 0.2,-0.3 q 0.1,-0.55 -0.35,-0.9 l -0.75,-0.15 -0.55,0.5 -0.05,0.4 m -1.2,1.1 Q 57.3,46.7 57.1,46.1 56.8,44.95 55.55,44.7 l -1.3,0.1 -1,0.85 q -0.35,0.55 -0.3,1.25 0.05,0.75 0.45,1.25 0.4,0.5 1.1,0.7 l 1.3,-0.05 q 1.1,-0.35 1.35,-1.45 m -25,-34.85 h -0.1 -0.1 l -0.05,0.05 -0.1,0.05 -0.1,0.05 -0.05,0.05 -0.2,0.1 -0.15,0.1 -0.1,0.05 -0.1,0.1 -0.05,0.1 -0.1,0.1 -0.05,0.1 -0.05,0.1 -0.05,0.05 v 0.1 0.1 0.1 l -0.05,0.1 0.05,0.1 v 0.05 0.1 0.1 0.1 0.1 0.05 0.1 0.1 0.1 0.1 0.1 0.05 0.1 H 30.2 29.6 L 29.45,15.05 29.2,15 h -0.3 -0.3 l -0.2,0.05 -0.2,0.1 -0.2,0.1 -0.1,0.1 -0.1,0.1 -0.1,0.05 -0.05,0.1 -0.1,0.1 -0.05,0.1 -0.05,0.1 -0.05,0.1 -0.05,0.05 v 0.1 0.1 l -0.05,0.1 v 0.1 0.05 0.1 0.1 0.1 0.1 0.1 l 0.05,0.05 v 0.1 l 0.05,0.1 0.05,0.1 0.05,0.1 0.05,0.05 0.1,0.1 0.05,0.1 0.1,0.1 0.1,0.1 0.1,0.1 0.2,0.05 0.2,0.1 0.2,0.05 0.3,0.05 0.3,-0.05 h 0.15 l 0.15,-0.05 1.3,-0.05 -0.05,0.05 v 0.1 0.1 0.1 0.05 0.1 0.1 0.1 0.1 0.1 0.05 0.1 0.1 0.1 l -0.05,0.1 v 0.05 0.1 0.1 0.1 0.1 0.1 0.05 0.1 0.1 0.1 0.1 0.05 l -0.05,0.1 v 0.1 0.1 0.1 0.1 0.05 0.1 0.1 0.1 0.1 0.05 0.1 0.1 0.1 0.1 0.1 0.05 0.1 0.1 0.1 0.1 0.05 0.1 0.1 0.1 0.1 0.1 0.05 0.1 l 0.05,0.1 v 0.1 0.1 l 0.05,0.05 v 0.1 l 0.05,0.1 v 0.1 l 0.1,0.1 0.05,0.1 0.1,0.05 0.1,0.1 0.05,0.1 0.15,0.1 0.2,0.1 0.2,0.05 h 0.15 0.15 0.25 0.15 l 0.2,-0.05 0.2,-0.1 0.15,-0.1 0.05,-0.1 0.1,-0.1 0.1,-0.05 0.05,-0.1 0.1,-0.1 v -0.1 l 0.05,-0.1 v -0.1 l 0.05,-0.05 v -0.1 -0.1 l 0.05,-0.1 v -0.1 -0.05 -0.1 -0.1 -0.1 -0.1 -0.1 -0.05 -0.1 -0.1 -0.1 -0.1 -0.05 -0.1 -0.1 -0.1 -0.1 -0.1 -0.05 -0.1 -0.1 -0.1 -0.1 V 21 20.9 20.8 20.7 20.6 L 33.5,20.5 v -0.05 -0.1 -0.1 -0.1 -0.1 V 20 19.9 19.8 19.7 19.6 19.5 19.45 l -0.05,-0.1 v -0.1 -0.1 -0.1 -0.05 -0.1 -0.1 -0.1 -0.1 -0.1 -0.05 -0.1 -0.1 -0.1 l -0.05,-0.05 1.3,0.05 0.15,0.05 H 35 l 0.3,0.05 0.3,-0.05 0.2,-0.05 0.2,-0.1 0.2,-0.05 0.1,-0.1 0.1,-0.1 0.1,-0.1 0.05,-0.1 0.1,-0.1 0.05,-0.05 0.05,-0.1 0.05,-0.1 0.05,-0.1 v -0.1 L 36.9,17 v -0.1 -0.1 -0.1 -0.1 -0.1 -0.05 -0.1 l -0.05,-0.1 v -0.1 -0.1 L 36.8,16 36.75,15.9 36.7,15.8 36.65,15.7 36.55,15.6 36.5,15.5 36.4,15.45 36.3,15.35 36.2,15.25 36,15.15 35.8,15.05 35.6,15 H 35.3 35 l -0.25,0.05 -0.15,0.1 H 33.4 V 15.05 15 14.9 14.8 14.7 14.6 14.5 14.45 14.35 14.25 14.15 14.05 14 l 0.05,-0.1 -0.05,-0.1 v -0.1 -0.1 -0.1 l -0.05,-0.05 -0.05,-0.1 -0.05,-0.1 -0.1,-0.1 -0.05,-0.1 -0.1,-0.1 -0.1,-0.05 -0.15,-0.1 -0.2,-0.1 H 32.5 V 12.65 L 32.4,12.6 32.3,12.55 32.25,12.5 h -0.1 m -21.1,34.3 q 0,-1.4 -1.25,-2 Q 8.45,44.3 7.45,45.15 6.4,46.1 6.8,47.4 q 0.35,1.05 1.4,1.4 1.05,0.4 1.95,-0.25 0.8,-0.6 0.9,-1.75 m -3.8,4.3 h 0.3 L 8.15,50.7 8.25,50 Q 8.1,49.45 7.5,49.35 L 7.45,49.4 H 7.4 l -0.25,0.05 q -0.5,0.25 -0.5,0.85 0,0.65 0.6,0.8 M 4.9,45.65 q -0.65,0.15 -0.65,0.9 0,0.75 0.7,0.9 0.7,0.1 1.05,-0.5 0.35,-0.65 -0.2,-1.1 -0.2,-0.2 -0.6,-0.3 L 5.15,45.6 4.9,45.65 M 6,48.6 5.5,48.1 4.8,48.05 Q 4,48.35 4.15,49.2 l 0.5,0.65 0.45,0.1 q 0.45,0 0.8,-0.45 Q 6.15,49.05 6,48.6 M 20.85,20.05 q -0.4,0.25 -0.85,0.85 -0.75,1.15 -0.75,2.05 -0.1,1.15 0.7,1.85 l 0.25,0.25 q 1,0.65 2.1,0.65 1.25,-0.1 2.05,-0.7 l 1.05,-1.2 q 0.85,-1.6 0,-2.8 l -0.9,-0.9 -0.7,-0.35 -2.45,0.05 -0.5,0.25 m 5,21.45 -0.1,0.15 v 0.6 L 26,43.4 q 0.4,1.4 1.05,2.45 l 1.3,1.8 2.9,3.1 q 0.35,0.35 0.6,0.3 0.2,0.05 0.6,-0.3 l 2.15,-2.2 0.7,-0.9 1.35,-1.8 1,-2.45 0.25,-1.15 v -0.6 l -0.1,-0.2 0.1,-0.4 v -0.6 Q 37.7,39.85 36.75,39.8 H 34.9 l -1.75,-0.25 -0.6,-0.3 Q 32.3,39.05 31.95,39 h -0.1 -0.15 q -0.35,0.05 -0.55,0.25 -0.3,0.1 -0.65,0.3 l -1.7,0.25 h -1.85 q -1,0.05 -1.2,0.65 v 0.6 l 0.1,0.45"
         fill="#ffffff"
         fill-rule="evenodd"
         stroke="none"
         id="path7" />
      <path
         d="m 25.85,41.5 -0.1,-0.45 v -0.6 q 0.2,-0.6 1.2,-0.65 h 1.85 l 1.7,-0.25 q 0.35,-0.2 0.65,-0.3 0.2,-0.2 0.55,-0.25 h 0.15 0.1 q 0.35,0.05 0.6,0.25 l 0.6,0.3 1.75,0.25 h 1.85 q 0.95,0.05 1.15,0.65 v 0.6 l -0.1,0.4 -0.15,0.75 -1,2.45 -1.35,1.8 -0.7,0.9 -2.15,2.2 -0.5,0.3 -0.1,0.15 -0.05,-0.15 q -0.25,0 -0.55,-0.3 l -2.9,-3.1 -1.3,-1.8 Q 26.4,43.6 26,42.2 l -0.15,-0.7 m 6.95,0.05 -0.95,-0.4 -0.7,0.25 v 0.1 0.1 0.05 0.1 0.1 0.1 0.05 0.1 0.05 0.1 0.1 0.1 0.05 0.1 l 0.7,-0.25 0.95,0.4 v 0.1 0.1 0.1 0.1 0.05 0.1 0.05 0.1 0.1 0.1 0.05 0.1 0.1 l 0.05,0.1 v 0.05 0.1 H 34.8 L 35.1,44.2 35.15,43.95 35.65,43 34.8,42.95 H 32.85 V 42.85 42.8 L 32.8,42.7 v -0.1 -0.1 -0.05 -0.1 -0.1 -0.1 -0.05 -0.1 -0.05 -0.1 -0.1 -0.1 -0.1 m -4.75,1.45 0.45,0.95 0.15,0.25 h 2.5 V 44.15 44.05 44 43.9 43.8 43.7 43.65 43.55 43.45 43.35 43.3 43.2 43.15 43.05 43 h -3.1 m 4.8,2.7 v 0.1 0.1 0.1 0.05 0.1 0.1 0.1 0.05 0.1 l 0.05,0.1 V 46.45 46.35 46.3 46.2 46.1 46 45.9 45.85 45.75 45.7 h -0.05"
         fill="#999999"
         fill-rule="evenodd"
         stroke="none"
         id="path8" />
    </g>
    <g
       id="shape2"
       transform="translate(1.5,1.5)">
      <path
         d="M 0,23.8 V 0 H 64.1 V 23.8 57.55 H 0 Z"
         fill="none"
         stroke="#000000"
         stroke-linecap="round"
         stroke-linejoin="round"
         stroke-width="3"
         id="path9" />
    </g>
  </defs>
</svg>
