<?xml version="1.0" encoding="UTF-8" standalone="no"?>
<svg
   ffdec:objectType="frame"
   height="60.549999"
   width="67.099998"
   version="1.1"
   id="svg7"
   sodipodi:docname="645.svg"
   xmlns:inkscape="http://www.inkscape.org/namespaces/inkscape"
   xmlns:sodipodi="http://sodipodi.sourceforge.net/DTD/sodipodi-0.dtd"
   xmlns:xlink="http://www.w3.org/1999/xlink"
   xmlns="http://www.w3.org/2000/svg"
   xmlns:svg="http://www.w3.org/2000/svg"
   xmlns:ffdec="https://www.free-decompiler.com/flash">
  <sodipodi:namedview
     id="namedview7"
     pagecolor="#ffffff"
     bordercolor="#000000"
     borderopacity="0.25"
     inkscape:showpageshadow="2"
     inkscape:pageopacity="0.0"
     inkscape:pagecheckerboard="0"
     inkscape:deskcolor="#d1d1d1"
     fit-margin-top="5"
     fit-margin-left="5"
     fit-margin-right="5"
     fit-margin-bottom="5" />
  <g
     transform="translate(1.5,1.5)"
     id="g3">
    <use
       ffdec:characterId="516"
       height="57.549999"
       width="64.099998"
       xlink:href="#shape0"
       id="use1" />
    <use
       ffdec:characterId="1136"
       height="60.150002"
       transform="translate(0.35,-1.2)"
       width="65"
       xlink:href="#shape1"
       id="use2" />
    <use
       ffdec:characterId="518"
       height="60.549999"
       transform="translate(-1.5,-1.5)"
       width="67.099998"
       xlink:href="#shape2"
       id="use3" />
  </g>
  <defs
     id="defs7">
    <g
       id="shape0">
      <path
         d="M 53.6,0 H 64.1 V 57.55 H 53.6 28.25 0 V 0 H 28.25 53.6 V 57.55 0 M 28.25,0 V 57.55 0"
         fill="#ffffff"
         fill-rule="evenodd"
         stroke="none"
         id="path3" />
    </g>
    <g
       id="shape1"
       transform="translate(-0.35,1.2)">
      <path
         d="M 19.35,4.1 19.25,2.4 19.2,1.1 19.25,0.5 q 0.1,-0.65 0.6,-1.15 0.5,-0.45 1.2,-0.55 l 1.25,0.35 0.8,1 0.1,1.45 -0.25,1.5 -0.1,0.95 L 22.1,6.45 21.7,8.4 21.5,9 Q 21.35,9.35 21,9.35 20.6,9.3 20.4,8.65 L 20.25,7.55 19.7,5.85 Q 19.35,4.8 19.35,4.1 m 9.7,35.6 q -0.4,-0.65 -0.3,-1.5 0.15,-0.85 0.75,-1.4 L 30.8,36 q 1.35,-1 1.45,-3.3 l -0.1,-0.8 -1.2,-1.1 q -1.2,-0.85 -1.1,-2.45 0.1,-1.5 1.4,-2.35 0.8,-0.5 1.65,-0.45 l 1.25,0.3 3.7,-3.65 0.85,-0.9 0.5,-0.15 q 0.3,0 0.45,0.3 l -0.2,0.65 -2.25,4 -0.55,1.65 0.25,0.3 0.25,-0.15 q 2.15,-1 4.6,-1.95 l 3.75,-1.2 0.85,-0.1 Q 46.5,24.9 46.1,25.2 l -2.45,1.6 q -1.7,1.15 -3.1,2.25 l -2.25,1.75 -0.3,0.25 0.05,0.9 0.55,0.15 2.8,0.55 0.75,0.3 1.75,0.4 1.65,0.5 0.55,0.5 q 0.05,0.4 -0.4,0.7 l -1.45,0.4 -2.25,0.15 -2.25,0.15 -1.25,0.2 -0.9,0.05 -0.4,0.75 0.25,0.45 1.1,1.6 3.6,4.7 0.35,0.8 q 0.1,0.7 -0.65,0.9 -0.45,0.1 -1.3,-0.45 l -3.85,-3 -1.45,-1.3 0.2,1.25 0.75,4.05 q 0.65,2.75 0.35,4 L 36.2,50.1 35.95,49.8 35.85,49.4 35.6,49.1 35.35,48.6 34.3,45.5 33.85,44.65 32.6,41.4 l -0.1,0.15 -0.6,1.95 -0.1,0.65 -0.65,2.2 -0.4,0.95 -0.2,0.4 -0.05,0.5 q -0.1,0.35 -0.35,0.25 l -0.2,-0.3 -0.05,-1.45 -0.05,-4.65 0.1,-1.5 -0.9,-0.85 m -7.9,-29.15 q 0.8,0.15 1.2,0.8 0.4,0.7 0.05,1.55 -0.4,0.75 -1.25,0.85 -1,0.15 -1.6,-0.75 -0.5,-0.85 0,-1.7 0.6,-0.9 1.6,-0.75"
         fill="#999999"
         fill-rule="evenodd"
         stroke="none"
         id="path4" />
      <path
         d="m 50.5,19.75 q 0.3,-0.5 1.15,-0.7 L 53,19 l 3.2,-0.65 0.7,-0.2 q -1.3,-0.6 -2,-0.7 l -2.05,0.3 -1.65,0.55 -1.05,0.25 q -0.45,0 -0.8,-0.3 Q 49,17.9 48.95,17.45 48.9,16.55 49.7,16 q 0.4,-0.35 1.6,-0.65 l 2.1,-0.6 q 2.45,-0.45 5.85,1.35 l 1.2,1 q 0.3,0.55 0.1,1.3 l -0.7,1.1 -1.1,0.75 -1.15,0.65 q 1,0.75 0.75,2 -0.25,1.05 -1.25,1.75 -0.7,0.5 -2.1,0.8 l -0.6,0.25 -0.25,0.5 v 1 L 54.1,27.75 53.75,28 53.25,27.9 52.8,27 52.55,25.55 q -0.1,-1 0.25,-1.45 0.3,-0.55 1.35,-0.95 l 1.55,-0.7 Q 55.3,21.6 53.85,21.7 l -2.15,0.15 q -0.75,-0.1 -1.15,-0.75 -0.5,-0.65 -0.05,-1.35 m -10.2,14 -0.15,-0.35 -0.5,-1.5 q -0.45,-2.35 1.2,-4.3 1.4,-1.8 3.8,-2.45 l 2.8,-0.3 q 1.45,0.1 2.6,1 0.95,0.75 1.3,1.95 l 0.25,1.25 2.15,0.55 q 1.75,0.6 3.2,1.55 l 0.3,0.2 q 0.8,-0.7 1.9,-1 l 2.3,0.05 q 0.85,0.2 1.75,0.85 1.65,1.3 2,3.05 0.5,2.05 -0.65,3.5 l -0.65,0.75 q -1.2,1.1 -2.25,1.3 l -0.35,0.05 -0.2,1.35 q -0.4,2.8 -1.2,4.2 -1.1,2 -3.4,3.15 -1.55,0.85 -3.6,1.2 l 0.45,1.65 0.15,0.8 1.3,-1.1 5.25,-3.2 0.95,-0.4 q 0.55,-0.1 0.9,0.35 0.25,0.45 -0.15,1.15 l -1.4,1.8 q -2.45,2.5 -4.9,5.95 l -1.75,1.8 -1.6,0.15 q -0.8,-0.2 -1.35,-0.8 H 49.6 L 48.4,57.7 47.6,57.9 46.75,57.75 45.9,57.6 44.85,57.85 q -1.8,0.7 -2.8,0.5 -1.05,-0.15 -1.7,-1.05 -0.6,-0.9 -0.6,-1.95 0.05,-1.65 1.95,-3.95 1.1,-1.35 2.15,-2.25 l -0.55,-0.3 q -1.7,-0.95 -2.9,-2.6 -1.15,-1.7 -1.5,-3.65 -0.45,-2.25 0.15,-4.45 0.35,1.15 1.35,2 1.45,1.15 3.3,0.9 1.85,-0.25 2.9,-1.8 Q 47.7,37.8 47.35,35.9 47,34.4 45.9,33.5 L 45.1,33 44.15,32.75 q -2.2,-0.35 -3.85,1 m 11.75,9.65 1.05,0.55 1.3,0.15 2.4,-0.3 q 1.8,-0.75 2.3,-2.6 l 0.2,-0.9 Q 59.5,38.8 59.1,38 58.85,37.4 58,36.6 l -0.85,-0.65 q -1.55,-1 -3.35,-0.6 -1.75,0.3 -2.9,1.8 -0.45,0.55 -0.7,1.25 -0.45,1.4 0.15,2.8 0.5,1.35 1.7,2.2 M 57.9,40 q -0.15,1.4 -1.25,2.25 -1.35,1.1 -3.1,0.7 -1.7,-0.5 -2.35,-2.2 -0.45,-1.05 -0.05,-2.3 0.45,-1.2 1.4,-1.8 1.55,-1.05 3.35,-0.25 1.75,0.75 2,2.65 V 40 M 44.7,37.45 q 0.75,-1.2 0,-2.45 -0.8,-1.25 -2.15,-1.15 -1.5,0.1 -2.1,1.45 -0.6,1.35 0.4,2.5 0.4,0.5 1.1,0.75 0.65,0.2 1.3,0 1,-0.25 1.45,-1.1 m -5.1,-2.3 0.7,-1.05 q 0.75,-0.85 1.9,-1 l 1.45,0.15 q 1.1,0.3 1.75,1.3 0.65,1.05 0.5,2.15 -0.15,1.4 -1.2,2.2 -1.2,0.95 -2.7,0.65 -1.45,-0.25 -2.2,-1.65 -0.75,-1.3 -0.2,-2.75 m 16.85,3.3 q -0.35,-0.7 -1.1,-1.05 l -1.5,-0.15 q -0.75,0.2 -1.25,0.85 -0.55,0.65 -0.5,1.4 0,0.8 0.55,1.4 0.5,0.65 1.25,0.8 l 1.5,-0.2 1.05,-1.1 q 0.5,-0.95 0,-1.95 m -6.75,6 -0.8,-0.5 -0.85,-0.25 V 43.6 L 48,43.2 V 42.95 L 47.85,42.2 47.7,41.95 Q 47.65,41.8 47.45,41.8 l -0.05,0.05 q -0.15,0 -0.35,0.2 l -0.6,1.25 v 0.15 l -1.15,-0.2 -1.05,0.1 q -0.45,0.2 -0.35,0.65 0,0.45 0.4,0.7 l 0.6,0.15 0.6,-0.05 2.25,0.35 0.9,0.1 1.15,-0.1 0.3,-0.2 -0.4,-0.5 m -16.15,-7 q -1.85,3.25 -4.85,5.45 -4,3 -8.45,3.15 -0.4,4.65 -0.35,9 0,1.75 -0.4,2.55 -0.75,1.45 -2.4,1.35 Q 15.95,58.9 15.35,58.2 L 14,58.3 q -1.3,-0.25 -1.95,-1.45 -3.8,1.45 -7.9,1.5 -1.9,0 -2.8,-0.55 Q 0.7,57.4 0.45,56.65 0.2,55.9 0.55,55.3 l 0.3,-0.25 Q 1,54.25 1.65,53.1 L 3.8,50 6,46.95 7.65,44.45 8.85,42.9 Q 6.95,41.65 5.7,39.65 4.25,37.35 4,34.75 3.85,33.5 4.15,30.9 4.6,26.9 5.75,24.1 L 6.6,22.35 6.75,21.4 q 0.6,-3.05 2,-5.7 1.05,-1.95 2.2,-2.25 0.95,-0.25 2.35,0.4 1.75,0.75 3.1,1.85 2.45,-0.65 4.75,-0.75 3.1,-0.05 5.7,0.95 l 0.85,-0.6 q 1.3,-0.85 2.3,-0.95 1.5,-0.1 2.25,0.85 l 0.4,0.75 q 1.3,2.95 1.7,5.75 l 0.1,1.3 1.05,2.65 q 0.7,2.7 0.25,5.7 l -0.25,-0.5 q -0.5,-0.9 -1.55,-1.4 l -1.55,-0.4 -0.25,0.35 -1.25,1.15 -0.5,0.55 -1.2,0.8 q -0.9,0.55 -1.95,0.6 -0.2,0.85 0.05,1.75 0.3,1.4 1.4,2.4 1.2,1.15 2.8,1.2 l 2.05,-0.4 m -15.55,2 q 0.2,0.25 0.7,0.35 h 0.75 l 1.85,-0.25 0.55,-0.15 1,-0.1 0.95,0.15 0.4,-0.05 0.15,0.1 1.95,1.15 0.55,0.45 0.75,0.05 L 27.9,40.5 27.75,39.8 27.35,39 26.2,38 26.15,37.95 26,37 25.9,35.7 25.55,35.15 25,34.95 Q 24.65,35 24.4,35.35 L 24.1,36 23.9,36.75 h -0.05 l -0.1,0.05 -0.8,0.25 -1,0.25 -1.45,0.5 -1.9,0.75 -0.5,0.45 -0.2,0.25 0.1,0.2 M 14.55,32.6 q 0.7,0.6 1.5,0.9 l 0.15,0.05 q 0.25,0.4 1,0.75 l 2.2,0.7 0.8,0.1 0.6,-0.1 q 0.85,-0.05 1.4,-0.6 l 0.25,-0.45 0.25,-0.85 q 0.05,-0.55 -0.75,-2 L 21,29.85 19.7,29.7 q -0.75,0.25 -0.85,1 l 0.15,1 0.05,0.25 -0.9,-0.1 -1.2,-0.2 -0.5,0.05 -1.05,-0.15 -0.8,0.25 -0.25,0.4 0.2,0.4"
         fill="#000000"
         fill-rule="evenodd"
         stroke="none"
         id="path5" />
      <path
         d="m 39.05,38.15 q -0.25,-0.7 -0.2,-1.5 l 0.1,-0.8 0.4,-1.05 0.5,-0.65 0.45,-0.4 q 1.65,-1.35 3.85,-1 l 0.95,0.25 0.8,0.5 q 1.1,0.9 1.45,2.4 0.35,1.9 -0.75,3.35 -1.05,1.55 -2.9,1.8 -1.85,0.25 -3.3,-0.9 -1,-0.85 -1.35,-2 m 13,5.25 q -1.2,-0.85 -1.7,-2.2 -0.6,-1.4 -0.15,-2.8 0.25,-0.7 0.7,-1.25 1.15,-1.5 2.9,-1.8 1.8,-0.4 3.35,0.6 L 58,36.6 q 0.85,0.8 1.1,1.4 0.4,0.8 0.2,2.3 l -0.2,0.9 q -0.5,1.85 -2.3,2.6 L 54.4,44.1 53.1,43.95 52.05,43.4 M 57.9,40 v -0.95 q -0.25,-1.9 -2,-2.65 -1.8,-0.8 -3.35,0.25 -0.95,0.6 -1.4,1.8 -0.4,1.25 0.05,2.3 0.65,1.7 2.35,2.2 1.75,0.4 3.1,-0.7 Q 57.75,41.4 57.9,40 M 44.7,37.45 q -0.45,0.85 -1.45,1.1 -0.65,0.2 -1.3,0 -0.7,-0.25 -1.1,-0.75 -1,-1.15 -0.4,-2.5 0.6,-1.35 2.1,-1.45 1.35,-0.1 2.15,1.15 0.75,1.25 0,2.45 m -5.1,-2.3 q -0.55,1.45 0.2,2.75 0.75,1.4 2.2,1.65 1.5,0.3 2.7,-0.65 1.05,-0.8 1.2,-2.2 0.15,-1.1 -0.5,-2.15 -0.65,-1 -1.75,-1.3 L 42.2,33.1 q -1.15,0.15 -1.9,1 l -0.7,1.05 m 10.1,9.3 0.4,0.5 -0.3,0.2 -1.15,0.1 -0.9,-0.1 L 45.5,44.8 44.9,44.85 44.3,44.7 Q 43.9,44.45 43.9,44 43.8,43.55 44.25,43.35 l 1.05,-0.1 1.15,0.2 V 43.3 l 0.6,-1.25 q 0.2,-0.2 0.35,-0.2 l 0.05,-0.05 q 0.2,0 0.25,0.15 l 0.15,0.25 0.15,0.75 v 0.25 l 0.05,0.4 v 0.1 l 0.85,0.25 0.8,0.5 m 6.75,-6 q 0.5,1 0,1.95 l -1.05,1.1 -1.5,0.2 q -0.75,-0.15 -1.25,-0.8 -0.55,-0.6 -0.55,-1.4 -0.05,-0.75 0.5,-1.4 0.5,-0.65 1.25,-0.85 l 1.5,0.15 q 0.75,0.35 1.1,1.05 m -20.7,-7.1 0.2,0.65 0.25,1 -0.1,1.1 q -0.4,1.65 -1.65,2.7 l -0.9,0.65 -2.05,0.4 q -1.6,-0.05 -2.8,-1.2 -1.1,-1 -1.4,-2.4 -0.25,-0.9 -0.05,-1.75 1.05,-0.05 1.95,-0.6 l 1.2,-0.8 0.5,-0.55 1.25,-1.15 0.25,-0.35 1.55,0.4 q 1.05,0.5 1.55,1.4 l 0.25,0.5 m -21.2,1.25 -0.2,-0.4 0.25,-0.4 0.8,-0.25 1.05,0.15 0.5,-0.05 1.2,0.2 0.9,0.1 -0.05,-0.25 -0.15,-1 q 0.1,-0.75 0.85,-1 l 1.3,0.15 0.95,1.25 q 0.8,1.45 0.75,2 L 22.45,33.95 22.2,34.4 Q 21.65,34.95 20.8,35 L 20.2,35.1 19.4,35 17.2,34.3 q -0.75,-0.35 -1,-0.75 L 16.05,33.5 q -0.8,-0.3 -1.5,-0.9 m 3.45,6.85 -0.1,-0.2 0.2,-0.25 0.5,-0.45 1.9,-0.75 1.45,-0.5 1,-0.25 0.8,-0.25 0.1,-0.05 H 23.9 L 24.1,36 24.4,35.35 Q 24.65,35 25,34.95 l 0.55,0.2 0.35,0.55 0.1,1.3 0.15,0.95 0.05,0.05 1.15,1 0.4,0.8 0.15,0.7 -0.3,0.65 -0.75,-0.05 -0.55,-0.45 -1.95,-1.15 -0.15,-0.1 -0.4,0.05 -0.95,-0.15 -1,0.1 -0.55,0.15 -1.85,0.25 H 18.7 Q 18.2,39.7 18,39.45"
         fill="#ffffff"
         fill-rule="evenodd"
         stroke="none"
         id="path6" />
    </g>
    <g
       id="shape2"
       transform="translate(1.5,1.5)">
      <path
         d="M 0,23.8 V 0 H 64.1 V 23.8 57.55 H 0 Z"
         fill="none"
         stroke="#000000"
         stroke-linecap="round"
         stroke-linejoin="round"
         stroke-width="3"
         id="path7" />
    </g>
  </defs>
</svg>
