<?xml version="1.0" encoding="UTF-8" standalone="no"?>
<svg
   ffdec:objectType="frame"
   height="60.549999"
   width="67.099998"
   version="1.1"
   id="svg6"
   sodipodi:docname="99.svg"
   xmlns:inkscape="http://www.inkscape.org/namespaces/inkscape"
   xmlns:sodipodi="http://sodipodi.sourceforge.net/DTD/sodipodi-0.dtd"
   xmlns:xlink="http://www.w3.org/1999/xlink"
   xmlns="http://www.w3.org/2000/svg"
   xmlns:svg="http://www.w3.org/2000/svg"
   xmlns:ffdec="https://www.free-decompiler.com/flash">
  <sodipodi:namedview
     id="namedview6"
     pagecolor="#ffffff"
     bordercolor="#000000"
     borderopacity="0.25"
     inkscape:showpageshadow="2"
     inkscape:pageopacity="0.0"
     inkscape:pagecheckerboard="0"
     inkscape:deskcolor="#d1d1d1"
     fit-margin-top="5"
     fit-margin-left="5"
     fit-margin-right="5"
     fit-margin-bottom="5" />
  <g
     transform="translate(1.5,1.5)"
     id="g3">
    <use
       ffdec:characterId="516"
       height="57.549999"
       width="64.099998"
       xlink:href="#shape0"
       id="use1" />
    <use
       ffdec:characterId="611"
       height="52.799999"
       transform="translate(4.35,0.45)"
       width="55.349998"
       xlink:href="#shape1"
       id="use2" />
    <use
       ffdec:characterId="518"
       height="60.549999"
       transform="translate(-1.5,-1.5)"
       width="67.099998"
       xlink:href="#shape2"
       id="use3" />
  </g>
  <defs
     id="defs6">
    <g
       id="shape0">
      <path
         d="M 53.6,0 H 64.1 V 57.55 H 53.6 28.25 0 V 0 H 28.25 53.6 V 57.55 0 M 28.25,0 V 57.55 0"
         fill="#ffffff"
         fill-rule="evenodd"
         stroke="none"
         id="path3" />
    </g>
    <g
       id="shape1"
       transform="translate(-4.35,-0.45)">
      <path
         d="m 56.05,7 1.25,0.05 q 0.4,0.5 -0.1,1.4 l -1.25,1.75 -1.45,1.65 -3.05,3.5 0.5,-0.2 q 0.65,-0.1 1.4,0.75 1.7,1.95 2.9,4.45 l 0.7,1.95 0.2,1.95 q 0.1,1.65 -0.35,2.7 l -0.9,1.7 -1.25,1.8 -1.7,1.4 -3.25,2.4 q -1.15,0.85 -1.85,0.9 l 0.05,0.05 1.2,1.15 q 0.5,0.6 0.3,1.1 -0.15,0.7 -1.1,0.6 l -0.85,-0.3 -0.8,-0.45 -0.9,-0.5 q -0.5,-0.25 -0.6,-0.75 -0.1,-0.45 0.2,-0.9 0.35,-0.35 0.8,-0.45 h 0.35 l -0.15,-0.15 q -0.65,-0.65 -0.6,-1.5 0.1,-0.65 1.1,-2 Q 48.9,28.3 50,25 q 0.5,-1.7 0.4,-2.6 l -0.4,-1.6 -0.6,-1.55 -0.2,-1 -0.3,0.4 -1.1,1.25 q -0.75,0.65 -1.65,0.45 -0.7,-0.15 -0.95,-0.85 -0.3,-0.7 0,-1.35 l 0.75,-1 1.1,-1.45 1.75,-1.8 4.8,-4.85 Q 55.2,7.35 56.05,7 m -9.8,-1.2 0.3,-0.85 1.3,-1.85 0.8,-0.7 0.65,-0.2 q 0.25,0.05 0.25,0.45 L 49.45,3.15 48.8,4.7 48.45,5.8 Q 48.25,6.75 48.8,8 l 0.35,0.75 0.25,0.8 q 0.1,1.15 -0.8,1.7 l -1.9,0.1 Q 46,10.95 45.85,10.2 L 45.8,9.6 45.85,7.25 46.25,5.8 M 8.8,14.8 8.7,14 8.9,12.65 9.1,12.1 Q 9.45,9.2 11.5,7.3 L 13.3,5.85 14.65,4.1 14.8,2.8 14.25,1.6 Q 14,0.85 14.3,0.45 h 1.4 L 16,0.7 q 2.25,2 1.8,4.35 l -0.45,1.35 0.4,-0.3 1.65,-0.9 1.55,-1 Q 22.4,3.05 23.15,0.9 L 23.3,0.45 h 12.75 l 0.05,0.2 0.05,-0.2 h 3.4 L 39.5,1.1 q -0.3,3.4 0.3,4.95 L 40.6,7.5 40.45,6.9 39.95,4.55 q -0.05,-1 0.2,-2.4 L 40.55,0.6 40.6,0.45 h 3.05 L 43.55,0.9 Q 43.4,1.8 43.7,3 l 0.65,2.1 q 1,3.35 0.55,5.8 -0.6,3.3 -3.05,4.85 Q 40.6,16.5 39.9,15.9 L 39.5,14.95 V 14.3 l -0.7,0.45 q -1.05,0.45 -1.2,0.65 l -0.4,0.7 -0.9,2.15 q -0.8,1.2 -1.95,1.1 l -1.15,-0.1 -1.35,0.3 -1.55,-0.25 q -0.8,-0.4 -1.1,-1.15 -1.1,-0.1 -1.85,-1.05 l -0.55,-0.85 -1.4,-1.35 -1.45,-1.25 -0.1,0.05 -1.4,0.7 -3,1.1 q -1.05,0.4 -1.35,0.9 -0.25,0.4 -0.4,1.4 -0.35,0.8 -1.2,0.9 -0.8,0.15 -1.7,-0.5 L 13.4,17.05 13.25,17 12.15,17.25 Q 10.6,17.3 9.6,15.65 L 9.55,15.55 Q 9,15.45 8.8,14.8 m 38.1,26.55 q -0.8,0.3 -1.2,-0.25 l -0.6,-0.3 q -0.4,-0.4 -0.4,-0.9 l -0.15,-0.1 q -0.75,-0.5 -0.65,-1.35 0.2,-0.9 1,-1.15 l 1.35,0.2 1.05,0.8 0.25,-0.05 q 0.7,0.1 0.85,0.75 0.15,0.6 -0.1,1.15 l -0.45,0.65 -0.55,0.3 -0.4,0.25 m -32.1,6.8 Q 14.35,48.1 14.1,47.65 13.8,47.2 13.95,46.8 L 14.6,46.1 17,44.35 19.7,42 21.75,39.85 q 1.2,-1.35 2.15,-2 0.7,-0.45 1.3,-0.5 1.05,-0.15 1.7,0.65 0.65,0.9 0.15,1.85 L 26.25,40.6 25,41.55 24.2,42.2 q 0.6,-0.2 1.5,0 3,0.75 3.7,3.05 2.8,-0.55 5.7,-3.55 l 1.5,-1.2 q 0.45,-0.25 0.95,-0.25 h 0.2 q -0.2,-0.65 0.25,-1.3 0.6,-0.8 1.55,-0.7 0.6,0.1 1.85,1.1 l 1.5,1.05 1.45,1.1 1.7,1.7 1.55,1.8 0.3,0.65 -0.25,0.7 L 47,46.6 46.4,46.35 45.75,45.95 44.95,45.6 44.05,44.85 43.4,44.6 42.75,44.1 41.8,43.65 41.85,44 q 0.05,1.25 -0.95,2.45 l -2.05,1.65 q -2.3,1.4 -3.55,1.85 l -1.1,0.35 1.65,-0.1 3.95,-0.75 1.8,-0.65 1.85,-1.4 q 0.35,-0.35 0.65,-0.4 0.5,0 0.55,0.35 l -0.25,0.55 -1.2,1.7 q -0.75,0.9 -3.05,2.05 L 39.1,52.1 q -3.05,1.25 -6.9,0.85 H 32 l -0.3,0.05 -0.9,0.15 -2.4,0.1 -2.15,-0.3 -2.15,-0.45 q -0.95,-0.1 -1.35,-0.4 -0.35,-0.3 -0.4,-0.85 0,-0.5 0.25,-0.95 l 0.6,-0.65 0.65,-0.7 q 0.6,-0.65 0.35,-1.45 l -0.45,-0.7 -0.2,-0.2 -0.15,-0.35 -0.55,-0.85 -0.3,-0.3 -0.6,-0.5 -0.2,-0.6 -3,2.05 q -1.4,1 -3,1.8 l -0.95,0.3 m -3,-29.1 1.8,1.25 3.35,3.15 1.25,1.1 q 0.7,0.85 0.55,1.55 -0.1,1 -1.45,1.7 -1.15,0.7 -2,0.45 -0.5,-0.15 -1.55,-1.3 l -0.3,-0.35 -0.75,0.8 -1.05,0.2 -0.75,-0.25 0.15,0.15 0.95,0.75 1.05,0.8 q 0.65,0.55 0.4,1.2 -0.2,0.6 -1.2,0.8 l -0.65,0.05 0.6,0.25 q 1.4,0.75 1.8,1.3 l 0.85,1.55 0.45,1.15 0.65,1.3 0.75,1.05 0.4,0.9 0.55,1.2 q 0.15,0.75 -0.45,1.45 -0.4,0.5 -1.35,0.85 l -0.1,0.05 -1.1,1.1 -1.4,0.45 -2.05,0.2 -1.8,-0.2 Q 8.45,43.45 7.4,42.65 L 5.7,41.1 4.9,39.7 Q 4.25,38.25 4.4,37.15 l 0.2,-1.5 0.05,-1 Q 4.8,33.95 5.25,33.5 L 5.7,33.15 q 0.4,-0.1 0.55,0.15 l 0.05,0.45 v 0.65 l -0.2,0.65 q -0.25,1.05 0.4,2.55 0.45,1 0.85,1.45 L 8.55,40 7.9,39.35 l -0.55,-1 q -0.7,-1.55 -0.7,-2.9 l 0.15,-1.2 0.4,-2 0.3,-0.95 0.05,-1.4 0.1,-0.35 Q 7.35,29.25 7.3,28.75 7.25,28 7.65,27.45 q 0.4,-0.5 1.1,-0.7 L 9.3,26.7 9.15,26.65 8.55,26.45 Q 7.95,27.05 7.25,26.7 6.65,26.5 6.4,25.85 L 6.2,24.6 6.3,22.75 q 0.3,-1.6 1.1,-2.3 0.2,-0.15 0.35,-0.2 L 7.6,20 6.85,18.8 5.95,17.65 q -0.45,-0.6 -0.35,-1.3 0.1,-0.7 0.7,-1.1 0.55,-0.5 1.25,-0.15 0.55,0.25 1.2,1.25 l 1,0.95 0.6,1.2 0.65,0.35 0.8,0.2 M 9.85,30.45 9.55,30.4 9.6,30.75 h 0.9 l -0.65,-0.3"
         fill="#999999"
         fill-rule="evenodd"
         stroke="none"
         id="path4" />
      <path
         d="m 37.15,13.05 q 2.1,-0.9 4.3,-0.85 1.6,0 3,0.5 l 1.2,-1.15 8.75,-7.15 1.45,-1 q 1.15,-0.6 2,-0.55 1.25,0.1 1.7,1.05 0.25,0.5 0.1,1.25 -0.15,1 -1.15,2.35 l -5.15,6.3 -3.45,3.8 q 0.8,1.6 1.25,3.6 0.8,3.45 0.25,6.5 -0.6,3.4 -2.7,6.4 l 1.55,0.95 0.65,0.35 0.55,0.5 0.9,0.4 1.2,0.95 0.45,0.65 -0.1,0.7 -0.25,0.45 -0.7,0.3 L 51.4,39.15 50.85,39 H 47.3 L 45.75,38.6 H 44.3 l 0.25,0.3 0.8,1 1.15,0.95 3.05,3.2 0.5,0.8 0.2,0.9 0.25,0.7 q 0,0.6 -0.7,0.95 l -1.2,0.1 -2,-0.25 -1.65,-0.8 -1.65,-0.95 -3.05,-1.65 -2.35,-1.5 -0.2,-0.1 -2.75,1.8 -0.75,0.55 -1.2,0.9 -0.65,0.75 Q 31.5,46.9 30.6,46.6 l -1.2,-0.85 -1,-1.15 Q 27.45,43.55 25.45,42.85 20.25,45.6 13.1,49.8 11.8,50.65 10.85,50.65 10.25,50.7 9.7,50.3 9.2,49.9 9.15,49.3 9.15,48.9 9.7,48 l 2.75,-3.7 3.65,-3.55 1.25,-1.1 q -1.15,-1.05 -2.4,-2.8 -1.45,-2.05 -2,-3.4 L 12.7,32.5 12.1,32.2 11.15,31.7 10.3,31.45 8.95,30.8 7.05,29.6 6.35,29 5.65,28.3 5.6,27.55 q 0,-1.2 0.75,-1.7 l 1.4,-0.2 2.75,0.2 1.25,0.35 0.55,0.15 0.2,0.05 L 12.65,25 11.9,24.1 10.7,23.05 6.05,18.85 Q 4.75,17.55 4.5,16.5 4.3,15.5 4.7,14.45 5,13.8 5.4,13.55 l 1.2,-0.2 2.2,0.4 1.25,0.75 1.4,0.55 q 0.75,0.25 2.3,1.3 l 2.1,1.55 q 2.05,-2.7 4.3,-3.9 1.8,-0.9 3.8,-1.05 2.1,-0.15 3.9,0.6 1.9,0.75 3.25,2.3 l 0.85,1.2 q 2.25,-2.8 5.2,-4 m 9.95,4 0.8,-0.05 q 4.75,-5.45 8.85,-11.4 -2.3,1.55 -7.45,6.25 l -3.6,3.5 -0.35,0.4 0.05,0.1 q 0.6,1.1 1.7,1.2 m 1.5,19.9 2.05,0.05 -0.85,-0.6 q -1.15,-0.6 -2.1,-0.85 l -0.15,-0.05 -1,1.05 2.05,0.4 m -7.05,5.5 3.3,1.35 1.55,0.75 1.65,0.55 -1.55,-1.8 -1.2,-0.9 -1.8,-1 -1.65,-1.2 q -1.1,0.6 -2.25,1.15 l 0.8,0.55 1.15,0.55 M 17.3,23.5 Q 18,22.65 17.45,21.75 L 17.2,21.5 Q 15.8,19.95 12,17.8 10.85,17.15 10.4,17.05 l -1.15,-0.4 -1.2,-0.7 -1.35,-0.2 q 1,1.45 3.55,3.45 2.7,2.15 3.65,3.3 l 1.35,1.35 0.95,0.3 q 0.65,-0.1 1.1,-0.65 m -5.2,4.8 -2.05,-0.35 -1.35,-0.1 0.9,0.7 1.2,0.7 1.15,0.25 0.5,0.2 V 28.35 L 12.1,28.3 m 10.3,9.2 -0.2,0.1 -4.5,4.65 q -2.55,2.85 -3.35,4.05 6.7,-4.1 9.8,-5.8 l 0.35,-0.4 q 0.3,-0.45 0.25,-1 l -0.4,-1 Q 23.6,37.15 22.4,37.5"
         fill="#000000"
         fill-rule="evenodd"
         stroke="none"
         id="path5" />
    </g>
    <g
       id="shape2"
       transform="translate(1.5,1.5)">
      <path
         d="M 0,23.8 V 0 H 64.1 V 23.8 57.55 H 0 Z"
         fill="none"
         stroke="#000000"
         stroke-linecap="round"
         stroke-linejoin="round"
         stroke-width="3"
         id="path6" />
    </g>
  </defs>
</svg>
