<?xml version="1.0" encoding="UTF-8" standalone="no"?>
<svg
   ffdec:objectType="frame"
   height="60.549999"
   width="67.099998"
   version="1.1"
   id="svg9"
   sodipodi:docname="404.svg"
   xmlns:inkscape="http://www.inkscape.org/namespaces/inkscape"
   xmlns:sodipodi="http://sodipodi.sourceforge.net/DTD/sodipodi-0.dtd"
   xmlns:xlink="http://www.w3.org/1999/xlink"
   xmlns="http://www.w3.org/2000/svg"
   xmlns:svg="http://www.w3.org/2000/svg"
   xmlns:ffdec="https://www.free-decompiler.com/flash">
  <sodipodi:namedview
     id="namedview9"
     pagecolor="#ffffff"
     bordercolor="#000000"
     borderopacity="0.25"
     inkscape:showpageshadow="2"
     inkscape:pageopacity="0.0"
     inkscape:pagecheckerboard="0"
     inkscape:deskcolor="#d1d1d1"
     fit-margin-top="5"
     fit-margin-left="5"
     fit-margin-right="5"
     fit-margin-bottom="5" />
  <g
     transform="translate(1.5,1.5)"
     id="g3">
    <use
       ffdec:characterId="516"
       height="57.549999"
       width="64.099998"
       xlink:href="#shape0"
       id="use1" />
    <use
       ffdec:characterId="903"
       height="53.75"
       transform="translate(-0.1,2.9)"
       width="63.849998"
       xlink:href="#shape1"
       id="use2" />
    <use
       ffdec:characterId="518"
       height="60.549999"
       transform="translate(-1.5,-1.5)"
       width="67.099998"
       xlink:href="#shape2"
       id="use3" />
  </g>
  <defs
     id="defs9">
    <g
       id="shape0">
      <path
         d="M 53.6,0 H 64.1 V 57.55 H 53.6 28.25 0 V 0 H 28.25 53.6 V 57.55 0 M 28.25,0 V 57.55 0"
         fill="#ffffff"
         fill-rule="evenodd"
         stroke="none"
         id="path3" />
    </g>
    <g
       id="shape1"
       transform="translate(0.1,-2.9)">
      <path
         d="m 39,36.55 q 2.25,-1.05 3.6,-1.6 V 34 l -0.45,-1.1 -0.3,-1.7 0.05,-0.4 q 0.2,-0.2 0.5,0 l 0.3,0.5 1.1,2 0.35,0.6 v -0.15 l -0.05,-2.9 -0.05,-1 V 29.5 L 44,28.7 44.05,28.1 44.3,27.5 q 0.3,-0.2 0.55,0 l 0.25,0.45 0.05,0.55 0.3,0.7 0.35,1.65 0.05,0.55 0.2,0.6 0.15,2.2 1.45,0.45 0.1,-0.25 0.7,-1.1 1.05,-1.45 q 0.35,-0.35 0.45,-0.35 0.4,-0.1 0.4,0.45 l -0.25,0.7 q -0.6,1 -0.6,2.25 v 0.6 l 0.9,0.4 1,0.35 V 36.2 l 0.3,-0.9 3.55,-7.2 0.8,-1.15 Q 56.6,26.5 57.9,26.4 l 4.65,-0.1 q 0.6,0 0.85,0.25 0.5,0.35 0.2,0.9 l -0.75,0.5 -0.3,0.1 0.95,1.1 0.25,1.75 v 4.2 l -0.3,2.25 -0.1,0.25 v 0.05 0.1 0.05 0.1 0.05 0.1 0.05 0.1 0.05 0.1 0.05 0.1 0.1 0.05 0.1 0.05 0.1 0.05 0.1 0.05 0.1 0.05 0.1 0.05 0.1 0.05 0.1 0.05 0.1 0.05 0.1 0.05 0.1 0.05 0.1 0.05 0.1 0.05 0.1 0.05 0.1 0.05 0.1 0.05 0.1 0.05 0.1 0.05 0.1 0.05 0.1 0.05 0.1 0.05 0.1 0.05 0.1 0.05 0.1 0.05 0.1 0.05 0.1 0.05 0.1 0.05 0.1 0.05 0.1 0.05 0.1 0.05 0.1 0.05 0.1 0.05 0.1 0.05 0.1 0.05 0.1 0.05 0.1 0.05 0.1 0.05 0.1 0.05 0.1 0.05 0.1 0.05 0.1 0.05 0.1 0.05 0.1 0.05 0.1 0.05 l -0.05,0.1 v 0.05 0.1 0.05 0.1 0.05 0.1 0.1 0.05 0.1 0.05 0.1 0.05 0.1 0.05 0.1 0.05 0.1 0.05 0.1 0.05 0.1 0.05 0.1 0.05 0.1 0.05 0.1 0.05 0.1 0.05 0.1 0.05 0.1 0.05 0.1 0.05 0.1 0.05 0.1 0.05 0.1 0.05 0.1 0.05 0.1 0.05 0.1 0.05 0.1 0.05 0.1 0.05 0.1 0.05 0.1 0.05 0.1 0.05 0.1 0.05 0.1 0.05 0.1 0.05 0.1 0.05 0.1 0.05 0.1 0.05 0.1 0.05 0.1 0.05 0.1 0.05 0.1 0.05 0.1 0.05 0.1 0.05 0.1 0.05 0.1 0.05 0.1 0.05 0.1 0.05 0.1 0.05 l -0.05,0.1 v 0.05 0.1 0.05 0.1 0.05 0.1 0.05 0.1 0.05 0.1 0.1 0.05 0.1 0.05 0.1 0.05 0.1 l -0.05,0.05 v 0.1 0.05 0.1 0.05 0.1 L 63.15,54 v 0.1 0.05 0.1 0.05 0.05 l 0.05,0.05 0.1,0.1 0.05,0.05 0.05,0.1 0.05,0.05 0.05,0.1 v 0.05 l 0.05,0.1 V 55 l 0.05,0.1 v 0.05 0.1 0.05 0.1 0.05 0.1 0.05 l -0.05,0.1 v 0.05 l -0.05,0.1 -0.05,0.05 V 56 l -0.05,0.05 -0.1,0.1 -0.05,0.05 -0.1,0.1 -0.1,0.05 -0.1,0.1 -0.15,0.05 h -0.05 l -0.1,0.05 H 62.4 62.05 61.6 L 61.15,56.5 h -0.2 -0.05 -0.8 l -0.65,-0.05 h -0.6 l -0.2,0.05 H 58.3 54.05 48.1 46.9 40.45 19.5 18 l -5.65,0.05 H 10.3 L 9.4,56.6 H 6.5 4.45 3.2 3.1 3 2.75 2.55 2.2 1.95 l -0.1,0.05 H 1.65 1.45 1.2 L 1.1,56.6 H 1 L 0.85,56.55 0.7,56.45 0.55,56.4 0.5,56.3 0.4,56.25 0.35,56.15 0.3,56.1 V 56.05 H 0.25 V 56 L 0.2,55.95 0.15,55.9 0.1,55.8 0.05,55.75 v -0.1 L 0,55.6 V 55.5 L -0.05,55.45 V 55.35 55.3 55.2 55.15 L -0.1,55.05 V 55 54.9 54.85 54.75 54.7 54.6 l 0.05,-0.05 V 54.45 54.4 L -0.1,54.3 v -0.05 -0.1 L -0.05,54.1 V 54 53.95 53.85 53.8 53.7 53.65 53.55 53.5 53.4 53.35 53.25 53.2 53.1 L -0.1,53.05 v -0.1 -0.1 -0.05 -0.1 -0.05 -0.1 L -0.05,52.5 V 52.4 52.35 52.25 52.2 52.1 52.05 51.95 51.9 51.8 51.75 51.65 51.6 51.5 51.45 51.35 51.3 51.2 51.15 51.05 51 50.9 50.85 50.75 50.7 50.6 50.55 50.45 50.4 50.3 50.25 50.15 50.1 50 49.95 49.85 49.8 49.7 49.65 49.55 49.5 49.4 L 0,49.35 V 49.25 49.2 49.1 49.05 48.95 48.9 48.8 48.75 48.65 48.6 48.5 48.45 48.35 48.3 48.2 48.15 48.05 48 47.9 47.85 47.75 47.7 47.6 47.55 47.45 47.4 47.3 47.25 47.15 47.1 47 46.95 46.85 46.8 46.7 46.65 46.55 46.5 46.4 46.35 46.25 46.2 46.1 46.05 45.95 45.9 45.8 45.75 45.65 45.55 45.5 45.4 45.35 45.25 45.2 45.1 45.05 44.95 44.9 44.8 44.75 44.65 44.6 44.5 44.45 44.35 44.3 44.2 44.15 44.05 44 43.9 43.85 43.75 43.7 43.6 43.55 43.45 43.4 43.3 43.25 43.15 43.1 L 0.05,43 V 42.95 42.85 42.8 42.7 42.65 42.55 42.5 42.4 42.35 42.25 42.2 42.1 42.05 41.95 41.9 41.8 41.75 41.65 41.6 41.5 41.45 41.35 41.3 41.2 41.15 41.05 41 40.9 40.85 40.75 40.7 40.6 40.55 40.45 40.4 L 0.1,40.3 V 40.25 40.15 40.1 40 39.95 39.85 39.8 39.7 39.65 39.55 39.5 39.4 39.35 39.25 39.2 39.1 39.05 38.95 38.9 38.8 38.75 38.65 38.6 38.5 38.4 38.35 38.25 38.2 38.1 38.05 37.95 L 0.15,37.9 V 37.8 37.75 37.65 37.6 37.5 37.45 37.35 37.3 37.2 37.15 37.05 37 36.9 36.85 36.75 36.7 36.6 36.55 36.45 L 0.2,36.4 V 36.3 36.25 36.15 36.1 36 35.95 35.85 35.8 35.7 35.65 35.55 L 0.25,35.5 V 35.4 35.35 35.25 35.2 35.1 35.05 34.95 34.9 L 0.3,34.8 v -0.05 -0.1 -0.05 -0.1 -0.05 -0.1 -0.05 -0.1 l 0.05,-0.05 v -0.1 L 0.4,34 v -0.05 l -0.2,-0.4 q -0.3,-0.75 0.05,-1.4 0.4,-0.65 1.5,-0.95 1.05,-0.3 2.05,0 0.95,0.25 2.05,1.3 L 7.3,33.8 Q 6.7,26.35 5.75,23.15 5.3,21.6 5.4,21 q 0.15,-0.95 1.75,-2.8 0.9,-1 1.5,-2.35 0.4,-1.1 0.85,-1.5 Q 9.9,14 11,13.8 l 1.2,-0.2 v -0.15 l 0.05,-4.9 -0.8,0.1 -0.8,0.25 -0.7,-0.1 Q 9.3,8.5 9.15,7.8 9.05,7 9.6,6.55 q 0.5,-0.5 1.25,-0.4 l 0.45,0.1 0.85,-0.1 0.1,-1.6 0.1,-0.9 q 0.25,-0.6 0.95,-0.7 0.65,-0.15 1.1,0.4 0.4,0.55 0.3,1.75 L 14.65,6 h 0.45 l 1.25,0.05 q 0.9,0.25 1.05,1.1 L 17.3,7.9 16.7,8.45 15.55,8.55 H 14.7 l 0.05,1.15 0.25,3.35 1.8,0.05 q 0.65,0.4 1.05,1.85 0.65,2 1.55,3.55 0.8,1.35 0.85,1.85 V 21.8 L 19,32.35 l -0.4,0.9 -0.45,0.15 -0.35,-0.3 -1.4,1.5 -0.55,0.55 q 2.45,1.5 4,2.85 l 0.8,0.45 0.8,-0.2 q 4.05,-1.8 8.25,-3.15 1.6,-0.55 2.6,-0.45 0.85,0.1 2,0.75 l 3.55,1.75 0.1,0.05 Q 38.3,36.9 39,36.55 M 18.7,48 18.65,48.25 18.25,48.1 17.9,48 q -0.6,-0.15 -1,0.3 l -0.05,-0.1 -1.2,-1.2 -1.4,-0.7 -1.65,-0.55 -0.9,-0.2 -0.85,0.1 -0.35,0.1 -0.7,0.1 L 9.7,46 q 0.05,0.2 0.4,0.2 l 0.9,0.15 0.7,0.3 0.15,0.1 0.45,0.5 0.5,1 0.3,0.8 -0.25,0.05 -2.8,1.05 -0.8,0.65 Q 8.85,51.2 9,51.45 l 0.6,0.1 q 2.85,-0.8 4.9,-0.8 l 2.65,0.3 2,0.45 1.05,0.75 0.25,0.15 0.25,0.2 1,0.6 h 0.65 q 0.35,-0.25 0.15,-0.7 l -0.3,-0.65 -0.6,-0.9 -0.2,-0.25 0.65,0.1 2.95,0.45 3.65,0.8 h 0.5 l 0.15,-0.2 v -0.2 L 29.15,51.5 27.95,50.9 Q 27.6,50.6 27.1,50.45 L 25.05,49.7 24.45,49.4 23.4,49.1 22.95,49 l 5.55,-0.75 2.4,-0.15 4.8,0.2 0.65,-0.05 0.45,-0.5 q 0,-0.4 -0.85,-0.65 L 29,46.4 l 0.8,-0.35 3,-0.95 -0.05,-0.15 -0.2,-0.05 -2.4,0.05 -2.8,0.55 q -1.2,0.35 -2.05,0.8 l -0.3,0.2 -4.3,0.45 q -1.65,0.2 -2,1.05"
         fill="#999999"
         fill-rule="evenodd"
         stroke="none"
         id="path4" />
      <path
         d="m 18.7,48 q 0.35,-0.85 2,-1.05 L 25,46.5 25.3,46.3 q 0.85,-0.45 2.05,-0.8 l 2.8,-0.55 2.4,-0.05 0.2,0.05 0.05,0.15 -3,0.95 -0.8,0.35 6.95,0.7 q 0.85,0.25 0.85,0.65 l -0.45,0.5 -0.65,0.05 -4.8,-0.2 -2.4,0.15 -5.55,0.75 0.45,0.1 1.05,0.3 0.6,0.3 2.05,0.75 q 0.5,0.15 0.85,0.45 l 1.2,0.6 0.15,0.15 v 0.2 l -0.15,0.2 h -0.5 L 25,51.25 22.05,50.8 21.4,50.7 l 0.2,0.25 0.6,0.9 0.3,0.65 q 0.2,0.45 -0.15,0.7 H 21.7 l -1,-0.6 -0.25,-0.2 -0.25,-0.15 -1.05,-0.75 -2,-0.45 -2.65,-0.3 q -2.05,0 -4.9,0.8 L 9,51.45 Q 8.85,51.2 9.25,50.8 l 0.8,-0.65 2.8,-1.05 0.25,-0.05 -0.3,-0.8 -0.5,-1 -0.45,-0.5 L 11.7,46.65 11,46.35 10.1,46.2 Q 9.75,46.2 9.7,46 l 0.1,-0.15 0.7,-0.1 0.35,-0.1 0.85,-0.1 0.9,0.2 1.65,0.55 1.4,0.7 1.2,1.2 0.05,0.1 q 0.4,-0.45 1,-0.3 l 0.35,0.1 0.4,0.15 L 18.7,48"
         fill="#ffffff"
         fill-rule="evenodd"
         stroke="none"
         id="path5" />
      <path
         d="m 34.9,35.95 q 1.3,1.3 1.2,2.3 l -0.8,1.4 -4.35,4.55 q -2.4,2.3 -4.9,3.5 -2.25,0.95 -5.3,1.1 l -5.6,-0.3 -1.25,-0.35 -0.1,0.1 -0.15,-0.15 -0.1,-0.1 -0.1,-0.1 0.1,-0.1 -0.4,-1.3 q -0.35,-3.55 -0.25,-5.55 0.1,-3.1 1.05,-5.35 1.2,-2.5 3.5,-4.9 l 4.55,-4.35 1.4,-0.8 q 1,-0.1 2.3,1.2 l 3,2.6 0.1,-0.1 0.15,-0.05 0.05,-0.05 0.1,-0.1 0.1,-0.1 0.35,-0.35 0.05,-0.05 0.25,-0.25 0.1,-0.1 0.1,-0.1 0.1,-0.1 0.35,-0.35 0.05,-0.05 0.1,-0.1 h 0.1 0.1 v -0.1 l 0.1,-0.1 0.1,-0.1 0.15,-0.05 0.05,-0.05 Q 31.15,27 31.3,27.05 v -0.1 l 0.1,-0.1 h 0.1 v -0.1 l 0.1,-0.1 0.1,-0.1 0.1,-0.1 0.1,-0.1 0.1,-0.1 0.25,-0.25 0.05,0.05 0.25,-0.25 0.1,-0.1 0.75,-0.75 0.1,-0.1 0.5,-0.5 0.1,-0.1 0.75,-0.75 0.1,-0.1 0.55,-0.55 0.1,-0.1 0.1,-0.1 0.75,-0.75 0.1,-0.1 0.1,-0.1 0.85,-0.85 0.1,-0.1 3.35,-3.25 0.1,-0.1 L 41.2,17.25 41.25,17.2 41.3,17.15 39.75,15.6 39,14.35 q -0.1,-0.6 0.1,-1.2 L 39.85,12.3 42.5,9.65 q 1.15,-1.05 1.85,-1.05 0.9,0 1.85,1.15 l 2.7,2.7 0.35,0.35 2.65,2.65 q 1.15,0.95 1.15,1.85 0,0.7 -1.05,1.85 l -2.6,2.7 -0.9,0.7 -1.2,0.1 -1.25,-0.75 -1.35,-1.35 -0.15,0.15 -0.1,0.1 -0.1,0.1 -0.1,0.1 -0.1,0.1 -0.1,0.1 v 0.1 l -0.4,0.4 -0.1,0.1 -0.1,0.1 -0.1,0.1 -0.2,0.2 v 0.1 l -0.3,0.3 -0.1,0.1 -0.1,0.1 -0.4,0.4 -0.1,0.1 -0.1,0.1 -0.1,0.1 -0.55,0.55 -0.1,0.1 -0.1,0.1 -0.1,0.1 -0.55,0.55 -0.1,0.1 -0.1,0.1 -0.1,0.1 -0.1,0.1 -0.45,0.45 -0.1,0.1 -0.1,0.1 -0.1,0.1 -0.1,0.1 -0.55,0.55 -0.1,0.1 -0.1,0.1 -0.1,0.1 -0.55,0.55 -0.1,0.1 -0.1,0.1 -0.1,0.1 -0.3,0.3 -0.1,0.1 -0.1,0.1 -0.1,0.1 -0.25,0.25 -0.05,0.05 -0.25,0.25 -0.1,0.1 -0.1,0.1 -0.1,0.1 -0.55,0.55 -0.1,0.1 -0.1,0.1 -0.1,0.1 -0.1,0.1 -0.45,0.45 -0.1,0.1 -0.1,0.1 -0.1,0.1 -0.1,0.1 -0.55,0.55 -0.1,0.1 -0.1,0.1 -0.1,0.1 -0.25,0.25 -0.05,0.05 -0.25,0.25 -0.1,0.1 -0.1,0.1 -0.1,0.1 -0.25,0.25 2.5,2.9 M 45.45,15.9 46.5,16.95 q 1.1,0.9 1.4,1.5 l 1,-1 -2.1,-2.2 -0.35,-0.35 -2.25,-2.15 -1,1 1.5,1.4 0.75,0.75 m -21,13.3 -1,-0.8 q -2.75,2.25 -4.6,4.2 -2.3,2.5 -3.15,5.25 l -0.3,2.4 -0.05,1.35 0.15,3.85 0.15,0.55 0.05,0.05 0.5,0.1 0.55,0.05 h 0.5 0.05 l 2.5,0.15 0.25,-0.05 h 0.1 l 3.65,-0.35 q 2.75,-0.85 5.3,-3.1 l 4.15,-4.65 -0.2,-0.3 -2.05,-2.4 -0.3,-0.35 -0.15,0.15 -0.15,0.15 -0.2,0.4 -0.05,0.05 -3.05,3.05 -1.95,1.45 -1.4,0.4 -0.9,-0.1 Q 22.2,40.55 21.75,40 L 20.7,38.45 20.6,37.85 Q 20.55,37.2 20.85,36.7 l 0.15,-0.15 0.5,-0.4 0.55,-0.05 v 0.6 l -0.15,0.35 v 0.2 l 0.15,0.65 0.15,0.2 q 0.5,0.9 1.1,1.15 l 0.15,0.05 0.25,0.05 0.95,-0.25 0.75,-0.65 0.15,-0.15 3.1,-3.2 L 28.5,35.05 28.25,35 V 34.95 L 28.15,34.9 28.1,34.85 27.95,34.8 27.8,34.75 27.65,34.6 27.4,34.35 v -0.1 H 27.3 L 27.05,34 26.9,33.85 26.85,33.7 26.8,33.55 26.75,33.5 26.65,33.4 26.6,33.15 26.55,33 l -0.1,-0.1 0.1,-0.1 -0.05,-0.15 v -0.1 -0.1 -0.1 -0.1 L 26.55,32.1 V 32 L 26.6,31.85 26.65,31.8 26.6,31.65 h 0.1 v -0.2 l 0.1,-0.1 -0.05,-0.05 0.05,-0.05 -0.35,-0.3 -1.15,-1.1 -0.05,-0.05 -0.8,-0.6"
         fill="#000000"
         fill-rule="evenodd"
         stroke="none"
         id="path6" />
      <path
         d="m 15.4,40.25 0.5,-1.8 q 0.45,-1.45 1,-2.3 l 1,-1.4 q 2.7,-3 5.85,-5.15 l 0.7,-0.4 0.8,0.6 0.05,0.05 1.15,1.1 0.35,0.3 -0.05,0.05 0.05,0.05 -0.1,0.1 v 0.2 H 26.6 L 26.65,31.8 26.6,31.85 26.55,32 v 0.1 l -0.05,0.15 v 0.1 0.1 l -0.05,0.05 -2.7,2.6 -1.85,1.95 0.15,-0.35 v -0.6 l -0.55,0.05 -0.5,0.4 -0.15,0.15 q -0.3,0.5 -0.25,1.15 l 0.1,0.6 1.05,1.55 q 0.45,0.55 1.1,0.7 l 0.9,0.1 1.4,-0.4 1.95,-1.45 3.05,-3.05 0.05,-0.05 0.2,-0.4 0.15,-0.15 0.15,-0.15 0.3,0.35 2.05,2.4 -1,1.5 -4,3.8 q -0.95,0.65 -1.95,1.25 l -3,1.2 -2.95,0.65 h -0.1 L 19.8,46.35 17.3,46.2 h -0.05 -0.5 L 16.2,46.15 15.7,46.05 15.65,46 15.5,45.45 15.35,41.6 15.4,40.25 m 6.65,-2.35 0.85,-0.35 1.25,-0.65 1.05,-0.65 1.6,-1.3 0.6,-0.6 0.25,0.25 0.15,0.15 0.15,0.05 0.15,0.05 0.05,0.05 0.1,0.05 V 35 l 0.25,0.05 0.15,0.05 -3.1,3.2 L 25.4,38.45 24.65,39.1 23.7,39.35 23.45,39.3 23.3,39.25 Q 22.7,39 22.2,38.1 l -0.15,-0.2"
         fill="#999999"
         fill-rule="evenodd"
         stroke="none"
         id="path7" />
      <path
         d="m 24.45,29.2 -0.7,0.4 q -3.15,2.15 -5.85,5.15 l -1,1.4 q -0.55,0.85 -1,2.3 l -0.5,1.8 0.3,-2.4 q 0.85,-2.75 3.15,-5.25 1.85,-1.95 4.6,-4.2 l 1,0.8 m -4.3,17.1 2.95,-0.65 3,-1.2 q 1,-0.6 1.95,-1.25 l 4,-3.8 1,-1.5 0.2,0.3 -4.15,4.65 q -2.55,2.25 -5.3,3.1 l -3.65,0.35 m 1.75,-9.25 1.85,-1.95 2.7,-2.6 0.05,-0.05 v 0.1 0.1 l 0.05,0.15 -0.1,0.1 0.1,0.1 0.05,0.15 0.05,0.25 0.1,0.1 0.05,0.05 0.05,0.15 0.05,0.15 0.15,0.15 0.25,0.25 h 0.1 v 0.1 l -0.6,0.6 -1.6,1.3 -1.05,0.65 -1.25,0.65 -0.85,0.35 -0.15,-0.65 v -0.2"
         fill="#ffffff"
         fill-rule="evenodd"
         stroke="none"
         id="path8" />
    </g>
    <g
       id="shape2"
       transform="translate(1.5,1.5)">
      <path
         d="M 0,23.8 V 0 H 64.1 V 23.8 57.55 H 0 Z"
         fill="none"
         stroke="#000000"
         stroke-linecap="round"
         stroke-linejoin="round"
         stroke-width="3"
         id="path9" />
    </g>
  </defs>
</svg>
