<?xml version="1.0" encoding="UTF-8" standalone="no"?>
<svg
   ffdec:objectType="frame"
   height="60.549999"
   width="67.099998"
   version="1.1"
   id="svg7"
   sodipodi:docname="818.svg"
   xmlns:inkscape="http://www.inkscape.org/namespaces/inkscape"
   xmlns:sodipodi="http://sodipodi.sourceforge.net/DTD/sodipodi-0.dtd"
   xmlns:xlink="http://www.w3.org/1999/xlink"
   xmlns="http://www.w3.org/2000/svg"
   xmlns:svg="http://www.w3.org/2000/svg"
   xmlns:ffdec="https://www.free-decompiler.com/flash">
  <sodipodi:namedview
     id="namedview7"
     pagecolor="#ffffff"
     bordercolor="#000000"
     borderopacity="0.25"
     inkscape:showpageshadow="2"
     inkscape:pageopacity="0.0"
     inkscape:pagecheckerboard="0"
     inkscape:deskcolor="#d1d1d1"
     fit-margin-top="5"
     fit-margin-left="5"
     fit-margin-right="5"
     fit-margin-bottom="5" />
  <g
     transform="translate(1.5,1.5)"
     id="g3">
    <use
       ffdec:characterId="516"
       height="57.549999"
       width="64.099998"
       xlink:href="#shape0"
       id="use1" />
    <use
       ffdec:characterId="1306"
       height="57.549999"
       width="64.099998"
       xlink:href="#shape1"
       id="use2" />
    <use
       ffdec:characterId="518"
       height="60.549999"
       transform="translate(-1.5,-1.5)"
       width="67.099998"
       xlink:href="#shape2"
       id="use3" />
  </g>
  <defs
     id="defs7">
    <g
       id="shape0">
      <path
         d="M 53.6,0 H 64.1 V 57.55 H 53.6 28.25 0 V 0 H 28.25 53.6 V 57.55 0 M 28.25,0 V 57.55 0"
         fill="#ffffff"
         fill-rule="evenodd"
         stroke="none"
         id="path3" />
    </g>
    <g
       id="shape1">
      <path
         d="M 0,0 H 64.1 V 57.55 H 0 V 0"
         fill="#999999"
         fill-rule="evenodd"
         stroke="none"
         id="path4" />
      <path
         d="m 52.65,15.05 q 3.7,5.6 3.7,14.15 -0.1,6.45 -2.1,11.2 -2.35,5.8 -7.15,8.8 -1.45,0.9 -3.7,1.85 -5.65,2.5 -9.35,2.6 h -4.3 q -3.7,-0.1 -9.35,-2.6 -2.25,-0.95 -3.7,-1.85 -4.8,-3 -7.15,-8.8 -2,-4.75 -2.1,-11.2 0,-8.55 3.7,-14.15 2.8,-4.35 8.4,-7.85 4.3,-2.65 7.6,-3.2 l 3.8,-0.35 5.7,0.35 q 3.3,0.55 7.6,3.2 5.6,3.5 8.4,7.85 m -3.9,18.55 q 1.1,-1.95 1.6,-4.35 L 49.5,29.3 H 46.1 46 l -0.2,0.05 h -0.35 l -1.4,0.05 h -1.2 l -0.3,0.05 -0.55,0.6 -0.35,0.35 -0.05,0.05 v 0.05 l -0.05,0.05 -0.05,0.05 -0.1,0.05 -0.05,0.05 -0.05,0.1 -0.05,0.05 -0.05,0.05 -0.05,0.05 -0.1,0.05 -0.05,0.05 -0.1,0.1 -0.65,0.7 -0.75,0.65 -0.4,0.15 h -0.05 -0.1 l -0.1,0.05 H 38.6 38.4 L 38.3,32.65 H 38.2 L 38.05,32.6 37.95,32.55 37.8,32.5 37.7,32.45 37.65,32.4 37.55,32.3 37.5,32.25 37.45,32.2 l -0.1,-0.1 -0.1,-0.05 v -0.1 L 37.2,31.9 37.15,31.85 37.1,31.8 V 31.75 L 37.05,31.7 V 31.6 L 37,31.55 V 31.4 L 36.95,31.35 V 31.25 31.2 L 36.9,31.15 V 31 L 36.85,30.9 V 30.7 L 36.8,30.6 v -0.1 l -0.05,-0.05 v -0.1 L 36.7,30.25 V 30 29.9 29.8 l -0.05,-0.05 v -0.1 L 36.6,29.55 V 29.5 L 36.55,29.45 V 29.3 29.2 L 36.5,29.15 V 29.1 l -0.05,-0.05 v -0.1 -0.1 -0.05 L 36.4,28.75 V 28.6 28.5 28.45 L 36.35,28.4 V 28.25 L 36.3,28.15 V 28 L 36.25,27.95 V 27.9 27.8 27.65 L 36.2,27.6 v -0.05 -0.1 -0.1 L 36.15,27.3 V 27.2 27.1 27.05 L 36.1,27 v -0.1 l -0.05,-0.05 v -0.1 -0.2 L 36,26.5 v -0.1 -0.2 -0.1 l -0.05,-0.05 v -0.1 L 35.9,25.9 v -0.05 -0.1 L 35.85,25.7 V 25.55 L 35.8,25.5 35.75,25.4 V 25.35 L 35.7,25.4 v 0.05 l -0.05,0.05 v 0.05 l -0.05,0.05 -0.05,0.1 -0.05,0.05 v 0.1 l -0.05,0.05 v 0.05 l -0.05,0.1 v 0.05 l -0.05,0.05 v 0.05 l -0.05,0.05 -0.05,0.05 v 0.1 l -0.05,0.05 v 0.05 l -0.05,0.05 -0.05,0.05 -0.05,0.05 v 0.1 L 35,26.8 v 0.05 l -0.05,0.05 v 0.05 L 34.9,27 34.85,27.1 v 0.05 L 34.8,27.2 v 0.05 l -0.05,0.05 -0.05,0.05 v 0.1 l -0.05,0.05 v 0.05 L 34.6,27.6 v 0.05 l -0.05,0.05 -0.05,0.1 v 0.05 L 34.45,27.9 34.4,27.95 34.35,28 v 0.05 l -0.05,0.1 -0.05,0.05 v 0.05 L 34.2,28.3 v 0.05 l -0.05,0.05 v 0.1 L 34.1,28.55 V 28.6 L 34,28.7 v 0.05 l -0.05,0.1 v 0.1 L 33.9,29 v 0.05 l -0.05,0.05 -0.05,0.1 v 0.05 l -0.05,0.05 -0.05,0.05 v 0.05 l -0.05,0.1 -0.05,0.05 v 0.05 l -0.05,0.05 -0.05,0.05 v 0.05 l -0.05,0.1 V 29.9 L 33.4,29.95 33.35,30 v 0.05 L 33.3,30.1 v 0.1 l -0.05,0.05 -0.05,0.05 -0.05,0.05 -0.05,0.05 v 0.05 L 33.05,30.55 33,30.6 v 0.05 l -0.05,0.05 v 0.05 l -0.05,0.05 -0.05,0.1 -0.15,0.15 -0.05,0.05 v 0.05 l -0.05,0.1 v 0.1 l -0.05,0.05 -0.05,0.05 v 0.05 l -0.05,0.1 -0.05,0.05 -0.05,0.05 -0.05,0.05 v 0.05 l -0.05,0.05 -0.05,0.1 V 32 l -0.05,0.05 v 0.05 l -0.05,0.05 -0.05,0.05 v 0.1 L 32,32.35 31.95,32.4 v 0.05 l -0.05,0.05 -0.05,0.05 v 0.1 L 31.8,32.7 v 0.05 l -0.1,0.1 V 32.9 L 31.65,33 31.6,33.05 v 0.05 l -0.05,0.05 -0.05,0.05 v 0.05 l -0.05,0.1 v 0.1 l -0.1,0.1 v 0.05 l -0.05,0.1 v 0.05 l -0.05,0.05 v 0.1 L 31.2,34 v 0.05 l -0.05,0.05 v 0.05 L 31.1,34.2 v 0.05 l -0.05,0.1 -0.15,0.15 v 0.05 l -0.05,0.05 v 0.1 l -0.05,0.05 v 0.05 l -0.05,0.05 v 0.05 l -0.05,0.05 v 0.1 l -0.05,0.05 v 0.1 l -0.05,0.05 -0.05,0.05 v 0.1 l -0.05,0.05 v 0.05 l -0.05,0.05 v 0.05 l -0.05,0.05 v 0.1 l -0.05,0.05 v 0.05 L 30.3,35.9 v 0.05 L 30.25,36 30.2,36.1 v 0.05 l -0.05,0.05 -0.05,0.05 v 0.05 l -0.05,0.05 -0.05,0.1 -0.05,0.05 v 0.05 L 29.9,36.6 v 0.05 l -0.05,0.05 v 0.1 l -0.05,0.05 -0.05,0.05 v 0.05 L 29.65,37 29.6,37.05 v 0.1 l -0.05,0.05 v 0.05 L 29.5,37.3 29.45,37.35 29.4,37.4 v 0.1 l -0.1,0.1 v 0.05 l -0.1,0.05 -0.05,0.05 v 0.1 L 29.1,37.9 29.05,37.95 29,38 28.95,38.05 v 0.1 l -0.1,0.05 v 0.05 l -0.1,0.05 -0.05,0.05 -0.05,0.05 -0.05,0.1 v 0.05 l -0.05,0.05 -0.05,0.05 -0.05,0.05 v 0.05 l -0.1,0.1 -0.05,0.05 -0.05,0.05 -0.1,0.05 -0.05,0.05 v 0.05 l -0.05,0.1 -0.05,0.05 -0.05,0.05 -0.1,0.2 q -0.25,0.65 -1,0.85 -0.75,0.2 -1.3,-0.2 -0.5,-0.35 -0.9,-1.45 -2.55,-6.45 -4.2,-13.2 l -1.65,3.2 -1.2,1.5 -2.3,0.2 -1.8,-0.2 q 0.45,1.8 1.35,3.4 1.8,3.2 3.65,4.95 l 9.05,7.4 3.55,2.65 q 0.4,0.35 0.7,0.35 l 0.7,-0.35 3.55,-2.65 9.05,-7.4 Q 46.95,36.8 48.75,33.6 M 34.65,14.75 q -1.75,0.9 -2.85,2 -1.1,-1.1 -2.85,-2 -3.6,-1.85 -6.55,-1.5 -2.25,0.2 -4.2,1.55 -1.9,1.3 -3.1,3.35 -2.25,3.75 -2.15,8 l 0.1,1.55 3,-0.1 2.9,-5.25 q 0.55,-0.9 0.85,-1.15 0.6,-0.6 1.3,-0.45 0.75,0.2 1.3,1.45 0.95,2.15 2.15,6.2 l 2,6.2 0.6,1.45 L 27.2,36 v -0.1 l 0.05,-0.05 0.05,-0.05 v -0.05 l 0.05,-0.1 0.1,-0.1 V 35.5 L 27.5,35.45 27.55,35.4 V 35.3 L 27.6,35.25 V 35.2 l 0.05,-0.05 V 35.1 l 0.05,-0.05 0.05,-0.1 V 34.9 L 27.8,34.85 V 34.8 l 0.1,-0.1 0.05,-0.1 V 34.55 L 28,34.5 v -0.05 l 0.05,-0.05 v -0.05 l 0.05,-0.1 V 34.2 l 0.05,-0.05 V 34.1 L 28.2,34.05 V 34 l 0.05,-0.1 V 33.8 L 28.3,33.75 28.35,33.7 V 33.6 L 28.4,33.55 V 33.5 l 0.05,-0.05 V 33.4 l 0.05,-0.05 v -0.1 L 28.55,33.2 V 33.15 L 28.6,33.1 28.65,33.05 28.7,33 V 32.9 32.85 L 28.75,32.8 V 32.75 L 28.8,32.7 v -0.05 -0.1 L 28.85,32.5 V 32.45 L 28.9,32.4 28.95,32.35 V 32.3 32.2 L 29,32.15 V 32.1 l 0.05,-0.05 V 32 l 0.05,-0.05 0.05,-0.1 v -0.1 L 29.2,31.7 29.25,31.65 29.3,31.6 v -0.1 l 0.05,-0.05 0.05,-0.05 0.05,-0.05 V 31.3 l 0.05,-0.05 v -0.1 L 29.55,31.1 V 31.05 L 29.6,31 29.65,30.95 V 30.9 30.8 l 0.05,-0.05 0.05,-0.05 v -0.05 l 0.05,-0.05 0.05,-0.05 v -0.1 l 0.1,-0.1 V 30.3 L 30,30.25 30.05,30.2 30.1,30.1 V 30 l 0.05,-0.05 0.05,-0.05 v -0.05 l 0.05,-0.1 0.05,-0.05 v -0.1 l 0.05,-0.05 V 29.5 L 30.4,29.4 V 29.35 L 30.45,29.3 30.5,29.25 30.55,29.2 V 29.1 29.05 L 30.6,29 30.65,28.95 30.7,28.9 v -0.05 l 0.05,-0.1 0.05,-0.05 V 28.65 L 30.85,28.6 30.9,28.55 V 28.5 L 30.95,28.4 31,28.35 V 28.3 l 0.05,-0.05 0.05,-0.05 v -0.05 -0.1 l 0.05,-0.05 0.1,-0.1 v -0.05 l 0.05,-0.05 0.05,-0.1 v -0.15 l 0.05,-0.05 0.05,-0.05 v -0.1 L 31.5,27.3 V 27.25 L 31.55,27.2 V 27.15 L 31.6,27.1 V 27 l 0.05,-0.05 0.05,-0.05 v -0.1 l 0.05,-0.05 0.05,-0.1 V 26.6 l 0.05,-0.05 0.05,-0.05 0.05,-0.05 V 26.4 L 32,26.3 32.05,26.25 v -0.1 l 0.05,-0.05 0.05,-0.05 v -0.1 L 32.2,25.9 V 25.85 L 32.25,25.8 32.3,25.75 V 25.7 l 0.05,-0.1 0.05,-0.05 v -0.1 l 0.05,-0.05 v -0.05 l 0.05,-0.1 0.1,-0.1 v -0.1 L 32.65,25 32.7,24.9 V 24.85 L 32.75,24.8 V 24.7 L 32.8,24.6 V 24.55 L 32.85,24.5 V 24.45 L 32.9,24.4 V 24.35 L 32.95,24.25 33,24.2 V 24.15 L 33.05,24.1 33.1,24.05 V 24 23.9 l 0.05,-0.05 0.05,-0.05 0.05,-0.05 V 23.7 l 0.05,-0.05 0.05,-0.1 0.05,-0.05 V 23.45 L 33.45,23.4 V 23.35 L 33.5,23.3 33.55,23.2 V 23.15 L 33.6,23.1 33.65,23.05 V 23 l 0.05,-0.05 v -0.1 L 33.75,22.8 33.8,22.75 33.85,22.7 33.9,22.65 V 22.6 l 0.05,-0.1 V 22.45 L 34,22.4 v -0.05 l 0.05,-0.05 0.05,-0.05 v -0.1 L 34.15,22.1 V 22 L 34.2,21.95 34.25,21.9 V 21.8 L 34.3,21.75 34.35,21.7 34.4,21.65 V 21.6 l 0.05,-0.05 0.05,-0.1 V 21.4 L 34.55,21.35 34.6,21.3 V 21.25 L 34.65,21.2 34.7,21.1 V 21.05 L 34.75,21 34.8,20.95 v -0.1 l 0.05,-0.1 V 20.7 L 34.9,20.65 34.95,20.6 35,20.55 35.05,20.45 V 20.4 l 0.05,-0.05 0.05,-0.05 v -0.05 l 0.05,-0.05 0.05,-0.1 0.05,-0.05 0.05,-0.05 0.05,-0.05 0.1,-0.05 0.05,-0.05 0.1,-0.1 0.1,-0.05 0.15,-0.05 0.1,-0.05 h 0.1 0.1 0.2 v -0.05 h 0.05 l 0.2,0.05 h 0.1 0.05 l 0.15,0.05 0.15,0.05 0.1,0.05 0.05,0.1 0.1,0.05 0.1,0.05 0.05,0.05 0.05,0.05 0.05,0.05 v 0.1 l 0.05,0.05 0.05,0.05 0.05,0.05 v 0.05 l 0.05,0.05 v 0.1 l 0.05,0.05 v 0.15 l 0.05,0.1 v 0.25 0.1 0.1 l 0.05,0.05 v 0.1 l 0.05,0.1 v 0.05 l 0.05,0.05 v 0.15 0.1 0.05 L 38.1,22 v 0.05 l 0.05,0.05 v 0.05 0.1 0.1 l 0.05,0.05 v 0.1 l 0.05,0.1 v 0.1 l 0.05,0.05 v 0.1 0.1 0.05 l 0.05,0.05 0.05,0.05 v 0.1 l 0.05,0.1 v 0.15 l 0.05,0.05 v 0.05 0.1 0.2 l 0.05,0.05 V 24 l 0.05,0.05 v 0.1 l 0.05,0.05 v 0.05 0.1 0.1 l 0.05,0.05 v 0.05 l 0.05,0.05 v 0.1 l 0.05,0.05 v 0.05 l 0.05,0.05 v 0.05 0.1 0.1 l 0.05,0.05 0.05,0.05 v 0.05 0.1 L 39,25.4 v 0.15 l 0.05,0.05 v 0.1 0.15 l 0.05,0.05 v 0.05 0.1 l 0.05,0.05 v 0.05 l 0.05,0.05 v 0.1 0.1 0.2 l 0.05,0.05 0.05,0.1 v 0.1 l 0.05,0.05 v 0.1 0.1 0.05 l 0.05,0.05 v 0.1 l 0.05,0.05 v 0.1 0.1 l 0.05,0.05 v 0.1 l 0.05,0.05 0.1,-0.1 0.05,-0.05 v -0.05 l 0.05,-0.1 0.05,-0.05 0.05,-0.05 0.05,-0.05 0.1,-0.1 0.05,-0.1 0.05,-0.05 0.05,-0.05 0.05,-0.05 0.05,-0.05 0.05,-0.05 0.05,-0.1 0.05,-0.05 0.05,-0.05 0.05,-0.05 0.1,-0.05 0.05,-0.05 0.05,-0.1 0.1,-0.05 0.1,-0.05 0.1,-0.05 0.05,-0.05 0.1,-0.1 0.15,-0.05 0.1,-0.05 0.15,-0.05 h 0.1 L 41.8,25.9 h 0.2 0.05 0.25 l 0.15,0.05 h 0.1 0.1 L 42.7,26 h 0.2 l 1.2,0.05 h 1.4 0.25 l 0.15,0.05 h 0.1 3.3 l 1.15,0.05 h 0.2 q 0.1,-4.25 -2.15,-8 -1.2,-2.05 -3.1,-3.35 -1.95,-1.35 -4.2,-1.55 -2.95,-0.35 -6.55,1.5"
         fill="#000000"
         fill-rule="evenodd"
         stroke="none"
         id="path5" />
      <path
         d="m 34.65,14.75 q 3.6,-1.85 6.55,-1.5 2.25,0.2 4.2,1.55 1.9,1.3 3.1,3.35 2.25,3.75 2.15,8 h -0.2 L 49.3,26.1 H 46 45.9 L 45.75,26.05 H 45.5 44.1 L 42.9,26 h -0.2 l -0.05,-0.05 h -0.1 -0.1 L 42.3,25.9 H 42.05 42 41.8 l -0.15,0.05 h -0.1 L 41.4,26 l -0.1,0.05 -0.15,0.05 -0.1,0.1 -0.05,0.05 -0.1,0.05 -0.1,0.05 -0.1,0.05 -0.05,0.1 -0.05,0.05 -0.1,0.05 -0.05,0.05 -0.05,0.05 -0.05,0.05 -0.05,0.1 -0.05,0.05 -0.05,0.05 -0.05,0.05 -0.05,0.05 -0.05,0.05 -0.05,0.1 -0.1,0.1 -0.05,0.05 -0.05,0.05 -0.05,0.05 -0.05,0.1 v 0.05 l -0.05,0.05 -0.1,0.1 -0.05,-0.05 v -0.1 l -0.05,-0.05 v -0.1 -0.1 L 39.4,27.3 V 27.2 L 39.35,27.15 V 27.1 27 26.9 L 39.3,26.85 v -0.1 L 39.25,26.65 39.2,26.6 V 26.4 26.3 26.2 L 39.15,26.15 V 26.1 L 39.1,26.05 V 25.95 25.9 L 39.05,25.85 V 25.7 25.6 L 39,25.55 V 25.4 L 38.95,25.35 V 25.25 25.2 L 38.9,25.15 38.85,25.1 V 25 24.9 24.85 L 38.8,24.8 V 24.75 L 38.75,24.7 V 24.6 L 38.7,24.55 V 24.5 l -0.05,-0.05 v -0.1 -0.1 -0.05 L 38.6,24.15 v -0.1 L 38.55,24 V 23.9 L 38.5,23.85 v -0.2 -0.1 -0.05 L 38.45,23.45 V 23.3 L 38.4,23.2 V 23.1 L 38.35,23.05 38.3,23 v -0.05 -0.1 -0.1 L 38.25,22.7 V 22.6 L 38.2,22.5 v -0.1 l -0.05,-0.05 v -0.1 -0.1 -0.05 L 38.1,22.05 V 22 L 38.05,21.95 V 21.9 21.8 21.65 L 38,21.6 v -0.05 l -0.05,-0.1 v -0.1 L 37.9,21.3 v -0.1 -0.1 -0.25 l -0.05,-0.1 V 20.6 L 37.8,20.55 v -0.1 L 37.75,20.4 V 20.35 L 37.7,20.3 37.65,20.25 37.6,20.2 V 20.1 L 37.55,20.05 37.5,20 37.45,19.95 37.35,19.9 37.25,19.85 37.2,19.75 37.1,19.7 36.95,19.65 36.8,19.6 h -0.05 -0.1 l -0.2,-0.05 H 36.4 V 19.6 H 36.2 36.1 36 l -0.1,0.05 -0.15,0.05 -0.1,0.05 -0.1,0.1 -0.05,0.05 -0.1,0.05 -0.05,0.05 -0.05,0.05 -0.05,0.05 -0.05,0.1 -0.05,0.05 v 0.05 l -0.05,0.05 -0.05,0.05 v 0.05 L 35,20.55 34.95,20.6 34.9,20.65 34.85,20.7 v 0.05 l -0.05,0.1 v 0.1 L 34.75,21 34.7,21.05 v 0.05 l -0.05,0.1 -0.05,0.05 v 0.05 l -0.05,0.05 -0.05,0.05 v 0.05 l -0.05,0.1 -0.05,0.05 v 0.05 l -0.05,0.05 -0.05,0.05 -0.05,0.05 v 0.1 L 34.2,21.95 34.15,22 v 0.1 l -0.05,0.05 v 0.1 L 34.05,22.3 34,22.35 v 0.05 l -0.05,0.05 v 0.05 l -0.05,0.1 v 0.05 l -0.05,0.05 -0.05,0.05 -0.05,0.05 -0.05,0.05 v 0.1 L 33.65,23 v 0.05 l -0.05,0.05 -0.05,0.05 v 0.05 l -0.05,0.1 -0.05,0.05 v 0.05 l -0.05,0.05 v 0.05 l -0.05,0.05 -0.05,0.1 -0.05,0.05 v 0.05 L 33.2,23.8 33.15,23.85 33.1,23.9 V 24 24.05 L 33.05,24.1 33,24.15 v 0.05 l -0.05,0.05 -0.05,0.1 v 0.05 l -0.05,0.05 v 0.05 l -0.05,0.05 v 0.05 l -0.05,0.1 v 0.1 L 32.7,24.85 V 24.9 L 32.65,25 32.6,25.05 v 0.1 l -0.1,0.1 -0.05,0.1 v 0.05 l -0.05,0.05 v 0.1 l -0.05,0.05 -0.05,0.1 v 0.05 l -0.05,0.05 -0.05,0.05 v 0.05 l -0.05,0.05 v 0.1 l -0.05,0.05 -0.05,0.05 v 0.1 L 32,26.3 31.95,26.4 v 0.05 L 31.9,26.5 31.85,26.55 31.8,26.6 v 0.05 l -0.05,0.1 -0.05,0.05 v 0.1 L 31.65,26.95 31.6,27 v 0.1 l -0.05,0.05 v 0.05 l -0.05,0.05 v 0.05 l -0.05,0.05 v 0.1 l -0.05,0.05 -0.05,0.05 v 0.15 l -0.05,0.1 -0.05,0.05 v 0.05 l -0.1,0.1 -0.05,0.05 v 0.1 0.05 L 31.05,28.25 31,28.3 v 0.05 l -0.05,0.05 -0.05,0.1 v 0.05 l -0.05,0.05 -0.05,0.05 v 0.05 l -0.05,0.05 -0.05,0.1 V 28.9 L 30.65,28.95 30.6,29 30.55,29.05 v 0.05 0.1 l -0.05,0.05 -0.05,0.05 -0.05,0.05 v 0.05 l -0.05,0.1 v 0.05 L 30.3,29.6 v 0.1 l -0.05,0.05 -0.05,0.1 V 29.9 L 30.15,29.95 30.1,30 v 0.1 L 30.05,30.2 30,30.25 29.95,30.3 v 0.05 l -0.1,0.1 v 0.1 l -0.05,0.05 -0.05,0.05 v 0.05 l -0.05,0.05 -0.05,0.05 v 0.1 0.05 L 29.6,31 29.55,31.05 v 0.05 l -0.05,0.05 v 0.1 l -0.05,0.05 v 0.05 L 29.4,31.4 29.35,31.45 29.3,31.5 v 0.1 l -0.05,0.05 -0.05,0.05 -0.05,0.05 v 0.1 L 29.1,31.95 29.05,32 v 0.05 L 29,32.1 v 0.05 l -0.05,0.05 v 0.1 0.05 l -0.05,0.05 -0.05,0.05 v 0.05 l -0.05,0.05 v 0.1 0.05 l -0.05,0.05 V 32.8 L 28.7,32.85 V 32.9 33 l -0.05,0.05 -0.05,0.05 -0.05,0.05 v 0.05 l -0.05,0.05 v 0.1 l -0.05,0.05 v 0.05 L 28.4,33.5 v 0.05 l -0.05,0.05 v 0.1 l -0.05,0.05 -0.05,0.05 v 0.1 L 28.2,34 v 0.05 l -0.05,0.05 v 0.05 L 28.1,34.2 v 0.05 l -0.05,0.1 V 34.4 L 28,34.45 v 0.05 l -0.05,0.05 v 0.05 l -0.05,0.1 -0.1,0.1 v 0.05 l -0.05,0.05 v 0.05 l -0.05,0.1 -0.05,0.05 v 0.05 L 27.6,35.2 v 0.05 l -0.05,0.05 v 0.1 l -0.05,0.05 -0.05,0.05 v 0.05 l -0.1,0.1 -0.05,0.1 V 35.8 L 27.25,35.85 27.2,35.9 V 36 l -0.05,0.05 -0.6,-1.45 -2,-6.2 q -1.2,-4.05 -2.15,-6.2 -0.55,-1.25 -1.3,-1.45 -0.7,-0.15 -1.3,0.45 -0.3,0.25 -0.85,1.15 l -2.9,5.25 -3,0.1 -0.1,-1.55 q -0.1,-4.25 2.15,-8 1.2,-2.05 3.1,-3.35 1.95,-1.35 4.2,-1.55 2.95,-0.35 6.55,1.5 1.75,0.9 2.85,2 1.1,-1.1 2.85,-2 m 14.1,18.85 q -1.8,3.2 -3.65,4.95 l -9.05,7.4 -3.55,2.65 -0.7,0.35 q -0.3,0 -0.7,-0.35 L 27.55,45.95 18.5,38.55 Q 16.65,36.8 14.85,33.6 13.95,32 13.5,30.2 l 1.8,0.2 2.3,-0.2 1.2,-1.5 1.65,-3.2 q 1.65,6.75 4.2,13.2 0.4,1.1 0.9,1.45 0.55,0.4 1.3,0.2 0.75,-0.2 1,-0.85 l 0.1,-0.2 0.05,-0.05 0.05,-0.05 0.05,-0.1 v -0.05 l 0.05,-0.05 0.1,-0.05 0.05,-0.05 0.05,-0.05 0.1,-0.1 V 38.7 L 28.5,38.65 28.55,38.6 28.6,38.55 V 38.5 l 0.05,-0.1 0.05,-0.05 0.05,-0.05 0.1,-0.05 V 38.2 l 0.1,-0.05 v -0.1 L 29,38 29.05,37.95 29.1,37.9 29.15,37.85 v -0.1 L 29.2,37.7 29.3,37.65 V 37.6 l 0.1,-0.1 v -0.1 l 0.05,-0.05 0.05,-0.05 0.05,-0.05 V 37.2 l 0.05,-0.05 v -0.1 L 29.65,37 29.75,36.95 V 36.9 L 29.8,36.85 29.85,36.8 V 36.7 L 29.9,36.65 V 36.6 l 0.05,-0.05 V 36.5 L 30,36.45 30.05,36.35 30.1,36.3 V 36.25 L 30.15,36.2 30.2,36.15 V 36.1 L 30.25,36 30.3,35.95 V 35.9 l 0.05,-0.05 V 35.8 l 0.05,-0.05 v -0.1 L 30.45,35.6 V 35.55 L 30.5,35.5 v -0.05 l 0.05,-0.05 v -0.1 l 0.05,-0.05 0.05,-0.05 v -0.1 l 0.05,-0.05 v -0.1 L 30.75,34.9 V 34.85 L 30.8,34.8 V 34.75 L 30.85,34.7 V 34.6 L 30.9,34.55 V 34.5 l 0.15,-0.15 0.05,-0.1 V 34.2 l 0.05,-0.05 V 34.1 L 31.2,34.05 V 34 l 0.05,-0.1 V 33.8 L 31.3,33.75 V 33.7 l 0.05,-0.1 v -0.05 l 0.1,-0.1 v -0.1 l 0.05,-0.1 V 33.2 L 31.55,33.15 31.6,33.1 V 33.05 L 31.65,33 31.7,32.9 v -0.05 l 0.1,-0.1 V 32.7 l 0.05,-0.05 v -0.1 L 31.9,32.5 31.95,32.45 V 32.4 L 32,32.35 32.05,32.3 V 32.2 L 32.1,32.15 32.15,32.1 V 32.05 L 32.2,32 v -0.05 l 0.05,-0.1 0.05,-0.05 v -0.05 l 0.05,-0.05 0.05,-0.05 0.05,-0.05 0.05,-0.1 v -0.05 l 0.05,-0.05 0.05,-0.05 v -0.1 l 0.05,-0.1 V 31.1 l 0.05,-0.05 0.15,-0.15 0.05,-0.1 0.05,-0.05 V 30.7 L 33,30.65 V 30.6 l 0.05,-0.05 0.05,-0.1 V 30.4 l 0.05,-0.05 0.05,-0.05 0.05,-0.05 0.05,-0.05 v -0.1 l 0.05,-0.05 V 30 l 0.05,-0.05 0.05,-0.05 v -0.05 l 0.05,-0.1 V 29.7 L 33.55,29.65 33.6,29.6 V 29.55 L 33.65,29.5 33.7,29.4 V 29.35 L 33.75,29.3 33.8,29.25 V 29.2 l 0.05,-0.1 0.05,-0.05 V 29 l 0.05,-0.05 v -0.1 L 34,28.75 V 28.7 l 0.1,-0.1 V 28.55 L 34.15,28.5 V 28.4 L 34.2,28.35 V 28.3 l 0.05,-0.05 V 28.2 l 0.05,-0.05 0.05,-0.1 V 28 L 34.4,27.95 34.45,27.9 34.5,27.85 V 27.8 l 0.05,-0.1 0.05,-0.05 V 27.6 l 0.05,-0.05 V 27.5 l 0.05,-0.05 v -0.1 L 34.75,27.3 34.8,27.25 V 27.2 l 0.05,-0.05 V 27.1 L 34.9,27 34.95,26.95 V 26.9 L 35,26.85 V 26.8 l 0.05,-0.05 v -0.1 L 35.1,26.6 35.15,26.55 35.2,26.5 V 26.45 L 35.25,26.4 V 26.3 L 35.3,26.25 35.35,26.2 V 26.15 L 35.4,26.1 v -0.05 l 0.05,-0.1 V 25.9 l 0.05,-0.05 v -0.1 l 0.05,-0.05 0.05,-0.1 0.05,-0.05 V 25.5 L 35.7,25.45 V 25.4 l 0.05,-0.05 v 0.05 l 0.05,0.1 0.05,0.05 v 0.15 l 0.05,0.05 v 0.1 0.05 l 0.05,0.05 v 0.1 L 36,26.1 v 0.1 0.2 0.1 l 0.05,0.05 v 0.2 0.1 L 36.1,26.9 V 27 l 0.05,0.05 v 0.05 0.1 0.1 l 0.05,0.05 v 0.1 0.1 0.05 l 0.05,0.05 v 0.15 0.1 0.05 L 36.3,28 v 0.15 l 0.05,0.1 v 0.15 l 0.05,0.05 v 0.05 0.1 0.15 l 0.05,0.05 v 0.05 0.1 0.1 l 0.05,0.05 v 0.05 l 0.05,0.05 v 0.1 0.15 l 0.05,0.05 v 0.05 l 0.05,0.1 v 0.1 l 0.05,0.05 v 0.1 0.1 0.25 l 0.05,0.1 v 0.1 l 0.05,0.05 v 0.1 l 0.05,0.1 v 0.2 L 36.9,31 v 0.15 l 0.05,0.05 v 0.05 0.1 L 37,31.4 v 0.15 l 0.05,0.05 v 0.1 l 0.05,0.05 v 0.05 l 0.05,0.05 0.05,0.05 0.05,0.05 v 0.1 l 0.1,0.05 0.1,0.1 0.05,0.05 0.05,0.05 0.1,0.1 0.05,0.05 0.1,0.05 0.15,0.05 0.1,0.05 0.15,0.05 h 0.1 l 0.1,0.05 h 0.2 0.25 l 0.1,-0.05 h 0.1 0.05 l 0.4,-0.15 0.75,-0.65 0.65,-0.7 0.1,-0.1 0.05,-0.05 0.1,-0.05 0.05,-0.05 0.05,-0.05 0.05,-0.05 0.05,-0.1 0.05,-0.05 0.1,-0.05 0.05,-0.05 0.05,-0.05 v -0.05 l 0.05,-0.05 0.35,-0.35 0.55,-0.6 0.3,-0.05 h 1.2 l 1.4,-0.05 H 45.8 L 46,29.3 h 0.1 3.4 l 0.85,-0.05 q -0.5,2.4 -1.6,4.35"
         fill="#ffffff"
         fill-rule="evenodd"
         stroke="none"
         id="path6" />
    </g>
    <g
       id="shape2"
       transform="translate(1.5,1.5)">
      <path
         d="M 0,23.8 V 0 H 64.1 V 23.8 57.55 H 0 Z"
         fill="none"
         stroke="#000000"
         stroke-linecap="round"
         stroke-linejoin="round"
         stroke-width="3"
         id="path7" />
    </g>
  </defs>
</svg>
