<?xml version="1.0" encoding="UTF-8" standalone="no"?>
<svg
   ffdec:objectType="frame"
   height="60.549999"
   width="67.099998"
   version="1.1"
   id="svg7"
   sodipodi:docname="765.svg"
   xmlns:inkscape="http://www.inkscape.org/namespaces/inkscape"
   xmlns:sodipodi="http://sodipodi.sourceforge.net/DTD/sodipodi-0.dtd"
   xmlns:xlink="http://www.w3.org/1999/xlink"
   xmlns="http://www.w3.org/2000/svg"
   xmlns:svg="http://www.w3.org/2000/svg"
   xmlns:ffdec="https://www.free-decompiler.com/flash">
  <sodipodi:namedview
     id="namedview7"
     pagecolor="#ffffff"
     bordercolor="#000000"
     borderopacity="0.25"
     inkscape:showpageshadow="2"
     inkscape:pageopacity="0.0"
     inkscape:pagecheckerboard="0"
     inkscape:deskcolor="#d1d1d1"
     fit-margin-top="5"
     fit-margin-left="5"
     fit-margin-right="5"
     fit-margin-bottom="5" />
  <g
     transform="translate(1.5,1.5)"
     id="g3">
    <use
       ffdec:characterId="516"
       height="57.549999"
       width="64.099998"
       xlink:href="#shape0"
       id="use1" />
    <use
       ffdec:characterId="1254"
       height="38.900002"
       transform="translate(0,18.65)"
       width="64.099998"
       xlink:href="#shape1"
       id="use2" />
    <use
       ffdec:characterId="518"
       height="60.549999"
       transform="translate(-1.5,-1.5)"
       width="67.099998"
       xlink:href="#shape2"
       id="use3" />
  </g>
  <defs
     id="defs7">
    <g
       id="shape0">
      <path
         d="M 53.6,0 H 64.1 V 57.55 H 53.6 28.25 0 V 0 H 28.25 53.6 V 57.55 0 M 28.25,0 V 57.55 0"
         fill="#ffffff"
         fill-rule="evenodd"
         stroke="none"
         id="path3" />
    </g>
    <g
       id="shape1"
       transform="translate(0,-18.65)">
      <path
         d="m 37.35,31.85 -0.45,0.5 q -0.65,0.7 -1.7,0.45 -0.9,-0.3 -1.3,-1.25 -0.3,-0.9 -0.1,-1.8 l 0.65,-3.4 0.3,-2.1 q 0.3,-1.35 0.95,-1.85 0.55,-0.3 1.45,-0.3 1.35,-0.1 2.3,0.4 1.25,0.6 1.25,1.75 l -0.15,1 -1,3.8 -0.4,1.55 q -0.35,0.9 -1.1,1.05 l -0.7,0.2 m -12.7,-1.9 q -0.2,1.5 -0.8,2.05 l -0.4,0.35 -0.35,0.45 q -0.75,0.9 -1.9,0.75 -1.15,-0.15 -1.55,-1.25 l -0.2,-1 -0.05,-6.65 0.1,-0.95 q 0.15,-0.4 0.8,-0.95 1.15,-0.95 2.15,-0.9 0.4,0.05 1.2,0.45 1.2,0.75 1.45,1.6 v 1.4 l -0.05,1.6 -0.4,3.05 M 0,41.55 h 64.1 v 16 H 0 v -16"
         fill="#999999"
         fill-rule="evenodd"
         stroke="none"
         id="path4" />
      <path
         d="m 54.6,30.5 q 0.85,1.45 1.15,3.05 0.25,1.4 -0.15,4.15 l -0.35,1.75 0.2,0.2 1.65,2.2 q 1,1.6 0.35,2.55 -0.5,0.75 -2.2,0.85 l -3.5,0.2 -0.5,0.05 -0.55,0.35 q -0.75,0.5 -2.45,1.2 -3.75,1.4 -6.75,0.8 Q 38.25,47.3 35.55,44.5 L 35,43.95 33.6,44.85 Q 28.3,47.7 21.5,46.6 18.6,46.15 16.7,45 14.2,45 11.9,44 9.15,42.8 7.45,40.6 L 6.6,39.3 Q 4.65,35.8 4.85,28.75 q 0,-1.8 0.6,-2.55 0.6,-0.7 1.65,-0.75 1,0 1.65,0.65 0.45,0.55 0.6,1.45 L 9.4,29.2 q -0.1,2.65 0.15,4.4 0.35,2.2 1.15,3.55 0.85,1.55 2.25,2.4 L 12.9,38 q 0.1,-1.65 0.5,-2.6 l 0.75,-1.45 -0.05,-0.05 -0.3,-1 Q 13,30.5 12.7,28.8 l -0.4,-2.45 q -0.2,-1.95 0.65,-3.85 0.35,-0.9 0.95,-1.35 0.75,-0.6 1.85,-0.45 0.95,0.05 1.8,0.75 l 0.9,0.95 0.35,1.35 q 0.4,3.1 0.15,6.1 l -0.1,0.75 q 0.2,-0.1 0.35,-0.15 3.3,-1.2 6.95,-1.05 l 2.6,0.3 0.05,-4.9 0.2,-2.65 0.35,-1.25 0.45,-1 q 0.6,-0.9 1.8,-1.15 l 2.15,0.05 q 1.3,0.2 1.8,0.95 l 0.35,1.15 q 0.15,1.55 -0.65,4.5 l -0.6,2.35 -0.3,1.35 -0.15,1.55 -0.2,0.85 0.25,0.15 1.8,-2.6 q 2,-2.25 4.85,-3.4 2.9,-1.1 5.85,-0.85 l 1.3,0.2 0.7,-0.35 q 1.3,-0.5 2.2,-1.1 L 52,22.9 53.2,22.6 q 1.05,0.1 1.4,1.1 l -0.05,1.8 -0.1,0.75 -0.25,0.6 -0.4,1.2 -0.2,0.75 1,1.7 m -9.2,8.55 0.4,1 0.2,0.2 -0.35,0.3 q -0.9,0.8 -0.75,1.5 0.05,0.45 0.45,0.7 l 0.85,0.1 1,-0.95 0.4,-0.4 0.45,0.45 0.75,0.65 0.95,0.1 0.5,-0.6 q 0.1,-0.5 -0.15,-0.9 l -1.15,-1.1 1.15,-1.3 q 0.2,-0.5 0,-0.8 l -0.55,-0.4 -0.7,0.15 -1,0.95 -0.35,0.35 -0.8,-0.7 q -0.6,-0.7 -1,-0.55 -0.4,0.1 -0.4,0.55 l 0.1,0.7 m -5.45,1.35 -0.3,-0.55 0.2,-0.7 0.35,-0.6 0.7,-0.55 0.55,-0.9 q 0.15,-0.5 -0.25,-1 l -1.1,-0.75 q -0.3,-0.55 0.15,-1.2 l 0.9,-0.8 1.05,-0.75 q 0.25,-0.7 -0.45,-1.1 -0.6,-0.25 -1.25,0 -1.85,0.65 -2.4,3 -0.3,1.15 0.1,1.85 l 0.25,0.5 -0.2,0.5 q -0.9,1.2 -0.95,2.5 l 0.2,1.1 0.7,1 1,1 0.85,0.5 1.2,0.1 1,-0.35 q 0.4,-0.4 0.4,-0.95 0,-0.55 -0.5,-0.9 L 41.1,41 q -0.8,-0.15 -1.15,-0.6 m 10.7,-9.1 q -0.3,-1.15 -1.6,-1.65 -0.65,-0.4 -1.3,-0.35 -0.65,0.05 -1.5,0.8 -0.7,0.6 -1,1.55 Q 45,32.7 45.5,33.4 l 1.2,0.95 q 0.9,0.45 1.6,0.4 0.85,-0.05 1.65,-0.95 1.15,-1.25 0.7,-2.5"
         fill="#000000"
         fill-rule="evenodd"
         stroke="none"
         id="path5" />
      <path
         d="m 50.65,31.3 q 0.45,1.25 -0.7,2.5 -0.8,0.9 -1.65,0.95 -0.7,0.05 -1.6,-0.4 L 45.5,33.4 q -0.5,-0.7 -0.25,-1.75 0.3,-0.95 1,-1.55 0.85,-0.75 1.5,-0.8 0.65,-0.05 1.3,0.35 1.3,0.5 1.6,1.65 m -10.7,9.1 q 0.35,0.45 1.15,0.6 l 1.05,0.35 q 0.5,0.35 0.5,0.9 0,0.55 -0.4,0.95 l -1,0.35 -1.2,-0.1 -0.85,-0.5 -1,-1 -0.7,-1 -0.2,-1.1 q 0.05,-1.3 0.95,-2.5 l 0.2,-0.5 -0.25,-0.5 q -0.4,-0.7 -0.1,-1.85 0.55,-2.35 2.4,-3 0.65,-0.25 1.25,0 0.7,0.4 0.45,1.1 l -1.05,0.75 -0.9,0.8 q -0.45,0.65 -0.15,1.2 l 1.1,0.75 q 0.4,0.5 0.25,1 l -0.55,0.9 -0.7,0.55 -0.35,0.6 -0.2,0.7 0.3,0.55 m 5.45,-1.35 -0.1,-0.7 q 0,-0.45 0.4,-0.55 0.4,-0.15 1,0.55 l 0.8,0.7 0.35,-0.35 1,-0.95 0.7,-0.15 0.55,0.4 q 0.2,0.3 0,0.8 l -1.15,1.3 1.15,1.1 q 0.25,0.4 0.15,0.9 l -0.5,0.6 -0.95,-0.1 -0.75,-0.65 -0.45,-0.45 -0.4,0.4 -1,0.95 -0.85,-0.1 q -0.4,-0.25 -0.45,-0.7 -0.15,-0.7 0.75,-1.5 l 0.35,-0.3 -0.2,-0.2 -0.4,-1"
         fill="#ffffff"
         fill-rule="evenodd"
         stroke="none"
         id="path6" />
    </g>
    <g
       id="shape2"
       transform="translate(1.5,1.5)">
      <path
         d="M 0,23.8 V 0 H 64.1 V 23.8 57.55 H 0 Z"
         fill="none"
         stroke="#000000"
         stroke-linecap="round"
         stroke-linejoin="round"
         stroke-width="3"
         id="path7" />
    </g>
  </defs>
</svg>
