<?xml version="1.0" encoding="UTF-8" standalone="no"?>
<svg
   ffdec:objectType="frame"
   height="60.549999"
   width="67.099998"
   version="1.1"
   id="svg8"
   sodipodi:docname="691.svg"
   xmlns:inkscape="http://www.inkscape.org/namespaces/inkscape"
   xmlns:sodipodi="http://sodipodi.sourceforge.net/DTD/sodipodi-0.dtd"
   xmlns:xlink="http://www.w3.org/1999/xlink"
   xmlns="http://www.w3.org/2000/svg"
   xmlns:svg="http://www.w3.org/2000/svg"
   xmlns:ffdec="https://www.free-decompiler.com/flash">
  <sodipodi:namedview
     id="namedview8"
     pagecolor="#ffffff"
     bordercolor="#000000"
     borderopacity="0.25"
     inkscape:showpageshadow="2"
     inkscape:pageopacity="0.0"
     inkscape:pagecheckerboard="0"
     inkscape:deskcolor="#d1d1d1"
     fit-margin-top="5"
     fit-margin-left="5"
     fit-margin-right="5"
     fit-margin-bottom="5" />
  <g
     transform="translate(1.5,1.5)"
     id="g3">
    <use
       ffdec:characterId="516"
       height="57.549999"
       width="64.099998"
       xlink:href="#shape0"
       id="use1" />
    <use
       ffdec:characterId="1181"
       height="55.150002"
       transform="translate(-0.65,3.05)"
       width="64.949997"
       xlink:href="#shape1"
       id="use2" />
    <use
       ffdec:characterId="518"
       height="60.549999"
       transform="translate(-1.5,-1.5)"
       width="67.099998"
       xlink:href="#shape2"
       id="use3" />
  </g>
  <defs
     id="defs8">
    <g
       id="shape0">
      <path
         d="M 53.6,0 H 64.1 V 57.55 H 53.6 28.25 0 V 0 H 28.25 53.6 V 57.55 0 M 28.25,0 V 57.55 0"
         fill="#ffffff"
         fill-rule="evenodd"
         stroke="none"
         id="path3" />
    </g>
    <g
       id="shape1"
       transform="translate(0.65,-3.05)">
      <path
         d="m 53.8,13.15 q -1.3,-1 -2.45,-1.35 l -2.95,-0.1 -3.5,0.1 q -1.65,0.25 -3.5,1.4 -1.1,0.7 -3.05,2.3 -2.15,1.75 -3.35,3.3 l -0.05,0.3 -0.75,1.75 -0.75,0.65 -0.6,1.5 -1.5,2.05 -0.6,0.85 v 0.05 l 0.3,1.05 0.25,1.1 -0.35,1.25 -0.4,0.8 -0.7,0.7 0.2,0.35 0.35,0.6 0.1,0.75 q 0,1.2 -0.65,2.15 -0.7,1.05 -1.9,1.2 l -1.25,0.15 h -0.05 l -1.15,0.45 -2.9,0.6 -2.95,0.2 -1.15,0.9 -0.75,0.25 -0.65,-0.05 -0.85,-0.15 -0.4,-0.2 -0.55,-0.45 q -0.75,-0.65 -0.65,-1.65 0,-0.55 0.25,-1.05 l -0.75,-0.65 -1.45,-1.05 -1.35,0.2 -1.3,0.15 Q 9.8,33.5 9.45,33.25 L 8.85,32.9 8.55,32.85 H 8.5 q -1.6,0.8 -3.05,-0.3 -0.6,-0.5 -0.9,-1.3 L 4.45,30.2 4.25,29.95 3.1,29.6 2.3,28.9 1.9,28.4 Q 1.5,27.75 1.5,26.75 l 0.1,-0.8 Q 1.65,25.6 2.05,25 L 2.3,24.7 1.25,23.65 q -1.4,-1.4 -1.35,-2.4 L -0.05,21.1 -0.3,19.75 -0.2,17.1 q 0.1,-1.6 -0.1,-2.65 L -0.45,13.4 -0.3,10.95 -0.1,9.55 0.35,8.8 -0.15,8 -0.2,6.95 -0.55,6.15 -0.6,5.25 -0.1,4.05 Q 0.7,2.95 2.35,3.05 4.15,3.15 5,4.3 L 5.3,4.7 5.75,4.8 Q 6.35,4.9 6.8,5.15 L 7.3,5.35 7.65,5.45 7.7,5.4 q 1,-0.6 2.15,-0.55 1.3,0.1 1.95,0.95 l 0.1,0.1 H 16.05 32 l 4.4,0.05 q 1.15,-0.65 2.4,-0.8 h 0.7 l 0.5,0.1 h 0.5 l 0.4,0.15 q 0.55,0.2 0.95,0.55 h 0.4 L 43.2,6 h 0.65 l 0.95,0.05 0.75,0.05 h 0.6 l 0.7,0.05 h 0.35 l 0.25,0.05 h 0.25 l 0.4,0.05 h 0.7 l 1.6,0.05 h 0.8 l 0.45,0.05 h 0.6 L 52.7,6.4 h 1 L 54.55,6.45 54.6,6.4 55,6.2 55.85,5.95 57.7,5.75 59.05,6 59.7,6.6 h 0.6 l 0.95,0.05 h 0.25 l 0.25,0.05 h 0.2 l 0.1,0.05 0.15,0.05 h 0.15 l 0.2,0.05 h 0.1 l 0.15,0.05 0.15,0.1 0.15,0.05 0.05,0.1 0.05,0.05 0.05,0.1 0.05,0.05 v 0.1 0.1 0.05 L 63.25,7.7 V 7.75 L 63.3,7.8 v 0.1 l 0.05,0.05 v 0.1 0.05 0.1 l 0.05,0.1 v 0.05 0.1 0.05 0.1 0.05 l 0.05,0.1 V 8.8 8.9 l 0.05,0.05 v 0.1 0.1 0.05 0.1 0.05 l 0.05,0.1 v 0.05 0.1 0.05 0.1 0.1 L 63.6,9.9 v 0.1 0.05 0.1 0.05 0.1 0.05 0.1 0.1 0.05 l 0.05,0.1 v 0.05 0.1 0.05 0.1 0.05 0.1 0.1 0.05 0.1 0.05 0.1 0.05 0.1 0.05 0.1 0.05 0.1 0.1 0.05 0.1 0.05 0.1 0.05 0.1 0.05 0.1 0.1 0.05 0.1 0.05 0.1 0.05 0.1 0.05 0.1 0.1 0.05 0.1 0.05 0.1 0.05 0.1 0.05 0.1 0.05 0.1 0.1 0.05 0.1 0.05 0.1 0.05 0.1 0.05 0.1 0.1 0.05 l 0.05,0.1 v 0.05 0.1 0.05 0.1 0.05 0.1 0.1 0.05 0.1 0.05 0.1 l 0.05,0.05 v 0.1 0.05 0.1 0.1 0.05 0.1 0.05 0.1 0.05 0.1 0.05 0.1 l 0.05,0.05 v 0.1 0.1 0.05 0.1 0.05 0.1 0.05 0.1 0.05 0.1 0.1 0.05 0.1 0.05 0.1 0.05 0.1 0.05 0.1 0.1 0.05 0.1 0.05 0.1 0.05 0.1 0.05 0.1 0.1 0.05 0.1 0.05 0.1 0.05 0.1 0.05 0.1 0.05 0.1 0.1 0.05 0.1 0.05 0.1 0.05 0.1 0.05 0.1 0.1 0.05 l 0.05,0.1 v 0.05 0.1 0.05 0.1 0.05 0.1 0.1 0.05 0.1 0.05 0.1 0.05 0.1 0.05 0.1 0.05 0.1 0.1 0.05 0.1 0.05 0.1 0.05 0.1 0.05 0.1 0.1 0.05 0.1 0.05 0.1 0.05 0.1 0.05 0.1 0.1 0.05 0.1 0.05 0.1 0.05 0.1 0.05 0.1 0.1 0.05 0.1 0.05 0.1 0.05 0.1 0.05 0.1 0.05 0.1 0.1 l 0.05,0.05 v 0.1 0.05 0.1 0.05 0.1 0.05 0.1 0.1 0.05 0.1 0.05 0.1 0.05 0.1 0.05 0.1 0.1 0.05 0.1 0.05 0.1 0.05 0.1 0.05 0.1 0.1 0.05 0.1 0.05 0.1 0.05 0.1 0.05 0.1 0.05 0.1 0.1 0.05 0.1 0.05 0.1 0.05 0.1 0.05 0.1 0.1 0.05 0.1 0.05 0.1 0.05 0.1 0.05 0.1 0.1 0.05 0.1 0.05 0.1 0.05 0.1 0.05 0.1 0.05 0.1 0.1 0.05 0.1 0.05 0.1 0.05 0.1 0.05 0.1 0.1 0.05 0.1 0.05 0.1 0.05 0.1 0.05 0.1 0.1 0.05 0.1 0.05 0.1 0.05 0.1 0.05 0.1 0.1 0.05 0.1 0.05 0.1 0.05 0.1 0.05 0.1 0.05 0.1 0.1 0.05 l 0.05,0.1 v 0.05 0.1 0.05 0.1 0.05 0.1 0.1 0.05 0.1 0.05 0.1 0.05 0.1 0.05 0.1 0.1 0.05 0.1 0.05 0.1 0.05 0.1 0.05 L 64,35.6 v 0.1 0.05 0.1 0.05 0.1 l 0.05,0.05 v 0.1 0.05 0.1 0.05 0.1 l 0.05,0.1 v 0.05 0.1 0.05 0.1 0.05 0.1 0.05 0.1 0.1 0.05 l 0.05,0.1 v 0.05 0.1 0.05 0.1 0.05 0.1 0.1 0.05 0.1 0.05 0.1 0.05 0.1 0.05 0.1 0.05 0.1 0.1 0.05 0.1 0.05 0.1 0.05 0.1 0.05 0.1 0.1 0.05 0.1 0.05 0.1 0.05 0.1 0.05 0.1 0.1 0.05 0.1 l 0.05,0.05 v 0.1 0.05 0.1 0.05 0.1 0.1 0.05 0.1 0.05 0.1 0.05 0.1 0.05 0.1 0.05 0.1 0.1 0.05 0.1 0.05 0.1 0.05 0.1 0.05 0.1 0.1 0.05 0.1 0.05 0.1 0.05 0.1 0.05 0.1 0.1 0.05 0.1 0.05 0.1 0.05 0.1 0.05 0.1 0.1 0.05 0.1 0.05 0.1 0.05 0.1 0.05 0.1 0.05 0.1 0.1 0.05 0.1 0.05 0.1 0.05 0.1 0.05 0.1 0.1 0.05 0.1 0.05 0.1 l 0.05,0.05 v 0.1 0.05 0.1 0.1 0.05 0.1 0.05 0.1 0.05 0.1 0.05 0.1 0.05 0.1 0.1 0.05 0.1 0.05 0.1 0.05 0.1 0.05 0.1 0.1 0.05 0.1 0.05 0.1 0.05 0.1 0.05 l 0.05,0.1 v 0.1 0.05 0.1 0.05 0.1 0.05 0.1 0.05 0.1 0.1 0.05 0.1 0.05 0.1 0.05 0.1 0.05 0.1 0.05 0.1 0.1 0.05 0.1 0.05 0.1 0.05 0.1 0.05 0.1 0.1 0.05 0.1 0.05 0.1 0.05 0.1 0.05 0.1 0.1 0.05 0.1 0.05 0.1 0.05 0.1 0.05 0.1 0.05 0.1 0.1 0.05 0.1 0.05 0.1 0.05 0.1 0.05 0.1 0.1 0.05 0.1 0.05 0.1 0.05 0.1 0.05 0.1 0.1 0.05 0.1 0.05 0.1 0.05 0.1 0.05 0.1 0.1 0.05 0.1 0.05 0.1 0.05 0.1 0.05 0.1 0.05 0.1 0.1 0.05 0.1 0.05 0.1 0.05 0.1 0.05 0.1 0.1 0.05 0.1 0.05 0.1 0.05 0.1 0.05 0.1 0.1 0.05 0.1 0.05 0.1 0.05 0.1 0.05 l -0.05,0.1 v 0.1 l 0.05,0.05 v 0.1 0.05 0.1 0.05 0.1 0.05 0.1 0.05 0.1 0.1 0.05 l -0.05,0.1 H 0.3 V 58.1 58 57.95 l 0.05,-0.1 v -0.1 L 0.4,57.7 V 57.65 L 0.2,57.3 Q -0.3,56.35 0.15,55.5 0.5,54.9 1,54.65 0.35,54.1 0.5,53.35 L 0.6,53.1 0.65,52.8 0.75,52.75 1,52.2 0.7,51.85 -0.1,50.95 q -0.35,-0.5 -0.3,-1.2 0.1,-0.7 0.6,-1.1 0.5,-0.4 1.15,-0.4 0.7,0 1.15,0.4 0.5,0.4 0.9,1.65 l 0.05,0.2 1.5,-0.1 0.85,0.1 1.2,0.65 0.45,0.4 0.35,0.7 q 0.4,0.9 0.4,1.7 l 0.75,0.3 0.3,-0.25 q 0.8,-0.55 1.8,-0.55 1.05,0.05 1.8,0.65 l 0.1,0.1 2.15,0.1 3.45,1 q 1.65,0.3 4.15,-0.05 l 2.65,-0.35 0.1,-0.25 q 0.3,-0.6 1.3,-0.95 l 1.4,-0.1 0.2,0.05 0.3,-0.55 0.2,-0.3 q 1,-0.9 2.25,-1.2 l 0.7,-0.1 q 0.85,-0.1 1.6,0.35 l 2.15,-0.8 q 3.05,-1.2 5.2,-4.1 L 40.7,46.8 40.65,46.25 40.8,45.5 q 0.2,-1.05 0.55,-1.65 l 0.6,-0.7 0.55,-0.6 q 0.55,-0.5 1.55,-0.85 l 1.4,-0.4 H 45.7 L 46,41 l 1.25,-2.05 -0.5,-0.9 q -0.3,-0.95 0.1,-2 0.15,-0.55 0.6,-1 0.45,-0.4 1.15,-0.55 L 49,33 q 0.6,-1.2 1.7,-1.7 l 1.25,-0.4 0.5,-0.1 1.3,0.35 0.1,0.05 1,-1.5 Q 57.2,26.3 57.6,22.8 58.1,18.65 56.05,15.65 55.2,14.3 53.8,13.15 M 2.15,40.85 q 0,-0.45 0.3,-0.85 0.45,-0.6 1.3,-0.45 0.8,0.2 0.95,1 0.15,0.75 -0.45,1.25 L 2.9,41.95 Q 2.15,41.6 2.15,40.85 m 5.1,6.7 Q 7,48.3 6.2,48.4 L 5.25,48.15 5,47.9 Q 4.15,47.7 3.7,47 3.2,46.3 3.3,45.45 q 0.05,-0.9 0.65,-1.5 0.55,-0.55 1.45,-0.6 0.9,-0.1 1.55,0.4 l 0.85,1.2 q 0.25,0.8 -0.1,1.6 L 7.4,47.1 7.25,47.55 m 27,-18.2 q 0.4,0.4 0.3,0.9 -0.1,0.7 -0.75,0.95 l -0.85,0.05 -0.55,-0.3 Q 32.05,30.7 32.05,30.2 32,29.7 32.4,29.3 l 0.35,-0.2 0.9,-0.05 0.6,0.3 M 9.85,50.95 9.9,50.65 Q 10,50.4 10.25,50.2 10.5,50 10.75,50.05 L 10.8,50 q 0.55,0 0.8,0.55 l -0.05,0.95 q -0.3,0.4 -0.85,0.4 l -0.75,-0.55 -0.1,-0.4"
         fill="#999999"
         fill-rule="evenodd"
         stroke="none"
         id="path4" />
      <path
         d="m 44.45,16.75 q 0.7,1.35 -0.1,2.55 -0.65,1.05 -1.85,1.15 -1.3,0.1 -2.1,-0.8 -0.5,-0.5 -0.6,-1.2 -0.15,-0.75 0.1,-1.4 0.6,-1.5 2.2,-1.6 1.55,-0.1 2.35,1.3"
         fill="#ffffff"
         fill-rule="evenodd"
         stroke="none"
         id="path5" />
      <path
         d="m 52.9,15.2 -1,0.25 q -0.65,0.3 -0.9,0.95 -0.45,1.25 0.65,2.45 0.9,0.9 1.95,0.7 0.65,-0.05 1.2,-0.7 l 0.25,-0.4 q 0.95,2.3 0.6,4.7 0.05,1.9 -0.75,3.65 -1.3,2.75 -4.3,3.9 l -0.35,0.15 q -1.9,0.9 -3.7,1 -0.5,1.95 -1.6,4.5 -1.8,4.2 -3.6,6.2 -2.7,3.1 -6.15,3.4 h -0.85 l -0.45,0.5 q -2.5,2.7 -4.25,3.8 L 26.2,51.9 24.3,52.55 21.05,52.4 Q 19.9,52.05 19.1,51.5 h -0.3 l -2.2,-0.15 q -0.85,-0.25 -1.45,-1 -0.6,-0.75 -0.6,-1.65 0.05,-0.9 0.7,-1.55 0.7,-0.7 1.6,-0.65 l 1.5,0.5 v -0.05 q 0.6,-0.5 1.45,-0.5 0.85,0 1.4,0.55 l 0.05,0.05 q 0.9,-0.3 1.9,-0.95 2.75,-1.8 5.7,-5.6 L 28.8,40.05 V 39.5 q -1.05,0.75 -3,2.45 -3.65,2.9 -8.4,3.5 Q 14.5,45.8 12.45,45 11.2,44.55 9.8,43.4 8.65,42.5 7.95,41.45 q -0.8,-1.25 -0.7,-2.7 0,-1.5 0.8,-2.5 1.1,-1.35 2.75,-1.25 1.7,0 2.55,1.55 l 0.55,1.45 0.7,1.35 q 0.6,0.6 2.35,0.8 l 3.1,0.25 q 1.75,0 3.05,-0.55 l 1.55,-0.9 1.55,-1.05 q 1.7,-1.1 3.35,-1.45 l 0.7,-0.05 0.35,-0.3 1.85,-1.15 q 1.65,-1 5.15,-4 l 2,-1.9 q -1.1,-1 -1.7,-2.3 l -1.7,0.55 -1.75,0.25 q -0.55,-0.1 -0.9,-0.55 -0.4,-0.5 -0.45,-1.05 -0.05,-0.5 0.25,-1.2 0.85,-2.35 4,-6.45 l 0.6,-0.7 0.45,-0.45 0.8,-1.3 q 1.85,-2.15 5.55,-2.7 5.1,-0.7 8.15,2.05 m -7.2,4.2 q -0.45,-0.1 -0.65,0.3 -0.15,0.4 0,0.75 0.25,0.5 0.8,0.65 l 1.05,0.15 0.6,-0.05 0.55,-0.25 0.65,0.55 0.6,0.05 0.6,-0.15 0.25,-0.15 0.55,-0.85 -0.3,-0.5 q -0.3,-0.15 -0.6,0 l -0.45,0.2 -0.25,-0.3 -0.4,-0.3 q -0.15,-0.35 -0.55,-0.35 l -0.5,0.25 -0.5,0.4 -1,-0.15 -0.45,-0.25 m -2.6,-4.9 -0.1,0.05 -1.3,0.25 -1.1,0.7 -0.25,0.3 q -0.3,0.6 -0.3,1.35 0,0.7 0.35,1.25 l 1.05,0.85 1.35,0.05 0.95,-0.4 0.55,-0.3 0.4,-0.35 q 0.6,-0.6 0.65,-1.3 0.1,-0.7 -0.2,-1.2 L 44.9,15.35 Q 44.3,14.5 43.1,14.5 m -13.7,29.85 -1.3,1.7 -1.95,2.05 2.45,-0.95 1.65,-1.2 1.45,-1.2 -1.7,-1.35 -0.6,0.95"
         fill="#000000"
         fill-rule="evenodd"
         stroke="none"
         id="path6" />
      <path
         d="m 43.1,14.5 q 1.2,0 1.8,0.85 l 0.25,0.4 q 0.3,0.5 0.2,1.2 -0.05,0.7 -0.65,1.3 L 44.3,18.6 43.75,18.9 42.8,19.3 41.45,19.25 40.4,18.4 q -0.35,-0.55 -0.35,-1.25 0,-0.75 0.3,-1.35 l 0.25,-0.3 1.1,-0.7 1.3,-0.25 0.1,-0.05 m 2.6,4.9 0.45,0.25 1,0.15 0.5,-0.4 0.5,-0.25 q 0.4,0 0.55,0.35 l 0.4,0.3 0.25,0.3 0.45,-0.2 q 0.3,-0.15 0.6,0 l 0.3,0.5 -0.55,0.85 -0.25,0.15 -0.6,0.15 -0.6,-0.05 -0.65,-0.55 -0.55,0.25 -0.6,0.05 -1.05,-0.15 q -0.55,-0.15 -0.8,-0.65 -0.15,-0.35 0,-0.75 0.2,-0.4 0.65,-0.3 m 9.35,-0.95 -0.25,0.4 q -0.55,0.65 -1.2,0.7 -1.05,0.2 -1.95,-0.7 -1.1,-1.2 -0.65,-2.45 0.25,-0.65 0.9,-0.95 l 1,-0.25 0.3,0.05 q 0.75,0.15 1.4,0.95 l 0.55,1.2 -0.1,1.05"
         fill="#ffffff"
         fill-rule="evenodd"
         stroke="none"
         id="path7" />
    </g>
    <g
       id="shape2"
       transform="translate(1.5,1.5)">
      <path
         d="M 0,23.8 V 0 H 64.1 V 23.8 57.55 H 0 Z"
         fill="none"
         stroke="#000000"
         stroke-linecap="round"
         stroke-linejoin="round"
         stroke-width="3"
         id="path8" />
    </g>
  </defs>
</svg>
