<?xml version="1.0" encoding="UTF-8" standalone="no"?>
<svg
   ffdec:objectType="frame"
   height="60.549999"
   width="67.099998"
   version="1.1"
   id="svg8"
   sodipodi:docname="793.svg"
   xmlns:inkscape="http://www.inkscape.org/namespaces/inkscape"
   xmlns:sodipodi="http://sodipodi.sourceforge.net/DTD/sodipodi-0.dtd"
   xmlns:xlink="http://www.w3.org/1999/xlink"
   xmlns="http://www.w3.org/2000/svg"
   xmlns:svg="http://www.w3.org/2000/svg"
   xmlns:ffdec="https://www.free-decompiler.com/flash">
  <sodipodi:namedview
     id="namedview8"
     pagecolor="#ffffff"
     bordercolor="#000000"
     borderopacity="0.25"
     inkscape:showpageshadow="2"
     inkscape:pageopacity="0.0"
     inkscape:pagecheckerboard="0"
     inkscape:deskcolor="#d1d1d1"
     fit-margin-top="5"
     fit-margin-left="5"
     fit-margin-right="5"
     fit-margin-bottom="5" />
  <g
     transform="translate(1.5,1.5)"
     id="g3">
    <use
       ffdec:characterId="516"
       height="57.549999"
       width="64.099998"
       xlink:href="#shape0"
       id="use1" />
    <use
       ffdec:characterId="1281"
       height="56.25"
       transform="translate(2.5,-0.7)"
       width="57.650002"
       xlink:href="#shape1"
       id="use2" />
    <use
       ffdec:characterId="518"
       height="60.549999"
       transform="translate(-1.5,-1.5)"
       width="67.099998"
       xlink:href="#shape2"
       id="use3" />
  </g>
  <defs
     id="defs8">
    <g
       id="shape0">
      <path
         d="M 53.6,0 H 64.1 V 57.55 H 53.6 28.25 0 V 0 H 28.25 53.6 V 57.55 0 M 28.25,0 V 57.55 0"
         fill="#ffffff"
         fill-rule="evenodd"
         stroke="none"
         id="path3" />
    </g>
    <g
       id="shape1"
       transform="translate(-2.5,0.7)">
      <path
         d="m 20.9,50.4 2.05,0.25 3.8,0.65 1.7,0.15 -0.05,0.05 -0.15,0.05 q -1.6,2 -4.3,2 l -1.3,-0.05 q -5.35,-0.15 -9.7,-2.9 -1.05,-0.25 -2,-1.15 L 8.4,46.6 Q 7.75,45.65 7.5,44.55 L 7.2,43.05 Q 6.75,39 8.35,35.3 9,33.85 9.15,32.25 L 9.1,30.4 Q 7.6,26.9 7.2,23.15 7,21.2 7.5,19.35 q 0.3,-1.5 1.2,-2.8 0.35,-0.6 0.2,-1.3 L 8.6,14.6 8.5,13.9 8.55,13.85 8.6,13.75 8.65,13.7 l 0.3,-0.1 0.4,0.1 0.25,0.15 q 1.2,1.6 1.55,3.6 l -0.05,1.5 -0.35,2.4 v 0.1 0.1 q 1.05,3.4 4.3,5.05 1.65,0.8 2.55,2.35 1.1,2.2 1,4.5 l 0.05,-0.05 q 0.5,-1.4 0.5,-2.8 l -0.2,-1.9 -0.15,-0.5 -0.2,-0.8 q -1.2,-2.65 -3.25,-4.8 -1.6,-1.65 -2.2,-3.85 l -0.3,-1.4 q -0.75,-3.45 0.3,-6.9 1.05,-3.5 3.25,-6.4 2.5,-3.35 6.55,-4.4 1.9,0.45 1.15,2.25 -0.2,0.4 0.1,-0.3 -1.5,2.25 -1.3,3.85 l 0.25,2.05 q 1.6,4.45 5.9,6.55 l 1.45,1 q 1.95,1.9 2.75,4.45 l 0.8,-0.9 q 2.1,-1.95 1.9,-4.7 l -2.8,-4.35 q -1.25,-1.8 -0.75,-3.9 -0.05,-1.1 0.35,-2.2 1.05,-3.15 4.1,-4.15 1.9,0.3 1.3,2.05 l -0.5,0.95 -0.3,0.25 q 0.1,3.25 3.25,4.2 l 1.25,0.55 q 2.95,1.6 3.5,4.85 l 0.2,1.95 q 0.1,4.3 -2.45,7.85 l -1,1.4 q -0.8,3.2 -0.45,6.55 0.25,2.55 1.4,4.85 0.9,1.9 0.75,3.95 v 0.95 l -0.1,1.1 q -1.2,0.95 -0.25,2.5 l 0.45,1.05 q 0.7,3.2 -2.1,5.15 -0.9,0.65 -1.05,1.55 -0.05,0.45 0.3,0.6 1.5,0.65 2.85,-0.55 3.15,-2.9 2.9,-7.2 -0.15,-2.45 -2.2,-3.25 1.3,-3.2 -0.05,-6.45 -0.85,-2.05 -0.9,-4.25 -0.1,-3.7 2.05,-6.65 1,-1.4 2.65,-2.05 l 5.5,-2.1 q 1.75,-0.65 1.4,-2.45 -0.2,-0.9 0.35,-1.6 L 55.7,15 h 0.15 q 1.6,0.5 1.8,2.25 0.5,0.55 0.5,1.5 0.05,3.35 -3.05,4.45 L 54,23.55 q -2.4,0.8 -2.65,3.25 -0.3,3.2 1.9,5.6 l 0.3,0.5 q 1.75,3.75 1.1,7.85 -0.65,4.1 -3.5,7.15 -2.8,3.1 -6.7,4.5 l -2.6,0.65 -2.6,-0.3 q -1.3,-0.55 -0.45,-1.55 0.25,-0.3 0.65,-0.35 -1.5,0.2 -3.15,-0.5 -0.85,-0.35 -0.65,-1.15 -0.4,-2.55 2.4,-3.15 L 39.1,45.8 v -0.1 -0.1 l 0.1,-0.1 0.95,-1.4 0.65,-1.15 0.6,-1.25 v -0.2 -0.3 l 0.1,-0.25 0.05,-1 -0.2,0.05 q -2,1 -3.15,-0.9 l -0.75,-1.35 -0.75,-1.7 q -1.9,-3.6 -1.2,-7.6 0.7,-3.85 2.3,-7.45 l -1.1,1.25 q -3.1,3.35 -2.3,7.8 0.1,0.65 -0.3,1.15 v 0.05 0.1 0.05 l 0.05,0.1 0.05,0.05 H 34.15 L 34.05,31.5 V 31.4 L 34,31.35 33.95,31.3 q -1.1,-0.1 -1.7,-1.1 l -0.2,0.15 v 0.2 l -0.55,3.65 -0.9,2.75 q -0.85,2.15 -3,1.45 l -0.75,-0.65 q -0.9,-2.2 -0.15,-4.5 0.9,-2.9 0.7,-6 l -0.55,-3.8 q -0.8,-3.3 -3.55,-5.4 L 23.05,17.9 Q 21.5,15.85 19.55,14.15 L 18.55,13 Q 17.65,11.55 17.8,9.75 L 17.65,8.85 17.5,8.95 17.45,9 17.25,9.35 q -0.5,0.65 -0.5,1.5 l -0.1,0.1 v 0.1 l -0.15,0.8 -0.2,1.25 q -0.1,1 0.35,1.95 l 1.3,2.25 q 2.4,3.55 6.55,4.4 0.75,1.8 1.05,3.8 0.4,3 0.3,6.1 l -0.3,1.55 q -0.35,4 -3.15,6.85 -2.3,2.35 -3.75,5.35 1.65,1.65 0.8,3.3 l -1.1,-1.1 -0.05,-0.05 -0.6,-0.8 q -0.15,-0.45 -0.15,-0.9 l 0.15,-1.7 0.15,-0.35 0.2,-0.7 H 18.2 L 18.15,42.9 v -0.05 l 0.6,-1.35 2.65,-4.2 0.85,-1.6 q 1.05,-2.55 0.2,-5.1 L 22.3,30.55 22.1,30.5 21.95,30.55 h -0.1 l -0.1,0.1 -0.1,0.15 -0.05,0.05 -0.15,0.7 -0.15,1 -0.2,0.5 -0.1,0.4 -0.25,0.4 -0.05,0.25 q -1.2,1.9 -2.95,3.4 l -1.2,1.2 -0.05,0.1 -0.7,0.05 -0.2,-0.2 -0.45,-0.6 L 15,37.55 Q 15.2,35.4 14.95,33.2 14.7,30.75 12.35,29.8 l -0.05,0.05 -0.1,0.1 v 0.1 l 0.05,0.15 0.05,0.25 0.05,0.2 0.5,0.85 0.45,0.8 v 0.2 l 0.05,0.25 0.05,0.25 v 0.05 l -0.05,0.75 -0.05,0.6 -0.1,0.15 -0.15,0.5 -0.05,0.4 q -0.4,0.65 -0.65,1.4 l -0.45,1.5 q -0.25,0.75 -0.35,1.6 -0.25,2.45 0.45,4.8 0.8,2.5 2.8,4.1 L 15,49.1 q 2.3,2.75 5.7,1.7 l 0.05,-0.05 0.05,-0.1 0.1,-0.05 0.05,-0.05 V 50.5 L 20.9,50.4 M 57.65,23.3 q 1.15,0.55 0.95,1.95 l -0.2,0.7 -0.75,1.35 -0.55,0.5 -0.2,0.6 -0.1,0.65 q 0.5,1.6 0.3,3.15 l -0.5,1.3 -0.05,0.05 -0.05,-0.05 v -0.05 q -1.4,-2 -2.3,-4.2 L 54.1,28.7 q 0.05,-3 3.05,-4 V 24.6 24.55 24.4 l -0.1,-0.55 0.4,-0.5 H 57.5 L 57.65,23.3 M 39,33.8 l -0.2,0.1 -0.1,0.05 -0.1,0.15 q -0.15,0.55 -0.15,1.15 l 0.35,0.95 0.05,0.2 0.05,0.6 0.15,0.4 0.25,1.05 q 0.3,0.65 0.95,0.85 l 0.3,-0.15 0.1,-0.05 0.7,-1.35 Q 41.55,37.1 41.3,36.5 L 41.05,35.65 Q 40.45,34.3 39,33.8 M 27.75,-0.05 q 2.05,0.7 1.1,2.7 l -0.5,0.95 q 0.05,1.1 0.7,2.05 l 0.6,1.2 0.1,1.7 L 29.25,9.9 29.1,10 28.95,10.05 28.8,9.95 28.7,9.9 Q 28.45,9.55 28.5,9.15 v -1 L 28.45,8.1 28.35,7.95 28.25,7.75 Q 25.05,6.1 25.3,2.7 l 0.2,-0.9 q 0.65,-1.55 2.25,-1.85 m 3.5,20.4 Q 30.6,18.4 29.05,17.1 l -0.45,-0.35 0.4,0.4 q 1.4,1.4 1.85,3.4 l 0.9,3 0.2,-0.4 -0.7,-2.8 M 8.25,4.6 Q 9.4,6.2 9.9,8.1 l 0.05,1.25 q -0.35,1.6 -1.75,2.6 l -1.1,1.2 q -0.15,0.35 -0.15,0.7 l -0.15,0.4 v 0.15 0.15 L 6.5,14.6 6,14.05 5.95,14 q -0.4,-1.45 0.3,-2.8 l 0.6,-1.25 q 0.3,-1.55 -0.3,-3.1 -0.2,-0.5 0.1,-1 0.5,-1 1.6,-1.25 m 9.25,15.7 2.25,3 1.15,1.8 q -0.35,-1.85 -1.3,-3.35 -1.7,-1 -2.75,-2.5 l 0.65,1.05"
         fill="#999999"
         fill-rule="evenodd"
         stroke="none"
         id="path4" />
      <path
         d="m 43.7,40.75 0.3,-0.2 0.25,-0.1 0.35,0.15 q 2.05,0.8 2.2,3.25 0.25,4.3 -2.9,7.2 -1.35,1.2 -2.85,0.55 Q 40.7,51.45 40.75,51 40.9,50.1 41.8,49.45 44.6,47.5 43.9,44.3 L 43.45,43.25 Q 42.5,41.7 43.7,40.75 M 23.05,17.9 l 1.7,2.4 0.45,1.1 0.45,0.65 0.1,0.1 -0.9,-0.4 -0.35,-0.05 q -4.15,-0.85 -6.55,-4.4 l -1.3,-2.25 Q 16.2,14.1 16.3,13.1 l 0.2,-1.25 0.15,-0.8 v -0.1 l 0.1,-0.1 q 0,-0.85 0.5,-1.5 L 17.45,9 17.5,8.95 l 0.15,-0.1 0.15,0.9 q -0.15,1.8 0.75,3.25 l 1,1.15 q 1.95,1.7 3.5,3.75 m -3.6,30.75 v 0.1 l 0.6,0.55 0.8,0.95 v 0.05 l 0.05,0.1 0.05,0.1 v 0.05 l -0.05,0.05 -0.1,0.05 -0.05,0.1 -0.05,0.05 Q 17.3,51.85 15,49.1 l -0.2,-0.25 q -2,-1.6 -2.8,-4.1 -0.7,-2.35 -0.45,-4.8 0.1,-0.85 0.35,-1.6 l 0.45,-1.5 Q 12.6,36.1 13,35.45 l 0.05,-0.4 0.15,-0.5 0.1,-0.15 0.05,-0.6 0.05,-0.75 V 33 L 13.35,32.75 13.3,32.5 V 32.3 L 12.85,31.5 12.35,30.65 12.3,30.45 12.25,30.2 12.2,30.05 v -0.1 l 0.1,-0.1 0.05,-0.05 q 2.35,0.95 2.6,3.4 0.25,2.2 0.05,4.35 l 0.15,0.5 0.45,0.6 0.2,0.2 0.7,-0.05 0.05,-0.1 1.2,-1.2 Q 19.5,36 20.7,34.1 l 0.05,-0.25 0.25,-0.4 0.1,-0.4 0.2,-0.5 0.15,-1 0.15,-0.7 0.05,-0.05 0.1,-0.15 0.1,-0.1 h 0.1 l 0.15,-0.05 0.2,0.05 0.15,0.05 q 0.85,2.55 -0.2,5.1 l -0.85,1.6 -2.65,4.2 -0.6,1.35 v 0.05 l 0.05,0.15 h -0.15 l -0.2,0.7 -0.15,0.35 -0.15,1.7 q 0,0.45 0.15,0.9 l 0.6,0.8 0.05,0.05 1.1,1.1 M 39,33.8 q 1.45,0.5 2.05,1.85 l 0.25,0.85 q 0.25,0.6 0.05,1.25 l -0.7,1.35 -0.1,0.05 -0.3,0.15 Q 39.6,39.1 39.3,38.45 L 39.05,37.4 38.9,37 38.85,36.4 38.8,36.2 38.45,35.25 q 0,-0.6 0.15,-1.15 l 0.1,-0.15 0.1,-0.05 0.2,-0.1"
         fill="#ffffff"
         fill-rule="evenodd"
         stroke="none"
         id="path5" />
      <path
         d="m 55.35,8 q 3.9,0.25 4.75,3.8 0.2,0.65 -0.15,1.25 -1.3,2.35 -3.7,1 -0.8,-0.45 -1.1,-1.35 -2.35,-0.4 -4.45,0.8 l -1.5,0.7 h -0.55 q -1.05,-1.15 0.1,-2.5 l 0.8,-1 Q 51.8,7.95 55.35,8 m -8.5,-1.35 q 2.35,0.45 1.8,2.7 -0.15,0.7 -0.65,1.2 l -0.65,0.7 Q 46.8,11.8 46.1,11.8 L 46,11.7 45.9,11.6 45.85,11.5 45.8,11.3 V 11.05 L 45.85,10.7 V 10.6 L 45.8,10.55 V 10.5 Q 44.2,9.2 45.3,7.55 45.85,6.7 46.85,6.65 m -16.05,7.7 q 3.35,-0.35 6.25,1 l 0.05,-0.1 q 1.7,-2.4 4.55,-2.8 4.45,-0.25 6.75,3.5 1.8,2.95 -0.05,5.85 -1.35,2.15 -3.55,3.5 l -1.2,0.5 v 0.25 q 0,4.1 -2.05,7.7 l -1.55,2.1 1.45,1.35 1.7,2.25 0.45,-0.65 5.1,-6.9 3.25,-4.6 q 1.1,-1.7 2.35,-3.3 l 1.05,-1.15 0.35,-0.1 0.25,0.05 0.15,0.05 0.1,0.15 0.1,0.1 v 0.15 l 0.05,0.15 v 0.05 l -0.15,0.2 -0.15,0.3 q -0.95,3.5 -2.75,6.75 l -0.6,1 -0.6,1.05 q -1.7,3.7 -3.8,7.25 -1.6,2.7 -3.05,5.5 0.1,2.55 -1.4,4.85 -2.25,3.4 -6.35,4.3 -5.25,1.2 -10.65,0.8 -2.7,-0.2 -5.25,-1.2 -3.1,-1.2 -4.55,-4.1 -1.4,-2.65 -0.9,-5.7 0.7,-4.3 3.5,-7.55 L 21.85,34.95 21,33.9 q -1.65,-2.35 -1.7,-5.25 0,-1.55 0.3,-2.95 l -0.25,-0.1 q -3.95,-1.5 -3.85,-5.55 0.1,-4.35 3.9,-6.6 1.25,-0.7 2.55,-0.8 3.65,-0.15 5.25,2.8 1.5,-0.75 3.25,-1.05 L 30.8,14.35 M 35.5,29.6 Q 34.45,27.4 32.45,26.7 L 32.6,26.1 Q 33,24 30.95,23.55 H 30.7 q -0.4,0.05 -0.65,0.35 -1,1.25 -0.55,2.6 -2.9,0.85 -3.85,3.9 -0.5,1.7 -0.35,3.55 0.1,0.8 0.85,1.25 1.65,0.95 2.95,-0.65 l 0.4,-0.05 h 0.1 0.15 l 0.35,0.2 1.5,1.05 q 1.65,0.85 3.1,-0.3 1.2,-0.95 1.35,-2.45 0.2,-1.8 -0.55,-3.4 M 23.85,21.1 q -1.25,0.1 -1.55,1.4 -0.2,0.95 0.65,1.5 l 0.5,0.35 -0.2,0.25 q -1.05,1.35 0,2.55 l 0.25,0.05 0.2,-0.05 0.1,-0.05 0.5,-0.5 1,-1.1 0.9,0.45 0.65,0.1 Q 28.3,25.7 27.55,24.4 L 27,23.55 l 0.35,-0.45 0.5,-0.7 q 0.9,-1.75 -1.1,-2.25 -0.55,0 -1,0.4 -0.45,0.4 -0.5,0.95 l -0.1,0.2 -1.3,-0.6 m 7.3,-4.8 -0.15,0.05 h -0.05 l -0.3,0.2 L 30,17.3 29.65,17.75 29.2,18.5 v 0.15 l -0.05,0.15 v 0.1 L 29,19.55 v 0.6 q 0.15,0.6 0.8,0.85 1.55,0.6 2.15,-1 v -0.15 -0.2 L 31.9,19.5 31.95,19.45 V 19.35 19.3 L 31.85,19 31.7,18.75 31.55,18.7 l -0.1,0.05 -0.3,0.5 -0.05,0.3 -0.1,0.1 v 0.05 l -0.05,0.1 -0.05,0.05 -0.1,0.05 -0.1,0.1 h -0.15 l -0.2,-0.2 -0.2,-0.1 V 19.6 19.55 L 30.1,19.5 V 19.4 L 30.15,19 30.2,18.8 30.45,18.3 30.9,17.65 31.2,17.4 31.75,16.95 31.8,16.8 31.75,16.6 31.7,16.5 31.45,16.35 31.15,16.3 m 6.45,1.2 q -2.7,0.25 -3.9,2.7 -1,2.1 0.05,4.1 l 0.45,0.65 1.1,-0.3 q 2.15,0.4 3.1,1.85 1.2,-0.3 2.2,-1.45 l 1.1,-1.9 -1.65,-1.1 -0.7,-0.75 q -0.8,-0.85 -1,-2 Q 38,18.45 38.2,17.55 L 37.6,17.5 M 14.95,36 l 0.9,0.15 0.3,0.1 0.05,0.1 0.05,0.05 0.05,0.1 0.05,0.05 v 0.05 0.1 l -0.05,0.05 -0.05,0.05 -0.05,0.1 -0.05,0.05 q -1.2,0.3 -1.95,1.25 l -0.5,0.7 q 0.25,2.4 -2.2,2.75 -0.85,0.15 -1.4,-0.5 -1.45,-1.65 0.15,-3.2 2,-1.9 4.7,-1.95 m -3.5,-5.5 q 3.4,0 6.15,1.7 1.45,0.9 1.6,2.45 L 18.85,35.15 16.9,35 16.2,34.75 Q 12,33.5 8.6,36.15 l -0.45,0.4 q -0.2,1.65 -1.2,2.9 -0.5,0.65 -1.3,0.75 -2.2,0.25 -2.95,-1.75 -0.3,-0.8 -0.1,-1.65 0.5,-2.6 2.55,-4.2 2.8,-2.15 6.3,-2.1 m 24.2,7.5 v 0.05 H 35.5 35.45 q -0.3,0.15 -0.3,0.45 l 0.15,0.55 v 0.1 0.05 l 0.25,0.75 0.15,0.95 0.05,0.05 v 0.1 0.4 l 0.15,0.25 v 0.25 0.1 0.1 l -0.05,0.05 -0.1,0.2 v 0.15 l -0.05,0.05 -0.1,0.15 -0.1,0.05 q -0.7,0.15 -1.2,-0.35 l -0.05,-0.4 -0.05,-0.3 0.05,-0.05 0.1,-0.25 -0.1,-0.25 -0.05,-0.05 H 34 33.9 l -0.2,0.15 -0.15,0.15 -0.15,0.7 q -0.3,1.3 0.9,2.05 l 1.3,0.1 q 1.95,-0.8 1.55,-2.95 L 37.1,41.25 37.05,41.2 V 41.15 40.7 l -0.1,-0.25 -0.1,-0.7 Q 36.6,38.6 35.65,38 m -14.95,1.55 -0.15,0.1 -0.25,0.1 -0.2,0.2 -0.8,0.85 -0.1,0.2 -0.35,0.55 v 0.1 l -0.05,0.05 -0.4,1.2 q -0.1,0.9 0.75,1.2 1.8,0.7 2.1,-1.15 L 21.15,42.75 21.1,42.5 H 21 l -0.2,0.05 v 0.15 l -0.1,0.2 -0.75,0.3 -0.1,-0.05 L 19.7,43 v -0.25 l -0.05,-0.3 0.1,-0.2 0.2,-0.45 0.2,-0.5 0.35,-0.75 0.1,-0.1 L 21,40 v -0.1 -0.15 l -0.15,-0.1 -0.15,-0.1 m 12.55,9.3 -0.15,0.05 -0.1,0.05 0.4,-0.15 -0.15,0.05"
         fill="#000000"
         fill-rule="evenodd"
         stroke="none"
         id="path6" />
      <path
         d="m 37.6,17.5 0.6,0.05 q -0.2,0.9 0.15,1.75 0.2,1.15 1,2 l 0.7,0.75 1.65,1.1 -1.1,1.9 q -1,1.15 -2.2,1.45 -0.95,-1.45 -3.1,-1.85 l -1.1,0.3 -0.45,-0.65 q -1.05,-2 -0.05,-4.1 1.2,-2.45 3.9,-2.7 m -6.45,-1.2 0.3,0.05 0.25,0.15 0.05,0.1 0.05,0.2 -0.05,0.15 -0.55,0.45 -0.3,0.25 -0.45,0.65 -0.25,0.5 -0.05,0.2 -0.05,0.4 v 0.1 l 0.05,0.05 v 0.05 0.1 l 0.2,0.1 0.2,0.2 h 0.15 l 0.1,-0.1 0.1,-0.05 0.05,-0.05 0.05,-0.1 v -0.05 l 0.1,-0.1 0.05,-0.3 0.3,-0.5 0.1,-0.05 0.15,0.05 0.15,0.25 0.1,0.3 v 0.05 0.1 l -0.05,0.05 0.05,0.15 v 0.2 0.15 q -0.6,1.6 -2.15,1 -0.65,-0.25 -0.8,-0.85 v -0.6 L 29.15,18.9 V 18.8 L 29.2,18.65 V 18.5 l 0.45,-0.75 0.35,-0.45 0.65,-0.75 0.3,-0.2 H 31 l 0.15,-0.05 m -7.3,4.8 1.3,0.6 0.1,-0.2 q 0.05,-0.55 0.5,-0.95 0.45,-0.4 1,-0.4 2,0.5 1.1,2.25 l -0.5,0.7 -0.35,0.45 0.55,0.85 q 0.75,1.3 -0.7,1.65 l -0.65,-0.1 -0.9,-0.45 -1,1.1 -0.5,0.5 -0.1,0.05 -0.2,0.05 -0.25,-0.05 q -1.05,-1.2 0,-2.55 l 0.2,-0.25 -0.5,-0.35 q -0.85,-0.55 -0.65,-1.5 0.3,-1.3 1.55,-1.4 m 11.65,8.5 q 0.75,1.6 0.55,3.4 -0.15,1.5 -1.35,2.45 -1.45,1.15 -3.1,0.3 L 30.1,34.7 29.75,34.5 H 29.6 29.5 l -0.4,0.05 q -1.3,1.6 -2.95,0.65 -0.75,-0.45 -0.85,-1.25 -0.15,-1.85 0.35,-3.55 0.95,-3.05 3.85,-3.9 -0.45,-1.35 0.55,-2.6 0.25,-0.3 0.65,-0.35 h 0.25 Q 33,24 32.6,26.1 l -0.15,0.6 q 2,0.7 3.05,2.9 m -14.8,9.95 0.15,0.1 0.15,0.1 V 39.9 40 l -0.4,0.45 -0.1,0.1 -0.35,0.75 -0.2,0.5 -0.2,0.45 -0.1,0.2 0.05,0.3 V 43 l 0.15,0.15 0.1,0.05 0.75,-0.3 0.1,-0.2 V 42.55 L 21,42.5 h 0.1 l 0.05,0.25 0.1,0.2 q -0.3,1.85 -2.1,1.15 -0.85,-0.3 -0.75,-1.2 l 0.4,-1.2 0.05,-0.05 v -0.1 L 19.2,41 l 0.1,-0.2 0.8,-0.85 0.2,-0.2 0.25,-0.1 0.15,-0.1 M 35.65,38 q 0.95,0.6 1.2,1.75 l 0.1,0.7 0.1,0.25 v 0.45 0.05 l 0.05,0.05 0.05,0.1 q 0.4,2.15 -1.55,2.95 l -1.3,-0.1 q -1.2,-0.75 -0.9,-2.05 l 0.15,-0.7 0.15,-0.15 0.2,-0.15 h 0.1 0.2 l 0.05,0.05 0.1,0.25 -0.1,0.25 -0.05,0.05 0.05,0.3 0.05,0.4 q 0.5,0.5 1.2,0.35 l 0.1,-0.05 0.1,-0.15 0.05,-0.05 V 42.4 l 0.1,-0.2 0.05,-0.05 v -0.1 -0.1 -0.25 l -0.15,-0.25 v -0.4 -0.1 L 35.7,40.9 35.55,39.95 35.3,39.2 v -0.05 -0.1 L 35.15,38.5 q 0,-0.3 0.3,-0.45 h 0.05 0.15 V 38"
         fill="#ffffff"
         fill-rule="evenodd"
         stroke="none"
         id="path7" />
    </g>
    <g
       id="shape2"
       transform="translate(1.5,1.5)">
      <path
         d="M 0,23.8 V 0 H 64.1 V 23.8 57.55 H 0 Z"
         fill="none"
         stroke="#000000"
         stroke-linecap="round"
         stroke-linejoin="round"
         stroke-width="3"
         id="path8" />
    </g>
  </defs>
</svg>
