<?xml version="1.0" encoding="UTF-8" standalone="no"?>
<svg
   ffdec:objectType="frame"
   height="44.424999"
   width="78.599998"
   version="1.1"
   id="svg11"
   sodipodi:docname="341.svg"
   xmlns:inkscape="http://www.inkscape.org/namespaces/inkscape"
   xmlns:sodipodi="http://sodipodi.sourceforge.net/DTD/sodipodi-0.dtd"
   xmlns:xlink="http://www.w3.org/1999/xlink"
   xmlns="http://www.w3.org/2000/svg"
   xmlns:svg="http://www.w3.org/2000/svg"
   xmlns:ffdec="https://www.free-decompiler.com/flash">
  <sodipodi:namedview
     id="namedview11"
     pagecolor="#ffffff"
     bordercolor="#000000"
     borderopacity="0.25"
     inkscape:showpageshadow="2"
     inkscape:pageopacity="0.0"
     inkscape:pagecheckerboard="0"
     inkscape:deskcolor="#d1d1d1"
     fit-margin-top="5"
     fit-margin-left="5"
     fit-margin-right="5"
     fit-margin-bottom="5" />
  <g
     transform="translate(2,2.05)"
     id="g3">
    <use
       ffdec:characterId="1"
       height="42.700001"
       transform="translate(-1.75,-2)"
       width="76.449997"
       xlink:href="#shape0"
       id="use1" />
    <use
       ffdec:characterId="320"
       height="43.599998"
       transform="translate(-0.5,-1)"
       width="76.75"
       xlink:href="#shape1"
       id="use2" />
    <use
       ffdec:characterId="3"
       height="44.349998"
       transform="translate(-2,-2.05)"
       width="78.599998"
       xlink:href="#shape2"
       id="use3" />
  </g>
  <defs
     id="defs11">
    <g
       id="shape0"
       transform="translate(1.75,2)">
      <path
         d="M 2.8,0 V -0.4 H 5.4 V 0 H 9.7 V 19.45 0 H 20.55 L 19.3,19.45 H 9.7 0.25 V 0 H 2.8"
         fill="#ffffff"
         fill-rule="evenodd"
         stroke="none"
         id="path3" />
      <path
         d="M 0.25,19.45 H 9.7 19.3 L 18.7,28.6 16,28.5 10.95,27.95 9.7,27.8 Q 7.45,27.6 5.85,27.75 4.05,27.9 1.5,28.6 0.75,28.8 0.25,29.15 v -9.7 m 9.45,0 v 8.35 -8.35"
         fill="#121212"
         fill-rule="evenodd"
         stroke="none"
         id="path4" />
      <path
         d="m 9.7,27.8 1.25,0.15 5.05,0.55 2.7,0.1 h 1.05 l 3.75,0.15 q 2.45,0.3 3.6,1.25 0.6,0.5 0.6,1.1 0,0.65 -0.8,1 l -1.3,0.2 -7.15,0.15 -5.6,-0.3 L 9.7,31.75 7.95,31.6 3.1,31.95 0.95,32.3 0.25,32.1 -0.35,31.55 -0.5,31.3 V 29.9 L 0.25,29.15 Q 0.75,28.8 1.5,28.6 4.05,27.9 5.85,27.75 7.45,27.6 9.7,27.8 v 3.95 -3.95"
         fill="#999999"
         fill-rule="evenodd"
         stroke="none"
         id="path5" />
      <path
         d="M 2.8,0 H 0.25 M 9.7,0 H 5.4 m 16.15,0 h 10.7 M 20.55,0 H 9.7"
         fill="none"
         stroke="#666666"
         stroke-linecap="round"
         stroke-linejoin="round"
         stroke-width="4"
         id="path6" />
      <path
         d="m 9.7,-0.4 h 65 V 40.5 H 47.05 L 45.5,40.7 27,40.65 25.95,40.5 H 9.7 -0.5 V -0.4 H 9.7 V 40.5 -0.4"
         fill="#ffffff"
         fill-rule="evenodd"
         stroke="none"
         id="path7" />
    </g>
    <g
       id="shape1"
       transform="translate(0.5,1)">
      <path
         d="M 9.9,15.65 10.55,12.8 Q 11,11.2 12.2,9.5 L 12.6,8.75 12.55,8.15 12.25,6.2 q -0.05,-1 0.3,-2.35 0.7,-3.1 2.2,-4 l 0.7,-0.1 Q 15.75,0 15.6,0.5 l -0.45,0.65 q -0.55,0.7 -0.75,1.9 l -0.25,2.1 -0.05,0.8 0.25,0.85 q 0.5,1.7 0.15,2.65 l -0.75,1.3 q -1.35,1.9 -1.65,4.4 L 12,16.6 v 1.2 l 0.65,2.6 v 0.8 0.05 q 0.1,0.35 -0.2,0.6 l -0.65,0.4 q -0.85,0.35 -2,1.25 l -2.65,2.25 -1.65,1.65 -0.7,1 -1.2,2.3 q -0.35,0.9 -0.65,3.35 l -0.4,4.85 q 0.1,1.55 -0.45,1.9 L 1.2,40.9 0.45,40.25 q -0.3,-0.6 -0.2,-2 L 0.6,34.75 0.9,32.4 1.4,30.65 q 0.7,-1.9 1.9,-3.5 l 1.5,-1.7 q 3.15,-3.3 5.85,-4.3 L 10.5,20.5 Q 9.8,18.7 9.75,17.75 l 0.15,-2.1 m 1.1,-8.8 -0.9,2.4 -1,2.35 q -0.75,2.3 -0.35,6.45 0.1,1.4 -0.5,1.85 l -0.7,0.15 h -0.1 l -0.6,0.3 Q 4,21.7 2,24.3 L 0.95,25.35 0.2,25.5 -0.4,25.15 q -0.4,-0.65 0.5,-1.7 2.95,-3.3 6.6,-4.5 v -0.2 Q 6.05,14.15 6.95,11.3 7.2,10.3 8.3,8.15 L 9.15,6.45 9.55,4.8 10.05,2.05 10.7,0.6 11.3,-0.05 11.75,-0.1 12.05,0.2 11.9,0.8 Q 11.4,1.85 11.3,3.75 L 11,6.85 M 2,4.85 2.15,4 Q 2.3,2.95 2.8,1.85 l 0.45,-0.95 0.6,-1.1 0.4,-0.3 q 0.4,-0.2 0.6,0.25 0.2,0.35 -0.2,1.05 L 4.05,2 3.65,3.2 3.35,4.45 3.4,5.2 2.9,7.95 2.8,10.4 q 0,0.7 -0.35,1.1 l -0.6,0.4 -0.6,0.65 -1.05,-0.1 Q -0.3,12 -0.15,11.4 L 0.25,10.65 1,10.1 1.05,9.85 1.1,9.15 q 0,-1.1 0.35,-2.5 L 2,4.85 m 32.7,-5.15 1.7,0.3 3.5,-0.05 1.15,0.1 q 0.7,0.15 0.9,0.75 0.25,0.75 -0.85,1.8 L 40.05,3.4 38.4,3.7 36.2,3.75 q -1.6,0 -2.15,-0.55 -0.3,-0.25 -0.5,-0.85 L 33.1,1.4 32.6,0.7 Q 32.3,0.3 32.35,-0.05 32.4,-0.5 32.8,-0.75 l 0.8,-0.15 1.1,0.6 M 24.2,25.15 22.8,24.25 21.95,23 q -1.45,-3.05 -1.4,-6.25 0,-1.8 0.45,-3.15 l 0.8,-1.8 0.85,-2 -0.05,-1.5 q 0,-1.3 1.05,-4.05 l 1.55,-3.65 0.5,-1 q 0.5,-0.45 1,-0.4 0.75,0.15 0.85,1.1 l -0.4,1.45 -1.3,3.1 q -1,2.3 -0.75,3.55 l 0.3,1.4 -0.5,1.65 q -1.55,3.3 -1.6,5.3 0,1.1 0.5,3.2 0.4,1.45 0.85,1.9 l 1.35,0.9 1.15,1.05 q 0.2,0.55 0,1.1 l -0.15,0.65 -0.6,0.8 -0.9,1.4 -0.55,1.05 q -0.45,0.5 -1.7,0.8 -3.55,0.85 -5.85,2.2 -3.05,1.8 -4.3,4.4 -0.85,1.75 -0.15,2.75 l 0.6,0.75 q 0.45,0.6 0.2,1.25 -0.25,0.6 -1,0.8 L 11.1,41.6 Q 10.3,41.2 9.9,40.45 9.55,39.75 9.65,38.1 q 0,-1.4 0.35,-2.3 0.25,-0.7 0.85,-1.55 l 1.4,-2 q 1.65,-1.95 4.65,-3.3 2,-0.9 5.45,-1.85 l 0.95,-0.4 0.8,-1 0.3,-0.4 -0.2,-0.15 M 7.3,30.55 6.25,32.1 Q 6,32.7 6,34.35 L 6.1,39.05 5.85,40 Q 5.4,40.35 4.95,40 L 4.35,39.25 Q 3.9,38.15 4,36.05 l 0.05,-2.7 q 0.1,-1.45 0.5,-2.25 l 0.5,-0.85 q 1.9,-2.75 3.5,-3.95 l 1.8,-1.1 q 2.4,-1.2 4.75,-2 l -0.8,-1.8 -0.4,-1.35 -0.2,-1.2 q -0.15,-1.75 0,-3.4 L 14.25,12.7 15.05,10.95 16.15,9.6 16.4,9.35 16.3,8.85 16.1,8.15 16,6.9 l 0.2,-2.5 0.25,-1 1.1,-2.2 0.55,-0.75 q 1,-1.05 1.75,-1.35 l 1.1,0.05 q 0.2,0.9 -0.25,1.75 l -0.9,1 -1,1.7 -0.35,1.1 -0.2,1.45 q -0.15,0.7 0,1.35 l 0.1,0.8 -0.05,0.9 v 0.25 l 0.05,0.6 -0.6,1.1 -1.05,1.4 q -0.3,0.55 -0.45,1.2 l -0.2,0.95 v 3.55 l 0.1,1.15 0.35,0.9 0.35,1.25 0.45,1.25 0.15,0.25 0.25,0.45 0.05,0.25 0.05,0.1 Q 18,24.6 17.45,24.9 l -0.45,0.05 -0.5,0.15 -4.3,1.7 -2.6,1.45 -2.3,2.3 m 39.4,4.5 0.85,-0.85 q 1.45,-1.6 1,-3.95 -0.35,-1.9 -1.95,-3.7 l -1,-1.25 q -0.5,-0.7 -0.5,-1.4 0,-0.75 0.65,-1.7 l 1.9,-2.65 q 1.1,-1.6 1.45,-2.9 0.35,-1.1 0.35,-2.65 L 49.3,11.25 48.7,6.45 q -0.45,-2.7 -1.2,-4.7 -0.35,-1 -0.25,-1.4 l 0.4,-0.55 0.65,-0.15 0.4,0.4 q 1.35,1.9 2.1,4.7 l 0.85,5.1 0.35,4.55 q -0.05,2.5 -0.85,4.3 l -1.5,2.5 -1.75,2.6 0.75,0.95 0.9,0.85 q 0.9,0.9 1.45,2.85 0.65,2.25 0.3,4.3 -0.35,2.3 -1.95,3.7 l -0.45,0.4 0.05,0.2 q 0.2,1.85 -0.05,2.55 l -1.25,1.55 -1.35,1 q -0.95,0.45 -1.65,0 Q 44.15,41.9 44,41.3 43.85,40.75 44.15,40.25 l 1.2,-1 Q 46.25,38.65 46.3,38 46,37.05 46.05,36.6 46.1,36.3 46.3,36.1 46.25,35.6 46.7,35.05 M 51.35,1.95 50.75,0.7 q -0.1,-0.9 0.5,-1.25 l 1,0.05 0.8,0.7 q 1,1.45 1.9,4.5 l 0.55,1.85 0.45,1.6 0.15,2.75 q 0,4.25 -0.35,6.3 -0.6,3.6 -2.3,5.9 l -0.2,0.3 0.8,0.85 0.85,1.3 Q 56,27.6 56,30.2 l -0.4,2.85 q -0.55,2.1 -1.8,3.55 l -0.4,0.7 0.1,0.7 q 0.5,1.3 0.45,1.95 L 53.6,40.9 52.75,41.35 Q 52,41.45 51.55,40.7 51.15,40.2 51,39.35 50.4,37.3 50.75,36.25 l 1.1,-1.65 q 1.7,-2.2 1.45,-5.05 -0.15,-2.7 -2.15,-4.8 l -0.35,-0.4 -0.2,-0.1 q -0.55,-0.3 -0.6,-0.9 -0.05,-0.45 0.35,-0.9 l 0.75,-0.8 q 1.5,-1.65 2,-5.3 0.65,-3.85 0.35,-7.4 -0.4,-3.95 -2.1,-7 m 5.4,31.2 0.4,-1.45 0.2,-1.1 Q 57.6,29.15 57.2,27.7 L 56.8,26.5 56.4,25.7 55.85,25.1 55.6,24.6 q -0.25,-0.15 -0.25,-0.5 l 0.1,-0.8 1.4,-4.35 1.1,-3.75 Q 58.8,11.65 58.55,8 L 58.3,6.15 57.55,4 56.8,2.65 55.9,1.6 Q 55.35,0.95 55.65,0.35 55.8,-0.05 56.2,-0.2 l 0.85,-0.05 q 0.65,0.1 1.3,0.95 0.9,1.05 1.8,3.65 l 0.55,2.2 q 0.25,1.6 0.05,4.9 l -0.45,3.75 -0.5,1.95 q -1.1,3.85 -2.65,6.3 0.25,0.1 0.55,0.35 l 0.65,1.05 q 0.85,1.9 1.05,3.35 0.2,1.5 -0.1,3.7 l -0.15,1.05 -0.85,2.15 -1.05,2 -0.1,0.55 0.25,0.55 0.2,0.75 q 0,0.5 -0.5,0.6 -0.4,0.05 -0.95,-0.75 -0.85,-0.75 -1.05,-1.3 -0.2,-0.65 0.4,-1.8 l 0.75,-1.45 0.5,-1.1 m 8.85,-17.9 q -0.1,2.45 -0.7,4.3 l -1.5,3.2 -0.3,0.55 0.65,1.15 0.55,1.2 0.35,2.8 0.15,1.55 -0.3,1.45 -0.25,1.65 q -0.3,1.85 -1.45,3.3 l -0.75,1.15 -0.1,1.6 Q 62,40.2 61.65,40.7 l -0.5,0.3 q -0.35,0 -0.5,-0.25 -0.7,-0.7 -0.9,-2.5 -0.1,-0.8 0.05,-1.2 l 0.45,-0.65 1.45,-2 q 0.5,-0.85 0.8,-2.8 L 62.7,29.85 62.6,28.9 62.5,27.35 62.15,25.8 61.6,24.25 61.1,23.85 q -0.45,-0.55 0.35,-1.8 2,-3.05 2.15,-7.7 Q 63.75,11.9 63,6.25 62.5,2.7 61.6,1.3 l -0.45,-1 q -0.2,-0.7 0.35,-0.95 0.55,-0.3 1.2,0.45 0.95,1 1.45,2.7 l 0.6,3.05 q 0.95,6.15 0.85,9.7 m 5.3,-0.15 -0.1,1.3 -0.6,3.2 -0.85,2.35 -0.25,0.55 q 0.9,1.25 1.25,2.45 0.45,1.4 0.65,4.35 v 2.35 l -0.65,3.65 -0.6,2.05 -2.6,4.05 -0.85,0.95 -1.2,-0.05 Q 64.8,42 64.9,41.45 l 0.4,-0.85 2.35,-3.3 0.5,-0.95 0.25,-1.1 q 0.8,-2.7 0.85,-4.1 L 69.2,29.75 68.8,26.3 68,22.85 67.7,22.6 67.55,21.95 q 0,-0.4 0.45,-1.3 0.85,-1.55 1.05,-3.3 l 0.1,-2.1 -0.45,-4.1 Q 68.2,6.55 67.6,4.45 L 66.4,1.3 66.05,0.35 q -0.1,-0.65 0.4,-0.9 0.5,-0.3 1,0.2 l 0.6,1 1.45,4.35 0.65,4.4 q 0.3,3.15 0.55,4.4 l 0.2,1.3 M 71.75,39 q 1.95,-3.15 2.5,-6.9 0.55,-3.75 -0.45,-7.3 L 73.05,22.75 72.6,21.8 q -0.1,-0.35 0.25,-1.65 1,-3.05 0.55,-8.45 Q 72.95,6.35 71.9,1 71.65,-0.3 72.4,-0.3 73,-0.35 73.1,0.6 l 0.8,4.1 q 1.05,5.45 1.25,8.35 0.3,4.7 -0.75,8.25 2.05,4.4 1.8,9.4 -0.3,5 -2.85,9.1 l -0.9,0.9 -0.95,-0.1 Q 71,40.1 71.75,39 m -50.4,-14.45 0.85,0.6 q 0.3,0.35 0.15,0.9 l -0.6,0.85 -1.9,0.5 q -3.4,0.55 -7.05,2.9 -2.45,1.65 -3.35,3.2 -1.4,2.25 -1.05,5.55 0.1,1 -0.35,1.3 L 7.5,40.4 7.05,40 6.75,38.9 Q 6.45,35.55 7,33.95 7.45,32.65 8.7,31.1 12.75,26.35 18.9,25.2 l -0.6,-2.3 -0.7,-2.3 q -0.3,-1.45 -0.3,-4.35 0,-2.1 0.3,-3.1 0.3,-1.25 1.7,-3.2 L 19.7,9.5 19.45,7.5 Q 19.4,6.4 19.65,4.9 L 19.9,4.05 20.75,2.25 21.1,1.65 21.65,1.05 22.4,0.1 23.75,0 24.15,0.8 24.1,1.65 22.95,3.3 22.2,4.75 q -0.35,1 -0.45,2.65 L 21.6,9.6 v 0.1 l -0.05,1 v 0.05 l -0.05,0.1 -0.2,0.3 -0.9,1.1 q -0.95,1.45 -0.85,4.65 0,2.15 0.4,3.4 l 0.75,2.25 0.2,1.1 q 0.1,0.6 0.45,0.9 M 2.8,16.25 3.3,15.8 3.35,15.1 Q 3.15,13.5 3.75,10.55 4.4,7.1 5.2,5.1 L 5.95,2.95 7.6,0.35 Q 7.8,-0.05 8.1,-0.1 L 8.65,0.05 8.85,0.65 8.25,1.8 7.5,3.05 Q 6.7,4.55 6,7.95 L 5.35,11.1 Q 5,13.5 5.2,15.35 5.3,16.9 4.8,17.45 L 3.65,18 q -0.6,0.25 -1.25,0.75 l -0.75,0.6 -0.9,0.05 q -0.7,-0.35 -0.4,-1.1 0.15,-0.5 0.8,-1.05 l 1.65,-1"
         fill="#999999"
         fill-rule="evenodd"
         stroke="none"
         id="path8" />
      <path
         d="m 47.95,13.75 q 0.1,3.5 -1.3,6 -1.2,2.2 -3.35,3.6 l 0.1,1.5 q 0,0.6 0.15,0.8 l 0.65,0.4 q 1.8,0.7 2.45,2.55 l 0.3,1.3 0.15,1.85 q -0.15,1.75 -2.45,3.85 0.45,0.65 0.3,1.5 -0.1,0.85 -0.75,1.35 Q 43.4,39.1 41.45,39 L 40.6,38.95 40.45,39.2 q -0.6,1.15 -1.25,1.45 l -1.8,0.2 -1.05,-0.2 q -1.05,0.9 -2.85,0.5 -1.4,-0.4 -1.9,-1.2 h -0.15 l -1.3,0.35 -1.55,0.2 q -1.25,0 -1.8,-0.4 L 26,39.3 q -0.4,-0.5 -0.45,-0.9 -0.15,-0.85 0.5,-1.6 L 24.8,35.15 24.2,33.9 q -2.25,0.7 -3.45,1.4 l -2.1,1.5 0.85,-0.15 1.7,-0.1 q 0.9,0.05 1.7,0.5 0.8,0.5 1.05,1.3 0.4,1.4 -0.7,2.4 -0.9,0.9 -2.35,1.05 l -2.7,-0.3 q -1.25,-0.1 -2.7,-0.85 l -1.05,-0.8 q -0.35,-0.5 -0.35,-1.55 0,-1.45 0.15,-1.9 L 15,35.1 q 1.4,-1.8 4,-3.1 1.55,-0.75 4.85,-1.75 L 24.5,30.1 q 0.15,-0.45 0.45,-0.85 0.85,-1.2 2.05,-1.85 l 1.05,-0.9 0.15,-0.8 0.3,-1.05 0.55,-1.15 -1.4,-1.05 q -1.55,-1.35 -2.35,-3.2 -0.8,-1.95 -0.6,-3.9 0.1,-1.1 0.7,-2.75 l 1.05,-2.15 0.5,-0.65 -0.6,-0.95 Q 26.2,8.45 26.2,7.5 q 0,-1.25 0.15,-1.85 l 0.95,-2 0.4,-1.1 q 0.2,-0.7 0.5,-1.1 0.45,-0.55 1.25,-0.7 0.7,-0.1 1.35,0.4 l 0.8,1 1,1.9 0.75,1 6.8,-0.2 0.35,-0.35 q 1.15,-0.95 2.4,-2.65 0.75,-1.15 1.3,-1.4 0.5,-0.2 1,0 l 0.8,0.6 0.35,1.25 0.5,1.75 0.4,1.75 0.1,1.25 0.1,0.85 -0.05,0.75 0.1,0.7 0.1,1 v 0.25 q 0.35,1.4 0.35,3.15 m -4.2,3.2 q 0.9,-0.45 1.45,-1.5 0.5,-1 0.45,-2.1 -0.1,-1.6 -1.05,-2.5 Q 43.75,10 42.25,9.9 41,9.85 39.9,10.55 q -1.15,0.75 -1.6,1.85 -0.45,1.2 -0.05,2.45 0.35,1.3 1.4,1.95 0.9,0.5 1.95,0.6 1.3,0.1 2.15,-0.45 M 42.95,14.25 42.7,13.9 Q 42.45,13.5 42.65,13.05 42.9,12.5 43.4,12.6 l 0.05,-0.05 0.65,0.3 0.2,0.7 -0.45,0.75 -0.9,-0.05 m -7.15,-0.3 q 0.1,-1.25 -0.65,-2.3 -0.8,-1.05 -2,-1.35 -1.6,-0.35 -3.2,0.65 -1.85,1.15 -2,3 -0.1,1.3 0.75,2.4 0.85,1.1 2.1,1.35 l 2.35,-0.25 q 1.2,-0.45 1.9,-1.45 0.7,-1 0.75,-2.05 m -1.75,6.1 -0.55,-0.7 -0.6,-0.5 q -0.65,-0.1 -0.85,0.8 -0.1,0.75 0.35,1.4 0.45,0.65 1.2,0.9 1.4,0.45 2.85,-0.6 l 0.4,-0.2 0.4,0.25 q 0.7,0.65 1.75,0.65 1,0.05 1.75,-0.55 0.7,-0.5 0.7,-1.15 L 41.3,19.65 40.7,19.3 40.05,19.4 39.4,19.75 38.7,19.9 38.2,19.55 38.15,19 37.6,18.5 l -0.85,0.1 -0.65,0.5 -0.55,0.6 q -0.85,0.75 -1.5,0.35 M 30.5,13 l 0.2,-0.05 0.05,-0.05 0.65,0.3 q 0.5,0.5 0.15,1.05 -0.35,0.6 -1,0.45 -0.6,-0.15 -0.7,-0.85 0,-0.7 0.65,-0.85"
         fill="#000000"
         fill-rule="evenodd"
         stroke="none"
         id="path9" />
      <path
         d="M 43.75,16.95 Q 42.9,17.5 41.6,17.4 40.55,17.3 39.65,16.8 38.6,16.15 38.25,14.85 37.85,13.6 38.3,12.4 q 0.45,-1.1 1.6,-1.85 1.1,-0.7 2.35,-0.65 1.5,0.1 2.35,0.95 0.95,0.9 1.05,2.5 0.05,1.1 -0.45,2.1 -0.55,1.05 -1.45,1.5 m -0.8,-2.7 0.9,0.05 0.45,-0.75 -0.2,-0.7 -0.65,-0.3 -0.05,0.05 q -0.5,-0.1 -0.75,0.45 -0.2,0.45 0.05,0.85 l 0.25,0.35 m -8.9,5.8 q 0.65,0.4 1.5,-0.35 l 0.55,-0.6 0.65,-0.5 0.85,-0.1 0.55,0.5 0.05,0.55 0.5,0.35 0.7,-0.15 0.65,-0.35 0.65,-0.1 0.6,0.35 0.15,0.7 q 0,0.65 -0.7,1.15 -0.75,0.6 -1.75,0.55 -1.05,0 -1.75,-0.65 l -0.4,-0.25 -0.4,0.2 q -1.45,1.05 -2.85,0.6 -0.75,-0.25 -1.2,-0.9 -0.45,-0.65 -0.35,-1.4 0.2,-0.9 0.85,-0.8 l 0.6,0.5 0.55,0.7 m 1.75,-6.1 Q 35.75,15 35.05,16 q -0.7,1 -1.9,1.45 L 30.8,17.7 q -1.25,-0.25 -2.1,-1.35 -0.85,-1.1 -0.75,-2.4 0.15,-1.85 2,-3 1.6,-1 3.2,-0.65 1.2,0.3 2,1.35 0.75,1.05 0.65,2.3 M 30.5,13 q -0.65,0.15 -0.65,0.85 0.1,0.7 0.7,0.85 0.65,0.15 1,-0.45 Q 31.9,13.7 31.4,13.2 L 30.75,12.9 30.7,12.95 30.5,13"
         fill="#ffffff"
         fill-rule="evenodd"
         stroke="none"
         id="path10" />
    </g>
    <g
       id="shape2"
       transform="translate(2,2.05)">
      <path
         d="M -0.5,-0.4 V -0.55 H 75.1 V -0.4 40.8 H -0.5 Z"
         fill="none"
         stroke="#000000"
         stroke-linecap="round"
         stroke-linejoin="round"
         stroke-width="3"
         id="path11" />
    </g>
  </defs>
</svg>
