<?xml version="1.0" encoding="UTF-8" standalone="no"?>
<svg
   ffdec:objectType="frame"
   height="44.407406"
   width="78.599998"
   version="1.1"
   id="svg12"
   sodipodi:docname="134.svg"
   xmlns:inkscape="http://www.inkscape.org/namespaces/inkscape"
   xmlns:sodipodi="http://sodipodi.sourceforge.net/DTD/sodipodi-0.dtd"
   xmlns:xlink="http://www.w3.org/1999/xlink"
   xmlns="http://www.w3.org/2000/svg"
   xmlns:svg="http://www.w3.org/2000/svg"
   xmlns:ffdec="https://www.free-decompiler.com/flash">
  <sodipodi:namedview
     id="namedview12"
     pagecolor="#ffffff"
     bordercolor="#000000"
     borderopacity="0.25"
     inkscape:showpageshadow="2"
     inkscape:pageopacity="0.0"
     inkscape:pagecheckerboard="0"
     inkscape:deskcolor="#d1d1d1"
     fit-margin-top="5"
     fit-margin-left="5"
     fit-margin-right="5"
     fit-margin-bottom="5" />
  <g
     transform="translate(2,2.05)"
     id="g3">
    <use
       ffdec:characterId="1"
       height="42.700001"
       transform="translate(-1.75,-2)"
       width="76.449997"
       xlink:href="#shape0"
       id="use1" />
    <use
       ffdec:characterId="135"
       height="44.099998"
       transform="translate(6.8,-1.75)"
       width="60.099998"
       xlink:href="#shape1"
       id="use2" />
    <use
       ffdec:characterId="3"
       height="44.349998"
       transform="translate(-2,-2.05)"
       width="78.599998"
       xlink:href="#shape2"
       id="use3" />
  </g>
  <defs
     id="defs12">
    <g
       id="shape0"
       transform="translate(1.75,2)">
      <path
         d="M 2.8,0 V -0.4 H 5.4 V 0 H 9.7 V 19.45 0 H 20.55 L 19.3,19.45 H 9.7 0.25 V 0 H 2.8"
         fill="#ffffff"
         fill-rule="evenodd"
         stroke="none"
         id="path3" />
      <path
         d="M 0.25,19.45 H 9.7 19.3 L 18.7,28.6 16,28.5 10.95,27.95 9.7,27.8 Q 7.45,27.6 5.85,27.75 4.05,27.9 1.5,28.6 0.75,28.8 0.25,29.15 v -9.7 m 9.45,0 v 8.35 -8.35"
         fill="#121212"
         fill-rule="evenodd"
         stroke="none"
         id="path4" />
      <path
         d="m 9.7,27.8 1.25,0.15 5.05,0.55 2.7,0.1 h 1.05 l 3.75,0.15 q 2.45,0.3 3.6,1.25 0.6,0.5 0.6,1.1 0,0.65 -0.8,1 l -1.3,0.2 -7.15,0.15 -5.6,-0.3 L 9.7,31.75 7.95,31.6 3.1,31.95 0.95,32.3 0.25,32.1 -0.35,31.55 -0.5,31.3 V 29.9 L 0.25,29.15 Q 0.75,28.8 1.5,28.6 4.05,27.9 5.85,27.75 7.45,27.6 9.7,27.8 v 3.95 -3.95"
         fill="#999999"
         fill-rule="evenodd"
         stroke="none"
         id="path5" />
      <path
         d="M 2.8,0 H 0.25 M 9.7,0 H 5.4 m 16.15,0 h 10.7 M 20.55,0 H 9.7"
         fill="none"
         stroke="#666666"
         stroke-linecap="round"
         stroke-linejoin="round"
         stroke-width="4"
         id="path6" />
      <path
         d="m 9.7,-0.4 h 65 V 40.5 H 47.05 L 45.5,40.7 27,40.65 25.95,40.5 H 9.7 -0.5 V -0.4 H 9.7 V 40.5 -0.4"
         fill="#ffffff"
         fill-rule="evenodd"
         stroke="none"
         id="path7" />
    </g>
    <g
       id="shape1"
       transform="translate(-6.8,1.75)">
      <path
         d="m 63.7,19.45 -0.2,1.15 -0.65,1.05 Q 61.8,22.9 60,23.55 L 56.6,23.95 55,23.7 q -1.55,-0.55 -2.1,-2.1 -0.6,-1.4 -0.1,-3 -1,-0.5 -0.9,-1.75 0.1,-1 1,-1.75 0.75,-0.6 1.85,-0.95 l 5.9,0.2 q 1.65,0.65 2.3,1.6 0.85,1.15 0.75,3.5 m -42.75,-0.95 -0.3,1.65 q -0.3,0.85 -1.3,1.55 l -1.75,1 -1.95,0.95 -0.9,0.3 L 13.6,23.7 11.9,23.1 10.7,22.5 Q 9.45,21.75 8.85,20.15 L 8.65,19.4 v -0.8 q 0.1,-1.35 0.3,-1.75 0.3,-0.6 0.95,-1.25 L 10.45,15.05 10.6,15 11.8,14.3 q 1.5,-0.55 3.3,0.5 l 0.2,-0.15 q 1.2,-0.8 2.55,-0.55 1.5,0.25 2.25,1.4 l 0.6,1.2 0.25,0.95 v 0.85 m -7.25,0.2 0.9,0.45 -0.35,-0.3 -0.55,-0.15 m 2.15,0.75 -0.55,-0.05 0.3,0.2 0.25,-0.15"
         fill="#ffffff"
         fill-rule="evenodd"
         stroke="none"
         id="path8" />
      <path
         d="m 26.3,-0.4 v -0.05 l 0.05,-0.05 0.05,-0.1 0.1,-0.05 0.05,-0.05 0.05,-0.1 0.05,-0.05 0.15,-0.05 0.1,-0.1 h 0.15 l 0.05,-0.05 h 0.1 0.2 V -1.1 h 0.05 l 0.2,0.05 h 0.1 l 0.15,0.05 0.15,0.05 0.05,0.1 0.1,0.05 v -0.05 l 0.15,-0.05 0.15,-0.05 0.15,-0.05 0.05,-0.05 0.05,-0.1 0.05,-0.05 0.05,-0.05 0.1,-0.1 0.05,-0.05 0.1,-0.05 0.1,-0.1 0.15,-0.05 0.2,-0.05 0.15,-0.05 0.1,-0.05 h 0.25 0.3 2.75 7.5 2.75 0.3 0.25 l 0.1,0.05 0.15,0.05 0.2,0.05 0.15,0.05 0.1,0.1 0.1,0.05 0.05,0.05 0.1,0.1 0.05,0.05 0.05,0.05 0.05,0.1 0.05,0.05 0.15,0.05 0.15,0.05 0.15,0.05 v 0.05 l 0.1,-0.05 0.05,-0.1 0.15,-0.05 0.15,-0.05 h 0.1 l 0.2,-0.05 h 0.05 v 0.05 h 0.2 0.1 L 46.65,-1 h 0.15 l 0.1,0.1 0.15,0.05 0.05,0.05 0.05,0.1 0.05,0.05 0.1,0.05 0.05,0.1 0.05,0.05 v 0.05 l 0.05,0.1 v 0.05 l 0.05,0.05 v 0.1 l 0.05,0.05 v 0.1 0.1 0.1 0.1 0.1 0.1 0.1 0.1 0.1 l 0.05,0.1 v 0.1 l 0.05,0.1 V 1.3 1.4 1.5 1.6 1.7 1.8 1.9 2 v 0.1 0.1 0.1 0.1 0.15 0.1 0.1 0.1 0.1 0.1 0.1 l 0.05,0.1 v 0.1 0.1 0.1 0.1 0.15 l 0.05,0.1 v 0.1 0.1 0.1 0.1 0.1 0.1 0.1 0.1 0.1 0.1 0.15 0.1 0.1 0.1 0.1 0.1 0.1 0.1 0.05 l 0.05,0.05 v 0.1 0.1 0.1 L 48,8.4 48.45,8.15 57.7,3.25 q 1.55,-0.8 3.6,-1.55 l 0.2,0.05 -0.05,0.15 -3.5,3.15 -1.4,1.1 -2.4,2.25 -2.25,1.95 -0.35,0.35 h 0.1 1 0.2 0.5 L 54,10.75 h 0.2 0.35 0.75 0.1 0.5 0.05 l -0.1,0.05 H 56 56.2 l 0.3,0.05 h 0.25 0.25 0.05 0.2 0.25 l 2.45,-0.05 h 0.5 v 0.05 h 4.15 0.25 l 0.1,0.05 h 0.1 l 0.1,0.05 h 0.05 l 0.1,0.05 0.15,0.05 0.1,0.1 0.1,0.05 0.05,0.05 0.1,0.1 0.1,0.1 0.05,0.05 0.05,0.1 0.05,0.05 0.05,0.05 v 0.1 l 0.05,0.05 0.05,0.05 0.05,0.1 0.05,0.05 0.05,0.05 0.05,0.1 0.05,0.05 v 0.05 l 0.05,0.1 0.05,0.05 v 0.05 0.1 l 0.05,0.05 v 0.05 l 0.05,0.05 v 0.1 0.1 l 0.05,0.1 v 0.1 0.1 0.1 0.1 0.1 l 0.05,0.1 v 0.1 0.1 l 0.05,0.05 v 0.1 0.1 0.1 0.1 l 0.05,0.05 v 0.05 0.1 0.1 0.1 0.1 0.1 0.1 0.1 0.15 0.1 0.1 0.1 0.1 0.1 0.1 0.1 0.1 0.1 0.1 0.1 0.15 0.1 0.1 0.1 0.1 0.1 0.1 0.1 0.1 0.1 0.1 0.1 0.15 0.1 0.1 0.1 0.1 0.1 0.1 0.1 0.1 0.1 0.1 0.1 0.15 0.1 0.1 0.1 0.1 0.1 0.1 0.1 0.1 0.1 0.1 0.1 0.15 0.1 0.1 0.1 0.1 0.1 0.1 0.1 0.1 0.1 0.1 0.1 0.1 0.1 0.15 0.1 0.1 0.1 0.1 0.1 0.1 0.1 0.1 0.1 0.1 0.1 0.15 0.1 0.1 0.1 l 0.05,0.05 v 0.05 0.1 0.1 0.1 0.1 0.1 0.1 0.1 0.05 l -0.05,0.05 v 0.05 0.1 0.1 l 0.05,0.1 v 0.1 0.1 0.1 0.1 0.1 0.1 0.1 0.1 0.15 0.1 0.1 0.1 0.1 0.1 0.05 l -0.05,0.05 v 0.1 0.05 l -0.05,0.05 v 0.1 l -0.05,0.05 -0.05,0.05 v 0.1 l -0.05,0.05 -0.05,0.05 -0.05,0.05 -0.05,0.1 -0.05,0.05 -0.1,0.05 -0.05,0.1 -0.1,0.05 -0.1,0.05 -0.1,0.1 -0.2,0.05 -0.1,0.05 -0.1,0.1 -0.15,0.05 -0.15,0.05 -0.15,0.1 -0.1,0.05 -0.2,0.05 -0.15,0.05 v 0.05 h -0.25 l -0.2,0.05 -0.15,0.05 h -0.2 l -0.35,0.05 H 63.15 62.5 L 62.2,28 H 60.35 L 59,28.05 H 58.5 57.65 57 56.9 56.4 56.3 55.85 55.55 l -0.8,0.05 H 54.5 l -0.2,0.05 H 54.2 54 v 0.05 h -1.3 l 0.2,0.25 2.25,1.95 2.4,2.25 1.4,1.1 3.5,3.15 0.05,0.15 -0.2,0.05 -3.6,-1.55 -7.1,-3.75 -0.3,2.25 -0.25,3.15 -0.15,1.85 q -0.2,1 -0.85,1.4 -0.55,0.4 -1.3,0.25 l -1.1,-0.7 -0.1,-0.2 q -0.55,0.5 -1.4,0.6 -1.1,0.1 -1.8,-0.55 L 43.75,39.35 43,39.2 h -1.3 l -1.55,-0.2 -1.2,-0.6 -1.3,-0.6 q -0.7,-0.45 -0.9,-1 -1.05,1.8 -3.05,2.05 -1.95,0.25 -3.45,-1.25 -0.4,0.85 -1.25,1.35 -0.85,0.5 -1.8,0.45 h -0.1 v 0.1 l -0.6,0.85 -1.05,0.2 -0.55,-0.2 q -0.6,-0.1 -1.05,-0.8 -0.35,-0.6 -0.45,-1.65 l -0.6,-5.25 -0.2,-2.25 -0.45,0.25 -9.25,4.9 -3.6,1.55 -0.2,-0.05 0.05,-0.15 3.5,-3.15 1.4,-1.1 2.4,-2.25 2.25,-1.95 0.35,-0.35 h -0.1 l -1.1,-0.05 H 17.4 16.7 16.05 15.2 14.7 14.65 L 13.35,28 H 11.5 l -0.3,-0.05 h -0.65 -0.4 L 9.8,27.9 H 9.6 L 9.45,27.85 9.25,27.8 H 9 V 27.75 L 8.85,27.7 8.65,27.65 8.55,27.6 8.4,27.5 8.25,27.45 8.1,27.4 8,27.3 7.9,27.25 7.7,27.2 7.6,27.1 7.5,27.05 7.4,27 7.35,26.9 7.25,26.85 7.2,26.8 7.15,26.7 7.1,26.65 7.05,26.6 7,26.55 v -0.1 L 6.95,26.4 6.9,26.35 v -0.1 L 6.85,26.2 v -0.05 -0.1 L 6.8,26 v -0.05 -0.1 -0.1 -0.1 -0.1 -0.1 V 25.3 25.2 25.1 25 24.9 24.8 24.7 24.6 24.5 L 6.85,24.4 V 24.3 24.2 24.15 L 6.8,24.1 v -0.05 -0.1 -0.1 -0.1 -0.1 -0.1 -0.1 -0.1 -0.05 l 0.05,-0.05 v -0.1 -0.1 -0.1 -0.15 -0.1 -0.1 -0.1 -0.1 -0.1 -0.1 -0.1 -0.1 -0.1 -0.1 -0.1 -0.15 -0.1 -0.1 -0.1 -0.1 -0.1 -0.1 -0.1 -0.1 -0.1 -0.1 -0.1 -0.1 -0.1 V 20.1 20 19.9 19.8 19.7 19.6 19.5 19.4 19.3 19.2 19.1 19 v -0.15 -0.1 -0.1 -0.1 -0.1 -0.1 -0.1 -0.1 -0.1 -0.1 -0.1 -0.1 -0.15 -0.1 -0.1 -0.1 -0.1 -0.1 -0.1 -0.1 -0.1 -0.1 -0.1 -0.1 -0.15 -0.1 -0.1 -0.1 -0.1 -0.1 -0.1 -0.1 -0.1 -0.1 -0.1 -0.1 V 15.1 15 14.9 14.8 14.7 14.6 14.5 14.4 14.35 L 6.9,14.3 V 14.2 14.1 14 13.9 l 0.05,-0.05 v -0.1 -0.1 L 7,13.55 v -0.1 -0.1 -0.1 -0.1 -0.1 l 0.05,-0.1 v -0.1 -0.1 L 7.1,12.7 V 12.65 L 7.15,12.6 V 12.5 12.45 L 7.2,12.4 7.25,12.3 V 12.25 L 7.3,12.2 7.35,12.1 7.4,12.05 7.45,12 7.5,11.9 7.55,11.85 7.6,11.8 V 11.7 L 7.65,11.65 7.7,11.6 7.75,11.5 7.8,11.45 7.9,11.35 8,11.25 8.05,11.2 8.15,11.15 8.25,11.05 8.4,11 8.5,10.95 h 0.05 l 0.1,-0.05 h 0.1 l 0.1,-0.05 H 9.1 13.25 V 10.8 h 0.5 l 2.45,0.05 h 0.25 0.2 0.05 0.25 0.25 l 0.3,-0.05 h 0.2 0.05 l -0.1,-0.05 h 0.05 0.5 0.15 0.05 0.65 0.1 0.35 0.2 l 0.65,-0.05 h 0.5 0.2 0.9 0.1 L 21.7,10.35 19.45,8.4 17.05,6.15 15.65,5.05 12.15,1.9 12.1,1.75 12.3,1.7 15.9,3.25 25.15,8.15 25.6,8.4 25.8,6.15 25.9,6.3 V 6.15 6.05 5.95 5.85 L 25.95,5.8 V 5.75 5.65 5.55 5.45 5.35 5.25 5.15 5.05 4.9 4.8 4.7 4.6 4.5 4.4 4.3 4.2 4.1 4 3.9 L 26,3.8 V 3.65 3.55 3.45 3.35 3.25 l 0.05,-0.1 V 3.05 2.95 2.85 2.75 2.65 2.55 2.4 2.3 2.2 2.1 2 1.9 1.8 1.7 1.6 1.5 1.4 1.3 1.15 l 0.05,-0.1 v -0.1 l 0.05,-0.1 v -0.1 -0.1 -0.1 -0.1 -0.1 -0.1 -0.1 -0.1 -0.1 L 26.2,-0.1 v -0.1 l 0.05,-0.05 V -0.3 L 26.3,-0.4 M 63.7,19.45 Q 63.8,17.1 62.95,15.95 62.3,15 60.65,14.35 l -5.9,-0.2 q -1.1,0.35 -1.85,0.95 -0.9,0.75 -1,1.75 -0.1,1.25 0.9,1.75 -0.5,1.6 0.1,3 0.55,1.55 2.1,2.1 l 1.6,0.25 3.4,-0.4 q 1.8,-0.65 2.85,-1.9 L 63.5,20.6 63.7,19.45 M 44,9.1 43.85,9.15 43.75,9.2 H 43.7 l -0.1,0.05 1,0.6 V 9.8 9.7 9.55 9.45 9.35 9.25 9.15 9.05 L 44.65,9 V 8.9 L 44.55,8.95 44.4,9 H 44.3 L 44.15,9.05 44,9.1 m 3.05,11.45 q -0.7,-2.9 -2.35,-4.75 -1.1,-1.2 -3,-2.35 -1.55,-0.85 -2.55,-1.15 -3.3,-0.9 -6.55,1 -2.8,1.75 -4.35,5.05 -1.25,2.65 -1.7,6.25 0.55,-0.15 1.05,0 1.35,0.4 1.75,1.75 l 1.45,0.15 1.1,0.95 q 0.7,0.95 1,2.8 0.35,2.15 0.65,2.9 l 1.5,-2.7 v -0.1 q 0.1,-0.4 0.35,-0.55 l 0.1,-0.2 q 0.9,-1.7 1.85,-2.1 l 1.35,-0.25 1.25,-0.45 0.65,-0.8 0.7,-0.8 1.15,-0.45 0.8,-0.7 0.7,-0.8 q 0.7,-0.55 2.3,-0.55 l 1.2,0.2 -0.4,-2.35 M 29.7,9.1 29.55,9.05 29.4,9 H 29.3 L 29.15,8.95 29.05,8.9 V 9 l 0.05,0.05 v 0.1 0.1 0.1 0.1 0.1 0.15 0.1 0.1 0.1 0.1 L 30.25,9.3 H 30.2 V 9.25 H 30.1 L 30,9.2 H 29.95 L 29.85,9.15 29.7,9.1 m -5.05,5.4 -0.4,1.55 -0.3,1.55 q 0.65,-1.8 1.6,-3.4 h -0.3 -0.55 l -0.05,0.3 m -8.8,4.95 -0.25,0.15 -0.3,-0.2 0.55,0.05 m -2.15,-0.75 0.55,0.15 0.35,0.3 -0.9,-0.45 m 7.25,-0.2 V 17.65 L 20.7,16.7 20.1,15.5 Q 19.35,14.35 17.85,14.1 16.5,13.85 15.3,14.65 L 15.1,14.8 Q 13.3,13.75 11.8,14.3 L 10.6,15 10.45,15.05 9.9,15.6 q -0.65,0.65 -0.95,1.25 -0.2,0.4 -0.3,1.75 v 0.8 l 0.2,0.75 q 0.6,1.6 1.85,2.35 l 1.2,0.6 1.7,0.6 1.15,0.25 0.9,-0.3 1.95,-0.95 1.75,-1 q 1,-0.7 1.3,-1.55 l 0.3,-1.65"
         fill="#999999"
         fill-rule="evenodd"
         stroke="none"
         id="path9" />
      <path
         d="m 59.95,20.15 0.15,-0.6 -0.05,-1.5 q -0.2,-0.9 -1,-1.2 l -0.65,-0.1 q -1.3,-0.2 -2.2,0 -0.65,0.1 -1.1,0.45 l -1,0.45 q -0.4,0 -0.7,-0.3 -0.3,-0.3 -0.3,-0.6 0.05,-0.65 0.85,-1.15 1.85,-1.35 4.55,-0.9 2.35,0.3 3.4,1.8 0.75,0.95 0.65,2.7 l -0.1,0.85 -0.7,1.25 -0.35,0.45 -0.55,0.3 -0.85,0.5 -1.5,0.45 -3,-0.2 q -1.65,-0.55 -1.8,-1.85 l 0.05,-0.7 q 0.3,-1.3 0.95,-1.9 0.6,-0.55 1.45,-0.75 l 1.95,0.15 q 0.95,0.45 1.05,1.3 0.1,0.45 -0.3,0.8 -0.4,0.4 -0.9,0.2 l -0.45,-0.25 -0.4,-0.35 -0.4,0.2 -0.15,0.4 0.05,0.4 0.6,0.25 2.25,-0.15 0.5,-0.4 m -32.25,6.9 q -2.5,-1.3 -3.25,-3.95 -0.75,-2.7 -0.7,-3.9 l 0.35,-2.9 -0.35,-0.65 -0.6,-1.5 -0.3,-1.25 q -0.55,-1.8 -0.3,-2.6 0.25,-1 1.2,-1.3 l 1,-0.2 3.55,-0.15 3.6,-1.3 4.8,-0.6 4.65,0.45 q 1.2,0.4 3.05,1.45 l 3.55,0.15 1,0.2 q 0.95,0.3 1.2,1.3 0.25,0.8 -0.3,2.6 l -0.3,1.25 -0.6,1.5 -0.35,0.65 0.35,2.9 q 0.05,1.2 -0.7,3.9 -0.75,2.65 -3.25,3.95 -2.5,1.3 -1.95,1.1 l 1.5,0.45 3.15,0.2 1.5,-0.55 2.5,-1.25 v -0.05 l 0.4,-0.85 q 0.8,-1.15 2.35,-1.6 l 2.9,-0.25 q 3.35,0.1 5.05,1.55 l 0.9,1.15 0.25,1.2 -0.15,1.2 -0.8,1.15 q -0.85,0.85 -2.45,1.2 l -2.8,0.15 -1.95,-0.1 -0.25,0.15 -1.6,0.75 -1.55,0.4 -2.1,0.35 q -3,0.3 -6.3,-1.2 l 0.65,1.35 0.8,2.6 0.8,2.45 q 0.35,1.45 -0.3,2.55 -0.65,1.2 -2.1,1.2 -1.35,0.1 -2.1,-1.15 Q 41,40.7 40.8,39.8 l -0.05,0.05 -0.9,0.5 L 39,41 q -0.65,0.45 -1.45,0.35 l -1.2,-0.55 q -0.5,0.4 -1.2,0.55 -0.8,0.1 -1.45,-0.35 l -0.85,-0.65 -0.9,-0.5 -0.05,-0.05 -0.55,1.4 q -0.75,1.25 -2.1,1.15 -1.45,0 -2.1,-1.2 -0.65,-1.1 -0.3,-2.55 l 0.8,-2.45 0.8,-2.6 0.65,-1.35 q -3.3,1.5 -6.3,1.2 l -2.1,-0.35 -1.55,-0.4 -1.6,-0.75 -0.25,-0.15 -1.95,0.1 -2.8,-0.15 Q 10.95,31.35 10.1,30.5 9.5,30 9.3,29.35 l -0.15,-1.2 0.25,-1.2 q 0.15,-0.5 0.9,-1.15 1.7,-1.45 5.05,-1.55 l 2.9,0.25 q 1.55,0.45 2.35,1.6 L 21,26.95 V 27 l 2.5,1.25 1.5,0.55 3.15,-0.2 1.5,-0.45 -1.95,-1.1 m 10,-3.65 0.05,0.05 v 0.1 l 0.05,0.05 v 0.05 l 0.05,0.05 0.05,0.05 v 0.05 l 0.05,0.1 0.1,0.05 0.05,0.05 0.1,0.05 0.1,0.05 0.1,0.05 h 0.05 l 0.1,0.05 0.1,0.05 h 0.55 l 0.1,-0.05 h 0.1 0.35 0.45 l 0.5,-0.05 h 0.45 0.1 0.85 0.75 0.55 0.2 0.9 l 0.2,0.05 0.2,-0.05 h 0.15 l 0.1,-0.1 0.15,-0.05 0.2,-0.2 0.05,-0.1 0.1,-0.1 V 23.55 L 45.7,23.5 v -0.05 -0.1 L 45.75,23.3 V 23.1 L 45.7,23 V 22.9 L 45.65,22.85 V 22.8 L 45.6,22.75 45.55,22.65 45.45,22.55 45.4,22.5 45.3,22.4 45.15,22.3 45.05,22.25 44.9,22.2 h -0.2 -0.2 l -0.05,0.05 H 44.4 43.75 43.35 42.9 42.35 l -0.9,0.35 -3.45,0.7 -0.3,0.05 v 0.05 m -2.85,0.15 V 23.5 L 31,22.6 30.15,22.25 H 29.7 29.25 28.85 28.2 28.15 L 28.1,22.2 h -0.2 -0.2 l -0.15,0.05 -0.1,0.05 -0.15,0.1 -0.1,0.1 -0.05,0.05 -0.1,0.1 -0.05,0.1 -0.05,0.05 v 0.05 L 26.9,22.9 V 23 l -0.05,0.1 v 0.2 l 0.05,0.05 v 0.1 0.05 l 0.05,0.05 v 0.05 l 0.1,0.1 0.05,0.1 0.2,0.2 0.15,0.05 0.1,0.1 h 0.15 l 0.2,0.05 0.2,-0.05 h 0.9 0.2 0.55 0.75 0.85 0.1 0.45 l 0.5,0.05 h 0.45 0.35 0.1 l 0.1,0.05 h 0.55 l 0.1,-0.05 0.1,-0.05 h 0.05 l 0.1,-0.05 0.1,-0.05 0.1,-0.05 0.05,-0.05 0.1,-0.05 0.05,-0.1 V 23.75 L 34.75,23.7 34.8,23.65 V 23.6 l 0.05,-0.05 m -19.1,-1.15 -1.1,0.55 -1,-0.1 -0.5,-0.3 -0.6,-0.2 -1.5,-0.8 -0.6,-0.4 Q 9.35,20.2 9.5,18.75 l 0.2,-0.9 q 0.4,-0.85 1.15,-1.5 l 0.6,-0.45 0.75,-0.2 1.8,0.1 0.55,0.45 0.3,0.35 q 0.75,-0.85 1.45,-1 l 0.65,-0.1 h 0.65 q 0.45,0.1 1.05,0.55 l 0.55,0.5 0.35,0.55 0.25,0.7 V 19 l -0.15,0.65 -0.4,0.55 -1.85,1.4 -1.65,0.8"
         fill="#000000"
         fill-rule="evenodd"
         stroke="none"
         id="path10" />
      <path
         d="m 37.7,23.4 v -0.05 l 0.3,-0.05 3.45,-0.7 0.9,-0.35 h 0.55 0.45 0.4 0.65 0.05 L 44.5,22.2 h 0.2 0.2 l 0.15,0.05 0.1,0.05 0.15,0.1 0.1,0.1 0.05,0.05 0.1,0.1 0.05,0.1 0.05,0.05 v 0.05 L 45.7,22.9 V 23 l 0.05,0.1 v 0.2 l -0.05,0.05 v 0.1 0.05 l -0.05,0.05 v 0.05 l -0.1,0.1 -0.05,0.1 -0.2,0.2 -0.15,0.05 -0.1,0.1 H 44.9 L 44.7,24.2 44.5,24.15 H 43.6 43.4 42.85 42.1 41.25 41.15 40.7 L 40.2,24.2 H 39.75 39.4 39.3 l -0.1,0.05 h -0.55 l -0.1,-0.05 -0.1,-0.05 H 38.4 L 38.3,24.1 38.2,24.05 38.1,24 38.05,23.95 37.95,23.9 37.9,23.8 V 23.75 L 37.85,23.7 37.8,23.65 V 23.6 l -0.05,-0.05 v -0.1 L 37.7,23.4 m -2.85,0.15 -0.05,0.05 v 0.05 l -0.05,0.05 -0.05,0.05 v 0.05 l -0.05,0.1 -0.1,0.05 -0.05,0.05 -0.1,0.05 -0.1,0.05 -0.1,0.05 h -0.05 l -0.1,0.05 -0.1,0.05 H 33.4 L 33.3,24.2 H 33.2 32.85 32.4 L 31.9,24.15 H 31.45 31.35 30.5 29.75 29.2 29 28.1 L 27.9,24.2 27.7,24.15 H 27.55 L 27.45,24.05 27.3,24 27.1,23.8 27.05,23.7 26.95,23.6 V 23.55 L 26.9,23.5 v -0.05 -0.1 L 26.85,23.3 V 23.1 L 26.9,23 v -0.1 l 0.05,-0.05 V 22.8 l 0.05,-0.05 0.05,-0.1 0.1,-0.1 0.05,-0.05 0.1,-0.1 0.15,-0.1 0.1,-0.05 0.15,-0.05 h 0.2 0.2 l 0.05,0.05 h 0.05 0.65 0.4 0.45 0.45 l 0.85,0.35 3.85,0.9 v 0.05"
         fill="#ffffff"
         fill-rule="evenodd"
         stroke="none"
         id="path11" />
    </g>
    <g
       id="shape2"
       transform="translate(2,2.05)">
      <path
         d="M -0.5,-0.4 V -0.55 H 75.1 V -0.4 40.8 H -0.5 Z"
         fill="none"
         stroke="#000000"
         stroke-linecap="round"
         stroke-linejoin="round"
         stroke-width="3"
         id="path12" />
    </g>
  </defs>
</svg>
