<?xml version="1.0" encoding="UTF-8" standalone="no"?>
<svg
   ffdec:objectType="frame"
   height="60.549999"
   width="67.099998"
   version="1.1"
   id="svg9"
   sodipodi:docname="693.svg"
   xmlns:inkscape="http://www.inkscape.org/namespaces/inkscape"
   xmlns:sodipodi="http://sodipodi.sourceforge.net/DTD/sodipodi-0.dtd"
   xmlns:xlink="http://www.w3.org/1999/xlink"
   xmlns="http://www.w3.org/2000/svg"
   xmlns:svg="http://www.w3.org/2000/svg"
   xmlns:ffdec="https://www.free-decompiler.com/flash">
  <sodipodi:namedview
     id="namedview9"
     pagecolor="#ffffff"
     bordercolor="#000000"
     borderopacity="0.25"
     inkscape:showpageshadow="2"
     inkscape:pageopacity="0.0"
     inkscape:pagecheckerboard="0"
     inkscape:deskcolor="#d1d1d1"
     fit-margin-top="5"
     fit-margin-left="5"
     fit-margin-right="5"
     fit-margin-bottom="5" />
  <g
     transform="translate(1.5,1.5)"
     id="g3">
    <use
       ffdec:characterId="516"
       height="57.549999"
       width="64.099998"
       xlink:href="#shape0"
       id="use1" />
    <use
       ffdec:characterId="1183"
       height="59"
       transform="translate(-0.75,-1.4)"
       width="65.550003"
       xlink:href="#shape1"
       id="use2" />
    <use
       ffdec:characterId="518"
       height="60.549999"
       transform="translate(-1.5,-1.5)"
       width="67.099998"
       xlink:href="#shape2"
       id="use3" />
  </g>
  <defs
     id="defs9">
    <g
       id="shape0">
      <path
         d="M 53.6,0 H 64.1 V 57.55 H 53.6 28.25 0 V 0 H 28.25 53.6 V 57.55 0 M 28.25,0 V 57.55 0"
         fill="#ffffff"
         fill-rule="evenodd"
         stroke="none"
         id="path3" />
    </g>
    <g
       id="shape1"
       transform="translate(0.75,1.4)">
      <path
         d="m 63.7,49.5 v 0.05 0.1 0.1 0.05 l -0.05,0.1 v 0.05 0.1 0.05 0.1 0.05 0.1 0.1 0.05 0.1 0.05 0.1 0.05 0.1 0.05 0.1 0.1 0.05 0.1 0.05 0.1 l 0.05,0.05 v 0.1 0.05 0.1 0.1 0.05 0.1 0.05 0.1 0.05 0.1 0.05 0.1 0.05 0.1 0.1 0.05 0.1 0.05 0.1 0.05 0.1 0.05 0.1 0.1 0.05 0.1 0.05 0.1 l 0.2,1.15 -0.1,0.45 v 0.1 0.05 0.1 0.1 0.1 l 0.05,0.1 V 55.9 L 63.9,56 v 0.05 l 0.05,0.1 v 0.05 0.1 0.1 0.05 0.1 L 63.9,56.6 v 0.1 l -0.05,0.05 v 0.1 l -0.05,0.05 -0.05,0.1 -0.05,0.1 -0.05,0.05 -0.1,0.1 -0.1,0.05 -0.1,0.1 -0.15,0.05 -0.1,0.05 -0.1,0.05 H 62.75 62.6 62.15 60.4 59.25 L 57.3,57.6 H 54.9 54.3 49.2 L 48.4,57.55 H 46.65 L 45.85,57.5 H 45.6 L 45.3,57.45 H 44.85 L 39.65,57.4 H 38.6 l -0.8,-0.05 h -2.45 l -2.6,-0.05 h -1 -5.15 -6.55 l -1.9,0.2 -1.6,-0.25 h -0.6 l -1.3,-0.05 h -1.8 L 11.4,57.15 H 10.25 L 5.5,57.1 H 3.8 3.75 3.6 L 3.05,57.05 H 2.75 L 2.35,57 H 2.2 l -0.25,0.2 q -0.5,0.35 -1.05,0.3 -0.55,0 -1,-0.4 -0.5,-0.35 -0.6,-0.9 v -0.9 l 0.3,-2.55 0.25,-0.8 0.5,-1 q -0.6,-0.8 -0.1,-1.5 L 0.05,48.75 -0.2,48.3 q -0.3,-0.65 0,-1.2 0.35,-0.55 0.9,-0.55 -0.65,-2 -0.95,-4.1 -0.6,-4.3 0.35,-8.4 l 0.7,-3.3 q 0.3,-2.25 -0.55,-6 -1,-4.3 -1,-6 -0.05,-2.2 0.6,-4.15 0.55,-1.65 1.55,-3.1 -0.35,5.75 1,11.5 l 0.8,3.45 q 0.55,3.3 -0.25,6.3 l -0.75,2.8 q -0.65,2.7 -0.4,5.8 l 0.35,2.45 0.8,3.15 Q 3.25,44.1 4.15,42.4 L 6.5,39.1 Q 7.7,37.05 7.6,34.8 L 7.35,32.7 7.25,30.6 Q 7.4,28.75 8.65,27.35 8.9,27.1 9.05,27.1 l 0.3,0.15 0.15,0.3 -0.2,0.75 -0.05,0.15 0.2,0.35 2.45,3.05 1.25,2.05 0.9,1.85 q 0.65,1.85 0.55,3.75 1.55,-3.35 0.5,-8.55 L 13.85,25.85 13.1,22.65 12.85,20.7 V 20.4 Q 12.65,15.9 14.8,11.7 17.05,7.35 21.05,4.95 22.65,4 24,3.85 l 0.45,0.1 0.5,0.25 0.1,0.2 v 0.05 0.6 l -0.4,0.5 -0.15,0.1 Q 23.05,7 22.65,9.6 v 0.5 q 0.1,1.45 0.75,1.9 l 0.8,0.4 h 0.15 l 1,0.1 q 3.1,0.2 5.25,2.95 1.85,2.4 2.2,5.75 1.25,-1.8 1.6,-3.9 -0.95,-2.95 -0.45,-4.85 l 0.15,-0.5 q -0.35,-2.15 -0.3,-3.3 0.1,-2 1,-3.85 0.9,-1.85 2.45,-3.15 0.95,-0.7 1.7,-1.05 L 39.2,0.5 39.8,0.4 41.9,0.25 42.7,-0.8 q 0.8,-0.95 1.45,-0.45 0.45,0.25 0.35,1.05 l -0.05,0.25 -0.5,1.25 -0.7,1.45 q -0.55,1.9 1,4.2 l 1.4,1.75 1.35,1.8 1.25,2.8 0.9,3.35 q 0.6,2.95 0.55,6.05 l -0.05,1.4 -0.3,2.9 0.85,-1.05 1,-1.95 0.1,-0.65 -0.05,-1.4 -0.4,-2.1 q -0.3,-2.05 0.3,-4.1 0.2,-0.75 0.55,-1.45 0.55,-1.15 1.35,-2.15 0.45,-0.55 0.9,-0.6 L 54.2,11.5 q 0.7,0.1 0.8,0.95 l -0.1,1.35 v 1.1 q 0.1,1.2 0.7,2.65 l 1.05,2.5 0.5,1.1 0.45,1.4 0.3,1.6 -0.05,3.05 Q 57.6,29 55.95,33.55 L 55.9,33.6 q -1.25,3.35 -1.35,5.6 l -0.05,0.2 v 0.1 l 0.05,-0.1 v -0.1 q 0.5,-1.9 1.55,-3.7 l 0.3,-0.5 0.9,-1.2 0.15,-0.15 0.6,-0.6 1.7,-1.05 q 0.3,-0.15 0.55,-0.2 l 0.6,-0.05 q 0.75,0 1,0.65 0.15,0.45 -0.25,1 l -0.7,0.85 q -0.85,1.1 -0.95,2.7 -0.05,1.05 0.25,2.95 0.25,1.65 0.65,2.75 l 1,2.2 1.15,2.9 0.35,1.1 0.05,0.1 0.05,0.05 0.05,0.1 0.05,0.05 0.05,0.1 v 0.05 l 0.05,0.1 M 27.6,0.7 q 0.15,-0.25 0.45,-0.4 l 0.8,-0.1 1.7,0.25 0.25,-0.3 0.55,-0.1 h 0.1 Q 31.8,0.15 32,0.4 l 0.3,0.75 0.35,1.65 -0.1,1 -0.2,0.75 L 31.5,6.15 29.45,9 29.4,9.2 q -0.3,0.65 -0.3,2 v 0.05 L 29,11.65 28.6,11.9 Q 28.3,11.8 28.3,11.3 V 11.2 10.5 L 27.95,9.75 27.8,9.05 27.7,7.2 28.2,5.15 28.4,4.4 28.45,3.55 28.2,2.75 27.9,2.3 27.6,1.95 q -0.15,-0.2 -0.15,-0.6 0,-0.4 0.15,-0.65 M 57.2,12 57.25,11.85 57.35,11.65 58.2,9.45 58.25,9.4 58.8,7.9 Q 58.9,6.8 57.95,5.25 L 57.6,4.5 V 3.9 l 0.1,-0.25 q 0.3,-0.5 1.05,-0.3 0.35,0.1 0.95,0.6 l 1.8,2.6 0.45,0.95 0.2,1.1 q 0.2,1.85 -0.05,2.7 l -1.35,2.3 q -1,1.45 -1.2,2.35 l -0.2,1 -0.15,0.45 -0.25,0.35 -0.7,0.25 q -0.45,-0.05 -0.7,-0.35 l -0.1,-0.1 -0.3,-1.15 -0.2,-3.6 0.25,-0.8 m -45.85,8.75 q 0.4,1.4 0.2,3.5 l -0.05,0.45 -0.2,0.55 q -0.25,0.5 -0.8,0.6 -0.3,-0.1 -0.5,-0.6 L 9.95,24.5 9.5,22.85 8.35,21.1 7.1,19.35 q -1.2,-2.25 -0.65,-5 0.4,-2.3 2.1,-4.65 l 0.75,-1 0.8,-0.6 0.6,0.1 0.4,0.45 -0.25,1.1 -1.4,3.35 q -0.3,1.05 -0.15,2.15 l 0.15,1 1,2.4 0.25,0.5 0.65,1.6"
         fill="#000000"
         fill-rule="evenodd"
         stroke="none"
         id="path4" />
      <path
         d="M 44.45,0.05 44.8,0 q 1.1,0 1.2,0.85 l -0.25,0.7 -0.45,0.7 q -0.55,1 0.2,2.25 l 1.6,1.75 q 2.45,2.4 3.85,5.85 L 52.45,9.05 53.05,7.5 53,6.35 52.9,5.05 q -0.55,-1.2 -0.5,-2.6 0.1,-1.9 1.4,-3.1 0.95,-0.85 1.65,-0.4 Q 56.2,-0.6 55.8,0.5 55.3,1.55 55.25,2.1 55.1,3 56,4.35 l 0.85,1.5 H 57 l 0.1,-0.1 h 0.1 l -0.55,-2 0.05,-1.95 q 0.1,-0.85 0.4,-1.35 0.35,-0.5 1.05,-0.6 h 0.05 l 0.65,-0.05 q 0.7,0.15 1.1,1.1 l 0.5,1.55 1.25,1.75 q 1.4,1.7 1.7,4 0.35,2.3 -0.5,4.35 l -1.7,3.15 q -1.15,1.95 -1.4,3.3 v 0.25 q 0.3,1.65 0.25,3.5 -0.15,2.6 -1.65,7.5 l -0.3,1.05 0.6,-0.55 0.8,-1.3 0.85,-1.65 q 0.55,-1.25 0.85,-3.95 0.35,-2.7 0.85,-3.95 0.8,-1.75 2.15,-2.75 0.75,0.9 0.6,1.95 l -0.75,2.15 -0.2,0.55 0.35,0.4 0.4,1.25 q 0.3,2.15 0.05,4.5 -0.15,1.7 -0.7,3.35 l -0.35,1.35 q -0.15,0.65 -0.15,2 0,7.05 0.85,10.75 l 0.35,1.95 q 0.05,1.1 -0.5,1.75 l -0.45,0.4 -0.05,-0.1 v -0.05 l -0.05,-0.1 -0.05,-0.05 -0.05,-0.1 -0.05,-0.05 -0.05,-0.1 -0.35,-1.1 -1.15,-2.9 -1,-2.2 Q 60.5,41.65 60.25,40 59.95,38.1 60,37.05 q 0.1,-1.6 0.95,-2.7 l 0.7,-0.85 q 0.4,-0.55 0.25,-1 -0.25,-0.65 -1,-0.65 l -0.6,0.05 q -0.25,0.05 -0.55,0.2 l -1.7,1.05 -0.6,0.6 -0.15,0.15 -0.9,1.2 -0.3,0.5 q -1.05,1.8 -1.55,3.7 v 0.1 l -0.05,0.1 v -0.1 l 0.05,-0.2 q 0.1,-2.25 1.35,-5.6 l 0.05,-0.05 Q 57.6,29 57.85,27.2 l 0.05,-3.05 -0.3,-1.6 -0.45,-1.4 -0.5,-1.1 -1.05,-2.5 Q 55,16.1 54.9,14.9 V 13.8 L 55,12.45 Q 54.9,11.6 54.2,11.5 l -0.25,0.05 q -0.45,0.05 -0.9,0.6 -0.8,1 -1.35,2.15 -0.35,0.7 -0.55,1.45 -0.6,2.05 -0.3,4.1 l 0.4,2.1 0.05,1.4 -0.1,0.65 -1,1.95 -0.85,1.05 0.3,-2.9 0.05,-1.4 q 0.05,-3.1 -0.55,-6.05 L 48.25,13.3 47,10.5 45.65,8.7 44.25,6.95 q -1.55,-2.3 -1,-4.2 l 0.7,-1.45 0.5,-1.25 M -0.15,14.6 -0.2,14.15 -0.4,8 Q -0.25,4.55 0.7,2.05 1.2,0.9 1.75,0.45 2.15,0.15 2.65,0.1 L 3.5,0.4 Q 4.15,0.95 3.75,2.1 L 2.9,3.65 Q 2.15,5.05 2.25,8 q 0.2,6.25 1.7,12.8 l 1.2,5.7 q 0.5,3.25 -0.2,5.65 L 4.3,34.15 3.7,36.1 3.6,38.4 4.15,37.65 5.2,35.9 q 0.45,-1.2 0.2,-4.1 -0.25,-2.7 0.35,-4 1,-1.4 1.25,-2.2 0.35,-1 0,-2.3 L 6.15,21 Q 4.1,15.85 5.9,12.45 L 6.9,10.9 8,9.45 q 1.25,-2 0.85,-3.5 L 8.25,4.3 Q 8.05,3.15 8.75,2.8 9.4,2.45 10.05,3 l 0.8,1.15 q 1.6,3 1.65,4.7 0.05,1.15 -0.5,3.35 -0.55,2.25 -0.55,3.35 V 15.6 L 12,13.95 Q 13.05,11.1 13.75,9.8 14.9,7.55 16.35,6.2 17.8,4.85 20.5,3.7 22.95,2.8 23.5,1.55 L 24,0.35 Q 24.3,0 24.85,-0.1 l 0.95,0.2 0.5,0.45 0.5,-0.15 q 0.3,0 0.8,0.3 -0.15,0.25 -0.15,0.65 0,0.4 0.15,0.6 l 0.3,0.35 0.3,0.45 0.25,0.8 -0.05,0.85 -0.2,0.75 -0.5,2.05 0.1,1.85 0.15,0.7 0.35,0.75 v 0.7 0.1 q 0,0.5 0.3,0.6 l 0.4,-0.25 0.1,-0.4 V 11.2 q 0,-1.35 0.3,-2 L 29.45,9 31.5,6.15 32.35,4.55 32.55,3.8 32.65,2.8 32.3,1.15 32,0.4 Q 31.8,0.15 31.45,0.05 h -0.1 L 32.1,0.1 q 0.75,0.35 1.05,1 l 0.2,1 0.25,1.55 0.85,-1.1 1.8,-1.7 q 0.95,-0.65 1.65,-0.6 0.6,0 1.05,0.35 -0.75,0.35 -1.7,1.05 -1.55,1.3 -2.45,3.15 -0.9,1.85 -1,3.85 -0.05,1.15 0.3,3.3 l -0.15,0.5 Q 33.6,12.5 33.2,12.15 L 32.55,11 32.5,10.85 32.45,10.9 31.1,11.05 q -0.65,-0.1 -0.9,-0.45 l -0.25,0.2 -0.2,0.95 q -0.5,0.9 -1.55,0.65 L 27.1,11.65 26.35,10.75 26.1,10.05 25.7,8.6 Q 25.5,7.45 26.15,5.45 H 26 l -0.1,0.2 Q 24.8,8.25 25,9.55 L 25.2,11.5 24.55,12.25 24.2,12.4 23.4,12 Q 22.75,11.55 22.65,10.1 V 9.6 Q 23.05,7 24.5,5.65 l 0.15,-0.1 0.4,-0.5 V 4.45 4.4 L 24.95,4.2 24.45,3.95 24,3.85 q -1.35,0.15 -2.95,1.1 -4,2.4 -6.25,6.75 -2.15,4.2 -1.95,8.7 v 0.3 l 0.25,1.95 0.75,3.2 1.25,5.1 q 1.05,5.2 -0.5,8.55 0.1,-1.9 -0.55,-3.75 L 13.15,33.9 11.9,31.85 9.45,28.8 9.25,28.45 9.3,28.3 9.5,27.55 9.35,27.25 9.05,27.1 q -0.15,0 -0.4,0.25 -1.25,1.4 -1.4,3.25 l 0.1,2.1 0.25,2.1 q 0.1,2.25 -1.1,4.3 l -2.35,3.3 q -0.9,1.7 -1.2,4.55 L 2.15,43.8 1.8,41.35 q -0.25,-3.1 0.4,-5.8 l 0.75,-2.8 q 0.8,-3 0.25,-6.3 L 2.4,23 q -1.35,-5.75 -1,-11.5 -1,1.45 -1.55,3.1 M 57.2,12 l -0.25,0.8 0.2,3.6 0.3,1.15 0.1,0.1 q 0.25,0.3 0.7,0.35 l 0.7,-0.25 0.25,-0.35 0.15,-0.45 0.2,-1 q 0.2,-0.9 1.2,-2.35 l 1.35,-2.3 q 0.25,-0.85 0.05,-2.7 L 61.95,7.5 61.5,6.55 59.7,3.95 Q 59.1,3.45 58.75,3.35 58,3.15 57.7,3.65 L 57.6,3.9 v 0.6 l 0.35,0.75 Q 58.9,6.8 58.8,7.9 l -0.55,1.5 -0.05,0.05 -0.85,2.2 -0.1,0.2 L 57.2,12 m -7,-8 0.3,0.35 0.2,0.45 0.25,1.35 -0.1,0.95 -0.3,0.2 q -0.2,0 -0.3,-0.15 L 50.2,6.4 49.95,6.05 49.7,5.8 49.3,5.5 48.2,4.65 Q 47.5,3.95 47.25,3.25 47.1,2.8 47.1,1.85 V 0.95 L 47.15,0.55 47.4,0.1 q 0.55,-0.85 1.35,-0.7 0.8,0.15 0.8,1.15 L 49.45,1.45 49.5,2.7 49.65,3.2 50.2,4 M 16.8,0.2 17.25,0.7 q 0.25,0.75 -0.1,1.65 L 16.3,3.8 15.4,5.1 15.25,5.45 15.1,5.8 15,6.05 14.55,6.45 q -0.35,0 -0.5,-0.25 L 13.9,5.9 V 5.1 4.65 L 13.75,4.35 13.4,2.95 13.25,2.7 12.95,1.9 12.65,1.05 12.7,0.8 q 0.15,-0.75 0.95,-0.75 0.75,-0.1 1,0.65 l 0.1,0.3 0.2,0.1 0.2,-0.15 Q 15.4,0.6 15.6,0.55 L 16.2,0.5 q 0.2,-0.4 0.6,-0.3 m -5.45,20.55 -0.65,-1.6 -0.25,-0.5 -1,-2.4 -0.15,-1 Q 9.15,14.15 9.45,13.1 L 10.85,9.75 11.1,8.65 10.7,8.2 10.1,8.1 9.3,8.7 8.55,9.7 q -1.7,2.35 -2.1,4.65 -0.55,2.75 0.65,5 L 8.35,21.1 9.5,22.85 9.95,24.5 10,25.25 q 0.2,0.5 0.5,0.6 0.55,-0.1 0.8,-0.6 l 0.2,-0.55 0.05,-0.45 q 0.2,-2.1 -0.2,-3.5 M 3.6,11.15 3.5,10.3 Q 3.5,8.85 3.65,8.15 L 3.8,7.5 4.2,2.45 4.6,1.1 4.9,0.45 Q 5.2,0.1 5.7,0.1 L 6.45,0.65 6.5,1.7 Q 6.35,2.85 6.5,4 L 6.85,5.3 7,6.6 6.75,8.2 6.05,9.85 5.6,10.45 4.8,11.9 q -0.2,0.35 -0.3,1.25 l -0.05,0.4 -0.3,0.2 Q 3.9,13.7 3.8,13.3 3.55,12.25 3.65,11.8 L 3.7,11.45 3.6,11.15"
         fill="#999999"
         fill-rule="evenodd"
         stroke="none"
         id="path5" />
      <path
         d="m 37.95,37.95 0.85,-0.05 2.35,-0.5 0.45,-0.05 0.3,-0.05 q 0.45,0.1 0.5,0.85 0.35,2.25 0.15,4.45 -0.2,1.85 -0.75,3.7 l -0.1,0.25 -0.2,0.5 -0.5,1.2 q -1.35,2.45 -2.7,3.65 l -1.75,1.5 -1.2,0.8 q -0.85,0.45 -1.15,0.65 l -1.25,0.55 -0.4,0.05 H 32.45 32.4 L 32,55.4 30.7,54.85 29.6,54.2 28.35,53.4 26.6,51.9 q -1.3,-1.2 -2.65,-3.65 l -0.25,-0.6 -0.4,-0.9 -0.1,-0.2 q -0.6,-1.7 -0.8,-3.5 -0.25,-2.4 0.1,-4.9 0.1,-0.75 0.55,-0.85 l 0.3,0.05 0.45,0.05 2.35,0.5 1.35,0.05 q 2.05,-0.15 3.8,-1.5 l 0.3,-0.15 0.15,-0.2 0.65,-0.2 h 0.05 0.1 l 0.65,0.2 0.15,0.2 0.25,0.15 q 2,1.5 4.35,1.5 m -5.4,10.3 h 0.15 l 0.05,-0.05 0.15,-0.05 0.05,-0.05 0.1,-0.05 V 48 l 0.1,-0.05 0.05,-0.05 v -0.05 l 0.05,-0.1 0.05,-0.05 v -0.05 l 0.1,-0.1 V 47.5 l 0.05,-0.05 V 47.3 47.2 47.05 L 33.5,47 v -0.3 -0.1 -0.4 -0.1 -0.3 h 0.05 1.1 0.2 l 0.1,-0.05 0.15,-0.05 0.05,-0.1 h 0.1 l 0.05,-0.1 0.05,-0.05 V 45.4 L 35.4,45.35 35.45,45.3 V 45.2 L 35.5,45.1 V 45 L 35.55,44.9 35.5,44.85 V 44.7 L 35.45,44.65 V 44.6 44.5 H 35.4 L 35.35,44.4 35.3,44.3 35.25,44.25 35.15,44.2 35.1,44.15 34.95,44.1 34.85,44.05 h -0.2 -1.1 -0.05 V 44 43.9 43.8 43.7 43.4 43.3 H 33.45 V 43.2 43.1 42.9 42.8 42.7 42.6 42.5 L 33.4,42.45 V 42.4 L 33.3,42.3 V 42.2 H 33.25 L 33.2,42.1 H 33.15 L 33.05,42 33,41.95 32.9,41.9 32.8,41.85 H 32.7 V 41.8 h -0.05 -0.1 -0.1 -0.1 v 0.05 H 32.2 L 32.1,41.9 32,41.95 31.95,42 31.85,42.1 H 31.8 l -0.05,0.1 -0.05,0.1 -0.1,0.1 v 0.1 0.1 h -0.05 v 0.1 0.1 0.1 0.2 0.1 0.1 H 31.5 v 0.1 0.3 0.1 0.1 0.1 0.05 H 30.35 30.2 l -0.15,0.05 -0.1,0.05 -0.1,0.05 -0.05,0.05 -0.1,0.05 v 0.1 h -0.05 l -0.05,0.1 h -0.05 v 0.1 0.05 L 29.5,44.7 v 0.15 L 29.45,44.9 29.5,45 v 0.1 l 0.05,0.1 v 0.1 l 0.05,0.05 0.05,0.05 0.05,0.05 v 0.05 l 0.1,0.1 h 0.05 l 0.1,0.1 0.1,0.05 0.15,0.05 h 0.15 1.15 v 0.3 0.1 0.4 0.1 0.3 l 0.05,0.05 v 0.15 0.1 0.05 l 0.05,0.05 v 0.15 l 0.1,0.1 0.05,0.05 v 0.05 l 0.05,0.1 0.05,0.05 v 0.05 l 0.1,0.05 0.05,0.05 0.05,0.05 0.05,0.05 0.15,0.05 0.1,0.05 h 0.1 0.1"
         fill="#000000"
         fill-rule="evenodd"
         stroke="none"
         id="path6" />
      <path
         d="m 42.7,27.25 -1.3,0.65 -2.55,-0.15 q -1.2,-0.45 -1.9,-1.2 -1,-1.1 -0.95,-2.55 0,-1.4 1.05,-2.45 L 37.7,21 q 1.45,-1.05 2.9,-1.1 1.75,-0.1 2.85,1.1 l 0.6,0.8 0.35,0.7 q 0.45,1.1 0.15,2.3 -0.3,1.2 -1.2,1.95 l -0.65,0.5 m -20.55,-4.4 q 0.35,-1 1.4,-1.7 0.9,-0.6 2.1,-0.75 l 2.05,0.15 0.95,0.6 q 1.35,1.3 1.3,2.9 0,2.05 -1.9,3.45 -0.55,0.4 -1.1,0.6 l -1.35,0.1 -1,-0.1 q -0.85,-0.2 -1.55,-0.9 -0.7,-0.7 -0.95,-1.65 l -0.15,-0.9 v -0.6 l 0.2,-1.2"
         fill="#ffffff"
         fill-rule="evenodd"
         stroke="none"
         id="path7" />
      <path
         d="M 27.5,37.95 27.6,37.85 27.65,37.7 27,37.4 Q 25.95,36.95 25,36.2 L 24.7,36.05 Q 22.2,34.55 21.2,33.5 20.1,32.35 19.15,29.95 18.5,28.2 18.35,26.75 18.3,25.5 18.8,23 l 0.15,-0.55 V 21.8 L 18.9,21 18.95,19.1 18.9,17.25 19.05,15.35 19.1,13.15 19.3,11 q 0.25,-1.05 0.85,-1.5 0.8,-0.65 2.6,-0.35 0.9,0.2 3.1,0.95 l 0.65,0.2 q 1.45,-0.5 3.15,-0.65 l 3.4,-0.1 2.7,0.1 3.15,0.65 0.65,-0.2 3.1,-0.95 q 1.8,-0.3 2.6,0.35 0.6,0.45 0.85,1.5 l 0.2,2.15 0.05,2.2 0.15,1.9 -0.05,1.85 0.05,1.9 -0.05,0.85 0.05,0.6 0.1,0.55 q 0.5,2.5 0.45,3.75 l -0.8,3.2 q -0.95,2.4 -2.05,3.55 l -3.5,2.55 -0.3,0.2 -2,1.15 -0.65,0.3 0.05,0.15 0.15,0.1 q -2.35,0 -4.35,-1.5 L 33.35,36.3 33.2,36.1 32.55,35.9 h -0.1 -0.05 l -0.65,0.2 -0.15,0.2 -0.3,0.15 q -1.75,1.35 -3.8,1.5 m 15.05,4.65 3.3,3.4 3.9,4.1 2.65,2.95 1.7,1.6 q 0.85,0.95 1.1,1.85 l 0.15,0.75 h -6 l -1.6,-2.2 -2.4,-3.75 -3.55,-5 q 0.55,-1.85 0.75,-3.7 m -1.05,4.45 q 2.05,5.3 3.4,7.95 0.75,1.45 0.8,2.25 h -26 q 0.05,-0.8 0.8,-2.25 1.3,-2.5 3.2,-7.35 l 0.25,0.6 q 1.35,2.45 2.65,3.65 l 1.75,1.5 1.25,0.8 1.1,0.65 1.3,0.55 0.4,0.05 h 0.05 0.1 l 0.4,-0.05 1.25,-0.55 q 0.3,-0.2 1.15,-0.65 l 1.2,-0.8 1.75,-1.5 q 1.35,-1.2 2.7,-3.65 l 0.5,-1.2 m -18.2,-0.3 -3.25,4.55 -2.4,3.75 -1.6,2.2 H 10.1 l 0.1,-0.75 q 0.25,-0.9 1.1,-1.85 l 1.7,-1.6 2.65,-2.95 3.9,-4.1 2.85,-2.95 q 0.2,1.8 0.8,3.5 l 0.1,0.2 m 19.4,-19.5 0.65,-0.5 q 0.9,-0.75 1.2,-1.95 0.3,-1.2 -0.15,-2.3 L 44.05,21.8 43.45,21 q -1.1,-1.2 -2.85,-1.1 -1.45,0.05 -2.9,1.1 l -0.65,0.55 Q 36,22.6 36,24 q -0.05,1.45 0.95,2.55 0.7,0.75 1.9,1.2 l 2.55,0.15 1.3,-0.65 m -20.55,-4.4 -0.2,1.2 v 0.6 l 0.15,0.9 q 0.25,0.95 0.95,1.65 0.7,0.7 1.55,0.9 l 1,0.1 1.35,-0.1 q 0.55,-0.2 1.1,-0.6 1.9,-1.4 1.9,-3.45 0.05,-1.6 -1.3,-2.9 L 27.7,20.55 25.65,20.4 q -1.2,0.15 -2.1,0.75 -1.05,0.7 -1.4,1.7 m 10.4,25.4 h -0.1 -0.1 L 32.25,48.2 32.1,48.15 32.05,48.1 32,48.05 31.95,48 31.85,47.95 V 47.9 L 31.8,47.85 31.75,47.75 V 47.7 L 31.7,47.65 31.6,47.55 V 47.4 L 31.55,47.35 V 47.3 47.2 47.05 L 31.5,47 V 46.7 46.6 46.2 46.1 45.8 H 30.35 30.2 l -0.15,-0.05 -0.1,-0.05 -0.1,-0.1 H 29.8 L 29.7,45.5 V 45.45 L 29.65,45.4 29.6,45.35 29.55,45.3 V 45.2 L 29.5,45.1 V 45 L 29.45,44.9 29.5,44.85 V 44.7 l 0.05,-0.05 V 44.6 44.5 h 0.05 l 0.05,-0.1 h 0.05 v -0.1 l 0.1,-0.05 0.05,-0.05 0.1,-0.05 0.1,-0.05 0.15,-0.05 h 0.15 1.15 V 44 43.9 43.8 43.7 43.4 43.3 h 0.05 v -0.1 -0.1 -0.2 -0.1 -0.1 -0.1 h 0.05 v -0.1 -0.1 l 0.1,-0.1 0.05,-0.1 0.05,-0.1 h 0.05 L 31.95,42 32,41.95 32.1,41.9 32.2,41.85 h 0.15 V 41.8 h 0.1 0.1 0.1 0.05 v 0.05 h 0.1 l 0.1,0.05 0.1,0.05 0.05,0.05 0.1,0.1 h 0.05 l 0.05,0.1 h 0.05 v 0.1 l 0.1,0.1 v 0.05 l 0.05,0.05 v 0.1 0.1 0.1 0.1 0.2 0.1 0.1 h 0.05 v 0.1 0.3 0.1 0.1 0.1 0.05 h 0.05 1.1 0.2 l 0.1,0.05 0.15,0.05 0.05,0.05 0.1,0.05 0.05,0.05 0.05,0.1 0.05,0.1 h 0.05 v 0.1 0.05 l 0.05,0.05 v 0.15 L 35.55,44.9 35.5,45 v 0.1 l -0.05,0.1 v 0.1 l -0.05,0.05 -0.05,0.05 v 0.05 l -0.05,0.05 -0.05,0.1 h -0.1 l -0.05,0.1 -0.15,0.05 -0.1,0.05 h -0.2 -1.1 -0.05 v 0.3 0.1 0.4 0.1 0.3 l -0.05,0.05 v 0.15 0.1 0.15 L 33.4,47.5 v 0.05 l -0.1,0.1 v 0.05 l -0.05,0.05 -0.05,0.1 v 0.05 l -0.05,0.05 -0.1,0.05 v 0.05 l -0.1,0.05 -0.05,0.05 -0.15,0.05 -0.05,0.05 h -0.15"
         fill="#999999"
         fill-rule="evenodd"
         stroke="none"
         id="path8" />
    </g>
    <g
       id="shape2"
       transform="translate(1.5,1.5)">
      <path
         d="M 0,23.8 V 0 H 64.1 V 23.8 57.55 H 0 Z"
         fill="none"
         stroke="#000000"
         stroke-linecap="round"
         stroke-linejoin="round"
         stroke-width="3"
         id="path9" />
    </g>
  </defs>
</svg>
