<?xml version="1.0" encoding="UTF-8" standalone="no"?>
<svg
   ffdec:objectType="frame"
   height="44.349998"
   width="78.599998"
   version="1.1"
   id="svg11"
   sodipodi:docname="3.svg"
   xmlns:inkscape="http://www.inkscape.org/namespaces/inkscape"
   xmlns:sodipodi="http://sodipodi.sourceforge.net/DTD/sodipodi-0.dtd"
   xmlns:xlink="http://www.w3.org/1999/xlink"
   xmlns="http://www.w3.org/2000/svg"
   xmlns:svg="http://www.w3.org/2000/svg"
   xmlns:ffdec="https://www.free-decompiler.com/flash">
  <sodipodi:namedview
     id="namedview11"
     pagecolor="#ffffff"
     bordercolor="#000000"
     borderopacity="0.25"
     inkscape:showpageshadow="2"
     inkscape:pageopacity="0.0"
     inkscape:pagecheckerboard="0"
     inkscape:deskcolor="#d1d1d1"
     fit-margin-top="5"
     fit-margin-left="5"
     fit-margin-right="5"
     fit-margin-bottom="5" />
  <g
     transform="translate(2,2.05)"
     id="g3">
    <use
       ffdec:characterId="1"
       height="42.700001"
       transform="translate(-1.75,-2)"
       width="76.449997"
       xlink:href="#shape0"
       id="use1" />
    <use
       ffdec:characterId="5"
       height="36.5"
       transform="translate(-1.7,5.5)"
       width="76.449997"
       xlink:href="#shape1"
       id="use2" />
    <use
       ffdec:characterId="3"
       height="44.349998"
       transform="translate(-2,-2.05)"
       width="78.599998"
       xlink:href="#shape2"
       id="use3" />
  </g>
  <defs
     id="defs11">
    <g
       id="shape0"
       transform="translate(1.75,2)">
      <path
         d="M 2.8,0 V -0.4 H 5.4 V 0 H 9.7 V 19.45 0 H 20.55 L 19.3,19.45 H 9.7 0.25 V 0 H 2.8"
         fill="#ffffff"
         fill-rule="evenodd"
         stroke="none"
         id="path3" />
      <path
         d="M 0.25,19.45 H 9.7 19.3 L 18.7,28.6 16,28.5 10.95,27.95 9.7,27.8 Q 7.45,27.6 5.85,27.75 4.05,27.9 1.5,28.6 0.75,28.8 0.25,29.15 v -9.7 m 9.45,0 v 8.35 -8.35"
         fill="#121212"
         fill-rule="evenodd"
         stroke="none"
         id="path4" />
      <path
         d="m 9.7,27.8 1.25,0.15 5.05,0.55 2.7,0.1 h 1.05 l 3.75,0.15 q 2.45,0.3 3.6,1.25 0.6,0.5 0.6,1.1 0,0.65 -0.8,1 l -1.3,0.2 -7.15,0.15 -5.6,-0.3 L 9.7,31.75 7.95,31.6 3.1,31.95 0.95,32.3 0.25,32.1 -0.35,31.55 -0.5,31.3 V 29.9 L 0.25,29.15 Q 0.75,28.8 1.5,28.6 4.05,27.9 5.85,27.75 7.45,27.6 9.7,27.8 v 3.95 -3.95"
         fill="#999999"
         fill-rule="evenodd"
         stroke="none"
         id="path5" />
      <path
         d="M 2.8,0 H 0.25 M 9.7,0 H 5.4 m 16.15,0 h 10.7 M 20.55,0 H 9.7"
         fill="none"
         stroke="#666666"
         stroke-linecap="round"
         stroke-linejoin="round"
         stroke-width="4"
         id="path6" />
      <path
         d="m 9.7,-0.4 h 65 V 40.5 H 47.05 L 45.5,40.7 27,40.65 25.95,40.5 H 9.7 -0.5 V -0.4 H 9.7 V 40.5 -0.4"
         fill="#ffffff"
         fill-rule="evenodd"
         stroke="none"
         id="path7" />
    </g>
    <g
       id="shape1"
       transform="translate(1.7,-5.5)">
      <path
         d="m 60,23 q 3.5,-2 7.15,-1.8 4.05,0.35 6.65,3 l 0.15,0.15 0.15,0.05 0.1,0.1 0.1,0.15 0.05,0.1 0.05,0.1 0.05,0.1 0.05,0.1 0.05,0.1 0.05,0.1 0.05,0.1 v 0.1 0.1 0.1 0.1 0.1 0.1 0.1 0.15 0.1 0.1 0.1 0.1 0.1 l 0.05,0.1 v 0.1 0.1 0.1 0.1 0.1 l 0.05,0.1 v 0.1 0.1 0.1 0.15 0.1 0.1 0.1 0.1 0.1 0.1 0.1 0.1 0.1 0.1 0.1 0.1 0.1 0.1 0.15 0.1 0.1 l -0.05,0.1 v 0.1 0.1 0.1 0.1 0.1 0.1 0.1 0.1 0.1 l 0.05,0.1 v 0.1 0.1 0.15 0.1 0.1 0.1 0.1 0.1 0.1 0.1 l -0.05,0.1 v 0.1 0.1 0.1 0.1 0.1 0.1 0.15 0.1 0.1 0.1 0.1 0.1 l 0.05,0.1 v 0.1 0.1 0.1 0.1 0.1 0.1 0.1 0.1 0.15 0.1 0.1 0.1 0.1 0.1 0.1 0.1 0.1 0.1 0.1 0.1 0.1 0.1 0.1 0.1 0.15 0.1 0.1 0.1 0.1 0.1 0.1 0.1 0.1 0.1 0.1 0.1 0.1 0.1 0.1 0.15 0.1 0.1 0.1 l -0.05,0.1 v 0.1 l -0.05,0.1 v 0.1 l -0.05,0.1 -0.1,0.1 -0.05,0.1 -0.05,0.1 -0.15,0.1 -0.05,0.05 v 0.05 0.1 0.1 0.15 l -0.05,0.1 -0.05,0.1 -0.05,0.1 -0.05,0.1 -0.05,0.1 -0.1,0.1 -0.05,0.1 -0.15,0.1 -0.1,0.1 -0.2,0.1 -0.15,0.1 h -0.1 l -0.35,0.05 -1.1,0.05 H 67.4 66.45 65.5 64.9 63.6 L 62.1,40.15 H 59.9 53.45 L 45.7,40.1 H 44.25 L 43.2,40.05 42.1,40 h -1 L 40.2,39.95 36.55,39.9 29.2,39.85 H 17.3 14.7 12.3 l -0.4,0.6 -0.7,1.25 Q 10.8,42.1 10.15,42 9.55,41.95 9.25,41.5 8.85,41 9.05,40.3 L 9,40.15 Q 8.8,39.7 9.25,38.7 L 15.9,26.95 q 0.75,-1.3 1.25,-1.65 l 0.1,-0.05 q 2.55,-4.2 6.2,-7.75 5.2,-5.05 11.7,-7.85 l 0.45,-0.1 q 0.35,0 0.25,0.3 l -0.25,0.25 -2.15,1.1 -2.3,1.5 -1.4,1.3 -4.65,4.6 q -2.45,2.7 -4,5.2 l -0.65,1.15 0.45,0.05 0.65,0.25 0.25,-0.45 0.6,-0.95 0.8,-1.15 q 1.25,-1.75 4.7,-5.2 l 2.15,-2.15 q 0.25,-0.25 0.45,-0.15 0.35,0.15 -0.05,0.55 l -1.9,2.35 -1.85,2.7 -1.25,2.05 q -1,1.5 -1.4,2.65 l -0.35,0.95 1.25,0.75 0.25,0.15 Q 25.65,27 26.55,26.7 l 4.3,-0.65 3.4,-0.25 0.65,-1 q 1.95,-2.3 3.75,-3.35 2.55,-1.4 4.85,-0.75 1.2,0.4 2.45,1.4 l 1.45,1.35 0.25,-0.05 0.15,-0.05 3.65,-0.4 1.6,0.15 1.85,0.4 1.2,0.55 1.15,0.85 L 60,23 m -61,0.65 q 0.2,-0.7 0.1,-1.05 l -0.2,-0.55 q -0.15,-0.55 0.3,-1.1 l 0.6,-0.45 -0.1,-0.7 q 0.1,-0.55 1.2,-1 l 2.15,-0.4 2,0.35 0.95,0.5 2.8,-2.65 3.85,-2.85 q 1.55,-1.2 2.55,-1.8 l 1.3,-0.85 q 0.7,-0.45 0.95,-0.3 l -0.25,0.45 -1.05,0.8 -4.8,4.2 -2.5,2.7 -1.2,1.4 0.5,0.5 0.2,0.25 q 7.7,-7.95 17.2,-13.6 L 25.85,7.4 26,7.55 25.85,7.85 Q 16.9,14.65 9.5,23 L 9.45,23.1 9,23.85 8.6,24.25 7.8,25.1 5,28 4.65,28.35 2.05,31.7 0.7,33.2 0.55,33.3 0.35,33.55 -0.1,33.95 Q -0.3,34 -0.5,33.7 L -0.6,33.2 -0.05,31.6 1,30.15 q -1.05,0.5 -2,-0.3 -0.9,-0.75 -0.6,-1.9 l 0.3,-0.85 0.1,-1.8 0.2,-1.65"
         fill="#999999"
         fill-rule="evenodd"
         stroke="none"
         id="path8" />
      <path
         d="M 52.75,10.45 V 10.4 l 0.3,0.1 0.25,0.2 v 0.25 l -0.05,0.3 -0.15,0.2 -0.45,0.1 -0.2,-0.1 -0.15,-0.15 -0.1,-0.15 v -0.4 l 0.25,-0.25 0.3,-0.05 M 45.55,6.8 45.6,7.15 45.4,7.7 44.85,7.95 44.15,7.9 43.95,7.8 43.5,7.65 43.05,7.35 42.85,7.05 Q 42.75,6.7 42.9,6.4 L 43.3,6.15 44.15,6.1 44.6,6.25 h 0.1 q 0.7,0.1 0.85,0.55 m 3.1,0.95 0.05,-0.05 0.5,0.2 0.3,0.4 0.15,0.55 L 49.55,9.2 49.3,9.55 48.6,9.65 48,9.25 Q 47.75,8.9 47.8,8.5 l 0.25,-0.55 0.6,-0.2 M 40.25,5.9 q 0.35,0.35 0.15,0.9 v 0.05 0.1 L 40.1,7.3 38.8,7.6 q -0.7,0 -1.05,-0.35 -0.3,-0.2 -0.3,-0.65 0.1,-0.45 0.35,-0.65 l 0.65,-0.3 0.5,-0.1 h 0.1 l 0.3,-0.05 0.4,0.1 0.5,0.3 m -7.2,0.3 q 0.3,-0.35 0.75,-0.4 l 0.45,0.05 0.05,-0.05 1.05,0.15 0.5,0.8 q 0.1,0.5 -0.3,0.9 L 34.7,8.15 33.9,8.45 33.25,8.6 32.55,8.15 Q 32.4,7.9 32.4,7.3 l 0.2,-0.5 0.3,-0.3 0.15,-0.3 m -5.9,3.3 q 0.7,-0.8 1.7,-1.25 0.9,-0.45 1.55,-0.25 0.65,0.2 0.9,0.85 0.25,0.65 -0.2,1.2 l -0.85,0.65 -1.9,0.7 -0.9,0.1 -0.75,-0.4 q -0.25,-0.4 -0.05,-0.85 l 0.5,-0.75 m -5.4,3.9 0.8,-0.85 1.2,-0.9 q 0.9,-0.2 1.35,0.4 0.6,0.6 0.25,1.35 l -0.25,0.4 -0.9,1.15 -1.55,1.25 -0.8,0.45 -1.05,-0.2 q -0.5,-0.4 -0.4,-1.05 l 0.7,-1 0.4,-0.4 0.25,-0.6 m -5,4.35 1.3,-0.85 q 0.65,-0.15 1.25,0.3 0.55,0.4 0.6,1.05 0.1,1.1 -1.3,2.3 l -1.4,1.15 -0.55,1.05 -0.85,0.3 -1.2,-0.25 q -0.65,-0.35 -0.65,-1 0,-0.45 0.55,-1.1 l 0.25,-0.25 q 0.85,-1.5 2,-2.7 M 8,32.55 Q 7.4,32.65 6.9,32.15 6.45,31.7 6.45,31 6.3,30.55 6.45,30.05 l 0.5,-0.8 0.5,-0.55 3.1,-4.3 0.7,-0.65 q 0.95,-0.65 1.85,0 0.95,0.6 0.7,1.7 l -0.5,1 -0.7,0.9 -1.3,1.5 -2.05,2.95 Q 8.65,32.5 8,32.55 m -2.5,5 -1.05,2.1 L 3.8,40.5 2.85,41 2,41.1 q -0.45,0 -1.05,-0.4 L 0.45,40.1 Q 0.3,39.8 0.3,39.15 l 0.05,-0.4 q 0.05,-0.45 0.7,-1.2 l 0.9,-1.7 0.9,-1.35 q 0.95,-1.05 2.2,-0.75 1,0.25 1.3,1.1 0.35,0.9 -0.15,1.7 l -0.7,1"
         fill="#000000"
         fill-rule="evenodd"
         stroke="none"
         id="path9" />
      <path
         d="m 55,13.7 -0.05,-0.1 0.05,-0.1 0.15,-0.2 0.1,-0.1 h 0.15 q 0.2,0 0.35,0.15 l 0.1,0.15 v 0.1 L 55.8,13.85 55.6,14.05 55.05,13.9 55,13.8 v -0.1 m 4.7,2 0.5,0.8 0.15,1.5 q -0.2,0.8 -1.15,1.15 l -1.7,0.05 -1.15,-0.75 -0.2,-0.65 q -0.1,-0.6 0.1,-1.25 0.25,-0.6 0.75,-0.95 0.7,-0.4 1.75,-0.25 0.65,0.1 0.95,0.35"
         fill="#999999"
         fill-rule="evenodd"
         stroke="none"
         id="path10" />
    </g>
    <g
       id="shape2"
       transform="translate(2,2.05)">
      <path
         d="M -0.5,-0.4 V -0.55 H 75.1 V -0.4 40.8 H -0.5 Z"
         fill="none"
         stroke="#000000"
         stroke-linecap="round"
         stroke-linejoin="round"
         stroke-width="3"
         id="path11" />
    </g>
  </defs>
</svg>
