<?xml version="1.0" encoding="UTF-8" standalone="no"?>
<svg
   ffdec:objectType="frame"
   height="60.549999"
   width="67.099998"
   version="1.1"
   id="svg7"
   sodipodi:docname="331.svg"
   xmlns:inkscape="http://www.inkscape.org/namespaces/inkscape"
   xmlns:sodipodi="http://sodipodi.sourceforge.net/DTD/sodipodi-0.dtd"
   xmlns:xlink="http://www.w3.org/1999/xlink"
   xmlns="http://www.w3.org/2000/svg"
   xmlns:svg="http://www.w3.org/2000/svg"
   xmlns:ffdec="https://www.free-decompiler.com/flash">
  <sodipodi:namedview
     id="namedview7"
     pagecolor="#ffffff"
     bordercolor="#000000"
     borderopacity="0.25"
     inkscape:showpageshadow="2"
     inkscape:pageopacity="0.0"
     inkscape:pagecheckerboard="0"
     inkscape:deskcolor="#d1d1d1"
     fit-margin-top="5"
     fit-margin-left="5"
     fit-margin-right="5"
     fit-margin-bottom="5" />
  <g
     transform="translate(1.5,1.5)"
     id="g3">
    <use
       ffdec:characterId="516"
       height="57.549999"
       width="64.099998"
       xlink:href="#shape0"
       id="use1" />
    <use
       ffdec:characterId="832"
       height="59.049999"
       transform="translate(-0.35,-0.55)"
       width="65.199997"
       xlink:href="#shape1"
       id="use2" />
    <use
       ffdec:characterId="518"
       height="60.549999"
       transform="translate(-1.5,-1.5)"
       width="67.099998"
       xlink:href="#shape2"
       id="use3" />
  </g>
  <defs
     id="defs7">
    <g
       id="shape0">
      <path
         d="M 53.6,0 H 64.1 V 57.55 H 53.6 28.25 0 V 0 H 28.25 53.6 V 57.55 0 M 28.25,0 V 57.55 0"
         fill="#ffffff"
         fill-rule="evenodd"
         stroke="none"
         id="path3" />
    </g>
    <g
       id="shape1"
       transform="translate(0.35,0.55)">
      <path
         d="m 36.65,-0.5 0.25,0.05 0.2,0.1 0.05,0.15 0.05,0.1 0.05,0.1 V 0.1 L 37.3,0.2 37.25,0.3 V 0.4 0.5 L 37.3,0.6 V 0.7 0.8 0.9 1 l 0.05,0.1 v 0.1 0.1 0.1 0.1 0.1 0.1 l 0.05,0.1 v 0.1 0.1 0.1 0.1 0.1 0.1 0.1 0.1 0.1 0.15 0.1 0.1 0.1 l 0.05,0.1 v 0.1 0.1 0.1 0.1 0.1 l 0.05,0.1 v 0.1 0.1 0.1 0.1 0.1 0.1 0.1 0.1 l 0.05,0.1 v 0.1 0.1 0.1 l 0.05,0.1 v 0.1 0.1 0.1 0.1 0.1 V 5.8 5.9 6 6.1 6.2 6.3 l 0.05,0.1 V 6.5 6.6 6.7 6.8 L 37.7,6.9 V 7 7.1 l 0.05,0.1 V 7.3 7.4 7.5 7.6 7.7 7.8 L 37.8,7.9 V 8 8.1 8.2 8.3 8.4 l 0.05,0.1 v 0.1 0.1 0.15 0.1 0.1 0.1 0.1 l 0.05,0.1 v 0.1 0.1 0.1 0.1 0.1 0.1 l 0.05,0.1 v 0.1 0.1 0.1 0.1 0.1 0.1 0.1 0.1 0.1 0.1 0.1 0.1 0.1 l 0.05,0.1 v 0.1 0.1 0.15 l 0.05,0.1 v 0.1 0.1 0.1 0.1 0.1 0.1 0.1 0.1 l 0.05,0.1 v 0.1 0.1 0.1 L 38.15,13 V 12.9 12.8 12.7 12.6 12.5 12.4 12.3 12.2 12.1 12 11.9 11.8 11.65 11.55 l 0.05,-0.1 v -0.1 -0.1 -0.1 -0.1 -0.1 -0.1 l 0.05,-0.1 v -0.1 -0.1 -0.1 -0.1 -0.1 -0.1 -0.1 -0.1 -0.1 l 0.05,-0.1 v -0.1 -0.1 -0.1 -0.1 -0.1 l 0.05,-0.1 V 9.05 8.95 8.85 8.7 8.6 8.5 8.4 8.3 L 38.4,8.2 V 8.1 8 7.9 L 38.45,7.8 V 7.7 7.6 7.5 7.4 7.3 7.2 L 38.5,7.1 V 7 6.9 6.8 L 38.55,6.7 V 6.6 6.5 6.4 6.3 6.2 6.1 6 L 38.6,5.9 V 5.8 5.65 5.55 5.45 5.35 5.25 l 0.05,-0.1 v -0.1 -0.1 -0.1 -0.1 -0.1 -0.1 -0.1 -0.1 -0.1 l 0.05,-0.1 v -0.1 l 0.05,-0.1 v -0.1 -0.1 l 0.05,-0.1 v -0.1 -0.1 -0.1 l 0.05,-0.1 V 3.15 L 38.9,3.05 V 2.95 2.85 2.7 2.6 2.5 2.4 2.3 L 38.95,2.2 V 2.1 L 39,2 39.1,1.9 39.2,1.8 h 0.3 V 1.75 l 0.25,0.05 0.1,0.1 0.1,0.1 0.05,0.1 0.05,0.1 v 0.1 0.1 0.1 0.1 l 0.05,0.1 v 0.15 0.1 0.1 0.1 l 0.05,0.1 v 0.1 0.1 l 0.05,0.1 v 0.1 0.1 l 0.05,0.1 v 0.1 0.1 0.1 0.1 l 0.05,0.1 v 0.1 0.1 0.1 l 0.05,0.1 v 0.1 0.1 0.1 0.1 0.1 0.1 0.1 0.1 0.1 0.15 0.1 L 40.4,6 v 0.1 0.1 l 0.05,0.1 V 6.4 6.5 6.6 6.7 6.8 6.9 7 7.1 7.2 l 0.05,0.1 v 0.1 0.1 l 0.05,0.1 V 7.7 7.8 7.9 8 8.1 8.2 l 0.05,0.1 v 0.1 0.1 0.1 l 0.05,0.1 v 0.15 0.1 0.1 0.1 0.1 0.1 0.1 0.1 0.1 0.1 l 0.05,0.1 v 0.1 0.1 0.1 l 0.05,0.1 v 0.1 0.1 0.1 0.1 0.1 0.1 l 0.05,0.1 v 0.1 0.1 0.1 0.1 0.1 0.1 0.1 0.15 0.1 0.1 0.1 0.1 l 0.05,0.1 v 0.1 0.1 0.1 0.1 0.1 0.1 0.1 l 0.05,0.1 v 0.1 0.1 0.1 0.1 0.1 0.1 0.1 0.1 0.1 0.1 0.1 0.1 0.1 l 0.05,0.1 v 0.1 0.1 L 41,14.85 v 0.1 0.1 0.1 0.1 0.1 0.1 0.1 0.1 0.1 0.1 0.1 0.1 0.1 0.1 0.1 0.1 0.1 0.1 0.1 0.1 l 0.05,0.1 v 0.1 0.1 0.1 0.1 0.1 0.1 0.1 0.15 0.1 0.1 0.1 0.1 0.1 0.1 l 0.05,0.1 v 0.1 0.1 0.1 0.1 0.1 0.1 0.1 0.1 0.1 0.1 0.1 0.1 0.1 0.1 0.1 0.1 0.1 0.1 0.1 0.1 0.1 0.1 0.15 0.1 0.1 0.1 0.1 0.1 0.1 0.1 0.1 0.1 0.1 0.1 0.1 0.1 0.1 0.1 0.1 0.1 0.1 0.1 0.1 0.1 0.1 0.1 0.1 0.1 0.1 0.1 0.1 0.15 0.1 0.1 0.1 0.1 0.1 0.1 0.1 0.1 l 0.05,0.1 v 0.1 0.1 0.1 0.1 0.1 0.1 0.1 0.1 0.1 0.1 0.1 0.1 0.1 0.1 0.1 0.1 0.1 0.1 0.1 0.1 0.15 0.1 0.1 0.1 0.1 0.1 0.1 0.1 0.1 0.1 0.1 0.1 l 0.05,0.1 v 0.1 0.1 0.1 0.1 0.1 0.1 0.1 0.1 0.1 0.1 0.1 0.1 0.1 0.1 0.1 0.1 0.15 0.1 0.1 0.1 0.1 0.1 0.1 0.1 0.1 0.1 0.1 0.1 0.1 0.1 0.1 0.05 h 0.25 l 0.85,0.15 0.05,-0.05 v -0.1 -0.1 -0.1 -0.1 -0.1 -0.1 -0.1 -0.1 -0.1 -0.1 -0.1 -0.1 l 0.05,-0.1 v -0.1 -0.1 l 0.05,-0.1 v -0.1 -0.1 -0.1 -0.1 -0.1 l 0.05,-0.1 v -0.1 -0.1 l 0.05,-0.1 V 28.7 28.6 28.5 28.4 28.3 L 42.6,28.2 V 28.1 L 42.65,28 v -0.1 -0.1 -0.1 l 0.05,-0.1 v -0.1 l 0.05,-0.1 V 27.3 27.2 27.1 27 l 0.05,-0.1 v -0.1 -0.1 -0.1 -0.1 -0.1 -0.1 -0.1 l 0.05,-0.1 V 26 25.9 l 0.05,-0.1 v -0.15 -0.1 -0.1 -0.1 -0.1 -0.1 -0.1 -0.1 -0.1 -0.1 -0.1 -0.1 -0.1 -0.1 l 0.05,-0.1 v -0.1 -0.1 -0.1 -0.1 -0.1 -0.1 -0.1 -0.1 L 43,23.35 v -0.1 -0.1 -0.1 -0.1 -0.1 V 22.7 22.6 22.5 22.4 22.3 22.2 22.1 22 l 0.05,-0.1 V 21.8 21.7 21.6 21.5 L 43.1,21.4 V 21.3 21.2 21.1 21 20.9 20.8 20.7 20.6 20.5 20.4 20.3 l 0.05,-0.1 V 20.1 20 19.9 19.8 l 0.05,-0.15 v -0.1 -0.1 -0.1 -0.1 -0.1 -0.1 -0.1 -0.1 -0.1 -0.1 -0.1 -0.1 -0.1 -0.1 -0.1 -0.1 -0.1 -0.1 -0.1 -0.1 -0.1 -0.1 -0.1 -0.1 l 0.05,-0.1 v -0.1 -0.1 -0.1 -0.15 -0.1 -0.1 -0.1 -0.1 L 43.3,16.2 V 16.1 16 15.9 15.8 15.7 15.6 15.5 l 0.05,-0.1 V 15.3 L 43.4,15.2 V 15.1 15 14.9 14.8 14.7 14.6 14.5 l 0.05,-0.1 V 14.3 L 43.5,14.2 V 14.1 L 43.45,14 v -0.1 l 0.05,-0.1 v -0.15 l 0.1,-0.1 0.1,-0.05 h 0.15 v -0.05 l 0.15,0.1 0.1,0.1 0.05,0.1 v 0.1 l 0.05,0.1 0.05,0.1 v 0.1 0.1 l -0.05,0.1 v 0.1 l 0.05,0.1 v 0.1 0.1 0.1 0.1 0.1 0.1 0.1 l 0.05,0.1 v 0.1 l 0.05,0.1 v 0.1 0.15 0.1 0.1 0.1 0.1 0.1 l 0.05,0.1 v 0.1 0.1 0.1 0.1 0.1 0.1 0.1 0.1 l 0.05,0.1 v 0.1 0.1 0.1 0.1 0.1 0.1 0.1 0.1 0.1 0.1 0.1 0.1 0.1 0.1 0.15 0.1 0.1 0.1 0.1 0.1 0.1 0.1 0.1 0.1 l 0.05,0.1 v 0.1 0.1 0.1 0.1 l 0.05,0.1 v 0.1 0.1 0.1 0.1 0.1 0.1 0.1 0.1 0.1 0.1 0.1 l 0.05,0.1 v 0.1 0.15 0.1 0.1 l 0.05,0.1 v 0.1 0.1 0.1 0.1 0.1 0.1 0.1 0.1 0.1 0.1 0.1 0.1 0.1 l 0.05,0.1 v 0.1 0.1 0.1 0.1 0.1 0.1 0.1 0.1 l 0.05,0.1 v 0.1 0.1 0.1 0.15 0.1 0.1 0.1 l 0.05,0.1 v 0.1 0.1 0.1 0.1 0.1 0.1 0.1 0.1 0.1 l 0.05,0.1 v 0.1 0.1 0.1 l 0.05,0.1 v 0.1 0.1 0.1 0.1 0.1 0.1 0.1 0.1 l 0.05,0.1 v 0.1 L 45,27.8 v 0.1 0.1 0.1 l 0.05,0.1 v 0.1 l 0.05,0.1 v 0.1 0.1 0.1 0.1 0.1 l 0.05,0.1 v 0.1 0.1 l 0.05,0.1 v 0.1 0.1 0.1 0.1 0.1 l 0.05,0.1 v 0.1 0.1 l 0.05,0.1 v 0.1 0.1 0.1 0.1 0.1 0.15 0.1 0.1 0.1 0.1 0.05 l 0.05,0.1 v 0.05 l 0.4,2.1 q 0.25,3.35 -1.7,6.3 -1.75,2.8 -4.9,4.45 -1.5,0.8 -2.7,1.05 l -3,0.15 -1.8,0.1 -4.1,-0.5 -3.2,-0.95 q -3.25,-1.5 -5.4,-5 l -0.9,-1.8 q -0.5,-1.4 -0.4,-3.6 l 0.3,-2.45 q 0.6,-7.05 0.75,-14.7 l 0.2,-0.65 q 0.15,-0.35 0.45,-0.25 l 0.3,0.6 0.25,3.2 0.15,2.4 v -0.1 -0.15 -0.1 -0.1 l 0.05,-0.1 v -0.1 -0.1 -0.1 -0.1 -0.1 l 0.05,-0.1 v -0.1 -0.1 -0.1 -0.1 -0.1 -0.1 -0.1 -0.1 l 0.05,-0.1 v -0.1 -0.1 -0.1 -0.1 -0.1 l 0.05,-0.1 v -0.1 -0.1 -0.1 -0.1 V 18.7 18.6 18.5 18.4 18.3 18.2 18.1 18 17.9 17.8 l 0.05,-0.1 v -0.1 -0.1 -0.1 -0.1 l 0.05,-0.1 V 17.1 17 16.9 16.8 16.7 l 0.05,-0.1 v -0.1 -0.1 l 0.05,-0.1 V 16.2 16.1 16 15.9 15.8 l 0.05,-0.15 v -0.1 -0.1 l 0.05,-0.1 v -0.1 -0.1 -0.1 -0.1 -0.1 l 0.05,-0.1 v -0.1 -0.1 l 0.05,-0.1 v -0.1 -0.1 -0.1 -0.1 -0.1 -0.1 l 0.05,-0.1 v -0.1 -0.1 -0.1 -0.1 l 0.05,-0.1 v -0.1 -0.1 -0.1 l 0.05,-0.1 V 12.7 12.6 12.5 12.4 12.3 l 0.05,-0.1 V 12.1 12 11.9 11.8 11.7 L 20.9,11.6 V 11.5 11.4 11.3 11.2 11.1 11 10.9 10.8 10.7 10.6 10.5 10.4 10.3 10.2 10.1 10 L 20.95,9.9 V 9.8 9.65 9.55 9.45 9.35 9.25 9.15 L 21,9.05 v -0.1 -0.1 -0.1 -0.1 -0.1 -0.1 -0.1 l 0.05,-0.1 V 8.15 8.05 7.95 7.85 7.75 7.65 7.55 L 21.1,7.45 V 7.35 7.25 7.15 7.05 6.95 6.85 6.7 6.6 6.5 6.4 6.3 6.2 6.1 6 5.9 5.8 L 21.15,5.7 V 5.6 5.5 5.4 5.3 5.2 5.1 5 4.9 4.8 4.7 4.6 4.5 L 21.2,4.4 V 4.3 4.2 4.1 4 3.9 3.8 3.65 3.55 3.45 3.35 3.25 3.15 3.05 l 0.05,-0.1 V 2.85 2.75 2.65 2.55 2.45 2.35 L 21.3,2.25 V 2.15 2.05 1.95 1.85 1.75 1.65 1.55 1.45 1.35 1.25 1.15 1.05 L 21.35,0.95 21.4,0.85 21.45,0.7 21.5,0.65 21.6,0.6 h 0.15 l 0.15,0.05 0.1,0.1 0.05,0.1 0.05,0.1 0.05,0.1 v 0.1 0.1 0.1 0.1 0.1 0.1 V 1.8 1.9 2 2.1 2.2 2.3 L 22.2,2.4 V 2.5 2.6 2.7 2.8 2.9 3 l 0.05,0.1 V 3.2 3.3 3.4 3.5 3.6 3.7 3.8 3.9 4 4.1 4.2 4.3 4.4 l 0.05,0.1 v 0.1 0.1 0.15 0.1 0.1 0.1 0.1 0.1 0.1 0.1 0.1 0.1 l 0.05,0.1 v 0.1 0.1 0.1 0.1 0.1 0.1 0.1 0.1 0.1 0.1 0.1 0.1 0.1 0.1 0.1 0.1 l 0.05,0.1 V 7.65 7.8 7.9 8 8.1 8.2 8.3 l 0.05,0.1 V 8.5 8.6 8.7 8.8 8.9 9 9.1 l 0.05,0.1 v 0.1 0.1 0.1 0.1 0.1 0.1 0.1 l 0.05,0.1 v 0.1 0.1 0.1 0.1 0.1 0.1 0.1 0.15 0.1 0.1 0.1 0.1 0.1 0.1 0.1 0.1 l 0.05,0.1 v 0.1 0.1 0.1 0.1 0.1 l 0.05,0.1 v 0.1 0.1 0.1 0.1 0.1 l 0.05,0.1 v 0.1 0.1 0.1 0.1 l 0.05,0.1 v 0.1 0.1 0.15 0.1 L 22.8,14 v 0.1 0.1 0.1 0.1 0.1 l 0.05,0.1 v 0.1 0.1 0.1 L 22.9,15 v -0.05 -0.1 -0.1 -0.1 l 0.05,-0.1 v -0.1 -0.1 L 23,14.25 v -0.1 -0.1 -0.1 -0.1 l 0.05,-0.1 v -0.1 -0.1 -0.1 -0.1 -0.1 -0.1 l 0.05,-0.1 V 12.95 12.85 12.7 12.6 12.5 12.4 12.3 12.2 12.1 12 11.9 11.8 11.7 11.6 11.5 l 0.05,-0.1 V 11.3 11.2 L 23.2,11.1 V 11 10.9 10.8 10.7 10.6 10.5 10.4 l 0.05,-0.1 V 10.2 10.1 10 9.9 9.8 L 23.3,9.65 v -0.1 -0.1 -0.1 -0.1 -0.1 -0.1 -0.1 l 0.05,-0.1 v -0.1 -0.1 -0.1 -0.1 l 0.05,-0.1 v -0.1 -0.1 -0.1 -0.1 -0.1 -0.1 -0.1 -0.1 l 0.05,-0.1 V 7.35 7.25 7.15 7.05 L 23.5,6.95 V 6.85 6.7 6.6 6.5 6.4 6.3 6.2 6.1 L 23.55,6 V 5.9 5.8 5.7 5.6 L 23.6,5.5 V 5.4 5.3 5.2 5.1 5 4.9 4.8 4.7 4.6 L 23.65,4.5 V 4.4 4.3 4.2 4.1 4 L 23.7,3.9 V 3.8 3.65 3.55 3.45 3.35 3.25 3.15 l 0.05,-0.1 v -0.1 -0.1 -0.1 -0.1 -0.1 -0.1 -0.1 -0.1 -0.1 -0.1 -0.1 -0.1 -0.1 l 0.05,-0.1 v -0.1 -0.1 -0.1 -0.1 l 0.05,-0.1 V 1.05 0.95 0.85 0.7 0.6 0.5 L 23.9,0.4 V 0.3 l 0.05,-0.1 0.1,-0.1 0.1,-0.05 V 0 h 0.2 l 0.2,0.05 0.1,0.1 0.05,0.1 0.1,0.1 v 0.1 0.1 0.1 0.1 0.1 l 0.05,0.1 v 0.1 0.1 0.1 l 0.05,0.1 v 0.1 0.1 0.1 V 1.8 1.9 2 2.1 2.2 2.3 l 0.05,0.1 V 2.5 2.6 2.7 2.8 2.9 3 3.1 L 25,3.2 V 3.3 3.4 3.5 3.6 3.7 3.8 3.9 4 4.1 4.2 4.3 4.4 4.5 l 0.05,0.1 v 0.1 0.15 0.1 0.1 0.1 l 0.05,0.1 v 0.1 0.1 0.1 0.1 0.1 0.1 0.1 0.1 l 0.05,0.1 v 0.1 0.1 0.1 l 0.05,0.1 v 0.1 0.1 0.1 0.1 0.1 0.1 0.1 0.1 0.1 l 0.05,0.1 V 7.65 7.8 7.9 8 L 25.3,8.1 V 8.2 8.3 8.4 8.5 8.6 8.7 8.8 8.9 L 25.35,9 v 0.1 0.1 0.1 l 0.05,0.1 v 0.1 0.1 0.1 0.1 0.1 0.1 0.1 0.1 0.1 l 0.05,0.1 v 0.1 0.1 0.1 0.15 l 0.05,0.1 v 0.1 0.1 0.1 0.1 0.1 l 0.05,0.1 v 0.1 0.1 0.1 0.1 0.1 0.1 l 0.05,0.1 v 0.1 0.1 0.1 0.1 0.1 0.1 0.1 0.1 0.1 0.1 0.1 0.1 0.1 0.1 0.15 l 0.05,0.1 V 14 l 0.05,0.1 v 0.1 0.1 l 0.05,0.1 v -0.05 -0.1 -0.1 -0.1 -0.1 -0.1 -0.1 -0.1 -0.1 l 0.05,-0.1 v -0.1 -0.1 -0.1 -0.1 -0.1 -0.1 -0.15 -0.1 -0.1 l 0.05,-0.1 V 12.3 12.2 12.1 12 11.9 11.8 11.7 11.6 11.5 11.4 11.3 11.2 11.1 11 10.9 10.8 L 25.9,10.7 V 10.6 10.5 10.4 10.3 10.2 10.1 10 L 25.95,9.9 V 9.8 9.65 9.55 9.45 9.35 9.25 9.15 9.05 8.95 8.85 8.75 8.65 8.55 8.45 L 26,8.35 v -0.1 -0.1 -0.1 l 0.05,-0.1 V 7.85 7.75 7.65 7.55 7.45 7.35 7.25 7.15 7.05 L 26.1,6.95 V 6.85 6.7 6.6 6.5 6.4 L 26.15,6.3 V 6.2 6.1 6 5.9 5.8 5.7 5.6 5.5 5.4 5.3 5.2 L 26.2,5.1 V 5 4.9 4.8 L 26.25,4.7 V 4.6 4.5 4.4 4.3 4.2 4.1 4 3.9 3.8 3.65 3.55 3.45 3.35 3.25 3.15 3.05 2.95 2.85 l 0.05,-0.1 v -0.1 -0.1 -0.1 -0.1 -0.1 -0.1 -0.1 -0.1 -0.1 l 0.05,-0.1 v -0.1 -0.1 -0.1 -0.1 l 0.05,-0.1 v -0.1 l 0.05,-0.1 v -0.1 l 0.1,-0.1 V 0.7 L 26.6,0.6 26.65,0.5 V 0.4 l 0.1,-0.1 0.05,-0.1 0.05,-0.1 0.1,-0.1 0.1,-0.05 0.05,-0.05 h 0.2 l 0.2,0.05 0.15,0.1 0.1,0.1 v 0.1 l 0.1,0.1 v 0.1 l 0.1,0.1 v 0.1 0.1 l 0.05,0.1 0.05,0.1 v 0.1 0.1 0.1 0.1 L 28,1.45 28.05,1.55 V 1.65 1.8 1.9 2 2.1 2.2 2.3 2.4 2.5 2.6 2.7 2.8 L 28.1,2.9 V 3 3.1 3.2 3.3 3.4 3.5 3.6 3.7 3.8 3.9 4 l 0.05,0.1 v 0.1 0.1 0.1 0.1 0.1 0.1 0.15 0.1 0.1 0.1 l 0.05,0.1 v 0.1 0.1 0.1 0.1 0.1 l 0.05,0.1 v 0.1 0.1 0.1 0.1 0.1 0.1 0.1 0.1 0.1 0.1 0.1 l 0.05,0.1 v 0.1 0.1 0.1 0.1 0.1 l 0.05,0.1 V 7.8 7.9 8 8.1 8.2 8.3 8.4 8.5 L 28.4,8.6 V 8.7 8.8 8.9 9 9.1 9.2 l 0.05,0.1 v 0.1 0.1 0.1 0.1 0.1 0.1 0.1 0.1 0.1 0.1 0.1 0.1 0.1 0.1 l 0.05,0.1 q 0.25,-5.65 0.85,-9.9 0.1,-0.6 0.3,-0.85 0.3,-0.55 0.8,-0.4 Q 31,-0.2 31.1,0.7 l 0.1,0.6 0.05,-0.05 0.1,0.05 V 1.25 l 0.05,-0.1 0.05,-0.1 0.05,-0.1 v -0.1 -0.1 l 0.05,-0.1 0.05,-0.1 0.05,-0.1 0.1,-0.1 0.1,-0.1 0.1,-0.1 0.15,-0.05 0.1,-0.05 h 0.25 V 0 l 0.3,0.1 0.2,0.1 0.15,0.1 0.05,0.1 0.05,0.1 0.1,0.1 v 0.1 l 0.05,0.1 V 0.9 L 33.4,1 v 0.1 0.1 0.1 0.05 l 0.05,-0.1 0.05,-0.1 V 1.05 0.95 L 33.55,0.85 33.6,0.7 V 0.6 0.5 0.4 0.3 L 33.65,0.2 V 0.1 L 33.7,0 l 0.05,-0.1 0.05,-0.1 0.1,-0.1 0.15,-0.1 0.1,-0.05 0.1,-0.05 h 0.2 v -0.05 l 0.35,0.1 0.15,0.1 0.15,0.1 0.05,0.1 0.05,0.1 0.05,0.1 0.05,0.1 v 0.1 0.1 0.1 0.1 0.1 l 0.05,0.1 0.45,-0.1 v -0.1 -0.1 l 0.05,-0.1 v -0.1 -0.1 l 0.05,-0.1 0.05,-0.1 0.1,-0.1 0.1,-0.1 0.15,-0.1 0.1,-0.1 h 0.1 0.15 V -0.5 M 50.5,7.2 v 1.75 q 1.4,0.4 2.4,1.45 l 0.7,0.85 0.25,0.6 q 0.7,1.35 0.75,2.6 0.1,1.6 -0.7,2.65 l -0.75,0.65 -0.9,0.2 -1.05,0.9 q -0.85,0.3 -2.25,-0.4 -0.4,0.9 -0.45,1.35 -0.1,0.8 0.5,1.3 l 0.6,0.45 Q 49.95,22 49.55,22.2 l -0.4,-0.05 -1.4,-1.05 q -0.35,-0.6 -0.25,-1.55 0,-1.45 0.6,-2.3 0.25,-0.3 0.6,-0.5 l -0.55,-0.5 -0.4,-0.55 -0.15,-0.55 -0.25,-0.5 q -0.15,-0.3 -0.15,-1.3 0.05,-1.1 0.25,-1.8 h -0.2 L 46.1,11.45 44.2,10.3 42.8,10.15 Q 42.1,9.9 41.65,9.3 41.2,8.55 41.5,7.05 q 0.1,-0.9 0.45,-1.4 0.4,-0.55 1.2,-0.75 0.7,-0.2 1.45,0 L 44.8,5 45.2,4.55 Q 45.65,4.2 46.6,4.2 h 0.25 l 0.1,-0.1 q 1,-1 2.35,-0.6 l 0.9,0.5 0.75,0.8 q 0.35,0.5 0.2,1.2 l -0.7,0.95 0.05,0.25 m 8.4,25.05 q -0.05,0.4 -0.7,0.85 -0.8,0.5 -2.8,0.9 l -3.1,0.55 q -0.7,0.1 -0.75,-0.25 -0.05,-0.15 0.35,-0.55 l 1.35,-0.8 q 2.35,-1.4 3.4,-1.7 l 1.45,-0.1 q 0.95,0.3 0.8,1.1 m -17.7,3.1 v 0.1 0.1 0.1 0.15 0.1 0.1 0.1 0.1 0.1 0.1 0.05 q 0.4,-0.3 0.75,-0.3 l 0.5,0.1 v -0.1 l -0.1,-0.1 -0.05,-0.1 -0.05,-0.1 -0.05,-0.1 -0.05,-0.1 v -0.1 -0.1 -0.1 -0.1 l -0.8,0.1 H 41.2 m 23.35,6.9 q 0.4,0.45 0.3,1.1 -0.1,0.65 -0.6,1 l -1.8,0.3 -3.4,-0.6 L 55.3,43.4 49.95,42.65 Q 48.35,42.45 47.85,42 L 47.6,41.75 q -0.05,-0.2 0.05,-0.3 l 0.55,-0.1 h 1.1 q 1.5,-0.15 3.9,-0.05 l 3.95,0.2 5.4,-0.05 q 1.5,0.1 2,0.8 M 61.65,51 60.2,50.85 56.55,49.8 q -4,-1.15 -5.95,-2.15 l -1.45,-0.7 Q 48.45,46.6 46.5,46 l -2.65,-1.05 q -0.6,-0.35 -0.35,-0.7 l 0.6,-0.1 4.2,0.85 4.2,0.85 3.3,1 2.55,0.55 2.55,0.55 q 0.95,0.3 1.35,0.75 0.5,0.6 0.3,1.35 -0.15,0.8 -0.9,0.95 M 6.3,18.15 q 0.15,-1 0.65,-1.8 Q 6.45,15.7 6.4,14.9 6.35,13.95 6.85,13.15 7.35,12.3 8.2,11.9 q 1.15,-0.65 2.35,-0.25 1.35,0.4 1.65,1.65 l 0.1,0.45 0.6,0.1 q 0.85,0.3 1.8,1.3 0.65,-0.5 1.45,-0.4 1,0.15 1.5,1.05 l 0.25,0.8 -0.1,0.95 -0.55,0.85 -0.95,0.65 H 15.95 L 15.9,19.2 q -0.35,2.3 -1.8,3.25 -1.1,0.85 -3.25,0.85 h -0.5 l -0.05,0.05 q -0.2,0.9 0.1,1.35 l 0.65,0.7 0.55,0.75 q 0.85,1.6 0.6,2.4 l -0.4,0.85 0.25,1.15 -0.1,0.8 -0.15,0.7 -0.3,0.65 q -0.7,1.05 -1.55,1.5 l -0.75,0.35 -0.75,0.2 -1.3,-0.3 Q 6.35,34.05 6.15,33.5 5.5,33.7 5.6,34.3 L 5.65,34.8 5.55,35.2 5.2,35.25 4.9,35 4.8,34.2 4.7,33.55 q 0,-0.7 1,-1.3 0.7,-0.4 1.15,-0.3 L 7.4,32.3 q 0.3,0.25 0.5,0.3 l 0.65,-0.1 0.9,-0.8 Q 9.85,31.2 9.6,30.75 L 9.45,30.6 H 9.1 L 7.35,30.4 6,29.7 5.05,29 4.5,28.15 Q 3.95,27.1 3.9,26.25 V 25.2 Q 4,24.1 4.3,23.35 4.7,22.35 6,21.25 L 6.7,20.7 6.65,20.45 6.3,19.05 v -0.9 m -4.85,17.3 q 0.45,-0.2 1.15,0 l 3.05,0.3 1,0.3 1.35,0.15 4.55,0.25 q 0.5,0 0.55,0.25 l -0.2,0.4 -2.85,0.15 -3.2,0.25 H 3.6 2.6 L 1.7,37.6 1.05,37.25 Q 0.75,37 0.7,36.6 0.6,35.7 1.45,35.45 m -1.8,5.05 0.15,-0.8 0.6,-0.55 0.85,-0.1 3.6,-0.05 2,-0.25 2.25,-0.25 0.4,0.1 0.1,0.25 -0.1,0.2 -5.15,1.2 q -2.3,0.6 -2.95,0.9 l -0.45,0.2 -0.8,-0.15 -0.5,-0.7 m 2.5,13.3 Q 1.35,54 0.75,53.45 0.2,53 0.2,52.15 0.3,51 2.05,50 3.7,48.95 7.2,47.15 q 3.9,-2.1 5.9,-2.9 l 2.25,-0.85 2.1,-1.1 0.6,-0.35 q 0.5,0 0.6,0.25 0.15,0.4 -0.4,0.8 l -1.2,0.75 -7,4.3 q -3.95,2.5 -6.5,4.85 l -1.4,0.9 m 0.65,1.55 5.5,-4.1 4.65,-3.85 2.55,-1.9 q 0.4,-0.25 0.5,0 l -0.15,0.35 -5.8,5.6 -5.6,5.8 L 3.1,58.3 Q 2.4,58.4 1.95,57.95 1.45,57.45 1.6,56.75 1.75,56.2 2.8,55.35 m 34.85,-20.3 -0.15,0.1 -0.2,0.1 -0.15,0.1 h -0.1 l -0.15,0.05 -0.35,0.05 -0.35,-0.05 -0.25,-0.05 -0.25,-0.1 -0.2,-0.1 -0.15,-0.1 -0.15,-0.1 -0.1,-0.1 -0.05,-0.15 -0.1,-0.1 -0.05,-0.1 -0.1,-0.1 v -0.1 l -0.05,-0.05 -0.3,0.05 -0.3,-0.05 H 34.05 34 l -0.05,0.1 -0.15,0.1 -0.15,0.1 -0.15,0.1 -0.2,0.1 -0.1,0.1 h -0.1 l -0.15,0.05 -0.15,0.05 h -0.35 -0.2 q -0.2,1.55 -1.1,2 -1.15,0.6 -2.4,-0.45 l -0.7,-0.95 -0.15,0.05 -0.05,0.05 H 27.7 l -0.15,0.05 -0.35,0.05 -0.4,-0.05 -0.15,-0.05 -0.2,-0.05 -0.2,-0.1 -0.2,-0.1 -0.15,-0.1 -0.1,-0.1 -0.1,-0.1 -0.1,-0.1 -0.1,-0.1 -0.1,0.05 -0.1,0.1 -0.2,0.1 -0.2,0.05 -0.1,0.05 H 24.65 L 24.35,35.3 24,35.25 23.75,35.2 23.5,35.1 23.3,35 23.2,34.9 23.1,34.8 23,34.7 22.9,34.6 22.8,34.5 22.75,34.4 22.65,34.3 V 34.2 L 22.6,34.1 22.55,34 V 33.9 L 22.5,33.8 v -0.15 -0.1 l -0.05,-0.1 v -0.1 -0.1 -0.1 -0.1 -0.1 -0.1 -0.1 -0.1 -0.1 -0.1 -0.1 -0.1 -0.1 l 0.05,-0.1 v -0.1 -0.1 -0.1 -0.1 -0.1 -0.1 -0.1 -0.1 -0.1 -0.1 -0.1 -0.1 -0.15 -0.1 -0.1 -0.1 -0.1 -0.1 -0.1 L 22.55,30 V 29.9 29.8 29.7 29.6 29.5 29.4 29.3 29.2 29.1 29 28.9 28.8 28.7 28.6 28.5 28.4 28.3 28.2 28.1 28 v -0.1 -0.1 -0.15 -0.1 -0.1 -0.1 -0.1 -0.1 -0.1 -0.1 l -0.1,0.05 -0.15,0.05 -0.1,0.05 -0.15,0.05 h -0.3 -0.1 l -0.05,0.1 -0.15,2 -0.05,0.7 -0.2,1.95 q -0.15,1.95 0.05,3.1 l 0.25,1 0.5,0.75 q 2.15,2.95 7.35,4.8 l 2.7,0.6 2.3,-0.35 q 3.3,-1.05 5.35,-3.6 H 39.5 39.15 L 38.9,38.1 38.65,38 38.5,37.9 l -0.15,-0.1 -0.1,-0.1 -0.1,-0.1 -0.05,-0.1 -0.05,-0.1 -0.1,-0.1 v -0.1 l -0.1,-0.1 V 37 36.9 L 37.8,36.8 v -0.1 -0.1 l -0.05,-0.1 v -0.1 -0.1 -0.1 -0.1 -0.1 -0.1 -0.1 -0.15 -0.1 -0.1 -0.1 -0.1 -0.1 -0.1 V 35 l -0.1,0.05 M 13.6,56.05 12,57.5 10.75,57.6 Q 10.1,57.45 9.8,56.95 9.35,56.1 9.95,55.15 l 1.35,-1.3 q 6.05,-4.5 9.2,-7.75 L 22,44.7 q 0.6,-0.5 0.85,-0.1 0.3,0.25 -0.2,0.85 l -6.1,7.3 -1.75,2.2 -1.2,1.1 m 24.55,-6.4 0.7,0.6 1.35,1.3 0.95,0.75 1.4,0.7 1.35,0.95 1.75,1.65 0.55,0.6 q 0.4,0.65 0.15,1.3 -0.25,0.65 -0.9,0.9 -0.9,0.3 -1.8,-0.35 L 42.8,57.3 40.95,55 39.1,52.8 Q 38.25,51.85 37.7,50.45 V 49.9 l 0.45,-0.25"
         fill="#767676"
         fill-rule="evenodd"
         stroke="none"
         id="path4" />
      <path
         d="m 58.9,34.15 -2.15,-0.3 -1.2,-0.95 -0.2,-0.2 q -1.1,0.35 -2.45,-0.3 -1.05,-0.55 -1.3,-1.25 -0.25,-0.55 -0.15,-1.7 0.2,-1.7 0.95,-2.35 0.6,-0.45 1.6,-0.45 l 0.35,0.05 0.35,-0.6 q 0.65,-0.85 1.6,-1.4 -0.05,-0.7 0.25,-1.4 0.4,-0.9 1.2,-1.3 0.7,-0.4 1.6,-0.35 0.8,0.05 1.6,0.45 1.05,0.55 1.3,1.45 v 1.15 l 0.45,0.3 0.55,0.9 0.45,1.5 -0.05,2.5 -0.35,1.45 0.65,0.65 q 0.7,1 0.8,2.5 0.4,2.95 -0.95,5.75 l -0.75,1.25 q -1.2,1.75 -2.9,2.15 l -1.8,0.15 -1.1,-0.15 -0.2,-0.1 -0.8,0.25 -0.95,0.05 -0.9,0.1 -0.45,0.2 -0.45,0.65 -0.3,0.95 q -0.25,1.3 1.1,2.25 l 0.65,0.4 1.3,0.5 0.6,0.1 0.25,0.5 -0.55,0.3 -1.15,0.05 -0.65,-0.25 Q 53,48.8 51.9,47.9 l -0.45,-0.55 -0.2,-0.55 q -0.35,-1.45 0,-2.6 0.2,-0.8 0.5,-1.25 0.95,-1.6 2.85,-1.85 l 0.55,-0.05 V 41 l 0.05,-1 q 0.3,-1.4 0.75,-2.15 l 1.8,-1.7 q 1.2,-0.9 1.5,-1.9 v -0.1 H 58.9 M 37,8.25 q 0.7,0.35 2.05,1.5 l 2.1,2.1 1.5,-0.25 1.45,-0.15 1.8,0.2 0.75,0.1 1,0.9 q 0.25,0.65 0.1,1.4 l -0.85,1.4 -1.05,1.15 -0.45,0.95 -0.15,0.6 -0.5,0.9 -0.85,1.05 -0.55,0.3 q -0.25,1.9 -1.05,3.45 l -0.1,0.25 0.15,1.95 -0.1,1.5 q 2.4,-0.5 4.35,0 1.5,0.35 2.7,1.4 1.25,1.05 1.65,2.5 l 0.25,1.85 q 0,2.05 -0.7,3 -0.8,1.25 -2.25,1.4 l 0.4,1.05 q 0.6,2.15 -0.25,4 l -0.95,1.4 q -0.9,0.8 -2.2,0.65 Q 44.55,44.75 43.9,44.2 43,43.35 43,41.95 43,41.1 43.45,39.6 v -0.4 q -0.1,-0.15 -0.35,-0.15 l -0.85,0.1 -1.4,0.6 Q 40.1,40.9 38.45,41.9 35.25,43.75 32,43.7 28.95,43.65 25.95,41.85 23.2,40.25 21.05,37.5 19.8,36 19.4,34.55 q -0.3,-1.2 -0.1,-2.75 0.15,-1.5 0.65,-3 l 0.7,-1.35 -1.05,0.2 -2,0.6 q -2.1,0.9 -2.35,2.8 V 33 q 0,1.35 -0.5,1.9 -0.35,0.45 -1.4,0.8 l -2.5,-0.05 q -1.3,-0.4 -1.75,-1.6 l -0.2,-1.2 q 0,-3.1 2.2,-5.65 1.95,-2.2 5.2,-2.95 L 18.25,24 20.8,23.95 20.35,22.7 Q 19.95,21.4 19.9,20.3 V 19.15 Q 17.7,18.2 16.25,16 q -1.8,-2.6 -1.65,-5.5 0.2,-2.45 1.35,-4 1.5,-1.8 3.6,-1.75 1.1,0.05 2,0.7 0.9,0.65 1.1,1.7 0.5,1.55 -0.7,3.55 -1.05,1.6 -1.15,2.05 -0.45,1.25 0.3,2.05 0.5,-1.1 1.3,-2.05 L 23.2,11.9 22.9,9.1 V 8.2 l 0.25,-1.05 0.3,-0.9 Q 24.2,5.2 25.6,5.55 26.3,5.7 27.75,6.7 l 1.45,1.1 0.6,0.45 4.3,-0.5 q 1.7,0 2.9,0.5 m 23.9,21.3 0.25,0.25 -0.1,0.5 0.15,1.1 v 0.45 q 0.1,0.35 0.35,0.25 l 0.2,-0.3 v -0.4 l 0.1,-0.4 v -0.35 l 0.2,-0.3 0.1,-0.1 0.45,-0.35 0.7,-0.1 0.15,-0.25 -0.05,-0.3 -0.15,-0.15 -0.8,-0.1 -0.1,0.05 -0.55,0.05 h -0.15 l -0.6,-0.4 -0.2,-0.1 -0.35,-0.1 q -0.25,0 -0.4,0.15 -0.25,0.35 0.05,0.55 l 0.25,0.1 0.25,0.2 0.25,0.05 m -5.3,1.15 q 0.5,1.05 1.65,0.95 l 0.95,-0.4 0.55,-0.85 -0.1,-1.05 -0.65,-0.8 q -0.5,-0.3 -1.05,-0.25 -0.55,0.05 -0.95,0.4 -0.4,0.35 -0.5,0.95 -0.15,0.55 0.1,1.05 m 4.5,-4.7 0.1,-0.3 0.2,-0.25 -0.15,-0.35 -0.4,0.05 q -0.3,0.15 -0.4,0.8 l -0.15,0.55 -0.1,1.2 q 0.1,0.35 0.35,0.35 l 0.3,-0.05 1.7,-0.95 0.6,-0.75 -0.3,-0.4 -0.45,-0.1 -0.55,0.35 -0.9,0.7 q 0,-0.4 0.15,-0.85 m -19.2,-4.7 0.4,-1.05 q 0.1,-0.75 -0.4,-1.4 -0.5,-0.65 -1.2,-0.8 h -0.1 l -0.95,0.8 -1.5,0.85 q -0.1,0.55 0.1,1.1 0.3,0.75 0.95,1.1 l 2.15,-0.05 0.55,-0.55 m 0.75,12.5 0.15,0.85 0.9,-0.2 h 1.45 L 44.1,34.1 Q 44,32.85 44.2,31.95 l -3.05,0.55 0.5,1.3 M 35.2,20.35 q -0.8,0.5 -0.9,1.45 -0.1,0.7 -0.4,0.8 L 33.6,22.55 Q 33.1,22.3 33.1,21.8 L 33,20.8 31.95,20.7 31,21.35 30.4,21.45 29.95,21.1 q -0.1,-0.2 0.1,-0.65 l 0.3,-0.7 q 0.1,-0.45 -0.3,-0.55 l -0.45,0.15 q -0.85,0.6 -1,1.55 -0.1,1.1 0.75,1.65 L 31.8,22.5 q 0.45,1.05 1.2,1.45 l 1.8,-0.05 q 0.6,-0.45 0.8,-1.8 0.25,-1.35 -0.4,-1.75 m -8.95,-5.5 q -0.8,0.25 -1.35,1 -0.5,0.7 -0.45,1.55 0.1,0.85 0.75,1.5 0.6,0.65 1.45,0.7 1.05,0 1.7,-0.65 L 29.1,17.5 28.25,16.4 27.75,15.1 27.7,14.85 q -0.65,-0.25 -1.45,0 m -6.3,27.2 0.65,0.75 q 0.85,1.05 0.85,2.9 l -0.05,0.75 q 0.8,0.2 2,0.75 l 2.75,1.25 q 1.35,0.75 2.1,1.75 l 1.05,-0.7 q 0.75,-0.75 1,-1.85 l 0.2,-0.85 0.65,-0.7 0.7,-0.6 0.95,-0.3 1.85,-0.2 1.95,0.35 0.45,0.15 0.35,0.2 0.15,0.4 q -0.15,0.35 -0.75,0.2 l -1.85,-0.05 q -1.35,0.2 -2.1,0.75 l -0.4,0.55 0.1,0.65 q 0.3,1 -0.1,2.15 l -1.25,1.8 -1.5,1 -0.45,0.25 -0.1,0.8 q -0.25,1.2 -1.2,1.8 l -1.5,0.45 -1.65,0.05 Q 23.35,56.3 21.15,54.85 L 20.1,54 19.2,52.95 17.4,51.05 16.5,51.5 15.1,52 13.2,51.9 Q 10.6,51.2 9.6,49.25 L 9.45,48.85 8.65,49.1 6.95,48.85 Q 6.2,48.5 5.75,47.65 5.3,46.9 5.3,46 5.3,45.25 5.6,44.65 6,43.8 6.9,43.35 7.8,42.9 8.8,43 l 0.85,0.3 0.05,-0.1 q 1.05,-1.55 2.75,-2.55 l -0.05,-0.5 q 0.1,-0.85 0.35,-1.35 l 0.4,-0.75 0.75,-1 q 0.5,-0.5 1.5,-0.7 l 1,-0.05 1.75,0.2 q 0.7,0.3 1.1,0.95 l 0.35,0.8 0.3,0.85 v 0.1 l 0.05,0.1 0.05,0.9 -0.25,1.05 -0.15,0.35 0.35,0.45 m -4.9,7.1 -0.1,0.55 0.1,0.4 0.35,0.05 0.2,-0.4 0.9,-1.35 0.25,0.05 1.3,-0.4 1.05,-0.5 0.1,-0.35 Q 19.1,47 18.85,47 l -0.4,0.1 -1.4,0.2 L 17,47.15 16.55,46.6 q -0.55,-0.45 -0.9,-0.45 -0.25,0 -0.5,0.15 l -0.2,0.4 0.35,0.35 0.25,0.7 v 0.05 l -0.5,1.35 m -3.7,-0.95 0.35,-0.1 -0.25,0.45 q -0.15,0.45 0,0.9 0.35,0.55 0.75,0.3 l 0.35,-0.4 0.4,-0.7 0.1,-0.25 0.45,-0.5 q 0.25,-0.3 0.05,-0.7 -0.15,-0.35 -0.6,-0.45 l -0.5,0.2 -0.35,0.15 -0.5,0.1 -0.6,0.2 -0.75,0.25 Q 9.8,48 10.05,48.3 l 0.35,0.15 0.95,-0.25 m 4.5,-3.05 0.55,-0.4 1.15,-0.45 q 0.8,-0.4 0.55,-1 -0.15,-0.55 -0.95,-0.35 l -1,0.5 q 0,-0.3 0.3,-0.7 l 0.25,-0.7 q 0,-0.5 -0.35,-0.65 -0.5,-0.15 -0.85,0.55 -0.65,1.1 -0.7,2.25 -0.1,0.5 0.2,0.85 l 0.85,0.1 M 37.75,28.2 q -2.45,1.3 -6.05,1.6 l -1.95,0.05 0.55,0.35 q 1.35,0.9 2.25,1.1 H 34.3 Q 36,29.95 38,29.05 l 0.15,-1.05 -0.4,0.2"
         fill="#000000"
         fill-rule="evenodd"
         stroke="none"
         id="path5" />
      <path
         d="m 40.9,21.3 -0.55,0.55 -2.15,0.05 q -0.65,-0.35 -0.95,-1.1 -0.2,-0.55 -0.1,-1.1 l 1.5,-0.85 0.95,-0.8 h 0.1 q 0.7,0.15 1.2,0.8 0.5,0.65 0.4,1.4 L 40.9,21.3 M 60.1,26 q -0.15,0.45 -0.15,0.85 l 0.9,-0.7 0.55,-0.35 0.45,0.1 0.3,0.4 -0.6,0.75 -1.7,0.95 -0.3,0.05 q -0.25,0 -0.35,-0.35 l 0.1,-1.2 0.15,-0.55 q 0.1,-0.65 0.4,-0.8 l 0.4,-0.05 0.15,0.35 -0.2,0.25 -0.1,0.3 m -4.5,4.7 q -0.25,-0.5 -0.1,-1.05 0.1,-0.6 0.5,-0.95 0.4,-0.35 0.95,-0.4 0.55,-0.05 1.05,0.25 l 0.65,0.8 0.1,1.05 -0.55,0.85 -0.95,0.4 Q 56.1,31.75 55.6,30.7 M 60.9,29.55 60.65,29.5 60.4,29.3 60.15,29.2 Q 59.85,29 60.1,28.65 60.25,28.5 60.5,28.5 l 0.35,0.1 0.2,0.1 0.6,0.4 h 0.15 l 0.55,-0.05 0.1,-0.05 0.8,0.1 0.15,0.15 0.05,0.3 -0.15,0.25 -0.7,0.1 -0.45,0.35 -0.1,0.1 -0.2,0.3 V 31 l -0.1,0.4 v 0.4 l -0.2,0.3 Q 61.3,32.2 61.2,31.85 V 31.4 l -0.15,-1.1 0.1,-0.5 -0.25,-0.25 M 26.25,14.85 q 0.8,-0.25 1.45,0 l 0.05,0.25 0.5,1.3 0.85,1.1 -0.75,1.45 Q 27.7,19.6 26.65,19.6 25.8,19.55 25.2,18.9 24.55,18.25 24.45,17.4 24.4,16.55 24.9,15.85 q 0.55,-0.75 1.35,-1 m 8.95,5.5 q 0.65,0.4 0.4,1.75 -0.2,1.35 -0.8,1.8 L 33,23.95 q -0.75,-0.4 -1.2,-1.45 l -2.45,0.05 Q 28.5,22 28.6,20.9 q 0.15,-0.95 1,-1.55 l 0.45,-0.15 q 0.4,0.1 0.3,0.55 l -0.3,0.7 q -0.2,0.45 -0.1,0.65 l 0.45,0.35 0.6,-0.1 0.95,-0.65 1.05,0.1 0.1,1 q 0,0.5 0.5,0.75 l 0.3,0.05 q 0.3,-0.1 0.4,-0.8 0.1,-0.95 0.9,-1.45 M 9.95,17.1 9.8,16.3 9.55,15.75 q 0,-0.35 0.4,-0.35 l 0.5,0.55 0.4,0.65 0.25,0.25 0.2,0.5 0.2,0.1 0.25,0.6 q 0,0.4 -0.35,0.55 L 10.05,18.55 8.1,18.3 7.9,18.1 7.95,17.85 8.35,17.65 10.1,17.35 9.95,17.1 m 2.25,4.2 0.35,0.3 0.05,0.45 -0.3,0.15 -0.2,0.05 -0.25,-0.1 L 11.1,21.4 10.85,21.2 10.8,21.05 h -0.05 l -1.45,0.2 -0.9,-0.2 q -0.2,-0.1 0,-0.3 l 0.25,-0.2 1.1,-0.4 1.3,-0.25 h 0.1 l 0.25,-0.6 q 0.2,-0.3 0.45,-0.35 l 0.5,0.55 -0.05,0.75 -0.1,0.2 -0.05,0.5 -0.1,0.25 0.15,0.1 m 2.9,-3.1 q 0.3,0.45 0.2,1 l -0.55,0.9 -1.05,0.2 q -0.55,-0.15 -0.8,-0.65 -0.35,-0.7 -0.05,-1.3 0.45,-0.7 1.1,-0.7 0.7,-0.1 1.15,0.55 M 15.85,45.15 15,45.05 q -0.3,-0.35 -0.2,-0.85 0.05,-1.15 0.7,-2.25 0.35,-0.7 0.85,-0.55 0.35,0.15 0.35,0.65 l -0.25,0.7 q -0.3,0.4 -0.3,0.7 l 1,-0.5 q 0.8,-0.2 0.95,0.35 0.25,0.6 -0.55,1 l -1.15,0.45 -0.55,0.4 M 11.35,48.2 10.4,48.45 10.05,48.3 Q 9.8,48 10.25,47.65 L 11,47.4 l 0.6,-0.2 0.5,-0.1 0.35,-0.15 0.5,-0.2 q 0.45,0.1 0.6,0.45 0.2,0.4 -0.05,0.7 l -0.45,0.5 -0.1,0.25 -0.4,0.7 -0.35,0.4 q -0.4,0.25 -0.75,-0.3 -0.15,-0.45 0,-0.9 l 0.25,-0.45 -0.35,0.1 m 3.7,0.95 0.5,-1.35 v -0.05 l -0.25,-0.7 -0.35,-0.35 0.2,-0.4 q 0.25,-0.15 0.5,-0.15 0.35,0 0.9,0.45 l 0.45,0.55 0.05,0.15 1.4,-0.2 0.4,-0.1 q 0.25,0 0.35,0.2 l -0.1,0.35 -1.05,0.5 -1.3,0.4 -0.25,-0.05 -0.9,1.35 -0.2,0.4 -0.35,-0.05 -0.1,-0.4 0.1,-0.55"
         fill="#ffffff"
         fill-rule="evenodd"
         stroke="none"
         id="path6" />
    </g>
    <g
       id="shape2"
       transform="translate(1.5,1.5)">
      <path
         d="M 0,23.8 V 0 H 64.1 V 23.8 57.55 H 0 Z"
         fill="none"
         stroke="#000000"
         stroke-linecap="round"
         stroke-linejoin="round"
         stroke-width="3"
         id="path7" />
    </g>
  </defs>
</svg>
