<?xml version="1.0" encoding="UTF-8" standalone="no"?>
<svg
   ffdec:objectType="frame"
   height="44.349998"
   width="78.599998"
   version="1.1"
   id="svg12"
   sodipodi:docname="51.svg"
   xmlns:inkscape="http://www.inkscape.org/namespaces/inkscape"
   xmlns:sodipodi="http://sodipodi.sourceforge.net/DTD/sodipodi-0.dtd"
   xmlns:xlink="http://www.w3.org/1999/xlink"
   xmlns="http://www.w3.org/2000/svg"
   xmlns:svg="http://www.w3.org/2000/svg"
   xmlns:ffdec="https://www.free-decompiler.com/flash">
  <sodipodi:namedview
     id="namedview12"
     pagecolor="#ffffff"
     bordercolor="#000000"
     borderopacity="0.25"
     inkscape:showpageshadow="2"
     inkscape:pageopacity="0.0"
     inkscape:pagecheckerboard="0"
     inkscape:deskcolor="#d1d1d1"
     fit-margin-top="5"
     fit-margin-left="5"
     fit-margin-right="5"
     fit-margin-bottom="5" />
  <g
     transform="translate(2,2.05)"
     id="g3">
    <use
       ffdec:characterId="1"
       height="42.700001"
       transform="translate(-1.75,-2)"
       width="76.449997"
       xlink:href="#shape0"
       id="use1" />
    <use
       ffdec:characterId="51"
       height="41"
       transform="translate(-0.8,-0.05)"
       width="75.650002"
       xlink:href="#shape1"
       id="use2" />
    <use
       ffdec:characterId="3"
       height="44.349998"
       transform="translate(-2,-2.05)"
       width="78.599998"
       xlink:href="#shape2"
       id="use3" />
  </g>
  <defs
     id="defs12">
    <g
       id="shape0"
       transform="translate(1.75,2)">
      <path
         d="M 2.8,0 V -0.4 H 5.4 V 0 H 9.7 V 19.45 0 H 20.55 L 19.3,19.45 H 9.7 0.25 V 0 H 2.8"
         fill="#ffffff"
         fill-rule="evenodd"
         stroke="none"
         id="path3" />
      <path
         d="M 0.25,19.45 H 9.7 19.3 L 18.7,28.6 16,28.5 10.95,27.95 9.7,27.8 Q 7.45,27.6 5.85,27.75 4.05,27.9 1.5,28.6 0.75,28.8 0.25,29.15 v -9.7 m 9.45,0 v 8.35 -8.35"
         fill="#121212"
         fill-rule="evenodd"
         stroke="none"
         id="path4" />
      <path
         d="m 9.7,27.8 1.25,0.15 5.05,0.55 2.7,0.1 h 1.05 l 3.75,0.15 q 2.45,0.3 3.6,1.25 0.6,0.5 0.6,1.1 0,0.65 -0.8,1 l -1.3,0.2 -7.15,0.15 -5.6,-0.3 L 9.7,31.75 7.95,31.6 3.1,31.95 0.95,32.3 0.25,32.1 -0.35,31.55 -0.5,31.3 V 29.9 L 0.25,29.15 Q 0.75,28.8 1.5,28.6 4.05,27.9 5.85,27.75 7.45,27.6 9.7,27.8 v 3.95 -3.95"
         fill="#999999"
         fill-rule="evenodd"
         stroke="none"
         id="path5" />
      <path
         d="M 2.8,0 H 0.25 M 9.7,0 H 5.4 m 16.15,0 h 10.7 M 20.55,0 H 9.7"
         fill="none"
         stroke="#666666"
         stroke-linecap="round"
         stroke-linejoin="round"
         stroke-width="4"
         id="path6" />
      <path
         d="m 9.7,-0.4 h 65 V 40.5 H 47.05 L 45.5,40.7 27,40.65 25.95,40.5 H 9.7 -0.5 V -0.4 H 9.7 V 40.5 -0.4"
         fill="#ffffff"
         fill-rule="evenodd"
         stroke="none"
         id="path7" />
    </g>
    <g
       id="shape1"
       transform="translate(0.8,0.05)">
      <path
         d="m 44.15,5.4 q 0.05,1 -0.6,2.5 -0.75,1.8 -0.85,2.5 -0.2,1.2 0.15,2.4 0.4,1.25 1.3,2.1 l 1,0.85 1.1,0.8 q 1.3,0.85 1.65,2.05 l 0.1,0.4 0.6,0.4 0.55,0.35 1.15,0.2 2.45,0.2 q 0.9,-0.6 1.75,-0.25 0.95,0.45 1.1,1.4 0.1,1.05 -0.65,1.6 l -0.75,0.4 -1,0.05 -1.3,-0.05 -1.65,-0.45 -2.8,-1.75 -0.55,0.6 q -1.15,1.05 -2.45,0.9 -1.6,-0.2 -2,-1.6 l -0.2,-0.75 -0.45,-0.4 Q 39.45,18.1 38.35,16 37,13.6 37.15,11 l 0.1,-1.5 -0.4,-1.3 Q 36.25,6.4 36.65,4.9 L 37,3.9 36.65,3.6 q -0.7,-0.8 -0.55,-1.9 0.15,-1 1.1,-1.6 l 0.4,-0.15 h 5.85 l 0.3,0.15 0.65,0.45 0.35,0.35 h 0.05 l 0.6,-0.05 h 0.2 0.45 0.3 V 0.8 h 1.3 l 2.15,0.05 h 4.2 1.05 l 2.1,0.05 h 0.25 0.25 l 0.15,0.05 h 0.3 L 58.45,1 h 1.1 0.55 l 0.35,0.05 h 0.2 L 61.1,1.1 h 0.4 0.35 l 0.35,0.05 h 0.2 0.2 l 0.2,0.05 h 0.15 l 0.1,0.05 h 0.1 l 0.15,0.05 0.1,0.05 h 0.05 0.4 l 0.2,0.05 h 0.25 0.15 l 0.1,0.05 h 0.15 l 0.05,0.05 h 0.1 0.05 l 0.05,0.05 h 0.1 l 0.1,0.05 h 0.2 0.25 l 0.15,0.05 h 0.2 0.15 l 0.15,0.05 h 0.1 l 0.1,0.05 h 0.1 0.1 L 66.7,1.8 h 0.1 0.05 l 0.05,0.05 h 0.3 l 0.15,0.05 h 1.05 0.15 l 0.1,0.05 h 0.1 L 68.9,2 69.05,2.05 h 0.05 0.1 l 0.1,0.05 h 0.4 L 69.85,2.15 69.9,2.2 69.95,2.25 70,2.3 V 2.4 2.55 L 69.85,2.7 69.7,2.75 69.3,2.8 H 69.2 L 69.1,2.85 68.95,2.9 H 68.9 68.8 l -0.05,0.05 h -0.1 -0.1 L 67.35,3 H 67.2 L 67,3.05 H 66.85 66.8 L 66.7,3.1 h -0.05 l -0.1,0.05 H 66.4 L 66.35,3.2 H 66.25 66.1 L 65.8,3.25 H 65.75 L 65.45,3.3 H 65.35 65.1 L 64.95,3.35 64.85,3.4 H 64.7 V 3.45 H 64.5 64.45 L 64.2,3.5 H 64.05 L 63.45,3.55 63.3,3.6 h -0.15 v 0.05 h -0.1 L 62.8,3.7 H 62.6 62.4 V 3.75 H 61.95 L 61.7,3.8 h -0.6 -0.25 l -0.2,0.05 H 60.1 59.65 L 58.45,3.9 H 58.3 L 57.8,3.95 H 57.65 L 57.4,4 h -2.15 l -1.3,0.05 H 49.8 47.85 46.35 46.05 45.4 V 4 H 44.55 V 3.95 h -0.2 -0.1 L 44.1,3.9 h -0.25 l 0.3,1.5 m 6.05,10.15 h 0.85 0.35 0.25 l 0.6,0.05 h 0.25 l 0.05,0.05 h 0.1 0.1 l 0.4,0.05 h 0.3 l 0.4,0.05 h 0.25 0.4 l 0.3,0.05 h 0.8 0.3 l 0.5,0.05 h 0.25 l 0.25,0.05 h 0.4 0.2 l 0.35,0.05 h 0.3 L 58.5,16 h 0.55 0.3 l 0.35,0.05 h 0.2 0.15 l 0.1,0.05 h 0.15 l 0.1,0.05 h 0.05 0.15 l 0.05,0.05 h 0.1 0.1 l 0.1,0.05 h 0.15 l 0.1,0.05 h 0.15 0.1 l 0.05,0.05 h 0.1 l 0.1,0.05 h 0.1 1.25 l 0.3,0.05 h 0.8 0.2 l 0.15,0.05 h 0.05 l 0.15,0.05 0.2,0.05 h 0.4 l 0.25,0.05 h 0.1 0.2 l 0.4,0.05 h 0.35 0.3 l 0.1,0.05 h 0.1 l 0.1,0.05 h 0.1 0.1 l 0.15,0.05 h 0.1 l 0.15,0.05 h 0.15 0.1 l 0.2,0.05 h 0.2 0.1 L 69.9,17 H 70 l 0.25,0.05 h 0.15 v 0.05 l 0.05,0.1 v 0.05 L 70.4,17.3 70.35,17.35 70.1,17.4 H 69.95 69.9 l -1.35,0.05 H 68.45 68.2 L 68.15,17.5 H 68 l -0.1,0.05 h -0.15 -0.2 l -0.1,0.05 h -0.2 l -0.15,0.05 -0.2,0.05 h -0.35 -0.2 l -0.5,0.05 H 65.8 L 65.55,17.8 H 65.4 65 l -0.15,0.05 h -0.1 -0.05 l -0.05,0.05 h -0.1 L 64.5,17.95 H 64.3 63.5 L 63.05,18 h -1.1 -0.25 v 0.05 h -0.1 l -0.1,0.05 h -0.1 -0.05 l -0.25,0.05 h -0.15 l -0.1,0.05 H 60.7 l -0.1,0.05 h -0.05 -0.1 L 60.4,18.3 h -0.25 l -0.1,0.05 h -0.2 l -0.3,0.05 h -0.5 L 58.7,18.45 H 58.3 57.95 L 57.7,18.5 h -0.2 -0.6 l -0.25,0.05 h -0.1 L 56.1,18.6 h -0.3 -0.9 l -0.45,0.05 H 54.3 l -0.25,0.05 h -0.6 -0.05 l -0.65,0.05 h -0.1 -0.1 L 52.5,18.8 51.75,18.85 H 51.4 51 50 49.85 l -0.1,-0.05 -0.2,-0.05 -0.1,-0.05 -0.1,-0.1 -0.1,-0.05 L 49.2,18.5 49.1,18.45 49.05,18.4 49,18.35 48.95,18.25 48.8,18.1 V 18.05 L 48.75,18 48.7,17.95 v -0.1 L 48.65,17.8 V 17.7 L 48.6,17.65 v -0.1 l -0.05,-0.1 V 17.2 17.1 16.9 L 48.6,16.85 V 16.8 16.7 l 0.05,-0.05 V 16.6 L 48.7,16.55 V 16.5 l 0.05,-0.05 V 16.4 l 0.05,-0.1 0.15,-0.15 V 16.1 l 0.1,-0.05 0.05,-0.05 0.05,-0.1 0.05,-0.05 0.1,-0.05 0.1,-0.05 0.15,-0.05 0.15,-0.05 0.1,-0.05 0.05,-0.05 H 50 50.2 m 22.4,2.3 h 0.15 0.6 1.5 v 2.55 h -1.7 -0.2 -0.55 -0.35 L 71.85,20.35 71.65,20.3 71.5,20.25 71.35,20.2 H 71.3 l -0.15,-0.05 h -0.3 -0.3 l -1,-0.05 -0.25,-0.05 H 69.2 L 69.1,20 H 68.9 68.75 L 68.6,19.95 H 68.45 L 68.2,19.9 h -0.1 l -0.05,-0.05 h -0.1 V 19.8 h -0.2 l -0.6,-0.05 h -0.5 L 66.5,19.7 h -0.1 l -0.2,-0.05 h -0.1 -1 V 19.6 H 65 64.85 l -0.1,-0.05 H 63.9 L 63.75,19.5 H 63.7 63.6 V 19.45 L 63.3,19.4 63.25,19.35 63.2,19.3 63.15,19.25 V 19.1 19 l 0.15,-0.15 h 0.05 0.1 l 0.1,-0.05 0.05,-0.05 h 0.1 l 0.05,-0.05 h 0.1 0.15 0.1 0.7 0.1 0.1 l 0.1,-0.05 h 0.15 L 66.2,18.6 h 0.1 0.1 l 0.15,-0.05 h 0.1 l 0.5,-0.05 h 0.6 L 68,18.45 68.1,18.4 68.2,18.35 h 0.1 0.15 l 0.3,-0.05 h 0.15 l 0.2,-0.05 h 0.1 l 0.15,-0.05 h 0.15 l 0.2,-0.05 h 1.05 l 0.3,-0.05 H 71.3 L 71.5,18 h 0.1 l 0.05,-0.05 h 0.1 0.1 l 0.1,-0.05 h 0.2 0.45 v -0.05 m -18.3,9.25 -0.55,-0.35 -0.8,-0.7 -0.3,-0.55 Q 52.6,25.15 52.9,24.9 L 53.55,24.85 54,25.2 q 0.55,0.5 2.05,0.8 l 2.6,0.4 0.75,-0.2 q 1.35,-0.4 2.25,0.65 0.4,0.5 0.45,1.15 0.05,0.65 -0.35,1.15 -0.6,0.75 -1.6,0.85 L 58.3,29.9 Q 56.55,29.7 55.8,29 L 54.55,27.55 54.3,27.1 m -22.35,1.5 -1.3,-1.75 Q 29.5,25.6 28.65,25.4 H 27.5 l -1.2,0.1 Q 25.05,25.4 24.4,24.55 L 24.15,24.4 24.05,24.35 H 23.75 23.2 L 22.05,24.4 H 20.4 19.35 19.1 L 17.95,24.35 H 17.7 L 17.4,24.3 H 17.1 17 V 24.25 H 16.85 16.8 L 16.45,24.2 h -0.2 L 15,24.15 H 14.7 14.4 L 14.15,24.1 h -0.7 -0.65 l -0.65,-0.05 h -0.3 L 11.8,24 H 11.7 11.6 L 11.5,23.95 H 11.4 V 23.9 H 11 10.25 L 9.95,23.85 H 9.7 9.45 V 23.8 H 9.35 L 7.7,23.75 H 7.6 7.4 L 7.25,23.7 H 6.5 L 5.6,23.65 H 4.95 L 4.85,23.6 H 4.8 4.7 L 4.65,23.55 H 4.5 L 3.85,23.5 H 3.5 3.3 V 23.45 H 3.1 L 2.95,23.4 H 2.8 L 2.65,23.35 2.5,23.3 2.3,23.25 H 2 1.55 L 1.5,23.2 H 1.4 1.25 L 1,23.15 0.9,23.1 0.8,23.05 0.75,23 v -0.15 -0.1 L 0.8,22.7 H 0.85 L 0.9,22.65 H 1 L 1.1,22.6 h 0.25 0.1 L 1.5,22.55 H 1.65 L 2,22.5 H 2.35 L 2.5,22.45 H 2.6 L 2.65,22.4 H 2.8 l 0.1,-0.05 h 0.15 0.1 L 3.3,22.3 h 0.15 0.2 l 0.3,-0.05 0.7,-0.05 H 4.8 l 0.05,-0.05 h 0.1 L 5.1,22.1 h 0.65 0.9 l 0.6,-0.05 H 7.55 7.7 L 7.9,22 h 1.45 l 0.1,-0.05 H 9.6 9.85 L 10.1,21.9 h 0.15 l 0.9,-0.05 h 0.25 0.1 l 0.05,-0.05 h 0.1 0.1 l 0.1,-0.05 H 12 l 0.15,-0.05 h 0.8 0.7 l 0.7,-0.05 h 0.25 l 0.2,-0.05 h 0.2 1.45 l 0.2,-0.05 h 0.15 0.1 L 17,21.5 h 0.1 l 0.2,-0.05 h 0.3 0.1 l 0.25,-0.05 h 1.15 0.5 0.6 1.9 0.5 l 0.1,-1 0.5,-0.9 v -0.05 q -2.3,-0.3 -3.85,-0.05 l -1.85,0.35 q -2.4,0.6 -3.55,1.15 l -2,0.65 q -1.1,-0.1 -1.5,-1 -0.4,-1 0.2,-1.8 0.45,-0.6 1.7,-1 l 3.8,-0.6 h 1.4 l 2.4,0.05 6.05,1 q 1.9,0.3 2.85,0.9 l 0.4,0.65 0.5,0.1 q 2.25,0.65 3.8,1.9 l 1.8,1.9 q 1.85,2.25 2.25,3.6 0.35,1.1 0.35,2.9 -0.1,3.9 -1.2,6.05 -1.3,2.5 -4.3,4.4 l -0.6,0.35 H 27.3 L 26.55,40.05 26.2,39.2 h -0.4 l -0.4,-0.05 h -0.25 -0.3 l -0.4,-0.05 h -0.4 L 23.7,39.05 23.55,39 h -0.1 L 23.1,38.95 h -1 -0.55 L 21.3,38.9 H 20.85 20.6 l -0.2,-0.05 h -0.05 l -0.1,-0.05 h -0.5 -0.3 L 18.95,38.75 18.3,38.7 h -0.85 l -0.6,-0.05 H 16.65 16.1 L 15.65,38.6 H 15.5 L 14.7,38.55 H 14.5 L 14.35,38.5 H 14.05 13.6 L 13.5,38.45 H 13 V 38.4 H 12.8 L 12.5,38.35 12.3,38.3 h -0.2 -0.2 l -1,-0.05 H 10.7 10.6 L 9.95,38.2 H 9.85 L 9.6,38.15 H 9.35 L 8.95,38.1 8.7,38.05 H 8.45 8.4 L 8.35,38 H 8.25 L 8.05,37.95 7.95,37.9 H 7.7 L 7.65,37.85 7.5,37.8 H 7.35 L 7.3,37.75 H 7.2 L 7.1,37.7 6.75,37.65 H 6.45 6.35 V 37.6 H 6.25 6.15 L 6.05,37.55 H 6 L 5.7,37.5 H 5.55 L 5.5,37.4 V 37.35 L 5.55,37.3 5.6,37.25 H 5.7 6 L 6.05,37.2 h 0.1 l 0.1,-0.05 h 0.1 0.1 L 6.5,37.1 H 6.75 L 7.15,37.05 7.3,37 h 0.05 0.1 L 7.5,36.95 7.65,36.9 h 0.1 L 7.9,36.85 h 0.05 0.1 l 0.2,-0.05 0.1,-0.05 H 8.4 L 8.55,36.7 H 8.7 9.1 l 0.25,-0.05 h 0.1 L 9.6,36.6 h 0.1 0.15 l 0.25,-0.05 h 0.6 l 0.2,-0.05 h 0.2 0.8 l 0.3,-0.05 h 0.2 0.05 l 0.1,-0.05 h 0.1 l 0.15,-0.05 h 0.2 0.2 l 0.4,-0.05 h 0.2 l 0.25,-0.05 h 0.35 0.1 l 0.2,-0.05 h 0.15 0.65 l 0.35,-0.05 h 0.45 l 0.5,-0.05 h 0.25 0.65 l 0.6,-0.05 h 0.25 L 18.95,36 h 0.25 0.5 L 20,35.95 h 0.25 0.15 l 0.2,-0.05 h 0.25 l 0.2,-0.05 h 0.25 0.4 l 0.65,-0.05 h 1 0.15 l 0.05,-0.05 h 0.1 l 0.1,-0.05 h 0.2 0.25 l 0.45,-0.05 h 0.25 l 0.25,-0.05 h 0.25 0.55 1.2 0.55 l 0.15,-0.1 q 0.85,-0.4 1.7,-0.35 L 30.5,35.1 31.15,34.65 Q 32,33.5 32.2,31.65 32.45,29.8 31.95,28.6 M 10.6,10.05 9.05,8.7 8.65,7.95 Q 8.05,6.5 7.85,5.25 V 4.8 Q 7.9,4.25 8.3,3.8 L 9.25,3.3 q 0.55,-0.05 1.1,0.25 0.5,0.3 0.7,0.85 l 0.1,0.85 0.25,1.85 0.15,0.6 0.15,0.65 0.75,1.5 0.25,0.25 0.05,0.35 -0.3,0.3 -0.8,-0.05 -1.05,-0.65 m 6.7,4.85 -0.1,0.2 -2.55,0.05 -1.35,0.35 -1.2,0.35 q -1.25,0.4 -2.35,0.9 L 8.8,17.15 Q 7.35,17.95 6.4,19.2 L 5.6,20 3.7,20.1 q -1,-0.55 -0.9,-1.7 0,-0.65 0.6,-1.35 l 1.2,-1 2.15,-1.2 Q 8.65,14.1 12,14 l 1.6,0.05 1.25,0.25 0.95,0.05 1.5,0.55"
         fill="#999999"
         fill-rule="evenodd"
         stroke="none"
         id="path8" />
      <path
         d="M 27.5,20 Q 24,19.1 22.2,17.35 20.5,15.75 20.1,13.3 L 17.3,13 Q 15.3,12.35 14.25,10.5 13.2,8.7 13.6,6.55 L 13.9,5.6 14.65,4.45 q 0.8,-0.9 1.35,-1.2 l 1.3,-0.45 2.7,0.15 1.45,0.8 0.05,-0.1 q 1.35,-2.35 4.3,-3.7 h 10.5 q 1.35,0.85 2.3,2.4 1.25,2.1 1,2.65 -0.3,0.5 -0.8,4.3 -0.45,3.75 1.2,5.85 1.6,2.1 2.65,2.6 l 0.95,0.6 q 1.95,1.25 2.7,1.85 4,3.15 5.3,7.95 0.45,1.6 0.6,3.95 l -0.1,2.55 0.1,-0.1 1.85,-1.95 Q 54.8,31.7 55,30.7 55.2,29.75 55,28.05 54.75,26.15 54.85,25.4 55,23.7 56.4,22 q 1.25,-1.4 2.85,-1.85 1.8,-0.5 3.2,0.55 0.7,0.55 1,1.4 0.3,0.85 0.05,1.65 -0.3,0.85 -0.95,0.7 l -0.4,-0.5 -0.3,-0.7 Q 61.35,22.5 60.4,22.8 l -1.3,0.85 q -1.15,1.15 -1.15,2.2 l 0.35,1.55 q 0.65,2 0.1,4.2 -0.45,2.1 -1.85,3.9 -2.1,2.8 -6.85,5.15 l -0.6,0.3 H 31.75 l -0.1,-0.25 q -0.7,-1.85 -0.5,-2.2 l 2.3,-2.25 Q 35.5,34.3 36,31 36.45,27.65 35.55,25.25 34.6,22.8 33.45,21.9 32.25,21 31.1,20.8 L 27.5,20 M 40.35,7.4 q 0.4,-2.05 1.25,-3.15 0.75,-1.05 2.5,-1.85 2,-0.9 4.4,-1.05 l 3.95,0.2 Q 65.7,3.1 72.1,4.75 73.7,5.1 74.85,5.7 v 9.4 l -1.95,0.45 -6.65,0.8 -6.55,1.15 -3.95,0.85 -4.3,0.6 -5.3,-0.55 Q 43.3,17.55 41.8,15.5 39.35,12.35 40.35,7.4 m 13.4,2.35 Q 53.5,8.2 52.5,7.35 51.25,6.25 49.65,6.5 48.2,6.65 47.35,7.8 46.45,8.85 46.6,10.35 l 0.3,1.15 0.3,0.65 1.4,1.35 q 0.9,0.5 1.9,0.45 0.95,-0.05 1.8,-0.7 0.85,-0.6 1.25,-1.5 l 0.2,-0.7 V 9.75 M 44.5,6.65 Q 44.9,7.2 45.8,7.3 46.45,7.35 47.15,6.85 48.1,5.95 47.7,4.8 47.25,3.6 46.05,3.5 44.8,3.4 44.2,4.55 43.65,5.7 44.5,6.65 m -2.85,3.9 q 0.4,1.1 1.55,1.35 l 1.6,-0.25 q 0.75,-0.4 1,-1.2 Q 46.05,9.7 45.7,8.9 45.35,8.1 44.65,7.75 43.35,7.1 42.2,8.15 q -1.1,1 -0.55,2.4 m 5.3,2.6 L 45.4,13 44.45,13.75 q -0.65,1.15 0.1,2.2 0.85,1.05 2.1,0.6 1.15,-0.4 1.25,-1.6 0.1,-1.2 -0.95,-1.8 m -6.4,16.1 -0.1,0.3 0.25,0.3 0.4,-0.05 0.95,-0.8 0.35,-1.1 0.1,-0.55 -0.1,-0.8 q -0.2,-1.1 -0.8,-1.35 -0.45,-0.2 -0.8,0.15 -0.35,0.35 -0.3,0.8 l 0.3,0.65 0.1,0.75 q 0,1.1 -0.35,1.7 m 3.5,-2.15 1.45,0.3 0.95,-0.15 Q 47.1,26.8 46.75,26.1 46.5,25.4 45.7,25.6 l -0.5,0.2 -0.5,-0.1 -0.95,-0.3 -0.2,-0.6 H 43.3 q -0.3,0.45 -0.15,1.05 l 0.35,0.65 0.55,0.6 m -0.3,4.1 q 0.3,-0.85 0.7,-1.2 0.55,-0.5 1.3,-0.4 h 0.55 q 0.25,-0.15 0.1,-0.5 l -0.35,-0.35 -1.9,0.05 q -0.8,0.25 -1.25,0.65 l -0.55,0.6 -0.5,0.95 q -0.1,0.65 0.2,0.95 0.25,0.35 0.7,0.35 0.45,0 0.65,-0.35 L 43.75,31.2 M 34.15,13.7 Q 34.1,13 33.45,12.55 l -0.5,-0.2 V 12.3 l -0.2,-0.45 q -0.2,-0.2 -0.55,-0.3 l -0.25,0.05 -0.1,0.1 q -0.2,0.1 -0.25,0.2 v 0.6 l 0.1,0.25 q -0.3,0.35 -0.3,0.95 0,0.85 0.5,1.3 0.6,0.6 1.35,0.3 L 33.9,14.65 34.15,13.7 M 31.6,7.5 q 1.2,0.85 2.6,0.65 V 6.3 Q 34.4,5.2 34.7,4.45 L 35.2,3.7 Q 35.7,2.85 36.3,2.45 L 36.4,2.4 Q 35.6,1.35 34.2,1.15 L 32.3,1.4 q -0.9,0.4 -1.45,1.2 -0.8,1.15 -0.65,2.45 0.15,1.45 1.4,2.45 m -6.1,0.9 h -0.25 l 0.3,-0.6 0.25,-0.55 -0.25,-0.7 -0.7,-0.1 -0.3,0.4 Q 24.3,7.25 24.2,7.9 V 8.4 L 23.45,8.25 22.8,8.35 q -0.45,0.25 -0.25,0.7 0.15,0.5 0.65,0.4 L 23.7,9.3 h 0.45 L 24,10.4 q -0.1,0.6 0.05,0.85 h 0.2 l 0.65,-2 0.3,-0.15 0.45,0.05 H 26.7 L 27.1,9 26.8,8.6 H 26.2 L 25.5,8.4 m 2.3,8.85 0.9,-0.55 -0.05,-0.1 -0.1,-0.55 0.05,-0.4 v -0.8 l 0.3,-1.25 0.45,-1 0.2,-0.2 -0.3,-0.5 q -0.6,-0.8 -1.55,-1.15 l -0.4,-0.1 -0.15,0.35 -1.55,3 -0.55,0.7 -0.85,0.6 -0.85,0.35 0.2,0.3 0.7,0.8 q 1.65,1.25 3.55,0.5 m 7,10.55 q 0.8,3.25 -1.35,6.25 -2.15,3 -5,3.85 l -5.3,0.55 -4.3,-0.6 L 14.9,37 8.35,35.85 1.7,35.05 -0.5,34.5 -0.8,34.35 v -8.8 l 0.1,-0.1 q 1.25,-0.75 3.2,-1.2 6.4,-1.65 19.65,-3.2 l 3.95,-0.2 q 2.4,0.15 4.4,1.05 1.75,0.8 2.65,1.75 0.85,0.9 1.65,4.15"
         fill="#000000"
         fill-rule="evenodd"
         stroke="none"
         id="path9" />
      <path
         d="m 46.95,13.15 q 1.05,0.6 0.95,1.8 -0.1,1.2 -1.25,1.6 -1.25,0.45 -2.1,-0.6 -0.75,-1.05 -0.1,-2.2 L 45.4,13 l 1.55,0.15 m -5.3,-2.6 q -0.55,-1.4 0.55,-2.4 1.15,-1.05 2.45,-0.4 0.7,0.35 1.05,1.15 0.35,0.8 0.1,1.55 -0.25,0.8 -1,1.2 L 43.2,11.9 Q 42.05,11.65 41.65,10.55 M 44.5,6.65 Q 43.65,5.7 44.2,4.55 44.8,3.4 46.05,3.5 47.25,3.6 47.7,4.8 48.1,5.95 47.15,6.85 46.45,7.35 45.8,7.3 44.9,7.2 44.5,6.65 m 9.25,3.1 v 1.3 l -0.2,0.7 q -0.4,0.9 -1.25,1.5 -0.85,0.65 -1.8,0.7 -1,0.05 -1.9,-0.45 L 47.2,12.15 46.9,11.5 46.6,10.35 q -0.15,-1.5 0.75,-2.55 0.85,-1.15 2.3,-1.3 1.6,-0.25 2.85,0.85 1,0.85 1.25,2.4 M 31.6,7.5 Q 30.35,6.5 30.2,5.05 30.05,3.75 30.85,2.6 31.4,1.8 32.3,1.4 l 1.9,-0.25 q 1.4,0.2 2.2,1.25 L 36.3,2.45 Q 35.7,2.85 35.2,3.7 L 34.7,4.45 Q 34.4,5.2 34.2,6.3 V 8.15 Q 32.8,8.35 31.6,7.5 m 2.55,6.2 -0.25,0.95 -0.65,0.65 Q 32.5,15.6 31.9,15 q -0.5,-0.45 -0.5,-1.3 0,-0.6 0.3,-0.95 L 31.6,12.5 v -0.6 q 0.05,-0.1 0.25,-0.2 l 0.1,-0.1 0.25,-0.05 q 0.35,0.1 0.55,0.3 l 0.2,0.45 v 0.05 l 0.5,0.2 Q 34.1,13 34.15,13.7 M 27.8,17.25 Q 25.9,18 24.25,16.75 l -0.7,-0.8 -0.2,-0.3 0.85,-0.35 0.85,-0.6 0.55,-0.7 1.55,-3 0.15,-0.35 0.4,0.1 q 0.95,0.35 1.55,1.15 l 0.3,0.5 -0.2,0.2 -0.45,1 -0.3,1.25 v 0.8 l -0.05,0.4 0.1,0.55 0.05,0.1 -0.9,0.55"
         fill="#ffffff"
         fill-rule="evenodd"
         stroke="none"
         id="path10" />
      <path
         d="m 43.75,31.2 -0.35,0.75 q -0.2,0.35 -0.65,0.35 -0.45,0 -0.7,-0.35 -0.3,-0.3 -0.2,-0.95 l 0.5,-0.95 0.55,-0.6 q 0.45,-0.4 1.25,-0.65 l 1.9,-0.05 0.35,0.35 q 0.15,0.35 -0.1,0.5 H 45.75 Q 45,29.5 44.45,30 q -0.4,0.35 -0.7,1.2 m 0.3,-4.1 -0.55,-0.6 -0.35,-0.65 Q 43,25.25 43.3,24.8 h 0.25 l 0.2,0.6 0.95,0.3 0.5,0.1 0.5,-0.2 q 0.8,-0.2 1.05,0.5 0.35,0.7 -0.3,1.15 L 45.5,27.4 44.05,27.1 m -3.5,2.15 q 0.35,-0.6 0.35,-1.7 L 40.8,26.8 40.5,26.15 q -0.05,-0.45 0.3,-0.8 0.35,-0.35 0.8,-0.15 0.6,0.25 0.8,1.35 l 0.1,0.8 -0.1,0.55 -0.35,1.1 -0.95,0.8 -0.4,0.05 -0.25,-0.3 0.1,-0.3 M 25.5,8.4 26.2,8.6 h 0.6 L 27.1,9 26.7,9.15 H 25.65 L 25.2,9.1 l -0.3,0.15 -0.65,2 h -0.2 Q 23.9,11 24,10.4 L 24.15,9.3 H 23.7 L 23.2,9.45 Q 22.7,9.55 22.55,9.05 22.35,8.6 22.8,8.35 L 23.45,8.25 24.2,8.4 V 7.9 q 0.1,-0.65 0.35,-1.05 l 0.3,-0.4 0.7,0.1 0.25,0.7 -0.25,0.55 -0.3,0.6 h 0.25"
         fill="#999999"
         fill-rule="evenodd"
         stroke="none"
         id="path11" />
    </g>
    <g
       id="shape2"
       transform="translate(2,2.05)">
      <path
         d="M -0.5,-0.4 V -0.55 H 75.1 V -0.4 40.8 H -0.5 Z"
         fill="none"
         stroke="#000000"
         stroke-linecap="round"
         stroke-linejoin="round"
         stroke-width="3"
         id="path12" />
    </g>
  </defs>
</svg>
