<?xml version="1.0" encoding="UTF-8" standalone="no"?>
<svg
   ffdec:objectType="frame"
   height="60.549999"
   width="67.099998"
   version="1.1"
   id="svg8"
   sodipodi:docname="340.svg"
   xmlns:inkscape="http://www.inkscape.org/namespaces/inkscape"
   xmlns:sodipodi="http://sodipodi.sourceforge.net/DTD/sodipodi-0.dtd"
   xmlns:xlink="http://www.w3.org/1999/xlink"
   xmlns="http://www.w3.org/2000/svg"
   xmlns:svg="http://www.w3.org/2000/svg"
   xmlns:ffdec="https://www.free-decompiler.com/flash">
  <sodipodi:namedview
     id="namedview8"
     pagecolor="#ffffff"
     bordercolor="#000000"
     borderopacity="0.25"
     inkscape:showpageshadow="2"
     inkscape:pageopacity="0.0"
     inkscape:pagecheckerboard="0"
     inkscape:deskcolor="#d1d1d1"
     fit-margin-top="5"
     fit-margin-left="5"
     fit-margin-right="5"
     fit-margin-bottom="5" />
  <g
     transform="translate(1.5,1.5)"
     id="g3">
    <use
       ffdec:characterId="516"
       height="57.549999"
       width="64.099998"
       xlink:href="#shape0"
       id="use1" />
    <use
       ffdec:characterId="841"
       height="55.5"
       transform="translate(3.3,2.7)"
       width="60.700001"
       xlink:href="#shape1"
       id="use2" />
    <use
       ffdec:characterId="518"
       height="60.549999"
       transform="translate(-1.5,-1.5)"
       width="67.099998"
       xlink:href="#shape2"
       id="use3" />
  </g>
  <defs
     id="defs8">
    <g
       id="shape0">
      <path
         d="M 53.6,0 H 64.1 V 57.55 H 53.6 28.25 0 V 0 H 28.25 53.6 V 57.55 0 M 28.25,0 V 57.55 0"
         fill="#ffffff"
         fill-rule="evenodd"
         stroke="none"
         id="path3" />
    </g>
    <g
       id="shape1"
       transform="translate(-3.3,-2.7)">
      <path
         d="m 23.8,25.5 q -0.45,-0.9 0.25,-1.8 0.65,-0.8 1.75,-0.65 l 1,0.4 q 1,0.6 2.4,2.4 l 0.6,-0.65 q 4.75,-4.6 9.7,-10.2 1.4,-1.6 2.35,-2.15 1.6,-1 3.05,-0.4 0.15,0.75 -0.95,1.95 l -1.55,1.5 q -7.8,7.7 -12,11.2 l -0.2,0.15 2.15,3.2 0.55,1.05 q 0.3,1.05 -0.4,1.85 -0.65,0.8 -1.8,0.55 l -0.6,-0.25 -0.25,0.4 -1.2,1.2 Q 26.05,37.55 24.7,40 L 24,41.05 q -0.75,0.75 -1.75,0.4 l -1.5,-1.1 -1.1,-1.2 L 18.5,38 16.6,36.3 Q 15.55,35.15 15.9,34 16.1,33.4 17,32.5 l 2.1,-2.25 2.25,-2.1 1.3,-1 1.25,-1.1 0.15,-0.15 -0.25,-0.4 M 41.3,48.6 Q 40.55,47.45 40.45,45.8 L 40.35,45.65 39.9,44.4 39.5,43.05 38.9,41.55 38.25,40.7 q -0.5,-0.75 -0.25,-1.6 0.15,-0.85 1,-1.35 0.35,-0.25 1.35,-0.45 l 3.5,-0.35 1.8,-1.65 q 1.85,-1.35 3.75,-1.7 l 2.6,-0.05 0.05,-0.05 2.7,-1.4 q 1.45,-0.85 2,-0.95 1.3,-0.35 2.05,0.45 l 0.55,1.35 0.15,1.15 -0.05,2.3 -0.15,0.7 q 2.55,2.85 2.6,6.35 0,1.9 -0.85,3.7 l -0.4,0.75 0.8,0.85 0.9,1.55 1.2,2.7 0.45,2.1 q 0,1.3 -0.7,2 -0.9,0.95 -3.3,0.85 l -6.2,-0.1 -4.95,0.2 -1.8,0.15 Q 46,58.1 45.5,57.4 45.05,56.75 45.35,55.25 l 0.25,-1.05 -4,-0.35 -1.95,-0.7 -1.3,-0.2 Q 36.45,52.5 35.15,51.05 34,49.7 34.35,48.5 34.6,47.8 35.4,47.25 l 0.4,-0.15 0.15,-0.7 q 0.25,-0.6 0.8,-1 0.55,-0.35 1.2,-0.3 0.5,0.1 0.75,0.35 l 0.5,0.85 0.2,0.85 v 0.15 l 0.3,0.2 1.2,1.05 0.9,0.7 -0.5,-0.65 m 17.3,-9.9 q -0.2,-0.75 -0.95,-1.15 l -1.5,-0.3 q -0.75,0.15 -1.25,0.85 -0.5,0.65 -0.45,1.45 0.1,0.75 0.7,1.35 0.6,0.55 1.4,0.55 0.8,0 1.4,-0.55 0.65,-0.55 0.7,-1.35 L 58.6,38.7 m -9.85,7.35 -0.25,-0.75 -0.15,-0.45 -0.4,-0.3 q -0.3,0 -0.45,0.25 l -0.2,0.5 q -0.25,0.85 0,1.5 0.3,0.7 1.05,0.95 l 1.45,0.25 0.6,-0.05 0.65,-0.45 0.6,-0.9 1.45,0.45 q 0.85,0.1 1.45,-0.35 0.5,-0.35 0.85,-1.4 l 0.1,-0.45 -0.05,-0.75 -0.1,-0.5 q -0.1,-0.65 -0.45,-0.7 -0.4,0 -0.55,0.4 l -0.1,0.7 q -0.1,0.75 -0.55,1.35 l -1.05,-0.15 -0.6,-0.4 -0.75,-0.15 -0.55,0.4 -0.4,0.6 -0.35,0.5 -0.85,0.05 -0.4,-0.15 m -7.15,-1.8 q -0.15,1.15 0.8,1.95 0.55,0.4 1.35,0.4 0.75,0 1.3,-0.4 L 45.8,45 q 0.15,-0.7 -0.1,-1.35 -0.3,-0.7 -0.95,-1.05 L 43.4,42.35 q -0.7,0.1 -1.2,0.65 -0.5,0.55 -0.6,1.25"
         fill="#767676"
         fill-rule="evenodd"
         stroke="none"
         id="path4" />
      <path
         d="m 41.6,44.25 q 0.1,-0.7 0.6,-1.25 0.5,-0.55 1.2,-0.65 l 1.35,0.25 q 0.65,0.35 0.95,1.05 0.25,0.65 0.1,1.35 l -0.75,1.2 q -0.55,0.4 -1.3,0.4 -0.8,0 -1.35,-0.4 -0.95,-0.8 -0.8,-1.95 m 7.15,1.8 0.4,0.15 0.85,-0.05 0.35,-0.5 0.4,-0.6 0.55,-0.4 0.75,0.15 0.6,0.4 1.05,0.15 q 0.45,-0.6 0.55,-1.35 l 0.1,-0.7 q 0.15,-0.4 0.55,-0.4 0.35,0.05 0.45,0.7 l 0.1,0.5 0.05,0.75 -0.1,0.45 q -0.35,1.05 -0.85,1.4 -0.6,0.45 -1.45,0.35 L 51.65,46.6 51.05,47.5 50.4,47.95 49.8,48 48.35,47.75 Q 47.6,47.5 47.3,46.8 q -0.25,-0.65 0,-1.5 l 0.2,-0.5 q 0.15,-0.25 0.45,-0.25 l 0.4,0.3 0.15,0.45 0.25,0.75 m 9.85,-7.35 0.05,0.85 q -0.05,0.8 -0.7,1.35 -0.6,0.55 -1.4,0.55 -0.8,0 -1.4,-0.55 -0.6,-0.6 -0.7,-1.35 -0.05,-0.8 0.45,-1.45 0.5,-0.7 1.25,-0.85 l 1.5,0.3 q 0.75,0.4 0.95,1.15"
         fill="#ffffff"
         fill-rule="evenodd"
         stroke="none"
         id="path5" />
      <path
         d="m 13.55,35.6 q -0.05,-0.7 0.9,-1.75 L 24.7,22.6 28.9,18.35 34.25,12 35,11.25 32.8,8.7 Q 31.65,7.45 31.65,6.55 31.6,5.85 32.2,5.3 q 0.6,-0.6 1.3,-0.55 0.85,0.05 2.05,1.15 2.5,2.35 5.85,6.7 L 47.25,6.75 47.4,6.6 47.15,6.3 46.65,5.55 Q 46.35,4.9 46.5,4.2 46.7,3.5 47.25,3.1 L 48.5,2.7 q 0.75,0 1.25,0.45 l 3.5,4.3 0.55,0.85 q 0.25,0.6 0,1.25 l -0.8,0.9 -1.2,0.1 Q 51.15,10.4 50.7,9.9 l -0.75,-0.85 -0.5,0.3 -2.25,2 -1.7,1.35 -2.6,1.95 6,7.65 q 1.35,1.55 1.6,2.4 0.2,0.7 -0.05,1.4 -0.25,0.75 -0.85,1.05 l -1.85,-0.2 -1.35,-1.3 -1.95,-2.3 -20,20.35 q -1.1,1.2 -2.05,1.15 -0.85,-0.1 -1.85,-1.4 l -1.7,-2.05 -0.25,0.15 -0.95,1.05 -0.3,0.5 -1.1,0.85 q -0.6,0.2 -1.15,0 L 13.5,45.5 8,50.35 7.05,51.4 6,52.25 5.75,52.6 q -0.25,0.25 -0.4,0 -0.1,-0.1 0.1,-0.45 l 2.3,-3.5 Q 9.9,45.9 13.2,42.1 q -0.4,-0.8 0,-1.65 l 0.75,-1.1 0.55,-0.6 0.85,-0.85 -0.65,-0.6 q -1.1,-1 -1.15,-1.7 M 24,13.4 h -0.7 -0.55 l -0.1,0.4 0.25,0.85 v 0.8 q -0.15,0.45 -0.7,0.6 H 21.35 20.2 l -0.95,-0.1 q -0.5,-0.15 -0.6,-0.65 l 0.05,-0.75 0.05,-0.85 0.1,-0.4 H 18.4 L 17.2,13.05 Q 16.4,12.55 16.75,11.5 L 17.6,10 19.25,7.95 q 0.75,-1 1.3,-1.3 l 1.8,0.1 1.3,2.3 0.35,0.85 0.4,1.15 0.35,0.6 Q 25,12.15 24.8,12.7 L 24,13.4 m -1.2,3.35 0.25,0.7 -0.35,0.65 -0.9,0.15 -1.85,0.05 -0.9,-0.15 q -0.35,-0.3 -0.35,-0.7 0,-0.5 0.4,-0.7 l 0.7,-0.15 1.75,-0.1 1.25,0.25 m -5.65,18.35 5.7,5.55 19.4,-20.2 -5.05,-6.75 -1.95,1.95 -2.25,2.1 -2.65,2.75 -4.5,4.6 -0.2,0.2 -8.5,9.8 m -5.4,-23.3 q 2.55,0.1 3.5,0.95 l 0.9,1.45 0.25,1.2 -0.4,2.3 -0.45,1.1 q -0.4,0.45 -1.8,0.35 L 9.45,19 H 5.15 Q 4.05,18.9 3.8,18.45 3.5,18.1 3.85,16.75 L 3.95,14.8 4.2,7.5 4.4,6.6 Q 4.7,6.1 5.35,5.95 l 1.2,-0.1 5.1,0.2 q 1.05,0.2 1.2,0.75 L 12.8,7.65 11.75,11.8 M 11,8.2 9.85,8 6.35,8.1 6.25,15.2 7.2,15 l 2.55,-0.15 1.7,-0.05 2.7,0.1 -0.1,-0.35 -1.1,-0.6 L 10.85,13.8 9.65,13.65 9.6,13.6 Q 9.3,13.4 9.3,13 V 12.7 L 9.95,12 10.1,11.95 9.3,11.7 q -0.15,0 -0.25,-0.15 L 8.6,11.4 8.5,11 8.85,10.7 9.95,10.4 10.55,10.3 10.6,10.2 10.45,10.15 9.8,9.95 8.95,9.65 8.8,9.35 8.95,9.05 10.8,8.5 h 0.05 L 11,8.2 m -4.8,8.3 h 0.05 l 4.6,0.05 1.3,0.05 0.8,0.05 1.1,0.1 0.1,-0.7 -2.05,-0.15 -1,-0.05 H 6.2 V 16.5 M 5.5,46.25 5.6,44.6 4.95,43.4 4.1,42.3 3.85,41.8 3.4,41.1 3.3,40.15 3.4,39.3 3.9,38.6 q 0.6,-0.4 1.2,-0.55 0.75,-0.1 1.25,0.35 l 0.55,0.65 0.7,1.3 V 41 L 7.75,41.55 7.8,42.35 7.7,43.3 7.3,44.9 6.6,46.75 6.5,47.15 6.2,47.6 6,48.1 5.75,48.05 5.6,47.75 5.65,47.15 5.5,46.25 m 12.3,4.25 0.25,0.75 -0.1,0.7 -0.3,0.55 q -0.35,0.4 -0.9,0.45 L 15.8,52.9 13.1,52.15 12.25,51.95 11.4,52.05 10.55,52.25 9.7,52.4 9.3,52.6 8.85,52.55 q -0.2,-0.2 0,-0.45 l 0.4,-0.3 0.7,-0.3 0.55,-0.45 1.8,-1.15 0.65,-0.4 0.45,-0.05 0.55,-0.2 1.1,-0.1 0.85,-0.1 q 0.65,0.05 1.15,0.5 l 0.75,0.95"
         fill="#000000"
         fill-rule="evenodd"
         stroke="none"
         id="path6" />
      <path
         d="M 11,8.2 10.85,8.5 H 10.8 l -1.85,0.55 -0.15,0.3 0.15,0.3 0.85,0.3 0.65,0.2 0.15,0.05 -0.05,0.1 -0.6,0.1 -1.1,0.3 -0.35,0.3 0.1,0.4 0.45,0.15 Q 9.15,11.7 9.3,11.7 L 10.1,11.95 9.95,12 9.3,12.7 V 13 q 0,0.4 0.3,0.6 l 0.05,0.05 1.2,0.15 2.1,0.15 1.1,0.6 0.1,0.35 -2.7,-0.1 -1.7,0.05 L 7.2,15 6.25,15.2 6.35,8.1 9.85,8 11,8.2 M 6.25,16.5 H 6.2 v -0.65 h 4.9 l 1,0.05 2.05,0.15 -0.1,0.7 -1.1,-0.1 -0.8,-0.05 -1.3,-0.05 -4.6,-0.05"
         fill="#767676"
         fill-rule="evenodd"
         stroke="none"
         id="path7" />
    </g>
    <g
       id="shape2"
       transform="translate(1.5,1.5)">
      <path
         d="M 0,23.8 V 0 H 64.1 V 23.8 57.55 H 0 Z"
         fill="none"
         stroke="#000000"
         stroke-linecap="round"
         stroke-linejoin="round"
         stroke-width="3"
         id="path8" />
    </g>
  </defs>
</svg>
