<?xml version="1.0" encoding="UTF-8" standalone="no"?>
<svg
   ffdec:objectType="frame"
   height="60.549999"
   width="67.099998"
   version="1.1"
   id="svg8"
   sodipodi:docname="821.svg"
   xmlns:inkscape="http://www.inkscape.org/namespaces/inkscape"
   xmlns:sodipodi="http://sodipodi.sourceforge.net/DTD/sodipodi-0.dtd"
   xmlns:xlink="http://www.w3.org/1999/xlink"
   xmlns="http://www.w3.org/2000/svg"
   xmlns:svg="http://www.w3.org/2000/svg"
   xmlns:ffdec="https://www.free-decompiler.com/flash">
  <sodipodi:namedview
     id="namedview8"
     pagecolor="#ffffff"
     bordercolor="#000000"
     borderopacity="0.25"
     inkscape:showpageshadow="2"
     inkscape:pageopacity="0.0"
     inkscape:pagecheckerboard="0"
     inkscape:deskcolor="#d1d1d1"
     fit-margin-top="5"
     fit-margin-left="5"
     fit-margin-right="5"
     fit-margin-bottom="5" />
  <g
     transform="translate(1.5,1.5)"
     id="g3">
    <use
       ffdec:characterId="516"
       height="57.549999"
       width="64.099998"
       xlink:href="#shape0"
       id="use1" />
    <use
       ffdec:characterId="1309"
       height="53.150002"
       transform="translate(-1.2,-0.55)"
       width="61.150002"
       xlink:href="#shape1"
       id="use2" />
    <use
       ffdec:characterId="518"
       height="60.549999"
       transform="translate(-1.5,-1.5)"
       width="67.099998"
       xlink:href="#shape2"
       id="use3" />
  </g>
  <defs
     id="defs8">
    <g
       id="shape0">
      <path
         d="M 53.6,0 H 64.1 V 57.55 H 53.6 28.25 0 V 0 H 28.25 53.6 V 57.55 0 M 28.25,0 V 57.55 0"
         fill="#ffffff"
         fill-rule="evenodd"
         stroke="none"
         id="path3" />
    </g>
    <g
       id="shape1"
       transform="translate(1.2,0.55)">
      <path
         d="m 14.6,28.35 q 0.7,-0.95 2.85,-1.8 l 8.5,-3.45 q 12.6,-5 18.85,-6.95 l 2.6,-0.75 2.5,-0.05 q 1.8,0.1 2.05,1.15 0.25,0.75 -0.85,1.45 0.55,0.7 0.95,1.95 2.15,6.2 2.6,10.6 0.25,-7.2 0.8,-10.8 l -1.6,-0.25 q -0.95,-0.35 -1.2,-1.1 -0.35,-1 0.65,-1.95 0.6,-0.45 2,-0.85 l 2.35,-0.2 q 1.35,0.2 1.95,1.15 0.45,0.7 0.35,2.45 l -1.25,22.5 0.05,0.65 -0.15,2.35 q -0.2,1.3 -0.95,2 -0.5,0.55 -1.45,0.9 l -1.7,0.4 -22.8,3.6 -22.95,1.2 Q 5.35,52.45 4.35,50.95 3.5,49.7 4.15,46.75 6.1,38.2 7.5,34.2 q 0.65,-1.55 1.2,-2.05 0.5,-0.4 1.15,-0.4 0.65,0 1,0.45 0.4,0.5 0.3,1.65 L 9.05,46.8 12.8,46.65 q -0.45,-0.9 -0.4,-2.3 0.05,-2.2 0.8,-6.2 l 0.7,-6.2 q 0.1,-2.65 0.7,-3.6 m 29.2,5.85 -0.05,0.15 0.2,-0.1 -0.15,-0.05 m 9.8,4.55 q -6.95,2.3 -16.1,4.45 l -15.9,3.4 3.7,-0.25 4.3,-0.45 11.65,-2.3 q 7.15,-1.55 11.7,-1.45 L 53.6,42 53.8,41.45 54.15,38.6 53.6,38.75 M 39.85,35.3 39.4,36 40.5,35.6 39.85,35.3 m -16.9,6.15 7,-1.5 q 0.4,-0.35 1.1,-0.65 l 3.2,-1.3 -0.7,-0.7 q -0.6,1.1 -2,1.15 -1.4,-0.05 -2.3,-1.05 -1.95,2.3 -3.35,2.8 l -1.4,0.4 -2.75,0.05 -0.8,1.2 2,-0.4"
         fill="#999999"
         fill-rule="evenodd"
         stroke="none"
         id="path4" />
      <path
         d="M -1.05,22.95 Q -0.95,22.3 -0.3,21.5 L 0.55,20.4 0,19.25 -0.55,17.5 -0.4,16.05 -0.3,13.85 -0.45,7 -0.65,2.95 Q -0.9,0.9 -0.55,0.25 l 0.7,-0.8 h 25.8 v 0.05 q 0.05,1.4 -2,3.35 -4.75,4.5 -10.8,10.8 L 2.65,24.8 q -1.55,1.65 -2.7,1.3 l -0.9,-0.85 q -0.3,-0.65 -0.2,-1.35 l 0.05,-0.15 0.05,-0.8"
         fill="#000000"
         fill-rule="evenodd"
         stroke="none"
         id="path5" />
      <path
         d="m 59.25,39.75 q -0.55,0.95 -2.7,1.65 l -9.7,2.75 -5.2,0.85 Q 40,45.15 36.9,46.3 25,49.9 12.6,51 9.55,51.4 8.1,50.3 6.8,49.45 6.4,47.65 6.15,46.4 6.45,44.3 6.7,41.25 7.65,35.9 l 1.4,-8.05 q 0.3,-2.65 1,-3.45 0.6,-1.2 2.75,-1.95 Q 17.15,20.3 26.9,17 l 6.4,-2.3 q 1.65,-0.75 5.35,-1.8 2.65,-1.1 3.25,-1.25 l 5.15,-1.2 q 1.95,-0.7 2.6,-0.65 1.55,-0.15 2.65,0.4 1.1,0.5 1.9,2.6 2,5.45 4.2,19.7 l 0.95,4.4 q 0.4,1.85 -0.1,2.85 M 41.7,21.05 q 0.9,-0.35 1.8,0.35 0.8,0.55 1,1.5 l 0.05,0.55 1.25,3.8 0.05,1.7 q -0.5,0.75 -1.45,0.7 -0.9,-0.1 -1.55,-0.9 L 42.3,27.25 41.2,23.6 40.95,23.2 q -0.25,-0.7 0,-1.25 0.15,-0.7 0.75,-0.9 m 5.85,2.55 0.15,1.25 q -0.3,0.65 -1,0.6 -0.7,0.1 -1.15,-0.6 l -0.15,-0.5 q -0.3,-0.65 -0.05,-1.1 0.2,-0.5 0.9,-0.5 1,0 1.3,0.85 m -7.6,-6.8 -16.2,6.5 -7.9,3.35 q -1.35,0.4 -1.7,1.15 -0.4,0.15 -0.4,1.5 l -1.8,11.5 6.4,-1.35 q 5.3,-1.55 11.35,-3 l 18.7,-4.3 4.4,-1 L 53.75,31 49.3,14.45 44.4,15.35 Q 42.8,15.8 39.95,16.8 M 11.15,46.55 Q 21.8,45.7 31.5,43 l 5.35,-1.45 8.5,-1.85 q 6.5,-1.3 9.9,-2.55 l -0.4,-1.65 -0.6,0.2 -23.85,5.45 -7.9,1.7 -1,0.3 -10.25,2.15 -0.1,1.25 M 36.3,24.4 35.7,22.65 q 0,-0.65 0.3,-1.25 0.5,-0.55 1.1,-0.65 l 1.35,0.05 1.2,0.85 0.65,1.5 q 1.05,3.3 1.55,5.95 0.3,0.7 0.25,1.4 l -0.35,1.35 q -0.7,0.75 -1.8,0.55 -1.05,-0.15 -1.6,-1.1 L 38.05,30.5 37.4,27.55 36.3,24.4 m -19.9,7.55 q -0.05,-1 0.65,-1.45 l 0.85,0.05 0.35,1.1 0.1,0.55 Q 18.3,33 17.7,33.35 17.25,33.7 16.75,33.2 L 16.4,31.95 m 3.3,-5.1 q 0.55,-0.15 0.95,0.4 l 0.45,1.2 -0.05,0.55 0.55,3.95 0.25,1.6 q -0.2,1.05 -0.9,1.55 L 19.7,36.05 Q 19.25,35.7 19,34.55 l -0.6,-4.7 q -0.25,-1.05 0.15,-1.95 0.4,-1.05 1.15,-1.05 m 5.3,0.55 1.05,7.4 q -0.15,1.15 -0.8,1.75 -0.75,0.7 -1.5,0.3 -0.55,-0.35 -0.8,-1 Q 22.65,35.2 22.6,34.4 22,31.7 21.55,28.15 21.4,26.9 21.55,26.4 21.6,25.65 22,25.1 l 1,-0.75 1,0.2 q 0.5,0.3 0.7,0.95 l 0.3,1.9 m 11.35,0.3 -0.05,0.7 q -0.15,0.6 -0.85,0.9 l -1.05,0.3 -0.25,0.1 -0.1,0.1 -0.7,0.3 h -0.8 l -4.3,1.25 -0.9,0.15 q -0.5,0.05 -0.9,-0.4 L 26.2,30.45 26.1,30.25 25.95,29.6 26,29.05 q -0.1,-0.8 0.4,-1.25 0.35,-0.35 1,-0.35 l 5.2,-1.4 0.65,-0.1 0.45,-0.2 h 0.95 l 0.85,0.3 q 0.45,0.3 0.7,0.85 l 0.05,0.6 0.1,0.2"
         fill="#000000"
         fill-rule="evenodd"
         stroke="none"
         id="path6" />
      <path
         d="M 13.3,5.1 13.7,5.85 13.45,6.55 13.1,6.7 Q 12.7,6.75 12.4,6.25 L 11.65,6.4 Q 11.2,6.65 11.2,7 l 0.1,0.2 0.25,0.05 0.95,0.05 0.45,0.25 0.55,0.4 0.25,0.4 0.05,0.6 -0.1,0.45 -0.3,0.65 -0.55,0.45 -0.5,0.3 0.15,0.4 -0.15,0.65 -0.6,0.25 -0.25,-0.05 -0.45,-0.45 v -0.25 l 0.05,-0.3 Q 10.5,10.95 10,10.55 9.55,10.3 9.55,9.9 9.45,9.45 9.85,9.2 l 0.7,-0.05 0.55,0.35 0.55,-0.1 0.5,-0.25 V 9 l -0.6,-0.25 h -0.4 L 10.05,8.25 9.75,7.9 V 7.7 L 9.6,7.2 Q 9.5,6.55 9.85,6.1 L 10.3,5.4 10.6,5.1 11.2,4.8 11.15,4.45 11.2,4.1 l 0.25,-0.2 0.6,-0.05 0.3,0.25 0.1,0.25 V 4.6 L 12.9,4.75 13.3,5.1 M 6.25,9.35 6.15,9.1 6,9.05 H 4.75 L 3.45,9.25 3,8.65 2.9,7.9 2.95,6.7 2.85,6.15 2.8,6.05 Q 2.65,5.7 2.8,5.4 L 3.45,4.85 4.75,4.5 6.65,4.2 Q 7.3,4 7.75,4.2 l 0.5,0.55 V 5.5 L 7.7,6.05 7.5,6.15 6.75,6.35 q -1.6,0.1 -2,0.35 L 4.8,7.15 6.3,7 Q 7.15,7 7.7,7.55 8.15,8 8.25,8.9 8.3,9.95 7.75,11 l -0.4,0.55 -0.5,0.35 -0.9,0.5 -1,0.1 L 4.05,12.4 3.7,12.15 3.35,12 Q 2.75,11.65 2.85,11 2.95,10.35 3.55,10.1 4.2,9.85 4.7,10.3 L 5,10.5 5.4,10.45 6,10 6.25,9.35"
         fill="#ffffff"
         fill-rule="evenodd"
         stroke="none"
         id="path7" />
    </g>
    <g
       id="shape2"
       transform="translate(1.5,1.5)">
      <path
         d="M 0,23.8 V 0 H 64.1 V 23.8 57.55 H 0 Z"
         fill="none"
         stroke="#000000"
         stroke-linecap="round"
         stroke-linejoin="round"
         stroke-width="3"
         id="path8" />
    </g>
  </defs>
</svg>
