<?xml version="1.0" encoding="UTF-8" standalone="no"?>
<svg
   ffdec:objectType="frame"
   height="60.549999"
   width="67.099998"
   version="1.1"
   id="svg8"
   sodipodi:docname="298.svg"
   xmlns:inkscape="http://www.inkscape.org/namespaces/inkscape"
   xmlns:sodipodi="http://sodipodi.sourceforge.net/DTD/sodipodi-0.dtd"
   xmlns:xlink="http://www.w3.org/1999/xlink"
   xmlns="http://www.w3.org/2000/svg"
   xmlns:svg="http://www.w3.org/2000/svg"
   xmlns:ffdec="https://www.free-decompiler.com/flash">
  <sodipodi:namedview
     id="namedview8"
     pagecolor="#ffffff"
     bordercolor="#000000"
     borderopacity="0.25"
     inkscape:showpageshadow="2"
     inkscape:pageopacity="0.0"
     inkscape:pagecheckerboard="0"
     inkscape:deskcolor="#d1d1d1"
     fit-margin-top="5"
     fit-margin-left="5"
     fit-margin-right="5"
     fit-margin-bottom="5" />
  <g
     transform="translate(1.5,1.5)"
     id="g3">
    <use
       ffdec:characterId="516"
       height="57.549999"
       width="64.099998"
       xlink:href="#shape0"
       id="use1" />
    <use
       ffdec:characterId="801"
       height="57.150002"
       transform="translate(-0.55)"
       width="64.650002"
       xlink:href="#shape1"
       id="use2" />
    <use
       ffdec:characterId="518"
       height="60.549999"
       transform="translate(-1.5,-1.5)"
       width="67.099998"
       xlink:href="#shape2"
       id="use3" />
  </g>
  <defs
     id="defs8">
    <g
       id="shape0">
      <path
         d="M 53.6,0 H 64.1 V 57.55 H 53.6 28.25 0 V 0 H 28.25 53.6 V 57.55 0 M 28.25,0 V 57.55 0"
         fill="#ffffff"
         fill-rule="evenodd"
         stroke="none"
         id="path3" />
    </g>
    <g
       id="shape1"
       transform="translate(0.55)">
      <path
         d="m 54.6,27.35 1.6,-1.4 0.35,-1.2 q 0.1,-0.95 -0.8,-1.4 l -1.65,0.05 -0.25,0.25 -0.45,0.6 -1.65,3.35 -0.2,0.65 0.1,0.8 0.8,0.3 0.8,-0.35 0.45,-0.55 0.9,-1.1 M 47.8,26.3 q -0.05,0.75 0.25,1.5 l 0.25,0.45 0.6,0.2 0.6,-0.25 0.25,-0.45 0.6,-1.35 0.7,-3 q 0.15,-1 0.45,-1.85 l 0.3,-0.7 q 0.35,-1.3 -0.75,-2.15 l -2.3,-0.1 q -0.95,0.5 -1.05,1.7 l 0.1,0.8 -0.05,1.05 v 0.4 l -0.1,1 0.15,2.25 v 0.5 m -5.55,-3.55 -0.15,0.7 0.2,0.7 0.4,0.9 1.5,2.6 0.65,0.75 q 0.4,0.4 0.9,0.3 0.6,-0.2 0.7,-0.75 L 46.5,27.35 46.05,25.55 45.8,25 v -0.35 l -0.4,-1.2 -0.15,-0.6 -0.3,-0.45 v -0.1 q -0.7,-0.5 -1.2,-0.5 -1.05,0 -1.5,0.95 M 0,0 H 64.1 V 57.15 H 0 V 0"
         fill="#999999"
         fill-rule="evenodd"
         stroke="none"
         id="path4" />
      <path
         d="m 42.25,22.75 q 0.45,-0.95 1.5,-0.95 0.5,0 1.2,0.5 v 0.1 l 0.3,0.45 0.15,0.6 0.4,1.2 V 25 l 0.25,0.55 0.45,1.8 -0.05,0.6 q -0.1,0.55 -0.7,0.75 -0.5,0.1 -0.9,-0.3 l -0.65,-0.75 -1.5,-2.6 -0.4,-0.9 -0.2,-0.7 0.15,-0.7 m 5.55,3.55 v -0.5 l -0.15,-2.25 0.1,-1 v -0.4 L 47.8,21.1 47.7,20.3 q 0.1,-1.2 1.05,-1.7 l 2.3,0.1 q 1.1,0.85 0.75,2.15 l -0.3,0.7 q -0.3,0.85 -0.45,1.85 l -0.7,3 -0.6,1.35 -0.25,0.45 -0.6,0.25 -0.6,-0.2 -0.25,-0.45 q -0.3,-0.75 -0.25,-1.5 m 6.8,1.05 -0.9,1.1 -0.45,0.55 -0.8,0.35 -0.8,-0.3 -0.1,-0.8 0.2,-0.65 1.65,-3.35 0.45,-0.6 0.25,-0.25 1.65,-0.05 q 0.9,0.45 0.8,1.4 l -0.35,1.2 -1.6,1.4"
         fill="#ffffff"
         fill-rule="evenodd"
         stroke="none"
         id="path5" />
      <path
         d="m 60.35,43.5 q -0.3,2.7 -1.95,5.05 -1.4,1.95 -3.3,3.15 l 0.65,0.7 1.1,1.8 1,2.2 0.25,0.75 H 39.85 q 0.1,-0.7 0.65,-1.55 l 0.65,-1.35 0.45,-0.65 1.4,-1.8 0.15,-0.2 q -2.5,-1.5 -4.5,-4.45 -0.95,-1.25 -1.45,-2.65 -0.75,-2.25 -0.05,-4.8 -1,-0.6 -1.65,-1.7 -1,-1.65 -0.5,-3.7 0.3,-1.25 1.6,-2.95 l 1.2,-1.2 1.2,-0.6 q 1.85,-0.5 3.25,-0.05 1.3,0.35 2,1.2 2.5,-1.1 5.9,-0.7 l 3,0.6 0.6,0.2 q 0.45,-0.65 1.15,-1.2 1.3,-0.9 2.95,-0.95 1.65,-0.1 3,0.7 1.35,0.85 2.1,2.3 0.75,1.5 0.55,3.05 -0.15,1.55 -1.2,2.85 -0.9,1.1 -2.2,1.65 0.45,2.3 0.25,4.3 M 56.8,42 56.85,41.85 55.9,41.45 Q 55.35,41.2 54.95,40.75 L 54,39.45 53.75,38.95 q -0.15,-0.5 -0.15,-1 -1.15,0 -2,0.8 -1.1,0.95 -1.1,2.4 -0.05,0.95 0.5,1.75 l 0.25,0.3 0.85,-0.3 q 2.5,-0.45 4,0.45 L 56.8,42 m -5.7,6.1 0.8,-0.1 q 0.4,-0.3 0.3,-0.75 -0.05,-0.35 -0.65,-0.75 l -0.4,-0.25 -0.7,-0.3 q -0.4,-0.2 -0.75,-0.7 -0.3,-0.5 -0.25,-0.9 L 49.6,44.1 49.1,43.7 h -0.6 l -0.35,0.25 0.1,0.2 q 0.15,0.6 -0.25,1.1 l -1,0.5 h -0.6 l -0.85,0.3 q -0.8,0.4 -0.8,1.3 0,0.95 0.75,1.35 l 1.55,0.05 0.7,-0.6 0.4,-0.35 0.55,-0.1 0.55,0.05 1.05,-0.05 0.8,0.4 m -9.8,-9.95 q 0,0.8 0.55,1.35 l 0.65,0.65 -0.45,0.5 -0.65,0.85 q -0.35,0.5 -0.1,1.05 l 0.9,0.25 v 0.15 l -0.25,0.95 -0.35,0.55 q -0.25,0.45 -0.1,1 l 0.55,0.75 0.95,0.15 q 0.55,-0.15 0.8,-0.6 0.25,-0.4 0.15,-0.95 L 43.35,44 43.2,42.35 43.95,41.7 44.3,42.15 45.45,42.85 46.4,42.6 46.95,41.75 47,40.9 46.45,40.1 46.05,39.65 V 39.6 l 1.3,-0.75 q 0.75,-0.65 0.5,-1.55 -0.25,-0.95 -1.2,-1.1 -0.9,-0.25 -1.5,0.55 l -0.3,0.45 -0.75,1.05 -1.1,-0.8 -0.55,-0.25 -0.8,0.2 Q 41.3,37.75 41.3,38.15 M 31.75,50.7 30.5,51.6 q -1,0.55 -2.6,0.75 l 0.55,1.8 q 0.5,1.6 0.4,2.25 L 28.7,57.15 H 5.3 Q 4.95,56.35 5,55.15 L 5.6,52.5 7.15,48.1 q 1,-2.9 1.55,-4.05 L 9.7,42.5 8.65,42.1 Q 6.05,41.05 3.95,39 1.9,37.05 0.8,34.4 -1.15,29.95 0.05,24.55 l 0.5,-1.75 -0.1,-0.2 -0.3,-0.75 -0.7,-2.7 v -5.1 Q 0,13.5 1.1,13.35 l 2.8,0.05 2.15,0.05 1.2,0.1 q 3.55,-2.9 7.8,-3.4 l 4.5,0.15 3.1,0.5 q 0.55,-0.25 1.6,-0.55 L 29.1,8.9 30.95,9.15 q 0.8,0.45 1.05,1.3 l 0.1,1.4 q -0.05,2.55 -0.5,5.05 l -0.15,1.1 1.05,2.6 q 1.1,3.25 0.95,6.75 -0.1,3.55 -1.45,6.7 -0.95,2.15 -2.25,3.6 -1.15,1.45 -3.05,2.8 l -2.2,1.4 0.4,1 1.5,5 0.05,-0.05 1,-0.3 q 0.3,0.4 0.75,0.65 l 1.4,0.5 2,-0.3 -0.1,0.55 q -0.2,0.8 -0.05,1.3 l 0.3,0.5 m -4.8,-7.4 q -0.1,-1.2 0.05,-1.7 0.25,-1.3 1.4,-2.25 1.1,-0.9 2.45,-0.95 1.4,-0.05 2.6,0.7 1.2,0.7 1.8,1.95 1.2,2.4 -0.05,5.35 l -1.35,2.2 -0.15,-0.5 -0.55,-1.35 0.4,-1.3 0.1,-0.6 -0.1,-0.7 V 44 L 32.9,44.5 32,45 l -1.15,0.1 -1.6,-0.2 q -0.4,-0.15 -0.9,-0.5 -0.95,-0.75 -1.2,-1.45 l -0.2,0.35 M 16.1,30.45 l -0.2,0.6 -0.45,1.15 -0.9,0.8 -1,0.1 -0.75,-0.2 Q 12.35,32.25 12,32.15 11.4,32 11.15,32.85 q -0.2,0.7 0.4,1.4 l 1.3,0.8 q 1.75,0.45 3.3,-0.55 0.75,-0.4 0.95,-1.15 l 0.7,0.45 q 0.7,0.5 2.35,0.5 l 1.1,-0.2 q 0.45,-0.15 1,-0.85 l 0.65,-0.8 0.15,-1 -0.55,-0.65 -0.85,-0.05 q -0.4,0.15 -0.9,0.85 L 20.35,31.9 20,31.95 19.5,31.9 18.55,31.1 17.7,30.1 16.85,30 16.1,30.45 m -11.6,-2 q 0.4,0.95 1.35,1.65 l 0.4,-0.35 1.15,-0.7 0.95,-0.25 2,-0.35 1.15,-0.05 1.25,0.15 V 28.5 q 0.95,-1.45 0.75,-2.85 l -0.45,-1.4 Q 11.95,22.4 9.9,22.05 7.9,21.75 6.25,23 L 5.2,24.05 4.5,25 4.3,26 q -0.2,1.5 0.2,2.45 m 22.45,-4.15 -1.05,-0.7 0.35,-0.45 0.45,-0.6 0.7,-0.75 q 0.2,-0.55 0,-1 l -0.7,-0.7 -0.9,-0.05 q -0.5,0.2 -1.2,1.1 L 24,22 22.85,21.2 21.95,20.45 q -0.6,-0.45 -1.15,-0.5 -1,-0.1 -1.5,0.95 -0.35,1.05 0.45,1.75 l 0.7,0.55 1.6,0.95 -0.95,1.05 -0.3,0.55 -0.05,0.4 q 0,0.6 0.4,1 0.55,0.35 1.3,0 l 1.05,-0.9 0.55,-0.55 1.85,1.2 q 0.7,0.4 1.2,0.4 0.85,0 1.1,-0.6 L 28.25,26 28,25.3 l -1.05,-1"
         fill="#000000"
         fill-rule="evenodd"
         stroke="none"
         id="path6" />
      <path
         d="m 41.3,38.15 q 0,-0.4 0.35,-0.75 l 0.8,-0.2 0.55,0.25 1.1,0.8 0.75,-1.05 0.3,-0.45 q 0.6,-0.8 1.5,-0.55 0.95,0.15 1.2,1.1 0.25,0.9 -0.5,1.55 l -1.3,0.75 v 0.05 l 0.4,0.45 0.55,0.8 -0.05,0.85 -0.55,0.85 -0.95,0.25 -1.15,-0.7 -0.35,-0.45 -0.75,0.65 0.15,1.65 0.6,0.8 q 0.1,0.55 -0.15,0.95 -0.25,0.45 -0.8,0.6 L 42.05,46.2 41.5,45.45 q -0.15,-0.55 0.1,-1 L 41.95,43.9 42.2,42.95 V 42.8 L 41.3,42.55 Q 41.05,42 41.4,41.5 l 0.65,-0.85 0.45,-0.5 -0.65,-0.65 Q 41.3,38.95 41.3,38.15 m 9.8,9.95 -0.8,-0.4 -1.05,0.05 -0.55,-0.05 -0.55,0.1 -0.4,0.35 -0.7,0.6 -1.55,-0.05 q -0.75,-0.4 -0.75,-1.35 0,-0.9 0.8,-1.3 l 0.85,-0.3 H 47 l 1,-0.5 q 0.4,-0.5 0.25,-1.1 l -0.1,-0.2 0.35,-0.25 h 0.6 l 0.5,0.4 -0.15,0.25 q -0.05,0.4 0.25,0.9 0.35,0.5 0.75,0.7 l 0.7,0.3 0.4,0.25 q 0.6,0.4 0.65,0.75 0.1,0.45 -0.3,0.75 l -0.8,0.1 m 5.7,-6.1 -0.7,1.35 q -1.5,-0.9 -4,-0.45 L 51.25,43.2 51,42.9 q -0.55,-0.8 -0.5,-1.75 0,-1.45 1.1,-2.4 0.85,-0.8 2,-0.8 0,0.5 0.15,1 l 0.25,0.5 0.95,1.3 q 0.4,0.45 0.95,0.7 l 0.95,0.4 L 56.8,42 m -29.35,5.5 -0.55,-1 q -0.75,-1.8 0.05,-3.15 V 43.3 l 0.2,-0.35 q 0.25,0.7 1.2,1.45 0.5,0.35 0.9,0.5 l 1.6,0.2 L 32,45 32.9,44.5 33.55,44 v 0.15 l 0.1,0.7 -0.1,0.6 -0.4,1.3 0.55,1.35 0.15,0.5 0.15,0.65 -0.15,1.05 q -0.35,0.8 -1.2,0.8 -0.5,-0.05 -0.9,-0.4 l -0.3,-0.5 Q 31.3,49.7 31.5,48.9 l 0.1,-0.55 -2,0.3 -1.4,-0.5 Q 27.75,47.9 27.45,47.5 m -0.5,-23.2 1.05,1 0.25,0.7 -0.05,0.7 q -0.25,0.6 -1.1,0.6 -0.5,0 -1.2,-0.4 l -1.85,-1.2 -0.55,0.55 -1.05,0.9 q -0.75,0.35 -1.3,0 -0.4,-0.4 -0.4,-1 l 0.05,-0.4 0.3,-0.55 0.95,-1.05 -1.6,-0.95 -0.7,-0.55 q -0.8,-0.7 -0.45,-1.75 0.5,-1.05 1.5,-0.95 0.55,0.05 1.15,0.5 l 0.9,0.75 1.15,0.8 0.6,-0.85 q 0.7,-0.9 1.2,-1.1 l 0.9,0.05 0.7,0.7 q 0.2,0.45 0,1 l -0.7,0.75 -0.45,0.6 -0.35,0.45 1.05,0.7 M 4.5,28.45 Q 4.1,27.5 4.3,26 L 4.5,25 5.2,24.05 6.25,23 q 1.65,-1.25 3.65,-0.95 2.05,0.35 3.15,2.2 l 0.45,1.4 q 0.2,1.4 -0.75,2.85 v 0.05 l -1.25,-0.15 -1.15,0.05 -2,0.35 -0.95,0.25 -1.15,0.7 -0.4,0.35 Q 4.9,29.4 4.5,28.45 m 11.6,2 0.75,-0.45 0.85,0.1 0.85,1 0.95,0.8 0.5,0.05 0.35,-0.05 0.4,-0.3 q 0.5,-0.7 0.9,-0.85 l 0.85,0.05 0.55,0.65 -0.15,1 -0.65,0.8 q -0.55,0.7 -1,0.85 l -1.1,0.2 q -1.65,0 -2.35,-0.5 l -0.7,-0.45 q -0.2,0.75 -0.95,1.15 -1.55,1 -3.3,0.55 l -1.3,-0.8 q -0.6,-0.7 -0.4,-1.4 0.25,-0.85 0.85,-0.7 0.35,0.1 0.8,0.75 l 0.75,0.2 1,-0.1 0.9,-0.8 0.45,-1.15 0.2,-0.6"
         fill="#ffffff"
         fill-rule="evenodd"
         stroke="none"
         id="path7" />
    </g>
    <g
       id="shape2"
       transform="translate(1.5,1.5)">
      <path
         d="M 0,23.8 V 0 H 64.1 V 23.8 57.55 H 0 Z"
         fill="none"
         stroke="#000000"
         stroke-linecap="round"
         stroke-linejoin="round"
         stroke-width="3"
         id="path8" />
    </g>
  </defs>
</svg>
