<?xml version="1.0" encoding="UTF-8" standalone="no"?>
<svg
   ffdec:objectType="frame"
   height="60.549999"
   width="67.099998"
   version="1.1"
   id="svg8"
   sodipodi:docname="561.svg"
   xmlns:inkscape="http://www.inkscape.org/namespaces/inkscape"
   xmlns:sodipodi="http://sodipodi.sourceforge.net/DTD/sodipodi-0.dtd"
   xmlns:xlink="http://www.w3.org/1999/xlink"
   xmlns="http://www.w3.org/2000/svg"
   xmlns:svg="http://www.w3.org/2000/svg"
   xmlns:ffdec="https://www.free-decompiler.com/flash">
  <sodipodi:namedview
     id="namedview8"
     pagecolor="#ffffff"
     bordercolor="#000000"
     borderopacity="0.25"
     inkscape:showpageshadow="2"
     inkscape:pageopacity="0.0"
     inkscape:pagecheckerboard="0"
     inkscape:deskcolor="#d1d1d1"
     fit-margin-top="5"
     fit-margin-left="5"
     fit-margin-right="5"
     fit-margin-bottom="5" />
  <g
     transform="translate(1.5,1.5)"
     id="g3">
    <use
       ffdec:characterId="516"
       height="57.549999"
       width="64.099998"
       xlink:href="#shape0"
       id="use1" />
    <use
       ffdec:characterId="1057"
       height="57.049999"
       transform="translate(0.3,-0.05)"
       width="64.050003"
       xlink:href="#shape1"
       id="use2" />
    <use
       ffdec:characterId="518"
       height="60.549999"
       transform="translate(-1.5,-1.5)"
       width="67.099998"
       xlink:href="#shape2"
       id="use3" />
  </g>
  <defs
     id="defs8">
    <g
       id="shape0">
      <path
         d="M 53.6,0 H 64.1 V 57.55 H 53.6 28.25 0 V 0 H 28.25 53.6 V 57.55 0 M 28.25,0 V 57.55 0"
         fill="#ffffff"
         fill-rule="evenodd"
         stroke="none"
         id="path3" />
    </g>
    <g
       id="shape1"
       transform="translate(-0.3,0.05)">
      <path
         d="m 37.55,25.95 q 1.35,0.65 2.8,0.4 1.45,-0.25 2.4,-1.45 l 0.4,-0.7 0.35,-0.85 -0.95,-0.7 -1.1,-1.4 -0.4,-0.8 -0.25,-0.85 q -0.1,-0.75 0.05,-1.3 v -0.05 q -1.65,-0.65 -3.2,0.4 -0.6,0.35 -1.25,1.2 l -0.75,1.3 q -0.2,0.7 -0.1,1.6 0,0.55 0.15,1 0.35,1.4 1.85,2.2 M 19.8,24.6 q -1.1,-4.35 1.65,-8.9 -0.65,-1.15 -0.9,-2.5 L 20.4,11.75 Q 20.5,8.6 22.6,6.5 24.75,4.35 27.85,4.25 l 2,0.3 1.45,0.85 1.65,1.55 0.7,1.35 2.85,0.5 q 1.5,0.4 3.55,1.7 2.1,1.4 3.35,3.1 0.85,1.15 1.55,2.95 l 2.15,1.05 1.55,1.1 1.65,1.85 q 1.15,1.55 1.5,2.7 l 0.4,2.25 q 0.3,3.25 -1.1,4.7 l -1.95,1.25 q -1.5,0.65 -3,0.5 -1.7,-0.15 -3.15,-1.4 l -3.1,2.1 0.9,2 q 1.4,3.35 1.15,6.05 l -0.05,0.45 0.6,-0.05 1.7,0.2 1.45,0.15 q 1.3,0.25 1.95,1.2 1.15,1.4 0.65,3.3 -0.4,1.6 -2.05,2.8 -0.9,0.6 -2,1 l -1.85,0.65 q -2.8,0.85 -5.35,0.55 -0.4,0 -0.6,-0.2 -0.25,-0.2 -0.2,-0.6 l 0.35,-0.6 1.3,-0.4 q 2.7,-0.45 6.25,-2.3 l 0.8,-0.6 q 0.45,-0.45 0.2,-0.95 l -4,0.15 -1.3,0.4 q -1.7,2 -4.1,3.05 -4.85,2.1 -10.55,0.3 -2.45,-0.75 -4.05,-1.95 -1.95,-1.55 -2.6,-3.6 -0.65,-2.25 0.35,-5.3 1.05,-3.4 3.1,-5.8 l 1.9,-1.85 q -3.2,-2.75 -4.05,-6.1 m 13.05,-0.9 -0.1,-0.9 0.85,-1.25 q 0.35,-0.65 0,-1.25 -0.3,-0.65 -1.1,-0.65 -0.6,0 -1.05,0.55 l -0.5,1 -0.7,0.15 q -1.55,0.45 -2.7,1.6 -0.4,0.3 -0.4,0.7 0,0.35 0.5,0.55 h 0.8 l 1.8,-0.1 h 0.3 l 0.1,0.45 0.25,1.4 0.25,1.1 q 0.4,0.5 0.95,0.4 0.55,-0.1 0.8,-0.6 L 32.95,26 32.85,23.7 m -4.8,-4.05 0.75,-0.4 0.95,-0.65 q 1.1,-0.85 1.35,-2.3 0.35,-1.4 -0.4,-2.6 L 30.15,12.95 Q 29.1,11.8 27.7,11.65 26.15,11.4 25,12.3 l -1.1,1.2 -0.55,0.95 -0.25,0.85 -0.1,1 q -0.1,1.95 1.6,3.05 1.7,1.1 3.45,0.3"
         fill="#000000"
         fill-rule="evenodd"
         stroke="none"
         id="path4" />
      <path
         d="m 37.55,25.95 q -1.5,-0.8 -1.85,-2.2 -0.15,-0.45 -0.15,-1 -0.1,-0.9 0.1,-1.6 l 0.75,-1.3 q 0.65,-0.85 1.25,-1.2 1.55,-1.05 3.2,-0.4 v 0.05 q -0.15,0.55 -0.05,1.3 l 0.25,0.85 0.4,0.8 1.1,1.4 0.95,0.7 -0.35,0.85 -0.4,0.7 q -0.95,1.2 -2.4,1.45 -1.45,0.25 -2.8,-0.4 m -9.5,-6.3 Q 26.3,20.45 24.6,19.35 22.9,18.25 23,16.3 l 0.1,-1 0.25,-0.85 0.55,-0.95 1.1,-1.2 q 1.15,-0.9 2.7,-0.65 1.4,0.15 2.45,1.3 l 0.55,0.75 q 0.75,1.2 0.4,2.6 -0.25,1.45 -1.35,2.3 l -0.95,0.65 -0.75,0.4 m 4.8,4.05 0.1,2.3 -0.05,0.85 q -0.25,0.5 -0.8,0.6 -0.55,0.1 -0.95,-0.4 l -0.25,-1.1 -0.25,-1.4 -0.1,-0.45 h -0.3 l -1.8,0.1 h -0.8 q -0.5,-0.2 -0.5,-0.55 0,-0.4 0.4,-0.7 1.15,-1.15 2.7,-1.6 l 0.7,-0.15 0.5,-1 q 0.45,-0.55 1.05,-0.55 0.8,0 1.1,0.65 0.35,0.6 0,1.25 l -0.85,1.25 0.1,0.9"
         fill="#ffffff"
         fill-rule="evenodd"
         stroke="none"
         id="path5" />
      <path
         d="M 2.45,0.6 2.5,0.55 V 0.5 0.4 0.05 -0.05 h 61.85 v 54.9 H 64.3 64.15 63.7 63.5 63.2 v 0.05 l 0.05,0.05 v 0.1 l 0.05,0.05 v 0.3 0.1 0.2 l -0.05,0.05 v 0.05 l -0.05,0.05 v 0.1 L 63.15,56 v 0.05 l -0.05,0.05 -0.15,0.15 -0.1,0.1 -0.05,0.05 -0.1,0.05 -0.1,0.05 -0.15,0.05 -0.1,0.05 H 62.3 l -0.1,0.05 H 62 61.55 61.3 61.1 60.85 59.7 59.5 59.4 59.35 58.75 58.35 57.2 56.75 56.55 L 56.4,56.6 h -0.7 l -1.25,0.05 H 53.65 52.2 51.35 50.3 l -1.35,0.05 h -0.45 -1.45 -0.4 -2.8 -0.6 -1 -1.2 -0.4 l -0.45,0.05 h -0.45 l -1,-0.05 h -0.6 -0.85 -6.35 -0.85 -1.75 -2.8 l -0.3,-0.05 H 25 23.1 l -1,-0.05 h -2.05 l -1.2,-0.05 H 17.7 L 17.05,56.6 H 15.5 l -4.45,0.05 H 10.7 10.5 10.05 9.75 9.15 8.85 l -2,0.05 H 2.9 L 2.8,56.8 2.7,56.85 2.55,56.9 2.45,56.95 H 2.4 2.3 L 2.2,57 H 2 1.75 L 1.65,56.95 H 1.55 L 1.45,56.9 1.3,56.85 1.2,56.8 1.1,56.75 1,56.7 0.95,56.65 0.85,56.55 0.7,56.4 0.65,56.35 V 56.3 L 0.55,56.2 0.5,56.1 V 56.05 L 0.45,56 V 55.95 L 0.4,55.9 V 55.8 55.7 L 0.35,55.65 V 55.4 L 0.3,55.35 v -0.1 -0.35 -0.1 -0.35 -0.1 -0.3 -0.1 -0.35 -0.1 -0.35 -0.1 -0.35 -0.1 -0.35 -0.1 -0.3 -0.1 V 51.4 51.3 50.95 50.85 50.5 50.4 50.1 50 49.65 49.55 49.2 49.1 48.75 48.65 48.3 48.2 47.9 47.8 47.45 47.35 47 46.9 46.55 46.45 46.1 46 v -0.3 -0.1 -0.35 -0.1 -0.35 -0.1 -0.35 -0.1 -0.3 -0.1 -0.35 -0.1 -0.35 -0.1 -0.35 -0.1 -0.35 -0.1 -0.3 -0.1 V 41.3 41.2 40.85 40.75 40.4 40.3 40 39.9 39.8 l 0.05,-0.05 v -0.2 -0.1 -0.35 -0.1 -0.35 -0.1 -0.35 -0.1 -0.3 -0.1 -0.35 -0.1 -0.35 -0.1 -0.35 -0.1 -0.3 -0.1 -0.35 -0.1 -0.35 -0.1 -0.35 -0.1 -0.35 -0.1 -0.3 -0.1 -0.35 -0.1 -0.35 -0.1 -0.35 -0.1 -0.25 L 0.4,32.1 V 32 31.65 31.55 31.2 31.1 30.75 30.65 30.3 30.2 29.9 29.8 29.45 29.35 29 28.9 28.55 28.45 28.1 28 v -0.3 -0.1 -0.35 -0.1 -0.35 -0.1 -0.35 -0.1 -0.3 -0.1 -0.35 -0.1 -0.35 -0.1 -0.35 -0.1 -0.35 -0.1 -0.3 -0.1 V 23.3 23.2 22.85 22.75 22.4 22.3 22 21.9 21.65 L 0.45,21.6 V 21.55 21.45 21.1 21 20.65 20.55 20.2 20.1 19.8 19.7 19.35 19.25 18.95 L 0.5,18.9 v -0.1 -0.35 -0.1 -0.3 -0.1 -0.35 -0.1 -0.35 -0.1 -0.35 -0.1 -0.35 -0.1 -0.3 -0.1 V 15.4 15.3 14.95 14.85 14.5 14.4 14.1 14 13.65 13.55 13.2 13.1 12.75 12.65 12.3 12.2 11.9 11.8 11.45 11.35 11 10.9 10.55 10.45 10.1 10 9.7 9.6 9.25 9.15 8.8 8.7 8.35 8.25 7.95 7.85 7.5 L 0.55,7.4 V 7.05 6.95 6.6 6.5 6.15 6.05 5.75 5.65 5.5 L 0.6,5.45 V 5.3 5.2 4.85 4.75 4.4 4.3 4.1 L 0.65,4.05 V 4 3.9 3.55 3.45 3.25 L 0.7,3.2 V 3.1 3 2.65 2.55 2.25 L 0.75,2.2 V 2.1 1.95 L 0.8,1.9 V 1.8 1.7 1.5 L 0.85,1.45 V 1.35 L 0.9,1.25 0.95,1.2 V 1.15 L 1,1.1 V 1.05 L 1.1,1 V 0.95 L 1.15,0.9 1.25,0.8 1.3,0.75 1.4,0.7 1.55,0.65 1.6,0.6 H 1.7 1.75 2 V 0.55 L 2.2,0.6 h 0.05 l 0.1,0.05 0.1,0.05 V 0.6 m 17.35,24 q 0.85,3.35 4.05,6.1 l -1.9,1.85 q -2.05,2.4 -3.1,5.8 -1,3.05 -0.35,5.3 0.65,2.05 2.6,3.6 1.6,1.2 4.05,1.95 5.7,1.8 10.55,-0.3 2.4,-1.05 4.1,-3.05 l 1.3,-0.4 4,-0.15 q 0.25,0.5 -0.2,0.95 l -0.8,0.6 q -3.55,1.85 -6.25,2.3 l -1.3,0.4 -0.35,0.6 q -0.05,0.4 0.2,0.6 0.2,0.2 0.6,0.2 2.55,0.3 5.35,-0.55 l 1.85,-0.65 q 1.1,-0.4 2,-1 1.65,-1.2 2.05,-2.8 0.5,-1.9 -0.65,-3.3 -0.65,-0.95 -1.95,-1.2 L 44.2,41.3 42.5,41.1 41.9,41.15 41.95,40.7 Q 42.2,38 40.8,34.65 l -0.9,-2 3.1,-2.1 q 1.45,1.25 3.15,1.4 1.5,0.15 3,-0.5 L 51.1,30.2 q 1.4,-1.45 1.1,-4.7 L 51.8,23.25 Q 51.45,22.1 50.3,20.55 L 48.65,18.7 47.1,17.6 44.95,16.55 Q 44.25,14.75 43.4,13.6 42.15,11.9 40.05,10.5 38,9.2 36.5,8.8 L 33.65,8.3 32.95,6.95 31.3,5.4 29.85,4.55 l -2,-0.3 q -3.1,0.1 -5.25,2.25 -2.1,2.1 -2.2,5.25 l 0.15,1.45 q 0.25,1.35 0.9,2.5 -2.75,4.55 -1.65,8.9"
         fill="#999999"
         fill-rule="evenodd"
         stroke="none"
         id="path6" />
      <path
         d="m 6.85,47.35 q -0.8,0 -0.85,-0.4 -0.15,-0.4 0.4,-0.7 0.35,-0.2 1.95,-0.7 L 10.4,44.6 q 2.75,-1.45 5.2,-3.1 -0.3,-0.6 -0.35,-1.35 v -0.9 l 0.6,-3.2 q -1.95,1.6 -4.85,3.2 l -0.4,0.05 q -0.25,-0.1 -0.15,-0.4 l 0.3,-0.3 q 7.7,-6.9 11.3,-15.05 0.4,-1 0.8,-1.4 0.8,-0.7 1.45,-0.2 0.55,0.4 0.45,1.1 L 24.4,24.25 23,27.05 21.05,30.1 21,30.65 v 0.65 l 0.1,0.75 0.15,0.5 q 0.45,1.15 1.2,2.05 l 0.45,0.45 0.4,0.2 0.65,-0.7 1.1,-0.85 q 0.8,-0.35 1.3,0.2 0.4,0.45 0.1,1.1 l -0.65,0.95 -3.7,3.5 v 0.05 l 0.15,0.6 0.05,0.4 0.45,0.9 0.25,0.35 0.85,0.65 q 0.3,0.25 0.65,0.3 h 0.3 q 3.25,-4.45 5.2,-10 0.55,-1.4 1.15,-1.65 l 1,0.05 q 0.5,0.2 0.65,0.7 l -0.15,1.45 q -1.45,4.35 -3.85,8.1 l 0.85,0.4 1.15,0.2 h 1.5 l 0.9,-0.25 1.55,-0.6 -0.35,-1.4 q -0.8,-3.05 -0.6,-4.65 0.1,-0.6 0.45,-0.45 l 0.2,0.2 0.75,1.75 0.25,1.15 q 0.55,2.5 1.85,4.95 l 1.9,0.15 1.5,-0.15 0.85,-0.15 1.2,-0.45 0.65,-0.4 0.6,-0.55 -0.95,-0.65 -1.6,-1.6 -0.8,-0.9 -1.2,-1.35 Q 38.85,35.65 39,35.05 l 0.25,-0.4 q 0.35,-0.15 0.9,0.4 1.55,1.75 3.55,3.15 l 2.55,1.65 q 2.8,1.7 4.25,2.4 l 1.8,0.7 1.4,0.55 q 0.75,0.55 0.6,1.3 -0.15,0.75 -1.05,0.95 l -1.5,-0.2 Q 50.1,45 48.1,43.8 l -2.65,-1.7 -0.4,0.55 -1.65,1.2 -1.55,0.6 -1.55,0.15 -1.95,-0.2 q 1.4,2.15 3.4,4.25 l 1.4,1.3 0.85,0.75 q 0.45,0.7 0,1.4 -0.4,0.7 -1.25,0.6 -0.6,-0.05 -1.35,-0.8 -1.8,-1.7 -3.65,-4.6 -3.1,2.65 -7,3.65 l -1,0.25 Q 26.55,51.75 23.7,50.35 22.6,49.8 22.05,49.1 18.8,51.75 15.1,52.7 l -0.8,-0.15 q -0.35,-0.45 0.55,-0.95 1.85,-1 3.55,-2.3 H 18.35 L 17.55,49.25 16,49.05 15.45,48.85 Q 14.15,48.4 13.3,47.3 12.6,46.4 12.5,45.5 l -2.95,1.15 -2.7,0.7 M 18.15,33.7 17.4,34.6 16.85,36 v 0.6 l -0.1,0.55 v 0.35 l -0.05,0.55 v 0.65 l 0.15,0.8 0.2,0.4 0.25,0.45 4.35,-3.5 -0.55,-0.8 -0.2,-0.25 -0.45,-0.85 -0.4,-2.2 -0.1,-1.2 -1.8,2.15 m 2.15,7.45 q -2.55,2 -6.65,3.85 l 0.4,0.7 0.35,0.4 0.9,0.65 1.05,0.4 0.8,0.2 h 0.55 l 0.6,0.15 0.9,-0.05 1.1,-0.15 0.55,-0.05 2.55,-2.75 -0.25,-0.15 -1.2,-0.9 -0.3,-0.25 -0.6,-0.8 -0.3,-0.5 -0.2,-0.95 -0.25,0.2 m 6.3,3.25 -3.4,3.75 0.55,0.25 1.6,0.5 2.3,0.4 1.7,-0.15 q 4.4,-0.8 7.35,-3.5 l -1.45,-2.9 -0.05,-0.1 -1.25,0.5 -1.65,0.4 -1,0.1 L 30.2,43.6 28.75,43.15 28,42.6 26.6,44.4"
         fill="#ffffff"
         fill-rule="evenodd"
         stroke="none"
         id="path7" />
    </g>
    <g
       id="shape2"
       transform="translate(1.5,1.5)">
      <path
         d="M 0,23.8 V 0 H 64.1 V 23.8 57.55 H 0 Z"
         fill="none"
         stroke="#000000"
         stroke-linecap="round"
         stroke-linejoin="round"
         stroke-width="3"
         id="path8" />
    </g>
  </defs>
</svg>
