<?xml version="1.0" encoding="UTF-8" standalone="no"?>
<svg
   ffdec:objectType="frame"
   height="60.549999"
   width="67.199997"
   version="1.1"
   id="svg10"
   sodipodi:docname="423.svg"
   xmlns:inkscape="http://www.inkscape.org/namespaces/inkscape"
   xmlns:sodipodi="http://sodipodi.sourceforge.net/DTD/sodipodi-0.dtd"
   xmlns:xlink="http://www.w3.org/1999/xlink"
   xmlns="http://www.w3.org/2000/svg"
   xmlns:svg="http://www.w3.org/2000/svg"
   xmlns:ffdec="https://www.free-decompiler.com/flash">
  <sodipodi:namedview
     id="namedview10"
     pagecolor="#ffffff"
     bordercolor="#000000"
     borderopacity="0.25"
     inkscape:showpageshadow="2"
     inkscape:pageopacity="0.0"
     inkscape:pagecheckerboard="0"
     inkscape:deskcolor="#d1d1d1"
     fit-margin-top="5"
     fit-margin-left="5"
     fit-margin-right="5"
     fit-margin-bottom="5" />
  <g
     transform="translate(1.5,1.5)"
     id="g3">
    <use
       ffdec:characterId="516"
       height="57.549999"
       width="64.099998"
       xlink:href="#shape0"
       id="use1" />
    <use
       ffdec:characterId="922"
       height="54.650002"
       transform="translate(0.15,4)"
       width="65.550003"
       xlink:href="#shape1"
       id="use2" />
    <use
       ffdec:characterId="518"
       height="60.549999"
       transform="translate(-1.5,-1.5)"
       width="67.099998"
       xlink:href="#shape2"
       id="use3" />
  </g>
  <defs
     id="defs10">
    <g
       id="shape0">
      <path
         d="M 53.6,0 H 64.1 V 57.55 H 53.6 28.25 0 V 0 H 28.25 53.6 V 57.55 0 M 28.25,0 V 57.55 0"
         fill="#ffffff"
         fill-rule="evenodd"
         stroke="none"
         id="path3" />
    </g>
    <g
       id="shape1"
       transform="translate(-0.15,-4)">
      <path
         d="M 61.2,5 61.35,5.2 61.5,5.5 61.35,6 q -0.3,0.4 -0.8,0.25 L 60.3,6 60.15,5.8 60.1,5.6 q 0,-0.3 0.3,-0.55 L 60.55,4.95 60.9,4.9 61.2,5 m -9.15,7.95 0.1,-0.85 -1.4,-0.1 q -0.7,-0.3 -1.05,-1 -0.35,0.1 -0.85,0.65 l -0.85,0.7 -0.85,0.15 -0.1,0.1 -0.5,0.35 -1.95,1.85 q 0.4,1 -0.7,2.2 -0.7,0.6 -0.75,1.15 l 0.15,0.8 v 0.5 l 0.05,1.1 v 0.05 l 0.5,0.55 1.05,0.65 q 1.65,0.95 1.8,2.55 0.1,0.8 -0.3,1.55 -0.5,0.75 -1.25,0.95 -1.1,0.25 -1.95,-0.6 l -0.75,-0.9 -0.85,-0.55 -0.1,0.05 q -1,0.75 -2.2,0.75 -1.2,0 -2.2,-0.75 -1.05,-0.75 -1.35,-1.9 L 35.5,22.1 q -0.3,-0.5 -0.7,-0.5 -0.75,0.6 -0.75,1.5 -0.05,0.6 0.35,1.5 l 0.65,1.45 0.1,0.35 0.5,0.2 q 0.4,0.3 0.6,1.05 l 0.05,0.7 -0.45,1.05 -1.05,0.55 -0.7,-0.05 -0.65,0.45 q -1.45,0.9 -3,0.25 -0.5,-0.3 -0.8,-0.35 l -1,0.05 -1.85,0.45 q -0.5,0.3 -1.25,1.5 l -0.6,0.4 q -0.3,-0.05 -0.3,-0.5 l 0.2,-0.55 q 0.85,-1.55 1.7,-2.15 0.5,-0.35 1.8,-0.75 l 1.95,-0.3 1.25,0.25 0.95,-0.45 0.6,-0.5 q 0.35,-0.6 -0.3,-1.9 -1.2,-2.7 -0.55,-4.35 0.3,-0.85 1.3,-1.85 l 0.35,-0.25 0.1,-0.4 q 0.3,-0.65 0.7,-0.8 l 1.35,0.15 q 0.65,0.15 1.05,0.5 0.45,0.45 0.4,1.1 0.8,0.65 0.95,1.35 l 0.25,1 0.45,0.25 0.4,-0.4 L 39.5,22 q -0.4,-1 -0.35,-1.65 l 0.3,-1.25 0.3,-1.8 q 0.2,-0.8 0.8,-1.45 l 0.8,-0.9 0.3,-0.8 q 0.45,-1.2 1.5,-2.05 l 0.8,-0.5 Q 43.4,11.1 43.3,10.25 v -0.5 q -0.1,-1.1 0.25,-1.7 L 43.9,7.55 Q 45.25,6.1 46.8,6.1 V 6 l 0.25,-0.3 q 0.7,-0.65 1.55,-0.15 0.8,0.5 0.45,1.45 l 0.3,0.35 h 0.05 q 1.45,-0.2 2.3,0.4 L 52.5,8.3 53.25,8.55 53.85,7.7 54.3,7.2 Q 54.6,6.9 55.2,6.55 L 55.75,6.3 56,6.25 56.2,6.15 h 0.25 l 1.7,0.4 0.5,0.5 q 0.3,0.35 0.3,1.05 l -0.1,0.8 -0.7,0.85 -0.4,0.3 H 57.2 L 56.95,10 56.8,10.15 56.65,10.8 v 0.05 L 57.4,10.7 q 1,0 1.8,0.95 l 0.45,0.6 0.5,1.1 0.25,1.95 -0.05,0.75 -0.2,0.6 -0.7,1.1 -0.8,0.55 -0.45,0.25 -0.85,1.7 q 0.9,0.55 0.8,1.7 -0.05,0.9 -0.85,1.7 l -1.2,0.8 0.25,0.1 q 0.8,0.5 1.25,1.75 l 0.2,0.95 -0.3,1.1 -0.1,0.05 -0.35,0.55 -0.25,0.25 -0.55,0.4 Q 55.1,30.2 54,29.35 L 53.5,28.7 53.4,28 v -0.25 l 0.05,-0.3 0.1,-0.25 -0.05,-0.15 Q 52.85,27.15 52.35,26.7 52.05,26.45 52,26 51.9,25.7 52.05,25.4 51.3,25.05 51.2,24.55 q 0,-0.5 0.4,-0.75 l 0.85,-0.05 -0.15,-0.6 q -0.05,-0.5 0.45,-0.8 h 0.05 l 0.1,-0.3 q 0.35,-0.7 1.05,-0.9 -0.3,-0.95 0.1,-1.75 L 54.2,18.95 53.8,18.6 Q 53.05,18 53.35,17.1 l 0.05,0.05 0.85,0.55 1.15,-0.15 q 0.55,-0.4 0.4,-1.15 l -0.2,-0.45 -0.55,-0.75 -0.9,-1.45 -0.65,-0.8 -0.95,-0.3 -0.5,0.3 M 41.15,4.4 q 0.15,-0.25 0.5,-0.35 l 0.7,0.05 q 0.5,0.25 0.5,0.75 0.1,0.5 -0.35,0.85 L 41.9,5.9 41.35,5.7 41.1,5.45 41,4.95 q 0,-0.3 0.15,-0.55 m 0.15,8.25 -1.15,0.15 Q 39.5,12.5 39.6,11.75 l 0.15,-0.4 q 0.35,-0.5 0.85,-0.45 l 0.05,-0.05 q 0.6,0.1 0.8,0.45 0.3,0.45 0.15,0.95 l -0.1,0.05 -0.2,0.35 m 5.75,21.75 1.45,0.1 q 0.7,0.25 1.05,0.9 0.6,0.95 0.05,2.1 L 49.35,38 q 0.3,0.05 0.6,0.25 0.95,0.6 0.8,1.7 L 50.2,41 q -0.7,0.65 -1.6,0.5 -0.85,-0.1 -1.3,-0.95 L 47.15,39.9 47.2,39.4 44.9,39.35 44.15,39.1 43.4,38.7 41.95,37.1 41.7,36.15 41.55,35.55 V 35.1 q 0,-0.45 0.15,-0.85 0.25,-1.05 1.1,-1.45 1.1,-0.45 1.7,0.4 l 0.55,1 q 0.5,0.6 1.3,0.4 l 0.7,-0.2 m -1.6,9.45 -1.2,0.35 q -0.7,-0.05 -1.2,-0.45 -0.5,-0.45 -0.6,-1.15 -0.1,-0.7 0.25,-1.25 0.35,-0.55 1,-0.8 0.7,-0.2 1.3,0 l 0.95,0.9 q 0.35,0.6 0.2,1.25 -0.05,0.6 -0.7,1.15 M 4.6,47.35 h 13.65 6.25 9.95 l 9,0.05 h 5.35 l 3.2,0.05 h 0.6 l 0.5,0.05 h 1.65 l 5.95,0.05 1,0.05 h 0.45 0.05 l 0.05,-0.05 0.1,-0.05 0.1,-0.05 h 0.2 l 0.3,0.05 0.2,0.1 0.1,0.05 0.05,0.05 h 0.15 l 0.15,0.1 0.15,0.1 0.05,0.05 0.05,0.1 v 0.05 l 0.05,0.1 v 0.1 0.05 0.1 0.1 0.05 l -0.05,0.1 -0.05,0.05 -0.05,0.1 0.05,0.05 v 0.05 0.1 0.1 0.05 0.1 0.05 0.1 0.1 0.05 0.1 0.1 0.05 0.1 0.05 l 0.05,0.1 v 0.1 0.05 0.1 0.1 0.05 0.1 0.1 0.05 0.1 0.05 0.1 0.1 0.05 0.1 0.1 0.05 0.1 0.05 0.1 0.1 0.05 0.1 0.1 0.05 0.1 0.05 0.1 0.1 0.05 0.1 0.1 0.05 0.1 0.1 0.05 0.1 0.05 0.1 0.1 0.05 0.1 0.1 l 0.05,0.05 v 0.1 0.05 0.1 0.1 0.05 0.1 0.1 0.05 0.1 0.1 0.05 0.1 0.05 0.1 0.1 0.05 0.1 h 0.2 l 0.25,0.05 h 0.05 0.1 l 0.25,0.05 0.2,0.05 0.15,0.05 0.1,0.1 0.15,0.1 0.05,0.05 0.05,0.1 0.05,0.05 0.05,0.1 0.05,0.1 0.05,0.05 v 0.1 l 0.05,0.1 v 0.05 0.1 0.05 0.1 0.1 l -0.05,0.05 v 0.1 l -0.05,0.1 v 0.05 l -0.1,0.1 -0.05,0.1 -0.05,0.05 -0.05,0.1 -0.1,0.05 -0.1,0.1 -0.15,0.1 -0.15,0.05 h -0.1 L 64.5,57.45 H 64.4 64.35 64.1 62.65 54.9 52.8 49.1 l -4.2,0.05 h -8.45 l -2.9,0.05 h -2.2 -3.3 L 21,57.6 H 17.15 5.95 4.3 L 3.6,57.55 3.3,57.5 H 2.65 L 2.15,57.45 H 1.9 L 1.6,57.4 1.35,57.6 q -0.7,0.45 -1.2,0.35 V 47.4 L 4.6,47.35 M 57.65,37.2 58.2,37.45 58.4,38 q 0,0.5 -0.55,0.7 -0.5,0.15 -0.85,-0.35 l -0.1,-0.3 V 37.9 q 0.1,-0.55 0.65,-0.65 l 0.1,-0.05 M 39.8,15.8 q -0.75,0.3 -1.3,-0.25 -0.6,-0.6 -0.25,-1.35 0.25,-0.7 1.1,-0.7 0.85,0 1.1,0.75 v 0.9 L 39.8,15.8 m -8.15,2.85 q 0.1,-0.45 0.25,-0.55 l 0.35,-0.15 0.1,-0.05 0.4,0.2 q 0.45,0.25 0.25,0.75 -0.15,0.5 -0.65,0.5 -0.45,0 -0.65,-0.5 l -0.05,-0.2 M 38.3,39.4 q 0.25,0.7 -0.45,1.15 -0.7,0.45 -1.25,-0.2 L 36.35,39.7 36.4,39.4 q 0.25,-0.7 0.95,-0.7 0.8,0 0.95,0.7"
         fill="#999999"
         fill-rule="evenodd"
         stroke="none"
         id="path4" />
      <path
         d="M 53.35,17.1 52.4,15.45 52.1,14.8 51.9,14.15 51.75,13.8 l 0.05,0.05 0.35,0.35 0.55,0.65 1.15,1.55 0.55,0.55 0.85,-0.05 q 0.45,-0.25 0.35,-0.8 v -0.15 l 0.2,0.45 q 0.15,0.75 -0.4,1.15 L 54.25,17.7 53.4,17.15 53.35,17.1 m -1.5,-3.9 0.1,-0.15 0.1,-0.1 0.5,-0.3 0.95,0.3 0.65,0.8 0.9,1.45 L 55,15.15 53.35,13.6 52.6,13.25 52.1,13.15 51.85,13.2"
         fill="#000000"
         fill-rule="evenodd"
         stroke="none"
         id="path5" />
      <path
         d="m 51.75,13.8 -0.05,-0.45 0.15,-0.15 0.25,-0.05 0.5,0.1 0.75,0.35 1.65,1.55 0.05,0.05 0.55,0.75 v 0.15 q 0.1,0.55 -0.35,0.8 L 54.4,16.95 53.85,16.4 52.7,14.85 52.15,14.2 51.8,13.85 51.75,13.8"
         fill="#ffffff"
         fill-rule="evenodd"
         stroke="none"
         id="path6" />
      <path
         d="m 31.1,30.7 q -0.45,2.1 -1.4,3.85 l 2.7,-1.8 11.15,-8.1 0.65,-0.45 -0.35,-0.25 Q 41.1,21.75 41.1,17.9 41.1,16 41.85,14.25 L 41.4,14.05 40.65,13.5 Q 39.45,12.4 39.3,10.75 39.15,9.05 40.2,7.85 41,6.9 42.35,6.55 l 1.55,-0.1 1.3,0.25 q 1.1,0.4 1.6,1.3 l 0.5,1.2 q 1.6,-0.3 3.25,0 l 2.2,0.7 0.15,-0.2 Q 54.4,7.85 56.75,7.55 L 57.9,7.6 58.85,8 59.7,8.65 q 1.2,1.45 1.05,3.45 l -0.25,1.3 -0.4,0.7 q -0.7,1.1 -1.7,1.75 l -0.85,0.5 q 0.3,2.1 -0.4,3.9 -0.95,2.3 -3.5,3.8 1.85,2.15 2.6,5.55 0.8,3.2 -0.1,5.7 -0.55,1.65 -1.55,2.7 l -0.15,0.25 -1.45,2 -1.3,0.75 -1.35,0.7 q -0.65,0.35 -0.75,0.85 -0.05,0.55 0.5,1.1 l 1,0.8 q 0.5,0.5 0.6,1.6 0.2,2.1 -1,2.9 l -1,0.5 q -0.6,0.25 -0.8,0.65 l -0.15,0.85 -0.35,0.75 -0.7,0.05 -0.65,-0.5 q -0.6,-1.1 0.1,-2.25 0.5,-0.9 1.8,-1.55 l 0.55,-0.4 v -0.5 l -0.65,-0.9 -0.9,-0.75 Q 46.7,43.55 47.1,41.7 47.4,40.35 48.55,39.6 47.5,39.45 46.6,39 45,38.3 43.65,36.7 q -1,-1.3 -1.3,-2.05 -0.75,-1.55 -0.7,-3.3 L 36.25,34.3 33,36.05 q -4.95,2.7 -9.85,4.85 2.75,5.7 2.55,13.6 -0.05,1.7 -0.6,2.45 -0.8,0.95 -3.1,1.15 l -5.55,0.5 -1.9,0.05 Q 13.6,58.5 13,57.85 12.3,57.05 12.4,55.3 12.35,49.4 13.65,43.95 L 12.2,45.4 q -2,2.1 -3.15,4.15 1.2,0.5 1.85,1.55 0.4,0.75 0.5,2.15 0,1.2 -0.4,2.05 l -1,1.25 Q 9,57.4 7.9,57.6 L 5.4,57.25 Q 4.35,56.85 3.7,56.05 2.75,54.8 3,52.9 3.2,51.6 4.2,49.85 6.65,45.7 12.25,41.7 L 14,40.6 12.6,40.35 Q 10.45,39.75 8.85,38.8 L 8.3,38.45 8.05,38.25 7.65,37.95 5.55,35.6 q -2.3,-3.35 -2,-9.75 L 3.8,23.65 3.9,23.45 3.6,21.5 q -0.25,-2.7 -0.1,-4.45 0.2,-1.6 1,-2.1 l 2.55,-0.05 1.55,0.55 0.1,-0.1 q 3.25,-2.6 8.6,-2.9 l 4.8,0.4 0.95,-1.15 q 0.9,-1.2 1.45,-1.65 1.05,-0.8 2.1,-0.35 0.7,0.35 1.2,1.65 1.45,3.4 1.95,5.8 l 0.35,2.1 0.3,1.5 q 1.3,3.25 1,7.3 L 31.35,28.7 30.65,28.6 30,28.2 28.85,28 27.5,28.3 q -0.7,0.35 -0.9,1 v 0.1 l -0.65,-1.1 -0.9,-1 Q 24.3,26.65 23.2,26.5 H 22.85 L 22.8,26.1 22.4,25.3 21.8,24.55 20.45,24.6 q -0.6,0.5 -0.45,1.3 0.05,0.5 0.5,1 l 0.15,0.15 -1.25,1 -1,1.55 -0.2,1.2 -0.05,1.55 q 0.05,0.85 0.6,2 l 1.1,1.5 q 0.4,0.3 0.9,0.45 l 3.85,-0.1 0.7,-0.45 q 1.3,-0.8 1.65,-1.75 l 0.2,-1 0.05,-0.4 0.2,-0.2 0.6,-0.9 0.25,-0.65 -0.05,-0.5 0.1,-0.4 0.6,-0.05 1.15,0.55 1.05,0.25 m 20.4,-10.15 -0.35,-1 -0.85,-1 -0.15,-0.05 -0.05,-0.65 v -0.5 q -0.05,-0.2 -0.45,-0.3 l -0.1,0.05 -0.4,0.2 q -0.25,0.4 -0.35,1 v 0.1 l -1.4,0.2 q -0.95,0.35 -1.25,1.05 -0.25,0.55 0,1.05 0.35,0.45 0.8,0.45 l 0.8,-0.45 0.25,-0.4 0.55,-0.15 q 1.65,0 2.25,0.9 l 0.4,0.45 0.3,-0.3 v -0.65 m -6.85,-5.15 0.15,0.15 -0.85,1.4 -0.1,0.45 q 0.1,0.35 0.45,0.25 l 0.55,-0.25 0.95,-0.85 0.35,0.3 0.8,0.1 0.3,-0.35 -0.05,-0.5 -0.55,-0.45 0.6,-0.75 0.45,-0.8 -0.2,-0.55 q -0.25,-0.3 -0.6,-0.3 -0.5,0 -0.85,0.5 l -0.4,0.6 -0.35,-0.3 -0.55,-0.3 -0.55,0.15 q -0.3,0.25 -0.25,0.55 l 0.7,0.95 m -17,7.1 -0.8,-0.45 0.15,-0.35 0.5,-0.95 0.25,-0.45 0.2,-0.3 q 0.15,-0.65 -0.3,-1.1 l -1.1,-0.1 q -0.2,0.05 -0.5,0.35 l -0.15,0.25 -0.2,0.3 -0.2,0.6 -0.05,0.25 -0.15,0.25 -0.25,-0.25 -0.35,-0.25 -0.7,0.9 -0.35,0.45 0.6,0.75 0.1,0.2 -0.45,0.7 -0.25,0.75 -0.05,0.4 0.3,0.6 0.65,0.15 0.5,-0.45 0.55,-0.6 0.1,-0.1 0.5,0.55 q 0.5,0.5 0.85,0.6 l 1.1,-0.25 q 0.45,-0.45 0.4,-1 L 28.5,23.45 28.4,23.4 28.05,22.9 27.65,22.5 M 51.5,13.45 q -0.15,0.3 0.05,0.7 L 52,14.7 52.4,15.15 52,15.7 q -0.3,0.55 -0.25,1.1 l 0.75,-0.15 0.55,-0.35 0.7,0.95 0.9,-0.1 q 0.5,-0.25 0.4,-0.8 Q 55,15.95 54.55,15.5 L 54.35,15.25 54.6,15 55.15,14.35 Q 55.35,13.9 55.1,13.5 54.75,13.15 54.2,13.35 l -0.8,0.6 -0.05,0.1 -0.15,-0.15 -0.7,-0.65 q -0.7,-0.35 -1,0.2 m -36.45,14.3 0.85,0.05 q 0.7,-0.2 0.7,-0.75 l -0.35,-0.6 -1.1,-0.8 -0.5,-0.35 0.45,-0.85 0.45,-0.7 0.1,-0.15 -0.7,-0.1 -1.55,-0.35 -0.3,-0.1 -0.25,0.55 -0.15,0.25 -1.3,-0.75 q -0.45,-0.2 -0.95,0 L 9.6,23.65 q -0.25,0.4 -0.2,0.95 0.1,0.55 0.45,0.9 l 1.1,0.55 0.5,0.25 -0.8,1.7 -0.2,0.85 q 0.1,0.7 0.8,0.9 0.8,0.1 1.05,-0.65 l 0.5,-0.9 0.1,-0.05 0.2,-0.45 0.4,-0.55 1.55,0.6 m 9.7,5.1 L 24,33.6 22.8,34 21.95,33.85 21.25,33.6 20.95,33.2 q -1,-1.8 0,-3.55 l 0.45,-0.6 0.75,-0.25 1.35,0.05 0.6,0.65 0.5,1 -0.85,-0.15 q -0.8,0.05 -1.6,0.85 l -0.4,0.7 q -0.1,0.45 0.15,0.7 l 0.5,0.2 0.45,-0.25 0.2,-0.45 0.9,-0.5 0.4,0.95 0.4,0.3"
         fill="#000000"
         fill-rule="evenodd"
         stroke="none"
         id="path7" />
      <path
         d="m 27.2,32.6 -0.05,0.4 -0.2,1 q -0.35,0.95 -1.65,1.75 l -0.7,0.45 -3.85,0.1 q -0.5,-0.15 -0.9,-0.45 l -1.1,-1.5 q -0.55,-1.15 -0.6,-2 l 0.05,-1.55 0.2,-1.2 1,-1.55 1.25,-1 -0.15,-0.15 q -0.45,-0.5 -0.5,-1 -0.15,-0.8 0.45,-1.3 l 1.35,-0.05 0.6,0.75 0.4,0.8 0.05,0.4 h 0.35 q 1.1,0.15 1.85,0.8 l 0.9,1 0.65,1.1 -0.15,1.1 q -0.1,0.75 -0.65,0.9 L 25.5,31.35 25.3,31.1 24.65,30.5 H 24.6 l -0.5,-1 -0.6,-0.65 -1.35,-0.05 -0.75,0.25 -0.45,0.6 q -1,1.75 0,3.55 l 0.3,0.4 0.7,0.25 0.85,0.15 1.2,-0.4 0.75,-0.75 0.2,0.1 Q 26.2,33.4 27.2,32.6 M 44.65,15.4 43.95,14.45 Q 43.9,14.15 44.2,13.9 l 0.55,-0.15 0.55,0.3 0.35,0.3 0.4,-0.6 q 0.35,-0.5 0.85,-0.5 0.35,0 0.6,0.3 l 0.2,0.55 -0.45,0.8 -0.6,0.75 0.55,0.45 0.05,0.5 -0.3,0.35 -0.8,-0.1 -0.35,-0.3 -0.95,0.85 -0.55,0.25 q -0.35,0.1 -0.45,-0.25 l 0.1,-0.45 0.85,-1.4 -0.15,-0.15 m 6.85,5.15 v 0.65 l -0.3,0.3 -0.4,-0.45 q -0.6,-0.9 -2.25,-0.9 L 48,20.3 l -0.25,0.4 -0.8,0.45 q -0.45,0 -0.8,-0.45 -0.25,-0.5 0,-1.05 0.3,-0.7 1.25,-1.05 l 1.4,-0.2 v -0.1 q 0.1,-0.6 0.35,-1 l 0.4,-0.2 0.1,-0.05 q 0.4,0.1 0.45,0.3 v 0.5 l 0.05,0.65 0.15,0.05 0.85,1 0.35,1 m 0,-7.1 q 0.3,-0.55 1,-0.2 l 0.7,0.65 0.15,0.15 0.05,-0.1 0.8,-0.6 q 0.55,-0.2 0.9,0.15 0.25,0.4 0.05,0.85 L 54.6,15 l -0.25,0.25 0.2,0.25 q 0.45,0.45 0.5,0.85 0.1,0.55 -0.4,0.8 l -0.9,0.1 -0.7,-0.95 -0.55,0.35 -0.75,0.15 Q 51.7,16.25 52,15.7 L 52.4,15.15 52,14.7 51.55,14.15 q -0.2,-0.4 -0.05,-0.7 m -23.85,9.05 0.4,0.4 0.35,0.5 0.1,0.05 0.05,0.5 q 0.05,0.55 -0.4,1 l -1.1,0.25 Q 26.7,25.1 26.2,24.6 l -0.5,-0.55 -0.1,0.1 -0.55,0.6 -0.5,0.45 -0.65,-0.15 -0.3,-0.6 0.05,-0.4 0.25,-0.75 0.45,-0.7 -0.1,-0.2 -0.6,-0.75 0.35,-0.45 0.7,-0.9 0.35,0.25 0.25,0.25 0.15,-0.25 0.05,-0.25 0.2,-0.6 0.2,-0.3 0.15,-0.25 q 0.3,-0.3 0.5,-0.35 l 1.1,0.1 q 0.45,0.45 0.3,1.1 l -0.2,0.3 -0.25,0.45 -0.5,0.95 -0.15,0.35 0.8,0.45 m -12.6,5.25 -1.55,-0.6 -0.4,0.55 -0.2,0.45 -0.1,0.05 -0.5,0.9 q -0.25,0.75 -1.05,0.65 -0.7,-0.2 -0.8,-0.9 l 0.2,-0.85 0.8,-1.7 -0.5,-0.25 -1.1,-0.55 Q 9.5,25.15 9.4,24.6 9.35,24.05 9.6,23.65 l 0.85,-0.55 q 0.5,-0.2 0.95,0 l 1.3,0.75 0.15,-0.25 0.25,-0.55 0.3,0.1 1.55,0.35 0.7,0.1 -0.1,0.15 -0.45,0.7 -0.45,0.85 0.5,0.35 1.1,0.8 0.35,0.6 q 0,0.55 -0.7,0.75 l -0.85,-0.05"
         fill="#ffffff"
         fill-rule="evenodd"
         stroke="none"
         id="path8" />
      <path
         d="m 31.35,28.7 0.85,0.55 0.25,0.4 q 0.1,0.45 -0.5,0.75 l -0.6,0.3 H 31.1 l -1.05,-0.25 -1.15,-0.55 -0.6,0.05 -0.1,0.4 0.05,0.5 -0.25,0.65 -0.6,0.9 -0.2,0.2 q -1,0.8 -2.25,0.35 l -0.2,-0.1 -0.4,-0.3 -0.4,-0.95 -0.9,0.5 -0.2,0.45 -0.45,0.25 -0.5,-0.2 q -0.25,-0.25 -0.15,-0.7 l 0.4,-0.7 q 0.8,-0.8 1.6,-0.85 l 0.85,0.15 h 0.05 l 0.65,0.6 0.2,0.25 0.3,0.05 q 0.55,-0.15 0.65,-0.9 l 0.15,-1.1 v -0.1 q 0.2,-0.65 0.9,-1 l 1.35,-0.3 1.15,0.2 0.65,0.4 0.7,0.1 m 8.65,-7.75 0.55,0.45 0.1,0.7 q -0.05,0.7 -0.9,1.15 l -2.1,0.25 -0.5,-0.35 q -0.35,-0.55 0.15,-1 L 38.15,21.8 39,21.25 q 0.6,-0.4 1,-0.3 m -5.55,3.45 0.1,0.55 -0.2,0.5 L 33.8,25.4 33.4,24.95 32.85,23.75 32.9,23 q 0.2,-1.85 1.6,-2.3 l 1.7,0.15 q 0.8,0.5 0.85,1.1 0.1,0.65 -0.4,0.95 l -1,0.1 -0.7,-0.15 -0.25,0.25 q -0.3,0.65 -0.25,1.3"
         fill="#999999"
         fill-rule="evenodd"
         stroke="none"
         id="path9" />
    </g>
    <g
       id="shape2"
       transform="translate(1.5,1.5)">
      <path
         d="M 0,23.8 V 0 H 64.1 V 23.8 57.55 H 0 Z"
         fill="none"
         stroke="#000000"
         stroke-linecap="round"
         stroke-linejoin="round"
         stroke-width="3"
         id="path10" />
    </g>
  </defs>
</svg>
