<?xml version="1.0" encoding="UTF-8" standalone="no"?>
<svg
   ffdec:objectType="frame"
   height="44.349998"
   width="78.599998"
   version="1.1"
   id="svg12"
   sodipodi:docname="280.svg"
   xmlns:inkscape="http://www.inkscape.org/namespaces/inkscape"
   xmlns:sodipodi="http://sodipodi.sourceforge.net/DTD/sodipodi-0.dtd"
   xmlns:xlink="http://www.w3.org/1999/xlink"
   xmlns="http://www.w3.org/2000/svg"
   xmlns:svg="http://www.w3.org/2000/svg"
   xmlns:ffdec="https://www.free-decompiler.com/flash">
  <sodipodi:namedview
     id="namedview12"
     pagecolor="#ffffff"
     bordercolor="#000000"
     borderopacity="0.25"
     inkscape:showpageshadow="2"
     inkscape:pageopacity="0.0"
     inkscape:pagecheckerboard="0"
     inkscape:deskcolor="#d1d1d1"
     fit-margin-top="5"
     fit-margin-left="5"
     fit-margin-right="5"
     fit-margin-bottom="5" />
  <g
     transform="translate(2,2.05)"
     id="g3">
    <use
       ffdec:characterId="1"
       height="42.700001"
       transform="translate(-1.75,-2)"
       width="76.449997"
       xlink:href="#shape0"
       id="use1" />
    <use
       ffdec:characterId="274"
       height="41.849998"
       transform="translate(-1,-0.9)"
       width="76.599998"
       xlink:href="#shape1"
       id="use2" />
    <use
       ffdec:characterId="3"
       height="44.349998"
       transform="translate(-2,-2.05)"
       width="78.599998"
       xlink:href="#shape2"
       id="use3" />
  </g>
  <defs
     id="defs12">
    <g
       id="shape0"
       transform="translate(1.75,2)">
      <path
         d="M 2.8,0 V -0.4 H 5.4 V 0 H 9.7 V 19.45 0 H 20.55 L 19.3,19.45 H 9.7 0.25 V 0 H 2.8"
         fill="#ffffff"
         fill-rule="evenodd"
         stroke="none"
         id="path3" />
      <path
         d="M 0.25,19.45 H 9.7 19.3 L 18.7,28.6 16,28.5 10.95,27.95 9.7,27.8 Q 7.45,27.6 5.85,27.75 4.05,27.9 1.5,28.6 0.75,28.8 0.25,29.15 v -9.7 m 9.45,0 v 8.35 -8.35"
         fill="#121212"
         fill-rule="evenodd"
         stroke="none"
         id="path4" />
      <path
         d="m 9.7,27.8 1.25,0.15 5.05,0.55 2.7,0.1 h 1.05 l 3.75,0.15 q 2.45,0.3 3.6,1.25 0.6,0.5 0.6,1.1 0,0.65 -0.8,1 l -1.3,0.2 -7.15,0.15 -5.6,-0.3 L 9.7,31.75 7.95,31.6 3.1,31.95 0.95,32.3 0.25,32.1 -0.35,31.55 -0.5,31.3 V 29.9 L 0.25,29.15 Q 0.75,28.8 1.5,28.6 4.05,27.9 5.85,27.75 7.45,27.6 9.7,27.8 v 3.95 -3.95"
         fill="#999999"
         fill-rule="evenodd"
         stroke="none"
         id="path5" />
      <path
         d="M 2.8,0 H 0.25 M 9.7,0 H 5.4 m 16.15,0 h 10.7 M 20.55,0 H 9.7"
         fill="none"
         stroke="#666666"
         stroke-linecap="round"
         stroke-linejoin="round"
         stroke-width="4"
         id="path6" />
      <path
         d="m 9.7,-0.4 h 65 V 40.5 H 47.05 L 45.5,40.7 27,40.65 25.95,40.5 H 9.7 -0.5 V -0.4 H 9.7 V 40.5 -0.4"
         fill="#ffffff"
         fill-rule="evenodd"
         stroke="none"
         id="path7" />
    </g>
    <g
       id="shape1"
       transform="translate(1,0.9)">
      <path
         d="M 75.1,40.45 H -0.5 V -0.4 h 75.6 v 40.85"
         fill="#999999"
         fill-rule="evenodd"
         stroke="none"
         id="path8" />
      <path
         d="M 75.1,40.45 V -0.4 H -0.5 v 40.85"
         fill="none"
         stroke="#5f645e"
         stroke-linecap="round"
         stroke-linejoin="round"
         stroke-opacity="0.498039"
         stroke-width="1"
         id="path9" />
      <path
         d="M 5,5.9 4.1,5.15 3.85,4.35 4.15,3.75 h 0.1 L 4.4,3.6 Q 4.6,3.4 5.35,3.3 L 7.8,2.9 8.15,2.15 8.75,0.85 9.05,0.4 9,0.3 9.4,-0.25 q 0.4,-0.4 0.75,-0.35 0.3,0 0.65,0.35 l 0.4,0.55 -0.05,0.1 0.3,0.45 0.6,1.3 0.35,0.75 2.45,0.4 0.95,0.3 0.15,0.15 h 0.1 l 0.3,0.6 -0.25,0.8 -0.9,0.75 -1.3,1.05 -0.2,0.25 0.05,0.35 0.8,2.4 0.1,1.2 q -0.05,0.7 -0.6,0.95 L 13,12.05 12.2,11.35 10.1,9.4 8,11.35 7.2,12.05 6.15,12.1 Q 5.6,11.85 5.55,11.15 5.45,10.6 5.65,9.95 L 6.45,7.55 6.5,7.2 6.3,6.95 5,5.9 m 54.2,0 -0.9,-0.75 -0.25,-0.8 0.3,-0.6 h 0.1 L 58.6,3.6 59.55,3.3 62,2.9 62.35,2.15 62.95,0.85 63.25,0.4 63.2,0.3 63.6,-0.25 q 0.4,-0.4 0.75,-0.35 0.3,0 0.65,0.35 l 0.4,0.55 -0.05,0.1 0.3,0.45 0.6,1.3 0.35,0.75 2.45,0.4 Q 69.8,3.4 70,3.6 l 0.15,0.15 h 0.1 l 0.3,0.6 -0.25,0.8 -0.9,0.75 -1.3,1.05 -0.2,0.25 0.05,0.35 0.8,2.4 0.1,1.2 q -0.05,0.7 -0.6,0.95 l -1.05,-0.05 -0.8,-0.7 -2.1,-1.95 -2.1,1.95 -0.8,0.7 -1.05,0.05 q -0.55,-0.25 -0.6,-0.95 -0.1,-0.55 0.1,-1.2 L 60.65,7.55 60.7,7.2 60.5,6.95 59.2,5.9 m 0,15 -0.9,-0.75 -0.25,-0.8 0.3,-0.6 h 0.1 l 0.15,-0.15 0.95,-0.3 2.45,-0.4 0.35,-0.75 0.6,-1.3 0.3,-0.45 -0.05,-0.1 0.4,-0.55 q 0.4,-0.4 0.75,-0.35 0.3,0 0.65,0.35 l 0.4,0.55 -0.05,0.1 0.3,0.45 0.6,1.3 0.35,0.75 2.45,0.4 q 0.75,0.1 0.95,0.3 l 0.15,0.15 h 0.1 l 0.3,0.6 -0.25,0.8 -0.9,0.75 -1.3,1.05 -0.2,0.25 0.05,0.35 0.8,2.4 0.1,1.2 q -0.05,0.7 -0.6,0.95 l -1.05,-0.05 -0.8,-0.7 -2.1,-1.95 -2.1,1.95 -0.8,0.7 -1.05,0.05 q -0.55,-0.25 -0.6,-0.95 -0.1,-0.55 0.1,-1.2 l 0.8,-2.4 0.05,-0.35 -0.2,-0.25 -1.3,-1.05 m -8.45,5.85 1.35,0.05 h 0.3 0.3 l 0.2,0.05 h 0.3 l 0.2,0.05 h 0.15 0.1 l 0.1,0.05 q 1.25,0.2 2.1,0.8 0.8,0.6 1.2,1.5 0.4,0.95 0.2,1.9 Q 57,32 56.3,32.65 l -0.55,0.4 -0.4,0.3 -0.05,0.05 -0.15,0.1 -0.05,0.05 -0.15,0.05 -0.1,0.05 H 54.8 l -0.7,0.05 h -0.25 l -1,0.05 h -0.2 l -0.3,0.05 H 51.7 50.9 50.45 50.4 50.15 49.75 49.45 49.05 48 46.05 l -0.6,0.05 h -1.6 L 42.95,33.8 H 41.6 40.8 L 40.25,33.75 H 38.8 38.2 37.9 l -3,0.05 H 33.4 L 33.15,33.75 H 32.8 l -0.1,0.05 h -0.2 -0.3 -0.25 l -0.3,-0.05 h -0.4 L 30.9,33.8 h -0.25 -0.3 L 26.4,33.85 H 26.1 24.3 23.5 22.7 22.5 L 20.35,33.8 H 20.1 20.05 L 19.9,33.75 19.75,33.65 19.65,33.6 19.55,33.55 19.45,33.5 19.3,33.45 19.2,33.35 19.05,33.3 18.95,33.25 18.9,33.2 18.8,33.15 18.7,33.05 18.6,33 18.5,32.95 18.45,32.9 18.4,32.8 18.3,32.75 18.25,32.7 18.2,32.65 18.15,32.6 V 32.5 L 18.1,32.45 18.05,32.4 18,32.35 l -0.05,-0.1 -0.1,-0.1 V 32.1 L 17.8,32.05 17.75,31.95 V 31.9 L 17.7,31.85 V 31.8 L 17.65,31.75 V 31.65 31.6 L 17.6,31.55 17.55,31.5 17.5,31.4 V 31.35 L 17.45,31.3 17.4,31.25 V 31.2 31.1 31.05 L 17.35,31 v -0.1 -0.1 -0.15 l 0.05,-0.1 V 30.35 30.25 30.1 30 29.9 l 0.05,-0.05 V 29.8 29.7 29.65 L 17.5,29.6 V 29.55 L 17.55,29.5 V 29.4 29.35 L 17.6,29.3 v -0.05 l 0.05,-0.1 V 29.1 L 17.7,29.05 17.75,29 17.8,28.95 17.85,28.85 V 28.8 L 17.9,28.75 17.95,28.7 18,28.6 18.05,28.55 18.1,28.5 18.15,28.45 18.2,28.4 18.25,28.3 18.3,28.25 18.35,28.2 18.45,28.1 18.5,28 18.55,27.95 18.6,27.9 v -0.05 l 0.1,-0.1 0.05,-0.05 0.05,-0.05 0.1,-0.05 0.05,-0.05 0.1,-0.1 0.05,-0.05 0.05,-0.05 0.1,-0.05 0.05,-0.1 0.1,-0.05 0.05,-0.05 0.1,-0.05 0.15,-0.05 0.1,-0.05 h 0.1 l 0.05,-0.05 0.15,-0.05 h 0.1 l 0.2,-0.05 h 0.15 3.1 0.15 l 0.25,-0.05 H 25 25.45 26 l 0.25,-0.05 h 0.3 0.3 l 0.45,-0.05 h 0.6 l 0.7,-0.05 h 0.05 L 27.95,24.5 27,21.95 26.55,21 25.85,19 24.45,16 23.9,14.25 23.25,14.2 H 22.5 22.2 22.15 l -0.2,-0.05 -0.2,-0.05 h -0.1 L 21.5,14.05 H 21.45 L 21.25,14 H 21 20.95 L 20.8,13.95 20.65,13.9 20.5,13.8 h -0.05 l -0.2,-0.05 H 20 L 19.95,13.7 19.8,13.65 H 19.7 L 19.6,13.6 H 19.55 L 19.4,13.55 19.25,13.5 19.15,13.45 19,13.4 18.9,13.35 18.75,13.3 18.65,13.25 18.55,13.15 18.45,13.1 18.4,13.05 18.3,13 18.25,12.9 18.15,12.85 V 12.8 l -0.1,-0.05 V 12.7 L 18,12.6 17.95,12.55 V 12.5 L 17.9,12.45 17.85,12.4 V 12.3 L 17.8,12.25 V 12.2 L 17.75,12.15 V 12.05 12 L 17.7,11.95 V 11.85 11.75 11.6 11.5 11.3 11.2 11 L 17.65,10.9 V 10.75 10.65 10.6 L 17.6,10.55 17.65,10.5 v -0.05 -0.1 -0.2 l 0.05,-0.1 V 10 L 17.75,9.95 V 9.9 L 17.8,9.8 V 9.75 L 17.85,9.7 17.9,9.65 V 9.6 L 17.95,9.5 V 9.45 L 18,9.4 18.05,9.35 18.1,9.25 18.2,9.15 V 9.1 l 0.05,-0.05 0.05,-0.1 0.1,-0.1 0.05,-0.05 0.05,-0.05 0.05,-0.1 0.2,-0.2 V 8.4 L 18.8,8.35 V 8.3 8.2 L 18.85,8.15 18.9,8.1 18.95,8.05 19,8 19.05,7.9 19.1,7.85 19.2,7.8 19.3,7.75 19.4,7.65 19.5,7.6 19.6,7.55 19.7,7.5 19.85,7.45 20,7.35 20.15,7.3 20.25,7.25 h 0.1 l 0.1,-0.05 h 0.2 L 20.8,7.15 20.95,7.1 h 0.2 0.05 0.2 l 0.1,0.05 h 0.05 0.15 0.15 L 22,7.1 h 0.15 0.25 L 23.25,7.05 H 23.5 L 24.55,7 h 0.45 0.4 0.7 1.05 3.55 1.7 6.55 4.9 0.45 L 45,7.05 h 1.4 l 2.9,0.05 h 0.5 0.25 0.4 0.3 0.7 1.65 0.8 L 54.45,7.05 55,7.1 l 0.55,0.35 1.05,0.95 0.7,1 0.15,1.15 -0.15,1.05 -0.3,0.6 -0.4,0.55 -0.55,0.5 -1.05,0.6 -0.05,0.05 h -0.1 L 54.8,13.95 H 54.7 L 54.5,14 H 54.3 54.05 53.95 53.8 L 53,14.05 H 52.95 L 52.55,14 H 52.4 l -0.2,0.05 H 52.1 L 52,14.1 h -0.15 -0.2 l -0.3,0.05 H 50.9 v 2.95 l -0.15,9.65 m -7.3,-13.5 h 0.05 0.9 0.2 0.25 l -0.05,0.05 -0.05,0.1 -0.05,0.15 v 0.1 l -0.1,0.2 v 0.1 l -0.05,0.1 v 0.05 0.1 l -0.05,0.1 v 0.15 h -0.15 v 0.6 l 0.1,0.2 v 0.15 0.1 0.2 l -0.05,0.1 v 0.1 0.15 0.1 0.15 0.1 0.1 0.15 0.1 0.15 0.1 0.1 0.15 0.1 0.1 0.2 0.1 0.15 0.1 0.15 0.1 0.1 0.15 0.1 0.1 0.15 0.1 0.15 0.1 0.1 0.2 0.1 0.15 0.1 0.15 0.1 0.1 0.15 0.1 0.1 0.15 0.1 0.15 0.1 0.1 0.15 0.15 0.15 0.1 0.1 0.15 0.1 0.15 0.1 0.1 0.15 0.1 0.15 0.1 0.1 0.15 0.15 0.15 0.1 0.1 0.15 0.1 0.15 0.1 0.1 0.15 0.1 0.15 0.1 l 0.05,0.1 v 0.15 0.15 0.15 0.1 0.1 0.15 0.1 0.15 0.1 0.1 0.15 0.1 0.1 0.15 0.1 0.15 0.1 0.2 l 0.05,0.1 v 0.1 0.15 0.05 h -1.25 -0.1 -1.8 -0.85 l -4.95,0.05 v -0.1 l 0.05,-0.15 0.05,-0.15 0.05,-0.15 0.1,-0.2 0.05,-0.15 0.05,-0.15 V 26.5 L 36,26.35 36.05,26.2 36.1,26 l 0.1,-0.15 0.05,-0.15 0.1,-0.25 0.05,-0.15 0.1,-0.2 0.05,-0.15 0.1,-0.2 0.05,-0.15 0.05,-0.15 0.1,-0.2 0.05,-0.15 0.1,-0.2 0.05,-0.15 0.05,-0.1 0.1,-0.25 0.05,-0.1 0.05,-0.15 0.1,-0.3 0.05,-0.15 0.1,-0.2 0.05,-0.15 0.1,-0.2 0.05,-0.15 0.05,-0.1 0.1,-0.25 0.05,-0.1 0.1,-0.25 0.05,-0.1 0.05,-0.15 0.1,-0.2 0.05,-0.15 0.05,-0.15 0.1,-0.2 0.05,-0.25 0.05,-0.25 0.05,-0.1 0.1,-0.25 0.05,-0.1 0.1,-0.15 0.05,-0.2 0.05,-0.15 0.1,-0.15 0.05,-0.2 0.05,-0.15 0.1,-0.2 0.05,-0.15 0.05,-0.15 0.1,-0.2 0.1,-0.2 0.1,-0.2 0.05,-0.15 0.05,-0.2 0.1,-0.15 0.05,-0.15 0.05,-0.2 0.1,-0.15 0.05,-0.15 0.05,-0.2 0.1,-0.15 0.05,-0.2 0.05,-0.15 0.1,-0.15 0.05,-0.2 0.1,-0.2 0.1,-0.2 0.05,-0.15 0.05,-0.15 0.05,-0.05 0.05,-0.15 0.05,-0.1 v -0.05 l 0.1,-0.2 0.05,-0.15 0.05,-0.1 0.1,-0.25 0.05,-0.05 H 41.55 42 l 1.35,-0.05 h 0.1 M 21.3,7.7 H 20.9 20.85 L 20.65,7.75 20.45,7.8 20.25,7.85 20.05,8 H 20 L 19.85,8.05 19.75,8.1 19.6,8.25 19.45,8.35 19.35,8.45 19.2,8.6 19.05,8.7 19,8.9 18.9,9 18.8,9.1 18.75,9.25 18.7,9.35 V 9.5 l -0.1,0.1 -0.05,0.1 v 0.15 0.1 L 18.5,10.1 v 0.1 0.1 l -0.05,0.15 0.05,0.1 v 0.15 l 0.25,0.45 0.1,0.7 0.05,0.15 0.05,0.1 0.1,0.05 0.05,0.15 0.1,0.1 0.15,0.1 0.05,0.05 0.65,0.4 1.25,0.4 h 0.2 2.05 0.3 0.1 0.4 l 0.1,0.25 0.05,0.1 0.05,0.15 0.1,0.2 0.05,0.15 0.05,0.1 0.05,0.1 0.05,0.15 0.05,0.15 0.1,0.2 0.1,0.2 0.05,0.2 0.1,0.15 0.05,0.15 0.05,0.2 0.1,0.15 0.05,0.2 0.05,0.15 0.1,0.15 0.05,0.2 0.05,0.15 0.1,0.15 0.05,0.2 0.05,0.15 0.1,0.2 0.1,0.2 0.1,0.2 0.05,0.15 0.05,0.15 0.1,0.2 0.05,0.15 0.05,0.2 0.1,0.15 0.05,0.15 0.05,0.2 0.1,0.15 0.05,0.1 0.1,0.25 0.05,0.1 0.05,0.25 0.05,0.25 0.1,0.2 0.05,0.15 0.05,0.15 0.1,0.2 0.05,0.15 0.05,0.1 0.1,0.25 0.05,0.1 0.1,0.25 0.05,0.1 0.05,0.15 0.1,0.2 0.05,0.15 0.1,0.2 0.05,0.15 0.1,0.3 0.05,0.15 0.05,0.1 0.1,0.25 0.05,0.1 0.05,0.15 0.1,0.2 0.05,0.15 0.1,0.2 0.05,0.15 0.05,0.15 0.1,0.2 0.05,0.15 0.1,0.2 0.05,0.15 0.1,0.25 0.05,0.15 0.1,0.15 0.05,0.2 0.05,0.15 0.1,0.15 0.05,0.1 v 0.1 l 0.05,0.15 0.1,0.2 0.05,0.15 0.05,0.15 0.1,0.15 -0.05,0.1 h -4.45 -1.35 -0.45 -1.25 -1 -0.5 l -0.1,0.05 h -0.3 l -0.35,0.15 -0.3,0.1 -0.25,0.15 -0.15,0.1 -0.2,0.1 -0.15,0.15 H 19.2 L 19.15,28.45 19.1,28.5 19.05,28.6 19,28.75 18.85,28.85 18.8,29 18.7,29.1 v 0.1 l -0.05,0.05 -0.1,0.1 v 0.1 l -0.05,0.2 -0.05,0.1 v 0.1 0.15 0.1 0.15 0.1 0.1 0.15 0.1 0.15 0.1 l 0.05,0.1 0.05,0.15 v 0.1 l 0.1,0.15 0.05,0.05 v 0.1 l 0.1,0.1 0.05,0.15 0.15,0.1 0.05,0.15 0.05,0.1 0.1,0.1 0.2,0.15 0.2,0.1 0.15,0.15 0.1,0.05 0.15,0.05 0.3,0.1 0.35,0.15 h 0.4 l 1.5,0.05 h 1.85 1 0.8 1 4.55 L 46,33.15 h 2.75 3.05 1.4 0.65 0.5 l 0.15,-0.05 0.2,-0.05 0.25,-0.1 0.2,-0.1 0.25,-0.1 0.2,-0.15 0.05,-0.05 0.05,-0.05 0.1,-0.05 0.05,-0.05 0.1,-0.15 0.2,-0.1 0.05,-0.2 0.05,-0.1 0.1,-0.15 0.1,-0.1 0.05,-0.1 v -0.15 l 0.05,-0.1 0.05,-0.1 V 31 30.9 l 0.05,-0.15 v -0.1 -0.1 L 56.7,30.4 56.65,30.3 V 30.1 30 29.85 L 56.6,29.75 V 29.65 29.5 L 56.55,29.4 56.5,29.3 V 29.15 L 56.4,29.1 56.35,29.05 56.3,28.9 l -0.05,-0.1 -0.1,-0.1 -0.1,-0.15 -0.1,-0.1 -0.1,-0.15 -0.15,-0.15 h -0.05 l -0.1,-0.1 -0.2,-0.15 -0.25,-0.1 h -0.05 l -0.1,-0.05 -0.15,-0.1 H 54.75 L 54.5,27.6 54.35,27.55 53.85,27.5 h -2.2 -0.6 -0.3 -0.8 V 27.45 27.3 27.2 27.1 27.05 26.95 26.85 26.7 26.6 26.5 26.3 26.2 26.05 25.95 25.8 25.7 25.6 25.45 25.35 25.2 25.1 25 L 50,24.85 v -0.1 -0.1 -0.2 -0.1 -0.15 -0.1 -0.15 -0.1 -0.1 V 23.6 23.5 23.4 23.25 23.15 23 22.9 22.8 22.65 22.5 22.35 22.25 22.1 22 v -0.1 -0.15 -0.1 -0.1 -0.15 -0.1 -0.15 -0.1 -0.1 -0.15 -0.15 -0.15 -0.1 -0.15 -0.1 -0.1 -0.15 -0.1 -0.1 -0.15 -0.1 -0.15 -0.1 -0.1 -0.15 -0.1 -0.2 -0.1 -0.1 -0.15 -0.1 -0.15 -0.1 -0.1 -0.15 -0.1 -0.15 -0.1 -0.1 V 17.1 17 16.8 16.7 16.6 16.45 16.35 16.2 16.1 16 15.85 15.75 L 49.95,15.6 v -0.1 -0.1 -0.15 -0.1 -0.2 -0.1 -0.1 -0.15 l -0.1,-0.1 v -0.15 -0.1 L 49.8,14.15 V 14 13.9 13.8 L 49.75,13.65 49.7,13.55 49.65,13.4 v -0.1 l -0.1,-0.05 h 0.25 0.5 0.25 0.15 0.65 1.25 0.05 0.45 1 l 0.25,-0.05 h 0.15 l 0.4,-0.15 0.25,-0.1 0.25,-0.15 0.2,-0.1 h 0.05 l 0.1,-0.1 0.2,-0.15 0.1,-0.1 0.1,-0.1 0.05,-0.15 0.1,-0.1 0.05,-0.15 0.15,-0.1 v -0.1 l 0.1,-0.15 v -0.1 l 0.05,-0.2 0.05,-0.1 V 10.95 10.85 10.75 10.6 10.5 10.4 10.25 10.15 10 9.9 L 56.65,9.8 V 9.75 L 56.6,9.65 V 9.55 L 56.5,9.35 V 9.25 L 56.35,9.1 56.3,9 56.2,8.9 56.15,8.75 56.05,8.65 55.95,8.55 55.75,8.4 55.6,8.3 55.5,8.25 55.4,8.15 55.3,8.1 55.15,8.05 54.9,7.95 54.5,7.8 H 54.35 54.1 l -1,-0.05 h -0.5 -4.65 -4.5 L 29.2,7.7 h -1.25 -1.5 -0.55 -3.45 -0.1 -1.05 m 21.95,15.1 0.05,-7.25 0.05,-1.1 -1.85,-0.05 q -1.05,2.25 -2.25,5.5 l -2.5,6.65 h 1.1 1.15 0.55 l 0.3,-0.05 h 0.25 l 0.3,-0.05 h 0.3 0.75 1.7 l 0.1,-3.65 M 59.2,36 l -0.9,-0.75 -0.25,-0.8 0.3,-0.6 h 0.1 L 58.6,33.7 59.55,33.4 62,33 l 0.35,-0.75 0.6,-1.3 0.3,-0.45 -0.05,-0.1 0.4,-0.55 q 0.4,-0.4 0.75,-0.35 0.3,0 0.65,0.35 l 0.4,0.55 -0.05,0.1 0.3,0.45 0.6,1.3 0.35,0.75 2.45,0.4 q 0.75,0.1 0.95,0.3 l 0.15,0.15 h 0.1 l 0.3,0.6 -0.25,0.8 -0.9,0.75 -1.3,1.05 -0.2,0.25 0.05,0.35 0.8,2.4 0.1,0.4 h -3.5 l -1.05,-0.95 -1,0.95 h -3.55 l 0.1,-0.4 0.8,-2.4 L 60.7,37.3 60.5,37.05 59.2,36 M 35.5,13.3 v 0.05 h 0.4 l -0.05,0.1 -0.1,0.15 -0.05,0.15 -0.1,0.3 -0.05,0.1 -0.05,0.25 h -0.05 l -0.05,0.1 -0.1,0.25 -0.05,0.1 -0.05,0.15 -0.1,0.2 -0.05,0.15 -0.05,0.15 -0.1,0.2 -0.05,0.15 -0.1,0.2 -0.05,0.15 -0.05,0.15 -0.1,0.2 -0.05,0.2 -0.1,0.2 -0.05,0.15 -0.05,0.15 -0.1,0.2 -0.05,0.15 -0.1,0.2 -0.05,0.15 -0.05,0.15 -0.1,0.2 -0.05,0.15 -0.1,0.2 -0.05,0.15 -0.05,0.15 -0.1,0.2 -0.1,0.2 -0.05,0.2 -0.05,0.15 -0.05,0.1 -0.05,0.05 -0.05,0.2 L 33.1,20.2 33,20.4 32.95,20.55 32.9,20.7 32.8,20.9 32.7,20.7 32.65,20.55 32.6,20.4 32.5,20.2 32.45,20.05 32.4,19.85 32.3,19.7 32.25,19.55 32.2,19.35 32.15,19.25 32.1,19.15 32,18.95 31.95,18.8 31.9,18.65 31.8,18.45 31.75,18.3 31.65,18.1 31.6,17.95 31.55,17.8 31.45,17.6 31.4,17.45 31.3,17.25 31.25,17.1 31.2,16.95 31.1,16.75 31.05,16.55 30.95,16.35 30.9,16.2 30.85,16.05 30.75,15.85 30.7,15.7 30.6,15.5 30.55,15.35 30.5,15.2 30.4,15 30.35,14.85 30.3,14.75 30.25,14.55 30.2,14.5 30.15,14.4 30.05,14.15 30,14.05 29.9,13.75 29.85,13.6 29.75,13.45 29.7,13.35 h 0.95 V 13.3 h 0.45 0.4 3.2 0.45 0.35 m -2.85,4.65 1.45,-3.5 h -0.35 l -2.25,0.1 1.15,3.4 M 5,20.9 4.1,20.15 l -0.25,-0.8 0.3,-0.6 h 0.1 L 4.4,18.6 Q 4.6,18.4 5.35,18.3 L 7.8,17.9 8.15,17.15 8.75,15.85 9.05,15.4 9,15.3 9.4,14.75 q 0.4,-0.4 0.75,-0.35 0.3,0 0.65,0.35 l 0.4,0.55 -0.05,0.1 0.3,0.45 0.6,1.3 0.35,0.75 2.45,0.4 0.95,0.3 0.15,0.15 h 0.1 l 0.3,0.6 -0.25,0.8 -0.9,0.75 -1.3,1.05 -0.2,0.25 0.05,0.35 0.8,2.4 0.1,1.2 q -0.05,0.7 -0.6,0.95 L 13,27.05 12.2,26.35 10.1,24.4 8,26.35 7.2,27.05 6.15,27.1 Q 5.6,26.85 5.55,26.15 5.45,25.6 5.65,24.95 L 6.45,22.55 6.5,22.2 6.3,21.95 5,20.9 M 5,36 4.1,35.25 l -0.25,-0.8 0.3,-0.6 h 0.1 L 4.4,33.7 Q 4.6,33.5 5.35,33.4 L 7.8,33 8.15,32.25 8.75,30.95 9.05,30.5 9,30.4 9.4,29.85 q 0.4,-0.4 0.75,-0.35 0.3,0 0.65,0.35 l 0.4,0.55 -0.05,0.1 0.3,0.45 0.6,1.3 0.35,0.75 2.45,0.4 0.95,0.3 0.15,0.15 h 0.1 l 0.3,0.6 -0.25,0.8 -0.9,0.75 -1.3,1.05 -0.2,0.25 0.05,0.35 0.8,2.4 0.1,0.4 h -3.5 L 10.1,39.5 9.1,40.45 H 5.55 l 0.1,-0.4 0.8,-2.4 L 6.5,37.3 6.3,37.05 5,36"
         fill="#ffffff"
         fill-rule="evenodd"
         stroke="none"
         id="path10" />
      <path
         d="m 21.3,7.7 h 1.05 0.1 3.45 0.55 1.5 1.25 l 14.25,0.05 h 4.5 4.65 0.5 l 1,0.05 h 0.25 0.15 l 0.4,0.15 0.25,0.1 0.15,0.05 0.1,0.05 0.1,0.1 0.1,0.05 0.15,0.1 0.2,0.15 0.1,0.1 0.1,0.1 0.05,0.15 0.1,0.1 0.05,0.1 0.15,0.15 v 0.1 l 0.1,0.2 v 0.1 l 0.05,0.1 V 9.8 l 0.05,0.1 v 0.1 0.15 0.1 0.15 0.1 0.1 0.15 0.1 0.1 0.15 l -0.05,0.1 -0.05,0.2 v 0.1 l -0.1,0.15 v 0.1 l -0.15,0.1 -0.05,0.15 -0.1,0.1 -0.05,0.15 -0.1,0.1 -0.1,0.1 -0.2,0.15 -0.1,0.1 H 55.6 l -0.2,0.1 -0.25,0.15 -0.25,0.1 -0.4,0.15 H 54.35 L 54.1,13.25 H 53.1 52.65 52.6 51.35 50.7 50.55 50.3 49.8 49.55 l 0.1,0.05 v 0.1 l 0.05,0.15 0.05,0.1 0.05,0.15 v 0.1 0.1 0.15 l 0.05,0.1 v 0.1 0.15 l 0.1,0.1 v 0.15 0.1 0.1 0.2 0.1 0.15 0.1 0.1 L 50,15.75 v 0.1 0.15 0.1 0.1 0.15 0.1 0.15 0.1 0.1 0.2 0.1 0.15 0.1 0.1 0.15 0.1 0.15 0.1 0.1 0.15 0.1 0.15 0.1 0.1 0.2 0.1 0.15 0.1 0.1 0.15 0.1 0.15 0.1 0.1 0.15 0.1 0.1 0.15 0.1 0.15 0.15 0.15 0.1 0.1 0.15 0.1 0.15 0.1 0.1 0.15 0.1 0.1 0.15 0.1 0.15 0.15 0.15 0.1 0.1 0.15 0.1 0.15 0.1 0.1 0.15 0.1 0.1 0.15 0.1 0.15 0.1 0.2 0.1 0.1 L 49.95,25 v 0.1 0.1 0.15 0.1 0.15 0.1 0.1 0.15 0.1 0.15 0.1 0.2 0.1 0.1 0.15 0.1 0.1 0.05 0.1 0.1 0.15 0.05 h 0.8 0.3 0.6 2.2 l 0.5,0.05 0.15,0.05 0.25,0.05 h 0.05 l 0.15,0.1 0.1,0.05 h 0.05 l 0.25,0.1 0.2,0.15 0.1,0.1 h 0.05 l 0.15,0.15 0.1,0.15 0.1,0.1 0.1,0.15 0.1,0.1 0.05,0.1 0.05,0.15 0.05,0.05 0.1,0.05 v 0.15 l 0.05,0.1 0.05,0.1 v 0.15 0.1 l 0.05,0.1 v 0.15 0.1 0.2 l 0.05,0.1 -0.05,0.15 v 0.1 0.1 L 56.6,30.9 v 0.1 0.15 l -0.05,0.1 -0.05,0.1 v 0.15 l -0.05,0.1 -0.1,0.1 -0.1,0.15 -0.05,0.1 -0.05,0.2 -0.2,0.1 -0.1,0.15 -0.05,0.05 -0.1,0.05 -0.05,0.05 -0.05,0.05 -0.2,0.15 -0.25,0.1 -0.2,0.1 -0.25,0.1 -0.2,0.05 -0.15,0.05 H 53.85 53.2 51.8 48.75 46 L 31.75,33.1 h -4.55 -1 -0.8 -1 -1.85 l -1.5,-0.05 h -0.4 L 20.3,32.9 20,32.8 19.85,32.75 19.75,32.7 19.6,32.55 19.4,32.45 19.2,32.3 19.1,32.2 19.05,32.1 19,31.95 18.85,31.85 18.8,31.7 18.7,31.6 v -0.1 l -0.05,-0.05 -0.1,-0.15 v -0.1 l -0.05,-0.15 -0.05,-0.1 v -0.1 -0.15 -0.1 -0.15 -0.1 -0.1 -0.15 -0.1 -0.15 -0.1 l 0.05,-0.1 0.05,-0.2 v -0.1 l 0.1,-0.1 0.05,-0.05 V 29.1 L 18.8,29 18.85,28.85 19,28.75 19.05,28.6 19.1,28.5 19.15,28.45 19.2,28.4 h 0.05 l 0.15,-0.15 0.2,-0.1 0.15,-0.1 0.25,-0.15 0.3,-0.1 0.35,-0.15 h 0.3 l 0.1,-0.05 h 0.5 1 1.25 0.45 1.35 4.45 L 30.1,27.5 30,27.35 29.95,27.2 29.9,27.05 29.8,26.85 29.75,26.7 V 26.6 L 29.7,26.5 29.6,26.35 29.55,26.2 29.5,26 29.4,25.85 29.35,25.7 29.25,25.45 29.2,25.3 29.1,25.1 29.05,24.95 28.95,24.75 28.9,24.6 28.85,24.45 28.75,24.25 28.7,24.1 28.6,23.9 28.55,23.75 28.5,23.65 28.4,23.4 28.35,23.3 28.3,23.15 28.2,22.85 28.15,22.7 28.05,22.5 28,22.35 27.9,22.15 27.85,22 27.8,21.9 27.7,21.65 27.65,21.55 27.55,21.3 27.5,21.2 27.45,21.05 27.35,20.85 27.3,20.7 27.25,20.55 27.15,20.35 27.1,20.1 27.05,19.85 27,19.75 26.9,19.5 26.85,19.4 26.75,19.25 26.7,19.05 26.65,18.9 26.55,18.75 26.5,18.55 26.45,18.4 26.35,18.2 26.3,18.05 26.25,17.9 26.15,17.7 26.05,17.5 25.95,17.3 25.9,17.15 25.85,16.95 25.75,16.8 25.7,16.65 25.65,16.45 25.55,16.3 25.5,16.15 25.45,15.95 25.35,15.8 25.3,15.6 25.25,15.45 25.15,15.3 25.1,15.1 25,14.9 24.9,14.7 24.85,14.55 24.8,14.4 24.75,14.3 24.7,14.2 24.65,14.05 24.55,13.85 24.5,13.7 24.45,13.6 24.35,13.35 h -0.4 -0.1 -0.3 -2.05 -0.2 L 20.05,12.95 19.4,12.55 19.35,12.5 19.2,12.4 19.1,12.3 19.05,12.15 18.95,12.1 18.9,12 18.85,11.85 18.75,11.15 18.5,10.7 V 10.55 L 18.45,10.45 18.5,10.3 V 10.2 10.1 L 18.55,9.95 V 9.85 9.7 L 18.6,9.6 18.7,9.5 V 9.35 L 18.75,9.25 18.8,9.1 18.9,9 19,8.9 19.05,8.7 19.2,8.6 19.35,8.45 19.45,8.35 19.6,8.25 19.75,8.1 19.85,8.05 20,8 h 0.05 l 0.2,-0.15 0.2,-0.05 0.2,-0.05 0.2,-0.05 h 0.05 0.4 m 22.15,5.55 h -0.1 L 42,13.3 H 41.55 41.3 l -0.05,0.05 -0.1,0.25 -0.05,0.1 -0.05,0.15 -0.1,0.2 v 0.05 l -0.05,0.1 -0.05,0.15 -0.05,0.05 -0.05,0.15 -0.05,0.15 -0.1,0.2 -0.1,0.2 -0.05,0.2 -0.1,0.15 -0.05,0.15 -0.05,0.2 -0.1,0.15 -0.05,0.2 -0.05,0.15 -0.1,0.15 -0.05,0.2 -0.05,0.15 -0.1,0.15 -0.05,0.2 -0.05,0.15 -0.1,0.2 -0.1,0.2 -0.1,0.2 -0.05,0.15 -0.05,0.15 -0.1,0.2 -0.05,0.15 -0.05,0.2 -0.1,0.15 -0.05,0.15 -0.05,0.2 -0.1,0.15 -0.05,0.1 -0.1,0.25 -0.05,0.1 -0.05,0.25 -0.05,0.25 -0.1,0.2 -0.05,0.15 -0.05,0.15 -0.1,0.2 -0.05,0.15 -0.05,0.1 -0.1,0.25 -0.05,0.1 -0.1,0.25 -0.05,0.1 -0.05,0.15 -0.1,0.2 -0.05,0.15 -0.1,0.2 -0.05,0.15 -0.1,0.3 -0.05,0.15 -0.05,0.1 -0.1,0.25 -0.05,0.1 -0.05,0.15 -0.1,0.2 -0.05,0.15 -0.1,0.2 -0.05,0.15 -0.05,0.15 -0.1,0.2 -0.05,0.15 -0.1,0.2 -0.05,0.15 -0.1,0.25 L 36.2,25.85 36.1,26 36.05,26.2 36,26.35 35.9,26.5 v 0.05 l -0.05,0.15 -0.05,0.15 -0.1,0.2 -0.05,0.15 -0.05,0.15 -0.05,0.15 v 0.1 l 4.95,-0.05 h 0.85 1.8 0.1 1.25 v -0.05 -0.15 -0.1 l -0.05,-0.1 v -0.2 -0.1 -0.15 -0.1 -0.15 -0.1 -0.1 V 26.1 26 25.9 25.75 25.65 25.5 25.4 25.3 25.15 25 24.85 l -0.05,-0.1 v -0.1 -0.15 -0.1 -0.15 -0.1 -0.1 -0.15 -0.1 -0.15 -0.1 -0.1 V 23.3 23.15 23 22.9 22.8 22.65 22.55 22.4 22.3 22.2 22.05 21.95 21.8 21.7 21.6 21.45 21.3 21.15 21.05 20.95 20.8 20.7 20.55 20.45 20.35 20.2 20.1 20 19.85 19.75 19.6 19.5 19.3 19.2 19.1 18.95 18.85 18.7 18.6 18.5 18.35 18.25 18.15 18 17.9 17.75 17.65 17.45 17.35 17.25 17.1 17 16.9 16.75 16.65 16.5 16.4 16.3 16.15 16.05 15.9 15.8 l 0.05,-0.1 v -0.2 -0.1 -0.15 l -0.1,-0.2 v -0.6 H 44.5 V 14.3 l 0.05,-0.1 v -0.1 -0.05 l 0.05,-0.1 v -0.1 l 0.1,-0.2 v -0.1 l 0.05,-0.15 0.05,-0.1 0.05,-0.05 H 44.6 44.4 43.5 43.45 M 35.5,13.3 H 35.15 34.7 31.5 31.1 30.65 v 0.05 H 29.7 l 0.05,0.1 0.1,0.15 0.05,0.15 0.1,0.3 0.05,0.1 0.1,0.25 0.05,0.1 0.05,0.05 0.05,0.2 0.05,0.1 0.05,0.15 0.1,0.2 0.05,0.15 0.05,0.15 0.1,0.2 0.05,0.15 0.1,0.2 0.05,0.15 0.05,0.15 0.1,0.2 0.05,0.2 0.1,0.2 0.05,0.15 0.05,0.15 0.1,0.2 0.05,0.15 0.1,0.2 0.05,0.15 0.05,0.15 0.1,0.2 0.05,0.15 0.1,0.2 0.05,0.15 0.05,0.15 0.1,0.2 0.05,0.1 0.05,0.1 0.05,0.2 0.05,0.15 0.1,0.15 0.05,0.2 0.05,0.15 0.1,0.2 0.05,0.15 0.05,0.15 0.1,0.2 0.1,-0.2 0.05,-0.15 0.05,-0.15 0.1,-0.2 0.05,-0.15 0.05,-0.2 0.05,-0.05 0.05,-0.1 0.05,-0.15 0.05,-0.2 0.1,-0.2 0.1,-0.2 0.05,-0.15 0.05,-0.15 0.1,-0.2 0.05,-0.15 0.1,-0.2 0.05,-0.15 0.05,-0.15 0.1,-0.2 0.05,-0.15 0.1,-0.2 0.05,-0.15 0.05,-0.15 0.1,-0.2 0.05,-0.2 0.1,-0.2 0.05,-0.15 0.05,-0.15 0.1,-0.2 0.05,-0.15 0.1,-0.2 0.05,-0.15 0.05,-0.15 0.1,-0.2 0.05,-0.15 0.05,-0.1 0.1,-0.25 0.05,-0.1 h 0.05 l 0.05,-0.25 0.05,-0.1 0.1,-0.3 0.05,-0.15 0.1,-0.15 0.05,-0.1 H 35.5 V 13.3"
         fill="#000000"
         fill-rule="evenodd"
         stroke="none"
         id="path11" />
    </g>
    <g
       id="shape2"
       transform="translate(2,2.05)">
      <path
         d="M -0.5,-0.4 V -0.55 H 75.1 V -0.4 40.8 H -0.5 Z"
         fill="none"
         stroke="#000000"
         stroke-linecap="round"
         stroke-linejoin="round"
         stroke-width="3"
         id="path12" />
    </g>
  </defs>
</svg>
