<?xml version="1.0" encoding="UTF-8" standalone="no"?>
<svg
   ffdec:objectType="frame"
   height="60.549999"
   width="67.099998"
   version="1.1"
   id="svg7"
   sodipodi:docname="611.svg"
   xmlns:inkscape="http://www.inkscape.org/namespaces/inkscape"
   xmlns:sodipodi="http://sodipodi.sourceforge.net/DTD/sodipodi-0.dtd"
   xmlns:xlink="http://www.w3.org/1999/xlink"
   xmlns="http://www.w3.org/2000/svg"
   xmlns:svg="http://www.w3.org/2000/svg"
   xmlns:ffdec="https://www.free-decompiler.com/flash">
  <sodipodi:namedview
     id="namedview7"
     pagecolor="#ffffff"
     bordercolor="#000000"
     borderopacity="0.25"
     inkscape:showpageshadow="2"
     inkscape:pageopacity="0.0"
     inkscape:pagecheckerboard="0"
     inkscape:deskcolor="#d1d1d1"
     fit-margin-top="5"
     fit-margin-left="5"
     fit-margin-right="5"
     fit-margin-bottom="5" />
  <g
     transform="translate(1.5,1.5)"
     id="g3">
    <use
       ffdec:characterId="516"
       height="57.549999"
       width="64.099998"
       xlink:href="#shape0"
       id="use1" />
    <use
       ffdec:characterId="1103"
       height="56.950001"
       transform="translate(0.3,0.1)"
       width="63.650002"
       xlink:href="#shape1"
       id="use2" />
    <use
       ffdec:characterId="518"
       height="60.549999"
       transform="translate(-1.5,-1.5)"
       width="67.099998"
       xlink:href="#shape2"
       id="use3" />
  </g>
  <defs
     id="defs7">
    <g
       id="shape0">
      <path
         d="M 53.6,0 H 64.1 V 57.55 H 53.6 28.25 0 V 0 H 28.25 53.6 V 57.55 0 M 28.25,0 V 57.55 0"
         fill="#ffffff"
         fill-rule="evenodd"
         stroke="none"
         id="path3" />
    </g>
    <g
       id="shape1"
       transform="translate(-0.3,-0.1)">
      <path
         d="m 31.55,0.7 0.1,-0.6 h 9.25 l -0.15,0.65 -1.1,3.45 -0.55,1.25 -1.65,4 -0.6,0.85 L 36.1,10.5 35.55,10.25 35.25,9.6 32.05,2.5 31.8,1.55 31.55,0.7 M 41.65,1.75 41.4,0.1 h 9.1 l -0.1,0.65 -0.9,2.65 -3.75,8.85 q -0.4,0.95 -0.8,1.15 L 43.8,13.45 Q 43.25,13.25 43.15,12.5 L 43.25,11.7 43.2,10.95 43.1,9.4 Q 43.05,7.95 42.45,5.55 l -0.8,-3.8 m 20.2,22.3 2,-0.35 0.05,-0.05 h 0.05 V 33.9 L 63.9,33.85 h -0.05 l -2,-0.35 -5.8,-1.05 -1.55,-0.5 -1.3,-0.65 -0.7,-0.65 Q 52.1,30 52.8,29.25 l 0.65,-0.5 -0.65,-0.45 q -0.7,-0.8 -0.3,-1.45 l 0.7,-0.6 1.3,-0.7 1.55,-0.45 5.8,-1.05 M 63.5,8.3 q -3.05,2.4 -9.45,6.75 L 48.5,18.6 q -1.25,0.7 -1.9,0.35 -0.5,-0.4 -0.5,-1.3 0.05,-0.45 0.45,-1.3 1.7,-3.4 3.25,-8.5 L 52.1,0.1 H 63.95 V 6.15 L 63.9,6.2 63.95,6.25 V 7.9 L 63.5,8.3 m 0.15,3.3 0.3,0.1 v 9.8 l -0.7,0.1 H 59 l -7.2,0.2 -1.25,-0.05 -0.75,-0.5 q -0.3,-0.45 -0.2,-0.85 0.1,-0.6 1.1,-1.25 l 3.5,-2.35 1.1,-0.95 q 2.05,-1.7 4.25,-2.55 l 1,-0.4 q 1.1,-0.95 1.65,-1.35 0.4,-0.25 0.75,-0.25 0.55,0 0.7,0.3 m 0,34.3 -0.7,0.3 -0.75,-0.25 -1.65,-1.3 -1,-0.45 q -2.2,-0.8 -4.25,-2.5 l -1.1,-1 -3.5,-2.3 q -1,-0.7 -1.1,-1.3 -0.1,-0.4 0.2,-0.8 l 0.75,-0.55 1.25,-0.05 7.2,0.2 h 4.25 l 0.7,0.1 v 9.85 l -0.3,0.05 m -0.15,3.3 0.45,0.4 v 1.7 H 63.9 l 0.05,0.05 v 5.7 H 52 L 49.8,49.7 q -1.55,-5.1 -3.25,-8.55 -0.4,-0.8 -0.45,-1.3 0,-0.9 0.5,-1.25 0.65,-0.35 1.9,0.3 2.15,1.2 5.55,3.6 6.4,4.3 9.45,6.7 m -21.85,6.6 0.8,-3.85 q 0.6,-2.35 0.65,-3.85 l 0.1,-1.5 0.05,-0.8 -0.1,-0.8 q 0.1,-0.7 0.65,-0.95 l 1.15,0.05 q 0.4,0.25 0.8,1.15 l 3.75,8.85 0.9,2.7 0.05,0.25 h -9 l 0.2,-1.25 M 31,0.7 30.75,1.55 30.5,2.5 27.3,9.6 27,10.25 26.45,10.5 25.7,10.3 25.1,9.45 q -0.9,-1.8 -1.65,-4 L 22.9,4.2 21.8,0.75 21.7,0.1 h 9.2 L 31,0.7 m -10.1,1.05 -0.8,3.8 q -0.6,2.4 -0.65,3.85 l -0.1,1.55 -0.05,0.75 0.1,0.8 q -0.1,0.75 -0.65,0.95 L 17.6,13.4 16.8,12.25 13.05,3.4 12.15,0.75 12.1,0.1 h 9.1 l -0.3,1.65 m -8.15,6.1 q 1.55,5.1 3.25,8.5 l 0.45,1.3 q 0,0.9 -0.5,1.3 Q 15.3,19.3 14.05,18.6 11.9,17.4 8.5,15.05 L 0.3,9.25 V 0.1 h 10.15 l 2.3,7.75 M 0.35,11.55 2,12.9 3,13.3 q 2.2,0.85 4.25,2.55 l 1.15,0.95 3.45,2.35 q 1,0.65 1.1,1.25 0.1,0.4 -0.2,0.85 L 12,21.75 10.75,21.8 3.55,21.6 0.3,21.65 v -10.1 h 0.05 m 0.35,12.5 5.8,1.05 1.55,0.45 1.3,0.7 q 0.45,0.25 0.7,0.6 0.4,0.65 -0.3,1.45 l -0.6,0.45 0.6,0.5 q 0.7,0.75 0.3,1.4 L 9.35,31.3 8.05,31.95 6.5,32.45 0.7,33.5 0.3,33.6 V 24 l 0.4,0.05 m 40.05,32.75 0.1,0.25 h -9.3 v -0.2 l 0.25,-0.9 0.25,-0.95 3.2,-7.1 0.3,-0.65 Q 35.7,47 36.1,47 l 0.75,0.2 0.6,0.85 1.65,4 0.55,1.25 1.1,3.5 M 31,56.85 v 0.2 h -9.25 l 0.05,-0.25 1.1,-3.5 0.55,-1.25 q 0.75,-2.2 1.65,-4 l 0.6,-0.85 q 0.3,-0.25 0.75,-0.2 0.4,0 0.55,0.25 l 0.3,0.65 3.2,7.1 0.25,0.95 0.25,0.9 M 20.9,55.8 21.15,57.05 H 12.1 l 0.05,-0.25 0.9,-2.7 3.75,-8.85 0.8,-1.15 1.15,-0.05 Q 19.3,44.3 19.4,45 l -0.1,0.8 0.05,0.8 0.1,1.5 q 0.05,1.5 0.65,3.85 l 0.8,3.85 M 12.75,49.7 10.6,57.05 H 0.3 v -8.8 L 8.5,42.5 q 3.4,-2.4 5.55,-3.6 1.25,-0.65 1.9,-0.3 0.5,0.35 0.5,1.25 L 16,41.15 Q 14.3,44.6 12.75,49.7 M 0.35,45.95 0.3,46 V 35.85 l 3.25,0.05 7.2,-0.2 1.25,0.05 q 0.4,0.1 0.75,0.55 0.3,0.4 0.2,0.8 -0.1,0.6 -1.1,1.3 l -3.45,2.3 -1.15,1 Q 5.2,43.4 3,44.2 l -1,0.45 -1.65,1.3"
         fill="#767676"
         fill-rule="evenodd"
         stroke="none"
         id="path4" />
      <path
         d="m 51.2,12.55 0.05,0.3 0.2,1.2 0.15,1.3 V 19 L 51.55,19.3 51.3,20.95 50.6,24.5 50,28.2 49,34 47.8,39.65 Q 47.2,41.7 44.9,42.5 L 41.75,43 40.4,42.8 q -1.95,-0.25 -3.6,-1.4 l -1,-0.8 -0.7,-0.8 -0.25,0.25 -0.5,0.35 -0.9,0.75 Q 32.1,42.1 30.4,42.1 l -1.6,-0.25 -0.45,-0.05 -1,-0.3 -0.8,0.9 H 26.5 l -1.55,0.8 h -0.1 L 23.3,43.4 H 23.05 L 21.95,43.35 20.7,43.1 19.75,42.8 19,42.2 18.85,42 l -0.5,0.75 q -0.8,1.05 -2.2,1.3 -1.4,0.25 -2.55,-0.4 -1.2,-0.6 -2.65,-3 -1.7,-2.9 -2.65,-5.05 -1.4,-3.1 -1.85,-5.8 -0.3,-1.45 -0.3,-3.35 0,-1.8 0.55,-2.95 0.6,-1.2 1.7,-2.15 1.55,-1.2 2.8,-1.4 l 0.55,-0.05 h 0.55 l 1.05,0.15 -0.05,-1.4 V 18 q 0,-2.2 0.55,-3.35 0.8,-1.65 2.7,-2.35 1.55,-0.7 3.65,-0.7 1.85,-0.1 2.9,0.45 l 0.2,0.15 0.25,0.2 0.8,0.85 0.65,-1.2 0.2,-0.25 q 1.15,-1.65 2.95,-2.4 1.35,-0.6 3.4,-0.6 1.95,0 3.05,0.75 1.1,0.75 1.8,2.8 l 0.35,1.3 0.1,0.6 0.65,-2.05 0.55,-1.05 0.05,-0.1 Q 39.55,8.4 42.05,7.65 L 45.7,7.5 q 2.1,0.4 3.35,1.4 1.45,1.3 2.15,3.65 m 5.1,22.5 q 0.6,2.65 -0.05,5.45 -0.7,2.7 -2.45,4.8 -1.8,2.1 -4.35,3.25 -2.55,1.05 -5.35,0.95 l -2.75,-0.35 -1,-0.15 -2.95,-0.15 -0.85,0.1 Q 35.7,49.1 33.5,50 l -3.05,0.8 q -1.65,0.1 -3.1,-0.9 -1.5,-1 -2.1,-2.6 -0.5,-1.2 -0.5,-2.45 l 0.7,-0.3 1.95,-0.85 0.1,-0.1 2.15,0.25 q 1.7,0.1 3.2,-0.75 l 1.55,-0.95 q 1.85,1 5.3,2.2 3.4,1.2 5.8,0 2.45,-1.2 3.6,-3.95 1.15,-2.8 2.15,-10 l 0.25,-1.6 1,-10.05 0.05,-1.35 v -1 l 0.9,1.35 q 0.95,1.7 1.35,3.65 0.3,1.6 0.25,5.05 -0.1,3.3 0.2,5 l 1.05,3.6"
         fill="#000000"
         fill-rule="evenodd"
         stroke="none"
         id="path5" />
      <path
         d="M 51.2,12.55 Q 50.5,10.2 49.05,8.9 47.8,7.9 45.7,7.5 l -3.65,0.15 q -2.5,0.75 -3.95,3.4 l -0.05,0.1 -0.55,1.05 -0.65,2.05 -0.1,-0.6 -0.35,-1.3 Q 35.7,10.3 34.6,9.55 33.5,8.8 31.55,8.8 q -2.05,0 -3.4,0.6 -1.8,0.75 -2.95,2.4 l -0.2,0.25 -0.65,1.2 -0.8,-0.85 -0.25,-0.2 -0.2,-0.15 q -1.05,-0.55 -2.9,-0.45 -2.1,0 -3.65,0.7 -1.9,0.7 -2.7,2.35 Q 13.3,15.8 13.3,18 v 0.65 l 0.05,1.4 -1.05,-0.15 h -0.55 l -0.55,0.05 q -1.25,0.2 -2.8,1.4 -1.1,0.95 -1.7,2.15 -0.55,1.15 -0.55,2.95 0,1.9 0.3,3.35 0.45,2.7 1.85,5.8 0.95,2.15 2.65,5.05 1.45,2.4 2.65,3 1.15,0.65 2.55,0.4 1.4,-0.25 2.2,-1.3 l 0.5,-0.75 0.15,0.2 0.75,0.6 0.95,0.3 1.25,0.25 1.1,0.05 h 0.25 l 1.55,-0.2 h 0.1 l 1.55,-0.8 h 0.05 l 0.8,-0.9 1,0.3 0.45,0.05 1.6,0.25 q 1.7,0 3.05,-0.95 l 0.9,-0.75 0.5,-0.35 0.25,-0.25 0.7,0.8 1,0.8 q 1.65,1.15 3.6,1.4 l 1.35,0.2 3.15,-0.5 q 2.3,-0.8 2.9,-2.85 L 49,34 50,28.2 50.6,24.5 51.3,20.95 51.55,19.3 51.6,19 v -3.65 l -0.15,-1.3 -0.2,-1.2 -0.05,-0.3 M 21.65,45.4 20.75,44.8 19.65,43.85 19.55,43.65 19,44 q -1.35,0.8 -2.8,0.75 -0.95,0 -2.75,-0.6 Q 11.55,43.45 10.5,42.5 9.4,41.6 8.4,39.75 7.25,37.55 6.05,33.7 4.7,29.35 4.8,26.7 5,22.55 7.75,20.5 8.6,19.9 10.6,19.2 l 1.05,-0.3 v -0.45 q 0.15,-2.95 1.95,-5.1 1.75,-2.2 4.6,-2.85 l 4.55,0.2 0.8,0.25 q 0.95,-1.9 3.4,-2.9 1.9,-0.7 4.7,-0.7 2.15,0 3.4,0.7 L 36.6,9.2 37.4,9.95 38.6,8.3 q 1.9,-2.05 4.85,-2.4 2.95,-0.3 5.3,1.25 l 1.8,1.5 1.3,1.35 q 0.7,1 1.35,2.85 l 0.5,1.75 0.35,0.35 q 1.35,1.5 2,3.4 0.75,2.1 0.65,5.8 -0.1,4.5 0.1,5.9 l 0.85,4.15 q 0.75,5 -1.15,9.7 -0.75,1.75 -1.8,3 -0.95,1 -2.7,2.2 -2,1.2 -3.15,1.6 -2.7,1.05 -7.05,0.6 -2.25,-0.2 -3.55,-1.1 L 38.2,50.15 H 37 q -1.05,0.1 -2.55,0.95 L 32.3,52.1 28.45,52 Q 27.1,51.65 26.3,51.15 24.75,50.3 23.9,48.6 q -0.8,-1.5 -0.85,-3.2 -0.95,0.25 -1.4,0 M 56.3,35.05 55.25,31.45 q -0.3,-1.7 -0.2,-5 Q 55.1,23 54.8,21.4 54.4,19.45 53.45,17.75 l -0.9,-1.35 v 1 l -0.05,1.35 -1,10.05 -0.25,1.6 q -1,7.2 -2.15,10 -1.15,2.75 -3.6,3.95 -2.4,1.2 -5.8,0 -3.45,-1.2 -5.3,-2.2 l -1.55,0.95 q -1.5,0.85 -3.2,0.75 l -2.15,-0.25 -0.1,0.1 -1.95,0.85 -0.7,0.3 q 0,1.25 0.5,2.45 0.6,1.6 2.1,2.6 1.45,1 3.1,0.9 L 33.5,50 q 2.2,-0.9 3.05,-1.05 l 0.85,-0.1 2.95,0.15 1,0.15 2.75,0.35 q 2.8,0.1 5.35,-0.95 2.55,-1.15 4.35,-3.25 1.75,-2.1 2.45,-4.8 0.65,-2.8 0.05,-5.45"
         fill="#ffffff"
         fill-rule="evenodd"
         stroke="none"
         id="path6" />
    </g>
    <g
       id="shape2"
       transform="translate(1.5,1.5)">
      <path
         d="M 0,23.8 V 0 H 64.1 V 23.8 57.55 H 0 Z"
         fill="none"
         stroke="#000000"
         stroke-linecap="round"
         stroke-linejoin="round"
         stroke-width="3"
         id="path7" />
    </g>
  </defs>
</svg>
