<?xml version="1.0" encoding="UTF-8" standalone="no"?>
<svg
   ffdec:objectType="frame"
   height="44.349998"
   width="78.599998"
   version="1.1"
   id="svg13"
   sodipodi:docname="124.svg"
   xmlns:inkscape="http://www.inkscape.org/namespaces/inkscape"
   xmlns:sodipodi="http://sodipodi.sourceforge.net/DTD/sodipodi-0.dtd"
   xmlns:xlink="http://www.w3.org/1999/xlink"
   xmlns="http://www.w3.org/2000/svg"
   xmlns:svg="http://www.w3.org/2000/svg"
   xmlns:ffdec="https://www.free-decompiler.com/flash">
  <sodipodi:namedview
     id="namedview13"
     pagecolor="#ffffff"
     bordercolor="#000000"
     borderopacity="0.25"
     inkscape:showpageshadow="2"
     inkscape:pageopacity="0.0"
     inkscape:pagecheckerboard="0"
     inkscape:deskcolor="#d1d1d1"
     fit-margin-top="5"
     fit-margin-left="5"
     fit-margin-right="5"
     fit-margin-bottom="5" />
  <g
     transform="translate(2,2.05)"
     id="g3">
    <use
       ffdec:characterId="1"
       height="42.700001"
       transform="translate(-1.75,-2)"
       width="76.449997"
       xlink:href="#shape0"
       id="use1" />
    <use
       ffdec:characterId="125"
       height="38.400002"
       transform="translate(-0.15,2.6)"
       width="71.349998"
       xlink:href="#shape1"
       id="use2" />
    <use
       ffdec:characterId="3"
       height="44.349998"
       transform="translate(-2,-2.05)"
       width="78.599998"
       xlink:href="#shape2"
       id="use3" />
  </g>
  <defs
     id="defs13">
    <g
       id="shape0"
       transform="translate(1.75,2)">
      <path
         d="M 2.8,0 V -0.4 H 5.4 V 0 H 9.7 V 19.45 0 H 20.55 L 19.3,19.45 H 9.7 0.25 V 0 H 2.8"
         fill="#ffffff"
         fill-rule="evenodd"
         stroke="none"
         id="path3" />
      <path
         d="M 0.25,19.45 H 9.7 19.3 L 18.7,28.6 16,28.5 10.95,27.95 9.7,27.8 Q 7.45,27.6 5.85,27.75 4.05,27.9 1.5,28.6 0.75,28.8 0.25,29.15 v -9.7 m 9.45,0 v 8.35 -8.35"
         fill="#121212"
         fill-rule="evenodd"
         stroke="none"
         id="path4" />
      <path
         d="m 9.7,27.8 1.25,0.15 5.05,0.55 2.7,0.1 h 1.05 l 3.75,0.15 q 2.45,0.3 3.6,1.25 0.6,0.5 0.6,1.1 0,0.65 -0.8,1 l -1.3,0.2 -7.15,0.15 -5.6,-0.3 L 9.7,31.75 7.95,31.6 3.1,31.95 0.95,32.3 0.25,32.1 -0.35,31.55 -0.5,31.3 V 29.9 L 0.25,29.15 Q 0.75,28.8 1.5,28.6 4.05,27.9 5.85,27.75 7.45,27.6 9.7,27.8 v 3.95 -3.95"
         fill="#999999"
         fill-rule="evenodd"
         stroke="none"
         id="path5" />
      <path
         d="M 2.8,0 H 0.25 M 9.7,0 H 5.4 m 16.15,0 h 10.7 M 20.55,0 H 9.7"
         fill="none"
         stroke="#666666"
         stroke-linecap="round"
         stroke-linejoin="round"
         stroke-width="4"
         id="path6" />
      <path
         d="m 9.7,-0.4 h 65 V 40.5 H 47.05 L 45.5,40.7 27,40.65 25.95,40.5 H 9.7 -0.5 V -0.4 H 9.7 V 40.5 -0.4"
         fill="#ffffff"
         fill-rule="evenodd"
         stroke="none"
         id="path7" />
    </g>
    <g
       id="shape1"
       transform="translate(0.15,-2.6)">
      <path
         d="m 47.65,15.55 1.5,-0.15 q 1.3,0.5 1.3,2 0,1.25 -1.15,2.2 -0.8,0.65 -2.35,1 l -0.1,0.05 H 46.2 L 45.35,19.7 44.45,18 q -0.3,-1.2 0.3,-1.8 0.7,-0.7 1.55,-0.35 l 0.6,0.35 0.75,-0.65"
         fill="#000000"
         fill-rule="evenodd"
         stroke="none"
         id="path8" />
      <path
         d="m 59.8,18.35 -0.6,-1.55 -0.2,-1 -0.3,-3.15 0.1,-1 q 0.1,-0.55 0.6,-0.9 0.45,-0.4 1,-0.45 1.35,-0.1 1.85,1.1 0.25,0.55 0.15,1.55 l -0.7,5.2 -0.15,0.55 -0.35,0.65 -0.4,0.4 Q 60.45,19.8 60.15,19.3 l -0.3,-0.55 -0.05,-0.4 m 2.45,3.95 q -0.15,0.8 -1,1.15 L 59.75,23.25 59.2,22.5 59.05,21.9 Q 59,21.45 59.3,21.05 q 0.3,-0.45 0.7,-0.6 0.95,-0.3 1.8,0.35 l 0.4,0.5 q 0.2,0.45 0.05,1 M 60.1,39.9 H 32.7 q -1.1,-0.75 -1.9,-1.8 l -0.7,-1.05 q -1.55,-2.85 -1.4,-8.5 0,-1.45 0.5,-2.05 0.45,-0.6 1.3,-0.6 0.8,0 1.35,0.5 l 0.45,1.2 0.05,1.3 q -0.05,2.15 0.15,3.55 0.25,1.75 0.9,2.85 0.7,1.25 1.8,1.95 V 36 q 0.05,-1.35 0.4,-2.1 L 36.2,32.75 36.15,32.7 35.9,31.9 35,28.6 l -0.3,-2 q -0.15,-1.55 0.5,-3.1 0.3,-0.7 0.8,-1.1 0.6,-0.45 1.5,-0.35 0.75,0.05 1.45,0.6 l 0.7,0.8 0.3,1.05 q 0.3,2.5 0.1,4.95 L 40,30.05 40.25,29.9 q 2.65,-0.95 5.6,-0.85 l 2.1,0.25 0.05,-3.95 q 0,-1.45 0.15,-2.1 l 0.3,-1.05 0.35,-0.8 q 0.5,-0.7 1.45,-0.9 l 1.15,-0.05 0.6,0.1 q 1.05,0.15 1.45,0.75 l 0.25,0.9 q 0.15,1.25 -0.5,3.65 l -0.5,1.9 -0.25,1.1 -0.1,1.2 -0.15,0.7 0.2,0.15 q 0.6,-1.15 1.45,-2.1 1.6,-1.85 3.9,-2.75 2.35,-0.9 4.7,-0.7 l 1.05,0.15 0.55,-0.25 1.8,-0.9 0.85,-0.5 q 0.55,-0.3 0.95,-0.25 0.85,0.05 1.15,0.85 l -0.05,1.45 -0.1,0.65 -0.2,0.45 -0.3,1 -0.15,0.6 0.8,1.35 q 0.65,1.15 0.9,2.45 0.2,1.15 -0.1,3.35 l -0.3,1.4 0.15,0.2 1.35,1.75 0.4,0.8 h -6.4 q 0.75,-1 0.4,-2.45 L 64.8,36.5 64.15,35.85 Q 63,35.2 61.5,35.6 l -0.65,0.25 -0.4,0.3 -0.7,0.8 Q 59.2,38 59.6,39.1 l 0.5,0.8 m -4.05,-5.55 0.2,0.3 Q 56.05,34.9 56,35.2 l -0.05,0.45 -0.2,0.7 q -0.05,0.25 0.15,0.5 0.2,0.2 0.45,0.2 0.3,0 0.65,-0.35 l 0.65,-0.85 0.4,-0.1 0.4,-0.2 0.5,-0.1 0.6,-0.2 0.4,-0.35 -0.05,-0.35 -0.35,-0.25 -0.8,-0.05 -0.4,0.1 -0.45,-0.1 -0.05,-0.1 L 57.6,33.5 57.3,33 q -0.25,-0.5 -0.85,-0.6 -0.3,0.05 -0.55,0.3 -0.25,0.25 -0.2,0.55 l 0.15,0.5 0.2,0.6 M 63.55,28.7 62.8,27.75 62,27.3 60.8,27.05 q -1.05,0 -1.75,0.65 -0.75,0.6 -1,1.6 v 1.2 l 0.1,0.4 q 0.15,1 0.9,1.5 l 0.55,0.35 2,0.3 q 1.15,-0.15 1.75,-1.05 0.55,-0.6 0.55,-1.7 0,-0.95 -0.35,-1.6"
         fill="#999999"
         fill-rule="evenodd"
         stroke="none"
         id="path9" />
      <path
         d="M 64.8,39.9 64.7,40 q -0.45,0.8 -1.4,0.95 l -1.55,-0.1 -0.7,-0.2 L 60.1,39.9 59.6,39.1 Q 59.2,38 59.75,36.95 l 0.7,-0.8 0.4,-0.3 0.65,-0.25 q 1.5,-0.4 2.65,0.25 l 0.65,0.65 0.4,0.95 q 0.35,1.45 -0.4,2.45 M 63.55,28.7 q 0.35,0.65 0.35,1.6 0,1.1 -0.55,1.7 -0.6,0.9 -1.75,1.05 l -2,-0.3 -0.55,-0.35 q -0.75,-0.5 -0.9,-1.5 l -0.1,-0.4 v -1.2 q 0.25,-1 1,-1.6 0.7,-0.65 1.75,-0.65 l 1.2,0.25 0.8,0.45 0.75,0.95 m -7.5,5.65 -0.2,-0.6 -0.15,-0.5 q -0.05,-0.3 0.2,-0.55 0.25,-0.25 0.55,-0.3 0.6,0.1 0.85,0.6 l 0.3,0.5 0.25,0.65 0.05,0.1 0.45,0.1 0.4,-0.1 0.8,0.05 0.35,0.25 0.05,0.35 -0.4,0.35 -0.6,0.2 -0.5,0.1 -0.4,0.2 -0.4,0.1 L 57,36.7 q -0.35,0.35 -0.65,0.35 -0.25,0 -0.45,-0.2 -0.2,-0.25 -0.15,-0.5 l 0.2,-0.7 L 56,35.2 q 0.05,-0.3 0.25,-0.55 l -0.2,-0.3"
         fill="#ffffff"
         fill-rule="evenodd"
         stroke="none"
         id="path10" />
      <path
         d="m 40.5,19.2 -0.95,-0.4 -0.5,-0.3 -0.45,-0.8 q -0.3,-1.3 0.55,-1.9 0.4,-0.3 1.25,-0.3 l 1.2,0.3 q 0.95,0.45 1.35,1.6 0.3,0.95 -0.05,2.05 -0.4,1.15 -1.4,1.85 -0.6,0.4 -1.35,0.6 l -1.6,0.45 -2.95,0.1 -1.3,-0.25 -0.45,-0.35 0.2,-0.4 0.4,-0.15 1.85,-0.2 2.55,-0.55 0.75,-0.35 0.9,-1 m 0.6,4.1 3.65,-0.65 0.95,-0.1 1.5,-0.3 1.5,0.25 q 0.8,0.45 0.7,1.35 0,0.85 -0.8,1.3 l -1.05,0.2 H 46 l -4.85,-0.45 -1.1,-0.1 h -0.8 q -0.5,-0.1 -0.5,-0.5 0,-0.3 0.45,-0.55 0.7,-0.35 1.9,-0.45 M 42.05,29.05 41.2,28.1 Q 41,27.9 40.55,27.8 L 38.25,27.3 36.55,27.15 36.2,27 36.05,26.65 q 0.05,-0.25 0.4,-0.35 l 1.15,-0.2 2.7,0.1 1.4,0.4 q 0.7,0.15 1.25,0.55 0.9,0.6 1.25,1.65 0.3,1 0.05,1.85 -0.35,1.05 -1.2,1.45 l -1.1,0.25 -1.15,-0.25 q -0.75,-0.55 -0.5,-1.7 l 0.45,-0.75 0.45,-0.25 0.85,-0.35 M 29.5,20.2 l -0.65,2 q -1.65,3.75 -6,5.35 l -3.8,0.75 0.95,0.25 2.15,0.4 1.55,0.35 q 1.6,0.1 3.9,-1.5 l 0.6,-0.55 0.05,-0.7 q -0.05,-1.2 0.55,-2.25 0.55,-1.1 1.55,-1.6 1.05,-0.55 2.25,-0.3 1.2,0.25 1.85,1.2 1,1.45 0.2,3.75 -0.4,1.35 -1.2,2.3 -0.9,1 -2.3,1.85 l -2.75,1.45 q -3.2,1.25 -5.6,0.85 l -2.25,-0.55 -2.3,-0.8 -1,-0.55 0.05,6.2 -0.25,2.1 H -0.1 L -0.15,39.95 Q -0.25,38.9 0.75,37.1 4.8,29.4 8.2,25.15 6,23.35 5.1,20.9 4.2,18.3 4.8,14.7 4.95,13.55 5.25,12.6 L 5.5,11.25 Q 6.2,8.6 6.95,6.8 L 8.1,4.55 q 0.65,-1.1 1.1,-1.45 0.95,-0.75 2,-0.35 l 1.1,0.7 1.45,1.3 1.55,-0.3 3.8,-0.2 1.55,0.3 q 1,0.1 2.15,0.7 2.85,1.55 4.65,4.25 L 28.5,9.25 30.05,9.1 q 0.6,0.1 1.05,0.5 0.5,0.45 0.6,1.05 l -0.05,1.3 -0.3,1.7 -0.9,3.15 -0.5,1.45 q -0.1,-1.3 -1.2,-2.1 l -0.55,-0.3 q -1.45,-0.6 -2.7,0.2 -1.15,0.75 -1.3,2.05 -0.15,0.75 0.15,1.5 l 0.45,0.75 0.45,0.05 1.35,0.45 0.85,0.6 0.75,-0.25 q 0.85,-0.35 1.3,-1 m -8.05,4.65 0.9,-1.45 q 0.3,-1.15 0.05,-1.85 L 22,20.7 l 0.15,-0.35 0.15,-0.5 q 0.1,-0.7 -0.55,-0.95 -0.7,-0.2 -1,0.35 -0.15,0.25 -0.15,0.6 v 0.2 q -0.8,0 -1.45,0.65 -0.8,0.7 -0.95,1.95 -0.1,0.95 0.15,1.5 0.3,0.7 1,0.95 1.15,0.5 2.1,-0.25 m -0.4,-0.95 -0.95,0.2 -0.7,-0.65 -0.05,-0.7 q 0.05,-0.4 0.4,-0.9 0.3,-0.4 0.85,-0.4 0.5,-0.05 0.85,0.45 0.3,0.55 0.05,1.25 L 21.05,23.9 M 32.2,19.35 31.85,18.9 31.9,18.4 32.05,18 q 0.15,-0.3 0.5,-0.4 h 0.6 q 0.25,-0.55 0.9,-0.7 0.7,-0.1 1,0.45 l 0.1,0.4 -0.15,1.1 -0.4,0.65 q -0.7,0.8 -1.25,0.6 l -0.5,-0.25 -0.65,-0.5 M 12.1,14.7 q -0.8,1.65 0.2,3.15 l 0.2,0.3 0.4,-0.1 H 14 l 1.85,0.4 0.9,0.5 q 0.65,-0.4 1.1,-1.2 0.95,-1.55 0.1,-3.2 -0.8,-1.45 -2.35,-1.7 -1.6,-0.25 -2.75,0.8 -0.5,0.45 -0.75,1.05"
         fill="#000000"
         fill-rule="evenodd"
         stroke="none"
         id="path11" />
      <path
         d="m 29.95,18.25 v 0.6 L 29.5,20.2 q -0.45,0.65 -1.3,1 L 27.45,21.45 26.6,20.85 25.25,20.4 24.8,20.35 24.35,19.6 q -0.3,-0.75 -0.15,-1.5 0.15,-1.3 1.3,-2.05 1.25,-0.8 2.7,-0.2 l 0.55,0.3 q 1.1,0.8 1.2,2.1 m -8.5,6.6 q -0.95,0.75 -2.1,0.25 -0.7,-0.25 -1,-0.95 -0.25,-0.55 -0.15,-1.5 0.15,-1.25 0.95,-1.95 0.65,-0.65 1.45,-0.65 v -0.2 q 0,-0.35 0.15,-0.6 0.3,-0.55 1,-0.35 0.65,0.25 0.55,0.95 l -0.15,0.5 -0.15,0.35 0.4,0.85 q 0.25,0.7 -0.05,1.85 l -0.9,1.45 m -0.4,-0.95 0.45,-0.75 q 0.25,-0.7 -0.05,-1.25 -0.35,-0.5 -0.85,-0.45 -0.55,0 -0.85,0.4 -0.35,0.5 -0.4,0.9 l 0.05,0.7 0.7,0.65 0.95,-0.2 M 12.1,14.7 q 0.25,-0.6 0.75,-1.05 1.15,-1.05 2.75,-0.8 1.55,0.25 2.35,1.7 0.85,1.65 -0.1,3.2 -0.45,0.8 -1.1,1.2 l -0.9,-0.5 -1.85,-0.4 h -1.1 l -0.4,0.1 -0.2,-0.3 q -1,-1.5 -0.2,-3.15"
         fill="#ffffff"
         fill-rule="evenodd"
         stroke="none"
         id="path12" />
    </g>
    <g
       id="shape2"
       transform="translate(2,2.05)">
      <path
         d="M -0.5,-0.4 V -0.55 H 75.1 V -0.4 40.8 H -0.5 Z"
         fill="none"
         stroke="#000000"
         stroke-linecap="round"
         stroke-linejoin="round"
         stroke-width="3"
         id="path13" />
    </g>
  </defs>
</svg>
