<?xml version="1.0" encoding="UTF-8" standalone="no"?>
<svg
   ffdec:objectType="frame"
   height="60.549999"
   width="67.099998"
   version="1.1"
   id="svg6"
   sodipodi:docname="154.svg"
   xmlns:inkscape="http://www.inkscape.org/namespaces/inkscape"
   xmlns:sodipodi="http://sodipodi.sourceforge.net/DTD/sodipodi-0.dtd"
   xmlns:xlink="http://www.w3.org/1999/xlink"
   xmlns="http://www.w3.org/2000/svg"
   xmlns:svg="http://www.w3.org/2000/svg"
   xmlns:ffdec="https://www.free-decompiler.com/flash">
  <sodipodi:namedview
     id="namedview6"
     pagecolor="#ffffff"
     bordercolor="#000000"
     borderopacity="0.25"
     inkscape:showpageshadow="2"
     inkscape:pageopacity="0.0"
     inkscape:pagecheckerboard="0"
     inkscape:deskcolor="#d1d1d1"
     fit-margin-top="5"
     fit-margin-left="5"
     fit-margin-right="5"
     fit-margin-bottom="5" />
  <g
     transform="translate(1.5,1.5)"
     id="g3">
    <use
       ffdec:characterId="516"
       height="57.549999"
       width="64.099998"
       xlink:href="#shape0"
       id="use1" />
    <use
       ffdec:characterId="664"
       height="58.099998"
       transform="translate(-0.55,-0.1)"
       width="65.099998"
       xlink:href="#shape1"
       id="use2" />
    <use
       ffdec:characterId="518"
       height="60.549999"
       transform="translate(-1.5,-1.5)"
       width="67.099998"
       xlink:href="#shape2"
       id="use3" />
  </g>
  <defs
     id="defs6">
    <g
       id="shape0">
      <path
         d="M 53.6,0 H 64.1 V 57.55 H 53.6 28.25 0 V 0 H 28.25 53.6 V 57.55 0 M 28.25,0 V 57.55 0"
         fill="#ffffff"
         fill-rule="evenodd"
         stroke="none"
         id="path3" />
    </g>
    <g
       id="shape1"
       transform="translate(0.55,0.1)">
      <path
         d="m 6.6,10.3 v 0.1 l -0.1,0.1 v 0.1 l -0.1,0.1 -0.05,0.1 -0.1,0.1 -0.05,0.15 -0.1,0.1 -0.15,0.1 -0.15,0.1 -0.2,0.1 -0.25,0.1 -0.2,0.1 H 5 V 11.7 H -0.55 V -0.1 H 7.5 v 0.05 0.1 0.15 0.1 0.1 0.1 0.1 0.1 0.1 0.15 0.1 0.1 0.1 0.1 0.1 0.1 0.15 0.1 0.1 0.1 0.1 0.1 0.1 0.15 0.1 0.1 0.1 0.1 0.1 0.1 0.1 0.15 0.1 0.1 0.1 0.1 0.1 0.1 0.15 0.1 0.1 0.1 0.1 0.1 0.1 0.15 0.1 0.1 0.1 0.1 0.1 0.1 0.15 0.1 0.1 0.1 l -0.05,0.1 v 0.1 0.1 0.15 0.1 0.1 0.1 0.1 0.1 0.1 0.15 0.1 0.1 0.1 L 7.4,7.45 v 0.1 0.1 0.15 0.1 L 7.35,8 V 8.1 8.2 8.3 8.4 8.55 L 7.3,8.65 v 0.1 l -0.05,0.1 v 0.1 0.1 L 7.2,9.15 7.15,9.3 7.1,9.4 7.05,9.5 7,9.6 V 9.7 L 6.95,9.8 6.85,9.9 v 0.15 l -0.1,0.1 -0.1,0.1 -0.05,0.05 m 45.25,0 -0.05,0.1 v 0.05 l -0.1,0.1 -0.05,0.1 -0.1,0.15 -0.1,0.1 -0.15,0.1 -0.1,0.1 -0.2,0.1 -0.25,0.1 -0.25,0.1 -0.6,0.05 v 0.05 l -0.2,0.05 h -0.1 l -0.25,0.05 -0.7,0.05 H 47.5 L 44.8,11.7 H 33.95 V 11.65 H 33.8 l -0.2,-0.1 -0.25,-0.1 -0.2,-0.1 -0.15,-0.1 -0.15,-0.1 -0.1,-0.1 -0.05,-0.15 -0.1,-0.1 -0.05,-0.1 -0.1,-0.1 v -0.1 l -0.1,-0.1 v -0.1 l -0.05,-0.05 -0.1,-0.1 -0.1,-0.1 V 9.9 L 32,9.8 31.95,9.7 V 9.6 L 31.9,9.5 31.85,9.4 31.8,9.3 31.75,9.15 31.7,9.05 V 8.95 8.85 L 31.65,8.75 V 8.65 L 31.6,8.55 V 8.4 8.3 8.2 8.1 8 L 31.55,7.9 V 7.8 7.65 7.55 7.45 L 31.5,7.35 V 7.25 7.15 7.05 6.9 6.8 6.7 6.6 6.5 6.4 6.3 6.15 6.05 5.95 L 31.45,5.85 V 5.75 5.65 5.55 5.4 5.3 5.2 5.1 5 4.9 4.8 4.65 4.55 4.45 4.35 4.25 4.15 4.05 3.9 3.8 3.7 3.6 3.5 3.4 3.3 3.15 3.05 2.95 2.85 2.75 2.65 2.55 2.45 2.3 2.2 2.1 2 1.9 1.8 1.7 1.55 1.45 1.35 1.25 1.15 1.05 0.95 0.8 0.7 0.6 0.5 0.4 0.3 0.2 0.05 -0.05 -0.1 H 51.6 V 0 0.05 l 0.05,0.05 0.05,0.1 0.05,0.1 v 0.15 l 0.05,0.1 v 0.1 0.1 0.1 0.1 0.1 0.15 0.1 0.1 0.1 0.1 0.1 0.1 0.15 0.1 0.1 0.1 0.1 0.1 0.1 0.1 0.15 0.1 L 51.85,3 v 0.1 0.1 0.1 0.1 l 0.05,0.15 v 0.1 0.1 0.1 l 0.05,0.1 v 0.1 0.1 0.15 L 52,4.4 v 0.1 0.1 0.1 l 0.05,0.1 v 0.1 0.15 0.1 0.1 0.1 0.1 0.1 l 0.05,0.1 V 5.8 5.9 6 6.1 6.2 6.3 6.4 l 0.05,0.15 v 0.1 0.1 0.1 0.1 0.1 0.1 0.15 0.1 l 0.05,0.1 v 0.1 0.1 0.1 0.1 0.15 0.1 0.1 0.1 0.1 0.1 0.1 V 8.8 8.9 9 9.1 9.2 9.3 9.4 9.55 l -0.05,0.1 v 0.1 l -0.05,0.1 -0.05,0.1 -0.05,0.1 -0.05,0.1 -0.1,0.15 M 8.85,-0.05 V -0.1 h 20.2 V 0 l 0.05,0.1 0.05,0.1 0.05,0.1 0.05,0.15 0.05,0.1 v 0.1 0.1 l 0.05,0.1 v 0.1 l 0.05,0.1 V 1.2 1.3 1.4 1.5 1.6 l 0.05,0.1 v 0.1 0.15 0.1 0.1 l 0.05,0.1 v 0.1 0.1 0.1 0.15 0.1 0.1 0.1 0.1 0.1 0.1 0.15 0.1 0.1 l 0.05,0.1 v 0.1 0.1 0.1 0.15 0.1 0.1 0.1 0.1 0.1 0.1 0.15 0.1 0.1 0.1 0.1 0.1 0.1 0.15 0.1 0.1 0.1 0.1 0.1 0.1 0.15 0.1 0.1 0.1 0.1 0.1 0.1 0.1 0.15 0.1 0.1 0.1 0.1 0.1 0.1 0.15 0.1 0.1 0.1 0.1 0.1 0.1 0.15 0.1 0.1 0.1 0.1 0.1 0.1 0.15 0.1 0.1 l -0.05,0.1 -0.05,0.1 -0.05,0.1 v 0.1 l -0.1,0.15 -0.05,0.1 -0.1,0.1 -0.05,0.1 -0.05,0.1 -0.15,0.1 -0.1,0.1 -0.15,0.15 -0.2,0.1 -0.3,0.1 -0.25,0.05 -0.35,0.05 V 11.3 h -0.4 -0.1 l -1.15,0.15 -4.95,0.15 -8.75,0.05 -1.65,-0.2 Q 9.4,10.85 9.4,9.6 V 9.55 L 9.35,9.5 9.3,9.4 9.25,9.3 V 9.15 L 9.2,9.05 V 8.95 8.85 8.75 8.65 8.55 8.4 8.3 8.2 8.1 8 7.9 7.8 7.65 7.55 7.45 7.35 7.25 7.15 7.05 6.95 6.8 6.7 L 9.15,6.6 V 6.5 6.4 6.3 6.2 L 9.1,6.05 V 5.95 5.85 5.75 L 9.05,5.65 V 5.55 5.45 5.3 L 9,5.2 V 5.1 5 4.9 L 8.95,4.8 V 4.7 4.55 4.45 4.35 4.25 4.15 4.05 L 8.9,3.95 V 3.8 3.7 3.6 3.5 3.4 3.3 3.2 L 8.85,3.05 V 2.95 2.85 2.75 2.65 2.55 2.45 2.3 2.2 L 8.8,2.1 V 2 1.9 1.8 1.7 1.55 1.45 1.35 1.25 1.15 1.05 0.95 0.8 0.7 0.6 0.5 0.4 0.3 0.2 0.05 l 0.05,-0.1 M 62.1,11.6 57.15,11.45 56,11.3 h -0.1 -0.4 v 0.05 L 55.15,11.3 54.9,11.25 54.6,11.15 54.4,11.05 54.25,10.9 54.15,10.8 54,10.7 53.95,10.6 53.9,10.5 53.8,10.4 53.75,10.3 53.65,10.15 v -0.1 L 53.6,9.95 53.55,9.85 53.5,9.75 V 9.65 9.55 9.4 9.3 9.2 9.1 9 8.9 8.8 8.65 8.55 8.45 8.35 8.25 8.15 8.05 7.9 7.8 7.7 7.6 7.5 7.4 7.3 7.15 7.05 6.95 6.85 6.75 6.65 6.55 6.45 6.3 6.2 6.1 6 5.9 5.8 5.7 5.55 5.45 5.35 5.25 5.15 5.05 4.95 4.8 4.7 4.6 4.5 4.4 4.3 4.2 4.05 3.95 3.85 3.75 l 0.05,-0.1 V 3.55 3.45 3.3 3.2 3.1 3 2.9 2.8 2.7 2.55 2.45 2.35 2.25 L 53.6,2.15 V 2.05 1.95 1.8 1.7 L 53.65,1.6 V 1.5 1.4 1.3 1.2 1.05 l 0.05,-0.1 v -0.1 l 0.05,-0.1 V 0.65 0.55 L 53.8,0.45 53.85,0.3 53.9,0.2 53.95,0.1 54,0 V -0.1 H 64.55 V 11.65 L 62.1,11.6 m -41.25,3.15 0.05,-0.1 V 14.6 l 0.1,-0.1 0.05,-0.1 0.1,-0.15 0.1,-0.1 0.15,-0.1 0.1,-0.1 0.2,-0.1 0.25,-0.1 0.25,-0.1 0.6,-0.05 V 13.55 L 23,13.5 h 0.1 l 0.25,-0.05 0.7,-0.05 h 1.15 l 2.7,-0.05 h 10.85 v 0.05 h 0.15 l 0.2,0.1 0.25,0.1 0.2,0.1 0.15,0.1 0.15,0.1 0.1,0.1 0.05,0.15 0.1,0.1 0.05,0.1 0.1,0.1 v 0.1 l 0.1,0.1 v 0.1 l 0.05,0.05 0.1,0.1 0.1,0.1 v 0.15 l 0.1,0.1 0.05,0.1 v 0.1 l 0.05,0.1 0.05,0.1 0.05,0.1 0.05,0.15 L 41,16 v 0.1 0.1 l 0.05,0.1 v 0.1 l 0.05,0.1 v 0.15 0.1 0.1 0.1 0.1 l 0.05,0.1 v 0.1 0.15 0.1 0.1 l 0.05,0.1 v 0.1 0.1 0.1 0.15 0.1 0.1 0.1 0.1 0.1 0.1 0.15 0.1 0.1 l 0.05,0.1 v 0.1 0.1 0.1 0.15 0.1 0.1 0.1 0.1 0.1 0.1 0.15 0.1 0.1 0.1 0.1 0.1 0.1 0.15 0.1 0.1 0.1 0.1 0.1 0.1 0.15 0.1 0.1 0.1 0.1 0.1 0.1 0.1 0.15 0.1 0.1 0.1 0.1 0.1 0.1 0.15 0.1 0.1 0.1 0.1 0.1 0.1 0.15 0.1 0.1 0.1 0.1 0.1 0.1 0.15 0.1 0.1 l -0.05,0.1 -0.05,0.1 -0.05,0.1 v 0.1 l -0.1,0.15 -0.05,0.1 -0.1,0.1 -0.05,0.1 -0.05,0.1 -0.15,0.1 -0.1,0.1 -0.15,0.15 -0.2,0.1 -0.3,0.1 -0.25,0.05 -0.35,0.05 v -0.05 h -0.4 -0.1 L 37.6,26.9 32.65,27.05 23.9,27.1 22.25,26.9 Q 21.1,26.3 21.1,25.05 V 25 L 21.05,24.95 21,24.85 20.95,24.75 V 24.6 L 20.9,24.5 v -0.1 -0.1 -0.1 -0.1 -0.1 -0.15 -0.1 -0.1 -0.1 -0.1 -0.1 -0.1 -0.15 -0.1 -0.1 -0.1 -0.1 -0.1 -0.1 -0.1 -0.15 -0.1 l -0.05,-0.1 v -0.1 -0.1 -0.1 -0.1 L 20.8,21.5 V 21.4 21.3 21.2 L 20.75,21.1 V 21 20.9 20.75 l -0.05,-0.1 v -0.1 -0.1 -0.1 l -0.05,-0.1 V 20.15 20 19.9 19.8 19.7 19.6 19.5 L 20.6,19.4 v -0.15 -0.1 -0.1 -0.1 -0.1 -0.1 -0.1 L 20.55,18.5 V 18.4 18.3 18.2 18.1 18 17.9 17.75 17.65 l -0.05,-0.1 v -0.1 -0.1 -0.1 -0.1 -0.15 -0.1 -0.1 -0.1 -0.1 -0.1 -0.1 -0.15 -0.1 -0.1 -0.1 -0.1 -0.1 -0.1 -0.15 l 0.05,-0.1 v -0.1 l 0.05,-0.1 0.05,-0.1 0.05,-0.1 0.05,-0.1 0.1,-0.15 m 42.7,11 -0.05,0.1 v 0.05 l -0.1,0.1 -0.05,0.1 -0.1,0.15 -0.1,0.1 -0.15,0.1 -0.1,0.1 -0.2,0.1 -0.25,0.1 -0.25,0.1 -0.6,0.05 v 0.05 L 61.4,27 h -0.1 l -0.25,0.05 -0.7,0.05 H 59.2 l -2.7,0.05 H 45.65 V 27.1 H 45.5 l -0.2,-0.1 -0.25,-0.1 -0.2,-0.1 -0.15,-0.1 -0.15,-0.1 -0.1,-0.1 -0.05,-0.15 -0.1,-0.1 -0.05,-0.1 -0.1,-0.1 v -0.1 l -0.1,-0.1 v -0.1 L 44,25.7 43.9,25.6 43.8,25.5 v -0.15 l -0.1,-0.1 -0.05,-0.1 v -0.1 L 43.6,24.95 43.55,24.85 43.5,24.75 43.45,24.6 43.4,24.5 V 24.4 24.3 L 43.35,24.2 V 24.1 L 43.3,24 v -0.15 -0.1 -0.1 -0.1 -0.1 l -0.05,-0.1 V 23.25 23.1 23 22.9 L 43.2,22.8 v -0.1 -0.1 -0.1 -0.15 -0.1 -0.1 -0.1 -0.1 -0.1 -0.1 -0.15 -0.1 -0.1 l -0.05,-0.1 v -0.1 -0.1 -0.1 -0.15 -0.1 -0.1 -0.1 -0.1 -0.1 -0.1 -0.15 -0.1 -0.1 -0.1 -0.1 -0.1 -0.1 -0.15 -0.1 -0.1 -0.1 -0.1 -0.1 -0.1 -0.15 -0.1 -0.1 -0.1 -0.1 -0.1 -0.1 -0.1 -0.15 -0.1 -0.1 -0.1 -0.1 -0.1 -0.1 -0.15 -0.1 -0.1 -0.1 -0.1 -0.1 -0.1 -0.15 -0.1 -0.1 -0.1 -0.1 -0.1 -0.1 -0.15 -0.1 -0.1 L 43.2,15.2 43.25,15.1 43.3,15 v -0.1 l 0.1,-0.15 0.05,-0.1 0.1,-0.1 0.05,-0.1 0.05,-0.1 0.15,-0.1 0.1,-0.1 0.15,-0.15 0.2,-0.1 0.3,-0.1 0.25,-0.05 0.35,-0.05 v 0.05 h 0.4 0.1 l 1.15,-0.15 4.95,-0.15 8.75,-0.05 1.65,0.2 q 1.15,0.6 1.15,1.85 v 0.05 l 0.05,0.05 0.05,0.1 0.05,0.1 V 15.9 L 63.5,16 v 0.1 0.1 0.1 0.1 0.1 0.15 0.1 0.1 0.1 0.1 0.1 0.1 0.15 0.1 0.1 0.1 0.1 0.1 0.1 0.1 0.15 0.1 l 0.05,0.1 v 0.1 0.1 0.1 0.1 L 63.6,19 v 0.1 0.1 0.1 l 0.05,0.1 v 0.1 0.1 0.15 l 0.05,0.1 v 0.1 0.1 0.1 l 0.05,0.1 v 0.1 0.15 0.1 0.1 0.1 0.1 0.1 l 0.05,0.1 v 0.15 0.1 0.1 0.1 0.1 0.1 0.1 L 63.85,22 v 0.1 0.1 0.1 0.1 0.1 0.1 0.15 0.1 l 0.05,0.1 v 0.1 0.1 0.1 0.1 0.15 0.1 0.1 0.1 0.1 0.1 0.1 0.15 0.1 0.1 0.1 0.1 0.1 0.1 0.15 l -0.05,0.1 v 0.1 l -0.05,0.1 -0.05,0.1 -0.05,0.1 -0.05,0.1 -0.1,0.15 M 62.1,43.1 57.15,42.95 56,42.8 h -0.1 -0.4 v 0.05 L 55.15,42.8 54.9,42.75 54.6,42.65 54.4,42.55 54.25,42.4 54.15,42.3 54,42.2 53.95,42.1 53.9,42 53.8,41.9 53.75,41.8 53.65,41.65 v -0.1 l -0.05,-0.1 -0.05,-0.1 -0.05,-0.1 v -0.1 -0.1 -0.15 -0.1 -0.1 -0.1 -0.1 -0.1 -0.1 -0.15 -0.1 -0.1 -0.1 -0.1 -0.1 -0.1 -0.15 -0.1 -0.1 -0.1 -0.1 -0.1 -0.1 -0.15 -0.1 -0.1 -0.1 -0.1 -0.1 -0.1 -0.1 -0.15 -0.1 -0.1 -0.1 -0.1 -0.1 -0.1 -0.15 -0.1 -0.1 -0.1 -0.1 -0.1 -0.1 -0.15 -0.1 -0.1 -0.1 -0.1 -0.1 -0.1 -0.15 -0.1 -0.1 -0.1 l 0.05,-0.1 v -0.1 -0.1 -0.15 -0.1 -0.1 -0.1 -0.1 -0.1 -0.1 -0.15 -0.1 -0.1 -0.1 l 0.05,-0.1 v -0.1 -0.1 -0.15 -0.1 l 0.05,-0.1 V 33 32.9 32.8 32.7 32.55 l 0.05,-0.1 v -0.1 l 0.05,-0.1 v -0.1 -0.1 l 0.05,-0.1 0.05,-0.15 0.05,-0.1 0.05,-0.1 0.05,-0.1 v -0.1 l 0.05,-0.1 0.1,-0.1 v -0.15 l 0.1,-0.1 0.1,-0.1 0.05,-0.05 v -0.1 l 0.1,-0.1 v -0.1 l 0.1,-0.1 0.05,-0.1 0.1,-0.1 0.05,-0.15 0.1,-0.1 0.15,-0.1 0.15,-0.1 0.2,-0.1 0.25,-0.1 0.2,-0.1 H 56 V 29.4 h 8.55 V 43.15 L 62.1,43.1 m -41.25,3.15 0.05,-0.1 V 46.1 L 21,46 l 0.05,-0.1 0.1,-0.15 0.1,-0.1 0.15,-0.1 0.1,-0.1 0.2,-0.1 0.25,-0.1 0.25,-0.1 0.6,-0.05 V 45.05 L 23,45 h 0.1 l 0.25,-0.05 0.7,-0.05 h 1.15 l 2.7,-0.05 h 10.85 v 0.05 h 0.15 l 0.2,0.1 0.25,0.1 0.2,0.1 0.15,0.1 0.15,0.1 0.1,0.1 0.05,0.15 0.1,0.1 0.05,0.1 0.1,0.1 v 0.1 l 0.1,0.1 v 0.1 l 0.05,0.05 0.1,0.1 0.1,0.1 v 0.15 l 0.1,0.1 0.05,0.1 v 0.1 l 0.05,0.1 0.05,0.1 0.05,0.1 0.05,0.15 0.05,0.1 v 0.1 0.1 l 0.05,0.1 v 0.1 L 41.1,48 v 0.15 0.1 0.1 0.1 0.1 l 0.05,0.1 v 0.1 0.15 0.1 0.1 l 0.05,0.1 v 0.1 0.1 0.1 0.15 0.1 0.1 0.1 0.1 0.1 0.1 0.15 0.1 0.1 l 0.05,0.1 v 0.1 0.1 0.1 0.15 0.1 0.1 0.1 0.1 0.1 0.1 0.15 0.1 0.1 0.1 0.1 0.1 0.1 0.15 0.1 0.1 0.1 0.1 0.1 0.1 0.15 0.1 0.1 0.1 0.1 0.1 0.1 0.1 0.15 0.1 0.1 0.1 0.1 0.1 0.1 0.15 0.1 0.1 0.1 0.1 0.1 0.1 0.15 0.1 0.1 0.1 0.1 0.1 0.1 0.15 0.1 0.1 L 41.2,56.8 41.15,56.9 41.1,57 v 0.1 l -0.1,0.15 -0.05,0.1 -0.1,0.1 -0.05,0.1 -0.05,0.1 -0.15,0.1 -0.1,0.1 L 40.35,58 H 21.7 Q 21.1,57.45 21.1,56.55 V 56.5 L 21.05,56.45 21,56.35 20.95,56.25 V 56.1 L 20.9,56 v -0.1 -0.1 -0.1 -0.1 -0.1 -0.15 -0.1 -0.1 -0.1 -0.1 -0.1 -0.1 -0.15 -0.1 -0.1 -0.1 -0.1 -0.1 -0.1 -0.1 -0.15 -0.1 l -0.05,-0.1 v -0.1 -0.1 -0.1 -0.1 L 20.8,53 v -0.1 -0.1 -0.1 l -0.05,-0.1 v -0.1 -0.1 -0.15 l -0.05,-0.1 v -0.1 -0.1 -0.1 l -0.05,-0.1 V 51.65 51.5 51.4 51.3 51.2 51.1 51 L 20.6,50.9 v -0.15 -0.1 -0.1 -0.1 -0.1 -0.1 -0.1 L 20.55,50 v -0.1 -0.1 -0.1 -0.1 -0.1 -0.1 -0.15 -0.1 l -0.05,-0.1 v -0.1 -0.1 -0.1 -0.1 -0.15 -0.1 -0.1 -0.1 -0.1 -0.1 -0.1 -0.15 -0.1 -0.1 -0.1 -0.1 -0.1 -0.1 V 47 l 0.05,-0.1 v -0.1 l 0.05,-0.1 0.05,-0.1 0.05,-0.1 0.05,-0.1 0.1,-0.15 m 42.7,11 -0.05,0.1 v 0.05 l -0.1,0.1 -0.05,0.1 -0.1,0.15 -0.1,0.1 L 63,57.95 62.95,58 h -18.5 l -0.05,-0.15 -0.1,-0.1 -0.05,-0.1 -0.1,-0.1 v -0.1 l -0.1,-0.1 v -0.1 L 44,57.2 43.9,57.1 43.8,57 v -0.15 l -0.1,-0.1 -0.05,-0.1 v -0.1 L 43.6,56.45 43.55,56.35 43.5,56.25 43.45,56.1 43.4,56 V 55.9 55.8 L 43.35,55.7 V 55.6 L 43.3,55.5 v -0.15 -0.1 -0.1 -0.1 -0.1 l -0.05,-0.1 V 54.75 54.6 54.5 54.4 L 43.2,54.3 v -0.1 -0.1 -0.1 -0.15 -0.1 -0.1 -0.1 -0.1 -0.1 -0.1 V 53.1 53 52.9 l -0.05,-0.1 v -0.1 -0.1 -0.1 -0.15 -0.1 -0.1 -0.1 -0.1 -0.1 -0.1 -0.15 -0.1 -0.1 -0.1 -0.1 -0.1 -0.1 -0.15 -0.1 -0.1 -0.1 -0.1 -0.1 -0.1 -0.15 -0.1 -0.1 -0.1 -0.1 -0.1 -0.1 -0.1 -0.15 -0.1 -0.1 -0.1 -0.1 -0.1 -0.1 -0.15 -0.1 -0.1 -0.1 -0.1 -0.1 -0.1 -0.15 -0.1 -0.1 -0.1 -0.1 -0.1 -0.1 V 47 46.9 46.8 l 0.05,-0.1 0.05,-0.1 0.05,-0.1 v -0.1 l 0.1,-0.15 0.05,-0.1 0.1,-0.1 0.05,-0.1 0.05,-0.1 0.15,-0.1 0.1,-0.1 0.15,-0.15 0.2,-0.1 0.3,-0.1 0.25,-0.05 0.35,-0.05 v 0.05 h 0.4 0.1 l 1.15,-0.15 4.95,-0.15 8.75,-0.05 1.65,0.2 q 1.15,0.6 1.15,1.85 V 47 l 0.05,0.05 0.05,0.1 0.05,0.1 v 0.15 l 0.05,0.1 v 0.1 0.1 0.1 0.1 0.1 0.15 0.1 0.1 0.1 0.1 0.1 0.1 0.15 0.1 0.1 0.1 0.1 0.1 0.1 0.1 0.15 0.1 l 0.05,0.1 v 0.1 0.1 0.1 0.1 l 0.05,0.15 v 0.1 0.1 0.1 l 0.05,0.1 v 0.1 0.1 0.15 l 0.05,0.1 v 0.1 0.1 0.1 l 0.05,0.1 v 0.1 0.15 0.1 0.1 0.1 0.1 0.1 l 0.05,0.1 v 0.15 0.1 0.1 0.1 0.1 0.1 0.1 l 0.05,0.15 v 0.1 0.1 0.1 0.1 0.1 0.1 0.15 0.1 l 0.05,0.1 v 0.1 0.1 0.1 0.1 0.15 0.1 0.1 0.1 0.1 0.1 0.1 0.15 0.1 0.1 0.1 0.1 0.1 0.1 0.15 l -0.05,0.1 v 0.1 l -0.05,0.1 -0.05,0.1 -0.05,0.1 -0.05,0.1 -0.1,0.15 M 51.85,41.8 51.8,41.9 v 0.05 l -0.1,0.1 -0.05,0.1 -0.1,0.15 -0.1,0.1 -0.15,0.1 -0.1,0.1 -0.2,0.1 -0.25,0.1 -0.25,0.1 -0.6,0.05 V 43 l -0.2,0.05 h -0.1 l -0.25,0.05 -0.7,0.05 H 47.5 L 44.8,43.2 H 33.95 V 43.15 H 33.8 l -0.2,-0.1 -0.25,-0.1 -0.2,-0.1 -0.15,-0.1 -0.15,-0.1 -0.1,-0.1 -0.05,-0.15 -0.1,-0.1 -0.05,-0.1 -0.1,-0.1 V 42 l -0.1,-0.1 v -0.1 l -0.05,-0.05 -0.1,-0.1 -0.1,-0.1 V 41.4 L 32,41.3 31.95,41.2 V 41.1 L 31.9,41 31.85,40.9 31.8,40.8 31.75,40.65 31.7,40.55 v -0.1 -0.1 l -0.05,-0.1 v -0.1 L 31.6,40.05 V 39.9 39.8 39.7 39.6 39.5 l -0.05,-0.1 v -0.1 -0.15 -0.1 -0.1 l -0.05,-0.1 v -0.1 -0.1 -0.1 -0.15 -0.1 -0.1 -0.1 -0.1 -0.1 -0.1 -0.15 -0.1 -0.1 l -0.05,-0.1 v -0.1 -0.1 -0.1 -0.15 -0.1 -0.1 -0.1 -0.1 -0.1 -0.1 -0.15 -0.1 -0.1 -0.1 -0.1 -0.1 -0.1 -0.15 -0.1 -0.1 -0.1 -0.1 -0.1 -0.1 -0.15 -0.1 -0.1 -0.1 -0.1 -0.1 -0.1 -0.1 -0.15 -0.1 -0.1 -0.1 -0.1 -0.1 -0.1 -0.15 -0.1 -0.1 -0.1 -0.1 -0.1 -0.1 -0.15 -0.1 -0.1 -0.1 -0.1 -0.1 -0.1 -0.15 -0.1 -0.1 l 0.05,-0.1 0.05,-0.1 0.05,-0.1 v -0.1 l 0.1,-0.15 0.05,-0.1 0.1,-0.1 0.05,-0.1 0.05,-0.1 0.15,-0.1 0.1,-0.1 0.15,-0.15 0.2,-0.1 0.3,-0.1 0.25,-0.05 0.35,-0.05 v 0.05 h 0.4 0.1 l 1.15,-0.15 4.95,-0.15 8.75,-0.05 1.65,0.2 q 1.15,0.6 1.15,1.85 v 0.05 l 0.05,0.05 0.05,0.1 0.05,0.1 v 0.15 l 0.05,0.1 v 0.1 0.1 0.1 0.1 0.1 0.15 0.1 0.1 0.1 0.1 0.1 0.1 0.15 0.1 0.1 0.1 0.1 0.1 0.1 0.1 0.15 0.1 l 0.05,0.1 v 0.1 0.1 0.1 0.1 l 0.05,0.15 v 0.1 0.1 0.1 l 0.05,0.1 v 0.1 0.1 0.15 L 52,35.9 v 0.1 0.1 0.1 l 0.05,0.1 v 0.1 0.15 0.1 0.1 0.1 0.1 0.1 l 0.05,0.1 v 0.15 0.1 0.1 0.1 0.1 0.1 0.1 l 0.05,0.15 v 0.1 0.1 0.1 0.1 0.1 0.1 0.15 0.1 L 52.2,39 v 0.1 0.1 0.1 0.1 0.15 0.1 0.1 0.1 0.1 0.1 0.1 0.15 0.1 0.1 0.1 0.1 0.1 0.1 0.15 l -0.05,0.1 v 0.1 l -0.05,0.1 -0.05,0.1 -0.05,0.1 -0.05,0.1 -0.1,0.15 M 0.2,13.6 l 1.65,-0.2 8.75,0.05 4.95,0.15 1.15,0.15 h 0.1 0.4 V 13.7 l 0.35,0.05 0.25,0.05 0.3,0.1 0.2,0.1 0.15,0.15 0.1,0.1 0.15,0.1 0.05,0.1 0.05,0.1 0.1,0.1 0.05,0.1 0.1,0.15 V 15 l 0.05,0.1 0.05,0.1 0.05,0.1 v 0.1 0.1 0.15 0.1 0.1 0.1 0.1 0.1 0.1 0.15 0.1 0.1 0.1 0.1 0.1 0.1 0.15 0.1 0.1 0.1 0.1 0.1 0.1 0.15 0.1 0.1 0.1 0.1 0.1 0.1 0.1 0.15 0.1 0.1 0.1 0.1 0.1 0.1 0.15 0.1 0.1 0.1 0.1 0.1 0.1 0.15 0.1 0.1 0.1 0.1 0.1 0.1 0.15 0.1 0.1 0.1 l -0.05,0.1 v 0.1 0.1 0.15 0.1 0.1 0.1 0.1 0.1 0.1 0.15 0.1 0.1 0.1 l -0.05,0.1 v 0.1 0.1 0.15 0.1 l -0.05,0.1 v 0.1 0.1 0.1 0.1 V 24 L 19,24.1 v 0.1 l -0.05,0.1 v 0.1 0.1 l -0.05,0.1 -0.05,0.15 -0.05,0.1 -0.05,0.1 -0.05,0.1 v 0.1 l -0.05,0.1 -0.1,0.1 v 0.15 l -0.1,0.1 -0.1,0.1 -0.05,0.05 v 0.1 l -0.1,0.1 v 0.1 l -0.1,0.1 -0.05,0.1 -0.1,0.1 -0.05,0.15 -0.1,0.1 -0.15,0.1 -0.15,0.1 -0.2,0.1 -0.25,0.1 -0.2,0.1 H 16.7 v 0.05 H 5.85 L 3.15,27.1 H 2 L 1.3,27.05 1.05,27 H 0.95 L 0.75,26.95 V 26.9 l -0.6,-0.05 -0.25,-0.1 -0.25,-0.1 -0.2,-0.1 V 14.2 L 0.2,13.6 M 9.15,30.8 9.2,30.7 v -0.05 l 0.1,-0.1 0.05,-0.1 0.1,-0.15 0.1,-0.1 L 9.7,30.1 9.8,30 10,29.9 10.25,29.8 10.5,29.7 11.1,29.65 V 29.6 l 0.2,-0.05 h 0.1 l 0.25,-0.05 0.7,-0.05 h 1.15 l 2.7,-0.05 h 10.85 v 0.05 h 0.15 l 0.2,0.1 0.25,0.1 0.2,0.1 0.15,0.1 0.15,0.1 0.1,0.1 0.05,0.15 0.1,0.1 0.05,0.1 0.1,0.1 v 0.1 l 0.1,0.1 v 0.1 l 0.05,0.05 0.1,0.1 0.1,0.1 v 0.15 l 0.1,0.1 0.05,0.1 v 0.1 l 0.05,0.1 0.05,0.1 0.05,0.1 0.05,0.15 0.05,0.1 v 0.1 0.1 l 0.05,0.1 v 0.1 l 0.05,0.1 v 0.15 0.1 0.1 0.1 0.1 l 0.05,0.1 v 0.1 0.15 0.1 0.1 l 0.05,0.1 v 0.1 0.1 0.1 0.15 0.1 0.1 0.1 0.1 0.1 0.1 0.15 0.1 0.1 l 0.05,0.1 v 0.1 0.1 0.1 0.15 0.1 0.1 0.1 0.1 0.1 0.1 0.15 0.1 0.1 0.1 0.1 0.1 0.1 0.15 0.1 0.1 0.1 0.1 0.1 0.1 0.15 0.1 0.1 0.1 0.1 0.1 0.1 0.1 0.15 0.1 0.1 0.1 0.1 0.1 0.1 0.15 0.1 0.1 0.1 0.1 0.1 0.1 0.15 0.1 0.1 0.1 0.1 0.1 0.1 0.15 0.1 0.1 l -0.05,0.1 -0.05,0.1 -0.05,0.1 v 0.1 l -0.1,0.15 -0.05,0.1 -0.1,0.1 -0.05,0.1 -0.05,0.1 -0.15,0.1 -0.1,0.1 -0.15,0.15 -0.2,0.1 -0.3,0.1 -0.25,0.05 -0.35,0.05 V 42.8 h -0.4 -0.1 l -1.15,0.15 -4.95,0.15 -8.75,0.05 -1.65,-0.2 Q 9.4,42.35 9.4,41.1 V 41.05 L 9.35,41 9.3,40.9 9.25,40.8 V 40.65 L 9.2,40.55 v -0.1 -0.1 -0.1 -0.1 -0.1 -0.15 -0.1 -0.1 -0.1 -0.1 -0.1 -0.1 -0.15 -0.1 -0.1 -0.1 -0.1 -0.1 -0.1 -0.1 -0.15 -0.1 L 9.15,38.1 V 38 37.9 37.8 37.7 L 9.1,37.55 v -0.1 -0.1 -0.1 l -0.05,-0.1 v -0.1 -0.1 -0.15 L 9,36.7 V 36.6 36.5 36.4 L 8.95,36.3 v -0.1 -0.15 -0.1 -0.1 -0.1 -0.1 -0.1 L 8.9,35.45 V 35.3 35.2 35.1 35 34.9 34.8 34.7 L 8.85,34.55 v -0.1 -0.1 -0.1 -0.1 -0.1 -0.1 -0.15 -0.1 L 8.8,33.6 v -0.1 -0.1 -0.1 -0.1 -0.15 -0.1 -0.1 -0.1 -0.1 -0.1 -0.1 V 32.3 32.2 32.1 32 31.9 31.8 31.7 31.55 l 0.05,-0.1 v -0.1 L 8.9,31.25 8.95,31.15 9,31.05 9.05,30.95 9.15,30.8 M 3.85,29.65 5,29.8 h 0.1 0.4 v -0.05 l 0.35,0.05 0.25,0.05 0.3,0.1 0.2,0.1 0.15,0.15 0.1,0.1 0.15,0.1 0.05,0.1 0.05,0.1 0.1,0.1 0.05,0.1 0.1,0.15 v 0.1 l 0.05,0.1 0.05,0.1 0.05,0.1 v 0.1 0.1 0.15 0.1 0.1 0.1 0.1 0.1 0.1 0.15 0.1 0.1 0.1 0.1 0.1 0.1 0.15 0.1 0.1 0.1 0.1 0.1 0.1 0.15 0.1 0.1 0.1 0.1 0.1 0.1 0.1 0.15 0.1 0.1 0.1 0.1 0.1 0.1 0.15 0.1 0.1 0.1 0.1 0.1 0.1 0.15 0.1 0.1 0.1 0.1 0.1 0.1 0.15 0.1 0.1 0.1 l -0.05,0.1 v 0.1 0.1 0.15 0.1 0.1 0.1 0.1 0.1 0.1 0.15 0.1 0.1 0.1 l -0.05,0.1 v 0.1 0.1 0.15 0.1 l -0.05,0.1 v 0.1 0.1 0.1 0.1 0.15 l -0.05,0.1 v 0.1 l -0.05,0.1 v 0.1 0.1 L 7.2,40.65 7.15,40.8 7.1,40.9 7.05,41 7,41.1 v 0.1 l -0.05,0.1 -0.1,0.1 v 0.15 l -0.1,0.1 -0.1,0.1 -0.05,0.05 v 0.1 L 6.5,42 v 0.1 l -0.1,0.1 -0.05,0.1 -0.1,0.1 -0.05,0.15 -0.1,0.1 -0.15,0.1 -0.15,0.1 -0.2,0.1 -0.25,0.1 -0.2,0.1 H 5 V 43.2 H -0.55 V 29.5 l 4.4,0.15 M 0.2,45.1 l 1.65,-0.2 8.75,0.05 4.95,0.15 1.15,0.15 h 0.1 0.4 V 45.2 l 0.35,0.05 0.25,0.05 0.3,0.1 0.2,0.1 0.15,0.15 0.1,0.1 0.15,0.1 0.05,0.1 0.05,0.1 0.1,0.1 0.05,0.1 0.1,0.15 v 0.1 l 0.05,0.1 0.05,0.1 0.05,0.1 v 0.1 0.1 0.15 0.1 0.1 0.1 0.1 0.1 0.1 0.15 0.1 0.1 0.1 0.1 0.1 0.1 0.15 0.1 0.1 0.1 0.1 0.1 0.1 0.15 0.1 0.1 0.1 0.1 0.1 0.1 0.1 0.15 0.1 0.1 0.1 0.1 0.1 0.1 0.15 0.1 0.1 0.1 0.1 0.1 0.1 0.15 0.1 0.1 0.1 0.1 0.1 0.1 0.15 0.1 0.1 0.1 l -0.05,0.1 v 0.1 0.1 0.15 0.1 0.1 0.1 0.1 0.1 0.1 0.15 0.1 0.1 0.1 l -0.05,0.1 v 0.1 0.1 0.15 0.1 l -0.05,0.1 v 0.1 0.1 0.1 0.1 0.15 L 19,55.6 v 0.1 l -0.05,0.1 v 0.1 0.1 l -0.05,0.1 -0.05,0.15 -0.05,0.1 -0.05,0.1 -0.05,0.1 v 0.1 l -0.05,0.1 -0.1,0.1 V 57 l -0.1,0.1 -0.1,0.1 -0.05,0.05 v 0.1 l -0.1,0.1 v 0.1 l -0.1,0.1 -0.05,0.1 -0.1,0.1 L 17.9,58 H -0.55 V 45.7 L 0.2,45.1"
         fill="#767676"
         fill-rule="evenodd"
         stroke="none"
         id="path4" />
      <path
         d="M 47.2,11.65 Q 46.05,11.55 45.45,10.5 44.9,9.5 45.5,8.45 46,7.55 47.7,6.85 l 7,-2.6 q 2.4,-0.85 3.9,-0.7 1.35,0.1 1.9,0.95 0.35,0.55 0.15,2.15 -1.05,5.45 -3.4,10.55 l -0.8,1.25 q -0.75,0.55 -1.4,0.2 -0.5,-0.3 -0.6,-1.05 -0.1,-0.9 0.5,-2.7 l 1.7,-5.45 0.5,-2.15 -1.9,0.7 -1.9,0.65 Q 52.5,9 51.15,9.85 l -2.1,1.25 -1.85,0.55 m -23.9,21.1 q -0.7,0.8 -1.75,1.3 -1.7,0.9 -3.5,0.7 Q 16.15,34.5 14.7,33.2 13.1,31.5 13.1,29.25 V 29.2 H 10.9 9.5 V 29.15 L 9.2,29.05 8.85,28.9 8.55,28.7 8.35,28.6 8.2,28.45 8.05,28.3 7.95,28.15 7.8,28 V 27.9 L 7.65,27.7 7.6,27.55 V 27.4 27.25 L 7.5,27.1 V 27 26.85 26.65 26.5 26.35 26.2 L 7.6,26.1 V 25.95 L 7.65,25.8 7.7,25.6 7.8,25.45 7.95,25.3 8,25.2 8.15,25.05 8.3,24.9 8.5,24.75 8.7,24.55 8.95,24.4 9.3,24.35 9.5,24.3 h 0.45 v -0.1 h 0.05 0.2 0.2 l 7.2,0.1 h 0.55 11.65 q -0.3,-1.8 0.35,-2.8 0.7,-1.3 2.2,-1.3 1.8,-0.15 2.65,1.6 0.45,1.1 0.2,2.5 h 0.05 l 8.1,0.05 2.85,0.05 h 7.65 0.5 l 0.25,0.15 0.35,0.15 0.3,0.15 0.2,0.15 0.15,0.1 0.15,0.15 0.05,0.2 0.05,0.15 0.1,0.15 0.05,0.15 0.1,0.1 v 0.15 l 0.05,0.15 0.05,0.2 v 0.15 0.15 0.1 l -0.05,0.15 v 0.15 l -0.05,0.15 v 0.2 l -0.15,0.15 v 0.1 l -0.15,0.15 -0.05,0.15 -0.15,0.15 -0.15,0.1 -0.2,0.25 -0.15,0.1 -0.35,0.15 -0.2,0.05 -0.2,0.1 v 0.05 H 53.4 51.35 q -0.05,2.15 -1.3,3.7 l -1.7,1.3 v 0.05 l -0.8,-0.45 -2,-1.2 q -1.1,-0.5 -2.5,-0.7 l -2.75,-0.4 q -0.4,-1 -0.4,-2.1 v -0.1 H 35.25 24.6 q -0.05,2.05 -1.3,3.6 m 13,7.6 q -2.45,-0.5 -7.05,0.05 l -5.6,0.75 -2.15,0.9 q -1.2,0.85 -1.6,0.9 -0.7,0.15 -1.3,-0.45 -0.65,-0.65 -0.45,-1.4 0.15,-0.55 1.2,-1.45 1.5,-1.2 3.45,-2.1 l 2.7,-1.15 2.65,-1.2 0.65,-0.2 0.15,-1.05 q 0.2,-1.2 0.55,-1.7 0.65,-1 1.8,-1.1 1.25,-0.1 1.9,0.9 0.4,0.75 0.4,1.8 v 0.35 l 4.2,-0.25 q 2.35,0.15 4.35,0.8 l 2.95,1.45 q 1.1,0.8 1.55,1.65 0.45,0.9 0.3,1.95 -0.05,1.1 -0.75,1.85 -1.4,1.75 -3.7,1.25 -0.55,-0.05 -2.2,-1.05 -1.65,-1.05 -4,-1.5 M 16.7,11.65 14.85,11.1 12.75,9.85 10.55,8.65 8.65,8 6.75,7.3 l 0.5,2.15 1.7,5.45 q 0.6,1.8 0.5,2.7 -0.1,0.75 -0.6,1.05 Q 8.2,19 7.45,18.45 L 6.65,17.2 Q 4.3,12.1 3.25,6.65 3.05,5.05 3.4,4.5 3.95,3.65 5.3,3.55 6.8,3.4 9.2,4.25 q 3.1,1 7,2.6 1.7,0.7 2.2,1.6 0.6,1.05 0.05,2.05 -0.6,1.05 -1.75,1.15"
         fill="#000000"
         fill-rule="evenodd"
         stroke="none"
         id="path5" />
    </g>
    <g
       id="shape2"
       transform="translate(1.5,1.5)">
      <path
         d="M 0,23.8 V 0 H 64.1 V 23.8 57.55 H 0 Z"
         fill="none"
         stroke="#000000"
         stroke-linecap="round"
         stroke-linejoin="round"
         stroke-width="3"
         id="path6" />
    </g>
  </defs>
</svg>
