<?xml version="1.0" encoding="UTF-8" standalone="no"?>
<svg
   ffdec:objectType="frame"
   height="60.549999"
   width="67.099998"
   version="1.1"
   id="svg9"
   sodipodi:docname="552.svg"
   xmlns:inkscape="http://www.inkscape.org/namespaces/inkscape"
   xmlns:sodipodi="http://sodipodi.sourceforge.net/DTD/sodipodi-0.dtd"
   xmlns:xlink="http://www.w3.org/1999/xlink"
   xmlns="http://www.w3.org/2000/svg"
   xmlns:svg="http://www.w3.org/2000/svg"
   xmlns:ffdec="https://www.free-decompiler.com/flash">
  <sodipodi:namedview
     id="namedview9"
     pagecolor="#ffffff"
     bordercolor="#000000"
     borderopacity="0.25"
     inkscape:showpageshadow="2"
     inkscape:pageopacity="0.0"
     inkscape:pagecheckerboard="0"
     inkscape:deskcolor="#d1d1d1"
     fit-margin-top="5"
     fit-margin-left="5"
     fit-margin-right="5"
     fit-margin-bottom="5" />
  <g
     transform="translate(1.5,1.5)"
     id="g3">
    <use
       ffdec:characterId="516"
       height="57.549999"
       width="64.099998"
       xlink:href="#shape0"
       id="use1" />
    <use
       ffdec:characterId="1048"
       height="59.549999"
       transform="translate(-1,-1)"
       width="65.900002"
       xlink:href="#shape1"
       id="use2" />
    <use
       ffdec:characterId="518"
       height="60.549999"
       transform="translate(-1.5,-1.5)"
       width="67.099998"
       xlink:href="#shape2"
       id="use3" />
  </g>
  <defs
     id="defs9">
    <g
       id="shape0">
      <path
         d="M 53.6,0 H 64.1 V 57.55 H 53.6 28.25 0 V 0 H 28.25 53.6 V 57.55 0 M 28.25,0 V 57.55 0"
         fill="#ffffff"
         fill-rule="evenodd"
         stroke="none"
         id="path3" />
    </g>
    <g
       id="shape1"
       transform="translate(1,1)">
      <path
         d="M 37.55,0 H 63.9 V 3.05 L 62,3.95 q -8.65,4.95 -15.85,9.5 l -3,2 -2.3,-2.7 L 44.6,8.4 49.55,1.75 49.7,1.4 Q 49.7,1.05 49.2,1.15 49.05,1.2 49.2,0.6 49.35,0 47.45,1.75 L 45.15,3.8 Q 44.7,4.1 43.8,5 l -0.95,0.85 -6,4.55 L 34.3,9.55 33.4,9.3 34.85,6.7 35.9,4.5 l 0.65,-0.95 0.5,-1 0.4,-1.35 0.3,-0.7 L 37.55,0 M 63.9,9.7 v 3.9 l -6,0.35 -1.85,0.3 Q 59.85,12 63.9,9.7 m 0,7.25 v 2.65 l -7.15,-0.55 h -1.1 l 2.5,-0.55 3.55,-0.9 2.2,-0.65 m 0,11.9 v 0.95 l -0.05,-0.55 0.05,-0.4 m 0,13.5 v 2.7 L 63.6,44.9 q -1.7,-0.65 -3.55,-1.05 l -3.35,-0.55 -0.25,-0.05 6.7,-0.8 0.75,-0.1 m 0,6.3 V 53.5 L 58,49.6 56.1,48.35 62.05,48.7 63.9,48.65 m -4.75,8.9 h -14.3 v -0.7 L 44.35,55.8 42.85,52.35 42.2,51.3 40.65,48.6 40,47.4 l 0.1,-0.1 1.5,-1.4 3.65,2.45 7.6,4.85 6.2,4.3 0.1,0.05 m -16.9,0 H 0 V 0 h 36.8 l -0.1,0.05 -0.35,0.3 -0.85,0.5 -0.7,0.75 -5.2,5.75 -1,0.85 -0.2,0.35 -3.45,0.25 q -1.65,0.3 -3.8,1.3 -3.2,1.45 -5.9,3.45 l -1.7,-1.7 -3.5,-3.3 L 8.5,6.7 7.85,6.05 Q 7.35,5.75 7,6.05 6.6,6.3 6.7,6.85 l 0.3,0.8 4.25,8.85 0.2,0.35 Q 9.6,18.8 8.25,20.95 H 8.2 L 6.95,20.85 5.9,20.65 4.8,20.6 3.9,20.45 q -0.6,0 -0.8,0.4 -0.1,0.4 0.05,0.6 l 0.45,0.45 0.35,0.9 0.55,0.7 1.25,0.9 0.6,0.4 Q 5.1,28.25 6.15,31 6.5,32 7.2,32.6 7.95,33.3 8.85,33.2 10.3,33 10.8,31.1 l 0.2,-1.5 0.15,-1.55 q 0.3,-1.6 1.7,-3.75 3.8,-5.5 10.45,-8.45 2.3,-0.95 4.05,-1.1 l 4,0.55 q 4.05,0.9 5.65,2.45 l 1.1,1.4 -1.65,1.4 q -0.9,0.8 -1.25,1.45 -0.55,1.1 -0.15,1.9 0.6,1.2 2.25,1 0.9,-0.1 2.4,-1 l 0.4,-0.25 q 1.65,4.85 1.15,9 -0.35,3.05 -1.85,5.7 l -1,-0.25 q -1.2,0 -1.85,0.7 -0.85,0.9 -0.2,2.4 l 0.45,0.7 q -2.7,2.8 -6.3,4.05 -1.75,0.55 -2.9,0.5 L 26.2,46.3 h -1.45 q -1.1,0.2 -1.8,1.25 -0.65,1.05 -0.35,2.2 0.35,1.35 1.85,2.15 1.2,0.6 2.85,0.6 4.5,0.2 8.9,-2.35 l 0.9,1.4 1.05,1.55 3.2,3.6 0.9,0.85"
         fill="#999999"
         fill-rule="evenodd"
         stroke="none"
         id="path4" />
      <path
         d="m 36.8,0 0.35,-0.1 h 0.05 l 0.35,0.1 0.2,0.5 -0.3,0.7 -0.4,1.35 -0.5,1 -0.65,0.95 -1.05,2.2 -1.45,2.6 0.9,0.25 2.55,0.85 6,-4.55 L 43.8,5 q 0.9,-0.9 1.35,-1.2 l 2.3,-2.05 Q 49.35,0 49.2,0.6 q -0.15,0.6 0,0.55 0.5,-0.1 0.5,0.25 l -0.15,0.35 -4.95,6.65 -3.75,4.35 2.3,2.7 3,-2 Q 53.35,8.9 62,3.95 l 1.9,-0.9 V 9.7 q -4.05,2.3 -7.85,4.55 l 1.85,-0.3 6,-0.35 v 3.35 l -2.2,0.65 -3.55,0.9 -2.5,0.55 h 1.1 l 7.15,0.55 v 9.25 l -0.05,0.4 0.05,0.55 v 1.45 0.1 11 l -0.75,0.1 -6.7,0.8 0.25,0.05 3.35,0.55 q 1.85,0.4 3.55,1.05 l 0.3,0.15 v 3.6 l -1.85,0.05 -5.95,-0.35 1.9,1.25 5.9,3.9 v 4.7 h -3.75 l -1,-0.65 -0.1,-0.05 -6.2,-4.3 -7.6,-4.85 -3.65,-2.45 -1.5,1.4 -0.1,0.1 0.65,1.2 1.55,2.7 0.65,1.05 1.5,3.45 0.5,1.05 v 0.7 l -0.25,0.4 -0.4,0.25 h -0.8 l -0.15,-0.05 -1,-0.6 -0.9,-0.85 -3.2,-3.6 -1.05,-1.55 -0.9,-1.4 q -4.4,2.55 -8.9,2.35 -1.65,0 -2.85,-0.6 -1.5,-0.8 -1.85,-2.15 -0.3,-1.15 0.35,-2.2 0.7,-1.05 1.8,-1.25 h 1.45 l 1.4,0.15 q 1.15,0.05 2.9,-0.5 3.6,-1.25 6.3,-4.05 l -0.45,-0.7 q -0.65,-1.5 0.2,-2.4 0.65,-0.7 1.85,-0.7 l 1,0.25 q 1.5,-2.65 1.85,-5.7 0.5,-4.15 -1.15,-9 l -0.4,0.25 q -1.5,0.9 -2.4,1 -1.65,0.2 -2.25,-1 -0.4,-0.8 0.15,-1.9 0.35,-0.65 1.25,-1.45 L 38.1,19.15 37,17.75 Q 35.4,16.2 31.35,15.3 l -4,-0.55 q -1.75,0.15 -4.05,1.1 -6.65,2.95 -10.45,8.45 -1.4,2.15 -1.7,3.75 L 11,29.6 10.8,31.1 Q 10.3,33 8.85,33.2 7.95,33.3 7.2,32.6 6.5,32 6.15,31 5.1,28.25 6.35,24.8 L 5.75,24.4 4.5,23.5 3.95,22.8 3.6,21.9 3.15,21.45 Q 3,21.25 3.1,20.85 q 0.2,-0.4 0.8,-0.4 l 0.9,0.15 1.1,0.05 1.05,0.2 1.25,0.1 h 0.05 q 1.35,-2.15 3.2,-4.1 L 11.25,16.5 7,7.65 6.7,6.85 Q 6.6,6.3 7,6.05 q 0.35,-0.3 0.85,0 l 0.65,0.65 1.55,1.85 3.5,3.3 1.7,1.7 q 2.7,-2 5.9,-3.45 2.15,-1 3.8,-1.3 L 28.4,8.55 28.6,8.2 29.6,7.35 34.8,1.6 35.5,0.85 36.35,0.35 36.7,0.05 36.8,0"
         fill="#ffffff"
         fill-rule="evenodd"
         stroke="none"
         id="path5" />
      <path
         d="M 37.55,0 H 63.9 m -4.75,57.55 h -14.3 m -2.6,0 H 0 V 0 h 36.8"
         fill="none"
         stroke="#999999"
         stroke-linecap="round"
         stroke-linejoin="round"
         stroke-width="2"
         id="path6" />
      <path
         d="m 8.4,28.35 q 0.65,-4 2.8,-7.55 3.6,-5.75 9.3,-7.8 1.7,-0.6 3.55,-0.9 L 30,11.95 q 3.4,0.4 6.45,2.25 2.2,1.35 3.9,3.3 l 3.3,-1.2 3.55,-1.6 3.55,-1.6 3.05,-0.1 0.8,0.95 0.05,1.2 q -0.05,0.8 -0.75,1.7 l -3.3,3.85 -4.1,4.2 -2.55,2.65 -1.3,1.5 4.3,7.95 1.3,2.5 1.35,2.5 q 0.8,1.75 0.3,2.75 -0.3,0.7 -1.25,1 l -1.7,0.05 -1.55,-0.65 -1.45,-0.95 -2,-1.15 -1.7,-1 -0.1,0.15 Q 36.8,47 31.4,48.9 l -0.7,0.25 q -0.45,1.4 -0.75,3.4 l -0.55,4.15 -0.3,1.25 h -5.35 l -0.05,-0.1 -1.75,-0.2 q -1.1,-0.3 -1.6,0 l -0.3,0.3 h -5.1 l -0.25,-1 -1.1,-0.2 -0.6,1.2 H 0.6 V 33.4 l 0.35,-0.15 q 4.1,-1.45 5.8,-2.6 L 8.25,29.5 8.4,28.35 M 56.45,25.2 q 1.2,-1.4 2.2,-1.4 0.6,0 1.3,0.55 l 1.1,1 1.6,1.3 1.25,1.35 v 6.2 l -0.95,-0.05 q -0.8,-0.1 -1.35,-0.6 l -0.9,-1.3 Q 59.55,30.45 58.05,29 l -1.2,1.8 -1.1,1.3 q -0.8,0.65 -1.55,0.5 -1.25,-0.1 -1.95,-1.95 l -0.5,-1.35 -0.7,-1.25 -3.4,1.7 -1.15,0.15 q -0.4,-0.3 -0.3,-0.85 l 0.5,-0.85 1.75,-1.45 1.85,-1.4 q 0.85,-0.85 1.3,-1 1.15,-0.4 2.1,0.75 0.5,0.6 1,2.1 l 1.75,-2 m -43.8,4 1.2,1.35 1.35,1 1.65,0.45 q 3.4,0.35 5.8,-1.75 1.2,-1.05 1.8,-2.55 0.55,-1.55 0.35,-3.1 l -0.6,-1.85 q -0.6,-1.45 -1.6,-2.3 -0.9,-0.75 -2.05,-1.05 -2.9,-0.85 -5.1,0.45 -0.75,0.4 -1.5,1.15 l -0.8,0.9 q -0.9,1.2 -1.25,2.65 -0.3,1.55 0.05,2.95 l 0.7,1.7 M 13,24.95 13.2,23.7 q 0.15,-0.55 0.55,-0.95 l 0.8,-0.85 q 0.9,-0.7 2.1,-0.85 l 2.25,0.35 q 1.55,0.75 1.9,2.25 0.35,1.1 -0.1,2.5 l -0.4,0.95 q -0.9,1.7 -2.8,2.05 -1.9,0.3 -3.35,-0.95 Q 13.1,27.4 13,26.15 v -1.2"
         fill="#000000"
         fill-rule="evenodd"
         stroke="none"
         id="path7" />
      <path
         d="m 12.65,29.2 -0.7,-1.7 Q 11.6,26.1 11.9,24.55 12.25,23.1 13.15,21.9 l 0.8,-0.9 q 0.75,-0.75 1.5,-1.15 2.2,-1.3 5.1,-0.45 1.15,0.3 2.05,1.05 1,0.85 1.6,2.3 l 0.6,1.85 q 0.2,1.55 -0.35,3.1 -0.6,1.5 -1.8,2.55 -2.4,2.1 -5.8,1.75 l -1.65,-0.45 -1.35,-1 -1.2,-1.35 M 13,24.95 v 1.2 q 0.1,1.25 1.15,2.05 1.45,1.25 3.35,0.95 1.9,-0.35 2.8,-2.05 l 0.4,-0.95 q 0.45,-1.4 0.1,-2.5 -0.35,-1.5 -1.9,-2.25 l -2.25,-0.35 q -1.2,0.15 -2.1,0.85 l -0.8,0.85 q -0.4,0.4 -0.55,0.95 L 13,24.95"
         fill="#ffffff"
         fill-rule="evenodd"
         stroke="none"
         id="path8" />
    </g>
    <g
       id="shape2"
       transform="translate(1.5,1.5)">
      <path
         d="M 0,23.8 V 0 H 64.1 V 23.8 57.55 H 0 Z"
         fill="none"
         stroke="#000000"
         stroke-linecap="round"
         stroke-linejoin="round"
         stroke-width="3"
         id="path9" />
    </g>
  </defs>
</svg>
