<?xml version="1.0" encoding="UTF-8" standalone="no"?>
<svg
   ffdec:objectType="frame"
   height="60.950001"
   width="67.300003"
   version="1.1"
   id="svg8"
   sodipodi:docname="121.svg"
   xmlns:inkscape="http://www.inkscape.org/namespaces/inkscape"
   xmlns:sodipodi="http://sodipodi.sourceforge.net/DTD/sodipodi-0.dtd"
   xmlns:xlink="http://www.w3.org/1999/xlink"
   xmlns="http://www.w3.org/2000/svg"
   xmlns:svg="http://www.w3.org/2000/svg"
   xmlns:ffdec="https://www.free-decompiler.com/flash">
  <sodipodi:namedview
     id="namedview8"
     pagecolor="#ffffff"
     bordercolor="#000000"
     borderopacity="0.25"
     inkscape:showpageshadow="2"
     inkscape:pageopacity="0.0"
     inkscape:pagecheckerboard="0"
     inkscape:deskcolor="#d1d1d1"
     fit-margin-top="5"
     fit-margin-left="5"
     fit-margin-right="5"
     fit-margin-bottom="5" />
  <g
     transform="translate(1.5,1.9)"
     id="g3">
    <use
       ffdec:characterId="516"
       height="57.549999"
       width="64.099998"
       xlink:href="#shape0"
       id="use1" />
    <use
       ffdec:characterId="631"
       height="60.75"
       transform="translate(-0.4,-1.9)"
       width="66.199997"
       xlink:href="#shape1"
       id="use2" />
    <use
       ffdec:characterId="518"
       height="60.549999"
       transform="translate(-1.5,-1.5)"
       width="67.099998"
       xlink:href="#shape2"
       id="use3" />
  </g>
  <defs
     id="defs8">
    <g
       id="shape0">
      <path
         d="M 53.6,0 H 64.1 V 57.55 H 53.6 28.25 0 V 0 H 28.25 53.6 V 57.55 0 M 28.25,0 V 57.55 0"
         fill="#ffffff"
         fill-rule="evenodd"
         stroke="none"
         id="path3" />
    </g>
    <g
       id="shape1"
       transform="translate(0.4,1.9)">
      <path
         d="m 21.2,0 h 1.9 L 23,0.1 v 0.15 l -0.1,0.1 v 0.1 l -0.05,0.1 v 0.1 0.1 0.1 0.1 0.1 0.1 0.1 0.1 0.1 0.1 0.1 0.15 L 22.9,1.9 V 2 2.1 2.2 2.3 2.4 2.5 2.6 2.7 2.8 2.9 3 v 0.1 0.1 0.15 0.1 0.1 0.1 0.1 0.1 0.1 0.1 0.1 0.1 0.1 0.1 0.1 0.1 0.1 0.1 V 5 5.1 5.2 5.3 5.4 5.5 5.6 5.7 5.8 5.9 6 v 0.1 0.1 0.1 0.1 0.15 0.1 0.1 0.1 0.1 0.1 0.1 0.1 0.1 0.1 0.1 0.1 0.1 0.1 0.1 0.1 0.15 0.1 0.1 0.1 0.1 0.1 0.1 0.1 0.1 0.1 0.1 0.1 0.1 0.1 0.1 0.15 0.1 0.1 0.1 0.1 0.1 0.1 0.1 0.1 0.1 0.1 0.1 0.1 0.1 0.1 0.15 0.1 0.1 0.1 0.1 0.1 0.1 0.1 l -0.05,0.1 v 0.1 0.1 0.1 0.1 l -0.05,0.1 v 0.1 0.1 0.15 0.1 0.1 0.1 0.1 l -0.05,0.1 v 0.1 0.1 0.1 0.1 0.1 0.1 l -0.05,0.1 v 0.1 0.1 0.15 0.1 0.1 0.1 0.1 0.1 0.1 0.1 0.1 0.1 0.1 0.1 0.1 0.1 l -0.05,0.1 v 0.1 0.15 0.1 0.1 0.1 0.1 0.1 0.1 l -0.05,0.1 v 0.1 0.1 0.1 0.1 0.1 0.1 0.1 0.15 l 0.05,0.1 0.05,0.1 V 18 l 0.05,0.1 0.05,0.1 0.05,0.1 0.1,0.1 0.2,0.1 0.2,0.1 v 0.1 h 0.1 v -0.1 l 0.15,-0.05 0.1,-0.05 0.1,-0.05 0.1,-0.1 0.05,-0.1 L 24,18.1 24.05,18 24.1,17.9 24.15,17.8 v -0.1 l 0.05,-0.1 v -0.1 l 0.05,-0.1 V 17.3 17.2 17.1 L 24.2,17 v -0.1 l -0.05,-0.1 v -0.1 -0.1 -0.15 -0.1 -0.1 -0.1 -0.1 -0.1 -0.1 -0.1 l -0.05,-0.1 v -0.1 -0.1 -0.1 -0.1 -0.1 -0.1 -0.15 -0.1 -0.1 -0.1 -0.1 -0.1 -0.1 -0.1 L 24.05,14.1 V 14 13.9 13.8 13.7 13.6 13.5 L 24,13.35 v -0.1 -0.1 -0.1 -0.1 -0.1 -0.1 -0.1 l -0.05,-0.1 v -0.1 -0.1 -0.1 -0.1 L 23.9,12.05 V 11.95 11.85 11.7 11.6 11.5 11.4 11.3 11.2 11.1 11 10.9 10.8 10.7 10.6 10.5 10.4 10.3 10.15 10.05 9.95 9.85 9.75 9.65 9.55 9.45 9.35 9.25 9.15 9.05 8.95 8.85 8.75 8.65 8.5 8.4 8.3 8.2 8.1 8 7.9 7.8 7.7 7.6 7.5 7.4 7.3 7.2 7.1 6.95 6.85 6.75 6.65 6.55 6.45 6.35 6.25 6.15 6.05 5.95 5.85 5.75 5.65 5.55 5.4 5.3 5.2 5.1 5 4.9 4.8 4.7 4.6 4.5 4.4 4.3 4.2 4.1 4 3.9 3.75 3.65 3.55 3.45 3.35 3.25 3.15 3.05 2.95 2.85 2.75 2.65 2.55 2.45 2.35 2.2 2.1 2 1.9 L 23.95,1.8 V 1.7 1.6 1.5 1.4 1.3 1.2 1.1 1 0.9 0.8 L 24,0.7 24.05,0.55 V 0.45 L 24.1,0.35 24.05,0.25 24,0.15 V 0.05 L 23.95,0 h 5.4 l 0.05,0.1 v 0.15 0.1 0.1 0.1 0.1 0.1 0.1 0.1 0.1 0.1 0.1 0.1 0.1 0.1 0.1 V 1.8 1.9 2 2.1 2.2 2.3 2.4 2.5 2.6 l 0.05,0.1 v 0.1 0.1 0.1 0.1 0.1 0.15 0.1 0.1 0.1 0.1 0.1 0.1 0.1 0.1 0.1 0.1 0.1 0.1 0.1 0.1 0.1 V 5 5.1 5.2 5.3 5.4 5.5 5.6 5.7 5.8 5.9 6 v 0.1 0.1 0.1 0.1 0.15 0.1 0.1 0.1 0.1 0.1 0.1 0.1 0.1 0.1 0.1 0.1 0.1 0.1 0.1 0.1 0.15 0.1 0.1 0.1 0.1 0.1 0.1 0.1 0.1 0.1 0.1 0.1 0.1 0.1 0.1 0.15 0.1 0.1 0.1 0.1 0.1 0.1 0.1 0.1 0.1 0.1 0.1 0.1 0.1 0.1 0.15 0.1 0.1 0.1 0.1 0.1 0.1 0.1 0.1 0.1 0.1 0.1 0.1 0.1 0.1 0.1 0.15 0.1 0.1 0.1 0.1 0.1 0.1 0.1 0.1 0.1 0.1 0.1 0.1 0.1 l 0.05,0.1 v 0.15 0.1 l 0.05,0.1 v 0.1 0.1 0.1 0.1 l 0.05,0.1 v 0.1 0.1 0.1 0.1 0.1 0.1 0.1 l 0.05,0.1 v 0.15 0.1 0.1 0.1 0.1 0.1 0.1 0.1 0.1 0.1 0.1 0.1 l -0.05,0.1 0.05,0.1 0.2,0.1 0.15,-0.1 0.1,-0.1 v -0.1 l 0.05,-0.1 0.05,-0.1 v -0.1 -0.1 -0.1 -0.1 -0.1 -0.1 -0.1 -0.1 -0.1 V 16 15.9 15.8 15.7 15.6 15.5 15.4 15.3 15.2 l 0.05,-0.1 V 15 14.9 l 0.05,-0.1 v -0.1 -0.1 -0.1 -0.15 -0.1 l 0.05,-0.1 v -0.1 -0.1 -0.1 -0.1 l 0.05,-0.1 v -0.1 -0.1 -0.1 -0.1 -0.1 -0.1 -0.1 -0.15 l -0.05,-0.1 v -0.1 -0.1 -0.1 -0.1 -0.1 -0.1 -0.1 -0.1 -0.1 -0.1 -0.1 -0.1 -0.1 -0.1 -0.15 -0.1 -0.1 -0.1 -0.1 -0.1 -0.1 -0.1 -0.1 -0.1 -0.1 -0.1 V 9.95 9.85 9.75 9.6 9.5 9.4 9.3 9.2 9.1 9 8.9 8.8 8.7 8.6 8.5 8.4 8.3 8.2 8.05 7.95 7.85 7.75 7.65 7.55 7.45 7.35 7.25 7.15 7.05 6.95 6.85 6.75 6.65 6.55 6.4 6.3 6.2 6.1 6 5.9 5.8 5.7 5.6 5.5 5.4 5.3 5.2 5.1 5 4.85 4.75 4.65 4.55 4.45 4.35 4.25 4.15 4.05 3.95 3.85 3.75 3.65 3.55 3.45 3.35 3.2 3.1 3 2.9 2.8 L 30.4,2.7 V 2.6 2.5 2.4 2.3 2.2 2.1 2 1.9 1.8 1.65 1.55 1.45 1.35 1.25 1.15 1.05 0.95 0.85 0.75 0.65 0.55 0.45 0.35 0.25 0.1 L 30.45,0 h 8.15 l -0.1,0.1 -0.1,0.15 -0.05,0.1 -0.05,0.1 v 0.1 l -0.05,0.1 v 0.1 0.1 0.1 0.1 0.1 0.1 0.1 0.1 0.1 0.1 V 1.8 1.9 2 2.1 2.2 2.3 2.4 2.5 2.6 2.7 2.8 2.9 3 v 0.1 0.1 0.15 0.1 0.1 0.1 0.1 0.1 0.1 0.1 0.1 0.1 0.1 0.1 0.1 0.1 0.1 0.1 V 5 5.1 5.2 5.3 5.4 5.5 5.6 5.7 5.8 5.9 6 v 0.1 0.1 0.1 0.1 0.15 0.1 0.1 0.1 0.1 0.1 0.1 0.1 0.1 0.1 0.1 0.1 0.1 0.1 0.1 0.1 0.15 0.1 0.1 0.1 0.1 0.1 0.1 0.1 0.1 0.1 0.1 0.1 0.1 0.1 0.1 0.15 0.1 0.1 0.1 0.1 0.1 0.1 0.1 0.1 0.1 0.1 0.1 0.1 0.1 0.1 0.15 0.1 0.1 0.1 0.1 0.1 0.1 0.1 0.1 0.1 0.1 0.1 0.1 0.1 0.1 0.1 0.15 0.1 0.1 0.1 0.1 0.1 0.1 0.1 0.1 0.1 0.1 0.1 0.1 0.1 0.1 0.15 0.1 0.1 0.1 0.1 0.1 0.1 0.1 0.1 0.1 0.1 0.1 0.1 l 0.05,0.1 v 0.1 0.1 0.15 0.1 0.1 0.1 0.1 0.1 0.1 0.1 0.1 l 0.05,0.1 v 0.1 0.1 0.1 0.1 0.1 0.15 0.1 l 0.05,0.1 v 0.1 0.1 l 0.05,0.1 0.05,0.1 0.05,0.1 0.05,0.1 0.05,0.1 0.1,0.1 0.1,0.1 0.1,0.1 0.2,0.1 0.35,0.1 0.3,-0.1 0.25,-0.1 0.1,-0.1 0.1,-0.1 0.1,-0.1 0.05,-0.1 0.05,-0.1 0.05,-0.1 0.05,-0.1 0.05,-0.1 V 18 17.9 17.8 l 0.05,-0.1 v -0.15 -0.1 l 0.05,-0.1 v -0.1 -0.1 -0.1 -0.1 -0.1 -0.1 -0.1 -0.1 -0.1 -0.1 -0.1 -0.1 V 16 15.9 15.8 15.7 l 0.05,-0.1 v -0.1 -0.1 -0.1 -0.1 -0.1 -0.1 -0.1 -0.1 -0.1 -0.1 -0.1 -0.15 -0.1 -0.1 -0.1 -0.1 -0.1 -0.1 -0.1 -0.1 -0.1 -0.1 -0.1 -0.1 -0.1 -0.1 -0.15 -0.1 -0.1 -0.1 -0.1 -0.1 -0.1 -0.1 -0.1 -0.1 -0.1 -0.1 -0.1 -0.1 -0.1 -0.1 -0.15 -0.1 -0.1 -0.1 -0.1 -0.1 -0.1 -0.1 -0.1 -0.1 -0.1 -0.1 V 9.95 9.85 9.75 9.6 9.5 9.4 9.3 9.2 9.1 9 8.9 8.8 L 40.8,8.7 V 8.6 8.5 8.4 8.3 8.2 8.05 7.95 7.85 7.75 7.65 7.55 7.45 7.35 7.25 7.15 7.05 6.95 6.85 6.75 6.65 6.55 6.4 6.3 6.2 6.1 6 5.9 5.8 5.7 5.6 5.5 5.4 5.3 5.2 5.1 5 4.85 4.75 4.65 4.55 4.45 4.35 4.25 4.15 4.05 3.95 3.85 3.75 3.65 3.55 3.45 3.35 3.2 3.1 3 2.9 2.8 2.7 2.6 2.5 2.4 2.3 2.2 2.1 2 1.9 1.8 1.65 1.55 1.45 1.35 1.25 1.15 1.05 0.95 L 40.75,0.85 V 0.75 0.65 L 40.7,0.55 V 0.45 L 40.6,0.35 V 0.25 L 40.5,0.1 40.45,0 H 51.1 L 51,0.05 50.9,0.15 50.8,0.25 50.75,0.35 50.7,0.45 50.6,0.5 50.45,0.6 50.35,0.7 50.3,0.8 50.25,0.9 V 1 L 50.2,1.1 v 0.15 0.1 0.1 l -0.05,0.1 0.05,0.1 v 0.1 0.1 0.1 0.1 0.1 0.1 0.1 0.1 0.1 0.1 0.1 V 2.9 3 3.1 3.2 3.3 3.4 3.5 3.6 3.7 3.8 3.9 4 v 0.1 0.1 0.1 0.15 0.1 0.1 0.1 0.1 0.1 0.1 0.1 0.1 0.1 l -0.05,0.1 v 0.1 0.1 0.1 0.1 V 6 6.1 6.2 6.3 6.4 6.5 6.6 6.7 6.8 6.9 7 v 0.1 0.1 0.1 0.1 0.1 0.15 0.1 0.1 0.1 0.1 0.1 0.1 l 0.05,0.1 v 0.1 0.1 0.1 0.1 0.1 0.1 0.1 0.15 0.1 0.1 0.1 0.1 0.1 0.1 0.1 0.1 0.1 l 0.05,0.1 v 0.1 0.1 l 0.05,0.1 v 0.1 0.1 0.15 l 0.05,0.1 v 0.1 l 0.05,0.1 v 0.1 l 0.1,0.1 0.1,0.1 0.1,0.1 0.25,0.05 h 0.15 l 0.1,-0.1 0.1,-0.1 0.1,-0.1 0.05,-0.1 0.05,-0.1 V 11 10.9 l 0.05,-0.1 v -0.1 l 0.05,-0.1 v -0.1 -0.1 -0.1 -0.15 l 0.05,-0.1 V 9.95 9.85 9.75 9.65 L 51.7,9.55 V 9.45 9.35 9.25 9.15 9.05 8.95 8.85 8.75 8.65 8.5 8.4 8.3 L 51.75,8.2 V 8.1 8 7.9 7.8 7.7 7.6 7.5 7.4 7.3 7.2 7.1 h 0.1 l 0.2,-0.15 0.1,-0.1 0.15,-0.1 0.05,-0.1 0.05,-0.1 0.05,-0.1 0.05,-0.1 0.05,-0.1 0.05,-0.1 V 6.05 5.95 5.85 5.75 5.65 5.55 5.4 5.3 5.2 5.1 5 4.9 4.8 4.7 4.6 4.5 4.4 4.3 L 52.55,4.2 V 4.1 4 3.9 L 52.5,3.75 V 3.65 3.55 3.45 L 52.45,3.35 V 3.25 3.15 L 52.4,3.05 V 2.95 L 52.35,2.85 V 2.75 L 52.3,2.65 V 2.55 2.45 2.35 2.2 2.1 2 1.9 1.8 1.7 1.6 1.5 1.4 1.3 1.2 1.1 1 0.9 0.8 0.7 0.55 L 52.25,0.45 52.2,0.35 52.15,0.25 52.05,0.15 51.95,0.05 51.85,0 H 65.8 v 38.8 h -1.7 l -0.05,-0.1 q -0.4,-0.85 -1.45,-1.35 -2.2,-1.25 -5.35,-1.15 -2.15,0.1 -5.5,0.95 l -3.1,0.55 -4.25,-0.5 -0.35,0.35 -1,1.05 -2.3,2.05 -1.2,0.65 -0.8,0.1 -0.65,-0.05 0.65,-0.75 0.1,-0.1 1.25,-0.9 1.2,-0.95 q 0.85,-0.75 1.3,-1.7 L 41.25,36.8 41,37.05 l -1.9,1.55 -1.5,1 -1.4,0.7 q -3.05,1.25 -6.75,1.35 l -2.05,-0.1 -1.6,-0.6 -1.25,-0.6 q -0.3,-0.2 -0.25,-0.4 0.05,-0.35 0.6,-0.1 l 1.3,0.1 4.9,-0.25 1.25,-0.15 q 2.5,-0.55 4.8,-1.75 l 1.75,-1 -2.65,0.2 0.6,-0.45 1.75,-1.5 1.05,-1.35 q 0.4,-0.75 0.6,-2.45 l -0.05,-0.4 -0.45,-0.05 -0.35,0.4 -2.75,3.1 -0.1,0.05 q -0.15,0.05 -0.95,0.6 -1.3,0.9 -4.5,1.95 L 30,37.2 H 28.8 L 27,37.1 26.65,37 l -0.4,-0.3 -0.3,0.05 -0.6,0.3 0.35,0.45 0.45,0.3 h 0.3 l 0.35,0.25 0.65,0.1 0.25,0.15 -2.7,0.1 -5.55,-0.35 v -0.5 L 19.2,37.25 16.25,35.1 15.65,34.55 15.4,34.3 q -0.15,-0.1 -0.35,0.1 L 15,34.8 q 0,0.55 0.3,1 0.55,1.1 1.4,1.75 l 0.35,0.3 -4,-0.25 q -4,-0.1 -7.45,1.05 L 4.9,38.25 3.25,37.95 1.55,37.7 q -1,0 -1.5,0.55 L 0,38.3 V 0 h 20.05 v 0.1 0.15 0.1 0.1 0.1 0.1 0.1 0.1 0.1 l 0.05,0.1 v 0.1 0.1 0.1 0.1 0.1 0.1 0.15 L 20.05,1.9 V 2 2.1 2.2 2.3 2.4 2.5 2.6 2.7 2.8 2.9 3 v 0.1 0.1 0.15 0.1 0.1 0.1 0.1 0.1 0.1 0.1 0.1 0.1 0.1 0.1 0.1 0.1 0.1 0.1 L 20,5 V 5.1 5.2 L 19.95,5.3 V 5.4 5.5 5.6 5.7 5.8 5.9 6 6.1 6.2 6.3 L 19.9,6.4 v 0.15 l -0.05,0.1 v 0.1 0.1 l -0.05,0.1 v 0.1 0.1 0.1 0.1 0.1 0.1 0.1 0.1 0.1 0.1 l -0.05,0.1 V 8.2 L 19.7,8.3 V 8.4 8.5 8.6 8.7 L 19.65,8.8 V 8.9 L 19.6,9 v 0.1 0.1 0.1 0.1 l -0.05,0.1 v 0.1 0.15 0.1 0.1 0.1 0.1 0.1 0.1 0.1 0.1 0.1 0.1 0.1 0.1 0.1 l -0.05,0.1 v 0.15 0.1 0.1 0.1 0.1 0.1 0.1 0.1 0.1 0.1 0.1 0.1 0.1 l -0.05,0.1 v 0.1 0.1 0.15 0.1 0.1 0.1 l -0.05,0.1 v 0.1 0.1 0.1 0.1 0.1 0.1 l -0.05,0.1 v 0.1 0.1 0.1 0.15 0.1 0.1 0.1 l -0.05,0.1 v 0.1 0.1 0.1 0.1 0.1 0.1 0.1 0.1 0.1 0.1 0.1 0.15 0.1 0.1 0.1 0.1 l -0.05,0.1 v 0.1 0.1 0.1 0.1 0.1 0.1 0.1 0.1 0.1 0.15 0.1 0.1 0.1 0.1 0.1 0.1 0.1 0.1 0.1 0.1 0.1 0.1 0.1 l 0.05,0.1 v 0.15 0.1 0.1 l 0.05,0.1 v 0.1 0.1 l 0.05,0.1 v 0.1 l 0.05,0.1 0.05,0.1 0.05,0.1 0.05,0.1 0.1,0.1 0.1,0.1 0.15,0.1 0.2,0.1 0.2,0.1 0.3,0.05 0.25,-0.05 0.25,-0.1 0.15,-0.1 0.2,-0.1 0.1,-0.1 0.05,-0.1 0.05,-0.1 0.1,-0.1 v -0.1 l 0.1,-0.1 v -0.1 -0.1 l 0.05,-0.1 v -0.1 -0.1 L 22,19.35 V 19.25 19.1 19 l 0.05,-0.1 v -0.1 -0.1 -0.1 -0.1 -0.1 -0.1 -0.1 -0.1 -0.1 -0.1 -0.1 -0.1 -0.15 -0.1 -0.1 -0.1 -0.1 -0.1 -0.1 -0.1 -0.1 -0.1 L 22,16.55 v -0.1 -0.1 -0.1 -0.1 V 16 15.9 15.8 15.7 15.6 15.5 15.4 15.3 15.2 15.1 15 14.9 l -0.05,-0.1 v -0.1 -0.1 -0.1 -0.15 -0.1 -0.1 -0.1 l -0.05,-0.1 v -0.1 -0.1 -0.1 -0.1 -0.1 -0.1 l -0.05,-0.1 v -0.1 -0.1 -0.1 -0.15 -0.1 L 21.8,12.6 V 12.5 12.4 12.3 12.2 12.1 12 11.9 11.8 11.7 11.6 11.5 11.4 11.3 11.15 l -0.05,-0.1 v -0.1 -0.1 -0.1 -0.1 -0.1 -0.1 -0.1 -0.1 -0.1 -0.1 V 9.95 9.85 9.75 9.6 9.5 L 21.7,9.4 V 9.3 9.2 9.1 L 21.65,9 V 8.9 L 21.6,8.8 V 8.7 8.6 8.5 8.4 L 21.55,8.3 V 8.2 8.05 L 21.5,7.95 V 7.85 7.75 7.65 7.55 7.45 7.35 7.25 7.15 7.05 6.95 L 21.45,6.85 V 6.75 L 21.4,6.65 V 6.55 6.4 L 21.35,6.3 V 6.2 6.1 6 5.9 5.8 5.7 5.6 5.5 5.4 5.3 L 21.3,5.2 V 5.1 5 L 21.25,4.85 V 4.75 4.65 4.55 4.45 4.35 4.25 4.15 4.05 3.95 3.85 3.75 3.65 3.55 3.45 3.35 3.2 3.1 3 2.9 2.8 2.7 2.6 2.5 2.4 2.3 2.2 2.1 2 L 21.2,1.9 V 1.8 1.65 1.55 1.45 1.35 1.25 1.15 1.05 0.95 l 0.05,-0.1 V 0.75 0.65 0.55 0.45 0.35 0.25 0.1 L 21.2,0 m -3.6,33 0.45,1.05 0.55,0.9 1.3,1 0.9,0.55 1,-0.05 q 0.6,-0.35 0.35,-0.9 -0.1,-0.25 -0.95,-0.6 l -0.95,-0.6 -0.95,-0.6 -0.6,-0.4 -0.4,-0.7 q -0.1,-0.15 -0.35,-0.2 l -0.35,0.1 V 33 M 15.15,21.5 v 0.05 h -0.3 l -0.1,0.1 -0.1,0.1 -0.05,0.15 V 22 l -0.05,0.1 v 0.1 l -0.05,0.1 v 0.1 0.1 0.1 0.1 0.1 0.1 0.1 l -0.05,0.1 v 0.1 0.1 0.1 0.15 0.1 0.1 0.1 0.1 0.1 0.1 0.1 0.1 0.1 0.1 0.1 0.1 0.1 0.1 0.15 0.1 l -0.05,0.1 v 0.1 0.1 l -0.05,0.1 v 0.1 l -0.05,0.1 v 0.1 0.1 l -0.05,0.1 v 0.1 l -0.05,0.1 v 0.1 0.1 0.1 0.15 0.1 l -0.05,0.1 v 0.1 0.1 l -0.05,0.1 v 0.1 0.1 0.1 0.1 0.1 0.1 0.1 l -0.05,0.1 v 0.1 0.15 L 14,28.4 v 0.1 0.1 l 0.05,0.1 v 0.1 0.1 0.1 0.1 l 0.05,0.1 v 0.1 0.1 l 0.05,0.1 0.05,0.1 0.05,0.1 0.05,0.15 0.1,0.1 0.05,0.1 0.1,0.1 0.15,0.1 0.15,0.1 0.3,0.05 0.25,-0.05 0.2,-0.1 0.1,-0.1 0.1,-0.1 0.1,-0.1 0.05,-0.1 0.1,-0.15 v -0.1 l 0.05,-0.1 0.1,-0.1 V 29.3 29.2 29.1 L 16.25,29 v -0.1 -0.1 -0.1 -0.1 l 0.05,-0.1 -0.05,-0.1 v -0.1 -0.15 l -0.05,-0.1 v -0.1 -0.1 -0.1 -0.1 -0.1 -0.1 -0.1 l -0.05,-0.1 v -0.1 -0.1 l -0.05,-0.1 v -0.1 -0.1 -0.15 L 16.05,26.5 V 26.4 26.3 26.2 L 16,26.1 V 26 L 15.95,25.9 V 25.8 25.7 L 15.9,25.6 v -0.1 l -0.05,-0.1 v -0.1 -0.1 -0.1 -0.15 -0.1 -0.1 -0.1 -0.1 -0.1 -0.1 -0.1 -0.1 -0.1 -0.1 -0.1 -0.1 -0.1 -0.1 -0.15 -0.1 -0.1 L 15.8,23.1 V 23 22.9 22.8 22.7 22.6 L 15.75,22.5 V 22.4 22.3 22.2 L 15.7,22.1 V 22 l -0.05,-0.1 -0.05,-0.15 -0.1,-0.1 -0.1,-0.1 -0.25,-0.05 m -2.6,5.05 v -0.1 -0.1 -0.1 -0.1 -0.1 -0.1 -0.1 -0.1 -0.1 -0.15 -0.1 -0.1 -0.1 -0.1 -0.1 -0.1 -0.1 -0.1 -0.1 -0.1 -0.1 -0.1 -0.1 -0.1 -0.15 -0.1 -0.1 -0.1 -0.1 -0.1 -0.1 -0.1 -0.1 -0.1 -0.1 -0.1 -0.1 -0.1 -0.1 -0.1 L 12.5,22.3 V 22.2 L 12.45,22.1 12.4,22 V 21.9 21.8 21.7 21.6 21.5 21.4 21.3 L 12.35,21.2 12.3,21.1 V 21 20.9 l -0.05,-0.15 v -0.1 -0.1 l 0.05,-0.1 -0.05,-0.1 v -0.1 -0.1 -0.1 -0.1 -0.1 -0.1 -0.1 -0.1 -0.1 l -0.05,-0.1 v -0.1 L 12.15,19.1 12.1,19 V 18.9 18.8 18.7 18.6 18.5 18.4 18.3 18.2 18.1 18 l -0.05,-0.1 v -0.1 -0.1 -0.15 -0.1 -0.1 -0.1 -0.1 -0.1 -0.1 -0.1 -0.1 -0.1 -0.1 l -0.05,-0.1 -0.05,-0.1 -0.1,-0.1 h -0.1 l -0.1,0.1 v 0.1 0.15 0.1 0.1 0.1 0.1 0.1 0.1 0.1 0.1 0.1 l -0.05,0.1 0.05,0.1 v 0.1 L 11.6,17.9 V 18 l -0.05,0.1 v 0.15 0.1 l 0.05,0.1 v 0.1 l -0.05,0.1 v 0.1 0.1 0.1 0.1 l -0.05,0.1 -0.05,0.1 v 0.1 0.1 0.1 0.1 0.15 0.1 0.1 0.1 0.1 0.1 l -0.05,0.1 v 0.1 l 0.05,0.1 v 0.1 0.1 L 11.4,20.9 11.35,21 11.3,21.1 v 0.1 0.1 0.15 0.1 l -0.05,0.1 v 0.1 0.1 0.1 l -0.05,0.1 v 0.1 0.1 l -0.05,0.1 v 0.1 0.1 0.1 0.1 0.1 0.15 0.1 0.1 0.1 0.1 0.1 0.1 0.1 0.1 0.1 0.1 l -0.05,0.1 v 0.1 0.1 0.1 0.15 l 0.05,0.1 v 0.1 0.1 0.1 0.1 0.1 0.1 l -0.05,0.1 v 0.1 0.1 0.1 0.1 0.1 0.1 0.1 0.15 0.1 0.1 0.1 l 0.05,0.1 v 0.05 l -0.05,0.1 v 0.1 0.1 l -0.05,0.1 -0.05,0.15 -0.05,0.1 -0.05,0.1 v 0.1 0.1 0.1 l -0.1,0.1 -0.05,0.1 V 28 l -0.05,0.1 -0.05,0.1 v 0.1 0.1 0.1 l -0.05,0.1 v 0.1 0.15 0.1 0.1 0.1 0.1 0.1 0.1 0.1 0.1 0.1 0.1 0.1 0.1 0.1 0.1 0.15 0.1 0.1 0.1 0.1 0.1 l 0.05,0.1 v 0.1 0.1 l 0.05,0.1 0.05,0.1 v 0.1 l 0.1,0.1 0.05,0.1 0.1,0.1 0.1,0.1 0.1,0.15 0.25,0.1 0.4,0.05 0.35,-0.05 0.2,-0.1 0.15,-0.15 0.1,-0.1 0.1,-0.1 0.1,-0.1 v -0.1 l 0.1,-0.1 V 31.3 L 13,31.2 13.05,31.1 V 31 30.9 l 0.05,-0.1 v -0.1 -0.1 -0.1 -0.1 -0.15 -0.1 -0.1 -0.1 -0.1 -0.1 -0.1 -0.1 -0.1 -0.1 -0.1 -0.1 -0.1 -0.1 -0.1 -0.15 -0.1 L 13.05,28.5 V 28.4 L 13,28.3 12.95,28.2 V 28.1 L 12.9,28 12.85,27.9 V 27.8 L 12.8,27.7 12.75,27.6 V 27.5 27.4 L 12.7,27.3 12.65,27.2 12.6,27.05 v -0.1 l -0.05,-0.1 v -0.1 -0.1 -0.1 M 15.7,2.85 V 2.9 h -0.2 l -0.1,0.05 -0.1,0.1 -0.05,0.1 v 0.1 l -0.05,0.1 v 0.1 0.1 0.1 0.1 V 3.9 4 4.1 4.2 4.3 4.4 4.5 4.6 4.7 4.8 4.9 5 5.1 5.2 5.3 5.4 5.55 l -0.05,0.1 v 0.1 0.1 0.1 l -0.05,0.1 v 0.1 0.1 0.1 0.1 l -0.05,0.1 v 0.1 0.1 0.1 L 15,6.95 V 7.1 L 14.95,7.2 V 7.3 7.4 7.5 7.6 7.7 7.8 7.9 8 8.1 8.2 L 14.9,8.3 v 0.1 l -0.05,0.1 v 0.15 l -0.05,0.1 -0.05,0.1 v 0.1 0.1 0.1 0.1 l -0.05,0.1 v 0.1 0.1 l -0.05,0.1 v 0.1 0.1 0.1 0.1 0.1 L 14.6,10.3 v 0.1 l -0.05,0.1 v 0.1 0.1 0.1 0.1 0.1 l -0.05,0.1 v 0.1 0.1 0.1 l -0.05,0.1 v 0.1 l -0.05,0.1 v 0.15 0.1 0.1 l -0.05,0.1 v 0.1 0.1 0.1 0.1 0.1 l 0.05,0.1 v 0.1 0.1 0.1 0.1 0.1 0.1 0.15 0.1 l 0.05,0.1 0.05,0.1 v 0.1 l 0.05,0.1 v 0.1 l 0.05,0.1 0.05,0.1 0.05,0.1 0.1,0.1 0.05,0.1 0.15,0.1 0.1,0.1 0.25,0.1 0.35,0.1 0.25,-0.05 0.15,-0.05 0.2,-0.1 0.1,-0.1 0.1,-0.1 0.1,-0.1 0.1,-0.15 0.05,-0.1 v -0.1 l 0.05,-0.1 0.05,-0.1 v -0.1 l 0.05,-0.1 0.05,-0.1 v -0.1 -0.1 -0.1 L 17,13.25 v -0.1 -0.1 -0.1 -0.15 -0.1 l 0.05,-0.1 V 12.5 12.4 12.3 12.2 L 17,12.1 V 12 11.9 L 16.95,11.8 V 11.7 11.6 L 16.9,11.5 v -0.1 l -0.05,-0.1 v -0.15 -0.1 -0.1 -0.1 -0.1 -0.1 -0.1 l -0.05,-0.1 v -0.1 l -0.05,-0.1 v -0.1 -0.1 -0.1 -0.1 -0.1 L 16.7,9.6 V 9.5 9.4 L 16.65,9.3 V 9.2 L 16.6,9.1 V 9 8.9 8.8 L 16.55,8.7 16.5,8.6 V 8.5 8.4 L 16.45,8.3 V 8.2 8.05 L 16.4,7.95 V 7.85 7.75 7.65 7.55 7.45 7.35 7.25 7.15 7.05 L 16.35,6.95 V 6.85 L 16.3,6.75 V 6.65 6.55 6.4 6.3 6.2 6.1 L 16.25,6 V 5.9 5.8 5.7 L 16.2,5.6 V 5.5 5.4 5.3 5.2 5.1 5 4.85 4.75 4.65 4.55 4.45 4.35 4.25 4.15 4.05 3.95 3.85 3.75 3.65 3.55 3.45 L 16.15,3.35 V 3.2 L 16.1,3.1 16.05,3 15.9,2.9 15.7,2.85 M 27,3.8 v 0.05 h -0.1 l -0.1,0.05 -0.05,0.05 -0.1,0.1 v 0.1 0.1 l -0.05,0.1 v 0.1 0.1 l -0.05,0.1 V 4.75 4.85 5 5.1 5.2 L 26.5,5.3 v 0.1 0.1 0.1 0.1 0.1 0.1 0.1 0.1 0.1 0.1 0.1 0.15 0.1 0.1 0.1 0.1 0.1 0.1 0.1 0.1 0.1 0.1 0.1 0.1 0.1 0.1 0.1 0.15 L 26.45,8.3 V 8.4 8.5 8.6 8.7 8.8 L 26.4,8.9 V 9 9.1 9.2 l -0.05,0.1 v 0.1 0.1 0.1 0.15 0.1 0.1 0.1 l -0.05,0.1 v 0.1 0.1 l -0.05,0.1 v 0.1 0.1 l -0.05,0.1 v 0.1 0.1 0.1 l -0.05,0.1 v 0.15 l -0.05,0.1 v 0.1 0.1 0.1 0.1 0.1 0.1 0.1 0.1 0.1 0.1 0.1 0.1 l -0.05,0.1 v 0.1 0.15 0.1 L 26,13.15 v 0.1 0.1 0.1 0.1 0.1 0.1 0.1 0.1 0.1 l -0.05,0.1 v 0.1 0.1 0.15 0.1 0.1 0.1 l -0.05,0.1 v 0.1 0.1 0.1 0.1 0.1 0.1 0.1 0.1 0.1 0.1 0.1 0.15 0.1 0.1 0.1 0.1 0.1 l -0.05,0.1 v 0.1 0.1 0.1 0.1 0.1 0.1 0.1 0.1 0.15 0.1 l -0.05,0.1 v 0.1 0.1 0.1 0.1 0.1 0.1 0.1 0.1 0.1 0.1 0.1 0.1 0.15 0.1 0.1 0.1 0.1 0.1 0.1 0.1 0.1 0.1 l -0.05,0.1 v 0.1 0.1 0.1 0.1 0.1 0.15 0.1 0.1 0.1 0.1 0.1 0.1 0.1 0.1 0.1 l 0.05,0.1 v 0.1 0.1 0.1 0.1 0.15 0.1 0.1 l 0.05,0.1 v 0.1 l 0.05,0.1 v 0.1 l 0.05,0.1 0.05,0.1 v 0.1 l 0.05,0.1 0.05,0.1 v 0.1 l 0.1,0.1 0.05,0.1 0.05,0.1 0.05,0.15 0.1,0.1 0.1,0.1 0.2,0.1 0.25,0.05 0.2,-0.05 h 0.1 l 0.1,-0.1 0.15,-0.1 0.05,-0.1 0.05,-0.1 0.1,-0.1 0.05,-0.1 0.05,-0.1 0.05,-0.1 0.05,-0.1 0.05,-0.1 v -0.1 l 0.05,-0.1 0.05,-0.1 V 23 l 0.05,-0.15 0.05,-0.1 v -0.1 -0.1 -0.1 -0.1 l 0.05,-0.1 v -0.1 -0.1 -0.1 -0.1 l 0.05,-0.1 v -0.1 -0.1 -0.1 V 21.3 21.2 21.1 21 20.9 20.8 20.7 20.6 20.5 20.4 20.3 l -0.05,-0.1 v -0.1 -0.1 -0.1 -0.1 -0.15 -0.1 -0.1 -0.1 -0.1 -0.1 -0.1 l -0.05,-0.1 v -0.1 -0.1 -0.1 -0.1 -0.1 -0.1 -0.1 V 18.1 18 17.9 17.8 17.7 17.6 17.5 17.4 17.3 17.2 17.1 17 16.9 l -0.05,-0.1 v -0.1 -0.1 -0.15 -0.1 -0.1 -0.1 -0.1 -0.1 -0.1 -0.1 l -0.05,-0.1 v -0.1 -0.1 -0.1 -0.1 -0.1 -0.1 -0.15 -0.1 -0.1 -0.1 -0.1 -0.1 -0.1 -0.1 L 28.05,14.1 V 14 13.9 13.8 13.7 L 28,13.6 v -0.1 -0.15 -0.1 -0.1 -0.1 -0.1 -0.1 -0.1 l -0.05,-0.1 v -0.1 -0.1 -0.1 -0.1 l -0.05,-0.1 v -0.1 -0.1 -0.1 -0.15 -0.1 -0.1 -0.1 -0.1 -0.1 L 27.85,11.1 V 11 L 27.8,10.9 V 10.8 L 27.75,10.7 V 10.6 10.5 10.4 10.3 L 27.7,10.15 v -0.1 -0.1 -0.1 L 27.65,9.75 V 9.65 9.55 9.45 9.35 9.25 9.15 9.05 L 27.6,8.95 V 8.85 8.75 L 27.55,8.65 V 8.5 8.4 8.3 8.2 8.1 8 7.9 7.8 7.7 7.6 7.5 7.4 7.3 7.2 7.1 6.95 6.85 6.75 6.65 6.55 6.45 6.35 6.25 6.15 6.05 5.95 5.85 5.75 5.65 5.55 5.4 L 27.5,5.3 V 5.2 5.1 L 27.45,5 V 4.9 4.8 4.7 4.6 4.5 4.4 L 27.4,4.3 27.35,4.2 V 4.1 L 27.3,4 27.2,3.9 27,3.8 M 32.75,0.2 V 0.25 H 32.5 32.4 l -0.1,0.1 -0.15,0.1 -0.1,0.1 -0.1,0.1 -0.05,0.1 -0.05,0.1 v 0.1 0.1 0.1 0.1 0.1 l -0.05,0.1 v 0.1 l -0.05,0.1 V 1.8 1.9 2 2.1 2.2 2.3 2.4 2.5 2.6 2.7 2.8 2.9 3 v 0.1 0.1 0.15 0.1 0.1 0.1 0.1 0.1 0.1 0.1 0.1 0.1 0.1 0.1 0.1 0.1 0.1 0.1 V 5 5.1 5.2 5.3 5.4 5.5 5.6 5.7 5.8 5.9 6 v 0.1 0.1 0.1 0.1 0.15 0.1 0.1 0.1 0.1 0.1 0.1 0.1 0.1 0.1 0.1 0.1 0.1 0.1 0.1 0.1 0.15 0.1 0.1 0.1 0.1 0.1 0.1 0.1 0.1 0.1 0.1 0.1 0.1 0.1 0.1 0.15 0.1 0.1 0.1 0.1 0.1 0.1 0.1 0.1 0.1 0.1 0.1 0.1 0.1 0.1 0.15 0.1 0.1 0.1 0.1 0.1 0.1 L 31.7,12 v 0.1 0.1 0.1 0.1 0.1 0.1 0.1 0.1 0.15 0.1 0.1 0.1 0.1 l -0.05,0.1 v 0.1 0.1 0.1 0.1 0.1 0.1 0.1 0.1 0.1 0.15 0.1 0.1 0.1 0.1 0.1 0.1 0.1 0.1 0.1 0.1 0.1 0.1 0.1 0.1 0.1 0.15 0.1 0.1 0.1 0.1 0.1 0.1 0.1 0.1 0.1 0.1 0.1 0.1 0.1 0.1 0.15 0.1 0.1 0.1 0.1 0.1 0.1 0.1 0.1 l 0.05,0.1 v 0.1 0.1 l 0.05,0.1 v 0.1 0.1 l 0.05,0.15 0.05,0.1 0.1,0.1 0.05,0.1 0.1,0.1 0.1,0.1 0.1,0.1 0.15,0.1 0.3,0.05 h 0.2 l 0.1,-0.05 0.15,-0.05 0.1,-0.1 0.1,-0.15 0.1,-0.1 0.05,-0.1 0.05,-0.1 0.1,-0.1 0.05,-0.1 v -0.1 l 0.05,-0.1 v -0.1 l 0.05,-0.1 v -0.1 -0.1 -0.1 -0.1 -0.1 V 18.1 18 17.9 17.8 17.7 17.6 17.5 17.4 17.3 17.2 17.1 17 v -0.1 -0.1 -0.1 -0.1 -0.15 -0.1 -0.1 -0.1 -0.1 -0.1 -0.1 -0.1 -0.1 -0.1 -0.1 -0.1 -0.1 -0.1 -0.1 -0.15 -0.1 -0.1 -0.1 -0.1 -0.1 -0.1 -0.1 -0.1 -0.1 -0.1 -0.1 -0.1 -0.1 -0.1 -0.15 -0.1 -0.1 -0.1 -0.1 -0.1 -0.1 -0.1 -0.1 -0.1 -0.1 -0.1 -0.1 -0.1 L 33.8,11.95 V 11.85 11.7 11.6 11.5 11.4 11.3 11.2 11.1 11 10.9 10.8 10.7 10.6 10.5 10.4 10.3 10.15 10.05 9.95 9.85 9.75 9.65 9.55 9.45 9.35 9.25 9.15 9.05 8.95 8.85 8.75 8.65 8.5 8.4 8.3 8.2 8.1 8 7.9 7.8 7.7 7.6 7.5 7.4 7.3 7.2 7.1 6.95 6.85 6.75 6.65 6.55 6.45 6.35 6.25 6.15 6.05 5.95 5.85 5.75 5.65 5.55 5.4 5.3 5.2 5.1 5 4.9 4.8 4.7 4.6 4.5 4.4 4.3 4.2 4.1 4 3.9 3.75 3.65 3.55 3.45 3.35 3.25 3.15 3.05 2.95 2.85 2.75 2.65 2.55 L 33.75,2.45 V 2.35 2.2 2.1 2 1.9 1.8 1.7 1.6 1.5 L 33.7,1.4 V 1.3 1.2 L 33.65,1.1 V 1 L 33.6,0.9 V 0.8 L 33.55,0.7 33.5,0.55 33.4,0.45 33.3,0.35 33.05,0.25 32.75,0.2 M 43.1,26.2 42.7,26 q -0.2,0 -0.45,0.35 l -0.3,0.5 -0.7,1.8 q -0.3,0.8 -0.25,1.25 l 0.9,-0.45 0.4,-0.45 0.55,-0.85 0.3,-0.65 0.2,-0.75 -0.25,-0.55 m 5.4,-8.1 h -0.1 v 0.05 l -0.05,0.1 -0.15,0.1 -0.05,0.1 -0.05,0.1 -0.1,0.1 v 0.1 l -0.1,0.1 -0.05,0.1 -0.05,0.1 -0.05,0.1 v 0.1 l -0.05,0.1 v 0.1 l -0.05,0.1 v 0.1 0.15 0.1 0.1 0.1 0.1 0.1 0.1 0.1 0.1 0.1 0.1 0.1 0.1 0.1 0.1 0.1 0.15 0.1 0.1 0.1 0.1 0.1 0.1 0.1 0.1 0.1 0.1 0.1 0.1 0.1 l 0.05,0.1 v 0.15 0.1 0.1 0.1 0.1 0.1 0.1 0.1 0.1 0.1 0.1 0.1 0.1 l 0.05,0.1 v 0.1 0.15 0.1 0.1 0.1 0.1 0.1 0.1 0.1 0.1 l 0.05,0.1 v 0.1 0.1 0.1 0.1 0.1 0.1 l 0.05,0.15 v 0.1 0.1 l 0.05,0.1 0.05,0.1 0.05,0.1 0.05,0.1 v 0.1 l 0.05,0.1 0.1,0.1 0.25,0.1 0.2,-0.1 0.1,-0.1 0.1,-0.1 v -0.1 l 0.05,-0.1 0.05,-0.1 V 26.5 L 49,26.4 49.05,26.3 49.1,26.2 v -0.15 -0.1 -0.1 -0.1 -0.1 -0.1 -0.1 -0.1 l 0.05,-0.1 v -0.1 -0.1 -0.1 -0.1 -0.1 l 0.05,-0.1 V 24.55 24.4 24.3 24.2 24.1 24 23.9 23.8 23.7 23.6 23.5 23.4 23.3 23.2 23.1 23 22.85 l 0.05,-0.1 v -0.1 -0.1 -0.1 -0.1 -0.1 -0.1 -0.1 -0.1 -0.1 -0.1 -0.1 l 0.05,-0.1 V 21.45 21.3 21.2 21.1 21 20.9 20.8 20.7 20.6 20.5 20.4 20.3 20.2 20.1 20 l -0.05,-0.1 v -0.1 -0.15 l -0.05,-0.1 v -0.1 -0.1 -0.1 l -0.05,-0.1 -0.05,-0.1 -0.05,-0.1 -0.1,-0.1 v -0.1 l -0.1,-0.1 v -0.1 l -0.1,-0.1 -0.05,-0.1 -0.15,-0.1 L 48.5,18.1 M 44.45,0.15 V 0.2 h -0.2 L 44.1,0.25 44,0.35 43.9,0.45 43.8,0.55 V 0.7 L 43.75,0.8 V 0.9 L 43.7,1 V 1.1 1.2 L 43.65,1.3 V 1.4 1.5 1.6 1.7 1.8 1.9 L 43.6,2 v 0.1 0.1 0.15 0.1 l -0.05,0.1 v 0.1 0.1 0.1 0.1 0.1 0.1 0.1 0.1 0.1 0.1 0.1 0.1 V 3.9 4 4.1 4.2 4.3 4.4 4.5 4.6 4.7 4.8 4.9 5 v 0.1 0.1 0.1 0.1 0.15 0.1 0.1 0.1 0.1 0.1 0.1 0.1 0.1 0.1 0.1 0.1 0.1 0.1 0.1 0.15 0.1 0.1 0.1 0.1 0.1 0.1 0.1 0.1 0.1 0.1 0.1 0.1 0.1 0.1 0.15 0.1 0.1 l 0.05,0.1 v 0.1 0.1 0.1 0.1 0.1 0.1 0.1 l 0.05,0.1 v 0.1 0.1 0.1 0.1 0.15 0.1 0.1 0.1 0.1 0.1 l 0.05,0.1 v 0.1 0.1 0.1 l 0.05,0.1 v 0.1 0.1 0.1 l 0.05,0.1 v 0.15 0.1 0.1 0.1 0.1 l 0.05,0.1 v 0.1 l 0.05,0.1 v 0.1 l 0.05,0.1 0.05,0.1 v 0.1 l 0.1,0.1 0.1,0.1 0.1,0.1 0.15,0.1 0.15,-0.05 0.05,-0.05 0.1,-0.1 0.1,-0.1 0.05,-0.1 0.05,-0.15 0.05,-0.1 v -0.1 l 0.05,-0.1 V 12.4 L 45.1,12.3 V 12.2 12.1 12 l 0.05,-0.1 v -0.1 -0.1 l 0.05,-0.1 v -0.1 -0.1 -0.1 -0.15 -0.1 -0.1 -0.1 -0.1 l 0.05,-0.1 v -0.1 -0.1 -0.1 -0.1 l 0.05,-0.1 v -0.1 -0.1 -0.1 -0.1 L 45.35,9.6 V 9.5 9.4 9.3 9.2 9.1 9 8.9 8.8 8.7 8.6 8.5 8.4 8.3 8.2 8.05 7.95 7.85 7.75 7.65 7.55 7.45 7.35 7.25 7.15 7.05 6.95 6.85 6.75 6.65 6.55 6.4 6.3 6.2 6.1 6 5.9 5.8 5.7 5.6 5.5 5.4 5.3 5.2 5.1 5 4.85 4.75 4.65 4.55 4.45 4.35 4.25 4.15 4.05 3.95 3.85 3.75 3.65 3.55 3.45 3.35 3.2 3.1 3 2.9 2.8 2.7 2.6 2.5 2.4 2.3 2.2 2.1 2 L 45.3,1.9 V 1.8 1.65 L 45.25,1.55 V 1.45 1.35 L 45.2,1.25 V 1.15 1.05 0.95 0.85 L 45.15,0.75 45.1,0.65 45.05,0.55 45,0.45 44.9,0.35 44.75,0.25 44.45,0.15"
         fill="#999999"
         fill-rule="evenodd"
         stroke="none"
         id="path4" />
      <path
         d="m 20.05,0 0.05,-0.1 v -0.1 l 0.05,-0.1 0.1,-0.1 0.1,-0.1 0.3,-0.05 0.25,0.05 0.15,0.1 0.1,0.1 v 0.1 l 0.05,0.1 V 0 l 0.05,0.1 v 0.15 0.1 0.1 0.1 0.1 0.1 0.1 l -0.05,0.1 v 0.1 0.1 0.1 0.1 0.1 0.1 0.1 0.15 0.1 L 21.25,2 v 0.1 0.1 0.1 0.1 0.1 0.1 0.1 0.1 0.1 0.1 0.1 0.1 0.15 0.1 0.1 0.1 0.1 0.1 0.1 0.1 0.1 0.1 0.1 0.1 0.1 0.1 0.1 0.1 L 21.3,5 v 0.1 0.1 l 0.05,0.1 V 5.4 5.5 5.6 5.7 5.8 5.9 6 6.1 6.2 6.3 l 0.05,0.1 v 0.15 0.1 l 0.05,0.1 v 0.1 l 0.05,0.1 v 0.1 0.1 0.1 0.1 0.1 0.1 0.1 0.1 0.1 0.1 l 0.05,0.1 V 8.2 8.3 l 0.05,0.1 v 0.1 0.1 0.1 0.1 l 0.05,0.1 V 9 l 0.05,0.1 v 0.1 0.1 0.1 l 0.05,0.1 v 0.1 0.15 0.1 0.1 0.1 0.1 0.1 0.1 0.1 0.1 0.1 0.1 0.1 0.1 0.1 l 0.05,0.1 v 0.15 0.1 0.1 0.1 0.1 0.1 0.1 0.1 0.1 0.1 0.1 0.1 0.1 0.1 l 0.05,0.1 v 0.1 0.15 0.1 0.1 0.1 l 0.05,0.1 v 0.1 0.1 0.1 0.1 0.1 0.1 l 0.05,0.1 v 0.1 0.1 0.1 0.15 0.1 0.1 0.1 L 22,14.9 v 0.1 0.1 0.1 0.1 0.1 0.1 0.1 0.1 0.1 0.1 0.1 0.15 0.1 0.1 0.1 0.1 l 0.05,0.1 v 0.1 0.1 0.1 0.1 0.1 0.1 0.1 0.1 0.1 0.15 0.1 0.1 0.1 0.1 0.1 0.1 0.1 0.1 0.1 0.1 0.1 0.1 L 22,19 v 0.1 0.15 0.1 l -0.05,0.1 v 0.1 0.1 l -0.05,0.1 v 0.1 0.1 l -0.1,0.1 v 0.1 l -0.1,0.1 -0.05,0.1 -0.05,0.1 -0.1,0.1 -0.2,0.1 -0.15,0.1 -0.25,0.1 -0.25,0.05 -0.3,-0.05 -0.2,-0.1 -0.2,-0.1 -0.15,-0.1 -0.1,-0.1 -0.1,-0.1 -0.05,-0.1 -0.05,-0.1 -0.05,-0.1 -0.05,-0.1 v -0.1 l -0.05,-0.1 v -0.1 -0.1 l -0.05,-0.1 v -0.1 -0.1 -0.15 L 19.25,19 v -0.1 -0.1 -0.1 -0.1 -0.1 -0.1 -0.1 -0.1 -0.1 -0.1 -0.1 -0.1 -0.1 -0.15 -0.1 -0.1 -0.1 -0.1 -0.1 -0.1 -0.1 -0.1 -0.1 l 0.05,-0.1 v -0.1 -0.1 -0.1 -0.1 V 16 15.9 15.8 15.7 15.6 15.5 15.4 15.3 15.2 15.1 15 14.9 l 0.05,-0.1 v -0.1 -0.1 -0.1 -0.15 -0.1 -0.1 -0.1 l 0.05,-0.1 v -0.1 -0.1 -0.1 -0.1 -0.1 -0.1 l 0.05,-0.1 v -0.1 -0.1 -0.1 -0.15 -0.1 -0.1 L 19.5,12.5 V 12.4 12.3 12.2 12.1 12 11.9 11.8 11.7 11.6 11.5 11.4 11.3 11.15 l 0.05,-0.1 v -0.1 -0.1 -0.1 -0.1 -0.1 -0.1 -0.1 -0.1 -0.1 -0.1 V 9.95 9.85 9.75 9.6 9.5 L 19.6,9.4 V 9.3 9.2 9.1 9 L 19.65,8.9 V 8.8 L 19.7,8.7 V 8.6 8.5 8.4 8.3 L 19.75,8.2 V 8.05 l 0.05,-0.1 v -0.1 -0.1 -0.1 -0.1 -0.1 -0.1 -0.1 -0.1 -0.1 -0.1 l 0.05,-0.1 V 6.75 6.65 L 19.9,6.55 V 6.4 L 19.95,6.3 V 6.2 6.1 6 5.9 5.8 5.7 5.6 5.5 5.4 5.3 L 20,5.2 V 5.1 5 L 20.05,4.85 V 4.75 4.65 4.55 4.45 4.35 4.25 4.15 4.05 3.95 3.85 3.75 3.65 3.55 3.45 3.35 3.2 3.1 3 2.9 2.8 2.7 2.6 2.5 2.4 2.3 2.2 2.1 2 1.9 L 20.1,1.8 V 1.65 1.55 1.45 1.35 1.25 1.15 1.05 L 20.05,0.95 V 0.85 0.75 0.65 0.55 0.45 0.35 0.25 0.1 0 m 3.05,0 0.1,-0.1 0.1,-0.05 0.05,-0.05 h 0.2 l 0.25,0.05 0.1,0.1 L 23.95,0 24,0.05 v 0.1 l 0.05,0.1 0.05,0.1 -0.05,0.1 v 0.1 L 24,0.7 23.95,0.8 V 0.9 1 1.1 1.2 1.3 1.4 1.5 1.6 1.7 1.8 L 23.9,1.9 v 0.1 0.1 0.1 0.15 0.1 0.1 0.1 0.1 0.1 0.1 0.1 0.1 0.1 0.1 0.1 0.1 0.1 0.1 V 3.9 4 4.1 4.2 4.3 4.4 4.5 4.6 4.7 4.8 4.9 5 v 0.1 0.1 0.1 0.1 0.15 0.1 0.1 0.1 0.1 0.1 0.1 0.1 0.1 0.1 0.1 0.1 0.1 0.1 0.1 0.15 0.1 0.1 0.1 0.1 0.1 0.1 0.1 0.1 0.1 0.1 0.1 0.1 0.1 0.1 0.15 0.1 0.1 0.1 0.1 0.1 0.1 0.1 0.1 0.1 0.1 0.1 0.1 0.1 0.1 0.1 0.15 0.1 0.1 0.1 0.1 0.1 0.1 0.1 0.1 0.1 0.1 0.1 0.1 0.1 0.1 0.15 0.1 0.1 l 0.05,0.1 v 0.1 0.1 0.1 0.1 l 0.05,0.1 v 0.1 0.1 0.1 0.1 0.1 0.1 0.1 l 0.05,0.15 v 0.1 0.1 0.1 0.1 0.1 0.1 l 0.05,0.1 v 0.1 0.1 0.1 0.1 0.1 0.1 0.1 0.15 0.1 0.1 0.1 0.1 0.1 0.1 l 0.05,0.1 v 0.1 0.1 0.1 0.1 0.1 0.1 0.1 0.15 0.1 0.1 l 0.05,0.1 V 17 l 0.05,0.1 v 0.1 0.1 0.1 l -0.05,0.1 v 0.1 l -0.05,0.1 v 0.1 L 24.1,17.9 24.05,18 24,18.1 l -0.05,0.15 -0.05,0.1 -0.1,0.1 -0.1,0.05 -0.1,0.05 -0.15,0.05 v 0.1 h -0.1 v -0.1 l -0.2,-0.1 -0.2,-0.1 -0.1,-0.1 L 22.8,18.2 22.75,18.1 22.7,18 V 17.9 L 22.65,17.8 22.6,17.7 v -0.15 -0.1 -0.1 -0.1 -0.1 -0.1 -0.1 -0.1 l 0.05,-0.1 v -0.1 -0.1 -0.1 -0.1 -0.1 -0.1 V 16 15.9 l 0.05,-0.1 v -0.1 -0.1 -0.1 -0.1 -0.1 -0.1 -0.1 -0.1 -0.1 -0.1 -0.1 -0.1 -0.1 -0.15 -0.1 -0.1 l 0.05,-0.1 v -0.1 -0.1 -0.1 -0.1 -0.1 -0.1 l 0.05,-0.1 v -0.1 -0.1 -0.1 -0.1 -0.15 -0.1 -0.1 l 0.05,-0.1 V 12.4 12.3 12.2 12.1 L 22.9,12 v -0.1 -0.1 -0.1 -0.1 -0.1 -0.1 -0.1 -0.15 -0.1 -0.1 -0.1 -0.1 -0.1 -0.1 -0.1 -0.1 -0.1 -0.1 -0.1 V 9.95 9.85 9.75 9.6 9.5 9.4 9.3 9.2 9.1 9 8.9 8.8 8.7 8.6 8.5 8.4 8.3 8.2 8.05 7.95 7.85 7.75 7.65 7.55 7.45 7.35 7.25 7.15 7.05 6.95 6.85 6.75 6.65 6.55 6.4 6.3 6.2 6.1 6 5.9 5.8 5.7 5.6 5.5 5.4 5.3 5.2 5.1 5 4.85 4.75 4.65 4.55 4.45 4.35 4.25 4.15 4.05 3.95 3.85 3.75 3.65 3.55 3.45 3.35 3.2 3.1 3 2.9 2.8 2.7 2.6 2.5 2.4 2.3 2.2 2.1 2 1.9 L 22.85,1.8 V 1.65 1.55 1.45 1.35 1.25 1.15 1.05 0.95 0.85 0.75 0.65 0.55 L 22.9,0.45 V 0.35 L 23,0.25 V 0.1 L 23.1,0 m 6.25,0 V -0.1 -0.2 -0.3 -0.4 -0.5 -0.6 -0.7 -0.8 -0.9 -1 L 29.3,-1.1 v -0.1 -0.1 l 0.05,-0.1 v -0.15 l 0.1,-0.1 0.05,-0.1 0.15,-0.1 H 29.9 V -1.9 l 0.25,0.05 0.15,0.1 0.1,0.1 v 0.1 l 0.05,0.15 v 0.1 l 0.05,0.1 v 0.1 L 30.45,-1 v 0.1 0.1 0.1 0.1 0.1 0.1 0.1 0.1 0.1 V 0 L 30.4,0.1 v 0.15 0.1 0.1 0.1 0.1 0.1 0.1 0.1 0.1 0.1 0.1 0.1 0.1 0.1 0.1 V 1.8 1.9 2 2.1 2.2 2.3 2.4 2.5 2.6 2.7 l -0.05,0.1 v 0.1 0.1 0.1 0.1 0.15 0.1 0.1 0.1 0.1 0.1 0.1 0.1 0.1 0.1 0.1 0.1 0.1 0.1 0.1 0.1 V 5 5.1 5.2 5.3 5.4 5.5 5.6 5.7 5.8 5.9 6 v 0.1 0.1 0.1 0.1 0.15 0.1 0.1 0.1 0.1 0.1 0.1 0.1 0.1 0.1 0.1 0.1 0.1 0.1 0.1 0.1 0.15 0.1 0.1 0.1 0.1 0.1 0.1 0.1 0.1 0.1 0.1 0.1 0.1 0.1 0.1 0.15 0.1 0.1 0.1 0.1 0.1 0.1 0.1 0.1 0.1 0.1 0.1 0.1 0.1 0.1 0.15 0.1 0.1 0.1 0.1 0.1 0.1 0.1 0.1 0.1 0.1 0.1 0.1 0.1 0.1 l 0.05,0.1 v 0.15 0.1 0.1 0.1 0.1 0.1 0.1 0.1 l -0.05,0.1 v 0.1 0.1 0.1 0.1 l -0.05,0.1 v 0.1 0.15 0.1 0.1 0.1 l -0.05,0.1 v 0.1 0.1 l -0.05,0.1 v 0.1 0.1 0.1 0.1 0.1 0.1 0.1 0.1 0.15 0.1 0.1 0.1 0.1 0.1 0.1 0.1 0.1 0.1 l -0.05,0.1 -0.05,0.1 v 0.1 l -0.1,0.1 -0.15,0.1 -0.2,-0.1 -0.05,-0.1 0.05,-0.1 v -0.1 -0.1 -0.1 -0.1 -0.1 -0.1 -0.1 -0.1 -0.1 -0.1 -0.1 V 16 L 29.6,15.9 V 15.8 15.7 15.6 15.5 15.4 15.3 15.2 L 29.55,15.1 V 15 14.9 14.8 14.7 L 29.5,14.6 v -0.1 -0.15 l -0.05,-0.1 v -0.1 -0.1 -0.1 -0.1 -0.1 -0.1 -0.1 -0.1 -0.1 -0.1 -0.1 -0.1 -0.1 -0.15 -0.1 -0.1 -0.1 -0.1 -0.1 -0.1 -0.1 -0.1 -0.1 -0.1 -0.1 -0.1 -0.1 -0.1 -0.1 -0.15 -0.1 -0.1 -0.1 -0.1 -0.1 -0.1 -0.1 -0.1 -0.1 -0.1 -0.1 V 9.95 9.85 9.75 9.6 9.5 9.4 9.3 9.2 9.1 9 8.9 8.8 8.7 8.6 8.5 8.4 8.3 8.2 8.05 7.95 7.85 7.75 7.65 7.55 7.45 7.35 7.25 7.15 7.05 6.95 6.85 6.75 6.65 6.55 6.4 6.3 6.2 6.1 6 5.9 5.8 5.7 5.6 5.5 5.4 5.3 5.2 5.1 5 4.85 4.75 4.65 4.55 4.45 4.35 4.25 4.15 4.05 3.95 3.85 3.75 3.65 3.55 3.45 3.35 3.2 3.1 3 2.9 2.8 2.7 L 29.4,2.6 V 2.5 2.4 2.3 2.2 2.1 2 1.9 1.8 1.65 1.55 1.45 1.35 1.25 1.15 1.05 0.95 0.85 0.75 0.65 0.55 0.45 0.35 0.25 0.1 L 29.35,0 m 9.25,0 0.1,-0.1 0.1,-0.1 0.25,-0.1 0.2,-0.05 H 39.5 V -0.4 l 0.3,0.05 0.2,0.05 0.15,0.1 0.15,0.1 0.15,0.1 0.05,0.1 0.1,0.15 v 0.1 l 0.1,0.1 v 0.1 l 0.05,0.1 v 0.1 0.1 l 0.05,0.1 v 0.1 0.1 0.1 0.1 0.1 0.1 0.1 V 1.8 1.9 2 2.1 2.2 2.3 2.4 2.5 2.6 2.7 2.8 2.9 3 v 0.1 0.1 0.15 0.1 0.1 0.1 0.1 0.1 0.1 0.1 0.1 0.1 0.1 0.1 0.1 0.1 0.1 0.1 V 5 5.1 5.2 5.3 5.4 5.5 5.6 5.7 5.8 5.9 6 v 0.1 0.1 0.1 0.1 0.15 0.1 0.1 0.1 0.1 0.1 0.1 0.1 0.1 0.1 0.1 0.1 0.1 0.1 0.1 0.1 0.15 0.1 0.1 0.1 0.1 0.1 l -0.05,0.1 v 0.1 0.1 0.1 0.1 0.1 0.1 0.1 0.1 0.15 0.1 0.1 0.1 0.1 0.1 0.1 0.1 0.1 0.1 0.1 0.1 0.1 0.1 0.1 0.15 0.1 0.1 0.1 0.1 0.1 0.1 0.1 0.1 0.1 0.1 0.1 0.1 0.1 0.1 0.1 0.15 0.1 0.1 0.1 0.1 0.1 0.1 0.1 0.1 0.1 0.1 0.1 0.1 0.1 0.1 0.15 0.1 0.1 0.1 0.1 0.1 0.1 0.1 0.1 0.1 0.1 0.1 l -0.05,0.1 v 0.1 0.1 0.1 0.15 0.1 0.1 0.1 0.1 0.1 0.1 0.1 0.1 0.1 0.1 0.1 0.1 l -0.05,0.1 v 0.1 0.15 l -0.05,0.1 v 0.1 0.1 0.1 l -0.05,0.1 -0.05,0.1 -0.05,0.1 -0.05,0.1 -0.05,0.1 -0.1,0.1 -0.1,0.1 -0.1,0.1 -0.25,0.1 -0.3,0.1 -0.35,-0.1 -0.2,-0.1 -0.1,-0.1 -0.1,-0.1 -0.1,-0.1 L 38.6,18.5 38.55,18.4 38.5,18.3 38.45,18.2 38.4,18.1 V 18 17.9 l -0.05,-0.1 v -0.1 -0.15 -0.1 -0.1 -0.1 -0.1 -0.1 l -0.05,-0.1 v -0.1 -0.1 -0.1 -0.1 -0.1 -0.1 -0.1 -0.1 V 16 15.9 15.8 l -0.05,-0.1 v -0.1 -0.1 -0.1 -0.1 -0.1 -0.1 -0.1 -0.1 -0.1 -0.1 -0.1 -0.1 -0.15 -0.1 -0.1 -0.1 -0.1 -0.1 -0.1 -0.1 -0.1 -0.1 -0.1 -0.1 -0.1 -0.1 -0.1 -0.15 -0.1 -0.1 -0.1 -0.1 -0.1 -0.1 -0.1 -0.1 -0.1 -0.1 -0.1 -0.1 -0.1 -0.1 -0.1 -0.15 -0.1 -0.1 -0.1 -0.1 -0.1 -0.1 -0.1 -0.1 -0.1 -0.1 -0.1 V 9.95 9.85 9.75 9.6 9.5 9.4 9.3 9.2 9.1 9 8.9 8.8 8.7 8.6 8.5 8.4 8.3 8.2 8.05 7.95 7.85 7.75 7.65 7.55 7.45 7.35 7.25 7.15 7.05 6.95 6.85 6.75 6.65 6.55 6.4 6.3 6.2 6.1 6 5.9 5.8 5.7 5.6 5.5 5.4 5.3 5.2 5.1 5 4.85 4.75 4.65 4.55 4.45 4.35 4.25 4.15 4.05 3.95 3.85 3.75 3.65 3.55 3.45 3.35 3.2 3.1 3 2.9 2.8 2.7 2.6 2.5 2.4 2.3 2.2 2.1 2 1.9 1.8 1.65 1.55 1.45 1.35 1.25 1.15 1.05 0.95 0.85 0.75 0.65 L 38.3,0.55 V 0.45 L 38.35,0.35 38.4,0.25 38.5,0.1 38.6,0 m 12.5,0 0.1,-0.05 0.3,-0.05 0.25,0.05 0.1,0.05 0.1,0.05 0.1,0.1 0.1,0.1 0.05,0.1 0.05,0.1 0.05,0.1 V 0.7 0.8 0.9 1 1.1 1.2 1.3 1.4 1.5 1.6 1.7 1.8 1.9 2 v 0.1 0.1 0.15 0.1 0.1 0.1 l 0.05,0.1 v 0.1 l 0.05,0.1 v 0.1 l 0.05,0.1 v 0.1 0.1 l 0.05,0.1 v 0.1 0.1 0.1 L 52.55,3.9 V 4 4.1 4.2 l 0.05,0.1 v 0.1 0.1 0.1 0.1 0.1 0.1 0.1 0.1 0.1 0.1 0.1 0.15 0.1 0.1 0.1 0.1 0.1 0.1 l -0.05,0.1 -0.05,0.1 -0.05,0.1 -0.05,0.1 -0.05,0.1 -0.05,0.1 -0.15,0.1 -0.1,0.1 -0.2,0.15 h -0.1 V 7.2 7.3 7.4 7.5 7.6 7.7 7.8 7.9 8 8.1 8.2 L 51.7,8.3 v 0.1 0.1 0.15 0.1 0.1 0.1 0.1 0.1 0.1 0.1 0.1 0.1 l -0.05,0.1 v 0.1 0.1 0.1 0.1 l -0.05,0.1 v 0.15 0.1 0.1 0.1 l -0.05,0.1 v 0.1 l -0.05,0.1 v 0.1 0.1 l -0.05,0.1 -0.05,0.1 -0.1,0.1 -0.1,0.1 -0.1,0.1 h -0.15 l -0.25,-0.05 -0.1,-0.1 -0.1,-0.1 -0.1,-0.1 v -0.1 l -0.05,-0.1 v -0.1 L 50.3,10.85 V 10.7 10.6 10.5 L 50.25,10.4 V 10.3 10.2 L 50.2,10.1 V 10 9.9 9.8 9.7 9.6 9.5 9.4 9.3 9.2 9.05 8.95 8.85 8.75 8.65 8.55 8.45 8.35 L 50.15,8.25 V 8.15 8.05 7.95 7.85 7.75 7.65 7.5 7.4 7.3 7.2 7.1 7 6.9 6.8 6.7 6.6 6.5 6.4 6.3 6.2 6.1 6 5.85 5.75 5.65 5.55 5.45 L 50.2,5.35 V 5.25 5.15 5.05 4.95 4.85 4.75 4.65 4.55 4.45 4.3 4.2 4.1 4 3.9 3.8 3.7 3.6 3.5 3.4 3.3 3.2 3.1 3 2.9 2.75 2.65 2.55 2.45 2.35 2.25 2.15 2.05 1.95 1.85 1.75 1.65 L 50.15,1.55 50.2,1.45 V 1.35 1.25 1.1 L 50.25,1 V 0.9 L 50.3,0.8 50.35,0.7 50.45,0.6 50.6,0.5 50.7,0.45 50.75,0.35 50.8,0.25 50.9,0.15 51,0.05 51.1,0 m 13,38.8 0.05,0.85 -0.45,0.8 -1.2,0.2 -1.3,-0.4 q -2.6,-0.95 -6.85,0 l -3.35,0.8 -3.4,0.4 -4.35,-0.5 -2.5,-0.3 2.3,-2.05 1,-1.05 0.35,-0.35 4.25,0.5 3.1,-0.55 q 3.35,-0.85 5.5,-0.95 3.15,-0.1 5.35,1.15 1.05,0.5 1.45,1.35 l 0.05,0.1 m -25.35,1.8 q -3.25,0.1 -8.3,1.85 L 27.6,43.2 q -1.85,0.1 -2.75,-0.95 l 0.2,-0.45 H 21.7 L 13.8,41.4 Q 9.25,41.3 7.15,42.05 l -1.45,0.6 -1.5,0.3 Q 3.4,43 2.7,42.5 2,42 2.05,41.25 V 41.2 L 1.2,41.05 0,40.4 Q -0.4,40 -0.4,39.35 L 0,38.3 0.05,38.25 q 0.5,-0.55 1.5,-0.55 l 1.7,0.25 1.65,0.3 0.7,0.4 Q 9.05,37.5 13.05,37.6 l 4,0.25 -0.35,-0.3 Q 15.85,36.9 15.3,35.8 15,35.35 15,34.8 l 0.05,-0.4 q 0.2,-0.2 0.35,-0.1 l 0.25,0.25 0.6,0.55 2.95,2.15 0.25,0.3 v 0.5 L 25,38.4 27.7,38.3 27.45,38.15 26.8,38.05 26.45,37.8 h -0.3 l -0.45,-0.3 -0.35,-0.45 0.6,-0.3 0.3,-0.05 0.4,0.3 0.35,0.1 1.8,0.1 H 30 l 1.1,-0.3 q 3.2,-1.05 4.5,-1.95 0.8,-0.55 0.95,-0.6 l 0.1,-0.05 2.75,-3.1 0.35,-0.4 0.45,0.05 0.05,0.4 q -0.2,1.7 -0.6,2.45 l -1.05,1.35 -1.75,1.5 -0.6,0.45 2.65,-0.2 -1.75,1 q -2.3,1.2 -4.8,1.75 l -1.25,0.15 -4.9,0.25 -1.3,-0.1 q -0.55,-0.25 -0.6,0.1 -0.05,0.2 0.25,0.4 l 1.25,0.6 1.6,0.6 2.05,0.1 q 3.7,-0.1 6.75,-1.35 l 1.4,-0.7 1.5,-1 1.9,-1.55 0.25,-0.25 1.35,0.15 q -0.45,0.95 -1.3,1.7 l -1.2,0.95 -1.25,0.9 -0.1,0.1 m 5.7,-40.45 0.3,0.1 0.15,0.1 0.1,0.1 0.05,0.1 0.05,0.1 0.05,0.1 0.05,0.1 v 0.1 0.1 0.1 0.1 l 0.05,0.1 v 0.1 0.1 l 0.05,0.1 V 1.8 1.9 L 45.35,2 v 0.1 0.1 0.1 0.1 0.1 0.1 0.1 0.1 0.1 0.1 0.1 0.1 0.15 0.1 0.1 0.1 0.1 0.1 0.1 0.1 0.1 0.1 0.1 0.1 0.1 0.1 0.1 0.1 V 5 5.1 5.2 5.3 5.4 5.5 5.6 5.7 5.8 5.9 6 v 0.1 0.1 0.1 0.1 0.15 0.1 0.1 0.1 0.1 0.1 0.1 0.1 0.1 0.1 0.1 0.1 0.1 0.1 0.1 0.1 V 8.2 8.3 8.4 8.5 8.6 8.7 8.8 8.9 9 9.1 9.2 9.3 9.4 9.5 9.6 L 45.3,9.75 v 0.1 0.1 0.1 0.1 l -0.05,0.1 v 0.1 0.1 0.1 0.1 l -0.05,0.1 v 0.1 0.1 0.1 0.1 0.15 0.1 0.1 0.1 l -0.05,0.1 v 0.1 0.1 L 45.1,12 v 0.1 0.1 0.1 l -0.05,0.1 v 0.1 L 45,12.6 v 0.1 l -0.05,0.1 -0.05,0.15 -0.05,0.1 -0.1,0.1 -0.1,0.1 -0.05,0.05 -0.15,0.05 -0.15,-0.1 -0.1,-0.1 -0.1,-0.1 -0.1,-0.1 v -0.1 l -0.05,-0.1 -0.05,-0.1 v -0.1 l -0.05,-0.1 v -0.1 l -0.05,-0.1 v -0.1 -0.1 -0.1 -0.1 -0.15 L 43.75,11.6 V 11.5 11.4 11.3 L 43.7,11.2 V 11.1 11 10.9 l -0.05,-0.1 v -0.1 -0.1 -0.1 -0.1 -0.1 -0.15 -0.1 -0.1 -0.1 -0.1 L 43.6,9.65 V 9.55 9.45 9.35 9.25 9.15 9.05 8.95 L 43.55,8.85 V 8.75 8.65 8.5 8.4 8.3 8.2 8.1 8 7.9 7.8 7.7 7.6 7.5 7.4 7.3 7.2 7.1 6.95 6.85 6.75 6.65 6.55 6.45 6.35 6.25 6.15 6.05 5.95 5.85 5.75 5.65 5.55 5.4 5.3 5.2 5.1 5 4.9 4.8 4.7 4.6 4.5 4.4 4.3 4.2 4.1 4 3.9 3.75 3.65 3.55 3.45 3.35 3.25 3.15 3.05 2.95 2.85 2.75 2.65 2.55 L 43.6,2.45 V 2.35 2.2 2.1 2 L 43.65,1.9 V 1.8 1.7 1.6 1.5 1.4 1.3 L 43.7,1.2 V 1.1 1 L 43.75,0.9 V 0.8 L 43.8,0.7 V 0.55 l 0.1,-0.1 0.1,-0.1 0.1,-0.1 0.15,-0.05 h 0.2 V 0.15 m 4.05,17.95 0.05,0.15 0.15,0.1 0.05,0.1 0.1,0.1 v 0.1 l 0.1,0.1 v 0.1 l 0.1,0.1 0.05,0.1 0.05,0.1 0.05,0.1 v 0.1 0.1 0.1 l 0.05,0.1 v 0.15 0.1 L 49.3,20 v 0.1 0.1 0.1 0.1 0.1 0.1 0.1 0.1 0.1 0.1 0.1 0.1 0.1 0.15 0.1 l -0.05,0.1 v 0.1 0.1 0.1 0.1 0.1 0.1 0.1 0.1 0.1 0.1 0.1 l -0.05,0.1 v 0.15 0.1 0.1 0.1 0.1 0.1 0.1 0.1 0.1 0.1 0.1 0.1 0.1 0.1 0.1 0.15 0.1 l -0.05,0.1 v 0.1 0.1 0.1 0.1 0.1 l -0.05,0.1 v 0.1 0.1 0.1 0.1 0.1 0.1 0.1 0.15 l -0.05,0.1 -0.05,0.1 -0.05,0.1 v 0.1 l -0.05,0.1 -0.05,0.1 v 0.1 l -0.1,0.1 -0.1,0.1 -0.2,0.1 L 48.2,27.1 48.1,27 48.05,26.9 V 26.8 L 48,26.7 47.95,26.6 47.9,26.5 47.85,26.4 V 26.3 26.2 L 47.8,26.05 v -0.1 -0.1 -0.1 -0.1 -0.1 -0.1 l -0.05,-0.1 v -0.1 -0.1 -0.1 -0.1 -0.1 -0.1 -0.1 -0.1 -0.15 -0.1 L 47.7,24.2 V 24.1 24 23.9 23.8 23.7 23.6 23.5 23.4 23.3 23.2 23.1 23 22.85 l -0.05,-0.1 v -0.1 -0.1 -0.1 -0.1 -0.1 -0.1 -0.1 -0.1 -0.1 -0.1 -0.1 -0.1 -0.1 V 21.3 21.2 21.1 21 20.9 20.8 20.7 20.6 20.5 20.4 20.3 20.2 20.1 20 19.9 19.8 19.65 19.55 l 0.05,-0.1 v -0.1 l 0.05,-0.1 v -0.1 l 0.05,-0.1 0.05,-0.1 0.05,-0.1 0.1,-0.1 v -0.1 l 0.1,-0.1 0.05,-0.1 0.05,-0.1 0.15,-0.1 0.05,-0.1 V 18.1 h 0.1 m -5.4,8.1 0.25,0.55 -0.2,0.75 -0.3,0.65 L 42.3,29 41.9,29.45 41,29.9 q -0.05,-0.45 0.25,-1.25 l 0.7,-1.8 0.3,-0.5 Q 42.5,26 42.7,26 l 0.4,0.2 m -10.35,-26 0.3,0.05 0.25,0.1 0.1,0.1 0.1,0.1 0.05,0.15 0.05,0.1 V 0.9 L 33.65,1 v 0.1 l 0.05,0.1 v 0.1 0.1 l 0.05,0.1 V 1.6 1.7 1.8 1.9 2 2.1 2.2 2.35 2.45 l 0.05,0.1 v 0.1 0.1 0.1 0.1 0.1 0.1 0.1 0.1 0.1 0.1 0.1 0.1 V 3.9 4 4.1 4.2 4.3 4.4 4.5 4.6 4.7 4.8 4.9 5 v 0.1 0.1 0.1 0.1 0.15 0.1 0.1 0.1 0.1 0.1 0.1 0.1 0.1 0.1 0.1 0.1 0.1 0.1 0.1 0.15 0.1 0.1 0.1 0.1 0.1 0.1 0.1 0.1 0.1 0.1 0.1 0.1 0.1 0.1 0.15 0.1 0.1 0.1 0.1 0.1 0.1 0.1 0.1 0.1 0.1 0.1 0.1 0.1 0.1 0.1 0.15 0.1 0.1 0.1 0.1 0.1 0.1 0.1 0.1 0.1 0.1 0.1 0.1 0.1 0.1 0.15 0.1 l 0.05,0.1 v 0.1 0.1 0.1 0.1 0.1 0.1 0.1 0.1 0.1 0.1 0.1 0.1 0.1 0.15 0.1 0.1 0.1 0.1 0.1 0.1 0.1 0.1 0.1 0.1 0.1 0.1 0.1 0.1 0.15 0.1 0.1 0.1 0.1 0.1 0.1 0.1 0.1 0.1 0.1 0.1 0.1 0.1 0.1 0.15 0.1 0.1 0.1 0.1 0.1 0.1 0.1 0.1 0.1 0.1 0.1 0.1 0.1 0.1 0.1 0.15 0.1 0.1 0.1 0.1 0.1 l -0.05,0.1 v 0.1 l -0.05,0.1 v 0.1 l -0.05,0.1 -0.1,0.1 -0.05,0.1 -0.05,0.1 -0.1,0.1 -0.1,0.15 -0.1,0.1 -0.15,0.05 -0.1,0.05 h -0.2 l -0.3,-0.05 -0.15,-0.1 -0.1,-0.1 -0.1,-0.1 -0.1,-0.1 -0.05,-0.1 -0.1,-0.1 -0.05,-0.1 -0.05,-0.15 V 19 18.9 L 31.7,18.8 v -0.1 -0.1 l -0.05,-0.1 v -0.1 -0.1 -0.1 -0.1 -0.1 -0.1 -0.1 -0.1 -0.15 -0.1 -0.1 -0.1 -0.1 -0.1 -0.1 -0.1 -0.1 -0.1 -0.1 -0.1 -0.1 -0.1 -0.1 V 16 15.9 15.8 15.7 15.6 15.5 15.4 15.3 15.2 15.1 15 v -0.1 -0.1 -0.1 -0.1 -0.1 -0.15 -0.1 -0.1 -0.1 -0.1 -0.1 -0.1 -0.1 -0.1 -0.1 l 0.05,-0.1 v -0.1 -0.1 -0.1 -0.1 V 12.8 12.7 12.6 12.5 12.4 12.3 12.2 12.1 12 l 0.05,-0.1 v -0.1 -0.1 -0.1 -0.1 -0.1 -0.1 -0.15 -0.1 -0.1 -0.1 -0.1 -0.1 -0.1 -0.1 -0.1 -0.1 -0.1 -0.1 V 9.95 9.85 9.75 9.6 9.5 9.4 9.3 9.2 9.1 9 8.9 8.8 8.7 8.6 8.5 8.4 8.3 8.2 8.05 7.95 7.85 7.75 7.65 7.55 7.45 7.35 7.25 7.15 7.05 6.95 6.85 6.75 6.65 6.55 6.4 6.3 6.2 6.1 6 5.9 5.8 5.7 5.6 5.5 5.4 5.3 5.2 5.1 5 4.85 4.75 4.65 4.55 4.45 4.35 4.25 4.15 4.05 3.95 3.85 3.75 3.65 3.55 3.45 3.35 3.2 3.1 3 2.9 2.8 2.7 2.6 2.5 2.4 2.3 2.2 2.1 2 1.9 1.8 1.65 l 0.05,-0.1 v -0.1 l 0.05,-0.1 v -0.1 -0.1 -0.1 -0.1 -0.1 l 0.05,-0.1 0.05,-0.1 0.1,-0.1 0.1,-0.1 0.15,-0.1 0.1,-0.1 h 0.1 0.25 V 0.2 M 27,3.8 27.2,3.9 27.3,4 27.35,4.1 v 0.1 l 0.05,0.1 0.05,0.1 V 4.5 4.6 4.7 4.8 4.9 5 l 0.05,0.1 v 0.1 0.1 l 0.05,0.1 v 0.15 0.1 0.1 0.1 0.1 0.1 0.1 0.1 0.1 0.1 0.1 0.1 0.1 0.1 0.1 V 7.1 7.2 7.3 7.4 7.5 7.6 7.7 7.8 7.9 8 8.1 8.2 8.3 8.4 8.5 8.65 l 0.05,0.1 v 0.1 0.1 l 0.05,0.1 v 0.1 0.1 0.1 0.1 0.1 0.1 0.1 l 0.05,0.1 v 0.1 0.1 0.1 l 0.05,0.15 v 0.1 0.1 0.1 0.1 l 0.05,0.1 v 0.1 l 0.05,0.1 v 0.1 l 0.05,0.1 v 0.1 0.1 0.1 0.1 0.1 0.15 0.1 0.1 0.1 l 0.05,0.1 v 0.1 0.1 0.1 0.1 l 0.05,0.1 v 0.1 0.1 0.1 0.1 0.1 0.1 0.15 0.1 l 0.05,0.1 v 0.1 0.1 0.1 0.1 l 0.05,0.1 v 0.1 0.1 0.1 0.1 0.1 0.1 0.1 0.15 0.1 0.1 0.1 0.1 0.1 0.1 l 0.05,0.1 v 0.1 0.1 0.1 0.1 0.1 0.1 0.1 0.15 0.1 0.1 l 0.05,0.1 v 0.1 0.1 0.1 0.1 0.1 0.1 0.1 0.1 0.1 0.1 0.1 0.1 0.15 0.1 0.1 0.1 0.1 0.1 0.1 0.1 l 0.05,0.1 v 0.1 0.1 0.1 0.1 0.1 0.1 0.15 0.1 0.1 0.1 0.1 l 0.05,0.1 v 0.1 0.1 0.1 0.1 0.1 0.1 0.1 0.1 0.1 0.1 0.15 0.1 0.1 0.1 l -0.05,0.1 v 0.1 0.1 0.1 0.1 l -0.05,0.1 v 0.1 0.1 0.1 0.1 L 28.15,22.85 28.1,23 v 0.1 L 28.05,23.2 28,23.3 v 0.1 l -0.05,0.1 -0.05,0.1 -0.05,0.1 -0.05,0.1 -0.05,0.1 -0.1,0.1 -0.05,0.1 -0.05,0.1 -0.15,0.1 -0.1,0.1 h -0.1 l -0.2,0.05 -0.25,-0.05 -0.2,-0.1 -0.1,-0.1 -0.1,-0.1 -0.05,-0.15 -0.05,-0.1 -0.05,-0.1 -0.1,-0.1 v -0.1 L 26.05,23.45 26,23.35 v -0.1 l -0.05,-0.1 -0.05,-0.1 v -0.1 l -0.05,-0.1 v -0.1 L 25.8,22.65 V 22.55 22.45 22.3 22.2 22.1 22 21.9 l -0.05,-0.1 v -0.1 -0.1 -0.1 -0.1 -0.1 -0.1 -0.1 -0.1 -0.1 -0.15 -0.1 -0.1 -0.1 -0.1 -0.1 l 0.05,-0.1 v -0.1 -0.1 -0.1 -0.1 -0.1 -0.1 -0.1 -0.1 -0.1 V 19.1 19 18.9 18.8 18.7 18.6 18.5 18.4 18.3 18.2 18.1 18 17.9 l 0.05,-0.1 v -0.1 -0.15 -0.1 -0.1 -0.1 -0.1 -0.1 -0.1 -0.1 -0.1 l 0.05,-0.1 v -0.1 -0.1 -0.1 -0.1 -0.1 V 16 15.9 15.8 15.7 15.6 15.5 15.4 15.3 15.2 15.1 15 14.9 l 0.05,-0.1 v -0.1 -0.1 -0.1 -0.15 -0.1 -0.1 L 26,14.05 v -0.1 -0.1 -0.1 -0.1 -0.1 -0.1 -0.1 -0.1 -0.1 l 0.05,-0.1 V 12.95 12.8 12.7 L 26.1,12.6 V 12.5 12.4 12.3 12.2 12.1 12 11.9 11.8 11.7 11.6 11.5 11.4 l 0.05,-0.1 v -0.15 l 0.05,-0.1 v -0.1 -0.1 -0.1 l 0.05,-0.1 v -0.1 -0.1 l 0.05,-0.1 v -0.1 -0.1 l 0.05,-0.1 V 9.95 9.85 9.75 9.6 9.5 9.4 9.3 L 26.4,9.2 V 9.1 9 8.9 L 26.45,8.8 V 8.7 8.6 8.5 8.4 8.3 L 26.5,8.2 V 8.05 7.95 7.85 7.75 7.65 7.55 7.45 7.35 7.25 7.15 7.05 6.95 6.85 6.75 6.65 6.55 6.4 6.3 6.2 6.1 6 5.9 5.8 5.7 5.6 5.5 5.4 5.3 L 26.55,5.2 V 5.1 5 4.85 4.75 4.65 l 0.05,-0.1 v -0.1 -0.1 l 0.05,-0.1 V 4.15 4.05 L 26.75,3.95 26.8,3.9 26.9,3.85 H 27 V 3.8 M 15.7,2.85 15.9,2.9 16.05,3 16.1,3.1 16.15,3.2 v 0.15 l 0.05,0.1 v 0.1 0.1 0.1 0.1 0.1 0.1 0.1 0.1 0.1 0.1 0.1 0.1 0.1 0.1 V 5 5.1 5.2 5.3 5.4 5.5 5.6 l 0.05,0.1 V 5.8 5.9 6 l 0.05,0.1 v 0.1 0.1 0.1 0.15 0.1 0.1 l 0.05,0.1 v 0.1 l 0.05,0.1 v 0.1 0.1 0.1 0.1 0.1 0.1 0.1 0.1 0.1 l 0.05,0.1 V 8.2 8.3 l 0.05,0.1 v 0.1 0.1 l 0.05,0.1 0.05,0.1 V 8.9 9 9.1 l 0.05,0.1 v 0.1 l 0.05,0.1 v 0.1 0.1 l 0.05,0.15 v 0.1 0.1 0.1 0.1 0.1 l 0.05,0.1 v 0.1 l 0.05,0.1 v 0.1 0.1 0.1 0.1 0.1 0.1 0.15 l 0.05,0.1 v 0.1 l 0.05,0.1 v 0.1 0.1 L 17,11.9 v 0.1 0.1 l 0.05,0.1 v 0.1 0.1 0.1 0.1 L 17,12.7 v 0.1 0.15 0.1 0.1 0.1 l -0.05,0.1 v 0.1 0.1 0.1 l -0.05,0.1 -0.05,0.1 v 0.1 l -0.05,0.1 -0.05,0.1 v 0.1 l -0.05,0.1 -0.1,0.15 -0.1,0.1 -0.1,0.1 -0.1,0.1 -0.2,0.1 -0.15,0.05 L 15.7,15 15.35,14.9 15.1,14.8 15,14.7 14.85,14.6 14.8,14.5 14.7,14.4 14.65,14.3 14.6,14.2 14.55,14.1 V 14 L 14.5,13.9 V 13.8 L 14.45,13.7 14.4,13.6 v -0.1 -0.15 -0.1 -0.1 -0.1 -0.1 -0.1 -0.1 l -0.05,-0.1 v -0.1 -0.1 -0.1 -0.1 -0.1 l 0.05,-0.1 v -0.1 -0.1 -0.15 l 0.05,-0.1 V 11.5 L 14.5,11.4 V 11.3 11.2 11.1 L 14.55,11 v -0.1 -0.1 -0.1 -0.1 -0.1 l 0.05,-0.1 v -0.1 l 0.05,-0.15 v -0.1 -0.1 -0.1 -0.1 -0.1 l 0.05,-0.1 v -0.1 -0.1 l 0.05,-0.1 v -0.1 -0.1 -0.1 -0.1 l 0.05,-0.1 0.05,-0.1 V 8.5 L 14.9,8.4 V 8.3 L 14.95,8.2 V 8.1 8 7.9 7.8 7.7 7.6 7.5 7.4 7.3 7.2 L 15,7.1 V 6.95 l 0.05,-0.1 v -0.1 -0.1 -0.1 l 0.05,-0.1 v -0.1 -0.1 -0.1 -0.1 l 0.05,-0.1 V 5.85 5.75 5.65 L 15.2,5.55 V 5.4 5.3 5.2 5.1 5 4.9 4.8 4.7 4.6 4.5 4.4 4.3 4.2 4.1 4 3.9 3.75 3.65 3.55 3.45 3.35 l 0.05,-0.1 v -0.1 l 0.05,-0.1 0.1,-0.1 0.1,-0.05 h 0.2 V 2.85 m -3.15,23.7 v 0.1 0.1 0.1 l 0.05,0.1 v 0.1 l 0.05,0.15 0.05,0.1 0.05,0.1 v 0.1 0.1 l 0.05,0.1 0.05,0.1 v 0.1 l 0.05,0.1 0.05,0.1 v 0.1 l 0.05,0.1 0.05,0.1 v 0.1 l 0.05,0.1 v 0.1 0.15 0.1 0.1 0.1 0.1 0.1 0.1 0.1 0.1 0.1 0.1 0.1 0.1 0.1 0.1 0.15 0.1 0.1 0.1 0.1 l -0.05,0.1 V 31 31.1 L 13,31.2 12.95,31.3 v 0.1 l -0.1,0.1 v 0.1 l -0.1,0.1 -0.1,0.1 -0.1,0.1 -0.15,0.15 -0.2,0.1 -0.35,0.05 -0.4,-0.05 L 11.2,32.05 11.1,31.9 11,31.8 10.9,31.7 10.85,31.6 10.75,31.5 V 31.4 L 10.7,31.3 10.65,31.2 V 31.1 31 L 10.6,30.9 v -0.1 -0.1 -0.1 -0.1 -0.1 -0.15 -0.1 -0.1 -0.1 -0.1 -0.1 -0.1 -0.1 -0.1 -0.1 -0.1 -0.1 -0.1 -0.1 -0.1 -0.15 -0.1 l 0.05,-0.1 V 28.4 28.3 28.2 L 10.7,28.1 10.75,28 v -0.1 l 0.05,-0.1 0.1,-0.1 v -0.1 -0.1 -0.1 l 0.05,-0.1 0.05,-0.1 0.05,-0.15 0.05,-0.1 v -0.1 -0.1 l 0.05,-0.1 V 26.6 L 11.1,26.5 v -0.1 -0.1 -0.1 -0.15 -0.1 -0.1 -0.1 -0.1 -0.1 -0.1 -0.1 l 0.05,-0.1 v -0.1 -0.1 -0.1 -0.1 -0.1 -0.1 L 11.1,24.55 V 24.4 24.3 24.2 24.1 L 11.15,24 v -0.1 -0.1 -0.1 -0.1 -0.1 -0.1 -0.1 -0.1 -0.1 -0.1 -0.15 -0.1 -0.1 -0.1 -0.1 -0.1 l 0.05,-0.1 v -0.1 -0.1 l 0.05,-0.1 v -0.1 -0.1 -0.1 l 0.05,-0.1 V 21.45 21.3 21.2 21.1 L 11.35,21 11.4,20.9 11.45,20.8 V 20.7 20.6 L 11.4,20.5 v -0.1 l 0.05,-0.1 v -0.1 -0.1 -0.1 -0.1 -0.1 -0.15 -0.1 -0.1 -0.1 -0.1 l 0.05,-0.1 0.05,-0.1 v -0.1 -0.1 -0.1 -0.1 l 0.05,-0.1 v -0.1 l -0.05,-0.1 V 18.25 18.1 L 11.6,18 v -0.1 l 0.05,-0.1 V 17.7 L 11.6,17.6 11.65,17.5 V 17.4 17.3 17.2 17.1 17 16.9 16.8 16.7 16.6 16.45 16.35 l 0.1,-0.1 h 0.1 l 0.1,0.1 0.05,0.1 0.05,0.1 v 0.1 0.1 0.1 0.1 0.1 0.1 0.1 0.1 0.1 0.1 0.15 0.1 0.1 L 12.1,18 v 0.1 0.1 0.1 0.1 0.1 0.1 0.1 0.1 0.1 0.1 l 0.05,0.1 0.05,0.15 v 0.1 l 0.05,0.1 v 0.1 0.1 0.1 0.1 0.1 0.1 0.1 0.1 0.1 l 0.05,0.1 -0.05,0.1 v 0.1 0.1 l 0.05,0.15 v 0.1 0.1 l 0.05,0.1 0.05,0.1 v 0.1 0.1 0.1 0.1 0.1 0.1 0.1 l 0.05,0.1 0.05,0.1 v 0.1 l 0.05,0.15 v 0.1 0.1 0.1 0.1 0.1 0.1 0.1 0.1 0.1 0.1 0.1 0.1 0.1 0.1 0.1 0.15 0.1 0.1 0.1 0.1 0.1 0.1 0.1 0.1 0.1 0.1 0.1 0.1 0.1 0.1 0.15 0.1 0.1 0.1 0.1 0.1 0.1 0.1 0.1 0.1 m 2.6,-5.05 0.25,0.05 0.1,0.1 0.1,0.1 0.05,0.15 0.05,0.1 v 0.1 l 0.05,0.1 v 0.1 0.1 0.1 l 0.05,0.1 v 0.1 0.1 0.1 0.1 0.1 l 0.05,0.1 v 0.1 0.1 0.15 0.1 0.1 0.1 0.1 0.1 0.1 0.1 0.1 0.1 0.1 0.1 0.1 0.1 0.1 0.15 0.1 0.1 0.1 l 0.05,0.1 v 0.1 l 0.05,0.1 v 0.1 0.1 L 16,26 v 0.1 l 0.05,0.1 v 0.1 0.1 0.1 l 0.05,0.1 v 0.15 0.1 0.1 l 0.05,0.1 v 0.1 0.1 l 0.05,0.1 v 0.1 0.1 0.1 0.1 0.1 0.1 0.1 l 0.05,0.1 v 0.15 0.1 l 0.05,0.1 -0.05,0.1 v 0.1 0.1 0.1 0.1 l -0.05,0.1 v 0.1 0.1 0.1 l -0.1,0.1 -0.05,0.1 v 0.1 l -0.1,0.15 -0.05,0.1 -0.1,0.1 -0.1,0.1 -0.1,0.1 -0.2,0.1 -0.25,0.05 -0.3,-0.05 -0.15,-0.1 -0.15,-0.1 -0.1,-0.1 -0.05,-0.1 -0.1,-0.1 L 14.25,29.7 14.2,29.6 14.15,29.5 14.1,29.4 V 29.3 29.2 L 14.05,29.1 V 29 28.9 28.8 28.7 L 14,28.6 v -0.1 -0.1 l 0.05,-0.1 v -0.15 -0.1 l 0.05,-0.1 v -0.1 -0.1 -0.1 -0.1 -0.1 -0.1 -0.1 l 0.05,-0.1 v -0.1 -0.1 l 0.05,-0.1 v -0.1 -0.15 -0.1 -0.1 -0.1 l 0.05,-0.1 V 26.1 L 14.3,26 v -0.1 -0.1 l 0.05,-0.1 v -0.1 l 0.05,-0.1 v -0.1 -0.1 l 0.05,-0.1 v -0.1 -0.15 -0.1 -0.1 -0.1 -0.1 -0.1 -0.1 -0.1 -0.1 -0.1 -0.1 -0.1 -0.1 -0.1 -0.1 -0.15 -0.1 -0.1 -0.1 L 14.5,23 v -0.1 -0.1 -0.1 -0.1 -0.1 -0.1 -0.1 l 0.05,-0.1 V 22.1 L 14.6,22 v -0.1 l 0.05,-0.15 0.1,-0.1 0.1,-0.1 h 0.3 V 21.5 M 17.6,33 v -0.45 l 0.35,-0.1 q 0.25,0.05 0.35,0.2 l 0.4,0.7 0.6,0.4 0.95,0.6 0.95,0.6 q 0.85,0.35 0.95,0.6 0.25,0.55 -0.35,0.9 l -1,0.05 -0.9,-0.55 -1.3,-1 -0.55,-0.9 L 17.6,33"
         fill="#ffffff"
         fill-rule="evenodd"
         stroke="none"
         id="path5" />
      <path
         d="m 51.95,15.55 q -1.15,4.25 -3.4,6.5 l -2.35,1.65 0.55,0.2 q 1.1,0.3 1.6,0.7 0.85,0.7 0.85,1.7 0.1,0.95 -0.8,1.75 -1,0.75 -2.4,0.4 -0.8,-0.15 -2.3,-1 l -2.25,-1.25 -0.85,1.6 2.2,2.1 1.15,0.9 q 1.2,1.2 0.75,2.7 -0.25,0.75 -0.85,1.2 -0.6,0.5 -1.35,0.5 -1,-0.05 -2,-0.9 l -2.35,-2.4 -2.9,2.25 q -2.6,1.5 -5.65,1.8 L 24.95,35.6 q -0.65,1.95 -1.6,3.25 -1.2,1.65 -2.9,2.55 l -1.85,0.45 q -1.15,0 -1.8,-0.65 -0.55,-0.55 -0.7,-1.4 -0.15,-0.8 0.15,-1.5 l 0.75,-1 q 1,-0.95 2.4,-1.4 l 1.3,-0.55 0.6,-1.5 -1.4,-1.45 Q 18.85,31.35 18.5,30.55 L 18.35,30.05 18.25,30 18.1,30.15 15.55,32.7 Q 13.3,34.25 9.75,34.1 8.5,34 8,33.5 7.55,33.05 7.45,32 7.35,31.3 7.55,30.85 7.9,30 9,29.65 l 2.9,-0.15 1.45,-0.1 0.75,-0.5 1.95,-1.65 q -0.25,-0.55 -0.35,-1.1 -0.6,-2.4 0.9,-4.8 L 17.15,20.4 16.35,19.7 15.45,18.95 14.2,18.2 12.9,17 Q 10.65,14.65 10.2,12.9 9.95,11.95 9.95,10.6 L 10.2,9.1 q 0.3,-0.8 1.15,-1.25 0.8,-0.45 1.75,-0.4 0.9,0 1.6,0.5 1.05,0.75 1.35,2.75 l 0.25,1.6 0.9,2.05 q 0.9,1.6 1.65,2.25 l 1.15,0.8 0.55,-0.45 q 1.65,-1.1 3,-1.55 1.5,-0.5 4.3,-0.6 H 28 l 1.55,-0.1 1.8,0.3 0.2,0.05 V 14.6 q 0.1,-1.55 0.35,-2.75 L 32.15,11.2 31.75,9.85 31.4,8.1 31.2,6.25 31.35,5.65 q 0.3,-0.75 1.3,-0.95 l 1.65,0.15 q 1.05,0.25 1.75,0.65 l 0.7,0.35 q 1.3,-0.95 2.8,-1.45 2.95,-1 6.15,-0.1 1.55,0.4 2.65,1.1 l 0.7,0.5 1.35,-1.5 1,-0.9 q 0.7,-0.45 1.3,-0.15 0.65,0.2 0.85,1.05 V 5.85 Q 53.15,9.5 52.4,11.1 l -0.05,0.1 q 0.2,1.85 -0.4,4.35 m -8.7,1.75 0.1,-0.15 0.7,0.2 0.7,0.1 0.75,-0.05 q 2.05,-0.35 2.65,-1.75 L 48.2,15.3 47.95,15 H 47.5 l -0.7,0.55 q -0.6,0.6 -1.6,0.6 L 45,15.9 44.65,15.7 44.15,15.2 44,15.05 43.4,14.8 q -0.5,-0.1 -0.8,0.3 l -0.25,0.45 v 0.1 l -0.1,0.05 -0.5,0.75 q -0.4,0.45 -1.5,0.35 l -0.6,-0.1 -0.35,-0.3 -0.8,-0.05 q -0.35,0.15 -0.25,0.55 l 0.2,0.6 q 0.7,0.85 2.6,0.95 l 1.35,-0.2 0.7,-0.7 0.15,-0.25 M 49.2,9.35 48.2,9.3 47.05,10 46.1,10.7 45.6,11.2 v 0.1 l -0.3,0.65 q -0.05,0.45 0.25,0.75 0.35,0.35 1.4,0.35 l 2.4,-0.1 Q 50,12.85 50.2,12.6 50.7,12.2 50.35,11.75 50.15,11.5 49.4,11.5 l -1.55,-0.1 0.95,-0.7 0.45,-0.25 0.25,-0.6 -0.3,-0.5 m 1.3,29.75 q -0.1,0.95 -1.35,2.1 l -3.5,2.4 -0.8,0.1 q -0.45,-0.25 -0.25,-1.05 0.6,-2.5 2.25,-4.45 0.9,-1.1 1.75,-1.15 0.9,-0.1 1.45,0.55 0.55,0.6 0.45,1.5 m -8.65,4.8 1.15,0.05 q 0.6,0.2 0.9,0.7 0.3,0.5 0.25,1.1 l -0.5,1.1 -1.05,0.5 -1.1,-0.25 q -1,-0.6 -0.85,-1.7 0.1,-1.15 1.2,-1.5 m -4.75,2.35 -0.25,-0.45 -0.5,-0.35 q -0.35,-0.2 -0.85,0 l -0.45,0.35 q -0.3,0.3 -0.3,0.75 0,0.45 0.25,0.8 l 0.7,0.45 0.8,-0.15 0.55,-0.6 q 0.2,-0.4 0.05,-0.8 M 37.45,12.2 35.85,12.3 35,12.5 q -0.35,0.1 -0.45,0.25 -0.2,0.15 -0.15,0.4 l 0.2,0.4 0.7,0.15 0.95,-0.05 -0.8,0.6 -0.45,0.4 q -0.3,0.4 0.1,0.8 l 0.7,0.15 1.25,-0.35 1.2,-0.55 0.9,-0.4 0.45,-0.8 q 0,-0.5 -0.4,-0.8 l -0.3,-0.2 -0.3,-0.2 -1.15,-0.1 m 1.95,34.35 0.85,1.35 0.15,1.05 1,0.25 q 0.95,0.55 1.05,1.55 0.1,1.15 -0.75,1.75 L 40.1,53 q -0.8,0 -1.45,-0.45 l -1.3,0.75 -0.45,0.15 0.35,0.5 0.25,1.9 q 0,1.25 -0.45,1.8 Q 36.6,58.2 36,58.3 l -0.1,0.05 q -1.05,0.9 -2.1,0.25 -0.55,-0.3 -0.95,-1.1 -0.4,0.1 -1.1,0.5 l -1.1,0.45 q -1.05,0.15 -1.8,-0.5 L 28.4,57.35 28.15,56.5 Q 28.1,55.25 28.8,53.75 l 1.7,-2.3 0.25,-0.25 -0.2,-0.8 q -0.2,-1.1 0.3,-2.3 0.65,-1.6 2,-2.35 l 1,-0.45 1.4,-0.35 h 0.2 L 36,44.3 q 0.9,-0.7 2,-0.4 1.1,0.35 1.35,1.45 l -0.05,1.05 0.1,0.15 m -1.55,4.95 q 0.65,-0.8 0,-1.65 -0.3,-0.35 -0.8,-0.4 l -0.85,0.15 -0.5,0.65 q -0.15,0.45 0,0.8 0.15,0.75 0.95,0.9 0.8,0.1 1.2,-0.45"
         fill="#000000"
         fill-rule="evenodd"
         stroke="none"
         id="path6" />
      <path
         d="m 49.2,9.35 0.3,0.5 -0.25,0.6 -0.45,0.25 -0.95,0.7 1.55,0.1 q 0.75,0 0.95,0.25 0.35,0.45 -0.15,0.85 -0.2,0.25 -0.85,0.35 l -2.4,0.1 q -1.05,0 -1.4,-0.35 -0.3,-0.3 -0.25,-0.75 l 0.3,-0.65 v -0.1 l 0.5,-0.5 0.95,-0.7 1.15,-0.7 1,0.05 m -5.95,7.95 -0.15,0.25 -0.7,0.7 -1.35,0.2 q -1.9,-0.1 -2.6,-0.95 l -0.2,-0.6 q -0.1,-0.4 0.25,-0.55 l 0.8,0.05 0.35,0.3 0.6,0.1 q 1.1,0.1 1.5,-0.35 l 0.5,-0.75 0.1,-0.05 v -0.1 L 42.6,15.1 q 0.3,-0.4 0.8,-0.3 l 0.6,0.25 0.15,0.15 0.5,0.5 0.35,0.2 0.2,0.25 q 1,0 1.6,-0.6 L 47.5,15 h 0.45 l 0.25,0.3 -0.05,0.35 q -0.6,1.4 -2.65,1.75 l -0.75,0.05 -0.7,-0.1 -0.7,-0.2 -0.1,0.15 m -5.8,-5.1 1.15,0.1 0.3,0.2 0.3,0.2 q 0.4,0.3 0.4,0.8 l -0.45,0.8 -0.9,0.4 -1.2,0.55 -1.25,0.35 -0.7,-0.15 q -0.4,-0.4 -0.1,-0.8 l 0.45,-0.4 0.8,-0.6 -0.95,0.05 -0.7,-0.15 -0.2,-0.4 Q 34.35,12.9 34.55,12.75 34.65,12.6 35,12.5 l 0.85,-0.2 1.6,-0.1 M 37.1,46.25 q 0.15,0.4 -0.05,0.8 L 36.5,47.65 35.7,47.8 35,47.35 q -0.25,-0.35 -0.25,-0.8 0,-0.45 0.3,-0.75 l 0.45,-0.35 q 0.5,-0.2 0.85,0 l 0.5,0.35 0.25,0.45 m 0.75,5.25 q -0.4,0.55 -1.2,0.45 -0.8,-0.15 -0.95,-0.9 -0.15,-0.35 0,-0.8 l 0.5,-0.65 0.85,-0.15 q 0.5,0.05 0.8,0.4 0.65,0.85 0,1.65"
         fill="#ffffff"
         fill-rule="evenodd"
         stroke="none"
         id="path7" />
    </g>
    <g
       id="shape2"
       transform="translate(1.5,1.5)">
      <path
         d="M 0,23.8 V 0 H 64.1 V 23.8 57.55 H 0 Z"
         fill="none"
         stroke="#000000"
         stroke-linecap="round"
         stroke-linejoin="round"
         stroke-width="3"
         id="path8" />
    </g>
  </defs>
</svg>
