<?xml version="1.0" encoding="UTF-8" standalone="no"?>
<svg
   ffdec:objectType="frame"
   height="60.549999"
   width="67.099998"
   version="1.1"
   id="svg7"
   sodipodi:docname="82.svg"
   xmlns:inkscape="http://www.inkscape.org/namespaces/inkscape"
   xmlns:sodipodi="http://sodipodi.sourceforge.net/DTD/sodipodi-0.dtd"
   xmlns:xlink="http://www.w3.org/1999/xlink"
   xmlns="http://www.w3.org/2000/svg"
   xmlns:svg="http://www.w3.org/2000/svg"
   xmlns:ffdec="https://www.free-decompiler.com/flash">
  <sodipodi:namedview
     id="namedview7"
     pagecolor="#ffffff"
     bordercolor="#000000"
     borderopacity="0.25"
     inkscape:showpageshadow="2"
     inkscape:pageopacity="0.0"
     inkscape:pagecheckerboard="0"
     inkscape:deskcolor="#d1d1d1"
     fit-margin-top="5"
     fit-margin-left="5"
     fit-margin-right="5"
     fit-margin-bottom="5" />
  <g
     transform="translate(1.5,1.5)"
     id="g3">
    <use
       ffdec:characterId="516"
       height="57.549999"
       width="64.099998"
       xlink:href="#shape0"
       id="use1" />
    <use
       ffdec:characterId="594"
       height="48.150002"
       transform="translate(11.45,3.9)"
       width="40.599998"
       xlink:href="#shape1"
       id="use2" />
    <use
       ffdec:characterId="518"
       height="60.549999"
       transform="translate(-1.5,-1.5)"
       width="67.099998"
       xlink:href="#shape2"
       id="use3" />
  </g>
  <defs
     id="defs7">
    <g
       id="shape0">
      <path
         d="M 53.6,0 H 64.1 V 57.55 H 53.6 28.25 0 V 0 H 28.25 53.6 V 57.55 0 M 28.25,0 V 57.55 0"
         fill="#ffffff"
         fill-rule="evenodd"
         stroke="none"
         id="path3" />
    </g>
    <g
       id="shape1"
       transform="translate(-11.45,-3.9)">
      <path
         d="m 45.8,47.5 -0.05,1.2 -0.6,1.4 -1.8,1 q -2.75,0.8 -7.4,0.9 l -9.35,-0.05 -2.9,-0.35 -2,-0.7 -1.1,-0.85 q -0.5,-0.6 -0.35,-1.3 0.2,-0.6 1.25,-1.1 5.1,-2.45 14.1,-2.65 4.6,0 7,0.7 l 2.1,0.8 1.1,1 M 25.8,8.8 26.75,7.95 27.25,7.05 27.5,6.4 27.55,6.1 q 0,-0.35 -0.5,-0.45 L 25.9,5.4 q -1,0.05 -1.55,1.3 l -0.1,0.2 -0.15,0.35 q -0.3,0.4 -0.65,0.2 L 23.25,7.4 23,7.25 22.25,7 21.65,6.85 21.15,6.95 20.3,7.35 19.65,8.1 q -0.6,0.9 -0.35,1.55 0.2,0.4 0.8,0.6 l 1.05,0.1 h 1.2 l 0.8,0.05 0.45,0.15 0.5,0.1 0.1,0.05 Q 24.6,9.8 25.8,8.8 M 23.3,5.55 24.35,4.45 Q 24.65,4.15 25,4 l 0.75,-0.1 1.2,0.05 1.4,0.65 q 0.6,0.45 0.75,1.2 l -0.2,1.4 -0.2,0.5 -1.15,1.55 -0.5,0.5 -1.25,0.95 -0.35,0.35 -0.2,0.65 0.05,0.2 q 0.1,0.55 -0.45,0.75 L 24,12.6 Q 23.6,12.25 23.35,12.2 L 23.05,12.15 22.8,11.95 20.25,11.9 Q 18.75,11.8 18.05,10.85 17.8,10.5 17.7,10 L 17.6,8.4 17.9,7.55 q 0.6,-1.2 1.95,-1.95 l 0.85,-0.35 0.25,-0.05 1.7,0.15 0.6,0.3 0.05,-0.1"
         fill="#999999"
         fill-rule="evenodd"
         stroke="none"
         id="path4" />
      <path
         d="m 39.1,25.1 q -0.45,3.4 -1.9,5 l -1.4,1.15 0.1,0.1 0.2,0.2 L 37,30.85 42.15,27 Q 41.9,25.95 42.1,24.4 l 0.3,-0.8 q 0.4,-0.4 0.9,-0.15 0.4,0.25 0.6,1.05 l 0.25,0.95 0.1,-0.05 Q 44.1,24.9 44.2,24 l 0.1,-0.85 q 0.1,-0.8 0.4,-1.1 0.25,-0.25 0.65,-0.25 0.4,0.05 0.6,0.35 l 0.2,0.35 0.15,-0.95 0.2,-0.6 q 0.25,-0.35 0.7,-0.35 0.45,0 0.7,0.35 l 0.15,0.6 0.25,1.6 0.65,0.1 q 0.9,0.3 1.15,1.35 l -0.15,1.3 q 0.55,0.5 0.75,1.1 l 0.1,0.6 q -0.15,0.65 -0.85,0.75 l -0.95,-0.3 -0.2,-0.1 0.05,0.05 0.3,0.65 q 0.1,0.4 -0.2,0.7 L 47.7,29.4 46.6,29 l -0.65,-0.35 -0.3,0.2 0.05,0.05 0.65,0.9 0.35,0.65 -0.05,0.75 q -0.3,0.45 -1,0.35 L 44.7,31 l -0.8,-0.6 -0.35,-0.3 -5.3,3 -0.55,0.3 q 1.1,1.5 1.85,3.2 1.25,3.1 0.75,6.3 l -0.2,0.9 1.75,-1.15 Q 42.7,41.7 42.9,40.7 l -0.05,-1 -0.4,-0.75 -0.6,-0.65 q -0.6,-0.75 -0.6,-1.85 0.05,-1 0.6,-1.85 1.05,-1.65 3.35,-1.9 l 1.9,0.3 q 0.75,0.4 1.15,1.3 0.3,-0.3 0.7,-0.45 l 2.3,0.15 q 0.8,0.65 0.8,1.9 l -0.25,1.15 -1.35,1.1 q -1,0.55 -1.25,1.1 0.95,0.65 2.15,0.55 0.1,0.75 -0.6,1.15 l -1.35,0.2 q -0.7,-0.1 -1.25,-0.6 -0.55,-0.5 -0.6,-1.15 -0.05,-0.8 0.65,-1.6 0.6,-0.7 1.1,-0.85 l 0.8,-0.35 q 0.5,-0.4 0.35,-0.75 l -0.3,-0.3 -0.5,-0.05 -0.8,0.55 -0.3,0.3 -0.2,0.45 -0.65,0.55 -0.85,-0.1 Q 46.5,37.05 46.3,36.3 l -0.45,-1.05 -1.2,0.1 q -0.65,0.35 -0.75,1 1.55,1.2 1.85,1.95 0.35,0.85 0.05,2.7 l -0.65,2.4 -1.5,1.9 -1.35,1.1 -1.75,0.75 -3.5,1.3 -0.7,0.25 -1.1,0.7 q -2.4,1.3 -6.9,1.1 -3.6,-0.3 -5.3,-1.45 -0.95,-0.7 -2,-2 l -1.2,-1.9 q -0.7,-1.45 -0.8,-3 l -0.4,0.25 -1.95,1.45 -0.15,0.15 0.05,0.05 1.3,1.1 q 0.85,0.7 0.75,1.15 -0.15,0.7 -1.25,0.6 l -2.55,-0.55 -1.6,-0.2 Q 12.35,46 11.9,45.5 11.25,44.75 11.55,43.9 l 0.45,-0.7 0.4,-0.75 0.4,-0.5 0.3,-0.65 1,-1.35 q 1.1,-1.5 1.9,-2 l 1.05,-0.2 0.45,0.5 -0.05,0.7 -0.25,0.35 -0.45,0.95 -0.05,0.15 2.1,-1.1 0.5,-0.2 0.15,-0.6 q 0.8,-2.85 3.25,-5.95 l 0.2,-0.2 Q 20.4,31.05 19.3,29.1 18.8,28.2 18.55,26.75 L 18.4,25.55 16.75,25.3 q -1.6,-0.35 -2.5,-1.3 -1.4,-1.5 -1.05,-4.1 0.1,-0.85 0.3,-1.25 l 0.55,-0.95 q 1.45,-2.15 3.9,-3 l 0.95,-0.25 1.45,0.3 q 1.1,0.4 1.65,1.1 l 0.1,-0.1 q 1.65,-1.4 3.55,-1.9 l 2.9,-0.45 1.75,-0.15 q 0.05,-0.6 0.4,-1.25 0.6,-1.1 2.1,-1.9 1.4,-0.75 3.2,-0.85 l 1.5,0.2 1.05,0.5 1.3,1 q 1,1.05 1.4,2.25 l 0.2,1.15 q 0.35,2.55 -1.25,4 -0.45,0.45 -1.6,0.9 l 0.6,2.3 q 0.2,1.4 -0.1,3.55 m -11.35,1.2 -0.25,0.85 q -0.1,0.6 -0.5,0.5 l -0.4,-0.4 q -0.25,-0.8 -0.05,-1.5 V 25.3 l -0.6,-0.05 -0.25,0.6 -0.2,1.35 q 0,0.8 0.5,1.25 0.5,0.5 1.2,0.4 0.75,-0.15 1.05,-0.8 l 0.4,-0.75 q 0.8,0.6 1.35,0.65 0.85,0.15 1.35,-0.5 l 0.3,-0.85 -0.05,-0.95 -0.75,-1 -0.45,-0.7 Q 30.05,23.6 29.6,23.8 29.2,24 29.25,24.35 l 0.2,0.3 0.8,0.85 0.4,0.55 -0.1,0.65 -1,-0.15 -0.65,-0.6 -0.6,-0.45 q -0.35,0.05 -0.55,0.8 m 4.25,-7.6 -0.05,0.15 -0.3,-0.1 -1.2,-0.1 -0.75,0.55 -0.5,0.75 Q 29,20.4 29.15,21 q 0.4,1.45 1.9,1.8 l 1,0.1 0.95,0.1 0.4,0.05 q 0.55,-0.1 0.5,-0.6 1.1,-0.8 1.65,-2.15 0.35,-0.9 0.2,-1.65 -0.2,-1 -0.9,-1.35 L 33.7,17.15 q -0.75,0.1 -1.15,0.5 L 32,18.7 m -7.3,2.55 Q 23.75,21.1 23,21.75 l -0.55,0.7 -0.65,-0.2 -0.9,0.1 -0.65,0.4 q -0.25,0.2 -0.35,0.65 -0.35,1.85 0.65,2.8 l 0.65,0.4 0.95,0.15 0.8,0.15 h 0.5 l 0.5,-0.4 0.85,-1.3 0.25,-0.8 0.05,-0.1 q 0.35,-0.75 0.25,-2.2 l -0.2,-0.65 -0.45,-0.2"
         fill="#030303"
         fill-rule="evenodd"
         stroke="none"
         id="path5" />
      <path
         d="m 24.7,21.25 0.45,0.2 0.2,0.65 q 0.1,1.45 -0.25,2.2 l -0.05,0.1 -0.25,0.8 -0.85,1.3 -0.5,0.4 h -0.5 L 22.15,26.75 21.2,26.6 20.55,26.2 q -1,-0.95 -0.65,-2.8 0.1,-0.45 0.35,-0.65 l 0.65,-0.4 0.9,-0.1 0.65,0.2 0.55,-0.7 q 0.75,-0.65 1.7,-0.5 M 32,18.7 32.55,17.65 q 0.4,-0.4 1.15,-0.5 l 1.15,0.15 q 0.7,0.35 0.9,1.35 0.15,0.75 -0.2,1.65 -0.55,1.35 -1.65,2.15 0.05,0.5 -0.5,0.6 L 33,23 l -0.95,-0.1 -1,-0.1 Q 29.55,22.45 29.15,21 29,20.4 29.2,19.95 l 0.5,-0.75 0.75,-0.55 1.2,0.1 0.3,0.1 L 32,18.7 m -4.25,7.6 q 0.2,-0.75 0.55,-0.8 l 0.6,0.45 0.65,0.6 1,0.15 0.1,-0.65 -0.4,-0.55 -0.8,-0.85 -0.2,-0.3 Q 29.2,24 29.6,23.8 q 0.45,-0.2 0.8,0.15 l 0.45,0.7 0.75,1 0.05,0.95 -0.3,0.85 Q 30.85,28.1 30,27.95 29.45,27.9 28.65,27.3 l -0.4,0.75 q -0.3,0.65 -1.05,0.8 -0.7,0.1 -1.2,-0.4 Q 25.5,28 25.5,27.2 l 0.2,-1.35 0.25,-0.6 0.6,0.05 v 0.45 q -0.2,0.7 0.05,1.5 l 0.4,0.4 q 0.4,0.1 0.5,-0.5 l 0.25,-0.85"
         fill="#ffffff"
         fill-rule="evenodd"
         stroke="none"
         id="path6" />
    </g>
    <g
       id="shape2"
       transform="translate(1.5,1.5)">
      <path
         d="M 0,23.8 V 0 H 64.1 V 23.8 57.55 H 0 Z"
         fill="none"
         stroke="#000000"
         stroke-linecap="round"
         stroke-linejoin="round"
         stroke-width="3"
         id="path7" />
    </g>
  </defs>
</svg>
