<?xml version="1.0" encoding="UTF-8" standalone="no"?>
<svg
   ffdec:objectType="frame"
   height="60.549999"
   width="67.099998"
   version="1.1"
   id="svg8"
   sodipodi:docname="658.svg"
   xmlns:inkscape="http://www.inkscape.org/namespaces/inkscape"
   xmlns:sodipodi="http://sodipodi.sourceforge.net/DTD/sodipodi-0.dtd"
   xmlns:xlink="http://www.w3.org/1999/xlink"
   xmlns="http://www.w3.org/2000/svg"
   xmlns:svg="http://www.w3.org/2000/svg"
   xmlns:ffdec="https://www.free-decompiler.com/flash">
  <sodipodi:namedview
     id="namedview8"
     pagecolor="#ffffff"
     bordercolor="#000000"
     borderopacity="0.25"
     inkscape:showpageshadow="2"
     inkscape:pageopacity="0.0"
     inkscape:pagecheckerboard="0"
     inkscape:deskcolor="#d1d1d1"
     fit-margin-top="5"
     fit-margin-left="5"
     fit-margin-right="5"
     fit-margin-bottom="5" />
  <g
     transform="translate(1.5,1.5)"
     id="g3">
    <use
       ffdec:characterId="516"
       height="57.549999"
       width="64.099998"
       xlink:href="#shape0"
       id="use1" />
    <use
       ffdec:characterId="1149"
       height="46.700001"
       transform="translate(0.75,6.65)"
       width="60.900002"
       xlink:href="#shape1"
       id="use2" />
    <use
       ffdec:characterId="518"
       height="60.549999"
       transform="translate(-1.5,-1.5)"
       width="67.099998"
       xlink:href="#shape2"
       id="use3" />
  </g>
  <defs
     id="defs8">
    <g
       id="shape0">
      <path
         d="M 53.6,0 H 64.1 V 57.55 H 53.6 28.25 0 V 0 H 28.25 53.6 V 57.55 0 M 28.25,0 V 57.55 0"
         fill="#ffffff"
         fill-rule="evenodd"
         stroke="none"
         id="path3" />
    </g>
    <g
       id="shape1"
       transform="translate(-0.75,-6.65)">
      <path
         d="m 53.3,17.3 q 0.1,2.8 -1,4.75 -0.95,1.75 -2.65,2.85 v 0.35 h 0.05 l 0.7,0.2 2.75,-0.5 0.85,-0.4 0.7,-0.65 0.8,-1.25 0.15,-0.9 0.15,-0.95 0.15,-0.2 -0.15,-0.35 -0.25,-0.75 -0.2,-1 q 0.1,-0.45 0.4,-0.5 0.35,-0.1 0.7,0.35 L 57,19 q 0.3,-0.2 0.55,-0.25 h 0.05 q 0.15,-1.05 0.45,-1.7 0.25,-0.5 0.6,-0.45 l 0.45,0.4 0.15,0.9 v 0.9 l 0.5,0.3 0.25,-0.35 0.7,-0.45 0.8,0.15 0.15,0.7 -1.1,1.9 q 0.1,1.95 -1.15,3.7 -1.15,1.55 -3.25,2.65 -1.75,1 -3.25,1.05 H 52 l 0.3,0.65 0.2,1 0.15,1.5 q -0.15,1.35 -1.95,3.05 0.35,0.5 0.25,1.15 -0.1,0.7 -0.6,1.1 -0.65,0.5 -2.2,0.45 L 47.5,37.3 47.35,37.5 46.4,38.65 44.95,38.8 44.1,38.65 q -0.8,0.7 -2.25,0.4 -1.1,-0.35 -1.5,-0.95 h -0.1 l -1.05,0.25 -1.25,0.15 -1.4,-0.3 -0.65,-0.65 -0.35,-0.7 q -0.1,-0.65 0.4,-1.25 l -1,-1.35 -0.45,-0.95 q -1.8,0.55 -2.75,1.1 l -1.65,1.2 0.65,-0.15 1.35,-0.05 1.35,0.4 0.85,1 q 0.3,1.1 -0.55,1.9 -0.75,0.75 -1.9,0.85 -1.2,0.25 -2.1,-0.25 -1,-0.05 -2.15,-0.65 L 26.75,38 Q 26.5,37.6 26.5,36.75 l 0.1,-1.5 0.6,-1 q 1.1,-1.45 3.15,-2.45 l 3.85,-1.4 0.5,-0.15 0.4,-0.65 q 0.65,-0.95 1.6,-1.45 l 0.85,-0.75 0.1,-0.6 0.25,-0.85 0.45,-0.9 L 37.2,24.2 Q 36,23.15 35.35,21.65 34.7,20.1 34.9,18.6 q 0.05,-0.9 0.55,-2.2 0.45,-1.2 0.8,-1.7 l 0.4,-0.5 -0.45,-0.8 q -0.15,-0.3 -0.15,-1.05 0,-1 0.15,-1.45 l 0.75,-1.6 0.3,-0.85 0.4,-0.9 Q 38,7.1 38.65,7 39.2,6.9 39.7,7.3 l 0.65,0.8 0.8,1.5 0.6,0.8 5.4,-0.15 0.25,-0.3 1.9,-2.1 q 0.6,-0.9 1.05,-1.1 0.4,-0.15 0.8,0 l 0.6,0.5 0.3,1 0.4,1.35 0.3,1.4 0.1,1 0.1,1.8 0.1,0.8 v 0.2 l 0.25,2.5 m 3.75,5 q -0.1,0.75 0.55,1.15 l 1.25,-0.15 q 0.55,-0.5 0.3,-1.2 -0.25,-0.65 -1,-0.75 l -0.1,0.05 q -0.7,0 -0.95,0.65 L 57.05,22.3 M 57,20.2 56.65,20.3 56.4,20.7 v 0.35 q 0.05,0.35 0.5,0.5 L 57.15,21.6 57.4,21.5 57.7,21.15 57.65,20.5 57.1,20.15 57,20.2 m 2.15,0.75 v 0.15 l -0.05,0.1 0.05,0.1 0.2,0.3 0.2,0.05 0.4,-0.15 0.15,-0.3 v -0.15 l -0.2,-0.3 -0.25,-0.1 H 59.5 l -0.15,0.1 -0.2,0.2 M 59.1,20.45 59.2,20.1 59.15,19.85 Q 59,19.5 58.55,19.4 v 0.05 q -0.4,0 -0.55,0.25 l -0.1,0.4 0.1,0.35 0.45,0.3 q 0.5,0 0.65,-0.3 M 43.2,20.9 h -0.55 l -0.5,-0.3 q -0.1,-0.2 0.1,-0.7 0.2,-0.5 -0.05,-0.7 -0.2,-0.2 -0.55,0 -0.25,0.15 -0.35,0.5 -0.5,1.15 -0.1,1.85 0.25,0.4 0.7,0.6 1.35,0.7 2.4,-0.35 1,0.95 2.25,0.35 1.2,-0.6 1.2,-1.95 0,-0.5 -0.35,-0.8 l -0.45,-0.15 -0.4,0.2 q -0.15,0.3 -0.05,0.95 -0.1,0.55 -0.65,0.55 -0.3,0 -0.95,-0.55 -0.6,-0.5 -1,-0.25 l -0.35,0.35 -0.35,0.4 m -3.3,-1.4 q 0.7,-0.3 1.05,-1 L 41.2,17.8 H 41.15 Q 39.2,17.4 38.6,16.35 l -0.2,-0.7 q -0.85,0.25 -1.15,1.2 l -0.1,0.75 0.15,0.8 q 0.25,0.8 1.05,1.05 l 1.55,0.05 m 7.85,-1.5 0.55,0.65 q 0.9,0.65 1.9,0.35 1.05,-0.3 1.3,-1.4 0.35,-1.2 -0.55,-2 l -0.45,-0.3 -0.5,0.75 -0.65,0.55 -1.6,1.05 -0.1,0.05 0.1,0.3"
         fill="#999999"
         fill-rule="evenodd"
         stroke="none"
         id="path4" />
      <path
         d="m 47.75,18 -0.1,-0.3 0.1,-0.05 1.6,-1.05 0.65,-0.55 0.5,-0.75 0.45,0.3 q 0.9,0.8 0.55,2 -0.25,1.1 -1.3,1.4 -1,0.3 -1.9,-0.35 L 47.75,18 M 39.9,19.5 38.35,19.45 Q 37.55,19.2 37.3,18.4 l -0.15,-0.8 0.1,-0.75 q 0.3,-0.95 1.15,-1.2 l 0.2,0.7 q 0.6,1.05 2.55,1.45 h 0.05 l -0.25,0.7 q -0.35,0.7 -1.05,1 m 3.3,1.4 0.35,-0.4 0.35,-0.35 q 0.4,-0.25 1,0.25 0.65,0.55 0.95,0.55 0.55,0 0.65,-0.55 -0.1,-0.65 0.05,-0.95 l 0.4,-0.2 0.45,0.15 q 0.35,0.3 0.35,0.8 0,1.35 -1.2,1.95 -1.25,0.6 -2.25,-0.35 -1.05,1.05 -2.4,0.35 -0.45,-0.2 -0.7,-0.6 -0.4,-0.7 0.1,-1.85 0.1,-0.35 0.35,-0.5 0.35,-0.2 0.55,0 0.25,0.2 0.05,0.7 -0.2,0.5 -0.1,0.7 l 0.5,0.3 h 0.55 m 15.9,-0.45 q -0.15,0.3 -0.65,0.3 L 58,20.45 57.9,20.1 58,19.7 q 0.15,-0.25 0.55,-0.25 V 19.4 q 0.45,0.1 0.6,0.45 l 0.05,0.25 -0.1,0.35 m 0.05,0.5 0.2,-0.2 0.15,-0.1 h 0.15 l 0.25,0.1 0.2,0.3 v 0.15 l -0.15,0.3 -0.4,0.15 -0.2,-0.05 -0.2,-0.3 -0.05,-0.1 0.05,-0.1 V 20.95 M 57,20.2 l 0.1,-0.05 0.55,0.35 0.05,0.65 -0.3,0.35 -0.25,0.1 -0.25,-0.05 Q 56.45,21.4 56.4,21.05 V 20.7 L 56.65,20.3 57,20.2 m 0.05,2.1 0.05,-0.25 q 0.25,-0.65 0.95,-0.65 l 0.1,-0.05 q 0.75,0.1 1,0.75 0.25,0.7 -0.3,1.2 l -1.25,0.15 q -0.65,-0.4 -0.55,-1.15"
         fill="#ffffff"
         fill-rule="evenodd"
         stroke="none"
         id="path5" />
      <path
         d="m 31.7,25.2 q 0.1,3.5 -1.3,6 -1.2,2.2 -3.35,3.6 l 0.05,0.4 h 0.05 l 0.85,0.25 3.5,-0.6 1.05,-0.5 0.9,-0.85 1,-1.55 0.2,-1.15 0.2,-1.2 0.15,-0.25 -0.15,-0.45 -0.3,-0.95 q -0.3,-0.8 -0.25,-1.25 0.1,-0.55 0.45,-0.6 0.45,-0.15 0.9,0.4 l 0.7,0.85 0.7,-0.35 h 0.05 q 0.2,-1.3 0.55,-2.1 0.35,-0.65 0.8,-0.6 0.35,0 0.55,0.5 l 0.2,1.15 v 1.15 l 0.6,0.35 0.35,-0.4 q 0.5,-0.45 0.85,-0.6 0.7,-0.2 1,0.2 0.3,0.35 0.2,0.9 l -1.4,2.4 q 0.15,2.4 -1.45,4.65 -1.45,1.95 -4.1,3.35 -2.2,1.25 -4.05,1.3 h -1.15 l 0.35,0.8 0.3,1.3 0.15,1.85 q -0.15,1.75 -2.45,3.85 0.45,0.65 0.3,1.5 -0.1,0.85 -0.75,1.35 -0.8,0.65 -2.75,0.55 L 24.35,50.4 24.2,50.65 q -0.6,1.15 -1.25,1.45 l -1.8,0.2 -1.05,-0.2 q -1.05,0.9 -2.85,0.5 -1.4,-0.4 -1.9,-1.2 H 15.2 l -1.3,0.35 -1.55,0.2 q -1.25,0 -1.8,-0.4 l -0.8,-0.8 Q 9.35,50.25 9.3,49.85 9.15,49 9.8,48.25 L 8.55,46.6 7.95,45.35 Q 5.7,46.05 4.5,46.75 L 2.4,48.25 3.25,48.1 4.95,48 q 0.9,0.05 1.7,0.5 0.8,0.5 1.05,1.3 0.4,1.4 -0.7,2.4 -0.9,0.9 -2.35,1.05 l -2.7,-0.3 -1.2,-0.2 v -8.1 l 2,-1.2 Q 4.3,42.7 7.6,41.7 L 8.25,41.55 Q 8.4,41.1 8.7,40.7 9.55,39.5 10.75,38.85 l 1.05,-0.9 0.15,-0.8 0.3,-1.05 0.55,-1.15 -1.4,-1.05 q -1.55,-1.35 -2.35,-3.2 -0.8,-1.95 -0.6,-3.9 0.1,-1.1 0.7,-2.75 0.6,-1.5 1.05,-2.15 L 10.7,21.25 10.1,20.3 Q 9.95,19.9 9.95,18.95 9.95,17.7 10.1,17.1 l 0.95,-2 0.4,-1.1 q 0.2,-0.7 0.5,-1.1 0.45,-0.55 1.25,-0.7 0.7,-0.1 1.35,0.4 l 0.8,1 1,1.9 0.75,1 6.8,-0.2 0.35,-0.35 2.4,-2.65 q 0.75,-1.15 1.3,-1.4 0.5,-0.2 1,0 l 0.8,0.6 0.35,1.25 0.5,1.75 0.4,1.75 0.1,1.25 0.1,0.85 -0.05,0.75 0.1,0.7 0.1,1 v 0.25 q 0.35,1.4 0.35,3.15 m 7.55,4.65 v 0.2 l -0.1,0.15 0.1,0.1 0.25,0.4 0.25,0.05 0.5,-0.2 0.2,-0.35 V 30 l -0.3,-0.4 -0.3,-0.1 h -0.2 l -0.15,0.1 -0.25,0.25 M 36.6,31.6 q -0.15,0.9 0.65,1.45 0.9,0.4 1.6,-0.2 0.7,-0.65 0.4,-1.55 -0.35,-0.8 -1.3,-0.9 l -0.1,0.05 q -0.9,0 -1.2,0.8 L 36.6,31.6 m -0.1,-2.65 -0.45,0.1 -0.3,0.5 V 30 q 0.05,0.45 0.65,0.65 l 0.3,0.05 0.3,-0.15 0.4,-0.45 -0.05,-0.8 -0.7,-0.45 -0.15,0.1 m 2.65,0.3 0.15,-0.45 -0.05,-0.3 q -0.2,-0.45 -0.8,-0.6 V 28 q -0.5,0 -0.65,0.3 -0.15,0.2 -0.15,0.5 0,0.3 0.15,0.45 l 0.55,0.35 q 0.6,0 0.8,-0.35 M 19.1,29.8 h -0.7 q -0.45,0 -0.6,-0.35 -0.15,-0.25 0.1,-0.9 0.25,-0.65 -0.05,-0.9 -0.25,-0.25 -0.7,0 L 16.7,28.3 q -0.65,1.45 -0.1,2.35 l 0.85,0.75 q 1.7,0.85 3.05,-0.45 1.25,1.2 2.85,0.45 1.5,-0.75 1.5,-2.45 0,-0.65 -0.45,-1.05 l -0.55,-0.15 q -0.4,0 -0.5,0.25 -0.2,0.35 -0.1,1.2 -0.1,0.65 -0.8,0.65 L 21.25,29.2 Q 20.5,28.55 20,28.85 l -0.45,0.45 -0.45,0.5 m -4.15,-1.75 q 0.85,-0.4 1.3,-1.25 L 16.6,25.9 H 16.5 Q 14.05,25.4 13.3,24.05 L 13.05,23.2 q -1.1,0.3 -1.45,1.5 l -0.15,0.95 0.2,1 q 0.3,1 1.35,1.35 l 1.95,0.05 m 9.9,-1.9 0.7,0.8 q 1.1,0.85 2.4,0.45 1.3,-0.35 1.6,-1.75 Q 30,24.15 28.9,23.1 28.65,22.85 28.3,22.75 l -0.6,0.95 -0.85,0.7 -2,1.3 -0.15,0.05 0.15,0.4"
         fill="#000000"
         fill-rule="evenodd"
         stroke="none"
         id="path6" />
      <path
         d="m 24.85,26.15 -0.15,-0.4 0.15,-0.05 2,-1.3 0.85,-0.7 0.6,-0.95 q 0.35,0.1 0.6,0.35 1.1,1.05 0.65,2.55 -0.3,1.4 -1.6,1.75 -1.3,0.4 -2.4,-0.45 l -0.7,-0.8 m -9.9,1.9 L 13,28 q -1.05,-0.35 -1.35,-1.35 l -0.2,-1 0.15,-0.95 q 0.35,-1.2 1.45,-1.5 l 0.25,0.85 q 0.75,1.35 3.2,1.85 h 0.1 l -0.35,0.9 q -0.45,0.85 -1.3,1.25 M 19.1,29.8 19.55,29.3 20,28.85 q 0.5,-0.3 1.25,0.35 l 1.2,0.65 q 0.7,0 0.8,-0.65 -0.1,-0.85 0.1,-1.2 0.1,-0.25 0.5,-0.25 l 0.55,0.15 q 0.45,0.4 0.45,1.05 0,1.7 -1.5,2.45 -1.6,0.75 -2.85,-0.45 -1.35,1.3 -3.05,0.45 L 16.6,30.65 q -0.55,-0.9 0.1,-2.35 l 0.45,-0.65 q 0.45,-0.25 0.7,0 0.3,0.25 0.05,0.9 -0.25,0.65 -0.1,0.9 0.15,0.35 0.6,0.35 h 0.7 m 20.05,-0.55 q -0.2,0.35 -0.8,0.35 L 37.8,29.25 q -0.15,-0.15 -0.15,-0.45 0,-0.3 0.15,-0.5 0.15,-0.3 0.65,-0.3 v -0.1 q 0.6,0.15 0.8,0.6 l 0.05,0.3 -0.15,0.45 m -2.65,-0.3 0.15,-0.1 0.7,0.45 0.05,0.8 -0.4,0.45 -0.3,0.15 -0.3,-0.05 Q 35.8,30.45 35.75,30 v -0.45 l 0.3,-0.5 0.45,-0.1 m 0.1,2.65 0.05,-0.35 q 0.3,-0.8 1.2,-0.8 l 0.1,-0.05 q 0.95,0.1 1.3,0.9 0.3,0.9 -0.4,1.55 -0.7,0.6 -1.6,0.2 -0.8,-0.55 -0.65,-1.45 m 2.65,-1.75 0.25,-0.25 0.15,-0.1 h 0.2 l 0.3,0.1 0.3,0.4 v 0.2 l -0.2,0.35 -0.5,0.2 -0.25,-0.05 -0.25,-0.4 -0.1,-0.1 0.1,-0.15 v -0.2"
         fill="#ffffff"
         fill-rule="evenodd"
         stroke="none"
         id="path7" />
    </g>
    <g
       id="shape2"
       transform="translate(1.5,1.5)">
      <path
         d="M 0,23.8 V 0 H 64.1 V 23.8 57.55 H 0 Z"
         fill="none"
         stroke="#000000"
         stroke-linecap="round"
         stroke-linejoin="round"
         stroke-width="3"
         id="path8" />
    </g>
  </defs>
</svg>
