<?xml version="1.0" encoding="UTF-8" standalone="no"?>
<svg
   ffdec:objectType="frame"
   height="60.549999"
   width="67.099998"
   version="1.1"
   id="svg8"
   sodipodi:docname="293.svg"
   xmlns:inkscape="http://www.inkscape.org/namespaces/inkscape"
   xmlns:sodipodi="http://sodipodi.sourceforge.net/DTD/sodipodi-0.dtd"
   xmlns:xlink="http://www.w3.org/1999/xlink"
   xmlns="http://www.w3.org/2000/svg"
   xmlns:svg="http://www.w3.org/2000/svg"
   xmlns:ffdec="https://www.free-decompiler.com/flash">
  <sodipodi:namedview
     id="namedview8"
     pagecolor="#ffffff"
     bordercolor="#000000"
     borderopacity="0.25"
     inkscape:showpageshadow="2"
     inkscape:pageopacity="0.0"
     inkscape:pagecheckerboard="0"
     inkscape:deskcolor="#d1d1d1"
     fit-margin-top="5"
     fit-margin-left="5"
     fit-margin-right="5"
     fit-margin-bottom="5" />
  <g
     transform="translate(1.5,1.5)"
     id="g3">
    <use
       ffdec:characterId="516"
       height="57.549999"
       width="64.099998"
       xlink:href="#shape0"
       id="use1" />
    <use
       ffdec:characterId="796"
       height="57.549999"
       width="64.099998"
       xlink:href="#shape1"
       id="use2" />
    <use
       ffdec:characterId="518"
       height="60.549999"
       transform="translate(-1.5,-1.5)"
       width="67.099998"
       xlink:href="#shape2"
       id="use3" />
  </g>
  <defs
     id="defs8">
    <g
       id="shape0">
      <path
         d="M 53.6,0 H 64.1 V 57.55 H 53.6 28.25 0 V 0 H 28.25 53.6 V 57.55 0 M 28.25,0 V 57.55 0"
         fill="#ffffff"
         fill-rule="evenodd"
         stroke="none"
         id="path3" />
    </g>
    <g
       id="shape1">
      <path
         d="M 59.25,15.05 H 59 58.9 l -0.15,0.05 -0.15,0.1 -0.1,0.05 -0.1,0.05 -0.45,0.45 -0.45,0.8 -0.2,0.5 q -0.1,0.3 0.05,0.45 0.3,0.3 0.65,0.25 l 0.4,-0.3 v 0.1 0.1 0.15 0.1 0.15 0.1 0.15 0.1 0.1 l 0.05,0.05 v 0.1 0.3 l 0.05,0.1 v 0.15 0.1 0.15 0.1 0.15 0.1 0.15 0.1 0.2 0.1 0.15 0.1 0.05 0.1 0.1 0.1 0.2 0.1 0.15 0.1 0.05 l 0.05,0.05 v 0.05 0.1 0.05 l 0.05,0.05 v 0.05 0.1 0.15 0.1 0.15 0.1 0.05 0.1 0.15 l -0.05,0.1 0.05,0.05 V 23 l 0.05,0.05 0.05,0.1 v 0.15 0.1 0.05 l 0.05,0.05 v 0.05 0.1 0.1 l 0.1,0.1 0.15,0.1 0.25,0.05 0.15,-0.05 h 0.05 l 0.1,-0.05 0.1,-0.05 0.05,-0.05 v -0.1 l 0.05,-0.05 v -0.1 -0.1 L 59.8,23.4 V 23.3 23.2 23.15 23.05 22.9 22.8 22.75 L 59.85,22.7 V 22.65 22.55 22.4 22.3 22.25 L 59.9,22.2 v -0.05 -0.1 -0.2 -0.1 -0.15 l 0.05,-0.1 V 21.4 21.3 21.25 21.15 21 L 60,20.95 v -0.1 -0.15 -0.1 -0.15 -0.1 -0.15 -0.1 -0.15 -0.1 -0.15 -0.1 -0.1 -0.1 -0.1 -0.1 -0.15 -0.1 -0.15 -0.1 -0.15 l 0.05,-0.1 v -0.2 -0.1 -0.15 -0.1 -0.15 -0.1 -0.3 -0.1 l 0.35,0.15 0.75,0.15 q 0.4,-0.1 0.2,-0.4 l -0.25,-0.4 -0.15,-0.6 -0.5,-0.7 -0.55,-0.25 -0.15,-0.1 -0.2,-0.05 h -0.3 m -8.45,-2.8 0.5,-0.9 -0.1,-1 q -0.25,-0.5 -0.8,-0.7 l -1,-0.05 -1.3,1.15 q -0.35,0.35 -1.5,1.1 L 45.2,13 q -0.35,0.6 -0.05,0.75 l 0.45,0.05 3.8,-1 1.4,-0.55 M 49,2.2 48.15,3 44.4,7.55 q -0.25,0.25 -0.25,0.55 0.1,0.45 0.55,0.35 l 0.65,-0.25 2,-1.6 q 1.2,-1.1 2,-1.55 L 50.75,4 Q 51.15,3.15 50.55,2.45 49.85,1.75 49,2.2 M 20.9,22.1 q 0.9,2.65 4.1,4.15 l -0.15,0.1 q -4.5,3.35 -7.5,5.05 -1.65,0.95 -2.65,1.15 l -2,0.4 q -0.95,0.35 -1.65,1.15 -0.65,0.85 -0.8,1.9 -0.1,0.95 0.35,1.8 0.5,0.9 1.35,1.2 l 1.75,-0.05 1.6,-0.6 1.1,-0.65 5.65,-4.8 -0.2,0.45 -0.75,2.45 -1.25,2.8 -1.25,2.8 q -0.3,0.8 -0.25,1.35 0.1,0.65 0.8,0.95 l 1.3,-0.15 0.65,-0.95 1,0.4 6.25,0.6 3.5,0.05 h 0.1 l 3.55,-0.05 6.2,-0.6 1.05,-0.4 0.65,0.95 1.25,0.15 q 0.7,-0.3 0.8,-0.95 L 45.2,41.4 44,38.6 42.75,35.8 41.95,33.35 41.8,32.9 q 2.9,2.85 5.65,4.8 l 1.05,0.65 1.6,0.6 1.75,0.05 q 0.9,-0.3 1.35,-1.2 0.5,-0.85 0.35,-1.8 -0.15,-1.05 -0.8,-1.9 -0.7,-0.8 -1.65,-1.15 l -2,-0.4 q -0.95,-0.2 -2.6,-1.15 -3.05,-1.7 -7.55,-5.05 l -0.15,-0.1 q 3.25,-1.5 4.1,-4.15 0.4,-1.15 0.3,-2.95 Q 43.15,17 42.65,15.75 L 42.6,15.6 42.65,15.2 42.9,12.95 43,11.25 42.85,10 42.65,9.4 q -0.3,-0.45 -0.8,-0.55 l -0.8,0.1 -1.3,0.25 Q 38.2,9.6 37.4,10 35.25,8.85 32.3,8.75 H 32 31.55 V 8.8 Q 28.6,8.85 26.4,10 L 24.05,9.2 22.8,8.95 22,8.85 q -0.55,0.1 -0.8,0.55 l -0.25,0.6 -0.1,1.25 0.05,1.7 0.25,2.25 0.1,0.4 -0.1,0.15 q -0.45,1.25 -0.55,3.4 -0.05,1.8 0.3,2.95 m 30.6,-5.65 -0.15,0.8 -0.3,0.9 L 50.3,18 49.5,17.8 q -0.25,0 -0.65,0.3 l -0.3,0.4 0.05,0.5 0.75,0.8 1.05,0.5 -0.45,1.05 -0.2,0.75 q -0.1,0.45 0.15,0.75 0.4,0.55 1.1,0.35 l 1.05,-0.6 q 0.7,-0.5 1,-0.6 l 0.85,1 1.2,0.05 q 0.35,-0.3 0.25,-1.05 l -0.4,-1.1 v -0.4 l 0.25,-0.2 0.6,-0.25 q 0.95,-0.2 1.1,-0.65 0.2,-0.6 -0.5,-1 l -1.15,-0.3 -1.4,-0.2 -0.4,-1.15 -0.4,-0.65 Q 52.7,15.75 52.2,15.85 51.75,15.9 51.5,16.45 M 40.25,15.4 40.9,16.05 q 0.55,0.85 0.55,1.5 0.05,0.8 -0.55,1.35 l -0.15,0.15 -1.55,0.5 -1.5,-0.5 -0.75,-0.9 Q 36.3,17 36.95,16.1 l 0.65,-0.65 0.5,-0.25 1.8,0.05 0.35,0.15 m 4.4,9.05 2.85,2.4 0.9,0.5 0.9,0.65 0.75,0.4 0.4,0.4 0.8,0.5 1,0.25 Q 53.05,29.5 53.5,28.7 53.85,27.9 53.3,27.25 53,26.8 51.9,26.4 l -2.55,-0.9 -2.2,-0.9 -0.85,-0.45 -1,-0.25 -0.7,-0.25 -0.2,0.3 0.25,0.5 M 36.7,8.1 l 1.2,-0.7 1,-1 0.8,-0.55 Q 40.25,5.3 39.9,4.5 39.55,3.85 38.75,3.85 38,3.95 37.65,4.6 l -0.2,0.7 -1.15,2.05 q -0.2,0.5 0.05,0.7 L 36.7,8.1 m -8.85,0 0.35,-0.05 q 0.25,-0.2 0.05,-0.7 L 27.1,5.3 26.9,4.6 Q 26.55,3.95 25.8,3.85 25,3.85 24.65,4.5 24.3,5.3 24.85,5.85 l 0.8,0.55 1,1 q 0.75,0.65 1.2,0.7 m 4.3,1.8 0.05,0.05 0.1,0.05 h 0.05 v 0.05 h 0.05 l 0.15,0.1 0.1,0.05 0.05,0.05 0.1,0.05 v 0.1 l 0.1,0.05 0.05,0.1 V 10.6 L 33,10.65 v 0.05 0.1 0.05 l 0.05,0.1 L 33,11 v 0.1 0.1 0.05 0.1 0.1 0.05 0.1 0.05 0.1 0.1 h 0.9 l 0.1,-0.1 h 0.15 0.25 0.2 0.15 l 0.15,0.1 0.15,0.05 0.05,0.1 0.1,0.05 0.05,0.05 0.05,0.1 0.05,0.05 0.05,0.05 0.05,0.1 0.05,0.05 v 0.05 0.1 0.05 l 0.05,0.05 v 0.1 0.1 0.1 0.1 0.1 l -0.05,0.05 v 0.05 0.1 l -0.05,0.05 -0.05,0.05 -0.05,0.05 -0.05,0.1 -0.05,0.05 -0.05,0.1 -0.1,0.05 -0.05,0.1 H 34.9 l -0.15,0.1 H 34.6 l -0.2,0.05 -0.25,-0.05 h -0.1 -0.1 L 33,14 l 0.05,0.05 v 0.05 0.1 0.15 0.1 0.05 0.1 0.15 0.1 0.05 L 33.1,15 v 0.1 0.05 0.1 0.05 0.1 0.1 0.05 0.1 0.15 0.1 0.05 0.1 0.15 0.1 0.05 0.1 0.15 0.1 0.05 0.1 0.15 0.1 0.1 0.1 0.05 0.1 0.15 0.1 0.05 0.1 0.05 l -0.05,0.05 V 18 L 33,18.1 v 0.05 l -0.05,0.1 -0.05,0.05 -0.1,0.05 -0.05,0.05 -0.05,0.1 -0.1,0.05 -0.15,0.1 H 32.3 31.9 31.8 31.65 L 31.5,18.55 31.4,18.5 31.35,18.4 31.3,18.35 31.2,18.3 v -0.05 l -0.1,-0.1 V 18.1 L 31.05,18 v -0.15 -0.1 L 31,17.7 V 17.6 17.45 17.35 17.3 17.2 17.1 17 16.85 16.75 16.7 16.6 16.45 16.35 16.3 16.2 16.05 15.95 15.9 15.8 l 0.05,-0.05 V 15.65 15.55 15.5 15.4 15.3 15.25 15.15 15.1 15 14.9 14.85 14.75 14.6 14.5 14.45 14.35 14.2 14.1 14.05 L 31.1,14 30.15,14.05 h -0.1 -0.1 L 29.7,14.1 29.5,14.05 H 29.35 L 29.2,13.95 H 29.05 L 29,13.85 28.9,13.8 28.85,13.7 28.8,13.65 28.75,13.55 28.7,13.5 28.65,13.45 V 13.4 L 28.6,13.3 V 13.25 L 28.55,13.2 V 13.1 13 12.9 12.8 12.7 L 28.6,12.65 V 12.6 12.5 l 0.05,-0.05 V 12.4 l 0.05,-0.1 0.1,-0.1 0.05,-0.1 0.05,-0.05 0.1,-0.05 0.05,-0.1 0.15,-0.05 0.15,-0.1 h 0.15 0.2 0.25 0.15 l 0.15,0.1 h 0.4 0.45 v -0.1 -0.1 -0.05 -0.1 -0.05 -0.1 -0.1 V 11.2 11.1 11 l -0.05,-0.05 0.05,-0.1 V 10.8 10.7 10.65 l 0.1,-0.1 v -0.1 l 0.1,-0.05 0.05,-0.1 0.05,-0.05 0.05,-0.05 0.15,-0.05 0.15,-0.1 V 10 h 0.1 l 0.1,-0.1 h 0.2 m 1.2,-7.55 Q 33.05,1.65 32.2,1.55 31.35,1.55 31,2.3 30.75,2.85 31.05,4 l 0.7,2.85 0.2,0.4 h 0.4 L 32.5,6.9 33.3,3.85 33.35,2.35 m -9.5,13.05 0.35,-0.15 1.8,-0.05 0.5,0.25 0.65,0.65 q 0.65,0.9 0,2.05 l -0.75,0.9 -1.5,0.5 q -0.8,0 -1.5,-0.5 L 23.2,18.9 q -0.6,-0.55 -0.5,-1.35 0,-0.65 0.55,-1.5 l 0.6,-0.65 m -10.1,-3.15 q 0.5,0.35 1.4,0.55 l 3.8,1 0.45,-0.05 Q 19.7,13.6 19.35,13 l -1.4,-1.15 -1.5,-1.1 -1.3,-1.15 -1,0.05 q -0.55,0.2 -0.8,0.7 -0.2,0.45 -0.1,1 0.1,0.55 0.5,0.9 M 15.55,2.2 Q 14.7,1.75 14,2.45 13.4,3.15 13.8,4 l 1.4,1.05 2,1.55 2,1.6 0.65,0.25 Q 20.3,8.55 20.4,8.1 L 20.15,7.55 16.4,3 15.55,2.2 M 4.25,15.05 H 3.95 L 3.75,15.1 3.6,15.2 q -0.4,0 -0.55,0.25 l -0.5,0.7 -0.15,0.6 -0.25,0.4 q -0.2,0.3 0.2,0.4 L 3.1,17.4 q 0.2,-0.05 0.35,-0.15 v 0.1 0.3 0.1 0.15 0.1 0.15 0.1 0.2 l 0.05,0.1 v 0.15 0.1 0.15 0.1 0.15 0.1 0.1 0.1 0.1 0.1 0.15 0.1 0.15 0.1 0.15 0.1 0.15 0.1 0.15 0.1 L 3.55,21 v 0.15 0.1 0.05 0.1 0.1 l 0.05,0.1 v 0.15 0.1 0.2 0.1 0.05 l 0.05,0.05 v 0.05 0.1 0.15 0.1 0.05 l 0.05,0.05 v 0.05 0.1 0.15 0.1 0.05 0.1 0.1 l 0.05,0.05 v 0.1 0.1 L 3.8,23.7 v 0.1 l 0.05,0.05 0.1,0.05 0.1,0.05 H 4.1 L 4.25,24 4.5,23.95 l 0.15,-0.1 0.1,-0.1 v -0.1 -0.1 -0.05 L 4.8,23.45 V 23.4 23.3 23.15 L 4.85,23.05 4.9,23 V 22.95 L 4.95,22.9 4.9,22.8 V 22.65 22.55 22.5 22.4 22.25 22.15 22 21.9 21.85 L 4.95,21.8 V 21.75 21.65 21.6 L 5,21.55 v -0.05 -0.1 -0.15 -0.1 -0.2 -0.1 -0.1 -0.1 -0.05 -0.1 -0.15 -0.1 -0.2 -0.1 -0.15 -0.1 -0.15 -0.1 -0.15 -0.1 -0.15 l 0.05,-0.1 v -0.3 -0.1 L 5.1,18.5 v -0.1 -0.1 -0.15 -0.1 -0.15 -0.1 -0.15 -0.1 -0.1 L 5.5,17.75 6.15,17.5 6.2,17.05 6,16.55 5.55,15.75 5.1,15.3 5,15.25 4.9,15.2 4.75,15.1 4.6,15.05 H 4.5 4.25 m 15.65,9.4 0.25,-0.5 -0.2,-0.3 q -0.2,-0.05 -0.7,0.25 l -1,0.25 -0.85,0.45 -2.2,0.9 -2.55,0.9 q -1.1,0.4 -1.4,0.85 -0.55,0.65 -0.2,1.45 0.45,0.8 1.25,0.85 l 1,-0.25 0.8,-0.5 0.4,-0.4 0.75,-0.4 0.9,-0.65 0.9,-0.5 2.85,-2.4 m -7.9,-8 q -0.25,-0.55 -0.7,-0.6 -0.5,-0.1 -0.85,0.25 -0.25,0.25 -0.4,0.65 l -0.4,1.15 -1.4,0.2 -1.15,0.3 q -0.7,0.4 -0.5,1 0.15,0.45 1.1,0.65 l 0.6,0.25 0.25,0.2 v 0.4 L 8.15,22 q -0.1,0.75 0.25,1.05 L 9.6,23 l 0.85,-1 1,0.6 1.05,0.6 q 0.7,0.2 1.1,-0.35 0.25,-0.3 0.15,-0.75 L 13.55,21.35 13.1,20.3 14.15,19.8 14.9,19 14.95,18.5 14.65,18.1 14,17.8 13.2,18 12.45,18.15 12.15,17.25 12,16.45 M 0,0 H 64.1 V 57.55 H 0 V 0"
         fill="#767676"
         fill-rule="evenodd"
         stroke="none"
         id="path4" />
      <path
         d="m 59.25,15.05 h 0.3 l 0.2,0.05 0.15,0.1 0.55,0.25 0.5,0.7 0.15,0.6 0.25,0.4 q 0.2,0.3 -0.2,0.4 L 60.4,17.4 60.05,17.25 v 0.1 0.3 0.1 0.15 0.1 0.15 0.1 0.2 L 60,18.55 v 0.15 0.1 0.15 0.1 0.15 0.1 0.1 0.1 0.1 0.1 0.15 0.1 0.15 0.1 0.15 0.1 0.15 0.1 0.15 0.1 L 59.95,21 v 0.15 0.1 0.05 0.1 0.1 l -0.05,0.1 v 0.15 0.1 0.2 0.1 0.05 l -0.05,0.05 v 0.05 0.1 0.15 0.1 0.05 l -0.05,0.05 v 0.05 0.1 0.15 0.1 0.05 0.1 0.1 l -0.05,0.05 v 0.1 0.1 L 59.7,23.7 v 0.1 l -0.05,0.05 -0.1,0.05 -0.1,0.05 H 59.4 L 59.25,24 59,23.95 l -0.15,-0.1 -0.1,-0.1 v -0.1 -0.1 -0.05 L 58.7,23.45 V 23.4 23.3 23.15 L 58.65,23.05 58.6,23 V 22.95 L 58.55,22.9 58.6,22.8 V 22.65 22.55 22.5 22.4 22.25 22.15 22 21.9 21.85 L 58.55,21.8 V 21.75 21.65 21.6 L 58.5,21.55 v -0.05 -0.1 -0.15 -0.1 -0.2 -0.1 -0.1 -0.1 -0.05 -0.1 -0.15 -0.1 -0.2 -0.1 -0.15 -0.1 -0.15 -0.1 -0.15 -0.1 -0.15 l -0.05,-0.1 v -0.3 -0.1 L 58.4,18.5 v -0.1 -0.1 -0.15 -0.1 -0.15 -0.1 -0.15 -0.1 -0.1 L 58,17.75 Q 57.65,17.8 57.35,17.5 57.2,17.35 57.3,17.05 l 0.2,-0.5 0.45,-0.8 0.45,-0.45 0.1,-0.05 0.1,-0.05 0.15,-0.1 0.15,-0.05 H 59 59.25 M 49,2.2 q 0.85,-0.45 1.55,0.25 0.6,0.7 0.2,1.55 l -1.4,1.05 q -0.8,0.45 -2,1.55 l -2,1.6 -0.65,0.25 q -0.45,0.1 -0.55,-0.35 0,-0.3 0.25,-0.55 L 48.15,3 49,2.2 m 1.8,10.05 -1.4,0.55 -3.8,1 -0.45,-0.05 Q 44.85,13.6 45.2,13 l 1.4,-1.15 q 1.15,-0.75 1.5,-1.1 l 1.3,-1.15 1,0.05 q 0.55,0.2 0.8,0.7 l 0.1,1 -0.5,0.9 M 20.9,22.1 Q 20.55,20.95 20.6,19.15 20.7,17 21.15,15.75 L 21.25,15.6 21.15,15.2 20.9,12.95 20.85,11.25 20.95,10 21.2,9.4 Q 21.45,8.95 22,8.85 l 0.8,0.1 1.25,0.25 2.35,0.8 Q 28.6,8.85 31.55,8.8 V 8.75 H 32 32.3 q 2.95,0.1 5.1,1.25 0.8,-0.4 2.35,-0.8 l 1.3,-0.25 0.8,-0.1 q 0.5,0.1 0.8,0.55 l 0.2,0.6 0.15,1.25 -0.1,1.7 -0.25,2.25 -0.05,0.4 0.05,0.15 q 0.5,1.25 0.55,3.4 0.1,1.8 -0.3,2.95 -0.85,2.65 -4.1,4.15 l 0.15,0.1 q 4.5,3.35 7.55,5.05 1.65,0.95 2.6,1.15 l 2,0.4 q 0.95,0.35 1.65,1.15 0.65,0.85 0.8,1.9 0.15,0.95 -0.35,1.8 -0.45,0.9 -1.35,1.2 L 50.1,38.95 48.5,38.35 47.45,37.7 Q 44.7,35.75 41.8,32.9 l 0.15,0.45 0.8,2.45 1.25,2.8 1.2,2.8 0.25,1.35 q -0.1,0.65 -0.8,0.95 L 43.4,43.55 42.75,42.6 41.7,43 l -6.2,0.6 -3.55,0.05 h -0.1 L 28.35,43.6 22.1,43 l -1,-0.4 -0.65,0.95 -1.3,0.15 Q 18.45,43.4 18.35,42.75 18.3,42.2 18.6,41.4 l 1.25,-2.8 1.25,-2.8 0.75,-2.45 0.2,-0.45 -5.65,4.8 -1.1,0.65 -1.6,0.6 L 11.95,39 Q 11.1,38.7 10.6,37.8 10.15,36.95 10.25,36 q 0.15,-1.05 0.8,-1.9 0.7,-0.8 1.65,-1.15 l 2,-0.4 q 1,-0.2 2.65,-1.15 3,-1.7 7.5,-5.05 L 25,26.25 q -3.2,-1.5 -4.1,-4.15 m 30.6,-5.65 q 0.25,-0.55 0.7,-0.6 0.5,-0.1 0.85,0.25 l 0.4,0.65 0.4,1.15 1.4,0.2 1.15,0.3 q 0.7,0.4 0.5,1 -0.15,0.45 -1.1,0.65 l -0.6,0.25 -0.25,0.2 v 0.4 l 0.4,1.1 q 0.1,0.75 -0.25,1.05 L 53.9,23 53.05,22 q -0.3,0.1 -1,0.6 L 51,23.2 q -0.7,0.2 -1.1,-0.35 -0.25,-0.3 -0.15,-0.75 l 0.2,-0.75 0.45,-1.05 -1.05,-0.5 -0.75,-0.8 -0.05,-0.5 0.3,-0.4 q 0.4,-0.3 0.65,-0.3 l 0.8,0.2 0.75,0.15 0.3,-0.9 0.15,-0.8 M 40.25,15.4 39.9,15.25 38.1,15.2 37.6,15.45 36.95,16.1 q -0.65,0.9 0,2.05 l 0.75,0.9 1.5,0.5 1.55,-0.5 0.15,-0.15 q 0.6,-0.55 0.55,-1.35 0,-0.65 -0.55,-1.5 L 40.25,15.4 M 36.7,8.1 36.35,8.05 Q 36.1,7.85 36.3,7.35 l 1.15,-2.05 0.2,-0.7 q 0.35,-0.65 1.1,-0.75 0.8,0 1.15,0.65 0.35,0.8 -0.2,1.35 l -0.8,0.55 -1,1 -1.2,0.7 m 7.95,16.35 -0.25,-0.5 0.2,-0.3 0.7,0.25 1,0.25 0.85,0.45 2.2,0.9 2.55,0.9 q 1.1,0.4 1.4,0.85 0.55,0.65 0.2,1.45 -0.45,0.8 -1.25,0.85 l -1,-0.25 -0.8,-0.5 -0.4,-0.4 -0.75,-0.4 -0.9,-0.65 -0.9,-0.5 -2.85,-2.4 M 33.35,2.35 33.3,3.85 32.5,6.9 32.35,7.25 h -0.4 L 31.75,6.85 31.05,4 Q 30.75,2.85 31,2.3 q 0.35,-0.75 1.2,-0.75 0.85,0.1 1.15,0.8 m -1.2,7.55 h -0.2 l -0.1,0.1 h -0.1 v 0.05 l -0.15,0.1 -0.15,0.05 -0.05,0.05 -0.05,0.05 -0.05,0.1 -0.1,0.05 v 0.1 l -0.1,0.1 v 0.05 0.1 0.05 l -0.05,0.1 0.05,0.05 v 0.1 0.1 0.05 0.1 0.1 0.05 0.1 0.05 0.1 0.1 h -0.45 -0.4 L 30.1,11.75 H 29.95 29.7 29.5 29.35 L 29.2,11.85 29.05,11.9 29,12 l -0.1,0.05 -0.05,0.05 -0.05,0.1 -0.1,0.1 -0.05,0.1 v 0.05 L 28.6,12.5 v 0.1 0.05 l -0.05,0.05 v 0.1 0.1 0.1 0.1 0.1 l 0.05,0.05 v 0.05 l 0.05,0.1 v 0.05 l 0.05,0.05 0.05,0.05 0.05,0.1 0.05,0.05 0.05,0.1 0.1,0.05 0.05,0.1 h 0.15 l 0.15,0.1 h 0.15 l 0.2,0.05 0.25,-0.05 h 0.1 0.1 L 31.1,14 31.05,14.05 v 0.05 0.1 0.15 0.1 0.05 0.1 0.15 0.1 0.05 0.1 0.1 0.05 0.1 0.05 0.1 0.1 0.05 0.1 0.1 L 31,15.8 v 0.1 0.05 0.1 0.15 0.1 0.05 0.1 0.15 0.1 0.05 0.1 0.15 0.1 0.1 0.1 0.05 0.1 0.15 0.1 l 0.05,0.05 v 0.1 0.15 l 0.05,0.1 v 0.05 l 0.1,0.1 v 0.05 l 0.1,0.05 0.05,0.05 0.05,0.1 0.1,0.05 0.15,0.1 h 0.15 0.1 0.4 0.15 l 0.15,-0.1 0.1,-0.05 0.05,-0.1 0.05,-0.05 0.1,-0.05 0.05,-0.05 0.05,-0.1 V 18.1 L 33.05,18 V 17.95 L 33.1,17.9 V 17.85 17.75 17.7 17.6 17.45 17.35 17.3 17.2 17.1 17 16.85 16.75 16.7 16.6 16.45 16.35 16.3 16.2 16.05 15.95 15.9 15.8 15.65 15.55 15.5 15.4 15.3 15.25 15.15 15.1 15 L 33.05,14.9 V 14.85 14.75 14.6 14.5 14.45 14.35 14.2 14.1 14.05 L 33,14 l 0.95,0.05 h 0.1 0.1 l 0.25,0.05 0.2,-0.05 h 0.15 l 0.15,-0.1 h 0.15 l 0.05,-0.1 0.1,-0.05 0.05,-0.1 0.05,-0.05 0.05,-0.1 0.05,-0.05 0.05,-0.05 0.05,-0.05 V 13.3 13.25 L 35.55,13.2 V 13.1 13 12.9 12.8 12.7 L 35.5,12.65 V 12.6 12.5 12.45 L 35.45,12.4 35.4,12.3 35.35,12.25 35.3,12.2 35.25,12.1 35.2,12.05 35.1,12 35.05,11.9 34.9,11.85 34.75,11.75 H 34.6 34.4 34.15 34 l -0.1,0.1 H 33 v -0.1 -0.1 -0.05 -0.1 -0.05 -0.1 -0.1 V 11.2 11.1 11 L 33.05,10.95 33,10.85 V 10.8 10.7 10.65 L 32.95,10.6 V 10.55 L 32.9,10.45 32.8,10.4 V 10.3 L 32.7,10.25 32.65,10.2 32.55,10.15 32.4,10.05 H 32.35 V 10 H 32.3 L 32.2,9.95 32.15,9.9 M 27.85,8.1 Q 27.4,8.05 26.65,7.4 l -1,-1 -0.8,-0.55 Q 24.3,5.3 24.65,4.5 25,3.85 25.8,3.85 q 0.75,0.1 1.1,0.75 l 0.2,0.7 1.15,2.05 q 0.2,0.5 -0.05,0.7 L 27.85,8.1 m -4,7.3 -0.6,0.65 q -0.55,0.85 -0.55,1.5 -0.1,0.8 0.5,1.35 l 0.2,0.15 q 0.7,0.5 1.5,0.5 l 1.5,-0.5 0.75,-0.9 Q 27.8,17 27.15,16.1 L 26.5,15.45 26,15.2 24.2,15.25 23.85,15.4 M 15.55,2.2 16.4,3 20.15,7.55 20.4,8.1 Q 20.3,8.55 19.85,8.45 L 19.2,8.2 17.2,6.6 15.2,5.05 13.8,4 Q 13.4,3.15 14,2.45 14.7,1.75 15.55,2.2 m -1.8,10.05 q -0.4,-0.35 -0.5,-0.9 -0.1,-0.55 0.1,-1 0.25,-0.5 0.8,-0.7 l 1,-0.05 1.3,1.15 1.5,1.1 1.4,1.15 q 0.35,0.6 0.05,0.75 l -0.45,0.05 -3.8,-1 q -0.9,-0.2 -1.4,-0.55 m -9.5,2.8 H 4.5 4.6 L 4.75,15.1 4.9,15.2 5,15.25 5.1,15.3 5.55,15.75 6,16.55 6.2,17.05 6.15,17.5 5.5,17.75 5.1,17.45 v 0.1 0.1 0.15 0.1 0.15 0.1 0.15 0.1 0.1 l -0.05,0.05 v 0.1 0.3 L 5,19.05 v 0.15 0.1 0.15 0.1 0.15 0.1 0.15 0.1 0.2 0.1 0.15 0.1 0.05 0.1 0.1 0.1 0.2 0.1 0.15 0.1 0.05 L 4.95,21.6 v 0.05 0.1 0.05 L 4.9,21.85 v 0.05 0.1 0.15 0.1 0.15 0.1 0.05 0.1 0.15 L 4.95,22.9 4.9,22.95 V 23 l -0.05,0.05 -0.05,0.1 v 0.15 0.1 0.05 L 4.75,23.5 v 0.05 0.1 0.1 L 4.65,23.85 4.5,23.95 4.25,24 4.1,23.95 H 4.05 L 3.95,23.9 3.85,23.85 3.8,23.8 V 23.7 L 3.75,23.65 v -0.1 -0.1 L 3.7,23.4 V 23.3 23.2 23.15 23.05 22.9 22.8 22.75 L 3.65,22.7 V 22.65 22.55 22.4 22.3 22.25 L 3.6,22.2 v -0.05 -0.1 -0.2 -0.1 -0.15 L 3.55,21.5 V 21.4 21.3 21.25 21.15 21 L 3.5,20.95 v -0.1 -0.15 -0.1 -0.15 -0.1 -0.15 -0.1 -0.15 -0.1 -0.15 -0.1 -0.1 -0.1 -0.1 -0.1 -0.15 -0.1 -0.15 -0.1 -0.15 l -0.05,-0.1 v -0.2 -0.1 -0.15 -0.1 -0.15 -0.1 -0.3 -0.1 Q 3.3,17.35 3.1,17.4 l -0.75,0.15 q -0.4,-0.1 -0.2,-0.4 l 0.25,-0.4 0.15,-0.6 0.5,-0.7 Q 3.2,15.2 3.6,15.2 l 0.15,-0.1 0.2,-0.05 h 0.3 m 7.75,1.4 0.15,0.8 0.3,0.9 0.75,-0.15 0.8,-0.2 0.65,0.3 0.3,0.4 -0.05,0.5 -0.75,0.8 -1.05,0.5 0.45,1.05 0.2,0.75 q 0.1,0.45 -0.15,0.75 -0.4,0.55 -1.1,0.35 L 11.45,22.6 10.45,22 9.6,23 8.4,23.05 Q 8.05,22.75 8.15,22 l 0.4,-1.1 V 20.5 L 8.3,20.3 7.7,20.05 Q 6.75,19.85 6.6,19.4 6.4,18.8 7.1,18.4 l 1.15,-0.3 1.4,-0.2 0.4,-1.15 q 0.15,-0.4 0.4,-0.65 0.35,-0.35 0.85,-0.25 0.45,0.05 0.7,0.6 m 7.9,8 -2.85,2.4 -0.9,0.5 -0.9,0.65 -0.75,0.4 -0.4,0.4 -0.8,0.5 -1,0.25 q -0.8,-0.05 -1.25,-0.85 -0.35,-0.8 0.2,-1.45 0.3,-0.45 1.4,-0.85 l 2.55,-0.9 2.2,-0.9 0.85,-0.45 1,-0.25 q 0.5,-0.3 0.7,-0.25 l 0.2,0.3 -0.25,0.5"
         fill="#ffffff"
         fill-rule="evenodd"
         stroke="none"
         id="path5" />
      <path
         d="m 54.6,42.5 q 0.85,1.45 1.15,3.05 0.25,1.4 -0.15,4.15 l -0.35,1.75 0.2,0.2 1.65,2.2 q 1,1.6 0.35,2.55 -0.5,0.75 -2.2,0.85 h -18.9 l -0.8,-0.75 q -0.3,-0.3 -2.75,0.75 H 17.15 L 16.7,57 Q 14.2,57 11.9,56 9.15,54.8 7.45,52.6 L 6.6,51.3 Q 4.65,47.8 4.85,40.75 q 0,-1.8 0.6,-2.55 0.6,-0.7 1.65,-0.75 1,0 1.65,0.65 0.45,0.55 0.6,1.45 L 9.4,41.2 q -0.1,2.65 0.15,4.4 0.35,2.2 1.15,3.55 0.85,1.55 2.25,2.4 L 12.9,50 q 0.1,-1.65 0.5,-2.6 l 0.75,-1.45 -0.05,-0.05 -0.3,-1 Q 13,42.5 12.7,40.8 l -0.4,-2.45 q -0.2,-1.95 0.65,-3.85 0.35,-0.9 0.95,-1.35 0.75,-0.6 1.85,-0.45 0.95,0.05 1.8,0.75 l 0.9,0.95 0.35,1.35 q 0.4,3.1 0.15,6.1 l -0.1,0.75 q 0.2,-0.1 0.35,-0.15 3.3,-1.2 6.95,-1.05 l 2.6,0.3 0.05,-4.9 0.2,-2.65 0.35,-1.25 0.45,-1 q 0.6,-0.9 1.8,-1.15 l 2.15,0.05 q 1.3,0.2 1.8,0.95 l 0.35,1.15 q 0.15,1.55 -0.65,4.5 l -0.6,2.35 -0.3,1.35 -0.15,1.55 -0.2,0.85 0.25,0.15 1.8,-2.6 q 2,-2.25 4.85,-3.4 2.9,-1.1 5.85,-0.85 l 1.3,0.2 0.7,-0.35 q 1.3,-0.5 2.2,-1.1 L 52,34.9 53.2,34.6 q 1.05,0.1 1.4,1.1 l -0.05,1.8 -0.1,0.75 -0.25,0.6 -0.4,1.2 -0.2,0.75 1,1.7 m -8.25,8.7 q -0.3,-0.15 -0.7,0.15 l -0.35,0.6 -0.35,1.15 -0.15,-0.05 q -0.85,-0.2 -1.25,0 -0.45,0.25 -0.45,0.65 -0.1,0.5 0.25,0.75 0.4,0.4 1.15,0.3 h 0.1 q -0.1,0.55 0.05,0.85 l 0.45,0.55 0.65,0.1 0.5,-0.55 0.15,-0.8 0.05,-0.35 0.95,0.1 0.25,-0.4 -0.1,-0.5 q -0.2,-0.3 -0.85,-0.5 h -0.15 l 0.1,-1.05 v -0.55 l -0.3,-0.45 m -7.05,0.25 q 0.15,-0.4 0.45,-0.7 L 40.4,50 l 0.15,-0.15 0.1,-0.15 0.3,-0.05 1,-0.4 q 0.5,-0.2 0.5,-0.6 L 42.25,48.3 41.5,48.1 40.4,48.2 40.05,47.9 39.5,47.5 39,47.35 38.75,47.2 38.3,47.15 q -0.4,0.4 -0.15,0.8 l 0.45,0.55 0.5,0.75 0.05,0.1 -0.15,0.35 -0.35,1.05 q -0.1,0.3 0.15,0.55 0.2,0.35 0.5,0.15 m 1.95,-6.4 q 0.2,0.4 0.7,0.45 l 0.8,-0.2 q 0.3,-0.35 0.4,-1.1 l 0.1,-0.35 0.4,0.05 1.3,0.15 0.6,-0.1 q 0.4,-0.35 0.05,-0.8 l -0.65,-0.5 -1.15,-0.5 0.15,-0.45 q 0.35,-0.8 0,-1.1 l -0.6,-0.05 -0.5,0.4 -0.5,0.7 -0.5,-0.15 -0.8,-0.05 q -0.5,0.1 -0.7,0.6 -0.25,0.5 0.1,0.95 l 0.95,0.55 q -0.45,1 -0.15,1.5"
         fill="#000000"
         fill-rule="evenodd"
         stroke="none"
         id="path6" />
      <path
         d="m 41.25,45.05 q -0.3,-0.5 0.15,-1.5 L 40.45,43 q -0.35,-0.45 -0.1,-0.95 0.2,-0.5 0.7,-0.6 l 0.8,0.05 0.5,0.15 0.5,-0.7 0.5,-0.4 0.6,0.05 q 0.35,0.3 0,1.1 l -0.15,0.45 1.15,0.5 0.65,0.5 q 0.35,0.45 -0.05,0.8 l -0.6,0.1 -1.3,-0.15 -0.4,-0.05 -0.1,0.35 q -0.1,0.75 -0.4,1.1 l -0.8,0.2 q -0.5,-0.05 -0.7,-0.45 m -1.95,6.4 Q 39,51.65 38.8,51.3 38.55,51.05 38.65,50.75 L 39,49.7 39.15,49.35 39.1,49.25 38.6,48.5 38.15,47.95 q -0.25,-0.4 0.15,-0.8 l 0.45,0.05 0.25,0.15 0.5,0.15 0.55,0.4 0.35,0.3 1.1,-0.1 0.75,0.2 0.2,0.35 q 0,0.4 -0.5,0.6 l -1,0.4 -0.3,0.05 -0.1,0.15 -0.15,0.15 -0.65,0.75 q -0.3,0.3 -0.45,0.7 m 7.05,-0.25 0.3,0.45 v 0.55 l -0.1,1.05 h 0.15 q 0.65,0.2 0.85,0.5 l 0.1,0.5 -0.25,0.4 -0.95,-0.1 -0.05,0.35 -0.15,0.8 -0.5,0.55 -0.65,-0.1 -0.45,-0.55 Q 44.5,55.3 44.6,54.75 h -0.1 q -0.75,0.1 -1.15,-0.3 Q 43,54.2 43.1,53.7 q 0,-0.4 0.45,-0.65 0.4,-0.2 1.25,0 l 0.15,0.05 0.35,-1.15 0.35,-0.6 q 0.4,-0.3 0.7,-0.15"
         fill="#ffffff"
         fill-rule="evenodd"
         stroke="none"
         id="path7" />
    </g>
    <g
       id="shape2"
       transform="translate(1.5,1.5)">
      <path
         d="M 0,23.8 V 0 H 64.1 V 23.8 57.55 H 0 Z"
         fill="none"
         stroke="#000000"
         stroke-linecap="round"
         stroke-linejoin="round"
         stroke-width="3"
         id="path8" />
    </g>
  </defs>
</svg>
