<?xml version="1.0" encoding="UTF-8" standalone="no"?>
<svg
   ffdec:objectType="frame"
   height="44.468182"
   width="78.599998"
   version="1.1"
   id="svg12"
   sodipodi:docname="227.svg"
   xmlns:inkscape="http://www.inkscape.org/namespaces/inkscape"
   xmlns:sodipodi="http://sodipodi.sourceforge.net/DTD/sodipodi-0.dtd"
   xmlns:xlink="http://www.w3.org/1999/xlink"
   xmlns="http://www.w3.org/2000/svg"
   xmlns:svg="http://www.w3.org/2000/svg"
   xmlns:ffdec="https://www.free-decompiler.com/flash">
  <sodipodi:namedview
     id="namedview12"
     pagecolor="#ffffff"
     bordercolor="#000000"
     borderopacity="0.25"
     inkscape:showpageshadow="2"
     inkscape:pageopacity="0.0"
     inkscape:pagecheckerboard="0"
     inkscape:deskcolor="#d1d1d1"
     fit-margin-top="5"
     fit-margin-left="5"
     fit-margin-right="5"
     fit-margin-bottom="5" />
  <g
     transform="translate(2,2.05)"
     id="g3">
    <use
       ffdec:characterId="1"
       height="42.700001"
       transform="translate(-1.75,-2)"
       width="76.449997"
       xlink:href="#shape0"
       id="use1" />
    <use
       ffdec:characterId="223"
       height="40.450001"
       transform="translate(0.7,1.95)"
       width="73.25"
       xlink:href="#shape1"
       id="use2" />
    <use
       ffdec:characterId="3"
       height="44.349998"
       transform="translate(-2,-2.05)"
       width="78.599998"
       xlink:href="#shape2"
       id="use3" />
  </g>
  <defs
     id="defs12">
    <g
       id="shape0"
       transform="translate(1.75,2)">
      <path
         d="M 2.8,0 V -0.4 H 5.4 V 0 H 9.7 V 19.45 0 H 20.55 L 19.3,19.45 H 9.7 0.25 V 0 H 2.8"
         fill="#ffffff"
         fill-rule="evenodd"
         stroke="none"
         id="path3" />
      <path
         d="M 0.25,19.45 H 9.7 19.3 L 18.7,28.6 16,28.5 10.95,27.95 9.7,27.8 Q 7.45,27.6 5.85,27.75 4.05,27.9 1.5,28.6 0.75,28.8 0.25,29.15 v -9.7 m 9.45,0 v 8.35 -8.35"
         fill="#121212"
         fill-rule="evenodd"
         stroke="none"
         id="path4" />
      <path
         d="m 9.7,27.8 1.25,0.15 5.05,0.55 2.7,0.1 h 1.05 l 3.75,0.15 q 2.45,0.3 3.6,1.25 0.6,0.5 0.6,1.1 0,0.65 -0.8,1 l -1.3,0.2 -7.15,0.15 -5.6,-0.3 L 9.7,31.75 7.95,31.6 3.1,31.95 0.95,32.3 0.25,32.1 -0.35,31.55 -0.5,31.3 V 29.9 L 0.25,29.15 Q 0.75,28.8 1.5,28.6 4.05,27.9 5.85,27.75 7.45,27.6 9.7,27.8 v 3.95 -3.95"
         fill="#999999"
         fill-rule="evenodd"
         stroke="none"
         id="path5" />
      <path
         d="M 2.8,0 H 0.25 M 9.7,0 H 5.4 m 16.15,0 h 10.7 M 20.55,0 H 9.7"
         fill="none"
         stroke="#666666"
         stroke-linecap="round"
         stroke-linejoin="round"
         stroke-width="4"
         id="path6" />
      <path
         d="m 9.7,-0.4 h 65 V 40.5 H 47.05 L 45.5,40.7 27,40.65 25.95,40.5 H 9.7 -0.5 V -0.4 H 9.7 V 40.5 -0.4"
         fill="#ffffff"
         fill-rule="evenodd"
         stroke="none"
         id="path7" />
    </g>
    <g
       id="shape1"
       transform="translate(-0.7,-1.95)">
      <path
         d="m 59.85,14.45 q 1.9,-0.05 3.5,0.65 L 64,14.9 66.95,14.4 h 0.5 q 0.65,0 1.1,0.6 0.4,0.55 0.3,1.25 l -0.2,0.6 -0.8,2.2 -0.25,0.8 q 0.75,2.3 0.45,4.35 -0.35,2.5 -2.05,4.05 -0.9,0.8 -2.3,1.4 l -0.2,0.1 0.2,0.45 q 0.95,2.35 1.25,5.15 l 0.1,2.55 q 0.1,1.05 -0.15,1.65 -0.2,0.7 -0.9,1.1 L 62.7,41 h -1.8 l -2,-0.25 h -1.55 l -0.4,-0.1 -0.6,0.05 -1.2,-0.15 q -1.5,-0.5 -2,-2.6 -0.25,-1.1 -0.1,-2.1 L 53,35.25 52.6,34.85 q -0.6,-0.3 -0.85,-0.3 -0.85,0 -1.25,0.95 v 0.45 l 0.4,0.2 0.6,0.65 q 0.2,0.5 0,0.9 l -1.05,0.65 Q 48.9,38.6 48,37.35 47.7,36.9 47.55,36.3 47.25,35.1 47.7,33.95 l 0.9,-1.5 1.05,-0.9 1.65,-0.5 1.1,-0.15 q 2.05,-0.15 3.55,1.4 l 0.65,0.9 0.5,-2.5 0.2,-0.6 -1.5,-0.45 -2.25,-1.2 q -1.3,-1.05 -2,-2.6 -0.75,-1.6 -0.7,-3.25 0.1,-1.8 0.85,-3.3 L 51.65,19.2 Q 51.5,18.75 51.5,18.3 l 0.05,-0.65 0.1,-0.5 0.45,-1.3 0.4,-1.1 q 0.35,-0.6 0.8,-0.85 l 1.05,-0.15 q 0.55,0.1 0.95,0.5 l 0.5,0.5 0.35,0.25 0.2,0.15 q 1.6,-0.65 3.5,-0.7 m 0.55,8.95 -0.3,0.2 -0.3,0.3 Q 59.4,24.3 58.9,24.15 58.35,24 58.25,23.45 L 58.2,23.2 Q 58.05,22.75 57.55,23.05 57.3,23.2 57.3,23.7 l 0.3,0.65 0.7,0.6 0.6,0.1 q 1.15,-0.1 1.4,-0.5 1.15,1.05 2.15,0.6 0.8,-0.35 0.8,-1.2 0.1,-0.45 -0.3,-0.75 l -0.4,-0.1 Q 62.3,23.15 62.2,23.3 L 62,23.75 61.65,23.8 60.4,23.4 m 2.6,-1.05 0.95,0.75 1.25,0.05 0.95,-0.7 0.35,-1.05 q 0,-1.4 -1.25,-1.8 l -1.1,-0.05 q -0.6,0.15 -1,0.6 -0.8,1.05 -0.15,2.2 m 6.25,-2.65 q 0.2,-0.95 0.55,-1.5 0.45,-0.7 1.3,-0.85 l 0.5,0.05 q 0.3,0.2 0.15,0.45 l -0.5,0.25 -0.6,0.55 Q 70.3,19.2 70.3,19.7 l 0.35,0.8 q 0.35,0.4 0.8,0.45 1.05,0.2 1.5,-0.8 -0.3,-0.35 -0.7,-0.2 L 71.8,20.25 71.35,20.2 71.1,19.8 q -0.15,-0.5 0.35,-0.8 0.3,-0.25 0.9,-0.25 L 73.2,19 q 0.5,0.3 0.65,0.95 0.15,0.65 -0.1,1.2 -0.55,1.1 -1.9,1.25 l -1.35,-0.2 -1,-0.9 Q 69.15,20.75 69.25,19.7 M 50.2,7.25 49.95,7.65 Q 49.9,8 50.45,8.25 l 0.75,0.1 1.1,-0.2 0.5,-0.3 0.15,-0.4 Q 53.2,6.85 52.9,6.4 L 52.5,5.95 52.1,5.6 51.7,5.45 51.05,5.3 50.1,5.4 49.85,5.55 49.1,5.6 49.05,5.05 Q 49.2,4.6 49.6,4.35 L 50.45,4.1 q 1.2,-0.2 1.9,0 L 52.9,4.35 54,5.4 54.25,6.1 54.35,7.25 54.3,7.8 54.2,8.2 53.6,9.05 53.05,9.5 52.4,9.75 51.7,9.8 q -1.45,0 -2.05,-0.4 L 49.35,9.1 49.15,8.8 48.9,8 q 0,-0.55 0.3,-0.95 L 49.65,6.45 49.9,6.2 50.1,6.1 51.35,5.95 q 0.6,0.15 0.85,0.55 l 0.1,0.6 -0.4,0.55 -0.65,-0.1 Q 51,7.3 51.15,6.95 l -0.65,0.1 -0.3,0.2 m 2.85,14.8 q 0,1.1 1,1.6 L 55.9,23.5 q 0.9,-0.6 0.75,-1.7 L 56,20.65 q -0.55,-0.45 -1.25,-0.4 -0.7,0.1 -1.2,0.6 -0.5,0.55 -0.5,1.2 m 18.65,15.5 0.25,-0.5 -0.3,-0.5 -0.6,-0.15 -0.2,0.1 -0.3,0.45 Q 70.4,37.3 70,37.2 l -0.45,-0.45 q -0.05,-0.35 0.5,-0.9 l 0.4,-0.35 0.6,-0.05 1.1,0.1 0.3,0.15 0.4,0.45 q 0.45,0.8 0.25,1.5 -0.15,0.65 -0.85,1.2 l -0.5,0.3 -0.5,0.15 -1.7,-0.1 L 69.1,39 68.25,38.3 Q 67.8,37.7 67.8,36.85 67.75,36.2 68,35.3 q 0.1,-0.45 0.35,-0.6 0.1,-0.45 0.5,-0.8 l 0.8,-0.45 1.05,-0.35 1,-0.05 1.3,0.05 0.85,0.65 0.05,0.55 -0.3,0.3 -0.65,-0.15 -0.65,-0.1 -2.1,0.25 -0.4,0.2 -0.2,0.35 -0.3,0.7 q -0.25,0.75 0.05,1.4 l 0.2,0.25 0.45,0.25 q 0.85,0.4 1.7,-0.2 m -1.4,-7 -0.05,0.4 -0.5,0.7 -0.75,0.4 -0.85,0.3 -0.75,0.2 Q 66.95,32.5 66.95,31.95 L 66.6,31.6 q -0.3,-0.4 -0.2,-1.2 l 0.1,-0.5 0.25,-0.25 q 0.25,-0.25 0.6,-0.25 0.5,0 0.85,0.45 l 0.85,-0.3 q 0.4,0.05 1,0.55 l 0.25,0.45 M 29.45,6.25 28.55,6.1 27.6,5.45 27.05,4.85 V 4.35 Q 27.25,3.75 27.5,3.6 L 28.55,3.65 29,3.7 29.25,3.5 Q 29.7,3 30.4,3.25 l 0.45,0.45 0.2,0.45 -0.2,0.55 -0.6,0.7 -0.35,0.3 -0.45,0.55 M 8.8,14.4 8.5,14.75 8.4,15.05 q -0.15,0.7 -1.1,0.5 L 6.3,14.7 5.85,14 Q 5.7,13.45 6,13.05 6.3,12.55 6.9,12.65 L 7.65,12.9 Q 7.9,12.25 8.6,12.25 9.3,12.25 9.4,13 L 9.25,13.7 8.8,14.4 m 9.85,13.45 q -1.15,2.1 -3.6,3.15 l -0.5,0.2 0.05,0.2 0.3,1.45 q 1.3,-0.1 2.6,0.45 1.5,0.65 1.9,1.75 0.25,0.6 0.15,1.55 l -0.2,1.3 q -0.3,0.8 -1.35,1.55 l -1.95,0.8 -1.25,0.35 -1.1,0.2 q -0.55,-0.1 -0.95,-0.4 l -1.95,0.35 -1.85,0.1 -2,-0.2 -0.3,-0.15 -0.5,0.2 -1,-0.05 Q 4.65,40.45 4.4,40 L 4.2,39.2 V 39.1 L 2.75,38.55 Q 1.6,37.85 1.05,36.75 0.65,35.9 0.7,35.2 0.8,34.45 1.4,33.9 2.55,32.75 4,33.4 q 0.65,0.35 0.95,1.05 0.25,0.7 0,1.35 l 1.25,0.15 0.4,-0.7 1.55,-2.7 0.6,-1.05 H 8.8 Q 6.05,30.95 4.15,29.3 2.9,28.2 2.2,26.65 1.55,25 1.75,23.4 l 0.1,-0.65 Q 1.5,22.25 1.5,21.65 V 21.1 L 1.35,20.4 1.3,19.3 1.35,18.75 Q 1.7,17.7 2.8,17.7 l 2.7,0.1 0.15,0.05 0.55,-0.4 q 3.05,-1.95 6,-2 L 12.25,15.4 14.4,14 q 0.8,-0.5 1.4,-0.55 0.95,-0.1 1.45,0.5 l 0.5,1.3 0.35,0.75 0.4,1.7 v 1.1 q 0.5,0.9 0.8,2.65 0.75,3.9 -0.65,6.4 m -1.6,-8.35 q -0.35,-1.15 -1.5,-1.4 -1.15,-0.3 -2,0.55 -0.8,0.9 -0.5,2.05 0.3,1.1 1.55,1.45 1.2,0.25 2,-0.6 0.85,-0.95 0.45,-2.05 m -7,5.35 L 9.8,24.75 9.75,24.45 9.4,24 Q 9.05,23.8 8.85,24 8.5,24.3 8.7,24.85 q 0.35,0.85 1.2,1 0.8,0.15 1.45,-0.5 l 0.4,-0.25 0.35,0.05 q 0.55,0.2 1.15,0 l 0.95,-0.6 0.3,-0.75 q 0,-0.5 -0.5,-0.6 -0.25,0 -0.75,0.35 l -0.7,0.3 q -0.45,-0.35 -0.7,-0.35 -0.3,-0.05 -0.65,0.7 -0.45,0.65 -1.15,0.65 m -5.8,-1.3 q 0.1,0.9 0.9,1.3 0.75,0.4 1.55,0 1.1,-0.6 0.9,-1.8 Q 7.35,21.8 6.15,21.65 5.55,21.55 5,21.9 q -0.55,0.35 -0.7,0.95 -0.15,0.3 -0.05,0.7 m 18.65,9.6 0.65,-0.1 0.6,-0.35 0.4,-0.4 0.3,-0.6 0.05,-0.3 -0.2,-0.3 -0.9,-0.55 h -0.35 l -0.25,0.2 -0.1,0.35 0.65,-0.05 0.35,0.45 -0.1,0.55 q -0.3,0.45 -1,0.45 -0.85,-0.1 -1.1,-0.7 -0.25,-0.55 0.15,-1.4 l 0.4,-0.65 q 0.35,-0.35 0.9,-0.35 l 1,0.2 1.25,0.75 0.5,0.6 0.05,0.85 q -0.25,1.75 -1.8,2.55 l -0.5,0.25 -0.7,0.05 -1.8,-0.2 -0.5,-0.3 L 20.4,33.5 19.75,32.7 19.7,32.05 q 0,-0.8 0.15,-1.65 l 0.15,-0.45 0.4,-0.6 0.3,-0.45 0.75,-0.7 0.4,-0.25 1.3,-0.05 0.7,0.2 0.15,0.5 -0.25,0.4 -0.6,0.1 q -0.9,0 -1.35,0.45 l -0.65,0.85 -0.1,0.25 q -0.2,1.15 0.1,1.6 l 0.4,0.5 0.4,0.3 0.95,0.1 m -7.5,3.4 0.05,0.6 0.7,-0.3 q 0.6,-0.2 0.65,-0.6 0,-0.4 -0.6,-0.6 l -0.9,-0.1 0.1,1"
         fill="#999999"
         fill-rule="evenodd"
         stroke="none"
         id="path8" />
      <path
         d="m 63,22.35 q -0.65,-1.15 0.15,-2.2 0.4,-0.45 1,-0.6 l 1.1,0.05 Q 66.5,20 66.5,21.4 L 66.15,22.45 65.2,23.15 63.95,23.1 63,22.35 m -2.6,1.05 1.25,0.4 0.35,-0.05 0.2,-0.45 q 0.1,-0.15 0.35,-0.2 l 0.4,0.1 q 0.4,0.3 0.3,0.75 0,0.85 -0.8,1.2 -1,0.45 -2.15,-0.6 -0.25,0.4 -1.4,0.5 l -0.6,-0.1 -0.7,-0.6 -0.3,-0.65 q 0,-0.5 0.25,-0.65 0.5,-0.3 0.65,0.15 l 0.05,0.25 q 0.1,0.55 0.65,0.7 0.5,0.15 0.9,-0.25 l 0.3,-0.3 0.3,-0.2 m -7.35,-1.35 q 0,-0.65 0.5,-1.2 0.5,-0.5 1.2,-0.6 0.7,-0.05 1.25,0.4 l 0.65,1.15 q 0.15,1.1 -0.75,1.7 l -1.85,0.15 q -1,-0.5 -1,-1.6 m -48.8,1.5 q -0.1,-0.4 0.05,-0.7 0.15,-0.6 0.7,-0.95 0.55,-0.35 1.15,-0.25 1.2,0.15 1.45,1.4 0.2,1.2 -0.9,1.8 -0.8,0.4 -1.55,0 -0.8,-0.4 -0.9,-1.3 m 5.8,1.3 q 0.7,0 1.15,-0.65 0.35,-0.75 0.65,-0.7 0.25,0 0.7,0.35 l 0.7,-0.3 q 0.5,-0.35 0.75,-0.35 0.5,0.1 0.5,0.6 l -0.3,0.75 -0.95,0.6 q -0.6,0.2 -1.15,0 l -0.35,-0.05 -0.4,0.25 Q 10.7,26 9.9,25.85 9.05,25.7 8.7,24.85 8.5,24.3 8.85,24 9.05,23.8 9.4,24 l 0.35,0.45 0.05,0.3 0.25,0.1 m 7,-5.35 q 0.4,1.1 -0.45,2.05 -0.8,0.85 -2,0.6 -1.25,-0.35 -1.55,-1.45 -0.3,-1.15 0.5,-2.05 0.85,-0.85 2,-0.55 1.15,0.25 1.5,1.4"
         fill="#ffffff"
         fill-rule="evenodd"
         stroke="none"
         id="path9" />
      <path
         d="M 65.6,6.75 Q 65.5,6.5 65.55,5.9 65.65,5.3 65.9,5 66.25,4.55 66.7,4.8 L 66.95,5.25 66.7,5.65 67.25,5.8 67.75,5.5 67.9,4.9 67.7,4.05 67.1,3.8 Q 66.4,3.75 65.8,4.2 65.15,4.7 64.95,5.5 l -0.1,0.75 0.1,0.75 0.8,0.75 0.75,0.35 0.6,0.05 1,-0.05 0.85,-0.3 0.65,-0.45 0.45,-0.7 q 0.55,-1.2 0.5,-1.85 l -0.3,-1.1 q -0.1,-0.8 0.2,-1.1 L 71,2.5 71.55,2.8 q 0.3,0.35 0.4,1.2 l -0.1,1.85 -0.2,0.75 Q 70.9,9.2 68.8,9.9 L 67.45,10.05 65.8,9.9 64.3,9.1 63.3,8.05 Q 63.05,7.45 63.05,6.45 V 5.35 L 63.75,3.7 64.4,2.95 65.1,2.45 66.3,2 h 0.8 q 1.2,0.2 1.7,0.9 0.6,0.75 0.4,2.4 -0.05,0.95 -0.45,1.5 L 68.05,7.3 67.1,7.55 66.05,7.25 65.6,6.75 m -6.55,1.5 Q 58.8,8 58.8,7.15 V 7.1 L 58.4,7.05 57.9,6.9 57.6,6.45 Q 57.6,6.2 57.9,6 l 0.55,-0.2 0.4,-0.05 q 0,-0.9 0.45,-1.2 l 0.75,0.05 0.35,1 h 0.15 l 0.6,0.15 0.3,0.5 -0.1,0.6 Q 61.1,7.2 60.45,7.25 L 60.1,8.3 59.05,8.25 M 32.9,5.95 40.95,6.35 Q 43.9,7.4 45.9,10 l 1.25,-0.05 2.6,-0.1 2.15,0.1 q 0.6,0.3 0.9,1 0.35,0.7 0.15,1.35 l -0.35,0.85 -3.4,6.2 -0.4,0.65 -0.15,1.55 q -0.25,2.45 -1.15,4.3 -1.05,2.4 -3.25,4.1 -2.15,1.65 -4.8,2.3 l -1.4,0.3 0.05,0.4 0.5,3.35 2.25,-2.15 2.5,-2.75 2.75,-2.5 q 0.8,-0.65 1.75,-1.05 2.1,-0.8 4.1,0.25 1.95,0.95 2.6,3.15 0.3,0.9 0.2,2 0,1.2 -0.5,2.05 l -1.55,1.25 -2.4,0.05 q -1.35,-0.5 -1.65,-1.75 -0.2,-0.5 -0.15,-1.35 v -1.4 q -1.7,0.9 -4.35,4 -2.6,2.95 -4.4,3.8 -1.4,0.7 -2.5,0.35 l -1.3,0.35 -1.75,-0.05 -4.35,0.3 h -1.3 l -1.1,0.15 -1.1,-0.05 h -0.1 L 24.55,41 24.25,40.9 23.7,41.75 Q 22.6,42.8 21.25,42.2 L 20.3,41.3 Q 20,40.65 20.05,40 q 0.05,-0.45 0.45,-1.25 0.75,-1.5 2,-3.3 l 0.05,-0.05 -3.9,-0.25 q -2.45,-0.6 -4.4,-2.1 -1.25,-0.9 -1.7,-1.9 -0.4,-0.8 -0.5,-2.6 -0.2,-2.35 0.55,-3.5 0.45,-0.75 1.25,-1.1 l -0.15,-1.3 -0.2,-0.8 q -0.05,-0.5 0.3,-0.9 0.35,-0.4 0.85,-0.5 0.5,-0.05 0.95,0.25 0.45,0.3 0.5,0.8 l -0.05,0.9 -0.3,1.2 0.35,0.1 0.1,-1.5 0.25,-1 q 0.35,-0.6 0.95,-0.6 0.6,-0.1 1,0.4 0.55,0.6 0.25,1.9 l -0.75,2.15 0.15,0.3 q 0.5,1.05 0.25,2.1 l -0.5,1.25 -0.45,1.2 q 2.5,1.75 4.55,1.7 l 1.4,-0.15 3.7,-0.7 0.2,-0.3 0.2,-0.25 q -3.1,-1.8 -4.9,-4.5 -2.65,-3.85 -1.95,-8.15 0.35,-2 1.45,-3.85 l -0.1,-0.8 q -0.2,-2.6 0.35,-5.5 l 0.3,-0.9 q 0.6,-1.15 1.85,-1.15 l 1.05,0.15 4.35,1.15 3.1,-0.7 M 30.1,21.3 30,20.9 q 0.15,-0.95 0.95,-1.25 l 0.45,-0.3 q 0.2,-0.4 -0.3,-0.6 l -0.7,0.05 q -1.4,0.5 -1.75,1.75 -0.2,0.6 0,1.25 0.2,0.65 0.7,1 0.5,0.35 1.15,0.45 1.15,0.15 1.9,-0.3 l 0.65,0.65 q 0.6,0.4 1.8,0.5 1.65,0.1 2.35,-0.75 0.65,-0.65 0.55,-2.15 0,-0.95 -0.55,-1.15 l -0.6,0.05 q -0.35,0.2 -0.35,0.5 l 0.15,0.85 Q 36.3,22 35.75,22.25 L 34.7,22.3 q -0.65,-0.1 -1,-0.4 L 33.35,21.55 33.3,21.5 33.05,21.1 32.6,20.95 l -0.7,0.4 -1.45,0.2 -0.35,-0.25 m -0.7,-4.2 q 0.4,-1.3 -0.45,-2.4 l -1.1,-0.2 -2.75,-0.45 q -0.45,0.35 -0.75,0.85 -0.4,0.55 -0.4,1.45 -0.05,1.15 0.65,1.95 l 2.45,0.25 1.05,0.3 q 0.95,-0.55 1.3,-1.75 m 9.1,0.4 -0.15,0.95 q -0.05,1 0.7,1.85 l 0.3,0.25 0.25,-0.05 2.9,0.25 0.55,-0.5 q 0.9,-1.1 0.6,-2.35 L 43.55,17.5 43,16.6 h -0.45 l -2.8,-0.3 -0.25,-0.05 -0.1,0.05 q -0.65,0.5 -0.9,1.2 M 11.9,3.05 12.75,2.6 13.3,2.55 l 1.55,0.3 0.4,0.25 0.15,0.2 0.3,0.1 0.55,0.6 0.15,0.45 V 5 l -0.2,0.65 v 0.4 L 16.05,6.4 15.35,7.3 14.8,7.75 13.35,8.25 12.5,8.6 12.25,8.75 11.95,9.1 11.7,9.3 11.55,9.35 H 11.5 Q 10.95,9.5 10.6,9.05 L 10.25,8.7 9.55,8.4 8.1,8.35 7.15,7.85 6.85,7.45 V 7.25 L 6.8,7.2 6.6,6.4 Q 6.5,5.4 6.85,4.6 L 7,4.3 7.6,3.75 Q 8.65,3 9.5,3.05 q 0.5,0 1.3,0.5 L 11.1,3.8 11.9,3.05 M 11.7,7.7 12.85,7 l 1,-0.45 Q 13.95,6.5 14.2,6.4 L 14.45,6.15 14.9,5.6 15.05,5.25 V 4.95 L 14.35,4.15 14.1,4.1 13.05,4.15 12.4,4.6 12.25,4.7 11.9,5.3 11.5,5.75 H 11.15 Q 10.7,5.75 10.6,5.3 L 10.55,4.9 9.8,4.45 9.7,4.4 H 9.4 L 8.9,4.6 Q 8.55,4.8 8.45,4.9 7.95,5.4 8.05,6.1 L 8.2,6.45 8.85,6.8 9.75,6.85 10.3,7 l 0.45,0.15 0.8,0.5 0.1,0.1 L 11.7,7.7 M 3.05,7.6 2.85,6.75 2.35,6.7 1.9,6.4 1.95,6.1 1.9,6.05 2.05,5.8 H 2.1 L 2.2,5.65 2.6,5.5 2.65,5.45 2.8,5.5 V 5.35 L 3,4.85 3.25,4.4 Q 3.65,4 4.15,4.5 4.5,4.85 4.4,5.35 L 4.95,5.4 q 0.4,0.15 0.4,0.65 L 4.9,6.65 4.5,6.75 H 4.35 v 0.1 L 4.1,7.8 3.55,7.95 3.05,7.6"
         fill="#000000"
         fill-rule="evenodd"
         stroke="none"
         id="path10" />
      <path
         d="m 38.5,17.5 q 0.25,-0.7 0.9,-1.2 l 0.1,-0.05 0.25,0.05 2.8,0.3 H 43 l 0.55,0.9 0.1,0.4 q 0.3,1.25 -0.6,2.35 l -0.55,0.5 -2.9,-0.25 -0.25,0.05 -0.3,-0.25 Q 38.3,19.45 38.35,18.45 L 38.5,17.5 m -9.1,-0.4 q -0.35,1.2 -1.3,1.75 L 27.05,18.55 24.6,18.3 q -0.7,-0.8 -0.65,-1.95 0,-0.9 0.4,-1.45 0.3,-0.5 0.75,-0.85 l 2.75,0.45 1.1,0.2 q 0.85,1.1 0.45,2.4 m 0.7,4.2 0.35,0.25 1.45,-0.2 0.7,-0.4 0.45,0.15 0.25,0.4 0.05,0.05 0.35,0.35 q 0.35,0.3 1,0.4 l 1.05,-0.05 Q 36.3,22 36.4,21.45 L 36.25,20.6 q 0,-0.3 0.35,-0.5 l 0.6,-0.05 q 0.55,0.2 0.55,1.15 0.1,1.5 -0.55,2.15 -0.7,0.85 -2.35,0.75 -1.2,-0.1 -1.8,-0.5 L 32.4,22.95 q -0.75,0.45 -1.9,0.3 -0.65,-0.1 -1.15,-0.45 -0.5,-0.35 -0.7,-1 -0.2,-0.65 0,-1.25 Q 29,19.3 30.4,18.8 l 0.7,-0.05 q 0.5,0.2 0.3,0.6 l -0.45,0.3 q -0.8,0.3 -0.95,1.25 l 0.1,0.4"
         fill="#ffffff"
         fill-rule="evenodd"
         stroke="none"
         id="path11" />
    </g>
    <g
       id="shape2"
       transform="translate(2,2.05)">
      <path
         d="M -0.5,-0.4 V -0.55 H 75.1 V -0.4 40.8 H -0.5 Z"
         fill="none"
         stroke="#000000"
         stroke-linecap="round"
         stroke-linejoin="round"
         stroke-width="3"
         id="path12" />
    </g>
  </defs>
</svg>
