<?xml version="1.0" encoding="UTF-8" standalone="no"?>
<svg
   ffdec:objectType="frame"
   height="60.549999"
   width="69.400002"
   version="1.1"
   id="svg8"
   sodipodi:docname="125.svg"
   xmlns:inkscape="http://www.inkscape.org/namespaces/inkscape"
   xmlns:sodipodi="http://sodipodi.sourceforge.net/DTD/sodipodi-0.dtd"
   xmlns:xlink="http://www.w3.org/1999/xlink"
   xmlns="http://www.w3.org/2000/svg"
   xmlns:svg="http://www.w3.org/2000/svg"
   xmlns:ffdec="https://www.free-decompiler.com/flash">
  <sodipodi:namedview
     id="namedview8"
     pagecolor="#ffffff"
     bordercolor="#000000"
     borderopacity="0.25"
     inkscape:showpageshadow="2"
     inkscape:pageopacity="0.0"
     inkscape:pagecheckerboard="0"
     inkscape:deskcolor="#d1d1d1"
     fit-margin-top="5"
     fit-margin-left="5"
     fit-margin-right="5"
     fit-margin-bottom="5" />
  <g
     transform="translate(1.5,1.5)"
     id="g3">
    <use
       ffdec:characterId="516"
       height="57.549999"
       width="64.099998"
       xlink:href="#shape0"
       id="use1" />
    <use
       ffdec:characterId="635"
       height="58.650002"
       transform="translate(-0.75,-0.8)"
       width="68.650002"
       xlink:href="#shape1"
       id="use2" />
    <use
       ffdec:characterId="518"
       height="60.549999"
       transform="translate(-1.5,-1.5)"
       width="67.099998"
       xlink:href="#shape2"
       id="use3" />
  </g>
  <defs
     id="defs8">
    <g
       id="shape0">
      <path
         d="M 53.6,0 H 64.1 V 57.55 H 53.6 28.25 0 V 0 H 28.25 53.6 V 57.55 0 M 28.25,0 V 57.55 0"
         fill="#ffffff"
         fill-rule="evenodd"
         stroke="none"
         id="path3" />
    </g>
    <g
       id="shape1"
       transform="translate(0.75,0.8)">
      <path
         d="M 32.7,33.45 6.9,40.35 15.55,48.4 1.7,54.05 0.4,54.4 q -0.7,-0.1 -1,-0.6 -0.3,-0.55 -0.05,-1.2 0.3,-0.6 1.45,-1.1 l 0.15,-0.05 v -0.1 L 0.9,51.25 v -0.1 -0.1 L 0.85,50.9 v -0.1 -0.1 -0.1 -0.1 -0.1 -0.1 -0.1 -0.1 -0.1 -0.1 -0.1 -0.1 -0.1 -0.1 -0.15 -0.1 -0.1 -0.1 -0.1 -0.1 -0.1 -0.1 -0.1 -0.1 -0.1 -0.1 -0.1 -0.1 -0.1 -0.15 -0.1 -0.1 -0.1 -0.1 -0.1 -0.1 -0.1 -0.1 -0.1 -0.1 -0.1 -0.1 -0.1 -0.1 -0.1 -0.15 -0.1 -0.1 -0.1 -0.1 -0.1 -0.1 -0.1 -0.1 -0.1 -0.1 -0.1 -0.1 -0.1 -0.1 -0.15 -0.1 -0.1 -0.1 -0.1 -0.1 -0.1 -0.1 -0.1 -0.1 -0.1 -0.1 -0.1 -0.1 -0.1 -0.1 -0.15 -0.1 -0.1 -0.1 -0.1 -0.1 -0.1 -0.1 -0.1 -0.1 -0.1 -0.1 -0.1 -0.1 -0.1 V 41.4 41.3 41.2 41.1 41 40.9 40.8 40.7 40.6 40.5 40.4 40.3 40.2 40.1 40 39.9 l 9.6,-8.9 h 7 l 5.25,-4.55 10.6,-2.35 -13.5,1.8 -3.05,3 H 6.6 l -5.75,1.7 v -0.1 -0.1 -0.15 -0.1 -0.1 -0.1 -0.1 -0.1 -0.1 -0.1 -0.1 -0.1 -0.1 -0.1 -0.1 -0.1 -0.1 V 28.7 28.6 28.5 28.4 28.3 28.2 28.1 28 27.9 27.8 27.7 27.6 27.5 27.4 27.3 27.2 L 0.9,27.05 v -0.1 -0.1 -0.1 l 0.05,-0.1 v -0.1 -0.1 -0.1 -0.1 -0.1 -0.1 -0.1 -0.1 -0.1 -0.1 L 1,25.5 0.85,25.45 0.75,25.35 0.7,25.25 v -0.1 l -0.05,-0.1 0.05,-0.1 v -0.1 l 0.15,-0.1 0.1,-0.1 H 1.1 1.15 1.85 L 2.05,24.6 2.2,24.55 H 2.45 L 4.6,24.5 4.95,24.45 5.4,24.4 h 1.8 3.1 0.55 1 2.85 l 1,-0.05 0.8,-0.05 h 1.7 L 21.45,24.25 24,24.2 h 1.3 l 1.55,-0.05 1.35,-0.05 h 2.85 2.25 1.05 0.35 l 3.05,0.05 0.9,0.05 h 2.1 0.35 2.45 2.2 5.4 1.4 0.25 l 2.3,-0.05 1.75,-0.05 h 1.75 2.1 v -0.05 h 0.65 0.15 0.85 l 0.35,0.05 0.2,0.1 0.15,0.1 0.1,0.1 0.05,0.15 0.05,0.1 0.05,0.1 v 0.1 l 0.05,0.1 v 0.1 0.1 0.1 0.1 0.05 l 0.1,0.1 v 0.1 l 0.1,0.1 v 0.1 l 0.05,0.1 0.05,0.1 v 0.1 0.1 0.1 l 0.05,0.1 v 0.1 0.1 0.15 l 0.05,0.1 v 0.1 0.1 0.1 0.1 0.1 0.1 0.1 0.1 0.1 0.1 0.1 0.1 0.1 0.15 0.1 0.1 0.1 0.1 0.1 0.1 0.1 0.1 0.1 0.1 0.1 0.1 0.1 0.1 0.15 0.1 0.1 0.1 0.1 0.1 0.1 0.1 0.1 0.1 0.1 0.1 0.1 0.1 0.1 0.1 0.15 0.1 0.1 0.1 0.1 0.1 0.1 0.1 0.1 0.1 0.1 0.1 0.1 0.1 0.1 0.15 0.1 0.1 0.1 0.1 0.1 0.1 0.1 0.1 0.1 0.1 0.1 0.1 0.1 0.1 0.1 0.15 0.1 0.1 0.1 0.1 0.1 0.1 0.1 0.1 0.1 0.1 0.1 0.1 0.1 0.1 0.15 0.1 0.1 0.1 0.1 0.1 0.1 0.1 0.1 0.1 0.1 0.1 l -0.05,0.1 v 0.1 0.1 0.15 0.1 0.1 0.1 0.1 0.1 0.1 0.1 0.1 0.1 0.1 0.1 0.1 0.1 0.1 0.1 0.15 0.1 0.1 0.1 0.1 l -0.05,0.1 v 0.1 0.1 0.1 0.1 0.1 0.1 0.1 0.1 0.1 0.15 0.1 0.1 0.1 0.1 0.1 0.1 0.1 0.1 0.1 0.1 0.1 0.1 0.1 0.1 0.1 0.15 0.1 0.1 0.1 0.1 0.1 0.1 0.1 0.1 0.1 0.1 0.1 0.1 0.1 0.1 0.15 0.1 0.1 0.1 l 4.25,2 -4.25,-1.8 v 0.1 l 0.05,0.1 v 0.1 0.1 0.1 0.1 0.1 0.1 0.1 0.15 0.1 0.05 L 57.05,44 V 30.9 l -9.9,-1.8 -0.8,-4.15 -3.35,4.55 9.1,4.3 -3.05,14.6 q 8.45,7 13.15,9.45 H 57.85 L 54.5,57.8 h -4.55 -0.2 -1 -0.5 l -0.5,-0.05 h -0.5 L 46.75,57.7 44.9,57.65 H 44.2 L 43.4,57.6 38.5,57.55 H 31.7 29.05 28.3 L 28.1,57.6 H 27.55 L 27.2,57.55 27,57.45 V 57.4 l -0.3,0.15 -0.55,0.15 7.3,-7.05 -14.6,-9.7 25.15,-7.4 -9.4,-4.8 q 0.2,-0.25 1,-0.6 2.3,-0.95 3.75,-1.35 l 1.4,-0.3 1.85,-0.55 H 41.1 41.05 L 41.2,25.9 41.8,25.45 Q 41.9,25.1 41.5,24.9 l -0.7,-0.05 -2.7,0.45 -9.85,1.7 3.1,4.45 0.65,1.1 0.35,0.35 0.35,0.55"
         fill="#999999"
         fill-rule="evenodd"
         stroke="none"
         id="path4" />
      <path
         d="m 41.05,25.95 -2.05,0.7 -2.95,0.7 -4.05,1 0.7,1.15 0.3,0.3 1.5,1.75 0.45,0.7 -0.1,0.75 q 0.15,0.5 -0.2,0.9 -0.3,0.5 -0.95,0.4 L 32.9,33.75 32.7,33.45 32.35,32.9 32,32.55 l -0.65,-1.1 -1.2,-2 -0.5,-1.15 q -0.15,-0.7 0.3,-1.15 0.1,-0.1 0.85,-0.35 l 7.3,-1.5 2.7,-0.45 0.7,0.05 q 0.4,0.2 0.3,0.55 l -0.6,0.45 -0.15,0.05"
         fill="#ffffff"
         fill-rule="evenodd"
         stroke="none"
         id="path5" />
      <path
         d="m 64,24.4 q 0.6,0.7 0.4,1.25 -0.2,0.75 -1.25,0.65 l -1.5,-0.45 -2.9,-0.2 -1.4,0.1 -0.75,-0.05 -0.35,-0.5 q -0.1,-0.35 0.1,-0.6 0.2,-0.25 1.1,-0.5 l 1.45,-0.45 2,-0.3 2.1,0.2 1,0.85 M 1.15,27 Q 0.55,26.75 0.35,26.05 0.2,25.3 0.55,24.75 0.9,24.2 2,23.9 l 1.7,-0.15 2.4,-0.6 2.4,-0.5 1.85,0.1 1.8,0.3 1.45,0.45 1.85,0.3 3.3,0.5 q 0.7,0.1 0.75,0.45 l -0.35,0.55 -0.65,0.1 -2.2,0.4 -2.7,0.05 -2.55,-0.1 -2.4,0.05 -1.7,0.45 -1.7,0.5 L 2.8,27.15 1.15,27"
         fill="#999999"
         fill-rule="evenodd"
         stroke="none"
         id="path6" />
      <path
         d="m 50.5,8.1 -6.4,0.4 q -4.25,-0.25 -6.25,0.6 -2.35,1 -3.65,3.4 -1,1.75 -1,3.75 0.05,2.1 1.25,3.55 1.7,2.05 5.95,2.65 6.5,0.9 11.9,-0.95 6.3,-2.2 9.45,-7.2 1.35,-2.1 2.55,-1.9 0.9,0.25 1.15,1.3 0.15,0.8 -0.2,1.75 -0.9,2.8 -4.95,5.95 -2.7,2.05 -4.45,2.9 -4.75,2.4 -12.3,2.4 -4.7,-0.1 -7.55,-1.1 -4.1,-1.55 -5.8,-4.7 -1.1,-2.05 -1.1,-4.55 0,-3.25 1.75,-6.1 Q 32.6,7.3 35.45,5.9 39.35,4 44.9,4.8 l 4.25,0.3 Q 50.8,4.85 52.2,3.7 53.55,2.6 54.25,1 54.7,0 54.9,-0.25 55.45,-1 56.15,-0.75 l 0.7,0.65 0.1,1.1 Q 56.75,3.05 54.65,5.15 52.6,7.4 50.5,8.1 m -8.55,5.55 q 1.1,-1.3 2.55,-1.5 1.7,-0.25 2.75,0.95 l 0.45,0.75 0.25,0.6 0.05,0.6 -0.1,1.4 -0.35,0.8 L 47,18 l -1.1,0.85 -2.1,0.1 Q 42.85,18.7 42.15,18 41.4,17.25 41.25,16.3 l 0.05,-1.25 0.25,-0.8 0.4,-0.6 m -0.25,5.9 q -0.05,0.65 -0.6,1.15 -0.5,0.45 -1.15,0.5 -0.65,0 -1.2,-0.45 -0.55,-0.4 -0.7,-1.05 -0.1,-0.65 0.2,-1.25 0.35,-0.65 0.95,-0.85 0.65,-0.2 1.3,0 l 1,0.8 q 0.3,0.5 0.2,1.15 m -4.1,-8 0.75,-0.8 q 0.5,-0.3 1,-0.25 1.2,0.1 1.55,1.25 0.45,1.1 -0.55,1.9 l -2,0.15 q -0.55,-0.3 -0.8,-0.95 -0.2,-0.7 0.05,-1.3 m -8.9,1.7 -0.15,0.25 H 28.2 L 27.75,12.95 27.45,12.5 27.3,12 26.8,10.75 26.6,10.45 26.5,10.1 24.95,6.8 Q 24.5,5.9 24.5,5.3 q 0,-0.95 0.75,-1.45 l 1.65,-0.05 0.9,1.05 0.35,1.3 0.65,4.9 v 0.9 l -0.1,0.95 v 0.35 M 26.85,18.5 Q 26.1,18.4 24.9,17.6 L 23.75,16.7 22,15.2 18.3,12 17.65,11.25 q -0.35,-0.5 -0.3,-1.1 0.05,-0.65 0.4,-1.1 0.4,-0.5 1.05,-0.6 l 1.15,0.15 0.75,0.65 2.1,2.15 2.1,2.3 2.15,2.95 0.55,1.25 -0.3,0.6 h -0.45 m -0.2,3.95 -9.2,-0.35 H 16.75 16.6 L 15.8,22.05 14.6,21.8 13.9,20.9 q -0.2,-0.6 0,-1.2 0.2,-0.65 0.75,-1 l 1,-0.25 3.15,0.3 3.15,0.55 2.65,0.8 0.4,0.2 1.6,0.5 0.8,0.45 q 0.35,0.35 0.2,0.8 -0.15,0.3 -0.95,0.4 M 38.7,16.3 q 0,0.6 -0.4,1.1 -0.4,0.5 -1,0.65 L 36.15,17.9 35.3,17.15 Q 35,16.65 35.1,16 q 0.1,-0.65 0.55,-1.05 0.45,-0.4 1.1,-0.45 0.6,-0.1 1.1,0.25 0.85,0.55 0.85,1.55"
         fill="#000000"
         fill-rule="evenodd"
         stroke="none"
         id="path7" />
    </g>
    <g
       id="shape2"
       transform="translate(1.5,1.5)">
      <path
         d="M 0,23.8 V 0 H 64.1 V 23.8 57.55 H 0 Z"
         fill="none"
         stroke="#000000"
         stroke-linecap="round"
         stroke-linejoin="round"
         stroke-width="3"
         id="path8" />
    </g>
  </defs>
</svg>
