<?xml version="1.0" encoding="UTF-8" standalone="no"?>
<svg
   ffdec:objectType="frame"
   height="60.900002"
   width="67.099998"
   version="1.1"
   id="svg8"
   sodipodi:docname="260.svg"
   xmlns:inkscape="http://www.inkscape.org/namespaces/inkscape"
   xmlns:sodipodi="http://sodipodi.sourceforge.net/DTD/sodipodi-0.dtd"
   xmlns:xlink="http://www.w3.org/1999/xlink"
   xmlns="http://www.w3.org/2000/svg"
   xmlns:svg="http://www.w3.org/2000/svg"
   xmlns:ffdec="https://www.free-decompiler.com/flash">
  <sodipodi:namedview
     id="namedview8"
     pagecolor="#ffffff"
     bordercolor="#000000"
     borderopacity="0.25"
     inkscape:showpageshadow="2"
     inkscape:pageopacity="0.0"
     inkscape:pagecheckerboard="0"
     inkscape:deskcolor="#d1d1d1"
     fit-margin-top="5"
     fit-margin-left="5"
     fit-margin-right="5"
     fit-margin-bottom="5" />
  <g
     transform="translate(1.5,1.5)"
     id="g3">
    <use
       ffdec:characterId="516"
       height="57.549999"
       width="64.099998"
       xlink:href="#shape0"
       id="use1" />
    <use
       ffdec:characterId="765"
       height="60.849998"
       transform="translate(0.15,-1.45)"
       width="64.449997"
       xlink:href="#shape1"
       id="use2" />
    <use
       ffdec:characterId="518"
       height="60.549999"
       transform="translate(-1.5,-1.5)"
       width="67.099998"
       xlink:href="#shape2"
       id="use3" />
  </g>
  <defs
     id="defs8">
    <g
       id="shape0">
      <path
         d="M 53.6,0 H 64.1 V 57.55 H 53.6 28.25 0 V 0 H 28.25 53.6 V 57.55 0 M 28.25,0 V 57.55 0"
         fill="#ffffff"
         fill-rule="evenodd"
         stroke="none"
         id="path3" />
    </g>
    <g
       id="shape1"
       transform="translate(-0.15,1.45)">
      <path
         d="m 34.55,30.15 q -1.45,1.15 -3.2,1.2 l -1.8,-0.25 q -1.8,-0.35 -3.1,-1.1 l -2.15,-1.65 -1.65,-2.1 q -1.3,-2.4 -1.05,-6.25 0.2,-2.4 1.05,-4.75 l 0.8,-3 0.2,-0.5 q 0.25,-0.05 0.4,0.45 0.5,2.45 0.35,5.2 l -0.1,1.75 0.2,1 q 0.15,-2 0.55,-3.2 L 26.3,14.2 Q 27,12.45 27.3,10.75 27.6,8.4 26.85,5.7 26.75,5.25 27,5.1 27.35,4.9 27.6,5.55 l 1.45,1.55 0.65,1.3 0.45,-1.5 q 1.1,-2.8 2,-4 L 33.7,1 q 0.85,-1.1 0.95,-2.1 l 0.2,-0.35 0.25,0.25 0.4,2.25 0.35,-0.1 -0.05,0.5 -0.8,1 -0.1,0.15 q -0.65,1.25 -1.05,2.45 -0.05,1 0.6,2.25 l 1.7,2.7 0.5,0.8 v -0.55 l 0.5,-1.9 0.55,-1.85 0.2,-0.35 h 0.2 L 38.15,6.3 38.1,8.15 Q 38,8.9 38.15,9.5 l 0.4,1.05 q 1.35,2.8 1.85,4.9 0.65,2.75 0,5.2 -0.7,2.35 -2.45,3.6 l -0.75,1.8 -0.35,0.65 -0.1,-0.05 -0.05,-0.1 -1,-2.85 q -0.25,-1.1 -0.1,-2.9 l 0.25,-2.9 q -0.1,-2.7 -1.6,-4.85 L 33.6,12.2 33.1,11.3 Q 32.75,10.6 32.65,8.5 L 32.55,8.2 Q 32.3,8.05 32.2,8.3 L 32,8.65 q -0.4,2.15 0.05,4.2 l 0.35,1.5 -0.05,0.95 q 0,1.2 -0.6,2.1 l -0.4,0.6 -0.2,-1.05 -0.4,-1.3 -0.5,-1 -0.95,-1.7 q -0.1,-0.25 -0.35,-0.1 l -0.2,0.4 q 0,0.45 0.35,1.3 v 1.05 l -0.65,3.75 q -0.3,2.15 -0.05,3.75 0.55,3.65 3.4,5.9 1.2,1 2.45,1.15 h 0.3 m 16.45,8 7.25,8.05 2.05,2.4 -1.45,-2 -5.45,-7.4 -0.15,-0.5 q 0.05,-0.2 0.35,-0.15 l 0.45,0.15 q 1.15,0.7 3.5,3.05 L 63.7,48.2 V 59.1 L 63.6,59 62.4,57.5 62.15,57.1 61.9,57.3 q -0.4,0.35 -0.9,0.4 l -0.55,0.6 Q 59.9,58.7 59.2,58.75 L 58,58.4 Q 57.45,58.1 56.95,57 h -0.2 l -0.5,-0.1 h -0.1 l -0.5,0.55 q -0.9,0.8 -1.9,0.4 -0.85,-0.3 -1.25,-1.1 l -0.35,-0.7 Q 51.8,56.6 51.1,56.8 l -0.4,0.1 q -0.2,0.75 -1,1.05 -0.7,0.25 -1.3,0 l -0.65,0.35 q -1.15,0.35 -1.9,-0.55 L 45.6,57.45 44.95,57.4 q -0.35,0.45 -0.9,0.65 -1.2,0.35 -2,-0.4 Q 41.5,57.2 41.1,55.9 40.65,54.15 40.45,51.25 l -0.1,-1.8 -0.3,0.5 -0.3,-0.25 h -0.1 q -1.3,0.1 -1.75,-0.9 l -0.3,-1.1 -0.1,-3.1 0.05,-0.4 0.25,-0.4 0.35,-0.35 0.45,-0.15 0.25,-0.05 q 0.8,0 1.2,0.65 L 39.9,41.6 q 0.1,-0.95 0.55,-1.25 l 1.1,0.1 0.35,0.8 0.65,2.45 0.7,3.4 v -0.6 l -0.5,-3.75 q -0.1,-0.85 0.15,-1.2 0.35,-0.45 0.9,-0.3 l 0.65,0.65 0.4,-0.55 0.25,-0.25 0.85,0.05 0.65,0.65 0.95,1.4 1.95,4.45 -2.15,-7 Q 47.15,40 47.4,39.8 q 0.3,-0.3 0.65,0 l 0.45,0.5 7,13.25 h 0.05 L 51.5,45 51.15,44.45 49.6,41.2 l -0.15,-0.95 -0.05,-0.2 0.1,-0.2 0.2,-0.15 0.3,0.05 1.05,1.1 0.55,0.85 1,1.35 4.75,6.85 0.15,-0.05 -4.25,-6.3 -1.55,-2.65 -1.55,-2.85 q 0.1,-0.3 0.45,-0.2 l 0.4,0.3 m 7.2,-1.1 q 0.15,-0.1 0.5,0.15 l 1.05,0.4 0.75,0.45 0.3,0.25 0.65,0.15 1.45,0.55 q 0.95,0.35 1.7,0.85 V 42.4 L 63.55,41.75 62.2,40.8 61.5,40.2 60.7,39.6 59.85,39.15 59.25,38.65 58.85,38.4 58.55,37.85 58.2,37.5 q -0.2,-0.3 0,-0.45 m 0.65,2.65 4.85,4 v 4.15 l -2.3,-3 L 58.2,40.4 58,39.95 q -0.1,-0.3 0.15,-0.4 0.25,-0.2 0.7,0.15 m -54.75,-3 0.75,-0.15 0.4,-0.25 0.5,0.05 -0.05,0.35 -3.55,2.35 -0.7,0.6 -0.4,0.65 -0.9,0.25 v -1.9 L 0.45,38.5 1.4,38.2 3.65,36.9 4.1,36.7 m 13.1,1.45 0.4,-0.3 q 0.35,-0.1 0.45,0.2 -0.5,0.55 -1.55,2.85 l -1.55,2.65 -4.25,6.3 0.15,0.05 4.75,-6.85 1,-1.35 0.55,-0.85 q 0.5,-0.8 1.05,-1.1 l 0.3,-0.05 0.2,0.15 0.1,0.2 -0.05,0.2 L 18.6,41.2 17.05,44.45 16.7,45 q -2.85,5.7 -4.35,9.25 l 0.05,-0.1 7.3,-13.85 0.45,-0.5 q 0.35,-0.3 0.65,0 0.25,0.2 0.05,0.85 l -2.15,7 1.95,-4.45 0.95,-1.4 0.65,-0.65 0.85,-0.05 0.25,0.25 q 0.3,0.15 0.4,0.55 0.3,-0.5 0.65,-0.65 0.55,-0.15 0.9,0.3 0.25,0.35 0.15,1.2 l -0.5,3.75 V 48 q 0.05,3.45 -0.5,7.45 -0.2,1.3 -0.7,1.7 -0.65,0.5 -1.35,0.2 -0.8,-0.3 -1,-1.35 l 0.05,-1.25 -0.4,1.3 -0.9,1.65 q -0.75,0.6 -1.65,0.25 -0.8,-0.3 -1,-1.05 l -0.4,-0.1 q -0.7,-0.2 -1.05,-0.75 l -0.35,0.7 q -0.4,0.8 -1.25,1.1 -1,0.4 -1.9,-0.4 -0.85,-0.7 -0.7,-1.85 l 0.05,-0.2 -0.35,0.85 Q 10.9,58 10.2,58.4 L 9,58.75 Q 8.3,58.7 7.75,58.3 L 7.2,57.7 Q 6.7,57.65 6.3,57.3 L 6.05,57.1 5.8,57.5 4.6,59 Q 4.1,59.4 3.4,59.4 2.75,59.4 2.2,59 L 1.45,58.05 Q 1.25,57.5 1.3,56.95 L 0.5,56.9 0.15,56.8 V 52.75 L 0.4,52.45 0.6,52.3 0.5,51.85 0.7,51 0.15,50.7 V 47.5 L 0.4,47.25 2.9,45.1 9.35,39.7 q 0.45,-0.35 0.7,-0.15 l 0.15,0.4 -0.2,0.45 -3.2,4.45 -2.75,3.5 -0.6,0.75 -0.1,0.25 H 3.4 l 7.25,-7.6 Q 13,39.4 14.15,38.7 l 0.45,-0.15 q 0.3,-0.05 0.35,0.15 l -0.15,0.5 -5.45,7.4 -1.45,2 2.05,-2.4 7.25,-8.05 M 0.6,41.9 q 0.25,-0.1 0.45,-0.25 l 3.8,-2.6 0.75,-0.4 q 0.3,-0.2 0.55,-0.2 l 0.45,0.2 q 0.2,0.25 0.05,0.45 l -0.25,0.35 -1,1.25 -1.45,1.5 -1.1,1 -1.4,1.75 q -0.4,0.4 -1,0.45 H 0.15 V 42.2 L 0.6,41.9"
         fill="#999999"
         fill-rule="evenodd"
         stroke="none"
         id="path4" />
      <path
         d="m 36.85,26.7 q 0.8,0.35 1,1.1 0.15,0.85 -0.55,1.45 -0.5,0.45 -1.45,0.7 l -1.3,0.2 h -0.3 Q 33,30 31.8,29 28.95,26.75 28.4,23.1 28.15,21.5 28.45,19.35 L 29.1,15.6 v -1.05 q -0.35,-0.85 -0.35,-1.3 l 0.2,-0.4 q 0.25,-0.15 0.35,0.1 l 0.95,1.7 0.5,1 0.4,1.3 0.2,1.05 0.4,-0.6 q 0.6,-0.9 0.6,-2.1 l 0.05,-0.95 -0.35,-1.5 Q 31.6,10.8 32,8.65 L 32.2,8.3 q 0.1,-0.25 0.35,-0.1 l 0.1,0.3 q 0.1,2.1 0.45,2.8 l 0.5,0.9 0.65,0.85 q 1.5,2.15 1.6,4.85 l -0.25,2.9 q -0.15,1.8 0.1,2.9 l 1,2.85 0.05,0.1 0.1,0.05"
         fill="#ffffff"
         fill-rule="evenodd"
         stroke="none"
         id="path5" />
      <path
         d="M 32.65,22.9 35.2,23 q 0.2,-0.65 0.65,-1.25 1.25,-2 3.1,-2.7 l 2.65,-0.45 2.65,0.15 q 2.5,0.55 4.05,2.85 1.9,2.7 1.15,6 -0.4,1.85 -1.65,3.15 -1.35,1.45 -3.05,1.8 H 44.3 l 0.3,2.65 q 0.05,3.1 -1.35,5.8 -1.4,2.75 -3.95,4.2 l -0.6,0.3 1.3,1.65 q 3,4.3 4.25,10.5 h -24.9 q 0.45,-2.6 1.6,-5.1 1.6,-3.55 4.1,-6.15 l 0.05,-0.1 q -0.9,-0.4 -1.75,-1 -2.4,-1.75 -3.35,-4.85 -0.8,-2.5 -0.45,-5.4 L 19.3,35 q -0.95,-0.3 -1.65,-0.95 -1.35,-1.05 -2.1,-2.7 -0.75,-1.6 -0.75,-3.3 0.1,-3.6 2.8,-6.1 2.5,-2.35 6.2,-2.6 1.55,-0.1 2.7,0.45 2.2,0.85 2.9,3.4 l 0.05,0.25 3.2,-0.55 m 2.45,10.65 q 0,1.2 0.25,1.95 l 0.3,0.7 0.5,0.6 1,0.45 0.55,0.15 1.3,-0.05 0.75,-0.3 q 1.05,-0.4 1.5,-0.85 0.65,-0.65 0.8,-1.75 0.15,-1 -0.25,-2.25 l -0.25,-0.45 q -0.45,-0.9 -1.5,-1.3 l -0.85,-0.3 h -0.65 q -1.25,-0.05 -2.2,0.7 -1,0.85 -1.2,2.1 l -0.05,0.6 M 9.25,55.2 q -0.2,-2.9 1.4,-5.65 l 0.95,-1.6 q 0.5,-0.9 0.5,-1.7 L 11.8,44.7 11.2,42.8 q -0.2,-0.9 0.15,-1.15 0.3,-0.15 0.9,0.2 l 1,1.1 q 0.75,1.15 0.85,2.4 0.25,1.6 -0.4,3.9 l -1,3.8 q -0.25,1.45 0.1,2.45 0.35,1 1.5,1.9 l 0.4,0.25 H 9.75 Q 9.35,56.55 9.25,55.2 M 24.6,39 l 2.5,0.25 1.6,-0.85 q 1.05,-0.6 1.5,-1.3 l 0.5,-1.15 Q 31.25,33.8 30.5,32.2 29.55,30.15 27.55,29.95 H 27.5 l -0.85,0.9 -1.6,1.15 -0.7,0.3 -1.3,0.4 H 22.3 L 22.15,33 q -0.35,0.85 -0.45,2.3 0,1 0.3,1.6 0.6,1.4 2.6,2.1 M 37.55,35.55 36.9,35 q -0.4,-0.6 -0.35,-1.2 0,-1.3 1.25,-1.9 1.2,-0.5 2.2,0.35 1,0.95 0.6,2.15 -0.35,1.3 -1.7,1.45 -0.75,0.1 -1.35,-0.3 m -8.6,5.85 q -0.8,0.25 -0.9,1.1 0,0.9 0.7,1.25 l 1.45,-0.15 0.3,-0.25 0.3,-0.15 1.55,-0.3 4,-0.85 1.3,-0.45 0.4,-0.55 -0.1,-0.7 Q 37.65,39.9 36.7,39.9 l -1.85,0.3 -0.45,0.1 -0.1,-0.45 -0.35,-1.2 Q 33.55,38 32.95,38 32.3,38 32.1,38.65 l -0.05,0.55 0.05,1.45 0.05,0.1 -3.2,0.65"
         fill="#000000"
         fill-rule="evenodd"
         stroke="none"
         id="path6" />
      <path
         d="m 35.1,33.55 0.05,-0.6 q 0.2,-1.25 1.2,-2.1 0.95,-0.75 2.2,-0.7 h 0.65 l 0.85,0.3 q 1.05,0.4 1.5,1.3 l 0.25,0.45 q 0.4,1.25 0.25,2.25 -0.15,1.1 -0.8,1.75 -0.45,0.45 -1.5,0.85 l -0.75,0.3 -1.3,0.05 -0.55,-0.15 -1,-0.45 -0.5,-0.6 -0.3,-0.7 Q 35.1,34.75 35.1,33.55 M 24.6,39 q -2,-0.7 -2.6,-2.1 -0.3,-0.6 -0.3,-1.6 0.1,-1.45 0.45,-2.3 l 0.15,-0.3 h 0.75 l 1.3,-0.4 0.7,-0.3 1.6,-1.15 0.85,-0.9 h 0.05 q 2,0.2 2.95,2.25 0.75,1.6 0.2,3.75 l -0.5,1.15 q -0.45,0.7 -1.5,1.3 L 27.1,39.25 24.6,39 m 12.95,-3.45 q 0.6,0.4 1.35,0.3 Q 40.25,35.7 40.6,34.4 41,33.2 40,32.25 39,31.4 37.8,31.9 36.55,32.5 36.55,33.8 36.5,34.4 36.9,35 l 0.65,0.55 m -8.6,5.85 3.2,-0.65 -0.05,-0.1 -0.05,-1.45 0.05,-0.55 Q 32.3,38 32.95,38 q 0.6,0 1,0.65 l 0.35,1.2 0.1,0.45 0.45,-0.1 1.85,-0.3 q 0.95,0 1.25,0.45 l 0.1,0.7 -0.4,0.55 -1.3,0.45 -4,0.85 -1.55,0.3 -0.3,0.15 -0.3,0.25 -1.45,0.15 q -0.7,-0.35 -0.7,-1.25 0.1,-0.85 0.9,-1.1"
         fill="#ffffff"
         fill-rule="evenodd"
         stroke="none"
         id="path7" />
    </g>
    <g
       id="shape2"
       transform="translate(1.5,1.5)">
      <path
         d="M 0,23.8 V 0 H 64.1 V 23.8 57.55 H 0 Z"
         fill="none"
         stroke="#000000"
         stroke-linecap="round"
         stroke-linejoin="round"
         stroke-width="3"
         id="path8" />
    </g>
  </defs>
</svg>
