<?xml version="1.0" encoding="UTF-8" standalone="no"?>
<svg
   ffdec:objectType="frame"
   height="60.549999"
   width="67.099998"
   version="1.1"
   id="svg8"
   sodipodi:docname="669.svg"
   xmlns:inkscape="http://www.inkscape.org/namespaces/inkscape"
   xmlns:sodipodi="http://sodipodi.sourceforge.net/DTD/sodipodi-0.dtd"
   xmlns:xlink="http://www.w3.org/1999/xlink"
   xmlns="http://www.w3.org/2000/svg"
   xmlns:svg="http://www.w3.org/2000/svg"
   xmlns:ffdec="https://www.free-decompiler.com/flash">
  <sodipodi:namedview
     id="namedview8"
     pagecolor="#ffffff"
     bordercolor="#000000"
     borderopacity="0.25"
     inkscape:showpageshadow="2"
     inkscape:pageopacity="0.0"
     inkscape:pagecheckerboard="0"
     inkscape:deskcolor="#d1d1d1"
     fit-margin-top="5"
     fit-margin-left="5"
     fit-margin-right="5"
     fit-margin-bottom="5" />
  <g
     transform="translate(1.5,1.5)"
     id="g3">
    <use
       ffdec:characterId="516"
       height="57.549999"
       width="64.099998"
       xlink:href="#shape0"
       id="use1" />
    <use
       ffdec:characterId="1160"
       height="58.849998"
       transform="translate(-1.45,-0.45)"
       width="65.949997"
       xlink:href="#shape1"
       id="use2" />
    <use
       ffdec:characterId="518"
       height="60.549999"
       transform="translate(-1.5,-1.5)"
       width="67.099998"
       xlink:href="#shape2"
       id="use3" />
  </g>
  <defs
     id="defs8">
    <g
       id="shape0">
      <path
         d="M 53.6,0 H 64.1 V 57.55 H 53.6 28.25 0 V 0 H 28.25 53.6 V 57.55 0 M 28.25,0 V 57.55 0"
         fill="#ffffff"
         fill-rule="evenodd"
         stroke="none"
         id="path3" />
    </g>
    <g
       id="shape1"
       transform="translate(1.45,0.45)">
      <path
         d="m 23.85,25.55 q 0.15,0.9 -0.05,1.8 l -0.25,0.8 -1.05,1.25 q -1.45,1.1 -3.15,0.5 -1.25,-0.4 -2.25,-1.7 l -0.3,-0.4 q -0.3,-0.65 -0.2,-1.45 v -0.4 q 1.05,-0.3 1.7,-1.15 l 0.6,-0.85 0.5,-0.95 1.4,-0.2 q 1.1,0.1 1.85,0.8 l 0.7,0.9 0.3,0.5 0.2,0.55 M 11.1,29.5 q -1.15,0.75 -2.6,0.65 -2.1,-0.2 -3.05,-1.85 -0.9,-1.4 -0.3,-2.95 0.5,-1.5 2.05,-2.3 l 1.1,-0.35 1.35,0.05 0.3,0.5 0.75,1.25 q 0.75,1.15 2.2,1.6 l -0.05,0.1 q 0.05,1 -0.45,1.85 L 11.1,29.5 M 11,33.65 q -0.55,-0.4 -0.85,-1.2 L 10,31.7 l 0.25,-0.6 0.45,-0.2 0.2,0.35 0.8,0.7 0.9,0.2 q 0.5,-0.1 1.2,-0.75 l 0.2,-0.25 0.25,-0.3 0.15,-0.2 q 0.2,-0.4 0.45,-0.3 l 0.35,0.2 0.15,0.15 0.05,0.1 q 0.25,0.8 1.2,1.15 l 0.6,0.1 q 0.65,0 1.1,-0.55 l 0.2,-0.95 h 0.05 l 0.45,0.2 0.2,0.6 -0.15,0.35 -0.1,0.45 -0.15,0.45 -0.6,0.8 -1.25,0.9 H 16.9 l -0.5,0.4 -1.8,0.65 -1.25,-0.1 -0.75,-0.3 -0.5,-0.4 L 11.75,34.2 11.5,33.95 11,33.65"
         fill="#ffffff"
         fill-rule="evenodd"
         stroke="none"
         id="path4" />
      <path
         d="M 52.6,1.5 52.45,3.1 52.4,3.95 52.1,5.05 51.85,6.1 51.8,6.65 51.25,7.25 Q 50.85,7.35 50.5,7 l -1.45,-3.85 -0.4,-2.8 0.05,-0.8 h 4.05 L 52.6,1.5 m 7.25,5.4 -1.6,1 L 57.9,8.15 57.3,8.55 56.65,8.5 Q 56.35,8.3 56.35,7.9 L 56.4,7.5 q 0.35,-1.05 1.15,-2.2 l 0.5,-0.7 0.5,-0.95 0.5,-0.75 0.25,-0.6 Q 59.6,1.55 60.4,1.15 L 62.05,1.1 q 1,0.4 1.25,1.5 0.25,0.95 -0.45,1.75 l -1.1,0.9 -0.85,0.7 -0.45,0.3 -0.6,0.65 M 41.75,7.1 41.15,6.45 40.7,6.15 39.85,5.45 38.75,4.55 Q 38.05,3.75 38.3,2.8 38.55,1.7 39.55,1.3 l 1.65,0.05 q 0.8,0.4 1.1,1.15 l 0.25,0.6 0.5,0.75 0.5,0.95 0.5,0.7 1.15,2.2 0.05,0.4 -0.3,0.6 -0.65,0.05 -0.6,-0.4 -0.35,-0.25 -1.6,-1 m -18.2,21.05 -0.1,0.9 q -0.15,2.05 -0.75,3.55 -0.6,1.6 -1.9,3.05 l 9.65,-1.5 1.95,-0.05 1.15,0.1 1.15,-0.05 h 1.1 l 0.5,0.15 q 0.7,0.45 0.8,1.3 0,0.7 -0.55,1.3 -0.65,0.55 -1.4,0.35 l -0.6,-0.25 -0.1,0.75 q -0.25,1.05 -1.2,1.85 -1,0.75 -2.2,0.95 -2.3,0.2 -4.1,-1.75 l -7.4,0.45 -5.95,0.45 q -1.25,2.75 -1.6,4.2 -0.45,1.75 -0.45,4.9 l 0.05,0.55 0.35,5.65 -0.25,2.05 -0.95,1.05 -1.4,0.3 Q 8.6,58.35 8.05,57.85 L 7.45,57.1 7.3,57.2 6.2,57.7 3.75,57.55 3.4,57.45 2.95,57.55 0.95,57.4 Q -0.3,56.75 -0.55,55.05 -0.7,54 -0.3,52.8 h -0.05 l -1.1,-0.3 0.15,-1.75 v -0.1 l 0.1,-1.15 0.5,-5.65 1.15,-2.05 q 1.05,-1.65 2.25,-3 -1.4,0.65 -2.25,1.4 l -0.85,1.1 -0.1,0.2 0.45,-5.6 q 1.35,-0.6 2.9,-0.75 l -1.3,-2 Q 0.8,31.75 0.4,30.15 L 0.95,23.6 q 0.5,-1.25 1.25,-2.35 l -0.05,-0.2 0.3,-2 L 2.5,17.1 2.4,16.4 Q 2.5,15.45 3.15,14.95 4,14.35 4.8,14.6 l 1.85,0.65 q 0.6,0.2 1.85,0.95 l 0.8,-0.35 q 3.55,-1.3 7.2,0 1.15,0.5 2.1,1.15 l 0.6,-0.25 2.1,-0.65 1.35,-0.35 q 0.9,0 1.25,0.6 0.4,0.4 0.35,1.7 l -0.05,2.2 -0.35,5.3 -0.2,-0.55 -0.3,-0.5 -0.7,-0.9 Q 21.9,22.9 20.8,22.8 l -1.4,0.2 -0.5,0.95 -0.6,0.85 q -0.65,0.85 -1.7,1.15 v 0.4 q -0.1,0.8 0.2,1.45 l 0.3,0.4 q 1,1.3 2.25,1.7 1.7,0.6 3.15,-0.5 l 1.05,-1.25 m -12.55,5.5 0.5,0.3 0.25,0.25 0.35,0.35 0.5,0.4 0.75,0.3 1.25,0.1 1.8,-0.65 0.5,-0.4 h 0.05 l 1.25,-0.9 0.6,-0.8 0.15,-0.45 0.1,-0.45 0.15,-0.35 -0.2,-0.6 -0.45,-0.2 H 18.5 l -0.2,0.95 q -0.45,0.55 -1.1,0.55 l -0.6,-0.1 Q 15.65,31.6 15.4,30.8 l -0.05,-0.1 -0.15,-0.15 -0.35,-0.2 q -0.25,-0.1 -0.45,0.3 l -0.15,0.2 -0.25,0.3 -0.2,0.25 q -0.7,0.65 -1.2,0.75 l -0.9,-0.2 -0.8,-0.7 -0.2,-0.35 -0.45,0.2 -0.25,0.6 0.15,0.75 q 0.3,0.8 0.85,1.2 m 0.1,-4.15 1.3,-1.45 Q 12.9,27.2 12.85,26.2 L 12.9,26.1 Q 11.45,25.65 10.7,24.5 L 9.95,23.25 9.65,22.75 8.3,22.7 7.2,23.05 q -1.55,0.8 -2.05,2.3 -0.6,1.55 0.3,2.95 0.95,1.65 3.05,1.85 1.45,0.1 2.6,-0.65"
         fill="#999999"
         fill-rule="evenodd"
         stroke="none"
         id="path5" />
      <path
         d="m 63.9,22.05 -0.6,-0.95 -1,-1 q -0.8,-0.55 -2.1,-0.65 -0.65,1.15 -2.55,2.35 -1.55,0.95 -2.95,1.4 l -0.05,0.65 0.05,1.5 0.45,1.25 q 0.8,1.6 2,2.15 l 1.1,0.3 1.55,0.1 q 1.9,-0.1 3.25,-1.2 l 0.85,-1 v 6.8 l -0.8,1 q -1.8,2.1 -4.45,3.2 l 4.9,3.15 0.35,0.25 v 5.85 l -3.4,-2.25 0.15,0.45 1.25,4.3 q 0.6,2.4 1.05,6.1 L 63,57.95 H 40.6 q -0.15,-0.9 0.05,-2.15 0.45,-3.7 1.05,-6.1 l 1.25,-4.3 0.15,-0.45 q -5.25,3.9 -9.95,4.8 l -3.95,0.1 q -2.2,-0.4 -3.35,-1.95 -1.4,-1.85 -0.65,-3.75 0.35,-0.95 1.3,-1.6 0.95,-0.6 2.55,-0.65 1.6,-0.05 3.7,1.6 l 1.1,0.45 q 2.7,-0.6 6.2,-2.85 l 4.9,-3.15 Q 42.3,36.85 40.5,34.75 39.15,33.2 38.05,30.9 36.75,28.25 36.5,26.5 36.3,25.35 36.45,23.85 l -1.15,-2.1 q -0.9,-1.85 -1.55,-5.5 -0.3,-1.85 0,-2.7 0.5,-1.3 1.7,-1.65 l 1.65,-0.15 4.65,0.1 q 0.85,-1.05 2.3,-1.7 1.6,-0.85 4.1,-1.1 L 51.8,8.9 55.45,9.05 q 2.5,0.25 4.1,1.1 1.45,0.65 2.3,1.7 L 63.9,11.8 v 10.25 m -19.8,9.2 0.4,0.45 0.3,0.45 0.45,0.4 1,0.55 0.8,0.15 1.95,0.05 q 1.1,-0.15 1.8,-0.85 l 0.45,-0.4 0.45,0.4 q 0.7,0.7 1.8,0.85 l 1.95,-0.05 0.8,-0.15 1,-0.55 0.45,-0.4 0.3,-0.45 0.4,-0.45 Q 58.6,30.8 58.35,30.5 58.1,30.05 57.7,30.15 l -0.95,0.3 -1.5,0.25 -1.6,-0.35 -0.95,-0.85 -1,-0.7 H 51.6 L 51.55,28.75 H 51.3 51 L 50.95,28.8 H 50.8 q -0.45,0.15 -1,0.7 l -0.95,0.85 -1.6,0.35 -1.5,-0.25 -0.95,-0.3 q -0.4,-0.1 -0.65,0.35 -0.25,0.3 -0.05,0.75 m 5.15,-7.4 V 23.5 q -1.35,-0.3 -2.1,-0.75 l -1.7,-1.4 -0.95,-1.1 -0.35,-0.85 q -1.65,0.05 -2.55,0.7 l -1,1 -0.7,1.1 -0.35,1.2 -0.15,1.45 q 0,1.8 1.45,3.1 1.35,1.1 3.25,1.2 l 1.55,-0.1 1.1,-0.3 q 1.2,-0.55 2,-2.15 l 0.45,-1.25 0.05,-1.5"
         fill="#000000"
         fill-rule="evenodd"
         stroke="none"
         id="path6" />
      <path
         d="m 63.9,26.95 -0.85,1 q -1.35,1.1 -3.25,1.2 l -1.55,-0.1 -1.1,-0.3 q -1.2,-0.55 -2,-2.15 L 54.7,25.35 54.65,23.85 54.7,23.2 q 1.4,-0.45 2.95,-1.4 1.9,-1.2 2.55,-2.35 1.3,0.1 2.1,0.65 l 1,1 0.6,0.95 0.1,0.15 0.35,1.2 0.15,1.45 q 0,1.15 -0.6,2.1 m -14.65,-3.1 -0.05,1.5 -0.45,1.25 q -0.8,1.6 -2,2.15 l -1.1,0.3 -1.55,0.1 q -1.9,-0.1 -3.25,-1.2 -1.45,-1.3 -1.45,-3.1 l 0.15,-1.45 0.35,-1.2 0.7,-1.1 1,-1 q 0.9,-0.65 2.55,-0.7 l 0.35,0.85 0.95,1.1 1.7,1.4 q 0.75,0.45 2.1,0.75 v 0.35 m -5.15,7.4 Q 43.9,30.8 44.15,30.5 44.4,30.05 44.8,30.15 l 0.95,0.3 1.5,0.25 1.6,-0.35 0.95,-0.85 q 0.55,-0.55 1,-0.7 h 0.15 L 51,28.75 h 0.3 0.25 l 0.05,0.05 h 0.1 l 1,0.7 0.95,0.85 1.6,0.35 1.5,-0.25 0.95,-0.3 q 0.4,-0.1 0.65,0.35 0.25,0.3 0.05,0.75 l -0.4,0.45 -0.3,0.45 -0.45,0.4 -1,0.55 -0.8,0.15 -1.95,0.05 q -1.1,-0.15 -1.8,-0.85 l -0.45,-0.4 -0.45,0.4 q -0.7,0.7 -1.8,0.85 l -1.95,-0.05 -0.8,-0.15 -1,-0.55 -0.45,-0.4 -0.3,-0.45 -0.4,-0.45"
         fill="#ffffff"
         fill-rule="evenodd"
         stroke="none"
         id="path7" />
    </g>
    <g
       id="shape2"
       transform="translate(1.5,1.5)">
      <path
         d="M 0,23.8 V 0 H 64.1 V 23.8 57.55 H 0 Z"
         fill="none"
         stroke="#000000"
         stroke-linecap="round"
         stroke-linejoin="round"
         stroke-width="3"
         id="path8" />
    </g>
  </defs>
</svg>
