<?xml version="1.0" encoding="UTF-8" standalone="no"?>
<svg
   ffdec:objectType="frame"
   height="60.549999"
   width="67.099998"
   version="1.1"
   id="svg7"
   sodipodi:docname="34.svg"
   xmlns:inkscape="http://www.inkscape.org/namespaces/inkscape"
   xmlns:sodipodi="http://sodipodi.sourceforge.net/DTD/sodipodi-0.dtd"
   xmlns:xlink="http://www.w3.org/1999/xlink"
   xmlns="http://www.w3.org/2000/svg"
   xmlns:svg="http://www.w3.org/2000/svg"
   xmlns:ffdec="https://www.free-decompiler.com/flash">
  <sodipodi:namedview
     id="namedview7"
     pagecolor="#ffffff"
     bordercolor="#000000"
     borderopacity="0.25"
     inkscape:showpageshadow="2"
     inkscape:pageopacity="0.0"
     inkscape:pagecheckerboard="0"
     inkscape:deskcolor="#d1d1d1"
     fit-margin-top="5"
     fit-margin-left="5"
     fit-margin-right="5"
     fit-margin-bottom="5" />
  <g
     transform="translate(1.5,1.5)"
     id="g3">
    <use
       ffdec:characterId="516"
       height="57.549999"
       width="64.099998"
       xlink:href="#shape0"
       id="use1" />
    <use
       ffdec:characterId="550"
       height="51.700001"
       transform="translate(-0.15,5.75)"
       width="59.400002"
       xlink:href="#shape1"
       id="use2" />
    <use
       ffdec:characterId="518"
       height="60.549999"
       transform="translate(-1.5,-1.5)"
       width="67.099998"
       xlink:href="#shape2"
       id="use3" />
  </g>
  <defs
     id="defs7">
    <g
       id="shape0">
      <path
         d="M 53.6,0 H 64.1 V 57.55 H 53.6 28.25 0 V 0 H 28.25 53.6 V 57.55 0 M 28.25,0 V 57.55 0"
         fill="#ffffff"
         fill-rule="evenodd"
         stroke="none"
         id="path3" />
    </g>
    <g
       id="shape1"
       transform="translate(0.15,-5.75)">
      <path
         d="m 53.95,25.8 2.55,0.3 q 1.4,0.45 2.25,1.95 0.7,1.45 0.45,3 -0.2,1.8 -1.6,3.1 -0.8,0.65 -1.7,0.95 -2.45,0.95 -4.3,-0.3 l -0.1,0.05 q -1.35,0.75 -2.4,0.7 -1.3,0 -2.15,-1.1 -0.85,-1.1 -0.35,-2.35 0.45,-1.2 2,-2 0.4,-0.25 0.75,-0.4 0.1,-1.2 0.6,-1.9 l 1,-1.05 L 52.2,26 53.95,25.8 M 43.1,46.5 42.65,48.2 q -0.5,0.9 -1.55,1.4 l -2.05,0.45 q -1.6,0 -2.6,-0.65 -1.35,-0.75 -1.5,-2.1 l 0.1,-1.4 0.15,-0.95 0.9,-1.6 q 0.75,-0.95 1.15,-1.15 l 2.25,-0.3 q 0.85,0.1 1.5,0.35 1.75,0.6 2.15,2.4 L 43.1,46.5 M 21.25,19.05 v -0.6 l 0.7,-2.25 0.55,-0.9 0.45,-0.5 0.4,-0.7 q 0.8,-1.15 2.25,-1.05 1.4,0.1 2.05,1.4 l 0.15,0.45 0.15,0.3 0.4,1.4 q 0.1,0.75 -0.3,2.25 l -0.45,1.2 q -0.8,1.55 -2.6,1.9 l -2.3,-0.35 -0.95,-0.85 -0.4,-0.95 -0.1,-0.75 m 3.4,3.1 q 0.75,0.1 1.3,0.8 0.9,1.1 0.35,2.4 -0.6,1.25 -2,1.35 L 23.15,26.35 22.3,25.4 q -0.6,-1.3 0.3,-2.4 0.75,-1.1 2.05,-0.85 M 5,57.25 H -0.15 V 14.3 l 1.95,-0.45 3.45,-0.1 0.85,0.1 1.7,-3.7 Q 8.55,8.45 9.3,7.95 L 10.8,7.6 q 0.85,0.1 1.4,0.65 l 1,1.7 q 3.15,8.2 4.45,14.65 l 0.7,2.65 q 1.8,7.8 2.55,16.1 L 22,42.1 q 0.95,-0.9 2,-0.95 1,-0.05 2.25,0.55 1.05,0.5 1.55,1.3 0.5,0.9 0.35,2 -0.15,1.05 -0.9,1.8 -0.8,0.85 -1.8,0.9 l -1.05,-0.05 -1.3,0.2 q -0.95,0.05 -1.75,-0.7 l -0.15,-0.2 0.1,2.6 q 0.25,6.1 -0.65,7.9 h -2.5 l -0.2,-0.2 h -3.2 L 15,57 q 0.55,-0.6 0.8,-1.55 0.6,-1.8 0.65,-4.25 l -0.1,-4.35 -0.3,-7.75 Q 15.65,34.7 14.3,31.7 12.9,28.55 10.65,27.3 L 9.1,26.75 9.15,26.45 8.9,25.3 Q 8.5,24.6 7.75,24.4 l -1.5,0.1 Q 5.55,24.85 5.3,25.65 5,26.4 5.35,27.1 l 0.15,0.3 -0.3,0.2 q -1.5,1.3 -2,4.55 -1.5,9.05 0.35,20.8 0.35,2.85 1.45,4.3 m 7.15,-37.45 0.2,-0.3 0.5,-0.5 q 0.25,-0.3 0.1,-0.6 l -0.35,-0.45 -0.85,0.1 -1.35,0.6 -0.3,0.3 -0.8,0.85 -0.5,0.15 -0.65,0.4 -0.4,0.4 -0.25,0.5 0.1,0.9 v 0.35 q 0.1,0.95 0.9,1.35 l 1.55,0.15 1.25,-0.5 0.75,-0.4 0.8,-0.15 2.05,-0.4 0.75,-0.4 q 0.35,-0.4 0.1,-0.9 -0.25,-0.4 -1,-0.5 H 13.5 12.2 l -0.55,-0.1 0.5,-0.85 M 27.1,36.15 q 0.5,0.7 0.45,1.4 -0.05,0.7 -0.55,1.2 -0.45,0.55 -1.15,0.6 L 24.6,39.1 q -0.6,-0.4 -0.85,-1.05 -0.2,-0.65 0.05,-1.3 0.25,-0.7 0.85,-1 l 1.3,-0.2 q 0.7,0.1 1.15,0.6 m 8.2,7.6 -0.35,1.15 q -0.65,1 -1.85,1 Q 32,46 31.15,45.05 30.1,43.8 30.8,42.45 q 0.25,-0.55 0.85,-0.85 1.2,-0.75 2.45,0 1.2,0.65 1.2,2.15"
         fill="#999999"
         fill-rule="evenodd"
         stroke="none"
         id="path4" />
      <path
         d="M 14.75,57.25 H 5 Q 3.9,55.8 3.55,52.95 1.7,41.2 3.2,32.15 3.7,28.9 5.2,27.6 L 5.5,27.4 5.35,27.1 Q 5,26.4 5.3,25.65 5.55,24.85 6.25,24.5 l 1.5,-0.1 q 0.75,0.2 1.15,0.9 l 0.25,1.15 -0.05,0.3 1.55,0.55 q 2.25,1.25 3.65,4.4 1.35,3 1.75,7.4 l 0.3,7.75 0.1,4.35 Q 16.4,53.65 15.8,55.45 15.55,56.4 15,57 l -0.25,0.25 m -2.6,-37.45 -0.5,0.85 0.55,0.1 h 1.3 1.25 q 0.75,0.1 1,0.5 0.25,0.5 -0.1,0.9 l -0.75,0.4 -2.05,0.4 -0.8,0.15 L 11.3,23.5 10.05,24 8.5,23.85 Q 7.7,23.45 7.6,22.5 v -0.35 l -0.1,-0.9 0.25,-0.5 0.4,-0.4 0.65,-0.4 0.5,-0.15 0.8,-0.85 0.3,-0.3 1.35,-0.6 0.85,-0.1 0.35,0.45 q 0.15,0.3 -0.1,0.6 l -0.5,0.5 -0.2,0.3"
         fill="#000000"
         fill-rule="evenodd"
         stroke="none"
         id="path5" />
      <path
         d="m 57.25,19.4 q 0.5,2.8 -0.8,5.15 -0.8,1.4 -2.3,2.6 -1.3,1.95 -3.55,3.2 -2,1.15 -4.45,1.6 l -0.45,0.65 -0.65,0.8 -0.7,1.05 q -0.45,0.6 -1.45,0.95 l -2.25,0.15 q -1.5,-0.5 -1.75,-2.15 -0.05,-0.45 0.05,-0.8 l -0.4,0.3 -3.3,3 -1.65,1.65 q -1.1,0.85 -2.15,0.9 L 30,38.1 Q 29.3,37.65 28.95,37 28.2,35.45 29.3,34.1 l 1.45,-1.05 0.4,-0.2 -0.1,-0.05 q -0.45,-0.35 -0.5,-0.95 -0.05,-0.6 0.2,-1.1 0.3,-0.65 1.6,-1.6 L 33.8,28.1 33.05,27.15 q -0.3,-0.65 -0.2,-1.4 l -0.25,-0.1 q -0.8,-0.3 -1.3,-1.05 -0.5,-0.75 -0.55,-1.6 0,-0.85 0.5,-1.6 0.45,-0.75 1.25,-1.1 l 1.3,-0.4 1.35,-0.5 0.2,-0.1 q 1.1,-3 4.05,-5.85 2.1,-2 3.95,-2.8 2.3,-1.05 4.95,-0.75 2.65,0.3 4.75,1.75 1.85,1.3 2.5,2.85 l 0.4,1.15 q 1.05,1.9 1.3,3.75 m -15.3,24.75 0.9,-0.7 q 1.3,-1.1 3.75,-0.65 2.95,0.45 4.25,2.35 l 0.75,1.85 0.15,1.5 q -0.05,1.25 -0.65,2.4 -0.6,1.15 -1.6,1.85 -1.35,0.9 -3.25,1 -2.25,0 -3.5,-1.15 l -0.9,0.1 -2.15,-0.35 q -1.1,-0.45 -1.55,-1.4 -0.6,-1.4 0.3,-2.85 L 38,47.9 q -0.6,-0.4 -0.8,-1.2 -0.25,-0.75 0.1,-1.4 0.5,-0.85 1.6,-1.1 l 1.95,-0.05 h 1.1 M 19.7,13.05 19.4,11.75 q -0.2,-1.4 0.25,-2.85 0.5,-1.55 1.7,-2.3 1.3,-0.85 3.05,-0.85 1.35,0 2.35,0.5 1.25,0.6 2.1,2.1 0.65,1.2 0.65,2.45 0,1.1 -0.85,3.2 l -0.95,1.8 -0.3,0.5 -0.1,0.4 -0.1,1.15 -0.5,1.9 -0.75,0.65 -0.9,0.1 Q 24.2,20.25 24,18.95 v -0.3 h -1.05 q -1.1,-0.2 -1.85,-1.1 -0.75,-0.9 -0.85,-2.05 -0.05,-0.9 0.25,-1.45 l -0.8,-1 m 4.6,40.85 q -1.65,0.95 -3,0.8 L 19.45,54.1 18.4,53.3 Q 18,52.85 17.75,52.05 17.1,49.85 18.3,47.8 q 0.4,-0.75 0.95,-1.25 -0.25,-0.7 -0.15,-1.5 0.35,-1.6 1.85,-2.1 0.7,-0.25 1.4,0 0.75,0.2 1.25,0.8 v 0.05 l 0.85,-0.55 q 1.3,-0.3 2.2,0.65 0.9,0.95 0.45,2.25 l -0.5,1.45 0.1,1.05 q 0.4,2.55 -1.1,4.2 l -1.3,1.05"
         fill="#000000"
         fill-rule="evenodd"
         stroke="none"
         id="path6" />
    </g>
    <g
       id="shape2"
       transform="translate(1.5,1.5)">
      <path
         d="M 0,23.8 V 0 H 64.1 V 23.8 57.55 H 0 Z"
         fill="none"
         stroke="#000000"
         stroke-linecap="round"
         stroke-linejoin="round"
         stroke-width="3"
         id="path7" />
    </g>
  </defs>
</svg>
