<?xml version="1.0" encoding="UTF-8" standalone="no"?>
<svg
   ffdec:objectType="frame"
   height="60.549999"
   width="67.099998"
   version="1.1"
   id="svg8"
   sodipodi:docname="625.svg"
   xmlns:inkscape="http://www.inkscape.org/namespaces/inkscape"
   xmlns:sodipodi="http://sodipodi.sourceforge.net/DTD/sodipodi-0.dtd"
   xmlns:xlink="http://www.w3.org/1999/xlink"
   xmlns="http://www.w3.org/2000/svg"
   xmlns:svg="http://www.w3.org/2000/svg"
   xmlns:ffdec="https://www.free-decompiler.com/flash">
  <sodipodi:namedview
     id="namedview8"
     pagecolor="#ffffff"
     bordercolor="#000000"
     borderopacity="0.25"
     inkscape:showpageshadow="2"
     inkscape:pageopacity="0.0"
     inkscape:pagecheckerboard="0"
     inkscape:deskcolor="#d1d1d1"
     fit-margin-top="5"
     fit-margin-left="5"
     fit-margin-right="5"
     fit-margin-bottom="5" />
  <g
     transform="translate(1.5,1.5)"
     id="g3">
    <use
       ffdec:characterId="516"
       height="57.549999"
       width="64.099998"
       xlink:href="#shape0"
       id="use1" />
    <use
       ffdec:characterId="1116"
       height="57"
       transform="translate(1.4,-0.15)"
       width="62.950001"
       xlink:href="#shape1"
       id="use2" />
    <use
       ffdec:characterId="518"
       height="60.549999"
       transform="translate(-1.5,-1.5)"
       width="67.099998"
       xlink:href="#shape2"
       id="use3" />
  </g>
  <defs
     id="defs8">
    <g
       id="shape0">
      <path
         d="M 53.6,0 H 64.1 V 57.55 H 53.6 28.25 0 V 0 H 28.25 53.6 V 57.55 0 M 28.25,0 V 57.55 0"
         fill="#ffffff"
         fill-rule="evenodd"
         stroke="none"
         id="path3" />
    </g>
    <g
       id="shape1"
       transform="translate(-1.4,0.15)">
      <path
         d="m 60.2,21.05 0.3,0.05 h 0.1 l 0.1,0.05 0.2,0.05 0.15,0.05 0.15,0.1 0.15,0.05 0.1,0.1 0.1,0.05 0.1,0.1 0.05,0.05 0.05,0.1 0.1,0.1 0.05,0.05 0.05,0.1 0.05,0.05 v 0.1 l 0.05,0.05 0.05,0.1 0.05,0.05 v 0.1 l 0.05,0.1 0.05,0.05 0.05,0.1 v 0.05 0.1 l 0.05,0.05 v 0.1 0.05 0.1 0.1 0.05 l 0.05,0.1 v 0.05 0.1 0.05 0.1 0.05 0.1 0.05 0.1 0.1 0.05 0.1 0.05 0.1 0.05 0.1 0.05 0.1 0.1 0.05 0.1 0.05 0.1 0.05 0.1 0.05 0.1 0.1 0.05 0.1 0.05 0.1 0.05 0.1 0.05 0.1 0.1 0.05 0.1 0.05 0.1 0.05 0.1 0.05 0.1 0.05 0.1 0.1 0.05 0.1 l -0.05,0.05 v 0.1 0.05 0.1 0.05 0.1 0.1 0.05 0.1 0.05 0.1 0.05 0.1 0.05 0.1 0.1 0.05 l -0.05,0.1 v 0.05 0.1 0.05 0.1 0.05 0.1 0.1 0.05 0.1 l -0.05,0.05 v 0.1 l -0.05,0.05 v 0.1 0.05 l -0.05,0.1 v 0.05 l -0.05,0.1 v 0.1 0.05 0.1 0.05 0.1 l -0.05,0.05 v 0.1 0.05 0.1 0.1 0.05 0.1 0.05 0.1 L 62,31.1 v 0.1 0.05 0.1 0.1 0.05 0.1 0.05 0.1 l -0.05,0.05 v 0.1 0.05 0.1 0.05 0.1 l -0.05,0.1 v 0.05 0.1 0.05 0.1 0.05 l -0.05,0.1 v 0.05 0.1 L 61.8,33 v 0.05 0.1 0.05 0.1 l -0.05,0.05 v 0.1 0.05 l -0.05,0.1 v 0.1 0.05 0.1 0.05 L 61.65,34 v 0.05 0.1 L 61.6,34.2 v 0.1 0.1 0.05 l -0.05,0.1 v 0.05 0.1 0.05 0.1 L 61.5,34.9 V 35 l -0.05,0.05 v 0.1 0.1 0.05 l -0.05,0.1 v 0.05 0.1 0.05 0.1 l -0.05,0.05 v 0.1 0.1 0.05 l -0.05,0.1 v 0.05 0.1 0.05 0.1 0.05 l -0.05,0.1 v 0.1 0.05 0.1 0.05 0.1 L 61.2,37 v 0.1 0.05 0.1 0.1 0.05 0.1 l -0.05,0.05 v 0.1 0.05 0.1 0.05 l -0.05,0.1 v 0.05 0.1 0.1 0.05 0.1 0.05 l -0.05,0.1 v 0.05 0.1 0.05 0.1 0.1 0.05 0.1 L 61,39.1 v 0.1 0.05 0.1 0.05 0.1 0.1 l -0.05,0.05 v 0.1 0.05 0.1 0.05 l -0.05,0.1 v 0.05 0.1 0.05 0.1 0.1 0.05 l -0.05,0.1 v 0.05 0.1 0.05 0.1 l -0.05,0.05 v 0.1 0.1 l -0.05,0.05 v 0.1 l -0.05,0.05 v 0.1 0.05 0.1 0.05 l -0.05,0.1 0.05,0.1 v 0.05 0.1 0.05 0.1 0.05 l -0.05,0.1 v 0.05 l -0.05,0.1 -0.05,0.1 v 0.05 l -0.05,0.1 v 0.05 L 60.45,42.85 60.4,42.9 60.35,43 60.2,43.05 60,43 59.9,42.9 59.85,42.85 v -0.1 L 59.8,42.7 v -0.1 -0.05 -0.1 -0.1 L 59.75,42.3 V 42.2 L 59.7,42.15 V 42.05 42 41.9 41.85 41.75 l -0.05,-0.1 V 41.6 41.5 41.45 L 59.6,41.35 V 41.3 41.2 41.15 l -0.05,-0.1 V 40.95 40.9 40.8 L 59.5,40.75 v -0.1 -0.05 -0.1 -0.05 -0.1 -0.1 L 59.45,40.2 V 40.1 40.05 39.95 39.9 L 59.4,39.8 v -0.05 -0.1 -0.05 -0.1 -0.1 -0.05 l -0.05,-0.1 V 39.2 39.1 39.05 38.95 38.9 38.8 L 59.3,38.7 v -0.05 -0.1 -0.05 -0.1 -0.05 -0.1 L 59.25,38.2 V 38.1 38 L 59.2,37.95 v -0.1 -0.05 -0.1 -0.05 l -0.05,-0.1 V 37.5 37.4 37.35 37.25 37.15 37.1 L 59.1,37 v -0.05 -0.1 -0.05 -0.1 -0.05 -0.1 l -0.05,-0.1 V 36.4 36.3 36.25 36.15 L 59,36.1 V 36 35.95 35.85 l -0.05,-0.1 V 35.7 35.6 35.55 35.45 L 58.9,35.4 v -0.1 -0.05 -0.1 l -0.05,-0.1 V 35 34.9 34.85 34.75 L 58.8,34.7 v -0.1 -0.05 -0.1 L 58.75,34.4 V 34.3 34.2 34.15 L 58.7,34.05 V 34 33.9 L 58.65,33.85 V 33.75 33.7 33.6 L 58.6,33.5 v -0.05 -0.1 -0.05 -0.1 l -0.05,-0.05 v -0.1 L 58.5,33 v -0.1 -0.1 -0.05 l -0.05,-0.1 V 32.6 32.5 32.45 32.35 L 58.4,32.3 v -0.1 -0.1 -0.05 -0.1 -0.05 l -0.05,-0.1 v -0.05 -0.1 -0.05 -0.1 -0.05 -0.1 -0.1 -0.05 L 58.3,31.1 v -0.05 -0.1 -0.05 -0.1 -0.05 -0.1 -0.1 -0.05 -0.1 l -0.05,-0.05 v -0.1 -0.05 -0.1 -0.05 l -0.05,-0.1 v -0.1 -0.05 l -0.05,-0.1 v -0.05 -0.1 L 58.1,29.5 V 29.4 29.35 29.25 29.2 29.1 L 58.05,29 v -0.05 -0.1 -0.05 -0.1 -0.05 -0.1 -0.05 -0.1 -0.1 -0.05 -0.1 L 58,28.1 V 28 27.95 27.85 27.8 27.7 27.6 27.55 27.45 27.4 27.3 27.25 27.15 27.1 27 26.9 26.85 26.75 26.7 26.6 26.55 26.45 26.4 26.3 26.25 26.15 26.05 26 25.9 25.85 25.75 25.7 25.6 25.55 25.45 l -0.05,-0.1 V 25.3 25.2 25.15 25.05 25 24.9 24.85 24.75 24.65 24.6 24.5 24.45 L 58,24.35 v -0.05 -0.1 -0.05 -0.1 -0.1 -0.05 -0.1 -0.05 -0.1 -0.05 -0.1 -0.05 -0.1 -0.05 -0.1 -0.1 -0.05 l 0.05,-0.1 V 22.9 22.8 l 0.05,-0.05 v -0.1 l 0.05,-0.05 v -0.1 l 0.05,-0.1 v -0.05 l 0.05,-0.1 0.05,-0.05 0.05,-0.1 0.05,-0.05 0.05,-0.1 0.05,-0.05 0.1,-0.1 0.05,-0.1 0.1,-0.05 0.05,-0.1 0.1,-0.05 0.1,-0.1 0.15,-0.05 0.15,-0.1 0.15,-0.05 0.2,-0.05 0.1,-0.05 h 0.1 0.35 v -0.05 m -27.45,2.3 -0.65,0.05 -0.1,0.35 0.15,0.35 0.35,0.6 0.35,0.6 -0.05,0.45 -0.1,0.4 -0.8,0.7 -0.85,0.3 0.15,0.35 0.4,0.4 -0.05,0.55 q -0.2,0.3 -0.45,0.2 L 30.3,27.8 30.1,27.25 30.05,26.4 q 0.2,-0.55 0.55,-0.6 l -0.4,-0.5 -0.65,-1 -0.15,-0.75 v -0.5 h -0.05 v 0.05 l -0.05,0.1 v 0.05 0.1 0.1 0.05 0.1 0.05 l -0.05,0.1 v 0.05 0.1 0.05 l -0.05,0.1 v 0.1 0.05 0.1 0.05 0.1 l -0.05,0.05 v 0.1 0.05 0.1 0.1 L 29.1,24.9 v 0.1 0.05 0.1 0.05 0.1 l -0.05,0.05 v 0.1 0.05 0.1 0.1 0.05 0.1 0.05 0.1 L 29,26.05 v 0.1 0.05 0.1 0.1 0.05 0.1 0.05 0.1 0.05 0.1 0.05 0.1 l -0.05,0.1 v 0.05 0.1 0.05 0.1 0.05 0.1 0.05 0.1 0.05 0.1 0.1 0.05 0.1 0.05 l -0.05,0.1 v 0.05 0.1 l -0.1,0.05 v 0.1 l -0.05,0.1 -0.05,0.05 -0.1,0.1 -0.05,0.05 -0.1,0.05 L 28.4,28.8 28.3,28.75 28.25,28.65 28.2,28.6 28.15,28.5 28.1,28.4 v -0.05 l -0.05,-0.1 V 28.2 28.1 L 28,28.05 V 27.95 27.9 27.8 27.7 27.65 27.55 27.5 27.4 27.35 27.25 27.2 27.1 27 26.95 26.85 26.8 26.7 26.65 26.55 L 27.95,26.5 V 26.4 26.35 26.25 26.15 26.1 26 25.95 25.85 L 27.9,25.8 v -0.1 -0.05 -0.1 -0.1 -0.05 -0.1 -0.05 -0.1 L 27.85,25.1 V 25 24.95 24.85 24.75 24.7 L 27.8,24.6 V 24.55 24.45 24.4 24.3 L 27.75,24.25 V 24.15 24.1 24 23.9 L 27.7,23.85 V 23.75 23.7 23.6 L 27.65,23.55 V 23.45 23.4 23.3 23.2 23.15 23.05 23 22.9 22.85 22.75 L 27.6,22.7 v -0.1 -0.1 -0.05 l -0.05,-0.1 V 22.3 22.2 L 27.5,22.15 V 22.05 22 21.9 l -0.05,-0.05 -0.85,-1.1 q -0.95,-1.6 -0.55,-3.65 0.3,-1.75 1.7,-3.35 l 1.25,-1 1.35,-0.4 q 0.25,-1.05 1.2,-2 L 32.2,9.8 32.1,9.45 V 8.85 Q 32.2,7.9 32.4,7.5 l 0.35,-0.45 q 0.8,-0.8 1.4,-0.9 l 0.5,-0.1 h 1.25 q 1.1,0.15 1.85,1.05 0.6,0.75 0.5,1.6 l -0.05,0.25 0.85,0.4 q 1.15,0.7 1.8,1.65 l 0.25,-0.1 1.15,-0.05 0.6,0.05 1.35,0.85 q 0.45,0.6 0.55,1.45 l -0.15,1.05 q -0.4,1.5 -1.8,2 l -0.85,0.1 -0.8,-0.05 q -0.9,1.6 -2.65,2.1 v 0.1 0.1 0.05 0.1 0.05 0.1 L 38.45,19 v 0.05 0.1 0.05 0.1 0.05 0.1 0.05 0.1 0.1 0.05 0.1 L 38.4,19.9 v 0.1 0.05 0.1 0.05 0.1 l -0.05,0.1 v 0.05 0.1 0.05 0.1 l -0.05,0.05 v 0.1 0.05 0.1 l -0.05,0.05 v 0.1 0.1 L 38.2,21.3 v 0.1 0.05 l -0.05,0.1 v 0.05 0.1 0.05 l -0.05,0.1 v 0.1 0.05 0.1 0.05 0.1 0.05 0.1 l -0.05,0.05 v 0.1 0.1 0.05 0.1 0.05 0.1 L 38,23 v 0.1 0.05 l -0.05,0.1 v 0.05 0.1 0.1 0.05 0.1 L 37.9,23.7 v 0.1 0.05 0.1 0.05 0.1 0.1 0.05 0.1 0.05 0.1 0.05 l -0.05,0.1 v 0.05 0.1 0.1 0.05 0.1 0.05 0.1 0.05 0.1 0.05 0.1 l -0.05,0.1 v 0.05 0.1 0.05 0.1 0.05 0.1 0.05 l -0.05,0.1 v 0.05 0.1 l -0.05,0.1 v 0.05 0.1 0.05 0.1 0.05 0.1 0.05 l -0.05,0.1 v 0.1 0.05 0.1 0.05 0.1 0.05 0.1 0.05 0.1 0.1 0.05 0.1 l -0.05,0.05 v 0.1 0.05 0.1 0.05 0.1 0.1 0.05 l -0.05,0.1 v 0.05 0.1 0.05 L 37.5,29 v 0.05 l -0.05,0.1 -0.05,0.05 -0.05,0.1 -0.1,0.05 -0.05,0.05 H 37.1 L 36.9,29.35 36.8,29.3 36.7,29.2 36.65,29.1 V 29.05 L 36.6,28.95 V 28.9 28.8 28.75 28.65 L 36.55,28.6 V 28.5 28.4 28.35 28.25 28.2 28.1 L 36.5,28.05 V 27.95 27.9 27.8 27.7 27.65 27.55 27.5 27.4 27.35 27.25 27.2 27.1 L 36.45,27 V 26.95 26.85 26.8 26.7 26.65 26.55 26.5 L 36.4,26.4 V 26.35 26.25 26.15 26.1 26 l -0.05,-0.05 v -0.1 -0.05 -0.1 -0.05 -0.1 -0.1 -0.05 -0.1 -0.05 L 36.3,25.15 V 25.1 25 24.95 24.85 24.75 24.7 24.6 24.55 24.45 24.4 24.3 24.25 24.15 L 36.25,24.1 V 24 23.9 23.85 23.75 L 36.2,23.7 v -0.1 -0.05 -0.1 -0.05 -0.1 l -0.05,-0.1 v -0.05 -0.1 L 36.1,23 v -0.1 -0.05 -0.1 -0.05 -0.1 -0.1 l -0.05,-0.05 v -0.1 -0.05 -0.1 -0.05 -0.1 -0.1 L 35.9,22.1 v 0.1 0.1 0.05 0.1 l -0.05,0.05 v 0.1 0.1 0.05 0.1 0.05 0.1 0.05 0.1 0.05 l -0.05,0.1 v 0.1 l -0.05,0.05 v 0.1 0.05 l -0.05,0.1 v 0.05 0.1 0.05 0.1 l -0.05,0.1 v 0.05 0.1 0.05 0.1 0.05 0.1 0.05 l -0.05,0.1 v 0.05 0.1 0.1 L 35.55,25 v 0.1 l -0.05,0.05 v 0.1 0.05 l -0.05,0.1 v 0.05 0.1 0.1 0.05 0.1 0.05 0.1 0.05 0.1 0.05 0.1 0.1 L 35.4,26.4 v 0.1 0.05 0.1 0.05 0.1 0.05 0.1 0.05 0.1 l -0.05,0.1 v 0.05 0.1 0.05 0.1 0.05 0.1 0.05 0.1 0.1 0.05 0.1 0.05 0.1 0.05 0.1 0.05 0.1 0.1 0.05 0.1 L 35.3,28.8 v 0.1 0.05 0.1 0.05 0.1 l -0.05,0.1 v 0.05 0.1 0.05 0.1 0.05 0.1 0.05 0.1 0.05 l -0.05,0.1 v 0.1 0.05 0.1 0.05 0.1 0.05 0.1 0.05 0.1 0.1 0.05 0.1 0.05 0.1 0.05 0.1 0.05 0.1 l -0.05,0.1 v 0.05 0.1 0.05 0.1 0.05 0.1 0.05 0.1 0.05 0.1 0.1 0.05 0.1 0.05 0.1 0.05 l -0.05,0.1 v 0.05 0.1 0.1 l -0.05,0.05 v 0.1 0.05 0.1 L 35,33.45 v 0.1 0.05 0.1 l -0.05,0.1 v 0.05 0.1 0.05 0.1 l -0.05,0.05 v 0.1 0.05 0.1 l -0.05,0.1 v 0.05 0.1 L 34.8,34.7 v 0.1 L 34.75,34.85 34.7,34.95 34.6,35 34.45,35.05 34.3,35 34.2,34.95 34.15,34.85 V 34.8 L 34.1,34.7 V 34.65 34.55 34.5 L 34.05,34.4 34,34.3 V 34.25 34.15 34.1 34 L 33.95,33.95 V 33.85 33.8 33.7 L 33.9,33.6 V 33.55 33.45 33.4 33.3 L 33.85,33.25 V 33.15 33.1 L 33.8,33 V 32.9 32.85 32.75 32.7 32.6 L 33.75,32.55 V 32.45 32.4 32.3 32.2 32.15 32.05 32 31.9 31.85 31.75 31.7 31.6 31.55 31.45 31.35 31.3 31.2 31.15 L 33.7,31.05 V 31 30.9 30.85 30.75 30.65 30.6 30.5 30.45 30.35 30.3 30.2 30.15 30.05 29.95 29.9 29.8 29.75 29.65 29.6 29.5 L 33.65,29.45 V 29.35 29.3 29.2 29.1 L 33.6,29.05 V 28.95 28.9 28.8 28.75 28.65 28.6 28.5 28.4 28.35 28.25 28.2 28.1 L 33.55,28.05 V 27.95 27.9 27.8 27.7 27.65 27.55 27.5 27.4 27.35 27.25 27.2 27.1 27 26.95 26.85 26.8 L 33.5,26.7 V 26.65 26.55 26.5 26.4 26.35 26.25 26.15 26.1 26 l -0.05,-0.05 v -0.1 -0.05 -0.1 -0.05 -0.1 -0.1 -0.05 -0.1 -0.05 -0.1 L 33.4,25.1 33.35,25 v -0.05 -0.1 -0.1 L 33.3,24.7 v -0.1 -0.05 l -0.05,-0.1 V 24.4 24.3 24.25 24.15 24.1 24 L 33.2,23.9 v -0.05 -0.1 -0.05 -0.1 l -0.05,-0.05 v -0.1 L 33.1,23.4 v -0.1 l -0.35,0.05 m 5.7,-7.7 1.25,0.35 q 0.8,-0.2 1.1,-0.65 0.75,-0.85 0.15,-1.9 -0.5,-0.95 -1.7,-0.85 -1.15,0.2 -1.4,1.25 -0.35,1.1 0.6,1.8 m 7.4,6.55 0.35,0.05 h 0.1 l 0.2,0.05 0.2,0.1 0.15,0.05 0.1,0.1 0.1,0.1 0.1,0.05 0.1,0.1 0.05,0.05 0.1,0.1 0.05,0.05 0.05,0.1 0.05,0.05 0.05,0.1 0.05,0.1 0.05,0.05 v 0.1 l 0.05,0.05 v 0.1 l 0.05,0.05 v 0.1 0.05 l 0.05,0.1 v 0.1 0.05 0.1 0.05 0.1 0.05 0.1 0.05 0.1 0.05 0.1 0.1 0.05 0.1 0.05 0.1 0.05 0.1 0.05 0.1 0.1 0.05 0.1 0.05 0.1 0.05 l -0.05,0.1 v 0.05 0.1 0.1 0.05 0.1 0.05 0.1 0.05 0.1 0.05 0.1 0.1 0.05 0.1 0.05 0.1 0.05 0.1 0.05 0.1 0.05 0.1 0.1 0.05 0.1 0.05 0.1 0.05 0.1 0.05 0.1 0.1 0.05 0.1 0.05 0.1 0.05 0.1 0.05 0.1 0.1 0.05 0.1 l -0.05,0.05 v 0.1 0.05 0.1 0.05 0.1 0.1 0.05 0.1 0.05 0.1 0.05 0.1 0.05 0.1 0.05 0.1 0.1 0.05 0.1 0.05 0.1 0.05 0.1 0.05 0.1 l -0.05,0.1 v 0.05 0.1 0.05 0.1 0.05 0.1 0.05 0.1 0.1 0.05 0.1 l -0.05,0.05 v 0.1 0.05 0.1 0.05 0.1 0.05 0.1 0.1 L 47.6,33.1 v 0.1 0.05 0.1 0.05 l -0.05,0.1 v 0.05 0.1 0.1 L 47.5,33.8 v 0.1 0.05 0.1 0.05 0.1 0.05 l -0.05,0.1 v 0.1 0.05 0.1 0.05 0.1 0.05 0.1 0.05 l -0.05,0.1 v 0.1 l -0.05,0.05 v 0.1 0.05 l -0.05,0.1 v 0.05 0.1 l -0.05,0.05 v 0.1 0.05 0.1 0.1 l -0.05,0.05 v 0.1 0.05 0.1 0.05 0.1 l -0.05,0.05 v 0.1 0.1 0.05 0.1 0.05 0.1 l -0.05,0.05 v 0.1 0.05 0.1 0.1 0.05 0.1 0.05 0.1 0.05 0.1 0.05 0.1 0.1 l -0.05,0.05 v 0.1 0.05 0.1 0.05 0.1 0.05 0.1 0.05 0.1 0.1 L 47,39 v 0.1 0.05 0.1 0.05 0.1 0.05 0.1 0.1 0.05 l -0.05,0.1 v 0.05 0.1 0.05 0.1 0.05 0.1 0.1 0.05 0.1 0.05 0.1 0.05 l -0.05,0.1 v 0.05 0.1 0.05 0.1 0.1 0.05 0.1 l -0.05,0.05 v 0.1 0.05 0.1 0.05 0.1 0.1 0.05 0.1 0.05 0.1 l -0.05,0.05 v 0.1 0.05 0.1 0.1 0.05 0.1 0.05 0.1 0.05 0.1 0.05 l -0.05,0.1 v 0.1 0.05 0.1 0.05 0.1 0.05 0.1 0.05 0.1 0.05 0.1 l -0.05,0.1 v 0.05 0.1 0.05 0.1 0.05 0.1 0.05 0.1 l -0.05,0.1 v 0.05 0.1 0.05 0.1 L 46.6,45.2 v 0.1 0.05 0.1 0.1 0.05 0.1 0.05 0.1 l -0.05,0.05 v 0.1 0.05 0.1 0.1 0.05 0.1 0.05 0.1 0.05 l -0.05,0.1 v 0.05 0.1 0.05 0.1 l -0.05,0.1 v 0.05 0.1 0.05 0.1 l -0.05,0.05 v 0.1 0.05 0.1 l -0.05,0.1 v 0.05 0.1 L 46.3,48 v 0.1 l -0.05,0.05 v 0.1 L 46.2,48.3 v 0.1 l -0.05,0.1 -0.05,0.05 -0.05,0.1 -0.05,0.05 -0.15,0.05 -0.1,-0.05 -0.1,-0.1 -0.05,-0.05 -0.05,-0.1 v -0.1 L 45.5,48.3 v -0.1 l -0.05,-0.05 v -0.1 L 45.4,48 v -0.1 -0.05 l -0.05,-0.1 V 47.65 47.6 47.5 L 45.3,47.45 v -0.1 -0.05 -0.1 -0.05 l -0.05,-0.1 V 47 46.9 46.8 46.75 L 45.2,46.65 V 46.6 46.5 46.45 46.35 L 45.15,46.3 v -0.1 -0.1 -0.05 -0.1 -0.05 -0.1 -0.05 -0.1 L 45.1,45.6 V 45.5 45.4 45.35 45.25 45.2 45.1 45.05 44.95 44.9 L 45.05,44.8 V 44.7 44.65 44.55 44.5 44.4 44.35 44.25 44.2 L 45,44.1 v -0.05 -0.1 -0.1 -0.05 -0.1 -0.05 -0.1 -0.05 -0.1 -0.05 -0.1 l -0.05,-0.1 V 43.1 43 42.95 42.85 42.8 42.7 42.65 42.55 42.45 42.4 42.3 42.25 L 44.9,42.15 V 42.1 42 41.95 41.85 41.8 41.7 41.6 41.55 41.45 L 44.85,41.4 V 41.3 41.25 41.15 41.1 41 40.9 40.85 L 44.8,40.75 V 40.7 40.6 40.55 40.45 40.4 40.3 40.2 40.15 40.05 40 39.9 39.85 l -0.05,-0.1 V 39.7 39.6 39.5 39.45 39.35 39.3 39.2 39.15 39.05 L 44.7,39 v -0.1 -0.05 -0.1 -0.1 -0.05 -0.1 -0.05 -0.1 -0.05 -0.1 l -0.05,-0.05 v -0.1 -0.1 -0.05 -0.1 -0.05 -0.1 -0.05 -0.1 -0.05 -0.1 -0.1 -0.05 -0.1 L 44.6,37.05 v -0.1 -0.05 -0.1 -0.05 -0.1 -0.1 L 44.55,36.5 V 36.4 36.35 36.25 36.2 36.1 L 44.5,36.05 V 35.95 35.9 35.8 35.7 L 44.45,35.65 44.4,35.55 V 35.5 35.4 L 44.35,35.35 V 35.25 35.2 35.1 L 44.3,35 V 34.95 34.85 34.8 34.7 34.65 34.55 34.5 34.4 L 44.25,34.3 V 34.25 34.15 34.1 34 33.95 33.85 L 44.2,33.8 v -0.1 -0.05 -0.1 l -0.05,-0.1 V 33.4 33.3 33.25 33.15 L 44.1,33.1 V 33 32.95 32.85 32.75 32.7 32.6 32.55 32.45 L 44.05,32.4 V 32.3 32.2 L 44,32.25 v 0.1 0.05 0.1 0.05 0.1 0.05 0.1 0.05 0.1 0.1 0.05 0.1 l -0.05,0.05 v 0.1 0.05 0.1 0.05 0.1 0.1 0.05 0.1 0.05 0.1 L 43.9,34.1 v 0.1 0.05 l -0.05,0.1 v 0.1 0.05 0.1 0.05 0.1 0.05 0.1 0.05 0.1 0.1 0.05 0.1 0.05 0.1 0.05 0.1 0.05 0.1 0.05 0.1 0.1 l -0.05,0.05 v 0.1 0.05 0.1 0.05 0.1 l -0.05,0.05 v 0.1 0.1 0.05 0.1 0.05 0.1 0.05 0.1 0.05 0.1 l -0.05,0.1 -0.05,0.05 v 0.1 0.05 0.1 0.05 l -0.05,0.1 v 0.05 0.1 0.1 l -0.05,0.05 v 0.1 0.05 0.1 0.05 0.1 L 43.5,38.6 v 0.1 0.05 0.1 0.1 0.05 0.1 0.05 0.1 0.05 0.1 0.05 0.1 l -0.05,0.1 v 0.05 0.1 0.05 0.1 L 43.4,40 v 0.1 0.05 0.1 0.1 0.05 0.1 0.05 0.1 l -0.05,0.05 v 0.1 0.05 l -0.05,0.1 V 41 l -0.05,0.1 -0.05,0.1 v 0.05 l 0.05,0.1 v 0.05 l -0.05,0.1 -0.05,0.05 v 0.1 L 43.1,41.7 43,41.65 V 41.55 41.5 41.4 41.35 L 42.95,41.25 42.9,41.2 V 41.1 L 42.85,41 42.8,40.95 v -0.1 -0.05 l -0.05,-0.1 v -0.05 -0.1 -0.05 -0.1 -0.05 -0.1 -0.1 -0.05 L 42.7,40 v -0.05 -0.1 -0.05 -0.1 -0.05 l -0.05,-0.1 V 39.45 39.4 39.3 39.25 39.15 39.1 39 38.95 38.85 38.75 38.7 L 42.6,38.6 v -0.05 -0.1 -0.05 -0.1 -0.05 -0.1 L 42.55,38.1 V 38 37.9 37.85 L 42.5,37.75 V 37.7 37.6 37.55 l -0.05,-0.1 V 37.4 37.3 37.2 L 42.4,37.15 V 37.05 37 36.9 36.85 36.75 36.7 36.6 36.5 36.45 36.35 L 42.35,36.3 V 36.2 36.15 36.05 36 35.9 L 42.3,35.8 v -0.05 -0.1 -0.05 -0.1 -0.05 -0.1 -0.05 -0.1 -0.05 -0.1 -0.1 -0.05 -0.1 -0.05 -0.1 -0.05 -0.1 -0.05 -0.1 -0.1 -0.05 L 42.25,34.1 42.2,34.05 v -0.1 -0.05 -0.1 -0.05 -0.1 -0.1 -0.05 -0.1 -0.05 l -0.05,-0.1 v -0.05 -0.1 -0.05 -0.1 -0.1 -0.05 -0.1 -0.05 -0.1 -0.05 -0.1 -0.05 -0.1 L 42.1,32.2 V 32.1 32 31.95 31.85 31.8 31.7 31.65 31.55 L 42.05,31.5 V 31.4 31.3 31.25 31.15 31.1 31 30.95 30.85 30.8 30.7 L 42,30.6 V 30.55 30.45 30.4 30.3 30.25 30.15 30.1 30 29.95 29.85 29.75 29.7 29.6 29.55 29.45 29.4 29.3 29.25 29.15 29.05 29 28.9 28.85 28.75 28.7 28.6 28.55 28.45 28.35 28.3 28.2 28.15 28.05 28 27.9 27.85 27.75 27.65 27.6 l -0.05,-0.1 v -0.05 -0.1 -0.05 -0.1 -0.05 -0.1 L 42,27 V 26.9 L 41.95,26.8 V 26.75 26.65 26.6 26.5 26.45 26.35 26.3 26.2 26.1 26.05 25.95 25.9 L 42,25.8 v -0.05 -0.1 -0.05 l 0.05,-0.1 v -0.1 l 0.05,-0.05 0.05,-0.1 0.05,-0.05 0.1,-0.1 0.05,-0.05 0.1,-0.1 0.1,-0.05 0.2,-0.1 h 0.35 v -0.05 l 0.3,0.05 0.15,0.1 0.15,0.05 0.1,0.1 0.1,0.05 V 25 24.95 24.85 24.8 24.7 24.6 24.55 24.45 24.4 24.3 24.25 24.15 24.1 24 23.9 l 0.05,-0.05 V 23.75 23.7 L 44,23.6 v -0.05 l 0.05,-0.1 V 23.4 l 0.05,-0.1 0.05,-0.1 0.05,-0.05 0.05,-0.1 0.05,-0.05 0.05,-0.1 0.1,-0.05 0.1,-0.1 0.05,-0.05 0.1,-0.1 0.1,-0.05 0.15,-0.1 0.15,-0.1 0.15,-0.05 h 0.1 l 0.1,-0.05 h 0.1 0.3 V 22.2 m 9.05,-0.65 0.3,0.05 h 0.1 l 0.15,0.05 0.25,0.1 0.15,0.1 0.1,0.05 0.1,0.1 0.1,0.05 0.1,0.1 0.05,0.05 0.1,0.1 0.05,0.05 0.05,0.1 0.05,0.1 v 0.05 l 0.05,0.1 0.05,0.05 0.05,0.1 v 0.05 l 0.05,0.1 v 0.05 l 0.05,0.1 v 0.05 0.1 0.1 0.05 0.1 l 0.05,0.05 v 0.1 0.05 0.1 0.05 0.1 0.1 0.05 0.1 0.05 0.1 l -0.05,0.05 v 0.1 0.05 0.1 0.1 0.05 0.1 0.05 0.1 0.05 0.1 0.05 0.1 0.1 0.05 0.1 0.05 0.1 0.05 0.1 0.05 0.1 0.05 0.1 0.1 0.05 0.1 0.05 0.1 0.05 0.1 l -0.05,0.05 v 0.1 0.1 0.05 0.1 0.05 0.1 L 56.7,27.4 v 0.1 0.05 0.1 0.1 0.05 0.1 0.05 0.1 0.05 0.1 l -0.05,0.05 v 0.1 0.05 0.1 0.1 0.05 0.1 0.05 0.1 0.05 0.1 0.05 0.1 0.1 l -0.05,0.05 v 0.1 0.05 0.1 0.05 0.1 0.05 0.1 0.1 0.05 0.1 0.05 0.1 0.05 0.1 0.05 0.1 0.1 0.05 l -0.05,0.1 v 0.05 0.1 0.05 0.1 0.05 0.1 0.05 0.1 0.1 0.05 0.1 0.05 0.1 0.05 0.1 0.05 0.1 0.1 0.05 0.1 0.05 0.1 L 56.5,32.6 v 0.1 0.05 0.1 0.1 0.05 0.1 0.05 0.1 l -0.05,0.05 v 0.1 0.05 0.1 0.1 0.05 0.1 0.05 0.1 L 56.4,34 v 0.1 0.05 0.1 0.05 0.1 l -0.05,0.1 v 0.05 0.1 0.05 0.1 0.05 0.1 0.05 0.1 l -0.05,0.1 v 0.05 0.1 0.05 0.1 0.05 l -0.05,0.1 v 0.05 0.1 0.1 0.05 0.1 0.05 0.1 0.05 0.1 0.05 0.1 0.05 l -0.05,0.1 v 0.1 0.05 0.1 0.05 0.1 0.05 0.1 l -0.05,0.05 v 0.1 0.1 0.05 0.1 0.05 0.1 0.05 0.1 0.05 0.1 0.1 0.05 0.1 l -0.05,0.05 v 0.1 0.05 0.1 0.05 0.1 0.1 0.05 0.1 0.05 0.1 0.05 0.1 0.05 0.1 l -0.05,0.05 v 0.1 0.1 0.05 0.1 0.05 0.1 0.05 0.1 0.05 0.1 L 56,40.4 v 0.05 0.1 0.05 0.1 0.05 0.1 0.05 0.1 l -0.05,0.1 v 0.05 0.1 0.05 0.1 0.05 0.1 0.05 0.1 l -0.05,0.1 v 0.05 0.1 0.05 0.1 0.05 l -0.05,0.1 v 0.05 0.1 0.05 0.1 0.1 0.05 l -0.05,0.1 v 0.05 0.1 0.05 0.1 0.05 0.1 0.1 0.05 0.1 l -0.05,0.05 v 0.1 0.05 0.1 0.05 0.1 0.1 0.05 0.1 l -0.05,0.05 v 0.1 0.05 0.1 0.05 l -0.05,0.1 v 0.05 0.1 0.1 0.05 l -0.05,0.1 v 0.05 0.1 0.05 0.1 l -0.05,0.05 v 0.1 l -0.05,0.1 v 0.05 0.1 0.05 l -0.05,0.1 v 0.05 0.1 0.05 l -0.05,0.1 v 0.1 0.05 0.1 l -0.05,0.05 v 0.1 0.05 0.1 0.05 0.1 L 55.3,47 v 0.05 0.1 L 55.25,47.2 55.2,47.3 55.05,47.35 54.9,47.4 54.65,47.35 54.55,47.3 54.5,47.2 54.45,47.15 v -0.1 L 54.4,47 V 46.9 46.8 46.75 46.65 46.6 46.5 L 54.35,46.45 V 46.35 46.3 46.2 L 54.3,46.1 v -0.05 -0.1 L 54.25,45.9 V 45.8 45.75 45.65 45.6 L 54.2,45.5 V 45.4 45.35 45.25 45.2 L 54.15,45.1 V 45.05 44.95 44.9 44.8 L 54.1,44.7 v -0.05 l -0.05,-0.1 V 44.5 44.4 44.35 44.25 L 54,44.2 v -0.1 -0.05 -0.1 -0.1 -0.05 -0.1 -0.05 l -0.05,-0.1 V 43.5 43.4 43.35 43.25 43.15 43.1 43 42.95 42.85 42.8 L 53.9,42.7 v -0.05 -0.1 -0.1 -0.05 -0.1 L 53.85,42.25 V 42.15 42.1 42 41.95 41.85 L 53.8,41.8 V 41.7 41.6 41.55 41.45 41.4 41.3 41.25 41.15 41.1 L 53.75,41 v -0.1 -0.05 -0.1 -0.05 -0.1 -0.05 -0.1 L 53.7,40.4 V 40.3 40.2 40.15 40.05 40 39.9 39.85 39.75 39.7 39.6 L 53.65,39.5 V 39.45 39.35 39.3 39.2 39.15 39.05 39 38.9 38.85 38.75 38.65 38.6 38.5 38.45 38.35 L 53.6,38.3 v -0.1 -0.05 -0.1 -0.1 -0.05 -0.1 -0.05 -0.1 -0.05 -0.1 -0.05 -0.1 l -0.05,-0.1 V 37.2 37.1 37.05 36.95 36.9 36.8 36.75 36.65 L 53.5,36.55 V 36.5 36.4 36.35 36.25 36.2 36.1 36.05 35.95 35.9 35.8 35.7 35.65 l -0.05,-0.1 V 35.5 35.4 35.35 35.25 35.2 35.1 35 34.95 34.85 34.8 34.7 L 53.4,34.65 V 34.55 34.5 34.4 34.3 L 53.35,34.25 V 34.15 34.1 L 53.3,34 v -0.05 -0.1 -0.05 -0.1 -0.05 -0.1 -0.1 -0.05 L 53.25,33.3 V 33.25 33.15 33.1 33 32.95 32.85 32.75 32.7 32.6 L 53.2,32.55 V 32.45 32.4 32.3 32.25 32.15 32.05 32 31.9 31.85 31.75 31.7 31.6 31.55 31.45 31.35 31.3 31.2 31.15 31.05 31 30.9 L 53.15,30.85 V 30.75 30.7 30.6 30.5 30.45 30.35 30.3 30.2 30.15 30.05 30 29.9 29.85 l -0.05,0.1 v 0.1 0.05 0.1 0.05 0.1 0.05 0.1 0.05 0.1 0.1 l -0.05,0.05 v 0.1 0.05 0.1 0.05 0.1 0.05 0.1 0.1 0.05 0.1 0.05 L 53,31.75 v 0.05 0.1 0.05 0.1 0.05 0.1 0.1 l -0.05,0.05 v 0.1 0.05 0.1 0.05 0.1 L 52.9,32.8 v 0.1 0.1 0.05 0.1 0.05 0.1 0.05 0.1 0.05 0.1 0.1 0.05 0.1 0.05 0.1 l -0.05,0.05 v 0.1 0.05 0.1 0.1 0.05 0.1 0.05 0.1 0.05 0.1 0.05 0.1 0.05 0.1 0.1 0.05 0.1 0.05 0.1 0.05 0.1 l -0.05,0.05 v 0.1 0.1 0.05 0.1 0.05 0.1 0.05 0.1 0.05 l -0.05,0.1 v 0.1 0.05 0.1 0.05 0.1 0.05 0.1 l -0.05,0.05 v 0.1 0.1 0.05 0.1 0.05 l -0.05,0.1 v 0.05 0.1 0.05 0.1 0.05 0.1 l -0.05,0.1 v 0.05 0.1 0.05 l -0.05,0.1 v 0.05 0.1 0.05 0.1 0.1 0.05 0.1 0.05 0.1 0.05 0.1 0.05 l -0.05,0.1 v 0.1 0.05 0.1 0.05 0.1 0.05 0.1 0.05 0.1 0.05 l -0.05,0.1 v 0.1 0.05 0.1 0.05 0.1 0.05 0.1 0.05 0.1 l -0.05,0.1 v 0.05 0.1 0.05 0.1 l -0.05,0.05 v 0.1 0.05 0.1 l -0.05,0.1 V 41.9 42 l -0.05,0.05 v 0.1 L 52.2,42.2 v 0.1 0.05 0.1 l 0.05,0.1 v 0.05 0.1 0.05 0.1 0.05 L 52.2,43 52.15,43.05 52.05,43.15 51.9,43.2 51.7,43.15 51.6,43.05 51.5,43 51.45,42.9 V 42.85 42.75 42.7 L 51.4,42.6 v -0.05 -0.1 l -0.05,-0.1 V 42.3 L 51.3,42.2 v -0.05 l -0.05,-0.1 V 42 41.9 L 51.2,41.85 v -0.1 -0.1 -0.05 l -0.05,-0.1 v -0.05 -0.1 -0.05 -0.1 -0.05 l -0.05,-0.1 v -0.1 -0.05 -0.1 l -0.05,-0.05 v -0.1 -0.05 -0.1 -0.05 -0.1 -0.1 -0.05 -0.1 -0.05 -0.1 L 51,39.9 v -0.1 -0.05 -0.1 -0.05 -0.1 -0.1 -0.05 -0.1 -0.05 -0.1 -0.05 l -0.05,-0.1 V 38.9 38.8 38.7 38.65 38.55 38.5 38.4 38.35 38.25 L 50.9,38.2 V 38.1 38 37.95 37.85 37.8 37.7 l -0.05,-0.05 v -0.1 -0.05 -0.1 -0.05 -0.1 -0.1 L 50.8,37.1 V 37 36.95 36.85 36.8 36.7 36.65 36.55 l -0.05,-0.1 V 36.4 36.3 36.25 36.15 36.1 36 35.95 35.85 L 50.7,35.75 V 35.7 35.6 35.55 35.45 35.4 35.3 35.25 35.15 35.05 35 34.9 34.85 34.75 34.7 34.6 34.55 34.45 34.4 34.3 34.2 34.15 34.05 L 50.65,34 V 33.9 33.85 33.75 33.7 33.6 33.5 33.45 33.35 33.3 33.2 33.15 33.05 33 32.9 L 50.6,32.8 v -0.05 -0.1 -0.05 -0.1 -0.05 -0.1 L 50.55,32.3 v -0.1 -0.1 -0.05 -0.1 -0.05 -0.1 -0.05 l -0.05,-0.1 v -0.05 -0.1 -0.05 -0.1 -0.1 -0.05 -0.1 -0.05 -0.1 -0.05 -0.1 l -0.05,-0.05 v -0.1 -0.1 -0.05 -0.1 -0.05 -0.1 -0.05 -0.1 -0.05 -0.1 L 50.4,29.85 V 29.8 L 50.35,29.7 V 29.65 29.55 29.5 29.4 L 50.3,29.35 V 29.25 29.2 29.1 29 l -0.05,-0.05 v -0.1 -0.05 -0.1 -0.05 -0.1 L 50.2,28.5 V 28.4 28.3 28.25 28.15 28.1 28 L 50.15,27.95 V 27.85 27.8 27.7 27.6 27.55 27.45 27.4 27.3 27.25 27.15 27.1 27 26.9 26.85 26.75 26.7 26.6 26.55 26.45 26.4 26.3 26.25 26.15 26.05 26 25.9 25.85 25.75 25.7 l 0.05,-0.1 v -0.05 l 0.05,-0.1 v -0.1 l 0.05,-0.05 0.05,-0.1 v -0.05 l 0.1,-0.1 0.05,-0.05 0.05,-0.1 0.1,-0.05 0.05,-0.1 0.1,-0.1 0.1,-0.05 0.15,-0.1 0.15,-0.05 0.2,-0.05 0.1,-0.05 h 0.25 0.3 l 0.1,0.05 0.15,0.05 0.2,0.05 0.15,0.1 0.1,0.05 0.1,0.1 0.05,0.1 0.05,0.05 v -0.1 -0.1 -0.1 -0.05 -0.1 L 52.9,24.4 V 24.3 24.25 24.15 24.1 24 23.9 23.85 23.75 23.7 23.6 23.55 l 0.05,-0.1 V 23.4 23.3 23.2 23.15 L 53,23.05 V 23 22.9 l 0.05,-0.05 0.05,-0.1 V 22.7 l 0.05,-0.1 0.05,-0.05 0.05,-0.1 0.05,-0.1 0.1,-0.05 0.05,-0.1 0.05,-0.05 0.1,-0.1 0.1,-0.05 0.1,-0.1 0.1,-0.05 0.15,-0.1 0.2,-0.1 0.2,-0.05 h 0.1 0.35 V 21.55 M 36.2,14.9 q 0.4,0.1 0.6,-0.35 l -0.05,-0.7 -0.1,-0.1 0.1,-0.35 L 36.9,13.3 37,12.85 36.65,12.5 36.2,12.75 36,13.1 q -0.1,0 -0.15,0.1 l -0.7,-0.25 -0.1,0.05 q -0.4,0 -0.5,0.4 -0.1,0.4 0.25,0.6 l 0.3,0.15 0.7,0.55 0.4,0.2 m -3.1,-2.8 1.7,0.15 Q 35.65,11.95 36,11 36.35,9.8 35.45,9 34.6,8.15 33.45,8.6 32.3,9 32.15,10.25 32.05,11.4 33.1,12.1 M 8.95,8.6 9.15,8.65 9.35,8.7 9.5,8.75 9.65,8.85 9.75,8.9 9.85,9 9.9,9.05 l 0.05,0.1 0.1,0.1 0.05,0.05 v 0.1 l 0.05,0.05 0.05,0.1 0.05,0.05 0.05,0.1 v 0.05 l 0.05,0.1 0.05,0.1 V 10 l 0.05,0.1 v 0.05 l 0.05,0.1 v 0.05 l 0.05,0.1 v 0.05 0.1 0.05 0.1 0.1 0.05 0.1 0.05 0.1 0.05 0.1 0.05 0.1 0.1 l 0.05,0.05 v 0.1 0.05 l -0.05,0.1 v 0.05 0.1 0.05 0.1 0.1 0.05 0.1 0.05 0.1 0.05 0.1 0.05 0.1 0.1 l 0.05,-0.1 0.1,-0.1 0.1,-0.05 0.15,-0.05 0.05,-0.05 h 0.25 l 0.25,0.05 0.15,0.05 0.15,0.1 0.1,0.05 0.05,0.1 0.05,0.1 0.05,0.05 0.05,0.1 0.05,0.05 0.05,0.1 0.05,0.05 v 0.1 l 0.05,0.05 v 0.1 l 0.05,0.1 0.05,0.05 0.05,0.1 V 13.9 L 12.5,14 v 0.05 l 0.05,0.1 v 0.05 0.1 l 0.05,0.1 0.05,0.05 v 0.1 l 0.05,0.05 v 0.1 0.05 0.1 0.05 l 0.05,0.1 v 0.05 0.1 0.1 0.05 0.1 0.05 0.1 0.05 0.1 0.05 0.1 0.1 0.05 0.1 0.05 0.1 0.05 0.1 0.05 0.1 0.1 0.05 0.1 0.05 0.1 0.05 0.1 0.05 0.1 0.1 0.05 0.1 0.05 0.1 L 12.7,17.7 v 0.1 0.05 0.1 0.05 0.1 0.1 0.05 0.1 0.05 l -0.05,0.1 v 0.05 0.1 0.05 0.1 0.1 0.05 0.1 0.05 0.1 0.05 l -0.05,0.1 v 0.05 0.1 l -0.05,0.1 v 0.05 0.1 0.05 0.1 l -0.05,0.05 v 0.1 0.05 0.1 l -0.05,0.05 v 0.1 0.1 0.05 0.1 0.05 0.1 0.05 0.1 0.05 0.1 0.1 0.05 l -0.05,0.1 v 0.05 0.1 0.05 0.1 0.05 0.1 l -0.05,0.1 v 0.05 0.1 0.05 0.1 0.05 l -0.05,0.1 v 0.05 0.1 0.1 0.05 0.1 0.05 0.1 0.05 L 12.25,23 v 0.05 0.1 0.05 0.1 0.1 0.05 l -0.05,0.1 v 0.05 0.1 0.05 0.1 0.05 0.1 l -0.05,0.1 v 0.05 0.1 0.05 0.1 0.05 l -0.05,0.1 v 0.05 0.1 0.1 0.05 0.1 0.05 l -0.05,0.1 v 0.05 0.1 0.05 0.1 0.1 0.05 L 12,25.65 v 0.05 0.1 0.05 0.1 0.05 0.1 0.05 0.1 0.1 l -0.05,0.05 v 0.1 0.05 0.1 0.05 0.1 0.05 0.1 0.1 0.05 0.1 l -0.05,0.05 v 0.1 0.05 0.1 0.05 l -0.05,0.1 v 0.1 0.05 0.1 l -0.05,0.05 v 0.1 0.05 0.1 0.05 0.1 0.05 0.1 0.1 0.05 0.1 0.05 0.1 l -0.05,0.05 v 0.1 0.05 0.1 0.1 0.05 0.1 0.05 0.1 l -0.05,0.05 v 0.1 0.05 0.1 0.1 0.05 0.1 0.05 0.1 l -0.05,0.05 v 0.1 0.05 0.1 0.1 0.05 0.1 0.05 0.1 0.05 0.1 0.05 0.1 l -0.05,0.05 v 0.1 0.1 0.05 l -0.05,0.1 v 0.05 l -0.05,0.1 -0.1,0.05 h -0.05 l -0.1,0.05 -0.2,-0.05 -0.1,-0.1 -0.05,-0.05 -0.05,-0.1 V 31.6 31.5 31.45 l -0.05,-0.1 v -0.1 -0.05 -0.1 -0.05 -0.1 -0.05 -0.1 -0.05 -0.1 -0.1 -0.05 -0.1 l -0.05,-0.05 v -0.1 -0.05 -0.1 -0.05 -0.1 -0.1 -0.05 -0.1 L 10.7,29.65 V 29.55 29.5 29.4 29.35 29.25 29.2 29.1 29 L 10.65,28.95 V 28.85 28.8 28.7 28.65 28.55 28.5 28.4 28.3 28.25 28.15 28.1 28 L 10.6,27.95 v -0.1 -0.05 -0.1 -0.1 -0.05 -0.1 L 10.55,27.4 V 27.3 27.25 27.15 27.1 27 26.9 26.85 26.75 26.7 L 10.5,26.6 V 26.55 26.45 26.4 26.3 26.25 26.15 26.05 26 25.9 l -0.05,-0.05 v -0.1 -0.05 -0.1 -0.05 -0.1 -0.1 L 10.4,25.3 V 25.2 25.15 25.05 25 24.9 l -0.05,-0.05 v -0.1 -0.1 -0.05 L 10.3,24.5 v -0.05 -0.1 -0.05 -0.1 -0.05 l -0.05,-0.1 V 23.95 23.9 23.8 23.75 23.65 23.6 L 10.2,23.5 v -0.05 -0.1 -0.05 -0.1 -0.1 -0.05 l -0.05,-0.1 V 22.9 22.8 22.75 22.65 22.6 22.5 22.4 22.35 l -0.05,-0.1 v 0.1 0.05 0.1 0.1 0.05 0.1 0.05 0.1 0.05 l -0.05,0.1 v 0.05 0.1 0.1 0.05 0.1 0.05 L 10,23.6 v 0.05 0.1 0.05 0.1 0.05 0.1 0.1 0.05 0.1 0.05 0.1 0.05 0.1 l -0.05,0.05 v 0.1 0.1 0.05 0.1 0.05 0.1 0.05 0.1 0.05 l -0.05,0.1 v 0.1 0.05 0.1 0.05 0.1 0.05 0.1 l -0.05,0.05 v 0.1 0.1 0.05 0.1 L 9.8,26.45 v 0.1 0.05 0.1 l -0.05,0.05 v 0.1 0.05 0.1 0.1 0.05 l -0.05,0.1 v 0.05 0.1 0.05 0.1 L 9.65,27.6 v 0.1 0.1 0.05 0.1 V 28 L 9.6,28.1 v 0.05 l -0.05,0.1 v 0.05 0.1 0.1 0.05 0.1 0.05 0.1 0.05 0.1 V 29 L 9.5,29.1 v 0.1 0.05 0.1 0.05 0.1 0.05 0.1 0.05 0.1 0.05 l -0.05,0.1 v 0.1 0.05 0.1 0.05 0.1 0.05 0.1 0.05 0.1 0.1 0.05 0.1 0.05 0.1 0.05 0.1 L 9.4,31.25 v 0.1 0.1 0.05 0.1 0.05 0.1 0.05 0.1 0.05 0.1 0.05 0.1 0.1 l -0.05,0.05 v 0.1 0.05 0.1 0.05 0.1 0.05 0.1 0.1 0.05 0.1 0.05 0.1 0.05 0.1 L 9.3,33.5 v 0.1 0.1 0.05 0.1 0.05 0.1 0.05 0.1 0.05 0.1 0.1 0.05 0.1 0.05 0.1 0.05 0.1 0.05 0.1 0.05 0.1 0.1 0.05 0.1 0.05 0.1 0.05 0.1 0.05 0.1 0.1 0.05 0.1 0.05 0.1 L 9.25,36.3 v 0.1 L 9.2,36.45 v 0.1 0.1 0.05 0.1 l -0.05,0.05 v 0.1 L 9.05,37 8.95,37.05 8.75,37 8.7,36.95 v -0.1 L 8.65,36.8 v -0.1 -0.05 -0.1 L 8.6,36.45 V 36.4 36.3 L 8.55,36.25 V 36.15 36.1 36 35.95 35.85 35.75 35.7 35.6 35.55 35.45 35.4 35.3 35.25 35.15 35.05 35 34.9 34.85 34.75 34.7 34.6 34.55 34.45 34.4 34.3 34.2 34.15 34.05 34 33.9 33.85 33.75 33.7 33.6 L 8.5,33.5 V 33.45 33.35 33.3 33.2 33.15 33.05 33 32.9 32.8 32.75 32.65 32.6 32.5 32.45 32.35 L 8.45,32.3 v -0.1 -0.1 -0.05 -0.1 -0.05 -0.1 -0.05 -0.1 -0.05 -0.1 -0.05 -0.1 L 8.4,31.25 v -0.05 -0.1 -0.05 -0.1 -0.05 -0.1 -0.05 -0.1 -0.1 -0.05 -0.1 -0.05 -0.1 -0.05 -0.1 -0.05 -0.1 L 8.35,29.85 V 29.8 29.7 29.65 29.55 29.5 29.4 29.35 29.25 29.2 L 8.3,29.1 V 29 28.95 28.85 28.8 28.7 28.65 28.55 28.5 28.4 28.3 28.25 L 8.25,28.15 V 28.1 28 27.95 27.85 L 8.2,27.8 v -0.1 -0.1 -0.05 -0.1 L 8.15,27.4 V 27.3 L 8.1,27.25 V 27.15 27.1 27 26.9 26.85 L 8.05,26.75 V 26.7 26.6 26.55 L 8,26.45 V 26.4 26.3 26.25 26.15 L 7.95,26.05 V 26 25.9 25.85 25.75 25.7 25.6 25.55 25.45 L 7.9,25.35 V 25.3 25.2 25.15 25.05 25 24.9 24.85 24.75 l -0.05,-0.1 v -0.05 -0.1 -0.05 -0.1 -0.05 -0.1 -0.05 -0.1 -0.1 -0.05 -0.1 -0.05 -0.1 L 7.8,23.6 V 23.5 23.45 23.35 23.3 23.2 23.1 L 7.75,23.05 v -0.1 -0.05 -0.1 -0.05 -0.1 -0.05 -0.1 -0.1 -0.05 -0.1 -0.05 -0.1 -0.05 -0.1 -0.05 -0.1 -0.1 -0.05 -0.1 L 7.7,21.5 v -0.1 -0.05 -0.1 -0.05 -0.1 -0.05 -0.1 -0.1 -0.05 -0.1 -0.05 -0.1 -0.05 -0.1 -0.05 -0.1 -0.1 -0.05 L 7.65,20 V 19.95 19.85 19.8 19.7 19.65 L 7.6,19.55 v -0.1 -0.05 -0.1 -0.05 -0.1 L 7.55,19.1 V 19 18.95 18.85 18.75 18.7 18.6 18.55 l -0.05,0.1 v 0.05 0.1 0.1 0.05 0.1 0.05 l -0.05,0.1 v 0.05 0.1 0.05 0.1 0.1 L 7.4,19.65 v 0.1 0.05 0.1 l -0.05,0.05 v 0.1 0.05 0.1 0.05 0.1 0.1 0.05 0.1 0.05 0.1 0.05 0.1 L 7.3,20.95 v 0.1 0.1 0.05 0.1 0.05 0.1 0.05 0.1 0.05 0.1 0.1 0.05 0.1 0.05 0.1 L 7.25,22.2 v 0.1 0.05 0.1 0.1 0.05 0.1 0.05 0.1 0.05 0.1 L 7.2,23.05 v 0.1 0.05 0.1 0.1 0.05 0.1 0.05 0.1 0.05 0.1 0.05 0.1 0.1 l -0.05,0.05 v 0.1 0.05 0.1 0.05 0.1 0.05 0.1 0.1 0.05 0.1 0.05 0.1 0.05 0.1 L 7.1,25.3 v 0.1 0.1 0.05 0.1 0.05 0.1 0.05 0.1 0.05 0.1 0.05 0.1 0.1 0.05 0.1 l -0.05,0.05 v 0.1 0.05 0.1 0.05 0.1 0.1 0.05 0.1 0.05 0.1 L 7,27.4 v 0.1 0.05 0.1 0.1 0.05 l -0.05,0.1 v 0.05 0.1 0.05 0.1 L 6.9,28.25 v 0.1 0.05 0.1 0.1 0.05 l -0.05,0.1 v 0.05 0.1 0.05 l -0.05,0.1 v 0.05 0.1 l -0.05,0.1 v 0.05 0.1 0.05 L 6.7,29.6 v 0.05 0.1 0.05 l -0.05,0.1 v 0.1 0.05 0.1 L 6.6,30.2 v 0.1 0.05 0.1 0.05 0.1 0.1 0.05 l -0.05,0.1 V 30.9 L 6.5,31 v 0.05 0.1 0.05 l -0.05,0.1 v 0.05 0.1 l -0.1,0.1 H 6.25 L 6.2,31.45 6.15,31.35 V 31.3 31.2 L 6.2,31.15 V 31.05 31 30.9 30.85 l 0.05,-0.1 V 30.7 30.6 30.5 30.45 L 6.2,30.35 V 30.3 30.2 30.15 30.05 30 29.9 L 6.15,29.8 v -0.05 -0.1 L 6.1,29.6 v -0.1 -0.05 -0.1 L 6.05,29.3 V 29.2 29.1 L 6,29.05 V 28.95 28.9 28.8 28.75 L 5.95,28.65 V 28.6 28.5 28.4 28.35 L 5.9,28.25 V 28.2 28.1 L 5.85,28.05 v -0.1 -0.05 -0.1 -0.05 -0.1 L 5.8,27.55 V 27.5 27.4 27.35 27.25 27.2 27.1 27.05 L 5.75,26.95 V 26.85 26.8 26.7 26.65 26.55 26.5 26.4 26.35 26.25 26.15 26.1 26 25.95 L 5.7,25.85 V 25.8 25.7 25.65 25.55 25.5 25.4 25.3 25.25 25.15 25.1 25 L 5.65,24.95 V 24.85 24.8 24.7 24.6 24.55 24.45 24.4 24.3 24.25 24.15 24.1 24 23.9 23.85 23.75 23.7 23.6 L 5.6,23.55 V 23.45 23.4 23.3 23.2 23.15 23.05 23 22.9 22.85 22.75 22.7 L 5.55,22.6 v -0.05 -0.1 -0.1 -0.05 -0.1 -0.05 -0.1 -0.05 -0.1 -0.05 -0.1 -0.1 L 5.5,21.6 v -0.1 -0.05 -0.1 -0.05 -0.1 -0.05 -0.1 -0.1 -0.05 -0.1 -0.05 -0.1 -0.05 -0.1 L 5.45,20.45 v -0.1 -0.1 -0.05 -0.1 -0.05 -0.1 -0.05 -0.1 -0.05 -0.1 L 5.4,19.6 v -0.1 -0.1 -0.05 -0.1 L 5.35,19.2 V 19.1 19.05 18.95 18.9 18.8 18.7 18.65 L 5.3,18.55 V 18.5 18.4 18.35 18.25 18.2 18.1 18 17.95 17.85 17.8 L 5.25,17.7 V 17.65 17.55 17.5 17.4 17.35 17.25 17.15 17.1 17 16.95 16.85 L 5.2,16.8 v -0.1 -0.05 -0.1 -0.1 -0.05 -0.1 -0.05 L 5.15,16.15 V 16.1 16 15.95 15.85 L 5.1,15.75 V 15.7 15.6 15.55 15.45 15.4 15.3 15.25 15.15 15.05 15 14.9 14.85 14.75 14.7 14.6 14.55 14.45 14.4 L 5.05,14.3 V 14.2 14.15 14.05 14 13.9 13.85 13.75 13.7 13.6 13.5 13.45 13.35 L 5,13.3 V 13.2 13.15 13.05 13 12.9 L 4.95,12.8 V 12.75 12.65 12.6 12.5 12.45 12.35 12.3 12.2 12.1 12.05 L 4.9,11.95 v -0.05 -0.1 -0.05 -0.1 -0.05 -0.1 -0.05 -0.1 -0.1 L 4.95,11.2 V 11.1 L 5,11.05 v -0.1 L 5.05,10.9 5.1,10.8 5.15,10.75 5.2,10.65 5.25,10.55 5.35,10.5 5.4,10.4 5.5,10.35 5.6,10.25 5.75,10.2 5.95,10.1 6.15,10.05 H 6.4 6.7 l 0.2,0.05 0.15,0.1 0.15,0.05 0.1,0.1 0.05,0.05 v -0.1 -0.05 -0.1 L 7.4,10.1 7.45,10 V 9.95 L 7.5,9.85 V 9.75 L 7.55,9.7 7.6,9.6 V 9.55 L 7.65,9.45 7.7,9.4 7.75,9.3 7.8,9.25 7.85,9.15 7.95,9.05 8,9 8.1,8.9 8.2,8.85 8.35,8.75 8.5,8.7 8.7,8.65 H 8.95 V 8.6 m 6.65,1.95 h 0.25 l 0.1,0.05 0.15,0.05 0.2,0.1 0.15,0.05 0.1,0.1 0.1,0.05 0.05,0.1 0.1,0.05 0.05,0.1 0.05,0.05 0.05,0.1 v 0.1 l 0.05,0.05 0.05,0.1 0.05,0.05 v 0.1 l 0.05,0.05 v 0.1 0.05 0.1 l 0.05,0.05 v 0.1 0.1 0.05 0.1 0.05 0.1 0.05 0.1 l 0.05,0.05 v 0.1 0.1 0.05 0.1 0.05 0.1 0.05 0.1 0.05 0.1 0.1 0.05 0.1 0.05 0.1 0.05 0.1 0.05 0.1 0.1 0.05 0.1 0.05 0.1 0.05 0.1 0.05 0.1 l -0.05,0.05 v 0.1 0.1 0.05 0.1 0.05 0.1 0.05 0.1 0.05 0.1 0.1 0.05 0.1 0.05 0.1 0.05 0.1 0.05 l -0.05,0.1 v 0.1 0.05 0.1 0.05 0.1 0.05 l -0.05,0.1 v 0.05 0.1 l -0.05,0.1 V 17.4 L 17,17.5 v 0.05 0.1 0.05 0.1 0.05 0.1 0.05 0.1 0.1 l -0.05,0.05 v 0.1 0.05 0.1 0.05 0.1 0.05 0.1 l -0.05,0.1 v 0.05 0.1 0.05 0.1 0.05 0.1 l -0.05,0.05 v 0.1 0.1 0.05 0.1 0.05 0.1 l -0.05,0.05 v 0.1 0.05 0.1 0.05 0.1 0.1 l -0.05,0.05 v 0.1 0.05 0.1 0.05 0.1 0.05 0.1 0.1 L 16.7,21.2 v 0.1 0.05 0.1 0.05 0.1 0.05 0.1 0.1 l -0.05,0.05 v 0.1 0.05 0.1 0.05 0.1 0.05 0.1 0.1 0.05 l -0.05,0.1 v 0.05 0.1 0.05 0.1 0.05 0.1 0.05 0.1 0.1 0.05 0.1 l -0.05,0.05 v 0.1 0.05 0.1 0.05 0.1 0.1 l -0.05,0.05 v 0.1 0.05 0.1 0.05 0.1 0.05 l -0.05,0.1 v 0.1 0.05 0.1 0.05 0.1 0.05 0.1 L 16.4,25.3 v 0.1 0.1 0.05 0.1 0.05 0.1 l -0.05,0.05 v 0.1 0.05 0.1 0.05 0.1 l -0.05,0.1 v 0.05 0.1 l -0.05,0.05 v 0.1 0.05 0.1 l -0.05,0.05 v 0.1 0.1 l -0.05,0.05 v 0.1 0.05 0.1 L 16.1,27.4 v 0.1 0.05 l -0.05,0.1 v 0.1 L 16,27.8 v 0.1 0.05 l -0.05,0.1 v 0.05 l -0.05,0.1 v 0.05 l -0.1,0.1 -0.05,0.05 v 0.1 0.1 0.05 l -0.05,0.1 V 28.8 L 15.65,28.9 15.6,28.95 15.5,29 15.4,29.05 15.25,29 15.2,28.9 15.15,28.85 v -0.1 L 15.1,28.7 v -0.1 -0.05 -0.1 -0.1 -0.05 -0.1 l -0.05,-0.05 0.05,-0.1 V 28 27.9 27.85 27.75 27.65 L 15.05,27.6 V 27.5 27.45 L 15,27.35 V 27.3 27.2 27.15 l -0.05,-0.1 V 27 26.9 L 14.9,26.8 V 26.75 26.65 26.6 L 14.85,26.5 V 26.45 26.35 26.3 26.2 26.1 L 14.8,26.05 v -0.1 L 14.75,25.9 V 25.8 25.75 25.65 25.6 25.5 25.4 25.35 L 14.7,25.25 V 25.2 25.1 25.05 24.95 24.9 24.8 24.7 L 14.65,24.65 V 24.55 24.5 24.4 24.35 24.25 24.2 L 14.6,24.1 v -0.05 -0.1 -0.1 -0.05 -0.1 -0.05 l -0.05,-0.1 V 23.5 23.4 23.35 23.25 23.15 23.1 23 22.95 22.85 22.8 22.7 L 14.5,22.65 V 22.55 22.45 22.4 22.3 22.25 22.15 22.1 22 21.95 l -0.05,-0.1 V 21.8 21.7 21.6 21.55 21.45 21.4 21.3 21.25 L 14.4,21.15 V 21.1 21 20.9 20.85 20.75 20.7 20.6 20.55 l -0.05,-0.1 V 20.4 20.3 20.2 20.15 20.05 20 L 14.3,19.9 V 19.85 19.75 19.7 19.6 19.5 L 14.25,19.45 V 19.35 19.3 19.2 19.15 19.05 19 18.9 L 14.2,18.85 v -0.1 -0.1 -0.05 -0.1 -0.05 -0.1 -0.05 l -0.05,-0.1 v -0.05 -0.1 -0.1 -0.05 -0.1 -0.05 -0.1 -0.05 -0.1 L 14.1,17.45 v -0.1 -0.1 L 14.05,17.2 14,17.1 V 17.05 16.95 16.9 16.8 16.75 16.65 16.6 L 13.95,16.5 V 16.4 16.35 16.25 16.2 16.1 16.05 15.95 15.9 15.8 15.7 15.65 15.55 15.5 15.4 15.35 15.25 15.2 15.1 L 13.9,15 V 14.95 14.85 14.8 14.7 14.65 14.55 14.5 14.4 14.3 14.25 14.15 14.1 14 13.95 13.85 13.8 13.7 13.65 13.55 13.45 13.4 13.3 13.25 13.15 13.1 13 v -0.05 -0.1 -0.1 l 0.05,-0.05 v -0.1 -0.05 -0.1 -0.05 -0.1 -0.05 -0.1 -0.1 L 14,12 v -0.1 -0.05 -0.1 l 0.05,-0.05 0.05,-0.1 v -0.05 l 0.05,-0.1 0.05,-0.1 0.05,-0.05 0.05,-0.1 0.05,-0.05 0.05,-0.1 0.1,-0.05 0.05,-0.1 0.1,-0.05 0.15,-0.1 0.15,-0.05 0.15,-0.1 h 0.1 l 0.1,-0.05 h 0.3 m 4.9,25.9 h 0.3 l 0.1,0.05 0.15,0.05 0.2,0.1 0.1,0.05 0.1,0.1 0.15,0.05 0.05,0.1 0.1,0.05 0.05,0.1 0.05,0.05 0.05,0.1 v 0.1 l 0.05,0.05 0.05,0.1 v 0.05 l 0.05,0.1 v 0.05 l 0.05,0.1 v 0.05 0.1 0.05 0.1 0.1 0.05 0.1 0.05 0.1 0.05 0.1 0.05 0.1 0.1 0.05 l -0.05,0.1 v 0.05 0.1 0.05 0.1 0.05 0.1 L 22,39.6 v 0.05 0.1 0.05 0.1 0.05 0.1 0.05 l -0.05,0.1 v 0.05 0.1 0.1 0.05 0.1 0.05 l -0.05,0.1 v 0.05 0.1 0.05 0.1 l -0.05,0.1 v 0.05 0.1 0.05 0.1 L 21.8,41.5 v 0.1 0.05 0.1 0.1 0.05 0.1 0.05 0.1 0.05 0.1 l -0.05,0.05 v 0.1 0.1 0.05 0.1 0.05 0.1 0.05 0.1 0.05 l -0.05,0.1 v 0.05 0.1 0.1 0.05 l -0.05,0.1 v 0.05 0.1 0.05 l -0.05,0.1 v 0.05 0.1 0.1 0.05 0.1 0.05 l -0.05,0.1 v 0.05 0.1 0.05 0.1 l -0.05,0.1 v 0.05 0.1 L 21.45,45 v 0.1 0.05 0.1 0.05 0.1 0.05 0.1 0.1 0.05 0.1 0.05 0.1 L 21.4,46 v 0.1 0.05 0.1 0.1 0.05 0.1 0.05 0.1 0.05 0.1 0.05 0.1 0.1 0.05 0.1 l -0.05,0.05 v 0.1 0.05 0.1 0.05 0.1 0.1 0.05 0.1 0.05 0.1 L 21.3,48.1 v 0.1 0.05 0.1 0.05 0.1 0.1 0.05 0.1 0.05 l -0.05,0.1 v 0.05 0.1 0.05 0.1 0.1 0.05 0.1 0.05 0.1 0.05 l -0.05,0.1 v 0.05 0.1 0.1 0.05 0.1 0.05 0.1 0.05 0.1 0.05 0.1 0.1 0.05 0.1 0.05 0.1 0.05 l -0.05,0.1 v 0.05 0.1 0.05 0.1 0.1 0.05 0.1 0.05 0.1 0.05 0.1 0.05 0.1 0.1 0.05 l -0.05,0.1 v 0.05 0.1 l -0.05,0.05 v 0.1 L 21,52.75 v 0.1 0.1 L 20.95,53 v 0.1 l -0.05,0.05 v 0.1 0.05 l -0.05,0.1 v 0.05 l -0.05,0.1 -0.1,0.05 H 20.65 L 20.5,53.65 20.35,53.6 20.25,53.5 20.2,53.45 20.15,53.35 V 53.3 53.2 L 20.1,53.15 v -0.1 L 20.05,53 V 52.9 52.8 L 20,52.75 19.95,52.65 V 52.6 L 19.9,52.5 v -0.05 -0.1 -0.05 -0.1 -0.1 l -0.05,-0.05 v -0.1 -0.05 -0.1 -0.05 -0.1 -0.05 -0.1 -0.05 -0.1 -0.1 -0.05 -0.1 -0.05 -0.1 -0.05 -0.1 -0.05 -0.1 -0.1 -0.05 -0.1 L 19.8,50.35 v -0.1 -0.05 -0.1 -0.05 -0.1 -0.1 -0.05 -0.1 -0.05 -0.1 -0.05 -0.1 -0.05 -0.1 l -0.05,-0.1 V 49.1 49 48.95 48.85 48.8 48.7 48.65 48.55 L 19.7,48.5 V 48.4 48.3 48.25 48.15 48.1 48 47.95 47.85 47.8 47.7 L 19.65,47.6 V 47.55 47.45 47.4 47.3 47.25 47.15 47.1 47 46.9 46.85 46.75 46.7 L 19.6,46.6 V 46.55 46.45 46.4 46.3 46.25 46.15 46.05 46 45.9 45.85 45.75 45.7 45.6 45.55 l -0.05,-0.1 V 45.35 45.3 45.2 45.15 45.05 45 44.9 44.85 44.75 L 19.5,44.65 V 44.6 44.5 44.45 44.35 L 19.45,44.3 v -0.1 -0.05 -0.1 -0.1 -0.05 L 19.4,43.8 V 43.75 43.65 43.6 L 19.35,43.5 V 43.45 43.35 43.3 43.2 L 19.3,43.1 V 43.05 42.95 42.9 42.8 42.75 42.65 42.6 42.5 42.4 L 19.25,42.35 V 42.25 42.2 42.1 42.05 41.95 41.9 41.8 L 19.2,41.7 v -0.05 -0.1 -0.05 -0.1 -0.05 -0.1 L 19.15,41.2 V 41.1 41 L 19.1,40.95 V 40.85 40.8 40.7 40.65 40.55 40.5 L 19.05,40.4 V 40.35 40.25 40.15 40.1 40 39.95 L 19,39.85 V 39.8 39.7 39.65 39.55 39.45 39.4 L 18.95,39.3 V 39.25 39.15 39.1 39 38.95 38.85 38.75 38.7 38.6 38.55 38.45 38.4 38.3 38.25 38.15 L 18.9,38.1 18.95,38 V 37.9 37.85 37.75 37.7 L 19,37.6 v -0.05 l 0.05,-0.1 V 37.4 l 0.05,-0.1 0.05,-0.1 0.05,-0.05 0.05,-0.1 0.1,-0.05 0.05,-0.1 0.1,-0.05 0.1,-0.1 0.1,-0.05 0.15,-0.1 0.1,-0.05 0.1,-0.05 h 0.1 l 0.1,-0.05 h 0.25 m -4.9,0.7 0.2,0.05 0.15,0.05 0.15,0.1 0.15,0.05 0.1,0.1 0.05,0.05 0.1,0.1 0.05,0.05 0.05,0.1 0.05,0.05 v 0.1 l 0.05,0.05 0.05,0.1 0.05,0.1 0.05,0.05 0.05,0.1 v 0.05 l 0.05,0.1 v 0.05 0.1 L 17,38.7 v 0.1 0.1 0.05 l 0.05,0.1 v 0.05 0.1 0.05 0.1 0.05 L 17,39.5 v 0.1 0.05 0.1 0.05 l -0.05,0.1 v 0.05 0.1 0.05 0.1 l -0.05,0.05 v 0.1 0.1 0.05 0.1 0.05 0.1 l -0.05,0.05 v 0.1 0.05 0.1 l -0.05,0.1 v 0.05 0.1 0.05 0.1 0.05 0.1 0.05 0.1 l -0.05,0.1 v 0.05 0.1 0.05 0.1 0.05 0.1 0.05 0.1 l -0.05,0.1 v 0.05 0.1 0.05 0.1 l -0.05,0.05 v 0.1 0.05 0.1 0.05 l -0.05,0.1 v 0.1 0.05 0.1 0.05 0.1 l -0.05,0.05 v 0.1 0.05 0.1 l -0.05,0.1 v 0.05 0.1 0.05 0.1 0.05 l -0.05,0.1 v 0.05 0.1 0.1 0.05 0.1 0.05 0.1 0.05 0.1 0.05 l -0.05,0.1 v 0.05 0.1 0.1 0.05 0.1 0.05 0.1 0.05 l -0.05,0.1 v 0.05 0.1 0.1 0.05 0.1 0.05 l -0.05,0.1 v 0.05 l -0.05,0.1 v 0.05 0.1 0.1 0.05 l -0.05,0.1 v 0.05 0.1 0.05 l -0.05,0.1 v 0.05 0.1 0.1 0.05 l -0.05,0.1 v 0.05 0.1 0.05 l -0.05,0.1 v 0.05 0.1 0.05 0.1 0.1 L 16,48.65 v 0.1 0.05 0.1 0.05 0.1 0.05 0.1 l -0.05,0.1 v 0.05 0.1 0.05 0.1 0.05 0.1 L 16,49.8 16.05,49.9 V 50 50.05 L 16,50.15 v 0.05 0.1 0.05 l -0.05,0.1 -0.05,0.05 v 0.1 l -0.05,0.1 -0.1,0.05 L 15.6,50.8 15.4,50.75 15.3,50.7 15.25,50.6 V 50.5 L 15.2,50.45 V 50.35 50.3 50.2 50.15 50.05 50 49.9 49.8 49.75 49.65 49.6 49.5 49.45 49.35 L 15.15,49.3 v -0.1 -0.1 -0.05 -0.1 -0.05 -0.1 -0.05 -0.1 L 15.1,48.6 v -0.1 -0.1 -0.05 -0.1 L 15.05,48.2 V 48.1 48.05 47.95 47.9 L 15,47.8 v -0.05 -0.1 -0.1 -0.05 L 14.95,47.4 V 47.35 47.25 47.2 L 14.9,47.1 v -0.05 -0.1 -0.1 L 14.85,46.8 V 46.7 46.65 46.55 46.5 46.4 L 14.8,46.35 v -0.1 -0.1 -0.05 L 14.75,46 v -0.05 -0.1 -0.05 -0.1 -0.05 -0.1 -0.1 L 14.7,45.4 V 45.3 45.25 45.15 45.1 45 44.95 44.85 44.8 44.7 44.6 44.55 l -0.05,-0.1 V 44.4 44.3 44.25 44.15 44.1 L 14.6,44 v -0.1 -0.05 -0.1 L 14.55,43.7 V 43.6 43.55 43.45 43.4 43.3 L 14.5,43.2 V 43.15 43.05 43 L 14.45,42.9 V 42.85 42.75 42.7 42.6 42.55 L 14.4,42.45 V 42.35 42.3 42.2 42.15 42.05 42 41.9 41.85 l -0.05,-0.1 V 41.65 41.6 41.5 41.45 41.35 41.3 41.2 L 14.3,41.15 v -0.1 -0.1 -0.05 -0.1 l -0.05,-0.05 v -0.1 -0.05 -0.1 -0.05 -0.1 L 14.2,40.25 V 40.2 40.1 40.05 39.95 L 14.15,39.9 V 39.8 39.75 39.65 39.6 39.5 L 14.1,39.4 v -0.05 -0.1 -0.05 -0.1 -0.05 l 0.05,-0.1 V 38.9 38.8 38.7 38.65 l 0.05,-0.1 V 38.5 38.4 l 0.05,-0.05 0.05,-0.1 0.05,-0.05 v -0.1 l 0.05,-0.1 0.05,-0.05 0.05,-0.1 0.05,-0.05 0.05,-0.1 0.05,-0.05 0.05,-0.1 0.1,-0.05 0.1,-0.1 0.1,-0.05 0.15,-0.1 0.2,-0.05 H 15.6 V 37.15 M 29.95,34 l 0.3,0.05 h 0.15 l 0.15,0.05 0.2,0.1 0.15,0.05 0.1,0.1 0.15,0.1 0.1,0.05 0.05,0.1 0.1,0.05 0.1,0.1 0.05,0.05 0.05,0.1 0.05,0.05 0.05,0.1 0.05,0.1 0.05,0.05 0.05,0.1 0.05,0.05 v 0.1 l 0.05,0.05 0.05,0.1 v 0.05 l 0.05,0.1 v 0.05 0.1 0.1 l 0.05,0.05 v 0.1 0.05 0.1 0.05 l 0.05,0.1 v 0.05 0.1 0.1 0.05 0.1 0.05 0.1 0.05 0.1 0.05 0.1 0.1 0.05 0.1 0.05 0.1 0.05 0.1 0.05 0.1 0.1 0.05 0.1 0.05 0.1 0.05 0.1 0.05 0.1 0.05 0.1 0.1 0.05 0.1 0.05 0.1 0.05 0.1 0.05 0.1 0.1 0.05 0.1 0.05 0.1 0.05 0.1 0.05 0.1 0.1 0.05 0.1 0.05 0.1 0.05 0.1 0.05 l -0.05,0.1 v 0.05 0.1 0.1 0.05 0.1 0.05 0.1 0.05 0.1 0.05 0.1 0.1 0.05 0.1 0.05 0.1 0.05 0.1 0.05 0.1 0.1 0.05 0.1 l -0.05,0.05 v 0.1 0.05 0.1 0.05 0.1 0.1 0.05 0.1 0.05 0.1 L 32,43.65 v 0.1 0.05 0.1 0.05 0.1 0.1 l -0.05,0.05 v 0.1 0.05 0.1 L 31.9,44.5 v 0.1 0.05 0.1 l -0.05,0.1 V 44.9 45 l -0.05,0.05 v 0.1 0.05 0.1 0.05 l -0.05,0.1 v 0.1 0.05 0.1 0.05 0.1 L 31.7,45.9 v 0.1 0.05 0.1 0.1 0.05 0.1 0.05 0.1 l -0.05,0.05 v 0.1 0.05 0.1 0.05 0.1 0.1 0.05 0.1 0.05 0.1 0.05 0.1 0.05 l -0.05,0.1 v 0.1 0.05 0.1 0.05 0.1 0.05 0.1 0.05 0.1 l -0.05,0.1 v 0.05 0.1 0.05 0.1 l -0.05,0.05 v 0.1 0.05 0.1 l -0.05,0.05 v 0.1 0.1 L 31.4,49.4 v 0.1 0.05 0.1 0.05 0.1 0.05 l -0.05,0.1 v 0.1 0.05 0.1 0.05 0.1 L 31.3,50.4 v 0.1 0.05 0.1 0.1 0.05 0.1 l -0.05,0.05 v 0.1 0.05 0.1 0.05 0.1 0.1 0.05 l -0.05,0.1 v 0.05 0.1 0.05 0.1 0.05 0.1 l -0.05,0.05 v 0.1 0.1 0.05 0.1 0.05 l -0.05,0.1 v 0.05 l -0.05,0.1 V 52.8 52.9 53 L 31,53.05 v 0.1 0.05 0.1 0.05 l -0.05,0.1 v 0.05 0.1 0.1 0.05 l -0.05,0.1 v 0.05 0.1 0.05 0.1 0.05 l -0.05,0.1 v 0.1 0.05 0.1 L 30.8,54.6 v 0.1 0.05 0.1 l -0.05,0.05 v 0.1 0.05 l -0.05,0.1 v 0.1 0.05 0.1 l -0.05,0.05 v 0.1 0.05 0.1 l -0.05,0.05 v 0.1 0.1 0.05 l -0.05,0.1 v 0.05 0.1 L 30.5,56.3 v 0.1 0.05 0.1 0.1 l -0.05,0.05 v 0.1 0.05 H 29.4 v -0.05 -0.1 -0.05 -0.1 l -0.05,-0.1 V 56.4 56.3 L 29.3,56.25 V 56.15 56.1 56 l -0.05,-0.05 v -0.1 -0.1 -0.05 L 29.2,55.6 v -0.05 -0.1 -0.05 -0.1 l -0.05,-0.05 v -0.1 L 29.1,55.05 V 55 54.9 54.85 54.75 L 29.05,54.7 V 54.6 54.55 L 29,54.45 V 54.4 54.3 54.2 54.15 54.05 L 28.95,54 V 53.9 53.85 53.75 53.7 L 28.9,53.6 V 53.5 L 28.85,53.45 V 53.35 53.3 53.2 53.15 L 28.8,53.05 V 53 52.9 52.8 l -0.05,-0.05 v -0.1 -0.05 -0.1 -0.05 -0.1 L 28.7,52.3 v -0.1 -0.1 -0.05 -0.1 -0.05 l -0.05,-0.1 v -0.05 -0.1 -0.05 -0.1 -0.05 -0.1 -0.1 L 28.6,51.2 v -0.1 -0.05 -0.1 -0.05 -0.1 -0.05 -0.1 l -0.05,-0.1 V 50.5 50.4 50.35 50.25 L 28.5,50.2 v -0.1 -0.05 -0.1 -0.1 -0.05 -0.1 L 28.45,49.65 V 49.55 49.5 49.4 49.35 L 28.4,49.25 V 49.15 49.1 L 28.35,49 V 48.95 48.85 48.8 48.7 L 28.3,48.65 v -0.1 -0.05 -0.1 -0.1 -0.05 l -0.05,-0.1 V 48.1 48 47.95 47.85 47.8 47.7 47.6 47.55 47.45 47.4 47.3 47.25 L 28.2,47.15 V 47.1 47 46.9 46.85 46.75 46.7 46.6 46.55 46.45 46.4 46.3 46.25 46.15 l -0.05,-0.1 V 46 L 28.1,45.9 v -0.05 -0.1 -0.05 -0.1 -0.05 l -0.05,-0.1 V 45.35 45.3 45.2 45.15 L 28,45.05 V 45 44.9 44.85 44.75 l -0.05,-0.1 V 44.6 44.5 44.45 l -0.05,-0.1 v -0.05 -0.1 -0.05 -0.1 l -0.05,-0.1 V 43.9 43.8 43.75 43.65 43.6 43.5 43.45 L 27.8,43.35 V 43.3 43.2 43.1 43.05 42.95 42.9 42.8 42.75 42.65 42.6 42.5 42.4 42.35 42.25 L 27.75,42.2 V 42.1 42.05 41.95 41.9 41.8 41.7 41.65 41.55 41.5 41.4 41.35 41.25 41.2 41.1 41 40.95 40.85 40.8 40.7 40.65 40.55 40.5 40.4 40.35 40.25 40.15 40.1 40 39.95 39.85 39.8 39.7 39.65 L 27.7,39.55 V 39.45 39.4 39.3 39.25 39.15 39.1 39 38.95 38.85 38.75 38.7 38.6 38.55 38.45 38.4 38.3 38.25 38.15 38.1 38 37.9 37.85 37.75 37.7 37.6 37.55 37.45 37.4 37.3 37.2 37.15 37.05 37 36.9 36.85 l 0.05,-0.1 V 36.7 36.6 36.5 36.45 36.35 36.3 36.2 36.15 l 0.05,-0.1 V 36 35.9 35.8 l 0.05,-0.05 v -0.1 L 27.9,35.6 v -0.1 l 0.05,-0.05 v -0.1 L 28,35.3 28.05,35.2 28.1,35.15 v -0.1 l 0.1,-0.1 0.05,-0.05 0.05,-0.1 0.1,-0.05 0.05,-0.1 0.1,-0.05 0.1,-0.1 0.05,-0.05 0.1,-0.1 0.15,-0.1 0.15,-0.05 0.2,-0.1 0.2,-0.05 h 0.1 0.35 V 34 m -6.1,3.9 h 0.25 l 0.1,0.05 0.15,0.05 0.2,0.1 0.15,0.05 0.1,0.1 0.1,0.05 0.05,0.1 0.1,0.05 0.05,0.1 0.05,0.05 0.05,0.1 0.05,0.05 0.05,0.1 v 0.1 l 0.05,0.05 0.05,0.1 v 0.05 0.1 l 0.05,0.05 v 0.1 0.05 0.1 0.1 0.05 0.1 0.05 0.1 0.05 0.1 0.05 0.1 0.1 0.05 0.1 0.05 0.1 0.05 0.1 0.05 0.1 0.05 0.1 0.1 0.05 0.1 0.05 0.1 0.05 0.1 0.05 0.1 l -0.05,0.1 v 0.05 0.1 0.05 0.1 0.05 0.1 0.05 0.1 0.1 0.05 0.1 0.05 0.1 0.05 0.1 0.05 0.1 0.1 0.05 l -0.05,0.1 v 0.05 0.1 0.05 0.1 0.05 0.1 0.05 0.1 l -0.05,0.1 v 0.05 0.1 0.05 0.1 l -0.05,0.05 v 0.1 0.05 0.1 0.1 0.05 0.1 0.05 l -0.05,0.1 v 0.05 0.1 0.05 0.1 l -0.05,0.1 v 0.05 0.1 0.05 0.1 0.05 0.1 0.05 0.1 0.1 0.05 l -0.05,0.1 v 0.05 0.1 0.05 0.1 0.05 0.1 0.05 0.1 0.1 l -0.05,0.05 v 0.1 0.05 0.1 0.05 0.1 0.05 0.1 0.1 0.05 0.1 0.05 0.1 0.05 0.1 0.05 L 25,48.4 v 0.1 0.05 0.1 0.05 0.1 0.05 0.1 0.05 0.1 0.05 0.1 0.1 l -0.05,0.05 v 0.1 0.05 0.1 0.05 0.1 0.05 0.1 l -0.05,0.1 v 0.05 0.1 0.05 0.1 0.05 0.1 0.05 l -0.05,0.1 v 0.1 0.05 0.1 0.05 0.1 0.05 0.1 0.05 0.1 l -0.05,0.1 v 0.05 0.1 0.05 0.1 0.05 0.1 0.05 0.1 0.05 0.1 0.1 l -0.05,0.05 v 0.1 0.05 0.1 0.05 0.1 0.05 0.1 0.1 0.05 0.1 0.05 0.1 0.05 0.1 0.05 0.1 0.1 l -0.05,0.05 v 0.1 0.05 0.1 0.05 0.1 0.05 0.1 0.1 0.05 0.1 0.05 0.1 0.05 0.1 0.05 0.1 l -0.05,0.05 v 0.1 0.1 0.05 0.1 0.05 0.1 0.05 0.1 0.05 0.1 0.1 0.05 l -0.05,0.1 v 0.05 0.1 0.05 0.1 0.05 0.1 0.1 0.05 0.1 0.05 H 23.05 V 56.75 56.7 56.6 56.5 56.45 56.35 56.3 56.2 56.15 56.05 56 55.9 55.8 55.75 55.65 55.6 L 23,55.5 v -0.05 -0.1 -0.05 -0.1 -0.05 -0.1 -0.1 -0.05 -0.1 -0.05 -0.1 -0.05 l -0.05,-0.1 v -0.05 -0.1 -0.1 -0.05 -0.1 -0.05 -0.1 -0.05 -0.1 L 22.9,53.75 v -0.1 -0.1 -0.05 -0.1 -0.05 -0.1 -0.05 -0.1 -0.05 -0.1 -0.1 -0.05 -0.1 -0.05 -0.1 -0.05 -0.1 -0.05 l -0.05,-0.1 V 52.2 52.1 52 51.95 51.85 51.8 51.7 51.65 51.55 51.5 L 22.8,51.4 V 51.3 51.25 51.15 51.1 51 50.95 50.85 50.8 50.7 L 22.75,50.6 V 50.55 50.45 50.4 50.3 50.25 50.15 50.1 50 L 22.7,49.95 v -0.1 -0.1 -0.05 -0.1 -0.05 -0.1 L 22.65,49.4 V 49.3 49.25 49.15 49.05 49 48.9 48.85 48.75 48.7 48.6 48.55 48.45 L 22.6,48.35 V 48.3 48.2 48.15 48.05 48 47.9 47.85 47.75 47.65 47.6 47.5 47.45 47.35 47.3 47.2 L 22.55,47.15 V 47.05 47 46.9 46.8 46.75 46.65 46.6 46.5 46.45 L 22.5,46.35 V 46.3 46.2 46.1 46.05 45.95 45.9 45.8 45.75 45.65 45.6 L 22.45,45.5 V 45.4 45.35 45.25 45.2 45.1 45.05 44.95 44.9 44.8 L 22.4,44.7 v -0.05 -0.1 -0.05 -0.1 l -0.05,-0.05 v -0.1 -0.05 -0.1 -0.05 -0.1 -0.1 -0.05 L 22.3,43.7 V 43.65 43.55 43.5 43.4 43.35 43.25 43.15 43.1 43 42.95 42.85 L 22.25,42.8 V 42.7 42.65 42.55 42.45 42.4 42.3 42.25 42.15 42.1 42 41.95 41.85 41.8 41.7 41.6 41.55 41.45 41.4 41.3 41.25 41.15 41.1 41 40.9 40.85 L 22.2,40.75 V 40.7 40.6 40.55 40.45 40.4 40.3 40.2 40.15 40.05 40 39.9 39.85 39.75 39.7 39.6 39.5 l 0.05,-0.05 v -0.1 -0.05 -0.1 -0.05 l 0.05,-0.1 V 39 l 0.05,-0.1 0.05,-0.05 v -0.1 l 0.05,-0.1 0.05,-0.05 0.05,-0.1 0.1,-0.05 0.05,-0.1 0.1,-0.05 0.1,-0.1 0.1,-0.05 0.15,-0.1 0.15,-0.05 0.05,-0.05 h 0.1 l 0.1,-0.05 h 0.3"
         fill="#767676"
         fill-rule="evenodd"
         stroke="none"
         id="path4" />
      <path
         d="m 38.45,15.65 q -0.95,-0.7 -0.6,-1.8 0.25,-1.05 1.4,-1.25 1.2,-0.1 1.7,0.85 0.6,1.05 -0.15,1.9 Q 40.5,15.8 39.7,16 L 38.45,15.65 M 33.1,12.1 Q 32.05,11.4 32.15,10.25 32.3,9 33.45,8.6 q 1.15,-0.45 2,0.4 0.9,0.8 0.55,2 -0.35,0.95 -1.2,1.25 L 33.1,12.1 M 36.2,14.9 35.8,14.7 35.1,14.15 34.8,14 q -0.35,-0.2 -0.25,-0.6 0.1,-0.4 0.5,-0.4 l 0.1,-0.05 0.7,0.25 Q 35.9,13.1 36,13.1 l 0.2,-0.35 0.45,-0.25 0.35,0.35 -0.1,0.45 -0.15,0.1 -0.1,0.35 0.1,0.1 0.05,0.7 Q 36.6,15 36.2,14.9"
         fill="#ffffff"
         fill-rule="evenodd"
         stroke="none"
         id="path5" />
      <path
         d="m 59.55,13.9 q 1.75,0.8 3,2.75 1,1.6 1.05,2.95 l -0.2,2.35 -0.15,1 0.55,0.8 q 0.45,0.85 0.55,2.45 0,1.7 -0.55,2.7 L 63,29.95 q -0.8,0.8 -1.55,1.1 l -1.05,0.2 q -1.1,0 -2.2,-0.75 L 57.4,29.6 57.25,29 56.7,29.1 53.6,29 q -0.1,1.45 -0.7,2.7 -0.65,1.4 -1.9,2.3 -0.85,0.6 -1.7,0.85 H 49.25 L 49,35.3 q -0.05,0.4 0.2,0.65 l 0.8,0.9 q 0.85,1.15 0.15,2.55 -0.7,1.2 -2.15,1.45 l -0.25,0.1 -0.05,0.3 q 0.1,0.8 0.35,1.4 l 0.1,0.65 Q 48,43.6 47.55,43.5 L 47,43.2 46.55,42.35 q -0.25,-1 -0.15,-1.75 0.2,-1 0.95,-1.4 L 48.3,38.65 48.4,38.35 48.25,38.1 47.45,37.45 46.8,36.8 46.6,36.2 Q 46.4,35.3 46.55,34.65 45.3,34.2 44.1,33.1 42.85,31.95 42.35,30.5 41.9,29.35 42,27.25 l 0.15,-2.1 q 0.35,-2.55 2.1,-4.75 l 1.4,-1.4 q 0.75,-0.55 1.9,-0.95 l 1.4,-0.4 0.15,-0.3 q 0.8,-1.4 1.65,-2.15 1.15,-1 3.3,-1.65 l 0.65,-0.1 q -0.25,0.85 0.25,1.75 0.55,0.95 1.45,1.2 1.05,0.3 2.05,-0.35 0.95,-0.6 1.1,-1.75 V 13.9 M 54.8,25.6 q 1.35,1 2.9,0.35 1.4,-0.65 1.65,-2.25 0.1,-1 -0.35,-1.7 -0.7,-1.4 -2.45,-1.5 -1.25,0 -2.1,0.95 -0.85,0.85 -0.75,2.15 0.1,1.25 1.1,2 m -1.95,-8.2 0.05,0.65 v 0.45 l -0.35,0.75 q -0.15,0.5 0.25,0.8 0.4,0.25 0.8,0 l 0.25,-0.25 0.25,-0.75 h 0.55 l 0.55,-0.1 q 0.35,-0.25 0.25,-0.7 L 55.3,17.95 54.7,17.8 h -0.35 l -0.3,0.05 -0.1,-0.3 -0.35,-0.65 q -0.2,-0.3 -0.5,-0.25 -0.25,0.1 -0.25,0.35 v 0.4 M 15.2,3.15 l 0.65,1.2 q 0.3,0.85 0.4,2.7 v 0.1 l 1.3,2.15 0.85,2.75 q 0.45,1.85 0.25,3.25 -0.2,1.6 -1.55,3.85 L 16,20.7 14.05,21.85 q 0,0.45 0.35,1.15 l 0.35,1.3 q -0.05,0.75 -0.65,1.25 l -1.2,0.8 -0.35,0.3 -0.1,0.35 0.05,0.4 0.25,0.55 0.15,0.6 0.3,0.6 q 0.35,0.8 0.15,1.5 L 12.9,30.6 12.65,30.2 q -1.1,-1.75 -1.5,-2.95 l -0.15,-0.9 0.25,-0.9 0.55,-0.8 0.4,-0.3 0.25,-0.35 -0.1,-0.4 q -0.5,-0.85 -0.55,-1.85 -0.9,-0.3 -1.6,-1 Q 8.95,19.5 8.7,17.3 8.45,15.55 8.8,13.7 l -1,-0.35 Q 6.15,14.7 4.2,14.15 2.1,13.55 1.55,11.55 1.3,10.65 1.5,8.85 L 1.95,7.35 2.75,6.5 Q 3.55,5.8 4.35,5.6 H 4.4 Q 4.65,4.2 5.45,3 6.3,1.75 7.6,1.05 8.9,0.35 10.35,0.4 L 11.8,0.65 11.6,0.9 q -0.75,1.15 0.1,2.35 0.85,1.15 2.2,0.8 0.9,-0.2 1.3,-0.9 M 6.45,6.8 Q 5.95,7.3 5.85,8.05 5.75,8.8 6.1,9.45 l 1.1,0.9 1.4,0.1 L 9.75,9.65 10.2,8.3 Q 10.2,7.55 9.65,6.95 9.1,6.3 8.35,6.2 7.3,5.95 6.45,6.8 m 7,-0.1 Q 13.6,6.55 14.05,6.35 14.45,6.05 14.15,5.6 13.9,5.25 13.4,5.35 L 13,5.7 12.9,5.5 12.7,5.25 12.15,4.95 12.05,5 Q 11.8,5 11.7,5.15 11.55,5.3 11.55,5.55 l 0.05,0.25 0.15,0.2 0.4,0.35 0.2,0.1 -0.15,0.4 q -0.15,0.3 -0.05,0.65 0.1,0.4 0.45,0.45 l 0.55,-0.25 0.3,-1 m 1.75,35.9 q -1.5,-0.5 -2.5,-2.45 l -0.35,-0.9 V 37.9 q 0,-0.7 0.15,-1.3 0.3,-1.2 1.4,-1.95 0.9,-0.6 2.2,-0.75 l 0.3,-1.45 0.8,-1.75 q 0.9,-1.3 2.7,-2.25 1.5,-0.85 2.9,-0.9 l 1.45,0.25 q 2.15,-0.85 5.25,-0.45 l 2.05,0.45 q 0.9,0.4 1.6,0.9 l 2.25,2.25 q 1.7,2.35 1.95,5.1 0.25,2.4 -0.75,4.5 -0.9,1.8 -2.45,2.65 l -0.6,0.45 q 0.55,0.55 0.45,1.65 -0.1,1.55 -1.05,2.1 l -0.75,0.2 -0.8,0.2 0.1,1.3 0.15,0.5 q 0,0.4 -0.3,0.4 l -0.4,-0.15 -0.3,-0.4 -0.5,-0.5 Q 30,48.75 30,48.35 L 29.8,47.5 q -0.1,-0.6 0.15,-1.15 0.25,-0.55 0.8,-0.75 l 1.1,-0.3 -0.9,-0.85 -0.15,-0.6 -0.95,-0.25 -1,1.35 q -1.3,1.5 -2.95,1.55 -0.95,0 -2.2,-0.7 L 23,45.2 22.25,43.55 22.2,43.15 Q 20.85,42.75 19.7,42 L 18.25,42.75 17,42.85 15.2,42.6 m 11.4,-11.8 0.1,-0.05 v -0.5 L 26.15,30.1 q -0.25,0.1 -0.35,0.45 -0.3,0.6 -0.05,1.15 l -0.55,0.55 -0.15,0.2 q -0.2,0.3 -0.05,0.6 l 0.45,0.35 0.5,-0.3 0.55,-0.5 0.9,0.2 0.55,-0.1 0.3,-0.45 Q 28.35,31.9 28,31.7 L 27.45,31.35 26.85,31.1 26.7,31 26.6,30.9 v -0.1 m -0.15,8.8 q 0.75,0.75 1.85,0.75 1.45,0 2.2,-1.3 0.6,-0.95 0.25,-2.15 l -0.3,-0.65 -0.5,-0.5 q -0.55,-0.5 -1.35,-0.6 -0.8,-0.1 -1.45,0.25 -0.7,0.3 -1.1,0.95 -0.4,0.65 -0.35,1.4 0,1.1 0.75,1.85 M 17.1,31.1 q -0.15,0.45 -0.15,0.9 -0.1,1.3 0.9,2.1 0.95,0.8 2.25,0.55 1.25,-0.25 1.8,-1.35 l 0.3,-0.75 0.05,-0.4 -0.15,-0.85 -0.2,-0.5 q -0.35,-0.75 -1.3,-1.2 l -1.7,-0.1 q -1.3,0.3 -1.8,1.6"
         fill="#000000"
         fill-rule="evenodd"
         stroke="none"
         id="path6" />
      <path
         d="M 54.7,13.45 V 13.4 q 0.25,-0.95 1.1,-1.5 0.85,-0.5 1.8,-0.3 0.9,0.2 1.5,1 0.4,0.6 0.45,1.3 v 0.4 q -0.15,1.15 -1.1,1.75 -1,0.65 -2.05,0.35 -0.9,-0.25 -1.45,-1.2 -0.5,-0.9 -0.25,-1.75 M 52.85,17.4 V 17 q 0,-0.25 0.25,-0.35 0.3,-0.05 0.5,0.25 l 0.35,0.65 0.1,0.3 0.3,-0.05 h 0.35 l 0.6,0.15 0.15,0.3 q 0.1,0.45 -0.25,0.7 l -0.55,0.1 H 54.1 l -0.25,0.75 -0.25,0.25 q -0.4,0.25 -0.8,0 -0.4,-0.3 -0.25,-0.8 L 52.9,18.5 V 18.05 L 52.85,17.4 m 1.95,8.2 q -1,-0.75 -1.1,-2 -0.1,-1.3 0.75,-2.15 0.85,-0.95 2.1,-0.95 1.75,0.1 2.45,1.5 0.45,0.7 0.35,1.7 -0.25,1.6 -1.65,2.25 -1.55,0.65 -2.9,-0.35 M 11.8,0.65 q 0.7,-0.95 1.9,-0.75 1.4,0.15 1.75,1.55 0.25,0.8 -0.15,1.5 l -0.1,0.2 Q 14.8,3.85 13.9,4.05 12.55,4.4 11.7,3.25 10.85,2.05 11.6,0.9 l 0.2,-0.25 m 1.65,6.05 -0.3,1 -0.55,0.25 Q 12.25,7.9 12.15,7.5 12.05,7.15 12.2,6.85 L 12.35,6.45 12.15,6.35 11.75,6 11.6,5.8 11.55,5.55 Q 11.55,5.3 11.7,5.15 11.8,5 12.05,5 l 0.1,-0.05 0.55,0.3 0.2,0.25 0.1,0.2 0.4,-0.35 q 0.5,-0.1 0.75,0.25 0.3,0.45 -0.1,0.75 -0.45,0.2 -0.6,0.35 m -7,0.1 Q 7.3,5.95 8.35,6.2 9.1,6.3 9.65,6.95 10.2,7.55 10.2,8.3 L 9.75,9.65 8.6,10.45 7.2,10.35 6.1,9.45 Q 5.75,8.8 5.85,8.05 5.95,7.3 6.45,6.8 M 17.1,31.1 q 0.5,-1.3 1.8,-1.6 l 1.7,0.1 q 0.95,0.45 1.3,1.2 l 0.2,0.5 0.15,0.85 -0.05,0.4 -0.3,0.75 q -0.55,1.1 -1.8,1.35 -1.3,0.25 -2.25,-0.55 -1,-0.8 -0.9,-2.1 0,-0.45 0.15,-0.9 m 9.35,8.5 Q 25.7,38.85 25.7,37.75 25.65,37 26.05,36.35 q 0.4,-0.65 1.1,-0.95 0.65,-0.35 1.45,-0.25 0.8,0.1 1.35,0.6 l 0.5,0.5 0.3,0.65 q 0.35,1.2 -0.25,2.15 -0.75,1.3 -2.2,1.3 -1.1,0 -1.85,-0.75 m 0.15,-8.8 v 0.1 l 0.1,0.1 0.15,0.1 0.6,0.25 0.55,0.35 q 0.35,0.2 0.25,0.55 l -0.3,0.45 -0.55,0.1 -0.9,-0.2 -0.55,0.5 -0.5,0.3 L 25,33.05 q -0.15,-0.3 0.05,-0.6 l 0.15,-0.2 0.55,-0.55 Q 25.5,31.15 25.8,30.55 25.9,30.2 26.15,30.1 l 0.55,0.15 v 0.5 l -0.1,0.05"
         fill="#ffffff"
         fill-rule="evenodd"
         stroke="none"
         id="path7" />
    </g>
    <g
       id="shape2"
       transform="translate(1.5,1.5)">
      <path
         d="M 0,23.8 V 0 H 64.1 V 23.8 57.55 H 0 Z"
         fill="none"
         stroke="#000000"
         stroke-linecap="round"
         stroke-linejoin="round"
         stroke-width="3"
         id="path8" />
    </g>
  </defs>
</svg>
