<?xml version="1.0" encoding="UTF-8" standalone="no"?>
<svg
   ffdec:objectType="frame"
   height="60.549999"
   width="67.099998"
   version="1.1"
   id="svg8"
   sodipodi:docname="546.svg"
   xmlns:inkscape="http://www.inkscape.org/namespaces/inkscape"
   xmlns:sodipodi="http://sodipodi.sourceforge.net/DTD/sodipodi-0.dtd"
   xmlns:xlink="http://www.w3.org/1999/xlink"
   xmlns="http://www.w3.org/2000/svg"
   xmlns:svg="http://www.w3.org/2000/svg"
   xmlns:ffdec="https://www.free-decompiler.com/flash">
  <sodipodi:namedview
     id="namedview8"
     pagecolor="#ffffff"
     bordercolor="#000000"
     borderopacity="0.25"
     inkscape:showpageshadow="2"
     inkscape:pageopacity="0.0"
     inkscape:pagecheckerboard="0"
     inkscape:deskcolor="#d1d1d1"
     fit-margin-top="5"
     fit-margin-left="5"
     fit-margin-right="5"
     fit-margin-bottom="5" />
  <g
     transform="translate(1.5,1.5)"
     id="g3">
    <use
       ffdec:characterId="516"
       height="57.549999"
       width="64.099998"
       xlink:href="#shape0"
       id="use1" />
    <use
       ffdec:characterId="1042"
       height="56.25"
       transform="translate(-0.35,-0.15)"
       width="58.950001"
       xlink:href="#shape1"
       id="use2" />
    <use
       ffdec:characterId="518"
       height="60.549999"
       transform="translate(-1.5,-1.5)"
       width="67.099998"
       xlink:href="#shape2"
       id="use3" />
  </g>
  <defs
     id="defs8">
    <g
       id="shape0">
      <path
         d="M 53.6,0 H 64.1 V 57.55 H 53.6 28.25 0 V 0 H 28.25 53.6 V 57.55 0 M 28.25,0 V 57.55 0"
         fill="#ffffff"
         fill-rule="evenodd"
         stroke="none"
         id="path3" />
    </g>
    <g
       id="shape1"
       transform="translate(0.35,0.15)">
      <path
         d="M 41.1,10.45 41.35,10.1 41.6,9.25 42,8.4 l 0.05,-0.05 0.5,-0.8 0.55,-0.8 q 0.3,-0.4 0.85,-0.65 0.9,-0.45 1.55,-0.45 0.95,-0.1 1.55,0.45 0.9,0.65 0.8,1.7 -0.1,1.05 -0.95,1.6 l -0.75,0.3 -0.8,0.15 -0.65,0.1 Q 44.4,10 43.2,10.6 L 42.7,11 42.05,11.6 41.5,12 H 41.1 L 40.9,11.6 41,11.3 41.1,10.45 M 22.25,46.75 Q 24.3,45.7 28.55,45 l 5.85,-0.55 2.6,0.15 2.55,0.1 2.9,-0.1 h 2.85 q 2.55,0.15 4.5,1.2 l 2.05,1.4 q 1.55,1.25 1.9,2.4 0.55,1.95 -1.3,3.6 -1.15,1.05 -3.65,1.7 l -7.25,1.15 H 36.7 L 29.95,55.7 q -3.7,-0.4 -6.5,-1.45 -1.9,-0.75 -2.75,-1.6 -1.4,-1.3 -1.1,-2.9 0.25,-1.85 2.65,-3 m 5.6,-26.5 0.1,0.6 0.2,0.6 0.65,-0.6 0.95,-1.15 q 0.55,-0.65 1.35,-0.65 l 0.95,0.35 0.65,0.2 q 1.1,0.2 1.75,0.6 l 0.45,0.4 q 0.2,0.3 0.05,0.65 l -0.4,0.55 -0.05,0.05 -0.15,1.3 -0.95,1.25 -0.9,0.95 q -2.6,2.9 -4.3,3.8 l -1.35,0.45 q -1.3,0.1 -1.9,-1 l -1,0.2 q -0.85,0.1 -1.5,-0.55 L 21.9,27.4 21.2,26.85 20.55,26.6 Q 20.1,26.35 19.7,25.6 19.25,24.7 19.25,23.7 L 19.1,23.2 q -0.4,-1.4 -0.45,-2.15 0,-1.3 0.65,-2.1 l 0.5,-0.55 0.4,-0.65 1.9,-3.2 0.9,-0.85 q 0.55,-0.15 1.5,0.45 l 0.1,0.05 0.2,-0.15 Q 25.1,13.8 25.45,13.7 L 25.9,13.2 26.5,12.6 25.9,12.25 25.45,11.5 Q 25.4,11 25.6,10.6 L 26.15,10 q 1.5,-1.35 3.1,-1.75 l 3.55,0.1 0.75,0.4 0.7,0.85 0.8,1.45 0.25,0.7 q 0.55,1.9 -0.1,4.1 l -0.35,0.7 q -0.35,0.35 -0.8,0.2 l -0.3,-0.1 -0.8,0.25 -1.85,0.05 q -0.8,0.15 -2,1.65 l -1.4,1.25 0.15,0.4 M 11.75,2.05 10.8,1.8 9.4,1.1 8.9,0.45 q 0,-0.6 0.7,-0.6 l 1,0.25 2,0.45 1.1,0.2 q 3.65,0.9 8.7,3.65 l 1.45,0.95 q 0.7,0.6 0.7,1.45 0,0.7 -0.55,1.15 -0.5,0.5 -1.2,0.4 L 21.5,7.8 11.75,2.05 m -12,-1.2 Q 0,0.3 0.7,0.2 L 1.95,0.35 6.6,1.4 8.95,2.1 10.8,3 l 6.8,3.7 2.55,1.75 q 1.25,1.25 1.1,2.75 -0.1,1.05 -1.05,1.75 -0.9,0.7 -1.95,0.55 -1,-0.15 -2.2,-1.2 Q 8.4,6.55 4.55,4.45 L 1.4,3 0.1,2.25 Q -0.6,1.55 -0.25,0.85 M 7.3,10 5.2,8.05 3.75,6.4 3.65,6.05 H 4.1 l 2.6,1.2 0.95,0.4 1.15,0.65 1.4,0.85 q 3.9,2.6 5.35,3.75 l 1.35,1.35 q 0.55,1 0.25,1.85 L 16.2,17.05 14.85,16.95 13.75,15.9 12.4,14.55 10.2,12.5 7.3,10 m 13.4,24.25 0.25,-0.05 h 0.15 v 0.4 L 21,34.9 v 0.15 l -0.1,0.25 -0.3,-0.3 -0.2,-0.1 -0.15,-0.15 -0.1,-0.2 0.45,-0.25 0.1,-0.05"
         fill="#999999"
         fill-rule="evenodd"
         stroke="none"
         id="path4" />
      <path
         d="m 18.15,35.05 -0.4,-0.45 q -0.2,-0.25 -0.1,-0.6 l 0.1,-0.45 q 0.2,-0.35 0.7,-0.45 l 0.8,-0.2 0.85,-0.45 0.75,-0.25 1.35,-0.5 q 0.6,-0.15 0.9,0.5 l 0.1,0.05 0.05,0.5 v 0.3 l -0.25,1.2 -0.1,0.85 -0.4,1.35 -0.25,0.6 -0.15,0.45 q -0.3,0.4 -0.9,0.3 L 20.35,37.45 19.25,36.6 18.6,35.95 18.15,35.05 M 21.1,34.2 v -0.1 q -0.15,0 -0.4,0.15 l -0.1,0.05 -0.45,0.25 0.1,0.2 0.15,0.15 0.2,0.1 0.3,0.3 0.1,-0.25 V 34.9 l 0.1,-0.3 v -0.4"
         fill="#000000"
         fill-rule="evenodd"
         stroke="none"
         id="path5" />
      <path
         d="m 51.3,22.15 q 1.85,2 2.3,4.05 l 0.15,1.6 h 0.8 q 1.25,0.15 2.3,1.2 0.8,0.85 1.4,2.25 l 0.35,1.55 q 0,0.8 -0.5,1.8 l -0.6,1 q -1.45,1.95 -3.95,1.95 -1.5,0.05 -2.75,-0.6 -1.35,1.35 -3.4,2.35 -2.3,1.15 -4.75,1.45 -2.55,0.3 -4.7,-0.5 1.2,3 1.25,5.4 0.05,2.05 -0.7,3.85 -0.75,1.95 -2.25,3.1 -1.2,0.95 -3.05,1.45 l -5.55,0.45 q -2.9,-0.4 -5.1,-2 Q 21.1,51.4 20.5,50.15 20,49.1 20,47.4 l -0.75,-0.65 q -0.5,-0.4 -0.9,-0.4 -0.5,-0.05 -1.05,0.3 l -1.1,1.3 -1.1,1.3 Q 14,50.3 12.05,50.3 9.75,50.3 8.8,48.95 8.45,48.45 8.25,47.55 L 8.1,46.8 8.25,45.5 q 0,-0.25 0.15,-0.5 0.15,-0.15 0.4,-0.15 l 0.4,0.2 0.15,0.6 q 0.1,0.8 0.85,1.35 0.7,0.55 1.6,0.55 l 1,-0.25 0.65,-0.8 0.45,-1 0.85,-1.3 q 1.15,-1.25 2.3,-1.7 l 2.85,-0.2 0.9,0.45 q 0.8,-2.2 2.4,-4.35 2.6,-3.4 7.25,-6.2 l 1.7,-0.85 -0.05,-0.3 v -1.1 l -3.05,1.1 -7.65,-0.3 q -4.1,-1.35 -5.75,-4.85 -1,-1.95 -1.15,-4.85 -0.2,-2.15 0.25,-3.7 0.4,-1.5 1.75,-3.55 2.4,-3.7 5.55,-6.7 1.6,-1.6 3.05,-2.45 2.5,-1.4 5.5,-1.4 2,0.1 3.35,0.8 1.4,0.75 2.6,2.7 2.7,4.05 2.1,9.25 -0.1,1.7 -0.85,4.1 l 1.05,-0.6 -0.05,-0.35 0.05,-1.6 q 0.3,-2 2,-3.3 1.45,-1.25 3.6,-1.4 2.2,-0.15 3.55,1.05 l 0.9,1.05 q 1.8,2.75 1.25,5.4 l -0.15,0.5 1.3,1.3 m -14.85,10.35 0.7,0.5 0.75,0.25 0.65,0.55 0.05,0.1 q 0.65,0.45 1,1.25 l 0.3,1.4 h 0.05 l 0.35,-0.1 q 0.3,-0.2 0.2,-0.75 l -0.15,-0.85 0.1,-0.4 -0.2,-0.65 -0.1,-0.4 v -0.25 l 0.7,-0.6 0.3,-0.65 -0.2,-0.55 Q 40.75,31.1 40.4,31.05 L 39.8,31.2 39.45,31.65 38.55,30.9 38,30.6 37.45,30.45 q -0.75,-0.1 -1.2,0.5 -0.4,0.6 -0.05,1.3 l 0.25,0.25 m 9.9,5.35 1.2,-0.1 1.25,-0.65 q 0.9,-0.75 1.3,-1.9 0.35,-1.15 0.05,-2.3 l -0.3,-0.7 -0.7,-0.9 q -1,-0.9 -1.7,-1.05 L 46.4,30.2 h -1.15 q -1.3,0.25 -2.15,1.25 -0.55,0.8 -0.8,1.75 1.45,1.9 1.9,4.15 l 0.05,0.1 0.45,0.2 1.65,0.2 m -5.45,-14.2 -0.25,0.8 q -0.15,0.3 -0.15,0.9 v 0.7 l -0.1,-0.1 -0.3,-0.5 -0.35,-0.35 -0.3,-0.5 -0.4,-0.4 -0.2,-0.25 -0.25,-0.15 -0.45,-0.3 -0.3,0.2 q -0.1,0.15 0.1,0.5 l -0.05,0.3 0.7,3 0.15,0.35 0.45,0.95 q 0.35,0.5 0.75,0.7 l 1,0.05 0.4,-0.25 0.3,-0.3 0.25,-0.9 0.05,-0.6 -0.05,-1.9 -0.15,-1.2 -0.25,-0.8 -0.6,0.05 m -22.15,-5.6 q -0.35,1.15 -0.05,3.1 0.25,2.6 0.9,3.6 0.65,1 2.35,2.2 1.2,0.75 1.8,0.9 l 3.9,-0.2 q 2.2,-0.5 3.05,-1.1 1,-0.65 1.75,-2.05 l 1.05,-2.6 0.95,-3.1 -0.1,-0.05 -1.5,-0.55 -2.8,-0.35 -0.9,1.7 -0.5,0.7 q -0.5,0.6 -0.8,0.7 -0.65,0.35 -1,-0.2 l -0.15,-0.4 -0.6,-0.75 -0.5,-1 -0.2,-0.55 q 0.05,-0.3 0.35,-0.25 l 0.4,0.2 1.1,1.35 0.3,0.1 1.55,-2.4 0.2,-0.35 1.05,-0.15 3,-0.15 1.6,-0.1 V 15.95 Q 35.35,12.6 34,10.1 L 32.9,8.3 32.2,7.55 Q 31.75,7.15 30.85,7.15 29,7 27.1,8.15 25.75,8.9 24.15,10.7 l -0.3,0.3 1.5,0.4 0.8,0.35 q 0.35,0.4 0.2,0.95 L 26.2,13 q -0.35,0.5 -0.45,1.35 l -0.1,0.8 -0.15,0.4 -0.3,0.35 -0.45,-0.1 -0.1,-0.45 0.25,-0.55 -0.15,-0.3 V 14 l 0.1,-0.55 -0.1,-0.2 -0.15,-0.1 -1.9,-0.4 h -0.35 l -0.1,0.05 q -1.35,1.65 -2.55,3.5 -0.75,1.15 -0.95,1.75"
         fill="#000000"
         fill-rule="evenodd"
         stroke="none"
         id="path6" />
      <path
         d="m 40.9,23.65 0.6,-0.05 0.25,0.8 0.15,1.2 0.05,1.9 -0.05,0.6 -0.25,0.9 -0.3,0.3 -0.4,0.25 -1,-0.05 q -0.4,-0.2 -0.75,-0.7 l -0.45,-0.95 -0.15,-0.35 -0.7,-3 0.05,-0.3 q -0.2,-0.35 -0.1,-0.5 l 0.3,-0.2 0.45,0.3 0.25,0.15 0.2,0.25 0.4,0.4 0.3,0.5 0.35,0.35 0.3,0.5 0.1,0.1 v -0.7 q 0,-0.6 0.15,-0.9 l 0.25,-0.8 m 5.45,14.2 -1.65,-0.2 -0.45,-0.2 -0.05,-0.1 q -0.45,-2.25 -1.9,-4.15 0.25,-0.95 0.8,-1.75 0.85,-1 2.15,-1.25 h 1.15 l 1.05,0.05 q 0.7,0.15 1.7,1.05 l 0.7,0.9 0.3,0.7 q 0.3,1.15 -0.05,2.3 -0.4,1.15 -1.3,1.9 l -1.25,0.65 -1.2,0.1 M 36.45,32.5 36.2,32.25 q -0.35,-0.7 0.05,-1.3 0.45,-0.6 1.2,-0.5 l 0.55,0.15 0.55,0.3 0.9,0.75 0.35,-0.45 0.6,-0.15 q 0.35,0.05 0.55,0.3 l 0.2,0.55 -0.3,0.65 -0.7,0.6 v 0.25 l 0.1,0.4 0.2,0.65 -0.1,0.4 0.15,0.85 q 0.1,0.55 -0.2,0.75 l -0.35,0.1 H 39.9 l -0.3,-1.4 q -0.35,-0.8 -1,-1.25 L 38.55,33.8 37.9,33.25 37.15,33 36.45,32.5"
         fill="#ffffff"
         fill-rule="evenodd"
         stroke="none"
         id="path7" />
    </g>
    <g
       id="shape2"
       transform="translate(1.5,1.5)">
      <path
         d="M 0,23.8 V 0 H 64.1 V 23.8 57.55 H 0 Z"
         fill="none"
         stroke="#000000"
         stroke-linecap="round"
         stroke-linejoin="round"
         stroke-width="3"
         id="path8" />
    </g>
  </defs>
</svg>
