<?xml version="1.0" encoding="UTF-8" standalone="no"?>
<svg
   ffdec:objectType="frame"
   height="60.75"
   width="67.099998"
   version="1.1"
   id="svg10"
   sodipodi:docname="225.svg"
   xmlns:inkscape="http://www.inkscape.org/namespaces/inkscape"
   xmlns:sodipodi="http://sodipodi.sourceforge.net/DTD/sodipodi-0.dtd"
   xmlns:xlink="http://www.w3.org/1999/xlink"
   xmlns="http://www.w3.org/2000/svg"
   xmlns:svg="http://www.w3.org/2000/svg"
   xmlns:ffdec="https://www.free-decompiler.com/flash">
  <sodipodi:namedview
     id="namedview10"
     pagecolor="#ffffff"
     bordercolor="#000000"
     borderopacity="0.25"
     inkscape:showpageshadow="2"
     inkscape:pageopacity="0.0"
     inkscape:pagecheckerboard="0"
     inkscape:deskcolor="#d1d1d1"
     fit-margin-top="5"
     fit-margin-left="5"
     fit-margin-right="5"
     fit-margin-bottom="5" />
  <g
     transform="translate(1.5,1.7)"
     id="g3">
    <use
       ffdec:characterId="516"
       height="57.549999"
       width="64.099998"
       xlink:href="#shape0"
       id="use1" />
    <use
       ffdec:characterId="730"
       height="59.450001"
       transform="translate(-0.05,-1.85)"
       width="64.199997"
       xlink:href="#shape1"
       id="use2" />
    <use
       ffdec:characterId="518"
       height="60.549999"
       transform="translate(-1.5,-1.5)"
       width="67.099998"
       xlink:href="#shape2"
       id="use3" />
  </g>
  <defs
     id="defs10">
    <g
       id="shape0">
      <path
         d="M 53.6,0 H 64.1 V 57.55 H 53.6 28.25 0 V 0 H 28.25 53.6 V 57.55 0 M 28.25,0 V 57.55 0"
         fill="#ffffff"
         fill-rule="evenodd"
         stroke="none"
         id="path3" />
    </g>
    <g
       id="shape1"
       transform="translate(0.05,1.85)">
      <path
         d="M 26.55,0 H 27.3 L 27.25,0.1 Q 26.9,0.25 26.6,0.75 L 26.55,0 m 22.2,25.35 0.8,6.5 0.1,2.45 -0.3,1.1 Q 49,35.9 48.4,35.9 47.7,35.8 47.5,35.3 L 47.3,34.35 47.1,27.8 46.3,17.95 q -0.15,-0.8 0.4,-0.8 0.75,0.95 0.95,2.15 l 0.25,1.8 0.2,1 0.65,3.25 m 2.75,15.2 -0.8,1.95 -0.5,1.8 0.5,-0.35 3.8,-2.25 1.15,-0.6 1.5,-0.55 0.5,-0.1 0.45,0.25 -0.15,0.6 -0.5,0.35 q -0.8,0.35 -2.1,1.45 l -5.1,4.1 -1,0.6 q -0.8,0.25 -1.3,-0.35 L 47.4,47.1 47.3,46.95 47.2,46.9 q -0.55,-0.3 -0.45,-1.05 0.05,-0.5 0.4,-1.1 l 1.2,-2.45 4.25,-6.6 0.35,-0.3 0.45,0.1 -0.05,0.45 -1.1,2.6 -0.05,0.35 -0.4,1.15 -0.3,0.5 M 40.75,33.3 40.7,33.25 v -0.1 l 0.05,0.15 m 17.55,15.2 -0.15,0.5 -0.45,0.3 -0.8,0.3 -2.65,0.85 -6.05,2 q -1.15,0.15 -1.75,-0.75 -0.25,-0.45 -0.2,-1 0.1,-0.5 0.45,-0.85 0.4,-0.35 1.55,-0.45 l 2.9,-0.35 0.85,-0.2 h 1.2 l 1.65,-0.2 0.95,-0.15 0.65,-0.2 1.15,-0.15 q 0.65,0 0.7,0.35 M 12.85,30.35 13.7,26.2 15.25,20.8 15.9,18.85 q 0.1,-0.45 0.4,-0.4 0.25,0.1 0.15,0.5 -0.2,2.55 -1.3,7.55 l -0.95,9.1 q -0.3,3.3 -0.25,5.05 l -0.15,1.7 -0.15,0.3 0.05,0.35 -0.05,0.75 q -0.25,0.85 -1.15,1.2 -0.95,0.25 -1.65,-0.4 L 9.35,42.45 7.85,40.3 7.4,39.3 7.2,39 6.75,37.6 Q 6.65,36.9 6.8,36.7 7,36.45 7.5,36.55 l 0.65,0.45 0.7,0.6 0.9,0.95 1.1,1.35 0.6,0.5 q 0.2,-3.85 1.4,-10.05 M 3.1,54.45 q -0.4,0 -0.4,-0.3 -0.05,-0.3 0.35,-0.5 l 1.55,-0.8 3,-1.25 q 1.25,-0.5 3.75,-1.3 H 11.4 L 8.9,49.35 5.55,47.45 Q 5.2,47.25 5.25,47 4.95,47.1 4.75,46.8 4.55,46.4 4.9,46.25 l 0.3,-0.1 0.65,-0.1 4.3,1 1.85,0.25 1.05,0.3 0.85,0.7 q 0.5,0.85 -0.2,1.65 l -0.25,0.25 0.1,0.05 0.65,0.45 0.25,0.8 q 0,0.65 -0.5,1.05 L 12.9,53 7.2,54.3 4.25,54.5 3.1,54.45 M 24.55,50 26.3,48.85 26.8,48.4 27.2,47.9 q 0.15,-0.15 0.65,-0.4 l 0.9,1.5 Q 26.6,49.1 25.8,49.75 L 25.1,50.15 24.55,50 m -8.6,3.8 q 0.7,0.55 0.45,1.35 -0.3,0.7 -1.55,1.1 L 12.5,57.05 11.65,57 q -0.4,-0.35 0,-0.85 l 1.2,-1.3 0.9,-0.65 q 0.7,-0.4 1.05,-0.5 l 1.15,0.1 M 48,56.65 46.55,56.55 45.1,56.4 43.75,56.35 q -0.9,-0.35 -0.9,-1.3 0,-0.4 0.3,-0.75 0.25,-0.4 0.65,-0.5 l 1.25,0.1 q 1.45,0.35 2.2,1.05 l 0.9,0.7 q 0.45,0.2 0.5,0.35 L 48.5,56.5 48,56.65"
         fill="#999999"
         fill-rule="evenodd"
         stroke="none"
         id="path4" />
      <path
         d="m 27.3,0 q 0.4,-1.2 1.15,-1.65 L 30,-1.7 q 0.85,0.3 1.1,1.05 l 3.05,0.35 0.1,-0.3 q 0.3,-0.55 0.95,-0.8 l 1.2,0.1 1.15,1.3 0.15,0.3 q 1.1,2.4 1.85,5.7 l 1.15,5.95 2.35,14.2 q -0.4,-8.35 -1.4,-16.8 -0.2,-1.45 0.4,-1.95 4.55,16.25 4.4,32.95 l -0.3,4.6 -0.75,2.9 q -0.4,2.35 -1.5,3.65 -1.4,1.8 -4.15,2.4 l -0.85,0.2 -2.15,0.6 Q 28.1,56.6 21.45,54.1 L 20.8,53.9 Q 19,53.4 17.6,52.25 16.4,51.3 15.75,50.1 q -0.7,-1.05 -1.05,-2.25 -0.35,-1.2 -0.25,-3.1 l 0.05,-0.4 V 43.3 l 0.1,-1.55 V 41.6 l 0.1,-1.2 Q 16.15,21.75 22.4,4.25 l 0.25,-0.3 q 0.2,-0.05 0.3,0.2 v 0.5 q -2,8.7 -3.35,17.45 l 0.65,-2.2 q 1.3,-4.15 3.4,-12.65 l 1.5,-6.1 0.1,-0.5 L 25.75,0 26.4,-0.1 26.55,0 26.6,0.75 Q 26.9,0.25 27.25,0.1 L 27.3,0 M 40.75,33.3 40.7,33.15 v 0.1 l 0.05,0.05 m -16.2,16.7 0.55,0.15 0.7,-0.4 Q 26.6,49.1 28.75,49 l -0.9,-1.5 q -0.5,0.25 -0.65,0.4 l -0.4,0.5 -0.5,0.45 -1.75,1.15"
         fill="#ffffff"
         fill-rule="evenodd"
         stroke="none"
         id="path5" />
      <path
         d="M 37.55,0 H 64.1 V 57.55 H 0 V 0 h 22.3 l 0.5,-0.95 q 0.35,-0.45 0.9,-0.6 l 1,0.15 q 0.6,0.35 0.6,1.4 h 0.45 l -0.5,0.65 -0.1,0.5 -1.5,6.1 q -2.1,8.5 -3.4,12.65 l -0.65,2.2 q 1.35,-8.75 3.35,-17.45 v -0.5 q -0.1,-0.25 -0.3,-0.2 l -0.25,0.3 q -6.25,17.5 -7.7,36.15 l -0.1,1.2 v 0.15 l -0.1,1.55 v 1.05 l -0.05,0.4 q -0.1,1.9 0.25,3.1 0.35,1.2 1.05,2.25 0.65,1.2 1.85,2.15 1.4,1.15 3.2,1.65 l 0.65,0.2 q 6.65,2.5 15.3,0.6 l 2.15,-0.6 0.85,-0.2 q 2.75,-0.6 4.15,-2.4 1.1,-1.3 1.5,-3.65 l 0.75,-2.9 0.3,-4.6 q 0.15,-16.7 -4.4,-32.95 -0.6,0.5 -0.4,1.95 1,8.45 1.4,16.8 L 40.7,11.95 39.55,6 Q 38.8,2.7 37.7,0.3 L 37.55,0 m 11.2,25.35 -0.65,-3.25 -0.2,-1 -0.25,-1.8 q -0.2,-1.2 -0.95,-2.15 -0.55,0 -0.4,0.8 l 0.8,9.85 0.2,6.55 0.2,0.95 q 0.2,0.5 0.9,0.6 0.6,0 0.95,-0.5 l 0.3,-1.1 -0.1,-2.45 -0.8,-6.5 m 2.75,15.2 0.3,-0.5 0.4,-1.15 0.05,-0.35 1.1,-2.6 0.05,-0.45 -0.45,-0.1 -0.35,0.3 -4.25,6.6 -1.2,2.45 q -0.35,0.6 -0.4,1.1 -0.1,0.75 0.45,1.05 l 0.1,0.05 0.1,0.15 0.55,0.35 q 0.5,0.6 1.3,0.35 l 1,-0.6 5.1,-4.1 q 1.3,-1.1 2.1,-1.45 l 0.5,-0.35 0.15,-0.6 -0.45,-0.25 -0.5,0.1 -1.5,0.55 -1.15,0.6 -3.8,2.25 -0.5,0.35 0.5,-1.8 0.8,-1.95 M 3.1,54.45 4.25,54.5 7.2,54.3 12.9,53 13.95,52.55 q 0.5,-0.4 0.5,-1.05 L 14.2,50.7 13.55,50.25 13.45,50.2 13.7,49.95 q 0.7,-0.8 0.2,-1.65 L 13.05,47.6 12,47.3 l -1.85,-0.25 -4.3,-1 -0.65,0.1 -0.3,0.1 q -0.35,0.15 -0.15,0.55 0.2,0.3 0.5,0.2 -0.05,0.25 0.3,0.45 l 3.35,1.9 2.5,0.95 h -0.05 q -2.5,0.8 -3.75,1.3 l -3,1.25 -1.55,0.8 q -0.4,0.2 -0.35,0.5 0,0.3 0.4,0.3 m 9.75,-24.1 q -1.2,6.2 -1.4,10.05 L 10.85,39.9 9.75,38.55 8.85,37.6 8.15,37 7.5,36.55 Q 7,36.45 6.8,36.7 6.65,36.9 6.75,37.6 l 0.45,1.4 0.2,0.3 0.45,1 1.5,2.15 1.5,2.1 q 0.7,0.65 1.65,0.4 0.9,-0.35 1.15,-1.2 L 13.7,43 l -0.05,-0.35 0.15,-0.3 0.15,-1.7 Q 13.9,38.9 14.2,35.6 l 0.95,-9.1 q 1.1,-5 1.3,-7.55 0.1,-0.4 -0.15,-0.5 -0.3,-0.05 -0.4,0.4 l -0.65,1.95 -1.55,5.4 -0.85,4.15 M 58.3,48.5 q -0.05,-0.35 -0.7,-0.35 l -1.15,0.15 -0.65,0.2 -0.95,0.15 -1.65,0.2 H 52 l -0.85,0.2 -2.9,0.35 q -1.15,0.1 -1.55,0.45 -0.35,0.35 -0.45,0.85 -0.05,0.55 0.2,1 0.6,0.9 1.75,0.75 l 6.05,-2 2.65,-0.85 0.8,-0.3 0.45,-0.3 0.15,-0.5 M 48,56.65 48.5,56.5 48.65,56 q -0.05,-0.15 -0.5,-0.35 l -0.9,-0.7 Q 46.5,54.25 45.05,53.9 L 43.8,53.8 q -0.4,0.1 -0.65,0.5 -0.3,0.35 -0.3,0.75 0,0.95 0.9,1.3 l 1.35,0.05 1.45,0.15 1.45,0.1 M 15.95,53.8 14.8,53.7 q -0.35,0.1 -1.05,0.5 l -0.9,0.65 -1.2,1.3 q -0.4,0.5 0,0.85 l 0.85,0.05 2.35,-0.8 q 1.25,-0.4 1.55,-1.1 0.25,-0.8 -0.45,-1.35"
         fill="#000000"
         fill-rule="evenodd"
         stroke="none"
         id="path6" />
      <path
         d="M 37.55,0 H 64.1 V 57.55 H 0 V 0 h 22.3 m 3,0 h 0.45 m 0.8,0 h 0.75"
         ffdec:has-small-stroke="true"
         ffdec:original-stroke-width="0.1"
         fill="none"
         stroke="#ffffff"
         stroke-linecap="round"
         stroke-linejoin="round"
         stroke-width="1"
         id="path7" />
      <path
         d="m 31.95,32.6 0.85,0.2 0.95,0.6 0.6,0.6 0.25,1.5 0.05,0.3 -0.05,-0.05 -0.85,-0.85 -1.15,0.05 q -0.6,0.2 -0.85,0.75 -0.25,0.7 0,1.3 0.35,0.7 0.95,0.85 l 1.2,-0.1 0.4,-0.3 -1.1,1.2 -0.9,0.5 -0.3,0.05 -0.1,-0.4 -0.2,-0.1 q -0.35,-0.15 -0.55,0.15 l -0.1,0.25 0.05,0.1 -0.8,0.05 L 30.25,39.1 30.1,38.85 Q 29.95,38.7 29.75,38.7 v 0.05 q -0.4,-0.1 -0.5,0.35 v 0.15 l -1.15,-0.35 -0.9,-0.8 -0.45,-0.55 0.35,0.25 1.2,0.15 1,-0.7 q 0.35,-0.5 0.2,-1.15 -0.1,-0.65 -0.6,-1.05 -0.5,-0.35 -1.15,-0.3 -0.7,0.1 -1.1,0.55 l -0.25,0.55 q 0,-0.45 0.15,-0.85 0.45,-1.1 1.35,-1.85 0.7,-0.6 1.15,-0.7 l 0.95,-0.1 1.95,0.25 m 0.25,7.55 0.85,-0.25 q 0.4,0.05 0.6,0.45 0.15,0.4 -0.05,0.8 -0.2,0.55 -1.2,0.95 l -2.75,0.2 Q 28.15,41.95 27.4,41 l -0.25,-0.75 q 0.1,-0.55 0.55,-0.55 l 0.45,0.2 q 0.9,0.55 2,0.65 l 2.05,-0.4 m 1.75,4.1 q 0.05,0.4 -0.3,0.7 l -0.8,0.35 -1.9,0.25 -0.2,0.6 v 0.1 l 2.65,0.25 q 0.6,0.1 0.75,0.35 0.15,0.45 -0.3,0.8 L 33,47.9 27.8,48.5 26.1,48.25 q -0.4,-0.3 -0.4,-0.85 0,-0.6 0.4,-0.9 0.3,-0.25 1.3,-0.35 h 1 l -0.15,-0.4 V 45.6 L 27.65,45.65 26,45.55 25.3,45.1 Q 25,44.7 25.05,44.3 25.2,43.8 25.8,43.45 l 1.15,-0.2 6,0.3 q 0.95,0.2 1,0.7 m -5.65,6.1 q -0.35,-0.2 -0.45,-0.65 0,-0.45 0.3,-0.75 0.35,-0.35 1.4,-0.25 l 1.9,0.2 0.6,0.15 q 0.4,0.2 0.4,0.5 0,0.4 -0.4,0.55 l -0.65,0.15 -2.05,0.2 -1.05,-0.1"
         fill="#ffffff"
         fill-rule="evenodd"
         stroke="none"
         id="path8" />
      <path
         d="m 25.4,39.15 q -1.05,-1.45 -1,-3.3 l -0.75,-0.1 q -1.3,-0.45 -1.7,-1.6 -0.25,-0.55 -0.15,-1.5 0.25,-1.3 1,-2.05 0.8,-0.9 2.05,-0.9 l 1.45,0.35 q 1.05,0.4 1.4,1.1 l 1.05,-0.3 4.15,0.1 0.15,-0.25 1,-0.7 0.9,-0.35 h 0.65 l 1.55,0.45 q 0.65,0.4 1.2,1.45 l 0.4,0.7 q 0.2,0.65 -0.2,1.85 l -0.35,0.65 -0.65,0.5 -1.2,0.8 -0.05,0.05 q -0.25,2.15 -1.35,3.4 l 1.4,1.9 0.7,2.25 1.15,-0.2 0.8,-0.25 0.4,-0.4 q 0.5,-0.95 0.05,-1.8 -0.95,-1.15 -1,-1.85 l 0.1,-0.65 q 0.5,-1.3 1.4,-1.45 l 0.3,0.1 0.1,0.3 -0.2,0.1 -0.4,0.5 q -0.1,0.35 0.1,0.65 l 0.85,0.75 0.4,0.7 0.45,1.3 -0.15,1.5 q -0.35,1.1 -0.95,1.6 l -1.4,0.85 -1.5,0.65 -0.1,0.1 -0.1,1.6 q -0.6,2.35 -3.2,3.5 -1.7,0.8 -4.8,0.8 L 26.2,51.6 q -1.85,-0.55 -2.95,-1.95 -0.5,-0.55 -0.7,-1.3 l -0.1,-1.3 Q 22.6,44.5 23.75,42.5 L 24.6,41.3 25.9,40 26,39.9 25.4,39.15 m 2.9,11.2 1.05,0.1 2.05,-0.2 0.65,-0.15 q 0.4,-0.15 0.4,-0.55 0,-0.3 -0.4,-0.5 l -0.6,-0.15 -1.9,-0.2 q -1.05,-0.1 -1.4,0.25 -0.3,0.3 -0.3,0.75 0.1,0.45 0.45,0.65 m 5.65,-6.1 q -0.05,-0.5 -1,-0.7 l -6,-0.3 -1.15,0.2 Q 25.2,43.8 25.05,44.3 25,44.7 25.3,45.1 l 0.7,0.45 1.65,0.1 0.6,-0.05 v 0.15 l 0.15,0.4 h -1 q -1,0.1 -1.3,0.35 -0.4,0.3 -0.4,0.9 0,0.55 0.4,0.85 l 1.7,0.25 5.2,-0.6 0.85,-0.25 Q 34.3,47.3 34.15,46.85 34,46.6 33.4,46.5 l -2.65,-0.25 v -0.1 l 0.2,-0.6 1.9,-0.25 0.8,-0.35 q 0.35,-0.3 0.3,-0.7 m -1.75,-4.1 -2.05,0.4 q -1.1,-0.1 -2,-0.65 L 27.7,39.7 q -0.45,0 -0.55,0.55 L 27.4,41 q 0.75,0.95 2.25,1.3 l 2.75,-0.2 q 1,-0.4 1.2,-0.95 0.2,-0.4 0.05,-0.8 -0.2,-0.4 -0.6,-0.45 L 32.2,40.15 M 31.95,32.6 30,32.35 29.05,32.45 Q 28.6,32.55 27.9,33.15 27,33.9 26.55,35 26.4,35.4 26.4,35.85 l 0.25,-0.55 q 0.4,-0.45 1.1,-0.55 0.65,-0.05 1.15,0.3 0.5,0.4 0.6,1.05 0.15,0.65 -0.2,1.15 l -1,0.7 -1.2,-0.15 -0.35,-0.25 0.45,0.55 0.9,0.8 1.15,0.35 V 39.1 q 0.1,-0.45 0.5,-0.35 V 38.7 q 0.2,0 0.35,0.15 l 0.15,0.25 0.05,0.15 0.8,-0.05 -0.05,-0.1 0.1,-0.25 q 0.2,-0.3 0.55,-0.15 l 0.2,0.1 0.1,0.4 0.3,-0.05 0.9,-0.5 1.1,-1.2 -0.4,0.3 -1.2,0.1 Q 32.1,37.7 31.75,37 31.5,36.4 31.75,35.7 32,35.15 32.6,34.95 L 33.75,34.9 34.6,35.75 34.65,35.8 34.6,35.5 34.35,34 33.75,33.4 32.8,32.8 31.95,32.6"
         fill="#999999"
         fill-rule="evenodd"
         stroke="none"
         id="path9" />
    </g>
    <g
       id="shape2"
       transform="translate(1.5,1.5)">
      <path
         d="M 0,23.8 V 0 H 64.1 V 23.8 57.55 H 0 Z"
         fill="none"
         stroke="#000000"
         stroke-linecap="round"
         stroke-linejoin="round"
         stroke-width="3"
         id="path10" />
    </g>
  </defs>
</svg>
