<?xml version="1.0" encoding="UTF-8" standalone="no"?>
<svg
   ffdec:objectType="frame"
   height="60.549999"
   width="67.154167"
   version="1.1"
   id="svg10"
   sodipodi:docname="251.svg"
   xmlns:inkscape="http://www.inkscape.org/namespaces/inkscape"
   xmlns:sodipodi="http://sodipodi.sourceforge.net/DTD/sodipodi-0.dtd"
   xmlns:xlink="http://www.w3.org/1999/xlink"
   xmlns="http://www.w3.org/2000/svg"
   xmlns:svg="http://www.w3.org/2000/svg"
   xmlns:ffdec="https://www.free-decompiler.com/flash">
  <sodipodi:namedview
     id="namedview10"
     pagecolor="#ffffff"
     bordercolor="#000000"
     borderopacity="0.25"
     inkscape:showpageshadow="2"
     inkscape:pageopacity="0.0"
     inkscape:pagecheckerboard="0"
     inkscape:deskcolor="#d1d1d1"
     fit-margin-top="5"
     fit-margin-left="5"
     fit-margin-right="5"
     fit-margin-bottom="5" />
  <g
     transform="translate(1.5541667,1.5)"
     id="g3">
    <use
       ffdec:characterId="516"
       height="57.549999"
       width="64.099998"
       xlink:href="#shape0"
       id="use1" />
    <use
       ffdec:characterId="756"
       height="59.900002"
       transform="translate(-1.55,-1.1)"
       width="65.699997"
       xlink:href="#shape1"
       id="use2" />
    <use
       ffdec:characterId="518"
       height="60.549999"
       transform="translate(-1.5,-1.5)"
       width="67.099998"
       xlink:href="#shape2"
       id="use3" />
  </g>
  <defs
     id="defs10">
    <g
       id="shape0">
      <path
         d="M 53.6,0 H 64.1 V 57.55 H 53.6 28.25 0 V 0 H 28.25 53.6 V 57.55 0 M 28.25,0 V 57.55 0"
         fill="#ffffff"
         fill-rule="evenodd"
         stroke="none"
         id="path3" />
    </g>
    <g
       id="shape1"
       transform="translate(1.55,1.1)">
      <path
         d="M 51.95,0 H 64.1 V 57.55 H 5.85 L 6,57.35 8.65,53 9.8,50.45 q 0.25,-1 0.15,-3.1 l -0.55,-11.2 16,-1.1 4.35,-0.25 q 0.85,-0.25 1.05,-0.5 l 0.25,-1.05 Q 31,25.15 30.75,21.1 30.35,14.4 29.1,9.15 28.9,8.35 29.05,8 L 29.6,7.3 30.9,6.15 q 0.5,-0.4 0.95,-0.65 l 0.2,0.05 3.05,1.4 1.4,0.55 -0.15,0.1 q -0.25,0.35 -0.1,0.5 0.2,0.3 0.55,-0.15 l 0.55,-0.45 0.3,0.1 0.2,0.1 q 0.55,1.9 1.85,4.55 l 2.85,6 3.35,6.65 0.8,1.5 -0.15,0.05 -2.1,0.85 -5.05,1.4 -4.35,-4.55 q -0.3,-0.3 -0.55,-0.2 -0.2,0.1 -0.1,0.35 l 2.95,3.2 1.55,2.5 q 0.25,0.25 0.5,0.3 l 0.85,-0.25 6.4,-2.05 0.65,-0.3 0.4,0.6 q 0.65,0.35 1.4,-0.3 l 1.1,-1.05 0.8,-0.35 0.65,-0.45 q 0.3,-0.3 0.4,-1.15 1.1,-8.15 1.1,-16.75 l 3,3.8 q 0.45,0.35 0.5,0.75 l -0.4,0.9 q -1.35,1.9 -2,3.65 -0.35,0.8 0,1.15 l 0.9,0.05 0.65,-0.65 2.4,-3.85 q 0.55,-1.1 0.45,-1.6 L 58,11.25 53.95,6 q -1,-1.3 -1.85,-0.95 -0.7,0.3 -0.7,1.6 l -0.2,5.75 -0.35,5.75 -0.6,5.35 -0.45,1.3 Q 49.5,25.2 48.45,25.5 45.1,19.2 40.8,10.2 l -1.1,-2.45 0.2,-0.3 q 0.25,-0.5 0,-0.9 L 39.2,5.9 42.65,3.25 43.25,3.2 46.75,3.65 48,3.8 Q 48.45,3.65 49.1,2.9 L 51.65,0.3 51.95,0 M 2.05,57.55 H 0 V 46.7 L 0.65,46.8 1.3,46.25 3.55,43.4 3.9,43.05 4.4,42.8 7.65,41.55 H 7.7 l 0.2,4.15 v 3.4 L 7.75,49.9 2.3,55.75 1.95,56.2 q -0.45,0.75 0.1,1.35 M 0,45.6 V 0 h 50.3 l -0.85,0.8 h -0.2 Q 49.05,0.85 48.8,1.2 L 47.9,2.3 47.7,2.35 46.85,2.3 46.4,2.2 45.95,2.05 45.35,1.45 45,1.25 44.1,0.65 Q 43.55,0.2 43.3,0.2 q -0.4,0 -0.9,0.6 l -0.85,1.1 -0.2,0.2 v 0.1 q -0.2,0 -0.3,0.3 L 40.9,2.85 40.85,3.05 39.9,4.15 38.6,5.4 38.55,5.5 38.3,5.4 H 38.2 L 33.25,3.55 33,3.5 31.8,3.3 Q 31.2,3.35 30.25,4.2 L 28.4,5.8 q -0.9,0.8 -1.1,1.35 -0.1,0.4 0.1,1.6 1.15,5.35 1.55,11.9 l 0.25,6.7 h -0.75 l -1.45,0.3 -1.5,0.3 -5.6,0.45 -1.2,0.2 q -0.5,0.2 -1.25,1.35 l -1.9,2.95 q -0.05,-5.5 0.15,-10.95 0,-0.3 0.15,-0.55 0.2,-0.3 0.8,-0.3 4.3,-0.5 8.4,-2.05 l 0.3,-0.3 q 0,-0.3 -0.45,-0.2 l -9.2,1.55 -0.6,0.2 q -0.45,0.3 -0.45,1.15 l -0.3,6.2 -0.45,6.2 V 33.9 L 9.65,34 q -1.25,0.1 -1.6,0.5 -0.3,0.3 -0.4,1.35 V 40.7 L 6.35,41.1 3.55,42 3.1,42.2 0.1,45.45 0,45.6 M 29.2,32.7 17.25,33.75 19.1,30.55 19.45,30.1 20,30 q 3.1,-0.3 9.2,-1.8 v 4.5"
         fill="#000000"
         fill-rule="evenodd"
         stroke="none"
         id="path4" />
      <path
         d="M 50.3,0 51,-0.7 q 0.6,-0.6 1,-0.3 0.35,0.2 0.15,0.7 L 51.95,0 51.65,0.3 49.1,2.9 Q 48.45,3.65 48,3.8 L 46.75,3.65 43.25,3.2 42.65,3.25 39.2,5.9 39.9,6.55 q 0.25,0.4 0,0.9 l -0.2,0.3 1.1,2.45 q 4.3,9 7.65,15.3 1.05,-0.3 1.35,-0.7 l 0.45,-1.3 0.6,-5.35 0.35,-5.75 0.2,-5.75 q 0,-1.3 0.7,-1.6 Q 52.95,4.7 53.95,6 l 4.05,5.25 0.65,1.2 q 0.1,0.5 -0.45,1.6 l -2.4,3.85 -0.65,0.65 -0.9,-0.05 q -0.35,-0.35 0,-1.15 0.65,-1.75 2,-3.65 l 0.4,-0.9 q -0.05,-0.4 -0.5,-0.75 l -3,-3.8 q 0,8.6 -1.1,16.75 -0.1,0.85 -0.4,1.15 L 51,26.6 50.2,26.95 49.1,28 q -0.75,0.65 -1.4,0.3 L 47.3,27.7 46.65,28 40.25,30.05 39.4,30.3 Q 39.15,30.25 38.9,30 L 37.35,27.5 34.4,24.3 q -0.1,-0.25 0.1,-0.35 0.25,-0.1 0.55,0.2 l 4.35,4.55 5.05,-1.4 2.1,-0.85 0.15,-0.05 -0.8,-1.5 -3.35,-6.65 -2.85,-6 Q 38.4,9.6 37.85,7.7 L 37.65,7.6 37.35,7.5 36.8,7.95 Q 36.45,8.4 36.25,8.1 36.1,7.95 36.35,7.6 L 36.5,7.5 35.1,6.95 32.05,5.55 31.85,5.5 Q 31.4,5.75 30.9,6.15 L 29.6,7.3 29.05,8 q -0.15,0.35 0.05,1.15 1.25,5.25 1.65,11.95 0.25,4.05 0.3,12.15 L 30.8,34.3 q -0.2,0.25 -1.05,0.5 l -4.35,0.25 -16,1.1 0.55,11.2 q 0.1,2.1 -0.15,3.1 L 8.65,53 6,57.35 5.85,57.55 Q 5.2,58.3 4.75,57.9 L 4.7,57.85 4.45,57.95 3.7,57.8 3.55,57.85 Q 2.7,58.3 2.1,57.6 L 2.05,57.55 Q 1.5,56.95 1.95,56.2 L 2.3,55.75 7.75,49.9 7.9,49.1 V 45.7 L 7.7,41.55 H 7.65 L 4.4,42.8 3.9,43.05 3.55,43.4 1.3,46.25 0.65,46.8 0,46.7 -0.05,46.65 Q -0.35,46.35 -0.25,46 L 0,45.6 0.1,45.45 3.1,42.2 3.55,42 6.35,41.1 7.65,40.7 V 35.85 Q 7.75,34.8 8.05,34.5 8.4,34.1 9.65,34 l 4.25,-0.1 v -0.05 l 0.45,-6.2 0.3,-6.2 q 0,-0.85 0.45,-1.15 l 0.6,-0.2 9.2,-1.55 q 0.45,-0.1 0.45,0.2 l -0.3,0.3 q -4.1,1.55 -8.4,2.05 -0.6,0 -0.8,0.3 -0.15,0.25 -0.15,0.55 -0.2,5.45 -0.15,10.95 l 1.9,-2.95 Q 18.2,28.8 18.7,28.6 l 1.2,-0.2 5.6,-0.45 1.5,-0.3 1.45,-0.3 h 0.75 l -0.25,-6.7 Q 28.55,14.1 27.4,8.75 27.2,7.55 27.3,7.15 27.5,6.6 28.4,5.8 L 30.25,4.2 Q 31.2,3.35 31.8,3.3 L 33,3.5 33.25,3.55 38.2,5.4 h 0.1 l 0.25,0.1 0.05,-0.1 1.3,-1.25 0.95,-1.1 0.05,-0.2 0.15,-0.35 q 0.1,-0.3 0.3,-0.3 V 2.1 l 0.2,-0.2 0.85,-1.1 q 0.5,-0.6 0.9,-0.6 0.25,0 0.8,0.45 l 0.9,0.6 0.35,0.2 0.6,0.6 0.45,0.15 0.45,0.1 0.85,0.05 0.2,-0.05 0.9,-1.1 q 0.25,-0.35 0.45,-0.4 h 0.2 L 50.3,0 M 29.2,32.7 V 28.2 Q 23.1,29.7 20,30 l -0.55,0.1 -0.35,0.45 -1.85,3.2 11.95,-1.05"
         fill="#ffffff"
         fill-rule="evenodd"
         stroke="none"
         id="path5" />
      <path
         d="M 51.95,0 H 64.1 V 57.55 H 5.85 m -3.8,0 H 0 V 46.7 M 0,45.6 V 0 h 50.3"
         ffdec:has-small-stroke="true"
         ffdec:original-stroke-width="0.1"
         fill="none"
         stroke="#999999"
         stroke-linecap="round"
         stroke-linejoin="round"
         stroke-width="1"
         id="path6" />
      <path
         d="m 52.4,17.9 q 0.8,-1.55 0.25,-3.4 -0.5,-1.85 -1.9,-2.9 -1.15,-0.8 -3,-1.35 l -4.25,-0.8 -4.75,0.5 q -5.45,2.05 -8,4.1 -3.05,2.45 -5.25,7.3 l -0.9,2.3 -0.3,1.1 -0.35,1.3 -0.3,0.85 q 2.7,-4.15 5.9,-6.2 0.9,-0.55 1.85,-0.95 l -0.65,0.15 -2.3,1.3 q 0.85,-1.55 3.5,-3 l 1.8,-0.8 3.15,-0.2 3.15,0.55 5.15,0.15 1.5,-0.45 1.35,-0.7 0.25,0.05 q -1.5,1.95 -4.3,2.95 l -3.2,0.6 1.85,0.65 3.9,0.2 Q 51,20.7 52.4,17.9 m -27.45,13.2 -2.85,5.4 -1.85,3.15 q -1.2,1.6 -2.6,2.35 -1.65,0.85 -3.55,0.75 l -1.35,-0.1 h -1.3 Q 10.4,42.75 8.9,43.6 6.05,45.3 4.3,48.05 L 3.1,50.3 1.85,52.55 1.5,52.9 1.1,52.8 0.45,53.4 q -0.5,-0.1 -0.5,-1.15 0.4,-3.7 2.65,-6.5 1.05,-1.35 3.05,-3 1.8,-1.45 3.1,-2.15 l 4.65,-2 q 2.75,-1.2 4.05,-2.75 1.1,-1.35 1.8,-3.7 L 20.65,27.2 22,22.25 23.15,19.1 q -1.35,1.8 -2.1,3.45 -0.4,0.9 -1.25,3.95 l -1.55,3.8 q -2,3.3 -6.55,5 l -2,0.8 Q 8.65,36.65 8.15,37.45 L 7.75,37.8 7.45,37.6 7.4,37.15 q 0.2,-1.4 1.7,-2.45 l 1.7,-0.9 0.85,-0.6 1.9,-1.25 q 1.65,-1.5 2.55,-3.75 l 1.15,-3.9 Q 18.9,18.3 22.6,15 23.75,13.55 25,12.45 28.1,9.7 32.3,8.25 L 32.85,7.9 q 1.75,-1 4.2,-1.6 5.35,-1.2 10.7,0.1 4.45,1.05 6.65,3.55 2.55,2.9 2.25,6.65 -0.25,3.75 -3.25,6.2 -1.5,1.2 -3.7,1.9 l -1.35,0.4 -0.4,0.15 -1.65,0.5 q -3.95,1.75 -7.75,1.5 L 34.4,27 q -2.2,0.3 -3.95,2.05 -1.45,1.45 -2.4,3.85 l -0.55,1.65 -0.75,1.6 Q 25.7,37.75 23.6,38.75 25.25,37.1 26,35 l 0.8,-2.75 q 0.9,-2.85 2.5,-4.75 2.05,-2.3 4.5,-2.85 h -1.05 q -1.2,0.1 -2.85,0.95 l -2.6,1.55 q -1.1,1.5 -2.35,3.95 M 4.05,51.9 4.85,49.85 Q 5.25,48.55 5.75,47.9 6.3,47.1 7.9,46 l 0.6,-0.4 0.45,-0.15 q 0.2,-0.2 0.35,-0.15 l 0.1,0.2 -0.45,0.4 -1.3,1.7 Q 7.15,48.4 7,49.9 l -0.35,2.45 q -0.75,3 -4.15,5.05 l -1,0.45 -1,-0.1 Q -0.4,57.35 -0.3,56.5 -0.25,55.9 0.95,55 3.2,53.45 4.05,51.9"
         fill="#999999"
         fill-rule="evenodd"
         stroke="none"
         id="path7" />
      <path
         d="M 52.4,17.9 Q 51,20.7 46.55,21.2 L 42.65,21 40.8,20.35 44,19.75 q 2.8,-1 4.3,-2.95 l -0.25,-0.05 -1.35,0.7 -1.5,0.45 -5.15,-0.15 -3.15,-0.55 -3.15,0.2 -1.8,0.8 q -2.65,1.45 -3.5,3 l 2.3,-1.3 0.65,-0.15 q -0.95,0.4 -1.85,0.95 -3.2,2.05 -5.9,6.2 l 0.3,-0.85 0.35,-1.3 0.3,-1.1 0.9,-2.3 q 2.2,-4.85 5.25,-7.3 2.55,-2.05 8,-4.1 l 4.75,-0.5 4.25,0.8 q 1.85,0.55 3,1.35 1.4,1.05 1.9,2.9 0.55,1.85 -0.25,3.4"
         fill="#ffffff"
         fill-rule="evenodd"
         stroke="none"
         id="path8" />
      <path
         d="m 46.8,26.75 -0.7,-1.45 -0.5,-1.6 -0.3,-1 q 0,-0.35 0.3,-0.85 l 0.75,-1.3 q 0.3,-0.5 0.55,-0.65 L 47.85,19.75 50.7,19.7 51,16.05 v -0.6 l 0.05,-0.65 -0.2,-0.3 v -0.85 l 0.2,-1.8 0.15,-1.6 v -1.7 l 0.3,-1.5 0.15,-0.4 q 0.2,-0.3 0.6,-0.2 l 0.1,-0.35 q 0.4,0.05 0.4,0.7 v 0.05 l 0.05,0.5 0.1,-0.15 0.2,-0.1 0.25,0.05 0.15,0.4 -0.15,0.4 -0.05,0.8 v 0.1 0.2 l -0.05,0.4 V 9.7 l -0.05,0.4 -0.05,0.15 v 0.85 l -0.1,0.4 -0.1,0.75 -0.15,0.8 -0.45,7 q -0.1,0.8 -0.4,1.05 L 51,21.25 47.75,21.1 47.4,21.8 47.05,22.5 Q 47,23.1 47.7,23.9 l 0.75,1.65 0.05,1 Q 48.4,27.2 47.85,27.3 47.3,27.45 46.8,26.75 M 38.2,5.35 38.55,5.2 38.85,5.05 42.3,1.1 42.75,0.85 q 0.4,0 0.4,0.45 l -0.3,0.6 -0.5,0.45 Q 42.1,2.7 41.95,2.65 L 41.7,2.9 41.55,3.15 41.3,3.4 41.05,3.7 40.5,4.3 40.7,4.35 40.55,4.6 40.35,5.05 40,5.35 l -0.2,0.3 -0.95,0.9 -1.05,0.8 -0.6,0.2 H 36.6 L 35.7,7.2 34.4,6.35 34,5.9 34.15,5.7 34.4,5.6 h 0.55 l 0.8,0.35 0.75,0.1 L 37,6.2 37.5,6.05 38,5.6 38.2,5.35 m -12.55,51.8 q -1.05,1.7 -2.1,1.65 -0.45,-0.05 -0.8,-0.4 -0.35,-0.35 -0.4,-0.8 0,-0.6 0.7,-1.6 2.2,-3.1 4.75,-6.25 0.75,-1.05 1.45,-1.5 0.75,-0.55 2,-1 2.15,-0.8 4.8,-1.55 l 0.7,-0.4 0.15,-0.6 0.7,-5.55 q 0.1,-0.6 0.35,-1 l 1.2,-0.7 q 5.55,-1.75 10.2,-2.75 -1.1,0.8 -3.8,1.95 l -5,2 -1.2,0.75 q -0.3,0.4 -0.3,1.25 l -0.55,5.3 -0.25,0.95 q -0.3,0.45 -1.45,0.65 l -1.85,0.5 1.3,0.6 1.2,0.75 0.45,0.3 0.5,-0.1 q 2.75,-1.4 5.8,-2.55 l 3,-1.2 0.35,-0.1 0.25,0.2 -0.15,0.35 -1.55,0.95 -7.65,4 -0.85,0.25 -0.7,-0.4 -0.4,-0.3 -0.4,-0.05 -1.2,-0.6 Q 33.65,49.4 32.3,49 l -0.1,-0.05 q -1.1,0.35 -1.7,0.85 l -1.2,1.5 -3.65,5.85 m 2.5,-40 -0.35,-5.5 0.1,-0.8 -0.1,-0.35 V 9.85 q 0,-0.3 0.15,-0.3 L 28,8.9 28.1,8.85 28.15,8.7 28.6,8.5 l 0.35,0.3 0.2,1.2 0.1,1.45 0.15,0.55 0.2,5.45 -0.05,0.4 Q 29.5,18.3 28.9,18.4 l -0.15,0.05 q 0.25,0.4 -0.05,0.75 -0.25,0.3 -0.9,0.4 l -1.9,0.3 -4.75,0.75 -1.4,0.15 H 19.3 l -0.35,0.1 -0.8,-0.1 -0.35,-0.05 -0.25,-0.2 -0.05,-0.4 1,-3.95 0.05,-0.3 -0.05,-0.35 0.3,-0.4 0.55,-0.15 1.45,-0.3 0.8,-0.3 0.85,0.1 0.4,0.6 2.55,3.35 0.05,0.05 0.65,-0.1 0.75,-0.1 0.95,-0.25 h 0.45 L 28.2,18 q -0.15,-0.25 -0.05,-0.85 m -7.9,2.35 0.75,-0.15 2.85,-0.55 -1.3,-1.9 -0.5,-0.6 -0.45,-0.55 -0.45,0.1 -1.8,0.35 -1.05,3.55 0.2,-0.05 0.45,-0.05 0.85,-0.05 h 0.1 l 0.35,-0.1 m 13.3,3.6 -0.2,-0.15 -0.4,0.05 -1.15,0.1 -0.9,0.3 -0.75,0.1 -0.35,0.25 -0.4,-0.05 q -0.15,-0.15 0.05,-0.4 l 0.35,-0.2 3.55,-1.25 0.4,-0.05 0.45,0.35 4.05,5.75 0.3,0.2 q 0.2,0.25 -0.1,0.4 H 38 l -0.65,-0.6 -3.8,-4.8 m -35.1,9.25 0.65,-1.3 3.35,-3.6 3.5,-3.5 L 6.35,23.4 6.4,22.35 6.2,20.6 1.95,19.85 q -0.7,0 -0.9,-0.35 L 0.9,18.95 0.65,18.5 Q -0.3,17.05 -0.5,15.4 l 0.15,-0.2 0.3,0.05 0.65,1.2 0.35,0.75 0.75,1.25 3.5,0.4 L 6,18.8 5.5,14.5 Q 5.4,14.1 5.65,13.95 l 0.4,0.1 0.2,0.45 0.5,2.45 1.35,-1.55 q 2.85,-3.3 5,-5.05 L 13.75,9.65 13.7,8.55 13,5.2 q 0,-0.4 0.15,-0.45 l 0.35,0.35 0.7,2.4 0.6,1.65 0.4,1.1 -0.75,1 q -3.3,2.6 -6.45,6.9 L 7.75,18.5 7.7,18.65 7.3,20.1 7.25,20.2 7.9,23 8.05,23.95 7.1,25.4 Q 3.45,28.95 1.45,32.25 0.75,33.5 0,33.65 -0.55,33.8 -1.05,33.4 -1.6,32.95 -1.55,32.35 m 24.6,2.9 -1.8,0.1 -4,-0.1 L 16.1,35 15.85,34.65 15.65,34.6 15.6,34.4 q 0.15,-0.25 0.4,-0.15 l 0.25,-0.15 0.6,-0.15 1.1,-0.1 2.6,-0.15 3.1,-0.5 1.05,0.1 0.35,0.55 q 0.1,0.4 -0.15,0.7 l -0.4,0.3 -1.45,0.4 M 8.1,48.6 8.15,47.6 8.25,47.2 8.1,46.65 V 46.3 L 8,45.85 7.95,44.9 8.1,40.05 8.15,39.45 8.6,38.65 q 0.75,-0.1 1.1,0.65 l 0.15,0.85 0.1,5.2 0.2,1.85 v 0.15 h 0.1 l 1.05,0.05 1.05,-0.15 2.9,0.05 0.8,-0.1 0.45,-0.45 5.4,-6.2 0.4,-0.35 q 0.3,-0.1 0.45,0.15 L 22.5,41 21.55,42.45 19.65,45.2 17.7,47.9 17,48.8 15.9,49.05 13.65,49.15 10.6,49.7 9.7,49.8 9.1,50.05 8.45,49.8 Q 8.1,49.45 8.1,48.6"
         fill="#ffffff"
         fill-rule="evenodd"
         stroke="none"
         id="path9" />
    </g>
    <g
       id="shape2"
       transform="translate(1.5,1.5)">
      <path
         d="M 0,23.8 V 0 H 64.1 V 23.8 57.55 H 0 Z"
         fill="none"
         stroke="#000000"
         stroke-linecap="round"
         stroke-linejoin="round"
         stroke-width="3"
         id="path10" />
    </g>
  </defs>
</svg>
