<?xml version="1.0" encoding="UTF-8" standalone="no"?>
<svg
   ffdec:objectType="frame"
   height="60.549999"
   width="67.099998"
   version="1.1"
   id="svg7"
   sodipodi:docname="137.svg"
   xmlns:inkscape="http://www.inkscape.org/namespaces/inkscape"
   xmlns:sodipodi="http://sodipodi.sourceforge.net/DTD/sodipodi-0.dtd"
   xmlns:xlink="http://www.w3.org/1999/xlink"
   xmlns="http://www.w3.org/2000/svg"
   xmlns:svg="http://www.w3.org/2000/svg"
   xmlns:ffdec="https://www.free-decompiler.com/flash">
  <sodipodi:namedview
     id="namedview7"
     pagecolor="#ffffff"
     bordercolor="#000000"
     borderopacity="0.25"
     inkscape:showpageshadow="2"
     inkscape:pageopacity="0.0"
     inkscape:pagecheckerboard="0"
     inkscape:deskcolor="#d1d1d1"
     fit-margin-top="5"
     fit-margin-left="5"
     fit-margin-right="5"
     fit-margin-bottom="5" />
  <g
     transform="translate(1.5,1.5)"
     id="g3">
    <use
       ffdec:characterId="516"
       height="57.549999"
       width="64.099998"
       xlink:href="#shape0"
       id="use1" />
    <use
       ffdec:characterId="647"
       height="52.650002"
       transform="translate(4.35,3.55)"
       width="56.450001"
       xlink:href="#shape1"
       id="use2" />
    <use
       ffdec:characterId="518"
       height="60.549999"
       transform="translate(-1.5,-1.5)"
       width="67.099998"
       xlink:href="#shape2"
       id="use3" />
  </g>
  <defs
     id="defs7">
    <g
       id="shape0">
      <path
         d="M 53.6,0 H 64.1 V 57.55 H 53.6 28.25 0 V 0 H 28.25 53.6 V 57.55 0 M 28.25,0 V 57.55 0"
         fill="#ffffff"
         fill-rule="evenodd"
         stroke="none"
         id="path3" />
    </g>
    <g
       id="shape1"
       transform="translate(-4.35,-3.55)">
      <path
         d="M 33.8,24.45 Q 33.55,24.05 33.45,23.4 L 32.7,19.9 q -0.2,-1.2 -0.1,-1.65 0.2,-0.5 1.05,-1.25 l 4.75,-3.85 q 0.5,-0.35 1,-0.4 0.7,-0.05 1.3,0.4 l 0.05,0.05 h 0.05 l 1.1,0.8 0.45,0.55 1.05,0.75 1.75,1.45 L 46,17.7 46.25,19 46.2,20.4 46.15,21.65 46,22.2 h 0.4 q 0.35,0.1 0.75,0.6 1.05,1.25 1.1,2.1 l -0.7,1.85 -1.8,3.1 -0.55,0.75 Q 44.8,31 44.15,31.1 L 43,30.95 42.6,30.7 42.05,30.5 q -0.65,-0.3 -1,-1.05 l -0.4,-1.4 -0.3,-2.05 q 0,-0.6 0.15,-1 h -0.8 l -1.05,-0.1 -1,0.05 -1,0.35 q -1,0.25 -1.8,-0.25 l -0.35,-0.2 q -0.35,0.05 -0.7,-0.4 m 8.7,14.65 1.35,0.25 h 2.2 q 1.35,0.1 2.1,0.45 l 0.7,0.65 0.6,0.7 0.3,1.35 0.15,1.6 0.05,1.3 -0.55,1.45 -0.75,1.05 -1.2,0.6 -2.1,0.65 -1,0.2 h -0.7 l -1,0.25 -1.45,-0.15 Q 40.2,49 39.75,47.6 l -0.55,-2.35 -0.5,-1.6 q -0.3,-0.9 -0.25,-1.6 0,-0.55 0.35,-1.15 0.35,-0.6 0.85,-0.8 L 39.7,40 Q 40,39.75 40.5,39.55 L 41.55,39.2 42.5,39.1 M 17.2,37 16.85,33.55 q -0.3,-1.5 -0.05,-2.1 0.4,-0.75 1.45,-1.1 l 1.4,-0.25 q 0.85,0.1 1.25,0.65 l 0.35,0.95 1.05,2.3 0.1,-0.05 1.65,-0.1 q 0.75,0.3 0.85,1.2 0.1,0.8 -0.6,1.3 l -0.75,0.35 q -0.25,0.4 -0.8,0.35 l -0.05,0.05 -0.65,1.2 -1.25,1.65 -1.4,1.25 -0.55,0.45 H 18.5 v 0.1 l -0.15,1.55 v 0.6 l 0.75,-0.75 5.85,-5.4 q 1.3,-1.4 2.15,-1.3 0.7,0.05 1.35,0.8 l 1,1.2 1.2,0.95 q 0.7,0.55 0.9,1.15 0.15,0.55 -0.25,1.6 l -0.4,1.6 q 0,0.55 0.55,1.75 0.55,1.3 0.55,2.25 -0.1,1.4 -1.1,2 l -1.85,0.35 -7.65,0.9 -0.55,0.15 9.75,0.1 0.1,-0.2 0.65,-0.65 q 1.15,-0.8 2.15,-1 l 1.85,-0.2 h 1.35 q 1.1,0.1 1.6,1.1 l 0.2,0.9 6.05,-0.4 1.25,-0.35 0.85,-0.95 q 0.5,-0.5 1.6,-0.9 l 1.75,-0.75 1.3,-0.9 q 1,-0.55 2.8,-0.35 1.75,0.2 2.85,0.95 1.45,1.1 1.4,2.55 -0.05,2.15 -3,3.45 -2.45,1.05 -7.15,1.7 l -6.8,0.8 Q 36.35,56.4 27.45,55.9 l -9.7,-0.45 -5,-0.3 L 9.25,55 Q 7.65,54.75 6.7,54.15 l -1.15,-0.9 -0.8,-0.9 q -0.6,-0.9 -0.35,-2 0.25,-1.1 1.1,-1.8 0.65,-0.5 1.85,-0.85 l 2.2,-0.3 q 0.55,0 0.9,0.3 0.45,0.35 0.45,0.85 l -0.05,0.2 q 0.8,0.05 1.3,0.4 L 12.7,50 q 0.15,0.55 -0.2,0.9 l 3.3,0.1 -0.2,-0.2 -0.3,-0.4 -0.45,-0.3 -0.8,-0.7 -0.6,-0.95 Q 13.3,48.15 13.4,47.4 l 0.35,-4.45 q 0.3,-2.7 0.7,-3.95 l 0.6,-0.9 0.7,-0.1 Q 16.2,37.15 17.2,37 M 29.85,6.6 28.85,7.35 28,7.85 27.5,8.3 27,9 26.4,8.9 26.1,8.4 Q 25.7,7.35 25.95,6.2 26.25,5 27.05,4.25 l 1,-0.65 1.15,0.1 0.85,0.75 q 0.3,0.5 0.25,1.1 Q 30.25,6.2 29.85,6.6 M 21.4,8.7 V 8.6 L 21.1,8.45 20.85,8.2 20.45,8.05 19.5,7.4 Q 19.1,6.9 19.15,6.3 19.1,5.6 19.6,5 20.15,4.45 20.85,4.45 L 21,4.4 q 1.3,0.3 1.85,0.9 L 23.2,5.7 23.85,6.85 24,8.5 24.1,8.9 23.85,9.7 23.6,10.15 23.25,10.5 22.7,10.35 22,9.3 21.4,8.7 M 8.95,25.55 q 0.25,-0.45 1,-0.95 1.6,-0.9 2.95,-0.55 0.8,0.1 0.8,0.7 l -0.35,0.5 -0.55,0.3 Q 12.4,25.8 11.9,26.6 L 11,27.65 Q 10,28.25 9.15,27.4 8.4,26.55 8.95,25.55 m 9,25.25 -0.25,0.25 1.7,0.05 -0.2,-0.1 -0.6,-0.3 -0.5,-0.15 -0.15,0.25"
         fill="#767676"
         fill-rule="evenodd"
         stroke="none"
         id="path4" />
      <path
         d="m 50.8,27.7 q -1.4,1.85 -2.5,3.85 l -1.55,1.75 -2.05,-0.05 0.1,0.45 h 0.05 l 2.65,-0.1 2.15,0.35 q 1.4,0.1 2.05,-0.65 l 0.7,-1.7 q 0.65,-2.05 2.15,-2.75 l 2.7,-0.2 q 2.1,0.5 3.05,2.4 1.05,2 -0.05,3.9 -0.45,0.7 -0.9,0.4 -0.2,-0.15 -0.1,-0.85 0.25,-1.15 -0.4,-2.15 -0.7,-1.05 -1.75,-1.2 -0.8,-0.2 -1.3,0.3 -0.3,0.25 -0.5,1.15 -0.25,1.45 -0.7,2.3 -0.75,1.45 -2.35,2.1 l -0.6,0.25 0.1,0.1 1.05,1 0.45,1.7 0.45,4.95 q 0.1,1.55 -0.3,2.15 l -1.15,1 Q 50.1,49.45 48,51.3 l -1.4,1 -1.4,0.15 -1.4,-0.2 -4.6,-0.4 q -1.5,-0.1 -2,-0.75 L 36.9,50.15 34.75,50.5 34.2,50.35 34,51 q -0.5,0.95 -2.5,1.15 l -12.9,1.4 -2.8,-0.05 q -0.7,-0.2 -1.9,-1 L 10.2,50 Q 8.85,49.1 8.45,48.3 8.1,47.5 8.3,46.05 q 0.85,-4.6 0.8,-6.95 0,-2.05 0.2,-2.6 0.55,-1.3 3.2,-2.45 l -0.25,-3.7 q 0,-1.7 0.5,-2.55 0.65,-1.05 2.65,-1.85 l 0.55,-0.2 -0.3,-1.3 q -0.15,-1.05 0.1,-2.3 -1,-0.2 -1.85,-0.7 -1.1,-0.6 -1.8,-1.7 -0.65,-1.05 -0.75,-2.3 0,-0.75 0.15,-1.5 0.15,-1.05 0.6,-1.85 1.4,-3.05 4.7,-3.95 l 1.15,-0.2 q 1.65,-0.1 2.95,0.9 l 1.3,1.35 q 0.55,-0.35 1.15,-0.6 2.65,-1.15 5.6,-1.15 l 1.4,0.05 0.15,-0.25 q 0.8,-0.9 1.65,-1.15 l 0.5,-0.15 Q 34.1,8.75 35.3,9.4 l 1.15,-1 Q 38,7.15 38.95,7.1 40.1,7.05 41.7,8.35 l 4.35,3.5 q 2.3,2.1 3.65,4.15 0.8,1.3 0.75,2.2 l -0.3,1 -0.25,1.05 q -0.1,0.85 0.95,2.2 1.15,1.45 1.25,2.25 0.1,1.05 -1.3,3 M 46.45,17.3 q -1.1,-1.65 -3.95,-3.9 l -3.3,-2.6 q -4,3.15 -8.1,6.85 l 2.5,6.75 0.95,-1.6 2.25,-3 0.45,-0.5 0.8,-0.2 7.4,-0.9 0.95,-0.15 0.45,-0.1 -0.4,-0.65 m 2.05,8.3 0.35,-0.75 -0.25,-0.55 -1,-1.25 -0.35,-0.5 -1.05,0.35 q -3.55,1.75 -5.7,2.55 l 0.55,1.3 0.9,3.2 3.6,-0.1 Q 46.7,27.8 48.5,25.6 m -1.8,-5.9 0.1,-0.45 -4.6,0.6 -3.85,0.45 -0.65,0.15 -0.4,0.4 q -1.7,2.05 -2.65,3.55 l -0.1,0.15 3.8,-0.05 1.45,0.25 0.2,0.1 q 2.2,-1.25 3.4,-1.8 l 3.15,-1.65 0.15,-0.1 v -1.6 m 1.3,18.5 -0.95,-0.1 -5.5,0.2 -1.1,-0.15 -0.35,-0.05 -0.35,0.25 -1.35,1.7 0.65,0.15 3.5,1.15 0.35,0.2 q 0.2,0.2 0.05,0.35 l -0.45,0.05 -4.3,-0.45 -0.55,-0.1 -0.05,0.1 0.2,0.95 1.75,6.1 4.1,0.25 v -6.15 l 0.1,-0.65 0.6,-0.55 q 0.9,-0.45 2.8,-1.05 l 2.65,-0.8 -0.05,-0.05 -1.2,-1 L 48,38.2 m -2.55,10.85 0.6,-0.35 4.35,-3.15 0.4,-0.45 0.05,-0.5 -0.55,-4.05 -0.3,0.05 -3.85,0.95 -1.4,0.7 0.1,3.8 V 49 l 0.6,0.05 M 20.05,24 l 0.45,0.65 0.55,-0.05 0.85,0.45 0.2,0.5 v 0.1 q 1.75,0.5 3.1,-0.4 l 0.7,-0.7 q 0.8,-0.95 0.7,-2.2 0,-1.2 -0.9,-2.1 v -0.1 Q 24.5,19.05 23,19.1 l -0.05,0.35 -0.45,1.45 -0.2,0.4 -1.25,1.35 -0.9,0.35 -0.35,0.1 0.25,0.9 m 2.9,11 q -0.6,-0.35 -1.1,-1.5 l -2.3,-5.2 -3.65,1.7 0.3,4.5 q 0.1,1.2 -0.2,1.75 l -0.2,0.3 v 0.05 l 0.05,0.8 0.25,0.45 1.2,1.75 0.65,1.3 0.2,-0.2 5.6,-5.5 -0.8,-0.2 m -9.05,2.6 -0.55,0.5 -0.2,0.8 -0.85,7.1 0.05,0.8 q 0.15,0.5 1.15,1 1.55,0.85 2.5,1.75 0.55,0.45 0.9,0.55 l 0.25,0.1 q 0.35,-3.55 0.1,-7.15 -0.1,-0.65 0.05,-1.1 L 17.05,41.4 16.8,41.15 16.65,40.8 16.45,40.5 16.2,39.95 15.95,39.6 15.7,39.35 14.8,37.9 14.65,37.35 v -0.1 L 13.9,37.6 m 16.7,0.15 -3.55,-4.2 q -0.3,0.1 -0.65,0.35 -0.85,1.6 -3.4,4.05 l -3.7,3.45 -0.9,1.2 q -0.25,0.55 -0.15,1.55 0.1,2.95 -0.35,6 l 2.2,-0.2 10.8,-1.2 -0.85,-3 q -0.35,-1.1 -0.3,-1.85 l 0.3,-1.2 0.5,-1.1 0.55,-1.9 0.1,-0.95 -0.6,-1 m -2.2,-9.55 0.8,0.1 h 0.65 l 1.05,0.15 0.85,-0.3 0.4,-0.75 -0.25,-0.6 -0.05,-0.45 -0.4,-0.35 -0.05,-0.15 -0.35,-0.6 -0.35,-0.3 -0.45,-0.1 -0.3,0.2 -0.15,0.2 v 0.3 l -0.05,0.4 q -1,0.2 -1.95,0.75 l -0.65,0.6 q -0.3,0.5 0,0.85 l 0.35,0.25 0.9,-0.2"
         fill="#000000"
         fill-rule="evenodd"
         stroke="none"
         id="path5" />
      <path
         d="M 20.05,24 19.8,23.1 20.15,23 21.05,22.65 22.3,21.3 22.5,20.9 22.95,19.45 23,19.1 q 1.5,-0.05 2.7,1.05 v 0.1 q 0.9,0.9 0.9,2.1 0.1,1.25 -0.7,2.2 l -0.7,0.7 q -1.35,0.9 -3.1,0.4 v -0.1 L 21.9,25.05 21.05,24.6 20.5,24.65 20.05,24 m 8.35,4.2 -0.9,0.2 -0.35,-0.25 q -0.3,-0.35 0,-0.85 l 0.65,-0.6 q 0.95,-0.55 1.95,-0.75 l 0.05,-0.4 v -0.3 l 0.15,-0.2 0.3,-0.2 0.45,0.1 0.35,0.3 0.35,0.6 0.05,0.15 0.4,0.35 0.05,0.45 0.25,0.6 -0.4,0.75 -0.85,0.3 -1.05,-0.15 H 29.2 l -0.8,-0.1"
         fill="#ffffff"
         fill-rule="evenodd"
         stroke="none"
         id="path6" />
    </g>
    <g
       id="shape2"
       transform="translate(1.5,1.5)">
      <path
         d="M 0,23.8 V 0 H 64.1 V 23.8 57.55 H 0 Z"
         fill="none"
         stroke="#000000"
         stroke-linecap="round"
         stroke-linejoin="round"
         stroke-width="3"
         id="path7" />
    </g>
  </defs>
</svg>
