<?xml version="1.0" encoding="UTF-8" standalone="no"?>
<svg
   ffdec:objectType="frame"
   height="60.549999"
   width="67.099998"
   version="1.1"
   id="svg8"
   sodipodi:docname="878.svg"
   xmlns:inkscape="http://www.inkscape.org/namespaces/inkscape"
   xmlns:sodipodi="http://sodipodi.sourceforge.net/DTD/sodipodi-0.dtd"
   xmlns:xlink="http://www.w3.org/1999/xlink"
   xmlns="http://www.w3.org/2000/svg"
   xmlns:svg="http://www.w3.org/2000/svg"
   xmlns:ffdec="https://www.free-decompiler.com/flash">
  <sodipodi:namedview
     id="namedview8"
     pagecolor="#ffffff"
     bordercolor="#000000"
     borderopacity="0.25"
     inkscape:showpageshadow="2"
     inkscape:pageopacity="0.0"
     inkscape:pagecheckerboard="0"
     inkscape:deskcolor="#d1d1d1"
     fit-margin-top="5"
     fit-margin-left="5"
     fit-margin-right="5"
     fit-margin-bottom="5" />
  <g
     transform="translate(1.5,1.5)"
     id="g3">
    <use
       ffdec:characterId="516"
       height="57.549999"
       width="64.099998"
       xlink:href="#shape0"
       id="use1" />
    <use
       ffdec:characterId="1344"
       height="56.900002"
       transform="translate(0.55)"
       width="63.700001"
       xlink:href="#shape1"
       id="use2" />
    <use
       ffdec:characterId="518"
       height="60.549999"
       transform="translate(-1.5,-1.5)"
       width="67.099998"
       xlink:href="#shape2"
       id="use3" />
  </g>
  <defs
     id="defs8">
    <g
       id="shape0">
      <path
         d="M 53.6,0 H 64.1 V 57.55 H 53.6 28.25 0 V 0 H 28.25 53.6 V 57.55 0 M 28.25,0 V 57.55 0"
         fill="#ffffff"
         fill-rule="evenodd"
         stroke="none"
         id="path3" />
    </g>
    <g
       id="shape1"
       transform="translate(-0.55)">
      <path
         d="M 64.1,0.05 H 52.35 l -4.8,28.7 -10,-15.75 -7.4,7.8 7,-3.5 9.3,22.2 L 64.1,17.1 V 56.9 H 10.9 l 4.85,-29.25 10,15.75 7.4,-7.8 -7,3.5 -9.3,-22.2 -16.3,20.7 V 0 H 64.1 V 0.05 M 25.75,14.75 25.6,7.9 21.7,3.45 v 5.4 l 4.05,5.9 m 3.85,0.35 4.6,-4.85 7.4,-4.05 -8.2,1.9 -3.8,7 m 7.95,26.55 0.15,6.85 3.9,4.45 v -5.4 l -4.05,-5.9 m -3.85,-0.35 -4.6,4.85 -7.4,4.05 8.2,-1.9 3.8,-7"
         fill="#999999"
         fill-rule="evenodd"
         stroke="none"
         id="path4" />
      <path
         d="m 64.1,0.05 h 0.15 V 16.9 l -0.15,0.2 -17.65,22.4 -9.3,-22.2 -7,3.5 7.4,-7.8 10,15.75 4.8,-28.7 H 64.1 M 10.9,56.9 H 0.55 V 37.6 l 16.3,-20.7 9.3,22.2 7,-3.5 -7.4,7.8 -10,-15.75 L 10.9,56.9 M 25.75,14.75 21.7,8.85 v -5.4 l 3.9,4.45 0.15,6.85 m 3.85,0.35 3.8,-7 8.2,-1.9 -7.4,4.05 -4.6,4.85 m 7.95,26.55 4.05,5.9 v 5.4 L 37.7,48.5 37.55,41.65 m -3.85,-0.35 -3.8,7 -8.2,1.9 7.4,-4.05 4.6,-4.85"
         fill="#ffffff"
         fill-rule="evenodd"
         stroke="none"
         id="path5" />
      <path
         d="m 45.4,26.75 -1.55,-0.7 q -0.45,-0.3 -0.55,-0.9 0,-0.6 0.5,-0.95 l 0.8,-0.35 0.8,-0.4 1.8,-0.1 q 1.1,0.45 1.2,1.6 0.1,1.15 -0.95,1.8 -0.9,0.55 -2.05,0 m -11.5,-2.65 3.85,2.25 q 0.45,0.25 0.9,0.6 l 0.95,0.55 0.4,0.25 0.4,0.25 0.3,0.25 0.15,0.1 0.15,0.15 0.1,0.2 0.15,0.2 0.1,0.15 0.05,0.15 0.1,0.2 v 0.15 l 0.15,0.15 0.1,0.2 0.05,0.15 0.1,0.15 v 0.1 l 0.05,0.15 V 30.6 L 42,30.75 v 0.05 0.15 l -0.05,0.1 v 0.1 0.1 0.15 l -0.05,0.1 v 0.05 l -0.05,0.1 v 0.15 0.1 l -0.05,0.05 -0.05,0.1 -0.05,0.1 -0.05,0.05 -0.05,0.15 -0.05,0.1 -0.05,0.1 -0.05,0.05 -0.05,0.1 v 0.1 l -0.05,0.1 -0.05,0.05 -0.05,0.1 -0.05,0.1 -0.05,0.1 v 0.1 l -0.05,0.1 -0.05,0.15 v 0.05 l -0.05,0.1 -0.05,0.1 -0.05,0.1 -0.05,0.05 -0.05,0.1 -0.05,0.1 -0.05,0.05 -0.05,0.1 -0.05,0.1 -0.05,0.1 -0.05,0.05 -0.05,0.1 -0.05,0.1 -0.05,0.1 -0.05,0.05 -0.05,0.1 -0.05,0.1 -0.05,0.1 -0.05,0.05 -0.05,0.1 -0.05,0.1 -0.05,0.05 -0.05,0.1 -0.05,0.1 -0.05,0.1 -0.05,0.05 -0.05,0.1 -0.05,0.1 -0.05,0.1 -0.05,0.05 -0.05,0.1 -0.05,0.1 -0.05,0.05 -0.05,0.1 -0.05,0.1 -0.05,0.1 -0.05,0.05 -0.05,0.1 -0.05,0.1 -0.05,0.1 -0.05,0.05 -0.05,0.1 -0.05,0.1 -0.05,0.1 -0.05,0.05 -0.05,0.1 -0.1,0.15 -0.05,0.05 -0.05,0.1 v 0.15 l -0.05,0.1 -0.05,0.05 -0.05,0.1 -0.05,0.1 -0.05,0.05 -0.05,0.1 -0.05,0.1 -0.05,0.1 -0.05,0.05 -0.05,0.1 -0.05,0.1 -0.05,0.1 -0.05,0.05 -0.05,0.1 v 0.1 l -0.05,0.1 -0.05,0.05 -0.05,0.1 -0.05,0.1 -0.05,0.05 -0.05,0.1 -0.05,0.1 -0.05,0.1 -0.05,0.05 -0.05,0.1 -0.05,0.1 -0.05,0.1 -0.05,0.05 -0.05,0.1 -0.05,0.1 -0.05,0.05 -0.05,0.1 -0.05,0.1 -0.05,0.1 -0.05,0.05 -0.1,0.1 -0.05,0.1 -0.1,0.05 -0.05,0.05 -0.1,0.1 -0.1,0.05 -0.05,0.1 -0.25,0.3 -0.6,0.35 q -1.25,0.8 -2.3,0.65 -0.7,-0.05 -1.25,-0.6 L 31,41.85 28.85,40.7 27.9,40.15 27.65,40 26.05,39.05 25.75,38.9 24.4,38.1 22,36.65 20.95,36 20.6,35.8 20.3,35.55 19.95,35.3 19.7,35.15 19.6,35 l -0.25,-0.15 -0.2,-0.1 -0.1,-0.15 -0.2,-0.15 -0.2,-0.25 -0.1,-0.2 -0.15,-0.15 -0.1,-0.2 v -0.2 l -0.05,-0.1 -0.05,-0.15 -0.05,-0.15 -0.1,-0.2 v -0.1 L 18,32.6 17.95,32.45 v -0.1 -0.1 L 17.9,32.1 17.95,32 17.9,31.9 17.95,31.8 17.9,31.65 17.95,31.55 18,31.4 v -0.1 l 0.05,-0.1 0.05,-0.05 V 31 l 0.05,-0.1 0.05,-0.1 0.05,-0.05 v -0.1 l 0.05,-0.1 0.1,-0.1 0.05,-0.05 0.05,-0.1 0.05,-0.1 0.05,-0.1 0.05,-0.05 0.05,-0.1 0.05,-0.1 0.05,-0.05 0.05,-0.1 0.05,-0.1 0.05,-0.1 0.05,-0.05 0.05,-0.1 0.05,-0.1 0.05,-0.1 0.05,-0.05 0.05,-0.1 0.05,-0.1 0.05,-0.05 0.05,-0.1 0.05,-0.1 0.05,-0.1 0.05,-0.05 0.05,-0.1 0.05,-0.1 0.05,-0.1 0.05,-0.05 0.05,-0.1 0.05,-0.1 0.05,-0.1 H 20 l 0.05,-0.1 0.05,-0.1 0.05,-0.05 0.05,-0.1 0.05,-0.1 0.05,-0.1 0.05,-0.05 0.1,-0.15 0.05,-0.1 0.05,-0.05 0.05,-0.1 0.05,-0.1 0.05,-0.1 0.05,-0.05 0.05,-0.1 0.05,-0.1 0.05,-0.1 0.05,-0.05 0.05,-0.1 0.05,-0.1 0.05,-0.1 0.05,-0.05 0.05,-0.1 0.05,-0.1 0.05,-0.05 0.05,-0.1 0.05,-0.1 0.05,-0.1 0.05,-0.05 0.05,-0.1 0.05,-0.1 0.05,-0.1 0.05,-0.05 0.05,-0.1 0.05,-0.1 0.05,-0.05 0.05,-0.1 0.05,-0.1 0.05,-0.1 0.05,-0.05 0.05,-0.1 0.05,-0.1 0.1,-0.1 0.05,-0.05 0.05,-0.1 0.05,-0.1 0.05,-0.1 0.05,-0.05 0.05,-0.05 0.05,-0.1 0.05,-0.05 0.05,-0.1 0.05,-0.1 0.05,-0.1 0.05,-0.05 0.05,-0.15 0.05,-0.1 0.05,-0.05 0.05,-0.1 0.05,-0.1 0.05,-0.1 0.05,-0.05 0.05,-0.1 0.05,-0.1 0.1,-0.1 0.05,-0.05 0.05,-0.1 0.05,-0.1 0.1,-0.05 0.05,-0.05 0.05,-0.1 0.05,-0.1 0.05,-0.05 0.05,-0.1 0.1,-0.1 0.1,-0.05 0.05,-0.05 0.05,-0.1 0.05,-0.1 0.1,-0.1 0.05,-0.05 0.1,-0.05 0.05,-0.1 0.1,-0.05 0.05,-0.05 0.1,-0.1 0.1,-0.05 0.1,-0.05 0.1,-0.05 0.15,-0.05 0.1,-0.05 h 0.15 l 0.15,-0.05 0.15,-0.05 0.15,-0.05 0.25,0.05 h 0.2 0.25 l 0.1,0.1 h 0.2 l 0.25,0.15 0.1,0.05 0.05,0.05 h 0.1 l 0.25,0.05 0.15,0.05 0.1,0.05 0.25,-0.5 1.85,-3.05 q 1.15,-2.05 2.2,-2.8 0.65,-0.45 1.5,-0.75 1.3,-0.45 1.75,-0.45 l 3.05,0.15 q 3.4,0.9 4.95,3.3 0.85,1.3 0.9,2.95 0.05,1.6 -0.85,2.85 -0.45,0.65 -1.25,1.1 -1.35,0.55 -2.55,-0.45 -1.1,-0.9 -0.85,-2.35 l 0.15,-1.15 Q 38.85,18.9 37.95,18.6 L 35.1,18.55 Q 34.45,19 33.85,20 l -2.1,2.9 2.15,1.2 m 2.3,7.15 -1,-0.55 -3.85,-2.25 -2.3,-1.3 -1.55,-0.85 -0.15,0.05 h -0.1 l -0.55,0.35 -0.05,0.1 -0.05,0.1 -0.05,0.05 -0.05,0.1 v 0.15 l -0.05,0.1 -0.05,0.05 -0.05,0.1 -0.05,0.1 -0.05,0.1 -0.05,0.05 -0.05,0.1 -0.05,0.1 -0.05,0.1 -0.05,0.05 -0.05,0.1 -0.05,0.1 -0.05,0.05 -0.05,0.1 -0.05,0.15 -0.05,0.05 -0.05,0.1 -0.05,0.1 -0.05,0.1 -0.05,0.05 -0.05,0.1 -0.05,0.1 -0.05,0.1 -0.05,0.05 -0.05,0.1 -0.05,0.1 -0.05,0.1 -0.05,0.05 -0.05,0.1 -0.05,0.1 -0.05,0.05 -0.05,0.1 -0.05,0.1 -0.05,0.1 -0.05,0.05 -0.05,0.1 -0.05,0.1 -0.05,0.1 -0.05,0.05 -0.05,0.1 -0.05,0.1 -0.05,0.1 -0.05,0.05 -0.05,0.1 -0.05,0.1 -0.05,0.05 -0.05,0.1 -0.05,0.1 -0.05,0.1 -0.05,0.05 -0.05,0.1 -0.05,0.1 -0.05,0.05 0.75,0.35 2.45,1.4 1.35,0.8 0.3,0.15 1.6,0.95 0.25,0.15 0.95,0.55 1.75,1 V 37.1 l 0.05,-0.1 0.05,-0.05 0.05,-0.1 0.05,-0.1 0.05,-0.1 0.05,-0.05 0.05,-0.1 0.05,-0.1 0.05,-0.1 0.05,-0.05 0.05,-0.1 0.05,-0.1 0.05,-0.1 0.05,-0.05 0.05,-0.1 0.05,-0.1 0.05,-0.05 0.05,-0.1 0.1,-0.05 0.05,-0.1 0.05,-0.05 0.1,-0.15 0.05,-0.1 0.05,-0.05 0.05,-0.1 0.05,-0.1 0.05,-0.1 0.05,-0.05 0.05,-0.1 0.05,-0.1 0.05,-0.1 0.05,-0.05 0.05,-0.1 0.05,-0.1 0.05,-0.1 0.05,-0.05 0.05,-0.1 0.05,-0.1 0.05,-0.05 0.05,-0.1 0.05,-0.1 0.05,-0.1 0.05,-0.05 0.05,-0.1 0.05,-0.1 0.05,-0.1 0.05,-0.05 0.05,-0.1 0.05,-0.1 0.05,-0.05 0.05,-0.1 0.05,-0.1 0.05,-0.1 0.05,-0.05 0.05,-0.1 0.05,-0.1 0.05,-0.1 0.05,-0.05 0.05,-0.1 0.05,-0.1 0.05,-0.1 0.05,-0.05 0.05,-0.1 0.05,-0.1 0.05,-0.05 -0.4,-0.25 m -6.8,-1 q 0.7,-0.05 1.35,0.4 0.6,0.4 0.75,1.1 0.1,0.8 -0.25,1.35 l -0.95,0.75 -1.25,0.05 q -0.6,-0.2 -0.95,-0.8 -0.35,-0.55 -0.3,-1.15 0.05,-0.65 0.5,-1.15 0.45,-0.45 1.1,-0.55"
         fill="#000000"
         fill-rule="evenodd"
         stroke="none"
         id="path6" />
      <path
         d="m 29.4,30.25 q -0.65,0.1 -1.1,0.55 -0.45,0.5 -0.5,1.15 -0.05,0.6 0.3,1.15 0.35,0.6 0.95,0.8 l 1.25,-0.05 0.95,-0.75 q 0.35,-0.55 0.25,-1.35 -0.15,-0.7 -0.75,-1.1 -0.65,-0.45 -1.35,-0.4 m 6.8,1 0.4,0.25 -0.05,0.05 -0.05,0.1 -0.05,0.1 -0.05,0.05 -0.05,0.1 -0.05,0.1 -0.05,0.1 -0.05,0.05 -0.05,0.1 -0.05,0.1 -0.05,0.1 -0.05,0.05 -0.05,0.1 -0.05,0.1 -0.05,0.1 -0.05,0.05 -0.05,0.1 -0.05,0.1 -0.05,0.05 -0.05,0.1 -0.05,0.1 -0.05,0.1 -0.05,0.05 -0.05,0.1 -0.05,0.1 -0.05,0.1 -0.05,0.05 -0.05,0.1 -0.05,0.1 -0.05,0.05 -0.05,0.1 -0.05,0.1 -0.05,0.1 -0.05,0.05 -0.05,0.1 -0.05,0.1 -0.05,0.1 -0.05,0.05 -0.05,0.1 -0.05,0.1 -0.05,0.1 -0.05,0.05 -0.05,0.1 -0.1,0.15 -0.05,0.05 -0.05,0.1 -0.1,0.05 -0.05,0.1 -0.05,0.05 -0.05,0.1 -0.05,0.1 -0.05,0.05 -0.05,0.1 -0.05,0.1 -0.05,0.1 -0.05,0.05 -0.05,0.1 -0.05,0.1 -0.05,0.1 -0.05,0.05 -0.05,0.1 -0.05,0.1 -0.05,0.1 -0.05,0.05 -0.05,0.1 v 0.05 l -1.75,-1 -0.95,-0.55 -0.25,-0.15 -1.6,-0.95 -0.3,-0.15 -1.35,-0.8 -2.45,-1.4 -0.75,-0.35 0.05,-0.05 0.05,-0.1 0.05,-0.1 0.05,-0.05 0.05,-0.1 0.05,-0.1 0.05,-0.1 0.05,-0.05 0.05,-0.1 0.05,-0.1 0.05,-0.05 0.05,-0.1 0.05,-0.1 0.05,-0.1 0.05,-0.05 0.05,-0.1 0.05,-0.1 0.05,-0.1 0.05,-0.05 0.05,-0.1 0.05,-0.1 0.05,-0.1 0.05,-0.05 0.05,-0.1 0.05,-0.1 0.05,-0.05 0.05,-0.1 0.05,-0.1 0.05,-0.1 0.05,-0.05 0.05,-0.1 0.05,-0.1 0.05,-0.1 0.05,-0.05 0.05,-0.1 0.05,-0.1 0.05,-0.1 0.05,-0.05 0.05,-0.15 0.05,-0.1 0.05,-0.05 0.05,-0.1 0.05,-0.1 0.05,-0.05 0.05,-0.1 0.05,-0.1 0.05,-0.1 0.05,-0.05 0.05,-0.1 0.05,-0.1 0.05,-0.1 0.05,-0.05 0.05,-0.1 v -0.15 l 0.05,-0.1 0.05,-0.05 0.05,-0.1 0.05,-0.1 0.55,-0.35 h 0.1 l 0.15,-0.05 1.55,0.85 2.3,1.3 3.85,2.25 1,0.55"
         fill="#999999"
         fill-rule="evenodd"
         stroke="none"
         id="path7" />
    </g>
    <g
       id="shape2"
       transform="translate(1.5,1.5)">
      <path
         d="M 0,23.8 V 0 H 64.1 V 23.8 57.55 H 0 Z"
         fill="none"
         stroke="#000000"
         stroke-linecap="round"
         stroke-linejoin="round"
         stroke-width="3"
         id="path8" />
    </g>
  </defs>
</svg>
