<?xml version="1.0" encoding="UTF-8" standalone="no"?>
<svg
   ffdec:objectType="frame"
   height="60.549999"
   width="67.099998"
   version="1.1"
   id="svg8"
   sodipodi:docname="373.svg"
   xmlns:inkscape="http://www.inkscape.org/namespaces/inkscape"
   xmlns:sodipodi="http://sodipodi.sourceforge.net/DTD/sodipodi-0.dtd"
   xmlns:xlink="http://www.w3.org/1999/xlink"
   xmlns="http://www.w3.org/2000/svg"
   xmlns:svg="http://www.w3.org/2000/svg"
   xmlns:ffdec="https://www.free-decompiler.com/flash">
  <sodipodi:namedview
     id="namedview8"
     pagecolor="#ffffff"
     bordercolor="#000000"
     borderopacity="0.25"
     inkscape:showpageshadow="2"
     inkscape:pageopacity="0.0"
     inkscape:pagecheckerboard="0"
     inkscape:deskcolor="#d1d1d1"
     fit-margin-top="5"
     fit-margin-left="5"
     fit-margin-right="5"
     fit-margin-bottom="5" />
  <g
     transform="translate(1.5,1.5)"
     id="g3">
    <use
       ffdec:characterId="516"
       height="57.549999"
       width="64.099998"
       xlink:href="#shape0"
       id="use1" />
    <use
       ffdec:characterId="874"
       height="59"
       transform="translate(-0.5)"
       width="65.199997"
       xlink:href="#shape1"
       id="use2" />
    <use
       ffdec:characterId="518"
       height="60.549999"
       transform="translate(-1.5,-1.5)"
       width="67.099998"
       xlink:href="#shape2"
       id="use3" />
  </g>
  <defs
     id="defs8">
    <g
       id="shape0">
      <path
         d="M 53.6,0 H 64.1 V 57.55 H 53.6 28.25 0 V 0 H 28.25 53.6 V 57.55 0 M 28.25,0 V 57.55 0"
         fill="#ffffff"
         fill-rule="evenodd"
         stroke="none"
         id="path3" />
    </g>
    <g
       id="shape1"
       transform="translate(0.5)">
      <path
         d="m 64.1,24.75 v 9.55 l -0.25,-0.15 q -0.8,-0.4 -1.6,0.2 -0.7,0.65 -0.45,1.6 l 0.75,0.8 1.55,-0.1 v 20.9 H 0 V 0 h 64.1 v 24.05 l -0.1,-0.2 -0.25,-0.3 q -0.6,-0.5 -1.3,-0.15 -0.7,0.45 -0.6,1.15 0.1,0.8 0.85,0.95 0.65,0.25 1.2,-0.4 l 0.2,-0.35 M 58.4,43.9 q -0.35,0 -0.65,0.25 L 57.4,44.8 q -0.1,0.95 0.75,1.1 l 0.1,0.1 q 0.7,0.1 1,-0.4 0.45,-0.5 0.2,-1.05 L 59.2,44.2 q -0.3,-0.3 -0.8,-0.3 m 0.8,-18.15 -0.15,0.05 q -1.4,0 -2.1,1.3 -0.7,1.3 0,2.55 0.6,1 1.85,1.25 1.2,0.15 2.1,-0.65 1,-0.85 0.85,-2.3 Q 61.6,27 60.9,26.4 60.15,25.75 59.2,25.75 m 2.65,-4.05 q -0.25,-0.85 -1.2,-1 -0.9,-0.1 -1.45,0.65 -0.45,0.7 -0.05,1.55 0.5,0.85 1.4,0.75 0.95,-0.1 1.3,-1 V 21.7 M 20.5,5.55 28.25,17.75 4.2,6.75 23,22.85 22.95,41.25 3.4,50.35 24.6,47.05 15.15,53.65 34.9,48.9 45,41.95 43.7,25.6 31.95,14.9 20.5,5.55"
         fill="#999999"
         fill-rule="evenodd"
         stroke="none"
         id="path4" />
      <path
         d="m 64.1,24.05 0.05,0.3 -0.05,0.4 -0.2,0.35 q -0.55,0.65 -1.2,0.4 -0.75,-0.15 -0.85,-0.95 -0.1,-0.7 0.6,-1.15 0.7,-0.35 1.3,0.15 l 0.25,0.3 0.1,0.2 m 0,10.25 0.45,0.65 q 0.4,0.85 -0.35,1.6 l -0.1,0.1 -1.55,0.1 -0.75,-0.8 q -0.25,-0.95 0.45,-1.6 0.8,-0.6 1.6,-0.2 L 64.1,34.3 M 61.85,21.7 v 0.95 q -0.35,0.9 -1.3,1 -0.9,0.1 -1.4,-0.75 -0.4,-0.85 0.05,-1.55 0.55,-0.75 1.45,-0.65 0.95,0.15 1.2,1 m -2.65,4.05 q 0.95,0 1.7,0.65 0.7,0.6 0.85,1.55 0.15,1.45 -0.85,2.3 -0.9,0.8 -2.1,0.65 -1.25,-0.25 -1.85,-1.25 -0.7,-1.25 0,-2.55 0.7,-1.3 2.1,-1.3 L 59.2,25.75 M 58.4,43.9 q 0.5,0 0.8,0.3 l 0.25,0.35 q 0.25,0.55 -0.2,1.05 -0.3,0.5 -1,0.4 l -0.1,-0.1 Q 57.3,45.75 57.4,44.8 l 0.35,-0.65 Q 58.05,43.9 58.4,43.9 M 20.5,5.55 31.95,14.9 43.7,25.6 45,41.95 34.9,48.9 15.15,53.65 24.6,47.05 3.4,50.35 22.95,41.25 23,22.85 4.2,6.75 28.25,17.75 20.5,5.55"
         fill="#ffffff"
         fill-rule="evenodd"
         stroke="none"
         id="path5" />
      <path
         d="M 42.35,36.2 Q 42.75,33.05 42,30.75 41.25,28.4 39.55,26.2 l -2.5,-3 H 37 Q 34,23.05 31.05,22 29.15,21.3 27.95,20.35 26.4,19.05 26.1,17.3 25.8,15.7 26.65,14.1 27.4,12.7 28.9,11.85 30.75,10.8 32.6,11.1 l 1.65,0.5 q 2.2,0.85 3.8,2.6 l 0.7,-0.8 q 1.6,-1.6 3.8,-2.25 l -0.05,-0.1 q -1,-2.05 0,-4.75 0.35,-0.9 0.65,-1.25 0.45,-0.7 1.3,-1.1 l 2.85,-0.2 q 1.35,0.45 2.45,1.65 l 0.95,1.4 q 1,1.7 1.4,3.2 l 0.3,1.9 0.25,2.25 0.05,0.15 q 1.35,1.35 2.8,3.25 1.55,2.2 2.15,3.85 l 0.85,3.4 q 0.95,4.75 1.05,7.8 0.2,4.3 -0.9,7.6 -1.75,5.3 -6.95,9.2 -3.05,2.4 -5.95,2.9 l 0.2,0.95 0.2,1.55 -0.35,1.55 -0.2,0.65 q -0.35,1.1 -1.3,1.5 -1.1,0.35 -1.9,-0.35 l -0.3,-0.3 H 42 L 40.8,57.9 39.55,57.75 36.85,58 29.9,58.6 27.75,58.3 27,57.95 26.2,57.9 H 26.05 L 25.4,58.55 Q 24.3,59.3 23.05,58.8 21.8,58.3 21.45,56.95 21.05,55.2 22.6,53 q 2.5,-3.35 8.55,-6.6 3.7,-1.95 5.35,-2 1.6,-0.15 3.55,-2.6 1.9,-2.45 2.3,-5.6 m 11.8,6.95 0.95,-0.65 q 1.3,-1.25 2.15,-2.9 0.95,-1.85 1.2,-3.95 0.2,-2.15 -0.55,-3.8 -0.8,-2 -2.6,-2.9 L 54.6,28.7 54.45,28.1 54.15,27.4 53.1,25.65 q -0.3,-0.5 -0.75,-0.7 l -0.85,0.1 -0.2,0.6 0.15,0.85 0.1,0.55 0.45,2 -0.25,0.15 q -0.75,0.6 -1,1.7 -0.15,1 0.1,2.05 l 0.3,1.05 0.15,1.05 -0.5,1.65 q -0.65,1.55 -0.7,3.35 0,1 0.25,1.45 0.65,1.55 2.65,1.75 l 1.15,-0.1 m -10.15,-22 0.1,0.35 0.45,0.9 1.1,0.7 1.2,1 0.1,0.1 q -0.9,1.4 -1.4,2.75 l -0.1,0.55 q 0.05,0.3 0.35,0.45 l 0.6,0.1 0.65,-0.45 1.5,-1.35 0.8,-0.85 q 0.45,-0.6 0.3,-1.2 l -0.1,-0.35 -0.3,-0.75 -1.05,-0.65 -1.75,-1 q -0.95,-0.6 -1.85,-0.6 -0.45,0 -0.6,0.3 M 57.25,24.4 57.2,23.25 q -0.1,-0.7 -0.4,-1.05 -0.3,-1.3 -1.4,-2.8 l -0.45,-0.55 -1.8,-1.8 q -1.2,-0.8 -2.2,-0.6 -0.55,0 -0.85,0.65 -0.35,0.65 0.1,1.45 l 1.2,1.55 0.95,1.2 1.05,1.65 0.25,0.9 q 0.3,0.9 1.45,1.4 l 1.7,0.05 0.45,-0.9 M 27.55,22.8 31,23.45 q 1.85,0.5 3.4,1.35 1.8,0.7 2.55,1.35 l 1.3,1.4 0.55,0.75 q 1.6,2.15 1.75,5.1 0.2,2.75 -0.9,5.25 -0.8,1.8 -2.15,3 -1.5,1.25 -4.35,2.2 -3.75,1.25 -6.7,1.4 L 25.7,45.35 16.5,44.95 7.35,43.45 0.65,42.8 -0.5,42.65 V 25.6 q 10.45,-2.05 23,-3.05 l 2.3,0.1 2.75,0.15 m 0.9,16.9 q -0.9,1.1 -0.45,2.35 0.25,0.75 0.9,1.2 0.7,0.5 1.5,0.45 0.8,-0.05 1.4,-0.6 0.65,-0.55 0.8,-1.35 0.15,-0.75 -0.2,-1.5 l -1.1,-1.1 -1.5,-0.2 q -0.85,0.15 -1.35,0.75 m 8.3,0.35 0.35,-0.45 Q 38,38.35 37.25,37 36.5,35.6 35,35.6 l -0.1,0.05 h -0.4 l -0.55,0.2 q -0.7,0.3 -1.1,0.95 -0.7,1.1 -0.2,2.35 0.5,1.25 1.8,1.5 1.3,0.3 2.3,-0.6 m -6.35,-8.45 0.95,0.25 0.9,-0.15 1,-0.55 q 0.85,-0.75 1,-1.9 0.1,-1.2 -0.6,-2.05 -0.65,-0.85 -1.9,-1.05 -1.2,-0.1 -2.1,0.65 l -0.45,0.5 q -0.8,1.1 -0.45,2.45 0.4,1.3 1.65,1.85 m 5.65,3.8 1.7,-0.95 0.15,-0.25 q 0.85,-1.35 -0.05,-2.7 L 37,30.65 Q 36.3,30.3 35.7,30.3 l -0.05,0.05 q -1.45,0 -2.2,1.3 -0.7,1.3 0.05,2.5 l 0.2,0.35 q 0.65,0.75 1.7,0.9 h 0.65 M 22.35,31 q -1.55,0.65 -2.2,2.5 -0.45,1.15 -0.3,2.4 0.15,1.3 0.9,2.25 0.75,1 2,1.45 l 2.4,0.05 0.95,-0.45 q 1.65,-0.9 2.4,-2.3 0.85,-1.65 0.25,-3.15 L 28.2,32.8 27.2,31.6 Q 25.6,30.3 23.45,30.65 L 22.35,31"
         fill="#000000"
         fill-rule="evenodd"
         stroke="none"
         id="path6" />
      <path
         d="m 57.25,24.4 -0.45,0.9 -1.7,-0.05 q -1.15,-0.5 -1.45,-1.4 L 53.4,22.95 52.35,21.3 51.4,20.1 50.2,18.55 q -0.45,-0.8 -0.1,-1.45 0.3,-0.65 0.85,-0.65 1,-0.2 2.2,0.6 l 1.8,1.8 0.45,0.55 q 1.1,1.5 1.4,2.8 0.3,0.35 0.4,1.05 l 0.05,1.15 M 44,21.15 q 0.15,-0.3 0.6,-0.3 0.9,0 1.85,0.6 l 1.75,1 1.05,0.65 0.3,0.75 0.1,0.35 q 0.15,0.6 -0.3,1.2 l -0.8,0.85 -1.5,1.35 -0.65,0.45 -0.6,-0.1 Q 45.5,27.8 45.45,27.5 l 0.1,-0.55 q 0.5,-1.35 1.4,-2.75 l -0.1,-0.1 -1.2,-1 -1.1,-0.7 L 44.1,21.5 44,21.15 m 10.15,22 -1.15,0.1 Q 51,43.05 50.35,41.5 50.1,41.05 50.1,40.05 50.15,38.25 50.8,36.7 L 51.3,35.05 51.15,34 50.85,32.95 q -0.25,-1.05 -0.1,-2.05 0.25,-1.1 1,-1.7 l 0.25,-0.15 -0.45,-2 -0.1,-0.55 -0.15,-0.85 0.2,-0.6 0.85,-0.1 q 0.45,0.2 0.75,0.7 l 1.05,1.75 0.3,0.7 0.15,0.6 0.7,0.25 q 1.8,0.9 2.6,2.9 0.75,1.65 0.55,3.8 -0.25,2.1 -1.2,3.95 -0.85,1.65 -2.15,2.9 l -0.95,0.65 M 22.35,31 23.45,30.65 Q 25.6,30.3 27.2,31.6 l 1,1.2 0.55,0.95 q 0.6,1.5 -0.25,3.15 -0.75,1.4 -2.4,2.3 l -0.95,0.45 -2.4,-0.05 Q 21.5,39.15 20.75,38.15 20,37.2 19.85,35.9 19.7,34.65 20.15,33.5 20.8,31.65 22.35,31 m 13.7,4.4 H 35.4 q -1.05,-0.15 -1.7,-0.9 l -0.2,-0.35 q -0.75,-1.2 -0.05,-2.5 0.75,-1.3 2.2,-1.3 L 35.7,30.3 q 0.6,0 1.3,0.35 l 0.85,0.85 q 0.9,1.35 0.05,2.7 l -0.15,0.25 -1.7,0.95 M 30.4,31.6 Q 29.15,31.05 28.75,29.75 28.4,28.4 29.2,27.3 l 0.45,-0.5 q 0.9,-0.75 2.1,-0.65 1.25,0.2 1.9,1.05 0.7,0.85 0.6,2.05 -0.15,1.15 -1,1.9 l -1,0.55 -0.9,0.15 -0.95,-0.25 m 6.35,8.45 q -1,0.9 -2.3,0.6 -1.3,-0.25 -1.8,-1.5 -0.5,-1.25 0.2,-2.35 0.4,-0.65 1.1,-0.95 l 0.55,-0.2 h 0.4 L 35,35.6 q 1.5,0 2.25,1.4 0.75,1.35 -0.15,2.6 l -0.35,0.45 m -8.3,-0.35 q 0.5,-0.6 1.35,-0.75 l 1.5,0.2 1.1,1.1 q 0.35,0.75 0.2,1.5 -0.15,0.8 -0.8,1.35 -0.6,0.55 -1.4,0.6 -0.8,0.05 -1.5,-0.45 Q 28.25,42.8 28,42.05 27.55,40.8 28.45,39.7"
         fill="#ffffff"
         fill-rule="evenodd"
         stroke="none"
         id="path7" />
    </g>
    <g
       id="shape2"
       transform="translate(1.5,1.5)">
      <path
         d="M 0,23.8 V 0 H 64.1 V 23.8 57.55 H 0 Z"
         fill="none"
         stroke="#000000"
         stroke-linecap="round"
         stroke-linejoin="round"
         stroke-width="3"
         id="path8" />
    </g>
  </defs>
</svg>
