<?xml version="1.0" encoding="UTF-8" standalone="no"?>
<svg
   ffdec:objectType="frame"
   height="44.349998"
   width="78.599998"
   version="1.1"
   id="svg14"
   sodipodi:docname="380.svg"
   xmlns:inkscape="http://www.inkscape.org/namespaces/inkscape"
   xmlns:sodipodi="http://sodipodi.sourceforge.net/DTD/sodipodi-0.dtd"
   xmlns:xlink="http://www.w3.org/1999/xlink"
   xmlns="http://www.w3.org/2000/svg"
   xmlns:svg="http://www.w3.org/2000/svg"
   xmlns:ffdec="https://www.free-decompiler.com/flash">
  <sodipodi:namedview
     id="namedview14"
     pagecolor="#ffffff"
     bordercolor="#000000"
     borderopacity="0.25"
     inkscape:showpageshadow="2"
     inkscape:pageopacity="0.0"
     inkscape:pagecheckerboard="0"
     inkscape:deskcolor="#d1d1d1"
     fit-margin-top="5"
     fit-margin-left="5"
     fit-margin-right="5"
     fit-margin-bottom="5" />
  <g
     transform="translate(2,2.05)"
     id="g3">
    <use
       ffdec:characterId="1"
       height="42.700001"
       transform="translate(-1.75,-2)"
       width="76.449997"
       xlink:href="#shape0"
       id="use1" />
    <use
       ffdec:characterId="362"
       height="42.5"
       transform="translate(-1,-0.9)"
       width="76.199997"
       xlink:href="#shape1"
       id="use2" />
    <use
       ffdec:characterId="3"
       height="44.349998"
       transform="translate(-2,-2.05)"
       width="78.599998"
       xlink:href="#shape2"
       id="use3" />
  </g>
  <defs
     id="defs14">
    <g
       id="shape0"
       transform="translate(1.75,2)">
      <path
         d="M 2.8,0 V -0.4 H 5.4 V 0 H 9.7 V 19.45 0 H 20.55 L 19.3,19.45 H 9.7 0.25 V 0 H 2.8"
         fill="#ffffff"
         fill-rule="evenodd"
         stroke="none"
         id="path3" />
      <path
         d="M 0.25,19.45 H 9.7 19.3 L 18.7,28.6 16,28.5 10.95,27.95 9.7,27.8 Q 7.45,27.6 5.85,27.75 4.05,27.9 1.5,28.6 0.75,28.8 0.25,29.15 v -9.7 m 9.45,0 v 8.35 -8.35"
         fill="#121212"
         fill-rule="evenodd"
         stroke="none"
         id="path4" />
      <path
         d="m 9.7,27.8 1.25,0.15 5.05,0.55 2.7,0.1 h 1.05 l 3.75,0.15 q 2.45,0.3 3.6,1.25 0.6,0.5 0.6,1.1 0,0.65 -0.8,1 l -1.3,0.2 -7.15,0.15 -5.6,-0.3 L 9.7,31.75 7.95,31.6 3.1,31.95 0.95,32.3 0.25,32.1 -0.35,31.55 -0.5,31.3 V 29.9 L 0.25,29.15 Q 0.75,28.8 1.5,28.6 4.05,27.9 5.85,27.75 7.45,27.6 9.7,27.8 v 3.95 -3.95"
         fill="#999999"
         fill-rule="evenodd"
         stroke="none"
         id="path5" />
      <path
         d="M 2.8,0 H 0.25 M 9.7,0 H 5.4 m 16.15,0 h 10.7 M 20.55,0 H 9.7"
         fill="none"
         stroke="#666666"
         stroke-linecap="round"
         stroke-linejoin="round"
         stroke-width="4"
         id="path6" />
      <path
         d="m 9.7,-0.4 h 65 V 40.5 H 47.05 L 45.5,40.7 27,40.65 25.95,40.5 H 9.7 -0.5 V -0.4 H 9.7 V 40.5 -0.4"
         fill="#ffffff"
         fill-rule="evenodd"
         stroke="none"
         id="path7" />
    </g>
    <g
       id="shape1"
       transform="translate(1,0.9)">
      <path
         d="M 7.75,40.5 H -0.5 V -0.4 H 74.7 V 40.5 H 62.75 L 64,39.45 q 1.1,-1.2 1.5,-2.8 0.45,-1.8 0.05,-3.5 l 0.15,0.3 0.75,2.3 -0.05,1.35 -0.3,1.3 v 0.3 l 0.25,0.2 q 0.25,0 0.1,-0.25 0.45,-0.1 0.75,-0.95 l 0.7,-2.9 q 0,-1.5 -1.45,-4.4 l -0.6,-0.95 -0.75,-0.7 Q 63.35,27.3 62.15,26.9 l 0.2,-0.55 0.4,-1.65 0.1,-0.75 -0.45,-2.45 -0.2,-0.55 -0.25,-0.25 -0.25,-0.5 -0.45,-0.35 -0.2,0.1 -0.05,0.2 0.15,0.5 0.1,0.2 -0.1,0.25 0.1,0.7 0.1,0.6 -0.1,0.7 -0.2,1.1 Q 60.8,22.55 60.1,21.35 l -0.9,-1.3 q 1.3,-2.15 1.65,-4 L 60.9,15.2 60.55,12.8 q -0.15,-0.95 -0.5,-1.6 l -1.3,-2.5 -0.3,-0.25 q -0.3,-0.1 -0.3,0.25 l 0.05,0.45 0.65,1.6 0.1,0.6 0.05,1.5 v 0.2 L 58.25,11.35 56.85,9.4 Q 54.75,7.05 52.15,6.2 L 50.3,5.85 Q 50.2,3.3 49,2.3 L 47.8,1.5 47.4,1.3 Q 47.15,1.2 47,1.45 46.85,1.7 47.25,2.1 l 1.05,1.6 0.05,0.1 Q 47.25,2.85 45.9,2.25 43.7,1.3 41.3,1.4 40,1.5 38.95,1.9 37.7,2.45 36.75,3.5 35.8,2.45 34.55,1.9 L 32.2,1.4 Q 29.8,1.3 27.6,2.25 26,2.95 24.85,4.05 L 24.95,3.85 25.2,3.4 25.4,3.15 25.55,2.9 Q 25.7,2.55 26,2.35 L 27.2,1.5 Q 27.3,1.15 27,1.05 q -0.2,0 -0.45,0.15 l -0.8,0.5 -0.25,0.2 -0.45,0.25 -0.9,0.8 -0.75,1 -0.55,1.25 -0.15,0.7 -1.35,0.3 q -2.6,0.85 -4.7,3.2 l -1.4,1.95 q -0.6,1.1 -0.9,2.35 0,-1.25 0.4,-2.35 l 1,-2.2 L 15.9,8.7 15.2,8.65 Q 14.35,9 13.55,9.95 l -1.1,2 -0.6,2.6 q -0.3,2.55 0.45,4 l 0.8,1.15 0.25,0.3 H 13.3 l -1.1,0.95 -0.25,0.3 L 11.1,22.7 11,23 10.8,24.35 v 0.35 1.15 l 0.2,0.5 q 0.3,0.3 0.55,0 L 11.6,26 v -0.8 l 0.1,-0.65 q 0.15,-0.45 0.8,-1.35 l 0.25,-0.3 q -0.25,0.75 -0.35,1.65 l -0.1,1.05 0.2,1.45 Q 10.3,28.4 9.05,30.45 7.2,33.5 8,36.65 l 0.35,1 L 8.1,37.45 7.35,36.2 7.05,35.4 7,34.3 l 0.2,-2.05 0.15,-0.6 0.3,-0.6 0.4,-1 0.2,-0.2 V 29.6 l -0.4,0.1 -0.9,1.05 Q 5.25,32.85 5,35.5 l -0.05,0.75 0.2,0.7 0.4,1.15 q 0.6,1.45 2,2.3 l 0.2,0.1 M 48,40.5 H 25.5 l 1.2,-0.75 q 0.75,-0.6 1.75,-2.3 l 2.95,-5.5 q 0.75,-1.6 0.7,-3 -0.2,-1.9 -1.65,-2.45 0,-1.45 -1.25,-2.2 L 28.15,23.8 Q 27.2,22.6 26.5,22.55 26.15,21 24.8,20.45 l 1.45,-3.5 q 0.95,0.35 1.9,-0.6 l 0.75,-0.8 q 0.45,-0.45 0.85,-0.65 0.45,-0.25 1.4,-0.5 0.9,-0.4 2.1,-2 l 1.15,-1.5 0.2,1.3 0.35,1.05 1.55,-1.35 0.25,-0.35 0.25,0.35 q 0.7,1 1.55,1.35 l 0.35,-1.05 0.25,-1.3 1.1,1.5 q 1.2,1.6 2.1,2 l 1.4,0.5 0.85,0.65 0.75,0.8 q 0.95,0.95 1.9,0.6 0.55,1.8 1.45,3.5 -1.35,0.55 -1.7,2.1 -0.7,0.05 -1.65,1.25 l -1.05,0.5 q -1.25,0.75 -1.25,2.2 -1.45,0.55 -1.65,2.45 -0.05,1.4 0.7,3 0.85,2.05 2.95,5.5 1,1.7 1.75,2.3 L 48,40.5 m 9.65,-4.05 0.15,-0.55 0.45,-0.2 0.4,-0.3 0.55,-0.05 1.1,-0.4 q 0.1,0.3 -0.2,0.8 l -0.35,0.45 -0.25,0.1 -0.4,0.1 -1.45,0.05 M 10.1,7.9 l 0.35,0.15 0.05,0.1 q 0.55,0.8 1.4,0.55 L 12.5,8.4 13,7.95 13.2,7.7 13.5,7.45 13.9,6.85 14.65,6.5 15.1,5.8 Q 15.45,4.95 15.2,4.35 L 14.9,3.95 Q 15.05,3.8 14.8,3.8 14.3,3.45 13.8,3.4 l -0.05,0.05 -0.6,0.15 -0.9,0.7 h -0.5 l -0.3,0.1 q 0,-0.6 -0.35,-0.9 L 10.55,3.35 10.5,3.2 10.1,3 Q 9.9,3 9.75,3.15 H 9.7 Q 9.3,3.2 9.2,3.85 L 9.15,5.9 9.35,7.05 9.85,7.7 10.1,7.9 M 4.4,2.75 4.05,3.1 3.25,4.7 3.15,5.25 3.55,5.6 q 0.35,0 0.5,-0.2 L 3.95,9.25 H 3.8 Q 2.8,9.35 2.6,10 2.45,10.5 3,10.95 l 1,0.3 h 1.1 l 1.25,0.05 q 0.7,-0.2 0.8,-0.95 0.1,-0.8 -0.6,-1.05 L 6.35,9.25 V 8.6 L 6.25,4.25 6.35,3.25 6.2,2.6 Q 6,2.3 5.65,2.2 L 4.95,2.25 4.6,2.45 4.4,2.75 M 15.85,36.45 14.4,36.4 14,36.3 13.75,36.2 13.4,35.75 q -0.3,-0.5 -0.2,-0.8 l 1.1,0.4 0.55,0.05 0.4,0.3 0.45,0.2 0.15,0.55"
         fill="#999999"
         fill-rule="evenodd"
         stroke="none"
         id="path8" />
      <path
         d="m 62.75,40.5 q -0.65,0.45 -1.4,0.7 L 57.7,41.6 50.55,41.25 48,40.5 46.8,39.75 q -0.75,-0.6 -1.75,-2.3 -2.1,-3.45 -2.95,-5.5 -0.75,-1.6 -0.7,-3 0.2,-1.9 1.65,-2.45 0,-1.45 1.25,-2.2 l 1.05,-0.5 q 0.95,-1.2 1.65,-1.25 0.35,-1.55 1.7,-2.1 -0.9,-1.7 -1.45,-3.5 -0.95,0.35 -1.9,-0.6 l -0.75,-0.8 -0.85,-0.65 -1.4,-0.5 q -0.9,-0.4 -2.1,-2 l -1.1,-1.5 -0.25,1.3 -0.35,1.05 Q 37.7,12.9 37,11.9 L 36.75,11.55 36.5,11.9 34.95,13.25 34.6,12.2 34.4,10.9 33.25,12.4 q -1.2,1.6 -2.1,2 -0.95,0.25 -1.4,0.5 -0.4,0.2 -0.85,0.65 l -0.75,0.8 q -0.95,0.95 -1.9,0.6 l -1.45,3.5 q 1.35,0.55 1.7,2.1 0.7,0.05 1.65,1.25 l 1.05,0.5 q 1.25,0.75 1.25,2.2 1.45,0.55 1.65,2.45 0.05,1.4 -0.7,3 l -2.95,5.5 q -1,1.7 -1.75,2.3 l -1.2,0.75 -2.55,0.75 -7.15,0.35 -3.65,-0.4 -1.2,-0.55 -0.8,0.3 Q 9,41.2 7.75,40.5 l -0.2,-0.1 q -1.4,-0.85 -2,-2.3 L 5.15,36.95 4.95,36.25 5,35.5 q 0.25,-2.65 1.95,-4.75 l 0.9,-1.05 0.4,-0.1 v 0.25 l -0.2,0.2 -0.4,1 -0.3,0.6 -0.15,0.6 -0.2,2.05 0.05,1.1 0.3,0.8 0.75,1.25 0.25,0.2 -0.35,-1 Q 7.2,33.5 9.05,30.45 10.3,28.4 12.5,27.05 l -0.2,-1.45 0.1,-1.05 q 0.1,-0.9 0.35,-1.65 l -0.25,0.3 q -0.65,0.9 -0.8,1.35 L 11.6,25.2 V 26 l -0.05,0.35 q -0.25,0.3 -0.55,0 l -0.2,-0.5 V 24.7 24.35 L 11,23 11.1,22.7 11.95,21.25 12.2,20.95 13.3,20 h 0.05 L 13.1,19.7 12.3,18.55 q -0.75,-1.45 -0.45,-4 l 0.6,-2.6 1.1,-2 Q 14.35,9 15.2,8.65 l 0.7,0.05 -0.15,0.45 -1,2.2 q -0.4,1.1 -0.4,2.35 0.3,-1.25 0.9,-2.35 l 1.4,-1.95 q 2.1,-2.35 4.7,-3.2 l 1.35,-0.3 0.15,-0.7 0.55,-1.25 0.75,-1 0.9,-0.8 0.45,-0.25 0.25,-0.2 0.8,-0.5 Q 26.8,1.05 27,1.05 27.3,1.15 27.2,1.5 L 26,2.35 Q 25.7,2.55 25.55,2.9 L 25.4,3.15 25.2,3.4 24.95,3.85 24.85,4.05 Q 26,2.95 27.6,2.25 29.8,1.3 32.2,1.4 l 2.35,0.5 q 1.25,0.55 2.2,1.6 0.95,-1.05 2.2,-1.6 1.05,-0.4 2.35,-0.5 2.4,-0.1 4.6,0.85 1.35,0.6 2.45,1.55 L 48.3,3.7 47.25,2.1 Q 46.85,1.7 47,1.45 47.15,1.2 47.4,1.3 l 0.4,0.2 1.2,0.8 q 1.2,1 1.3,3.55 l 1.85,0.35 q 2.6,0.85 4.7,3.2 l 1.4,1.95 0.75,1.7 v -0.2 l -0.05,-1.5 -0.1,-0.6 L 58.2,9.15 58.15,8.7 q 0,-0.35 0.3,-0.25 l 0.3,0.25 1.3,2.5 q 0.35,0.65 0.5,1.6 l 0.35,2.4 -0.05,0.85 q -0.35,1.85 -1.65,4 l 0.9,1.3 q 0.7,1.2 0.95,2.85 l 0.2,-1.1 0.1,-0.7 -0.1,-0.6 -0.1,-0.7 0.1,-0.25 -0.1,-0.2 -0.15,-0.5 0.05,-0.2 0.2,-0.1 0.45,0.35 0.25,0.5 0.25,0.25 0.2,0.55 0.45,2.45 -0.1,0.75 -0.4,1.65 -0.2,0.55 q 1.2,0.4 2.95,1.85 l 0.75,0.7 0.6,0.95 q 1.45,2.9 1.45,4.4 l -0.7,2.9 q -0.3,0.85 -0.75,0.95 0.15,0.25 -0.1,0.25 L 66.1,38.7 v -0.3 l 0.3,-1.3 0.05,-1.35 -0.75,-2.3 -0.15,-0.3 q 0.4,1.7 -0.05,3.5 -0.4,1.6 -1.5,2.8 l -1.25,1.05 m -5.1,-4.05 1.45,-0.05 0.4,-0.1 0.25,-0.1 0.35,-0.45 q 0.3,-0.5 0.2,-0.8 l -1.1,0.4 -0.55,0.05 -0.4,0.3 -0.45,0.2 -0.15,0.55 M 10.1,7.9 9.85,7.7 9.35,7.05 9.15,5.9 9.2,3.85 Q 9.3,3.2 9.7,3.15 H 9.75 Q 9.9,3 10.1,3 l 0.4,0.2 0.05,0.15 0.55,0.15 q 0.35,0.3 0.35,0.9 l 0.3,-0.1 h 0.5 l 0.9,-0.7 0.6,-0.15 0.05,-0.05 q 0.5,0.05 1,0.4 0.25,0 0.1,0.15 l 0.3,0.4 q 0.25,0.6 -0.1,1.45 L 14.65,6.5 13.9,6.85 13.5,7.45 13.2,7.7 13,7.95 12.5,8.4 11.9,8.7 Q 11.05,8.95 10.5,8.15 L 10.45,8.05 10.1,7.9 m 5.75,28.55 -0.15,-0.55 -0.45,-0.2 -0.4,-0.3 -0.55,-0.05 -1.1,-0.4 q -0.1,0.3 0.2,0.8 l 0.35,0.45 0.25,0.1 0.4,0.1 1.45,0.05"
         fill="#ffffff"
         fill-rule="evenodd"
         stroke="none"
         id="path9" />
      <path
         d="M 4.4,2.75 4.6,2.45 4.95,2.25 5.65,2.2 Q 6,2.3 6.2,2.6 l 0.15,0.65 -0.1,1 0.1,4.35 v 0.65 l 0.2,0.05 q 0.7,0.25 0.6,1.05 -0.1,0.75 -0.8,0.95 L 5.1,11.25 H 4 L 3,10.95 Q 2.45,10.5 2.6,10 2.8,9.35 3.8,9.25 H 3.95 L 4.05,5.4 Q 3.9,5.6 3.55,5.6 L 3.15,5.25 3.25,4.7 4.05,3.1 4.4,2.75"
         fill="#000000"
         fill-rule="evenodd"
         stroke="none"
         id="path10" />
      <path
         d="M 7.75,40.5 H -0.5 V -0.4 H 74.7 V 40.5 H 62.75 M 48,40.5 H 25.5"
         fill="none"
         stroke="#8c5a5a"
         stroke-linecap="round"
         stroke-linejoin="round"
         stroke-width="1"
         id="path11" />
      <path
         d="M 28.25,28.6 Q 24.6,25.9 23.6,21.55 l -0.2,-1.3 Q 20.95,19.1 19.9,18 18.35,16.45 18.8,15 19.05,14.2 20.05,13.35 21.55,12.1 25.65,9.8 26.7,9.25 27.3,9 L 27.55,8.7 Q 29.75,6.45 32.65,5.35 34.3,4.7 36,4.6 h 1.75 q 1.65,0.1 3.3,0.75 2.9,1.1 5.1,3.35 L 46.4,9 48.05,9.8 q 4.1,2.3 5.6,3.55 1,0.85 1.25,1.65 0.45,1.45 -1.1,3 -1.05,1.1 -3.5,2.25 l -0.2,1.3 q -1,4.35 -4.65,7.05 l -1.6,1 q 4.65,1.85 9.75,2.95 0.2,-1.3 1.35,-2.2 1.15,-0.9 2.5,-0.9 1.3,0 2.45,0.8 1.15,0.8 1.75,2.05 0.45,1 0.45,2.15 -0.05,1.05 -0.65,2 l -1.55,1.45 -2.65,0.45 q -3.75,-0.05 -7.85,-2 l -2.9,-1.55 0.4,0.7 1,2.6 0.35,1.55 v 0.3 H 25.5 l -0.05,-0.3 q 0,-0.4 0.35,-1.55 l 1,-2.6 0.4,-0.7 -2.9,1.55 q -4.1,1.95 -7.85,2 L 13.8,37.9 q -0.95,-0.5 -1.55,-1.45 -0.6,-0.95 -0.65,-2 0,-1.15 0.45,-2.15 0.6,-1.25 1.75,-2.05 1.15,-0.8 2.45,-0.8 1.35,0 2.5,0.9 1.15,0.9 1.35,2.2 5.1,-1.1 9.75,-2.95 l -1.6,-1 m 0.05,-7 1.4,0.15 1.2,-0.1 q 0.7,-0.2 1.7,-1.2 l 0.4,-0.55 0.3,-0.8 0.2,-0.7 -1.25,-0.35 q -1.05,-0.5 -1.9,-1.6 l -1.2,-2.05 h -0.2 l -0.9,0.3 q -1.85,0.75 -2.2,2.75 -0.35,2 1.2,3.3 l 0.65,0.5 0.6,0.35 m 9.3,6.8 0.7,0.2 0.85,0.45 1.05,0.4 q 0.85,0.1 1.55,-0.45 0.65,-0.55 0.65,-1.45 L 42.25,26.4 41.5,23.8 q -0.75,-2.25 -1.95,-3.1 l -1.1,-0.5 -0.05,-0.85 q -0.2,-0.55 -0.6,-0.7 -0.6,-0.25 -1.05,0.25 -0.4,0.35 -0.4,1.05 l 0.05,0.3 -0.5,0.15 q -1.75,0.65 -2.8,2.45 -0.85,1.4 -1.3,3.55 -0.3,1.4 0.15,2.05 l 0.9,0.7 1.1,-0.1 0.95,-0.65 q 0.9,-0.5 2.7,0 m 8.85,-8.35 -0.25,-0.7 -0.1,-0.45 -0.15,-0.6 0.1,-0.1 0.7,-0.45 0.3,-0.55 q 0.3,-0.75 -0.2,-1.3 -0.4,-0.65 -1.2,-0.55 -0.55,0.05 -1.05,0.6 L 44.55,15.9 43.9,15.15 Q 43.55,14.9 43.1,14.9 l -0.8,0.3 q -0.8,0.6 -0.45,1.55 l 0.35,0.6 0.4,0.55 -0.75,0.6 -0.2,0.35 -0.5,0.4 q -0.45,0.55 -0.4,1 0.1,0.55 0.65,0.65 0.45,0.15 0.9,-0.2 l 0.45,-0.35 0.4,-0.2 0.8,-0.5 0.05,0.1 0.8,0.75 0.3,0.3 0.95,0.05 q 0.5,-0.3 0.4,-0.8 M 12.15,2.7 q 0.5,-0.35 1.75,-0.35 l 0.75,0.05 0.6,0.35 0.3,0.35 0.2,0.4 0.35,1 v 0.6 0.5 q -0.15,1 -0.75,1.75 L 14.7,8 13.15,9.1 12.65,9.7 12.45,9.95 12.1,10.3 11.6,10.35 11.1,10.3 10.75,9.95 10.55,9.7 10.05,9.1 8.5,8 7.85,7.35 Q 7.25,6.6 7.1,5.6 V 5.1 4.5 L 7.45,3.5 7.65,3.1 7.95,2.75 8.55,2.4 9.3,2.35 q 1.25,0 1.75,0.35 l 0.55,0.6 0.55,-0.6 m 0.5,4.5 1.3,-1.05 0.5,-0.9 -0.25,-1.2 Q 13.2,3.8 12.55,4.7 l -0.1,0.2 -0.3,0.55 Q 11.9,5.75 11.6,5.7 L 11.05,5.45 10.75,4.9 10.65,4.7 Q 10,3.8 9,4.05 8.65,4.65 8.75,5.25 l 0.5,0.9 1.3,1.05 1.05,0.9 1.05,-0.9"
         fill="#000000"
         fill-rule="evenodd"
         stroke="none"
         id="path12" />
      <path
         d="m 46.45,20.05 q 0.1,0.5 -0.4,0.8 L 45.1,20.8 44.8,20.5 44,19.75 l -0.05,-0.1 -0.8,0.5 -0.4,0.2 -0.45,0.35 q -0.45,0.35 -0.9,0.2 -0.55,-0.1 -0.65,-0.65 -0.05,-0.45 0.4,-1 l 0.5,-0.4 0.2,-0.35 0.75,-0.6 -0.4,-0.55 -0.35,-0.6 Q 41.5,15.8 42.3,15.2 l 0.8,-0.3 q 0.45,0 0.8,0.25 l 0.65,0.75 0.05,0.05 q 0.5,-0.55 1.05,-0.6 0.8,-0.1 1.2,0.55 0.5,0.55 0.2,1.3 l -0.3,0.55 -0.7,0.45 -0.1,0.1 0.15,0.6 0.1,0.45 0.25,0.7 M 37.6,28.4 q -1.8,-0.5 -2.7,0 l -0.95,0.65 -1.1,0.1 -0.9,-0.7 Q 31.5,27.8 31.8,26.4 q 0.45,-2.15 1.3,-3.55 1.05,-1.8 2.8,-2.45 l 0.5,-0.15 -0.05,-0.3 q 0,-0.7 0.4,-1.05 0.45,-0.5 1.05,-0.25 0.4,0.15 0.6,0.7 l 0.05,0.85 1.1,0.5 q 1.2,0.85 1.95,3.1 l 0.75,2.6 0.15,1.15 q 0,0.9 -0.65,1.45 -0.7,0.55 -1.55,0.45 L 39.15,29.05 38.3,28.6 37.6,28.4 m -9.3,-6.8 -0.6,-0.35 -0.65,-0.5 q -1.55,-1.3 -1.2,-3.3 0.35,-2 2.2,-2.75 l 0.9,-0.3 h 0.2 l 1.2,2.05 q 0.85,1.1 1.9,1.6 l 1.25,0.35 -0.2,0.7 -0.3,0.8 -0.4,0.55 q -1,1 -1.7,1.2 l -1.2,0.1 -1.4,-0.15"
         fill="#ffffff"
         fill-rule="evenodd"
         stroke="none"
         id="path13" />
    </g>
    <g
       id="shape2"
       transform="translate(2,2.05)">
      <path
         d="M -0.5,-0.4 V -0.55 H 75.1 V -0.4 40.8 H -0.5 Z"
         fill="none"
         stroke="#000000"
         stroke-linecap="round"
         stroke-linejoin="round"
         stroke-width="3"
         id="path14" />
    </g>
  </defs>
</svg>
