<?xml version="1.0" encoding="UTF-8" standalone="no"?>
<svg
   ffdec:objectType="frame"
   height="44.349998"
   width="78.599998"
   version="1.1"
   id="svg14"
   sodipodi:docname="126.svg"
   xmlns:inkscape="http://www.inkscape.org/namespaces/inkscape"
   xmlns:sodipodi="http://sodipodi.sourceforge.net/DTD/sodipodi-0.dtd"
   xmlns:xlink="http://www.w3.org/1999/xlink"
   xmlns="http://www.w3.org/2000/svg"
   xmlns:svg="http://www.w3.org/2000/svg"
   xmlns:ffdec="https://www.free-decompiler.com/flash">
  <sodipodi:namedview
     id="namedview14"
     pagecolor="#ffffff"
     bordercolor="#000000"
     borderopacity="0.25"
     inkscape:showpageshadow="2"
     inkscape:pageopacity="0.0"
     inkscape:pagecheckerboard="0"
     inkscape:deskcolor="#d1d1d1"
     fit-margin-top="5"
     fit-margin-left="5"
     fit-margin-right="5"
     fit-margin-bottom="5" />
  <g
     transform="translate(2,2.05)"
     id="g3">
    <use
       ffdec:characterId="1"
       height="42.700001"
       transform="translate(-1.75,-2)"
       width="76.449997"
       xlink:href="#shape0"
       id="use1" />
    <use
       ffdec:characterId="127"
       height="40.700001"
       transform="translate(-1.55,1.55)"
       width="65.150002"
       xlink:href="#shape1"
       id="use2" />
    <use
       ffdec:characterId="3"
       height="44.349998"
       transform="translate(-2,-2.05)"
       width="78.599998"
       xlink:href="#shape2"
       id="use3" />
  </g>
  <defs
     id="defs14">
    <g
       id="shape0"
       transform="translate(1.75,2)">
      <path
         d="M 2.8,0 V -0.4 H 5.4 V 0 H 9.7 V 19.45 0 H 20.55 L 19.3,19.45 H 9.7 0.25 V 0 H 2.8"
         fill="#ffffff"
         fill-rule="evenodd"
         stroke="none"
         id="path3" />
      <path
         d="M 0.25,19.45 H 9.7 19.3 L 18.7,28.6 16,28.5 10.95,27.95 9.7,27.8 Q 7.45,27.6 5.85,27.75 4.05,27.9 1.5,28.6 0.75,28.8 0.25,29.15 v -9.7 m 9.45,0 v 8.35 -8.35"
         fill="#121212"
         fill-rule="evenodd"
         stroke="none"
         id="path4" />
      <path
         d="m 9.7,27.8 1.25,0.15 5.05,0.55 2.7,0.1 h 1.05 l 3.75,0.15 q 2.45,0.3 3.6,1.25 0.6,0.5 0.6,1.1 0,0.65 -0.8,1 l -1.3,0.2 -7.15,0.15 -5.6,-0.3 L 9.7,31.75 7.95,31.6 3.1,31.95 0.95,32.3 0.25,32.1 -0.35,31.55 -0.5,31.3 V 29.9 L 0.25,29.15 Q 0.75,28.8 1.5,28.6 4.05,27.9 5.85,27.75 7.45,27.6 9.7,27.8 v 3.95 -3.95"
         fill="#999999"
         fill-rule="evenodd"
         stroke="none"
         id="path5" />
      <path
         d="M 2.8,0 H 0.25 M 9.7,0 H 5.4 m 16.15,0 h 10.7 M 20.55,0 H 9.7"
         fill="none"
         stroke="#666666"
         stroke-linecap="round"
         stroke-linejoin="round"
         stroke-width="4"
         id="path6" />
      <path
         d="m 9.7,-0.4 h 65 V 40.5 H 47.05 L 45.5,40.7 27,40.65 25.95,40.5 H 9.7 -0.5 V -0.4 H 9.7 V 40.5 -0.4"
         fill="#ffffff"
         fill-rule="evenodd"
         stroke="none"
         id="path7" />
    </g>
    <g
       id="shape1"
       transform="translate(1.55,-1.55)">
      <path
         d="m -1.45,22.4 q 0.05,-1.5 1.3,-3.35 l -0.8,-0.85 -0.4,-0.75 -0.05,-0.4 0.05,-0.25 0.5,-1.05 q 0.4,-0.5 1.05,-0.5 l 1.3,0.1 0.5,-0.05 0.55,0.05 0.5,0.15 0.9,-0.55 0.9,-0.6 L 5.4,14.1 Q 6.35,13.65 7.2,13.7 L 7.45,13.45 8.7,12.4 9.15,12.1 q 0.25,-0.15 0.5,-0.15 h 1 q 0.55,0.2 0.75,0.55 l 0.35,0.95 0.2,0.35 0.15,0.5 0.25,1.4 v 0.05 l 0.8,0.8 0.7,1.1 0.6,1.7 0.2,1.2 0.05,0.65 4.35,-7.4 q 0.65,-1.2 1.3,-1.85 0.9,-0.95 2,-1.1 0.65,-0.1 1,0.25 0.35,0.4 0.25,1.1 l -0.1,0.9 0.4,-0.05 5.3,-4.6 q 3.1,-2.55 5.85,-3.9 2.35,-1.3 3.85,-0.6 1.1,0.5 1.4,1.75 0.35,1.25 -0.3,2.25 -0.5,0.8 -2.45,2.05 -2.3,1.4 -5.3,3.95 l -5.05,4.4 -7.9,6 -2.75,2.95 -2.6,2.55 0.5,1.1 1.2,2.8 0.5,2.4 0.65,1.75 q 0.35,1.05 0.3,1.75 -0.05,0.85 -0.6,1.55 l -1.4,0.9 -1.6,-0.1 -1.05,-0.65 -0.55,0.4 -1.6,0.4 -1.75,0.05 H 6.85 Q 5.9,42.05 5.4,41.45 4.4,41.2 4.15,40.15 v -1 L 4.25,38.2 3.9,38.4 2.25,39.1 1.45,39 0.75,38.95 0.2,38.8 -0.65,38.25 q -0.6,-0.55 -0.85,-1.4 l 0.15,-1.45 q 0.3,-0.95 1.05,-1.55 L 0.35,33.4 1,33.15 q 0.65,-0.15 1.25,0 l 1,0.3 0.25,-0.3 1.45,-2 L 5.2,29.8 2.85,29.25 1.35,28.6 Q 0.4,27.95 -0.4,26.1 -1.45,23.8 -1.45,22.4 m 10.7,-4 -0.05,0.5 -0.3,1.25 -1.1,1.85 -0.3,0.45 1.15,1 1.6,0.25 q 0.8,-0.1 1.4,-0.7 0.6,-0.6 0.8,-1.4 0.2,-0.8 -0.15,-1.55 -0.3,-0.8 -1,-1.25 -0.65,-0.45 -1.5,-0.45 L 9.25,18.4 M 4.3,24.2 2.45,24.15 1.3,23.5 0.85,22.8 0.4,23.1 q -0.6,0.55 -0.75,1.4 -0.15,0.85 0.25,1.55 0.4,0.7 1.15,1.05 l 1.6,0.1 Q 3.45,27 3.95,26.3 4.45,25.6 4.4,24.75 L 4.3,24.2"
         fill="#999999"
         fill-rule="evenodd"
         stroke="none"
         id="path8" />
      <path
         d="M 9.25,18.4 9.8,18.35 q 0.85,0 1.5,0.45 0.7,0.45 1,1.25 0.35,0.75 0.15,1.55 -0.2,0.8 -0.8,1.4 -0.6,0.6 -1.4,0.7 L 8.65,23.45 7.5,22.45 7.8,22 8.9,20.15 9.2,18.9 9.25,18.4 M 4.3,24.2 4.4,24.75 Q 4.45,25.6 3.95,26.3 3.45,27 2.65,27.2 L 1.05,27.1 Q 0.3,26.75 -0.1,26.05 -0.5,25.35 -0.35,24.5 -0.2,23.65 0.4,23.1 l 0.45,-0.3 0.45,0.7 1.15,0.65 1.85,0.05"
         fill="#ffffff"
         fill-rule="evenodd"
         stroke="none"
         id="path9" />
      <path
         d="m 43.65,4.3 -1.1,0.25 -0.6,0.6 -0.5,0.65 Q 41,6.2 40.35,6.25 L 39.25,6 38.25,5.2 37.1,5 Q 27.75,4.7 22.5,5.2 l -3.7,0.2 q 1.1,3.7 1.6,7.9 l 0.3,1.5 0.9,1.35 0.5,0.9 0.55,0.95 0.2,0.9 -0.75,0.75 -1.3,0.5 0.65,6.95 0.05,2.9 q -0.2,1.5 -1.25,3.55 l -1.45,3 8.6,-0.45 Q 36,35.75 45,36.35 h 1.15 L 46.45,36 47.4,34.95 q 0.45,-0.65 0.75,-0.75 h 0.9 l 0.95,-0.15 0.9,0.1 -0.15,0.45 -0.55,0.2 Q 49.55,35 49,35.7 l 1.15,0.25 1.85,0.15 1.5,0.15 1.4,0.05 1.7,0.15 2.6,-4.45 q 1.55,-2.65 1.85,-4.7 l 0.15,-1.7 0.05,-1.75 0.35,-3.35 q 0.05,-1.8 -0.3,-4.6 L 60.8,11.7 Q 60.6,9.45 60.2,8 L 59.45,5.95 58.65,4 51.25,3.7 h -0.2 l -7.4,0.6 M 37.5,2.25 39.15,2.5 q 1,0.4 1.05,1.2 l 0.55,-0.85 q 0.35,-0.6 1.6,-0.6 h 9.4 L 58.6,1.55 60,1.8 q 0.4,0.3 0.85,1.6 l 1.45,3.45 q 0.35,0.95 0.7,3.8 l 0.45,4.85 q 0.4,6.1 -0.2,11.85 l -0.35,2.25 -1.15,2.55 -2.65,4.9 q -0.7,1.25 -1.4,1.5 l -1.35,0.1 -2.25,-0.15 -0.9,-0.15 -1.2,0.05 -2.4,-0.3 -1.05,-0.15 -1.15,0.4 -2.55,0.35 -4.2,-0.05 -5.4,-0.5 -2.6,0.05 -2.6,0.15 q -3.05,0.2 -7.65,0 L 17.85,38.3 17.3,38.65 16.55,38.6 15.8,38.55 14.95,38.05 14.6,37.2 14.4,36.45 14.35,36.3 13.9,34.75 13.05,30.45 12.9,29.95 q -0.05,-0.9 0.9,-1.3 l 1.7,-0.2 h 1.05 l 0.85,0.15 0.4,0.15 0.5,-0.1 0.65,-0.05 V 25.85 L 18.5,20.6 q -0.2,-1.05 0,-1.5 0.25,-0.7 1.65,-1.25 -0.75,-0.55 -1.2,-1.7 h -1.9 l -1.95,0.1 -1.6,-0.1 q -0.9,-0.2 -1.2,-0.95 -0.15,-0.55 0,-1.15 l 0.45,-1.4 1.2,-4.4 0.25,-1 0.3,-0.7 0.55,-1.05 q 0.7,-1.3 1.15,-1.7 0.6,-0.55 1.25,-0.6 l 1,-0.25 9.85,-0.8 h 4.15 l 5.05,0.1 m -19.45,8.6 -1,-4.5 -0.65,1.3 -1.7,6.25 3,-0.1 0.75,0.05 -0.4,-3 m -1.9,24.3 1.45,-2.55 0.85,-1.7 h -0.2 l -0.85,-0.05 -0.7,-0.1 -1.55,-0.1 0.75,4.35 0.15,0.4 0.1,-0.25"
         fill="#000000"
         fill-rule="evenodd"
         stroke="none"
         id="path10" />
      <path
         d="m 43.65,4.3 7.4,-0.6 h 0.2 L 58.65,4 59.45,5.95 60.2,8 q 0.4,1.45 0.6,3.7 l 0.5,4.2 q 0.35,2.8 0.3,4.6 l -0.35,3.35 -0.05,1.75 -0.15,1.7 Q 60.75,29.35 59.2,32 L 56.6,36.45 54.9,36.3 53.5,36.25 52,36.1 50.15,35.95 49,35.7 q 0.55,-0.7 1.2,-0.9 l 0.55,-0.2 0.15,-0.45 -0.9,-0.1 -0.95,0.15 h -0.9 q -0.3,0.1 -0.75,0.75 L 46.45,36 46.15,36.35 H 45 Q 36,35.75 27.4,36.1 l -8.6,0.45 1.45,-3 Q 21.3,31.5 21.5,30 L 21.45,27.1 20.8,20.15 22.1,19.65 22.85,18.9 22.65,18 22.1,17.05 21.6,16.15 20.7,14.8 20.4,13.3 Q 19.9,9.1 18.8,5.4 L 22.5,5.2 Q 27.75,4.7 37.1,5 l 1.15,0.2 1,0.8 1.1,0.25 Q 41,6.2 41.45,5.8 l 0.5,-0.65 0.6,-0.6 1.1,-0.25 m -27.5,30.85 -0.1,0.25 -0.15,-0.4 -0.75,-4.35 1.55,0.1 0.7,0.1 0.85,0.05 h 0.2 l -0.85,1.7 -1.45,2.55 m 1.9,-24.3 0.4,3 -0.75,-0.05 -3,0.1 1.7,-6.25 0.65,-1.3 1,4.5"
         fill="#999999"
         fill-rule="evenodd"
         stroke="none"
         id="path11" />
      <path
         d="m 53.05,9.3 0.15,0.15 0.5,0.5 0.45,0.8 0.2,0.35 0.4,1.1 0.05,1.9 -0.1,0.65 -0.1,0.7 -0.9,1 -0.15,0.2 -0.35,0.35 -1.05,0.3 -0.5,0.05 q 0.35,1.9 0.05,4.4 l -0.25,1.35 q 1.25,-0.6 2.15,-0.7 h 0.2 l 1.55,-0.15 1.05,-0.1 0.25,0.1 0.6,0.8 0.05,1.25 q -0.1,1.7 -0.8,4.9 l -0.35,0.85 -0.8,0.25 H 54.9 L 54.45,30.25 53,30.4 52.35,30.5 h -0.8 l -1,-0.1 -0.95,-0.1 -0.75,-0.65 -0.1,-0.4 v -0.7 l 0.05,-1.05 -0.95,0.8 q -2.15,1.55 -3.6,1.9 -1.55,0.4 -4.7,0 L 39,30.1 38.95,30.35 38.7,31.4 38.65,31.45 V 31.8 Q 38.5,32.55 37.7,32.55 L 37.1,32.5 36.2,32.45 33.65,32.25 33.1,32.2 32.35,31.8 31.85,31.15 V 30.7 Q 31.75,30.1 32,29.65 l -0.1,-0.1 Q 31.65,29.25 31.75,28.9 31.7,28.6 32,28.35 h 0.05 l 0.35,-0.25 0.55,-0.15 h 0.55 q -2,-1.5 -2.75,-3.55 l -0.2,-0.55 q -0.6,-1.95 -0.1,-4.45 l 0.5,-1.65 h -0.1 L 30.55,17.8 30,17.7 29.3,17.6 Q 28.25,17.3 27.65,16.45 L 27.5,16.2 q -0.45,-0.75 -0.4,-1.65 0,-1.1 0.95,-1.9 0.35,-0.35 0.75,-0.5 0.5,-0.3 0.85,-0.25 l 0.1,-0.05 0.55,0.15 h 0.05 L 30.4,11.9 30.65,10.7 30.8,10.1 30.1,9.4 Q 29.8,8.8 30.05,8.05 30.5,7 31.45,7 L 32,7.1 q 0.85,0.3 1.15,1 L 33.3,8 l 1,0.3 0.4,0.25 0.3,0.35 0.15,0.7 -0.25,0.95 -0.75,0.6 -0.6,0.2 -0.5,0.1 -0.15,0.2 -0.6,1.2 q 0.55,0.55 0.75,1.2 1.1,-1.4 2.6,-2.2 l 2.3,-0.9 0.65,-0.2 2.85,-0.45 2.2,0.45 2.1,0.3 0.75,0.25 0.65,0.35 0.1,-0.6 0.2,-0.45 0.2,-0.4 h 0.05 l 0.5,-0.5 1.25,-0.8 0.7,-0.35 0.2,-0.05 0.7,-0.05 h 0.15 q 0.65,0 1.15,0.3 l 0.7,0.55 M 26,28.7 25.9,28.6 25.65,28.1 25.25,27.6 24.5,25.8 v -0.35 l 0.1,-0.25 q 0,-0.4 0.45,-0.5 0.25,0 0.3,0.15 l 0.5,0.65 0.55,0.5 0.15,0.35 0.1,0.1 0.65,0.55 -0.55,-1.3 -0.1,-0.2 -0.35,-0.95 0.1,-1.3 0.15,-0.75 0.1,-0.3 q 0.1,-0.15 0.35,-0.15 l 0.3,0.1 0.2,0.5 0.45,2.3 0.35,0.9 q 0.1,-1.5 0.65,-2.5 l 0.35,-0.3 0.2,-0.05 0.25,0.05 0.15,0.4 0.1,1.6 0.1,1.15 0.3,1.25 0.05,0.3 0.1,0.05 q 0.35,0.4 0.15,1.45 L 30.4,30 29.7,30.65 h -0.1 l -1.3,0.5 -1.5,-0.25 -0.65,-0.3 q -0.3,-0.3 -0.1,-0.6 l 0.85,-0.2 h 0.55 L 27.35,29.75 26.1,28.8 26,28.7 m 16.75,-22 0.5,-0.5 0.25,-0.5 0.6,-0.2 h 0.4 l 1,-0.3 q 0.4,-0.1 0.7,0.15 0.3,0.2 0.4,1.1 l 0.05,0.15 0.1,1.3 q 0,0.6 0.15,1.1 L 47,9.5 v 0.4 l -0.1,0.4 -1.2,0.2 -0.8,-0.1 -0.55,-0.2 -1.2,-0.05 L 42.45,9.9 41.85,9.7 41.5,9.5 41.2,9.2 41,8.75 Q 41,8.3 41.5,7.9 l 1.25,-1.2 m 9.6,4.9 -0.85,-0.9 -0.25,-0.1 0.05,0.25 0.6,1.9 0.85,1.4 Q 53.1,12.8 52.35,11.6 M 44.25,7.15 43.1,8.3 43.75,8.5 h 0.65 l 0.8,0.15 V 7.95 L 45,7 44.25,7.15 m 6.25,4.7 -0.05,-0.2 -0.05,-0.15 -0.1,-0.95 -0.35,0.1 -0.5,0.55 -0.05,0.15 -0.05,0.7 0.1,0.5 0.3,1.05 0.35,0.4 0.35,0.45 1.1,0.4 0.1,0.05 -0.2,-0.35 Q 50.75,13 50.5,11.85 m -14.4,13.65 0.15,0.1 1.35,0.85 q 0.55,0.3 1.85,0.6 l 4.25,0.3 q 1.2,-0.3 3.1,-1.8 l 1,-1 q 0.65,-0.8 0.95,-2.4 0.65,-3.5 -1,-5.7 L 46.5,15.25 46,14.85 q -0.9,-0.6 -1.5,-0.65 h -1.25 l -0.35,-0.1 -1.3,-0.4 -1.65,0.1 q -2.55,0.65 -4.25,2.7 -1.6,2.1 -1.7,4.75 v 0.25 q -0.05,1.45 0.6,2.45 l 1.5,1.55 m 8.6,-8.55 0.15,0.4 -0.05,0.45 -0.35,0.3 -0.7,-0.1 h -0.1 l -1.25,0.1 q -1.5,0.3 -2.05,0.8 L 39.7,19.85 Q 39.3,21 39.6,21.5 l 0.2,0.25 1.1,0.4 0.8,-0.05 1.1,-0.6 q 0.7,-0.45 1.1,-0.55 0.8,-0.15 1.3,0.35 0.55,0.55 0.45,1.3 -0.1,0.85 -1.25,1.55 l -0.5,0.3 0.05,0.85 q -0.25,0.75 -1.05,0.85 -0.65,0.1 -1.2,-0.55 l -0.25,-0.5 -1.1,0.05 -1.25,-0.2 -1.5,-1 L 37,23.2 36.5,22.4 36.45,21.6 q 0,-1.1 0.25,-1.9 L 37,18.9 q 0.5,-1.1 1.65,-1.8 l 0.7,-0.25 -0.05,-0.55 0.2,-0.7 q 0.35,-0.5 0.8,-0.65 0.6,-0.15 1.05,0.2 l 0.1,0.1 0.35,1.05 q 1.65,-0.2 2.45,0.3 l 0.45,0.35 m 8.55,7.4 -0.15,0.05 v 0.35 l -0.05,0.8 h 1.35 0.15 l 0.25,-1.9 -1.55,0.7 m -1.9,3.3 v 0.1 l 2.9,0.05 0.1,-0.7 -0.95,-0.15 q -0.9,-0.1 -1.15,-0.45 l -0.1,-0.15 Q 52,26.05 52.1,25.4 l 0.2,-0.65 -0.8,0.35 -0.2,0.15 -0.05,0.25 0.1,2.15 m -16.4,3.05 1.95,0.05 0.3,-0.1 0.1,-0.35 -0.1,-0.35 -1.25,-0.35 -1.3,-0.1 h -1.3 v 0.15 l -0.2,0.9 1.8,0.15"
         fill="#000000"
         fill-rule="evenodd"
         stroke="none"
         id="path12" />
      <path
         d="m 46.65,6.6 q 1.1,0.15 2.75,0.95 L 50.7,8.25 54,6 q 0.6,-0.4 0.95,-0.45 0.55,-0.2 0.9,0.3 Q 56.3,6.5 55.2,7.5 L 53.05,9.3 52.35,8.75 Q 51.85,8.45 51.2,8.45 H 51.05 L 50.35,8.5 50.15,8.55 49.45,8.9 48.2,9.7 47.7,10.2 47,9.9 V 9.5 L 46.9,9 Q 46.75,8.5 46.75,7.9 l -0.1,-1.3 m 7.7,4.5 q 1.25,1.45 1.8,3.1 L 56.7,17 q 0.25,2.25 0.1,4.1 l -0.15,1.15 -0.25,-0.1 -1.05,0.1 -1.55,0.15 q 0.45,-2.7 -0.25,-5.75 l 0.15,-0.2 0.9,-1 0.1,-0.7 0.1,-0.65 -0.05,-1.9 -0.4,-1.1 m -2,19.4 -0.75,0.6 q -2.9,2.3 -7.3,3.05 -3.3,0.5 -8,0.05 l -2.9,-0.65 q -1.05,-0.5 -2.3,-1.65 l -0.9,-0.8 -2.95,2.6 -1.65,1.1 -1.9,-0.05 q -0.8,-0.4 -0.95,-1.4 -0.2,-0.9 0.25,-1.75 l 1.1,-1.4 1.4,-1.15 0.5,-0.35 0.1,0.1 1.25,0.95 0.1,0.05 H 26.9 L 26.05,30 q -0.2,0.3 0.1,0.6 l 0.65,0.3 1.5,0.25 1.3,-0.5 h 0.1 L 30.4,30 30.7,29.25 Q 30.9,28.2 30.55,27.8 l -0.1,-0.05 -0.05,-0.3 -0.3,-1.25 -0.1,-1.15 0.35,-0.3 0.4,-0.35 q 0.75,2.05 2.75,3.55 H 32.95 L 32.4,28.1 32.05,28.35 H 32 q -0.3,0.25 -0.25,0.55 -0.1,0.35 0.15,0.65 l 0.1,0.1 q -0.25,0.45 -0.15,1.05 v 0.45 l 0.5,0.65 0.75,0.4 0.55,0.05 2.55,0.2 0.9,0.05 0.6,0.05 q 0.8,0 0.95,-0.75 V 31.45 L 38.7,31.4 q 4.4,0.2 7.4,-0.7 1.5,-0.35 2.75,-1.05 l 0.75,0.65 0.95,0.1 1,0.1 h 0.8 m -25.7,-4.05 q -1.4,-3.4 -0.1,-7.7 0.4,-1.35 0.95,-2.55 l 0.15,0.25 q 0.6,0.85 1.65,1.15 l 0.7,0.1 0.55,0.1 q -0.45,1 -0.75,2.15 -0.4,1.6 -0.3,3.05 l -0.2,0.05 -0.35,0.3 q -0.55,1 -0.65,2.5 l -0.35,-0.9 -0.45,-2.3 -0.2,-0.5 -0.3,-0.1 q -0.25,0 -0.35,0.15 l -0.1,0.3 -0.15,0.75 -0.1,1.3 0.35,0.95 0.1,0.2 0.55,1.3 -0.65,-0.55 M 30.3,12 30.4,11.9 30.35,12 H 30.3 m 4.4,-3.45 q 1.9,-1 4.1,-1.35 L 41.9,6.8 42.75,6.7 41.5,7.9 Q 41,8.3 41,8.75 l 0.2,0.45 0.3,0.3 0.35,0.2 0.6,0.2 q -2.8,0.45 -4.5,1.05 l -2.3,0.9 q -1.5,0.8 -2.6,2.2 -0.2,-0.65 -0.75,-1.2 l 0.6,-1.2 0.15,-0.2 0.5,-0.1 0.6,-0.2 0.75,-0.6 L 35.15,9.6 35,8.9 34.7,8.55 m 17.65,3.05 q 0.75,1.2 0.4,2.55 l -0.85,-1.4 -0.6,-1.9 -0.05,-0.25 0.25,0.1 0.85,0.9 M 44.25,7.15 45,7 45.2,7.95 v 0.7 L 44.4,8.5 H 43.75 L 43.1,8.3 44.25,7.15 m 2.25,4.15 0.95,-0.7 -0.2,0.45 -0.1,0.6 -0.65,-0.35 m 2.95,1.25 -0.1,-0.5 0.05,-0.7 0.05,-0.15 0.5,-0.55 0.35,-0.1 0.1,0.95 0.05,0.15 0.05,0.2 -0.2,-0.1 -0.25,0.2 -0.6,0.6 m -2.95,2.7 -1.8,1.7 -0.45,-0.35 q -0.8,-0.5 -2.45,-0.3 l -0.35,-1.05 1.45,-1.15 0.35,0.1 h 1.25 q 0.6,0.05 1.5,0.65 l 0.5,0.4 M 43.65,18 39.8,21.75 39.6,21.5 Q 39.3,21 39.7,19.85 L 40.35,18.9 Q 40.9,18.4 42.4,18.1 L 43.65,18 m -6.05,5.95 -1.2,1.2 -0.3,0.35 -1.5,-1.55 q -0.65,-1 -0.6,-2.45 l 3,-2.6 -0.3,0.8 q -0.25,0.8 -0.25,1.9 l 0.05,0.8 0.5,0.8 0.6,0.75 m 15.5,0.8 0.15,-0.4 1.55,-0.7 -0.25,1.9 H 54.4 53.05 l 0.05,-0.8 m -0.85,1.75 q 0.25,0.35 1.15,0.45 l 0.95,0.15 -0.1,0.7 -2.9,-0.05 v -0.1 l 0.9,-1.15 m -18.9,3.15 1.6,1.05 -1.8,-0.15 0.2,-0.9"
         fill="#ffffff"
         fill-rule="evenodd"
         stroke="none"
         id="path13" />
    </g>
    <g
       id="shape2"
       transform="translate(2,2.05)">
      <path
         d="M -0.5,-0.4 V -0.55 H 75.1 V -0.4 40.8 H -0.5 Z"
         fill="none"
         stroke="#000000"
         stroke-linecap="round"
         stroke-linejoin="round"
         stroke-width="3"
         id="path14" />
    </g>
  </defs>
</svg>
