<?xml version="1.0" encoding="UTF-8" standalone="no"?>
<svg
   ffdec:objectType="frame"
   height="60.549999"
   width="67.099998"
   version="1.1"
   id="svg6"
   sodipodi:docname="438.svg"
   xmlns:inkscape="http://www.inkscape.org/namespaces/inkscape"
   xmlns:sodipodi="http://sodipodi.sourceforge.net/DTD/sodipodi-0.dtd"
   xmlns:xlink="http://www.w3.org/1999/xlink"
   xmlns="http://www.w3.org/2000/svg"
   xmlns:svg="http://www.w3.org/2000/svg"
   xmlns:ffdec="https://www.free-decompiler.com/flash">
  <sodipodi:namedview
     id="namedview6"
     pagecolor="#ffffff"
     bordercolor="#000000"
     borderopacity="0.25"
     inkscape:showpageshadow="2"
     inkscape:pageopacity="0.0"
     inkscape:pagecheckerboard="0"
     inkscape:deskcolor="#d1d1d1"
     fit-margin-top="5"
     fit-margin-left="5"
     fit-margin-right="5"
     fit-margin-bottom="5" />
  <g
     transform="translate(1.5,1.5)"
     id="g3">
    <use
       ffdec:characterId="516"
       height="57.549999"
       width="64.099998"
       xlink:href="#shape0"
       id="use1" />
    <use
       ffdec:characterId="937"
       height="58.700001"
       transform="translate(-1.25,-0.35)"
       width="66.800003"
       xlink:href="#shape1"
       id="use2" />
    <use
       ffdec:characterId="518"
       height="60.549999"
       transform="translate(-1.5,-1.5)"
       width="67.099998"
       xlink:href="#shape2"
       id="use3" />
  </g>
  <defs
     id="defs6">
    <g
       id="shape0">
      <path
         d="M 53.6,0 H 64.1 V 57.55 H 53.6 28.25 0 V 0 H 28.25 53.6 V 57.55 0 M 28.25,0 V 57.55 0"
         fill="#ffffff"
         fill-rule="evenodd"
         stroke="none"
         id="path3" />
    </g>
    <g
       id="shape1"
       transform="translate(1.25,0.35)">
      <path
         d="M 20.9,47.5 20.05,47.35 19.3,47.6 17.65,47.55 q -0.85,-0.3 -1.3,-1 L 15.85,45.2 15.5,43.75 15,42.6 14.65,41.45 q -0.1,-1.05 0.7,-1.75 l 1.3,-0.8 2.35,-1.1 0.65,-0.4 0.55,-0.55 q 1.05,-1.15 2.2,-1.75 1.1,-0.65 2.25,-0.7 1.4,0 2.2,0.85 0.4,0.45 1,2.2 l 0.5,1.85 -0.05,1.35 q -0.25,1.6 -0.7,2.35 l 1.35,-0.55 0.9,-0.4 q 0.4,-0.4 0.4,-1.2 L 30.1,39.5 q -0.2,-1.65 1.4,-4.45 1.05,-1.7 2.05,-2.2 L 33.3,32.6 32.8,31.85 31.2,29.4 30.85,29.15 q -0.3,-0.05 -0.6,0.25 l -1.3,0.95 q -0.95,0.55 -1.65,0.5 -0.7,-0.1 -1.05,-0.6 l -1.9,1 -2.45,0.2 Q 21.1,31.2 20.45,30.7 L 19.7,29.5 19.6,28.35 q 0,-2.15 -0.4,-3.1 Q 18.4,23.8 18.25,23 18,21.65 19,20.75 l 0.9,-0.55 1.7,-0.25 0.95,-1 1.5,-1.35 q 0.8,-0.5 1.6,-0.25 1.05,0.3 1.6,1.65 l 0.55,2.3 0.75,2.9 0.05,1.95 q 1,-0.75 1.75,-1.05 l 1.9,-0.2 0.9,0.35 V 25.2 l 0.05,-0.4 0.3,-0.85 0.25,-0.3 0.3,-0.4 0.85,-0.55 0.55,-0.15 1.45,0.1 q 1.55,0.6 1.7,2.15 l -0.35,1.55 -0.45,0.55 -0.85,0.65 -0.55,0.2 -0.35,0.1 0.25,0.3 0.75,0.9 q 0.8,1.2 0.4,2.5 -0.3,0.95 -1.05,1.45 l 0.15,0.05 q 1.9,0.65 2.6,1.15 1.75,1.35 1.85,3.65 v 0.25 l 1.05,1.2 q 1.2,1.7 1.25,2.8 0.65,-1.5 2.3,-2.25 1.55,-0.75 3.15,-0.35 0.35,-0.85 1.2,-1.4 H 50 q -0.85,-0.95 -0.5,-2.35 0.4,-1.2 1.65,-1.9 1.2,-0.6 2.6,-0.45 0.3,-1 0.85,-2.05 l 0.55,-1.15 q 0.4,-0.75 1.15,-1.5 l 0.35,-0.35 V 28.3 l 0.2,-1.7 -0.1,-1.3 V 24.85 L 56.5,24.65 55.9,23.7 55.3,22.35 q -0.55,-1.2 -0.35,-1.7 0.15,-0.4 0.55,-0.65 l 0.85,-0.15 q 0.55,0.1 1.15,0.9 l 0.7,0.85 V 21.35 L 58.25,20.4 58.2,19.25 q 0.1,-0.95 1,-1.15 0.9,-0.15 1.45,0.75 0.35,0.6 0.35,1.65 l -0.1,1.2 0.05,-0.05 q 0.6,-0.4 0.95,-0.5 0.85,-0.15 1.4,0.45 0.5,0.7 0.1,1.45 l -0.45,0.55 -0.55,0.45 -0.85,0.95 -0.2,0.2 v 1.25 7.05 h 0.35 l 0.95,0.1 1.1,0.25 q 1.1,0.4 1.1,1.6 0,1.15 -1.05,1.65 l -0.95,0.2 -0.95,0.25 -0.15,0.15 0.75,0.3 q 2.4,1.2 2.85,2.65 0.4,1.15 -0.1,3.2 -0.55,3.05 -1.35,4.65 l -0.7,1.2 q 0.4,1.05 0.6,2.65 0.3,1.8 -0.3,2.7 -0.7,1.2 -3.45,1.4 l -8,0.45 -8.05,0.6 -4.1,0.45 -7.1,0.3 L 30.45,58 q -1.35,-0.45 -1.6,-1.6 l -0.05,-0.35 -2.35,0.4 -4.35,0.9 -1.85,0.3 -1.8,-0.3 Q 17.3,56.5 16.6,56.3 l -1.15,-0.1 -1.15,0.05 -2.4,-0.1 -1.25,0.35 -1.3,0.4 -1.95,0.3 -2,0.2 -2.3,0.7 -2.3,0.1 q -1.55,-0.4 -1.95,-2 -0.4,-1.55 0.75,-2.7 -0.6,-1.55 -0.25,-4 0.45,-3.15 2,-5.15 2,-2.5 4.8,-2.45 1.95,0.15 4.1,1.75 1.15,0.9 1.5,1.65 l 0.35,1.1 1.1,1.45 q 0.75,0.85 0.45,1.65 l 4.05,-0.45 2.65,-0.1 h 0.3 q 0,-0.4 0.15,-0.75 l 0.4,-0.7 H 20.9 M 58.55,12.9 Q 58.4,14.4 57,14.95 55.65,15.45 54.5,14.5 L 53.95,13.85 53.6,13.3 53.5,13.25 53.35,12 q 0.1,-0.65 0.45,-1.1 l -0.05,-0.45 0.1,-0.65 0.4,-0.95 0.9,-0.9 q 1.05,-0.75 2.4,-0.35 0.9,0.3 1.35,1.1 0.55,0.9 0.2,2 l -0.45,0.85 -0.2,0.3 0.1,1.05 M 27.05,8.25 26.5,8.55 25.4,8.6 24.55,7.9 q -0.25,-0.5 -0.2,-1.1 0.1,-0.6 0.55,-0.95 0.4,-0.35 1,-0.4 0.6,0 1.05,0.35 l 0.55,0.95 -0.15,1.05 -0.3,0.45 m 1.65,9.85 -0.3,-0.4 q -0.4,-0.8 0.15,-1.55 0.5,-0.75 1.4,-0.65 0.8,0.1 1.2,0.75 0.4,0.65 0.05,1.4 -0.3,0.75 -1.1,0.9 -0.8,0.15 -1.4,-0.45 M 3.45,25.2 2.65,24.65 q -0.8,-0.9 -0.4,-2.1 0.5,-1.2 1.75,-1.2 1.05,-0.1 1.65,0.75 0.65,0.85 0.35,1.8 -0.25,0.85 -1,1.2 l -1.55,0.1 m 8.8,9.05 -0.6,-0.2 -0.55,0.25 -3.95,1.6 -0.65,0.35 -0.45,0.6 Q 5.15,38.35 4.7,40 L 4.25,41.25 Q 3.55,42.7 2,42.7 L 0.65,42.35 Q 0,42 -0.3,41.35 -0.75,40.4 -0.4,39.3 -0.2,38.4 0.5,37.35 L 2.45,34.5 3.7,33.15 5.1,32.55 9.45,31.3 9.4,31 q -0.2,-0.95 0,-2.5 L 9.5,27.7 9.25,27.4 8.75,26 8.55,25.15 8.25,23.4 q 0,-1.05 0.5,-1.7 0.3,-0.4 0.7,-0.55 l 1.35,-0.2 1,0.3 2.05,0.6 0.35,0.15 q 1.25,-0.15 2,0.6 0.65,0.65 0.65,1.5 0,0.8 -0.6,1.5 0.35,0.55 0.4,1.8 0.05,1.35 0.3,1.9 l 0.45,0.8 Q 18,31.5 17.15,32.75 16.4,34 14.95,34.3 l -2.7,-0.05"
         fill="#999999"
         fill-rule="evenodd"
         stroke="none"
         id="path4" />
      <path
         d="m 56.3,13.65 1.35,-0.9 v -0.4 l -0.2,-1.3 -0.3,-1 -1.85,0.4 -0.6,1.55 0.1,1.1 0.05,0.25 0.4,0.35 0.6,0.15 0.45,-0.2 M 52.6,12 l 0.35,-1.45 0.1,-0.95 0.3,-0.85 0.95,-0.6 3.15,-0.6 1.2,0.2 0.7,1 0.45,1.75 0.1,0.7 0.2,0.7 0.05,1.1 0.1,0.55 -0.15,0.9 -0.7,0.65 -1.05,0.35 q -0.35,0.15 -1,0.85 l -1,0.7 -0.95,-0.15 -2.2,-1.2 q -0.8,-0.5 -0.8,-1.1 L 52.55,13.5 52.6,12 M 14.75,0.2 16.8,-0.3 18.85,0.05 q 1.1,0.6 1.8,2.85 l 0.7,2.1 q 0.8,2.1 0.3,3.25 -0.35,0.9 -1.45,1.45 l -2.05,0.65 -1.35,0.35 0.25,1.2 0.4,2.5 q 0.9,2.85 1.8,7.35 l 1.7,8.05 0.15,0.7 1.35,-0.7 q 1.8,-0.95 3.35,-1.45 l 1.85,-0.25 q 1.1,0.1 1.6,0.9 0.3,0.55 0.2,1.3 l 0.9,2.9 0.1,-0.1 2,-1.4 1.25,-0.7 1.85,-0.35 2.65,0.2 q 1,0.3 2,1.2 l 0.9,-6.4 q 0.2,-1.15 0,-1.95 l -0.65,-1.55 -2.5,-4.15 -0.5,-0.35 -0.5,0.3 q -1,1.25 -2.15,1.4 -0.8,0.1 -1.5,-0.45 -0.7,-0.55 -0.75,-1.4 l 0.15,-0.95 0.35,-1 0.5,-1.8 q 0.25,-1.05 0.75,-1.65 1.1,-1.2 3.1,-0.95 1,0.15 3.15,1.2 -0.65,-1.6 -1.95,-3.05 -0.95,1.25 -2.25,1.15 -0.7,0 -1.25,-0.4 Q 34.5,9.65 34.35,9 33.95,7.5 35.95,6.05 38.2,4.4 40,5 q 0.9,0.3 2.25,1.6 1.35,1.35 2.2,1.65 l 0.35,-1.5 h -0.2 l -1.05,-0.2 q -0.4,-0.4 -0.3,-0.9 0,-0.3 0.15,-0.55 l 0.3,-0.25 0.25,-0.4 0.65,-0.5 0.7,-0.5 0.6,-0.15 2.05,0.25 0.55,0.65 0.65,0.55 q 0.4,0.55 0.3,2.2 l -0.3,2.85 v 1.6 q 0.1,0.55 0.55,1.35 2.6,5.25 3,8.35 l 0.15,4.2 q -0.05,4.65 0.2,11.2 L 53,38.05 54.3,37.2 54.2,36.95 53.85,35.9 53.35,35.1 q -0.3,-0.45 -0.15,-0.95 0.15,-0.4 0.6,-0.5 0.5,0 0.8,0.3 l 0.45,0.65 0.15,0.2 0.05,-0.9 -0.3,-2 -0.05,-0.9 0.15,-0.55 q -0.1,-1 0.1,-1.45 0.35,-0.55 0.95,-0.45 0.65,0 0.9,0.6 0,0.6 0.15,1.2 l 0.95,2.8 0.3,-1.1 1.15,-5.45 0.5,-1.45 0.25,-0.45 q 0.3,-0.3 0.75,-0.15 0.4,0.1 0.4,0.55 l -0.2,0.7 q -0.4,1 -0.45,2 l -0.1,1.25 0.05,1.4 -0.1,0.65 0.05,0.75 -0.05,0.65 q -0.2,1 -0.05,2.15 l 0.1,0.9 1,0.2 q 1.9,0.35 2.45,0.95 l 0.5,1.1 q 0.05,0.7 -0.3,1.2 l -0.95,0.75 q -0.65,0.2 -1.2,0 l -1,-0.6 -0.95,-0.65 -1.15,-0.3 h -1.55 l -1.2,0.75 -0.9,0.5 0.6,0.5 0.8,0.8 0.45,0.7 0.6,1.3 0.15,0.4 Q 56.95,42.1 54.5,41.4 l -2.45,-0.55 q -0.65,0.9 -1.85,1.35 l -0.75,0.25 q -0.35,0.1 -1.2,0.65 -1.7,1 -2.4,1.7 L 44.6,46 q -0.7,0.7 -1.4,0.95 l 0.25,0.8 q 0.2,0.5 -0.2,0.75 -0.45,0.25 -0.8,-0.35 l -0.4,-0.9 -0.45,-0.65 q -0.1,-0.45 0.45,-1.1 l 0.3,-0.3 -0.2,-0.4 -0.7,-2.1 L 40.9,41.75 40.25,41 39.6,40.6 38.8,40.65 38.05,41 36.7,40.85 Q 36,40.3 36.3,39.6 L 36.95,39 q 1,-0.65 1.8,-0.7 l 0.3,-0.05 0.15,-0.8 0.2,-0.85 -0.45,-0.3 -0.65,-0.75 -0.6,-0.85 -0.9,-0.65 -0.6,-0.3 -0.65,-0.1 -0.9,0.1 q -0.7,0.2 -1.85,1.05 l -1.6,1.05 0.5,1.7 0.35,1.05 1.2,0.15 0.75,0.3 q 0.4,0.4 0.25,1 -0.25,0.6 -0.85,0.6 h -0.5 q -0.3,0 -0.7,0.3 l -1.5,0.85 -0.55,0.4 q -1.15,0.85 -1.5,1.7 h 0.05 q 1,0.25 2,1.1 0.75,0.75 0.8,1.25 0.1,0.7 -0.5,1.05 L 29.8,47.35 29.4,47.1 28.95,47 27.7,46.95 q -0.95,0 -2,0.7 -0.5,0.35 -0.55,0.45 l -0.4,0.55 -0.7,0.7 -0.6,0.7 -2.15,0.2 -2.1,-0.7 -1.85,-0.05 q -2.8,0.2 -4.3,1.3 L 11.85,51.65 10.5,51.6 Q 9.8,51.15 9.8,50.45 9.8,49.8 10.7,48.9 l 1,-0.95 0.05,-0.05 -0.15,-0.25 -0.85,-2 L 9.9,44.1 8.95,43.65 8,43.05 5.6,42.8 3.65,43.15 Q 3.25,43.4 2.8,43.6 L 1.55,44.2 0.7,44.35 Q 0.35,44.2 0.25,43.7 0.1,42.8 0.8,41.95 1.2,41.35 2.25,40.8 L 2.8,40.55 2.75,39.85 v -1.1 L 2.8,38.4 2.7,36.7 2.55,35.7 2.85,35 q 0.35,-0.35 0.75,-0.3 0.45,0 0.55,0.5 v 0.3 l 0.3,1.1 0.1,0.75 0.2,0.3 0.1,0.5 0.35,0.65 0.15,-0.5 v -0.8 l 0.35,-1.65 0.2,-0.6 0.15,-1 1.15,-2.65 0.35,-0.5 0.5,0.05 Q 8.3,31.3 8.2,31.6 l -0.1,0.5 0.05,0.5 -0.05,0.45 -0.7,5.05 -0.05,0.85 -0.1,0.4 0.05,0.15 1,0.05 -0.4,-1.9 Q 7.7,36.4 8.1,35.7 8.45,35.15 9.25,34.85 l 1.5,-0.45 3.55,-1.3 2.2,-0.5 -0.45,-1.5 Q 14.55,24 14,19.9 l -1.55,-6.3 -0.4,-1.35 -1.9,0.8 -2.45,0.7 Q 6.1,13.95 5.25,13.1 4.75,12.55 4.55,11.25 l -1,-4.8 Q 3.25,4.95 3.6,4.3 3.95,3.65 5.2,3.1 7.05,2.35 9.95,1.55 l 4.8,-1.35 m 23.55,26.7 -0.1,0.35 v 0.3 l -0.35,0.8 -0.9,0.65 H 36.2 L 35.4,28.85 34.25,28.75 33.7,28.4 33.15,27.95 32.4,27.65 q -0.8,-0.45 -0.8,-1.7 l 0.15,-0.9 0.45,-1.25 0.3,-0.9 q 0.25,-0.7 0.85,-1 l 1.05,-0.2 1.1,0.1 1,0.05 q 0.5,0.05 0.9,0.4 l 0.7,0.95 0.35,0.45 0.15,0.8 v 0.75 l -0.25,1.15 -0.05,0.55 m -3.05,-0.9 1,0.15 L 36.3,25.8 36.1,25.4 36,25 35.95,24.3 H 34.9 l -0.15,0.4 -0.2,0.65 0.7,0.65 M 12.55,4.5 7.8,6.15 7.95,6.95 8.2,7.5 V 8.1 L 8.45,8.85 8.5,9.1 8.65,9.05 l 3.75,-1.6 1.5,-0.4 3.25,-1 Q 16.95,5.8 16.85,5.2 l -0.75,-2 -0.85,0.35 -1.7,0.5 -1,0.45 m 12.2,28.4 -1.6,1 v 0.05 l 0.15,0.85 0.2,0.8 0.1,0.05 q -0.05,0.25 0.2,0.75 v 0.5 l 0.15,0.35 0.3,2.45 -0.05,1.1 -0.3,0.65 -0.15,0.65 -0.75,0.05 -0.15,-0.45 -0.4,-1.05 -0.2,-0.8 -0.4,-2.2 -0.9,-1.7 -0.3,-0.4 -0.1,-0.3 -7.6,3.2 q 0.1,1.5 1.1,3.5 l 1.75,3.35 0.2,0.6 0.1,-0.05 2.95,-0.25 h 1.1 l 1.25,0.3 0.35,0.1 0.65,-0.65 q 1.3,-1.2 2.5,-1.5 v -0.2 l 0.85,-1.6 1,-1.2 q 0.8,-0.85 1.9,-1.4 l -0.1,-0.25 -0.35,-1 -1.75,-6.55 -0.15,0.05 -1.55,1.2 M 28.4,56.85 27.7,57.6 26.8,57.65 26.05,57.1 Q 25.6,56.25 26.1,55.3 l 1.15,-1.35 1.25,-1.7 q 0.95,-0.95 3.3,-1.05 l 2.75,0.15 H 35 l 0.4,-0.4 q 0.55,-0.6 2,-1 l 0.4,-0.1 q 0.55,-0.35 1.4,-0.45 l 1.55,-0.05 q 1,0 1.65,0.45 0.6,0.45 0.65,0.95 l 0.45,0.7 3,4.7 q 0.6,0.95 0.2,1.4 l -1,0.05 -0.7,-0.85 -2.6,-3.9 -0.5,-0.55 -0.7,-0.2 -2.8,0.2 q -0.95,0.2 -1.3,0.65 l -0.55,1 Q 36,54.5 34.75,54.4 l -3.25,-0.15 -1.25,0.2 -0.75,0.8 -1.1,1.6"
         fill="#000000"
         fill-rule="evenodd"
         stroke="none"
         id="path5" />
    </g>
    <g
       id="shape2"
       transform="translate(1.5,1.5)">
      <path
         d="M 0,23.8 V 0 H 64.1 V 23.8 57.55 H 0 Z"
         fill="none"
         stroke="#000000"
         stroke-linecap="round"
         stroke-linejoin="round"
         stroke-width="3"
         id="path6" />
    </g>
  </defs>
</svg>
