<?xml version="1.0" encoding="UTF-8" standalone="no"?>
<svg
   ffdec:objectType="frame"
   height="60.900002"
   width="67.099998"
   version="1.1"
   id="svg8"
   sodipodi:docname="417.svg"
   xmlns:inkscape="http://www.inkscape.org/namespaces/inkscape"
   xmlns:sodipodi="http://sodipodi.sourceforge.net/DTD/sodipodi-0.dtd"
   xmlns:xlink="http://www.w3.org/1999/xlink"
   xmlns="http://www.w3.org/2000/svg"
   xmlns:svg="http://www.w3.org/2000/svg"
   xmlns:ffdec="https://www.free-decompiler.com/flash">
  <sodipodi:namedview
     id="namedview8"
     pagecolor="#ffffff"
     bordercolor="#000000"
     borderopacity="0.25"
     inkscape:showpageshadow="2"
     inkscape:pageopacity="0.0"
     inkscape:pagecheckerboard="0"
     inkscape:deskcolor="#d1d1d1"
     fit-margin-top="5"
     fit-margin-left="5"
     fit-margin-right="5"
     fit-margin-bottom="5" />
  <g
     transform="translate(1.5,1.5)"
     id="g3">
    <use
       ffdec:characterId="516"
       height="57.549999"
       width="64.099998"
       xlink:href="#shape0"
       id="use1" />
    <use
       ffdec:characterId="916"
       height="57.549999"
       transform="translate(-1.1,1.85)"
       width="66.099998"
       xlink:href="#shape1"
       id="use2" />
    <use
       ffdec:characterId="518"
       height="60.549999"
       transform="translate(-1.5,-1.5)"
       width="67.099998"
       xlink:href="#shape2"
       id="use3" />
  </g>
  <defs
     id="defs8">
    <g
       id="shape0">
      <path
         d="M 53.6,0 H 64.1 V 57.55 H 53.6 28.25 0 V 0 H 28.25 53.6 V 57.55 0 M 28.25,0 V 57.55 0"
         fill="#ffffff"
         fill-rule="evenodd"
         stroke="none"
         id="path3" />
    </g>
    <g
       id="shape1"
       transform="translate(1.1,-1.85)">
      <path
         d="m 52.55,9.15 0.9,-0.95 1.8,-1.55 1.2,-1.15 1.3,-1.95 q 0.7,-1.15 1.65,-1.5 l 1.25,-0.1 q 0.7,0.1 1.1,0.55 0.45,0.45 0.55,1.15 0.1,0.7 -0.25,1.2 l -1.6,1.2 -1.7,1.25 -4.45,3 -1.05,0.45 q -0.7,0 -1,-0.5 -0.2,-0.5 0.3,-1.1 m 2.1,3.25 q -0.3,-0.2 -0.1,-0.6 l 0.35,-0.5 0.4,-0.3 0.4,-0.2 0.35,-0.25 0.4,-0.1 0.75,-0.3 q 0.9,-0.55 2.45,-1 l 1.45,-0.1 q 1.05,0.35 1.15,1.35 0.15,1.1 -0.8,1.6 l -1.15,0.25 h -0.6 l -0.9,0.05 -0.5,0.15 -3.15,0.1 -0.5,-0.15 m -3.4,-7.2 0.3,-0.3 0.4,-0.75 0.15,-0.35 0.1,-0.05 0.2,-0.6 0.3,-0.65 q 0.45,-0.65 1.2,-0.55 0.75,0.1 1.1,0.75 0.25,0.75 -0.15,1.35 L 54.6,4.3 52.65,7.1 51.85,7.95 51.1,8.05 50.55,7.5 50.6,6.8 50.9,5.9 51,5.6 51.25,5.2 m -42.7,30.25 0.3,0.05 h 0.2 l 0.5,-0.05 h 0.1 l 0.6,-1.15 0.55,-0.7 -0.05,-0.1 -0.1,-0.05 v -0.1 L 10.6,33.3 v -0.1 -0.1 -0.05 -0.1 -0.1 -0.05 l 0.05,-0.1 v -0.05 l 0.05,-0.1 0.1,-0.1 0.05,-0.05 0.05,-0.1 0.15,-0.1 0.1,-0.05 h 0.1 l 0.2,-0.05 h 0.05 0.15 l 0.15,0.05 h 0.15 L 12,32.2 h 0.1 l 0.25,-0.05 h 0.25 l 0.3,-0.05 h 0.55 l 0.5,-0.05 h 0.6 L 15,32 h 0.25 l 0.5,-0.05 0.8,-0.05 h 0.85 l 1.75,-0.05 h 1.55 l 9.7,-0.05 h 9.05 l 0.95,-0.05 h 0.65 L 41.4,31.7 h 1.1 l 0.55,0.05 H 43.6 L 44,31.8 h 0.75 l 1.1,0.05 h 2.5 L 48.8,31.8 H 49 l 0.25,-0.05 h 0.35 l 0.65,-0.05 0.15,-0.1 h 0.1 l 0.15,-0.05 h 0.15 l 0.15,-0.05 h 0.2 l 0.3,-0.05 h 0.45 0.65 0.4 0.05 0.45 l 0.3,0.05 h 0.1 l 0.15,0.05 0.2,0.1 0.15,0.1 0.1,0.05 0.1,0.1 0.05,0.1 0.1,0.05 0.05,0.1 0.05,0.05 0.05,0.1 0.05,0.1 0.05,0.05 0.05,0.1 v 0.1 l 0.05,0.05 v 0.1 l 0.05,0.05 v 0.1 0.1 0.05 0.1 0.1 0.05 l -0.05,0.1 v 0.05 0.1 L 55,33.7 v 0.05 l -0.1,0.1 v 0.1 L 54.85,34 54.8,34.1 54.75,34.15 55.2,35 h 0.4 v -0.05 q 0.05,-0.35 0.4,-0.6 l 0.65,-0.15 6,-0.2 0.7,0.1 q 0.55,0.15 0.55,0.85 l -0.2,0.6 0.05,0.05 0.05,0.1 0.05,0.1 v 0.05 l 0.05,0.1 v 0.1 l 0.05,0.05 v 0.1 0.05 0.1 0.1 0.05 0.1 0.1 0.05 l -0.05,0.1 v 0.05 l 0.05,0.1 0.1,0.1 v 0.05 l 0.05,0.1 0.05,0.1 v 0.05 0.1 l 0.05,0.05 v 0.1 0.1 0.05 0.1 0.1 0.05 0.1 0.1 0.05 0.1 0.05 0.1 0.1 0.05 l 0.05,0.1 v 0.1 0.05 0.1 0.05 0.1 0.1 0.05 0.1 0.1 0.05 0.1 0.1 0.05 0.1 0.05 0.1 0.1 0.05 0.1 0.1 0.05 0.1 0.05 0.1 0.1 0.05 0.1 0.1 0.05 0.1 0.1 0.05 0.1 0.05 0.1 0.1 0.05 0.1 0.1 0.05 0.1 l 0.05,0.05 v 0.1 0.1 0.05 0.1 0.1 0.05 0.1 0.05 0.1 0.1 0.05 0.1 0.1 0.05 0.1 l 0.05,0.1 v 0.05 0.1 0.05 0.1 0.1 0.05 0.1 0.1 0.05 0.1 0.05 0.1 0.1 0.05 0.1 0.1 0.05 0.1 0.1 0.05 0.1 0.05 0.1 0.1 0.05 0.1 0.1 l 0.05,0.05 v 0.1 0.05 0.1 0.1 0.05 0.1 0.1 0.05 0.1 0.1 0.05 0.1 0.05 l 0.05,0.1 v 0.1 0.05 0.1 0.1 0.05 0.1 0.05 0.1 0.1 0.05 0.1 0.1 0.05 0.1 0.05 0.1 0.1 0.05 0.1 0.1 0.05 0.1 0.1 0.05 0.1 0.05 0.1 0.1 0.05 0.1 0.1 H 0.4 v -0.1 -0.1 -0.05 -0.1 -0.1 -0.05 -0.1 -0.05 -0.1 -0.1 -0.05 l 0.05,-0.1 v -0.1 -0.05 -0.1 -0.1 -0.05 -0.1 -0.05 -0.1 -0.1 -0.05 -0.1 -0.1 -0.05 -0.1 -0.05 -0.1 -0.1 -0.05 -0.1 -0.1 -0.05 -0.1 -0.05 -0.1 -0.1 -0.05 -0.1 -0.1 -0.05 -0.1 -0.1 -0.05 -0.1 -0.05 -0.1 -0.1 -0.05 -0.1 -0.1 -0.05 -0.1 -0.05 -0.1 -0.1 -0.05 -0.1 -0.1 -0.05 -0.1 -0.1 -0.05 -0.1 -0.05 -0.1 -0.1 -0.05 -0.1 -0.1 -0.05 -0.1 -0.05 -0.1 -0.1 -0.05 -0.1 -0.1 -0.05 -0.1 -0.1 -0.05 -0.1 -0.05 -0.1 -0.1 V 42.4 42.3 42.2 42.15 42.05 42 41.9 41.8 41.75 41.65 41.55 41.5 41.4 41.35 41.25 41.15 41.1 41 40.9 40.85 40.75 40.65 40.6 40.5 40.45 40.35 40.25 40.2 40.1 40 39.95 39.85 39.8 39.7 39.6 39.55 l 0.05,-0.1 v -0.1 -0.05 -0.1 -0.1 -0.05 -0.1 -0.05 -0.1 -0.1 -0.05 -0.1 L 0.45,38.45 0.5,38.4 v -0.1 -0.05 -0.1 -0.1 L 0.55,38 V 37.9 L 0.45,37.8 0.35,37.75 0.3,37.65 0.25,37.55 0.2,37.5 0.15,37.4 V 37.35 37.25 37.15 37.1 37 L 0.2,36.9 V 36.85 L 0.25,36.75 0.3,36.7 0.4,36.6 h 0.05 l 0.1,-0.1 0.1,-0.05 H 0.7 L 0.65,36 Q 0.65,35.5 1,35.2 L 1.25,34.8 1.8,34.5 2.2,34.4 3.3,34.25 4.2,34.3 5.1,34.25 h 2.3 l 0.75,0.1 q 0.45,0.2 0.4,0.55 l -0.25,0.3 -0.05,0.05 0.2,0.2 h 0.1 M 15.7,6.5 15.85,7.55 15.75,8 15.7,8.6 Q 15.4,9.15 14.8,8.85 L 14.35,8.45 14.15,7.95 13.9,7.6 13.7,7.1 12.95,6.1 Q 12.6,5.75 12.6,5.35 L 12.4,5.05 12.1,3.95 Q 12,3.35 12.25,2.8 12.7,1.85 13.75,1.85 14.5,1.8 15.2,2.6 l 0.15,0.3 0.25,0.8 v 0.8 l 0.2,0.9 -0.1,0.4 v 0.7 m -6.5,0.35 2.3,3.75 0.55,0.8 q 0.2,0.6 -0.15,0.9 -0.4,0.45 -1.1,0.15 Q 9.95,12.2 8.6,10.95 L 3.9,6.75 2.95,5.65 Q 2.4,4.5 3.15,3.6 3.9,2.6 5.1,2.85 6.1,3.1 7.2,4.55 L 8.65,6.3 9.2,6.85 m 0.55,8.6 q -0.1,0.5 -0.6,0.65 H 8.25 L 5.15,15.3 3.55,15 q -1.2,-0.3 -1.65,-0.85 -0.6,-0.7 -0.45,-1.6 0.15,-0.9 1,-1.3 l 1.4,-0.15 0.95,0.5 2.8,1.8 1.05,0.7 0.55,0.35 0.4,0.5 0.15,0.5 M 2.75,59.2 2.6,59.3 2.45,59.35 H 2.3 L 2.05,59.4 1.75,59.35 1.55,59.3 1.35,59.25 1.2,59.15 1.1,59.05 0.95,59 0.9,58.9 0.85,58.85 0.7,58.75 0.6,58.65 0.5,58.6 0.45,58.5 0.35,58.4 0.3,58.35 0.25,58.25 V 58.2 58.1 L 0.2,58 v -0.05 -0.1 -0.1 -0.05 -0.1 L 0.25,57.5 V 57.45 L 0.3,57.35 V 57.3 l 0.05,-0.1 0.1,-0.1 v -0.05 -0.1 -0.1 -0.05 -0.1 -0.05 -0.1 -0.1 -0.05 -0.1 -0.1 -0.05 -0.1 -0.1 L 0.4,55.9 v -0.1 -0.05 -0.1 -0.1 -0.05 -0.1 -0.1 -0.05 -0.1 -0.05 -0.1 -0.1 -0.05 -0.1 -0.1 -0.05 -0.1 -0.05 -0.1 -0.1 -0.05 -0.1 -0.1 -0.05 -0.1 -0.1 -0.05 -0.1 -0.05 -0.1 -0.1 -0.05 -0.1 -0.1 -0.05 -0.1 -0.05 -0.1 -0.1 -0.05 -0.1 -0.1 V 52.4 52.3 52.2 52.15 52.05 52 h 64.05 v 0.05 0.1 0.05 0.1 0.1 0.05 0.1 0.1 0.05 0.1 0.1 0.05 0.1 0.05 0.1 0.1 0.05 0.1 0.1 0.05 0.1 0.05 0.1 0.1 0.05 0.1 0.1 0.05 0.1 0.1 0.05 0.1 0.05 0.1 0.1 0.05 0.1 0.1 0.05 l -0.05,0.1 v 0.05 l 0.05,0.1 v 0.1 0.05 0.1 0.1 0.05 0.1 0.05 0.1 0.1 0.05 0.1 0.1 0.05 l -0.05,0.1 v 0.1 0.05 0.1 0.05 0.1 0.1 l -0.05,0.05 v 0.1 0.1 l -0.05,0.05 -0.05,0.1 v 0.05 l -0.05,0.1 -0.05,0.1 v 0.05 l -0.05,0.1 -0.1,0.1 -0.05,0.05 -0.1,0.1 -0.1,0.1 -0.15,0.05 -0.15,0.1 -0.1,0.05 -0.05,0.1 -0.05,0.05 -0.05,0.1 -0.05,0.05 -0.05,0.1 -0.1,0.1 -0.1,0.05 -0.1,0.1 -0.15,0.1 L 62.5,59.2 62.3,59.25 62,59.3 H 61.9 L 61.6,59.25 H 60.8 59.1 58.45 58.2 57.9 57.3 54.6 l -0.7,0.05 h -1.35 l -1.1,-0.05 H 50.8 L 50.05,59.2 h -1.2 -3 -1.1 l -4.1,-0.05 H 35.7 31.75 27 L 16.35,59.2 h -7.9 l -1.4,0.05 H 5.2 L 3.4,59.2 H 2.75"
         fill="#999999"
         fill-rule="evenodd"
         stroke="none"
         id="path4" />
      <path
         d="m 21.55,14.8 0.35,0.15 2.25,1.45 1.15,0.8 0.4,-0.2 q 1.35,-0.6 2.95,-0.8 l 6.65,-0.3 q 3.15,0.35 4.95,1.4 l 0.4,0.25 0.45,-0.3 2.45,-1.55 q 0.6,-0.5 1.35,-0.9 l 1.6,-0.25 q 0.5,0.1 0.9,0.45 l 0.85,0.95 0.3,1.6 v 1.1 l 0.05,0.45 -0.45,3.95 -0.2,1.7 -0.1,0.85 q 0.35,1.55 0.35,4 L 48,33.35 47.9,34 q -0.55,2.45 -2.2,4.6 -1.6,2.05 -3.85,3.4 l -0.85,0.5 0.1,0.1 0.8,1.35 0.15,0.55 2.95,-1.1 v 0.05 l 1.35,-0.7 1.95,-1.2 0.25,-0.2 0.05,-0.05 0.1,-0.1 0.15,-0.1 0.2,-0.15 0.05,-0.1 0.65,-0.65 1.65,-2.3 q 1.3,-2.4 2.05,-5.85 0.9,-4 0.45,-6.8 Q 53.7,23.5 52.65,20.8 51.2,16.8 49.8,15 47.65,12.1 43.5,10.4 41.15,9.5 37.85,9 l -2,-0.3 -4.05,-0.1 -3.15,0.5 -0.85,0.2 -2.15,0.5 -1.1,0.25 -0.1,0.05 -0.3,0.05 -0.1,0.05 -0.15,0.05 -0.25,0.05 q -2.75,0.85 -4.6,2.2 -3.4,2.35 -5.15,6.6 l -0.55,1.4 -0.1,0.4 -0.45,1.65 -0.1,0.55 -0.25,1.15 -0.35,3.05 -0.1,0.85 v 0.15 l -0.05,1.35 -0.05,0.75 q 0,2.25 0.25,3.35 0.55,2.55 3.55,5.9 l 2.7,2.6 2.55,1.2 1.45,0.5 q 0.15,-0.65 0.65,-1.45 l 0.25,-0.4 q -1.55,-1 -2.9,-2.4 -1.45,-1.5 -2.3,-3.25 l -0.5,-1.05 -0.8,-4.2 0.05,-0.8 q 0.15,-1.5 1,-3.75 L 17.8,26.6 17.55,25.25 17.45,24.05 17.35,23.4 17.2,20.7 q 0.1,-2.15 0.9,-4 0.45,-1.05 1.1,-1.65 0.8,-0.7 1.8,-0.55 l 0.55,0.3 m -0.2,-7.9 4.3,-1 2.95,-0.75 7.7,-0.25 q 4.55,0.25 7.7,1.35 6.25,2.25 9.65,8.1 1.25,2.1 2.4,5.4 1.35,3.8 1.45,6.25 l -0.05,3.1 q -0.6,5.55 -2.7,9.55 l -0.1,0.2 1.95,-0.3 1.4,0.1 0.9,0.95 1,1.4 0.95,1.85 3.35,5 0.65,1.15 0.15,0.5 h -1.45 l 0.4,2.4 V 52 H 65 l -0.15,0.75 q -0.25,0.75 -1,0.85 v 0.1 0.1 0.1 0.05 0.1 l -0.05,0.1 v 0.05 l -0.05,0.1 -0.05,0.05 v 0.1 l -0.1,0.1 -0.05,0.05 -0.05,0.1 -0.1,0.1 -0.15,0.05 -0.1,0.1 L 63,55 h -0.1 l -0.1,0.05 -0.25,0.05 h -1.2 -0.1 -0.2 -0.25 -2.2 -0.95 -0.4 l -1,-0.05 H 56.15 54.4 54.05 52.7 52.35 51.75 49.6 l -3.3,0.05 h -0.8 l -1.35,0.05 H 34.5 28.55 17.5 L 8.4,55.1 H 4.55 l -0.7,0.05 h -1 l -0.5,0.05 -1,0.05 -0.2,0.05 -0.2,0.1 -0.1,0.05 -0.1,0.05 H 0.65 L 0.35,55.55 0.1,55.5 -0.1,55.45 -0.3,55.4 -0.45,55.3 -0.55,55.2 -0.65,55.15 -0.7,55.05 -0.8,54.95 -0.85,54.9 -0.9,54.8 -0.95,54.7 -1,54.65 v -0.1 L -1.05,54.5 V 54.4 L -1.1,54.3 v -0.05 -0.1 -0.1 -0.05 -0.1 -0.05 -0.1 -0.1 -0.05 l 0.05,-0.1 V 53.4 53.35 L -1,53.25 -0.95,53.2 V 53.1 L -0.9,53 -0.8,52.95 v -0.1 l 0.05,-0.1 0.05,-0.05 v -0.1 l 0.05,-0.1 0.05,-0.05 v -0.1 l 0.05,-0.05 0.05,-0.1 0.05,-0.1 0.05,-0.05 V 52 H 0.75 L 1.1,50.35 1.35,49.5 H -0.4 v -0.05 l 0.05,-0.1 0.05,-0.05 v -0.1 l 0.1,-0.05 0.05,-0.1 v -0.1 L -0.1,48.9 V 48.8 L -0.05,48.7 0,48.65 v -0.1 l 0.05,-0.1 V 48.4 L 0.1,48.3 0.15,48.25 v -0.1 L 0.2,48.05 0.25,48 0.3,47.9 0.35,47.8 0.4,47.75 0.45,47.65 0.55,47.6 0.6,47.5 0.65,47.4 0.7,47.35 0.75,47.25 V 47.15 47.1 L 0.8,47 0.85,46.9 V 46.85 L 0.95,46.75 1,46.7 1.05,46.6 1.1,46.5 v -0.05 l 0.05,-0.1 0.05,-0.1 0.05,-0.05 0.1,-0.1 0.05,-0.05 0.05,-0.1 0.05,-0.1 V 45.8 L 1.55,45.7 1.6,45.6 1.65,45.55 1.7,45.45 V 45.4 L 1.75,45.3 V 45.2 L 1.8,45.15 1.85,45.05 1.9,44.95 1.95,44.9 2,44.8 2.05,44.7 2.1,44.65 2.15,44.55 V 44.5 L 2.2,44.4 2.25,44.3 2.3,44.25 2.35,44.15 2.4,44.05 2.45,44 V 43.9 L 2.5,43.85 2.55,43.75 2.6,43.65 V 43.6 L 2.65,43.5 V 43.4 L 2.7,43.35 v -0.1 L 2.75,43.15 2.8,43.1 V 43 l 0.05,-0.05 v -0.1 L 2.9,42.75 2.95,42.7 3,42.6 3.05,42.5 3.1,42.45 v -0.1 L 3.15,42.3 3.2,42.2 3.25,42.1 3.3,42.05 3.35,41.95 3.4,41.85 V 41.8 L 3.45,41.7 3.5,41.6 3.55,41.55 v -0.1 L 3.6,41.4 3.65,41.3 3.7,41.2 3.75,41.15 v -0.1 L 3.85,40.95 3.9,40.9 3.95,40.8 V 40.75 L 4,40.65 4.05,40.55 4.1,40.5 V 40.4 40.3 L 4.15,40.25 4.2,40.15 V 40.1 L 4.25,40 4.3,39.9 4.35,39.85 v -0.1 L 4.4,39.65 V 39.6 L 4.45,39.5 4.5,39.4 4.55,39.35 4.6,39.25 V 39.2 L 4.65,39.1 4.7,39 4.8,38.95 4.9,38.85 4.95,38.75 5.1,38.7 5.25,38.6 5.35,38.55 h 0.1 l 0.1,-0.05 0.1,-0.05 H 5.8 L 6.05,38.4 H 6.7 l 0.35,0.05 H 7.2 L 7.45,38.4 7.7,38.45 h 0.1 l 0.15,0.05 h 0.2 l 0.2,-0.05 h 0.2 0.2 Q 7.65,36.55 7.25,34.7 6.7,32.4 7.1,28.65 7.95,20.8 11,15.55 q 1.85,-3.1 4.4,-5.3 2.75,-2.35 5.95,-3.35 m 18.1,28.75 q 1.55,1.05 3.3,0.3 1.75,-0.75 2.05,-2.6 0.3,-1.7 -0.9,-3 -0.9,-0.95 -2.15,-1.1 0,1.95 -1.35,3.55 l -2,1.75 0.05,0.15 1,0.95 m 8.6,10.2 q -3.3,1.95 -9.6,2.9 L 33,49.3 27.95,48.95 23.15,48.3 19.2,47.1 q -2.4,-0.75 -3.75,-1.5 -1.3,-0.8 -2.8,-2.3 l -2.6,-2.95 H 10 9.9 L 9.65,40.4 9.45,40.45 H 9.35 L 9.15,40.5 H 8.9 8.65 l -0.1,0.05 -0.1,0.05 H 8.35 L 8.1,40.65 7.95,40.7 7.8,40.8 7.7,40.85 H 7.6 L 7.4,40.9 H 7.3 L 7.05,40.95 6.75,41 6.7,41.1 6.65,41.15 v 0.1 L 6.6,41.35 6.55,41.4 v 0.1 l -0.05,0.05 -0.05,0.1 v 0.1 L 6.4,41.8 6.35,41.9 V 42 l -0.1,0.05 v 0.1 L 6.2,42.2 6.15,42.3 v 0.1 l -0.05,0.05 -0.05,0.1 -0.1,0.1 -0.05,0.05 -0.05,0.1 v 0.05 L 5.8,42.95 5.75,43.05 5.7,43.1 5.65,43.2 5.6,43.3 v 0.05 l -0.05,0.1 v 0.1 L 5.5,43.6 v 0.1 L 5.45,43.75 5.35,43.85 5.3,43.95 5.25,44 v 0.1 L 5.2,44.2 v 0.05 l -0.05,0.1 V 44.4 L 5.1,44.5 v 0.1 L 5,44.65 v 0.1 L 4.95,44.85 4.9,44.9 V 45 l -0.05,0.1 v 0.05 L 4.8,45.25 4.75,45.3 4.7,45.4 4.65,45.5 4.6,45.55 4.55,45.65 v 0.1 L 4.5,45.8 4.45,45.9 4.4,45.95 v 0.1 L 4.35,46.15 4.3,46.2 4.25,46.3 v 0.1 L 4.2,46.45 4.15,46.55 4.1,46.65 V 46.7 L 4.05,46.8 4,46.85 v 0.1 L 3.95,47.05 3.9,47.1 v 0.1 l -0.05,0.1 v 0.05 L 3.8,47.45 3.75,47.5 3.7,47.6 3.65,47.7 v 0.05 l -0.05,0.1 -0.05,0.1 V 48 L 3.5,48.1 v 0.05 l -0.05,0.1 v 0.1 0.05 L 3.4,48.5 3.15,49.15 3.05,49.5 Q 2.8,50.4 2.7,52 h 0.15 l -0.05,0.3 1.05,0.05 0.7,0.05 H 8.4 l 9.1,-0.05 h 11.05 5.95 9.65 l 1.35,0.05 h 0.8 l 3.3,0.05 h 2.15 0.6 0.35 1.35 0.35 1.75 0.1 l 1,-0.05 h 0.4 0.95 2.2 0.25 0.2 0.1 0.25 L 61.8,52.1 61.75,52 h 0.15 l 0.05,-0.05 -0.2,-2.45 -1.7,-2.7 -2.35,-3.65 Q 57,41.8 56.55,41.55 l -1.45,-0.15 -1.7,0.1 -0.45,0.05 q -2.1,2.65 -4.9,4.3 m -25.8,-11.1 q 0.65,1.65 2.4,2.15 1.75,0.4 3.15,-0.75 l 1.05,-1.55 q -1.4,-0.75 -2.55,-1.95 -0.85,-0.85 -1.25,-1.8 l -0.3,-0.9 q -0.8,0.15 -1.45,0.7 -1.3,1.05 -1.3,2.7 l 0.1,0.8 0.15,0.6 M 2.95,52 2.85,52.05 V 52 h 0.1"
         fill="#000000"
         fill-rule="evenodd"
         stroke="none"
         id="path5" />
      <path
         d="m 48.15,23.05 0.05,-0.4 0.8,0.4 q 1.6,1.1 2.2,3.25 0.5,1.7 0.05,3.95 l -0.4,1.25 q -0.45,1 -1.15,1.45 -0.8,0.6 -1.7,0.4 l 0.2,-3.75 q 0,-2.45 -0.35,-4 l 0.1,-0.85 0.2,-1.7 M 45,43.4 45.2,42.3 45.75,41.3 47,40 48.7,38.85 q 1.7,-0.95 2.55,-0.95 h 0.15 l -1.65,2.3 -0.65,0.65 -0.05,0.1 -0.2,0.15 -0.15,0.1 -0.1,0.1 -0.05,0.05 -0.25,0.2 -1.95,1.2 -1.35,0.7 V 43.4 M 37.85,9 37.7,9.15 q -0.6,0.9 -1.95,1.25 L 33.4,10.95 32.2,11.3 29.25,10.9 28.4,10.55 Q 27.8,10.1 27.8,9.4 V 9.3 l 0.85,-0.2 3.15,-0.5 4.05,0.1 2,0.3 M 25.65,9.8 V 9.85 L 25.6,10.55 24.3,12.4 22.5,13.85 21.55,14.8 21,14.5 q -1,-0.15 -1.8,0.55 -0.65,0.6 -1.1,1.65 -0.8,1.85 -0.9,4 l 0.15,2.7 0.1,0.65 q -1.3,1.9 -3.1,2.85 -1.1,0.65 -2.05,0.45 l -0.2,-0.05 0.35,-3.05 0.25,-1.15 0.1,-0.55 0.1,-0.35 0.85,-2.1 0.15,-1 q 1.75,-4.25 5.15,-6.6 1.85,-1.35 4.6,-2.2 l 0.25,-0.05 0.15,-0.05 0.1,-0.05 0.3,-0.05 0.1,-0.05 1.1,-0.25 m -8.85,21.4 0.8,4.2 0.5,1.05 q -0.85,0.5 -1.8,0.5 -0.95,0.1 -1.85,-0.55 -1.2,-0.8 -1.35,-2.15 -0.25,-1.4 0.65,-2.55 0.95,-1.1 2.35,-1.2 l 0.75,0.1 -0.05,0.6 m 22.65,4.45 -1,-0.95 -0.05,-0.15 2,-1.75 q 1.35,-1.6 1.35,-3.55 1.25,0.15 2.15,1.1 1.2,1.3 0.9,3 -0.3,1.85 -2.05,2.6 -1.75,0.75 -3.3,-0.3 m 8.6,10.2 q 2.8,-1.65 4.9,-4.3 l 0.45,-0.05 1.7,-0.1 1.45,0.15 q 0.45,0.25 1.15,1.6 l 2.35,3.65 1.7,2.7 0.2,2.45 L 61.9,52 h -0.15 l 0.05,0.1 -0.2,0.3 h -0.25 -0.1 -0.2 -0.25 -2.2 -0.95 -0.4 l -1,0.05 H 56.15 54.4 54.05 52.7 52.35 51.75 49.6 L 46.3,52.4 H 45.5 L 44.15,52.35 H 34.5 28.55 17.5 L 8.4,52.4 H 4.55 L 3.85,52.35 2.8,52.3 2.85,52 H 2.7 Q 2.8,50.4 3.05,49.5 L 3.15,49.15 3.4,48.5 3.45,48.4 v -0.05 -0.1 L 3.5,48.15 V 48.1 L 3.55,48 v -0.05 l 0.05,-0.1 0.05,-0.1 V 47.7 L 3.7,47.6 3.75,47.5 3.8,47.45 3.85,47.35 V 47.3 L 3.9,47.2 V 47.1 L 3.95,47.05 4,46.95 v -0.1 L 4.05,46.8 4.1,46.7 V 46.65 L 4.15,46.55 4.2,46.45 4.25,46.4 V 46.3 L 4.3,46.2 4.35,46.15 4.4,46.05 v -0.1 L 4.45,45.9 4.5,45.8 4.55,45.75 v -0.1 L 4.6,45.55 4.65,45.5 4.7,45.4 4.75,45.3 4.8,45.25 4.85,45.15 V 45.1 L 4.9,45 V 44.9 L 4.95,44.85 5,44.75 v -0.1 L 5.1,44.6 V 44.5 L 5.15,44.4 V 44.35 L 5.2,44.25 V 44.2 L 5.25,44.1 V 44 l 0.05,-0.05 0.05,-0.1 0.1,-0.1 0.05,-0.05 v -0.1 l 0.05,-0.05 v -0.1 L 5.6,43.35 V 43.3 L 5.65,43.2 5.7,43.1 5.75,43.05 5.8,42.95 5.85,42.85 V 42.8 L 5.9,42.7 5.95,42.65 6.05,42.55 6.1,42.45 6.15,42.4 V 42.3 L 6.2,42.2 6.25,42.15 v -0.1 L 6.35,42 V 41.9 L 6.4,41.8 6.45,41.75 v -0.1 L 6.5,41.55 6.55,41.5 v -0.1 l 0.05,-0.05 0.05,-0.1 v -0.1 L 6.7,41.1 6.75,41 7.05,40.95 7.3,40.9 H 7.4 L 7.6,40.85 H 7.7 L 7.8,40.8 7.95,40.7 8.1,40.65 8.35,40.6 h 0.1 l 0.1,-0.05 0.1,-0.05 H 8.9 9.15 l 0.2,-0.05 h 0.1 L 9.65,40.4 9.9,40.35 h 0.1 0.05 l 2.6,2.95 q 1.5,1.5 2.8,2.3 1.35,0.75 3.75,1.5 l 3.95,1.2 4.8,0.65 5.05,0.35 5.45,-0.55 q 6.3,-0.95 9.6,-2.9 M 22.25,34.75 22.1,34.15 22,33.35 q 0,-1.65 1.3,-2.7 0.65,-0.55 1.45,-0.7 l 0.3,0.9 q 0.4,0.95 1.25,1.8 1.15,1.2 2.55,1.95 L 27.8,36.15 Q 26.4,37.3 24.65,36.9 22.9,36.4 22.25,34.75 M 2.95,52 h -0.1 v 0.05 L 2.95,52"
         fill="#ffffff"
         fill-rule="evenodd"
         stroke="none"
         id="path6" />
      <path
         d="M 48.15,23.05 48.6,19.1 48.55,18.65 v -1.1 L 48.25,15.95 47.4,15 Q 47,14.65 46.5,14.55 l -1.6,0.25 q -0.75,0.4 -1.35,0.9 l -2.45,1.55 -0.45,0.3 -0.4,-0.25 q -1.8,-1.05 -4.95,-1.4 l -6.65,0.3 q -1.6,0.2 -2.95,0.8 l -0.4,0.2 -1.15,-0.8 -2.25,-1.45 -0.35,-0.15 0.95,-0.95 1.8,-1.45 1.3,-1.85 0.05,-0.7 V 9.8 L 27.8,9.3 v 0.1 q 0,0.7 0.6,1.15 l 0.85,0.35 2.95,0.4 1.2,-0.35 2.35,-0.55 Q 37.1,10.05 37.7,9.15 L 37.85,9 q 3.3,0.5 5.65,1.4 4.15,1.7 6.3,4.6 1.4,1.8 2.85,5.8 1.05,2.7 1.25,4.45 0.45,2.8 -0.45,6.8 -0.75,3.45 -2.05,5.85 h -0.15 q -0.85,0 -2.55,0.95 L 47,40 45.75,41.3 45.2,42.3 45,43.4 42.05,44.5 41.9,43.95 41.1,42.6 41,42.5 41.85,42 Q 44.1,40.65 45.7,38.6 47.35,36.45 47.9,34 L 48,33.35 q 0.9,0.2 1.7,-0.4 0.7,-0.45 1.15,-1.45 l 0.4,-1.25 Q 51.7,28 51.2,26.3 50.6,24.15 49,23.05 l -0.8,-0.4 -0.05,0.4 m -30.7,1 0.1,1.2 0.25,1.35 0.05,0.05 q -0.85,2.25 -1,3.75 l -0.05,0.8 0.05,-0.6 -0.75,-0.1 q -1.4,0.1 -2.35,1.2 -0.9,1.15 -0.65,2.55 0.15,1.35 1.35,2.15 0.9,0.65 1.85,0.55 0.95,0 1.8,-0.5 0.85,1.75 2.3,3.25 1.35,1.4 2.9,2.4 l -0.25,0.4 q -0.5,0.8 -0.65,1.45 l -1.45,-0.5 -2.55,-1.2 -2.7,-2.6 Q 12.7,36.3 12.15,33.75 11.9,32.65 11.9,30.4 L 11.95,29.65 12,28.3 v -0.15 l 0.1,-0.85 0.2,0.05 q 0.95,0.2 2.05,-0.45 1.8,-0.95 3.1,-2.85 m -4.65,-1.5 0.45,-1.65 0.1,-0.4 0.55,-1.4 -0.15,1 -0.85,2.1 -0.1,0.35"
         fill="#999999"
         fill-rule="evenodd"
         stroke="none"
         id="path7" />
    </g>
    <g
       id="shape2"
       transform="translate(1.5,1.5)">
      <path
         d="M 0,23.8 V 0 H 64.1 V 23.8 57.55 H 0 Z"
         fill="none"
         stroke="#000000"
         stroke-linecap="round"
         stroke-linejoin="round"
         stroke-width="3"
         id="path8" />
    </g>
  </defs>
</svg>
