<?xml version="1.0" encoding="UTF-8" standalone="no"?>
<svg
   ffdec:objectType="frame"
   height="60.549999"
   width="67.099998"
   version="1.1"
   id="svg7"
   sodipodi:docname="87.svg"
   xmlns:inkscape="http://www.inkscape.org/namespaces/inkscape"
   xmlns:sodipodi="http://sodipodi.sourceforge.net/DTD/sodipodi-0.dtd"
   xmlns:xlink="http://www.w3.org/1999/xlink"
   xmlns="http://www.w3.org/2000/svg"
   xmlns:svg="http://www.w3.org/2000/svg"
   xmlns:ffdec="https://www.free-decompiler.com/flash">
  <sodipodi:namedview
     id="namedview7"
     pagecolor="#ffffff"
     bordercolor="#000000"
     borderopacity="0.25"
     inkscape:showpageshadow="2"
     inkscape:pageopacity="0.0"
     inkscape:pagecheckerboard="0"
     inkscape:deskcolor="#d1d1d1"
     fit-margin-top="5"
     fit-margin-left="5"
     fit-margin-right="5"
     fit-margin-bottom="5" />
  <g
     transform="translate(1.5,1.5)"
     id="g3">
    <use
       ffdec:characterId="516"
       height="57.549999"
       width="64.099998"
       xlink:href="#shape0"
       id="use1" />
    <use
       ffdec:characterId="599"
       height="54.099998"
       transform="translate(-0.15,3.1)"
       width="64.099998"
       xlink:href="#shape1"
       id="use2" />
    <use
       ffdec:characterId="518"
       height="60.549999"
       transform="translate(-1.5,-1.5)"
       width="67.099998"
       xlink:href="#shape2"
       id="use3" />
  </g>
  <defs
     id="defs7">
    <g
       id="shape0">
      <path
         d="M 53.6,0 H 64.1 V 57.55 H 53.6 28.25 0 V 0 H 28.25 53.6 V 57.55 0 M 28.25,0 V 57.55 0"
         fill="#ffffff"
         fill-rule="evenodd"
         stroke="none"
         id="path3" />
    </g>
    <g
       id="shape1"
       transform="translate(0.15,-3.1)">
      <path
         d="M 52.65,26.25 H 52.8 L 53,26.3 h 0.1 l 0.1,0.05 h 0.05 l 0.15,0.05 0.15,0.05 0.1,0.05 0.1,0.1 0.1,0.05 0.05,0.05 0.1,0.05 v 0.1 l 0.1,0.05 0.05,0.05 v 0.1 l 0.05,0.05 0.05,0.05 v 0.05 l 0.05,0.1 0.4,0.5 0.25,1.05 L 54.9,30 v 3.55 l -0.05,0.55 h 2.1 l 0.55,-0.05 h 0.8 L 59.1,34 H 59.95 61 l 0.25,-0.05 h 0.25 0.3 V 33.9 h 0.55 0.1 l 0.2,0.05 0.2,0.05 0.15,0.05 0.15,0.05 0.1,0.05 0.05,0.1 0.1,0.05 0.05,0.05 0.05,0.05 0.05,0.1 0.05,0.05 0.05,0.05 0.05,0.1 v 0.05 l 0.05,0.05 v 0.05 l 0.05,0.1 v 0.15 l 0.05,0.1 v 0.15 0.1 0.3 0.1 0.1 0.1 0.15 0.1 0.15 0.1 0.05 l 0.05,0.05 v 0.05 0.1 0.15 0.1 0.1 0.1 0.15 0.1 0.15 0.1 0.15 0.1 0.1 0.1 0.15 0.1 0.15 0.1 0.15 0.1 0.15 0.1 0.1 0.1 0.15 0.1 0.15 0.1 0.15 0.1 0.1 0.1 0.15 0.1 0.15 0.1 0.15 0.1 0.15 0.1 0.1 0.1 0.15 0.1 0.15 0.1 0.15 0.1 0.1 0.1 0.15 0.1 0.15 0.1 0.15 0.1 0.15 0.1 0.1 0.1 0.15 0.1 0.15 0.1 0.15 0.1 0.1 0.1 0.15 0.1 0.15 0.1 0.15 0.1 0.15 0.1 0.1 0.1 0.15 0.1 0.15 0.1 0.15 0.1 0.15 0.1 0.1 0.1 0.15 0.1 0.15 0.1 0.15 0.1 0.1 0.1 0.15 0.1 0.15 0.1 0.15 0.1 0.15 0.1 0.1 0.1 0.15 0.1 0.15 0.1 0.15 0.1 0.1 0.1 0.15 0.1 0.15 0.1 0.15 0.1 0.15 0.1 0.1 0.1 0.15 0.1 0.15 0.1 0.15 0.1 0.1 0.1 0.15 0.1 0.15 0.1 0.15 0.1 0.15 0.1 0.1 0.1 0.15 0.1 0.15 0.1 0.15 0.1 0.1 0.1 0.15 0.1 l 0.05,0.05 v 0.1 0.1 0.15 0.1 0.15 0.1 0.1 0.1 0.15 l -0.05,0.1 v 0.05 L 63.85,56 v 0.05 l -0.05,0.1 v 0.05 l -0.1,0.1 -0.05,0.1 -0.05,0.05 -0.05,0.05 -0.1,0.1 -0.1,0.05 -0.1,0.05 -0.1,0.05 L 63,56.8 62.9,56.85 H 62.7 62.45 L 62.3,56.8 62.15,56.7 62,56.65 61.95,56.6 61.7,56.65 H 61.25 L 61.1,56.7 h -0.4 -0.5 l -1.05,0.05 H 57.5 l -0.8,0.05 h -0.8 l -0.95,0.05 H 49.2 47.6 L 46.35,56.9 H 46.1 l -0.25,0.05 h -0.2 L 45.4,57 H 45 44.2 l -0.65,0.05 H 41.9 L 39.75,57.1 H 38.85 18.4 l -6.65,0.05 H 9.95 4.35 4.25 L 4.05,57.2 3.8,57.15 H 3.7 L 3.65,57.1 H 3.25 2.95 1.8 1.6 L 1.4,57.05 1.25,57 1.1,56.95 1,56.85 0.95,56.8 0.9,56.75 0.85,56.7 0.7,56.65 0.55,56.6 0.45,56.5 0.35,56.4 0.3,56.3 0.2,56.25 0.15,56.2 0.1,56.15 0.05,56.05 0,56 V 55.9 L -0.05,55.8 -0.1,55.75 v -0.1 -0.1 -0.1 -0.1 L -0.15,55.3 v -0.1 -0.1 -0.15 -0.1 -0.15 -0.1 -0.15 -0.1 -0.1 -0.1 V 54 53.9 53.75 53.65 53.5 l 0.05,-0.1 v -0.1 -0.1 -0.15 -0.1 -0.15 -0.1 -0.15 -0.1 -0.15 -0.1 -0.1 -0.1 -0.15 -0.1 -0.15 -0.1 -0.15 -0.1 -0.1 -0.1 -0.15 -0.1 -0.15 -0.1 -0.15 -0.1 -0.15 -0.1 -0.1 -0.1 -0.15 -0.1 -0.15 -0.1 L -0.05,49.3 V 49.2 49.1 49 48.9 48.75 48.65 48.5 48.4 48.25 L 0,48.15 V 48 v -0.1 -0.1 -0.1 -0.15 -0.1 -0.15 -0.1 -0.15 -0.1 -0.1 -0.1 -0.15 -0.1 -0.15 -0.1 -0.15 -0.1 -0.15 -0.1 -0.1 -0.1 -0.1 L 0.05,45.4 v -0.1 -0.15 -0.1 -0.15 -0.1 -0.15 -0.1 -0.1 -0.1 -0.15 -0.1 -0.15 -0.1 -0.15 -0.1 -0.1 -0.1 -0.1 L 0.1,43.25 V 43.15 43 42.9 42.75 42.65 42.5 42.4 l 0.05,-0.05 v -0.05 -0.1 -0.15 -0.1 -0.15 -0.1 -0.15 -0.1 -0.1 -0.1 -0.15 -0.1 -0.15 -0.1 -0.15 -0.1 -0.15 -0.1 -0.1 -0.1 -0.15 -0.1 -0.1 L 0.2,39.65 V 39.55 39.4 39.3 39.2 39.1 38.95 38.85 38.7 38.6 38.45 38.35 38.2 38.1 38 37.9 37.85 L 0.25,37.8 v -0.05 -0.1 -0.15 -0.1 -0.15 -0.1 -0.1 -0.1 L 0.3,36.9 v -0.1 -0.1 -0.15 -0.1 L 0.35,36.4 V 36.3 L 0.4,36.2 V 36.1 L 0.45,36.05 0.4,36 0.35,35.9 0.3,35.85 0.25,35.8 0.2,35.75 v -0.1 L 0.15,35.6 V 35.5 35.4 35.25 35.15 35.1 L 0.2,35.05 v -0.1 L 0.25,34.9 0.3,34.85 0.35,34.8 0.45,34.7 0.5,34.65 0.6,34.6 0.75,34.55 0.95,34.45 1.1,34.4 1.2,34.35 H 1.3 L 1.5,34.3 H 1.6 1.65 L 1.85,34.35 2,34.4 H 2.6 3.9 L 4.3,34.35 H 4.6 L 4.85,34.3 h 0.4 3.6 L 9.4,34.25 H 9.65 L 9.6,34.15 Q 8.8,31.45 9.45,29.05 L 9.75,28.3 9.65,28.25 9.6,28.15 9.55,28.1 9.5,28.05 v -0.1 L 9.45,27.9 V 27.8 27.7 27.6 L 9.5,27.55 9.55,27.45 V 27.4 L 9.6,27.35 9.7,27.3 9.75,27.2 9.95,27.15 10.05,27.1 H 10.1 L 10.25,27.05 10.4,27 h 0.15 l 0.1,-0.05 h 0.1 L 10.8,26.9 h 0.2 0.15 l 0.4,-0.05 H 12 l 0.4,-0.05 h 0.75 l 0.55,-0.05 h 0.55 0.3 l 0.8,-0.05 h 1.2 l 3.2,-0.05 h 0.7 2.65 l 3.25,-0.05 h 1.45 l 1.4,-0.05 h 4.25 7.1 2.95 L 44.1,26.5 H 44.75 47 l 0.3,-0.05 h 0.3 l 0.1,-0.05 h 0.25 l 0.45,-0.05 h 1.3 0.3 1.75 0.1 l 0.2,-0.05 h 0.2 0.4 v -0.05"
         fill="#999999"
         fill-rule="evenodd"
         stroke="none"
         id="path4" />
      <path
         d="m 52.35,47.1 q -1.75,2.3 -4.4,4 -6.85,4.35 -16.15,3.7 -9.35,0.65 -16.2,-3.7 -2.65,-1.7 -4.4,-4 L 9.6,44.3 Q 5.8,39.3 5.2,31.5 H 5.15 L 5.1,29.85 V 29 28.1 L 5.15,26.5 H 5.2 q 0.6,-7.8 4.4,-12.75 0.85,-1.8 1.6,-2.85 1.75,-2.35 4.4,-4.05 6.85,-4.35 16.2,-3.65 9.3,-0.7 16.15,3.65 2.65,1.7 4.4,4.05 l 1.7,2.85 Q 57.8,18.6 58.4,26.5 h 0.05 l 0.05,1.6 V 29 29.85 L 58.45,31.5 H 58.4 q -0.6,7.85 -4.35,12.8 l -1.7,2.8 M 12.2,37.6 q 2.8,6.7 11.4,10.05 4.05,1.65 7.65,1.7 V 49.2 49.1 49 48.9 48.75 48.65 48.5 48.4 48.25 48.15 48 v -0.1 -0.1 -0.1 -0.15 -0.1 -0.15 -0.1 -0.15 -0.1 -0.1 -0.1 -0.15 -0.1 -0.15 -0.1 -0.15 -0.1 -0.15 -0.1 -0.1 -0.1 -0.15 -0.1 -0.15 -0.1 -0.15 -0.1 -0.15 -0.1 -0.1 -0.1 -0.15 -0.1 -0.15 -0.1 -0.15 -0.1 -0.1 -0.1 -0.15 -0.05 h 0.55 1 v 0.05 0.15 0.1 0.1 0.1 0.15 0.1 0.15 0.1 0.15 0.1 0.1 0.1 0.15 0.1 0.15 0.1 0.15 0.1 0.15 0.1 0.1 0.1 0.15 0.1 0.15 0.1 0.15 0.1 0.15 0.1 0.1 0.1 0.15 0.1 0.15 0.1 0.15 0.1 0.1 0.1 0.15 0.1 0.15 0.1 0.15 0.1 0.15 0.1 0.1 0.1 0.1 q 3.65,-0.2 7.2,-1.65 8.55,-3.35 11.4,-10.05 0.95,-2.5 1.35,-6.05 l 0.1,-1.6 h -1.1 -2.55 -0.45 -1.2 L 45.65,30 45.7,28.45 h 1.85 1.2 0.45 2.55 1.15 L 52.75,26.4 Q 52.35,22.85 51.4,20.35 48.55,13.65 40,10.3 36.45,8.85 32.8,8.65 v 0.1 0.1 0.1 0.1 0.15 0.1 0.15 0.1 0.15 0.1 0.1 0.1 0.15 0.1 0.15 0.1 0.15 0.1 0.15 0.1 0.1 0.1 0.15 0.1 0.15 0.1 0.15 0.1 0.1 0.1 0.15 0.1 0.15 0.1 0.15 0.1 0.15 0.1 0.1 0.1 0.15 0.1 0.15 0.1 0.15 0.1 0.1 0.1 0.15 0.1 0.15 0.1 0.15 0.1 0.15 0.1 0.1 0.1 0.15 0.1 0.15 0.1 0.15 0.1 0.1 0.1 0.15 0.1 0.1 l -1.55,-0.2 v -0.15 -0.1 -0.1 -0.1 V 16 15.9 15.75 15.65 15.5 15.4 15.3 15.2 15.05 14.95 14.8 14.7 14.55 14.45 14.3 14.2 14.1 14 v -0.15 -0.1 -0.15 -0.1 -0.15 -0.1 -0.1 -0.1 -0.15 -0.1 -0.15 -0.1 -0.15 -0.1 -0.15 -0.1 -0.1 -0.1 V 11.7 11.6 11.45 11.35 11.2 11.1 11 10.9 10.75 10.65 10.5 10.4 10.25 10.15 10 9.9 9.8 9.7 9.55 9.45 9.3 9.2 9.05 8.95 8.85 8.75 8.6 q -3.6,0.05 -7.65,1.7 -8.6,3.35 -11.4,10.05 -1,2.5 -1.35,6.05 l -0.15,1.95 h 2.9 V 28.3 h 0.8 1.9 2.6 l -0.15,1.8 H 16.3 14.4 13.6 l -2.85,-0.05 0.1,1.5 Q 11.2,35.1 12.2,37.6 M 26.75,28.3 25.8,26.85 q -0.25,-0.7 -0.35,-1.8 v -1.3 L 25.3,23.65 24.75,23.2 q -0.6,-0.7 -0.6,-2.2 l 0.2,-1.55 Q 24.8,18.2 26,17.65 l 0.7,-0.25 q 2.05,-0.4 3.5,0.8 l 0.9,1.15 1.25,-0.05 1.15,0.1 1.05,-0.85 0.85,-0.2 q 2.05,-0.25 3.25,1.25 l 0.35,0.5 0.25,0.65 q 0.45,1.55 -0.8,2.45 l -0.4,0.3 -0.25,0.25 -0.2,0.2 0.05,0.75 -0.2,1.85 q -0.4,1.35 -1.5,2.25 l 0.3,0.3 q 2,2 1.85,5.25 -0.1,3 -2.15,4.4 -0.95,0.65 -2.2,0.9 l -3.85,0.2 -1.8,-0.5 q -0.4,-0.2 -1.45,-1 l -0.75,-0.85 -0.65,-0.2 -1.5,0.15 -0.65,0.8 Q 22.65,38.7 22,38.8 l -1.25,-0.05 -0.7,-0.2 q -0.4,-0.3 -0.45,-0.6 l -0.05,-0.55 0.15,-0.3 0.15,-0.05 0.1,0.1 1.45,0.2 0.5,-0.2 0.25,-0.4 q 0.45,-1 1.1,-1.45 0.55,-0.4 1.35,-0.5 h 0.3 q -0.1,-1.55 0.55,-3.05 0.7,-1.6 2.05,-2.7 L 26.75,28.3 m 7.35,-2.35 q -0.2,-0.3 -0.8,-0.3 h -0.25 l -0.15,-0.3 -0.4,-0.2 -0.4,0.2 -0.15,0.55 -0.35,0.1 q -1,0.5 -1.2,0.7 l -0.25,0.4 q -0.1,0.3 0.05,0.45 l 0.55,0.15 0.5,-0.25 q 0.75,-0.4 1.65,-0.3 l 1.1,-0.1 0.25,-0.7 -0.15,-0.4 m 3.3,-1.45 q 0.35,-0.8 0.1,-1.45 h -0.25 l -0.85,-0.3 -0.35,-0.1 -0.9,-0.5 -0.3,-0.4 q -1.1,0.35 -1.35,1.55 -0.15,0.75 0.25,1.45 0.45,0.7 1.15,0.9 l 1.5,-0.1 q 0.75,-0.35 1,-1.05 M 26.5,23.8 q -0.1,0.8 0.4,1.55 l 0.2,0.25 0.55,-0.4 q 1.5,-0.75 3,-0.45 l 0.2,0.05 q 0.2,-0.65 -0.05,-1.4 -0.25,-0.85 -0.95,-1.25 l -1.55,-0.2 q -0.85,0.15 -1.35,0.8 -0.35,0.45 -0.45,1.05"
         fill="#000000"
         fill-rule="evenodd"
         stroke="none"
         id="path5" />
      <path
         d="m 26.5,23.8 q 0.1,-0.6 0.45,-1.05 0.5,-0.65 1.35,-0.8 l 1.55,0.2 q 0.7,0.4 0.95,1.25 0.25,0.75 0.05,1.4 l -0.2,-0.05 q -1.5,-0.3 -3,0.45 L 27.1,25.6 26.9,25.35 Q 26.4,24.6 26.5,23.8 m 10.9,0.7 q -0.25,0.7 -1,1.05 l -1.5,0.1 q -0.7,-0.2 -1.15,-0.9 -0.4,-0.7 -0.25,-1.45 0.25,-1.2 1.35,-1.55 l 0.3,0.4 0.9,0.5 0.35,0.1 0.85,0.3 h 0.25 q 0.25,0.65 -0.1,1.45 m -3.3,1.45 0.15,0.4 -0.25,0.7 -1.1,0.1 q -0.9,-0.1 -1.65,0.3 L 30.75,27.7 30.2,27.55 Q 30.05,27.4 30.15,27.1 l 0.25,-0.4 q 0.2,-0.2 1.2,-0.7 l 0.35,-0.1 0.15,-0.55 0.4,-0.2 0.4,0.2 0.15,0.3 h 0.25 q 0.6,0 0.8,0.3"
         fill="#ffffff"
         fill-rule="evenodd"
         stroke="none"
         id="path6" />
    </g>
    <g
       id="shape2"
       transform="translate(1.5,1.5)">
      <path
         d="M 0,23.8 V 0 H 64.1 V 23.8 57.55 H 0 Z"
         fill="none"
         stroke="#000000"
         stroke-linecap="round"
         stroke-linejoin="round"
         stroke-width="3"
         id="path7" />
    </g>
  </defs>
</svg>
