<?xml version="1.0" encoding="UTF-8" standalone="no"?>
<svg
   ffdec:objectType="frame"
   height="60.549999"
   width="67.099998"
   version="1.1"
   id="svg8"
   sodipodi:docname="680.svg"
   xmlns:inkscape="http://www.inkscape.org/namespaces/inkscape"
   xmlns:sodipodi="http://sodipodi.sourceforge.net/DTD/sodipodi-0.dtd"
   xmlns:xlink="http://www.w3.org/1999/xlink"
   xmlns="http://www.w3.org/2000/svg"
   xmlns:svg="http://www.w3.org/2000/svg"
   xmlns:ffdec="https://www.free-decompiler.com/flash">
  <sodipodi:namedview
     id="namedview8"
     pagecolor="#ffffff"
     bordercolor="#000000"
     borderopacity="0.25"
     inkscape:showpageshadow="2"
     inkscape:pageopacity="0.0"
     inkscape:pagecheckerboard="0"
     inkscape:deskcolor="#d1d1d1"
     fit-margin-top="5"
     fit-margin-left="5"
     fit-margin-right="5"
     fit-margin-bottom="5" />
  <g
     transform="translate(1.5,1.5)"
     id="g3">
    <use
       ffdec:characterId="516"
       height="57.549999"
       width="64.099998"
       xlink:href="#shape0"
       id="use1" />
    <use
       ffdec:characterId="1170"
       height="52.200001"
       transform="translate(2.85,2.95)"
       width="56.400002"
       xlink:href="#shape1"
       id="use2" />
    <use
       ffdec:characterId="518"
       height="60.549999"
       transform="translate(-1.5,-1.5)"
       width="67.099998"
       xlink:href="#shape2"
       id="use3" />
  </g>
  <defs
     id="defs8">
    <g
       id="shape0">
      <path
         d="M 53.6,0 H 64.1 V 57.55 H 53.6 28.25 0 V 0 H 28.25 53.6 V 57.55 0 M 28.25,0 V 57.55 0"
         fill="#ffffff"
         fill-rule="evenodd"
         stroke="none"
         id="path3" />
    </g>
    <g
       id="shape1"
       transform="translate(-2.85,-2.95)">
      <path
         d="m 39.45,33.45 0.9,0.15 q 0.55,0.3 0.35,0.75 l -0.65,0.55 q 0.45,0.2 0.7,0.55 l 0.15,0.25 h 0.4 q 0.7,0.1 1.15,0.4 l 0.4,-0.05 q 0.45,0.05 0.8,0.45 1.05,-1.1 2.25,-1.15 0.25,-0.45 0.65,-0.75 0.55,-0.4 1.35,-0.4 0.75,0 1.3,0.45 l 0.85,1.15 0.3,0.7 q 0.7,-0.65 1.65,-0.45 l 0.95,0.45 1.05,0.85 0.4,0.75 0.25,1.5 -0.3,1.1 -0.2,0.55 -0.9,1.15 -1.6,1.2 -1.1,0.35 -0.25,0.85 -0.7,0.95 -1.25,0.95 -1.6,0.35 L 46.5,47 46.35,47.1 q 0.05,0.9 -0.7,2.15 -1.05,2.1 -2.25,2.8 l -2.65,0.5 -1.1,0.25 -0.6,0.65 Q 38.35,54.2 36.5,54.7 L 34.3,55.15 32.45,54.8 Q 31.6,54.45 30.9,53.85 L 30.05,54 29.75,54.05 29,54.5 q -1.45,0.7 -2.8,0.65 l -0.85,-0.05 -0.9,-0.45 q -1.25,-0.9 -1.6,-2.6 l -1,0.65 -1.65,0.3 -1.15,-0.15 -1,-0.6 -0.85,-0.85 -1.3,-1 -1,-1.3 Q 14.6,48.4 14.75,47.8 L 14.4,47.55 q -1,-0.65 -1.55,-1.5 L 12,44.95 Q 11.75,44.75 10.3,44.25 8.55,43.65 7.55,41.9 6.55,40.15 6.9,38.3 4.65,37.2 4,35.95 3.45,34.9 3.7,33.4 3.85,32.45 4.45,30.8 L 4.9,28.9 4.5,27.2 Q 4.2,26.1 4.25,25.45 4.4,23.9 7,22.15 5.95,20.9 6.8,17.8 l 0.9,-2.25 q 0.85,-1.2 2.9,-1.95 l 1.15,-0.55 0.8,-0.8 q 1.1,-1.2 4.2,-2.85 1.6,-0.8 2.5,-0.65 L 20,8.95 20.75,9 21.8,8.3 q 0.9,-0.85 2.15,-1.1 l 2.35,0.2 1.1,0.4 1.3,-0.2 q 2.95,-0.75 4.55,0.8 l 0.9,1.1 0.85,1.1 1.2,0.95 0.95,0.95 1.2,0.95 q 1.5,1.15 1.8,3.1 l 0.05,1.35 q 0.6,1.7 0.15,3.3 l -0.55,1.25 -0.1,0.8 -1,1.95 -1.25,1.85 -0.65,1.65 -1,1.35 q -0.5,0.4 -1.55,0.6 L 32.55,31 q -1.35,0.75 -2.1,0.85 L 28.85,31.7 26.55,32 24,31.8 Q 22.65,31.3 22.05,30.25 L 21.55,28.9 21.2,27.45 20.65,25.8 q -0.3,-1 -0.2,-1.7 0.25,-1.4 1.5,-2.25 1,-0.7 1.95,-0.65 l 0.2,-0.1 q 0.75,-0.5 1.6,-0.75 0.35,-0.6 1.15,-0.75 0.9,-0.15 1.7,0.55 l 0.1,0.1 0.55,0.55 0.15,0.8 q -0.2,0.8 -2.15,1.05 l -1.3,0.25 -0.05,0.7 -0.65,0.95 -0.8,0.95 q -0.6,1.05 0.05,2 0.55,0.95 1.75,0.95 l 2.1,-0.55 1.45,0.25 0.55,-0.3 1.65,-1 0.85,-1.6 q 1.2,-1.95 2,-2.5 L 35.75,22 35.9,20.95 35.65,19.8 Q 35.5,18.95 35.9,18.15 l 0.3,-0.95 q -0.05,-0.5 -0.9,-0.8 l -2.15,-0.85 q -1.45,-0.5 -2,-1.15 l -0.95,-1 -1.15,-0.15 -2.5,-0.4 -1.2,-0.25 -1,0.5 -2.55,0.7 -2,0.4 q -0.75,0.25 -1.35,0.6 l -0.35,0.2 -1.15,1.15 -0.35,0.4 -0.2,0.3 -0.65,0.65 -0.15,0.15 q -1.55,1.95 -2.7,2.9 l -0.2,0.2 v 0.7 q 0.35,0.95 0.25,2.2 l -0.15,0.7 -0.85,1.3 -1.4,1.1 q 0.35,0.65 0.2,1.6 l -0.25,1.3 0.05,0.4 0.4,1.9 0.35,-0.05 1.05,0.3 1.15,0.75 0.8,1.05 0.1,0.8 -0.15,1.05 0.05,1 0.35,0.3 q 0.55,0.6 0.45,1.55 V 39 l 1.05,0.5 0.45,-0.45 Q 17.75,38.1 19,38 l 1.3,0.1 1.25,0.35 0.55,0.3 0.5,-0.6 1.15,-1 q 1.65,-1.1 4,-0.65 l 1.05,0.35 0.4,0.3 q 1.25,-1.9 3.9,-2.75 l 1.95,-0.35 0.4,-0.65 q 0.65,-0.8 1.6,-1.05 l 1.4,0.15 q 0.7,0.3 0.7,0.95 h 0.3 m 1.95,12.9 1.3,-1.2 Q 44.85,43 45.35,41.6 l 0.25,-1.1 0.25,-1.85 q 0.1,-0.8 -0.2,-1.2 -0.15,-0.3 -0.45,-0.35 l -0.6,0.1 -0.15,0.25 q -0.3,-0.4 -0.85,-0.5 l -0.95,0.15 -0.45,0.45 -0.05,-0.1 -0.5,-0.5 -0.15,-0.15 -0.8,-0.15 -0.35,0.15 -0.15,-0.05 -0.4,0.05 -2.15,0.55 -1,0.25 -1.3,0.6 -2.1,1.4 q -1.2,1 -2.05,2.35 -0.4,0.65 -0.3,1.05 l -0.1,0.45 0.2,0.4 0.5,0.05 0.3,-0.15 1.45,-1.05 q 0.3,-0.3 0.9,-0.65 l 0.7,-0.35 -0.8,1.1 q -1.55,2.4 -2.7,3.1 L 29.9,46.55 28.4,47 q -0.5,0.15 -0.85,0.45 -0.45,0.45 -0.4,0.9 0.15,0.75 1.05,0.85 l 1.4,-0.25 4.4,-0.85 0.2,0.45 0.6,0.25 1.4,-0.2 q 3.65,-1 5.2,-2.25 m 10.65,3.05 0.4,-0.8 0.3,-0.35 0.65,-0.5 q 0.75,-0.35 1.55,-0.3 0.9,0.05 1.5,0.55 l 0.85,0.9 q 0.75,1.3 0.1,2.65 -0.7,1.35 -2.3,1.6 L 54.15,53.1 q -1.5,-0.35 -2.05,-1.7 -0.35,-0.95 -0.05,-2 M 22.25,3.55 22.7,3.8 23.05,4.1 Q 23.45,4.7 23,5.15 L 22.3,5.45 21.75,5.4 21.2,5 q -0.3,-0.55 0.05,-1.05 0.35,-0.5 1,-0.4 m -10,5.25 q 1,0.1 1.3,0.9 0.4,1 -0.4,1.7 L 11.4,11.45 Q 10.6,10.9 10.85,9.8 q 0.35,-1 1.4,-1 M 7.3,10.9 q 0,0.6 -0.5,0.85 -0.5,0.25 -1,0 -0.45,-0.4 -0.4,-0.9 0,-0.4 0.25,-0.65 Q 5.9,9.95 6.3,9.95 L 6.35,9.9 Q 6.75,9.95 7,10.25 l 0.3,0.65 m 8.65,24.5 0.15,-0.25 q 0.35,-0.35 0.85,-0.35 0.5,-0.05 0.85,0.25 l 0.45,0.8 Q 18.3,36.4 18,36.75 l -0.75,0.45 -0.9,-0.15 q -0.4,-0.25 -0.5,-0.75 -0.15,-0.5 0.1,-0.9 m -12,8.9 q 0.75,0 1,0.65 0.25,0.6 -0.2,1.15 -0.5,0.5 -1.2,0.25 Q 2.95,46.1 2.85,45.4 L 3,44.9 q 0.3,-0.7 0.95,-0.6 m 4.6,0.6 q 0.95,-0.15 1.7,0.3 0.65,0.4 0.9,1.2 0.25,0.8 -0.05,1.5 l -1,1.1 -1.45,0.25 Q 7.9,49.15 7.4,48.5 6.85,47.9 6.85,47.15 6.8,46.4 7.35,45.75 7.8,45.1 8.55,44.9 m 40.95,6.75 0.05,0.15 q 0,0.5 -0.35,0.8 -0.5,0.3 -0.85,0 l -0.3,-0.25 -0.1,-0.2 -0.05,-0.25 q 0,-0.6 0.6,-0.75 0.55,-0.25 0.9,0.3 l 0.1,0.2"
         fill="#999999"
         fill-rule="evenodd"
         stroke="none"
         id="path4" />
      <path
         d="M 41.4,46.35 Q 39.85,47.6 36.2,48.6 L 34.8,48.8 34.2,48.55 34,48.1 29.6,48.95 28.2,49.2 Q 27.3,49.1 27.15,48.35 27.1,47.9 27.55,47.45 27.9,47.15 28.4,47 l 1.5,-0.45 1.45,-0.65 q 1.15,-0.7 2.7,-3.1 l 0.8,-1.1 -0.7,0.35 q -0.6,0.35 -0.9,0.65 L 31.8,43.75 31.5,43.9 31,43.85 30.8,43.45 30.9,43 q -0.1,-0.4 0.3,-1.05 0.85,-1.35 2.05,-2.35 l 2.1,-1.4 1.3,-0.6 1,-0.25 2.15,-0.55 0.4,-0.05 0.15,0.05 0.35,-0.15 0.8,0.15 0.15,0.15 0.5,0.5 0.05,0.1 0.45,-0.45 0.95,-0.15 q 0.55,0.1 0.85,0.5 l 0.15,-0.25 0.6,-0.1 q 0.3,0.05 0.45,0.35 0.3,0.4 0.2,1.2 l -0.25,1.85 -0.25,1.1 q -0.5,1.4 -2.65,3.55 l -1.3,1.2"
         fill="#ffffff"
         fill-rule="evenodd"
         stroke="none"
         id="path5" />
      <path
         d="m 47.45,3.4 q -1.5,0.85 -1.4,2.5 l 0.15,0.75 0.3,0.7 0.45,0.55 Q 48,8.75 49.2,8.6 50.45,8.45 51.15,7.4 l 0.25,-0.45 0.25,-1 V 5.6 q 1,1 1.6,2.15 l 1,2.9 q 0.6,2.4 0.3,4.25 l 0.55,0.15 0.95,0.55 q 1.9,1.15 2.35,2.15 l 0.4,1.05 q 0.3,1.65 0,3.1 l -0.4,1.15 -0.8,0.85 -0.25,0.3 0.45,1.15 q 1.3,3.25 1.4,7 0.15,1.8 -0.2,2.9 -0.65,2.2 -2.7,3.4 l -0.05,0.3 q -0.3,2.45 -1.65,4.65 -1.3,2.1 -3.3,3.65 -1.25,1 -2.6,1.65 -1.95,0.95 -3.3,0.85 -1.8,-0.15 -2.6,-1.3 -3.4,2.4 -7.7,3.7 l -2.65,0.7 -2.3,0.4 Q 28.85,53.1 28.45,52 27.9,50.95 28.55,49.9 29,49.1 30.25,48.65 L 32.3,48.2 q 2.1,-0.4 4.65,-1.5 l 4.35,-2.15 1.7,-1.05 0.7,-0.6 0.45,-0.5 2,-2.95 1,-2.2 -0.3,0.1 -0.55,0.05 v 0.15 l -0.2,0.7 -0.65,0.5 L 45,38.85 43.35,38.9 42.3,38.8 40.95,38.6 40.3,38.3 39.95,37.9 q -0.25,-0.55 -0.1,-1.1 -2.1,-0.75 -2.85,-2.2 -0.5,-1 -0.4,-2.35 l 0.5,-2.45 q 0.85,-3.7 1.55,-5.25 0.8,-1.8 1.9,-2.95 -2.6,-1.1 -4.1,-3.2 L 36,17.65 35.75,17.7 q -0.3,0.1 -0.7,0.5 L 33.6,19.15 Q 32.9,19.6 32.35,19.55 31.7,19.5 31.2,19 30.75,18.5 30.75,17.8 l 0.4,-1.3 1.35,-2.85 q 1.4,-2.6 3.6,-4.75 l 0.1,-0.05 q 0.7,-1.2 1.85,-2.2 l 1.7,-1.3 1.3,-1.1 q 1.55,-1.05 3.7,-1.1 l 2.7,0.25 m 1.25,6.75 -1.1,-0.5 q -0.5,-0.1 -0.8,0.3 -0.2,0.4 -0.05,0.8 l 0.5,0.6 q 0.2,0.5 0.7,0.65 -0.3,0.75 -0.25,1.55 l 0.15,0.65 0.3,0.25 0.45,-0.15 0.45,-0.95 0.45,-1 1,-0.6 0.95,-0.7 L 51.5,10.3 50.95,9.7 Q 50.35,9.45 49.6,9.9 l -0.6,0.45 -0.3,-0.2 m -9.1,4.25 0.65,0.85 q 0.65,0.6 1.55,0.8 l 0.15,0.05 v -1.35 l 0.15,-0.65 0.4,-0.65 0.35,-0.55 0.2,-0.25 0.3,-0.3 1.15,-0.8 0.75,-0.15 -0.95,-1.05 Q 43.6,9.85 42.65,9.75 L 41,10.1 l -0.4,0.25 -0.15,0.8 -0.95,2.4 -0.1,0.2 0.2,0.65 m 6.4,7.8 -1.5,0.1 q -0.65,0.35 -1.2,1.05 l -0.9,1.55 -0.4,0.5 -0.35,1.65 2,-0.3 2.5,0.15 0.65,0.15 0.75,0.45 0.1,0.05 0.2,-0.85 0.05,-1.15 V 25.5 L 47.55,23.05 Q 47.2,22.6 46.65,22.3 L 46.25,22.15 46,22.2 m 7.9,-2.8 1.65,1.85 V 21.2 L 55.5,20.5 q -0.2,-0.9 -0.55,-1.2 -0.4,-0.35 -1.3,-0.35 H 53.3 l 0.6,0.45 M 46.75,32.95 Q 46.7,32.15 46.8,31.4 v -0.05 l 0.25,-2.15 h 0.05 l 0.05,-0.15 -0.3,-0.1 -0.5,-0.25 -0.6,-0.15 -3.5,-0.2 -0.75,0.15 -0.2,0.15 -0.7,3.35 0.1,0.75 0.5,0.25 4.6,0.4 1,-0.1 -0.05,-0.35 m 5.05,6.15 q -1,-0.3 -1.85,-0.9 l -0.15,0.45 q -0.75,2.8 -2.4,5.15 l 1,-0.1 q 1.6,-0.3 3.3,-2.05 l 0.95,-1.15 0.3,-1.1 -1.15,-0.3"
         fill="#000000"
         fill-rule="evenodd"
         stroke="none"
         id="path6" />
      <path
         d="m 48.7,10.15 0.3,0.2 0.6,-0.45 q 0.75,-0.45 1.35,-0.2 l 0.55,0.6 -0.05,0.75 -0.95,0.7 -1,0.6 -0.45,1 -0.45,0.95 -0.45,0.15 -0.3,-0.25 -0.15,-0.65 q -0.05,-0.8 0.25,-1.55 -0.5,-0.15 -0.7,-0.65 l -0.5,-0.6 q -0.15,-0.4 0.05,-0.8 0.3,-0.4 0.8,-0.3 l 1.1,0.5 M 51.65,5.6 v 0.35 l -0.25,1 -0.25,0.45 Q 50.45,8.45 49.2,8.6 48,8.75 46.95,7.9 L 46.5,7.35 46.2,6.65 46.05,5.9 q -0.1,-1.65 1.4,-2.5 V 3.35 L 50.3,3.4 q 1.3,0.8 1.35,2.2 m -12.05,8.8 -0.2,-0.65 0.1,-0.2 0.95,-2.4 0.15,-0.8 0.4,-0.25 1.65,-0.35 q 0.95,0.1 1.65,0.6 l 0.95,1.05 -0.75,0.15 -1.15,0.8 -0.3,0.3 -0.2,0.25 -0.35,0.55 -0.4,0.65 -0.15,0.65 V 16.1 L 41.8,16.05 q -0.9,-0.2 -1.55,-0.8 L 39.6,14.4"
         fill="#ffffff"
         fill-rule="evenodd"
         stroke="none"
         id="path7" />
    </g>
    <g
       id="shape2"
       transform="translate(1.5,1.5)">
      <path
         d="M 0,23.8 V 0 H 64.1 V 23.8 57.55 H 0 Z"
         fill="none"
         stroke="#000000"
         stroke-linecap="round"
         stroke-linejoin="round"
         stroke-width="3"
         id="path8" />
    </g>
  </defs>
</svg>
