<?xml version="1.0" encoding="UTF-8" standalone="no"?>
<svg
   ffdec:objectType="frame"
   height="60.549999"
   width="67.099998"
   version="1.1"
   id="svg8"
   sodipodi:docname="248.svg"
   xmlns:inkscape="http://www.inkscape.org/namespaces/inkscape"
   xmlns:sodipodi="http://sodipodi.sourceforge.net/DTD/sodipodi-0.dtd"
   xmlns:xlink="http://www.w3.org/1999/xlink"
   xmlns="http://www.w3.org/2000/svg"
   xmlns:svg="http://www.w3.org/2000/svg"
   xmlns:ffdec="https://www.free-decompiler.com/flash">
  <sodipodi:namedview
     id="namedview8"
     pagecolor="#ffffff"
     bordercolor="#000000"
     borderopacity="0.25"
     inkscape:showpageshadow="2"
     inkscape:pageopacity="0.0"
     inkscape:pagecheckerboard="0"
     inkscape:deskcolor="#d1d1d1"
     fit-margin-top="5"
     fit-margin-left="5"
     fit-margin-right="5"
     fit-margin-bottom="5" />
  <g
     transform="translate(1.5,1.5)"
     id="g3">
    <use
       ffdec:characterId="516"
       height="57.549999"
       width="64.099998"
       xlink:href="#shape0"
       id="use1" />
    <use
       ffdec:characterId="753"
       height="58.900002"
       transform="translate(-0.3,-0.15)"
       width="64.449997"
       xlink:href="#shape1"
       id="use2" />
    <use
       ffdec:characterId="518"
       height="60.549999"
       transform="translate(-1.5,-1.5)"
       width="67.099998"
       xlink:href="#shape2"
       id="use3" />
  </g>
  <defs
     id="defs8">
    <g
       id="shape0">
      <path
         d="M 53.6,0 H 64.1 V 57.55 H 53.6 28.25 0 V 0 H 28.25 53.6 V 57.55 0 M 28.25,0 V 57.55 0"
         fill="#ffffff"
         fill-rule="evenodd"
         stroke="none"
         id="path3" />
    </g>
    <g
       id="shape1"
       transform="translate(0.3,0.15)">
      <path
         d="M 8.8,15.65 Q 5.9,15.55 3.7,14.3 1.15,12.65 0.55,10.15 0.35,9.25 0.45,7.3 0.55,4.85 0.8,3.65 L 1,3.05 0.15,3 H -0.3 V 0.35 H 0.15 L 1.75,0.3 h 0.7 L 2.9,-0.05 3.55,0 3.75,0.3 H 8.6 26.85 l 7.45,0.05 h 5.35 L 42.9,0.4 h 4.1 1.85 l 1.4,0.05 h 1.95 l 1.6,0.05 h 1.15 1.35 l 0.85,0.05 h 0.65 l 0.45,0.05 h 0.25 l 0.35,0.05 h 0.7 0.65 l 0.5,0.05 h 0.2 l 0.2,0.05 h 0.3 l 0.2,0.05 h 0.25 L 61.95,0.7 62.1,0.65 62.25,0.6 h 0.2 0.2 l 0.15,0.05 0.15,0.05 0.1,0.1 0.1,0.05 0.05,0.05 0.05,0.05 0.05,0.1 0.05,0.05 0.05,0.05 0.05,0.1 V 1.3 l 0.05,0.05 v 0.05 0.1 0.15 0.1 0.1 0.1 0.15 0.1 0.15 0.1 0.1 0.1 0.15 0.1 l 0.05,0.05 v 0.1 0.1 0.1 0.1 0.15 0.1 0.15 0.1 0.1 0.1 0.15 0.1 0.15 0.1 0.1 0.1 V 4.9 5 L 63.5,5.05 V 5.1 5.2 5.35 5.45 5.6 5.7 5.8 5.9 6.05 6.15 6.3 6.4 6.5 6.6 6.75 6.85 7 7.1 7.15 l 0.05,0.05 v 0.1 0.15 0.1 0.15 0.1 0.1 0.1 0.15 0.1 0.15 0.1 0.1 0.1 0.15 0.1 0.1 0.1 0.15 0.1 0.15 0.1 0.1 0.1 0.15 0.1 0.15 0.1 0.1 0.1 0.15 0.1 0.15 0.1 0.1 0.1 0.15 0.1 0.15 0.1 0.1 0.1 0.15 0.1 0.1 0.1 0.15 0.1 0.15 0.1 0.1 0.1 0.15 0.1 0.15 0.1 0.1 0.1 0.15 0.1 0.15 0.1 0.1 0.1 0.15 0.1 0.15 0.1 0.1 0.1 0.15 0.1 0.15 0.1 0.1 0.1 0.15 0.1 0.1 0.1 0.15 0.1 0.15 0.1 0.1 0.1 0.15 0.1 0.15 0.1 0.1 0.1 0.15 0.1 0.15 0.1 0.1 0.1 0.15 0.1 0.15 0.1 0.1 0.1 0.15 0.1 0.15 0.1 0.1 0.1 0.15 0.1 0.1 0.1 0.15 0.1 0.15 0.1 0.05 l 0.05,0.05 v 0.1 0.15 0.1 0.15 0.1 0.1 0.1 0.15 0.1 0.15 0.1 0.1 0.1 0.15 0.1 0.15 0.1 0.1 0.1 0.15 0.1 0.15 0.1 0.1 0.1 0.15 0.1 0.1 0.1 0.15 0.1 0.15 0.1 0.1 0.1 0.15 0.1 0.15 0.1 0.1 0.1 0.15 0.1 0.15 0.1 0.1 0.1 0.15 0.1 0.15 0.1 0.1 0.1 0.15 0.1 0.1 0.1 0.15 0.1 0.15 0.1 0.1 0.1 0.05 l -0.05,0.05 v 0.05 0.1 0.15 0.1 0.1 0.1 0.15 0.1 0.15 0.1 0.1 0.1 0.15 0.1 0.15 0.1 0.1 0.1 0.15 0.1 0.15 0.1 0.1 0.1 0.15 0.1 0.1 0.1 0.15 0.1 0.15 0.1 0.1 0.1 0.15 0.1 0.15 0.1 0.1 0.1 0.15 0.1 0.15 0.1 0.1 0.1 0.15 0.1 0.15 0.1 0.1 0.1 0.15 0.1 0.15 0.1 0.1 0.1 0.15 0.1 0.1 0.1 0.15 0.1 0.15 0.1 0.1 0.1 0.15 0.1 0.15 0.1 0.1 0.1 0.15 0.1 0.15 0.1 0.1 0.1 0.15 0.1 0.15 0.1 0.1 0.1 0.15 0.1 0.1 0.1 0.15 0.1 0.15 0.1 0.1 0.1 0.15 0.1 0.15 0.1 0.1 0.1 0.15 0.1 0.15 0.1 0.1 0.1 0.15 0.1 0.15 0.1 0.1 0.1 0.15 0.1 0.15 0.1 0.1 0.1 0.15 0.1 0.1 0.1 0.15 0.1 0.15 0.1 0.1 0.1 0.15 0.1 0.15 0.1 0.1 0.1 0.15 0.1 0.15 0.1 0.1 0.1 0.15 0.1 0.15 0.1 0.1 0.1 0.15 0.1 0.15 0.1 0.1 0.1 0.15 0.1 0.1 0.1 0.15 0.1 0.15 0.1 0.1 0.1 0.15 0.1 0.15 0.1 0.1 0.1 0.15 0.1 0.15 0.1 0.1 0.1 0.15 l -0.05,0.1 v 0.15 0.1 0.1 0.1 0.15 0.1 0.1 0.1 0.15 0.1 0.15 0.1 0.1 0.1 0.15 0.1 0.15 0.1 0.1 0.1 0.15 0.1 0.15 0.1 0.1 0.1 0.15 0.1 0.15 0.1 0.1 0.1 0.15 0.1 0.15 0.1 0.1 0.1 0.15 l -0.05,0.1 v 0.1 0.1 0.15 0.1 0.15 l -0.05,0.1 v 0.1 0.1 0.1 q 0.85,0.4 0.75,1.2 0,0.8 -0.9,1.25 l -1.6,0.25 -10.15,0.25 -6.35,0.1 -6.8,0.7 -6.65,-0.5 q -1,-0.3 -1.4,-0.75 -0.45,-0.5 -0.65,-1.95 -0.7,-6.25 0.05,-12.3 l 0.65,-5.15 0.05,-3.1 -0.15,-0.05 -1.35,-0.45 -2.4,-0.9 Q 24,31.9 22.65,29.55 l -0.5,-1.15 v -0.05 q -1.95,0 -4.4,-1.05 L 16.3,26.6 14.8,25.25 13.25,23.45 12.45,22 11.75,20.15 V 17.9 l 0.3,-2.75 q -1.25,0.7 -3.25,0.5 m 52.25,15.55 -0.2,0.15 -0.05,0.35 v 0.15 l 0.05,0.1 0.15,0.15 0.15,0.05 h 0.3 l 0.1,-0.05 0.25,-0.25 V 31.5 l -0.05,-0.05 v -0.1 l -0.15,-0.1 -0.1,-0.1 H 61.4 L 61.05,31.2 M 48.3,40.55 q 0.6,0.5 1.25,0.2 0.7,-0.35 0.7,-1.05 L 50.2,39.35 49.85,38.8 49.4,38.55 q -0.9,-0.25 -1.35,0.55 -0.45,0.85 0.25,1.45 m -4.55,-4.85 0.1,0.15 0.3,0.25 0.7,0.05 0.4,-0.55 0.05,-0.3 -0.1,-0.25 -0.15,-0.2 -0.75,-0.2 -0.55,0.5 v 0.55 m -0.6,-3.05 0.35,-0.2 0.15,-0.25 0.05,-0.15 q 0.1,-0.5 -0.3,-0.75 l -0.8,-0.05 -0.35,0.4 -0.05,0.35 0.4,0.55 0.55,0.1 m 1.4,-6 V 26.5 l -0.1,-0.45 -0.75,-0.15 -0.3,0.35 v 0.45 l 0.1,0.15 0.2,0.15 0.25,0.05 h 0.25 l 0.25,-0.2 0.1,-0.2 m 14.9,9.9 q -0.6,-0.5 -1.25,-0.2 -0.75,0.35 -0.65,1.1 0,0.7 0.75,1 0.7,0.25 1.25,-0.3 L 59.6,38 59.75,37.7 Q 60,37 59.45,36.55 M 51.8,29.1 v -0.2 h -0.05 l -0.1,-0.2 h 0.1 l 0.05,0.05 v 0.05 l 0.05,0.05 V 29 l 0.05,0.05 v 0.05 h -0.1 m 6.35,-9.8 q 0,0.95 0.75,1.45 l 1.6,0.05 q 0.75,-0.4 0.85,-1.35 0,-0.9 -0.75,-1.4 L 59.05,18 q -0.8,0.4 -0.9,1.3 m -11.9,3.3 q -0.65,0.1 -0.8,0.75 l 0.15,0.6 0.5,0.4 q 0.7,0.25 1.1,-0.5 0.2,-0.55 -0.1,-0.9 l -0.3,-0.2 -0.55,-0.15 m 2.2,-3.15 -0.2,-0.15 -0.35,-0.15 v 0.05 h -0.1 l -0.25,0.1 -0.35,0.35 -0.05,0.25 0.1,0.35 q 0.25,0.4 0.7,0.4 0.6,-0.1 0.7,-0.65 v -0.25 l -0.2,-0.3 m -1.3,-4.05 v -0.1 l -0.25,-0.15 -0.2,-0.05 -0.3,0.1 -0.15,0.25 -0.05,0.25 0.05,0.15 0.2,0.2 0.2,0.1 h 0.2 l 0.3,-0.3 0.1,-0.15 v -0.2 l -0.1,-0.1 M 46.95,6.9 47.2,6.75 47.35,6.6 V 6.25 l -0.1,-0.1 v -0.1 l -0.4,-0.15 -0.15,0.05 -0.15,0.1 -0.1,0.1 -0.1,0.3 0.05,0.15 0.3,0.25 0.25,0.05 M 58.1,8.15 q 0.15,-0.2 -0.05,-0.5 L 57.95,7.5 57.45,7.3 v 0.05 l -0.35,0.1 -0.3,0.4 0.1,0.5 0.25,0.25 0.3,0.1 L 57.8,8.5 58,8.4 V 8.3 L 58.1,8.15 M 47.2,25.1 q -0.65,0.75 -0.95,1.65 -0.45,0.05 -0.85,0.35 -0.6,0.5 -0.75,1.25 -0.15,1.2 0.8,1.9 l 0.15,0.1 q -0.35,0.4 -0.35,1.1 0.1,1.15 0.95,1.7 0.8,0.55 1.7,0.3 l 0.05,0.1 L 47.2,34 q -0.45,0.45 -0.55,1.15 -0.1,0.7 0.25,1.25 0.35,0.55 0.95,0.8 l 1.25,0.2 1.15,-0.65 0.25,-0.4 0.9,0.15 -0.1,0.35 q -0.25,1.55 1,2.45 0.75,0.55 1.75,0.45 1,-0.1 1.65,-0.8 0.6,-0.7 0.6,-1.7 v -0.2 l 0.45,-0.15 q 0.85,-0.3 1.1,-0.8 l 0.2,-0.35 0.3,-0.15 1.15,-1 q 0.65,-1 0.6,-2.05 l -0.2,-1 0.4,-3.05 0.35,-0.1 0.85,-0.8 0.15,-1.2 Q 61.5,25.8 60.95,25.45 L 60.3,25.2 60.45,24.65 Q 60.6,24.1 60.25,23.4 l -0.8,-1 -0.85,-1.1 -0.85,-0.65 q 0.05,-0.9 -0.4,-1.7 L 56.95,18.3 56.55,17.95 56.3,17.7 v -0.25 l 0.1,-0.3 0.45,-0.35 0.45,-0.5 0.6,-0.95 q 0.15,-0.5 -0.2,-1.1 l -0.15,-0.1 q -0.15,0 -0.15,0.25 l -0.15,0.95 q -0.2,0.35 -0.7,0.5 l -1.4,0.9 -0.4,0.85 -0.05,0.45 0.35,1.95 -0.1,-0.05 -0.15,-0.15 -1.25,-0.95 -0.15,-0.6 -0.1,-0.85 0.35,-0.35 0.8,-0.85 q 0.9,-1.05 0.8,-2.5 L 54.9,12.55 54,11.65 Q 52.9,11 51.9,10.85 L 51.55,10.7 51.5,10.45 Q 51.55,10 52.35,9.75 l 1,-0.4 L 54.6,8.5 Q 55,7.75 54.35,6.8 L 53.1,5.45 Q 52.75,4.95 52.5,5 52.3,5.05 52.25,5.3 l 0.05,0.45 0.7,0.6 q 0.65,0.5 0.45,1.4 -0.4,0.4 -1.4,0.65 Q 51,8.7 50.6,9.05 50,9.55 49.8,10.8 q -0.1,0.65 0.05,0.95 l 0.7,0.55 2.25,1.4 0.3,0.35 -0.2,0.4 -1.25,0.75 q -1,0.45 -1.65,1.25 -0.75,0.9 -0.75,1.9 0,0.55 0.3,1.35 l 0.4,0.8 q -1,0.15 -1.55,0.85 -0.5,0.6 -0.6,1.55 -0.05,0.65 0.05,1.2 l -0.1,0.25 -0.55,0.75 M 19.95,41 20.7,41.1 q 1.05,0.3 1.55,1.2 l 0.35,1.15 q 0.2,1.35 -0.35,2.2 l -0.4,0.6 -1.2,1.35 -0.1,0.1 0.15,1.6 0.35,4.85 0.4,1.85 q 0,1.2 -0.7,1.7 l -1,0.2 q -0.55,-0.05 -0.9,-0.45 -0.3,-0.4 -0.4,-1.4 l 0.2,-1.7 0.35,-1.15 0.25,-1.2 0.05,-1.15 0.2,-2.65 -0.3,0.05 -0.4,0.05 -0.85,2.4 q -0.25,0.8 -0.2,1.05 l 0.15,0.65 q 0.15,0.75 -0.35,1.25 Q 17,54.1 16.25,53.95 15.55,53.7 15.3,53 v -0.45 l 0.1,-0.5 0.25,-0.35 v -0.1 l 0.3,-0.25 0.2,-0.35 0.3,-0.35 0.2,-0.45 1.15,-2.1 Q 17.1,47.85 16.55,47.3 15.85,46.6 15.7,45.65 V 44.6 l 0.25,-1.3 q 0.35,-1.05 1.8,-1.9 0.35,-0.2 0.65,-0.25 L 17.85,40 Q 16.9,38 15.45,37.15 L 14.1,36.6 h -0.25 l -0.4,0.25 q -0.4,0.35 -1,0.35 Q 11.85,37.15 11.5,36.8 11.1,36.45 11,35.85 10.95,35.3 11.25,34.8 11.6,34.15 12.6,33.85 l 1.7,-0.05 1.3,0.4 1.1,1 0.75,1 q 1.05,1.65 2.05,4.8 h 0.45 m 0.95,-3.1 -0.45,0.9 q -0.25,0.6 -0.6,0.45 -0.3,-0.1 -0.2,-0.75 l 0.15,-1.45 -0.55,-0.8 Q 18.8,35.2 19.45,34.4 19.8,34 20.3,33.95 q 0.55,-0.1 0.9,0.25 0.4,0.3 0.4,0.85 l -0.2,0.9 -0.1,0.95 -0.4,1 m -12.95,4.55 2.95,-0.2 1.8,0.95 0.25,0.25 q 0.15,0.4 -0.35,0.6 L 11.85,44 9.35,44.25 8.6,44.65 7.75,44.85 6.85,44.3 q -0.25,-0.55 0,-1.1 0.25,-0.45 1.1,-0.75 m 9.1,-1.7 -0.15,0.8 -0.8,0.7 q -0.5,0.2 -0.95,0 L 14.4,41.6 q -0.25,-0.45 -0.15,-0.95 0.1,-0.5 0.5,-0.8 0.4,-0.35 0.95,-0.35 l 0.9,0.4 q 0.4,0.35 0.45,0.85"
         fill="#999999"
         fill-rule="evenodd"
         stroke="none"
         id="path4" />
      <path
         d="m 47.2,25.1 0.55,-0.75 0.1,-0.25 q -0.1,-0.55 -0.05,-1.2 0.1,-0.95 0.6,-1.55 0.55,-0.7 1.55,-0.85 l -0.4,-0.8 q -0.3,-0.8 -0.3,-1.35 0,-1 0.75,-1.9 0.65,-0.8 1.65,-1.25 l 1.25,-0.75 0.2,-0.4 -0.3,-0.35 -2.25,-1.4 -0.7,-0.55 Q 49.7,11.45 49.8,10.8 50,9.55 50.6,9.05 51,8.7 52.05,8.4 q 1,-0.25 1.4,-0.65 0.2,-0.9 -0.45,-1.4 L 52.3,5.75 52.25,5.3 Q 52.3,5.05 52.5,5 52.75,4.95 53.1,5.45 L 54.35,6.8 Q 55,7.75 54.6,8.5 l -1.25,0.85 -1,0.4 q -0.8,0.25 -0.85,0.7 l 0.05,0.25 0.35,0.15 q 1,0.15 2.1,0.8 l 0.9,0.9 0.35,1.15 q 0.1,1.45 -0.8,2.5 l -0.8,0.85 -0.35,0.35 0.1,0.85 0.15,0.6 1.25,0.95 0.15,0.15 0.1,0.05 -0.35,-1.95 0.05,-0.45 0.4,-0.85 1.4,-0.9 q 0.5,-0.15 0.7,-0.5 L 57.4,14.4 q 0,-0.25 0.15,-0.25 l 0.15,0.1 q 0.35,0.6 0.2,1.1 l -0.6,0.95 -0.45,0.5 -0.45,0.35 -0.1,0.3 v 0.25 l 0.25,0.25 0.4,0.35 0.4,0.65 q 0.45,0.8 0.4,1.7 l 0.85,0.65 0.85,1.1 0.8,1 q 0.35,0.7 0.2,1.25 l -0.15,0.55 0.65,0.25 q 0.55,0.35 0.7,0.95 l -0.15,1.2 -0.85,0.8 -0.35,0.1 -0.4,3.05 0.2,1 q 0.05,1.05 -0.6,2.05 l -1.15,1 -0.3,0.15 -0.2,0.35 q -0.25,0.5 -1.1,0.8 l -0.45,0.15 v 0.2 q 0,1 -0.6,1.7 -0.65,0.7 -1.65,0.8 -1,0.1 -1.75,-0.45 -1.25,-0.9 -1,-2.45 l 0.1,-0.35 -0.9,-0.15 -0.25,0.4 -1.15,0.65 -1.25,-0.2 q -0.6,-0.25 -0.95,-0.8 -0.35,-0.55 -0.25,-1.25 0.1,-0.7 0.55,-1.15 l 0.75,-0.45 -0.05,-0.1 q -0.9,0.25 -1.7,-0.3 -0.85,-0.55 -0.95,-1.7 0,-0.7 0.35,-1.1 l -0.15,-0.1 q -0.95,-0.7 -0.8,-1.9 0.15,-0.75 0.75,-1.25 0.4,-0.3 0.85,-0.35 0.3,-0.9 0.95,-1.65 M 58.1,8.15 58,8.3 V 8.4 L 57.8,8.5 57.45,8.7 57.15,8.6 56.9,8.35 56.8,7.85 57.1,7.45 57.45,7.35 V 7.3 l 0.5,0.2 0.1,0.15 q 0.2,0.3 0.05,0.5 M 46.95,6.9 46.7,6.85 46.4,6.6 46.35,6.45 l 0.1,-0.3 0.1,-0.1 0.15,-0.1 0.15,-0.05 0.4,0.15 v 0.1 l 0.1,0.1 V 6.6 L 47.2,6.75 46.95,6.9 m 0.2,8.5 0.1,0.1 v 0.2 l -0.1,0.15 -0.3,0.3 h -0.2 l -0.2,-0.1 -0.2,-0.2 -0.05,-0.15 0.05,-0.25 0.15,-0.25 0.3,-0.1 0.2,0.05 0.25,0.15 v 0.1 m 1.3,4.05 0.2,0.3 V 20 q -0.1,0.55 -0.7,0.65 -0.45,0 -0.7,-0.4 l -0.1,-0.35 0.05,-0.25 0.35,-0.35 0.25,-0.1 h 0.1 v -0.05 l 0.35,0.15 0.2,0.15 m -2.2,3.15 0.55,0.15 0.3,0.2 q 0.3,0.35 0.1,0.9 -0.4,0.75 -1.1,0.5 l -0.5,-0.4 -0.15,-0.6 q 0.15,-0.65 0.8,-0.75 m 11.9,-3.3 q 0.1,-0.9 0.9,-1.3 l 1.55,0.05 q 0.75,0.5 0.75,1.4 -0.1,0.95 -0.85,1.35 l -1.6,-0.05 q -0.75,-0.5 -0.75,-1.45 m -6.35,9.8 h 0.1 V 29.05 L 51.85,29 V 28.85 L 51.8,28.8 V 28.75 L 51.75,28.7 h -0.1 l 0.1,0.2 h 0.05 v 0.2 m 7.65,7.45 Q 60,37 59.75,37.7 L 59.6,38 59.55,38.15 q -0.55,0.55 -1.25,0.3 -0.75,-0.3 -0.75,-1 -0.1,-0.75 0.65,-1.1 0.65,-0.3 1.25,0.2 m -14.9,-9.9 -0.1,0.2 -0.25,0.2 H 43.95 L 43.7,27 43.5,26.85 43.4,26.7 v -0.45 l 0.3,-0.35 0.75,0.15 0.1,0.45 v 0.15 m -1.4,6 -0.55,-0.1 -0.4,-0.55 0.05,-0.35 0.35,-0.4 0.8,0.05 q 0.4,0.25 0.3,0.75 l -0.05,0.15 -0.15,0.25 -0.35,0.2 m 0.6,3.05 v -0.55 l 0.55,-0.5 0.75,0.2 0.15,0.2 0.1,0.25 -0.05,0.3 -0.4,0.55 -0.7,-0.05 -0.3,-0.25 -0.1,-0.15 m 4.55,4.85 q -0.7,-0.6 -0.25,-1.45 0.45,-0.8 1.35,-0.55 l 0.45,0.25 0.35,0.55 0.05,0.35 q 0,0.7 -0.7,1.05 -0.65,0.3 -1.25,-0.2 M 61.05,31.2 61.4,31.15 h 0.1 l 0.1,0.1 0.15,0.1 v 0.1 l 0.05,0.05 v 0.35 l -0.25,0.25 -0.1,0.05 h -0.3 L 61,32.1 60.85,31.95 60.8,31.85 V 31.7 l 0.05,-0.35 0.2,-0.15"
         fill="#ffffff"
         fill-rule="evenodd"
         stroke="none"
         id="path5" />
      <path
         d="m 35.45,21.4 -1.7,1.1 -0.5,0.15 -0.25,-0.8 -0.15,-0.35 -0.3,-0.2 -0.65,-0.05 -0.45,0.5 0.05,1 0.05,0.2 -1.75,0.2 -0.5,0.05 -1.25,-0.25 -2.1,-0.6 Q 25,22.3 24.15,23 q -0.8,0.65 -1.05,1.6 -0.15,0.4 -0.15,0.85 l 2.2,-0.85 1.1,-0.1 0.45,0.5 1.5,2.5 1.75,-1.95 0.5,-0.45 q 0.85,-0.4 1.65,0.5 l 0.65,0.65 0.8,0.5 0.7,-1.6 0.6,-0.75 1.35,-0.1 1.45,0.1 -0.3,-1.7 q -0.1,-0.65 0.05,-0.9 0.1,-0.15 0.6,-0.4 l 2.1,-0.85 0.75,-0.2 L 40.6,19.9 Q 40,19.15 38.95,19.15 l -1.8,0.55 -0.45,0.35 -1.25,1.35 m 5.55,1.3 0.1,-1.05 -2.3,1 0.35,2.15 q 0.1,0.8 -0.2,1 l -0.65,0.1 -1.95,-0.2 -0.9,0.1 -0.4,0.6 -0.45,1.2 -0.5,0.65 -0.85,-0.15 q -1,-0.5 -1.7,-1.2 l -0.7,-0.35 q -0.3,0.05 -0.55,0.4 L 29,28.6 28.55,29 27.85,28.8 27.45,28.25 25.6,25.7 23,26.5 q 0.2,0.9 0.9,1.8 1.05,1.4 3.1,2.25 2.8,1.2 5.65,0.95 L 34.5,31.15 Q 36.45,30.5 39,27.55 L 39.9,26.4 40.65,24.3 41,22.7 M 28.6,10.15 Q 31.9,9.25 33.65,9.3 L 34.85,9.4 35,9.25 36.75,7.6 37.8,6.75 39.1,6.6 q 0.7,0.25 1.2,1.4 2.05,4.3 2.9,8.9 l 0.15,0.9 q 0.75,3.1 -0.15,6.7 -1.2,4.55 -4.45,7.35 l -0.85,0.7 0.25,0.15 q 3.25,2.25 7.2,2.4 l 2.8,-0.3 q 1.6,-0.6 2.25,-1.75 -1.75,-1.95 -2.15,-4.15 -0.5,-2.6 0.95,-4.5 0.9,-1.1 2.4,-1.6 l 2.9,-0.35 q 1.9,0.15 3.1,1.3 1.4,1.35 1.6,4.45 0.1,2.8 -0.7,4.7 -1.15,2.8 -4.05,4.55 Q 52,39 48.65,39.4 44,40.05 40.35,38.6 38.85,38 35.85,36.1 l 3.35,18.75 q 0.2,1.6 0,2.15 -0.45,1.25 -2,1.6 L 34.6,58.65 26.55,58 24.2,57.6 q -0.85,-0.35 -1.25,-0.9 h -0.4 L 21.7,56.2 q -0.5,-0.6 -0.3,-2.1 l 0.5,-2.95 q 0.7,-4 2.05,-8.45 l 0.75,-2.35 -0.5,0.8 q -1.7,2.95 -3.25,4.75 l -0.25,0.3 v -0.9 l -0.15,0.05 Q 19.7,45.55 19.5,45 l -0.05,-0.35 -0.35,-1.2 -0.1,-0.5 0.35,-0.5 0.5,-0.4 -0.25,-0.15 q -0.25,-0.4 0,-0.85 l 0.65,-0.65 0.7,-0.65 4.9,-6.2 0.05,-0.05 q -1.8,-1 -3.2,-2.5 -3.1,-3.25 -3.6,-8.2 l -0.05,-1.85 q -0.2,-1.85 -0.1,-4.45 l 0.05,-1.55 0.4,-2.6 0.4,-1.65 q 0.5,-0.85 1.3,-1 0.65,-0.05 1.65,0.55 l 2.15,1.25 q 1.25,-0.65 3.7,-1.35 m 9.25,3.5 Q 36.6,12.9 35.25,13.3 l 0.1,0.4 -0.05,1.7 q -0.45,1.85 -1.95,2.8 0.85,0.85 2.05,1 1.2,-1 3.4,-1.35 0.55,-0.95 0.3,-2.3 -0.05,-0.75 -0.6,-1.35 l -0.65,-0.55 m -8.9,6.6 q 0.65,-0.7 0.75,-1.6 l -1.55,-0.5 -0.6,-0.45 -0.9,-0.8 q -0.8,-0.8 -0.8,-1.75 l 0.05,-0.2 -0.8,0.1 Q 24.45,15.2 23.65,16 l -0.5,0.6 q -0.95,1.25 -0.45,2.7 0.25,0.85 0.8,1.35 l 0.35,-0.1 2.55,-0.15 0.65,0.2 1.15,0.35 0.75,-0.7 M 7.9,50.8 Q 7.55,50.15 7.65,49.1 7.75,48 8.5,47 9.25,46.05 10.35,45.65 l 2.3,-0.05 q 1.15,0.25 1.95,1.1 l 3.9,-4.2 v 1.25 l 0.2,0.4 0.3,0.8 0.4,1.4 q 0.15,0.95 -0.35,1.95 l -0.65,0.8 -0.45,0.2 -1.05,1 -2.45,1.85 -4.7,0.2 Q 8.45,51.85 7.9,50.8 m 12.4,-7.65 -0.15,0.4 0.2,0.5 0.35,-0.1 v -1.1 l -0.4,0.3"
         fill="#000000"
         fill-rule="evenodd"
         stroke="none"
         id="path6" />
      <path
         d="m 41,22.7 -0.35,1.6 -0.75,2.1 -0.9,1.15 q -2.55,2.95 -4.5,3.6 L 32.65,31.5 Q 29.8,31.75 27,30.55 24.95,29.7 23.9,28.3 23.2,27.4 23,26.5 l 2.6,-0.8 1.85,2.55 0.4,0.55 0.7,0.2 0.45,-0.4 1.3,-1.65 q 0.25,-0.35 0.55,-0.4 l 0.7,0.35 q 0.7,0.7 1.7,1.2 l 0.85,0.15 0.5,-0.65 0.45,-1.2 0.4,-0.6 0.9,-0.1 1.95,0.2 0.65,-0.1 q 0.3,-0.2 0.2,-1 l -0.35,-2.15 2.3,-1 -0.1,1.05 m -5.55,-1.3 1.25,-1.35 0.45,-0.35 1.8,-0.55 q 1.05,0 1.65,0.75 l 0.25,0.45 -0.75,0.2 -2.1,0.85 q -0.5,0.25 -0.6,0.4 -0.15,0.25 -0.05,0.9 l 0.3,1.7 -1.45,-0.1 -1.35,0.1 -0.6,0.75 -0.7,1.6 -0.8,-0.5 -0.65,-0.65 q -0.8,-0.9 -1.65,-0.5 l -0.5,0.45 -1.75,1.95 -1.5,-2.5 -0.45,-0.5 -1.1,0.1 -2.2,0.85 q 0,-0.45 0.15,-0.85 0.25,-0.95 1.05,-1.6 0.85,-0.7 1.8,-0.65 l 2.1,0.6 1.25,0.25 0.5,-0.05 1.75,-0.2 -0.05,-0.2 -0.05,-1 0.45,-0.5 0.65,0.05 0.3,0.2 0.15,0.35 0.25,0.8 0.5,-0.15 1.7,-1.1 m -6.5,-1.15 -0.75,0.7 -1.15,-0.35 -0.65,-0.2 -2.55,0.15 -0.35,0.1 q -0.55,-0.5 -0.8,-1.35 -0.5,-1.45 0.45,-2.7 l 0.5,-0.6 q 0.8,-0.8 1.45,-0.95 l 0.8,-0.1 -0.05,0.2 q 0,0.95 0.8,1.75 l 0.9,0.8 0.6,0.45 1.55,0.5 q -0.1,0.9 -0.75,1.6 m 8.9,-6.6 0.65,0.55 q 0.55,0.6 0.6,1.35 0.25,1.35 -0.3,2.3 -2.2,0.35 -3.4,1.35 -1.2,-0.15 -2.05,-1 1.5,-0.95 1.95,-2.8 l 0.05,-1.7 -0.1,-0.4 q 1.35,-0.4 2.6,0.35"
         fill="#ffffff"
         fill-rule="evenodd"
         stroke="none"
         id="path7" />
    </g>
    <g
       id="shape2"
       transform="translate(1.5,1.5)">
      <path
         d="M 0,23.8 V 0 H 64.1 V 23.8 57.55 H 0 Z"
         fill="none"
         stroke="#000000"
         stroke-linecap="round"
         stroke-linejoin="round"
         stroke-width="3"
         id="path8" />
    </g>
  </defs>
</svg>
