<?xml version="1.0" encoding="UTF-8" standalone="no"?>
<svg
   ffdec:objectType="frame"
   height="44.349998"
   width="78.599998"
   version="1.1"
   id="svg12"
   sodipodi:docname="356.svg"
   xmlns:inkscape="http://www.inkscape.org/namespaces/inkscape"
   xmlns:sodipodi="http://sodipodi.sourceforge.net/DTD/sodipodi-0.dtd"
   xmlns:xlink="http://www.w3.org/1999/xlink"
   xmlns="http://www.w3.org/2000/svg"
   xmlns:svg="http://www.w3.org/2000/svg"
   xmlns:ffdec="https://www.free-decompiler.com/flash">
  <sodipodi:namedview
     id="namedview12"
     pagecolor="#ffffff"
     bordercolor="#000000"
     borderopacity="0.25"
     inkscape:showpageshadow="2"
     inkscape:pageopacity="0.0"
     inkscape:pagecheckerboard="0"
     inkscape:deskcolor="#d1d1d1"
     fit-margin-top="5"
     fit-margin-left="5"
     fit-margin-right="5"
     fit-margin-bottom="5" />
  <g
     transform="translate(2,2.05)"
     id="g3">
    <use
       ffdec:characterId="1"
       height="42.700001"
       transform="translate(-1.75,-2)"
       width="76.449997"
       xlink:href="#shape0"
       id="use1" />
    <use
       ffdec:characterId="335"
       height="36.849998"
       transform="translate(9.2,1.55)"
       width="52.599998"
       xlink:href="#shape1"
       id="use2" />
    <use
       ffdec:characterId="3"
       height="44.349998"
       transform="translate(-2,-2.05)"
       width="78.599998"
       xlink:href="#shape2"
       id="use3" />
  </g>
  <defs
     id="defs12">
    <g
       id="shape0"
       transform="translate(1.75,2)">
      <path
         d="M 2.8,0 V -0.4 H 5.4 V 0 H 9.7 V 19.45 0 H 20.55 L 19.3,19.45 H 9.7 0.25 V 0 H 2.8"
         fill="#ffffff"
         fill-rule="evenodd"
         stroke="none"
         id="path3" />
      <path
         d="M 0.25,19.45 H 9.7 19.3 L 18.7,28.6 16,28.5 10.95,27.95 9.7,27.8 Q 7.45,27.6 5.85,27.75 4.05,27.9 1.5,28.6 0.75,28.8 0.25,29.15 v -9.7 m 9.45,0 v 8.35 -8.35"
         fill="#121212"
         fill-rule="evenodd"
         stroke="none"
         id="path4" />
      <path
         d="m 9.7,27.8 1.25,0.15 5.05,0.55 2.7,0.1 h 1.05 l 3.75,0.15 q 2.45,0.3 3.6,1.25 0.6,0.5 0.6,1.1 0,0.65 -0.8,1 l -1.3,0.2 -7.15,0.15 -5.6,-0.3 L 9.7,31.75 7.95,31.6 3.1,31.95 0.95,32.3 0.25,32.1 -0.35,31.55 -0.5,31.3 V 29.9 L 0.25,29.15 Q 0.75,28.8 1.5,28.6 4.05,27.9 5.85,27.75 7.45,27.6 9.7,27.8 v 3.95 -3.95"
         fill="#999999"
         fill-rule="evenodd"
         stroke="none"
         id="path5" />
      <path
         d="M 2.8,0 H 0.25 M 9.7,0 H 5.4 m 16.15,0 h 10.7 M 20.55,0 H 9.7"
         fill="none"
         stroke="#666666"
         stroke-linecap="round"
         stroke-linejoin="round"
         stroke-width="4"
         id="path6" />
      <path
         d="m 9.7,-0.4 h 65 V 40.5 H 47.05 L 45.5,40.7 27,40.65 25.95,40.5 H 9.7 -0.5 V -0.4 H 9.7 V 40.5 -0.4"
         fill="#ffffff"
         fill-rule="evenodd"
         stroke="none"
         id="path7" />
    </g>
    <g
       id="shape1"
       transform="translate(-9.2,-1.55)">
      <path
         d="m 48.9,10.55 -0.65,0.65 -1,-0.2 Q 46.65,10.7 46.4,10.05 L 46.25,9.55 46.15,8.7 46.4,7.75 46.6,7.1 47.15,6.55 48.75,5.65 49.35,5.3 Q 49.6,5 49.4,4.35 L 49.15,3.75 49.05,3.4 Q 48.95,2.95 49.4,2.85 49.8,2.7 50.1,3 l 0.4,0.65 0.2,0.55 0.2,1 -0.1,0.35 -0.55,1.1 -1,0.6 -0.55,0.4 -0.25,0.3 v 0.8 l 0.25,0.3 q 0.65,0.6 0.2,1.5 M 40.7,8.5 41.05,7.9 40.8,7.4 40.05,6.7 39.4,5.95 39.25,5.05 q 0.1,-0.9 0.5,-1.55 0.65,-1 2.35,-1.85 l 0.3,-0.1 q 0.5,0 0.5,0.55 l -0.4,0.7 -0.6,0.5 -0.6,1.35 -0.05,0.3 0.2,0.2 q 1.4,0.75 1.7,1.8 l 0.05,1 L 43.15,8.7 42.9,9.45 42.1,10.3 41.35,10.4 40.7,10.05 Q 40.4,9.75 40.4,9.3 l 0.3,-0.8 m 6.7,17.05 4.5,0.5 q 1.85,0.45 5.6,2.15 2.15,1.05 2.55,2.2 0.4,1.3 -0.5,2.5 -0.6,0.85 -2.05,1.65 -2.75,1.6 -6.6,2.45 l -7.1,1.05 -5.5,0.35 -1.35,-0.05 H 33.6 l -8.9,-0.5 q -3.4,-0.4 -6.15,-1.6 L 18.25,36.1 15.1,35.15 q -2.3,-1 -2.35,-2.7 -0.05,-1.4 1.65,-2.75 2.3,-1.8 5.7,-2.7 2.5,-0.7 6.4,-1 10.45,-0.95 20.9,-0.45 m 4.1,8.5 q 3.55,-0.9 5.9,-2.6 -2.95,-1.65 -6.35,-2.25 l -7.5,-0.5 -8.6,0.2 2,0.3 6.3,1.4 1.8,0.35 3.6,-0.35 1.8,-0.3 q 1.1,0 1.6,0.7 0.6,1 -0.25,2.05 -0.5,0.7 -1.75,1.25 l -0.35,0.15 1.8,-0.4 M 35,8.45 35.8,9.2 q 0.35,0.4 0.25,1 -0.1,0.6 -0.55,0.8 l -1.1,0.05 -0.95,-0.75 q -0.65,-1 -0.4,-2.4 0.3,-1.2 1.2,-2.2 l 0.5,-0.8 Q 34.85,4.25 33.95,3.35 33.6,3 33.75,2.75 33.9,2.5 34.3,2.6 q 0.6,0.2 0.8,0.35 0.8,0.55 1,1.6 0.2,1 -0.3,1.8 l -0.7,1 q -0.4,0.6 -0.1,1.1"
         fill="#999999"
         fill-rule="evenodd"
         stroke="none"
         id="path8" />
      <path
         d="m 27.35,17.4 0.1,1 0.35,0.8 q 0.15,0.5 -0.1,1.1 l -0.75,0.8 -2.15,-0.15 q -0.95,-0.6 -1.2,-1.85 l -0.1,-1.2 0.05,-3 q 0.15,-1 1.15,-1.85 L 24.65,12.95 24.25,12.3 23,13 q -1.4,0.45 -2.3,-0.35 -0.55,-0.55 -0.55,-1.35 0.05,-0.7 0.5,-1.25 l 1.1,-0.7 H 22 q 0.05,-1.4 0.5,-2.05 0.6,-1 1.95,-1.1 1.3,-0.1 2.05,0.8 0.8,0.9 0.3,2.45 l -0.4,1.05 q -0.2,0.55 -0.05,1 l 0.2,0.45 0.8,-0.15 2.3,0.25 1.15,0.75 q 1.5,1.45 1.65,3.05 l -0.2,0.85 q -0.4,0.55 -1.2,0.15 l -0.8,-0.55 -1.3,-0.75 -0.75,-0.2 -0.45,0.1 -0.35,0.2 -0.05,0.35 v 1.4"
         fill="#000000"
         fill-rule="evenodd"
         stroke="none"
         id="path9" />
      <path
         d="m 49.6,14.1 h 1.25 q 0.2,-0.6 0.7,-1.05 l 1.8,-0.9 2.4,-0.45 2.4,0.4 1.7,1.3 q 1.4,1.3 1.7,2.15 l 0.25,1.8 q 0.1,1.55 -0.45,2.7 -0.65,1.3 -1.9,1.6 l 0.05,0.15 q 0.4,1.65 0.25,3.15 -0.15,3.5 -1.85,6.3 -1.95,3 -4.95,4.25 l -2.8,0.8 -6.5,-0.35 Q 42.15,35.5 40.95,34.7 32.5,35.8 24.85,34.35 20.4,33.45 18.95,31.2 17.9,29.55 18.1,26.85 l 0.1,-0.8 -0.7,-0.85 -0.85,-1.25 Q 15.35,21.6 15.9,19.1 l -0.1,-0.6 v -0.05 l -1.25,-0.6 -0.5,0.5 q -1.2,1 -2.55,0.95 -1.6,-0.1 -2.15,-1.45 -0.55,-1.5 0.75,-2.75 0.55,-0.5 1.25,-0.65 l -0.1,-1.65 q 0,-0.75 0.15,-1.05 l 0.55,-0.75 1,-0.75 1.35,-0.15 1.45,0.2 q 0.7,0.3 1.2,1.55 l 0.15,1.05 -0.1,0.85 -0.2,0.8 -0.1,0.5 0.85,0.8 0.35,0.4 0.4,-0.25 1,-0.25 q 1.75,-0.6 3.45,-0.05 l 0.6,0.25 0.35,0.05 q 1.55,-1.4 3.4,-2.4 2.3,-1.3 4.4,-1.55 l 4.75,0.15 2.85,0.35 h 0.05 l 3.75,-0.3 q 2.4,0.45 3.3,2.05 l 0.15,0.3 3.25,-0.5 m 0,16.45 0.1,-0.05 0.25,0.15 q 1.15,0.5 2.3,1.35 l 0.55,0.3 q 0.55,0 0.65,-0.55 0.15,-0.4 -0.2,-0.9 L 52.6,30.2 51.2,29.05 51.15,28.25 50.8,27 50.55,26.05 50,25.3 l -0.9,0.1 -0.2,0.55 0.05,0.6 -0.15,1.85 v 0.4 q -0.3,0.15 -0.6,0.45 l -1.9,2.1 -0.3,0.75 q 0.1,0.45 0.65,0.55 0.4,0 0.85,-0.35 l 0.6,-0.65 1.5,-1.1 m 8.1,-5.05 0.5,-0.55 0.05,-0.7 -0.6,-0.85 -0.15,-0.15 0.45,-0.4 0.9,-1.25 q 0.05,-0.45 -0.3,-0.8 -0.35,-0.4 -0.8,-0.35 -0.45,0 -1.2,0.65 L 56,21.6 55.5,21.1 54.65,20.45 q -0.7,-0.2 -0.95,0.35 -0.1,0.4 0.15,0.7 l 0.4,0.55 0.45,0.8 -1.45,1.65 q -0.4,0.6 -0.45,1 0,0.65 0.6,0.75 l 0.65,-0.2 1.9,-1.45 0.45,0.6 q 0.7,0.6 1.3,0.3 M 45,27.45 q 0.7,0.25 1.15,-0.4 0.4,-0.6 0.05,-1.3 l -1.1,-0.95 -0.15,-0.05 0.55,-0.7 0.85,-1.55 q 0.2,-1.15 -0.7,-1.5 -0.55,-0.2 -1.2,0.25 l -0.8,1 -0.8,1.25 -0.75,-0.45 -0.95,-0.25 -0.45,0.15 -0.15,0.4 0.35,0.65 1.05,0.9 Q 41,26.5 40.9,27.35 40.8,28 41.2,28.25 l 0.8,-0.15 1.3,-1.3 0.35,-0.45 0.4,0.35 0.95,0.75"
         fill="#000000"
         fill-rule="evenodd"
         stroke="none"
         id="path10" />
      <path
         d="M 45,27.45 44.05,26.7 43.65,26.35 43.3,26.8 42,28.1 41.2,28.25 Q 40.8,28 40.9,27.35 41,26.5 41.95,24.9 L 40.9,24 l -0.35,-0.65 0.15,-0.4 0.45,-0.15 0.95,0.25 0.75,0.45 0.8,-1.25 0.8,-1 q 0.65,-0.45 1.2,-0.25 0.9,0.35 0.7,1.5 l -0.85,1.55 -0.55,0.7 0.15,0.05 1.1,0.95 q 0.35,0.7 -0.05,1.3 Q 45.7,27.7 45,27.45 M 57.7,25.5 q -0.6,0.3 -1.3,-0.3 l -0.45,-0.6 -1.9,1.45 -0.65,0.2 q -0.6,-0.1 -0.6,-0.75 0.05,-0.4 0.45,-1 l 1.45,-1.65 -0.45,-0.8 -0.4,-0.55 q -0.25,-0.3 -0.15,-0.7 0.25,-0.55 0.95,-0.35 l 0.85,0.65 0.5,0.5 0.55,-0.5 q 0.75,-0.65 1.2,-0.65 0.45,-0.05 0.8,0.35 0.35,0.35 0.3,0.8 l -0.9,1.25 -0.45,0.4 0.15,0.15 0.6,0.85 -0.05,0.7 -0.5,0.55 m -8.1,5.05 -1.5,1.1 -0.6,0.65 Q 47.05,32.65 46.65,32.65 46.1,32.55 46,32.1 l 0.3,-0.75 1.9,-2.1 q 0.3,-0.3 0.6,-0.45 v -0.4 l 0.15,-1.85 -0.05,-0.6 0.2,-0.55 0.9,-0.1 0.55,0.75 0.25,0.95 0.35,1.25 0.05,0.8 1.4,1.15 0.65,0.65 q 0.35,0.5 0.2,0.9 -0.1,0.55 -0.65,0.55 L 52.25,32 Q 51.1,31.15 49.95,30.65 L 49.7,30.5 49.6,30.55"
         fill="#ffffff"
         fill-rule="evenodd"
         stroke="none"
         id="path11" />
    </g>
    <g
       id="shape2"
       transform="translate(2,2.05)">
      <path
         d="M -0.5,-0.4 V -0.55 H 75.1 V -0.4 40.8 H -0.5 Z"
         fill="none"
         stroke="#000000"
         stroke-linecap="round"
         stroke-linejoin="round"
         stroke-width="3"
         id="path12" />
    </g>
  </defs>
</svg>
