<?xml version="1.0" encoding="UTF-8" standalone="no"?>
<svg
   ffdec:objectType="frame"
   height="60.549999"
   width="67.099998"
   version="1.1"
   id="svg7"
   sodipodi:docname="103.svg"
   xmlns:inkscape="http://www.inkscape.org/namespaces/inkscape"
   xmlns:sodipodi="http://sodipodi.sourceforge.net/DTD/sodipodi-0.dtd"
   xmlns:xlink="http://www.w3.org/1999/xlink"
   xmlns="http://www.w3.org/2000/svg"
   xmlns:svg="http://www.w3.org/2000/svg"
   xmlns:ffdec="https://www.free-decompiler.com/flash">
  <sodipodi:namedview
     id="namedview7"
     pagecolor="#ffffff"
     bordercolor="#000000"
     borderopacity="0.25"
     inkscape:showpageshadow="2"
     inkscape:pageopacity="0.0"
     inkscape:pagecheckerboard="0"
     inkscape:deskcolor="#d1d1d1"
     fit-margin-top="5"
     fit-margin-left="5"
     fit-margin-right="5"
     fit-margin-bottom="5" />
  <g
     transform="translate(1.5,1.5)"
     id="g3">
    <use
       ffdec:characterId="516"
       height="57.549999"
       width="64.099998"
       xlink:href="#shape0"
       id="use1" />
    <use
       ffdec:characterId="615"
       height="48.900002"
       transform="translate(-0.75,5.95)"
       width="64.449997"
       xlink:href="#shape1"
       id="use2" />
    <use
       ffdec:characterId="518"
       height="60.549999"
       transform="translate(-1.5,-1.5)"
       width="67.099998"
       xlink:href="#shape2"
       id="use3" />
  </g>
  <defs
     id="defs7">
    <g
       id="shape0">
      <path
         d="M 53.6,0 H 64.1 V 57.55 H 53.6 28.25 0 V 0 H 28.25 53.6 V 57.55 0 M 28.25,0 V 57.55 0"
         fill="#ffffff"
         fill-rule="evenodd"
         stroke="none"
         id="path3" />
    </g>
    <g
       id="shape1"
       transform="translate(0.75,-5.95)">
      <path
         d="M 21.75,21.95 Q 20.8,20 20.8,17.65 20.75,15.7 21.45,13.9 L 21.05,12.6 20.85,9.4 20.9,8.15 Q 21.1,7.35 21.75,6.7 22.4,6.1 23.25,6 l 1.6,0.1 q 1.85,0.3 3.6,1.15 L 32,6.8 35.65,7.25 Q 37.4,6.4 39.25,6.1 L 40.85,6 q 0.85,0.1 1.5,0.7 0.65,0.65 0.85,1.45 l 0.05,1.25 -0.2,3.2 -0.4,1.3 q 0.7,1.8 0.65,3.75 0,2.35 -0.95,4.3 -1.2,2.4 -3.7,3.85 1.5,1.8 2.3,3.95 h 0.3 l 1.5,0.6 q 1.4,0.85 1.9,3.35 l 0.05,1 -0.5,1.85 -0.45,1 -1.1,1.2 -1.45,1.15 q 0.2,0.9 -0.2,1.75 -0.6,1 -1.6,1.3 L 38.65,43.1 H 37.8 L 35.9,42.45 35.1,42 34.8,41.75 31.75,41.9 h -0.2 L 29.3,41.75 29,42 28.2,42.45 26.3,43.1 H 25.45 L 24.7,42.95 q -1,-0.3 -1.6,-1.3 -0.4,-0.85 -0.2,-1.75 l -1.45,-1.15 -1.1,-1.2 -0.45,-1 Q 19.45,35.5 19.4,34.7 l 0.05,-1 q 0.5,-2.5 1.9,-3.35 l 1.5,-0.6 h 0.3 q 0.8,-2.15 2.3,-3.95 -2.5,-1.45 -3.7,-3.85 m 19,-4.3 -0.1,-0.15 -1.35,0.35 -4.55,0.7 q -0.2,1 0.35,2.1 l 0.55,0.8 q 1.6,-0.15 3.1,0.4 l 0.55,0.3 q 0.9,-0.4 1.45,-1.4 0.85,-1.5 0,-3.1 M 53.7,31.6 53.8,30.65 Q 54,30 54.6,29.8 L 55,29.7 h 0.15 0.15 l 0.4,0.1 q 0.6,0.2 0.8,0.85 l 0.1,0.95 -0.5,3.05 -0.25,0.9 -0.65,0.4 h -0.1 l -0.65,-0.4 -0.25,-0.9 Q 53.8,33.15 53.7,31.6 M 50.1,34 Q 49.85,33.65 49.95,33.15 50,32.65 50.4,32.4 l 0.9,-0.1 q 0.5,0.1 0.7,0.5 l 0.35,1.05 0.4,0.95 q 0.2,0.65 -0.3,0.9 L 51.8,35.65 51.3,35.25 50.4,34.4 50.1,34 m 4.95,11.6 q -3.6,1.7 -6.7,0.95 -1,-0.25 -1.75,-0.7 l -1.35,-1.1 -0.85,-1.1 -0.25,-0.75 v -3.55 -0.6 l 0.05,-0.5 0.25,-1.3 0.2,-0.7 q 0.2,-0.45 0.55,-0.35 l 0.5,0.4 0.3,0.95 0.1,0.5 h 0.05 l 0.1,-0.3 0.05,-0.2 0.2,-0.65 0.1,-0.15 0.1,-0.4 0.25,-0.4 0.2,-0.05 q 0.25,-0.2 0.5,0 l 0.4,0.5 0.5,0.85 0.7,1.5 0.1,-0.15 0.45,-0.9 0.05,-0.05 0.05,-0.1 0.15,-0.45 q 0.2,-0.6 0.5,-0.65 h 0.2 0.1 q 0.3,0.1 0.4,0.3 l 0.55,0.95 0.45,0.8 0.3,0.55 0.15,0.5 h 1 l 1.2,0.3 0.1,0.05 0.05,0.05 h 0.05 l 0.05,-0.05 0.1,-0.05 q 0.4,-0.3 1.2,-0.3 h 1 l 0.15,-0.5 0.3,-0.55 0.4,-0.8 0.6,-0.95 0.4,-0.3 h 0.1 0.2 l 0.5,0.65 0.2,0.45 v 0.1 l 0.05,0.05 0.45,0.9 0.15,0.15 0.65,-1.5 0.45,-0.85 0.4,-0.5 q 0.3,-0.2 0.55,0 l 0.15,0.05 0.3,0.4 0.1,0.4 0.1,0.15 0.05,0.1 v 9.05 l -0.15,0.1 q -0.7,0.45 -1.75,0.7 -3.1,0.75 -6.65,-0.95 h -0.1 M 60.2,34 l -0.3,0.4 -0.9,0.85 -0.5,0.4 -0.65,0.05 q -0.5,-0.25 -0.3,-0.9 l 0.4,-0.95 0.35,-1.05 q 0.2,-0.4 0.7,-0.5 l 0.9,0.1 q 0.4,0.25 0.45,0.75 L 60.2,34 M 48.25,42.95 49,43.4 v -0.2 l 0.1,-0.2 0.1,-0.25 0.1,-0.15 0.2,-0.5 0.15,-0.3 -0.75,0.25 -0.85,0.5 -0.1,0.1 0.3,0.3 m 4.8,-0.85 q 2.05,0.45 4.1,-0.05 -0.25,-0.3 -1.1,-0.3 L 54.5,41.7 q -0.85,0 -1.45,0.4 m 8.85,0.85 0.3,-0.3 -0.05,-0.1 -0.9,-0.5 -0.8,-0.25 0.25,0.3 0.15,0.5 0.1,0.15 0.1,0.25 0.1,0.2 v 0.2 l 0.75,-0.45 m -8.65,0.8 1.5,-0.15 0.35,0.05 0.3,-0.05 1.5,0.15 0.85,0.15 0.3,-0.8 0.25,-0.4 0.65,-1.15 -0.9,-0.15 0.25,0.25 0.15,0.45 -0.05,0.35 -0.75,0.6 -1.7,0.35 -1.65,-0.05 -1.7,-0.2 -0.55,-0.2 v 0.15 l 0.35,0.8 0.85,-0.15 m -2,-2.2 0.4,0.8 0.15,-0.45 0.5,-0.5 -1.05,0.15 m -20.65,-17.7 -0.8,-0.5 -0.7,-0.1 -0.55,0.45 q -0.4,0.6 0.05,1.25 0.3,0.5 1.1,0.85 l 2.15,0.2 1.2,-0.65 3.1,0.15 q 1,-0.25 1.3,-1 l 0.05,-0.6 -0.25,-0.3 -0.6,-0.05 -0.5,0.05 -1.55,-0.1 -1.1,-0.35 -0.75,-0.05 h -0.3 l -0.9,0.5 -0.95,0.25 m -7.05,-2.15 1.2,1.15 q 0.8,0.45 1.65,0.4 1.85,0 2.8,-1.7 0.75,-1.5 0.05,-3 h -1.2 q -1.55,-0.1 -2.35,-0.6 l -0.95,-0.8 q -0.85,0.4 -1.35,1.35 -0.85,1.65 0.15,3.2 M 14.1,34 l -0.3,0.4 -0.9,0.85 -0.5,0.4 -0.65,0.05 q -0.5,-0.25 -0.3,-0.9 l 0.4,-0.95 0.35,-1.05 q 0.2,-0.4 0.7,-0.5 l 0.9,0.1 q 0.4,0.25 0.45,0.75 0.1,0.5 -0.15,0.85 M 8.95,45.6 q -3.6,1.7 -6.7,0.95 -1,-0.25 -1.75,-0.7 l -1.25,-1 v -8.9 l 0.35,0.35 0.3,0.95 0.1,0.5 h 0.05 l 0.1,-0.3 0.05,-0.2 0.2,-0.65 0.1,-0.15 0.1,-0.4 0.25,-0.4 0.2,-0.05 q 0.25,-0.2 0.5,0 l 0.4,0.5 0.5,0.85 0.7,1.5 0.1,-0.15 0.45,-0.9 0.05,-0.05 0.05,-0.1 0.15,-0.45 q 0.2,-0.6 0.5,-0.65 h 0.2 0.1 l 0.4,0.3 0.55,0.95 0.45,0.8 0.3,0.55 0.15,0.5 h 1 q 0.8,0 1.2,0.3 l 0.1,0.05 0.05,0.05 H 9 l 0.05,-0.05 0.1,-0.05 q 0.4,-0.3 1.2,-0.3 h 1 l 0.15,-0.5 0.3,-0.55 0.4,-0.8 0.6,-0.95 q 0.15,-0.2 0.4,-0.3 h 0.1 0.2 l 0.5,0.65 0.2,0.45 v 0.1 l 0.05,0.05 0.45,0.9 0.15,0.15 0.65,-1.5 0.45,-0.85 0.4,-0.5 q 0.3,-0.2 0.55,0 l 0.15,0.05 0.3,0.4 0.1,0.4 0.1,0.15 0.2,0.65 0.05,0.2 0.15,0.3 0.15,-0.5 0.25,-0.95 q 0.25,-0.35 0.45,-0.4 0.4,-0.1 0.6,0.35 l 0.2,0.7 0.25,1.3 0.05,0.5 v 0.6 l -0.05,3.55 -0.2,0.75 -0.85,1.1 -1.35,1.1 Q 16.75,46.3 15.7,46.55 12.6,47.3 9.05,45.6 H 8.95 M 7.6,31.6 7.7,30.65 Q 7.9,30 8.5,29.8 L 8.9,29.7 H 9.05 9.2 l 0.4,0.1 q 0.6,0.2 0.8,0.85 l 0.1,0.95 -0.5,3.05 -0.25,0.9 -0.65,0.4 H 9 Q 8.6,36 8.35,35.55 L 8.1,34.65 Q 7.7,33.15 7.6,31.6 M 4,34 Q 3.75,33.65 3.85,33.15 3.9,32.65 4.3,32.4 l 0.9,-0.1 q 0.5,0.1 0.7,0.5 l 0.35,1.05 0.4,0.95 q 0.2,0.65 -0.3,0.9 L 5.7,35.65 5.2,35.25 4.3,34.4 4,34 m 1.15,7.55 0.4,0.8 q 0,-0.2 0.15,-0.45 l 0.5,-0.5 -1.05,0.15 m 2,2.2 1.5,-0.15 0.35,0.05 0.3,-0.05 1.5,0.15 0.85,0.15 0.3,-0.8 0.25,-0.4 0.65,-1.15 -0.9,-0.15 0.25,0.25 0.15,0.45 -0.05,0.35 -0.75,0.6 L 9.85,43.4 8.2,43.35 6.5,43.15 5.95,42.95 V 43.1 L 6.3,43.9 7.15,43.75 M 6.95,42.1 q 2.05,0.45 4.1,-0.05 -0.25,-0.3 -1.1,-0.3 L 8.4,41.7 q -0.85,0 -1.45,0.4 M 2.15,42.95 2.9,43.4 V 43.2 L 3,43 3.1,42.75 3.2,42.6 3.4,42.1 3.55,41.8 2.8,42.05 q -0.45,0.15 -0.85,0.5 l -0.1,0.1 0.3,0.3 m 13.65,0 0.3,-0.3 -0.05,-0.1 -0.9,-0.5 -0.8,-0.25 0.25,0.3 0.15,0.5 0.1,0.15 0.1,0.25 0.1,0.2 v 0.2 l 0.75,-0.45"
         fill="#767676"
         fill-rule="evenodd"
         stroke="none"
         id="path4" />
      <path
         d="m 40.75,17.65 q 0.85,1.6 0,3.1 -0.55,1 -1.45,1.4 l -0.55,-0.3 q -1.5,-0.55 -3.1,-0.4 l -0.55,-0.8 q -0.55,-1.1 -0.35,-2.1 l 4.55,-0.7 1.35,-0.35 0.1,0.15 m -17.2,4.05 q -1,-1.55 -0.15,-3.2 0.5,-0.95 1.35,-1.35 l 0.95,0.8 q 0.8,0.5 2.35,0.6 h 1.2 q 0.7,1.5 -0.05,3 -0.95,1.7 -2.8,1.7 -0.85,0.05 -1.65,-0.4 l -1.2,-1.15 m 7.05,2.15 0.95,-0.25 0.9,-0.5 h 0.3 l 0.75,0.05 1.1,0.35 1.55,0.1 0.5,-0.05 0.6,0.05 0.25,0.3 -0.05,0.6 q -0.3,0.75 -1.3,1 L 33.05,25.35 31.85,26 29.7,25.8 Q 28.9,25.45 28.6,24.95 28.15,24.3 28.55,23.7 l 0.55,-0.45 0.7,0.1 0.8,0.5"
         fill="#ffffff"
         fill-rule="evenodd"
         stroke="none"
         id="path5" />
      <path
         d="m 31.9,53.25 q -4.9,2.3 -9.15,1.3 -1.4,-0.35 -2.4,-1 l -1.85,-1.5 q -0.9,-0.85 -1.15,-1.5 -0.25,-0.3 -0.35,-1 v -4.9 -0.8 l 0.05,-0.7 0.35,-1.75 0.25,-1 q 0.3,-0.6 0.8,-0.45 l 0.65,0.55 0.4,1.3 0.15,0.65 h 0.05 l 0.15,-0.4 0.1,-0.3 Q 20,41.15 20.2,40.9 l 0.15,-0.25 0.15,-0.5 q 0.1,-0.45 0.35,-0.6 L 21.1,39.5 q 0.35,-0.25 0.7,0 l 0.55,0.7 0.65,1.15 0.95,2.1 0.15,-0.25 0.65,-1.2 0.05,-0.1 0.05,-0.1 0.25,-0.65 q 0.25,-0.8 0.65,-0.9 l 0.3,0.05 h 0.15 q 0.35,0.1 0.55,0.4 l 0.75,1.3 0.6,1.1 0.4,0.75 0.2,0.7 1.4,-0.05 1.6,0.4 0.15,0.1 0.05,0.05 H 32 L 32.1,45 32.2,44.9 q 0.55,-0.4 1.65,-0.4 l 1.4,0.05 0.2,-0.7 0.4,-0.75 0.55,-1.1 0.8,-1.3 q 0.2,-0.3 0.55,-0.4 h 0.15 l 0.25,-0.05 q 0.4,0.1 0.7,0.9 l 0.25,0.65 0.05,0.1 0.05,0.1 0.65,1.2 0.15,0.25 0.9,-2.1 0.65,-1.15 0.55,-0.7 q 0.4,-0.25 0.75,0 l 0.2,0.05 0.4,0.6 0.15,0.5 0.15,0.25 0.25,0.85 0.1,0.3 0.15,0.4 0.2,-0.65 0.4,-1.3 0.6,-0.55 Q 46,39.8 46.3,40.4 l 0.25,1 0.35,1.75 0.05,0.7 v 0.8 l -0.05,4.9 -0.3,1 -1.15,1.5 -1.85,1.5 q -1,0.65 -2.4,1 -4.25,1 -9.15,-1.3 L 32,53.2 31.9,53.25 m 9.4,-3.65 0.45,-0.4 -0.1,-0.15 -1.2,-0.7 -1.1,-0.3 0.3,0.35 0.25,0.7 0.15,0.2 0.1,0.35 0.15,0.3 v 0.25 l 1,-0.6 M 30.35,35.2 q 0,-0.8 0.15,-1.2 0.25,-0.8 1,-1.05 L 32,32.8 h 0.2 0.2 l 0.5,0.15 q 0.75,0.25 1,1.05 l 0.15,1.2 -0.65,3.9 -0.3,1.1 q -0.35,0.6 -0.85,0.55 h -0.1 Q 31.6,40.8 31.3,40.2 L 31,39.1 q -0.5,-1.9 -0.65,-3.9 m 8.25,3.05 -0.4,0.5 -1.15,1.1 -0.6,0.5 -0.85,0.05 Q 35,40.1 35.25,39.25 l 0.5,-1.2 0.45,-1.3 q 0.25,-0.5 0.85,-0.65 l 1.15,0.15 q 0.5,0.3 0.6,0.95 0.1,0.6 -0.2,1.05 m -12.8,0 Q 25.5,37.8 25.6,37.2 25.65,36.55 26.15,36.25 L 27.3,36.1 q 0.65,0.15 0.9,0.65 l 0.45,1.3 0.5,1.2 q 0.25,0.85 -0.4,1.15 l -0.8,-0.05 -0.65,-0.5 -1.15,-1.1 -0.35,-0.5 m -3.2,11.35 1,0.6 v -0.25 l 0.2,-0.3 0.1,-0.35 0.15,-0.2 0.25,-0.7 0.25,-0.35 -1.05,0.3 -1.2,0.7 -0.1,0.15 0.4,0.4 m 4.1,-1.9 0.6,1.1 q 0,-0.3 0.15,-0.65 l 0.7,-0.7 -1.45,0.25 m 2.5,0.75 q 2.8,0.6 5.6,-0.1 -0.3,-0.4 -1.5,-0.4 L 31.2,47.9 q -1.2,0 -2,0.55 m 0.25,2.25 2.1,-0.2 0.45,0.05 0.4,-0.05 2.1,0.2 1.15,0.2 0.4,-1.1 0.35,-0.55 0.85,-1.55 -1.2,-0.2 0.35,0.3 0.2,0.6 -0.1,0.5 q -0.2,0.5 -1,0.85 l -2.3,0.45 -2.3,-0.05 -2.35,-0.25 -0.75,-0.3 0.05,0.2 0.45,1.1 1.15,-0.2"
         fill="#000000"
         fill-rule="evenodd"
         stroke="none"
         id="path6" />
    </g>
    <g
       id="shape2"
       transform="translate(1.5,1.5)">
      <path
         d="M 0,23.8 V 0 H 64.1 V 23.8 57.55 H 0 Z"
         fill="none"
         stroke="#000000"
         stroke-linecap="round"
         stroke-linejoin="round"
         stroke-width="3"
         id="path7" />
    </g>
  </defs>
</svg>
