<?xml version="1.0" encoding="UTF-8" standalone="no"?>
<svg
   ffdec:objectType="frame"
   height="60.549999"
   width="67.099998"
   version="1.1"
   id="svg7"
   sodipodi:docname="17.svg"
   xmlns:inkscape="http://www.inkscape.org/namespaces/inkscape"
   xmlns:sodipodi="http://sodipodi.sourceforge.net/DTD/sodipodi-0.dtd"
   xmlns:xlink="http://www.w3.org/1999/xlink"
   xmlns="http://www.w3.org/2000/svg"
   xmlns:svg="http://www.w3.org/2000/svg"
   xmlns:ffdec="https://www.free-decompiler.com/flash">
  <sodipodi:namedview
     id="namedview7"
     pagecolor="#ffffff"
     bordercolor="#000000"
     borderopacity="0.25"
     inkscape:showpageshadow="2"
     inkscape:pageopacity="0.0"
     inkscape:pagecheckerboard="0"
     inkscape:deskcolor="#d1d1d1"
     fit-margin-top="5"
     fit-margin-left="5"
     fit-margin-right="5"
     fit-margin-bottom="5" />
  <g
     transform="translate(1.5,1.5)"
     id="g3">
    <use
       ffdec:characterId="516"
       height="57.549999"
       width="64.099998"
       xlink:href="#shape0"
       id="use1" />
    <use
       ffdec:characterId="534"
       height="52.549999"
       transform="translate(4.45,1.9)"
       width="54.700001"
       xlink:href="#shape1"
       id="use2" />
    <use
       ffdec:characterId="518"
       height="60.549999"
       transform="translate(-1.5,-1.5)"
       width="67.099998"
       xlink:href="#shape2"
       id="use3" />
  </g>
  <defs
     id="defs7">
    <g
       id="shape0">
      <path
         d="M 53.6,0 H 64.1 V 57.55 H 53.6 28.25 0 V 0 H 28.25 53.6 V 57.55 0 M 28.25,0 V 57.55 0"
         fill="#ffffff"
         fill-rule="evenodd"
         stroke="none"
         id="path3" />
    </g>
    <g
       id="shape1"
       transform="translate(-4.45,-1.9)">
      <path
         d="m 41.8,4.45 q 0.05,-0.2 0.3,-0.2 L 42.55,4.3 43.05,5 Q 43.85,6.9 43,8.3 l -0.95,1.3 q -0.7,1 -0.45,2.1 l 0.55,1.2 q 0.65,1.2 0.8,2.2 0.05,1.15 -0.6,2.2 -0.65,1.05 -1.75,1.4 l -1.1,0.15 Q 38.75,18.8 38.2,18.2 37.6,17.65 37.55,16.9 37.45,16.15 37.9,15.5 38.35,14.85 39.05,14.6 39.25,14 39,13.3 L 38.6,12.05 Q 38.45,11.5 38.65,10.35 38.85,9.3 39.2,8.6 39.9,7.4 41.35,7.05 L 41.85,6.8 42.05,6.35 42,5.45 41.8,4.95 v -0.5 m 5.6,4.8 0.2,-0.85 0.5,-0.9 Q 48.55,6.85 49.7,6.3 50.55,6 50.65,5.5 l -0.1,-1.05 q -0.1,-0.75 0.35,-0.9 0.5,-0.2 0.85,0.55 0.3,0.6 0.3,1.9 L 51.95,6.9 51.5,7.45 50.6,8.4 50.15,9.3 q 1.05,1.05 1.5,2.5 l 0.25,1.25 q 0,1.05 -0.65,1.95 -0.65,0.9 -1.6,1.2 l -2,-0.15 q -1.15,-0.65 -1.05,-1.9 0.1,-1.3 1.15,-1.85 l 0.3,-0.25 -0.05,-0.6 q -0.7,-1.4 -0.6,-2.2 m 8.9,7 V 14.4 l 0.2,-0.9 0.6,-0.85 1,-0.7 0.65,-0.05 0.35,0.45 -0.2,0.45 -0.4,0.5 -0.4,0.65 q -0.2,0.55 0.1,1.3 l 0.6,1.2 0.25,1.05 Q 59.3,18.75 59,19.9 l -0.5,1 q -1.05,1.9 -2.8,2.4 l -1.5,0.2 -1.35,-0.05 Q 51.55,23.1 51.1,22 50.6,20.8 51.35,19.75 52.25,18.7 53.45,19 l 1.3,0.45 q 0.95,0.1 1.45,-0.75 0.45,-0.75 0.3,-1.65 l -0.2,-0.8 M 30.9,12.6 31,12.15 q 0,-1 -0.2,-1.45 L 30.35,10.05 29.8,9.35 29.45,8.4 q -0.3,-1.5 0.4,-2.75 0.75,-1.4 2.2,-1.7 L 31.65,2.9 31.6,2.35 Q 31.65,2 31.9,1.95 32.35,1.8 32.7,2.25 34.15,3.4 33.85,4.8 33.75,5.45 32.8,6.3 L 32.45,6.7 Q 32.4,7 32.8,7.3 l 1.25,1.45 q 1.05,1.65 1.05,4.55 0,1.4 -0.35,2.2 -0.4,1.25 -1.45,1.7 l -1.6,0.25 -1.2,-0.35 q -1.2,-0.65 -1,-2.25 0.1,-1.3 1,-1.9 L 30.9,12.6 M 21.8,4.45 v 0.5 l -0.2,0.5 q -0.15,0.4 -0.05,0.9 l 0.2,0.45 0.5,0.25 Q 23.7,7.4 24.4,8.6 l 0.55,1.75 0.05,1.7 -0.4,1.25 q -0.25,0.7 -0.05,1.3 0.7,0.25 1.15,0.9 0.45,0.65 0.35,1.4 -0.05,0.75 -0.65,1.3 -0.55,0.6 -1.3,0.65 L 23,18.7 q -1.1,-0.35 -1.75,-1.4 -0.65,-1.05 -0.6,-2.2 0.15,-1 0.8,-2.2 L 22,11.7 Q 22.25,10.6 21.55,9.6 L 20.6,8.3 Q 19.75,6.9 20.55,5 l 0.5,-0.7 0.45,-0.05 q 0.25,0 0.3,0.2 m -5.6,4.8 q 0.1,0.8 -0.6,2.2 -0.15,0.35 -0.05,0.6 l 0.3,0.25 q 1.05,0.55 1.15,1.85 0.1,1.25 -1.05,1.9 l -2,0.15 Q 13,15.9 12.35,15 11.7,14.1 11.7,13.05 q 0,-0.6 0.25,-1.25 0.45,-1.45 1.5,-2.5 L 13,8.4 12.1,7.45 11.65,6.9 11.55,6 q 0,-1.3 0.3,-1.9 0.35,-0.75 0.85,-0.55 0.45,0.15 0.35,0.9 l -0.1,1.05 q 0.1,0.5 0.95,0.8 l 1.6,1.2 0.5,0.9 0.2,0.85 m -8.9,7 -0.2,0.8 q -0.15,0.9 0.3,1.65 0.5,0.85 1.45,0.75 L 10.15,19 q 1.2,-0.3 2.1,0.75 Q 13,20.8 12.5,22 12.05,23.1 10.75,23.45 L 9.4,23.5 7.9,23.3 Q 6.15,22.8 5.1,20.9 l -0.5,-1 Q 4.3,18.75 4.55,17.5 L 4.8,16.45 5.4,15.25 Q 5.7,14.5 5.5,13.95 L 5.1,13.3 4.7,12.8 4.5,12.35 Q 4.5,12 4.85,11.9 l 0.65,0.05 1,0.7 0.6,0.85 0.2,0.9 v 1.85"
         fill="#999999"
         fill-rule="evenodd"
         stroke="none"
         id="path4" />
      <path
         d="m 39.9,30.65 1.3,0.05 h 0.1 l 0.45,-0.1 0.85,0.05 0.35,-0.05 0.6,-0.05 h 1.25 q 0.25,7.5 -1.95,12.55 -0.8,2 -1.65,3 l -2.35,1.95 -3.65,1.65 -2.55,0.45 H 31.6 30.55 L 29.55,50 28,49.7 24.35,48.05 22,46.1 q -0.85,-1 -1.65,-3 -1.6,-3.65 -1.9,-8.6 -0.1,-1.5 -0.05,-3.15 v -0.8 h 0.3 0.95 0.2 l 0.5,0.05 0.25,0.05 0.85,-0.05 0.55,0.1 1.3,-0.05 h 0.65 l 0.1,1.4 q 0,2.95 0.8,5.15 0.9,2.7 3.05,4.1 2.4,1.6 5.15,0.95 2.75,-0.65 4.25,-3.05 l 0.9,-2.05 0.65,-2.15 0.9,-3.3 0.15,-1.05"
         fill="#999999"
         fill-rule="evenodd"
         stroke="none"
         id="path5" />
      <path
         d="m 38,24.95 q -0.1,1.1 0.15,2.8 h 0.8 0.4 L 39.3,26.9 v -0.4 -0.6 q 0.05,-0.5 0.45,-0.8 l 1.55,-0.4 2.5,-0.05 0.45,0.1 h 0.1 L 44.3,24.2 38,24.15 v 0.8 M 33.8,35 q 0.4,-1.2 0.35,-3.4 -0.7,-4.95 -0.65,-7.35 -0.15,-1.7 0.5,-2.45 l 0.65,-0.6 q 0.1,-0.2 1.15,-0.6 l 11.05,-0.55 q 0.65,0.6 0.85,2.8 1.65,14.1 -0.75,20.75 -1.3,3.85 -2.85,5.3 l -2.95,2.5 q -1.35,1.1 -3.85,1.95 l -4.6,1.1 h -1 -0.2 -1 L 26.2,53.7 Q 23.95,53.2 22.4,51.95 L 19.1,48.9 q -1.55,-1.45 -2.85,-5.3 -2.4,-6.65 -0.75,-20.75 0.2,-2.2 0.85,-2.8 L 27.4,20.6 q 1.05,0.4 1.15,0.6 l 0.65,0.6 q 0.65,0.75 0.5,2.45 0.05,2.4 -0.65,7.35 -0.05,2.2 0.35,3.4 0.55,1.2 1.3,1.55 l 0.7,0.15 h 0.2 0.2 l 0.7,-0.15 Q 33.25,36.2 33.8,35 M 23.95,30.65 H 23.3 L 22,30.7 21.45,30.6 20.6,30.65 20.35,30.6 19.85,30.55 h -0.2 -0.95 -0.3 v 0.8 q -0.05,1.65 0.05,3.15 0.3,4.95 1.9,8.6 0.8,2 1.65,3 l 2.35,1.95 3.65,1.65 1.55,0.3 1,0.15 h 1.05 1.05 L 35.2,49.7 38.85,48.05 41.2,46.1 q 0.85,-1 1.65,-3 2.2,-5.05 1.95,-12.55 h -1.25 l -0.6,0.05 -0.35,0.05 -0.85,-0.05 -0.45,0.1 h -0.1 l -1.3,-0.05 h -0.7 l -0.8,0.05 v 0.2 q 0.1,3.6 -0.6,5.6 -0.85,2.1 -2.35,3.4 -1.4,1.1 -2.8,1.55 l -0.7,0.05 -0.2,-0.05 v 0.1 l -0.15,-0.1 -0.15,0.1 v -0.1 l -0.2,0.05 -0.7,-0.05 Q 29.15,41 27.75,39.9 26.25,38.6 25.4,36.5 24.7,34.5 24.8,30.9 V 30.7 L 24,30.65 h -0.05 m 1.25,-5.7 v -0.8 l -6.3,0.05 -0.05,0.75 h 0.5 l 0.4,0.1 3.5,0.2 0.75,0.1 q 0.45,0.25 0.45,0.75 l -0.2,0.85 -0.1,0.8 h 0.1 0.8 l 0.15,-2.8"
         fill="#000000"
         fill-rule="evenodd"
         stroke="none"
         id="path6" />
    </g>
    <g
       id="shape2"
       transform="translate(1.5,1.5)">
      <path
         d="M 0,23.8 V 0 H 64.1 V 23.8 57.55 H 0 Z"
         fill="none"
         stroke="#000000"
         stroke-linecap="round"
         stroke-linejoin="round"
         stroke-width="3"
         id="path7" />
    </g>
  </defs>
</svg>
