<?xml version="1.0" encoding="UTF-8" standalone="no"?>
<svg
   ffdec:objectType="frame"
   height="60.549999"
   width="67.099998"
   version="1.1"
   id="svg7"
   sodipodi:docname="650.svg"
   xmlns:inkscape="http://www.inkscape.org/namespaces/inkscape"
   xmlns:sodipodi="http://sodipodi.sourceforge.net/DTD/sodipodi-0.dtd"
   xmlns:xlink="http://www.w3.org/1999/xlink"
   xmlns="http://www.w3.org/2000/svg"
   xmlns:svg="http://www.w3.org/2000/svg"
   xmlns:ffdec="https://www.free-decompiler.com/flash">
  <sodipodi:namedview
     id="namedview7"
     pagecolor="#ffffff"
     bordercolor="#000000"
     borderopacity="0.25"
     inkscape:showpageshadow="2"
     inkscape:pageopacity="0.0"
     inkscape:pagecheckerboard="0"
     inkscape:deskcolor="#d1d1d1"
     fit-margin-top="5"
     fit-margin-left="5"
     fit-margin-right="5"
     fit-margin-bottom="5" />
  <g
     transform="translate(1.5,1.5)"
     id="g3">
    <use
       ffdec:characterId="516"
       height="57.549999"
       width="64.099998"
       xlink:href="#shape0"
       id="use1" />
    <use
       ffdec:characterId="1141"
       height="54.25"
       transform="translate(1.6,1.7)"
       width="59.349998"
       xlink:href="#shape1"
       id="use2" />
    <use
       ffdec:characterId="518"
       height="60.549999"
       transform="translate(-1.5,-1.5)"
       width="67.099998"
       xlink:href="#shape2"
       id="use3" />
  </g>
  <defs
     id="defs7">
    <g
       id="shape0">
      <path
         d="M 53.6,0 H 64.1 V 57.55 H 53.6 28.25 0 V 0 H 28.25 53.6 V 57.55 0 M 28.25,0 V 57.55 0"
         fill="#ffffff"
         fill-rule="evenodd"
         stroke="none"
         id="path3" />
    </g>
    <g
       id="shape1"
       transform="translate(-1.6,-1.7)">
      <path
         d="m 55.95,7 q 0.6,0.35 0.6,1 0,0.75 -0.65,1.05 l -1.15,-0.1 q -0.6,-0.4 -0.5,-1 0,-0.7 0.6,-0.95 0.55,-0.3 1.1,0 M 41.9,3.4 41.95,3.1 42.05,3.05 42.3,2.7 Q 42.55,2.45 42.75,2.5 L 42.9,2.45 43.7,2.9 Q 44,3.3 43.8,3.85 L 43.65,4.05 43.35,4.3 43.05,4.45 42.7,4.4 Q 42,4.2 41.9,3.4 M 29.25,51.95 26.6,52.1 26.4,52.55 26,53.15 25.5,53.5 25.3,53.6 25.2,53.65 24.05,53.8 23.2,53.5 22.75,53.15 22.3,52.6 22.2,52.35 22.15,52.2 22.05,51.9 22,51.6 Q 20.15,51.05 18.4,50 16.8,48.95 15.55,47.7 H 15.5 l -2.95,0.05 -1.1,-1 Q 10.75,45.7 11,44.4 q 0.15,-0.75 0.6,-1.25 l 0.6,-0.6 q -1,-2.35 -1.35,-5.05 l -0.1,0.2 q -0.6,0.85 -1.55,0.6 -0.95,-0.25 -1.05,-1.25 -0.05,-0.5 0.3,-0.9 0.3,-0.45 0.8,-0.6 l 0.95,0.15 0.5,0.45 Q 10.5,34 10.65,31.5 9.95,31.5 9.4,31.1 8.75,30.7 8.5,29.9 8.2,29.1 8.45,28.35 8.9,27 10.25,26.75 H 11.2 Q 12.05,21.4 14,17.4 l 0.3,-0.6 -0.65,-1.05 q -0.2,-0.65 0,-1.35 0.25,-0.7 0.75,-1.1 0.55,-0.5 1.5,-0.5 l 0.85,0.15 q 1.95,-2.5 4.5,-4.3 1.3,-0.9 2.95,-1.65 1.45,-0.8 3.05,-1.3 l 1.8,-0.5 2.7,-0.2 2.75,0.2 1.45,0.4 q 0.3,-0.65 0.9,-0.95 l 1.65,-0.2 q 0.9,0.15 1.45,0.8 0.7,0.95 0.55,1.95 l -0.05,0.35 1.85,1.1 0.65,0.45 Q 42.6,8.55 42.65,7.8 42.7,7.1 43.15,6.5 43.6,5.85 44.3,5.65 l 1.4,0.05 q 0.7,0.25 1.1,0.85 0.4,0.55 0.45,1.35 0,0.75 -0.4,1.35 l -0.75,0.7 -1.9,0.2 q 2.1,1.85 3.7,4.3 h 0.6 q 1.5,0.25 2.1,1.65 l 0.15,0.45 0.05,0.4 q 0.1,1.15 -0.6,1.9 1.55,3.75 2.3,8.55 l 2.05,0.1 q 1.35,0.6 1.6,2 0.35,1.45 -0.6,2.55 -1.05,1.2 -2.6,0.95 v 1.55 l 0.5,0.15 1.05,0.9 q 0.4,0.65 0.35,1.35 -0.1,1.6 -1.6,2.1 l -0.8,0.15 Q 51.6,43 49.4,46 l -1,1.25 0.4,0.6 0.25,1.7 q -0.1,0.85 -0.7,1.5 l -1.45,0.9 -1.7,-0.05 -1.4,-0.95 -0.1,-0.15 -0.6,0.25 q -0.05,0.65 -0.7,1.2 l -1.9,0.1 -0.45,-0.45 -0.45,0.05 q -2.25,0.3 -5.35,0 l -2.5,-0.25 -2.5,0.25 M 50.4,15.05 q 0,-0.6 0.55,-1.05 l 1.2,-0.15 0.65,0.6 0.15,0.9 -0.55,0.75 -0.85,0.25 Q 51.05,16.3 50.75,15.9 50.4,15.5 50.4,15.05 m 5.4,7.2 -0.4,0.3 q -0.6,0.25 -1.05,-0.2 -0.5,-0.4 -0.25,-1 0.2,-0.65 0.85,-0.65 L 55,20.65 q 0.55,0.1 0.75,0.4 0.3,0.35 0.2,0.85 l -0.15,0.35 m 1.3,4.75 0.2,-0.15 q 0.4,-0.15 0.8,0 l 0.6,0.5 q 0.2,0.35 0.05,0.75 L 58.3,28.75 57.5,28.9 56.85,28.45 Q 56.6,28.1 56.7,27.65 56.75,27.2 57.1,27 m 3.85,7.2 q -0.15,0.65 -0.8,0.8 -0.6,0.1 -1,-0.4 L 59,34 q 0,-0.45 0.45,-0.8 0.5,-0.25 0.9,0 l 0.35,0.25 0.2,0.25 0.05,0.5 m -8.1,11.05 0.75,0.2 0.4,0.65 q 0.25,0.85 -0.55,1.3 l -0.75,0.1 -0.65,-0.35 -0.25,-0.5 -0.05,-0.25 0.2,-0.65 q 0.35,-0.5 0.9,-0.5 M 58.9,44.2 v -0.05 l 0.55,0.4 0.1,0.45 -0.4,0.45 -0.6,-0.05 -0.2,-0.15 -0.1,-0.15 -0.05,-0.25 0.25,-0.5 Q 58.7,44.15 58.9,44.2 M 25.8,1.7 q 0.7,0 1,0.65 0.25,0.75 -0.2,1.2 -0.5,0.5 -1.2,0.25 -0.65,-0.25 -0.65,-1 0,-0.6 0.45,-0.9 L 25.7,1.75 25.8,1.7 m -10,5.1 q 0.85,-0.1 1,0.7 0.25,0.8 -0.45,1.15 L 15.7,8.8 15.1,8.45 14.95,8.2 14.9,7.8 Q 14.8,7.25 15.35,6.9 L 15.8,6.8 M 6.4,5.45 Q 7.1,4.3 8.35,4.55 L 9.3,5.15 Q 9.75,5.6 9.8,6.15 9.9,6.7 9.6,7.25 9.3,7.8 8.75,8 7.5,8.55 6.65,7.55 6.3,7.15 6.2,6.55 6.15,5.95 6.4,5.45 m 4.4,18.55 0.15,0.35 q 0.15,0.5 -0.1,1 l -0.7,0.7 q -0.45,0.2 -0.95,0 -0.55,-0.2 -0.75,-0.7 -0.2,-0.45 -0.05,-1 0.15,-0.5 0.55,-0.75 l 1,-0.15 0.85,0.55 m 1.75,-6.45 -0.5,0.45 -0.7,-0.05 -0.35,-0.3 -0.2,-0.5 q 0,-0.6 0.5,-0.85 l 0.4,-0.1 0.05,-0.05 q 0.45,0 0.8,0.5 0.25,0.4 0,0.9 M 5.6,28.05 6.25,28.5 q 0.3,0.4 0.05,0.8 L 5.5,29.75 Q 4.9,29.65 4.8,29.1 L 4.75,28.9 Q 4.75,28.6 5,28.35 L 5.55,28.1 5.6,28.05 M 8.85,44.2 Q 8.3,43.9 8.05,43.25 7.8,42.6 8,42.05 8.4,40.9 9.65,40.9 q 1.15,0 1.65,1.1 0.4,1.1 -0.45,1.95 -0.9,0.75 -2,0.25 M 3.9,44.7 v 0.15 L 3.85,45.1 3.6,45.3 3.45,45.35 3.1,45.15 3,45.05 2.95,44.8 3,44.7 3.3,44.4 3.4,44.35 3.65,44.4 3.85,44.55 3.9,44.7 m 1.95,3.2 q 0.1,-0.85 0.8,-1 0.75,-0.25 1.2,0.4 0.45,0.6 0,1.3 Q 7.4,49.25 6.6,49 5.85,48.75 5.85,47.9 m 8.35,3.4 0.4,-0.65 0.5,-0.2 0.15,-0.05 q 0.75,0 1,0.7 0.2,0.75 -0.35,1.15 l -1.15,0.1 Q 14.1,52.05 14.2,51.3 m 44.4,1.15 -0.25,0.35 q -0.6,0.7 -1.4,0.35 -0.6,-0.25 -0.85,-0.85 -0.15,-0.6 0.2,-1.2 0.3,-0.4 0.85,-0.5 l 0.95,0.15 0.55,0.75 -0.05,0.95"
         fill="#999999"
         fill-rule="evenodd"
         stroke="none"
         id="path4" />
      <path
         d="m 44.1,21.1 q 0.3,-0.4 0.7,-0.5 l 0.4,-0.1 0.3,-0.8 q 0.35,-0.25 0.65,-0.3 0.9,-0.3 1.65,0.35 0.75,0.7 0.5,1.65 L 48,22 l 0.05,0.05 0.75,0.85 0.7,0.95 0.6,0.7 0.15,0.2 q 0.35,0.4 0.35,1 0,0.65 -0.45,0.95 -0.55,0.5 -1.3,0.2 -0.75,-0.3 -0.9,-1 v -0.5 l -1,-0.8 -0.3,-0.15 -0.3,0.05 L 45.1,24.4 44,23.6 43.8,23.1 q -0.4,-0.95 0.3,-2 m -2,-4.55 V 16.5 L 41,16.05 39.95,14.85 q -0.4,-0.7 -0.15,-1.55 -0.9,-0.25 -1.65,0 -0.9,0.2 -1.55,1.05 -0.7,1.35 -0.3,2.85 l 0.15,0.35 q 0.25,0.7 1.2,1.25 0.7,0.45 1.35,0.5 L 40.5,19 q 1.45,-0.7 1.6,-2.45 m -3.8,-8.1 q 1.55,0.85 2.15,1.55 0.65,0.7 1.25,2.15 1.05,2.3 1.3,3.55 0.35,2.75 -1.2,5.5 -1.15,1.9 -2.9,3.15 -1.85,1.2 -3.95,1.4 L 31.8,25.5 30.7,25.35 29.6,25.2 26.45,24.55 q -2,-0.7 -3.4,-2.4 -1.4,-1.65 -1.95,-3.75 -0.75,-3.05 0.3,-5.6 0.55,-1.15 2.25,-3.15 1,-1.15 1.75,-1.65 0.75,-0.6 2.4,-0.95 l 5.35,0.15 q 2.8,0.1 5.15,1.25 M 48.75,38.3 Q 48.15,38.1 47.9,37.6 L 47.35,37.2 47,36.55 Q 46.5,35.3 46.5,34.2 l 0.3,-2.15 0.5,-1.45 0.45,-0.85 0.4,-0.5 q 0.3,-0.3 0.6,-0.2 0.35,0.1 0.45,0.85 l 0.1,0.5 -0.3,2.15 0.05,0.1 0.05,-0.2 0.9,-2.9 0.3,-0.65 0.9,0.05 0.2,0.4 q 0.45,1.2 0.4,2.4 l -0.05,0.8 -0.65,3.9 q -0.15,0.9 -0.65,1.45 -0.7,0.65 -1.7,0.4 M 25.2,27.55 27,27.4 l 2.25,0.05 2.2,0.3 2.15,-0.8 2.15,-0.5 1.8,-0.2 1.85,0.1 2.8,0.5 q 1.6,0.45 2.4,1.6 1.05,1.25 0.55,2.65 -0.4,1 -1.65,1.85 l 0.35,0.35 q 0.5,0.6 0.85,1.7 l 0.15,1.1 q -0.05,1.05 -1.25,2.05 -1.05,1 -2.3,1 l -0.1,0.7 -0.4,0.95 -1.05,1.05 -1.2,0.5 -3.9,-0.1 -1.35,-0.95 -0.3,-0.45 0.4,-0.6 q 0.8,-0.55 1.75,-0.6 l 0.9,-0.05 Q 36.6,39.55 37.2,39.1 L 34.9,38 32.5,37.3 30.35,38.5 q -1.5,0.95 -2,1.6 l 1.15,0.2 0.9,-0.15 1.8,0.2 0.5,0.5 -0.1,0.55 -1.15,1.2 q -1.5,1.05 -3.75,0.95 L 26.35,43.35 25.1,42.5 24.5,41.65 24.3,41 Q 23.05,41.25 21.85,40.55 20.45,39.8 20.2,38.8 20.1,38.45 20.15,37.7 20.2,36.5 20.6,35.8 l 0.25,-0.35 Q 19.4,34.9 18.8,34 18,32.7 18.75,31.25 q 0.6,-1.25 2,-2.1 0.8,-0.5 2.65,-1.1 l 1.8,-0.5 M 46.4,42.8 45.8,42.2 45.15,41.6 44.2,41.45 43.85,41.4 43.6,41.15 43.8,40.9 q 1.25,-1.25 2.35,-1.25 0.65,-0.05 1.25,0.35 0.55,0.4 0.75,1.05 0.2,0.45 0.05,0.95 l -0.5,0.75 -1.3,0.05 m -4.8,1.85 0.2,-0.35 0.35,-0.4 0.75,-0.55 0.8,-0.1 q 1,0 1.55,0.35 l 0.55,0.5 0.4,0.65 q 0.4,0.95 -0.3,1.7 l -0.65,0.4 0.2,0.45 -0.15,0.95 Q 44.95,48.8 43.95,48.9 L 42.8,48.75 42.15,48.15 41.6,47.2 q -0.15,-0.4 0,-0.7 l -0.25,-0.05 -2.25,-0.3 0.05,0.25 -0.3,0.9 q -0.65,0.9 -1.8,0.55 -1.1,-0.35 -1.1,-1.45 l 0.1,-0.6 -0.5,-0.4 q -0.55,-0.65 0,-1.35 0.5,-0.7 1.3,-0.6 l 0.95,0.3 0.6,0.55 0.1,0.2 0.5,-0.05 2.15,0.25 0.45,-0.05 M 36.05,19.95 35.95,19.55 36.4,19.1 36.45,18.45 36,18 35.1,18.2 34.85,17.95 q -0.1,-0.1 -0.8,-0.45 l -0.9,-0.35 -0.05,-0.1 V 16.8 l 0.15,-0.4 -0.1,-0.65 -0.1,-0.05 v -0.1 l -0.35,-0.15 -0.15,0.1 -0.4,0.45 -0.25,0.6 -0.05,0.35 -0.05,0.1 h -0.15 -1.1 l -0.1,0.05 -0.1,-0.2 Q 30.1,16.5 29.6,16.4 l -0.1,0.05 q -0.45,-0.1 -0.55,0.45 v 0.75 l -1.5,1.35 -0.4,0.7 q -0.35,0.9 0.6,1.55 l 0.7,0.2 0.05,0.45 0.15,0.5 0.35,0.15 q 0.45,0 0.7,-0.35 l 0.25,-0.45 0.1,-0.2 0.7,0.1 L 30.6,22 q -0.05,0.5 0.3,1.05 l 0.35,0.2 0.25,-0.25 0.25,-0.4 0.25,-0.7 0.75,0.25 -0.2,0.65 0.05,0.35 0.2,0.2 0.35,0.1 q 0.35,0 0.5,-0.35 L 33.8,22.75 V 22.5 l 1.35,0.1 0.75,-0.5 0.35,-0.4 v -0.55 l -0.2,-1.2 M 26.8,11.45 26.65,11.4 26.3,12 q -1.1,1.75 -3.2,1.75 h -0.45 q -0.25,0.8 -0.1,1.55 0.25,1.15 1.1,1.8 l 0.75,0.4 1.35,0.25 q 0.8,0 1.65,-0.5 L 28.7,16.1 29,15.6 q 0.3,-0.55 0.2,-1.3 L 29.15,13.75 Q 29,13.05 28.45,12.5 27.7,11.65 26.8,11.45 M 13.5,25.7 Q 13.25,24.45 14,23.75 l 0.4,-0.35 1.3,-0.3 q 0.75,0.05 1.2,0.45 l 0.25,0.15 0.35,-0.05 1.25,-0.35 0.2,-0.45 q 0.4,-0.6 1.2,-0.6 0.8,0.1 1.1,0.75 0.3,0.5 0.05,1.05 l -0.75,0.8 -0.2,0.1 -0.8,0.45 -1.05,0.55 -1,0.45 -0.1,0.05 0.05,0.7 q -0.15,0.95 -1.1,1.3 -0.95,0.3 -1.7,-0.35 l -0.4,-0.55 q -0.15,-0.45 0,-0.85 L 13.9,26.45 13.5,25.7 m 5.8,-4.85 -0.75,0.1 -0.8,0.1 q -0.45,0 -0.8,-0.4 -0.35,-0.4 -0.35,-0.9 0.05,-0.5 0.4,-0.85 0.35,-0.35 0.85,-0.4 l 0.75,0.1 q 0.7,0.2 1.15,0.55 0.55,0.45 0.55,1.1 0,0.55 -0.4,0.7 l -0.6,-0.1 m -5.05,9.65 q 1,-0.25 1.7,0.4 0.5,0.55 0.65,1.45 l 0.65,3.9 0.05,0.8 q 0.05,1.2 -0.4,2.4 l -0.2,0.4 -0.9,0.05 -0.3,-0.65 -0.9,-2.9 -0.05,-0.2 -0.05,0.1 0.3,2.15 -0.1,0.5 -0.45,0.85 q -0.3,0.1 -0.6,-0.2 L 13.25,39.05 12.8,38.2 12.3,36.75 12,34.6 q 0,-1.1 0.5,-2.35 l 0.35,-0.65 0.55,-0.4 q 0.25,-0.5 0.85,-0.7 m 7.4,17 L 21.3,47.15 19.5,46 19.2,45.6 18.95,45.7 h -0.8 L 17.2,45.35 q -0.65,-0.4 -0.6,-1.3 0.05,-0.9 0.85,-1.05 l 0.65,0.05 0.35,-0.55 q 0.7,-0.85 1.75,-0.35 1.1,0.4 1.05,1.55 l -0.35,0.9 -0.2,0.15 1.9,1.2 0.2,0.1 0.45,-0.5 q 0.5,-0.35 1.1,-0.4 l 0.8,-0.05 q 0.65,0.2 1,0.65 0.7,0.7 0.65,1.35 l -0.5,0.85 -0.45,0.2 0.25,0.7 q 0.05,1.05 -0.85,1.5 l -0.75,0.25 -0.75,0.05 -1.4,-0.75 -0.55,-0.55 -0.2,-0.95 -0.05,-0.5 0.1,-0.4 m 8.2,-16.85 q -3.6,0.3 -6.7,2 l 1,0.2 1.05,0.1 h 0.15 l 0.45,-0.1 2,-0.7 1.75,-0.15 0.7,-0.05 0.5,-0.25 1.1,-0.1 1.1,-0.1 0.65,0.05 0.7,-0.05 1.75,-0.25 2.1,0.3 h 0.4 q 0.1,-0.1 0.15,-0.1 l 0.95,-0.3 1,-0.4 q -3.35,-1 -7,-0.5 l -3.8,0.4 m 1.95,2.85 q -2.2,0.65 -3.25,1.2 l -1.9,0.95 -1.05,0.3 -1.6,1 q 0.65,0.55 1.95,0.4 L 26.75,37.3 27,37.15 q 1.15,-0.7 2.3,-0.95 l 0.8,-0.25 0.1,-0.15 0.5,-0.4 1.55,-0.15 1.55,-0.15 0.65,0.2 0.15,0.15 0.75,0.05 2.5,0.45 0.25,0.15 0.75,-0.15 q 1.3,-0.15 1.85,-0.8 -0.65,0 -1.8,-0.65 l -1,-0.05 -2.1,-0.55 -3.5,-0.45 H 32.05 L 31.8,33.5 m 0.35,11.3 0.9,0.3 q 1,0.75 1,1.65 0.1,1.2 -0.9,1.7 L 31.8,48.6 Q 30.6,48.45 29.95,47.9 29,47.1 29.3,46.1 q 0.2,-0.6 0.9,-0.95 l 1.25,-0.35 h 0.7 m -2.6,3.6 q 0.8,0.1 1.1,0.75 0.25,0.75 -0.25,1.25 -0.55,0.55 -1.25,0.3 -0.7,-0.25 -0.8,-1.05 0,-0.5 0.35,-0.85 0.3,-0.4 0.85,-0.4"
         fill="#ffffff"
         fill-rule="evenodd"
         stroke="none"
         id="path5" />
      <path
         d="m 58.95,7.95 -3.25,1.6 -1.5,0.9 -1.1,0.5 -4.55,2.8 -2,0.9 q -0.5,0.1 -0.65,-0.2 -0.1,-0.35 0.4,-0.75 l 4.5,-3.3 3.2,-2.65 3.3,-2.5 q 1.05,-0.65 1.8,-0.6 0.65,0.1 1.05,0.7 0.35,0.6 0.15,1.25 -0.25,0.8 -1.35,1.35 M 47.9,9.1 48.1,8.55 48.65,7.8 49.1,7.2 l 1.1,-1.05 0.3,-0.4 0.4,-0.3 1.3,-1.8 q 0.6,-0.5 1.3,-0.25 0.75,0.25 0.85,1 0.15,0.8 -0.5,1.2 L 53.4,5.9 52.6,6.45 52.1,6.85 51.5,7.2 49.5,8.95 48.75,9.35 48.4,9.65 47.95,9.55 47.9,9.1 M 39.65,5.2 q 0.1,-0.85 0.7,-1.3 0.75,-0.6 1.7,-0.35 l 1.05,0.9 q 0.35,0.6 0.2,1.3 -0.15,0.7 -0.75,1.1 -0.6,0.4 -1.3,0.3 L 40.1,6.5 Q 39.6,5.9 39.65,5.2 m 10.3,14.45 Q 49,19.25 49,18.15 49.1,17.3 49.85,16.85 L 51,16.8 q 0.65,0.2 0.9,0.7 0.3,0.5 0.15,1.1 l -0.7,0.95 -1.4,0.1 m 7.6,-4.55 q 0.1,-0.6 0.55,-1.05 0.45,-0.45 1.05,-0.5 0.6,-0.05 1.15,0.4 0.5,0.35 0.6,0.95 0.1,0.6 -0.2,1.2 L 59.8,16.85 58.6,16.8 Q 58,16.55 57.75,16 l -0.2,-0.9 m -1.75,6.35 q 0.7,0.35 0.7,1.05 0.1,0.75 -0.6,1.15 l -1,0.25 -2.75,0.05 -1,0.1 q -0.65,0 -0.8,-0.5 Q 50.2,23.1 50.7,22.7 l 0.8,-0.4 2.5,-0.75 1.8,-0.1 m 3.25,14.2 q 0.25,0.55 0.05,1.2 l -0.7,1 -1.2,0.2 Q 56.5,38 56.15,37.5 q -0.4,-0.45 -0.45,-1.1 0,-0.65 0.4,-1.15 0.4,-0.5 1.05,-0.6 l 1.2,0.2 0.7,0.8 m -9.5,8.6 h 0.55 l 1.15,0.4 1,0.5 1.25,0.85 2.65,1.55 q 1.7,0.95 2.6,1.65 L 60,50.5 q 0.6,0.95 0.45,1.75 -0.15,0.85 -0.9,1.35 l -1.6,0.2 Q 57.4,53.65 56.6,52.95 l -3.6,-3.6 -2.2,-2.45 -0.75,-0.75 -0.6,-0.9 -0.15,-0.5 0.25,-0.5 m -0.4,3.9 0.4,0.45 1.5,2.45 0.6,0.8 0.45,0.85 -0.1,0.95 -0.6,0.65 -1.1,0.1 q -0.55,-0.15 -0.85,-0.7 l -1.1,-2.6 -0.25,-0.9 -0.5,-1.1 v -0.5 q -0.05,-0.3 0.2,-0.55 l 0.55,-0.3 0.8,0.4 M 31.25,3.25 q 0,-0.5 0.4,-0.75 L 32.5,2.35 q 0.5,0.1 0.65,0.6 L 33.2,3.3 33.15,3.6 32.7,4.1 q -0.45,0.25 -0.95,0 -0.5,-0.25 -0.5,-0.85 m -11,0.1 0.7,-0.55 1.25,0.1 0.4,0.4 0.25,0.8 0.4,0.8 q 0.35,0.6 0.7,1.95 L 24.3,7.45 24.45,8.1 23.95,8.55 23.6,8.4 22.7,7.65 22.05,7.05 21.85,6.8 21.7,6.4 21.3,5.9 20.85,5.45 20.75,5.25 20.45,4.95 Q 20.1,4.6 20.1,4.2 20.1,3.75 20.25,3.35 M 15.9,2.2 16.2,2.05 h 0.25 L 16.5,2 q 0.9,0.1 1,0.95 l -0.2,0.7 -0.55,0.4 Q 15.9,4.2 15.55,3.45 15.3,2.75 15.9,2.2 m 1.35,9.75 q 0.45,0.55 0.7,1.45 0.2,0.75 -0.15,1 L 17,14.25 16.35,13.85 14.4,12.2 9.45,7.55 Q 9.1,7.1 9.15,6.5 9.15,5.9 9.5,5.5 9.85,5.05 10.45,4.9 l 1.05,0.15 1,1.05 4.75,5.85 M 8.9,9.8 9.1,10.1 q 0.25,0.35 -0.15,0.45 L 8.5,10.45 6.8,9.8 6.35,9.5 3.95,8.15 2.25,7.5 Q 1.5,6.95 1.6,6 1.75,5.1 2.55,4.7 l 1.6,0.05 0.7,0.7 0.7,0.7 L 6,6.5 6.3,6.95 7.5,8.3 8.15,8.85 8.7,9.4 8.9,9.8 M 8.15,12.9 Q 8.45,13 9,13.45 l 2.3,1.45 3.3,1.55 0.75,0.5 q 0.3,0.45 0.1,0.8 -0.3,0.35 -0.8,0.35 L 13.75,17.95 9,16.7 7.9,16.4 7.05,16.25 Q 6.05,15.9 5.8,14.9 5.55,13.95 6.35,13.15 7.2,12.45 8.15,12.9 M 4.4,22.05 4.05,22.7 3.35,22.9 2.7,22.55 Q 2.45,22.25 2.5,21.9 2.5,21.45 2.75,21.25 3,21 3.4,21 l 0.05,-0.05 q 0.45,0 0.7,0.35 l 0.25,0.75 m 8.3,5 -0.2,0.35 -1.1,0.2 h -2 L 9,27.55 H 8.45 l -1.7,0.2 q -1,0 -1.45,-1 -0.4,-0.85 0.05,-1.8 l 0.55,-0.5 q 0.4,-0.3 0.8,-0.3 l 0.95,0.2 0.95,0.4 1.9,0.85 0.45,0.2 0.4,0.25 0.5,0.2 0.75,0.55 0.1,0.25 m -5.55,6.9 Q 6.2,33.7 5.85,32.7 5.6,31.7 6.3,31 7.05,30.35 8.05,30.6 9.1,30.95 9.2,32.05 9.35,33.1 8.4,33.7 L 7.15,33.95 M 8.7,41.7 8.2,41.95 7.75,42.1 6.75,42.5 4.9,43.3 Q 3.9,43.55 3.3,42.95 2.55,42.1 3.05,41.3 3.35,40.8 4,40.55 l 1.2,-0.25 2,-0.25 1.3,0.05 1.45,-0.2 0.85,0.3 0.25,0.3 -0.2,0.2 -0.5,0.35 -1,0.45 -0.65,0.2 m 6.5,5.9 0.6,-0.05 0.05,0.5 -0.3,0.4 q -0.95,0.9 -1.75,2.15 l -0.75,0.85 -0.4,0.65 -0.75,0.9 -0.4,0.55 q -0.6,0.5 -1.25,0.2 -0.7,-0.25 -0.7,-1.05 0.1,-0.65 0.5,-1.05 L 14.3,48.3 14.8,48 15.2,47.6 m -0.4,-4.45 0.7,0.05 q 0.2,0.3 -0.25,0.75 l -3.4,3 -6.2,6 q -1,1.1 -1.8,1.2 -0.9,0.25 -1.6,-0.55 -0.6,-0.8 -0.3,-1.75 0.25,-0.6 1,-1.25 2.7,-2.3 8.9,-5.8 l 2.95,-1.65 m 22.65,8.7 0.6,0.65 q 0.35,0.4 0.35,1 0.05,0.55 -0.25,0.95 -0.65,1 -1.9,0.65 l -0.8,-0.7 q -0.3,-0.45 -0.25,-1 l 0.25,-1.05 -0.15,-1.2 q -0.15,-0.8 0,-1.2 0.1,-0.3 0.35,-0.5 l 0.5,-0.05 0.35,0.4 0.6,1.2 0.35,0.85 M 27.05,54.5 27.1,53.85 Q 27.35,53.2 27.95,53 l 1.15,0.05 q 0.9,0.4 0.9,1.45 0,0.75 -0.7,1.2 l -1.4,0.1 Q 27.05,55.45 27.05,54.5 M 21.3,50.55 V 51 l -0.5,0.85 q -0.3,0.3 -0.7,0.3 L 19.25,51.9 q -0.4,-0.3 -0.5,-0.75 -0.1,-0.45 0.1,-0.9 0.25,-0.45 0.65,-0.6 l 0.9,-0.05 0.7,0.55 0.2,0.4"
         fill="#000000"
         fill-rule="evenodd"
         stroke="none"
         id="path6" />
    </g>
    <g
       id="shape2"
       transform="translate(1.5,1.5)">
      <path
         d="M 0,23.8 V 0 H 64.1 V 23.8 57.55 H 0 Z"
         fill="none"
         stroke="#000000"
         stroke-linecap="round"
         stroke-linejoin="round"
         stroke-width="3"
         id="path7" />
    </g>
  </defs>
</svg>
