<?xml version="1.0" encoding="UTF-8" standalone="no"?>
<svg
   ffdec:objectType="frame"
   height="60.549999"
   width="67.099998"
   version="1.1"
   id="svg7"
   sodipodi:docname="514.svg"
   xmlns:inkscape="http://www.inkscape.org/namespaces/inkscape"
   xmlns:sodipodi="http://sodipodi.sourceforge.net/DTD/sodipodi-0.dtd"
   xmlns:xlink="http://www.w3.org/1999/xlink"
   xmlns="http://www.w3.org/2000/svg"
   xmlns:svg="http://www.w3.org/2000/svg"
   xmlns:ffdec="https://www.free-decompiler.com/flash">
  <sodipodi:namedview
     id="namedview7"
     pagecolor="#ffffff"
     bordercolor="#000000"
     borderopacity="0.25"
     inkscape:showpageshadow="2"
     inkscape:pageopacity="0.0"
     inkscape:pagecheckerboard="0"
     inkscape:deskcolor="#d1d1d1"
     fit-margin-top="5"
     fit-margin-left="5"
     fit-margin-right="5"
     fit-margin-bottom="5" />
  <g
     transform="translate(1.5,1.5)"
     id="g3">
    <use
       ffdec:characterId="516"
       height="57.549999"
       width="64.099998"
       xlink:href="#shape0"
       id="use1" />
    <use
       ffdec:characterId="1010"
       height="55.450001"
       transform="translate(3.15,2.8)"
       width="57.75"
       xlink:href="#shape1"
       id="use2" />
    <use
       ffdec:characterId="518"
       height="60.549999"
       transform="translate(-1.5,-1.5)"
       width="67.099998"
       xlink:href="#shape2"
       id="use3" />
  </g>
  <defs
     id="defs7">
    <g
       id="shape0">
      <path
         d="M 53.6,0 H 64.1 V 57.55 H 53.6 28.25 0 V 0 H 28.25 53.6 V 57.55 0 M 28.25,0 V 57.55 0"
         fill="#ffffff"
         fill-rule="evenodd"
         stroke="none"
         id="path3" />
    </g>
    <g
       id="shape1"
       transform="translate(-3.15,-2.8)">
      <path
         d="m 54.55,19.9 -1,0.4 0.1,0.4 0.15,1.1 1,-1.5 0.65,-0.7 0.7,-0.4 1.1,-0.25 h 1.3 l 1.1,0.55 0.75,0.6 0.4,1.05 0.05,1.05 -0.65,1.35 -1.25,0.95 -2.85,-0.1 -0.25,-0.05 -0.35,0.3 -0.1,0.1 -0.1,0.25 -0.15,0.7 -0.2,0.7 q -0.35,0.9 -1.05,1.45 v 0.25 q -0.25,0.7 -0.7,1 -0.65,0.4 -1.25,-0.2 L 51.8,28.5 51.2,28.45 h -0.1 l -0.65,-0.3 -0.6,0.3 h -0.8 q -0.35,-0.2 -0.55,-0.5 -0.15,-0.3 -0.05,-0.75 l 0.4,-0.65 0.55,-0.3 0.2,-1.15 0.05,-1.85 0.4,-1.35 0.3,-1.35 0.05,-0.1 Q 49.15,20.1 48.1,19.2 l -0.8,-0.85 -0.35,-1.3 q -0.15,-1.6 0.65,-3 l 0.55,-0.75 -0.2,-0.2 q -0.2,-0.45 0.2,-0.85 Q 48.6,11.8 49.1,12 l 0.35,0.3 0.5,-0.15 1.25,-0.3 0.8,-0.15 1.6,0.25 1.35,0.6 0.5,-0.15 0.2,0.05 q 0.5,0.15 0.55,0.65 l -0.2,0.7 0.55,1.3 0.2,1.3 -0.45,1.7 -0.55,1 -1.2,0.8 M 51.3,3.45 52,2.85 52.45,2.8 l 0.25,0.05 0.7,0.6 1.15,0.45 1.4,-0.15 0.9,0.2 L 57.1,4.4 57.2,4.8 57.15,6.05 57.1,6.2 57,6.85 56.3,8.55 55.35,9.3 53.3,10.6 52.9,10.65 h -0.05 l -0.1,0.1 -0.1,0.05 -0.05,0.05 H 52.45 L 52.2,10.8 52.05,10.7 51.95,10.65 51.4,10.6 49.35,9.3 48.4,8.55 47.7,6.85 47.6,6.2 47.55,6.05 47.5,4.8 47.6,4.4 47.85,3.95 48.75,3.75 50.15,3.9 51.3,3.45 M 55.65,5.25 53.1,4.5 v 0.1 0.1 l 0.05,0.05 V 4.85 4.95 5 5.1 5.15 5.25 5.3 5.4 5.45 5.55 5.65 5.7 L 53.2,5.8 V 5.85 5.95 6 6.1 h 0.65 1.9 L 55.9,5.7 55.95,5.3 55.65,5.25 m -6.6,0 -0.3,0.05 0.05,0.4 0.2,0.5 V 6.15 h 0.05 L 49.2,6.1 h 0.95 0.1 0.1 1.35 L 51.65,6.05 V 6 5.9 5.85 5.75 L 51.7,5.7 V 5.6 5.5 5.45 5.35 5.3 5.2 5.15 5.05 5 4.9 4.85 4.75 l 0.05,-0.1 V 4.6 4.5 4.45 l -2.7,0.8 m 5.9,2.4 0.3,-0.4 h -1.4 -0.75 v 0.1 0.05 0.1 0.05 l -0.05,0.1 v 0.05 0.1 0.1 0.05 0.1 0.05 0.1 0.05 0.1 0.05 0.1 0.1 0.05 0.1 0.05 0.1 0.05 0.1 l 1.9,-1.4 m -5.2,0 2.05,1.5 V 9.1 9 8.95 8.85 8.8 8.7 8.65 8.55 8.45 8.4 8.3 8.25 8.15 8.1 8 7.95 7.85 7.75 7.7 L 51.75,7.6 V 7.55 7.45 7.4 7.3 7.2 h -1.4 -0.1 -0.1 -0.7 l 0.3,0.45 M 43.2,6 43.15,5.8 Q 43,5.55 42.65,5.55 V 5.5 q -0.4,0.1 -0.5,0.3 l -0.1,0.25 v 0.2 l 0.1,0.15 0.25,0.25 0.3,0.05 0.25,-0.15 0.15,-0.1 0.1,-0.2 V 6 m -0.4,2.7 -0.25,0.1 0.15,0.5 q 0.6,-0.8 1.25,-1 l 1.3,0.05 q 0.95,0.25 1.45,0.95 0.5,0.85 0.2,1.65 -0.4,0.85 -1.35,0.95 -0.9,0.15 -1.65,-0.45 l -0.25,-0.1 -0.25,0.2 -0.35,0.35 v 0.25 l -0.2,0.65 0.2,0.5 -0.25,0.8 q -0.3,0.3 -0.75,0.3 -0.4,0 -0.65,-0.35 l -0.15,-0.2 -0.4,-0.15 -0.15,-0.05 -0.55,0.45 q -0.5,0 -0.7,-0.3 L 39.4,13.65 39.3,13.2 39.85,12.6 39.8,12.25 40,11.3 40.2,10.45 40.5,9.8 40.65,8.95 40.4,8.9 39.5,8.65 38.9,8.4 Q 37.6,7.55 37.7,6.05 l 0.2,-0.9 0.1,-0.2 -0.05,-0.1 q -0.2,-0.55 0.25,-0.9 0.2,-0.2 0.45,-0.2 L 39,3.8 39.15,3.95 q 1.1,-0.65 2.35,-0.5 1,0.1 1.7,0.65 h 0.15 0.1 l 0.3,0.1 q 0.15,0.05 0.3,0.2 v 0.05 l 0.2,0.3 V 5.5 L 44.3,6.15 V 7.3 Q 44,8.25 42.8,8.7 m 10.65,6.45 q -0.7,0.45 -0.55,1.25 0.2,0.8 1,0.95 0.8,0.1 1.2,-0.65 0.45,-0.7 -0.15,-1.35 -0.6,-0.6 -1.35,-0.25 l -0.15,0.05 m -5.15,1.3 q 0.65,0.4 1.3,0 0.65,-0.55 0.3,-1.3 -0.35,-0.7 -1.15,-0.55 -0.85,0.15 -0.85,1 l 0.2,0.6 0.2,0.25 M 39.55,6.1 V 5.8 L 39.1,5.4 h -0.5 l -0.3,0.35 -0.05,0.3 v 0.2 L 38.6,6.6 h 0.5 l 0.4,-0.3 0.05,-0.2 m -12.7,0 0.05,0.2 0.4,0.3 h 0.5 L 28.15,6.25 V 6.05 L 28.1,5.75 27.8,5.4 H 27.3 Q 27,5.45 26.85,5.8 V 6.1 M 23.6,8.7 Q 22.4,8.25 22.1,7.3 V 6.15 L 22.15,5.5 Q 22,5.15 22.15,4.75 l 0.2,-0.3 V 4.4 l 0.3,-0.2 0.3,-0.1 h 0.1 0.15 q 0.7,-0.55 1.7,-0.65 1.25,-0.15 2.35,0.5 L 27.4,3.8 27.75,3.75 28.2,3.95 q 0.45,0.35 0.25,0.9 l -0.05,0.1 0.1,0.2 0.2,0.9 q 0.1,1.5 -1.2,2.35 L 26.9,8.65 26,8.9 25.75,8.95 25.9,9.8 l 0.3,0.65 0.2,0.85 0.2,0.95 -0.05,0.35 q 0.4,0.1 0.55,0.6 l -0.1,0.45 -0.05,0.15 -0.7,0.3 Q 25.8,14 25.7,13.65 l -0.15,0.05 -0.4,0.15 -0.15,0.2 -0.65,0.35 q -0.45,0 -0.75,-0.3 -0.35,-0.35 -0.25,-0.8 l 0.2,-0.5 -0.2,-0.65 V 11.9 L 23,11.55 22.75,11.35 22.5,11.45 Q 21.75,12.05 20.85,11.9 19.9,11.8 19.5,10.95 19.2,10.15 19.7,9.3 20.2,8.6 21.15,8.35 L 22.45,8.3 23.7,9.3 23.85,8.8 23.6,8.7 M 23.2,6 v 0.25 l 0.1,0.2 0.15,0.1 L 23.7,6.7 24,6.65 24.25,6.4 24.35,6.25 V 6.05 L 24.25,5.8 q -0.1,-0.2 -0.5,-0.3 v 0.05 q -0.35,0 -0.5,0.25 L 23.2,6 m 6.15,18.8 q -1.15,-0.6 -1.4,-1 l -0.6,-1.2 q -0.35,-1.3 -0.3,-2 l 0.35,-1.55 0.8,-1.6 q -0.25,-0.35 -0.15,-0.85 0.1,-0.55 0.75,-0.75 l 0.2,-0.05 0.65,0.15 q 0.7,-0.45 1.7,-0.75 l 1.9,-0.25 0.95,0.15 1.5,0.35 0.55,0.2 0.5,-0.35 q 0.55,-0.25 1.05,0.3 0.45,0.5 0.1,1.05 l -0.2,0.2 0.6,0.95 q 0.8,1.6 0.45,3.55 L 38.2,22.95 37.15,24 q -1.35,1.1 -2.9,1.45 v 0.1 l 0.3,1.65 0.25,1.6 -0.1,2.25 0.05,1.4 0.7,0.35 0.45,0.8 -0.2,0.9 -0.7,0.55 h -0.95 l -0.7,-0.35 -0.9,0.35 H 32.4 l -0.75,0.1 -0.25,0.45 q -0.7,0.75 -1.5,0.25 -0.5,-0.3 -0.7,-1.15 l -0.05,-0.35 q -0.8,-0.6 -1,-1.75 L 28,31.8 27.9,30.95 27.7,30.6 l -0.05,-0.1 -0.4,-0.35 -0.25,0.1 -3.5,0.1 -1.4,-1.1 Q 21.55,28.5 21.45,27.6 l 0.15,-1.3 q 0.2,-0.7 0.65,-1.2 l 0.95,-0.8 q 0.85,-0.55 1.4,-0.65 h 1.5 l 1.35,0.3 0.75,0.45 0.8,0.85 0.95,1.8 0.35,-1.3 0.2,-0.45 -1.15,-0.5 M 17.65,5.25 Q 16.05,5 15.1,4.5 v 0.1 0.1 l 0.05,0.05 V 4.85 4.95 5 5.1 5.15 5.25 5.3 5.4 5.45 5.55 5.65 5.7 L 15.2,5.8 V 5.85 5.95 6 6.1 h 0.65 1.9 L 17.9,5.7 17.95,5.3 17.65,5.25 m 17,17 0.05,-0.55 -0.1,-0.45 -0.35,-0.1 -0.25,0.25 -0.05,0.4 q -0.05,0.15 -0.3,0.15 l -0.3,-0.15 -0.6,-0.15 -0.35,0.25 q -0.3,0.2 -0.45,0 V 21.7 L 32,21.15 31.8,21 l -0.2,0.15 -0.4,0.95 0.1,0.35 0.25,0.2 0.35,0.2 h 0.15 q -0.15,0.5 0.3,0.7 l 0.5,0.1 0.6,-0.15 0.35,-0.55 V 22.9 l 0.25,-0.1 q 0.45,-0.15 0.6,-0.55 M 34.8,18 q -0.45,0.5 -0.4,1.2 0,0.75 0.5,1.2 0.45,0.45 1.15,0.5 l 1.2,-0.35 0.65,-1.1 Q 38.05,18.8 37.7,18.2 37.4,17.65 36.8,17.4 l -1.3,0.05 Q 35.1,17.6 34.8,18 m -6.15,2.85 q 0.45,0.45 1.15,0.45 0.6,0 1.05,-0.4 0.55,-0.35 0.65,-1 0.1,-0.7 -0.2,-1.2 -0.55,-0.95 -1.7,-0.8 -1.1,0.1 -1.45,1.2 -0.35,1.05 0.5,1.75 M 13.3,3.45 14,2.85 14.45,2.8 l 0.25,0.05 0.7,0.6 q 0.5,0.35 1.15,0.45 l 1.4,-0.15 0.9,0.2 L 19.1,4.4 19.2,4.8 19.15,6.05 19.1,6.2 19,6.85 18.3,8.55 17.35,9.3 15.3,10.6 14.9,10.65 h -0.05 l -0.1,0.1 -0.1,0.05 -0.05,0.05 H 14.45 L 14.2,10.8 14.05,10.7 13.95,10.65 13.4,10.6 11.35,9.3 10.4,8.55 9.7,6.85 9.6,6.2 9.55,6.05 9.5,4.8 9.6,4.4 9.85,3.95 10.75,3.75 12.15,3.9 13.3,3.45 M 11.05,5.25 10.75,5.3 10.8,5.7 11,6.2 V 6.15 h 0.05 L 11.2,6.1 h 0.95 0.1 0.1 1.35 L 13.65,6.05 V 6 5.9 5.85 5.75 L 13.7,5.7 V 5.6 5.5 5.45 5.35 5.3 5.2 5.15 5.05 5 4.9 4.85 4.75 l 0.05,-0.1 V 4.6 4.5 4.45 q -1,0.55 -2.7,0.8 m 5.9,2.4 0.3,-0.4 h -1.4 -0.75 v 0.1 0.05 0.1 0.05 l -0.05,0.1 v 0.05 0.1 0.1 0.05 0.1 0.05 0.1 0.05 0.1 0.05 0.1 0.1 0.05 0.1 0.05 0.1 0.05 0.1 l 1.9,-1.4 m -5.2,0 q 0.4,0.5 2.05,1.5 V 9.1 9 8.95 8.85 8.8 8.7 8.65 8.55 8.45 8.4 8.3 8.25 8.15 8.1 8 7.95 7.85 7.75 7.7 L 13.75,7.6 V 7.55 7.45 7.4 7.3 7.2 h -1.4 -0.1 -0.1 -0.7 l 0.3,0.45 M 3.55,21.5 Q 3.5,19.95 5.25,19.1 7,18.2 7.75,18.65 l 1.1,0.65 0.65,0.5 0.55,0.85 0.8,1.65 0.45,-1.15 0.1,-0.4 L 10.45,20.2 9.3,19.25 8.85,18.15 Q 8.6,16.95 8.7,16.3 8.65,16.1 9.15,15 l 0.8,-1.3 q -0.25,-0.35 -0.1,-0.75 0.15,-0.5 0.7,-0.6 l 0.2,-0.05 0.5,0.2 Q 11.9,12.15 12.8,12 l 1.7,-0.05 0.8,0.25 1.25,0.4 0.5,0.25 0.45,-0.3 q 0.55,-0.15 0.95,0.35 0.35,0.5 0.05,1 l -0.2,0.15 0.4,0.85 q 0.6,1.55 0.2,3.15 l -0.6,1.35 -1,0.85 q -1.25,0.8 -2.65,1 l 0.05,0.1 0.1,1.5 0.15,1.45 -0.25,1.85 v 1.3 l 0.55,0.35 0.3,0.75 -0.2,0.75 -0.65,0.45 -0.85,-0.05 -0.6,-0.4 -0.7,0.25 h -0.1 l -0.6,-0.05 -0.3,0.45 -1.3,0.05 Q 9.8,29.65 9.65,28.9 l 0.1,-0.3 Q 9.05,27.95 8.85,26.95 L 8.8,26.2 8.75,25.45 8.65,25.2 8.6,25.1 8.3,24.75 8,24.8 4.95,24.6 3.85,23.45 Q 3.6,23 3.55,21.5 m 8.25,-7.65 -0.75,0.15 -0.5,0.4 q -0.65,0.9 0.05,1.8 0.75,0.9 1.75,0.4 l 0.7,-0.65 0.1,-0.95 -0.45,-0.8 q -0.4,-0.35 -0.9,-0.35 m 3.75,1.35 q -0.2,0.45 -0.1,0.95 l 0.55,0.8 q 0.8,0.5 1.55,0 0.8,-0.55 0.55,-1.5 -0.25,-0.9 -1.2,-1 Q 16,14.3 15.55,15.2"
         fill="#999999"
         fill-rule="evenodd"
         stroke="none"
         id="path4" />
      <path
         d="M 48.3,16.45 48.1,16.2 47.9,15.6 q 0,-0.85 0.85,-1 0.8,-0.15 1.15,0.55 0.35,0.75 -0.3,1.3 -0.65,0.4 -1.3,0 m 5.15,-1.3 0.15,-0.05 q 0.75,-0.35 1.35,0.25 0.6,0.65 0.15,1.35 -0.4,0.75 -1.2,0.65 -0.8,-0.15 -1,-0.95 -0.15,-0.8 0.55,-1.25 M 29.8,5.8 29.85,5.6 Q 30,5.35 30.35,5.35 V 5.3 q 0.4,0.1 0.5,0.3 l 0.1,0.25 v 0.2 L 30.85,6.2 30.6,6.45 30.3,6.5 q -0.15,0 -0.25,-0.15 L 29.9,6.25 29.8,6.05 V 5.8 m 3.65,0.1 V 5.6 Q 33.6,5.25 33.9,5.2 h 0.5 l 0.3,0.35 0.05,0.3 v 0.2 L 34.4,6.4 H 33.9 L 33.5,6.1 33.45,5.9 m -17.9,9.3 q 0.45,-0.9 1.35,-0.75 0.95,0.1 1.2,1 0.25,0.95 -0.55,1.5 -0.75,0.5 -1.55,0 l -0.55,-0.8 q -0.1,-0.5 0.1,-0.95 M 11.8,13.85 q 0.5,0 0.9,0.35 l 0.45,0.8 -0.1,0.95 -0.7,0.65 q -1,0.5 -1.75,-0.4 -0.7,-0.9 -0.05,-1.8 l 0.5,-0.4 0.75,-0.15"
         fill="#ffffff"
         fill-rule="evenodd"
         stroke="none"
         id="path5" />
      <path
         d="M 38.25,42.2 38,42 38.1,41.55 q 0,-0.35 0.15,-0.4 l 0.15,-0.35 1.9,-2.9 0.4,-0.5 0.5,-0.95 0.6,-0.9 q 0.35,-0.35 0.95,-0.35 0.5,0 0.9,0.3 l 0.55,0.85 -0.05,0.95 -1.05,1.2 -2.8,2.45 -0.75,0.55 -0.6,0.55 -0.7,0.15 m -12.9,0.85 6.15,-0.4 6.15,0.4 3.25,0.95 0.1,0.05 2.65,-1.7 q 1.25,-0.85 2.1,-1.2 1.25,-0.6 2.45,-0.3 0.55,0.1 0.8,0.4 0.45,0.35 0.55,1.1 l -0.05,1.3 -0.55,4.2 -0.45,2.4 2.25,3.9 q 0.95,1.9 0.15,2.9 -0.5,0.6 -1.8,0.7 l -2.6,0.2 h -0.05 l -2.5,0.3 -8.9,-0.45 -3.55,-0.15 -3.55,0.15 -8.9,0.45 -2.5,-0.3 -2.65,-0.2 q -1.3,-0.1 -1.8,-0.7 -0.8,-1 0.15,-2.9 1.05,-2.15 2.25,-3.9 l -0.45,-2.4 -0.55,-4.2 -0.05,-1.3 q 0.1,-0.75 0.55,-1.1 0.25,-0.3 0.8,-0.4 1.2,-0.3 2.45,0.3 0.85,0.35 2.1,1.2 L 22,44.05 22.1,44 25.35,43.05 m 29.05,-1.65 -0.15,0.7 1.7,0.1 0.7,0.05 0.2,-0.5 -2.45,-0.35 m 4.75,-0.6 -0.05,0.8 -0.4,2.05 -0.3,1.4 q 0.85,0.55 0.95,1.65 v 0.65 L 58.7,48.2 57.35,48.4 56.2,48.05 q -0.7,-0.55 -0.55,-1.3 l 0.15,-0.5 0.05,-0.8 0.15,-0.7 0.15,-0.85 -0.35,-0.3 -1.15,-0.3 -0.7,-0.3 -0.35,0.9 -0.1,0.4 0.5,0.2 q 1,0.8 0.65,1.95 l -0.5,0.8 q -0.45,0.3 -1.05,0.3 -0.8,0 -1.25,-0.45 -0.35,-0.35 -0.35,-0.85 l 0.1,-0.65 v -0.25 l 0.25,-1.1 0.2,-0.85 0.4,-3.1 0.15,-0.75 q 0.25,-0.85 1.2,-0.85 l 0.9,0.25 0.9,0.35 1.2,0.1 1.15,0.4 q 1.05,0.4 1.2,1 M 32.1,6.25 l 0.7,-0.6 0.45,-0.05 0.25,0.05 0.7,0.6 q 0.5,0.35 1.15,0.45 l 1.4,-0.15 0.9,0.2 L 37.9,7.2 38,7.6 37.95,8.85 37.9,9 l -0.1,0.65 -0.7,1.7 -0.95,0.75 -2.05,1.3 -0.4,0.05 h -0.05 l -0.1,0.1 -0.1,0.05 -0.05,0.05 H 33.25 L 33,13.6 32.85,13.5 32.75,13.45 32.2,13.4 30.15,12.1 29.2,11.35 28.5,9.65 28.4,9 28.35,8.85 28.3,7.6 28.4,7.2 28.65,6.75 29.55,6.55 30.95,6.7 32.1,6.25 M 36.45,8.05 33.9,7.3 v 0.1 0.1 l 0.05,0.05 v 0.1 0.1 0.05 0.1 0.05 0.1 0.05 0.1 0.05 0.1 0.1 0.05 L 34,8.6 v 0.05 0.1 0.05 0.1 h 0.65 1.9 L 36.7,8.5 36.75,8.1 36.45,8.05 m -6.6,0 -0.3,0.05 0.05,0.4 0.2,0.5 V 8.95 h 0.05 L 30,8.9 h 0.95 0.1 0.1 1.35 L 32.45,8.85 V 8.8 8.7 8.65 8.55 L 32.5,8.5 V 8.4 8.3 8.25 8.15 8.1 8 7.95 7.85 7.8 7.7 7.65 7.55 l 0.05,-0.1 V 7.4 7.3 7.25 q -1,0.55 -2.7,0.8 m 0.7,2.4 q 0.4,0.5 2.05,1.5 v -0.05 -0.1 -0.05 -0.1 -0.05 -0.1 -0.05 -0.1 -0.1 -0.05 -0.1 -0.05 -0.1 -0.05 -0.1 -0.05 -0.1 -0.1 -0.05 L 32.55,10.4 V 10.35 10.25 10.2 10.1 10 h -1.4 -0.1 -0.1 -0.7 l 0.3,0.45 m 1.6,29.7 -0.3,1.35 Q 31.5,41.85 31.3,41.8 L 31,41.5 30.7,40.9 30.55,39.8 v -0.3 l -0.4,-2.65 -0.05,-1 -0.25,-0.65 -0.1,-0.65 0.05,-0.65 q 0.1,-0.5 0.55,-0.8 0.4,-0.3 0.95,-0.3 0.5,0.05 0.9,0.4 l 0.5,0.85 -0.1,3.15 -0.4,2.35 -0.05,0.6 M 5.75,48.7 5.95,48.1 Q 6.4,47.25 7.5,47 l 0.3,-0.05 0.1,-0.15 0.05,-0.65 0.4,-1.35 0.2,-1.35 0.3,-0.8 Q 9,42.4 9.35,42.5 l 0.2,0.1 0.55,0.25 1.1,0.8 0.5,0.45 q 0.25,0.6 -0.3,1.05 l -1.1,0.35 -0.5,0.05 v 1.2 1.2 l 0.05,0.35 0.1,0.3 q 0.15,0.55 -0.1,1.05 -0.2,0.4 -0.85,0.7 H 7.7 L 6.6,50.1 6.15,49.7 q -0.4,-0.6 -0.4,-1 M 6.25,38.55 6.8,39.35 7,39.6 q 0.35,0.35 0.35,0.95 0,0.55 -0.45,0.9 l -0.4,0.2 -1.55,0.3 Q 4,41.85 3.7,41.1 L 3.55,40.35 Q 3.5,39.7 3.95,38.95 l 0.15,-0.3 v -0.3 L 3.25,36.6 3.2,35.95 3.3,35.6 3.9,35.45 5.65,35.25 q 0.5,0.1 0.7,0.3 0.3,0.4 0.05,0.9 l -0.6,0.8 -0.4,0.3 0.25,0.25 0.25,0.4 0.35,0.35 M 24.05,42.2 23.35,42.05 22.75,41.5 22,40.95 19.2,38.5 18.15,37.3 q -0.2,-0.45 -0.05,-0.95 0.15,-0.55 0.55,-0.85 0.4,-0.3 0.9,-0.3 0.6,0 0.95,0.35 l 0.6,0.9 0.5,0.95 0.4,0.5 1.9,2.9 0.15,0.35 0.15,0.4 0.1,0.45 -0.25,0.2 m 11.7,-31.75 0.3,-0.4 h -1.4 -0.75 v 0.1 0.05 0.1 0.05 l -0.05,0.1 v 0.05 0.1 0.1 0.05 0.1 0.05 0.1 0.05 0.1 0.05 0.1 0.1 0.05 0.1 0.05 0.1 0.05 0.1 l 1.9,-1.4"
         fill="#000000"
         fill-rule="evenodd"
         stroke="none"
         id="path6" />
    </g>
    <g
       id="shape2"
       transform="translate(1.5,1.5)">
      <path
         d="M 0,23.8 V 0 H 64.1 V 23.8 57.55 H 0 Z"
         fill="none"
         stroke="#000000"
         stroke-linecap="round"
         stroke-linejoin="round"
         stroke-width="3"
         id="path7" />
    </g>
  </defs>
</svg>
