<?xml version="1.0" encoding="UTF-8" standalone="no"?>
<svg
   ffdec:objectType="frame"
   height="60.549999"
   width="67.099998"
   version="1.1"
   id="svg8"
   sodipodi:docname="470.svg"
   xmlns:inkscape="http://www.inkscape.org/namespaces/inkscape"
   xmlns:sodipodi="http://sodipodi.sourceforge.net/DTD/sodipodi-0.dtd"
   xmlns:xlink="http://www.w3.org/1999/xlink"
   xmlns="http://www.w3.org/2000/svg"
   xmlns:svg="http://www.w3.org/2000/svg"
   xmlns:ffdec="https://www.free-decompiler.com/flash">
  <sodipodi:namedview
     id="namedview8"
     pagecolor="#ffffff"
     bordercolor="#000000"
     borderopacity="0.25"
     inkscape:showpageshadow="2"
     inkscape:pageopacity="0.0"
     inkscape:pagecheckerboard="0"
     inkscape:deskcolor="#d1d1d1"
     fit-margin-top="5"
     fit-margin-left="5"
     fit-margin-right="5"
     fit-margin-bottom="5" />
  <g
     transform="translate(1.5,1.5)"
     id="g3">
    <use
       ffdec:characterId="516"
       height="57.549999"
       width="64.099998"
       xlink:href="#shape0"
       id="use1" />
    <use
       ffdec:characterId="968"
       height="57.549999"
       transform="translate(-0.45,0.85)"
       width="64.449997"
       xlink:href="#shape1"
       id="use2" />
    <use
       ffdec:characterId="518"
       height="60.549999"
       transform="translate(-1.5,-1.5)"
       width="67.099998"
       xlink:href="#shape2"
       id="use3" />
  </g>
  <defs
     id="defs8">
    <g
       id="shape0">
      <path
         d="M 53.6,0 H 64.1 V 57.55 H 53.6 28.25 0 V 0 H 28.25 53.6 V 57.55 0 M 28.25,0 V 57.55 0"
         fill="#ffffff"
         fill-rule="evenodd"
         stroke="none"
         id="path3" />
    </g>
    <g
       id="shape1"
       transform="translate(0.45,-0.85)">
      <path
         d="M 33.45,43.85 Q 33.6,43.3 34.2,42.7 l 1,-0.95 q 1.4,-1.6 1.8,-5.2 0.1,-1.2 0.6,-1.6 0.65,-0.55 1.5,0 0.7,0.45 0.85,1.35 v 1.65 l -0.4,2.1 -0.7,2.2 q 2.05,0.2 2.85,0.8 1.25,1.1 0.85,2.65 -0.5,1.6 -2.1,1.85 L 38.9,47.4 37.4,47.1 35.5,46.95 Q 34.85,46.8 34.3,46.25 33.1,45.1 33.45,43.85 M 22.5,31.95 23.3,32 l 3.1,-0.1 0.7,-0.1 1.25,0.1 0.1,0.05 2.65,-0.75 1.05,0.1 0.15,0.55 -0.35,0.55 -0.4,0.2 -0.5,0.45 -3.05,1.05 -3.45,1.35 -0.5,0.25 4.8,-0.9 2.1,-0.9 1.4,-0.5 q 0.75,-0.3 1,-0.25 l 0.75,0.75 0.15,0.4 0.45,-0.3 0.75,-0.3 q 0.4,-0.05 0.65,0.25 0.3,0.35 0.2,0.7 l -0.35,0.5 -0.25,0.25 -0.25,0.3 -0.45,0.45 0.05,0.15 q 0.15,0.35 -0.4,0.9 l -1.85,1.6 -1.6,2.2 -0.9,1.1 -0.75,0.75 -0.45,0.75 -0.9,1 -0.35,0.35 0.5,-0.1 1.65,0.1 q 1.6,0.35 2.6,1.95 0.85,1.25 1.05,2.8 v 1.55 l 0.85,-0.1 1.55,-0.05 q 1.95,0.15 3.35,1.2 l 1.15,1.1 0.6,1.1 0.7,1.8 q 0.1,1.2 -0.55,1.75 -0.4,0.35 -1,0.35 -0.6,0 -1,-0.4 l -0.4,-0.7 -0.2,0.05 h -0.4 l -0.45,0.05 h -0.5 L 36.3,57.45 H 35.65 L 34.5,57.5 h -1.55 l -1.2,0.05 H 31.2 L 30.95,57.6 H 30.7 l -0.55,0.05 h -1.3 l -3.2,0.05 h -0.7 l -0.25,0.05 -0.2,0.05 h -0.25 l -0.6,0.05 H 21.5 l -1.3,0.05 h -0.75 l -0.7,0.05 h -1 L 17.15,58 H 14.3 l -0.5,0.05 h -0.35 l -0.3,0.05 h -0.4 L 6.4,58.15 H 5.1 L 1.9,58.1 H 1.6 L 1.5,58.05 H 1.4 L 1.15,58 H 1.05 L 0.9,57.95 0.7,57.85 0.55,57.8 0.4,57.7 0.3,57.6 0.25,57.55 0.15,57.45 0.1,57.4 0.05,57.3 0,57.25 -0.05,57.15 -0.1,57.1 V 57 l -0.05,-0.1 v -0.05 -0.1 L -0.2,56.7 v -0.1 -0.05 -0.1 -0.05 -0.1 -0.1 l 0.05,-0.05 v -0.1 -0.1 L -0.2,55.85 -0.25,55.8 -0.3,55.7 v -0.05 l -0.05,-0.1 V 55.45 55.4 55.3 L -0.4,55.25 V 55.15 55.1 55 54.95 54.85 L -0.45,54.8 V 54.7 54.6 54.55 54.45 54.4 54.3 54.25 54.15 54.1 54 53.9 53.85 53.75 53.7 53.6 53.55 53.45 53.4 53.3 53.2 53.15 53.05 53 52.9 52.85 52.75 52.7 52.6 52.5 52.45 52.35 52.3 52.2 52.15 52.05 52 v -0.1 -0.05 -0.1 -0.1 -0.05 -0.1 -0.05 -0.1 -0.05 -0.1 -0.05 -0.1 -0.1 -0.05 -0.1 -0.05 -0.1 -0.05 -0.1 -0.05 -0.1 -0.1 -0.05 -0.1 -0.05 -0.1 -0.05 -0.1 -0.05 -0.1 -0.1 V 49.5 49.4 49.35 49.25 49.2 49.1 49.05 48.95 48.9 48.8 48.7 48.65 48.55 48.5 48.4 48.35 48.25 48.2 48.1 48 47.95 47.85 47.8 47.7 47.65 47.55 47.5 47.4 L -0.4,47.3 V 47.25 47.15 47.1 47 46.95 46.85 46.8 46.7 46.65 46.55 46.45 46.4 46.3 46.25 46.15 46.1 46 45.95 45.85 45.75 45.7 45.6 45.55 45.45 45.4 45.3 45.25 45.15 45.05 45 44.9 44.85 44.75 44.7 44.6 44.55 44.45 44.35 44.3 44.2 44.15 44.05 44 43.9 43.85 43.75 43.7 43.6 43.5 43.45 43.35 43.3 43.2 43.15 43.05 43 v -0.1 -0.1 -0.05 -0.1 -0.05 -0.1 -0.05 -0.1 -0.05 -0.1 -0.1 -0.05 -0.1 -0.05 -0.1 -0.05 -0.1 -0.05 -0.1 -0.05 -0.1 -0.1 -0.05 -0.1 -0.05 -0.1 -0.05 -0.1 -0.05 -0.1 -0.1 -0.05 -0.1 -0.05 -0.1 -0.05 -0.1 -0.05 -0.1 -0.1 -0.05 -0.1 -0.05 -0.1 -0.05 -0.1 -0.05 -0.1 -0.1 V 39.1 39 38.95 38.85 38.8 38.7 38.65 38.55 38.5 38.4 38.3 38.25 38.15 38.1 38 37.95 37.85 37.8 37.7 37.6 37.55 37.45 37.4 37.3 37.25 37.15 37.1 37 36.9 36.85 36.75 36.7 36.6 36.55 36.45 36.4 36.3 36.2 36.15 36.05 36 35.9 35.85 35.75 35.7 35.6 35.55 35.45 35.35 35.3 35.2 35.15 35.05 35 34.9 34.85 34.75 34.65 34.6 34.5 34.45 34.35 34.3 34.2 34.15 34.05 33.95 33.9 33.8 33.75 33.65 33.6 33.5 33.45 33.35 33.3 33.2 33.1 33.05 32.95 32.9 32.8 32.75 32.65 32.6 32.5 32.4 32.35 32.25 32.2 32.1 32.05 31.95 31.9 31.8 31.7 31.65 31.55 31.5 31.4 31.35 31.25 31.2 31.1 31 30.95 30.85 30.8 30.7 30.65 30.55 30.5 30.4 30.35 30.25 30.15 30.1 30 29.95 29.85 29.8 29.7 29.65 29.55 29.45 29.4 29.3 29.25 29.15 29.1 29 28.95 28.85 28.75 28.7 28.6 28.55 28.45 28.4 28.3 28.25 28.15 28.05 28 27.9 27.85 27.75 27.7 27.6 27.55 27.45 27.4 27.3 27.2 27.15 27.05 27 26.9 26.85 26.75 26.7 26.6 26.5 26.45 26.35 26.3 26.2 26.15 26.05 26 v -0.1 -0.1 -0.05 -0.1 -0.05 -0.1 -0.05 -0.1 -0.05 -0.1 -0.05 -0.1 -0.1 -0.05 -0.1 -0.05 -0.1 -0.05 -0.1 -0.05 -0.1 -0.1 -0.05 -0.1 -0.05 -0.1 -0.05 -0.1 -0.05 -0.1 -0.1 -0.05 -0.1 -0.05 -0.1 -0.05 -0.1 -0.05 -0.1 -0.1 V 22.8 22.7 22.65 22.55 22.5 22.4 22.35 22.25 22.2 22.1 22 l 0.05,-0.05 v -0.1 -0.05 -0.1 -0.05 -0.1 -0.05 -0.1 -0.1 -0.05 l 0.05,-0.1 V 21.1 21 20.95 20.85 20.8 20.7 20.6 20.55 20.45 20.4 20.3 20.25 20.15 20.1 20 l 0.05,-0.1 V 19.85 19.75 19.7 19.6 19.55 19.45 19.4 19.3 19.25 19.15 19.05 19 18.9 18.85 18.75 18.7 18.6 18.55 18.45 18.35 18.3 18.2 18.15 18.05 18 17.9 17.85 17.75 17.65 17.6 17.5 17.45 17.35 17.3 17.2 17.15 17.05 17 16.9 16.8 16.75 16.65 16.6 16.5 16.45 16.35 16.3 16.2 16.1 16.05 15.95 15.9 15.8 15.75 15.65 15.6 15.5 15.4 15.35 15.25 15.2 15.1 15.05 14.95 14.9 14.8 14.7 14.65 14.55 14.5 14.4 14.35 14.25 14.2 14.1 14.05 13.95 13.85 13.8 13.7 13.65 13.55 L -0.2,13.5 V 13.4 13.35 13.25 13.15 13.1 13 12.95 12.85 12.8 12.7 12.65 12.55 12.45 12.4 12.3 12.25 12.15 12.1 12 11.95 11.85 11.75 11.7 11.6 11.55 11.45 11.4 11.3 11.25 11.15 11.1 11 10.9 10.85 10.75 10.7 10.6 10.55 10.45 10.4 10.3 10.2 10.15 10.05 10 9.9 9.85 9.75 9.7 9.6 9.5 9.45 9.35 9.3 9.2 9.15 9.05 9 8.9 8.85 8.75 8.65 8.6 8.5 8.45 8.35 8.3 8.2 8.15 8.05 7.95 L -0.15,7.9 V 7.8 7.75 7.65 7.6 7.5 7.45 7.35 7.25 7.2 7.1 7.05 6.95 6.9 6.8 6.75 6.65 6.55 6.5 6.4 6.35 6.25 6.2 6.1 6.05 5.95 5.9 5.8 5.7 5.65 5.55 5.5 5.4 5.35 5.25 5.2 5.1 5 4.95 4.85 4.8 4.7 4.65 4.55 4.5 4.4 4.3 4.25 4.15 4.1 4 3.95 3.85 3.8 3.7 3.6 3.55 L -0.1,3.45 V 3.4 3.3 3.25 3.15 3.1 3 L -0.05,2.95 V 2.85 2.75 L 0,2.7 V 2.6 L 0.05,2.55 0.1,2.45 0.15,2.4 0.2,2.3 0.25,2.25 0.3,2.15 0.35,2.05 0.45,2 0.95,1.35 4.35,1.45 Q 6.3,2.4 7.6,4 9,5.7 9.35,7.65 q 1.95,0.75 3.6,1.95 1.25,0.9 1.9,1.85 0.5,0.75 1,2.45 l 0.55,2.9 q 0.15,2.65 -1.15,5.2 l 1.45,-0.1 1.3,0.25 0.85,0.55 2.35,2.15 q 1.15,1.45 1.3,2.8 l 0.05,1.35 -0.35,1.9 -0.5,0.95 0.8,0.1 m 8.1,4.6 q -1.2,0.7 -2.4,1.9 L 27,39.55 29,38.3 29.55,38 32.2,35.75 31.15,36.1 30.6,36.55"
         fill="#767676"
         fill-rule="evenodd"
         stroke="none"
         id="path4" />
      <path
         d="m 30,31.35 q -0.25,-2.3 0.4,-4.45 0.65,-2 2,-3.8 1.2,-1.7 2.7,-2.75 2.8,-2.05 6.85,-1.9 l 1.95,0.3 Q 44.3,16.7 43.5,14.5 42.7,12.45 41.1,10.85 39.85,9.6 38.55,9.45 37.05,9.25 35.6,10.6 l -1.15,1.25 -1,1.25 q -2.85,3.35 -6.7,4.1 L 22.8,17 q -2.05,-0.55 -3.4,-1.95 -1.45,-1.45 -1.5,-3.1 0,-1.4 1.05,-2.8 1.25,-1.6 2.65,-1.8 1.45,-0.15 2.7,0.85 1.1,0.85 1.5,2.45 L 27.25,10.8 28.45,9.85 31,7 q 1.55,-1.6 2.95,-2.35 2,-1.1 4.35,-1.05 2.4,0.05 4.3,1.3 l 2.75,2.5 q 2,2.3 2.85,4.4 0.9,2.15 0.9,4.95 l -0.1,2 2.15,-0.1 Q 50.7,17.45 50.7,16.1 l -0.15,-0.3 q -1.1,-2.15 -0.9,-5.9 0,-1.5 0.35,-2.4 0.55,-1.4 1.6,-1.8 l 1.85,-0.05 q 1.65,0.3 4.15,1.9 L 60,7.15 q 2.05,0.1 3.25,1.1 L 64,9.05 V 23.2 l -0.15,0.15 -0.25,0.3 0.2,0.35 0.2,0.4 v 8.75 q -0.8,1.85 -2.25,3.2 l -3.5,2.4 -0.25,0.15 0.1,2.6 q -0.25,3.15 -2.55,6.75 l 1.95,0.2 q 0.95,0.45 1.3,1.35 0.4,0.85 0.1,1.9 -0.35,1 -1.2,1.45 l -1.45,0.35 -1.55,-0.1 -4.05,-0.5 -2.1,-0.45 q -1.1,-0.4 -1.55,-1.4 -0.3,-0.7 -0.05,-1.6 0.2,-0.8 0.8,-1.5 l 1.2,-1.15 1.25,-1.1 q 1,-1 1.55,-2.25 -1.55,1 -3.3,1.5 l -5.9,-0.15 q -3.1,-0.95 -4.9,-3.3 L 36.7,40 l -0.9,-0.4 -2.45,-1.65 3.1,-3.3 q 0.45,-0.45 0.2,-0.7 -0.2,-0.35 -0.75,0 l -2.9,1.6 -1.05,0.8 -0.2,-0.25 -0.35,-0.5 3.5,-2.1 0.45,-0.5 -1.75,0.05 -3,0.85 -0.2,-0.75 2.1,-0.75 1.2,-0.4 1,-0.15 0.9,-0.35 0.2,-0.3 q 0,-0.35 -0.6,-0.35 l -3.25,0.2 -1.95,0.3 m 15.3,2.2 h 0.05 l 0.05,-0.1 0.05,-0.05 0.1,-0.15 -0.2,0.25 -0.05,0.05 m -8.4,-0.4 q 0.6,0.45 1.25,0.4 V 33.3 L 38.8,31.8 39.3,31.15 39.5,31 39.3,30.65 q -0.4,-0.4 -1,-0.4 -0.8,-0.1 -1.4,0.45 -0.4,0.4 -0.5,1.15 l 0.05,0.65 0.45,0.65"
         fill="#000000"
         fill-rule="evenodd"
         stroke="none"
         id="path5" />
      <path
         d="m 9.85,35.8 q -0.1,1 0.3,1.95 0.45,0.95 1.3,1.45 0.85,0.55 1.85,0.55 1.05,0 1.85,-0.55 0.85,-0.5 1.25,-1.45 0.45,-0.95 0.35,-1.9 -0.1,-1 -0.75,-1.8 -0.65,-0.8 -1.6,-1.1 -1.55,-0.55 -2.95,0.35 -1.45,0.9 -1.6,2.5 m 6.4,4.15 -1,1.05 q 0.7,0.6 0.7,1.75 l -0.4,1.15 q -0.4,0.55 -1,0.75 -0.6,0.2 -1.25,0 l -0.5,-0.3 -0.25,1.45 q -0.4,0.55 -1,0.7 L 10.2,46.35 Q 9.5,45.95 9.3,45.3 L 9.2,44.7 8.9,45.1 8.2,45.65 6.75,45.55 6.05,44.85 Q 5.85,44.3 6,43.55 l 0.1,-0.5 q -1,-0.5 -1.9,-1.3 -1.1,-0.95 -1.5,-2 -0.4,-0.9 -0.3,-2.3 0.15,-2.4 1.65,-4.5 1.45,-2 3.7,-3.15 1.1,-0.6 2.2,-0.8 2.9,-0.45 5.25,1.5 2.15,1.8 2.45,4.55 0.4,2.7 -1.4,4.9 M 6.8,37.9 5.4,37.95 Q 4.7,38.2 4.35,38.85 4,39.5 4.2,40.25 q 0.15,0.75 0.7,1.2 0.55,0.45 1.35,0.4 0.8,0 1.3,-0.5 0.5,-0.45 0.65,-1.2 0.1,-0.8 -0.3,-1.4 -0.4,-0.6 -1.1,-0.85 m 8.15,9.55 q 0.25,-0.35 0.65,-0.2 0.4,0.1 0.4,0.5 l -0.05,0.45 -0.6,1.65 Q 14.5,51.35 12.2,52 L 8.85,51.9 7.75,51.1 7.05,50.25 Q 6.8,49.8 6.9,49.25 7,48.65 7.4,48.3 7.8,47.9 8.35,47.85 l 1.05,0.25 0.3,0.3 0.45,-0.4 1.4,0.1 0.55,0.35 q 0.35,-0.65 0.9,-0.9 0.75,-0.3 1.45,0 l 0.35,0.2 0.15,-0.3"
         fill="#ffffff"
         fill-rule="evenodd"
         stroke="none"
         id="path6" />
      <path
         d="m 33.35,37.95 -4.45,4.25 -1.5,1.3 q -1.45,1.25 -2.05,1.55 -0.8,0.5 -1.25,0.2 l -0.35,-0.55 0.1,-0.7 0.85,-1.2 5.75,-5.25 1.5,-1.2 1.05,-0.8 2.9,-1.6 q 0.55,-0.35 0.75,0 0.25,0.25 -0.2,0.7 l -3.1,3.3 M 31.4,35.6 29.75,36.55 23.8,39.65 22,40.3 q -0.6,0.1 -0.85,-0.2 -0.2,-0.45 0.3,-0.95 l 5.7,-3.65 2.6,-1.3 0.85,-0.3 3,-0.85 1.75,-0.05 -0.45,0.5 -3.5,2.1 m -1,-2.45 -2.2,0.6 -7.3,1.75 -0.9,0.15 Q 19.5,35.55 19.3,35.25 19,34.7 19.4,34.2 l 0.85,-0.65 1.8,-0.6 4.85,-1 3.1,-0.6 1.95,-0.3 3.25,-0.2 q 0.6,0 0.6,0.35 l -0.2,0.3 -0.9,0.35 -1,0.15 -1.2,0.4 -2.1,0.75 M 9.85,35.8 q 0.15,-1.6 1.6,-2.5 1.4,-0.9 2.95,-0.35 0.95,0.3 1.6,1.1 0.65,0.8 0.75,1.8 0.1,0.95 -0.35,1.9 -0.4,0.95 -1.25,1.45 -0.8,0.55 -1.85,0.55 -1,0 -1.85,-0.55 Q 10.6,38.7 10.15,37.75 9.75,36.8 9.85,35.8 M 6.8,37.9 q 0.7,0.25 1.1,0.85 0.4,0.6 0.3,1.4 -0.15,0.75 -0.65,1.2 -0.5,0.5 -1.3,0.5 Q 5.45,41.9 4.9,41.45 4.35,41 4.2,40.25 4,39.5 4.35,38.85 4.7,38.2 5.4,37.95 L 6.8,37.9 M 36.9,33.15 36.45,32.5 36.4,31.85 q 0.1,-0.75 0.5,-1.15 0.6,-0.55 1.4,-0.45 0.6,0 1,0.4 l 0.2,0.35 -0.2,0.15 -0.5,0.65 -0.65,1.5 v 0.25 Q 37.5,33.6 36.9,33.15"
         fill="#767676"
         fill-rule="evenodd"
         stroke="none"
         id="path7" />
    </g>
    <g
       id="shape2"
       transform="translate(1.5,1.5)">
      <path
         d="M 0,23.8 V 0 H 64.1 V 23.8 57.55 H 0 Z"
         fill="none"
         stroke="#000000"
         stroke-linecap="round"
         stroke-linejoin="round"
         stroke-width="3"
         id="path8" />
    </g>
  </defs>
</svg>
