<?xml version="1.0" encoding="UTF-8" standalone="no"?>
<svg
   ffdec:objectType="frame"
   height="60.549999"
   width="67.099998"
   version="1.1"
   id="svg8"
   sodipodi:docname="332.svg"
   xmlns:inkscape="http://www.inkscape.org/namespaces/inkscape"
   xmlns:sodipodi="http://sodipodi.sourceforge.net/DTD/sodipodi-0.dtd"
   xmlns:xlink="http://www.w3.org/1999/xlink"
   xmlns="http://www.w3.org/2000/svg"
   xmlns:svg="http://www.w3.org/2000/svg"
   xmlns:ffdec="https://www.free-decompiler.com/flash">
  <sodipodi:namedview
     id="namedview8"
     pagecolor="#ffffff"
     bordercolor="#000000"
     borderopacity="0.25"
     inkscape:showpageshadow="2"
     inkscape:pageopacity="0.0"
     inkscape:pagecheckerboard="0"
     inkscape:deskcolor="#d1d1d1"
     fit-margin-top="5"
     fit-margin-left="5"
     fit-margin-right="5"
     fit-margin-bottom="5" />
  <g
     transform="translate(1.5,1.5)"
     id="g3">
    <use
       ffdec:characterId="516"
       height="57.549999"
       width="64.099998"
       xlink:href="#shape0"
       id="use1" />
    <use
       ffdec:characterId="833"
       height="57.349998"
       transform="translate(0.15,-0.25)"
       width="63.849998"
       xlink:href="#shape1"
       id="use2" />
    <use
       ffdec:characterId="518"
       height="60.549999"
       transform="translate(-1.5,-1.5)"
       width="67.099998"
       xlink:href="#shape2"
       id="use3" />
  </g>
  <defs
     id="defs8">
    <g
       id="shape0">
      <path
         d="M 53.6,0 H 64.1 V 57.55 H 53.6 28.25 0 V 0 H 28.25 53.6 V 57.55 0 M 28.25,0 V 57.55 0"
         fill="#ffffff"
         fill-rule="evenodd"
         stroke="none"
         id="path3" />
    </g>
    <g
       id="shape1"
       transform="translate(-0.15,0.25)">
      <path
         d="m 45.8,0.45 1.95,0.45 q 3.25,0.7 4.85,1.55 2.15,1.15 3.5,3.1 l 1.2,2.15 0.95,2.2 1.25,2.75 1.1,2.7 1,4.2 0.8,4.5 q 1.05,6.9 -0.1,14 -0.8,5.05 -2.9,8.1 l -2.55,2.85 -3.6,3.1 q -1.5,1.05 -4.3,2.5 -3.25,1.75 -5.15,2.25 l -1.05,0.25 h -23.1 l -0.8,-0.15 q -5.7,-1 -9.1,-4.2 Q 5,48.3 4.35,39.65 4.05,36.5 4.45,33.1 L 5.2,27.5 5.45,24.1 q 0.25,-1.35 0.85,-3.05 1.5,-4.2 3.8,-7 Q 15,8.15 26.55,5.8 l 5.1,-0.75 7,0.35 q 3.75,0.4 6.25,1.15 3.3,1 5.45,2.9 1.8,1.6 3.35,4.35 2.95,5.3 3.5,11.65 0.55,6.2 -1.3,12.15 -2.7,8.6 -8.65,11.75 Q 44.1,51.05 38.7,51.5 32,51.95 25.45,50.45 22.95,49.9 21.5,49.2 18,47.5 14.3,42.4 12.6,40.05 12,38.45 q -0.9,-2.3 -0.8,-5.35 0,-8.4 4.6,-15.55 1.8,-2.65 3.4,-3.8 2.35,-1.7 7,-2.35 l 9.25,0.3 q 2.35,0.8 4.55,2.65 2.15,1.85 3.5,3.95 2.3,3.55 2.65,7.9 0.35,4.4 -1.5,8.15 -1.85,3.8 -5.65,6.05 -3.85,2.3 -8,1.95 -2.2,-0.15 -5.7,-1.5 -2.65,-1 -3.7,-2.2 -1.45,-1.65 -1.75,-4.8 -0.35,-2.4 0.15,-4.4 0.6,-2.65 2.8,-4.85 2,-2 4.85,-3.2 2,-0.8 3.45,-0.75 0.6,0.05 2.45,0.65 l 1.3,-0.1 Q 35.2,20.6 34.25,20 33,19.1 31.35,18.8 q -2.5,-0.4 -5.3,0.65 -4.65,1.75 -7.15,5.95 -2.6,4.3 -2,9.1 0.5,4.65 3.6,7.3 1.85,1.6 4.7,2.5 3.05,1.1 6.2,1.15 3.5,0.1 6.8,-1.3 Q 41.5,42.8 43.95,40.3 46.65,37.55 48,33.75 49.3,30 49,26.05 48.7,22.25 46.95,18.6 45.2,15.1 42.35,12.35 39.2,9.35 35.7,8.3 33,7.45 28.45,7.75 q -7.35,0.4 -11.15,3 -2.45,1.75 -4.6,5.1 -2.6,4 -3.9,8.7 -1.3,4.7 -1.2,9.45 0.1,3.8 1.2,6.4 0.95,2.3 3.6,5.6 l 2.7,3.05 q 2.8,2.55 7.25,3.8 3.2,0.9 8.3,1.3 5.7,0.45 9.65,-0.05 5.25,-0.55 9.05,-3.05 6.35,-4 9.05,-13.2 1.8,-6.25 1.15,-12.9 -0.65,-6.7 -3.6,-12.5 Q 55,10.5 53.75,8.95 51.1,5.8 46.85,4.2 43.8,3 38.6,2.25 L 30.45,1.85 23.95,3 Q 17.1,4.7 13,7.2 9.45,9.4 6.85,12.85 4.25,16.25 3.1,20.3 2.3,23.05 1.7,28.75 l -0.45,4.8 q -0.3,2.9 -0.25,4.35 0.05,1.65 0.4,3.75 0.35,2.75 0.85,4.6 0.85,3.15 2.9,5.9 2,2.75 4.8,4.5 L 10.7,57.1 H 0.15 V 15.75 l 0.1,-0.35 1.3,-3.85 Q 2.85,8.9 6.4,5.9 9.05,3.7 10.85,2.9 12.9,1.9 17.4,1.2 L 23.15,0.45 H 45.8 m 3.45,56.65 0.65,-0.35 4.2,-2.4 3.5,-2.95 Q 59.85,49.25 60.9,47.75 62.85,45 64,40.7 v 10.45 l -0.55,0.7 -0.7,1.15 -2.3,2.45 -0.9,0.8 -1.4,0.85 h -8.9 M 64,19.3 62.9,14.6 Q 62.3,12.5 60.5,8.5 L 58.8,5 Q 57.75,3.1 56.5,1.95 L 54.45,0.45 H 64 V 19.3 M 0.15,8.7 V 0.45 H 9.1 q -1.95,1 -4,2.75 L 1.55,6.8 0.15,8.7 M 64,55 v 2.1 H 62 L 64,55"
         fill="#767676"
         fill-rule="evenodd"
         stroke="none"
         id="path4" />
      <path
         d="m 42.75,57.1 1.05,-0.25 q 1.9,-0.5 5.15,-2.25 2.8,-1.45 4.3,-2.5 l 3.6,-3.1 2.55,-2.85 q 2.1,-3.05 2.9,-8.1 1.15,-7.1 0.1,-14 l -0.8,-4.5 -1,-4.2 -1.1,-2.7 L 58.25,9.9 57.3,7.7 56.1,5.55 Q 54.75,3.6 52.6,2.45 51,1.6 47.75,0.9 L 45.8,0.45 h 8.65 l 2.05,1.5 Q 57.75,3.1 58.8,5 l 1.7,3.5 q 1.8,4 2.4,6.1 l 1.1,4.7 v 21.4 q -1.15,4.3 -3.1,7.05 -1.05,1.5 -3.3,3.65 l -3.5,2.95 -4.2,2.4 -0.65,0.35 h -6.5 M 23.15,0.45 17.4,1.2 q -4.5,0.7 -6.55,1.7 -1.8,0.8 -4.45,3 -3.55,3 -4.85,5.65 l -1.3,3.85 -0.1,0.35 V 8.7 L 1.55,6.8 5.1,3.2 Q 7.15,1.45 9.1,0.45 H 23.15 M 10.7,57.1 9.95,56.65 Q 7.15,54.9 5.15,52.15 3.1,49.4 2.25,46.25 1.75,44.4 1.4,41.65 1.05,39.55 1,37.9 0.95,36.45 1.25,33.55 L 1.7,28.75 Q 2.3,23.05 3.1,20.3 4.25,16.25 6.85,12.85 9.45,9.4 13,7.2 17.1,4.7 23.95,3 l 6.5,-1.15 8.15,0.4 q 5.2,0.75 8.25,1.95 4.25,1.6 6.9,4.75 1.25,1.55 2.2,3.5 2.95,5.8 3.6,12.5 0.65,6.65 -1.15,12.9 -2.7,9.2 -9.05,13.2 -3.8,2.5 -9.05,3.05 -3.95,0.5 -9.65,0.05 -5.1,-0.4 -8.3,-1.3 Q 17.9,51.6 15.1,49.05 L 12.4,46 Q 9.75,42.7 8.8,40.4 7.7,37.8 7.6,34 7.5,29.25 8.8,24.55 q 1.3,-4.7 3.9,-8.7 2.15,-3.35 4.6,-5.1 3.8,-2.6 11.15,-3 4.55,-0.3 7.25,0.55 3.5,1.05 6.65,4.05 2.85,2.75 4.6,6.25 1.75,3.65 2.05,7.45 0.3,3.95 -1,7.7 -1.35,3.8 -4.05,6.55 -2.45,2.5 -5.75,3.85 -3.3,1.4 -6.8,1.3 -3.15,-0.05 -6.2,-1.15 -2.85,-0.9 -4.7,-2.5 -3.1,-2.65 -3.6,-7.3 -0.6,-4.8 2,-9.1 2.5,-4.2 7.15,-5.95 2.8,-1.05 5.3,-0.65 1.65,0.3 2.9,1.2 0.95,0.6 0.6,1.2 l -1.3,0.1 Q 31.7,20.7 31.1,20.65 29.65,20.6 27.65,21.4 q -2.85,1.2 -4.85,3.2 -2.2,2.2 -2.8,4.85 -0.5,2 -0.15,4.4 0.3,3.15 1.75,4.8 1.05,1.2 3.7,2.2 3.5,1.35 5.7,1.5 4.15,0.35 8,-1.95 3.8,-2.25 5.65,-6.05 Q 46.5,30.6 46.15,26.2 45.8,21.85 43.5,18.3 42.15,16.2 40,14.35 37.8,12.5 35.45,11.7 L 26.2,11.4 q -4.65,0.65 -7,2.35 -1.6,1.15 -3.4,3.8 -4.6,7.15 -4.6,15.55 -0.1,3.05 0.8,5.35 0.6,1.6 2.3,3.95 3.7,5.1 7.2,6.8 1.45,0.7 3.95,1.25 6.55,1.5 13.25,1.05 5.4,-0.45 8.55,-2.15 Q 53.2,46.2 55.9,37.6 57.75,31.65 57.2,25.45 56.65,19.1 53.7,13.8 52.15,11.05 50.35,9.45 48.2,7.55 44.9,6.55 42.4,5.8 38.65,5.4 l -7,-0.35 -5.1,0.75 Q 15,8.15 10.1,14.05 q -2.3,2.8 -3.8,7 -0.6,1.7 -0.85,3.05 L 5.2,27.5 4.45,33.1 q -0.4,3.4 -0.1,6.55 0.65,8.65 5.4,13.1 3.4,3.2 9.1,4.2 l 0.8,0.15 H 10.7 M 64,55 62,57.1 h -3.85 l 1.4,-0.85 0.9,-0.8 2.3,-2.45 0.7,-1.15 0.55,-0.7 V 55"
         fill="#ffffff"
         fill-rule="evenodd"
         stroke="none"
         id="path5" />
      <path
         d="m 14.7,0.85 3.5,5.95 0.4,1 0.2,0.85 q 0,0.55 -0.45,0.7 Q 17.25,8.8 15.8,7.15 L 14.85,6.1 12.1,2.9 10.8,1.35 9.65,0.05 9.55,-0.25 h 4.65 l 0.5,1.1 M 45.6,8.9 Q 45.35,8.6 45.65,8.05 L 47.3,4.4 Q 48,3.05 49.55,0.9 l 0.85,-1.15 h 4.3 l -0.05,0.05 -7,7.9 L 46.6,8.75 46.1,9 45.6,8.9 m -3.4,-4.3 0.55,-2.9 0.2,-1.1 0.1,-0.85 h 2.9 l -1.15,3.2 -1.55,3 L 42.9,6.3 42.4,6.2 Q 42.25,6.05 42.25,5.7 L 42.35,5.25 42.2,4.6 m 13.3,16.3 0.35,-0.35 q 1.1,-0.7 1.7,-0.95 l 1.3,-0.5 q 0.5,-0.25 1.45,-0.75 L 64,17 v 3.45 L 60.3,21 58.85,21.15 56.35,21.4 55.8,21.35 q -0.4,-0.1 -0.3,-0.45 m 3.05,3.6 -0.9,-0.5 -0.15,-0.35 0.25,-0.3 Q 58.35,22.9 59.2,23 l 1.2,0.05 2.45,-0.1 1.15,0.1 V 26.6 L 63.4,26.5 62.75,26.3 59.6,25.05 58.55,24.5 M 16.6,49.6 Q 12.05,47.65 10.05,45.4 6.5,41.55 6.5,33.9 6.5,27.25 9.15,21.35 L 8.9,20.55 v -0.1 L 8.3,19.1 7.8,17.1 7.5,16.5 6.45,12.65 Q 5.75,10.3 5.7,8.55 5.7,7.65 5.95,7.1 6.45,6.15 7.4,6 l 1.5,0.1 q 3.05,0.8 8,3.6 l 1.55,0.8 q 5.8,-3.7 13.65,-3.85 5.25,-0.1 9.35,1.75 1.95,0.85 4,2.4 Q 46.9,9.9 49.8,8.95 L 54.3,7.3 Q 56,6.5 56.45,6.4 57.9,6.15 58.6,6.95 q 0.75,0.8 0.5,2.25 l -0.25,0.95 -4.45,11.15 0.3,0.75 q 0.8,1.85 1.25,5.05 0.75,5.95 -0.85,11.3 -1.8,5.8 -6,9.25 -6.45,5.25 -19.5,4.8 L 23,51.7 Q 20.25,51.15 16.6,49.6 M 43.15,41.1 42.9,39.15 V 39.1 l 1.05,0.05 -0.05,1.2 -0.05,1.05 0.2,0.95 -1,0.2 0.1,-1.45 m 5.25,-0.05 -0.15,0.1 v -0.3 l 0.15,0.2 m -6.45,-13 0.55,0.2 0.4,0.8 -0.2,0.6 -0.25,0.6 -0.65,0.7 -1.05,0.55 -0.85,-0.05 -1.05,-0.55 q -0.5,-0.4 -0.5,-1 l 0.15,-0.6 0.35,-0.7 q 0.5,-0.6 1.45,-0.7 l 1.65,0.15 m -8.8,3.9 1.5,-0.4 q 0.45,1.35 1.35,2.25 1.5,1.5 4,1.65 1.85,0.15 3.1,-0.6 l 1,-0.75 1.3,-1.3 q 0.65,-0.9 0.9,-2.35 0.3,-1.35 0.1,-2.25 l -0.25,-1.1 -0.55,-1.2 -1.3,-1 -0.15,-0.1 q 1.7,-0.4 2.9,0.7 l 1,1.4 q 0.55,0.95 1.35,1 0.6,0.05 1.05,-0.45 0.5,-0.4 0.6,-1.05 0.1,-0.9 -0.55,-2.3 -1.2,-2.2 -2.85,-2.9 L 44.6,20.85 42.3,21.2 q -1,0.35 -2.8,1.7 l -2.05,1.8 -1.75,1.6 -2.6,2.4 Q 32.05,27.55 32,26.8 l -0.05,-0.85 q -0.1,-0.6 -0.5,-0.6 -0.45,-0.1 -0.8,0.65 -0.9,2.4 0.5,4.5 0.85,1.4 2,1.45 m 23.7,6.4 0.15,-0.2 q 0.3,-0.2 0.9,0 l 0.8,0.4 q 1.25,0.7 4,1.5 L 64,40.7 v 4.05 L 61.1,42.05 59.9,41 58,39.7 q -0.6,-0.5 -1.05,-1.2 l -0.1,-0.15 m -44.8,3.85 q -0.3,0.5 -0.1,1.15 0.15,0.55 0.65,0.95 0.75,0.55 2.15,0.75 10.35,1.95 23.55,0.85 7.1,-0.65 11.2,-1.95 1.55,-0.4 2.05,-1.15 0.85,-1.15 0.2,-2.8 -0.6,-1.5 -1.95,-2.55 -1.3,-1 -3,-1.45 l -6.6,-0.2 q -5.35,0.5 -10.3,1.55 L 29.85,37.3 29.4,36.45 Q 29,35.65 28.75,34.5 l -0.3,-0.9 q -0.4,-0.5 -0.85,-0.35 -0.55,0.1 -0.65,1.1 l -0.15,3.4 v 0.3 q -4.1,1 -7.95,2.35 -2.75,0.95 -4,1 l -1.6,0.1 q -0.9,0.15 -1.2,0.7 m 40.6,6.25 Q 51.9,47.7 52.15,47.25 52.35,46.8 53,46.9 l 0.85,0.45 1.95,1.55 1.65,1.35 6.55,5.2 V 57.1 H 61.3 L 52.65,48.45 M 20.9,20.85 q 0.25,0.65 1.05,0.75 l 1.25,-0.3 0.75,-0.35 0.8,-0.2 q 0.95,0.1 1.5,1.1 0.65,1.1 1.2,1.1 0.8,0 0.8,-0.95 0.1,-0.5 -0.45,-1.3 -1.25,-1.8 -2.85,-2.1 l -2.2,0.1 q -1,0.25 -1.5,0.7 -0.75,0.75 -0.35,1.45 m 6.3,-4 1.6,2.1 1.35,0.9 q 0.9,0.15 1.4,-0.9 0.3,-0.85 -0.35,-1.65 l -1.05,-1 q -0.6,-0.6 -0.6,-1.2 0,-0.6 0.7,-1 l 0.55,-0.25 q 0.3,-0.3 -0.05,-0.65 -0.25,-0.25 -0.7,-0.25 -1.65,-0.15 -2.6,1.45 l -0.3,1.05 q -0.15,0.6 0.05,1.4 M 23,12.3 l 0.05,1.25 q 0,1.5 -1.75,2.05 -1.15,0.45 -1.2,0.6 -0.45,0.75 0.4,1.35 l 1.55,0.05 q 1.4,-0.35 2.4,-1.55 1,-1.2 1.25,-2.7 0.25,-1.1 -0.3,-1.7 Q 24.9,10.9 23.95,11.15 23.1,11.45 23,12.3 M 6.45,21.75 3.3,21.25 1.85,20.7 0.6,20.4 0.15,20.25 v -3.6 l 3.4,1.75 1.55,1.15 1.9,1.2 0.3,0.4 -0.25,0.55 -0.6,0.05 M 13,33.9 q -0.55,-0.7 -0.6,-1.3 -0.15,-0.65 0.15,-2 0.7,-2.85 1.85,-3.9 0.95,-0.9 2.4,-0.9 1.45,-0.05 2.5,0.8 l 0.8,1 q 0.2,0.55 -0.1,1.35 l -0.6,1.25 q -0.45,0.5 -1.15,0.5 l -1.3,-0.35 q -0.55,-0.3 -0.5,-0.8 0.05,-0.3 0.4,-0.45 h 0.65 q 0.4,0.3 0.65,0.3 l 0.45,-0.3 0.05,-0.6 -0.9,-0.8 q -1.05,-0.5 -1.7,-0.3 -0.75,0.15 -1.25,0.9 -0.3,0.55 -0.5,1.5 -0.2,0.85 0,1.4 0.2,0.85 1.25,1.5 1.8,1.1 3.7,0.55 Q 21.3,32.7 22,30.8 L 22.4,29 v -2 q -0.2,-0.75 -0.95,-1.7 -1.1,-1.2 -2.7,-1.75 L 15.5,23.4 q -1.55,0.3 -2.85,1.4 -1.3,1.05 -2,2.55 -0.25,0.45 -0.55,1.45 -0.75,2.4 -0.6,4.45 l 0.3,1.2 1,1.25 1.5,1.4 1.4,0.45 1.5,0.55 q 2.9,0.9 5.85,-0.9 1.3,-0.75 1.95,-1.7 l 1.05,-2.05 0.3,-1.25 q -0.1,-0.85 -0.8,-0.85 -0.35,0 -0.7,0.35 l -1.1,1.75 Q 21,34.7 19.6,35.3 q -1.45,0.65 -2.85,0.35 l -1.6,-0.5 Q 13.6,34.6 13,33.9 M 5.9,26.35 0.15,28.65 V 25.4 l 4.7,-0.3 0.9,0.1 0.55,0.35 V 26 l -0.4,0.35 m -0.05,17.3 -0.45,0.4 -2.1,1.15 -0.65,0.45 -1.4,0.75 -1.1,0.75 v -3.5 L 1.9,43.2 3.5,42.8 4.2,42.65 5.55,42.6 l 0.4,0.45 -0.1,0.6 m -4.7,9.8 7.4,-7.2 q 0.4,-0.4 0.7,-0.35 0.5,0.15 0.4,0.65 L 9.35,47.3 8.25,48.65 7.1,49.9 4.05,54.25 1.95,57.1 h -1.8 v -2.6 l 1,-1.05 m 9.2,-3.5 0.2,-0.5 q 0.2,-0.2 0.45,-0.2 0.3,0.05 0.45,0.25 L 11.4,50.3 10.6,52.25 10.35,53.1 9.1,56.15 8.8,57.1 H 5.9 l 0.9,-1.8 0.8,-1 1.2,-1.9 1.15,-1.85 0.4,-0.6 M 36.5,41.55 36.25,40.8 v -0.7 -0.3 l 1.85,-0.25 0.05,0.85 v 1.55 q 0,0.7 0.25,1.2 l -2.2,0.1 0.35,-1.05 -0.05,-0.65 m -7.3,0.6 -0.05,-1.15 2.4,-0.45 -0.05,0.15 -0.45,1.3 -0.2,1.3 v 0.15 H 29.1 l 0.1,-1.3 m -9.75,0.65 4.05,-0.75 -0.05,0.6 0.05,0.6 -4.05,-0.45 m -0.5,11.65 0.8,-1.1 0.35,-0.25 0.15,-0.05 q 0.4,0.05 0.6,0.55 L 20.8,54.35 20.35,57.1 H 17.7 l 0.15,-0.2 0.55,-1.25 0.55,-1.2 M 52.2,51.7 q 0,-0.5 0.3,-0.65 0.3,-0.1 0.8,0.4 l 0.75,0.85 1.65,1.8 1,0.8 2.1,2.2 H 55.05 L 54.7,56.7 53,53.25 52.5,52.5 52.2,51.7 m -8.4,2.2 -0.15,-1 q 0.2,-0.5 0.65,-0.6 l 0.6,0.2 q 0.75,0.5 1.5,1.95 l 1.5,2.65 H 45.05 L 43.8,53.9"
         fill="#000000"
         fill-rule="evenodd"
         stroke="none"
         id="path6" />
      <path
         d="m 33.15,31.95 q -1.15,-0.05 -2,-1.45 -1.4,-2.1 -0.5,-4.5 0.35,-0.75 0.8,-0.65 0.4,0 0.5,0.6 L 32,26.8 q 0.05,0.75 1.1,1.9 l 2.6,-2.4 1.75,-1.6 2.05,-1.8 q 1.8,-1.35 2.8,-1.7 l 2.3,-0.35 3.05,0.35 q 1.65,0.7 2.85,2.9 0.65,1.4 0.55,2.3 -0.1,0.65 -0.6,1.05 -0.45,0.5 -1.05,0.45 -0.8,-0.05 -1.35,-1 l -1,-1.4 q -1.2,-1.1 -2.9,-0.7 l 0.15,0.1 1.3,1 0.55,1.2 0.25,1.1 q 0.2,0.9 -0.1,2.25 -0.25,1.45 -0.9,2.35 l -1.3,1.3 -1,0.75 Q 41.85,35.6 40,35.45 37.5,35.3 36,33.8 35.1,32.9 34.65,31.55 l -1.5,0.4 m 8.8,-3.9 -1.65,-0.15 q -0.95,0.1 -1.45,0.7 l -0.35,0.7 -0.15,0.6 q 0,0.6 0.5,1 l 1.05,0.55 0.85,0.05 1.05,-0.55 0.65,-0.7 0.25,-0.6 0.2,-0.6 -0.4,-0.8 -0.55,-0.2 m 6.45,13 -0.15,-0.2 v 0.3 l 0.15,-0.1 m -5.25,0.05 -0.1,1.45 1,-0.2 -0.2,-0.95 0.05,-1.05 0.05,-1.2 -1.05,-0.05 v 0.05 l 0.25,1.95 m -31.1,1.1 q 0.3,-0.55 1.2,-0.7 l 1.6,-0.1 q 1.25,-0.05 4,-1 3.85,-1.35 7.95,-2.35 v -0.3 l 0.15,-3.4 q 0.1,-1 0.65,-1.1 0.45,-0.15 0.85,0.35 l 0.3,0.9 q 0.25,1.15 0.65,1.95 l 0.45,0.85 0.05,0.05 Q 34.85,36.3 40.2,35.8 l 6.6,0.2 q 1.7,0.45 3,1.45 1.35,1.05 1.95,2.55 0.65,1.65 -0.2,2.8 -0.5,0.75 -2.05,1.15 -4.1,1.3 -11.2,1.95 Q 25.1,47 14.75,45.05 13.35,44.85 12.6,44.3 12.1,43.9 11.95,43.35 11.75,42.7 12.05,42.2 M 23,12.3 q 0.1,-0.85 0.95,-1.15 0.95,-0.25 1.45,0.5 0.55,0.6 0.3,1.7 -0.25,1.5 -1.25,2.7 -1,1.2 -2.4,1.55 L 20.5,17.55 q -0.85,-0.6 -0.4,-1.35 0.05,-0.15 1.2,-0.6 1.75,-0.55 1.75,-2.05 L 23,12.3 m 4.2,4.55 q -0.2,-0.8 -0.05,-1.4 l 0.3,-1.05 q 0.95,-1.6 2.6,-1.45 0.45,0 0.7,0.25 0.35,0.35 0.05,0.65 l -0.55,0.25 q -0.7,0.4 -0.7,1 0,0.6 0.6,1.2 l 1.05,1 q 0.65,0.8 0.35,1.65 -0.5,1.05 -1.4,0.9 l -1.35,-0.9 -1.6,-2.1 m -6.3,4 q -0.4,-0.7 0.35,-1.45 0.5,-0.45 1.5,-0.7 l 2.2,-0.1 q 1.6,0.3 2.85,2.1 0.55,0.8 0.45,1.3 0,0.95 -0.8,0.95 -0.55,0 -1.2,-1.1 -0.55,-1 -1.5,-1.1 l -0.8,0.2 -0.75,0.35 -1.25,0.3 Q 21.15,21.5 20.9,20.85 M 13,33.9 q 0.6,0.7 2.15,1.25 l 1.6,0.5 q 1.4,0.3 2.85,-0.35 1.4,-0.6 2.15,-1.85 l 1.1,-1.75 q 0.35,-0.35 0.7,-0.35 0.7,0 0.8,0.85 L 24.05,33.45 23,35.5 q -0.65,0.95 -1.95,1.7 -2.95,1.8 -5.85,0.9 l -1.5,-0.55 -1.4,-0.45 -1.5,-1.4 -1,-1.25 -0.3,-1.2 q -0.15,-2.05 0.6,-4.45 0.3,-1 0.55,-1.45 0.7,-1.5 2,-2.55 1.3,-1.1 2.85,-1.4 l 3.25,0.15 q 1.6,0.55 2.7,1.75 0.75,0.95 0.95,1.7 v 2 L 22,30.8 q -0.7,1.9 -2.75,2.45 -1.9,0.55 -3.7,-0.55 -1.05,-0.65 -1.25,-1.5 -0.2,-0.55 0,-1.4 0.2,-0.95 0.5,-1.5 0.5,-0.75 1.25,-0.9 0.65,-0.2 1.7,0.3 l 0.9,0.8 -0.05,0.6 -0.45,0.3 q -0.25,0 -0.65,-0.3 h -0.65 q -0.35,0.15 -0.4,0.45 -0.05,0.5 0.5,0.8 l 1.3,0.35 q 0.7,0 1.15,-0.5 L 20,28.95 q 0.3,-0.8 0.1,-1.35 l -0.8,-1 q -1.05,-0.85 -2.5,-0.8 -1.45,0 -2.4,0.9 -1.15,1.05 -1.85,3.9 -0.3,1.35 -0.15,2 0.05,0.6 0.6,1.3 m 6.45,8.9 4.05,0.45 -0.05,-0.6 0.05,-0.6 -4.05,0.75 m 9.75,-0.65 -0.1,1.3 h 1.75 V 43.3 l 0.2,-1.3 0.45,-1.3 0.05,-0.15 -2.4,0.45 0.05,1.15 m 7.3,-0.6 0.05,0.65 -0.35,1.05 2.2,-0.1 q -0.25,-0.5 -0.25,-1.2 V 40.4 L 38.1,39.55 36.25,39.8 v 0.3 0.7 l 0.25,0.75"
         fill="#ffffff"
         fill-rule="evenodd"
         stroke="none"
         id="path7" />
    </g>
    <g
       id="shape2"
       transform="translate(1.5,1.5)">
      <path
         d="M 0,23.8 V 0 H 64.1 V 23.8 57.55 H 0 Z"
         fill="none"
         stroke="#000000"
         stroke-linecap="round"
         stroke-linejoin="round"
         stroke-width="3"
         id="path8" />
    </g>
  </defs>
</svg>
