<?xml version="1.0" encoding="UTF-8" standalone="no"?>
<svg
   ffdec:objectType="frame"
   height="60.549999"
   width="67.099998"
   version="1.1"
   id="svg8"
   sodipodi:docname="292.svg"
   xmlns:inkscape="http://www.inkscape.org/namespaces/inkscape"
   xmlns:sodipodi="http://sodipodi.sourceforge.net/DTD/sodipodi-0.dtd"
   xmlns:xlink="http://www.w3.org/1999/xlink"
   xmlns="http://www.w3.org/2000/svg"
   xmlns:svg="http://www.w3.org/2000/svg"
   xmlns:ffdec="https://www.free-decompiler.com/flash">
  <sodipodi:namedview
     id="namedview8"
     pagecolor="#ffffff"
     bordercolor="#000000"
     borderopacity="0.25"
     inkscape:showpageshadow="2"
     inkscape:pageopacity="0.0"
     inkscape:pagecheckerboard="0"
     inkscape:deskcolor="#d1d1d1"
     fit-margin-top="5"
     fit-margin-left="5"
     fit-margin-right="5"
     fit-margin-bottom="5" />
  <g
     transform="translate(1.5,1.5)"
     id="g3">
    <use
       ffdec:characterId="516"
       height="57.549999"
       width="64.099998"
       xlink:href="#shape0"
       id="use1" />
    <use
       ffdec:characterId="795"
       height="57.200001"
       transform="translate(-0.1,1.85)"
       width="65.349998"
       xlink:href="#shape1"
       id="use2" />
    <use
       ffdec:characterId="518"
       height="60.549999"
       transform="translate(-1.5,-1.5)"
       width="67.099998"
       xlink:href="#shape2"
       id="use3" />
  </g>
  <defs
     id="defs8">
    <g
       id="shape0">
      <path
         d="M 53.6,0 H 64.1 V 57.55 H 53.6 28.25 0 V 0 H 28.25 53.6 V 57.55 0 M 28.25,0 V 57.55 0"
         fill="#ffffff"
         fill-rule="evenodd"
         stroke="none"
         id="path3" />
    </g>
    <g
       id="shape1"
       transform="translate(0.1,-1.85)">
      <path
         d="m 62.7,3.85 0.4,0.7 0.9,1.15 0.5,1.35 0.25,1.55 -0.5,1.85 -0.4,0.8 0.3,0.85 -0.1,1 Q 63.9,14 64.1,15.75 l 0.15,0.45 0.3,0.25 q 0.95,0.9 0.65,2 -0.35,1.2 -1.6,1.3 l -1.05,-0.2 q -1.65,-0.7 -2.3,-2.3 l -0.25,-0.9 -0.4,-2 -0.05,-0.95 q -1.6,0.1 -3,-1.05 L 55.8,11.4 55.55,10.6 55.3,8.85 54.4,8.35 53.75,7.55 Q 53.55,7 53.8,6.4 54.05,5.8 54.6,5.55 l 0.9,-0.1 0.6,0.1 0.25,-0.5 0.7,-0.9 1.25,-0.7 0.95,-0.3 L 60.3,3 60.35,2.9 60.7,2.2 Q 60.85,2 61.3,1.9 h 0.6 q 0.45,0.2 0.65,0.85 l 0.15,1.1 m -4.35,6.3 0.1,-0.65 -0.4,-0.05 -1.2,-0.55 -0.3,-0.25 -0.25,0.2 q -0.35,0.35 -0.35,0.85 0.05,0.45 0.4,0.85 l 0.85,0.35 q 0.8,0 1.15,-0.75 m 2.05,-1.6 q 0.35,0.35 0.95,0.4 l 1,-0.2 L 62.95,7.9 62.9,6.9 62.2,6.15 61.2,6 61,6.05 l 0.05,0.1 -0.15,1.2 -0.6,1.05 0.1,0.15 m -16.9,18.15 -1.9,-0.2 -1.8,-0.6 -0.65,-0.75 -0.2,-0.7 q 0,-1 0.4,-1.4 0.35,-0.35 1.1,-0.55 l 5,-0.85 1.05,-0.05 1.7,0.2 q 0.9,0.2 1.4,0.5 0.8,0.45 1,1.1 0.3,0.85 -0.25,1.6 -0.35,0.45 -1.6,0.9 l -0.9,0.3 -2.95,0.65 -1.4,-0.15 m 16.9,1.3 0.55,0.6 q 0.2,0.55 -0.05,0.8 l -0.7,0.15 -0.65,-0.35 -2.65,-1.75 0.05,0.95 -0.35,0.55 q -0.35,0.35 -0.6,0 L 55.8,28.6 55.45,28.15 55,27.1 54.65,26.25 q -0.2,-0.5 -0.1,-0.9 l 0.3,-0.45 q 0.25,-0.65 1.2,-0.65 l 1.55,0.3 1.45,0.25 q 0.65,0.1 0.65,0.6 0,0.45 -0.7,0.55 L 58.15,26.1 60.4,28 M 44.2,54.85 Q 42.9,54.3 40.95,52.75 38.8,51.2 38.2,49.8 37.75,48.9 37.65,47.15 37.5,45.1 37.75,43.5 l 0.3,-1.25 -0.1,-0.4 q -0.2,-0.8 -0.8,-1.65 L 36.3,38.55 q -0.35,-1.1 0.05,-1.85 0.3,-0.65 0.9,-0.85 l 1.2,-0.2 3.65,0.2 1.7,-1.45 q 2.6,-1.7 6.15,-1.3 1.8,0.2 3.7,1.05 l 1.4,-0.55 1.65,-0.7 0.85,-0.45 1.25,0.1 0.9,0.85 0.25,1.4 v 0.8 l -0.25,1.2 -0.25,1.65 q 1,1.5 1.5,3.55 0.75,3.55 -0.25,6.5 -0.75,2.25 -2.3,3.7 l 0.6,1.55 0.8,2.15 q 0.2,1.4 -0.45,2.15 -0.75,0.8 -1.8,0.65 -1.05,-0.25 -1.4,-1.25 -0.5,0.9 -1.5,1.05 -1.1,0.1 -1.7,-0.6 -0.5,0.9 -1.5,1.05 -1,0.15 -1.7,-0.6 l -1.25,0.5 -0.95,-0.15 -0.85,0.15 q -0.7,0.1 -1.3,-0.4 -0.6,-0.5 -0.7,-1.2 l 0.15,-1.15 0.2,-1 -0.85,-0.25 M 6.15,13.1 Q 5.9,11.7 6.5,9.85 7,8.3 7.8,7.15 L 7.7,6.65 7.1,5.05 Q 6.7,4.05 7.05,3.45 7.4,2.8 8.35,2.7 l 1.5,0.35 Q 10.8,3.5 11.65,4.15 13,3.6 14.95,3.2 17.8,2.7 19.35,3.15 20.6,3.5 21.65,4.35 L 21.75,4.3 23,4.1 24.2,4 q 0.7,0.1 1.15,0.5 0.55,0.45 0.55,1.05 0,0.55 -0.6,1.25 l -1.1,1 -0.2,0.4 0.35,2.45 q 0.1,4.9 -3.05,7.5 -2.05,1.65 -4.75,1.9 -2.3,0.2 -4.65,-0.7 l -1.25,2.4 -1.5,2.05 -1.75,2.25 q -2.2,2.7 -4.65,4.3 L 0.8,31.6 -0.05,32.1 V 15.5 l 0.5,-0.25 2.65,-1.1 2.1,-0.7 1,-0.2 -0.05,-0.15 m 16.9,-3.05 -0.45,-0.2 -1.3,0.8 -0.55,0.25 -0.35,0.1 q -0.2,0.45 -0.1,0.95 V 12 l 2.15,0.1 1,0.4 0.05,0.05 q 0.4,-0.55 0.3,-1.2 -0.1,-0.8 -0.75,-1.3 m 6.9,4.3 -1.25,-0.75 -0.65,-0.5 q -0.25,-0.25 -0.2,-0.55 0,-0.2 0.3,-0.2 l 0.4,0.1 5.2,2.4 -0.55,-1 q 0,-0.5 0.3,-0.6 l 0.6,0.1 q 0.75,0.4 1.7,1.4 l 1.3,1.55 q 0.5,0.45 0.65,1 0.3,0.7 -0.15,1.2 L 37.4,18.65 37,19 36.1,18.95 35.15,18.7 34.25,18.6 31.7,18.05 31.4,17.8 q -0.2,-0.25 0.15,-0.75 0.4,-0.3 1.4,-0.35 l -3,-2.35 m -19,-3.4 q -0.15,0.9 0.45,1.55 l 3.05,-0.25 Q 14.8,11.7 14.75,11 l -0.2,-0.05 q -1.4,-0.5 -2,-1.65 -0.5,0.05 -0.9,0.4 -0.6,0.45 -0.7,1.25 m 20.2,23.55 -1.05,1 -0.7,0.5 -0.55,0.1 q -0.2,-0.1 -0.1,-0.4 l 0.2,-0.35 3.7,-4.4 -0.5,0.15 -0.65,0.1 -0.5,-0.4 0.25,-0.55 q 0.6,-0.65 1.8,-1.3 l 1.8,-0.85 q 0.6,-0.35 1.15,-0.35 0.75,-0.1 1.15,0.45 l 0.1,0.2 0.2,0.5 -0.25,0.85 -0.55,0.85 -0.3,0.85 q -0.3,1.05 -1.2,2.3 L 34.85,34 q -0.3,0.1 -0.65,-0.35 -0.2,-0.45 0,-1.45 l -3.05,2.3"
         fill="#999999"
         fill-rule="evenodd"
         stroke="none"
         id="path4" />
      <path
         d="M 60.4,8.55 60.3,8.4 60.9,7.35 61.05,6.15 61,6.05 61.2,6 l 1,0.15 0.7,0.75 0.05,1 -0.6,0.85 -1,0.2 Q 60.75,8.9 60.4,8.55 m -2.05,1.6 Q 58,10.9 57.2,10.9 L 56.35,10.55 Q 56,10.15 55.95,9.7 q 0,-0.5 0.35,-0.85 l 0.25,-0.2 0.3,0.25 1.2,0.55 0.4,0.05 -0.1,0.65 m -35.3,-0.1 q 0.65,0.5 0.75,1.3 0.1,0.65 -0.3,1.2 L 23.45,12.5 22.45,12.1 20.3,12 V 11.95 Q 20.2,11.45 20.4,11 l 0.35,-0.1 0.55,-0.25 1.3,-0.8 0.45,0.2 m -12.1,0.9 q 0.1,-0.8 0.7,-1.25 0.4,-0.35 0.9,-0.4 0.6,1.15 2,1.65 l 0.2,0.05 q 0.05,0.7 -0.3,1.25 L 11.4,12.5 q -0.6,-0.65 -0.45,-1.55"
         fill="#ffffff"
         fill-rule="evenodd"
         stroke="none"
         id="path5" />
      <path
         d="m 41.35,13.85 0.55,-0.7 -0.1,-0.2 q -0.25,-0.55 -0.15,-1.25 0.15,-0.65 0.6,-1.1 1,-1 2.4,-0.4 0.55,0.25 0.9,0.85 0.35,0.55 0.25,1.2 l 1.2,0.5 0.3,0.2 q 0.55,-0.4 1.15,-0.4 0.65,0 1.2,0.45 0.55,0.4 0.75,1.05 0.2,0.65 -0.1,1.3 l -0.85,1 -0.8,0.3 q -0.35,1 -1.05,1.7 l 0.25,0.55 0.7,2.5 q 0.9,-0.6 2.1,-0.5 0.75,0.1 1.3,0.5 0.6,0.4 0.65,1.05 0.1,0.85 -0.6,1.5 l -1.15,1.25 q 0.45,0.8 1.35,0.7 -0.15,0.55 -0.8,0.65 L 50.45,26.3 Q 50,25.95 49.9,25.45 q -0.25,-1 0.75,-1.8 l 0.4,-0.35 q 0.3,-0.25 0.05,-0.5 l -0.45,-0.15 q -0.75,0.05 -1.6,0.8 l -1.45,1.1 -0.1,0.05 q -0.95,0.65 -2.2,0.75 L 42.95,25.1 41.5,24.5 40.55,23.45 40.3,22.85 40.25,22.1 q 0,-1.85 0.9,-3.4 l 0.4,-0.65 -0.5,-0.9 q -0.3,-0.8 -0.25,-1.65 l 0.3,0.35 0.8,0.3 q 0.8,0.1 1.15,-0.7 0.35,-0.8 -0.25,-1.4 -0.6,-0.6 -1.35,-0.25 l -0.1,0.05 m 4.85,2.8 q 0.35,0.35 0.75,0.25 l 0.5,-0.2 q 0.5,-0.5 0.35,-1.2 -0.15,-0.7 -0.95,-0.8 l -0.1,0.05 -0.35,0.1 q -0.55,0.3 -0.55,0.85 -0.05,0.55 0.35,0.95 m -32.1,38 -2.55,2.9 q -1,1.2 -1.8,1.4 Q 8.9,59.2 8.05,58.65 7.2,58.05 7.1,57.1 V 57.05 L 6.2,57.55 5.25,57.5 4.3,57.15 2.3,56.75 0.75,56.6 -0.05,56.15 v -4.1 -1.8 -0.35 l 0.1,-1.1 Q 0.3,47.75 1.1,46.65 l -0.35,0.1 -0.8,0.05 v -1.75 q 1.9,-2.95 6.8,-7.65 l 5.8,-5.55 q 3.15,-3.05 4.95,-4.3 1.35,-1 2.5,-1.25 1.7,-0.35 2.6,0.55 0.65,0.6 0.75,1.6 0.15,0.95 -0.3,1.75 -0.75,1.5 -2.75,2.3 2.05,1.65 2.6,4.35 0.45,2.65 -0.95,6.1 -1.2,2.95 -3.45,6.15 l -4.4,5.55"
         fill="#000000"
         fill-rule="evenodd"
         stroke="none"
         id="path6" />
      <path
         d="m 40.8,15.5 q -0.2,-0.45 -0.05,-1 0.15,-0.45 0.6,-0.65 l 0.1,-0.05 q 0.75,-0.35 1.35,0.25 0.6,0.6 0.25,1.4 -0.35,0.8 -1.15,0.7 l -0.8,-0.3 -0.3,-0.35 m 5.4,1.15 q -0.4,-0.4 -0.35,-0.95 0,-0.55 0.55,-0.85 l 0.35,-0.1 0.1,-0.05 q 0.8,0.1 0.95,0.8 0.15,0.7 -0.35,1.2 l -0.5,0.2 Q 46.55,17 46.2,16.65"
         fill="#ffffff"
         fill-rule="evenodd"
         stroke="none"
         id="path7" />
    </g>
    <g
       id="shape2"
       transform="translate(1.5,1.5)">
      <path
         d="M 0,23.8 V 0 H 64.1 V 23.8 57.55 H 0 Z"
         fill="none"
         stroke="#000000"
         stroke-linecap="round"
         stroke-linejoin="round"
         stroke-width="3"
         id="path8" />
    </g>
  </defs>
</svg>
