<?xml version="1.0" encoding="UTF-8" standalone="no"?>
<svg
   ffdec:objectType="frame"
   height="60.549999"
   width="67.099998"
   version="1.1"
   id="svg9"
   sodipodi:docname="366.svg"
   xmlns:inkscape="http://www.inkscape.org/namespaces/inkscape"
   xmlns:sodipodi="http://sodipodi.sourceforge.net/DTD/sodipodi-0.dtd"
   xmlns:xlink="http://www.w3.org/1999/xlink"
   xmlns="http://www.w3.org/2000/svg"
   xmlns:svg="http://www.w3.org/2000/svg"
   xmlns:ffdec="https://www.free-decompiler.com/flash">
  <sodipodi:namedview
     id="namedview9"
     pagecolor="#ffffff"
     bordercolor="#000000"
     borderopacity="0.25"
     inkscape:showpageshadow="2"
     inkscape:pageopacity="0.0"
     inkscape:pagecheckerboard="0"
     inkscape:deskcolor="#d1d1d1"
     fit-margin-top="5"
     fit-margin-left="5"
     fit-margin-right="5"
     fit-margin-bottom="5" />
  <g
     transform="translate(1.5,1.5)"
     id="g3">
    <use
       ffdec:characterId="516"
       height="57.549999"
       width="64.099998"
       xlink:href="#shape0"
       id="use1" />
    <use
       ffdec:characterId="867"
       height="54.150002"
       transform="translate(-1.05,3.5)"
       width="66.199997"
       xlink:href="#shape1"
       id="use2" />
    <use
       ffdec:characterId="518"
       height="60.549999"
       transform="translate(-1.5,-1.5)"
       width="67.099998"
       xlink:href="#shape2"
       id="use3" />
  </g>
  <defs
     id="defs9">
    <g
       id="shape0">
      <path
         d="M 53.6,0 H 64.1 V 57.55 H 53.6 28.25 0 V 0 H 28.25 53.6 V 57.55 0 M 28.25,0 V 57.55 0"
         fill="#ffffff"
         fill-rule="evenodd"
         stroke="none"
         id="path3" />
    </g>
    <g
       id="shape1"
       transform="translate(1.05,-3.5)">
      <path
         d="m 54.2,18.4 -0.5,0.95 v 0.55 l 0.35,0.25 0.8,0.1 0.5,-0.05 1.15,2.45 q 0.65,1.75 1.05,5.4 l 0.1,1.2 -0.3,0.1 q -1.15,0.4 -2,1.7 l -0.25,0.45 0.25,-1.15 0.1,-2.15 -0.15,-2.5 q -0.2,-1.5 -0.8,-3.45 l -1.15,-3.3 Q 53.1,18.25 53.5,18.1 l 0.5,0.15 0.2,0.15 M 60.1,29.25 59.95,27.6 59.4,25.75 q -0.45,-1.2 -0.55,-1.9 -0.1,-0.5 0.1,-0.8 0.2,-0.2 0.55,-0.2 l 0.55,0.2 0.55,1 0.9,2.75 0.75,3.4 Q 61.3,29.55 60.1,29.25 m 1.65,16.4 0.9,2.2 0.4,1.95 -0.05,0.85 -0.9,5 -0.2,0.75 -0.85,0.3 q -0.3,-0.5 -0.2,-1.1 l 0.25,-1.15 0.05,-1 0.15,-0.7 -0.25,-1.85 -0.6,-1.8 -0.8,-1.65 0.15,-0.1 1.95,-1.7 m -4.2,2.95 0.4,0.7 q 0.6,1.1 0.75,2.45 l 0.05,1.05 -0.2,0.7 -0.15,1.95 -0.6,1.3 Q 57.5,57.15 57.2,57 L 57,56.7 56.75,55.55 q 0.1,-1.7 -0.25,-2.45 l -0.3,-0.65 -0.15,-0.55 -0.4,-1.05 -0.8,-1.35 1.35,-0.4 1.35,-0.5 m -5.9,1.15 0.15,0.85 0.3,2.3 -0.2,3.4 -0.2,0.8 -0.55,0.55 Q 50.65,57.7 50.3,57.3 50.05,57 50.05,56.4 l 0.1,-1.6 -0.35,-2 -0.85,-2.95 -0.6,-0.85 -0.15,-0.15 2.65,0.8 0.8,0.1 M 15.9,48.85 15.75,49 15.15,49.85 14.3,52.8 q -0.35,1.5 -0.35,2 l 0.1,1.6 -0.25,0.9 -0.85,0.35 L 12.4,57.1 12.2,56.3 Q 11.95,54.35 12,52.9 l 0.3,-2.3 0.2,-0.85 0.75,-0.1 2.65,-0.8 M 9.25,49.5 8.45,50.85 8.05,51.9 7.9,52.45 7.6,53.1 Q 7.25,53.85 7.35,55.55 L 7.1,56.7 6.9,57 Q 6.6,57.15 6.3,56.75 L 5.7,55.45 5.55,53.5 5.35,52.8 5.4,51.75 Q 5.55,50.4 6.15,49.3 l 0.4,-0.7 1.35,0.5 1.35,0.4 M 4.5,47.45 3.65,49.1 l -0.6,1.8 -0.25,1.85 0.15,0.7 0.05,1 0.25,1.15 q 0.1,0.6 -0.2,1.1 -0.6,0 -0.85,-0.3 L 2,55.65 1.1,50.65 1.05,49.8 1.45,47.85 q 0.1,-0.65 0.9,-2.2 l 1.95,1.7 0.2,0.1 M 1.9,30.2 Q 2,29.15 2.6,26.8 l 0.9,-2.75 q 0.2,-0.7 0.55,-1 l 0.55,-0.2 0.55,0.2 0.1,0.8 -0.55,1.9 Q 4.25,27 4.15,27.6 L 4,29.25 q -1.2,0.3 -2.1,0.95 m 4.55,-0.95 0.1,-1.2 Q 6.95,24.4 7.6,22.65 8,21.5 8.75,20.2 l 0.5,0.05 0.8,-0.1 0.35,-0.25 V 19.35 L 9.95,18.4 10.1,18.25 q 0.3,-0.2 0.5,-0.15 0.4,0.15 0.15,0.85 L 9.6,22.25 Q 9,24.2 8.8,25.7 l -0.15,2.5 0.1,2.15 0.3,1.15 -0.3,-0.45 q -0.85,-1.3 -2,-1.7 l -0.3,-0.1 m 3.2,3.6 q 1.8,3.65 5.2,5.95 l 1.1,0.75 -3.1,2.15 -0.3,0.25 Q 10.25,40.4 8.8,38.2 l 0.85,-1.85 q 0.4,-1.3 0.15,-2.75 L 9.65,32.85 m 38.55,6.7 1.05,-0.75 q 3.4,-2.3 5.25,-5.95 l -0.2,0.75 q -0.25,1.45 0.15,2.75 0.3,1 0.9,1.85 -1.5,2.2 -3.8,3.75 L 51.25,41.7 48.2,39.55 M 1.6,55.45 v 0.5 L 1.65,56 1.6,56.1 1.5,56.05 v -0.6 h 0.1 m 60.9,0 h 0.1 v 0.6 L 62.5,56.1 62.45,56 62.5,55.95 v -0.5"
         fill="#999999"
         fill-rule="evenodd"
         stroke="none"
         id="path4" />
      <path
         d="m 54.2,18.4 0.55,-0.55 0.8,-0.25 q 0.95,-0.6 1.5,-0.8 l 1.3,-0.4 1.35,0.15 0.8,0.15 1,0.6 0.6,0.65 0.35,1.2 q 0,0.9 -0.65,1.55 -0.65,0.65 -1.45,0.7 -0.8,0.1 -1.5,-0.4 l -0.8,-0.6 -2.55,-0.25 -0.15,0.05 -0.5,0.05 -0.8,-0.1 -0.35,-0.25 v -0.55 l 0.5,-0.95 m 3.45,10.85 q 1,-0.3 2.4,0 h 0.05 q 1.2,0.3 2.15,0.95 l 1.3,1.3 q 0.75,0.95 1.2,2.6 0.95,3.65 -0.45,7.4 -0.9,2.4 -2.55,4.15 l -1.95,1.7 -0.15,0.1 -2.1,1.15 -1.35,0.5 -1.35,0.4 -3.2,0.25 -0.8,-0.1 -2.65,-0.8 -1.45,-0.7 -3.15,-1.75 0.75,1.3 q 2.45,4.7 3.4,8.25 l 0.3,1.7 h -32 l 0.3,-1.7 q 0.95,-3.55 3.4,-8.25 l 0.75,-1.3 -3.15,1.75 -1.45,0.7 -2.65,0.8 -0.75,0.1 L 9.25,49.5 7.9,49.1 6.55,48.6 4.5,47.45 4.3,47.35 2.35,45.65 Q 0.7,43.9 -0.2,41.5 -1.6,37.75 -0.65,34.1 -0.2,32.45 0.55,31.5 L 1.9,30.2 Q 2.8,29.55 4,29.25 h 0.05 q 1.4,-0.3 2.4,0 l 0.3,0.1 q 1.15,0.4 2,1.7 l 0.3,0.45 0.6,1.35 0.15,0.75 q 0.25,1.45 -0.15,2.75 L 8.8,38.2 8.3,38.8 7.7,39.4 8.45,39.65 9.7,40.3 q 0.9,0.65 1.45,1.7 l 0.4,0.95 1,-1 0.3,-0.25 3.1,-2.15 0.8,-0.55 q 1.1,-0.7 1.85,-0.8 h 0.05 L 16.4,36.4 q -2.65,-2.45 -3.75,-5.15 -1,-2.5 -0.9,-5.8 0.05,-3.3 1.2,-7.35 l -0.55,-1.35 -2,-4.7 q -0.85,-1.7 -0.85,-2.6 0.1,-1.5 1.35,-2.3 0.55,-0.3 1.8,-0.5 L 20.65,6.25 22,6.3 23.1,5.8 q 3.65,-1.55 6.3,-2.05 l 3.65,-0.2 1.65,0.2 q 2.65,0.5 6.3,2.05 l 1.1,0.5 1.35,-0.05 7.95,0.4 1.8,0.5 q 1.25,0.8 1.35,2.3 0,0.9 -0.85,2.6 -0.95,1.9 -2,4.7 l -0.55,1.35 q 1.15,4.05 1.2,7.35 0.1,3.3 -0.9,5.8 -1.1,2.7 -3.75,5.15 l -2.25,1.8 h 0.05 q 0.75,0.1 1.85,0.8 l 0.85,0.55 3.05,2.15 0.3,0.25 1,1 0.4,-0.95 q 0.55,-1.05 1.45,-1.7 0.35,-0.25 1.25,-0.65 L 56.4,39.4 55.8,38.8 55.35,38.2 q -0.6,-0.85 -0.9,-1.85 -0.4,-1.3 -0.15,-2.75 l 0.2,-0.75 0.6,-1.35 0.25,-0.45 q 0.85,-1.3 2,-1.7 l 0.3,-0.1 M 8.75,20.2 8.6,20.15 6.05,20.4 5.25,21 Q 4.55,21.5 3.75,21.4 2.95,21.35 2.3,20.7 1.65,20.05 1.65,19.15 1.6,18.55 2,17.95 l 0.6,-0.65 1,-0.6 0.8,-0.15 1.35,-0.15 q 0.8,0.1 1.3,0.4 l 1.5,0.8 0.8,0.25 q 0.3,0.15 0.6,0.55 l 0.45,0.95 v 0.55 l -0.35,0.25 -0.8,0.1 -0.5,-0.05 M 57.7,13.3 56.6,14.25 56.15,14.7 55.5,14.6 q -0.15,-0.15 -0.15,-0.5 l 0.05,-1.2 0.2,-0.6 q 0.3,-0.75 0.75,-1.35 0.95,-1.15 1.75,-1.2 l 0.9,0.15 0.7,0.65 q 0.5,0.95 -0.15,1.75 -0.35,0.5 -1.15,0.75 L 57.7,13.3 M 6.4,13.3 5.7,13.05 Q 4.9,12.8 4.55,12.3 3.9,11.5 4.4,10.55 L 5.1,9.9 6,9.75 q 0.8,0.05 1.75,1.2 L 8.5,12.3 8.7,12.9 8.75,14.1 8.6,14.6 7.95,14.7 7.5,14.25 6.4,13.3"
         fill="#000000"
         fill-rule="evenodd"
         stroke="none"
         id="path5" />
      <path
         d="m 42.9,16.05 0.15,0.4 V 17 l 0.65,-0.15 1.65,0.3 q 0.75,0.4 1.1,1.25 0.4,0.85 0.15,1.65 l -0.6,1.15 -0.15,0.25 -2.15,1.9 -1.2,0.85 q -1.75,1.05 -3.8,0.9 L 38.4,25.05 37.5,24.9 36.4,24.6 35.55,23.9 35.2,23.45 h -0.05 l -1.3,-0.1 -1.05,-0.55 -0.85,-0.75 -0.85,0.75 -1.05,0.55 -1.3,0.1 H 28.6 l -0.85,-0.1 -1.1,-0.4 Q 24.75,22.15 23.9,20.9 L 23.05,19.25 H 23 q -0.55,0.2 -1.05,0.55 -0.7,-1 -1,-2.25 l -0.05,-0.3 0.45,-0.1 0.55,-0.35 1.25,-1.1 h 0.05 l 0.2,0.2 h 0.15 l 0.8,0.3 1.15,0.35 1,0.6 0.65,0.7 0.4,0.15 0.4,0.15 h 0.2 l 0.9,-0.25 1.7,0.05 q 0.75,0.25 1.2,0.8 0.45,-0.55 1.2,-0.8 l 1.7,-0.05 0.8,0.25 1.85,-0.2 1.7,-0.7 q 1.05,-0.5 1.7,-0.65 l 2,-0.55 m 2.95,11.45 0.6,0.25 q 0.5,0.15 0.75,0.5 0.35,0.45 0.05,0.85 l -0.35,0.25 -0.55,0.15 -0.6,-0.05 -3,-0.65 -0.8,-0.15 -2,-0.25 -1.35,-0.2 -2.4,0.2 -0.75,-0.1 q -0.4,-0.15 -0.4,-0.65 -0.05,-0.6 0.8,-1 l 0.9,-0.2 0.8,-0.05 1.3,0.1 0.25,0.3 0.2,0.2 2.15,-0.35 1.7,0.15 0.95,0.15 0.45,0.1 0.85,0.35 0.45,0.1 m -25.3,1.35 -2.05,0.3 -0.9,0.25 -0.9,-0.1 q -0.7,-0.4 -0.5,-1.15 0.15,-0.4 0.55,-0.75 l 0.8,-0.4 1.05,-0.35 q 1.7,-0.3 4.15,-0.05 1.15,0.1 1.7,0.55 L 24.6,27 l 0.2,-0.2 0.3,0.1 0.05,-0.05 0.3,-0.2 h 0.05 l 1.1,0.25 q 0.4,0.15 0.65,0.35 l 0.15,0.25 -0.2,0.25 -0.7,0.4 -1.4,0.05 h -1.75 l -0.1,0.05 -2.05,0.55 -0.35,-0.05 -0.3,0.1"
         fill="#000000"
         fill-rule="evenodd"
         stroke="none"
         id="path6" />
      <path
         d="m 45.85,21.45 0.4,0.5 0.55,0.85 0.25,1.05 0.1,1.05 q -0.1,1.55 -1.3,2.6 L 45.4,27.4 44.55,27.05 44.1,26.95 43.15,26.8 41.45,26.65 39.3,27 l -0.2,-0.2 -0.25,-0.3 -0.1,-0.2 -0.05,-0.15 -0.3,-1 v -0.1 l 0.3,0.05 q 2.05,0.15 3.8,-0.9 l 1.2,-0.85 2.15,-1.9 M 21.2,28.8 21.65,29 22.3,29.55 q 0.8,0.65 1.7,0.8 l 2.65,0.2 1,-0.05 1.1,-0.35 1.05,-0.4 0.85,-0.7 0.85,-0.65 0.4,-0.05 q 0.85,-0.35 1.7,0.3 l 0.8,0.75 0.85,0.6 2.95,0.6 1.75,0.1 3.1,-0.05 0.55,0.1 -0.05,0.4 -0.3,0.25 -2.6,1.25 -2.25,0.7 Q 36.75,33.6 33.65,32.7 L 32.3,32.1 32.05,31.9 q -0.9,0.75 -2.35,1.3 l -1.5,0.35 Q 26.55,33.75 24.6,33 l -0.4,0.4 -0.45,0.6 -0.65,0.3 -0.3,-0.15 -0.05,-0.4 -0.45,-1.05 -0.05,-0.75 -0.55,-0.4 -0.9,-0.8 q -0.7,-0.7 -0.7,-1.2 0.05,-0.5 0.45,-0.7 l 0.3,-0.1 0.35,0.05 M 17.55,27 q -0.7,-0.9 -0.8,-2.1 l 0.1,-1.05 0.25,-1.05 0.55,-0.85 q 0.55,-0.8 1.3,-1.25 0.5,-0.35 1.05,-0.55 h 0.05 l 3.35,2.5 q 0.9,0.95 2.2,1.7 l -0.1,0.8 q -0.2,1.1 -0.7,1.65 L 24.6,27 24.45,27.15 Q 23.9,26.7 22.75,26.6 20.3,26.35 18.6,26.65 L 17.55,27 m 17.05,8.3 q 0.4,0.05 0.65,0.4 l 0.1,0.75 -0.65,0.65 Q 33.5,37.85 32.05,38 L 30.4,37.85 Q 29.3,37.5 28.15,36.3 L 27.7,35.65 q -0.15,-0.5 0.3,-0.7 l 0.6,0.1 1.05,0.45 2.15,0.6 1.9,-0.6 0.9,-0.2"
         fill="#ffffff"
         fill-rule="evenodd"
         stroke="none"
         id="path7" />
      <path
         d="M 35.65,18.15 35.4,18 q -0.8,-0.55 -0.65,-1.4 0.15,-0.9 1.1,-1.15 l 0.85,-0.05 1.65,-0.45 2.35,-0.35 2.6,-0.6 0.45,-0.05 0.5,0.1 0.95,0.05 q 0.65,0.25 0.6,0.65 l -0.45,0.5 -0.65,0.15 -1.3,0.5 -0.5,0.15 -2,0.55 q -0.65,0.15 -1.7,0.65 l -1.7,0.7 -1.85,0.2 M 20.9,17.25 q -0.45,-0.05 -0.75,-0.5 -0.4,-0.65 0.05,-1.3 L 20.6,15 21.2,14.5 21.9,14 23.7,12.95 23.2,11.7 23.05,10.9 22.85,10.5 22.75,10.1 Q 22.9,9.75 23.4,9.85 l 0.55,0.45 1.6,1.5 0.05,0.05 2.1,-1.3 0.15,0.1 0.05,0.35 -0.35,0.25 -1.05,0.8 -0.25,0.4 0.75,0.95 q 0.7,1.15 0.25,1.9 -0.2,0.5 -0.8,0.6 l -1,-0.15 -0.55,-0.75 -0.4,-0.9 -0.2,0.3 -0.25,0.45 -0.4,0.3 -0.45,0.55 h -0.05 l -1.25,1.1 -0.55,0.35 -0.45,0.1 m 16.2,34.05 0.65,-0.65 q 1.1,-1.2 1.8,-1.65 L 40.4,48.45 41,47.95 41.65,48 q 0.2,0.25 0,0.6 l -0.4,0.5 -0.55,0.8 q -0.75,1.3 -1.9,2.35 l -0.65,0.4 q -0.55,0.15 -1,-0.35 -0.3,-0.45 -0.05,-1 m -2.7,-1.95 q 0.15,-0.65 1.55,-1.4 l 3.1,-2.25 q 0.55,-0.45 0.9,-0.45 l 0.5,0.15 0.2,0.4 -0.5,0.65 q -1.7,1.15 -3.35,3.4 l -0.85,0.8 -1.2,-0.15 Q 34.2,50.05 34.4,49.35 m -11.25,3.7 -0.7,-0.6 -0.2,-0.4 -0.65,-0.9 Q 21.05,50.5 21.1,50 q 0.1,-0.65 0.75,-0.75 0.65,-0.1 0.85,0.55 l 0.2,0.55 0.35,0.45 0.8,1.7 v 0.65 Q 23.9,53.4 23.6,53.3 l -0.45,-0.25"
         fill="#999999"
         fill-rule="evenodd"
         stroke="none"
         id="path8" />
    </g>
    <g
       id="shape2"
       transform="translate(1.5,1.5)">
      <path
         d="M 0,23.8 V 0 H 64.1 V 23.8 57.55 H 0 Z"
         fill="none"
         stroke="#000000"
         stroke-linecap="round"
         stroke-linejoin="round"
         stroke-width="3"
         id="path9" />
    </g>
  </defs>
</svg>
