<?xml version="1.0" encoding="UTF-8" standalone="no"?>
<svg
   ffdec:objectType="frame"
   height="60.549999"
   width="67.099998"
   version="1.1"
   id="svg6"
   sodipodi:docname="132.svg"
   xmlns:inkscape="http://www.inkscape.org/namespaces/inkscape"
   xmlns:sodipodi="http://sodipodi.sourceforge.net/DTD/sodipodi-0.dtd"
   xmlns:xlink="http://www.w3.org/1999/xlink"
   xmlns="http://www.w3.org/2000/svg"
   xmlns:svg="http://www.w3.org/2000/svg"
   xmlns:ffdec="https://www.free-decompiler.com/flash">
  <sodipodi:namedview
     id="namedview6"
     pagecolor="#ffffff"
     bordercolor="#000000"
     borderopacity="0.25"
     inkscape:showpageshadow="2"
     inkscape:pageopacity="0.0"
     inkscape:pagecheckerboard="0"
     inkscape:deskcolor="#d1d1d1"
     fit-margin-top="5"
     fit-margin-left="5"
     fit-margin-right="5"
     fit-margin-bottom="5" />
  <g
     transform="translate(1.5,1.5)"
     id="g3">
    <use
       ffdec:characterId="516"
       height="57.549999"
       width="64.099998"
       xlink:href="#shape0"
       id="use1" />
    <use
       ffdec:characterId="642"
       height="52.900002"
       transform="translate(0.15,4.75)"
       width="59.200001"
       xlink:href="#shape1"
       id="use2" />
    <use
       ffdec:characterId="518"
       height="60.549999"
       transform="translate(-1.5,-1.5)"
       width="67.099998"
       xlink:href="#shape2"
       id="use3" />
  </g>
  <defs
     id="defs6">
    <g
       id="shape0">
      <path
         d="M 53.6,0 H 64.1 V 57.55 H 53.6 28.25 0 V 0 H 28.25 53.6 V 57.55 0 M 28.25,0 V 57.55 0"
         fill="#ffffff"
         fill-rule="evenodd"
         stroke="none"
         id="path3" />
    </g>
    <g
       id="shape1"
       transform="translate(-0.15,-4.75)">
      <path
         d="M 48.3,16.6 46.35,16.55 Q 46,16.7 45.2,17.3 q -0.5,0.45 -0.95,0.55 l -0.4,0.3 -2.9,1.25 -3.1,1.1 -0.25,1.9 -0.2,0.45 -0.9,-0.05 Q 35.9,22.25 35.8,21 32.75,21.45 29.85,20.25 l -1.5,-0.75 -0.15,0.3 q -0.55,0.75 -1.25,0.6 L 26.2,19.85 q -0.3,-0.5 -0.2,-1 l 0.4,-0.9 -0.35,-0.45 -1.15,0.85 Q 24.4,18.45 24,18.05 23.55,17.6 23.6,17.1 23.65,16.7 24.25,16 L 24.8,15.5 24.7,15.3 24,14.1 q -0.9,-0.7 -2.25,0.15 0.5,1.1 0.15,1.65 l -0.65,0.45 Q 20.8,16.4 20.4,16.05 L 20.25,15.9 19.9,16.85 q -0.1,0.75 -0.4,0.9 h -0.55 l -0.4,-0.4 q -0.15,-0.3 -0.05,-1.15 0.4,-1.5 1.1,-2.55 l -0.05,-0.2 -0.25,-1.2 q 0,-0.75 0.3,-1.05 0.2,-0.25 0.5,-0.25 l 0.45,0.2 0.2,0.55 0.2,0.55 0.7,-0.45 q 1.3,-0.6 2.75,-0.35 1.5,0.25 2.3,1.4 l 0.5,0.8 0.45,-0.35 q 0.5,-0.4 0.8,-0.45 0.55,-0.2 0.8,0.25 0.25,0.45 -0.3,1.1 l -0.8,0.85 0.35,0.3 1.55,-1.9 0.45,-0.35 q 0.4,-0.2 0.5,0.15 l -0.15,0.55 q -0.7,1.1 -1.25,2.35 2.15,1.3 3.8,1.5 l 2.05,-0.05 v -0.15 q 0.1,-0.65 0.5,-1 l 0.95,-0.2 0.8,0.5 0.15,0.2 1.15,-0.45 3.25,-1.4 0.7,-0.3 v -0.05 q 0.65,-0.8 1.8,-1.2 l 0.4,-0.1 V 13.3 l -0.3,-1.9 Q 44.65,10.85 44.8,10.45 45,9.8 45.55,9.9 l 0.65,0.5 0.65,1.1 0.35,1.2 0.2,0.45 q 2,0.05 4.05,1.3 2.8,1.75 4.55,5.25 0.7,1.45 0.85,2.4 l 0.1,0.75 H 57 l 0.8,0.15 0.85,0.3 q 0.55,0.25 0.6,0.45 0.3,0.45 -0.2,0.75 l -0.75,0.1 h -1.4 l -0.15,0.05 -1.1,2.1 Q 54,28.8 51.45,28.9 h -1.4 l -1.4,0.15 q -0.95,0.2 -1.6,0.9 l 0.3,0.5 q 0.2,0.45 -0.1,0.95 L 46.5,31.95 45.9,31.9 V 32 h 0.15 q 0.95,0.25 1.15,0.45 l 0.25,0.6 -0.3,0.5 -0.7,-0.05 -0.8,-0.1 q -0.15,1.35 0.05,3.25 l 0.25,2.45 1.4,0.35 0.75,0.1 0.45,0.55 q 0,0.35 -0.35,0.5 l -0.65,0.15 -1.45,0.2 V 41 l -0.05,0.8 -0.55,0.45 Q 45.1,42.2 44.85,41.65 L 44.55,41 44.1,40.85 q -0.4,-0.2 -0.5,-0.8 0,-0.45 0.25,-0.65 L 43.8,39.3 42.9,35.1 42.7,33.4 41.65,33.2 q -0.55,-0.3 -0.55,-1 0.1,-0.7 0.75,-0.95 L 42.8,31.3 43.25,30 42.2,29 q -0.45,-0.45 -0.4,-0.85 l 0.5,-0.45 0.75,0.05 1.2,0.5 0.35,-0.45 q 0.9,-1.15 1.8,-1.6 0.9,-0.5 2.6,-0.55 l 2.7,-0.2 q 1.2,-0.25 1.65,-1 0.6,-0.9 0.15,-2.4 Q 53,20.2 51.6,18.7 L 51.3,18.4 50.75,18.55 49.5,19 q -0.6,0.5 -0.95,0.6 L 48,19.65 47.55,19.3 q -0.1,-0.35 0.4,-0.85 L 49.4,17.1 q -0.5,-0.3 -1.1,-0.5 m -33.5,3.05 0.7,-0.5 1.3,0.1 q 0.65,0.45 0.5,1.15 -0.1,0.6 -1.3,1.35 -1.1,0.7 -3.1,2.6 l -1.5,1.4 -5.65,5 q -0.4,0.4 -0.7,0.2 -0.2,-0.15 -0.1,-0.45 l 0.25,-0.4 1.05,-1.45 1.1,-1.3 0.95,-1 0.5,-0.75 1.05,-1.1 2,-2.25 2.95,-2.6 M 35.5,39.3 q 0.75,-0.6 1.55,-0.2 0.85,0.5 0.7,1.35 l -0.9,1.3 -4.2,4.15 -1.15,1.2 -1.85,2.05 -2.05,1.8 -0.75,0.6 -0.35,0.4 q -0.25,0.2 -0.45,0 -0.25,-0.1 -0.15,-0.4 l 0.25,-0.4 8.7,-11.1 0.65,-0.75"
         fill="#999999"
         fill-rule="evenodd"
         stroke="none"
         id="path4" />
      <path
         d="m 53.65,16.5 q -0.5,-1.1 -1.75,-1.65 l -0.65,-0.2 -0.7,1.05 -1.3,0.1 q -0.65,-0.3 -0.8,-1 v -0.2 q -1.5,0.35 -3.75,1.55 l -1.5,0.8 -0.15,0.15 Q 42.5,17.65 41.8,17.5 L 40.05,17.9 37.4,17.55 Q 36.05,17 35.35,15.9 34,13.85 35.1,10.9 L 35.8,9.45 34.95,9 Q 34.5,8.65 34.55,8.2 34.6,7.6 35.65,7.4 L 36.55,7.35 37.3,7.45 37.75,7 q 1.9,-1.6 4.25,-2.15 0.6,-0.15 1.1,0 0.55,0.15 0.6,0.65 0.1,0.6 -1.1,1.25 -1.25,0.65 -2.3,1.6 l 0.15,0.75 q -0.1,0.6 -0.6,0.9 l -1,0.2 q -0.6,0.95 -0.8,2.05 -0.1,0.95 0.15,1.35 0.3,0.6 1.15,0.7 h 0.85 l -0.25,-2 q -0.1,-1.2 0.4,-1.5 l 0.95,0.1 0.3,0.7 q 0.25,0.95 0.65,1.75 l 1.3,-0.8 q 3.3,-2 6.65,-1.85 L 51.15,8.85 51.6,8.3 52.3,8.35 52.75,9 52.5,10.5 52.35,11 l 2,0.85 q 1.7,1.05 2.6,2.65 0.95,1.65 0.7,3.65 -0.2,2.05 -1.55,3.3 -0.7,0.65 -2.2,1.4 -0.05,0.7 -0.65,1.1 L 52.4,24.3 51.55,24.05 51.5,24 l -1.4,1 2.05,2.6 1.65,-0.3 h 0.8 q 0.55,0.2 0.45,0.65 l -0.55,0.5 -1.2,0.6 -0.3,0.2 q 0.65,1.6 0.4,3.15 l -0.1,0.4 0.5,0.2 0.6,0.6 q 0.1,0.5 -0.65,0.7 l -1.1,0.05 -0.9,1.05 q -1.3,1.2 -3.05,1.75 l -3.5,0.55 -1.05,1.9 -0.45,0.45 q -0.35,0.1 -0.6,-0.25 l -0.15,-0.7 v -1.45 l -1.2,-0.1 q -1.95,-0.1 -2.35,-1.1 -0.3,-0.65 0.15,-1.35 0.4,-0.65 1.15,-0.9 0.7,-0.2 2.95,0 l 0.6,0.05 V 34.2 q 0.3,-0.35 0.6,-0.3 l 0.1,-0.05 q 0.45,0 0.7,0.35 1.4,-0.2 2.55,-0.8 L 48.1,33.1 Q 48,32.55 48.35,32.25 L 47.8,32.15 Q 47.1,32 46.85,31.3 46.7,31.05 46.8,30.6 l 0.15,-0.55 0.45,-0.45 q 0.55,-0.4 1.1,-0.55 L 47.7,28.1 q -1.35,-1.65 -1.45,-2.8 -0.15,-1.85 2,-3.6 l 1.3,-0.85 -0.2,-0.75 q 0,-0.55 0.4,-0.95 0.45,-0.45 0.95,-0.4 0.6,0.05 1.1,0.65 l 0.2,0.25 1.6,-0.95 q 0.65,-0.95 0.05,-2.2 M 49.6,31.7 49.45,31.85 H 49.6 V 31.7 M 18.7,34 q -0.95,0.2 -1.8,-0.45 -0.8,-0.7 -0.7,-1.75 0.1,-0.7 0.55,-1.15 0.4,-0.5 1.15,-0.65 l 1.25,0.2 0.95,0.85 q 0.3,0.55 0.25,1.25 L 19.8,33.45 Q 19.35,33.9 18.7,34 m 0.8,7.8 -3.05,0.25 q -1.1,-0.25 -1.8,-0.8 -0.9,-0.65 -1.1,-1.6 l -0.05,-0.95 0.1,-0.95 0.75,-1.3 0.6,-0.6 1.15,-0.55 1.4,-0.25 1.2,0.15 0.95,0.3 0.55,0.45 1.1,1.3 0.25,1.4 -0.3,1.5 -0.7,0.8 -1.05,0.85 m -7.75,15.15 q 0.3,-0.9 1.85,-2.35 l 7.15,-6.75 q 3.85,-3.95 6.05,-7.65 1.4,-2.45 1.75,-4.15 0.6,-2.4 -0.4,-4.4 -0.85,-1.65 -2.7,-2.6 -1.75,-0.9 -3.75,-0.8 -3.25,0.15 -7.15,2.75 -3.3,2.25 -6.9,6.05 L 1.5,43.95 Q 0.75,44.9 0.15,44.7 v -2.15 q 2.4,-5 6.25,-9.15 4.05,-4.35 9.15,-7.2 2.3,-1.3 3.95,-1.7 l 4.55,-0.25 q 2.3,0.4 4.2,1.65 1.9,1.3 3.05,3.3 1.2,2.05 1.4,4.3 0.4,4.3 -3.15,9.7 -2.5,3.8 -6.6,8 l -6.8,6.45 H 11.7 q -0.05,-0.35 0.05,-0.7 M 23.2,33.8 q -0.9,-0.1 -1.35,-0.65 -0.6,-0.6 -0.5,-1.4 0,-0.35 0.3,-0.95 l 0.85,-0.75 1.1,-0.3 q 1,0 1.55,1.1 0.4,0.95 -0.2,1.9 -0.55,1.05 -1.75,1.05 m 2.1,4.3 -1.25,-0.2 q -0.6,-0.35 -0.85,-0.95 -0.5,-1.3 0.5,-2.15 1,-0.95 2.2,-0.25 0.55,0.25 0.8,0.85 0.25,0.55 0.15,1.15 -0.05,0.55 -0.5,1 Q 25.9,38 25.3,38.1"
         fill="#000000"
         fill-rule="evenodd"
         stroke="none"
         id="path5" />
    </g>
    <g
       id="shape2"
       transform="translate(1.5,1.5)">
      <path
         d="M 0,23.8 V 0 H 64.1 V 23.8 57.55 H 0 Z"
         fill="none"
         stroke="#000000"
         stroke-linecap="round"
         stroke-linejoin="round"
         stroke-width="3"
         id="path6" />
    </g>
  </defs>
</svg>
