<?xml version="1.0" encoding="UTF-8" standalone="no"?>
<svg
   ffdec:objectType="frame"
   height="60.650002"
   width="67.099998"
   version="1.1"
   id="svg7"
   sodipodi:docname="188.svg"
   xmlns:inkscape="http://www.inkscape.org/namespaces/inkscape"
   xmlns:sodipodi="http://sodipodi.sourceforge.net/DTD/sodipodi-0.dtd"
   xmlns:xlink="http://www.w3.org/1999/xlink"
   xmlns="http://www.w3.org/2000/svg"
   xmlns:svg="http://www.w3.org/2000/svg"
   xmlns:ffdec="https://www.free-decompiler.com/flash">
  <sodipodi:namedview
     id="namedview7"
     pagecolor="#ffffff"
     bordercolor="#000000"
     borderopacity="0.25"
     inkscape:showpageshadow="2"
     inkscape:pageopacity="0.0"
     inkscape:pagecheckerboard="0"
     inkscape:deskcolor="#d1d1d1"
     fit-margin-top="5"
     fit-margin-left="5"
     fit-margin-right="5"
     fit-margin-bottom="5" />
  <g
     transform="translate(1.5,1.5)"
     id="g3">
    <use
       ffdec:characterId="516"
       height="57.549999"
       width="64.099998"
       xlink:href="#shape0"
       id="use1" />
    <use
       ffdec:characterId="696"
       height="59.599998"
       transform="translate(-0.25,-0.45)"
       width="65.699997"
       xlink:href="#shape1"
       id="use2" />
    <use
       ffdec:characterId="518"
       height="60.549999"
       transform="translate(-1.5,-1.5)"
       width="67.099998"
       xlink:href="#shape2"
       id="use3" />
  </g>
  <defs
     id="defs7">
    <g
       id="shape0">
      <path
         d="M 53.6,0 H 64.1 V 57.55 H 53.6 28.25 0 V 0 H 28.25 53.6 V 57.55 0 M 28.25,0 V 57.55 0"
         fill="#ffffff"
         fill-rule="evenodd"
         stroke="none"
         id="path3" />
    </g>
    <g
       id="shape1"
       transform="translate(0.25,0.45)">
      <path
         d="m 24.95,2.1 -6.25,10.8 -0.55,0.35 -0.2,-0.4 q 0,-0.5 0.35,-1.25 l 0.45,-1.25 0.15,-0.7 3.95,-8.85 0.55,-0.9 1.45,-0.15 q 0.75,0.5 0.6,1.35 l -0.5,1 m -4.9,-2.05 0.75,0.1 0.45,0.6 L 21.1,1.9 Q 16.7,14.15 12,25.45 l 0.1,0.2 q 0.2,0.5 -0.1,1 l -0.8,0.7 -2.1,0.2 Q 6.4,27.5 3.25,28.4 l -1.5,0.1 Q 1.05,28.3 0.8,27.4 0.65,26.9 0.65,25.9 0.8,14.75 0.15,4.3 L -0.05,2 q -0.2,-1.05 0,-1.45 0.35,-0.8 1.85,-0.9 l 5.85,0.25 5.9,0.4 h 2.9 q 1.65,0.1 2.7,0.65 h 0.05 q 0.35,-0.8 0.85,-0.9 M 60.9,25.4 q -0.65,-0.75 -0.1,-1.6 0.5,-0.85 1.5,-0.6 0.95,0.25 1.05,1.25 0.1,1 -0.9,1.35 -0.9,0.4 -1.55,-0.4 m 0.55,-16.15 0.45,0.45 0.05,0.65 -0.4,0.5 -0.65,0.05 q -0.35,-0.05 -0.55,-0.45 l -0.1,-0.3 V 10 L 60.4,9.6 Q 60.8,9 61.45,9.25 m -5.6,-0.5 h -0.3 L 55.2,8.65 54.95,8.35 Q 54.8,8 54.95,7.65 l 0.6,-0.35 0.1,-0.05 0.45,0.2 0.2,0.3 0.05,0.2 -0.05,0.35 -0.2,0.25 -0.25,0.2 M 43.75,4 44.15,3.7 44.75,3.6 Q 45.5,3.75 45.7,4.35 45.95,4.95 45.6,5.5 45.1,6.1 44.45,6 43.75,5.95 43.5,5.2 43.25,4.5 43.75,4 m -2.95,8.95 -0.35,-0.3 q -0.35,-0.5 0,-1 0.2,-0.45 0.6,-0.35 l 0.15,-0.05 0.45,0.15 q 0.3,0.2 0.4,0.55 l -0.1,0.6 q -0.4,0.65 -1.15,0.4 m 6.15,6.85 -0.25,-0.4 -0.15,-0.55 q 0,-0.5 0.35,-0.9 0.3,-0.4 0.75,-0.5 l 0.95,0.15 0.6,0.75 v 0.85 l -0.55,0.75 -0.85,0.25 q -0.45,0 -0.85,-0.4 M 59.1,18.9 58.95,18.45 q -0.05,-0.4 0.2,-0.75 0.3,-0.35 0.65,-0.3 h 0.05 q 0.65,0 0.9,0.55 Q 61,18.55 60.5,19 l -0.7,0.3 -0.7,-0.4 m -5.55,-3.1 v -0.25 l 0.05,-0.2 q 0.15,-0.55 0.8,-0.65 l 0.8,0.2 0.35,0.75 q 0.1,0.55 -0.4,0.85 L 54.3,16.7 Q 53.8,16.6 53.65,16.15 L 53.55,15.8 M 56.7,27.25 Q 56.15,27 56.25,26.4 q 0,-0.5 0.6,-0.7 l 0.2,-0.05 0.55,0.25 q 0.45,0.45 0.1,1.05 -0.4,0.55 -1,0.3 M 40.65,31.4 40.8,31.75 V 32 l -0.1,0.2 -0.2,0.15 H 40 L 39.75,32.1 39.7,31.9 39.65,31.8 39.7,31.7 37.95,32.2 H 37.6 V 31.85 L 52.55,25.2 q 0.9,-0.5 1.5,-0.55 1,-0.1 1.5,0.5 0.6,0.75 -0.05,1.55 -0.25,0.3 -1.15,0.6 l -13.7,4.1 m 12.65,5.9 q -0.65,-0.15 -1,-0.8 -0.25,-0.7 0,-1.25 0.25,-0.55 0.8,-0.85 l 1.15,-0.05 q 0.6,0.2 0.9,0.8 0.3,0.6 0.05,1.15 l -0.75,0.9 -1.15,0.1 m 6.55,-3.95 q -0.25,-0.4 0.1,-0.75 0.4,-0.35 0.75,0 0.35,0.15 0.25,0.5 l -0.1,0.25 -0.35,0.3 -0.45,-0.05 -0.2,-0.25 m -12.3,-8.5 q 0.8,0.45 0.65,1.4 -0.15,0.95 -1.1,1.1 -0.85,0.25 -1.45,-0.55 -0.35,-0.55 -0.2,-1.1 0.15,-0.65 0.7,-0.9 l 1.4,0.05 m -2.75,11.9 0.4,0.05 q 0.5,0.15 0.75,0.65 l 0.1,0.9 -0.6,0.75 -0.9,0.2 -0.8,-0.55 q -0.3,-0.4 -0.25,-0.85 0.05,-0.5 0.45,-0.8 0.35,-0.35 0.85,-0.35 m 11.45,1.65 0.4,-0.65 0.25,-0.1 0.6,0.1 0.4,0.25 0.1,0.35 1.85,-0.35 2.45,-0.4 1.85,0.1 0.7,0.7 q 0.25,0.5 0.1,1 -0.3,0.8 -1.3,1 L 60.6,40.6 59,40.3 56.5,40.05 55.4,39.8 54.1,39.7 52.75,39.65 49.8,39.3 49.5,39.05 Q 49.6,38.9 49.8,38.9 L 56,38.4 h 0.25 M 40.95,45.75 40.6,45.55 40.45,45.15 40.4,44.8 Q 40.5,44.25 41,44.1 L 41.2,44.05 41.3,44 q 0.75,-0.1 1,0.6 0.25,0.4 -0.05,0.85 -0.25,0.4 -0.75,0.4 l -0.55,-0.1 m 17.6,2.7 -0.05,0.9 q -0.4,1 -1.5,1.25 -1.1,0.15 -1.75,-0.75 -0.7,-0.95 -0.2,-1.9 0.4,-0.85 1.4,-1 0.95,-0.15 1.6,0.55 0.45,0.45 0.5,0.95 m 3.35,-4.9 q -1,-0.5 -0.9,-1.7 0.1,-0.55 0.3,-0.75 0.3,-0.35 0.75,-0.45 1.1,-0.25 1.7,0.7 0.6,0.95 -0.1,1.8 l -0.8,0.5 -0.95,-0.1 M 36.55,3.85 q -0.25,0.4 -0.7,0.4 L 35.1,3.85 35.05,3.3 35.2,3 35.5,2.7 35.85,2.65 q 0.45,0 0.7,0.4 0.25,0.35 0,0.8 m 0.3,7.65 -1.25,0.75 q -0.8,0.1 -1.35,-0.45 -0.9,-0.75 -0.55,-1.85 0.35,-1.1 1.5,-1.25 1.15,-0.1 1.75,0.9 0.55,1 -0.1,1.9 M 28.7,3.8 29,3.5 Q 29.3,3.35 29.3,3.65 24.1,15 19.7,26.55 l 5.75,-6.5 q 0.4,-0.4 0.65,-0.2 0.25,0.25 -0.1,0.6 l -6.8,9.45 -1.2,2 -0.6,0.95 -0.05,0.1 q -0.5,1.3 -1,1.7 L 15.45,35 Q 14.9,35 14.6,34.6 14.25,34.05 14.65,32.9 20.4,17.65 28.7,3.8 M 28.55,24.85 Q 28.3,24.4 28.45,23.95 L 28.9,23.4 q 0.3,-0.25 0.65,-0.2 0.9,0.1 1,0.9 0.1,0.95 -0.7,1.2 h -0.7 l -0.6,-0.45 m 9.35,-0.65 -0.35,0.55 -0.6,0.2 -0.65,-0.2 -3.8,3 -2.05,1.95 -1.4,0.85 q -0.25,-0.15 0.1,-0.5 l 8.25,-9.2 0.7,-0.65 1.35,0.05 q 0.7,0.35 0.5,1.2 l -0.9,1.1 -1.2,1 0.05,0.65 M 11.5,9.55 q 0.5,0.5 1.3,0.6 l 1.4,-0.3 Q 14.8,9.45 15.05,8.7 15.25,7.95 15,7.25 L 14.7,6.8 15,6.4 q 0.7,-0.9 1.4,-1.25 l 0.3,0.55 0.55,0.4 H 17.4 L 18,4.3 Q 17.7,3.7 17.05,3.45 16.1,3.2 15.5,3.7 L 14.55,5.1 13.8,6.1 12.6,6 Q 11.8,6.2 11.3,6.95 L 11.1,7.3 H 10.4 L 8.8,7.45 H 8.75 L 8.55,7.2 8.25,6.9 9.35,5.3 9.95,5.95 q 0.45,0.25 0.85,0 L 11.1,5.2 Q 11.2,4.35 10.65,3.9 9.95,3.3 9.25,3.6 8.65,3.85 8.2,4.7 l -1,1.55 v 0.1 L 5.95,6.5 q -0.8,0.3 -1.15,1 -0.35,0.6 -0.25,1.35 0.1,0.7 0.6,1.2 0.45,0.55 1.15,0.7 L 7.65,10.65 8.7,9.75 9,9.05 11,8.8 h 0.05 l 0.45,0.75 m 5.65,8.55 -2.8,7.6 -0.7,2.55 -0.35,0.8 q -0.4,0.45 -1,0.3 -0.55,-0.1 -0.75,-0.7 -0.15,-0.45 0.3,-1.35 l 0.45,-1.05 1.6,-2.8 0.95,-1.9 0.95,-1.9 0.6,-1.05 0.3,-0.9 q 0.4,-0.1 0.45,0.1 v 0.3 m 2.6,37.45 0.55,1.25 q 0.15,0.6 -0.15,0.95 0.1,0.8 -0.45,1.15 -0.55,0.5 -1.35,0 l -0.9,-1.05 -0.25,-0.5 -0.9,0.05 -3.5,-0.5 -3.5,-0.25 -2.35,0.4 -3.4,0.3 -1.1,0.3 H 1.35 Q 0.6,57.3 0.4,56.25 L 0.35,54.5 0,49.75 q -0.4,-3 -0.1,-4.7 l 0.2,-1.7 -0.3,-1.3 q -0.1,-0.7 0.15,-1.15 l 0.7,-0.5 V 40.2 39.8 L 0.5,39.35 q -0.25,-0.75 0.15,-1.4 0.4,-0.65 1.2,-0.8 l 2.35,0.15 1,0.2 2.2,0.35 0.7,0.4 0.3,0.4 0.35,0.3 L 9.2,39.1 9.7,39 q 0.45,-0.1 0.8,0.25 l 0.1,-0.1 q 0.4,-0.4 1,-0.25 0.35,0.05 0.6,0.35 l 0.3,0.2 0.05,0.05 0.1,0.1 q 0.45,0.45 0.7,1.2 l 3.35,7.35 1.6,4.05 0.25,0.75 1.2,2.6 M 14,37.85 q 0.45,0.2 0.7,0.8 l 0.4,1 0.55,0.95 0.35,0.9 0.6,1.45 0.1,0.3 -0.2,0.2 -0.25,-0.35 -0.5,-0.35 -0.45,-0.6 -1.55,-2.05 q -1,-0.9 -0.95,-1.4 0,-0.45 0.4,-0.7 L 14,37.85 m 6.05,7.95 Q 19.7,45.55 19.8,45.15 l 0.2,-0.3 0.1,-0.1 h 0.3 V 44.7 q 0.5,0 0.6,0.45 0.1,0.55 -0.35,0.7 L 20.3,45.9 20.05,45.8 m 0.7,7.6 v -0.45 l -2.6,-4.3 -1.2,-2.7 -0.1,-0.4 q 0.15,-0.4 0.65,-0.2 l 0.5,0.55 0.55,0.95 0.45,0.6 0.55,0.65 2.4,2.95 0.7,0.65 1.15,1.5 q 0.4,1.1 -0.35,1.65 -0.65,0.5 -1.35,0 l -0.65,-0.7 -0.1,-0.2 -0.6,-0.55 m 12.7,-23.75 v 0.25 l -0.05,0.3 -0.15,0.2 -0.45,0.1 -0.2,-0.1 -0.15,-0.15 -0.1,-0.15 v -0.4 l 0.25,-0.25 0.3,-0.05 v -0.05 l 0.3,0.1 0.25,0.2 M 29.9,35.9 v -0.3 l 0.25,-0.45 q 0.2,-0.2 0.4,-0.15 l 0.15,-0.05 q 0.35,0 0.7,0.35 0.25,0.35 0.1,0.75 l -0.15,0.3 -0.55,0.35 -0.45,-0.1 -0.3,-0.25 -0.15,-0.45 m -7.35,-5.35 0.3,-0.7 0.4,-0.3 0.25,-0.05 0.2,-0.05 q 0.7,0 1.05,0.7 0.25,0.75 -0.3,1.25 -0.55,0.55 -1.2,0.2 -0.7,-0.25 -0.7,-1.05 m 6,19.15 0.05,0.3 -0.05,0.2 -0.2,0.3 -0.65,0.25 -0.25,-0.1 -0.2,-0.2 -0.15,-0.3 q -0.15,-0.3 0.1,-0.65 l 0.55,-0.3 0.1,-0.05 0.6,0.35 0.1,0.2 m 8.4,-8.5 -0.2,0.2 -0.85,-0.15 -0.2,-0.45 0.3,-0.6 0.25,-0.1 h 0.1 l 0.05,-0.05 0.45,0.15 0.2,0.25 0.05,0.35 -0.15,0.4 m -1.25,10.7 -0.85,-0.05 -0.3,-0.3 -0.1,-0.25 -0.05,-0.2 0.2,-0.4 -2.8,-2.2 -0.55,-0.6 -0.35,-0.25 q -0.2,-0.3 0.05,-0.4 0.65,-0.1 1.75,0.5 l 8.55,5.1 0.95,1.1 q 0.1,0.5 -0.2,0.95 l -0.75,0.45 q -0.6,0.1 -1.65,-0.75 L 35.95,51.75 35.7,51.9 m -4.55,3.25 q 0.1,-0.45 0.35,-0.65 0.3,-0.3 0.75,-0.3 0.8,0 1,0.85 v 0.35 l -0.05,0.35 -0.5,0.55 -0.8,0.05 q -0.85,-0.25 -0.75,-1.2 m 12.25,-0.1 q -0.35,-0.5 0,-1.05 0.35,-0.55 0.95,-0.45 0.6,0.1 0.8,0.7 l 0.05,0.3 -0.05,0.3 -0.4,0.5 -0.5,0.15 -0.35,-0.05 -0.5,-0.4"
         fill="#999999"
         fill-rule="evenodd"
         stroke="none"
         id="path4" />
      <path
         d="M 11.5,9.55 11.05,8.8 H 11 L 9,9.05 8.7,9.75 7.65,10.65 6.3,10.75 Q 5.6,10.6 5.15,10.05 4.65,9.55 4.55,8.85 4.45,8.1 4.8,7.5 5.15,6.8 5.95,6.5 L 7.2,6.35 v -0.1 l 1,-1.55 q 0.45,-0.85 1.05,-1.1 0.7,-0.3 1.4,0.3 0.55,0.45 0.45,1.3 l -0.3,0.75 q -0.4,0.25 -0.85,0 L 9.35,5.3 8.25,6.9 8.55,7.2 8.75,7.45 H 8.8 L 10.4,7.3 h 0.7 L 11.3,6.95 Q 11.8,6.2 12.6,6 l 1.2,0.1 0.75,-1 0.95,-1.4 Q 16.1,3.2 17.05,3.45 17.7,3.7 18,4.3 L 17.4,6.1 H 17.25 L 16.7,5.7 16.4,5.15 Q 15.7,5.5 15,6.4 L 14.7,6.8 15,7.25 q 0.25,0.7 0.05,1.45 -0.25,0.75 -0.85,1.15 l -1.4,0.3 Q 12,10.05 11.5,9.55"
         fill="#ffffff"
         fill-rule="evenodd"
         stroke="none"
         id="path5" />
      <path
         d="m 53,24.6 -0.45,0.1 Q 52.2,24.6 52.4,24.2 l 0.4,-0.45 9.9,-8.5 q 0.95,-0.75 1.5,-0.75 0.75,0 1.05,0.65 0.4,0.65 -0.05,1.25 L 64.5,17.05 53,24.6 M 44.95,11.75 49.35,5.1 49.9,4.5 q 0.8,-0.6 1.55,0 0.75,0.6 0.4,1.5 l -0.5,0.7 -7.55,8.15 -1.3,1.4 -0.3,0.2 -0.3,-0.1 0.1,-0.35 2.55,-3.5 0.4,-0.75 m 7.5,3.35 q 0.8,-0.1 1.25,0.5 0.55,0.55 0.3,1.35 -0.2,0.65 -1.4,1.4 l -2.5,1.7 Q 47,22.5 45.45,23.7 l -6.95,4.9 -0.45,0.2 -0.3,-0.25 0.3,-0.35 1.05,-0.95 q 2.8,-2.9 8.6,-8.2 l 2.7,-2.35 0.9,-1 q 0.6,-0.55 1.15,-0.6 m -16.6,21.1 -0.15,-0.1 0.15,-0.2 1.5,-0.6 10.05,-2.65 4.05,-1.15 q 1.7,-0.85 2.4,-0.55 0.7,0.3 0.85,1.1 0.1,0.75 -0.5,1.25 l -1.4,0.65 -5.9,1.1 -6,0.75 -2,0.3 -1.55,0.3 -1.5,-0.2 M 41,46.6 q 0.35,0.5 0.25,1.05 l -0.45,0.75 -0.8,0.25 -0.85,-0.3 -2.2,-1.2 -0.8,-0.6 -5.65,-3.3 -1.95,-1.3 q -0.3,-0.2 -0.25,-0.45 0,-0.2 0.35,-0.2 l 0.45,0.2 1.65,0.75 9.35,3.85 0.9,0.5 m 3.1,-5.05 -0.15,-0.25 0.1,-0.15 h 0.45 l 12.9,1.9 1.55,0.4 q 0.9,0.35 1.1,1.1 0.15,0.5 -0.1,1 L 59.25,46.2 57.6,46.15 Q 55.4,45.7 54.15,45.1 L 53,44.6 51.6,44.3 44.1,41.55 M 1.65,37.85 0.4,37.9 V 25.85 L 1.75,25.5 2.25,25.4 5.85,25 q 4.8,-0.1 8.35,2.25 l -0.05,-1 Q 14.1,24.9 14.45,23 q 0.35,-2.45 0.65,-3.6 0.45,-1.95 1.3,-3.3 1.2,-2 2.95,-2.55 l 2,-0.05 q 1.05,0.25 1.65,1 0.5,0.6 0.7,1.75 0.1,1.1 -0.25,1.85 l -1.6,2 Q 20,22.05 19.2,24.7 l -0.7,3.5 -0.6,3.1 q 1,1.7 1.15,3.55 v 0.55 l 1.6,0.7 q 1.45,0.65 2.4,0.5 -0.5,-1.1 -0.5,-2.05 0.1,-1.25 1,-1.8 0.4,-0.25 1.25,-0.35 l 1.1,0.1 q 1,0.4 1.35,1.8 0.7,2.3 -0.15,4.55 -0.35,0.95 -0.95,1.35 l -1.6,0.45 -3.05,0.05 -3.75,-1.3 q -1.6,1.7 -4.35,1.5 -1.55,-0.1 -3.85,-0.95 L 9,41.2 9.9,41.85 q 0.95,0.45 1.7,1.05 1.05,0.9 1.4,1.9 0.25,0.75 0,1.35 l -0.65,0.75 q -0.7,0.75 -1.7,0.5 l -1,-0.45 -3.85,-2.5 -1,-0.95 q -0.65,-1 -0.4,-2.65 0.2,-1.3 0.75,-2.5 L 4.2,38.1 1.75,37.85 h -0.1 m 21.75,-8.3 6.25,-7.55 3.6,-4.7 q 0.75,-0.95 1.25,-1.05 0.7,-0.15 1.2,0.4 0.45,0.6 0.1,1.25 l -0.75,0.8 -1.5,1.45 -8.1,7.95 -1.6,1.45 -0.25,0.15 -0.2,-0.15 m 2.2,19.7 0.6,-0.1 0.8,0.45 6.45,4.4 3,1.95 0.85,0.55 0.55,0.9 q 0.05,0.45 -0.25,0.8 -0.3,0.35 -0.75,0.4 -0.4,0.05 -1.3,-0.5 l -8.3,-6.8 -0.6,-0.7 -1.05,-1.35 M 49.3,50.95 48,50.1 47.65,49.7 q -0.2,-0.3 0.05,-0.5 0.5,0.05 1.4,0.45 l 1.4,0.55 q 4.4,1.8 6.3,2.4 l 3.2,1 q 1.8,0.65 2.95,1.5 1,0.7 1,1.45 0,0.55 -0.5,0.9 l -1.1,0.3 q -0.55,-0.1 -1.3,-0.6 L 56.35,54.8 53,53.05 q -2.5,-1.3 -3.7,-2.1"
         fill="#000000"
         fill-rule="evenodd"
         stroke="none"
         id="path6" />
    </g>
    <g
       id="shape2"
       transform="translate(1.5,1.5)">
      <path
         d="M 0,23.8 V 0 H 64.1 V 23.8 57.55 H 0 Z"
         fill="none"
         stroke="#000000"
         stroke-linecap="round"
         stroke-linejoin="round"
         stroke-width="3"
         id="path7" />
    </g>
  </defs>
</svg>
