<?xml version="1.0" encoding="UTF-8" standalone="no"?>
<svg
   ffdec:objectType="frame"
   height="60.549999"
   width="67.099998"
   version="1.1"
   id="svg8"
   sodipodi:docname="615.svg"
   xmlns:inkscape="http://www.inkscape.org/namespaces/inkscape"
   xmlns:sodipodi="http://sodipodi.sourceforge.net/DTD/sodipodi-0.dtd"
   xmlns:xlink="http://www.w3.org/1999/xlink"
   xmlns="http://www.w3.org/2000/svg"
   xmlns:svg="http://www.w3.org/2000/svg"
   xmlns:ffdec="https://www.free-decompiler.com/flash">
  <sodipodi:namedview
     id="namedview8"
     pagecolor="#ffffff"
     bordercolor="#000000"
     borderopacity="0.25"
     inkscape:showpageshadow="2"
     inkscape:pageopacity="0.0"
     inkscape:pagecheckerboard="0"
     inkscape:deskcolor="#d1d1d1"
     fit-margin-top="5"
     fit-margin-left="5"
     fit-margin-right="5"
     fit-margin-bottom="5" />
  <g
     transform="translate(1.5,1.5)"
     id="g3">
    <use
       ffdec:characterId="516"
       height="57.549999"
       width="64.099998"
       xlink:href="#shape0"
       id="use1" />
    <use
       ffdec:characterId="1107"
       height="58.299999"
       transform="translate(-0.35,-0.2)"
       width="64.150002"
       xlink:href="#shape1"
       id="use2" />
    <use
       ffdec:characterId="518"
       height="60.549999"
       transform="translate(-1.5,-1.5)"
       width="67.099998"
       xlink:href="#shape2"
       id="use3" />
  </g>
  <defs
     id="defs8">
    <g
       id="shape0">
      <path
         d="M 53.6,0 H 64.1 V 57.55 H 53.6 28.25 0 V 0 H 28.25 53.6 V 57.55 0 M 28.25,0 V 57.55 0"
         fill="#ffffff"
         fill-rule="evenodd"
         stroke="none"
         id="path3" />
    </g>
    <g
       id="shape1"
       transform="translate(0.35,0.2)">
      <path
         d="m 48.15,13.5 0.25,-0.25 0.25,-0.6 0.3,-0.8 0.3,-0.7 0.05,-0.55 0.15,-0.3 q 0.5,-0.85 1.45,-0.85 1,0 1.35,0.95 0.25,0.95 -0.4,1.6 l -1.1,0.95 -0.6,0.55 -0.35,0.35 -0.2,0.15 -0.15,0.3 -0.3,0.25 L 48.9,15 q -0.25,0.35 -0.7,0.35 L 47.6,14.9 Q 47.5,14.65 47.85,14 l 0.1,-0.2 0.2,-0.3 M 44.1,15 43.7,13.8 43.6,13.25 43.5,11.5 43.2,8.5 43.05,7.45 q 0,-0.9 0.75,-1.4 l 1.65,-0.1 q 0.8,0.4 0.95,1.3 L 46.35,8.2 46.1,9.15 46,10.7 45.75,12.8 45.5,13.85 v 0.5 L 44.85,15.1 44.45,15.25 44.1,15 m -2.85,-1 v 0.65 l -0.15,0.45 -0.7,0.1 -0.5,-0.55 -0.95,-1.4 -1.05,-1.7 q -0.25,-0.55 -0.2,-1 0.05,-0.45 0.35,-0.8 0.35,-0.35 0.8,-0.45 1.05,-0.15 1.5,0.8 l 0.3,1.1 0.3,0.9 0.3,1.9 m -0.9,4.75 Q 43.95,17.8 46.6,18 l 3.55,0.75 2.95,-2.2 q 1,-0.75 1.6,-0.95 l 1.75,0.15 q 0.8,0.55 0.9,2.6 l 0.2,2.85 q 0.05,2.7 -0.3,5.45 0.85,5.75 -0.85,9.45 l -1,1.75 q -1.75,2.45 -3.65,3.4 l -1.3,0.45 2.85,0.1 q 2.65,0 6,-1.4 -0.65,-2.7 0.45,-4.75 0.6,-1.1 1.6,-1.8 1.1,-0.6 2.35,-0.75 h 0.1 v 10.2 l -2.85,1.4 -6.05,1.05 -2.75,0.2 q -2.4,-0.1 -4.5,-0.85 1.25,5.85 1.7,9.15 l 0.25,3.4 -0.05,0.45 h -18.8 q 3.1,-9.35 4.95,-11.85 l 0.8,-0.75 q -1.75,0.55 -3.6,1.6 -1.9,1.1 -2.85,2.65 L 29,51.2 v -0.05 l -0.2,0.9 -0.25,1 -0.4,1 q -0.7,1.45 -2.45,1.6 -1.75,0.05 -2.55,-1.45 -0.75,-1.05 -0.45,-2.5 0.25,-1 1.05,-2.4 1.6,-2.4 9.1,-6.55 L 35.6,41.8 q -2.35,-1.35 -3.7,-3.95 -1.5,-2.95 -1.35,-6.65 0,-3 1.25,-5.7 l -0.05,-1.7 q 0,-3.75 0.9,-5.8 0.25,-0.95 1,-1.45 0.95,-0.75 2.35,-0.2 0.8,0.2 2.1,1.35 l 1.55,1.4 0.7,-0.35 M 34,27.1 q -0.3,0.55 -0.3,1.15 0.05,0.85 0.65,1.6 0.6,0.75 1.5,0.9 0.8,0.15 1.65,-0.3 l 1.2,-1.2 Q 39,28.4 38.75,27.5 38.45,26.55 37.75,26.1 37,25.6 36.05,25.65 35.1,25.75 34.5,26.4 L 34,27.1 m 3.3,5.9 0.05,0.15 -0.05,0.1 q 0,0.7 0.25,1 l 0.8,0.45 q 1.6,0.65 2.7,0 l 0.75,-0.5 h 0.05 l 0.2,0.25 0.65,0.85 0.55,0.4 1.15,0.25 q 0.9,0 1.45,-0.35 1.1,-0.3 1.6,-1.65 l 0.05,-0.3 -0.3,-0.1 -1.2,0.5 -1.8,-0.35 -0.35,-0.65 -0.45,-0.7 -0.1,-0.05 q -0.25,-0.4 -0.7,-0.55 -0.45,-0.15 -1,0 -0.2,0.05 -0.25,0.15 h -0.1 l -0.8,0.65 q -0.6,0.45 -1.3,0.3 L 38.8,32.3 38.7,32.15 37.65,32.05 Q 37.3,32.35 37.3,33 m 14,-6.15 -0.75,-0.8 -0.85,-0.4 -0.8,-0.1 -0.05,0.05 q -1.05,0 -1.9,0.75 -0.7,0.7 -0.85,1.8 v 0.7 l 0.15,0.4 q 0.3,1.15 1.5,1.7 1.45,0.75 2.85,-0.25 l 0.6,-0.6 0.45,-0.8 q 0.3,-1.15 -0.1,-2 L 51.3,26.85"
         fill="#767676"
         fill-rule="evenodd"
         stroke="none"
         id="path4" />
      <path
         d="m 51.3,26.85 0.25,0.45 q 0.4,0.85 0.1,2 l -0.45,0.8 -0.6,0.6 q -1.4,1 -2.85,0.25 -1.2,-0.55 -1.5,-1.7 l -0.15,-0.4 v -0.7 q 0.15,-1.1 0.85,-1.8 0.85,-0.75 1.9,-0.75 l 0.05,-0.05 0.8,0.1 0.85,0.4 0.75,0.8 M 37.3,33 q 0,-0.65 0.35,-0.95 l 1.05,0.1 0.1,0.15 0.35,0.55 q 0.7,0.15 1.3,-0.3 l 0.8,-0.65 h 0.1 q 0.05,-0.1 0.25,-0.15 0.55,-0.15 1,0 0.45,0.15 0.7,0.55 l 0.1,0.05 0.45,0.7 0.35,0.65 1.8,0.35 1.2,-0.5 0.3,0.1 -0.05,0.3 q -0.5,1.35 -1.6,1.65 -0.55,0.35 -1.45,0.35 L 43.25,35.7 42.7,35.3 42.05,34.45 41.85,34.2 H 41.8 l -0.75,0.5 q -1.1,0.65 -2.7,0 l -0.8,-0.45 q -0.25,-0.3 -0.25,-1 L 37.35,33.15 37.3,33 M 34,27.1 34.5,26.4 q 0.6,-0.65 1.55,-0.75 0.95,-0.05 1.7,0.45 0.7,0.45 1,1.4 0.25,0.9 -0.05,1.75 l -1.2,1.2 q -0.85,0.45 -1.65,0.3 -0.9,-0.15 -1.5,-0.9 -0.6,-0.75 -0.65,-1.6 0,-0.6 0.3,-1.15"
         fill="#ffffff"
         fill-rule="evenodd"
         stroke="none"
         id="path5" />
      <path
         d="M -0.35,17.45 V 3.8 Q 3.5,2.9 6.5,3.1 8.95,3.25 11.05,4.05 l 3.75,-2.8 q 1.25,-1 2,-1.25 l 2.3,0.1 q 1.1,0.8 1.2,3.4 l 0.2,3.75 -0.35,6.9 q 1.05,7.4 -1.1,12.15 l -1.3,2.3 Q 15.5,31.7 13,32.9 l -1.7,0.55 3.8,0.1 q 3.35,0.05 7.7,-1.75 -0.9,-3.45 0.5,-6.1 0.8,-1.35 2.1,-2.25 1.4,-0.9 2.9,-0.95 1.6,-0.05 2.9,0.9 1.35,1 1.75,2.45 0.45,1.55 -0.25,3.7 -0.6,1.75 -1.6,3.35 -2.05,2.95 -6.3,4.4 -2.45,0.9 -7.65,1.4 l -3.55,0.2 q -3.15,-0.05 -5.85,-1.1 1.65,7.55 2.3,11.8 0.35,2.7 0.2,7.35 L 10.2,58.1 H -0.35 V 23.25 L -0.2,23.2 Q 0.85,23.15 1.75,22.45 2.65,21.75 3,20.75 L 3.15,18.9 2.75,18.8 2.25,18.75 1.1,18.35 -0.35,17.45 M 18.4,17.65 18.15,16.7 Q 17.45,15.35 16.2,15 l -0.2,0.1 -2.4,2 -1.4,1.05 -0.5,0.25 0.3,1.2 q 0.95,1.85 2.95,1.95 1.55,0.1 2.7,-1.15 1.05,-1.2 0.75,-2.75 M 7.35,22.1 7,22.85 Q 6.5,23 5.9,23.6 L 4.1,25.25 3.75,25.7 3.8,26.15 4.3,26.4 5.6,26.05 7,25.45 7.95,24.9 8.1,24.8 l 0.4,0.1 2.5,0.75 0.85,0.05 q 0.6,-0.25 0.4,-0.7 L 11.6,24.5 10.7,23.95 9.7,23 8.8,22.45 8.65,22.05 8.5,21.1 Q 8.5,20.5 8,20.5 7.45,20.35 7.35,21.1 v 1"
         fill="#000000"
         fill-rule="evenodd"
         stroke="none"
         id="path6" />
      <path
         d="m -0.35,23.25 v -5.8 l 1.45,0.9 1.15,0.4 0.5,0.05 0.4,0.1 L 3,20.75 q -0.35,1 -1.25,1.7 -0.9,0.7 -1.95,0.75 l -0.15,0.05 m 7.7,-1.15 v -1 q 0.1,-0.75 0.65,-0.6 0.5,0 0.5,0.6 l 0.15,0.95 0.15,0.4 0.9,0.55 1,0.95 0.9,0.55 0.65,0.5 q 0.2,0.45 -0.4,0.7 L 11,25.65 8.5,24.9 8.1,24.8 7.95,24.9 7,25.45 5.6,26.05 4.3,26.4 3.8,26.15 3.75,25.7 4.1,25.25 5.9,23.6 Q 6.5,23 7,22.85 L 7.35,22.1 M 18.4,17.65 q 0.3,1.55 -0.75,2.75 -1.15,1.25 -2.7,1.15 -2,-0.1 -2.95,-1.95 l -0.3,-1.2 0.5,-0.25 1.4,-1.05 2.4,-2 0.2,-0.1 q 1.25,0.35 1.95,1.7 l 0.25,0.95"
         fill="#ffffff"
         fill-rule="evenodd"
         stroke="none"
         id="path7" />
    </g>
    <g
       id="shape2"
       transform="translate(1.5,1.5)">
      <path
         d="M 0,23.8 V 0 H 64.1 V 23.8 57.55 H 0 Z"
         fill="none"
         stroke="#000000"
         stroke-linecap="round"
         stroke-linejoin="round"
         stroke-width="3"
         id="path8" />
    </g>
  </defs>
</svg>
