<?xml version="1.0" encoding="UTF-8" standalone="no"?>
<svg
   ffdec:objectType="frame"
   height="44.349998"
   width="78.599998"
   version="1.1"
   id="svg10"
   sodipodi:docname="309.svg"
   xmlns:inkscape="http://www.inkscape.org/namespaces/inkscape"
   xmlns:sodipodi="http://sodipodi.sourceforge.net/DTD/sodipodi-0.dtd"
   xmlns:xlink="http://www.w3.org/1999/xlink"
   xmlns="http://www.w3.org/2000/svg"
   xmlns:svg="http://www.w3.org/2000/svg"
   xmlns:ffdec="https://www.free-decompiler.com/flash">
  <sodipodi:namedview
     id="namedview10"
     pagecolor="#ffffff"
     bordercolor="#000000"
     borderopacity="0.25"
     inkscape:showpageshadow="2"
     inkscape:pageopacity="0.0"
     inkscape:pagecheckerboard="0"
     inkscape:deskcolor="#d1d1d1"
     fit-margin-top="5"
     fit-margin-left="5"
     fit-margin-right="5"
     fit-margin-bottom="5" />
  <g
     transform="translate(2,2.05)"
     id="g3">
    <use
       ffdec:characterId="1"
       height="42.700001"
       transform="translate(-1.75,-2)"
       width="76.449997"
       xlink:href="#shape0"
       id="use1" />
    <use
       ffdec:characterId="302"
       height="42.650002"
       transform="translate(-1.15,-1.15)"
       width="76.300003"
       xlink:href="#shape1"
       id="use2" />
    <use
       ffdec:characterId="3"
       height="44.349998"
       transform="translate(-2,-2.05)"
       width="78.599998"
       xlink:href="#shape2"
       id="use3" />
  </g>
  <defs
     id="defs10">
    <g
       id="shape0"
       transform="translate(1.75,2)">
      <path
         d="M 2.8,0 V -0.4 H 5.4 V 0 H 9.7 V 19.45 0 H 20.55 L 19.3,19.45 H 9.7 0.25 V 0 H 2.8"
         fill="#ffffff"
         fill-rule="evenodd"
         stroke="none"
         id="path3" />
      <path
         d="M 0.25,19.45 H 9.7 19.3 L 18.7,28.6 16,28.5 10.95,27.95 9.7,27.8 Q 7.45,27.6 5.85,27.75 4.05,27.9 1.5,28.6 0.75,28.8 0.25,29.15 v -9.7 m 9.45,0 v 8.35 -8.35"
         fill="#121212"
         fill-rule="evenodd"
         stroke="none"
         id="path4" />
      <path
         d="m 9.7,27.8 1.25,0.15 5.05,0.55 2.7,0.1 h 1.05 l 3.75,0.15 q 2.45,0.3 3.6,1.25 0.6,0.5 0.6,1.1 0,0.65 -0.8,1 l -1.3,0.2 -7.15,0.15 -5.6,-0.3 L 9.7,31.75 7.95,31.6 3.1,31.95 0.95,32.3 0.25,32.1 -0.35,31.55 -0.5,31.3 V 29.9 L 0.25,29.15 Q 0.75,28.8 1.5,28.6 4.05,27.9 5.85,27.75 7.45,27.6 9.7,27.8 v 3.95 -3.95"
         fill="#999999"
         fill-rule="evenodd"
         stroke="none"
         id="path5" />
      <path
         d="M 2.8,0 H 0.25 M 9.7,0 H 5.4 m 16.15,0 h 10.7 M 20.55,0 H 9.7"
         fill="none"
         stroke="#666666"
         stroke-linecap="round"
         stroke-linejoin="round"
         stroke-width="4"
         id="path6" />
      <path
         d="m 9.7,-0.4 h 65 V 40.5 H 47.05 L 45.5,40.7 27,40.65 25.95,40.5 H 9.7 -0.5 V -0.4 H 9.7 V 40.5 -0.4"
         fill="#ffffff"
         fill-rule="evenodd"
         stroke="none"
         id="path7" />
    </g>
    <g
       id="shape1"
       transform="translate(1.15,1.15)">
      <path
         d="M -0.1,4.05 0.1,2.3 V 1.45 q 0.1,-0.8 0.75,-1.3 0.65,-0.5 1.45,-0.4 l 0.8,0.2 0.6,-0.4 0.75,0.1 q 0.65,0.3 0.85,1.2 L 5.35,2.35 5.25,4.3 5.3,5 5.1,5.65 Q 4.7,6.75 4.2,7.25 3.05,8.45 1.45,8.05 0.05,7.7 -0.2,6.55 l -0.1,-1.5 0.05,-0.5 0.15,-0.5 M 54,-0.9 q 0.75,-0.2 1.5,0.3 0.7,0.45 0.95,1.2 0.2,0.75 -0.1,1.55 l -0.9,1.25 q -1,0.85 -3.3,0.95 L 48.35,4.4 H 44.5 L 41.95,4.35 q -1.5,-0.15 -2.35,-0.9 -1.35,-1 -1.1,-2.65 0.1,-0.75 0.65,-1.3 0.55,-0.6 1.3,-0.65 L 41.9,-0.8 43.3,-0.15 46.5,0.3 49.75,0 51.4,-0.1 52.95,-0.5 54,-0.9 M 66,3.75 66.3,3.6 Q 66.75,3.3 67.55,3.1 L 68.2,3 q 0.85,0.1 1.35,0.75 0.5,0.65 0.35,1.5 Q 69.65,6.6 68.35,6.9 L 67.8,7.05 67.55,7.35 Q 66.8,8.35 65.6,8.1 L 63.55,7.25 Q 62.45,6.6 62.2,5.8 62,5.3 62.2,4.5 62.45,3.75 63.05,3.3 L 64.5,3.15 q 0.25,0.1 0.7,0.45 L 66,3.75 m 0.25,17.05 q -0.8,0.9 -1.65,1.15 l -1.2,0.25 q -1.15,0.2 -1.95,0 -1,-0.15 -1.65,-0.95 -0.45,-0.6 -0.55,-1.55 l 0.2,-1.65 0.25,-1.15 q 0.5,-2 1,-2.75 0.95,-1.45 2.35,-1.65 h 1.25 l 1.65,0.1 q 1.1,0.35 1.5,1.35 l 0.3,1.35 0.15,2.3 -0.25,1.65 q -0.2,0.9 -0.6,1.05 l -0.5,0.2 -0.3,0.3 m 3.2,7 q -0.1,0.8 -0.55,1.25 l -0.4,0.35 -0.5,0.35 0.35,0.25 0.6,0.1 0.7,0.3 q 0.5,0.5 0.4,1.25 -0.05,0.6 -0.7,1.15 l -1.05,0.45 -2,0.65 q -1.3,0.35 -3.2,0 l -0.95,-0.25 q -0.7,-0.4 -0.6,-1.1 H 61.5 q -0.35,0.3 -0.8,0.25 l -0.8,-0.35 -0.5,-0.8 -0.75,-1.6 q -0.4,-0.8 -0.35,-1.3 0,-0.4 0.3,-0.75 0.35,-0.3 0.75,-0.3 l 0.7,0.15 1.75,0.6 0.7,0.5 0.3,-0.5 L 63.25,27.9 63.2,27 62.15,26.75 60.5,26.55 Q 60.1,26.35 59.95,25.8 59.8,25.3 60,24.85 l 0.55,-0.7 0.8,-0.75 q 0.7,-0.5 1.5,-0.75 l 1.8,-0.2 2.05,0.15 q 1.35,0.2 2.7,1.3 l 0.6,0.75 0.05,0.9 -0.7,0.8 q 0.25,0.75 0.1,1.45 m -1.7,-0.15 0.15,-0.45 q 0,-0.6 -0.6,-1.5 l -0.2,-0.35 0.1,-0.45 -0.45,-0.2 -1.65,-0.15 0.05,0.2 -0.4,0.65 q -0.25,0.4 -0.25,1.05 l 0.1,0.75 0.6,0.5 0.65,0.4 0.35,0.15 0.55,-0.05 0.7,-0.3 0.3,-0.25 m -25.7,3.75 q -2.2,0.35 -3.7,-0.45 -2.1,-1.2 -2.35,-4 -0.2,-1.9 0.65,-4.75 0.85,-2.9 1.75,-4.5 0.75,-1.4 2.75,-3.8 l 2.4,-2.65 q 1.5,-1.5 2.45,-2.05 2.2,-1.25 5.35,-0.65 1.25,0.3 1.8,0.8 1,0.9 1.2,3.05 0.35,4.25 -1.2,8.35 -1.5,4.1 -4.55,7.1 -1.85,1.85 -3.7,2.7 l -2.85,0.85 m 6.5,-18.65 q -0.4,0.2 -0.5,0.35 v 0.7 q 0.05,0.8 -0.4,2.05 -1.2,3.25 -2.85,5.25 -2.1,2.6 -4.9,3.45 v 0.1 q 0.4,0.95 1.9,1.05 1.65,0.05 3.25,-1.1 1.2,-0.8 2.45,-2.55 1.5,-2.2 2.1,-4.15 l 0.5,-2.4 Q 50.4,14.05 50,13.3 l -0.55,-0.65 -0.9,0.1 M 48.2,34.2 49.4,33.65 50.05,33 q 0.5,-0.45 1.35,-0.45 1.75,-0.2 2.8,0.85 0.6,0.55 0.8,1.3 0.2,0.8 -0.15,1.45 l -0.7,0.9 q -1.45,1.35 -4.85,2.5 l -2.25,0.6 -2.1,-0.2 q -1.15,-0.45 -1.3,-1.55 -0.2,-1 0.7,-2 0.55,-0.6 1.75,-1.25 l 2.1,-0.95 m 22.3,-6.15 q 0.15,-0.5 0.45,-0.85 0.25,-0.45 0.55,-0.4 l 0.4,0.4 -0.1,0.65 -0.25,1.2 0.05,0.5 q 0,0.75 -0.8,0.85 -0.55,0 -0.8,-0.45 -0.2,-0.35 -0.05,-0.9 l 0.3,-0.45 0.25,-0.55 m -8.3,1.8 0.1,-0.2 -0.5,0.15 0.3,0.35 0.1,-0.3 M 33.75,8.15 29.85,7.55 28.75,7.25 27.65,6.7 26,5.35 Q 25.2,4.45 25.2,3.4 25.35,1.75 27.1,1.05 L 30.25,0.9 q 3.55,0.55 6.3,2.55 L 37.4,4.3 Q 38,5.15 37.75,6.05 37.6,6.9 36.8,7.5 35.8,8.25 33.75,8.15 M 10.8,4.3 Q 10.55,4.9 10.6,5.05 L 14.45,4.9 15.7,4.2 17,3 18.8,0.8 q 0.7,-0.85 1.4,-1 l 1.05,0.25 0.6,0.9 Q 22,1.65 21.3,2.8 19.7,5.25 16.9,7.3 14.75,8.9 11.45,10.45 9.6,11.4 8.5,11.05 7.55,10.8 7.15,9.95 L 6.9,9.55 Q 6.5,8.7 6.65,7.55 L 7.1,6.05 q 0.85,-2.2 1.55,-3 L 9.7,2.2 10.7,1.15 11.35,0.7 12,0.15 l 1.05,-0.1 1,0.15 0.75,0.15 0.5,0.5 Q 15.55,1.4 14.85,1.8 l -0.4,0.15 -0.6,0.5 L 11.95,3.3 11.3,3.5 10.85,3.85 10.8,4.3 m 9.5,18.1 q 0.6,0.1 0.8,0.3 l 0.25,0.55 0.05,0.05 -0.05,-0.25 0.15,-2.15 q -0.45,-0.15 -1.2,0.3 l -1.25,0.45 Q 18.6,21.6 18.3,21.2 q -0.35,-0.4 -0.35,-0.9 -0.05,-0.7 0.6,-1.75 0.85,-1.4 1.7,-1.85 l 1.75,-0.55 1.7,-0.25 2.9,0.8 1.05,0.5 q 1.1,0.65 1.35,2.2 0.2,1 -0.3,2.6 0.4,0.2 0.5,0.7 l -0.05,0.9 -1.25,1.35 -2.85,1.6 -1.35,0.35 Q 22.85,27 22.35,26.5 l -0.1,-0.1 -0.55,0.85 Q 20.8,27.8 19.8,26.8 l -1.35,-1.6 -1,-1.1 q -0.15,-0.8 0.9,-1.3 0.95,-0.5 1.95,-0.4 m 4.55,0.45 q 0.65,0.2 1.75,-0.5 l 0.65,-0.6 q 0.2,-0.4 0,-0.95 l -0.35,-0.9 -0.35,-0.65 -0.4,-0.2 -0.9,-0.35 q 0.1,0.95 -0.8,1.5 l -0.3,0.25 Q 24,20.6 24,20.9 l 0.1,1.1 q 0.3,0.65 0.75,0.85 m -9.9,-4.8 q 0.15,0.8 -0.55,2.3 l -0.85,1.65 -0.8,1.05 -1.8,1.85 Q 10.1,25.6 9.1,25.8 8.05,26.05 7.1,25.5 6.1,25 6,23.85 5.95,23.3 6.2,22.6 6.85,20.8 9,18.65 l 1.55,-1.4 q 0.85,-0.6 1.65,-0.8 l 1.75,0.2 q 0.85,0.4 1,1.4 M -0.4,13.3 Q 0,12.4 1.1,12.25 L 2.95,12.5 Q 3.6,12.65 4.15,13.05 5,13.75 5.5,15 l 0.45,1.45 q 0.15,1.2 -1,3.6 l -0.85,1.6 q -1.3,2.45 -2.6,4 L 0.55,26.4 -0.05,26.35 -0.45,25.9 -0.35,25.3 0,24.45 0.05,24.1 -0.1,23.9 Q -1.15,22.95 -0.75,21 -0.15,19 -0.05,17.95 0.1,17 -0.25,15.85 -0.7,13.95 -0.4,13.3 M 1.4,39.5 Q 0.7,38.7 1.05,37.55 1.2,36.85 2,35.75 L 2.55,34.9 q 1.45,-2 2.4,-2.6 1.5,-1 4,-0.9 1.95,0 2.95,0.5 1.05,0.5 1.95,1.55 2.2,2.25 3.1,5.4 L 17,39.5 q -0.2,0.65 -0.85,0.45 l -0.5,-0.4 -0.6,0.55 -1.25,0.15 -1.3,-0.3 L 11.2,39.9 5.85,40.1 4.45,40 Q 4,39.95 3.6,39.6 3.2,39.95 2.6,39.95 1.85,40 1.4,39.5 M 9.55,35.15 7.8,35.2 7.05,35.6 7.2,35.55 l 0.95,0.1 q 0.5,0.15 0.6,0.7 V 36.6 L 11.1,36.5 Q 10.2,35.4 9.55,35.15 M 28.95,38 q -1.1,0.85 -2.2,1.2 l -2.5,-0.15 -1.1,-0.9 -0.45,-0.95 q -0.2,-1.1 0.75,-2.3 l 1.75,-1.8 1.2,-1.2 1,-0.6 0.95,-0.65 1.15,-0.55 2.4,-0.25 q 0.7,0.2 1.1,0.9 0.45,0.7 0.35,1.45 l -0.4,1.2 -1.3,2.15 -1.45,1.5 -1.25,0.95"
         fill="#999999"
         fill-rule="evenodd"
         stroke="none"
         id="path8" />
      <path
         d="M 8.3,10.65 9.45,10.6 Q 13.9,9.65 18.1,5.8 20.75,3.3 21.55,1.1 l 0.6,-1.4 q 0.6,-0.75 1.3,-0.45 0.6,0.25 0.6,0.95 L 23.8,1.4 q -1.45,3.65 -4.75,6.55 -2.8,2.5 -7,4.2 -3.15,1.3 -5,0.65 Q 5.95,12.45 5.15,11.6 4.35,10.75 4.05,9.65 3.4,7.45 4.55,5.2 5.05,4.25 6.7,2.4 l 3,-2.75 q 0.3,-0.25 0.65,-0.3 0.4,-0.1 0.6,0.25 Q 11.2,0 10.45,0.65 6.95,3.6 6.15,6.9 5.8,8.3 6.3,9.15 l 1.05,1 0.95,0.5 m 54.2,8.7 q 3.6,-0.85 6.15,0 l -0.05,-0.1 -0.35,-3.2 -0.15,-2.65 0.05,-0.75 q 0.1,-0.55 0.65,-0.9 0.5,-0.3 1.05,-0.25 0.5,0.1 0.9,0.55 l 0.05,0.05 q 1.05,-0.7 2.05,-1.45 L 73.15,10.3 74,10.05 74.1,10 q 0.7,0.1 0.95,0.65 0.25,0.65 -0.15,1.15 l -0.4,0.35 -3.3,2.05 -0.05,0.05 -0.05,1.5 -0.1,1.95 -0.1,1.25 0.1,0.8 -0.1,0.8 v 0.1 q 1.45,1.2 2.15,3.15 0.8,2.25 0.55,4.8 -0.15,1.95 -0.85,3.3 l -1.2,1.75 q -1.5,1.6 -3.65,2.4 -2.15,0.8 -4.3,0.55 l -1.95,-0.4 -1.15,-0.35 0.05,0.3 -0.1,0.45 0.1,0.65 0.1,0.8 -0.1,0.65 -0.1,0.6 q -0.2,0.2 -0.4,0.2 -0.25,0 -0.35,-0.25 l -0.2,-0.5 -0.1,-0.4 -0.15,-0.25 -0.1,-0.95 -2.7,0.1 v 0.25 1.4 l -0.05,1.05 q -0.35,0.75 -1.15,0.55 l -0.55,-0.45 -0.1,-0.65 0.2,-0.55 0.05,-1 0.1,-0.8 -0.4,-0.3 -0.55,-0.6 -0.7,-0.6 -0.8,-1 -0.15,-0.15 -1,0.4 -1.2,-0.25 -0.8,-0.95 Q 49.1,32.95 49.3,32.35 l 0.35,-0.65 q 0.5,-0.65 1.4,-0.9 l 0.85,-0.15 1.8,-0.8 1.9,-0.55 q -0.15,-1.3 0.15,-2.75 0.25,-1.1 0.65,-2 0.75,-1.4 3.1,-3.55 l 1.4,-1.05 q 0.5,-0.3 1.6,-0.6 m 6.9,-16.9 0.65,0.3 q 0.65,0.5 0.75,1.8 l -0.05,0.75 -0.35,0.9 -0.8,1.1 -1.35,0.95 -0.7,0.3 -0.9,0.8 -0.35,0.3 Q 66.1,9.9 65.75,9.95 64.95,10.05 64.7,9.4 L 64.45,9 64.05,8.85 63.75,8.6 63.25,8.3 Q 62.4,8 61.8,7.4 60.9,6.65 60.7,5.85 60.55,5.1 60.85,4.4 l 0.8,-1.3 q 0.8,-0.8 1.35,-1 l 1.3,-0.2 q 0.95,0.1 1.4,0.5 l 0.35,0.35 0.45,-0.45 1.7,-0.25 0.75,0.1 0.45,0.3 m -2.5,4.7 0.8,-0.4 0.85,-0.6 0.4,-0.5 L 69.2,4.75 69.1,4.2 68.85,3.95 Q 68.35,3.65 68.05,3.6 L 67.3,3.65 66.95,3.85 66.8,4.2 66.75,4.4 V 4.45 L 66.25,5 Q 65.75,5.15 65.4,4.75 L 65.25,4.3 64.9,3.9 64.7,3.6 64.35,3.55 63.4,3.75 63,4.15 62.6,4.7 l -0.15,0.5 0.3,0.55 0.5,0.35 1,0.4 1.25,0.85 0.45,0.4 0.1,0.1 0.85,-0.7 M 68.85,22.7 Q 68.1,22.25 67.3,22.1 L 63.75,21.7 62.2,22 61.3,22.55 q -1.7,1.4 -2.25,2.95 l 0.25,0.05 0.6,0.2 1.2,0.2 q 0.5,0.1 1.5,0.55 l 0.55,0.25 0.4,0.45 -0.1,0.55 -1.55,4.65 -0.2,0.5 0.75,0.35 q 2.15,0.75 4.3,0.05 1.95,-0.6 3.15,-2.2 l -0.2,-0.15 -0.4,-0.3 -0.65,-0.3 -0.4,-0.35 -0.2,-0.3 0.05,-0.5 0.75,-1.9 0.35,-0.75 0.05,-0.25 0.15,-0.25 0.85,-1.7 H 70.3 Q 69.75,23.3 68.85,22.7 m -2,1.2 q 0.55,0.2 0.85,0.5 0.35,0.4 0.35,1.05 0.1,1.1 -0.6,1.7 -0.75,0.75 -1.7,0.5 L 64.85,27.1 64.4,26.45 V 25.6 q 0.2,-1.1 0.7,-1.5 0.65,-0.55 1.75,-0.2 M 57.7,3.7 Q 58.05,3.35 58.55,3.35 59,3.25 59.3,3.75 l 0.05,0.65 0.3,0.15 q 0.5,0.25 0.5,0.9 0,0.6 -0.55,0.85 l -0.35,0.15 -0.4,0.9 -1.1,-0.05 Q 57.45,7.05 57.4,6.4 L 57.25,6.35 Q 56.55,6.25 56.3,5.85 L 56.2,5.2 56.45,4.55 57.3,4.3 h 0.1 L 57.7,3.7 M 19.85,29.05 17.7,28.3 q -1.95,-0.95 -3,-3.15 -0.95,-2 -0.8,-4.3 Q 14,19 14.75,17.2 15.3,15.95 16.1,15 q 2.15,-2.55 5.6,-2.95 3.25,-0.4 6.15,1.4 L 28.15,12.2 29.8,7.25 30.1,6.7 q 0.55,-0.8 1.65,-0.55 1,0.35 1,1.4 l -0.1,0.75 0.15,0.05 0.95,0.6 0.9,0.35 0.55,0.3 0.4,-0.2 2.05,-0.8 1.65,-0.05 0.4,0.7 0.15,0.55 1.05,-1.05 q 1.45,-1.25 4.55,-2.6 3.1,-1.35 5.45,-1.3 2.3,0.05 3.15,0.7 0.8,0.65 1.7,2.4 0.55,1.15 0.85,3.2 0.75,6.85 -2.5,12.95 -3.3,6 -9.55,9.05 -2.85,1.4 -5.3,1.45 -3.1,0.1 -5.05,-1.85 -1.1,-1.05 -1.65,-2.7 l -1.65,0.5 q -1.8,0.45 -2.65,0.8 -0.15,1.15 -1.3,1.4 -0.85,0.15 -1.8,-0.7 l -1.05,-1.4 -0.75,-1.1 -0.05,-0.1 -3.45,-0.4 M 50.3,7.4 q -1.9,-0.3 -4.8,1.55 -2.9,1.8 -4.85,3.95 -1.2,1.45 -1.9,2.6 -1.95,3.3 -2.7,6.5 -0.6,2.7 -0.45,5.45 0.1,1.55 0.6,2.35 0.85,1.3 2.8,1.5 1.2,0.05 3.2,-0.7 4.4,-1.75 7.5,-5.6 3.1,-3.85 3.85,-8.55 l 0.25,-2.5 Q 53.9,11.55 53.4,10 L 52.6,8.3 Q 52.15,7.7 50.3,7.4 m -10.95,15.5 0.1,-0.25 0.3,0.05 0.1,0.25 -0.1,0.6 q 0.8,0.2 1.9,-0.6 2.25,-1.55 3.75,-3.85 1.55,-2.35 2.05,-5.05 v -0.3 l -0.2,-0.3 -0.3,-0.25 q -0.2,-0.3 -0.05,-0.65 l 0.5,-0.5 q 0.45,-0.2 1,0 0.55,0.25 0.8,0.7 0.45,0.65 0.35,2.05 -0.2,3 -2.15,5.65 -1.7,2.35 -4.55,4.05 l -1.45,0.55 -1.15,-0.1 Q 39.9,24.9 39.6,24.65 39.05,24.2 39.35,22.9 m 19.35,4.75 v 0.75 l 0.25,0.9 q 0.7,1.6 1.8,2.8 l 0.35,0.35 V 32.4 l 0.7,-3.75 0.3,-0.75 -1.05,-0.4 -2.15,-0.5 -0.1,-0.05 -0.1,0.7 m 0.1,7.3 -1.4,-1.55 -0.85,-1.25 -1.2,0.25 q -0.6,0.15 -1.6,0.85 l -0.05,0.1 1.85,1.75 0.3,0.35 3.45,-0.1 h 0.05 l -0.55,-0.4 m 11.95,-5.45 0.2,-1.3 q 0.1,-1.65 -0.25,-2.75 l -0.15,0.6 -0.6,1.7 Q 69.8,27.85 69.8,28 l -0.4,1 1.3,0.7 0.05,-0.2 M 29.75,15 q 1.3,1.65 1.45,4.15 0.25,3.2 -1.05,5.45 l -1.45,1.9 -2.35,2.05 0.9,1 0.35,0.2 0.7,-0.1 3.85,-1.8 v -2.5 q 0.45,-5.5 3.3,-10 l -0.85,-0.6 -0.1,-1 -0.05,-2.1 v -0.4 L 33.4,10.75 32.1,9.7 32,9.65 q -1.3,2.5 -2.25,5.1 l -0.05,0.2 0.05,0.05 m 6.8,-1.3 2.35,-2.8 -0.15,-0.3 -0.3,-0.3 -0.4,0.05 -1.65,0.7 -0.15,0.1 -0.05,0.45 -0.05,2.05 0.1,0.3 0.1,0.1 0.2,-0.35 m -13,12.9 1.95,-0.55 1.45,-0.9 0.65,-0.9 Q 28.55,22.5 28.55,20.9 L 28,18.3 l -0.55,-1.15 -0.9,-0.8 q -1.75,-1.1 -3.7,-1.1 -2.15,0.1 -3.55,1.4 -1.6,1.45 -1.95,4.1 l -0.05,0.65 1.6,-0.45 1.75,-0.35 h 0.5 q 0.35,0.1 0.4,0.3 v 0.65 l 0.05,0.6 0.85,3.9 0.05,0.55 h 1.05 m 2.65,-7.7 q 0.65,0.55 0.75,1.1 L 27,20.75 Q 26.8,22 25.95,22.3 L 24.9,22.2 24,21.5 23.85,20.7 q 0,-0.9 0.3,-1.4 0.5,-0.75 1.2,-0.7 0.35,0 0.85,0.3 M 10.95,3.05 11.2,3.25 h 0.3 L 12.6,2.8 15,0.9 16,-0.05 q 0.55,-0.15 1,0.35 0.4,0.55 -0.05,1 l -0.25,0.25 -0.3,0.4 q -0.65,0.95 -2.3,2 l -1.15,0.65 -1,0.2 h -0.9 l -0.7,-0.5 -0.1,-0.7 0.2,-0.45 0.5,-0.1 m 6.8,20.25 0.8,1.35 1.25,0.9 1.9,0.85 v -0.05 l -1.05,-4.6 -2.55,0.65 -0.5,0.2 -0.05,0.1 0.2,0.6 m -16.4,11.95 -0.6,1 q -0.45,0.55 -1,0.45 -0.8,-0.1 -0.9,-1 l 0.25,-1.4 q 1.45,-3.6 4.8,-5.55 1,-0.5 1.8,-0.75 l 4.6,-0.15 q 2.3,0.5 4.2,2 3.5,2.8 4.6,7.95 0.4,1.85 0,3.05 l -0.35,0.5 q -0.4,0.15 -0.7,-0.25 l -0.3,-0.7 q -0.6,-3.1 -1.6,-5 Q 14.8,32.8 12.7,31.55 L 11.25,30.85 9.4,30.4 q -2.45,-0.35 -4.8,1.15 -2,1.3 -3.25,3.7 m 4.4,2.25 -0.1,0.25 H 5.15 L 5.3,37 q 0.45,-1.5 1.85,-2 l 1.2,-0.25 1.1,0.1 0.65,0.35 q 0.95,0.55 1.35,1.1 l 1,1.5 0.3,1.3 -0.05,1.35 q -0.25,0.8 -0.9,1 -0.9,0.2 -1.3,-0.55 -0.15,-0.35 -0.15,-1.05 l -0.1,-1.05 -0.4,-0.75 -0.6,-0.6 Q 8.75,37 8.05,36.85 L 6.7,37.05 5.75,37.5"
         fill="#000000"
         fill-rule="evenodd"
         stroke="none"
         id="path9" />
    </g>
    <g
       id="shape2"
       transform="translate(2,2.05)">
      <path
         d="M -0.5,-0.4 V -0.55 H 75.1 V -0.4 40.8 H -0.5 Z"
         fill="none"
         stroke="#000000"
         stroke-linecap="round"
         stroke-linejoin="round"
         stroke-width="3"
         id="path10" />
    </g>
  </defs>
</svg>
