<?xml version="1.0" encoding="UTF-8" standalone="no"?>
<svg
   ffdec:objectType="frame"
   height="60.549999"
   width="67.099998"
   version="1.1"
   id="svg6"
   sodipodi:docname="184.svg"
   xmlns:inkscape="http://www.inkscape.org/namespaces/inkscape"
   xmlns:sodipodi="http://sodipodi.sourceforge.net/DTD/sodipodi-0.dtd"
   xmlns:xlink="http://www.w3.org/1999/xlink"
   xmlns="http://www.w3.org/2000/svg"
   xmlns:svg="http://www.w3.org/2000/svg"
   xmlns:ffdec="https://www.free-decompiler.com/flash">
  <sodipodi:namedview
     id="namedview6"
     pagecolor="#ffffff"
     bordercolor="#000000"
     borderopacity="0.25"
     inkscape:showpageshadow="2"
     inkscape:pageopacity="0.0"
     inkscape:pagecheckerboard="0"
     inkscape:deskcolor="#d1d1d1"
     fit-margin-top="5"
     fit-margin-left="5"
     fit-margin-right="5"
     fit-margin-bottom="5" />
  <g
     transform="translate(1.5,1.5)"
     id="g3">
    <use
       ffdec:characterId="516"
       height="57.549999"
       width="64.099998"
       xlink:href="#shape0"
       id="use1" />
    <use
       ffdec:characterId="692"
       height="53"
       transform="translate(3.2,2.3)"
       width="57.400002"
       xlink:href="#shape1"
       id="use2" />
    <use
       ffdec:characterId="518"
       height="60.549999"
       transform="translate(-1.5,-1.5)"
       width="67.099998"
       xlink:href="#shape2"
       id="use3" />
  </g>
  <defs
     id="defs6">
    <g
       id="shape0">
      <path
         d="M 53.6,0 H 64.1 V 57.55 H 53.6 28.25 0 V 0 H 28.25 53.6 V 57.55 0 M 28.25,0 V 57.55 0"
         fill="#ffffff"
         fill-rule="evenodd"
         stroke="none"
         id="path3" />
    </g>
    <g
       id="shape1"
       transform="translate(-3.2,-2.3)">
      <path
         d="m 59.1,18.85 q 1.1,0.4 1.3,0.9 0.45,0.7 -0.15,1.7 l -1.45,1.1 q -0.55,0.35 -1.4,1 v 0.1 l 0.25,1 0.05,0.3 q 1,3.4 0.85,7.15 -0.2,3.9 -1.65,7.5 -1.2,2.85 -3.2,5.7 -4.05,5.6 -8.6,8 -4,2.05 -8.6,2 -4.7,-0.15 -8.6,-2.4 L 26.45,51.8 24.8,50.6 q -1.45,-1.2 -1.65,-2.15 -0.15,-1 0.35,-1.25 0.35,-0.2 1.05,0 l 2.9,1.2 q 0.55,0.1 1.45,0.7 1.2,0.5 2.15,0.65 2.3,0.4 5.85,-0.55 2.95,-0.75 4.25,-1.55 1.6,-0.9 2.75,-2.3 1.5,-1.6 2.35,-3.45 0.65,-2.7 -0.2,-5.55 L 45.5,34.8 45.15,34.1 44.65,33 43.7,33.7 v -0.05 l -1.85,1.3 q -0.8,0.6 -1.35,0.55 -0.9,-0.05 -1.25,-1.05 l -0.1,-1.75 1.3,-17.6 0.35,-1.65 q 0.35,-0.95 1.1,-1.15 l 1.6,0.05 q 3.15,0.9 7.85,3.05 l 7.75,3.45 M 4.7,38.75 Q 3.6,38.35 3.4,37.85 2.95,37.15 3.55,36.15 4.1,35.55 5,35.05 l 1.4,-1 v -0.1 l -0.3,-1.3 q -1,-3.4 -0.85,-7.15 0.2,-3.9 1.65,-7.5 1.2,-2.85 3.2,-5.7 4.05,-5.6 8.6,-8 4,-2.05 8.6,-2 4.7,0.15 8.6,2.4 L 37.35,5.8 39,7 q 1.45,1.2 1.65,2.15 0.15,1 -0.35,1.25 -0.35,0.2 -1.05,0 L 36.35,9.2 Q 35.8,9.1 34.9,8.5 L 32.75,7.85 q -2.3,-0.4 -5.85,0.55 -2.95,0.75 -4.25,1.55 -1.6,0.9 -2.75,2.3 -1.5,1.6 -2.35,3.45 -0.65,2.7 0.2,5.55 l 0.55,1.55 0.35,0.7 0.5,1.1 0.95,-0.7 v 0.05 l 1.85,-1.3 q 0.8,-0.6 1.35,-0.55 0.9,0.05 1.25,1.05 l 0.1,1.75 -1.3,17.6 L 23,44.15 Q 22.65,45.1 21.9,45.3 L 20.3,45.25 Q 17.15,44.35 12.45,42.2 6.3,39.4 4.7,38.75"
         fill="#999999"
         fill-rule="evenodd"
         stroke="none"
         id="path4" />
      <path
         d="m 43.15,21.6 -3.35,3.35 -5.5,5.4 -3.55,3.45 -4.5,4.55 -0.1,0.9 -0.05,1.75 0.2,2.8 -0.15,1.65 Q 25.6,46.7 24.3,46.85 L 24,46.9 q 0.05,1.4 -1,2.6 -0.55,0.55 -1.2,0.7 -0.7,0.05 -1.3,-0.5 l -0.2,-0.1 -0.2,0.85 -0.7,1.1 -1.7,-0.05 q -0.65,-0.35 -0.85,-1.2 -0.15,-0.55 0,-1.3 l 0.8,-3.45 0.3,-0.95 0.1,-0.55 h -0.2 -0.1 L 17.7,43.9 17.5,43.85 17.2,43.5 17.1,43.35 16.95,43.25 16.9,43.1 16.85,42.9 16.4,43 15.45,43.25 11.85,44.05 10.7,44 Q 9.8,43.8 9.4,43 8.95,42.25 9.5,41.45 9.95,40.9 10.55,40.75 l 0.8,-0.3 -0.05,-0.05 q -0.55,-0.7 -0.5,-1.3 0.15,-0.6 0.75,-1.15 1.15,-1.15 2.65,-1.05 l 0.05,-0.25 q 0.25,-1.4 1.4,-1.85 l 1.7,-0.15 2.75,0.2 h 1.75 0.9 l 4.6,-4.55 3.5,-3.4 5.55,-5.5 3.3,-3.1 0.6,-0.5 -3.05,-1.4 Q 36.5,16.25 36,15.6 35.4,14.95 35.75,14.35 L 36,14.1 36.1,13.8 q 0.5,-0.65 1.75,-0.95 L 52.45,9.05 48.5,23.6 q -0.3,1.35 -1,1.75 -0.25,0.15 -0.4,0.25 l -0.2,0.15 Q 46.4,26.1 45.7,25.45 45.1,25 44.85,24.2 L 43.5,21.05 43.15,21.6"
         fill="#000000"
         fill-rule="evenodd"
         stroke="none"
         id="path5" />
    </g>
    <g
       id="shape2"
       transform="translate(1.5,1.5)">
      <path
         d="M 0,23.8 V 0 H 64.1 V 23.8 57.55 H 0 Z"
         fill="none"
         stroke="#000000"
         stroke-linecap="round"
         stroke-linejoin="round"
         stroke-width="3"
         id="path6" />
    </g>
  </defs>
</svg>
