<?xml version="1.0" encoding="UTF-8" standalone="no"?>
<svg
   ffdec:objectType="frame"
   height="60.549999"
   width="67.099998"
   version="1.1"
   id="svg8"
   sodipodi:docname="238.svg"
   xmlns:inkscape="http://www.inkscape.org/namespaces/inkscape"
   xmlns:sodipodi="http://sodipodi.sourceforge.net/DTD/sodipodi-0.dtd"
   xmlns:xlink="http://www.w3.org/1999/xlink"
   xmlns="http://www.w3.org/2000/svg"
   xmlns:svg="http://www.w3.org/2000/svg"
   xmlns:ffdec="https://www.free-decompiler.com/flash">
  <sodipodi:namedview
     id="namedview8"
     pagecolor="#ffffff"
     bordercolor="#000000"
     borderopacity="0.25"
     inkscape:showpageshadow="2"
     inkscape:pageopacity="0.0"
     inkscape:pagecheckerboard="0"
     inkscape:deskcolor="#d1d1d1"
     fit-margin-top="5"
     fit-margin-left="5"
     fit-margin-right="5"
     fit-margin-bottom="5" />
  <g
     transform="translate(1.5,1.5)"
     id="g3">
    <use
       ffdec:characterId="516"
       height="57.549999"
       width="64.099998"
       xlink:href="#shape0"
       id="use1" />
    <use
       ffdec:characterId="743"
       height="58"
       transform="translate(0.4,0.4)"
       width="58.950001"
       xlink:href="#shape1"
       id="use2" />
    <use
       ffdec:characterId="518"
       height="60.549999"
       transform="translate(-1.5,-1.5)"
       width="67.099998"
       xlink:href="#shape2"
       id="use3" />
  </g>
  <defs
     id="defs8">
    <g
       id="shape0">
      <path
         d="M 53.6,0 H 64.1 V 57.55 H 53.6 28.25 0 V 0 H 28.25 53.6 V 57.55 0 M 28.25,0 V 57.55 0"
         fill="#ffffff"
         fill-rule="evenodd"
         stroke="none"
         id="path3" />
    </g>
    <g
       id="shape1"
       transform="translate(-0.4,-0.4)">
      <path
         d="m 59.35,21.55 q 0.1,3.5 -1.3,6 -1.2,2.2 -3.35,3.6 l 0.1,1.5 q 0,0.6 0.15,0.8 l 0.65,0.4 q 1.8,0.7 2.45,2.55 l 0.3,1.3 0.15,1.85 q -0.15,1.75 -2.45,3.85 0.45,0.65 0.3,1.5 -0.1,0.85 -0.75,1.35 -0.8,0.65 -2.75,0.55 L 52,46.75 51.85,47 l -1.25,1.45 -1.8,0.2 -1.05,-0.2 q -1.05,0.9 -2.85,0.5 -1.4,-0.4 -1.9,-1.2 H 42.85 L 41.55,48.1 40,48.3 q -1.25,0 -1.8,-0.4 L 37.4,47.1 Q 37,46.6 36.95,46.2 36.8,45.35 37.45,44.6 L 36.2,42.95 35.6,41.7 q -2.25,0.7 -3.45,1.4 l -2.1,1.5 0.85,-0.15 1.7,-0.1 1.7,0.5 q 0.8,0.5 1.05,1.3 0.4,1.4 -0.7,2.4 -0.9,0.9 -2.35,1.05 l -2.7,-0.3 q -1.25,-0.1 -2.7,-0.85 l -1.05,-0.8 q -0.35,-0.5 -0.35,-1.55 0,-1.45 0.15,-1.9 l 0.75,-1.3 q 1.4,-1.8 4,-3.1 1.55,-0.75 4.85,-1.75 l 0.65,-0.15 0.45,-0.85 q 0.85,-1.2 2.05,-1.85 l 1.05,-0.9 0.15,-0.8 0.3,-1.05 q 0.25,-0.8 0.55,-1.15 l -1.4,-1.05 q -1.55,-1.35 -2.35,-3.2 -0.8,-1.95 -0.6,-3.9 0.1,-1.1 0.7,-2.75 l 1.05,-2.15 0.5,-0.65 -0.6,-0.95 q -0.15,-0.4 -0.15,-1.35 0,-1.25 0.15,-1.85 l 0.95,-2 0.4,-1.1 0.5,-1.1 q 0.45,-0.55 1.25,-0.7 0.7,-0.1 1.35,0.4 l 0.8,1 1,1.9 0.75,1 6.8,-0.2 0.35,-0.35 2.4,-2.65 q 0.75,-1.15 1.3,-1.4 0.5,-0.2 1,0 l 0.8,0.6 0.35,1.25 0.5,1.75 0.4,1.75 0.1,1.25 0.1,0.85 -0.05,0.75 0.1,0.7 0.1,1 v 0.25 q 0.35,1.4 0.35,3.15 m -9.75,-19.6 -0.05,0.8 -0.9,4.5 q -0.2,0.7 -0.6,0.7 -0.4,0 -0.6,-0.65 Q 47.05,5.95 46.8,4.15 L 46.6,3 q -0.2,-1.1 0,-1.6 0.4,-1 1.5,-1 1.05,0 1.4,1.05 l 0.1,0.5 m -2.1,9.1 -0.6,-0.65 -0.1,-0.35 Q 46.75,9.6 47.05,9.25 l 0.7,-0.5 0.95,0.15 q 0.4,0.25 0.5,0.75 l -0.1,0.9 -0.7,0.55 -0.9,-0.05 m 8.6,8.2 -2.15,0.15 q -1.05,0.65 -1.2,1.8 -0.05,0.65 0.2,1.45 l 0.6,0.95 q 0.45,0.4 1.1,0.5 l 1.2,-0.15 q 0.8,-0.25 1.3,-0.95 0.55,-0.75 0.5,-1.55 0,-0.65 -0.4,-1.3 -0.5,-0.7 -1.15,-0.9 M 51.3,26 q 0.5,-0.6 0.3,-1.85 0,-0.65 -0.35,-1 -0.2,-0.25 -0.45,-0.25 -0.3,-0.05 -0.5,0.15 -0.2,0.25 0,0.8 l 0.15,0.95 -0.55,0.45 q -0.45,0 -0.6,-0.35 L 49.1,24.45 Q 48.8,24 48.3,24.3 l -0.65,0.65 -0.7,0.6 -0.65,0.05 -0.55,-0.45 q -0.45,-0.55 -0.1,-1.3 l 0.15,-0.5 -0.25,-0.2 -0.45,0.1 q -0.65,0.45 -0.65,1.65 -0.1,1.05 0.5,1.6 0.3,0.3 1.05,0.4 1.2,0.2 1.8,-0.3 l 0.55,-0.4 0.65,0.2 1.25,0.2 Q 50.95,26.5 51.3,26 M 39.1,21.3 q -0.4,0.65 -0.4,1.45 0.05,0.8 0.5,1.4 0.45,0.6 1.25,0.85 l 1.5,-0.05 q 0.7,-0.2 1.2,-0.85 l 0.45,-1.4 q 0.05,-0.8 -0.4,-1.45 -0.5,-0.7 -1.2,-0.95 -0.8,-0.25 -1.6,0 -0.85,0.3 -1.3,1 M 17.05,14.1 q 0.4,-1.4 1.55,-2.15 1.15,-0.75 2.55,-0.6 1,0.1 1.6,0.7 0.7,0.8 0.3,1.65 l -0.5,0.5 -0.7,-0.05 -0.3,-0.4 Q 21,13.25 20.25,14 l -0.55,0.75 q -0.2,0.55 0.15,0.85 0.2,0.25 0.6,0.35 l 1.6,0.2 1.25,-0.3 q 1.15,-0.7 1.25,-2.8 0,-1.6 -0.6,-2.2 Q 23.3,10.2 21.9,10.1 19.75,9.9 18.45,10.55 16.6,11.45 16.35,13.2 L 16.2,14.55 Q 15.85,15.4 14.9,15.4 14,15.5 13.65,14.55 13.5,14.25 13.5,13.5 13.6,11.95 14.35,10.6 15.15,9.2 16.4,8.4 17.15,7.9 18.4,7.55 21,6.8 23.75,7.5 25.3,8 26,8.75 l 1.05,1.9 0.3,1 0.1,1.6 Q 27.25,16 26.2,17.3 l -1.2,1.1 -1.05,0.6 -2,0.3 -3.1,-0.45 q -1.75,-0.8 -2,-2.3 L 16.9,15.3 17.05,14.1 M 9.9,15.65 Q 9.65,16.3 9,16.4 8.2,16.5 7.9,15.95 7.6,15.6 7.65,14.8 L 6.45,14.65 5.85,13.7 q -0.05,-0.5 0.4,-1 L 7.4,12.3 h 0.5 l 0.05,-0.35 0.2,-0.85 q 0.25,-0.5 0.7,-0.5 0.4,0.05 0.65,0.45 l 0.2,0.75 0.15,0.85 0.7,0.15 q 0.5,0.1 0.65,0.3 l 0.15,0.45 -0.2,0.4 -0.45,0.15 -0.7,0.2 v 0.5 l -0.1,0.85"
         fill="#999999"
         fill-rule="evenodd"
         stroke="none"
         id="path4" />
      <path
         d="m 46.8,4.15 q 0.25,1.8 0.65,3.15 0.2,0.65 0.6,0.65 0.4,0 0.6,-0.7 l 0.9,-4.5 0.05,-0.8 q 0.55,0.35 0.65,1.1 l -0.1,1.15 -0.65,2 -0.05,1.05 -0.25,1 -0.5,0.4 Q 48.3,8.7 47.9,8.2 47.3,7.4 46.9,5.35 L 46.8,4.15 M 39.1,21.3 q 0.45,-0.7 1.3,-1 0.8,-0.25 1.6,0 0.7,0.25 1.2,0.95 0.45,0.65 0.4,1.45 l -0.45,1.4 q -0.5,0.65 -1.2,0.85 L 40.45,25 q -0.8,-0.25 -1.25,-0.85 -0.45,-0.6 -0.5,-1.4 0,-0.8 0.4,-1.45 M 51.3,26 q -0.35,0.5 -1.05,0.6 L 49,26.4 48.35,26.2 47.8,26.6 q -0.6,0.5 -1.8,0.3 -0.75,-0.1 -1.05,-0.4 -0.6,-0.55 -0.5,-1.6 0,-1.2 0.65,-1.65 l 0.45,-0.1 0.25,0.2 -0.15,0.5 q -0.35,0.75 0.1,1.3 l 0.55,0.45 0.65,-0.05 0.7,-0.6 0.65,-0.65 q 0.5,-0.3 0.8,0.15 l 0.2,0.45 q 0.15,0.35 0.6,0.35 L 50.45,24.8 50.3,23.85 q -0.2,-0.55 0,-0.8 0.2,-0.2 0.5,-0.15 0.25,0 0.45,0.25 0.35,0.35 0.35,1 0.2,1.25 -0.3,1.85 m 4.8,-6.75 q 0.65,0.2 1.15,0.9 0.4,0.65 0.4,1.3 0.05,0.8 -0.5,1.55 -0.5,0.7 -1.3,0.95 l -1.2,0.15 Q 54,24 53.55,23.6 l -0.6,-0.95 q -0.25,-0.8 -0.2,-1.45 0.15,-1.15 1.2,-1.8 l 2.15,-0.15"
         fill="#ffffff"
         fill-rule="evenodd"
         stroke="none"
         id="path5" />
      <path
         d="m 35,34.45 q -0.2,-0.1 -0.1,-0.4 l 0.4,-0.4 2.15,-1.35 2.15,-1.3 1.5,-0.8 1.1,0.2 q 0.55,0.25 0.7,0.75 0.25,0.6 0.1,1.15 -0.1,0.5 -0.6,0.85 l -1.55,0.5 -5.3,0.85 L 35,34.45 m -0.3,3.5 0.6,-0.2 4.45,0.55 1.15,0.25 q 0.95,0.55 0.8,1.7 l -0.55,0.85 -0.9,0.35 q -0.55,0 -1.55,-0.6 L 35.05,38.5 q -0.5,-0.25 -0.35,-0.55 m -1,-6.85 Q 33.5,31 33.5,30.5 l 0.55,-4.45 0.25,-1.15 q 0.55,-0.95 1.7,-0.8 0.5,0.1 0.85,0.55 l 0.35,0.9 q 0,0.55 -0.6,1.55 l -2.35,3.65 Q 34,31.25 33.7,31.1 M 0.8,28.25 0.6,27.1 0.55,26.4 0.4,25.7 v -3.25 l 0.1,-0.2 q 0.25,-0.5 0.8,-0.65 l 0.8,-0.05 2.5,0.45 1.65,0.7 1.65,0.8 0.55,0.45 0.15,-0.1 6.25,-0.5 q 4.65,0.55 7.55,3.2 1.4,1.35 2.35,3.15 l 2.5,0.25 3.35,0.85 q 1.4,0.4 1.75,1.05 0.25,0.55 0.05,1.25 l -0.45,0.85 -0.8,0.65 -1.7,1.2 -1.5,1.4 -1.1,0.55 -0.25,0.05 q 0.05,3 -0.75,5.8 -0.7,2.55 -2.1,4.6 l 2.7,-0.75 Q 25.5,45.6 26.1,43.25 l 0.4,-1.15 0.9,-1.4 1.5,-1.4 q 0.75,-0.45 2,-0.45 2.55,0 3.65,1.8 0.5,0.8 0.7,2.65 l 0.15,3.1 q -0.2,1.65 -1,3.45 L 34.35,50 q -0.65,2.55 -2.15,3.65 -1.1,0.85 -3.35,1.2 H 28.8 v 0.1 L 12.05,57.15 11.6,57.85 10.95,58.4 0.4,57.15 v -28.5 l 0.4,-0.4 m 13.9,14.1 0.1,0.05 -0.05,0.05 -0.15,0.45 -0.65,1.4 -0.6,0.65 -0.4,0.3 -0.6,-0.15 -0.3,-0.55 L 12,43.8 V 43 q 0.95,-0.1 1.85,-0.65 l 0.5,-0.2 0.35,0.2 m 7.3,-7.5 -1.1,0.7 q -0.7,0.75 -0.8,2.55 l 0.1,1.1 0.3,-0.15 1.55,0.2 q 1.35,0.5 2.2,1 1.15,-0.75 1.55,-2.05 0.35,-1.05 0.1,-1.85 -0.4,-1.15 -1.6,-1.6 l -2.3,0.1 m -12.1,7.85 0.15,0.05 -0.1,0.15 -0.2,1.9 v 0.9 l 0.4,0.9 0.45,0.55 q 0.4,0.4 0.95,0.55 1.1,0.5 2.3,0 l 1.75,-1.65 0.7,-0.95 0.65,-1.5 0.15,-0.7 1.1,-0.1 q 0.65,-0.2 0.95,-0.6 l 0.3,-0.6 0.25,-0.45 Q 19.8,40.6 19.2,40.5 L 18.25,40.9 15.95,40.8 15.9,40 15.75,39.4 15.05,38.8 Q 14.55,38.65 14.1,39 l -0.45,0.55 -0.9,0.7 q -0.7,0.4 -1.45,0.4 l -0.8,-0.2 -0.45,-0.6 q -0.6,-0.6 -1.25,-0.25 -0.75,0.35 -0.65,1.1 0,0.45 0.35,0.9 L 9.15,42.35 9.9,42.7 M 7.55,32.05 Q 6.65,31.95 5.95,32.4 4.9,32.65 4.1,33.55 3.5,34.15 3.35,35 3.3,35.35 3.4,35.7 3.35,36.5 3.85,37 l 0.95,-0.1 3.15,0.25 1.05,0.3 0.35,0.35 0.3,-0.4 0.3,-0.6 0.4,-1.5 q 0,-0.8 -0.55,-1.9 L 9.2,32.6 Q 8.9,32.3 8.4,32.2 L 7.55,32.05"
         fill="#000000"
         fill-rule="evenodd"
         stroke="none"
         id="path6" />
      <path
         d="M 7.55,32.05 8.4,32.2 q 0.5,0.1 0.8,0.4 l 0.6,0.8 q 0.55,1.1 0.55,1.9 l -0.4,1.5 -0.3,0.6 -0.3,0.4 L 9,37.45 7.95,37.15 4.8,36.9 3.85,37 Q 3.35,36.5 3.4,35.7 3.3,35.35 3.35,35 3.5,34.15 4.1,33.55 4.9,32.65 5.95,32.4 6.65,31.95 7.55,32.05 M 9.9,42.7 9.15,42.35 8.5,41.6 Q 8.15,41.15 8.15,40.7 8.05,39.95 8.8,39.6 q 0.65,-0.35 1.25,0.25 l 0.45,0.6 0.8,0.2 q 0.75,0 1.45,-0.4 l 0.9,-0.7 L 14.1,39 q 0.45,-0.35 0.95,-0.2 l 0.7,0.6 0.15,0.6 0.05,0.8 2.3,0.1 0.95,-0.4 q 0.6,0.1 0.5,0.65 l -0.25,0.45 -0.3,0.6 q -0.3,0.4 -0.95,0.6 l -1.1,0.1 -0.15,0.7 -0.65,1.5 -0.7,0.95 -1.75,1.65 q -1.2,0.5 -2.3,0 Q 11,47.55 10.6,47.15 L 10.15,46.6 9.75,45.7 v -0.9 l 0.2,-1.9 0.1,-0.15 L 9.9,42.7 m 12.1,-7.85 2.3,-0.1 q 1.2,0.45 1.6,1.6 0.25,0.8 -0.1,1.85 -0.4,1.3 -1.55,2.05 -0.85,-0.5 -2.2,-1 l -1.55,-0.2 -0.3,0.15 -0.1,-1.1 q 0.1,-1.8 0.8,-2.55 l 1.1,-0.7 m -7.3,7.5 -0.35,-0.2 -0.5,0.2 Q 12.95,42.9 12,43 v 0.8 l 0.05,0.75 0.3,0.55 0.6,0.15 0.4,-0.3 0.6,-0.65 0.65,-1.4 0.15,-0.45 0.05,-0.05 -0.1,-0.05"
         fill="#ffffff"
         fill-rule="evenodd"
         stroke="none"
         id="path7" />
    </g>
    <g
       id="shape2"
       transform="translate(1.5,1.5)">
      <path
         d="M 0,23.8 V 0 H 64.1 V 23.8 57.55 H 0 Z"
         fill="none"
         stroke="#000000"
         stroke-linecap="round"
         stroke-linejoin="round"
         stroke-width="3"
         id="path8" />
    </g>
  </defs>
</svg>
