<?xml version="1.0" encoding="UTF-8" standalone="no"?>
<svg
   ffdec:objectType="frame"
   height="45.244644"
   width="78.599998"
   version="1.1"
   id="svg13"
   sodipodi:docname="162.svg"
   xmlns:inkscape="http://www.inkscape.org/namespaces/inkscape"
   xmlns:sodipodi="http://sodipodi.sourceforge.net/DTD/sodipodi-0.dtd"
   xmlns:xlink="http://www.w3.org/1999/xlink"
   xmlns="http://www.w3.org/2000/svg"
   xmlns:svg="http://www.w3.org/2000/svg"
   xmlns:ffdec="https://www.free-decompiler.com/flash">
  <sodipodi:namedview
     id="namedview13"
     pagecolor="#ffffff"
     bordercolor="#000000"
     borderopacity="0.25"
     inkscape:showpageshadow="2"
     inkscape:pageopacity="0.0"
     inkscape:pagecheckerboard="0"
     inkscape:deskcolor="#d1d1d1"
     fit-margin-top="5"
     fit-margin-left="5"
     fit-margin-right="5"
     fit-margin-bottom="5" />
  <g
     transform="translate(2,2.9446429)"
     id="g3">
    <use
       ffdec:characterId="1"
       height="42.700001"
       transform="translate(-1.75,-2)"
       width="76.449997"
       xlink:href="#shape0"
       id="use1" />
    <use
       ffdec:characterId="162"
       height="43.650002"
       transform="translate(1.2,-2.95)"
       width="69.800003"
       xlink:href="#shape1"
       id="use2" />
    <use
       ffdec:characterId="3"
       height="44.349998"
       transform="translate(-2,-2.05)"
       width="78.599998"
       xlink:href="#shape2"
       id="use3" />
  </g>
  <defs
     id="defs13">
    <g
       id="shape0"
       transform="translate(1.75,2)">
      <path
         d="M 2.8,0 V -0.4 H 5.4 V 0 H 9.7 V 19.45 0 H 20.55 L 19.3,19.45 H 9.7 0.25 V 0 H 2.8"
         fill="#ffffff"
         fill-rule="evenodd"
         stroke="none"
         id="path3" />
      <path
         d="M 0.25,19.45 H 9.7 19.3 L 18.7,28.6 16,28.5 10.95,27.95 9.7,27.8 Q 7.45,27.6 5.85,27.75 4.05,27.9 1.5,28.6 0.75,28.8 0.25,29.15 v -9.7 m 9.45,0 v 8.35 -8.35"
         fill="#121212"
         fill-rule="evenodd"
         stroke="none"
         id="path4" />
      <path
         d="m 9.7,27.8 1.25,0.15 5.05,0.55 2.7,0.1 h 1.05 l 3.75,0.15 q 2.45,0.3 3.6,1.25 0.6,0.5 0.6,1.1 0,0.65 -0.8,1 l -1.3,0.2 -7.15,0.15 -5.6,-0.3 L 9.7,31.75 7.95,31.6 3.1,31.95 0.95,32.3 0.25,32.1 -0.35,31.55 -0.5,31.3 V 29.9 L 0.25,29.15 Q 0.75,28.8 1.5,28.6 4.05,27.9 5.85,27.75 7.45,27.6 9.7,27.8 v 3.95 -3.95"
         fill="#999999"
         fill-rule="evenodd"
         stroke="none"
         id="path5" />
      <path
         d="M 2.8,0 H 0.25 M 9.7,0 H 5.4 m 16.15,0 h 10.7 M 20.55,0 H 9.7"
         fill="none"
         stroke="#666666"
         stroke-linecap="round"
         stroke-linejoin="round"
         stroke-width="4"
         id="path6" />
      <path
         d="m 9.7,-0.4 h 65 V 40.5 H 47.05 L 45.5,40.7 27,40.65 25.95,40.5 H 9.7 -0.5 V -0.4 H 9.7 V 40.5 -0.4"
         fill="#ffffff"
         fill-rule="evenodd"
         stroke="none"
         id="path7" />
    </g>
    <g
       id="shape1"
       transform="translate(-1.2,2.95)">
      <path
         d="m 68.25,27.55 q -1.45,2.7 -3.65,4.25 -1.2,0.85 -3.05,1.55 -3.5,1.45 -6.7,1 -3.75,-0.55 -7.15,-3.7 l -0.55,-0.6 H 47.1 v 1.1 q 0.15,2 1.25,3.75 1.05,1.75 2.75,2.75 2,1.15 3.8,0.85 1.55,-0.25 4.2,-2.2 2.15,-1.5 3.8,-1.8 1.95,-0.35 3.3,0.55 L 66.9,33.9 67,33.7 q 0.2,-0.65 0,-1.05 l 0.05,-0.35 q -0.1,-0.25 0.15,-0.5 l 0.35,-0.1 0.3,0.15 0.2,0.35 0.25,0.25 0.1,0.6 0.35,1.4 -0.1,0.35 -0.65,1.55 -0.45,0.5 0.15,0.45 0.6,-0.45 0.4,-0.15 0.6,-0.4 0.2,-0.3 0.05,-0.65 0.55,-0.8 q 0.15,-0.05 0.35,0.15 l 0.35,0.5 0.1,0.9 -0.05,0.4 -0.2,0.4 -0.1,0.3 -0.5,0.85 -0.8,0.85 -1.85,1.05 -0.25,0.5 L 67,40.7 H 45.4 l -0.35,-0.35 q -1.9,-2.25 -2.5,-4.9 -1.5,2.1 -2.75,4.45 l -0.45,0.8 H 34.1 l -0.25,-0.85 q -0.1,-0.55 0.1,-1.2 l -1.75,1.6 -0.5,0.45 H 25.45 V 40.65 L 24.6,40.7 H 4.85 Q 4.4,39.55 5.15,38.35 L 5.65,37.55 6,36.6 6.8,35.3 7.05,35.05 7.6,34.2 q 1.1,-1.35 2.95,-2.85 5.15,-4.2 10.9,-6.85 l -0.4,0.05 q -1.4,0.2 -2.65,-0.7 -1.6,-1.15 -1.7,-3.3 0,-2 1.4,-3.5 L 18.7,16.5 19.4,16.2 18.7,14.85 17.5,13.25 14.55,9.9 13.95,9.45 12.85,9.4 11.25,9 Q 10.5,8.55 10.1,7.85 9.2,6.2 10.2,4.7 10.95,3.55 12.4,3.3 13.7,3.1 14.95,3.75 l 1.85,1.55 2.55,3.05 0.9,-0.8 Q 21.15,7 22.3,7.1 l 0.5,0.05 -0.25,-5.7 Q 22.45,-0.9 23.3,-2 q 1,-1.15 2.45,-0.9 1.45,0.15 2.15,1.6 0.45,0.95 0.25,2.8 L 27.5,12 l -0.25,3.05 1.6,-0.1 q 1.45,0.35 2.05,1.5 0.4,0.85 0.25,1.95 -0.15,1.15 -1.05,2.15 l -1.8,1.35 q 8.05,-2.4 16.15,-1.75 0.6,-5.35 4,-9.15 H 48.5 L 47.6,9.25 q -1,-1.9 -0.9,-3 0.25,-1.55 1.55,-2.1 l 2.35,-0.3 q 5.6,0.3 11.1,2.8 1.75,0.85 2.65,1.65 l 0.3,0.1 q 1.35,0.7 2.6,2 1.7,1.85 2.6,4.55 1.3,4.15 -0.15,9 -0.3,-1 -1.3,-1.4 -1.45,1.45 -3.55,1.95 l -0.4,0.1 q -0.2,1.25 0.4,2.05 l 0.5,0.5 0.5,0.35 1.25,0.25 0.55,-0.05 0.6,-0.15 m -30.3,-10.9 q 0.4,-0.8 1.35,-1.05 0.9,-0.2 1.7,0.35 0.8,0.65 0.7,1.7 -0.05,0.7 -0.7,1.35 l -1.4,0.45 q -0.85,-0.05 -1.35,-0.6 -0.9,-0.9 -0.3,-2.2 M 54.1,25.6 53.9,25.15 q -0.3,-0.3 -0.7,-0.25 -0.6,0.15 -0.7,0.95 0,0.55 0.35,1.15 l 0.15,0.45 0.2,0.3 q 1,1.2 2.55,1.3 h 0.85 l 0.85,0.05 0.85,-0.1 0.35,-0.15 0.55,1.45 0.45,0.55 0.65,0.4 0.75,0.25 0.6,-0.05 0.85,-0.05 0.5,-0.3 0.35,-0.25 0.35,-0.35 q 0.2,-0.3 0.05,-0.7 l -0.55,-0.45 -0.35,-0.05 -0.3,-0.1 -1,0.05 0.15,-0.9 L 61.9,27.4 61.8,27.05 61.25,26.2 61.1,26.1 Q 60.75,25.55 60.05,25.45 L 58.85,25.6 57.4,26.45 57,26.5 55.4,26.45 Q 54.5,26.3 54.1,25.6 m 1.65,-2.4 Q 57.2,23.1 58.1,22 L 57.3,21.1 Q 56.25,19.65 56,17.55 v -1.1 L 55.35,16.4 q -1.15,0 -1.8,0.35 -0.35,0.15 -0.6,0.4 -0.75,0.7 -1.1,1.85 -0.25,1.1 0.15,2.1 l 0.3,0.6 0.4,0.45 q 1.3,1.2 3.05,1.05 M 33.55,5.75 33.75,6.1 q 0.5,0.65 0.5,1.35 0.1,0.8 -0.45,1.35 l -0.25,0.35 q -0.6,0.5 -1.45,0.6 h -0.7 q -1.5,-0.1 -2.3,-0.9 -0.7,-0.7 -0.7,-1.7 l 0.2,-1.05 0.45,-1.4 0.6,-0.7 0.8,-0.55 2,0.15 q 0.95,0.65 1.05,1.75 l 0.05,0.4 M 20.95,1.2 Q 21.25,2 21.05,2.75 20.8,3.55 20.1,4 L 18.6,4.35 Q 17.8,4.3 17.25,3.65 16.65,3.05 16.6,2.25 16.55,1.45 17.05,0.8 q 0.5,-0.7 1.3,-0.9 l 1.55,0.2 q 0.75,0.4 1.05,1.1 m 2.8,22.25 -0.45,-0.5 -0.05,0.05 -1,1.1 1.5,-0.65 m 2.4,-0.85 0.3,-0.15 H 26.2 26.15 V 22.6 M 3.95,6.85 4.3,7.45 4.4,8 3.95,9 3.05,9.55 Q 2.5,9.65 2,9.35 1.5,9.05 1.3,8.5 1.1,8 1.3,7.45 1.5,6.9 1.95,6.6 2.4,6.3 3,6.35 q 0.6,0.1 0.95,0.5 m 11.1,9.4 -0.6,-0.05 -1.3,0.2 q -1.3,0.3 -1.9,0.65 L 9.9,17.95 8.55,18.1 Q 7.8,17.95 7.3,17.45 6.8,16.95 6.65,16.25 6.5,15.5 6.75,14.85 q 0.3,-0.85 1.1,-1.4 0.7,-0.5 1.65,-0.75 2.35,-0.6 4.2,0.45 l 1.1,0.75 0.35,0.4 0.55,0.75 v 0.75 q -0.2,0.45 -0.65,0.45"
         fill="#999999"
         fill-rule="evenodd"
         stroke="none"
         id="path8" />
      <path
         d="m 69.7,23.95 0.15,0.8 v 0.4 q 0,0.9 -0.65,1.65 l -0.95,0.75 -0.6,0.15 -0.55,0.05 -1.25,-0.25 -0.5,-0.35 -0.5,-0.5 q -0.6,-0.8 -0.4,-2.05 l 0.4,-0.1 q 2.1,-0.5 3.55,-1.95 1,0.4 1.3,1.4 M 55.75,23.2 Q 54,23.35 52.7,22.15 L 52.3,21.7 52,21.1 q -0.4,-1 -0.15,-2.1 0.35,-1.15 1.1,-1.85 0.25,-0.25 0.6,-0.4 0.65,-0.35 1.8,-0.35 L 56,16.45 v 1.1 q 0.25,2.1 1.3,3.55 l 0.8,0.9 q -0.9,1.1 -2.35,1.2 m -1.65,2.4 q 0.4,0.7 1.3,0.85 l 1.6,0.05 0.4,-0.05 1.45,-0.85 1.2,-0.15 q 0.7,0.1 1.05,0.65 l 0.15,0.1 0.55,0.85 0.1,0.35 -0.2,0.95 -0.15,0.9 1,-0.05 0.3,0.1 0.35,0.05 0.55,0.45 q 0.15,0.4 -0.05,0.7 L 63.35,30.85 63,31.1 62.5,31.4 61.65,31.45 61.05,31.5 60.3,31.25 59.65,30.85 59.2,30.3 58.65,28.85 58.3,29 57.45,29.1 56.6,29.05 H 55.75 Q 54.2,28.95 53.2,27.75 L 53,27.45 52.85,27 q -0.35,-0.6 -0.35,-1.15 0.1,-0.8 0.7,-0.95 0.4,-0.05 0.7,0.25 l 0.2,0.45"
         fill="#ffffff"
         fill-rule="evenodd"
         stroke="none"
         id="path9" />
      <path
         d="m 64.85,3.55 1.05,0.3 q 1.6,0.65 2.7,0.35 l 1.1,-0.4 q 0.65,-0.2 1.05,0.2 0.35,0.3 0.2,1.15 L 70.6,6.9 q -1.1,3.8 -4.7,6 l -1.05,0.5 -0.4,0.1 L 64,13.4 q -0.5,-0.15 -1.1,-0.5 -3.6,-2.2 -4.65,-6 L 57.85,5.15 Q 57.7,4.3 58.05,4 q 0.4,-0.4 1.1,-0.2 l 1.1,0.4 q 1.1,0.3 2.65,-0.35 l 1.05,-0.3 h 0.9 m -2.45,6.8 2,2 2.35,-2.3 Q 68.35,8.3 68.9,6 L 67.35,6.1 65.65,5.95 65.1,5.8 64.7,5.7 64.45,5.65 64.4,5.6 63.75,5.8 63.15,5.95 61.95,6.05 61.5,6.1 59.9,6 q 0.3,1.2 0.9,2.25 l 0.95,1.4 0.35,0.4 0.3,0.3 M 19.75,34.15 Q 16.7,33.6 14.9,31.55 13.8,30.3 13.3,28.75 l -0.9,0.6 q -1.4,1 -2.25,1.2 -1.75,0.55 -3.4,-0.6 -1.5,-1.05 -1.6,-3 Q 5.1,25.6 6.05,24.1 6.75,23.05 8.2,21.95 l 1.15,-0.8 q 1.6,-0.9 4.35,-1.35 l 0.45,-0.05 0.65,-1.2 q 1.1,-1.7 2.65,-2.65 l 0.35,0.85 1.05,1.7 1.8,1.25 2.15,0.2 0.65,0.6 q 0.75,0.75 1.9,0.5 1.7,-0.7 3.1,-1.75 L 30.3,17.8 q 1.1,1.75 1.55,4.25 l 0.3,2.85 -0.05,1.4 q 1.85,0.85 3.55,2.45 1.75,1.6 3.9,4.65 2.1,3.1 2.35,5.05 0.2,1 0,1.9 H 24.25 Q 24,39.25 24.35,37.9 l 0.55,-1.7 0.6,-1.7 0.2,-0.85 h -0.1 q -2.95,1.1 -5.85,0.5 m 7.2,-26.2 Q 28,8.3 29.3,9.2 l 0.6,-1.8 q 1.25,-2.55 3.8,-3.8 1.05,-0.55 2.05,-0.65 1.3,-0.2 2.55,0.55 1.3,0.6 1.9,1.8 1.05,1.85 0.45,4.15 Q 40,11.5 38.3,13 l -0.9,0.8 -1.3,0.6 -2.1,0.6 -0.05,2.45 -0.1,0.7 Q 32.9,17.9 31.8,17.3 L 28.1,16.9 27.6,16.2 27.85,14.6 27.9,11.65 27.75,10.6 27.35,9.4 27.05,8.7 27,8.45 26.95,7.95 m -6.3,-2.5 q -0.3,1.1 -1.65,1.2 -1.2,0 -1.65,-1.2 -0.2,-0.5 0,-1.1 0.15,-0.55 0.6,-0.9 1.05,-0.8 2.1,0 l 0.6,0.9 q 0.2,0.6 0,1.1 m 2.4,8.5 -0.1,-0.4 -0.2,-0.3 -0.25,-0.8 -0.3,-1.3 -0.05,-0.5 -0.5,-1.45 q -0.3,-1 -0.2,-1.55 0.1,-0.55 0.6,-0.95 0.45,-0.4 1,-0.45 l 1.1,0.3 0.65,0.9 0.1,1.25 -0.1,1.05 0.05,0.85 0.1,0.8 -0.15,1 -0.15,1 q 0.25,0.4 0.15,0.8 l -0.3,0.8 -0.2,0.3 -0.65,0.05 -0.25,-0.4 -0.35,-1 m -5.15,0 L 17.55,13.8 17.4,13.65 H 17.25 L 16.65,13.5 16.1,13.15 14.85,12.9 q -1,-0.3 -1.2,-1.45 -0.1,-1.1 0.85,-1.65 l 1.85,0.05 0.3,0.25 0.25,0.4 0.65,0.65 v 0.1 l 0.65,0.85 0.1,0.3 0.2,0.25 0.35,0.6 0.3,0.55 -0.15,0.55 h -0.6 l -0.5,-0.4 m 4.5,17.4 0.25,-0.15 0.35,-0.45 0.5,-1.45 0.2,-0.45 0.3,-0.3 0.6,-0.45 1.9,-1.05 0.8,-0.85 -0.25,-0.55 -0.7,-0.3 q -0.5,0 -1.3,0.5 l -1.35,0.6 -0.2,0.1 -0.15,-0.15 -0.4,-0.2 Q 22.8,26.05 22.7,26.05 l -0.75,0.05 -0.4,0.3 -0.15,0.5 0.3,0.5 0.2,0.45 0.2,0.3 -0.05,0.3 -0.2,1 -0.15,0.9 0.2,0.7 0.5,0.3 m -2.8,-3.4 q 0.15,-0.85 -0.1,-1.55 -0.35,-1 -1.15,-1.45 l -2.85,-0.1 q -1.45,0.85 -1.45,2.45 0,1.45 1.25,2.3 1.2,0.9 2.6,0.3 1.4,-0.5 1.7,-1.95"
         fill="#000000"
         fill-rule="evenodd"
         stroke="none"
         id="path10" />
      <path
         d="M 64.45,5.65 64.7,5.7 65.1,5.8 65.65,5.95 67.35,6.1 68.9,6 q -0.55,2.3 -2.15,4.05 l -2.35,2.3 -2,-2 0.2,-0.6 0.3,-0.85 0.2,-0.35 0.45,-1 0.5,-1.35 0.4,-0.55 m -2.7,4 -0.95,-1.4 0.3,-0.65 0.7,-1.2 0.15,-0.35 1.2,-0.1 -1.4,3.7"
         fill="#999999"
         fill-rule="evenodd"
         stroke="none"
         id="path11" />
      <path
         d="m 64.45,5.65 -0.4,0.55 -0.5,1.35 -0.45,1 -0.2,0.35 -0.3,0.85 -0.2,0.6 -0.3,-0.3 -0.35,-0.4 1.4,-3.7 0.6,-0.15 0.65,-0.2 0.05,0.05 M 60.8,8.25 Q 60.2,7.2 59.9,6 L 61.5,6.1 61.95,6.05 61.8,6.4 61.1,7.6 60.8,8.25 m -41.2,19.7 q -0.3,1.45 -1.7,1.95 -1.4,0.6 -2.6,-0.3 -1.25,-0.85 -1.25,-2.3 0,-1.6 1.45,-2.45 l 2.85,0.1 q 0.8,0.45 1.15,1.45 0.25,0.7 0.1,1.55 m 2.8,3.4 -0.5,-0.3 -0.2,-0.7 0.15,-0.9 0.2,-1 0.05,-0.3 -0.2,-0.3 -0.2,-0.45 -0.3,-0.5 0.15,-0.5 0.4,-0.3 0.75,-0.05 q 0.1,0 0.25,0.15 l 0.4,0.2 0.15,0.15 0.2,-0.1 1.35,-0.6 q 0.8,-0.5 1.3,-0.5 l 0.7,0.3 0.25,0.55 -0.8,0.85 -1.9,1.05 -0.6,0.45 -0.3,0.3 -0.2,0.45 -0.5,1.45 -0.35,0.45 -0.25,0.15"
         fill="#ffffff"
         fill-rule="evenodd"
         stroke="none"
         id="path12" />
    </g>
    <g
       id="shape2"
       transform="translate(2,2.05)">
      <path
         d="M -0.5,-0.4 V -0.55 H 75.1 V -0.4 40.8 H -0.5 Z"
         fill="none"
         stroke="#000000"
         stroke-linecap="round"
         stroke-linejoin="round"
         stroke-width="3"
         id="path13" />
    </g>
  </defs>
</svg>
