<?xml version="1.0" encoding="UTF-8" standalone="no"?>
<svg
   ffdec:objectType="frame"
   height="60.549999"
   width="67.099998"
   version="1.1"
   id="svg8"
   sodipodi:docname="123.svg"
   xmlns:inkscape="http://www.inkscape.org/namespaces/inkscape"
   xmlns:sodipodi="http://sodipodi.sourceforge.net/DTD/sodipodi-0.dtd"
   xmlns:xlink="http://www.w3.org/1999/xlink"
   xmlns="http://www.w3.org/2000/svg"
   xmlns:svg="http://www.w3.org/2000/svg"
   xmlns:ffdec="https://www.free-decompiler.com/flash">
  <sodipodi:namedview
     id="namedview8"
     pagecolor="#ffffff"
     bordercolor="#000000"
     borderopacity="0.25"
     inkscape:showpageshadow="2"
     inkscape:pageopacity="0.0"
     inkscape:pagecheckerboard="0"
     inkscape:deskcolor="#d1d1d1"
     fit-margin-top="5"
     fit-margin-left="5"
     fit-margin-right="5"
     fit-margin-bottom="5" />
  <g
     transform="translate(1.5,1.5)"
     id="g3">
    <use
       ffdec:characterId="516"
       height="57.549999"
       width="64.099998"
       xlink:href="#shape0"
       id="use1" />
    <use
       ffdec:characterId="633"
       height="55.450001"
       transform="translate(-0.3)"
       width="64.849998"
       xlink:href="#shape1"
       id="use2" />
    <use
       ffdec:characterId="518"
       height="60.549999"
       transform="translate(-1.5,-1.5)"
       width="67.099998"
       xlink:href="#shape2"
       id="use3" />
  </g>
  <defs
     id="defs8">
    <g
       id="shape0">
      <path
         d="M 53.6,0 H 64.1 V 57.55 H 53.6 28.25 0 V 0 H 28.25 53.6 V 57.55 0 M 28.25,0 V 57.55 0"
         fill="#ffffff"
         fill-rule="evenodd"
         stroke="none"
         id="path3" />
    </g>
    <g
       id="shape1"
       transform="translate(0.3)">
      <path
         d="m 63.4,3.75 0.1,0.1 0.1,0.1 0.05,0.1 0.05,0.1 0.05,0.1 0.05,0.1 0.05,0.1 V 4.6 4.7 4.8 4.9 L 63.8,5 63.75,5.1 V 5.2 L 63.7,5.3 63.65,5.4 63.55,5.5 63.45,5.6 63.3,5.7 63.2,5.8 63,5.9 H 62.9 L 62.65,5.95 61.3,6 h -0.45 -0.55 -0.55 -2.3 -0.6 L 54.95,5.95 49.4,5.9 H 47.5 44.05 43.65 33.5 19 14.3 12.9 9.6 8.4 L 6.1,5.85 5.05,5.8 H 4.25 L 3.1,5.75 2.05,5.7 1.95,5.75 1.8,5.8 1.7,5.85 1.4,5.9 1.05,5.8 0.9,5.75 0.6,5.7 0.25,5.65 0.05,5.55 -0.05,5.45 -0.15,5.35 -0.2,5.25 -0.25,5.15 V 5 4.9 L -0.3,4.8 -0.25,4.7 V 4.6 4.5 L -0.2,4.4 -0.15,4.3 -0.05,4.2 0.05,4.1 0.15,4.05 V 3.95 3.85 3.75 3.65 3.55 3.45 3.35 3.25 L 0.2,3.15 V 3.05 2.9 2.8 2.7 2.6 2.5 2.4 2.3 2.2 L 0.25,2.1 V 2 L 0.3,1.9 V 1.8 1.7 1.6 1.5 1.4 L 0.35,1.25 V 1.15 L 0.4,1.05 V 0.95 0.85 L 0.45,0.75 V 0.65 0.55 L 0.5,0.45 V 0.35 0.25 0.15 0.05 L 0.55,0 H 63.5 v 0.05 0.1 l -0.05,0.1 V 0.4 0.5 0.6 0.7 0.8 0.9 1 v 0.1 0.1 0.1 0.1 0.1 0.1 0.1 0.1 0.15 0.1 0.1 0.1 0.1 l -0.05,0.1 v 0.1 0.1 0.1 0.1 0.1 l -0.05,0.1 v 0.1 0.1 0.1 L 63.3,3.45 V 3.6 3.7 l 0.1,0.05 M 10.8,6.7 h 3.25 4.1 l 1.15,0.05 1.75,0.05 h 1.1 l 3.2,0.05 h 11.4 L 40.3,6.8 h 13.4 l 7.2,-0.05 h 3.65 V 8.4 H 60.9 L 53.7,8.35 H 40.3 L 36.75,8.3 h -11.4 l -3.2,0.05 h -1.1 L 19.3,8.4 18.15,8.45 H 14.05 10.8 8.75 L 5.6,8.4 5.35,8.35 H 5 L 3.95,8.3 2.55,8.25 2.15,8.2 H 1.95 L 1.8,8.15 1.55,8.1 H 1.3 L 1.1,8.05 0.85,8 0.7,7.9 0.6,7.8 0.5,7.65 0.45,7.55 0.5,7.45 0.6,7.35 0.7,7.25 0.85,7.15 1.1,7.1 1.3,7.05 1.55,7 H 1.8 L 1.95,6.95 2.15,6.9 h 0.4 L 3.95,6.85 5,6.8 H 5.35 L 5.6,6.75 8.75,6.7 h 2.05"
         fill="#999999"
         fill-rule="evenodd"
         stroke="none"
         id="path4" />
      <path
         d="m 8.25,32.35 0.1,-0.3 1.6,-1.7 0.85,-0.55 0.95,-0.35 q 4.45,-1.6 7.25,-2 h 0.8 q 0.55,0.2 0.55,0.6 0,0.4 -0.4,0.65 l -0.75,0.2 -1.1,0.2 q -2.35,0.45 -3.85,1.05 l -1.8,0.7 -0.85,0.55 -1.45,1.3 1.85,-0.75 q 1.55,-0.6 2.35,-0.3 0.65,0.35 0.6,0.8 l -0.95,0.8 -3.05,1.1 -0.5,0.2 -1,0.1 Q 8.65,34.5 8.3,33.65 8.05,33 8.25,32.35 m 39.15,5.9 q 0.4,-0.4 1.05,-0.45 0.65,0 1.1,0.35 0.45,0.35 0.5,1 0.1,0.65 -0.25,1.15 -0.3,0.45 -1.05,0.75 l -1.3,0.4 -1,0.3 q -0.65,0 -0.8,-0.55 -0.05,-0.35 0.4,-0.9 l 0.7,-1 0.65,-1.05 m 12.3,8.45 0.1,0.2 h 0.05 q 0.8,0.35 1,1.05 0.3,0.85 -0.3,1.65 -0.55,0.55 -1.25,0.55 l -0.1,0.05 -0.4,0.4 -1.05,0.65 -1,0.4 -0.8,0.05 -0.15,0.65 -0.9,0.9 q -0.7,0.25 -1.25,0 Q 52.85,53 52.6,52.2 52.45,51.85 52.45,51.4 l 0.15,-0.6 0.2,-0.25 -0.3,-0.7 v -0.2 l -2.9,-0.1 -2,-0.55 q -0.7,-0.35 -1.1,-1.05 -0.4,-0.75 -0.25,-1.5 l 0.35,-0.9 -0.35,-0.05 -0.3,0.1 -0.05,0.2 -0.4,1.1 -0.45,0.45 -1.15,0.65 -0.85,0.05 q -0.9,-0.1 -1.15,-0.35 -0.3,-0.25 -0.5,-1 v -0.55 q 0.15,-0.3 0.7,-0.2 l 0.75,0.35 q 0.85,0.25 1.35,-0.45 l 0.2,-0.4 V 45 l 0.25,-0.6 0.4,-0.65 1,-0.4 q 1.55,-0.3 2.4,0.35 l 0.05,0.05 0.55,-0.35 1.25,-0.35 4.65,0.25 q 0.95,0.25 1.65,0.8 0.8,0.7 0.65,1.6 h 0.8 l -0.2,0.2 q -0.35,0.4 -0.25,0.95 0.15,0.6 0.8,0.75 0.6,0.15 1,-0.3 l 0.3,-0.6 m -4.25,-7.25 q 0.45,-0.95 1.5,-1.1 1.2,-0.1 1.6,0.85 0.4,0.85 -0.25,1.65 -0.65,0.65 -1.6,0.55 l -1.2,-0.15 -0.75,-0.1 Q 54.55,41 54.6,40.7 l 0.2,-0.45 0.3,-0.3 0.35,-0.5 m -2.35,10 0.45,0.7 q 0.35,0.3 0.8,0.25 l 0.7,-0.35 0.3,-0.8 L 55,48.5 q -0.35,-0.3 -0.75,-0.3 h -0.1 q -0.8,0 -1,0.85 l -0.05,0.4 M 16.8,24.15 15.45,24.7 q 0.35,0.4 0.3,1.1 -0.05,0.85 -0.8,1.5 Q 14.15,28 13.3,27.85 12.45,27.7 12.15,27 L 12,26.75 11.8,27.1 11.55,27.7 Q 11.2,28.3 10.6,28.3 9.95,28.4 9.5,28 L 9.1,27.5 8.7,26.65 8.65,26 8.8,24.05 q 0.1,-0.85 0.3,-1.2 0.45,-0.8 1.3,-0.55 l 0.6,0.4 0.2,0.7 -0.15,0.5 v 0.9 l 0.65,-0.3 q 0.2,-0.2 1.1,-0.65 l 2.8,-1.25 1.25,-0.1 0.6,0.25 0.25,0.55 -0.3,0.55 -0.6,0.3 m -4.9,18.6 -0.35,0.6 0.4,-0.05 2.65,0.25 1.1,0.6 0.65,0.85 0.15,1.25 v 0.6 l 0.2,0.15 0.25,0.5 q 0.3,0.95 0.1,1.35 0.55,-0.1 1.5,-0.95 0.85,-0.85 1.65,-0.8 0.55,0.05 1.4,1 l 0.4,0.6 q 0.1,0.45 -0.2,0.6 l -0.8,-0.15 -0.75,-0.4 -0.6,0.6 q -0.4,0.45 -1.4,0.95 -0.9,0.4 -1.4,0.4 -0.9,0 -1.3,-0.6 l -0.5,-1.35 q -0.4,0.2 -1,0.55 -0.45,0.2 -0.95,0.35 L 12.2,49.7 H 11 L 10.05,49.65 9.3,49.3 8.3,48.65 7.6,47.65 7.15,46.7 Q 6.9,46.1 7.05,45.25 L 7.15,45 6.45,44.65 5.5,43.65 H 5.3 Q 4.25,43.75 3.65,42.85 3.1,42.2 3.25,41.3 3.4,39.95 4.8,39.6 L 5.95,39.65 6.5,39.1 Q 7,38.7 7.45,38.5 L 8.35,38.35 9.9,38.5 11,38.3 q 0.65,0.1 1.05,0.55 0.4,0.45 0.4,1.1 l -0.25,1 q 0.2,0.9 -0.3,1.8 M 6,40.9 q -0.25,0.6 0.15,1.05 0.4,0.4 0.95,0.3 0.55,-0.15 0.7,-0.7 0.1,-0.6 -0.35,-0.95 L 6.9,40.35 6.8,40.4 q -0.4,0 -0.65,0.3 L 6,40.9 m 10.15,1.9 q -0.6,-0.45 -0.7,-1.45 l 0.1,-0.75 q 0.2,-0.5 0.7,-0.75 l 1,-0.2 0.9,0.55 0.4,0.95 -0.05,0.9 0.1,0.9 q 0.1,0.65 -0.4,0.8 l -0.65,-0.05 -0.6,-0.4 -0.8,-0.5 m -4.45,-2.35 -0.1,-0.5 q -0.25,-0.5 -0.85,-0.6 l -0.1,0.05 -0.25,0.05 q -0.75,0.25 -0.65,1.1 l 0.4,0.6 0.65,0.2 q 0.8,-0.1 0.9,-0.9 m 22.55,12.7 H 34.2 l -0.25,0.5 q -0.75,1 -2.55,1.55 l -1.65,0.25 -0.85,-0.2 Q 28.05,55 27.45,54.6 L 26.85,54 26.25,53 26.2,52.65 Q 25.55,52.45 25.15,51.8 24.9,51.45 24.9,50.75 25,49.5 26,49.05 q 1.1,-0.5 2,0.2 l 0.5,0.45 0.05,-0.05 h 1.2 V 49.3 q -1.05,-0.1 -1.65,-0.85 -0.75,-0.9 -0.6,-2 -1.1,-0.25 -1.55,-0.9 -0.3,-0.5 -0.3,-1.35 0.1,-1.1 0.9,-1.7 l 1,-0.7 0.4,-0.6 q 0.2,-0.15 0.45,0 l 0.3,0.4 -0.35,0.95 -0.6,0.55 q -0.45,0.35 -0.4,0.6 l 0.5,0.25 0.95,0.25 0.55,-0.45 q 0.95,-0.5 1.8,-0.65 2.1,-0.45 4.2,0.9 l 0.95,0.85 q 0.95,1 1.3,2.8 l 0.1,0.8 -0.05,0.95 q -0.3,1.75 -1.9,3.3 l -0.85,0.5 -0.65,-0.05 m -5.5,-1.3 q -0.75,0.45 -0.6,1.3 0.15,0.55 0.65,0.8 0.8,0.25 1.25,-0.25 0.55,-0.5 0.3,-1.25 -0.25,-0.7 -1.05,-0.7 l -0.55,0.1 M 8.45,54.6 q -0.9,0.1 -1.35,-0.85 -0.4,-0.85 0.1,-1.6 0.6,-0.8 1.95,-0.9 l 2.15,0.15 0.9,0.1 q 0.6,0.35 0.35,0.75 L 12.2,52.6 10.05,54 q -1,0.6 -1.6,0.6 m 35.7,-0.15 Q 43.5,54.4 42.95,53.75 42.2,53 42.25,52.05 l 0.05,-0.7 -0.1,-0.55 q 0,-0.35 0.3,-0.55 l 0.55,-0.15 0.55,0.3 0.95,0.45 0.9,0.55 q 0.85,0.85 0.45,2 l -0.7,0.8 -1.05,0.25"
         fill="#000000"
         fill-rule="evenodd"
         stroke="none"
         id="path5" />
      <path
         d="M 8.25,32.35 Q 7,30.55 6.5,28.1 5.9,24.95 6.7,22.6 7.45,20.1 9.6,18.45 L 12.1,17 15,15.75 l 1.15,-0.25 0.2,-0.15 0.75,-0.45 1.7,-0.55 3.85,-0.45 1.25,0.15 q 0.9,0.35 1.1,1.15 0.3,0.8 -0.2,1.55 l -1.25,1.2 1.15,1.05 q 1.15,1.2 1.85,2.55 1.7,-1.45 4.05,-2.35 3.05,-1.15 6.15,-1.15 3.35,0.05 6,1.5 l 1.6,1.05 0.15,-0.9 q 0.35,-2.45 0.65,-3.6 0.45,-1.95 1.3,-3.3 1.2,-2 2.95,-2.55 l 2,-0.05 q 1.05,0.25 1.65,1 0.5,0.6 0.7,1.75 0.1,1.1 -0.25,1.85 l -1.6,2 q -1.85,1.95 -2.65,4.6 l -0.7,3.5 -0.05,0.5 0.95,2.05 q 0.85,2 0.8,3.4 l -0.3,1.65 0.75,0.3 q 1.45,0.65 2.4,0.5 -0.5,-1.1 -0.5,-2.05 0.1,-1.25 1,-1.8 l 1.25,-0.35 1.1,0.1 q 1,0.4 1.35,1.8 0.7,2.3 -0.15,4.55 -0.35,0.95 -0.95,1.35 l -1.6,0.45 -3.05,0.05 q -1.05,-0.2 -3.6,-1.2 l -1.2,1.1 q -2.05,1.45 -5.45,1.45 l -1.1,-0.05 1.45,0.9 q 1.05,0.9 1.4,1.9 0.25,0.75 0,1.35 L 42.4,43.6 q -0.7,0.75 -1.7,0.5 l -1,-0.45 q -2,-1.1 -3.85,-2.5 l -1,-0.95 Q 34.3,39.35 34.4,38.1 l -2.45,-0.5 -1.8,-0.65 -1.95,-1.6 -0.4,-0.4 -0.2,0.1 -1.75,1.3 -0.4,0.3 -1.1,1.5 -0.5,1.2 -0.05,0.2 0.8,1.3 q 0.5,1.5 -0.35,2.75 -1,1.35 -2.5,1.1 -0.7,-0.1 -1.25,-0.6 -0.55,-0.55 -0.7,-1.25 L 19.75,42.3 q -0.45,-0.8 -0.5,-1.85 l 0.15,-1.3 q 0.3,-1.75 0.95,-3.1 l -0.2,0.05 -2.5,0.3 q -4.45,0.1 -7.2,-1.85 l 0.5,-0.2 3.05,-1.1 0.95,-0.8 Q 15,32 14.35,31.65 13.55,31.35 12,31.95 l -1.85,0.75 1.45,-1.3 0.85,-0.55 1.8,-0.7 q 1.5,-0.6 3.85,-1.05 l 1.1,-0.2 0.75,-0.2 q 0.4,-0.25 0.4,-0.65 0,-0.4 -0.55,-0.6 H 19 q -2.8,0.4 -7.25,2 l -0.95,0.35 -0.85,0.55 -1.6,1.7 -0.1,0.3 m 8.55,-8.2 0.6,-0.3 0.3,-0.55 -0.25,-0.55 -0.6,-0.25 -1.25,0.1 -2.8,1.25 q -0.9,0.45 -1.1,0.65 l -0.65,0.3 V 23.9 L 11.2,23.4 11,22.7 10.4,22.3 Q 9.55,22.05 9.1,22.85 8.9,23.2 8.8,24.05 L 8.65,26 8.7,26.65 9.1,27.5 9.5,28 q 0.45,0.4 1.1,0.3 0.6,0 0.95,-0.6 L 11.8,27.1 12,26.75 12.15,27 q 0.3,0.7 1.15,0.85 0.85,0.15 1.65,-0.55 0.75,-0.65 0.8,-1.5 0.05,-0.7 -0.3,-1.1 l 1.35,-0.55"
         fill="#999999"
         fill-rule="evenodd"
         stroke="none"
         id="path6" />
      <path
         d="m 58.05,45.7 0.2,-0.1 0.3,-0.05 0.1,-0.05 q 0.7,0.1 0.95,0.65 l 0.1,0.55 -0.3,0.6 q -0.4,0.45 -1,0.3 -0.65,-0.15 -0.8,-0.75 -0.1,-0.55 0.25,-0.95 l 0.2,-0.2 m -4.95,3.75 0.05,-0.4 q 0.2,-0.85 1,-0.85 h 0.1 q 0.4,0 0.75,0.3 l 0.35,0.75 -0.3,0.8 -0.7,0.35 q -0.45,0.05 -0.8,-0.25 L 53.1,49.45 M 6,40.9 6.15,40.7 Q 6.4,40.4 6.8,40.4 L 6.9,40.35 7.45,40.6 Q 7.9,40.95 7.8,41.55 7.65,42.1 7.1,42.25 6.55,42.35 6.15,41.95 5.75,41.5 6,40.9 m 5.7,-0.45 q -0.1,0.8 -0.9,0.9 l -0.65,-0.2 -0.4,-0.6 q -0.1,-0.85 0.65,-1.1 l 0.25,-0.05 0.1,-0.05 q 0.6,0.1 0.85,0.6 l 0.1,0.5 m 17.05,11.4 0.55,-0.1 q 0.8,0 1.05,0.7 0.25,0.75 -0.3,1.25 -0.45,0.5 -1.25,0.25 -0.5,-0.25 -0.65,-0.8 -0.15,-0.85 0.6,-1.3"
         fill="#ffffff"
         fill-rule="evenodd"
         stroke="none"
         id="path7" />
    </g>
    <g
       id="shape2"
       transform="translate(1.5,1.5)">
      <path
         d="M 0,23.8 V 0 H 64.1 V 23.8 57.55 H 0 Z"
         fill="none"
         stroke="#000000"
         stroke-linecap="round"
         stroke-linejoin="round"
         stroke-width="3"
         id="path8" />
    </g>
  </defs>
</svg>
