<?xml version="1.0" encoding="UTF-8" standalone="no"?>
<svg
   ffdec:objectType="frame"
   height="44.349998"
   width="78.599998"
   version="1.1"
   id="svg11"
   sodipodi:docname="56.svg"
   xmlns:inkscape="http://www.inkscape.org/namespaces/inkscape"
   xmlns:sodipodi="http://sodipodi.sourceforge.net/DTD/sodipodi-0.dtd"
   xmlns:xlink="http://www.w3.org/1999/xlink"
   xmlns="http://www.w3.org/2000/svg"
   xmlns:svg="http://www.w3.org/2000/svg"
   xmlns:ffdec="https://www.free-decompiler.com/flash">
  <sodipodi:namedview
     id="namedview11"
     pagecolor="#ffffff"
     bordercolor="#000000"
     borderopacity="0.25"
     inkscape:showpageshadow="2"
     inkscape:pageopacity="0.0"
     inkscape:pagecheckerboard="0"
     inkscape:deskcolor="#d1d1d1"
     fit-margin-top="5"
     fit-margin-left="5"
     fit-margin-right="5"
     fit-margin-bottom="5" />
  <g
     transform="translate(2,2.05)"
     id="g3">
    <use
       ffdec:characterId="1"
       height="42.700001"
       transform="translate(-1.75,-2)"
       width="76.449997"
       xlink:href="#shape0"
       id="use1" />
    <use
       ffdec:characterId="56"
       height="35.849998"
       transform="translate(-1.2,4.6)"
       width="77.599998"
       xlink:href="#shape1"
       id="use2" />
    <use
       ffdec:characterId="3"
       height="44.349998"
       transform="translate(-2,-2.05)"
       width="78.599998"
       xlink:href="#shape2"
       id="use3" />
  </g>
  <defs
     id="defs11">
    <g
       id="shape0"
       transform="translate(1.75,2)">
      <path
         d="M 2.8,0 V -0.4 H 5.4 V 0 H 9.7 V 19.45 0 H 20.55 L 19.3,19.45 H 9.7 0.25 V 0 H 2.8"
         fill="#ffffff"
         fill-rule="evenodd"
         stroke="none"
         id="path3" />
      <path
         d="M 0.25,19.45 H 9.7 19.3 L 18.7,28.6 16,28.5 10.95,27.95 9.7,27.8 Q 7.45,27.6 5.85,27.75 4.05,27.9 1.5,28.6 0.75,28.8 0.25,29.15 v -9.7 m 9.45,0 v 8.35 -8.35"
         fill="#121212"
         fill-rule="evenodd"
         stroke="none"
         id="path4" />
      <path
         d="m 9.7,27.8 1.25,0.15 5.05,0.55 2.7,0.1 h 1.05 l 3.75,0.15 q 2.45,0.3 3.6,1.25 0.6,0.5 0.6,1.1 0,0.65 -0.8,1 l -1.3,0.2 -7.15,0.15 -5.6,-0.3 L 9.7,31.75 7.95,31.6 3.1,31.95 0.95,32.3 0.25,32.1 -0.35,31.55 -0.5,31.3 V 29.9 L 0.25,29.15 Q 0.75,28.8 1.5,28.6 4.05,27.9 5.85,27.75 7.45,27.6 9.7,27.8 v 3.95 -3.95"
         fill="#999999"
         fill-rule="evenodd"
         stroke="none"
         id="path5" />
      <path
         d="M 2.8,0 H 0.25 M 9.7,0 H 5.4 m 16.15,0 h 10.7 M 20.55,0 H 9.7"
         fill="none"
         stroke="#666666"
         stroke-linecap="round"
         stroke-linejoin="round"
         stroke-width="4"
         id="path6" />
      <path
         d="m 9.7,-0.4 h 65 V 40.5 H 47.05 L 45.5,40.7 27,40.65 25.95,40.5 H 9.7 -0.5 V -0.4 H 9.7 V 40.5 -0.4"
         fill="#ffffff"
         fill-rule="evenodd"
         stroke="none"
         id="path7" />
    </g>
    <g
       id="shape1"
       transform="translate(1.2,-4.6)">
      <path
         d="m 74.25,30.6 h 0.1 0.1 0.05 l 0.25,0.05 h 0.1 l 0.1,0.05 h 0.1 l 0.2,0.05 0.1,0.1 0.1,0.05 0.1,0.05 0.1,0.05 0.1,0.1 0.1,0.1 0.05,0.05 0.05,0.05 0.1,0.1 0.05,0.1 0.05,0.05 v 0.05 l 0.05,0.05 v 0.05 l 0.05,0.05 v 0.1 l 0.05,0.05 v 0.05 L 76.35,32 v 0.1 l 0.05,0.1 v 0.25 0.1 0.25 0.1 0.05 L 76.35,33 v 0.05 L 76.3,33.1 v 0.05 0.1 l -0.05,0.05 v 0.05 L 76.2,33.4 v 0.05 l -0.05,0.05 -0.05,0.1 -0.05,0.05 v 0.05 l -0.15,0.15 -0.05,0.1 -0.1,0.05 -0.05,0.05 -0.1,0.05 -0.1,0.05 -0.1,0.05 -0.05,0.1 -0.2,0.05 -0.1,0.05 h -0.1 l -0.1,0.05 h -0.1 V 34.5 H 74.5 l 0.05,0.05 0.1,0.05 0.05,0.05 0.1,0.05 v 0.05 l 0.1,0.1 v 0.05 l 0.05,0.05 0.05,0.05 0.05,0.05 v 0.05 0.1 l 0.05,0.05 0.05,0.05 v 0.15 l 0.05,0.1 v 0.25 0.1 0.2 l -0.05,0.05 v 0.1 0.05 l -0.05,0.05 v 0.05 l -0.05,0.05 V 36.5 L 75,36.6 v 0.05 l -0.05,0.05 -0.15,0.15 -0.05,0.1 -0.1,0.05 -0.05,0.05 -0.1,0.05 -0.05,0.05 -0.15,0.05 -0.1,0.1 H 74.05 L 74,37.35 h -0.1 l 0.05,0.05 0.05,0.05 v 0.05 l 0.05,0.05 v 0.1 l 0.05,0.05 v 0.05 l 0.05,0.05 v 0.1 L 74.2,38 v 0.25 0.1 0.2 0.1 0.15 l -0.05,0.05 V 38.9 39 l -0.05,0.05 v 0.05 l -0.05,0.05 V 39.2 L 74,39.25 v 0.1 l -0.05,0.05 -0.05,0.05 v 0.05 l -0.1,0.1 -0.05,0.1 -0.05,0.05 -0.05,0.05 -0.1,0.05 -0.05,0.05 -0.05,0.05 -0.1,0.1 -0.1,0.05 -0.1,0.05 -0.1,0.05 -0.15,0.05 -0.15,0.05 H 72.7 l -0.1,0.05 h -0.1 l -0.15,0.05 h -0.2 -3.55 l -1.65,0.05 H 64.9 61.55 40.8 34.45 32.7 15.65 11.85 L 8.15,40.4 H 7.55 7.35 L 6.95,40.35 H 6.15 L 5.25,40.3 H 4.65 4.1 l -1,-0.05 H 2.5 L 2.35,40.2 H 2.15 2.1 L 2,40.15 H 1.85 L 1.7,40.05 1.55,40 1.45,39.95 1.35,39.9 1.25,39.85 1.2,39.75 1.1,39.7 H 1 l -1,-0.3 -0.65,-0.9 -0.1,-0.75 0.05,-2.65 0.05,-1.35 -0.1,-0.1 -0.1,-0.05 V 33.5 L -0.9,33.45 -0.95,33.4 -1,33.35 -1.05,33.3 -1.1,33.25 V 33.15 33.1 L -1.15,33.05 V 33 L -1.2,32.95 V 32.9 32.8 32.55 32.45 32.2 32.1 l 0.05,-0.05 V 32 L -1.1,31.95 V 31.9 L -1.05,31.85 -1,31.75 V 31.7 l 0.05,-0.05 0.15,-0.15 0.05,-0.1 0.1,-0.05 0.1,-0.05 0.05,-0.05 0.1,-0.05 0.15,-0.1 h 0.1 l 0.1,-0.05 h 0.1 0.2 L 0.45,31 H 0.6 l 0.05,-0.05 h 0.1 0.1 l 0.1,-0.05 h 0.1 L 1.2,30.85 h 0.25 0.5 l 1.7,-0.05 h 1 L 6.9,30.75 h 4.2 1.4 11.65 10.65 3.55 20.8 8.3 4.7 L 73.6,30.7 h 0.1 0.05 l 0.1,-0.05 H 74 74.25 V 30.6"
         fill="#767676"
         fill-rule="evenodd"
         stroke="none"
         id="path8" />
      <path
         d="m 32.7,5.8 3.4,-0.5 3,0.5 1.35,-0.75 1.7,-0.45 q 1.05,0 1.55,0.7 l 0.35,0.7 0.25,0.85 0.1,0.6 0.1,2 V 9.7 l 0.2,0.4 0.95,2.65 q 0.7,2.65 0,4.75 l -1.25,2.4 -1.45,1.85 2.3,2.9 1.45,2.95 0.1,0.35 q 1.3,0.35 1.85,1.55 0.6,1.3 -0.05,2.5 l -1,1.25 -0.55,0.55 q -0.35,0.25 -0.75,0.45 l -1.05,0.6 v 0.1 l -0.5,1.35 q -0.5,0.7 -1.25,0.75 l -0.1,0.05 -0.9,0.15 -1.6,-0.25 -0.4,-0.2 -0.3,-0.2 -6.5,0.45 -2.3,-0.2 -1.65,0.9 -1.05,0.35 q -1.15,0.1 -1.85,-0.6 -0.7,-0.7 -0.6,-1.6 L 26.1,35.85 24.7,35.3 Q 23.5,34.75 22.9,34.25 22,33.5 21.8,32.55 v -1 L 22,30.7 q 0.25,-0.65 1.35,-1.55 L 24.4,28.5 24.65,28.45 Q 24.8,27.2 25.3,26 q 0.8,-2 2.35,-3.4 0.4,-0.4 1.15,-0.95 L 27.5,20.3 q -1.1,-1.4 -1.45,-3.25 -0.4,-1.8 0,-3.6 l 0.1,-0.4 -0.05,-0.1 -0.35,-0.5 L 25.4,11.7 24.75,10.2 24.8,9.65 25,8.9 Q 25.35,8.25 26.6,7.85 L 27.5,7.6 29.65,7.65 29.9,7.45 Q 31.15,6.4 32.7,5.8 M 33.3,18.5 34.05,17 H 33.5 32.25 31.45 30.75 29.6 29.05 28.3 q 0.1,0.75 0.55,1.35 0.5,0.7 1.2,1 l 2.35,-0.1 0.8,-0.6 0.1,-0.15 m 10.2,-0.8 0.1,-0.35 0.1,-0.45 H 43.65 L 43.5,16.95 43.35,17 43.2,17.05 h -0.1 v 0.05 h -1.2 -0.2 -0.6 -0.35 -0.2 L 39.2,17.05 h -0.15 -0.2 -1.05 q 0.1,1.1 0.95,1.8 1.2,1 2.7,0.7 1.5,-0.4 2.05,-1.85"
         fill="#000000"
         fill-rule="evenodd"
         stroke="none"
         id="path9" />
      <path
         d="m 43.5,17.7 q -0.55,1.45 -2.05,1.85 -1.5,0.3 -2.7,-0.7 -0.85,-0.7 -0.95,-1.8 h 1.05 0.2 0.15 l 1.35,0.05 h 0.2 0.35 0.6 0.2 1.2 v -0.05 h 0.1 L 43.35,17 43.5,16.95 43.65,16.9 h 0.05 l -0.1,0.45 -0.1,0.35 m -10.2,0.8 -0.1,0.15 -0.8,0.6 -2.35,0.1 q -0.7,-0.3 -1.2,-1 Q 28.4,17.75 28.3,17 h 0.75 0.55 1.15 0.7 0.8 1.25 0.55 l -0.75,1.5"
         fill="#ffffff"
         fill-rule="evenodd"
         stroke="none"
         id="path10" />
    </g>
    <g
       id="shape2"
       transform="translate(2,2.05)">
      <path
         d="M -0.5,-0.4 V -0.55 H 75.1 V -0.4 40.8 H -0.5 Z"
         fill="none"
         stroke="#000000"
         stroke-linecap="round"
         stroke-linejoin="round"
         stroke-width="3"
         id="path11" />
    </g>
  </defs>
</svg>
