<?xml version="1.0" encoding="UTF-8" standalone="no"?>
<svg
   ffdec:objectType="frame"
   height="60.549999"
   width="67.099998"
   version="1.1"
   id="svg7"
   sodipodi:docname="768.svg"
   xmlns:inkscape="http://www.inkscape.org/namespaces/inkscape"
   xmlns:sodipodi="http://sodipodi.sourceforge.net/DTD/sodipodi-0.dtd"
   xmlns:xlink="http://www.w3.org/1999/xlink"
   xmlns="http://www.w3.org/2000/svg"
   xmlns:svg="http://www.w3.org/2000/svg"
   xmlns:ffdec="https://www.free-decompiler.com/flash">
  <sodipodi:namedview
     id="namedview7"
     pagecolor="#ffffff"
     bordercolor="#000000"
     borderopacity="0.25"
     inkscape:showpageshadow="2"
     inkscape:pageopacity="0.0"
     inkscape:pagecheckerboard="0"
     inkscape:deskcolor="#d1d1d1"
     fit-margin-top="5"
     fit-margin-left="5"
     fit-margin-right="5"
     fit-margin-bottom="5" />
  <g
     transform="translate(1.5,1.5)"
     id="g3">
    <use
       ffdec:characterId="516"
       height="57.549999"
       width="64.099998"
       xlink:href="#shape0"
       id="use1" />
    <use
       ffdec:characterId="1257"
       height="52.25"
       transform="translate(-0.9,5.3)"
       width="65.599998"
       xlink:href="#shape1"
       id="use2" />
    <use
       ffdec:characterId="518"
       height="60.549999"
       transform="translate(-1.5,-1.5)"
       width="67.099998"
       xlink:href="#shape2"
       id="use3" />
  </g>
  <defs
     id="defs7">
    <g
       id="shape0">
      <path
         d="M 53.6,0 H 64.1 V 57.55 H 53.6 28.25 0 V 0 H 28.25 53.6 V 57.55 0 M 28.25,0 V 57.55 0"
         fill="#ffffff"
         fill-rule="evenodd"
         stroke="none"
         id="path3" />
    </g>
    <g
       id="shape1"
       transform="translate(0.9,-5.3)">
      <path
         d="M 64.1,57.55 H 0 V 41.7 l -0.1,-0.05 q -0.75,-0.45 -0.8,-1.45 -0.05,-0.95 0.55,-1.65 0.95,-1.1 3.2,-1.3 2.3,-0.2 4.7,0.55 l 1.65,0.6 0.55,0.15 h 2.05 l 1.4,-0.5 2.2,-1.05 q 2,-0.8 3.95,-0.5 l 2.65,0.55 3.5,0.35 3.45,0.15 1.2,0.25 q 3.75,-0.9 6.25,-1.05 4.2,-0.35 7.35,0.75 l 2.9,0.85 L 50,37.5 q 7.5,-2.85 12.65,-0.6 1.3,0.6 1.45,1.4 v 0.6 18.65 m -53.7,-40 q 0.2,-0.8 0.85,-1.7 l 1.2,-1.5 q 1.6,-2 1,-3.55 l 0.4,0.85 q 0.6,1.8 0.4,2.7 -0.2,0.8 -1.1,1.8 l -1.35,1.75 -0.4,1.9 q 0,1.25 0.45,2 l 1.35,1.45 q 1.15,1.4 0.85,3.1 l -0.5,1.35 -1.3,1.8 -1.05,1.05 q -0.55,0.65 -0.55,1.3 l 0.15,0.9 0.05,0.85 -0.05,0.35 0.35,0.35 0.25,0.3 -0.25,0.15 -0.4,-0.15 Q 9.9,33.85 9.7,31.8 v -1.35 q 0.15,-0.6 0.65,-1.2 l 1.5,-2.2 q 0.75,-1.35 0.4,-2.6 L 11.85,23.5 11.3,22.6 10.75,21.15 q -0.6,-2.5 -0.35,-3.6 m 5.4,16.4 -0.7,0.4 Q 14.65,34.45 14.45,34 l -0.1,-0.8 -0.4,-0.55 Q 13.55,32.1 13.65,30.9 L 13.75,30 Q 13.9,29.35 14.7,28.35 15.85,27 16.45,26.6 l 1,-0.9 0.15,-1.05 -0.1,-0.95 -0.5,-1.35 -0.7,-1.2 q -0.85,-1.65 -0.45,-2.75 0.1,-0.35 0.3,-0.35 0.25,-0.05 0.5,0.55 l 0.8,1.2 0.95,1.05 q 1.7,2 1.35,4.6 -0.15,1 -0.65,1.7 l -0.8,0.7 -0.85,0.65 -1.2,1.3 q -0.8,1.05 -0.6,1.7 L 16,32.05 q 0.5,0.95 -0.2,1.9 M 8.4,25.3 8.35,26.8 7.5,28.6 q -0.4,1 -0.6,3.15 l 0.05,1.8 q -1.4,-1.15 -1.3,-3.1 0.05,-1.7 1.3,-3.2 L 7.7,25.8 7.6,25.2 q 0,-0.4 0.3,-0.5 0.4,-0.05 0.5,0.6"
         fill="#999999"
         fill-rule="evenodd"
         stroke="none"
         id="path4" />
      <path
         d="m 59.65,21.7 0.55,0.55 0.4,-0.05 h 1.35 q 1.55,0 2.25,0.75 0.5,0.55 0.5,1.5 0,0.75 -0.5,1.5 l -1.5,1.7 q 0.2,1.85 -0.55,4.05 -0.9,3 -2.85,4.5 -1.9,1.5 -4.7,1.4 l -2.8,-0.35 0.9,1.6 0.45,0.5 0.7,0.1 1.9,0.15 q 1,0.25 1.6,1 0.65,0.75 0.5,1.85 -0.25,1.05 -1.1,1.6 l -2.45,0.45 -2.45,-0.45 -1.1,-0.9 -1.6,-2.75 -0.2,0.6 -0.3,0.55 -0.4,0.5 -0.75,0.55 -2.1,0.25 -1.6,-0.5 Q 43.05,41.85 42.95,41 v -0.9 l -0.1,-0.7 V 38.8 L 42.7,37.15 h -0.55 l -0.05,0.8 -0.3,0.75 -0.6,1.1 -1.15,1.1 -0.25,0.2 -0.85,1.2 q 1.45,0.5 2.05,1.15 1,1.1 0.45,2.5 l -0.9,0.95 -1.3,0.3 -1.05,-0.4 -1.05,-0.5 -1.9,-0.5 q -1.2,-0.25 -1.65,-1 -0.55,-0.9 0,-2.2 0.4,-0.95 1.45,-2.15 L 35.3,40.2 q 0.1,-0.85 0.5,-2.15 l 0.05,-0.2 Q 33,38 30.35,36.6 l -1.6,-1 -0.45,1.15 -0.9,1.5 0.1,1.15 0.1,0.35 1.1,2.4 q 0.65,1.6 0,2.6 -0.45,0.8 -1.8,1.3 l -2.55,0.2 Q 22.9,46 22.3,44.85 q -0.55,-1 -0.05,-2.15 0.45,-1.05 1.65,-1.45 l -0.25,-0.8 -0.15,-0.35 -0.1,-1.25 -0.35,-1.5 v -0.3 l -0.2,-0.45 q -0.25,-0.95 -0.15,-2.35 -0.05,-1.4 0.4,-3.4 0.45,-1.85 1.05,-2.9 0.55,-1.05 1.2,-1.45 h 0.05 q 0.55,-2.05 2,-3.8 1.85,-2.25 4.5,-3.35 0.85,-0.35 1.8,-0.55 l -0.1,-1.05 q 0,-2.3 0.35,-3.35 l 0.65,-1.55 q 1.75,-3.6 3.15,-5 2.3,-2.3 5.5,-2.55 l 2.35,0.25 q 1.25,0.5 1.75,1.5 l 0.3,1.5 -0.2,1.25 q -0.4,1.1 -1.4,1.7 l -1.8,0.6 -1.8,0.55 -1.35,0.95 q -0.8,0.6 -1.45,1.4 -0.85,1.15 -1.45,2.8 l -0.15,0.7 q 2.55,0.2 4.9,1.25 1.2,0.55 2.7,1.45 0.95,0.55 1.55,1.05 l 0.4,-1.4 Q 48.2,19.2 49,18.8 l 1.75,0.1 1.45,1 0.75,0.85 2.95,-0.2 q 2.5,0.1 3.75,1.15 m -0.6,11.6 q 0.35,-0.3 0.2,-0.7 l -0.6,-0.45 -0.7,0.1 -0.8,0.35 -0.45,-0.3 -0.45,-0.75 v -0.4 q -0.1,-0.8 -0.7,-0.8 Q 55.3,30.3 54.6,30.9 l -1.9,0.05 -0.3,-0.25 -0.25,-0.35 -0.35,-0.7 q -0.35,-0.45 -0.7,-0.2 l -0.2,0.45 v 1.05 l 0.5,0.95 0.95,0.75 0.85,0.05 1.65,-0.35 q 0.55,1.2 1.5,1.55 l 0.8,0.1 1,-0.25 0.4,-0.25 0.5,-0.2 M 51,25.8 49.85,26.2 q -0.55,0.25 -0.45,0.8 0.1,0.7 0.65,0.6 l 0.6,-0.3 0.8,-0.2 1.05,0.25 0.45,0.65 0.75,0.15 0.65,-0.4 L 54.5,27 Q 54.45,26.5 53.9,26.15 L 52.95,25.75 51.85,25.6 51,25.8 m 9.4,4.05 q 0.55,0.35 1,-0.2 0.35,-0.4 0.05,-1 L 61.1,28.2 60.5,27.7 59.35,27.5 q -0.85,0.1 -1.15,0.45 l -0.2,0.4 0.15,0.4 q 0.4,0.4 0.8,0.25 l 0.55,-0.05 q 0.3,0 0.5,0.4 l 0.4,0.5 m -12.95,7.3 -0.65,-1.4 -0.25,0.1 -0.45,0.2 v 0.1 l 0.2,0.9 0.1,0.9 q 0.6,-0.2 1.25,0 l 0.3,0.1 -0.5,-0.9 M 33.5,23.65 q -0.4,-0.4 -0.8,-0.25 l -0.4,0.45 0.05,0.6 0.1,0.45 -0.65,0.3 -0.6,0.45 q -0.3,0.4 -0.1,0.85 0.3,0.45 0.75,0.3 l 0.65,-0.6 0.4,-0.2 0.3,0.25 0.7,0.25 q 0.75,0 0.85,-0.8 l -0.1,-0.65 0.3,-0.25 0.35,-0.3 Q 35.5,24 35.05,23.8 l -0.8,0.15 -0.2,0.15 -0.05,-0.05 -0.5,-0.4 m -13.05,22.5 q 0.3,1.2 -0.55,2.3 -0.65,0.8 -1.95,1.4 -1.4,0.7 -3.5,1.05 -3.95,0.8 -7,0.05 Q 6.3,50.65 5.7,50.25 4.75,49.65 4.55,48.8 4.05,47.3 5.4,46.05 5.75,45.7 6.25,45.4 L 6.2,44.3 q 0.15,-1.1 0.65,-1.95 l 0.65,-0.85 1.25,-1.15 1.4,-0.45 0.4,-0.05 0.2,-0.7 q 0.25,-0.8 1.15,-1.6 0.35,-0.3 0.85,-0.45 l 0.4,-0.05 0.8,0.1 q 0.5,0.25 0.6,0.75 0.15,0.5 -0.2,1 l -0.2,0.3 Q 14,39.5 14.3,40 l 0.1,0.15 q 1.3,0 2.55,0.75 l 1.2,1 q 0.5,0.8 0.6,1.85 l -0.05,0.7 0.35,0.15 q 1.1,0.5 1.4,1.55"
         fill="#000000"
         fill-rule="evenodd"
         stroke="none"
         id="path5" />
      <path
         d="M 60.4,29.85 60,29.35 q -0.2,-0.4 -0.5,-0.4 L 58.95,29 q -0.4,0.15 -0.8,-0.25 l -0.15,-0.4 0.2,-0.4 q 0.3,-0.35 1.15,-0.45 l 1.15,0.2 0.6,0.5 0.35,0.45 q 0.3,0.6 -0.05,1 -0.45,0.55 -1,0.2 M 51,25.8 l 0.85,-0.2 1.1,0.15 0.95,0.4 Q 54.45,26.5 54.5,27 L 54.35,27.75 53.7,28.15 52.95,28 52.5,27.35 51.45,27.1 l -0.8,0.2 -0.6,0.3 Q 49.5,27.7 49.4,27 49.3,26.45 49.85,26.2 L 51,25.8 m 8.05,7.5 -0.5,0.2 -0.4,0.25 -1,0.25 -0.8,-0.1 Q 55.4,33.55 54.85,32.35 L 53.2,32.7 52.35,32.65 51.4,31.9 50.9,30.95 V 29.9 l 0.2,-0.45 q 0.35,-0.25 0.7,0.2 l 0.35,0.7 0.25,0.35 0.3,0.25 1.9,-0.05 q 0.7,-0.6 0.95,-0.55 0.6,0 0.7,0.8 v 0.4 l 0.45,0.75 0.45,0.3 0.8,-0.35 0.7,-0.1 0.6,0.45 q 0.15,0.4 -0.2,0.7 m -25.55,-9.65 0.5,0.4 0.05,0.05 0.2,-0.15 0.8,-0.15 q 0.45,0.2 0.25,0.7 l -0.35,0.3 -0.3,0.25 0.1,0.65 q -0.1,0.8 -0.85,0.8 L 33.2,26.25 32.9,26 l -0.4,0.2 -0.65,0.6 q -0.45,0.15 -0.75,-0.3 -0.2,-0.45 0.1,-0.85 l 0.6,-0.45 0.65,-0.3 -0.1,-0.45 -0.05,-0.6 0.4,-0.45 q 0.4,-0.15 0.8,0.25"
         fill="#ffffff"
         fill-rule="evenodd"
         stroke="none"
         id="path6" />
    </g>
    <g
       id="shape2"
       transform="translate(1.5,1.5)">
      <path
         d="M 0,23.8 V 0 H 64.1 V 23.8 57.55 H 0 Z"
         fill="none"
         stroke="#000000"
         stroke-linecap="round"
         stroke-linejoin="round"
         stroke-width="3"
         id="path7" />
    </g>
  </defs>
</svg>
