<?xml version="1.0" encoding="UTF-8" standalone="no"?>
<svg
   ffdec:objectType="frame"
   height="60.549999"
   width="67.099998"
   version="1.1"
   id="svg7"
   sodipodi:docname="504.svg"
   xmlns:inkscape="http://www.inkscape.org/namespaces/inkscape"
   xmlns:sodipodi="http://sodipodi.sourceforge.net/DTD/sodipodi-0.dtd"
   xmlns:xlink="http://www.w3.org/1999/xlink"
   xmlns="http://www.w3.org/2000/svg"
   xmlns:svg="http://www.w3.org/2000/svg"
   xmlns:ffdec="https://www.free-decompiler.com/flash">
  <sodipodi:namedview
     id="namedview7"
     pagecolor="#ffffff"
     bordercolor="#000000"
     borderopacity="0.25"
     inkscape:showpageshadow="2"
     inkscape:pageopacity="0.0"
     inkscape:pagecheckerboard="0"
     inkscape:deskcolor="#d1d1d1"
     fit-margin-top="5"
     fit-margin-left="5"
     fit-margin-right="5"
     fit-margin-bottom="5" />
  <g
     transform="translate(1.5,1.5)"
     id="g3">
    <use
       ffdec:characterId="516"
       height="57.549999"
       width="64.099998"
       xlink:href="#shape0"
       id="use1" />
    <use
       ffdec:characterId="1000"
       height="44.900002"
       transform="translate(0.35,6)"
       width="63.950001"
       xlink:href="#shape1"
       id="use2" />
    <use
       ffdec:characterId="518"
       height="60.549999"
       transform="translate(-1.5,-1.5)"
       width="67.099998"
       xlink:href="#shape2"
       id="use3" />
  </g>
  <defs
     id="defs7">
    <g
       id="shape0">
      <path
         d="M 53.6,0 H 64.1 V 57.55 H 53.6 28.25 0 V 0 H 28.25 53.6 V 57.55 0 M 28.25,0 V 57.55 0"
         fill="#ffffff"
         fill-rule="evenodd"
         stroke="none"
         id="path3" />
    </g>
    <g
       id="shape1"
       transform="translate(-0.35,-6)">
      <path
         d="m 62,35 h 0.7 0.25 0.25 0.1 l 0.2,0.05 0.15,0.05 0.15,0.05 0.15,0.1 0.05,0.05 0.1,0.1 0.05,0.05 v 0.1 l 0.05,0.1 0.05,0.05 v 0.1 l 0.05,0.05 v 0.1 0.05 0.1 0.05 l -0.05,0.1 v 0.1 0.05 l -0.05,0.1 -0.05,0.05 -0.05,0.1 -0.05,0.05 -0.05,0.1 -0.1,0.05 -0.1,0.1 -0.1,0.05 -0.1,0.05 H 63.5 L 63.3,37.1 H 63.2 62.95 62.7 62 l -0.2,-0.05 h -1.7 -0.45 -0.4 -1.2 -1 L 56.65,37 55.9,36.95 H 54.4 L 52,36.9 h -4.8 l -3.85,-0.05 h -6.8 l -1.5,-0.05 h -4.5 -3.4 -0.55 l -1.3,-0.05 h -3 L 17.9,36.8 H 15.2 11.15 10 9.3 7.65 6.7 5.9 L 4.2,36.75 H 2.95 L 2.45,36.7 H 2.05 L 1.9,36.65 H 1.75 1.35 L 1.15,36.7 H 1.1 L 0.85,36.65 0.7,36.6 0.6,36.5 0.5,36.45 0.45,36.35 0.4,36.3 0.35,36.2 V 36.1 36.05 35.95 35.9 L 0.4,35.8 0.45,35.75 0.5,35.65 0.6,35.6 0.75,35.55 0.9,35.5 0.95,35.45 H 1.1 1.15 1.75 L 1.9,35.4 h 0.15 l 0.4,-0.05 h 0.5 L 4.2,35.3 H 5.9 6.7 7.65 L 9.3,35.25 h 0.7 1.15 4.05 l 2.7,0.05 h 4.4 3 1.3 0.55 3.4 l 4.5,-0.05 h 1.5 l 6.8,-0.05 H 47.2 L 52,35.15 h 2.4 l 1.5,-0.05 h 0.75 l 0.4,-0.05 h 1 1.2 0.4 0.45 1.7 0.2 V 35 m -38.75,4.3 0.3,-0.5 q 0.4,-0.3 0.85,-0.4 0.4,0.05 0.9,0.45 l 0.6,0.8 1,2.7 h 6.35 q 4.7,0 8.2,0.15 l 0.3,-1.1 -0.05,-0.75 0.15,-0.8 0.2,-1.1 0.15,-0.35 0.05,-0.35 q 0,-0.65 0.6,-0.9 l 1.1,0.15 0.4,0.45 1.1,1.8 1,3.15 0.05,0.2 0.45,0.05 0.7,0.1 0.95,0.05 2.35,0.3 q 1.35,0.45 1.5,1.7 0.05,1.45 -2.1,2.5 l -0.7,0.35 -1.45,0.65 -1.25,0.3 q -3.25,1 -7.7,1.45 Q 27.8,51.5 14.9,50.2 q -3.25,-0.3 -4,-1.8 l -0.1,-0.05 q -1.1,-0.8 -0.85,-2 0.2,-1.15 2.1,-1.95 l 0.3,-0.1 q 0.85,-0.55 2.05,-0.9 l 1.2,-0.25 h 0.1 l 2.6,-0.55 3.8,-0.2 0.05,-0.35 0.45,-1 0.1,-0.55 Q 22.75,40 23.25,39.3 M 31.8,11.4 31.6,12.15 Q 31.3,12.6 30.9,12.3 L 30.75,11.95 30.25,8.35 30.1,7 q 0.15,-0.9 1.15,-1 0.9,-0.1 1.25,0.8 0.2,0.6 -0.2,1.75 -0.45,1.65 -0.5,2.85 m 7.1,-3 q 0.6,0.6 0.35,1.3 l -1.15,1.05 -2.25,1.95 q -0.4,0.4 -0.7,0.35 -0.4,-0.1 -0.4,-0.6 L 35.1,11.75 36.5,9.5 36.85,8.65 Q 37.15,8.15 37.8,8.1 38.5,8 38.9,8.4 m -14.45,0.55 0.75,0.8 1.4,2.2 0.25,0.55 -0.05,0.55 -0.45,0.3 Q 26,13.4 25.6,13 l -2.2,-2.05 -0.5,-0.9 Q 22.8,9.4 23.35,9 l 1.1,-0.05"
         fill="#767676"
         fill-rule="evenodd"
         stroke="none"
         id="path4" />
      <path
         d="m 41,19.6 q 1.45,1.5 2.4,3.4 l 0.85,2 q 0.9,2.35 1.15,4.2 H 44.85 L 43.95,29.7 42,30.45 Q 39.45,31.3 36.7,31.2 L 35.5,27.1 35.15,26.1 35,25.45 35.45,25 40.35,20.4 41,19.6 m 4.9,10.35 0.7,-1.45 q 0.7,-1.4 1.75,-2.05 1.4,-1 3.55,-0.65 l 1.05,0.3 0.45,0.05 q 2.1,0.55 3,2.6 l 0.5,1.5 -0.45,-0.6 q -0.5,-0.5 -1.15,-0.5 -0.65,0 -1.1,0.5 -0.5,0.5 -0.55,1.15 l 0.1,0.65 0.55,0.7 1.15,0.35 q 0.65,-0.05 1.1,-0.55 l 0.4,-0.65 -0.25,1.5 -0.4,1.05 q -0.65,1.25 -2.4,2.2 l -0.1,0.05 -0.1,0.15 q -1.7,2.4 -4.35,3.7 -3.6,1.7 -7.55,1 l -2.45,-0.65 0.65,1 q 0.8,1.35 0.9,3.05 l -0.05,1.2 q -0.3,1.55 -1.75,2.3 L 36.25,47.8 q -1.45,-0.7 -1.6,-2.35 v -1.2 l 0.4,-3.9 q -1.9,0.75 -4.2,1.05 l -8.05,-0.35 -3.65,-0.9 -0.05,0.2 v 1.95 l -0.15,1.65 Q 18.8,45.5 17.5,46.2 l -2.7,0.1 q -1.4,-0.65 -1.55,-2.2 -0.1,-0.7 0.2,-2 l 0.45,-2 0.45,-1.65 H 14.3 L 12.55,38.3 q -0.95,-0.25 -1.5,-0.8 l -0.4,-0.65 0.15,-0.4 0.5,-0.25 2.35,-0.35 -0.1,-0.1 q -0.55,-0.8 -0.6,-2.1 l 0.35,0.3 q 1.9,1.5 4.85,2.4 l 5.45,1.2 4.35,0.6 7.95,-0.2 0.4,-0.05 3.9,-0.9 2,-0.85 q 1.1,-0.65 1.25,-1.75 -0.8,0.1 -2.55,0.85 l -3.8,1.1 -0.15,-3.3 0.35,-0.1 0.35,-0.1 0.9,-0.05 4.3,-0.9 2,-0.95 0.65,-0.35 v 0.05 L 45.6,30.5 45.65,30.4 45.9,30 V 29.95 M 13,32.7 v -0.1 l 0.3,-2.05 0.65,0.05 q 1.85,0.1 5.45,1.25 l -0.3,0.65 -0.2,1.45 0.25,1.3 q -2.85,-0.8 -5.4,-2.1 L 13,32.7 m 0.75,-3.9 0.95,-2.65 q 2.15,-4.9 6.15,-7.7 l 0.25,0.9 2.15,4.5 0.15,0.2 -0.15,0.15 -1.45,2.1 -2.35,3.7 -2.9,-0.6 -2.6,-0.6 h -0.2 m 7.9,-10.9 0.85,-0.5 q 2.65,-1.45 5.6,-1.85 L 33,15.7 q 1.6,0 3.5,0.8 1.9,0.85 3.45,2.1 l -0.4,0.25 -5.25,4.6 L 33.65,23.9 32.3,23.85 24.65,22.65 22.1,18.4 21.65,17.9 M 49.45,32 q 0.5,-0.6 0.35,-1.35 -0.05,-0.55 -0.55,-0.95 -0.45,-0.4 -1,-0.45 -0.55,0 -1.05,0.35 -0.5,0.35 -0.65,0.9 -0.15,0.55 0.1,1.1 l 0.75,0.8 1.1,0.15 0.95,-0.55 m -17.8,4.8 -4.6,-0.25 0.05,-0.5 0.5,-1.65 0.2,-0.4 0.65,0.05 2.6,0.1 3.15,-0.45 1.55,-0.35 q 0.25,1.55 0.05,3.2 l -4.15,0.25 m 0.85,-10.9 1.25,0.2 0.1,0.65 1.25,5 -1.75,0.45 -2.6,0.25 -6.85,-0.8 Q 22.15,31.3 21.05,30.75 H 21 Q 21.75,29 24.2,24.9 l 0.15,-0.15 h 0.15 l 4.05,0.4 3.95,0.75 m -10.35,9.95 -2.3,-0.45 v -0.6 q 0.2,-1.55 0.6,-2.15 l 0.3,-0.35 0.65,0.25 1.75,0.55 1.25,0.35 1.95,0.4 -0.15,0.45 q -0.15,1.1 -0.15,2.15 l -3.9,-0.6"
         fill="#000000"
         fill-rule="evenodd"
         stroke="none"
         id="path5" />
      <path
         d="m 39.95,18.6 0.35,-0.15 q 0.6,-0.1 0.8,0.55 l -0.1,0.6 -0.65,0.8 -4.9,4.6 -0.45,0.45 0.15,0.65 0.35,1 1.2,4.1 q 2.75,0.1 5.3,-0.75 l 1.95,-0.75 0.9,-0.5 h 0.55 l 0.4,0.35 0.1,0.4 V 30 l -0.25,0.4 -0.05,0.1 -0.1,0.1 -0.65,0.35 -2,0.95 -4.3,0.9 -0.9,0.05 -0.35,0.1 -0.35,0.1 0.15,3.3 3.8,-1.1 q 1.75,-0.75 2.55,-0.85 -0.15,1.1 -1.25,1.75 l -2,0.85 -3.9,0.9 -0.4,0.05 -7.95,0.2 -4.35,-0.6 -5.45,-1.2 q -2.95,-0.9 -4.85,-2.4 l -0.35,-0.3 q -1.25,-1.15 -1.1,-2.2 0.3,0.1 0.6,0.5 l 0.4,0.6 0.15,0.15 0.75,0.45 q 2.55,1.3 5.4,2.1 l -0.25,-1.3 0.2,-1.45 0.3,-0.65 Q 15.8,30.7 13.95,30.6 L 13.3,30.55 Q 12.6,30.4 12.4,30.1 l -0.15,-0.6 0.3,-0.6 1.2,-0.1 h 0.2 l 2.6,0.6 2.9,0.6 2.35,-3.7 1.45,-2.1 0.15,-0.15 -0.15,-0.2 -2.15,-4.5 -0.25,-0.9 q 0.1,-0.7 0.6,-0.6 l 0.2,0.05 0.45,0.5 2.55,4.25 7.65,1.2 1.35,0.05 0.65,-0.45 5.25,-4.6 0.4,-0.25 m 16.95,11.65 0.1,0.5 -0.05,0.55 -0.4,0.65 q -0.45,0.5 -1.1,0.55 l -1.15,-0.35 -0.55,-0.7 -0.1,-0.65 q 0.05,-0.65 0.55,-1.15 0.45,-0.5 1.1,-0.5 0.65,0 1.15,0.5 l 0.45,0.6 M 49.45,32 48.5,32.55 47.4,32.4 46.65,31.6 q -0.25,-0.55 -0.1,-1.1 0.15,-0.55 0.65,-0.9 0.5,-0.35 1.05,-0.35 0.55,0.05 1,0.45 0.5,0.4 0.55,0.95 0.15,0.75 -0.35,1.35 m -27.3,3.85 3.9,0.6 q 0,-1.05 0.15,-2.15 l 0.15,-0.45 -1.95,-0.4 -1.25,-0.35 -1.75,-0.55 -0.65,-0.25 -0.3,0.35 q -0.4,0.6 -0.6,2.15 v 0.6 l 2.3,0.45 M 32.5,25.9 28.55,25.15 24.5,24.75 H 24.35 L 24.2,24.9 Q 21.75,29 21,30.75 h 0.05 q 1.1,0.55 2.85,0.9 l 6.85,0.8 2.6,-0.25 1.75,-0.45 -1.25,-5 -0.1,-0.65 -1.25,-0.2 M 31.65,36.8 35.8,36.55 Q 36,34.9 35.75,33.35 l -1.55,0.35 -3.15,0.45 -2.6,-0.1 -0.65,-0.05 -0.2,0.4 -0.5,1.65 -0.05,0.5 4.6,0.25"
         fill="#ffffff"
         fill-rule="evenodd"
         stroke="none"
         id="path6" />
    </g>
    <g
       id="shape2"
       transform="translate(1.5,1.5)">
      <path
         d="M 0,23.8 V 0 H 64.1 V 23.8 57.55 H 0 Z"
         fill="none"
         stroke="#000000"
         stroke-linecap="round"
         stroke-linejoin="round"
         stroke-width="3"
         id="path7" />
    </g>
  </defs>
</svg>
