<?xml version="1.0" encoding="UTF-8" standalone="no"?>
<svg
   ffdec:objectType="frame"
   height="60.549999"
   width="67.099998"
   version="1.1"
   id="svg7"
   sodipodi:docname="601.svg"
   xmlns:inkscape="http://www.inkscape.org/namespaces/inkscape"
   xmlns:sodipodi="http://sodipodi.sourceforge.net/DTD/sodipodi-0.dtd"
   xmlns:xlink="http://www.w3.org/1999/xlink"
   xmlns="http://www.w3.org/2000/svg"
   xmlns:svg="http://www.w3.org/2000/svg"
   xmlns:ffdec="https://www.free-decompiler.com/flash">
  <sodipodi:namedview
     id="namedview7"
     pagecolor="#ffffff"
     bordercolor="#000000"
     borderopacity="0.25"
     inkscape:showpageshadow="2"
     inkscape:pageopacity="0.0"
     inkscape:pagecheckerboard="0"
     inkscape:deskcolor="#d1d1d1"
     fit-margin-top="5"
     fit-margin-left="5"
     fit-margin-right="5"
     fit-margin-bottom="5" />
  <g
     transform="translate(1.5,1.5)"
     id="g3">
    <use
       ffdec:characterId="516"
       height="57.549999"
       width="64.099998"
       xlink:href="#shape0"
       id="use1" />
    <use
       ffdec:characterId="1093"
       height="51.200001"
       transform="translate(4.05,3.1)"
       width="56.450001"
       xlink:href="#shape1"
       id="use2" />
    <use
       ffdec:characterId="518"
       height="60.549999"
       transform="translate(-1.5,-1.5)"
       width="67.099998"
       xlink:href="#shape2"
       id="use3" />
  </g>
  <defs
     id="defs7">
    <g
       id="shape0">
      <path
         d="M 53.6,0 H 64.1 V 57.55 H 53.6 28.25 0 V 0 H 28.25 53.6 V 57.55 0 M 28.25,0 V 57.55 0"
         fill="#ffffff"
         fill-rule="evenodd"
         stroke="none"
         id="path3" />
    </g>
    <g
       id="shape1"
       transform="translate(-4.05,-3.1)">
      <path
         d="m 18.6,28.75 0.25,0.1 0.1,0.05 q 1.1,3.75 1.05,7.75 l 0.15,4.7 0.1,0.35 0.05,0.45 2.45,0.3 q 0.7,0.25 1.05,0.95 l 0.25,0.85 1.4,-0.05 8.15,0.2 7.75,0.35 5.5,0.35 3.95,0.4 -0.05,-0.3 -0.9,-1.05 -0.5,-0.95 -0.05,-0.3 0.05,-0.25 Q 49.5,42.3 49.9,42.3 v -0.05 q 1,0 1.7,0.6 l 0.6,0.4 q 2.75,-0.25 5.3,0.8 l 0.6,0.65 q 0.65,1.55 -0.35,2.45 l 1.6,0.8 q 1.6,1 1,2.7 Q 60,51.6 59,52 55.6,53.3 52,53.65 L 44.15,54.2 39.5,54.3 31.6,54.2 23.5,53.9 22.95,53.85 10.4,53.25 Q 8.25,52.95 6.35,52.1 4.25,51.15 4.25,49 4.3,47 6.2,46.2 9.05,45.05 12.1,45.25 l 2.15,0.15 0.95,-0.2 1.25,-0.2 -0.05,-0.2 -0.05,-2.05 0.35,-5.6 0.35,-5.05 q 0.1,-0.65 0.6,-0.9 l 0.2,-1 0.25,-0.8 v -0.25 l 0.2,-0.3 0.1,-0.05 0.2,-0.05"
         fill="#767676"
         fill-rule="evenodd"
         stroke="none"
         id="path4" />
      <path
         d="m 46.55,4.05 1.5,0.35 q 1.8,0.2 3.25,-0.95 l 0.2,-0.1 0.1,-0.1 Q 51.75,3.1 52,3.1 h 0.1 q 0.2,0 0.4,0.15 l 0.1,0.1 0.15,0.1 Q 54.25,4.6 56,4.4 L 57.5,4.05 57.75,4 h 0.2 q 0.3,0.05 0.35,0.55 0.4,2.75 -0.45,5.25 l -0.45,1.1 q -0.85,1.55 -1.7,2.3 l -1.1,0.95 -0.75,0.5 -0.7,0.4 -0.8,0.35 H 52.1 52 51.75 l -0.8,-0.35 -0.7,-0.4 -0.8,-0.5 -1.1,-0.95 Q 47.5,12.45 46.7,10.9 L 46.2,9.8 Q 45.35,7.3 45.75,4.55 45.8,4.05 46.1,4 h 0.2 l 0.25,0.05 m -2.2,7.2 -0.75,0.6 q -0.6,0 -0.75,-0.5 L 42.75,10.85 42.2,10.7 41.85,10.3 V 9.8 Q 42,9.3 42.75,9.2 h 0.2 L 43,9.05 V 9 l 0.1,-0.4 q 0.3,-0.3 0.55,-0.3 l 0.1,-0.05 q 0.55,0 0.7,0.5 l 0.1,0.4 h 0.05 l 0.55,0.35 0.1,0.65 -0.4,0.5 -0.45,0.15 -0.05,0.45"
         fill="#000000"
         fill-rule="evenodd"
         stroke="none"
         id="path5" />
      <path
         d="m 53.55,43 q -0.55,1.4 -1.4,2.4 l 2.45,0.25 2.65,0.05 q 1.65,0.35 2,1.95 0.35,2 -1.55,2.85 l -2.1,0.35 -3.8,-0.3 Q 50.8,50.4 50.2,49.7 L 49.4,49 48.1,47.95 46.85,48.2 45.25,48.3 41.6,48.1 q -4.7,-0.9 -6.9,-5.1 -1.55,-2.95 -1.1,-5.95 -2.1,-1 -4.3,-1.65 l -5.6,-1.2 -3.5,-0.45 q -2,-0.25 -3.5,-1.35 l -2.35,7.45 -1.3,3.85 q 3.1,-0.2 4.5,2.55 0.35,0.8 0.15,1.55 -0.85,2.75 -3.75,2.75 Q 10,50.6 7.05,48.1 6.4,47.55 6.35,46.7 6.25,44.9 7.25,43.4 l 0.35,-0.75 2.6,-6.1 2.4,-5.65 1.45,-3 -0.1,-0.15 q -0.2,-2.3 0.75,-4.4 0.8,-1.85 2.4,-3.1 l 1.25,-0.85 0.2,-0.45 q 1.7,-2.95 0.1,-5.8 -0.85,-1.3 -2.3,-1.75 l -0.8,0.1 -0.5,0.15 -0.15,0.1 -0.35,0.35 -0.2,0.4 -0.05,0.1 v 0.1 l -0.05,0.2 V 13 l -0.05,0.15 q 0.75,2.7 -0.35,5.15 -0.9,2.25 -3.1,3.35 -3.2,1.65 -5.9,-0.6 -0.7,-0.6 -0.8,-1.6 -0.15,-2.5 2.4,-3.2 Q 7.85,15.9 9,16.7 l 0.5,0.35 0.15,-0.15 0.25,-0.35 0.3,-0.4 0.05,-0.2 Q 9.8,13.25 10.75,10.8 11,10 11.6,9.3 q 1.6,-1.8 3.95,-1.85 4.9,0.05 7,4.5 1.7,3.45 0.45,6.95 2.85,0.5 5.15,2.6 2.4,2.2 5.2,3.95 l 4.9,3.45 0.65,0.6 q 1.45,-0.85 3.25,-1.2 l 1.6,-0.3 q 4.7,-0.2 8,3.15 l 0.9,1 q 0.75,0.85 1.15,1.9 l 0.35,0.8 0.5,0.6 0.75,1.65 q 1.4,2.1 1.1,4.45 Q 56.45,42 56,42.15 L 53.7,42.6 53.55,43"
         fill="#000000"
         fill-rule="evenodd"
         stroke="none"
         id="path6" />
    </g>
    <g
       id="shape2"
       transform="translate(1.5,1.5)">
      <path
         d="M 0,23.8 V 0 H 64.1 V 23.8 57.55 H 0 Z"
         fill="none"
         stroke="#000000"
         stroke-linecap="round"
         stroke-linejoin="round"
         stroke-width="3"
         id="path7" />
    </g>
  </defs>
</svg>
