<?xml version="1.0" encoding="UTF-8" standalone="no"?>
<svg
   ffdec:objectType="frame"
   height="44.349998"
   width="78.599998"
   version="1.1"
   id="svg10"
   sodipodi:docname="351.svg"
   xmlns:inkscape="http://www.inkscape.org/namespaces/inkscape"
   xmlns:sodipodi="http://sodipodi.sourceforge.net/DTD/sodipodi-0.dtd"
   xmlns:xlink="http://www.w3.org/1999/xlink"
   xmlns="http://www.w3.org/2000/svg"
   xmlns:svg="http://www.w3.org/2000/svg"
   xmlns:ffdec="https://www.free-decompiler.com/flash">
  <sodipodi:namedview
     id="namedview10"
     pagecolor="#ffffff"
     bordercolor="#000000"
     borderopacity="0.25"
     inkscape:showpageshadow="2"
     inkscape:pageopacity="0.0"
     inkscape:pagecheckerboard="0"
     inkscape:deskcolor="#d1d1d1"
     fit-margin-top="5"
     fit-margin-left="5"
     fit-margin-right="5"
     fit-margin-bottom="5" />
  <g
     transform="translate(2,2.05)"
     id="g3">
    <use
       ffdec:characterId="1"
       height="42.700001"
       transform="translate(-1.75,-2)"
       width="76.449997"
       xlink:href="#shape0"
       id="use1" />
    <use
       ffdec:characterId="330"
       height="42.200001"
       transform="translate(0.25,-1.7)"
       width="74.050003"
       xlink:href="#shape1"
       id="use2" />
    <use
       ffdec:characterId="3"
       height="44.349998"
       transform="translate(-2,-2.05)"
       width="78.599998"
       xlink:href="#shape2"
       id="use3" />
  </g>
  <defs
     id="defs10">
    <g
       id="shape0"
       transform="translate(1.75,2)">
      <path
         d="M 2.8,0 V -0.4 H 5.4 V 0 H 9.7 V 19.45 0 H 20.55 L 19.3,19.45 H 9.7 0.25 V 0 H 2.8"
         fill="#ffffff"
         fill-rule="evenodd"
         stroke="none"
         id="path3" />
      <path
         d="M 0.25,19.45 H 9.7 19.3 L 18.7,28.6 16,28.5 10.95,27.95 9.7,27.8 Q 7.45,27.6 5.85,27.75 4.05,27.9 1.5,28.6 0.75,28.8 0.25,29.15 v -9.7 m 9.45,0 v 8.35 -8.35"
         fill="#121212"
         fill-rule="evenodd"
         stroke="none"
         id="path4" />
      <path
         d="m 9.7,27.8 1.25,0.15 5.05,0.55 2.7,0.1 h 1.05 l 3.75,0.15 q 2.45,0.3 3.6,1.25 0.6,0.5 0.6,1.1 0,0.65 -0.8,1 l -1.3,0.2 -7.15,0.15 -5.6,-0.3 L 9.7,31.75 7.95,31.6 3.1,31.95 0.95,32.3 0.25,32.1 -0.35,31.55 -0.5,31.3 V 29.9 L 0.25,29.15 Q 0.75,28.8 1.5,28.6 4.05,27.9 5.85,27.75 7.45,27.6 9.7,27.8 v 3.95 -3.95"
         fill="#999999"
         fill-rule="evenodd"
         stroke="none"
         id="path5" />
      <path
         d="M 2.8,0 H 0.25 M 9.7,0 H 5.4 m 16.15,0 h 10.7 M 20.55,0 H 9.7"
         fill="none"
         stroke="#666666"
         stroke-linecap="round"
         stroke-linejoin="round"
         stroke-width="4"
         id="path6" />
      <path
         d="m 9.7,-0.4 h 65 V 40.5 H 47.05 L 45.5,40.7 27,40.65 25.95,40.5 H 9.7 -0.5 V -0.4 H 9.7 V 40.5 -0.4"
         fill="#ffffff"
         fill-rule="evenodd"
         stroke="none"
         id="path7" />
    </g>
    <g
       id="shape1"
       transform="translate(-0.25,1.7)">
      <path
         d="m 60.15,7.15 q 0.6,0.2 0.85,0.45 l 0.5,0.6 0.35,0.9 q 0.15,1.1 -0.8,1.95 -0.7,0.7 -2,0.95 l -2.2,0.05 -1.4,-0.15 -1.4,-0.6 L 53.1,10.65 51.6,10 Q 50.6,9.6 50.2,8.65 49.75,7.6 50.3,6.75 51,5.8 52.05,6.05 l 0.8,0.4 0.8,0.35 1.6,-0.25 q 1.55,-0.4 3.1,0 l 1.8,0.6 m 1.4,15.05 q 0.5,-0.25 0.95,-0.55 l 1.25,-0.5 q 1.2,-0.4 2.4,-1.15 1.25,-0.8 1.65,-0.9 l 1.7,0.1 0.8,0.65 q 0.35,0.5 0.2,1.25 L 70,22.2 q -0.65,0.85 -2.65,1.9 l -1.2,0.55 -1.8,0.55 -2.1,0.9 q -1.5,0.4 -2.15,-0.5 L 59.7,24.75 Q 59.5,23.4 60.25,22.8 l 1.3,-0.6 m -61.3,6.65 h 6.5 Q 7.1,28 8.05,27.55 9.2,27 10.6,27.15 q 0.85,0.05 1.9,0.45 l 0.3,-0.3 2.05,-1.5 1.25,-0.65 1.7,0.05 q 1.85,0.3 2.55,1 l 0.5,0.35 0.55,-0.05 4.2,0.3 q 1.3,0.55 1.8,1.45 l 0.2,0.6 h 9.85 q 1.55,-1.1 2.75,-1.2 l 2.4,0.3 q 1.25,0.25 1.8,0.9 h 7.85 l 0.4,-0.4 q 1.4,-1.15 3,-1.3 1.55,-0.1 2.65,0.65 l 0.15,-0.1 q 0.6,-0.55 1.1,-0.65 l 1.95,-0.2 2.55,0.25 0.9,0.3 0.6,-0.15 3.85,0.2 0.95,0.7 0.4,0.7 H 74.3 V 40.5 H 0.25 V 28.85 M 11.85,18.7 q -0.55,-0.4 -0.65,-1 -0.15,-0.65 0.25,-1.15 0.2,-0.35 0.9,-0.75 l 1.2,-0.6 3,-0.8 1.05,-0.3 2,-1.25 q 1.35,-0.7 2.2,-0.2 0.5,0.35 0.65,0.85 0.45,0.95 -0.2,1.75 L 21.5,15.9 q -1.65,1.2 -2.8,1.65 l -1.9,0.5 -1.95,0.45 -1.5,0.4 -1.5,-0.2 M 31.6,17 q 0.5,-0.65 1.15,-0.95 0.8,-0.35 1.45,0 l 0.95,0.8 0.7,0.7 q 0.8,0.95 0.25,2.2 -0.5,1.05 -1.7,1.55 -1.15,0.35 -2.1,0 -1.1,-0.4 -1.4,-1.45 -0.5,-1.4 0.7,-2.85 M 8.65,7.85 l 1.8,0.5 0.65,0.85 q 0.2,0.6 0.05,1.15 -0.25,0.5 -0.15,0.7 l 0.2,0.35 q 0.35,0.45 0.25,1.05 l -0.45,1 Q 10.3,14.2 9,14.3 6.95,14.45 5.6,13.05 4.15,11.7 4.25,9.7 4.35,8.65 4.75,8.2 5.4,7.45 6.65,7.55 l 2,0.3"
         fill="#999999"
         fill-rule="evenodd"
         stroke="none"
         id="path8" />
      <path
         d="m 12.3,12.75 q -0.35,0.7 -0.35,1.75 L 12,14.4 q 2.05,-1.95 4.45,-2.55 l 2.45,-0.45 2.35,-0.6 1.9,-0.8 1,0.1 0.7,0.7 q 0.15,0.45 -0.2,1.3 l -1.25,3.05 -0.95,1.55 -1.25,0.95 -3.3,1.55 q -2.65,1 -4.2,0.6 l -0.65,-0.25 0.55,0.95 1.6,1.7 q 2.15,2.15 2.75,4.6 0.7,2.65 -0.4,4.85 l -0.2,0.85 Q 16.8,33.65 15.55,33.8 14.5,33.95 13.8,33.25 13.05,32.6 13.15,31.6 l 0.25,-0.95 0.55,-1 0.4,-0.45 0.45,-1.2 v -0.85 l -0.15,-0.85 -0.55,-0.85 -1.5,-1.5 -1.55,-1.5 q -1.5,-1.6 -2.15,-5 L 8.6,15.5 6.3,15.3 Q 4.8,14.85 3.85,14.05 2.7,13.1 2.3,11.75 2.15,11.2 2.15,9.35 L 2.2,7.25 Q 2.35,6.45 2.85,5.5 3.2,4.9 3.65,4.65 L 5.45,4.5 6.55,5.35 Q 7.1,5.8 8.1,6.15 l 1.3,0.25 1.3,0.35 1.3,0.8 0.2,-0.3 q 1.3,-1.8 0.95,-4.4 -0.35,-1.8 -0.1,-2.4 0.25,-0.6 0.95,-0.9 0.65,-0.25 1.25,0 1.35,0.55 1.45,2.95 0.25,4.8 -2,7.45 l -1.3,1.35 -1.1,1.45 m 50.2,-6.9 1.05,1.2 1,1.2 q 0.7,1 1,2.9 0.25,1.75 -0.15,3.05 -0.6,1.5 -2.3,2.85 l -2,1.35 q -1.6,0.9 -1.9,1.45 -0.6,1 -0.05,2.5 l 0.4,-0.8 q 0.65,-1.15 2.35,-1.7 l 3.3,-0.75 1.55,-0.35 1.7,-0.1 1.1,-0.05 q 0.7,0.1 0.95,0.55 l 0.15,0.75 -0.15,1.7 -0.75,1.65 -1.15,1.1 -1.25,0.95 -1.2,0.6 -1.6,0.65 -2.25,0.35 v 0.05 l 0.45,0.75 0.9,1.25 0.2,0.3 H 64 l 0.65,0.25 q 0.7,0.5 0.6,1.3 0,0.8 -0.75,1.2 L 63.4,32.25 61.85,32 61.15,31.35 60.45,30.4 60,28.9 q -2.15,-2.4 -3.1,-3.95 -1.2,-2.2 -1.3,-3.8 -0.25,-2.2 1.05,-3.8 l 1.7,-1.4 1.95,-1.1 1.6,-1.6 0.45,-1.45 -1.45,0.9 -1.85,0.85 -2.1,0.25 q -3,-0.1 -5.5,-1.6 -1.75,-1 -2.25,-2.4 L 48.9,8.85 48.45,7.4 48.25,5.6 q 0,-0.55 0.15,-1 0.25,-0.5 0.75,-0.65 l 0.9,0.2 0.85,0.55 2.7,0.45 2.85,-0.35 2.15,0.25 q -0.45,-2.2 0.2,-4.3 0.55,-1.8 1.7,-2.3 l 1.45,-0.05 q 0.8,0.25 1,0.95 0.15,0.55 -0.15,1.2 l -0.6,1.2 q -0.95,2.1 0.3,4.1 M 60.55,8.9 59.5,7.4 58.15,6.9 55.5,7.05 Q 53.15,7.45 50.95,7 q 0.45,1.3 0.85,1.75 0.75,1 2.65,1.55 l 2.25,0.55 1.7,-0.05 1.35,-0.6 1.2,-0.6 0.15,-0.1 -0.55,-0.6 m 0.25,15.65 0.25,0.1 Q 64.3,25 67.3,22.7 q 1.3,-1 1.3,-1.95 l -5.1,1 q -1.05,0.2 -1.5,0.6 -0.55,0.45 -1.2,1.8 -0.15,0.25 0,0.4 m -22.15,-7.65 0.1,0.6 0.65,-0.1 q 2.15,-0.3 3.75,-1.6 L 43.45,15.45 43.3,15.1 Q 42.9,14.35 42.05,14 L 40.4,13.85 q -0.95,0.2 -1.8,1.05 L 38,15.55 38.65,16.9 M 32.4,9.3 33.35,7.9 q 0.85,-1 2.1,-1.5 L 37.95,6 39.4,6.45 q 0.95,0.7 1.05,2.2 v 2.55 l 2.85,0.4 1.5,1.05 q 1.7,1.75 1.2,3.4 -0.3,0.95 -1.55,1.9 l -0.25,0.2 q 1,0.25 2,0.8 1.5,0.75 2.05,1.7 l 0.55,1.3 0.45,2.05 q 0.15,1.85 -0.75,3.6 -0.95,1.75 -2.6,2.55 l -2.2,0.75 q -1.45,0.4 -2.15,0.85 L 41,32.3 40.85,33 40.4,33.9 q -0.35,0.4 -0.85,0.45 -1.15,0.25 -1.8,-0.75 -0.35,-0.55 -0.25,-1.4 0.2,-1.7 2,-2.75 0.95,-0.6 3.25,-1.25 1.6,-0.4 2.15,-0.85 1.55,-1.15 1.4,-3.05 L 46,23.1 45.25,21.7 Q 44.9,21.3 43.7,20.75 l -0.9,-0.4 q 0.5,1.1 0.55,2.3 0,1.15 -0.55,2.2 -0.55,1.05 -1.55,1.55 l -1.8,0.5 q -1.5,0.2 -2.1,-0.45 l -0.5,1.05 -0.4,1.1 q -0.7,1.35 -2.6,1.95 Q 31.55,31.2 29.4,29.9 28.35,29.3 28,28.4 27.8,27.8 27.9,26.5 L 28,24.75 27.95,24.55 27.65,24.5 Q 25.1,24.8 23.85,23.95 23,23.4 22.6,22.3 q -0.4,-1 -0.2,-2.1 0.3,-1.95 2.25,-3.45 l 1.1,-0.55 -0.45,-1.45 -0.05,-1.45 0.1,-1.2 0.5,-0.85 0.65,-0.7 q 1,-0.85 3,-1.25 l 1.2,-0.05 1.4,0.4 0.1,0.05 0.2,-0.4 m 4,4.15 0.65,-0.75 0.6,-0.8 q 0.5,-0.95 0.2,-3.2 -0.9,-0.15 -1.6,0.3 -0.65,0.3 -1.25,1.1 -0.55,0.7 -0.8,1.35 l 0.35,0.85 q 0.15,0.6 -0.05,1.05 l -0.15,0.2 1.75,0.45 0.3,-0.55 M 30.25,15.7 31,15.15 31.65,14.55 31.8,14.4 q -0.35,-0.85 -0.4,-1.95 l -0.3,-0.25 -1.15,-0.1 -1,0.25 q -0.7,0.2 -0.95,0.55 -0.15,0.3 -0.15,1 l 0.05,0.7 q 0.15,0.7 0.9,1.3 l 0.85,0.55 0.6,-0.75 M 16.9,14.35 q -2.7,0.75 -4.25,3.3 2.2,0.5 5.6,-0.85 1.6,-0.65 2.35,-1.3 1.2,-0.95 1.35,-2.25 l -2.5,0.6 -2.55,0.5 m 11.75,6.6 Q 28.5,20.5 28.5,19.6 l 0.1,-0.7 -0.45,-0.05 -1.5,-0.15 q -0.55,0.1 -1.1,0.85 -1,1.1 -0.5,1.85 0.35,0.55 1.2,0.55 1.1,0.1 1.95,-0.35 l 0.6,-0.25 -0.15,-0.4 m 2.6,-1 0.75,0.6 1.75,0.15 q 0.9,-0.2 1.4,-0.9 l 0.45,-0.85 q 0.35,-0.9 0.1,-1.5 l -0.75,-0.65 -2.55,0.1 -0.75,0.8 -0.55,1.1 q -0.25,0.65 0.15,1.15 m 1.6,3.8 -1.75,-0.4 -0.25,0.25 -0.3,1.05 -0.3,1.5 q -0.1,1.1 0.2,1.45 0.35,0.45 1.35,0.45 l 1.6,-0.25 q 0.5,-0.25 0.8,-1.05 0.55,-1.05 0.7,-2.55 l 0.05,-0.55 -2.1,0.1 m 5.55,-3.9 -0.4,1 -0.35,0.75 -0.65,0.7 -0.15,0.2 0.5,0.55 1.3,1.35 q 1,0.35 1.65,-0.65 0.5,-0.8 0.15,-1.85 L 39.4,20.3 38.8,19.8 38.55,19.7 38.5,19.65 38.4,19.85 M 9.9,9.75 10.5,9.15 Q 9.9,8.85 8.85,8.7 L 7.1,8.35 Q 5.9,8.15 5.25,7.65 L 4.95,7.6 4.85,7.8 v 1.9 q -0.1,0.75 0.1,1.25 0.1,0.4 0.55,0.85 l 1.4,0.8 1.05,0.15 0.7,-0.15 H 8.7 Q 9,10.95 9.9,9.75"
         fill="#000000"
         fill-rule="evenodd"
         stroke="none"
         id="path9" />
    </g>
    <g
       id="shape2"
       transform="translate(2,2.05)">
      <path
         d="M -0.5,-0.4 V -0.55 H 75.1 V -0.4 40.8 H -0.5 Z"
         fill="none"
         stroke="#000000"
         stroke-linecap="round"
         stroke-linejoin="round"
         stroke-width="3"
         id="path10" />
    </g>
  </defs>
</svg>
