<?xml version="1.0" encoding="UTF-8" standalone="no"?>
<svg
   ffdec:objectType="frame"
   height="60.549999"
   width="67.099998"
   version="1.1"
   id="svg6"
   sodipodi:docname="56.svg"
   xmlns:inkscape="http://www.inkscape.org/namespaces/inkscape"
   xmlns:sodipodi="http://sodipodi.sourceforge.net/DTD/sodipodi-0.dtd"
   xmlns:xlink="http://www.w3.org/1999/xlink"
   xmlns="http://www.w3.org/2000/svg"
   xmlns:svg="http://www.w3.org/2000/svg"
   xmlns:ffdec="https://www.free-decompiler.com/flash">
  <sodipodi:namedview
     id="namedview6"
     pagecolor="#ffffff"
     bordercolor="#000000"
     borderopacity="0.25"
     inkscape:showpageshadow="2"
     inkscape:pageopacity="0.0"
     inkscape:pagecheckerboard="0"
     inkscape:deskcolor="#d1d1d1"
     fit-margin-top="5"
     fit-margin-left="5"
     fit-margin-right="5"
     fit-margin-bottom="5" />
  <g
     transform="translate(1.5,1.5)"
     id="g3">
    <use
       ffdec:characterId="516"
       height="57.549999"
       width="64.099998"
       xlink:href="#shape0"
       id="use1" />
    <use
       ffdec:characterId="568"
       height="51.799999"
       transform="translate(0.15,7.05)"
       width="64"
       xlink:href="#shape1"
       id="use2" />
    <use
       ffdec:characterId="518"
       height="60.549999"
       transform="translate(-1.5,-1.5)"
       width="67.099998"
       xlink:href="#shape2"
       id="use3" />
  </g>
  <defs
     id="defs6">
    <g
       id="shape0">
      <path
         d="M 53.6,0 H 64.1 V 57.55 H 53.6 28.25 0 V 0 H 28.25 53.6 V 57.55 0 M 28.25,0 V 57.55 0"
         fill="#ffffff"
         fill-rule="evenodd"
         stroke="none"
         id="path3" />
    </g>
    <g
       id="shape1"
       transform="translate(-0.15,-7.05)">
      <path
         d="m 59.9,47.9 0.6,1.85 q 0.7,0.1 1.4,0.5 1.45,1 1.7,2.7 0.15,1.05 -0.35,2.1 -0.8,1.7 -2.35,2 l -2.65,-0.25 -0.6,1.1 Q 56.8,58.75 54.55,58.75 43.2,58.8 26.2,58.45 L 17.65,58.3 11.35,58.1 6.2,57.7 5.5,58.4 Q 4.7,58.95 3.6,58.8 2.55,58.65 1.85,57.95 0.45,56.55 0.95,54.25 1.45,52.4 3.2,51.05 L 3.3,51 Q 2.7,50.35 2.6,49.25 2.5,48.25 2.95,47.1 L 1.7,46.45 Q 0.4,45.45 0.15,43.7 0.05,42.35 0.8,41.1 1.6,39.9 2.85,39.35 l 2.65,-0.1 q 1.4,0.35 2.25,1.4 0.6,0.65 0.8,1.45 l 0.2,-0.05 q 0,-1 0.4,-2.15 0.65,-1.85 2.75,-3.95 1.5,-1.5 2.75,-1.9 l 0.7,-0.15 q -0.05,-0.65 0.2,-1.05 l 0.95,-1.2 1.35,-1.5 1.55,-0.9 2.65,-1.05 5.35,-0.55 2.75,0.35 0.25,-0.45 q 1.55,-2.35 4.5,-3.85 l 0.9,-0.4 q 0,-0.85 0.35,-1.5 0.5,-1 1.65,-1.6 1.1,-0.55 2.3,-0.5 1.6,0 2.3,1 l 0.5,1.5 -0.05,1.9 1.65,1.15 1.6,1.35 1.3,2 q 1.2,2.4 1.45,3.75 l 0.15,2.1 2.35,0.05 q 2.35,0.35 3.75,1.9 l 1.2,1.8 2.05,0.35 q 1.1,0.5 1.65,1.65 0.55,1.1 0.35,2.3 l 0.1,0.85 q -0.05,0.9 -0.65,1.8 l -0.95,1.2 1.05,1.55 M 55.65,13.35 h 0.45 l 0.15,-0.1 q 0.55,0 1.05,0.35 l 0.65,0.85 q 0.35,1.3 -0.6,2 l -2.05,0.1 -0.65,-0.8 q -0.25,-0.55 -0.1,-1.1 0.15,-0.85 1.1,-1.3 M 56.4,31.1 q -0.45,1.2 -1.8,1.9 l -2.2,0.35 q -1.2,-0.2 -1.85,-1.05 -0.9,-1.1 -0.7,-2.95 0.1,-1.45 0.75,-2.05 0.45,-0.55 1.4,-0.7 2.15,-0.35 3.55,1 0.7,0.7 0.95,1.65 0.25,1 -0.1,1.85 m 7.05,4 -1.05,0.8 q -1.2,0.65 -2.1,0.6 -1.3,0 -1.9,-0.9 -0.45,-0.75 -0.35,-2 0.1,-2.25 1.6,-3 l 1.4,-0.2 q 1,0 1.65,0.4 1.25,0.65 1.4,1.95 0.25,1.4 -0.65,2.35 M 31.5,20.9 q 1.1,1.7 0.15,3.4 -0.8,1.45 -2.75,1.6 -2.1,0.15 -3.2,-1.25 -0.6,-0.7 -0.7,-1.6 -0.1,-0.95 0.4,-1.7 L 26.9,20 q 0.9,-0.5 1.35,-0.65 0.95,-0.2 1.85,0.25 0.9,0.45 1.4,1.3 m -13.55,2.2 q -1.45,-0.4 -1.85,-1.15 -0.3,-0.55 -0.3,-1.4 0,-1.3 0.5,-1.95 0.5,-0.65 1.4,-0.9 l 2.4,-0.1 q 1.4,0.45 1.7,1.65 0.3,1.1 -0.55,2.6 l -1,1.15 -2.3,0.1 M 32.9,18.45 q -0.4,-0.45 -0.45,-1.1 -0.1,-0.6 0.2,-1.1 0.4,-0.7 1.15,-0.85 l 0.5,-0.1 q 0.6,0 1.1,0.4 0.5,0.4 0.65,1 0.15,0.6 -0.1,1.2 l -0.8,0.9 -1.2,0.2 Q 33.3,18.85 32.9,18.45 M 3.4,24.35 3.9,24.05 4.3,24 4.45,23.95 q 0.6,0 1.05,0.4 0.5,0.4 0.55,0.95 0.1,0.55 -0.2,1.1 L 5,27.1 q -0.5,0.2 -1.1,0 L 3.05,26.4 Q 2.75,25.9 2.85,25.3 L 3.4,24.35 m 11.95,4.9 -0.15,1.75 -1.05,1.45 q -0.7,0.6 -1.65,0.7 L 10.7,32.9 q -0.85,-0.4 -1.3,-1.25 -0.5,-0.8 -0.45,-1.7 0.1,-1.2 0.8,-1.9 1.15,-1.3 3.15,-1.05 0.85,0.1 1.5,0.55 0.7,0.55 0.95,1.7 m -9.7,5.7 V 34.4 L 5.8,33.9 q 0.3,-0.8 1.3,-0.8 l 0.05,-0.05 q 0.6,0 1.05,0.45 0.45,0.45 0.5,1 l -0.35,1.1 q -0.4,0.5 -1,0.55 L 6.3,35.9 Q 5.75,35.5 5.65,34.95 m 0.3,18.6 h 0.2 l -0.05,-0.1 -0.15,0.1"
         fill="#999999"
         fill-rule="evenodd"
         stroke="none"
         id="path4" />
      <path
         d="m 49.7,21.5 -1,-0.95 -1.25,3.85 -4,10.8 1.6,1.8 2,2.8 q 0.9,1.25 0.95,2 0.15,1.4 -1.05,2.1 l -2.3,-0.05 q -0.55,-0.3 -1.15,-1.25 0.55,1.2 0.55,2.05 l -0.3,1.1 -0.95,0.75 -1.15,-0.15 -0.3,-0.2 q 0.1,1.25 -0.3,1.9 l -0.8,0.75 -1.1,-0.05 q -0.5,-0.3 -0.75,-1.4 l -0.7,-2.8 -0.05,-0.05 -0.6,0.3 -1.15,0.6 q -1.35,0.65 -2.1,0.55 -0.8,-0.15 -1.25,-0.9 -0.35,-0.8 -0.05,-1.5 0.2,-0.65 1.05,-1.35 l -0.3,-0.2 -0.5,-0.95 q -0.05,-0.6 0.2,-1.1 0.5,-0.9 1.7,-1.35 L 36.9,38.1 37.95,37.9 38,37.85 37.35,37.9 35.5,37.85 Q 34.3,38 33.75,37.5 q -0.6,-0.55 -0.6,-1.65 0,-0.9 0.4,-1.55 0.45,-0.4 1.35,-0.6 l 1.55,-0.2 2.05,-0.45 1.45,-0.1 1.4,-4.25 1.1,-2.9 1.9,-4.45 0.95,-2.7 h -0.8 l -1.8,-0.4 q -1.25,-0.6 -1.2,-2.1 0.05,-1.35 1.15,-2.3 l 1.1,-0.7 Q 45.85,11.9 47.6,9.7 L 48.85,8.05 Q 49.7,7.2 50.65,7.1 51.6,6.95 52.4,7.55 53.2,8.3 53.2,9.25 L 53,10.65 Q 52.7,12 52.6,14.5 l 0.05,2.8 0.85,1.5 q 0.35,0.8 -0.25,2.25 -0.5,1.05 -1.1,1.25 L 50.8,22.2 49.7,21.5 m -37.4,0 -1.1,0.7 -1.35,0.1 Q 9.25,22.1 8.75,21.05 8.15,19.6 8.5,18.8 L 9.35,17.3 9.4,14.5 Q 9.3,12 9,10.65 L 8.8,9.25 q 0,-0.95 0.8,-1.7 0.8,-0.6 1.75,-0.45 0.95,0.1 1.8,0.95 L 14.4,9.7 q 1.75,2.2 3.85,3.45 l 1.1,0.7 q 1.1,0.95 1.15,2.3 0.05,1.5 -1.2,2.1 l -1.8,0.4 h -0.8 l 0.95,2.7 1.9,4.45 1.1,2.9 1.4,4.25 1.45,0.1 2.05,0.45 1.55,0.2 q 0.9,0.2 1.35,0.6 0.4,0.65 0.4,1.55 0,1.1 -0.6,1.65 Q 27.7,38 26.5,37.85 L 24.65,37.9 24,37.85 l 0.05,0.05 1.05,0.2 2.25,0.5 q 1.2,0.45 1.7,1.35 l 0.2,1.1 -0.5,0.95 -0.3,0.2 1.05,1.35 q 0.3,0.7 -0.05,1.5 -0.45,0.75 -1.25,0.9 -0.75,0.1 -2.1,-0.55 l -1.15,-0.6 -0.6,-0.3 -0.05,0.05 -0.7,2.8 q -0.25,1.1 -0.75,1.4 l -1.1,0.05 -0.8,-0.75 q -0.4,-0.65 -0.3,-1.9 l -0.3,0.2 -1.15,0.15 q -0.6,-0.2 -0.95,-0.75 l -0.3,-1.1 q 0,-0.85 0.55,-2.05 l -1.15,1.25 -2.3,0.05 q -1.2,-0.7 -1.05,-2.1 0.05,-0.75 0.95,-2 l 2,-2.8 q 0.85,-1.25 1.6,-1.8 l -4,-10.8 q -0.8,-2 -1.25,-3.85 l -1,0.95"
         fill="#000000"
         fill-rule="evenodd"
         stroke="none"
         id="path5" />
    </g>
    <g
       id="shape2"
       transform="translate(1.5,1.5)">
      <path
         d="M 0,23.8 V 0 H 64.1 V 23.8 57.55 H 0 Z"
         fill="none"
         stroke="#000000"
         stroke-linecap="round"
         stroke-linejoin="round"
         stroke-width="3"
         id="path6" />
    </g>
  </defs>
</svg>
