<?xml version="1.0" encoding="UTF-8" standalone="no"?>
<svg
   ffdec:objectType="frame"
   height="60.549999"
   width="67.099998"
   version="1.1"
   id="svg7"
   sodipodi:docname="520.svg"
   xmlns:inkscape="http://www.inkscape.org/namespaces/inkscape"
   xmlns:sodipodi="http://sodipodi.sourceforge.net/DTD/sodipodi-0.dtd"
   xmlns:xlink="http://www.w3.org/1999/xlink"
   xmlns="http://www.w3.org/2000/svg"
   xmlns:svg="http://www.w3.org/2000/svg"
   xmlns:ffdec="https://www.free-decompiler.com/flash">
  <sodipodi:namedview
     id="namedview7"
     pagecolor="#ffffff"
     bordercolor="#000000"
     borderopacity="0.25"
     inkscape:showpageshadow="2"
     inkscape:pageopacity="0.0"
     inkscape:pagecheckerboard="0"
     inkscape:deskcolor="#d1d1d1"
     fit-margin-top="5"
     fit-margin-left="5"
     fit-margin-right="5"
     fit-margin-bottom="5" />
  <g
     transform="translate(1.5,1.5)"
     id="g3">
    <use
       ffdec:characterId="516"
       height="57.549999"
       width="64.099998"
       xlink:href="#shape0"
       id="use1" />
    <use
       ffdec:characterId="1016"
       height="54.950001"
       transform="translate(-0.5,4)"
       width="56.75"
       xlink:href="#shape1"
       id="use2" />
    <use
       ffdec:characterId="518"
       height="60.549999"
       transform="translate(-1.5,-1.5)"
       width="67.099998"
       xlink:href="#shape2"
       id="use3" />
  </g>
  <defs
     id="defs7">
    <g
       id="shape0">
      <path
         d="M 53.6,0 H 64.1 V 57.55 H 53.6 28.25 0 V 0 H 28.25 53.6 V 57.55 0 M 28.25,0 V 57.55 0"
         fill="#ffffff"
         fill-rule="evenodd"
         stroke="none"
         id="path3" />
    </g>
    <g
       id="shape1"
       transform="translate(0.5,-4)">
      <path
         d="M 48.25,22.55 48.85,22 q 0.7,-0.7 0.7,-1.5 L 49.3,19.45 48.85,18.55 V 18 q 0.15,-0.25 0.4,-0.25 l 0.45,0.1 q 0.85,0.5 1.1,1.65 0.5,1.85 -0.2,3.5 l -0.3,0.7 -0.35,1.3 -0.05,1.1 0.25,0.65 q 0.25,0.75 -0.3,1.3 -0.6,0.6 -1.3,0.45 Q 47.5,28.25 47.2,27.05 47,26.25 47.2,25 l 0.25,-1 0.25,-0.55 0.55,-0.9 M 53.75,22 q -0.15,0.2 -0.05,0.5 -0.25,0.45 0,0.85 l 0.2,0.25 0.5,1.05 0.2,0.65 0.05,0.85 -0.1,1.05 -0.35,0.8 -0.45,0.45 q -0.7,0.5 -1.35,-0.15 -0.5,-0.5 -0.25,-1.2 L 52.4,26.55 Q 52.6,26.05 52.3,25 l -0.1,-0.5 q -0.2,-0.7 -0.1,-1 l 0.15,-0.35 0.05,-0.35 0.25,-0.55 0.5,-0.75 0.45,-0.5 0.25,-0.15 H 54 l 0.05,0.4 q -0.15,0 -0.15,0.25 l -0.05,0.45 -0.1,0.05 m -18.8,35.75 -5.8,-0.1 -4.35,-0.3 q -0.65,0.45 -1.4,0.5 -0.95,0.05 -1.8,-0.7 l -0.85,-0.05 -1.4,0.1 -0.2,0.1 q -1.1,0.75 -2.3,0.45 l -0.6,-0.25 -4.4,0.6 Q 6.4,58.85 3.05,58.25 1.7,58.05 1.05,57.4 0.35,56.7 0.25,54.95 L 0.2,54 -0.2,53.3 q -0.3,-0.65 -0.3,-2.45 l 0.05,-7 0.3,-3.6 Q 0.45,37.75 3,34.5 5,32.1 6.45,31 q 1.3,-1.05 3.65,-2.15 5.55,-2.5 12.25,-2.8 6.1,-0.25 12.6,1.35 3.1,0.7 5.15,1.8 4.55,2.5 7,8.15 1.75,3.9 2.75,10.6 0.4,2.6 0.4,4.3 -0.1,2.4 -1,4.1 -0.85,1.55 -2,1.85 L 45.85,58.15 45.2,57.7 34.95,57.75 M 30,10.7 30.2,10.35 30.7,8.5 31,7.85 Q 31.6,7 32.6,7.15 33.65,7.25 33.95,8.2 34.4,9.15 33.7,9.9 l -0.35,0.35 -1.15,1.8 -0.5,0.8 L 30.55,14 30,14.15 29.55,13.8 q -0.2,-0.25 -0.1,-0.9 L 29.85,11.2 30,10.7 M 24.95,12.75 23.35,9.65 22.55,7.5 22.3,7.05 Q 21.7,5.8 22.65,4.75 23.55,3.7 24.9,4.1 l 1,0.7 q 0.4,0.5 0.45,1.1 v 0.55 l -0.1,0.5 0.1,1.2 0.35,2.05 0.4,2.55 -0.3,1 -1.15,-0.05 -0.7,-0.95 m -5.1,-1.5 0.35,0.5 0.55,0.55 0.2,0.3 0.35,0.35 0.85,0.95 0.35,0.75 0.2,0.75 -0.55,0.55 -0.75,-0.2 -2.5,-1.25 -1.1,-0.75 Q 17.25,13.3 17.1,12.6 17,11.85 17.45,11.35 q 0.55,-0.6 1.2,-0.55 0.7,-0.05 1.2,0.45 m 14.2,24 -0.5,-0.15 q 0.65,0.7 0.7,1.75 1.45,-0.1 2.35,1 l 1.55,-0.3 0.25,-0.1 q -1.75,-1.3 -4.35,-2.2 M 13.1,52.2 12.8,52.8 13.35,52.7 13.1,52.2"
         fill="#999999"
         fill-rule="evenodd"
         stroke="none"
         id="path4" />
      <path
         d="m 42.7,24 q 1.15,2.55 1.15,4.55 v 0.15 q 0.35,2.6 -0.1,4.75 -0.75,3.6 -3.2,5.7 -1.35,1.2 -4.05,2.25 -1.8,0.7 -3.05,0.85 v 0.15 0.25 q 0.25,1.35 1.65,2.15 0.8,0.45 2.7,0.75 l 3.65,0.05 q 1.35,-0.1 2.05,-0.55 1,-0.65 1.55,-2.35 l 0.3,-1 -0.7,-0.65 q -1.2,-1.25 -0.8,-2.7 0.2,-0.8 0.9,-1.5 -0.65,-1.35 0.1,-2.75 l 0.7,-1 0.3,-0.25 0.55,-0.45 0.1,-0.05 q 0.75,-0.4 1.9,-0.3 l 0.95,0.1 0.55,-0.4 0.35,-0.4 -0.2,-0.8 q 0,-0.4 0.3,-0.7 0.3,-0.3 0.7,-0.3 0.9,0.2 1.35,0.7 l 0.25,0.5 0.55,2 -0.1,0.35 q 0.95,0.25 1.1,1.1 l 0.05,0.6 v 0.35 L 55.2,36 q 0.75,0.8 0.95,1.95 0.25,1.15 -0.25,2.1 -0.65,1.1 -1.95,1.7 l -0.65,0.3 -0.1,0.7 q -0.45,3.35 -3.5,5.65 -2.45,1.95 -6.3,2.35 L 38.7,50.6 q 1.6,2.65 1.4,5.1 -0.2,1.95 -1.3,2.65 l -2.05,0.45 q -5.4,0.35 -9.7,0 Q 24.8,58.6 24,57.75 l -0.65,-1.1 -0.1,-0.1 -0.65,-0.95 -1.85,-3.4 q -1.3,-2.5 -2.4,-3.95 -1.6,-2 -4.4,-3.7 -1.2,-0.7 -1.9,-0.8 -1.9,-0.15 -3.45,1.8 -0.65,0.75 -0.85,1.5 -0.25,0.9 0.35,1.6 0.5,0.6 2.05,0.7 -0.7,-0.75 -0.55,-1.85 0.1,-1.15 0.95,-1.75 0.8,-0.6 1.9,-0.5 1.1,0.05 1.9,0.7 0.75,0.65 1.1,1.75 0.35,1 0.15,2.05 -0.4,2.05 -2.35,3.3 -1.7,1.1 -3.95,1.1 -2.8,0 -4.6,-1.5 -1.4,-1.2 -1.95,-3.15 -0.5,-1.9 -0.05,-3.8 0.45,-2 1.7,-3.65 1.25,-1.7 3.05,-2.65 1.8,-0.95 3.9,-1 2.1,-0.05 3.95,0.75 1.25,0.5 3.1,1.95 1.95,1.6 3.1,3.15 1.05,1.35 1.95,3.35 0.7,-2.8 2.05,-5.25 -2.5,-0.3 -4.2,-1.15 -2.15,-1.1 -3.6,-3.3 -1.35,-2.1 -1.75,-4.6 l -0.15,-1.75 -1.1,-0.1 -1.6,-0.6 q -0.85,-0.45 -1.55,-1.2 -0.6,-0.65 -0.9,-1.5 -0.25,-0.75 -0.25,-1.9 -0.1,-1.8 0.25,-2.9 l 0.45,-1.1 q 0.45,-0.9 1.35,-1.8 2.5,-2.4 6.05,-2.25 l 1.7,0.35 0.7,0.45 q 1.45,-1.55 3.2,-2.5 2.85,-1.55 6.3,-1.35 2.3,0.15 4.25,0.95 l 0.5,-0.75 q 1.5,-1.65 3.35,-2.15 l 2.55,-0.1 q 1.35,0.3 2.25,1.2 l 0.75,1.1 q 0.85,1.4 1,2.35 v 1.75 q -0.35,2.85 -2.25,3.95 l -0.3,0.15 0.2,0.4 m -9.05,9.7 1.15,-0.3 0.95,-0.6 q 0.45,-0.6 0.2,-1.25 -0.3,-0.7 -1,-0.85 l -1.05,0.1 -3.05,1.25 -1.95,1 -2.85,1.1 q 0,-0.7 -0.7,-0.7 -0.55,0 -0.65,0.5 l 0.1,0.55 0.4,0.8 0.4,0.5 1.3,0.05 6.75,-2.15 m -12.95,-1.45 0.15,0.1 0.85,-0.55 q 0.95,-0.45 2.55,-0.85 l 1.45,-0.3 h 0.05 q 0.4,-0.95 0.2,-1.95 -0.2,-0.95 -0.9,-1.75 -0.7,-0.8 -1.65,-1.05 l -2,0.1 q -1,0.35 -1.6,1.1 -0.65,0.8 -0.75,1.85 -0.1,1.05 0.35,1.95 l 0.3,0.45 0.45,0.5 0.55,0.4 m -4.95,-5.9 0.05,-0.05 0.35,-0.65 V 25 l -0.05,-0.05 -0.05,-0.1 -0.5,-0.45 0.2,-0.75 V 23.5 l 0.25,-0.15 0.65,-0.05 0.55,0.3 0.15,0.75 v 0.25 l -0.05,0.3 v 0.35 l -0.35,0.7 q -0.2,0.5 0,0.75 l 0.6,0.05 0.25,-0.25 0.2,-0.45 0.45,-1 0.15,-0.85 V 23.5 Q 18.55,22.85 18,22.3 17.55,21.85 16.85,21.75 h -0.5 l -1.5,0.45 -0.85,0.95 -0.35,0.7 -0.2,1.15 v 0.45 l 0.15,0.5 0.3,0.45 1.05,0.25 0.35,-0.05 0.2,-0.1 0.25,-0.15 M 37.4,28.1 q 0.65,0.6 1.55,0.8 l 1.75,-0.15 1.4,-1.05 q 0.6,-0.75 0.7,-1.6 l -0.25,-1.7 q -0.4,-0.9 -1.15,-1.4 -1.6,-1.1 -3.35,-0.2 -0.8,0.4 -1.25,1.2 -0.5,0.8 -0.5,1.7 l 0.3,1.4 0.1,0.05 q 0.2,0.55 0.7,0.95 m 5.55,-9.95 Q 43.2,16.9 42.5,16.2 41.9,15.55 40.95,15.55 39.6,15.45 38.9,16.3 q -0.35,0.45 -0.3,1.05 0,0.6 0.45,0.95 l 1.2,0.05 q 0.6,-0.35 0.6,-1 l 0.35,0.05 0.2,0.3 -0.1,0.75 -0.6,0.4 L 40,19 q -0.15,0.15 -0.15,0.4 l 0.15,0.4 0.8,0.25 q 0.8,0 1.3,-0.45 0.7,-0.55 0.85,-1.45"
         fill="#000000"
         fill-rule="evenodd"
         stroke="none"
         id="path5" />
      <path
         d="m 42.95,18.15 q -0.15,0.9 -0.85,1.45 -0.5,0.45 -1.3,0.45 L 40,19.8 39.85,19.4 q 0,-0.25 0.15,-0.4 l 0.7,-0.15 0.6,-0.4 0.1,-0.75 -0.2,-0.3 -0.35,-0.05 q 0,0.65 -0.6,1 l -1.2,-0.05 q -0.45,-0.35 -0.45,-0.95 -0.05,-0.6 0.3,-1.05 0.7,-0.85 2.05,-0.75 0.95,0 1.55,0.65 0.7,0.7 0.45,1.95 M 37.4,28.1 Q 36.9,27.7 36.7,27.15 L 36.6,27.1 36.3,25.7 q 0,-0.9 0.5,-1.7 0.45,-0.8 1.25,-1.2 1.75,-0.9 3.35,0.2 0.75,0.5 1.15,1.4 l 0.25,1.7 q -0.1,0.85 -0.7,1.6 l -1.4,1.05 -1.75,0.15 Q 38.05,28.7 37.4,28.1 M 15.75,26.35 15.5,26.5 15.3,26.6 14.95,26.65 13.9,26.4 13.6,25.95 13.45,25.45 V 25 l 0.2,-1.15 0.35,-0.7 0.85,-0.95 1.5,-0.45 h 0.5 q 0.7,0.1 1.15,0.55 0.55,0.55 0.6,1.2 v 0.7 l -0.15,0.85 -0.45,1 -0.2,0.45 -0.25,0.25 -0.6,-0.05 q -0.2,-0.25 0,-0.75 l 0.35,-0.7 V 24.9 l 0.05,-0.3 V 24.35 L 17.2,23.6 16.65,23.3 16,23.35 15.75,23.5 v 0.15 l -0.2,0.75 0.5,0.45 0.05,0.1 0.05,0.05 v 0.65 l -0.35,0.65 -0.05,0.05 m 4.95,5.9 -0.55,-0.4 -0.45,-0.5 -0.3,-0.45 Q 18.95,30 19.05,28.95 19.15,27.9 19.8,27.1 20.4,26.35 21.4,26 l 2,-0.1 q 0.95,0.25 1.65,1.05 0.7,0.8 0.9,1.75 0.2,1 -0.2,1.95 H 25.7 l -1.45,0.3 q -1.6,0.4 -2.55,0.85 l -0.85,0.55 -0.15,-0.1 M 33.65,33.7 26.9,35.85 25.6,35.8 25.2,35.3 24.8,34.5 24.7,33.95 q 0.1,-0.5 0.65,-0.5 0.7,0 0.7,0.7 l 2.85,-1.1 1.95,-1 3.05,-1.25 1.05,-0.1 q 0.7,0.15 1,0.85 0.25,0.65 -0.2,1.25 l -0.95,0.6 -1.15,0.3"
         fill="#ffffff"
         fill-rule="evenodd"
         stroke="none"
         id="path6" />
    </g>
    <g
       id="shape2"
       transform="translate(1.5,1.5)">
      <path
         d="M 0,23.8 V 0 H 64.1 V 23.8 57.55 H 0 Z"
         fill="none"
         stroke="#000000"
         stroke-linecap="round"
         stroke-linejoin="round"
         stroke-width="3"
         id="path7" />
    </g>
  </defs>
</svg>
