<?xml version="1.0" encoding="UTF-8" standalone="no"?>
<svg
   ffdec:objectType="frame"
   height="60.549999"
   width="67.099998"
   version="1.1"
   id="svg8"
   sodipodi:docname="632.svg"
   xmlns:inkscape="http://www.inkscape.org/namespaces/inkscape"
   xmlns:sodipodi="http://sodipodi.sourceforge.net/DTD/sodipodi-0.dtd"
   xmlns:xlink="http://www.w3.org/1999/xlink"
   xmlns="http://www.w3.org/2000/svg"
   xmlns:svg="http://www.w3.org/2000/svg"
   xmlns:ffdec="https://www.free-decompiler.com/flash">
  <sodipodi:namedview
     id="namedview8"
     pagecolor="#ffffff"
     bordercolor="#000000"
     borderopacity="0.25"
     inkscape:showpageshadow="2"
     inkscape:pageopacity="0.0"
     inkscape:pagecheckerboard="0"
     inkscape:deskcolor="#d1d1d1"
     fit-margin-top="5"
     fit-margin-left="5"
     fit-margin-right="5"
     fit-margin-bottom="5" />
  <g
     transform="translate(1.5,1.5)"
     id="g3">
    <use
       ffdec:characterId="516"
       height="57.549999"
       width="64.099998"
       xlink:href="#shape0"
       id="use1" />
    <use
       ffdec:characterId="1123"
       height="58.049999"
       transform="translate(-0.1,-0.5)"
       width="64.650002"
       xlink:href="#shape1"
       id="use2" />
    <use
       ffdec:characterId="518"
       height="60.549999"
       transform="translate(-1.5,-1.5)"
       width="67.099998"
       xlink:href="#shape2"
       id="use3" />
  </g>
  <defs
     id="defs8">
    <g
       id="shape0">
      <path
         d="M 53.6,0 H 64.1 V 57.55 H 53.6 28.25 0 V 0 H 28.25 53.6 V 57.55 0 M 28.25,0 V 57.55 0"
         fill="#ffffff"
         fill-rule="evenodd"
         stroke="none"
         id="path3" />
    </g>
    <g
       id="shape1"
       transform="translate(0.1,0.5)">
      <path
         d="M 64.05,0 V 57.55 H 0.4 V 0 h 63.65"
         fill="#ffffff"
         fill-rule="evenodd"
         stroke="none"
         id="path4" />
      <path
         d="M 64.05,0 H 0.4"
         fill="none"
         stroke="#5f645e"
         stroke-linecap="round"
         stroke-linejoin="round"
         stroke-opacity="0.498039"
         stroke-width="1"
         id="path5" />
      <path
         d="m 34.85,27.25 q -0.25,1 -1.3,1 -0.95,0 -1.3,-0.85 l 2.05,-0.55 0.6,-0.4 -0.05,0.8 m -6.65,0.1 q -0.2,-0.55 0.05,-1 l 0.1,-0.25 0.15,0.25 0.55,0.55 1.15,0.4 0.65,0.05 q -0.3,0.9 -1.3,0.9 -1,0 -1.35,-0.9"
         fill="#ffffff"
         fill-rule="evenodd"
         stroke="none"
         id="path6" />
      <path
         d="M 0.55,-0.3 1.5,0.45 7.6,7.95 Q 15,17 17.9,20.25 L 11,14 Q 4,7.1 0.4,2.7 v -3 H 0.55 M 14.05,13.5 12,10.7 11.5,9.9 11.15,9.15 5.8,2.1 Q 4.85,1.15 4.8,0.75 4.75,0.35 5.05,0 l 0.4,-0.3 H 6.2 q 0.5,0.25 1.1,1.05 l 2.8,4.55 4.25,8.2 -0.15,0.15 -0.15,-0.15 M 26.6,9 26.25,7.7 V 7 L 26.05,6.15 V 5.65 L 25.9,5.3 25.7,4.35 24.85,-0.3 h 1.4 l 0.55,7.65 v 2 L 26.6,9.25 V 9 M 44.05,38.85 Q 43.5,38.2 43.9,38 44.15,37.9 44.5,38.25 53.55,47 62.9,55.3 l 1.15,1.3 v 0.95 H 61 l -6.7,-7.6 q -6,-6.9 -10.25,-11.1 m 16,11.3 -2.05,-1.6 -7.45,-6.45 -0.2,-0.4 q 6.4,4.7 12.65,8.7 l 1,1 0.05,0.1 v 0.75 L 64,52.35 63.3,52.9 q -0.5,0.05 -0.95,-0.3 l -0.7,-0.8 -1.6,-1.65 m 1.9,-21.85 2.1,0.15 v 1.65 l -0.35,-0.05 -1.3,-0.3 q -3.35,-0.95 -8.7,-1.3 v -0.2 l 0.2,-0.05 h 2 l 4,0.1 1,0.05 1.05,-0.05 m 1.2,-2.9 h 0.9 v 2.1 H 63.15 62.9 L 62.65,27.45 H 62.5 L 62.4,27.4 h -0.1 l -0.35,-0.05 -1,-0.05 H 60.7 L 60.3,27.25 H 60.15 L 59.8,27.2 H 59.55 L 59.4,27.15 H 58.95 L 58.8,27.1 h -0.3 l -0.25,-0.05 h -0.2 L 57.55,27 h -0.3 L 56.5,26.95 H 55.25 L 55,26.9 H 54.8 L 54.5,26.85 H 53.4 L 52.95,26.8 h -0.6 L 51.3,26.75 H 50.85 L 50.1,26.7 h -0.25 l -0.2,-0.05 H 49.4 L 49.35,26.6 49.2,26.55 H 49.1 L 48.05,26.5 h -0.1 l -0.05,-0.05 -0.05,-0.1 0.1,-0.05 1.15,0.05 0.1,-0.05 h 0.15 l 0.05,-0.05 h 0.25 l 0.2,-0.05 h 0.25 l 0.75,-0.05 h 0.45 l 1.05,-0.05 h 0.6 l 0.45,-0.05 h 1.1 L 54.8,26 H 55 l 0.25,-0.05 h 1.25 l 0.75,-0.05 h 0.3 l 0.5,-0.05 0.2,-0.05 h 0.25 l 0.3,-0.05 h 0.15 L 59.4,25.7 h 0.15 l 0.25,-0.05 h 0.35 L 60.3,25.6 h 0.4 l 0.25,-0.05 h 1 L 62.3,25.5 h 0.1 l 0.1,-0.05 h 0.15 L 62.9,25.4 h 0.25 m 0.6,-25.7 0.3,-0.05 V 2.5 Q 60.45,6.95 53.3,14 l -6.9,6.25 10.3,-12.3 6.1,-7.5 0.95,-0.75 m -13.5,13.8 -0.15,0.15 q -0.25,0 -0.15,-0.15 Q 51.7,9.8 54.2,5.3 L 57,0.75 q 0.6,-0.8 1.15,-1.05 H 58.9 L 59.25,0 q 0.3,0.35 0.25,0.75 l -1,1.35 -5.35,7.05 -0.35,0.75 -0.5,0.8 -2.05,2.8 M 35.7,9 v 0.25 l -0.2,0.1 v -2 l 0.6,-7.65 h 1.35 L 36.6,4.35 36.4,5.3 36.25,5.65 v 0.5 L 36.05,7 V 7.7 L 35.7,9 M 32.25,-0.3 H 34.8 V -0.2 -0.1 0 0.05 0.15 0.2 0.3 0.35 0.45 0.5 0.6 0.7 0.75 0.85 0.9 1 1.05 1.15 L 34.75,1.2 V 1.3 1.35 1.45 1.55 1.6 1.7 1.75 1.85 1.9 2 2.05 2.15 2.25 2.3 2.4 2.45 2.55 2.6 L 34.7,2.7 V 2.75 2.85 2.95 3 3.1 3.15 3.25 3.3 3.4 3.45 3.55 L 34.65,3.6 V 3.7 3.8 3.85 3.95 4 L 34.6,4.1 V 4.15 4.25 4.3 4.4 4.5 L 34.55,4.55 V 4.65 4.7 4.8 4.85 4.95 5 5.1 5.2 5.25 5.35 5.4 5.5 5.55 5.65 L 34.5,5.7 v 0.1 0.1 0.05 0.1 0.05 0.1 0.05 0.1 0.05 0.1 0.05 0.1 l -0.05,0.1 V 6.8 6.9 6.95 7.05 L 34.4,7.1 v 0.1 0.05 l -0.05,0.1 V 7.45 7.5 7.6 7.65 7.75 7.8 L 34.3,7.9 v 0.05 0.1 0.1 0.05 0.1 l -0.05,0.05 v 0.1 0.05 0.1 0.05 0.1 0.1 L 34.2,8.9 V 9 9.05 9.15 9.2 9.3 9.35 9.45 9.5 L 34.15,9.6 V 9.7 9.75 9.85 9.9 10 l -0.05,0.05 v 0.1 0.05 0.1 0.1 0.05 0.1 0.05 0.1 0.05 0.1 0.05 0.1 0.1 l -0.05,0.05 v 0.1 0.05 0.1 0.05 0.1 0.05 L 34,11.7 v 0.05 0.1 0.1 0.05 0.1 0.05 0.1 l -0.05,0.05 v 0.1 0.05 0.1 0.1 0.05 0.1 l -0.05,0.05 v 0.1 0.05 0.1 0.05 0.1 0.1 0.05 0.1 0.05 0.1 0.05 0.1 0.05 0.1 l -0.05,0.1 v 0.05 0.1 0.05 0.1 0.05 0.1 0.05 0.1 0.05 0.1 0.1 0.05 0.1 0.05 0.1 0.05 0.1 0.05 0.1 0.1 0.05 0.1 0.05 0.1 0.05 0.1 L 33.8,16.1 v 0.1 0.1 0.05 l -0.05,0.1 v 0.05 0.1 0.05 0.1 0.05 0.1 0.1 0.05 0.1 L 33.7,17.2 33.6,17.3 H 33.5 L 33.35,17.2 V 17.15 L 33.3,17.05 V 17 16.9 16.8 16.75 16.65 16.6 16.5 16.45 l -0.05,-0.1 V 16.3 16.2 16.1 16.05 L 33.2,15.95 V 15.9 15.8 15.75 15.65 15.6 15.5 15.4 15.35 15.25 15.2 15.1 15.05 14.95 14.9 14.8 14.7 14.65 14.55 14.5 14.4 14.35 14.25 14.2 14.1 14.05 l -0.05,-0.1 V 13.85 13.8 13.7 13.65 13.55 13.5 13.4 13.35 13.25 13.15 13.1 13 12.95 12.85 L 33.1,12.8 v -0.1 -0.05 -0.1 -0.1 -0.05 -0.1 -0.05 l -0.05,-0.1 V 12.1 12 11.95 11.85 11.75 11.7 11.6 L 33,11.55 V 11.45 11.4 11.3 11.25 11.15 11.1 L 32.95,11 V 10.9 10.85 10.75 10.7 10.6 10.55 10.45 10.4 10.3 10.2 10.15 10.05 10 L 32.9,9.9 V 9.85 9.75 9.7 9.6 9.5 9.45 9.35 9.3 L 32.85,9.2 V 9.15 9.05 9 8.9 8.85 8.75 8.65 8.6 L 32.8,8.5 V 8.45 8.35 8.3 8.2 8.15 L 32.75,8.05 V 7.95 7.9 7.8 7.75 7.65 L 32.7,7.6 V 7.5 7.45 7.35 7.25 7.2 7.1 L 32.65,7.05 32.6,6.95 V 6.9 6.8 6.75 L 32.55,6.65 V 6.55 6.5 6.4 6.35 6.25 6.2 6.1 6.05 5.95 5.9 5.8 5.7 L 32.5,5.65 V 5.55 5.5 5.4 5.35 5.25 5.2 5.1 5 4.95 4.85 4.8 4.7 4.65 4.55 4.5 L 32.45,4.4 V 4.3 4.25 4.15 4.1 L 32.4,4 V 3.95 3.85 3.8 3.7 3.6 L 32.35,3.55 V 3.45 3.4 3.3 3.25 3.15 3.1 3 2.95 2.85 2.75 2.7 2.6 L 32.3,2.55 V 2.45 2.4 2.3 2.25 2.15 2.05 2 1.9 1.85 1.75 1.7 1.6 1.55 1.45 1.35 1.3 1.2 L 32.25,1.15 V 1.05 1 0.9 0.85 0.75 0.7 0.6 0.5 0.45 0.35 0.3 0.2 0.15 0.05 0 -0.1 -0.2 -0.3 M 25.7,24.75 25.8,23.7 q 0.25,-0.6 0.85,-0.7 l 0.75,0.1 V 22.7 Q 27.3,22.2 27.45,21.85 27.6,21.4 28.1,21.3 l 0.65,0.15 0.75,0.25 q 0.95,-0.45 1.9,-0.4 1,-0.05 1.95,0.4 l 0.7,-0.25 0.65,-0.15 q 0.5,0.1 0.65,0.55 l 0.05,0.85 v 0.4 L 36.15,23 q 0.6,0.1 0.85,0.7 l 0.1,1.05 v 0.55 l 0.85,0.15 1.5,0.95 0.65,0.9 0.1,1.3 -0.1,0.55 -0.3,0.45 -0.65,0.65 -0.65,0.25 -0.5,0.25 -0.8,0.1 h -2.1 l 0.05,0.35 0.3,-0.05 0.4,0.05 1.8,0.55 0.35,0.2 0.25,0.35 0.4,1 q 0.1,0.7 -0.2,1.1 l -0.5,0.45 -0.5,0.35 -1.35,0.3 -0.8,0.05 H 35 l -0.85,0.6 q -1.35,0.4 -2.35,-0.6 l -0.1,-0.2 -0.75,0.1 -0.5,0.45 -1.05,0.6 -1.2,-0.15 Q 27.85,36 27.95,35.55 H 27.5 l -0.8,-0.05 -1.35,-0.3 -0.5,-0.35 -0.5,-0.45 q -0.3,-0.4 -0.2,-1.1 0.05,-0.5 0.4,-1 l 0.25,-0.35 0.35,-0.2 q 0.75,-0.35 1.8,-0.55 l 0.4,-0.05 0.3,0.05 0.05,-0.35 H 25.6 L 24.8,30.75 24.3,30.5 23.65,30.25 23,29.6 22.7,29.15 22.6,28.6 q -0.1,-0.9 0.1,-1.3 l 0.65,-0.9 q 0.75,-0.7 1.5,-0.95 L 25.7,25.3 V 24.75 M 1.15,25.4 H 1.4 l 0.25,0.05 H 1.8 L 1.9,25.5 H 2 l 0.35,0.05 h 1 L 3.6,25.6 H 4 l 0.15,0.05 H 4.5 L 4.75,25.7 H 4.9 l 0.45,0.05 H 5.5 l 0.3,0.05 h 0.25 l 0.2,0.05 0.5,0.05 h 0.3 L 7.8,25.95 H 9.05 L 9.3,26 h 0.2 l 0.3,0.05 h 1.1 l 0.45,0.05 h 0.6 L 13,26.15 h 0.45 l 0.75,0.05 h 0.25 l 0.2,0.05 h 0.25 l 0.05,0.05 h 0.15 l 0.1,0.05 1.15,-0.05 0.1,0.05 -0.05,0.1 -0.05,0.05 h -0.1 l -1.05,0.05 h -0.1 l -0.15,0.05 -0.05,0.05 h -0.25 l -0.2,0.05 H 14.2 l -0.75,0.05 H 13 l -1.05,0.05 h -0.6 L 10.9,26.85 H 9.8 L 9.5,26.9 H 9.3 L 9.05,26.95 H 7.8 L 7.05,27 h -0.3 l -0.5,0.05 H 6.05 L 5.8,27.1 H 5.5 L 5.35,27.15 H 4.9 L 4.75,27.2 H 4.5 L 4.15,27.25 H 4 L 3.6,27.3 H 3.35 l -1,0.05 L 2,27.4 H 1.9 L 1.8,27.45 H 1.65 L 1.4,27.5 H 1.15 0.4 v -2.1 h 0.75 m 1.2,2.9 1.05,0.05 1,-0.05 4,-0.1 h 2 l 0.2,0.05 v 0.2 Q 5.25,28.8 1.9,29.75 L 0.6,30.05 0.4,30.1 V 28.45 L 2.35,28.3 m 1.9,21.85 -1.6,1.65 -0.7,0.8 Q 1.5,52.95 1,52.9 L 0.4,52.55 v -1.3 L 1.3,50.4 q 6.25,-4 12.65,-8.7 l -0.2,0.4 -7.45,6.45 -2.05,1.6 M 35.3,27.5 l -0.95,0.9 0.1,0.15 0.9,0.1 h 1 l 1.3,-0.2 0.1,-0.15 -0.1,-0.15 q -0.75,-0.5 -1.5,-0.7 l -0.7,-0.2 -0.15,0.25 m -7.1,-0.15 q 0.35,0.9 1.35,0.9 1,0 1.3,-0.9 L 30.2,27.3 29.05,26.9 28.5,26.35 28.35,26.1 l -0.1,0.25 q -0.25,0.45 -0.05,1 m 6.65,-0.1 0.05,-0.8 -0.6,0.4 -2.05,0.55 q 0.35,0.85 1.3,0.85 1.05,0 1.3,-1 m -7.35,0.25 -0.15,-0.25 -0.7,0.2 q -0.75,0.2 -1.5,0.7 l -0.1,0.15 0.1,0.15 1.3,0.2 h 1 l 0.9,-0.1 0.1,-0.15 -0.95,-0.9 M 20.25,38.85 Q 16,43.05 10,49.95 l -6.65,7.6 H 0.4 V 56.4 l 1,-1.1 18.4,-17.05 q 0.35,-0.35 0.6,-0.25 0.4,0.2 -0.15,0.85 m 9.65,4.75 0.05,0.1 v 0.05 0.1 0.05 0.1 0.05 l 0.05,0.1 v 0.05 0.1 0.05 l 0.05,0.1 v 0.1 0.05 0.1 l 0.05,0.05 v 0.1 0.05 0.1 0.05 0.1 0.1 l 0.05,0.05 v 0.1 0.05 0.1 0.05 l 0.05,0.1 v 0.05 0.1 0.1 0.05 0.1 0.05 0.1 0.05 l 0.05,0.1 v 0.05 0.1 0.1 0.05 0.1 l 0.05,0.05 v 0.1 0.05 0.1 l 0.05,0.05 v 0.1 l 0.05,0.05 v 0.1 0.1 0.05 l 0.05,0.1 v 0.05 0.1 0.05 0.1 0.05 l 0.05,0.1 v 0.1 0.05 0.1 0.05 0.1 0.05 0.1 0.05 0.1 0.1 0.05 0.1 l 0.05,0.05 v 0.1 0.05 0.1 0.05 0.1 l 0.05,0.05 v 0.1 0.1 0.05 0.1 0.05 0.1 l 0.05,0.05 v 0.1 0.05 0.1 0.1 0.05 0.1 0.05 0.1 l 0.05,0.05 v 0.1 0.05 0.1 0.1 0.05 0.1 0.05 0.1 l 0.05,0.05 v 0.1 0.05 0.1 0.1 0.05 0.1 0.05 l 0.05,0.1 v 0.05 0.1 0.05 0.1 0.05 0.1 0.1 0.05 0.1 0.05 0.1 0.05 0.1 0.05 l 0.05,0.1 v 0.1 0.05 0.1 0.05 0.1 0.05 0.1 0.05 L 30.9,54 v 0.1 0.05 0.1 0.05 0.1 0.05 0.1 0.05 0.1 l 0.05,0.1 v 0.05 0.1 0.05 0.1 0.05 0.1 0.05 0.1 0.05 l 0.05,0.1 v 0.1 0.05 0.1 0.05 0.1 0.05 0.1 0.05 0.1 0.1 0.05 l 0.05,0.1 v 0.05 0.1 0.05 0.1 0.05 l 0.05,0.1 v 0.1 l 0.05,0.05 v 0.1 0.05 0.1 l 0.05,0.05 v 0.1 0.05 H 28.45 V 57.5 l 0.05,-0.05 v -0.1 -0.05 l 0.05,-0.1 v -0.05 -0.1 -0.1 -0.05 l 0.05,-0.1 v -0.05 -0.1 -0.05 -0.1 -0.05 l 0.05,-0.1 V 56.3 56.2 56.1 56.05 55.95 55.9 55.8 55.75 55.65 55.6 55.5 l 0.05,-0.1 v -0.05 -0.1 -0.05 -0.1 -0.05 -0.1 -0.05 -0.1 -0.1 l 0.05,-0.05 v -0.1 -0.05 -0.1 -0.05 -0.1 -0.05 -0.1 -0.05 l 0.05,-0.1 v -0.1 -0.05 -0.1 -0.05 -0.1 -0.05 -0.1 -0.05 -0.1 l 0.05,-0.1 V 53.1 53 52.95 52.85 52.8 52.7 52.65 52.55 52.45 52.4 52.3 52.25 52.15 52.1 L 28.9,52 v -0.05 l 0.05,-0.1 V 51.75 51.7 51.6 51.55 51.45 51.4 51.3 51.25 L 29,51.15 V 51.1 51 50.9 50.85 50.75 50.7 50.6 50.55 50.45 L 29.05,50.4 V 50.3 50.2 50.15 50.05 50 49.9 49.85 l 0.05,-0.1 V 49.7 49.6 49.5 49.45 49.35 L 29.15,49.3 V 49.2 49.15 49.05 49 48.9 48.8 48.75 48.65 48.6 48.5 l 0.05,-0.05 v -0.1 -0.05 -0.1 -0.05 -0.1 -0.1 -0.05 -0.1 -0.05 l 0.05,-0.1 V 47.6 47.5 47.45 l 0.05,-0.1 v -0.1 -0.05 -0.1 l 0.05,-0.05 v -0.1 -0.05 -0.1 l 0.05,-0.05 v -0.1 -0.1 -0.05 -0.1 -0.05 l 0.05,-0.1 V 46.2 46.1 46.05 45.95 45.9 45.8 45.7 l 0.05,-0.05 v -0.1 -0.05 -0.1 -0.05 -0.1 L 29.55,45.2 V 45.1 45 44.95 44.85 44.8 44.7 l 0.05,-0.05 v -0.1 -0.05 -0.1 l 0.05,-0.1 v -0.05 l 0.05,-0.1 V 44.1 L 29.65,44 29.6,43.95 29.65,43.85 29.7,43.8 v -0.1 l 0.05,-0.1 h 0.1 0.05 m -2.25,5.95 q 0,-0.3 0.15,-0.35 l 0.05,0.1 -0.4,3.65 -0.1,0.05 0.05,0.7 -0.1,0.4 -0.35,3.05 -0.1,0.4 H 25.4 L 25.35,57.4 q -0.15,-0.8 0.5,-2.05 l 0.3,-0.9 0.1,-0.55 0.15,-0.45 0.25,-1.25 0.3,-0.8 0.15,-0.4 0.05,-0.35 0.15,-0.2 0.05,-0.25 0.2,-0.25 0.1,-0.4 m 8,0 0.1,0.4 0.2,0.25 0.05,0.25 0.15,0.2 0.05,0.35 0.15,0.4 0.3,0.8 0.25,1.25 0.15,0.45 0.1,0.55 0.3,0.9 q 0.65,1.25 0.5,2.05 v 0.15 H 36.5 L 36.35,57.15 36,54.1 35.9,53.7 35.95,53 l -0.1,-0.05 -0.4,-3.65 0.05,-0.1 0.15,0.35"
         fill="#999999"
         fill-rule="evenodd"
         stroke="none"
         id="path7" />
    </g>
    <g
       id="shape2"
       transform="translate(1.5,1.5)">
      <path
         d="M 0,23.8 V 0 H 64.1 V 23.8 57.55 H 0 Z"
         fill="none"
         stroke="#000000"
         stroke-linecap="round"
         stroke-linejoin="round"
         stroke-width="3"
         id="path8" />
    </g>
  </defs>
</svg>
