<?xml version="1.0" encoding="UTF-8" standalone="no"?>
<svg
   ffdec:objectType="frame"
   height="60.549999"
   width="67.099998"
   version="1.1"
   id="svg8"
   sodipodi:docname="549.svg"
   xmlns:inkscape="http://www.inkscape.org/namespaces/inkscape"
   xmlns:sodipodi="http://sodipodi.sourceforge.net/DTD/sodipodi-0.dtd"
   xmlns:xlink="http://www.w3.org/1999/xlink"
   xmlns="http://www.w3.org/2000/svg"
   xmlns:svg="http://www.w3.org/2000/svg"
   xmlns:ffdec="https://www.free-decompiler.com/flash">
  <sodipodi:namedview
     id="namedview8"
     pagecolor="#ffffff"
     bordercolor="#000000"
     borderopacity="0.25"
     inkscape:showpageshadow="2"
     inkscape:pageopacity="0.0"
     inkscape:pagecheckerboard="0"
     inkscape:deskcolor="#d1d1d1"
     fit-margin-top="5"
     fit-margin-left="5"
     fit-margin-right="5"
     fit-margin-bottom="5" />
  <g
     transform="translate(1.5,1.5)"
     id="g3">
    <use
       ffdec:characterId="516"
       height="57.549999"
       width="64.099998"
       xlink:href="#shape0"
       id="use1" />
    <use
       ffdec:characterId="1045"
       height="59"
       transform="translate(0.15,-0.05)"
       width="64.199997"
       xlink:href="#shape1"
       id="use2" />
    <use
       ffdec:characterId="518"
       height="60.549999"
       transform="translate(-1.5,-1.5)"
       width="67.099998"
       xlink:href="#shape2"
       id="use3" />
  </g>
  <defs
     id="defs8">
    <g
       id="shape0">
      <path
         d="M 53.6,0 H 64.1 V 57.55 H 53.6 28.25 0 V 0 H 28.25 53.6 V 57.55 0 M 28.25,0 V 57.55 0"
         fill="#ffffff"
         fill-rule="evenodd"
         stroke="none"
         id="path3" />
    </g>
    <g
       id="shape1"
       transform="translate(-0.15,0.05)">
      <path
         d="m 50.35,3.45 q 1.65,-0.2 2.75,0 2.6,0.45 4.45,2.65 0.75,0.9 1.2,2.05 0.85,-1 1.3,-2.3 L 60.25,4.6 59.9,3.45 q -0.2,-0.8 0.25,-1.6 0.45,-0.8 1.25,-1.2 l 2.8,0.15 0.15,0.1 V 7.95 L 64.2,8.3 64.35,8.45 v 3.7 l -0.8,1.3 -1.35,1.85 q -0.85,0.85 -2.25,1.35 l -0.6,0.2 0.2,1.8 v 0.4 l 0.3,0.2 1.15,1.1 0.35,0.6 0.3,0.95 0.2,0.8 q 0.3,-0.25 0.7,-0.4 l 1.2,0.2 q 0.4,0.3 0.4,0.85 l -0.45,0.85 -0.5,0.15 -0.45,0.1 -0.45,0.4 -0.3,0.55 -0.1,0.35 -0.5,0.55 -0.15,0.3 -0.6,0.05 -0.4,-0.45 -0.2,-0.45 0.05,-1.05 0.1,-0.15 -0.05,-0.25 v -0.65 l -0.2,-0.4 -0.35,-0.5 -0.5,-0.4 -0.5,-0.45 -0.25,0.35 -2.2,2.45 0.25,0.45 0.25,0.45 0.65,1.45 0.15,0.45 0.45,1 q 0.25,0.65 0.1,1.35 -0.15,0.7 -0.7,1.2 -0.5,0.45 -1.2,0.5 L 56,31.6 55.4,33.05 q -0.95,1.3 -2.45,0.95 -1.4,-0.25 -1.9,-1.5 l -1,0.65 q -1.05,0.35 -2,-0.3 -0.85,-0.6 -0.85,-1.8 l 0.15,-0.85 0.25,-1.1 0.4,-1.35 1,-1.6 -0.65,-0.2 q -0.85,-0.35 -2,-1.3 L 44.2,22.6 q -0.8,-1.3 -0.7,-2.75 l -0.35,0.1 q -0.75,0.2 -1.55,0 L 40.3,21 38.85,21.75 37.5,22.2 q -1.25,0.3 -2.45,-0.35 -1.25,-0.65 -1.6,-1.9 l -0.1,-0.55 -1.75,0.7 -2.65,0.35 Q 27.4,20.2 26.8,19 26.3,18.2 26.55,17.1 26.7,16.2 27.3,15.25 L 27.5,15 24.95,13.95 q -2.05,-1 -3.3,-2.5 -1.5,-1.75 -1.5,-3.75 0,-1.2 0.5,-1.9 0.95,-1.4 3.2,-1.2 L 27.3,5.45 Q 31.7,6.5 35.25,4.3 L 36.5,3.45 q 0.8,-0.5 1.35,-0.7 1.9,-0.75 2.9,0.35 0.6,0.6 0.8,2.35 0.35,2.05 1.15,3.95 l 0.45,-1.2 q 1.3,-2.75 3.5,-3.85 1.4,-0.7 3.7,-0.9 m -0.2,9.6 -0.5,0.25 -0.8,0.9 -0.2,0.7 0.35,0.8 0.85,1.45 q 0.75,1.05 1.25,1.3 l 0.5,0.1 0.75,-0.35 0.5,-0.9 0.8,-2.85 L 53.7,14.1 53.55,13.7 53.25,13.25 52.8,13 51.7,12.6 h -0.35 l -1.2,0.45 m -6.3,-1.85 -0.05,0.5 q 0,1.3 1.05,2.1 0.85,0.7 2.05,0.45 Q 48.05,14 48.6,13 l 0.35,-1.2 v -0.1 l -0.3,-0.1 -0.95,-0.5 -1.05,-0.9 q -0.35,-0.4 -0.4,-0.95 -1.3,0 -2.05,1.15 l -0.35,0.8 m 13,-2.65 -1.15,-0.3 -0.25,0.8 q -0.35,0.85 -1.4,1.9 L 53.4,11.5 q 0.25,0.65 0.85,1.15 0.7,0.55 1.5,0.55 0.85,0 1.5,-0.55 0.7,-0.5 0.9,-1.3 0.2,-0.85 -0.2,-1.6 -0.35,-0.8 -1.1,-1.2 M 45.7,39.2 48.65,38.7 q 3.05,-0.15 5.9,0.9 l 1.4,0.65 -2.4,3.85 -0.2,0.25 H 53 l -1.7,-0.4 -1.6,-0.25 -1.6,0.15 q -1.75,-3 -2.4,-4.65 m 11.55,1.75 2.4,1.85 q 2.25,2.05 3.55,4.8 l 1.15,3 v 5.65 q -0.4,1.55 -1.4,1.6 l -0.75,-0.15 -0.75,-0.15 -0.65,0.2 -0.65,0.35 -1.6,0.15 -1.65,-0.3 -0.9,-0.1 -0.6,0.25 -1.4,0.05 -0.75,-0.35 -1.5,0.15 q -1.5,0.75 -2.6,0.95 l -2.6,-0.25 -2.3,0.1 L 41.6,58.5 38.9,58.25 37.15,58.2 q -0.95,-0.05 -1.6,-0.45 -0.65,-0.35 -1,-1.1 -0.3,-0.7 -0.25,-1.45 0.1,-0.75 0.65,-1.35 0.35,-0.4 0.8,-0.6 0,-0.35 0.15,-0.6 -0.8,-1.4 0.05,-3.8 l 0.5,-1.2 V 46.9 q 0.15,-1.65 2.15,-3.75 1.3,-1.5 2.6,-2.2 l 1.25,-0.55 0.7,-0.2 0.45,-0.25 0.4,1.2 0.8,1.45 1.2,2.3 0.35,0.65 0.05,0.05 -0.95,1.1 -1.35,1.4 -0.35,0.45 -0.3,0.1 -1.4,0.2 -1.05,0.3 q -0.6,0.3 -0.65,0.8 -0.15,0.7 0.45,1.15 l 1.25,0.35 1,-0.15 0.45,-0.1 0.4,0.1 q 0.8,0.25 1.35,-0.5 L 45.6,50.05 46.55,48 47.7,46.35 47.85,46.1 49.7,45.9 50.85,46.1 53,46.6 h 0.05 v 0.3 l 0.45,0.05 1.5,0.35 -0.5,-1 -0.05,-0.1 0.4,-0.95 1.15,-2 1.15,-2.1 0.1,-0.2 m -6.5,9.65 q 0.4,-0.55 0.35,-1.3 -0.1,-0.75 -0.6,-1.2 -0.5,-0.5 -1.25,-0.5 -0.75,0 -1.25,0.45 -0.5,0.5 -0.6,1.25 -0.05,0.75 0.35,1.3 0.6,0.75 1.5,0.75 0.9,0 1.5,-0.75 M 0.15,16.35 V 0.85 l 1.3,-0.35 7.7,-0.55 q 2.55,0 3.75,0.65 1.75,0.9 2.9,3.85 0.75,1.75 0.95,3.2 l -0.15,3 v 0.1 l 0.7,1.05 h 0.25 l 1.75,0.4 q 0.8,0.35 1.8,1.45 l 0.75,0.9 0.45,1 q 0.65,2.2 -0.4,4.1 -1,1.85 -2.95,2.35 l -0.05,0.05 -0.85,2.6 0.45,0.85 q 1.25,-0.35 2.5,0.7 0.85,0.75 1.35,2.25 1.25,3.5 0.4,8.25 -0.45,2.5 -1.45,4 -1.1,1.6 -3.5,2.85 -1.95,0.85 -3.4,0.85 l -0.5,0.55 -0.7,0.7 1.95,1.5 1.35,2.3 1,2.55 0.35,2.15 -0.05,2 q -0.3,1.4 -1.7,1.95 L 14.05,58 13.7,58.05 12.5,57.85 q -0.65,-0.3 -0.85,-0.9 -0.95,0.8 -2.15,0.8 L 7.9,57.55 5.5,57.1 3.85,56.9 1.2,57.05 0.15,56.7 V 44.85 L 0.2,44.8 Q 1,44.2 2.25,43.8 2.15,42.2 3.2,41.05 L 4.15,40.3 4.9,40.05 6.05,40 l 0.9,0.2 0.9,0.55 0.3,-0.1 L 9,40.35 8.7,39.3 7.8,39 6.8,38.25 6.55,37.85 6.2,37.05 v -0.4 L 6.1,36.35 Q 6,35.95 6.45,35.7 L 7,35.6 l 0.7,0.05 0.85,0.5 0.6,0.1 Q 9.6,35.3 10.5,34.65 l 2.1,-1.5 q 0.85,-1 1.1,-2.85 -1.9,1.45 -4.1,2.3 Q 5.85,33.95 3.1,32.75 1.55,32.05 0.7,30.55 0.2,29.6 0.15,28.7 v -0.4 q 0,-0.45 0.15,-0.9 L 0.15,27.35 V 25.2 l 0.15,0.4 1.15,0.8 2.15,0.35 0.8,-0.05 v 0.05 l 0.15,0.45 0.2,0.25 0.95,0.7 0.4,0.15 0.9,0.5 1.15,0.1 1.75,-0.35 0.5,-0.4 0.1,-0.6 -0.35,-0.4 L 9.7,27.05 9.05,27.3 7.6,27.35 6.45,26.3 6.35,25.7 V 25.1 Q 6.25,24.4 5.65,24.25 5.25,23.9 4.35,23.9 L 3,24.05 1.05,23.75 q 0,-0.6 -0.35,-0.7 -0.25,-0.1 -0.45,0.25 l -0.1,0.25 v -2.5 L 0.2,21.1 q 0.65,0.7 1.6,1 L 3.7,22 4.7,21.45 5.3,20.95 5,20.55 Q 3.1,17.8 3.2,15.5 V 15.35 L 1.9,15.45 1.25,15.6 Q 0.6,15.9 0.15,16.35 M 3.85,45.3 Q 4.4,46 5.25,46.2 L 6.85,46 7.95,44.85 Q 8.3,44.05 8.1,43.25 7.9,42.45 7.15,41.9 6.45,41.4 5.6,41.45 q -0.8,0.1 -1.45,0.7 -0.65,0.6 -0.75,1.4 -0.15,1 0.45,1.75 m 11.8,-20.35 q 0.55,-1.4 -0.05,-2.7 -0.4,-0.75 -1,-1.2 l -1.25,0.6 -1.75,0.65 -1.8,0.15 q -0.35,0.75 -0.2,1.65 0.15,1 0.8,1.65 0.65,0.7 1.55,0.9 l 1.8,-0.05 1.2,-0.75 0.6,-0.85 0.1,-0.05 m -6.05,18.9 0.9,0.4 0.9,-0.85 -0.95,-0.75 -0.3,0.1 L 9,43.15 H 8.8 L 8.75,43.6 9.6,43.85 m 50.25,11.45 -1.75,-0.75 -0.65,1.65 -0.2,0.3 1.05,0.35 q 2.2,0.75 3.2,0.6 0.5,0 0.65,-0.35 0.15,-0.4 -0.5,-0.95 -0.6,-0.35 -1.8,-0.85 m -0.95,-3.2 2,0.05 1.2,0.05 q 0.7,-0.1 1.05,-0.5 l 0.7,-0.7 q 0.25,0 0.1,-0.15 L 62.9,50.45 61.85,50 l -1.2,-0.05 -2.85,0.1 0.05,0.1 -0.6,-0.2 q -1.3,-0.25 -2,0.85 -0.75,1.1 0.05,2.15 l 1.2,0.75 1.4,-0.25 q 0.8,-0.5 0.9,-1.35 h 0.1 m -17.25,2.3 3.1,-0.2 0.4,-1.3 -0.5,0.05 -3.45,0.1 q -0.9,-0.1 -1.15,0.25 -0.2,0.25 -0.05,0.6 l 0.45,0.4 1.2,0.1"
         fill="#999999"
         fill-rule="evenodd"
         stroke="none"
         id="path4" />
      <path
         d="m 56.85,8.55 q 0.75,0.4 1.1,1.2 0.4,0.75 0.2,1.6 -0.2,0.8 -0.9,1.3 -0.65,0.55 -1.5,0.55 -0.8,0 -1.5,-0.55 -0.6,-0.5 -0.85,-1.15 l 0.65,-0.55 q 1.05,-1.05 1.4,-1.9 l 0.25,-0.8 1.15,0.3 m -13,2.65 0.35,-0.8 q 0.75,-1.15 2.05,-1.15 0.05,0.55 0.4,0.95 l 1.05,0.9 0.95,0.5 0.3,0.1 v 0.1 L 48.6,13 Q 48.05,14 46.9,14.25 45.7,14.5 44.85,13.8 43.8,13 43.8,11.7 l 0.05,-0.5 m 6.3,1.85 1.2,-0.45 h 0.35 l 1.1,0.4 0.45,0.25 0.3,0.45 0.15,0.4 -0.05,0.35 -0.8,2.85 -0.5,0.9 -0.75,0.35 -0.5,-0.1 Q 50.6,18.2 49.85,17.15 L 49,15.7 l -0.35,-0.8 0.2,-0.7 0.8,-0.9 0.5,-0.25 m -6.55,26.9 -0.1,-0.3 -0.1,-0.8 q 0.1,-0.6 0.7,-0.85 0.7,-0.15 1.1,0.25 l 0.45,0.85 0.05,0.1 q 0.65,1.65 2.4,4.65 l 1.6,-0.15 1.6,0.25 1.7,0.4 h 0.35 l 0.2,-0.25 2.4,-3.85 0.5,-0.75 0.4,-0.75 0.5,-0.1 0.35,0.3 -0.05,0.6 -0.4,1.4 -0.1,0.2 -1.15,2.1 -1.15,2 -0.4,0.95 0.05,0.1 0.5,1 -1.5,-0.35 -0.45,-0.05 V 46.6 H 53 L 50.85,46.1 49.7,45.9 47.85,46.1 47.7,46.35 46.55,48 45.6,50.05 45.25,50.8 q -0.55,0.75 -1.35,0.5 l -0.4,-0.1 -0.45,0.1 -1,0.15 -1.25,-0.35 q -0.6,-0.45 -0.45,-1.15 0.05,-0.5 0.65,-0.8 l 1.05,-0.3 1.4,-0.2 0.3,-0.1 L 44.1,48.1 45.45,46.7 46.4,45.6 46.35,45.55 46,44.9 44.8,42.6 44,41.15 43.6,39.95 m 7.15,10.65 q -0.6,0.75 -1.5,0.75 -0.9,0 -1.5,-0.75 -0.4,-0.55 -0.35,-1.3 0.1,-0.75 0.6,-1.25 0.5,-0.45 1.25,-0.45 0.75,0 1.25,0.5 0.5,0.45 0.6,1.2 0.05,0.75 -0.35,1.3 M 0.15,25.2 v -1.65 l 0.1,-0.25 q 0.2,-0.35 0.45,-0.25 0.35,0.1 0.35,0.7 L 3,24.05 4.35,23.9 q 0.9,0 1.3,0.35 0.6,0.15 0.7,0.85 v 0.6 l 0.1,0.6 1.15,1.05 1.45,-0.05 0.65,-0.25 0.45,0.1 0.35,0.4 -0.1,0.6 -0.5,0.4 L 8.15,28.9 7,28.8 6.1,28.3 5.7,28.15 4.75,27.45 4.55,27.2 4.4,26.75 V 26.7 L 3.6,26.75 1.45,26.4 0.3,25.6 0.15,25.2 m 0,-4.15 v -4.7 Q 0.6,15.9 1.25,15.6 L 1.9,15.45 3.2,15.35 V 15.5 Q 3.1,17.8 5,20.55 l 0.3,0.4 -0.6,0.5 -1,0.55 -1.9,0.1 Q 0.85,21.8 0.2,21.1 L 0.15,21.05 m 15.5,3.9 -0.1,0.05 -0.6,0.85 -1.2,0.75 -1.8,0.05 Q 11.05,26.45 10.4,25.75 9.75,25.1 9.6,24.1 9.45,23.2 9.8,22.45 l 1.8,-0.15 1.75,-0.65 1.25,-0.6 q 0.6,0.45 1,1.2 0.6,1.3 0.05,2.7 M 3.85,45.3 q -0.6,-0.75 -0.45,-1.75 0.1,-0.8 0.75,-1.4 0.65,-0.6 1.45,-0.7 0.85,-0.05 1.55,0.45 0.75,0.55 0.95,1.35 0.2,0.8 -0.15,1.6 L 6.85,46 5.25,46.2 Q 4.4,46 3.85,45.3 m 37.8,9.1 -1.2,-0.1 L 40,53.9 q -0.15,-0.35 0.05,-0.6 0.25,-0.35 1.15,-0.25 l 3.45,-0.1 0.5,-0.05 -0.4,1.3 -3.1,0.2 M 58.9,52.1 h -0.1 q -0.1,0.85 -0.9,1.35 l -1.4,0.25 -1.2,-0.75 q -0.8,-1.05 -0.05,-2.15 0.7,-1.1 2,-0.85 l 0.6,0.2 -0.05,-0.1 2.85,-0.1 1.2,0.05 1.05,0.45 1.05,0.4 Q 64.1,51 63.85,51 l -0.7,0.7 q -0.35,0.4 -1.05,0.5 l -1.2,-0.05 -2,-0.05 m 0.95,3.2 q 1.2,0.5 1.8,0.85 0.65,0.55 0.5,0.95 -0.15,0.35 -0.65,0.35 -1,0.15 -3.2,-0.6 l -1.05,-0.35 0.2,-0.3 0.65,-1.65 1.75,0.75"
         fill="#ffffff"
         fill-rule="evenodd"
         stroke="none"
         id="path5" />
      <path
         d="m 62.05,0.7 0.35,0.15 0.3,0.05 q 0.3,0.05 0.4,0.6 0.35,1.8 0.3,3.05 l -0.05,0.5 -0.75,0.4 Q 62.15,5.35 61.95,4.85 L 61.9,4.2 61.6,2.9 61.15,1.65 V 1.1 q 0.1,-0.3 0.35,-0.4 0.3,-0.15 0.55,0 M 60.95,6 60.7,6.3 59.25,7 59.1,7.1 58.4,6.95 58,6.4 V 6.15 L 57.9,5.75 57.8,5.6 Q 57.65,5.4 57.65,4.85 V 4.7 L 57.2,3.7 Q 56.6,2.4 56.5,1.7 56.4,1.3 56.55,0.95 56.65,0.5 57.1,0.5 h 0.1 0.35 Q 58,0.45 58.35,0.9 l 0.2,0.9 v 0.35 l 0.05,0.45 0.1,0.85 0.1,0.15 0.15,-0.05 0.9,-0.05 0.8,0.35 0.25,0.55 0.2,0.7 V 5.4 L 60.95,6 m -5.2,14.05 0.05,0.1 0.55,-0.1 q 0.55,0.05 1,0.6 0.45,0.65 0.25,1.2 l -0.4,0.55 -1.1,0.25 -0.75,-0.2 Q 54.8,22.2 54.7,21.55 l 0.05,-0.5 -0.3,-0.6 L 53.85,19 53.6,18.6 53.35,18.4 53.1,17.65 53.25,17.15 53.6,16.8 q 0.75,-0.5 2.35,-1.3 1.15,-0.7 1.5,-0.7 0.65,0 1,0.6 l 0.4,1.4 0.4,0.85 1.25,0.05 q 0.55,0.2 0.75,0.55 l 0.15,0.6 -0.05,1.1 q -0.3,0.55 -1.25,0.75 l -1,0.1 -0.25,-0.15 -0.75,-0.25 -0.3,-0.45 -1.1,-2.3 -1.65,0.7 0.15,0.45 0.4,0.8 0.15,0.45 M 52.2,8.4 Q 51.85,7.95 51.9,7.5 52.05,7 52.55,6.85 l 0.9,-0.15 0.9,0.1 0.45,0.7 -0.15,0.4 v 0.4 l -0.3,0.65 -0.65,1.75 q 0.75,0.4 0.9,1.15 0.25,0.85 -0.45,1.35 l -1.35,0.25 q -0.9,-0.1 -1.15,-0.55 -0.1,-0.3 0.1,-0.9 L 52.65,9.25 52.85,8.8 52.2,8.4 m -8.1,4.15 Q 43.5,12.4 43.5,11.7 l 0.05,-0.45 v -1 L 43.45,9.85 43.5,9 V 8.65 L 40.75,8.8 40.7,9.05 v 0.1 l 0.1,1.2 v 0.2 l 0.2,0.05 0.65,0.85 q 0.3,0.65 0.2,1 l -0.85,0.7 -1.15,0.2 q -0.65,0 -0.95,-0.5 -0.25,-0.3 -0.25,-1.3 l -0.2,-2.4 0.25,-1.6 V 7 L 38.45,6.35 Q 38.35,6 38.55,5.65 L 39.1,5.2 39.9,5.05 41.6,4.7 l 1,-0.05 1.1,0.05 0.85,0.2 Q 45,5.15 45,5.65 l -0.05,0.3 V 6 8.3 l 0.1,1.4 0.1,0.35 v 0.2 l 0.9,0.2 0.45,0.4 0.35,0.5 q 0.35,1 -0.5,1.5 l -0.9,0.2 -0.8,-0.1 -0.4,-0.3 -0.15,-0.1 M 40.8,7 V 7.8 L 42.35,7.55 43.25,7.5 43.5,7.45 V 6.6 L 40.8,7 M 27.45,38.65 Q 23.25,37.65 20.8,35 19.1,33.15 18.45,30.5 17.85,27.95 18.4,25.35 L 18.5,25 18.35,24.95 Q 17.65,24.5 17.3,23.7 16.95,22.95 17.1,22.1 l 0.1,-0.5 0.3,-0.85 q 0.75,-1.45 2.45,-1.55 0.7,-0.05 1.4,0.3 l 2.7,-2.5 q 2.25,-1.5 4.2,-1.9 1.6,-0.3 4,0.05 l 2.6,0.7 1.1,0.65 Q 36.8,15.7 38,15.8 l 0.6,0.05 0.95,0.3 0.5,0.35 0.35,0.35 q 0.5,0.6 0.55,1.4 0.1,0.75 -0.3,1.4 l -0.3,0.45 -0.25,0.3 q 1.2,1.4 1.65,2.6 0.4,1.15 0.5,3.55 0,2.35 -0.3,3.5 v 0.1 l 1.6,0.05 1.05,0.35 0.3,-2.55 v -0.3 l -0.35,-0.25 q -1.45,-0.4 -1.9,-1.65 -0.25,-0.5 -0.25,-1.6 0.1,-0.9 0.3,-1.3 0.35,-0.95 1.15,-1.6 0.8,-0.65 1.8,-0.8 l 1.95,0.25 1.6,1.1 q 1.2,1.4 1.2,3.65 l 0.05,1.05 0.1,7.05 -0.05,1.2 -0.45,1.15 -0.9,1.05 q -0.75,0.6 -2.7,0.8 l -1,0.1 -1.4,0.65 -3.7,1.55 -0.75,0.25 0.4,1.3 2.85,13.4 0.25,2 H 24.8 l -0.4,-1.3 -0.5,-2.3 Q 23.55,52.15 23,51.3 l -0.15,-0.2 -0.95,1.05 q -2,2 -4.9,2.15 -2.25,0.15 -3.8,-1.1 -0.85,-0.8 -1.35,-2 -0.95,-2.15 -0.65,-4.6 0.3,-2.45 1.75,-4.35 1.45,-1.85 3.7,-2.9 2.25,-1 4.6,-0.8 1.65,0.1 3,0.85 1.3,0.7 2.7,2.65 l 0.2,0.25 0.55,-3.6 -0.25,-0.05 M 35.15,6.95 34.8,7.9 34.55,8.25 34,9.85 l -0.05,0.2 0.15,0.2 0.6,0.45 0.25,0.35 0.15,0.8 -0.2,0.8 -0.6,0.5 -0.85,0.05 -1,-0.15 Q 31.9,12.9 31.65,12.4 31.4,11.9 31.85,10.9 l 0.6,-1.6 0.4,-0.7 -0.1,-0.05 -0.95,-0.9 q -0.4,-0.5 -0.1,-1.05 0.2,-0.35 1,-0.65 l 1.25,-0.2 0.5,0.15 0.25,-0.05 0.4,0.25 q 0.25,0.3 0.05,0.85 M 18.45,9.1 18.9,7.65 18.7,7.5 17.6,6.35 17.45,5.85 q -0.1,-0.7 0.7,-0.8 l 0.5,0.05 h 0.5 l 0.65,-0.25 0.5,-0.1 0.1,0.05 q 0.4,0.1 0.5,0.55 L 20.85,6.2 20.55,7.95 21.5,9 q 0.55,0.7 0.25,1.3 -0.3,0.45 -1.2,0.55 h -1.3 Q 18.45,10.65 18.3,10 l 0.15,-0.9 m 18.65,11.55 -1.85,0.25 -0.1,0.3 q -0.55,1.95 -1.5,3.1 l -0.7,0.75 0.55,1.25 0.35,0.45 h 0.2 L 35,26.5 l 1.15,-0.15 2.15,0.2 h 0.3 l 0.55,0.1 Q 39.75,25.9 39.95,24.8 40.1,23.85 39.8,23 l -0.65,-1.15 q -0.8,-0.95 -2.05,-1.2 m -10.75,6.3 -0.05,-0.5 -0.4,-0.1 -1.2,-0.5 -1.5,-1 -0.75,-0.95 -0.05,-0.1 -1.1,0.4 q -1.45,0.8 -1.7,2.55 -0.25,1.65 1,2.9 l 0.65,0.5 q 1.25,0.75 2.6,0.35 1.35,-0.4 2.1,-1.7 0.45,-0.85 0.4,-1.85 M 5.75,17.5 5.45,15.1 5.2,13.8 5.05,13.1 Q 5,12.75 5.1,12.55 5.05,12.2 5.15,12 L 5.65,11.7 6.3,11.5 6.95,11.1 Q 7.65,10.7 8.4,10.6 L 9.1,10.5 9.7,10.3 10.4,10 11.7,9.95 q 0.6,0.3 0.9,1.45 l 0.15,0.55 0.25,0.65 0.5,2.7 0.2,0.05 0.65,0.2 0.5,0.6 0.05,0.8 q -0.2,0.8 -1.15,1.15 l -0.5,0.1 -0.7,0.15 q -0.9,0.1 -1.3,-0.75 L 11,16.7 10.75,14.6 7.45,15.35 7.5,16 q 1.15,0.1 1.5,0.5 l 0.25,0.75 q 0,0.65 -0.4,1.15 Q 8.4,18.9 7.8,18.95 L 6.9,18.9 6.25,18.7 Q 5.85,18.4 5.75,17.5 M 3.7,5.5 4.9,3.25 5.05,3.15 5,3.1 4.65,2.8 4.2,1.95 3.95,1.6 Q 3.85,1.4 3.9,1.2 L 4.25,0.8 Q 4.8,0.6 5.1,1.1 L 5.4,0.95 6.2,0.6 Q 6.55,0.5 6.85,0.75 L 7.2,1.35 7,1.95 6.8,2.2 6.75,2.35 5.9,4.25 5.8,4.65 q 0.65,0.1 0.85,0.6 L 6.75,6.1 6.7,6.65 6.35,7.4 6.1,7.55 4.45,7.7 3.6,7.2 3.5,6.45 3.7,5.5 m 5.95,7.35 -2.45,0.7 0.2,0.8 1.55,-0.45 1.65,-0.35 -0.1,-0.85 -0.85,0.15 m 28.05,16.75 0.05,-0.05 -1.3,0.15 -1.6,-0.05 -1.65,-0.2 -2.65,-1 -0.4,-0.1 -0.6,0.1 Q 29.1,28.5 28.7,28.9 l -0.6,0.95 -1.3,1.15 -1.5,1 -0.15,0.3 q 0.1,0.3 0.5,0.2 l 2.4,-0.55 0.6,-0.4 0.1,0.55 0.3,0.8 q 0.45,0.5 1.4,0.5 1,0.1 1.55,-0.45 0.45,-0.45 0.45,-1.55 L 32.5,31 32.8,30.95 h 0.4 l 1.05,-0.1 2.4,-0.6 0.7,-0.4 0.35,-0.25"
         fill="#000000"
         fill-rule="evenodd"
         stroke="none"
         id="path6" />
      <path
         d="m 26.35,26.95 q 0.05,1 -0.4,1.85 -0.75,1.3 -2.1,1.7 -1.35,0.4 -2.6,-0.35 l -0.65,-0.5 q -1.25,-1.25 -1,-2.9 0.25,-1.75 1.7,-2.55 l 1.1,-0.4 0.05,0.1 0.75,0.95 1.5,1 1.2,0.5 0.4,0.1 0.05,0.5 m 10.75,-6.3 q 1.25,0.25 2.05,1.2 L 39.8,23 q 0.3,0.85 0.15,1.8 -0.2,1.1 -0.8,1.85 L 38.6,26.55 H 38.3 L 36.15,26.35 35,26.5 34.05,26.75 h -0.2 L 33.5,26.3 32.95,25.05 33.65,24.3 q 0.95,-1.15 1.5,-3.1 l 0.1,-0.3 1.85,-0.25 m 0.6,8.95 -0.35,0.25 -0.7,0.4 -2.4,0.6 -1.05,0.1 H 32.8 L 32.5,31 32.45,31.4 q 0,1.1 -0.45,1.55 -0.55,0.55 -1.55,0.45 -0.95,0 -1.4,-0.5 l -0.3,-0.8 -0.1,-0.55 -0.6,0.4 -2.4,0.55 q -0.4,0.1 -0.5,-0.2 l 0.15,-0.3 1.5,-1 1.3,-1.15 0.6,-0.95 q 0.4,-0.4 0.85,-0.45 l 0.6,-0.1 0.4,0.1 2.65,1 1.65,0.2 1.6,0.05 1.3,-0.15 -0.05,0.05"
         fill="#ffffff"
         fill-rule="evenodd"
         stroke="none"
         id="path7" />
    </g>
    <g
       id="shape2"
       transform="translate(1.5,1.5)">
      <path
         d="M 0,23.8 V 0 H 64.1 V 23.8 57.55 H 0 Z"
         fill="none"
         stroke="#000000"
         stroke-linecap="round"
         stroke-linejoin="round"
         stroke-width="3"
         id="path8" />
    </g>
  </defs>
</svg>
