<?xml version="1.0" encoding="UTF-8" standalone="no"?>
<svg
   ffdec:objectType="frame"
   height="44.466667"
   width="78.599998"
   version="1.1"
   id="svg13"
   sodipodi:docname="100.svg"
   xmlns:inkscape="http://www.inkscape.org/namespaces/inkscape"
   xmlns:sodipodi="http://sodipodi.sourceforge.net/DTD/sodipodi-0.dtd"
   xmlns:xlink="http://www.w3.org/1999/xlink"
   xmlns="http://www.w3.org/2000/svg"
   xmlns:svg="http://www.w3.org/2000/svg"
   xmlns:ffdec="https://www.free-decompiler.com/flash">
  <sodipodi:namedview
     id="namedview13"
     pagecolor="#ffffff"
     bordercolor="#000000"
     borderopacity="0.25"
     inkscape:showpageshadow="2"
     inkscape:pageopacity="0.0"
     inkscape:pagecheckerboard="0"
     inkscape:deskcolor="#d1d1d1"
     fit-margin-top="5"
     fit-margin-left="5"
     fit-margin-right="5"
     fit-margin-bottom="5" />
  <g
     transform="translate(2,2.05)"
     id="g3">
    <use
       ffdec:characterId="1"
       height="42.700001"
       transform="translate(-1.75,-2)"
       width="76.449997"
       xlink:href="#shape0"
       id="use1" />
    <use
       ffdec:characterId="98"
       height="44.049999"
       transform="translate(-0.7,-1.65)"
       width="75.550003"
       xlink:href="#shape1"
       id="use2" />
    <use
       ffdec:characterId="3"
       height="44.349998"
       transform="translate(-2,-2.05)"
       width="78.599998"
       xlink:href="#shape2"
       id="use3" />
  </g>
  <defs
     id="defs13">
    <g
       id="shape0"
       transform="translate(1.75,2)">
      <path
         d="M 2.8,0 V -0.4 H 5.4 V 0 H 9.7 V 19.45 0 H 20.55 L 19.3,19.45 H 9.7 0.25 V 0 H 2.8"
         fill="#ffffff"
         fill-rule="evenodd"
         stroke="none"
         id="path3" />
      <path
         d="M 0.25,19.45 H 9.7 19.3 L 18.7,28.6 16,28.5 10.95,27.95 9.7,27.8 Q 7.45,27.6 5.85,27.75 4.05,27.9 1.5,28.6 0.75,28.8 0.25,29.15 v -9.7 m 9.45,0 v 8.35 -8.35"
         fill="#121212"
         fill-rule="evenodd"
         stroke="none"
         id="path4" />
      <path
         d="m 9.7,27.8 1.25,0.15 5.05,0.55 2.7,0.1 h 1.05 l 3.75,0.15 q 2.45,0.3 3.6,1.25 0.6,0.5 0.6,1.1 0,0.65 -0.8,1 l -1.3,0.2 -7.15,0.15 -5.6,-0.3 L 9.7,31.75 7.95,31.6 3.1,31.95 0.95,32.3 0.25,32.1 -0.35,31.55 -0.5,31.3 V 29.9 L 0.25,29.15 Q 0.75,28.8 1.5,28.6 4.05,27.9 5.85,27.75 7.45,27.6 9.7,27.8 v 3.95 -3.95"
         fill="#999999"
         fill-rule="evenodd"
         stroke="none"
         id="path5" />
      <path
         d="M 2.8,0 H 0.25 M 9.7,0 H 5.4 m 16.15,0 h 10.7 M 20.55,0 H 9.7"
         fill="none"
         stroke="#666666"
         stroke-linecap="round"
         stroke-linejoin="round"
         stroke-width="4"
         id="path6" />
      <path
         d="m 9.7,-0.4 h 65 V 40.5 H 47.05 L 45.5,40.7 27,40.65 25.95,40.5 H 9.7 -0.5 V -0.4 H 9.7 V 40.5 -0.4"
         fill="#ffffff"
         fill-rule="evenodd"
         stroke="none"
         id="path7" />
    </g>
    <g
       id="shape1"
       transform="translate(0.7,1.65)">
      <path
         d="M 10.95,-0.4 H 21.8 q -4,2.45 -7.9,5.65 L 11.85,6.9 11.3,2.45 11.25,1.55 V 1.2 L 11.15,0.6 V 0 l -0.2,-0.4 m 13.05,0 h 12.25 l -0.1,0.05 -5.9,2.4 -0.25,0.15 -0.85,-2 -0.3,-0.4 -0.8,0.1 -0.2,0.65 v 0.5 Q 27.8,2.05 28.3,4 l 0.35,2.85 0.15,0.65 0.45,0.75 q 0.55,0.55 1.2,0.4 0.75,-0.2 0.9,-0.85 L 31.4,7.4 31.25,6.45 31.1,5.9 31.05,5.4 30.3,3.1 30.45,3 30.95,2.8 33.6,2 l 2.75,-1 0.8,-0.2 0.1,-0.05 0.1,0.05 0.8,0.2 2.75,1 2.65,0.8 0.5,0.2 0.15,0.1 -0.75,2.3 -0.05,0.5 -0.15,0.55 -0.15,0.95 0.05,0.4 q 0.15,0.65 0.9,0.85 0.65,0.15 1.2,-0.4 L 45.7,7.5 45.85,6.85 46.2,4 q 0.5,-1.95 0.45,-2.95 v -0.5 l -0.2,-0.65 -0.8,-0.1 -0.3,0.4 -0.85,2 -0.25,-0.15 -5.9,-2.4 -0.1,-0.05 H 50.5 L 60.9,8 q -4.15,1.95 -7.55,4.65 -1.05,0.85 -1,1.55 0,0.7 0.7,1.15 l 1.3,0.55 q 1.95,0.7 3.6,1.95 l -1.4,2.6 L 45,17.75 q -0.95,-0.1 -0.95,0.4 l 0.5,0.45 q 5.95,2.5 11.75,4.65 l 0.9,0.3 8.65,2.85 -2.65,5.9 q -0.5,0.95 -0.3,1.6 l 1.3,1.15 q 5,2.5 9.5,5.65 l 0.15,0.1 H 65.2 L 65.3,40.2 64.95,39.45 62.55,37 62.15,36.65 62.1,36.5 61.95,36.15 60.6,34.1 59.2,32.05 56.55,27.7 55.2,25.85 54.35,24.7 l -0.4,-0.35 -0.5,0.05 q -0.2,0.2 0,0.6 0.25,0.75 0.85,1.7 l 1.05,1.55 1.75,3.6 2.95,4.6 -1.6,1.25 -2.9,2.25 q -0.6,0.5 -0.7,0.85 H 52.3 l 0.1,-0.1 0.2,-0.5 0.5,-1.65 0.35,-1.6 L 53.4,36 52.7,35.45 52.35,35.05 51,33.5 50.3,32.8 49.15,32 48.6,31.95 q -0.3,0.2 -0.1,0.55 l 0.3,0.35 q 1.6,1.35 2.9,3.15 l 0.1,0.25 -0.05,0.2 q -0.6,1.3 -1.1,3.1 -0.2,0.85 0,1.2 v 0.05 h -26.8 v -0.05 q 0.2,-0.35 0,-1.2 l -1.1,-3.1 -0.05,-0.2 0.1,-0.25 q 1.3,-1.8 2.9,-3.15 L 26,32.5 q 0.2,-0.35 -0.1,-0.55 L 25.35,32 24.2,32.8 23.5,33.5 22.15,35.05 21.8,35.45 21.1,36 q -0.15,0.3 -0.05,0.95 l 0.35,1.6 0.5,1.65 0.2,0.5 0.1,0.1 h -2.55 l -0.7,-0.85 -2.9,-2.25 -1.6,-1.25 2.95,-4.6 1.75,-3.6 1.05,-1.55 0.85,-1.7 q 0.2,-0.4 0,-0.6 l -0.5,-0.05 -0.4,0.35 -0.85,1.15 -1.35,1.85 -2.65,4.35 -1.4,2.05 -1.35,2.05 -0.15,0.35 -0.05,0.15 -0.4,0.35 -2.4,2.45 Q 9.3,39.7 9.2,40.2 l 0.1,0.6 H 0.65 L 0.8,40.7 q 4.5,-3.15 9.5,-5.65 1.15,-0.7 1.3,-1.15 0.2,-0.65 -0.3,-1.6 l -2.65,-5.9 8.65,-2.85 0.9,-0.3 11.75,-4.65 0.5,-0.45 q 0,-0.5 -0.95,-0.4 l -11.55,2.7 -1.4,-2.6 q 1.65,-1.25 3.6,-1.95 l 1.3,-0.55 q 0.7,-0.45 0.7,-1.15 0.05,-0.7 -1,-1.55 Q 17.75,9.95 13.6,8 L 24,-0.4 m 28.7,0 H 63.55 L 63.35,0 v 0.6 l -0.1,0.6 V 1.55 L 63.2,2.45 62.65,6.9 60.6,5.25 Q 56.7,2.05 52.7,-0.4 m 11.9,0 h 5 q -0.3,0.35 -0.45,1.2 l -0.85,6.6 0.05,0.45 q 0.15,0.3 0.8,0.75 l 2.1,1.75 -3.35,6.55 -2.55,-0.7 -1.45,-0.35 -0.95,0.05 q -0.35,0.25 -0.25,1.2 l 0.05,2.2 q -0.05,1.45 0.05,2.65 l -3.5,-0.85 1.25,-2.15 q 0.75,-1.1 0.6,-1.7 -0.1,-0.6 -1,-1.1 -1.65,-1.15 -4,-2.3 2.7,-2.05 5.9,-3.6 l 1.45,-0.9 q 0.8,-0.8 0.3,-1.6 h -0.05 l 0.3,-1.25 0.1,-1.1 0.15,-0.9 0.05,-0.45 0.2,-1.3 0.05,-1 0.15,-0.35 0.05,-0.7 0.1,-0.4 -0.3,-0.7 m 6.15,0 h 4.1 V 3.35 L 74.8,3.5 72,8.95 Q 71,7.9 69.75,7.1 l 0.7,-3.35 0.2,-1.35 0.15,-1.1 q 0.25,-1.2 0.1,-1.5 l -0.15,-0.2 m 4.1,7.9 v 9.55 l -0.7,0.2 q -0.6,0.25 -1.35,0.9 L 72.45,18.35 72,18.3 68.95,17.25 69.4,16.7 l 1,-1.85 0.9,-1.25 0.65,-1.3 0.75,-1.5 0.05,-0.1 1,-1.8 1.1,-1.4 m 0,12.1 v 11.6 l -0.05,-0.05 -1.85,0.25 -6.45,0.95 -0.6,0.1 2.9,-5.75 q 0.5,-1 0.4,-1.55 Q 69.05,24.4 68,23.8 66.55,22.95 64.1,22.3 v -0.65 l 0.05,-3.95 q 2.45,0.4 6.7,2.05 l 1,0.4 0.8,0.3 1.2,-0.45 1,-0.4 m 0,13.15 v 5.2 l -8.4,-4.8 0.4,-0.05 5.7,-0.35 1.45,0.05 0.85,-0.05 M 63.6,40.8 h -5.45 l 1.65,-1.5 1.85,-1.45 0.15,-0.1 0.7,1.15 0.5,0.9 0.1,0.05 0.4,0.75 0.1,0.2 m -47.25,0 H 10.9 l 0.1,-0.2 0.4,-0.75 0.1,-0.05 0.5,-0.9 0.7,-1.15 0.15,0.1 1.85,1.45 1.65,1.5 M -0.5,38 v -5.3 l 0.15,0.05 0.85,0.05 1.45,-0.05 5.7,0.35 0.4,0.05 L -0.5,38 m 0,-6.8 V 19.55 l 1.15,0.45 1.2,0.45 0.8,-0.3 1,-0.4 Q 7.9,18.1 10.35,17.7 l 0.05,3.95 V 22.3 Q 7.95,22.95 6.5,23.8 5.45,24.4 5.3,25.15 5.2,25.7 5.7,26.7 L 8.6,32.45 8,32.35 1.55,31.4 -0.3,31.15 -0.5,31.2 M -0.5,17 V 7.3 l 1.25,1.6 1,1.8 0.05,0.1 0.75,1.5 0.65,1.3 0.9,1.25 1,1.85 0.45,0.55 L 2.5,18.3 2.05,18.35 1.7,18.15 0.35,17.25 -0.5,17 m 0,-13.9 V -0.4 H 3.75 L 3.6,-0.2 Q 3.45,0.1 3.7,1.3 l 0.15,1.1 0.2,1.35 0.7,3.35 Q 3.5,7.9 2.5,8.95 L -0.3,3.5 -0.5,3.1 m 5.4,-3.5 h 5 Q 9.6,-0.2 9.6,0.3 l 0.1,0.4 0.05,0.7 0.15,0.35 0.05,1 0.2,1.3 0.05,0.45 0.15,0.9 0.1,1.1 0.3,1.25 H 10.7 q -0.5,0.8 0.3,1.6 l 1.45,0.9 q 3.2,1.55 5.9,3.6 l -4,2.3 q -0.9,0.5 -1,1.1 -0.15,0.6 0.6,1.7 l 1.25,2.15 -3.5,0.85 0.05,-2.65 0.05,-2.2 q 0.1,-0.95 -0.25,-1.2 L 10.6,15.85 9.15,16.2 6.6,16.9 3.25,10.35 5.35,8.6 6.15,7.85 6.2,7.4 5.35,0.8 4.9,-0.4"
         fill="#000000"
         fill-rule="evenodd"
         stroke="none"
         id="path8" />
      <path
         d="m 9.9,-0.4 0.35,-0.15 0.6,0.1 0.1,0.05 0.2,0.4 v 0.6 l 0.1,0.6 v 0.35 l 0.05,0.9 0.55,4.45 2.05,-1.65 q 3.9,-3.2 7.9,-5.65 l 1.7,-1 0.6,-0.25 0.55,0.35 q 0.1,0.3 -0.4,0.7 L 24,-0.4 13.6,8 q 4.15,1.95 7.55,4.65 1.05,0.85 1,1.55 0,0.7 -0.7,1.15 l -1.3,0.55 q -1.95,0.7 -3.6,1.95 l 1.4,2.6 11.55,-2.7 q 0.95,-0.1 0.95,0.4 l -0.5,0.45 -11.75,4.65 -0.9,0.3 -8.65,2.85 2.65,5.9 q 0.5,0.95 0.3,1.6 -0.15,0.45 -1.3,1.15 -5,2.5 -9.5,5.65 l -0.15,0.1 -1.2,0.65 -0.15,0.05 V 38.15 L -0.5,38 8.05,33.15 7.65,33.1 1.95,32.75 0.5,32.8 -0.35,32.75 -0.5,32.7 -0.7,32.65 v -1.4 L -0.5,31.2 -0.3,31.15 1.55,31.4 8,32.35 8.6,32.45 5.7,26.7 Q 5.2,25.7 5.3,25.15 5.45,24.4 6.5,23.8 7.95,22.95 10.4,22.3 V 21.65 L 10.35,17.7 q -2.45,0.4 -6.7,2.05 l -1,0.4 -0.8,0.3 L 0.65,20 -0.5,19.55 -0.65,19.45 H -0.7 v -2.5 l 0.2,0.05 0.85,0.25 1.35,0.9 0.35,0.2 L 2.5,18.3 5.55,17.25 5.1,16.7 4.1,14.85 3.2,13.6 2.55,12.3 1.8,10.8 1.75,10.7 0.75,8.9 -0.5,7.3 -0.65,7.1 -0.7,7 V 2.9 l 0.2,0.2 0.2,0.4 2.8,5.45 Q 3.5,7.9 4.75,7.1 L 4.05,3.75 3.85,2.4 3.7,1.3 Q 3.45,0.1 3.6,-0.2 L 3.75,-0.4 4.7,-0.55 4.9,-0.4 5.35,0.8 6.2,7.4 6.15,7.85 5.35,8.6 3.25,10.35 6.6,16.9 9.15,16.2 10.6,15.85 11.55,15.9 q 0.35,0.25 0.25,1.2 l -0.05,2.2 -0.05,2.65 3.5,-0.85 -1.25,-2.15 q -0.75,-1.1 -0.6,-1.7 0.1,-0.6 1,-1.1 l 4,-2.3 q -2.7,-2.05 -5.9,-3.6 L 11,9.35 q -0.8,-0.8 -0.3,-1.6 h 0.05 L 10.45,6.5 10.35,5.4 10.2,4.5 10.15,4.05 9.95,2.75 9.9,1.75 9.75,1.4 9.7,0.7 9.6,0.3 q 0,-0.5 0.3,-0.7 m 26.35,0 0.65,-0.25 0.15,-0.05 0.2,0.05 0.2,-0.05 0.8,0.3 0.1,0.05 5.9,2.4 0.25,0.15 0.85,-2 0.3,-0.4 0.8,0.1 0.2,0.65 v 0.5 Q 46.7,2.05 46.2,4 L 45.85,6.85 45.7,7.5 45.25,8.25 Q 44.7,8.8 44.05,8.65 43.3,8.45 43.15,7.8 L 43.1,7.4 43.25,6.45 43.4,5.9 43.45,5.4 44.2,3.1 44.05,3 43.55,2.8 40.9,2 38.15,1 37.35,0.8 37.25,0.75 37.15,0.8 36.35,1 33.6,2 30.95,2.8 30.45,3 30.3,3.1 31.05,5.4 31.1,5.9 31.25,6.45 31.4,7.4 31.35,7.8 Q 31.2,8.45 30.45,8.65 29.8,8.8 29.25,8.25 L 28.8,7.5 28.65,6.85 28.3,4 Q 27.8,2.05 27.85,1.05 v -0.5 l 0.2,-0.65 0.8,-0.1 0.3,0.4 0.85,2 0.25,-0.15 5.9,-2.4 0.1,-0.05 m 14.25,0 -0.25,-0.2 q -0.5,-0.4 -0.4,-0.7 0.05,-0.35 0.55,-0.35 l 0.6,0.25 1.7,1 q 4,2.45 7.9,5.65 L 62.65,6.9 63.2,2.45 63.25,1.55 V 1.2 l 0.1,-0.6 V 0 l 0.2,-0.4 0.1,-0.05 0.6,-0.1 0.35,0.15 0.3,0.7 -0.1,0.4 -0.05,0.7 -0.15,0.35 -0.05,1 -0.2,1.3 -0.05,0.45 -0.15,0.9 -0.1,1.1 -0.3,1.25 h 0.05 q 0.5,0.8 -0.3,1.6 l -1.45,0.9 q -3.2,1.55 -5.9,3.6 2.35,1.15 4,2.3 0.9,0.5 1,1.1 0.15,0.6 -0.6,1.7 l -1.25,2.15 3.5,0.85 Q 62.7,20.75 62.75,19.3 L 62.7,17.1 q -0.1,-0.95 0.25,-1.2 l 0.95,-0.05 1.45,0.35 2.55,0.7 3.35,-6.55 -2.1,-1.75 Q 68.5,8.15 68.35,7.85 L 68.3,7.4 69.15,0.8 q 0.15,-0.85 0.45,-1.2 l 0.2,-0.15 0.95,0.15 0.15,0.2 q 0.15,0.3 -0.1,1.5 l -0.15,1.1 -0.2,1.35 -0.7,3.35 Q 71,7.9 72,8.95 L 74.8,3.5 74.85,3.35 V 7.5 l -1.1,1.4 -1,1.8 -0.05,0.1 -0.75,1.5 -0.65,1.3 -0.9,1.25 -1,1.85 -0.45,0.55 3.05,1.05 0.45,0.05 0.35,-0.2 q 0.75,-0.65 1.35,-0.9 l 0.7,-0.2 v 2.55 l -1,0.4 -1.2,0.45 -0.8,-0.3 -1,-0.4 Q 66.6,18.1 64.15,17.7 l -0.05,3.95 v 0.65 q 2.45,0.65 3.9,1.5 1.05,0.6 1.2,1.35 0.1,0.55 -0.4,1.55 l -2.9,5.75 0.6,-0.1 6.45,-0.95 1.85,-0.25 0.05,0.05 v 1.55 L 74,32.8 l -1.45,-0.05 -5.7,0.35 -0.4,0.05 8.4,4.8 v 3.45 l -1,-0.6 -0.15,-0.1 Q 69.2,37.55 64.2,35.05 L 62.9,33.9 q -0.2,-0.65 0.3,-1.6 l 2.65,-5.9 -8.65,-2.85 -0.9,-0.3 Q 50.5,21.1 44.55,18.6 l -0.5,-0.45 q 0,-0.5 0.95,-0.4 l 11.55,2.7 1.4,-2.6 Q 56.3,16.6 54.35,15.9 l -1.3,-0.55 q -0.7,-0.45 -0.7,-1.15 -0.05,-0.7 1,-1.55 Q 56.75,9.95 60.9,8 L 50.5,-0.4 M 65.2,40.8 64.9,41.1 63.95,41.15 63.6,40.8 63.5,40.6 63.1,39.85 63,39.8 l -0.5,-0.9 -0.7,-1.15 -0.15,0.1 -1.85,1.45 -1.65,1.5 -0.05,0.05 -0.85,1 -1.05,0.55 q -0.65,0.1 -1.15,-0.4 -0.55,-0.55 -0.2,-1.2 0.1,-0.35 0.7,-0.85 l 2.9,-2.25 1.6,-1.25 -2.95,-4.6 -1.75,-3.6 -1.05,-1.55 q -0.6,-0.95 -0.85,-1.7 -0.2,-0.4 0,-0.6 l 0.5,-0.05 0.4,0.35 0.85,1.15 1.35,1.85 2.65,4.35 1.4,2.05 1.35,2.05 0.15,0.35 0.05,0.15 0.4,0.35 2.4,2.45 0.35,0.75 -0.1,0.6 m -12.9,0 -0.2,0.2 -0.65,0.2 q -0.5,0.1 -0.8,-0.4 v -0.05 q -0.2,-0.35 0,-1.2 0.5,-1.8 1.1,-3.1 L 51.8,36.25 51.7,36 Q 50.4,34.2 48.8,32.85 L 48.5,32.5 q -0.2,-0.35 0.1,-0.55 l 0.55,0.05 1.15,0.8 0.7,0.7 1.35,1.55 0.35,0.4 0.7,0.55 0.05,0.95 -0.35,1.6 -0.5,1.65 -0.2,0.5 -0.1,0.1 m -28.45,0 q -0.3,0.5 -0.8,0.4 L 22.4,41 22.2,40.8 22.1,40.7 21.9,40.2 21.4,38.55 21.05,36.95 Q 20.95,36.3 21.1,36 l 0.7,-0.55 0.35,-0.4 1.35,-1.55 0.7,-0.7 1.15,-0.8 0.55,-0.05 q 0.3,0.2 0.1,0.55 l -0.3,0.35 Q 24.1,34.2 22.8,36 l -0.1,0.25 0.05,0.2 1.1,3.1 q 0.2,0.85 0,1.2 v 0.05 m -4.2,0 q 0.35,0.65 -0.2,1.2 -0.5,0.5 -1.15,0.4 -0.55,-0.05 -1.05,-0.55 L 16.4,40.85 16.35,40.8 14.7,39.3 12.85,37.85 12.7,37.75 12,38.9 11.5,39.8 11.4,39.85 11,40.6 10.9,40.8 10.55,41.15 9.6,41.1 9.3,40.8 9.2,40.2 q 0.1,-0.5 0.35,-0.75 l 2.4,-2.45 0.4,-0.35 0.05,-0.15 0.15,-0.35 1.35,-2.05 1.4,-2.05 2.65,-4.35 1.35,-1.85 0.85,-1.15 0.4,-0.35 0.5,0.05 q 0.2,0.2 0,0.6 l -0.85,1.7 -1.05,1.55 -1.75,3.6 -2.95,4.6 1.6,1.25 2.9,2.25 0.7,0.85"
         fill="#ffffff"
         fill-rule="evenodd"
         stroke="none"
         id="path9" />
      <path
         d="m 53.7,18.4 q 1.15,1.85 0.5,3.8 -0.55,2.05 -2.45,2.95 -1.05,0.55 -2.3,0.55 L 47.95,25.55 46.9,25.2 Q 46.1,24.75 45.2,23.35 L 44.75,22.5 q -0.3,-0.65 -0.2,-1.45 0.15,-2.2 1.65,-3.55 l 0.15,-0.15 q 1.7,-1.45 3.95,-1.15 2.25,0.35 3.4,2.2 M 24.45,25.7 22.95,25.55 21.9,25.2 Q 21.1,24.75 20.2,23.35 L 19.75,22.5 q -0.3,-0.65 -0.2,-1.45 0.15,-2.2 1.65,-3.55 l 0.15,-0.15 q 1.7,-1.45 3.95,-1.15 2.25,0.35 3.4,2.2 1.15,1.85 0.5,3.8 -0.55,2.05 -2.45,2.95 -1.05,0.55 -2.3,0.55"
         fill="#000000"
         fill-rule="evenodd"
         stroke="none"
         id="path10" />
      <path
         d="m 21.2,17.5 -0.05,-0.05 q -0.5,-0.75 -0.3,-1.5 l 0.3,-1.2 q 1.3,-3.7 4.6,-6.5 2.75,-2.35 6.95,-3.9 l 0.9,0.1 q 0.45,0.45 -0.45,1.1 l -1.25,1 Q 30.7,7.65 30,8.7 29.4,9.55 28.95,10.5 l -0.9,2.6 2.5,0.2 q 0.9,0.1 1.4,0.45 0.7,0.45 0.85,1.45 v 0.2 0.25 0.05 l -0.6,2 -2.4,4.7 -0.75,1.75 -2.25,5.35 -0.3,0.75 -0.45,0.95 -0.55,0.4 -0.65,-0.1 q -0.4,-0.25 -0.5,-0.95 L 24.3,30.05 Q 24.15,29.65 24.15,29 l 0.3,-3.3 q 1.25,0 2.3,-0.55 1.9,-0.9 2.45,-2.95 0.65,-1.95 -0.5,-3.8 -1.15,-1.85 -3.4,-2.2 -2.25,-0.3 -3.95,1.15 L 21.2,17.5"
         fill="#ffffff"
         fill-rule="evenodd"
         stroke="none"
         id="path11" />
      <path
         d="m 24.9,36.75 q -3.7,-1.6 -5.3,-3.4 -2.9,-3.15 -2.9,-9.35 0,-5.4 2.15,-10.2 l -0.2,-0.65 v -0.1 l -0.5,-1.1 -0.4,-1.6 L 17.5,9.85 16.65,6.7 Q 16.1,4.8 16.05,3.4 l 0.2,-1.2 q 0.4,-0.75 1.2,-0.9 l 1.2,0.1 q 2.5,0.65 6.5,2.9 l 1.25,0.65 q 4.75,-3 11.1,-3.1 4.3,-0.1 7.6,1.4 1.6,0.7 3.25,1.95 1.2,-0.7 3.55,-1.5 l 3.65,-1.35 1.75,-0.7 q 1.2,-0.2 1.75,0.45 0.6,0.65 0.4,1.8 l -0.2,0.8 -3.6,9.05 0.25,0.6 q 0.65,1.5 1,4.1 0.6,4.85 -0.7,9.2 -1.45,4.7 -4.85,7.5 -5.25,4.3 -15.85,3.9 l -5.4,-0.6 Q 27.9,38 24.9,36.75 M 53.7,18.4 q -1.15,-1.85 -3.4,-2.2 -2.25,-0.3 -3.95,1.15 L 46.2,17.5 q -1.5,1.35 -1.65,3.55 -0.1,0.8 0.2,1.45 l 0.45,0.85 q 0.9,1.4 1.7,1.85 l 1.05,0.35 1.5,0.15 q 1.25,0 2.3,-0.55 1.9,-0.9 2.45,-2.95 0.65,-1.95 -0.5,-3.8 m -29.25,7.3 -0.3,3.3 q 0,0.65 0.15,1.05 l 0.05,0.5 q 0.1,0.7 0.5,0.95 l 0.65,0.1 0.55,-0.4 0.45,-0.95 0.3,-0.75 2.25,-5.35 0.75,-1.75 2.4,-4.7 0.6,-2 V 15.65 15.4 15.2 q -0.15,-1 -0.85,-1.45 -0.5,-0.35 -1.4,-0.45 l -2.5,-0.2 0.9,-2.6 Q 29.4,9.55 30,8.7 30.7,7.65 31.9,6.55 l 1.25,-1 q 0.9,-0.65 0.45,-1.1 l -0.9,-0.1 q -4.2,1.55 -6.95,3.9 -3.3,2.8 -4.6,6.5 l -0.3,1.2 q -0.2,0.75 0.3,1.5 l 0.05,0.05 q -1.5,1.35 -1.65,3.55 -0.1,0.8 0.2,1.45 l 0.45,0.85 q 0.9,1.4 1.7,1.85 l 1.05,0.35 1.5,0.15"
         fill="#999999"
         fill-rule="evenodd"
         stroke="none"
         id="path12" />
    </g>
    <g
       id="shape2"
       transform="translate(2,2.05)">
      <path
         d="M -0.5,-0.4 V -0.55 H 75.1 V -0.4 40.8 H -0.5 Z"
         fill="none"
         stroke="#000000"
         stroke-linecap="round"
         stroke-linejoin="round"
         stroke-width="3"
         id="path13" />
    </g>
  </defs>
</svg>
