<?xml version="1.0" encoding="UTF-8" standalone="no"?>
<svg
   ffdec:objectType="frame"
   height="60.799999"
   width="67.099998"
   version="1.1"
   id="svg8"
   sodipodi:docname="362.svg"
   xmlns:inkscape="http://www.inkscape.org/namespaces/inkscape"
   xmlns:sodipodi="http://sodipodi.sourceforge.net/DTD/sodipodi-0.dtd"
   xmlns:xlink="http://www.w3.org/1999/xlink"
   xmlns="http://www.w3.org/2000/svg"
   xmlns:svg="http://www.w3.org/2000/svg"
   xmlns:ffdec="https://www.free-decompiler.com/flash">
  <sodipodi:namedview
     id="namedview8"
     pagecolor="#ffffff"
     bordercolor="#000000"
     borderopacity="0.25"
     inkscape:showpageshadow="2"
     inkscape:pageopacity="0.0"
     inkscape:pagecheckerboard="0"
     inkscape:deskcolor="#d1d1d1"
     fit-margin-top="5"
     fit-margin-left="5"
     fit-margin-right="5"
     fit-margin-bottom="5" />
  <g
     transform="translate(1.5,1.5)"
     id="g3">
    <use
       ffdec:characterId="516"
       height="57.549999"
       width="64.099998"
       xlink:href="#shape0"
       id="use1" />
    <use
       ffdec:characterId="863"
       height="57.049999"
       transform="translate(-0.3,2.4)"
       width="64.900002"
       xlink:href="#shape1"
       id="use2" />
    <use
       ffdec:characterId="518"
       height="60.549999"
       transform="translate(-1.5,-1.5)"
       width="67.099998"
       xlink:href="#shape2"
       id="use3" />
  </g>
  <defs
     id="defs8">
    <g
       id="shape0">
      <path
         d="M 53.6,0 H 64.1 V 57.55 H 53.6 28.25 0 V 0 H 28.25 53.6 V 57.55 0 M 28.25,0 V 57.55 0"
         fill="#ffffff"
         fill-rule="evenodd"
         stroke="none"
         id="path3" />
    </g>
    <g
       id="shape1"
       transform="translate(0.3,-2.4)">
      <path
         d="m 11.05,21.6 0.55,-1.4 0.2,-1.45 q 1.1,-6.75 3.7,-11.4 0.9,-1.65 1.85,-2.4 1.4,-1.15 2.85,-0.7 0.95,0.25 2.4,1.8 l 2.7,2.55 3.05,-0.8 q 3.8,-1.1 7.6,0 L 39,8.6 41.7,6.05 q 1.45,-1.55 2.4,-1.8 1.45,-0.45 2.85,0.7 0.95,0.75 1.85,2.4 2.6,4.65 3.7,11.4 l 0.2,1.45 0.55,1.4 q 1.7,4.7 2,9.05 l 0.5,-1.35 0.5,-2.1 q 0,-1.15 -0.7,-3.15 l -0.4,-1.15 -0.45,-1.05 -0.25,-0.5 q 0,-0.5 0.65,-0.4 l 0.65,0.45 0.9,1 1.05,1.75 0.85,1.7 0.3,1.25 0.2,2.3 h 1.25 l 0.05,-0.15 Q 60.7,25.45 59.1,22.8 l -2,-3 -0.1,-0.4 q 0,-0.2 0.15,-0.3 l 0.35,-0.05 0.65,0.25 2.35,1.85 q 1.9,1.75 2.8,4.5 l 0.65,2.7 0.2,1.1 0.05,1.25 -0.05,0.3 0.3,0.25 0.15,0.15 v 17.8 l -1.15,0.4 q -0.9,1.55 -3.15,2.9 -4.35,2.6 -9.35,3.3 l -3.8,0.2 -0.2,0.7 -0.8,0.8 -1.05,0.15 -0.15,-0.05 -1.55,0.65 -3.3,0.65 -7.55,0.4 -0.4,-0.05 -0.4,0.05 L 24.2,58.9 20.9,58.25 19.35,57.6 19.2,57.65 18.15,57.5 Q 17.6,57.2 17.35,56.7 L 17.15,56 13.35,55.8 Q 8.35,55.1 4,52.5 1.75,51.15 0.85,49.6 L -0.3,49.2 V 31.4 L -0.15,31.25 0.15,31 0.1,30.7 0.15,29.45 0.35,28.35 1,25.65 q 0.9,-2.75 2.8,-4.5 l 2.35,-1.85 0.65,-0.25 0.35,0.05 0.15,0.3 -0.1,0.4 -2,3 Q 3.6,25.45 3.95,29.25 L 4,29.4 H 5.25 Q 5.2,28.3 5.45,27.1 l 0.3,-1.25 0.85,-1.7 1.05,-1.75 0.9,-1 q 0.4,-0.4 0.65,-0.45 0.65,-0.1 0.65,0.4 l -0.25,0.5 -0.45,1.05 -0.4,1.15 q -0.7,2 -0.7,3.15 l 0.5,2.1 0.5,1.35 q 0.3,-4.35 2,-9.05 m 40.3,23.35 q -2.4,3.2 -5.75,4.8 l 3,-0.15 1.45,-0.35 L 50.4,49 q 1.2,-0.95 1.6,-2.65 l 0.1,-2.45 -0.75,1.05 m -38.4,0 -0.75,-1.05 0.1,2.45 q 0.4,1.7 1.6,2.65 l 0.35,0.25 1.45,0.35 3,0.15 q -3.35,-1.6 -5.75,-4.8"
         fill="#999999"
         fill-rule="evenodd"
         stroke="none"
         id="path4" />
      <path
         d="m 50.95,31.55 0.4,1.55 Q 52,37 49.1,40.45 V 40.2 l -0.6,-8.65 -0.2,-1.65 -0.25,-1.45 0.1,0.05 0.65,0.35 1.15,1.1 0.85,1.35 0.15,0.25 M 45.6,43.2 q -1.7,0.9 -3.65,1.45 l -0.2,0.05 -4.4,0.7 -0.25,0.05 -3.15,0.15 H 33.9 L 32.45,45.65 31,45.6 l -4.1,-0.25 -2.8,-0.4 -1.15,-0.3 q -2.1,-0.55 -3.8,-1.55 l -2.1,-1.45 0.4,-0.15 0.85,-0.9 0.15,-0.25 q 2.3,-3.4 5.45,-6.75 l 0.45,1.85 q 1.05,4.2 2.55,7.85 l 0.25,0.7 q 0.7,1.5 1.55,1.3 0.65,-0.1 0.95,-1.4 1,-3.75 2.75,-7.05 L 32.45,37 32.5,36.85 q 1.15,2.15 1.95,4.45 l 0.8,2.6 q 0.3,1.3 0.95,1.4 0.55,0.15 1,-0.4 l 0.1,-0.15 0.3,-0.4 L 37.75,44 Q 39.7,39.3 41,33.6 q 2.8,3 4.95,6.05 l 0.5,0.7 1,1.15 0.4,0.15 -2.25,1.55 M 15.7,40.3 q -1,-1.2 -1.55,-2.5 -1,-2.25 -0.6,-4.7 0.25,-1.8 1.4,-3.15 L 15.1,29.8 q 0.75,-0.95 1.75,-1.35 -0.6,3.55 -0.95,9.9 v 0.05 l -0.1,1.8 v 0.25 L 15.7,40.3 m 3.4,-14.05 -0.9,0.05 h -0.05 l -0.3,-0.6 Q 17.5,24.85 17.7,23.3 l 0.2,-1 q 0.25,-1 1.1,-1.85 l 0.05,0.1 1.95,1.7 q 0.95,0.7 2.05,1.2 l 1.8,0.75 0.7,0.2 0.8,0.2 0.2,0.1 0.95,0.3 -0.15,0.4 -0.3,0.75 L 26.55,27 26.1,27.45 24.65,27 23.2,26.55 l -1.1,-0.3 -0.8,-0.1 -2.2,0.1 m 8.9,6 1.3,0.5 2.55,0.45 -0.35,0.6 -3.3,7.4 -1.35,-4.15 q -1,-3.35 -1.25,-5.55 l -0.1,-0.55 1.25,0.7 1.25,0.6 m 5.05,0.95 1.05,-0.1 1.5,-0.35 1.05,-0.4 2.75,-1.4 -0.1,0.55 q -0.4,3.45 -2.6,9.7 l -3.3,-7.4 -0.35,-0.6 m 8.85,-9.85 2.75,-1.3 1.7,-1.1 0.1,-0.1 q 0.7,1.35 0.65,2.65 L 47,24.25 46.85,25 l -1.05,0.1 -0.85,0.2 -0.3,0.05 -2.25,0.9 -2.25,1.15 -0.45,-0.3 -1.35,-1.25 -0.7,-1.25 0.1,-0.05 4.15,-1.2 m 3.35,4.75 1.2,-0.05 0.45,4.3 0.1,3.8 -0.05,1.45 -0.6,-0.7 -4.95,-5.8 -1,-0.75 0.1,-0.05 q 2.15,-1.3 3.2,-1.75 l 1.55,-0.45 m -26.8,-0.05 q 1.25,-0.1 2.75,0.5 l 0.25,0.1 2.95,1.65 0.1,0.05 -1,0.75 -5.3,6.25 -0.25,0.25 v -2.95 q 0,-1.6 0.15,-3.2 l 0.35,-3.4"
         fill="#ffffff"
         fill-rule="evenodd"
         stroke="none"
         id="path5" />
      <path
         d="m 49.1,40.45 -0.25,0.95 -0.2,0.2 -0.45,0.1 -0.35,-0.05 -0.4,-0.15 -1,-1.15 -0.5,-0.7 Q 43.8,36.6 41,33.6 39.7,39.3 37.75,44 l -0.15,0.35 -0.3,0.4 -0.1,0.15 q -0.45,0.55 -1,0.4 -0.65,-0.1 -0.95,-1.4 l -0.8,-2.6 Q 33.65,39 32.5,36.85 L 32.45,37 32.4,36.85 q -1.75,3.3 -2.75,7.05 -0.3,1.3 -0.95,1.4 -0.85,0.2 -1.55,-1.3 L 26.9,43.3 Q 25.4,39.65 24.35,35.45 L 23.9,33.6 q -3.15,3.35 -5.45,6.75 l -0.15,0.25 -0.85,0.9 -0.4,0.15 -0.35,0.05 -0.65,-0.3 Q 15.85,41.1 15.8,40.45 V 40.2 l 0.1,-1.8 v -0.05 q 0.35,-6.35 0.95,-9.9 l 0.1,-0.55 0.2,-0.75 0.1,-0.15 q 0.45,-0.55 0.85,-0.3 l 0.35,0.45 v 0.8 0.05 0.05 l -0.35,3.4 q -0.15,1.6 -0.15,3.2 v 2.95 l 0.25,-0.25 5.3,-6.25 1,-0.75 h 0.1 l 0.3,-0.05 0.25,0.15 0.35,0.5 0.1,0.55 q 0.25,2.2 1.25,5.55 l 1.35,4.15 3.3,-7.4 0.35,-0.6 q 0.3,-0.4 0.6,-0.55 l 0.6,0.55 0.35,0.6 3.3,7.4 q 2.2,-6.25 2.6,-9.7 l 0.1,-0.55 q 0.15,-0.4 0.35,-0.5 l 0.65,-0.1 1,0.75 4.95,5.8 0.6,0.7 0.05,-1.45 -0.1,-3.8 -0.45,-4.3 v -0.1 -0.8 h 1.3 l 0.2,0.75 0.1,0.55 0.25,1.45 0.2,1.65 0.6,8.65 v 0.25"
         fill="#999999"
         fill-rule="evenodd"
         stroke="none"
         id="path6" />
      <path
         d="m 53.95,3.6 0.4,1.05 q 0.35,2.3 -1.9,4.1 -0.55,0.45 -0.9,0.2 L 51.3,8.5 l 0.2,-1 0.2,-1 -0.15,-1.05 -0.2,-1.05 q 0.1,-1 1.05,-1.25 0.95,-0.25 1.55,0.45 m 0.15,9.15 -0.8,0.55 -0.6,-0.1 -0.35,-0.5 q 0,-0.3 0.15,-0.55 0.4,-1.1 1.25,-2 L 54.55,9.5 55.35,9 56.4,8.6 57.3,8.4 58.05,8.5 q 0.95,0.25 1.5,0.8 0.75,0.95 0.35,1.95 -0.5,1.1 -1.65,1.1 l -1.3,-0.4 -1.3,-0.2 -1.15,0.7 -0.4,0.3 m -7,10.75 0.65,2.55 Q 48.1,25.7 48.5,25.55 L 48.25,21.85 47.5,18.3 q -0.1,-0.35 0.1,-0.45 l 0.3,0.05 0.2,0.25 1.05,1.85 1.05,2.5 0.3,0.9 0.45,1 0.4,1.6 0.3,0.25 0.45,0.6 0.35,1.15 -0.1,1.55 -0.3,0.9 -1.1,1.1 -0.15,-0.25 -0.85,-1.35 -1.15,-1.1 -0.65,-0.35 -0.1,-0.05 -0.1,-0.55 -0.2,-0.75 h -1.3 v 0.8 0.1 L 45.25,28.1 45.1,26.9 44.95,25.3 45.8,25.1 46.85,25 47,24.25 47.1,23.5 m 1.55,18.1 v 0.05 l 0.25,2.25 v 0.8 q 0,1.15 -0.6,2.05 L 47.2,47.7 Q 46.35,48 45.6,47.35 44.95,46.7 45.1,45.8 l 0.3,-1.15 0.2,-1.45 2.25,-1.55 0.35,0.05 0.45,-0.1 m -6.9,3.1 0.2,0.5 q 0.2,0.85 -0.2,1.7 -0.4,0.85 -1.2,1.2 -1,0.45 -2.05,0 l -1,-0.85 -0.05,0.75 -0.6,1.05 q -0.5,0.4 -1.1,0.45 -0.65,0.05 -1.2,-0.35 -0.55,-0.4 -0.7,-1 l 0.05,-1.9 0.05,-0.65 3.15,-0.15 0.25,-0.05 4.4,-0.7 M 26.9,45.35 q 0.1,3 0.4,4.6 0.3,1.3 0.1,1.9 -0.25,0.95 -1.35,1.1 -1,0.1 -1.55,-0.8 -0.3,-0.55 -0.3,-1.6 l -0.1,-5.6 2.8,0.4 m -7.75,-2.25 0.05,0.15 0.2,1.1 q 0,1.25 -1.05,1.75 -1.05,0.55 -2,-0.2 -0.65,-0.5 -0.8,-1.5 l -0.05,-1.7 0.2,-2.4 0.1,0.15 q 0.05,0.65 0.25,0.95 l 0.65,0.3 0.35,-0.05 2.1,1.45 m -5,-5.3 -0.15,0.05 -1.25,0.1 q -0.65,-0.15 -1.05,-0.7 -0.45,-0.55 -0.5,-1.2 0,-0.45 0.3,-1.45 l 0.6,-3.4 1.95,-5.6 Q 14.9,23.35 15.4,22.45 L 17.2,20 17.4,19.8 q 0.4,-0.1 0.4,0.35 l -0.2,0.55 q -0.75,1.25 -1.45,3.7 -0.65,2.65 -1.05,5.25 v 0.15 l -0.15,0.15 q -1.15,1.35 -1.4,3.15 -0.4,2.45 0.6,4.7 m 4.3,-9.8 0.65,-1.75 2.2,-0.1 0.8,0.1 -0.05,0.1 -0.5,1.75 -0.1,0.55 -0.25,-0.1 q -1.5,-0.6 -2.75,-0.5 V 28 M 21,22.25 q 1.05,-1.8 2.35,-3.35 l 0.1,-0.05 -0.5,-0.65 q -0.8,-1.3 -0.25,-2.7 0.05,-0.35 0.35,-0.75 l 0.4,-0.65 0.6,-0.75 L 25,12.5 q 0.9,-0.65 2.45,-0.55 0.9,0.1 1.7,0.55 1.55,1.1 1.45,3.15 -0.05,1.15 -0.6,2.1 h 0.05 l 0.5,0.65 q 0.3,0.55 0.15,1.25 -0.15,0.75 -0.65,1.1 l -0.9,0.35 -0.95,0.1 -0.6,-0.25 0.1,4.45 0.1,1.65 -0.05,3.45 0.25,1.75 -1.25,-0.6 -1.25,-0.7 -0.35,-0.5 -0.25,-0.15 -0.3,0.05 0.05,-3.35 1.45,0.45 0.45,-0.45 0.5,-0.85 0.3,-0.75 0.15,-0.4 -0.95,-0.3 -0.2,-0.1 -0.8,-0.2 -0.7,-0.2 q 0.25,-2.45 0.9,-4.3 L 25.6,19.85 24.65,19.6 23.6,21.85 23.05,23.45 Q 21.95,22.95 21,22.25 M 34.1,33.1 34.35,27.75 34.4,26.5 34.35,25.25 34.4,24.9 34.3,24.7 q -0.35,-1.2 0.1,-2.2 l 0.1,-0.35 0.5,-0.8 0.5,-0.6 q 0.85,-0.8 2.05,-1 1.2,-0.25 2.25,0.25 1.35,0.6 1.7,1.8 l 0.1,0.6 0.2,0.5 0.1,0.45 -4.15,1.2 -0.1,0.05 0.7,1.25 1.35,1.25 -1.15,0.25 -2.25,-0.55 -0.3,-0.15 0.65,5.7 -1.05,0.4 -1.5,0.35 M 44.65,22.05 44.55,21.4 44.3,20.3 43.7,18.95 43.25,17.6 41.4,17.65 q -1,-0.5 -1.15,-1.6 -0.15,-1.15 0.75,-1.9 0.4,-0.3 0.65,-0.35 0.9,-0.2 1.9,0.5 0.95,0.75 0.9,1.5 l -0.2,0.8 1.55,2.6 0.25,0.85 0.3,0.9 -1.7,1.1 M 57.1,36.4 q 0.75,0.2 1.7,0.7 l 0.55,0.3 1.6,1.6 0.35,0.5 0.55,1 0.15,0.65 q 0.2,0.95 0,1.4 -0.35,0.8 -1.15,0.9 Q 60.05,43.6 59.5,43 59.05,42.5 59.15,41.85 l -0.7,-2.55 -0.1,-0.05 -0.4,-0.95 -0.5,-0.7 -1,-0.8 -0.05,-0.2 0.05,-0.15 0.65,-0.05 M 54.55,49.15 54.3,48.8 54.15,48.5 53.8,47.4 53.7,47.35 53.6,46.9 l -0.05,-1.3 0.3,-2.05 0.1,-0.35 0.15,-0.35 0.15,-0.55 q 0.2,-0.35 0.5,-0.15 l 0.35,0.6 0.1,0.6 q -0.15,0.85 0.2,1.85 l 0.25,0.65 0.35,0.65 0.25,0.3 0.55,0.8 q 0.55,0.9 -0.2,1.6 -0.75,0.65 -1.65,0.25 l -0.4,-0.3 M 36.55,5.3 Q 35.95,5.35 35.5,4.85 35.05,4.4 35.05,3.8 q 0.05,-0.6 0.5,-1.05 0.5,-0.4 1.1,-0.35 0.65,0 1.15,0.6 l 0.65,1.1 q 0.45,1.1 0,1.85 -0.3,0.5 -0.75,0.3 L 37.4,5.8 37.05,5.35 36.55,5.3 m -1.9,4.5 1.7,-0.15 q 1.3,0.25 1.8,1.2 0.3,0.6 0.15,1.3 l -0.5,1.05 0.1,0.2 0.55,1.2 q 0.5,1.35 0.25,1.95 -0.45,1.05 -1.5,0.85 -1.05,-0.25 -1.15,-1.3 l 0.1,-1 0.05,-1.15 -0.85,-0.05 Q 34.6,13.75 34.05,13.25 33.5,12.7 33.45,12 q 0,-0.8 0.5,-1.45 l 0.7,-0.75 m -14.05,1.7 0.85,-0.45 0.65,-0.15 2.1,-0.2 q 0.3,0 0.45,0.2 l -0.05,0.4 -1.35,1 -1.7,1.6 -0.7,0.95 -0.7,0.6 q -0.85,0.4 -1.5,-0.25 -0.7,-0.55 -0.45,-1.5 l 0.15,-0.35 0.65,-0.8 0.95,-0.8 0.65,-0.25 M 11.7,4.1 q 0.6,-0.85 1.6,-0.5 1.05,0.45 0.95,1.45 l -0.5,1 -0.45,0.4 Q 13,6.8 13.1,7.4 l 0.05,1 L 12.8,8.8 12.3,8.7 12,8.2 q -0.65,-1.8 -0.6,-2.9 0,-0.8 0.3,-1.2 m -0.95,9.95 -0.5,-0.1 -0.4,-0.3 L 8.8,13.45 7.75,13.65 7.3,13.85 7,14.2 Q 6.25,15.1 5.1,14.85 4,14.6 3.65,13.45 L 3.6,12.65 3.7,12 4.55,10.9 5.05,10.5 Q 5.65,10.1 6.7,10 l 1.8,0.1 1.1,0.5 0.45,0.35 0.75,1 0.25,0.5 0.1,0.5 v 0.65 l -0.4,0.45 M 5.65,43.8 5.3,44.9 v 1.2 L 5.35,47 q -0.05,0.55 -0.5,0.9 -0.4,0.4 -0.95,0.45 -1.2,0.1 -1.65,-1.1 -0.2,-0.65 0.2,-1.9 l 0.2,-0.45 0.5,-1 1.05,-1.8 0.4,-0.5 0.6,-0.8 q 0.45,-0.6 1.05,-1.05 l 0.7,-0.6 0.35,-0.35 0.45,-0.1 q 0.2,0.05 0.2,0.35 l -0.15,0.4 -0.5,0.75 -0.25,0.55 -0.55,1.1 -0.55,1.1 -0.3,0.85 m 4.35,6.1 0.15,-0.6 0.25,-1.8 -0.1,-0.45 0.05,-0.25 0.4,-0.25 0.3,0.2 0.15,0.4 0.35,1.7 0.15,0.9 0.15,0.3 0.05,1.05 -0.05,0.5 -0.2,1.25 q -0.45,1.05 -1.5,1.05 -0.5,0 -0.9,-0.3 Q 8.8,53.3 8.7,52.8 V 52.1 Q 8.8,51.3 9.15,51 L 9.45,50.75 10,49.9 M 30.85,25.65 Q 31,25 31.7,24.75 l 1.2,0.1 q 0.45,0.25 0.6,0.8 l -0.05,0.95 -0.75,0.65 -0.4,0.1 0.1,1.25 0.15,1 0.1,0.35 v 0.45 l 0.15,0.85 q 0,0.7 -0.65,1.1 -0.65,0.35 -1.25,0 -0.65,-0.4 -0.65,-1.15 L 30.9,27.65 V 27.1 L 31,26.6 q -0.25,-0.5 -0.15,-0.95 m 10.9,26.1 0.2,0.4 0.3,0.65 0.35,0.9 q 0.05,0.6 -0.3,0.9 -0.5,0.5 -1.15,0.35 -0.65,-0.2 -0.8,-0.8 -0.15,-0.4 0.05,-1.2 l 0.3,-1.1 0.25,-0.45 q 0.2,-0.2 0.45,0 l 0.35,0.35"
         fill="#000000"
         fill-rule="evenodd"
         stroke="none"
         id="path7" />
    </g>
    <g
       id="shape2"
       transform="translate(1.5,1.5)">
      <path
         d="M 0,23.8 V 0 H 64.1 V 23.8 57.55 H 0 Z"
         fill="none"
         stroke="#000000"
         stroke-linecap="round"
         stroke-linejoin="round"
         stroke-width="3"
         id="path8" />
    </g>
  </defs>
</svg>
