<?xml version="1.0" encoding="UTF-8" standalone="no"?>
<svg
   ffdec:objectType="frame"
   height="60.549999"
   width="67.099998"
   version="1.1"
   id="svg7"
   sodipodi:docname="172.svg"
   xmlns:inkscape="http://www.inkscape.org/namespaces/inkscape"
   xmlns:sodipodi="http://sodipodi.sourceforge.net/DTD/sodipodi-0.dtd"
   xmlns:xlink="http://www.w3.org/1999/xlink"
   xmlns="http://www.w3.org/2000/svg"
   xmlns:svg="http://www.w3.org/2000/svg"
   xmlns:ffdec="https://www.free-decompiler.com/flash">
  <sodipodi:namedview
     id="namedview7"
     pagecolor="#ffffff"
     bordercolor="#000000"
     borderopacity="0.25"
     inkscape:showpageshadow="2"
     inkscape:pageopacity="0.0"
     inkscape:pagecheckerboard="0"
     inkscape:deskcolor="#d1d1d1"
     fit-margin-top="5"
     fit-margin-left="5"
     fit-margin-right="5"
     fit-margin-bottom="5" />
  <g
     transform="translate(1.5,1.5)"
     id="g3">
    <use
       ffdec:characterId="516"
       height="57.549999"
       width="64.099998"
       xlink:href="#shape0"
       id="use1" />
    <use
       ffdec:characterId="680"
       height="56.900002"
       transform="translate(-0.25,0.3)"
       width="64.849998"
       xlink:href="#shape1"
       id="use2" />
    <use
       ffdec:characterId="518"
       height="60.549999"
       transform="translate(-1.5,-1.5)"
       width="67.099998"
       xlink:href="#shape2"
       id="use3" />
  </g>
  <defs
     id="defs7">
    <g
       id="shape0">
      <path
         d="M 53.6,0 H 64.1 V 57.55 H 53.6 28.25 0 V 0 H 28.25 53.6 V 57.55 0 M 28.25,0 V 57.55 0"
         fill="#ffffff"
         fill-rule="evenodd"
         stroke="none"
         id="path3" />
    </g>
    <g
       id="shape1"
       transform="translate(0.25,-0.3)">
      <path
         d="M 35.55,10.45 H -0.25 V 0.3 H 64.6 V 10.45 H 35.55 m -19.05,4.4 13.6,0.05 34.5,0.05 v 1.7 H 30.1 L 16.5,16.7 -0.25,16.75 V 14.8 L 16.5,14.85 M 64.6,11.7 v 1.85 H -0.25 V 11.7 H 64.6 m -64.05,8 h -0.8 v -2.05 h 0.8 l 2.8,0.05 5.85,0.05 h 5.55 l 4.25,0.05 3,0.05 h 4.5 l 2.05,0.05 2.95,0.05 h 1.65 l 1.1,0.05 h 3.65 0.45 0.6 0.45 0.35 0.5 1.4 0.2 0.85 1.55 0.6 2.25 l 0.3,0.05 0.15,0.15 0.05,0.1 0.1,0.1 v 0.1 l 0.05,0.1 v 0.1 0.1 L 47.7,18.9 V 19 l -0.1,0.1 -0.05,0.1 -0.15,0.1 -0.3,0.1 h -2.25 -0.6 -1.55 -0.85 -0.2 -1.4 -0.5 -0.35 -0.45 -0.6 -0.45 -3.65 -1.1 L 31.5,19.45 28.55,19.5 H 26.5 L 22,19.55 19,19.6 H 14.75 L 9.2,19.65 3.35,19.7 H 0.55 M 63.2,39.5 h -1.35 -2.8 L 53.2,39.45 47.65,39.4 H 43.4 l -3,-0.05 -4.5,-0.05 H 33.85 L 30.9,39.25 29.25,39.2 H 28.15 24.5 24.05 23.45 23 22.65 22.15 20.75 20.55 19.7 18.15 17.55 15.3 L 15,39.1 14.85,39 14.8,38.9 14.7,38.8 V 38.7 L 14.65,38.6 V 38.5 38.4 L 14.7,38.3 V 38.2 L 14.8,38.1 14.85,38 15,37.85 15.3,37.8 h 2.25 0.6 1.55 0.85 0.2 1.4 0.5 0.35 0.45 0.6 0.45 3.65 l 1.1,-0.05 h 1.65 l 2.95,-0.05 2.05,-0.05 h 4.5 l 3,-0.05 4.25,-0.05 h 5.55 l 5.85,-0.05 2.8,-0.05 h 1.35 l 0.35,0.1 0.2,0.1 0.15,0.1 0.1,0.1 0.05,0.1 0.1,0.1 v 0.1 l 0.05,0.1 v 0.1 l 0.05,0.1 -0.05,0.1 v 0.1 0.1 l -0.05,0.1 -0.05,0.1 -0.05,0.15 -0.1,0.1 -0.1,0.1 -0.15,0.1 -0.15,0.05 -0.1,0.05 H 63.2 M 35.55,47.05 H 64.6 V 57.2 H -0.25 V 47.05 h 35.8 M 64.6,45.8 H -0.25 V 43.95 H 64.6 V 45.8 M 16.5,42.65 -0.25,42.7 v -1.95 l 16.75,0.05 13.6,0.05 h 34.5 v 1.7 L 30.1,42.6 16.5,42.65"
         fill="#999999"
         fill-rule="evenodd"
         stroke="none"
         id="path4" />
      <path
         d="m 45.6,23.1 q -0.5,-1.05 0.1,-1.9 0.75,-0.9 1.75,-0.5 l 0.95,0.75 2.35,3.25 0.2,0.5 L 50.8,25.65 50.15,25.6 47.5,24.45 Q 46,23.75 45.6,23.1 m -13.25,3.65 1.3,0.05 h 0.75 l 0.35,0.05 0.25,0.05 h 1.4 l 1.1,0.05 0.8,0.05 h 0.35 l 0.3,0.05 0.3,0.05 h 0.25 l 0.55,0.05 0.55,0.05 h 0.35 l 0.55,0.05 0.6,0.05 0.4,0.05 h 0.4 l 0.35,0.05 0.4,0.05 H 44 l 0.3,0.05 0.3,0.05 h 0.5 l 0.6,0.05 0.25,0.05 h 0.3 l 0.35,0.05 0.4,0.05 h 0.3 l 0.35,0.05 0.25,0.05 0.8,0.05 h 1.1 l 0.8,0.05 1.35,0.05 h 1 l 0.25,0.05 0.2,0.05 h 0.1 l 0.25,0.05 0.2,0.05 0.3,0.05 0.2,0.1 0.1,0.1 0.1,0.1 0.05,0.1 0.05,0.1 v 0.1 0.15 0.1 0.1 l -0.05,0.1 -0.05,0.1 -0.1,0.1 -0.1,0.1 -0.2,0.1 -0.3,0.05 -0.2,0.05 -0.25,0.05 h -0.1 l -0.2,0.05 -0.25,0.05 -1,0.05 H 50.6 l -0.8,0.05 -1.1,0.05 H 47.9 L 47.65,30.15 47.3,30.2 H 47 l -0.4,0.05 -0.35,0.05 h -0.3 l -0.25,0.05 -0.6,0.05 h -0.5 l -0.3,0.05 -0.3,0.05 -0.35,0.05 h -0.4 l -0.35,0.05 -0.4,0.05 h -0.4 l -0.6,0.05 -0.55,0.05 H 40.6 l -0.55,0.05 -0.55,0.05 h -0.25 l -0.3,0.05 -0.3,0.05 H 38.3 L 37.5,31 36.4,31.05 35,31.1 h -0.25 l -0.35,0.05 -0.75,0.05 h -1.3 l -0.15,0.05 v 0.05 0.1 l -0.05,0.1 v 0.1 0.1 0.1 0.1 L 32.1,32 v 0.1 0.1 0.1 0.1 0.1 l -0.05,0.15 v 0.1 L 32,32.85 v 0.1 l -0.05,0.1 -0.05,0.1 v 0.1 l -0.1,0.1 v 0.1 l -0.1,0.1 -0.05,0.1 -0.1,0.1 -0.1,0.1 -0.1,0.1 -0.15,0.1 -0.2,0.1 -0.2,0.15 -0.2,0.05 -0.15,0.05 H 30.1 29.75 l -0.3,-0.1 -0.2,-0.1 -0.2,-0.1 L 28.9,34 28.75,33.9 28.65,33.8 28.6,33.7 28.45,33.6 28.4,33.5 28.35,33.4 28.3,33.3 28.25,33.2 28.2,33.05 28.15,32.95 v -0.1 -0.1 l -0.05,-0.1 v -0.1 -0.1 l -0.05,-0.1 v -0.1 -0.1 -0.1 -0.1 -0.1 -0.1 -0.1 -0.15 L 28,31.4 V 31.3 31.2 31.1 31 30.9 30.8 30.7 30.6 30.5 30.4 30.3 30.2 30.1 30 v -0.15 -0.1 -0.1 -0.1 -0.1 -0.1 -0.1 -0.1 -0.1 l -0.05,-0.1 v -0.1 -0.1 -0.1 -0.1 -0.1 V 28.3 28.2 28.1 28 27.9 27.8 27.7 27.6 27.5 27.4 27.3 27.2 27.1 27 v -0.1 -0.1 -0.15 -0.1 -0.1 -0.1 -0.1 -0.1 -0.1 -0.1 -0.1 -0.1 -0.1 L 28,25.55 v -0.1 -0.1 -0.1 -0.15 L 28.05,25 v -0.1 -0.1 -0.1 -0.1 l 0.05,-0.1 0.05,-0.1 v -0.1 l 0.05,-0.1 0.05,-0.1 0.1,-0.1 0.05,-0.1 0.05,-0.1 0.15,-0.1 0.1,-0.15 0.1,-0.1 0.15,-0.1 0.2,-0.1 0.2,-0.1 0.25,-0.05 0.1,-0.05 h 0.4 V 23 l 0.35,0.05 0.25,0.1 0.3,0.1 0.15,0.1 0.15,0.1 0.15,0.1 0.1,0.1 0.1,0.1 0.1,0.1 0.05,0.1 0.1,0.1 v 0.1 l 0.1,0.1 v 0.1 l 0.05,0.1 0.05,0.1 v 0.15 l 0.05,0.1 v 0.1 0.1 0.1 l 0.05,0.1 v 0.1 0.1 0.1 0.1 l 0.05,0.1 v 0.1 0.1 0.1 0.1 0.1 0.15 0.1 0.1 0.1 0.1 h 0.1 m 7.25,9.65 q -0.5,0.1 -0.95,-0.2 L 38,35.45 q -0.35,-1.15 0.55,-1.8 0.5,-0.35 1.35,-0.55 l 3.2,-0.7 0.6,-0.05 0.45,0.35 q 0.1,0.35 -0.4,0.75 L 40.9,35.7 39.6,36.4 M 7.7,12.8 6.95,13.3 Q 6.25,13.55 5.6,13.05 5.05,12.6 5.05,11.85 L 5.2,11.05 5,10.95 4.1,9.95 3.9,9.2 Q 3.65,7.05 4.8,5.45 5.8,4.15 7.6,3.5 l 1.75,-0.4 1.4,0.25 1.55,0.55 0.9,0.6 0.75,0.8 0.45,0.95 0.3,1.6 q -0.05,1 -0.7,1.85 l -0.7,0.7 q 0.35,0.6 0.3,1.3 -0.1,0.85 -0.75,1.2 -0.8,0.45 -1.7,-0.2 L 10.8,13.45 9.95,13.95 9,13.7 Q 8.5,13.3 8.3,12.4 L 8.25,12.25 7.7,12.8 M 8,9.1 7.8,8.35 7.2,7.85 5.85,7.95 q -0.7,0.45 -0.6,1.2 0,0.75 0.7,1.2 L 7.35,10.3 Q 8,9.9 8,9.1 m 3.75,-1.3 -0.5,0.7 q -0.15,0.45 0.05,0.85 0.15,0.4 0.6,0.6 l 0.85,0.1 0.7,-0.5 L 13.7,8.75 13.35,7.95 12.6,7.6 H 12.1 L 11.75,7.8 M 24.1,25 H 24.65 25 l 0.15,0.05 0.1,0.05 0.25,0.05 0.2,0.1 0.15,0.1 0.15,0.1 0.15,0.1 0.1,0.1 0.05,0.1 0.1,0.15 0.05,0.1 0.05,0.1 0.1,0.1 v 0.1 l 0.05,0.1 0.05,0.1 v 0.1 l 0.05,0.1 v 0.1 0.1 0.1 0.1 0.1 l -0.05,0.1 v 0.1 0.15 l -0.05,0.1 -0.05,0.1 -0.05,0.1 -0.1,0.1 -0.05,0.1 -0.05,0.1 -0.1,0.1 -0.1,0.1 -0.1,0.1 -0.15,0.1 -0.15,0.1 -0.2,0.1 -0.15,0.1 H 25.25 L 25.15,28.9 25,28.95 H 24.65 24.1 23.7 L 23.4,28.9 23.2,28.85 H 23.05 L 22.95,28.8 22.8,28.75 h -0.15 l -0.25,-0.1 -0.25,-0.1 -0.1,-0.05 -0.9,-0.05 -0.3,-0.05 h -0.1 l -0.2,-0.05 -0.7,-0.05 H 19.5 L 19.25,28.25 18.9,28.2 H 18.65 L 18.45,28.15 18.3,28.1 H 18.2 L 17.85,28.05 17.5,28 17.25,27.95 H 17.1 L 16.55,27.9 16.3,27.85 H 16.05 L 15.4,27.8 14.75,27.75 H 14.5 L 14.2,27.7 13.95,27.65 h -0.3 L 13.35,27.55 13.1,27.5 12.9,27.45 12.5,27.4 H 11.8 L 11.55,27.35 11.3,27.3 H 10.65 L 10,27.25 H 9.45 9.4 L 9.15,27.2 9.05,27.1 9,27 9.05,26.85 9.15,26.75 9.4,26.7 H 9.45 10 l 0.65,-0.05 h 0.65 l 0.25,-0.05 0.25,-0.05 h 0.7 l 0.4,-0.05 0.2,-0.05 0.25,-0.05 0.3,-0.1 h 0.3 l 0.25,-0.05 0.3,-0.05 h 0.25 L 15.4,26.15 16.05,26.1 H 16.3 L 16.55,26.05 17.1,26 h 0.15 l 0.25,-0.05 0.35,-0.05 h 0.35 l 0.1,-0.05 0.15,-0.05 0.2,-0.05 h 0.25 l 0.35,-0.05 0.25,-0.05 h 0.35 l 0.7,-0.05 0.2,-0.05 h 0.1 l 0.3,-0.05 0.95,-0.05 0.2,-0.15 0.2,-0.05 0.15,-0.05 h 0.15 l 0.15,-0.05 0.1,-0.05 H 23.2 L 23.4,25.05 23.7,25 h 0.4 M 19,29.5 h 0.2 l 0.45,0.05 0.35,0.05 0.2,0.05 0.25,0.1 0.2,0.1 0.1,0.1 0.15,0.1 0.1,0.1 0.05,0.15 0.05,0.1 0.1,0.1 0.05,0.1 0.05,0.1 0.05,0.1 v 0.1 L 21.4,31 v 0.1 0.1 0.1 0.1 0.1 0.1 l -0.05,0.1 v 0.1 l -0.05,0.15 -0.05,0.1 -0.05,0.1 -0.1,0.1 -0.05,0.1 -0.05,0.1 -0.1,0.1 -0.15,0.1 -0.1,0.1 -0.2,0.1 -0.25,0.1 -0.2,0.1 H 19.65 L 19.2,33.1 H 19 L 18.65,33.05 H 18.5 L 18.35,33 18.25,32.95 H 18 L 17.7,32.9 15.55,32.85 15.2,32.8 H 14.9 L 14.7,32.75 14.35,32.7 h -0.3 L 13.75,32.65 13.5,32.6 h -0.3 l -0.15,-0.05 -0.6,-0.05 h -1.5 L 10.65,32.45 10.55,32.4 10.4,32.35 H 10.25 L 10.15,32.3 10,32.25 H 9.7 L 9.25,32.2 8.9,32.15 H 8.65 L 8.15,32.1 7.4,32.05 H 7.2 L 6.9,32 6.1,31.95 H 5.7 L 5.4,31.9 4.55,31.85 4.25,31.8 H 3.75 L 2.95,31.75 2.55,31.7 H 2.2 L 2,31.65 1.65,31.6 0.75,31.55 0.6,31.45 l -0.05,-0.1 0.05,-0.1 0.05,-0.1 0.1,-0.1 h 0.1 L 1.65,31 2,30.95 h 0.2 l 0.35,-0.05 0.4,-0.05 h 0.8 L 4.25,30.8 4.55,30.75 5.4,30.7 H 5.7 L 6.1,30.65 6.9,30.6 H 7.2 L 7.4,30.55 8.15,30.5 h 0.5 L 8.9,30.45 9.25,30.4 H 9.7 L 10,30.35 10.15,30.3 h 0.1 l 0.15,-0.05 0.15,-0.05 0.1,-0.05 h 0.3 l 1.5,-0.05 0.6,-0.05 H 13.2 L 13.5,30 13.75,29.95 h 0.3 l 0.3,-0.05 0.35,-0.05 h 0.2 L 15.2,29.8 15.55,29.75 17.7,29.7 H 18 l 0.25,-0.05 0.1,-0.05 h 0.15 l 0.15,-0.05 H 19 V 29.5"
         fill="#000000"
         fill-rule="evenodd"
         stroke="none"
         id="path5" />
      <path
         d="M 11.75,7.8 12.1,7.6 h 0.5 l 0.75,0.35 0.35,0.8 -0.25,0.8 -0.7,0.5 -0.85,-0.1 Q 11.45,9.75 11.3,9.35 11.1,8.95 11.25,8.5 l 0.5,-0.7 M 8,9.1 q 0,0.8 -0.65,1.2 l -1.4,0.05 Q 5.25,9.9 5.25,9.15 5.15,8.4 5.85,7.95 L 7.2,7.85 7.8,8.35 8,9.1"
         fill="#ffffff"
         fill-rule="evenodd"
         stroke="none"
         id="path6" />
    </g>
    <g
       id="shape2"
       transform="translate(1.5,1.5)">
      <path
         d="M 0,23.8 V 0 H 64.1 V 23.8 57.55 H 0 Z"
         fill="none"
         stroke="#000000"
         stroke-linecap="round"
         stroke-linejoin="round"
         stroke-width="3"
         id="path7" />
    </g>
  </defs>
</svg>
