<?xml version="1.0" encoding="UTF-8" standalone="no"?>
<svg
   ffdec:objectType="frame"
   height="60.549999"
   width="67.099998"
   version="1.1"
   id="svg8"
   sodipodi:docname="832.svg"
   xmlns:inkscape="http://www.inkscape.org/namespaces/inkscape"
   xmlns:sodipodi="http://sodipodi.sourceforge.net/DTD/sodipodi-0.dtd"
   xmlns:xlink="http://www.w3.org/1999/xlink"
   xmlns="http://www.w3.org/2000/svg"
   xmlns:svg="http://www.w3.org/2000/svg"
   xmlns:ffdec="https://www.free-decompiler.com/flash">
  <sodipodi:namedview
     id="namedview8"
     pagecolor="#ffffff"
     bordercolor="#000000"
     borderopacity="0.25"
     inkscape:showpageshadow="2"
     inkscape:pageopacity="0.0"
     inkscape:pagecheckerboard="0"
     inkscape:deskcolor="#d1d1d1"
     fit-margin-top="5"
     fit-margin-left="5"
     fit-margin-right="5"
     fit-margin-bottom="5" />
  <g
     transform="translate(1.5,1.5)"
     id="g3">
    <use
       ffdec:characterId="516"
       height="57.549999"
       width="64.099998"
       xlink:href="#shape0"
       id="use1" />
    <use
       ffdec:characterId="1320"
       height="53.450001"
       transform="translate(3.1,2.35)"
       width="57.450001"
       xlink:href="#shape1"
       id="use2" />
    <use
       ffdec:characterId="518"
       height="60.549999"
       transform="translate(-1.5,-1.5)"
       width="67.099998"
       xlink:href="#shape2"
       id="use3" />
  </g>
  <defs
     id="defs8">
    <g
       id="shape0">
      <path
         d="M 53.6,0 H 64.1 V 57.55 H 53.6 28.25 0 V 0 H 28.25 53.6 V 57.55 0 M 28.25,0 V 57.55 0"
         fill="#ffffff"
         fill-rule="evenodd"
         stroke="none"
         id="path3" />
    </g>
    <g
       id="shape1"
       transform="translate(-3.1,-2.35)">
      <path
         d="m 57.5,8.55 -0.05,0.3 0.8,0.9 q 0.7,0.65 0.7,1.45 0.1,0.9 -0.65,1.4 l -1.55,0.05 Q 55.9,12.4 55.3,11.85 l -0.6,0.2 -0.2,0.1 -0.3,0.25 -1.15,0.8 -1.5,-0.15 -0.3,-0.35 q -0.65,-0.65 -0.6,-1.45 l 0.25,-1.1 0.3,-0.9 0.3,-0.8 1.15,-1.65 0.85,-0.6 1.15,-0.2 0.7,0.2 0.8,-1.1 0.8,-0.45 q 0.6,0 1,0.3 0.4,0.45 0.3,0.95 l -0.3,0.75 -0.45,1.9 M 41.35,16.1 40.95,16.4 40,17.05 q -1,0.65 -3,2.35 l -1.1,0.85 0.35,0.8 0.15,0.75 0.1,1.8 q -0.1,1.95 -0.9,3.25 -1.05,1.65 -2.7,2 -1.3,0.4 -2.6,-0.35 -1.2,-0.7 -1.6,-2.05 L 28.55,25.5 28.45,24.45 28.4,23.6 q 0,-0.7 0.45,-1.6 0.6,-1.2 1.3,-1.9 l 0.8,-0.8 q 1.5,-1 3.1,-0.45 l 0.75,0.3 0.4,-0.55 1.75,-2 1.65,-2.55 1.05,-1.25 q 0.55,-0.75 1.15,-1 1.15,-0.5 2.1,0.35 l 0.45,1 -0.05,0.95 -0.15,-0.05 q -0.7,-0.1 -1.25,0.4 -0.75,0.6 -0.55,1.65 M 38.3,19.85 39.8,19 q 0.95,-0.55 1.6,-0.75 l 0.65,-0.15 0.6,-0.05 0.45,-0.1 q 0.8,0 1.3,0.65 0.5,0.65 0.25,1.4 l -0.7,0.85 -1.05,0.35 -0.95,0.05 -1.8,0.1 -1.8,-0.1 -0.05,0.05 -0.5,-0.15 -0.2,-0.45 0.15,-0.35 0.55,-0.5 m 3.85,1.75 q 0.5,0.05 0.9,0.4 l 0.5,0.85 q 0.1,0.5 -0.2,1 L 42.6,24.5 q -0.45,0.2 -0.95,0 -0.55,-0.15 -0.8,-0.6 -0.3,-0.4 -0.25,-0.95 0.05,-0.5 0.4,-0.9 0.45,-0.45 1.15,-0.45 m 4.4,2.3 0.7,0.55 0.2,0.8 q 0,1.05 -1,1.3 -1.05,0.25 -1.55,-0.6 l -0.15,-0.4 q -0.15,-0.35 0,-0.75 0.25,-0.9 1.3,-1 l 0.5,0.1 m -5.8,5.55 q -0.9,-0.7 -1.5,-0.75 h -0.5 l 0.15,0.3 0.05,1 -0.55,0.85 -0.95,0.25 q -0.55,0 -0.95,-0.35 L 36.05,29.9 q -0.1,-0.55 0.1,-1 0.4,-0.75 1.35,-0.85 l 0.5,0.1 -0.05,-0.25 q 0,-0.55 0.55,-0.75 l 0.7,-0.05 1.25,0.05 0.5,0.15 0.8,0.15 1.2,0.4 1.1,0.55 1.05,0.8 0.7,0.75 q 0.35,0.55 0.3,1.2 -0.05,0.65 -0.45,1.1 l -1.05,0.6 -1.2,-0.2 -0.65,-0.55 -0.4,-0.7 -0.1,-0.45 L 42,30.65 41.5,30.2 40.75,29.45 M 32.9,7.3 q 0.1,-0.6 0.6,-1 0.45,-0.45 1.05,-0.45 0.6,-0.05 1.1,0.35 0.55,0.4 0.65,0.95 L 36.15,8.35 35.3,9.15 34.15,9.2 Q 33.55,9.05 33.2,8.55 32.8,8 32.9,7.3"
         fill="#999999"
         fill-rule="evenodd"
         stroke="none"
         id="path4" />
      <path
         d="m 43.3,14.1 1,0.6 q 0.65,0.9 0.15,1.85 -0.6,1 -1.65,0.85 -1.1,-0.1 -1.45,-1.2 v -0.1 q -0.2,-1.05 0.55,-1.65 0.55,-0.5 1.25,-0.4 l 0.15,0.05"
         fill="#000000"
         fill-rule="evenodd"
         stroke="none"
         id="path5" />
      <path
         d="m 48,8.65 q 0.65,-3.2 3.85,-5 l 1.25,-0.45 3.35,0.25 1.65,0.7 1.3,1.3 -0.6,0.2 Q 58.35,5.9 57.9,6.9 L 57.1,8.1 55.85,7.35 Q 55.6,7.1 55.2,7 L 54.5,7.1 54,7.45 52.65,10.3 q -0.15,0.45 0.05,0.75 l 0.45,0.25 0.55,-0.1 0.35,-0.4 0.75,-1.45 0.7,0.45 0.5,0.4 1.45,0.15 0.45,-0.35 0.85,-0.9 0.7,-0.85 0.55,0.5 0.3,0.1 0.2,0.25 h 0.05 l -0.1,1.4 q -0.3,2.55 -2.45,3.85 l -0.95,0.5 -0.8,1.25 -1.2,1.05 -0.45,0.2 -0.4,-0.35 0.05,-0.55 0.15,-0.9 h -0.9 l -0.15,0.3 -0.35,0.65 -0.6,0.9 q -0.65,0.5 -1.05,0.2 L 50.9,17.15 Q 50.7,16.6 51.05,15.3 l 0.1,-0.25 -0.4,-0.25 -1.05,0.1 -1.15,-0.05 -1.45,0.05 -0.35,1.05 -0.25,0.6 L 46.25,17.1 45.6,17.05 45.3,16.5 45.15,15.75 45.1,14.9 45,14.1 44.9,13.65 44.95,12.95 Q 45.2,12.4 45.4,12.3 l 0.65,-0.2 2.2,-0.35 Q 47.75,10.15 48,8.65 m -9.7,8.25 0.55,-0.5 0.55,-0.25 q 0.9,-0.2 1.35,0.65 0.25,0.4 0.15,0.9 l -0.4,0.8 q -0.75,0.75 -1.7,0.2 -0.4,-0.25 -0.55,-0.8 -0.15,-0.55 0.05,-1 m -4.05,6.9 0.05,-0.05 q 0.85,-0.75 1.95,-1 l 2.15,0.3 q 1,0.45 1.5,1.5 0.5,1.05 0.25,2.1 l -0.75,1.4 -0.8,1.4 q -0.3,0.85 -0.15,2.7 0.4,2.45 1.55,7.25 0.85,4.35 0.1,7.2 l 1.85,-0.15 0.9,-0.1 q 3.5,-0.15 5.7,1.9 l 0.95,0.6 0.6,-0.1 q 0.7,-0.15 1,-0.55 l 0.55,-1.05 0.35,-1.2 q 0.35,-0.85 1.25,-1.3 0.85,-0.45 1.85,-0.4 1.4,0.1 2.2,0.9 1.45,1.45 0.6,4 -0.7,2.1 -2.7,3.5 -2,1.3 -4.55,1.25 -2.55,-0.1 -4.4,-1.55 L 46.2,52.3 45.8,52.1 q -2.25,-1 -5.3,-0.6 l -3.75,0.9 -0.35,1.1 q -0.6,1.05 -1.8,1.3 l -2.2,-0.25 -1.15,-0.7 -0.55,0.05 -3.15,-0.2 -0.45,0.6 -0.3,0.35 -0.65,0.5 q -1.1,0.6 -2.05,0.65 -1.15,0.1 -2,-0.55 -0.95,-0.8 -0.95,-1.85 l 0.1,-0.55 -2.25,0.45 -2.95,0.15 q -1.75,-0.35 -2.2,-1.85 -0.2,-0.9 0.3,-1.7 0.45,-0.75 1.3,-0.95 l 1.35,-0.1 Q 15.6,47.25 15.5,46 l 0.05,-1.65 0.2,-1 0.6,-1.15 0.6,-0.6 1.2,-0.55 1.6,-0.35 0.5,0.05 0.3,-3.15 0.1,-1.35 -4.9,0.35 Q 12.3,36.55 10.1,35.5 7.8,34.5 6.15,32.4 4.5,30.45 3.8,27.9 2.4,23.4 3.85,17.9 4.5,15.5 5.5,13.4 6,12.5 6.65,11.7 L 6.95,9.1 Q 7.25,6.55 7.8,5.05 8.7,2.7 10.25,2.4 11.3,2.2 13.1,3.1 L 18,5.95 q 4.9,-0.3 8.95,2.1 L 28.05,8.8 28.8,8.75 34.3,8.55 35.85,8.5 36,8.6 37.25,8.9 q 0.7,0.4 1,1.25 0.2,0.85 -0.15,1.6 l -0.65,0.95 -0.85,1.5 -3.2,5.65 -0.2,0.35 q -0.15,2.3 -1.05,5.1 -0.8,2.65 -1.85,4.55 l 2.1,3.55 q -0.2,-2.75 0.05,-5.05 l 0.05,-0.2 0.05,-0.35 q 0.15,-1.35 0.6,-2.3 l 0.3,0.25 0.7,0.1 Q 35,25.6 35,24.75 34.9,23.95 34.25,23.8 M 29.6,17.55 h -0.05 l -2.1,0.45 -2.6,0.35 -2.55,0.55 -1.95,0.35 q -0.1,0.75 0.05,1.4 l 0.3,-0.1 q 3.7,-0.85 6.45,-0.15 l 1.75,0.65 0.95,0.5 0.2,0.15 0.2,-1.25 q 0.05,-1.3 -0.65,-2.9 m 7.15,1.4 q 0.5,0 0.85,0.55 0.3,0.5 0.05,0.95 -0.25,0.6 -0.9,0.7 -0.6,0.1 -1.05,-0.45 -0.3,-0.45 -0.15,-0.95 0.15,-0.5 0.65,-0.75 l 0.55,-0.05 m -0.4,8.7 q -0.15,-1.05 -1.25,-1.3 -1.1,-0.2 -1.6,0.8 -0.25,0.4 -0.2,0.9 0.05,0.5 0.4,0.85 0.7,0.85 1.75,0.4 1.05,-0.55 0.9,-1.65 m 2,-0.05 q 0.8,-0.25 0.8,-1 0.1,-0.8 -0.6,-1.15 l -1.15,0.1 q -0.6,0.35 -0.5,1 0,0.6 0.6,0.95 l 0.45,0.15 0.4,-0.05 m -20,-2.95 -0.4,-0.65 -0.6,-0.65 -0.1,-0.2 -0.3,-0.5 0.35,-1.2 q 0.3,-1.35 -0.2,-2 -0.3,-0.4 -0.8,-0.45 l -0.95,0.2 -0.75,1 -0.5,1 -0.15,0.35 H 13.9 l -0.55,0.55 -1.3,0.85 -0.65,0.65 -0.4,0.5 -0.2,0.5 -0.1,0.75 0.55,0.65 0.9,0.1 q 0.7,-0.05 2,-0.85 l 0.25,-0.15 2.75,2 q 0.4,0.4 0.8,0.45 0.95,0.1 1.2,-0.7 L 19.2,26.3 18.95,25.75 18.55,25.2 18.35,24.65 M 15,16.25 V 15 L 14.15,14.9 12.1,14.7 10.95,14.2 8.85,12.7 8.55,12.15 8.2,12.45 q -1.75,1.75 -2,4.15 l 0.05,1 0.05,0.15 4.1,-0.1 1.1,0.4 1.65,0.8 0.45,0.3 0.2,-0.2 q 1.05,-1.05 1.2,-2.7 m 21.25,9.25 0.65,-0.3 0.25,-0.7 -0.1,-0.3 q -0.25,-0.8 -1.15,-0.6 -0.8,0.3 -0.65,1.15 l 0.35,0.55 0.65,0.2"
         fill="#000000"
         fill-rule="evenodd"
         stroke="none"
         id="path6" />
      <path
         d="m 33.15,25.5 -0.2,-0.3 -0.1,-0.3 0.05,-0.4 q 0.3,-0.85 1.15,-0.75 l 0.2,0.05 q 0.65,0.15 0.75,0.95 0,0.85 -0.85,1.1 l -0.7,-0.1 -0.3,-0.25 M 29.6,17.55 q 0.7,1.6 0.65,2.9 l -0.2,1.25 -0.2,-0.15 -0.95,-0.5 -1.75,-0.65 Q 24.4,19.7 20.7,20.55 l -0.3,0.1 Q 20.25,20 20.35,19.25 l 1.95,-0.35 2.55,-0.55 2.6,-0.35 2.1,-0.45 H 29.6 M 36.25,25.5 35.6,25.3 35.25,24.75 Q 35.1,23.9 35.9,23.6 q 0.9,-0.2 1.15,0.6 l 0.1,0.3 -0.25,0.7 -0.65,0.3 M 15,16.25 q -0.15,1.65 -1.2,2.7 l -0.2,0.2 -0.45,-0.3 -1.65,-0.8 -1.1,-0.4 -4.1,0.1 -0.05,-0.15 -0.05,-1 q 0.25,-2.4 2,-4.15 l 0.35,-0.3 0.3,0.55 2.1,1.5 1.15,0.5 2.05,0.2 L 15,15 v 1.25 m 3.35,8.4 0.2,0.55 0.4,0.55 0.25,0.55 -0.05,0.55 q -0.25,0.8 -1.2,0.7 -0.4,-0.05 -0.8,-0.45 l -2.75,-2 -0.25,0.15 q -1.3,0.8 -2,0.85 L 11.25,26 10.7,25.35 10.8,24.6 11,24.1 l 0.4,-0.5 0.65,-0.65 1.3,-0.85 0.55,-0.55 h 0.05 l 0.15,-0.35 0.5,-1 0.75,-1 0.95,-0.2 q 0.5,0.05 0.8,0.45 0.5,0.65 0.2,2 l -0.35,1.2 0.3,0.5 0.1,0.2 0.6,0.65 0.4,0.65 m 20,2.95 -0.4,0.05 -0.45,-0.15 q -0.6,-0.35 -0.6,-0.95 -0.1,-0.65 0.5,-1 l 1.15,-0.1 q 0.7,0.35 0.6,1.15 0,0.75 -0.8,1 m -2,0.05 q 0.15,1.1 -0.9,1.65 -1.05,0.45 -1.75,-0.4 -0.35,-0.35 -0.4,-0.85 -0.05,-0.5 0.2,-0.9 0.5,-1 1.6,-0.8 1.1,0.25 1.25,1.3"
         fill="#ffffff"
         fill-rule="evenodd"
         stroke="none"
         id="path7" />
    </g>
    <g
       id="shape2"
       transform="translate(1.5,1.5)">
      <path
         d="M 0,23.8 V 0 H 64.1 V 23.8 57.55 H 0 Z"
         fill="none"
         stroke="#000000"
         stroke-linecap="round"
         stroke-linejoin="round"
         stroke-width="3"
         id="path8" />
    </g>
  </defs>
</svg>
