<?xml version="1.0" encoding="UTF-8" standalone="no"?>
<svg
   ffdec:objectType="frame"
   height="60.549999"
   width="67.099998"
   version="1.1"
   id="svg8"
   sodipodi:docname="638.svg"
   xmlns:inkscape="http://www.inkscape.org/namespaces/inkscape"
   xmlns:sodipodi="http://sodipodi.sourceforge.net/DTD/sodipodi-0.dtd"
   xmlns:xlink="http://www.w3.org/1999/xlink"
   xmlns="http://www.w3.org/2000/svg"
   xmlns:svg="http://www.w3.org/2000/svg"
   xmlns:ffdec="https://www.free-decompiler.com/flash">
  <sodipodi:namedview
     id="namedview8"
     pagecolor="#ffffff"
     bordercolor="#000000"
     borderopacity="0.25"
     inkscape:showpageshadow="2"
     inkscape:pageopacity="0.0"
     inkscape:pagecheckerboard="0"
     inkscape:deskcolor="#d1d1d1"
     fit-margin-top="5"
     fit-margin-left="5"
     fit-margin-right="5"
     fit-margin-bottom="5" />
  <g
     transform="translate(1.5,1.5)"
     id="g3">
    <use
       ffdec:characterId="516"
       height="57.549999"
       width="64.099998"
       xlink:href="#shape0"
       id="use1" />
    <use
       ffdec:characterId="1129"
       height="53.849998"
       transform="translate(3.2,3.4)"
       width="57.150002"
       xlink:href="#shape1"
       id="use2" />
    <use
       ffdec:characterId="518"
       height="60.549999"
       transform="translate(-1.5,-1.5)"
       width="67.099998"
       xlink:href="#shape2"
       id="use3" />
  </g>
  <defs
     id="defs8">
    <g
       id="shape0">
      <path
         d="M 53.6,0 H 64.1 V 57.55 H 53.6 28.25 0 V 0 H 28.25 53.6 V 57.55 0 M 28.25,0 V 57.55 0"
         fill="#ffffff"
         fill-rule="evenodd"
         stroke="none"
         id="path3" />
    </g>
    <g
       id="shape1"
       transform="translate(-3.2,-3.4)">
      <path
         d="M 51.7,8.9 Q 51.25,8.6 51.25,7.95 51.25,7.35 51.7,7 l 0.45,-0.35 0.3,-0.5 q 0.3,-0.75 1.1,-1 0.7,-0.25 1.45,0.2 l 0.6,0.15 0.3,-0.25 q 0.5,-0.6 1.35,-0.5 0.65,0.15 1.35,0.65 l 0.5,0.8 0.2,0.7 0.5,0.55 0.5,0.5 -0.05,0.65 -0.3,0.35 -0.25,0.4 -1.6,2.1 -0.7,0.55 q -0.85,0.5 -2.5,0 L 54,11.65 52.55,10.25 52.15,9.55 52,9.15 51.7,8.9 m 2.8,-1 -0.2,-0.1 -0.1,0.35 q 0.15,0.65 0.75,1.1 0.6,0.4 1.35,0.3 L 57.2,8.4 57.3,8.2 57.2,7.85 57.05,7.5 q -1,0.85 -2.15,0.55 L 54.5,7.9 M 39.75,6.5 38.5,6.05 q -1.05,-0.3 -2.15,0.3 l -0.8,0.2 q -0.5,-0.2 -0.3,-0.75 l 0.6,-0.65 q 1.3,-1 2.65,-1.2 l 1.55,0.1 Q 40.9,4.4 40.95,5.25 41,5.75 40.6,6.1 40.25,6.5 39.75,6.5 M 47.6,8.7 46.95,8.5 Q 46.6,8.25 46.7,7.85 l 0.2,-0.6 Q 47.2,7 47.8,7 h 0.6 l 1.1,0.15 q 0.45,0.25 0.45,0.75 0.1,0.5 -0.35,0.75 L 48.65,8.75 47.6,8.7 m 11.3,25.3 -1.05,1.5 -0.4,0.1 q -0.25,-0.1 -0.1,-0.65 l 0.1,-1.9 -0.1,-0.65 -0.2,-0.6 Q 57,31.1 57.65,30.7 l 1.2,0.1 q 0.5,0.4 0.5,1.25 L 59.2,33.15 58.9,34 M 53.35,34.75 53.85,33.7 54,33.05 V 32.8 L 53.75,31.9 53.8,31.65 Q 54.1,30.6 55,30.7 l 0.75,0.3 0.4,0.7 -0.1,1.7 q -0.1,1.35 -0.65,2.1 L 55,36 54.3,36.5 52.9,37.15 52.35,37 l -0.3,-0.2 0.05,-0.35 0.45,-0.5 0.35,-0.25 0.15,-0.25 0.3,-0.7 M 25.2,6.15 24.35,6 Q 23.65,5.5 24,4.6 q 0.3,-0.75 1.15,-1 l 1.5,-0.15 q 2.35,0.1 3.3,1.2 0.5,0.5 0.2,1 l -1.1,0.1 -2.6,-0.1 -1.25,0.5 M 12.55,6.25 12.7,6.8 12.65,7.15 12.5,7.45 12.4,7.95 12.3,9.35 12.2,9.8 12,9.9 11.8,9.8 11.65,8.25 11.55,7.65 11.3,6.9 Q 11.1,6.45 11.4,6.15 11.6,6 12.05,6 q 0.35,0 0.5,0.25 m -8,24.7 0.95,-0.9 q 0.55,-0.45 0.85,-0.4 0.4,0.1 0.4,0.5 L 6.4,30.85 Q 6.05,31.3 6.05,31.55 6.45,32.1 6,32.75 5.55,33.3 4.9,33.15 4.2,32.95 4.1,32.25 3.95,31.65 4.55,30.95 M 9.9,36.1 Q 9.2,36.65 8.35,36.1 7.7,35.7 7.4,34.8 7,33.75 7.25,32.6 q 0.2,-1.15 0.95,-2 0.3,-0.4 0.6,-0.3 0.4,0.1 0.3,0.85 -0.35,1.1 -0.25,1.55 0.1,0.45 0.7,1.1 l 0.7,1.1 q 0.15,0.75 -0.35,1.2"
         fill="#999999"
         fill-rule="evenodd"
         stroke="none"
         id="path4" />
      <path
         d="M 22.8,34.25 21.4,33.3 20.75,32.7 Q 20.1,31.95 20.05,31.3 19.85,30.35 20.7,30 l 1.4,0.15 2.65,1 0.9,0.1 2.35,0.05 h 0.9 l 1.1,0.65 q 0.5,0.5 0.55,1.15 l -0.35,1.3 -1,0.8 -1.1,0.2 -1.55,-0.05 -1.65,-0.2 -1.3,-0.5 -0.8,-0.4"
         fill="#000000"
         fill-rule="evenodd"
         stroke="none"
         id="path5" />
      <path
         d="M 13.45,37.15 Q 11.3,33.55 10.8,29.2 l -0.7,-0.75 -1.4,-1.4 -1.8,-2.9 -0.6,-1.5 q -0.15,-0.95 0.15,-1.6 0.4,-0.75 1.2,-1.1 l 1.6,-0.5 2.8,-0.45 q 1.4,-3.7 3.95,-6 1.2,-1.1 3.35,-2.25 3.4,-1.75 7.2,-2.05 l 5.5,0.35 5.5,-0.35 q 3.8,0.3 7.2,2.05 2.15,1.15 3.35,2.25 2.55,2.3 3.95,6 l 2.8,0.45 1.6,0.5 q 0.8,0.35 1.2,1.1 0.3,0.65 0.15,1.6 l -0.6,1.5 q -1,2 -1.8,2.9 l -1.4,1.4 -0.7,0.75 q -0.5,4.35 -2.65,7.95 l -1.9,2.65 -0.25,1 q -1.05,3.6 -3.55,5.85 l -3.25,2.15 -0.95,0.45 0.8,0.75 q 2.8,2.65 4,4.65 0.9,1.45 0.75,2.6 H 17.85 q -0.2,-1.15 0.7,-2.6 1.2,-2 4,-4.65 L 23.35,49.25 22.4,48.8 Q 20.35,47.75 19.15,46.65 16.65,44.4 15.6,40.8 l -0.25,-1 -1.9,-2.65 m 33,2.85 0.3,-0.85 0.1,-1.25 q -0.15,-1.8 -0.9,-2.8 l -0.95,0.6 -2.25,1.2 -1.95,0.65 -2.25,-0.1 -1.4,-0.2 H 37.1 q -0.1,0.9 0.2,1.85 0.3,1.1 1.1,1.95 l 1.9,1.2 1.35,0.2 2.5,-0.2 Q 45.6,41.7 46.45,40 M 8.95,10.4 8.05,9.8 7.5,9.15 Q 7.25,8.55 7.4,7.65 7.5,6.75 7.7,6.35 L 8.35,5.45 9.45,4.4 q 1.05,-0.7 3.15,-0.6 1.35,0 1.95,0.45 L 15.4,5.3 Q 16.2,6.65 16,7.75 15.7,9.2 14.1,10 l -0.4,0.3 -0.1,0.4 v 1.05 l -0.05,0.6 -0.05,0.25 q -0.15,0.6 -0.7,0.85 l -1.05,0.3 -1.1,-0.1 Q 10.05,13.4 9.85,12.9 l -0.1,-0.8 0.1,-1.5 -0.9,-0.2 m 1.7,-1.95 q 0.7,0.1 0.85,0.75 l 0.1,0.25 0.1,0.45 0.05,0.2 h 0.05 0.3 Q 12.05,9.3 12.15,9.05 L 13.6,7.7 13.85,7.25 13.8,6.9 Q 13.7,6.45 13.05,6.25 L 12,6.15 11.05,6.35 Q 9.95,6.75 9.8,7.9 v 0.25 l 0.35,0.3 h 0.5 M 5.9,12.15 4.75,12.2 4.35,11.45 H 3.95 Q 3.3,11.35 3.2,10.7 3.2,10.05 3.85,9.85 l 0.6,0.05 0.2,-0.6 0.1,-0.05 0.6,-0.5 q 0.45,-0.05 0.8,0.3 0.3,0.35 0.2,0.8 L 6.85,10 q 0.45,0.2 0.35,0.6 0,0.35 -0.4,0.55 L 6.2,11.3 5.9,12.15 M 29.55,43 l -0.4,-0.1 -0.1,-0.3 0.05,-1.2 0.25,-0.25 0.3,-0.45 V 40.2 L 29.2,40 q -0.45,0 -1.05,0.6 l -0.7,0.95 -0.1,0.45 -0.05,1 v 0.65 l 0.2,0.55 q 0.55,0.8 1.45,1.1 l 1.2,0.2 1.05,-0.05 0.9,-0.4 0.3,-0.2 0.3,0.2 0.9,0.4 1.05,0.05 1.2,-0.2 q 0.9,-0.3 1.45,-1.1 l 0.2,-0.55 V 43 l -0.05,-1 -0.1,-0.45 -0.7,-0.95 Q 36.05,40 35.6,40 l -0.45,0.2 v 0.5 l 0.3,0.45 0.25,0.25 0.05,1.2 -0.1,0.3 -0.4,0.1 -0.65,0.05 Q 33.85,43 33.4,42.45 v -0.1 q 0,-0.6 -0.5,-0.85 l -0.5,-0.1 -0.5,0.1 q -0.5,0.25 -0.5,0.85 v 0.1 Q 30.95,43 30.2,43.05 L 29.55,43 m -11.2,-3 q 0.85,1.7 2.3,2.25 l 2.5,0.2 1.35,-0.2 q 1.1,-0.35 1.9,-1.2 0.8,-0.85 1.1,-1.95 l 0.25,-1.35 -0.05,-0.4 -0.05,-0.4 h -0.2 q -3.1,0.3 -5.8,-0.95 l -1.6,-1.05 -0.4,-0.55 -0.3,0.25 -0.15,0.1 -0.3,0.35 q -0.8,1 -0.95,2.8 l 0.1,1.25 0.3,0.85"
         fill="#000000"
         fill-rule="evenodd"
         stroke="none"
         id="path6" />
      <path
         d="m 46.45,40 q -0.85,1.7 -2.3,2.25 l -2.5,0.2 -1.35,-0.2 -1.9,-1.2 Q 37.6,40.2 37.3,39.1 37,38.15 37.1,37.25 h 0.05 l 1.4,0.2 2.25,0.1 1.95,-0.65 2.25,-1.2 0.95,-0.6 q 0.75,1 0.9,2.8 l -0.1,1.25 -0.3,0.85 m -28.1,0 -0.3,-0.85 -0.1,-1.25 q 0.15,-1.8 0.95,-2.8 l 0.3,-0.35 0.15,-0.1 0.3,-0.25 0.4,0.55 1.6,1.05 q 2.7,1.25 5.8,0.95 h 0.2 l 0.05,0.4 0.05,0.4 -0.25,1.35 q -0.3,1.1 -1.1,1.95 -0.8,0.85 -1.9,1.2 l -1.35,0.2 -2.5,-0.2 Q 19.2,41.7 18.35,40 m 11.2,3 0.65,0.05 q 0.75,-0.05 1.2,-0.6 v -0.1 q 0,-0.6 0.5,-0.85 l 0.5,-0.1 0.5,0.1 q 0.5,0.25 0.5,0.85 v 0.1 q 0.45,0.55 1.2,0.6 l 0.65,-0.05 0.4,-0.1 0.1,-0.3 -0.05,-1.2 -0.25,-0.25 -0.3,-0.45 V 40.2 L 35.6,40 q 0.45,0 1.05,0.6 l 0.7,0.95 0.1,0.45 0.05,1 v 0.65 l -0.2,0.55 q -0.55,0.8 -1.45,1.1 l -1.2,0.2 -1.05,-0.05 -0.9,-0.4 -0.3,-0.2 -0.3,0.2 -0.9,0.4 -1.05,0.05 -1.2,-0.2 Q 28.05,45 27.5,44.2 L 27.3,43.65 V 43 l 0.05,-1 0.1,-0.45 0.7,-0.95 Q 28.75,40 29.2,40 l 0.45,0.2 v 0.5 l -0.3,0.45 -0.25,0.25 -0.05,1.2 0.1,0.3 0.4,0.1"
         fill="#ffffff"
         fill-rule="evenodd"
         stroke="none"
         id="path7" />
    </g>
    <g
       id="shape2"
       transform="translate(1.5,1.5)">
      <path
         d="M 0,23.8 V 0 H 64.1 V 23.8 57.55 H 0 Z"
         fill="none"
         stroke="#000000"
         stroke-linecap="round"
         stroke-linejoin="round"
         stroke-width="3"
         id="path8" />
    </g>
  </defs>
</svg>
