<?xml version="1.0" encoding="UTF-8" standalone="no"?>
<svg
   ffdec:objectType="frame"
   height="44.349998"
   width="78.599998"
   version="1.1"
   id="svg10"
   sodipodi:docname="199.svg"
   xmlns:inkscape="http://www.inkscape.org/namespaces/inkscape"
   xmlns:sodipodi="http://sodipodi.sourceforge.net/DTD/sodipodi-0.dtd"
   xmlns:xlink="http://www.w3.org/1999/xlink"
   xmlns="http://www.w3.org/2000/svg"
   xmlns:svg="http://www.w3.org/2000/svg"
   xmlns:ffdec="https://www.free-decompiler.com/flash">
  <sodipodi:namedview
     id="namedview10"
     pagecolor="#ffffff"
     bordercolor="#000000"
     borderopacity="0.25"
     inkscape:showpageshadow="2"
     inkscape:pageopacity="0.0"
     inkscape:pagecheckerboard="0"
     inkscape:deskcolor="#d1d1d1"
     fit-margin-top="5"
     fit-margin-left="5"
     fit-margin-right="5"
     fit-margin-bottom="5" />
  <g
     transform="translate(2,2.05)"
     id="g3">
    <use
       ffdec:characterId="1"
       height="42.700001"
       transform="translate(-1.75,-2)"
       width="76.449997"
       xlink:href="#shape0"
       id="use1" />
    <use
       ffdec:characterId="196"
       height="40.299999"
       transform="translate(-0.9,1.45)"
       width="74.5"
       xlink:href="#shape1"
       id="use2" />
    <use
       ffdec:characterId="3"
       height="44.349998"
       transform="translate(-2,-2.05)"
       width="78.599998"
       xlink:href="#shape2"
       id="use3" />
  </g>
  <defs
     id="defs10">
    <g
       id="shape0"
       transform="translate(1.75,2)">
      <path
         d="M 2.8,0 V -0.4 H 5.4 V 0 H 9.7 V 19.45 0 H 20.55 L 19.3,19.45 H 9.7 0.25 V 0 H 2.8"
         fill="#ffffff"
         fill-rule="evenodd"
         stroke="none"
         id="path3" />
      <path
         d="M 0.25,19.45 H 9.7 19.3 L 18.7,28.6 16,28.5 10.95,27.95 9.7,27.8 Q 7.45,27.6 5.85,27.75 4.05,27.9 1.5,28.6 0.75,28.8 0.25,29.15 v -9.7 m 9.45,0 v 8.35 -8.35"
         fill="#121212"
         fill-rule="evenodd"
         stroke="none"
         id="path4" />
      <path
         d="m 9.7,27.8 1.25,0.15 5.05,0.55 2.7,0.1 h 1.05 l 3.75,0.15 q 2.45,0.3 3.6,1.25 0.6,0.5 0.6,1.1 0,0.65 -0.8,1 l -1.3,0.2 -7.15,0.15 -5.6,-0.3 L 9.7,31.75 7.95,31.6 3.1,31.95 0.95,32.3 0.25,32.1 -0.35,31.55 -0.5,31.3 V 29.9 L 0.25,29.15 Q 0.75,28.8 1.5,28.6 4.05,27.9 5.85,27.75 7.45,27.6 9.7,27.8 v 3.95 -3.95"
         fill="#999999"
         fill-rule="evenodd"
         stroke="none"
         id="path5" />
      <path
         d="M 2.8,0 H 0.25 M 9.7,0 H 5.4 m 16.15,0 h 10.7 M 20.55,0 H 9.7"
         fill="none"
         stroke="#666666"
         stroke-linecap="round"
         stroke-linejoin="round"
         stroke-width="4"
         id="path6" />
      <path
         d="m 9.7,-0.4 h 65 V 40.5 H 47.05 L 45.5,40.7 27,40.65 25.95,40.5 H 9.7 -0.5 V -0.4 H 9.7 V 40.5 -0.4"
         fill="#ffffff"
         fill-rule="evenodd"
         stroke="none"
         id="path7" />
    </g>
    <g
       id="shape1"
       transform="translate(0.9,-1.45)">
      <path
         d="m 63.85,19.7 -2.8,1.65 -1.4,0.3 -0.15,0.35 -0.35,0.6 -0.3,3.5 v 2.8 l 0.2,1.75 v 0.7 q 0,1.45 -0.4,2 -0.75,0.9 -1.95,0.55 -1.1,-0.45 -1.2,-1.65 -0.05,-0.5 0.2,-1.3 l 1.85,-7.35 h -0.3 q -1.1,0.15 -2.15,-0.75 l -0.35,-0.4 q -0.55,-0.7 -0.4,-1.85 l 0.1,-0.4 Q 54.6,19.7 55,19.35 54.25,18.3 53.95,16.9 53.5,14.4 54.75,12.85 l 1.4,-1.1 q 2.35,-1.4 5.3,-1 l 1.5,0.45 0.25,0.15 0.6,-0.9 1.1,-1.65 1.65,-1.95 1.45,-2.1 0.7,-1.4 q 0.45,-0.85 0.95,-1.25 1.25,-1 2.6,-0.45 l 1.05,0.9 q 0.4,0.65 0.3,1.3 -0.15,0.95 -1.1,1.85 l -1.75,1.25 -6.25,5.4 0.4,0.5 0.1,0.15 0.85,-0.35 2.25,-1.4 0.85,-0.75 1.25,-0.5 0.95,-0.05 0.7,0.3 0.5,0.45 q 0.6,0.85 -0.15,1.75 l -1.55,1 -0.95,0.1 -0.6,-0.1 -0.8,0.15 h -0.7 l -1.4,0.3 -0.65,0.2 0.2,1.1 -0.2,1.75 -0.6,1.5 -1.1,1.25 M 61.55,7.45 Q 60.8,6.75 61.05,5.8 61.3,4.8 62.4,4.65 63.05,4.55 63.65,5 q 0.45,0.45 0.55,1.2 0,0.65 -0.5,1.15 -0.5,0.5 -1.15,0.5 -0.65,-0.1 -1,-0.4 m 7,14.25 2.15,1.2 1,0.4 q 1.1,0.55 1.2,1.8 0.1,1.25 -0.95,1.95 l -2.15,0.1 -1.2,-1.1 -1.15,-1.65 q -0.2,-0.8 -0.8,-1.45 l -0.45,-0.6 q -0.3,-0.4 -0.25,-0.75 0.1,-0.6 0.8,-0.6 0.55,-0.05 1.8,0.7 m -20.5,-9.55 q -0.9,-1.6 -1.6,-2.2 l -0.7,-0.4 0.15,0.65 q 0.1,0.8 -0.35,1.45 -0.4,0.7 -1.1,1 l -1.5,0.15 Q 42.2,12.6 41.7,12 41.2,11.45 41.15,10.65 41.1,9.85 41.5,9.2 L 41.7,8.95 37.65,9 q -1.35,0 -1.7,-0.6 -0.2,-0.35 0,-0.8 0.15,-0.4 0.55,-0.65 l 1.55,-0.4 q 5.15,-0.3 7.3,0.1 1.4,0.25 2.35,0.85 0.9,0.65 1.85,2.1 2.5,3.75 4.25,8.1 0.45,1.2 0.25,1.75 -0.15,0.65 -1.25,1.4 L 50,22.5 q -0.55,0.2 -0.8,0.5 -0.3,0.25 -0.7,1.15 -0.7,1.75 -1.8,2 l -1,-0.1 0.2,0.9 Q 46,27.9 45.5,28.85 45,29.8 44.15,30.3 l -1.4,0.4 -0.35,0.05 -0.55,0.9 Q 41.2,32.3 40.2,32.3 39.15,32.35 38.5,31.7 37.85,31.15 37.7,30.1 l -1.6,1.15 -2.25,1.55 q -0.95,0.6 -1.8,1.35 l -1.35,1.1 -1.05,0.05 -0.85,-0.6 q -0.3,-0.45 -0.25,-1 0.1,-0.6 0.5,-0.95 0.35,-0.3 0.95,-0.45 2.4,-0.8 6.4,-2.95 l 1.95,-1 0.2,-0.25 0.35,-0.25 -0.05,-0.65 q 0,-1.35 1.05,-2.4 0.6,-0.6 1.5,-0.85 l -1.45,-0.4 Q 39,23.45 37.2,24.15 l -7.5,3.35 q -0.95,1 -2.75,1.65 L 26.1,29.4 q -2.1,1.25 -3.2,1.45 0.3,1.35 -0.85,2.35 -0.7,0.6 -2.4,1.1 l -2.55,0.1 0.35,0.55 q 0.4,0.7 0.35,1.55 -0.1,0.85 -0.6,1.5 -0.65,0.85 -1.7,1.1 l -2,-0.2 Q 12.25,38.2 12,36.95 L 11.9,36.4 q 0.1,-1.55 1.35,-2.4 1.15,-0.85 2.7,-0.35 l 0.3,0.15 q -0.45,-0.55 -0.65,-1.45 -0.4,-1.4 0.25,-2.5 0.35,-0.55 1,-0.75 l 1.25,0.05 q 0.55,0.25 0.65,1 0.05,0.65 -0.3,1 l 0.6,-0.1 0.65,-0.25 -0.1,-0.65 q -0.2,-0.7 0.35,-1.4 l 0.85,-0.8 -0.45,-0.55 q -0.9,-1.05 -1.1,-1.85 L 19.1,24.2 V 23.75 Q 13.1,22.4 8.8,21.95 L 6.95,21.65 5.45,20.7 Q 5,20.05 5.05,19.2 5.15,18.35 5.7,17.8 6.2,17.2 7.05,17.1 l 1.55,0.15 1.05,0.7 q 1,0.65 2.85,1.5 2.7,1.25 5.3,2.1 l 1.6,0.65 0.2,-0.5 0.85,-1.1 q 1.65,-1.85 3.8,-2.2 l 2.5,0.15 v -0.1 -0.1 -0.05 l 0.05,-0.1 0.05,-0.1 v -0.05 l 0.05,-0.1 0.05,-0.05 V 17.8 L 27,17.75 v -0.1 l 0.05,-0.05 v -0.1 -0.1 -0.05 -0.1 -0.05 l 0.05,-0.1 v -0.05 -0.1 -0.05 -0.1 -0.05 l 0.05,-0.1 v -0.1 -0.05 -0.1 -0.05 -0.1 -0.05 -0.1 -0.05 -0.1 -0.1 -0.05 l 0.05,-0.1 v -0.05 -0.1 -0.05 -0.1 -0.05 -0.1 l 0.05,-0.1 V 15.1 15 l 0.05,-0.05 v -0.1 l 0.05,-0.05 0.05,-0.1 v -0.05 l 0.05,-0.1 v -0.1 -0.05 l 0.05,-0.1 v -0.05 -0.1 L 27.55,14.1 V 14 l 0.05,-0.05 v -0.1 L 27.65,13.8 V 13.7 13.6 13.55 13.45 13.4 13.3 13.25 13.15 13.1 13 12.9 12.85 12.75 12.7 12.6 12.55 12.45 12.4 12.3 12.2 L 27.6,12.15 Q 26,12.3 24.5,11.35 L 23.75,10.7 Q 22.85,9.65 23,8.05 L 23.05,7.9 Q 22.25,7.35 21.15,7 L 19.5,6.5 18.1,5.75 q -0.35,-0.3 -0.45,-0.8 -0.1,-0.55 0.1,-1 0.6,-0.6 1.1,-0.65 Q 19.3,3.25 20,3.75 l 0.85,0.5 0.5,0.4 0.7,0.8 0.85,1.1 0.5,0.35 q 0.35,-0.7 0.95,-1.25 1.8,-1.65 4.1,-1.15 1.05,0.25 1.85,1.05 0.85,0.8 1.1,1.85 l 0.1,0.7 -0.35,1.6 q -0.75,1.6 -2.4,2.15 v 0.05 0.1 0.05 l -0.05,0.1 v 0.05 0.1 0.1 0.05 0.1 0.05 0.1 0.05 0.1 0.05 0.1 0.1 0.05 0.1 0.05 0.1 0.05 0.1 0.05 0.1 0.1 0.05 l 0.05,0.1 V 14 l 0.05,0.1 v 0.05 0.1 l 0.05,0.05 v 0.1 0.05 0.1 l 0.05,0.1 0.05,0.05 v 0.1 l 0.1,0.05 v 0.1 L 29.1,15 v 0.1 0.05 0.1 l 0.05,0.1 v 0.05 0.1 0.05 0.1 0.05 l 0.05,0.1 v 0.05 0.1 0.1 0.05 0.1 0.05 0.1 0.05 0.1 0.05 0.1 0.1 l 0.05,0.05 v 0.1 0.05 0.1 0.05 l 0.05,0.1 v 0.05 0.1 0.05 0.1 0.1 0.05 l 0.05,0.1 v 0.05 l 0.05,0.1 0.05,0.05 v 0.1 l 0.05,0.05 v 0.1 l 0.05,0.1 v 0.05 l 0.05,0.1 v 0.05 0.1 0.05 0.1 0.05 0.1 0.1 l 0.05,0.05 v 0.1 0.05 0.1 0.05 0.1 0.05 0.1 0.1 0.05 0.1 0.05 0.1 0.05 0.1 0.05 0.1 0.05 0.1 l 0.3,0.45 0.5,1.15 0.4,2.05 0.05,0.35 2,-0.65 q 1.25,-1.2 2.55,-2.1 l 1.7,-1.3 0.6,-0.75 0.7,-0.5 0.9,0.1 0.5,0.45 0.65,-0.25 q 0.65,0 1.35,0.7 0.85,0.75 1.15,1.45 l 0.8,0.4 2.1,0.85 h 0.45 l 0.2,-0.45 0.05,-0.55 q 0.05,-0.6 1.15,-1.25 l 3.6,-2.15 Q 51.05,17 50,15.2 l -1.95,-3.05 m 0.95,22 q 0.35,0.5 0.3,1.1 l -0.45,1.05 q -0.4,0.4 -1.05,0.45 -0.6,0.05 -1.1,-0.3 -0.45,-0.35 -0.6,-0.95 -0.15,-0.6 0.1,-1.1 0.25,-0.55 0.85,-0.8 l 1.1,-0.05 0.85,0.6 M 63,30.6 q 0.15,-0.4 0.8,-1.05 L 64.75,29 65.5,28.95 66.8,29.3 q 1,0.55 1.1,1.7 l -0.1,1.2 -0.1,0.4 -0.35,0.7 -0.7,0.7 -0.85,0.3 -0.6,0.1 q -0.95,0 -1.7,-0.65 -0.65,-0.65 -0.75,-1.7 L 63,30.6 M 12.5,10.15 14.6,10 q 1.05,0.5 1.3,1.65 0.2,0.8 -0.3,1.65 -0.45,0.8 -1.25,1 l -1.6,-0.1 q -0.85,-0.35 -1.2,-1.15 -0.35,-0.75 -0.05,-1.6 0.25,-0.9 1,-1.3 m 6.25,6.65 0.8,1.8 0.1,0.45 -0.3,0.3 -0.45,-0.05 -0.7,-0.6 -1.1,-0.8 -0.7,-0.3 q -0.45,-0.3 -0.6,-0.85 -0.2,-0.5 0,-1.05 0.25,-0.5 0.75,-0.75 l 1,-0.15 q 0.55,0.1 0.9,0.55 0.35,0.5 0.3,1 V 16.8 M 10.2,35.9 Q 9.75,36.45 9.1,36.05 8.5,35.6 8.75,34.95 l 0.15,-0.2 q 0.3,-0.3 0.6,-0.3 L 9.55,34.4 q 0.55,0 0.8,0.55 0.2,0.55 -0.15,0.95 m -11.1,2.2 0.1,-0.7 0.25,-0.6 q 0.7,-1.55 1.5,-2.2 1.1,-0.8 2.6,-0.45 0.25,-1.35 1.15,-3 l 1.5,-3.3 0.25,-0.8 0.5,-0.75 0.75,-0.65 1.95,-0.05 q 0.95,0.5 0.95,1.65 0,1.15 -1.35,2.3 l -0.6,0.6 -0.6,0.85 -0.4,0.45 -0.55,0.8 -1.45,2.45 -0.25,0.25 0.65,0.5 1,1.15 Q 8,38.35 7.1,40.2 L 6.65,40.9 5.5,41.65 4.35,41.75 1.6,41.65 Q 0.7,41.45 0.05,40.9 -0.65,40.3 -0.85,39.45 L -0.9,38.1 M 1.85,30.45 1.5,28.85 q -0.25,-1 0.55,-1.55 l 1.6,-0.1 q 0.85,0.5 0.6,1.55 l -0.9,1.35 -0.5,0.95 Q 2.5,31.65 2.1,31.4 L 1.85,30.95 v -0.5 m 34.2,7.05 q -0.3,-0.55 0.05,-1.4 0.25,-0.5 0.85,-1.1 l 1.45,-1.25 q 0.45,-0.45 0.75,-0.2 0.3,0.2 0.2,0.75 l -0.5,2.3 -0.65,1.25 q -0.55,0.5 -1.2,0.35 -0.7,-0.1 -0.95,-0.7"
         fill="#767676"
         fill-rule="evenodd"
         stroke="none"
         id="path8" />
      <path
         d="m 57.25,15.75 q 0.85,1.5 0.8,2.1 -0.15,1.1 -1.55,2.2 l -0.65,0.6 0.3,0.6 0.4,1.1 0.85,1.25 0.2,0.3 0.45,0.7 -0.15,0.55 -0.5,0.3 -0.6,-0.25 -1.35,-1.05 -1,-0.75 -0.45,-0.2 -0.55,-0.4 -1.6,1.5 0.25,0.3 0.4,0.5 0.3,0.25 0.25,0.4 0.9,0.9 0.35,0.3 0.2,0.35 0.45,0.6 0.1,0.3 -0.2,0.3 -0.5,0.15 -0.45,-0.15 -0.75,-0.35 -0.6,-0.2 -0.7,-0.5 L 51.3,27.25 50.95,27 q -0.2,-0.15 -0.75,-0.4 l -0.45,-0.2 -0.55,0.55 -1.4,1.25 q -0.75,0.55 -1.6,0.45 -0.75,0.1 -1.9,-0.7 L 40.45,25.85 39.2,25.4 q -0.7,-0.1 -1.9,0.5 l -2.55,1 0.1,0.75 0.25,1.05 -0.25,0.9 -0.55,0.6 q -0.55,0.2 -1.1,-0.45 l -0.7,-1.1 -0.55,-0.55 -0.05,-0.05 -1.85,0.75 0.15,0.55 0.1,0.7 0.05,0.95 -0.35,0.5 -0.6,0.2 q -0.4,0 -1,-0.4 l -1.1,-1.1 -0.15,-0.3 -2.35,0.9 q -0.15,2.4 -2.2,4.1 -1.65,1.15 -4.45,1.8 l -2.3,-0.2 Q 15.2,36 14.55,34.75 l -1.85,-3.7 q -0.85,-2 -0.4,-3 0.25,-0.5 1.45,-1.2 3.1,-1.9 5.25,-1.9 L 21.45,25 23.4,24.15 24.5,23.55 24.2,22 v -0.7 q -0.1,-0.85 0.4,-1.1 l 0.75,0.1 0.6,0.5 0.9,0.55 0.6,0.65 2.4,-1.25 0.1,-1.45 v -0.75 q 0,-0.4 0.3,-0.65 l 0.55,-0.05 0.5,0.3 0.7,0.95 0.4,0.35 4.35,-2.1 q 1.35,-0.75 2.15,-0.7 l 1.9,0.55 3.5,1.35 1.15,0.25 0.8,-0.75 0.85,-0.85 -1.85,-3.8 -0.9,-1.55 -1.4,-1.1 -1.55,-0.4 -2.35,0.15 -4.05,0.7 h -0.05 l 0.3,0.95 0.3,0.85 0.25,0.35 L 36,14.2 35.95,14.6 35.55,15 34.9,14.9 32.7,12.95 31.55,11.9 Q 31,11.05 31.45,10.1 31.55,9.8 31.9,9.45 L 32.1,9 q 0.25,-0.55 1.15,-1.4 l 2.8,-2.75 Q 37.3,3.6 38.3,3.15 l 2.7,-0.1 5.7,0.4 2.3,0.4 2.45,2.1 0.5,0.75 L 52.9,6.2 56.6,4.5 57.9,4 58.6,3.85 q 0.45,0 0.6,0.35 v 0.6 l -0.4,0.45 -1.65,1.3 -3,2.5 0.25,0.6 0.25,1 0.1,0.3 3,-1.4 1.65,-0.6 0.85,-0.5 1.05,-0.4 H 62 q 0.45,0.25 0.15,0.85 l -0.7,0.65 -2.7,2.35 -2.4,1.6 -0.3,0.2 1.1,1.9 0.1,0.15 m -10.1,5.55 -1.1,0.5 -1.65,-0.05 -0.45,-0.15 -1.3,-0.55 -1.75,-0.7 -2,-0.35 -1.35,0.45 q -3.5,1.6 -7.25,3.5 -1.45,0.75 -2.95,1.6 l -3.15,1.65 -1.25,0.7 -1.1,0.3 -2.55,0.05 q -2.2,0.05 -3.8,1.45 l 2,3.95 q 2.55,-0.3 3.35,-1.3 l 1.3,-1.8 0.6,-0.6 0.95,-0.7 0.7,-0.35 13.35,-6.55 q 0.9,-0.55 1.7,-0.6 0.85,0 2.15,0.7 l 4,2.15 0.75,0.15 h 0.2 l 0.4,-0.3 0.1,-0.1 7.05,-6.75 Q 52.8,13.55 50.4,10.2 L 48.8,8.2 47.5,7.1 46.4,6.9 41.45,6.45 40.8,6.4 39.55,6.45 Q 38.7,6.65 38.3,7.3 l -0.25,0.55 1.85,-0.3 1.7,-0.35 0.3,0.05 q 0.7,0.05 1.95,0.65 l 1.9,0.9 q 1.15,0.7 1.65,1.35 0.6,0.75 1.25,2.25 l 0.35,1.05 0.55,1.3 0.9,1.6 q 0.4,0.75 0.25,1.4 l -0.1,0.25 -0.7,0.9 -0.75,0.55 -0.9,1 -1.1,0.85 M 17.4,31.7 q -0.3,-0.95 0.25,-1.65 0.45,-0.5 1.15,-0.55 0.7,0 1.15,0.55 0.75,0.6 0.3,1.65 -0.4,0.95 -1.35,0.95 -1.15,0 -1.5,-0.95"
         fill="#000000"
         fill-rule="evenodd"
         stroke="none"
         id="path9" />
    </g>
    <g
       id="shape2"
       transform="translate(2,2.05)">
      <path
         d="M -0.5,-0.4 V -0.55 H 75.1 V -0.4 40.8 H -0.5 Z"
         fill="none"
         stroke="#000000"
         stroke-linecap="round"
         stroke-linejoin="round"
         stroke-width="3"
         id="path10" />
    </g>
  </defs>
</svg>
