<?xml version="1.0" encoding="UTF-8" standalone="no"?>
<svg
   ffdec:objectType="frame"
   height="60.549999"
   width="67.099998"
   version="1.1"
   id="svg7"
   sodipodi:docname="626.svg"
   xmlns:inkscape="http://www.inkscape.org/namespaces/inkscape"
   xmlns:sodipodi="http://sodipodi.sourceforge.net/DTD/sodipodi-0.dtd"
   xmlns:xlink="http://www.w3.org/1999/xlink"
   xmlns="http://www.w3.org/2000/svg"
   xmlns:svg="http://www.w3.org/2000/svg"
   xmlns:ffdec="https://www.free-decompiler.com/flash">
  <sodipodi:namedview
     id="namedview7"
     pagecolor="#ffffff"
     bordercolor="#000000"
     borderopacity="0.25"
     inkscape:showpageshadow="2"
     inkscape:pageopacity="0.0"
     inkscape:pagecheckerboard="0"
     inkscape:deskcolor="#d1d1d1"
     fit-margin-top="5"
     fit-margin-left="5"
     fit-margin-right="5"
     fit-margin-bottom="5" />
  <g
     transform="translate(1.5,1.5)"
     id="g3">
    <use
       ffdec:characterId="516"
       height="57.549999"
       width="64.099998"
       xlink:href="#shape0"
       id="use1" />
    <use
       ffdec:characterId="1117"
       height="57.700001"
       transform="translate(0.5,-0.15)"
       width="63.549999"
       xlink:href="#shape1"
       id="use2" />
    <use
       ffdec:characterId="518"
       height="60.549999"
       transform="translate(-1.5,-1.5)"
       width="67.099998"
       xlink:href="#shape2"
       id="use3" />
  </g>
  <defs
     id="defs7">
    <g
       id="shape0">
      <path
         d="M 53.6,0 H 64.1 V 57.55 H 53.6 28.25 0 V 0 H 28.25 53.6 V 57.55 0 M 28.25,0 V 57.55 0"
         fill="#ffffff"
         fill-rule="evenodd"
         stroke="none"
         id="path3" />
    </g>
    <g
       id="shape1"
       transform="translate(-0.5,0.15)">
      <path
         d="M 19.05,33.3 V 33.2 33.1 L 19,32.95 v -0.1 -0.1 -0.1 -0.05 -0.1 -0.1 -0.1 -0.1 -0.1 -0.1 -0.05 -0.1 -0.1 -0.1 -0.1 -0.15 -0.05 -0.1 -0.1 -0.1 -0.1 -0.1 -0.1 -0.05 -0.1 -0.1 -0.1 -0.1 -0.1 -0.1 -0.1 -0.1 -0.1 -0.1 -0.1 -0.1 -0.05 -0.1 -0.1 -0.1 -0.1 -0.1 -0.1 -0.05 -0.1 -0.1 -0.15 -0.1 -0.1 -0.05 -0.1 -0.1 -0.1 -0.1 -0.1 -0.1 -0.05 -0.1 -0.1 l 0.05,-0.1 v -0.1 -0.15 -0.05 -0.1 -0.1 -0.1 -0.1 -0.1 -0.1 V 26.3 26.2 26.1 26 25.9 25.8 25.7 25.6 25.5 25.4 25.3 25.2 25.1 25 v -0.05 -0.1 -0.1 -0.1 -0.1 -0.1 -0.05 -0.1 -0.1 -0.15 -0.1 -0.1 -0.1 -0.05 -0.1 -0.1 -0.1 -0.1 -0.1 -0.1 -0.05 -0.1 -0.1 -0.1 -0.15 -0.1 -0.05 -0.1 -0.1 -0.1 -0.1 -0.1 -0.1 -0.05 -0.1 -0.1 -0.1 -0.1 -0.1 -0.1 -0.1 -0.1 -0.1 -0.1 -0.1 -0.1 -0.05 -0.1 -0.1 -0.1 -0.1 -0.1 -0.1 -0.05 -0.1 -0.15 -0.1 -0.1 -0.1 -0.05 -0.1 -0.1 -0.1 -0.1 -0.1 -0.1 -0.05 -0.1 -0.1 l 0.05,-0.1 v -0.15 -0.1 -0.05 -0.1 -0.1 -0.1 -0.1 -0.1 -0.1 V 17.4 17.3 17.2 17.1 17 16.9 16.8 16.7 16.6 16.5 16.4 16.3 l 0.05,-0.1 v -0.1 -0.05 -0.1 -0.1 -0.1 -0.1 -0.1 -0.05 -0.1 -0.15 -0.1 -0.1 l 0.05,-0.1 v -0.1 -0.05 -0.1 -0.1 -0.1 -0.1 -0.1 -0.1 -0.05 -0.1 -0.1 l 0.05,-0.1 v -0.15 -0.1 -0.05 -0.1 -0.1 -0.1 -0.1 -0.1 -0.1 -0.05 -0.1 -0.1 -0.1 -0.1 -0.1 -0.1 -0.1 -0.1 -0.1 -0.1 -0.1 -0.1 -0.05 -0.1 -0.1 -0.1 -0.1 l 0.05,-0.1 v -0.1 -0.05 -0.15 -0.1 -0.1 -0.1 -0.1 -0.05 -0.1 l 0.05,-0.1 V 10.1 10 9.9 9.8 9.75 9.65 9.55 9.45 9.3 9.2 9.15 9.05 8.95 8.85 8.75 8.65 8.55 8.5 8.4 8.3 8.2 8.1 8 7.85 7.8 L 19.4,7.7 V 7.6 7.5 7.4 7.3 7.25 7.15 7.05 6.95 6.85 6.75 6.65 L 19.45,6.6 V 6.5 6.35 6.25 6.15 6.05 L 19.5,5.95 V 5.9 5.8 5.7 5.6 5.5 5.4 5.3 5.25 5.15 5.05 4.9 4.8 4.7 4.65 4.55 4.45 4.35 4.25 4.15 4.05 4 3.9 3.8 3.7 3.6 3.45 3.4 3.3 3.2 3.1 3 2.9 2.8 2.75 2.65 2.55 2.45 2.35 2.25 2.15 2.1 1.95 1.85 1.75 1.65 1.55 1.5 L 19.55,1.4 V 1.3 1.2 1.1 1 0.9 0.85 0.75 0.65 0.5 0.4 0.3 0.25 0.15 0.05 l 0.05,-0.1 v -0.1 h 1.7 v 0.05 0.1 0.1 0.1 0.05 0.1 0.1 0.1 0.1 0.1 0.1 0.05 0.1 0.15 0.1 0.1 l 0.05,0.1 V 1.5 1.6 1.7 1.8 1.9 2 v 0.1 0.05 0.1 0.1 0.1 0.15 0.1 0.1 0.05 0.1 0.1 0.1 0.1 0.1 0.05 0.1 0.1 0.1 0.1 0.1 0.15 0.05 l 0.05,0.1 v 0.1 0.1 0.1 0.1 0.1 0.05 0.1 0.1 0.1 0.1 0.1 0.05 0.1 0.15 0.1 0.1 0.1 0.1 L 21.45,6 v 0.1 0.1 0.1 0.1 0.1 0.1 0.05 0.1 0.1 0.15 0.1 0.1 0.05 0.1 0.1 0.1 0.1 l 0.05,0.1 V 7.85 7.9 8 8.1 8.2 8.3 8.4 8.5 8.6 8.7 8.8 8.9 9 9.1 9.15 l 0.05,0.1 v 0.1 0.1 0.1 0.1 0.1 0.05 0.15 0.1 0.1 0.1 0.1 0.05 0.1 0.1 0.1 0.1 0.1 0.1 0.05 0.1 0.1 0.15 0.1 0.1 0.05 0.1 0.1 0.1 0.1 0.1 0.1 0.05 l 0.05,0.1 v 0.1 0.1 0.1 0.1 0.15 0.05 0.1 0.1 0.1 0.1 0.1 0.1 0.05 0.1 0.1 0.1 0.1 0.1 0.05 0.15 0.1 0.1 0.1 0.1 0.1 0.05 l 0.05,0.1 v 0.1 0.1 0.1 0.1 0.1 l 0.05,0.05 v 0.1 0.1 0.15 0.1 0.1 0.05 0.1 0.1 0.1 0.1 0.1 0.1 0.05 0.1 0.1 0.1 0.1 0.15 0.05 0.1 l 0.05,-0.1 v -0.05 -0.1 -0.1 -0.1 l 0.05,-0.1 v -0.1 -0.1 -0.05 -0.1 -0.1 -0.1 -0.1 -0.15 l 0.05,-0.05 v -0.1 -0.1 -0.1 -0.1 -0.1 -0.1 -0.05 -0.1 -0.1 -0.1 -0.1 -0.1 l 0.05,-0.1 v -0.1 -0.1 -0.1 -0.1 -0.1 -0.1 V 14.2 14.1 14 13.9 13.8 13.7 13.6 13.55 l 0.05,-0.1 V 13.3 13.2 13.1 13 v -0.05 -0.1 -0.1 -0.1 -0.1 -0.1 -0.1 V 12.3 12.2 12.1 12 11.9 11.75 11.65 11.6 L 22,11.5 v -0.1 -0.1 -0.1 -0.1 -0.05 -0.1 l 0.05,-0.1 v -0.1 -0.1 -0.1 -0.1 -0.1 -0.1 -0.1 -0.1 V 9.95 9.85 9.75 9.7 9.6 9.5 9.4 9.3 9.2 9.15 9.05 8.95 8.8 8.7 8.6 8.5 8.45 8.35 8.25 8.15 8.05 7.95 7.85 7.8 7.7 7.6 7.5 7.35 7.25 7.2 7.1 7 6.9 6.8 L 22.1,6.7 V 6.6 6.55 6.45 6.35 6.25 6.15 6.05 5.95 5.85 5.75 5.65 5.55 5.45 5.35 L 22.15,5.3 V 5.2 5.1 5 4.9 L 22.2,4.8 V 4.7 4.65 4.55 4.4 4.3 4.2 4.1 4.05 3.95 3.85 3.75 3.65 3.55 3.45 3.4 L 22.25,3.3 V 3.2 3.1 2.95 2.85 2.8 2.7 L 22.3,2.6 V 2.5 2.4 2.3 2.2 2.15 2.05 1.95 1.85 1.75 1.65 1.55 1.45 1.35 1.25 1.15 1.05 0.95 0.85 0.8 0.7 0.6 0.5 0.4 0.3 L 22.35,0.25 V 0.15 0 -0.1 -0.15 h 1.75 v 0.05 0.1 0.15 0.1 0.05 0.1 0.1 0.1 0.1 0.1 0.05 0.1 0.1 0.1 0.1 0.1 0.1 0.1 l 0.05,0.1 v 0.1 0.1 0.1 0.1 0.1 0.05 0.1 0.1 0.1 0.1 0.1 0.1 0.05 0.1 0.15 0.1 0.1 l 0.05,0.1 v 0.05 0.1 0.1 0.1 0.1 0.1 0.1 0.05 l 0.05,0.1 V 4.3 4.4 4.55 4.65 4.7 L 24.3,4.8 V 4.9 5 l 0.05,0.1 v 0.1 l 0.05,0.1 v 0.05 0.1 0.1 0.1 0.1 0.1 0.1 0.1 0.1 0.1 0.1 0.1 0.1 0.05 0.1 0.1 0.1 0.1 0.1 0.1 0.05 0.1 0.15 0.1 0.1 0.1 0.05 0.1 0.1 0.1 0.1 0.1 0.1 0.05 0.1 0.1 0.1 0.15 0.1 0.1 0.05 0.1 l 0.05,0.1 v 0.1 0.1 0.1 0.05 0.1 0.1 0.1 0.1 0.1 0.1 0.1 0.1 0.1 0.1 l 0.05,0.1 v 0.1 0.1 0.05 0.1 0.1 0.1 0.1 0.1 0.05 0.1 0.15 0.1 l 0.05,0.1 v 0.1 0.1 0.05 0.1 0.1 0.1 0.1 0.1 0.1 0.05 0.1 0.1 0.1 l 0.05,0.15 v 0.1 0.05 0.1 0.1 0.1 0.1 0.1 0.1 0.05 0.1 0.1 0.1 0.1 0.1 0.1 0.1 0.1 0.1 0.1 0.1 0.1 0.05 0.1 0.1 0.1 0.1 0.1 0.1 l 0.05,0.05 v 0.15 0.1 0.1 0.1 l 0.05,0.1 v 0.05 0.1 0.1 0.1 0.1 0.1 0.1 l 0.05,0.05 v 0.1 0.1 0.1 0.15 0.1 0.1 0.05 0.1 0.1 0.1 0.1 0.1 0.05 0.1 0.1 0.1 0.1 0.1 l 0.05,0.15 v 0.05 0.1 0.1 0.1 0.1 0.1 l 0.05,0.1 v 0.05 0.1 0.1 0.1 0.1 0.1 0.05 0.1 0.15 0.1 L 24.9,21 v 0.1 0.1 0.05 0.1 0.1 0.1 0.1 0.1 0.1 0.05 0.1 0.1 0.15 0.1 0.1 0.05 0.1 0.1 0.1 0.1 0.1 0.1 0.05 0.1 0.1 0.1 0.1 0.15 l 0.05,0.05 v 0.1 0.1 0.1 0.1 0.1 0.1 L 25,24.4 v 0.1 0.1 0.1 0.1 0.1 0.1 0.05 0.15 0.1 0.1 0.1 0.1 0.05 0.1 0.1 0.1 0.1 0.1 0.1 0.05 0.1 0.1 0.15 0.1 0.1 0.1 0.05 0.1 0.1 0.1 l 0.05,0.1 v -0.05 -0.1 -0.1 l 0.05,-0.1 v -0.1 -0.05 -0.1 -0.1 -0.1 -0.1 -0.1 -0.1 -0.05 -0.1 -0.15 -0.1 -0.1 -0.1 -0.05 -0.1 -0.1 -0.1 -0.1 -0.1 -0.1 V 25 24.9 24.8 24.7 24.55 24.45 24.4 24.3 24.2 24.1 24 v -0.1 -0.1 -0.05 -0.1 -0.1 -0.1 -0.1 -0.1 -0.15 -0.05 -0.1 -0.1 -0.1 -0.1 -0.1 -0.05 -0.1 -0.1 -0.1 -0.1 -0.1 -0.1 -0.05 -0.1 -0.15 -0.1 -0.1 -0.1 -0.1 -0.05 -0.1 -0.1 -0.1 l 0.05,-0.1 v -0.1 -0.1 -0.05 -0.1 -0.1 -0.15 -0.1 -0.1 -0.05 -0.1 -0.1 -0.1 -0.1 -0.1 -0.1 -0.05 l 0.05,-0.1 v -0.1 -0.1 -0.1 -0.1 -0.1 -0.1 -0.1 -0.1 -0.1 -0.1 -0.1 V 18 17.9 17.8 17.7 17.6 17.5 17.4 17.35 17.2 17.1 17 16.9 16.8 16.75 l 0.05,-0.1 v -0.1 -0.1 -0.1 -0.1 -0.1 V 16.1 16 15.9 15.75 15.65 15.55 15.5 15.4 15.3 15.2 15.1 15 14.9 14.85 14.75 l 0.05,-0.1 v -0.1 -0.1 -0.1 -0.15 -0.05 -0.1 -0.1 -0.1 -0.1 -0.1 -0.05 -0.1 -0.1 -0.1 -0.1 -0.1 -0.1 -0.05 -0.15 -0.1 -0.1 -0.1 -0.1 -0.1 -0.05 -0.1 -0.1 -0.1 -0.1 -0.1 -0.1 -0.05 -0.1 -0.1 -0.15 -0.1 -0.1 -0.05 -0.1 -0.1 -0.1 -0.1 -0.1 -0.1 -0.05 -0.1 -0.1 -0.1 -0.1 L 25.35,9.8 V 9.75 9.65 9.55 9.45 9.35 9.25 9.15 9.1 9 8.9 8.8 8.7 8.6 8.5 8.4 8.3 8.2 8.1 8 7.9 7.85 7.75 7.65 L 25.4,7.55 V 7.45 7.35 7.25 7.2 7.1 7 6.85 6.75 6.65 6.6 6.5 6.4 6.3 6.2 6.1 6 5.95 5.85 5.75 5.65 5.55 5.4 5.3 5.25 l 0.05,-0.1 V 5.05 4.95 4.85 4.75 4.7 4.6 4.5 4.4 4.3 L 25.5,4.2 V 4.1 4.05 3.9 3.8 3.7 3.6 3.5 3.4 3.35 3.25 3.15 3.05 2.95 2.85 L 25.55,2.8 V 2.7 2.6 2.45 2.35 L 25.6,2.25 V 2.15 2.1 2 1.9 1.8 1.7 1.6 1.5 L 25.65,1.45 V 1.35 1.25 L 25.7,1.15 V 1 0.9 0.85 0.75 0.65 0.55 l 0.05,-0.1 V 0.35 0.25 L 25.8,0.2 V 0.1 0 -0.1 -0.15 h 1.5 V -0.1 0 0.1 0.2 l 0.05,0.05 v 0.1 0.1 0.1 0.1 0.1 0.1 L 27.4,0.9 V 1 1.15 l 0.05,0.1 v 0.1 0.1 0.05 0.1 0.1 0.1 L 27.5,1.9 V 2 2.1 2.15 2.25 l 0.05,0.1 v 0.1 0.15 0.1 0.1 0.05 0.1 0.1 0.1 0.1 0.1 0.05 L 27.6,3.5 V 3.6 3.7 3.8 3.9 4.05 4.1 4.2 l 0.05,0.1 v 0.1 0.1 0.1 0.1 0.05 0.1 0.1 0.1 0.1 0.1 0.05 0.1 0.15 0.1 0.1 0.1 0.1 V 6 6.1 6.2 l 0.05,0.1 v 0.1 0.1 0.1 0.05 0.1 0.1 0.15 0.1 0.1 0.05 0.1 0.1 0.1 l 0.05,0.1 V 7.75 7.85 7.9 8 8.1 8.2 8.3 8.4 8.5 8.6 8.7 8.8 8.9 9 v 0.1 0.05 0.1 0.1 0.1 0.1 0.1 0.1 L 27.8,9.8 v 0.15 0.1 0.1 0.1 0.1 0.05 0.1 0.1 0.1 0.1 0.1 0.1 0.05 0.1 0.1 0.15 0.1 0.1 0.05 l 0.05,0.1 v 0.1 0.1 0.1 0.1 0.1 0.05 0.1 0.1 0.1 0.1 0.1 0.15 0.05 0.1 0.1 0.1 0.1 0.1 0.1 0.05 0.1 0.1 0.1 0.1 0.1 0.05 0.15 0.1 0.1 0.1 l 0.05,0.1 v 0.1 0.05 0.1 0.1 0.1 0.1 0.1 0.1 0.05 0.1 0.1 0.15 0.1 0.1 0.05 0.1 0.1 0.1 0.1 0.1 0.1 0.05 0.1 0.1 0.1 0.1 0.15 0.05 0.1 0.1 0.1 0.1 0.1 0.1 0.05 0.1 0.1 0.1 0.1 0.1 0.1 0.1 0.1 0.1 0.1 l 0.05,0.1 v 0.1 0.05 0.1 0.1 0.1 0.1 0.1 0.1 0.05 0.1 0.1 0.15 0.1 0.1 0.05 0.1 0.1 0.1 0.1 0.1 0.1 0.05 0.1 0.1 0.1 0.1 0.15 0.1 L 28,21.9 v 0.1 0.1 0.1 0.1 0.1 0.1 0.05 0.1 0.1 0.1 0.1 0.1 0.05 0.15 0.1 0.1 0.1 0.1 0.1 0.05 0.1 0.1 0.1 0.1 0.1 0.1 0.05 0.1 0.15 0.1 0.1 0.1 0.05 0.1 0.1 0.1 0.1 0.1 0.1 0.05 0.1 0.1 0.1 0.15 0.1 0.05 0.1 0.1 0.1 0.1 0.1 0.1 0.05 0.1 l 0.05,0.1 v 0.1 0.1 0.1 0.1 0.1 0.1 0.1 0.1 0.1 0.1 0.05 0.1 0.1 0.1 0.1 0.1 0.1 0.05 0.1 0.15 0.1 0.1 0.1 0.05 L 28.1,29.4 v -0.1 -0.1 -0.1 -0.15 -0.1 -0.05 -0.1 -0.1 -0.1 -0.1 -0.1 -0.1 -0.05 -0.1 -0.1 -0.1 -0.1 l 0.05,-0.1 v -0.1 -0.1 -0.1 -0.1 -0.1 -0.1 -0.1 -0.05 L 28.2,26.8 V 26.7 26.6 26.5 26.4 26.3 26.25 26.15 26 25.9 25.8 25.7 25.65 l 0.05,-0.1 v -0.1 -0.1 -0.1 -0.1 -0.1 V 25 24.9 24.8 24.7 24.55 24.45 24.4 24.3 24.2 24.1 24 23.9 23.8 23.75 l 0.05,-0.1 v -0.1 -0.1 -0.1 -0.1 -0.15 -0.05 -0.1 -0.1 -0.1 -0.1 -0.1 L 28.35,22.5 V 22.4 22.3 22.2 22.1 22 l 0.05,-0.1 v -0.05 -0.1 -0.15 -0.1 -0.1 -0.1 -0.1 -0.05 -0.1 -0.1 -0.1 -0.1 -0.1 -0.1 -0.05 -0.1 -0.1 -0.15 -0.1 -0.1 -0.05 -0.1 -0.1 -0.1 -0.1 -0.1 -0.1 -0.05 -0.1 -0.1 -0.1 -0.1 -0.1 -0.1 -0.1 l 0.05,-0.1 v -0.1 -0.1 -0.1 -0.1 V 18 17.9 17.8 17.7 L 28.5,17.6 V 17.5 17.4 17.35 17.2 17.1 17 v -0.1 -0.1 -0.05 -0.1 -0.1 -0.1 -0.1 -0.1 -0.1 -0.05 L 28.55,16 V 15.9 15.75 15.65 15.55 15.5 15.4 15.3 15.2 15.1 15 14.9 14.85 l 0.05,-0.1 v -0.1 -0.1 l 0.05,-0.1 v -0.1 -0.15 -0.05 -0.1 -0.1 -0.1 -0.1 -0.1 L 28.7,13.6 v -0.1 -0.1 -0.1 l 0.05,-0.1 0.05,-0.1 V 13 12.95 12.8 12.7 12.6 12.5 12.4 l 0.05,-0.1 0.1,-0.05 h 0.15 l 0.1,0.05 v 0.1 0.1 0.1 0.1 0.1 0.15 0.05 l 0.05,0.1 v 0.1 l 0.05,0.1 v 0.1 0.1 0.1 0.05 0.1 0.1 0.1 l 0.05,0.1 v 0.1 0.05 0.15 l 0.05,0.1 v 0.1 0.1 0.1 0.1 0.05 0.1 0.1 l 0.05,0.1 v 0.1 0.1 0.1 l 0.05,0.05 v 0.1 0.1 0.15 0.1 0.1 0.05 0.1 0.1 0.1 0.1 l 0.05,0.1 v 0.1 0.05 0.1 0.1 0.1 0.1 0.15 0.05 0.1 l 0.05,0.1 v 0.1 0.1 0.1 0.1 0.05 0.1 0.1 0.1 0.1 0.1 0.1 0.1 0.1 0.1 0.1 0.1 0.1 0.05 0.1 0.1 0.1 0.1 0.1 0.1 0.05 0.1 l 0.05,0.1 v 0.15 0.1 0.1 0.05 0.1 0.1 0.1 0.1 0.1 0.1 0.05 0.1 0.1 0.1 0.1 0.15 0.1 l 0.05,0.05 v 0.1 0.1 0.1 0.1 0.1 0.1 0.05 0.1 0.1 0.1 0.1 0.1 0.05 0.15 0.1 0.1 0.1 l 0.05,0.1 v 0.1 0.05 0.1 0.1 0.1 0.1 0.1 0.1 0.05 0.1 l 0.05,0.15 v 0.1 0.1 0.1 0.05 0.1 0.1 0.1 0.1 0.1 0.1 0.05 0.1 0.1 0.1 0.15 0.1 0.05 0.1 0.1 0.1 0.1 0.1 0.1 0.05 0.1 0.1 0.1 0.1 l 0.05,0.1 v 0.1 l 0.05,0.1 v 0.1 0.1 0.1 0.1 0.1 0.05 0.1 0.1 0.1 0.1 0.1 0.1 0.05 0.1 0.15 0.1 0.1 0.1 0.05 0.1 0.1 0.1 0.1 0.1 0.1 0.05 0.1 0.1 l 0.05,0.1 v 0.1 0.15 0.1 0.05 0.1 0.1 0.1 0.1 0.1 0.1 L 30,31.45 v 0.1 0.1 0.1 0.1 0.1 0.1 0.1 0.1 0.1 0.1 l 0.05,0.1 v 0.1 0.05 0.1 L 30,32.9 v 0.1 0.1 l -0.05,0.1 -0.05,0.1 H 64.05 V 57.55 H 0.5 V 33.3 H 13.75 V 33.2 33.1 L 13.7,32.95 v -0.1 -0.1 -0.1 -0.05 -0.1 -0.1 -0.1 -0.1 -0.1 -0.1 -0.05 -0.1 -0.1 -0.1 -0.1 -0.15 -0.05 -0.1 -0.1 l 0.05,-0.1 v -0.1 -0.1 -0.1 V 30.7 30.6 30.5 30.4 30.3 30.2 30.1 30 29.9 l 0.05,-0.1 v -0.1 -0.1 -0.1 -0.05 l 0.05,-0.1 v -0.1 -0.1 -0.1 -0.1 -0.1 -0.05 -0.1 -0.1 -0.15 -0.1 -0.1 V 28.2 28.1 28 27.9 l 0.05,-0.1 v -0.1 -0.1 -0.05 -0.1 -0.1 -0.1 -0.1 V 27 26.95 l 0.05,-0.1 v -0.1 -0.1 -0.1 -0.1 -0.1 V 26.3 26.2 26.1 26 25.9 25.8 25.7 25.6 25.5 25.4 25.3 25.2 25.1 25 v -0.05 -0.1 -0.1 -0.1 -0.1 -0.1 -0.05 -0.1 -0.1 -0.15 -0.1 -0.1 -0.1 -0.05 -0.1 L 14,23.5 v -0.1 -0.1 -0.1 -0.1 -0.05 -0.1 -0.1 l 0.05,-0.1 v -0.15 -0.1 -0.05 -0.1 -0.1 -0.1 -0.1 -0.1 -0.1 -0.05 -0.1 L 14.1,21.6 V 21.5 21.4 21.3 21.2 21.1 21 20.9 20.8 20.7 l 0.05,-0.1 v -0.05 -0.1 -0.1 -0.1 -0.1 -0.1 -0.1 -0.05 -0.1 -0.15 -0.1 -0.1 -0.1 -0.05 -0.1 -0.1 -0.1 -0.1 -0.1 -0.1 -0.05 -0.1 -0.1 -0.1 -0.15 -0.1 -0.05 -0.1 -0.1 l 0.05,-0.1 v -0.1 -0.1 -0.1 V 17.4 17.3 17.2 17.1 17 l 0.05,-0.1 v -0.1 l 0.1,-0.1 h 0.2 l 0.05,0.1 0.05,0.1 v 0.1 0.1 0.1 0.1 0.1 0.05 0.1 0.1 0.1 0.1 0.1 0.1 0.05 0.1 0.15 0.1 0.1 0.1 0.05 0.1 0.1 0.1 l 0.05,0.1 v 0.1 0.1 0.05 0.1 0.1 0.1 0.15 0.1 0.05 0.1 0.1 0.1 0.1 0.1 0.1 l 0.05,0.05 v 0.1 0.1 0.1 0.1 0.1 0.1 0.1 0.1 0.1 0.1 0.1 0.1 0.05 0.1 0.1 0.1 l 0.05,0.1 v 0.1 0.1 0.05 0.1 l 0.05,0.15 v 0.1 0.1 0.1 0.05 0.1 0.1 0.1 0.1 0.1 0.1 0.05 0.1 0.1 0.1 0.15 0.1 0.1 0.05 0.1 0.1 l 0.05,0.1 v 0.1 0.1 0.05 0.1 0.1 0.1 0.1 0.1 0.1 0.1 0.1 0.1 0.1 l 0.05,0.1 v 0.1 0.1 0.05 0.1 0.1 0.1 0.1 0.1 0.1 0.05 0.15 0.1 0.1 0.1 0.1 0.05 0.1 L 15,27.8 v 0.1 0.1 0.1 0.1 0.05 0.1 0.1 0.15 l 0.05,0.1 v 0.1 0.05 0.1 0.1 0.1 0.1 l 0.05,0.1 v 0.1 0.05 0.1 0.1 0.1 0.1 0.1 0.1 l 0.05,0.1 v 0.1 0.1 0.1 0.1 0.1 0.05 0.1 0.1 0.1 l 0.05,0.1 v 0.1 0.1 0.05 0.15 0.1 0.1 0.1 0.1 0.05 0.1 0.1 0.1 0.1 0.1 0.1 0.05 0.1 0.1 0.1 0.15 l -0.05,0.1 v 0.1 h 0.7 v -0.05 -0.1 -0.1 -0.1 -0.1 -0.1 -0.1 -0.05 -0.15 -0.1 -0.1 -0.1 -0.1 -0.05 -0.1 -0.1 -0.1 -0.1 -0.1 -0.1 -0.05 -0.1 -0.1 -0.1 -0.15 -0.1 -0.05 -0.1 -0.1 -0.1 -0.1 -0.1 -0.1 V 30.1 30 29.9 29.8 29.7 29.6 29.45 29.4 29.3 l 0.05,-0.1 v -0.1 -0.1 -0.1 -0.05 -0.1 -0.1 -0.1 -0.1 -0.1 -0.1 -0.05 -0.15 -0.1 -0.1 -0.1 -0.1 -0.1 -0.05 -0.1 -0.1 -0.1 -0.1 L 15.95,27 v -0.05 -0.1 -0.1 -0.1 -0.15 -0.1 -0.1 -0.05 -0.1 -0.1 -0.1 -0.1 -0.1 -0.1 -0.05 -0.1 -0.1 -0.1 -0.1 -0.15 -0.05 -0.1 -0.1 -0.1 -0.1 -0.1 -0.1 -0.05 -0.1 -0.1 -0.1 -0.1 -0.1 -0.1 -0.05 L 16,23.55 v -0.1 -0.1 -0.1 -0.1 V 23.1 23 22.9 l 0.05,-0.1 V 22.7 22.6 22.5 22.45 22.35 22.25 22.1 22 21.9 l 0.05,-0.05 v -0.1 -0.1 -0.1 -0.1 -0.1 -0.1 V 21.2 21.1 21 20.9 20.8 l 0.05,-0.15 v -0.1 -0.05 -0.1 -0.1 -0.1 -0.1 -0.1 -0.05 -0.1 -0.1 -0.1 l 0.05,-0.1 v -0.1 -0.1 -0.05 -0.15 -0.1 -0.1 -0.1 -0.1 -0.1 l 0.05,-0.05 v -0.1 -0.1 -0.1 -0.1 -0.1 -0.05 -0.1 -0.1 -0.15 l 0.05,-0.1 v -0.1 -0.1 -0.05 -0.1 -0.1 -0.1 -0.1 -0.1 -0.1 -0.05 -0.1 -0.1 -0.1 -0.1 -0.15 -0.05 -0.1 -0.1 -0.1 -0.1 -0.1 -0.1 -0.05 -0.1 -0.1 -0.1 -0.1 -0.1 -0.1 -0.1 -0.1 -0.1 -0.1 -0.1 -0.1 V 14.2 14.1 14 13.9 13.8 13.7 13.6 13.55 13.45 13.3 13.2 13.1 13 v -0.05 -0.1 -0.1 -0.1 -0.1 -0.1 -0.1 -0.05 l 0.05,-0.1 V 12.1 12 11.9 11.75 11.65 11.6 11.5 l 0.05,-0.1 v -0.1 -0.1 -0.1 -0.05 -0.1 -0.1 -0.1 -0.1 -0.1 -0.1 -0.1 -0.1 -0.1 -0.1 V 9.95 9.85 9.75 9.7 9.6 9.5 9.4 9.3 9.2 9.15 9.05 8.95 8.8 8.7 L 16.45,8.6 V 8.5 8.45 8.35 8.25 8.15 8.05 7.95 7.85 7.8 7.7 7.6 7.5 7.35 7.25 7.2 7.1 7 6.9 6.8 L 16.5,6.7 V 6.6 6.55 6.45 6.35 6.25 6.15 l 0.05,-0.1 V 5.95 5.85 5.75 5.65 L 16.6,5.55 V 5.45 5.35 5.3 5.2 5.1 L 16.65,5 V 4.9 4.8 L 16.7,4.7 V 4.65 4.55 4.4 4.3 4.2 L 16.75,4.1 V 4.05 l 0.05,-0.1 v -0.1 -0.1 -0.1 l 0.05,-0.1 0.05,-0.1 V 3.4 l 0.05,-0.1 0.1,-0.1 0.05,-0.1 h 0.1 l 0.2,0.05 0.15,0.1 0.05,0.1 0.05,0.05 v 0.1 0.1 0.1 l 0.05,0.1 v 0.1 l 0.05,0.15 V 4.1 4.2 4.3 4.4 4.5 4.6 4.7 l 0.05,0.05 v 0.1 0.1 0.1 0.1 0.1 l 0.05,0.05 v 0.1 0.15 l 0.05,0.1 v 0.1 0.1 0.1 V 6 6.1 6.2 6.3 l 0.05,0.1 V 6.5 6.6 6.65 L 18,6.75 V 6.85 7 7.1 7.2 7.25 l 0.05,0.1 v 0.1 0.1 0.1 0.1 0.1 V 7.9 8 8.1 8.2 8.3 8.4 8.5 8.6 8.7 8.8 8.9 9 v 0.1 0.05 0.1 0.1 0.1 0.1 0.1 0.1 0.05 0.15 0.1 0.1 0.1 l 0.05,0.1 v 0.05 0.1 0.1 0.1 0.1 0.1 0.1 0.05 0.1 0.1 0.15 l 0.05,0.1 v 0.1 0.05 0.1 0.1 0.1 0.1 0.1 0.1 0.05 0.1 0.1 0.1 0.1 0.1 0.15 0.05 0.1 0.1 0.1 0.1 0.1 0.1 0.05 0.1 0.1 0.1 0.1 0.1 l 0.05,0.05 v 0.15 0.1 0.1 0.1 0.1 0.1 0.05 0.1 0.1 0.1 0.1 0.1 0.1 0.05 0.1 0.1 0.15 0.1 0.1 0.05 0.1 0.1 0.1 0.1 0.1 0.1 0.05 0.1 0.1 0.1 0.1 0.15 0.05 0.1 l 0.05,0.1 v 0.1 0.1 0.1 0.1 0.05 0.1 0.1 0.1 0.1 0.1 0.1 0.1 0.1 l 0.05,0.1 v 0.1 0.1 0.1 0.05 0.1 0.1 l 0.05,0.1 v 0.1 0.1 0.1 0.05 0.1 0.1 0.15 0.1 0.1 0.05 0.1 0.1 0.1 0.1 0.1 0.1 0.05 0.1 l 0.05,0.1 v 0.1 0.1 0.15 0.1 0.05 0.1 0.1 0.1 0.1 0.1 0.1 0.05 0.1 0.1 0.1 0.1 0.1 0.05 0.15 0.1 0.1 l 0.05,0.1 v 0.1 0.1 0.05 0.1 0.1 0.1 0.1 0.1 0.1 0.05 0.1 0.15 0.1 0.1 0.1 0.05 0.1 0.1 l 0.05,0.1 v 0.1 0.1 0.1 0.05 0.1 0.1 0.1 0.15 0.1 0.05 0.1 0.1 0.1 0.1 0.1 0.1 0.05 l 0.05,0.1 v 0.1 0.1 0.1 0.1 0.1 0.1 0.1 0.1 0.1 0.1 0.1 0.05 0.1 0.1 0.1 0.1 0.1 0.1 0.05 0.1 0.15 0.1 0.1 0.1 0.05 0.1 0.1 0.1 0.1 0.1 0.1 0.05 0.1 0.1 0.1 0.1 0.15 0.1 0.05 0.1 0.1 0.1 0.1 0.1 0.1 0.05 0.1 0.1 0.1 0.1 0.1 0.1 0.1 0.1 0.1 0.1 l 0.05,0.1 v 0.1 0.05 0.1 0.1 0.1 0.1 0.1 0.1 h 0.45 m 6.65,0 -0.15,-0.1 -0.1,-0.1 L 25.35,33 25.3,32.9 25.25,32.8 25.2,32.7 25.15,32.65 25.1,32.55 v 0.1 0.1 0.1 0.1 0.1 l -0.05,0.1 -0.05,0.1 v 0.05 h 0.7 m 2.4,0 L 28.05,33.2 28,33.1 27.95,33 V 32.9 32.8 32.7 32.65 L 27.9,32.7 v 0.1 l -0.1,0.1 -0.05,0.1 -0.1,0.1 -0.1,0.1 -0.1,0.1 h 0.65"
         fill="#000000"
         fill-rule="evenodd"
         stroke="none"
         id="path4" />
      <path
         d="M 44.8,7.3 46.3,5.2 46.75,4.5 47.1,3.7 q 0.3,-0.5 0.7,-0.5 h 0.15 0.2 l 0.7,0.5 0.35,0.8 0.45,0.7 1.55,2.2 0.1,0.15 0.1,0.1 0.65,0.95 q 0.3,0.65 -0.15,1.1 L 51.3,9.95 H 51.2 50.95 L 49.5,9.8 l 0.15,1.35 -0.05,0.8 0.15,1.3 v 0.2 l -0.05,0.6 Q 49.4,14.5 48.45,14.5 H 47.5 q -0.95,0 -1.25,-0.45 l -0.1,-0.6 0.05,-0.2 0.15,-1.3 L 46.3,11.15 46.35,9.8 45,9.95 H 44.8 L 44.15,9.8 44.05,9.7 Q 43.6,9.25 43.9,8.6 L 44.2,8.1 44.55,7.65 44.8,7.3"
         fill="#000000"
         fill-rule="evenodd"
         stroke="none"
         id="path5" />
      <path
         d="M 44.8,7.3 44.75,7.2 V 7.1 7 6.9 6.8 6.7 6.6 6.5 L 44.7,6.4 V 6.3 6.2 6.1 6 5.85 5.75 5.65 5.55 5.45 5.35 5.25 5.15 5.05 4.95 4.85 4.75 4.65 4.55 4.45 4.35 4.2 4.1 4 3.9 3.8 3.7 3.6 3.5 3.4 3.3 3.2 3.1 3 2.9 2.8 2.65 2.55 2.45 2.35 2.25 2.15 2.05 1.95 1.85 1.75 1.65 1.55 1.45 1.35 l 0.05,-0.1 V 1.15 L 44.8,1 V 0.9 0.8 L 44.9,0.7 V 0.6 L 45,0.5 45.05,0.4 45.1,0.3 h 2.3 l 0.05,0.05 0.1,0.1 0.05,-0.1 V 0.3 h 3.3 l 0.05,0.05 0.1,0.1 0.05,0.1 0.05,0.1 0.05,0.1 v 0.1 l 0.05,0.1 0.05,0.1 v 0.1 0.1 0.1 0.1 0.1 0.05 L 51.35,1.5 51.4,1.4 51.45,1.3 51.5,1.2 51.6,1.1 51.7,1 51.8,0.9 51.95,0.8 52.1,0.7 52.3,0.55 52.55,0.5 52.85,0.45 V 0.5 h 0.35 l 0.2,0.05 0.25,0.15 0.2,0.1 0.1,0.1 0.1,0.1 0.1,0.1 0.05,0.1 0.1,0.1 0.05,0.1 0.05,0.1 V 1.4 1.3 1.2 1.1 L 54.45,1 54.5,0.9 54.55,0.8 54.6,0.7 54.7,0.55 54.8,0.45 54.95,0.35 55.05,0.3 H 56 l 0.1,0.05 0.15,0.1 0.1,0.1 0.1,0.15 0.05,0.1 0.05,0.1 0.05,0.1 v 0.1 0.1 l 0.05,0.1 V 1.4 1.5 1.6 L 56.6,1.7 v 0.1 0.1 0.1 0.1 0.15 0.1 0.1 0.1 0.1 0.1 l -0.05,0.1 v 0.1 0.1 0.1 0.1 0.1 0.1 0.1 0.1 0.15 0.1 L 56.5,4 v 0.1 0.1 0.1 0.1 0.1 0.1 0.1 0.1 0.1 0.1 0.1 0.1 0.1 0.15 0.1 0.1 0.1 0.1 0.1 0.1 0.1 0.1 0.1 0.1 0.1 0.1 0.1 0.1 L 56.45,7 V 7.1 L 56.4,7.2 v 0.1 0.1 0.1 0.1 0.1 0.1 0.1 0.1 0.1 0.1 0.1 0.1 0.1 0.15 0.1 0.1 0.1 0.1 l -0.05,0.1 v 0.1 0.1 0.1 0.1 0.1 0.1 0.1 0.1 0.1 L 56.3,10.2 v 0.1 0.1 0.1 0.1 0.1 0.1 0.1 0.1 0.1 0.1 l -0.05,0.1 v 0.1 0.1 0.1 0.15 0.1 0.1 0.1 0.1 0.1 0.1 0.1 0.1 0.1 0.1 0.1 0.1 0.1 l -0.05,0.1 v 0.1 0.15 0.1 0.1 0.1 0.1 0.1 0.1 0.1 0.1 0.1 0.1 0.1 0.1 0.1 0.1 0.15 l -0.05,0.1 v 0.1 0.1 0.1 0.1 0.1 0.1 0.1 0.1 0.1 0.1 0.1 0.1 0.1 0.1 0.15 0.1 0.1 0.1 0.1 0.1 0.1 0.1 0.1 0.1 0.1 0.1 l -0.05,0.1 v 0.1 0.1 0.15 0.1 0.1 0.1 0.1 0.1 0.1 l -0.05,0.1 v 0.1 0.1 0.1 0.1 0.1 0.1 0.1 0.15 0.1 0.1 L 56,20 v 0.1 0.1 0.1 l -0.05,0.1 v 0.1 0.1 0.1 0.1 0.1 0.1 0.1 l -0.05,0.1 v 0.15 0.1 0.1 l -0.05,0.1 v 0.1 0.1 0.1 0.1 0.1 0.1 0.1 l -0.05,0.1 v 0.1 l -0.05,0.1 v 0.1 0.15 L 55.7,23 v 0.1 0.1 0.1 0.1 l -0.1,0.1 h -0.15 l -0.1,-0.1 -0.05,-0.1 v -0.1 -0.1 -0.1 -0.1 -0.15 -0.1 -0.1 l -0.05,-0.1 -0.05,-0.1 v -0.1 -0.1 -0.1 l -0.05,-0.1 v -0.1 -0.1 -0.1 -0.1 -0.1 -0.1 -0.15 -0.1 L 55.1,21 V 20.9 20.8 L 55.05,20.7 V 20.6 20.5 20.4 L 55,20.3 V 20.2 20.1 20 19.9 19.8 19.7 19.55 19.45 l -0.05,-0.1 v -0.1 -0.1 -0.1 -0.1 -0.1 -0.1 -0.1 -0.1 -0.1 -0.1 -0.1 -0.1 V 18 17.9 17.8 17.7 L 54.9,17.6 V 17.5 17.4 17.3 17.2 17.1 17 16.9 16.8 l -0.05,-0.1 v -0.1 -0.15 -0.1 -0.1 -0.1 -0.1 -0.1 -0.1 -0.1 -0.1 -0.1 -0.1 -0.1 -0.1 -0.1 -0.1 -0.1 -0.15 -0.1 -0.1 -0.1 -0.1 -0.1 -0.1 -0.1 -0.1 -0.1 -0.1 -0.1 -0.1 -0.1 -0.1 -0.15 -0.1 -0.1 l -0.05,-0.1 v -0.1 -0.1 -0.1 -0.1 -0.1 l -0.05,-0.1 v -0.1 -0.1 -0.1 -0.1 -0.1 -0.1 -0.15 -0.1 -0.1 -0.1 -0.1 L 54.7,11.1 V 11 10.9 10.8 10.7 10.6 10.5 10.4 10.3 10.2 10.05 9.95 9.85 9.75 9.65 9.55 9.45 9.35 9.25 9.15 L 54.65,9.05 V 8.95 8.85 8.75 8.65 8.5 8.4 8.3 8.2 8.1 8 7.9 7.8 L 54.6,7.7 V 7.6 7.5 7.4 7.3 7.2 7.1 7 6.85 L 54.55,6.75 V 6.65 6.55 6.45 6.35 6.25 6.15 6.05 5.95 5.85 5.75 5.65 5.55 5.45 5.3 5.2 5.1 5 L 54.5,4.9 v 0.1 0.1 0.1 0.1 0.15 0.1 0.1 0.1 0.1 0.1 0.1 0.1 0.1 0.1 0.1 0.1 0.1 0.1 0.1 V 7 7.1 7.2 7.3 7.4 l -0.05,0.1 v 0.1 0.1 0.1 0.1 0.1 0.1 0.1 0.1 0.1 0.1 0.15 0.1 0.1 0.1 0.1 0.1 0.1 0.1 0.1 0.1 0.1 0.1 0.1 0.1 0.1 0.15 0.1 0.1 0.1 0.1 0.1 0.1 0.1 0.1 0.1 0.1 0.1 0.1 0.1 0.1 0.15 0.1 0.1 0.1 0.1 0.1 0.1 0.1 0.1 0.1 0.1 0.1 0.1 0.1 l -0.05,0.1 v 0.1 0.15 0.1 0.1 0.1 0.1 0.1 0.1 0.1 0.1 0.1 0.1 0.1 0.1 0.1 0.1 0.15 0.1 0.1 0.1 0.1 0.1 0.1 0.1 0.1 0.1 0.1 0.1 l -0.05,0.1 v 0.1 0.1 0.1 0.15 0.1 0.1 0.1 0.1 0.1 0.1 0.1 0.1 0.1 0.1 0.1 l -0.05,0.1 v 0.1 0.1 0.15 0.1 0.1 0.1 0.1 0.1 0.1 0.1 0.1 0.1 0.1 0.1 0.1 0.1 0.1 0.15 0.1 0.1 0.1 0.1 0.1 0.1 0.1 0.1 0.1 0.1 0.1 l -0.05,0.1 v 0.1 0.1 0.1 0.15 0.1 0.1 0.1 0.1 0.1 0.1 0.1 0.1 0.1 0.1 0.1 0.1 0.1 0.1 0.15 0.1 0.1 0.1 0.1 0.1 0.1 0.1 0.1 0.1 0.1 0.1 l -0.05,0.1 v 0.1 0.1 0.1 0.15 0.1 0.1 0.1 0.1 0.1 0.1 0.1 0.1 0.1 0.1 0.1 0.1 0.1 0.1 0.15 l -0.05,0.1 v 0.1 0.1 0.1 0.1 0.1 0.1 0.1 0.1 0.1 0.1 0.1 0.1 0.1 0.15 0.1 0.1 0.1 0.1 0.1 0.1 0.1 0.1 l -0.05,0.1 v 0.1 0.1 0.1 0.1 0.1 0.1 0.15 0.1 0.1 0.1 0.1 0.1 0.1 L 54.05,30 v 0.1 0.1 0.1 0.1 0.1 0.1 0.1 0.15 0.1 0.1 0.1 0.1 0.1 0.1 0.1 0.1 0.1 0.1 0.1 0.1 L 54,32.15 v 0.1 0.1 0.15 0.1 0.1 0.1 0.1 L 53.95,33 v 0.1 0.1 0.1 0.1 0.1 0.1 0.1 0.1 0.1 0.15 0.1 l -0.05,0.1 v 0.1 0.1 0.1 0.1 l -0.05,0.1 v 0.1 0.1 0.1 0.1 0.1 0.1 l -0.05,0.1 v 0.15 0.1 l -0.05,0.1 v 0.1 0.1 0.1 0.1 0.1 0.1 l -0.05,0.1 v 0.1 0.1 l -0.05,0.1 v 0.1 0.1 0.1 0.15 l -0.05,0.1 v 0.1 0.1 0.1 0.1 0.1 0.1 l -0.05,0.1 v 0.1 l 0.05,0.1 v 0.1 0.1 l 0.05,0.1 v 0.1 L 53.6,38.8 v 0.1 0.1 0.1 0.1 0.1 0.1 l -0.05,0.1 v 0.1 0.1 0.1 l -0.05,0.1 v 0.1 0.1 0.1 0.1 0.15 0.1 l -0.05,0.1 -0.1,0.1 -0.1,0.1 -0.25,0.05 -0.2,-0.05 -0.15,-0.1 -0.05,-0.1 -0.05,-0.1 -0.05,-0.1 V 40.3 40.2 40.1 40 39.9 39.8 L 52.45,39.7 V 39.6 39.5 L 52.4,39.4 V 39.3 39.2 39.1 39 38.9 38.8 l -0.05,-0.15 -0.05,-0.1 -0.05,-0.1 -0.05,-0.1 v -0.1 -0.1 -0.1 -0.1 l -0.05,-0.1 v -0.1 -0.1 -0.1 l -0.05,-0.1 v -0.1 -0.1 L 52.05,37.1 V 37 36.9 36.8 36.7 36.6 36.5 L 52,36.4 V 36.3 36.2 L 51.95,36.1 V 36 35.9 35.8 35.7 35.6 35.45 l -0.05,-0.1 v -0.1 -0.1 l -0.05,-0.1 v -0.1 -0.1 -0.1 -0.1 -0.1 -0.1 -0.1 -0.1 l -0.05,-0.1 v -0.1 -0.15 -0.1 -0.1 l -0.05,-0.1 v -0.1 -0.1 -0.1 -0.1 -0.1 -0.1 -0.1 -0.1 -0.1 -0.1 -0.1 -0.15 -0.1 -0.1 l -0.05,-0.1 v -0.1 -0.1 -0.1 -0.1 -0.1 -0.1 -0.1 -0.1 -0.1 l -0.05,-0.1 v -0.1 -0.1 -0.15 -0.1 -0.1 -0.1 -0.1 -0.1 -0.1 -0.1 -0.1 -0.1 -0.1 -0.1 -0.1 -0.1 -0.1 -0.15 -0.1 -0.1 -0.1 -0.1 -0.1 -0.1 l -0.05,-0.1 v -0.1 -0.1 -0.1 -0.1 -0.1 -0.1 -0.1 -0.1 -0.15 -0.1 L 51.55,27.3 V 27.2 27.1 27 26.9 26.8 26.7 26.6 26.5 26.4 26.3 26.2 26.1 L 51.5,25.95 v -0.1 -0.1 -0.1 -0.1 -0.1 -0.1 -0.1 -0.1 -0.1 -0.1 -0.1 -0.1 -0.1 -0.1 V 24.4 24.3 24.2 24.1 24 23.9 23.8 23.7 23.6 23.5 23.4 23.3 23.2 23.1 23 v -0.1 -0.15 -0.1 -0.1 -0.1 -0.1 -0.1 -0.1 -0.1 -0.1 -0.1 -0.1 -0.1 -0.1 -0.1 -0.1 V 21.2 21.1 21 20.9 l -0.05,-0.1 v -0.1 -0.1 -0.1 -0.1 -0.1 -0.1 -0.1 -0.1 -0.1 -0.1 -0.1 -0.15 -0.1 -0.1 -0.1 -0.1 -0.1 -0.1 -0.1 -0.1 l -0.05,-0.1 v -0.1 -0.1 -0.1 -0.1 -0.1 V 18 17.9 17.8 17.7 17.6 17.5 17.4 17.3 17.2 17.1 17 v -0.1 -0.1 -0.1 -0.1 -0.15 -0.1 -0.1 -0.1 -0.1 l -0.05,-0.1 v -0.1 -0.1 -0.1 -0.1 -0.1 -0.1 -0.1 -0.1 -0.1 -0.1 -0.15 -0.1 -0.1 -0.1 -0.1 -0.1 L 51.3,14.2 v -0.1 -0.1 -0.1 -0.1 -0.1 -0.1 -0.1 -0.1 -0.15 -0.1 -0.1 -0.1 -0.1 -0.1 -0.1 -0.1 -0.1 -0.1 -0.1 -0.1 -0.1 -0.1 -0.1 -0.1 V 11.6 11.5 11.4 11.3 11.2 11.1 11 10.9 10.8 10.7 10.6 10.5 10.4 10.3 10.2 10.05 9.95 L 51.9,9.7 Q 52.35,9.25 52.05,8.6 L 51.4,7.65 51.3,7.55 V 7.5 L 51.25,7.4 V 7.3 7.2 7.15 L 51.2,7.25 V 7.35 7.4 L 49.65,5.2 49.2,4.5 48.85,3.7 48.15,3.2 h -0.2 -0.15 q -0.4,0 -0.7,0.5 L 46.75,4.5 46.3,5.2 44.8,7.3 m 6.4,2.65 v 0.1 0.1 0.1 0.1 l -0.05,0.1 v 0.1 0.1 0.1 0.1 0.1 0.1 l -0.05,0.1 v 0.15 0.1 0.1 0.1 0.1 0.1 0.1 0.1 0.1 0.1 0.1 0.1 0.1 0.1 0.1 0.15 0.1 0.1 0.1 0.1 0.1 0.1 0.1 0.1 0.1 0.1 0.1 0.1 l -0.05,0.1 v 0.1 0.15 0.1 0.1 0.1 0.1 0.1 0.1 0.1 0.1 L 51,15.3 v 0.1 0.1 0.1 0.1 0.1 0.1 l -0.05,0.15 v 0.1 0.1 0.1 0.1 0.1 0.1 0.1 0.1 0.1 0.1 l -0.05,0.1 v 0.1 0.1 0.1 0.15 0.1 0.1 0.1 L 50.85,18 v 0.1 0.1 0.1 0.1 0.1 0.1 0.1 l -0.05,0.1 v 0.1 0.1 0.1 0.15 l -0.05,0.1 v 0.1 0.1 0.1 0.1 0.1 0.1 0.1 0.1 0.1 0.1 0.1 0.1 0.1 0.15 0.1 0.1 0.1 0.1 0.1 0.1 0.1 0.1 0.1 0.1 0.1 0.1 0.1 0.1 l -0.05,0.15 v 0.1 0.1 0.1 0.1 0.1 0.1 0.1 0.1 0.1 0.1 0.1 0.1 0.1 l -0.05,0.1 v 0.1 0.15 0.1 0.1 0.1 0.1 0.1 0.1 0.1 0.1 0.1 0.1 l -0.05,0.1 v 0.1 0.1 0.1 0.15 0.1 0.1 0.1 0.1 0.1 0.1 0.1 0.1 0.1 0.1 l -0.05,0.1 v 0.1 0.1 0.1 0.1 0.15 0.1 0.1 0.1 0.1 0.1 0.1 0.1 0.1 0.1 0.1 0.1 0.1 0.1 0.1 0.15 0.1 0.1 0.1 0.1 0.1 0.1 0.1 0.1 0.1 0.1 0.1 0.1 0.1 0.1 0.15 0.1 0.1 0.1 0.1 0.1 0.1 0.1 l -0.05,0.1 v 0.1 l -0.05,0.1 v 0.1 0.1 l -0.05,0.1 v 0.1 0.1 0.15 0.1 0.1 l -0.05,0.1 v 0.1 0.1 0.1 0.1 0.1 0.1 0.1 0.1 l -0.05,0.1 v 0.1 0.1 0.15 0.1 0.1 0.1 0.1 0.1 0.1 0.1 0.1 0.1 0.1 0.1 0.1 0.1 0.1 L 50.25,35 v 0.15 0.1 0.1 0.1 0.1 0.1 0.1 0.1 0.1 0.1 0.1 0.1 0.1 0.1 l -0.05,0.1 v 0.15 0.1 0.1 0.1 0.1 0.1 0.1 0.1 0.1 0.1 0.1 0.1 0.1 0.1 0.1 0.15 0.1 0.1 0.1 0.1 l -0.05,0.1 v 0.1 0.1 0.1 0.1 0.1 0.1 0.1 0.1 l -0.05,0.1 v 0.1 0.15 0.1 0.1 0.1 0.1 0.1 0.1 0.1 0.1 0.1 0.1 0.1 0.1 0.1 0.1 0.15 0.1 0.1 0.1 0.1 0.1 0.1 0.1 0.1 0.1 0.1 0.1 l -0.05,0.1 v 0.1 0.1 0.1 0.15 0.1 0.1 0.1 0.1 0.1 0.1 0.1 0.1 0.1 0.1 0.1 0.1 0.1 0.1 0.15 0.1 0.1 0.1 L 50,45.05 v 0.1 0.1 0.1 0.1 0.1 0.1 0.1 0.1 0.1 0.1 0.15 0.1 0.1 0.1 0.1 l -0.05,0.1 v 0.1 0.1 0.1 0.1 l -0.05,0.1 v 0.1 0.1 0.1 0.1 0.1 l -0.05,0.15 v 0.1 0.1 0.1 0.1 0.1 0.1 0.1 0.1 0.1 l -0.05,0.1 v 0.1 0.1 0.1 0.1 l -0.05,0.15 v 0.1 0.1 0.1 0.1 0.1 L 49.7,50 v 0.1 0.1 l -0.05,0.1 v 0.1 0.1 0.1 l -0.05,0.1 v 0.1 l -0.05,0.1 -0.05,0.15 -0.05,0.1 L 49.3,51.2 49.15,51.15 49.1,51.05 49.05,50.9 49,50.8 V 50.7 50.6 L 48.95,50.5 48.9,50.4 V 50.3 50.2 L 48.85,50.1 V 50 49.9 49.8 49.7 L 48.8,49.6 v -0.1 -0.1 l -0.05,-0.15 v -0.1 -0.1 -0.1 -0.1 -0.1 -0.1 -0.1 -0.1 -0.1 -0.1 l -0.05,-0.1 v -0.1 -0.1 -0.1 -0.15 L 48.65,47.6 V 47.5 47.4 47.3 47.2 47.1 47 46.9 46.8 46.7 46.6 L 48.6,46.5 v -0.1 -0.1 -0.1 l -0.05,-0.15 v -0.1 -0.1 -0.1 -0.1 -0.1 -0.1 -0.1 -0.1 -0.1 -0.1 -0.1 -0.1 -0.1 -0.1 -0.15 -0.1 -0.1 -0.1 -0.1 -0.1 -0.1 -0.1 -0.1 -0.1 -0.1 -0.1 -0.1 -0.1 -0.1 -0.15 -0.1 -0.1 -0.1 l -0.05,-0.1 v -0.1 -0.1 -0.1 -0.1 -0.1 -0.1 -0.1 -0.1 -0.1 -0.1 -0.1 V 41.3 41.2 41.1 41 40.9 l -0.05,-0.1 v -0.1 -0.1 -0.1 -0.1 -0.1 -0.1 -0.1 -0.1 -0.1 -0.15 -0.1 -0.1 -0.1 -0.1 -0.1 -0.1 -0.1 -0.1 -0.1 -0.1 -0.1 l -0.05,-0.1 v -0.1 -0.1 -0.1 V 38.1 38 37.9 L 48.35,37.8 V 37.7 37.6 37.5 37.4 37.3 37.2 37.1 37 36.9 36.8 36.7 36.55 36.45 l -0.05,-0.1 v -0.1 -0.1 -0.1 -0.1 -0.1 -0.1 -0.1 -0.1 -0.1 -0.1 -0.1 -0.1 V 35 34.9 34.8 34.7 34.6 34.5 34.4 34.3 34.2 34.1 34 33.9 l -0.05,-0.1 v -0.1 -0.1 -0.1 -0.15 -0.1 -0.1 l -0.05,-0.1 v -0.1 -0.1 -0.1 -0.1 -0.1 -0.1 -0.1 -0.1 -0.1 -0.1 -0.1 -0.15 -0.1 -0.1 L 48.15,31.5 48.1,31.4 V 31.3 31.2 31.1 31 l -0.05,-0.1 v -0.1 -0.1 -0.1 -0.1 -0.1 -0.1 -0.15 -0.1 -0.1 -0.1 -0.1 -0.1 -0.1 -0.1 L 48,29.35 v -0.1 -0.1 -0.1 -0.1 -0.1 -0.1 -0.15 -0.1 -0.1 -0.1 -0.1 -0.1 -0.1 -0.1 -0.1 -0.1 -0.1 -0.1 -0.1 -0.1 -0.1 -0.15 -0.1 -0.1 -0.1 -0.1 -0.1 -0.1 -0.1 -0.1 -0.1 -0.1 -0.1 -0.1 -0.1 -0.1 -0.1 V 25.4 25.3 25.2 25.1 25 L 47.95,24.9 V 24.8 24.7 24.6 24.5 24.4 24.3 L 47.9,24.2 v -0.1 -0.1 -0.15 -0.1 -0.1 -0.1 -0.1 -0.1 -0.1 -0.1 -0.1 -0.1 -0.1 -0.1 -0.1 -0.1 -0.1 -0.1 -0.15 L 47.85,22.1 V 22 21.9 21.8 21.7 21.6 21.5 21.4 21.3 21.2 21.1 21 20.9 20.8 20.65 l -0.05,-0.1 v -0.1 -0.1 -0.1 -0.1 -0.1 -0.1 -0.1 -0.1 -0.1 -0.1 -0.1 -0.1 l -0.05,-0.1 V 19.1 19 18.9 18.8 18.7 18.6 18.5 18.4 L 47.7,18.3 V 18.2 18.1 18 17.9 l -0.05,-0.1 v 0.1 0.1 0.15 0.1 0.1 0.1 0.1 0.1 0.1 0.1 0.1 0.1 0.1 0.1 0.1 0.1 0.1 0.15 0.1 0.1 L 47.6,20 v 0.1 0.1 0.1 0.1 0.1 l -0.05,0.1 v 0.1 0.1 0.1 0.1 0.1 0.1 0.15 0.1 0.1 0.1 0.1 0.1 0.1 0.1 0.1 0.1 0.1 0.1 0.1 0.1 0.1 0.15 0.1 0.1 0.1 0.1 l -0.05,0.1 v 0.1 0.1 0.1 0.1 0.1 0.1 0.1 0.1 0.1 0.1 0.15 0.1 l -0.05,0.1 v 0.1 0.1 0.1 0.1 0.1 0.1 0.1 0.1 0.1 0.1 0.1 0.1 0.15 0.1 0.1 0.1 0.1 0.1 0.1 l -0.05,0.1 v 0.1 0.1 0.1 0.1 0.1 0.1 0.1 0.15 0.1 0.1 0.1 0.1 0.1 0.1 0.1 l -0.05,0.1 v 0.1 0.1 0.1 0.1 0.1 0.1 0.1 0.15 0.1 0.1 0.1 0.1 0.1 0.1 0.1 0.1 0.1 l -0.05,0.1 v 0.1 0.1 0.1 0.1 0.15 0.1 0.1 0.1 0.1 0.1 0.1 0.1 0.1 0.1 0.1 0.1 0.1 0.1 l -0.05,0.1 v 0.1 0.15 0.1 0.1 0.1 0.1 0.1 0.1 0.1 0.1 0.1 0.1 0.1 0.1 0.1 0.1 0.15 0.1 0.1 0.1 0.1 0.1 0.1 0.1 0.1 0.1 0.1 0.1 l -0.05,0.1 v 0.1 0.1 0.15 0.1 0.1 0.1 0.1 0.1 0.1 0.1 0.1 0.1 0.1 0.1 0.1 0.1 0.1 0.1 0.15 0.1 0.1 0.1 0.1 0.1 0.1 l -0.05,0.1 v 0.1 0.1 0.1 0.1 0.1 0.1 0.1 0.15 0.1 L 47.1,39 v 0.1 0.1 0.1 0.1 0.1 0.1 0.1 0.1 0.1 0.1 0.1 0.1 0.1 0.15 0.1 0.1 l -0.05,0.1 v 0.1 0.1 0.1 0.1 0.1 0.1 0.1 0.1 0.1 0.1 L 47,41.85 v 0.15 0.1 0.1 0.1 0.1 0.1 0.1 0.1 0.1 0.1 0.1 0.1 0.1 l -0.05,0.1 v 0.1 0.15 0.1 0.1 0.1 0.1 l -0.05,0.1 v 0.1 0.1 0.1 0.1 0.1 0.1 0.1 0.1 l -0.05,0.1 v 0.1 0.15 0.1 l -0.05,0.1 v 0.1 0.1 l -0.05,0.1 v 0.1 0.1 0.1 0.1 0.1 0.1 0.1 0.1 0.1 l 0.05,0.15 v 0.1 0.1 0.1 l 0.05,0.1 v 0.1 0.1 l -0.05,0.1 -0.05,0.1 -0.05,0.1 -0.1,0.1 -0.2,0.1 L 46.25,47.8 46.2,47.75 46.1,47.7 46.05,47.6 46,47.5 v -0.1 l -0.05,-0.1 v -0.15 -0.1 -0.1 l -0.05,-0.1 v -0.1 l -0.05,-0.1 -0.05,-0.1 v -0.1 -0.1 -0.1 -0.1 l -0.05,-0.1 v -0.1 -0.1 -0.1 -0.15 L 45.7,45.5 V 45.4 L 45.65,45.3 V 45.2 45.1 45 44.9 44.8 44.7 44.6 44.5 44.4 L 45.6,44.3 v -0.1 -0.1 -0.15 l -0.05,-0.1 v -0.1 -0.1 -0.1 -0.1 -0.1 -0.1 -0.1 -0.1 -0.1 -0.1 -0.1 L 45.5,42.65 V 42.55 42.4 42.3 42.2 42.1 42 41.9 41.8 l -0.05,-0.1 v -0.1 -0.1 -0.1 -0.1 -0.1 -0.1 -0.1 -0.1 -0.15 -0.1 -0.1 -0.1 -0.1 -0.1 -0.1 -0.1 -0.1 -0.1 -0.1 -0.1 -0.1 L 45.4,39.45 V 39.35 39.2 39.1 39 38.9 l -0.05,-0.1 v -0.1 -0.1 -0.1 -0.1 -0.1 -0.1 -0.1 -0.1 -0.1 -0.1 -0.15 -0.1 -0.1 -0.1 -0.1 -0.1 -0.1 -0.1 -0.1 -0.1 l -0.05,-0.1 v -0.1 -0.1 -0.1 -0.1 -0.1 V 36 35.9 35.8 35.7 35.6 35.5 35.4 35.3 35.2 l -0.05,-0.1 v -0.1 -0.1 -0.1 -0.1 -0.1 -0.15 -0.1 -0.1 -0.1 -0.1 -0.1 -0.1 -0.1 -0.1 -0.1 -0.1 -0.1 -0.1 -0.1 -0.1 -0.1 -0.15 -0.1 -0.1 -0.1 -0.1 -0.1 -0.1 -0.1 -0.1 -0.1 -0.1 -0.1 -0.1 -0.1 -0.1 -0.15 -0.1 -0.1 -0.1 -0.1 -0.1 -0.1 -0.1 -0.1 -0.1 -0.1 l -0.05,-0.1 v -0.1 -0.1 -0.1 -0.15 -0.1 L 45.15,29.5 V 29.4 29.3 29.2 29.1 29 28.9 28.8 28.7 28.6 28.5 28.4 L 45.1,28.3 v -0.1 -0.15 -0.1 -0.1 -0.1 -0.1 -0.1 -0.1 -0.1 -0.1 -0.1 -0.1 -0.1 -0.1 -0.1 -0.1 V 26.5 26.4 26.3 26.2 26.1 26 25.9 25.8 25.7 L 45.05,25.6 V 25.5 25.4 25.3 25.2 25.1 25 24.85 24.75 24.65 L 45,24.55 v -0.1 -0.1 -0.1 -0.1 -0.1 -0.1 -0.1 -0.1 -0.1 -0.1 -0.1 V 23.3 23.2 23.1 23 22.9 22.8 22.7 22.6 22.5 22.4 22.3 22.2 22.1 22 21.9 21.75 l -0.05,-0.1 v -0.1 -0.1 -0.1 -0.1 -0.1 -0.1 -0.1 -0.1 -0.1 -0.1 -0.1 L 44.9,20.45 V 20.35 20.25 20.1 20 19.9 19.8 19.7 19.6 19.5 19.4 19.3 19.2 l -0.05,-0.1 v -0.1 -0.1 -0.1 -0.1 -0.15 -0.1 -0.1 -0.1 -0.1 -0.1 -0.1 -0.1 -0.1 -0.1 -0.1 -0.1 -0.1 -0.1 -0.1 -0.1 -0.15 L 44.8,16.8 v -0.1 -0.1 -0.1 -0.1 -0.1 -0.1 -0.1 -0.1 -0.1 -0.1 -0.1 -0.1 -0.1 -0.15 -0.1 -0.1 -0.1 -0.1 -0.1 -0.1 -0.1 -0.1 -0.1 -0.1 -0.1 -0.1 -0.1 -0.1 -0.15 -0.1 -0.1 -0.1 -0.1 -0.1 -0.1 -0.1 -0.1 -0.1 -0.1 -0.1 -0.1 -0.1 -0.1 -0.1 -0.15 -0.1 -0.1 -0.1 -0.1 -0.1 -0.1 -0.1 -0.1 -0.1 -0.1 -0.1 -0.1 -0.1 -0.1 V 10.6 10.5 10.4 10.3 10.2 10.1 10 9.95 H 45 l 1.35,-0.15 -0.05,1.35 0.05,0.8 -0.15,1.3 -0.05,0.2 0.1,0.6 q 0.3,0.45 1.25,0.45 h 0.95 q 0.95,0 1.25,-0.45 l 0.05,-0.6 v -0.2 L 49.6,11.95 49.65,11.15 49.5,9.8 50.95,9.95 H 51.2 M 44.15,9.8 v 0.05 0.1 0.1 0.15 0.1 0.1 0.1 0.1 0.1 0.1 0.1 0.1 0.1 0.1 0.1 l -0.05,0.1 v 0.1 0.1 0.15 0.1 0.1 0.1 0.1 0.1 0.1 0.1 0.1 0.1 0.1 0.1 0.1 0.1 0.1 l -0.05,0.1 v 0.15 0.1 0.1 L 44,13.7 v 0.1 0.1 0.1 0.1 0.1 0.1 0.1 0.1 0.1 0.1 0.1 0.15 0.1 0.1 0.1 0.1 0.1 0.1 l -0.05,0.1 v 0.1 0.1 0.1 0.1 0.1 0.1 l -0.05,0.1 v 0.1 0.15 0.1 0.1 0.1 0.1 0.1 0.1 0.1 0.1 0.1 0.1 0.1 l -0.05,0.1 v 0.1 0.1 0.15 0.1 0.1 0.1 0.1 0.1 0.1 0.1 0.1 0.1 0.1 0.1 0.1 0.1 0.1 0.15 0.1 0.1 0.1 0.1 0.1 0.1 0.1 0.1 0.1 0.1 0.1 0.1 0.1 0.1 0.1 0.15 l -0.05,0.1 v 0.1 0.1 0.1 0.1 0.1 0.1 0.1 0.1 0.1 0.1 0.1 0.1 0.1 0.15 0.1 0.1 0.1 0.1 0.1 0.1 0.1 0.1 0.1 0.1 0.1 0.1 0.1 0.1 l -0.05,0.1 v 0.15 0.1 0.1 0.1 0.1 0.1 0.1 0.1 0.1 0.1 0.1 l -0.05,0.1 v 0.1 0.1 0.1 0.15 0.1 0.1 0.1 0.1 0.1 0.1 0.1 0.1 0.1 0.1 0.1 0.1 0.1 0.1 0.15 0.1 0.1 0.1 0.1 0.1 0.1 0.1 0.1 0.1 0.1 0.1 l -0.05,0.1 v 0.1 0.1 0.1 0.15 0.1 l -0.05,0.1 v 0.1 0.1 0.1 l -0.05,0.1 v 0.1 0.1 0.1 0.1 0.1 0.1 0.1 l -0.05,0.1 v 0.15 0.1 l -0.05,0.1 v 0.1 0.1 0.1 0.1 0.1 l -0.05,0.1 v 0.1 0.1 l -0.05,0.1 v 0.1 0.1 0.1 0.1 L 43.3,32.5 v 0.1 l -0.05,0.1 v 0.1 0.1 0.1 l -0.05,0.1 -0.05,0.1 -0.15,0.1 -0.2,0.05 h -0.1 l -0.1,-0.1 -0.1,-0.1 -0.05,-0.1 v -0.1 l -0.05,-0.1 -0.05,-0.1 v -0.1 -0.1 -0.1 l -0.05,-0.1 v -0.1 l -0.05,-0.1 v -0.1 -0.1 -0.15 -0.1 -0.1 L 42.2,31.5 V 31.4 31.3 L 42.15,31.2 V 31.1 31 30.9 30.8 30.7 L 42.1,30.6 v -0.1 -0.1 -0.1 -0.15 l -0.05,-0.1 v -0.1 -0.1 -0.1 -0.1 -0.1 -0.1 L 42,29.35 v -0.1 -0.1 -0.1 -0.1 -0.1 l -0.05,-0.1 V 28.6 28.5 28.4 28.3 28.2 28.1 28 27.9 27.8 27.7 27.6 27.5 27.4 L 41.9,27.3 v -0.1 -0.15 -0.1 -0.1 -0.1 -0.1 -0.1 -0.1 -0.1 -0.1 -0.1 -0.1 -0.1 -0.1 -0.1 -0.1 -0.1 V 25.4 25.3 25.2 25.1 25 24.9 24.8 24.7 24.6 24.5 24.4 l -0.05,-0.1 v -0.1 -0.1 -0.1 -0.15 -0.1 -0.1 -0.1 l -0.05,-0.1 v -0.1 -0.1 -0.1 -0.1 -0.1 -0.1 -0.1 -0.1 -0.1 -0.1 -0.1 V 22.2 22.1 22 21.9 21.8 21.7 21.6 21.5 21.4 21.3 21.2 21.1 21 v -0.1 -0.1 -0.15 -0.1 -0.1 -0.1 -0.1 -0.1 -0.1 -0.1 -0.1 -0.1 -0.1 -0.1 -0.1 -0.1 -0.1 V 19.1 19 18.9 18.8 18.7 18.6 18.5 18.4 18.3 18.2 18.1 18 17.9 17.8 17.7 l -0.05,-0.1 v -0.15 -0.1 -0.1 -0.1 -0.1 -0.1 -0.1 -0.1 -0.1 l -0.05,-0.1 v -0.1 -0.1 -0.1 -0.1 -0.1 -0.15 -0.1 -0.1 -0.1 L 41.65,15.5 V 15.4 15.3 15.2 15.1 15 14.9 14.8 14.7 14.6 14.5 14.4 L 41.6,14.25 v -0.1 -0.1 -0.1 -0.1 -0.1 -0.1 -0.1 -0.1 -0.1 -0.1 -0.1 l -0.05,-0.1 v -0.1 -0.1 -0.15 -0.1 -0.1 -0.1 -0.1 -0.1 -0.1 L 41.5,12 v -0.1 -0.1 -0.1 -0.1 -0.1 -0.1 -0.1 l -0.05,-0.15 v -0.1 -0.1 -0.1 -0.1 -0.1 -0.1 -0.1 -0.1 -0.1 -0.1 -0.1 V 9.95 9.85 9.75 9.65 9.5 9.4 9.3 9.2 9.1 9 8.9 8.8 8.7 8.6 8.5 8.4 8.3 8.2 8.1 7.95 7.85 7.75 7.65 7.55 L 41.4,7.45 V 7.35 7.25 7.15 7.05 6.95 6.85 6.75 6.65 6.55 6.45 6.3 6.2 6.1 6 5.9 5.8 5.7 5.6 5.5 5.4 5.3 5.2 L 41.35,5.1 V 5 4.9 4.75 4.65 4.55 4.45 4.35 4.25 4.15 4.05 3.95 3.85 3.75 3.65 3.55 3.45 3.35 3.2 3.1 3 2.9 2.8 2.7 2.6 2.5 2.4 2.3 2.2 2.1 2 1.9 1.8 1.7 1.55 1.45 1.35 1.25 1.15 1.05 0.95 0.85 0.75 0.65 0.55 0.45 0.35 0.3 h 2.9 v 0.05 0.1 l 0.05,0.1 V 0.7 0.8 0.9 1 1.1 1.2 1.3 1.4 1.5 1.6 l -0.05,0.1 v 0.1 0.1 0.1 0.1 0.15 0.1 0.1 0.1 0.1 0.1 0.1 0.1 0.1 0.1 0.1 0.1 0.1 0.1 0.1 V 3.8 3.9 4 4.1 4.2 4.3 4.4 4.5 4.6 4.7 4.8 4.9 5 v 0.1 0.1 0.1 0.15 0.1 0.1 0.1 0.1 0.1 0.1 0.1 0.1 0.1 0.1 0.1 0.1 0.1 0.1 V 7 7.1 7.2 7.3 7.4 7.5 L 44.2,7.6 V 7.7 7.8 7.9 8 8.1 l -0.3,0.5 q -0.3,0.65 0.15,1.1 l 0.1,0.1 M 39.5,0.3 h 0.6 l 0.15,0.1 0.1,0.1 0.1,0.1 0.05,0.1 0.05,0.1 V 0.9 L 40.6,1 v 0.15 0.1 0.1 0.1 0.1 0.1 0.1 0.1 0.1 0.1 0.1 0.1 0.1 0.1 0.1 0.1 V 2.8 2.9 3 3.1 L 40.55,3.2 V 3.3 3.4 3.5 3.6 3.7 3.8 3.9 4 4.1 L 40.5,4.2 v 0.15 0.1 0.1 0.1 0.1 0.1 0.1 0.1 l -0.05,0.1 v 0.1 0.1 0.1 0.1 0.1 0.1 L 40.4,5.85 V 6 6.1 6.2 6.3 6.4 6.5 6.6 6.7 l -0.05,0.1 v 0.1 0.1 0.1 0.1 0.1 0.1 0.15 0.1 0.1 0.1 0.1 0.1 0.1 0.1 0.1 0.1 0.1 l -0.05,0.1 v 0.1 0.1 0.1 0.15 0.1 0.1 0.1 0.1 0.1 0.1 0.1 0.1 0.1 l -0.05,0.1 v 0.1 0.1 0.1 0.1 0.1 0.15 0.1 0.1 0.1 0.1 0.1 0.1 0.1 0.1 0.1 0.1 0.1 0.1 0.1 0.1 L 40.2,12.3 v 0.1 0.1 0.1 0.1 l -0.05,0.1 v 0.1 0.1 0.1 0.1 0.1 0.1 0.1 0.1 0.1 0.1 0.15 0.1 0.1 0.1 0.1 0.1 l -0.05,0.1 v 0.1 0.1 0.1 0.1 0.1 0.1 0.1 0.1 0.15 0.1 0.1 0.1 0.1 0.1 0.1 l -0.05,0.1 v 0.1 0.1 0.1 0.1 0.1 0.1 0.1 0.15 0.1 0.1 0.1 0.1 0.1 0.1 0.1 0.1 0.1 0.1 0.1 0.1 0.1 0.1 L 40,18.55 39.9,18.7 h -0.2 l -0.1,-0.15 v -0.1 l -0.05,-0.1 v -0.1 -0.1 -0.1 -0.1 -0.1 -0.1 -0.1 -0.1 l -0.05,-0.1 v -0.1 -0.1 -0.1 -0.1 -0.15 -0.1 -0.1 -0.1 -0.1 -0.1 -0.1 -0.1 -0.1 -0.1 -0.1 -0.1 -0.1 -0.1 -0.1 -0.15 -0.1 -0.1 -0.1 -0.1 -0.1 -0.1 -0.1 -0.1 -0.1 l -0.05,-0.1 v -0.1 -0.1 -0.1 -0.1 -0.15 -0.1 -0.1 -0.1 -0.1 L 39.4,13.3 V 13.2 13.1 13 12.9 12.8 12.7 12.6 12.5 12.4 12.3 12.15 l -0.05,-0.1 v -0.1 -0.1 -0.1 -0.1 -0.1 -0.1 -0.1 l -0.05,-0.1 v -0.1 -0.1 -0.1 -0.1 -0.1 -0.15 -0.1 -0.1 -0.1 -0.1 -0.1 L 39.25,10 V 9.9 9.8 9.7 9.6 9.5 9.4 9.3 9.2 9.1 8.95 8.85 8.75 8.65 8.55 8.45 8.35 8.25 8.15 8.05 7.95 7.85 7.75 L 39.2,7.65 V 7.55 7.4 7.3 7.2 7.1 7 6.9 6.8 6.7 L 39.15,6.6 V 6.5 6.4 6.3 6.2 6.1 6 5.85 5.75 5.65 5.55 5.45 5.35 5.25 5.15 5.05 L 39.1,4.95 V 4.85 4.75 4.65 4.55 L 39.05,4.45 V 4.35 4.2 4.1 4 3.9 3.8 3.7 3.6 3.5 3.4 3.3 3.2 L 39,3.1 V 3 2.9 2.8 2.65 2.55 2.45 2.35 2.25 2.15 2.05 1.95 1.85 1.75 1.65 1.55 1.45 1.35 1.25 1.15 L 39.05,1 V 0.9 0.8 L 39.1,0.7 39.15,0.6 39.2,0.5 39.35,0.4 39.5,0.3 M 19.1,8.05 20.45,8.2 20.4,6.85 20.45,6.05 20.3,4.75 20.25,4.55 20.35,3.95 Q 20.65,3.5 21.6,3.5 h 0.95 q 0.95,0 1.25,0.45 l 0.05,0.6 v 0.2 L 23.7,6.05 23.75,6.85 23.6,8.2 25.05,8.05 26,8.3 q 0.45,0.45 0.15,1.1 l -0.65,0.95 -1.75,2.45 -0.45,0.7 -0.35,0.8 q -0.3,0.5 -0.7,0.5 H 22.05 21.9 L 21.2,14.3 20.85,13.5 20.4,12.8 18.65,10.35 18,9.4 Q 17.7,8.75 18.15,8.3 18.45,8.05 19.1,8.05 m 10.1,14.3 q 0.05,2.25 -0.85,3.85 -0.8,1.45 -2.15,2.35 l 0.05,1 0.1,0.5 0.4,0.25 q 1.2,0.45 1.6,1.65 l 0.2,0.85 0.1,1.2 q -0.1,1.15 -1.6,2.5 0.3,0.4 0.2,0.95 -0.05,0.55 -0.5,0.9 L 25,38.7 l -0.55,-0.05 -0.1,0.2 -0.85,0.9 -1.15,0.15 -0.7,-0.15 Q 21,40.35 19.85,40.1 18.9,39.85 18.6,39.3 h -0.1 l -0.85,0.25 -1,0.1 -1.15,-0.25 q -0.3,-0.15 -0.55,-0.5 l -0.3,-0.6 Q 14.6,37.75 15,37.3 l -0.8,-1.1 -0.4,-0.8 -2.25,0.9 -1.35,1 0.55,-0.1 1.1,-0.1 q 0.6,0.05 1.1,0.35 0.5,0.3 0.7,0.85 0.25,0.9 -0.45,1.55 -0.6,0.55 -1.55,0.65 L 9.9,40.3 8.15,39.75 Q 7.65,39.5 7.5,39.25 7.25,38.95 7.25,38.25 L 7.35,37 7.85,36.15 q 0.9,-1.15 2.6,-2 l 3.1,-1.1 0.45,-0.1 0.3,-0.55 q 0.55,-0.8 1.3,-1.2 l 0.7,-0.6 0.1,-0.5 0.2,-0.7 0.35,-0.75 -0.9,-0.7 Q 15.05,27.1 14.5,25.9 14,24.65 14.1,23.35 l 0.5,-1.75 0.65,-1.4 0.35,-0.45 -0.4,-0.6 -0.1,-0.85 0.1,-1.2 0.6,-1.3 0.25,-0.7 0.35,-0.75 0.8,-0.45 0.9,0.25 0.5,0.65 0.65,1.25 0.5,0.65 4.4,-0.15 0.2,-0.2 1.55,-1.75 0.85,-0.9 h 0.65 l 0.55,0.4 0.2,0.8 0.35,1.15 0.25,1.15 0.05,0.8 0.1,1.5 0.05,0.65 v 0.15 l 0.25,2.05"
         fill="#999999"
         fill-rule="evenodd"
         stroke="none"
         id="path6" />
    </g>
    <g
       id="shape2"
       transform="translate(1.5,1.5)">
      <path
         d="M 0,23.8 V 0 H 64.1 V 23.8 57.55 H 0 Z"
         fill="none"
         stroke="#000000"
         stroke-linecap="round"
         stroke-linejoin="round"
         stroke-width="3"
         id="path7" />
    </g>
  </defs>
</svg>
