<?xml version="1.0" encoding="UTF-8" standalone="no"?>
<svg
   ffdec:objectType="frame"
   height="60.549999"
   width="67.099998"
   version="1.1"
   id="svg6"
   sodipodi:docname="671.svg"
   xmlns:inkscape="http://www.inkscape.org/namespaces/inkscape"
   xmlns:sodipodi="http://sodipodi.sourceforge.net/DTD/sodipodi-0.dtd"
   xmlns:xlink="http://www.w3.org/1999/xlink"
   xmlns="http://www.w3.org/2000/svg"
   xmlns:svg="http://www.w3.org/2000/svg"
   xmlns:ffdec="https://www.free-decompiler.com/flash">
  <sodipodi:namedview
     id="namedview6"
     pagecolor="#ffffff"
     bordercolor="#000000"
     borderopacity="0.25"
     inkscape:showpageshadow="2"
     inkscape:pageopacity="0.0"
     inkscape:pagecheckerboard="0"
     inkscape:deskcolor="#d1d1d1"
     fit-margin-top="5"
     fit-margin-left="5"
     fit-margin-right="5"
     fit-margin-bottom="5" />
  <g
     transform="translate(1.5,1.5)"
     id="g3">
    <use
       ffdec:characterId="516"
       height="57.549999"
       width="64.099998"
       xlink:href="#shape0"
       id="use1" />
    <use
       ffdec:characterId="1162"
       height="57.700001"
       transform="translate(-0.25,-0.35)"
       width="63.650002"
       xlink:href="#shape1"
       id="use2" />
    <use
       ffdec:characterId="518"
       height="60.549999"
       transform="translate(-1.5,-1.5)"
       width="67.099998"
       xlink:href="#shape2"
       id="use3" />
  </g>
  <defs
     id="defs6">
    <g
       id="shape0">
      <path
         d="M 53.6,0 H 64.1 V 57.55 H 53.6 28.25 0 V 0 H 28.25 53.6 V 57.55 0 M 28.25,0 V 57.55 0"
         fill="#ffffff"
         fill-rule="evenodd"
         stroke="none"
         id="path3" />
    </g>
    <g
       id="shape1"
       transform="translate(0.25,0.35)">
      <path
         d="M 0.75,40.4 Q 0.2,40.5 0,39.9 v -1 L 0.75,35.65 Q 2.1,29.9 3.45,26.85 L 5.4,22.9 q 3.95,-6.95 9,-13.5 L 16.35,7.1 14.2,9.15 10.95,13 q -4,5 -5.65,7.75 L 4.95,20.8 Q 4.8,20.35 5.1,19.7 l 1.2,-2.55 3.6,-6.2 q 2.9,-5 5.45,-7.3 2.45,-2.3 5.8,-3.55 l 3.55,-0.2 0.9,0.7 q 3.15,-1.05 7.5,-0.9 6.95,0.45 10.3,4 1.05,1.15 2.3,3.3 1.5,2.7 2.7,5.8 L 46.15,3.85 Q 45.8,3 46.3,2.7 46.9,2.35 47.45,3.25 l 1.7,2.85 q 3.65,7.1 5.3,15.3 L 55.05,25 55,23.35 54.75,20.2 54.5,17.05 l 0.1,-0.8 q 0.2,-0.45 0.55,-0.45 0.45,0 0.75,0.65 1.85,3.55 2.6,10.1 0.95,7.7 0.4,13.25 v 0.05 l 1.25,0.2 1.55,0.15 q 0.9,0.2 1.4,0.7 l 0.3,0.6 q 0.1,0.7 -0.75,1.15 l -0.6,0.3 -2,0.25 -2.5,0.45 H 57.5 l -1,0.6 0.5,0.75 0.4,0.4 0.9,1.15 q 0.4,0.8 0.05,1.4 l -0.75,0.65 -1.05,-0.1 -0.6,-0.45 q -0.3,-0.2 -2,-0.85 l -1.2,-0.65 Q 51.9,46 51.6,45.3 h -0.4 l -0.25,1.25 -0.8,1.75 -0.35,0.8 -0.2,0.55 -0.6,0.95 -0.35,0.75 q -0.3,0.4 -0.85,0.3 -0.45,-0.1 -0.65,-0.55 L 47.05,50.5 46.85,50.05 46.65,49.4 46.5,45.15 46.55,45 H 46.5 l -1,-0.15 -0.9,0.8 -2.2,1.3 q -0.7,0.5 -1.45,0.7 l -1.5,0.4 -0.55,0.2 q -0.6,0 -0.85,-0.5 -0.15,-0.5 0.15,-0.9 l 0.3,-0.25 0.7,-1.25 1.1,-1.7 0.35,-0.25 h -0.5 L 37.6,43.1 36.95,42.95 36.1,42.9 34.05,42.7 q -0.6,-0.3 -0.65,-0.8 -0.15,-0.55 0.5,-1 0.35,-0.25 1.15,-0.45 l 0.8,-0.35 0.85,-0.2 q 0.4,-0.15 0.75,-0.35 0.9,-0.45 1.95,-0.6 L 40,38.85 40.2,31 40.1,28.3 39.95,27.2 39.9,24.45 q 0,-0.5 0.15,-0.7 l 0.45,-0.35 0.55,0.1 0.45,0.65 1.6,3.8 0.65,2.55 -0.4,-4.45 -0.5,-3.35 -1.1,-4.4 -1.1,-4.45 q -0.1,-0.8 0.2,-0.95 0.45,-0.2 1.05,0.65 l 1.5,1.75 0.4,0.55 -1.45,-3.7 Q 40.4,7.7 37.9,6.35 36.45,5.55 33.55,5.25 l -5.6,0.3 q -1.6,0.45 -4.25,2 l -2.95,2.1 q -1.3,1.05 -3.4,3.65 -4.4,5.4 -6.75,8.9 -3.45,5.1 -5.35,9.75 l -1.3,3.3 q -1.1,2.5 -2.65,4.65 l -0.55,0.5"
         fill="#999999"
         fill-rule="evenodd"
         stroke="none"
         id="path4" />
      <path
         d="M 46.65,30.3 Q 44.85,29.45 44.4,28.1 44.2,27.45 44.3,26 l 0.15,-1.15 0.4,-0.9 -0.05,-0.05 q -0.25,-0.4 -0.25,-1.35 l 0.15,-1 0.2,-0.7 q 0.4,-0.85 1.35,-0.75 0.85,0.1 1.2,0.95 l 0.1,0.55 v 0.05 l 0.3,-0.1 1.55,-0.1 1.25,0.05 0.6,0.15 0.55,-0.7 0.65,-0.6 Q 53.15,20 53.7,20.5 l 0.35,0.35 0.2,0.5 v 0.45 l 0.1,0.4 0.05,1.05 0.15,1.3 -0.1,1.35 -0.15,0.35 -0.1,0.8 Q 54,27.8 53.4,28.6 l -0.95,1.1 -1.1,0.8 0.35,1.8 0.4,2 0.1,-0.2 0.7,-0.75 1.5,-0.4 0.7,0.1 1.35,0.8 0.45,0.7 0.4,1.7 0.05,0.95 -0.45,0.7 -0.6,0.35 Q 55.75,38.4 55.15,37.9 l -0.5,-0.55 -0.1,-0.6 -0.05,-1.05 -0.1,-0.4 q -0.2,-0.3 -0.6,0 -0.2,0.2 -0.3,0.55 l -0.25,0.7 -0.2,1 -0.15,0.5 q 0.4,0.15 0.8,0.55 l 0.65,0.8 q 0.25,0.6 -0.1,1.45 -0.75,1.3 -2,1.2 -0.8,0 -1.6,-0.7 L 50.2,40.85 49,41.1 q -1.35,0.15 -2.6,-0.4 l -0.4,-0.15 -0.25,0.4 -0.95,0.6 q -1.4,0.5 -2.5,-0.35 -0.55,-0.4 -0.65,-1.1 -0.15,-0.7 0.2,-1.25 0.5,-0.85 2.3,-1.05 h 0.2 l 0.05,-1.3 0.35,-1.9 1.2,-2.5 0.65,-1.45 0.15,-0.3 -0.1,-0.05 m -46.7,19 q 4.4,-5.6 11.45,-12.95 3.05,-3.25 5.15,-4.2 1.65,-0.7 3.4,-0.7 h 0.5 l 1,-1.25 0.85,-1.15 1.65,-1.55 q 1.55,-1.35 2.55,-1.45 1.45,-0.15 2.3,1.1 0.8,1.2 0.1,2.5 l -1,1.05 -1.2,0.9 -1.65,1.3 -0.35,0.25 1.25,1.35 q 1.05,1.35 1.5,2.95 0.9,3.05 -0.6,6.25 -1.3,2.85 -4.05,4.95 l -2.35,1.6 q -6.5,4.1 -13.25,7.1 h -7.45 v -7.8 l 0.2,-0.25"
         fill="#000000"
         fill-rule="evenodd"
         stroke="none"
         id="path5" />
    </g>
    <g
       id="shape2"
       transform="translate(1.5,1.5)">
      <path
         d="M 0,23.8 V 0 H 64.1 V 23.8 57.55 H 0 Z"
         fill="none"
         stroke="#000000"
         stroke-linecap="round"
         stroke-linejoin="round"
         stroke-width="3"
         id="path6" />
    </g>
  </defs>
</svg>
