<?xml version="1.0" encoding="UTF-8" standalone="no"?>
<svg
   ffdec:objectType="frame"
   height="44.349998"
   width="78.599998"
   version="1.1"
   id="svg12"
   sodipodi:docname="353.svg"
   xmlns:inkscape="http://www.inkscape.org/namespaces/inkscape"
   xmlns:sodipodi="http://sodipodi.sourceforge.net/DTD/sodipodi-0.dtd"
   xmlns:xlink="http://www.w3.org/1999/xlink"
   xmlns="http://www.w3.org/2000/svg"
   xmlns:svg="http://www.w3.org/2000/svg"
   xmlns:ffdec="https://www.free-decompiler.com/flash">
  <sodipodi:namedview
     id="namedview12"
     pagecolor="#ffffff"
     bordercolor="#000000"
     borderopacity="0.25"
     inkscape:showpageshadow="2"
     inkscape:pageopacity="0.0"
     inkscape:pagecheckerboard="0"
     inkscape:deskcolor="#d1d1d1"
     fit-margin-top="5"
     fit-margin-left="5"
     fit-margin-right="5"
     fit-margin-bottom="5" />
  <g
     transform="translate(2,2.05)"
     id="g3">
    <use
       ffdec:characterId="1"
       height="42.700001"
       transform="translate(-1.75,-2)"
       width="76.449997"
       xlink:href="#shape0"
       id="use1" />
    <use
       ffdec:characterId="332"
       height="41.75"
       transform="translate(-0.75,-0.75)"
       width="77.099998"
       xlink:href="#shape1"
       id="use2" />
    <use
       ffdec:characterId="3"
       height="44.349998"
       transform="translate(-2,-2.05)"
       width="78.599998"
       xlink:href="#shape2"
       id="use3" />
  </g>
  <defs
     id="defs12">
    <g
       id="shape0"
       transform="translate(1.75,2)">
      <path
         d="M 2.8,0 V -0.4 H 5.4 V 0 H 9.7 V 19.45 0 H 20.55 L 19.3,19.45 H 9.7 0.25 V 0 H 2.8"
         fill="#ffffff"
         fill-rule="evenodd"
         stroke="none"
         id="path3" />
      <path
         d="M 0.25,19.45 H 9.7 19.3 L 18.7,28.6 16,28.5 10.95,27.95 9.7,27.8 Q 7.45,27.6 5.85,27.75 4.05,27.9 1.5,28.6 0.75,28.8 0.25,29.15 v -9.7 m 9.45,0 v 8.35 -8.35"
         fill="#121212"
         fill-rule="evenodd"
         stroke="none"
         id="path4" />
      <path
         d="m 9.7,27.8 1.25,0.15 5.05,0.55 2.7,0.1 h 1.05 l 3.75,0.15 q 2.45,0.3 3.6,1.25 0.6,0.5 0.6,1.1 0,0.65 -0.8,1 l -1.3,0.2 -7.15,0.15 -5.6,-0.3 L 9.7,31.75 7.95,31.6 3.1,31.95 0.95,32.3 0.25,32.1 -0.35,31.55 -0.5,31.3 V 29.9 L 0.25,29.15 Q 0.75,28.8 1.5,28.6 4.05,27.9 5.85,27.75 7.45,27.6 9.7,27.8 v 3.95 -3.95"
         fill="#999999"
         fill-rule="evenodd"
         stroke="none"
         id="path5" />
      <path
         d="M 2.8,0 H 0.25 M 9.7,0 H 5.4 m 16.15,0 h 10.7 M 20.55,0 H 9.7"
         fill="none"
         stroke="#666666"
         stroke-linecap="round"
         stroke-linejoin="round"
         stroke-width="4"
         id="path6" />
      <path
         d="m 9.7,-0.4 h 65 V 40.5 H 47.05 L 45.5,40.7 27,40.65 25.95,40.5 H 9.7 -0.5 V -0.4 H 9.7 V 40.5 -0.4"
         fill="#ffffff"
         fill-rule="evenodd"
         stroke="none"
         id="path7" />
    </g>
    <g
       id="shape1"
       transform="translate(0.75,0.75)">
      <path
         d="m 64.15,16.5 -0.4,-0.65 V 15.4 H 63.7 L 62.95,15.25 Q 62.5,14.95 62.7,14.35 L 63,13.9 63.55,13.8 h 0.25 v -0.75 q 0.05,-0.45 0.35,-0.7 L 64.7,12.3 q 0.3,0.05 0.45,0.25 l 0.1,0.55 0.05,0.55 v 0.1 h 0.15 q 0.8,0 1.05,0.3 l 0.2,0.45 -0.15,0.5 q -0.25,0.3 -1.1,0.35 H 65.4 l -0.05,0.3 -0.25,0.75 -0.5,0.25 -0.45,-0.15 m -12.7,0.25 Q 51.05,16.5 51,15.9 v -0.55 h -0.15 l -0.95,-0.2 q -0.6,-0.4 -0.3,-1.2 0.05,-0.4 0.35,-0.6 l 0.75,-0.1 H 51 v -1 q 0.1,-0.6 0.5,-0.85 l 0.7,-0.15 q 0.4,0.1 0.6,0.35 L 52.95,12.3 53,13 v 0.2 h 0.2 q 1.05,0 1.4,0.4 l 0.25,0.6 -0.2,0.6 q -0.35,0.4 -1.45,0.5 h -0.1 l -0.05,0.4 -0.35,0.95 -0.6,0.3 q -0.35,0 -0.65,-0.2 m -16.2,1.6 q -0.5,-0.35 -0.6,-1.1 v -0.7 H 34.5 L 33.25,16.3 q -0.75,-0.55 -0.4,-1.55 0.1,-0.5 0.5,-0.75 l 0.95,-0.15 h 0.4 v -1.3 q 0.1,-0.75 0.6,-1.1 l 0.9,-0.15 q 0.5,0.1 0.75,0.45 l 0.2,0.9 0.05,0.9 v 0.25 h 0.3 q 1.3,0 1.75,0.5 l 0.35,0.75 -0.25,0.8 q -0.45,0.5 -1.85,0.6 h -0.15 l -0.05,0.5 -0.45,1.25 q -0.3,0.35 -0.8,0.4 l -0.8,-0.25"
         fill="#ffffff"
         fill-rule="evenodd"
         stroke="none"
         id="path8" />
      <path
         d="m 75.65,-0.75 0.7,9 -29.5,-9 h 28.8 m -11.5,17.25 0.45,0.15 0.5,-0.25 0.25,-0.75 0.05,-0.3 h 0.05 Q 66.3,15.3 66.55,15 l 0.15,-0.5 -0.2,-0.45 q -0.25,-0.3 -1.05,-0.3 H 65.3 v -0.1 L 65.25,13.1 65.15,12.55 Q 65,12.35 64.7,12.3 l -0.55,0.05 q -0.3,0.25 -0.35,0.7 V 13.8 H 63.55 L 63,13.9 62.7,14.35 q -0.2,0.6 0.25,0.9 l 0.75,0.15 h 0.05 v 0.45 l 0.4,0.65 m -19.65,-2 q 0.05,2.65 -1,4.6 -0.95,1.7 -2.6,2.75 L 41,23 l 0.1,0.65 0.5,0.3 0.7,0.35 1.9,-0.65 0.4,-0.1 0.25,-0.5 q 0.5,-0.7 1.2,-1.1 l 0.65,-0.55 0.1,-0.5 0.15,-0.6 0.35,-0.65 -0.85,-0.7 q -0.9,-0.75 -1.4,-1.9 -0.45,-1.15 -0.35,-2.35 0.05,-0.65 0.4,-1.65 0.35,-0.9 0.65,-1.3 L 46.05,11.4 45.65,10.8 45.6,9.95 45.65,8.9 46.25,7.65 46.5,7 46.8,6.35 q 0.3,-0.3 0.75,-0.4 0.45,-0.1 0.8,0.25 l 0.5,0.55 1.05,1.8 L 54,8.4 54.2,8.2 55.65,6.55 56.4,5.75 H 57 l 0.5,0.35 0.2,0.75 0.3,1.05 0.25,1.05 0.05,0.75 0.1,1.4 0.05,0.6 v 0.15 l 0.25,1.9 q 0,2.1 -0.8,3.6 -0.75,1.35 -2.05,2.15 l 0.1,0.9 0.1,0.5 0.35,0.25 q 0.75,0.3 1.2,0.95 l 1,-0.35 0.3,-0.1 0.2,-0.35 0.9,-0.85 0.5,-0.4 0.1,-0.4 0.1,-0.5 0.25,-0.5 -0.65,-0.5 -1.05,-1.45 q -0.35,-0.9 -0.3,-1.8 l 0.35,-1.25 0.5,-1 0.2,-0.3 -0.3,-0.4 -0.05,-0.65 0.05,-0.85 0.45,-0.9 0.2,-0.5 0.25,-0.5 q 0.2,-0.25 0.55,-0.3 0.35,-0.1 0.6,0.15 l 0.4,0.45 0.8,1.35 3.1,-0.1 0.15,-0.15 1.1,-1.25 0.6,-0.6 h 0.45 l 0.4,0.25 0.15,0.55 0.25,0.8 0.15,0.8 0.05,0.6 0.05,0.4 v 0.35 l 0.05,0.3 v 0.45 0.15 l 0.2,1.45 q 0.05,1.55 -0.6,2.75 -0.55,1 -1.55,1.6 l 0.05,0.7 0.05,0.4 0.3,0.2 q 0.85,0.3 1.15,1.15 l 0.1,0.6 0.1,0.8 q -0.1,0.85 -1.15,1.8 0.25,0.3 0.15,0.7 l -0.35,0.6 -1.25,0.25 H 66.3 l -0.1,0.1 -0.6,0.65 -0.8,0.1 -0.5,-0.1 q -0.45,0.4 -1.3,0.25 -0.65,-0.2 -0.85,-0.55 h -0.1 l -0.55,0.15 -0.75,0.1 -0.8,-0.2 -0.4,-0.35 -0.2,-0.4 Q 59.3,25.1 59.6,24.75 L 59.05,24 l -0.3,-0.55 -0.65,0.2 0.1,0.9 -0.05,0.3 0.45,0.6 q 0.2,0.65 -0.3,1.1 -0.4,0.45 -1.05,0.5 l -0.45,0.05 0.1,0.7 -0.5,0.8 -1.6,0.35 -0.55,-0.05 -0.1,0.15 -0.75,0.85 -1.1,0.1 -0.6,-0.1 q -0.65,0.55 -1.75,0.3 -0.8,-0.2 -1.1,-0.7 h -0.1 L 48,29.7 47.05,29.85 45.95,29.6 45.45,29.1 45.2,28.6 q -0.1,-0.55 0.3,-1 l -0.75,-1 -0.35,-0.7 -0.8,0.25 0.1,0.75 0.15,1.05 0.35,0.6 q 0.3,0.85 -0.35,1.45 -0.5,0.5 -1.2,0.6 l -0.7,0.7 q 0.35,0.5 0.25,1.15 -0.1,0.65 -0.6,1.05 -0.6,0.5 -2.1,0.4 l -0.65,-0.05 -0.15,0.2 -0.95,1.1 -1.4,0.15 -0.8,-0.15 q -0.8,0.7 -2.2,0.4 -1.05,-0.3 -1.45,-0.9 h -0.1 l -1,0.25 -1.2,0.15 -1.4,-0.3 -0.6,-0.6 -0.35,-0.7 q -0.1,-0.65 0.4,-1.25 L 26.7,30.95 26.2,30 q -1.7,0.5 -2.65,1.05 -0.95,0.5 -1.6,1.15 L 22.6,32.1 23.9,32 q 0.7,0.05 1.3,0.4 0.65,0.4 0.8,1 0.35,1.1 -0.5,1.85 -0.7,0.7 -1.8,0.8 L 21.6,35.8 q -0.95,-0.05 -2.1,-0.65 l -0.8,-0.6 q -0.25,-0.4 -0.25,-1.2 l 0.1,-1.45 0.6,-1 q 1.05,-1.4 3.05,-2.4 1.2,-0.55 3.75,-1.35 l 0.5,-0.1 0.35,-0.65 q 0.65,-0.9 1.55,-1.4 l 0.85,-0.7 0.1,-0.65 0.2,-0.8 0.45,-0.85 -1.1,-0.85 q -1.15,-1 -1.8,-2.45 -0.6,-1.5 -0.45,-3 0.1,-0.85 0.55,-2.1 l 0.8,-1.65 0.4,-0.5 -0.5,-0.75 -0.1,-1.05 0.1,-1.4 L 28.6,6.7 28.9,5.85 29.3,5 30.25,4.5 Q 30.8,4.4 31.3,4.8 L 31.9,5.55 33.25,7.8 38.5,7.65 38.75,7.35 40.6,5.3 q 0.6,-0.85 1,-1.05 0.4,-0.15 0.75,0 0.45,0.1 0.65,0.45 l 0.25,0.95 0.4,1.35 0.3,1.35 0.05,0.95 0.1,0.7 -0.05,0.55 0.1,0.55 0.05,0.75 v 0.2 l 0.3,2.45 m 6.95,2.25 q 0.3,0.2 0.65,0.2 l 0.6,-0.3 0.35,-0.95 0.05,-0.4 h 0.1 q 1.1,-0.1 1.45,-0.5 l 0.2,-0.6 -0.25,-0.6 Q 54.25,13.2 53.2,13.2 H 53 V 13 L 52.95,12.3 52.8,11.6 q -0.2,-0.25 -0.6,-0.35 l -0.7,0.15 q -0.4,0.25 -0.5,0.85 v 1 h -0.3 l -0.75,0.1 q -0.3,0.2 -0.35,0.6 -0.3,0.8 0.3,1.2 l 0.95,0.2 H 51 v 0.55 q 0.05,0.6 0.45,0.85 M 25.35,41 76.35,25.45 75.1,40.8 25.35,41 m 9.9,-22.65 0.8,0.25 q 0.5,-0.05 0.8,-0.4 l 0.45,-1.25 0.05,-0.5 h 0.15 q 1.4,-0.1 1.85,-0.6 L 39.6,15.05 39.25,14.3 Q 38.8,13.8 37.5,13.8 h -0.3 v -0.25 l -0.05,-0.9 -0.2,-0.9 Q 36.7,11.4 36.2,11.3 l -0.9,0.15 q -0.5,0.35 -0.6,1.1 v 1.3 H 34.3 L 33.35,14 q -0.4,0.25 -0.5,0.75 -0.35,1 0.4,1.55 l 1.25,0.25 h 0.15 v 0.7 q 0.1,0.75 0.6,1.1"
         fill="#999999"
         fill-rule="evenodd"
         stroke="none"
         id="path9" />
      <path
         d="m 25.85,14.8 q 0.1,3 -1.1,5.2 -1.1,1.9 -2.95,3.1 l 0.1,1.3 0.1,0.75 0.6,0.35 q 1.55,0.6 2.15,2.2 l 0.2,1.15 0.2,1.6 q -0.2,1.5 -2.15,3.4 0.4,0.55 0.25,1.3 -0.1,0.7 -0.65,1.2 -0.7,0.55 -2.4,0.45 l -0.75,-0.1 -0.15,0.25 q -0.5,1 -1.1,1.25 L 16.65,38.35 15.7,38.2 q -0.9,0.8 -2.45,0.45 -1.2,-0.35 -1.65,-1 H 11.45 L 10.35,37.9 9,38.1 7.4,37.75 6.7,37.05 6.3,36.25 q -0.1,-0.7 0.45,-1.4 L 5.7,33.45 5.1,32.35 q -1.9,0.55 -3,1.2 -1.05,0.55 -1.8,1.3 l 0.75,-0.1 1.45,-0.1 q 0.8,0.05 1.5,0.45 0.7,0.45 0.9,1.1 0.4,1.25 -0.55,2.1 -0.8,0.8 -2.05,0.9 L -0.1,38.95 -0.75,38.9 V 31.45 L 0.6,30.65 4.85,29.1 5.4,29 5.8,28.25 q 0.75,-1 1.75,-1.55 l 0.95,-0.8 0.15,-0.75 0.2,-0.9 0.5,-0.95 -1.25,-1 Q 6.8,21.2 6.1,19.55 5.4,17.85 5.55,16.15 5.7,15.2 6.2,13.75 6.7,12.45 7.1,11.9 L 7.55,11.3 7,10.45 6.9,9.3 7,7.7 7.85,5.95 8.2,4.95 Q 8.35,4.35 8.65,4 9.05,3.55 9.7,3.45 10.35,3.3 10.9,3.8 l 0.7,0.85 1.5,2.55 5.95,-0.2 0.3,-0.35 2.1,-2.3 q 0.7,-0.95 1.15,-1.2 0.45,-0.15 0.85,0 0.5,0.1 0.7,0.5 l 0.3,1.1 0.45,1.5 0.35,1.55 0.05,1.1 0.1,0.8 -0.05,0.6 0.15,0.6 0.05,0.85 V 12 l 0.3,2.8 m -8.6,3.25 -0.3,0.4 -0.6,0.15 H 15.1 l -0.85,-0.2 -0.4,-0.5 q -0.4,-0.7 -1.25,-0.55 -0.85,0.1 -1,0.85 -0.2,0.5 0.05,1.25 l 0.4,0.75 0.7,0.5 0.65,0.25 1.15,0.1 1.85,-0.05 1.15,-0.1 1.3,-0.8 0.75,-0.9 0.2,-1.65 L 19.75,16.4 19.2,15.5 17.9,15.1 Q 16.95,14.4 16.35,14.25 H 15.4 q -0.65,0.15 -0.85,-0.4 0.25,-0.65 0.9,-0.75 L 16,13 17.1,12.95 h 0.3 l 0.55,0.4 0.5,0.35 q 0.6,0.1 0.85,-0.55 0.15,-0.55 -0.1,-1.1 -0.35,-0.9 -1.05,-1.15 L 16.8,10.75 15,10.8 q -1.05,0.1 -1.65,0.75 l -0.95,1.4 -0.2,0.7 0.05,1.2 0.45,0.7 0.85,0.95 1.5,0.2 h 0.5 l 1.55,0.75 0.25,0.2 -0.1,0.4"
         fill="#000000"
         fill-rule="evenodd"
         stroke="none"
         id="path10" />
      <path
         d="m 17.25,18.05 0.1,-0.4 -0.25,-0.2 -1.55,-0.75 h -0.5 l -1.5,-0.2 -0.85,-0.95 -0.45,-0.7 -0.05,-1.2 0.2,-0.7 0.95,-1.4 Q 13.95,10.9 15,10.8 l 1.8,-0.05 1.35,0.15 q 0.7,0.25 1.05,1.15 0.25,0.55 0.1,1.1 -0.25,0.65 -0.85,0.55 l -0.5,-0.35 -0.55,-0.4 H 17.1 L 16,13 15.45,13.1 q -0.65,0.1 -0.9,0.75 0.2,0.55 0.85,0.4 h 0.95 q 0.6,0.15 1.55,0.85 l 1.3,0.4 0.55,0.9 0.05,1.15 -0.2,1.65 -0.75,0.9 -1.3,0.8 -1.15,0.1 -1.85,0.05 -1.15,-0.1 -0.65,-0.25 -0.7,-0.5 -0.4,-0.75 Q 11.4,18.7 11.6,18.2 q 0.15,-0.75 1,-0.85 0.85,-0.15 1.25,0.55 l 0.4,0.5 0.85,0.2 h 1.25 l 0.6,-0.15 0.3,-0.4"
         fill="#ffffff"
         fill-rule="evenodd"
         stroke="none"
         id="path11" />
    </g>
    <g
       id="shape2"
       transform="translate(2,2.05)">
      <path
         d="M -0.5,-0.4 V -0.55 H 75.1 V -0.4 40.8 H -0.5 Z"
         fill="none"
         stroke="#000000"
         stroke-linecap="round"
         stroke-linejoin="round"
         stroke-width="3"
         id="path12" />
    </g>
  </defs>
</svg>
