<?xml version="1.0" encoding="UTF-8" standalone="no"?>
<svg
   ffdec:objectType="frame"
   height="44.349998"
   width="78.599998"
   version="1.1"
   id="svg11"
   sodipodi:docname="219.svg"
   xmlns:inkscape="http://www.inkscape.org/namespaces/inkscape"
   xmlns:sodipodi="http://sodipodi.sourceforge.net/DTD/sodipodi-0.dtd"
   xmlns:xlink="http://www.w3.org/1999/xlink"
   xmlns="http://www.w3.org/2000/svg"
   xmlns:svg="http://www.w3.org/2000/svg"
   xmlns:ffdec="https://www.free-decompiler.com/flash">
  <sodipodi:namedview
     id="namedview11"
     pagecolor="#ffffff"
     bordercolor="#000000"
     borderopacity="0.25"
     inkscape:showpageshadow="2"
     inkscape:pageopacity="0.0"
     inkscape:pagecheckerboard="0"
     inkscape:deskcolor="#d1d1d1"
     fit-margin-top="5"
     fit-margin-left="5"
     fit-margin-right="5"
     fit-margin-bottom="5" />
  <g
     transform="translate(2,2.05)"
     id="g3">
    <use
       ffdec:characterId="1"
       height="42.700001"
       transform="translate(-1.75,-2)"
       width="76.449997"
       xlink:href="#shape0"
       id="use1" />
    <use
       ffdec:characterId="215"
       height="40.25"
       transform="translate(-0.5)"
       width="75.650002"
       xlink:href="#shape1"
       id="use2" />
    <use
       ffdec:characterId="3"
       height="44.349998"
       transform="translate(-2,-2.05)"
       width="78.599998"
       xlink:href="#shape2"
       id="use3" />
  </g>
  <defs
     id="defs11">
    <g
       id="shape0"
       transform="translate(1.75,2)">
      <path
         d="M 2.8,0 V -0.4 H 5.4 V 0 H 9.7 V 19.45 0 H 20.55 L 19.3,19.45 H 9.7 0.25 V 0 H 2.8"
         fill="#ffffff"
         fill-rule="evenodd"
         stroke="none"
         id="path3" />
      <path
         d="M 0.25,19.45 H 9.7 19.3 L 18.7,28.6 16,28.5 10.95,27.95 9.7,27.8 Q 7.45,27.6 5.85,27.75 4.05,27.9 1.5,28.6 0.75,28.8 0.25,29.15 v -9.7 m 9.45,0 v 8.35 -8.35"
         fill="#121212"
         fill-rule="evenodd"
         stroke="none"
         id="path4" />
      <path
         d="m 9.7,27.8 1.25,0.15 5.05,0.55 2.7,0.1 h 1.05 l 3.75,0.15 q 2.45,0.3 3.6,1.25 0.6,0.5 0.6,1.1 0,0.65 -0.8,1 l -1.3,0.2 -7.15,0.15 -5.6,-0.3 L 9.7,31.75 7.95,31.6 3.1,31.95 0.95,32.3 0.25,32.1 -0.35,31.55 -0.5,31.3 V 29.9 L 0.25,29.15 Q 0.75,28.8 1.5,28.6 4.05,27.9 5.85,27.75 7.45,27.6 9.7,27.8 v 3.95 -3.95"
         fill="#999999"
         fill-rule="evenodd"
         stroke="none"
         id="path5" />
      <path
         d="M 2.8,0 H 0.25 M 9.7,0 H 5.4 m 16.15,0 h 10.7 M 20.55,0 H 9.7"
         fill="none"
         stroke="#666666"
         stroke-linecap="round"
         stroke-linejoin="round"
         stroke-width="4"
         id="path6" />
      <path
         d="m 9.7,-0.4 h 65 V 40.5 H 47.05 L 45.5,40.7 27,40.65 25.95,40.5 H 9.7 -0.5 V -0.4 H 9.7 V 40.5 -0.4"
         fill="#ffffff"
         fill-rule="evenodd"
         stroke="none"
         id="path7" />
    </g>
    <g
       id="shape1"
       transform="translate(0.5)">
      <path
         d="m 63.05,40.15 q 2.65,-0.6 6.4,0.1 H 62.6 l 0.45,-0.1 m -9.4,-8.1 -0.05,0.1 0.8,-0.35 h -0.55 l -0.2,0.25 m -2,-1.1 0.35,0.65 -0.05,-0.15 q -0.4,-0.8 0.1,-1.6 0.4,-0.45 1,-0.35 l -0.15,-0.25 -0.6,-0.9 -0.35,-0.25 -0.4,1.3 q -0.15,0.8 0.1,1.55 m 2.9,-4.85 -0.8,0.1 -1.1,0.95 1,1.2 0.3,1.05 1,-0.2 0.9,0.2 0.3,0.4 0.05,-0.35 -0.3,-1.2 L 55,26.5 54.55,26.1 m 0.3,-4.7 -0.15,0.3 0.75,0.55 0.95,-0.9 0.1,-0.05 -0.4,-0.65 -0.65,-0.4 -0.2,-0.05 -0.4,1.2 m -4.05,-3 -0.25,0.15 -0.15,0.3 -0.55,0.55 -0.75,0.1 q -1,0.15 -1.5,-0.3 -0.25,-0.3 -0.35,-0.8 0,-0.6 0.2,-0.85 0.25,-0.55 0.7,-0.3 l 0.15,-0.6 q 0,-0.5 0.6,-0.75 l 1.2,0.1 q 0.7,0.2 1.05,0.7 0.35,0.55 0.3,1 -0.1,0.55 -0.65,0.7 m 5.1,16.3 q -2.25,1.15 -4.2,0.45 -1.6,-0.45 -2.5,-2.1 -0.9,-1.55 -0.8,-3.3 l 0.2,-1.3 -1.1,0.4 -1.3,-0.25 q -0.7,-0.5 -0.6,-1.1 0.05,-0.5 0.8,-1 l -0.3,-0.3 q -0.5,-0.15 -0.55,-0.55 -0.15,-0.6 0.4,-0.75 l 0.85,-0.25 h 1 l 0.6,0.1 0.6,0.65 q 0.2,0.45 0,0.9 l -0.25,0.55 0.1,0.45 0.05,0.3 Q 49.4,26.15 50.4,24.8 49.95,24.7 49.65,24.35 49.2,23.9 49.2,23.3 h -0.35 q -1.3,0.1 -2.4,0.85 -1.95,1.2 -3.2,3.9 -1.4,2.85 -0.15,4.55 l 0.85,1.15 0.05,0.7 -0.4,0.5 -0.8,-0.2 q -2.05,-1.3 -2.35,-3.65 -0.15,-0.8 0.1,-2.4 0.8,-3.8 3.15,-6.2 2.9,-2.75 6.4,-2.55 l 1.3,0.15 q 0.9,-1.2 0.8,-2.8 0,-1.5 -0.95,-3.2 L 50.5,13 l -1,-0.6 -1.05,0.3 q -1.3,0.5 -1.75,1.9 l -0.3,0.45 -0.5,-0.1 -0.1,-0.55 q 0,-1.1 1.2,-2.2 l 0.45,-0.4 -0.2,-0.1 -2.3,0.2 Q 42.8,12.15 42,13 l -0.5,0.5 q -0.35,0.25 -0.6,0 -0.3,-0.3 0.05,-1 l 1.2,-1.6 q 1,-1.05 3.5,-1.55 l 1.6,-0.3 2.5,0.4 q 1.35,0.5 2.2,1.1 H 52 l 1.95,0.25 2.7,0.05 L 57.1,10.5 56.65,9.9 54.85,9.5 Q 52.85,9.2 51.5,8.5 49.75,7.55 49.2,5.95 49,5.4 48.95,4.7 L 48.65,4.1 Q 48.45,3.2 48.9,2.35 49.4,1.4 50.25,1.05 L 52.6,0.95 52.9,1 53.95,1.25 q 0.5,0.25 0.75,0.6 V 1.9 l 0.45,-0.1 1.55,0.15 0.25,0.15 0.1,-0.25 q 0.3,-0.65 1.1,-0.65 l 1.3,0.4 0.95,1 0.5,0.7 0.6,0.35 0.55,0.7 q 0.25,0.4 0,0.8 Q 61.8,5.5 60.85,5.6 L 57.25,5.5 56.25,5 Q 55.8,4.6 55.8,3.85 L 56.1,3 H 55.65 L 55,2.95 54.75,3 v 0.65 0.2 H 54.7 l -0.25,0.2 q -0.6,0.35 -1,-0.15 L 53,3.05 52.35,2.9 q -0.9,-0.15 -1.25,0.35 -0.15,0.25 -0.15,0.8 0,0.8 0.3,1.35 0.55,1.1 2.35,1.45 l 1.65,0.3 1.95,0.3 q 0.95,0.3 1.7,1.15 l 0.9,-0.05 h 0.1 Q 59.45,8 59.8,7.5 l 0.1,-0.1 q 0.25,-0.35 0.8,-0.5 l 1.15,0.05 h 0.5 l 1.35,0.1 0.75,0.15 0.15,0.25 q 0.4,0.05 0.5,0.25 0.2,0.4 0,0.8 v 0.05 l -0.2,0.65 -0.6,1 -0.9,0.95 -0.85,0.2 q -0.9,0 -1.35,-0.55 l -0.35,-0.55 -1.3,0.15 q 0.05,0.85 -0.3,1.5 L 58.2,13 56.25,13.4 54.4,13.25 54.15,13.2 l 0.6,0.95 0.55,2.45 0.1,2.2 0.55,0.35 1.05,0.95 0.3,0.55 0.3,-0.2 0.75,-0.5 -0.2,-0.5 -0.05,-0.35 0.05,-0.15 V 18.55 18 l -0.3,0.05 Q 57,18 56.7,17.1 q -0.2,-0.75 0.1,-1.55 0.25,-0.65 0.6,-0.95 0.45,-0.3 0.9,-0.3 1.4,-0.25 2.8,1.4 l 0.6,0.95 q 0.1,0.75 -0.25,1.1 -0.3,0.3 -1.05,0.4 l -0.95,-0.05 -0.5,-0.1 0.1,0.4 0.65,0.95 0.05,0.1 1.35,0.05 1.2,0.4 q 1.1,0.55 1.9,2 0.55,0.95 1.15,3.05 l 0.35,0.7 q 0.55,0.8 1.4,0.4 1.1,-0.75 1.3,-1.4 L 68.25,23.4 67.6,22.05 67.3,21.75 V 21.7 l -0.55,-0.6 q -0.05,-0.25 0.2,-0.45 l 0.45,-0.15 0.55,0.15 0.3,-0.15 0.25,-1.3 -0.05,-0.35 -0.3,0.2 -0.25,0.05 q -0.3,0.3 -0.65,-0.2 L 67,18.5 66.95,18.4 66.85,17.85 q 0,-1.1 0.75,-2.1 0.75,-1.15 1.95,-1.45 0.75,-0.25 1.1,0 0.65,0.2 0.55,0.85 l -0.2,0.55 0.05,0.6 0.45,1 0.35,1.2 -0.3,1.1 q -0.3,0.4 -0.9,0.4 l -1.05,-0.25 -0.1,-0.05 0.05,0.3 -0.1,0.8 -0.5,0.75 1.15,1.7 0.35,1.4 q -0.05,0.9 -1.15,2.1 l -0.4,0.45 0.05,0.15 q 0.05,0.5 0.65,1.35 l 0.3,0.4 0.5,-0.65 q 0.45,-0.4 0.95,-0.45 1.35,-0.2 1.9,1 0.4,0.7 0.3,2.35 v 1.3 q -0.3,0.7 -1.1,0.9 L 70.95,33.4 69,32.6 q -0.9,-0.45 -1.2,-1.1 -0.4,-0.9 0.35,-1.65 0.3,-0.3 0.6,-0.35 l -1.1,-1.4 -1.4,0.05 -1.2,-0.35 q -0.85,-0.45 -1.4,-1.7 l -0.85,-2 -0.95,-1.25 Q 61.1,22.3 60.4,22.55 l -0.6,0.4 -0.65,0.5 0.7,0.4 q 3.4,1.95 4.8,5.05 1.6,3.45 0.1,6.65 5.35,-0.4 8.7,1.65 l 1.35,1.25 h 0.35 v 1.6 h -0.1 v 0.1 0.1 h -3.5 l 0.2,-0.2 Q 69.35,38.5 66,38.5 l -4.55,0.45 -1.4,0.6 -3.55,0.7 H 51 Q 47.4,39.9 44.5,37.3 l -0.35,-0.5 q -0.15,-0.7 0.7,-0.85 0.4,-0.05 1.25,0.4 l 2,0.85 0.05,-0.2 q 0.15,-0.55 0.7,-0.8 0.45,-0.3 1.1,-0.25 l 2.15,0.7 3.5,0.15 3.3,-0.6 q 1.75,-0.7 2.55,-2.1 0.9,-1.65 0.05,-3.7 -0.65,-1.7 -2.45,-2.85 0.95,1.95 -0.1,4.15 -1,1.9 -3.05,3 m -37.75,0 q -2.1,-1.1 -3.05,-3 -1.05,-2.2 -0.15,-4.15 -1.75,1.15 -2.45,2.85 -0.85,2.05 0.1,3.7 0.8,1.4 2.55,2.1 l 3.3,0.6 3.45,-0.15 2.2,-0.7 1.1,0.25 q 0.55,0.25 0.65,0.8 l 0.1,0.2 q 0.9,-0.4 2,-0.85 0.85,-0.45 1.2,-0.4 0.85,0.15 0.75,0.85 l -0.4,0.5 q -2.85,2.6 -6.4,2.95 H 17.55 L 14,39.55 12.6,38.95 8,38.5 q -3.35,0 -5.7,1.55 l 0.25,0.2 H -0.5 V 38.1 l 1.1,-0.9 q 3.35,-2.05 8.7,-1.65 -1.55,-3.2 0.05,-6.65 1.4,-3.1 4.8,-5.05 0.4,-0.25 0.75,-0.4 l -0.65,-0.5 -0.65,-0.4 q -0.65,-0.25 -1.45,0.3 l -0.9,1.25 -0.85,2 Q 9.85,27.35 9,27.8 l -1.25,0.35 -1.4,-0.05 -1.1,1.4 0.65,0.35 q 0.7,0.75 0.35,1.65 -0.3,0.65 -1.2,1.1 L 3.1,33.4 1.55,33.55 q -0.8,-0.2 -1.1,-0.9 v -1.3 Q 0.4,29.7 0.75,29 q 0.55,-1.2 1.9,-1 0.55,0.05 1,0.45 L 4.1,29.1 4.4,28.7 5.1,27.35 5.15,27.2 4.7,26.75 q -1.05,-1.2 -1.15,-2.1 l 0.4,-1.4 q 0.45,-1 1.15,-1.7 L 4.9,21.35 4.6,20.8 4.5,20 4.55,19.7 4.4,19.75 3.4,20 Q 2.8,20 2.45,19.6 2.15,19.2 2.15,18.5 l 0.4,-1.2 0.4,-1 L 3,15.7 2.85,15.15 Q 2.7,14.5 3.4,14.3 q 0.35,-0.25 1.1,0 1.2,0.3 1.95,1.45 0.7,1 0.7,2.1 L 7.1,18.4 7.05,18.5 6.8,18.9 Q 6.45,19.4 6.15,19.1 L 5.9,19.05 5.6,18.85 5.5,19.2 q 0,1.1 0.25,1.3 l 0.3,0.15 0.55,-0.15 0.5,0.15 0.2,0.45 -0.55,0.6 v 0.05 l -0.3,0.3 -0.7,1.35 q -0.3,0.85 -0.1,1.25 0.15,0.65 1.25,1.4 0.85,0.4 1.4,-0.4 l 0.4,-0.7 q 0.6,-2.1 1.15,-3.05 0.8,-1.45 1.9,-2 l 1.2,-0.4 1.35,-0.05 0.05,-0.1 0.6,-0.95 0.15,-0.4 -0.5,0.1 -1,0.05 q -0.7,-0.1 -1,-0.4 -0.4,-0.35 -0.25,-1.1 l 0.6,-0.95 q 1.4,-1.65 2.8,-1.4 0.45,0 0.85,0.3 l 0.6,0.95 0.15,1.55 Q 17.05,18 16.2,18.05 L 15.85,18 v 0.55 0.4 l 0.1,0.15 -0.1,0.35 -0.15,0.5 0.7,0.5 0.35,0.2 0.3,-0.55 1,-0.95 0.55,-0.35 0.15,-2.2 0.55,-2.45 0.6,-0.95 -0.25,0.05 -1.9,0.15 L 15.8,13 q -0.6,-0.35 -1,-1.1 -0.4,-0.65 -0.35,-1.5 L 13.2,10.25 12.85,10.8 Q 12.4,11.35 11.5,11.35 L 10.65,11.15 9.7,10.2 9.1,9.2 Q 8.85,8.8 8.95,8.55 V 8.5 q -0.2,-0.4 0,-0.8 L 9.4,7.45 9.6,7.2 l 0.75,-0.15 1.3,-0.1 h 0.5 L 13.3,6.9 q 0.55,0.15 0.8,0.5 l 0.15,0.1 Q 14.6,8 14.1,8.55 h 0.15 l 0.9,0.05 q 0.7,-0.85 1.7,-1.15 l 1.95,-0.3 1.65,-0.3 Q 22.2,6.5 22.75,5.4 l 0.3,-1.35 -0.1,-0.8 Q 22.6,2.75 21.65,2.9 l -0.6,0.15 -0.5,0.85 Q 20.2,4.4 19.6,4.05 L 19.35,3.85 H 19.3 V 3.65 3 L 19.05,2.95 18.35,3 h -0.4 l 0.3,0.85 q 0,0.75 -0.5,1.15 L 16.8,5.5 13.2,5.6 q -1,-0.1 -1.25,-0.45 -0.2,-0.4 0,-0.8 L 12.5,3.65 13.15,3.3 13.6,2.6 q 0.45,-0.7 1,-1 l 1.25,-0.4 q 0.8,0 1.1,0.65 l 0.15,0.25 0.25,-0.15 1.5,-0.15 0.5,0.1 V 1.85 Q 19.6,1.5 20.1,1.25 l 1,-0.25 0.3,-0.05 2.4,0.1 q 0.85,0.35 1.35,1.3 0.4,0.85 0.25,1.75 l -0.35,0.6 -0.2,1.25 Q 24.3,7.55 22.5,8.5 21.15,9.2 19.15,9.5 L 17.4,9.9 q -0.55,0.3 -0.5,0.6 0.05,0.25 0.5,0.35 l 2.7,-0.05 1.95,-0.25 h 0.05 q 0.85,-0.6 2.2,-1.1 l 2.5,-0.4 1.55,0.3 q 2.5,0.5 3.55,1.55 l 1.15,1.6 q 0.35,0.7 0.05,1 -0.25,0.25 -0.6,0 L 32,13 q -0.75,-0.85 -2.9,-1.1 l -2.3,-0.2 -0.2,0.1 0.4,0.4 q 1.25,1.1 1.25,2.2 l -0.15,0.55 -0.45,0.1 Q 27.45,15 27.35,14.6 26.9,13.2 25.55,12.7 l -1.05,-0.3 -0.95,0.6 -0.8,1.1 q -0.9,1.7 -0.9,3.2 -0.15,1.6 0.8,2.8 l 1.25,-0.15 q 3.55,-0.2 6.4,2.55 2.4,2.4 3.2,6.2 l 0.1,2.4 q -0.3,2.35 -2.35,3.65 l -0.8,0.2 q -0.3,-0.1 -0.45,-0.5 -0.05,-0.3 0.05,-0.7 L 30.9,32.6 q 1.3,-1.7 -0.1,-4.55 -1.3,-2.7 -3.25,-3.9 -1.1,-0.75 -2.35,-0.85 h -0.35 l -0.45,1.05 q -0.3,0.35 -0.8,0.45 1.05,1.35 1.55,2.8 L 25.2,27.3 25.25,26.85 25,26.3 q -0.15,-0.45 0,-0.9 l 0.6,-0.65 0.65,-0.1 h 0.95 l 0.85,0.25 q 0.55,0.15 0.45,0.75 l -0.55,0.55 -0.3,0.3 q 0.7,0.5 0.75,1 0.15,0.6 -0.6,1.1 l -1.25,0.25 -1.1,-0.4 0.15,1.3 q 0.15,1.75 -0.75,3.3 -0.95,1.65 -2.5,2.1 -1.95,0.7 -4.2,-0.45 m 5.1,-16.3 q -0.55,-0.15 -0.65,-0.7 -0.1,-0.45 0.3,-1 0.35,-0.5 1,-0.7 l 1.25,-0.1 q 0.6,0.25 0.6,0.75 l 0.1,0.6 q 0.5,-0.25 0.75,0.3 l 0.2,0.85 -0.4,0.8 q -0.45,0.45 -1.45,0.3 l -0.8,-0.1 q -0.5,-0.15 -0.55,-0.55 l -0.1,-0.3 Q 23.45,18.4 23.25,18.4 m -4.1,3 -0.35,-1.2 -0.25,0.05 -0.6,0.4 -0.45,0.65 0.15,0.05 0.9,0.9 0.8,-0.55 -0.2,-0.3 m 0.3,4.7 -0.4,0.4 -0.9,1.75 q -0.35,0.6 -0.35,1.2 l 0.1,0.35 0.3,-0.4 0.9,-0.2 1,0.2 0.3,-1.05 q 0.35,-0.8 0.95,-1.2 l -1.1,-0.95 -0.8,-0.1 m 0.95,5.95 -0.2,-0.25 h -0.55 l 0.8,0.35 -0.05,-0.1 m -9.4,8.1 0.45,0.1 h -6.9 q 3.8,-0.7 6.45,-0.1 m 11.4,-9.2 0.05,-1.55 -0.35,-1.3 -0.4,0.25 -0.6,0.9 -0.1,0.25 q 0.6,-0.1 0.95,0.35 0.5,0.8 0.15,1.6 l -0.05,0.15 0.35,-0.65"
         fill="#767676"
         fill-rule="evenodd"
         stroke="none"
         id="path8" />
      <path
         d="M 69.05,24.4 Q 68.2,26.15 66.6,27 l 0.1,0.2 -0.15,0.85 L 65.85,29 64.5,29.25 64.1,29.2 64,29.4 q -0.8,0.95 -1.95,0.55 -0.8,-0.3 -1.1,-1 L 60.7,29 59.6,28.85 58.9,28.1 Q 58.65,27.55 58.75,27 l 0.2,-0.5 q -1.7,-1.2 -2.45,-2.9 -0.9,-2.05 -0.05,-4 0.35,-0.8 1.05,-1.5 1.75,-1.9 4.3,-2.25 L 64.35,16 q 1,0.2 2.25,0.95 1.4,1.05 2.2,2.3 1.4,2.6 0.25,5.15 m -2.6,0.85 q 0.9,0 1.35,-0.85 l 0.15,-1.05 q -0.1,-0.6 -0.55,-0.95 -0.95,-0.85 -2,-0.15 -0.5,0.3 -0.65,0.85 -0.2,0.55 0,1.05 l 0.65,0.85 1.05,0.25 m -17.25,-13 q 0.05,3.8 -1.4,6.55 -1.35,2.35 -3.65,3.9 l 0.1,1.55 q 0,0.7 0.15,0.95 l 0.7,0.4 q 1.95,0.75 2.7,2.75 l 0.3,1.4 0.2,2 q -0.2,1.9 -2.7,4.2 0.5,0.7 0.3,1.65 -0.05,0.9 -0.8,1.45 -0.85,0.7 -2.95,0.55 l -0.95,-0.05 -0.15,0.3 -0.2,0.4 H 25.6 L 25.4,40 24.9,39 q -0.2,-0.9 0.55,-1.75 L 24.1,35.5 23.45,34.15 Q 21,34.85 19.65,35.6 18.3,36.35 17.4,37.25 L 18.3,37.1 20.15,37 q 0.95,0.05 1.9,0.55 0.85,0.55 1.05,1.4 0.25,0.7 0.1,1.3 H 12.7 q -0.25,-0.5 -0.25,-1.35 0,-1.6 0.2,-2.1 l 0.8,-1.4 q 1.5,-1.95 4.3,-3.35 1.7,-0.85 5.3,-1.85 l 0.7,-0.2 q 0.15,-0.5 0.45,-0.9 0.95,-1.35 2.25,-2.05 l 1.1,-0.95 0.2,-0.85 0.3,-1.15 0.6,-1.3 -1.5,-1.1 Q 25.5,20.25 24.6,18.25 23.75,16.1 24,13.95 24.1,12.8 24.7,11 l 1.15,-2.35 0.55,-0.7 -0.65,-1 -0.2,-1.45 0.2,-2 L 26.8,1.3 27.2,0.1 27.25,0 h 4.4 L 32.5,1.75 33.35,2.8 40.75,2.6 41.1,2.2 43.25,0 H 47.5 L 48,1.75 48.4,3.6 q 0,0.95 0.15,1.4 l 0.1,0.95 -0.05,0.75 0.1,0.75 0.05,1.1 v 0.3 q 0.45,1.55 0.45,3.4 m -11.65,5.2 Q 36.9,16.7 36.45,16.75 L 36,17.15 35.05,17.4 34.2,16.85 33.85,16.35 q -0.2,-0.2 -0.5,0 L 33,16.85 q -0.2,0.4 0.05,0.95 0.25,0.5 0.65,0.8 l 2.1,0.25 0.85,-0.05 0.85,0.15 1.7,-0.15 1.3,-1.15 q 0.25,-0.45 0.1,-0.8 -0.05,-0.4 -0.4,-0.5 -0.4,-0.2 -0.7,0 -0.25,0.1 -0.65,0.85 -0.6,0.75 -1.3,0.25 M 41.1,12.7 q -0.45,0.85 -0.25,1.9 0.25,0.95 1,1.5 0.75,0.6 1.8,0.5 1,-0.05 1.65,-0.75 0.65,-0.65 0.8,-1.7 0.05,-1.05 -0.55,-1.8 -0.6,-0.75 -1.6,-0.95 l -1.8,0.25 q -0.8,0.45 -1.05,1.05 m 19.8,10.1 q 0,-0.95 -0.9,-1.4 -1,-0.4 -1.7,0.3 -0.75,0.75 -0.45,1.65 l 0.1,0.05 q 0.2,0.5 0.7,0.8 l 1.05,0.2 0.9,-0.6 q 0.35,-0.45 0.3,-1 M 7.6,25.25 8.6,25 9.3,24.15 q 0.2,-0.5 0,-1.05 L 8.6,22.25 q -1,-0.7 -2,0.15 -0.4,0.35 -0.55,0.95 -0.05,0.6 0.2,1.05 0.4,0.85 1.35,0.85 M 27.95,13 q -0.55,0.65 -0.5,1.65 0.05,0.95 0.65,1.55 0.65,0.65 1.55,0.7 0.95,0.05 1.65,-0.45 Q 31.95,15.9 32.15,15 32.3,14.05 31.9,13.3 31.25,12.25 30,12.15 28.75,12 27.95,13 m -23,11.4 Q 3.8,21.85 5.2,19.25 6,18 7.4,16.95 8.7,16.2 9.65,16 l 2.55,-0.15 q 2.6,0.35 4.35,2.25 l 1.05,1.5 q 0.85,1.95 -0.1,4 -0.7,1.7 -2.4,2.9 l 0.15,0.5 q 0.15,0.55 -0.1,1.1 L 14.4,28.85 13.3,29 13.05,28.95 q -0.3,0.7 -1.1,1 -1.15,0.4 -1.9,-0.55 L 9.9,29.2 9.55,29.25 8.2,29 Q 7.6,28.55 7.45,28.05 L 7.35,27.2 7.4,27 Q 5.8,26.15 4.95,24.4 m 30,1.55 Q 32.5,26.2 31.55,27 l -0.85,0.9 -0.7,1 q -0.4,0.8 -0.55,2.7 l 0.15,0.9 0.35,0.85 1.15,1.25 -0.2,0.45 q -0.1,0.6 0.2,1.2 0.3,0.55 0.9,0.8 l 1.25,0.05 0.6,-0.3 0.8,0.95 1.9,-0.15 0.65,-0.85 0.25,0.15 1.15,0.05 0.85,-0.7 q 0.3,-0.45 0.2,-1.1 l -0.3,-0.75 1,-1.1 q 1.4,-2.05 0.6,-4.15 Q 40.2,26.95 38,26.2 L 34.95,25.95 M 13.15,22.8 q -0.1,0.55 0.3,1 l 0.9,0.6 1.05,-0.2 0.65,-0.8 0.15,-0.05 Q 16.5,22.45 15.75,21.7 15,21 14.05,21.4 q -0.9,0.45 -0.9,1.4 m 17.9,9.95 0.05,-0.8 0.3,-0.5 q 0.3,-0.4 0.9,-0.5 l 1.05,0.2 0.7,0.85 q 0.15,0.55 -0.1,1.05 l -0.7,0.8 -1.1,0.05 q -0.85,-0.2 -1.1,-1.15 m 6.7,1.2 Q 37,33.75 36.7,33.05 36.4,32.3 36.75,31.7 q 0.5,-0.9 1.5,-0.8 0.95,0.15 1.25,1 0.45,0.85 -0.25,1.55 -0.65,0.7 -1.5,0.5"
         fill="#000000"
         fill-rule="evenodd"
         stroke="none"
         id="path9" />
      <path
         d="M 66.45,25.25 65.4,25 64.75,24.15 q -0.2,-0.5 0,-1.05 0.15,-0.55 0.65,-0.85 1.05,-0.7 2,0.15 0.45,0.35 0.55,0.95 L 67.8,24.4 q -0.45,0.85 -1.35,0.85 M 41.1,12.7 q 0.25,-0.6 1.05,-1.05 l 1.8,-0.25 q 1,0.2 1.6,0.95 0.6,0.75 0.55,1.8 -0.15,1.05 -0.8,1.7 -0.65,0.7 -1.65,0.75 -1.05,0.1 -1.8,-0.5 -0.75,-0.55 -1,-1.5 -0.2,-1.05 0.25,-1.9 m -3.55,4.75 q 0.7,0.5 1.3,-0.25 0.4,-0.75 0.65,-0.85 0.3,-0.2 0.7,0 0.35,0.1 0.4,0.5 0.15,0.35 -0.1,0.8 L 39.2,18.8 37.5,18.95 36.65,18.8 35.8,18.85 33.7,18.6 Q 33.3,18.3 33.05,17.8 32.8,17.25 33,16.85 l 0.35,-0.5 q 0.3,-0.2 0.5,0 l 0.35,0.5 0.85,0.55 0.95,-0.25 0.45,-0.4 q 0.45,-0.05 1.1,0.7 M 60.9,22.8 q 0.05,0.55 -0.3,1 l -0.9,0.6 -1.05,-0.2 q -0.5,-0.3 -0.7,-0.8 l -0.1,-0.05 Q 57.55,22.45 58.3,21.7 59,21 60,21.4 q 0.9,0.45 0.9,1.4 M 27.95,13 q 0.8,-1 2.05,-0.85 1.25,0.1 1.9,1.15 0.4,0.75 0.25,1.7 -0.2,0.9 -0.85,1.45 -0.7,0.5 -1.65,0.45 -0.9,-0.05 -1.55,-0.7 -0.6,-0.6 -0.65,-1.55 -0.05,-1 0.5,-1.65 M 7.6,25.25 Q 6.65,25.25 6.25,24.4 6,23.95 6.05,23.35 6.2,22.75 6.6,22.4 q 1,-0.85 2,-0.15 l 0.7,0.85 q 0.2,0.55 0,1.05 L 8.6,25 l -1,0.25 m 5.55,-2.45 q 0,-0.95 0.9,-1.4 0.95,-0.4 1.7,0.3 0.75,0.75 0.45,1.65 l -0.15,0.05 -0.65,0.8 -1.05,0.2 -0.9,-0.6 q -0.4,-0.45 -0.3,-1 m 21.8,3.15 3.05,0.25 q 2.2,0.75 2.95,2.95 0.8,2.1 -0.6,4.15 l -1,1.1 0.3,0.75 q 0.1,0.65 -0.2,1.1 l -0.85,0.7 -1.15,-0.05 -0.25,-0.15 -0.65,0.85 -1.9,0.15 -0.8,-0.95 -0.6,0.3 L 32,37.05 q -0.6,-0.25 -0.9,-0.8 -0.3,-0.6 -0.2,-1.2 L 31.1,34.6 29.95,33.35 29.6,32.5 29.45,31.6 Q 29.6,29.7 30,28.9 l 0.7,-1 0.85,-0.9 q 0.95,-0.8 3.4,-1.05 m 2.8,8 q 0.85,0.2 1.5,-0.5 0.7,-0.7 0.25,-1.55 -0.3,-0.85 -1.25,-1 -1,-0.1 -1.5,0.8 -0.35,0.6 -0.05,1.35 0.3,0.7 1.05,0.9 m -6.7,-1.2 q 0.25,0.95 1.1,1.15 l 1.1,-0.05 0.7,-0.8 q 0.25,-0.5 0.1,-1.05 l -0.7,-0.85 -1.05,-0.2 q -0.6,0.1 -0.9,0.5 l -0.3,0.5 -0.05,0.8"
         fill="#ffffff"
         fill-rule="evenodd"
         stroke="none"
         id="path10" />
    </g>
    <g
       id="shape2"
       transform="translate(2,2.05)">
      <path
         d="M -0.5,-0.4 V -0.55 H 75.1 V -0.4 40.8 H -0.5 Z"
         fill="none"
         stroke="#000000"
         stroke-linecap="round"
         stroke-linejoin="round"
         stroke-width="3"
         id="path11" />
    </g>
  </defs>
</svg>
