<?xml version="1.0" encoding="UTF-8" standalone="no"?>
<svg
   ffdec:objectType="frame"
   height="60.549999"
   width="67.099998"
   version="1.1"
   id="svg7"
   sodipodi:docname="712.svg"
   xmlns:inkscape="http://www.inkscape.org/namespaces/inkscape"
   xmlns:sodipodi="http://sodipodi.sourceforge.net/DTD/sodipodi-0.dtd"
   xmlns:xlink="http://www.w3.org/1999/xlink"
   xmlns="http://www.w3.org/2000/svg"
   xmlns:svg="http://www.w3.org/2000/svg"
   xmlns:ffdec="https://www.free-decompiler.com/flash">
  <sodipodi:namedview
     id="namedview7"
     pagecolor="#ffffff"
     bordercolor="#000000"
     borderopacity="0.25"
     inkscape:showpageshadow="2"
     inkscape:pageopacity="0.0"
     inkscape:pagecheckerboard="0"
     inkscape:deskcolor="#d1d1d1"
     fit-margin-top="5"
     fit-margin-left="5"
     fit-margin-right="5"
     fit-margin-bottom="5" />
  <g
     transform="translate(1.5,1.5)"
     id="g3">
    <use
       ffdec:characterId="516"
       height="57.549999"
       width="64.099998"
       xlink:href="#shape0"
       id="use1" />
    <use
       ffdec:characterId="1202"
       height="53.849998"
       transform="translate(0.95,2.2)"
       width="64"
       xlink:href="#shape1"
       id="use2" />
    <use
       ffdec:characterId="518"
       height="60.549999"
       transform="translate(-1.5,-1.5)"
       width="67.099998"
       xlink:href="#shape2"
       id="use3" />
  </g>
  <defs
     id="defs7">
    <g
       id="shape0">
      <path
         d="M 53.6,0 H 64.1 V 57.55 H 53.6 28.25 0 V 0 H 28.25 53.6 V 57.55 0 M 28.25,0 V 57.55 0"
         fill="#ffffff"
         fill-rule="evenodd"
         stroke="none"
         id="path3" />
    </g>
    <g
       id="shape1"
       transform="translate(-0.95,-2.2)">
      <path
         d="m 27.6,12.1 q 4.15,0 7.9,1.55 1.2,0.5 2.05,1.35 2.7,2.7 4,6.25 l 0.5,-0.9 Q 41.7,19.95 42,19.4 42.25,18.95 42.7,18.9 L 42.85,18.1 42.8,18 q -0.3,-0.35 -0.2,-0.8 0.15,-0.5 0.6,-0.65 L 43.35,15.7 43.1,15.5 q -0.3,-0.45 -0.1,-1 0.2,-0.7 0.95,-0.8 -0.05,-0.3 0.15,-0.55 l 0.35,-0.4 -0.1,-0.2 q -0.3,-0.45 0.05,-1 l 0.4,-0.35 0.2,-0.05 0.05,-0.1 0.5,-0.9 -0.2,-0.45 q -0.1,-0.25 -0.05,-0.65 0,-0.2 0.15,-0.3 V 8.65 Q 45.8,8.05 46.45,8 L 46.8,7.95 q 0.75,-1.25 2.05,-2 0.75,-0.4 1.5,-0.7 l 1.15,-0.4 1.25,-0.1 h 0.05 0.5 0.05 l 1.2,0.1 1.15,0.4 1.5,0.7 q 1.35,0.75 2.1,2 L 59.6,8 q 0.7,0.05 1,0.65 l 0.05,0.1 0.15,0.3 -0.1,0.65 -0.15,0.45 0.5,0.9 0.05,0.1 0.15,0.05 0.45,0.35 q 0.3,0.55 0,1 l -0.1,0.2 h 0.05 l 0.35,0.4 0.15,0.55 q 0.7,0.1 0.95,0.8 0.2,0.55 -0.15,1 l -0.2,0.2 0.15,0.85 q 0.45,0.15 0.6,0.65 0.1,0.45 -0.2,0.8 l -0.05,0.1 0.15,0.8 0.7,0.5 q 0.25,0.55 -0.05,0.95 l 0.55,1 q 0.55,1.45 0.2,2.95 -0.2,1.05 -0.95,1.85 l -1.1,1.05 -0.25,0.15 -2.35,0.2 -0.75,-0.2 q -1.45,-0.6 -3.05,-0.55 l -1.9,0.25 -1.1,0.2 V 27.3 H 53 52.75 l -1.1,-0.25 -1.9,-0.25 q -1.6,-0.05 -3.05,0.55 l -0.75,0.2 -2.35,-0.2 -0.25,-0.15 -0.4,-0.3 0.5,4.95 q 0.15,4.05 -0.4,8.05 -0.6,4.1 -3.25,7.3 l -1.95,1.65 q -3.65,1.9 -7.75,2.35 -3.9,0.45 -7.55,-0.6 -2,0.1 -3.2,-1.5 L 18.8,48.55 q -2.8,-2.2 -4.35,-5.35 -1.75,-3.6 -2,-7.6 -0.3,-4.2 1.2,-8.1 l 2.65,-7.95 q 1,-3.35 3.9,-5.3 l 0.55,-0.9 Q 22.1,12 23.85,12.8 L 25,12.55 27.6,12.1 m 1.15,11.4 q -1.25,0.2 -2.55,0.65 l -0.85,0.4 q -0.5,-0.45 -1.45,-0.5 -1.7,-0.2 -3.05,0.8 l -0.35,0.5 q -0.5,2.3 1.3,3.9 l 0.15,0.1 -0.05,0.3 q -0.2,2.1 1.2,3.65 1.6,1.8 3.6,2.25 -0.35,0.7 -0.55,1.45 -0.85,2.7 -1.25,5.45 H 24.65 24.6 Q 24.55,41.5 23.85,40.6 23.4,40 22.65,39.85 L 19.9,39.55 19.85,39.5 19.8,39.45 19.7,39.3 v -0.05 l 0.6,-0.7 q 0.75,-1.8 -1.3,-2.2 -0.65,0.05 -1.15,0.45 l -0.6,0.7 q -1.2,2.15 0.5,3.95 l 0.55,0.25 4.2,-0.2 0.1,0.05 0.35,0.35 0.3,0.25 0.15,0.25 0.15,0.25 q -0.7,0.2 -1.25,0.75 -2.15,2 -1,4.8 0.75,1.9 2.8,1.75 0.9,-0.05 1.45,-0.7 l 5.75,-0.2 0.3,-0.2 q 1.15,0.55 2.35,-0.6 1.25,-1.2 1.05,-2.95 -0.3,-2.55 -2.95,-2.8 l -0.6,-5.05 -0.1,-2 V 35 q 3.45,-1.45 3.85,-5.4 0.15,-1.45 -0.4,-2.75 L 34.75,26.55 34,23 q -0.5,-1.65 -2.1,-2.05 -1.7,0.55 -2.85,2.1 L 28.8,23.5 H 28.75 M 9.75,4.2 q 2.2,-0.2 2.8,1.7 0.25,0.65 0,1.3 -0.8,2.35 -3.2,1.8 L 8.2,8.5 7.55,9.4 Q 5.6,10.85 4.15,8.95 3.7,8.35 3.8,7.6 4,5.7 5.9,5.5 6.85,5.7 7.45,6.15 L 7.5,5.9 Q 7.8,4.8 8.95,4.35 L 9.75,4.2 M 32.3,26.15 q 2.5,0.4 2.1,2.8 -0.25,1.35 -1.6,1.6 -1.95,0.4 -2.55,-1.45 -0.5,-1.4 0.65,-2.4 0.6,-0.55 1.4,-0.55 m -3.05,4.95 h 0.05 l 0.25,-0.05 0.55,0.3 0.2,0.15 q 0.55,0.15 1.05,-0.25 l 0.05,-0.05 0.25,0.05 0.15,0.1 0.05,0.15 0.05,0.15 v 0.15 q -0.9,1.35 -2.3,0.8 -0.3,0.8 -1.3,1.35 -0.6,0.3 -0.8,-0.3 V 33.5 q 0,-0.4 0.35,-0.65 l 0.35,-0.2 0.25,-0.45 0.3,-0.35 -0.05,-0.1 0.05,-0.25 v -0.1 l 0.1,-0.1 0.2,-0.15 0.05,-0.05 h 0.15 m -3.9,-2.2 q 2.25,0.35 1.85,2.5 -0.2,1.1 -1.3,1.35 -1.75,0.45 -2.35,-1.2 -0.5,-1.45 0.75,-2.35 0.5,-0.3 1.05,-0.3"
         fill="#999999"
         fill-rule="evenodd"
         stroke="none"
         id="path4" />
      <path
         d="m 28.75,23.5 h 0.05 l 0.25,-0.45 q 1.15,-1.55 2.85,-2.1 1.6,0.4 2.1,2.05 l 0.75,3.55 0.05,0.3 q 0.55,1.3 0.4,2.75 -0.4,3.95 -3.85,5.4 v 0.45 l 0.1,2 0.6,5.05 q 2.65,0.25 2.95,2.8 0.2,1.75 -1.05,2.95 -1.2,1.15 -2.35,0.6 l -0.3,0.2 -5.75,0.2 Q 25,49.9 24.1,49.95 22.05,50.1 21.3,48.2 q -1.15,-2.8 1,-4.8 0.55,-0.55 1.25,-0.75 L 23.4,42.4 23.25,42.15 22.95,41.9 22.6,41.55 22.5,41.5 18.3,41.7 17.75,41.45 q -1.7,-1.8 -0.5,-3.95 l 0.6,-0.7 q 0.5,-0.4 1.15,-0.45 2.05,0.4 1.3,2.2 l -0.6,0.7 v 0.05 l 0.1,0.15 0.05,0.05 0.05,0.05 2.75,0.3 q 0.75,0.15 1.2,0.75 0.7,0.9 0.75,1.85 h 0.05 0.25 q 0.4,-2.75 1.25,-5.45 0.2,-0.75 0.55,-1.45 -2,-0.45 -3.6,-2.25 -1.4,-1.55 -1.2,-3.65 l 0.05,-0.3 -0.15,-0.1 q -1.8,-1.6 -1.3,-3.9 l 0.35,-0.5 q 1.35,-1 3.05,-0.8 0.95,0.05 1.45,0.5 l 0.85,-0.4 q 1.3,-0.45 2.55,-0.65 m -3.4,5.4 q -0.55,0 -1.05,0.3 -1.25,0.9 -0.75,2.35 0.6,1.65 2.35,1.2 1.1,-0.25 1.3,-1.35 0.4,-2.15 -1.85,-2.5 m 3.9,2.2 H 29.1 l -0.05,0.05 -0.2,0.15 -0.1,0.1 v 0.1 l -0.05,0.25 0.05,0.1 -0.3,0.35 -0.25,0.45 -0.35,0.2 Q 27.5,33.1 27.5,33.5 v 0.15 q 0.2,0.6 0.8,0.3 1,-0.55 1.3,-1.35 1.4,0.55 2.3,-0.8 V 31.65 L 31.85,31.5 31.8,31.35 31.65,31.25 31.4,31.2 31.35,31.25 q -0.5,0.4 -1.05,0.25 l -0.2,-0.15 -0.55,-0.3 -0.25,0.05 h -0.05 m 3.05,-4.95 q -0.8,0 -1.4,0.55 -1.15,1 -0.65,2.4 0.6,1.85 2.55,1.45 1.35,-0.25 1.6,-1.6 0.4,-2.4 -2.1,-2.8"
         fill="#ffffff"
         fill-rule="evenodd"
         stroke="none"
         id="path5" />
      <path
         d="m 28.45,2.2 h 1.1 0.15 l 2.9,0.3 2.7,0.85 q 1.8,0.8 3.55,1.75 3.15,1.7 4.9,4.7 l 0.75,0.05 q 1.6,0.2 2.35,1.55 l 0.1,0.25 0.3,0.75 q 0.15,0.9 -0.15,1.55 L 46.65,15 q 0.8,0.9 1.2,2.1 l 0.1,0.25 0.45,0.1 q 0.65,0.3 0.95,0.85 0.8,1.3 0.1,2.3 l -0.25,0.45 h 0.05 l 0.85,0.95 0.35,1.3 q 1.7,0.3 2.25,1.95 0.45,1.25 -0.3,2.3 l -0.5,0.5 0.35,1.95 q 1.05,0.35 1.35,1.55 0.3,1.1 -0.4,1.95 l -0.2,0.25 0.4,1.8 q 1.1,0.1 1.65,1.2 0.65,1.25 -0.1,2.2 l 1.3,2.4 q 1.25,3.4 0.5,6.95 -0.5,2.5 -2.25,4.4 l -2.65,2.4 -0.6,0.35 q -2.65,0.9 -5.55,0.5 L 44,55.5 q -3.45,-1.45 -7.25,-1.35 l -4.45,0.7 -2.6,0.45 v 0.05 h -0.8 -0.6 l -2.6,-0.5 -4.45,-0.7 Q 17.45,54.05 14,55.5 l -1.7,0.45 q -2.9,0.4 -5.55,-0.5 L 6.15,55.1 3.5,52.7 Q 1.75,50.8 1.25,48.3 0.5,44.75 1.75,41.35 2.25,40.05 3.05,38.95 2.3,38 2.95,36.75 3.5,35.65 4.6,35.55 4.65,34.65 5,33.75 L 4.8,33.5 Q 4.1,32.65 4.4,31.55 4.7,30.35 5.75,30 5.85,29 6.1,28.05 L 5.6,27.55 Q 4.85,26.5 5.3,25.25 5.85,23.6 7.55,23.3 7.5,22.65 7.9,22 8.2,21.45 8.75,21.05 H 8.8 L 8.55,20.6 q -0.7,-1 0.1,-2.3 0.3,-0.55 0.95,-0.85 l 0.45,-0.1 0.1,-0.25 q 0.4,-1.2 1.2,-2.1 -0.4,-0.5 -0.45,-1.05 -0.3,-0.65 -0.15,-1.55 l 0.3,-0.75 0.1,-0.25 Q 11.9,10.05 13.5,9.85 L 14.25,9.8 Q 16,6.8 19.15,5.1 20.9,4.15 22.7,3.35 L 25.4,2.5 28.3,2.2 h 0.15 M 36.65,18 H 21.55 Q 17,25.4 15.65,35.7 v 4.8 q 1.6,5.8 5.75,8 h 15.4 q 4.15,-2.2 5.75,-8 V 35.7 Q 41.2,25.4 36.65,18 M 10,7.85 l 0.45,-0.3 0.8,-0.6 0.05,-0.15 0.05,-0.1 0.1,-0.25 v -0.3 l -0.3,-0.4 Q 10.65,5.3 10,5.2 L 9.3,5.7 Q 8.9,6.05 8.8,6.55 l 0.25,0.9 Q 9.55,7.6 9.85,7.9 L 10,7.85 M 10.2,9.8 Q 9.9,10.9 8.8,11 7.5,11.15 7,10.2 L 6.6,10.3 Q 4.55,10.45 3.9,8.7 3.5,7.65 4,6.55 L 4.6,5.7 q 0.65,-0.6 1.45,-0.75 1,0 1.6,0.4 l 0.1,-0.2 q 0.75,-1.1 2.05,-1.4 2.65,0 2.9,2.4 0.2,2.1 -1.85,2.8 L 10.3,9.1 10.2,9.8 M 7.45,7.3 7.4,7.15 7.35,7 7.3,6.95 7.25,6.75 7.15,6.65 6.55,6.35 6.45,6.3 Q 5.85,6.35 5.5,6.85 l -0.3,1 V 7.95 8 L 5.25,8.05 V 8.1 L 5.3,8.2 5.65,8.45 5.8,8.55 6.75,8.65 Q 6.9,8.05 7.45,7.7 V 7.3"
         fill="#000000"
         fill-rule="evenodd"
         stroke="none"
         id="path6" />
    </g>
    <g
       id="shape2"
       transform="translate(1.5,1.5)">
      <path
         d="M 0,23.8 V 0 H 64.1 V 23.8 57.55 H 0 Z"
         fill="none"
         stroke="#000000"
         stroke-linecap="round"
         stroke-linejoin="round"
         stroke-width="3"
         id="path7" />
    </g>
  </defs>
</svg>
