<?xml version="1.0" encoding="UTF-8" standalone="no"?>
<svg
   ffdec:objectType="frame"
   height="60.549999"
   width="67.099998"
   version="1.1"
   id="svg7"
   sodipodi:docname="571.svg"
   xmlns:inkscape="http://www.inkscape.org/namespaces/inkscape"
   xmlns:sodipodi="http://sodipodi.sourceforge.net/DTD/sodipodi-0.dtd"
   xmlns:xlink="http://www.w3.org/1999/xlink"
   xmlns="http://www.w3.org/2000/svg"
   xmlns:svg="http://www.w3.org/2000/svg"
   xmlns:ffdec="https://www.free-decompiler.com/flash">
  <sodipodi:namedview
     id="namedview7"
     pagecolor="#ffffff"
     bordercolor="#000000"
     borderopacity="0.25"
     inkscape:showpageshadow="2"
     inkscape:pageopacity="0.0"
     inkscape:pagecheckerboard="0"
     inkscape:deskcolor="#d1d1d1"
     fit-margin-top="5"
     fit-margin-left="5"
     fit-margin-right="5"
     fit-margin-bottom="5" />
  <g
     transform="translate(1.5,1.5)"
     id="g3">
    <use
       ffdec:characterId="516"
       height="57.549999"
       width="64.099998"
       xlink:href="#shape0"
       id="use1" />
    <use
       ffdec:characterId="1063"
       height="56"
       transform="translate(3.85,0.85)"
       width="55.900002"
       xlink:href="#shape1"
       id="use2" />
    <use
       ffdec:characterId="518"
       height="60.549999"
       transform="translate(-1.5,-1.5)"
       width="67.099998"
       xlink:href="#shape2"
       id="use3" />
  </g>
  <defs
     id="defs7">
    <g
       id="shape0">
      <path
         d="M 53.6,0 H 64.1 V 57.55 H 53.6 28.25 0 V 0 H 28.25 53.6 V 57.55 0 M 28.25,0 V 57.55 0"
         fill="#ffffff"
         fill-rule="evenodd"
         stroke="none"
         id="path3" />
    </g>
    <g
       id="shape1"
       transform="translate(-3.85,-0.85)">
      <path
         d="M 34.05,8.8 26.9,8 Q 22.95,7.85 19.8,8.8 18.75,9.1 18.5,8.6 18.25,7.95 19.2,7.45 24.7,4.6 32.85,4.55 41.3,4.6 46.35,8 l 3.45,3.1 q 4.4,4.6 5.65,9.05 0.75,2.8 0.55,8.05 l -0.3,4.7 q 0.5,0.2 1.05,0.5 l 1.95,0.95 q 0.4,0.3 0.8,1.15 l 0.25,0.7 -0.15,0.5 v 0.5 q -0.35,1.1 -1.85,2.15 l -4.1,2.15 q -2.7,1.3 -3.95,2.2 l -1.75,1.1 -1.45,0.05 q -0.8,-0.2 -1.25,-0.8 -0.65,-0.6 -0.95,-1.9 l -2.95,-10.4 q -0.3,-1.2 -0.25,-1.65 0.1,-1.35 1.1,-1.95 0.95,-0.65 2.1,-0.3 l 2.05,0.8 0.7,0.35 q 1.15,-3.35 0.9,-7.25 L 47.4,18.55 46.1,16.3 Q 43.5,12.4 39.55,10.25 37.6,9.4 34.05,8.8 m -4.6,38.55 7.15,0.85 q 4,0.1 7.1,-0.8 1.15,-0.35 1.35,0.2 0.25,0.6 -0.75,1.1 -5.45,2.9 -13.6,2.9 -8.45,0 -13.5,-3.4 Q 15.5,46.95 13.7,45.1 9.35,40.5 8.1,35.95 7.3,33.2 7.5,27.95 L 7.8,23.3 6.8,22.8 4.85,21.85 4.05,20.65 3.85,19.95 3.9,19.5 3.95,19.05 Q 4.3,17.9 5.85,16.8 7.05,16.05 9.9,14.65 l 4,-2.2 1.7,-1.1 q 0.7,-0.2 1.5,0 0.7,0.15 1.2,0.75 0.6,0.6 0.9,1.95 l 3,10.4 0.25,1.6 q -0.1,1.4 -1.1,1.95 l -2.15,0.35 q -0.7,-0.15 -2,-0.8 l -0.7,-0.4 q -1.15,3.4 -0.95,7.25 0.2,2.1 0.6,3.2 l 1.35,2.3 q 2.55,3.85 6.5,6 1.9,0.8 5.45,1.45"
         fill="#999999"
         fill-rule="evenodd"
         stroke="none"
         id="path4" />
      <path
         d="m 22.4,30.4 q 1.05,-1.75 3.15,-3.2 0.7,-0.5 1.55,-0.8 v -0.05 l 1.65,-1.65 -0.6,-3.75 -0.2,-3.85 V 14.6 L 28,13.95 26.65,12.3 25.85,11.35 25.5,11.9 25.2,13.65 v 1.7 q -0.15,3.55 -2.5,6.05 -2.5,2.65 -6,2.55 Q 14.9,24 13.75,23.1 12.2,22.15 12.1,20.6 q -0.15,-1.55 1.05,-2.5 1.3,-1.05 2.7,-0.55 l 1.2,0.5 1.15,0.15 q 1.15,-0.2 1.65,-1.8 l 0.9,-3.85 Q 21.2,10.3 22.05,9 L 23.35,7.55 22.7,6.3 q -1.5,0.3 -2.5,0 -1.45,-0.35 -2.05,-1.45 -0.4,-0.8 -0.2,-1.7 0.2,-1 0.95,-1.5 Q 19.75,1 21.4,0.95 L 23.7,0.9 q 1.3,0.25 2.05,1 l 1.05,1.9 0.6,1.6 q 2.1,-0.6 3.75,0 L 33.1,6.35 35.4,8 q 1.4,1.5 1.4,3.55 l 2.35,1.25 0.05,0.05 1.6,-1.5 4.05,-4.2 q 0.9,-1.1 1.65,-1.4 l 2.25,-0.2 Q 49.9,5.8 51,6.4 q 1.5,0.65 2.05,1.55 0.45,0.75 0.35,1.75 -0.15,0.9 -0.8,1.5 -1,0.8 -2.45,0.65 -1,-0.1 -2.3,-0.9 l -1.95,1.6 -3.9,2.6 -1.85,1.05 -0.25,0.65 -0.9,2.3 -1.5,3.55 -1.9,3.25 0.95,2.15 v 0.05 l 1.15,1.3 q 1.4,2.05 1.75,4.1 0.2,1.65 -0.15,3.05 1.55,5.1 3.25,13 0.1,0.55 0.35,0.75 l 0.55,0.45 q 1.55,0.7 1.95,2.25 0.4,1.7 -0.8,2.8 -1.55,1.65 -4.35,0.6 -2,-0.7 -2.4,-2.1 -0.15,-0.45 0,-1.75 l -0.05,-1.85 -1,-9.4 -0.9,1.3 -0.35,0.4 -0.75,0.75 -1.05,-0.25 -0.5,-0.6 -0.7,-1.2 -3.35,-0.3 Q 27.45,41.2 26,40.5 l -1.1,0.9 -0.7,0.4 -1.05,-0.15 Q 22.7,41.3 22.7,40.7 l -0.25,-0.5 -0.3,-1.6 -4.3,8.5 -0.75,1.65 -0.6,1.65 q -0.9,1.2 -3,1.1 -3,-0.05 -3.85,-2.1 -0.7,-1.5 0.3,-2.9 0.9,-1.3 2.55,-1.45 l 0.8,-0.15 0.5,-0.6 q 4.4,-6.75 7.7,-10.95 0.2,-1.5 0.9,-2.95 M 30.1,11.15 33,10.8 h 0.3 L 31.95,10 Q 30.6,9.4 29.2,9.5 l 0.85,1.7 0.05,-0.05 M 27.3,37.1 q 1.25,-0.95 0.95,-2.5 L 28,34.55 q -2.3,-0.35 -3.4,-1.75 -1.2,0.65 -1.3,2 -0.05,0.7 0.25,1.4 0.35,0.7 0.95,1.05 l 1.45,0.3 1.35,-0.45 m 9.6,-2.05 -0.25,-0.4 -0.85,0.3 -3.15,0.1 -0.2,0.35 q -0.25,0.7 -0.15,1.55 l 0.15,0.4 0.3,0.55 q 0.8,1.2 2.3,1.05 1.35,-0.1 2.05,-1.4 0.6,-1.25 -0.2,-2.5 M 31.6,30.8 30.95,30.95 30.5,30.65 29,30.55 28.55,30.8 28,31.4 27.95,31.7 v 0.4 l 0.15,0.25 0.35,-0.1 0.5,-0.5 0.85,0.3 q 0.25,0.5 0.8,0.5 l 0.5,-0.3 0.6,-0.25 1.15,0.4 v 0.5 l 0.35,0.35 0.6,-0.4 0.05,-0.9 -0.25,-0.3 q -0.8,-0.85 -2,-0.85"
         fill="#000000"
         fill-rule="evenodd"
         stroke="none"
         id="path5" />
      <path
         d="m 31.6,30.8 q 1.2,0 2,0.85 l 0.25,0.3 -0.05,0.9 -0.6,0.4 -0.35,-0.35 V 32.4 L 31.7,32 l -0.6,0.25 -0.5,0.3 q -0.55,0 -0.8,-0.5 l -0.85,-0.3 -0.5,0.5 -0.35,0.1 -0.15,-0.25 V 31.7 L 28,31.4 28.55,30.8 29,30.55 l 1.5,0.1 0.45,0.3 0.65,-0.15 m 5.3,4.25 q 0.8,1.25 0.2,2.5 -0.7,1.3 -2.05,1.4 -1.5,0.15 -2.3,-1.05 l -0.3,-0.55 -0.15,-0.4 Q 32.2,36.1 32.45,35.4 l 0.2,-0.35 3.15,-0.1 0.85,-0.3 0.25,0.4 m -9.6,2.05 -1.35,0.45 -1.45,-0.3 q -0.6,-0.35 -0.95,-1.05 -0.3,-0.7 -0.25,-1.4 0.1,-1.35 1.3,-2 1.1,1.4 3.4,1.75 l 0.25,0.05 q 0.3,1.55 -0.95,2.5"
         fill="#ffffff"
         fill-rule="evenodd"
         stroke="none"
         id="path6" />
    </g>
    <g
       id="shape2"
       transform="translate(1.5,1.5)">
      <path
         d="M 0,23.8 V 0 H 64.1 V 23.8 57.55 H 0 Z"
         fill="none"
         stroke="#000000"
         stroke-linecap="round"
         stroke-linejoin="round"
         stroke-width="3"
         id="path7" />
    </g>
  </defs>
</svg>
