<?xml version="1.0" encoding="UTF-8" standalone="no"?>
<svg
   ffdec:objectType="frame"
   height="60.549999"
   width="67.099998"
   version="1.1"
   id="svg6"
   sodipodi:docname="27.svg"
   xmlns:inkscape="http://www.inkscape.org/namespaces/inkscape"
   xmlns:sodipodi="http://sodipodi.sourceforge.net/DTD/sodipodi-0.dtd"
   xmlns:xlink="http://www.w3.org/1999/xlink"
   xmlns="http://www.w3.org/2000/svg"
   xmlns:svg="http://www.w3.org/2000/svg"
   xmlns:ffdec="https://www.free-decompiler.com/flash">
  <sodipodi:namedview
     id="namedview6"
     pagecolor="#ffffff"
     bordercolor="#000000"
     borderopacity="0.25"
     inkscape:showpageshadow="2"
     inkscape:pageopacity="0.0"
     inkscape:pagecheckerboard="0"
     inkscape:deskcolor="#d1d1d1"
     fit-margin-top="5"
     fit-margin-left="5"
     fit-margin-right="5"
     fit-margin-bottom="5" />
  <g
     transform="translate(1.5,1.5)"
     id="g3">
    <use
       ffdec:characterId="516"
       height="57.549999"
       width="64.099998"
       xlink:href="#shape0"
       id="use1" />
    <use
       ffdec:characterId="543"
       height="51.400002"
       transform="translate(-0.35,4.9)"
       width="63.650002"
       xlink:href="#shape1"
       id="use2" />
    <use
       ffdec:characterId="518"
       height="60.549999"
       transform="translate(-1.5,-1.5)"
       width="67.099998"
       xlink:href="#shape2"
       id="use3" />
  </g>
  <defs
     id="defs6">
    <g
       id="shape0">
      <path
         d="M 53.6,0 H 64.1 V 57.55 H 53.6 28.25 0 V 0 H 28.25 53.6 V 57.55 0 M 28.25,0 V 57.55 0"
         fill="#ffffff"
         fill-rule="evenodd"
         stroke="none"
         id="path3" />
    </g>
    <g
       id="shape1"
       transform="translate(0.35,-4.9)">
      <path
         d="m 59.2,24.95 -0.85,0.25 q -1.4,0.1 -2.15,-0.8 l -0.45,-0.8 -0.2,-0.4 v -2.3 q 0.25,-1.55 1.3,-2.8 l 0.5,-0.45 0.85,-0.25 q 0.85,-0.1 1.4,0.25 l 0.55,0.5 q 0.7,0.75 0.75,1.65 v 1.45 l -0.15,0.65 -0.25,0.5 -0.05,0.55 -0.6,1.35 -0.65,0.65 m -6.65,27.1 Q 52.1,52 51.85,51.1 51.1,47.2 50.75,41.05 L 50.1,30.9 Q 49.05,20.9 45.35,11.5 44.5,9.3 44.6,8.25 44.7,7.3 45.25,6.5 45.8,5.65 46.6,5.25 L 48.45,4.9 q 1,0.1 1.8,0.6 1.35,0.9 1.85,2.85 0.3,1.1 0.4,3.4 l 0.95,19.55 q 0.45,11.55 -0.1,19.55 -0.1,1.25 -0.8,1.2 M 41.25,23.15 40.5,21.9 q -0.15,-0.55 0.1,-1.15 0.25,-0.6 0.75,-0.9 L 42.5,19.7 q 0.65,0.1 1,0.6 l 0.55,1.35 4.65,17.6 q 0.65,2.35 0.75,3.9 L 49.4,43.8 q -0.15,0.4 -0.55,0.3 L 48.5,43.6 45,33.3 41.85,24.45 41.25,23.15 M 37.8,8.85 38.9,8.9 q 0.55,0.2 0.8,0.7 0.25,0.5 0.15,1.05 l -0.6,0.9 q -0.45,0.35 -1.05,0.3 -0.65,-0.05 -1,-0.45 -0.55,-0.55 -0.4,-1.45 0.15,-0.75 1,-1.1 m -5.95,9.2 1.2,0.8 q 2,1.55 2.45,2.6 l 0.65,1.85 0.2,1 q -0.1,0.85 -0.85,1.2 L 34,25.35 32.95,23.9 q -0.8,-1.35 -2.3,-2.05 l -0.95,-0.2 -0.45,0.1 -0.3,0.5 -0.6,0.55 q -1.6,1.15 -3.5,0.55 L 24.7,23.3 24.3,23.7 23.45,24 q -0.5,-0.1 -0.8,-0.4 -1.05,-0.95 -0.85,-2.7 l 0.25,-0.95 0.25,-0.45 q 0.8,-1.15 1.65,-1.7 l 1,-0.5 1.35,-0.45 1.4,-0.05 1,0.25 q 0.5,0.2 0.75,0.6 l 2.4,0.4 m -17.8,2.15 -2,-0.6 Q 10.6,18.9 9.7,17.3 L 9.4,16.6 9.3,15.95 q 0,-1.75 1.05,-2.9 l 0.6,-0.45 1.1,-0.3 q 1.95,-0.2 3.1,0.75 l 1.95,1.95 1.05,1.45 q 0.4,1.1 -0.25,1.65 l -0.45,0.4 -0.35,0.7 -0.5,0.6 q -0.9,0.8 -2.55,0.4 m 4.7,8 q 0.75,-1.15 1.75,-1.9 0.6,-0.4 1.05,-0.55 l 1.6,-0.05 2.25,0.05 q 1.3,0.1 1.95,0.95 0.5,0.75 0.4,1.95 l -0.15,1.2 q -0.5,1.5 -2.25,2.1 l 0.6,0.65 q 2,2.5 3.2,5.55 0.8,1.95 0.25,3.15 l -1.65,1.75 q -3.5,2.6 -5.5,3.85 -3.1,2 -5.85,3.1 l -4.65,1.6 q -5.6,1.7 -8.5,2.1 -2.45,0.4 -3.3,-0.8 -0.4,-0.6 -0.3,-1.6 L 0,49.5 0.2,45.95 Q 0.4,43.8 1.4,42.7 2.2,41.85 4.45,41 12.5,37.8 16.35,31.55 l 1.05,-1.65 1.1,-1.2 0.25,-0.5"
         fill="#767676"
         fill-rule="evenodd"
         stroke="none"
         id="path4" />
      <path
         d="m 62.35,22.65 q 0.85,1.15 0.95,2.8 0,1.3 -0.55,2.95 l -0.85,2.05 -1.1,2.1 -6.75,15.9 q -0.35,0.9 -0.95,0.7 -0.45,-0.15 -0.35,-0.9 0.2,-1.85 0.8,-4.15 l -0.1,-0.05 -1.1,-0.05 -1.7,-0.65 -0.7,-0.5 -0.65,-0.95 -0.25,-0.7 0.1,-0.95 0.45,-1.6 Q 49.75,38 49.95,37.7 l 0.8,-0.8 0.75,-0.55 3.3,-0.15 0.65,0.35 0.25,0.25 q 1,-3.9 1.4,-8.05 v -1.9 l -0.55,-1.7 Q 56.3,24.1 56.9,23.1 q 0.6,-0.95 1.55,-1.45 l 2.1,-0.05 q 1.1,0.25 1.8,1.05 M 47.55,34.05 47.2,33.45 47.15,32.95 46.7,32.1 45.95,30.8 45.4,29.5 v -1.9 q 0.25,-0.75 0.75,-1.1 0.9,-0.65 1.95,-0.4 1.1,0.3 1.55,1.3 0.3,0.65 0.2,1.8 L 49.8,30 49.65,30.5 v 1.75 l -0.05,0.65 0.1,0.7 -0.05,0.75 -0.2,1.4 -0.15,0.6 -0.5,0.25 -0.5,-0.25 -0.15,-0.55 -0.1,-0.55 -0.3,-0.6 -0.2,-0.6 M 5.6,32.85 q 2.55,-1.55 6.85,-6.4 l 0.1,-0.25 0.9,-2.2 0.4,-1.05 L 13.7,22.9 12.15,22.2 10.4,21.65 8.75,21.4 7.35,20.6 q -1.15,-1 -1.8,-2.3 -0.7,-1.55 -0.7,-3.8 0,-1.2 0.25,-2 Q 5.3,11.8 5.8,11.15 6.9,9.45 8.45,8.45 9.7,7.6 10.6,7.9 l 0.55,0.3 0.6,0.25 1.05,0.85 1.75,1.15 2.65,2 2.75,2.2 0.05,0.05 0.65,-0.35 q 2.5,-1.25 5.45,-1.25 2.9,0 5.6,1.05 4.4,1.8 6.4,5.2 1.8,2.9 1.7,6.85 l -0.15,2.1 q 0.95,1.3 1.75,3.15 l 1.5,3.85 q 1.1,3 3.3,7.7 l 3.5,7.65 q 0.9,2.05 -0.05,2.8 Q 49,54 48,53.65 L 46.55,52.6 39.75,47 34.2,42.75 33.25,41.9 q -4.6,5.45 -12.15,9.5 -4.45,2.35 -8.05,3.2 l -5.55,0.9 -7.8,0.8 v -3 l 8.55,-1.6 5.1,-1.25 q 1.7,-0.5 4.35,-1.9 7.05,-3.7 11.25,-8.15 l 0.5,-0.55 -0.1,-0.1 -4.95,-6.7 -0.15,-0.25 Q 23.7,32.65 23.4,32.35 22.8,31.8 22.95,31.2 23.1,30.65 23.8,30.35 l 1.05,-0.25 1.6,-0.65 Q 27.3,29 27.4,28.1 q 0.15,-1.4 -1.7,-2.4 -2.3,-1.2 -4.8,-0.6 -2.4,0.45 -3.95,2.45 l -0.6,1.45 -2.65,3.25 -0.15,0.2 -0.2,0.15 -0.1,0.1 q -5.5,4.85 -13.55,7.95 v -4.7 q 3.05,-1.35 5.9,-3.1 m 52.7,14 q -0.35,-0.5 -0.3,-1.15 0.05,-0.65 0.45,-1.05 0.5,-0.45 1.2,-0.45 l 1.25,0.4 0.65,1.2 q 0.15,0.8 -0.4,1.35 -0.4,0.4 -1.1,0.45 l -1.2,-0.25 -0.55,-0.5 M 34.3,21.6 q -1.15,-1.75 -3.35,-2.9 -3.7,-1.85 -7.1,-0.85 -2.15,0.7 -3.85,2.55 l -0.9,1.25 0.7,-0.25 q 2.15,-0.5 4.4,-0.05 1.6,0.3 3.05,1.1 L 28.5,21.3 q 1.15,-1.05 1.6,-1.1 0.9,-0.1 1.9,0.9 l 3.25,2.9 q -0.3,-1.35 -0.95,-2.4 m -3.4,5.7 q 0.15,1.75 -0.7,3.1 -0.85,1.45 -2.45,2.15 l -0.45,0.2 h 0.05 l 2.7,2.75 q 2.85,3 8.75,7.2 l 6.35,4.55 Q 41.9,40.8 39.7,34.8 38.6,31.65 37.6,30.15 l -2.55,-2.7 Q 33.1,25.7 30.4,23.5 l -0.7,0.8 q 1.05,1.25 1.2,3 M 15.45,19.05 q 0.95,-1.5 2.2,-2.65 L 15.55,14.95 12.7,12.8 11.3,12 10.45,11.4 10.2,11.45 9.45,11.6 Q 8.25,12.75 8,13.85 7.75,15 8.25,16.5 q 0.5,1.3 1.25,1.7 l 1.05,0.3 4.15,1.25 0.4,0.15 0.35,-0.85 M 44.9,54.4 v 0.5 l -0.35,0.4 H 44 L 43.4,55.1 41.95,55 40.15,54.65 36.45,54.1 31.4,52.9 q -1.2,-0.3 -1.65,-0.7 -0.85,-0.7 -0.85,-1.9 0,-1.05 0.55,-2 0.4,-0.75 1.05,-1.2 0.9,-0.4 1.7,-0.25 l 1.7,0.55 q 1.7,0.75 7.35,4.05 l 1.5,1.05 1.05,0.85 0.55,0.4 0.25,0.35 0.3,0.3 M 59.65,51.85 Q 60,52.6 59.6,53.4 l -0.75,0.95 q -0.6,0.35 -1.2,0.3 -1.05,-0.1 -1.5,-1.2 -0.3,-1 0.35,-1.9 0.7,-0.8 1.65,-0.7 1.05,0.1 1.5,1"
         fill="#000000"
         fill-rule="evenodd"
         stroke="none"
         id="path5" />
    </g>
    <g
       id="shape2"
       transform="translate(1.5,1.5)">
      <path
         d="M 0,23.8 V 0 H 64.1 V 23.8 57.55 H 0 Z"
         fill="none"
         stroke="#000000"
         stroke-linecap="round"
         stroke-linejoin="round"
         stroke-width="3"
         id="path6" />
    </g>
  </defs>
</svg>
