<?xml version="1.0" encoding="UTF-8" standalone="no"?>
<svg
   ffdec:objectType="frame"
   height="60.650002"
   width="67.099998"
   version="1.1"
   id="svg7"
   sodipodi:docname="781.svg"
   xmlns:inkscape="http://www.inkscape.org/namespaces/inkscape"
   xmlns:sodipodi="http://sodipodi.sourceforge.net/DTD/sodipodi-0.dtd"
   xmlns:xlink="http://www.w3.org/1999/xlink"
   xmlns="http://www.w3.org/2000/svg"
   xmlns:svg="http://www.w3.org/2000/svg"
   xmlns:ffdec="https://www.free-decompiler.com/flash">
  <sodipodi:namedview
     id="namedview7"
     pagecolor="#ffffff"
     bordercolor="#000000"
     borderopacity="0.25"
     inkscape:showpageshadow="2"
     inkscape:pageopacity="0.0"
     inkscape:pagecheckerboard="0"
     inkscape:deskcolor="#d1d1d1"
     fit-margin-top="5"
     fit-margin-left="5"
     fit-margin-right="5"
     fit-margin-bottom="5" />
  <g
     transform="translate(1.5,1.5)"
     id="g3">
    <use
       ffdec:characterId="516"
       height="57.549999"
       width="64.099998"
       xlink:href="#shape0"
       id="use1" />
    <use
       ffdec:characterId="1269"
       height="56.5"
       transform="translate(-1.3,2.7)"
       width="66.800003"
       xlink:href="#shape1"
       id="use2" />
    <use
       ffdec:characterId="518"
       height="60.549999"
       transform="translate(-1.5,-1.5)"
       width="67.099998"
       xlink:href="#shape2"
       id="use3" />
  </g>
  <defs
     id="defs7">
    <g
       id="shape0">
      <path
         d="M 53.6,0 H 64.1 V 57.55 H 53.6 28.25 0 V 0 H 28.25 53.6 V 57.55 0 M 28.25,0 V 57.55 0"
         fill="#ffffff"
         fill-rule="evenodd"
         stroke="none"
         id="path3" />
    </g>
    <g
       id="shape1"
       transform="translate(1.3,-2.7)">
      <path
         d="m -1.2,24.25 0.4,-1.05 q 0.6,-1.1 2.05,-1.6 l 0.6,-0.2 Q 2,20.75 2.5,20.4 3.15,19.85 3.65,20.1 l 0.55,0.6 0.6,1.1 0.35,0.3 -0.1,-0.85 Q 5,20.75 5.4,20.3 l 0.55,-0.35 1.4,-0.1 Q 8,20.1 8.15,20.7 8.4,21.3 8.05,21.8 l -0.6,0.6 -0.3,0.2 -0.2,0.3 -0.55,2.05 -0.3,0.75 -0.1,0.15 -0.65,1.3 -0.3,0.35 0.05,0.05 0.45,0.95 0.1,0.45 0.15,0.35 0.25,0.9 0.05,2.2 1.5,0.25 2.2,0.25 2.05,-0.05 h 1.05 l 5.3,-0.4 6.4,0.45 H 27.15 33 q -1.3,-1.65 -2.1,-4.1 l -1.55,-4.35 -0.7,-2.2 q -0.7,-2.65 -1.1,-5.8 l 0.05,-0.3 0.5,-0.05 0.35,0.5 q 0.6,1.6 1.75,4 l -0.65,-2.15 -0.9,-2.3 -1.4,-2.6 -2.9,-3 q -0.3,-0.2 -0.2,-0.4 l 0.4,-0.1 q 2.2,0.6 3.85,2.3 L 29.75,14 q 2.4,3.1 3.45,5.6 l 0.95,2.9 0.75,2.95 q 1.05,3.65 2.55,5.45 1.1,1.2 1.25,2 h 0.5 3 2.05 2.35 0.2 L 47,32.5 q 1.05,-2.25 1.3,-4.1 0.35,-2.45 -0.35,-5.5 L 46.2,17.55 44.55,13.1 42.8,11.45 Q 40.15,8.9 38.15,8 L 36.2,7.3 34.15,6.7 31.25,5.75 Q 28.2,4.85 23.95,4.95 L 22.8,4.75 22.45,4.35 q -0.15,-0.3 0,-0.55 0.15,-0.3 0.6,-0.4 2.2,-0.75 5,-0.7 l 5.15,0.55 q 3.3,0.45 5.15,1.15 2.35,0.9 4.2,2.35 l 0.15,0.1 1,0.85 0.45,0.25 Q 46.3,9.6 48.2,13.8 l 2.1,5.1 q 2.05,5.6 1.75,9.05 -0.15,1.85 -0.8,3.55 l -0.55,1.4 h 0.45 l 5.35,-0.05 h 1.95 l 0.4,-0.05 h 0.1 0.1 l 0.15,-0.05 h 0.15 l 1.35,0.05 h 0.45 l 0.55,-0.05 h 0.2 0.4 0.25 l 0.15,0.05 h 0.15 l 0.15,0.1 0.1,0.05 0.1,0.05 0.05,0.1 0.05,0.05 0.05,0.05 0.05,0.05 0.05,0.1 0.05,0.05 v 0.1 l 0.05,0.1 v 0.15 0.1 0.15 l -0.05,0.1 v 0.1 l -0.05,0.1 v 0.1 l 0.05,0.05 v 0.1 0.1 0.15 0.1 0.1 0.1 0.05 l 0.05,0.05 v 0.05 0.1 0.15 0.1 0.15 0.1 0.1 0.1 0.15 0.1 0.15 0.1 0.15 0.1 0.15 0.1 0.1 0.1 0.15 0.1 0.15 0.1 0.15 0.1 0.1 0.1 0.15 0.1 0.15 0.1 0.15 0.1 0.15 0.1 0.1 0.1 0.15 0.1 0.15 l 0.05,0.1 v 0.15 0.1 0.1 0.1 0.15 0.1 0.15 0.1 0.15 0.1 0.15 0.1 0.1 0.1 0.15 0.1 0.15 0.1 0.15 0.1 0.1 0.1 0.15 0.1 0.15 0.1 0.15 0.1 0.15 0.1 0.1 0.1 0.15 0.1 0.15 0.1 0.15 0.1 0.1 0.1 0.15 0.1 0.15 0.1 0.15 0.1 0.15 0.1 0.1 0.1 0.15 0.1 0.15 0.1 0.15 0.1 0.15 0.1 0.1 0.1 0.15 0.1 0.15 0.1 0.15 0.1 0.1 0.1 0.15 0.1 0.15 0.1 0.15 0.1 0.15 0.1 0.1 0.1 0.15 0.1 0.15 0.1 0.15 0.1 0.1 0.1 0.15 0.1 0.15 0.1 0.15 0.1 0.15 0.1 0.1 0.1 0.15 0.1 0.15 0.1 0.15 0.1 0.1 0.1 0.15 0.1 0.15 0.1 0.15 0.1 0.15 0.1 0.1 0.1 0.15 0.1 0.15 0.1 0.15 0.1 0.1 0.1 0.2 h 0.35 0.4 l 0.2,0.05 h 0.15 l 0.1,0.05 0.15,0.05 0.1,0.05 0.1,0.1 0.1,0.05 v 0.05 l 0.05,0.05 0.05,0.1 0.05,0.05 0.05,0.05 v 0.05 l 0.05,0.1 v 0.1 0.1 0.15 0.1 0.15 l -0.05,0.1 v 0.05 l -0.1,0.1 -0.05,0.1 -0.05,0.05 v 0.05 l -0.1,0.1 -0.1,0.05 -0.1,0.05 -0.15,0.05 -0.1,0.05 -0.15,0.05 H 64.35 63.95 63.1 62.2 59.9 56.25 52.5 50.8 31.95 29 L 24,56.8 h -1 l -1.55,-0.05 h -4 L 9.3,56.7 H 8.7 L 8.55,56.75 H 8.35 L 8.15,56.8 H 7.9 L 7.3,56.85 H 6.55 4 3.4 L 2.7,56.8 H 2.55 L 2.4,56.75 2.35,56.8 2.25,56.85 2.1,56.9 2,56.95 1.95,57 H 1.7 1.5 L 1.35,56.95 1.2,56.85 1.1,56.8 1.05,56.75 0.95,56.7 0.9,56.6 0.85,56.55 0.8,56.5 0.75,56.45 v -0.1 L 0.7,56.3 V 56.25 L 0.65,56.15 V 56 55.9 55.8 L 0.6,55.75 v -0.1 -0.15 -0.1 -0.15 -0.1 -0.1 -0.1 -0.15 -0.1 -0.15 -0.1 -0.15 L 0.55,54.2 v -0.15 -0.1 -0.1 -0.1 -0.15 -0.1 -0.15 -0.1 -0.15 -0.1 -0.1 -0.1 -0.15 -0.1 -0.15 -0.1 -0.15 -0.1 -0.15 -0.1 -0.1 -0.1 -0.15 -0.1 -0.15 -0.1 -0.15 -0.1 -0.1 -0.1 -0.15 -0.1 -0.15 -0.1 -0.15 -0.1 -0.15 -0.1 -0.1 -0.1 -0.15 -0.1 -0.15 -0.1 L 0.6,48.9 v -0.1 -0.1 -0.1 -0.1 -0.15 -0.1 -0.15 -0.1 -0.15 -0.1 -0.15 -0.1 -0.1 -0.1 -0.15 -0.1 -0.15 -0.1 -0.15 -0.1 -0.1 -0.1 -0.15 -0.1 -0.15 -0.1 -0.15 -0.1 -0.15 -0.1 -0.1 -0.1 V 45 44.9 44.75 44.65 44.5 44.4 44.3 44.2 44.05 43.95 43.8 43.7 43.55 43.45 43.3 43.2 43.1 43 42.85 l 0.05,-0.1 v -0.15 -0.1 -0.15 -0.1 -0.1 -0.1 -0.15 -0.1 -0.15 -0.1 -0.15 -0.1 -0.15 -0.1 -0.1 -0.1 -0.15 -0.1 -0.15 -0.1 -0.15 -0.1 -0.15 -0.1 -0.1 -0.1 -0.15 -0.1 -0.15 -0.1 -0.1 L 0.7,39 v -0.1 -0.1 -0.1 -0.15 -0.1 -0.15 -0.1 -0.15 -0.1 -0.15 -0.1 -0.1 -0.1 -0.15 -0.1 -0.15 -0.1 -0.15 -0.1 -0.1 -0.1 -0.15 -0.1 -0.15 -0.1 -0.15 -0.1 -0.15 -0.1 -0.1 l 0.05,-0.1 V 35.2 35.1 34.95 34.85 34.7 34.6 34.5 L 0.8,34.4 v -0.15 -0.1 L 0.75,34.05 0.7,34 0.65,33.95 V 33.9 33.8 33.7 L 0.7,33.6 0.8,33.5 0.9,33.45 h 0.05 l -0.3,-0.65 -0.1,-1.15 0.2,-2.6 0.1,-0.55 0.15,-0.3 -1.45,-1 q -1.1,-1.4 -0.75,-2.95"
         fill="#999999"
         fill-rule="evenodd"
         stroke="none"
         id="path4" />
      <path
         d="m 44.8,12.05 q 1.25,2.25 2.15,5.15 l 0.25,0.6 1.05,2.3 0.5,1.35 q 0,-1.65 -0.7,-3.4 -1.2,-3 -1.15,-3.3 0.15,-0.3 0.3,-0.05 l 1.5,2.55 q 1.35,2.35 1.85,4.25 L 51,24.25 q 0.35,3.95 -0.5,6.6 -1.3,3.75 -4.4,5.05 -1.4,0.65 -3.15,0.65 -2.2,0.05 -4.25,-0.8 -2,-0.9 -3.4,-2.45 -0.9,-0.95 -1.85,-2.6 l -1.5,-2.85 q -1,-2.45 -1.3,-6.5 l -0.1,-4.45 q 1.25,5.3 2.4,7.85 L 32.6,22.4 32.35,19.3 q -2.05,-6.2 -5.6,-9.15 -1.25,-1.1 -2.4,-1.4 l -2.9,-0.2 q -4.85,0.35 -7.8,2.55 -1.8,1.3 -3.95,4.35 l -1.9,3 -0.4,0.35 Q 6.85,18.9 7.1,17.95 7.5,16.5 8.8,14.25 10.95,10.4 13.45,8.1 16.25,5.45 20.25,4.1 24,2.8 28,2.9 L 31.7,3.25 35.4,4 q 5.8,1.8 9.4,8.05 m 1.75,28.35 q -1.25,0 -2,0.9 l -0.6,0.85 q -0.25,0.8 -0.1,1.5 0.25,1.2 1.15,1.8 1.2,0.8 2.5,0.3 1.3,-0.4 1.7,-1.8 0.4,-1.3 -0.4,-2.45 -0.9,-1.2 -2.25,-1.1 m -3.85,2 q 1,-1.1 1.95,-1.7 v -0.2 -0.75 q 0.15,-1.5 1.4,-2.4 1.25,-0.85 2.7,-0.85 1.15,-0.1 2.15,0.45 1.05,0.55 1.4,1.6 l 0.15,0.75 -0.05,1.35 1.35,0.8 0.85,0.75 q 1.25,-0.4 2.6,0 1.9,0.55 2.7,2.35 0.8,1.8 0,3.55 l -0.65,0.95 -0.6,0.5 q -0.9,0.6 -1.8,0.85 -0.75,2.45 -2.8,3.65 l -0.55,0.25 0.35,0.8 0.4,1.45 q 0.1,0.85 -0.35,1.6 -0.45,0.75 -1.25,1 h -1.8 L 45.6,58.8 43.7,58.6 Q 42.8,58.35 42.3,57.55 41.75,56.75 41.95,55.85 42.1,55.2 42.8,54.3 L 43.7,53 q -1.1,-0.9 -1.85,-2.25 -1.8,-3.15 -0.35,-6.4 l 1.2,-1.95 m 7.35,5.1 -0.05,0.3 v 0.25 q -0.1,1.25 1,2.1 1.1,0.85 2.3,0.45 1.3,-0.3 1.75,-1.5 l 0.2,-0.75 q 0.15,-1.1 -0.65,-2.05 -0.8,-0.9 -2,-0.9 l -0.1,0.05 q -1.1,-0.05 -1.95,0.95 -0.4,0.5 -0.5,1.1 m -2.95,2 0.35,0.5 0.4,0.3 q 0.65,0.2 0.85,-0.45 0.1,-0.4 -0.4,-1 l -0.1,-0.1 0.25,-0.4 0.15,-0.95 q -0.2,-0.6 -0.65,-0.6 -0.2,0 -0.45,0.15 l -0.55,0.35 v 0.1 l -0.2,0.3 -0.6,-0.4 -0.9,-0.1 q -0.55,0.25 -0.55,0.85 0.1,0.6 0.65,0.75 l 0.55,0.05 q 0.7,0.05 1.2,0.65 m 9.45,4.05 0.45,-0.35 2.45,-1.45 0.6,-0.15 h 0.35 l 0.3,0.3 -0.15,0.45 -1.5,1.2 -0.9,0.55 -0.35,0.3 -0.25,1.9 -0.2,0.5 -0.25,0.45 q -0.4,0.4 -0.9,0.25 -0.5,-0.05 -0.7,-0.65 l 0.05,-0.9 0.25,-0.9 0.4,-1 0.35,-0.5"
         fill="#000000"
         fill-rule="evenodd"
         stroke="none"
         id="path5" />
      <path
         d="m 46.55,40.4 q 1.35,-0.1 2.25,1.1 0.8,1.15 0.4,2.45 -0.4,1.4 -1.7,1.8 -1.3,0.5 -2.5,-0.3 -0.9,-0.6 -1.15,-1.8 -0.15,-0.7 0.1,-1.5 l 0.6,-0.85 q 0.75,-0.9 2,-0.9 m 0.55,9.1 Q 46.6,48.9 45.9,48.85 L 45.35,48.8 q -0.55,-0.15 -0.65,-0.75 0,-0.6 0.55,-0.85 l 0.9,0.1 0.6,0.4 0.2,-0.3 v -0.1 l 0.55,-0.35 q 0.25,-0.15 0.45,-0.15 0.45,0 0.65,0.6 l -0.15,0.95 -0.25,0.4 0.1,0.1 q 0.5,0.6 0.4,1 -0.2,0.65 -0.85,0.45 L 47.45,50 47.1,49.5 m 2.95,-2 q 0.1,-0.6 0.5,-1.1 0.85,-1 1.95,-0.95 l 0.1,-0.05 q 1.2,0 2,0.9 0.8,0.95 0.65,2.05 l -0.2,0.75 Q 54.6,50.3 53.3,50.6 52.1,51 51,50.15 49.9,49.3 50,48.05 V 47.8 l 0.05,-0.3"
         fill="#ffffff"
         fill-rule="evenodd"
         stroke="none"
         id="path6" />
    </g>
    <g
       id="shape2"
       transform="translate(1.5,1.5)">
      <path
         d="M 0,23.8 V 0 H 64.1 V 23.8 57.55 H 0 Z"
         fill="none"
         stroke="#000000"
         stroke-linecap="round"
         stroke-linejoin="round"
         stroke-width="3"
         id="path7" />
    </g>
  </defs>
</svg>
