<?xml version="1.0" encoding="UTF-8" standalone="no"?>
<svg
   ffdec:objectType="frame"
   height="44.349998"
   width="78.599998"
   version="1.1"
   id="svg12"
   sodipodi:docname="58.svg"
   xmlns:inkscape="http://www.inkscape.org/namespaces/inkscape"
   xmlns:sodipodi="http://sodipodi.sourceforge.net/DTD/sodipodi-0.dtd"
   xmlns:xlink="http://www.w3.org/1999/xlink"
   xmlns="http://www.w3.org/2000/svg"
   xmlns:svg="http://www.w3.org/2000/svg"
   xmlns:ffdec="https://www.free-decompiler.com/flash">
  <sodipodi:namedview
     id="namedview12"
     pagecolor="#ffffff"
     bordercolor="#000000"
     borderopacity="0.25"
     inkscape:showpageshadow="2"
     inkscape:pageopacity="0.0"
     inkscape:pagecheckerboard="0"
     inkscape:deskcolor="#d1d1d1"
     fit-margin-top="5"
     fit-margin-left="5"
     fit-margin-right="5"
     fit-margin-bottom="5" />
  <g
     transform="translate(2,2.05)"
     id="g3">
    <use
       ffdec:characterId="1"
       height="42.700001"
       transform="translate(-1.75,-2)"
       width="76.449997"
       xlink:href="#shape0"
       id="use1" />
    <use
       ffdec:characterId="57"
       height="39.849998"
       transform="translate(-1.5,2.15)"
       width="70.849998"
       xlink:href="#shape1"
       id="use2" />
    <use
       ffdec:characterId="3"
       height="44.349998"
       transform="translate(-2,-2.05)"
       width="78.599998"
       xlink:href="#shape2"
       id="use3" />
  </g>
  <defs
     id="defs12">
    <g
       id="shape0"
       transform="translate(1.75,2)">
      <path
         d="M 2.8,0 V -0.4 H 5.4 V 0 H 9.7 V 19.45 0 H 20.55 L 19.3,19.45 H 9.7 0.25 V 0 H 2.8"
         fill="#ffffff"
         fill-rule="evenodd"
         stroke="none"
         id="path3" />
      <path
         d="M 0.25,19.45 H 9.7 19.3 L 18.7,28.6 16,28.5 10.95,27.95 9.7,27.8 Q 7.45,27.6 5.85,27.75 4.05,27.9 1.5,28.6 0.75,28.8 0.25,29.15 v -9.7 m 9.45,0 v 8.35 -8.35"
         fill="#121212"
         fill-rule="evenodd"
         stroke="none"
         id="path4" />
      <path
         d="m 9.7,27.8 1.25,0.15 5.05,0.55 2.7,0.1 h 1.05 l 3.75,0.15 q 2.45,0.3 3.6,1.25 0.6,0.5 0.6,1.1 0,0.65 -0.8,1 l -1.3,0.2 -7.15,0.15 -5.6,-0.3 L 9.7,31.75 7.95,31.6 3.1,31.95 0.95,32.3 0.25,32.1 -0.35,31.55 -0.5,31.3 V 29.9 L 0.25,29.15 Q 0.75,28.8 1.5,28.6 4.05,27.9 5.85,27.75 7.45,27.6 9.7,27.8 v 3.95 -3.95"
         fill="#999999"
         fill-rule="evenodd"
         stroke="none"
         id="path5" />
      <path
         d="M 2.8,0 H 0.25 M 9.7,0 H 5.4 m 16.15,0 h 10.7 M 20.55,0 H 9.7"
         fill="none"
         stroke="#666666"
         stroke-linecap="round"
         stroke-linejoin="round"
         stroke-width="4"
         id="path6" />
      <path
         d="m 9.7,-0.4 h 65 V 40.5 H 47.05 L 45.5,40.7 27,40.65 25.95,40.5 H 9.7 -0.5 V -0.4 H 9.7 V 40.5 -0.4"
         fill="#ffffff"
         fill-rule="evenodd"
         stroke="none"
         id="path7" />
    </g>
    <g
       id="shape1"
       transform="translate(1.5,-2.15)">
      <path
         d="M 39.95,8.6 38.35,8.55 Q 37.6,8 37.75,7 37.85,6.2 38.7,5.65 l 0.75,-0.2 q 0.5,0 0.9,0.35 l 0.4,0.6 Q 41.2,6 41.85,6.05 l 1.3,0.45 3.65,1.5 0.95,0.5 0.6,0.45 1.2,0.8 0.35,0.4 L 48.65,10.2 46.5,10.4 45.55,10.3 42.4,9.6 41.4,9.2 40.65,8.75 40.3,8.25 39.95,8.6 m 4.2,19.55 q -1.05,0 -1.5,-1.05 l -0.2,-0.7 0.05,-0.65 0.7,-1 q 0.55,-0.4 1.2,-0.4 l 0.95,0.15 0.3,-0.1 Q 46.7,24 47.7,23.85 h 1.2 l 0.75,0.05 0.7,-0.15 2.25,-0.2 -0.25,0.15 -2.9,1.3 -1.15,0.75 -2.45,0.8 -0.55,0.95 q -0.4,0.55 -1.15,0.65 m -22.1,-19.8 4,0.35 3.75,0.9 2.35,0.55 1.05,0.45 1.45,0.05 0.8,0.3 q 1.05,0.55 1.95,1.2 l -1.25,-0.3 -2.3,-0.15 -1.55,0.1 -2.5,-0.05 -1.85,-0.15 -6.1,0.2 -1.65,-0.2 q -1,-0.4 -1,-1.6 0.1,-1.15 1.1,-1.55 l 1.75,-0.1 M 5.5,39.7 Q 4.05,40.8 2.2,40.7 0.85,40.6 0.3,39.75 -0.2,39.05 0,38 L 0.15,37.2 -0.1,37.1 q -0.85,-0.35 -1.2,-1.15 -0.45,-1.1 0.2,-2.35 L 0.4,31.7 Q 9,22.75 17.5,19.4 q 3.95,-1.5 6.7,-1.3 4,0.25 6,3 1.15,1.65 1.15,3.8 -0.05,2.15 -1.3,3.7 -0.8,1.1 -1.85,1.3 l -1.05,-0.15 -0.9,0.8 -3.3,2.4 -5.6,3.65 -4.6,3.25 Q 11.3,41.1 10.4,41.15 9.7,41.25 9.05,40.8 8.45,40.35 8.25,39.65 l -1.4,0.6 Q 5.9,40.45 5.5,39.7"
         fill="#999999"
         fill-rule="evenodd"
         stroke="none"
         id="path8" />
      <path
         d="m 6.95,3.95 0.3,-0.1 V 3.5 Q 7.35,2.95 7.8,2.55 8.25,2.15 8.8,2.15 9.35,2.1 9.85,2.5 q 0.5,0.4 0.6,0.95 L 10.5,3.8 h 0.05 q 1.65,0.85 2.15,1.95 0.3,0.75 0.2,1.5 -0.15,0.8 -0.75,1.2 L 11.35,8.7 Q 10.95,8.65 10.75,8.25 10.5,7.85 10.7,7.45 L 10.9,7.05 10.65,6.7 Q 9.6,5.85 8.85,5.85 8.4,5.9 7.6,6.4 6.45,7.15 6.35,7.8 6.75,8.2 7.45,8.35 L 8.7,8.6 q 1.75,0.35 2.6,1.55 l 0.55,1.2 q 0.45,1.45 0.35,2.05 l -0.55,1.5 q -1.2,1.9 -2.75,2.25 H 8.8 Q 9.15,17.85 9,18.5 8.95,19.3 8.15,19.75 L 6.8,19.7 Q 6.15,19.3 6.05,18.6 L 6,17.85 6.05,17.2 5.8,17.15 Q 4.6,16.85 3.85,15.7 3.3,15 3.45,14.05 q 0.15,-1 1.1,-1.25 l 1,0.2 0.7,0.85 L 6.6,14.4 7.1,14.5 8.35,14.35 9.2,13.45 9.4,13 9.3,12.55 8.85,11.5 Q 8.55,11.2 7.4,11 5.9,10.8 4.65,9.75 L 3.85,8.75 3.8,8.05 Q 3.95,6.75 4.85,5.6 5.65,4.7 6.95,3.95"
         fill="#000000"
         fill-rule="evenodd"
         stroke="none"
         id="path9" />
      <path
         d="m 57.4,13.85 0.05,0.4 0.4,0.4 0.55,-0.15 0.2,-0.6 -0.1,-1.1 0.4,-0.1 0.95,-0.45 0.45,-0.2 0.5,-0.5 v -0.5 q -0.1,-0.4 -0.6,-0.4 L 59.4,10.75 58.3,11.3 57.65,11 57.1,10.65 h -0.6 q -0.3,0.2 -0.3,0.45 -0.05,0.4 0.5,0.75 l 0.6,0.4 v 0.2 l -0.05,0.9 0.15,0.5 M 66.15,13 q 0.95,-0.85 1.8,-0.85 0.55,0.05 0.95,0.4 0.4,0.35 0.45,0.85 0,0.8 -0.75,1.3 l -1.4,0.6 q -0.9,0.3 -1.3,0.75 0.1,0.25 -0.2,0.35 l -0.4,-0.2 -0.15,-0.45 0.1,-0.95 q 0.25,-1.05 0.9,-1.8 m -5.6,-7.15 q 2.1,0.95 3.25,2.85 1.25,2.35 0.55,4.95 -0.4,1.35 -1.2,2.4 l 1.65,2.65 q 1.35,2.8 1.05,6.05 -0.4,4.5 -3.75,7.4 -1.65,1.4 -3.7,2.05 l -4.2,0.3 -1.45,-0.4 -0.2,0.45 -0.8,1.8 q -0.65,0.8 -1.85,1.15 l -2.2,0.15 q -1.5,0 -2.45,-0.5 -1.25,-0.7 -1.5,-1.95 l -0.05,-1.55 -0.9,0.1 Q 42.35,34 42.15,34.4 l -0.2,0.9 q -0.05,0.6 -0.3,0.8 l -1.2,-0.05 q -0.35,-0.4 -0.25,-1.1 0,-1.25 0.35,-2.15 0.5,-1.15 1.45,-1.6 0.5,-0.25 1.55,-0.35 1.5,0 2.15,0.55 0.85,0.65 0.85,2.3 0.1,0.65 0.3,0.8 l 0.4,0.15 1,0.1 1.2,-0.3 0.5,-1.35 q 0.1,-0.75 0.35,-1.35 -0.8,-1.65 -0.75,-3.2 0.05,-1.35 1.15,-3.75 1.15,-2.45 1.85,-3.35 l 0.85,-1.2 q 0.4,-0.75 0.4,-1.4 l -0.1,-0.4 -0.2,-0.1 q -1.15,-0.5 -2.25,-1.8 L 50.2,15 50,15.1 q -1.45,0.95 -2.95,0.55 l -0.85,-0.3 -0.7,-0.45 -1,-1.25 q -0.3,-0.75 -0.1,-2 0,-0.35 0.15,-0.65 0.3,-0.75 1.3,-1.3 l 0.65,-0.3 2,-0.2 1.4,0.4 q 0.4,-1.15 1.2,-2.05 l 1.4,-1.2 Q 52.2,5.75 52.3,5 52.35,4.35 52.8,3.55 53.35,2.75 53.95,2.5 l 1.3,-0.25 q 1.85,0.2 2.3,1.55 L 57.65,5.05 58,5.1 q 1.35,0.15 2.55,0.75 m -3.7,2.4 q 0.2,0.4 0.7,0.6 0.5,0.2 0.9,0 l 0.7,-0.6 0.15,-0.95 q -0.25,-1 -1.35,-1 -0.45,0 -0.8,0.3 -0.35,0.3 -0.45,0.75 v 0.4 l 0.15,0.5 M 49.4,4.45 q 0.55,0.85 0.55,1.5 L 49.6,7 49.2,7.5 q -0.35,0 -0.5,-0.2 L 48.35,6.85 47.3,6.05 Q 46.55,5.6 46.35,5.15 46,4.4 46.45,3.8 46.9,3.1 47.7,3.2 q 0.9,0.05 1.7,1.25 m -13.05,0.15 0.8,-0.65 0.95,-0.3 0.85,-0.1 q 0.45,0 1.15,0.3 l 1.05,0.45 0.9,0.75 0.35,0.4 0.2,0.75 q 0.1,1.65 -0.55,2.4 L 41.4,9.2 40.7,9.65 39.25,9.95 38.3,9.9 37,9.35 36.05,8.65 35.65,7.95 Q 35.5,7.5 35.6,6.25 q 0,-0.4 0.15,-0.7 L 36.35,4.6 M 40.6,6.35 40.15,5.7 39.9,5.6 38.3,5.3 q -0.35,0 -0.7,0.25 L 37.25,6.1 q -0.05,0.4 0.2,0.85 l 0.7,0.5 Q 38.9,7.85 39.4,7.7 L 40.05,7.45 40.55,7 40.6,6.35 m 7.8,11.7 q 0.45,0.15 0.9,0.65 l 0.8,1.7 0.1,0.75 -0.45,0.55 -0.7,-0.25 -0.55,-0.55 -1,-0.25 q -0.5,-0.2 -0.8,-0.7 -0.25,-0.55 -0.05,-1.05 0.15,-0.5 0.7,-0.8 l 1.05,-0.05 m -6.55,8.2 0.65,0.4 1.15,0.4 1.15,-0.9 0.4,-0.5 0.3,-0.65 -0.4,-0.55 -0.95,-0.6 -0.35,-0.1 -0.4,0.15 -0.9,0.25 -0.55,0.5 -0.15,0.55 q -0.2,0.7 0.05,1.05 M 40.4,27.8 40,27.3 39.65,26.55 q -0.1,-0.5 0.2,-1.3 l 0.3,-1.05 0.2,-0.5 0.45,-0.5 q 0.9,-0.85 2.2,-1.05 l 2.45,0.3 0.3,0.2 h 0.05 q 0.75,0.3 1.15,1 l 0.2,0.5 0.15,0.6 q 0.2,0.95 -0.25,2.15 L 46.7,27.65 46,28.2 q -1.1,0.7 -2.75,0.7 L 42,28.7 Q 41,28.45 40.4,27.8 M 52,14.6 q 0.75,0.65 1.6,0.15 0.9,-0.45 0.7,-1.4 -0.05,-0.55 -0.5,-0.95 l -1.05,-0.3 q -0.5,0.05 -0.9,0.5 -0.4,0.45 -0.4,1 0.1,0.6 0.55,1 M 19.05,12.6 18.3,12.35 17.45,11.8 Q 16.55,10.95 16.8,9.45 16.95,8.7 17.45,7.85 L 18.3,6.8 q 0.4,-0.4 1.3,-0.7 l 0.7,-0.25 h 1.25 q 1.7,0.25 2.65,1.1 l 0.45,0.65 q 0.7,0.3 0.85,1.25 0.15,0.75 -0.35,1.7 -0.55,1.1 -1.55,1.65 l -2.65,0.4 H 20.8 q -0.8,0.25 -1.75,0 m 2,-1.95 h 0.75 l 0.75,-0.4 0.6,-0.5 Q 23.4,9.45 23.3,9 L 22.9,8.5 22.4,8.05 21.15,7.8 20.55,7.9 q -0.65,0.2 -1.15,0.8 -0.45,0.65 -0.45,1.35 0.75,0.5 2.1,0.6 M 10.75,40.2 q 0,-1 1.45,-2.35 4.75,-4.45 8.05,-6.1 l 4.25,-1.8 q 2.55,-1.1 3.95,-2.15 2.1,-1.55 2.35,-3.3 0.25,-1.35 -0.55,-2.7 -0.7,-1.25 -2.05,-2 -2.1,-1.15 -5.55,-0.95 -3.05,0.2 -5,0.85 -3.05,0.95 -7.65,4.35 -4.75,3.55 -9.2,7.25 -1.25,1.15 -2,0.5 -0.7,-0.7 0.4,-2.05 5.25,-6.45 12.15,-11.15 2.2,-1.5 3.95,-2.25 2.05,-0.9 4.7,-1.3 3.45,-0.6 6.35,-0.1 l 0.75,-0.7 q 1.4,-0.95 3.2,-1.35 l 1.65,0.05 0.75,0.4 q 0.3,0.3 0.25,0.7 -0.1,0.5 -1.2,0.95 -1,0.35 -1.75,1.15 1.2,0.6 2.2,1.5 l 0.45,-0.25 1.9,-0.4 1.8,-0.05 q 0.45,0.15 0.75,0.45 0.35,0.3 0.25,0.7 -0.05,0.45 -1.05,0.8 -1.25,0.45 -1.7,0.85 l -0.4,0.5 0.55,1.4 2.1,0.25 q 1.2,0.5 1.2,1.4 -0.1,0.65 -0.6,0.85 l -1.05,0.1 q -0.8,0 -1.5,0.4 -0.25,1.6 -1.2,3.2 -1.4,2.3 -3.8,3.8 -1.4,0.95 -4.2,2.1 -3.1,1.25 -4.25,1.9 -2.8,1.5 -5.95,4.65 -2.15,2.15 -3.65,1.6 -1.2,-0.55 -1.1,-1.7 m 10.9,-19.25 q 0.85,0.25 1.1,1.1 l 0.05,0.75 q -0.2,1.2 -1.25,1.35 -1.1,0.25 -1.7,-0.75 -0.25,-0.45 -0.15,-1.2 0.2,-0.8 0.8,-1.15 l 1.15,-0.1 m 6.05,1.7 0.05,0.55 -0.45,0.95 -0.95,0.45 -1,-0.25 Q 24.85,24 24.7,23.5 q -0.15,-0.55 0.05,-1.05 0.2,-0.55 0.7,-0.8 l 1.05,-0.1 q 0.55,0.1 0.9,0.5 l 0.3,0.6 m -7.85,2.3 q 1.3,-0.35 2.3,0 1.3,0.45 1.7,1.5 0.4,1.25 -0.55,2.45 -0.55,0.8 -2,1.55 -1.25,0.65 -2,0.5 -0.55,-0.1 -1.3,-0.75 -0.75,-0.65 -1,-1.25 -0.6,-1.3 0.5,-2.65 0.8,-1 2.35,-1.35 m 17.4,7.65 -0.9,1.25 -1.15,0.25 Q 34.5,34 34.15,33.45 33.8,32.95 33.95,32.25 34.1,31.6 34.6,31.2 l 1.3,-0.5 1.25,-0.3 1.35,-0.05 q 0.8,0.2 0.65,0.8 -0.05,0.35 -0.65,0.55 l -1.25,0.9 M 25.3,27.4 25.35,26.75 q 0.25,-0.7 1.05,-0.9 1,-0.1 1.4,0.75 0.4,0.9 -0.35,1.6 l -1.6,0.1 Q 25.4,28 25.3,27.4"
         fill="#000000"
         fill-rule="evenodd"
         stroke="none"
         id="path10" />
      <path
         d="m 57.4,13.85 -0.15,-0.5 0.05,-0.9 v -0.2 l -0.6,-0.4 q -0.55,-0.35 -0.5,-0.75 0,-0.25 0.3,-0.45 h 0.6 l 0.55,0.35 0.65,0.3 1.1,-0.55 0.8,-0.1 q 0.5,0 0.6,0.4 v 0.5 l -0.5,0.5 -0.45,0.2 -0.95,0.45 -0.4,0.1 0.1,1.1 -0.2,0.6 -0.55,0.15 -0.4,-0.4 -0.05,-0.4 M 56.85,8.25 56.7,7.75 v -0.4 q 0.1,-0.45 0.45,-0.75 0.35,-0.3 0.8,-0.3 1.1,0 1.35,1 l -0.15,0.95 -0.7,0.6 q -0.4,0.2 -0.9,0 -0.5,-0.2 -0.7,-0.6 M 52,14.6 q -0.45,-0.4 -0.55,-1 0,-0.55 0.4,-1 0.4,-0.45 0.9,-0.5 l 1.05,0.3 q 0.45,0.4 0.5,0.95 0.2,0.95 -0.7,1.4 -0.85,0.5 -1.6,-0.15"
         fill="#ffffff"
         fill-rule="evenodd"
         stroke="none"
         id="path11" />
    </g>
    <g
       id="shape2"
       transform="translate(2,2.05)">
      <path
         d="M -0.5,-0.4 V -0.55 H 75.1 V -0.4 40.8 H -0.5 Z"
         fill="none"
         stroke="#000000"
         stroke-linecap="round"
         stroke-linejoin="round"
         stroke-width="3"
         id="path12" />
    </g>
  </defs>
</svg>
