<svg xmlns:ffdec="https://www.free-decompiler.com/flash" xmlns:xlink="http://www.w3.org/1999/xlink" ffdec:objecttype="frame" xmlns="http://www.w3.org/2000/svg" viewBox="2.03 8.57 66.18 60.74">   <g transform="matrix(1.0, 0.0, 0.0, 1.0, 3.45, 10.4)">     <use ffdec:characterid="516" height="57.55" transform="matrix(1.0, 0.0, 0.0, 1.0, 0.0, 0.0)" width="64.1" xlink:href="#shape0"></use>     <use ffdec:characterid="539" height="60.75" transform="matrix(1.0, 0.0, 0.0, 1.0, 0.0, 0.0)" width="66.15" xlink:href="#shape1"></use>     <use ffdec:characterid="518" height="60.55" transform="matrix(1.0, 0.0, 0.0, 1.0, 0.0, 0.0)" width="67.1" xlink:href="#shape2"></use>   </g>   <defs>     <g id="shape0">       <path d="M53.6 0.0 L64.1 0.0 64.1 57.55 53.6 57.55 28.25 57.55 0.0 57.55 0.0 0.0 28.25 0.0 53.6 0.0 53.6 57.55 53.6 0.0 M28.25 0.0 L28.25 57.55 28.25 0.0" fill="#ffffff" fill-rule="evenodd" stroke="none"></path>     </g>     <g id="shape1">       <path d="M44.7 41.4 L51.7 39.25 53.55 38.65 54.55 38.4 Q55.15 38.45 56.55 39.6 L57.0 39.8 57.5 39.75 62.45 38.65 63.45 38.65 Q64.05 38.75 64.2 39.25 64.4 39.85 63.7 40.35 L62.45 40.7 57.8 41.75 56.05 41.9 55.25 41.25 54.45 40.6 52.6 40.7 46.4 42.65 46.15 42.35 45.05 41.65 44.7 41.4 M46.6 43.55 L47.6 43.5 53.55 43.3 55.3 43.5 Q56.0 43.9 56.3 45.25 L57.3 48.75 Q60.45 49.45 62.6 50.25 64.15 50.75 64.6 51.6 64.85 52.15 64.7 52.8 L64.05 53.8 61.65 53.95 59.2 53.15 56.7 52.45 55.6 52.3 Q54.95 52.15 54.65 51.8 54.3 51.45 54.1 50.4 L53.15 46.7 44.25 46.45 41.45 46.1 41.1 46.0 42.15 45.35 43.0 45.2 44.75 45.15 Q45.75 45.05 46.3 44.45 L46.6 43.55 M39.85 46.45 L39.8 46.55 Q39.7 47.65 39.85 48.05 L44.6 48.8 46.4 49.1 Q47.0 49.4 47.8 50.4 L51.05 54.5 Q52.35 56.35 52.1 57.3 51.95 58.05 51.2 58.45 L49.8 58.55 Q49.0 58.2 48.3 57.0 L45.25 52.6 44.8 52.1 43.85 51.9 39.25 51.05 Q37.95 50.6 37.65 49.95 37.5 49.55 37.6 48.75 L37.9 46.65 39.85 46.45 M35.3 46.2 L33.3 47.25 29.75 49.15 32.7 49.5 Q34.0 49.5 34.4 50.0 34.95 50.55 34.55 51.55 L33.5 52.9 30.6 56.85 29.65 58.15 Q29.05 58.85 28.25 58.9 27.4 59.0 26.85 58.25 26.35 57.5 26.65 56.75 26.85 56.25 27.4 55.7 L31.05 51.85 27.7 51.2 26.7 50.75 Q26.2 50.3 26.25 49.8 26.25 49.4 26.75 49.0 L27.65 48.5 29.7 47.4 32.35 45.9 31.5 46.1 27.75 46.85 Q24.2 47.55 21.2 48.7 20.8 48.8 20.65 49.05 20.55 49.3 20.75 49.7 L21.35 50.95 Q21.65 51.8 21.2 52.3 20.85 52.75 19.8 52.85 12.45 53.65 7.3 55.35 L1.9 57.15 0.05 57.3 Q-1.1 57.1 -1.35 56.2 -1.65 55.2 -0.65 54.45 L1.15 53.65 Q10.25 51.15 17.9 50.15 17.3 48.2 17.95 47.3 18.45 46.75 19.75 46.45 L30.3 44.25 30.3 44.9 Q30.55 45.6 31.15 45.8 L32.2 45.85 33.95 45.5 34.0 45.5 34.05 45.55 35.3 46.2 M30.35 44.1 L21.0 44.05 18.85 44.35 17.25 45.15 12.25 48.15 Q11.45 48.65 10.95 48.75 L8.95 48.8 2.1 48.6 0.7 48.45 Q-0.2 48.15 -0.05 47.35 0.05 46.6 1.55 46.35 5.05 45.95 8.4 46.25 L10.55 46.2 Q11.4 46.05 12.35 45.55 L15.3 44.0 Q16.95 43.1 17.65 42.95 L19.95 42.8 31.25 43.15 30.55 43.7 30.35 44.1" fill="#000000" fill-rule="evenodd" stroke="none"></path>       <path d="M31.25 43.15 L31.8 42.8 32.1 42.55 32.05 41.8 32.1 41.25 27.4 40.2 24.85 39.5 22.05 39.45 17.55 39.2 16.6 39.2 15.8 39.75 14.85 40.85 13.75 41.6 12.25 41.65 5.2 40.9 Q3.05 40.7 2.05 40.9 L0.95 41.05 Q0.3 41.05 0.05 40.5 -0.1 40.15 0.2 39.75 L0.9 39.25 2.6 39.5 7.0 39.9 11.45 40.2 13.3 40.35 Q14.0 40.2 14.9 39.25 15.85 38.2 16.45 38.0 L18.25 37.9 20.8 38.0 23.3 38.2 25.6 38.9 32.15 40.5 Q32.45 38.15 33.85 36.75 L35.15 35.85 34.6 32.9 33.8 23.95 33.5 18.05 Q33.5 16.0 33.85 14.75 L34.45 13.5 34.15 12.85 Q33.75 12.0 33.15 11.75 L32.15 11.65 31.25 11.85 30.75 12.3 30.2 12.8 Q29.55 13.15 28.9 12.6 28.3 12.1 28.4 11.35 28.4 10.65 28.8 10.0 29.8 8.45 31.4 8.05 L32.5 7.85 33.75 7.85 Q35.1 8.0 35.95 8.8 L37.15 10.2 37.3 10.4 37.2 9.65 Q36.95 7.4 37.25 4.7 L37.45 3.05 37.7 2.1 38.5 0.8 39.5 -0.35 40.3 -1.4 Q41.3 -2.1 42.25 -1.65 43.3 -1.25 43.4 -0.05 L43.15 1.2 42.15 2.5 41.15 3.55 40.85 4.5 40.65 5.5 Q39.85 9.2 39.75 10.45 L39.65 11.65 39.7 11.65 39.75 11.2 Q40.25 9.7 42.25 8.25 L43.05 7.8 43.95 7.65 46.95 7.9 Q47.95 8.4 48.1 9.4 48.25 10.45 47.55 11.25 46.75 12.05 45.75 11.8 L44.75 11.55 43.85 11.6 42.5 12.65 42.0 13.25 42.05 13.35 Q42.35 14.0 42.35 15.4 L42.3 24.55 42.5 23.95 Q42.95 22.65 43.45 22.45 L44.05 22.4 Q44.9 22.45 45.2 23.6 45.65 24.85 45.05 27.5 L44.85 28.55 44.25 30.6 Q43.6 32.25 41.85 33.8 L41.65 34.9 Q42.95 35.45 43.55 36.45 L44.2 37.85 44.55 39.2 45.45 38.6 49.85 36.0 51.5 35.0 52.65 34.85 53.85 35.05 55.5 35.35 56.85 35.4 57.85 34.95 59.15 34.2 Q60.15 33.5 60.7 33.25 61.65 32.65 63.0 32.3 63.85 32.1 64.05 32.55 64.3 32.95 63.8 33.35 L62.9 33.6 Q61.65 33.85 59.55 35.25 L57.55 36.5 56.8 36.85 56.1 36.8 53.1 36.3 51.75 36.05 50.5 36.55 44.65 39.75 44.65 40.05 44.55 41.35 44.7 41.4 45.05 41.65 46.15 42.35 46.4 42.65 46.6 43.4 46.6 43.55 46.3 44.45 Q45.75 45.05 44.75 45.15 L43.0 45.2 42.15 45.35 41.1 46.0 40.85 46.1 39.85 46.45 37.9 46.65 36.8 46.55 35.3 46.2 34.05 45.55 34.0 45.5 33.95 45.5 32.2 45.85 31.15 45.8 Q30.55 45.6 30.3 44.9 L30.3 44.25 30.35 44.1 30.55 43.7 31.25 43.15" fill="#999999" fill-rule="evenodd" stroke="none"></path>       <path d="M37.9 34.55 Q37.45 37.05 35.6 38.25 L34.1 38.95 32.6 40.65 Q31.5 41.9 30.6 41.7 30.1 41.65 29.75 41.15 29.45 40.7 29.5 40.15 L29.75 39.25 28.5 38.85 26.75 37.75 25.45 38.3 24.4 38.75 Q23.65 38.85 23.15 38.25 22.65 37.6 22.95 36.9 L23.3 36.3 24.45 34.85 24.4 33.6 Q24.5 31.4 25.55 29.85 26.4 28.55 27.7 27.8 L27.55 27.5 Q27.2 26.8 25.75 26.3 L23.6 26.1 Q22.85 26.4 21.95 27.65 L20.65 29.55 19.65 30.9 19.6 30.95 Q19.4 33.25 19.9 34.45 L20.45 35.75 Q20.8 36.55 20.75 37.1 20.65 38.25 19.6 38.75 18.55 39.25 17.55 38.55 L17.0 37.9 Q16.35 36.95 16.0 35.35 15.85 34.55 15.85 33.5 L15.6 36.15 Q15.6 37.75 16.35 39.6 16.7 40.35 17.0 40.55 17.4 40.85 18.35 40.95 19.1 41.2 19.45 42.15 19.75 42.95 19.5 43.8 19.2 44.7 18.5 45.1 L15.7 45.0 Q14.6 44.35 13.7 42.85 12.0 39.95 12.1 36.5 12.15 35.15 12.65 32.55 L12.9 31.5 12.45 30.95 Q11.85 31.85 11.4 32.85 L11.1 33.85 11.1 35.05 11.0 35.7 11.25 36.45 Q11.65 37.8 10.6 38.75 9.45 39.65 8.25 39.0 7.2 38.45 6.95 37.0 6.8 36.2 7.0 34.55 L7.35 32.85 Q7.55 32.2 8.1 31.25 9.6 28.65 11.55 27.05 L11.6 26.65 Q12.1 24.15 14.8 21.25 L17.4 18.95 Q19.2 17.75 21.4 17.35 23.6 16.95 25.7 17.4 30.05 18.3 32.85 22.05 L34.1 24.15 34.75 26.45 Q36.8 27.5 38.65 28.0 L40.45 28.2 42.0 27.9 43.75 27.25 Q44.5 27.15 45.15 27.6 45.8 28.05 46.05 28.75 L46.0 30.25 45.1 31.4 43.75 32.0 40.65 32.65 37.9 32.3 Q38.1 33.45 37.9 34.55" fill="#000000" fill-rule="evenodd" stroke="none"></path>     </g>     <g id="shape2">       <path d="M0.0 23.8 L0.0 0.0 64.1 0.0 64.1 23.8 64.1 57.55 0.0 57.55 0.0 23.8 Z" fill="none" stroke="#000000" stroke-linecap="round" stroke-linejoin="round" stroke-width="3.0"></path>     </g>   </defs> </svg>