<?xml version="1.0" encoding="UTF-8" standalone="no"?>
<svg
   ffdec:objectType="frame"
   height="60.549999"
   width="67.099998"
   version="1.1"
   id="svg8"
   sodipodi:docname="232.svg"
   xmlns:inkscape="http://www.inkscape.org/namespaces/inkscape"
   xmlns:sodipodi="http://sodipodi.sourceforge.net/DTD/sodipodi-0.dtd"
   xmlns:xlink="http://www.w3.org/1999/xlink"
   xmlns="http://www.w3.org/2000/svg"
   xmlns:svg="http://www.w3.org/2000/svg"
   xmlns:ffdec="https://www.free-decompiler.com/flash">
  <sodipodi:namedview
     id="namedview8"
     pagecolor="#ffffff"
     bordercolor="#000000"
     borderopacity="0.25"
     inkscape:showpageshadow="2"
     inkscape:pageopacity="0.0"
     inkscape:pagecheckerboard="0"
     inkscape:deskcolor="#d1d1d1"
     fit-margin-top="5"
     fit-margin-left="5"
     fit-margin-right="5"
     fit-margin-bottom="5" />
  <g
     transform="translate(1.5,1.5)"
     id="g3">
    <use
       ffdec:characterId="516"
       height="57.549999"
       width="64.099998"
       xlink:href="#shape0"
       id="use1" />
    <use
       ffdec:characterId="737"
       height="58.450001"
       transform="translate(-0.75,-0.85)"
       width="65.900002"
       xlink:href="#shape1"
       id="use2" />
    <use
       ffdec:characterId="518"
       height="60.549999"
       transform="translate(-1.5,-1.5)"
       width="67.099998"
       xlink:href="#shape2"
       id="use3" />
  </g>
  <defs
     id="defs8">
    <g
       id="shape0">
      <path
         d="M 53.6,0 H 64.1 V 57.55 H 53.6 28.25 0 V 0 H 28.25 53.6 V 57.55 0 M 28.25,0 V 57.55 0"
         fill="#ffffff"
         fill-rule="evenodd"
         stroke="none"
         id="path3" />
    </g>
    <g
       id="shape1"
       transform="translate(0.75,0.85)">
      <path
         d="M 44.35,8.2 Q 44,8.6 43.5,10.4 l -0.1,0.7 0.05,0.55 v 1.5 l -0.3,0.55 -0.45,-0.35 q -0.95,-1.4 -1.4,-4 L 41.2,8.3 41.4,7.45 41.75,6.5 42.8,5.3 43.65,4.05 q 0.3,-0.7 0.05,-1.8 L 43.35,0.4 q -0.1,-0.55 0.2,-0.9 0.4,-0.55 1.2,-0.25 0.75,0.25 1.35,1.05 0.6,0.95 0.7,2.95 L 46.75,4.6 q -0.25,1.75 -1.6,2.85 l -0.8,0.75 m 16.15,-4 -0.05,0.9 -0.2,0.65 -0.15,1.15 0.15,0.4 1.1,2.25 0.45,2.3 V 13.7 Q 61.6,16.2 61,17.25 60.4,16.55 60.3,14.3 L 60.1,13.3 59.55,12.35 58.45,10.7 58,8.65 57.9,7.5 58.55,5.25 58.95,4.4 Q 59.2,3.95 59.7,3.85 60.25,3.65 60.5,4.2 M 0.6,42 0.4,40.75 -0.1,30.4 V 25.1 Q 0.3,20.35 3.1,15 L 4.55,12.5 Q 5.45,10.2 5.5,8.9 L 5.25,6.4 Q 5.15,6 5.35,5.8 5.7,5.6 6.1,6.1 7.9,8.3 7.5,11.25 l -0.3,1.3 -1.4,4 -0.5,2.1 V 19 q 0.1,2.2 0.4,3.25 l 1.05,2.7 V 25 l 0.4,-1.1 0.7,-1.6 0.85,-1.8 q 1,-2.3 0.7,-3.75 v -0.4 L 9.2,15.7 9.25,15.45 9.6,15.5 l 1.45,1.45 q 0.85,1.3 0.95,3.4 l -0.15,3.05 q -0.2,1.95 -0.05,3.05 l 0.4,1.65 0.3,0.7 1.5,2.1 q 0.25,-2.2 1.25,-4.1 l 1.9,-2.8 3.15,-3.75 q 0.6,-0.6 0.95,-0.35 0.45,0.3 0,1.05 l -1.75,3.55 -0.15,0.55 -0.3,1.55 -0.05,1.25 0.85,3 0.3,0.85 q 0.2,-6.1 3,-10.7 l 3,-4.15 q 1.8,-2.45 2.35,-4.4 0.35,-1.3 0.5,-3.5 L 29.05,8.1 28.95,7.7 q -0.45,-1.9 0,-3.8 0.3,-1.3 0.95,-1.85 0.15,-0.15 0.4,-0.15 0.3,0 0.35,0.15 l -0.1,0.5 q -0.2,0.45 -0.1,1.5 l 0.65,2.25 0.45,1.5 q 0.35,1.15 0.3,2.6 l -0.25,2.85 -0.5,2.8 q -0.4,2.2 -0.25,3.9 0.5,-1.25 1.6,-2.65 L 35.1,13.65 36.1,11 Q 36.55,9.25 36.45,8.3 L 36.4,8.1 35.75,6.05 l 0.1,-0.5 0.1,-0.1 Q 36,5.1 36.2,5.1 36.4,5.05 36.6,5.35 l 0.1,0.1 0.2,0.15 0.85,1.05 0.2,0.2 q 0.7,0.75 1,1.95 0.45,1.85 0.2,3.7 l -0.05,0.2 -0.3,1.2 -0.15,0.45 -0.55,1.5 q -0.5,2.15 0.55,5 l 1.25,2.75 1.25,2.7 0.35,1 0.1,-0.25 q 0.55,-1.6 1.1,-2.55 l 1.55,-2.6 0.7,-1.3 v -0.1 q 0.6,-2.1 0.1,-4.4 -0.2,-0.9 0.25,-1 l 0.4,0.1 q 0.9,0.5 1.3,2.1 0.7,2.9 -0.2,5.65 l -0.6,1.55 -0.45,1.6 q -0.35,2.35 1.35,5 l 0.2,0.3 q 0.5,-1.2 0.65,-2.9 l 0.2,-4.65 0.1,-0.65 0.1,-0.85 0.55,-1.7 Q 49.45,19 50.45,17.5 l 0.25,-0.35 1.1,-2.1 0.35,-1.7 -0.75,-2.2 q -0.5,-1.4 -0.3,-2.9 0.25,-1.55 1.2,-2.65 0.65,-0.95 1.5,-1 0.5,-0.1 0.6,0.25 L 54.2,5.5 Q 53.15,6.95 53.15,7.75 53.1,8.4 53.5,9.25 l 0.7,1.35 q 1,2.05 0.55,4.25 l -1,2.8 q -0.65,2.95 0.75,5.85 1.8,-3.7 1.25,-7.95 -0.25,-1.65 0.45,-1.95 0.65,-0.35 1.25,0.25 l 0.65,1.2 q 2.1,5.2 2.8,9.55 l 1.6,-1.5 q 0.75,-0.55 1.25,-0.3 l 0.4,0.55 -0.2,0.65 -0.3,0.45 0.1,0.35 q 0.55,1.15 0.3,2.4 l -0.3,1.4 v 1.15 l -0.25,3.5 -0.25,1.45 0.15,1.45 0.15,2 0.2,1.95 0.2,1.25 L 63.8,42 h 0.1 l 0.3,0.05 0.2,0.05 0.15,0.1 0.15,0.1 0.15,0.1 0.05,0.1 0.1,0.15 v 0.1 l 0.1,0.1 v 0.1 l 0.05,0.1 v 0.1 0.1 0.1 0.1 l -0.05,0.1 v 0.1 l -0.05,0.1 -0.05,0.1 v 0.05 0.1 0.1 0.1 l -0.05,0.1 -0.1,0.1 v 0.1 l -0.1,0.1 -0.05,0.15 -0.05,0.1 -0.15,0.1 -0.15,0.1 -0.15,0.1 -0.1,0.05 V 57.55 H 0.7 V 45.3 L 0.3,45.2 0.05,45.1 -0.15,45 -0.3,44.9 -0.4,44.8 -0.45,44.7 -0.55,44.6 -0.6,44.5 -0.65,44.4 -0.7,44.3 v -0.1 -0.15 -0.1 l -0.05,-0.1 0.05,-0.1 v -0.1 -0.1 -0.1 l 0.05,-0.1 0.05,-0.1 v -0.1 l 0.1,-0.1 0.05,-0.1 0.05,-0.05 v 0.05 0.1 0.1 0.1 l 0.05,0.1 0.05,0.1 0.1,0.1 0.1,0.1 0.1,0.1 0.2,0.1 0.25,0.1 H 0.7 6.9 13 L 24.25,43.9 35.3,43.85 h 5.3 L 44,43.8 46.1,43.75 h 2.65 0.7 1.45 1.75 2.3 1.35 2.05 2.7 1.3 l 0.35,0.05 1,0.05 h 0.05 L 64,43.8 l 0.1,-0.05 0.2,-0.1 0.1,-0.15 0.05,-0.1 0.05,-0.1 0.05,-0.1 V 43.1 43 42.9 42.8 42.7 l -0.1,-0.1 v -0.1 l -0.1,-0.1 -0.15,-0.1 -0.15,-0.1 -0.3,-0.1 H 63.7 l -1,0.05 -0.35,0.05 h -1.3 -2.7 -2.05 -1.35 -2.3 -1.75 -1.45 -0.7 -2.65 L 44,42.15 40.6,42.1 H 35.3 L 24.25,42.05 13,42 6.9,41.95 H 0.7 V 42 H 0.6 M 17.65,21.2 17.25,21.3 17,21 l 0.05,-0.4 0.3,-0.9 0.5,-0.65 1.55,-3 0.3,-0.85 0.15,-1.35 L 19.8,12.7 19.4,11.75 18.85,10.8 Q 18.3,9.55 18.45,8.35 L 18.7,7.15 Q 19.15,6.3 20.2,5.8 l 0.9,-0.25 -0.25,1.9 q -0.1,1.2 0.25,2.1 l 0.55,1 q 0.7,1.2 0.75,2.55 l -0.1,1.85 -0.2,1.15 q -0.6,2.2 -3.55,4.4 l -0.9,0.7 M 8.7,5.65 9.6,4.5 10.05,3.9 10.35,3.1 V 2.45 L 10.1,1.85 Q 9.9,1.4 10,0.8 10.15,0.2 10.5,-0.05 l 1.35,0.1 0.4,0.5 Q 12.8,1.7 12.7,2.95 L 12.4,4.75 11.1,6.4 10.5,6.95 Q 10.15,7.3 10.15,7.65 L 10.2,8.95 10.1,9.4 9.45,9.35 8.95,8.75 8.8,8.3 8.5,7.85 8.2,6.8 8.7,5.65 M 36.15,32.5 35.9,29.45 35.85,29.1 H 35.8 l -0.5,0.25 0.05,0.55 -0.35,0.9 0.25,1.6 0.25,3.1 q 0.6,-1.45 0.65,-3"
         fill="#999999"
         fill-rule="evenodd"
         stroke="none"
         id="path4" />
      <path
         d="m -0.4,42.9 v -0.05 -0.1 l 0.05,-0.1 0.05,-0.15 0.05,-0.1 0.1,-0.1 0.1,-0.1 0.2,-0.1 L 0.3,42.05 0.45,42 H 0.6 0.7 V 41.95 H 6.9 L 13,42 24.25,42.05 35.3,42.1 h 5.3 l 3.4,0.05 2.1,0.05 h 2.65 0.7 1.45 1.75 2.3 1.35 2.05 2.7 1.3 l 0.35,-0.05 1,-0.05 h 0.05 l 0.3,0.1 0.15,0.1 0.15,0.1 0.1,0.1 v 0.1 l 0.1,0.1 v 0.1 0.1 0.1 0.1 0.1 l -0.05,0.1 -0.05,0.1 -0.05,0.1 -0.1,0.15 -0.2,0.1 -0.1,0.05 -0.25,0.05 H 63.7 l -1,-0.05 -0.35,-0.05 h -1.3 -2.7 -2.05 -1.35 -2.3 -1.75 -1.45 -0.7 -2.65 L 44,43.8 40.6,43.85 H 35.3 L 24.25,43.9 13,43.95 H 6.9 0.7 0.45 L 0.2,43.85 0,43.75 l -0.1,-0.1 -0.1,-0.1 -0.1,-0.1 -0.05,-0.1 -0.05,-0.1 v -0.1 -0.1 -0.1 -0.05"
         fill="#000000"
         fill-rule="evenodd"
         stroke="none"
         id="path5" />
      <path
         d="M 64.1,45.2 V 57.55 H 0.7 V 45.3"
         ffdec:has-small-stroke="true"
         ffdec:original-stroke-width="0.1"
         fill="none"
         stroke="#ffffff"
         stroke-linecap="round"
         stroke-linejoin="round"
         stroke-width="1"
         id="path6" />
      <path
         d="m 39.3,31.4 q 0.05,2.25 -0.85,3.85 -0.8,1.45 -2.15,2.35 l 0.05,1 0.1,0.5 0.4,0.25 q 1.2,0.45 1.6,1.65 l 0.2,0.85 0.1,1.2 q -0.1,1.15 -1.6,2.5 0.3,0.4 0.2,0.95 -0.05,0.55 -0.5,0.9 l -1.75,0.35 -0.55,-0.05 -0.1,0.2 -0.85,0.9 -1.15,0.15 -0.7,-0.15 q -0.65,0.6 -1.8,0.35 l -1.25,-0.8 h -0.1 l -0.85,0.25 -1,0.1 -1.15,-0.25 -0.55,-0.5 -0.3,-0.6 q -0.05,-0.55 0.35,-1 l -0.8,-1.1 -0.4,-0.8 -2.25,0.9 q -0.8,0.45 -1.35,1 l 0.55,-0.1 1.1,-0.1 1.1,0.35 0.7,0.85 q 0.25,0.9 -0.45,1.55 -0.6,0.55 -1.55,0.65 L 20,49.35 Q 19.2,49.3 18.25,48.8 L 17.6,48.3 q -0.25,-0.3 -0.25,-1 l 0.1,-1.25 0.5,-0.85 q 0.9,-1.15 2.6,-2 l 3.1,-1.1 0.45,-0.1 0.3,-0.55 1.3,-1.2 0.7,-0.6 0.1,-0.5 0.2,-0.7 0.35,-0.75 -0.9,-0.7 q -1,-0.85 -1.55,-2.05 -0.5,-1.25 -0.4,-2.55 l 0.5,-1.75 q 0.35,-1 0.65,-1.4 l 0.35,-0.45 -0.4,-0.6 -0.1,-0.85 0.1,-1.2 0.6,-1.3 0.25,-0.7 0.35,-0.75 0.8,-0.45 q 0.45,-0.05 0.9,0.25 l 0.5,0.65 0.65,1.25 0.5,0.65 4.4,-0.15 0.2,-0.2 1.55,-1.75 0.85,-0.9 h 0.65 q 0.35,0.1 0.55,0.4 l 0.2,0.8 0.35,1.15 0.25,1.15 0.05,0.8 0.1,1.5 0.05,0.65 v 0.15 l 0.25,2.05"
         fill="#000000"
         fill-rule="evenodd"
         stroke="none"
         id="path7" />
    </g>
    <g
       id="shape2"
       transform="translate(1.5,1.5)">
      <path
         d="M 0,23.8 V 0 H 64.1 V 23.8 57.55 H 0 Z"
         fill="none"
         stroke="#000000"
         stroke-linecap="round"
         stroke-linejoin="round"
         stroke-width="3"
         id="path8" />
    </g>
  </defs>
</svg>
