<?xml version="1.0" encoding="UTF-8" standalone="no"?>
<svg
   ffdec:objectType="frame"
   height="60.549999"
   width="67.099998"
   version="1.1"
   id="svg9"
   sodipodi:docname="194.svg"
   xmlns:inkscape="http://www.inkscape.org/namespaces/inkscape"
   xmlns:sodipodi="http://sodipodi.sourceforge.net/DTD/sodipodi-0.dtd"
   xmlns:xlink="http://www.w3.org/1999/xlink"
   xmlns="http://www.w3.org/2000/svg"
   xmlns:svg="http://www.w3.org/2000/svg"
   xmlns:ffdec="https://www.free-decompiler.com/flash">
  <sodipodi:namedview
     id="namedview9"
     pagecolor="#ffffff"
     bordercolor="#000000"
     borderopacity="0.25"
     inkscape:showpageshadow="2"
     inkscape:pageopacity="0.0"
     inkscape:pagecheckerboard="0"
     inkscape:deskcolor="#d1d1d1"
     fit-margin-top="5"
     fit-margin-left="5"
     fit-margin-right="5"
     fit-margin-bottom="5" />
  <g
     transform="translate(1.5,1.5)"
     id="g3">
    <use
       ffdec:characterId="516"
       height="57.549999"
       width="64.099998"
       xlink:href="#shape0"
       id="use1" />
    <use
       ffdec:characterId="702"
       height="55.5"
       transform="translate(5.3,3.4)"
       width="51.099998"
       xlink:href="#shape1"
       id="use2" />
    <use
       ffdec:characterId="518"
       height="60.549999"
       transform="translate(-1.5,-1.5)"
       width="67.099998"
       xlink:href="#shape2"
       id="use3" />
  </g>
  <defs
     id="defs9">
    <g
       id="shape0">
      <path
         d="M 53.6,0 H 64.1 V 57.55 H 53.6 28.25 0 V 0 H 28.25 53.6 V 57.55 0 M 28.25,0 V 57.55 0"
         fill="#ffffff"
         fill-rule="evenodd"
         stroke="none"
         id="path3" />
    </g>
    <g
       id="shape1"
       transform="translate(-5.3,-3.4)">
      <path
         d="m 38.75,19.7 q -0.9,0.65 -2.85,1.35 l -2.6,0.6 -0.3,0.05 q 0.05,1.4 -0.45,3.75 -1.05,4.55 -2.85,6.7 l -0.65,0.65 q 0.55,1.35 0.3,2.5 l -0.4,1.1 q -0.6,1.4 -1.9,2.5 l -2,1.35 q 0.6,0.6 0.6,1.55 0.1,0.8 -0.55,1.45 Q 24.4,44 23.55,43.9 L 21.05,43.25 20,42.95 19.5,43 16.15,42.65 q -2.9,-1.1 -3.25,-3.55 -0.3,-1.95 1.95,-5 l 2.7,-3.7 1.9,-2.55 q -1.45,0.8 -2.55,0.7 -0.25,-1 0.95,-2.45 0.85,-1.05 2.95,-2.75 l 3,-2.75 0.2,-0.35 V 19.8 L 23.45,17.5 23.4,17.3 20.55,13.05 q -2.1,-2.3 -4.4,-3 l -0.85,-0.1 -0.7,0.6 q -1.45,1.8 -2.95,2.35 L 11.4,13 11.1,13.45 q -0.65,0.85 -0.75,1.35 l -0.1,0.7 -0.4,0.25 -0.45,-0.1 Q 9,15.35 9,14.8 8.85,14.5 9,13.7 L 9.2,12.75 8.7,12.4 8,12.9 Q 7.45,13.45 7.5,13.95 L 7.65,14.7 7.3,14.95 6.85,14.9 Q 6.5,14.7 6.3,14.1 q -0.4,-1 -0.35,-1.45 0,-0.95 1.15,-2.2 l 0.55,-0.4 H 7.2 L 6.6,10.3 6.3,10.8 5.85,11.05 Q 5.4,11.15 5.3,10.6 L 5.4,9.85 q 0.8,-1.8 2.8,-2 h 0.55 l 1,-0.95 q 2.9,-2.35 7,-1.35 3.4,0.9 6.05,3.95 l 0.75,0.95 Q 23.15,8.9 23.35,7.15 L 23.75,5.35 24,4.7 24.45,4.05 Q 25,3.4 25.8,3.5 q 0.75,0 1.45,0.45 0.6,0.4 1.6,1.35 0.15,-0.15 0.4,-0.25 1.3,-0.55 3.05,-0.45 2.3,0.15 4,0.8 l 2.55,-1.35 q 0.9,-0.6 1.5,-0.65 1,-0.1 1.5,0.8 l 0.4,1.65 0.35,3.3 -0.35,4.55 -0.25,1.05 -1.05,2.75 -0.8,1 -0.2,0.1 -1.2,1.1 m -2.7,-8.9 -0.2,0.6 q -0.15,0.5 -0.05,1.1 l 0.25,1.1 q 0.4,0.9 1.35,1.3 l 1.8,0.35 0.55,-0.1 0.9,-0.45 0.6,-0.5 Q 41.9,13.6 42,12.55 42.1,11.4 41.4,10.35 L 40.65,9.6 Q 40.05,9.25 39,9.25 l -1.15,0.1 -0.9,0.55 -0.9,0.9 m -3.25,5.35 q -0.65,0.95 -2.15,0.75 h -0.6 q -0.3,0.1 -0.45,0.45 -0.1,0.4 0.1,0.7 0.2,0.5 1.1,0.7 1.1,0.35 2.25,-0.3 l 0.9,-0.7 1.25,0.3 1.15,0.05 0.75,-0.25 q 1,-0.45 1.2,-0.95 0.15,-0.5 -0.15,-0.7 -0.25,-0.3 -0.75,0 l -0.8,0.35 q -0.5,0.05 -1.05,-0.5 l -0.85,-0.7 h -0.25 l -0.1,-0.15 -1.05,0.05 -0.5,0.9 m -1.8,-1.9 0.35,-1.2 H 31 l -0.9,-0.15 -1.7,-0.7 -1,-0.7 -0.6,-0.8 -0.15,-0.45 H 26.6 q -0.95,0.5 -1.35,1.1 -0.4,0.6 -0.65,2.15 0.1,1.25 1.15,2.1 0.95,0.8 2.35,0.65 l 1.1,-0.35 0.55,-0.25 q 0.8,-0.4 1.25,-1.4 m 22.55,42.5 q -2.3,1.1 -4.4,1.3 l -4.4,0.2 q -1.95,0.2 -4.2,0.05 -2.15,-0.2 -3.45,-1.05 -0.75,-0.5 -1.15,-1.3 -0.45,-0.9 -0.25,-1.8 0.2,-1.2 1.4,-1.9 0.5,-0.35 2.25,-1 4.6,-1.25 9.15,-1.4 4.45,-0.25 6.6,1.45 1,0.75 1.25,1.6 0.3,1.25 -0.7,2.45 l -2.1,1.4"
         fill="#999999"
         fill-rule="evenodd"
         stroke="none"
         id="path4" />
      <path
         d="m 36.05,10.8 0.9,-0.9 0.9,-0.55 1.15,-0.1 q 1.05,0 1.65,0.35 l 0.75,0.75 q 0.7,1.05 0.6,2.2 -0.1,1.05 -0.75,1.65 l -0.6,0.5 -0.9,0.45 -0.55,0.1 -1.8,-0.35 Q 36.45,14.5 36.05,13.6 L 35.8,12.5 q -0.1,-0.6 0.05,-1.1 l 0.2,-0.6 M 31,14.25 q -0.45,1 -1.25,1.4 L 29.2,15.9 28.1,16.25 Q 26.7,16.4 25.75,15.6 24.7,14.75 24.6,13.5 q 0.25,-1.55 0.65,-2.15 0.4,-0.6 1.35,-1.1 h 0.05 l 0.15,0.45 0.6,0.8 1,0.7 1.7,0.7 0.9,0.15 h 0.35 L 31,14.25 m 1.8,1.9 0.5,-0.9 1.05,-0.05 0.1,0.15 h 0.25 l 0.85,0.7 q 0.55,0.55 1.05,0.5 l 0.8,-0.35 q 0.5,-0.3 0.75,0 0.3,0.2 0.15,0.7 -0.2,0.5 -1.2,0.95 l -0.75,0.25 -1.15,-0.05 -1.25,-0.3 -0.9,0.7 q -1.15,0.65 -2.25,0.3 -0.9,-0.2 -1.1,-0.7 -0.2,-0.3 -0.1,-0.7 0.15,-0.35 0.45,-0.45 h 0.6 q 1.5,0.2 2.15,-0.75"
         fill="#ffffff"
         fill-rule="evenodd"
         stroke="none"
         id="path5" />
      <path
         d="M 47.45,15.45 47.3,15.05 Q 46.85,14.2 47.15,13.3 47.4,12.45 48.2,12 l 0.95,-0.35 0.95,-0.5 q 0,-0.65 -0.45,-0.9 l -1.15,0.9 -1.25,0.25 Q 46.55,11.25 46.1,10.75 45.7,10.2 45.65,9.5 q 0,-0.7 0.4,-1.25 L 46.8,7.5 q 0.9,-0.7 1.5,-0.8 l 2.3,0.25 q 0.6,0.2 1.05,0.5 0.8,0.7 1.2,1.95 0.35,1.05 0.15,2.1 -0.25,1.2 -0.95,1.95 L 51.2,14 l -0.7,0.35 -0.9,0.3 q -0.55,0.1 -0.75,0.4 0.1,0.7 -0.25,1 l -0.5,0.25 -0.45,-0.25 -0.2,-0.6 m -0.45,2 q 0.45,-0.6 1.1,-0.6 0.7,-0.05 1.2,0.45 l 0.55,1 q 0.1,0.9 -0.45,1.35 l -0.75,0.4 H 47.7 Q 47.15,19.8 46.85,19.2 46.65,18.65 46.8,18.05 l 0.2,-0.6"
         fill="#000000"
         fill-rule="evenodd"
         stroke="none"
         id="path6" />
      <path
         d="m 52.2,30.35 q 0.65,3.2 -0.4,5.65 -1.15,2.8 -3.8,4.4 1.35,2.45 2.05,5.15 l 0.55,2.75 q 0.55,2.4 0.3,3.85 l -0.8,2.3 q -0.7,1.85 -1.7,2.65 -0.9,0.65 -2.6,0.85 l -3.55,0.25 q -3,-0.1 -4.8,-0.9 l -1.9,0.25 -2.3,0.6 -2.35,0.6 q -2.95,0.6 -4.6,-0.95 L 24.9,56.65 Q 24.4,56.6 23.7,57 l -1.1,0.65 -0.65,0.05 q -0.35,-0.1 -0.25,-0.65 0,-0.4 0.4,-0.65 0.9,-1 2.5,-1.4 l 1.45,-0.15 1.9,0.75 q 1.2,0.6 1.95,0.5 0.6,-0.05 1.7,-0.7 1.4,-0.75 2.6,-1.15 l -0.35,-0.9 q -0.3,-1.25 0.1,-3.6 0.45,-2.7 1.35,-5.2 1,-2.95 2.4,-4.45 L 37.75,40 Q 36.6,39.25 35.5,37.8 l -1.35,-2.45 -0.35,-1.6 h -0.95 q -1.8,-0.1 -3.05,-1.4 -1.35,-1.4 -1.15,-3.05 L 28.9,28 29.5,26.7 q 0.65,-1 1.7,-1.6 l 1,-0.5 q 0.9,-0.3 1.85,-0.45 1.4,-0.05 2.55,0.75 l 0.05,0.05 q 1.35,-1.1 3.15,-1.6 l 5,-0.25 1.85,0.5 0.25,-0.35 0.65,-0.6 q 0.9,-0.7 2.4,-0.8 2.15,-0.1 3.25,1 l 0.5,0.6 q 1.05,1.5 1.05,3.2 -0.15,1.9 -1.45,3 l -1,0.65 -0.1,0.05 m -7.55,7.25 0.95,-0.05 0.85,-0.3 Q 46.85,36.9 46.7,36.45 46.55,36.1 45.85,36 l -1.3,-0.15 -0.05,-0.3 -0.1,-0.65 -0.45,-0.4 q -0.6,-0.2 -1,0.35 -0.15,0.2 -0.15,0.75 l 0.05,0.35 H 42.6 q -0.9,0.1 -1.45,0.5 -0.75,0.65 -0.5,1.35 0.3,0.75 1.2,0.75 l 1.45,-0.4 q 1,-0.5 1.35,-0.55 m -9.25,-4.2 0.05,0.35 q 0.1,1.45 1.45,2.25 1.25,0.7 2.6,0.25 1.35,-0.5 1.8,-2 l 0.05,-0.35 v -1 Q 41.2,31.75 40.15,31 38.8,30 37.2,30.65 q -1.6,0.8 -1.75,2.4 L 35.4,33.4 m 14.8,0.35 0.35,-0.35 0.15,-0.2 0.2,-0.3 q 0.45,-0.85 0.4,-1.95 -0.1,-1.1 -0.7,-1.95 -0.65,-0.75 -1.7,-1.1 l -2.05,-0.05 q -1,0.3 -1.65,1.15 -0.65,0.85 -0.75,1.9 -0.05,1.05 0.4,1.95 0.6,0.95 1.5,1.4 0.9,0.45 2,0.3 1.1,-0.15 1.85,-0.8 M 7.2,29 Q 6.5,27.4 7,25.3 7.4,23.85 8.45,22.4 L 7.95,21.7 7.7,21.3 q -0.3,-1 -0.05,-2.05 l 0.4,-0.9 0.55,-0.75 1.65,-1.45 q 1.55,-0.95 3.35,-0.5 l 1.05,0.4 q 0.95,0.75 1.2,1.75 l 0.1,0.8 1.4,0.45 1.35,0.95 1.35,-0.2 1.1,0.25 0.7,0.45 0.75,0.65 v 0.1 l 0.45,0.7 0.35,1.55 q 0,0.9 -0.4,1.5 l -1.3,1.15 -1.05,0.5 -0.4,1.5 q -0.7,1.9 -2.35,3.05 l -0.55,0.35 0.95,1.45 0.95,2.45 0.15,0.55 0.35,-0.1 1.4,-0.3 q 1.8,0 2.75,1.5 l 0.25,0.55 -0.05,0.8 q -0.1,1.2 -0.5,1.65 l -0.65,0.6 -2.4,1.55 q 0.2,0.3 0.05,0.6 -0.3,0.3 -0.7,0 -0.5,-0.35 -0.4,-1.05 l 0.5,-1.05 0.8,-0.95 0.8,-0.95 q 0.15,-0.4 -0.05,-0.5 h -0.3 L 19.9,39.1 18.9,39.7 18,41.05 16.95,42 q -1.3,0.95 -4.05,0.95 -3.25,0 -4.8,-1.2 Q 6.4,40.35 6.4,37.8 L 6.6,36.35 Q 7.15,33.3 9.05,31.2 7.8,30.35 7.2,29 m 4.35,0.4 0.6,0.15 0.75,-0.05 1.1,-0.05 q 0.65,-0.1 0.65,-0.65 0,-0.45 -0.5,-0.65 Q 14,28 13.8,28 V 27.7 L 13.55,27.15 13.1,27 v 0.05 H 13.05 Q 12.85,27 12.6,27.25 l -0.15,0.45 v 0.25 l -0.9,0.2 q -0.3,0.15 -0.3,0.6 -0.05,0.35 0.3,0.65 m -2.1,-1.8 1.05,-0.35 0.7,-0.9 q 0.15,-0.5 -0.1,-1.05 -0.2,-0.6 -0.65,-0.85 -1.1,-0.65 -2.1,0.2 -0.5,0.5 -0.5,1.3 0,0.7 0.5,1.2 l 1.1,0.45 m 6.5,-0.15 q 1.1,0.5 2.15,-0.25 1,-0.9 0.75,-2.05 -0.3,-1.15 -1.45,-1.55 -1.2,-0.35 -2.1,0.5 -0.8,0.95 -0.5,2.1 0.3,0.95 1.15,1.25"
         fill="#000000"
         fill-rule="evenodd"
         stroke="none"
         id="path7" />
      <path
         d="m 50.2,33.75 q -0.75,0.65 -1.85,0.8 -1.1,0.15 -2,-0.3 -0.9,-0.45 -1.5,-1.4 -0.45,-0.9 -0.4,-1.95 0.1,-1.05 0.75,-1.9 0.65,-0.85 1.65,-1.15 l 2.05,0.05 q 1.05,0.35 1.7,1.1 0.6,0.85 0.7,1.95 0.05,1.1 -0.4,1.95 l -0.2,0.3 -0.15,0.2 -0.35,0.35 M 35.4,33.4 35.45,33.05 q 0.15,-1.6 1.75,-2.4 1.6,-0.65 2.95,0.35 1.05,0.75 1.2,1.9 v 1 l -0.05,0.35 q -0.45,1.5 -1.8,2 Q 38.15,36.7 36.9,36 35.55,35.2 35.45,33.75 L 35.4,33.4 m 9.25,4.2 q -0.35,0.05 -1.35,0.55 l -1.45,0.4 q -0.9,0 -1.2,-0.75 -0.25,-0.7 0.5,-1.35 0.55,-0.4 1.45,-0.5 h 0.25 L 42.8,35.6 q 0,-0.55 0.15,-0.75 0.4,-0.55 1,-0.35 l 0.45,0.4 0.1,0.65 0.05,0.3 1.3,0.15 q 0.7,0.1 0.85,0.45 0.15,0.45 -0.25,0.8 l -0.85,0.3 -0.95,0.05 M 15.95,27.45 q -0.85,-0.3 -1.15,-1.25 -0.3,-1.15 0.5,-2.1 0.9,-0.85 2.1,-0.5 1.15,0.4 1.45,1.55 0.25,1.15 -0.75,2.05 -1.05,0.75 -2.15,0.25 m -6.5,0.15 -1.1,-0.45 q -0.5,-0.5 -0.5,-1.2 0,-0.8 0.5,-1.3 1,-0.85 2.1,-0.2 0.45,0.25 0.65,0.85 0.25,0.55 0.1,1.05 l -0.7,0.9 -1.05,0.35 m 2.1,1.8 q -0.35,-0.3 -0.3,-0.65 0,-0.45 0.3,-0.6 l 0.9,-0.2 V 27.7 L 12.6,27.25 Q 12.85,27 13.05,27.05 H 13.1 V 27 l 0.45,0.15 0.25,0.55 V 28 q 0.2,0 0.35,0.15 0.5,0.2 0.5,0.65 0,0.55 -0.65,0.65 l -1.1,0.05 -0.75,0.05 -0.6,-0.15"
         fill="#ffffff"
         fill-rule="evenodd"
         stroke="none"
         id="path8" />
    </g>
    <g
       id="shape2"
       transform="translate(1.5,1.5)">
      <path
         d="M 0,23.8 V 0 H 64.1 V 23.8 57.55 H 0 Z"
         fill="none"
         stroke="#000000"
         stroke-linecap="round"
         stroke-linejoin="round"
         stroke-width="3"
         id="path9" />
    </g>
  </defs>
</svg>
