<?xml version="1.0" encoding="UTF-8" standalone="no"?>
<svg
   ffdec:objectType="frame"
   height="60.549999"
   width="67.099998"
   version="1.1"
   id="svg6"
   sodipodi:docname="753.svg"
   xmlns:inkscape="http://www.inkscape.org/namespaces/inkscape"
   xmlns:sodipodi="http://sodipodi.sourceforge.net/DTD/sodipodi-0.dtd"
   xmlns:xlink="http://www.w3.org/1999/xlink"
   xmlns="http://www.w3.org/2000/svg"
   xmlns:svg="http://www.w3.org/2000/svg"
   xmlns:ffdec="https://www.free-decompiler.com/flash">
  <sodipodi:namedview
     id="namedview6"
     pagecolor="#ffffff"
     bordercolor="#000000"
     borderopacity="0.25"
     inkscape:showpageshadow="2"
     inkscape:pageopacity="0.0"
     inkscape:pagecheckerboard="0"
     inkscape:deskcolor="#d1d1d1"
     fit-margin-top="5"
     fit-margin-left="5"
     fit-margin-right="5"
     fit-margin-bottom="5" />
  <g
     transform="translate(1.5,1.5)"
     id="g3">
    <use
       ffdec:characterId="516"
       height="57.549999"
       width="64.099998"
       xlink:href="#shape0"
       id="use1" />
    <use
       ffdec:characterId="1242"
       height="58.75"
       transform="translate(0,-1.2)"
       width="64.099998"
       xlink:href="#shape1"
       id="use2" />
    <use
       ffdec:characterId="518"
       height="60.549999"
       transform="translate(-1.5,-1.5)"
       width="67.099998"
       xlink:href="#shape2"
       id="use3" />
  </g>
  <defs
     id="defs6">
    <g
       id="shape0">
      <path
         d="M 53.6,0 H 64.1 V 57.55 H 53.6 28.25 0 V 0 H 28.25 53.6 V 57.55 0 M 28.25,0 V 57.55 0"
         fill="#ffffff"
         fill-rule="evenodd"
         stroke="none"
         id="path3" />
    </g>
    <g
       id="shape1"
       transform="translate(0,1.2)">
      <path
         d="M 0,45.35 H 53.45 Q 53.35,45 53.6,44.7 q 0.3,-0.35 1.05,-0.35 l 1.2,-0.15 0.3,-0.2 -0.2,-0.15 Q 55,43.25 55.1,42.15 55.25,41 56.2,40.55 h 0.05 L 56.1,39.8 q 0.1,-0.65 0.8,-0.95 l 0.9,-0.15 0.4,-0.2 0.5,-0.85 Q 57.65,38.5 56.15,38.8 L 54.2,38.7 53.5,38 Q 53.2,37.45 53.35,36.95 53.5,36.5 54,36.05 h 0.05 L 53.9,35.9 q -0.9,-0.55 -0.8,-1.7 0.1,-1.1 1.05,-1.6 0.5,-0.25 1.65,-0.55 0.75,-0.3 1.35,-1.25 L 57.1,30.7 q -0.05,-0.45 0.05,-0.8 L 57.1,29.2 57.35,28.35 57.15,28.2 56.8,27.95 56.05,27.75 Q 55.15,27.35 53.9,25.8 L 53.05,24.7 H 52.8 q -0.9,0.05 -2.1,-0.6 L 48.05,22.7 45.4,20.75 45.35,20.7 45.25,20.8 44.3,22 43.7,23 q -0.45,0.55 -1,0.55 l -0.9,-0.5 q -0.7,-0.85 -0.35,-2.2 0.25,-0.9 1.15,-1.9 l 0.65,-0.6 -0.85,-0.15 q -2.05,-0.1 -4.1,-2.45 -0.7,-0.7 -0.95,-1.35 -0.45,-1.15 0.3,-2.95 l -0.3,-0.05 -2.3,-0.6 Q 33.65,10.4 33.05,10 32.15,9.45 31,8 L 30.4,7.15 30.15,6.25 29.65,5.15 29.55,4.9 H 29.5 L 28.05,5.3 26.4,5.25 24.85,4.7 22.6,3.2 22,2.2 21.9,1.5 q 0,-1.25 0.75,-1.65 l 0.5,-0.2 0.55,-0.6 1.15,-0.25 0.95,0.15 0.75,0.45 0.75,0.3 2.85,0.55 1.6,0.25 0.45,0.25 h 0.1 L 45.65,0.7 47.2,0.8 47.6,0.95 V 0.9 q 0.75,-0.65 1.6,-0.5 0.5,0.05 0.85,0.3 l 0.55,-0.4 1.9,0.05 q 1.05,0.6 1.05,2 l -0.2,1.5 q -0.1,1.2 -0.95,2.25 l -0.05,0.1 -0.15,0.15 0.45,0.45 1.3,1.35 0.65,0.9 q 0.95,1.5 1.15,3.15 v 1.6 l -0.1,0.85 0.35,0.1 1.7,1.45 0.95,1.35 q 0.45,0.9 0.5,1.85 l 0.5,0.3 q 0.8,0.65 1.25,1.55 l 0.5,1.15 0.15,2.2 v 0.3 l 0.35,1 0.35,1.85 Q 62.3,29.25 61.7,31 l 0.15,0.3 q 0.4,0.7 0.4,1.65 l -0.15,1.2 0.05,0.1 0.3,1.1 0.3,3.35 -0.1,1.2 -0.35,1 -1,1.75 -0.8,0.9 -0.25,1.8 h 3.85 v 12.2 H 0 V 45.35 M 25,19.6 q -0.25,1.2 -1.25,1.9 l -0.4,0.25 -0.05,1.3 -0.25,0.85 q -0.25,0.35 -0.9,0.55 -0.9,0.35 -1.55,-0.2 l -0.55,0.25 q -0.95,0.2 -1.35,-0.55 -0.3,-0.4 -0.2,-1.45 0,-0.45 0.15,-0.75 l 0.55,-0.65 0.05,-0.05 q -0.45,-0.45 -0.6,-1 L 18.55,19.65 18.3,18.95 18.2,17.6 18.1,17 q 0,-0.45 0.4,-0.7 l 0.8,-0.15 q 0.5,0.1 0.85,0.6 0.9,-0.5 2.05,-0.4 l 0.1,-0.3 q 0.25,-0.45 0.8,-0.55 0.65,-0.1 0.95,0.35 l 0.35,1.1 0.05,0.35 q 0.85,0.95 0.55,2.3"
         fill="#999999"
         fill-rule="evenodd"
         stroke="none"
         id="path4" />
      <path
         d="m 33.4,41.75 q 0,-0.4 0.35,-0.65 l 0.1,-0.05 7.85,-0.25 1.35,-0.1 2.1,-0.25 h 0.35 l 0.45,-0.25 0.5,-0.5 -0.45,0.05 0.5,-0.15 0.1,-0.15 0.35,-0.85 0.1,-0.3 v -0.05 -4.7 l 0.1,-1.1 -0.2,-0.8 V 31.7 31.6 L 46.9,31.5 46.55,30.65 45.85,30.1 44.9,29.6 44.75,29.5 39.1,29.45 h -3 l -2.35,-0.2 -0.05,-0.1 q -0.35,-0.55 -0.3,-1.2 0,-0.85 0.8,-2.25 1.1,-1.9 1.85,-2.75 1.85,-2.05 5.2,-3 4.7,-1.25 9.25,0.65 4.55,1.85 6.85,6 2.4,4.45 0.75,12.25 -1.7,7.75 -10.15,10.05 3,-0.6 0.9,-0.15 l -2.9,0.2 Q 38.05,48.5 34.15,43.45 33.55,42.6 33.55,42 L 33.4,41.75 M 11.2,48.1 Q 9.65,47.55 8.6,46.2 7.6,44.95 7.5,43.5 L 7.2,42.25 Q 7.05,40.65 7.85,39.15 8.2,38.4 8.9,37.55 L 8.45,37.5 6.8,37.3 Q 5.95,37.05 5.5,36.4 5.1,35.8 5.2,34.3 L 5.4,32.05 V 30.4 q 0.1,-1 0.55,-2.35 l 0.3,-0.7 H 6.3 l -0.1,-0.7 v -2.5 Q 5.4,24.1 4.8,23.7 4.15,23.2 4.1,22.5 3.95,21.5 5.15,20.8 l 2.1,-0.45 q 1.3,0 1.75,0.4 0.65,0.5 0.65,2.15 v 3.3 0.25 L 10.1,26.4 q 0,-5.9 0.55,-12 0.2,-1.8 0.8,-2.4 0.6,-0.6 2.05,-0.9 l 12.95,-0.65 4.8,0.35 q 1.8,0.35 2.55,1.3 0.55,0.65 0.65,1.85 l 0.1,2.05 q 0.05,1 0.45,3 l -0.05,3.05 -0.65,2.35 -2.25,2.25 -3.55,3.75 5.9,-0.25 0.75,0.05 1.95,-0.1 h 2.35 l 3.3,0.05 2.05,0.05 0.6,0.35 0.05,0.05 0.05,0.05 q 0.75,0.4 0.75,1.4 v 0.3 l -0.05,1.1 -0.15,3.15 q -0.1,1.65 -0.75,2.25 -0.55,0.5 -2.15,0.6 L 29.2,40 22.3,40.4 q 0.45,2.9 -1.2,4.9 l -1.45,1.4 q -1.75,1.45 -3.05,1.8 l -2.4,0.1 h -0.3 l -2.7,-0.5 m 30,-12.65 0.25,0.25 0.2,0.35 0.2,0.05 0.85,0.05 0.45,-0.05 0.45,-0.5 0.05,-0.7 -0.1,-0.6 -0.55,-0.4 -1.15,-0.05 -0.4,0.4 -0.3,0.35 -0.05,0.4 0.1,0.45 M 30.75,21.8 30.85,19.95 30.35,15.85 30.1,15.2 29.4,15 19.75,14.95 q -2.95,0 -4.55,0.55 l -0.45,6.7 0.55,0.05 6.7,0.4 3.95,-0.15 0.25,-1.95 0.2,-1 q 0.35,-1 1.4,-1.15 1.05,-0.2 1.65,0.75 l 0.3,1.1 v 1.25 l 0.05,0.65 h 0.4 l 0.15,-0.1 0.35,-0.05 0.05,-0.2"
         fill="#000000"
         fill-rule="evenodd"
         stroke="none"
         id="path5" />
    </g>
    <g
       id="shape2"
       transform="translate(1.5,1.5)">
      <path
         d="M 0,23.8 V 0 H 64.1 V 23.8 57.55 H 0 Z"
         fill="none"
         stroke="#000000"
         stroke-linecap="round"
         stroke-linejoin="round"
         stroke-width="3"
         id="path6" />
    </g>
  </defs>
</svg>
