<?xml version="1.0" encoding="UTF-8" standalone="no"?>
<svg
   ffdec:objectType="frame"
   height="60.799999"
   width="67.099998"
   version="1.1"
   id="svg7"
   sodipodi:docname="384.svg"
   xmlns:inkscape="http://www.inkscape.org/namespaces/inkscape"
   xmlns:sodipodi="http://sodipodi.sourceforge.net/DTD/sodipodi-0.dtd"
   xmlns:xlink="http://www.w3.org/1999/xlink"
   xmlns="http://www.w3.org/2000/svg"
   xmlns:svg="http://www.w3.org/2000/svg"
   xmlns:ffdec="https://www.free-decompiler.com/flash">
  <sodipodi:namedview
     id="namedview7"
     pagecolor="#ffffff"
     bordercolor="#000000"
     borderopacity="0.25"
     inkscape:showpageshadow="2"
     inkscape:pageopacity="0.0"
     inkscape:pagecheckerboard="0"
     inkscape:deskcolor="#d1d1d1"
     fit-margin-top="5"
     fit-margin-left="5"
     fit-margin-right="5"
     fit-margin-bottom="5" />
  <g
     transform="translate(1.5,1.75)"
     id="g3">
    <use
       ffdec:characterId="516"
       height="57.549999"
       width="64.099998"
       xlink:href="#shape0"
       id="use1" />
    <use
       ffdec:characterId="883"
       height="58.150002"
       transform="translate(3.5,-1.75)"
       width="57.549999"
       xlink:href="#shape1"
       id="use2" />
    <use
       ffdec:characterId="518"
       height="60.549999"
       transform="translate(-1.5,-1.5)"
       width="67.099998"
       xlink:href="#shape2"
       id="use3" />
  </g>
  <defs
     id="defs7">
    <g
       id="shape0">
      <path
         d="M 53.6,0 H 64.1 V 57.55 H 53.6 28.25 0 V 0 H 28.25 53.6 V 57.55 0 M 28.25,0 V 57.55 0"
         fill="#ffffff"
         fill-rule="evenodd"
         stroke="none"
         id="path3" />
    </g>
    <g
       id="shape1"
       transform="translate(-3.5,1.75)">
      <path
         d="m 27.65,-1.75 9.6,0.85 4.3,0.9 0.75,-0.35 2,0.1 0.75,0.1 q 2.8,0.65 5.25,2.45 2.4,1.75 3.95,4.25 3.05,5 2.5,11.25 -0.5,5.5 -3.75,10.95 -3,4.7 -6.5,5.4 L 45.2,34 q -1.45,0.4 -2.6,0 l -1.9,1.05 -1.9,0.7 -0.7,1.25 -1.7,1.45 -0.5,0.3 -3.15,0.2 -0.7,-0.3 Q 30.7,37.9 30.4,36.95 30.15,36.55 30.25,36.1 25.9,35.65 23,34.45 L 21.1,34.5 Q 18.95,34.45 16.5,32.7 13.45,30.5 11.45,27.05 9.55,23.7 9.1,19.8 8.65,16.05 9.6,12.25 q 0.9,-3.75 3,-7 1.35,-2.15 2.85,-3.3 1.9,-1.5 4.05,-1.5 l 0.55,0.05 q 3.05,-1.95 7.6,-2.25 M 46.7,36.2 q -0.5,-0.9 0.4,-1.8 0.45,-0.45 1.65,-0.95 4.65,-2.05 7.05,-5.7 3.15,-4.65 2.3,-11.4 Q 57.55,11.65 54.55,5.1 54.2,4.4 54.6,4.2 l 0.55,0.1 q 0.75,0.5 1.35,1.55 4.65,7.3 4.35,15.95 l -0.45,3.5 q -1.15,4.4 -5.85,8.3 -2.95,2.5 -5.55,3.1 -1.7,0.45 -2.3,-0.5 m 11.8,-2 -1.05,1 Q 55,37.45 52.2,38.35 l -1.25,0.2 q -0.75,0 -1.2,-0.5 -0.2,-0.2 -0.25,-0.6 -0.05,-0.35 0.15,-0.6 0.15,-0.3 1,-0.6 L 54.05,34.6 56,33.55 q 2.2,-1.2 3.05,-2.2 l 1.2,-2.25 0.3,-0.4 q 0.3,-0.2 0.45,0 v 0.7 l -0.2,0.65 -0.15,0.9 -0.35,0.85 q -0.6,1.2 -1.8,2.4 m -40.65,0.75 q 0.55,0.55 0.4,0.95 -0.1,0.45 -0.95,0.55 Q 13.15,36.85 9.55,32.6 6.9,29.6 5.8,25.5 4.15,18.85 7.35,9.9 8.6,6.3 10.4,4.4 10.75,4.05 10.95,4 11.4,3.9 11.55,4.25 l -0.2,0.7 q -1.55,2.35 -2.5,6.7 -1.5,6.6 -0.5,11.55 0.6,3 2.1,5.45 1.6,2.65 4,4.15 l 1.8,1 1.6,1.15 m -13.75,-7.8 0.65,0.6 q 0.9,2.1 3.05,5.3 l 0.7,0.95 2.4,2.3 4.5,3.6 q 0.45,0.35 0.4,0.7 L 14,40.45 Q 11.85,39.9 10.65,39.2 9.9,38.8 8.5,37.7 l -1,-0.85 Q 5.55,35 4.3,31.35 L 3.9,30.05 3.75,28.25 3.7,27.6 4.1,27.15"
         fill="#999999"
         fill-rule="evenodd"
         stroke="none"
         id="path4" />
      <path
         d="m 13.45,38.85 q -0.1,-0.5 0.25,-0.9 0.4,-0.35 0.9,-0.3 l 0.75,0.3 0.75,0.45 0.05,-0.2 0.1,-0.05 0.25,-1.05 0.35,-0.45 0.35,-0.15 0.8,-0.05 q 0.9,0.25 0.9,1.25 -0.1,0.95 -0.95,1.25 l -0.2,0.5 0.7,0.4 0.2,0.6 -0.7,0.45 -0.85,-0.25 h -0.05 l -0.4,0.5 -0.35,0.35 -0.2,0.15 -0.2,0.25 -0.4,0.35 -0.4,0.15 q -0.45,0 -0.55,-0.55 l 0.05,-0.35 0.2,-0.25 0.25,-0.7 0.3,-0.5 L 15.2,40 14.15,39.65 q -0.55,-0.25 -0.7,-0.8 m 6.65,3.65 0.85,-1.4 0.3,-0.4 q 0.25,-0.2 0.45,-0.15 0.35,0.05 0.35,0.55 l -0.2,0.6 -0.6,1.1 0.2,0.3 0.15,0.1 0.9,0.5 0.9,0.3 0.45,0.35 q 0.2,0.25 -0.1,0.45 l -0.4,0.25 -2,-0.2 -0.85,-0.25 h -0.05 l -1.1,0.2 -0.75,0.05 -0.55,0.15 -0.25,-0.05 -0.15,-0.2 q 0,-0.25 0.35,-0.45 l 1.4,-1.2 0.55,-0.35 0.15,-0.25 m 3.05,7.5 q 0.1,0.4 -0.3,0.6 l -0.7,0.15 -1.55,-0.1 -0.6,0.85 -0.85,0.55 Q 18.8,52 18.7,51.6 18.5,51.2 18.75,50.35 L 18.2,50.3 17.3,50.1 q -0.35,-0.2 -0.45,-0.7 -0.1,-0.9 0.6,-1.3 l 1.15,0.05 0.85,0.5 0.15,-0.35 q 0.4,-1.05 0.9,-1.25 l 1.1,0.1 q 0.45,0.3 0.45,0.95 l -0.5,1.1 -0.05,0.1 0.95,0.25 0.7,0.45"
         fill="#ffffff"
         fill-rule="evenodd"
         stroke="none"
         id="path5" />
      <path
         d="M 39.25,11.4 Q 38.2,9.65 36,8.55 33.95,7.5 31.65,7.35 29.3,7.2 27.25,8.1 q -2.1,0.85 -3.55,2.75 -1.45,1.9 -1.65,4.15 0,1.1 0.15,1.6 0.25,0.9 1.25,1.9 1.15,1 2.65,1.45 l 3.05,0.1 q 1.5,-0.35 2.75,-1.35 1.2,-1 1.8,-2.4 0.65,-1.3 0.05,-2.2 -0.3,-0.4 -1.05,-0.7 -1.25,-0.4 -2.55,0.25 1.8,0.85 1.8,2.35 0,1.2 -1.15,2 -0.95,0.6 -2.3,0.5 -1.7,-0.1 -2.6,-1.15 -0.8,-1.05 -0.65,-2.6 0.3,-2.55 2.45,-4.05 2,-1.45 4.6,-1.2 2.05,0.2 3.65,1.55 1.65,1.4 1.9,3.3 0.15,1.55 -0.55,3.35 -0.85,2.1 -2.55,3.65 -1.7,1.6 -3.85,2.3 l -4.5,0.45 q -2.3,-0.3 -4.2,-1.5 -1.85,-1.15 -2.95,-2.9 -1.25,-2 -1.35,-4.2 0,-1.85 0.5,-3.35 1.25,-4.1 4.7,-6.6 3.45,-2.6 7.7,-2.5 l 4.55,0.7 q 3.05,0.95 5.05,2.6 1.7,1.45 2.65,3.6 0.95,2.05 1,4.35 0.1,4.7 -3.2,8.15 -2.45,2.65 -7.6,4.75 l -0.85,0.25 q -0.65,-0.1 -0.7,-0.5 -0.1,-0.4 0.55,-0.95 l 2.35,-1.75 2.3,-1.75 q 2.7,-2.35 3.15,-4.8 0.25,-1.15 0.05,-3 -0.2,-2.05 -0.85,-3.3 m 7.7,9.7 q 0.9,0.15 1.4,0.9 0.5,0.6 0.4,1.55 -0.05,0.7 -0.5,1.2 l -1.15,0.7 -1.3,-0.05 -1.05,-0.75 q -0.4,-0.55 -0.45,-1.25 0,-0.7 0.35,-1.25 0.75,-1.3 2.3,-1.05 M 25.45,51.4 Q 23,52.75 20.05,53 l -0.05,0.05 -1.7,1.7 -1.2,0.7 q -2.15,1.05 -4.75,0 -0.7,-0.25 -1.1,-0.6 L 10.45,54.1 Q 9.3,52.7 9.45,51.45 L 9.6,50.6 q 0.25,-0.65 0.65,-1.05 L 10.1,49.4 Q 8.5,47.4 8.25,44.6 H 8.1 q -1.35,0 -2.5,-0.75 -1.15,-0.8 -1.7,-2 L 3.55,40.9 3.5,39.7 q 0.1,-1 0.35,-1.75 0.75,-2.15 3.1,-3.05 l 3.2,-0.15 1.15,0.6 0.05,0.05 q 1.85,-1.95 4.45,-2.85 2.2,-0.7 4.45,-0.5 l -0.55,-1 q -0.45,-1 -0.35,-2.6 0,-0.5 0.15,-1.05 l 0.25,-0.4 0.7,0.8 q 0.5,0.6 0.95,0.7 l 0.6,0.1 0.55,0.2 3.1,0.1 q 1.6,-0.4 2.7,-1.55 h 0.05 l 0.05,0.4 q 0.45,1.35 2.05,1.8 l 2.75,-0.15 q 1.85,-0.6 3.25,-2 l 1.1,-1.6 q 0.6,0.25 0.8,0.85 l 0.25,2.15 q 0.15,0.55 0.8,1.3 l 1.75,-0.35 3,-1.25 2.3,-1.35 q 1,-0.9 1.55,-0.85 0.4,0.05 0.7,0.4 0.3,0.4 0.2,0.8 l -0.25,0.65 -0.35,0.6 -0.45,1.35 q -0.45,1.5 -1.35,2.8 l 1.85,0.5 q 1.8,0.75 3,2.25 2.1,2.65 2,6.3 h 0.85 q 1.6,0.1 2.9,1 1.4,0.95 1.8,2.4 0.3,1.05 0,2.75 l -0.55,2 q -1.05,2.4 -3.75,4 -2.8,1.6 -7.3,1.95 L 44.6,56 41.95,55.55 q -1.7,-0.1 -2.6,0.6 L 38.9,56.4 q -0.4,-0.1 -0.3,-0.65 0.1,-0.5 0.3,-0.75 0.25,-0.45 0.8,-0.8 1.1,-0.75 2.75,-1 L 45.5,53 Q 50.55,52.75 53.25,50.6 54.8,49.35 55.1,48 55.3,47.3 55.05,46.85 54.6,46 53,46.4 l -0.95,0.45 q -0.7,1.15 -1.75,2.1 -2.85,2.6 -7.65,3.35 L 36.95,51.95 34,50.4 q -1.75,-1 -3,-1.15 L 28.9,49.2 28.25,49.15 q -1,1.3 -2.8,2.25 M 42.4,27.2 q -0.35,0.35 -0.85,0.35 -0.5,0.05 -0.9,-0.25 L 40.2,26.5 q -0.05,-0.55 0.2,-0.95 0.3,-0.4 0.8,-0.5 l 0.95,0.15 0.55,0.75 -0.05,0.95 -0.1,0.05 -0.15,0.25 M 18.25,22.45 q 0.65,0.7 0.1,1.5 -0.5,0.75 -1.4,0.55 Q 16.1,24.25 16,23.3 l 0.1,-0.55 q 0.35,-0.65 1,-0.75 0.75,-0.1 1.15,0.45 m -4.2,5.05 q 0.2,-0.7 0.9,-1.1 0.7,-0.4 1.45,-0.3 0.75,0.15 1.25,0.8 0.5,0.6 0.45,1.35 -0.1,1.35 -1.3,1.85 -1.2,0.45 -2.2,-0.4 -0.95,-0.95 -0.55,-2.2 m 9.1,22.5 -0.7,-0.45 -0.95,-0.25 0.05,-0.1 0.5,-1.1 q 0,-0.65 -0.45,-0.95 l -1.1,-0.1 q -0.5,0.2 -0.9,1.25 l -0.15,0.35 -0.85,-0.5 -1.15,-0.05 q -0.7,0.4 -0.6,1.3 0.1,0.5 0.45,0.7 l 0.9,0.2 0.55,0.05 Q 18.5,51.2 18.7,51.6 18.8,52 19.15,52.05 L 20,51.5 l 0.6,-0.85 1.55,0.1 0.7,-0.15 q 0.4,-0.2 0.3,-0.6 M 20.1,42.5 19.95,42.75 19.4,43.1 18,44.3 q -0.35,0.2 -0.35,0.45 l 0.15,0.2 0.25,0.05 0.55,-0.15 0.75,-0.05 1.1,-0.2 h 0.05 l 0.85,0.25 2,0.2 0.4,-0.25 q 0.3,-0.2 0.1,-0.45 L 23.4,44 l -0.9,-0.3 -0.9,-0.5 -0.15,-0.1 -0.2,-0.3 0.6,-1.1 0.2,-0.6 q 0,-0.5 -0.35,-0.55 -0.2,-0.05 -0.45,0.15 l -0.3,0.4 -0.85,1.4 m -6.65,-3.65 q 0.15,0.55 0.7,0.8 l 1.05,0.35 0.15,0.05 -0.3,0.5 -0.25,0.7 -0.2,0.25 -0.05,0.35 q 0.1,0.55 0.55,0.55 l 0.4,-0.15 0.4,-0.35 0.2,-0.25 0.2,-0.15 0.35,-0.35 0.4,-0.5 h 0.05 l 0.85,0.25 0.7,-0.45 -0.2,-0.6 -0.7,-0.4 0.2,-0.5 q 0.85,-0.3 0.95,-1.25 0,-1 -0.9,-1.25 l -0.8,0.05 -0.35,0.15 -0.35,0.45 -0.25,1.05 -0.1,0.05 -0.05,0.2 -0.75,-0.45 -0.75,-0.3 q -0.5,-0.05 -0.9,0.3 -0.35,0.4 -0.25,0.9 m 12.1,-7.3 q -0.75,0.4 -0.85,1.35 0,0.85 0.8,1.3 l 1.55,-0.05 q 0.65,-0.5 0.65,-1.3 0,-0.75 -0.7,-1.2 l -1.45,-0.1 m 11.35,2.4 -0.05,-0.45 q -0.2,-0.75 -1.1,-1.2 l -1.65,-0.25 -1,0.2 -0.4,0.3 -0.85,0.75 -0.35,0.55 -0.2,1.1 v 0.5 l 0.35,0.7 q 0.75,1.05 2.05,1.05 l 1.4,-0.4 0.6,-0.35 0.45,-0.45 0.45,-0.6 q 0.4,-0.5 0.3,-1.45"
         fill="#000000"
         fill-rule="evenodd"
         stroke="none"
         id="path6" />
    </g>
    <g
       id="shape2"
       transform="translate(1.5,1.5)">
      <path
         d="M 0,23.8 V 0 H 64.1 V 23.8 57.55 H 0 Z"
         fill="none"
         stroke="#000000"
         stroke-linecap="round"
         stroke-linejoin="round"
         stroke-width="3"
         id="path7" />
    </g>
  </defs>
</svg>
