<?xml version="1.0" encoding="UTF-8" standalone="no"?>
<svg
   ffdec:objectType="frame"
   height="60.549999"
   width="67.099998"
   version="1.1"
   id="svg8"
   sodipodi:docname="262.svg"
   xmlns:inkscape="http://www.inkscape.org/namespaces/inkscape"
   xmlns:sodipodi="http://sodipodi.sourceforge.net/DTD/sodipodi-0.dtd"
   xmlns:xlink="http://www.w3.org/1999/xlink"
   xmlns="http://www.w3.org/2000/svg"
   xmlns:svg="http://www.w3.org/2000/svg"
   xmlns:ffdec="https://www.free-decompiler.com/flash">
  <sodipodi:namedview
     id="namedview8"
     pagecolor="#ffffff"
     bordercolor="#000000"
     borderopacity="0.25"
     inkscape:showpageshadow="2"
     inkscape:pageopacity="0.0"
     inkscape:pagecheckerboard="0"
     inkscape:deskcolor="#d1d1d1"
     fit-margin-top="5"
     fit-margin-left="5"
     fit-margin-right="5"
     fit-margin-bottom="5" />
  <g
     transform="translate(1.5,1.5)"
     id="g3">
    <use
       ffdec:characterId="516"
       height="57.549999"
       width="64.099998"
       xlink:href="#shape0"
       id="use1" />
    <use
       ffdec:characterId="767"
       height="58.75"
       transform="translate(-1.15,-0.55)"
       width="65.550003"
       xlink:href="#shape1"
       id="use2" />
    <use
       ffdec:characterId="518"
       height="60.549999"
       transform="translate(-1.5,-1.5)"
       width="67.099998"
       xlink:href="#shape2"
       id="use3" />
  </g>
  <defs
     id="defs8">
    <g
       id="shape0">
      <path
         d="M 53.6,0 H 64.1 V 57.55 H 53.6 28.25 0 V 0 H 28.25 53.6 V 57.55 0 M 28.25,0 V 57.55 0"
         fill="#ffffff"
         fill-rule="evenodd"
         stroke="none"
         id="path3" />
    </g>
    <g
       id="shape1"
       transform="translate(1.15,0.55)">
      <path
         d="m 56.85,52.15 q 6.4,-9.5 6.1,-19.05 Q 62.85,30.9 62,26.25 60.4,18.8 57.7,14.7 56,12.15 51.5,7.85 48,4.6 45.6,3.45 42.75,2.2 38.75,1.95 L 29.7,2.4 Q 26.65,2.8 21.3,4.3 16.55,5.65 15,6.6 12.05,8.3 9.1,11.85 4.6,17.75 2.7,25.2 0.8,32.55 1.75,40.15 q 0.5,4.4 2,8 Q 6,53.65 11,57.7 H -0.15 V 10.1 Q 3.4,4.55 8.35,0.7 l 1.7,-1.25 H 55.5 l 4.3,4.2 4.15,4.75 v 48.9 l -0.3,0.4 h -11.8 q 2.55,-2.1 5,-5.55 M 41.15,44.7 43.6,42 q 3.05,-4.5 2.9,-9.05 L 46.05,29.7 Q 45.3,26.15 44,24.2 43.2,23 41.05,20.95 l -2.8,-2.1 Q 36.9,18.25 35,18.15 l -4.3,0.2 -4,0.9 q -2.25,0.65 -3,1.1 -1.4,0.8 -2.8,2.5 -2.15,2.8 -3.05,6.35 -0.9,3.5 -0.45,7.1 0.25,2.1 0.95,3.8 1.1,2.65 3.5,4.6 2.25,1.85 5.15,2.6 5.4,1.45 11.4,-1.05 1.6,-0.7 2.75,-1.55 M 47.9,43 q -2.5,4.1 -4.7,5.6 -1.35,0.95 -3.45,1.75 -2.05,0.85 -4.5,1.4 -3.7,0.75 -7.4,0.15 Q 24,51.3 20.9,49.4 17.7,47.4 15.6,44.25 13.45,41 13.05,37.35 12.85,35.6 13,33.5 q 0.3,-4.85 2.05,-8.8 2,-4.45 5.5,-7.15 3.05,-2.4 7.3,-3.3 L 36,13.95 q 2.5,0.25 4.1,1 2.1,1 4.9,4 1.9,2 2.6,3.15 0.8,1.3 1.7,3.95 l 1.05,3.9 0.1,4.3 q -0.1,3 -0.5,4.45 -0.55,1.95 -2.05,4.3 m -2.2,7.35 q 1.85,-1.45 3.65,-3.95 4.5,-6.7 4.3,-13.4 l -0.7,-4.8 q -1.1,-5.25 -3,-8.15 -1.2,-1.8 -4.4,-4.8 -2.4,-2.3 -4.1,-3.1 -2,-0.9 -4.85,-1.05 l -6.35,0.3 -5.9,1.3 q -3.35,1 -4.45,1.65 -2.05,1.2 -4.15,3.7 -3.15,4.15 -4.5,9.4 -1.35,5.15 -0.65,10.5 0.35,3.1 1.4,5.6 1.6,3.95 5.15,6.8 3.35,2.75 7.65,3.85 8,2.15 16.85,-1.55 2.35,-1 4.05,-2.3 m 10,-2.5 Q 52,53.9 48.75,56.15 L 46.1,57.7 H 16.45 l -0.7,-0.4 q -4.7,-2.95 -7.8,-7.6 -3.2,-4.8 -3.8,-10.2 -0.3,-2.6 -0.05,-5.7 0.4,-7.15 3,-13 2.95,-6.6 8.15,-10.6 4.5,-3.55 10.8,-4.85 L 38.1,4.9 q 3.7,0.35 6.05,1.45 3.1,1.5 7.25,5.95 2.8,2.95 3.85,4.65 1.2,1.9 2.5,5.85 1.35,4.05 1.6,5.75 0.25,1.7 0.1,6.35 -0.1,4.45 -0.7,6.6 -0.85,2.9 -3.05,6.35"
         fill="#767676"
         fill-rule="evenodd"
         stroke="none"
         id="path4" />
      <path
         d="m 32.3,-0.35 0.1,0.05 0.2,0.05 0.05,0.15 h 0.05 l 0.05,0.05 0.1,0.1 0.05,0.05 V 0.35 L 32.95,0.4 V 0.5 0.55 0.7 1.05 L 33,1.1 v 0.05 0.1 0.05 l 0.05,0.05 V 1.85 1.95 2 2.1 2.45 2.6 2.65 2.75 3.15 3.25 3.4 3.8 3.9 3.95 4.05 4.1 4.25 4.4 4.55 4.6 4.7 4.75 4.85 5.1 5.2 5.25 5.4 5.5 5.75 5.85 5.9 6 l 0.05,0.1 v 0.1 0.2 l 0.05,0.1 v 0.05 0.1 0.05 h 0.1 v 0.1 0.4 0.15 l 0.05,0.1 v 0.4 0.1 0.15 0.5 0.1 0.2 l 0.05,0.05 V 9.3 9.4 9.45 h 0.05 v 0.15 0.15 0.1 0.05 0.15 0.05 0.1 0.25 0.1 0.15 0.15 0.2 0.15 0.05 0.1 0.05 0.15 l 0.05,0.05 v 0.1 0.1 h 0.05 v 0.05 0.15 0.05 0.1 0.4 0.1 0.25 l 0.05,0.05 v 0.25 0.1 0.05 0.15 0.3 h 0.1 v 0.15 0.05 0.1 0.05 l 0.05,0.05 v 0.45 l 0.05,0.05 v 0.1 0.35 0.1 l 0.05,0.05 v 0.15 0.1 0.35 0.1 0.5 l 0.05,0.1 v 0.1 0.05 0.1 0.15 l 0.05,0.05 v 0.15 0.1 0.1 0.1 0.1 h 0.05 v 0.05 0.15 h 0.1 v 0.05 l 0.05,0.1 v 0.25 l 0.05,0.05 v 0.1 0.1 0.1 0.1 0.35 0.1 0.1 0.05 0.15 0.35 0.1 0.55 0.15 0.05 0.1 0.35 0.1 0.05 0.15 0.4 0.1 0.1 0.25 0.1 0.05 0.15 0.05 0.1 0.05 0.15 0.15 0.1 0.05 0.15 0.05 0.1 0.25 0.1 0.05 0.15 0.1 0.2 0.15 0.05 0.1 0.1 0.45 0.1 0.55 0.15 0.1 L 34.2,26 34.25,25.95 h 0.05 l 0.1,-0.15 0.05,-0.05 h 0.05 l 0.05,-0.05 h 0.05 l 0.05,-0.05 0.05,-0.05 v -0.15 h 0.1 L 35.3,25.05 35.35,25 V 24.95 L 35.4,24.9 35.45,24.85 H 35.5 V 24.8 l 0.1,-0.1 0.05,-0.05 0.05,-0.05 0.45,-0.4 h 0.05 l 0.05,-0.05 0.1,-0.05 V 24.05 L 36.4,24 h 0.1 l 0.1,-0.2 0.05,-0.05 0.1,-0.05 0.05,-0.05 0.05,-0.05 H 36.9 L 36.95,23.5 37,23.45 h 0.05 l 0.1,-0.1 0.3,-0.3 h 0.1 V 23 l 0.05,-0.05 h 0.05 l 0.05,-0.05 0.05,-0.05 0.05,-0.1 0.1,-0.05 h 0.05 L 38,22.6 38.4,22.3 v -0.1 l 0.05,-0.05 h 0.05 l 0.35,-0.3 0.05,-0.05 h 0.05 L 39,21.75 V 21.7 l 0.1,-0.05 h 0.05 L 39.2,21.55 39.25,21.5 39.3,21.45 39.85,21 39.9,20.95 39.95,20.9 40,20.8 40.05,20.75 H 40.1 V 20.7 l 0.05,-0.05 0.5,-0.4 0.05,-0.05 0.45,-0.4 0.05,-0.05 0.05,-0.1 0.05,-0.05 0.1,-0.05 0.1,-0.1 0.05,-0.05 0.05,-0.05 0.1,-0.1 0.35,-0.2 v -0.1 l 0.05,-0.1 h 0.1 l 0.05,-0.05 0.05,-0.05 h 0.05 l 0.05,-0.05 0.05,-0.05 h 0.05 l 0.1,-0.1 0.1,-0.15 h 0.05 L 42.8,18.35 42.85,18.3 42.9,18.25 H 43 l 0.05,-0.1 0.05,-0.1 h 0.1 l 0.3,-0.25 0.05,-0.1 h 0.05 l 0.05,-0.05 0.1,-0.05 H 43.8 L 43.85,17.55 43.9,17.5 V 17.4 L 44.4,17 h 0.05 L 44.6,16.85 44.65,16.8 V 16.75 H 44.7 L 44.75,16.7 44.9,16.65 44.95,16.6 45,16.5 h 0.05 l 0.05,-0.05 v -0.1 h 0.1 V 16.3 h 0.1 l 0.05,-0.05 0.05,-0.1 0.4,-0.3 0.05,-0.15 0.05,-0.05 h 0.1 0.1 l 0.05,-0.05 0.05,-0.05 0.05,-0.05 h 0.05 v -0.05 l 0.05,-0.1 0.4,-0.3 0.1,0.05 0.1,-0.15 V 14.9 l 0.05,-0.05 0.1,-0.05 0.2,-0.1 0.05,-0.15 h 0.05 l 0.05,-0.05 0.05,-0.05 h 0.05 V 14.4 h 0.1 l 0.05,-0.05 0.05,-0.05 0.05,-0.15 h 0.05 0.1 l 0.3,-0.25 0.05,-0.1 h 0.15 l 0.05,-0.05 h 0.05 L 48.6,13.7 v -0.05 h 0.05 L 48.7,13.6 v -0.05 h 0.1 l 0.05,-0.15 h 0.1 l 0.5,-0.45 0.05,0.05 0.35,-0.25 0.05,-0.1 0.1,-0.05 v -0.05 l 0.05,-0.05 0.05,-0.05 h 0.1 0.05 l 0.2,-0.2 h 0.1 L 50.8,12.05 50.85,12 50.9,11.95 50.95,11.85 51,11.8 h 0.05 l 0.1,-0.05 0.05,-0.05 h 0.05 v -0.1 l 0.3,-0.2 0.05,-0.05 h 0.05 l 0.05,-0.05 0.05,-0.1 0.35,-0.3 0.05,0.05 0.05,-0.1 0.1,-0.05 0.05,-0.1 h 0.1 V 10.65 L 52.5,10.6 52.55,10.55 H 52.6 L 53,10.1 h 0.2 L 53.25,10.05 53.3,10 53.35,9.9 h 0.1 L 53.5,9.85 V 9.8 l 0.05,-0.05 h 0.1 V 9.7 L 53.7,9.65 53.75,9.7 53.85,9.65 53.9,9.6 53.95,9.5 V 9.45 H 54.1 L 54.15,9.4 54.75,8.9 54.8,8.85 54.85,8.75 V 8.7 L 54.9,8.65 54.95,8.6 h 0.1 L 55.5,8.2 55.55,8.1 55.6,8.05 55.65,7.95 H 55.7 L 55.8,7.9 55.9,7.85 56,7.75 56.05,7.7 56.1,7.65 v -0.1 h 0.1 L 56.25,7.5 H 56.3 L 56.35,7.45 56.4,7.4 56.45,7.35 56.95,6.9 h 0.1 V 6.8 L 57.1,6.75 h 0.05 L 57.2,6.7 h 0.15 V 6.65 L 57.4,6.7 57.45,6.65 V 6.6 l 0.3,-0.2 0.1,-0.1 h 0.1 L 58,6.25 h 0.05 l 0.15,0.05 0.1,-0.05 0.15,0.05 0.1,0.1 0.1,0.1 0.1,0.1 0.15,0.1 0.05,0.1 V 6.9 6.95 7.2 L 58.8,7.35 58.75,7.4 58.6,7.55 58.55,7.65 v 0.1 L 58.45,7.8 V 7.85 H 58.4 L 58.35,7.9 58.25,8.05 58.2,8.15 57.85,8.5 57.8,8.55 57.75,8.6 H 57.6 L 57.55,8.65 57.5,8.7 57.45,8.75 57.35,8.9 57.25,9 57.15,9.05 H 57.1 L 57.05,9.1 57,9.15 56.95,9.25 56.4,9.7 56.35,9.75 56.3,9.8 56.25,9.85 56.2,9.9 h -0.1 v 0.15 l -0.6,0.5 v 0.05 0.05 l -0.05,0.05 -0.05,0.1 -0.1,0.05 v 0.05 l -0.2,0.1 -0.05,0.05 v 0.1 l -0.1,0.05 H 54.9 v 0.05 l -0.05,0.05 v 0.05 L 54.8,11.4 h -0.05 l -0.45,0.4 v 0.05 l -0.05,0.1 -0.1,0.05 -0.05,0.05 H 54.05 L 54,12.1 v 0.05 l -0.05,0.05 -0.25,0.25 -0.15,0.2 -0.05,0.1 -0.05,0.05 h -0.1 L 53.3,12.85 53,13.1 v 0.1 H 52.95 L 52.9,13.25 52.85,13.3 H 52.8 l -0.05,0.05 -0.05,0.05 -0.1,0.1 -0.05,0.05 -0.2,0.2 v 0.15 l -0.2,0.1 v 0.05 L 52.1,14.1 52.05,14.15 H 52 v 0.15 l -0.05,0.05 V 14.4 H 51.9 l -0.65,0.55 v 0.1 l -0.3,0.2 H 51 l -0.05,0.05 -0.05,0.05 v 0.1 0.05 l -0.05,0.05 -0.05,0.05 -0.05,0.05 h -0.1 L 50.6,15.7 v 0.05 L 50.5,15.9 50.15,16.15 50.1,16.3 H 50.05 L 50,16.35 v 0.05 l -0.1,0.05 h -0.05 l -0.05,0.05 -0.05,0.1 -0.05,0.1 -0.2,0.1 -0.1,0.05 v 0.05 h -0.05 l 0.05,0.15 h -0.05 l -0.05,0.1 h -0.05 l -0.05,0.1 -0.3,0.25 -0.05,0.1 H 48.8 l -0.1,0.05 -0.05,0.05 v 0.1 H 48.6 l -0.05,0.05 -0.05,0.05 -0.05,0.1 -0.4,0.35 -0.1,0.05 -0.05,0.05 h -0.05 l -0.05,0.1 -0.05,0.05 v 0.05 H 47.7 l -0.05,0.05 -0.1,0.05 v 0.05 l -0.1,0.05 0.05,0.1 H 47.45 L 47.4,19 v 0.05 L 47.35,19.1 H 47.3 l -0.05,0.05 -0.6,0.5 -0.05,0.1 -0.05,0.05 -0.05,0.05 -0.1,0.05 -0.05,0.05 H 46.3 L 46.25,20 46.2,20.15 45.8,20.4 45.75,20.55 V 20.6 H 45.7 l -0.1,0.05 -0.05,0.05 H 45.5 l -0.15,0.1 V 20.95 21 H 45.3 l -0.1,0.05 -0.05,0.05 H 45.1 v 0.05 L 45.05,21.2 H 45 l -0.05,0.1 -0.05,0.1 -0.45,0.35 -0.05,0.05 -0.05,0.05 H 44.3 l -0.05,0.05 -0.05,0.05 -0.05,0.1 -0.1,0.05 -0.05,0.05 -0.15,0.15 v 0.15 l -0.25,0.15 -0.05,0.05 -0.45,0.4 -0.05,0.05 -0.05,0.05 -0.1,0.1 -0.05,0.05 -0.05,0.05 h -0.05 l -0.5,0.45 v 0.05 L 42.2,23.9 42.1,24 h -0.05 v 0.05 L 42,24.1 41.95,24.15 41.9,24.2 h -0.05 l -0.05,0.05 -0.35,0.3 -0.05,0.05 -0.1,0.05 -0.45,0.4 v 0.1 L 40.8,25.2 h -0.05 l -0.05,0.05 -0.05,0.05 h -0.1 l -0.05,0.05 -0.05,0.05 0.05,0.05 -0.4,0.35 -0.05,0.15 h -0.1 L 39.9,26 l -0.05,0.05 -0.1,0.05 -0.05,0.05 h -0.05 v 0.1 L 39.5,26.4 39.35,26.45 39.3,26.5 v 0.05 h -0.05 l -0.05,0.05 -0.05,0.05 -0.45,0.45 -0.1,0.05 -0.05,0.05 h 0.25 0.1 0.3 0.1 0.05 0.15 0.4 0.1 0.1 0.15 0.1 0.1 0.1 0.15 0.05 l 0.1,0.05 h 0.05 0.15 0.1 0.1 0.4 0.15 0.1 0.1 0.25 0.1 0.1 0.15 0.4 0.1 0.3 0.1 0.05 0.1 0.15 0.1 0.25 0.1 0.05 0.1 0.15 l 0.05,0.05 h 0.1 0.1 0.1 0.1 0.45 0.1 0.05 0.15 0.05 0.1 0.1 0.15 0.2 0.15 l 0.05,0.05 h 0.1 0.1 0.15 0.05 0.1 0.05 0.15 0.1 0.1 0.25 0.1 0.05 0.1 0.3 0.15 0.05 0.1 0.1 0.15 0.05 l 0.1,0.05 h 0.05 0.1 0.1 0.1 0.3 0.1 0.1 0.1 0.45 0.1 0.15 l 0.05,0.1 h 0.15 0.1 0.1 0.15 0.1 0.05 0.1 0.15 0.1 0.1 0.05 0.15 0.05 0.1 l 0.05,0.05 h 0.05 0.15 0.4 0.1 l 0.05,0.05 h 0.25 0.1 0.1 l 0.15,0.05 h 0.05 0.1 0.05 0.15 0.05 0.1 0.1 0.15 0.2 0.1 0.15 0.1 0.05 v 0.05 h 0.1 0.25 0.1 0.25 0.1 0.15 l 0.1,0.05 h 0.1 0.1 l 0.1,0.05 h 0.1 0.1 0.1 0.15 0.05 0.1 0.15 0.1 0.05 0.1 0.45 0.15 0.2 0.15 0.1 0.1 0.25 0.1 0.05 0.15 l 0.05,0.1 h 0.05 0.1 0.25 0.1 0.05 l 0.05,0.05 h 0.15 0.05 0.1 0.25 0.1 0.3 0.1 0.05 0.1 0.15 0.1 0.05 0.1 0.1 l 0.1,0.05 h 0.05 0.1 0.05 0.15 0.1 0.1 0.05 0.15 l 0.05,0.05 h 0.4 0.1 0.2 l 0.05,0.05 h 0.1 0.1 0.15 0.2 0.15 0.05 0.1 0.1 0.15 0.05 0.1 0.05 0.15 0.05 v 1.65 H 64.35 64.2 64.15 64.05 64 63.85 63.75 63.65 63.6 63.45 63.25 63.1 63 h -0.1 -0.25 -0.1 -0.1 l -0.05,0.1 H 62.15 L 62.1,29.9 H 61.95 61.9 61.8 61.7 61.55 61.5 61.4 61.35 l -0.1,0.05 H 61.15 61.05 61 60.9 60.75 60.65 60.6 60.5 60.2 60.1 59.85 59.75 59.7 59.55 L 59.5,30 H 59.45 59.35 59.1 59 58.9 58.75 58.7 58.6 58.35 58.25 58.15 58 57.8 57.65 57.2 57.1 57.05 56.95 56.8 56.7 56.65 56.5 l -0.05,0.05 H 56.4 56.3 56.2 L 56.1,30.1 H 56 55.9 l -0.1,0.1 H 55.65 55.55 55.3 55.2 54.95 54.85 54.8 54.7 54.55 54.45 54.25 54.1 54 53.9 53.85 v 0.05 H 53.7 53.65 53.55 53.5 l -0.15,0.05 h -0.1 -0.1 -0.25 l -0.05,0.05 h -0.1 -0.4 -0.15 -0.1 V 30.4 H 52 51.95 51.8 51.75 51.65 51.55 51.4 51.3 51.25 51.15 51 h -0.1 -0.1 -0.15 -0.2 -0.1 -0.2 L 50.1,30.45 H 49.9 49.8 49.7 49.6 49.3 49.2 49.1 49 48.95 l -0.1,0.05 h -0.05 -0.15 -0.1 -0.1 -0.05 -0.15 -0.3 -0.1 -0.05 -0.1 -0.25 -0.1 -0.1 -0.15 -0.05 -0.1 -0.05 -0.15 -0.1 -0.1 L 46.5,30.6 H 46.35 46.15 46 45.9 45.8 45.75 45.6 45.55 45.45 45 44.9 44.8 44.7 44.6 l -0.05,0.05 H 44.4 44.3 44.25 44.15 43.9 43.8 43.65 43.55 43.5 43.4 43.1 43 42.6 42.45 42.35 42.25 42 h -0.1 -0.1 -0.15 -0.4 -0.1 -0.1 -0.15 -0.05 -0.1 -0.05 -0.15 -0.1 -0.1 -0.1 H 40.1 40 V 30.7 H 39.9 39.5 39.35 39.3 39.2 38.9 38.8 38.55 l 0.05,0.05 0.1,0.05 0.45,0.4 0.05,0.05 h 0.05 l 0.05,0.05 v 0.1 l 0.05,0.05 0.15,0.05 0.15,0.1 v 0.05 l 0.05,0.05 0.05,0.1 0.1,0.05 0.05,0.05 h 0.05 L 40,31.95 h 0.05 l 0.05,0.1 0.4,0.35 -0.05,0.05 0.05,0.1 h 0.05 l 0.1,0.05 0.05,0.05 0.05,0.05 h 0.05 l 0.05,0.05 0.05,0.1 0.4,0.3 0.1,0.1 0.05,0.1 0.35,0.25 0.05,0.1 h 0.05 l 0.05,0.05 0.05,0.05 0.05,0.05 0.05,0.05 0.1,0.05 0.05,0.05 0.5,0.5 0.05,0.05 0.05,0.05 0.05,0.05 H 43 l 0.05,0.05 v 0.05 l 0.05,0.05 0.45,0.4 0.05,0.1 0.25,0.15 V 35.5 L 44,35.75 h 0.05 v 0.05 l 0.1,0.05 0.05,0.05 0.05,0.05 h 0.05 l 0.05,0.1 0.05,0.05 0.05,0.05 0.45,0.35 0.05,0.1 H 45 l 0.05,0.05 0.05,0.05 v 0.05 h 0.05 l 0.05,0.1 h 0.1 l 0.05,0.05 V 36.95 37 l 0.15,0.2 h 0.05 l 0.05,0.05 h 0.1 l 0.05,0.05 v 0.05 l 0.05,0.1 0.4,0.3 0.05,0.1 h 0.05 l 0.05,0.05 0.05,0.1 0.1,0.05 0.05,0.05 h 0.05 v 0.05 l 0.05,0.05 0.6,0.5 h 0.05 l 0.05,0.1 0.05,0.05 v 0.05 l 0.05,0.05 h 0.05 l -0.05,0.05 0.1,0.05 v 0.1 l 0.1,0.05 h 0.05 l 0.05,0.05 v 0.05 l 0.05,0.05 h 0.05 l 0.05,0.05 0.05,0.05 0.1,0.1 0.4,0.3 0.05,0.15 h 0.05 l 0.05,0.05 0.05,0.05 v 0.05 l 0.05,0.05 h 0.1 l 0.05,0.05 0.05,0.15 0.3,0.2 0.1,0.15 0.05,0.1 h 0.05 l -0.05,0.05 0.05,0.05 V 41 l 0.1,0.1 0.2,0.1 0.05,0.1 h 0.05 v 0.05 l 0.05,0.05 h 0.05 l 0.1,0.1 v 0.05 h 0.05 l 0.05,0.05 0.05,0.1 0.35,0.25 V 42 l 0.1,0.1 v 0.05 h 0.05 l 0.1,0.05 0.05,0.1 0.05,0.05 h 0.05 v 0.1 0.05 l 0.05,0.05 0.3,0.25 v 0.1 l 0.65,0.55 0.05,0.05 v 0.05 L 52,43.6 v 0.05 l 0.05,0.05 0.05,0.05 0.05,0.1 0.2,0.15 v 0.05 l 0.2,0.25 v 0.05 l 0.05,0.05 0.1,0.05 0.05,0.05 h 0.05 l 0.05,0.1 0.05,0.05 0.05,0.05 H 53 v 0.1 l 0.3,0.25 0.05,0.05 h 0.1 l 0.05,0.05 0.2,0.25 v 0.05 l 0.15,0.1 0.05,0.05 0.05,0.05 0.05,0.05 v 0.1 h 0.05 l 0.05,0.05 0.05,0.05 0.1,0.05 0.05,0.05 v 0.05 l 0.4,0.35 0.05,0.05 h 0.05 l 0.05,0.1 v 0.05 l 0.05,0.05 0.05,0.05 0.1,0.05 v 0.05 l 0.05,0.05 0.2,0.15 v 0.05 h 0.1 l 0.05,0.05 v 0.05 l 0.05,0.05 v 0.05 0.1 l 0.6,0.5 v 0.05 l 0.1,0.05 0.05,0.05 0.05,0.1 0.05,0.05 h 0.05 l 0.55,0.5 0.05,0.05 0.05,0.05 h 0.05 l 0.05,0.05 0.1,0.1 0.1,0.1 0.05,0.05 0.05,0.05 0.05,0.05 0.05,0.05 h 0.1 l 0.1,0.1 0.05,0.05 0.05,0.05 0.35,0.35 0.05,0.1 0.05,0.05 0.05,0.05 0.05,0.1 h 0.05 l 0.1,0.05 v 0.15 h 0.05 v 0.05 l 0.35,0.35 v 0.25 0.05 0.1 l -0.05,0.15 -0.15,0.1 -0.1,0.05 -0.1,0.1 -0.1,0.15 H 58.3 58.2 L 58.05,51.65 58,51.6 H 57.85 L 57.75,51.45 57.6,51.4 57.45,51.3 V 51.25 L 57.4,51.2 57.35,51.25 V 51.2 l -0.1,-0.1 H 57.1 L 57.05,51.05 V 51 h -0.1 L 56.85,50.9 56.5,50.6 56.45,50.5 H 56.4 L 56.35,50.45 56.3,50.35 H 56.25 L 56.2,50.3 56.05,50.2 56,50.1 55.9,50.05 55.8,49.95 55.7,49.9 55.65,49.85 H 55.6 L 55.55,49.8 55.5,49.7 55.05,49.3 54.95,49.2 H 54.9 L 54.85,49.15 V 49.1 L 54.8,49.05 V 49 H 54.75 L 54.15,48.5 54.1,48.4 H 54 L 53.95,48.35 53.9,48.3 53.85,48.25 53.75,48.2 53.7,48.25 53.65,48.15 h -0.1 L 53.5,48.1 V 48 L 53.45,47.95 53.35,47.9 H 53.3 L 53.25,47.85 53.2,47.8 H 53.15 L 53,47.75 52.6,47.35 52.55,47.25 H 52.5 L 52.45,47.2 V 47.15 L 52.4,47.1 H 52.35 L 52.3,47.05 H 52.2 L 52.15,46.95 52.1,47 51.7,46.6 51.65,46.55 H 51.6 l -0.05,-0.1 -0.3,-0.2 V 46.2 H 51.2 L 51.15,46.15 51.05,46.05 51,46 H 50.95 L 50.9,45.95 50.85,45.9 50.8,45.85 V 45.8 l -0.25,-0.25 h -0.1 l -0.2,-0.1 H 50.2 50.15 L 50.1,45.4 H 50.05 L 50,45.3 V 45.25 L 49.9,45.2 v -0.05 h -0.05 l -0.35,-0.3 -0.05,0.05 -0.5,-0.45 h -0.1 L 48.8,44.35 48.7,44.3 48.65,44.25 H 48.6 V 44.2 L 48.55,44.1 48.5,44.05 H 48.3 L 48.25,44 47.95,43.7 h -0.1 L 47.8,43.65 47.75,43.6 47.7,43.55 47.65,43.5 47.55,43.45 H 47.5 L 47.45,43.35 47.4,43.3 47.35,43.25 47.1,43.05 H 47 l -0.05,-0.1 V 42.9 L 46.9,42.85 46.85,42.8 h -0.1 L 46.35,42.5 46.3,42.4 V 42.35 H 46.2 L 46.15,42.3 46.1,42.2 H 46 45.95 L 45.9,42.15 H 45.85 L 45.8,42.05 45.4,41.7 45.35,41.65 45.3,41.6 45.2,41.55 H 45.1 V 41.4 L 45.05,41.35 45,41.3 H 44.95 L 44.9,41.25 44.75,41.2 44.7,41.15 44.65,41.1 44.6,41 44.55,40.95 V 40.9 l -0.1,-0.05 H 44.4 l -0.5,-0.4 V 40.4 L 43.85,40.35 43.8,40.25 43.75,40.2 h -0.1 L 43.6,40.15 H 43.55 L 43.5,40.1 43.45,40 43.2,39.8 H 43.1 L 43.05,39.75 43,39.65 42.9,39.6 H 42.85 L 42.8,39.55 42.75,39.45 H 42.7 L 42.5,39.25 42.45,39.2 H 42.4 L 42.35,39.15 H 42.3 L 42.25,39.05 42.2,39 42.1,38.95 h -0.05 v -0.1 L 41.7,38.55 41.6,38.5 H 41.55 L 41.5,38.45 41.45,38.4 V 38.3 H 41.4 L 41.3,38.25 41.25,38.2 41.2,38.15 V 38.1 H 41.15 L 40.7,37.7 40.65,37.65 40.15,37.25 40.1,37.2 V 37.1 L 40.05,37.05 40,37 H 39.95 L 39.9,36.95 39.85,36.9 39.3,36.45 v -0.1 H 39.25 L 39.2,36.3 39.15,36.25 39.1,36.2 39,36.15 38.95,36.1 H 38.9 L 38.85,35.95 38.5,35.75 H 38.45 L 38.4,35.7 V 35.55 L 38,35.3 37.95,35.15 37.9,35.1 H 37.8 L 37.75,35.05 37.7,35 37.65,34.95 37.6,34.9 h -0.05 v -0.1 h -0.1 l -0.3,-0.3 -0.1,-0.1 H 37 L 36.95,34.35 36.9,34.3 36.85,34.25 H 36.8 L 36.75,34.2 36.65,34.15 36.6,34.1 V 34 L 36.5,33.9 36.4,33.85 H 36.35 V 33.8 L 36.25,33.75 36.2,33.7 36.15,33.6 35.7,33.2 35.65,33.15 H 35.6 L 35.5,33.1 V 33.05 L 35.45,33 H 35.4 l -0.05,-0.05 v -0.1 L 35.3,32.8 34.8,32.4 34.7,32.35 V 32.3 L 34.65,32.25 34.6,32.2 34.55,32.15 h -0.1 L 34.4,32.05 34.3,31.95 34.25,31.9 H 34.2 l -0.05,-0.05 v 0.1 0.1 0.1 0.1 0.05 0.1 0.25 0.1 0.5 0.15 0.05 0.1 0.05 0.15 0.15 0.1 0.1 0.1 0.05 0.1 0.4 0.15 0.3 0.15 0.05 0.1 0.05 0.15 0.35 0.1 0.05 0.1 0.4 0.15 0.1 0.4 0.1 0.15 1.2 0.1 0.05 0.1 0.2 0.1 0.05 0.15 0.05 l -0.05,0.1 v 0.25 L 34.05,40 v 0.05 l -0.1,0.05 v 0.1 l -0.05,0.05 v 0.3 0.15 0.1 0.05 h -0.05 v 0.35 0.1 H 33.8 v 0.1 0.55 0.1 0.4 0.1 h -0.05 v 0.1 0.1 0.05 0.1 0.2 0.1 H 33.7 v 0.05 0.1 0.1 0.1 0.1 l -0.05,0.05 v 0.25 0.1 h -0.1 v 0.15 0.2 0.1 0.1 0.1 0.05 0.1 0.05 H 33.5 v 0.15 0.15 0.1 0.1 0.1 0.4 0.1 l -0.05,0.05 v 0.15 0.1 l -0.05,0.05 v 0.2 0.1 0.05 0.1 0.55 0.1 0.55 0.15 0.1 0.1 l -0.05,0.05 v 0.2 0.1 0.05 0.15 0.05 L 33.3,49 v 0.4 0.1 0.4 0.15 0.05 0.1 0.05 0.1 0.1 l -0.05,0.05 v 0.05 0.1 0.05 0.15 0.05 0.1 0.1 l -0.1,0.1 v 0.05 0.1 0.05 l -0.05,0.05 v 0.35 l -0.05,0.05 v 0.15 0.05 0.1 0.05 0.1 0.2 0.1 0.05 0.15 0.05 0.1 0.4 0.1 0.55 0.1 0.1 0.4 0.15 0.1 0.45 0.1 0.15 0.05 0.1 0.25 0.1 0.1 0.1 0.1 0.15 L 33,56.55 v 0.25 l -0.05,0.05 v 0.35 0.1 0.05 0.15 l -0.05,0.05 v 0.1 0.05 l -0.05,0.05 v 0.1 l -0.1,0.1 H 32.7 L 32.65,58 32.6,58.1 32.4,58.2 H 32.3 32.15 31.95 31.8 L 31.7,58.1 31.6,58 31.55,57.95 H 31.5 l -0.05,-0.1 v -0.1 L 31.4,57.7 v -0.05 -0.1 L 31.35,57.5 V 57.35 57.3 57.2 57.1 L 31.3,57.05 v -0.2 L 31.2,56.8 V 56.55 L 31.15,56.5 v -0.15 -0.1 -0.1 -0.1 -0.1 V 55.7 55.6 55.55 55.4 55.3 54.85 54.75 54.6 54.2 54.1 54 53.45 53.35 52.95 52.85 52.8 52.65 52.6 52.5 52.3 52.2 52.15 52.05 52 51.85 L 31.1,51.8 V 51.35 51.25 51.2 L 31.05,51.1 V 51 50.9 50.85 50.7 50.65 50.55 50.5 L 31,50.45 V 50.35 50.25 50.2 50.1 50.05 49.9 49.5 49.4 49 L 30.95,48.95 V 48.9 48.75 48.7 48.6 48.4 L 30.9,48.35 v -0.1 -0.1 -0.15 -0.55 -0.1 -0.55 -0.1 -0.05 -0.1 -0.2 L 30.8,46.3 V 46.2 46.05 L 30.75,46 V 45.9 45.8 L 30.7,45.7 V 45.5 45.4 45.3 45.2 45.05 44.9 H 30.65 V 44.85 44.75 44.7 44.6 44.5 44.4 44.2 44.05 H 30.6 v -0.1 -0.25 l -0.05,-0.05 v -0.1 -0.1 -0.1 -0.1 -0.05 h -0.1 v -0.1 -0.2 -0.1 -0.05 -0.1 -0.1 -0.1 -0.4 -0.1 -0.55 -0.1 H 30.4 V 41.2 40.85 H 30.35 V 40.8 40.7 40.55 40.25 L 30.3,40.2 V 40.1 L 30.25,40.05 V 40 L 30.2,39.95 V 39.7 L 30.15,39.6 V 39.55 39.4 39.35 h -0.1 v -0.1 -0.2 -0.1 -0.05 -0.1 -1.2 -0.15 -0.1 -0.4 -0.1 V 36.7 36.3 36.2 36.15 36.05 35.7 35.55 35.5 35.4 35.35 35.2 34.9 34.75 34.35 34.25 34.2 34.1 34 33.9 33.75 33.6 v -0.05 -0.1 -0.05 -0.15 -0.5 -0.1 -0.25 -0.1 -0.05 -0.1 -0.1 -0.1 -0.1 L 30,31.9 h -0.05 l -0.05,0.05 -0.05,0.1 v 0.1 h -0.1 l -0.1,0.05 -0.05,0.05 -0.05,0.05 H 29.5 v 0.05 L 29.45,32.4 29,32.8 28.9,32.85 28.85,32.95 28.8,33 h -0.05 l -0.05,0.05 v 0.05 l -0.05,0.05 -0.05,0.05 -0.55,0.4 v 0.1 L 28,33.75 27.95,33.8 v 0.05 H 27.9 L 27.6,34 v 0.1 l -0.05,0.05 -0.05,0.05 -0.05,0.05 -0.1,0.05 -0.05,0.05 -0.05,0.05 H 27.2 l -0.05,0.1 -0.35,0.3 h -0.05 v 0.1 H 26.7 l -0.05,0.05 -0.1,0.05 -0.05,0.05 -0.05,0.05 h -0.1 l -0.05,0.05 -0.05,0.15 -0.35,0.25 -0.05,0.15 -0.1,0.05 H 25.7 l -0.3,0.2 -0.05,0.15 H 25.3 l -0.05,0.05 H 25.2 L 25.15,36.2 25.1,36.25 25,36.3 24.95,36.35 v 0.1 L 24.4,36.9 v 0.05 L 24.35,37 H 24.3 l -0.1,0.05 -0.05,0.05 v 0.1 l -0.05,0.05 -0.45,0.4 -0.05,0.05 -0.45,0.4 h -0.1 v 0.05 L 23,38.2 22.95,38.25 22.9,38.3 h -0.05 l -0.05,0.1 -0.05,0.05 -0.1,0.05 H 22.6 l -0.05,0.05 -0.35,0.3 -0.05,0.1 H 22.1 L 22.05,39 22,39.05 21.9,39.15 21.85,39.2 H 21.8 l -0.05,0.05 -0.05,0.1 -0.2,0.1 h -0.05 l -0.05,0.1 -0.1,0.1 -0.05,0.1 -0.05,0.05 H 21.05 L 20.8,40 20.7,40.1 v 0.05 H 20.65 L 20.6,40.2 h -0.05 l -0.05,0.05 -0.05,0.1 -0.1,0.05 v 0.05 H 20.3 l -0.45,0.4 H 19.8 l -0.05,0.05 -0.05,0.05 -0.05,0.05 -0.1,0.1 -0.05,0.05 v 0.05 l -0.1,0.05 -0.05,0.05 H 19.3 l -0.05,0.05 -0.1,0.05 v 0.1 L 19.1,41.55 H 19 l -0.05,0.05 -0.05,0.05 v 0.05 l -0.5,0.35 -0.05,0.1 H 18.3 L 18.25,42.2 H 18.2 l -0.05,0.1 -0.05,0.05 h -0.15 l -0.05,0.05 -0.05,0.1 -0.35,0.3 h -0.05 l -0.05,0.05 -0.05,0.05 -0.05,0.05 -0.1,0.1 h -0.1 l -0.1,0.15 -0.05,0.05 -0.1,0.05 -0.05,0.05 -0.05,0.1 h -0.1 l -0.05,0.05 -0.05,0.05 -0.1,0.05 v 0.05 L 16.4,43.7 H 16.3 L 15.95,44 15.9,44.05 h -0.1 l -0.05,0.05 -0.1,0.1 v 0.05 H 15.6 l -0.05,0.05 -0.05,0.05 -0.1,0.1 h -0.15 l -0.5,0.45 -0.05,-0.05 -0.3,0.3 h -0.05 v 0.05 l -0.05,0.05 -0.05,0.05 -0.05,0.1 h -0.1 l -0.05,0.05 H 14 l -0.15,0.1 H 13.7 l -0.25,0.25 v 0.05 l -0.1,0.05 v 0.05 L 13.3,46 h -0.05 l -0.05,0.05 -0.05,0.1 -0.05,0.05 h -0.05 l -0.3,0.25 -0.05,0.1 h -0.05 l -0.1,0.05 -0.4,0.4 -0.05,-0.05 -0.05,0.1 H 12 L 11.95,47.1 H 11.9 l -0.05,0.05 -0.1,0.05 -0.05,0.05 h -0.05 l -0.05,0.1 v 0.1 l -0.4,0.3 -0.1,0.05 H 11 l -0.05,0.05 V 47.9 H 10.9 L 10.85,47.95 10.8,48 v 0.1 l -0.05,0.05 H 10.6 l -0.1,0.1 -0.05,-0.05 -0.05,0.05 -0.05,0.05 v 0.05 L 10.3,48.4 H 10.15 L 10.1,48.5 9.55,49 h -0.1 v 0.05 L 9.4,49.1 9.35,49.15 9.3,49.2 H 9.25 L 9.2,49.3 8.65,49.8 8.6,49.85 H 8.55 L 8.5,49.9 v 0.05 L 8.4,50.05 8.25,50.1 8.2,50.2 8.15,50.25 H 8.1 L 8.05,50.3 8,50.35 H 7.9 v 0.1 L 7.85,50.5 H 7.8 L 7.75,50.6 7.35,50.9 7.3,51 H 7.25 v 0.05 L 7.2,51.1 H 7 l -0.05,0.1 v 0.05 L 6.85,51.2 6.8,51.25 v 0.05 l -0.15,0.1 -0.1,0.05 -0.1,0.15 H 6.2 L 6.15,51.65 6.1,51.6 H 5.95 5.8 L 5.75,51.45 5.55,51.35 5.45,51.3 5.4,51.2 5.35,51.05 v -0.1 -0.05 -0.25 l 0.1,-0.1 V 50.5 l 0.2,-0.2 v -0.05 h 0.1 L 5.7,50.15 5.75,50.1 5.8,50.05 H 5.85 L 5.9,49.95 5.95,49.9 6.05,49.85 6.1,49.75 6.45,49.4 6.5,49.35 6.55,49.3 6.6,49.2 H 6.7 V 49.15 L 6.8,49.1 6.85,49.05 6.9,49 7,48.9 7.1,48.8 7.2,48.75 H 7.25 L 7.3,48.7 v -0.05 l 0.05,-0.1 0.5,-0.4 H 7.9 V 48.1 L 8,48 8.05,47.95 8.1,47.9 8.15,47.85 8.75,47.35 8.8,47.25 V 47.2 L 8.85,47.15 V 47.1 L 8.9,47.05 H 8.95 V 47 l 0.1,-0.05 0.1,-0.1 L 9.2,46.8 V 46.75 L 9.25,46.7 9.3,46.65 9.35,46.6 9.4,46.55 9.45,46.45 h 0.1 L 9.6,46.4 10,46 10.05,45.95 10.1,45.9 10.15,45.85 10.2,45.8 h 0.1 v -0.1 l 0.05,-0.05 V 45.6 l 0.05,-0.05 0.1,-0.1 V 45.4 l 0.25,-0.2 0.05,-0.05 0.05,-0.05 h 0.05 l 0.05,-0.05 0.25,-0.25 0.05,-0.1 h 0.05 l 0.05,-0.05 0.05,-0.05 0.1,-0.1 h 0.05 L 11.6,44.45 V 44.4 l 0.05,-0.05 V 44.3 l 0.3,-0.25 V 44 l 0.15,-0.15 0.05,-0.1 V 43.7 l 0.1,-0.05 V 43.6 L 12.3,43.55 V 43.5 l 0.05,-0.05 0.95,-0.9 0.05,-0.05 v -0.15 l 0.1,-0.05 0.05,-0.1 0.05,-0.05 H 13.6 L 13.65,42.1 13.8,42 v -0.05 l 0.25,-0.25 0.05,-0.1 0.1,-0.05 h 0.05 l 0.05,-0.05 0.05,-0.1 h 0.05 l 0.05,-0.05 V 41.3 h 0.05 l 0.2,-0.2 0.1,-0.1 0.05,-0.05 0.05,-0.05 -0.05,-0.05 h 0.05 l 0.1,-0.1 0.35,-0.35 0.05,-0.15 0.05,-0.05 h 0.1 L 15.6,40.15 V 40.1 l 0.05,-0.05 0.1,-0.05 h 0.05 l 0.05,-0.15 0.4,-0.3 0.05,-0.1 0.05,-0.05 0.05,-0.05 h 0.05 v -0.1 l 0.1,-0.05 H 16.6 L 16.65,39.15 16.7,39.05 16.8,39 16.75,38.95 H 16.8 L 16.85,38.9 V 38.85 L 16.95,38.8 17,38.7 h 0.05 l 0.55,-0.5 0.1,-0.05 V 38.1 L 17.75,38.05 17.8,38 17.85,37.9 17.9,37.85 H 18 l 0.4,-0.4 0.1,-0.1 0.05,-0.05 0.05,-0.05 h 0.05 L 18.7,37.2 h 0.05 L 18.9,37 v -0.1 l 0.05,-0.05 H 19 l 0.05,-0.1 h 0.05 l 0.05,-0.05 0.1,-0.05 0.05,-0.05 h 0.05 l 0.05,-0.1 0.4,-0.35 0.05,-0.05 0.05,-0.05 0.05,-0.1 h 0.1 L 20.1,35.9 v -0.05 l 0.05,-0.05 v -0.05 h 0.05 l 0.25,-0.25 v -0.05 l 0.2,-0.15 0.05,-0.1 0.5,-0.4 0.05,-0.05 V 34.7 l 0.05,-0.05 h 0.05 V 34.6 L 21.4,34.55 21.45,34.5 22,34 22.05,33.95 22.1,33.9 22.15,33.85 h 0.05 l 0.05,-0.05 0.1,-0.05 0.05,-0.05 h 0.05 l 0.05,-0.1 0.3,-0.25 h 0.05 l 0.05,-0.1 0.05,-0.1 0.35,-0.3 0.05,-0.1 h 0.05 l 0.05,-0.05 h 0.1 l 0.05,-0.05 0.05,-0.05 0.05,-0.05 h 0.05 V 32.4 l 0.4,-0.35 0.05,-0.1 h 0.1 l 0.05,-0.05 h 0.05 v -0.05 l 0.05,-0.05 0.05,-0.1 0.05,-0.05 H 24.6 V 31.6 l 0.3,-0.15 0.05,-0.05 V 31.25 H 25 l 0.1,-0.05 0.5,-0.4 V 30.75 L 25.65,30.7 H 25.5 25.35 25.25 25.15 24.9 24.8 24.7 24.55 24.4 24.3 v -0.05 h -0.15 -0.1 -0.2 -0.1 H 23.7 23.6 23.55 23.4 23.3 23.2 23.15 23 22.9 22.8 22.4 22.25 22.2 22.1 21.8 21.7 21.6 21.45 21.3 h -0.1 -0.15 -0.1 -0.1 -0.15 -0.1 -0.1 -0.15 -0.4 -0.1 -0.1 L 19.65,30.6 H 19.4 19.3 19.15 19.05 18.85 18.7 18.65 18.55 18.4 18.3 18.25 18.15 18 17.9 17.85 17.75 L 17.7,30.5 h -0.2 -0.1 -0.1 -0.15 -0.2 -0.15 -0.1 -0.1 -0.2 -0.1 -0.1 -0.15 -0.1 -0.1 -0.1 -0.15 -0.1 -0.1 L 15.25,30.45 H 15.1 15 14.85 14.75 14.45 14.35 14.3 14.2 14.1 L 14.05,30.4 h -0.1 -0.1 -0.15 -0.1 -0.05 -0.1 -0.1 -0.1 -0.1 -0.1 -0.15 -0.1 -0.15 -0.15 -0.1 -0.1 -0.15 v -0.05 h -0.1 -0.1 -0.1 H 11.7 11.55 11.4 L 11.35,30.3 H 11.3 11.2 11.1 10.95 10.9 L 10.8,30.25 H 10.75 10.6 10.5 10.4 V 30.2 H 10.15 10.05 10 9.85 9.6 9.45 9.35 9.25 9.05 8.95 8.85 8.75 8.65 8.55 8.5 L 8.4,30.1 H 8.25 8.15 8.1 L 8.05,30.05 H 7.9 7.8 L 7.75,30 H 7.65 7.5 7.4 7.2 7.05 6.95 6.85 6.6 6.5 6.45 6.3 6.2 6.1 6.05 5.9 5.8 5.7 5.65 5.5 5.3 5.15 5.1 5 4.75 L 4.7,29.95 H 4.6 4.5 4.35 4.2 4.1 3.95 3.85 3.75 3.6 3.5 3.4 3.3 3.15 3.05 L 2.95,29.9 H 2.85 2.75 2.65 2.55 2.3 2.2 L 2.15,29.85 H 2.05 1.95 1.85 L 1.8,29.75 H 1.75 1.6 1.55 1.45 1.3 1.2 1.15 1.05 0.9 0.8 0.75 0.65 0.4 0.3 0.2 0.05 -0.15 -0.3 -0.4 -0.5 -0.7 -0.8 -0.9 -1.05 -1.15 V 28.1 h 0.1 0.15 0.1 0.1 0.2 0.1 0.1 0.15 0.2 0.15 0.1 0.1 0.25 0.1 0.05 0.1 0.15 0.1 0.05 0.1 l 0.1,-0.05 h 0.05 0.1 0.05 0.15 0.2 0.1 0.1 L 2.2,28 h 0.1 0.25 0.1 0.1 0.1 0.1 l 0.1,-0.05 H 3.15 3.3 3.4 3.5 3.6 3.75 3.85 3.95 4.1 4.2 4.35 4.5 4.6 4.7 L 4.75,27.9 H 5 5.1 5.15 5.3 5.35 L 5.4,27.8 H 5.5 5.65 5.7 5.8 5.9 6.05 6.1 6.2 6.3 6.45 6.5 6.6 6.85 6.95 7.05 7.2 7.4 7.5 7.65 7.75 7.9 8.05 L 8.1,27.75 H 8.15 8.25 8.4 L 8.5,27.7 h 0.05 0.1 0.1 0.1 0.1 0.1 0.2 0.1 L 9.4,27.65 H 9.45 9.6 9.85 10 h 0.05 0.1 0.25 0.1 0.1 0.15 0.05 l 0.1,-0.05 h 0.05 0.15 0.1 0.1 0.05 l 0.05,-0.05 h 0.15 0.15 0.15 0.1 0.1 0.05 l 0.05,-0.05 h 0.15 0.1 0.1 0.15 0.15 0.1 0.15 0.1 0.1 0.1 0.1 0.1 l 0.05,-0.1 h 0.1 0.15 0.1 0.25 0.1 0.05 0.1 0.3 0.1 0.15 0.1 0.15 l 0.15,-0.05 h 0.1 0.1 0.15 0.1 0.1 0.1 0.15 0.1 0.1 0.2 0.1 0.1 0.15 0.2 0.15 0.1 0.1 0.2 l 0.05,-0.05 h 0.1 0.05 0.1 0.15 0.1 0.05 0.1 0.15 0.1 0.05 0.15 0.2 0.1 0.15 0.1 0.25 l 0.1,-0.05 h 0.1 0.1 0.4 0.15 0.1 0.1 0.15 0.1 0.1 0.15 0.1 0.15 0.15 0.1 0.1 0.3 0.1 0.05 0.15 0.4 0.1 0.1 0.15 0.05 0.1 0.1 l 0.15,-0.05 h 0.05 0.1 0.05 0.1 0.45 0.1 0.15 0.15 0.1 0.1 0.25 0.1 0.1 0.15 0.15 L 25.6,27.15 V 27.1 L 25.1,26.65 25,26.6 24.95,26.55 V 26.5 L 24.9,26.45 24.8,26.4 24.6,26.25 V 26.2 L 24.55,26.15 H 24.5 L 24.45,26.1 24.4,26.05 V 26 L 24.35,25.95 H 24.2 l -0.05,-0.15 -0.4,-0.35 v -0.1 L 23.7,25.3 H 23.65 L 23.6,25.25 23.55,25.2 h -0.1 L 23.4,25.15 22.9,24.6 22.85,24.55 H 22.8 L 22.45,24.2 H 22.4 L 22.35,24.15 22.25,24.1 22.2,24.05 22.15,24 H 22.1 L 22.05,23.9 22,23.85 V 23.8 L 21.45,23.35 H 21.4 L 21.35,23.3 V 23.25 L 21.3,23.15 21.25,23.1 21.2,23.05 20.7,22.65 20.65,22.6 20.45,22.45 V 22.3 L 20.2,22.15 20.15,22.1 20.1,22.05 v -0.1 L 20.05,21.9 19.95,21.85 H 19.9 L 19.85,21.8 19.8,21.75 19.4,21.4 19.35,21.3 19.3,21.2 H 19.25 L 19.15,21.15 19.1,21.1 H 19.05 L 19,21.05 18.95,21 H 18.9 V 20.95 20.8 L 18.75,20.7 H 18.7 L 18.65,20.65 18.6,20.6 H 18.55 L 18.5,20.55 18.4,20.4 18.1,20.15 18,20 17.95,19.95 h -0.1 L 17.8,19.9 17.75,19.85 17.7,19.8 V 19.75 L 17.6,19.65 17.05,19.15 17,19.1 h -0.05 l -0.1,-0.05 V 19 L 16.8,18.95 H 16.75 L 16.8,18.85 16.7,18.8 16.65,18.75 16.6,18.7 16.55,18.65 h -0.1 v -0.1 L 16.4,18.45 H 16.35 L 16.3,18.4 16.25,18.35 15.85,18 15.8,17.9 15.75,17.85 15.65,17.8 H 15.6 V 17.7 L 15.55,17.65 15.5,17.6 H 15.4 L 15.35,17.5 15.1,17.25 15.05,17.15 H 15 l -0.1,-0.1 H 14.85 L 14.9,16.9 H 14.85 L 14.8,16.85 14.7,16.8 14.5,16.6 14.45,16.5 14.4,16.45 H 14.35 L 14.3,16.4 14.25,16.35 14.2,16.3 H 14.1 L 14.05,16.15 13.65,15.75 13.6,15.7 13.55,15.65 H 13.5 l -0.05,-0.05 -0.1,-0.05 v -0.2 L 13.3,15.3 13.25,15.25 H 13.3 L 12.35,14.4 H 12.3 V 14.35 L 12.25,14.3 v -0.15 h -0.1 V 14.1 L 12.1,14.05 V 14 L 11.95,13.9 V 13.75 L 11.65,13.55 11.6,13.5 V 13.4 L 11.55,13.35 11.5,13.3 H 11.4 L 11.35,13.25 11.3,13.2 H 11.25 L 11.2,13.1 10.95,12.85 10.9,12.8 H 10.85 L 10.8,12.75 10.35,12.25 V 12.2 L 10.3,12.15 V 12.1 L 10.2,12.05 H 10.15 L 10.1,12 10.05,11.95 10,11.85 9.55,11.4 H 9.45 L 9.4,11.35 9.35,11.3 9.3,11.25 V 11.2 H 9.25 L 9.2,11.15 v -0.1 L 9.15,11 8.95,10.9 V 10.85 L 8.9,10.8 8.85,10.7 8.8,10.65 V 10.6 10.55 H 8.75 L 8.15,10.05 8.1,10 V 9.9 H 8.05 L 8,9.85 7.9,9.8 V 9.75 L 7.85,9.7 7.35,9.3 7.3,9.25 V 9.15 L 7.25,9.1 7.2,9.05 H 7.1 L 7,9 6.8,8.75 6.7,8.7 V 8.65 L 6.65,8.6 H 6.55 L 6.5,8.55 6.45,8.5 6.1,8.15 6.05,8.05 5.9,7.9 5.85,7.85 H 5.8 V 7.8 L 5.75,7.75 H 5.7 L 5.75,7.65 H 5.7 L 5.65,7.55 5.45,7.4 V 7.35 L 5.35,7.2 V 6.95 6.9 6.8 L 5.4,6.7 5.45,6.6 5.55,6.5 5.75,6.4 5.8,6.3 5.95,6.25 6.1,6.3 6.15,6.25 H 6.2 L 6.25,6.3 h 0.2 L 6.65,6.5 6.8,6.6 V 6.65 L 6.85,6.7 6.95,6.65 V 6.7 h 0.1 L 7.1,6.75 H 7.2 L 7.25,6.8 V 6.9 H 7.3 L 7.8,7.35 7.85,7.4 7.9,7.45 V 7.5 H 8 L 8.05,7.55 H 8.1 L 8.15,7.65 8.2,7.7 8.25,7.75 8.4,7.85 8.5,7.9 V 7.95 H 8.55 L 8.6,8.05 8.65,8.1 9.2,8.6 H 9.25 L 9.3,8.65 9.35,8.7 9.4,8.75 l 0.05,0.1 0.1,0.05 0.55,0.5 0.05,0.05 h 0.2 V 9.6 L 10.4,9.65 10.45,9.7 10.5,9.65 10.6,9.7 v 0.05 h 0.15 L 10.8,9.8 v 0.05 l 0.05,0.05 h 0.05 l 0.05,0.1 v 0.05 L 11,10.1 h 0.2 l 0.4,0.35 v 0.1 h 0.05 l 0.05,0.05 0.05,0.05 0.1,0.05 h 0.1 l 0.05,0.1 0.05,0.05 0.05,0.1 0.05,-0.05 0.35,0.3 0.05,0.1 0.1,0.05 h 0.05 l 0.05,0.05 0.2,0.2 0.1,0.1 h 0.05 l 0.05,0.05 0.05,0.05 h 0.05 l 0.05,0.05 0.05,0.1 V 12 l 0.1,0.05 0.25,0.2 h 0.15 l 0.15,0.2 h 0.1 l 0.1,0.05 0.05,0.05 0.05,0.05 0.05,0.05 0.05,0.1 0.3,0.25 0.05,-0.05 0.5,0.45 h 0.15 l 0.1,0.15 h 0.05 v 0.05 l 0.05,0.05 h 0.05 v 0.05 l 0.1,0.05 h 0.05 l 0.05,0.05 h 0.05 l 0.05,0.1 0.35,0.25 h 0.1 0.05 v 0.15 l 0.1,0.05 0.05,0.05 h 0.05 l 0.05,0.05 h 0.05 l 0.05,0.05 0.05,0.05 h 0.1 l 0.05,0.15 0.1,0.1 0.1,0.05 0.1,0.05 0.05,0.05 0.1,0.15 0.05,-0.05 0.4,0.4 0.05,0.05 H 18 l 0.1,0.05 0.05,0.05 0.05,0.05 h 0.05 0.05 l 0.05,0.05 0.05,0.15 0.5,0.3 v 0.1 l 0.05,0.05 H 19 v 0.05 h 0.1 l 0.05,0.05 v 0.05 l 0.1,0.05 h 0.05 l 0.05,0.1 0.05,0.05 0.1,0.05 v 0.05 h 0.05 v 0.05 l 0.1,0.05 0.05,0.05 h 0.05 L 19.8,17 h 0.05 l 0.45,0.4 0.05,0.05 v 0.05 l 0.1,0.05 0.05,0.05 h 0.05 l 0.05,0.05 0.05,0.05 h 0.05 v 0.1 l 0.1,0.05 0.25,0.2 h 0.15 l 0.05,0.1 0.05,0.1 h 0.05 v 0.05 l 0.05,0.05 0.05,0.05 h 0.05 l 0.2,0.15 0.05,0.1 h 0.05 l 0.05,0.05 0.05,0.05 0.1,0.05 0.05,0.05 h 0.05 l 0.05,0.1 0.05,0.1 0.35,0.2 0.05,0.1 0.05,0.05 0.1,0.05 0.05,0.05 h 0.05 l 0.05,0.05 0.05,0.05 0.05,0.05 0.05,0.1 0.1,0.05 0.45,0.4 0.05,0.05 0.45,0.4 0.05,0.05 v 0.05 h 0.05 l 0.1,0.05 0.05,0.1 0.05,0.05 V 21 l 0.55,0.45 v 0.05 l 0.05,0.05 0.1,0.1 h 0.05 l 0.05,0.05 0.05,0.05 0.05,0.05 h 0.05 l 0.05,0.05 0.3,0.3 h 0.05 l 0.1,0.05 0.05,0.1 0.35,0.3 0.05,0.1 h 0.05 l 0.05,0.05 h 0.05 l 0.05,0.1 0.05,0.05 0.1,0.05 H 26.7 L 26.75,23 v 0.05 h 0.05 l 0.35,0.3 0.05,0.1 h 0.05 l 0.05,0.05 0.05,0.1 h 0.1 v 0.05 l 0.05,0.05 0.05,0.05 0.05,0.05 0.2,0.2 h 0.1 l 0.05,0.05 v 0.05 l 0.05,0.05 0.05,0.05 0.55,0.4 0.05,0.05 v 0.05 l 0.05,0.1 v 0.05 h 0.05 l 0.05,0.05 0.05,0.05 0.05,0.05 0.1,0.05 0.45,0.4 h 0.05 v 0.1 l 0.05,0.05 0.05,0.05 0.05,0.05 h 0.1 l 0.05,0.05 h 0.05 v 0.05 l 0.05,0.15 h 0.05 L 30,26 30.05,26.05 V 25.95 25.8 25.25 25.15 24.7 24.6 24.5 24.45 24.3 24.1 24 23.85 23.8 23.7 23.45 23.35 23.3 23.15 23.1 23 22.85 22.7 22.65 22.55 22.5 22.35 22.3 22.2 21.95 21.85 21.75 21.35 21.2 21.15 21.05 20.7 20.6 20.55 20.4 19.85 19.75 19.4 19.25 19.2 19.1 19 18.65 18.55 l 0.1,-0.1 v -0.1 -0.1 L 30.2,18.2 v -0.25 l 0.05,-0.1 V 17.8 H 30.3 V 17.65 17.6 h 0.05 V 17.5 17.4 17.3 17.2 17.05 L 30.4,17 v -0.15 -0.1 -0.05 -0.1 l 0.05,-0.1 V 16 15.9 15.55 15.45 15.3 15.25 15.15 14.8 14.7 l 0.1,-0.05 V 14.2 L 30.6,14.15 V 14.1 14 13.95 13.8 h 0.05 V 13.5 13.35 13.3 13.2 12.95 L 30.7,12.9 v -0.25 -0.1 -0.4 l 0.05,-0.1 V 12 11.85 11.8 h 0.05 v -0.1 -0.1 l 0.1,-0.05 V 11.4 11.35 11.25 11.2 11.05 10.85 10.7 10.55 10.45 10.2 10.1 10.05 9.9 9.85 9.75 9.6 9.45 h 0.05 V 9.4 9.3 8.95 L 31,8.9 V 8.7 8.6 8.1 7.95 7.85 7.45 l 0.05,-0.1 V 7.2 6.8 6.7 H 31.1 V 6.65 6.55 6.2 6.1 L 31.15,6 V 5.9 5.85 5.75 5.5 5.4 5.25 5.2 5.1 4.85 4.75 4.7 4.6 4.55 4.4 4.25 4.1 4.05 3.95 3.9 3.8 3.4 3.25 3.15 2.75 2.65 2.6 2.45 2.1 2 1.95 1.85 1.35 L 31.2,1.3 V 1.25 1.15 1.1 L 31.3,1.05 V 0.85 L 31.35,0.8 V 0.7 0.55 0.5 0.4 L 31.4,0.35 V 0.1 l 0.05,-0.05 0.05,-0.1 0.05,-0.05 h 0.05 l 0.1,-0.15 0.1,-0.05 h 0.05 l 0.05,-0.05 h 0.05 0.2 0.15"
         fill="#ffffff"
         fill-rule="evenodd"
         stroke="none"
         id="path5" />
      <path
         d="m 22.35,56.9 0.1,0.8 H 18.2 q -0.75,-9.25 -0.05,-19.1 0.35,-5.35 1.3,-8.55 1,-3.55 3,-6.05 -0.9,-0.9 -0.8,-3.3 0.3,-3.5 1.35,-4.95 0.9,-1.25 2.1,-1.25 0.65,-0.05 1.15,0.45 0.5,0.5 0.4,1.1 l -0.35,0.75 -0.5,0.75 -0.4,1.2 q -0.2,1.1 0.1,2.35 l 0.05,0.15 Q 27,20.3 28.7,19.8 l 1.15,-0.3 Q 30,18.05 30.7,16.6 31.65,14.7 33.25,13.5 34,12.9 34.7,12.85 l 0.75,0.15 0.5,0.6 q 0.25,0.75 -0.85,1.8 -1.6,1.6 -1.6,3.2 l 0.1,0.7 0.75,0.1 q 1.35,0.2 2.65,0.75 0.25,-1.05 0.75,-1.95 1.15,-1.95 3.2,-2.65 l 2.45,0.1 q 1,0.55 0.7,1.25 l -0.9,0.65 q -1.1,0.5 -1.8,1.5 -0.65,1.05 -0.75,2.2 v 1.1 q 1.65,1.45 2.75,3.4 1.2,2.15 1.7,5.1 0.35,2.05 0.5,5.45 0.45,11.45 -0.6,21.4 h -3.6 v -0.65 l 0.1,-2.6 0.15,-3.2 Q 42.1,41.3 41.55,34.8 41.05,29.3 39.05,26.65 36.95,23.9 33.4,23.5 L 32.65,23.45 31.75,23.5 30,23.75 q -1.3,0.2 -3.35,1.95 -2.05,1.75 -3.2,6.05 -0.95,3.3 -1.25,9.55 -0.35,7.15 0,13.35 l 0.15,2.25 M 35.9,31 l -0.2,-0.95 0.15,-0.8 q 0.2,-0.65 0.9,-1 l 1.9,-0.1 q 0.9,0.4 1.25,1.4 0.2,0.8 -0.2,1.55 -0.4,0.8 -1.15,1.05 L 37,32.05 Q 36.2,31.7 35.9,31 m -5.4,-3.75 0.2,-1 q 0.35,-0.7 1.1,-1.05 l 1.5,-0.15 q 0.75,0.2 1.25,0.85 0.5,0.6 0.45,1.4 0,0.75 -0.5,1.4 -0.55,0.6 -1.3,0.75 l -1.5,-0.2 q -0.75,-0.4 -1.05,-1.1 -0.15,-0.45 -0.15,-0.9 m 4.3,5.1 q 1.4,1 1.7,2.65 0.3,1.2 0,2.35 -0.15,0.9 -0.7,1.45 -0.9,0.9 -2.7,0.9 -2.35,0.1 -3.95,-0.95 -0.85,-0.6 -1.35,-1.5 -0.55,-1 -0.45,-1.95 0.15,-1.25 1.2,-2.3 0.85,-0.85 2.05,-1.25 l 2.2,-0.2 q 1.15,0.15 2,0.8 m -8.4,0.5 q -1.1,-0.15 -1.55,-1.35 -0.35,-1.15 0.35,-2 0.6,-0.8 1.5,-0.7 l 0.15,-0.05 q 1.25,0 1.85,1.2 0.55,1.2 -0.25,2.15 -0.8,1.1 -2.05,0.75"
         fill="#000000"
         fill-rule="evenodd"
         stroke="none"
         id="path6" />
      <path
         d="m 41.4,57.05 h -0.5 -1.2 -1.35 -12.1 -1.6 L 24.05,57 23.6,56.95 H 23.3 L 22.95,56.9 h -0.6 L 22.2,54.65 q -0.35,-6.2 0,-13.35 0.3,-6.25 1.25,-9.55 1.15,-4.3 3.2,-6.05 2.05,-1.75 3.35,-1.95 l 1.75,-0.25 0.9,-0.05 0.75,0.05 q 3.55,0.4 5.65,3.15 2,2.65 2.5,8.15 0.55,6.5 0.1,16.45 l -0.15,3.2 -0.1,2.6 m -15,-24.2 q 1.25,0.35 2.05,-0.75 0.8,-0.95 0.25,-2.15 -0.6,-1.2 -1.85,-1.2 L 26.7,28.8 q -0.9,-0.1 -1.5,0.7 -0.7,0.85 -0.35,2 0.45,1.2 1.55,1.35 m 8.4,-0.5 q -0.85,-0.65 -2,-0.8 l -2.2,0.2 q -1.2,0.4 -2.05,1.25 -1.05,1.05 -1.2,2.3 -0.1,0.95 0.45,1.95 0.5,0.9 1.35,1.5 1.6,1.05 3.95,0.95 1.8,0 2.7,-0.9 0.55,-0.55 0.7,-1.45 0.3,-1.15 0,-2.35 -0.3,-1.65 -1.7,-2.65 m -4.3,-5.1 q 0,0.45 0.15,0.9 0.3,0.7 1.05,1.1 l 1.5,0.2 Q 33.95,29.3 34.5,28.7 35,28.05 35,27.3 35.05,26.5 34.55,25.9 34.05,25.25 33.3,25.05 l -1.5,0.15 q -0.75,0.35 -1.1,1.05 l -0.2,1 M 35.9,31 q 0.3,0.7 1.1,1.05 l 1.55,0.1 q 0.75,-0.25 1.15,-1.05 0.4,-0.75 0.2,-1.55 -0.35,-1 -1.25,-1.4 l -1.9,0.1 q -0.7,0.35 -0.9,1 l -0.15,0.8 0.2,0.95"
         fill="#767676"
         fill-rule="evenodd"
         stroke="none"
         id="path7" />
    </g>
    <g
       id="shape2"
       transform="translate(1.5,1.5)">
      <path
         d="M 0,23.8 V 0 H 64.1 V 23.8 57.55 H 0 Z"
         fill="none"
         stroke="#000000"
         stroke-linecap="round"
         stroke-linejoin="round"
         stroke-width="3"
         id="path8" />
    </g>
  </defs>
</svg>
