<?xml version="1.0" encoding="UTF-8" standalone="no"?>
<svg
   ffdec:objectType="frame"
   height="60.549999"
   width="67.099998"
   version="1.1"
   id="svg8"
   sodipodi:docname="624.svg"
   xmlns:inkscape="http://www.inkscape.org/namespaces/inkscape"
   xmlns:sodipodi="http://sodipodi.sourceforge.net/DTD/sodipodi-0.dtd"
   xmlns:xlink="http://www.w3.org/1999/xlink"
   xmlns="http://www.w3.org/2000/svg"
   xmlns:svg="http://www.w3.org/2000/svg"
   xmlns:ffdec="https://www.free-decompiler.com/flash">
  <sodipodi:namedview
     id="namedview8"
     pagecolor="#ffffff"
     bordercolor="#000000"
     borderopacity="0.25"
     inkscape:showpageshadow="2"
     inkscape:pageopacity="0.0"
     inkscape:pagecheckerboard="0"
     inkscape:deskcolor="#d1d1d1"
     fit-margin-top="5"
     fit-margin-left="5"
     fit-margin-right="5"
     fit-margin-bottom="5" />
  <g
     transform="translate(1.5,1.5)"
     id="g3">
    <use
       ffdec:characterId="516"
       height="57.549999"
       width="64.099998"
       xlink:href="#shape0"
       id="use1" />
    <use
       ffdec:characterId="1115"
       height="53.849998"
       transform="translate(0.8,2.45)"
       width="59.700001"
       xlink:href="#shape1"
       id="use2" />
    <use
       ffdec:characterId="518"
       height="60.549999"
       transform="translate(-1.5,-1.5)"
       width="67.099998"
       xlink:href="#shape2"
       id="use3" />
  </g>
  <defs
     id="defs8">
    <g
       id="shape0">
      <path
         d="M 53.6,0 H 64.1 V 57.55 H 53.6 28.25 0 V 0 H 28.25 53.6 V 57.55 0 M 28.25,0 V 57.55 0"
         fill="#ffffff"
         fill-rule="evenodd"
         stroke="none"
         id="path3" />
    </g>
    <g
       id="shape1"
       transform="translate(-0.8,-2.45)">
      <path
         d="M 43,25.9 42.5,25 q -0.35,-0.75 -0.1,-1.2 0.1,-0.35 0.7,-0.75 l 1,-0.8 -0.45,-1.1 L 43,20.1 Q 42.7,19.45 42.95,18.75 43,17.85 43.55,17 l 0.75,-0.9 q 0.25,-0.25 0.75,-0.5 l 0.6,-0.3 1.55,-0.05 0.7,0.15 0.6,0.5 q 0.6,0.5 0.8,1.15 l 0.05,0.65 q 0.1,0.85 -0.25,1.5 l -0.65,0.95 -0.7,0.55 0.2,1.45 q 0.1,0.85 -0.35,1.4 l -0.85,0.7 -1,0.5 -0.3,0.35 0.05,0.55 0.8,1.55 q 0.3,0.65 -0.1,1.1 L 45.4,28.55 44.65,28.15 43.9,27.2 43,25.9 M 29.95,47.5 q 1.35,0.85 1.75,1.75 0.45,1.05 0.1,2.25 -0.35,1.15 -1.3,1.95 -1.4,1.2 -4.35,1.65 l -7.8,0.4 -5.5,-0.15 -4.7,-0.45 Q 6.45,54.5 5.7,54 4.5,53.2 4.2,52 4,51.1 4.4,50.15 l 1.2,-1.6 q 1.05,-0.8 3.65,-1.5 7.05,-1.65 13.7,-1.3 4.4,0.3 7,1.75 m 22.85,6.8 q -0.6,0.85 -2.7,1.35 -5.8,1.15 -11.65,0.3 -1.65,-0.2 -2.5,-0.8 -0.6,-0.45 -0.85,-1.15 -0.25,-0.75 -0.05,-1.45 0.3,-1.1 1.55,-1.65 0.85,-0.4 2.3,-0.6 l 6.95,-0.5 4.7,0.55 q 1.2,0.3 1.7,0.65 0.75,0.55 0.95,1.55 0.15,1 -0.4,1.75"
         fill="#767676"
         fill-rule="evenodd"
         stroke="none"
         id="path4" />
      <path
         d="m 46.25,34.25 q -0.55,0.65 -0.75,1.8 l -0.1,0.85 q 0,1.05 1,1.95 1.05,1 2.4,1.05 1.5,0.1 2.35,-0.95 l 0.5,-0.75 0.4,-0.8 q 0.4,-1.15 -0.1,-2.25 L 51.6,34.55 51.15,34.1 q -0.85,-0.65 -2,-0.8 l -0.6,0.25 Q 48.2,33.8 47.8,34.6 v 0.3 l -0.1,0.6 v 0.25 q 0.1,0.85 1,1.1 L 49.35,36.75 49.7,36.5 49.85,36 49.4,35.9 q -0.25,0.35 -0.65,0.35 -0.4,0 -0.65,-0.35 -0.15,-0.45 0.05,-0.8 l 0.65,-0.5 h 0.75 q 0.75,0.1 1.1,0.4 l 0.3,0.45 q 0.35,0.65 0.2,1.25 l -0.65,1 -0.75,0.5 -0.9,0.15 -0.7,-0.05 -0.35,-0.1 -0.6,-0.3 -0.6,-0.45 -0.2,-0.3 -0.15,-0.35 -0.2,-0.35 -0.05,-0.4 q -0.05,-0.7 0.45,-1.9 l 0.05,-0.05 -0.25,0.15 m -9,7.9 q -0.6,-0.8 -0.9,-1.85 -0.55,-1.8 0,-3.6 l 0.2,-0.55 -0.35,-0.2 Q 34.85,35 34.6,33.5 v -0.8 q 0,-0.8 0.15,-1.35 0.3,-0.85 0.95,-1.55 1.15,-1.15 2.45,-1.45 L 39.3,28.2 q 1.85,-0.1 2.75,0.75 0.7,0.6 1,1.85 l 0.1,0.4 1.05,-0.1 2.1,0.1 q 0.45,-1 1.45,-1.75 l 0.8,-0.5 1.1,-0.25 q 2.4,-0.35 4.05,1.1 0.8,0.75 1.15,1.85 0.4,1.1 0.2,2.2 -0.45,2.4 -2.55,3.4 L 52.25,37.4 Q 52.5,39.7 51,41.75 l -1.5,1.55 q 1.05,1.65 1.25,2.6 l 0.35,1.9 0.05,-0.05 2.3,-0.4 1.45,0.2 q 1.4,0.5 1.7,1.9 l 0.2,0.45 q 0.25,0.25 0.55,0.15 1.25,-0.15 2.1,-1.75 l 0.4,-0.4 q 0.3,-0.1 0.5,0.2 l 0.15,0.55 q 0,0.8 -0.7,1.6 -1.5,1.55 -3.55,1.2 l -1,-0.55 -0.6,-0.75 -0.75,-0.1 q -1.15,0.15 -2.55,1 L 50.3,51.7 q -0.9,1.6 -2.8,2.5 -1.8,0.9 -4.4,0.9 L 39.6,54.6 Q 37.65,53.9 36.65,52.45 35.15,50.25 35.85,47.2 36.3,45.25 38,43 l -0.75,-0.85 m 7.55,-1.6 q -0.2,-0.4 -0.6,-0.2 -0.2,0.05 -0.7,0.55 -0.35,0.45 -0.8,0.25 -0.2,-0.1 -0.1,-0.4 L 42.55,40.3 q -0.1,-0.2 -0.35,-0.1 l -0.3,0.25 q -0.3,0.4 -0.15,0.95 0.1,0.5 0.55,0.8 l 1.85,0.05 q 0.95,0.7 1.95,0.25 l 0.75,-0.65 Q 47.1,41.4 47,40.9 47,40.5 46.65,40.3 46.35,40.05 46,40.3 L 45.75,40.8 45.3,41.15 45.05,40.9 44.8,40.55 M 43.6,37.2 q 0.2,-1.15 -0.3,-2 L 42.75,34.6 41.7,33.8 40.75,33.65 h -0.2 L 40.2,33.9 q -1,0.85 -1.25,2.25 v 0.8 l 0.75,0.6 0.9,-0.05 q 0.5,-0.25 0.65,-0.7 v -0.35 q -0.1,-0.2 -0.3,-0.1 l -0.25,0.45 -0.5,0.25 q -0.3,0 -0.65,-0.35 -0.15,-0.55 0,-1.1 L 40.4,35.05 41,35 l 0.75,0.1 0.65,0.55 0.15,0.85 q 0,0.85 -0.45,1.45 l -0.25,0.3 -0.5,0.45 -0.7,0.2 Q 39.05,39.25 38,38.35 l -0.15,-0.25 -0.45,-0.6 -0.05,-1.4 0.2,-0.65 -0.45,0.7 -0.25,1.05 q 0.05,0.85 0.6,1.55 0.5,0.7 1.3,0.9 l 1.65,0.15 0.7,-0.05 1.35,-0.65 0.7,-0.7 0.45,-1.2 M 32.4,13.4 q 1.05,2.75 1.05,4.55 0,1.95 -0.7,3.5 -1.05,2.4 -4.1,4.75 -1.85,1.4 -3.15,1.95 l -1.2,0.45 1.55,4.95 2.9,0.15 q 2.25,0.65 3.35,2.7 1.15,2.1 0.45,4.25 -0.3,1.3 -1.5,2.75 l -0.15,0.95 -1.05,2.05 q -1.5,2.15 -3.65,3.65 0.45,0.5 0.55,1.35 0.15,0.8 -0.3,1.75 -0.65,1 -1.7,1.15 l -1.45,0.1 q -1.2,0.15 -2.2,-0.75 L 20.4,52.6 17.55,52.55 17.25,52.5 16.65,53.2 16,53.65 q -0.9,0.6 -1.55,0.8 L 12.65,54.4 Q 11.75,54.1 11.3,53.3 L 11,52.75 10.9,52 q 0,-0.65 0.3,-1.15 l -0.1,-0.1 -1.25,-1.3 Q 8.8,48.3 8.2,46.95 L 5.75,46.8 Q 4.2,46.45 2.95,45.35 1.7,44.2 1.15,42.65 0.65,41.1 0.9,39.45 q 0.25,-1.7 1.25,-3 1.15,-1.4 2.35,-1.6 L 6,35.1 q 0.75,0.35 1.1,1 0.4,0.7 0.3,1.5 L 6.85,39 5.95,40.15 q -0.25,0.6 0.15,1.2 0.35,0.6 1,0.85 l 0.3,0.1 Q 7.45,41.2 7.75,40.35 8.3,39 9.25,38.4 q 0.55,-0.45 1.6,-0.7 0.95,-0.35 1.8,-0.35 l 0.15,0.05 0.15,-0.5 q 0.75,-2.2 2.1,-4.6 l -0.95,0.3 q -2.2,0.55 -4.45,0 Q 8.4,32.25 7.65,31.75 6.45,30.95 5.7,29.55 4.45,27.5 4.5,25.3 4.5,22.95 6.05,21.15 L 6.6,20.35 6.5,19.1 q -0.1,-0.85 0.35,-1.6 0.4,-0.85 1.2,-1.2 L 9,16.1 8.75,15.55 Q 8.25,14.3 8.15,12.85 8,11.15 8.25,9.9 8.45,9.15 8.8,8.8 9.3,8.35 10.65,8.45 l 1.55,0.1 1.85,0.25 q 1,-0.65 2.5,-1.2 4.15,-1.5 7.2,-0.95 l 0.2,-0.2 1.8,-1.55 q 0.6,-0.55 1.1,-0.65 0.75,-0.15 1.4,0.5 l 0.9,1.2 1.05,2.1 1.15,3.05 1.05,2.3 m -6.1,8.2 -0.7,-0.2 -0.75,0.2 -0.1,0.05 -0.2,-0.5 -0.4,-0.6 q -0.2,-0.2 -0.55,-0.3 -0.4,0.1 -0.5,0.5 v 0.45 l -0.05,0.45 0.1,0.25 -0.45,-0.05 -0.95,-0.1 -0.9,0.1 -0.55,0.6 q -0.15,0.45 0,0.8 0.3,0.95 1.65,0.95 l 1.45,-0.2 1.2,-0.55 1,-0.35 0.9,-0.55 0.2,-0.5 -0.4,-0.45 m 5.2,-3.2 0.3,-0.85 0.1,-0.45 q 0.15,-1.85 -1.45,-3.05 -0.9,-0.55 -1.8,-0.55 -1.1,2 -3.3,3.5 0.1,1.4 1.15,2.3 1.2,1.05 2.75,0.7 1.45,-0.25 2.25,-1.6 M 16.9,28.75 q -2.3,-0.35 -3.85,-1.25 -1.85,-1.05 -3,-3.1 l -0.1,-0.15 -0.85,0.7 q -0.4,0.55 -0.5,1.4 -0.05,0.95 0.6,1.85 0.65,0.85 1.65,1.25 l 4,0.35 1.95,-0.45 0.35,-0.55 -0.25,-0.05 m -4.3,-7.25 0.6,0.95 0.25,-0.15 0.5,-0.25 2.6,-0.4 2.15,0.1 0.1,0.05 0.4,-1.45 -0.15,-1.2 Q 16.85,19.3 14.8,18.5 l -1.3,-0.8 -0.1,0.05 q -0.75,0.65 -0.95,1.75 -0.25,1.05 0.15,2 m 15.1,15.65 q 0.75,0.25 1.7,1 l 0.15,0.1 -0.35,-0.5 Q 28.35,36.6 26.7,36.95 V 37 l 1,0.15"
         fill="#000000"
         fill-rule="evenodd"
         stroke="none"
         id="path5" />
      <path
         d="m 46.25,34.25 0.25,-0.15 -0.05,0.05 q -0.5,1.2 -0.45,1.9 l 0.05,0.4 0.2,0.35 0.15,0.35 0.2,0.3 0.6,0.45 0.6,0.3 0.35,0.1 0.7,0.05 0.9,-0.15 0.75,-0.5 0.65,-1 q 0.15,-0.6 -0.2,-1.25 L 50.65,35 Q 50.3,34.7 49.55,34.6 H 48.8 l -0.65,0.5 q -0.2,0.35 -0.05,0.8 0.25,0.35 0.65,0.35 0.4,0 0.65,-0.35 l 0.45,0.1 -0.15,0.5 -0.35,0.25 -0.65,0.1 q -0.9,-0.25 -1,-1.1 V 35.5 l 0.1,-0.6 v -0.3 q 0.4,-0.8 0.75,-1.05 l 0.6,-0.25 q 1.15,0.15 2,0.8 l 0.45,0.45 0.35,0.6 q 0.5,1.1 0.1,2.25 l -0.4,0.8 -0.5,0.75 Q 50.3,40 48.8,39.9 q -1.35,-0.05 -2.4,-1.05 -1,-0.9 -1,-1.95 l 0.1,-0.85 q 0.2,-1.15 0.75,-1.8 m -2.65,2.95 -0.45,1.2 -0.7,0.7 -1.35,0.65 -0.7,0.05 -1.65,-0.15 q -0.8,-0.2 -1.3,-0.9 -0.55,-0.7 -0.6,-1.55 l 0.25,-1.05 0.45,-0.7 -0.2,0.65 0.05,1.4 0.45,0.6 0.15,0.25 q 1.05,0.9 2.65,0.55 l 0.7,-0.2 0.5,-0.45 0.25,-0.3 q 0.45,-0.6 0.45,-1.45 L 42.4,35.65 41.75,35.1 41,35 40.4,35.05 39.55,35.6 q -0.15,0.55 0,1.1 0.35,0.35 0.65,0.35 l 0.5,-0.25 0.25,-0.45 q 0.2,-0.1 0.3,0.1 v 0.35 q -0.15,0.45 -0.65,0.7 l -0.9,0.05 -0.75,-0.6 v -0.8 q 0.25,-1.4 1.25,-2.25 l 0.35,-0.25 h 0.2 l 0.95,0.15 1.05,0.8 0.55,0.6 q 0.5,0.85 0.3,2 m 1.2,3.35 0.25,0.35 0.25,0.25 0.45,-0.35 0.25,-0.5 q 0.35,-0.25 0.65,0 0.35,0.2 0.35,0.6 0.1,0.5 -0.15,0.95 L 46.1,42.5 q -1,0.45 -1.95,-0.25 L 42.3,42.2 Q 41.85,41.9 41.75,41.4 41.6,40.85 41.9,40.45 l 0.3,-0.25 q 0.25,-0.1 0.35,0.1 l 0.05,0.45 q -0.1,0.3 0.1,0.4 0.45,0.2 0.8,-0.25 0.5,-0.5 0.7,-0.55 0.4,-0.2 0.6,0.2 M 31.5,18.4 Q 30.7,19.75 29.25,20 27.7,20.35 26.5,19.3 25.45,18.4 25.35,17 q 2.2,-1.5 3.3,-3.5 0.9,0 1.8,0.55 1.6,1.2 1.45,3.05 l -0.1,0.45 -0.3,0.85 m -5.2,3.2 0.4,0.45 -0.2,0.5 -0.9,0.55 -1,0.35 -1.2,0.55 -1.45,0.2 q -1.35,0 -1.65,-0.95 -0.15,-0.35 0,-0.8 l 0.55,-0.6 0.9,-0.1 0.95,0.1 0.45,0.05 -0.1,-0.25 0.05,-0.45 v -0.45 q 0.1,-0.4 0.5,-0.5 0.35,0.1 0.55,0.3 l 0.4,0.6 0.2,0.5 0.1,-0.05 0.75,-0.2 0.7,0.2 M 12.6,21.5 q -0.4,-0.95 -0.15,-2 0.2,-1.1 0.95,-1.75 l 0.1,-0.05 1.3,0.8 q 2.05,0.8 4.25,0.65 l 0.15,1.2 -0.4,1.45 -0.1,-0.05 -2.15,-0.1 -2.6,0.4 -0.5,0.25 -0.25,0.15 -0.6,-0.95"
         fill="#ffffff"
         fill-rule="evenodd"
         stroke="none"
         id="path6" />
      <path
         d="m 38.05,13.3 -1,-0.15 -0.55,-0.4 -0.9,-1.05 q -0.3,-0.05 -0.9,0.35 l -0.9,0.6 -0.45,-0.2 q 0.1,-0.9 0.7,-1.45 0.25,-0.2 1.35,-0.7 l 0.65,-0.25 1.75,0.45 0.4,0.1 0.4,-0.25 1.25,-1 q 0.7,-0.45 1.5,-0.45 l 0.8,0.15 0.75,0.35 q 0.75,0.5 0.75,1.45 0,0.95 -0.8,1.35 l -1.5,0.1 -0.7,-0.1 q -0.25,0.1 -0.4,0.3 l -1,0.7 -1.2,0.1 M 35.2,5.5 35.4,5.1 V 4.6 l 0.3,-0.55 0.5,-0.6 0.85,-0.65 q 0.75,-0.4 1.45,-0.35 0.8,0.1 1.25,0.7 0.65,0.8 0.15,1.75 -0.5,0.9 -1.6,0.8 h -0.4 l -0.3,0.25 -0.4,0.6 -0.55,0.85 -0.75,0.3 -0.75,0.1 -1.2,-0.15 -0.7,1.1 -0.1,0.5 q -0.1,0.2 -0.4,0.25 -0.25,0 -0.4,-0.2 L 32.2,8.9 32.15,8.15 q 0,-0.95 0.9,-1.85 L 33.5,5.85 34.8,5.6 35.2,5.5"
         fill="#767676"
         fill-rule="evenodd"
         stroke="none"
         id="path7" />
    </g>
    <g
       id="shape2"
       transform="translate(1.5,1.5)">
      <path
         d="M 0,23.8 V 0 H 64.1 V 23.8 57.55 H 0 Z"
         fill="none"
         stroke="#000000"
         stroke-linecap="round"
         stroke-linejoin="round"
         stroke-width="3"
         id="path8" />
    </g>
  </defs>
</svg>
