<?xml version="1.0" encoding="UTF-8" standalone="no"?>
<svg
   ffdec:objectType="frame"
   height="60.849998"
   width="67.099998"
   version="1.1"
   id="svg7"
   sodipodi:docname="809.svg"
   xmlns:inkscape="http://www.inkscape.org/namespaces/inkscape"
   xmlns:sodipodi="http://sodipodi.sourceforge.net/DTD/sodipodi-0.dtd"
   xmlns:xlink="http://www.w3.org/1999/xlink"
   xmlns="http://www.w3.org/2000/svg"
   xmlns:svg="http://www.w3.org/2000/svg"
   xmlns:ffdec="https://www.free-decompiler.com/flash">
  <sodipodi:namedview
     id="namedview7"
     pagecolor="#ffffff"
     bordercolor="#000000"
     borderopacity="0.25"
     inkscape:showpageshadow="2"
     inkscape:pageopacity="0.0"
     inkscape:pagecheckerboard="0"
     inkscape:deskcolor="#d1d1d1"
     fit-margin-top="5"
     fit-margin-left="5"
     fit-margin-right="5"
     fit-margin-bottom="5" />
  <g
     transform="translate(1.5,1.5)"
     id="g3">
    <use
       ffdec:characterId="516"
       height="57.549999"
       width="64.099998"
       xlink:href="#shape0"
       id="use1" />
    <use
       ffdec:characterId="1297"
       height="59.200001"
       transform="translate(-0.15,0.15)"
       width="64.849998"
       xlink:href="#shape1"
       id="use2" />
    <use
       ffdec:characterId="518"
       height="60.549999"
       transform="translate(-1.5,-1.5)"
       width="67.099998"
       xlink:href="#shape2"
       id="use3" />
  </g>
  <defs
     id="defs7">
    <g
       id="shape0">
      <path
         d="M 53.6,0 H 64.1 V 57.55 H 53.6 28.25 0 V 0 H 28.25 53.6 V 57.55 0 M 28.25,0 V 57.55 0"
         fill="#ffffff"
         fill-rule="evenodd"
         stroke="none"
         id="path3" />
    </g>
    <g
       id="shape1"
       transform="translate(0.15,-0.15)">
      <path
         d="m 55.45,56.9 q -5.7,0.25 -11.5,0.15 h -6.5 l -3.6,0.2 h -3.6 l -1.5,-0.35 -0.6,0.35 -1.2,0.05 -1.25,-0.3 -2.15,-0.05 -11.25,0.6 -2.25,0.35 -2,1.1 -2,0.35 Q 4.95,59.2 4.35,58.4 L 3.9,57.25 3.1,57.8 1.65,58.6 Q 0.7,58.8 0.15,58.25 -0.4,57.55 0.05,56.6 0.35,55.95 1.2,55.3 L 9.9,48.2 16.05,43.4 18.8,40.75 26,34.6 q 3.1,-2.75 7.85,-7.7 l 7.7,-7.85 5.1,-4.65 14.4,-13 q 1.1,-1 1.8,-1.2 l 1.1,0.1 Q 64.5,0.55 64.65,1.05 64.9,1.8 63.8,3.1 l -0.2,0.2 q 0.5,0.35 0.65,0.95 L 64.2,5.5 63.6,6.7 63.65,7.2 q 0.2,1.05 0,2.6 l -0.7,8 -0.1,1.6 q 0.5,0.5 0.7,1.3 l 0.15,2 -0.15,9 -0.25,1.85 q 0.6,5.05 0.5,7.9 l -0.2,1.6 0.15,0.95 q 0.3,2.4 0.15,4.75 l -0.15,2.05 v 2.05 l 0.05,1.8 q -0.1,1.05 -0.7,1.6 -0.45,0.45 -1.35,0.55 l -1.55,0.15 -2.3,0.45 q -1.3,0.15 -1.95,-0.5 h -0.5 m -23.7,-3.5 q 0.65,0.65 1.75,0.9 l 2.65,0.1 q 8.25,-0.5 17.15,-0.35 2.2,0.1 3.3,-0.5 1.25,-0.6 2,-2.15 0.7,-1.35 1,-2.7 l 0.3,-3.55 q 0,-2.45 -0.6,-3.9 -0.9,-2.25 -3.55,-3.6 -1.65,-0.8 -4.85,-1.6 0.5,-1.1 0.15,-2.3 Q 50.7,32.55 49.7,31.9 49,31.4 46.9,31.1 40.15,30.35 35.75,31.3 l -0.15,0.15 -1.5,0.25 q -1.6,0.5 -2.15,2.05 -0.2,0.55 -0.3,1.8 l 0.1,1.6 -0.75,8.75 -0.2,4.7 q 0,1.5 0.5,2.3 l 0.15,0.2 v 0.3 h 0.3 m 17.2,-8.2 -1.7,-0.2 -1.3,0.1 -1.3,0.2 h -2 l -2.75,0.2 -1.6,0.25 q -1,-0.1 -1.4,-0.7 L 36.7,44 37,41.65 l 0.1,-0.9 q 0.2,-0.55 1.3,-0.95 l 3.1,-0.85 1.95,-0.25 1.2,0.2 q 0.7,0.35 0.55,1.05 l -0.4,0.55 0.4,0.3 0.35,0.8 v 0.05 l 2.85,-0.2 1.55,0.15 h 1.45 q 0.85,0.05 1.3,0.45 0.9,0.55 0.7,1.75 -0.25,1.05 -1.25,1.45 L 50.4,45.35 48.95,45.2 M 36.15,6.4 q -0.75,4.05 -3.5,9.65 -1.05,2.15 -1.85,2.95 -1.05,1.2 -3.9,2.6 l -8.65,4.4 0.15,0.6 0.05,1.2 q -0.15,1.1 -0.85,1.8 -1,1.05 -2.85,0.6 -0.85,-0.25 -2.3,-1.15 l -1.3,1.75 q -1.1,1.15 -2.6,1.85 l -1.4,0.45 q -0.9,0.2 -1.9,0 Q 4.5,33.05 3.85,32.65 2.35,31.8 2.3,30.1 2.2,28.35 3.45,27.25 l 4.25,-3.2 -0.8,-1 Q 6.4,22.3 6.25,21.7 6.15,21.1 6.35,19.85 L 6.6,19.15 Q 6.9,18.5 7.55,18.1 8.15,17.75 8.9,17.7 l 1.1,0.15 1.25,0.4 V 18.2 L 13.2,15.45 18.55,7.3 19.9,5.6 20.4,5 q 0.65,-0.6 2.25,-1.1 l 5.4,-1.2 5.5,-0.5 q 1.6,0.25 2.15,0.95 0.4,0.5 0.45,1.4 0.25,0.7 0,1.85 m -8.45,3.55 1.35,-0.4 q 0.9,0 1.15,0.6 0.35,0.65 -0.25,1.35 -0.35,0.45 -1.15,0.7 0.6,1.1 -0.1,2.05 -0.25,0.45 -1.05,0.95 l -2.75,2.25 -2.9,2.1 q -1.2,0.8 -1.9,0.85 l -1.1,-0.05 -3.15,3.35 -0.3,0.3 0.3,0.1 0.3,-0.25 10.7,-6.6 1.45,-1.25 0.8,-1.65 2.45,-7.1 -7.1,1.1 -1.25,0.35 -1.05,1.2 -6.35,9.65 2.5,-2.8 3.85,-4.3 q 0.8,-0.75 1.3,-0.95 l 1.15,-0.3 3.1,-1.25"
         fill="#999999"
         fill-rule="evenodd"
         stroke="none"
         id="path4" />
      <path
         d="M 31.45,53.1 31.3,52.9 q -0.5,-0.8 -0.5,-2.3 l 0.2,-4.7 0.75,-8.75 -0.1,-1.6 q 0.1,-1.25 0.3,-1.8 0.55,-1.55 2.15,-2.05 l 1.5,-0.25 0.15,-0.15 q 4.4,-0.95 11.15,-0.2 2.1,0.3 2.8,0.8 1,0.65 1.35,1.85 0.35,1.2 -0.15,2.3 3.2,0.8 4.85,1.6 2.65,1.35 3.55,3.6 0.6,1.45 0.6,3.9 l -0.3,3.55 q -0.3,1.35 -1,2.7 -0.75,1.55 -2,2.15 -1.1,0.6 -3.3,0.5 Q 44.4,53.9 36.15,54.4 L 33.5,54.3 q -1.1,-0.25 -1.75,-0.9 l -0.3,-0.3 m 18.9,-12.25 -2.1,-0.6 q -1.15,-0.8 -1,-2.05 l 0.1,-1.05 Q 47.05,36 47.3,35.55 H 41.45 L 36.8,36.1 q -0.2,0.6 -0.3,3.1 l -0.75,10.25 q 3.3,0.35 8.95,0.15 l 8.85,-0.25 0.8,-0.2 0.4,-0.6 q 0.45,-1.2 0.45,-3.8 0,-1.2 -0.3,-1.7 l -1.45,-1.2 q -1.55,-0.8 -3.1,-1"
         fill="#ffffff"
         fill-rule="evenodd"
         stroke="none"
         id="path5" />
      <path
         d="M 51.45,23.2 50,21.75 l -1.15,-1 q -1.55,-1.4 -2.7,-3.3 -0.5,-0.7 -0.65,-1.35 -0.25,-0.85 0.1,-1.5 0.45,-0.8 1.75,-1.1 l 1.4,-0.1 h 0.65 0.1 0.6 l 0.3,-2.1 -0.25,-3.2 -0.8,-1.15 -0.7,-0.5 -1,-0.1 Q 46.05,6.45 44.7,7.45 44,7.95 43.7,7.8 43.1,7.65 43.3,6.9 L 43.9,6.05 Q 46.3,3.45 48.15,3 l 3.45,0.3 1.2,0.55 q 1.2,0.4 2.25,1.3 1.3,1.15 2,2.8 l 0.6,1.95 q 0.5,2.1 0.6,3.55 l 1.1,0.05 q 1.3,0.3 1.75,1.1 0.35,0.65 0.1,1.5 l -0.65,1.35 q -1.15,1.9 -2.7,3.3 l -1.15,1 -1.45,1.45 -1.4,1.15 V 24.4 L 53.3,24.45 52.85,24.4 v -0.05 l -1.4,-1.15 m 5.6,27.6 q -0.65,1.35 -1.5,1.65 l -5.3,0.1 q -4.35,-0.2 -12.95,0.3 l -2.4,-0.1 q -1.4,-0.25 -1.95,-1.35 -0.3,-0.6 -0.3,-2 L 32.95,37 q 0,-2.05 0.8,-2.85 0.7,-0.65 2.85,-0.75 l 4.15,-0.45 4.1,-0.65 q 2.75,-0.35 3.7,0.75 0.65,0.85 0.55,2.3 l -0.25,2.4 q 3.5,0.35 6.75,2.55 l 1.8,1.9 q 1.3,2.1 0.6,5.65 L 57.05,50.8 M 37.7,47.75 48,47.8 52.8,48.1 53.15,47 52.75,46.95 48.65,46.7 45.5,46.55 40.35,46.5 H 37.7 v 1.25 m 11.95,-5.7 -3.2,0.35 q -1.3,0.25 -1.9,-0.35 -0.7,-0.7 -0.7,-2.1 l -0.05,-2.3 -5.9,1 q -0.2,1.65 0,5.15 l -0.1,1.55 h 0.55 l 4.55,-0.4 4.65,-0.05 5.35,-0.35 Q 51.6,42 49.65,42.05 m -16,-38.1 0.3,0.35 0.3,0.3 q 0.85,1.25 -0.05,4 l -2.15,6.35 q -0.55,1.7 -1.1,2.25 L 29,18.5 q -2.55,1.4 -7.55,4.45 l -5.1,2.8 0.55,0.8 0.15,1.2 -0.35,0.95 Q 16.25,29.15 15.2,29 L 14.2,28.8 13.45,28.25 12.7,27.8 11.8,27 11.6,27.15 8.15,31.45 Q 7.05,32.4 5.55,32.1 4,31.7 3.6,30.3 3.25,28.8 4.25,27.75 l 0.8,-0.7 4.05,-2.7 -1.9,-2.05 q -0.3,-0.6 -0.25,-1.4 0.1,-0.65 0.6,-1.3 0.5,-0.5 1.25,-0.55 l 1.3,0.1 1.05,1 3.2,-4.9 5,-7.15 q 0.9,-1.4 1.55,-1.8 0.6,-0.5 2.3,-1 l 6.55,-1.55 3.9,0.2 m -9.2,5.6 q -1.1,0.2 -1.55,0.5 L 22,11 l -8.4,11.8 0.4,0.35 12.3,-7.4 1,-0.9 0.7,-1.5 1.2,-4.6 -4.75,0.8 M 12.5,34.3 l 1.45,1.45 1.15,1 q 1.55,1.4 2.7,3.3 0.5,0.7 0.65,1.35 0.25,0.85 -0.1,1.5 -0.45,0.8 -1.75,1.1 l -1.4,0.1 h -0.65 -0.1 -0.6 q -0.3,1.3 -0.3,2.1 l 0.25,3.2 q 0.35,0.75 0.8,1.15 l 0.7,0.5 1,0.1 q 1.6,-0.1 2.95,-1.1 0.7,-0.5 1,-0.35 0.6,0.15 0.4,0.9 l -0.6,0.85 q -2.4,2.6 -4.25,3.05 l -3.45,-0.3 -1.2,-0.55 Q 9.95,53.25 8.9,52.35 7.6,51.2 6.9,49.55 L 6.3,47.6 5.7,44.05 4.6,44 Q 3.3,43.7 2.85,42.9 2.5,42.25 2.75,41.4 2.9,40.75 3.4,40.05 q 1.15,-1.9 2.7,-3.3 l 1.15,-1 1.45,-1.45 1.4,-1.15 V 33.1 l 0.55,-0.05 0.45,0.05 v 0.05 l 1.4,1.15"
         fill="#000000"
         fill-rule="evenodd"
         stroke="none"
         id="path6" />
    </g>
    <g
       id="shape2"
       transform="translate(1.5,1.5)">
      <path
         d="M 0,23.8 V 0 H 64.1 V 23.8 57.55 H 0 Z"
         fill="none"
         stroke="#000000"
         stroke-linecap="round"
         stroke-linejoin="round"
         stroke-width="3"
         id="path7" />
    </g>
  </defs>
</svg>
