<?xml version="1.0" encoding="UTF-8" standalone="no"?>
<svg
   ffdec:objectType="frame"
   height="44.349998"
   width="78.849998"
   version="1.1"
   id="svg12"
   sodipodi:docname="289.svg"
   xmlns:inkscape="http://www.inkscape.org/namespaces/inkscape"
   xmlns:sodipodi="http://sodipodi.sourceforge.net/DTD/sodipodi-0.dtd"
   xmlns:xlink="http://www.w3.org/1999/xlink"
   xmlns="http://www.w3.org/2000/svg"
   xmlns:svg="http://www.w3.org/2000/svg"
   xmlns:ffdec="https://www.free-decompiler.com/flash">
  <sodipodi:namedview
     id="namedview12"
     pagecolor="#ffffff"
     bordercolor="#000000"
     borderopacity="0.25"
     inkscape:showpageshadow="2"
     inkscape:pageopacity="0.0"
     inkscape:pagecheckerboard="0"
     inkscape:deskcolor="#d1d1d1"
     fit-margin-top="5"
     fit-margin-left="5"
     fit-margin-right="5"
     fit-margin-bottom="5" />
  <g
     transform="translate(2,2.05)"
     id="g3">
    <use
       ffdec:characterId="1"
       height="42.700001"
       transform="translate(-1.75,-2)"
       width="76.449997"
       xlink:href="#shape0"
       id="use1" />
    <use
       ffdec:characterId="283"
       height="36.849998"
       transform="translate(-0.7,-0.4)"
       width="77.550003"
       xlink:href="#shape1"
       id="use2" />
    <use
       ffdec:characterId="3"
       height="44.349998"
       transform="translate(-2,-2.05)"
       width="78.599998"
       xlink:href="#shape2"
       id="use3" />
  </g>
  <defs
     id="defs12">
    <g
       id="shape0"
       transform="translate(1.75,2)">
      <path
         d="M 2.8,0 V -0.4 H 5.4 V 0 H 9.7 V 19.45 0 H 20.55 L 19.3,19.45 H 9.7 0.25 V 0 H 2.8"
         fill="#ffffff"
         fill-rule="evenodd"
         stroke="none"
         id="path3" />
      <path
         d="M 0.25,19.45 H 9.7 19.3 L 18.7,28.6 16,28.5 10.95,27.95 9.7,27.8 Q 7.45,27.6 5.85,27.75 4.05,27.9 1.5,28.6 0.75,28.8 0.25,29.15 v -9.7 m 9.45,0 v 8.35 -8.35"
         fill="#121212"
         fill-rule="evenodd"
         stroke="none"
         id="path4" />
      <path
         d="m 9.7,27.8 1.25,0.15 5.05,0.55 2.7,0.1 h 1.05 l 3.75,0.15 q 2.45,0.3 3.6,1.25 0.6,0.5 0.6,1.1 0,0.65 -0.8,1 l -1.3,0.2 -7.15,0.15 -5.6,-0.3 L 9.7,31.75 7.95,31.6 3.1,31.95 0.95,32.3 0.25,32.1 -0.35,31.55 -0.5,31.3 V 29.9 L 0.25,29.15 Q 0.75,28.8 1.5,28.6 4.05,27.9 5.85,27.75 7.45,27.6 9.7,27.8 v 3.95 -3.95"
         fill="#999999"
         fill-rule="evenodd"
         stroke="none"
         id="path5" />
      <path
         d="M 2.8,0 H 0.25 M 9.7,0 H 5.4 m 16.15,0 h 10.7 M 20.55,0 H 9.7"
         fill="none"
         stroke="#666666"
         stroke-linecap="round"
         stroke-linejoin="round"
         stroke-width="4"
         id="path6" />
      <path
         d="m 9.7,-0.4 h 65 V 40.5 H 47.05 L 45.5,40.7 27,40.65 25.95,40.5 H 9.7 -0.5 V -0.4 H 9.7 V 40.5 -0.4"
         fill="#ffffff"
         fill-rule="evenodd"
         stroke="none"
         id="path7" />
    </g>
    <g
       id="shape1"
       transform="translate(0.7,0.4)">
      <path
         d="m 38.3,17.55 v 0.1 0.65 0.1 0.4 l -0.05,0.05 v 0.2 0.1 0.65 0.1 0.05 L 38.2,20 v 0.1 l -0.05,0.05 v 0.05 l -0.05,0.05 -0.05,0.05 -0.05,0.05 -0.05,0.05 -0.1,0.05 -0.05,0.05 -0.1,0.05 -0.8,0.15 -0.7,-0.45 -3.15,-2.95 -1.2,-1.1 q -0.95,-0.75 -1.2,-1.1 l -0.5,-0.5 Q 29.9,14.45 30.4,14 l 1.45,-1.2 1.2,-1.1 3.15,-2.95 q 0.4,-0.4 0.7,-0.45 l 0.8,0.15 0.1,0.05 0.05,0.05 0.1,0.05 L 38,8.65 38.05,8.7 38.1,8.75 38.15,8.8 V 8.85 L 38.2,8.9 V 9 l 0.05,0.05 v 0.05 0.1 0.65 0.1 0.2 l 0.05,0.05 v 0.4 0.1 0.65 0.1 0.1 h 0.45 0.15 L 39,11.5 h 0.2 1.25 L 41,11.45 h 0.2 0.45 1.1 L 43,11.5 h 0.05 l 0.15,0.05 0.1,0.05 0.1,0.05 0.1,0.05 0.05,0.05 0.05,0.05 0.1,0.05 0.05,0.1 0.05,0.05 v 0.05 l 0.05,0.05 v 0.05 l 0.05,0.05 0.05,0.05 v 0.1 L 44,12.4 v 0.2 0.1 0.05 h 0.05 v 3.5 H 44 v 0.05 0.1 0.2 l -0.05,0.05 v 0.1 L 43.9,16.8 43.85,16.85 V 16.9 L 43.8,16.95 V 17 l -0.05,0.05 -0.05,0.1 -0.1,0.05 -0.05,0.05 -0.05,0.05 -0.1,0.05 -0.1,0.05 -0.1,0.05 -0.15,0.05 H 43 l -0.25,0.05 H 41.65 41.2 41 L 40.45,17.5 H 39.2 39 L 38.9,17.45 H 38.75 38.3 v 0.1 m 8.15,-3.3 v 0.1 0.65 0.1 0.7 0.1 0.35 l 0.05,0.05 v 0.2 l -0.05,0.05 v 0.1 0.05 l -0.05,0.05 v 0.05 l -0.05,0.05 V 16.9 L 46.3,16.95 46.25,17 46.2,17.05 46.15,17.1 46.1,17.15 46,17.2 45.9,17.25 45.8,17.3 h -0.1 v 0.05 H 45.35 V 17.3 h -0.1 L 45.1,17.25 45,17.2 44.95,17.15 44.9,17.05 44.85,17 44.8,16.95 44.75,16.9 44.7,16.85 V 16.8 L 44.65,16.75 V 16.7 L 44.6,16.65 v -0.25 -0.1 -0.7 -0.1 -0.65 -0.1 -0.5 -0.1 -0.65 -0.1 -0.7 -0.1 -0.25 L 44.65,12.3 V 12.25 L 44.7,12.2 V 12.15 L 44.75,12.1 44.8,12.05 44.85,12 44.9,11.95 44.95,11.85 45,11.8 45.1,11.75 45.25,11.7 h 0.1 v -0.05 h 0.35 v 0.05 h 0.1 l 0.1,0.05 0.1,0.05 0.1,0.05 0.05,0.05 0.05,0.05 0.05,0.05 0.05,0.05 0.05,0.05 v 0.05 l 0.05,0.05 v 0.05 l 0.05,0.05 v 0.05 0.1 l 0.05,0.05 v 0.2 l -0.05,0.05 v 0.35 0.1 0.7 0.1 0.25"
         fill="#ffffff"
         fill-rule="evenodd"
         stroke="none"
         id="path8" />
      <path
         d="m 74.6,22.85 0.1,0.05 0.05,0.05 0.05,0.1 0.05,0.05 0.05,0.05 0.05,0.05 v 0.05 l 0.05,0.05 0.05,0.05 v 0.15 l 0.05,0.05 v 0.15 l -0.05,0.1 v 0.15 L 75,24 74.95,24.05 v 0.05 l -0.05,0.05 v 0.05 l -0.1,0.1 -0.1,0.05 -0.05,0.05 -0.15,0.05 -0.1,0.05 -0.05,0.05 h -0.9 -4.85 -2.1 -18.75 -7 -3.2 l -7.4,-0.05 h -1.5 l -5.6,-0.05 h -0.8 -0.5 l -1,-0.05 h -1.2 -5.8 -0.15 -0.05 l -0.1,0.05 H 13.4 13.25 v 0.05 h -0.1 l -0.2,0.05 H 12.9 12.65 L 12.6,24.6 H 9.8 8.9 7.6 L 7.45,24.55 H 6.75 5.3 L 4.4,24.5 H 3.75 L 2.9,24.45 H 2.2 2.1 1.7 1 0.45 L 0.15,24.5 H 0.1 L -0.15,24.45 -0.25,24.4 -0.4,24.35 -0.45,24.3 -0.5,24.25 -0.55,24.2 -0.6,24.15 V 24.1 L -0.65,24.05 V 23.95 23.9 L -0.7,23.85 v -0.2 L -0.65,23.6 V 23.5 L -0.6,23.45 V 23.4 l 0.1,-0.1 0.05,-0.1 0.05,-0.05 0.15,-0.05 h 0.05 l 0.05,-0.05 h 0.1 0.15 0.05 0.1 v -0.1 L 0.2,22.9 V 22.8 22.7 22.65 L 0.15,22.6 v -0.55 -0.1 -0.3 L 0.1,21.6 v -0.35 -0.1 -0.5 L 0.05,20.6 V 20.5 20.4 19.75 19.65 19 18.9 18.25 18.15 17.5 17.4 16.7 16.6 15.95 15.85 15.2 15.1 14.45 14.35 13.7 13.6 12.95 12.85 12.15 12.05 11.4 11.3 10.65 10.55 9.9 9.8 9.15 9.05 8.4 8.3 7.6 7.5 6.85 6.75 6.1 6 5.35 5.25 4.6 4.5 3.85 3.75 3.05 2.95 2.3 2.2 1.55 1.45 0.9 L 0.1,0.85 V 0.8 L 0.15,0.7 V 0.65 L 0.25,0.6 V 0.45 L 0.3,0.4 V 0.35 L 0.35,0.3 V 0.2 L 0.4,0.15 0.45,0.1 0.5,0.05 0.55,0 0.6,-0.05 0.7,-0.1 0.85,-0.15 0.95,-0.2 h 0.2 0.2 0.55 L 2.4,-0.25 H 3.3 L 3.4,-0.3 H 3.55 3.7 l 1.35,-0.05 h 1.2 3.4 L 11.2,-0.4 h 0.6 0.75 6.8 31.75 3.6 l 4.4,0.05 h 2.1 1.35 0.35 1.1 2.65 3.3 1.4 1.6 0.2 0.2 l 0.2,0.05 h 0.05 0.1 l 0.1,0.05 0.15,0.05 0.1,0.05 0.05,0.05 0.05,0.05 0.05,0.1 0.05,0.05 0.05,0.05 0.05,0.05 V 0.25 L 74.4,0.3 V 0.35 L 74.45,0.4 V 0.55 L 74.5,0.6 V 0.7 0.8 L 74.45,0.85 V 1 L 74.4,1.05 V 1.1 1.15 1.2 l 0.05,0.05 V 1.4 l 0.05,0.05 v 0.1 0.25 l 0.05,0.05 V 2.2 2.3 2.95 3.05 3.75 3.85 4.5 4.6 5.25 5.35 6 6.1 6.75 6.85 7.4 l 0.05,0.05 v 0.05 0.1 0.7 0.1 0.65 0.1 0.65 0.1 0.65 0.1 0.65 0.1 0.65 0.1 0.7 0.1 0.65 0.1 0.65 0.1 0.65 0.1 0.65 0.1 0.65 0.1 0.7 0.1 0.65 0.1 0.65 0.1 0.65 0.1 0.65 0.1 0.65 0.1 0.7 0.1 0.65 0.1 0.05 M 46.45,14.25 V 14 13.9 13.2 13.1 12.75 L 46.5,12.7 V 12.5 L 46.45,12.45 V 12.35 12.3 L 46.4,12.25 V 12.2 L 46.35,12.15 V 12.1 L 46.3,12.05 46.25,12 46.2,11.95 46.15,11.9 46.1,11.85 46,11.8 45.9,11.75 45.8,11.7 h -0.1 v -0.05 h -0.35 v 0.05 h -0.1 L 45.1,11.75 45,11.8 44.95,11.85 44.9,11.95 44.85,12 44.8,12.05 44.75,12.1 44.7,12.15 v 0.05 l -0.05,0.05 v 0.05 l -0.05,0.05 v 0.25 0.1 0.7 0.1 0.65 0.1 0.5 0.1 0.65 0.1 0.7 0.1 0.25 l 0.05,0.05 v 0.05 l 0.05,0.05 v 0.05 l 0.05,0.05 0.05,0.05 0.05,0.05 0.05,0.05 0.05,0.1 0.05,0.05 0.1,0.05 0.15,0.05 h 0.1 v 0.05 H 45.7 V 17.3 h 0.1 L 45.9,17.25 46,17.2 46.1,17.15 46.15,17.1 46.2,17.05 46.25,17 46.3,16.95 46.35,16.9 V 16.85 L 46.4,16.8 v -0.05 l 0.05,-0.05 v -0.05 -0.1 L 46.5,16.5 V 16.3 L 46.45,16.25 V 15.9 15.8 15.1 15 14.35 14.25 m -8.15,3.3 v -0.1 h 0.45 0.15 L 39,17.5 h 0.2 1.25 L 41,17.55 h 0.2 0.45 1.1 L 43,17.5 h 0.05 l 0.15,-0.05 0.1,-0.05 0.1,-0.05 0.1,-0.05 0.05,-0.05 0.05,-0.05 0.1,-0.05 0.05,-0.1 L 43.8,17 v -0.05 l 0.05,-0.05 v -0.05 l 0.05,-0.05 0.05,-0.05 v -0.1 L 44,16.6 v -0.2 -0.1 -0.05 h 0.05 v -3.5 H 44 V 12.7 12.6 12.4 l -0.05,-0.05 v -0.1 L 43.9,12.2 43.85,12.15 V 12.1 L 43.8,12.05 V 12 L 43.75,11.95 43.7,11.85 43.6,11.8 43.55,11.75 43.5,11.7 43.4,11.65 43.3,11.6 43.2,11.55 43.05,11.5 H 43 L 42.75,11.45 H 41.65 41.2 41 L 40.45,11.5 H 39.2 39 l -0.1,0.05 H 38.75 38.3 v -0.1 -0.1 -0.65 -0.1 -0.4 L 38.25,10.15 V 9.95 9.85 9.2 9.1 9.05 L 38.2,9 V 8.9 L 38.15,8.85 V 8.8 L 38.1,8.75 38.05,8.7 38,8.65 37.95,8.6 37.85,8.55 37.8,8.5 37.7,8.45 36.9,8.3 q -0.3,0.05 -0.7,0.45 l -3.15,2.95 -1.2,1.1 -1.45,1.2 q -0.5,0.45 -0.25,0.6 l 0.5,0.5 q 0.25,0.35 1.2,1.1 l 1.2,1.1 3.15,2.95 0.7,0.45 0.8,-0.15 0.1,-0.05 0.05,-0.05 0.1,-0.05 L 38,20.35 38.05,20.3 38.1,20.25 38.15,20.2 V 20.15 L 38.2,20.1 V 20 l 0.05,-0.05 v -0.05 -0.1 -0.65 -0.1 -0.2 L 38.3,18.8 v -0.4 -0.1 -0.65 -0.1 m 16.75,10.1 0.45,-0.35 0.65,0.05 0.4,0.5 q 0.1,0.55 -0.3,0.8 -0.25,0.3 -0.65,0.2 -0.4,-0.1 -0.55,-0.4 -0.25,-0.4 0,-0.8 m -41.15,0.75 0.4,-0.15 0.75,-0.05 0.6,0.05 1.35,0.4 0.5,0.6 0.1,-0.05 0.35,-0.05 0.1,-0.05 q 0.9,-0.15 1.8,0.35 l 0.7,0.55 0.55,-0.35 1.3,-0.15 0.4,0.1 1.05,0.55 0.45,0.55 q 0.5,0.15 0.65,0.7 l 0.1,0.35 0.1,-0.25 0.25,-0.25 v -0.1 l 0.05,-0.2 0.15,-0.25 0.1,-0.1 v -0.1 l 0.1,-0.1 Q 26.3,30 26.75,30.05 V 30 h 0.05 l 1.1,-0.15 2.05,0.2 H 32 l 1.25,-0.3 2.2,-0.2 1.65,-0.4 q 1,-0.1 1.6,0.4 l 0.65,-0.15 0.05,-0.05 q 1.2,0.1 1.8,0.75 l 0.15,0.2 5.5,-0.6 -0.05,-0.15 -0.2,-0.8 V 28.4 l 0.35,-0.6 0.55,-0.4 0.4,-0.2 0.5,-0.05 0.05,-0.05 0.8,0.1 0.7,0.3 0.25,0.25 0.1,0.15 0.3,0.35 q 0.35,0.6 -0.05,1.2 l 1,-0.1 v -0.3 l 0.05,-0.1 V 28.8 q 0.15,-0.4 0.45,-0.55 L 52.45,28 h 0.05 l 0.1,-0.05 h 0.15 l 1.05,0.3 0.25,0.2 0.1,0.25 v 0.1 l 0.1,0.3 v 0.1 l 0.3,-0.05 3.45,-0.35 2.8,-0.1 2.9,0.05 1.6,0.2 h 0.15 0.6 l 0.3,-0.05 h 0.35 0.15 0.3 v -0.05 h 4.95 l 0.35,0.05 h 0.35 1.6 0.3 0.2 0.75 0.2 l 0.1,0.05 h 0.15 l 0.15,0.05 0.1,0.1 0.05,0.05 0.05,0.05 0.05,0.05 0.1,0.05 0.05,0.05 v 0.05 l 0.05,0.05 v 0.05 l 0.05,0.05 v 0.05 l 0.05,0.05 v 0.1 l 0.05,0.1 V 30 l -0.05,0.05 v 0.1 l -0.05,0.05 v 0.1 l -0.05,0.05 -0.05,0.05 v 0.05 l -0.05,0.05 -0.05,0.1 -0.05,0.05 -0.1,0.05 -0.05,0.05 -0.1,0.05 -0.1,0.05 -0.1,0.05 h -0.1 l -0.1,0.05 H 74.9 74.7 74.2 72.95 72.6 72.1 67 66.7 L 66.35,30.9 h -0.3 -0.6 l -0.4,0.1 -1.9,0.05 -8.9,0.15 -1.9,0.05 v 0.15 l -0.05,0.1 v 0.1 l -0.15,0.25 -0.05,0.15 -0.3,0.3 -0.25,0.1 -0.1,0.1 -0.4,0.05 L 50.2,32.3 50,32.15 49.8,31.9 49.65,31.5 V 31.3 H 49.5 l -3.5,0.15 -0.2,0.4 q -0.3,0.4 -0.7,0.45 l -0.8,-0.15 -0.45,-0.5 -2.4,0.25 -0.1,0.1 -0.35,0.45 -0.35,0.35 -0.8,0.35 H 38.7 L 38.3,33 37.85,32.8 35.45,33.25 Q 32.6,33.2 31.2,33.3 L 29.45,33.4 28.1,33.35 27.95,33.5 27.7,33.65 27.35,33.8 26.7,33.75 26,33.65 25.35,33.2 25.15,32.9 25,32.55 l -0.05,-0.1 -0.5,0.75 -0.3,0.25 -0.65,0.35 -0.4,0.15 -1.8,0.05 0.25,0.55 v 0.1 l 0.05,0.1 v 0.6 l -0.25,0.55 -0.1,0.05 V 36 l -0.55,0.35 -0.25,0.1 h -0.6 l -0.25,-0.1 -0.5,-0.3 -0.35,-0.6 -0.05,-0.5 V 34.7 l 0.25,-0.55 q 0.3,-0.45 0.9,-0.55 l 0.3,-0.05 -0.2,-0.15 -0.35,-0.45 -0.4,0.2 -1.2,0.1 -0.5,-0.05 -0.2,0.4 -0.1,0.15 -0.6,0.4 -1.3,0.15 v -0.05 q -0.55,-0.1 -0.85,-0.4 L 14.15,33.4 14,32.9 v -0.25 l -0.5,-0.25 -0.45,-0.3 -0.2,-0.2 -0.25,0.05 -0.5,0.5 -0.45,0.7 q -0.75,0.6 -1.55,0 Q 9.75,32.8 9.7,32.4 V 32.35 L 9.4,32.15 9.1,31.85 Q 8.75,31.4 8.8,31 8.1,30.8 8,30.05 7.95,29.7 8.2,29.4 8.5,29.1 8.85,29.05 L 9,29 9.5,29.2 v -0.1 q 0.1,-0.6 0.3,-0.85 l 0.65,-0.55 0.95,-0.2 0.95,0.35 0.3,0.3 V 28.1 q 0.6,0.05 1,0.35 L 13.9,28.4 m 29.3,0.5 q -0.75,-0.25 -0.65,-1.05 0.2,-0.75 0.95,-0.75 l 0.25,0.05 q 0.5,0.1 0.6,0.65 v 0.4 l -0.2,0.45 q -0.4,0.4 -0.95,0.25"
         fill="#999999"
         fill-rule="evenodd"
         stroke="none"
         id="path9" />
      <path
         d="m 18,15.1 h 1.6 q 0.05,-0.45 0.25,-0.95 l 0.4,-0.65 q 0.65,-0.85 1.3,-1.15 L 22.3,12.1 q 2.15,-0.45 3.4,0.8 l 0.65,0.85 0.35,0.6 q 0.45,1 0.1,2.45 l -0.3,0.85 -0.55,0.6 -0.4,0.3 0.55,1.75 q 0.4,1.95 0.2,3.5 l 0.65,-0.3 2.5,-0.8 1.65,-0.25 q 2.95,-0.3 4.6,0.05 2.65,0.5 4.05,2.2 1.3,1.6 1.25,3.55 l 3,-0.1 6.1,0.25 10.05,0.2 q 0.4,0 0.45,0.2 l -0.15,0.35 v 0.1 q 0,0.25 -0.5,0.35 l -8.9,1.1 -11.65,0.45 q -1.45,0.8 -2.9,1.1 l -2.55,0.2 -11.6,-0.2 -1.6,-0.15 -0.9,-0.1 -0.4,-0.15 -1.8,-0.35 Q 15,30.7 13.05,29.45 L 9.4,26.85 8.1,25.8 7.3,24.9 6.45,23.7 Q 6.05,22.9 6.4,22.05 6.8,21.2 7.65,20.9 l 1.4,-0.2 H 9.3 L 8.65,19.6 8.05,18 Q 7.7,16.4 8.25,15 l 0.8,-1.35 q 0.85,-1 2,-1.3 l 1.1,-0.1 1.1,0.2 q 1.25,0.45 1.85,1.6 0.5,0.85 0.55,1.75 1.25,-0.65 2.35,-0.7 m -3.95,4.05 q -0.75,0.15 -1.35,0.6 v 0.15 l -0.15,1.05 -0.25,0.6 -0.35,0.45 -0.5,0.5 q 0.05,0.95 0.75,1.75 l 0.5,0.4 1.55,0.35 0.75,-0.05 0.7,-0.35 0.55,-0.4 0.7,-0.95 0.2,-1.5 -0.1,-0.8 -0.25,-0.5 q -0.4,-0.7 -1.25,-1.1 L 14.8,19.1 14.05,19.15 m 8.1,4.65 h 0.1 l 0.2,-0.1 0.35,-0.05 0.25,0.05 0.5,-0.15 0.3,-0.1 0.15,-0.3 -0.4,-0.3 -0.5,-0.15 h -0.85 l -1.3,0.15 -0.45,-0.35 -0.75,-0.05 q -0.4,0.1 -0.6,0.4 -0.25,0.4 -0.15,0.85 l -0.55,0.25 -0.7,0.65 -0.55,0.8 q -0.3,0.65 0.1,1.1 0.35,0.6 1,0.5 l 0.65,-0.15 0.1,-0.35 q 0.25,-0.6 0.6,-1.05 l 1.1,-1.05 0.5,-0.25 0.85,-0.3 0.05,-0.05 m -1.3,-5.1 -0.15,0.5 -0.05,1 0.15,0.4 0.1,0.2 q 0.4,0.65 1.1,0.95 l 1.45,0.15 q 1.15,-0.15 1.65,-1.3 l 0.1,-0.25 q 0.2,-0.9 -0.4,-1.85 l -0.55,-0.65 q -0.7,-0.5 -1.6,-0.4 l -0.1,0.05 -0.65,0.15 -0.55,0.4 -0.3,0.35 -0.2,0.3"
         fill="#000000"
         fill-rule="evenodd"
         stroke="none"
         id="path10" />
      <path
         d="m 20.85,18.7 0.2,-0.3 0.3,-0.35 0.55,-0.4 0.65,-0.15 0.1,-0.05 q 0.9,-0.1 1.6,0.4 l 0.55,0.65 q 0.6,0.95 0.4,1.85 l -0.1,0.25 q -0.5,1.15 -1.65,1.3 L 22,21.75 q -0.7,-0.3 -1.1,-0.95 l -0.1,-0.2 -0.15,-0.4 0.05,-1 0.15,-0.5 m 1.3,5.1 -0.05,0.05 -0.85,0.3 -0.5,0.25 -1.1,1.05 Q 19.3,25.9 19.05,26.5 L 18.95,26.85 18.3,27 q -0.65,0.1 -1,-0.5 -0.4,-0.45 -0.1,-1.1 l 0.55,-0.8 0.7,-0.65 L 19,23.7 q -0.1,-0.45 0.15,-0.85 0.2,-0.3 0.6,-0.4 l 0.75,0.05 0.45,0.35 1.3,-0.15 h 0.85 l 0.5,0.15 0.4,0.3 -0.15,0.3 -0.3,0.1 -0.5,0.15 -0.25,-0.05 -0.35,0.05 -0.2,0.1 h -0.1 m -8.1,-4.65 0.75,-0.05 0.75,0.25 q 0.85,0.4 1.25,1.1 l 0.25,0.5 0.1,0.8 -0.2,1.5 -0.7,0.95 L 15.7,24.6 15,24.95 14.25,25 12.7,24.65 12.2,24.25 q -0.7,-0.8 -0.75,-1.75 l 0.5,-0.5 0.35,-0.45 0.25,-0.6 0.15,-1.05 v -0.15 q 0.6,-0.45 1.35,-0.6"
         fill="#ffffff"
         fill-rule="evenodd"
         stroke="none"
         id="path11" />
    </g>
    <g
       id="shape2"
       transform="translate(2,2.05)">
      <path
         d="M -0.5,-0.4 V -0.55 H 75.1 V -0.4 40.8 H -0.5 Z"
         fill="none"
         stroke="#000000"
         stroke-linecap="round"
         stroke-linejoin="round"
         stroke-width="3"
         id="path12" />
    </g>
  </defs>
</svg>
