<?xml version="1.0" encoding="UTF-8" standalone="no"?>
<svg
   ffdec:objectType="frame"
   height="44.349998"
   width="78.599998"
   version="1.1"
   id="svg11"
   sodipodi:docname="148.svg"
   xmlns:inkscape="http://www.inkscape.org/namespaces/inkscape"
   xmlns:sodipodi="http://sodipodi.sourceforge.net/DTD/sodipodi-0.dtd"
   xmlns:xlink="http://www.w3.org/1999/xlink"
   xmlns="http://www.w3.org/2000/svg"
   xmlns:svg="http://www.w3.org/2000/svg"
   xmlns:ffdec="https://www.free-decompiler.com/flash">
  <sodipodi:namedview
     id="namedview11"
     pagecolor="#ffffff"
     bordercolor="#000000"
     borderopacity="0.25"
     inkscape:showpageshadow="2"
     inkscape:pageopacity="0.0"
     inkscape:pagecheckerboard="0"
     inkscape:deskcolor="#d1d1d1"
     fit-margin-top="5"
     fit-margin-left="5"
     fit-margin-right="5"
     fit-margin-bottom="5" />
  <g
     transform="translate(2,2.05)"
     id="g3">
    <use
       ffdec:characterId="1"
       height="42.700001"
       transform="translate(-1.75,-2)"
       width="76.449997"
       xlink:href="#shape0"
       id="use1" />
    <use
       ffdec:characterId="148"
       height="43.5"
       transform="translate(-1.2,-2)"
       width="76.75"
       xlink:href="#shape1"
       id="use2" />
    <use
       ffdec:characterId="3"
       height="44.349998"
       transform="translate(-2,-2.05)"
       width="78.599998"
       xlink:href="#shape2"
       id="use3" />
  </g>
  <defs
     id="defs11">
    <g
       id="shape0"
       transform="translate(1.75,2)">
      <path
         d="M 2.8,0 V -0.4 H 5.4 V 0 H 9.7 V 19.45 0 H 20.55 L 19.3,19.45 H 9.7 0.25 V 0 H 2.8"
         fill="#ffffff"
         fill-rule="evenodd"
         stroke="none"
         id="path3" />
      <path
         d="M 0.25,19.45 H 9.7 19.3 L 18.7,28.6 16,28.5 10.95,27.95 9.7,27.8 Q 7.45,27.6 5.85,27.75 4.05,27.9 1.5,28.6 0.75,28.8 0.25,29.15 v -9.7 m 9.45,0 v 8.35 -8.35"
         fill="#121212"
         fill-rule="evenodd"
         stroke="none"
         id="path4" />
      <path
         d="m 9.7,27.8 1.25,0.15 5.05,0.55 2.7,0.1 h 1.05 l 3.75,0.15 q 2.45,0.3 3.6,1.25 0.6,0.5 0.6,1.1 0,0.65 -0.8,1 l -1.3,0.2 -7.15,0.15 -5.6,-0.3 L 9.7,31.75 7.95,31.6 3.1,31.95 0.95,32.3 0.25,32.1 -0.35,31.55 -0.5,31.3 V 29.9 L 0.25,29.15 Q 0.75,28.8 1.5,28.6 4.05,27.9 5.85,27.75 7.45,27.6 9.7,27.8 v 3.95 -3.95"
         fill="#999999"
         fill-rule="evenodd"
         stroke="none"
         id="path5" />
      <path
         d="M 2.8,0 H 0.25 M 9.7,0 H 5.4 m 16.15,0 h 10.7 M 20.55,0 H 9.7"
         fill="none"
         stroke="#666666"
         stroke-linecap="round"
         stroke-linejoin="round"
         stroke-width="4"
         id="path6" />
      <path
         d="m 9.7,-0.4 h 65 V 40.5 H 47.05 L 45.5,40.7 27,40.65 25.95,40.5 H 9.7 -0.5 V -0.4 H 9.7 V 40.5 -0.4"
         fill="#ffffff"
         fill-rule="evenodd"
         stroke="none"
         id="path7" />
    </g>
    <g
       id="shape1"
       transform="translate(1.2,2)">
      <path
         d="m 5.5,29.9 0.35,1.5 q 0,1.05 -0.6,1.4 L 4.15,32.7 3.65,31.9 2.8,31.7 1.75,31.65 1.1,31.8 0.45,31.75 Q 0.05,31.6 -0.05,31 V 30.35 L -0.2,30.2 -0.3,29.45 V 28.7 q 0.1,-0.45 0.5,-0.6 L 0.35,28.05 0.3,27.25 0.45,18.8 0.35,15.75 0.25,12.85 0.1,11.55 Q 0.15,11.1 0.5,10.75 L -0.25,9.8 Q -0.45,9.25 -0.1,8.65 L 0.2,8.3 -0.45,7.6 Q -0.8,7.05 -0.75,6.55 -0.65,5.9 -0.05,5.8 0.4,5.75 1.15,6.4 l 2.05,1.75 4.35,3.4 1.1,0.7 -1,-0.9 -6.9,-7.4 Q -0.5,2.6 -0.35,1.7 q 0.1,-0.65 0.7,-1 L 1.15,0.45 Q 1,-0.5 1.6,-1.1 2.25,-1.75 3.1,-1.4 3.55,-1.25 4.15,-0.55 L 4.7,0.1 4.9,0 q 0.85,-0.3 1.6,0.3 l 1.2,1.15 8.9,10.85 0.1,0.15 Q 15.45,9.75 14.4,8.2 L 12.15,4.8 11.55,3.6 10.85,2.6 9.5,0.95 9.15,0.35 q 0,-0.45 0.25,-0.6 l 0.55,0.1 0.1,-0.2 0.8,-0.5 q 0.6,-0.05 1.15,0.5 l 0.75,1.05 1.4,2.2 1.15,2.75 1.25,1.9 3.95,7.7 0.1,0.55 0.5,0.7 0.45,0.45 0.2,0.6 0.05,0.55 -0.05,0.3 0.85,1.45 0.1,0.45 1.9,1.3 q 0.55,0.45 0.65,0.85 l -0.15,0.75 -0.6,0.45 q -0.6,0.1 -1.45,-0.45 L 21.65,22.15 21,21.65 19.75,21 l -3.4,-1.75 0.55,1.15 0.65,0.8 0.65,1.1 -0.3,0.45 -0.8,0.05 -0.5,-0.35 -5.15,-0.15 -1.5,0.5 Q 8.55,23.4 8,23.9 l -0.8,1 Q 6.35,26.1 5.85,27.25 5.3,28.8 5.5,29.9 M 37.4,0.6 37.65,0.9 H 38 L 39.15,0.7 40.55,0.6 41,0.7 41.2,0.5 Q 41.45,0.3 42.1,0.2 L 45.85,0.05 46.9,0.2 47,0.25 h 0.9 l 2.75,-0.05 2.7,-0.3 2.65,0.3 0.65,0.35 0.3,-0.25 1.55,-0.9 0.8,-0.3 1.4,-0.25 h 0.8 q 0.85,0.15 1.3,1.1 l 0.05,0.1 3.15,-0.5 3.1,0.4 1.9,-0.1 h 0.65 L 72.3,0 72.95,-0.05 74.5,-0.3 75.35,0.25 q 0.3,0.4 0.1,0.95 l -0.4,0.9 -0.3,0.45 -0.95,1.45 0.3,1.15 0.1,2.25 -0.15,1.8 -0.3,3.05 0.15,1.2 q 0,0.7 -0.35,1.05 l -0.8,0.3 -0.8,-0.2 Q 71.25,14.15 71.1,13.1 L 71.15,11.4 71.45,9 71.6,6.75 Q 71.55,5.5 71,4.65 70.55,3.9 69.7,3.4 67.2,1.85 63.35,2.55 l -1.85,0.6 q -1.05,0.5 -2.65,2.1 l -2,2.4 0.15,0.4 Q 57.2,9 56.3,9.45 L 54.75,9.35 54,8.6 Q 53.5,8.1 53.1,8.05 l -0.65,0.1 -2.3,1 Q 49,9.8 48.25,11.1 L 48,11.5 47.55,11.55 47.2,11.25 47.15,10.8 47.3,9.9 47.4,9.4 47.85,8.8 49.3,7.35 50.15,6.85 Q 50.95,6.45 51.6,6.2 L 50.7,5.85 50.35,5.8 50.05,5.9 48.65,6.7 48.1,7.1 47,6.95 46.65,6.5 h -0.1 v 0.35 l -0.05,1.75 -0.1,0.55 0.2,0.7 0.2,0.9 -0.25,1.4 q -0.35,0.55 -1,0.45 -0.65,-0.1 -0.9,-0.7 L 44.05,8.85 43.8,8.4 43.4,7.45 43.3,8.2 l -0.25,0.95 -0.8,2.05 -0.4,0.6 -0.6,0.4 q -0.45,0.1 -0.8,-0.35 -0.25,-0.25 -0.2,-0.7 l -0.9,-0.1 Q 38.45,10.7 37.9,9.7 L 37.1,7.75 35.15,3 q -0.6,-1.2 -0.65,-1.95 0,-1.3 1,-1.55 l 0.85,0.15 0.45,0.45 q 0.4,0.05 0.6,0.5 M 70.95,20.05 70.75,19.3 69.9,17.85 q -0.4,-0.5 -1.25,-0.85 -1.5,-0.55 -3,0 l -0.9,0.35 -0.25,0.1 -0.5,0.6 -0.7,0.55 -0.45,0.2 -0.35,-0.15 -0.05,-0.4 0.25,-0.4 0.2,-0.9 L 63.05,16.7 63,16 q 0.1,-0.45 0.6,-0.8 l 0.05,-0.5 0.1,-1.4 -0.15,-1 -0.5,-0.95 Q 62.35,10.6 61.2,10.8 l -1.85,0.8 -1.1,0.95 -0.65,1.05 -0.8,0.95 -0.25,0.15 -0.65,0.3 -0.85,-0.15 q -0.5,-0.15 -1.05,0 l -0.3,0.2 -0.25,0.4 -0.65,1.05 -0.2,0.95 0.2,0.55 0.1,0.3 -0.1,0.4 -0.4,0.1 -0.5,-0.55 -0.25,-0.35 -0.3,-1.05 -0.05,-0.45 0.2,-0.65 0.8,-1.95 0.55,-0.5 0.7,-0.45 0.7,-0.15 0.7,-0.05 0.5,-0.05 0.7,-1.4 Q 56.6,10.6 57.6,9.9 l 1.6,-1 q 1.15,-0.55 2.6,-0.55 2.05,0.1 3.15,1.4 0.8,0.95 0.9,2.55 l -0.1,2.15 q 2.25,-0.4 4.05,0.5 l 0.95,0.55 1.25,1.25 0.55,0.95 0.35,1.85 v 1.05 q -0.15,2.55 -1.5,4.25 -0.95,1.05 -2.2,1.55 l -0.7,-0.05 q -0.2,-0.3 0.05,-0.65 l 0.55,-0.4 0.65,-0.8 0.85,-1.7 0.3,-1.75 0.05,-1 m -8.3,3.45 q 0.55,0.4 0.55,1.1 0,0.65 -0.5,1.15 -0.55,0.55 -2.1,0.85 l -2.15,0.35 -6.8,0.95 -4.45,0.3 -0.65,-0.05 q -0.35,-0.1 -0.4,-0.4 -0.05,-0.35 0.4,-0.7 0.5,-0.35 1.8,-0.8 l 2,-0.55 4.9,-0.95 4.85,-1.15 1.25,-0.4 q 0.8,-0.1 1.3,0.3 M 56.45,3.85 56.25,4.55 56.4,5.1 Q 57.7,2.9 59.95,1.45 L 58.85,1.85 58.2,2.2 57.95,2.35 Q 57.2,2.85 57,3.05 l -0.55,0.8 M 53.3,5.7 53.75,5.65 53.65,5.4 V 4.95 L 54,3.65 54.4,2.95 H 54.3 L 52.75,3 q -0.85,0.2 -1.3,0.75 l -0.15,0.2 0.4,0.2 q 0.55,0.2 0.8,0.5 L 52.95,5.4 53.1,5.75 53.3,5.7 M 42,4.5 V 4.9 L 42.25,4.75 42,4.5 m 7.15,9.4 q 0.75,-0.35 1.3,0.15 0.65,0.4 0.65,1.15 0,0.6 -0.55,1.4 l -3.05,5.2 -1.25,2 -1.55,2.35 q -0.2,0.2 -0.45,0.2 -0.45,0 -0.45,-0.5 l 0.1,-0.7 q 0.6,-1.85 1.35,-3.6 L 47.9,15.6 q 0.65,-1.45 1.25,-1.7 m 0.5,17.7 q 0.05,-0.3 0.6,-0.4 l 7.25,-0.55 3.55,0.05 3.6,-0.05 1.75,0.25 q 0.65,0.4 0.65,1.1 0.1,0.8 -0.5,1.2 -0.6,0.5 -1.95,0.4 L 55.4,32.95 50.3,32.1 Q 49.6,32 49.65,31.6 m 15.6,7.6 -0.9,0.1 -0.9,-0.05 -0.7,-0.3 -0.5,-0.25 -0.3,-0.45 -0.4,-0.45 q -0.25,-0.25 -0.15,-0.5 0.15,-0.35 0.55,-0.25 l 0.6,0.25 1.85,0.2 1.75,-0.55 1.3,-0.7 0.65,-0.7 0.7,-1.45 V 32.95 L 68.9,32.8 V 32.6 L 69,32.25 q 0.15,-0.2 0.45,-0.3 L 70.6,31.1 71,30.4 71.15,30.05 71.1,29.1 70.95,28.6 70.6,27.8 70.4,27.45 q -0.1,-0.4 0.25,-0.65 l 0.55,-0.15 0.4,0.1 0.25,0.35 0.45,0.45 q 0.3,0.3 0.2,0.6 l 0.2,0.3 0.05,0.4 0.15,1.55 -0.25,0.7 -0.6,1.15 -0.4,0.4 -0.4,0.4 h 0.05 l 0.6,0.7 0.4,0.75 0.25,0.8 0.05,0.95 -0.05,0.9 -0.15,0.5 -0.75,1.75 -1.25,1.35 q -0.9,0.5 -1.8,0.4 L 68,41 67.65,40.8 Q 67.4,40.35 67.8,40.1 L 68.15,40 68.6,39.75 69,39.6 q 0.6,-0.15 1,-0.65 l 0.45,-1.05 0.3,-1.1 0.05,-0.45 -0.15,-0.75 -0.2,-0.4 -0.55,1.05 -0.75,0.95 q -0.95,1.15 -2.9,1.75 l -1,0.25 M 3.15,21.3 3.8,20.3 4.3,19.85 Q 3.75,19.9 3.3,19.55 2.95,19.3 2.85,19.35 2.6,19.4 2.6,19.85 v 2.5 L 3.15,21.3 M 3.9,26.5 Q 4.3,25.45 5.4,24 l 1.55,-1.65 q 0.75,-0.6 2,-1.15 1.2,-0.5 1.8,-0.65 h 0.15 l -3.3,0.3 -1.5,0.6 Q 5.25,22.05 4.7,23.6 L 4.1,25.45 Q 3.9,26.1 3.85,26.7 L 3.9,26.5 m 14.4,-0.25 2.05,0.05 2.85,0.15 q 1.15,0.15 2.35,0.7 1.5,0.75 2.05,1.65 0.25,0.6 -0.05,0.8 L 26.95,29.55 26.55,29.1 25.8,28.75 23.95,28.3 q -1.4,-0.15 -3.25,-0.05 l -2.7,0.2 q -1.95,0.4 -3.6,1.7 l -0.85,0.95 q -0.35,0.7 -0.15,1.25 l 0.65,1.15 q 0.15,0.45 -0.1,0.9 -0.25,0.45 -0.7,0.6 L 12.75,35.05 12.4,35.7 10.95,36.15 9,36.3 q -1.1,0 -1.7,0.3 L 6.45,37.15 Q 5.85,37.6 5.4,38.2 5.55,38.8 6,39.25 l 0.35,0.4 Q 6.55,39.85 6.4,40.1 6.3,40.35 6,40.35 L 5.5,40.25 Q 4.85,40.05 4.3,39.5 3.8,39 3.7,38.3 3.65,37.3 4.65,36.2 5.9,34.75 7.1,34.4 l 3.1,-0.55 1.1,-0.1 -0.05,-0.15 q -0.5,-1.25 -0.2,-2.6 0.3,-1.35 1.25,-2.3 0.6,-0.55 1.55,-1.05 0.85,-0.6 1.55,-0.85 l 2.9,-0.55 M 13.6,38 q 0.35,-0.8 1.4,-1.25 l 1.85,-0.45 3.5,-1.1 11.4,-2.85 h 0.35 l 0.2,0.3 L 32,33 q -0.85,0.55 -3.15,1.3 -1.6,0.55 -3.35,1.35 -6,2.6 -8.95,4.05 l -1.4,0.5 q -0.9,0 -1.35,-0.7 -0.45,-0.6 -0.2,-1.5 m 21.65,-2.9 -3.9,4.85 -0.95,0.95 -0.95,0.55 q -0.9,0.2 -1.35,-0.6 -0.45,-0.75 0.05,-1.55 l 0.65,-0.65 3.8,-2.95 1.9,-1.35 0.6,-0.2 q 0.3,-0.1 0.5,0.3 l -0.35,0.65"
         fill="#999999"
         fill-rule="evenodd"
         stroke="none"
         id="path8" />
      <path
         d="m 12.35,0.35 q -0.1,-0.75 0.15,-1 l 0.85,-0.1 0.75,0.55 q 1.1,1.25 2.2,3.3 l 1.85,3.6 3.65,6.45 3.45,5.65 2.9,4.25 q 1.85,2.2 4,3.05 3.25,1.3 6.25,-0.35 1.45,-0.8 2.3,-2.2 0.9,-1.45 0.95,-3.1 Q 41.7,18.8 40.4,15.9 37.05,8.3 31.95,1.4 31,0.15 31.1,-0.7 q 0.05,-0.5 0.5,-0.9 0.45,-0.4 1,-0.4 1.05,0.05 2.1,1.65 3.1,4.7 5.9,10.05 l 2.15,4.35 q 1.3,3.1 1.6,4.7 0.55,2.9 -0.35,4.9 -0.8,2 -3.25,4.1 -1.8,1.55 -3.45,2.05 l -2.8,0.3 -3.35,-0.65 Q 28.2,28.35 25.9,25.6 24.45,23.95 22.25,20.15 17.9,12.6 13.6,3.65 12.6,1.6 12.35,0.35 m 42,9.55 -0.6,0.05 q -1.4,0.45 -2.25,1.9 -0.6,1.1 -0.9,3.25 l -0.35,2.15 -0.15,0.4 -0.55,-0.05 -0.3,-0.5 Q 49,16.5 49,15.55 L 49.15,14.3 49.45,12.55 50,10.9 q 0.45,-1 0.85,-1.45 l 1.6,-1.3 q 1.4,-0.85 2.5,-0.7 0.5,0.1 1.4,0.6 l 0.2,0.15 q 1.55,-2.75 4.35,-4.35 2.8,-1.6 5.5,-1.25 3.25,0.35 4.75,2.85 0.8,1.3 0.8,2.95 0,1.6 -0.7,3 l -0.35,0.6 0.15,0.1 1.5,0.8 0.85,0.65 1.05,1.6 0.35,0.85 -0.05,1.5 -0.7,1.5 q -0.2,0.2 -0.4,0.2 l -0.5,-0.25 Q 72.7,18.5 72.5,17.6 L 72.4,16.95 72.2,16.55 71.65,15.8 Q 70.75,14.6 69,14.45 67.45,14.3 66.1,15.15 l -0.85,0.2 q -0.3,-0.05 -0.3,-0.5 L 65.1,14.3 q 0.35,-0.65 1.3,-1.3 0.8,-0.55 1.65,-0.85 L 68.5,12.1 68.75,10.9 Q 69.25,8.7 68.9,7.65 68.5,6.6 67.35,5.95 66.3,5.45 65.1,5.5 q -1.75,0 -3.7,1.2 l -1.6,1.2 -1.6,1.8 -0.75,1.15 Q 56.8,11.5 56.2,11.1 L 56.05,11 55.65,10.8 Q 54.9,9.95 54.35,9.9 M 57.4,29.05 55.9,28.4 Q 53.35,26.9 52.95,24.85 L 52.85,23.5 53,21.8 q 0.35,-1.35 1.65,-2.5 L 55,19.05 54.55,18.55 q -0.45,-0.5 -0.45,-1.3 l 0.2,-1.4 0.3,-0.75 0.35,-0.5 q 0.7,-0.8 1.35,-0.9 l 0.8,-0.05 1.05,0.05 q 0.95,0.15 1.55,0.85 l 0.5,0.8 0.1,0.35 0.15,1.2 1.2,0.25 q 1.85,0.5 2.85,1.75 l 1,-0.25 q 0.95,-0.1 1.7,0.5 0.8,0.65 1,1.5 l 0.25,1 -0.05,0.6 -0.5,1.35 -0.85,0.95 -1.1,0.65 -0.75,0.15 -0.2,0.05 -0.05,0.05 -0.55,1.15 -1,0.95 q -2.15,1.45 -4.65,1.6 l -1.35,-0.1 m 3.8,-2.85 q 0.45,0.2 0.75,-0.2 l 0.2,-0.65 v -0.4 h 0.05 q 0.9,-0.1 1.25,-0.35 l 0.4,-0.5 -0.1,-0.6 q -0.2,-0.3 -0.6,-0.3 l -0.7,0.1 -0.6,0.1 -0.15,-0.65 -0.15,-0.4 q -0.2,-0.3 -0.55,-0.1 -0.25,0.2 -0.25,0.65 l 0.05,0.8 -0.5,0.2 q -0.5,0.2 -0.75,0.45 -0.3,0.5 -0.05,0.85 l 0.6,0.25 0.6,-0.15 h 0.15 v 0.35 q 0,0.4 0.35,0.55 M 50.65,3.35 q 0.2,-0.55 0.75,-1 0.6,-0.45 1.4,-0.5 0.8,-0.05 1.45,0.3 l 0.95,1 Q 55.5,3.8 55.35,4.5 55.15,5.25 54.6,5.7 54.2,6.05 53.55,6.2 52.2,6.45 51.25,5.6 50.8,5.2 50.6,4.55 50.45,3.9 50.65,3.35 m 1.05,0.4 0.1,0.4 0.45,0.5 h 0.95 l 0.6,-0.2 0.2,-0.3 0.05,-0.2 -0.1,-0.1 Q 53.3,3.2 52.6,3.35 L 52.1,3.55 51.85,3.6 Q 51.7,3.6 51.7,3.75 M 44.15,8 45.55,11.8 46.3,6.45 46.7,5.2 Q 47,4.6 47.3,4.55 47.75,4.4 48.05,4.95 l 0.2,0.9 v 4.45 l -0.15,1.4 -0.7,3.75 q -0.2,1.05 -0.65,1.4 L 45.9,17.1 q -0.5,0 -0.8,-0.35 -0.25,-0.2 -0.45,-0.8 -1.25,-3.4 -2.3,-7.35 L 41.55,5.4 Q 41.1,3.6 41.25,2.6 l 0.1,-0.3 q 0.2,-0.2 0.45,0 l 0.25,0.45 0.45,1.1 1.65,4.15 m 4.6,17.5 -0.3,-0.5 -0.05,-1 -0.35,-1.15 -0.2,-1.15 q 0,-0.45 0.3,-0.7 l 0.6,-0.2 0.6,-0.15 0.85,-0.05 q 0.45,0 0.65,0.35 0.3,0.4 -0.15,1.45 l -0.5,1.9 -0.35,1.2 -0.45,0.7 -0.65,-0.7 m 8.55,-7.15 q -0.35,-0.2 -0.55,0.2 l -0.1,0.5 v 0.85 q -0.7,0.3 -0.8,0.35 l -0.7,0.6 -0.05,0.5 0.3,0.3 0.55,-0.05 0.7,-0.15 0.1,0.5 q 0.35,0.65 0.9,0.4 L 58.05,21.7 58,21.1 58.3,21 59.2,20.75 59.75,20.1 59.55,19.55 59,19.25 57.85,19.4 57.75,19 q -0.1,-0.6 -0.45,-0.65 m -1.15,15.3 0.15,0.4 0.1,0.55 0.2,0.45 0.05,0.5 0.25,0.5 v 0.25 l 0.2,0.4 0.3,0.85 0.1,1.1 -0.1,0.95 q -0.25,0.55 -0.9,0.45 L 56,39.85 q -0.2,0.3 -0.75,0.4 -0.45,0 -0.9,-0.35 l -0.75,0.2 q -0.4,0 -0.7,-0.4 l -1.6,0.05 q -0.45,0.55 -1,0.2 l -0.15,0.2 -1.3,0.15 q -0.7,-0.45 -0.45,-1.2 l 0.3,-0.55 1.95,-2.75 0.45,-0.5 1,-0.05 0.85,0.55 0.3,-0.65 1.25,-2.25 0.3,-0.45 0.15,-0.1 h 0.4 0.05 l 0.4,0.5 v 0.05 l 0.35,0.75 m -13.35,0.6 -4.5,1.1 -0.1,0.35 -0.8,1.65 q -0.7,0.8 -1.6,0.65 -1,-0.2 -1.15,-1.1 v -0.7 -0.05 l -0.85,-0.4 q -0.85,-0.7 -0.75,-1.8 0.05,-0.8 0.55,-1.45 0.55,-0.65 1.3,-0.85 l 0.9,-0.1 1.4,0.25 q 0.75,0.35 1.05,0.95 l 3.05,-0.4 3.45,-0.05 0.1,-1.25 q 0.5,-0.8 1.75,-1 l 1,0.1 0.5,0.5 q 0.4,0.4 0.45,0.9 l -0.35,1.05 -0.35,0.35 q 0.7,0.75 0.5,1.65 -0.15,1 -1.1,1.45 -1,0.55 -1.7,0 L 44.75,35 44.05,34.25 44,34.1 42.8,34.25 M 68.3,30.7 q 0.6,1.05 0,1.65 -0.35,0.5 -1.2,0.4 l -1.45,-0.3 Q 64.85,32.2 64.4,31.8 63.8,31.2 63.95,30.5 64.1,29.85 64.8,29.6 l 1.3,-0.2 q 0.85,0 1.4,0.35 0.55,0.4 0.8,0.95 m -4.15,2.6 0.65,0.15 0.55,0.6 q 0.4,0.75 0.25,1.45 -0.25,0.85 -0.9,1.2 -1.05,0.5 -2.35,-0.35 Q 61.5,35.8 61.4,35.2 v -1 q 0.3,-1.1 1,-1.3 l 0.9,0.1 0.85,0.3 M 30,16.8 q 0.15,-0.65 0.7,-1.2 L 31.75,14.8 33,14.65 q 1.15,0.1 1.65,0.5 l 1,1.15 0.25,0.6 0.05,0.5 -0.05,0.75 -0.15,0.5 -0.2,0.5 -0.75,0.8 -0.8,0.6 -1.35,0.15 -1.3,-0.25 -0.9,-0.85 -0.35,-0.5 Q 29.85,18.45 29.95,17.4 L 30,16.8 m 7.5,0.9 0.5,-0.5 q 0.5,-0.35 1.15,-0.25 0.65,0.1 1.05,0.55 0.4,0.45 0.35,1.1 0,0.65 -0.4,1.1 -0.4,0.45 -1.1,0.5 -0.65,0.1 -1.1,-0.3 -0.5,-0.35 -0.6,-1 -0.15,-0.65 0.15,-1.2 m -6.9,6.6 q -0.65,-0.5 -0.55,-1.3 0.15,-1 1.1,-1.25 1,-0.25 1.55,0.55 0.35,0.4 0.3,1 -0.05,0.55 -0.45,0.9 -0.35,0.4 -0.95,0.4 -0.6,0.05 -1,-0.3 m 8.05,-0.7 -0.35,0.65 Q 37.7,25 36.65,25 35.95,24.95 35.4,24.35 34.85,23.8 34.85,23.1 q 0,-0.75 0.5,-1.3 0.55,-0.55 1.25,-0.65 0.7,-0.05 1.35,0.4 0.6,0.5 0.75,1.2 L 38.65,23.6 M 9.15,14.15 V 13.9 l -1.4,0.15 Q 6.65,13.95 6.35,13.55 5.9,13.1 6.05,12.4 6.1,12.05 6.5,11.25 6.65,10.9 6.95,10.7 L 8,10.6 8.3,10.7 q 0,-0.6 0.35,-1.05 L 9.4,9.05 9.95,8.9 q 0.95,-0.1 1.55,0.3 0.8,0.4 0.9,1.25 0,0.65 -0.4,1.3 l -1.05,1.2 0.3,1.7 0.15,1.7 v 0.55 h 0.1 l 0.6,0.55 0.4,0.65 q 0.1,0.5 -0.2,0.8 -0.25,0.4 -0.75,0.4 -0.4,0 -0.85,-0.4 L 9.9,19.45 8.85,19.4 Q 8.35,19.15 8.35,18.55 8.25,17.95 8.8,17.7 l 0.8,-0.55 0.1,-0.65 -0.25,-1.35 -0.3,-1 M 5.05,5.55 4.65,5.05 Q 4.35,4.35 4.4,4 4.4,3.75 4.55,3.45 4.95,2.55 5.5,2.25 l 1.1,-0.1 1.15,0.55 0.5,0.5 q 1,1.05 1.1,2 L 9.3,6.3 8.8,8 8.55,8.5 8.15,8.95 7.7,8.75 7.4,7.45 7.5,7.1 7.25,6.3 5.9,5.95 Q 5.45,5.9 5.05,5.55 M 4.4,24.2 3.7,23.55 3.5,23.3 3.05,23 1.7,21.9 1.1,21.35 0.4,20.85 q -0.75,-0.6 -0.6,-1.55 0.1,-0.95 1,-1.35 l 1.7,0.15 0.9,1.1 0.55,0.6 0.95,1.35 0.65,1.1 0.35,1.05 0.4,0.65 q 0.2,0.4 0,0.7 L 5.35,24.75 4.4,24.2 m 13.15,7.45 -0.8,-0.55 q -0.4,-0.4 -0.3,-0.9 0.2,-0.7 1.25,-1 L 20.95,29 24.2,29.15 22.55,27.1 20.7,24.9 17.5,20.45 q -0.25,-0.5 -0.05,-0.7 l 0.85,0.1 5.15,5.15 q 2.35,2.35 3.55,4 0.75,1.1 0.5,1.7 -0.3,0.65 -1.65,0.85 l -5.7,0.35 -2.6,-0.25 M 7.4,25.8 q 1.1,-1.2 2.5,-1.7 1.5,-0.6 3.65,-0.5 l 1.85,0.3 1.25,0.95 0.3,0.8 q 0,0.6 -0.45,0.65 l -0.85,-0.35 q -0.7,-0.4 -2.35,-0.4 l -1.2,0.1 q -0.55,0.1 -1.3,0.5 L 9.65,26.8 q -0.9,0.65 -1.45,1.8 -0.7,1.3 -0.4,2.1 l 0.4,0.7 0.3,0.75 q 0.2,0.7 -0.35,1.15 L 7.7,33.6 7.05,33.85 H 6.2 Q 5.1,33.9 3,34.7 L 2.2,35.05 1.4,35.8 0.6,36.4 q -0.45,0.2 -0.95,0 -0.5,-0.15 -0.7,-0.6 -0.3,-0.6 0.05,-1.3 0.4,-0.65 0.95,-1 L 1,32.8 Q 2.05,32.3 3.35,32.05 L 4.75,31.9 H 5.5 Q 5.1,30.9 5.2,29.9 5.35,28.8 6,27.65 6.6,26.6 7.4,25.8 M 7.75,35.75 7.7,35.3 q 0,-0.5 0.45,-0.65 h 0.7 l 0.65,-0.15 0.8,-0.05 0.65,-0.05 1.8,-0.1 2.25,0.05 1,0.2 0.25,0.65 -0.35,0.6 -2.8,1.45 -1.05,0.7 -0.95,0.25 -0.55,-0.25 -2.8,-2.2 m 14.15,0.75 -0.55,0.55 -1.05,0.25 -1,-0.45 -0.7,-0.9 q -0.2,-0.65 0.2,-1.05 0.25,-0.25 0.75,-0.25 l 0.75,0.05 0.8,0.15 0.55,0.5 Q 22.1,36 21.9,36.5"
         fill="#000000"
         fill-rule="evenodd"
         stroke="none"
         id="path9" />
      <path
         d="M 61.2,26.2 Q 60.85,26.05 60.85,25.65 V 25.3 H 60.7 L 60.1,25.45 59.5,25.2 Q 59.25,24.85 59.55,24.35 59.8,24.1 60.3,23.9 l 0.5,-0.2 -0.05,-0.8 q 0,-0.45 0.25,-0.65 0.35,-0.2 0.55,0.1 l 0.15,0.4 0.15,0.65 0.6,-0.1 0.7,-0.1 q 0.4,0 0.6,0.3 l 0.1,0.6 -0.4,0.5 q -0.35,0.25 -1.25,0.35 h -0.05 v 0.4 L 61.95,26 q -0.3,0.4 -0.75,0.2 m -3.9,-7.85 q 0.35,0.05 0.45,0.65 l 0.1,0.4 1.15,-0.15 0.55,0.3 0.2,0.55 -0.55,0.65 -0.9,0.25 -0.3,0.1 0.05,0.6 -0.4,0.65 q -0.55,0.25 -0.9,-0.4 l -0.1,-0.5 -0.7,0.15 -0.55,0.05 -0.3,-0.3 0.05,-0.5 0.7,-0.6 q 0.1,-0.05 0.8,-0.35 v -0.85 l 0.1,-0.5 q 0.2,-0.4 0.55,-0.2"
         fill="#ffffff"
         fill-rule="evenodd"
         stroke="none"
         id="path10" />
    </g>
    <g
       id="shape2"
       transform="translate(2,2.05)">
      <path
         d="M -0.5,-0.4 V -0.55 H 75.1 V -0.4 40.8 H -0.5 Z"
         fill="none"
         stroke="#000000"
         stroke-linecap="round"
         stroke-linejoin="round"
         stroke-width="3"
         id="path11" />
    </g>
  </defs>
</svg>
