<?xml version="1.0" encoding="UTF-8" standalone="no"?>
<svg
   ffdec:objectType="frame"
   height="60.549999"
   width="67.099998"
   version="1.1"
   id="svg10"
   sodipodi:docname="231.svg"
   xmlns:inkscape="http://www.inkscape.org/namespaces/inkscape"
   xmlns:sodipodi="http://sodipodi.sourceforge.net/DTD/sodipodi-0.dtd"
   xmlns:xlink="http://www.w3.org/1999/xlink"
   xmlns="http://www.w3.org/2000/svg"
   xmlns:svg="http://www.w3.org/2000/svg"
   xmlns:ffdec="https://www.free-decompiler.com/flash">
  <sodipodi:namedview
     id="namedview10"
     pagecolor="#ffffff"
     bordercolor="#000000"
     borderopacity="0.25"
     inkscape:showpageshadow="2"
     inkscape:pageopacity="0.0"
     inkscape:pagecheckerboard="0"
     inkscape:deskcolor="#d1d1d1"
     fit-margin-top="5"
     fit-margin-left="5"
     fit-margin-right="5"
     fit-margin-bottom="5" />
  <g
     transform="translate(1.5,1.5)"
     id="g3">
    <use
       ffdec:characterId="516"
       height="57.549999"
       width="64.099998"
       xlink:href="#shape0"
       id="use1" />
    <use
       ffdec:characterId="736"
       height="57.700001"
       transform="translate(-0.05,-0.1)"
       width="64.550003"
       xlink:href="#shape1"
       id="use2" />
    <use
       ffdec:characterId="518"
       height="60.549999"
       transform="translate(-1.5,-1.5)"
       width="67.099998"
       xlink:href="#shape2"
       id="use3" />
  </g>
  <defs
     id="defs10">
    <g
       id="shape0">
      <path
         d="M 53.6,0 H 64.1 V 57.55 H 53.6 28.25 0 V 0 H 28.25 53.6 V 57.55 0 M 28.25,0 V 57.55 0"
         fill="#ffffff"
         fill-rule="evenodd"
         stroke="none"
         id="path3" />
    </g>
    <g
       id="shape1"
       transform="translate(0.05,0.1)">
      <path
         d="M 55.5,6.4 Q 55.55,5.95 56.05,5.45 L 56.9,4.75 56.75,4.4 56.5,3.55 q 0,-0.55 0.4,-0.7 0.45,-0.1 1,0.45 l 0.4,0.55 0.75,-0.5 q 0.5,-0.4 0.8,-0.35 l 0.4,0.4 V 4.05 L 59.35,4.9 59.1,5.15 59.4,5.7 q 0.55,1.1 0.35,1.6 -0.15,0.5 -0.7,0.65 -0.55,0.1 -0.9,-0.25 -0.4,-0.3 -0.55,-1 V 6.65 L 56.55,7.35 55.85,7.1 Q 55.5,6.8 55.5,6.4 M 45.5,9.15 44.85,9.25 44.7,9.4 44.6,9.5 44.1,9.9 43.8,9.75 43.5,9.4 v -1 h 0.15 q -0.1,-0.25 0.3,-0.35 l 0.2,0.1 V 8 L 45.2,7.7 45.75,7.45 45.4,7.25 h -0.1 l -0.1,-0.1 -0.05,-0.1 h -0.1 l -0.2,-0.1 V 6.9 L 44.65,6.85 44.55,6.8 44.45,6.75 44.35,6.6 44.15,6.55 v -0.1 l -0.2,-0.1 -0.15,0.2 -0.5,0.6 Q 42.75,7.35 42.6,6.85 42.4,6.5 42.8,5.8 L 43.3,5.15 43.65,4.3 Q 44.1,3.6 44.45,3.65 45,3.5 45.15,4.05 l -0.35,0.8 -0.05,0.3 h 0.1 l 0.05,0.1 0.2,-0.2 0.1,0.15 h 0.15 l 0.05,0.1 0.05,0.2 0.15,0.05 V 5.6 h 0.15 l 0.15,0.05 0.15,0.2 0.15,0.05 0.35,0.25 -0.1,-0.7 -0.2,-1 L 46.4,4.3 46.15,4.2 Q 46.1,3.9 46.3,3.75 L 46.25,3.65 46.7,3.3 47.15,3.1 47.8,3.35 q 0.25,0.3 0,0.65 L 47.7,4.2 V 4.25 L 47.9,5.2 48,5.05 47.9,4.95 48.05,4.8 48.5,4.1 l 0.25,-0.55 0.1,-0.1 -0.4,-0.2 v -0.6 l 0.5,-0.1 0.7,0.2 1.05,0.5 0.5,0.5 0.1,0.45 -0.5,0.4 -0.35,-0.15 H 50.4 L 50.1,5.1 49.65,5.85 49.6,5.95 v -0.1 l -0.15,0.2 q 0.5,-0.3 0.8,-0.25 l 0.1,-0.05 0.1,-0.1 q 0.25,-0.5 0.6,-0.4 L 51.35,5.4 51.6,5.7 51.65,6.15 51.6,6.8 51.55,6.7 51.15,7.1 50.95,6.9 V 7.05 Q 50.65,7.3 50,7.4 L 49.3,7.7 49.4,7.75 49.65,7.9 49.8,8 50,8.1 50.1,8.2 50.25,8.25 V 8.3 h 0.1 0.15 l 0.1,0.05 0.25,0.1 V 8.6 l 0.1,0.05 0.1,0.1 0.15,-0.2 q 0.4,-0.65 0.55,-0.6 0.5,-0.25 0.8,0.3 0.15,0.25 -0.25,1 L 51.8,10 51.4,10.85 Q 51.1,11.5 50.6,11.5 50,11.55 50,11 49.85,10.8 50.2,10.25 l 0.15,-0.2 -0.15,-0.1 H 50.15 L 49.85,9.8 49.65,9.75 49.6,9.65 H 49.5 L 49.4,9.6 49.3,9.5 49.15,9.45 49.1,9.35 H 49.05 L 48.9,9.2 48.65,9.1 h -0.1 l 0.1,0.65 0.15,0.95 -0.05,0.1 0.2,0.2 -0.1,0.4 -0.05,0.05 -0.35,0.3 L 47.95,12 47.5,11.95 47.25,11.8 Q 47.1,11.35 47.3,11.05 h 0.1 V 10.8 q -0.2,-0.2 -0.25,-0.65 l -0.1,0.15 -0.35,0.65 -0.3,0.6 0.25,0.35 -0.1,0.5 q -0.15,0.3 -0.5,0.2 l -0.65,-0.2 -1,-0.6 -0.5,-0.4 q -0.2,-0.2 -0.15,-0.55 l 0.5,-0.4 0.45,0.1 0.3,-0.4 0.4,-0.8 0.1,-0.2 0.05,0.05 0.1,-0.15 -0.15,0.1 m 13.25,8.3 q -0.25,0.6 -0.95,0.5 -0.65,-0.1 -0.75,-0.75 -0.05,-0.4 0.2,-0.75 0.2,-0.2 0.35,-0.25 h 0.65 l 0.45,0.3 0.15,0.3 -0.1,0.65 m 5.35,16.45 -0.25,0.3 q -0.55,0.65 -1.45,0.75 -0.9,0.15 -1.6,-0.3 -0.75,-0.4 -1.05,-1.25 -0.3,-0.85 0,-1.65 0.2,-0.75 1,-1.3 0.8,-0.5 1.8,-0.25 0.95,0.2 1.5,0.95 l 0.05,0.1 q 0.45,0.6 0.4,1.45 l -0.4,1.2 M 21.1,0 Q 22.25,0.3 22.55,1.6 22.7,2.3 22.4,3 22.1,3.7 21.45,4.05 L 20.1,4.3 Q 19.3,4.15 18.8,3.65 18.3,3.15 18.2,2.4 18.1,1.65 18.45,1.05 18.8,0.4 19.5,0.1 L 19.75,0 20.85,-0.05 21.1,0 m 14.35,2.7 2.4,-0.15 q 1,0.5 1.3,1.45 0.3,1 -0.15,1.95 l -1.1,1 -1.4,0.25 Q 34.8,6.95 34.4,5.3 34.25,4.6 34.55,3.85 34.85,3.1 35.45,2.7 M 32.65,8.35 32.5,9 Q 32,9.7 31.15,9.45 30.35,9.1 30.5,8.2 30.55,7.85 30.85,7.6 l 0.7,-0.25 q 0.4,-0.05 0.65,0.2 l 0.3,0.35 0.15,0.45 M 21.45,6.3 22.4,7.55 22.9,7.4 23.6,7.45 q 0.4,0.2 0.4,0.5 l -0.3,0.55 -0.55,0.25 -0.1,0.05 0.3,1.15 -0.15,0.7 -0.55,0.35 q -0.5,0.05 -0.8,-0.6 L 21.65,9.5 21.5,9.55 Q 20.6,10.1 20.2,9.9 L 19.9,9.5 V 9 L 20.45,8.5 Q 20.9,8.25 21.3,8.05 L 21,6.8 Q 20.9,6.5 21.1,6.35 L 21.45,6.3 m -10.3,5.4 -0.05,0.65 0.1,0.15 0.05,0.1 q 0.35,0.35 0.25,0.65 l -0.2,0.25 -0.4,0.2 -1,-0.3 0.05,-0.1 Q 9.7,13.3 9.7,12.9 L 9.8,12.75 9.7,12.65 Q 9.6,12.3 9.65,11.6 L 9.6,11 9.3,11.3 9.25,11.4 9.1,11.45 9,11.5 8.95,11.6 8.85,11.75 H 8.8 L 8.7,11.9 8.6,12 8.55,12.05 8.4,12.15 8.3,12.3 H 8.2 l -0.15,0.15 0.15,0.2 Q 8.7,13.1 8.65,13.3 8.7,13.85 8.2,13.9 7.8,14 7.2,13.4 L 6.7,12.8 5.95,12.2 Q 5.4,11.6 5.55,11.25 5.55,10.7 6.1,10.7 L 6.8,11.2 7.05,11.4 7.1,11.25 7.2,11.2 7.1,11 7.25,10.95 7.3,10.8 7.4,10.75 7.6,10.8 7.7,10.65 H 7.75 L 7.8,10.55 7.9,10.4 8.1,10.3 8.2,10.2 8.5,9.9 7.85,9.8 6.8,9.7 6.7,9.55 6.55,9.75 Q 6.2,9.7 6.1,9.5 H 6 L 5.8,9 5.7,8.55 6.1,7.95 Q 6.5,7.8 6.8,8.1 L 6.95,8.25 H 7 L 7.95,8.35 7.85,8.2 7.75,8.25 7.6,8.1 7.05,7.5 6.6,7.1 6.5,7 6.2,7.3 5.6,7.15 Q 5.5,6.8 5.65,6.6 L 6,6 6.8,5.1 7.4,4.75 7.9,4.8 8.15,5.35 7.9,5.7 V 5.75 L 8.4,6.2 9,6.8 9.1,6.9 H 9 L 9.2,7.1 Q 9,6.5 9.1,6.2 V 6.1 L 9,6 Q 8.6,5.65 8.8,5.3 L 9,5.05 9.4,4.9 l 0.45,0.05 0.6,0.2 -0.1,0.05 0.25,0.5 -0.25,0.15 0.15,0.05 0.1,1 0.15,0.75 L 10.8,7.55 11,7.35 11.15,7.25 11.2,7.15 11.3,7.1 11.4,7 11.5,6.9 11.55,6.85 11.6,6.75 V 6.6 l 0.1,-0.05 0.15,-0.2 H 12 L 12.1,6.3 12.2,6.2 12,6 11.6,5.3 Q 11.5,4.8 12.1,4.65 12.4,4.55 13,5.1 l 0.6,0.75 0.7,0.55 q 0.55,0.5 0.4,0.95 -0.1,0.6 -0.6,0.45 -0.2,0.1 -0.7,-0.35 L 13.25,7.25 13.1,7.35 V 7.4 L 13.05,7.5 12.9,7.65 12.8,7.8 12.7,7.85 12.65,7.95 12.6,8 l -0.1,0.1 -0.1,0.1 -0.1,0.05 -0.05,0.1 -0.15,0.1 -0.2,0.2 -0.05,0.1 0.7,0.05 0.9,0.1 L 13.6,9 13.85,8.85 14.2,9.1 V 9.05 l 0.2,0.45 0.1,0.55 -0.15,0.4 -0.2,0.2 -0.75,-0.2 0.05,-0.1 -0.25,-0.05 -0.65,0.05 0.1,0.15 0.55,0.5 0.5,0.45 0.4,-0.15 0.45,0.2 q 0.25,0.25 0.05,0.55 L 14.25,12.6 13.9,13 13.4,13.45 12.9,13.8 h -0.55 l -0.25,-0.55 0.2,-0.4 -0.35,-0.45 -0.65,-0.55 -0.15,-0.15 0.05,-0.05 -0.1,-0.1 0.05,0.15 m -0.55,6 q -0.1,0.8 -0.9,0.9 L 9.05,18.4 8.65,17.8 Q 8.55,16.95 9.3,16.7 l 0.25,-0.05 0.1,-0.05 q 0.6,0.1 0.85,0.6 l 0.1,0.5 m -5.45,2.6 0.3,0.35 0.6,-0.3 0.7,-0.15 0.4,0.3 v 0.55 l -0.4,0.4 -0.35,0.25 0.45,0.9 q 0.2,0.55 -0.1,0.95 Q 6.4,24.1 5.7,23.85 L 5.1,23.1 4.95,22.8 4.6,23 Q 4.3,23.25 3.95,23.3 3.5,23.4 3.1,22.9 2.85,22.45 3.1,21.95 L 3.9,21.4 4.25,21.25 4.1,20.8 4.05,20.15 Q 4.15,19.7 4.5,19.7 l 0.65,0.6 M 4.65,39 4.15,39.45 3.7,39.5 3.15,39.15 2.95,38.85 q -0.15,-0.45 0.2,-0.9 0.3,-0.4 0.6,-0.35 l 0.1,-0.05 q 0.5,0.1 0.75,0.5 0.3,0.45 0.05,0.95"
         fill="#ffffff"
         fill-rule="evenodd"
         stroke="none"
         id="path4" />
      <path
         d="m 45.5,9.15 -0.1,0.2 -0.4,0.8 -0.3,0.4 -0.45,-0.1 -0.5,0.4 Q 43.7,11.2 43.9,11.4 l 0.5,0.4 1,0.6 0.65,0.2 q 0.35,0.1 0.5,-0.2 l 0.1,-0.5 -0.25,-0.35 0.3,-0.6 0.35,-0.65 0.1,-0.15 q 0.05,0.45 0.25,0.65 v 0.25 h -0.1 q -0.2,0.3 -0.05,0.75 l 0.25,0.15 0.45,0.05 0.5,-0.25 0.35,-0.3 0.05,-0.05 0.1,-0.4 -0.2,-0.2 0.05,-0.1 -0.15,-0.95 -0.1,-0.65 h 0.1 l 0.25,0.1 0.15,0.15 h 0.05 l 0.05,0.1 0.15,0.05 0.1,0.1 0.1,0.05 h 0.1 l 0.05,0.1 0.2,0.05 0.3,0.15 h 0.05 l 0.15,0.1 -0.15,0.2 Q 49.85,10.8 50,11 q 0,0.55 0.6,0.5 0.5,0 0.8,-0.65 L 51.8,10 52.3,9.25 Q 52.7,8.5 52.55,8.25 52.25,7.7 51.75,7.95 51.6,7.9 51.2,8.55 l -0.15,0.2 -0.1,-0.1 -0.1,-0.05 V 8.45 L 50.6,8.35 50.5,8.3 h -0.15 -0.1 V 8.25 L 50.1,8.2 50,8.1 49.8,8 49.65,7.9 49.4,7.75 49.3,7.7 50,7.4 Q 50.65,7.3 50.95,7.05 V 6.9 l 0.2,0.2 0.4,-0.4 L 51.6,6.8 51.65,6.15 51.6,5.7 51.35,5.4 51.05,5.25 q -0.35,-0.1 -0.6,0.4 l -0.1,0.1 -0.1,0.05 q -0.3,-0.05 -0.8,0.25 l 0.15,-0.2 v 0.1 L 49.65,5.85 50.1,5.1 50.4,4.45 h 0.05 l 0.35,0.15 0.5,-0.4 -0.1,-0.45 -0.5,-0.5 -1.05,-0.5 -0.7,-0.2 -0.5,0.1 v 0.6 l 0.4,0.2 -0.1,0.1 L 48.5,4.1 48.05,4.8 47.9,4.95 48,5.05 47.9,5.2 47.7,4.25 V 4.2 L 47.8,4 q 0.25,-0.35 0,-0.65 L 47.15,3.1 46.7,3.3 46.25,3.65 46.3,3.75 Q 46.1,3.9 46.15,4.2 l 0.25,0.1 -0.15,0.15 0.2,1 0.1,0.7 L 46.2,5.9 46.05,5.85 45.9,5.65 45.75,5.6 H 45.6 V 5.55 L 45.45,5.5 45.4,5.3 45.35,5.2 H 45.2 l -0.1,-0.15 -0.2,0.2 -0.05,-0.1 h -0.1 l 0.05,-0.3 0.35,-0.8 Q 45,3.5 44.45,3.65 44.1,3.6 43.65,4.3 L 43.3,5.15 42.8,5.8 q -0.4,0.7 -0.2,1.05 0.15,0.5 0.7,0.3 l 0.5,-0.6 0.15,-0.2 0.2,0.1 v 0.1 l 0.2,0.05 0.1,0.15 0.1,0.05 0.1,0.05 0.2,0.05 v 0.05 l 0.2,0.1 h 0.1 l 0.05,0.1 0.1,0.1 h 0.1 L 45.75,7.45 45.2,7.7 44.15,8 v 0.15 l -0.2,-0.1 q -0.4,0.1 -0.3,0.35 H 43.5 v 1 l 0.3,0.35 0.3,0.15 0.5,-0.4 0.1,-0.1 0.15,-0.15 0.65,-0.1 0.15,-0.1 -0.1,0.15 -0.05,-0.05 m 10,-2.75 q 0,0.4 0.35,0.7 l 0.7,0.25 1.05,-0.7 V 6.7 q 0.15,0.7 0.55,1 0.35,0.35 0.9,0.25 Q 59.6,7.8 59.75,7.3 59.95,6.8 59.4,5.7 L 59.1,5.15 59.35,4.9 60.25,4.05 V 3.4 L 59.85,3 q -0.3,-0.05 -0.8,0.35 L 58.3,3.85 57.9,3.3 Q 57.35,2.75 56.9,2.85 56.5,3 56.5,3.55 l 0.25,0.85 0.15,0.35 -0.85,0.7 q -0.5,0.5 -0.55,0.95 m 8.6,24.85 -0.05,-0.1 q -0.55,-0.75 -1.5,-0.95 -1,-0.25 -1.8,0.25 -0.8,0.55 -1,1.3 -0.3,0.8 0,1.65 0.3,0.85 1.05,1.25 0.7,0.45 1.6,0.3 0.9,-0.1 1.45,-0.75 L 64.1,33.9 V 57.55 H 0 V 0 H 19.75 L 19.5,0.1 q -0.7,0.3 -1.05,0.95 -0.35,0.6 -0.25,1.35 0.1,0.75 0.6,1.25 0.5,0.5 1.3,0.65 L 21.45,4.05 Q 22.1,3.7 22.4,3 22.7,2.3 22.55,1.6 22.25,0.3 21.1,0 h 43 V 31.25 M 58.75,17.45 58.85,16.8 58.7,16.5 58.25,16.2 H 57.6 q -0.15,0.05 -0.35,0.25 -0.25,0.35 -0.2,0.75 0.1,0.65 0.75,0.75 0.7,0.1 0.95,-0.5 m -47.6,-5.75 0.15,0.15 0.65,0.55 0.35,0.45 -0.2,0.4 0.25,0.55 h 0.55 l 0.5,-0.35 0.5,-0.45 0.35,-0.4 0.35,-0.55 q 0.2,-0.3 -0.05,-0.55 L 14.1,11.3 13.7,11.45 13.2,11 l -0.55,-0.5 -0.1,-0.15 0.65,-0.05 0.25,0.05 -0.05,0.1 0.75,0.2 0.2,-0.2 0.15,-0.4 L 14.4,9.5 14.2,9.05 V 9.1 L 13.85,8.85 13.6,9 13.45,8.9 12.55,8.8 11.85,8.75 11.9,8.65 12.1,8.45 12.25,8.35 12.3,8.25 12.4,8.2 12.5,8.1 12.6,8 12.65,7.95 12.7,7.85 12.8,7.8 12.9,7.65 13.05,7.5 13.1,7.4 V 7.35 l 0.15,-0.1 0.15,0.2 Q 13.9,7.9 14.1,7.8 14.6,7.95 14.7,7.35 14.85,6.9 14.3,6.4 L 13.6,5.85 13,5.1 Q 12.4,4.55 12.1,4.65 11.5,4.8 11.6,5.3 L 12,6 12.2,6.2 12.1,6.3 12,6.35 H 11.85 L 11.7,6.55 11.6,6.6 V 6.75 L 11.55,6.85 11.5,6.9 11.4,7 11.3,7.1 11.2,7.15 11.15,7.25 11,7.35 10.8,7.55 10.75,7.65 10.6,6.9 10.5,5.9 10.35,5.85 10.6,5.7 10.35,5.2 10.45,5.15 9.85,4.95 9.4,4.9 9,5.05 8.8,5.3 Q 8.6,5.65 9,6 L 9.1,6.1 V 6.2 Q 9,6.5 9.2,7.1 L 9,6.9 H 9.1 L 9,6.8 8.4,6.2 7.9,5.75 V 5.7 L 8.15,5.35 7.9,4.8 7.4,4.75 6.8,5.1 6,6 5.65,6.6 Q 5.5,6.8 5.6,7.15 L 6.2,7.3 6.5,7 6.6,7.1 7.05,7.5 7.6,8.1 7.75,8.25 7.85,8.2 7.95,8.35 7,8.25 H 6.95 L 6.8,8.1 Q 6.5,7.8 6.1,7.95 L 5.7,8.55 5.8,9 6,9.5 H 6.1 Q 6.2,9.7 6.55,9.75 L 6.7,9.55 6.8,9.7 7.85,9.8 8.5,9.9 8.2,10.2 8.1,10.3 7.9,10.4 7.8,10.55 7.75,10.65 H 7.7 L 7.6,10.8 7.4,10.75 7.3,10.8 7.25,10.95 7.1,11 7.2,11.2 7.1,11.25 7.05,11.4 6.8,11.2 6.1,10.7 q -0.55,0 -0.55,0.55 -0.15,0.35 0.4,0.95 l 0.75,0.6 0.5,0.6 Q 7.8,14 8.2,13.9 8.7,13.85 8.65,13.3 8.7,13.1 8.2,12.65 L 8.05,12.45 8.2,12.3 H 8.3 L 8.4,12.15 8.55,12.05 8.6,12 8.7,11.9 8.8,11.75 H 8.85 L 8.95,11.6 9,11.5 9.1,11.45 9.25,11.4 9.3,11.3 9.6,11 9.65,11.6 Q 9.6,12.3 9.7,12.65 l 0.1,0.1 -0.1,0.15 q 0,0.4 0.25,0.4 l -0.05,0.1 1,0.3 0.4,-0.2 0.2,-0.25 q 0.1,-0.3 -0.25,-0.65 l -0.05,-0.1 -0.1,-0.15 0.05,-0.65 -0.05,-0.15 0.1,0.1 -0.05,0.05 M 21.45,6.3 21.1,6.35 Q 20.9,6.5 21,6.8 l 0.3,1.25 Q 20.9,8.25 20.45,8.5 L 19.9,9 v 0.5 l 0.3,0.4 q 0.4,0.2 1.3,-0.35 l 0.15,-0.05 0.2,0.9 q 0.3,0.65 0.8,0.6 L 23.2,10.65 23.35,9.95 23.05,8.8 23.15,8.75 23.7,8.5 24,7.95 q 0,-0.3 -0.4,-0.5 L 22.9,7.4 22.4,7.55 21.45,6.3 M 32.65,8.35 32.5,7.9 32.2,7.55 Q 31.95,7.3 31.55,7.35 L 30.85,7.6 Q 30.55,7.85 30.5,8.2 30.35,9.1 31.15,9.45 32,9.7 32.5,9 l 0.15,-0.65 m 2.8,-5.65 q -0.6,0.4 -0.9,1.15 -0.3,0.75 -0.15,1.45 0.4,1.65 2.1,1.9 l 1.4,-0.25 1.1,-1 Q 39.45,5 39.15,4 38.85,3.05 37.85,2.55 L 35.45,2.7 M 4.65,39 Q 4.9,38.5 4.6,38.05 4.35,37.65 3.85,37.55 l -0.1,0.05 q -0.3,-0.05 -0.6,0.35 -0.35,0.45 -0.2,0.9 l 0.2,0.3 L 3.7,39.5 4.15,39.45 4.65,39 M 5.15,20.3 4.5,19.7 q -0.35,0 -0.45,0.45 L 4.1,20.8 4.25,21.25 3.9,21.4 3.1,21.95 q -0.25,0.5 0,0.95 0.4,0.5 0.85,0.4 Q 4.3,23.25 4.6,23 l 0.35,-0.2 0.15,0.3 0.6,0.75 q 0.7,0.25 1.05,-0.3 0.3,-0.4 0.1,-0.95 L 6.4,21.7 6.75,21.45 7.15,21.05 V 20.5 l -0.4,-0.3 -0.7,0.15 -0.6,0.3 -0.3,-0.35 M 10.6,17.7 10.5,17.2 Q 10.25,16.7 9.65,16.6 L 9.55,16.65 9.3,16.7 q -0.75,0.25 -0.65,1.1 l 0.4,0.6 0.65,0.2 q 0.8,-0.1 0.9,-0.9"
         fill="#999999"
         fill-rule="evenodd"
         stroke="none"
         id="path5" />
      <path
         d="M 64.1,31.25 V 0 h -43 M 19.75,0 H 0 V 57.55 H 64.1 V 33.9"
         ffdec:has-small-stroke="true"
         ffdec:original-stroke-width="0.1"
         fill="none"
         stroke="#999999"
         stroke-linecap="round"
         stroke-linejoin="round"
         stroke-width="1"
         id="path6" />
      <path
         d="m 47.45,19.8 3.15,0.25 0.1,0.05 q 0.2,-1.65 0.75,-3.2 L 51.4,16.85 50.7,16 q -0.4,-1.25 0.65,-2.05 0.5,-0.35 1.1,-0.35 L 53.5,14 q 0.55,0.4 0.65,1.1 v 0.7 l -0.6,0.95 -0.85,0.4 0.2,1 0.15,1.05 0.05,2.2 0.25,0.2 q 1.9,1.7 2.85,4.8 1.6,5.15 0,10.1 -1.65,5.1 -6.05,8.1 -4.45,2.95 -11.7,3.05 L 32.4,47.25 26.3,46.5 14.15,46.9 11.5,47.6 8.85,47.85 Q 6.8,47.65 6.1,46.25 5.5,45.1 6.2,43.7 6.6,42.8 7.85,41.65 l 1.6,-1.3 -0.5,-0.4 Q 7.55,38.75 6.9,37 5.95,34.3 6.9,29.85 7.95,24.8 10.35,20.9 13.05,16.5 17,14.3 21.75,11.55 28.3,11.9 l 4.5,0.7 q 4.75,1.4 8.25,5.7 1.65,2 2.25,3.85 L 44.2,21.3 Q 43.85,19.55 43.85,18.75 42.7,18.55 42.2,17.4 l -0.1,-1 q 0.15,-1.3 1.35,-1.7 1.2,-0.5 2.15,0.35 0.95,0.8 0.7,2.1 l -0.4,0.8 -0.5,0.5 0.45,1.5 0.1,0.3 1.5,-0.45 m 6,12.25 Q 53.7,29 52.35,26.1 L 51.2,24.35 q -0.8,-0.85 -2,-1.1 -1.25,-0.25 -2.25,0.35 -1.15,0.65 -1.6,2.2 -0.3,0.9 -0.4,2.75 l -0.2,4.2 q -0.25,2.35 -0.95,4 -0.85,2.1 -2.9,4.15 l -4,3.3 q 5.45,0.25 10.4,-2.05 l 2.05,-1.2 1.3,-1.45 1.65,-2.45 0.8,-2.55 0.35,-2.45 M 19.85,26.9 q 0.55,0.5 1.75,-0.25 1.05,-0.85 1.65,-0.65 0.6,0.25 0.7,0.95 l -0.25,1.2 q -0.65,1.35 -1.95,2.15 -1.3,0.8 -2.8,0.8 -1.5,0.1 -2.2,-0.75 -0.8,-1 -0.2,-2.75 0.6,-1.8 2.05,-3.3 1.4,-1.35 3.3,-2.15 3.35,-1.3 6.1,0 2.45,1.2 3.15,3.8 0.75,2.5 -0.45,4.95 l -1.3,1.95 Q 25.8,37 20.6,38 l -0.5,0.35 q -0.05,0.35 0.55,0.45 2.55,0.55 5.5,-0.65 2.35,-1.05 4.6,-3.2 L 32.4,33.1 q 2.35,-3.3 1.65,-7.3 -0.4,-1.95 -1.5,-3.55 -1.15,-1.6 -2.85,-2.55 -2,-1.1 -4.5,-1.15 -2.4,-0.05 -4.7,0.85 -2.75,1.15 -4.65,3.3 -2,2.3 -2.4,5 -0.35,2.35 0.65,3.85 1.4,2 4.7,2 2.95,-0.1 4.95,-1.65 2.3,-1.8 2.55,-4.55 0.1,-1.3 -0.5,-2.3 -0.95,-1.45 -2.8,-1.35 -1.7,0.1 -2.85,1.4 l -0.5,0.9 q -0.15,0.6 0.2,0.9 m 2.9,15.9 Q 21.9,41.95 20.9,41.4 L 19.7,40.95 17.65,40.8 16.6,40.85 15.65,41.1 q -3.4,1.15 -5.9,3.65 l 1.15,-0.1 3.55,-0.9 3.15,-0.5 2.4,-0.35 1.6,-0.1 h 1.15"
         fill="#000000"
         fill-rule="evenodd"
         stroke="none"
         id="path7" />
      <path
         d="M 19.85,26.9 Q 19.5,26.6 19.65,26 l 0.5,-0.9 q 1.15,-1.3 2.85,-1.4 1.85,-0.1 2.8,1.35 0.6,1 0.5,2.3 -0.25,2.75 -2.55,4.55 -2,1.55 -4.95,1.65 -3.3,0 -4.7,-2 -1,-1.5 -0.65,-3.85 0.4,-2.7 2.4,-5 1.9,-2.15 4.65,-3.3 2.3,-0.9 4.7,-0.85 2.5,0.05 4.5,1.15 1.7,0.95 2.85,2.55 1.1,1.6 1.5,3.55 0.7,4 -1.65,7.3 l -1.65,1.85 q -2.25,2.15 -4.6,3.2 -2.95,1.2 -5.5,0.65 -0.6,-0.1 -0.55,-0.45 L 20.6,38 q 5.2,-1 8.8,-5.15 l 1.3,-1.95 q 1.2,-2.45 0.45,-4.95 -0.7,-2.6 -3.15,-3.8 -2.75,-1.3 -6.1,0 -1.9,0.8 -3.3,2.15 -1.45,1.5 -2.05,3.3 -0.6,1.75 0.2,2.75 0.7,0.85 2.2,0.75 1.5,0 2.8,-0.8 1.3,-0.8 1.95,-2.15 l 0.25,-1.2 q -0.1,-0.7 -0.7,-0.95 -0.6,-0.2 -1.65,0.65 -1.2,0.75 -1.75,0.25"
         fill="#999999"
         fill-rule="evenodd"
         stroke="none"
         id="path8" />
      <path
         d="m 53.45,32.05 -0.35,2.45 -0.8,2.55 -1.65,2.45 -1.3,1.45 -2.05,1.2 q -4.95,2.3 -10.4,2.05 l 4,-3.3 q 2.05,-2.05 2.9,-4.15 0.7,-1.65 0.95,-4 l 0.2,-4.2 q 0.1,-1.85 0.4,-2.75 0.45,-1.55 1.6,-2.2 1,-0.6 2.25,-0.35 1.2,0.25 2,1.1 l 1.15,1.75 q 1.35,2.9 1.1,5.95 M 22.75,42.8 H 21.6 l -1.6,0.1 -2.4,0.35 -3.15,0.5 -3.55,0.9 -1.15,0.1 q 2.5,-2.5 5.9,-3.65 l 0.95,-0.25 1.05,-0.05 2.05,0.15 1.2,0.45 q 1,0.55 1.85,1.4"
         fill="#ffffff"
         fill-rule="evenodd"
         stroke="none"
         id="path9" />
    </g>
    <g
       id="shape2"
       transform="translate(1.5,1.5)">
      <path
         d="M 0,23.8 V 0 H 64.1 V 23.8 57.55 H 0 Z"
         fill="none"
         stroke="#000000"
         stroke-linecap="round"
         stroke-linejoin="round"
         stroke-width="3"
         id="path10" />
    </g>
  </defs>
</svg>
