<?xml version="1.0" encoding="UTF-8" standalone="no"?>
<svg
   ffdec:objectType="frame"
   height="44.349998"
   width="78.599998"
   version="1.1"
   id="svg11"
   sodipodi:docname="397.svg"
   xmlns:inkscape="http://www.inkscape.org/namespaces/inkscape"
   xmlns:sodipodi="http://sodipodi.sourceforge.net/DTD/sodipodi-0.dtd"
   xmlns:xlink="http://www.w3.org/1999/xlink"
   xmlns="http://www.w3.org/2000/svg"
   xmlns:svg="http://www.w3.org/2000/svg"
   xmlns:ffdec="https://www.free-decompiler.com/flash">
  <sodipodi:namedview
     id="namedview11"
     pagecolor="#ffffff"
     bordercolor="#000000"
     borderopacity="0.25"
     inkscape:showpageshadow="2"
     inkscape:pageopacity="0.0"
     inkscape:pagecheckerboard="0"
     inkscape:deskcolor="#d1d1d1"
     fit-margin-top="5"
     fit-margin-left="5"
     fit-margin-right="5"
     fit-margin-bottom="5" />
  <g
     transform="translate(2,2.05)"
     id="g3">
    <use
       ffdec:characterId="1"
       height="42.700001"
       transform="translate(-1.75,-2)"
       width="76.449997"
       xlink:href="#shape0"
       id="use1" />
    <use
       ffdec:characterId="380"
       height="41.599998"
       transform="translate(-0.75,-0.65)"
       width="76.199997"
       xlink:href="#shape1"
       id="use2" />
    <use
       ffdec:characterId="3"
       height="44.349998"
       transform="translate(-2,-2.05)"
       width="78.599998"
       xlink:href="#shape2"
       id="use3" />
  </g>
  <defs
     id="defs11">
    <g
       id="shape0"
       transform="translate(1.75,2)">
      <path
         d="M 2.8,0 V -0.4 H 5.4 V 0 H 9.7 V 19.45 0 H 20.55 L 19.3,19.45 H 9.7 0.25 V 0 H 2.8"
         fill="#ffffff"
         fill-rule="evenodd"
         stroke="none"
         id="path3" />
      <path
         d="M 0.25,19.45 H 9.7 19.3 L 18.7,28.6 16,28.5 10.95,27.95 9.7,27.8 Q 7.45,27.6 5.85,27.75 4.05,27.9 1.5,28.6 0.75,28.8 0.25,29.15 v -9.7 m 9.45,0 v 8.35 -8.35"
         fill="#121212"
         fill-rule="evenodd"
         stroke="none"
         id="path4" />
      <path
         d="m 9.7,27.8 1.25,0.15 5.05,0.55 2.7,0.1 h 1.05 l 3.75,0.15 q 2.45,0.3 3.6,1.25 0.6,0.5 0.6,1.1 0,0.65 -0.8,1 l -1.3,0.2 -7.15,0.15 -5.6,-0.3 L 9.7,31.75 7.95,31.6 3.1,31.95 0.95,32.3 0.25,32.1 -0.35,31.55 -0.5,31.3 V 29.9 L 0.25,29.15 Q 0.75,28.8 1.5,28.6 4.05,27.9 5.85,27.75 7.45,27.6 9.7,27.8 v 3.95 -3.95"
         fill="#999999"
         fill-rule="evenodd"
         stroke="none"
         id="path5" />
      <path
         d="M 2.8,0 H 0.25 M 9.7,0 H 5.4 m 16.15,0 h 10.7 M 20.55,0 H 9.7"
         fill="none"
         stroke="#666666"
         stroke-linecap="round"
         stroke-linejoin="round"
         stroke-width="4"
         id="path6" />
      <path
         d="m 9.7,-0.4 h 65 V 40.5 H 47.05 L 45.5,40.7 27,40.65 25.95,40.5 H 9.7 -0.5 V -0.4 H 9.7 V 40.5 -0.4"
         fill="#ffffff"
         fill-rule="evenodd"
         stroke="none"
         id="path7" />
    </g>
    <g
       id="shape1"
       transform="translate(0.75,0.65)">
      <path
         d="m 75.45,23.6 v 1.55 l -3.65,-2 Q 70.2,22.2 69.7,22.1 l -1.8,0.15 q -3.15,0.3 -5.25,-1.5 L 61.1,19.1 57.8,15.55 55.95,14.15 Q 54.35,13.4 52.8,14.5 L 52,15.15 51.1,15.6 Q 50.5,15.65 50.15,15.2 49.7,14.75 49.75,14.25 49.9,13.8 50.6,12.9 l 1.15,-1.2 V 11.3 L 51.8,10.3 51.2,9.65 49.5,8.5 q -0.85,-0.4 -0.85,-0.95 0.15,-0.6 0.7,-0.6 l 1,0.2 q 1,0.5 2.15,1.35 1.4,1.05 1.65,1.9 L 54.2,10.85 55,11 q 2.15,0.55 4.55,2.8 l 2.8,3.15 q 0.5,-0.35 1.35,-0.4 1.45,-0.2 2.45,0.4 l 1.25,0.7 0.9,0.5 q 0.25,0.15 0.3,0.45 l -0.15,0.45 -0.85,0.05 -0.85,-0.55 -1.2,-0.1 -1.55,0.2 1.1,0.65 1.5,0.45 1.55,0.3 q 1,0.2 3.5,1.5 l 3.8,2.05 m -76.2,1.5 v -1.55 l 3.65,-2 q 2.5,-1.3 3.55,-1.5 l 1.5,-0.3 1.55,-0.45 1.1,-0.65 -1.55,-0.2 -1.2,0.1 L 7,19.1 6.1,19.05 Q 5.9,18.85 6,18.6 l 0.3,-0.45 0.9,-0.5 1.2,-0.7 q 1.05,-0.6 2.5,-0.4 0.85,0.05 1.35,0.4 l 2.8,-3.15 Q 17.4,11.55 19.6,11 l 0.75,-0.15 0.1,-0.45 Q 20.7,9.55 22.1,8.5 23.25,7.65 24.25,7.15 l 0.95,-0.2 q 0.6,0 0.7,0.6 0,0.55 -0.8,0.95 -0.95,0.5 -1.75,1.15 l -0.55,0.65 0.05,1 v 0.4 l 1.15,1.2 0.85,1.35 q 0.05,0.5 -0.4,0.95 -0.4,0.45 -0.95,0.4 -0.4,-0.05 -0.9,-0.45 L 21.75,14.5 q -1.5,-1.1 -3.1,-0.35 -0.85,0.35 -1.85,1.4 l -3.35,3.55 -1.5,1.65 Q 9.8,22.55 6.7,22.25 L 4.9,22.1 q -0.5,0.1 -2.1,1.05 l -3.55,1.95 m 37.85,5.2 q -0.75,-0.15 -1.45,-0.7 l -1.4,-1.4 -1.7,-2 -5.35,-6.25 q -1.1,-1.6 -1.35,-3.6 -0.3,-1.95 0.35,-3.8 0.55,-1.75 1.9,-3.35 1.25,-1.6 2.75,-2.1 l 3,-0.2 q 1.65,0.25 2.4,0.85 l 1.05,0.9 1,-0.9 q 0.8,-0.6 2.45,-0.85 l 3,0.2 q 1.45,0.5 2.75,2.1 1.35,1.6 1.9,3.35 0.65,1.85 0.35,3.8 -0.3,2 -1.35,3.6 l -5.4,6.25 -1.65,2 -1.45,1.45 q -0.85,0.6 -1.4,0.65 l -0.2,0.05 -0.2,-0.05 m 11.5,3.9 -0.25,-0.95 -0.75,-0.9 -0.9,-1.3 -0.85,-1.15 -0.55,-0.5 -1,-1.4 q -0.5,-0.95 0.3,-1.75 0.6,-0.7 1.65,-0.35 l 0.45,0.3 q 0.3,0.05 0.6,0.25 l 0.15,0.15 0.7,0.5 q 0.45,0.1 1.05,0.55 1.7,1.45 2.6,2.85 l 1.15,0.95 1.6,2.6 0.45,1.05 0.2,2.15 -0.15,0.95 -0.2,0.6 -0.5,0.25 q -0.4,0 -0.5,-0.4 v -0.7 -1.85 q -0.2,-1.1 -0.7,-1.65 l -0.9,-0.9 -2.1,-1.65 0.2,1.25 -0.15,0.9 0.15,1.3 q 0.05,0.9 -0.3,2.05 L 49.75,37.95 49.7,38 q -0.1,0.3 -0.4,0.2 L 49.05,37.95 48.9,37.55 V 37.5 l -0.3,-3.3 m 3,-6.55 -0.7,-1.05 -0.15,-0.4 q -0.15,-0.65 -1,-1.3 l -0.7,-0.4 -1.1,-0.4 Q 47.2,23.6 47.3,22.9 47.4,22.3 47.95,22 l 1.15,-0.2 0.5,0.05 q 0.65,0.25 1.3,0.9 l 1.15,0.05 q 0.95,0.15 1.55,0.45 0.8,0.5 1,1.15 v 0.65 q -0.1,0.5 -0.65,0.5 l -0.6,-0.2 -1,-0.45 0.8,1.9 0.3,0.55 q 0.25,0.3 0.95,0.5 l 0.4,0.2 0.2,0.45 -0.5,0.4 -0.6,0.05 -0.55,-0.2 -0.9,-0.5 -0.85,-0.6 m -28.6,0 -0.85,0.6 -0.9,0.5 -0.55,0.2 -0.6,-0.05 -0.5,-0.4 q -0.05,-0.2 0.2,-0.45 l 0.35,-0.2 q 0.7,-0.2 1,-0.5 l 0.3,-0.55 0.75,-1.9 -0.95,0.45 -0.65,0.2 q -0.5,0 -0.6,-0.5 V 24.4 q 0.15,-0.65 1,-1.15 l 1.55,-0.45 1.15,-0.05 1.25,-0.9 0.5,-0.05 1.15,0.2 q 0.6,0.3 0.65,0.9 0.15,0.7 -0.65,1.2 l -1.05,0.4 -0.7,0.4 Q 24,25.55 23.8,26.2 l -0.1,0.4 -0.7,1.05 m 3,6.55 -0.35,3.3 v 0.05 l -0.1,0.4 -0.25,0.25 Q 24.95,38.3 24.9,38 L 24.85,37.95 24.5,37.4 q -0.3,-1.15 -0.25,-2.05 l 0.15,-1.3 -0.15,-0.9 q -0.05,-0.5 0.2,-1.25 l -2.1,1.65 -0.9,0.9 q -0.5,0.55 -0.7,1.65 v 1.85 0.7 l -0.5,0.4 -0.55,-0.25 -0.3,-1.55 0.2,-2.15 q 0.05,-0.4 0.45,-1.05 l 1.6,-2.6 1.15,-0.95 q 0.9,-1.4 2.6,-2.85 0.6,-0.45 1.05,-0.55 l 0.7,-0.5 0.1,-0.15 q 0.35,-0.2 0.65,-0.25 0.25,-0.2 0.45,-0.3 1,-0.35 1.65,0.35 0.8,0.8 0.25,1.75 l -0.95,1.4 -0.55,0.5 -0.85,1.15 -0.9,1.3 q -0.65,0.6 -0.75,0.9 L 26,34.2"
         fill="#000000"
         fill-rule="evenodd"
         stroke="none"
         id="path8" />
      <path
         d="m -0.75,23.55 v -5 L -0.6,18.6 0.15,18.45 9,14.9 14.15,11.4 q 4.05,-2.85 6.7,-5.25 2.75,-2.5 3.05,-2.7 l 1.25,-0.9 -2.15,-2.2 -0.6,-1 h 29.15 l -0.6,1 -2.15,2.2 1.25,0.9 3,2.7 q 2.7,2.4 6.75,5.25 l 5.15,3.5 8.8,3.55 0.8,0.15 0.8,-0.75 0.1,-0.1 v 5.85 l -3.8,-2.05 q -2.5,-1.3 -3.5,-1.5 L 66.6,19.75 65.1,19.3 64,18.65 l 1.55,-0.2 1.2,0.1 0.85,0.55 0.85,-0.05 0.15,-0.45 q -0.05,-0.3 -0.3,-0.45 l -0.9,-0.5 -1.25,-0.7 q -1,-0.6 -2.45,-0.4 -0.85,0.05 -1.35,0.4 L 59.55,13.8 Q 57.15,11.55 55,11 L 54.2,10.85 54.15,10.4 Q 53.9,9.55 52.5,8.5 51.35,7.65 50.35,7.15 l -1,-0.2 q -0.55,0 -0.7,0.6 0,0.55 0.85,0.95 l 1.7,1.15 0.6,0.65 -0.05,1 v 0.4 l -1.15,1.2 q -0.7,0.9 -0.85,1.35 -0.05,0.5 0.4,0.95 0.35,0.45 0.95,0.4 L 52,15.15 52.8,14.5 q 1.55,-1.1 3.15,-0.35 l 1.85,1.4 3.3,3.55 1.55,1.65 q 2.1,1.8 5.25,1.5 l 1.8,-0.15 q 0.5,0.1 2.1,1.05 l 3.65,2 V 28.9 Q 62.1,23.85 53.4,17.05 l 2.15,7.85 q 1.55,6.05 2,9.1 l 0.5,6.95 h -42.1 q 0.25,-5.4 0.45,-6.95 0.45,-3.05 2,-9.1 l 2.15,-7.85 Q 12.1,23.65 -0.75,28.6 V 25.1 L 2.8,23.15 Q 4.4,22.2 4.9,22.1 l 1.8,0.15 q 3.1,0.3 5.25,-1.5 l 1.5,-1.65 3.35,-3.55 q 1,-1.05 1.85,-1.4 1.6,-0.75 3.1,0.35 l 0.85,0.65 q 0.5,0.4 0.9,0.45 0.55,0.05 0.95,-0.4 0.45,-0.45 0.4,-0.95 L 24,12.9 22.85,11.7 v -0.4 l -0.05,-1 0.55,-0.65 Q 24.15,9 25.1,8.5 25.9,8.1 25.9,7.55 25.8,6.95 25.2,6.95 l -0.95,0.2 q -1,0.5 -2.15,1.35 -1.4,1.05 -1.65,1.9 L 20.35,10.85 19.6,11 q -2.2,0.55 -4.55,2.8 l -2.8,3.15 q -0.5,-0.35 -1.35,-0.4 -1.45,-0.2 -2.5,0.4 L 7.2,17.65 6.3,18.15 6,18.6 q -0.1,0.25 0.1,0.45 l 0.9,0.05 0.85,-0.55 1.2,-0.1 1.55,0.2 -1.1,0.65 -1.55,0.45 -1.5,0.3 q -1.05,0.2 -3.55,1.5 l -3.65,2 m 37.85,6.75 0.2,0.05 0.2,-0.05 q 0.55,-0.05 1.4,-0.65 l 1.45,-1.45 1.65,-2 5.4,-6.25 q 1.05,-1.6 1.35,-3.6 0.3,-1.95 -0.35,-3.8 Q 47.85,10.8 46.5,9.2 45.2,7.6 43.75,7.1 l -3,-0.2 Q 39.1,7.15 38.3,7.75 l -1,0.9 -1.05,-0.9 Q 35.5,7.15 33.85,6.9 l -3,0.2 q -1.5,0.5 -2.75,2.1 -1.35,1.6 -1.9,3.35 -0.65,1.85 -0.35,3.8 0.25,2 1.35,3.6 l 5.35,6.25 1.7,2 1.4,1.4 q 0.7,0.55 1.45,0.7 m 14.5,-2.65 0.85,0.6 0.9,0.5 0.55,0.2 0.6,-0.05 0.5,-0.4 -0.2,-0.45 -0.4,-0.2 q -0.7,-0.2 -0.95,-0.5 l -0.3,-0.55 -0.8,-1.9 1,0.45 0.6,0.2 q 0.55,0 0.65,-0.5 V 24.4 Q 54.4,23.75 53.6,23.25 53,22.95 52.05,22.8 L 50.9,22.75 Q 50.25,22.1 49.6,21.85 L 49.1,21.8 47.95,22 q -0.55,0.3 -0.65,0.9 -0.1,0.7 0.65,1.2 l 1.1,0.4 0.7,0.4 q 0.85,0.65 1,1.3 l 0.15,0.4 0.7,1.05 m -3,6.55 0.3,3.3 v 0.05 l 0.15,0.4 0.25,0.25 q 0.3,0.1 0.4,-0.2 l 0.05,-0.05 0.3,-0.55 q 0.35,-1.15 0.3,-2.05 l -0.15,-1.3 0.15,-0.9 -0.2,-1.25 2.1,1.65 0.9,0.9 q 0.5,0.55 0.7,1.65 v 1.85 0.7 q 0.1,0.4 0.5,0.4 l 0.5,-0.25 0.2,-0.6 L 55.2,37.25 55,35.1 54.55,34.05 52.95,31.45 51.8,30.5 Q 50.9,29.1 49.2,27.65 48.6,27.2 48.15,27.1 L 47.45,26.6 47.3,26.45 Q 47,26.25 46.7,26.2 L 46.25,25.9 Q 45.2,25.55 44.6,26.25 43.8,27.05 44.3,28 l 1,1.4 0.55,0.5 0.85,1.15 0.9,1.3 0.75,0.9 0.25,0.95 m -22.6,0 0.25,-0.95 q 0.1,-0.3 0.75,-0.9 l 0.9,-1.3 0.85,-1.15 0.55,-0.5 0.95,-1.4 Q 30.8,27.05 30,26.25 q -0.65,-0.7 -1.65,-0.35 -0.2,0.1 -0.45,0.3 -0.3,0.05 -0.65,0.25 l -0.1,0.15 -0.7,0.5 Q 26,27.2 25.4,27.65 23.7,29.1 22.8,30.5 l -1.15,0.95 -1.6,2.6 q -0.4,0.65 -0.45,1.05 l -0.2,2.15 0.3,1.55 0.55,0.25 0.5,-0.4 v -0.7 -1.85 q 0.2,-1.1 0.7,-1.65 l 0.9,-0.9 2.1,-1.65 q -0.25,0.75 -0.2,1.25 l 0.15,0.9 -0.15,1.3 q -0.05,0.9 0.25,2.05 l 0.35,0.55 0.05,0.05 q 0.05,0.3 0.4,0.2 l 0.25,-0.25 0.1,-0.4 V 37.5 L 26,34.2 m -3,-6.55 0.7,-1.05 0.1,-0.4 q 0.2,-0.65 1.05,-1.3 l 0.7,-0.4 1.05,-0.4 Q 27.4,23.6 27.25,22.9 27.2,22.3 26.6,22 l -1.15,-0.2 -0.5,0.05 -1.25,0.9 -1.15,0.05 -1.55,0.45 q -0.85,0.5 -1,1.15 v 0.65 q 0.1,0.5 0.6,0.5 l 0.65,-0.2 0.95,-0.45 -0.75,1.9 -0.3,0.55 q -0.3,0.3 -1,0.5 l -0.35,0.2 q -0.25,0.25 -0.2,0.45 l 0.5,0.4 0.6,0.05 0.55,-0.2 0.9,-0.5 0.85,-0.6"
         fill="#999999"
         fill-rule="evenodd"
         stroke="none"
         id="path9" />
      <path
         d="m 33.65,16.9 q 0.6,-0.8 1.15,-0.9 l 0.1,-0.5 -0.15,-0.2 0.1,-0.2 1.05,0.55 q 0.6,0.45 0.6,1.05 l -0.2,0.85 -0.05,0.15 0.05,0.05 q 0.45,0.45 0.75,0.3 l 0.3,-0.2 0.15,-0.45 v -0.1 -0.35 l -0.55,-0.8 -1.2,-1.35 Q 35.2,14 35.15,12.95 l 0.1,-1.1 Q 35.4,11 35.9,10.7 l 0.15,-0.1 0.35,-0.3 -0.25,-0.85 q 0.2,-0.15 0.65,0.2 l 0.2,0.7 0.05,0.65 -0.3,0.55 -0.3,0.75 q -0.05,0.45 0.4,1 l 0.9,0.6 q 2.45,1.55 3.15,4.05 l 0.3,1.5 0.15,1.1 q 0,1.35 -1.05,2.55 -1.3,1.45 -3.1,1.45 -1.95,0.1 -3.1,-1.45 l -0.6,-1.05 q -0.8,-1.75 -0.65,-3.2 0,-0.5 0.25,-1.1 l 0.55,-0.85 m 7.65,-3 0.3,0.65 q 0,0.6 0.75,1.55 l 0.75,1.6 q 0.1,0.65 -0.35,1.15 l -0.5,0.35 Q 41.9,19.3 41.75,19 41.65,18.85 41.7,18.55 L 41.8,18 41.5,17.4 q -0.65,-0.9 -0.7,-1.7 l 0.05,-1.3 q 0.1,-0.55 0.45,-0.5"
         fill="#ffffff"
         fill-rule="evenodd"
         stroke="none"
         id="path10" />
    </g>
    <g
       id="shape2"
       transform="translate(2,2.05)">
      <path
         d="M -0.5,-0.4 V -0.55 H 75.1 V -0.4 40.8 H -0.5 Z"
         fill="none"
         stroke="#000000"
         stroke-linecap="round"
         stroke-linejoin="round"
         stroke-width="3"
         id="path11" />
    </g>
  </defs>
</svg>
