<?xml version="1.0" encoding="UTF-8" standalone="no"?>
<svg
   ffdec:objectType="frame"
   height="44.349998"
   width="78.599998"
   version="1.1"
   id="svg12"
   sodipodi:docname="106.svg"
   xmlns:inkscape="http://www.inkscape.org/namespaces/inkscape"
   xmlns:sodipodi="http://sodipodi.sourceforge.net/DTD/sodipodi-0.dtd"
   xmlns:xlink="http://www.w3.org/1999/xlink"
   xmlns="http://www.w3.org/2000/svg"
   xmlns:svg="http://www.w3.org/2000/svg"
   xmlns:ffdec="https://www.free-decompiler.com/flash">
  <sodipodi:namedview
     id="namedview12"
     pagecolor="#ffffff"
     bordercolor="#000000"
     borderopacity="0.25"
     inkscape:showpageshadow="2"
     inkscape:pageopacity="0.0"
     inkscape:pagecheckerboard="0"
     inkscape:deskcolor="#d1d1d1"
     fit-margin-top="5"
     fit-margin-left="5"
     fit-margin-right="5"
     fit-margin-bottom="5" />
  <g
     transform="translate(2,2.05)"
     id="g3">
    <use
       ffdec:characterId="1"
       height="42.700001"
       transform="translate(-1.75,-2)"
       width="76.449997"
       xlink:href="#shape0"
       id="use1" />
    <use
       ffdec:characterId="108"
       height="41.099998"
       transform="translate(-1.4,0.75)"
       width="76.400002"
       xlink:href="#shape1"
       id="use2" />
    <use
       ffdec:characterId="3"
       height="44.349998"
       transform="translate(-2,-2.05)"
       width="78.599998"
       xlink:href="#shape2"
       id="use3" />
  </g>
  <defs
     id="defs12">
    <g
       id="shape0"
       transform="translate(1.75,2)">
      <path
         d="M 2.8,0 V -0.4 H 5.4 V 0 H 9.7 V 19.45 0 H 20.55 L 19.3,19.45 H 9.7 0.25 V 0 H 2.8"
         fill="#ffffff"
         fill-rule="evenodd"
         stroke="none"
         id="path3" />
      <path
         d="M 0.25,19.45 H 9.7 19.3 L 18.7,28.6 16,28.5 10.95,27.95 9.7,27.8 Q 7.45,27.6 5.85,27.75 4.05,27.9 1.5,28.6 0.75,28.8 0.25,29.15 v -9.7 m 9.45,0 v 8.35 -8.35"
         fill="#121212"
         fill-rule="evenodd"
         stroke="none"
         id="path4" />
      <path
         d="m 9.7,27.8 1.25,0.15 5.05,0.55 2.7,0.1 h 1.05 l 3.75,0.15 q 2.45,0.3 3.6,1.25 0.6,0.5 0.6,1.1 0,0.65 -0.8,1 l -1.3,0.2 -7.15,0.15 -5.6,-0.3 L 9.7,31.75 7.95,31.6 3.1,31.95 0.95,32.3 0.25,32.1 -0.35,31.55 -0.5,31.3 V 29.9 L 0.25,29.15 Q 0.75,28.8 1.5,28.6 4.05,27.9 5.85,27.75 7.45,27.6 9.7,27.8 v 3.95 -3.95"
         fill="#999999"
         fill-rule="evenodd"
         stroke="none"
         id="path5" />
      <path
         d="M 2.8,0 H 0.25 M 9.7,0 H 5.4 m 16.15,0 h 10.7 M 20.55,0 H 9.7"
         fill="none"
         stroke="#666666"
         stroke-linecap="round"
         stroke-linejoin="round"
         stroke-width="4"
         id="path6" />
      <path
         d="m 9.7,-0.4 h 65 V 40.5 H 47.05 L 45.5,40.7 27,40.65 25.95,40.5 H 9.7 -0.5 V -0.4 H 9.7 V 40.5 -0.4"
         fill="#ffffff"
         fill-rule="evenodd"
         stroke="none"
         id="path7" />
    </g>
    <g
       id="shape1"
       transform="translate(1.4,-0.75)">
      <path
         d="m 27.9,15.7 q -1.55,1.75 -2.4,2.05 -0.8,-2.05 1.05,-4.35 2.2,-2.55 6.65,-3.7 4.2,-1.05 7.1,0 4.2,1.45 6.1,6.4 1.4,3.6 1.2,9.1 v 0.55 l 1.1,-1.05 q 0.9,-0.75 2.7,-1 l 2.5,-0.05 1.2,0.6 0.6,0.4 0.3,0.4 -0.35,-1.7 Q 55.4,21.95 55.5,20.75 L 55.05,20.7 54,20.4 53.2,20.1 q -0.8,-0.35 -1,-1.2 -0.15,-0.95 0.5,-1.5 l 0.8,-0.55 2.7,-1.1 1.65,-0.45 q 1.05,-1.1 2.5,-1.85 2.1,-1.05 4.95,-1.2 l 3.3,0.35 2.3,-1.8 q 0.75,-0.55 1.3,-0.55 0.55,0 0.8,0.5 0.25,0.2 0.35,0.9 l 1.1,6.9 q 0.65,1.9 0.5,3.95 -0.3,3.45 -2.8,5.75 -0.9,0.85 -2.5,1.55 l 0.55,1.15 1.15,3.95 0.55,2.55 0.35,1.1 0.1,1 q -0.15,1 -0.7,1.6 -0.75,0.95 -2.05,0.65 l -0.4,-0.15 -0.7,0.1 q -0.85,-0.1 -1.5,-0.5 l -0.55,-0.4 -0.1,0.05 q -1.4,0.9 -2.6,0.35 L 63.35,41.4 61.8,41.35 60.7,41.2 q -0.85,-0.3 -1.35,-1 -0.55,-0.75 -0.45,-1.55 l 0.2,-1.1 0.75,-2.3 -0.55,0.45 -2.05,1.15 -2.4,0.75 -2.1,0.85 -2.6,0.25 q -1.4,-0.1 -2.2,-0.8 -1.35,-1.25 -0.9,-2.95 0.35,-1.6 2.1,-2.3 1.55,-0.65 3.2,0 l 1.45,0.5 1.1,-0.1 q 1.7,-0.35 3.35,-1.35 l 2.1,-1.35 Q 58.6,29.55 57.5,28.1 l -0.45,-0.65 0.05,0.8 -0.2,1.1 -0.5,1.45 -0.7,0.65 -0.8,0.5 -2.1,0.15 Q 51.7,31.8 51,31 l -0.4,-0.75 -0.05,-0.8 0.4,-1.5 q 0.4,-0.7 1.25,-0.9 l 1.65,0.15 0.55,0.6 q 0.15,0.3 -0.1,0.8 L 53.95,29 53.2,28.85 q -0.45,-0.2 -0.75,0 -0.2,0.5 -0.1,0.6 l 0.35,0.4 0.55,0.3 0.8,-0.2 0.75,-0.4 0.25,-0.7 0.1,-0.75 -0.25,-0.95 -0.4,-0.65 -0.55,-0.3 -1.5,-0.3 q -0.8,-0.1 -1.45,0.45 -0.7,0.55 -1.3,1.8 l -1,1.85 -3.4,2.5 -1.15,0.6 -0.15,0.15 -1.75,1.1 q -2.85,1.65 -4.65,2.3 -2.65,0.9 -4.9,0.6 -2.95,-0.35 -5.3,-2.6 h -0.15 l -1.1,-0.3 q -1.5,-0.65 -2.3,-2.3 l -0.35,-0.8 -0.4,-0.65 -0.15,-1 -0.2,-0.5 -0.15,-0.75 q -0.1,-1.1 0.2,-2.1 l 0.15,-0.5 0.7,-0.55 0.8,0.05 q 0.8,0.35 0.8,1.4 l -0.05,1.1 0.35,1.05 0.05,0.6 0.35,0.65 q 2.55,3.3 4.7,4.4 2.85,1.35 5.8,0.55 1.1,-0.2 2.8,-1.1 3.25,-1.55 4.5,-3.25 2,-2.55 1.85,-8.5 -0.1,-2.75 -0.5,-4.05 -1,-3.5 -3.5,-4.8 l -3.2,-1.6 -2.65,-0.1 q -2,0.1 -3.85,0.9 -1.9,0.85 -4,3.2 m 38.5,8.75 -0.15,0.05 -0.9,-0.55 -0.6,-0.2 q -0.35,0 -0.55,0.25 l -0.2,0.5 -0.75,0.75 -1.9,-0.15 q -0.25,0.3 -0.2,0.75 l 0.35,0.7 0.7,0.45 0.1,0.3 0.25,0.55 0.5,0.55 0.3,0.2 0.65,0.25 0.25,0.05 q 1.35,0.35 2.45,-0.45 l 0.8,-0.8 0.25,-0.4 0.15,-0.6 V 25.8 l -0.05,-0.4 0.4,-0.6 0.15,-0.8 v -0.3 l -0.3,-0.45 -1.05,1.05 -0.65,0.15 m -9.95,-0.5 q 0.35,0.9 1.2,1.4 l 0.4,0.15 0.05,-0.05 q 0.8,-0.5 2.05,-0.75 h 0.9 l 0.55,-1.05 q 0.25,-0.8 -0.05,-1.55 -0.6,-1.75 -2.45,-1.85 -0.8,-0.1 -1.55,0.4 -0.7,0.45 -1.05,1.2 -0.45,1 -0.05,2.1 M 73,20.6 q 0,-1.45 -1.1,-2.4 L 71.45,17.9 70.05,17.5 70,17.55 q -1.15,0 -1.95,0.85 -0.65,0.6 -0.8,1.55 -0.2,1.05 0.2,1.9 0.55,1.05 1.6,1.4 0.9,-0.45 2.4,-0.55 l 0.6,0.05 0.8,-1.15 0.15,-1 M 39.35,32.75 q -1.15,0.75 -1.9,1 L 35.1,34 q -4.65,0 -6.75,-1.95 -1.4,-1.2 -2.1,-3.65 -0.7,-2.45 -0.4,-5.05 0.3,-2.6 1.5,-4.8 2,-3.5 5.3,-5.05 1.35,-0.65 2.75,-0.8 2.9,-0.25 5.65,1.8 1.15,0.9 1.9,1.95 1.65,2.25 1.85,5.4 0.25,2.45 -0.7,5.7 l -0.85,1.95 -1.35,1.35 -2.55,1.9 m -7,-1.9 1.55,0.35 1.8,0.1 q 1.75,-0.15 3.95,-2.1 l 1.6,-1.5 q 0.65,-0.9 1.1,-3.2 0.4,-2.4 0.25,-3.4 l -0.5,-1.6 -0.95,-1.7 -1.6,-1.15 q -2.45,-1.3 -3.95,-1.05 -0.65,0.1 -1.65,0.55 -2.05,0.9 -3.05,1.8 -2,1.75 -2.4,5.1 -0.5,4.35 1.95,6.65 0.9,0.8 1.9,1.15 m 3.95,-14.45 1.5,0.3 q 2.65,0.85 3.65,3.8 0.75,2.55 -0.2,5.4 l -0.7,1.55 -1.7,1.8 -1.65,1.05 -2.85,0.25 Q 32.9,30.3 31.75,29.4 30.95,28.8 30.1,27.45 L 29.35,25.8 q -0.3,-1.15 -0.2,-2.3 0.25,-1.8 0.7,-2.9 l 0.65,-1.25 q 0.9,-1.3 1.85,-1.95 1.3,-0.95 2.6,-1 h 1.35 m 29.25,9.55 1.05,0.15 -0.05,0.2 -0.1,0.25 -0.15,0.1 -0.15,0.25 -0.5,0.4 q -0.4,0.2 -0.7,0 l -0.3,-0.25 -0.5,-0.2 -0.1,-0.4 V 26.4 l 0.35,-0.55 1.15,0.1"
         fill="#999999"
         fill-rule="evenodd"
         stroke="none"
         id="path8" />
      <path
         d="m 73,20.6 -0.15,1 -0.8,1.15 -0.6,-0.05 q -1.5,0.1 -2.4,0.55 Q 68,22.9 67.45,21.85 67.05,21 67.25,19.95 67.4,19 68.05,18.4 68.85,17.55 70,17.55 l 0.05,-0.05 1.4,0.4 0.45,0.3 q 1.1,0.95 1.1,2.4 m -16.55,3.35 q -0.4,-1.1 0.05,-2.1 0.35,-0.75 1.05,-1.2 0.75,-0.5 1.55,-0.4 1.85,0.1 2.45,1.85 0.3,0.75 0.05,1.55 l -0.55,1.05 h -0.9 q -1.25,0.25 -2.05,0.75 l -0.05,0.05 -0.4,-0.15 q -0.85,-0.5 -1.2,-1.4 m 9.95,0.5 0.65,-0.15 1.05,-1.05 0.3,0.45 V 24 l -0.15,0.8 -0.4,0.6 0.05,0.4 v 0.85 l -0.15,0.6 -0.25,0.4 -0.8,0.8 q -1.1,0.8 -2.45,0.45 L 64,28.85 63.35,28.6 63.05,28.4 62.55,27.85 62.3,27.3 62.2,27 61.5,26.55 61.15,25.85 Q 61.1,25.4 61.35,25.1 l 1.9,0.15 L 64,24.5 64.2,24 q 0.2,-0.25 0.55,-0.25 l 0.6,0.2 0.9,0.55 0.15,-0.05 m -0.85,1.5 -1.15,-0.1 -0.35,0.55 v 0.05 l 0.1,0.4 0.5,0.2 0.3,0.25 q 0.3,0.2 0.7,0 l 0.5,-0.4 0.15,-0.25 0.15,-0.1 0.1,-0.25 0.05,-0.2 -1.05,-0.15"
         fill="#ffffff"
         fill-rule="evenodd"
         stroke="none"
         id="path9" />
      <path
         d="M 30.7,24.75 30.25,24.4 Q 29.65,23.8 30,23.05 l 0.35,-0.45 q 0.3,-0.3 0.65,-0.35 l 0.9,0.2 q 0.85,0.4 0.6,1.3 l -0.35,0.65 -0.6,0.35 q -0.5,0.2 -0.85,0 m -4.6,-5.4 0.35,1 q 0.2,1.05 -0.45,2.3 l -0.65,1.05 q -1,1.05 -2.35,1.5 L 20.25,25.1 19.4,24.65 Q 18.45,24 18.05,22.6 l 2.2,-0.65 q 3.1,-1.2 4.55,-4.2 0.75,0.55 1.3,1.6 m 9.15,4.05 -0.75,0.35 -0.65,-0.1 q -0.7,-0.3 -0.85,-1.05 -0.2,-0.75 0.2,-1.35 0.65,-0.6 1.5,-0.45 0.95,0.3 1.1,1.15 v 0.45 l -0.55,1 m 3.25,2 q -0.75,0.65 -1.7,0.3 -1,-0.45 -0.85,-1.4 0.1,-1.05 1.05,-1.35 0.95,-0.3 1.55,0.45 l 0.35,1 -0.4,1 M 11.65,25.1 11.2,26.05 q -1,1.7 -3.05,2 -1.9,0.3 -3.45,-1.1 Q 3.95,26.25 3.65,25.2 L 3.55,24.45 Q 3.4,22.8 4.4,21.55 l 0.1,0.15 2.1,1.1 q 2.75,1.1 4.55,1.15 h 0.8 l -0.3,1.15 m 7,1.25 0.7,0.3 q 0.55,0.35 0.45,0.8 -0.05,0.5 -0.85,0.7 l -2.3,0.6 -3.85,1.55 q -1.2,0.25 -1.65,-0.75 l -0.2,-0.3 Q 10.8,28.5 11.5,27.8 q 0.3,-0.25 1.35,-0.65 l 0.9,-0.25 0.5,-0.05 0.05,-0.55 0.35,-0.9 q 0.4,-0.4 0.95,-0.35 0.55,0.1 0.8,0.55 l 0.25,0.75 h 2 M 36,26.65 q 0,1 -0.9,1.7 -0.85,0.7 -1.9,0.3 L 32.35,28.1 q -0.8,-0.8 -0.55,-1.9 0.25,-1.15 1.25,-1.5 l 2,0.15 q 0.95,0.6 0.95,1.8"
         fill="#ffffff"
         fill-rule="evenodd"
         stroke="none"
         id="path10" />
      <path
         d="m 31,22.25 0.4,-1.15 q 1.4,-2.65 4.05,-3.15 1.35,-0.2 2.65,0.35 1.25,0.6 1.9,1.75 0.75,1.35 0.65,3.55 -0.15,2.2 -0.7,3.75 L 39.2,29 39.05,29.15 q -1.55,3.5 -2.65,4.75 -1.1,1.35 -2.6,2.25 -1.6,1.25 -3.25,1.8 l -5,0.35 -1.65,-0.4 0.05,0.2 q 0.3,1.1 0.05,1.95 H 3.55 V 39.3 L 6.8,31.7 5.45,31 Q 3.3,29.95 1.95,28.4 0.1,26.15 -0.15,22.9 L -0.25,22.05 -1.2,18.2 q -0.35,-2.3 -0.15,-5.4 l 0.6,-5.3 Q -0.65,6 -0.1,5.2 0.4,4.6 1.2,4.4 2.15,4.3 3.55,5 L 5.7,6 6.45,6.4 8.95,4.7 q 2.35,-1.2 5.35,-1.5 4.15,-0.4 7.45,1 l 2.05,-2 q 1.6,-1.45 2.65,-1.45 1.1,0 1.65,0.7 0.7,0.75 0.8,2.5 l 0.9,7 q 0.4,4.05 0.1,7 l -0.35,1.8 q -1,5.95 -5.4,9.65 l -2.05,1.5 0.75,0.55 1.15,0.95 q 1.8,1.15 4.05,0.6 2.2,-1.1 2.9,-2.45 0.4,-0.75 0.4,-1.75 L 30.9,26.3 30.7,24.75 q 0.35,0.2 0.85,0 l 0.6,-0.35 0.35,-0.65 q 0.25,-0.9 -0.6,-1.3 L 31,22.25 m 5,4.4 q 0,-1.2 -0.95,-1.8 l -2,-0.15 q -1,0.35 -1.25,1.5 -0.25,1.1 0.55,1.9 l 0.85,0.55 q 1.05,0.4 1.9,-0.3 0.9,-0.7 0.9,-1.7 m -17.35,-0.3 h -2 L 16.4,25.6 Q 16.15,25.15 15.6,25.05 15.05,25 14.65,25.4 l -0.35,0.9 -0.05,0.55 -0.5,0.05 -0.9,0.25 q -1.05,0.4 -1.35,0.65 -0.7,0.7 -0.55,1.45 l 0.2,0.3 q 0.45,1 1.65,0.75 l 3.85,-1.55 2.3,-0.6 q 0.8,-0.2 0.85,-0.7 0.1,-0.45 -0.45,-0.8 l -0.7,-0.3 m -7,-1.25 0.3,-1.15 h -0.8 Q 9.35,23.9 6.6,22.8 L 4.5,21.7 4.4,21.55 q -1,1.25 -0.85,2.9 l 0.1,0.75 q 0.3,1.05 1.05,1.75 1.55,1.4 3.45,1.1 2.05,-0.3 3.05,-2 l 0.45,-0.95 m 26.85,0.3 0.4,-1 -0.35,-1 q -0.6,-0.75 -1.55,-0.45 -0.95,0.3 -1.05,1.35 -0.15,0.95 0.85,1.4 0.95,0.35 1.7,-0.3 m -3.25,-2 0.55,-1 v -0.45 q -0.15,-0.85 -1.1,-1.15 -0.85,-0.15 -1.5,0.45 -0.4,0.6 -0.2,1.35 0.15,0.75 0.85,1.05 l 0.65,0.1 0.75,-0.35 M 26.1,19.35 q -0.55,-1.05 -1.3,-1.6 -1.45,3 -4.55,4.2 l -2.2,0.65 q 0.4,1.4 1.35,2.05 l 0.85,0.45 2.75,0.1 q 1.35,-0.45 2.35,-1.5 L 26,22.65 q 0.65,-1.25 0.45,-2.3 l -0.35,-1"
         fill="#000000"
         fill-rule="evenodd"
         stroke="none"
         id="path11" />
    </g>
    <g
       id="shape2"
       transform="translate(2,2.05)">
      <path
         d="M -0.5,-0.4 V -0.55 H 75.1 V -0.4 40.8 H -0.5 Z"
         fill="none"
         stroke="#000000"
         stroke-linecap="round"
         stroke-linejoin="round"
         stroke-width="3"
         id="path12" />
    </g>
  </defs>
</svg>
