<?xml version="1.0" encoding="UTF-8" standalone="no"?>
<svg
   ffdec:objectType="frame"
   height="60.549999"
   width="67.099998"
   version="1.1"
   id="svg8"
   sodipodi:docname="364.svg"
   xmlns:inkscape="http://www.inkscape.org/namespaces/inkscape"
   xmlns:sodipodi="http://sodipodi.sourceforge.net/DTD/sodipodi-0.dtd"
   xmlns:xlink="http://www.w3.org/1999/xlink"
   xmlns="http://www.w3.org/2000/svg"
   xmlns:svg="http://www.w3.org/2000/svg"
   xmlns:ffdec="https://www.free-decompiler.com/flash">
  <sodipodi:namedview
     id="namedview8"
     pagecolor="#ffffff"
     bordercolor="#000000"
     borderopacity="0.25"
     inkscape:showpageshadow="2"
     inkscape:pageopacity="0.0"
     inkscape:pagecheckerboard="0"
     inkscape:deskcolor="#d1d1d1"
     fit-margin-top="5"
     fit-margin-left="5"
     fit-margin-right="5"
     fit-margin-bottom="5" />
  <g
     transform="translate(1.5,1.5)"
     id="g3">
    <use
       ffdec:characterId="516"
       height="57.549999"
       width="64.099998"
       xlink:href="#shape0"
       id="use1" />
    <use
       ffdec:characterId="865"
       height="53.700001"
       transform="translate(0,1)"
       width="65.400002"
       xlink:href="#shape1"
       id="use2" />
    <use
       ffdec:characterId="518"
       height="60.549999"
       transform="translate(-1.5,-1.5)"
       width="67.099998"
       xlink:href="#shape2"
       id="use3" />
  </g>
  <defs
     id="defs8">
    <g
       id="shape0">
      <path
         d="M 53.6,0 H 64.1 V 57.55 H 53.6 28.25 0 V 0 H 28.25 53.6 V 57.55 0 M 28.25,0 V 57.55 0"
         fill="#ffffff"
         fill-rule="evenodd"
         stroke="none"
         id="path3" />
    </g>
    <g
       id="shape1"
       transform="translate(0,-1)">
      <path
         d="M 64.85,38.3 Q 65.4,39 65.4,40 l -0.55,1.7 -0.3,0.45 0.05,0.6 q 0,1.55 -1.4,2.4 -0.9,0.55 -2.65,0.65 l -9.7,-0.7 q -2.35,-0.45 -3.65,-1.3 -1.85,-1.15 -2.15,-3.05 -0.35,-2 1.45,-3.8 1.2,-1.15 3.75,-2 5.3,-1.6 10.65,-0.25 1.5,0.4 2.2,0.95 0.85,0.75 0.85,1.65 l 0.9,1 M 17.3,2.65 17.65,2 q 0.5,-0.8 1.05,-1 l 0.95,0.15 q 0.95,0.3 2,1.45 l 1.45,2 2.25,3.05 Q 26,8.5 25.95,9 l -0.55,0.8 -0.85,0.35 -4.4,1.1 -2,0.5 Q 17.1,12.3 16.7,12.25 L 16.1,12 15.8,11.45 15.85,10.65 16.25,8.45 14.8,8.25 13,8.2 7.35,8.85 Q 5.65,9.15 4.7,9.6 L 4.05,9.75 Q 3.7,9.6 3.8,9.25 L 4,8.7 5.35,7.45 Q 7.65,5.75 11.65,4.4 14.3,3.55 16,3.55 L 17.15,3.6 17.3,2.65 M 33.65,50.8 Q 33.1,52.05 31.5,52.65 L 28.7,53.1 25,52.7 Q 22.9,51.9 22.4,50.2 L 22.15,48.3 21.6,45.95 19.8,39.35 Q 19.15,37 19.85,36 l 1.05,-0.8 q 0.65,-0.2 1.3,0 1.1,0.35 2.05,2.55 1.4,3.35 2.6,7.45 l 3.55,-0.1 q 1.15,0.15 1.95,0.7 1.15,0.8 1.5,2.45 0.35,1.45 -0.2,2.55"
         fill="#999999"
         fill-rule="evenodd"
         stroke="none"
         id="path4" />
      <path
         d="M 53.8,30.2 Q 52.65,29.4 52.2,27.6 L 52.1,27.05 51.7,27 q -1.2,-0.1 -1.95,-0.7 -0.9,-0.6 -1.15,-1.7 l -0.05,-0.95 q 0,-1.3 0.4,-2.15 0.45,-1 1.4,-1.55 1,-0.55 2.05,-0.4 l 1,0.25 1,0.4 0.45,0.3 q 1.1,-0.65 2.5,-0.7 h 0.5 q 0.1,-0.55 0.45,-1.05 0.55,-0.9 1.55,-1.3 0.95,-0.5 1.95,-0.3 l 1,0.35 q 0.9,0.45 1.3,1.05 0.6,0.95 0.25,2.25 -0.25,1 -0.9,1.75 l -0.45,0.7 -0.25,0.25 0.05,1.15 -0.1,1.8 q -0.4,2.3 -2.25,3.85 l 0.55,0.75 1.25,2.25 0.65,3.05 -0.05,1.6 Q 62.45,39.35 61.05,40 60,40.55 58.35,40.65 55.55,40.9 53.9,40 L 52.35,38.8 51.8,38.2 h -0.55 l -1,0.25 -0.5,0.6 q -0.15,0.35 0,0.7 0.25,0.4 1.1,0.7 L 54,41.2 q 0.7,0.3 0.85,0.65 l -0.1,0.7 -0.55,0.35 -0.65,-0.1 -0.8,0.05 q -1.4,0.2 -3.1,-0.4 l -0.7,-0.3 -1.15,-0.8 q -0.6,-0.3 -0.9,-0.9 -0.35,-0.7 -0.35,-1.9 l 0.15,-1.2 q 0.25,-0.75 1.5,-2.15 l 0.8,-0.6 1.05,-0.3 1.45,-0.1 0.1,-0.3 q 0.85,-1.95 2.35,-3.6 L 53.8,30.2 m -17.65,12 -5.05,0.35 -2.95,-0.25 q -2.4,-0.45 -4.45,-1.75 0.3,3.35 -0.6,6.4 -1.1,3.45 -3.3,5.45 -2.7,2.45 -5.85,2.3 -1.5,0 -2.45,-0.75 -1.45,-1.15 -1.25,-3.45 0.1,-1.35 0.75,-2.15 0.7,-0.9 2.3,-1.25 L 15.95,47.05 16.8,47 Q 17.4,46.75 17.75,45.9 18.7,44 18.95,42 15.5,44.1 11.25,44.9 5.9,46 0,44.9 V 14.85 Q 2.4,13.05 5.55,12.3 L 12.3,12 q 5,0.75 9.5,3.85 0.4,-2.6 1.05,-4.55 Q 23.4,9.95 23.7,9.55 24.3,8.6 25.2,8.4 l 1.2,-0.15 1.45,0.4 1.45,0.95 1.4,1.15 1.75,1.65 q 3.5,0 6.4,1.3 l 1.4,0.7 0.05,0.05 0.35,0.2 1,0.9 1.15,-0.75 q 0.8,-0.5 1.8,-0.5 1.15,0.1 1.7,0.8 0.6,0.65 0.7,2.1 l -0.15,4.25 -0.3,1.95 -0.95,2.5 0.2,0.1 q 1.1,0.75 0.75,2.1 -0.35,1.05 -1.25,1.35 -0.05,4.1 -1.8,7.05 -1.05,1.9 -2.75,3.15 l -1.7,1 q -1.4,1.1 -2.9,1.55 M 44.5,24.8 q -1.05,-0.9 -2.6,-0.65 -1.15,0.25 -1.8,0.85 -0.75,0.75 -1,1.85 -0.25,1 0.25,2.05 0.65,1.3 2.05,1.75 1.4,0.4 2.65,-0.3 l 1,-0.85 H 44.8 q -1.4,0.1 -1.9,-1.1 l -0.2,-0.9 q 0,-0.35 0.15,-0.65 0.25,-0.6 0.7,-0.9 0.5,-0.35 1.15,-0.35 l 0.65,0.15 -0.85,-0.95 m 14,-0.25 q -0.35,1.05 0.3,1.85 0.65,0.8 1.75,0.65 1.1,-0.1 1.5,-1.1 0.4,-1.1 -0.3,-1.9 -0.65,-0.85 -1.75,-0.7 -1.1,0.15 -1.5,1.2 m -3.1,0.95 q -0.25,-0.75 -0.9,-1.05 l -1.4,-0.1 q -0.55,0.2 -0.85,0.7 -0.3,0.55 -0.25,1.1 0.05,0.55 0.45,1 l 1,0.55 1.1,-0.2 0.75,-0.8 q 0.3,-0.5 0.1,-1.2 M 27,22.3 q 1.2,0.25 1.45,1.4 0.15,0.8 -0.3,1.5 -0.45,0.6 -1.3,0.7 l -1.2,-0.3 q -0.5,-0.4 -0.7,-1 Q 24.8,23.95 25,23.4 25.25,22.85 25.85,22.55 26.4,22.25 27,22.3 m 11.35,9.9 -0.75,-0.7 -1.3,-0.3 -0.05,-0.45 -0.15,-0.6 v -0.6 l -0.35,-0.7 -0.55,-0.5 Q 34.85,28.3 34.35,28.7 l -0.5,0.6 -0.1,0.55 -0.3,0.75 -0.05,0.2 -0.25,-0.05 -1.6,-0.15 -1.6,0.15 q -1.05,0.2 -1.4,0.55 -0.3,0.3 -0.4,0.9 -0.1,0.8 0.45,1.25 l 0.5,0.3 0.95,0.2 1.6,-0.3 1.55,-0.15 h 1.15 l 2.2,0.25 0.7,0.15 0.6,0.3 q 0.75,0.2 1.1,-0.25 0.55,-0.45 0.2,-1.05 L 38.8,32.55 38.35,32.2 M 24.3,24.5 v 0.75 q 0.25,1.7 1.85,2.5 l 3.1,-0.05 q 1.5,-0.85 1.75,-2.55 l -0.2,-1.8 -0.05,-0.05 q -0.55,-1.35 -1.9,-1.9 l -2.7,0.1 q -1.3,0.75 -1.7,2.05 Q 24.3,24 24.3,24.5"
         fill="#000000"
         fill-rule="evenodd"
         stroke="none"
         id="path5" />
      <path
         d="m 55.4,25.5 q 0.2,0.7 -0.1,1.2 l -0.75,0.8 -1.1,0.2 -1,-0.55 q -0.4,-0.45 -0.45,-1 -0.05,-0.55 0.25,-1.1 0.3,-0.5 0.85,-0.7 l 1.4,0.1 q 0.65,0.3 0.9,1.05 m 3.1,-0.95 q 0.4,-1.05 1.5,-1.2 1.1,-0.15 1.75,0.7 0.7,0.8 0.3,1.9 -0.4,1 -1.5,1.1 -1.1,0.15 -1.75,-0.65 -0.65,-0.8 -0.3,-1.85 m -14,0.25 0.85,0.95 -0.65,-0.15 q -0.65,0 -1.15,0.35 -0.45,0.3 -0.7,0.9 -0.15,0.3 -0.15,0.65 l 0.2,0.9 q 0.5,1.2 1.9,1.1 h 0.25 l -1,0.85 q -1.25,0.7 -2.65,0.3 -1.4,-0.45 -2.05,-1.75 -0.5,-1.05 -0.25,-2.05 0.25,-1.1 1,-1.85 0.65,-0.6 1.8,-0.85 1.55,-0.25 2.6,0.65 M 27,22.3 q -0.6,-0.05 -1.15,0.25 -0.6,0.3 -0.85,0.85 -0.2,0.55 -0.05,1.2 0.2,0.6 0.7,1 l 1.2,0.3 q 0.85,-0.1 1.3,-0.7 0.45,-0.7 0.3,-1.5 Q 28.2,22.55 27,22.3 m -2.7,2.2 q 0,-0.5 0.15,-0.95 0.4,-1.3 1.7,-2.05 l 2.7,-0.1 q 1.35,0.55 1.9,1.9 l 0.05,0.05 0.2,1.8 q -0.25,1.7 -1.75,2.55 l -3.1,0.05 q -1.6,-0.8 -1.85,-2.5 V 24.5 m 14.05,7.7 0.45,0.35 0.35,0.35 q 0.35,0.6 -0.2,1.05 -0.35,0.45 -1.1,0.25 l -0.6,-0.3 -0.7,-0.15 -2.2,-0.25 H 33.2 l -1.55,0.15 -1.6,0.3 -0.95,-0.2 -0.5,-0.3 Q 28.05,33 28.15,32.2 q 0.1,-0.6 0.4,-0.9 0.35,-0.35 1.4,-0.55 l 1.6,-0.15 1.6,0.15 0.25,0.05 0.05,-0.2 0.3,-0.75 0.1,-0.55 0.5,-0.6 q 0.5,-0.4 0.85,-0.35 l 0.55,0.5 0.35,0.7 v 0.6 l 0.15,0.6 0.05,0.45 1.3,0.3 0.75,0.7"
         fill="#ffffff"
         fill-rule="evenodd"
         stroke="none"
         id="path6" />
      <path
         d="m 37.55,3.95 q 0.55,-1 1.6,-1.4 l 1.6,-0.25 1.3,0.1 q 0.75,0.25 1.1,0.75 l 0.35,0.6 0.3,0.8 v 0.6 L 43.65,6.2 q -0.3,1.15 -1.85,2 0.25,0.75 -0.25,1.3 -0.5,0.55 -1.25,0.4 -0.75,-0.3 -0.85,-1 l 0.1,-1.95 0.35,-0.4 Q 40.35,6.15 40.7,6 L 41.15,5.7 V 5.15 l -1.5,0.15 v 0.05 0.2 Q 39.75,6.35 39,6.7 L 37.7,6.6 q -0.4,-0.35 -0.5,-1 l 0.15,-0.9 0.2,-0.75 m 3.75,6.8 0.65,0.4 0.4,0.9 L 42.1,13 Q 41.45,13.9 40.35,13.55 39.3,13.1 39.4,12 q 0.2,-1.15 1.25,-1.3 l 0.65,0.05"
         fill="#999999"
         fill-rule="evenodd"
         stroke="none"
         id="path7" />
    </g>
    <g
       id="shape2"
       transform="translate(1.5,1.5)">
      <path
         d="M 0,23.8 V 0 H 64.1 V 23.8 57.55 H 0 Z"
         fill="none"
         stroke="#000000"
         stroke-linecap="round"
         stroke-linejoin="round"
         stroke-width="3"
         id="path8" />
    </g>
  </defs>
</svg>
