<?xml version="1.0" encoding="UTF-8" standalone="no"?>
<svg
   ffdec:objectType="frame"
   height="60.549999"
   width="67.099998"
   version="1.1"
   id="svg8"
   sodipodi:docname="286.svg"
   xmlns:inkscape="http://www.inkscape.org/namespaces/inkscape"
   xmlns:sodipodi="http://sodipodi.sourceforge.net/DTD/sodipodi-0.dtd"
   xmlns:xlink="http://www.w3.org/1999/xlink"
   xmlns="http://www.w3.org/2000/svg"
   xmlns:svg="http://www.w3.org/2000/svg"
   xmlns:ffdec="https://www.free-decompiler.com/flash">
  <sodipodi:namedview
     id="namedview8"
     pagecolor="#ffffff"
     bordercolor="#000000"
     borderopacity="0.25"
     inkscape:showpageshadow="2"
     inkscape:pageopacity="0.0"
     inkscape:pagecheckerboard="0"
     inkscape:deskcolor="#d1d1d1"
     fit-margin-top="5"
     fit-margin-left="5"
     fit-margin-right="5"
     fit-margin-bottom="5" />
  <g
     transform="translate(1.5,1.5)"
     id="g3">
    <use
       ffdec:characterId="516"
       height="57.549999"
       width="64.099998"
       xlink:href="#shape0"
       id="use1" />
    <use
       ffdec:characterId="789"
       height="42.400002"
       transform="translate(-0.1,4.25)"
       width="64.099998"
       xlink:href="#shape1"
       id="use2" />
    <use
       ffdec:characterId="518"
       height="60.549999"
       transform="translate(-1.5,-1.5)"
       width="67.099998"
       xlink:href="#shape2"
       id="use3" />
  </g>
  <defs
     id="defs8">
    <g
       id="shape0">
      <path
         d="M 53.6,0 H 64.1 V 57.55 H 53.6 28.25 0 V 0 H 28.25 53.6 V 57.55 0 M 28.25,0 V 57.55 0"
         fill="#ffffff"
         fill-rule="evenodd"
         stroke="none"
         id="path3" />
    </g>
    <g
       id="shape1"
       transform="translate(0.1,-4.25)">
      <path
         d="m 63.15,23.4 -0.2,-0.85 q -0.55,-1.05 -1.7,-0.9 -1.15,0.2 -1.4,1.3 -0.25,1.15 0.7,1.85 l 1.75,0.1 q 0.85,-0.5 0.85,-1.5 m -0.8,7.3 0.1,1.3 q 0,0.5 0.15,0.65 0.1,0.2 0.55,0.35 L 64,33.5 v 7.3 l -0.5,0.45 q 0.4,0.5 0.3,1.25 -0.1,0.75 -0.65,1.15 -0.7,0.6 -2.35,0.5 l -0.75,-0.05 -0.1,0.25 -1.1,1.2 -1.55,0.2 -0.9,-0.2 Q 55.5,46.3 53.95,46 52.75,45.65 52.35,44.95 H 52.2 l -1.15,0.3 -1.35,0.2 L 48.15,45.1 47.5,44.4 47.1,43.65 Q 47,42.9 47.55,42.25 l -1.1,-1.4 -0.5,-1.05 Q 44,40.35 43,40.95 l -1.8,1.3 0.7,-0.15 1.45,-0.05 q 0.8,0.05 1.5,0.45 0.65,0.4 0.9,1.1 0.35,1.2 -0.65,2.05 -0.75,0.75 -1.95,0.9 L 40.8,46.3 q -1.05,-0.1 -2.3,-0.75 l -0.95,-0.7 q -0.3,-0.4 -0.3,-1.3 0,-1.25 0.15,-1.65 l 0.65,-1.1 q 1.2,-1.55 3.45,-2.65 1.3,-0.65 4.15,-1.5 l 0.6,-0.15 q 0.1,-0.4 0.35,-0.75 0.75,-1 1.75,-1.6 l 0.95,-0.75 0.1,-0.7 0.25,-0.9 0.45,-1 -1.2,-0.9 q -1.3,-1.15 -2,-2.7 -0.65,-1.7 -0.5,-3.4 0.05,-0.9 0.6,-2.35 0.5,-1.3 0.9,-1.85 l 0.4,-0.55 -0.5,-0.8 -0.1,-1.2 0.1,-1.6 0.8,-1.65 0.35,-1 0.45,-0.95 q 0.35,-0.45 1.05,-0.6 0.6,-0.1 1.15,0.35 l 0.75,0.85 0.8,1.65 0.7,0.85 5.8,-0.15 Q 59.8,14.6 60,14.5 l 2,-2.25 Q 62.7,11.2 63.15,11 63.55,10.8 64,11 v 18.35 l -1.65,1.35 m -8.4,-2.3 1.4,-0.2 q 0.6,-0.35 0.75,-0.35 l 0.55,0.35 q 1,0.7 2.1,0.45 1.2,-0.35 1.65,-1.3 0.45,-0.75 -0.15,-1 Q 60,26.2 59.6,26.5 L 59.15,27.05 57.5,27.1 57,26.5 q -0.3,-0.35 -0.65,-0.4 l -0.6,0.15 -0.6,0.4 -1.2,0.3 -1,-0.65 -0.3,-0.55 -0.65,0.1 -0.2,0.65 q 0,0.8 0.7,1.3 0.55,0.4 1.45,0.6 M 51.7,23.15 Q 51.6,22.5 51.05,22 50.5,21.55 49.8,21.55 q -0.65,0 -1.2,0.45 -0.55,0.5 -0.65,1.15 -0.1,0.7 0.25,1.3 0.35,0.65 1,0.85 l 1.3,-0.05 1,-0.85 q 0.35,-0.6 0.2,-1.25 M 32.8,8.3 32.4,7.75 32.2,7.05 V 6.2 q 0.1,-0.45 0.5,-0.7 0.55,-0.2 0.95,0.15 l 0.7,0.7 1,-0.25 Q 35.9,6 36.3,6.35 36.8,6.85 36.55,7.3 L 36,7.8 34.7,8.35 34.15,8.5 33.6,8.8 q -0.4,0 -0.8,-0.5 m 1.35,4.05 q 0,-0.55 0.25,-0.8 l 0.85,-0.1 0.75,0.35 0.35,0.2 0.4,-0.1 1.05,-0.05 q 0.55,0.15 0.8,0.65 0.2,0.6 -0.35,1.25 l -1.1,0.75 -0.9,0.4 -0.8,0.15 q -0.4,-0.1 -0.7,-0.8 l -0.2,-0.45 -0.3,-0.35 q -0.2,-0.35 -0.1,-1.1 M 24.9,9.3 25.6,9.4 26.1,9.05 27.6,8.8 q 0.55,0 0.85,0.25 0.3,0.3 0.1,1 -0.35,1.4 -1.6,2.05 L 26.2,12.35 25.5,12.1 24.85,11.7 23.75,11.15 Q 23.5,10.85 23.6,10.2 l 0.2,-0.7 q 0.35,-0.4 1.1,-0.2 m 5.75,9.9 0.15,0.1 0.1,0.1 0.1,0.1 0.1,0.1 0.05,0.1 0.05,0.1 0.05,0.1 0.05,0.1 0.05,0.1 0.05,0.1 v 0.1 0.1 0.1 0.1 0.1 l -0.05,0.15 -0.05,0.1 v 0.1 l -0.1,0.1 v 0.1 l -0.05,0.1 h 0.05 0.2 l 0.2,0.05 0.25,0.05 0.2,0.1 0.2,0.1 0.15,0.15 0.15,0.1 0.1,0.1 0.1,0.1 0.1,0.1 0.05,0.1 0.05,0.1 0.05,0.1 0.05,0.1 0.05,0.1 v 0.1 0.1 0.1 0.05 l 0.1,0.1 0.05,0.1 0.05,0.1 0.1,0.1 v 0.1 l 0.1,0.1 v 0.1 l 0.05,0.1 v 0.1 l 0.05,0.1 v 0.1 0.1 0.1 0.1 0.1 l -0.05,0.1 -0.05,0.1 v 0.1 l -0.05,0.1 -0.05,0.1 -0.05,0.1 -0.05,0.1 -0.05,0.1 -0.1,0.1 -0.05,0.1 -0.15,0.1 -0.15,0.15 -0.15,0.1 -0.2,0.1 -0.2,0.05 -0.05,0.05 h -0.15 l -0.1,0.05 -0.35,0.05 H 30.35 L 28.25,26.15 25.9,26.1 H 24.25 L 23.2,26.05 22.55,26 h -0.5 L 21.75,25.95 21.1,25.9 H 20.45 L 20,25.85 19.6,25.8 H 19.3 L 19,25.75 18.45,25.7 17.9,25.65 H 17.5 L 17.2,25.6 16.9,25.55 H 16.35 L 15.9,25.5 15.6,25.45 H 15.3 L 14.75,25.4 14.15,25.35 H 13.7 L 13.3,25.3 12.65,25.25 H 11.9 L 11.5,25.2 11.1,25.15 H 10.55 L 10,25.1 9.2,25.05 H 8.8 L 8.05,25 7.1,24.95 H 6.05 L 5.5,24.9 5.1,24.85 H 4.65 L 4.05,24.8 3.5,24.75 3.4,26.1 3.25,28.25 3.15,29.3 2.65,31.7 2.3,32.1 1.6,32.15 1.05,31.65 0.6,30.05 0.4,27.7 0.45,24.65 0.35,24.7 H 0.25 -0.1 V 24.2 L 0.3,24.1 0.45,24.05 H 0.5 L 0.55,23.7 0.7,23.45 H 0.45 L 0.25,23.4 0.15,23.35 H -0.1 v -0.8 l 0.05,-0.05 h 0.2 l 0.1,-0.05 0.2,-0.05 H 0.7 L 0.85,22.35 1,22.3 H 1.3 L 1.8,22.25 2.45,22.2 H 3.1 L 4.05,22.15 4.55,22.1 H 5 L 5.5,22.05 6.45,22 H 7.6 L 8.8,21.95 9.6,21.9 h 1.15 l 0.85,-0.05 1.05,-0.05 h 1.15 l 1.1,-0.05 0.85,-0.05 0.6,-0.05 h 0.85 0.25 L 17.2,21.6 16.9,21.55 H 16.25 L 15.75,21.5 15.2,21.45 H 14.45 L 13.8,21.4 13.3,21.35 H 12.9 L 12.55,21.3 11.8,21.25 H 11.1 L 10.35,21.2 9.9,21.15 H 9.5 L 8.8,21.1 7.9,21.05 h -1 L 6.05,21 5,20.95 4.25,21 4.05,21.05 H 2.85 2.65 L 2.25,21 1.95,20.95 1.75,20.9 1.6,20.8 v -0.1 -0.1 -0.1 l 0.1,-0.1 0.1,-0.1 h 0.15 l 0.3,-0.05 0.4,-0.05 h 0.2 L 3.95,20.1 4.15,20.05 5,20 H 6.05 L 6.9,19.95 7.9,19.9 H 8.8 L 9.5,19.85 9.9,19.8 h 0.45 l 0.75,-0.05 0.7,-0.05 0.75,-0.05 h 0.35 l 0.4,-0.05 0.5,-0.05 h 0.65 l 0.75,-0.05 0.55,-0.05 h 0.5 l 0.65,-0.05 0.3,-0.05 h 0.3 l 0.55,-0.05 0.7,-0.05 h 0.45 l 0.4,-0.05 0.55,-0.05 H 21 l 0.5,-0.05 0.45,-0.05 H 22.8 L 23.5,19 24.9,18.95 h 1.05 L 26.2,18.9 h -0.25 l -0.3,-0.05 H 25.4 L 24.95,18.8 24.25,18.75 23.5,18.7 H 23.1 L 22.55,18.65 22,18.6 H 21.3 L 20.45,18.55 19.2,18.5 H 18.55 L 18.05,18.45 17.4,18.4 H 16.95 L 16.35,18.35 15.1,18.3 H 14 L 13.2,18.25 12.55,18.2 h -0.5 L 11.3,18.15 10.85,18.1 h -0.5 L 10.05,18.05 9.6,18 9.5,17.9 v -0.1 -0.15 l 0.1,-0.1 0.45,-0.05 0.3,-0.05 h 0.5 l 0.45,-0.05 0.75,-0.05 h 0.5 L 13.2,17.3 14,17.25 h 1.1 l 1.25,-0.05 0.6,-0.05 h 0.45 l 0.65,-0.05 0.5,-0.05 H 19.2 L 20.45,17 21.3,16.95 H 22 l 0.55,-0.05 0.55,-0.05 h 0.4 l 0.75,-0.05 0.7,-0.05 0.45,-0.05 h 0.25 l 0.3,-0.05 0.5,-0.05 h 0.65 l 0.2,-0.05 0.1,-0.05 h 0.15 l 0.25,-0.05 0.15,-0.05 h 0.1 l 0.2,-0.05 0.1,-0.05 h 0.3 l 0.3,-0.05 H 29.4 V 16.2 h 0.35 l 0.3,0.05 0.15,0.05 0.2,0.05 0.25,0.1 0.15,0.1 0.1,0.1 0.1,0.1 0.1,0.1 0.05,0.1 0.05,0.1 0.05,0.1 0.05,0.1 0.05,0.1 v 0.1 l 0.05,0.1 v 0.1 0.15 0.1 0.1 l -0.05,0.1 v 0.1 l -0.05,0.1 -0.05,0.1 -0.05,0.1 -0.05,0.1 -0.05,0.1 -0.1,0.1 -0.1,0.1 -0.1,0.1 -0.15,0.1 -0.1,0.05 0.1,0.05 M 16.2,5.4 15.95,6.05 15.55,6.65 14.5,7 13.4,6.65 12.85,6.35 12.65,5.8 Q 12.7,5.5 12.9,5.3 13.1,5.05 13.6,5.05 l 0.75,0.1 q 0.05,-0.4 0.55,-0.7 l 0.9,-0.2 q 0.45,0.1 0.55,0.3 L 16.2,5.4 M 12,14.75 11.25,14.9 10.45,14.75 9.3,14.4 Q 8.7,14 8.95,13.25 q 0.3,-0.75 1,-0.65 l 0.4,-0.05 0.2,-0.3 0.65,-0.55 0.35,-0.4 0.6,-0.15 0.55,0.4 q 0.35,0.45 0.15,1.3 L 12.35,14.1 12,14.75 M 3.5,23.8 h 0.55 l 0.5,-0.05 -0.5,-0.05 h -0.6 v 0.1 H 3.5 m 23.8,12.6 1.25,0.05 0.4,0.05 0.25,0.1 0.1,0.1 0.15,0.15 0.1,0.1 0.05,0.1 0.1,0.1 0.05,0.1 0.05,0.1 0.05,0.1 v 0.1 l 0.05,0.1 v 0.1 0.1 0.1 0.1 l -0.05,0.1 v 0.1 l -0.05,0.1 -0.05,0.1 -0.05,0.1 -0.1,0.1 -0.05,0.1 -0.1,0.1 -0.15,0.1 -0.1,0.1 -0.25,0.1 -0.4,0.1 H 27.3 26.05 22.9 L 22.35,39.2 22.1,39.15 H 21.75 L 20.9,39.1 20.35,39.05 H 19.9 L 19.3,39 19.05,38.95 h -0.5 L 17,38.9 16.35,38.85 H 15.5 L 14.9,38.8 14,38.75 13.1,38.7 H 12.05 L 9.1,38.65 7.8,38.6 H 6.55 L 5.9,38.55 5.2,38.5 H 4.45 L 2.85,38.45 2.25,38.4 H 1.75 L 1.7,38.45 1.5,38.5 H 1.4 L 1.2,38.45 H 1 L 0.95,38.5 H 0.8 0.75 L 0.5,38.45 0.4,38.35 0.35,38.25 v -0.1 l -0.05,-0.1 0.05,-0.1 v -0.1 l 0.1,-0.1 0.15,-0.1 0.25,-0.1 h 0.2 l 0.25,-0.1 0.2,-0.1 0.25,-0.05 0.5,-0.05 h 0.6 L 4.45,37.2 5.2,37.15 H 5.9 L 6.55,37.1 7.8,37.05 H 9.1 L 12.05,37 13.1,36.95 H 12.35 L 11,36.9 10.35,36.85 H 9.75 L 9.1,36.8 7.95,36.75 6.65,36.7 H 5.75 L 5.2,36.65 4.8,36.6 H 4.35 L 4.15,36.55 3.85,36.5 H 3.6 L 3.5,36.45 3.35,36.4 3.1,36.35 2.8,36.3 H 2.65 2.55 L 2.25,36.2 2.05,36.1 1.95,36 1.85,35.9 V 35.8 L 1.8,35.7 V 35.6 L 1.75,35.5 1.8,35.4 v -0.1 l 0.05,-0.1 0.1,-0.1 0.1,-0.1 0.1,-0.1 0.2,-0.05 0.2,-0.1 0.3,-0.05 H 3.1 L 3.35,34.65 3.5,34.6 h 0.1 l 0.25,-0.05 0.3,-0.05 h 0.2 L 4.8,34.45 5.2,34.4 h 0.55 l 0.9,-0.05 1.3,-0.05 H 9.1 l 0.65,-0.05 0.6,-0.05 H 11 l 1.35,-0.05 1.55,-0.05 h 1.7 L 16.65,34.05 19.9,34 h 2.15 l 0.6,-0.05 H 23.7 V 33.9 h 0.85 L 25.7,33.95 26,34 h 0.15 l 0.2,0.1 0.2,0.1 0.2,0.1 0.15,0.1 0.1,0.1 0.15,0.1 0.05,0.1 0.1,0.1 0.05,0.1 0.05,0.1 0.05,0.1 0.05,0.1 v 0.1 0.1 0.1 0.1 0.1 0.1 0.1 l -0.05,0.1 -0.05,0.1 -0.05,0.1 -0.05,0.1 -0.1,0.1 h 0.1 m -2.75,2.95 h 3.3 l 0.3,0.05 0.3,0.05 0.25,0.1 0.2,0.1 0.1,0.15 0.1,0.1 0.1,0.1 0.1,0.1 v 0.1 l 0.1,0.1 v 0.1 l 0.05,0.1 0.05,0.1 v 0.1 0.1 0.1 0.1 0.1 l -0.05,0.1 -0.05,0.1 -0.05,0.1 -0.05,0.1 -0.05,0.1 -0.05,0.1 -0.1,0.1 -0.1,0.1 -0.2,0.1 -0.2,0.1 -0.15,0.1 h -0.1 l -0.2,0.05 -0.3,0.05 h -3.3 l -0.5,-0.05 -0.3,-0.05 H 23.2 L 22.9,42.15 22.6,42.1 H 22.35 L 22.05,42.05 21.1,42 H 20.35 L 20,41.95 19.75,41.9 H 19.5 L 19.2,41.85 18.55,41.8 h -0.6 L 17.3,41.75 16.95,41.7 16.55,41.65 h -0.4 L 15.95,41.6 15.7,41.55 H 15.5 L 15.2,41.5 14.95,41.45 h -0.4 l -0.5,-0.05 h -0.3 -0.3 -0.15 l -0.2,0.05 H 12.9 L 12.55,41.4 12.15,41.35 H 11.2 10.25 L 9.2,41.3 8.45,41.25 H 5.2 L 4,41.2 3.1,41.15 H 2.65 L 2.15,41.1 1.8,41.05 0.8,41 0.7,40.9 0.65,40.8 0.75,40.7 0.9,40.6 H 1.8 L 2.15,40.55 2.65,40.5 H 3.1 L 4,40.45 5.2,40.4 H 8.45 L 9.2,40.35 10.25,40.3 h 2.7 0.8 l 0.3,-0.05 0.5,-0.05 h 0.4 l 0.25,-0.05 0.3,-0.05 h 0.2 l 0.25,-0.05 0.2,-0.05 h 0.4 l 0.4,-0.05 0.35,-0.05 h 0.65 l 0.6,-0.05 0.65,-0.05 h 0.3 L 19.75,39.75 20,39.7 20.35,39.65 h 0.75 l 0.95,-0.05 0.3,-0.05 h 0.25 l 0.3,-0.05 0.3,-0.05 h 0.55 l 0.3,-0.05 h 0.5 v -0.05 m 3.8,3.25 h 0.75 0.3 l 0.2,0.1 0.15,0.1 0.2,0.1 0.1,0.1 0.1,0.1 0.05,0.1 0.05,0.1 0.05,0.1 0.05,0.1 v 0.1 0.1 0.1 0.1 0.1 0.1 l -0.05,0.1 -0.05,0.1 v 0.1 l -0.1,0.1 -0.05,0.1 -0.1,0.1 -0.15,0.15 -0.1,0.1 L 29.6,45 29.5,45.05 H 29.4 L 29.1,45.1 H 28.35 L 28.1,45.05 H 27.85 L 27.6,45 27.5,44.95 H 27.3 L 27.1,44.9 26.95,44.85 h -0.3 L 25.4,44.8 24.8,44.75 24.45,44.7 h -0.4 L 23.6,44.65 23.1,44.6 h -0.2 l -0.25,-0.05 -0.2,-0.05 h -0.2 L 21.1,44.45 20.35,44.4 H 19.7 L 18.85,44.35 18.35,44.3 H 18.2 L 18.05,44.25 17.95,44.2 H 17.8 L 17.5,44.15 17.3,44.1 H 17.2 16.9 L 16.75,44 16.7,43.9 16.75,43.8 16.8,43.65 16.9,43.6 17,43.55 17.2,43.5 17.4,43.45 h 0.1 l 0.05,0.05 h 0.25 l 0.15,-0.05 h 0.1 l 0.15,-0.05 0.15,-0.05 h 0.5 l 0.85,-0.05 0.65,-0.05 h 0.75 l 1.15,-0.05 0.2,-0.05 h 0.2 l 0.25,-0.05 0.2,-0.05 h 0.5 l 0.45,-0.05 0.4,-0.05 h 0.35 l 0.6,-0.05 1.25,-0.05 h 0.3 l 0.15,-0.05 0.2,-0.05 0.2,-0.05 h 0.1 l 0.25,-0.05 0.25,-0.05 h 0.25"
         fill="#999999"
         fill-rule="evenodd"
         stroke="none"
         id="path4" />
      <path
         d="m 63.15,23.4 q 0,1 -0.85,1.5 l -1.75,-0.1 q -0.95,-0.7 -0.7,-1.85 0.25,-1.1 1.4,-1.3 1.15,-0.15 1.7,0.9 l 0.2,0.85 M 51.7,23.15 q 0.15,0.65 -0.2,1.25 l -1,0.85 -1.3,0.05 q -0.65,-0.2 -1,-0.85 -0.35,-0.6 -0.25,-1.3 0.1,-0.65 0.65,-1.15 0.55,-0.45 1.2,-0.45 0.7,0 1.25,0.45 0.55,0.5 0.65,1.15 m 2.25,5.25 q -0.9,-0.2 -1.45,-0.6 -0.7,-0.5 -0.7,-1.3 l 0.2,-0.65 0.65,-0.1 0.3,0.55 1,0.65 1.2,-0.3 0.6,-0.4 0.6,-0.15 q 0.35,0.05 0.65,0.4 l 0.5,0.6 1.65,-0.05 0.45,-0.55 q 0.4,-0.3 0.65,-0.15 0.6,0.25 0.15,1 -0.45,0.95 -1.65,1.3 -1.1,0.25 -2.1,-0.45 L 56.1,27.85 q -0.15,0 -0.75,0.35 l -1.4,0.2"
         fill="#ffffff"
         fill-rule="evenodd"
         stroke="none"
         id="path5" />
      <path
         d="m 43.1,31.85 q -0.85,1.9 -2.3,3.2 -2.9,2.65 -8.05,2.55 l -2.5,-0.3 -0.2,-0.05 q 0.65,1.35 0.95,3.1 l 0.15,1.3 q -0.05,1.05 -0.5,1.85 l -0.05,0.55 q -0.15,0.7 -0.7,1.25 -0.55,0.5 -1.25,0.6 -1.5,0.25 -2.5,-1.1 -0.85,-1.25 -0.35,-2.75 l 0.8,-1.3 -0.05,-0.2 -0.5,-1.2 -1.5,-2 -0.4,-0.6 -2.45,-0.85 -3,-0.15 -2.55,0.25 -0.95,0.25 q 0.55,1.2 0.75,2.5 0.25,1.65 -0.4,2.65 l -1,0.95 -3.85,2.5 -1,0.45 Q 8.7,45.55 8,44.8 L 7.35,44.05 q -0.25,-0.6 0,-1.35 0.35,-1 1.4,-1.9 0.75,-0.6 1.7,-1.05 L 11.35,39.1 10.8,37.85 Q 8.5,38.7 6.95,38.8 4.2,39 2.6,37.3 l -2.7,1.05 V 33.9 L 1.3,33.3 V 32.75 Q 1.45,30.9 2.45,29.2 L 1.85,26.1 1.15,22.6 Q 0.7,21.1 -0.1,19.8 V 11.3 L 1,11.45 Q 2.75,12 3.95,14 q 0.85,1.35 1.3,3.3 l 0.65,3.6 q 0.35,1.9 0.3,3.25 l -0.05,1 Q 9.7,22.8 14.5,22.9 l 3.6,0.4 q 2.85,0.55 4.9,1.65 l 0.05,-0.2 Q 23.7,22.3 25.7,20.2 l 1.15,-1.05 -1.25,-1.2 q -0.5,-0.75 -0.2,-1.55 0.2,-0.8 1.1,-1.15 l 1.25,-0.15 3.85,0.45 1.7,0.55 0.75,0.45 0.2,0.15 1.15,0.25 q 0.7,0.2 2.9,1.25 l 2.5,1.45 q 2.15,1.65 2.9,4.15 0.8,2.35 0.2,5.5 l -0.25,1.15 q -0.2,-0.35 -0.45,-0.4 -0.35,-0.1 -1.1,0.45 -1,0.8 -2,0.8 -1.3,0.1 -1.85,-0.9 l -0.6,-0.7 q -0.45,0 -0.55,0.45 l 0.1,0.7 q 0.4,0.95 1.35,1.55 0.95,0.6 2,0.5 1,-0.05 2.2,-0.8 L 43.1,31.85 M 41.6,25.2 q -0.5,-0.55 -1.25,-0.65 -0.8,-0.15 -1.45,0.25 -0.6,0.4 -0.85,1.15 -0.25,0.75 0.05,1.4 0.25,0.7 0.95,1.05 l 1.4,0.25 Q 41.7,28.4 42,27.25 42.4,26.15 41.6,25.2"
         fill="#000000"
         fill-rule="evenodd"
         stroke="none"
         id="path6" />
      <path
         d="m 43.65,30.45 v 0.05 0.65 l -0.55,0.7 -0.35,0.25 q -1.2,0.75 -2.2,0.8 -1.05,0.1 -2,-0.5 -0.95,-0.6 -1.35,-1.55 l -0.1,-0.7 q 0.1,-0.45 0.55,-0.45 l 0.6,0.7 q 0.55,1 1.85,0.9 1,0 2,-0.8 0.75,-0.55 1.1,-0.45 0.25,0.05 0.45,0.4 M 41.6,25.2 q 0.8,0.95 0.4,2.05 -0.3,1.15 -1.55,1.4 l -1.4,-0.25 q -0.7,-0.35 -0.95,-1.05 -0.3,-0.65 -0.05,-1.4 0.25,-0.75 0.85,-1.15 0.65,-0.4 1.45,-0.25 0.75,0.1 1.25,0.65"
         fill="#ffffff"
         fill-rule="evenodd"
         stroke="none"
         id="path7" />
    </g>
    <g
       id="shape2"
       transform="translate(1.5,1.5)">
      <path
         d="M 0,23.8 V 0 H 64.1 V 23.8 57.55 H 0 Z"
         fill="none"
         stroke="#000000"
         stroke-linecap="round"
         stroke-linejoin="round"
         stroke-width="3"
         id="path8" />
    </g>
  </defs>
</svg>
