<?xml version="1.0" encoding="UTF-8" standalone="no"?>
<svg
   ffdec:objectType="frame"
   height="44.349998"
   width="78.599998"
   version="1.1"
   id="svg11"
   sodipodi:docname="381.svg"
   xmlns:inkscape="http://www.inkscape.org/namespaces/inkscape"
   xmlns:sodipodi="http://sodipodi.sourceforge.net/DTD/sodipodi-0.dtd"
   xmlns:xlink="http://www.w3.org/1999/xlink"
   xmlns="http://www.w3.org/2000/svg"
   xmlns:svg="http://www.w3.org/2000/svg"
   xmlns:ffdec="https://www.free-decompiler.com/flash">
  <sodipodi:namedview
     id="namedview11"
     pagecolor="#ffffff"
     bordercolor="#000000"
     borderopacity="0.25"
     inkscape:showpageshadow="2"
     inkscape:pageopacity="0.0"
     inkscape:pagecheckerboard="0"
     inkscape:deskcolor="#d1d1d1"
     fit-margin-top="5"
     fit-margin-left="5"
     fit-margin-right="5"
     fit-margin-bottom="5" />
  <g
     transform="translate(2,2.05)"
     id="g3">
    <use
       ffdec:characterId="1"
       height="42.700001"
       transform="translate(-1.75,-2)"
       width="76.449997"
       xlink:href="#shape0"
       id="use1" />
    <use
       ffdec:characterId="363"
       height="39.799999"
       transform="translate(-1.7,2.35)"
       width="77.400002"
       xlink:href="#shape1"
       id="use2" />
    <use
       ffdec:characterId="3"
       height="44.349998"
       transform="translate(-2,-2.05)"
       width="78.599998"
       xlink:href="#shape2"
       id="use3" />
  </g>
  <defs
     id="defs11">
    <g
       id="shape0"
       transform="translate(1.75,2)">
      <path
         d="M 2.8,0 V -0.4 H 5.4 V 0 H 9.7 V 19.45 0 H 20.55 L 19.3,19.45 H 9.7 0.25 V 0 H 2.8"
         fill="#ffffff"
         fill-rule="evenodd"
         stroke="none"
         id="path3" />
      <path
         d="M 0.25,19.45 H 9.7 19.3 L 18.7,28.6 16,28.5 10.95,27.95 9.7,27.8 Q 7.45,27.6 5.85,27.75 4.05,27.9 1.5,28.6 0.75,28.8 0.25,29.15 v -9.7 m 9.45,0 v 8.35 -8.35"
         fill="#121212"
         fill-rule="evenodd"
         stroke="none"
         id="path4" />
      <path
         d="m 9.7,27.8 1.25,0.15 5.05,0.55 2.7,0.1 h 1.05 l 3.75,0.15 q 2.45,0.3 3.6,1.25 0.6,0.5 0.6,1.1 0,0.65 -0.8,1 l -1.3,0.2 -7.15,0.15 -5.6,-0.3 L 9.7,31.75 7.95,31.6 3.1,31.95 0.95,32.3 0.25,32.1 -0.35,31.55 -0.5,31.3 V 29.9 L 0.25,29.15 Q 0.75,28.8 1.5,28.6 4.05,27.9 5.85,27.75 7.45,27.6 9.7,27.8 v 3.95 -3.95"
         fill="#999999"
         fill-rule="evenodd"
         stroke="none"
         id="path5" />
      <path
         d="M 2.8,0 H 0.25 M 9.7,0 H 5.4 m 16.15,0 h 10.7 M 20.55,0 H 9.7"
         fill="none"
         stroke="#666666"
         stroke-linecap="round"
         stroke-linejoin="round"
         stroke-width="4"
         id="path6" />
      <path
         d="m 9.7,-0.4 h 65 V 40.5 H 47.05 L 45.5,40.7 27,40.65 25.95,40.5 H 9.7 -0.5 V -0.4 H 9.7 V 40.5 -0.4"
         fill="#ffffff"
         fill-rule="evenodd"
         stroke="none"
         id="path7" />
    </g>
    <g
       id="shape1"
       transform="translate(1.7,-2.35)">
      <path
         d="m 61.7,11.7 q 0.65,-1 1.6,-1 0.45,0.05 0.85,0.4 l 0.4,0.8 v 0.8 l -0.1,1.4 -0.4,1.2 -1.2,0.65 q -0.65,0 -1.25,-0.5 -0.4,-0.5 -0.5,-1.25 -0.15,-1.4 0.6,-2.5 m -2.05,6.9 -0.35,0.4 -0.45,0.2 -2.45,0.65 -0.65,0.25 -0.4,0.25 -0.4,0.2 1.7,-0.1 q 1.8,-0.3 3.35,-1.3 0.7,-0.5 1.1,-0.65 0.75,-0.25 1.2,0.2 0.5,0.5 0.1,1.25 l -0.9,0.95 -0.8,0.5 -0.75,0.25 -2.8,0.65 -1,0.1 h -3.3 L 51.7,22.2 Q 51,21.95 51,21.3 q -0.05,-0.35 0.25,-0.65 0.25,-0.3 0.65,-0.3 l 0.75,0.05 1.15,0.15 q -0.5,-0.2 -0.85,-0.7 -0.45,-0.65 -0.2,-1.5 0.25,-0.85 1.1,-1.2 l 4.5,-0.35 q 0.6,0 0.9,0.25 l 0.5,0.7 -0.1,0.85 m 8.8,6.1 q 0.4,-0.35 1,-0.25 0.55,0.15 0.8,0.65 l 0.15,0.85 -0.4,0.7 -1.6,0.05 q -0.5,-0.4 -0.5,-1.05 0.1,-0.7 0.55,-0.95 m -14,-11.5 q -0.55,0 -0.85,-0.4 L 53.25,11.65 53.1,11.3 53.05,10.95 52.85,10.55 52.65,9.35 52.5,9 52.45,8.5 52.1,7.25 Q 52,6.55 52.5,6.15 53,5.65 53.6,5.7 q 0.65,-0.05 1.2,0.55 0.3,0.5 0.3,1.65 l -0.1,4.5 -0.15,0.5 -0.4,0.3 M 49.6,13.8 48.75,13.25 Q 47.65,12.9 47.2,12.55 46.7,12.2 46.6,11.45 46.55,10.75 47,10.3 47.45,9.8 48.15,9.85 48.9,9.9 49.3,10.4 l 0.45,0.75 0.75,0.9 0.7,0.85 q 0.35,0.55 0.15,0.85 -0.2,0.4 -0.9,0.3 L 49.6,13.8 M 17.6,25 q 0.1,1.05 -0.4,2.05 L 16.6,28 q 0.7,0.15 1.05,0.55 l 0.45,0.7 q 0.95,2.05 1.45,4.05 0.3,1.35 0,2.05 l 0.25,0.3 1.35,0.15 2.55,-0.45 2.55,-0.05 1.25,0.15 1.3,-0.85 q 2.95,-2.6 5.9,-2.7 l 0.05,-1.75 0.2,-0.9 q 0.3,-0.85 1.8,-1.4 3.8,-1.4 7.95,-1.5 1.45,0 2.05,0.5 0.7,0.6 0.8,2 l -0.05,2 -0.05,0.7 2.9,-0.3 q 4.15,0.5 6.15,1.5 1.3,0.6 1.6,1.45 l -0.05,1.4 -0.45,1.45 -0.2,2 0.25,-0.5 0.2,-0.65 0.45,-0.7 0.5,-0.5 q 0.75,-0.6 1.7,-0.45 l 0.65,0.15 0.55,0.05 0.65,0.3 0.6,0.75 0.2,0.95 -0.55,1.25 -0.5,0.75 -0.6,0.3 -0.3,0.05 -0.15,0.2 q -0.55,0.8 -1.2,1 -1.3,0.45 -2.2,-0.55 -0.55,-0.65 -0.5,-1.4 l -0.65,0.75 -0.95,0.2 -0.8,-0.5 -2,0.45 -2.2,-0.05 -4.3,0.25 L 41.9,41.6 38.65,41.25 37.2,40.6 34.95,40.4 19,40.65 11.55,40.4 Q 6.9,40.15 4.05,40.25 L 1.8,40.1 Q 0.5,39.85 0.1,38.8 -0.15,38.2 0,37.4 L 0.35,36 Q 1.05,33.5 0.8,29.8 L 0.2,23.45 0.05,16 Q -0.1,11.6 -1.05,8.8 l -0.6,-2 q -0.2,-1.15 0.4,-1.95 0.9,-1.1 3.35,-0.8 L 2.2,4.1 2.3,3.7 Q 2.55,3.15 3.15,2.9 L 4.25,2.8 5.2,3.4 q 0.4,0.45 0.45,1 l -0.25,1.05 0.7,1 0.75,1.95 q 0.85,2.85 0.7,4.1 -0.1,1.25 -0.95,2.95 l -1.4,2.8 q 0.7,-1.1 2.9,-0.8 l 0.6,0.1 0.4,-3.35 0.15,-0.6 0.2,-0.7 q 0.25,-0.4 0.75,-0.35 0.25,-0.2 0.9,-0.45 l 1.05,-0.3 1.05,0.15 q 0.45,0.35 0.5,0.85 l -0.35,0.9 -0.85,0.35 -1.25,0.2 v 0.35 l -0.35,3.4 1.05,0.3 q 1.95,0.55 2.95,1.45 l 1.7,2.35 q 0.95,1.9 1,2.9 m 27.9,10.75 0.15,-0.2 Q 45.3,35.3 45.1,34.75 l -0.2,0.15 -1.3,0.9 1.9,-0.05 m 20.8,5.05 q -0.75,0 -1.3,-0.7 L 64.35,38.7 63.6,36.65 63.3,36.1 q -0.35,-1.05 0.4,-1.8 L 64.5,33.75 65.45,33.3 67.3,32.15 69.35,32 q 0.6,0.25 1,1.2 l 2.55,-1.2 1.2,-0.35 0.75,0.15 q 0.45,0.2 0.45,0.6 0.05,0.4 -0.3,0.75 l -0.7,0.5 -1.25,0.6 -1.85,1.15 -0.1,0.1 0.15,0.45 2.25,-0.75 0.95,-0.2 q 0.65,0 0.95,0.45 0.45,0.45 0.2,0.95 l -0.3,0.45 -0.45,0.35 -0.55,0.3 -1.2,0.45 -0.4,0.15 -0.2,0.2 0.1,0.25 q 0.3,1.4 -0.35,2.05 -0.4,0.4 -0.95,0.35 H 71.1 L 71,41 69.05,41.25 q -1.3,-0.65 -2,-0.6 L 66.3,40.8 m -3.7,-7.65 q -0.5,0.65 -1.35,0.4 -0.85,-0.35 -0.75,-1.2 0.1,-0.9 0.95,-1.05 0.9,-0.2 1.25,0.6 l 0.15,0.45 -0.05,0.4 -0.2,0.4 M 15.55,6.55 16.1,6.6 16.4,6.75 16.8,7.35 16.7,8.1 Q 16.35,8.9 15.45,8.7 L 14.85,8.25 Q 14.6,7.9 14.65,7.55 14.65,7.2 14.9,6.9 L 15.55,6.55 M 8.8,4.05 8.55,4.15 7.75,3.95 Q 7.25,3.6 7.4,3 L 7.85,2.5 8.8,2.45 Q 9.2,2.65 9.25,3 L 9.15,3.7 8.8,4.05"
         fill="#999999"
         fill-rule="evenodd"
         stroke="none"
         id="path8" />
      <path
         d="M 19.35,8.45 Q 21.1,7 22.9,6.25 26.05,4.85 29.7,5.4 L 32,5.95 q 0.7,-0.5 1.75,-1.1 l 1.6,-0.8 q 1.2,-0.6 1.8,-0.7 1.15,-0.2 1.85,0.5 0.5,0.55 0.5,1.9 L 39.35,7.8 39,11.35 l 0.05,0.1 q 1.4,2 1.95,3.9 1.1,4 -1.2,8.95 -1.3,2.9 -3.35,4.95 l -2,1.7 h 0.05 q 2.65,1.05 4.3,1.15 l 3.25,-0.2 q 3.8,-0.5 5.85,-1.3 3.25,-1.3 4.4,-3.9 l 0.25,-0.6 -0.3,-0.5 -0.45,-0.05 q -1.3,-0.1 -1.8,-0.6 -0.3,-0.3 -0.65,-1.3 -1.05,-2.95 -1.05,-4.7 0.1,-1 0.35,-1.4 0.25,-0.5 0.95,-1.05 3.25,-2.5 7.2,-2.55 L 56.75,13.2 q 0,-1.55 0.25,-2.3 l 0.6,-1.15 q 1.35,-2 3.25,-2.65 l 2.1,-0.2 q 1.15,0.15 1.95,0.75 l 0.45,0.5 0.25,0.6 0.5,0.55 q 0.35,0.55 0.35,1.9 l -0.15,1.95 -0.3,0.7 q -0.75,1.55 -2.05,2.5 l 0.1,0.45 0.3,2.55 -0.1,2 Q 63.8,22.85 61.8,24 l -0.65,0.35 q -0.05,0.9 -0.55,1.5 l -0.85,0.7 q -1.25,0.7 -2.4,0.9 -1.55,3.45 -3.2,5 -1.5,1.45 -4.55,2.75 l -2.45,0.9 -2.6,0.4 q -4.6,0.6 -7.05,0.05 l -2.15,-0.7 0.3,1.3 q 0.4,2 -0.05,2.95 l -0.65,0.85 h -2.9 L 31.85,40.8 31.7,40.95 H 19.85 l -2.2,-3.65 -1.3,-1.55 Q 15.5,35.2 13.9,35.3 q -1.3,0 -2.1,0.5 l -1.05,0.95 -1,1 Q 8.9,38.35 7.85,38.35 6.8,38.3 6.1,37.6 5.2,36.7 5.35,35.25 5.6,33.95 6.5,32.95 8.3,31 12.1,30.65 q 1.15,-0.15 2.3,0 l 1.8,0.55 2.95,1.65 1.1,1.45 q 0.9,1.5 1.45,3.15 l 0.65,-1.45 0.35,-1 0.4,-1.8 0.15,-0.9 q -1.15,-0.3 -2.2,-0.75 -1.7,-0.8 -3.45,-2.4 l -2.5,-2.9 q -1.15,-1.85 -1.45,-4 l -2.8,-0.3 -1.1,-0.7 Q 9.2,20.7 9.3,19.9 9.35,19.15 10.3,18 l 1.2,-1.45 3.8,-4.15 1,-0.75 q 1.25,-1.7 3.05,-3.2 m 41.9,5.9 0.95,0.2 0.3,-0.35 0.85,-1.35 q 0.35,-0.85 0.2,-1.6 l -0.55,-0.9 -0.3,-0.2 -0.8,0.1 q -0.85,0.4 -1.35,1.25 -0.5,0.9 -0.4,1.85 l 0.2,0.85 0.9,0.15 m -7.05,7.45 0.9,-0.4 3.65,-0.15 0.3,0.1 1.65,-0.75 0.4,-0.35 0.1,-0.75 -0.15,-1.1 -0.6,0.45 -0.9,0.3 -1.3,0.65 -1.15,0.25 H 56 L 53.3,20 l -0.6,-0.2 -0.1,-0.25 0.2,-0.3 3.45,-0.55 1.6,-0.45 1.35,-0.75 0.2,-0.15 -2.4,-0.1 q -3.25,0.15 -5.8,2.1 0.1,0.6 0.65,1.35 l 0.85,1.2 1.2,0.1 0.3,-0.2 m -20.9,2.5 1.05,-0.3 0.05,0.15 0.2,0.5 -0.05,0.95 -0.45,1.3 q -0.35,0.65 -1.05,0.65 L 32.3,27.45 31.5,27.3 31.05,26.8 q 0.85,-1.05 1,-2.35 L 33.3,24.3 m -4.4,1.2 q -0.95,0.95 -2.25,1.1 l -0.6,0.1 q -0.45,0.25 -0.35,0.7 l 0.6,0.7 3,0.1 1.05,0.9 q 0.7,0.5 1.2,0.6 l 1.85,0.05 0.65,-0.15 0.4,-0.25 1.25,-1.2 0.35,-1.05 0.25,-1.4 -0.1,-1 0.05,-0.6 -0.2,-0.8 0.15,-0.1 1,-0.75 1.05,-1.3 q 0.3,-0.55 0.1,-0.9 -0.15,-0.3 -0.5,-0.3 -0.3,0 -0.55,0.25 l -0.2,0.25 -0.45,0.4 q -0.9,0.6 -1.95,0.9 L 33.3,21.9 32.4,21.45 31.45,21 q -0.9,-0.3 -1.7,0.4 -0.7,0.75 -0.45,1.7 l 0.3,0.65 0.05,0.25 -0.1,0.4 -0.65,1.1 M 26.8,22.05 Q 26.7,20.9 26.05,20.1 25.2,19.25 24.2,19.1 L 23.25,19.05 22.2,19.1 Q 21.7,19.3 21.15,19.65 20.2,20.3 19.9,21 l -0.25,0.6 -0.4,1.55 Q 19.1,24 19.4,24.75 l 0.6,0.9 q 0.6,0.7 1.2,0.95 l 1.9,0.15 q 0.65,-1.65 2.05,-2.5 0.7,-0.45 1.4,-0.5 l 0.05,-0.3 0.2,-1.4 m 4.6,-7.6 -0.25,1.35 q -0.15,1.95 1.55,3.15 0.75,0.5 1.9,0.65 H 35 l 0.35,-0.55 0.95,-0.95 q 0.7,-0.55 1.55,-0.55 h 0.35 l 0.3,-1.2 Q 38.65,15.5 38.35,14.6 37.8,12.95 36,12.35 L 35.3,12.2 Q 33.45,11.9 32,13.5 l -0.6,0.95"
         fill="#000000"
         fill-rule="evenodd"
         stroke="none"
         id="path9" />
      <path
         d="M 31.4,14.45 32,13.5 q 1.45,-1.6 3.3,-1.3 l 0.7,0.15 q 1.8,0.6 2.35,2.25 0.3,0.9 0.15,1.75 l -0.3,1.2 H 37.85 Q 37,17.55 36.3,18.1 L 35.35,19.05 35,19.6 H 34.6 Q 33.45,19.45 32.7,18.95 31,17.75 31.15,15.8 l 0.25,-1.35 m -4.6,7.6 -0.2,1.4 -0.05,0.3 q -0.7,0.05 -1.4,0.5 -1.4,0.85 -2.05,2.5 L 21.2,26.6 Q 20.6,26.35 20,25.65 l -0.6,-0.9 Q 19.1,24 19.25,23.15 L 19.65,21.6 19.9,21 q 0.3,-0.7 1.25,-1.35 0.55,-0.35 1.05,-0.55 l 1.05,-0.05 0.95,0.05 q 1,0.15 1.85,1 0.65,0.8 0.75,1.95 m 2.1,3.45 0.65,-1.1 0.1,-0.4 -0.05,-0.25 -0.3,-0.65 q -0.25,-0.95 0.45,-1.7 0.8,-0.7 1.7,-0.4 l 0.95,0.45 0.9,0.45 1.4,-0.15 q 1.05,-0.3 1.95,-0.9 l 0.45,-0.4 0.2,-0.25 q 0.25,-0.25 0.55,-0.25 0.35,0 0.5,0.3 0.2,0.35 -0.1,0.9 l -1.05,1.3 -1,0.75 -0.15,0.1 0.2,0.8 -0.05,0.6 0.1,1 -0.25,1.4 -0.35,1.05 -1.25,1.2 -0.4,0.25 -0.65,0.15 -1.85,-0.05 q -0.5,-0.1 -1.2,-0.6 l -1.05,-0.9 -3,-0.1 -0.6,-0.7 q -0.1,-0.45 0.35,-0.7 l 0.6,-0.1 q 1.3,-0.15 2.25,-1.1 m 4.4,-1.2 -1.25,0.15 q -0.15,1.3 -1,2.35 l 0.45,0.5 0.8,0.15 0.75,0.1 q 0.7,0 1.05,-0.65 L 34.55,25.6 34.6,24.65 34.4,24.15 34.35,24 33.3,24.3"
         fill="#ffffff"
         fill-rule="evenodd"
         stroke="none"
         id="path10" />
    </g>
    <g
       id="shape2"
       transform="translate(2,2.05)">
      <path
         d="M -0.5,-0.4 V -0.55 H 75.1 V -0.4 40.8 H -0.5 Z"
         fill="none"
         stroke="#000000"
         stroke-linecap="round"
         stroke-linejoin="round"
         stroke-width="3"
         id="path11" />
    </g>
  </defs>
</svg>
