<?xml version="1.0" encoding="UTF-8" standalone="no"?>
<svg
   ffdec:objectType="frame"
   height="60.549999"
   width="67.099998"
   version="1.1"
   id="svg8"
   sodipodi:docname="93.svg"
   xmlns:inkscape="http://www.inkscape.org/namespaces/inkscape"
   xmlns:sodipodi="http://sodipodi.sourceforge.net/DTD/sodipodi-0.dtd"
   xmlns:xlink="http://www.w3.org/1999/xlink"
   xmlns="http://www.w3.org/2000/svg"
   xmlns:svg="http://www.w3.org/2000/svg"
   xmlns:ffdec="https://www.free-decompiler.com/flash">
  <sodipodi:namedview
     id="namedview8"
     pagecolor="#ffffff"
     bordercolor="#000000"
     borderopacity="0.25"
     inkscape:showpageshadow="2"
     inkscape:pageopacity="0.0"
     inkscape:pagecheckerboard="0"
     inkscape:deskcolor="#d1d1d1"
     fit-margin-top="5"
     fit-margin-left="5"
     fit-margin-right="5"
     fit-margin-bottom="5" />
  <g
     transform="translate(1.5,1.5)"
     id="g3">
    <use
       ffdec:characterId="516"
       height="57.549999"
       width="64.099998"
       xlink:href="#shape0"
       id="use1" />
    <use
       ffdec:characterId="605"
       height="52.049999"
       transform="translate(-0.95,5.45)"
       width="65.550003"
       xlink:href="#shape1"
       id="use2" />
    <use
       ffdec:characterId="518"
       height="60.549999"
       transform="translate(-1.5,-1.5)"
       width="67.099998"
       xlink:href="#shape2"
       id="use3" />
  </g>
  <defs
     id="defs8">
    <g
       id="shape0">
      <path
         d="M 53.6,0 H 64.1 V 57.55 H 53.6 28.25 0 V 0 H 28.25 53.6 V 57.55 0 M 28.25,0 V 57.55 0"
         fill="#ffffff"
         fill-rule="evenodd"
         stroke="none"
         id="path3" />
    </g>
    <g
       id="shape1"
       transform="translate(0.95,-5.45)">
      <path
         d="m 0.45,44.95 q 0.2,-0.4 1.05,-0.7 L 4.45,43.7 12.1,43.1 34.6,42.15 q 8.7,-0.2 16.2,0.05 v -0.05 q 1.5,-1.5 4.35,-0.7 l 2.2,0.75 1.05,0.35 2.55,0.45 0.4,0.1 0.35,0.05 q 1.2,0.25 1.7,1 l 0.75,0.7 0.45,0.95 q -0.1,0.7 -0.8,0.9 l -0.25,8.35 -0.45,1.6 q -0.45,0.6 -1.8,0.7 L 59.15,57.5 H 0.95 l -1.4,-0.55 q -0.6,-0.6 -0.5,-2.3 Q -0.7,50.4 0,46.45 L 0.4,45.3 0.45,44.95 m 10.5,-33.2 -0.4,0.05 -0.25,-0.45 0.3,-0.5 q 1,-1.2 2.75,-2.25 0.9,-0.6 1.65,-0.85 3.6,-1.5 7.5,0.55 3.15,1.65 5.5,5.35 1.25,2.05 2.5,5.35 l 5.55,-6.9 -0.65,0.5 v -0.2 l 0.55,-0.3 1.1,-0.05 q 1,0.15 1.55,0.95 0.5,0.85 0.2,1.7 -0.25,0.7 -1.7,1.8 l -3.5,2.85 -1.1,1.1 -0.45,0.8 -0.45,1 q 0.35,1.7 -0.3,2.65 -0.5,0.95 -1.7,1.15 -1.15,0.2 -2,-0.5 -0.85,-0.75 -1.35,-2.9 -1.6,-6.5 -4.55,-9.45 l -2.15,-1.7 q -1.7,-1.25 -3.1,-1.45 -1.25,-0.15 -2.8,0.45 l -2.7,1.25"
         fill="#999999"
         fill-rule="evenodd"
         stroke="none"
         id="path4" />
      <path
         d="m 61,26.55 q 0.85,1.75 0.3,4.5 l -0.45,1.35 0.85,0.2 q 0.9,0.3 1.7,1 l 0.8,1 V 46 l -0.1,0.05 -1.8,0.45 -2.9,0.25 q -1.65,-0.05 -2.8,-0.6 -1.65,-0.85 -2.7,-2.65 -1.15,-1.95 -1.25,-4.1 0,-1.4 0.5,-2.55 l -2.7,-0.2 Q 47.45,36 45.85,33.55 44.15,31 45,28.1 L 45.15,27.8 45,27.7 q -0.8,-0.6 -1.2,-1.55 -0.4,-1 -0.2,-1.9 0.2,-0.9 1.05,-1.95 0.9,-1.15 1.8,-1.6 l 1.7,-0.35 0.9,0.15 q 1.1,0.3 1.6,0.75 l 0.4,0.4 2,-0.3 2,0.1 1.65,-1.7 q 1.1,-0.85 2.6,-0.4 1.8,0.5 2.55,2.2 l 0.4,1.2 0.1,1.1 q 0,0.75 -0.85,2 l -0.5,0.6 v 0.1 M 48.1,26.3 46.85,26.45 q -0.6,0.25 -0.95,0.8 -0.35,0.55 -0.35,1.2 0,0.7 0.35,1.2 l 0.95,0.8 1.25,0.15 q 1.4,-0.25 1.75,-1.65 0.2,-0.85 -0.3,-1.7 Q 49,26.45 48.1,26.3 m 7.2,3.3 q 1.15,0.25 1.95,-0.55 0.55,-0.55 0.65,-1.4 0.05,-0.85 -0.45,-1.5 Q 57,25.5 56.15,25.35 55.3,25.2 54.6,25.6 q -0.7,0.4 -0.95,1.25 -0.25,0.8 0.1,1.5 0.15,0.5 0.65,0.85 0.4,0.35 0.9,0.4 M 25.5,37.3 Q 24.15,36.35 23.4,34.8 22.6,33.3 22.6,31.65 L 21.55,31.2 20.4,30.3 Q 19.35,28.95 19.7,26.7 L 20,25.5 q 0.55,-1.1 1.5,-1.75 0.5,-0.4 0.95,-0.6 1.05,-0.5 2.4,-0.25 1.05,0.25 1.85,0.95 l 0.5,0.5 q 0.9,-0.45 1.95,-0.8 l 1.35,-0.3 q 0,-0.4 0.15,-0.7 0.55,-2.05 2.6,-3.05 1.2,-0.6 2.55,-0.55 1.5,0.15 2.45,1 1,0.9 1.35,2.35 0.25,1.35 -0.25,2.7 l -0.55,1.1 -0.75,0.95 0.1,0.4 q 0.6,1.55 0.5,3.8 L 38.3,33.5 q -0.55,2.1 -2.1,3.55 1.15,1 1.95,2.45 L 39,42.15 h 0.55 l 1.5,0.25 1,0.4 0.8,0.85 0.75,1.4 0.35,1.05 0.95,-0.75 0.35,-1.2 0.25,-1.1 q 0.35,-0.65 0.95,-0.5 0.35,0.1 0.6,0.9 0.55,2.05 -0.5,3.45 -0.75,1 -2.05,1.3 l -2,-0.1 Q 41.8,47.7 41.35,46.75 L 40.6,45.6 q -0.75,-0.55 -1.65,0.25 l -0.65,0.65 -0.55,0.7 -0.55,0.85 -1.6,1.3 q -1.6,1.1 -2.55,1.35 l -2.4,0.25 -3.7,-0.6 q -2.7,-1.05 -3.85,-3.55 -1.15,-2.45 -0.25,-5.15 0.6,-1.7 2.7,-4 L 25.75,37.5 25.5,37.3 M 37.05,11 q 0.95,-0.15 1.75,0.4 0.65,0.4 0.95,1.15 0.3,0.75 0.2,1.5 -0.25,1.65 -1.9,2.15 -0.7,0.25 -1.4,0 -0.75,-0.25 -1.3,-1 -0.85,-1.25 -0.3,-2.6 0.55,-1.45 2,-1.6 M 4.7,27.4 6.3,27.3 7.2,26.55 Q 8.5,25.7 9.65,25.5 l 2.6,0.2 q 1.7,0.7 2.35,2.45 0.6,1.8 -0.1,3.45 -0.4,1 -1.2,1.75 0.5,1.55 0.5,3.1 0,3.35 -2,5.55 -1.1,1.3 -2.8,2.05 l 0.5,0.85 q 1.4,2.65 1.05,7.2 l -0.2,1.6 Q 9.8,55.8 8.05,57.35 L 7.95,57.45 7.9,57.5 H -0.45 V 26.35 l 0.5,0.05 1.4,0.4 1,0.75 0.45,0.4 Q 3.8,27.6 4.7,27.4 m 20.5,5.75 0.15,0.25 0.6,-0.3 1.45,-0.2 1.65,0.1 0.15,-0.65 Q 29.35,31.6 28.95,30.95 28.55,30.3 27.85,30 L 26.4,29.95 q -0.6,0.2 -1.05,0.75 -0.4,0.55 -0.5,1.2 -0.05,0.65 0.35,1.25 m 7.9,2.85 0.7,0.1 Q 34.25,35.85 33.95,35.25 33.8,35 33.2,34.7 L 32.7,34.4 32.6,34.15 V 34.1 l -0.1,-0.75 -0.25,-0.55 -0.6,-0.55 -0.35,-0.15 -0.4,0.2 -0.25,0.5 v 1.05 l 0.1,0.35 -0.2,0.2 -0.7,0.75 -0.5,0.45 -0.3,0.55 0.05,0.55 0.5,0.45 0.55,-0.3 1.4,-1.15 Q 31.8,35.55 32,35.45 L 33.1,36 m 4.1,-6.65 q 0.65,-1.5 -0.3,-2.8 -0.95,-1.3 -2.6,-1.05 -0.75,0.1 -1.3,0.6 -0.65,0.5 -0.85,1.2 -0.35,0.95 0.15,2 0.45,1 1.4,1.4 l 2,-0.05 q 1.05,-0.4 1.5,-1.3"
         fill="#000000"
         fill-rule="evenodd"
         stroke="none"
         id="path5" />
      <path
         d="m 55.3,29.6 q -0.5,-0.05 -0.9,-0.4 -0.5,-0.35 -0.65,-0.85 -0.35,-0.7 -0.1,-1.5 0.25,-0.85 0.95,-1.25 0.7,-0.4 1.55,-0.25 0.85,0.15 1.3,0.8 0.5,0.65 0.45,1.5 -0.1,0.85 -0.65,1.4 -0.8,0.8 -1.95,0.55 m -7.2,-3.3 q 0.9,0.15 1.45,0.95 0.5,0.85 0.3,1.7 -0.35,1.4 -1.75,1.65 l -1.25,-0.15 -0.95,-0.8 q -0.35,-0.5 -0.35,-1.2 0,-0.65 0.35,-1.2 0.35,-0.55 0.95,-0.8 L 48.1,26.3 m -10.9,3.05 q -0.45,0.9 -1.5,1.3 l -2,0.05 q -0.95,-0.4 -1.4,-1.4 -0.5,-1.05 -0.15,-2 0.2,-0.7 0.85,-1.2 0.55,-0.5 1.3,-0.6 1.65,-0.25 2.6,1.05 0.95,1.3 0.3,2.8 M 33.1,36 32,35.45 q -0.2,0.1 -0.45,0.25 l -1.4,1.15 -0.55,0.3 -0.5,-0.45 -0.05,-0.55 0.3,-0.55 0.5,-0.45 0.7,-0.75 0.2,-0.2 -0.1,-0.35 V 32.8 l 0.25,-0.5 0.4,-0.2 0.35,0.15 0.6,0.55 0.25,0.55 0.1,0.75 v 0.05 l 0.1,0.25 0.5,0.3 q 0.6,0.3 0.75,0.55 0.3,0.6 -0.15,0.85 L 33.1,36 m -7.9,-2.85 q -0.4,-0.6 -0.35,-1.25 0.1,-0.65 0.5,-1.2 0.45,-0.55 1.05,-0.75 L 27.85,30 q 0.7,0.3 1.1,0.95 0.4,0.65 0.25,1.4 L 29.05,33 27.4,32.9 l -1.45,0.2 -0.6,0.3 -0.15,-0.25"
         fill="#ffffff"
         fill-rule="evenodd"
         stroke="none"
         id="path6" />
      <path
         d="m 58.45,10.25 -0.3,0.7 -0.4,0.3 -1.05,0.7 -1.55,0.55 q -0.9,0.25 -1.05,0.6 0.35,0.35 0.1,0.7 -0.25,0.45 -0.7,0.25 l -0.4,-0.5 -0.2,-0.65 -0.05,-0.6 q 0,-0.2 0.25,-0.45 L 53.55,11.2 53.9,10.8 54.55,10.35 55.6,9.75 56.35,8.8 Q 56.15,8.35 55.75,8.25 55.3,8.15 54.95,8.5 L 54.65,9 q -0.35,0.5 -1,0.6 -0.7,0 -1.15,-0.45 L 52.1,8.35 52.05,7.6 q 0.1,-1.05 1.15,-1.7 0.85,-0.45 2.1,-0.45 1.2,0.1 2,0.55 l 0.6,0.5 0.4,0.65 0.4,1.3 -0.25,1.8 m -6.3,8.15 q -0.55,-0.7 -0.3,-1.4 0.25,-1.15 1.4,-1.25 l 0.95,0.2 0.7,0.7 q 0.25,0.55 0.05,1.15 l -0.65,0.95 -1.15,0.2 q -0.6,-0.1 -1,-0.55 M 8.5,13.7 8.6,14.5 8.5,16.15 Q 8.15,17.1 7.3,17.7 l -1.75,0.85 q -0.7,0.2 -0.85,0.5 L 4.75,19.7 4.95,20.3 4.7,20.8 4.05,20.65 3.45,20.05 3.3,19.4 3.2,18.55 Q 3.15,17.4 4.2,16.6 L 5.9,15.5 Q 6.5,14.9 6.2,14.35 6.05,13.95 5.5,13.95 L 4.7,14.1 Q 4.6,15 4.15,15.45 3.55,16.05 2.8,15.8 2,15.55 1.85,14.75 l 0.1,-1.05 0.45,-1 0.75,-0.6 1.15,-0.55 h 1.3 q 1.2,0.1 1.7,0.55 l 0.75,0.85 0.45,0.75 m -4.9,9.9 q 0.45,-0.7 1.25,-0.6 0.8,0.1 1,0.9 0.25,0.8 -0.4,1.3 Q 5,25.6 4.4,25.45 3.5,25.25 3.4,24.3 l 0.2,-0.7"
         fill="#999999"
         fill-rule="evenodd"
         stroke="none"
         id="path7" />
    </g>
    <g
       id="shape2"
       transform="translate(1.5,1.5)">
      <path
         d="M 0,23.8 V 0 H 64.1 V 23.8 57.55 H 0 Z"
         fill="none"
         stroke="#000000"
         stroke-linecap="round"
         stroke-linejoin="round"
         stroke-width="3"
         id="path8" />
    </g>
  </defs>
</svg>
