<?xml version="1.0" encoding="UTF-8" standalone="no"?>
<svg
   ffdec:objectType="frame"
   height="44.349998"
   width="78.599998"
   version="1.1"
   id="svg12"
   sodipodi:docname="248.svg"
   xmlns:inkscape="http://www.inkscape.org/namespaces/inkscape"
   xmlns:sodipodi="http://sodipodi.sourceforge.net/DTD/sodipodi-0.dtd"
   xmlns:xlink="http://www.w3.org/1999/xlink"
   xmlns="http://www.w3.org/2000/svg"
   xmlns:svg="http://www.w3.org/2000/svg"
   xmlns:ffdec="https://www.free-decompiler.com/flash">
  <sodipodi:namedview
     id="namedview12"
     pagecolor="#ffffff"
     bordercolor="#000000"
     borderopacity="0.25"
     inkscape:showpageshadow="2"
     inkscape:pageopacity="0.0"
     inkscape:pagecheckerboard="0"
     inkscape:deskcolor="#d1d1d1"
     fit-margin-top="5"
     fit-margin-left="5"
     fit-margin-right="5"
     fit-margin-bottom="5" />
  <g
     transform="translate(2,2.05)"
     id="g3">
    <use
       ffdec:characterId="1"
       height="42.700001"
       transform="translate(-1.75,-2)"
       width="76.449997"
       xlink:href="#shape0"
       id="use1" />
    <use
       ffdec:characterId="243"
       height="42.650002"
       transform="translate(-0.95,-1.2)"
       width="75.900002"
       xlink:href="#shape1"
       id="use2" />
    <use
       ffdec:characterId="3"
       height="44.349998"
       transform="translate(-2,-2.05)"
       width="78.599998"
       xlink:href="#shape2"
       id="use3" />
  </g>
  <defs
     id="defs12">
    <g
       id="shape0"
       transform="translate(1.75,2)">
      <path
         d="M 2.8,0 V -0.4 H 5.4 V 0 H 9.7 V 19.45 0 H 20.55 L 19.3,19.45 H 9.7 0.25 V 0 H 2.8"
         fill="#ffffff"
         fill-rule="evenodd"
         stroke="none"
         id="path3" />
      <path
         d="M 0.25,19.45 H 9.7 19.3 L 18.7,28.6 16,28.5 10.95,27.95 9.7,27.8 Q 7.45,27.6 5.85,27.75 4.05,27.9 1.5,28.6 0.75,28.8 0.25,29.15 v -9.7 m 9.45,0 v 8.35 -8.35"
         fill="#121212"
         fill-rule="evenodd"
         stroke="none"
         id="path4" />
      <path
         d="m 9.7,27.8 1.25,0.15 5.05,0.55 2.7,0.1 h 1.05 l 3.75,0.15 q 2.45,0.3 3.6,1.25 0.6,0.5 0.6,1.1 0,0.65 -0.8,1 l -1.3,0.2 -7.15,0.15 -5.6,-0.3 L 9.7,31.75 7.95,31.6 3.1,31.95 0.95,32.3 0.25,32.1 -0.35,31.55 -0.5,31.3 V 29.9 L 0.25,29.15 Q 0.75,28.8 1.5,28.6 4.05,27.9 5.85,27.75 7.45,27.6 9.7,27.8 v 3.95 -3.95"
         fill="#999999"
         fill-rule="evenodd"
         stroke="none"
         id="path5" />
      <path
         d="M 2.8,0 H 0.25 M 9.7,0 H 5.4 m 16.15,0 h 10.7 M 20.55,0 H 9.7"
         fill="none"
         stroke="#666666"
         stroke-linecap="round"
         stroke-linejoin="round"
         stroke-width="4"
         id="path6" />
      <path
         d="m 9.7,-0.4 h 65 V 40.5 H 47.05 L 45.5,40.7 27,40.65 25.95,40.5 H 9.7 -0.5 V -0.4 H 9.7 V 40.5 -0.4"
         fill="#ffffff"
         fill-rule="evenodd"
         stroke="none"
         id="path7" />
    </g>
    <g
       id="shape1"
       transform="translate(0.95,1.2)">
      <path
         d="M 27.5,40.6 H 26.05 20.2 16.85 L 12.5,40.55 H 8.8 L 7.8,40.5 H 4.9 4.35 3.6 3.2 L 2.9,40.45 H 2.5 2.4 q -0.45,1 -1.5,1 -1.15,0.1 -1.65,-1 L -0.95,38.95 -0.85,15.3 -0.35,3.6 -0.2,1.5 0,0.4 Q 0.3,-0.25 0.8,-0.25 1.25,-0.3 1.55,0.05 L 1.65,0 1.75,-0.05 1.85,-0.1 1.9,-0.15 H 2 2.1 2.3 V -0.2 l 45.5,0.05 h 3.75 l -0.5,0.35 -0.9,0.9 -1.35,1.2 -1.35,1.05 -0.2,0.3 Q 43.55,2.2 40.65,1.8 38.2,1.5 34.8,1.75 30.85,2.1 28.25,3.3 l -4.1,2.5 -1.1,0.8 -0.7,0.8 L 21.6,6.85 17.2,3.75 15.5,2.2 15,1.9 14.7,1.65 H 14.3 Q 14.1,1.8 14.35,2.3 l 0.5,0.75 2.15,2.5 3.45,3.85 0.25,0.3 -0.2,0.3 -0.3,0.65 H 19.75 L 17,10.3 15.4,10.2 h -0.8 l -0.45,-0.1 q -0.3,0 -0.35,0.2 l 0.15,0.25 0.65,0.4 0.55,0.3 0.85,0.35 0.25,0.15 3.25,1.15 -0.3,1.8 -0.1,1.35 -1.75,0.55 -0.8,0.3 -0.3,0.15 -0.3,0.05 q -0.3,0.2 0,0.4 l 0.45,0.15 0.5,-0.05 0.5,0.15 h 1.15 l 0.4,0.1 -0.05,3.65 0.05,1.9 -0.1,0.05 -5,2.1 -0.8,0.3 -0.35,0.3 q -0.15,0.5 0.4,0.7 L 14,26.8 19.4,25.6 v 0.05 L 11.9,30.7 9.95,32.1 9.7,32.5 q 0,0.3 0.3,0.3 h 0.5 q 1.75,-0.45 4,-1.65 4.3,-2.2 6.1,-3 l 1.15,1.95 2.05,2.4 -0.05,0.1 -0.3,0.55 q -0.15,0.3 -0.15,0.55 l -0.3,0.45 -0.95,1.35 -0.4,0.75 -0.5,0.6 -0.3,0.75 0.05,0.3 0.35,0.1 q 0.2,-0.1 0.35,-0.25 l 3.35,-3.25 0.65,-0.45 1.1,0.65 2.4,1.1 -1.5,4.45 -0.1,0.35 M 52.65,-0.15 h 7.8 1.1 l 0.6,0.05 h 0.55 l 0.9,0.05 H 65 66.95 L 68.1,0 h 1.05 0.5 l 0.5,0.05 h 0.35 0.3 L 71,0.1 h 0.2 l 0.15,0.05 h 0.15 0.15 L 71.8,0.2 H 71.85 72 l 0.05,0.05 h 0.1 0.05 l 0.1,0.05 h 0.05 L 72.4,0.35 V 0.15 0.05 -0.2 l 0.05,-0.05 v -0.1 L 72.5,-0.4 72.55,-0.5 V -0.55 L 72.6,-0.6 v -0.05 l 0.05,-0.05 0.05,-0.05 0.1,-0.1 0.1,-0.05 0.05,-0.05 0.1,-0.05 0.1,-0.1 h 0.1 l 0.05,-0.05 h 0.1 0.05 0.2 V -1.2 l 0.2,0.05 h 0.1 l 0.15,0.05 0.1,0.05 0.1,0.05 0.1,0.05 0.1,0.05 0.05,0.05 0.05,0.05 0.05,0.05 0.05,0.05 0.05,0.1 v 0.05 l 0.05,0.05 v 0.05 l 0.05,0.05 0.05,0.05 v 0.15 l 0.05,0.05 v 0.1 0.5 l -0.05,0.1 v 0.5 0.1 0.45 l 0.05,0.05 v 0.1 0.5 0.1 0.45 0.1 0.5 0.1 0.5 0.1 0.5 0.1 0.45 0.1 0.5 0.1 0.5 0.1 0.5 0.1 0.5 0.1 0.45 0.1 0.5 0.1 0.5 0.1 0.5 0.1 0.45 0.1 0.5 0.1 0.5 0.1 0.5 0.1 0.5 0.1 0.45 0.1 0.5 0.1 0.5 0.1 0.5 0.1 0.45 0.1 0.5 0.1 0.5 0.1 0.5 0.1 0.45 0.1 0.5 0.1 0.5 0.1 0.5 0.1 0.5 0.1 0.45 0.1 0.5 0.1 0.5 0.1 0.5 0.1 0.45 0.1 0.5 0.1 0.5 0.1 0.5 0.1 0.5 0.1 0.45 0.1 0.5 0.1 0.5 0.1 0.5 0.1 0.45 0.1 0.5 0.1 0.5 0.1 0.5 0.1 0.45 0.1 0.5 0.1 0.5 0.1 0.5 l -0.05,0.1 v 0.5 0.1 0.45 0.1 0.5 0.1 0.15 l -0.05,0.05 v 0.3 0.1 0.5 0.1 0.2 l -0.05,0.05 v 0.2 0.1 0.5 0.1 0.15 l -0.05,0.05 v 0.3 0.1 0.15 l -0.05,0.05 v 0.3 0.1 l -0.05,0.05 v 0.2 l -0.05,0.05 v 0.15 l -0.05,0.05 v 0.1 0.1 L 74.5,39 v 0.05 l 0.05,0.05 v 0.2 0.1 0.05 L 74.5,39.5 v 0.15 l -0.05,0.05 v 0.05 L 74.4,39.8 v 0.05 L 74.35,39.9 V 40 l -0.05,0.05 -0.05,0.05 -0.05,0.05 v 0.05 l -0.05,0.05 -0.1,0.05 -0.05,0.05 -0.1,0.05 -0.05,0.05 -0.1,0.05 -0.15,0.1 H 73.45 L 73.4,40.65 H 73.15 72.55 72.3 L 71.65,40.6 H 71.4 71.3 68.75 68.65 68.45 68.3 L 68.2,40.55 H 68.1 L 68.05,40.5 H 67.8 66.55 62.4 61.4 L 59,40.45 h -2.15 l -9,0.05 H 44.7 43.95 l -0.75,0.05 h -6.4 l -6.45,0.05 h -1.5 l 1.15,-1.4 0.35,-0.6 1.3,-1.7 0.1,-0.1 4.75,0.95 1.6,0.15 2,-0.45 q 3.6,-1.05 6,-2.45 l 0.65,0.35 4.35,2.85 0.4,0.1 0.35,-0.25 -0.15,-0.3 -1.4,-1.7 -0.7,-0.95 -0.4,-0.5 -1,-1.1 0.3,-0.25 0.95,-0.95 2.8,1.95 4.45,3.05 1.95,1.2 q 0.2,-0.4 -0.15,-0.95 L 57.85,36.8 q -3.5,-3.3 -6.55,-7 l 0.7,-1.1 1.65,-3 0.4,-1 5.25,0.05 h 0.7 0.35 q 0.15,-0.1 -0.1,-0.35 l -1.35,-0.45 -1,-0.2 -1.15,-0.3 -2.15,-0.5 0.1,-0.5 2.5,-0.25 9.65,-0.7 0.3,-0.1 -0.35,-0.35 -3.1,-0.4 -4.65,-0.5 -3.95,-0.3 q 0.25,-2.8 0,-6.15 v -0.1 l 0.6,-0.2 8.45,-2.4 0.3,-0.3 q 0.1,-0.25 -0.2,-0.35 l -0.4,-0.15 -1.25,0.15 -3.95,0.1 -3.85,0.25 H 54.7 L 54.5,9.95 54.65,9.85 55.25,9.45 55.8,9 56.15,8.65 56.65,8.35 56.9,8.2 57.2,7.9 57.7,7.55 58.05,7.15 57.9,6.8 57.55,6.7 57.5,6.75 57.2,6.8 55.6,7.4 55.25,7.55 54.3,7.7 53.55,8 51.95,6.3 50.6,5.2 49.95,4.85 50.4,3.95 50.55,3.55 52.2,1.2 52.65,0.1 V -0.15 M 37.95,32.7 37.4,32.6 Q 35.05,32.15 32.6,31.15 L 31.15,30.45 29.2,28.9 Q 26.3,26.1 25.5,24.7 24.6,23.1 24,20.7 L 23.1,16.8 22.9,14.7 Q 23.15,13 23.65,12 l 0.4,-0.65 H 25 l 1.25,-0.6 q 3.6,-2.3 6.8,-2.55 L 36.6,8.1 q 0.25,0.5 0.8,0.85 0.55,0.4 1.2,0.4 l 0.95,-0.1 0.9,-0.2 2.5,-0.3 h 1.2 l 1.35,0.35 3.3,1.05 0.9,0.7 1.15,1.3 0.2,1.45 q 0.1,3.45 -0.5,6.65 l -0.45,2.15 -1,2.4 -0.75,1.6 q -1,1.7 -2.6,3.15 Q 43.9,31.4 42,32.45 L 41.25,32.4 40.4,32.6 V 32.4 L 40.45,32.15 40.4,31.9 40.25,31.55 39.95,29.7 41.35,28.6 41.5,27.75 41.35,26.85 41.2,26.5 41.1,25.75 Q 41,25.3 40.65,25.25 L 40.6,25.3 h -0.1 l -0.2,0.25 -0.25,1.65 v 0.15 l -1.6,1.15 -0.45,0.4 -0.2,0.35 -0.15,0.6 0.25,2.75 0.05,0.1 m 3.8,-14.8 0.85,0.1 q 0.55,-0.1 0.8,-0.65 l 0.3,-1 0.25,-1.3 q 0.3,-1.9 0.65,-2.7 L 44.95,11.2 Q 45,10.6 44.6,10.1 44.15,9.65 43.6,9.55 43,9.5 42.5,9.85 l -0.45,0.5 q 0.4,0.75 0.2,1.3 l -0.45,0.6 -0.15,3.65 -1.4,-0.25 -0.45,-0.05 -0.1,-0.05 -0.95,0.05 -0.35,0.2 -0.25,0.6 0.45,1.95 0.25,0.4 0.05,0.4 0.6,1.65 0.2,0.35 0.45,1.2 0.15,0.15 0.15,0.35 0.3,0.3 0.3,-0.3 -0.05,-0.8 -0.75,-4.4 1.5,0.25 m -13.55,-4.3 -2.45,3.55 -0.1,0.2 0.05,0.35 v 1.15 l 3.8,-4.8 1.55,-1.85 h -0.2 L 29.6,12.35 H 29.05 L 28.2,13.6 m -0.8,7.8 -0.55,0.75 -0.25,0.2 q 0.15,0.6 0.55,1.05 l 0.75,0.75 0.3,0.45 1.35,-2.5 q 2,-3.3 6.3,-9.7 l 1.4,-2.1 0.3,-0.4 -1.35,0.3 -2.65,1.3 -6.15,9.9"
         fill="#999999"
         fill-rule="evenodd"
         stroke="none"
         id="path8" />
      <path
         d="m 37.95,32.7 -0.05,-0.1 -0.25,-2.75 0.15,-0.6 0.2,-0.35 0.45,-0.4 1.6,-1.15 V 27.2 l 0.25,-1.65 0.2,-0.25 h 0.1 l 0.05,-0.05 q 0.35,0.05 0.45,0.5 l 0.1,0.75 0.15,0.35 0.15,0.9 -0.15,0.85 -1.4,1.1 0.3,1.85 0.15,0.35 0.05,0.25 -0.05,0.25 v 0.2 l -1.3,0.15 -1.15,-0.05 m 3.8,-14.8 -1.5,-0.25 0.75,4.4 0.05,0.8 -0.3,0.3 -0.3,-0.3 -0.15,-0.35 -0.15,-0.15 -0.45,-1.2 -0.2,-0.35 -0.6,-1.65 -0.05,-0.4 -0.25,-0.4 -0.45,-1.95 0.25,-0.6 0.35,-0.2 0.95,-0.05 0.1,0.05 0.45,0.05 1.4,0.25 0.15,-3.65 0.45,-0.6 q 0.2,-0.55 -0.2,-1.3 l 0.45,-0.5 q 0.5,-0.35 1.1,-0.3 0.55,0.1 1,0.55 0.4,0.5 0.35,1.1 l -0.35,1.15 q -0.35,0.8 -0.65,2.7 l -0.25,1.3 -0.3,1 Q 43.15,17.9 42.6,18 l -0.85,-0.1"
         fill="#000000"
         fill-rule="evenodd"
         stroke="none"
         id="path9" />
      <path
         d="m 51.55,-0.15 0.7,-0.25 0.3,0.1 0.1,0.15 V 0.1 L 52.2,1.2 50.55,3.55 50.4,3.95 49.95,4.85 50.6,5.2 51.95,6.3 53.55,8 54.3,7.7 55.25,7.55 55.6,7.4 57.2,6.8 57.5,6.75 57.55,6.7 57.9,6.8 58.05,7.15 57.7,7.55 57.2,7.9 56.9,8.2 56.65,8.35 56.15,8.65 55.8,9 l -0.55,0.45 -0.6,0.4 -0.15,0.1 0.2,0.75 h 0.1 l 3.85,-0.25 3.95,-0.1 1.25,-0.15 0.4,0.15 q 0.3,0.1 0.2,0.35 l -0.3,0.3 -8.45,2.4 -0.6,0.2 v 0.1 q 0.25,3.35 0,6.15 l 3.95,0.3 4.65,0.5 3.1,0.4 0.35,0.35 -0.3,0.1 -9.65,0.7 -2.5,0.25 -0.1,0.5 2.15,0.5 1.15,0.3 1,0.2 1.35,0.45 q 0.25,0.25 0.1,0.35 H 60 59.3 l -5.25,-0.05 -0.4,1 -1.65,3 -0.7,1.1 q 3.05,3.7 6.55,7 l 0.65,0.75 q 0.35,0.55 0.15,0.95 l -1.95,-1.2 -4.45,-3.05 -2.8,-1.95 -0.95,0.95 -0.3,0.25 1,1.1 0.4,0.5 0.7,0.95 1.4,1.7 0.15,0.3 L 51.5,38.3 51.1,38.2 46.75,35.35 46.1,35 q -2.4,1.4 -6,2.45 l -2,0.45 -1.6,-0.15 -4.75,-0.95 -0.1,0.1 -1.3,1.7 -0.35,0.6 -1.15,1.4 -0.1,0.15 -0.4,0.5 h -0.5 L 27.5,40.95 V 40.6 l 0.1,-0.35 1.5,-4.45 -2.4,-1.1 -1.1,-0.65 -0.65,0.45 -3.35,3.25 Q 21.45,37.9 21.25,38 l -0.35,-0.1 -0.05,-0.3 0.3,-0.75 0.5,-0.6 0.4,-0.75 0.95,-1.35 0.3,-0.45 q 0,-0.25 0.15,-0.55 l 0.3,-0.55 0.05,-0.1 -2.05,-2.4 -1.15,-1.95 q -1.8,0.8 -6.1,3 -2.25,1.2 -4,1.65 H 10 q -0.3,0 -0.3,-0.3 l 0.25,-0.4 1.95,-1.4 7.5,-5.05 V 25.6 l -5.4,1.2 -0.9,0.05 q -0.55,-0.2 -0.4,-0.7 l 0.35,-0.3 0.8,-0.3 5,-2.1 0.1,-0.05 -0.05,-1.9 0.05,-3.65 -0.4,-0.1 H 17.4 L 16.9,17.6 16.4,17.65 15.95,17.5 q -0.3,-0.2 0,-0.4 l 0.3,-0.05 0.3,-0.15 0.8,-0.3 1.75,-0.55 0.1,-1.35 0.3,-1.8 L 16.25,11.75 16,11.6 15.15,11.25 14.6,10.95 13.95,10.55 13.8,10.3 q 0.05,-0.2 0.35,-0.2 l 0.45,0.1 h 0.8 l 1.6,0.1 2.75,0.35 H 20.2 L 20.5,10 20.7,9.7 20.45,9.4 17,5.55 14.85,3.05 14.35,2.3 Q 14.1,1.8 14.3,1.65 h 0.4 l 0.3,0.25 0.5,0.3 1.7,1.55 4.4,3.1 0.75,0.55 0.7,-0.8 1.1,-0.8 4.1,-2.5 q 2.6,-1.2 6.55,-1.55 3.4,-0.25 5.85,0.05 2.9,0.4 6.6,1.85 l 0.2,-0.3 1.35,-1.05 1.35,-1.2 0.9,-0.9 0.5,-0.35 M 40.4,32.6 41.25,32.4 42,32.45 q 1.9,-1.05 3.75,-2.9 1.6,-1.45 2.6,-3.15 l 0.75,-1.6 1,-2.4 0.45,-2.15 q 0.6,-3.2 0.5,-6.65 L 50.85,12.15 49.7,10.85 48.8,10.15 45.5,9.1 44.15,8.75 h -1.2 l -2.5,0.3 -0.9,0.2 -0.95,0.1 q -0.65,0 -1.2,-0.4 Q 36.85,8.6 36.6,8.1 l -3.55,0.1 q -3.2,0.25 -6.8,2.55 L 25,11.35 H 24.05 L 23.65,12 q -0.5,1 -0.75,2.7 l 0.2,2.1 0.9,3.9 q 0.6,2.4 1.5,4 0.8,1.4 3.7,4.2 l 1.95,1.55 1.45,0.7 q 2.45,1 4.8,1.45 l 0.55,0.1 1.15,0.05 1.3,-0.15"
         fill="#ffffff"
         fill-rule="evenodd"
         stroke="none"
         id="path10" />
      <path
         d="m 23.55,7.3 3.7,0.8 Q 31.7,8.65 35.4,5.85 l 0.4,-0.3 0.3,-0.25 q 0.45,-0.35 1,-0.35 0.6,-0.05 1.1,0.35 l 0.3,0.25 0.4,0.3 q 3.7,2.8 8.15,2.25 l 3.7,-0.8 0.7,-0.05 0.5,-0.1 q 0.7,0.2 0.8,1.35 1,6.9 -1.1,13.2 l -1.15,2.7 q -2.1,3.85 -4.2,5.75 l -2.75,2.4 -1.95,1.2 -1.75,1.05 -2,0.85 -0.75,0.05 -0.65,-0.05 q -0.6,-0.05 -2,-0.85 L 32.7,33.75 30.75,32.55 28,30.15 q -2.1,-1.9 -4.2,-5.75 l -1.15,-2.7 q -2.1,-6.3 -1.1,-13.2 0.1,-1.15 0.8,-1.35 l 0.5,0.1 0.7,0.05 m 7,5.05 -2.15,0.05 -2.05,-0.15 Q 25,12 24,11.3 q 0.45,2.85 1.9,7.1 l 0.9,2.55 q 0.6,1.95 1.7,3.9 l 0.95,1.45 2.35,2.55 q 1.65,1.6 5.4,3.2 l 0.65,-0.25 -0.2,-1.95 0.15,-0.6 0.2,-0.35 0.45,-0.4 1.6,-1.15 V 27.2 l 0.25,-1.65 0.2,-0.25 h 0.1 l 0.05,-0.05 q 0.35,0.05 0.45,0.5 l 0.1,0.75 0.15,0.35 0.15,0.9 -0.15,0.85 -1.4,1.1 0.15,0.9 2.4,-1.75 2.35,-2.55 0.95,-1.45 q 1.1,-1.95 1.7,-3.9 l 0.9,-2.55 q 1.45,-4.25 1.9,-7.1 -1,0.7 -2.35,0.95 L 45.9,12.4 h -1.3 q -0.35,0.8 -0.65,2.65 l -0.25,1.3 -0.3,1 Q 43.15,17.9 42.6,18 l -0.85,-0.1 -1.5,-0.25 0.75,4.4 0.05,0.8 -0.3,0.3 -0.3,-0.3 -0.15,-0.35 -0.15,-0.15 -0.45,-1.2 -0.2,-0.35 -0.6,-1.65 -0.05,-0.4 -0.25,-0.4 -0.45,-1.95 0.25,-0.6 0.35,-0.2 0.95,-0.05 0.1,0.05 0.45,0.05 1.4,0.25 0.15,-3.95 Q 39.45,11.3 37.15,9.8 q -3.35,2.15 -6.6,2.55"
         fill="#000000"
         fill-rule="evenodd"
         stroke="none"
         id="path11" />
    </g>
    <g
       id="shape2"
       transform="translate(2,2.05)">
      <path
         d="M -0.5,-0.4 V -0.55 H 75.1 V -0.4 40.8 H -0.5 Z"
         fill="none"
         stroke="#000000"
         stroke-linecap="round"
         stroke-linejoin="round"
         stroke-width="3"
         id="path12" />
    </g>
  </defs>
</svg>
