<?xml version="1.0" encoding="UTF-8" standalone="no"?>
<svg
   ffdec:objectType="frame"
   height="60.549999"
   width="67.099998"
   version="1.1"
   id="svg7"
   sodipodi:docname="156.svg"
   xmlns:inkscape="http://www.inkscape.org/namespaces/inkscape"
   xmlns:sodipodi="http://sodipodi.sourceforge.net/DTD/sodipodi-0.dtd"
   xmlns:xlink="http://www.w3.org/1999/xlink"
   xmlns="http://www.w3.org/2000/svg"
   xmlns:svg="http://www.w3.org/2000/svg"
   xmlns:ffdec="https://www.free-decompiler.com/flash">
  <sodipodi:namedview
     id="namedview7"
     pagecolor="#ffffff"
     bordercolor="#000000"
     borderopacity="0.25"
     inkscape:showpageshadow="2"
     inkscape:pageopacity="0.0"
     inkscape:pagecheckerboard="0"
     inkscape:deskcolor="#d1d1d1"
     fit-margin-top="5"
     fit-margin-left="5"
     fit-margin-right="5"
     fit-margin-bottom="5" />
  <g
     transform="translate(1.5,1.5)"
     id="g3">
    <use
       ffdec:characterId="516"
       height="57.549999"
       width="64.099998"
       xlink:href="#shape0"
       id="use1" />
    <use
       ffdec:characterId="666"
       height="57.099998"
       transform="translate(-0.05,1.75)"
       width="64.25"
       xlink:href="#shape1"
       id="use2" />
    <use
       ffdec:characterId="518"
       height="60.549999"
       transform="translate(-1.5,-1.5)"
       width="67.099998"
       xlink:href="#shape2"
       id="use3" />
  </g>
  <defs
     id="defs7">
    <g
       id="shape0">
      <path
         d="M 53.6,0 H 64.1 V 57.55 H 53.6 28.25 0 V 0 H 28.25 53.6 V 57.55 0 M 28.25,0 V 57.55 0"
         fill="#ffffff"
         fill-rule="evenodd"
         stroke="none"
         id="path3" />
    </g>
    <g
       id="shape1"
       transform="translate(0.05,-1.75)">
      <path
         d="m 28.85,9.65 q 5.3,-1.85 9.8,0.05 l 2.25,1.15 1.85,1 0.55,-0.1 2.55,-0.6 2.9,-0.05 q 0.75,0.25 1.2,1 0.45,0.7 0.35,1.5 l -0.4,1.3 -1.25,4.05 q 0.8,2.1 1.25,4.65 h 0.15 l 0.2,-0.05 h 0.3 L 51.1,23.5 h 0.45 0.1 l 0.1,-0.05 h 0.3 0.05 0.25 0.3 0.3 l 0.1,0.05 h 0.1 0.5 0.2 0.3 l 0.15,0.05 h 0.1 l 0.05,0.05 h 0.1 0.05 l 0.05,0.05 H 54.7 L 55,23.7 h 0.1 0.1 l 0.1,0.05 h 0.05 l 0.15,0.05 0.1,0.05 h 0.1 0.1 l 0.1,0.05 H 56 l 0.1,0.1 0.15,0.05 0.1,0.05 h 0.1 l 0.1,0.05 0.15,0.05 0.15,0.05 0.1,0.05 0.15,0.05 0.15,0.05 0.15,0.05 0.1,0.1 h 0.05 l 0.1,0.05 h 0.1 l 0.15,0.1 0.15,0.05 0.15,0.05 0.1,0.05 0.15,0.05 0.1,0.05 0.1,0.1 0.15,0.05 0.15,0.05 0.15,0.05 0.15,0.1 0.15,0.05 0.15,0.1 0.1,0.05 0.1,0.05 0.1,0.05 0.1,0.05 0.15,0.1 0.1,0.05 0.1,0.05 0.1,0.05 0.05,0.05 0.1,0.05 0.05,0.1 0.1,0.05 0.15,0.05 0.1,0.05 0.1,0.05 0.1,0.05 0.1,0.1 0.1,0.05 0.05,0.05 0.1,0.1 0.1,0.05 0.1,0.05 0.1,0.1 0.05,0.05 0.1,0.05 0.05,0.05 0.1,0.05 0.05,0.05 0.1,0.1 0.1,0.05 0.05,0.05 0.05,0.05 0.1,0.05 0.05,0.05 0.1,0.1 0.05,0.05 0.1,0.05 0.1,0.1 0.1,0.05 0.05,0.15 0.1,0.05 0.05,0.05 0.05,0.05 0.1,0.1 0.05,0.1 0.05,0.05 0.05,0.05 0.1,0.1 0.05,0.05 0.05,0.1 0.05,0.05 V 55.95 L 63.75,56 63.65,56.05 63.6,56.1 63.45,56.15 63.3,56.2 63.15,56.25 63,56.3 62.95,56.35 H 62.85 62.8 L 62.4,56.4 H 60.95 L 60.8,56.35 h -0.7 -3.3 -1.35 -5.5 L 46.05,56.3 H 45.1 l -2.75,-0.05 h -6 H 4.95 4.7 4.4 L 4.1,56.2 H 3.75 3.3 L 2.9,56.15 2.8,56.2 2.7,56.25 2.6,56.35 2.5,56.4 2.35,56.45 2.15,56.5 2.05,56.55 H 1.95 L 1.9,56.6 H 1.8 1.65 L 1.3,56.65 1,56.6 H 0.85 0.75 L 0.65,56.55 H 0.55 L 0.35,56.45 0.2,56.4 0.1,56.35 -0.05,56.3 V 32.55 L 0.05,32.5 0.1,32.4 0.2,32.3 0.25,32.25 0.3,32.2 0.4,32.15 0.45,32.05 0.55,31.95 0.6,31.85 0.65,31.8 0.75,31.75 0.8,31.65 0.9,31.55 0.95,31.5 1,31.45 1.1,31.4 V 31.3 L 1.2,31.25 1.3,31.15 1.35,31.1 1.4,31.05 1.45,30.95 1.55,30.9 1.6,30.85 1.7,30.8 1.8,30.75 1.85,30.7 1.9,30.55 1.95,30.5 2.05,30.45 2.1,30.4 2.15,30.35 2.25,30.3 2.3,30.2 2.4,30.15 2.5,30.1 2.55,30.05 2.6,30 2.65,29.95 2.7,29.85 2.75,29.8 2.85,29.75 2.9,29.7 3,29.65 3.05,29.6 3.15,29.5 3.25,29.45 3.35,29.4 3.45,29.35 3.55,29.3 3.6,29.2 3.7,29.1 3.75,29.05 3.85,29 3.9,28.95 4,28.9 4.05,28.85 4.15,28.75 4.2,28.7 4.3,28.65 4.4,28.6 4.5,28.55 4.6,28.45 4.7,28.4 4.8,28.35 4.9,28.3 4.95,28.25 5.05,28.2 5.15,28.1 5.25,28.05 5.35,28 5.4,27.95 5.5,27.85 5.65,27.8 5.75,27.7 5.85,27.65 5.95,27.6 6.05,27.55 6.1,27.5 6.2,27.45 6.3,27.35 6.45,27.3 6.55,27.25 6.65,27.2 6.8,27.15 6.9,27.1 7,27 7.1,26.95 7.2,26.9 7.3,26.85 7.45,26.8 7.55,26.75 7.6,26.65 7.7,26.55 7.8,26.5 7.95,26.45 8.05,26.4 8.2,26.35 8.3,26.3 8.35,26.25 h 0.1 L 8.6,26.15 8.75,26.1 8.9,26.05 9,26 9.15,25.95 9.3,25.9 9.45,25.8 9.6,25.75 9.75,25.7 9.9,25.65 l 0.15,-0.05 0.1,-0.05 0.15,-0.1 0.15,-0.05 0.15,-0.05 0.1,-0.05 q 0.05,-0.1 0.15,-0.1 L 11,25.15 11.15,25.1 11.25,25.05 11.4,25 h 0.05 l 0.05,-0.05 h 0.15 l 0.2,-0.05 0.1,-0.05 0.1,-0.05 h 0.1 0.05 l 0.1,-0.05 h 0.05 l 0.1,-0.05 h 0.1 0.1 L 12.8,24.65 12.9,24.6 H 13 l 0.05,-0.05 h 0.1 0.05 l 0.1,-0.05 h 0.1 l 0.1,-0.05 h 0.1 0.1 L 13.8,24.4 H 14 l 0.05,-0.05 h 0.05 0.1 l 0.1,-0.05 h 0.1 l 0.1,-0.05 h 0.1 0.05 l 0.1,-0.05 h 0.1 0.05 L 15,24.15 h 0.05 L 15.1,24.1 h 0.1 0.05 l 0.1,-0.05 H 15.4 L 15.5,24 h 0.1 0.1 l 0.15,-0.1 H 16 l 0.15,-0.05 h 0.3 0.1 l 0.1,-0.05 h 0.15 0.15 l 0.7,-2.4 -0.05,-0.1 -0.5,-2.2 -0.3,-1.95 Q 16.5,15.3 16.65,14.3 16.9,12.65 18.2,12.1 l 1.85,-0.1 1.55,0.2 q 0.95,0.15 1.7,0.45 l 0.2,0.1 q 2.35,-2 5.35,-3.1 m 9.9,-5.05 q 0.5,-0.5 1.15,-0.25 0.65,0.15 0.8,0.8 0.15,0.55 -0.1,1.05 L 39.9,7.1 38.45,8.15 38,8.25 37.75,7.8 l 0.1,-0.5 0.1,-1 0.25,-0.75 Q 38.5,4.85 38.75,4.6 M 32.2,29.35 q 0.7,-0.25 1.4,-0.9 l 0.75,0.3 2.55,0.55 h 0.75 l 0.7,-0.2 1.4,-0.4 0.9,-0.55 0.4,-0.5 0.25,-0.7 Q 41.2,26.2 40.4,26.2 l -1.05,0.25 -1,0.05 -1,-0.05 -0.95,-0.3 -0.8,-0.35 -0.4,-0.2 -0.35,-0.4 -0.45,-0.3 -0.65,-0.05 q -0.85,0.2 -1.1,0.55 l -0.15,0.25 -0.2,0.2 -0.4,0.6 q -0.25,0.3 -0.85,0.4 l -1.05,0.2 -2.25,0.35 -0.3,0.15 -0.1,0.45 q 0.05,0.4 0.4,0.8 l 0.75,0.5 1.75,0.35 1.95,-0.3 m 12.95,-4.45 0.1,-0.15 q 0.55,-1.2 0.4,-2.55 l -0.1,0.05 -1.1,0.05 H 44.1 L 42.15,22.25 H 42.1 L 40,22.3 h -1.95 l -0.05,0.65 0.05,0.8 0.35,0.9 1.3,-0.3 2.9,0.1 2.2,0.4 0.35,0.05 M 34.5,2.3 34.85,3.4 34.7,5.25 34.5,6.45 33.95,7.6 33.35,7.8 32.75,7.55 32.35,6.6 31.9,4.5 q -0.2,-1.35 0.05,-1.85 0.35,-0.8 1.15,-0.9 0.85,-0.1 1.4,0.55 m -6.25,2.3 0.55,0.95 0.25,0.75 0.1,1 0.1,0.5 L 29,8.25 28.55,8.15 27.1,7.1 26.4,6.2 Q 26.15,5.7 26.3,5.15 26.45,4.5 27.1,4.35 27.75,4.1 28.25,4.6 m 0.2,18.5 -0.05,-0.65 h -2 L 25.65,22.4 H 25.2 24.9 L 24.6,22.35 H 24.25 L 23.95,22.3 H 23.5 22.95 L 22.5,22.25 H 22.1 L 21.9,22.2 H 21.75 21.6 l -0.1,-0.05 h -0.1 q -0.15,0.4 -0.15,0.75 -0.15,0.95 0.15,1.9 0.35,1.05 1.5,1.65 0.95,0.6 2.15,0.5 1.2,-0.05 2.05,-0.8 0.8,-0.6 1.05,-1.35 l 0.3,-1.7"
         fill="#767676"
         fill-rule="evenodd"
         stroke="none"
         id="path4" />
      <path
         d="m 45.15,24.9 -0.35,-0.05 -2.2,-0.4 -2.9,-0.1 -1.3,0.3 -0.35,-0.9 L 38,22.95 38.05,22.3 H 40 l 2.1,-0.05 h 0.05 l 1.95,0.05 h 0.35 l 1.1,-0.05 0.1,-0.05 q 0.15,1.35 -0.4,2.55 l -0.1,0.15 M 32.2,29.35 30.25,29.65 28.5,29.3 27.75,28.8 Q 27.4,28.4 27.35,28 l 0.1,-0.45 0.3,-0.15 2.25,-0.35 1.05,-0.2 q 0.6,-0.1 0.85,-0.4 l 0.4,-0.6 0.2,-0.2 0.15,-0.25 q 0.25,-0.35 1.1,-0.55 l 0.65,0.05 0.45,0.3 0.35,0.4 0.4,0.2 0.8,0.35 0.95,0.3 1,0.05 1,-0.05 1.05,-0.25 q 0.8,0 0.9,0.75 l -0.25,0.7 -0.4,0.5 -0.9,0.55 -1.4,0.4 -0.7,0.2 H 36.9 l -2.55,-0.55 -0.75,-0.3 q -0.7,0.65 -1.4,0.9 m -3.75,-6.25 -0.3,1.7 q -0.25,0.75 -1.05,1.35 -0.85,0.75 -2.05,0.8 -1.2,0.1 -2.15,-0.5 -1.15,-0.6 -1.5,-1.65 -0.3,-0.95 -0.15,-1.9 0,-0.35 0.15,-0.75 h 0.1 l 0.1,0.05 h 0.15 0.15 l 0.2,0.05 h 0.4 l 0.45,0.05 h 0.55 0.45 l 0.3,0.05 h 0.35 l 0.3,0.05 h 0.3 0.45 l 0.75,0.05 h 2 l 0.05,0.65"
         fill="#ffffff"
         fill-rule="evenodd"
         stroke="none"
         id="path5" />
      <path
         d="m 44.7,31.15 q 2.7,-1.65 5.1,-1.2 1.35,0.2 2.4,1.1 1.1,0.8 1.5,2.05 l 0.5,1.15 0.65,0.45 1,0.25 q 0.95,0.15 1.4,0.45 l 0.8,0.8 0.55,0.6 0.3,0.6 q 0.4,1 0.25,2.35 l -1.05,2.65 -1.75,2.25 -0.6,0.55 -0.25,0.6 -0.7,1.2 q -0.25,0.15 0.55,1.2 0.8,1 3.3,1.8 l 3.8,0.25 q 1.3,-0.6 1.75,1.2 l -1.45,7.25 -0.9,0.1 -9.55,-0.05 Q 45.55,58.6 43.25,56 40.95,53.4 40.8,51.5 L 38.95,50.9 Q 37.4,50.2 35.65,48.5 32,45.2 31.7,42.05 31.6,40.95 32.05,38.7 32.4,36.75 33.2,36 34.05,35.1 35.9,34.65 37,34.5 37.5,34 l 0.9,-0.95 q 0.7,-0.9 1.95,-1.35 l 2.3,-0.25 1.2,0.15 0.85,-0.45"
         fill="#000000"
         fill-rule="evenodd"
         stroke="none"
         id="path6" />
    </g>
    <g
       id="shape2"
       transform="translate(1.5,1.5)">
      <path
         d="M 0,23.8 V 0 H 64.1 V 23.8 57.55 H 0 Z"
         fill="none"
         stroke="#000000"
         stroke-linecap="round"
         stroke-linejoin="round"
         stroke-width="3"
         id="path7" />
    </g>
  </defs>
</svg>
