<?xml version="1.0" encoding="UTF-8" standalone="no"?>
<svg
   ffdec:objectType="frame"
   height="44.349998"
   width="78.599998"
   version="1.1"
   id="svg12"
   sodipodi:docname="395.svg"
   xmlns:inkscape="http://www.inkscape.org/namespaces/inkscape"
   xmlns:sodipodi="http://sodipodi.sourceforge.net/DTD/sodipodi-0.dtd"
   xmlns:xlink="http://www.w3.org/1999/xlink"
   xmlns="http://www.w3.org/2000/svg"
   xmlns:svg="http://www.w3.org/2000/svg"
   xmlns:ffdec="https://www.free-decompiler.com/flash">
  <sodipodi:namedview
     id="namedview12"
     pagecolor="#ffffff"
     bordercolor="#000000"
     borderopacity="0.25"
     inkscape:showpageshadow="2"
     inkscape:pageopacity="0.0"
     inkscape:pagecheckerboard="0"
     inkscape:deskcolor="#d1d1d1"
     fit-margin-top="5"
     fit-margin-left="5"
     fit-margin-right="5"
     fit-margin-bottom="5" />
  <g
     transform="translate(2,2.05)"
     id="g4">
    <use
       ffdec:characterId="1"
       height="42.700001"
       transform="translate(-1.75,-2)"
       width="76.449997"
       xlink:href="#shape0"
       id="use1" />
    <use
       ffdec:characterId="366"
       height="41.599998"
       transform="translate(-0.7,-0.8)"
       width="75.75"
       xlink:href="#shape1"
       id="use2" />
    <use
       ffdec:characterId="378"
       height="32.049999"
       transform="translate(18.9,3.95)"
       width="34.700001"
       xlink:href="#shape2"
       id="use3" />
    <use
       ffdec:characterId="3"
       height="44.349998"
       transform="translate(-2,-2.05)"
       width="78.599998"
       xlink:href="#shape3"
       id="use4" />
  </g>
  <defs
     id="defs12">
    <g
       id="shape0"
       transform="translate(1.75,2)">
      <path
         d="M 2.8,0 V -0.4 H 5.4 V 0 H 9.7 V 19.45 0 H 20.55 L 19.3,19.45 H 9.7 0.25 V 0 H 2.8"
         fill="#ffffff"
         fill-rule="evenodd"
         stroke="none"
         id="path4" />
      <path
         d="M 0.25,19.45 H 9.7 19.3 L 18.7,28.6 16,28.5 10.95,27.95 9.7,27.8 Q 7.45,27.6 5.85,27.75 4.05,27.9 1.5,28.6 0.75,28.8 0.25,29.15 v -9.7 m 9.45,0 v 8.35 -8.35"
         fill="#121212"
         fill-rule="evenodd"
         stroke="none"
         id="path5" />
      <path
         d="m 9.7,27.8 1.25,0.15 5.05,0.55 2.7,0.1 h 1.05 l 3.75,0.15 q 2.45,0.3 3.6,1.25 0.6,0.5 0.6,1.1 0,0.65 -0.8,1 l -1.3,0.2 -7.15,0.15 -5.6,-0.3 L 9.7,31.75 7.95,31.6 3.1,31.95 0.95,32.3 0.25,32.1 -0.35,31.55 -0.5,31.3 V 29.9 L 0.25,29.15 Q 0.75,28.8 1.5,28.6 4.05,27.9 5.85,27.75 7.45,27.6 9.7,27.8 v 3.95 -3.95"
         fill="#999999"
         fill-rule="evenodd"
         stroke="none"
         id="path6" />
      <path
         d="M 2.8,0 H 0.25 M 9.7,0 H 5.4 m 16.15,0 h 10.7 M 20.55,0 H 9.7"
         fill="none"
         stroke="#666666"
         stroke-linecap="round"
         stroke-linejoin="round"
         stroke-width="4"
         id="path7" />
      <path
         d="m 9.7,-0.4 h 65 V 40.5 H 47.05 L 45.5,40.7 27,40.65 25.95,40.5 H 9.7 -0.5 V -0.4 H 9.7 V 40.5 -0.4"
         fill="#ffffff"
         fill-rule="evenodd"
         stroke="none"
         id="path8" />
    </g>
    <g
       id="shape1"
       transform="translate(0.7,0.8)">
      <path
         d="m 22.9,1.2 q -4,7.2 -8.6,9.7 -1.45,0.75 -4.7,1.7 -3.15,1 -4.7,1.8 -3.7,2 -5.6,5.9 V 13.35 Q 1.1,11.5 3.3,10.25 5.3,8.3 7.7,6.8 L 10.8,4.9 13.55,2.6 15.3,0.3 16.05,-0.8 H 24 l -1.1,2 m 8.7,38.35 q -5.7,-1.3 -11.65,-7.2 L 17.4,29.3 q -3.35,-5.05 -2.05,-11.7 0.8,-3.95 3,-7.35 2.25,-3.5 5.55,-5.75 2.95,-1.95 6.4,-2.75 4.1,-0.95 8.9,-1.1 4.75,-0.15 9.7,4.1 4.9,4.15 5.85,7.1 0.9,2.9 3.35,5.45 1.95,1.45 3.8,1.45 2.75,0.15 4.65,-2.25 1.55,-1.95 1.95,-4.95 L 68.6,9.7 67.75,7.25 q -1.1,-1.8 -4.4,-4 -3.55,-2.2 -4.65,-3.8 L 58.55,-0.8 h 10.7 q 4,3.9 5.15,11.95 l 0.25,4.15 q -0.05,2.8 -1.2,5.8 -1.9,5.35 -6.1,9.4 l -5.3,4.05 -4.25,2.55 q -2.8,1.25 -7.65,2.2 l -11,1.05 L 34.75,40 31.6,39.55 m 39.05,-5.9 1.7,0.05 h 1.7 l 1,-0.25 v 3.35 l -1.3,0.2 -4.15,0.1 q -1.2,0.3 -2.5,1.35 l -2.15,1.95 -0.4,0.4 H 60.2 l 0.35,-0.35 2.95,-3 q 3.7,-3.65 7.15,-3.8 M 6.6,35.85 q 1.65,0.5 3,1.6 1.3,1.05 2.05,2.4 L 12.1,40.8 H 7.05 Q 6.05,39.75 4.2,39.05 1,38.1 -0.4,37.3 l -0.3,-0.15 v -5 l 1.8,1.55 2.95,1.35 2.55,0.8"
         fill="#999999"
         fill-rule="evenodd"
         stroke="none"
         id="path9" />
    </g>
    <g
       id="shape2"
       transform="translate(-18.9,-3.95)">
      <path
         d="M 44.75,8.1 45,8.9 45.15,9.65 v 0.85 l -0.05,0.8 v 0.25 L 44.9,12.35 43.8,14 43,14.7 q -1.45,0.9 -3.15,0.4 -1.6,-0.7 -2.3,-2.3 l -0.1,-0.6 v -0.6 l 0.05,-1.1 0.15,-1 0.05,-0.2 q 0.25,-0.75 0.65,-1.25 l 0.3,-0.3 v -0.1 l 1.45,-1.1 1.85,-0.2 1,0.2 q 1.25,0.35 1.8,1.55 m 4.3,3.7 1.3,0.45 0.65,0.4 q 0.75,0.6 0.95,1.55 0.25,0.95 -0.05,1.8 l -0.75,1.35 -0.6,0.75 q -0.65,0.6 -1.45,0.85 l -0.15,0.05 -1.1,0.1 h -0.1 Q 46.25,19 45.3,17.75 44.4,16.7 44.55,15.35 l 0.2,-1.05 Q 45,13.5 45.5,13 l 0.6,-0.55 q 0.4,-0.3 0.95,-0.45 l 0.8,-0.2 h 1.2 m -22.6,11.45 0.25,-0.55 1.35,-2.25 1.85,-2.05 0.05,-0.05 1.85,-1.2 1.35,-0.6 Q 34.05,16.2 35,16 l 5.1,-0.3 q 1.65,0.25 2.3,0.6 2.55,1.15 3.95,4.9 l 0.6,1.65 q 0.45,1.4 0.55,2.75 v 0.3 l -0.1,1.95 q -0.35,1.8 -1.35,3.15 -1.15,1.5 -2.75,2 l -3.5,-0.1 q -1.3,-0.5 -2.1,-1.45 l -0.6,-0.9 -0.5,0.95 -1.5,1.25 q -1.35,0.75 -3.05,0.8 l -1.7,-0.1 -1.65,-0.55 q -1.7,-0.8 -2.5,-2.25 -1.15,-2 -0.65,-4.7 l 0.75,-2.4 0.15,-0.3 M 35.4,10.5 v 0.15 0.15 l -0.05,1.05 -0.35,1.6 -0.3,0.65 q -0.75,1.15 -2.15,1.65 l -0.35,0.1 q -1.45,0.3 -2.75,-0.4 L 29.25,15.3 28.7,14.9 28.4,14.55 27.75,13.45 27,11.95 26.9,11.3 q -0.1,-0.7 0.05,-1.45 0.5,-1.5 0.9,-2 0.7,-1.05 1.65,-1.3 l 1.9,-0.2 q 1.25,0.15 2,0.65 l 0.7,0.7 q 1.1,1.3 1.3,2.8 m -7.65,5.8 q 0.35,1 0.2,2 -0.05,1.3 -0.95,2.35 l -0.85,0.75 -0.25,0.15 -0.75,0.3 -0.4,0.1 -1.85,-0.15 q -1,-0.25 -1.7,-1 l -0.75,-1 Q 19.95,18.65 19.9,17.75 19.75,16.5 20.25,15.7 l 0.4,-0.55 q 0.8,-0.95 2,-1.25 l 2.4,-0.15 0.35,0.1 q 0.65,0.2 1.1,0.65 l 0.65,0.65 0.35,0.55 0.25,0.6"
         fill="#000000"
         fill-rule="evenodd"
         stroke="none"
         id="path10" />
      <path
         d="m 49.05,11.8 h -1.2 L 47.05,12 Q 46.5,12.15 46.1,12.45 L 45.5,13 q -0.5,0.5 -0.75,1.3 l -0.2,1.05 q -0.15,1.35 0.75,2.4 0.95,1.25 2.45,1.35 h 0.1 L 48.95,19 49.1,18.95 Q 49.9,18.7 50.55,18.1 L 51.15,17.35 51.9,16 q 0.3,-0.85 0.05,-1.8 -0.2,-0.95 -0.95,-1.55 l -0.65,-0.4 -1.3,-0.45 M 44.75,8.1 Q 44.2,6.9 42.95,6.55 l -1,-0.2 -1.85,0.2 -1.45,1.1 v 0.1 l -0.3,0.3 q -0.4,0.5 -0.65,1.25 l -0.05,0.2 -0.15,1 -0.05,1.1 v 0.6 l 0.1,0.6 q 0.7,1.6 2.3,2.3 1.7,0.5 3.15,-0.4 l 0.8,-0.7 1.1,-1.65 0.2,-0.8 V 11.3 l 0.05,-0.8 V 9.65 L 45,8.9 44.75,8.1 m -16,26.6 Q 26.6,34 25.15,32.95 23.35,31.65 21.65,28.8 18.35,23.4 19,18.9 19.25,17.25 20.2,15.2 23.4,8 29.25,5.4 33.3,3.55 38.5,4.05 q 3.1,0.2 5.4,1.3 2.05,0.75 4.25,2.55 2.4,1.95 3.5,3.65 2.15,3.3 1.95,8.45 -0.1,3.1 -1,5.65 -1.1,3.1 -3.45,5.55 -2.4,2.45 -5.45,3.6 l -3.95,0.95 -4.6,0.15 -1.35,-0.3 -5.05,-0.9 m -2.45,-11.15 -0.75,2.4 q -0.5,2.7 0.65,4.7 0.8,1.45 2.5,2.25 l 1.65,0.55 1.7,0.1 q 1.7,-0.05 3.05,-0.8 l 1.5,-1.25 0.5,-0.95 0.6,0.9 q 0.8,0.95 2.1,1.45 l 3.5,0.1 q 1.6,-0.5 2.75,-2 1,-1.35 1.35,-3.15 L 47.5,25.9 V 25.6 Q 47.4,24.25 46.95,22.85 L 46.35,21.2 Q 44.95,17.45 42.4,16.3 41.75,15.95 40.1,15.7 L 35,16 q -0.95,0.2 -1.85,0.55 l -1.35,0.6 -1.85,1.2 -0.05,0.05 -1.85,2.05 -1.35,2.25 -0.25,0.55 -0.2,-0.05 0.05,0.35 m 9.1,-12.9 0.3,-0.15 H 35.4 Q 35.2,9 34.1,7.7 L 33.4,7 q -0.75,-0.5 -2,-0.65 l -1.9,0.2 q -0.95,0.25 -1.65,1.3 -0.4,0.5 -0.9,2 -0.15,0.75 -0.05,1.45 l 0.1,0.65 0.75,1.5 0.65,1.1 0.3,0.35 0.55,0.4 0.2,0.15 q 1.3,0.7 2.75,0.4 l 0.35,-0.1 q 1.4,-0.5 2.15,-1.65 L 35,13.45 35.35,11.85 35.4,10.8 V 10.65 M 27.75,16.3 27.5,15.7 27.15,15.15 26.5,14.5 q -0.45,-0.45 -1.1,-0.65 l -0.35,-0.1 -2.4,0.15 q -1.2,0.3 -2,1.25 l -0.4,0.55 q -0.5,0.8 -0.35,2.05 0.05,0.9 0.55,2.05 l 0.75,1 q 0.7,0.75 1.7,1 l 1.85,0.15 0.4,-0.1 0.75,-0.3 0.25,-0.15 0.85,-0.75 q 0.9,-1.05 0.95,-2.35 0.15,-1 -0.2,-2"
         fill="#ffffff"
         fill-rule="evenodd"
         stroke="none"
         id="path11" />
    </g>
    <g
       id="shape3"
       transform="translate(2,2.05)">
      <path
         d="M -0.5,-0.4 V -0.55 H 75.1 V -0.4 40.8 H -0.5 Z"
         fill="none"
         stroke="#000000"
         stroke-linecap="round"
         stroke-linejoin="round"
         stroke-width="3"
         id="path12" />
    </g>
  </defs>
</svg>
