<?xml version="1.0" encoding="UTF-8" standalone="no"?>
<svg
   ffdec:objectType="frame"
   height="44.349998"
   width="78.599998"
   version="1.1"
   id="svg11"
   sodipodi:docname="184.svg"
   xmlns:inkscape="http://www.inkscape.org/namespaces/inkscape"
   xmlns:sodipodi="http://sodipodi.sourceforge.net/DTD/sodipodi-0.dtd"
   xmlns:xlink="http://www.w3.org/1999/xlink"
   xmlns="http://www.w3.org/2000/svg"
   xmlns:svg="http://www.w3.org/2000/svg"
   xmlns:ffdec="https://www.free-decompiler.com/flash">
  <sodipodi:namedview
     id="namedview11"
     pagecolor="#ffffff"
     bordercolor="#000000"
     borderopacity="0.25"
     inkscape:showpageshadow="2"
     inkscape:pageopacity="0.0"
     inkscape:pagecheckerboard="0"
     inkscape:deskcolor="#d1d1d1"
     fit-margin-top="5"
     fit-margin-left="5"
     fit-margin-right="5"
     fit-margin-bottom="5" />
  <g
     transform="translate(2,2.05)"
     id="g3">
    <use
       ffdec:characterId="1"
       height="42.700001"
       transform="translate(-1.75,-2)"
       width="76.449997"
       xlink:href="#shape0"
       id="use1" />
    <use
       ffdec:characterId="182"
       height="39.450001"
       transform="translate(1.75,1.7)"
       width="73.650002"
       xlink:href="#shape1"
       id="use2" />
    <use
       ffdec:characterId="3"
       height="44.349998"
       transform="translate(-2,-2.05)"
       width="78.599998"
       xlink:href="#shape2"
       id="use3" />
  </g>
  <defs
     id="defs11">
    <g
       id="shape0"
       transform="translate(1.75,2)">
      <path
         d="M 2.8,0 V -0.4 H 5.4 V 0 H 9.7 V 19.45 0 H 20.55 L 19.3,19.45 H 9.7 0.25 V 0 H 2.8"
         fill="#ffffff"
         fill-rule="evenodd"
         stroke="none"
         id="path3" />
      <path
         d="M 0.25,19.45 H 9.7 19.3 L 18.7,28.6 16,28.5 10.95,27.95 9.7,27.8 Q 7.45,27.6 5.85,27.75 4.05,27.9 1.5,28.6 0.75,28.8 0.25,29.15 v -9.7 m 9.45,0 v 8.35 -8.35"
         fill="#121212"
         fill-rule="evenodd"
         stroke="none"
         id="path4" />
      <path
         d="m 9.7,27.8 1.25,0.15 5.05,0.55 2.7,0.1 h 1.05 l 3.75,0.15 q 2.45,0.3 3.6,1.25 0.6,0.5 0.6,1.1 0,0.65 -0.8,1 l -1.3,0.2 -7.15,0.15 -5.6,-0.3 L 9.7,31.75 7.95,31.6 3.1,31.95 0.95,32.3 0.25,32.1 -0.35,31.55 -0.5,31.3 V 29.9 L 0.25,29.15 Q 0.75,28.8 1.5,28.6 4.05,27.9 5.85,27.75 7.45,27.6 9.7,27.8 v 3.95 -3.95"
         fill="#999999"
         fill-rule="evenodd"
         stroke="none"
         id="path5" />
      <path
         d="M 2.8,0 H 0.25 M 9.7,0 H 5.4 m 16.15,0 h 10.7 M 20.55,0 H 9.7"
         fill="none"
         stroke="#666666"
         stroke-linecap="round"
         stroke-linejoin="round"
         stroke-width="4"
         id="path6" />
      <path
         d="m 9.7,-0.4 h 65 V 40.5 H 47.05 L 45.5,40.7 27,40.65 25.95,40.5 H 9.7 -0.5 V -0.4 H 9.7 V 40.5 -0.4"
         fill="#ffffff"
         fill-rule="evenodd"
         stroke="none"
         id="path7" />
    </g>
    <g
       id="shape1"
       transform="translate(-1.75,-1.7)">
      <path
         d="M 60.25,5.95 60.2,6 59.1,6.2 58.2,6.6 57.9,6.55 57.65,6.2 q 0,-0.45 0.4,-0.75 l 1.6,-1.05 q 0.4,-0.25 1.1,-0.35 L 62.45,3.9 62.8,4 63.55,4.25 q 0.55,0.4 0.7,0.9 Q 64.5,5.9 63.9,6.4 63.3,6.95 62.6,6.6 L 62.15,6.35 61.65,6.2 60.35,5.95 h -0.1 m -28.95,9.1 -0.15,0.1 v 0.2 0.8 l -0.05,0.25 1.6,-0.35 q 1.2,-0.1 1.65,0.4 l 3.85,-0.4 5.75,0.7 H 44 l 0.75,-0.25 q 4.95,-1.65 9.95,-1.15 l 3.75,-0.95 -0.5,-0.8 H 57.9 q -0.85,0.15 -1.4,-0.55 -0.55,-0.65 -0.2,-1.45 0.2,-0.5 0.75,-0.85 l 1.05,-0.45 1.5,-0.5 1.8,-0.05 1,0.2 1.3,0.45 0.65,0.65 0.05,0.15 1.05,0.25 0.8,0.8 h 0.05 l 0.15,0.2 0.35,0.25 1.1,0.15 1.05,-0.2 0.9,-0.05 0.8,0.1 0.6,0.55 0.05,0.55 -0.3,0.35 -1.05,0.7 -0.8,0.25 -0.5,0.1 -1.3,0.05 -0.75,-0.05 -0.8,-0.25 -0.7,-0.35 -0.2,-0.25 -0.7,0.15 -0.4,0.1 -1.25,0.6 -0.6,0.2 h -0.3 l -1,1.3 q 2.95,-0.05 5.95,0.9 1.35,0.4 2.4,1.1 1.2,0.85 1.6,2 0.3,0.55 0.2,1.35 0,1.25 -0.9,1.4 Q 69.35,23.6 68.75,23 l -0.8,-1.1 Q 67.1,20.95 64.6,20.35 l -3.8,-0.55 -0.1,0.2 -0.1,0.2 -0.3,0.3 q -0.1,0.1 -0.25,0.15 l -0.1,0.1 -0.2,0.1 -1,0.2 L 58.4,21 q -0.25,-0.05 -0.75,-0.45 l -0.3,-0.4 -0.05,-0.3 V 19.8 l -1.25,0.05 -1.15,0.75 -2.1,0.75 q 0.35,1.5 0,2.9 -0.35,1.5 -1.35,2.45 l -0.6,0.6 q -0.3,0.5 0.15,2.1 0.9,2.7 0.3,5.6 -0.65,2.9 -2.55,4.95 l -1.05,0.9 -1.35,0.25 -0.9,-0.7 q -0.35,-0.6 -0.2,-1.15 l 0.45,-0.8 0.65,-0.7 q 1.2,-1.25 1.7,-3 0.5,-1.75 0.1,-3.45 -0.65,-2 -0.7,-3 -0.15,-1.8 1.15,-3.2 l 1.2,-1.2 q 0.6,-0.75 0.6,-2.1 l -3.35,0.15 -2.25,-0.1 q -1.7,-0.1 -2.6,-0.6 h -0.05 l -0.5,0.1 q -0.6,0.75 -1.8,1.15 l -2.35,0.4 q -2.5,0.3 -5.1,1.15 l 1.2,1 0.8,1.15 q 0.3,0.7 0.2,1.65 l -0.2,1.35 q -0.45,1.35 -1.7,2.25 l -2.45,1.4 Q 27.9,33.8 22.8,34.9 l -3.15,0.65 -3,0.55 -1.9,0.1 -4.4,-0.05 -2.3,-0.45 Q 6.7,34.95 6.85,33.75 7,32.9 8,32.35 L 9.85,32.1 q 1.45,0 1.85,0.9 l 3.9,-0.1 2.55,-0.45 2.55,-0.5 q 6,-1.2 8.75,-2.45 1,-0.4 1.4,-0.9 0.5,-0.5 0.35,-1 l -0.45,-0.55 -1.9,-0.7 Q 27.6,26 27.05,25.5 q -0.6,-0.6 -0.6,-1.55 0.1,-0.9 0.8,-1.45 0.4,-0.35 0.95,-0.5 l 2.65,-0.85 q -1,-0.3 -1.5,-0.75 l -0.8,-0.95 H 26.9 V 19.4 q -0.4,0 -0.7,-0.3 L 26,18.9 24.65,19 h -2.2 L 16.6,19.65 10.75,20.35 6.8,20.4 5.2,20.2 Q 4,19.75 4,18.5 4,17.95 4.4,17.5 4.8,17.05 5.35,17 l 1.2,0.2 1.3,0.1 4.5,-0.35 4.5,-0.55 9.55,0.25 1.65,0.25 0.85,0.1 -0.75,-0.75 -0.1,-0.2 L 28,15.8 q -0.15,-1.15 0.6,-2.15 0.5,-0.6 1.15,-0.8 l 0.35,-0.05 0.1,-0.05 0.7,0.1 0.7,0.6 q 0.25,0.4 0.15,0.9 l -0.25,0.45 -0.2,0.25 m 42.75,-0.3 0.2,0.05 0.3,0.2 0.25,0.3 q 0.25,0.25 0.15,0.65 l -0.05,0.2 -0.45,0.8 -0.35,0.2 -0.95,0.25 v 0.05 h -0.8 L 72.3,17.4 71.65,17.25 Q 71.1,17.1 70.8,16.55 70.55,16.05 70.7,15.5 l 0.15,-0.3 0.25,-0.25 0.4,-0.2 0.4,-0.1 0.9,-0.05 0.2,0.1 h 0.6 l 0.45,0.05 m -17.6,-11.9 0.1,-0.15 0.2,-0.4 0.2,-0.15 0.1,-0.1 Q 57.2,2 57.3,1.9 L 57.9,1.75 V 1.7 l 0.7,0.2 0.2,0.15 0.15,0.2 L 59,2.4 v 0.1 l 0.05,0.1 V 2.8 L 59,2.95 58.65,3.45 57.45,4 57,4.65 56.85,4.8 56.75,4.85 56.6,4.9 56.4,4.85 56.35,4.7 56.2,4.5 56.25,4.1 V 3.7 L 56.3,3.6 56.4,3.1 56.45,3 V 2.85 M 52.8,5.3 54.2,5.2 q 0.95,0.15 1.5,0.6 l 0.95,1.05 0.25,0.65 0.05,1.45 Q 56.6,10.05 55.5,10.05 54.4,10.15 53.95,9 L 53.65,8.6 53.2,8.7 Q 52.3,8.7 51.8,8.05 51.3,7.45 51.45,6.6 51.7,5.95 52.2,5.55 L 52.8,5.3 m -11.15,17.35 0.45,-0.15 0.5,-0.1 0.15,-0.05 0.1,-0.15 0.2,-0.1 0.4,-0.05 q 0.35,0 0.95,0.3 l 0.45,0.3 0.25,0.3 0.1,0.25 0.05,0.3 -0.05,0.3 -0.15,0.4 -0.1,0.05 -0.25,0.25 -0.45,0.25 -1.05,0.1 -1.3,-0.15 -0.4,-0.2 -0.15,-0.15 -0.1,-0.15 -0.15,-0.5 v -0.25 l 0.15,-0.35 0.15,-0.25 0.25,-0.2 M 56.5,20.8 q 0.25,-0.05 0.5,0.15 l 0.3,0.4 -0.1,0.55 -0.15,0.2 -0.2,0.05 -0.6,-0.05 Q 55.8,21.85 55.9,21.35 56,20.9 56.5,20.8 m 3.8,14.55 Q 58.25,35.1 56.8,34.3 l -1.6,-1.15 -0.8,-1 Q 53.85,31.1 54.25,30 q 0.4,-1.15 1.45,-1.55 l 1.55,-0.05 q 0.9,0.45 0.75,1.3 -0.15,0.65 -0.8,0.95 0.95,0.95 2.25,1.25 l 2.55,0.4 2.65,0.05 3.5,-0.15 2.1,-0.6 0.6,-0.4 0.2,-0.85 L 71,29.4 q 0.1,-1.25 0.9,-1.4 0.8,-0.2 1.4,0.7 0.65,0.9 0.7,2.1 0.05,1.15 -0.55,2.1 Q 72.5,34.3 70,34.95 L 63.5,35.5 60.3,35.35 M 30.65,9.8 v 0.15 l -0.1,0.1 -0.2,0.5 -0.25,0.2 -0.4,-0.15 -0.25,-0.45 V 9.9 L 29.3,9.4 29,8.7 28.6,8.1 28.55,7.5 Q 28.65,7.05 28.9,6.85 29.15,6.6 29.65,6.6 V 6.55 l 0.65,0.15 0.35,0.45 0.15,0.3 v 0.2 l 0.1,0.2 V 8.7 l -0.15,0.8 -0.1,0.3 m -3.1,2.05 -0.4,-0.05 -1.5,-0.25 h -1 l -0.5,0.15 -0.45,0.05 -0.05,-0.05 -0.9,-0.6 q -0.35,-0.5 -0.2,-1.05 0.15,-0.7 0.8,-1 l 0.8,-0.2 0.05,-0.05 0.95,0.15 1,0.35 0.5,0.25 1.05,0.85 0.4,0.5 0.25,0.4 0.1,0.65 -0.5,0.05 -0.4,-0.15 m -6.5,-0.9 Q 20.9,11 20.65,10.75 L 20.45,10.5 20.4,9.9 20.85,9.4 21.55,9.45 22,10 l 0.05,0.2 -0.1,0.2 -0.05,0.2 -0.55,0.35 L 21.3,11 h -0.2 l -0.05,-0.05 m -3.3,1.9 -0.4,-0.1 -0.4,-0.3 -0.25,-0.35 -0.05,-0.4 0.2,-0.65 q 0.3,-0.35 0.85,-0.45 l 0.95,-0.05 1.1,0.05 0.65,0.4 q 0.35,0.35 0.3,0.75 l -0.15,0.35 -0.4,0.45 -0.3,0.15 -0.4,0.1 v 0.05 h -1.7 m -3.3,2.4 q -0.6,-0.1 -0.85,-0.6 -0.25,-0.65 0.1,-1 0.25,-0.4 0.95,-0.5 l 1.1,-0.1 1.5,0.1 3.85,0.7 2.65,0.7 1.5,0.25 1.4,0.35 0.3,0.2 v 0.35 l -0.35,0.1 -4.4,-0.2 -4.7,-0.35 -2.1,-0.1 -0.95,0.1 M 10.8,11.15 H 10.5 V 11.1 l -0.35,-0.2 -0.1,-0.15 v -0.2 l 0.05,-0.4 0.2,-0.15 0.85,0.1 0.05,0.15 0.05,0.35 -0.05,0.2 -0.1,0.15 -0.3,0.15 v 0.05 m 26.4,22.2 -0.7,1 q -0.85,1.8 -0.8,2.95 l 0.1,0.4 0.25,0.4 q 0.85,0.75 0.95,1.2 0.1,0.55 -0.25,0.95 -0.3,0.4 -0.8,0.55 L 34.3,40.6 q -0.7,-0.35 -1.25,-1.15 l -0.35,-0.75 -0.05,-0.6 0.1,-2.2 0.3,-1.15 0.3,-0.55 0.75,-1.1 0.65,-0.6 q 0.7,-0.5 1.1,-0.6 0.65,-0.15 1.15,0.25 0.55,0.5 0.2,1.2 M 23.5,37.9 Q 23,37.55 22.9,37 22.85,36.55 23.15,36.25 23.5,35.9 23.9,35.9 l 1.15,0.25 0.45,0.55 -0.15,0.65 -0.45,0.35 -0.5,0.25 -0.9,-0.05"
         fill="#999999"
         fill-rule="evenodd"
         stroke="none"
         id="path8" />
      <path
         d="m 43.1,18.75 -2.75,0.55 q -3.5,0.1 -6.4,-1.95 l -0.4,-0.3 -0.6,0.45 q -1.05,0.7 -2.05,0.7 l -1.65,-0.45 q -0.9,-0.4 -1.25,-0.8 l -0.25,-0.4 0.3,-0.05 0.35,-0.15 0.65,-0.5 0.2,-0.4 0.1,-0.35 0.05,-0.35 v -0.8 l 0.05,-0.1 0.4,-0.2 0.2,-0.2 0.4,-0.5 0.1,-0.2 V 12.6 l 0.05,-0.35 1.1,-0.3 0.05,-0.75 Q 32,8.75 33.45,7.15 34.35,6.1 35.65,5.5 36.7,5 38.05,4.85 40.55,4.4 42.3,4.9 l 1.8,0.75 0.45,0.25 q 1.55,-1.3 3.7,-1.7 l 2.4,-0.15 1.9,0.2 -0.05,0.5 0.1,0.4 0.4,0.7 0.25,0.25 0.35,0.25 0.45,0.15 1.05,0.1 q 0.05,0.45 0.45,0.8 l 0.35,0.3 0.45,0.25 0.4,0.1 h 0.2 l 1,0.1 L 58,8.1 h 0.1 l 0.75,1.5 0.4,1.3 0.85,-0.3 2.95,-0.35 2.2,0.25 q 1.2,0.3 1.8,1.25 l 0.4,0.65 0.4,0.55 1.5,0.25 1.85,-0.1 q 0.6,0 0.65,0.35 l -0.2,0.35 q -0.8,0.75 -2.9,0.85 l -1.2,-0.05 -1.4,-0.8 -1.4,-0.95 -1.65,-0.15 q -1.9,0 -3.05,0.7 L 59.2,14.05 59,14.2 Q 58.4,15.5 57.15,16 L 55.8,16.35 52,16.9 48.45,17 v 0.05 l -0.05,0.5 q -0.15,0.85 -1.05,1.35 -0.75,0.4 -1.8,0.4 l -0.75,-0.05 -0.65,-0.2 -0.9,-0.35 -0.15,0.05 m 20.3,-0.5 h -1.75 l -0.95,-0.05 -0.8,0.05 -0.2,-0.3 q -0.05,-0.2 0.05,-0.3 0.4,-0.9 1.55,-1.35 l 2.1,-0.4 2.6,-0.1 2.45,0.35 0.4,0.15 0.35,0.1 q 2.35,0.7 4.45,2.8 1.95,2.05 1.75,3.8 -0.15,1.05 -0.9,1.95 l -1.55,1.55 q 0.55,2.4 -0.4,4.7 l -1,1.35 -1.3,0.4 Q 65.3,33.85 60,33.2 L 57.8,32.7 Q 56.6,32.3 56,31.35 L 55.85,31.1 55.3,30.25 q -0.2,-0.65 -0.05,-1.35 0.3,-2 1.75,-3.7 l 1.25,-1.15 q 1.45,-1 3.95,-1.75 0.65,-0.75 1.65,-1.2 1.4,-0.65 2.95,-0.5 l 1.05,0.2 0.65,-0.25 -1.65,-1.45 -1.5,-0.6 -0.6,-0.15 -0.85,-0.1 h -0.5 m 5.05,6.7 -0.05,0.2 -0.1,0.25 v 0.15 l 0.15,0.5 0.2,0.2 v 0.1 l 0.05,0.45 v 0.9 l 0.05,0.5 0.1,0.35 0.3,0.4 0.45,-0.1 0.5,-0.65 0.15,-0.7 0.05,-1.25 -0.15,-1.1 Q 70,24.8 69.45,24.6 l -0.65,0.1 -0.35,0.25 M 59.7,26 59.6,26.15 v 0.15 l -0.05,0.5 0.05,0.35 v 0.2 l 0.1,0.5 0.1,0.3 0.25,0.4 0.35,0.15 h 0.35 l 0.2,-0.25 0.2,-0.4 0.05,-0.35 0.05,-0.85 0.1,-0.15 0.35,-0.35 q 0.45,-0.5 0.35,-1.1 L 62,25 61.8,24.7 61.45,24.5 61,24.45 60.6,24.6 60.35,24.8 59.95,25.35 59.7,25.8 V 26 m -15.6,-10.75 0.1,-0.5 v -0.2 l -1.15,-1.1 0.15,-0.2 0.1,-0.15 0.3,-0.3 0.4,-0.6 -0.1,-0.25 -0.3,-0.05 -0.1,0.05 -0.2,0.15 -0.4,0.4 -0.5,0.35 V 12.9 L 41.9,12.65 41.8,12.5 41.5,12.25 41.2,12.1 40.9,11.9 v 0.05 h -0.05 q -0.25,0 -0.25,0.2 l 0.05,0.35 0.1,0.05 0.05,0.15 0.65,0.7 0.1,0.15 -0.2,0.15 -0.35,0.4 -0.25,0.3 -0.05,0.2 0.05,0.5 0.1,0.15 0.35,0.1 0.35,-0.05 0.3,-0.4 0.15,-0.25 0.15,-0.15 0.1,-0.2 0.2,0.3 0.4,0.4 0.1,0.15 0.2,0.2 0.35,0.15 0.35,-0.05 0.1,-0.1 0.15,-0.1 m -6.7,-5.35 0.7,0.5 0.2,0.8 0.1,0.35 0.3,0.3 0.4,0.05 0.35,-0.6 0.1,-0.7 0.05,-0.35 0.2,-0.25 1.5,-1.05 0.1,-0.2 V 8.25 L 41.35,8.1 V 8.05 l -0.1,-0.1 -0.5,-0.2 H 40.6 l -0.2,0.1 -0.3,0.2 q -0.5,0.2 -1.05,0.7 L 38.8,8.9 38.55,8.8 37.5,8.15 37.05,7.95 36.4,8.05 36.15,8.3 q -0.3,0.5 0.1,1 l 0.4,0.3 0.4,0.1 0.05,0.05 0.3,0.15 M 43.15,41 H 37.8 q -2.15,0 -2.9,-0.7 -0.7,-0.6 -0.85,-1.55 -0.15,-0.8 -0.05,-1.8 0.4,-4.1 2.2,-7.4 1.1,-2.1 2.35,-3.1 1.75,-1.4 3.65,-1.1 1.05,0.2 1.95,0.95 0.35,-0.65 1,-1.15 l 1.55,-0.9 1.65,-0.8 q 0.45,-0.2 0.6,-0.55 l 0.1,-0.65 v -0.7 q 0.1,-0.75 0.75,-1 l 1.3,0.05 q 0.7,0.4 1,1.55 0.55,2.4 -0.95,3.65 -1,0.55 -1.45,0.85 -0.4,0.15 -0.6,0.5 l -0.25,0.5 q -0.05,0.5 0.6,1.95 l 0.45,1.8 0.2,1.75 q 0.05,2.45 -1.95,5.3 l -1,1.05 q -0.6,0.75 -1.6,1.05 L 43.15,41 M 62.7,27.25 v 0.05 q -0.3,0 -0.45,0.3 v 0.1 l -0.1,0.1 v 0.1 l -0.1,0.15 v 0.25 l -0.05,0.25 -0.1,0.2 v 0.4 l -0.05,0.2 0.05,0.15 v 0.15 l 0.1,0.1 0.2,0.45 0.15,0.25 0.2,0.25 0.3,0.15 h 0.35 l 0.3,-0.15 0.2,-0.15 0.15,-0.25 0.05,-0.15 V 30 L 63.8,29.55 63.75,29.4 63.5,29.2 63.25,28.85 V 28.7 l -0.1,-0.25 v -0.2 L 63.1,28 l -0.05,-0.1 0.1,-0.2 v -0.1 l -0.1,-0.1 -0.35,-0.25 m 4.35,1.2 v 0.4 L 67,29.05 v 0.2 l -0.1,0.3 v 0.1 l -0.1,0.5 0.15,0.4 0.45,0.3 h 0.45 l 0.3,-0.2 0.2,-0.3 0.05,-0.25 V 29.6 L 68.3,29.25 V 29 l -0.1,-0.3 v -0.15 l -0.05,-0.1 -0.05,-0.5 -0.05,-0.1 -0.1,-0.1 -0.1,-0.15 -0.15,-0.15 -0.2,-0.05 q -0.25,0 -0.4,0.15 l -0.05,0.1 -0.1,0.1 v 0.4 l 0.05,0.1 v 0.1 l 0.05,0.1 m -22.25,10 0.1,-0.4 0.05,-0.5 v -0.3 L 45.05,37 V 36.65 L 45.2,36.1 45.05,35.35 45,35.2 l -0.2,-0.15 -0.25,0.1 -0.1,0.2 -0.1,0.3 -0.05,0.35 -0.15,0.5 -0.05,0.25 -0.15,0.4 -0.1,0.25 -0.25,0.4 -0.45,0.45 -0.3,0.4 q -0.15,0.45 0.05,0.8 l 0.15,0.15 q 0.3,0.3 0.6,0.2 l 0.25,-0.05 0.3,-0.15 0.2,-0.3 0.15,-0.15 0.25,-0.45 v -0.25 m -0.3,-5.3 v -0.3 l 0.15,-0.5 0.2,-1.9 v -0.3 l -0.15,-0.7 q -0.3,-0.7 -0.95,-0.6 L 43.6,28.9 q -0.3,0 -0.45,0.2 l -0.25,0.4 -0.05,0.3 0.25,0.9 0.05,0.3 0.15,2.35 -0.05,0.4 0.2,0.4 q 0.1,0.35 0.35,0.25 l 0.35,-0.35 0.15,-0.2 0.1,-0.25 0.1,-0.45 m -9.35,-19.6 0.1,-0.2 0.75,-0.75 0.1,-0.2 -0.2,-0.5 -0.1,-0.1 -0.2,-0.05 -0.3,0.05 -0.3,0.3 -0.3,0.4 -0.1,0.05 -0.3,-0.5 q -0.3,-0.4 -0.6,-0.4 v 0.05 l -0.35,0.1 -0.2,0.35 Q 33.1,12.4 33.4,12.8 l 0.1,0.15 v 0.15 l 0.1,0.1 0.25,0.25 -0.4,0.55 -0.25,0.2 -0.1,0.15 v 0.1 l -0.2,0.25 v 0.1 l 0.1,0.15 h 0.2 l 0.15,-0.1 q 0,-0.15 0.15,-0.15 l 0.2,-0.2 0.1,-0.15 0.65,-0.35 0.5,0.3 0.15,0.2 0.55,0.5 0.3,-0.05 0.1,-0.15 -0.15,-0.3 -0.15,-0.15 -0.05,-0.15 -0.2,-0.15 -0.35,-0.5 m -10.75,3.1 0.45,0.25 0.15,0.45 -0.4,0.3 -2.45,0.3 -7.7,0.7 -3.6,0.5 L 8,19.5 7,19.75 4,19.6 Q 2.4,19.2 2,18.35 1.75,17.9 1.75,16.85 L 1.85,15.4 2.2,14.65 2.65,13.85 3.4,13.2 q 1.95,-1.35 3.95,-1.35 l 1.25,0.2 2.85,0.1 2.75,0.6 4.4,1.05 q 3.75,0.95 5.4,2.35 l 0.4,0.5 m -5.1,6.5 q 0.15,-0.5 0.8,-1.05 2.35,-2 5.3,-2.4 l 4.35,-0.25 2.7,-0.05 1.4,0.15 1.55,0.35 1.35,0.4 1.25,0.55 0.4,0.4 Q 38.55,21.8 37.8,22 l -0.8,0.1 -0.25,0.1 -1.25,0.05 -3.85,0.3 -2.95,0.65 -1.3,0.6 1.85,0.6 q 1.3,0.5 2,1.3 l 0.7,1.1 0.3,1.25 q -0.05,1.1 -1.2,1.8 l -1.9,0.7 -2.45,0.95 -2.75,0.7 -1.9,0.65 -2.4,0.7 -1.15,0.3 -8.75,0.5 Q 6.25,34.05 4.6,32.5 3.6,31.5 3.3,30.05 3,28.65 3.4,27.2 l 0.7,-1.6 q 0.5,-1.1 1.15,-1.8 1.35,-1.7 3.9,-2.4 l 4.6,-0.2 2.2,0.55 q 0.8,0.3 2.2,1.05 l 1.15,0.45 v -0.1 m 18.65,16.2 0.3,0.3 0.15,0.1 h 0.1 l 0.05,0.05 q 0.5,0.1 0.75,-0.3 l 0.1,-0.2 0.05,-0.2 -0.1,-0.4 -0.2,-0.45 -0.3,-0.5 v -0.3 l -0.3,-0.7 -0.25,-1.3 V 35.4 l -0.05,-0.1 -0.2,-0.1 -0.05,0.05 -0.2,0.25 -0.2,1.15 -0.1,0.35 -0.05,0.55 0.1,0.35 v 0.25 l 0.05,0.25 0.35,0.95 m 0.3,-8.55 0.05,1.3 0.1,0.25 v 0.45 q 0.1,0.55 0.35,0.9 l 0.3,0.25 0.5,-0.1 0.2,-0.45 -0.05,-0.5 0.1,-2.55 0.4,-0.7 v -0.8 Q 39.95,28.3 39.35,28.3 l -0.1,0.05 q -0.3,-0.05 -0.6,0.25 l -0.25,0.65 -0.1,0.4 v 0.85 l -0.05,0.3 M 8.45,28.7 V 29 l -0.1,0.35 -0.05,0.45 0.05,0.9 0.1,0.6 q 0.2,0.35 0.5,0.35 l 0.6,-0.2 Q 9.9,31.05 9.6,30.25 L 9.15,29.1 9.05,28.5 8.7,28.4 8.45,28.7 m -2.2,2.4 0.7,0.3 0.25,-0.15 Q 7.5,31.15 7.5,30.5 L 7.4,29.8 7.45,29.4 7.35,29 7.5,28.6 Q 7.4,28.3 7.15,28.3 6.8,28.35 6.6,28.75 L 6.35,29.35 6.1,30.3 q 0,0.65 0.15,0.8 M 9.85,23.95 9.6,24.15 9.4,24.4 9.25,25 v 0.2 l -0.05,0.6 0.05,0.5 0.05,0.25 0.05,1.2 0.2,0.5 0.05,0.1 q 0.15,0.2 0.45,0.2 l 0.15,-0.1 0.1,-0.1 0.25,-1 v -0.3 l 0.2,-0.6 0.05,-0.4 0.15,-0.25 0.05,-0.25 0.1,-0.9 -0.15,-0.45 Q 10.65,23.9 10.2,23.9 L 9.85,23.95 M 6.8,25.65 6.95,25.4 7.05,25.1 7.2,24.95 v -0.2 L 7.1,24.25 6.9,24.1 6.4,23.95 q -0.2,0 -0.65,0.45 l -0.1,0.2 v 0.1 l -0.05,0.15 -0.1,0.2 -0.1,0.3 v 0.2 l -0.1,0.3 v 1.05 l 0.05,0.2 0.05,0.45 0.05,0.15 0.2,0.2 0.5,0.1 0.2,-0.15 0.15,-0.3 0.1,-0.75 0.05,-0.2 V 26.2 L 6.8,25.65 M 3.2,16.6 3.45,16.8 3.9,17.05 4.2,16.7 V 16.3 L 4.3,15.45 4.4,15.1 4.25,14.6 3.8,14.4 3.7,14.45 q -0.3,0 -0.4,0.25 H 3.25 L 3.1,15.05 v 0.7 l 0.1,0.85 m 2.1,-1.7 v 0.55 l -0.05,0.25 0.1,0.95 q 0,0.35 0.25,0.5 l 0.5,-0.1 0.45,-1.6 v -0.7 q -0.15,-0.3 -0.6,-0.3 -0.55,0 -0.65,0.45"
         fill="#000000"
         fill-rule="evenodd"
         stroke="none"
         id="path9" />
      <path
         d="m 59.7,26 v -0.2 l 0.25,-0.45 0.4,-0.55 0.25,-0.2 0.4,-0.15 0.45,0.05 0.35,0.2 0.2,0.3 0.05,0.25 q 0.1,0.6 -0.35,1.1 l -0.35,0.35 -0.1,0.15 -0.05,0.85 -0.05,0.35 -0.2,0.4 -0.2,0.25 H 60.4 l -0.35,-0.15 -0.25,-0.4 -0.1,-0.3 -0.1,-0.5 v -0.2 L 59.55,26.8 59.6,26.3 V 26.15 L 59.7,26 m 8.75,-1.05 0.35,-0.25 0.65,-0.1 q 0.55,0.2 0.7,0.55 l 0.15,1.1 -0.05,1.25 -0.15,0.7 -0.5,0.65 -0.45,0.1 -0.3,-0.4 -0.1,-0.35 -0.05,-0.5 v -0.9 l -0.05,-0.45 v -0.1 l -0.2,-0.2 -0.15,-0.5 V 25.4 l 0.1,-0.25 0.05,-0.2 m -23.95,8.2 -0.1,0.45 -0.1,0.25 -0.15,0.2 -0.35,0.35 q -0.25,0.1 -0.35,-0.25 l -0.2,-0.4 0.05,-0.4 L 43.15,31 43.1,30.7 42.85,29.8 42.9,29.5 43.15,29.1 q 0.15,-0.2 0.45,-0.2 l 0.15,-0.05 q 0.65,-0.1 0.95,0.6 l 0.15,0.7 v 0.3 l -0.2,1.9 -0.15,0.5 v 0.3 m 0.3,5.3 v 0.25 l -0.25,0.45 -0.15,0.15 -0.2,0.3 -0.3,0.15 -0.25,0.05 q -0.3,0.1 -0.6,-0.2 L 42.9,39.45 q -0.2,-0.35 -0.05,-0.8 l 0.3,-0.4 0.45,-0.45 0.25,-0.4 0.1,-0.25 0.15,-0.4 0.05,-0.25 0.15,-0.5 0.05,-0.35 0.1,-0.3 0.1,-0.2 0.25,-0.1 0.2,0.15 0.05,0.15 0.15,0.75 -0.15,0.55 V 37 l -0.1,0.25 v 0.3 l -0.05,0.5 -0.1,0.4 m 22.25,-10 -0.05,-0.1 v -0.1 l -0.05,-0.1 v -0.4 l 0.1,-0.1 0.05,-0.1 q 0.15,-0.15 0.4,-0.15 l 0.2,0.05 0.15,0.15 0.1,0.15 0.1,0.1 0.05,0.1 0.05,0.5 0.05,0.1 v 0.15 l 0.1,0.3 v 0.25 l 0.1,0.35 v 0.5 l -0.05,0.25 -0.2,0.3 -0.3,0.2 H 67.4 l -0.45,-0.3 -0.15,-0.4 0.1,-0.5 v -0.1 l 0.1,-0.3 v -0.2 l 0.05,-0.2 v -0.4 m -4.35,-1.2 0.35,0.25 0.1,0.1 v 0.1 l -0.1,0.2 0.05,0.1 0.05,0.25 v 0.2 l 0.1,0.25 v 0.15 l 0.25,0.35 0.25,0.2 0.05,0.15 0.1,0.45 v 0.15 l -0.05,0.15 -0.15,0.25 -0.2,0.15 -0.3,0.15 H 62.85 L 62.55,30.7 62.35,30.45 62.2,30.2 62,29.75 61.9,29.65 V 29.5 l -0.05,-0.15 0.05,-0.2 v -0.4 l 0.1,-0.2 0.05,-0.25 v -0.25 l 0.1,-0.15 v -0.1 l 0.1,-0.1 V 27.6 Q 62.4,27.3 62.7,27.3 V 27.25 M 5.3,14.9 q 0.1,-0.45 0.65,-0.45 0.45,0 0.6,0.3 v 0.7 l -0.45,1.6 -0.5,0.1 Q 5.35,17 5.35,16.65 L 5.25,15.7 5.3,15.45 V 14.9 M 3.2,16.6 3.1,15.75 v -0.7 L 3.25,14.7 H 3.3 Q 3.4,14.45 3.7,14.45 L 3.8,14.4 4.25,14.6 4.4,15.1 4.3,15.45 4.2,16.3 v 0.4 L 3.9,17.05 3.45,16.8 3.2,16.6 m 3.6,9.05 -0.15,0.55 v 0.4 L 6.6,26.8 6.5,27.55 6.35,27.85 6.15,28 5.65,27.9 5.45,27.7 5.4,27.55 5.35,27.1 5.3,26.9 v -1.05 l 0.1,-0.3 v -0.2 l 0.1,-0.3 0.1,-0.2 0.05,-0.15 v -0.1 l 0.1,-0.2 Q 6.2,23.95 6.4,23.95 l 0.5,0.15 0.2,0.15 0.1,0.5 v 0.2 L 7.05,25.1 6.95,25.4 6.8,25.65 m 3.05,-1.7 0.35,-0.05 q 0.45,0 0.75,0.3 l 0.15,0.45 -0.1,0.9 -0.05,0.25 -0.15,0.25 -0.05,0.4 -0.2,0.6 v 0.3 l -0.25,1 -0.1,0.1 -0.15,0.1 q -0.3,0 -0.45,-0.2 L 9.55,28.25 9.35,27.75 9.3,26.55 9.25,26.3 9.2,25.8 9.25,25.2 V 25 L 9.4,24.4 9.6,24.15 9.85,23.95 M 6.25,31.1 Q 6.1,30.95 6.1,30.3 l 0.25,-0.95 0.25,-0.6 q 0.2,-0.4 0.55,-0.45 0.25,0 0.35,0.3 l -0.15,0.4 0.1,0.4 -0.05,0.4 0.1,0.7 q 0,0.65 -0.3,0.75 L 6.95,31.4 6.25,31.1 m 2.2,-2.4 0.25,-0.3 0.35,0.1 0.1,0.6 0.45,1.15 q 0.3,0.8 -0.05,1.2 l -0.6,0.2 q -0.3,0 -0.5,-0.35 L 8.35,30.7 8.3,29.8 8.35,29.35 8.45,29 v -0.3 m 29.8,2.1 0.05,-0.3 v -0.85 l 0.1,-0.4 0.25,-0.65 q 0.3,-0.3 0.6,-0.25 l 0.1,-0.05 q 0.6,0 0.85,0.55 v 0.8 l -0.4,0.7 -0.1,2.55 0.05,0.5 -0.2,0.45 -0.5,0.1 -0.3,-0.25 Q 38.5,33.35 38.4,32.8 V 32.35 L 38.3,32.1 38.25,30.8 M 37.95,39.35 37.6,38.4 37.55,38.15 V 37.9 l -0.1,-0.35 0.05,-0.55 0.1,-0.35 0.2,-1.15 0.2,-0.25 0.05,-0.05 0.2,0.1 0.05,0.1 v 0.05 l 0.25,1.3 0.3,0.7 v 0.3 l 0.3,0.5 0.2,0.45 0.1,0.4 -0.05,0.2 -0.1,0.2 q -0.25,0.4 -0.75,0.3 L 38.5,39.75 h -0.1 l -0.15,-0.1 -0.3,-0.3"
         fill="#ffffff"
         fill-rule="evenodd"
         stroke="none"
         id="path10" />
    </g>
    <g
       id="shape2"
       transform="translate(2,2.05)">
      <path
         d="M -0.5,-0.4 V -0.55 H 75.1 V -0.4 40.8 H -0.5 Z"
         fill="none"
         stroke="#000000"
         stroke-linecap="round"
         stroke-linejoin="round"
         stroke-width="3"
         id="path11" />
    </g>
  </defs>
</svg>
