<?xml version="1.0" encoding="UTF-8" standalone="no"?>
<svg
   ffdec:objectType="frame"
   height="44.349998"
   width="78.599998"
   version="1.1"
   id="svg11"
   sodipodi:docname="66.svg"
   xmlns:inkscape="http://www.inkscape.org/namespaces/inkscape"
   xmlns:sodipodi="http://sodipodi.sourceforge.net/DTD/sodipodi-0.dtd"
   xmlns:xlink="http://www.w3.org/1999/xlink"
   xmlns="http://www.w3.org/2000/svg"
   xmlns:svg="http://www.w3.org/2000/svg"
   xmlns:ffdec="https://www.free-decompiler.com/flash">
  <sodipodi:namedview
     id="namedview11"
     pagecolor="#ffffff"
     bordercolor="#000000"
     borderopacity="0.25"
     inkscape:showpageshadow="2"
     inkscape:pageopacity="0.0"
     inkscape:pagecheckerboard="0"
     inkscape:deskcolor="#d1d1d1"
     fit-margin-top="5"
     fit-margin-left="5"
     fit-margin-right="5"
     fit-margin-bottom="5" />
  <g
     transform="translate(2,2.05)"
     id="g3">
    <use
       ffdec:characterId="1"
       height="42.700001"
       transform="translate(-1.75,-2)"
       width="76.449997"
       xlink:href="#shape0"
       id="use1" />
    <use
       ffdec:characterId="65"
       height="41.400002"
       transform="translate(-0.95)"
       width="76.449997"
       xlink:href="#shape1"
       id="use2" />
    <use
       ffdec:characterId="3"
       height="44.349998"
       transform="translate(-2,-2.05)"
       width="78.599998"
       xlink:href="#shape2"
       id="use3" />
  </g>
  <defs
     id="defs11">
    <g
       id="shape0"
       transform="translate(1.75,2)">
      <path
         d="M 2.8,0 V -0.4 H 5.4 V 0 H 9.7 V 19.45 0 H 20.55 L 19.3,19.45 H 9.7 0.25 V 0 H 2.8"
         fill="#ffffff"
         fill-rule="evenodd"
         stroke="none"
         id="path3" />
      <path
         d="M 0.25,19.45 H 9.7 19.3 L 18.7,28.6 16,28.5 10.95,27.95 9.7,27.8 Q 7.45,27.6 5.85,27.75 4.05,27.9 1.5,28.6 0.75,28.8 0.25,29.15 v -9.7 m 9.45,0 v 8.35 -8.35"
         fill="#121212"
         fill-rule="evenodd"
         stroke="none"
         id="path4" />
      <path
         d="m 9.7,27.8 1.25,0.15 5.05,0.55 2.7,0.1 h 1.05 l 3.75,0.15 q 2.45,0.3 3.6,1.25 0.6,0.5 0.6,1.1 0,0.65 -0.8,1 l -1.3,0.2 -7.15,0.15 -5.6,-0.3 L 9.7,31.75 7.95,31.6 3.1,31.95 0.95,32.3 0.25,32.1 -0.35,31.55 -0.5,31.3 V 29.9 L 0.25,29.15 Q 0.75,28.8 1.5,28.6 4.05,27.9 5.85,27.75 7.45,27.6 9.7,27.8 v 3.95 -3.95"
         fill="#999999"
         fill-rule="evenodd"
         stroke="none"
         id="path5" />
      <path
         d="M 2.8,0 H 0.25 M 9.7,0 H 5.4 m 16.15,0 h 10.7 M 20.55,0 H 9.7"
         fill="none"
         stroke="#666666"
         stroke-linecap="round"
         stroke-linejoin="round"
         stroke-width="4"
         id="path6" />
      <path
         d="m 9.7,-0.4 h 65 V 40.5 H 47.05 L 45.5,40.7 27,40.65 25.95,40.5 H 9.7 -0.5 V -0.4 H 9.7 V 40.5 -0.4"
         fill="#ffffff"
         fill-rule="evenodd"
         stroke="none"
         id="path7" />
    </g>
    <g
       id="shape1"
       transform="translate(0.95)">
      <path
         d="m 32.35,9.75 1.9,-0.35 q 0,-0.8 0.3,-1.75 0.5,-1.3 1.15,-2.1 Q 34.15,3.9 32.15,3.65 30.2,3.4 27.25,4.55 26.5,4.8 26.1,5.2 L 25.4,6.05 Q 24.7,6.8 23.85,6.7 23.2,6.65 22.8,6.15 22.4,5.65 22.35,5.05 22.15,3.95 23.1,2.9 q 0.7,-0.75 2,-1.35 2.95,-1.5 5.7,-1.55 3.2,-0.1 5.7,1.5 1.45,1 2.05,2.15 0.75,1.5 0.2,2.85 l -0.8,1.55 -0.4,1.1 0.15,0.2 1.3,-0.05 3.6,0.45 -0.15,-1.4 0.2,-1.05 q 0.45,-1.35 1.9,-1.5 1.5,-0.1 2.2,1.25 l 0.25,1.5 -0.35,1.9 -0.6,1.4 -0.3,0.4 0.35,0.55 q 1.15,1.7 1.35,3.45 0.1,1.75 -0.5,3.05 -9.45,-7 -18.95,0 -0.65,-1.3 -0.5,-3.05 0.2,-1.75 1.3,-3.45 l 0.4,-0.55 -0.35,-0.4 -0.6,-1.4 q -0.35,-1 -0.35,-1.9 0,-0.9 0.3,-1.5 0.65,-1.35 2.15,-1.25 1.5,0.15 1.95,1.5 l 0.15,1.05 -0.1,1.4 m 30.15,19.3 0.15,0.35 v 0.55 L 62.2,33.75 66.55,29.4 68.3,28 q 2.4,-2 4.5,-4.8 0.55,-0.9 1.15,-1.2 l 0.85,-0.05 0.55,0.55 q 0.1,0.6 -0.6,1.3 l -0.85,0.9 -2.45,7.1 q -1.1,3.15 -2.2,4.55 l 3.25,-2.65 1.25,-1.2 0.5,-0.7 q 0.45,-0.35 0.85,-0.25 0.5,0.15 0.4,0.85 l -0.45,0.85 -0.6,0.65 0.05,0.1 0.05,0.1 v 0.1 0.1 l 0.05,0.1 -0.05,0.1 v 0.1 0.1 l -0.1,0.1 v 0.1 0.1 0.15 0.1 0.1 0.1 0.1 0.1 0.1 0.1 0.1 0.1 0.1 0.1 0.1 0.1 0.1 0.1 0.15 0.1 L 74.5,37 v 0.1 0.1 0.1 0.1 0.1 0.1 0.1 0.1 0.1 0.1 0.1 0.1 0.15 0.1 0.1 0.1 0.1 0.1 0.1 0.1 0.1 0.1 0.1 0.1 0.1 0.1 0.1 l 0.05,0.15 v 0.1 0.1 0.1 l -0.05,0.05 v 0.05 0.1 0.1 l 0.05,0.1 -0.05,0.1 v 0.1 l -0.05,0.1 V 41 l -0.1,0.1 -0.1,0.1 -0.15,0.1 -0.3,0.1 L 73.55,41.35 73.45,41.3 73.3,41.2 73.2,41.1 73.15,41 73.1,40.85 73.05,40.75 V 40.7 H 73 l -0.6,0.05 h -0.85 l -2.05,0.05 -1.25,0.05 h -2.95 -2 -0.6 l -1.25,0.05 -2.25,0.05 -1,0.05 h -0.9 l -3,0.05 -0.3,0.05 h -0.25 -1 -4.15 -0.55 -0.35 -1 -0.55 L 45.9,41.05 45.75,41 l -0.2,-0.15 -0.15,-0.1 -0.1,-0.1 -0.05,-0.05 -0.4,0.3 -0.95,0.05 q -0.15,-0.35 0.3,-0.7 5.6,-5.7 9.9,-11.55 l 0.4,-0.4 q 0.5,-0.15 0.8,0.35 l 0.15,0.95 -0.55,2.95 q -0.55,2 -0.6,2.95 l 6.45,-6.1 0.85,-0.6 q 0.6,-0.2 0.9,0.25 M 41.35,25.3 q 0.9,0.85 0.85,2.05 0,1.2 -0.9,1.95 -0.75,0.75 -1.95,0.7 -1.15,-0.05 -1.85,-0.85 -0.75,-0.75 -0.75,-1.95 0.1,-1.15 0.8,-1.85 0.7,-0.75 1.9,-0.8 1.15,0 1.9,0.75 m -29.3,3.75 q 0.3,-0.45 0.9,-0.25 l 0.85,0.6 6.45,6.1 -0.6,-2.95 q -0.5,-1.9 -0.55,-2.95 0,-0.65 0.15,-0.95 0.3,-0.5 0.8,-0.35 l 0.4,0.4 q 4.3,5.85 9.9,11.55 0.45,0.35 0.3,0.7 L 29.7,40.9 29.3,40.6 29.25,40.65 29.15,40.75 29,40.85 28.8,41 28.65,41.05 28.4,41.1 h -0.55 -1 -0.35 -0.55 -4.15 -1 -0.25 l -0.3,-0.05 -3,-0.05 h -0.9 l -1,-0.05 -2.25,-0.05 -1.25,-0.05 h -0.6 -2 H 6.3 L 5.05,40.8 3,40.75 H 2.15 L 1.55,40.7 H 1.5 v 0.05 L 1.45,40.85 1.4,41 1.35,41.1 1.25,41.2 1.1,41.3 1,41.35 0.75,41.4 0.45,41.3 0.3,41.2 0.2,41.1 0.1,41 V 40.9 L 0.05,40.8 V 40.7 L 0,40.6 0.05,40.5 V 40.4 40.3 40.25 L 0,40.2 V 40.1 40 39.9 l 0.05,-0.15 v -0.1 -0.1 -0.1 -0.1 -0.1 -0.1 -0.1 -0.1 -0.1 -0.1 -0.1 -0.1 -0.1 -0.1 V 38.2 38.1 38 37.9 37.8 37.7 37.6 37.5 37.4 37.3 37.2 37.1 37 L 0.1,36.9 v -0.1 -0.15 -0.1 -0.1 -0.1 -0.1 -0.1 -0.1 -0.1 -0.1 -0.1 -0.1 -0.1 -0.1 -0.1 -0.1 -0.1 V 35 34.9 34.8 L 0,34.7 V 34.6 34.5 L -0.05,34.4 0,34.3 V 34.2 34.1 L 0.05,34 0.1,33.9 -0.5,33.25 -0.95,32.4 q -0.1,-0.7 0.4,-0.85 0.4,-0.1 0.85,0.25 l 0.5,0.7 1.25,1.2 3.25,2.65 Q 4.2,34.95 3.1,31.8 L 0.65,24.7 -0.2,23.8 Q -0.9,23.1 -0.8,22.5 L -0.25,21.95 0.6,22 1.75,23.2 Q 3.85,26 6.25,28 L 8,29.4 12.35,33.75 Q 12,32.25 11.9,29.95 V 29.4 l 0.15,-0.35"
         fill="#999999"
         fill-rule="evenodd"
         stroke="none"
         id="path8" />
      <path
         d="M 24.6,29.2 Q 23.85,27.25 24,24.25 L 23.3,23.95 21,23.65 18.4,23.3 15.85,23.35 Q 14.8,23.55 13.1,24.5 L 10.35,25.75 6.95,25.6 Q 4.65,24.95 3.75,23.1 L 3.5,22.45 H 3.35 L 2.5,23.15 2.15,23.65 1.75,23.5 1.65,23 q -0.1,-1.35 1,-2.5 0.4,-0.35 0.85,-0.55 L 3.95,18.65 3.5,18.6 2.35,19.15 Q 2.05,19.45 1.75,19.4 1.5,19.25 1.5,18.9 L 1.75,18.35 Q 2.5,17.3 3.25,16.95 3.7,16.7 4.7,16.6 H 5.4 L 6.15,15.85 5.95,15.7 5.05,15.4 Q 3.75,15.25 2.8,16.05 2.55,15.7 2.75,15.1 L 3.5,14.4 Q 5.6,13 7.85,14.15 l 0.4,0.3 q 0.45,-0.25 0.85,-0.4 1.8,-0.65 4.55,-0.8 3.5,-0.1 6,0.95 1.55,0.6 3.55,1.95 1.45,0.9 2,1.5 l 0.1,0.1 L 25.4,17.6 26,16.65 25.75,15.6 25.3,11.9 Q 25.2,11.1 25.4,10.55 25.8,9.5 27,9.5 l 1.05,0.25 1.7,0.6 1.75,1.1 1,0.4 0.45,0.25 0.35,-0.05 3.55,-0.15 v -0.05 h 0.7 0.55 v 0.05 l 3.55,0.15 0.3,0.05 0.45,-0.25 1,-0.4 1.8,-1.1 1.7,-0.6 1.05,-0.25 q 1.15,0 1.6,1.05 l 0.05,1.35 -0.1,1.7 -0.25,0.95 -0.1,1.05 -0.2,1.05 0.6,0.95 0.05,0.15 0.1,-0.1 q 0.55,-0.6 2,-1.5 2.05,-1.35 3.6,-1.95 2.5,-1.05 5.95,-0.95 2.8,0.15 4.55,0.8 l 0.9,0.4 0.4,-0.3 Q 69.35,13 71.45,14.4 l 0.7,0.7 q 0.25,0.6 -0.05,0.95 -0.95,-0.8 -2.2,-0.65 l -0.95,0.3 -0.15,0.15 0.7,0.75 h 0.75 q 1,0.1 1.4,0.35 0.8,0.35 1.5,1.4 l 0.3,0.55 -0.3,0.5 q -0.25,0.05 -0.6,-0.25 l -1.1,-0.55 -0.5,0.05 0.5,1.3 0.85,0.55 q 1.1,1.15 1,2.5 l -0.15,0.5 Q 73,23.8 72.8,23.65 l -0.35,-0.5 -0.9,-0.7 h -0.1 l -0.3,0.65 q -0.85,1.85 -3.2,2.5 l -3.35,0.15 q -0.9,-0.2 -2.75,-1.25 -1.75,-0.95 -2.8,-1.15 l -2.55,-0.05 -2.6,0.35 -2.25,0.3 -0.7,0.3 q 0.15,3 -0.65,4.95 -0.7,1.85 -2.25,3.2 l -0.9,0.65 -0.2,0.2 q -10,7.4 -20,-0.85 -1.65,-1.35 -2.35,-3.2 m 7.35,1.35 0.6,-0.55 q 0.45,0.65 1.8,1.45 l -0.8,0.25 -0.75,0.2 q -0.75,0.05 -1.4,-0.5 l 0.55,-0.85 m 6.15,0.25 -2.05,0.3 v -0.3 l 0.2,-2 0.1,-0.25 h 3.3 v 0.25 l 0.1,1.3 -0.3,1 -0.35,-0.15 -1,-0.15 M 10,23.45 q 0.4,0.45 1.2,0.45 1.5,0.1 2.25,-0.85 l 0.3,-0.65 0.2,-0.65 q 0,-0.45 -0.4,-1.05 -0.9,-1.3 -1.95,-1.1 l -1.25,0.75 -0.5,0.6 -0.2,1.1 q 0,1.05 0.35,1.4 M 8.45,23.6 Q 8.85,23.05 8.55,22.4 8.2,21.75 7.5,21.75 L 7.45,21.8 Q 7.05,21.8 6.8,22.05 6.45,22.3 6.4,22.7 V 23 l 0.05,0.4 0.3,0.4 q 0.6,0.5 1.2,0.2 l 0.5,-0.4 M 6.4,21 Q 7,21.45 7.65,20.85 8.2,20.3 7.8,19.65 7.4,18.95 6.65,19.15 L 6.1,19.6 5.9,19.9 Q 5.7,20.65 6.4,21 m 1.8,-2.7 0.2,0.65 q 0.3,0.4 0.65,0.45 0.7,0.2 1.1,-0.25 L 10.5,18.25 10.05,17.4 8.85,17.25 Q 8.2,17.55 8.2,18.3 m 24.7,5.3 0.05,-0.35 q -1.3,-0.4 -2.45,-1.4 -0.6,-0.6 -0.75,-1.35 -1.2,0 -2.15,0.85 -1.45,1.25 -1.1,3 0.1,0.6 0.5,1.1 0.35,0.45 1.15,0.65 l 0.75,-0.25 2.9,-0.65 h 0.6 q 0.45,-0.65 0.5,-1.6 m 9.45,8.25 -0.9,-0.15 1.35,-1.6 0.15,0.1 0.3,0.45 q 0.35,0.65 0.15,0.95 l -0.45,0.3 -0.6,-0.05 m 1.1,-4.25 Q 42.9,27.25 42.4,27.05 L 42.15,27 q -0.4,-0.05 -0.6,-0.35 L 40.5,26.35 39.3,26.2 v -0.1 q 0.15,-0.9 -0.05,-1.3 l -0.2,-0.65 -0.2,-0.6 q -0.15,-0.3 -0.6,-0.3 -0.25,0 -0.6,0.3 l -0.15,0.55 -0.35,1.05 q -0.1,0.6 0.05,1 l -1.7,0.05 q -3.3,0.35 -5.6,2.9 -0.95,1.05 -1.1,2.05 -0.15,1.7 1.5,2.75 1.35,0.8 3.2,0.6 l 3.2,-0.6 1,-0.1 1.25,0.25 2.7,0.75 2.75,-0.35 q 1.2,-0.7 1.6,-2.35 l 0.1,-1.3 -0.7,-1.45 -0.75,-1.05 -1.2,-0.7 m -1,-3 0.35,0.8 H 43 l 1.05,0.1 1.3,0.5 1.3,0.6 0.4,0.25 0.5,-0.3 q 1,-0.65 1.3,-2.25 0.2,-1.3 -0.4,-2.1 -0.4,-0.65 -1.15,-0.9 L 46.5,21 q -1.1,1.85 -3.2,2.25 l -0.8,0.05 q -0.15,0.6 -0.05,1.3 m 25,-2.5 q 0.9,-0.1 1.2,-0.95 0.2,-0.55 -0.2,-1.2 Q 68.1,19.4 67.35,19.4 H 67.1 q -0.5,0.1 -0.85,0.55 -0.3,0.45 -0.2,1 0.1,0.5 0.5,0.85 0.4,0.3 0.9,0.3 m -2.05,2.2 0.35,0.2 0.3,0.05 0.4,-0.15 q 0.6,-0.45 0.4,-1 l -0.2,-0.35 Q 66.4,22.8 65.95,22.7 l -0.1,0.05 q -0.65,0.1 -0.75,0.75 l 0.05,0.45 0.25,0.35 m -1.65,-2.35 0.35,-1.5 -0.3,-1.05 -0.4,-0.55 -1.8,-0.1 q -0.6,0.4 -0.7,0.55 -0.25,0.3 -0.35,1 -0.15,1.05 0.1,1.8 0.4,0.7 1,0.9 L 63,22.9 63.75,21.95 m 1.9,-5.3 q -0.75,0.35 -0.6,1 0.1,0.65 0.75,0.9 0.8,0.1 1.05,-0.55 0.35,-0.65 -0.15,-1.15 l -0.75,-0.3 -0.1,0.05 -0.2,0.05"
         fill="#000000"
         fill-rule="evenodd"
         stroke="none"
         id="path9" />
      <path
         d="m 65.65,16.65 0.2,-0.05 0.1,-0.05 0.75,0.3 q 0.5,0.5 0.15,1.15 -0.25,0.65 -1.05,0.55 -0.65,-0.25 -0.75,-0.9 -0.15,-0.65 0.6,-1 m -1.9,5.3 L 63,22.9 61.65,23 q -0.6,-0.2 -1,-0.9 -0.25,-0.75 -0.1,-1.8 0.1,-0.7 0.35,-1 0.1,-0.15 0.7,-0.55 l 1.8,0.1 0.4,0.55 0.3,1.05 -0.35,1.5 M 65.4,24.3 65.15,23.95 65.1,23.5 q 0.1,-0.65 0.75,-0.75 l 0.1,-0.05 q 0.45,0.1 0.7,0.35 l 0.2,0.35 q 0.2,0.55 -0.4,1 l -0.4,0.15 -0.3,-0.05 -0.35,-0.2 m 2.05,-2.2 q -0.5,0 -0.9,-0.3 -0.4,-0.35 -0.5,-0.85 -0.1,-0.55 0.2,-1 0.35,-0.45 0.85,-0.55 h 0.25 q 0.75,0 1.1,0.55 0.4,0.65 0.2,1.2 -0.3,0.85 -1.2,0.95 m -25,2.5 q -0.1,-0.7 0.05,-1.3 l 0.8,-0.05 q 2.1,-0.4 3.2,-2.25 l 0.8,0.3 q 0.75,0.25 1.15,0.9 0.6,0.8 0.4,2.1 -0.3,1.6 -1.3,2.25 l -0.5,0.3 L 46.65,26.6 45.35,26 44.05,25.5 43,25.4 h -0.2 l -0.35,-0.8 m 1,3 1.2,0.7 0.75,1.05 0.7,1.45 -0.1,1.3 q -0.4,1.65 -1.6,2.35 l -2.75,0.35 -2.7,-0.75 -1.25,-0.25 -1,0.1 -3.2,0.6 q -1.85,0.2 -3.2,-0.6 -1.65,-1.05 -1.5,-2.75 0.15,-1 1.1,-2.05 2.3,-2.55 5.6,-2.9 l 1.7,-0.05 q -0.15,-0.4 -0.05,-1 l 0.35,-1.05 0.15,-0.55 q 0.35,-0.3 0.6,-0.3 0.45,0 0.6,0.3 l 0.2,0.6 0.2,0.65 q 0.2,0.4 0.05,1.3 v 0.1 l 1.2,0.15 1.05,0.3 q 0.2,0.3 0.6,0.35 l 0.25,0.05 q 0.5,0.2 1.05,0.55 m -1.1,4.25 0.6,0.05 0.45,-0.3 q 0.2,-0.3 -0.15,-0.95 l -0.3,-0.45 -0.15,-0.1 -1.35,1.6 0.9,0.15 M 32.9,23.6 q -0.05,0.95 -0.5,1.6 h -0.6 l -2.9,0.65 -0.75,0.25 q -0.8,-0.2 -1.15,-0.65 -0.4,-0.5 -0.5,-1.1 -0.35,-1.75 1.1,-3 0.95,-0.85 2.15,-0.85 0.15,0.75 0.75,1.35 1.15,1 2.45,1.4 L 32.9,23.6 M 8.2,18.3 q 0,-0.75 0.65,-1.05 l 1.2,0.15 0.45,0.85 -0.35,0.9 Q 9.75,19.6 9.05,19.4 8.7,19.35 8.4,18.95 L 8.2,18.3 M 6.4,21 Q 5.7,20.65 5.9,19.9 L 6.1,19.6 6.65,19.15 Q 7.4,18.95 7.8,19.65 8.2,20.3 7.65,20.85 7,21.45 6.4,21 m 2.05,2.6 -0.5,0.4 q -0.6,0.3 -1.2,-0.2 L 6.45,23.4 6.4,23 V 22.7 Q 6.45,22.3 6.8,22.05 7.05,21.8 7.45,21.8 L 7.5,21.75 q 0.7,0 1.05,0.65 0.3,0.65 -0.1,1.2 M 10,23.45 Q 9.65,23.1 9.65,22.05 l 0.2,-1.1 0.5,-0.6 1.25,-0.75 q 1.05,-0.2 1.95,1.1 0.4,0.6 0.4,1.05 l -0.2,0.65 -0.3,0.65 Q 12.7,24 11.2,23.9 10.4,23.9 10,23.45 m 28.1,7.35 1,0.15 0.35,0.15 0.3,-1 -0.1,-1.3 v -0.25 h -3.3 l -0.1,0.25 -0.2,2 v 0.3 L 38.1,30.8 M 31.95,30.55 31.4,31.4 q 0.65,0.55 1.4,0.5 l 0.75,-0.2 0.8,-0.25 Q 33,30.65 32.55,30 l -0.6,0.55"
         fill="#ffffff"
         fill-rule="evenodd"
         stroke="none"
         id="path10" />
    </g>
    <g
       id="shape2"
       transform="translate(2,2.05)">
      <path
         d="M -0.5,-0.4 V -0.55 H 75.1 V -0.4 40.8 H -0.5 Z"
         fill="none"
         stroke="#000000"
         stroke-linecap="round"
         stroke-linejoin="round"
         stroke-width="3"
         id="path11" />
    </g>
  </defs>
</svg>
