<?xml version="1.0" encoding="UTF-8" standalone="no"?>
<svg
   ffdec:objectType="frame"
   height="60.549999"
   width="67.398041"
   version="1.1"
   id="svg8"
   sodipodi:docname="539.svg"
   xmlns:inkscape="http://www.inkscape.org/namespaces/inkscape"
   xmlns:sodipodi="http://sodipodi.sourceforge.net/DTD/sodipodi-0.dtd"
   xmlns:xlink="http://www.w3.org/1999/xlink"
   xmlns="http://www.w3.org/2000/svg"
   xmlns:svg="http://www.w3.org/2000/svg"
   xmlns:ffdec="https://www.free-decompiler.com/flash">
  <sodipodi:namedview
     id="namedview8"
     pagecolor="#ffffff"
     bordercolor="#000000"
     borderopacity="0.25"
     inkscape:showpageshadow="2"
     inkscape:pageopacity="0.0"
     inkscape:pagecheckerboard="0"
     inkscape:deskcolor="#d1d1d1"
     fit-margin-top="5"
     fit-margin-left="5"
     fit-margin-right="5"
     fit-margin-bottom="5" />
  <g
     transform="translate(1.5,1.5)"
     id="g3">
    <use
       ffdec:characterId="516"
       height="57.549999"
       width="64.099998"
       xlink:href="#shape0"
       id="use1" />
    <use
       ffdec:characterId="1035"
       height="59.450001"
       transform="translate(-0.7,-1.25)"
       width="66.599998"
       xlink:href="#shape1"
       id="use2" />
    <use
       ffdec:characterId="518"
       height="60.549999"
       transform="translate(-1.5,-1.5)"
       width="67.099998"
       xlink:href="#shape2"
       id="use3" />
  </g>
  <defs
     id="defs8">
    <g
       id="shape0">
      <path
         d="M 53.6,0 H 64.1 V 57.55 H 53.6 28.25 0 V 0 H 28.25 53.6 V 57.55 0 M 28.25,0 V 57.55 0"
         fill="#ffffff"
         fill-rule="evenodd"
         stroke="none"
         id="path3" />
    </g>
    <g
       id="shape1"
       transform="translate(0.7,1.25)">
      <path
         d="m 44.95,-0.1 q 1.85,-0.15 3.2,0.7 0.45,-0.55 1.45,-0.4 1.55,0.2 2.9,-0.6 1.05,-0.6 2.1,-0.8 1.45,0.15 1.8,1.5 l 0.05,0.2 q 0.95,-0.7 2.1,-0.7 2.1,-0.2 3,1.55 L 62,1.25 q 2.3,0.5 2.4,2.9 0.05,1.7 -0.8,3.15 L 63.55,7.45 63.7,7.6 64.25,8 q 2.05,0.8 1.55,2.9 -0.4,1.5 -1.95,1.7 -2.3,0.3 -3.55,-1.65 L 59.95,10.3 57.6,10.45 Q 55.65,10.3 54.7,9.2 l -0.25,0.3 q -1.75,2.15 -4.4,2.4 -2.4,0.25 -3.75,-1.6 Q 45.9,9.8 45.9,9.2 45.95,8.65 46.35,8.35 L 45.95,8.4 Q 42.9,9 41.5,6.35 40.9,5.3 40.95,4.1 41,0.95 44.15,0.05 l 0.8,-0.15 M 50,3.65 q -0.05,1.85 -0.95,3 L 49.45,6.6 50.3,6.35 q 1.4,-0.75 2.8,-1.1 h 0.15 V 5.2 l 0.5,-1 L 53.3,3.4 Q 51.55,3.85 50,3.35 v 0.3 m 2.4,45.05 0.2,0.05 0.35,0.45 0.1,0.35 q 1.45,3.4 1.15,7.05 -0.05,0.5 -0.55,0.6 -1.3,0.3 -1.3,-1 l 0.1,-1.3 V 53.85 L 52.35,52.9 52.4,52.2 52.25,51.35 52.2,50.75 Q 52.05,50.3 52.05,49.85 L 51.95,49.3 52,49.05 52.2,48.8 52.25,48.75 52.4,48.7 m 4.5,-3.8 0.15,0.05 0.1,0.05 0.35,0.8 0.05,0.45 q 1.4,3.8 0.5,7.75 -0.35,1.45 -1.3,2.55 Q 56.35,57 55.9,56.85 55.35,57 54.95,56.2 l -0.35,-1.5 0.05,-0.5 -0.2,-1.35 0.05,-0.6 0.2,-3.45 0.05,-1.25 0.05,-0.05 0.05,-0.1 0.05,-0.05 0.05,-0.05 0.15,-0.05 0.15,0.05 0.1,0.05 0.35,3.05 v 1.15 l 0.45,1.55 0.45,-2.5 -0.05,-3.9 V 45.2 L 56.6,45.1 56.65,45.05 56.7,45 56.75,44.95 56.9,44.9 m 3.7,3.2 q 0.15,0 0.2,0.15 l 0.05,0.15 -0.15,0.25 -0.05,0.1 v 0.15 l 0.05,0.15 -0.15,0.8 -0.05,0.4 -0.05,0.95 -0.05,0.45 q 0.1,2.5 0.85,4.9 L 61.1,57.1 58.8,57.05 q -0.3,-0.4 -0.25,-0.9 0.1,-2 0.7,-3.95 0,-0.6 0.15,-1.15 l 0.15,-0.45 0.1,-0.7 0.2,-0.3 0.4,-1.2 Q 60.4,48.15 60.6,48.1 M 15.75,-0.1 q 1,0.05 1.7,0.65 l 0.4,0.4 3.9,0.25 q 0.6,0 0.85,0.6 l 0.3,1.4 0.3,0.35 0.3,0.45 q 1.9,0.25 3.75,1 0.85,0.35 0.95,1.3 0.1,1.4 -1.2,2.05 -3.45,1.8 -6.1,-0.85 L 20.5,7.05 18.75,8 16.9,8.35 16.45,8.25 15.65,9.2 q -0.9,1.45 -2.8,2.05 L 10.2,11.2 Q 9.85,12.6 8.85,13.7 6.7,16.05 3.55,15.95 L 2.4,15.65 Q 1,14.85 0.25,13.5 0,13.1 0.05,12.6 v -0.1 l -0.3,-0.9 Q -0.4,10.6 0.3,9.95 L 0.45,9.85 Q -0.6,7.6 -0.7,5.15 -0.8,3.55 0.05,2.25 L 0.45,1.8 Q 0.7,1.05 1.3,0.5 2.15,-0.25 3.3,-0.25 L 4.9,0.2 5.35,0.55 q 1.1,-0.1 2.1,0.4 l 0.3,0.15 3.9,-0.15 0.7,0.15 Q 12.7,0.9 13.2,0.8 l 0.7,-0.05 1,-0.7 0.85,-0.15 m 0.95,23.5 0.8,0.1 0.05,-0.15 q 0.3,-0.6 0.95,-0.65 1.55,0.45 0.8,1.7 0.55,0.65 0.8,1.65 0.35,1.4 -0.2,2.35 0.55,0.65 0.65,1.7 l 0.2,0.9 q 0.7,2.25 0.8,4.55 0,0.7 -0.55,1.15 -0.75,0.6 -1.4,0.55 L 18.95,37.5 Q 18.05,37.45 17.6,36.7 L 17.4,36.55 17.3,36.5 16.95,36.2 16.7,36.1 q -1.75,2.45 -4.5,1.35 -1.05,-0.4 -1.45,-1.45 -0.65,-1.7 0.45,-3.2 1,-1.4 2.65,-1.65 1.9,-0.05 3.35,0.85 L 16.9,30.35 V 30.1 q -1.8,0.1 -2.95,-1.65 l -0.3,-0.7 q -1.25,-0.35 -0.8,-1.55 0.2,-0.5 0.65,-0.6 h 0.05 L 14,24.85 q 1.1,-1.3 2.7,-1.45 m -1.25,2.55 -0.6,0.35 q -0.7,0.9 0.3,1.4 0.45,0.25 0.75,-0.1 1.05,-1.1 -0.45,-1.65 M 18.3,24 Q 18,24 17.75,24.3 17,25.2 18.1,25.7 l 0.7,-0.15 Q 19.7,24.4 18.3,24 m -7.3,18.4 0.45,0.65 0.05,0.3 0.75,1.85 0.1,0.65 q 0.85,2.4 0.9,5 l -0.05,1.9 0.15,1.15 -0.15,0.65 q 0.1,1.7 -1.55,1.8 L 11.2,56.3 11.1,56.5 q -0.45,0.85 -1.35,0.55 -1,-0.3 -0.85,-1.3 L 9.15,53.4 8.9,50.55 8.65,49.05 8.15,46.9 8.1,45.75 8.15,45.65 8.2,45.55 V 45.5 L 8.3,45.45 8.4,45.4 q 2.35,2.8 2.7,6.45 l 0.1,0.55 0.1,-0.4 v -1.45 l 0.05,-0.8 -0.45,-4.1 0.05,-1.7 -0.05,-0.15 v -0.2 l -0.05,-0.65 v -0.4 L 10.9,42.45 11,42.4 m -4.65,7.2 q 0.45,0.3 0.2,0.95 l -0.1,0.3 0.05,0.1 v 0.15 0.1 l -0.05,0.1 0.05,0.6 -0.05,0.3 q 0,2.45 0.25,4.85 l -0.15,0.3 Q 5.65,58.05 5.2,57.25 4.65,57.35 4.15,56.7 3.7,56.1 3.55,55.35 L 3.45,54.4 3.35,54.15 V 53.8 L 3.3,53.75 V 53.6 L 3.25,53.5 3.3,52.2 Q 3.25,51.8 3.5,51.55 L 3.65,51.5 3.8,51.45 4.05,51.55 4.15,51.6 4.45,53 4.6,53.7 5.1,54.25 5.2,52.9 5.35,51.75 5.5,51.35 5.55,51.15 6,50.3 6.1,50.1 6.2,49.75 6.35,49.6"
         fill="#999999"
         fill-rule="evenodd"
         stroke="none"
         id="path4" />
      <path
         d="m 18.3,24 q 1.4,0.4 0.5,1.55 L 18.1,25.7 Q 17,25.2 17.75,24.3 18,24 18.3,24 m -2.85,1.95 q 1.5,0.55 0.45,1.65 -0.3,0.35 -0.75,0.1 -1,-0.5 -0.3,-1.4 l 0.6,-0.35"
         fill="#ffffff"
         fill-rule="evenodd"
         stroke="none"
         id="path5" />
      <path
         d="m 23.85,-0.5 0.45,0.1 0.55,-0.25 2.25,-0.25 q 4,0.4 7.95,0.05 L 37.15,-1 q 2.7,0.05 5.25,0.85 h 0.05 l 0.2,-0.2 0.2,-0.1 q 1.1,0.5 1.2,1.8 l 0.4,5.9 3.1,-0.7 1.75,-1.3 Q 50.5,4.4 51.85,3.9 L 53.4,3.6 54.65,3.5 54.8,3 55.25,2 q 0.05,-0.7 0.25,-1.35 0.25,-0.95 1.2,-1 1.7,0.55 1,2.3 l -0.05,0.15 -0.1,0.4 -0.3,0.8 3.15,-0.5 0.7,-1.3 q 0.55,-0.75 1.3,-1.2 l 0.25,-0.1 q 1.75,0.6 0.75,2.25 l -0.3,0.5 q 0.45,0.15 0.75,0.6 L 64,4 Q 62.85,5.3 61.05,5.2 L 58.6,5.65 q -4.2,0.05 -7.75,2.1 l -6.2,3.5 0.05,1.45 0.55,8.05 0.65,8.05 q 0.25,4.05 0.85,8.05 0.55,3.7 1.45,7.4 0.65,2.9 2,5.5 1.7,3.2 4,6 l 0.2,0.7 Q 54.35,58.6 52.15,58.1 51.25,57.9 50.6,57.2 H 50.35 L 42.8,57.1 h -7.15 l -7.7,-0.35 q -4.1,-0.25 -8.15,0.2 L 15.7,57.1 13.9,57.05 12.05,56.7 q -1.1,0.9 -2.45,1.2 -0.4,0.05 -0.45,-0.3 -0.1,-1.05 0.6,-1.85 1.95,-2.35 3.35,-5.15 1.75,-3.6 3,-7.5 l 1.95,-6.75 1.3,-4.85 q 1,-3.95 1.45,-7.95 L 21.3,19 20.65,17.65 19.25,13.9 Q 17.6,10.25 15.15,7.05 L 14.7,6.45 8.45,4.2 8.2,4.4 5.5,6.65 l 0.85,1.8 0.4,1.1 V 9.6 L 6.7,9.65 6.65,9.7 6.55,9.75 6.4,9.8 H 6.35 6.2 L 6.1,9.65 5.95,9.45 5.9,9.4 5.1,8.05 4.6,7.3 Q 3.2,6.35 4.75,5.2 L 5.55,4.45 6.5,3.45 4.45,3.2 3.3,3 3.1,3.15 0.65,5 H 0.5 L 0.35,4.95 0.25,4.9 0.15,4.85 0.05,4.7 Q 0.1,3.95 0.6,3.2 L 2.35,1.35 Q 2.15,-0.1 3.55,-0.7 L 4.2,-0.85 q 2.05,0.3 3.85,1.35 L 12.75,3 13.5,3.4 12.75,0.15 Q 12.7,-0.3 13,-0.7 q 0.5,-0.55 1.2,-0.55 1.75,0.5 2.15,2.45 l 0.5,1.8 q 1.1,2.8 3,5.15 l 1.95,2.7 0.15,-3.4 -0.05,-1 Q 21.5,3.75 21.7,1.1 L 22,0.4 q 0.75,-0.9 1.85,-0.9 M 49.15,0 q 1.4,0.35 0.6,1.5 L 48.95,2.4 48.2,3.1 48.1,3.15 48,3.2 Q 47.65,3.6 47.45,4.05 L 46.95,4.55 46.9,4.65 46.85,4.7 46.8,4.75 46.65,4.8 46.55,4.75 46.45,4.7 46.4,4.65 V 4.55 4.5 4.4 l 0.05,-0.2 0.1,-0.3 V 3.75 L 47,3.05 47.45,2.4 V 2.2 l 0.9,-1.7 Q 48.6,0 49.15,0 M 30.55,21.55 H 30.4 v 0.05 q -0.75,0.4 -0.85,1.2 -0.05,0.65 0.25,1.25 1.15,2.35 3.25,0.75 0.7,0.7 1.8,0.6 0.5,-0.05 0.85,-0.45 1.5,-1.55 0.2,-3.35 L 35.75,21.55 H 35.6 l -0.1,0.05 -0.15,0.2 -0.05,0.1 v 0.2 l 0.05,0.15 0.05,0.15 0.05,0.75 q -0.05,0.55 -0.6,0.8 h -0.7 L 33.7,23.55 Q 32.85,22.4 32.2,23.8 l -0.4,0.25 -0.3,0.05 -0.45,-0.3 -0.2,-0.25 V 23.5 L 30.8,23 30.85,22.75 30.9,22.6 31,22.45 31.05,22.3 31.2,22.2 31.25,22.15 31.3,22.05 V 21.9 21.8 l -0.05,-0.05 -0.15,-0.1 -0.55,-0.1 M 26.6,16.25 26,16.3 q -2.6,0.75 -2.5,3.35 0,1.4 1.15,2.2 l 0.05,0.05 1.4,-0.35 2.2,0.4 0.1,0.05 0.45,-0.4 q 0.8,-0.75 0.85,-1.85 0.1,-3.1 -3.1,-3.5 m 10.7,4.55 q 0.85,1 1.9,1.15 1.05,0.3 2.3,-0.35 1.55,-0.85 1.5,-2.55 -0.1,-2.85 -3,-3.15 -1.3,0.1 -2.05,0.85 -0.75,0.5 -1.1,1.6 -0.45,1.35 0.45,2.45"
         fill="#000000"
         fill-rule="evenodd"
         stroke="none"
         id="path6" />
      <path
         d="m 37.3,20.8 q -0.9,-1.1 -0.45,-2.45 0.35,-1.1 1.1,-1.6 Q 38.7,16 40,15.9 q 2.9,0.3 3,3.15 0.05,1.7 -1.5,2.55 -1.25,0.65 -2.3,0.35 Q 38.15,21.8 37.3,20.8 M 26.6,16.25 q 3.2,0.4 3.1,3.5 -0.05,1.1 -0.85,1.85 L 28.4,22 28.3,21.95 26.1,21.55 24.7,21.9 24.65,21.85 Q 23.5,21.05 23.5,19.65 23.4,17.05 26,16.3 l 0.6,-0.05 m 3.95,5.3 0.55,0.1 0.15,0.1 0.05,0.05 v 0.1 0.15 l -0.05,0.1 -0.05,0.05 -0.15,0.1 -0.05,0.15 -0.1,0.15 -0.05,0.15 -0.05,0.25 0.05,0.5 v 0.05 l 0.2,0.25 0.45,0.3 0.3,-0.05 0.4,-0.25 q 0.65,-1.4 1.5,-0.25 l 0.45,0.4 h 0.7 q 0.55,-0.25 0.6,-0.8 L 35.4,22.4 35.35,22.25 35.3,22.1 v -0.2 l 0.05,-0.1 0.15,-0.2 0.1,-0.05 h 0.15 l 0.15,0.05 q 1.3,1.8 -0.2,3.35 -0.35,0.4 -0.85,0.45 -1.1,0.1 -1.8,-0.6 -2.1,1.6 -3.25,-0.75 -0.3,-0.6 -0.25,-1.25 0.1,-0.8 0.85,-1.2 v -0.05 h 0.15"
         fill="#ffffff"
         fill-rule="evenodd"
         stroke="none"
         id="path7" />
    </g>
    <g
       id="shape2"
       transform="translate(1.5,1.5)">
      <path
         d="M 0,23.8 V 0 H 64.1 V 23.8 57.55 H 0 Z"
         fill="none"
         stroke="#000000"
         stroke-linecap="round"
         stroke-linejoin="round"
         stroke-width="3"
         id="path8" />
    </g>
  </defs>
</svg>
