<?xml version="1.0" encoding="UTF-8" standalone="no"?>
<svg
   ffdec:objectType="frame"
   height="60.549999"
   width="67.099998"
   version="1.1"
   id="svg8"
   sodipodi:docname="275.svg"
   xmlns:inkscape="http://www.inkscape.org/namespaces/inkscape"
   xmlns:sodipodi="http://sodipodi.sourceforge.net/DTD/sodipodi-0.dtd"
   xmlns:xlink="http://www.w3.org/1999/xlink"
   xmlns="http://www.w3.org/2000/svg"
   xmlns:svg="http://www.w3.org/2000/svg"
   xmlns:ffdec="https://www.free-decompiler.com/flash">
  <sodipodi:namedview
     id="namedview8"
     pagecolor="#ffffff"
     bordercolor="#000000"
     borderopacity="0.25"
     inkscape:showpageshadow="2"
     inkscape:pageopacity="0.0"
     inkscape:pagecheckerboard="0"
     inkscape:deskcolor="#d1d1d1"
     fit-margin-top="5"
     fit-margin-left="5"
     fit-margin-right="5"
     fit-margin-bottom="5" />
  <g
     transform="translate(1.5,1.5)"
     id="g3">
    <use
       ffdec:characterId="516"
       height="57.549999"
       width="64.099998"
       xlink:href="#shape0"
       id="use1" />
    <use
       ffdec:characterId="778"
       height="57.549999"
       width="64.099998"
       xlink:href="#shape1"
       id="use2" />
    <use
       ffdec:characterId="518"
       height="60.549999"
       transform="translate(-1.5,-1.5)"
       width="67.099998"
       xlink:href="#shape2"
       id="use3" />
  </g>
  <defs
     id="defs8">
    <g
       id="shape0">
      <path
         d="M 53.6,0 H 64.1 V 57.55 H 53.6 28.25 0 V 0 H 28.25 53.6 V 57.55 0 M 28.25,0 V 57.55 0"
         fill="#ffffff"
         fill-rule="evenodd"
         stroke="none"
         id="path3" />
    </g>
    <g
       id="shape1">
      <path
         d="m 30.7,24.1 q -0.85,1.55 -1.15,2.55 -0.35,1.15 -0.25,3.2 0.2,4.65 1.75,7 1.65,2.5 4.95,3.65 2.75,1 5.95,0.7 l 2.6,-0.55 q 2.45,0.2 4.75,-1.05 2.6,-1.3 3.9,-3.7 0.8,-1.45 1.3,-3.5 l 0.55,-3.45 q 0.25,-3.65 -1.55,-6.9 -0.8,-1.5 -1.95,-2.6 -1,-0.95 -2.9,-1.85 Q 44.3,15.5 40.7,15.85 38.6,16 36.75,17 l -1.65,1.15 -0.6,-0.7 Q 33.95,17.05 33.35,17 32.1,16.75 31.2,17.65 q -0.4,0.4 -0.55,1 -0.2,0.75 0.2,1.5 0.35,0.7 1.05,1.05 l 0.65,0.25 Q 31.6,22.55 30.7,24.1 M 0,0 H 64.1 V 57.55 H 0 V 0"
         fill="#999999"
         fill-rule="evenodd"
         stroke="none"
         id="path4" />
      <path
         d="m 30.7,24.1 q 0.9,-1.55 1.85,-2.65 L 31.9,21.2 q -0.7,-0.35 -1.05,-1.05 -0.4,-0.75 -0.2,-1.5 0.15,-0.6 0.55,-1 0.9,-0.9 2.15,-0.65 0.6,0.05 1.15,0.45 l 0.6,0.7 1.65,-1.15 q 1.85,-1 3.95,-1.15 3.6,-0.35 7.95,1.75 1.9,0.9 2.9,1.85 1.15,1.1 1.95,2.6 1.8,3.25 1.55,6.9 L 54.5,32.4 q -0.5,2.05 -1.3,3.5 -1.3,2.4 -3.9,3.7 -2.3,1.25 -4.75,1.05 l -2.6,0.55 q -3.2,0.3 -5.95,-0.7 -3.3,-1.15 -4.95,-3.65 -1.55,-2.35 -1.75,-7 -0.1,-2.05 0.25,-3.2 0.3,-1 1.15,-2.55"
         fill="#ffffff"
         fill-rule="evenodd"
         stroke="none"
         id="path5" />
      <path
         d="m 42.5,17.9 1.1,0.15 0.8,0.4 1,-0.35 0.85,0.2 0.4,0.7 q 0.15,0.65 -0.6,1.3 l -1.2,0.9 -0.85,0.75 -0.55,0.2 -0.25,-0.3 -0.9,-1.45 -0.6,-1.45 0.1,-0.6 Q 42,18 42.5,17.9 M 42,24.85 h 1.4 l 1.3,0.25 0.05,0.05 V 25.1 q 0.35,-1.5 1.6,-1.85 l 1,-0.15 1.3,0.05 q 1.7,0.15 2.65,1.5 0.65,0.85 0.65,2.05 -0.1,1.25 -0.85,2 l -1.1,0.8 -0.75,0.4 q 0.55,1.6 0.65,3.4 0,1.65 -0.4,2.55 l -0.95,1.45 0.9,1.4 q 0.85,2 -0.15,3.7 l -1.05,1 q 0.35,1.6 0.2,3.25 l 0.7,-1.25 q 0.4,-0.85 0.85,-1.2 0.95,-0.9 2.5,-0.8 0.95,0 1.4,0.45 l 0.5,0.85 0.25,1.15 -0.65,1.5 -0.05,0.45 0.25,0.3 q 0.65,0.3 1.25,0 l 0.6,-0.6 q 0.75,-0.85 1.8,-0.85 0.5,0 0.95,0.35 0.45,0.3 0.5,0.8 l -0.15,0.65 -0.6,0.15 -0.35,-0.4 Q 58,47.95 57.55,48 l -0.65,0.35 -1,1.1 q -0.5,0.35 -1.2,0.35 -1.05,0 -1.65,-0.45 -0.8,-0.5 -0.9,-1.4 L 52.25,47 52.5,46 52.45,45.55 q -0.7,-0.3 -1.2,0.5 l -0.45,1.3 q -0.5,1.4 -1.6,2.2 l -1.1,0.6 -1.45,0.55 q -0.4,0.3 -0.85,0.55 -2.1,1 -5.45,0.75 L 37.2,51.35 q -1.7,-0.75 -2.35,-2.2 l -0.45,-1.3 -0.3,-2.1 0.25,-1.15 -0.3,0.4 -1.75,2.7 -0.2,0.4 0.15,0.65 q 0.3,0.75 0.05,1.55 -0.55,1.45 -2.4,1.55 Q 28.2,52 25.55,50.5 l -0.05,-0.05 -3.9,-0.15 -0.1,0.2 -1.1,0.9 q -1.55,0.85 -3.1,0.9 L 15.25,51.95 Q 14.1,51.4 14.1,50.3 q -0.05,-0.55 0.4,-1.4 -1.4,-0.75 -2.15,-2.2 -0.8,-1.45 -0.7,-3 l 0.25,-1.05 0.45,-0.8 1.25,-1.5 -0.4,-0.75 q -0.15,-0.5 -0.15,-1.1 0,-1.65 0.25,-2.8 0.2,-0.95 0.9,-2.4 L 14.4,32.8 14,32.15 12.85,30.6 12.1,29.9 l -1,-0.2 -1.05,0.25 q -0.45,0.4 -0.45,1.1 l 0.15,1.55 v 1.55 q -0.2,0.7 -0.8,1.4 -1.3,1.3 -2.45,1.1 -0.75,-0.15 -1.55,-1 L 4.25,34.6 4.05,33.05 q 0.1,-2.9 2.25,-5 2.2,-2.15 5.15,-1.9 1.4,0.1 2.35,0.7 l 1.6,1.65 0.7,0.95 0.1,-0.05 0.25,-0.75 0.7,-0.9 q -2.4,-1.15 -4.35,-3.55 -1,-1.25 -1.55,-2.5 -1.4,-3.6 0.25,-7.5 0.7,-1.65 1.95,-3.15 L 13.4,10.4 13.2,8.55 l -0.3,-2 q 0,-1.3 0.75,-1.8 0.5,-0.35 1.2,-0.25 l 1.2,0.35 Q 17.8,5.55 19.2,6.4 L 20.3,6 24.75,5.85 27.9,6.25 q 1.6,0.4 3.6,1.6 L 31.8,8.05 32.45,8 35.4,7.5 37.25,7.45 q 1.1,0.2 1.4,1.1 0.15,0.55 -0.1,1.2 l -0.6,1.1 -1.4,2.85 0.2,0.95 q 0.35,2.1 -0.2,4.1 -0.5,3 -2.6,5.4 -1.75,2 -4.2,3.2 l 0.2,0.2 q 0.7,0.75 3.05,2.3 l 1.25,0.75 q 0.3,-1 0.85,-1.85 l -0.15,-0.1 q -0.6,-0.4 -0.85,-1.05 -0.5,-1.15 -0.05,-2.7 0.4,-1 0.85,-1.45 l 0.95,-0.75 0.6,-0.45 1.45,-0.25 2,0.4 0.75,0.6 1,1.5 0.05,0.35 H 42 m -5.35,6.1 q -0.05,0.5 0.2,0.95 l 0.75,0.65 q 1,0.35 1.6,-0.45 l 0.35,-0.85 -0.2,-0.85 q -0.5,-0.85 -1.55,-0.7 -1.05,0.25 -1.15,1.25 m -3.35,-14.2 -1.25,0.2 q -0.6,0.25 -1,0.85 -0.4,0.65 -0.35,1.3 0.05,0.65 0.5,1.25 l 1.05,0.8 q 0.65,0.2 1.3,0 l 1.1,-0.75 0.45,-1.35 q -0.05,-0.8 -0.45,-1.4 -0.5,-0.75 -1.35,-0.9 m -2.7,4.55 -0.4,-0.1 -0.35,0.15 -1.1,0.9 -0.4,0.3 -0.5,0.05 -0.8,-0.15 -0.45,-0.65 -0.55,-0.35 -0.65,0.1 -0.3,0.35 q -0.15,0.15 -0.35,0.25 l -0.65,0.2 -0.8,0.05 H 22.95 L 22.7,22.2 22.1,21.45 22,20.65 Q 21.8,20.15 21.4,20.2 L 21,20.55 20.9,21.1 v 0.65 l 0.45,1.05 q 0.7,0.9 1.15,1.05 l 1.4,0.05 1.4,-0.35 0.4,-0.1 0.4,0.25 q 0.65,0.4 1.35,0.4 1.6,0.2 2.5,-0.95 l 0.65,-1.4 V 21.3 m -13.35,-2 q 0.7,0.9 1.85,0.8 0.75,-0.05 1.35,-0.65 0.6,-0.55 0.7,-1.3 0.25,-1.1 -0.5,-2 -0.9,-0.95 -2.2,-0.7 -1.3,0.35 -1.7,1.6 -0.35,1.3 0.5,2.25 M 40.7,33.55 40.3,33.6 39.45,33.4 q -0.4,0.2 -0.15,0.65 l 0.6,0.5 0.4,0.15 0.5,-0.1 h 0.6 l 0.3,-0.2 0.1,-0.15 0.05,0.05 0.5,0.3 0.85,0.2 1.4,-0.4 0.25,-0.15 Q 45.1,33.9 44.65,33.7 l -0.65,0.05 -0.7,0.1 -0.4,-0.35 -0.05,-0.8 -0.1,-0.65 -0.4,-0.4 q -0.5,0.15 -0.65,0.6 l -0.05,0.7 -0.1,0.05 -0.15,0.2 q -0.15,0 -0.3,0.15 l -0.4,0.2 m 5.25,-3.55 -0.9,0.2 q -0.45,0.3 -0.55,0.75 -0.15,0.45 0.1,0.9 l 0.7,0.65 0.95,-0.05 0.65,-0.65 Q 47.15,31.2 46.85,30.7 46.6,30.15 45.95,30 m -10.9,11.75 1.6,-2.65 q -1.1,-0.8 -1.8,-1.95 l -0.8,-0.6 -2.3,-2.1 0.5,2.85 0.1,0.95 0.15,0.05 q 0.5,0.1 1.3,0.7 l 0.8,1.1 0.25,1.4 v 0.85 l 0.2,-0.6"
         fill="#000000"
         fill-rule="evenodd"
         stroke="none"
         id="path6" />
      <path
         d="m 45.95,30 q 0.65,0.15 0.9,0.7 0.3,0.5 0.05,1.1 l -0.65,0.65 -0.95,0.05 -0.7,-0.65 q -0.25,-0.45 -0.1,-0.9 0.1,-0.45 0.55,-0.75 l 0.9,-0.2 m -5.25,3.55 0.4,-0.2 q 0.15,-0.15 0.3,-0.15 l 0.15,-0.2 0.1,-0.05 0.05,-0.7 q 0.15,-0.45 0.65,-0.6 l 0.4,0.4 0.1,0.65 0.05,0.8 0.4,0.35 0.7,-0.1 0.65,-0.05 q 0.45,0.2 0.2,0.55 l -0.25,0.15 -1.4,0.4 -0.85,-0.2 -0.5,-0.3 -0.05,-0.05 -0.1,0.15 -0.3,0.2 h -0.6 l -0.5,0.1 -0.4,-0.15 -0.6,-0.5 Q 39.05,33.6 39.45,33.4 l 0.85,0.2 0.4,-0.05 M 17.25,19.3 q -0.85,-0.95 -0.5,-2.25 0.4,-1.25 1.7,-1.6 1.3,-0.25 2.2,0.7 0.75,0.9 0.5,2 -0.1,0.75 -0.7,1.3 -0.6,0.6 -1.35,0.65 -1.15,0.1 -1.85,-0.8 m 13.35,2 v 0.45 l -0.65,1.4 q -0.9,1.15 -2.5,0.95 -0.7,0 -1.35,-0.4 l -0.4,-0.25 -0.4,0.1 -1.4,0.35 -1.4,-0.05 Q 22.05,23.7 21.35,22.8 L 20.9,21.75 V 21.1 L 21,20.55 21.4,20.2 q 0.4,-0.05 0.6,0.45 l 0.1,0.8 0.6,0.75 0.25,0.2 h 0.35 l 0.8,-0.05 0.65,-0.2 q 0.2,-0.1 0.35,-0.25 l 0.3,-0.35 0.65,-0.1 0.55,0.35 0.45,0.65 0.8,0.15 0.5,-0.05 0.4,-0.3 1.1,-0.9 0.35,-0.15 0.4,0.1 m 2.7,-4.55 q 0.85,0.15 1.35,0.9 0.4,0.6 0.45,1.4 l -0.45,1.35 -1.1,0.75 q -0.65,0.2 -1.3,0 l -1.05,-0.8 q -0.45,-0.6 -0.5,-1.25 -0.05,-0.65 0.35,-1.3 0.4,-0.6 1,-0.85 l 1.25,-0.2 m 3.35,14.2 q 0.1,-1 1.15,-1.25 1.05,-0.15 1.55,0.7 l 0.2,0.85 -0.35,0.85 q -0.6,0.8 -1.6,0.45 L 36.85,31.9 q -0.25,-0.45 -0.2,-0.95"
         fill="#ffffff"
         fill-rule="evenodd"
         stroke="none"
         id="path7" />
    </g>
    <g
       id="shape2"
       transform="translate(1.5,1.5)">
      <path
         d="M 0,23.8 V 0 H 64.1 V 23.8 57.55 H 0 Z"
         fill="none"
         stroke="#000000"
         stroke-linecap="round"
         stroke-linejoin="round"
         stroke-width="3"
         id="path8" />
    </g>
  </defs>
</svg>
