<?xml version="1.0" encoding="UTF-8" standalone="no"?>
<svg
   ffdec:objectType="frame"
   height="60.549999"
   width="67.099998"
   version="1.1"
   id="svg8"
   sodipodi:docname="415.svg"
   xmlns:inkscape="http://www.inkscape.org/namespaces/inkscape"
   xmlns:sodipodi="http://sodipodi.sourceforge.net/DTD/sodipodi-0.dtd"
   xmlns:xlink="http://www.w3.org/1999/xlink"
   xmlns="http://www.w3.org/2000/svg"
   xmlns:svg="http://www.w3.org/2000/svg"
   xmlns:ffdec="https://www.free-decompiler.com/flash">
  <sodipodi:namedview
     id="namedview8"
     pagecolor="#ffffff"
     bordercolor="#000000"
     borderopacity="0.25"
     inkscape:showpageshadow="2"
     inkscape:pageopacity="0.0"
     inkscape:pagecheckerboard="0"
     inkscape:deskcolor="#d1d1d1"
     fit-margin-top="5"
     fit-margin-left="5"
     fit-margin-right="5"
     fit-margin-bottom="5" />
  <g
     transform="translate(1.5,1.5)"
     id="g3">
    <use
       ffdec:characterId="516"
       height="57.549999"
       width="64.099998"
       xlink:href="#shape0"
       id="use1" />
    <use
       ffdec:characterId="914"
       height="57.200001"
       transform="translate(-0.45,1.65)"
       width="63.599998"
       xlink:href="#shape1"
       id="use2" />
    <use
       ffdec:characterId="518"
       height="60.549999"
       transform="translate(-1.5,-1.5)"
       width="67.099998"
       xlink:href="#shape2"
       id="use3" />
  </g>
  <defs
     id="defs8">
    <g
       id="shape0">
      <path
         d="M 53.6,0 H 64.1 V 57.55 H 53.6 28.25 0 V 0 H 28.25 53.6 V 57.55 0 M 28.25,0 V 57.55 0"
         fill="#ffffff"
         fill-rule="evenodd"
         stroke="none"
         id="path3" />
    </g>
    <g
       id="shape1"
       transform="translate(0.45,-1.65)">
      <path
         d="m 50.2,23.05 0.75,0.85 Q 51.3,24.7 50.8,25.35 50.2,26 49.4,25.85 49.05,25.8 48.45,25.4 l -1.55,-0.7 -1.15,-0.35 -2,0.15 q -2.15,0.3 -3.05,1 l -0.3,0.15 Q 40,25.75 40,25.2 q 0,-0.25 0.3,-0.55 l 1.55,-1.15 1.2,-0.7 1.15,-0.45 0.95,-0.25 2.55,-0.05 1,0.25 0.9,0.35 0.6,0.4 m 10.65,9.55 0.4,0.45 0.4,0.65 0.45,0.8 0.25,0.55 0.3,1.6 0.4,1.9 0.05,2.15 q -0.25,1.3 -1.35,1.6 l -1.2,-0.15 q -0.55,-0.4 -0.7,-1 v -1.1 l 0.2,-1.15 0.15,-1.45 -0.1,-2.2 -0.3,-1.2 q -0.35,-0.9 -0.25,-1.25 0.25,-0.3 0.6,-0.35 l 0.7,0.15 m -6.25,13.15 3,-0.25 q 1.65,0.1 2.75,1.05 1.35,1.25 0.95,2.75 -0.25,1.3 -1.85,2.05 L 56.65,51.8 53.6,51.65 48.5,51.2 46.55,52.15 44,52.7 42.2,52.5 38.45,51.55 Q 36.95,51 36.4,50.65 l -0.55,-0.5 -3.9,0.1 0.4,0.25 0.85,0.85 q 0.3,0.6 -0.15,1.3 -0.55,0.8 -1.9,0.5 -1.2,-0.2 -1.95,-1.2 l -0.15,0.05 -4.9,0.85 -1.1,-0.15 -0.4,-0.15 -0.65,0.1 -3.1,0.1 -3.15,-0.3 q -1.25,-0.4 -3,-1.5 L 11.9,50.8 9.25,50.55 7.6,50.45 6.7,50.25 5.55,50.15 q -1.5,0 -2.1,-0.7 0.55,-0.75 1.5,-1 l 1.8,-0.3 2.8,-0.15 2.3,0.15 0.3,0.1 0.2,-0.1 1.6,0.1 5.85,0.6 2.1,-0.25 1.15,-0.4 0.15,-0.15 Q 22.4,47.3 22.8,46.4 l 0.5,-0.7 0.85,-0.6 1.15,-0.3 q 1.75,-0.25 4.1,0 l 5.3,0.85 -1.2,-1.2 -1.25,-1.65 q -0.45,-0.9 -0.6,-1.9 -0.2,-0.9 0,-1.45 0.3,-0.8 1.05,-0.9 0.6,0 1.15,0.65 l 0.75,1.15 0.7,0.7 1,1.05 1.05,1 1.35,0.8 q 1.4,0.85 3.35,3.75 L 42.2,48 43.15,48.25 39.9,44.6 39.45,43.9 q -0.2,-0.5 0.1,-0.8 l 1.3,-0.05 q 0.95,0.45 2.1,1.4 l 1.9,1.65 1.1,0.7 1.6,0.3 3.25,0.3 0.75,-0.05 0.7,-0.6 q 0.7,-0.7 2.35,-1 M 17.65,8.45 17.5,7.95 v -0.5 l -0.1,-0.6 q 0,-0.25 0.45,-0.8 L 18.6,5.45 19.25,5.15 19.6,4.6 19.55,4.25 Q 18.9,3.75 18.1,4 l -0.2,0.1 v 0.2 q 0.05,0.5 -0.3,0.9 L 16.85,5.6 15.95,5.4 15.4,4.7 Q 15.2,4.15 15.5,3 l 0.8,-0.8 0.75,-0.4 0.9,-0.1 h 1.3 q 1.4,0.25 1.95,1.4 l 0.3,0.7 0.1,0.65 q 0.1,1 -0.65,1.75 L 19.55,7 Q 18.9,7.1 18.8,7.4 V 8.05 L 18.7,8.7 Q 18.45,8.95 18,8.7 L 17.65,8.45 m 7.4,11.5 q 0,2.05 -1.3,3.45 L 22.6,24.35 22,24.8 23.25,26 q 1.3,1.6 1.6,4.9 0.1,1.6 -0.2,2.55 -0.5,1.8 -2.4,2.9 L 20.55,37 18.4,37.2 16.05,37.05 q -1.4,-0.35 -2.4,-1 l -1.15,-1 -1.45,-0.9 -1.05,-1 Q 9.2,32.9 8.3,33.7 l -1.35,1.25 q -1,0.6 -2.65,0 L 3.5,34.55 Q 2.9,34.1 2.9,33.4 2.8,32.65 3.5,32.3 l 0.45,-0.05 0.15,0.2 -0.05,0.2 q 0,0.35 0.5,0.55 L 5.3,33.3 5.9,33.25 6.3,32.9 7.6,31.35 q 0.55,-0.45 1.55,-0.7 l 2.55,0.05 q 0.35,-2.75 1.75,-4.6 l 0.7,-0.8 q -1,-0.75 -1.7,-1.95 L 11.8,21.9 11.5,20.6 V 20.35 Q 10.9,20.1 10.4,19.7 9.55,18.9 9.3,17.75 9.15,16.6 9.6,15.55 l 0.35,-0.65 1.1,-1.1 q 0.85,-0.55 1.55,-0.55 l 0.85,0.05 q 1.1,0.3 2,0.95 0.55,-0.3 1.15,-0.45 1.9,-0.5 3.85,-0.05 0.7,-0.8 1.7,-1.05 l 2.25,0.1 q 0.9,0.25 1.45,0.65 1,0.7 1.3,1.85 0.35,1.2 -0.1,2.2 L 26.8,18 26.4,18.5 25.15,19.45 25,18.3 24.5,17.5 q -0.85,-1 -2.3,-0.85 -1.4,0.25 -1.95,1.55 L 20.2,18.25 20.1,19 v 0.45 q 0.15,1.55 1.65,2.15 1.55,0.5 2.7,-0.65 l 0.6,-1 m -3.7,3.4 Q 21.5,23 21.25,22.75 L 20.7,22.45 H 20.1 L 19.75,21.8 q -0.3,-0.3 -0.55,-0.3 l -0.05,0.05 q -0.25,0 -0.55,0.3 -0.15,0.25 -0.05,0.6 l 0.1,0.4 -0.55,0.05 -0.75,0.05 q -0.7,0.2 -0.6,0.95 0.2,0.7 0.85,0.7 l 1.05,-0.4 q 0.6,-0.3 1.95,-0.5 0.55,0 0.75,-0.35 M 16.85,11.1 17.2,10.3 q 0.3,-0.35 0.75,-0.4 l 0.85,0.2 0.55,0.65 q 0.25,1 -0.6,1.5 l -1.3,-0.05 q -0.6,-0.35 -0.6,-1.1 M 17.7,21.25 18,20.3 17.8,18.9 17.7,18.85 17.4,18.3 q -0.9,-1.05 -2.35,-0.9 -0.75,0.1 -1.35,0.65 -0.6,0.55 -0.8,1.25 -0.4,1.2 0.35,2.25 0.8,1 2,1.1 l 1.25,-0.25 0.7,-0.5 0.15,-0.15 0.35,-0.5 M 8,42.45 Q 6.5,42.25 5.8,40.3 5.15,38.7 5.55,37.2 6,35.5 7.45,34.8 l 2.9,-0.05 1.05,0.6 q 0.75,0.6 1,1.85 0.2,1 0.05,2.15 l 1.5,0.45 1.5,0.3 q 1.6,0.4 3.4,1.3 1.05,0.55 1.05,1.15 -0.1,0.65 -0.75,0.85 H 17.9 L 12.4,42.7 11.1,42.6 8,42.45 M 30.55,27 l -0.5,0.1 -0.8,0.1 -1.2,0.3 -0.7,0.05 -0.45,0.2 -0.2,-0.4 0.3,-0.4 q 0.6,-0.5 0.95,-0.7 l 1.65,-0.9 0.7,-0.25 q 1.65,-0.65 3.65,-0.4 0.95,0.1 1.55,0.55 0.75,0.65 0.55,1.45 l -0.55,0.65 -0.85,0.2 -0.85,-0.2 -0.85,-0.3 L 31.4,27 h -0.85"
         fill="#999999"
         fill-rule="evenodd"
         stroke="none"
         id="path4" />
      <path
         d="m 25.15,19.45 -0.1,0.5 -0.6,1 Q 23.3,22.1 21.75,21.6 20.25,21 20.1,19.45 V 19 l 0.1,-0.75 0.05,-0.05 q 0.55,-1.3 1.95,-1.55 1.45,-0.15 2.3,0.85 l 0.5,0.8 0.15,1.15 m -3.8,3.9 q -0.2,0.35 -0.75,0.35 -1.35,0.2 -1.95,0.5 l -1.05,0.4 q -0.65,0 -0.85,-0.7 -0.1,-0.75 0.6,-0.95 l 0.75,-0.05 0.55,-0.05 -0.1,-0.4 q -0.1,-0.35 0.05,-0.6 0.3,-0.3 0.55,-0.3 L 19.2,21.5 q 0.25,0 0.55,0.3 l 0.35,0.65 h 0.6 l 0.55,0.3 q 0.25,0.25 0.1,0.6 m -3.65,-2.1 -0.35,0.5 -0.15,0.15 -0.7,0.5 -1.25,0.25 q -1.2,-0.1 -2,-1.1 -0.75,-1.05 -0.35,-2.25 0.2,-0.7 0.8,-1.25 0.6,-0.55 1.35,-0.65 1.45,-0.15 2.35,0.9 l 0.3,0.55 0.1,0.05 0.2,1.4 -0.3,0.95"
         fill="#ffffff"
         fill-rule="evenodd"
         stroke="none"
         id="path5" />
      <path
         d="M 45.4,51.75 Q 43.15,51.55 40.25,49.7 35.7,46.65 34.5,43.35 L 34.3,42.7 q -0.7,2.3 -0.45,4.65 l 0.15,1.45 0.1,0.35 0.55,0.1 q 1.1,-0.1 2.45,1.25 0.75,0.75 1,1.45 0.25,0.7 0,1.45 l -0.8,1.25 q -1.1,0.95 -2.8,0.85 -1.2,-0.1 -2.85,-0.95 -1.2,-0.75 -1.5,-1.3 L 29.7,51.9 29.35,49.7 Q 29,46.25 30,43.45 q 0.75,-2.35 2.35,-3.95 -1.8,0.75 -3.3,2.7 l -1.8,3.3 0.9,1.4 q 0.75,1.7 0.25,3.65 -0.5,1.9 -1.9,3.25 -2.65,2.55 -7,2.3 l -4,-0.65 -4,-0.1 Q 9.65,55.75 8.55,57 L 7.9,57.75 7.2,58.4 Q 6.25,59.1 5.1,58.7 3.95,58.25 3.65,57.2 3.3,55.95 4.15,54.65 q 0.65,-0.85 2,-1.7 4.15,-2.3 8.7,-1.45 l 3.65,0.9 q 2.15,0.45 3.7,0 l 1.65,-0.95 0.8,-1 q -2.55,1.6 -5.5,1.35 l -1.8,-0.35 q -1.7,-0.5 -3.05,-1.2 l -1.65,-0.8 -0.75,-0.05 -1,0.05 -0.45,0.05 -3.5,0.55 L 4.9,50.55 4,50.9 3.05,51.05 q -0.9,0 -1.5,-0.75 L 0.9,49.25 0.05,48 q -0.5,-0.95 -0.5,-2.4 0.1,-1.95 1.1,-2.95 1.1,-1.1 2.6,-1 1.6,0 2.55,1.2 0.9,1.15 0.7,3.3 L 6.65,46.05 8,45.7 10.55,45.3 13.2,45.05 V 44.9 q -0.15,-1.85 0.65,-4.3 1,-3.05 2.95,-5.6 2.05,-2.6 4.75,-4.25 2.7,-1.7 5.95,-2.25 l 6.35,0.15 q 1.9,0.4 3.4,1.25 l 0.9,-0.85 Q 40.2,27.4 43.6,26.7 l 3.95,-0.35 q 1.9,0.1 3.7,0.9 l 4.55,-1.65 1.45,-0.25 q 0.9,0.1 1.35,0.6 0.65,0.7 0.35,2.3 l -0.85,5.4 -0.1,0.5 q 0.85,1.9 0.9,3.75 0,1.5 -0.5,3.35 -1.1,3.8 -3.15,6.15 l 1.45,0.95 0.85,0.85 q 0.25,0.5 0.15,1.05 -0.05,0.55 -0.45,0.95 -0.45,0.4 -1.7,0.6 l -6.8,0.6 -1.8,-0.1 -1.45,-0.55 h -0.1 m 3.3,-5.7 q 0.7,0.25 1.05,-0.4 0.4,-0.7 -0.25,-1.4 l -0.7,-0.6 0.35,-0.35 0.95,-0.7 q 0.45,-0.6 0,-1.25 -0.45,-0.65 -1.15,-0.4 -0.45,0.1 -1,0.75 l -0.4,0.45 -0.15,0.25 -0.15,-0.2 -0.55,-0.65 q -0.5,-0.3 -0.8,0 -0.25,0.25 -0.15,0.6 l 0.35,0.6 0.4,0.6 -1.2,1.2 -0.2,0.3 -0.2,0.4 Q 44.7,45.6 45,45.9 l 0.65,0.1 0.2,-0.15 0.35,-0.1 0.75,-0.45 0.35,-0.3 0.2,-0.2 0.45,0.6 0.75,0.65 M 42,38.65 q -0.1,-0.35 0.3,-0.9 l 0.35,-0.4 0.4,-0.15 0.45,-0.6 q 0.1,-0.5 -0.2,-0.7 l -0.75,-0.55 -0.4,-0.75 q 0,-0.35 0.15,-0.6 L 43,33.35 q 0.45,-0.35 0.4,-0.8 -0.15,-0.5 -0.8,-0.4 -0.5,0.05 -0.85,0.5 l -0.8,0.85 q -0.7,1.2 -0.25,2.55 l 0.25,0.25 -0.75,1.4 -0.05,0.55 0.2,1.15 0.65,0.9 0.7,0.55 q 0.45,0.35 0.85,0.35 L 43.2,41.1 43.85,40.5 43.75,39.95 42.95,39.5 42.4,39.1 42,38.65 m 7.35,-10.6 -1.45,0.3 -0.9,0.85 -0.35,0.5 -0.25,0.65 q -0.2,1.25 0,1.85 l 0.25,0.45 q 0.6,1.05 1.2,1.4 l 0.7,0.25 2.25,0.05 q 1.2,-0.3 1.7,-1.45 l 0.2,-0.5 0.2,-0.75 -0.15,-1.35 -0.2,-0.55 -0.6,-0.7 -1.65,-0.9 -0.95,-0.1"
         fill="#000000"
         fill-rule="evenodd"
         stroke="none"
         id="path6" />
      <path
         d="m 49.35,28.05 0.95,0.1 1.65,0.9 0.6,0.7 0.2,0.55 0.15,1.35 -0.2,0.75 -0.2,0.5 q -0.5,1.15 -1.7,1.45 l -2.25,-0.05 -0.7,-0.25 q -0.6,-0.35 -1.2,-1.4 L 46.4,32.2 q -0.2,-0.6 0,-1.85 l 0.25,-0.65 0.35,-0.5 0.9,-0.85 1.45,-0.3 m -7.35,10.6 0.4,0.45 0.55,0.4 0.8,0.45 0.1,0.55 -0.65,0.6 -0.65,0.1 q -0.4,0 -0.85,-0.35 L 41,40.3 40.35,39.4 40.15,38.25 40.2,37.7 40.95,36.3 40.7,36.05 Q 40.25,34.7 40.95,33.5 l 0.8,-0.85 q 0.35,-0.45 0.85,-0.5 0.65,-0.1 0.8,0.4 0.05,0.45 -0.4,0.8 L 42.3,34 q -0.15,0.25 -0.15,0.6 l 0.4,0.75 0.75,0.55 q 0.3,0.2 0.2,0.7 l -0.45,0.6 -0.4,0.15 -0.35,0.4 q -0.4,0.55 -0.3,0.9 m 6.7,7.4 L 47.95,45.4 47.5,44.8 47.3,45 46.95,45.3 46.2,45.75 45.85,45.85 45.65,46 45,45.9 q -0.3,-0.3 -0.1,-0.65 l 0.2,-0.4 0.2,-0.3 1.2,-1.2 -0.4,-0.6 -0.35,-0.6 q -0.1,-0.35 0.15,-0.6 0.3,-0.3 0.8,0 l 0.55,0.65 0.15,0.2 0.15,-0.25 0.4,-0.45 q 0.55,-0.65 1,-0.75 0.7,-0.25 1.15,0.4 0.45,0.65 0,1.25 l -0.95,0.7 -0.35,0.35 0.7,0.6 q 0.65,0.7 0.25,1.4 -0.35,0.65 -1.05,0.4"
         fill="#ffffff"
         fill-rule="evenodd"
         stroke="none"
         id="path7" />
    </g>
    <g
       id="shape2"
       transform="translate(1.5,1.5)">
      <path
         d="M 0,23.8 V 0 H 64.1 V 23.8 57.55 H 0 Z"
         fill="none"
         stroke="#000000"
         stroke-linecap="round"
         stroke-linejoin="round"
         stroke-width="3"
         id="path8" />
    </g>
  </defs>
</svg>
