<?xml version="1.0" encoding="UTF-8" standalone="no"?>
<svg
   ffdec:objectType="frame"
   height="60.549999"
   width="67.099998"
   version="1.1"
   id="svg6"
   sodipodi:docname="62.svg"
   xmlns:inkscape="http://www.inkscape.org/namespaces/inkscape"
   xmlns:sodipodi="http://sodipodi.sourceforge.net/DTD/sodipodi-0.dtd"
   xmlns:xlink="http://www.w3.org/1999/xlink"
   xmlns="http://www.w3.org/2000/svg"
   xmlns:svg="http://www.w3.org/2000/svg"
   xmlns:ffdec="https://www.free-decompiler.com/flash">
  <sodipodi:namedview
     id="namedview6"
     pagecolor="#ffffff"
     bordercolor="#000000"
     borderopacity="0.25"
     inkscape:showpageshadow="2"
     inkscape:pageopacity="0.0"
     inkscape:pagecheckerboard="0"
     inkscape:deskcolor="#d1d1d1"
     fit-margin-top="5"
     fit-margin-left="5"
     fit-margin-right="5"
     fit-margin-bottom="5" />
  <g
     transform="translate(1.5,1.5)"
     id="g3">
    <use
       ffdec:characterId="516"
       height="57.549999"
       width="64.099998"
       xlink:href="#shape0"
       id="use1" />
    <use
       ffdec:characterId="574"
       height="56.099998"
       transform="translate(-0.35,1.75)"
       width="55.200001"
       xlink:href="#shape1"
       id="use2" />
    <use
       ffdec:characterId="518"
       height="60.549999"
       transform="translate(-1.5,-1.5)"
       width="67.099998"
       xlink:href="#shape2"
       id="use3" />
  </g>
  <defs
     id="defs6">
    <g
       id="shape0">
      <path
         d="M 53.6,0 H 64.1 V 57.55 H 53.6 28.25 0 V 0 H 28.25 53.6 V 57.55 0 M 28.25,0 V 57.55 0"
         fill="#ffffff"
         fill-rule="evenodd"
         stroke="none"
         id="path3" />
    </g>
    <g
       id="shape1"
       transform="translate(0.35,-1.75)">
      <path
         d="M 44.75,8.9 44.65,8.6 Q 44.65,8.05 44.9,7.75 45.15,7.4 45.65,7.4 L 45.7,7.35 q 0.75,0 1,0.7 0.25,0.7 -0.35,1.2 -0.2,0.2 -0.4,0.2 L 45.1,9.25 44.75,8.9 m -3.4,17.7 q -0.3,-0.4 -0.3,-1.15 l 0.1,-1.2 -0.05,-0.55 -0.7,-0.6 q -1.2,-0.9 -0.95,-2.4 l 0.3,-0.7 -1,-0.3 -1.5,-0.25 q -1,-0.4 -1.6,-1.3 l -0.35,-0.5 -0.5,-0.3 Q 34.05,17 33.65,16.2 33.25,15.4 33.3,14.55 l 0.1,-0.2 -2.25,0.3 H 29.4 L 27.15,13.9 26.3,13.45 Q 26,15.4 24.9,16.9 l -0.15,0.25 -0.9,1.2 -0.5,0.4 q -0.6,1.45 -2.2,1.95 l -0.7,0.2 q -0.1,2.45 -1.15,4.35 -1.6,3.1 -4.65,3.85 1.3,3.55 0.6,6.45 -0.35,1.65 -1.35,3 l -0.4,0.5 0.05,2.45 -0.3,0.95 -0.6,0.75 0.6,1.65 0.8,0.4 q 1.5,1.15 1.8,2.65 v 0.9 l -0.1,0.75 -0.1,0.4 0.45,0.6 0.45,0.9 0.15,1.2 v 1.5 l -0.6,1.55 -0.9,1.45 Q 14.35,57.9 13.65,57.85 12.8,57.8 12.3,57 L 11.8,56.8 11.45,56.45 Q 9.9,56.9 8.6,56.05 7.85,57.2 5.1,57.1 3.6,57 3.05,56.55 2.4,57.2 1.4,57.05 q -1,-0.15 -1.45,-0.9 -0.5,-0.95 -0.1,-2.9 0.7,-4 0.55,-10.3 L 0.2,32.55 0.45,27.7 0.5,22.85 Q 0.4,21.1 0.8,20.4 L 0.9,20.3 Q 0.5,19.05 1.1,17.75 1.65,16.75 3.05,15.6 6.1,13 8.85,12.2 l 0.3,-0.1 Q 9.7,10.7 10.2,9.8 12.25,6.3 15.35,5.9 l 3.3,0.25 0.35,0.1 0.05,-0.05 1.9,-0.85 3.3,0.1 L 26,5.25 27.15,5.5 Q 27.5,5.2 27.9,5 28.65,4.6 29.4,4.45 l 1.75,0.15 1.7,0.3 1.45,-0.05 q 1.1,0.05 2.05,0.75 0.95,0.7 1.35,1.75 l 0.15,0.4 2.25,-0.05 q 1.2,0.4 1.7,1.55 l 0.45,1.05 0.8,0.75 0.75,1.05 0.5,1.1 0.2,1.25 0.25,0.7 q 0.25,0.6 0.15,1.3 l -0.45,1.35 0.45,0.1 q 0.65,0.25 0.95,0.65 0.7,0.65 0.85,1.3 l 0.15,1.45 0.25,0.9 q 0.4,1.3 -0.05,2.55 l -0.25,0.6 q -0.75,1.7 -1.6,2.5 -0.5,0.5 -0.95,0.55 L 43.2,28.35 42.3,27.9 42,27.35 41.35,26.6 m 6.4,-13.15 0.7,0.4 q 0.35,0.4 0.45,1.3 l -0.05,0.7 q -0.2,0.8 -1.3,0.9 -1.15,0.2 -1.8,-0.45 l -0.3,-0.65 Q 45.3,14.6 46,13.9 q 0.7,-0.7 1.75,-0.45 m -17.2,3.1 -0.3,0.45 -0.55,0.15 -0.55,-0.2 -0.2,-0.25 -0.05,-0.25 V 16.1 q 0.1,-0.6 0.75,-0.7 l 0.1,-0.05 q 0.45,0.1 0.7,0.4 0.25,0.4 0.1,0.8 M 17.05,1.8 q 1,-0.25 1.7,0.35 0.5,0.35 0.65,1 0.25,0.95 -0.5,1.6 -0.7,0.7 -1.6,0.3 L 16.45,4.45 15.95,3.8 15.9,3.2 16.05,2.55 Q 16.35,2 17.05,1.8 M 8.85,6.95 Q 9.5,7.45 9.25,8.25 9,8.95 8.2,9.05 7.4,9.05 7.1,8.3 L 7,7.9 7.05,7.55 Q 7.2,6.95 7.75,6.8 8.35,6.55 8.85,6.95 m 0.75,39 -0.1,-0.3 v 0.15 l 0.1,0.15"
         fill="#999999"
         fill-rule="evenodd"
         stroke="none"
         id="path4" />
      <path
         d="m 36.45,35.3 q 1.4,-2.05 3.45,-3.35 V 30.9 l 0.1,-2.4 0.2,-0.75 q 0.15,-0.35 0.6,-0.55 l 1.25,-0.4 1.3,-0.1 -0.05,-0.2 q -0.15,-0.55 -0.05,-1.25 0.1,-0.7 0.55,-1.1 l 0.7,-0.4 0.65,-0.55 0.2,-0.55 -0.05,-1.15 q -0.25,-0.65 -1,-0.65 l -0.65,0.2 -1.9,0.3 -1.3,-0.7 -0.55,-0.6 -0.2,-0.95 q -0.1,-1 0.2,-1.55 L 40.4,17 41.1,16.6 q 0.7,-0.1 1.05,0.45 0.35,0.6 0.05,1.15 l -0.25,0.4 0.1,0.4 0.55,-0.05 0.5,-0.25 0.8,-0.15 h 1.15 q 0.7,0.1 1.55,0.9 l 0.9,1.15 q 0.55,1.15 -0.1,2.75 l -0.5,0.85 -0.85,0.75 -0.75,0.45 q -0.45,0.25 -0.45,0.7 l 0.2,0.7 0.2,-0.05 1.05,-0.15 q 0.6,-0.1 1,0.3 0.3,0.3 0.3,1.15 v 2.2 l 0.55,0.1 q 2.35,0.7 4.35,3 l 1.45,2.15 0.65,2.45 q 0.35,1.9 0.2,3.45 -0.2,2.5 -1.75,4.65 -1.5,2.15 -3.8,3.2 -4.15,1.9 -9.2,0 -1.6,-0.6 -2.65,-1.45 -1.55,-1.15 -2.4,-3.05 -0.95,-2.2 -0.45,-4.85 0.4,-2.5 1.9,-4.6 m 5.4,-20.7 q 0.15,0.6 -0.25,1.1 -0.5,0.6 -1.1,0.35 -0.45,-0.1 -1.1,-1.2 l -1,-1.75 q -0.6,-0.7 -0.6,-1.2 -0.1,-0.75 0.65,-1.1 0.65,-0.4 1.3,0.15 l 0.6,0.75 1.1,1.95 0.4,0.95 m 0.65,14.25 -0.3,0.1 -0.05,0.2 0.05,0.85 0.1,0.75 h 0.05 l 0.1,-0.7 0.1,-1.2 H 42.5 m 5.1,4.6 -1.5,-0.3 q -2.55,-0.3 -4.7,0.8 -1.1,0.6 -2.25,1.9 l -1.1,1.95 q -0.4,1 -0.5,2.1 -0.25,1.8 0.2,3.1 -0.15,-0.95 0,-2 0.3,-2.15 1.95,-3.9 1.3,-1.45 3.15,-2.15 1.85,-0.75 3.75,-0.6 l 1.7,0.2 1.5,0.4 0.25,0.1 q -1,-1.1 -2.45,-1.6 M 30.5,8.1 q 0.4,-0.45 1,-0.45 l 1.05,0.05 q 1.4,0.1 2,0.6 l 0.7,0.8 q 0.45,0.8 0.2,1.15 -0.15,0.3 -0.6,0.3 l -0.7,-0.1 -2,-0.4 -1.35,-0.2 Q 30.4,9.6 30.3,9.05 30.15,8.45 30.5,8.1 M 25.15,8.5 Q 26,8.6 26.25,9.1 26.6,9.65 26,10.25 l -1.05,0.55 -1.25,0.35 q -1,0.6 -1.6,0.65 -0.7,0 -1.1,-0.55 -0.4,-0.55 -0.15,-1.2 0.3,-0.8 1.65,-1.2 L 25.15,8.5 m -7.5,5.3 q 0.4,0.3 0.2,0.9 l -0.45,0.85 -1.2,2.05 -0.55,0.8 -0.8,0.25 Q 14.4,18.6 14.1,18.3 13.4,17.7 13.7,16.75 l 0.6,-1 q 1.15,-1.45 2.15,-1.9 l 1.2,-0.05 m -7.8,14.65 q -0.4,0.2 -0.9,0 L 8.3,27.85 q -0.35,-0.65 0.15,-2 l 0.4,-0.95 q 0.65,-1.4 1.05,-1.8 0.35,-0.5 0.9,-0.6 0.7,-0.1 0.95,0.45 l -0.2,1.1 -0.5,2.2 -0.3,1.25 -0.9,0.95 m -3.4,7.55 0.1,-0.95 0.55,-1.6 0.5,-0.6 q 0.5,-0.3 1,0.2 Q 9,33.4 9,34.1 L 8.95,35.2 8.8,37.3 8.3,38.2 Q 7.85,38.6 7.35,38.6 6.8,38.6 6.35,38 6.05,37.45 6.2,36.8 L 6.45,36 m 0.2,7.8 q 0.7,0 0.9,0.85 l 0.1,1.3 0.1,1.3 -0.1,1.55 Q 7.35,49.45 6.6,49.45 5.85,49.35 5.55,48.75 L 5.45,47.3 5.4,45.85 q 0,-0.85 0.25,-1.35 0.4,-0.75 1,-0.7"
         fill="#000000"
         fill-rule="evenodd"
         stroke="none"
         id="path5" />
    </g>
    <g
       id="shape2"
       transform="translate(1.5,1.5)">
      <path
         d="M 0,23.8 V 0 H 64.1 V 23.8 57.55 H 0 Z"
         fill="none"
         stroke="#000000"
         stroke-linecap="round"
         stroke-linejoin="round"
         stroke-width="3"
         id="path6" />
    </g>
  </defs>
</svg>
