<?xml version="1.0" encoding="UTF-8" standalone="no"?>
<svg
   ffdec:objectType="frame"
   height="60.549999"
   width="67.099998"
   version="1.1"
   id="svg6"
   sodipodi:docname="697.svg"
   xmlns:inkscape="http://www.inkscape.org/namespaces/inkscape"
   xmlns:sodipodi="http://sodipodi.sourceforge.net/DTD/sodipodi-0.dtd"
   xmlns:xlink="http://www.w3.org/1999/xlink"
   xmlns="http://www.w3.org/2000/svg"
   xmlns:svg="http://www.w3.org/2000/svg"
   xmlns:ffdec="https://www.free-decompiler.com/flash">
  <sodipodi:namedview
     id="namedview6"
     pagecolor="#ffffff"
     bordercolor="#000000"
     borderopacity="0.25"
     inkscape:showpageshadow="2"
     inkscape:pageopacity="0.0"
     inkscape:pagecheckerboard="0"
     inkscape:deskcolor="#d1d1d1"
     fit-margin-top="5"
     fit-margin-left="5"
     fit-margin-right="5"
     fit-margin-bottom="5" />
  <g
     transform="translate(1.5,1.5)"
     id="g3">
    <use
       ffdec:characterId="516"
       height="57.549999"
       width="64.099998"
       xlink:href="#shape0"
       id="use1" />
    <use
       ffdec:characterId="1187"
       height="58.25"
       transform="translate(-0.95,-0.4)"
       width="65.050003"
       xlink:href="#shape1"
       id="use2" />
    <use
       ffdec:characterId="518"
       height="60.549999"
       transform="translate(-1.5,-1.5)"
       width="67.099998"
       xlink:href="#shape2"
       id="use3" />
  </g>
  <defs
     id="defs6">
    <g
       id="shape0">
      <path
         d="M 53.6,0 H 64.1 V 57.55 H 53.6 28.25 0 V 0 H 28.25 53.6 V 57.55 0 M 28.25,0 V 57.55 0"
         fill="#ffffff"
         fill-rule="evenodd"
         stroke="none"
         id="path3" />
    </g>
    <g
       id="shape1"
       transform="translate(0.95,0.4)">
      <path
         d="m 62.65,3.55 0.1,0.05 0.1,0.1 0.05,0.1 0.1,0.05 0.05,0.1 0.05,0.05 0.05,0.1 0.05,0.05 0.05,0.1 V 4.3 l 0.05,0.1 v 0.1 l 0.05,0.05 V 4.65 4.7 L 63.4,4.8 V 4.85 4.95 5 5.1 5.2 5.25 l -0.05,0.1 V 5.4 5.5 L 63.3,5.55 63.25,5.65 V 5.7 L 63.2,5.8 63.15,5.9 v 0.05 l -0.05,0.1 -0.05,0.05 -0.1,0.1 -0.1,0.05 -0.05,0.1 -0.1,0.05 -0.1,0.1 -0.1,0.05 -0.15,0.1 -0.2,0.1 L 62,6.8 H 61.9 L 61.8,6.85 H 61.5 L 60.9,6.9 h -0.75 l -1.1,0.05 H 55.8 54.45 52.45 51.3 40.2 L 30.25,7 H 25.2 13.35 9.45 L 8.85,6.95 H 8 L 7.25,6.9 H 6.75 L 6.35,6.85 H 5.9 L 5.6,6.8 H 5.3 L 5,6.75 H 4.55 L 4.05,6.7 H 3.7 L 3.3,6.65 H 3 L 2.7,6.6 2.45,6.55 H 2.2 L 1.95,6.5 H 1.7 L 1.55,6.45 H 1.4 L 1.35,6.4 1.15,6.35 1,6.3 0.85,6.2 0.7,6.15 0.6,6.05 0.5,6 0.4,5.9 0.35,5.8 0.25,5.75 0.2,5.65 0.15,5.6 0.1,5.5 V 5.45 L 0.05,5.35 V 5.3 5.2 5.15 5.05 L 0,4.95 0.05,4.9 V 4.8 4.75 4.65 L 0.1,4.6 V 4.5 L 0.15,4.45 0.2,4.35 0.25,4.25 0.1,4.2 0,4.1 -0.1,4.05 -0.2,3.95 -0.25,3.9 -0.35,3.8 -0.4,3.75 -0.45,3.65 -0.5,3.55 -0.55,3.5 -0.6,3.4 -0.65,3.35 -0.7,3.25 -0.75,3.2 -0.8,3.1 V 3.05 L -0.85,2.95 V 2.85 L -0.9,2.8 V 2.7 2.65 L -0.95,2.55 V 2.5 2.4 2.35 2.25 2.2 2.1 2 1.95 1.85 L -0.9,1.8 V 1.7 1.65 l 0.05,-0.1 V 1.5 1.4 L -0.8,1.3 -0.75,1.25 -0.7,1.15 -0.65,1.1 V 1 L -0.6,0.95 -0.55,0.85 -0.5,0.8 -0.4,0.7 -0.35,0.6 -0.3,0.55 -0.2,0.45 -0.15,0.4 0,0.3 0.1,0.25 0.2,0.15 0.35,0.1 0.5,0 0.65,-0.05 0.85,-0.15 1,-0.2 1.1,-0.25 H 1.2 L 1.35,-0.3 h 0.35 1.1 0.95 0.3 0.6 l 0.3,-0.05 H 5.3 L 6.6,-0.4 h 5.6 6.85 7.5 l 3.35,0.05 h 3.05 l 5.6,0.05 h 1.5 l 0.55,0.05 h 0.35 l 0.25,0.05 h 0.35 l 1.5,0.05 h 3.45 l 0.85,0.05 0.75,0.05 h 0.45 L 48.85,0 h 0.35 l 0.85,0.05 h 1.5 L 55,0.1 h 0.6 l 0.95,0.05 h 0.3 L 57.1,0.2 h 0.4 l 0.35,0.05 h 0.6 l 0.6,0.05 h 0.45 l 0.3,0.05 h 0.1 l 0.2,0.05 h 0.1 l 0.1,0.05 h 0.1 l 0.2,0.05 h 0.1 l 0.1,0.05 H 61 l 0.1,0.05 h 0.1 l 0.1,0.05 0.1,0.05 h 0.1 l 0.15,0.05 h 0.2 l 0.1,0.05 0.15,0.05 0.2,0.05 h 0.1 l 0.1,0.05 h 0.1 L 62.75,1 63,1.1 l 0.15,0.05 0.1,0.1 0.1,0.05 0.1,0.1 0.05,0.1 0.05,0.05 0.05,0.1 0.05,0.05 0.05,0.1 0.05,0.05 v 0.1 L 63.8,2 V 2.1 2.2 2.25 2.35 2.4 L 63.75,2.5 V 2.55 L 63.7,2.65 63.65,2.7 v 0.1 l -0.05,0.05 -0.05,0.1 -0.05,0.1 -0.1,0.05 -0.05,0.1 -0.1,0.05 -0.1,0.1 -0.2,0.05 -0.15,0.05 -0.2,0.05 0.05,0.05 m -61.7,6.9 H 1 1.1 l 0.25,0.05 h 0.5 8.2 0.75 1.75 0.9 13.45 0.85 l 0.7,0.05 h 1.25 l 2.85,0.05 h 0.3 l 6.1,0.05 h 0.8 l 2.95,0.05 h 2.2 l 5.35,0.05 h 1.55 l 3.1,-0.05 h 0.5 l 0.35,-0.05 h 0.35 l 1,-0.05 h 0.25 0.35 0.45 0.15 0.7 2.85 2.25 v 1 H 61.85 59 58.3 58.15 57.7 57.35 57.1 l -1,-0.05 H 55.75 L 55.4,11.5 H 54.9 L 51.8,11.45 H 50.25 L 44.9,11.5 h -2.2 l -2.95,0.05 h -0.8 l -6.1,0.05 h -0.3 l -2.85,0.05 h -1.25 l -0.7,0.05 H 26.9 13.45 12.55 10.8 10.05 1.85 L 1.35,11.75 1.25,11.8 1.2,11.85 H 0.95 L 0.65,11.8 0.5,11.7 0.45,11.65 0.35,11.55 0.3,11.5 V 11.4 L 0.25,11.35 V 11.25 11.2 11.1 11 10.95 L 0.3,10.85 0.35,10.8 0.4,10.7 0.5,10.65 0.6,10.55 0.75,10.5 H 0.8 0.95 V 10.45 M 63.25,9.6 H 55.3 L 51.85,9.55 H 48.05 46.8 L 41.4,9.5 h -1.9 -4.6 -5.65 l -2,0.05 -3,0.05 H 23.6 L 4.45,9.55 3.4,9.5 H 2.05 L 1.85,9.45 1.65,9.4 1.5,9.35 H 1.3 1.15 L 0.9,9.3 0.75,9.2 0.65,9.15 0.6,9.05 0.55,9 0.5,8.9 V 8.85 8.75 8.65 8.6 8.5 8.45 L 0.55,8.35 0.6,8.3 0.65,8.2 0.75,8.15 0.9,8.05 1.15,8 1.25,7.95 H 1.3 L 1.5,7.9 1.7,7.95 1.85,7.9 h 0.2 L 3.4,7.85 H 4.45 L 23.6,7.8 h 0.65 l 3,0.05 h 2 5.65 4.6 1.9 5.4 1.25 3.8 L 55.3,7.8 h 7.95 L 64.1,7.75 v 1.9 L 63.25,9.6 m -29,36.4 h 11.6 1.05 l 1.05,0.05 H 49.2 L 50,46.1 h 1.15 2.85 2 l 0.3,0.05 h 0.45 l 0.3,-0.05 h 0.45 1.25 0.2 l 2.5,-0.05 h 0.8 0.9 0.15 l 0.55,0.05 h 0.25 v 0.8 h -0.25 l -0.55,0.05 h -0.15 -0.9 -0.8 l -2.5,-0.05 h -0.2 -1.25 -0.45 l -0.3,-0.05 H 56.3 L 56,46.9 H 54 51.15 50 l -0.8,0.05 H 47.95 L 46.9,47 H 45.85 34.25 29.2 L 23.5,46.95 H 21.6 19.95 18.25 13.3 8.35 L 6.8,46.9 H 5.9 L 5.25,46.85 H 4.55 L 0.45,46.8 0.3,46.75 0.2,46.7 0.15,46.6 v -0.1 -0.05 -0.1 L 0.25,46.3 0.3,46.25 0.35,46.2 h 0.1 l 4.1,-0.05 h 0.7 L 5.9,46.1 h 0.9 l 1.55,-0.05 h 4.95 4.95 1.7 1.65 1.9 L 29.2,46 h 5.05 m -32.95,2.2 0.25,0.05 0.1,0.05 0.05,0.05 h 2.05 12.6 5.45 7.4 1 13 3.2 1 5.85 l 2.35,0.05 h 3.85 l 0.7,-0.05 h 0.3 l 0.7,-0.05 h 0.65 l 0.1,-0.05 h 0.2 0.7 0.2 l 0.25,0.05 0.15,0.1 0.1,0.05 0.1,0.1 0.05,0.05 v 0.1 l 0.1,0.05 v 0.1 0.1 0.05 0.1 0.05 0.1 l -0.1,0.05 v 0.1 l -0.05,0.05 -0.1,0.1 -0.1,0.1 L 63.25,49.7 63,49.75 62.8,49.8 H 62.1 L 61.9,49.75 H 61.8 L 61.15,49.7 h -0.7 l -0.3,-0.05 h -0.7 -3.85 -2.35 -5.85 -1 l -3.2,0.05 h -13 -1 -7.4 L 16.35,49.65 H 3.75 1.25 1.1 L 0.85,49.7 0.6,49.65 0.45,49.55 0.4,49.45 0.3,49.4 0.25,49.3 V 49.25 L 0.2,49.15 V 49.1 49 48.95 48.85 l 0.05,-0.1 V 48.7 L 0.3,48.6 0.4,48.55 0.45,48.45 0.6,48.4 0.9,48.3 1.05,48.25 H 1.1 1.3 V 48.2 m 35.45,2.2 H 38.8 43.25 44 l 4.75,0.05 h 2.3 2.25 2 l 0.3,0.05 h 1.55 L 58,50.45 h 0.75 0.85 0.2 l 2.85,0.05 h 0.25 l 0.15,0.05 0.2,0.05 0.2,0.05 0.1,0.1 0.15,0.05 0.1,0.1 0.1,0.05 0.1,0.1 0.05,0.1 0.05,0.05 v 2 l -0.05,0.1 -0.05,0.1 -0.1,0.05 -0.1,0.1 -0.1,0.05 -0.15,0.1 -0.1,0.05 -0.2,0.1 -0.2,0.05 H 62.9 l 0.1,0.1 0.1,0.1 0.15,0.05 0.05,0.1 0.1,0.05 0.05,0.1 0.1,0.05 0.05,0.1 0.05,0.05 0.05,0.1 0.05,0.1 0.05,0.05 v 0.1 0.05 0.1 0.05 0.1 0.05 l -0.05,0.1 v 0.05 l -0.05,0.1 -0.05,0.1 -0.05,0.05 -0.1,0.1 -0.05,0.05 -0.1,0.1 -0.05,0.05 -0.1,0.1 -0.1,0.05 -0.1,0.1 -0.15,0.1 -0.1,0.05 -0.15,0.1 -0.15,0.05 H 62.4 l -0.2,0.05 -0.15,0.05 -0.1,0.05 h -0.1 l -0.1,0.05 h -0.1 l -0.1,0.05 h -0.2 l -0.1,0.05 H 61 l -0.2,0.05 h -0.15 l -0.1,0.05 h -0.1 L 60.3,57 60.15,57.05 h -0.1 L 59.9,57.1 h -0.15 l -0.2,0.05 h -0.1 l -0.1,0.05 H 59.2 l -0.25,0.05 H 58.7 L 58.55,57.3 H 58.3 l -0.35,0.05 H 57.6 l -0.35,0.05 h -0.4 L 56.3,57.45 H 55.15 L 53.8,57.5 h -0.95 l -0.8,0.05 h -0.4 L 51.3,57.6 H 50.05 L 47.6,57.65 H 46.95 L 44,57.7 h -4.4 l -1.9,0.05 -2.25,0.05 h -4.9 l -4.1,0.05 h -4.1 L 14.25,57.8 H 13.4 L 7.35,57.75 4.85,57.7 H 2.7 2.45 2.3 L 1.8,57.65 H 1.45 L 1.3,57.6 H 1.2 L 1.1,57.55 0.95,57.5 0.75,57.45 0.6,57.35 0.45,57.3 0.35,57.2 0.25,57.15 0.15,57.05 0.1,56.95 0,56.9 -0.1,56.8 -0.15,56.75 -0.2,56.65 -0.3,56.6 -0.35,56.5 -0.4,56.45 -0.45,56.35 V 56.3 L -0.5,56.2 -0.55,56.1 V 56.05 L -0.6,55.95 V 55.9 l -0.05,-0.1 v -0.05 -0.1 L -0.7,55.6 v -0.1 -0.1 -0.05 -0.1 -0.05 l -0.05,-0.1 0.05,-0.05 v -0.1 -0.05 -0.1 -0.1 -0.05 l 0.05,-0.1 V 54.5 54.4 l 0.05,-0.05 v -0.1 l 0.05,-0.05 v -0.1 l 0.05,-0.05 0.05,-0.1 v -0.1 L -0.4,53.8 -0.35,53.7 -0.3,53.65 -0.2,53.55 -0.15,53.5 -0.1,53.4 0,53.35 0.1,53.25 0.15,53.15 0.25,53.1 0.15,53.05 0,52.95 -0.1,52.9 -0.15,52.8 -0.25,52.75 -0.3,52.65 V 52.6 L -0.35,52.5 V 52.4 L -0.4,52.35 v -0.1 -0.05 -0.1 -0.05 -0.1 l 0.05,-0.05 v -0.1 l 0.05,-0.1 0.05,-0.05 0.05,-0.1 0.05,-0.05 0.1,-0.1 0.1,-0.05 0.15,-0.1 0.1,-0.05 H 0.4 L 0.6,51.15 H 0.7 0.8 1 l 0.1,0.05 h 0.45 l 0.5,-0.05 h 0.8 l 1.1,-0.05 h 3 L 7.8,51.05 8.5,51 h 0.4 l 0.3,-0.05 h 0.55 l 0.5,-0.05 H 11.1 L 12,50.85 h 1.35 L 14,50.8 h 0.65 l 0.5,-0.05 h 0.55 l 0.75,-0.05 h 0.85 l 1.5,-0.05 h 2.75 l 0.7,-0.05 h 0.45 l 0.4,-0.05 h 0.4 l 0.65,-0.05 h 1.8 l 3.15,-0.05 h 2.35 5.3 V 50.4"
         fill="#999999"
         fill-rule="evenodd"
         stroke="none"
         id="path4" />
      <path
         d="m 59.7,17.65 q 0.8,0.1 1.1,0.45 0.45,0.45 0.15,1 l -0.55,0.5 -0.1,0.15 -1.3,1.85 1.25,0.05 q 0.75,0.1 1.05,0.65 v 0.6 L 60.95,23.35 59.7,23.4 58.25,23.35 57.15,23.2 Q 56.85,22.9 57,22.35 l 0.4,-0.8 1.2,-1.55 0.5,-0.6 -1.15,-0.1 q -0.85,0 -1.1,-0.4 -0.35,-0.6 0.4,-1 l 1.15,-0.25 h 1.3 m -19.6,4.3 q 0.75,1.5 0.65,2.15 -0.05,0.75 -0.95,1.85 -2.2,3.15 -3.5,6.75 l 11.55,-0.2 q -0.2,-1.6 0.05,-2.3 0.2,-0.6 0.65,-0.95 0.55,-0.4 1.1,-0.3 1.15,0.15 1.35,1.8 l -0.05,2.4 0.2,1.15 q 0.05,0.7 -0.25,1.1 -0.45,0.7 -2.1,0.7 l -10.1,0.15 -3.6,0.3 -1.85,0.2 q -1.1,-0.1 -1.55,-0.9 -0.55,-0.9 0.3,-2.55 l 2.15,-4.5 q 1.55,-3.2 2.7,-4.45 l 0.45,-0.7 q 0.1,-0.4 -0.4,-1.1 -1.25,-1.9 -3,-5.25 L 33.3,15.9 Q 33.1,15 33.6,14.45 34,13.9 35.25,13.7 l 8.25,-0.65 2.65,0.05 2.7,-0.05 q 1.35,-0.1 1.8,0.35 0.3,0.35 0.3,1.35 L 51,18.7 q 0,0.65 -0.3,0.75 -0.4,0.25 -0.85,-0.4 -0.6,-0.8 -0.75,-1.65 l -0.1,-0.2 -0.25,-0.35 -0.4,-0.5 -10.75,0.85 2.5,4.75 m 14.05,6.75 -1.05,0.1 -1,-0.05 q -1,-0.2 -1.9,-1.1 l -0.55,-0.75 -0.1,-1.15 q 0.1,-1.45 0.45,-2 l 0.7,-0.8 0.95,-0.7 L 54,22 v -1.65 l 0.4,-1.3 q 0.45,-0.75 1.15,-0.5 0.5,0.15 0.65,0.75 l 0.1,1.05 -0.25,4.55 q 0,1.25 0.15,1.6 l 0.25,0.55 q 0.15,0.6 -0.2,1.05 -0.3,0.45 -0.9,0.45 H 54.8 l -0.65,0.15 m -2.55,-3.6 0.05,0.7 q 1.1,0.75 2,0.55 l 0.2,-0.1 L 53.9,26 V 24.4 L 54,23.7 Q 52.85,23.6 52.35,24 l -0.4,0.35 q -0.25,0.15 -0.35,0.3 v 0.45 m 6.7,4.15 0.05,-0.2 -0.2,-0.2 q -0.75,-0.5 -0.55,-1.3 0.1,-0.85 0.95,-1.1 0.9,-0.15 1.35,0.45 l 0.35,0.75 q 0.3,1.65 -1.3,2.7 l -1.3,0.15 -0.25,-0.35 q 0,-0.3 0.35,-0.5 l 0.55,-0.4 m -11.4,13.95 -0.2,0.6 -0.45,0.5 q -0.4,0.1 -0.65,-0.25 L 45.45,43.4 Q 45.4,43.1 45.5,42.7 V 42.15 L 45.6,41.4 V 40.9 39.35 L 45.55,39 q 0.1,-0.5 0.45,-0.7 l 0.8,-0.05 0.9,1.05 0.75,0.9 0.2,0.35 0.1,-1.55 0.1,-0.75 q 0.3,-0.55 0.9,-0.55 0.65,-0.1 0.9,0.55 l 0.05,1.25 0.05,3.1 q 0.1,1 -0.25,1.45 l -0.7,0.35 -0.75,-0.2 -0.4,-0.7 -0.15,-0.15 -1.45,-2.15 -0.15,2 m -4.2,1.7 Q 42.55,44.65 42.55,44.05 L 42.9,37.9 43.05,37.3 Q 43.2,37 43.6,37 q 0.4,0 0.55,0.35 l 0.15,0.55 0.1,3.35 -0.1,0.55 0.1,2.35 -0.05,0.5 -0.45,0.55 -0.7,0.05 -0.5,-0.35 m -4.05,-5.45 0.9,0.15 q 0,-1.05 0.15,-1.4 v -0.05 l 0.1,-0.55 0.45,-0.4 h 0.6 q 0.55,0.15 0.75,0.9 v 0.95 l -0.15,1 q -0.2,1.5 -0.05,3.2 l -0.15,0.95 -0.85,0.55 -1.95,0.4 Q 37.3,45.1 36.25,44.2 L 35.7,43.55 35.65,42.5 35.7,41.65 36.3,40.7 37,40.05 l 0.75,-0.4 0.9,-0.2 M 17.75,24 q -0.25,0 -0.25,0.4 v 0.65 q 0,0.6 -0.6,0.95 l -1.1,-0.15 q -0.4,-0.4 -0.4,-0.9 l 0.05,-1 0.2,-0.65 0.4,-0.5 0.75,-0.6 0.8,-0.1 1.15,0.15 0.55,0.55 0.7,-0.45 0.75,-0.15 0.9,0.05 0.7,0.4 0.35,0.25 0.3,0.3 q 0.75,1.2 0.75,2.75 v 1.9 l -0.1,1 q -0.3,0.65 -1.05,0.65 -0.7,0 -1.05,-0.65 -0.2,-0.4 -0.1,-1 v -1.9 l -0.25,-1.3 -0.4,-0.4 -0.5,0.15 -0.4,0.4 -0.1,1.5 0.2,1.6 v 0.9 q -0.1,0.55 -0.5,0.7 l -0.75,0.05 q -0.3,0.1 -0.6,-0.2 Q 17.9,29.05 18,28.65 V 28.4 l -0.05,-0.2 q -0.25,-1.15 0.1,-3.45 L 17.75,24 m 7.65,3.2 0.2,-1.4 v -0.75 q 0.1,-1.5 -0.15,-2.2 l -0.25,-0.5 -0.4,-0.4 q -0.6,-0.6 -0.35,-1.55 0.35,-0.9 1.2,-1.05 0.9,-0.15 1.5,0.6 l 0.5,1.15 0.35,1.5 -0.05,2.25 -0.1,0.8 -0.45,1.35 -0.6,1.5 q -0.7,1.35 -1.4,1.8 L 25,30.5 q -0.35,0 -0.4,-0.2 v -0.4 l 0.55,-2 0.25,-0.7 m 8.9,-4.05 -1.1,0.3 -2.45,-0.15 h -1 q -0.7,-0.2 -0.8,-0.9 -0.15,-0.7 0.45,-1.15 L 30.7,21 h 1.7 l 1.35,0.15 q 0.75,0.3 0.9,0.9 0.25,0.6 -0.35,1.1 M 8.85,25.4 7.45,26.3 4.75,26.4 Q 4.05,26.25 3.45,25.8 L 2.7,24.9 2.25,24.1 2.2,23.35 2.3,21.6 Q 2.7,20 4.3,19.25 5.5,18.7 7,18.6 l 1,0.05 1.1,0.85 0.2,-0.2 0.5,-0.45 q 0.4,-0.2 0.8,0 0.45,0.2 0.5,0.55 0.2,0.6 -0.4,1.2 l -0.85,0.65 0.1,0.4 q 0.25,1.7 -0.6,3.1 L 8.85,25.4 M 7.8,22.95 7.95,22.2 7.8,21.55 7.45,21.45 6.45,20.8 Q 6.1,20.75 5.85,20.5 L 5.1,21.15 q -0.45,0.45 -0.55,1.65 0,0.65 0.25,0.95 l 0.6,0.4 1.75,-0.2 L 7.6,23.5 7.8,22.95 M 14.5,22.6 14.3,24 v 0.75 q -0.1,1.5 0.15,2.2 l 0.25,0.5 0.4,0.4 q 0.6,0.6 0.35,1.55 -0.35,0.9 -1.2,1.05 -0.9,0.15 -1.5,-0.6 l -0.5,-1.15 -0.35,-1.5 0.05,-2.25 0.1,-0.8 0.45,-1.35 0.6,-1.5 q 0.7,-1.35 1.4,-1.8 l 0.4,-0.2 q 0.35,0 0.4,0.2 v 0.4 l -0.55,2 -0.25,0.7 m -6.8,7.65 0.25,-0.4 0.2,-0.15 -0.2,-0.05 -0.75,-0.2 q -0.45,-0.2 -0.45,-0.6 0.1,-0.6 0.55,-0.75 l 0.4,-0.05 0.8,-0.2 1.9,0.05 q 0.3,0 0.5,0.15 0.35,0.25 0.35,0.75 0,0.45 -0.4,0.7 l -0.3,0.25 -0.25,0.3 -0.4,0.35 -0.7,0.7 1.9,-0.1 q 0.65,0.2 0.8,0.7 0.25,0.55 -0.2,1 -0.45,0.5 -1.45,0.5 L 7.3,33.05 Q 6.75,32.8 6.65,32.2 l 0.2,-0.65 0.6,-1 0.25,-0.3 m 21.6,-3.2 q -0.6,-0.5 -0.35,-1.1 0.15,-0.6 0.9,-0.9 L 31.2,24.9 h 1.7 l 1.3,0.25 q 0.6,0.45 0.45,1.15 -0.1,0.7 -0.8,0.9 h -1 l -2.45,0.15 -1.1,-0.3 m 10.15,14.6 0.05,-0.35 -0.9,0.25 -0.15,0.1 -0.15,0.2 -0.45,0.5 v 0.2 l 0.25,0.25 0.3,0.1 0.95,-0.05 0.1,-0.05 v -1.15"
         fill="#000000"
         fill-rule="evenodd"
         stroke="none"
         id="path5" />
    </g>
    <g
       id="shape2"
       transform="translate(1.5,1.5)">
      <path
         d="M 0,23.8 V 0 H 64.1 V 23.8 57.55 H 0 Z"
         fill="none"
         stroke="#000000"
         stroke-linecap="round"
         stroke-linejoin="round"
         stroke-width="3"
         id="path6" />
    </g>
  </defs>
</svg>
