<?xml version="1.0" encoding="UTF-8" standalone="no"?>
<svg
   ffdec:objectType="frame"
   height="44.615791"
   width="78.599998"
   version="1.1"
   id="svg11"
   sodipodi:docname="276.svg"
   xmlns:inkscape="http://www.inkscape.org/namespaces/inkscape"
   xmlns:sodipodi="http://sodipodi.sourceforge.net/DTD/sodipodi-0.dtd"
   xmlns:xlink="http://www.w3.org/1999/xlink"
   xmlns="http://www.w3.org/2000/svg"
   xmlns:svg="http://www.w3.org/2000/svg"
   xmlns:ffdec="https://www.free-decompiler.com/flash">
  <sodipodi:namedview
     id="namedview11"
     pagecolor="#ffffff"
     bordercolor="#000000"
     borderopacity="0.25"
     inkscape:showpageshadow="2"
     inkscape:pageopacity="0.0"
     inkscape:pagecheckerboard="0"
     inkscape:deskcolor="#d1d1d1"
     fit-margin-top="5"
     fit-margin-left="5"
     fit-margin-right="5"
     fit-margin-bottom="5" />
  <g
     transform="translate(2,2.3157895)"
     id="g3">
    <use
       ffdec:characterId="1"
       height="42.700001"
       transform="translate(-1.75,-2)"
       width="76.449997"
       xlink:href="#shape0"
       id="use1" />
    <use
       ffdec:characterId="270"
       height="43.75"
       transform="translate(-1.65,-2.3)"
       width="76.75"
       xlink:href="#shape1"
       id="use2" />
    <use
       ffdec:characterId="3"
       height="44.349998"
       transform="translate(-2,-2.05)"
       width="78.599998"
       xlink:href="#shape2"
       id="use3" />
  </g>
  <defs
     id="defs11">
    <g
       id="shape0"
       transform="translate(1.75,2)">
      <path
         d="M 2.8,0 V -0.4 H 5.4 V 0 H 9.7 V 19.45 0 H 20.55 L 19.3,19.45 H 9.7 0.25 V 0 H 2.8"
         fill="#ffffff"
         fill-rule="evenodd"
         stroke="none"
         id="path3" />
      <path
         d="M 0.25,19.45 H 9.7 19.3 L 18.7,28.6 16,28.5 10.95,27.95 9.7,27.8 Q 7.45,27.6 5.85,27.75 4.05,27.9 1.5,28.6 0.75,28.8 0.25,29.15 v -9.7 m 9.45,0 v 8.35 -8.35"
         fill="#121212"
         fill-rule="evenodd"
         stroke="none"
         id="path4" />
      <path
         d="m 9.7,27.8 1.25,0.15 5.05,0.55 2.7,0.1 h 1.05 l 3.75,0.15 q 2.45,0.3 3.6,1.25 0.6,0.5 0.6,1.1 0,0.65 -0.8,1 l -1.3,0.2 -7.15,0.15 -5.6,-0.3 L 9.7,31.75 7.95,31.6 3.1,31.95 0.95,32.3 0.25,32.1 -0.35,31.55 -0.5,31.3 V 29.9 L 0.25,29.15 Q 0.75,28.8 1.5,28.6 4.05,27.9 5.85,27.75 7.45,27.6 9.7,27.8 v 3.95 -3.95"
         fill="#999999"
         fill-rule="evenodd"
         stroke="none"
         id="path5" />
      <path
         d="M 2.8,0 H 0.25 M 9.7,0 H 5.4 m 16.15,0 h 10.7 M 20.55,0 H 9.7"
         fill="none"
         stroke="#666666"
         stroke-linecap="round"
         stroke-linejoin="round"
         stroke-width="4"
         id="path6" />
      <path
         d="m 9.7,-0.4 h 65 V 40.5 H 47.05 L 45.5,40.7 27,40.65 25.95,40.5 H 9.7 -0.5 V -0.4 H 9.7 V 40.5 -0.4"
         fill="#ffffff"
         fill-rule="evenodd"
         stroke="none"
         id="path7" />
    </g>
    <g
       id="shape1"
       transform="translate(1.65,2.3)">
      <path
         d="m 3.4,25.55 0.25,0.05 7.05,0.05 -0.15,-1.05 0.05,-1 0.35,-1.8 q 0.3,-1.15 1.1,-2.1 l 1.45,-1.4 q 0.45,-0.35 1.05,-0.5 l 0.2,-0.3 0.35,-0.65 1.3,-0.95 q 1.05,-0.55 1.85,-0.4 l 0.55,-0.3 2.65,-0.3 1.1,0.2 0.6,-0.4 q -0.6,-0.4 -0.75,-1.35 -0.1,-0.8 0.2,-1.55 0.25,-0.6 0.75,-0.95 L 23.7,10 23.75,9.9 Q 24.25,9 24.8,8.75 l 0.45,-0.3 q 1,-0.6 2.1,-0.6 -1,-1.75 -0.7,-3.9 0.25,-2.05 1.6,-3.6 1.3,-1.45 3.35,-2.15 1.9,-0.7 3.95,-0.45 2.05,0.15 3.6,1.25 l 0.45,0.35 0.35,-0.1 1,0.15 1.2,1.15 0.65,1.3 0.05,0.45 0.1,0.4 0.1,0.45 1.1,0.2 Q 44.9,3.8 45,4.75 l -0.3,0.95 -0.3,0.35 0.15,0.4 h 0.4 l 0.7,-0.75 2.05,0.15 0.65,0.9 1.3,1.1 q 0.75,0.8 1,1.7 l 0.1,1.3 0.95,0.25 0.8,0.45 q 0.6,0.45 1.1,1.6 l 0.2,0.85 0.05,0.3 q 0.8,0.1 1.5,0.55 l 0.8,0.6 q 1.55,1.4 1.7,2.95 l -0.05,1.4 q 0.55,0.45 0.55,1.25 0.05,0.55 -0.3,1.05 l -0.8,0.65 -1.15,0.05 -0.6,0.4 -0.4,0.2 0.45,1.35 0.05,1 2.25,0.05 h 1.05 l 1.85,0.05 h 2.65 l 1.5,0.05 h 2.05 l 0.35,0.05 H 68 L 70.4,26 h 1.3 l 0.35,0.05 h 0.25 l 0.2,0.05 h 0.4 l 1.25,0.05 h 0.05 l 0.25,0.05 0.2,0.05 0.1,0.1 0.1,0.1 0.05,0.05 0.05,0.1 0.05,0.05 0.05,0.1 v 0.05 l 0.05,0.1 v 0.05 0.1 0.1 l -0.05,0.05 v 0.1 L 75,27.35 v 0.1 l -0.05,0.05 -0.05,0.1 -0.05,0.05 -0.05,0.1 -0.1,0.05 -0.1,0.1 -0.2,0.1 -0.2,0.05 v 0.1 0.05 0.1 0.05 0.1 0.05 0.1 0.1 0.05 0.1 0.05 0.1 l -0.05,0.05 v 0.1 0.05 0.1 0.1 l -0.05,0.05 v 0.1 0.05 0.1 0.05 0.1 0.05 0.1 0.1 0.05 l 0.05,0.1 v 0.05 0.1 0.05 0.1 L 74.1,30.6 v 0.1 0.05 0.1 l 0.05,0.1 v 0.05 0.1 0.05 0.1 0.05 0.1 0.05 0.1 0.1 0.05 0.1 0.05 0.1 0.05 0.1 0.05 0.1 0.1 0.05 0.1 0.05 0.1 0.05 0.1 0.05 0.1 0.1 0.05 0.1 0.05 0.1 0.05 0.1 0.05 0.1 0.05 0.1 0.1 0.05 0.1 0.05 0.1 0.05 0.1 0.05 l -0.05,0.1 v 0.1 0.05 0.1 0.05 0.1 0.05 0.1 0.05 0.1 0.1 0.05 0.1 0.05 0.1 0.05 0.1 0.05 0.1 0.05 0.1 0.1 0.05 0.1 0.05 0.1 0.05 0.1 0.05 0.1 0.1 0.05 0.1 0.05 l -0.05,0.1 v 0.05 0.1 0.05 0.1 0.1 0.05 0.1 0.05 0.1 L 74,37.9 l 0.1,0.1 0.05,0.05 0.05,0.1 v 0.1 l 0.05,0.05 0.05,0.1 v 0.05 l 0.05,0.1 v 0.05 0.1 0.05 0.1 0.05 L 74.3,39 v 0.1 l -0.05,0.05 -0.05,0.1 -0.05,0.05 -0.05,0.1 -0.05,0.05 -0.1,0.1 -0.05,0.05 -0.1,0.1 -0.15,0.1 -0.1,0.05 H 73.5 l -0.1,0.05 h -0.25 l -0.2,0.05 h -0.4 l -1.3,-0.05 h -1.85 -1.95 -1 -0.8 -0.75 L 50.1,39.95 H 35.3 33.4 32 L 31.15,39.9 H 19.6 L 17.5,39.85 H 16.9 L 16.45,39.8 H 15.8 L 14.25,39.75 H 13.05 9.4 8.6 L 6.7,39.8 H 5.65 3.35 2.2 L 1.9,39.75 H 1.65 L 1.55,39.8 H 1.45 L 1.2,39.85 0.95,39.8 0.75,39.75 0.55,39.65 0.4,39.6 0.35,39.55 0.2,39.45 0.15,39.4 0.05,39.3 -0.05,39.25 -0.1,39.15 -0.15,39.1 -0.2,39 v -0.1 -0.05 -0.1 L -0.25,38.7 -0.2,38.6 v -0.1 l -0.05,-0.05 v -0.1 -0.05 -0.1 -0.1 -0.05 -0.1 -0.05 -0.1 -0.05 -0.1 -0.05 -0.1 -0.1 -0.05 -0.1 -0.05 -0.1 -0.05 -0.1 -0.05 -0.1 -0.05 -0.1 -0.1 -0.05 -0.1 -0.05 l 0.05,-0.1 V 36.2 36.1 36.05 35.95 35.85 35.8 35.7 35.65 35.55 35.5 35.4 35.35 35.25 35.15 35.1 35 34.95 34.85 34.8 34.7 34.65 l 0.05,-0.1 V 34.45 34.4 34.3 34.25 34.15 34.1 34 33.95 33.85 33.8 33.7 33.6 33.55 33.45 33.4 33.3 33.25 33.15 33.1 33 32.9 32.85 32.75 32.7 32.6 32.55 32.45 32.4 32.3 32.2 L -0.1,32.15 V 32.05 32 31.9 31.85 31.75 31.7 31.6 31.5 31.45 31.35 31.3 31.2 31.15 31.05 L -0.05,31 v -0.1 -0.05 -0.1 -0.1 -0.05 -0.1 -0.05 -0.1 -0.05 -0.1 -0.05 -0.1 -0.1 -0.05 -0.1 -0.05 -0.1 -0.05 -0.1 -0.05 L 0,29.35 v -0.1 -0.05 -0.1 -0.05 -0.1 -0.05 -0.1 -0.05 l 0.05,-0.1 V 28.6 28.5 28.4 28.35 28.25 L 0.1,28.2 V 28.1 L 0.05,28 -0.05,27.95 -0.15,27.85 -0.2,27.75 -0.25,27.7 -0.3,27.6 v -0.05 l -0.05,-0.1 V 27.4 L -0.4,27.3 v -0.05 -0.1 -0.1 -0.05 -0.1 -0.05 -0.1 l 0.05,-0.05 v -0.1 l 0.05,-0.05 v -0.1 l 0.05,-0.05 0.05,-0.1 0.05,-0.1 0.1,-0.05 L 0,26.05 0.1,26 0.15,25.9 0.3,25.85 0.45,25.75 0.6,25.7 h 0.1 l 0.25,-0.05 h 2.1 L 3.15,25.6 H 3.4 V 25.55 M 54.05,8.6 54.3,9.45 54.1,10.2 53.25,10.95 52.05,10.9 51.25,10.05 Q 51,9.45 51.2,8.9 51.45,8.35 52.05,8.05 l 1.15,-0.1 0.85,0.65 m 2.75,3.3 q 0.45,0 0.65,0.3 l 0.3,0.3 q 0.25,0.5 0,0.95 l -0.3,0.3 q -0.4,0.5 -1.05,0.2 -0.75,-0.35 -0.65,-1.15 0.2,-0.85 1,-0.85 L 56.8,11.9 m -14.75,13.8 9.3,0.05 h 1.4 L 52.4,25.4 52.2,25.25 q -1.3,-0.25 -1.95,-1.1 -0.35,-0.5 -0.35,-1.2 0,-0.65 0.35,-1.2 0.4,-0.55 1.05,-0.7 L 51.65,21 52.55,20.45 53.4,19.5 V 19.25 L 53.1,19.2 51.75,19.05 Q 51,18.65 50.6,17.9 50.25,17.1 50.5,16.3 L 50.45,16.2 50.1,15.45 48.5,15.2 Q 47.1,14.7 47,13.15 l 0.1,-0.7 -0.7,-1.2 q -0.25,0 -0.6,0.55 -0.7,1.1 -2.1,1.1 -1.35,-0.1 -2,-1.25 l -0.1,-0.2 -0.45,0.35 q 1.4,0.9 1.25,2.55 l -0.65,1.35 -1.3,0.7 -0.45,0.05 -0.35,0.9 0.25,0.75 0.25,0.4 0.75,0.65 q 0.4,0.5 0.5,1.15 0.1,0.7 -0.2,1.25 -0.6,1.25 -2.05,1.25 H 39.1 l -0.75,0.75 Q 37.7,24 37.4,24.5 q -0.3,0.45 -0.45,1.05 v 0.15 h 5.1 m 17.9,-8.3 -0.45,0.3 -0.95,-0.05 -0.45,-0.6 q -0.1,-0.5 0.2,-0.95 0.3,-0.35 0.85,-0.45 l 0.7,0.25 0.35,0.65 -0.25,0.85 M 36.45,14.15 36.15,13.3 Q 35.9,12.3 36.1,11.25 L 35.95,11.2 Q 35.15,10.85 34.65,9.95 34.3,9.15 34.5,8.5 q 0.2,-0.55 0.65,-1 0.4,-0.5 1,-0.7 L 35.85,5.65 35.35,4.4 Q 34.8,3.75 33.8,3.85 l -1.45,0.4 0.05,0.2 q 0.25,0.7 0.05,1.5 L 31.65,7.2 31.1,7.55 31.2,8.3 q 0,1.8 -1.75,2.75 -1.1,0.6 -2.55,0.65 l 0.2,1.15 -0.35,1.1 -0.5,0.5 Q 26,15.65 25.3,16.4 l 0.7,1.15 0.4,0.95 0.6,0.6 0.6,1.3 0.5,2.15 -0.35,1.85 -0.4,1.3 h 1.3 l 0.15,-0.3 q 0.3,-0.5 0.8,-0.65 l 0.75,-0.1 q 0.8,0.2 1.1,0.8 l 0.15,0.25 h 0.85 L 32.9,24.4 Q 33.5,23 34.05,22.45 L 34.8,21.8 35.2,21.5 34.4,20.75 Q 33.85,20.15 33.75,19.6 V 19 L 33.9,18.3 Q 34,17.5 34.45,17.05 34.9,16.5 35.6,16.5 l 0.25,-0.2 0.45,-0.25 q 0.35,-0.7 0.65,-1.1 l -0.5,-0.8 m -2.75,-2 0.3,0.7 -0.15,0.75 q -0.45,0.8 -1.4,0.55 -0.9,-0.25 -0.9,-1.2 0.1,-0.9 0.9,-1.15 0.7,-0.25 1.25,0.35 m -6.45,5.6 -0.45,-0.15 q -0.3,-0.3 0,-0.75 0.35,-0.4 1,-0.7 l 0.65,-0.25 h 0.95 q 0.8,0.25 1.2,0.95 0.4,0.75 -0.05,1.45 l -0.75,0.55 -0.95,-0.15 -0.7,-0.55 q -0.3,-0.3 -0.9,-0.4 m -10.45,7.9 5.4,0.05 h 1.35 l 0.1,-0.25 0.15,-1.5 Q 23.9,22.6 23.45,22 l -0.7,-0.7 -0.75,-1.1 -0.25,-0.8 -0.2,-0.3 -0.1,0.35 -0.35,1.5 -0.5,0.45 q -0.4,-0.05 -0.4,-0.7 l -0.05,-1.25 -0.45,0.3 -1.35,0.15 -0.7,-0.3 -0.05,0.05 v 0.2 q 0,1.25 -1.05,1.65 l -0.8,0.2 q -0.25,0.4 -0.4,0.95 -0.15,0.4 -0.05,0.95 l 0.3,0.7 0.65,1.35 h 0.55 m 16.25,-3.3 q 0.1,1 -0.8,1.45 -1.05,0.55 -1.8,-0.3 -0.8,-0.8 -0.25,-1.75 0.5,-1 1.65,-0.75 0.5,0.1 0.85,0.45 l 0.35,0.9 m -14.3,-12.3 q 0.55,0.8 0.65,1.9 0,0.9 -0.35,1.55 -0.3,0.55 -0.65,0.35 l -0.3,-0.3 Q 17.8,12.9 17.3,12.5 L 16.9,12.2 16.3,12.1 Q 15.15,11.85 15,10.7 14.85,9.6 15.8,9.05 l 1.65,-0.1 q 0.8,0.3 1.3,1.1 m -5.9,7.15 -0.6,0.8 q -0.25,0.35 -0.7,0.45 l -0.85,-0.1 q -0.8,-0.5 -0.65,-1.5 l 0.6,-0.9 q 0.7,-0.7 1.8,-0.8 1.1,-0.1 1.8,0.7 0.65,0.55 0.25,1.05 -0.3,0.3 -0.8,0.2 l -0.85,0.1"
         fill="#999999"
         fill-rule="evenodd"
         stroke="none"
         id="path8" />
      <path
         d="m 50.9,13.25 q 1,0.9 1.55,2.2 L 52.95,15.4 54,15.55 Q 55.65,16 56.3,18 l 0.15,0.6 q 0.15,1.35 -0.85,2.7 l -0.5,0.6 q -0.8,0.7 -1.8,0.8 l -1.1,-0.1 -0.65,-0.15 q 1.3,0.65 2.25,1.7 0.95,1.05 1.3,2.4 l 0.2,1.15 0.6,0.75 q 0.45,0.95 0.1,2.1 -0.35,1.05 -1.3,1.75 -1.3,1 -4.1,1.4 l -10.55,0.7 q -4.15,0 -6.15,-0.9 -1.3,-0.65 -1.75,-1.4 -0.5,-0.75 -0.5,-1.7 0,-0.95 0.5,-1.7 l 1.2,-1 q 0,-0.8 0.3,-1.7 0.7,-2 2.7,-3.6 0.95,-0.75 2.4,-1.45 l -0.3,-0.75 -0.4,-1.55 q -0.2,-1.9 0.8,-3.45 -0.6,-0.6 -0.75,-1.35 l -0.05,-1.2 q 0.1,-1.45 0.5,-2.05 L 39.1,9.95 40.3,9 40.85,8.9 42.45,8.95 43,8.9 43.3,8.65 q 1.2,-1.1 2.9,-0.7 l 0.5,0.2 q 1.2,0.5 1.85,1.8 l 0.3,1 -0.05,1 q 1.15,0.4 2.1,1.3 m -2.05,6.45 -0.1,0.15 h 0.3 q 0.9,0.15 1.45,0.65 l 0.45,0.45 v -0.8 L 50.7,19.6 Q 50.5,19.35 50.05,19.25 49.3,19.1 48.85,19.7 m -7.1,1.55 q -0.35,0.6 0.15,1.1 l 1.1,0.25 0.9,-0.5 1.25,0.1 q 0.7,0.25 0.85,0.4 l 0.35,0.35 0.4,0.05 0.15,-0.35 -0.2,-0.4 -0.45,-0.6 -0.75,-0.5 V 21 l -0.05,-0.2 0.15,-0.45 -0.05,-0.2 Q 45.45,19.6 44.9,19.6 l -0.1,0.05 q -0.35,0 -0.55,0.45 l -0.1,0.45 -1.5,0.05 q -0.7,0.2 -0.9,0.65 m 2.95,-3.9 q 1.15,-0.95 1.1,-2.25 l -1.3,-0.1 -0.25,-0.05 -0.1,0.1 -0.4,0.35 q -1,0.95 -2.35,0.85 L 40.65,16.1 q 0.3,0.95 1.3,1.45 1.4,0.75 2.75,-0.2 m 13.8,8.8 -0.65,-0.25 -1.3,0.15 -0.25,0.1 -0.25,-0.25 Q 56,25.7 56.25,25.35 l 1.05,-1.1 q 0.75,-0.5 1.4,-0.35 0.85,0.1 1.1,0.9 0.2,0.65 -0.3,1.05 -0.45,0.45 -1,0.3 M 13.4,19.9 q 0.45,-0.85 1.45,-1.85 l 1.4,-1.1 q 1.65,-1.05 4.3,-0.8 1.55,0.1 2.55,0.7 l 1.25,1.1 q 1.1,1.15 1.65,2.75 0.95,2.65 0.3,5.65 -0.8,4.05 -3.7,5.4 l -0.7,0.25 -1.15,0.55 -9,4.35 q -5.4,2.6 -9.15,4.05 -2,0.8 -3.1,0.3 l -0.9,-0.9 q -0.35,-0.7 -0.2,-1.35 0.15,-0.95 1.7,-2.2 6.3,-5.05 10.1,-7.7 1.3,-0.9 2.45,-1.5 l -0.1,-0.5 -0.2,-2.75 q 0.2,-2.9 1.05,-4.45 m 20.7,0.55 -0.65,0.1 q -0.8,0.1 -1.05,-0.6 -0.2,-0.55 0.1,-0.9 0.35,-0.55 1.2,-0.55 l 1.1,0.25 q 1.2,0.55 1.35,1.9 0,0.7 -0.35,0.75 L 35.15,21 q -0.5,-0.6 -1.05,-0.55"
         fill="#000000"
         fill-rule="evenodd"
         stroke="none"
         id="path9" />
      <path
         d="m 44.7,17.35 q -1.35,0.95 -2.75,0.2 -1,-0.5 -1.3,-1.45 l 0.75,0.15 q 1.35,0.1 2.35,-0.85 l 0.4,-0.35 0.1,-0.1 0.25,0.05 1.3,0.1 q 0.05,1.3 -1.1,2.25 m -2.95,3.9 q 0.2,-0.45 0.9,-0.65 l 1.5,-0.05 0.1,-0.45 q 0.2,-0.45 0.55,-0.45 l 0.1,-0.05 q 0.55,0 0.65,0.55 l 0.05,0.2 -0.15,0.45 0.05,0.2 v 0.15 l 0.75,0.5 0.45,0.6 0.2,0.4 L 46.75,23 46.35,22.95 46,22.6 Q 45.85,22.45 45.15,22.2 L 43.9,22.1 43,22.6 41.9,22.35 q -0.5,-0.5 -0.15,-1.1 m 7.1,-1.55 q 0.45,-0.6 1.2,-0.45 0.45,0.1 0.65,0.35 l 0.25,0.55 v 0.8 L 50.5,20.5 Q 49.95,20 49.05,19.85 h -0.3 l 0.1,-0.15"
         fill="#ffffff"
         fill-rule="evenodd"
         stroke="none"
         id="path10" />
    </g>
    <g
       id="shape2"
       transform="translate(2,2.05)">
      <path
         d="M -0.5,-0.4 V -0.55 H 75.1 V -0.4 40.8 H -0.5 Z"
         fill="none"
         stroke="#000000"
         stroke-linecap="round"
         stroke-linejoin="round"
         stroke-width="3"
         id="path11" />
    </g>
  </defs>
</svg>
