<?xml version="1.0" encoding="UTF-8" standalone="no"?>
<svg
   ffdec:objectType="frame"
   height="60.549999"
   width="67.099998"
   version="1.1"
   id="svg8"
   sodipodi:docname="388.svg"
   xmlns:inkscape="http://www.inkscape.org/namespaces/inkscape"
   xmlns:sodipodi="http://sodipodi.sourceforge.net/DTD/sodipodi-0.dtd"
   xmlns:xlink="http://www.w3.org/1999/xlink"
   xmlns="http://www.w3.org/2000/svg"
   xmlns:svg="http://www.w3.org/2000/svg"
   xmlns:ffdec="https://www.free-decompiler.com/flash">
  <sodipodi:namedview
     id="namedview8"
     pagecolor="#ffffff"
     bordercolor="#000000"
     borderopacity="0.25"
     inkscape:showpageshadow="2"
     inkscape:pageopacity="0.0"
     inkscape:pagecheckerboard="0"
     inkscape:deskcolor="#d1d1d1"
     fit-margin-top="5"
     fit-margin-left="5"
     fit-margin-right="5"
     fit-margin-bottom="5" />
  <g
     transform="translate(1.5,1.5)"
     id="g3">
    <use
       ffdec:characterId="516"
       height="57.549999"
       width="64.099998"
       xlink:href="#shape0"
       id="use1" />
    <use
       ffdec:characterId="887"
       height="59.450001"
       transform="translate(2,-0.9)"
       width="59.150002"
       xlink:href="#shape1"
       id="use2" />
    <use
       ffdec:characterId="518"
       height="60.549999"
       transform="translate(-1.5,-1.5)"
       width="67.099998"
       xlink:href="#shape2"
       id="use3" />
  </g>
  <defs
     id="defs8">
    <g
       id="shape0">
      <path
         d="M 53.6,0 H 64.1 V 57.55 H 53.6 28.25 0 V 0 H 28.25 53.6 V 57.55 0 M 28.25,0 V 57.55 0"
         fill="#ffffff"
         fill-rule="evenodd"
         stroke="none"
         id="path3" />
    </g>
    <g
       id="shape1"
       transform="translate(-2,0.9)">
      <path
         d="m 14.6,-0.3 0.2,0.05 0.15,0.1 0.05,0.05 0.05,0.1 0.05,0.05 0.05,0.1 V 0.25 0.3 0.4 L 15.2,0.45 V 0.55 0.6 0.7 0.8 0.85 0.95 1 1.1 1.15 1.25 1.35 1.4 1.5 l 0.05,0.05 v 0.1 0.05 0.1 0.05 0.1 0.1 0.05 0.1 0.05 0.1 0.05 0.1 0.1 0.05 0.1 0.05 0.1 0.05 0.1 0.05 0.1 0.1 0.05 0.1 0.05 0.1 0.05 0.1 0.1 0.05 0.1 0.05 0.1 0.05 0.1 0.05 0.1 0.1 0.05 0.1 0.05 l 0.05,0.1 V 4.9 5 5.1 5.15 5.25 5.3 5.4 5.45 l 0.05,0.1 V 5.6 5.7 5.8 5.85 5.95 6 6.1 6.15 6.25 6.35 6.4 6.5 6.55 l 0.05,0.1 V 6.7 6.8 6.85 6.95 7.05 7.1 7.2 7.25 7.35 7.4 7.5 7.6 7.65 7.75 7.8 7.9 7.95 8.05 8.1 8.2 8.3 8.35 8.45 8.5 8.6 8.65 8.75 8.85 8.9 9 9.05 l 0.05,0.1 v 0.05 0.1 0.05 0.1 0.1 0.05 0.1 0.05 0.1 0.05 0.1 0.1 0.05 0.1 0.05 l 0.05,0.1 v 0.05 0.1 0.05 0.1 0.1 0.05 0.1 0.05 0.1 0.05 0.1 0.1 0.05 0.1 0.05 0.1 0.05 0.1 0.05 0.1 0.1 0.05 0.1 0.05 l 0.05,0.1 v 0.05 0.1 0.1 0.05 0.1 0.05 0.1 0.05 0.1 0.05 l 0.05,0.1 v 0.1 0.05 0.1 0.05 0.1 0.05 0.1 0.1 0.05 l 0.05,0.1 v 0.05 0.1 0.05 0.1 0.1 0.05 0.1 0.05 0.1 0.05 0.1 0.05 0.1 0.1 0.05 0.1 0.05 0.1 0.05 0.1 l 0.05,0.1 v 0.05 0.1 0.05 0.1 0.05 0.1 0.05 0.1 0.1 0.05 0.1 0.05 0.1 0.05 0.1 0.1 0.05 0.1 0.05 0.1 0.05 0.1 0.05 0.1 0.1 0.05 0.1 0.05 0.1 0.05 0.1 0.1 0.05 0.1 0.05 0.1 0.05 l 0.05,0.1 v 0.05 0.1 0.1 0.05 0.1 0.05 0.1 0.05 0.1 0.1 0.05 0.1 0.05 0.1 0.05 l 0.05,0.1 v 0.05 0.1 0.1 0.05 0.1 0.05 0.1 0.05 0.1 0.1 0.05 0.1 0.05 0.1 0.05 l 0.05,0.1 v 0.05 0.1 0.1 0.05 0.1 0.05 0.1 0.05 0.1 0.1 l 0.05,0.05 v 0.1 0.05 0.1 0.05 0.1 0.05 0.1 0.1 0.05 0.1 0.05 0.1 l 0.05,0.05 v 0.1 0.1 0.05 0.1 0.05 0.1 0.05 L 16,23.6 v 0.05 0.1 0.1 0.05 0.1 0.05 l 0.05,0.1 v 0.05 0.1 0.1 0.05 0.1 0.05 0.1 0.05 0.1 l 0.05,0.05 v 0.1 0.1 0.05 0.1 0.05 0.1 0.05 0.1 0.1 0.05 0.1 0.05 0.1 0.05 0.1 0.05 0.1 0.1 0.05 0.1 0.05 0.1 0.05 l 0.05,0.1 v 0.1 0.05 0.1 0.05 0.1 0.05 0.1 0.05 0.1 0.1 0.05 0.1 0.05 0.1 0.05 0.1 l 0.05,0.1 v 0.05 0.1 0.05 0.1 0.05 0.1 0.1 0.05 0.1 0.05 0.1 0.05 0.1 0.05 l -0.05,0.1 v 0.1 0.05 0.1 0.05 0.1 0.05 0.1 0.1 0.05 0.1 0.05 0.1 0.05 0.1 0.05 l 0.05,0.1 v 0.1 0.05 0.1 0.05 0.1 0.05 0.1 0.1 0.05 0.1 0.05 0.1 l -0.05,0.05 v 0.1 0.05 l -0.05,0.1 -0.05,0.1 v 0.05 l -0.05,0.1 -0.05,0.05 -0.05,0.1 -0.05,0.05 -0.1,0.1 -0.05,0.1 -0.1,0.05 -0.1,0.1 -0.1,0.05 -0.1,0.1 -0.25,0.05 -0.15,0.05 -0.3,0.05 -0.3,-0.05 -0.15,-0.05 -0.25,-0.05 -0.15,-0.1 -0.1,-0.05 -0.1,-0.1 -0.05,-0.05 -0.1,-0.1 -0.05,-0.1 L 13.3,32.2 13.25,32.1 13.2,32.05 13.15,31.95 13.1,31.9 V 31.8 L 13.05,31.7 V 31.65 L 13,31.55 V 31.5 31.4 31.35 31.25 31.2 31.1 31 30.95 30.85 30.8 30.7 30.65 30.55 30.45 L 13.05,30.4 V 30.3 30.25 30.15 30.1 30 29.95 29.85 29.75 29.7 29.6 29.55 29.45 29.4 29.3 L 13,29.2 V 29.15 29.05 29 28.9 28.85 28.75 28.7 28.6 28.5 28.45 28.35 28.3 28.2 28.15 l 0.05,-0.1 V 27.95 27.9 27.8 27.75 27.65 27.6 27.5 27.4 27.35 27.25 27.2 27.1 27.05 26.95 26.9 26.8 L 13.1,26.7 V 26.65 26.55 26.5 26.4 26.35 26.25 26.15 26.1 26 25.95 25.85 25.8 25.7 25.65 25.55 25.45 25.4 25.3 25.25 25.15 25.1 25 24.9 l 0.05,-0.05 v -0.1 -0.05 -0.1 -0.05 -0.1 -0.05 -0.1 -0.1 -0.05 l 0.05,-0.1 V 24 23.9 23.85 23.75 23.65 23.6 23.5 l 0.05,-0.05 v -0.1 -0.05 -0.1 -0.05 -0.1 -0.1 L 13.3,22.9 v -0.1 -0.05 -0.1 -0.05 -0.1 -0.1 -0.05 -0.1 -0.05 -0.1 -0.05 -0.1 -0.05 l 0.05,-0.1 V 21.7 21.65 21.55 21.5 21.4 21.35 21.25 21.15 21.1 21 20.95 20.85 20.8 20.7 20.65 20.55 20.45 20.4 20.3 L 13.4,20.25 V 20.15 20.1 20 19.9 19.85 l 0.05,-0.1 V 19.7 19.6 19.55 19.45 19.4 19.3 19.2 19.15 19.05 19 18.9 18.85 18.75 18.65 18.6 18.5 l 0.05,-0.05 v -0.1 -0.05 -0.1 -0.05 -0.1 -0.1 -0.05 -0.1 -0.05 -0.1 -0.05 -0.1 -0.1 -0.05 -0.1 -0.05 -0.1 -0.05 -0.1 -0.05 -0.1 -0.1 -0.05 -0.1 -0.05 -0.1 -0.05 -0.1 -0.1 V 16.1 16 15.95 15.85 15.8 15.7 15.65 l 0.05,-0.1 V 15.45 15.4 15.3 15.25 15.15 15.1 15 14.9 14.85 14.75 14.7 14.6 14.55 14.45 14.4 14.3 14.2 14.15 14.05 14 l 0.05,-0.1 v -0.05 -0.1 -0.1 -0.05 -0.1 -0.05 -0.1 -0.05 -0.1 l 0.05,-0.1 v -0.05 -0.1 -0.05 -0.1 -0.05 -0.1 -0.05 -0.1 -0.1 -0.05 l 0.05,-0.1 V 12.2 12.1 12.05 11.95 11.85 11.8 11.7 11.65 11.55 11.5 11.4 11.35 11.25 11.15 11.1 11 10.95 10.85 10.8 10.7 10.6 10.55 10.45 10.4 l 0.05,-0.1 V 10.25 10.15 10.1 10 9.9 9.85 9.75 9.7 9.6 9.55 9.45 9.35 9.3 9.2 9.15 9.05 L 13.8,9 V 8.9 8.85 8.75 8.65 8.6 8.5 8.45 8.35 8.3 8.2 8.1 8.05 7.95 7.9 7.8 7.75 7.65 7.6 7.5 7.4 7.35 7.25 7.2 7.1 7.05 6.95 6.85 6.8 6.7 6.65 6.55 L 13.85,6.5 V 6.4 6.35 6.25 6.15 6.1 6 5.95 5.85 5.8 5.7 5.6 5.55 5.45 L 13.9,5.4 V 5.3 5.25 5.15 5.1 5 4.9 4.85 4.75 L 13.95,4.7 V 4.6 4.55 4.45 4.35 4.3 4.2 4.15 4.05 4 3.9 3.85 3.75 3.65 3.6 3.5 3.45 3.35 3.3 3.2 3.1 3.05 2.95 2.9 2.8 2.75 2.65 2.6 2.5 2.4 2.35 2.25 2.2 2.1 2.05 1.95 1.85 1.8 1.7 1.65 1.55 1.5 1.4 1.35 L 13.9,1.25 V 1.15 1.1 L 13.85,1 13.9,0.95 V 0.85 0.8 L 13.95,0.7 V 0.6 0.55 L 14,0.45 V 0.4 L 14.05,0.3 V 0.25 0.15 L 14.1,0.05 14.15,0 l 0.05,-0.1 0.05,-0.05 0.15,-0.1 h 0.2 V -0.3 m 16.05,0.2 0.2,0.05 0.15,0.1 0.05,0.1 0.05,0.05 v 0.1 l 0.05,0.05 V 0.45 0.5 L 31.2,0.6 V 0.65 0.75 0.85 0.9 1 1.05 1.15 1.2 1.3 1.4 1.45 1.55 1.6 l 0.05,0.1 V 1.75 1.85 1.9 2 2.1 2.15 2.25 L 31.3,2.3 v 0.1 0.05 0.1 0.1 0.05 0.1 0.05 l 0.05,0.1 V 3 3.1 3.15 3.25 3.35 L 31.4,3.4 v 0.1 0.05 l 0.05,0.1 V 3.7 3.8 3.9 3.95 4.05 4.1 4.2 4.25 4.35 4.4 4.5 4.6 4.65 4.75 4.8 4.9 4.95 l 0.05,0.1 V 5.15 5.2 5.3 5.35 5.45 5.5 5.6 5.7 5.75 5.85 5.9 L 31.55,6 V 6.05 6.15 6.2 6.3 6.4 6.45 6.55 6.6 6.7 6.75 6.85 6.95 7 7.1 7.15 7.25 7.3 7.4 7.45 7.55 7.65 7.7 7.8 L 31.6,7.85 V 7.95 8 8.1 8.2 8.25 8.35 8.4 8.5 8.55 8.65 l 0.05,0.05 v 0.1 0.1 0.05 0.1 0.05 0.1 0.05 0.1 0.1 L 31.7,9.5 v 0.1 0.05 0.1 0.05 0.1 0.05 0.1 0.1 0.05 0.1 0.05 0.1 0.05 0.1 0.1 0.05 0.1 0.05 0.1 0.05 0.1 0.05 0.1 0.1 0.05 0.1 l 0.05,0.05 v 0.1 0.05 0.1 0.1 0.05 0.1 0.05 l 0.05,0.1 v 0.05 0.1 0.05 0.1 0.1 0.05 l 0.05,0.1 0.05,0.05 v 0.1 L 31.95,13 v 0.1 0.1 L 32,13.25 v 0.1 0.05 0.1 0.05 0.1 0.05 l 0.05,0.1 0.05,0.1 0.05,0.05 v 0.1 0.05 l 0.05,0.1 v 0.05 l 0.05,0.1 v 0.1 0.05 0.1 0.05 0.1 0.05 0.1 0.05 0.1 0.1 L 32.2,15.2 v 0.1 0.05 l -0.05,0.1 -0.05,0.05 v 0.1 L 32,15.7 v 0.05 l -0.05,0.1 -0.05,0.05 -0.05,0.1 -0.1,0.05 -0.05,0.1 -0.1,0.05 -0.1,0.1 -0.15,0.1 -0.2,0.05 -0.1,0.05 -0.15,0.05 H 30.65 30.4 L 30.2,16.5 29.95,16.4 29.85,16.35 29.7,16.25 29.65,16.15 29.55,16.1 29.45,16 29.4,15.95 29.35,15.85 29.3,15.8 29.25,15.7 29.2,15.65 29.15,15.55 v -0.1 L 29.1,15.4 v -0.1 -0.05 l -0.05,-0.1 V 15.1 15 14.9 14.85 14.75 14.7 14.6 14.55 14.45 14.4 14.3 l 0.05,-0.1 v -0.05 l 0.05,-0.1 V 14 13.9 l 0.05,-0.05 0.05,-0.1 v -0.1 -0.05 -0.1 l 0.05,-0.05 v -0.1 -0.05 -0.1 -0.1 l 0.05,-0.05 v -0.1 -0.05 l 0.05,-0.1 0.05,-0.05 v -0.1 -0.05 l 0.05,-0.1 v -0.1 -0.05 -0.1 -0.05 -0.1 -0.05 l 0.05,-0.1 v -0.1 -0.05 -0.1 -0.05 -0.1 L 29.6,11.5 V 11.4 11.35 11.25 11.15 11.1 11 10.95 10.85 10.8 10.7 10.6 10.55 10.45 10.4 10.3 10.25 10.15 10.1 10 9.9 9.85 9.75 9.7 9.6 9.55 9.45 l 0.05,-0.1 V 9.3 9.2 9.15 9.05 9 8.9 8.85 8.75 8.65 L 29.7,8.6 V 8.5 8.45 8.35 8.3 8.2 8.1 8.05 7.95 7.9 7.8 L 29.75,7.75 V 7.65 7.6 7.5 7.4 7.35 7.25 7.2 7.1 7.05 6.95 6.85 6.8 6.7 6.65 6.55 6.5 6.4 6.35 6.25 6.15 6.1 6 5.95 L 29.8,5.85 V 5.8 5.7 5.6 5.55 5.45 5.4 5.3 5.25 5.15 5.1 5 L 29.85,4.9 V 4.85 4.75 4.7 4.6 4.55 4.45 4.35 4.3 4.2 4.15 4.05 4 3.9 3.85 3.75 3.65 L 29.9,3.6 V 3.5 3.45 3.35 3.3 3.2 3.1 L 29.95,3.05 V 2.95 2.9 2.8 2.75 2.65 2.6 2.5 L 30,2.4 V 2.35 2.25 2.2 2.1 2.05 1.95 1.85 L 30.05,1.8 V 1.7 1.65 1.55 1.5 1.4 1.35 L 30.1,1.25 V 1.15 1.1 1 0.95 0.85 0.8 0.7 0.6 0.55 0.45 L 30.15,0.4 V 0.3 L 30.2,0.25 V 0.15 L 30.3,0.05 30.4,0 30.5,-0.05 h 0.15 V -0.1 m 11.85,-0.4 0.2,0.05 0.1,0.1 0.1,0.05 v 0.1 l 0.05,0.05 v 0.1 L 43,0 v 0.1 0.1 0.05 0.1 0.05 0.1 l 0.05,0.05 v 0.1 0.1 0.05 l 0.05,0.1 v 0.05 0.1 0.05 0.1 l 0.05,0.05 V 1.35 1.45 1.5 1.6 1.65 1.75 1.8 1.9 2 2.05 2.15 2.2 2.3 2.35 2.45 2.5 2.6 2.7 2.75 2.85 2.9 3 3.05 3.15 3.25 3.3 3.4 3.45 3.55 3.6 3.7 3.75 3.85 3.95 4 4.1 4.15 4.25 4.3 4.4 4.5 4.55 4.65 4.7 4.8 4.85 4.95 5 5.1 5.2 5.25 5.35 5.4 5.5 5.55 5.65 5.75 5.8 5.9 5.95 6.05 6.1 6.2 l 0.05,0.05 v 0.1 0.1 0.05 0.1 l 0.05,0.05 V 6.75 6.8 6.9 7 7.05 7.15 7.2 7.3 7.35 l 0.05,0.1 V 7.5 7.6 7.7 7.75 7.85 7.9 8 8.05 8.15 l 0.05,0.1 V 8.3 8.4 8.45 8.55 8.6 8.7 8.75 l 0.05,0.1 V 8.95 9 9.1 9.15 9.25 9.3 9.4 9.5 9.55 l 0.05,0.1 v 0.05 0.1 0.05 0.1 l 0.05,0.1 v 0.05 0.1 0.05 0.1 0.05 0.1 0.05 0.1 0.1 0.05 0.1 0.05 0.1 0.05 0.1 0.1 0.05 0.1 0.05 0.1 0.05 0.1 0.05 0.1 l 0.05,0.1 v 0.05 l 0.05,0.1 v 0.05 l 0.05,0.1 v 0.05 0.1 0.1 0.05 l 0.05,0.1 v 0.05 0.1 0.05 l 0.05,0.1 v 0.05 0.1 0.1 0.05 0.1 0.05 0.1 0.05 0.1 l -0.05,0.1 v 0.05 l -0.05,0.1 V 14 l -0.05,0.1 -0.05,0.05 -0.05,0.1 -0.05,0.05 -0.05,0.1 -0.1,0.1 -0.1,0.05 -0.15,0.1 L 42.9,14.7 42.75,14.75 42.5,14.8 42.25,14.75 42.1,14.7 41.9,14.65 41.75,14.55 41.7,14.5 41.6,14.4 41.55,14.3 41.5,14.25 41.45,14.15 41.4,14.1 41.3,14 v -0.05 l -0.05,-0.1 V 13.8 13.7 13.6 13.55 L 41.2,13.45 V 13.4 13.3 13.25 l 0.05,-0.1 V 13.05 13 12.9 12.85 l 0.05,-0.1 V 12.7 12.6 12.55 l 0.05,-0.1 v -0.1 -0.05 l 0.05,-0.1 v -0.05 -0.1 L 41.45,12 41.5,11.9 v -0.1 -0.05 -0.1 -0.05 -0.1 -0.05 -0.1 -0.05 -0.1 -0.1 -0.05 -0.1 -0.05 -0.1 -0.05 -0.1 -0.1 -0.05 -0.1 -0.05 -0.1 -0.05 -0.1 -0.05 l 0.05,-0.1 V 9.85 9.8 9.7 9.65 9.55 L 41.6,9.5 V 9.4 9.3 9.25 9.15 9.1 9 8.95 8.85 l 0.05,-0.1 V 8.7 8.6 8.55 8.45 8.4 8.3 8.25 L 41.7,8.15 V 8.05 8 7.9 7.85 7.75 7.7 7.6 7.5 7.45 7.35 L 41.75,7.3 V 7.2 7.15 7.05 7 6.9 6.8 6.75 6.65 L 41.8,6.6 V 6.5 6.45 6.35 6.25 6.2 6.1 6.05 5.95 5.9 5.8 L 41.85,5.75 V 5.65 5.55 5.5 5.4 5.35 5.25 5.2 5.1 5 4.95 4.85 4.8 4.7 4.65 4.55 4.5 4.4 4.3 4.25 4.15 4.1 4 3.95 3.85 3.75 3.7 3.6 3.55 3.45 3.4 3.3 3.25 3.15 3.05 3 2.9 2.85 2.75 2.7 2.6 2.5 2.45 L 41.8,2.35 V 2.3 2.2 2.15 2.05 2 L 41.85,1.9 V 1.8 1.75 1.65 1.6 1.5 1.45 1.35 1.25 1.2 1.1 1.05 0.95 L 41.8,0.9 V 0.8 0.75 l 0.05,-0.1 V 0.55 0.5 L 41.9,0.4 41.95,0.35 V 0.25 0.2 L 42,0.1 V 0 l 0.05,-0.05 v -0.1 -0.05 l 0.05,-0.1 0.1,-0.05 0.1,-0.1 h 0.2 V -0.5 m 16.85,0.65 0.25,0.05 0.15,0.1 0.1,0.05 0.05,0.1 0.05,0.05 0.05,0.1 0.05,0.05 0.05,0.1 V 0.85 0.9 1 1.05 1.15 1.2 1.3 l 0.05,0.1 V 1.45 1.55 1.6 1.7 1.75 1.85 1.9 2 2.1 2.15 2.25 2.3 2.4 2.45 2.55 2.65 2.7 2.8 2.85 2.95 3 3.1 3.15 3.25 3.35 3.4 3.5 3.55 3.65 3.7 3.8 3.9 3.95 l 0.05,0.1 V 4.1 4.2 4.25 4.35 4.4 4.5 4.6 l 0.05,0.05 v 0.1 0.05 0.1 0.05 l 0.05,0.1 v 0.1 0.05 0.1 l 0.05,0.05 v 0.1 0.05 l 0.05,0.1 v 0.1 l 0.05,0.05 V 5.85 5.9 6 l 0.05,0.05 v 0.1 0.05 0.1 0.1 0.05 l 0.05,0.1 v 0.05 0.1 0.05 0.1 l 0.05,0.1 V 7 7.1 7.15 7.25 l 0.05,0.05 v 0.1 0.05 l 0.05,0.1 V 7.65 7.7 7.8 7.85 7.95 8 l 0.05,0.1 v 0.1 0.05 0.1 0.05 0.1 0.05 0.1 L 60.8,8.7 v 0.1 0.1 0.05 0.1 0.05 0.1 l 0.05,0.05 v 0.1 0.1 L 60.9,9.5 v 0.1 0.05 0.1 0.05 l 0.05,0.1 v 0.05 0.1 0.1 0.05 0.1 0.05 0.1 0.05 0.1 0.1 0.05 0.1 0.05 0.1 0.05 0.1 0.05 0.1 0.1 0.05 0.1 L 61,11.6 v 0.1 0.05 0.1 0.1 0.05 0.1 0.05 0.1 0.05 0.1 0.05 0.1 0.1 0.05 0.1 0.05 0.1 0.05 0.1 0.1 0.05 0.1 0.05 0.1 0.05 l 0.05,0.1 v 0.05 0.1 0.1 0.05 0.1 0.05 0.1 0.05 0.1 0.1 0.05 0.1 0.05 0.1 0.05 0.1 0.05 0.1 0.1 0.05 l 0.05,0.1 v 0.05 0.1 0.05 0.1 0.1 0.05 0.1 l 0.05,0.05 V 16 l -0.05,0.05 v 0.1 0.05 0.1 0.1 l -0.05,0.05 v 0.1 L 61,16.6 v 0.1 l -0.05,0.05 v 0.1 l -0.05,0.1 -0.05,0.05 -0.05,0.1 -0.05,0.05 -0.1,0.1 -0.05,0.05 -0.1,0.1 -0.1,0.05 -0.1,0.1 -0.15,0.1 -0.2,0.05 -0.15,0.05 -0.15,0.05 H 59.35 59.1 L 58.9,17.75 58.65,17.65 58.5,17.6 58.4,17.5 58.3,17.4 58.2,17.35 58.1,17.25 58.05,17.2 57.95,17.1 57.9,17.05 57.85,16.95 57.8,16.9 V 16.8 L 57.75,16.7 57.7,16.65 v -0.1 L 57.65,16.5 v -0.1 -0.05 -0.1 -0.1 -0.05 L 57.6,16 v -0.05 -0.1 l 0.05,-0.05 v -0.1 -0.05 -0.1 -0.1 -0.05 -0.1 -0.05 l 0.05,-0.1 V 15.1 15 14.9 14.85 14.75 14.7 14.6 14.55 14.45 14.4 14.3 14.2 14.15 14.05 14 13.9 13.85 13.75 13.65 13.6 l 0.05,-0.1 v -0.05 -0.1 -0.05 -0.1 -0.1 -0.05 -0.1 -0.05 -0.1 -0.05 -0.1 -0.05 -0.1 -0.1 -0.05 -0.1 -0.05 -0.1 -0.05 -0.1 -0.1 -0.05 -0.1 -0.05 -0.1 L 57.8,11.5 V 11.4 11.35 11.25 11.15 11.1 11 10.95 10.85 10.8 10.7 10.6 10.55 10.45 10.4 10.3 10.25 10.15 10.1 10 9.9 L 57.85,9.85 V 9.75 9.7 9.6 9.55 9.45 L 57.9,9.35 V 9.3 9.2 L 57.95,9.15 V 9.05 9 8.9 8.85 8.75 8.65 L 58,8.6 V 8.5 8.45 8.35 8.3 8.2 8.1 8.05 l 0.05,-0.1 V 7.9 7.8 7.75 7.65 7.6 7.5 L 58.1,7.4 V 7.35 7.25 7.2 7.1 7.05 l 0.05,-0.1 V 6.85 L 58.2,6.8 V 6.7 6.65 6.55 6.5 L 58.25,6.4 V 6.35 6.25 6.15 6.1 6 L 58.3,5.95 V 5.85 5.8 5.7 L 58.35,5.6 V 5.55 L 58.4,5.45 V 5.4 5.3 L 58.45,5.25 V 5.15 5.1 5 L 58.5,4.9 V 4.85 4.75 4.7 4.6 L 58.55,4.55 V 4.45 4.35 4.3 4.2 4.15 4.05 4 L 58.6,3.9 V 3.85 3.75 3.65 3.6 3.5 3.45 3.35 3.3 3.2 3.1 3.05 2.95 2.9 2.8 2.75 2.65 2.6 2.5 2.4 2.35 2.25 2.2 2.1 2.05 1.95 1.85 1.8 1.7 1.65 1.55 1.5 1.4 1.35 l 0.05,-0.1 V 1.15 1.1 1 0.95 0.85 0.8 0.7 L 58.7,0.6 58.75,0.55 58.8,0.45 58.85,0.4 58.95,0.3 59.05,0.25 59.2,0.2 h 0.15 V 0.15 m -10.7,0.2 0.25,0.05 0.15,0.05 0.1,0.1 0.05,0.05 0.05,0.1 v 0.1 l 0.05,0.05 0.05,0.1 V 1 1.1 1.15 1.25 1.35 L 49.4,1.4 v 0.1 0.05 l 0.05,0.1 V 1.7 1.8 l 0.05,0.05 v 0.1 0.1 L 49.45,2.1 V 2.2 L 49.4,2.25 v 0.1 l 0.05,0.05 -0.05,0.1 0.05,0.1 v 0.05 0.1 0.05 0.1 0.05 l 0.05,0.1 V 3.1 3.2 3.3 3.35 3.45 3.5 3.6 3.65 3.75 3.85 3.9 4 4.05 4.15 4.2 4.3 4.35 4.45 4.55 4.6 4.7 4.75 4.85 4.9 5 5.1 5.15 5.25 5.3 5.4 5.45 5.55 5.6 5.7 5.8 5.85 5.95 6 v 0.1 0.05 0.1 0.1 0.05 0.1 0.05 0.1 0.05 0.1 0.05 0.1 0.1 0.05 0.1 0.05 0.1 L 49.55,7.4 V 7.5 7.6 7.65 7.75 7.8 7.9 7.95 8.05 8.1 8.2 8.3 8.35 8.45 8.5 8.6 8.65 8.75 8.85 8.9 9 9.05 l 0.05,0.1 v 0.05 0.1 0.05 0.1 0.1 0.05 0.1 0.05 0.1 l 0.05,0.05 v 0.1 0.1 0.05 0.1 0.05 0.1 0.05 0.1 0.05 0.1 0.1 0.05 0.1 0.05 0.1 0.05 0.1 0.1 0.05 l 0.05,0.1 v 0.05 0.1 0.05 0.1 0.05 0.1 0.1 0.05 0.1 0.05 0.1 0.05 0.1 0.1 0.05 0.1 0.05 0.1 0.05 0.1 0.05 0.1 0.1 l 0.05,0.05 v 0.1 0.05 0.1 0.05 0.1 0.1 0.05 0.1 0.05 0.1 0.05 0.1 0.1 l 0.05,0.05 v 0.1 0.05 0.1 0.05 0.1 0.05 0.1 0.1 0.05 0.1 0.05 0.1 l 0.05,0.05 v 0.1 0.1 0.05 0.1 0.05 0.1 0.05 0.1 0.05 0.1 0.1 0.05 0.1 0.05 0.1 0.05 l 0.05,0.1 v 0.1 0.05 0.1 0.05 0.1 0.05 0.1 0.05 0.1 0.1 0.05 0.1 0.05 0.1 0.05 0.1 0.1 0.05 0.1 l 0.05,0.05 v 0.1 0.05 0.1 0.05 0.1 0.1 0.05 0.1 0.05 0.1 0.05 0.1 0.1 0.05 0.1 0.05 0.1 0.05 0.1 0.05 0.1 0.1 0.05 0.1 0.05 0.1 0.05 0.1 0.1 0.05 0.1 0.05 0.1 0.05 0.1 0.05 0.1 0.1 0.05 0.1 0.05 0.1 0.05 0.1 0.1 0.05 0.1 0.05 0.1 0.05 0.1 0.05 0.1 0.1 0.05 0.1 0.05 0.1 0.05 0.1 0.1 0.05 0.1 0.05 l 0.05,0.1 v 0.05 0.1 0.05 0.1 0.1 0.05 0.1 0.05 0.1 0.05 0.1 0.1 0.05 0.1 0.05 0.1 0.05 0.1 0.05 0.1 0.1 0.05 0.1 0.05 0.1 0.05 0.1 0.1 0.05 0.1 0.05 0.1 0.05 0.1 0.05 0.1 0.1 0.05 0.1 0.05 0.1 0.05 0.1 0.1 0.05 0.1 0.05 0.1 0.05 0.1 0.05 0.1 0.1 0.05 0.1 0.05 0.1 0.05 0.1 0.1 0.05 0.1 0.05 0.1 0.05 0.1 0.1 0.05 0.1 0.05 0.1 0.05 l 0.05,0.1 v 0.05 0.1 0.1 0.05 l 0.05,0.1 v 0.05 0.1 0.05 l 0.05,0.1 v 0.1 0.05 0.1 0.05 0.1 0.05 0.1 0.05 l 0.05,0.1 v 0.1 0.05 0.1 0.05 0.1 0.05 0.1 0.1 0.05 0.1 0.05 0.1 0.05 0.1 0.05 0.1 0.1 0.05 0.1 0.05 0.1 l 0.05,0.05 v 0.1 0.1 0.05 0.1 0.05 0.1 0.05 0.1 0.05 0.1 0.1 0.05 0.1 0.05 0.1 0.05 l 0.05,0.1 v 0.1 0.05 0.1 0.05 0.1 0.05 0.1 l -0.05,0.05 v 0.1 0.1 0.05 0.1 0.05 l -0.05,0.1 v 0.05 l -0.05,0.1 v 0.1 L 50.1,35 v 0.1 l -0.1,0.05 -0.05,0.1 v 0.05 l -0.1,0.1 -0.05,0.05 -0.05,0.1 -0.1,0.1 -0.1,0.05 -0.1,0.1 -0.15,0.05 -0.15,0.1 L 49,36 H 48.9 L 48.6,36.05 48.3,36 H 48.2 L 48,35.95 47.85,35.85 47.7,35.8 47.6,35.7 47.5,35.65 47.4,35.55 47.35,35.45 47.3,35.4 47.25,35.3 47.2,35.25 47.15,35.15 47.1,35.1 47.05,35 V 34.95 L 47,34.85 V 34.75 34.7 L 46.95,34.6 V 34.55 L 46.9,34.45 V 34.4 34.3 34.2 34.15 34.05 34 33.9 33.85 33.75 33.7 33.6 33.5 33.45 33.35 33.3 33.2 33.15 33.05 32.95 32.9 32.8 32.75 l 0.05,-0.1 V 32.6 32.5 32.45 32.35 32.25 32.2 L 47,32.1 V 32.05 31.95 31.9 31.8 31.7 31.65 31.55 31.5 31.4 31.35 31.25 31.2 31.1 31 30.95 30.85 30.8 30.7 30.65 30.55 30.45 L 47.05,30.4 V 30.3 30.25 30.15 30.1 30 29.95 29.85 29.75 L 47.1,29.7 v -0.1 -0.05 l 0.05,-0.1 V 29.4 29.3 29.2 29.15 29.05 29 28.9 28.85 28.75 28.7 28.6 28.5 28.45 28.35 28.3 28.2 28.15 28.05 27.95 27.9 27.8 27.75 27.65 27.6 27.5 27.4 27.35 l 0.05,-0.1 V 27.2 27.1 27.05 26.95 26.9 26.8 26.7 26.65 26.55 26.5 26.4 26.35 26.25 26.15 26.1 26 25.95 25.85 25.8 25.7 25.65 25.55 25.45 25.4 25.3 25.25 25.15 25.1 25 24.9 24.85 24.75 24.7 24.6 24.55 24.45 24.4 24.3 24.2 24.15 24.05 24 23.9 23.85 23.75 23.65 23.6 23.5 23.45 23.35 23.3 23.2 23.15 23.05 22.95 22.9 22.8 22.75 22.65 22.6 22.5 22.4 22.35 22.25 22.2 22.1 22.05 21.95 21.9 21.8 21.7 21.65 21.55 21.5 21.4 21.35 21.25 21.15 21.1 21 20.95 20.85 20.8 20.7 20.65 20.55 20.45 20.4 20.3 20.25 20.15 20.1 20 19.9 19.85 19.75 19.7 19.6 l 0.05,-0.05 v -0.1 -0.05 -0.1 -0.1 -0.05 -0.1 -0.05 -0.1 -0.05 -0.1 -0.1 -0.05 -0.1 -0.05 -0.1 -0.05 -0.1 -0.05 -0.1 -0.1 -0.05 -0.1 -0.05 -0.1 -0.05 -0.1 l 0.05,-0.1 v -0.05 -0.1 -0.05 -0.1 -0.05 -0.1 -0.05 -0.1 -0.1 -0.05 -0.1 -0.05 -0.1 -0.05 -0.1 -0.1 L 47.35,16.1 V 16 15.95 15.85 15.8 15.7 15.65 15.55 15.45 15.4 15.3 15.25 15.15 15.1 15 14.9 L 47.4,14.85 V 14.75 14.7 14.6 14.55 14.45 14.4 14.3 14.2 14.15 14.05 14 13.9 l 0.05,-0.05 v -0.1 -0.1 -0.05 -0.1 -0.05 -0.1 -0.05 -0.1 -0.1 -0.05 -0.1 -0.05 -0.1 -0.05 -0.1 -0.05 -0.1 l 0.05,-0.1 v -0.05 -0.1 -0.05 -0.1 -0.05 -0.1 -0.1 -0.05 -0.1 -0.05 -0.1 -0.05 -0.1 -0.05 -0.1 -0.1 V 11.1 11 10.95 10.85 10.8 10.7 l 0.05,-0.1 V 10.55 10.45 10.4 10.3 10.25 10.15 10.1 10 9.9 9.85 9.75 9.7 9.6 9.55 9.45 L 47.6,9.35 V 9.3 9.2 9.15 l 0.05,-0.1 V 9 8.9 8.85 8.75 8.65 8.6 8.5 8.45 8.35 8.3 8.2 8.1 8.05 7.95 7.9 7.8 7.75 7.65 7.6 7.5 7.4 L 47.7,7.35 V 7.25 7.2 7.1 7.05 6.95 6.85 6.8 6.7 6.65 6.55 6.5 6.4 6.35 6.25 6.15 6.1 6 5.95 5.85 5.8 5.7 5.6 5.55 5.45 5.4 5.3 5.25 5.15 5.1 5 4.9 4.85 4.75 4.7 4.6 4.55 4.45 4.35 4.3 4.2 4.15 4.05 4 3.9 3.85 3.75 3.65 3.6 3.5 3.45 3.35 3.3 3.2 3.1 3.05 2.95 L 47.75,2.9 V 2.8 L 47.7,2.75 V 2.65 2.6 2.5 2.4 2.35 2.25 2.2 2.1 2.05 1.95 L 47.75,1.85 47.8,1.8 V 1.7 L 47.85,1.65 V 1.55 1.5 L 47.9,1.4 V 1.35 1.25 1.15 1.1 L 47.95,1 V 0.95 0.85 L 48,0.8 V 0.7 l 0.1,-0.1 0.05,-0.05 0.1,-0.1 0.15,-0.05 0.25,-0.05 m -23.1,38 q -2.6,-0.7 -4.05,-1.9 -2.3,-1.9 -2.6,-5.25 -0.3,-2.6 0.95,-5.9 0.2,-0.65 0.55,-1.15 -0.7,-1.9 -0.8,-3.85 l 0.05,-1.35 q 0.2,-0.75 0.7,-1.15 0.2,-0.25 0.6,-0.35 l 1.4,0.1 1,0.25 1.4,0.4 1.15,0.5 0.5,0.15 1.3,-0.35 3.8,-0.3 h 0.1 0.25 0.2 l 3.75,0.3 1.35,0.35 0.45,-0.15 1.2,-0.5 1.4,-0.4 1,-0.25 1.35,-0.1 0.65,0.35 q 0.5,0.4 0.7,1.15 l 0.05,1.35 q -0.1,1.95 -0.8,3.85 l 0.55,1.15 q 1.25,3.3 0.95,5.9 -0.3,3.35 -2.6,5.25 -1.45,1.2 -4.05,1.9 l -0.8,0.25 2.1,1.65 8.05,5.55 4.15,2.75 q 1.25,1.1 1.75,2.2 0.6,1.4 0.1,2.7 -0.45,0.9 -1.45,1.4 l -2.15,0.2 Q 48.8,54.8 48,54 47.25,53.2 46.95,52.15 l -0.35,-1.2 -1.2,-1.25 -3.5,-3 -4,-3.55 0.65,2.8 q 1.3,5.85 1.45,8.85 0.15,1.35 -0.15,2.25 H 23.7 q -0.3,-0.9 -0.15,-2.25 0.15,-3 1.45,-8.85 l 0.65,-2.8 -4,3.55 -3.5,3 q -0.85,0.65 -1.2,1.25 L 16.6,52.15 15.55,54 q -0.8,0.8 -1.8,1.05 l -2.1,-0.2 q -1.05,-0.5 -1.45,-1.4 -0.5,-1.3 0.1,-2.7 0.5,-1.1 1.75,-2.2 0.85,-0.7 4.15,-2.75 l 8.05,-5.55 2.1,-1.65 -0.8,-0.25 M 58.1,24.2 l 0.25,0.05 0.1,0.1 0.05,0.05 0.05,0.1 0.05,0.05 v 0.1 0.05 0.1 l 0.05,0.05 v 0.1 0.1 0.05 0.1 0.05 0.1 l 0.05,0.05 v 0.1 0.1 l 0.05,0.05 v 0.1 0.05 l 0.05,0.1 v 0.05 0.1 0.05 l 0.05,0.1 v 0.1 0.05 0.1 0.05 0.1 0.05 0.1 0.1 0.05 0.1 0.05 0.1 0.05 l 0.05,0.1 v 0.05 0.1 0.1 0.05 l -0.05,0.1 v 0.05 0.1 0.05 0.1 l -0.05,0.1 v 0.05 0.1 0.05 0.1 0.05 0.1 0.05 0.1 0.1 0.05 0.1 0.05 0.1 0.05 0.1 0.1 0.05 0.1 0.05 0.1 0.05 l 0.05,0.1 v 0.05 0.1 0.1 0.05 0.1 0.05 0.1 0.05 0.1 0.1 0.05 0.1 0.05 0.1 0.05 0.1 0.05 0.1 0.1 l 0.05,0.05 v 0.1 0.05 0.1 0.05 0.1 0.1 0.05 0.1 0.05 0.1 0.05 0.1 0.05 0.1 0.1 l 0.05,0.05 v 0.1 0.05 0.1 0.05 0.1 0.1 0.05 0.1 0.05 0.1 0.05 0.1 0.05 0.1 0.1 0.05 l 0.05,0.1 v 0.05 0.1 0.05 0.1 0.1 0.05 0.1 0.05 0.1 0.05 0.1 0.05 0.1 0.1 l 0.05,0.05 v 0.1 0.05 0.1 0.05 0.1 0.1 l 0.05,0.05 v 0.1 0.05 0.1 0.05 0.1 0.05 l 0.05,0.1 v 0.1 0.05 0.1 0.05 0.1 0.05 l 0.05,0.1 v 0.1 0.05 0.1 0.05 0.1 l 0.05,0.05 v 0.1 0.1 0.05 0.1 0.05 l 0.05,0.1 v 0.05 0.1 0.05 0.1 0.1 0.05 0.1 l 0.05,0.05 v 0.1 0.05 0.1 0.1 0.05 0.1 0.05 0.1 0.05 l 0.05,0.1 v 0.05 0.1 0.1 l 0.05,0.05 v 0.1 0.05 0.1 0.05 l 0.05,0.1 v 0.1 0.05 0.1 0.05 l 0.05,0.1 v 0.05 0.1 0.05 0.1 0.1 0.05 l 0.05,0.1 v 0.05 0.1 0.05 0.1 0.1 0.05 0.1 0.05 0.1 0.05 0.1 l 0.05,0.05 v 0.1 0.1 0.05 0.1 0.05 0.1 0.05 0.1 0.1 0.05 0.1 0.05 0.1 l 0.05,0.05 v 0.1 0.05 0.1 0.1 0.05 0.1 0.05 0.1 0.05 0.1 0.1 0.05 0.1 0.05 0.1 0.05 l -0.05,0.1 v 0.05 0.1 0.1 L 59.6,44.4 v 0.1 l -0.05,0.05 v 0.1 l -0.05,0.05 -0.05,0.1 -0.05,0.1 -0.05,0.05 -0.05,0.1 -0.1,0.05 -0.05,0.1 -0.1,0.05 -0.1,0.1 -0.1,0.05 -0.1,0.1 -0.2,0.1 -0.15,0.05 H 58.3 L 58.05,45.7 57.8,45.65 H 57.7 L 57.5,45.6 57.35,45.5 57.2,45.4 57.1,45.35 57.05,45.25 56.95,45.2 56.85,45.1 56.8,45.05 56.7,44.95 56.65,44.9 56.6,44.8 V 44.7 L 56.55,44.65 56.5,44.55 V 44.5 l -0.05,-0.1 v -0.05 -0.1 -0.1 L 56.4,44.1 V 44 43.95 43.85 43.8 43.7 43.65 43.55 43.45 43.4 43.3 43.25 43.15 43.1 43 42.9 42.85 42.75 L 56.45,42.7 V 42.6 42.55 42.45 42.4 42.3 42.2 42.15 42.05 42 41.9 41.85 41.75 41.65 L 56.5,41.6 v -0.1 -0.05 -0.1 -0.05 -0.1 -0.05 -0.1 -0.1 -0.05 -0.1 -0.05 l 0.05,-0.1 V 40.6 40.5 40.4 40.35 40.25 40.2 l 0.05,-0.1 v -0.05 -0.1 -0.05 -0.1 -0.1 l 0.05,-0.05 V 39.55 39.5 39.4 L 56.7,39.35 V 39.25 39.15 39.1 39 38.95 38.85 38.8 38.7 38.65 l 0.05,-0.1 V 38.45 38.4 38.3 38.25 38.15 38.1 38 l 0.05,-0.1 v -0.05 -0.1 -0.05 -0.1 -0.05 -0.1 -0.05 l 0.05,-0.1 v -0.1 -0.05 -0.1 L 56.9,37 v -0.1 -0.05 -0.1 l 0.05,-0.1 V 36.6 36.5 36.45 36.35 36.3 36.2 L 57,36.1 v -0.05 -0.1 -0.05 -0.1 -0.05 -0.1 -0.05 l 0.05,-0.1 v -0.1 -0.05 -0.1 -0.05 -0.1 -0.05 l 0.05,-0.1 V 34.85 34.8 34.7 34.65 34.55 34.5 34.4 34.35 34.25 34.15 34.1 34 33.95 l 0.05,-0.1 V 33.8 33.7 33.6 33.55 33.45 33.4 33.3 33.25 33.15 33.1 33 32.9 32.85 32.75 32.7 32.6 32.55 l 0.05,-0.1 v -0.1 -0.05 -0.1 -0.05 -0.1 -0.05 -0.1 -0.05 -0.1 -0.1 -0.05 -0.1 -0.05 -0.1 l 0.05,-0.05 v -0.1 -0.1 -0.05 -0.1 -0.05 -0.1 -0.05 -0.1 -0.05 -0.1 -0.1 -0.05 -0.1 -0.05 -0.1 -0.05 -0.1 -0.1 -0.05 -0.1 L 57.3,29.65 V 29.55 29.5 29.4 29.35 29.25 29.15 29.1 29 28.95 28.85 28.8 28.7 28.6 28.55 28.45 28.4 28.3 28.25 28.15 28.1 28 27.9 27.85 27.75 27.7 l 0.05,-0.1 v -0.05 -0.1 -0.1 -0.05 -0.1 L 57.4,27.15 V 27.05 27 26.9 26.85 26.75 26.65 26.6 26.5 26.45 26.35 26.3 26.2 26.1 l 0.05,-0.05 v -0.1 -0.05 -0.1 l 0.05,-0.05 v -0.1 l 0.05,-0.05 v -0.1 -0.1 l 0.05,-0.05 v -0.1 -0.05 -0.1 -0.05 -0.1 -0.1 -0.05 l 0.05,-0.1 v -0.05 -0.1 l 0.05,-0.05 0.05,-0.1 0.05,-0.05 0.1,-0.1 0.2,-0.05 M 39.75,24.15 38.95,24 l -0.05,0.2 -1,1.95 -0.25,0.45 -0.7,0.7 -0.3,0.2 q 0.25,0.65 0.85,1.1 0.6,0.45 1.35,0.5 0.7,0.05 1.4,-0.4 0.65,-0.4 0.95,-1 0.4,-0.65 0.3,-1.45 -0.1,-0.75 -0.6,-1.3 l -1.15,-0.8 M 7.95,0.65 8.15,0.7 8.25,0.8 8.3,0.85 8.35,0.95 8.4,1 8.45,1.1 v 0.05 0.1 L 8.5,1.35 V 1.4 1.5 l 0.05,0.05 v 0.1 0.05 0.1 0.05 l 0.05,0.1 v 0.1 0.05 0.1 0.05 0.1 0.05 0.1 0.1 0.05 l 0.05,0.1 V 2.8 2.9 2.95 3.05 3.1 3.2 3.3 3.35 3.45 3.5 3.6 3.65 3.75 3.85 3.9 4 4.05 L 8.7,4.15 V 4.2 4.3 4.35 4.45 4.55 4.6 4.7 4.75 4.85 4.9 5 5.1 5.15 5.25 5.3 5.4 5.45 5.55 5.6 5.7 5.8 5.85 5.95 6 v 0.1 0.05 0.1 0.1 0.05 0.1 0.05 0.1 0.05 0.1 0.05 0.1 0.1 0.05 0.1 0.05 0.1 0.05 0.1 0.1 0.05 0.1 0.05 0.1 0.05 0.1 0.05 l 0.05,0.1 v 0.1 0.05 0.1 0.05 0.1 0.05 0.1 0.1 0.05 0.1 0.05 0.1 0.05 0.1 0.05 0.1 0.1 0.05 0.1 0.05 0.1 0.05 0.1 0.1 0.05 0.1 0.05 0.1 0.05 0.1 0.05 0.1 0.1 0.05 0.1 0.05 0.1 0.05 0.1 0.1 0.05 0.1 0.05 0.1 0.05 0.1 0.05 0.1 0.1 0.05 0.1 0.05 0.1 0.05 0.1 0.1 0.05 0.1 0.05 0.1 0.05 0.1 0.05 0.1 0.1 0.05 0.1 0.05 0.1 0.05 0.1 0.1 0.05 0.1 0.05 0.1 0.05 0.1 0.1 0.05 0.1 0.05 0.1 0.05 0.1 0.05 0.1 l 0.05,0.1 v 0.05 0.1 0.05 0.1 0.05 0.1 0.1 0.05 0.1 0.05 0.1 0.05 0.1 0.05 0.1 0.1 0.05 0.1 0.05 0.1 0.05 0.1 0.1 0.05 0.1 0.05 0.1 0.05 0.1 0.05 0.1 0.1 0.05 0.1 0.05 0.1 0.05 0.1 0.1 0.05 0.1 0.05 0.1 0.05 0.1 0.05 0.1 0.1 0.05 0.1 0.05 0.1 0.05 0.1 0.1 0.05 0.1 0.05 0.1 0.05 0.1 0.05 0.1 0.1 0.05 0.1 0.05 0.1 0.05 0.1 0.1 0.05 0.1 0.05 0.1 0.05 0.1 0.05 0.1 0.1 0.05 0.1 0.05 0.1 0.05 0.1 0.1 0.05 0.1 0.05 0.1 0.05 0.1 0.05 0.1 0.1 0.05 0.1 0.05 0.1 0.05 0.1 0.1 0.05 0.1 0.05 0.1 0.05 0.1 0.05 0.1 0.1 0.05 0.1 0.05 0.1 0.05 0.1 0.1 0.05 0.1 0.05 0.1 0.05 0.1 0.05 0.1 0.1 0.05 0.1 0.05 0.1 0.05 0.1 0.1 0.05 0.1 0.05 0.1 0.05 0.1 0.05 0.1 0.1 0.05 0.1 0.05 0.1 0.05 0.1 0.1 0.05 0.1 0.05 0.1 0.05 0.1 0.05 l 0.05,0.1 v 0.1 0.05 0.1 0.05 0.1 0.05 0.1 0.1 0.05 0.1 0.05 0.1 0.05 0.1 0.1 0.05 0.1 0.05 0.1 0.05 l 0.05,0.1 v 0.05 0.1 0.1 0.05 0.1 0.05 0.1 0.05 0.1 0.1 0.05 0.1 0.05 0.1 0.05 0.1 0.05 0.1 0.1 0.05 0.1 0.05 0.1 0.05 0.1 0.1 0.05 0.1 0.05 0.1 l 0.05,0.05 v 0.1 0.05 0.1 0.1 0.05 0.1 0.05 0.1 0.05 0.1 0.1 0.05 0.1 0.05 0.1 0.05 0.1 0.05 0.1 0.1 0.05 0.1 0.05 0.1 0.05 0.1 0.1 0.05 0.1 0.05 0.1 0.05 0.1 0.05 0.1 0.1 0.05 0.1 0.05 0.1 0.05 0.1 0.1 0.05 0.1 0.05 0.1 0.05 0.1 0.05 0.1 0.1 0.05 0.1 0.05 0.1 0.05 0.1 0.1 0.05 0.1 0.05 0.1 0.05 0.1 0.05 0.1 0.1 0.05 0.1 0.05 L 9,37.2 v 0.05 0.1 0.1 0.05 0.1 0.05 0.1 0.05 0.1 0.05 0.1 l 0.05,0.1 v 0.05 l 0.05,0.1 v 0.05 0.1 0.05 0.1 0.1 0.05 0.1 0.05 0.1 0.05 l 0.05,0.1 v 0.05 0.1 0.1 0.05 0.1 0.05 0.1 l 0.05,0.05 v 0.1 0.1 0.05 0.1 0.05 0.1 0.05 0.1 l 0.05,0.05 v 0.1 0.1 0.05 0.1 0.05 l 0.05,0.1 v 0.05 0.1 0.1 0.05 0.1 0.05 0.1 l 0.05,0.05 v 0.1 0.05 l 0.05,0.1 v 0.1 0.05 0.1 l 0.05,0.05 v 0.1 0.05 0.1 l 0.05,0.1 v 0.05 0.1 0.05 0.1 0.05 0.1 L 9.55,43 v 0.05 0.1 0.05 l 0.05,0.1 v 0.05 0.1 0.05 0.1 l 0.05,0.1 v 0.05 0.1 L 9.7,43.9 v 0.1 0.05 0.1 0.1 0.05 0.1 0.05 0.1 0.05 0.1 0.05 0.1 0.1 0.05 l 0.05,0.1 v 0.05 0.1 L 9.8,45.3 v 0.1 l 0.05,0.1 v 0.05 0.1 0.05 0.1 l 0.05,0.05 v 0.1 0.05 0.1 0.1 0.05 0.1 0.05 0.1 0.05 l -0.05,0.1 v 0.1 0.05 L 9.8,46.9 v 0.05 L 9.75,47.05 9.7,47.1 v 0.1 l -0.1,0.05 v 0.1 L 9.55,47.45 9.5,47.5 9.4,47.6 9.35,47.65 9.3,47.75 9.2,47.8 9.1,47.9 8.95,48 8.85,48.05 8.7,48.15 8.55,48.2 H 8.5 L 8.35,48.25 H 8.25 L 7.95,48.3 7.6,48.25 H 7.5 L 7.3,48.2 7.1,48.1 6.95,48.05 6.85,47.95 6.75,47.85 6.65,47.8 6.55,47.7 6.45,47.65 6.4,47.55 6.35,47.5 6.3,47.4 6.25,47.35 6.2,47.25 6.15,47.15 6.1,47.1 V 47 L 6.05,46.95 v -0.1 L 6,46.8 V 46.7 46.6 46.55 46.45 46.4 L 5.95,46.3 v -0.05 -0.1 L 6,46.05 V 46 45.9 45.85 45.75 45.7 45.6 l 0.05,-0.05 v -0.1 -0.1 L 6.1,45.3 V 45.2 L 6.15,45.15 V 45.05 45 44.9 44.8 44.75 44.65 44.6 44.5 44.45 44.35 44.3 L 6.2,44.2 v -0.1 -0.05 -0.1 -0.05 -0.1 -0.05 -0.1 -0.1 L 6.25,43.5 v -0.1 -0.05 -0.1 L 6.3,43.2 v -0.1 -0.05 -0.1 l 0.05,-0.1 V 42.8 42.7 42.65 42.55 42.5 42.4 L 6.4,42.3 V 42.25 42.15 42.1 42 L 6.45,41.95 V 41.85 41.8 41.7 L 6.5,41.6 v -0.05 l 0.05,-0.1 V 41.4 41.3 L 6.6,41.25 V 41.15 41.05 41 40.9 40.85 40.75 40.7 l 0.05,-0.1 v -0.05 -0.1 -0.1 -0.05 -0.1 -0.05 L 6.7,40.05 V 40 39.9 39.8 39.75 39.65 39.6 39.5 l 0.05,-0.05 v -0.1 -0.05 -0.1 -0.1 -0.05 -0.1 -0.05 -0.1 -0.05 l 0.05,-0.1 v -0.1 -0.05 -0.1 -0.05 -0.1 -0.05 -0.1 -0.05 l 0.05,-0.1 v -0.1 -0.05 -0.1 -0.05 -0.1 -0.05 -0.1 -0.1 -0.05 -0.1 L 6.9,37.1 V 37 36.95 36.85 36.8 36.7 36.6 36.55 36.45 36.4 36.3 36.25 36.15 36.05 36 35.9 35.85 35.75 35.7 35.6 35.55 35.45 35.35 35.3 35.2 35.15 35.05 35 34.9 34.8 34.75 34.65 34.6 34.5 34.45 34.35 34.3 34.2 34.1 34.05 33.95 33.9 33.8 33.75 33.65 33.55 33.5 33.4 33.35 33.25 33.2 33.1 33.05 32.95 32.85 32.8 32.7 32.65 32.55 32.5 32.4 32.3 32.25 32.15 32.1 32 31.95 31.85 31.75 31.7 31.6 31.55 l 0.05,-0.1 V 31.4 31.3 31.25 31.15 31.05 31 30.9 30.85 30.75 30.7 30.6 30.5 30.45 30.35 30.3 30.2 30.15 30.05 30 29.9 29.8 29.75 29.65 29.6 29.5 29.45 29.35 29.25 29.2 29.1 L 7,29.05 V 28.95 28.9 28.8 28.75 28.65 28.55 28.5 28.4 28.35 28.25 28.2 28.1 28 27.95 27.85 27.8 27.7 27.65 27.55 27.5 L 7.05,27.4 V 27.3 27.25 27.15 27.1 27 26.95 26.85 26.75 26.7 26.6 26.55 26.45 26.4 26.3 26.25 26.15 26.05 26 25.9 25.85 25.75 25.7 25.6 25.5 25.45 25.35 25.3 25.2 25.15 25.05 25 24.9 24.8 24.75 24.65 24.6 24.5 24.45 24.35 24.25 24.2 24.1 24.05 23.95 23.9 23.8 23.75 23.65 23.55 23.5 23.4 23.35 23.25 23.2 23.1 23 22.95 22.85 22.8 22.7 22.65 22.55 22.5 22.4 22.3 22.25 22.15 22.1 22 21.95 21.85 21.75 21.7 21.6 21.55 21.45 21.4 21.3 21.25 21.15 21.05 21 20.9 20.85 20.75 20.7 20.6 20.5 20.45 20.35 20.3 20.2 20.15 20.05 20 19.9 19.8 19.75 19.65 19.6 19.5 19.45 19.35 19.25 19.2 19.1 19.05 18.95 18.9 18.8 18.75 18.65 18.55 18.5 18.4 18.35 18.25 18.2 18.1 18 17.95 17.85 17.8 17.7 17.65 17.55 17.45 17.4 17.3 17.25 17.15 17.1 17 16.95 16.85 16.75 16.7 16.6 16.55 16.45 16.4 16.3 16.2 16.15 16.05 16 15.9 15.85 15.75 15.7 15.6 15.5 15.45 15.35 15.3 15.2 15.15 15.05 L 7.1,14.95 V 14.9 14.8 14.75 14.65 14.6 14.5 14.45 14.35 14.25 14.2 14.1 14.05 13.95 13.9 13.8 13.7 13.65 13.55 13.5 13.4 13.35 13.25 13.2 13.1 13 12.95 12.85 12.8 12.7 12.65 12.55 12.45 12.4 12.3 12.25 12.15 12.1 12 11.95 11.85 11.75 11.7 11.6 11.55 11.45 11.4 11.3 11.2 11.15 11.05 11 10.9 10.85 10.75 10.7 10.6 10.5 10.45 10.35 10.3 10.2 10.15 10.05 9.95 9.9 9.8 9.75 9.65 9.6 9.5 9.45 9.35 9.25 9.2 9.1 9.05 8.95 8.9 8.8 8.7 8.65 8.55 8.5 8.4 8.35 8.25 8.2 L 7.15,8.1 V 8 7.95 7.85 7.8 7.7 7.65 7.55 7.45 7.4 7.3 7.25 7.15 7.1 7 6.95 6.85 6.75 6.7 6.6 6.55 6.45 6.4 6.3 6.2 6.15 6.05 6 5.9 5.85 5.75 5.7 5.6 L 7.2,5.5 V 5.45 5.35 5.3 5.2 5.15 5.05 4.95 4.9 4.8 4.75 4.65 4.6 4.5 4.4 4.35 4.25 4.2 4.1 4.05 3.95 3.9 3.8 3.7 3.65 3.55 3.5 3.4 3.35 L 7.25,3.25 V 3.15 3.1 3 2.95 2.85 2.8 2.7 2.65 2.55 2.45 2.4 2.3 2.25 L 7.3,2.15 7.25,2.1 V 2 1.9 L 7.2,1.85 7.25,1.75 V 1.7 1.6 L 7.3,1.55 7.35,1.45 V 1.4 L 7.4,1.3 V 1.2 L 7.45,1.15 V 1.05 1 L 7.5,0.9 7.55,0.85 7.65,0.75 7.7,0.7 7.75,0.65 h 0.2 M 4.45,0.4 4.65,0.45 4.8,0.5 4.85,0.6 4.9,0.65 4.95,0.75 V 0.85 0.9 1 L 5,1.05 V 1.15 1.2 1.3 1.4 1.45 1.55 1.6 1.7 1.75 1.85 1.9 2 2.1 2.15 2.25 2.3 2.4 2.45 2.55 2.65 2.7 2.8 2.85 2.95 3 3.1 3.15 l 0.05,0.1 v 0.1 0.05 0.1 0.05 0.1 0.05 0.1 0.1 0.05 0.1 0.05 0.1 0.05 0.1 0.05 0.1 0.1 0.05 0.1 0.05 0.1 0.05 0.1 0.1 0.05 0.1 L 5.1,5.35 V 5.45 5.5 5.6 5.7 5.75 5.85 5.9 6 6.05 6.15 6.2 L 5.15,6.3 V 6.4 6.45 6.55 6.6 6.7 6.75 6.85 6.95 7 L 5.2,7.1 v 0.05 0.1 0.05 0.1 0.05 0.1 0.1 L 5.25,7.7 V 7.8 7.85 7.95 8 8.1 L 5.3,8.2 V 8.25 8.35 8.4 L 5.35,8.5 V 8.55 8.65 8.7 8.8 8.9 8.95 9.05 9.1 9.2 L 5.4,9.25 v 0.1 0.1 0.05 0.1 0.05 0.1 L 5.45,9.8 v 0.1 0.05 0.1 0.1 0.05 0.1 0.05 0.1 0.05 0.1 0.1 0.05 l 0.05,0.1 v 0.05 0.1 0.05 0.1 0.05 0.1 0.1 0.05 l 0.05,0.1 v 0.05 0.1 0.05 l 0.05,0.1 v 0.1 0.05 0.1 0.05 0.1 l 0.05,0.05 v 0.1 0.05 0.1 0.1 0.05 0.1 l 0.05,0.05 v 0.1 0.05 0.1 0.1 l 0.05,0.05 v 0.1 0.05 0.1 0.05 0.1 0.05 0.1 0.1 0.05 l 0.05,0.1 v 0.05 0.1 0.05 0.1 0.1 0.05 0.1 0.05 0.1 0.05 0.1 0.05 0.1 0.1 0.05 0.1 0.05 0.1 l 0.05,0.05 v 0.1 0.1 0.05 0.1 0.05 0.1 0.05 0.1 0.05 0.1 0.1 0.05 0.1 L 5.9,16.6 v 0.1 0.05 0.1 0.1 0.05 0.1 0.05 0.1 0.05 0.1 0.05 0.1 0.1 0.05 0.1 0.05 0.1 0.05 0.1 0.1 0.05 0.1 0.05 0.1 0.05 0.1 0.1 0.05 0.1 0.05 0.1 0.05 0.1 0.05 0.1 0.1 0.05 0.1 0.05 0.1 0.05 l -0.05,0.1 v 0.1 0.05 0.1 0.05 0.1 L 5.8,20.35 v 0.1 0.05 l -0.05,0.1 v 0.1 L 5.7,20.75 v 0.1 L 5.65,20.9 5.6,21 5.55,21.05 5.5,21.15 5.45,21.25 5.35,21.3 5.3,21.4 5.25,21.45 5.15,21.55 5.1,21.6 4.95,21.7 4.85,21.75 4.7,21.8 4.6,21.85 4.4,21.9 4.1,21.8 3.85,21.75 3.75,21.65 3.65,21.6 3.6,21.5 3.5,21.45 3.45,21.35 3.4,21.3 3.3,21.2 3.25,21.1 3.2,21.05 3.15,20.95 3.1,20.9 3.05,20.8 V 20.75 L 3,20.65 v -0.1 L 2.95,20.5 v -0.1 -0.05 -0.1 L 2.9,20.2 V 20.1 20.05 19.95 19.85 19.8 19.7 19.65 19.55 19.5 19.4 19.3 19.25 19.15 19.1 19 18.95 18.85 18.8 18.7 18.6 18.55 18.45 18.4 18.3 18.25 18.15 18.05 18 17.9 17.85 17.75 17.7 17.6 17.55 17.45 17.35 17.3 17.2 17.15 17.05 17 16.9 16.8 16.75 16.65 16.6 16.5 16.45 16.35 16.3 16.2 16.1 16.05 15.95 L 2.95,15.9 v -0.1 -0.05 -0.1 -0.1 -0.05 -0.1 -0.05 -0.1 -0.05 -0.1 -0.05 L 3,14.95 V 14.85 14.8 14.7 14.65 14.55 14.5 14.4 14.3 14.25 14.15 14.1 14 13.95 13.85 13.8 13.7 13.6 13.55 13.45 L 3.05,13.4 V 13.3 13.25 13.15 13.05 13 L 3.1,12.9 v -0.05 -0.1 -0.05 -0.1 -0.05 l 0.05,-0.1 v -0.1 -0.05 -0.1 -0.05 -0.1 L 3.2,12 v -0.1 -0.1 -0.05 -0.1 L 3.25,11.6 V 11.5 11.45 11.35 11.3 11.2 L 3.3,11.1 v -0.05 -0.1 -0.05 -0.1 -0.05 -0.1 -0.1 -0.05 -0.1 L 3.35,10.35 V 10.25 10.2 10.1 10.05 9.95 9.85 9.8 9.7 9.65 9.55 L 3.4,9.5 V 9.4 9.3 9.25 9.15 9.1 9 8.95 L 3.45,8.85 V 8.75 8.7 8.6 8.55 8.45 L 3.5,8.4 V 8.3 8.25 8.15 8.05 8 7.9 L 3.55,7.85 V 7.75 7.7 7.6 7.5 7.45 7.35 7.3 L 3.6,7.2 V 7.15 7.05 7 6.9 6.8 6.75 L 3.65,6.65 V 6.6 6.5 6.45 6.35 6.25 6.2 6.1 6.05 5.95 5.9 5.8 L 3.7,5.75 V 5.65 5.55 5.5 5.4 5.35 5.25 5.2 5.1 5 4.95 4.85 L 3.75,4.8 V 4.7 4.65 4.55 4.5 4.4 4.3 4.25 4.15 4.1 4 3.95 3.85 3.75 3.7 3.6 3.55 3.45 3.4 3.3 3.25 3.15 3.05 3 2.9 2.85 2.75 2.7 2.6 2.5 2.45 2.35 2.3 2.2 2.15 2.05 2 1.9 1.8 1.75 1.65 1.6 1.5 1.45 1.35 1.25 L 3.8,1.2 V 1.1 1.05 0.95 0.9 L 3.85,0.8 V 0.75 L 3.95,0.65 4,0.55 4.1,0.5 4.25,0.45 4.3,0.4 h 0.15 m -1.1,32.5 0.2,0.05 0.1,0.1 0.05,0.1 v 0.05 l 0.05,0.1 v 0.05 0.1 L 3.8,33.5 v 0.1 0.1 0.05 0.1 0.05 0.1 0.05 0.1 0.05 0.1 0.1 0.05 0.1 0.05 0.1 0.05 0.1 0.1 0.05 0.1 0.05 0.1 0.05 0.1 0.05 0.1 0.1 0.05 0.1 l 0.05,0.05 v 0.1 0.05 0.1 0.1 0.05 0.1 0.05 0.1 0.05 0.1 0.05 0.1 0.1 0.05 0.1 0.05 0.1 0.05 0.1 0.1 0.05 0.1 0.05 0.1 0.05 0.1 0.05 0.1 0.1 L 3.9,38.2 v 0.1 0.05 0.1 0.05 0.1 0.1 0.05 0.1 0.05 0.1 0.05 0.1 0.05 0.1 0.1 0.05 0.1 0.05 0.1 0.05 0.1 0.1 0.05 0.1 0.05 0.1 0.05 0.1 0.05 0.1 0.1 0.05 0.1 0.05 0.1 0.05 0.1 0.1 0.05 0.1 0.05 0.1 0.05 0.1 0.05 0.1 0.1 0.05 0.1 l 0.05,0.05 v 0.1 0.05 0.1 0.1 0.05 0.1 0.05 0.1 0.05 0.1 0.1 0.05 0.1 0.05 0.1 0.05 0.1 0.05 0.1 0.1 0.05 0.1 0.05 0.1 0.05 0.1 0.1 L 4,44.3 v 0.1 0.05 0.1 0.05 0.1 0.05 0.1 0.1 0.05 0.1 0.05 0.1 0.05 0.1 l 0.05,0.1 v 0.05 0.1 0.05 l 0.05,0.1 v 0.05 0.1 0.05 0.1 0.1 0.05 l 0.05,0.1 v 0.05 0.1 0.05 0.1 0.1 0.05 0.1 0.05 0.1 0.05 0.1 l 0.05,0.05 v 0.1 0.1 0.05 0.1 0.05 0.1 0.05 0.1 0.1 0.05 0.1 0.05 0.1 l 0.05,0.05 v 0.1 0.05 0.1 0.1 0.05 l 0.05,0.1 v 0.05 0.1 0.05 0.1 l 0.05,0.1 v 0.05 0.1 0.05 l 0.05,0.1 v 0.05 0.1 0.05 0.1 0.1 0.05 0.1 l 0.05,0.05 v 0.1 0.05 0.1 0.1 0.05 l 0.05,0.1 v 0.05 0.1 0.05 0.1 0.05 0.1 0.1 0.05 0.1 0.05 0.1 0.05 l 0.05,0.1 v 0.1 0.05 0.1 0.05 0.1 0.05 0.1 0.05 0.1 0.1 0.05 0.1 0.05 0.1 L 4.6,52.8 v 0.1 0.1 0.05 0.1 0.05 0.1 0.05 0.1 0.05 0.1 0.1 0.05 0.1 0.05 0.1 0.05 0.1 0.1 0.05 0.1 l 0.05,0.05 v 0.1 0.05 0.1 0.05 0.1 0.1 0.05 0.1 0.05 0.1 0.05 0.1 0.1 0.05 0.1 0.05 0.1 0.05 0.1 0.1 0.05 0.1 0.05 0.1 0.05 0.1 0.05 0.1 0.1 0.05 0.1 0.05 0.1 0.05 0.1 0.1 0.05 0.1 L 4.6,57.5 v 0.1 l -0.05,0.05 v 0.1 L 4.5,57.8 4.45,57.9 4.4,58 4.35,58.05 4.3,58.15 4.2,58.2 4.1,58.3 3.95,58.35 3.75,58.45 3.6,58.5 3.35,58.55 3.1,58.5 2.9,58.45 2.7,58.35 2.6,58.3 2.5,58.2 2.4,58.15 2.35,58.05 2.3,58 2.25,57.9 2.15,57.8 V 57.75 L 2.1,57.65 2.05,57.6 V 57.5 57.45 57.35 57.3 L 2,57.2 v -0.1 -0.05 -0.1 -0.05 -0.1 -0.05 -0.1 -0.1 L 2.05,56.5 V 56.4 56.35 56.25 56.2 56.1 56.05 55.95 55.85 55.8 55.7 55.65 55.55 55.5 55.4 55.3 55.25 55.15 55.1 55 54.95 54.85 54.75 54.7 54.6 54.55 54.45 54.4 54.3 54.25 54.15 54.05 54 53.9 53.85 53.75 53.7 53.6 53.5 L 2.1,53.45 V 53.35 53.3 53.2 53.15 53.05 53 52.9 52.8 52.75 52.65 52.6 52.5 52.45 52.35 52.25 L 2.15,52.2 V 52.1 52.05 51.95 51.9 51.8 51.75 51.65 51.55 51.5 51.4 51.35 51.25 51.2 51.1 51 L 2.2,50.95 v -0.1 -0.05 -0.1 -0.05 l 0.05,-0.1 V 50.5 50.4 50.3 50.25 50.15 50.1 L 2.3,50 v -0.05 -0.1 -0.1 -0.05 -0.1 -0.05 l 0.05,-0.1 V 49.4 49.3 49.25 49.15 L 2.4,49.05 V 49 48.9 48.85 l 0.05,-0.1 V 48.7 48.6 48.5 48.45 48.35 48.3 L 2.5,48.2 V 48.15 48.05 48 47.9 47.8 47.75 47.65 47.6 47.5 47.45 47.35 47.25 L 2.55,47.2 v -0.1 -0.05 -0.1 -0.05 -0.1 -0.05 -0.1 -0.1 -0.05 -0.1 -0.05 L 2.6,46.25 V 46.2 46.1 46 45.95 45.85 45.8 45.7 L 2.65,45.65 V 45.55 45.5 45.4 45.3 45.25 45.15 45.1 45 44.95 44.85 L 2.7,44.75 V 44.7 44.6 44.55 44.45 44.4 44.3 44.25 44.15 44.05 44 43.9 43.85 43.75 43.7 43.6 43.5 43.45 43.35 L 2.75,43.3 V 43.2 43.15 43.05 43 42.9 42.8 42.75 42.65 42.6 42.5 42.45 42.35 42.25 42.2 42.1 42.05 41.95 41.9 41.8 41.7 41.65 41.55 41.5 41.4 41.35 41.25 41.2 41.1 41 40.95 40.85 40.8 40.7 40.65 40.55 40.45 40.4 40.3 40.25 40.15 40.1 40 L 2.8,39.95 V 39.85 39.75 39.7 39.6 39.55 39.45 39.4 39.3 39.2 39.15 39.05 39 38.9 38.85 38.75 38.7 38.6 38.5 38.45 38.35 38.3 38.2 l 0.05,-0.05 v -0.1 -0.1 -0.05 -0.1 -0.05 -0.1 -0.05 -0.1 -0.05 -0.1 -0.1 V 37.2 37.1 37.05 36.95 36.9 36.8 36.7 36.65 36.55 36.5 36.4 36.35 36.25 36.2 36.1 36 35.95 35.85 L 2.9,35.8 V 35.7 35.65 35.55 35.45 35.4 35.3 35.25 35.15 35.1 35 34.95 34.85 34.75 34.7 34.6 34.55 34.45 34.4 34.3 34.2 34.15 34.05 34 33.9 33.85 33.75 33.7 33.6 33.5 L 2.95,33.45 V 33.35 33.3 33.2 L 3,33.15 l 0.05,-0.1 0.1,-0.1 h 0.2 V 32.9 m 24.2,-4.65 0.1,-0.15 -0.45,-0.15 -0.45,-0.2 -0.5,-0.6 L 25.9,26.7 25.25,25.6 25.15,25.25 25,24.9 24.95,24.65 q -0.8,0.05 -1.35,0.6 -0.7,0.6 -0.85,1.55 l 0.05,1 q 0.3,0.9 1.05,1.4 0.75,0.55 1.7,0.4 1.4,-0.1 2,-1.35 m -1.2,3.15 -1.2,-0.3 -0.55,-0.5 -0.7,-0.1 q -0.35,0.2 -0.25,0.65 l 0.3,0.7 0.9,1 0.7,0.35 0.55,1.05 0.8,0.6 1,-0.15 0.35,-0.75 -0.05,-0.4 1.6,-0.6 1.55,-0.95 q 1.35,1.1 4,1 h 0.3 l 0.15,0.75 q 0.3,0.8 1,0.7 0.35,-0.05 0.7,-0.45 l 0.4,-0.7 0.25,-0.95 0.4,-0.25 0.55,-0.75 q 0.25,-0.5 -0.15,-0.9 L 38,30.4 37.15,30.8 35.8,31 q -1.95,0.2 -3.15,-0.65 -0.8,-0.6 -1,-0.65 -0.55,-0.1 -1.5,0.7 -1,0.8 -1.85,1 -0.75,0.2 -1.95,0"
         fill="#999999"
         fill-rule="evenodd"
         stroke="none"
         id="path4" />
      <path
         d="m 39.75,24.15 1.15,0.8 q 0.5,0.55 0.6,1.3 0.1,0.8 -0.3,1.45 -0.3,0.6 -0.95,1 -0.7,0.45 -1.4,0.4 -0.75,-0.05 -1.35,-0.5 -0.6,-0.45 -0.85,-1.1 l 0.3,-0.2 0.7,-0.7 0.25,-0.45 1,-1.95 0.05,-0.2 0.8,0.15 m -13.4,7.25 q 1.2,0.2 1.95,0 0.85,-0.2 1.85,-1 0.95,-0.8 1.5,-0.7 0.2,0.05 1,0.65 1.2,0.85 3.15,0.65 l 1.35,-0.2 0.85,-0.4 0.95,0.05 q 0.4,0.4 0.15,0.9 l -0.55,0.75 -0.4,0.25 -0.25,0.95 -0.4,0.7 q -0.35,0.4 -0.7,0.45 -0.7,0.1 -1,-0.7 L 35.65,33 h -0.3 q -2.65,0.1 -4,-1 l -1.55,0.95 -1.6,0.6 0.05,0.4 -0.35,0.75 -1,0.15 -0.8,-0.6 -0.55,-1.05 -0.7,-0.35 -0.9,-1 -0.3,-0.7 Q 23.55,30.7 23.9,30.5 l 0.7,0.1 0.55,0.5 1.2,0.3 m 1.2,-3.15 q -0.6,1.25 -2,1.35 -0.95,0.15 -1.7,-0.4 -0.75,-0.5 -1.05,-1.4 l -0.05,-1 q 0.15,-0.95 0.85,-1.55 0.55,-0.55 1.35,-0.6 l 0.05,0.25 0.15,0.35 0.1,0.35 0.65,1.1 0.35,0.45 0.5,0.6 0.45,0.2 0.45,0.15 -0.1,0.15"
         fill="#ffffff"
         fill-rule="evenodd"
         stroke="none"
         id="path5" />
      <path
         d="m 11.5,-0.9 v 0.05 0.1 0.05 0.1 0.1 0.05 0.1 l 0.05,0.05 v 0.1 0.05 0.1 L 11.6,0 v 0.1 0.1 l 0.05,0.05 v 0.1 0.05 0.1 0.05 0.1 l 0.05,0.1 v 0.05 0.1 0.05 0.1 l 0.05,0.05 v 0.1 l 0.05,0.05 v 0.1 0.1 0.05 l 0.05,0.1 V 1.65 1.75 1.8 1.9 2 2.05 l 0.05,0.1 V 2.2 2.3 l 0.05,0.05 v 0.1 L 12,2.5 12.05,2.6 12.1,2.7 v 0.05 l 0.05,0.1 0.05,0.05 V 3 3.05 l 0.05,0.1 v 0.1 0.05 0.1 l 0.05,0.05 v 0.1 0.05 0.1 l 0.05,0.05 V 3.85 3.95 4 4.1 l 0.05,0.05 v 0.1 0.05 0.1 l 0.05,0.1 0.05,0.05 v 0.1 L 12.55,4.7 V 4.8 L 12.6,4.85 V 4.95 5 5.1 l 0.05,0.1 v 0.05 0.1 0.05 0.1 0.05 0.1 l 0.05,0.1 v 0.05 0.1 0.05 0.1 0.05 0.1 0.05 0.1 0.1 L 12.65,6.5 V 6.6 6.65 L 12.6,6.75 V 6.8 6.9 L 12.55,7 12.5,7.05 v 0.1 L 12.45,7.2 12.4,7.3 V 7.35 L 12.35,7.45 12.3,7.5 12.25,7.6 12.2,7.7 12.1,7.75 12.05,7.85 11.95,7.9 11.85,8 11.8,8.05 11.7,8.15 11.55,8.25 11.4,8.3 11.3,8.4 11.1,8.45 10.95,8.5 10.85,8.55 h -0.1 L 10.6,8.6 H 10.25 9.9 L 9.75,8.55 H 9.65 L 9.45,8.5 9.25,8.4 9.1,8.35 8.95,8.25 8.85,8.2 8.75,8.1 8.65,8 8.55,7.95 8.5,7.85 8.4,7.8 8.35,7.7 8.25,7.65 8.2,7.55 8.15,7.45 8.1,7.4 8.05,7.3 V 7.25 L 8,7.15 7.95,7.1 V 7 L 7.9,6.95 V 6.85 L 7.85,6.75 V 6.7 6.6 6.55 L 7.8,6.45 V 6.4 6.3 6.2 L 7.75,6.15 V 6.05 6 L 7.8,5.9 V 5.85 5.75 5.7 L 7.85,5.6 V 5.5 5.45 5.35 5.3 5.2 5.15 L 7.9,5.05 V 4.95 4.9 4.8 L 7.95,4.75 V 4.65 L 8,4.6 V 4.5 L 8.05,4.4 8.1,4.35 V 4.25 4.2 4.1 L 8.15,4.05 V 3.95 3.9 3.8 3.7 L 8.2,3.65 V 3.55 3.5 3.4 L 8.25,3.35 V 3.25 3.15 3.1 L 8.3,3 V 2.95 2.85 L 8.35,2.8 V 2.7 L 8.4,2.65 8.45,2.55 8.5,2.45 8.55,2.4 V 2.3 L 8.6,2.25 V 2.15 2.1 L 8.65,2 V 1.9 1.85 1.75 1.7 1.6 1.55 L 8.7,1.45 V 1.4 1.3 1.2 L 8.75,1.15 V 1.05 L 8.8,1 V 0.9 0.85 0.75 0.65 L 8.85,0.6 V 0.5 0.45 0.35 0.3 0.2 L 8.9,0.15 v -0.1 -0.1 L 8.95,-0.1 v -0.1 -0.05 -0.1 L 9,-0.4 v -0.1 -0.1 -0.05 -0.1 -0.05 -0.1 h 2.5 m 9.15,0 0.05,0.05 v 0.1 0.05 0.1 0.1 l 0.05,0.05 v 0.1 0.05 0.1 l 0.05,0.05 V -0.05 0 0.1 0.2 l 0.05,0.05 0.05,0.1 V 0.4 l 0.05,0.1 V 0.55 L 21,0.65 v 0.1 l 0.05,0.05 v 0.1 0.05 l 0.05,0.1 V 1.1 l 0.05,0.1 v 0.05 0.1 l 0.05,0.1 V 1.5 1.6 l 0.05,0.05 v 0.1 L 21.3,1.8 V 1.9 L 21.35,2 v 0.05 l 0.05,0.1 V 2.2 2.3 2.35 l 0.05,0.1 V 2.5 L 21.5,2.6 V 2.7 2.75 2.85 2.9 3 l 0.05,0.05 v 0.1 0.1 0.05 0.1 0.05 0.1 L 21.6,3.6 V 3.7 3.75 3.85 3.95 4 4.1 4.15 4.25 4.3 4.4 4.5 l 0.05,0.05 V 4.65 4.7 4.8 4.85 4.95 5 5.1 5.2 l 0.05,0.05 v 0.1 0.05 0.1 0.05 0.1 0.1 0.05 0.1 0.05 0.1 0.05 0.1 0.05 0.1 0.1 0.05 0.1 0.05 0.1 0.05 l 0.05,0.1 V 7 7.05 7.15 7.2 7.3 7.35 7.45 7.5 7.6 7.7 7.75 7.85 7.9 8 8.05 8.15 8.25 8.3 8.4 8.45 8.55 8.6 8.7 8.75 8.85 8.95 9 9.1 9.15 9.25 9.3 9.4 9.5 9.55 l 0.05,0.1 v 0.05 0.1 0.05 0.1 0.1 0.05 0.1 0.05 0.1 0.05 0.1 0.05 0.1 0.1 0.05 l -0.05,0.1 v 0.05 0.1 0.05 0.1 0.1 l -0.05,0.05 v 0.1 0.05 l -0.05,0.1 v 0.05 l -0.05,0.1 -0.05,0.05 v 0.1 l -0.05,0.1 -0.05,0.05 -0.05,0.1 -0.05,0.05 -0.05,0.1 -0.05,0.05 -0.1,0.1 -0.05,0.1 -0.1,0.05 -0.05,0.1 -0.15,0.05 -0.1,0.1 -0.1,0.05 -0.15,0.1 -0.15,0.05 -0.25,0.1 -0.15,0.05 -0.15,0.05 H 19.4 19.05 L 18.9,13.2 18.7,13.15 18.5,13.05 18.3,13 l -0.15,-0.1 -0.1,-0.05 -0.1,-0.1 -0.1,-0.05 -0.1,-0.1 -0.1,-0.05 -0.05,-0.1 -0.05,-0.1 L 17.5,12.3 17.4,12.2 17.35,12.15 17.3,12.05 V 12 L 17.25,11.9 17.2,11.8 v -0.05 l -0.05,-0.1 V 11.6 L 17.1,11.5 17.05,11.45 V 11.35 11.3 L 17,11.2 V 11.1 11.05 10.95 10.9 10.8 10.75 10.65 10.55 10.5 10.4 10.35 10.25 10.2 10.1 10.05 9.95 9.85 9.8 9.7 9.65 9.55 9.5 9.4 9.3 9.25 9.15 9.1 9 8.95 8.85 8.75 8.7 8.6 8.55 8.45 L 17.05,8.4 V 8.3 8.25 8.15 8.05 8 7.9 7.85 7.75 7.7 7.6 7.5 7.45 7.35 7.3 7.2 7.15 7.05 7 6.9 6.8 6.75 6.65 6.6 6.5 6.45 L 17.1,6.35 V 6.25 6.2 6.1 6.05 5.95 5.9 5.8 5.75 5.65 5.55 5.5 5.4 5.35 5.25 5.2 L 17.15,5.1 V 5 4.95 4.85 4.8 4.7 4.65 4.55 4.5 L 17.2,4.4 V 4.3 4.25 4.15 4.1 4 3.95 3.85 3.75 3.7 3.6 L 17.25,3.55 V 3.45 3.4 3.3 3.25 3.15 3.05 3 L 17.3,2.9 V 2.85 2.75 2.7 2.6 2.5 L 17.35,2.45 V 2.35 2.3 2.2 L 17.4,2.15 V 2.05 2 L 17.45,1.9 V 1.8 L 17.5,1.75 V 1.65 L 17.55,1.6 V 1.5 L 17.6,1.45 V 1.35 1.25 L 17.65,1.2 V 1.1 L 17.7,1.05 V 0.95 0.9 L 17.75,0.8 17.8,0.75 V 0.65 0.55 L 17.85,0.5 V 0.4 L 17.9,0.35 17.95,0.25 V 0.2 0.1 0 L 18,-0.05 v -0.1 -0.05 -0.1 -0.05 l 0.05,-0.1 V -0.5 -0.6 -0.7 l 0.05,-0.05 v -0.1 -0.05 h 2.55 m 7.15,0 v 0.05 0.1 0.05 0.1 0.1 0.05 0.1 l 0.05,0.05 v 0.1 0.05 0.1 V 0 0.1 0.2 0.25 0.35 0.4 0.5 0.55 l 0.05,0.1 v 0.1 0.05 0.1 0.05 0.1 0.05 0.1 l 0.05,0.05 v 0.1 L 28,1.45 V 1.5 1.6 1.65 1.75 1.8 l 0.05,0.1 V 2 2.05 2.15 2.2 2.3 l 0.05,0.05 v 0.1 0.05 0.1 l 0.05,0.1 V 2.75 2.85 2.9 L 28.2,3 v 0.05 0.1 l 0.05,0.1 V 3.3 l 0.05,0.1 0.05,0.05 v 0.1 0.05 0.1 0.05 l 0.05,0.1 V 3.95 4 l 0.05,0.1 v 0.05 l 0.05,0.1 V 4.3 l 0.05,0.1 v 0.1 0.05 0.1 L 28.6,4.7 V 4.8 4.85 4.95 5 5.1 5.2 l 0.05,0.05 v 0.1 0.05 0.1 0.05 0.1 0.1 0.05 0.1 0.05 0.1 0.05 0.1 L 28.6,6.25 v 0.1 0.1 L 28.55,6.5 V 6.6 L 28.5,6.65 28.45,6.75 V 6.8 L 28.4,6.9 28.35,7 28.3,7.05 28.25,7.15 28.15,7.2 28.1,7.3 28.05,7.35 27.95,7.45 27.85,7.5 27.75,7.6 27.6,7.7 27.45,7.75 27.3,7.8 27.25,7.85 h -0.1 L 27,7.9 H 26.7 26.35 L 26.25,7.85 26.05,7.8 25.9,7.75 25.7,7.65 25.6,7.6 25.5,7.5 25.4,7.4 25.3,7.35 25.25,7.25 25.15,7.2 25.1,7.1 25.05,7.05 25,6.95 24.95,6.85 24.9,6.8 24.85,6.7 V 6.65 L 24.8,6.55 V 6.5 L 24.75,6.4 V 6.35 6.25 6.15 6.1 6 L 24.7,5.95 V 5.85 5.8 5.7 5.6 5.55 5.45 L 24.75,5.4 V 5.3 5.25 5.15 5.1 5 4.9 L 24.8,4.85 V 4.75 4.7 4.6 4.55 4.45 l 0.05,-0.1 V 4.3 L 24.9,4.2 V 4.15 4.05 L 24.95,4 V 3.9 L 25,3.85 V 3.75 3.65 3.6 L 25.05,3.5 V 3.45 3.35 L 25.1,3.3 V 3.2 3.1 L 25.15,3.05 V 2.95 L 25.2,2.9 V 2.8 L 25.25,2.75 V 2.65 2.6 2.5 L 25.3,2.4 V 2.35 2.25 2.2 2.1 L 25.35,2.05 V 1.95 1.85 1.8 1.7 1.65 L 25.4,1.55 V 1.5 1.4 1.35 1.25 l 0.05,-0.1 V 1.1 1 L 25.5,0.95 V 0.85 0.8 0.7 0.6 0.55 0.45 0.4 0.3 0.25 0.15 0.05 0 -0.1 l 0.05,-0.05 v -0.1 -0.05 -0.1 -0.05 -0.1 -0.1 L 25.6,-0.7 v -0.1 -0.1 h 2.2 m 10.35,0 v 0.1 0.05 0.1 0.05 0.1 l 0.05,0.1 v 0.05 0.1 0.05 0.1 0.05 0.1 0.1 0.05 0.1 0.05 l 0.05,0.1 V 0.5 0.6 0.65 l 0.05,0.1 V 0.85 0.9 1 1.05 1.15 1.2 1.3 l 0.05,0.1 V 1.45 1.55 1.6 1.7 1.75 1.85 1.9 2 L 38.4,2.1 V 2.15 2.25 2.3 2.4 2.45 2.55 2.65 2.7 2.8 2.85 2.95 3 3.1 l 0.05,0.05 v 0.1 0.1 0.05 0.1 0.05 0.1 0.05 0.1 0.1 0.05 0.1 0.05 0.1 l 0.05,0.05 v 0.1 0.05 0.1 0.1 l 0.05,0.05 v 0.1 0.05 0.1 0.05 0.1 0.1 L 38.6,5.2 v 0.1 0.05 0.1 0.05 0.1 0.1 0.05 l 0.05,0.1 V 5.9 6 6.05 6.15 6.2 l 0.05,0.1 v 0.1 0.05 0.1 L 38.75,6.6 V 6.7 6.75 6.85 6.95 7 7.1 L 38.8,7.15 V 7.25 7.3 7.4 7.45 7.55 7.65 7.7 7.8 7.85 7.95 8 l 0.05,0.1 v 0.1 0.05 0.1 0.05 l 0.05,0.1 v 0.05 0.1 0.05 0.1 0.1 0.05 l 0.05,0.1 V 9.1 9.2 9.25 L 39,9.35 v 0.1 0.05 0.1 0.05 0.1 0.05 0.1 0.05 0.1 0.1 0.05 l 0.05,0.1 v 0.05 0.1 0.05 0.1 0.1 0.05 0.1 0.05 0.1 0.05 0.1 l 0.05,0.05 0.05,0.1 0.05,0.1 v 0.05 l 0.05,0.1 v 0.05 l 0.05,0.1 v 0.05 0.1 l 0.05,0.1 v 0.05 0.1 0.05 l 0.05,0.1 v 0.05 0.1 0.05 0.1 0.1 0.05 0.1 0.05 0.1 0.05 0.1 0.1 0.05 0.1 l -0.05,0.05 v 0.1 l 0.05,0.05 -0.05,0.1 v 0.05 0.1 0.1 0.05 0.1 L 39.3,14.1 v 0.1 0.05 l -0.05,0.1 v 0.1 l -0.05,0.05 -0.05,0.1 -0.05,0.05 v 0.1 l -0.05,0.05 -0.05,0.1 -0.05,0.05 -0.05,0.1 -0.1,0.1 -0.1,0.05 -0.1,0.1 -0.1,0.05 -0.1,0.1 -0.15,0.05 -0.2,0.1 -0.1,0.05 -0.1,0.05 H 37.7 L 37.4,15.75 37.1,15.7 H 36.95 L 36.75,15.65 36.6,15.55 36.45,15.45 36.3,15.4 36.2,15.3 36.1,15.25 36,15.15 35.95,15.1 35.85,15 35.8,14.9 35.75,14.85 35.7,14.75 35.65,14.7 35.6,14.6 35.55,14.55 v -0.1 L 35.5,14.4 v -0.1 l -0.05,-0.1 v -0.05 -0.1 L 35.4,14 v -0.1 -0.05 -0.1 -0.1 -0.05 -0.1 -0.05 -0.1 -0.05 -0.1 -0.1 -0.05 l -0.05,-0.1 V 12.9 12.8 12.75 12.65 12.6 12.5 l 0.05,-0.1 v -0.05 -0.1 -0.05 -0.1 -0.05 l 0.05,-0.1 v -0.1 -0.05 l 0.05,-0.1 v -0.05 -0.1 l 0.05,-0.05 v -0.1 l 0.05,-0.05 0.05,-0.1 v -0.1 L 35.7,11.1 35.75,11 v -0.05 -0.1 -0.05 -0.1 -0.1 -0.05 -0.1 -0.05 -0.1 -0.05 l 0.05,-0.1 V 10.1 10 9.9 9.85 9.75 9.7 9.6 9.55 9.45 9.35 9.3 L 35.85,9.2 V 9.15 9.05 9 L 35.9,8.9 V 8.85 8.75 8.65 8.6 8.5 L 35.95,8.45 V 8.35 8.3 8.2 8.1 8.05 7.95 7.9 7.8 7.75 7.65 7.6 7.5 7.4 L 36,7.35 V 7.25 7.2 7.1 7.05 6.95 6.85 L 36.05,6.8 V 6.7 6.65 6.55 6.5 6.4 L 36.1,6.35 V 6.25 6.15 6.1 L 36.15,6 V 5.95 5.85 5.8 5.7 5.6 5.55 5.45 L 36.2,5.4 V 5.3 5.25 5.15 5.1 5 4.9 4.85 l 0.05,-0.1 V 4.7 4.6 4.55 4.45 L 36.3,4.35 V 4.3 4.2 4.15 4.05 4 3.9 3.85 3.75 l 0.05,-0.1 V 3.6 3.5 3.45 3.35 3.3 3.2 3.1 3.05 2.95 2.9 2.8 2.75 2.65 2.6 2.5 L 36.4,2.4 V 2.35 2.25 2.2 2.1 2.05 l 0.05,-0.1 V 1.85 1.8 1.7 1.65 1.55 1.5 1.4 1.35 L 36.5,1.25 V 1.15 1.1 1 0.95 0.85 0.8 L 36.55,0.7 V 0.6 0.55 0.45 0.4 0.3 0.25 0.15 0.05 0 -0.1 l 0.05,-0.05 v -0.1 -0.05 -0.1 -0.05 -0.1 -0.1 -0.05 -0.1 l 0.05,-0.05 V -0.9 h 1.5 m 9.2,0 v 0.05 l 0.05,0.1 v 0.05 0.1 0.1 0.05 l 0.05,0.1 v 0.05 0.1 0.05 0.1 V 0 l 0.05,0.1 v 0.1 0.05 0.1 0.05 0.1 0.05 0.1 l 0.05,0.1 v 0.05 0.1 0.05 0.1 0.05 0.1 0.05 0.1 l 0.05,0.1 V 1.5 1.6 1.65 l 0.05,0.1 V 1.8 1.9 2 2.05 2.15 2.2 2.3 2.35 2.45 L 47.7,2.5 V 2.6 2.7 2.75 2.85 2.9 3 3.05 3.15 3.25 3.3 3.4 l 0.05,0.05 V 3.55 3.6 3.7 3.75 3.85 3.95 4 4.1 L 47.8,4.15 V 4.25 4.3 4.4 4.5 4.55 4.65 4.7 4.8 4.85 4.95 5 l 0.05,0.1 v 0.1 0.05 0.1 0.05 0.1 0.05 0.1 0.1 0.05 0.1 l 0.05,0.05 v 0.1 0.05 0.1 0.05 0.1 l 0.05,0.1 V 6.5 6.6 6.65 L 48,6.75 V 6.8 6.9 7 l 0.05,0.05 v 0.1 0.05 0.1 0.05 0.1 L 48.1,7.5 V 7.6 7.7 7.75 7.85 7.9 8 8.05 8.15 8.25 L 48.15,8.3 V 8.4 8.45 8.55 8.6 8.7 8.75 8.85 8.95 9 9.1 9.15 l 0.05,0.1 0.05,0.05 v 0.1 l 0.05,0.1 v 0.05 0.1 0.05 0.1 l 0.05,0.05 v 0.1 0.1 0.05 0.1 0.05 l 0.05,0.1 v 0.05 0.1 0.05 0.1 l 0.05,0.1 v 0.05 0.1 0.05 l 0.05,0.1 v 0.05 l 0.05,0.1 0.05,0.1 v 0.05 l 0.05,0.1 0.05,0.05 v 0.1 0.05 l 0.05,0.1 v 0.05 0.1 L 48.8,12 v 0.05 0.1 0.05 l 0.05,0.1 v 0.05 0.1 0.1 0.05 0.1 0.05 0.1 0.05 0.1 l -0.05,0.05 v 0.1 l -0.05,0.1 v 0.05 l -0.05,0.1 v 0.05 l -0.05,0.1 -0.05,0.05 v 0.1 l -0.05,0.1 -0.05,0.05 -0.05,0.1 -0.05,0.05 -0.05,0.1 -0.1,0.05 -0.1,0.1 -0.1,0.05 -0.1,0.1 -0.1,0.1 -0.1,0.05 -0.2,0.1 -0.15,0.05 h -0.05 l -0.1,0.05 H 47.1 L 46.8,14.8 46.5,14.75 H 46.35 L 46.15,14.7 45.95,14.6 45.8,14.55 45.65,14.45 45.55,14.4 45.45,14.3 45.4,14.2 45.3,14.15 45.25,14.05 45.2,14 45.1,13.9 45.05,13.85 45,13.75 44.95,13.65 44.9,13.6 v -0.1 l -0.05,-0.05 v -0.1 L 44.8,13.3 v -0.1 -0.1 l -0.05,-0.05 v -0.1 -0.05 -0.1 -0.05 -0.1 -0.05 -0.1 -0.1 -0.05 -0.1 L 44.8,12.2 v -0.1 -0.05 -0.1 -0.1 -0.05 l 0.05,-0.1 v -0.05 -0.1 L 44.9,11.5 v -0.1 l 0.05,-0.05 v -0.1 L 45,11.15 45.05,11.1 45.1,11 v -0.05 l 0.05,-0.1 V 10.8 10.7 l 0.05,-0.1 v -0.05 -0.1 -0.05 -0.1 l 0.05,-0.05 V 10.15 10.1 10 9.9 9.85 9.75 L 45.3,9.7 V 9.6 9.55 9.45 l 0.05,-0.1 V 9.3 L 45.4,9.2 V 9.15 9.05 9 8.9 8.85 8.75 l 0.05,-0.1 V 8.6 8.5 8.45 8.35 8.3 8.2 8.1 8.05 7.95 7.9 7.8 L 45.5,7.75 V 7.65 7.6 7.5 7.4 7.35 7.25 7.2 L 45.55,7.1 V 7.05 6.95 6.85 6.8 L 45.6,6.7 V 6.65 6.55 L 45.65,6.5 V 6.4 6.35 6.25 6.15 L 45.7,6.1 V 6 5.95 l 0.05,-0.1 V 5.8 5.7 5.6 5.55 5.45 5.4 5.3 5.25 5.15 5.1 L 45.8,5 V 4.9 4.85 4.75 4.7 4.6 4.55 4.45 4.35 4.3 4.2 4.15 4.05 L 45.85,4 V 3.9 3.85 3.75 3.65 3.6 3.5 3.45 L 45.9,3.35 V 3.3 3.2 3.1 3.05 2.95 2.9 2.8 2.75 2.65 2.6 2.5 L 45.95,2.4 V 2.35 2.25 2.2 2.1 2.05 1.95 1.85 1.8 1.7 L 46,1.65 V 1.55 1.5 1.4 1.35 1.25 1.15 1.1 L 46.05,1 V 0.95 0.85 0.8 0.7 0.6 0.55 0.45 0.4 0.3 L 46.1,0.25 V 0.15 0.05 0 -0.1 -0.15 l 0.05,-0.1 v -0.05 -0.1 -0.05 -0.1 -0.1 L 46.2,-0.7 v -0.1 -0.1 h 1.15 m 8.75,0 v 0.1 l 0.05,0.1 v 0.05 0.1 0.1 0.05 0.1 0.05 l 0.05,0.1 V -0.1 0 0.05 0.15 0.25 0.3 l 0.05,0.1 V 0.45 0.55 0.6 0.7 0.8 0.85 0.95 1 1.1 l 0.05,0.05 v 0.1 0.1 l 0.05,0.05 v 0.1 0.05 0.1 L 56.4,1.7 v 0.1 0.05 0.1 l 0.05,0.1 V 2.1 2.2 2.25 2.35 L 56.5,2.4 v 0.1 l 0.05,0.1 v 0.05 0.1 0.05 l 0.05,0.1 v 0.05 l 0.05,0.1 V 3.1 l 0.05,0.1 v 0.1 l 0.05,0.05 v 0.1 0.05 l 0.05,0.1 v 0.05 0.1 l 0.05,0.1 V 3.9 4 4.05 l 0.05,0.1 V 4.2 4.3 l 0.05,0.05 v 0.1 0.1 0.05 0.1 0.05 L 57,4.85 V 4.9 L 57.05,5 v 0.1 l 0.05,0.05 v 0.1 0.05 l 0.05,0.1 v 0.05 0.1 L 57.2,5.6 v 0.1 l 0.05,0.1 v 0.05 l 0.05,0.1 V 6 6.1 l 0.05,0.05 v 0.1 0.1 0.05 0.1 0.05 l 0.05,0.1 v 0.05 0.1 0.05 0.1 0.1 0.05 l 0.05,0.1 v 0.05 0.1 0.05 0.1 0.1 0.05 0.1 0.05 0.1 0.05 0.1 0.05 0.1 0.1 0.05 0.1 0.05 0.1 0.05 0.1 0.1 L 57.4,8.9 V 9 9.05 9.15 9.2 9.3 l -0.05,0.05 v 0.1 0.1 L 57.3,9.6 V 9.7 9.75 L 57.25,9.85 57.2,9.9 V 10 l -0.05,0.1 -0.05,0.05 -0.05,0.1 v 0.05 l -0.05,0.1 -0.1,0.05 -0.05,0.1 -0.05,0.05 -0.1,0.1 -0.05,0.1 -0.1,0.05 -0.1,0.1 -0.1,0.05 -0.15,0.1 -0.15,0.05 -0.15,0.1 -0.1,0.05 -0.1,0.05 H 55.6 L 55.5,11.4 H 55.35 L 55,11.45 54.65,11.4 H 54.5 L 54.4,11.35 H 54.3 L 54.15,11.3 54,11.2 l -0.15,-0.1 -0.2,-0.05 -0.1,-0.1 -0.1,-0.05 -0.05,-0.1 -0.1,-0.05 -0.05,-0.1 -0.1,-0.1 -0.05,-0.05 -0.05,-0.1 -0.1,-0.05 -0.05,-0.1 V 10.2 L 52.85,10.1 52.8,10.05 52.75,9.95 V 9.85 L 52.7,9.8 V 9.7 L 52.65,9.65 V 9.55 9.5 9.4 L 52.6,9.3 V 9.25 9.15 9.1 9 8.95 L 52.55,8.85 V 8.75 8.7 8.6 8.55 8.45 8.4 8.3 8.25 8.15 8.05 8 7.9 7.85 7.75 7.7 7.6 7.5 7.45 7.35 7.3 7.2 7.15 L 52.6,7.05 V 7 6.9 6.8 6.75 6.65 6.6 L 52.65,6.5 V 6.45 6.35 6.25 6.2 6.1 L 52.7,6.05 V 5.95 5.9 L 52.75,5.8 V 5.75 L 52.8,5.65 V 5.55 L 52.85,5.5 V 5.4 5.35 L 52.9,5.25 V 5.2 5.1 L 52.95,5 V 4.95 L 53,4.85 V 4.8 L 53.05,4.7 V 4.65 4.55 4.5 4.4 4.3 L 53.1,4.25 V 4.15 4.1 4 3.95 3.85 L 53.15,3.75 53.2,3.7 V 3.6 3.55 l 0.05,-0.1 V 3.4 3.3 L 53.3,3.25 v -0.1 l 0.05,-0.1 V 3 L 53.4,2.9 V 2.85 l 0.05,-0.1 V 2.7 2.6 2.5 L 53.5,2.45 V 2.35 L 53.55,2.3 V 2.2 2.15 2.05 2 L 53.6,1.9 V 1.8 1.75 1.65 L 53.65,1.6 V 1.5 1.45 1.35 L 53.7,1.25 V 1.2 1.1 1.05 0.95 0.9 0.8 0.75 l 0.05,-0.1 V 0.55 0.5 0.4 0.35 0.25 0.2 0.1 0 l 0.05,-0.05 v -0.1 -0.05 l 0.05,-0.1 v -0.05 -0.1 -0.05 -0.1 -0.1 l 0.05,-0.05 v -0.1 -0.05 h 2.2 m -5.75,15.25 q 1.55,-0.8 3.4,-0.45 1.8,0.35 3.1,1.6 2.3,2.1 2.95,6.25 0.4,2.15 0.15,4.85 l -0.6,3.6 -1.3,5 Q 56,40.65 49.75,47 l -1.55,1.45 q -0.8,0.7 -1.25,0.2 -0.4,-0.4 0.15,-1.25 l 2.85,-4.35 2.7,-4.5 Q 55.5,33 54.85,28.5 54.6,26.9 54.05,25.65 53.6,24.5 53,24 52.55,23.5 51.55,23.05 L 50,22.25 q -1,-0.65 -1.55,-1.8 -0.6,-1.1 -0.5,-2.25 0.05,-1.2 0.7,-2.25 0.65,-1.05 1.7,-1.6 m 3.55,3.2 Q 53.35,17.1 52.75,17.1 52.1,17 51.6,17.5 l -0.4,0.6 q -0.25,0.65 0.05,1.35 0.25,0.7 0.85,1.05 l 0.9,0.4 0.4,0.25 v 0.2 l 0.25,0.45 0.5,0.1 0.45,-0.4 0.85,-0.55 0.8,-0.55 0.45,-1.05 q 0.05,-0.6 -0.25,-1.15 -0.6,-1.05 -1.75,-0.95 L 54,17.45 53.9,17.6 V 17.55 M 52.15,48 57.45,47.05 58.3,47 q 1.4,0.1 1.9,1.35 0.6,1.25 -0.3,2.3 l -1,0.65 q -0.65,0.2 -1.2,0 L 57.1,51.05 56,50.75 49.7,50.15 49.05,49.9 q -0.2,-0.2 -0.1,-0.5 L 49.3,49 50.3,48.65 52.15,48 m -5.9,-0.8 -0.3,0.3 -0.25,-0.2 -0.05,-0.35 -0.05,-1.6 0.65,-5.7 0.3,-0.7 q 0.4,-0.8 1.35,-0.8 0.95,-0.1 1.45,0.7 0.45,0.8 0.15,1.6 l -0.3,0.55 -0.35,1.15 -0.35,0.4 -0.15,0.55 -0.3,0.65 -1.8,3.45 M 13.75,14.35 q 1.05,0.55 1.7,1.6 0.65,1.05 0.7,2.25 0.1,1.15 -0.5,2.25 -0.55,1.15 -1.55,1.8 L 12.55,23.05 11.1,24 Q 10.5,24.5 10.05,25.65 9.5,26.9 9.25,28.5 8.6,33 11.45,38.55 l 2.7,4.5 2.85,4.35 q 0.55,0.85 0.15,1.25 -0.45,0.5 -1.25,-0.2 L 14.35,47 Q 8.1,40.65 6.05,35.2 l -1.3,-5 -0.6,-3.6 Q 3.9,23.9 4.3,21.75 4.95,17.6 7.25,15.5 q 1.3,-1.25 3.1,-1.6 1.85,-0.35 3.4,0.45 m -3.55,3.2 V 17.6 L 10.1,17.45 9.4,17.25 Q 8.25,17.15 7.65,18.2 7.35,18.75 7.4,19.35 7.45,20 7.85,20.4 l 0.8,0.55 0.85,0.55 0.45,0.4 0.5,-0.1 0.25,-0.45 v -0.2 Q 10.85,21 11.1,20.9 L 12,20.5 q 0.6,-0.35 0.85,-1.05 0.3,-0.7 0.05,-1.35 L 12.5,17.5 Q 12,17 11.35,17.1 q -0.6,0 -1.15,0.45 m 1.75,30.45 1.85,0.65 1,0.35 0.35,0.4 -0.1,0.5 -0.65,0.25 -6.3,0.6 L 7,51.05 6.4,51.3 Q 5.85,51.5 5.2,51.3 4.6,51.1 4.2,50.65 3.3,49.6 3.9,48.35 4.4,47.1 5.8,47 l 0.85,0.05 5.3,0.95 m 5.9,-0.8 -1.8,-3.45 L 15.75,43.1 15.6,42.55 15.25,42.15 14.9,41 14.6,40.45 q -0.3,-0.8 0.15,-1.6 0.5,-0.8 1.45,-0.7 0.95,0 1.35,0.8 l 0.3,0.7 0.65,5.7 -0.05,1.6 -0.05,0.35 -0.25,0.2 -0.3,-0.3"
         fill="#000000"
         fill-rule="evenodd"
         stroke="none"
         id="path6" />
      <path
         d="m 53.9,17.55 v 0.05 l 0.1,-0.15 0.7,-0.2 q 1.15,-0.1 1.75,0.95 0.3,0.55 0.25,1.15 l -0.45,1.05 -0.8,0.55 -0.85,0.55 -0.45,0.4 -0.5,-0.1 -0.25,-0.45 v -0.2 L 53,20.9 52.1,20.5 q -0.6,-0.35 -0.85,-1.05 -0.3,-0.7 -0.05,-1.35 l 0.4,-0.6 q 0.5,-0.5 1.15,-0.4 0.6,0 1.15,0.45 m -43.7,0 Q 10.75,17.1 11.35,17.1 12,17 12.5,17.5 l 0.4,0.6 q 0.25,0.65 -0.05,1.35 -0.25,0.7 -0.85,1.05 l -0.9,0.4 q -0.25,0.1 -0.4,0.25 v 0.2 L 10.45,21.8 9.95,21.9 9.5,21.5 8.65,20.95 7.85,20.4 Q 7.45,20 7.4,19.35 7.35,18.75 7.65,18.2 8.25,17.15 9.4,17.25 l 0.7,0.2 0.1,0.15 v -0.05"
         fill="#ffffff"
         fill-rule="evenodd"
         stroke="none"
         id="path7" />
    </g>
    <g
       id="shape2"
       transform="translate(1.5,1.5)">
      <path
         d="M 0,23.8 V 0 H 64.1 V 23.8 57.55 H 0 Z"
         fill="none"
         stroke="#000000"
         stroke-linecap="round"
         stroke-linejoin="round"
         stroke-width="3"
         id="path8" />
    </g>
  </defs>
</svg>
