<?xml version="1.0" encoding="UTF-8" standalone="no"?>
<svg
   ffdec:objectType="frame"
   height="44.559525"
   width="78.76667"
   version="1.1"
   id="svg11"
   sodipodi:docname="179.svg"
   xmlns:inkscape="http://www.inkscape.org/namespaces/inkscape"
   xmlns:sodipodi="http://sodipodi.sourceforge.net/DTD/sodipodi-0.dtd"
   xmlns:xlink="http://www.w3.org/1999/xlink"
   xmlns="http://www.w3.org/2000/svg"
   xmlns:svg="http://www.w3.org/2000/svg"
   xmlns:ffdec="https://www.free-decompiler.com/flash">
  <sodipodi:namedview
     id="namedview11"
     pagecolor="#ffffff"
     bordercolor="#000000"
     borderopacity="0.25"
     inkscape:showpageshadow="2"
     inkscape:pageopacity="0.0"
     inkscape:pagecheckerboard="0"
     inkscape:deskcolor="#d1d1d1"
     fit-margin-top="5"
     fit-margin-left="5"
     fit-margin-right="5"
     fit-margin-bottom="5" />
  <g
     transform="translate(2.1666667,2.2595238)"
     id="g3">
    <use
       ffdec:characterId="1"
       height="42.700001"
       transform="translate(-1.75,-2)"
       width="76.449997"
       xlink:href="#shape0"
       id="use1" />
    <use
       ffdec:characterId="177"
       height="43.849998"
       transform="translate(-2.15,-2.25)"
       width="73.650002"
       xlink:href="#shape1"
       id="use2" />
    <use
       ffdec:characterId="3"
       height="44.349998"
       transform="translate(-2,-2.05)"
       width="78.599998"
       xlink:href="#shape2"
       id="use3" />
  </g>
  <defs
     id="defs11">
    <g
       id="shape0"
       transform="translate(1.75,2)">
      <path
         d="M 2.8,0 V -0.4 H 5.4 V 0 H 9.7 V 19.45 0 H 20.55 L 19.3,19.45 H 9.7 0.25 V 0 H 2.8"
         fill="#ffffff"
         fill-rule="evenodd"
         stroke="none"
         id="path3" />
      <path
         d="M 0.25,19.45 H 9.7 19.3 L 18.7,28.6 16,28.5 10.95,27.95 9.7,27.8 Q 7.45,27.6 5.85,27.75 4.05,27.9 1.5,28.6 0.75,28.8 0.25,29.15 v -9.7 m 9.45,0 v 8.35 -8.35"
         fill="#121212"
         fill-rule="evenodd"
         stroke="none"
         id="path4" />
      <path
         d="m 9.7,27.8 1.25,0.15 5.05,0.55 2.7,0.1 h 1.05 l 3.75,0.15 q 2.45,0.3 3.6,1.25 0.6,0.5 0.6,1.1 0,0.65 -0.8,1 l -1.3,0.2 -7.15,0.15 -5.6,-0.3 L 9.7,31.75 7.95,31.6 3.1,31.95 0.95,32.3 0.25,32.1 -0.35,31.55 -0.5,31.3 V 29.9 L 0.25,29.15 Q 0.75,28.8 1.5,28.6 4.05,27.9 5.85,27.75 7.45,27.6 9.7,27.8 v 3.95 -3.95"
         fill="#999999"
         fill-rule="evenodd"
         stroke="none"
         id="path5" />
      <path
         d="M 2.8,0 H 0.25 M 9.7,0 H 5.4 m 16.15,0 h 10.7 M 20.55,0 H 9.7"
         fill="none"
         stroke="#666666"
         stroke-linecap="round"
         stroke-linejoin="round"
         stroke-width="4"
         id="path6" />
      <path
         d="m 9.7,-0.4 h 65 V 40.5 H 47.05 L 45.5,40.7 27,40.65 25.95,40.5 H 9.7 -0.5 V -0.4 H 9.7 V 40.5 -0.4"
         fill="#ffffff"
         fill-rule="evenodd"
         stroke="none"
         id="path7" />
    </g>
    <g
       id="shape1"
       transform="translate(2.15,2.25)">
      <path
         d="M -0.1,6.9 -0.95,6.65 -1.5,5.9 Q -1.75,5.1 -1.25,4.05 -0.35,2 2.2,0.8 3.6,0.15 6.9,-0.35 q 6.75,-0.9 11,0.2 2.8,0.75 5,2.4 2.35,1.75 3.45,4.2 0.55,1.2 0.9,3.2 v 0.8 l -0.55,0.5 Q 26.3,11 25.85,10.25 24.25,7.1 23.3,6.1 21.15,3.95 16.45,3.1 10.45,1.95 6.05,3 2.85,3.75 1.5,5.45 L 0.8,6.4 Q 0.4,6.85 -0.1,6.9 M 26.3,1.45 25.05,0.65 q -0.75,-0.75 -0.4,-1.75 0.35,-0.95 1.4,-1.15 1,-0.1 2.15,0.85 3.65,2.85 4.5,7.5 0.2,1.1 0,1.8 L 32.45,8.4 31.9,8.5 31.5,7.95 Q 30.7,5.9 29.95,4.9 L 28.7,3.45 q -1.5,-1.5 -2.4,-2 M 54.8,28.8 q -0.2,-0.3 0.05,-0.65 l 0.55,-0.4 3.15,-0.55 1.55,-0.05 0.25,0.15 0.4,-0.3 q -0.25,-0.95 0.3,-2.55 L 61.5,23 q 0.3,-0.8 0.2,-1.3 -0.05,-0.75 -1.15,-1.65 -1.1,-1 -1.85,-0.8 l 0.25,0.1 q 0.45,0.2 0.65,1.1 0.4,1.55 0.2,2.3 l -0.35,0.7 -0.55,0.2 -0.95,0.05 q -0.6,-0.2 -0.55,-0.7 0.1,-0.55 0.7,-0.55 l -0.15,-1 -0.45,-0.95 -0.2,0.65 -0.2,1.8 -0.55,1.65 -0.25,0.55 0.05,0.7 v 0.1 l 0.05,-0.05 3.95,-0.5 0.1,0.25 -0.1,0.2 -0.25,0.1 -2.35,0.35 -0.85,0.15 -0.75,0.15 -0.25,-0.05 -0.55,0.15 q -0.65,0.45 -1.4,0.35 -1.45,-0.15 -2.2,-1.7 -0.5,-1 -0.6,-2.9 -0.05,-2.55 0.55,-4.2 L 51.2,17.6 q -0.2,-0.5 -0.05,-1.1 0.3,-1.25 1.4,-1.55 L 52.4,14.8 q -1.2,-1.2 -1.3,-2 -0.15,-0.9 0.65,-2.4 L 53,8.2 Q 53.3,7.8 53.9,7.4 L 53.85,6.95 q 0.1,-1.15 1.3,-1.7 l 1.3,-0.1 q 0.65,0.2 0.9,0.65 l 1.5,-0.2 q 1.85,0 3.5,0.95 Q 64,7.45 65,9 L 66.1,8.05 66.6,6.9 66.35,6 Q 65.65,4.75 64.55,3.95 L 63.45,3 Q 63.25,2.5 63.35,1.8 63.6,0.65 64.2,0.05 L 64.3,0 Q 65,-1.15 66.7,-1.7 L 68,-1.8 q 0.8,0.2 0.8,0.85 0.15,0.9 -1.3,1.35 -1.45,0.5 -1.55,1.25 -0.05,0.7 0.7,1.2 l 1.3,0.6 q 1.7,0.95 2.05,3.05 0.3,1.75 -0.7,3.65 -1.35,2.55 -3.5,2.7 -1.9,0.15 -3.85,-2 -1.75,-1.75 -2.8,-1.45 -0.5,0.1 -1.1,0.8 -0.9,1.1 -0.65,1.95 0.15,0.6 0.8,1.05 l 0.3,-0.35 q 0.35,-0.35 0.9,-0.4 l 1,0.15 q 1,0.5 0.9,1.5 1.6,0.4 3.05,1.55 l 0.05,-0.05 1.3,-0.05 0.55,0.1 0.8,0.5 0.4,0.45 0.25,0.45 q 0.45,0.95 0.2,2.05 l -0.55,1.3 q 0.3,1.4 0.05,2.8 -0.3,1.9 -1.45,3.2 l -0.15,0.85 q -0.25,1.25 -1,1.85 -0.85,0.75 -2.25,0.45 l -1.1,-0.6 -0.9,0.15 H 60.5 l -0.3,0.2 -1.05,0.2 -3.85,-0.4 -0.5,-0.3 M 71.4,3.25 Q 70.95,3.9 70.25,3.7 69.5,3.45 69.6,2.65 q 0.1,-0.7 0.85,-0.8 l 0.1,-0.05 q 0.75,0.1 0.9,0.75 L 71.4,3.25 M 70.3,16.75 69.9,17 69.25,16.95 68.85,16.6 68.7,16.05 q 0.1,-0.65 0.55,-0.8 l 1,0.1 0.3,0.7 -0.25,0.7 m 0.15,5.05 0.65,0.25 0.35,0.65 -0.2,0.7 -0.65,0.4 -0.65,-0.1 -0.2,-0.2 -0.3,-0.5 q -0.1,-0.5 0.2,-0.8 0.25,-0.4 0.75,-0.4 h 0.05 M 58.25,3.1 Q 58.3,2.75 58.7,2.55 l 0.75,-0.05 0.35,0.2 0.1,0.15 0.15,0.45 -0.35,0.75 -0.45,0.2 q -0.45,0 -0.7,-0.2 Q 58.2,3.7 58.2,3.35 L 58.25,3.1 m -6.4,3.95 Q 52.2,7.4 52.1,7.9 l -0.5,0.75 q -0.5,0.25 -1,0 Q 50.1,8.3 50.1,7.75 L 50.2,7.2 q 0.35,-0.65 1.1,-0.45 0.25,0 0.55,0.3 m 15.5,21.25 -0.9,-0.75 q -0.3,-0.55 -0.2,-1.1 0.1,-0.55 0.45,-0.9 0.35,-0.4 0.85,-0.5 1.2,-0.25 1.8,0.75 l 0.25,1 -0.4,0.95 q -0.75,0.9 -1.85,0.55 M -1.8,13 Q -1.85,11.15 -0.1,9.2 2.55,6.1 6.15,5.6 L 7.85,5.45 9.55,5.4 13,5.1 q 1.75,0 5.15,1.1 l 2.2,0.85 q 1.8,0.95 3.3,3.35 1,1.7 1.1,2.8 Q 25,14.95 24,16.1 l -0.35,0.2 q -0.3,0 -0.3,-0.35 l 0.1,-0.55 Q 23.9,13.85 22.5,11.95 21.25,10.2 19.3,9.1 17.35,8 15.15,7.8 L 12.55,7.85 8.4,8.2 5.75,8.7 Q 4.2,9.25 2.6,10.85 l -2.7,2.9 q -0.4,0.5 -0.8,0.5 -0.9,0 -0.9,-1.25 m 0.3,5.7 q 0.65,-1.65 2.15,-3.6 1.75,-2.25 3.25,-3.2 3.15,-2.05 8.75,-1.8 2.45,0.1 3.85,0.6 1.4,0.4 2.8,1.5 2.95,2.35 4.1,5.85 0.65,1.9 0.6,3.8 0.85,2.25 0.6,4.15 -0.3,1.85 -1.6,3.65 -2.65,3.7 -7.25,5.3 -4.1,1.5 -9,1.15 Q 3.9,35.9 2.25,35 0.6,34.05 -0.3,32.25 q -0.9,-1.8 -0.6,-3.7 l 0.1,-0.4 -0.1,-0.5 -0.25,-1.45 -0.6,-1.35 q -0.5,-1.1 -0.4,-3 Q -2,20.1 -1.5,18.7 M 19,25.55 q 0.8,-1 1.1,-2.95 l 0.15,-1.9 -0.4,-1.65 -0.6,-1.45 -1,-1.15 -1.55,-1.25 -1.65,-0.6 -6.1,0.35 Q 7.6,15.3 6.8,15.8 5.85,16.4 4.4,18.15 3.35,19.4 3,20.1 q -0.3,0.55 -0.85,2.5 -0.55,2.25 -0.5,3.75 0.2,2.2 1.6,3.35 1,0.7 3.15,1 L 9,30.95 11.4,30.6 q 3.55,-0.7 4.8,-1.95 -0.75,0 -0.7,-0.45 0,-0.15 0.3,-0.35 l 1.7,-1 1.5,-1.3 M 8.2,20.75 8.25,20.15 Q 8.4,19.6 8.9,19.25 9.45,18.95 10,19 q 0.55,0.1 1,0.55 0.4,0.45 0.4,1 l -0.35,1.05 q -0.4,0.5 -0.95,0.6 L 9.05,22 Q 8.5,21.7 8.3,21.2 L 8.2,20.75 m 1.65,2 0.7,-0.35 1.8,0.1 0.75,0.25 0.6,0.7 0.3,0.9 0.1,0.75 -0.15,0.9 -0.3,0.75 -0.7,0.25 -0.2,-0.05 -0.25,0.2 q -0.4,0.4 -0.95,0.45 l -1,-0.2 L 9.95,26.95 9.6,26.6 9.1,25.65 v -0.1 L 8.75,25.45 8.4,25.5 7.55,25.85 Q 7.3,26.05 7.1,26.9 6.95,27.6 6.4,28.05 L 5.55,28.3 4.7,28.05 4.2,27.3 4.15,26.8 l 0.3,-1.05 0.9,-1.05 0.4,-0.25 0.45,-0.2 q 0.95,-0.4 1.65,-0.45 l 1.2,0.25 0.1,0.05 Q 9.3,23.2 9.85,22.75 M 6.35,22.45 6.1,22.8 5.25,22.75 5.05,22.25 q 0,-0.35 0.4,-0.55 l 0.7,0.1 0.1,0.15 0.1,0.5 m 20.9,-3.2 q 1.9,3.55 0.6,9.65 l -0.7,2.5 q -0.9,2.2 -2.6,4 -2.8,3.05 -7,4.7 Q 13.6,41.65 9.2,41.6 3.45,41.5 0,38.75 l -0.55,-0.7 Q -0.8,37.45 -0.3,37.3 l 0.75,0.1 q 4.7,2.1 10,1.75 5.3,-0.35 9.65,-3.05 2.45,-1.55 4.05,-3.5 4,-5.1 3.1,-13.35"
         fill="#999999"
         fill-rule="evenodd"
         stroke="none"
         id="path8" />
      <path
         d="m 20.8,29.7 0.8,-0.3 q 1,-0.6 3,-1.65 l -0.7,-0.4 q -1.65,-1 -2.5,-2.4 -1.45,-2.3 -1,-6.05 0.6,-4.75 3.15,-8.5 L 23.5,10.05 23.05,5.7 Q 22.95,4.55 23.1,4.05 23.25,3.45 23.75,3 q 0.5,-0.4 1.1,-0.45 l 1.2,0.1 1.75,0.4 2.4,0.8 0.35,0.15 1,-0.7 2.3,-1.4 Q 34.9,1.35 36,1.15 l 0.45,-0.1 h 0.4 l 0.45,0.1 q 1.1,0.2 2.15,0.75 l 2.3,1.4 1,0.7 0.35,-0.15 2.4,-0.8 1.75,-0.4 1.2,-0.1 q 0.6,0.05 1.1,0.45 0.5,0.45 0.65,1.05 l 0.05,1.65 -0.45,4.35 -0.05,0.35 q 2.55,3.75 3.15,8.5 0.45,3.75 -1,6.05 -0.85,1.4 -2.5,2.4 l -0.7,0.4 3,1.65 0.8,0.3 0.65,-0.15 q -0.2,-0.6 0.05,-1.4 0.15,-0.4 1.25,-1.9 l 1.95,-3.55 0.4,-1.5 q 0.05,-0.75 -0.6,-1.7 -0.65,-0.95 -0.6,-1.35 0.15,-0.55 0.8,-0.75 l 1.1,0.1 0.95,0.3 q 2.05,0.9 2.9,2.85 0.8,1.7 0.55,4 l -0.8,2.9 -1.1,2.05 -0.35,0.7 q 0.75,0.9 0.75,2 0.05,1.9 -1.7,3.05 -1.5,1 -3.5,0.75 h -0.25 l -0.35,0.6 -1.05,1.2 -1.2,0.15 Q 51.65,37.9 51.3,37.4 50.45,36.3 51.25,35.1 l 0.3,-0.25 -3.45,-2.45 -0.6,-0.5 0.05,0.1 1.6,3.45 1.5,3.6 L 51,40.5 H 22.3 q 0,-0.55 0.35,-1.45 l 1.5,-3.6 Q 24.9,33.4 25.75,32 l 0.05,-0.1 -0.6,0.5 q -2.05,1.65 -3.65,2.55 -1.85,1 -3.25,1.15 v 0.05 l 0.05,0.15 0.25,-0.1 0.6,-0.1 q 0.65,0.1 0.8,0.75 0.15,0.6 -0.4,0.95 l -0.55,0.3 -1.9,0.55 -0.75,0.1 Q 16,38.7 15.75,38.3 15.6,37.85 15.8,37.5 16,37.15 16.45,36.95 l -0.05,-0.1 -0.2,-0.8 Q 15.35,35.85 14.6,35.35 12.85,34.2 12.9,32.3 V 32.2 Q 11.4,32.1 10.7,30.65 L 9.1,27.25 8.95,26.4 q 0,-0.55 0.25,-0.85 0.2,-0.4 0.7,-0.65 l 2.85,-1.7 q 1.85,-0.85 3.9,-1.15 l 1.3,0.25 0.4,0.8 0.4,1.7 0.05,0.85 q 0.1,2 -0.3,3.15 v 0.05 q 0.7,0.2 1.45,0.55 l 0.85,0.3 m 25.65,-7.85 1.7,-1.3 0.55,-0.7 q 0.55,-0.8 0.45,-2.15 -0.25,-2.5 -2.2,-3.75 -2.15,-1.35 -4.3,-0.3 v 0.05 l -0.4,1.85 -0.55,0.9 -1.1,1.3 -0.55,0.3 0.05,0.3 0.55,1.3 q 1.25,1.9 2.9,2.3 l 1.35,0.15 1.55,-0.25 m 13.6,0.25 -0.15,-0.45 -0.6,-0.9 -0.4,-0.3 -0.1,2.3 -1.35,3.05 -1.55,2.45 2.2,0.8 h 0.2 l 0.1,-0.1 1.3,-2.5 0.15,-0.4 0.2,-0.95 0.15,-1.65 -0.15,-1.35 m -33,-0.25 1.55,0.25 1.35,-0.15 q 1.65,-0.4 2.9,-2.3 l 0.55,-1.3 0.1,-0.4 L 33,17.7 31.85,16.75 31.35,15.7 31.1,13.85 V 13.8 l -0.25,-0.15 q -2.15,-1.05 -4.3,0.3 -1.95,1.25 -2.2,3.75 -0.1,1.35 0.45,2.15 l 0.55,0.7 1.7,1.3 m -10.25,2.8 -0.1,-0.2 -0.05,-0.05 -1.55,0.4 -1.65,0.7 h 0.25 l 0.65,0.2 0.55,-0.05 0.9,-0.3 1.05,0.1 H 16.9 V 25.3 l -0.1,-0.35 v -0.3"
         fill="#000000"
         fill-rule="evenodd"
         stroke="none"
         id="path9" />
      <path
         d="M 46.45,21.85 44.9,22.1 43.55,21.95 q -1.65,-0.4 -2.9,-2.3 l -0.55,-1.3 -0.05,-0.3 0.55,-0.3 1.1,-1.3 0.55,-0.9 0.4,-1.85 v -0.05 q 2.15,-1.05 4.3,0.3 1.95,1.25 2.2,3.75 0.1,1.35 -0.45,2.15 l -0.55,0.7 -1.7,1.3 m -19.4,0 -1.7,-1.3 -0.55,-0.7 q -0.55,-0.8 -0.45,-2.15 0.25,-2.5 2.2,-3.75 2.15,-1.35 4.3,-0.3 l 0.25,0.15 v 0.05 l 0.25,1.85 0.5,1.05 1.15,0.95 0.5,0.25 -0.1,0.4 -0.55,1.3 q -1.25,1.9 -2.9,2.3 L 28.6,22.1 27.05,21.85"
         fill="#ffffff"
         fill-rule="evenodd"
         stroke="none"
         id="path10" />
    </g>
    <g
       id="shape2"
       transform="translate(2,2.05)">
      <path
         d="M -0.5,-0.4 V -0.55 H 75.1 V -0.4 40.8 H -0.5 Z"
         fill="none"
         stroke="#000000"
         stroke-linecap="round"
         stroke-linejoin="round"
         stroke-width="3"
         id="path11" />
    </g>
  </defs>
</svg>
