<?xml version="1.0" encoding="UTF-8" standalone="no"?>
<svg
   ffdec:objectType="frame"
   height="44.349998"
   width="78.599998"
   version="1.1"
   id="svg11"
   sodipodi:docname="50.svg"
   xmlns:inkscape="http://www.inkscape.org/namespaces/inkscape"
   xmlns:sodipodi="http://sodipodi.sourceforge.net/DTD/sodipodi-0.dtd"
   xmlns:xlink="http://www.w3.org/1999/xlink"
   xmlns="http://www.w3.org/2000/svg"
   xmlns:svg="http://www.w3.org/2000/svg"
   xmlns:ffdec="https://www.free-decompiler.com/flash">
  <sodipodi:namedview
     id="namedview11"
     pagecolor="#ffffff"
     bordercolor="#000000"
     borderopacity="0.25"
     inkscape:showpageshadow="2"
     inkscape:pageopacity="0.0"
     inkscape:pagecheckerboard="0"
     inkscape:deskcolor="#d1d1d1"
     fit-margin-top="5"
     fit-margin-left="5"
     fit-margin-right="5"
     fit-margin-bottom="5" />
  <g
     transform="translate(2,2.05)"
     id="g3">
    <use
       ffdec:characterId="1"
       height="42.700001"
       transform="translate(-1.75,-2)"
       width="76.449997"
       xlink:href="#shape0"
       id="use1" />
    <use
       ffdec:characterId="50"
       height="43.049999"
       transform="translate(-1.15,-1.2)"
       width="77"
       xlink:href="#shape1"
       id="use2" />
    <use
       ffdec:characterId="3"
       height="44.349998"
       transform="translate(-2,-2.05)"
       width="78.599998"
       xlink:href="#shape2"
       id="use3" />
  </g>
  <defs
     id="defs11">
    <g
       id="shape0"
       transform="translate(1.75,2)">
      <path
         d="M 2.8,0 V -0.4 H 5.4 V 0 H 9.7 V 19.45 0 H 20.55 L 19.3,19.45 H 9.7 0.25 V 0 H 2.8"
         fill="#ffffff"
         fill-rule="evenodd"
         stroke="none"
         id="path3" />
      <path
         d="M 0.25,19.45 H 9.7 19.3 L 18.7,28.6 16,28.5 10.95,27.95 9.7,27.8 Q 7.45,27.6 5.85,27.75 4.05,27.9 1.5,28.6 0.75,28.8 0.25,29.15 v -9.7 m 9.45,0 v 8.35 -8.35"
         fill="#121212"
         fill-rule="evenodd"
         stroke="none"
         id="path4" />
      <path
         d="m 9.7,27.8 1.25,0.15 5.05,0.55 2.7,0.1 h 1.05 l 3.75,0.15 q 2.45,0.3 3.6,1.25 0.6,0.5 0.6,1.1 0,0.65 -0.8,1 l -1.3,0.2 -7.15,0.15 -5.6,-0.3 L 9.7,31.75 7.95,31.6 3.1,31.95 0.95,32.3 0.25,32.1 -0.35,31.55 -0.5,31.3 V 29.9 L 0.25,29.15 Q 0.75,28.8 1.5,28.6 4.05,27.9 5.85,27.75 7.45,27.6 9.7,27.8 v 3.95 -3.95"
         fill="#999999"
         fill-rule="evenodd"
         stroke="none"
         id="path5" />
      <path
         d="M 2.8,0 H 0.25 M 9.7,0 H 5.4 m 16.15,0 h 10.7 M 20.55,0 H 9.7"
         fill="none"
         stroke="#666666"
         stroke-linecap="round"
         stroke-linejoin="round"
         stroke-width="4"
         id="path6" />
      <path
         d="m 9.7,-0.4 h 65 V 40.5 H 47.05 L 45.5,40.7 27,40.65 25.95,40.5 H 9.7 -0.5 V -0.4 H 9.7 V 40.5 -0.4"
         fill="#ffffff"
         fill-rule="evenodd"
         stroke="none"
         id="path7" />
    </g>
    <g
       id="shape1"
       transform="translate(1.15,1.2)">
      <path
         d="m 18.5,13.65 -1.1,-0.4 -3,-1.95 Q 8.2,6.85 5.15,3.9 L 2.35,1.4 0.85,0.2 Q 0.35,-0.65 0.55,-1.2 H 3.3 l 0.35,0.35 1.5,1.4 L 5.3,0.5 5.6,0.45 6.05,0.4 H 6.7 L 9.75,0.35 15.35,0.3 H 16 l 3.1,-0.05 h 5.2 V 0.2 h 0.55 0.6 0.65 0.05 0.55 l 0.25,0.05 0.2,0.05 0.2,0.1 0.05,0.05 0.6,-0.85 q 0.45,-0.6 0.85,-0.8 h 1.05 l 0.15,0.1 q 0.45,0.3 0.5,0.8 H 30.5 L 30,0.15 29.8,0.35 29.55,0.4 Q 29.2,0.45 28.8,0.8 l -1.05,1 Q 27.3,2.25 27.2,2.65 27.05,3.15 27.25,3.6 l 0.65,0.5 q 1.3,0.8 3.1,2.8 l 1.8,1.95 q 0.65,0.65 1.15,0.6 L 34.6,8.8 34.65,7.8 34.5,7.15 34.4,6.7 34.35,6.6 34.15,5.75 34.05,3.8 34.25,3.85 35.65,4.3 36.6,4.15 37.05,3 37.55,1.8 38.1,0.9 q 0.25,-0.65 -0.1,-1 l -0.5,-0.2 0.3,-0.9 h 1.6 L 39.35,-1 39.2,0.15 V 0.4 0.35 L 39.4,0.3 39.65,0.25 40,0.2 h 1.85 5.65 0.5 0.45 0.55 1.25 0.25 0.1 0.85 l 1.5,0.05 0.35,0.05 0.2,0.1 0.05,0.05 V 0.4 l 0.2,-0.3 0.4,-0.5 0.45,-0.4 0.7,0.1 0.25,0.3 -0.45,0.1 q -0.55,0.25 -0.9,1 L 52.25,5.85 52.05,6.1 51.75,6.05 50.35,5.45 49,5 q -0.85,0 -1.2,0.65 l -0.1,1 -0.2,1.6 -0.7,3 q -0.6,2.35 -0.4,3.6 0,0.6 0.4,0.8 0.45,0.25 0.85,-0.25 l 0.1,-0.15 0.05,-0.05 3.45,-4.05 q 0.2,-0.2 0.35,-0.2 l 0.3,0.35 q 0.4,0.55 1.05,0.65 0.9,0 1.95,-1.25 l 4.7,-5.1 3.55,-3.75 q 0.7,-0.8 0.7,-1.35 l -0.15,-0.6 0.5,-0.4 q 0.45,-0.25 0.95,0 0.55,0.2 0.65,0.7 L 65.85,0.65 66,0.6 66.15,0.55 h 0.1 L 66.45,0.5 66.8,0.45 67.2,0.4 h 0.3 L 67.7,0.35 68,0.3 h 0.45 L 68.7,0.25 69,0.2 h 0.55 1.1 V 0.15 h 1.7 l 0.55,0.05 0.35,0.05 0.25,0.1 0.15,0.1 0.1,0.1 0.1,0.1 0.05,0.1 L 73.95,0.9 74,1 74.05,1.1 v 0.1 0.1 0.1 0.1 0.1 0.1 0.1 0.1 0.15 l 0.05,0.1 v 0.1 0.1 0.1 0.1 0.1 0.1 l 0.05,0.1 v 0.1 0.1 0.15 l 0.05,0.1 v 0.1 0.1 0.1 0.1 0.1 0.1 0.1 0.1 0.15 0.1 0.1 0.1 0.1 0.1 0.1 0.1 0.1 0.1 0.1 0.15 0.1 0.1 0.1 0.1 0.1 0.1 0.1 0.1 0.1 0.1 0.15 0.1 0.1 0.1 l 0.05,0.1 v 0.1 0.1 0.1 0.1 0.1 0.15 0.1 0.1 0.1 0.1 0.1 0.1 0.1 0.1 0.1 0.1 0.15 0.1 0.1 0.1 0.1 0.1 0.1 0.1 0.1 0.1 0.15 0.1 0.1 0.1 0.1 0.1 0.1 0.1 0.1 0.1 0.1 0.15 0.1 0.1 0.1 0.1 0.1 0.1 0.1 0.1 0.1 l 0.05,0.1 v 0.15 0.1 0.1 0.1 0.1 0.1 0.1 0.1 0.1 0.1 0.15 0.1 0.1 0.1 0.1 0.1 0.1 0.1 0.1 0.1 0.1 0.15 0.1 0.1 0.1 0.1 0.1 0.1 0.1 0.1 0.1 0.1 0.15 0.1 0.1 0.1 0.1 0.1 0.1 0.1 0.1 0.1 0.15 0.1 0.1 0.1 0.1 0.1 0.1 0.1 0.1 0.1 0.1 0.15 0.1 0.1 0.1 0.1 0.1 0.1 0.1 0.1 0.1 0.1 0.15 0.1 0.1 0.1 0.1 0.1 0.1 0.1 0.1 0.1 0.15 0.1 0.1 0.1 0.1 0.1 0.1 0.1 0.1 0.1 0.1 0.15 0.1 0.1 0.1 0.1 0.1 0.1 0.1 0.1 0.1 0.15 0.1 0.1 0.1 0.1 0.1 0.1 0.1 0.1 0.1 0.1 0.15 0.1 0.1 0.1 0.1 0.1 0.1 0.1 0.1 0.1 0.1 0.15 0.1 0.1 0.1 0.1 0.1 0.1 0.1 0.1 0.1 0.15 0.1 0.1 0.1 0.1 0.1 0.1 0.1 0.1 0.1 0.1 0.15 0.1 0.1 0.1 0.1 0.1 0.1 0.1 0.1 0.1 0.1 0.15 0.1 0.1 0.1 0.1 0.1 0.1 0.1 0.1 0.1 0.15 0.1 0.1 0.1 0.1 0.1 0.1 0.1 0.1 0.1 0.1 0.15 0.1 0.1 0.1 0.1 0.1 0.1 0.1 0.1 0.1 0.1 0.15 0.1 l -0.05,0.1 v 0.1 0.1 0.1 0.1 0.1 0.1 0.1 0.15 0.1 0.1 0.1 0.1 0.1 0.1 0.1 0.1 0.1 0.1 0.15 0.1 0.1 0.1 0.1 0.1 0.1 0.1 0.1 0.1 l 0.05,0.15 v 0.1 0.1 0.1 0.1 0.1 0.1 0.1 l -0.05,0.1 v 0.1 0.1 0.15 0.1 0.1 0.1 0.1 0.1 0.1 0.1 l -0.05,0.1 v 0.1 0.1 0.15 0.1 0.1 0.1 0.1 0.1 0.1 0.1 0.1 0.1 0.15 0.1 0.1 0.1 0.1 0.1 0.1 0.1 0.1 0.1 0.1 0.15 0.1 0.1 0.1 0.1 l -0.05,0.1 -0.05,0.1 -0.05,0.1 -0.1,0.1 -0.1,0.1 -0.15,0.1 -0.15,0.1 -0.25,0.05 -0.35,-0.1 -0.15,-0.1 -0.2,0.05 H 72.35 72 71.75 71.55 L 64.95,39.75 59.2,39.7 H 57.55 L 54.9,39.65 50.75,39.6 H 49 48.45 48.25 l -6.5,-0.05 H 40.9 40.1 l -4,-0.05 h -0.35 l -0.2,-0.05 -0.2,-0.05 H 35.3 l -0.15,0.65 q -0.4,0.7 -0.95,0.6 Q 33.7,40.5 33.55,40 l -0.2,-0.9 Q 33.1,37.85 32.45,36.8 L 32.1,35.9 h 1.15 l 1.15,0.1 1.25,0.2 q 0.8,0 1.1,-0.5 l 0.15,-0.95 -0.2,-1 -0.05,-0.7 -0.35,-1.5 -0.15,-0.8 -0.1,-2 -0.1,-0.9 Q 35.7,27.5 35.25,27.7 l -0.15,0.1 -0.4,0.05 -0.2,0.25 -0.8,1.55 q -0.95,2.1 -1.35,3.4 l -2.3,-0.55 q -0.8,-0.2 -1.15,0 -0.35,0.15 -0.65,0.8 l -2.5,6.6 q -0.25,0.8 -0.15,1.15 l 0.05,0.15 -0.25,0.2 -1.2,0.1 q -0.7,-0.45 -0.5,-1.45 l 0.1,-0.2 h -0.3 -3.35 -0.5 L 17.5,39.9 15,39.95 H 14.45 L 13.85,40 11.9,40.05 H 10.15 L 9.35,40.1 7.4,40.15 H 6.6 L 5.55,40.2 4.6,40.25 3.25,40.3 H 1.4 0.15 -0.1 L -0.35,40.2 -0.55,40.1 -0.7,40 -0.8,39.9 -0.85,39.8 -0.95,39.7 -1,39.6 -1.05,39.5 v -0.15 l -0.05,-0.1 v -0.1 l -0.05,-0.1 0.05,-0.1 v -0.1 -0.1 l 0.05,-0.1 v -0.1 l 0.05,-0.1 0.05,-0.15 0.1,-0.1 0.1,-0.1 0.1,-0.1 0.2,-0.1 0.1,-0.05 0.1,-0.05 0.15,-0.05 H 0.15 0.2 v -0.1 l 0.05,-0.1 v -0.1 -0.1 -0.1 -0.1 -0.1 -0.1 -0.15 -0.1 -0.1 -0.1 -0.1 -0.1 -0.1 L 0.2,36.1 v -0.1 -0.1 -0.1 -0.15 -0.1 -0.1 -0.1 -0.1 -0.1 -0.1 -0.1 -0.1 -0.1 -0.15 -0.1 -0.1 -0.1 -0.1 -0.1 -0.1 -0.1 -0.1 -0.1 -0.1 -0.15 -0.1 -0.1 -0.1 -0.1 -0.1 -0.1 -0.1 -0.1 -0.1 -0.1 V 32.3 32.2 32.1 32 31.9 L 0.15,31.8 V 31.7 31.6 L 0.2,31.5 v -0.1 -0.15 -0.1 -0.1 -0.1 -0.1 -0.1 l -0.05,-0.1 v -0.1 -0.1 -0.1 L 0.2,30.25 V 30.1 30 L 0.15,29.9 v -0.1 -0.1 -0.1 -0.1 -0.1 -0.1 -0.1 -0.1 -0.15 -0.1 -0.1 -0.1 -0.1 -0.1 -0.1 -0.1 -0.1 -0.1 -0.15 -0.1 -0.1 L 0.2,27.6 v -0.1 -0.1 -0.1 -0.1 -0.1 -0.1 -0.1 -0.15 -0.1 -0.1 -0.1 -0.1 -0.1 -0.1 -0.1 -0.1 -0.1 V 25.7 25.6 25.5 25.4 25.3 25.2 25.1 25 24.9 24.8 24.7 24.55 l -0.05,-0.1 v -0.1 -0.1 -0.1 -0.1 -0.1 -0.1 -0.1 -0.1 -0.1 -0.15 -0.1 -0.1 -0.1 -0.1 -0.1 -0.1 -0.1 -0.1 -0.1 -0.15 -0.1 -0.1 -0.1 -0.1 -0.1 -0.1 -0.1 -0.1 -0.1 -0.1 -0.15 -0.1 -0.1 -0.1 -0.1 -0.1 -0.1 -0.1 -0.1 -0.1 -0.1 -0.15 -0.1 -0.1 -0.1 -0.1 -0.1 -0.1 -0.1 -0.1 -0.1 V 19 18.9 18.8 18.7 18.6 18.5 18.4 18.3 18.2 18.1 18 v -0.15 -0.1 -0.1 -0.1 -0.1 -0.1 -0.1 -0.1 -0.1 -0.1 -0.1 -0.15 -0.1 -0.1 -0.1 -0.1 -0.1 -0.1 -0.1 -0.1 -0.1 -0.15 -0.1 l 0.05,-0.1 v -0.1 -0.1 -0.1 -0.1 -0.1 -0.1 -0.1 -0.1 -0.15 L 0.25,14.4 V 14.3 14.2 14.1 14 13.95 L -0.7,13.4 Q -1.25,12.85 -1.1,12 l 0.1,-0.25 0.45,0.8 q 0.5,0.4 1.65,0.5 l 6.4,1.2 6.35,1.25 5.65,0.7 1.2,-0.1 q 0.5,-0.3 0.8,-1.45 0.25,-0.75 0.65,-1.35 l 0.15,-0.25 0.5,-0.1 q 2.55,1.35 4.75,2.15 l 0.5,0.15 q 0.3,0 0.45,-0.2 0.3,-0.3 0,-0.65 L 28.05,14.05 27.75,13.7 21.9,9.9 21,9.5 l -0.95,0.15 -0.5,0.85 -0.85,2.3 -0.15,0.45 -0.05,0.4 m 30.8,-3.8 h -0.05 l 0.05,-0.1 v 0.1 m -11.65,2.8 q -0.45,0.3 -0.45,1.25 -0.05,1.8 0.95,3.85 0.65,1.25 1.45,1.65 l 1.3,0.15 q 0.7,-0.1 1.2,-0.6 l 0.6,-1.2 q 0.1,-0.7 -0.15,-1.35 l -0.75,-1.25 -0.45,-1 -0.65,-0.9 q -0.4,-0.4 -1.8,-0.7 l -1.25,0.1"
         fill="#999999"
         fill-rule="evenodd"
         stroke="none"
         id="path8" />
      <path
         d="m 30.55,-0.3 0.35,-0.25 0.9,-0.1 0.55,0.55 q 0.15,0.45 -0.1,0.85 L 31.7,1.35 30.2,2.8 32.45,4.3 32.5,4 V 3.9 L 31.7,3.7 Q 31.25,3.5 31.15,2.9 31.1,2.3 31.45,1.95 31.65,1.7 32.35,1.5 L 35,1.4 h 0.55 l 0.9,-1.35 0.5,-0.45 0.4,0.1 h 0.15 l 0.5,0.2 q 0.35,0.35 0.1,1 L 37.55,1.8 37.05,3 36.6,4.15 35.65,4.3 34.25,3.85 34.05,3.8 l 0.1,1.95 0.2,0.85 0.05,0.1 0.1,0.45 0.15,0.65 -0.05,1 -0.65,0.65 Q 33.45,9.5 32.8,8.85 L 31,6.9 Q 29.2,4.9 27.9,4.1 L 27.25,3.6 Q 27.05,3.15 27.2,2.65 27.3,2.25 27.75,1.8 l 1.05,-1 Q 29.2,0.45 29.55,0.4 L 29.8,0.35 30,0.15 30.5,-0.3 h 0.05 m 25,-0.1 0.8,0.25 q 0.5,0.5 0.1,1.75 L 55.1,5.3 q -0.85,2 -0.95,2.55 V 7.9 l 6.9,-7.55 Q 62,-0.7 62.75,-0.7 l 0.8,0.4 0.15,0.2 0.15,0.6 q 0,0.55 -0.7,1.35 L 59.6,5.6 54.9,10.7 q -1.05,1.25 -1.95,1.25 -0.65,-0.1 -1.05,-0.65 l -0.3,-0.35 q -0.15,0 -0.35,0.2 l -3.45,4.05 -0.05,0.05 -0.1,0.15 q -0.4,0.5 -0.85,0.25 -0.4,-0.2 -0.4,-0.8 -0.2,-1.25 0.4,-3.6 l 0.7,-3 0.2,-1.6 0.1,-1 Q 48.15,5 49,5 l 1.35,0.45 1.4,0.6 0.3,0.05 0.2,-0.25 1.95,-5.15 q 0.35,-0.75 0.9,-1 l 0.45,-0.1 M 32.1,35.9 30.95,35.55 Q 30.65,35.15 30.7,34.8 L 30.6,34.75 H 30.2 L 30,35 q -1.15,2.65 -1.75,5 -0.45,1.5 -1.05,1.75 -0.45,0.25 -0.95,0 L 25.65,41.2 25.6,41.05 Q 25.5,40.7 25.75,39.9 l 2.5,-6.6 q 0.3,-0.65 0.65,-0.8 0.35,-0.2 1.15,0 l 2.3,0.55 q 0.4,-1.3 1.35,-3.4 l 0.8,-1.55 0.2,-0.25 0.4,-0.05 0.15,-0.1 q 0.45,-0.2 0.7,0.15 l 0.1,0.9 0.1,2 0.15,0.8 0.35,1.5 0.05,0.7 0.2,1 -0.15,0.95 q -0.3,0.5 -1.1,0.5 L 34.4,36 33.25,35.9 H 32.1 M -1,11.75 -1.05,11.5 Q -1.1,10.8 -0.65,10.35 0.05,9.6 1.95,9.9 l 16.55,3.9 v -0.15 l 0.05,-0.4 0.15,-0.45 0.85,-2.3 0.5,-0.85 0.95,-0.15 0.9,0.4 5.85,3.8 0.3,0.35 0.45,0.35 q 0.3,0.35 0,0.65 -0.15,0.2 -0.45,0.2 l -0.5,-0.15 q -2.2,-0.8 -4.75,-2.15 l -0.35,-0.2 -0.15,0.3 -0.15,0.25 q -0.4,0.6 -0.65,1.35 -0.3,1.15 -0.8,1.45 L 19.5,16.2 13.85,15.5 7.5,14.25 1.1,13.05 q -1.15,-0.1 -1.65,-0.5 L -1,11.75 m 50.3,-2 -0.05,0.1 h 0.05 l 0.5,-0.65 0.85,-0.8 -1,-0.35 -0.35,1.7 m -11.65,2.9 1.25,-0.1 q 1.4,0.3 1.8,0.7 l 0.65,0.9 0.45,1 0.75,1.25 q 0.25,0.65 0.15,1.35 l -0.6,1.2 q -0.5,0.5 -1.2,0.6 L 39.6,19.4 q -0.8,-0.4 -1.45,-1.65 -1,-2.05 -0.95,-3.85 0,-0.95 0.45,-1.25 m -16.25,-0.4 -0.15,0.2 -0.1,0.25 0.2,-0.2 0.25,-0.2 -0.2,-0.05 M 34.8,33.75 34.65,32.6 V 31.95 L 34.6,31.5 33.95,33.8 34.8,33.75"
         fill="#ffffff"
         fill-rule="evenodd"
         stroke="none"
         id="path9" />
      <path
         d="M 39.55,27.3 Q 36.4,25 34.2,25.75 33.45,26 32.5,26.65 l -6.55,5.1 -2,1.65 -2.3,1.65 -0.2,0.1 -0.85,0.85 -1,0.65 -2.4,0.35 -1.75,-0.15 q -0.85,-0.2 -1.85,-1.1 -1,-1 -1.25,-1.95 V 33.5 L 10.9,33.2 Q 9.05,32.5 8.55,30.9 8.3,30.1 8.5,28 l 0.1,-0.6 q 0.2,-0.55 0.95,-1.1 1.1,-0.9 2.5,-1.35 l 0.6,-0.1 V 24 q 0,-0.4 0.15,-0.7 0.65,-2.2 2.55,-3.15 l 4,-0.4 1.15,0.15 q 0.75,0.3 1.55,1.1 l 0.6,0.7 0.3,0.8 0.65,0.6 q 5.2,-4.15 11.2,-6.3 l 0.65,-0.2 -0.8,-2.15 -0.55,-1.15 q -0.3,-0.75 0,-1.25 0.3,-0.65 1.45,-0.75 l 0.9,0.05 0.8,0.05 0.45,-1.25 0.5,-1.05 1,-0.6 q 0.6,0 0.95,0.45 l 0.6,0.9 2,4.15 0.7,1.65 0.3,1.15 q 1.85,-0.2 3.9,1.35 2.55,1.75 4.25,4.45 l 2.45,-2.55 Q 59.5,15.55 69,14.1 q 2.5,-0.3 3.75,-0.05 2.15,0.45 2.95,2.15 0.3,0.8 0,1.2 -0.3,0.4 -1.25,0.4 h -0.1 q 0.5,0.9 0.7,2.25 0.6,3.8 -0.4,10.8 l -0.35,2.7 q -0.2,1.4 -0.05,2.1 l 0.5,1.8 q 0.15,1.25 -0.65,2.2 -0.9,1 -2.1,0.9 L 70.95,40.3 70.15,41 67.6,41.2 65.25,40.8 64.55,40.4 H 48.6 q -0.9,1.2 -2.1,1.15 -0.8,-0.05 -1.45,-0.7 -0.6,-0.65 -0.8,-1.5 Q 44,38 44.65,36 L 45.95,32.55 45.4,32 q -2.9,-2.75 -5.85,-4.7 m 3,-18.65 Q 42.1,7.75 42.1,7.05 v -1.1 l 0.1,-0.65 0.65,-0.7 0.9,-0.15 q 1.15,0.2 1.25,1.2 0.1,0.8 -0.6,1.3 L 43.6,7.65 43.4,8.5 43.2,8.9 42.8,8.95 42.55,8.65 M 41.2,17.7 q 0.4,-0.25 0.75,-0.35 L 41.8,17 39.45,12.5 q 0,0.75 -0.85,1.15 l -1.45,0.1 q 0.45,1.4 1.2,2.65 l 1.05,2 v 0.2 l 1.8,-0.9 m -12.25,-8.85 -0.3,0.4 q -0.55,0.9 -1.6,0.9 -1.1,0 -1.65,-0.95 Q 25.05,8.6 25.25,7.85 25.4,7.1 25.95,6.65 27,5.65 28.6,6 29.8,6.2 31.1,7.25 32.25,8.2 32.3,9 L 32.15,9.55 Q 31.8,9.9 30.95,9.35 30.2,8.95 29.45,8.8 l -0.5,0.05"
         fill="#000000"
         fill-rule="evenodd"
         stroke="none"
         id="path10" />
    </g>
    <g
       id="shape2"
       transform="translate(2,2.05)">
      <path
         d="M -0.5,-0.4 V -0.55 H 75.1 V -0.4 40.8 H -0.5 Z"
         fill="none"
         stroke="#000000"
         stroke-linecap="round"
         stroke-linejoin="round"
         stroke-width="3"
         id="path11" />
    </g>
  </defs>
</svg>
