<?xml version="1.0" encoding="UTF-8" standalone="no"?>
<svg
   ffdec:objectType="frame"
   height="60.549999"
   width="67.099998"
   version="1.1"
   id="svg7"
   sodipodi:docname="576.svg"
   xmlns:inkscape="http://www.inkscape.org/namespaces/inkscape"
   xmlns:sodipodi="http://sodipodi.sourceforge.net/DTD/sodipodi-0.dtd"
   xmlns:xlink="http://www.w3.org/1999/xlink"
   xmlns="http://www.w3.org/2000/svg"
   xmlns:svg="http://www.w3.org/2000/svg"
   xmlns:ffdec="https://www.free-decompiler.com/flash">
  <sodipodi:namedview
     id="namedview7"
     pagecolor="#ffffff"
     bordercolor="#000000"
     borderopacity="0.25"
     inkscape:showpageshadow="2"
     inkscape:pageopacity="0.0"
     inkscape:pagecheckerboard="0"
     inkscape:deskcolor="#d1d1d1"
     fit-margin-top="5"
     fit-margin-left="5"
     fit-margin-right="5"
     fit-margin-bottom="5" />
  <g
     transform="translate(1.5,1.5)"
     id="g3">
    <use
       ffdec:characterId="516"
       height="57.549999"
       width="64.099998"
       xlink:href="#shape0"
       id="use1" />
    <use
       ffdec:characterId="1068"
       height="56.700001"
       transform="translate(-0.2,0.9)"
       width="61.400002"
       xlink:href="#shape1"
       id="use2" />
    <use
       ffdec:characterId="518"
       height="60.549999"
       transform="translate(-1.5,-1.5)"
       width="67.099998"
       xlink:href="#shape2"
       id="use3" />
  </g>
  <defs
     id="defs7">
    <g
       id="shape0">
      <path
         d="M 53.6,0 H 64.1 V 57.55 H 53.6 28.25 0 V 0 H 28.25 53.6 V 57.55 0 M 28.25,0 V 57.55 0"
         fill="#ffffff"
         fill-rule="evenodd"
         stroke="none"
         id="path3" />
    </g>
    <g
       id="shape1"
       transform="translate(0.2,-0.9)">
      <path
         d="m 30.85,14.25 q -0.7,-1.45 -2.6,-3.6 -3.05,-3.4 -5.5,-5.1 L 21.2,4.5 Q 17.7,2.15 7.2,2.85 6.45,2.95 6.2,2.55 6.8,2.2 8.45,1.75 L 12.25,1 13.45,0.95 20.3,1.2 q 3.85,0.5 6.7,1.8 2.7,1.15 6.25,4.15 2.85,2.35 4.05,4.35 1,1.8 1.8,5.35 0.8,3.8 0.8,6.45 l -0.45,4.3 q -1.05,6 -2.45,9.3 -2,5 -5.85,7.5 -1.3,0.8 -2.2,0.9 -1.55,0.05 -2.15,-0.95 -0.7,-1.1 0.05,-2.95 l 1.85,-3.45 1.6,-3.5 q 0.8,-2 1.4,-5.5 0.75,-3.25 0.8,-5.35 l -0.45,-4.5 q -0.5,-3.3 -1.2,-4.85 m -8,16.4 0.1,-1.55 0.15,-1.9 -0.5,-2.1 -0.15,-3.25 Q 22.4,18.15 21.8,15.9 20.8,12.6 18.4,11.1 17.3,10.35 14.95,9.6 L 13.25,9.15 13.3,8.9 14.7,8.95 q 3.35,0.15 5.15,0.85 2.2,0.8 4.8,3.3 l 1.55,1.75 q 2.55,3.3 2.15,8.9 -0.1,2.8 -1.1,4.65 -1.3,2.5 -3.7,2.95 L 23.1,31.3 22.85,30.65 m 12.45,21.05 -0.05,-1 q 0.2,-0.65 0.75,-0.6 0.4,0 0.7,0.55 l 1.25,1.65 q 0.95,1.15 0.85,2.05 -0.05,0.6 -0.6,1.05 L 37,55.7 Q 36.45,55.65 35.95,55.2 L 35.4,54.1 V 53.15 L 35.3,51.7 m -8,2.1 0.65,-0.7 0.5,-0.45 1.1,-0.5 0.55,-0.4 0.75,-0.3 0.45,-0.55 1.3,-0.95 0.45,-0.45 0.65,0.1 -0.1,0.65 -1.1,2.3 -0.8,1.65 -0.3,0.8 -0.9,1.5 -0.7,0.7 -2.35,-0.05 q -1.15,-0.9 -0.75,-2.2 l 0.6,-1.15"
         fill="#999999"
         fill-rule="evenodd"
         stroke="none"
         id="path4" />
      <path
         d="M 39.55,51.15 Q 38.1,50 37.25,48 q -1.2,-2.9 -0.7,-6.1 0.2,-1.55 0.85,-2.85 0.7,-1.2 1.65,-2.05 1.3,-1.2 3,-1.9 -1.55,-3.5 -0.7,-6.7 0.25,-1.05 1,-2.5 0.8,-1.7 2.05,-2.75 1.4,-1.1 3.65,-1.6 l 2.35,-0.1 q 0.35,-1.65 0.15,-3.4 l -0.5,-1.55 -1.4,-1.7 q -1,-1.05 -1.2,-1.85 Q 47.25,11.7 48.1,9.85 48.55,9 49.15,8.55 L 49.9,7.95 50.2,7.55 50.7,7.6 50.55,8 q -0.9,1.15 -1.25,2.55 -0.15,0.55 0,0.95 l 1.15,1 q 3,1.4 4.15,4 1.2,2.4 0.6,5.95 l 1.85,1.45 q 1.9,1.75 2.2,3.15 0.5,1.3 0.05,3.6 -0.45,2.5 -1.5,4.05 l -0.85,1.1 h 0.1 q 2.25,0.4 3.5,2.4 0.55,0.85 0.55,1.6 l -0.05,1.6 -0.3,1.55 -0.5,0.85 q -1.05,1.55 -2.5,1.8 h -0.1 l -1.7,3.3 -1.9,2.55 q -2.1,2.05 -5.6,2.3 -2.7,0.25 -6.1,-1.05 -1.8,-0.75 -2.8,-1.55 M 54.7,48.7 q -0.3,-1.35 -1.65,-1.6 -1.35,-0.3 -2.2,0.7 -0.5,0.6 -0.5,1.45 0,0.8 0.45,1.35 0.5,0.55 1.3,0.75 l 1.4,-0.2 1.05,-0.95 q 0.3,-0.75 0.15,-1.5 m -7.3,-3.5 -1.35,-0.25 q -0.7,0.2 -1.15,0.65 -0.4,0.3 -0.55,0.75 -0.25,0.5 -0.25,1.2 -0.1,0.5 0.1,1 0.35,0.85 1.5,1 l 1.4,-0.2 0.65,-0.75 0.5,-0.9 0.6,-0.65 0.9,-0.35 q 0.6,-0.3 0.35,-0.75 -0.1,-0.4 -0.8,-0.4 L 48.4,45.7 47.85,45.5 47.4,45.2 m 3.1,-3.4 0.3,-1.1 0.15,-1.35 0.15,-1.1 q 0,-0.65 -0.45,-0.7 -0.3,0 -0.5,0.65 l -0.3,2 -0.8,-1 -0.8,-0.95 -0.75,-0.1 q -0.45,0.05 -0.7,0.35 l -0.25,0.8 0.35,0.7 0.9,0.55 0.85,0.85 0.7,1.1 0.8,-0.05 0.35,-0.65 m -37,-5.75 0.25,-0.4 1.2,-1.85 Q 15.4,32.4 14.25,30.1 11.55,25.15 5.5,21.6 3.15,20.15 -0.2,18.75 V 8.45 l 2.35,0.5 4.7,1.2 q 3.9,1.15 5.7,1.95 13.8,5.05 20.2,14.1 3.65,5.3 3.55,10.4 -0.1,2.15 -0.95,4.8 -1.45,4.35 -3.4,6.85 -3.6,4.3 -9.1,4.55 -2.7,0.15 -5.15,-0.9 -2.6,-1.15 -4.2,-3.15 -1.65,-2.05 -2.05,-4.8 -0.4,-1.95 0,-3.85 l 1.05,0.8 1.8,0.15 q 0.75,-0.2 1.2,-0.9 l 0.6,-1.45 q 0.1,-0.75 -0.4,-1.35 -0.4,-0.8 -1.1,-1.1 l -1.1,-0.2 m 10.85,-0.1 -1.35,0.1 q -0.7,0.3 -1.1,0.95 -0.35,0.65 -0.25,1.4 0.05,0.7 0.45,1.25 0.45,0.6 1.2,0.7 l 1.45,-0.05 q 0.7,-0.25 1.05,-0.9 0.4,-0.7 0.4,-1.45 -0.2,-1.55 -1.85,-2 m -3.6,5.4 q -0.35,-0.7 -1.05,-1.2 -0.75,-0.45 -1.55,-0.35 -0.75,0.1 -1.4,0.7 -0.6,0.5 -0.75,1.3 -0.15,0.75 0.25,1.5 0.35,0.75 1.05,1.15 l 1.55,0.15 q 0.85,-0.2 1.4,-0.75 0.95,-1 0.5,-2.5 M 18,30.2 q -2,1 -2.65,2.65 l -0.25,0.8 q -0.3,1.55 0.4,2.7 0.75,1.05 1.85,1.4 1.25,0.4 2.35,-0.25 l 1.1,-0.65 q 1.6,-1.3 1.9,-2.2 l 0.2,-0.6 q 0.3,-1.3 -0.15,-2.25 -0.35,-0.8 -1,-1.05 -0.5,-0.35 -1.55,-0.6 L 18.8,29.95 18,30.2"
         fill="#000000"
         fill-rule="evenodd"
         stroke="none"
         id="path5" />
      <path
         d="m 50.5,41.8 -0.35,0.65 -0.8,0.05 -0.7,-1.1 L 47.8,40.55 46.9,40 46.55,39.3 46.8,38.5 q 0.25,-0.3 0.7,-0.35 l 0.75,0.1 0.8,0.95 0.8,1 0.3,-2 q 0.2,-0.65 0.5,-0.65 0.45,0.05 0.45,0.7 l -0.15,1.1 -0.15,1.35 -0.3,1.1 m -3.1,3.4 0.45,0.3 0.55,0.2 0.9,-0.15 q 0.7,0 0.8,0.4 0.25,0.45 -0.35,0.75 l -0.9,0.35 -0.6,0.65 -0.5,0.9 -0.65,0.75 -1.4,0.2 q -1.15,-0.15 -1.5,-1 -0.2,-0.5 -0.1,-1 0,-0.7 0.25,-1.2 0.15,-0.45 0.55,-0.75 0.45,-0.45 1.15,-0.65 l 1.35,0.25 m 7.3,3.5 q 0.15,0.75 -0.15,1.5 l -1.05,0.95 -1.4,0.2 q -0.8,-0.2 -1.3,-0.75 -0.45,-0.55 -0.45,-1.35 0,-0.85 0.5,-1.45 0.85,-1 2.2,-0.7 1.35,0.25 1.65,1.6 m -43.25,-8.6 -0.2,-0.4 q -0.4,-0.75 -0.25,-1.55 0.1,-0.8 0.7,-1.3 0.8,-0.85 1.8,-0.8 l 1.1,0.2 q 0.7,0.3 1.1,1.1 0.5,0.6 0.4,1.35 l -0.6,1.45 q -0.45,0.7 -1.2,0.9 L 12.5,40.9 11.45,40.1 m 6.55,-9.9 0.8,-0.25 1.4,0.2 q 1.05,0.25 1.55,0.6 0.65,0.25 1,1.05 0.45,0.95 0.15,2.25 l -0.2,0.6 q -0.3,0.9 -1.9,2.2 l -1.1,0.65 q -1.1,0.65 -2.35,0.25 -1.1,-0.35 -1.85,-1.4 -0.7,-1.15 -0.4,-2.7 l 0.25,-0.8 Q 16,31.2 18,30.2 m 2.75,11.15 q 0.45,1.5 -0.5,2.5 -0.55,0.55 -1.4,0.75 L 17.3,44.45 q -0.7,-0.4 -1.05,-1.15 -0.4,-0.75 -0.25,-1.5 0.15,-0.8 0.75,-1.3 0.65,-0.6 1.4,-0.7 0.8,-0.1 1.55,0.35 0.7,0.5 1.05,1.2 m 3.6,-5.4 q 1.65,0.45 1.85,2 0,0.75 -0.4,1.45 -0.35,0.65 -1.05,0.9 L 23.3,40.35 Q 22.55,40.25 22.1,39.65 21.7,39.1 21.65,38.4 21.55,37.65 21.9,37 22.3,36.35 23,36.05 l 1.35,-0.1"
         fill="#ffffff"
         fill-rule="evenodd"
         stroke="none"
         id="path6" />
    </g>
    <g
       id="shape2"
       transform="translate(1.5,1.5)">
      <path
         d="M 0,23.8 V 0 H 64.1 V 23.8 57.55 H 0 Z"
         fill="none"
         stroke="#000000"
         stroke-linecap="round"
         stroke-linejoin="round"
         stroke-width="3"
         id="path7" />
    </g>
  </defs>
</svg>
