<?xml version="1.0" encoding="UTF-8" standalone="no"?>
<svg
   ffdec:objectType="frame"
   height="60.549999"
   width="67.099998"
   version="1.1"
   id="svg8"
   sodipodi:docname="703.svg"
   xmlns:inkscape="http://www.inkscape.org/namespaces/inkscape"
   xmlns:sodipodi="http://sodipodi.sourceforge.net/DTD/sodipodi-0.dtd"
   xmlns:xlink="http://www.w3.org/1999/xlink"
   xmlns="http://www.w3.org/2000/svg"
   xmlns:svg="http://www.w3.org/2000/svg"
   xmlns:ffdec="https://www.free-decompiler.com/flash">
  <sodipodi:namedview
     id="namedview8"
     pagecolor="#ffffff"
     bordercolor="#000000"
     borderopacity="0.25"
     inkscape:showpageshadow="2"
     inkscape:pageopacity="0.0"
     inkscape:pagecheckerboard="0"
     inkscape:deskcolor="#d1d1d1"
     fit-margin-top="5"
     fit-margin-left="5"
     fit-margin-right="5"
     fit-margin-bottom="5" />
  <g
     transform="translate(1.5,1.5)"
     id="g3">
    <use
       ffdec:characterId="516"
       height="57.549999"
       width="64.099998"
       xlink:href="#shape0"
       id="use1" />
    <use
       ffdec:characterId="1193"
       height="58.75"
       transform="translate(-0.45,-0.85)"
       width="65.900002"
       xlink:href="#shape1"
       id="use2" />
    <use
       ffdec:characterId="518"
       height="60.549999"
       transform="translate(-1.5,-1.5)"
       width="67.099998"
       xlink:href="#shape2"
       id="use3" />
  </g>
  <defs
     id="defs8">
    <g
       id="shape0">
      <path
         d="M 53.6,0 H 64.1 V 57.55 H 53.6 28.25 0 V 0 H 28.25 53.6 V 57.55 0 M 28.25,0 V 57.55 0"
         fill="#ffffff"
         fill-rule="evenodd"
         stroke="none"
         id="path3" />
    </g>
    <g
       id="shape1"
       transform="translate(0.45,0.85)">
      <path
         d="M 36.95,0 H 59.3 l -0.25,0.2 q -0.2,0.25 -0.3,1.2 L 58.3,3.45 56.9,9.95 56.6,12.1 55.95,12.3 51.5,14 q -0.9,0.55 -1.25,1.05 -0.3,0.55 -0.3,2.1 0.1,2.85 -0.6,5.65 l -0.9,-0.55 q -1.1,-0.7 -1.7,-0.95 l -0.25,-0.1 -0.35,-0.3 -1.5,-0.1 q -0.75,0.4 -0.75,1.25 0,0.7 0.65,1.25 l 0.1,0.05 -0.2,1.05 q 0.1,4 -1.9,7.35 l -0.2,0.55 0.35,0.4 q 0.7,0.2 1.25,-0.9 L 45,29.55 44.85,30 44.6,30.6 q -0.15,0.4 0.1,0.65 l 0.6,-0.15 0.35,-0.55 0.6,-0.65 0.7,-0.65 1.1,-1.8 0.35,-0.35 0.45,0.1 0.4,0.15 1.2,0.15 0.8,-0.75 0.25,-0.65 0.45,-0.1 1.3,-0.6 q 1.35,-0.65 5.55,-2.15 l 2.8,5.05 1.25,1.75 q 0.25,0.35 0.55,0.35 0.5,-0.1 0.4,-0.65 L 63.5,29 63,27.7 62.1,26.3 Q 60.9,24.65 60,22.65 l -0.55,-0.75 -0.9,0.1 -4.4,1.7 -2.35,1.1 0.25,-2.05 0.1,-1.1 0.25,-3.15 -0.05,-0.75 -0.1,-0.15 0.2,-0.7 q 0.2,-0.3 0.75,-0.5 1,-0.45 5.05,-1.95 3.15,-1.15 4.95,-2.15 l 0.9,-0.7 v 45.95 h -7.6 l 0.2,-0.3 0.05,-0.45 -0.3,-0.9 -1.3,-3.4 L 55.1,52.05 55,51.4 55.8,50.25 q 1.1,-2.3 1.8,-7.55 1.25,0.9 2.15,2.15 1.2,1.6 1.85,1.95 l 1.35,0.15 q 0.75,-0.2 0.95,-0.8 0.2,-0.55 -0.3,-1.35 L 62.55,43.75 60.6,41.65 58.65,39.5 q -1.5,-1.25 -2.55,-0.6 -0.6,0.4 -0.8,1.7 l -1.15,6.5 q -3.3,-5.75 -6.1,-9.1 l -1.2,-1.1 -1.6,-0.05 -0.55,0.75 -0.55,0.15 -4.25,1.85 -1.6,0.6 -1.35,0.6 q -0.6,0.5 -0.6,1.95 l 0.2,2.2 0.15,1.1 0.3,1.2 q 0.35,0.6 1.05,0.85 l 0.35,0.1 0.35,1 q 0.5,1.05 0.9,3 L 39.6,52.25 39.45,52.7 Q 39.4,53 39.6,53.15 l 0.2,0.05 0.3,2.3 0.25,0.85 q 0.4,0.5 0.8,0.3 0.35,-0.1 0.45,-0.95 l -0.2,-4.3 0.9,-1.95 0.95,-2.05 1.25,3.6 0.1,0.8 q 0.2,0.55 0.55,0.6 l 0.75,-0.15 4.6,-1.3 2.35,-0.35 0.4,0.5 q 0.3,0.3 0.7,0.45 l -0.1,0.4 0.2,1.25 0.6,2.75 0.1,0.8 q 0,0.45 0.3,0.75 l 0.05,0.05 H 0 V 0 H 6.4 L 6.3,0.8 Q 6.55,2.35 6.95,3.45 L 7.05,4.25 6.7,4.75 5.55,6.3 4.4,7.45 3.3,8.6 Q 2.9,9.4 3,9.85 l 0.3,0.7 0.4,0.85 1.2,2.6 0.85,2.05 -3.6,0.5 Q 1.1,16.75 0.75,17.15 0.4,17.5 0.45,18.1 0.55,18.7 1,19 l 1.15,0.15 1.25,-0.4 q 1.95,-0.7 6.55,-0.9 l 0.8,4.9 q 0.2,1.45 0.9,1.6 0.5,0.15 1.4,-0.35 0.8,-0.45 2.7,-1.25 l 2.7,-1.25 v 3.45 l -0.4,0.3 -1.65,1.55 -0.8,0.6 q -0.45,0.45 -0.45,0.9 0,0.55 0.6,1.25 l 4.05,4.8 0.8,0.7 1.3,-0.05 q 0.6,-0.45 0.6,-1.15 -0.05,-0.65 -0.85,-1.55 l -2.7,-3.15 0.15,-0.2 0.85,-1.35 0.2,-0.6 -0.25,-0.65 -0.1,-0.05 0.9,-1 q 0.5,-0.6 0.35,-0.95 -0.05,-0.3 -0.5,-0.4 l -0.65,0.1 -0.4,0.15 0.25,-3.4 q 0.1,-0.65 -0.15,-0.95 -0.2,-0.3 -0.75,-0.3 L 18,19.8 12.75,22 l -0.9,-5.15 -0.5,-1.05 -1,-0.2 -3.7,0.35 -1.8,-4.85 Q 4.45,10.1 4.6,9.55 L 5.65,8.35 6.7,7.05 7.85,5.75 8.35,5.25 8.5,4.3 8.1,2.65 Q 7.8,1.6 7.8,1 L 7.7,0 h 21.25 q -0.3,0 -0.5,0.25 -0.25,0.2 -0.2,0.5 l 0.2,0.7 0.3,0.4 0.45,0.45 0.15,0.2 0.1,0.25 0.25,0.35 1.25,1.35 0.2,0.45 -1.5,1.15 Q 28.3,7.1 28.35,7.95 L 29,9.25 q 0.8,1.2 1.4,3.75 l 0.1,0.35 -0.75,0.5 -0.25,0.5 q 0,0.4 0.25,0.6 l 0.6,0.2 0.1,0.05 0.75,0.05 q 0.4,0.15 1.1,-0.3 1.8,-0.95 3.55,-1.3 0.7,1.05 1.6,1.7 L 38,15.6 q 0.35,-0.1 0.35,-0.5 L 38.2,14.45 38,14.1 38.05,14 38.1,14.05 q 0.3,0.2 0.55,0 0.3,-0.25 0.1,-0.85 l -0.85,-1.4 -0.4,-0.6 -0.6,-0.65 -1.2,0.2 -1.55,0.65 -2,1 L 32,12.5 Q 31.35,10 30.15,7.95 L 30.05,7.6 30.3,7.35 33.9,4.45 36.55,2.5 37.25,1.6 37,0.9 36.95,0 M 60.2,0 h 3.9 V 10.5 10.45 Q 64.1,10 63.65,9.8 L 63.3,9.65 62.95,9.5 62.45,9.4 61.25,10 60.65,10.45 60.35,10.6 58.2,11.55 58.95,8 59.1,6.8 59.4,5.55 60.5,1.45 60.45,0.25 60.2,0 m -31,0 h 6.35 L 35.45,1.3 34.85,1.95 32.05,4.2 31.7,3.6 30.95,2.75 30.4,1.8 30.05,1.4 29.7,0.4 Q 29.6,0.1 29.2,0 m -0.1,47.75 0.15,-4.05 q 0,-1.3 -0.35,-1.8 L 27.8,41.1 24.85,40 22.3,39.95 Q 21.65,40.4 21.35,41.6 L 20.8,43.5 16.15,34.6 Q 15.45,33.2 14.6,33.05 13.7,32.95 12.65,34.2 11.25,36.1 9.8,39.85 8.15,44.3 7.3,45.8 L 6,47.95 5,50.25 3.9,49.45 2.75,48.6 1.4,48.3 q -0.8,0.1 -1.1,0.7 -0.25,0.5 0,1.1 l 0.75,0.95 1,0.65 1,0.6 1.2,1.1 q 0.9,0.6 1.5,0.4 L 6.7,53.05 7.2,51.8 q 0.45,-1.35 1.55,-3.2 l 1.8,-3.1 1.95,-4.15 1.65,-3.8 3.55,7 q 1.1,2.2 2.1,2.9 0.55,0.45 1.25,0.5 0.8,0.05 1.25,-0.4 l 0.65,-1.35 q 0.55,-1.55 1.35,-2.8 l 0.5,0.15 0.1,0.2 0.1,1.65 0.1,0.6 v 0.55 l 0.25,1.6 0.1,0.55 -0.75,1.2 -0.8,1.6 -2.2,3.25 -0.85,0.95 q -0.2,0.4 -0.1,0.85 0.1,0.45 0.5,0.6 l 0.45,0.05 0.45,0.05 q 0.45,0 0.8,-0.45 l 0.3,-0.65 0.05,-0.05 q 0.25,-0.2 0.75,-0.4 L 25.1,55.1 26,53.55 q 0.6,-1.45 1.45,-2.3 L 28.6,50.1 q 0.5,-0.8 0.5,-2.35 m 16.8,-5.55 0.6,-1.3 q 3.05,4.05 5.35,8.05 L 45.8,50.7 45.35,49.15 44.6,47.65 44.15,46.2 44,45.85 44.5,45 45.9,42.2 m 0.1,-17.05 0.65,0.15 -1.2,3.05 -0.35,0.9 q 0.75,-2.15 0.9,-4.1"
         fill="#999999"
         fill-rule="evenodd"
         stroke="none"
         id="path4" />
      <path
         d="m 35.55,0 0.25,-0.6 q 0.2,-0.3 0.5,-0.25 0.5,0.05 0.6,0.75 L 36.95,0 37,0.9 l 0.25,0.7 -0.7,0.9 -2.65,1.95 -3.6,2.9 -0.25,0.25 0.1,0.35 Q 31.35,10 32,12.5 l 0.15,-0.1 2,-1 1.55,-0.65 1.2,-0.2 0.6,0.65 0.4,0.6 0.85,1.4 q 0.2,0.6 -0.1,0.85 -0.25,0.2 -0.55,0 L 38.05,14 38,14.1 l 0.2,0.35 0.15,0.65 q 0,0.4 -0.35,0.5 l -0.55,-0.25 q -0.9,-0.65 -1.6,-1.7 -1.75,0.35 -3.55,1.3 -0.7,0.45 -1.1,0.3 l -0.75,-0.05 -0.1,-0.05 -0.6,-0.2 q -0.25,-0.2 -0.25,-0.6 l 0.25,-0.5 0.75,-0.5 L 30.4,13 Q 29.8,10.45 29,9.25 L 28.35,7.95 Q 28.3,7.1 29.65,6.05 L 31.15,4.9 30.95,4.45 29.7,3.1 29.45,2.75 29.35,2.5 29.2,2.3 28.75,1.85 28.45,1.45 28.25,0.75 Q 28.2,0.45 28.45,0.25 28.65,0 28.95,0 L 29,-0.05 29.2,0 q 0.4,0.1 0.5,0.4 l 0.35,1 0.35,0.4 0.55,0.95 0.75,0.85 0.35,0.6 2.8,-2.25 0.6,-0.65 0.1,-1.3 m 23.75,0 0.45,-0.1 0.45,0.1 0.25,0.25 0.05,1.2 -1.1,4.1 -0.3,1.25 -0.15,1.2 -0.75,3.55 2.15,-0.95 0.3,-0.15 0.6,-0.45 1.2,-0.6 0.5,0.1 0.35,0.15 0.35,0.15 q 0.45,0.2 0.45,0.65 v 0.05 q 0.25,0.4 0.05,0.95 l -0.05,0.15 -0.9,0.7 q -1.8,1 -4.95,2.15 -4.05,1.5 -5.05,1.95 -0.55,0.2 -0.75,0.5 l -0.2,0.7 0.1,0.15 0.05,0.75 -0.25,3.15 -0.1,1.1 -0.25,2.05 2.35,-1.1 4.4,-1.7 0.9,-0.1 0.55,0.75 q 0.9,2 2.1,3.65 l 0.9,1.4 0.5,1.3 0.3,0.75 q 0.1,0.55 -0.4,0.65 -0.3,0 -0.55,-0.35 L 61.6,28.3 58.8,23.25 q -4.2,1.5 -5.55,2.15 l -1.3,0.6 -0.45,0.1 -0.25,0.65 -0.8,0.75 -1.2,-0.15 -0.4,-0.15 -0.45,-0.1 -0.35,0.35 -1.1,1.8 -0.7,0.65 -0.6,0.65 -0.35,0.55 -0.6,0.15 Q 44.45,31 44.6,30.6 L 44.85,30 45,29.55 43.95,31.8 q -0.55,1.1 -1.25,0.9 l -0.35,-0.4 0.2,-0.55 q 2,-3.35 1.9,-7.35 l 0.2,-1.05 -0.1,-0.05 q -0.65,-0.55 -0.65,-1.25 0,-0.85 0.75,-1.25 l 1.5,0.1 0.35,0.3 0.25,0.1 q 0.6,0.25 1.7,0.95 l 0.9,0.55 q 0.7,-2.8 0.6,-5.65 0,-1.55 0.3,-2.1 0.35,-0.5 1.25,-1.05 l 4.45,-1.7 0.65,-0.2 0.3,-2.15 1.4,-6.5 0.45,-2.05 q 0.1,-0.95 0.3,-1.2 L 59.3,0 M 56.5,57.55 55.95,57.8 55.1,57.55 55.05,57.5 q -0.3,-0.3 -0.3,-0.75 l -0.1,-0.8 -0.6,-2.75 -0.2,-1.25 0.1,-0.4 q -0.4,-0.15 -0.7,-0.45 l -0.4,-0.5 -2.35,0.35 -4.6,1.3 -0.75,0.15 Q 44.8,52.35 44.6,51.8 l -0.1,-0.8 -1.25,-3.6 -0.95,2.05 -0.9,1.95 0.2,4.3 q -0.1,0.85 -0.45,0.95 -0.4,0.2 -0.8,-0.3 L 40.1,55.5 39.8,53.2 39.6,53.15 Q 39.4,53 39.45,52.7 l 0.15,-0.45 0.05,-0.05 q -0.4,-1.95 -0.9,-3 l -0.35,-1 -0.35,-0.1 Q 37.35,47.85 37,47.25 l -0.3,-1.2 -0.15,-1.1 -0.2,-2.2 q 0,-1.45 0.6,-1.95 l 1.35,-0.6 1.6,-0.6 4.25,-1.85 0.55,-0.15 0.55,-0.75 1.6,0.05 1.2,1.1 q 2.8,3.35 6.1,9.1 l 1.15,-6.5 q 0.2,-1.3 0.8,-1.7 1.05,-0.65 2.55,0.6 l 1.95,2.15 1.95,2.1 1.05,1.05 q 0.5,0.8 0.3,1.35 -0.2,0.6 -0.95,0.8 L 61.6,46.8 q -0.65,-0.35 -1.85,-1.95 -0.9,-1.25 -2.15,-2.15 -0.7,5.25 -1.8,7.55 l -0.8,1.15 0.1,0.65 0.05,0.45 1.3,3.4 0.3,0.9 -0.05,0.45 -0.2,0.3 M 6.4,0 v -0.05 q 0.2,-0.35 0.65,-0.35 0.4,0 0.6,0.35 L 7.7,0 7.8,1 q 0,0.6 0.3,1.65 L 8.5,4.3 8.35,5.25 7.85,5.75 6.7,7.05 5.65,8.35 4.6,9.55 Q 4.45,10.1 4.85,11.1 l 1.8,4.85 3.7,-0.35 1,0.2 0.5,1.05 0.9,5.15 5.25,-2.2 0.85,-0.25 q 0.55,0 0.75,0.3 0.25,0.3 0.15,0.95 l -0.25,3.4 0.4,-0.15 0.65,-0.1 q 0.45,0.1 0.5,0.4 0.15,0.35 -0.35,0.95 l -0.9,1 0.1,0.05 0.25,0.65 -0.2,0.6 -0.85,1.35 -0.15,0.2 2.7,3.15 q 0.8,0.9 0.85,1.55 0,0.7 -0.6,1.15 l -1.3,0.05 -0.8,-0.7 -4.05,-4.8 q -0.6,-0.7 -0.6,-1.25 0,-0.45 0.45,-0.9 l 0.8,-0.6 1.65,-1.55 0.4,-0.3 V 21.5 l -2.7,1.25 q -1.9,0.8 -2.7,1.25 -0.9,0.5 -1.4,0.35 -0.7,-0.15 -0.9,-1.6 l -0.8,-4.9 q -4.6,0.2 -6.55,0.9 L 2.15,19.15 1,19 Q 0.55,18.7 0.45,18.1 0.4,17.5 0.75,17.15 1.1,16.75 2.15,16.55 L 5.75,16.05 4.9,14 3.7,11.4 3.3,10.55 3,9.85 Q 2.9,9.4 3.3,8.6 L 4.4,7.45 5.55,6.3 6.7,4.75 7.05,4.25 6.95,3.45 Q 6.55,2.35 6.3,0.8 L 6.4,0 M 46,25.15 q -0.15,1.95 -0.9,4.1 l 0.35,-0.9 1.2,-3.05 L 46,25.15 M 45.9,42.2 44.5,45 44,45.85 l 0.15,0.35 0.45,1.45 0.75,1.5 0.45,1.55 6.05,-1.75 q -2.3,-4 -5.35,-8.05 l -0.6,1.3 m -16.8,5.55 q 0,1.55 -0.5,2.35 l -1.15,1.15 Q 26.6,52.1 26,53.55 l -0.9,1.55 -1.05,0.6 q -0.5,0.2 -0.75,0.4 l -0.05,0.05 -0.3,0.65 q -0.35,0.45 -0.8,0.45 L 21.7,57.2 21.25,57.15 q -0.4,-0.15 -0.5,-0.6 -0.1,-0.45 0.1,-0.85 l 0.85,-0.95 2.2,-3.25 0.8,-1.6 0.75,-1.2 -0.1,-0.55 -0.25,-1.6 V 46 L 25,45.4 24.9,43.75 24.8,43.55 24.3,43.4 q -0.8,1.25 -1.35,2.8 l -0.65,1.35 q -0.45,0.45 -1.25,0.4 -0.7,-0.05 -1.25,-0.5 -1,-0.7 -2.1,-2.9 l -3.55,-7 -1.65,3.8 -1.95,4.15 -1.8,3.1 Q 7.65,50.45 7.2,51.8 L 6.7,53.05 5.75,53.8 Q 5.15,54 4.25,53.4 l -1.2,-1.1 -1,-0.6 -1,-0.65 L 0.3,50.1 Q 0.05,49.5 0.3,49 0.6,48.4 1.4,48.3 l 1.35,0.3 1.15,0.85 1.1,0.8 1,-2.3 1.3,-2.15 q 0.85,-1.5 2.5,-5.95 1.45,-3.75 2.85,-5.65 1.05,-1.25 1.95,-1.15 0.85,0.15 1.55,1.55 l 4.65,8.9 0.55,-1.9 q 0.3,-1.2 0.95,-1.65 l 2.55,0.05 2.95,1.1 1.1,0.8 q 0.35,0.5 0.35,1.8 l -0.15,4.05"
         fill="#ffffff"
         fill-rule="evenodd"
         stroke="none"
         id="path5" />
      <path
         d="M 55.1,8.4 56.45,8.25 57.5,8.5 q 1.2,0.4 2.05,1.4 l 0.8,1.25 q 0.75,0.05 1.3,0.5 l 0.35,0.5 0.3,0.55 0.15,1.05 -0.05,0.55 q -0.05,0.75 -0.65,1.4 l -0.2,0.25 -0.6,0.4 q -1,0.55 -1.9,0 l -0.3,0.2 L 58,17 v 0.3 l -0.2,1.15 -0.5,1.2 -1.15,1.25 q -0.85,0.55 -2.8,0.75 l -1.1,0.05 h -0.1 l -0.65,0.6 -0.55,0.5 -0.4,0.55 -0.4,0.3 -0.35,0.25 -0.45,0.1 q -0.3,-0.05 -0.3,-0.45 l 0.2,-0.55 1,-2.35 0.05,-0.1 -0.4,-0.35 Q 49.05,19 49.4,17 l 0.2,-0.75 0.4,-0.8 0.85,-1 -0.05,-0.25 -0.05,-1.05 0.15,-0.8 -0.6,-0.6 Q 49.8,10.95 50.25,9.9 50.6,9.05 51.55,8.55 L 52.7,8.1 54.2,8.3 54.6,8.55 55.1,8.4 m 3.15,3.4 q -0.6,0.15 -0.95,0.65 -0.35,0.55 -0.3,1.1 0.1,0.6 0.55,1 0.5,0.45 1.1,0.4 0.55,-0.05 1,-0.5 0.45,-0.45 0.5,-1 0,-0.75 -0.5,-1.2 -0.55,-0.6 -1.4,-0.45 m -5.75,0.5 q 0.5,1 1.7,0.9 1.05,-0.1 1.5,-1.2 V 11.05 L 55.15,10.2 Q 54.3,9.45 53.25,9.95 52.8,10.2 52.5,10.7 q -0.4,0.75 0,1.6 M 25.2,41.25 Q 23.1,40.3 21.55,38.4 20.05,36.55 19.35,34.2 18.1,30 19.45,24.85 L 19.55,24.5 19.4,24.1 19,23.15 Q 17.95,20.7 17.65,18 q -0.1,-1.25 0.05,-1.85 0.25,-1 0.95,-1.55 l 1.5,-0.4 1.6,0.15 4,0.3 0.5,-0.05 q 1.45,-0.85 3.15,-1.35 3,-0.9 6.3,-0.6 l 1.45,0.25 0.15,-0.1 q 1.95,-1 4.55,-1.85 l 1.45,-0.3 q 0.8,0 1.3,0.5 0.45,0.4 0.65,1.65 l 0.95,6.6 0.05,1.15 q 1.1,2.65 1.2,6.2 0.1,3.55 -0.9,6.6 -1.15,3.4 -3.5,5.5 -1.9,1.85 -4.75,2.8 l 0.05,0.25 q 0.7,2.7 1.6,8.2 l 0.65,3.3 q 0.5,2.15 -0.1,3.2 -0.65,1.05 -1.8,1.05 l -1.1,-0.25 -1.05,0.25 -1.95,-0.1 -4.25,0.15 -2.9,0.2 -2.05,-0.2 q -1.35,-0.6 -1.35,-2.05 0,-0.6 0.55,-1.9 l 1.3,-4.15 q 1,-3.5 2.4,-6.9 l 0.25,-0.5 q -2,-0.3 -3.35,-0.95 m 31.45,-26.35 -0.4,-0.2 -0.05,-0.05 0.1,-0.3 0.1,-0.1 V 14 L 56.35,13.75 Q 56.25,13.5 55.8,13.5 L 55.4,13.7 55.25,13.85 55.2,14 54.5,13.9 q -0.6,0.1 -0.85,0.45 -0.35,0.45 0,0.85 0.25,0.35 0.65,0.25 l 0.5,-0.1 0.45,0.15 0.7,0.3 q 0.5,0.25 0.75,0 l 0.15,-0.4 -0.2,-0.5 M 37.5,32.55 q 1.3,0.7 2.8,0.7 1.55,-0.05 2.7,-0.8 l 1.1,-0.95 q 1.05,-1.3 1.05,-2.85 L 44.85,27 q -0.8,-2.2 -2.6,-2.85 l -1.7,-0.3 -1.8,0.2 q -1.25,0.4 -2.5,2 l -0.65,1.1 -0.2,0.65 q -0.35,2.3 0.6,3.6 l 1.5,1.15 M 60.45,30.4 q 1.5,0.4 2.65,1.45 1.45,1.35 2.05,3.4 0.55,2 0.05,3.95 -0.5,1.95 -1.85,3.5 -1.1,1.3 -2.55,2.15 l -0.1,0.45 q -0.3,1.9 -2,2.95 l -1.95,0.85 -5,0.15 q -2.75,-0.75 -4,-2.9 -0.7,-1.1 -0.8,-2.4 v -0.2 l -0.35,-0.2 -1.15,-0.7 -1,-0.4 L 43.9,42.3 43.1,41.8 V 41.35 Q 43.2,41.1 43.4,41 l 0.85,0.15 0.65,-0.2 h 0.7 l 0.8,-0.2 1.35,0.15 q 1,-1.4 2.8,-2.05 0,-1.1 0.35,-2.2 -0.7,-0.8 -0.8,-1.65 l 0.1,-1.05 0.1,-1.05 v -0.65 q 0,-1.2 1.1,-2.05 l 0.8,-0.6 q 1.25,-0.7 1.75,-0.8 l 1.85,0.1 1.5,0.8 0.85,0.55 2.3,0.15 m 3.4,10.35 0.15,-1.1 q -0.1,-0.9 -0.8,-1.4 -0.65,-0.5 -1.6,-0.25 -0.9,0.25 -1.3,1 -0.5,0.8 -0.15,1.7 0.2,0.55 0.7,0.95 l 1.1,0.35 q 1.4,0 1.9,-1.25 m -8.1,0.45 0.9,0.35 q 0.65,0.15 1.15,0.8 l 0.35,0.4 q 0.3,0.2 0.5,-0.15 l 0.2,-0.55 0.05,-0.55 -0.3,-0.65 0.15,-0.55 0.25,-0.35 0.1,-0.7 Q 58.9,38.8 58.5,38.9 58.3,38.95 58,39.35 l -0.4,0.6 -0.05,0.15 -0.95,-0.25 q -0.6,0 -0.9,0.45 l -0.15,0.45 0.2,0.45 M 55.7,33.35 Q 54.5,33.3 53.65,34.2 l -0.3,0.45 -0.25,0.5 q -0.25,0.4 -0.25,1.05 -0.1,0.7 0.35,1.3 l 0.5,0.5 0.95,0.6 0.8,0.15 1.35,-0.1 q 0.75,-0.15 1.15,-0.7 l 0.45,-0.7 0.3,-0.75 0.05,-1.1 -0.1,-0.6 Q 58.2,33.5 56.9,33.35 L 55.8,33.3 55.7,33.35 M 8.95,9 10.65,7.7 11.55,7.25 13,7.1 l 0.9,0.1 1,0.55 q 0.9,0.6 1.3,1.45 l 0.3,0.15 1,1.05 q 0.35,0.7 0.15,1.5 -0.15,0.8 -0.75,1.25 l -1.05,0.4 -1.75,1.35 0.05,0.25 v 1.5 l 0.1,0.1 0.6,0.8 0.45,0.55 0.3,0.5 0.45,1 -0.05,0.1 0.35,0.3 -0.1,0.45 h -0.3 L 15.45,20.2 Q 15.2,19.95 15.3,19.8 l -0.9,-0.6 -0.3,-0.15 -0.95,-0.7 -0.85,0.4 h -1.25 l -0.9,-0.2 -1,-0.65 -0.8,-0.8 q -0.85,-1 -1,-2.35 -0.25,-1.35 0.2,-2.5 l 0.5,-0.8 Q 8.2,9.9 8.95,9 m 5,27.05 q 0.55,1 0.7,2.45 0.2,1.9 -0.45,3.8 2.9,0.3 4.05,1.45 0.7,0.6 1,1.45 l 0.7,-0.45 q 0.65,-0.4 1.7,-0.8 l 1.7,-0.7 q 0.6,-0.25 0.75,-0.2 l 0.4,0.15 0.1,0.35 -0.5,0.5 -0.85,0.6 -1.75,1.75 -0.95,0.95 -1,0.8 -0.35,1.35 -0.95,2 Q 17.3,52.65 15.8,53.3 13.15,54.45 10.3,53.85 7.5,53.3 5.3,51.35 4.35,50.5 3.95,49.55 3.7,48.95 3.8,48.15 2.25,47.85 1,46.2 0.25,45.25 -0.05,44.05 l -0.35,-1.9 v -1.8 q 0.1,-1.1 1.2,-2.9 Q 1.95,35.7 3,34.7 3.75,34.05 4.5,33.7 4.6,32.95 5,32.1 5.9,30.35 7.3,29.45 l 0.85,-0.4 1.15,-0.1 1.75,0.3 0.6,0.35 0.85,0.7 q 0.65,0.7 0.8,1.85 0.2,1 -0.15,1.75 l -0.4,0.6 q 0.75,0.65 1.2,1.55 m 10.8,-5.75 -1.95,0.45 -0.75,0.1 q -0.5,0.15 -0.5,0.65 -0.1,0.45 0.3,0.7 0.25,0.2 0.7,0.2 l 3.3,0.2 1.85,0.05 1.6,0.15 q 0.9,-0.2 1.2,-0.95 l 0.3,-0.45 q 0.3,-0.85 -0.3,-2.2 l -0.55,-1 q -0.5,-0.9 -1,-1.05 l -1.1,0.1 q -0.55,0.35 -0.65,0.9 -0.1,0.6 0.2,1.5 l 0.1,0.25 -0.2,0.05 -0.95,0.1 -0.65,0.15 -0.95,0.1 m 2.45,5 Q 27,36 27.4,36.35 l 0.3,0.25 0.35,0.4 0.4,0.2 0.55,0.2 0.9,0.1 0.95,-0.05 1.4,-0.8 0.6,-0.65 0.3,0.15 1.4,0.15 2.05,-0.25 q 0.75,-0.2 1.05,-0.6 l 0.15,-0.9 Q 37.65,34 37.15,33.85 l -1.35,0.1 -2,0.05 -0.75,-0.1 -0.3,-0.1 -0.1,0.05 q -0.25,-0.05 -0.6,0.3 l -1.25,1.25 -1.2,0.25 q -0.75,0 -1.05,-0.35 v -0.45 l -0.1,-0.4 -0.6,-0.2 q -0.3,0.15 -0.45,0.45 l -0.2,0.6 M 1.85,45.9 q 0.8,0.1 1.2,-0.3 l 0.5,-0.65 Q 3.85,44.2 3.7,43.45 3.55,42.65 2.85,42.2 L 1.9,41.95 q -1.05,0 -1.65,0.95 -0.5,1 0.05,1.95 0.5,0.9 1.55,1.05 M 6.9,43.4 6.75,43.5 Q 6.4,43.15 5.65,42.9 5.3,42.9 5.2,43.3 v 0.5 l 0.25,0.7 0.05,0.1 q -0.3,0.45 -0.15,0.85 0.1,0.5 0.6,0.65 L 6.8,45.85 7.25,45.1 q 0.4,-0.6 1.35,-0.8 l 0.45,-0.1 0.2,-0.35 q 0.05,-0.3 -0.5,-0.5 L 6.9,43.4 m -0.75,-4.15 0.1,0.5 0.45,0.85 0.25,0.25 q 0.4,0.45 1.2,0.55 l 0.75,0.05 q 1.1,0 1.95,-0.85 0.8,-0.8 0.8,-1.95 L 11.6,38.2 10.9,36.95 10.5,36.6 9.85,36.25 q -1.5,-0.5 -2.6,0.35 L 6.9,36.9 6.5,37.45 6.3,38.1 6.15,39.25"
         fill="#000000"
         fill-rule="evenodd"
         stroke="none"
         id="path6" />
      <path
         d="m 52.5,12.3 q -0.4,-0.85 0,-1.6 0.3,-0.5 0.75,-0.75 1.05,-0.5 1.9,0.25 l 0.55,0.85 V 12 q -0.45,1.1 -1.5,1.2 -1.2,0.1 -1.7,-0.9 m 5.75,-0.5 q 0.85,-0.15 1.4,0.45 0.5,0.45 0.5,1.2 -0.05,0.55 -0.5,1 -0.45,0.45 -1,0.5 -0.6,0.05 -1.1,-0.4 -0.45,-0.4 -0.55,-1 -0.05,-0.55 0.3,-1.1 0.35,-0.5 0.95,-0.65 M 37.5,32.55 36,31.4 q -0.95,-1.3 -0.6,-3.6 l 0.2,-0.65 0.65,-1.1 q 1.25,-1.6 2.5,-2 l 1.8,-0.2 1.7,0.3 q 1.8,0.65 2.6,2.85 l 0.3,1.65 q 0,1.55 -1.05,2.85 L 43,32.45 q -1.15,0.75 -2.7,0.8 -1.5,0 -2.8,-0.7 m 19.15,-17.65 0.2,0.5 -0.15,0.4 q -0.25,0.25 -0.75,0 l -0.7,-0.3 -0.45,-0.15 -0.5,0.1 q -0.4,0.1 -0.65,-0.25 -0.35,-0.4 0,-0.85 Q 53.9,14 54.5,13.9 l 0.7,0.1 0.05,-0.15 0.15,-0.15 0.4,-0.2 q 0.45,0 0.55,0.25 L 56.4,14 v 0.25 l -0.1,0.1 -0.1,0.3 0.05,0.05 0.4,0.2 m -0.95,18.45 0.1,-0.05 1.1,0.05 q 1.3,0.15 1.75,1.45 l 0.1,0.6 -0.05,1.1 -0.3,0.75 -0.45,0.7 q -0.4,0.55 -1.15,0.7 L 55.45,38.75 54.65,38.6 53.7,38 53.2,37.5 q -0.45,-0.6 -0.35,-1.3 0,-0.65 0.25,-1.05 l 0.25,-0.5 0.3,-0.45 q 0.85,-0.9 2.05,-0.85 m 0.05,7.85 -0.2,-0.45 0.15,-0.45 q 0.3,-0.45 0.9,-0.45 l 0.95,0.25 0.05,-0.15 0.4,-0.6 q 0.3,-0.4 0.5,-0.45 0.4,-0.1 0.6,0.35 l -0.1,0.7 -0.25,0.35 -0.15,0.55 0.3,0.65 -0.05,0.55 -0.2,0.55 q -0.2,0.35 -0.5,0.15 l -0.35,-0.4 q -0.5,-0.65 -1.15,-0.8 l -0.9,-0.35 m 8.1,-0.45 Q 63.35,42 61.95,42 l -1.1,-0.35 q -0.5,-0.4 -0.7,-0.95 -0.35,-0.9 0.15,-1.7 0.4,-0.75 1.3,-1 0.95,-0.25 1.6,0.25 0.7,0.5 0.8,1.4 l -0.15,1.1 M 6.15,39.25 6.3,38.1 6.5,37.45 6.9,36.9 7.25,36.6 q 1.1,-0.85 2.6,-0.35 l 0.65,0.35 0.4,0.35 0.7,1.25 0.05,0.45 q 0,1.15 -0.8,1.95 Q 10,41.45 8.9,41.45 L 8.15,41.4 Q 7.35,41.3 6.95,40.85 L 6.7,40.6 6.25,39.75 6.15,39.25 M 6.9,43.4 8.75,43.35 q 0.55,0.2 0.5,0.5 L 9.05,44.2 8.6,44.3 Q 7.65,44.5 7.25,45.1 L 6.8,45.85 5.95,46.1 Q 5.45,45.95 5.35,45.45 5.2,45.05 5.5,44.6 L 5.45,44.5 5.2,43.8 v -0.5 q 0.1,-0.4 0.45,-0.4 0.75,0.25 1.1,0.6 L 6.9,43.4 M 1.85,45.9 Q 0.8,45.75 0.3,44.85 -0.25,43.9 0.25,42.9 0.85,41.95 1.9,41.95 l 0.95,0.25 q 0.7,0.45 0.85,1.25 0.15,0.75 -0.15,1.5 L 3.05,45.6 Q 2.65,46 1.85,45.9 M 27.2,35.3 27.4,34.7 q 0.15,-0.3 0.45,-0.45 l 0.6,0.2 0.1,0.4 v 0.45 q 0.3,0.35 1.05,0.35 l 1.2,-0.25 1.25,-1.25 q 0.35,-0.35 0.6,-0.3 l 0.1,-0.05 0.3,0.1 0.75,0.1 2,-0.05 1.35,-0.1 q 0.5,0.15 0.65,0.7 l -0.15,0.9 q -0.3,0.4 -1.05,0.6 l -2.05,0.25 -1.4,-0.15 -0.3,-0.15 -0.6,0.65 -1.4,0.8 L 29.9,37.5 29,37.4 28.45,37.2 28.05,37 27.7,36.6 27.4,36.35 Q 27,36 27.2,35.3 m -2.45,-5 0.95,-0.1 0.65,-0.15 0.95,-0.1 0.2,-0.05 -0.1,-0.25 q -0.3,-0.9 -0.2,-1.5 0.1,-0.55 0.65,-0.9 l 1.1,-0.1 q 0.5,0.15 1,1.05 l 0.55,1 q 0.6,1.35 0.3,2.2 l -0.3,0.45 q -0.3,0.75 -1.2,0.95 l -1.6,-0.15 -1.85,-0.05 -3.3,-0.2 q -0.45,0 -0.7,-0.2 -0.4,-0.25 -0.3,-0.7 0,-0.5 0.5,-0.65 l 0.75,-0.1 1.95,-0.45"
         fill="#ffffff"
         fill-rule="evenodd"
         stroke="none"
         id="path7" />
    </g>
    <g
       id="shape2"
       transform="translate(1.5,1.5)">
      <path
         d="M 0,23.8 V 0 H 64.1 V 23.8 57.55 H 0 Z"
         fill="none"
         stroke="#000000"
         stroke-linecap="round"
         stroke-linejoin="round"
         stroke-width="3"
         id="path8" />
    </g>
  </defs>
</svg>
