<?xml version="1.0" encoding="UTF-8" standalone="no"?>
<svg
   ffdec:objectType="frame"
   height="60.549999"
   width="67.099998"
   version="1.1"
   id="svg7"
   sodipodi:docname="146.svg"
   xmlns:inkscape="http://www.inkscape.org/namespaces/inkscape"
   xmlns:sodipodi="http://sodipodi.sourceforge.net/DTD/sodipodi-0.dtd"
   xmlns:xlink="http://www.w3.org/1999/xlink"
   xmlns="http://www.w3.org/2000/svg"
   xmlns:svg="http://www.w3.org/2000/svg"
   xmlns:ffdec="https://www.free-decompiler.com/flash">
  <sodipodi:namedview
     id="namedview7"
     pagecolor="#ffffff"
     bordercolor="#000000"
     borderopacity="0.25"
     inkscape:showpageshadow="2"
     inkscape:pageopacity="0.0"
     inkscape:pagecheckerboard="0"
     inkscape:deskcolor="#d1d1d1"
     fit-margin-top="5"
     fit-margin-left="5"
     fit-margin-right="5"
     fit-margin-bottom="5" />
  <g
     transform="translate(1.5,1.5)"
     id="g3">
    <use
       ffdec:characterId="516"
       height="57.549999"
       width="64.099998"
       xlink:href="#shape0"
       id="use1" />
    <use
       ffdec:characterId="656"
       height="52.25"
       transform="translate(-1.25,2.55)"
       width="62.299999"
       xlink:href="#shape1"
       id="use2" />
    <use
       ffdec:characterId="518"
       height="60.549999"
       transform="translate(-1.5,-1.5)"
       width="67.099998"
       xlink:href="#shape2"
       id="use3" />
  </g>
  <defs
     id="defs7">
    <g
       id="shape0">
      <path
         d="M 53.6,0 H 64.1 V 57.55 H 53.6 28.25 0 V 0 H 28.25 53.6 V 57.55 0 M 28.25,0 V 57.55 0"
         fill="#ffffff"
         fill-rule="evenodd"
         stroke="none"
         id="path3" />
    </g>
    <g
       id="shape1"
       transform="translate(1.25,-2.55)">
      <path
         d="m 35.2,31.85 -1.25,2 -2.45,2.2 q -8.25,5.7 -18.35,5.7 L 8.35,41.1 Q 6.9,40.65 5.1,39.55 2.55,38 1.35,36.45 0.05,34.75 -0.7,31.5 -2.3,23.8 0.75,15.25 l 0.2,-1 Q 1.8,10.55 4.25,7.95 5.85,6.3 7.8,5.15 13.5,1.8 20,2.8 q 2.15,0.35 4.75,1.25 1.65,0.6 3.15,1.35 1.8,-1.7 3.95,-1.7 1.3,0.05 3,1 l 2.8,1.65 Q 38.7,6.95 39.4,6.75 39.2,5.7 39.75,4.7 40.3,3.7 41.3,3.35 l 2.05,0.05 q 1.05,0.4 1.55,1.35 0.35,0.7 0.35,1.65 0,1.25 -0.6,2.45 -0.65,1.15 -1.7,1.85 -2.05,1.5 -4.8,1 L 36.55,11.1 35.3,9.9 32.55,7.4 Q 32.1,7 31.65,6.9 L 30.6,7 q 4.45,3.2 6.7,8.45 2.65,6.45 0.7,13.1 -0.6,2.25 -1.85,2.9 l -0.8,0.25 -0.15,0.15 m 8.2,5.05 0.35,-3.4 0.1,-0.95 -0.2,0.15 -8.3,7.8 q -0.45,0.45 -0.7,0.2 -0.2,-0.25 0.1,-0.65 l 4.85,-6.7 1.4,-1.9 -1.35,0.65 q -0.6,0.35 -1.15,0.35 L 37.9,32.2 q -0.25,-0.25 -0.2,-0.55 0,-0.35 0.55,-0.8 l 4.5,-3.6 -0.1,-0.15 -0.5,-0.45 -1.2,-1.15 -0.8,-0.65 -0.4,-0.6 -0.25,-0.5 q -0.15,-0.8 0.65,-1.15 l 1.55,-0.05 2.05,1 1.2,0.7 0.2,-3.45 q 0.2,-4.2 0.5,-6.1 0.1,-0.7 0.3,-1 0.4,-0.55 0.9,-0.3 0.45,0.15 0.45,1.2 l 0.25,3.25 0.45,3.25 0.2,1.85 2.65,-2.05 q 0.95,-0.75 1.5,-0.9 1.3,-0.35 2.15,0.6 0.9,1 0.4,2.2 -0.4,0.8 -1.75,1.6 l -4.05,2.4 -0.3,0.4 -0.05,0.55 -0.45,0.95 q -0.15,4.5 -0.85,10.2 -0.1,1.2 -0.5,1.85 -0.55,0.85 -1.6,0.95 -1.1,0 -1.7,-0.75 -0.6,-0.75 -0.6,-2 L 43.4,36.9 M 28.65,52.55 Q 27.5,51.5 28,50.45 28.35,49.9 29.5,49.6 l 4.6,-0.45 4.6,0.15 4.55,0.65 q 0.95,0.4 1.1,1.05 l 3.9,0.25 q 1.25,0.2 1.55,0.95 0.25,0.9 -0.6,1.55 l -1.6,0.55 q -5.35,1 -14.15,-0.05 -3.45,-0.4 -4.8,-1.7"
         fill="#767676"
         fill-rule="evenodd"
         stroke="none"
         id="path4" />
      <path
         d="m 44.85,34.75 q -0.55,-0.95 -0.7,-2.1 l -1.5,-0.3 q -1.65,-0.7 -2.3,-2.45 -0.65,-1.65 0,-3.4 0.7,-2.15 2.8,-3.1 l 0.9,-0.3 1.1,-0.25 q 1.45,-0.1 3.3,1.15 l 0.3,-0.15 0.45,-0.15 q -0.1,-1.8 1.25,-3.15 0.8,-0.6 1.3,-0.75 l 1.4,-0.15 q 2.1,0 3.55,1.1 l 1.05,1.05 1.05,1.25 q 1.05,1.5 1.25,3.2 v 0.95 0.05 l 0.7,1.8 q 0.5,1.9 0.1,3.75 -0.35,1.85 -1.6,3.4 -1.2,1.5 -2.9,2.35 l -1,0.4 0.05,0.25 q 0.5,2.85 0.1,6 -0.35,2.45 -1.3,4.25 -1.2,2.2 -3,3.25 -1.9,1.05 -4.2,0.95 -3.15,-0.1 -5.05,-1.9 Q 40.9,50.8 40.4,49.45 V 49.4 l -1.2,-0.95 -0.75,-1.4 -0.25,-0.3 -0.35,0.15 -1.9,1.65 q -1.05,0.7 -2.3,0.75 -1.3,0 -2.35,-0.65 -0.75,-0.55 -0.95,-1.2 -0.3,-0.95 0.6,-2.25 l 0.7,-0.7 q 0.6,-0.2 0.85,0.25 L 32.45,45.4 32,45.95 q 0.1,0.6 0.55,0.9 l 1,0.1 1.15,-1.15 q 1,-1.65 2.45,-2.35 0.75,-0.4 1.65,-0.45 0.9,-0.05 1.65,0.35 l 1.1,0.9 0.5,-0.55 L 45,41.65 Q 46.7,40.8 47.5,40 l 1.4,-1.6 -1.95,-1.35 q -1.5,-1.2 -2.1,-2.3 M 48,29.8 46,30.15 q -0.35,0.1 -0.5,0.3 l -0.1,0.45 0.25,0.35 q 0.35,0.3 0.9,0.2 l 0.5,-0.05 h 0.45 l 0.15,0.05 -0.8,1.05 q -0.4,0.6 -0.25,0.95 0.25,0.4 0.7,0.2 l 0.6,-0.4 1.45,-1.3 0.5,-0.55 q 0.25,-0.55 -0.2,-1 L 49.6,30.35 Q 49.4,29.8 48.85,29.7 L 48,29.8 m 5.1,3.2 -0.5,-0.25 -0.35,-0.9 -0.4,-0.2 -0.1,0.05 -0.35,0.2 -0.1,0.6 v 0.1 q -0.5,0.05 -0.85,0.45 -0.3,0.3 -0.4,0.95 v 0.7 q 0.1,0.55 0.6,0.8 l 1,0.35 1,-0.05 0.7,-0.6 0.35,-1.25 Q 53.65,33.45 53.1,33 m 1.5,-1.7 0.7,0.1 1.55,-0.25 q 0.75,-0.3 1.2,-1 l 0.2,-0.55 q 0.5,-1.25 0.3,-2.1 L 58.3,26.85 q -0.6,-1.25 -2.2,-1.5 l -0.9,-0.05 -0.95,0.05 q -1.05,0.15 -1.75,1.1 -1.05,1.55 -0.15,3.2 l 0.7,0.9 q 0.8,0.6 1.55,0.75 M 27.45,11.2 q 2.75,1.35 4.5,3.5 l 1.95,-0.3 2.05,-0.1 q 1.35,0.2 1.85,1 0.45,0.75 0.15,2.25 l -0.75,4 -0.05,0.3 q 1.15,1.65 0.95,4.6 -0.3,3.65 -2.15,6.65 -1.05,1.75 -3.55,4.35 L 27.95,41.5 25.8,43.35 Q 18,49.7 10.25,49.3 7.35,49.2 5.4,48 4,47.1 3.25,45.9 L 2.3,45.05 Q 1,43.6 1.6,41.25 2.15,39.5 4.05,38.1 5.8,36.9 8,36.7 q 2.2,-0.2 4.1,0.75 l 1.95,0.9 1.75,0.1 Q 19.75,38.3 22.45,36.8 H 21.9 Q 17.15,36.7 13.5,34.15 9.6,31.45 8.65,26.9 8.05,23.8 9.25,20.45 L 9.45,20 v -0.2 q 0.2,-1.2 1.1,-3.15 2.55,-5.4 7.05,-9.6 l 1.35,-1 L 20.6,6 q 0.75,0.35 1.3,1.95 l 0.6,1.9 q 2.55,0.2 4.95,1.35 m -4.4,17.85 -0.9,0.4 -0.75,1.95 v 0.65 L 21.3,33 21.65,32.85 q 1.75,-0.55 2.5,-1.5 0.65,-0.85 0.4,-1.6 l -0.65,-0.6 -0.85,-0.1 m 10.7,-4.1 -0.25,0.1 q -1.75,0.85 -3.4,1.3 l -1.2,0.25 h -1.3 l -0.85,-0.05 q -0.2,1.15 0,1.75 l 0.8,1.25 1.35,1.05 q 2.1,-1.6 4.5,-2.65 0.4,-0.2 0.75,-0.25 0.3,-1.65 -0.4,-2.75 m -13.1,4.2 -0.7,-0.35 -1.25,1.3 -0.35,0.5 -0.45,0.45 -0.2,0.3 -0.95,1.65 h 0.05 l 1.95,0.35 h 0.8 l 0.3,-2.05 0.8,-1.95 0.1,-0.15 -0.1,-0.05 M 17.6,27.95 16.75,28 q -0.65,0.15 -1.1,0.6 -0.4,0.35 -0.6,1.2 -0.15,0.3 -0.15,0.65 l 0.45,1.35 0.1,0.15 0.05,-0.1 q 0.6,-0.95 1.15,-1.55 l 0.6,-0.65 0.15,-0.25 0.65,-0.6 0.65,-0.55 -1.1,-0.3 M 19,26.55 Q 20.3,26 20.9,24.85 L 20.1,24.4 Q 19,23.65 17.75,22.15 16.6,20.6 16.55,19.65 v -0.1 l -0.8,0.2 q -1.3,0.4 -1.95,1.65 l -0.25,0.55 q -0.4,1.25 -0.2,2.3 0.25,1.3 1.2,1.95 0.75,0.5 1.7,0.6 L 19,26.55"
         fill="#000000"
         fill-rule="evenodd"
         stroke="none"
         id="path5" />
      <path
         d="m 54.6,31.3 q -0.75,-0.15 -1.55,-0.75 l -0.7,-0.9 q -0.9,-1.65 0.15,-3.2 0.7,-0.95 1.75,-1.1 l 0.95,-0.05 0.9,0.05 q 1.6,0.25 2.2,1.5 l 0.25,0.65 q 0.2,0.85 -0.3,2.1 l -0.2,0.55 q -0.45,0.7 -1.2,1 L 55.3,31.4 54.6,31.3 M 53.1,33 q 0.55,0.45 0.6,0.95 l -0.35,1.25 -0.7,0.6 -1,0.05 -1,-0.35 q -0.5,-0.25 -0.6,-0.8 V 34 q 0.1,-0.65 0.4,-0.95 0.35,-0.4 0.85,-0.45 v -0.1 l 0.1,-0.6 0.35,-0.2 0.1,-0.05 0.4,0.2 0.35,0.9 0.5,0.25 M 48,29.8 48.85,29.7 q 0.55,0.1 0.75,0.65 l 0.05,0.05 q 0.45,0.45 0.2,1 l -0.5,0.55 -1.45,1.3 -0.6,0.4 q -0.45,0.2 -0.7,-0.2 -0.15,-0.35 0.25,-0.95 l 0.8,-1.05 -0.15,-0.05 h -0.45 l -0.5,0.05 q -0.55,0.1 -0.9,-0.2 L 45.4,30.9 45.5,30.45 q 0.15,-0.2 0.5,-0.3 L 48,29.8 M 19,26.55 16.25,26.8 q -0.95,-0.1 -1.7,-0.6 -0.95,-0.65 -1.2,-1.95 -0.2,-1.05 0.2,-2.3 L 13.8,21.4 q 0.65,-1.25 1.95,-1.65 l 0.8,-0.2 v 0.1 q 0.05,0.95 1.2,2.5 1.25,1.5 2.35,2.25 l 0.8,0.45 Q 20.3,26 19,26.55 m -1.4,1.4 1.1,0.3 -0.65,0.55 -0.65,0.6 -0.15,0.25 -0.6,0.65 q -0.55,0.6 -1.15,1.55 l -0.05,0.1 -0.1,-0.15 -0.45,-1.35 q 0,-0.35 0.15,-0.65 0.2,-0.85 0.6,-1.2 0.45,-0.45 1.1,-0.6 l 0.85,-0.05 m 3.05,1.2 0.1,0.05 -0.1,0.15 -0.8,1.95 -0.3,2.05 h -0.8 L 16.8,33 h -0.05 l 0.95,-1.65 0.2,-0.3 0.45,-0.45 0.35,-0.5 1.25,-1.3 0.7,0.35 m 13.1,-4.2 q 0.7,1.1 0.4,2.75 Q 33.8,27.75 33.4,27.95 31,29 28.9,30.6 l -1.35,-1.05 -0.8,-1.25 q -0.2,-0.6 0,-1.75 l 0.85,0.05 h 1.3 l 1.2,-0.25 q 1.65,-0.45 3.4,-1.3 l 0.25,-0.1 m -10.7,4.1 0.85,0.1 0.65,0.6 q 0.25,0.75 -0.4,1.6 -0.75,0.95 -2.5,1.5 L 21.3,33 21.4,32.05 V 31.4 l 0.75,-1.95 0.9,-0.4"
         fill="#ffffff"
         fill-rule="evenodd"
         stroke="none"
         id="path6" />
    </g>
    <g
       id="shape2"
       transform="translate(1.5,1.5)">
      <path
         d="M 0,23.8 V 0 H 64.1 V 23.8 57.55 H 0 Z"
         fill="none"
         stroke="#000000"
         stroke-linecap="round"
         stroke-linejoin="round"
         stroke-width="3"
         id="path7" />
    </g>
  </defs>
</svg>
