<?xml version="1.0" encoding="UTF-8" standalone="no"?>
<svg
   ffdec:objectType="frame"
   height="60.658333"
   width="67.099998"
   version="1.1"
   id="svg8"
   sodipodi:docname="466.svg"
   xmlns:inkscape="http://www.inkscape.org/namespaces/inkscape"
   xmlns:sodipodi="http://sodipodi.sourceforge.net/DTD/sodipodi-0.dtd"
   xmlns:xlink="http://www.w3.org/1999/xlink"
   xmlns="http://www.w3.org/2000/svg"
   xmlns:svg="http://www.w3.org/2000/svg"
   xmlns:ffdec="https://www.free-decompiler.com/flash">
  <sodipodi:namedview
     id="namedview8"
     pagecolor="#ffffff"
     bordercolor="#000000"
     borderopacity="0.25"
     inkscape:showpageshadow="2"
     inkscape:pageopacity="0.0"
     inkscape:pagecheckerboard="0"
     inkscape:deskcolor="#d1d1d1"
     fit-margin-top="5"
     fit-margin-left="5"
     fit-margin-right="5"
     fit-margin-bottom="5" />
  <g
     transform="translate(1.5,1.5)"
     id="g3">
    <use
       ffdec:characterId="516"
       height="57.549999"
       width="64.099998"
       xlink:href="#shape0"
       id="use1" />
    <use
       ffdec:characterId="964"
       height="58.549999"
       transform="translate(-1.1,0.6)"
       width="66.150002"
       xlink:href="#shape1"
       id="use2" />
    <use
       ffdec:characterId="518"
       height="60.549999"
       transform="translate(-1.5,-1.5)"
       width="67.099998"
       xlink:href="#shape2"
       id="use3" />
  </g>
  <defs
     id="defs8">
    <g
       id="shape0">
      <path
         d="M 53.6,0 H 64.1 V 57.55 H 53.6 28.25 0 V 0 H 28.25 53.6 V 57.55 0 M 28.25,0 V 57.55 0"
         fill="#ffffff"
         fill-rule="evenodd"
         stroke="none"
         id="path3" />
    </g>
    <g
       id="shape1"
       transform="translate(1.1,-0.6)">
      <path
         d="m 63.3,21.4 0.2,0.35 0.1,0.3 -0.15,0.55 v 0.1 0.05 0.1 0.1 0.05 l 0.05,0.1 v 0.05 0.1 0.05 0.1 0.05 0.1 0.05 0.1 l 0.05,0.1 v 0.05 0.1 0.05 0.1 0.05 0.1 0.05 l 0.05,0.1 v 0.1 0.05 0.1 0.05 0.1 0.05 0.1 0.05 0.1 0.1 0.05 0.1 0.05 0.1 0.05 0.1 0.05 0.1 0.1 0.05 0.1 0.05 0.1 l 0.05,0.05 v 0.1 0.05 0.1 0.05 0.1 0.1 0.05 0.1 0.05 0.1 0.05 0.1 0.05 0.1 0.1 0.05 0.1 0.05 0.1 0.05 0.1 0.05 0.1 0.1 0.05 0.1 0.05 0.1 0.05 0.1 0.05 0.1 0.05 0.1 0.1 0.05 0.1 0.05 0.1 0.05 0.1 0.05 0.1 0.1 0.05 0.1 0.05 0.1 0.05 0.1 0.05 0.1 0.1 0.05 0.1 0.05 0.1 0.05 0.1 0.05 0.1 0.1 0.05 l 0.05,0.1 v 0.05 0.1 0.05 0.1 0.05 0.1 0.05 0.1 0.1 0.05 0.1 0.05 0.1 0.05 0.1 0.05 0.1 0.1 0.05 l 0.05,0.1 v 0.05 0.1 0.05 0.1 0.05 0.1 0.1 0.05 0.1 0.05 0.1 0.05 0.1 0.05 0.1 0.1 0.05 0.1 0.05 0.1 0.05 l 0.05,0.1 v 0.05 0.1 0.05 0.1 0.1 0.05 0.1 0.05 0.1 0.05 0.1 0.05 0.1 0.1 0.05 0.1 0.05 0.1 0.05 0.1 0.05 0.1 0.1 0.05 0.1 0.05 0.1 0.05 0.1 0.05 0.1 0.05 0.1 0.1 0.05 0.1 0.05 0.1 0.05 0.1 0.05 0.1 0.1 0.05 0.1 0.05 0.1 0.05 0.1 0.05 0.1 0.1 0.05 l 0.05,0.1 v 0.05 0.1 0.05 0.1 0.05 0.1 0.1 0.05 0.1 0.05 0.1 0.05 0.1 0.05 0.1 0.05 0.1 0.1 0.05 0.1 0.05 0.1 0.05 0.1 0.05 0.1 0.1 0.05 0.1 0.05 0.1 0.05 0.1 0.05 0.1 0.1 0.05 0.1 0.05 0.1 0.05 0.1 0.05 0.1 0.1 0.05 0.1 0.05 0.1 0.05 0.1 0.05 0.1 0.05 0.1 0.1 0.05 0.1 0.05 0.1 0.05 0.1 0.05 0.1 0.1 0.05 0.1 0.05 0.1 0.05 0.1 0.05 0.1 0.1 0.05 0.1 0.05 0.1 0.05 0.1 0.05 0.1 0.05 0.1 0.1 0.05 0.1 0.05 0.1 0.05 0.1 0.05 0.1 0.1 0.05 l 0.05,0.1 v 0.05 0.1 0.05 0.1 0.05 0.1 0.1 0.05 0.1 0.05 0.1 0.05 0.1 0.05 0.1 0.1 0.05 0.1 0.05 0.1 0.05 0.1 0.05 0.1 0.05 0.1 0.1 0.05 0.1 0.05 0.1 0.05 0.1 0.05 0.1 0.1 0.05 0.1 0.05 0.1 0.05 0.1 0.05 0.1 0.1 0.05 0.1 l 0.05,0.05 v 0.1 0.05 0.1 L 64,50.15 v 0.1 0.1 0.05 0.1 0.05 0.1 0.05 0.1 0.05 0.1 L 63.95,51 v 0.1 0.1 0.05 0.1 0.05 0.1 L 64,51.55 v 0.1 0.05 0.1 0.1 0.05 0.1 0.05 0.1 0.05 0.1 0.05 0.1 0.1 0.05 0.1 0.05 0.1 0.05 0.1 0.05 0.1 0.05 0.1 0.1 0.05 l -0.05,0.1 v 0.05 l -0.05,0.1 v 0.05 l -0.05,0.1 -0.05,0.05 v 0.1 0.1 0.05 0.1 0.05 0.1 0.05 l -0.05,0.1 v 0.05 0.1 l -0.05,0.1 -0.05,0.05 -0.05,0.1 -0.05,0.05 -0.05,0.1 -0.1,0.05 -0.05,0.1 -0.15,0.05 v 0.05 0.1 0.1 0.05 0.1 0.05 0.1 0.05 l -0.05,0.1 v 0.05 l -0.05,0.1 v 0.1 l -0.05,0.05 -0.05,0.1 -0.05,0.05 -0.1,0.1 -0.1,0.05 -0.1,0.1 -0.15,0.05 -0.15,0.05 -0.1,0.05 h -0.1 L 61.9,56.95 H 61.75 L 61.5,56.9 H 60.1 57.5 53.45 52.25 50 48.55 48.05 L 45.8,56.95 H 38.45 L 37.15,56.9 H 22.6 15.55 4.6 L 3.3,56.85 H 2.6 2.3 2.25 L 2.1,56.9 1.95,56.95 1.85,57 1.6,57.05 1.35,57 1.15,56.95 0.95,56.85 0.85,56.8 0.75,56.7 0.65,56.65 0.6,56.55 0.5,56.5 0.45,56.4 0.4,56.35 V 56.3 L 0.35,56.2 V 56.15 L 0.3,56.1 V 55.95 L 0.25,55.9 V 55.8 55.4 55.3 55.25 55.15 55.1 55 54.95 54.85 54.8 54.7 54.6 54.55 54.45 54.4 54.3 54.25 54.15 54.1 54 53.9 53.85 53.75 53.7 53.6 53.55 53.45 53.4 53.3 53.2 53.15 53.05 53 52.9 52.85 52.75 52.7 52.6 52.5 52.45 52.35 52.3 52.2 52.15 52.05 52 v -0.1 -0.05 -0.1 -0.1 -0.05 -0.1 -0.05 -0.1 -0.05 -0.1 -0.05 -0.1 -0.1 -0.05 -0.1 -0.05 -0.1 -0.05 -0.1 -0.05 -0.1 -0.1 -0.05 -0.1 -0.05 -0.1 -0.05 -0.1 -0.05 -0.1 -0.1 V 49.5 49.4 49.35 49.25 49.2 49.1 49.05 48.95 48.9 48.8 48.7 48.65 48.55 48.5 48.4 48.35 48.25 48.2 48.1 48 47.95 47.85 47.8 47.7 47.65 47.55 47.5 47.4 47.3 47.25 47.15 47.1 47 46.95 46.85 46.8 46.7 46.65 46.55 46.45 46.4 46.3 46.25 46.15 46.1 46 45.95 45.85 45.75 45.7 45.6 45.55 45.45 45.4 45.3 45.25 45.15 45.05 45 44.9 44.85 44.75 44.7 44.6 44.55 44.45 44.35 44.3 44.2 44.15 44.05 44 43.9 43.85 43.75 43.7 43.6 43.5 43.45 43.35 43.3 43.2 43.15 43.05 43 v -0.1 -0.1 -0.05 -0.1 -0.05 -0.1 -0.05 -0.1 -0.05 -0.1 -0.1 -0.05 -0.1 -0.05 -0.1 -0.05 -0.1 -0.05 -0.1 -0.05 -0.1 -0.1 -0.05 -0.1 -0.05 -0.1 -0.05 -0.1 -0.05 -0.1 -0.1 -0.05 -0.1 -0.05 -0.1 -0.05 -0.1 -0.05 -0.1 -0.1 -0.05 -0.1 -0.05 -0.1 -0.05 -0.1 -0.05 -0.1 -0.1 V 39.1 39 38.95 38.85 38.8 38.7 38.65 38.55 38.5 38.4 38.3 38.25 38.15 38.1 38 37.95 37.85 37.8 37.7 37.6 37.55 37.45 37.4 37.3 37.25 37.15 37.1 37 36.9 36.85 36.75 36.7 36.6 36.55 36.45 36.4 36.3 36.2 36.15 36.05 36 35.9 35.85 35.75 35.7 35.6 35.55 35.45 35.35 35.3 35.2 35.15 35.05 35 34.9 34.85 34.75 34.65 34.6 34.5 34.45 34.35 34.3 34.2 34.15 34.05 33.95 33.9 33.8 33.75 33.65 33.6 33.5 33.45 33.35 33.3 33.2 33.1 33.05 32.95 32.9 32.8 32.75 32.65 32.6 32.5 32.4 32.35 32.25 32.2 32.1 32.05 31.95 31.9 31.8 31.7 31.65 31.55 31.5 31.4 31.35 31.25 31.2 31.1 31 30.95 30.85 30.8 30.7 30.65 30.55 30.5 30.4 30.35 30.25 30.15 30.1 30 29.95 29.85 29.8 29.7 29.65 29.55 29.45 29.4 29.3 29.25 29.15 29.1 29 28.95 28.85 28.75 28.7 28.6 28.55 28.45 28.4 28.3 28.25 28.15 28.05 28 27.9 27.85 27.75 27.7 27.6 27.55 27.45 27.4 27.3 27.2 27.15 27.05 27 26.9 26.85 26.75 26.7 26.6 26.5 26.45 26.35 26.3 26.2 26.15 26.05 26 v -0.1 -0.1 -0.05 -0.1 -0.05 -0.1 -0.05 -0.1 -0.05 -0.1 -0.05 -0.1 -0.1 -0.05 -0.1 -0.05 -0.1 -0.05 -0.1 -0.05 -0.1 -0.1 -0.05 -0.1 -0.05 -0.1 -0.05 -0.1 -0.05 -0.1 -0.1 -0.05 -0.1 -0.05 -0.1 -0.05 -0.1 -0.05 -0.1 -0.1 V 22.8 22.7 22.65 22.55 22.5 22.4 22.35 22.25 22.2 22.1 22 21.95 21.85 21.8 21.7 21.65 21.55 21.5 21.4 21.3 21.25 21.15 21.1 21 20.95 20.85 20.8 20.7 20.6 20.55 20.45 20.4 20.3 20.25 20.15 20.1 20 19.9 19.85 19.75 19.7 19.6 19.55 19.45 19.4 19.3 19.25 19.15 19.05 19 18.9 18.85 18.75 18.7 18.6 18.55 18.45 18.35 18.3 18.2 18.15 18.05 18 17.9 17.85 17.75 17.65 17.6 17.5 17.45 17.35 17.3 17.2 17.15 17.05 17 16.9 16.8 16.75 16.65 16.6 16.5 16.45 16.35 16.3 16.2 16.1 16.05 15.95 15.9 15.8 15.75 15.65 15.6 15.5 15.4 L 0.3,15.35 v -0.1 -0.05 -0.1 -0.05 -0.1 -0.05 -0.1 -0.1 -0.05 -0.1 -0.05 -0.1 -0.05 -0.1 -0.05 -0.1 -0.05 -0.1 -0.1 -0.05 -0.1 -0.05 -0.1 -0.05 -0.1 -0.05 -0.1 -0.1 V 13.1 13 12.95 12.85 12.8 12.7 12.65 12.55 12.45 12.4 L 0.35,12.3 V 12.25 12.15 12.1 12 11.95 11.85 11.75 11.7 11.6 11.55 11.45 L 0.3,11.4 V 11.3 11.25 11.15 11.1 11 10.9 10.85 10.75 L 0.35,10.7 V 10.6 10.55 L 0.4,10.45 0.45,10.4 V 10.3 L 0.5,10.2 H 0.55 Q 0.55,9.7 0.8,9.35 L 1.6,8.65 Q 3,7.8 4.6,7.7 6.3,7.6 7.65,8.4 q 1.55,0.95 3,3.6 l 0.5,1.1 q 0.45,1.4 -0.25,3.95 l -0.25,1 q 1.6,-0.05 2.4,0.4 1.15,0.55 1.85,2.1 l 0.75,2.7 q 2.9,-0.85 5.55,0.8 1.6,1.05 2.4,2.55 1.35,-1.2 2.95,-1.85 l 2,-0.45 V 23 l 0.1,-0.9 0.2,-0.45 0.2,-0.75 0.65,-1 1.6,-1.75 q 0.7,-0.7 1.3,-0.8 0.45,-0.1 0.6,0.2 l -0.2,0.55 -0.55,0.65 -0.4,0.35 -0.45,0.55 -0.65,1.3 -0.15,0.45 -0.1,1.2 0.15,1.8 v 0.05 Q 31.1,22.4 31.8,21 q 0.95,-1.8 2.5,-2.45 l 0.3,-0.1 Q 34.4,17.85 34.5,17.2 34.55,13.5 38.15,10.55 40,9 42.25,8.4 l 4.55,0.1 q 2,0.7 3.25,2.55 l 0.2,0.3 1.45,-0.3 q 1.55,-0.1 2.8,0.5 l 0.95,0.55 q 2.4,1.65 3.05,3.35 l 0.45,1.8 0.1,2.35 0.3,-0.1 1.6,0.15 q 0.5,0.15 0.95,0.45 l 0.5,0.3 0.45,0.4 0.3,0.35 0.15,0.25 m -2.35,0.4 -0.45,-0.2 -0.55,0.1 H 59.9 l -0.75,0.35 -0.55,0.3 -0.45,0.2 -0.5,0.5 -0.65,0.45 0.6,-0.25 1.55,-0.35 1.95,-0.15 0.65,0.15 v -0.1 l 0.05,-0.1 v -0.05 -0.1 -0.05 -0.1 -0.05 l -0.05,-0.1 V 22.2 l -0.8,-0.4 M 49.3,14.5 q -0.9,-1.8 -1.75,-2.45 -1.2,-0.9 -2.75,-0.9 -1.4,0 -2.85,0.65 Q 40,12.65 39,14 q -0.65,0.85 -0.95,1.8 1.05,-1.4 2.5,-2.1 l 1.3,-0.5 1.55,-0.35 1.6,0.15 2.1,0.2 q 0.6,0.15 1.8,1 l 0.4,0.3 m -9.2,6.2 -1.55,1.2 Q 38,22.5 37.8,23 40.25,21.35 43.1,20.65 L 42,20.35 Q 41.85,20.2 41.7,20.2 l -0.4,0.1 -1.2,0.4 m 10.9,-0.9 -0.8,0.05 -1.25,0.5 0.9,0.1 0.95,-0.1 1,0.1 h 1 Q 52.4,19.95 51.65,19.8 H 51 m 0.8,-6.1 -0.55,0.2 0.05,1.05 v 0.25 l 2.8,-0.25 0.75,0.25 1.4,1.15 -0.5,-0.7 -0.9,-0.9 -1.45,-0.9 -1.6,-0.15 m -13,20.2 -1.6,0.05 -0.55,0.2 q -0.7,0.25 -1.25,0.6 l -1.75,1.3 2.95,-0.6 L 41,35 40.75,34.7 q -0.2,-0.25 -0.6,-0.35 L 38.8,33.9 M 22.4,23.3 21.55,22.7 q -0.3,-0.2 -1,-0.3 l -1.5,-0.3 -1.1,0.2 -0.45,0.05 q -0.4,-0.1 -0.15,-0.55 l 0.6,-0.4 2.25,-0.3 0.15,-0.05 0.7,0.15 0.9,0.05 0.6,0.1 0.85,0.5 0.5,0.45 0.45,0.35 0.25,0.75 q 0.1,0.75 -0.6,1 L 23.65,24.5 23.2,24.35 Q 22.5,24 22.4,23.3 M 8.15,13.35 Q 7.55,12 6.6,11.3 5.3,10.4 4.15,10.9 L 3.1,11.6 q 2.25,0 3.55,1.45 l 0.6,0.9 Q 8,15.2 8.4,16.55 L 8.55,15.8 8.45,14.1 8.15,13.35 M 11.5,26.8 10.95,25.45 Q 10,24 8.2,24.1 l -1.15,0.2 -0.25,0.1 0.4,0.15 q 0.65,0.2 1.3,0.55 l 0.85,0.6 1.5,1.35 0.6,1.05 0.35,-0.3 -0.3,-1 m 0.1,-5.6 -0.55,-0.05 -0.7,0.1 1.1,0.4 0.6,0.3 0.1,0.1 L 12,21.7 11.6,21.2 m 7.6,4.95 -2.75,0.05 -1.05,0.6 v 0.15 l 4.55,0.2 1.15,0.25 q -0.75,-0.8 -1.9,-1.25 m -3.3,20 1.55,-1.3 1.1,-0.65 q -0.4,-0.05 -0.65,-0.3 -1.4,0.85 -2,2.25"
         fill="#767676"
         fill-rule="evenodd"
         stroke="none"
         id="path4" />
      <path
         d="m 40.15,41.55 q -0.6,-1.7 -0.45,-3.9 0.25,-4.4 2.95,-6.8 l 0.7,-0.55 -0.3,-0.6 Q 42.65,28.55 43.2,27 l 0.6,-1.4 q 0.75,-1.1 2.1,-1.6 l 2.65,-0.45 q 1.7,0 3,0.8 1.55,1.1 1.45,2.65 l -0.25,1.05 0.3,0.1 q 2.7,0.75 4.3,2.95 l 1.2,-0.05 q 1.5,0.1 2.3,0.7 l 1.25,1.6 0.55,1.15 q 0.45,1.15 0.45,2.35 0.1,3.05 -1.6,5.1 Q 60.6,43 59.35,43.6 L 56.75,44 55.5,43.65 55.15,43.45 54.4,44 l -1.45,0.85 0.2,0.65 0.4,2.15 q 0,1.3 -0.9,1.95 l -1.6,0.45 h -0.5 l -0.05,2.2 4.35,-3.6 6.7,-5.65 q 0.4,-0.35 0.8,-0.4 0.5,-0.1 0.75,0.3 0.2,0.4 -0.45,1.05 l -6.75,6.8 Q 51.85,54.9 50.35,56.9 49.2,58.35 48.45,58.6 47.2,59 46.3,58.1 L 45.9,57.5 45.65,57.25 Q 45,57.9 44.3,58.2 l -1.8,0.55 -1.85,0.4 q -1.5,0.1 -2.45,-1 -0.95,-1.05 -0.8,-2.5 0.1,-0.85 0.9,-2.25 l 1.65,-3.05 0.6,-1 -1.5,-0.15 q -0.9,-0.4 -1.2,-1.3 -0.3,-0.85 -0.15,-1.75 0.25,-1.35 1.3,-2.35 l 1.35,-1.05 0.3,-0.15 -0.5,-1.05 M 48.35,37.1 48.1,36.65 48,36.1 q 0,-0.45 0.3,-0.85 l 0.4,-0.55 q 0,-0.45 -0.55,-0.45 -0.45,0.1 -0.65,0.45 l -0.45,0.65 -0.15,0.4 -0.4,0.4 -0.1,0.25 -0.8,0.75 -0.45,1.55 q -0.2,1.55 0.35,2.2 0.5,0.5 1.1,0.5 0.65,0 1.15,-0.5 l 0.45,-1 0.15,-1.1 V 37.1 M 43.9,33 l 0.8,0.45 2.3,-0.2 0.5,-0.15 q 1.05,-0.5 1.3,-1.55 L 48.9,31 q 0,-0.65 -0.4,-1.15 Q 48,29.2 47.05,29.1 l -1.7,0.15 -0.65,0.2 -1.3,1.2 -0.2,0.95 0.05,0.55 0.25,0.5 0.4,0.35 m 10.2,3.4 0.2,-0.6 0.05,-0.45 L 55,35.3 q 0.8,-0.2 0.8,-1.05 0,-0.8 -0.9,-1 L 54.15,33.4 54,32.8 53.65,32.1 52.7,32.15 q -0.3,0.35 -0.2,1.15 l 0.05,0.75 -0.8,0.2 -0.7,0.3 q -0.55,0.35 -0.5,0.7 l 0.35,0.4 0.5,0.1 h 1.2 q 0.05,0.55 0.25,0.8 l 0.65,0.2 0.6,-0.35 M 33.65,31.1 q 1.6,2.75 0.55,6.3 -0.8,2.7 -2.6,4.65 0.95,1.35 1.45,3.15 0.55,1.7 0.75,4.05 1.2,0.1 2.1,0.75 1,0.75 1.25,2.15 0.25,1.3 -0.3,2.5 -0.95,2.3 -3.8,3.15 l -1.8,0.2 -0.35,0.3 -1.25,0.25 q -0.7,-0.1 -1.2,-0.55 l -0.2,-0.2 -1.6,0.65 -3.3,0.6 Q 21.4,59.25 20.3,58.5 19.5,57.95 19.2,57.05 18.8,55.7 19.75,53.9 l 0.45,-0.7 -0.8,-0.75 q -0.5,-0.6 -0.65,-1.2 L 18.85,50 q 0.2,-1.55 0.75,-2.1 0.45,-0.3 0.75,-0.2 0.5,0.15 0.3,0.85 l -0.3,0.95 q -0.15,0.95 0.7,1.55 l 0.8,0.4 1.3,-1.1 4.1,-2.65 0.8,-0.8 0.05,-0.85 -0.1,-1.5 q -1.85,0.8 -3.95,0.9 -3.95,0.15 -6.8,-2.15 L 15.8,41.75 14.95,41.85 13.3,41.75 12.35,41.3 Q 10.85,40.35 10.45,39.7 10,39.1 9.7,38 L 9.45,37.15 q -0.15,-1 0.35,-2.1 0.4,-0.8 1.3,-1.75 l 0.8,-0.7 q 0.5,-0.35 1.35,-0.65 l 1.05,-0.2 q 0.65,0 1.55,0.45 l 1.35,-1.8 q 1.7,-1.85 3.5,-2.8 l 0.55,-0.25 -0.05,-0.15 -0.1,-1.3 0.15,-1.3 q 0.2,-0.75 1.2,-1.85 1.05,-0.95 2.1,-1.35 1.3,-0.5 2.8,-0.3 1.4,0.25 2.6,1.05 1.15,0.8 1.6,1.65 l 0.7,2.35 0.1,1.75 -0.3,1 -0.1,0.3 0.25,0.2 1.45,1.7 M 1.9,51.5 0.2,50.1 -0.65,48.6 -0.9,47.2 -1.1,45.95 q -0.15,-1.4 0.8,-2.85 l -0.5,-0.8 q -0.15,-0.65 0.2,-1.3 0.35,-0.6 0.95,-0.85 l 1.25,-0.1 0.6,0.2 0.65,-0.55 V 39.6 Q 3,38.45 3.55,37.7 L 4.1,37.15 Q 4.85,36.5 5.65,36.3 l 1.7,0.1 0.65,0.35 q 1.3,1 1.2,2.55 l -0.1,0.95 q 0.95,0.75 1.5,1.75 1.35,2.4 0.45,5.85 L 10,50.1 q -0.75,1 -2.35,1.55 L 7.4,51.75 8,53.2 8.05,53.15 8.55,52.75 8.95,52.5 9.5,52.3 q 1.45,-0.15 2.6,0.6 1,-1.1 0.6,-2.5 l -0.1,-0.55 0.3,-0.3 0.45,0.05 0.25,0.4 0.4,1.4 q 0.1,1.15 -0.45,2.05 L 13.1,54.1 Q 12.35,54.8 11,54.3 L 10.15,54.15 Q 9.8,54.3 9.6,54.8 l -0.4,1.05 -0.65,1.3 Q 8.3,57.4 7.95,57.45 L 7.85,57.5 6.1,57.6 6.05,57.65 Q 5.45,58.9 4.1,58.8 2.75,58.8 2.25,57.55 1.9,56.85 2.05,55.95 l 0.1,-0.6 0.3,-0.7 0.2,-0.75 0.2,-0.45 L 2.95,53 3.4,51.95 1.9,51.5 m 20.9,-8.65 0.05,0.05 q 0.45,0.8 1.4,0.6 0.8,-0.05 1.4,-0.85 l 0.7,-1.15 0.8,-1 q 0.55,-0.35 1.4,-0.35 l 1,-0.15 0.5,-0.35 q 0.5,-0.6 0.5,-1.2 v -0.2 L 30.6,38 30.3,37.6 29.8,37.35 29.65,37.3 l -0.5,-0.1 -1,0.05 q -2,0.3 -2.85,0.75 L 24.8,38.35 24.45,38.15 24.1,38 23.8,37.75 23.15,37.45 q -0.45,0 -0.6,0.35 l 0.05,0.5 0.25,0.5 0.15,0.55 0.25,0.5 -0.6,0.9 q -0.3,0.7 -0.3,1.1 0,0.65 0.45,1 m 4.25,-11.7 q -0.35,-0.5 -1,-0.3 l -0.85,0.65 -1.4,1.85 q -0.4,0.45 -0.5,0.9 -0.1,0.65 0.3,0.95 l 0.2,0.1 0.05,0.1 0.4,0.35 q 0.45,0.25 0.85,0 l 0.55,-0.35 1.1,-0.35 1.15,-0.5 q 0.9,-0.45 1.9,-0.45 l 0.45,-0.05 0.35,-0.4 -0.2,-0.45 q -0.1,-0.15 -0.5,-0.15 l -1.1,-0.1 -0.05,0.05 -1.15,0.15 -0.55,0.15 -0.8,0.35 -0.6,0.15 0.5,-0.65 0.85,-0.9 q 0.45,-0.65 0.05,-1.1 M 18,38 17.1,38.25 16.05,38.7 15.4,39.3 q -0.1,0.45 0.35,0.65 l 0.8,-0.05 1.85,-0.35 h 0.15 l -0.1,0.6 -0.25,1.3 0.2,0.65 0.7,0.05 0.4,-0.6 q 0.25,-0.75 0.95,-1.5 l 0.7,-0.9 v -0.7 l -0.5,-0.5 -0.35,-0.1 q -0.25,-0.45 -0.8,-0.45 -0.35,0 -0.75,0.25 L 18,38 M 8,48.15 6.1,47.65 5.8,47.05 5.7,47 5.25,46.45 5.2,46.5 4.8,46.8 v 0.45 L 4.7,47.6 v 0.3 L 4.35,48.2 4.1,48.55 3.95,49 3.65,49.3 v 0.35 L 4,49.75 4.2,49.55 4.55,49.5 4.95,49.3 5.5,48.9 5.65,48.75 5.85,48.6 H 5.9 l 1.2,0.15 0.55,0.1 q 0.35,0 0.4,-0.3 L 8,48.15 M 3.75,46.2 3.5,45.95 3.75,45.4 4,44.6 Q 3.9,44.1 3.4,44 2.85,44 2.5,44.6 l -0.3,0.65 -0.75,-0.2 q -0.5,0.1 -0.5,0.55 0,0.35 0.15,0.5 l 0.35,0.1 0.25,0.1 v 1.05 l -0.1,0.4 0.25,0.3 0.25,-0.2 0.15,-0.3 0.55,-0.6 0.05,-0.05 H 2.9 L 3.4,47 3.8,46.75 Q 3.95,46.5 3.75,46.2 M 9.25,45.1 9.05,44.7 8.7,44.2 8.95,43.95 9.3,43.2 Q 9.2,42.8 8.75,42.8 8.5,42.85 8.1,43.25 l -0.1,0.1 -0.45,-0.4 -0.6,-0.1 v 0.55 l 0.1,0.45 0.05,0.2 -0.4,0.35 q -0.45,0.45 -0.55,0.8 l 0.05,0.5 0.35,0.3 0.6,-0.25 0.4,-0.55 0.4,0.65 0.9,0.1 q 0.5,-0.25 0.4,-0.85 m 24,9.05 -0.2,0.55 0.85,-0.7 0.4,-0.95 q 0,-0.45 -0.5,-0.75 l -0.55,1.85"
         fill="#000000"
         fill-rule="evenodd"
         stroke="none"
         id="path5" />
      <path
         d="M 38.35,8.65 38.25,8.3 38.5,7.8 39.3,6.95 39.75,6.6 40.45,6.3 41.65,6 42.4,5.95 h 0.9 Q 41.75,6.15 40.45,6.9 39.3,7.6 38.35,8.65 M 46,7 V 7.05 L 45.6,7 H 46 m -0.9,0.05 -0.45,0.1 H 44.5 l 0.6,-0.1 m 9,29.35 -0.6,0.35 -0.65,-0.2 q -0.2,-0.25 -0.25,-0.8 h -1.2 l -0.5,-0.1 -0.35,-0.4 q -0.05,-0.35 0.5,-0.7 l 0.7,-0.3 0.8,-0.2 -0.05,-0.75 q -0.1,-0.8 0.2,-1.15 l 0.95,-0.05 0.35,0.7 0.15,0.6 0.75,-0.15 q 0.9,0.2 0.9,1 0,0.85 -0.8,1.05 l -0.65,0.05 -0.05,0.45 -0.2,0.6 M 43.9,33 43.5,32.65 43.25,32.15 43.2,31.6 l 0.2,-0.95 1.3,-1.2 0.65,-0.2 1.7,-0.15 q 0.95,0.1 1.45,0.75 0.4,0.5 0.4,1.15 l -0.1,0.55 Q 48.55,32.6 47.5,33.1 L 47,33.25 44.7,33.45 43.9,33 m 4.45,4.1 v 1.7 l -0.15,1.1 -0.45,1 q -0.5,0.5 -1.15,0.5 -0.6,0 -1.1,-0.5 -0.55,-0.65 -0.35,-2.2 l 0.45,-1.55 0.8,-0.75 0.1,-0.25 0.4,-0.4 0.15,-0.4 0.45,-0.65 q 0.2,-0.35 0.65,-0.45 0.55,0 0.55,0.45 l -0.4,0.55 Q 48,35.65 48,36.1 l 0.1,0.55 0.25,0.45 M 28,8.4 q 0.3,0.9 -0.2,1.8 -0.55,0.85 -1.5,1.1 -0.85,0.15 -1.65,-0.35 Q 23.8,10.45 23.6,9.6 23.4,8.75 23.9,7.95 24.35,7.1 25.2,6.85 l 1.7,0.25 q 0.85,0.45 1.1,1.3 m -9.9,4.2 -0.5,-0.4 -0.3,-0.55 q -0.25,-0.9 0.6,-1.55 l 1.65,0.1 q 0.75,0.6 0.5,1.55 Q 19.7,12.7 18.7,12.7 L 18.1,12.6 M 9.25,45.1 q 0.1,0.6 -0.4,0.85 L 7.95,45.85 7.55,45.2 7.15,45.75 6.55,46 6.2,45.7 6.15,45.2 Q 6.25,44.85 6.7,44.4 L 7.1,44.05 7.05,43.85 6.95,43.4 v -0.55 l 0.6,0.1 0.45,0.4 0.1,-0.1 q 0.4,-0.4 0.65,-0.45 0.45,0 0.55,0.4 l -0.35,0.75 -0.25,0.25 0.35,0.5 0.2,0.4 m -5.5,1.1 q 0.2,0.3 0.05,0.55 L 3.4,47 2.9,46.9 H 2.85 l -0.05,0.05 -0.55,0.6 -0.15,0.3 -0.25,0.2 -0.25,-0.3 0.1,-0.4 V 46.3 L 1.45,46.2 1.1,46.1 q -0.15,-0.15 -0.15,-0.5 0,-0.45 0.5,-0.55 L 2.2,45.25 2.5,44.6 Q 2.85,44 3.4,44 3.9,44.1 4,44.6 L 3.75,45.4 3.5,45.95 3.75,46.2 M 8,48.15 8.05,48.55 Q 8,48.85 7.65,48.85 L 7.1,48.75 5.9,48.6 H 5.85 L 5.65,48.75 5.5,48.9 4.95,49.3 4.55,49.5 4.2,49.55 4,49.75 3.65,49.65 V 49.3 L 3.95,49 4.1,48.55 4.35,48.2 4.7,47.9 V 47.6 L 4.8,47.25 V 46.8 L 5.2,46.5 5.25,46.45 5.7,47 l 0.1,0.05 0.3,0.6 1.9,0.5 M 18,38 18.75,37.65 q 0.4,-0.25 0.75,-0.25 0.55,0 0.8,0.45 l 0.35,0.1 0.5,0.5 v 0.7 l -0.7,0.9 q -0.7,0.75 -0.95,1.5 l -0.4,0.6 -0.7,-0.05 -0.2,-0.65 0.25,-1.3 0.1,-0.6 H 18.4 l -1.85,0.35 -0.8,0.05 Q 15.3,39.75 15.4,39.3 L 16.05,38.7 17.1,38.25 18,38 m 9.05,-6.85 q 0.4,0.45 -0.05,1.1 l -0.85,0.9 -0.5,0.65 0.6,-0.15 0.8,-0.35 0.55,-0.15 1.15,-0.15 0.05,-0.05 1.1,0.1 q 0.4,0 0.5,0.15 l 0.2,0.45 -0.35,0.4 -0.45,0.05 q -1,0 -1.9,0.45 l -1.15,0.5 -1.1,0.35 -0.55,0.35 q -0.4,0.25 -0.85,0 L 23.85,35.4 23.8,35.3 23.6,35.2 q -0.4,-0.3 -0.3,-0.95 0.1,-0.45 0.5,-0.9 l 1.4,-1.85 0.85,-0.65 q 0.65,-0.2 1,0.3 m -4.25,11.7 q -0.45,-0.35 -0.45,-1 0,-0.4 0.3,-1.1 l 0.6,-0.9 L 23,39.35 22.85,38.8 22.6,38.3 22.55,37.8 q 0.15,-0.35 0.6,-0.35 l 0.65,0.3 0.3,0.25 0.35,0.15 0.35,0.2 0.5,-0.35 q 0.85,-0.45 2.85,-0.75 l 1,-0.05 0.5,0.1 0.15,0.05 0.5,0.25 0.3,0.4 -0.05,0.25 v 0.2 q 0,0.6 -0.5,1.2 l -0.5,0.35 -1,0.15 q -0.85,0 -1.4,0.35 l -0.8,1 -0.7,1.15 q -0.6,0.8 -1.4,0.85 -0.95,0.2 -1.4,-0.6 L 22.8,42.85"
         fill="#ffffff"
         fill-rule="evenodd"
         stroke="none"
         id="path6" />
      <path
         d="M 54.55,9.7 53.6,9.65 Q 53.4,9.45 53.5,9.3 l 0.25,-0.2 q 0.4,-0.25 1.2,-0.55 l 1.2,-0.05 q 0.4,0.05 1,0.45 l 1.1,0.85 q 1.9,1.6 2.1,2.75 l 0.1,0.8 0.2,0.6 0.05,1.1 -0.3,2.05 -0.05,0.3 0.35,-0.1 1.05,-0.35 0.6,-0.1 0.95,-0.1 1.25,0.15 q 0.5,0.35 0.5,0.95 -0.1,0.55 -0.65,0.8 H 63.8 L 62,18.6 61.25,18.7 60.8,18.65 q -0.4,0 -0.9,0.4 l -0.3,0.25 -1.05,1.2 -0.85,0.7 q -0.55,0.3 -1.05,0 -0.55,-0.4 -0.3,-1.1 0.15,-0.6 0.65,-1 l 0.8,-0.9 0.55,-1.6 0.25,-1.85 -0.1,-1 -0.15,-0.9 Q 58.05,12.05 57.1,11.2 L 55.75,10.15 54.55,9.7 M 43.3,5.95 45.75,5.85 q 2.4,0.2 3.3,1.55 0.25,0.35 0,0.5 L 48.75,7.85 47.7,7.4 Q 46.9,7.05 46,7 h -0.4 -0.05 l -0.45,0.05 -0.6,0.1 q -0.6,0.1 -1.25,0.4 -1.9,0.8 -3.55,2.8 l -0.85,1.25 -0.95,2.35 -1,2.3 -0.35,0.3 -0.45,-0.3 q -0.45,-0.55 -0.35,-1.85 0.05,-0.95 0.5,-2.25 0.7,-1.9 1.95,-3.35 L 38.35,8.65 Q 39.3,7.6 40.45,6.9 41.75,6.15 43.3,5.95 M 30.4,4.2 29.85,4.35 h -0.2 L 29.45,4.5 29.2,4.35 29.25,4.2 29.1,3.85 29.6,3.25 h 0.05 l 0.1,-0.15 0.3,-0.3 0.1,-0.55 H 30.2 V 1.6 q 0.25,-0.55 0.7,-0.8 0.85,-0.45 1.55,0.25 0.45,0.5 0.4,1.15 l 0.4,0.35 q 0.6,0.75 0.1,1.6 -0.5,0.85 -1.5,0.7 L 31.05,4.35 31,4.25 30.4,4.2 m -1.55,9.3 q -0.35,-0.65 -0.3,-1.1 0.15,-0.55 0.8,-0.65 l 1.05,0.15 0.55,0.25 q 0.85,-0.55 1.5,-0.45 0.75,0.1 1.1,0.85 0.35,0.75 -0.1,1.35 l -0.75,0.65 -0.1,0.05 0.05,0.25 -0.05,0.55 q -0.35,1.15 -1.45,1.05 -1.2,-0.1 -1.35,-1.2 L 29.9,14.6 28.85,13.5 M 28,8.4 Q 27.75,7.55 26.9,7.1 L 25.2,6.85 q -0.85,0.25 -1.3,1.1 -0.5,0.8 -0.3,1.65 0.2,0.85 1.05,1.35 0.8,0.5 1.65,0.35 0.95,-0.25 1.5,-1.1 0.5,-0.9 0.2,-1.8 m -10.35,5.1 q -2,-1.05 -2.45,-2.9 -0.15,-0.55 -0.05,-1.7 0.35,-2.1 1.9,-3.8 1.5,-1.7 3.6,-2.35 2.65,-0.8 5.05,0.1 2.55,1.05 3.45,3.6 0.65,2.1 -0.3,4.05 l -1.15,1.55 -0.5,0.55 0.3,0.5 q 0.45,0.9 0.25,1.65 -0.2,0.75 -0.95,1.2 l -1.55,0.25 -0.2,-0.05 -0.2,0.3 q -0.6,0.85 -1.6,0.7 -1.05,-0.1 -1.5,-0.95 L 21.65,16 Q 21.2,16.4 20.6,16.5 L 19.4,16.25 Q 18.8,15.85 18.65,15.2 V 14.05 L 18.7,13.95 17.65,13.5 M 15.15,4.4 15.3,4.65 15.65,5 Q 15.95,5.35 15.6,5.7 15.4,6 14.9,5.9 L 14.2,5.75 13.9,5.65 13.65,6 Q 13.1,6.65 12.25,6.55 L 11.55,6.4 Q 10.65,5.85 10.8,4.9 10.9,4.35 11.3,4 11.55,3.75 12,3.65 L 12.4,3.6 V 3.35 q 0.1,-0.65 0.45,-1 0.45,-0.45 1.1,-0.35 0.7,0.1 0.95,0.7 0.4,0.7 0.1,1.5 l 0.15,0.2 M 8.8,17.35 9.9,15.85 10.4,14.9 q 0.35,-0.95 0.25,-2.95 L 10.4,10.25 9.7,8.35 Q 9.45,8 9.65,7.8 l 0.45,-0.05 0.35,0.3 0.85,0.85 q 0.8,0.9 1,3.4 l 0.05,1.45 q 0,1.05 -0.5,2.2 l -0.6,1.2 q -0.7,1.55 -1.45,2.1 L 8.3,19.4 Q 7.95,19.15 7.95,18.65 8.05,18.1 8.3,17.85 l 0.5,-0.5 m 9.3,-4.75 0.6,0.1 q 1,0 1.35,-0.95 0.25,-0.95 -0.5,-1.55 L 17.9,10.1 q -0.85,0.65 -0.6,1.55 l 0.3,0.55 0.5,0.4 M 3.3,7.2 2.5,7.65 1.95,7.95 1.05,8.95 0.65,9.3 Q 0,9.65 -0.5,9.05 -0.9,8.5 -0.6,7.85 L 0.4,6.75 0.75,6.45 1.9,5.85 2.4,5.65 4.55,5.2 6.05,5.35 6.95,5.6 7.15,5.85 7.7,6.2 V 6.45 L 7.5,6.65 6.65,6.45 5,6.6 4.35,6.9 3.3,7.2 m 14.35,7.5 q 0.3,0.3 0,0.9 l -0.55,0.95 q 0.65,0.65 0.5,1.5 L 16.95,18.95 15.9,19.2 15.15,19 q -0.6,-0.45 -0.7,-1.15 V 17.6 L 13.6,16.85 q -0.35,-0.95 0.25,-1.55 0.3,-0.35 0.8,-0.45 l 0.9,0.1 0.25,0.15 0.6,-0.5 0.55,-0.15 0.7,0.25"
         fill="#767676"
         fill-rule="evenodd"
         stroke="none"
         id="path7" />
    </g>
    <g
       id="shape2"
       transform="translate(1.5,1.5)">
      <path
         d="M 0,23.8 V 0 H 64.1 V 23.8 57.55 H 0 Z"
         fill="none"
         stroke="#000000"
         stroke-linecap="round"
         stroke-linejoin="round"
         stroke-width="3"
         id="path8" />
    </g>
  </defs>
</svg>
