<?xml version="1.0" encoding="UTF-8" standalone="no"?>
<svg
   ffdec:objectType="frame"
   height="44.349998"
   width="78.599998"
   version="1.1"
   id="svg11"
   sodipodi:docname="67.svg"
   xmlns:inkscape="http://www.inkscape.org/namespaces/inkscape"
   xmlns:sodipodi="http://sodipodi.sourceforge.net/DTD/sodipodi-0.dtd"
   xmlns:xlink="http://www.w3.org/1999/xlink"
   xmlns="http://www.w3.org/2000/svg"
   xmlns:svg="http://www.w3.org/2000/svg"
   xmlns:ffdec="https://www.free-decompiler.com/flash">
  <sodipodi:namedview
     id="namedview11"
     pagecolor="#ffffff"
     bordercolor="#000000"
     borderopacity="0.25"
     inkscape:showpageshadow="2"
     inkscape:pageopacity="0.0"
     inkscape:pagecheckerboard="0"
     inkscape:deskcolor="#d1d1d1"
     fit-margin-top="5"
     fit-margin-left="5"
     fit-margin-right="5"
     fit-margin-bottom="5" />
  <g
     transform="translate(2,2.05)"
     id="g3">
    <use
       ffdec:characterId="1"
       height="42.700001"
       transform="translate(-1.75,-2)"
       width="76.449997"
       xlink:href="#shape0"
       id="use1" />
    <use
       ffdec:characterId="66"
       height="41.799999"
       transform="translate(-0.9,-0.75)"
       width="77.099998"
       xlink:href="#shape1"
       id="use2" />
    <use
       ffdec:characterId="3"
       height="44.349998"
       transform="translate(-2,-2.05)"
       width="78.599998"
       xlink:href="#shape2"
       id="use3" />
  </g>
  <defs
     id="defs11">
    <g
       id="shape0"
       transform="translate(1.75,2)">
      <path
         d="M 2.8,0 V -0.4 H 5.4 V 0 H 9.7 V 19.45 0 H 20.55 L 19.3,19.45 H 9.7 0.25 V 0 H 2.8"
         fill="#ffffff"
         fill-rule="evenodd"
         stroke="none"
         id="path3" />
      <path
         d="M 0.25,19.45 H 9.7 19.3 L 18.7,28.6 16,28.5 10.95,27.95 9.7,27.8 Q 7.45,27.6 5.85,27.75 4.05,27.9 1.5,28.6 0.75,28.8 0.25,29.15 v -9.7 m 9.45,0 v 8.35 -8.35"
         fill="#121212"
         fill-rule="evenodd"
         stroke="none"
         id="path4" />
      <path
         d="m 9.7,27.8 1.25,0.15 5.05,0.55 2.7,0.1 h 1.05 l 3.75,0.15 q 2.45,0.3 3.6,1.25 0.6,0.5 0.6,1.1 0,0.65 -0.8,1 l -1.3,0.2 -7.15,0.15 -5.6,-0.3 L 9.7,31.75 7.95,31.6 3.1,31.95 0.95,32.3 0.25,32.1 -0.35,31.55 -0.5,31.3 V 29.9 L 0.25,29.15 Q 0.75,28.8 1.5,28.6 4.05,27.9 5.85,27.75 7.45,27.6 9.7,27.8 v 3.95 -3.95"
         fill="#999999"
         fill-rule="evenodd"
         stroke="none"
         id="path5" />
      <path
         d="M 2.8,0 H 0.25 M 9.7,0 H 5.4 m 16.15,0 h 10.7 M 20.55,0 H 9.7"
         fill="none"
         stroke="#666666"
         stroke-linecap="round"
         stroke-linejoin="round"
         stroke-width="4"
         id="path6" />
      <path
         d="m 9.7,-0.4 h 65 V 40.5 H 47.05 L 45.5,40.7 27,40.65 25.95,40.5 H 9.7 -0.5 V -0.4 H 9.7 V 40.5 -0.4"
         fill="#ffffff"
         fill-rule="evenodd"
         stroke="none"
         id="path7" />
    </g>
    <g
       id="shape1"
       transform="translate(0.9,0.75)">
      <path
         d="m 47.8,6.85 0.8,-0.55 0.75,-0.7 0.5,-1.65 q 0.2,-1.1 -0.2,-1.75 L 48.8,1.35 48.05,0.4 q -0.2,-0.75 0.45,-1 0.4,-0.1 1.05,0.35 1.55,1.35 1.8,2.35 0.3,0.9 0,2.55 l -0.45,1.6 -1.25,1.4 -0.7,0.6 -0.5,1.35 q -0.35,1 -1.65,2.1 l -1.3,1.1 q -1.75,1 -4.7,0.45 -1.05,-0.2 -1.65,-0.6 l -1,-1.05 -1.8,-1.75 Q 35.2,8.8 34.85,7.9 34.45,6.95 34.6,5.65 q 0.15,-3.15 2.3,-4.9 0.55,-0.4 1.4,-0.85 2.1,-1 3.35,-0.4 0.7,0.35 0.45,0.8 -0.1,0.25 -0.8,0.25 -2.1,0 -3.65,1.65 -1.4,1.65 -1.4,3.8 0,1 0.45,1.6 l 0.8,0.8 1,0.9 0.9,0.5 0.5,1 q 0.35,0.5 1.6,0.7 l 2.85,-0.1 1.9,-1.55 q 0.8,-0.8 0.85,-1.4 l 0.1,-0.9 0.6,-0.7 M 60.9,26.1 q 0.25,0.75 0,1.45 l 0.6,0.25 3.55,0.05 4.25,-0.75 -1.1,-0.8 -0.65,-0.6 q -0.4,-0.65 -0.25,-1.75 l 0.5,-1.6 -0.6,-0.15 -1.7,-0.2 -1.9,0.1 -1.6,0.55 -0.25,0.4 -1,1.3 -0.3,0.8 -0.05,0.1 0.5,0.85 m -9.7,-4.55 q -1.55,-1.4 -2.05,-3.7 -0.35,-2.05 0.15,-3.6 L 49.65,13.45 49.2,12.6 49,11.9 q -0.4,-0.95 -0.05,-1.45 0.3,-0.35 0.85,-0.35 l 0.9,0.25 0.95,0.5 0.35,0.25 0.8,-0.45 1.9,-0.85 0.75,-0.15 0.1,-0.1 0.5,-0.3 1.1,-0.35 2.5,-0.3 0.8,0.1 0.75,0.75 -0.15,1 -0.8,0.8 0.75,0.7 q 1.3,1.35 1.7,2.95 l 0.05,0.1 q 1.3,-0.7 3.15,-1.05 l 2.35,-0.25 q 3.1,-0.1 5.4,1.45 V 14.5 l 0.15,-1.65 -0.4,-0.8 -1.25,-1.3 -0.55,-0.4 -0.75,-0.05 -1.2,0.45 -0.85,0.5 -2.1,0.05 -0.8,-0.7 -0.2,-0.75 0.05,-0.9 q 0.3,-1.1 1.35,-1.75 0.95,-0.55 2.1,-0.55 2.6,-0.1 4.2,1.75 l 0.9,1.45 0.65,-1.7 v 2.95 l 0.3,0.6 0.05,1.2 -0.05,2.2 -0.1,0.65 -0.2,0.3 v 7.7 l -1.8,0.25 -2.5,-0.6 -0.35,0.8 0.6,0.4 1.1,0.7 0.9,1.25 0.05,0.15 q 1.15,0.25 2.75,1.45 l 0.5,0.55 q 0.05,0.5 -0.5,0.8 l -0.6,0.25 V 40.8 H -0.65 v -9.9 l -0.25,-0.6 0.25,-0.65 v -1.7 H 2.1 l 0.45,-0.2 2.55,-0.6 1.8,-0.2 3.35,0.35 3.05,0.65 h 1.3 l 1.35,-0.4 1.2,-0.05 0.5,0.35 0.1,0.1 H 42.4 l 1.05,-2.8 0.45,-1 0.25,-0.35 0.5,-1.05 -0.15,-1.1 q 0.15,-0.95 0.95,-1.4 l 1.3,-0.1 0.15,-0.35 0.4,-0.4 q 0.4,-0.25 0.8,-0.25 l 0.75,0.4 0.3,0.7 v 0.85 l -0.6,0.7 0.25,0.85 v 0.4 l 0.35,0.25 2.1,0.05 2.15,-0.5 -2.2,-1.3 M 51.45,8.35 51.3,7.95 51.15,7.7 V 7 L 51.5,6.3 q 0.6,-0.85 1.6,-0.75 1.1,0.2 1.4,1 l 0.05,0.75 q 0,0.85 -0.4,1.25 l -0.5,0.4 -0.75,0.25 q -0.4,0 -1,-0.4 L 51.45,8.35 M 52.2,7.75 52.45,8.05 52.8,8.3 53.15,8.2 53.65,7.65 53.75,7.1 53.55,6.8 53.05,6.55 52.6,6.6 52.2,6.85 52.1,7.2 V 7.45 L 52.2,7.6 V 7.75 M 43.1,2.7 43.8,2.95 44.2,3.5 q 0,0.45 -0.4,0.55 l -0.35,-0.1 -0.1,-0.3 Q 42.25,3.4 41.55,4.1 42,4.65 43.3,4.65 44.55,4.75 44.95,5.4 L 45.1,6.2 44.95,7 q -0.3,0.7 -1.2,1.05 L 43.65,8.1 V 8.15 L 43.35,8.6 43.2,8.9 42.55,9 42.3,8.85 42.1,8.4 42.15,8.25 40.95,8 Q 40.5,7.65 40.5,7.05 L 40.8,6.5 41.3,6.4 41.75,7.1 43.45,6.95 44,6.4 Q 44,6 43.45,5.8 h -0.8 L 41.45,5.45 40.7,4.95 Q 40.35,4.6 40.45,4 40.55,3.4 41,3.05 41.4,2.75 41.9,2.7 V 2.6 L 42,2.15 q 0.2,-0.3 0.45,-0.2 V 1.9 L 42.95,2.35 43,2.7 h 0.1 m 9,13.15 -0.15,-0.7 -0.5,-0.5 q -0.8,-0.4 -1.4,0.2 -0.3,0.3 -0.35,0.7 l 0.1,0.7 0.2,-0.1 2.05,-0.05 0.05,-0.25 m -7.7,10.8 1.05,-0.95 0.6,-0.4 0.4,-0.4 -1,-0.85 -0.05,0.15 -0.5,0.95 -0.5,1.5 M 59.5,13.9 59.05,13.15 q -0.35,-0.3 -0.75,-0.3 -0.45,0 -0.8,0.3 -0.4,0.25 -0.5,0.65 -0.1,0.45 0.1,0.85 l 0.05,0.15 0.05,-0.05 1.35,-0.3 h 0.85 l 0.1,0.05 v -0.6 m -8.75,4.7 q 0.2,0.3 0.95,0.3 h 0.4 l 0.2,0.15 0.35,0.2 0.3,-0.05 0.2,-0.1 0.1,-0.4 V 18.65 L 53.5,18.5 55,17.4 q 0.8,0.5 2.25,0.45 h 0.4 l 0.25,0.45 0.6,-0.1 0.15,-0.35 v -0.4 L 59.6,16.75 59.8,16.4 59.45,16 q -0.25,-0.05 -0.5,0.2 l -0.45,0.3 -0.7,0.25 -1.95,-0.15 -0.6,-0.25 q -0.45,-0.15 -0.7,0 L 54,16.8 q -0.95,1 -2.45,0.9 H 51 q -0.25,0.05 -0.35,0.35 -0.1,0.3 0.1,0.55 m -5.35,8.85 -0.6,0.5 h 5.4 l 1.35,-0.3 1.6,-0.4 2.15,-0.15 h 2.45 v -0.05 l -0.3,-1.2 0.1,-0.85 q 0.2,-1.15 0.6,-2 l -0.1,0.05 -0.95,0.15 -1,1.15 q -0.75,0.55 -2.1,1 -2.5,0.9 -4.7,0.55 l -1.55,-0.35 -0.05,0.05 -0.4,0.35 -0.4,0.25 -0.35,0.35 -0.6,0.45 -0.55,0.45"
         fill="#999999"
         fill-rule="evenodd"
         stroke="none"
         id="path8" />
      <path
         d="m 11.75,26.3 q -0.1,-1.6 0.1,-3.05 l -1.6,-0.2 Q 8.55,22.6 7.8,21.65 6.65,20.3 7.05,17.7 7.3,16.2 7.8,15.3 l 1.1,-1.4 q 1.15,-1 2.65,-1.4 1.55,-0.35 2.95,0 1.3,0.3 2.05,1.15 l 0.6,1 0.15,0.2 0.35,0.55 q 4.05,-2.05 8.9,-0.7 L 27.4,15 q -0.1,-0.9 0.35,-1.9 0.45,-1 1.2,-1.75 0.35,-0.35 0.85,-0.6 l 1.1,-0.15 2.45,0.25 q 1.3,0.4 1.9,1.35 l 0.4,0.75 q 0.55,1.3 0.3,2.75 l -0.3,1.2 -0.45,1.1 -0.9,1.05 -0.85,0.75 0.45,0.8 q 1.1,2.25 1,4.75 -0.15,2.6 -1.5,4.55 -1.15,1.65 -2.95,2.7 l 0.95,1.8 q 0.95,2.2 1.2,4.5 l 0.5,-0.1 2.8,-0.65 q 0.6,-0.25 0.45,-0.6 l -0.3,-0.25 q -1.25,-0.55 -1.6,-1 -0.55,-0.75 -0.25,-2.3 0.2,-1 0.55,-1.55 0.55,-1.1 2.05,-1.7 l 2.65,-0.25 q 1.25,0.1 1.8,0.6 l 0.35,0.75 q 0,0.55 -0.55,0.55 l -0.5,-0.2 -2.3,0.05 q -0.95,0.3 -1.3,0.75 -0.35,0.4 -0.45,1.4 1.35,0.65 1.8,1.05 0.95,0.8 1.1,1.7 0.2,0.85 -0.35,1.85 -0.55,0.85 -1.45,1.3 -0.75,0.45 -2,0.75 H 12.8 v -0.4 q 0.3,-4.9 2.6,-8.5 L 15,31.9 13.05,30.4 q -1.1,-1.3 -1.3,-4.1 M 25.3,7.5 Q 25.75,9 25,10.65 24.25,12.05 22.85,13 l -1.05,0.5 -1.35,0.05 -1.5,-0.4 -1.15,-0.95 q -1.2,-1.1 -1.25,-2 L 16.6,9.35 16.75,8.4 16.9,7.7 Q 17.05,7.2 17.55,6.4 L 18.6,5.1 18,4.4 Q 17.9,4.15 18.1,3.65 L 18.4,3.15 18.95,3 h 0.9 l 0.65,0.15 0.45,0.4 Q 21.25,3 21.7,2.8 22.65,2.35 23.35,3.05 l 0.3,0.65 -0.2,0.45 -0.35,0.5 0.35,0.3 0.5,0.65 0.8,0.75 0.55,1.15 m -10,11.05 q -0.6,0.45 -1,1.95 -0.2,1 -0.05,1.45 l 0.8,0.75 2.3,-0.05 q 1.15,-0.5 1.55,-1.8 0.35,-1 0.05,-1.65 -0.55,-1.25 -2.2,-1.15 -0.9,0 -1.45,0.5 m 11.35,5.9 q -0.05,-0.15 -0.3,-0.2 l -0.45,-0.1 -0.6,-0.2 -1,-0.3 -0.8,-0.3 -0.1,-0.2 L 23,22.25 22.9,21.9 Q 22.75,21.65 22.45,21.55 L 22.2,21.6 22,21.9 q -0.25,0.7 -0.2,1 l 0.1,0.8 h -0.05 l -0.9,1.05 -0.75,1.15 -0.1,0.45 q 0.15,0.4 0.6,0.3 l 0.65,-0.4 1,-0.85 0.7,-0.45 0.05,-0.05 h 0.15 l 1.05,0.1 0.9,0.15 h 0.85 l 0.5,-0.2 q 0.25,-0.25 0.1,-0.5 m -0.35,-5.1 0.2,0.95 3.1,-0.1 0.35,0.05 0.1,-0.3 0.15,-1.15 -0.55,-0.7 q -0.6,-0.55 -1.2,-0.6 -0.7,-0.15 -1.3,0.25 -0.4,0.25 -0.65,0.85 l -0.2,0.75 M 19,8.1 q -0.3,0.6 -0.2,1.55 l 0.05,0.6 q 0.25,0.55 0.75,0.7 l 0.25,0.1 0.05,0.45 0.1,0.3 0.35,0.25 h 0.45 l 0.25,-0.4 0.05,-0.4 V 11.1 l 0.5,-0.15 q 0.55,-0.25 0.55,-0.8 L 21.95,9.7 21.5,9.55 21.05,9.8 20.55,9.85 20.15,9.7 19.95,9.2 q 0.1,-0.6 0.55,-0.85 l 1.05,0.05 0.4,0.25 0.45,-0.2 0.1,-0.5 Q 22.45,7.45 21.8,7.25 L 21.6,7.15 21.65,7 21.35,6.45 20.8,6.2 20.75,6.25 q -0.45,0 -0.7,0.4 L 19.95,7.2 Q 19.25,7.45 19,8.1"
         fill="#000000"
         fill-rule="evenodd"
         stroke="none"
         id="path9" />
      <path
         d="m 19,8.1 q 0.25,-0.65 0.95,-0.9 l 0.1,-0.55 q 0.25,-0.4 0.7,-0.4 L 20.8,6.2 21.35,6.45 21.65,7 21.6,7.15 l 0.2,0.1 q 0.65,0.2 0.7,0.7 L 22.4,8.45 21.95,8.65 21.55,8.4 20.5,8.35 Q 20.05,8.6 19.95,9.2 l 0.2,0.5 0.4,0.15 0.5,-0.05 0.45,-0.25 0.45,0.15 0.2,0.45 q 0,0.55 -0.55,0.8 l -0.5,0.15 v 0.15 l -0.05,0.4 -0.25,0.4 H 20.35 L 20,11.8 19.9,11.5 19.85,11.05 19.6,10.95 Q 19.1,10.8 18.85,10.25 L 18.8,9.65 Q 18.7,8.7 19,8.1 m 7.3,11.25 0.2,-0.75 q 0.25,-0.6 0.65,-0.85 0.6,-0.4 1.3,-0.25 0.6,0.05 1.2,0.6 l 0.55,0.7 -0.15,1.15 -0.1,0.3 -0.35,-0.05 -3.1,0.1 -0.2,-0.95 m 0.35,5.1 q 0.15,0.25 -0.1,0.5 l -0.5,0.2 H 25.2 L 24.3,25 23.25,24.9 H 23.1 l -0.05,0.05 -0.7,0.45 -1,0.85 -0.65,0.4 q -0.45,0.1 -0.6,-0.3 l 0.1,-0.45 0.75,-1.15 0.9,-1.05 h 0.05 l -0.1,-0.8 q -0.05,-0.3 0.2,-1 l 0.2,-0.3 0.25,-0.05 q 0.3,0.1 0.45,0.35 l 0.1,0.35 0.4,0.9 0.1,0.2 0.8,0.3 1,0.3 0.6,0.2 0.45,0.1 q 0.25,0.05 0.3,0.2 M 15.3,18.55 q 0.55,-0.5 1.45,-0.5 1.65,-0.1 2.2,1.15 0.3,0.65 -0.05,1.65 -0.4,1.3 -1.55,1.8 l -2.3,0.05 -0.8,-0.75 Q 14.1,21.5 14.3,20.5 q 0.4,-1.5 1,-1.95"
         fill="#ffffff"
         fill-rule="evenodd"
         stroke="none"
         id="path10" />
    </g>
    <g
       id="shape2"
       transform="translate(2,2.05)">
      <path
         d="M -0.5,-0.4 V -0.55 H 75.1 V -0.4 40.8 H -0.5 Z"
         fill="none"
         stroke="#000000"
         stroke-linecap="round"
         stroke-linejoin="round"
         stroke-width="3"
         id="path11" />
    </g>
  </defs>
</svg>
