<?xml version="1.0" encoding="UTF-8" standalone="no"?>
<svg
   ffdec:objectType="frame"
   height="60.549999"
   width="67.099998"
   version="1.1"
   id="svg7"
   sodipodi:docname="627.svg"
   xmlns:inkscape="http://www.inkscape.org/namespaces/inkscape"
   xmlns:sodipodi="http://sodipodi.sourceforge.net/DTD/sodipodi-0.dtd"
   xmlns:xlink="http://www.w3.org/1999/xlink"
   xmlns="http://www.w3.org/2000/svg"
   xmlns:svg="http://www.w3.org/2000/svg"
   xmlns:ffdec="https://www.free-decompiler.com/flash">
  <sodipodi:namedview
     id="namedview7"
     pagecolor="#ffffff"
     bordercolor="#000000"
     borderopacity="0.25"
     inkscape:showpageshadow="2"
     inkscape:pageopacity="0.0"
     inkscape:pagecheckerboard="0"
     inkscape:deskcolor="#d1d1d1"
     fit-margin-top="5"
     fit-margin-left="5"
     fit-margin-right="5"
     fit-margin-bottom="5" />
  <g
     transform="translate(1.5,1.5)"
     id="g3">
    <use
       ffdec:characterId="516"
       height="57.549999"
       width="64.099998"
       xlink:href="#shape0"
       id="use1" />
    <use
       ffdec:characterId="1118"
       height="60.099998"
       transform="translate(-0.5,-1.5)"
       width="65.099998"
       xlink:href="#shape1"
       id="use2" />
    <use
       ffdec:characterId="518"
       height="60.549999"
       transform="translate(-1.5,-1.5)"
       width="67.099998"
       xlink:href="#shape2"
       id="use3" />
  </g>
  <defs
     id="defs7">
    <g
       id="shape0">
      <path
         d="M 53.6,0 H 64.1 V 57.55 H 53.6 28.25 0 V 0 H 28.25 53.6 V 57.55 0 M 28.25,0 V 57.55 0"
         fill="#ffffff"
         fill-rule="evenodd"
         stroke="none"
         id="path3" />
    </g>
    <g
       id="shape1"
       transform="translate(0.5,1.5)">
      <path
         d="m 31.8,-1.5 h 0.3 l 0.1,0.05 h 0.05 0.1 l 0.05,0.05 0.1,0.05 h 0.1 l 0.05,0.05 h 0.1 l 0.05,0.05 0.1,0.05 0.05,0.05 0.1,0.05 0.05,0.05 0.1,0.1 0.1,0.05 0.05,0.05 0.1,0.1 0.05,0.1 0.1,0.1 0.05,0.1 0.1,0.15 0.05,0.15 0.1,0.25 0.05,0.15 V 0.4 L 34,0.65 34.05,1 V 1.65 L 34.1,2 v 0.7 l 0.05,0.8 v 0.4 l 0.05,0.2 v 0.15 l 0.05,0.25 v 0.3 l 0.05,0.3 v 0.5 l 0.05,0.6 0.4,-0.05 1.25,-0.1 1.65,-0.1 q 0.7,0.25 1,0.85 0.25,0.6 -0.05,1.25 l -0.55,0.75 -0.75,1.35 -2.25,3 -0.6,0.5 q -1.2,0.95 -2.55,0.95 -1.65,0 -2.85,-0.95 l -0.6,-0.5 Q 27.1,11.8 26.2,10.15 L 25.45,8.8 24.9,8.05 Q 24.6,7.4 24.85,6.8 q 0.3,-0.6 1,-0.85 l 1.65,0.1 1.25,0.1 0.4,0.05 0.05,-0.6 V 5.1 L 29.25,4.8 V 4.5 L 29.3,4.25 V 4.1 L 29.35,3.9 V 3.5 L 29.4,2.7 V 2 L 29.45,1.65 V 1 L 29.5,0.65 29.55,0.4 V 0.25 l 0.05,-0.15 0.1,-0.25 0.05,-0.15 0.1,-0.15 0.05,-0.1 0.1,-0.1 0.05,-0.1 0.1,-0.1 0.05,-0.05 0.1,-0.05 0.1,-0.1 0.05,-0.05 0.1,-0.05 0.05,-0.05 0.1,-0.05 0.05,-0.05 h 0.1 L 30.9,-1.35 H 31 l 0.1,-0.05 0.05,-0.05 h 0.1 0.05 l 0.1,-0.05 h 0.3 0.1 m 25.4,8 -0.05,-1.25 Q 57.05,4.65 57.2,4.15 57.3,3.5 57.75,3.2 l 0.6,-0.1 0.25,0.2 -0.05,0.3 -0.2,0.3 0.05,0.3 0.5,1.25 0.45,1.3 q 0.2,1.15 -0.4,2.25 -0.65,1.1 -1.7,1.5 l -4,0.4 q -0.1,1.4 -0.75,2.1 -0.75,0.85 -1.8,0.85 -1.35,0.1 -2.15,-0.9 -0.5,-0.8 -0.5,-1.85 0.05,-1.25 0.85,-2.35 0.8,-1.1 2.05,-1.5 1.85,-0.65 4.5,0.45 L 56.8,7.75 Q 57.2,7.5 57.2,6.5 M 64.6,31.25 64.35,31.3 64,31.35 H 63.35 L 63,31.4 h -0.7 l -0.8,0.05 h -0.4 l -0.2,0.05 h -0.15 l -0.25,0.05 h -0.3 l -0.3,0.05 h -0.5 l -0.6,0.05 0.05,0.4 0.1,1.25 0.1,1.65 q -0.25,0.7 -0.85,1 L 56.95,35.9 56.2,35.35 54.85,34.6 q -1.65,-0.9 -3,-2.25 l -0.5,-0.6 q -0.95,-1.2 -0.95,-2.55 0,-1.65 0.95,-2.85 l 0.5,-0.6 q 1.35,-1.35 3,-2.25 l 1.35,-0.75 0.75,-0.55 1.25,-0.05 q 0.6,0.3 0.85,1 l -0.1,1.65 -0.1,1.25 -0.05,0.4 0.6,0.05 h 0.5 l 0.3,0.05 h 0.3 l 0.25,0.05 h 0.15 l 0.2,0.05 h 0.4 l 0.8,0.05 H 63 l 0.35,0.05 H 64 l 0.35,0.05 0.25,0.05 v 4.4 M 57.2,51.4 q 0,-1 -0.4,-1.25 l -1.35,0.05 q -2.65,1.1 -4.5,0.45 -1.25,-0.4 -2.05,-1.5 -0.8,-1.1 -0.85,-2.35 0,-1.05 0.5,-1.85 0.8,-1 2.15,-0.9 1.05,0 1.8,0.85 0.65,0.7 0.75,2.1 l 4,0.4 q 1.05,0.4 1.7,1.5 0.6,1.1 0.4,2.25 l -0.45,1.3 -0.5,1.25 -0.05,0.3 0.2,0.3 0.05,0.3 -0.25,0.2 -0.6,-0.1 Q 57.3,54.4 57.2,53.75 57.05,53.25 57.15,52.65 L 57.2,51.4 M 6.1,6.5 q 0,1 0.4,1.25 L 7.85,7.7 q 2.65,-1.1 4.5,-0.45 1.25,0.4 2.05,1.5 0.8,1.1 0.85,2.35 0,1.05 -0.5,1.85 -0.8,1 -2.15,0.9 -1.05,0 -1.8,-0.85 -0.65,-0.7 -0.75,-2.1 l -4,-0.4 Q 5,10.1 4.35,9 3.75,7.9 3.95,6.75 L 4.4,5.45 4.9,4.2 4.95,3.9 4.75,3.6 Q 4.65,3.5 4.7,3.3 L 4.95,3.1 5.55,3.2 Q 6,3.5 6.1,4.15 L 6.15,5.25 6.1,6.5 M -0.45,26.8 -0.1,26.75 H 0.55 L 0.9,26.7 H 1.6 L 2.4,26.65 H 2.8 L 3,26.6 H 3.15 L 3.4,26.55 H 3.7 L 4,26.5 H 4.5 L 5.1,26.45 5.05,26.05 4.95,24.8 q -0.2,-1.25 -0.1,-1.65 0.25,-0.7 0.85,-1 l 1.25,0.05 0.75,0.55 1.35,0.75 q 1.65,0.9 3,2.25 l 0.5,0.6 q 0.95,1.2 0.95,2.85 0,1.35 -0.95,2.55 l -0.5,0.6 q -1.35,1.35 -3,2.25 L 7.7,35.35 6.95,35.9 5.7,35.95 q -0.6,-0.3 -0.85,-1 -0.1,-0.4 0.1,-1.65 L 5.05,32.05 5.1,31.65 4.5,31.6 H 4 L 3.7,31.55 H 3.4 L 3.15,31.5 H 3 L 2.8,31.45 H 2.4 L 1.6,31.4 H 0.9 L 0.55,31.35 H -0.1 L -0.45,31.3 H -0.5 v -4.5 h 0.05 M 31.8,58.6 h -0.1 -0.3 l -0.1,-0.05 h -0.05 -0.1 L 31.1,58.5 31,58.45 H 30.9 L 30.85,58.4 h -0.1 L 30.7,58.35 30.6,58.3 30.55,58.25 30.45,58.2 30.4,58.15 30.3,58.05 30.2,58 30.15,57.95 30.05,57.85 30,57.75 29.9,57.65 29.85,57.55 29.75,57.4 29.7,57.25 29.6,57 29.55,56.85 V 56.7 L 29.5,56.45 29.45,56.1 V 55.45 L 29.4,55.1 V 54.4 L 29.35,53.6 V 53.2 L 29.3,53 V 52.85 L 29.25,52.6 V 52.3 L 29.2,52 v -0.5 l -0.05,-0.6 -0.4,0.05 -1.25,0.1 -1.65,0.1 -1,-0.85 Q 24.6,49.7 24.9,49.05 l 0.55,-0.75 0.75,-1.35 q 0.9,-1.65 2.25,-3 l 0.6,-0.5 q 1.2,-0.95 2.85,-0.95 1.35,0 2.55,0.95 l 0.6,0.5 q 1.35,1.35 2.25,3 l 0.75,1.35 0.55,0.75 q 0.3,0.65 0.05,1.25 -0.3,0.6 -1,0.85 L 36,51.05 34.75,50.95 34.35,50.9 34.3,51.5 V 52 l -0.05,0.3 v 0.3 L 34.2,52.85 V 53 l -0.05,0.2 v 0.4 l -0.05,0.8 v 0.7 l -0.05,0.35 V 56.1 L 34,56.45 33.95,56.7 v 0.15 L 33.9,57 l -0.1,0.25 -0.05,0.15 -0.1,0.15 -0.05,0.1 -0.1,0.1 -0.05,0.1 -0.1,0.1 -0.05,0.05 -0.1,0.05 -0.1,0.1 -0.05,0.05 -0.1,0.05 -0.05,0.05 -0.1,0.05 -0.05,0.05 h -0.1 l -0.05,0.05 h -0.1 l -0.1,0.05 -0.05,0.05 H 32.25 32.2 L 32.1,58.6 H 31.8 M 6.1,51.4 6.15,52.65 6.1,53.75 Q 6,54.4 5.55,54.7 L 4.95,54.8 4.7,54.6 Q 4.65,54.4 4.75,54.3 L 4.95,54 4.9,53.7 4.4,52.45 3.95,51.15 Q 3.75,50 4.35,48.9 5,47.8 6.05,47.4 l 4,-0.4 q 0.1,-1.4 0.75,-2.1 0.75,-0.85 1.8,-0.85 1.35,-0.1 2.15,0.9 0.5,0.8 0.5,1.85 -0.05,1.25 -0.85,2.35 -0.8,1.1 -2.05,1.5 Q 10.5,51.3 7.85,50.2 L 6.5,50.15 Q 6.1,50.4 6.1,51.4"
         fill="#999999"
         fill-rule="evenodd"
         stroke="none"
         id="path4" />
      <path
         d="M 34.1,30.7 Q 33.55,29.5 32.8,29.15 L 32.1,29 H 31.9 31.7 L 31,29.15 q -0.75,0.35 -1.3,1.55 -0.4,1.2 -0.35,3.4 0.7,4.95 0.65,7.35 0.15,1.7 -0.5,2.45 l -0.65,0.6 -1.15,0.6 -11.05,0.55 Q 16,45.05 15.8,42.85 14.15,28.75 16.55,22.1 17.85,18.25 19.4,16.8 21.1,15 22.7,13.75 24.25,12.5 26.5,12 l 4.3,-0.75 h 1 0.2 1 q 2.1,0.3 4.6,1.1 2.5,0.85 3.85,1.95 l 2.95,2.5 q 1.55,1.45 2.85,5.3 2.4,6.65 0.75,20.75 -0.2,2.2 -0.85,2.8 L 36.1,45.1 Q 35.05,44.7 34.95,44.5 L 34.3,43.9 q -0.65,-0.75 -0.5,-2.45 -0.05,-2.4 0.65,-7.35 0.05,-2.2 -0.35,-3.4 m 6.1,4.35 1.3,-0.05 h 0.1 l 0.45,0.1 0.85,-0.05 0.35,0.05 0.6,0.05 h 1.25 q 0.25,-7.5 -1.95,-12.55 -0.8,-2 -1.65,-3 L 39.15,17.65 35.5,16 32.95,15.55 H 31.9 30.85 l -1,0.15 -1.55,0.3 q -2.15,0.9 -3.65,1.65 -1.4,0.85 -2.35,1.95 -0.85,1 -1.65,3 -1.6,3.65 -1.9,8.6 -0.1,1.5 -0.05,3.15 v 0.8 h 0.3 0.95 0.2 l 0.5,-0.05 0.25,-0.05 0.85,0.05 0.55,-0.1 1.3,0.05 h 0.65 0.05 L 25.1,35 v -0.2 q -0.1,-3.6 0.6,-5.6 0.85,-2.1 2.35,-3.4 1.4,-1.1 2.8,-1.55 l 0.7,-0.05 0.2,0.05 v -0.1 l 0.15,0.1 0.15,-0.1 v 0.1 l 0.2,-0.05 0.7,0.05 q 1.4,0.45 2.8,1.55 1.5,1.3 2.35,3.4 0.7,2 0.6,5.6 V 35 l 0.8,0.05 h 0.7 m -1.9,5.7 v 0.8 l 6.3,-0.05 0.05,-0.55 h -0.1 L 44.1,41.05 41.6,41 q -1.2,-0.1 -1.55,-0.4 -0.4,-0.3 -0.45,-0.8 v -0.6 -0.4 l 0.05,-0.85 h -0.4 -0.8 q -0.25,1.7 -0.15,2.8 m -12.8,0 -0.15,-2.8 h -0.8 -0.1 l 0.1,0.8 0.2,0.85 -0.45,0.75 -0.75,0.1 -3.5,0.2 -0.4,0.1 h -0.5 l 0.05,0.75 6.3,0.05 v -0.8"
         fill="#000000"
         fill-rule="evenodd"
         stroke="none"
         id="path5" />
      <path
         d="M 24.25,35.05 H 23.6 L 22.3,35 21.75,35.1 20.9,35.05 20.65,35.1 20.15,35.15 H 19.95 19 18.7 v -0.8 q -0.05,-1.65 0.05,-3.15 0.3,-4.95 1.9,-8.6 0.8,-2 1.65,-3 0.95,-1.1 2.35,-1.95 1.5,-0.75 3.65,-1.65 l 1.55,-0.3 1,-0.15 h 1.05 1.05 l 2.55,0.45 3.65,1.65 2.35,1.95 q 0.85,1 1.65,3 2.2,5.05 1.95,12.55 H 43.85 L 43.25,35.1 42.9,35.05 42.05,35.1 41.6,35 H 41.5 L 40.2,35.05 40.05,34 39.15,30.7 38.5,28.55 37.6,26.5 Q 36.1,24.1 33.35,23.45 30.6,22.8 28.2,24.4 q -2.15,1.4 -3.05,4.1 -0.8,2.2 -0.8,5.15 l -0.1,1.4"
         fill="#999999"
         fill-rule="evenodd"
         stroke="none"
         id="path6" />
    </g>
    <g
       id="shape2"
       transform="translate(1.5,1.5)">
      <path
         d="M 0,23.8 V 0 H 64.1 V 23.8 57.55 H 0 Z"
         fill="none"
         stroke="#000000"
         stroke-linecap="round"
         stroke-linejoin="round"
         stroke-width="3"
         id="path7" />
    </g>
  </defs>
</svg>
