<?xml version="1.0" encoding="UTF-8" standalone="no"?>
<svg
   ffdec:objectType="frame"
   height="60.549999"
   width="67.099998"
   version="1.1"
   id="svg7"
   sodipodi:docname="88.svg"
   xmlns:inkscape="http://www.inkscape.org/namespaces/inkscape"
   xmlns:sodipodi="http://sodipodi.sourceforge.net/DTD/sodipodi-0.dtd"
   xmlns:xlink="http://www.w3.org/1999/xlink"
   xmlns="http://www.w3.org/2000/svg"
   xmlns:svg="http://www.w3.org/2000/svg"
   xmlns:ffdec="https://www.free-decompiler.com/flash">
  <sodipodi:namedview
     id="namedview7"
     pagecolor="#ffffff"
     bordercolor="#000000"
     borderopacity="0.25"
     inkscape:showpageshadow="2"
     inkscape:pageopacity="0.0"
     inkscape:pagecheckerboard="0"
     inkscape:deskcolor="#d1d1d1"
     fit-margin-top="5"
     fit-margin-left="5"
     fit-margin-right="5"
     fit-margin-bottom="5" />
  <g
     transform="translate(1.5,1.5)"
     id="g3">
    <use
       ffdec:characterId="516"
       height="57.549999"
       width="64.099998"
       xlink:href="#shape0"
       id="use1" />
    <use
       ffdec:characterId="600"
       height="53.950001"
       transform="translate(13.65,3.05)"
       width="37.5"
       xlink:href="#shape1"
       id="use2" />
    <use
       ffdec:characterId="518"
       height="60.549999"
       transform="translate(-1.5,-1.5)"
       width="67.099998"
       xlink:href="#shape2"
       id="use3" />
  </g>
  <defs
     id="defs7">
    <g
       id="shape0">
      <path
         d="M 53.6,0 H 64.1 V 57.55 H 53.6 28.25 0 V 0 H 28.25 53.6 V 57.55 0 M 28.25,0 V 57.55 0"
         fill="#ffffff"
         fill-rule="evenodd"
         stroke="none"
         id="path3" />
    </g>
    <g
       id="shape1"
       transform="translate(-13.65,-3.05)">
      <path
         d="M 16.55,57 H 13.7 v -0.1 -0.15 l -0.05,-0.1 V 56.55 56.4 56.3 56.15 56.05 55.9 55.8 55.65 55.55 55.4 55.3 55.2 55.05 54.95 54.8 54.7 54.55 54.45 54.3 54.2 54.05 53.95 53.85 53.7 53.6 53.45 53.35 53.2 53.1 52.95 52.85 52.7 52.6 52.5 52.35 52.25 52.1 52 51.85 51.75 51.6 51.5 51.35 51.25 51.1 51 50.9 50.75 50.65 50.5 50.4 50.25 50.15 50 49.9 49.75 49.65 49.55 49.4 49.3 49.15 49.05 48.9 48.8 48.65 48.55 48.4 48.3 48.2 48.05 47.95 47.8 47.7 47.55 47.45 47.3 47.2 47.05 46.95 46.85 46.7 46.6 46.45 46.35 46.2 46.1 45.95 45.85 45.7 45.6 45.5 45.35 45.25 45.1 45 44.85 44.75 44.6 44.5 44.35 44.25 44.15 44 43.9 43.75 43.65 43.5 43.4 43.25 43.15 43 42.9 l 0.05,-0.1 v -0.15 -0.1 -0.15 -0.1 -0.15 -0.1 -0.15 -0.1 -0.15 -0.1 -0.1 -0.15 -0.1 -0.15 -0.1 -0.15 -0.1 -0.15 -0.1 -0.15 l 0.05,-0.1 V 40.05 39.95 39.85 39.7 39.6 39.45 39.35 39.2 39.1 38.95 38.85 38.7 38.6 38.5 38.35 38.25 38.1 38 37.85 37.75 L 13.8,37.6 v -0.1 -0.15 -0.1 l 0.05,-0.1 V 37 36.9 36.75 36.65 36.5 36.4 36.25 l 0.05,-0.1 V 36 35.9 35.8 35.65 35.55 35.4 35.3 35.15 35.05 l 0.05,-0.15 v -0.1 -0.15 -0.1 -0.1 -0.15 -0.1 -0.15 -0.1 -0.15 -0.1 -0.15 -0.1 -0.15 -0.1 -0.1 -0.15 -0.1 -0.15 -0.1 -0.15 -0.1 -0.15 L 14,32.1 v -0.15 -0.1 l 0.05,-0.1 V 31.6 31.5 31.35 l 0.05,-0.1 V 31.1 31 30.85 30.75 l 0.05,-0.15 v -0.1 -0.1 -0.15 -0.1 L 14.2,30 v -0.1 -0.15 -0.1 -0.15 -0.1 l 0.05,-0.15 v -0.1 l 0.05,-0.1 V 28.9 28.8 28.65 l 0.05,-0.1 V 28.4 28.3 28.15 28.05 L 14.4,27.9 v -0.1 -0.15 -0.1 -0.1 -0.15 -0.1 l 0.05,-0.15 v -0.1 -0.15 l 0.05,-0.1 v -0.15 l 0.05,-0.1 V 26.3 l 0.05,-0.1 0.05,-0.1 v -0.15 -0.1 -0.15 -0.1 l 0.05,-0.15 0.05,-0.1 V 25.2 25.1 24.95 l 0.05,-0.1 v -0.1 -0.15 l 0.05,-0.1 0.05,-0.15 0.1,-0.1 0.1,-0.15 0.1,-0.1 0.15,-0.15 0.2,-0.05 0.1,-0.05 h 0.3 V 23.7 l 0.35,0.1 0.25,0.1 0.15,0.15 0.1,0.1 0.1,0.15 0.05,0.1 0.05,0.1 0.05,0.15 0.05,0.1 v 0.15 0.1 0.15 0.1 0.15 l 0.05,0.1 0.05,0.15 v 0.1 l 0.05,0.1 V 26 26.1 l 0.05,0.15 0.05,0.1 v 0.15 0.1 0.15 0.1 L 17.4,27 v 0.1 l 0.05,0.1 v 0.15 0.1 l 0.05,0.15 v 0.1 0.15 0.1 0.15 l 0.05,0.1 v 0.15 0.1 0.15 0.1 0.1 0.15 0.1 l 0.05,0.15 v 0.1 0.15 l 0.05,0.1 v 0.15 0.1 l 0.05,0.15 v 0.1 0.1 l 0.05,0.15 v 0.1 0.15 0.1 l 0.05,0.15 v 0.1 0.15 0.1 0.15 0.1 0.1 0.15 0.05 l 0.25,-0.1 2.3,0.05 Q 19.8,30.35 20,28.85 20.2,26.7 21.85,25 q 0.85,-0.95 2,-1.4 2.4,-0.9 5.8,0.7 l 2.25,1.3 0.85,0.3 q 0.3,0 0.8,-0.4 2.75,-2.1 6.05,-1.95 1.45,0 2.4,0.55 1.65,0.95 2.1,3.25 0.3,1.55 -0.2,3.15 l -1.1,2.1 2.25,-1.05 1.15,-0.8 q 0.3,-0.25 0.6,-0.35 v -0.1 -0.15 l 0.05,-0.1 v -0.1 -0.15 -0.1 -0.15 -0.1 -0.15 l 0.05,-0.1 v -0.15 -0.1 -0.15 -0.1 -0.1 -0.15 l 0.05,-0.1 V 28.2 L 47,28.1 47.05,27.95 v -0.1 L 47.1,27.7 v -0.1 -0.15 l 0.05,-0.1 V 27.2 L 47.2,27.1 V 27 l 0.05,-0.15 V 26.75 26.6 26.5 L 47.2,26.35 V 26.25 26.1 L 47.25,26 v -0.15 l 0.05,-0.1 0.05,-0.1 V 25.5 l 0.1,-0.1 0.1,-0.15 0.05,-0.1 0.1,-0.15 0.1,-0.1 0.05,-0.15 0.15,-0.1 0.1,-0.15 0.15,-0.1 0.2,-0.1 h 0.15 0.3 v -0.05 l 0.4,0.05 0.25,0.15 0.15,0.1 0.1,0.15 0.1,0.1 0.1,0.15 0.05,0.1 0.05,0.15 0.05,0.1 0.05,0.1 0.05,0.15 v 0.1 0.15 0.1 0.15 0.1 0.15 0.1 0.15 0.1 0.1 0.15 L 50.3,27 v 0.15 l 0.05,0.1 v 0.15 l 0.05,0.1 0.05,0.15 v 0.1 l 0.05,0.15 v 0.1 0.1 l 0.05,0.15 v 0.1 0.15 l 0.05,0.1 v 0.15 0.1 L 50.65,29 v 0.1 0.15 0.1 l 0.05,0.15 v 0.1 0.1 0.15 0.1 0.15 0.1 0.15 0.1 0.15 0.1 0.15 0.1 l 0.05,0.1 v 0.15 0.1 0.15 0.1 0.15 l 0.05,0.1 v 0.15 0.1 0.15 0.1 0.1 0.15 0.1 0.15 0.1 l 0.05,0.15 v 0.1 0.15 0.1 0.15 0.1 0.1 l 0.05,0.15 v 0.1 0.15 0.1 0.15 0.1 0.15 0.1 l 0.05,0.15 v 0.1 0.1 0.15 0.1 0.15 0.1 0.15 0.1 0.15 0.1 0.15 0.1 0.1 0.15 0.1 L 51,36.85 v 0.1 0.15 0.1 0.15 0.1 0.15 0.1 0.1 0.15 0.1 0.15 l 0.05,0.1 v 0.15 0.1 0.15 0.1 0.15 0.1 0.1 0.15 0.1 0.15 0.1 0.15 0.1 0.15 l 0.05,0.1 v 0.15 0.1 0.15 0.1 0.1 0.15 0.1 0.15 0.1 0.15 0.1 0.15 0.1 0.15 0.1 l 0.05,0.1 v 0.15 0.1 0.15 0.1 0.15 0.1 0.15 0.1 0.15 0.1 0.1 0.15 0.1 0.15 0.1 0.15 0.1 0.15 0.1 0.15 0.1 0.1 0.15 0.1 0.15 0.1 0.15 0.1 0.15 0.1 0.15 0.1 0.1 0.15 0.1 0.15 0.1 0.15 0.1 0.15 0.1 0.15 0.1 0.1 0.15 0.1 0.15 0.1 0.15 0.1 0.15 0.1 0.15 0.1 0.1 0.15 0.1 0.15 0.1 0.15 0.1 0.15 0.1 0.15 0.1 0.1 0.15 0.1 0.15 0.1 0.15 0.1 0.15 0.1 0.15 0.1 0.1 0.15 0.1 0.15 0.1 0.15 0.1 0.15 0.1 0.15 0.1 0.15 0.1 0.1 0.15 0.1 0.15 0.1 0.15 0.1 0.15 0.1 0.15 0.1 0.1 0.15 0.1 0.15 0.1 0.15 0.1 0.15 0.1 0.15 0.1 0.1 0.15 0.1 0.15 0.1 0.15 0.1 0.15 0.1 L 51.1,57 h -2.4 v -0.1 -0.15 -0.1 -0.1 -0.15 -0.1 -0.15 -0.1 -0.15 -0.1 -0.15 -0.1 -0.15 -0.1 -0.1 -0.15 -0.1 -0.15 -0.1 -0.15 -0.1 -0.15 -0.1 -0.15 -0.1 -0.1 V 53.7 53.6 53.45 53.35 53.2 53.1 52.95 52.85 52.7 52.6 52.5 52.35 52.25 52.1 52 51.85 51.75 L 48.65,51.6 V 51.5 51.35 51.25 51.1 51 50.9 50.75 50.65 50.5 50.4 L 48.6,50.25 V 50.15 50 49.9 49.75 49.65 49.55 49.4 49.3 49.15 49.05 48.9 l -0.05,-0.1 v -0.15 -0.1 L 48.5,48.4 v -0.1 -0.1 -0.15 l -0.05,-0.1 V 47.8 47.7 47.55 L 48.4,47.45 V 47.3 47.2 l -0.05,-0.15 -0.05,-0.1 -0.05,-0.1 V 46.7 46.6 46.45 46.35 46.2 46.1 45.95 45.85 45.7 45.6 L 48.2,45.5 v -0.15 -0.1 L 48.15,45.1 V 45 44.85 L 48.1,44.75 V 44.6 L 48.05,44.5 V 44.35 L 48,44.25 V 44.15 44 43.9 43.75 43.65 43.5 43.4 L 47.95,43.25 V 43.15 43 42.9 L 47.9,42.8 v -0.15 -0.1 -0.15 -0.1 -0.15 -0.1 L 47.85,41.9 v -0.1 -0.05 -0.1 -0.25 -0.1 -0.1 -0.15 -0.1 -0.15 -0.1 -0.15 l -0.05,-0.1 v -0.15 -0.1 -0.05 -0.1 -0.1 -0.15 -0.1 -0.4 -0.1 -0.1 -0.15 -0.1 -0.15 l -0.05,-0.1 v -0.1 l -0.05,-0.15 -0.05,-0.1 -0.1,-0.15 v -0.05 l -0.1,-0.1 -0.1,-0.15 v -0.1 l -0.2,-0.1 -0.25,-0.1 v 0.05 l -0.3,0.05 -0.15,0.1 -0.1,0.1 -0.1,0.15 -0.05,0.1 v 0.15 l -0.1,0.1 v 0.15 l -0.05,0.1 v 0.15 0.1 L 46,38.95 v 0.1 0.1 0.15 0.1 0.15 l -0.05,0.1 v 0.15 0.1 0.15 0.1 0.15 0.1 0.15 0.1 0.1 0.15 0.1 0.15 0.1 L 45.9,41.4 v 0.1 0.15 0.1 0.15 0.1 0.1 0.15 0.1 0.15 0.1 0.15 0.1 0.15 0.1 l -0.05,0.15 v 0.1 0.1 0.15 0.1 0.15 0.1 0.15 0.1 0.15 0.1 L 45.8,44.6 v 0.1 0.1 0.15 0.1 0.15 0.1 0.15 l -0.05,0.1 v 0.15 0.1 0.15 0.1 0.1 0.15 0.1 0.15 l -0.05,0.1 v 0.15 0.1 0.15 0.1 0.15 0.1 0.1 0.1 0.05 0.1 0.1 l -0.05,0.1 v 0.15 0.1 0.15 l -0.05,0.1 v 0.15 0.1 l -0.05,0.15 v 0.1 0.15 0.1 0.1 0.15 0.1 0.15 0.1 0.15 0.1 0.15 l -0.05,0.1 v 0.15 0.1 0.1 0.15 0.1 0.15 0.1 0.15 0.1 0.05 0.1 0.1 0.05 0.1 0.15 0.1 0.1 0.15 0.1 0.15 0.1 l -0.05,0.1 v 0.15 0.1 0.15 0.1 0.15 0.1 0.1 0.05 0.1 0.05 l -0.05,0.1 v 0.15 0.1 l -0.05,0.15 v 0.1 0.1 0.15 l -0.05,0.1 v 0.15 0.1 0.15 0.1 0.15 0.1 l -0.05,0.15 v 0.1 0.1 L 45.2,56 v 0.1 0.15 l -0.05,0.1 v 0.15 0.1 0.15 0.1 V 57 H 43.2 V 56.95 56.8 56.7 56.55 l 0.05,-0.1 V 56.3 56.2 56.1 L 43.2,55.95 v -0.1 -0.15 -0.1 -0.15 -0.1 -0.15 -0.1 l -0.05,-0.15 v -0.1 -0.1 -0.15 -0.1 -0.15 -0.1 -0.15 L 43.1,54 v -0.15 -0.1 L 43.05,53.6 v -0.1 -0.1 -0.15 -0.1 L 43,53 V 52.9 L 42.95,52.75 V 52.65 52.5 L 42.9,52.4 42.85,52.25 v -0.1 -0.1 -0.15 -0.1 -0.15 -0.1 L 42.8,51.4 v -0.1 -0.15 -0.1 -0.15 -0.1 -0.15 l -0.05,-0.1 V 50.45 50.3 50.2 L 42.7,50.05 v -0.1 L 42.65,49.8 V 49.7 L 42.6,49.55 v -0.1 -0.15 -0.1 l -0.05,-0.1 v -0.15 -0.1 L 42.5,48.7 v -0.1 l -0.05,-0.15 v -0.1 -0.15 -0.1 -0.15 -0.1 L 42.4,47.75 V 47.6 47.5 47.35 47.25 47.1 47 46.85 l -0.05,-0.1 V 46.6 46.5 46.4 46.25 46.15 46 45.9 45.75 45.65 45.5 45.4 45.25 45.15 45.05 44.9 44.8 44.65 44.55 44.4 44.3 L 42.3,44.15 v -0.1 -0.15 -0.1 -0.1 -0.15 -0.1 -0.15 -0.1 -0.15 -0.1 -0.15 l -0.05,-0.1 v -0.15 -0.1 -0.1 -0.15 -0.1 -0.15 -0.1 -0.15 -0.1 L 42.2,41.45 V 41.35 41.2 41.1 41 40.85 40.75 L 42.15,40.6 V 40.5 40.35 40.25 40.1 40 L 42.1,39.85 v -0.1 L 42.05,39.6 42,39.5 41.95,39.4 41.9,39.25 l -0.2,-0.1 -0.25,-0.1 v 0.05 h -0.2 l -0.05,0.05 -0.1,0.05 -0.1,0.15 -0.05,0.1 -0.05,0.15 -0.05,0.1 v 0.15 l -0.05,0.1 v 0.1 0.15 0.1 0.15 0.1 l -0.05,0.15 v 0.1 0.15 0.1 0.15 0.1 0.15 l -0.05,0.1 v 0.1 0.15 0.1 0.15 0.1 0.15 0.1 0.15 0.1 l -0.05,0.15 v 0.1 0.1 0.15 0.1 0.15 0.1 0.15 0.1 0.15 0.1 0.15 l -0.05,0.1 v 0.1 0.15 0.1 0.15 0.1 0.15 l -0.05,0.1 v 0.15 0.1 0.15 0.1 0.1 0.15 0.1 0.15 0.1 0.15 0.1 0.15 0.1 0.15 0.1 0.1 0.15 0.1 0.15 0.1 0.15 l -0.05,0.1 v 0.15 0.1 0.15 0.1 l -0.05,0.1 v 0.15 0.1 L 40.4,48.8 v 0.1 0.15 l -0.05,0.1 v 0.15 0.1 0.15 l -0.05,0.1 -0.05,0.1 V 49.9 50 l -0.05,0.15 v 0.1 0.15 0.1 l -0.05,0.15 v 0.1 L 40.1,50.9 v 0.1 0.1 0.15 0.1 0.15 0.1 0.15 0.1 0.15 0.1 l -0.05,0.15 v 0.1 L 40,52.5 v 0.1 l -0.05,0.1 v 0.15 0.1 L 39.9,53.1 v 0.1 0.15 0.1 0.15 l -0.05,0.1 v 0.15 0.1 l -0.05,0.1 v 0.15 0.1 0.15 0.1 0.15 0.1 0.15 l -0.05,0.1 v 0.15 0.1 0.1 0.15 0.1 0.15 l -0.05,0.1 v 0.15 0.1 0.15 0.1 0.15 l 0.05,0.1 v 0.1 0.15 0.1 H 35.1 l 0.05,-0.1 0.05,-0.15 0.05,-0.1 0.05,-0.1 V 56.4 l 0.05,-0.1 v -0.15 -0.1 L 35.4,55.9 V 55.8 55.65 55.55 55.4 55.3 55.2 55.05 54.95 54.8 54.7 54.55 54.45 54.3 54.2 54.05 53.95 53.85 53.7 53.6 53.45 53.35 53.2 53.1 52.95 52.85 52.7 52.6 52.5 52.35 52.25 52.1 52 51.85 51.75 51.6 51.5 51.35 51.25 51.1 51 50.9 50.75 50.65 50.5 50.4 50.25 l -0.05,-0.1 V 50 49.9 49.75 49.65 L 35.3,49.55 V 49.4 49.3 49.15 l -0.05,-0.1 V 48.9 48.8 48.65 L 35.2,48.55 V 48.4 48.3 l -0.05,-0.1 v -0.15 -0.1 -0.15 -0.1 -0.15 -0.1 L 35.1,47.3 v -0.1 -0.15 -0.1 l -0.05,-0.1 V 46.7 46.6 46.45 46.35 46.2 46.1 L 35,45.95 V 45.85 45.7 45.6 L 34.95,45.5 V 45.35 45.25 45.1 45 44.85 44.75 L 34.9,44.6 v -0.1 l -0.05,-0.15 v -0.1 L 34.8,44.15 V 44 43.9 L 34.75,43.75 V 43.65 43.5 L 34.7,43.4 V 43.25 43.15 43 42.9 42.8 L 34.65,42.65 34.6,42.55 34.55,42.4 V 42.3 L 34.5,42.15 v -0.1 -0.15 -0.1 -0.15 l -0.05,-0.1 V 41.45 41.3 L 34.4,41.2 34.35,41.05 v -0.1 L 34.3,40.8 v -0.1 l -0.05,-0.15 v -0.1 L 34.2,40.3 34.1,40.2 34.05,40.05 33.95,39.95 33.8,39.85 33.6,39.7 33.35,39.6 32.9,39.5 v 0.05 l -0.45,0.05 -0.3,0.1 -0.2,0.15 -0.15,0.1 -0.1,0.1 -0.15,0.15 -0.05,0.1 -0.05,0.15 -0.1,0.1 -0.05,0.15 v 0.1 l -0.05,0.15 -0.05,0.1 -0.05,0.15 v 0.1 0.15 l -0.05,0.1 v 0.1 0.15 0.1 0.15 l -0.05,0.1 V 42.3 L 31,42.4 30.95,42.55 v 0.1 L 30.9,42.8 v 0.1 L 30.85,43 v 0.15 0.1 0.15 0.1 0.15 l -0.05,0.1 V 43.9 44 l -0.05,0.15 v 0.1 l -0.05,0.1 v 0.15 l -0.05,0.1 v 0.15 0.1 0.15 0.1 0.15 0.1 L 30.6,45.5 v 0.1 0.1 0.15 0.1 l -0.05,0.15 v 0.1 0.15 0.1 0.15 0.1 l -0.05,0.15 v 0.1 0.1 0.15 0.1 l -0.05,0.15 v 0.1 0.15 0.1 0.15 l -0.05,0.1 v 0.15 0.1 0.1 l -0.05,0.15 v 0.1 0.15 0.1 l -0.05,0.15 v 0.1 0.15 0.1 l -0.05,0.15 v 0.1 0.1 0.15 0.1 0.15 l -0.05,0.1 v 0.15 0.1 0.15 0.1 0.15 0.1 0.1 0.15 0.1 0.15 0.1 0.15 0.1 0.15 0.1 0.15 0.1 0.15 0.1 0.1 0.15 0.1 0.15 0.1 0.15 0.1 0.15 0.1 0.15 0.1 0.1 0.15 0.1 0.15 0.1 0.15 0.1 0.15 0.1 0.15 0.1 0.1 0.15 0.1 0.15 0.1 l 0.05,0.15 v 0.1 0.15 0.1 l 0.05,0.15 0.05,0.1 v 0.1 l 0.05,0.15 0.05,0.1 h -3.8 V 56.95 L 26.7,56.8 v -0.1 l 0.05,-0.15 v -0.1 -0.15 l 0.05,-0.1 v -0.1 -0.15 l -0.05,-0.1 V 55.7 55.6 55.45 55.35 55.2 55.1 L 26.7,54.95 v -0.1 -0.1 -0.15 -0.1 L 26.65,54.35 V 54.25 54.1 54 53.85 53.75 L 26.6,53.6 v -0.1 -0.1 -0.15 -0.1 L 26.55,53 26.5,52.9 v -0.15 -0.1 -0.15 -0.1 -0.15 -0.1 l -0.05,-0.1 V 51.9 51.8 51.65 51.55 L 26.4,51.4 v -0.1 -0.15 -0.1 -0.15 l -0.05,-0.1 v -0.15 -0.1 -0.1 -0.15 -0.1 L 26.3,50.05 26.25,49.95 26.2,49.8 26.15,49.7 V 49.55 49.45 49.3 49.2 49.1 48.95 48.85 48.7 48.6 48.45 48.35 48.2 48.1 L 26.1,47.95 v -0.1 -0.1 -0.15 -0.1 -0.15 l -0.05,-0.1 V 47.1 47 L 26,46.85 V 46.75 46.6 L 25.95,46.5 V 46.4 46.25 46.15 46 45.9 45.75 45.65 L 25.9,45.5 v -0.1 -0.15 -0.1 -0.1 -0.15 -0.1 -0.15 -0.1 -0.15 -0.1 -0.15 -0.1 -0.15 -0.1 -0.1 -0.15 -0.1 -0.15 -0.1 l -0.05,-0.15 v -0.1 -0.15 -0.1 -0.15 -0.1 L 25.8,42.35 V 42.2 42.1 l -0.05,-0.15 v -0.1 L 25.7,41.7 v -0.1 -0.15 -0.1 L 25.65,41.2 V 41.1 L 25.6,41 v -0.15 -0.1 L 25.55,40.6 V 40.5 L 25.5,40.35 25.45,40.25 25.4,40.1 25.3,40 25.1,39.85 24.8,39.8 v 0.05 h -0.25 l -0.2,0.05 -0.15,0.15 -0.1,0.1 -0.05,0.15 -0.05,0.1 v 0.15 l -0.05,0.1 v 0.1 0.15 L 23.9,41 v 0.15 0.1 0.15 l -0.05,0.1 v 0.15 l -0.05,0.1 V 41.9 L 23.75,42 v 0.1 0.15 l -0.05,0.1 v 0.15 0.1 0.15 0.1 0.15 l -0.05,0.1 v 0.15 0.1 0.1 0.15 0.1 0.15 0.1 0.15 0.1 0.15 0.1 0.15 0.1 0.1 0.15 0.1 0.15 0.1 0.15 l -0.05,0.1 v 0.15 0.1 0.15 0.1 0.1 0.15 0.1 l -0.05,0.15 v 0.1 0.15 l -0.05,0.1 v 0.15 0.1 l -0.05,0.15 v 0.1 0.1 0.15 0.1 0.15 0.1 0.15 0.1 0.15 0.1 0.15 0.1 0.1 0.15 0.1 l -0.05,0.15 v 0.1 0.15 0.1 l -0.05,0.15 -0.05,0.1 -0.05,0.15 -0.05,0.1 v 0.1 0.15 0.1 0.15 0.1 l -0.05,0.15 v 0.1 0.15 0.1 0.15 l -0.05,0.1 v 0.1 0.15 0.1 0.15 l -0.05,0.1 v 0.15 0.1 0.15 0.1 0.15 0.1 L 23,52.95 v 0.1 0.1 l -0.05,0.15 v 0.1 0.15 l -0.05,0.1 v 0.15 0.1 0.15 0.1 0.15 l -0.05,0.1 v 0.1 0.15 0.1 0.15 L 22.8,55 v 0.15 0.1 0.15 0.1 0.15 0.1 l -0.05,0.1 v 0.15 0.1 0.15 0.1 l 0.05,0.15 v 0.1 0.15 l 0.05,0.1 0.05,0.15 h -2 V 56.85 56.75 56.6 56.5 56.35 56.25 56.1 56 55.85 55.75 55.65 55.5 55.4 55.25 55.15 55 54.9 54.75 54.65 54.5 54.4 54.3 54.15 54.05 53.9 53.8 53.65 53.55 53.4 53.3 53.15 53.05 52.95 52.8 52.7 52.55 52.45 52.3 52.2 52.05 51.95 L 20.85,51.8 v -0.1 -0.15 -0.1 -0.1 -0.15 -0.1 -0.15 -0.1 -0.15 L 20.8,50.6 V 50.45 50.35 50.2 50.1 50 49.85 49.75 49.6 49.5 49.35 49.25 49.1 L 20.75,49 V 48.85 48.75 48.65 48.5 48.4 48.25 48.15 48 L 20.7,47.9 v -0.15 -0.1 -0.15 -0.1 -0.1 -0.15 -0.1 L 20.65,46.9 v -0.1 -0.15 -0.1 L 20.6,46.4 v -0.1 -0.15 -0.1 l -0.05,-0.1 V 45.8 45.7 45.55 45.45 L 20.5,45.3 V 45.2 45.05 44.95 44.8 L 20.45,44.7 V 44.6 L 20.4,44.45 20.35,44.35 V 44.2 L 20.3,44.1 v -0.15 l -0.05,-0.1 V 43.7 43.6 L 20.2,43.45 v -0.1 -0.1 L 20.15,43.1 20.1,43 20.05,42.85 V 42.75 42.6 42.5 42.35 L 20,42.25 V 42.1 L 19.95,42 19.9,41.9 v -0.15 -0.1 L 19.85,41.5 V 41.4 L 19.8,41.25 V 41.15 41 L 19.75,40.9 19.7,40.75 v -0.1 l -0.05,-0.1 V 40.4 L 19.6,40.3 v -0.15 -0.1 L 19.55,39.9 V 39.8 39.65 L 19.5,39.55 V 39.4 39.3 l -0.05,-0.15 v -0.1 -0.1 -0.15 -0.1 L 19.4,38.55 V 38.45 38.3 L 19.35,38.2 V 38.05 37.95 37.8 37.7 L 19.3,37.6 v -0.15 l -0.05,-0.1 -0.05,-0.15 -0.05,-0.1 -0.2,-0.15 -0.2,-0.05 -0.2,-0.05 v 0.05 h -0.2 l -0.1,0.05 -0.15,0.15 -0.1,0.1 v 0.15 0.1 0.15 0.1 0.1 l 0.05,0.15 v 0.1 0.15 L 18,38.3 v 0.15 0.1 0.15 0.1 0.15 0.1 0.1 l -0.05,0.15 v 0.1 0.15 l -0.05,0.1 v 0.15 l -0.05,0.1 v 0.15 0.1 L 17.8,40.3 v 0.1 l -0.05,0.15 v 0.1 l -0.05,0.1 V 40.9 L 17.65,41 v 0.15 l -0.05,0.1 -0.05,0.15 v 0.1 0.15 0.1 L 17.5,41.9 17.45,42 v 0.1 l -0.05,0.15 v 0.1 0.15 l -0.05,0.1 v 0.15 0.1 L 17.3,43 v 0.1 l -0.05,0.15 v 0.1 l -0.05,0.1 v 0.15 l -0.05,0.1 v 0.15 l -0.05,0.1 v 0.15 0.1 0.15 l -0.05,0.1 -0.05,0.15 -0.05,0.1 v 0.1 l -0.05,0.15 v 0.1 0.15 0.1 0.15 0.1 0.15 0.1 l -0.05,0.15 v 0.1 0.1 0.15 l -0.05,0.1 v 0.15 0.1 0.15 l -0.05,0.1 v 0.15 0.1 L 16.7,47.3 v 0.1 0.1 0.15 0.1 0.15 L 16.65,48 v 0.15 0.1 0.15 0.1 0.15 0.1 0.1 0.15 0.1 0.15 0.1 0.15 0.1 0.15 0.1 0.15 0.1 0.1 0.15 0.1 L 16.6,50.6 v 0.1 0.15 0.1 0.15 0.1 0.15 0.1 0.1 0.15 0.1 l -0.05,0.15 v 0.1 0.15 0.1 0.15 0.1 0.15 0.1 0.15 0.1 0.1 0.15 0.1 0.15 0.1 0.15 0.1 0.15 0.1 0.15 0.1 0.1 0.15 0.1 0.15 0.1 0.15 0.1 0.15 0.1 0.15 0.1 0.1 0.15 0.1 0.15 0.1 0.15 0.1 0.15 0.1 0.15"
         fill="#999999"
         fill-rule="evenodd"
         stroke="none"
         id="path4" />
      <path
         d="m 48.7,57 h -3.55 v -0.15 -0.1 -0.15 -0.1 -0.15 l 0.05,-0.1 V 56.1 56 l 0.05,-0.15 v -0.1 -0.1 L 45.3,55.5 V 55.4 55.25 55.15 55 54.9 54.75 l 0.05,-0.1 V 54.5 54.4 54.3 l 0.05,-0.15 v -0.1 -0.15 l 0.05,-0.1 V 53.75 53.65 53.6 53.5 53.4 53.25 53.15 53 52.9 52.75 l 0.05,-0.1 v -0.1 -0.15 -0.1 -0.15 -0.1 -0.1 -0.15 -0.1 -0.05 -0.1 -0.1 -0.05 -0.1 -0.15 -0.1 -0.15 -0.1 -0.15 -0.1 -0.1 -0.15 l 0.05,-0.1 v -0.15 -0.1 -0.15 -0.1 -0.15 -0.1 -0.15 -0.1 -0.1 -0.15 -0.1 L 45.6,48.7 v -0.1 -0.15 l 0.05,-0.1 V 48.2 48.1 47.95 l 0.05,-0.1 v -0.1 -0.1 -0.05 -0.1 -0.1 -0.1 -0.15 -0.1 -0.15 -0.1 -0.15 l 0.05,-0.1 v -0.15 -0.1 -0.15 -0.1 -0.1 -0.15 -0.1 -0.15 l 0.05,-0.1 V 45.3 45.2 45.05 44.95 44.8 44.7 44.6 l 0.05,-0.15 v -0.1 -0.15 -0.1 -0.15 -0.1 -0.15 -0.1 -0.15 -0.1 -0.1 L 45.9,43.1 V 43 42.85 42.75 42.6 42.5 42.35 42.25 42.1 42 41.9 41.75 41.65 41.5 41.4 l 0.05,-0.15 V 41.15 41 40.9 40.75 40.65 40.55 40.4 40.3 40.15 40.05 39.9 39.8 39.65 L 46,39.55 v -0.15 -0.1 -0.15 -0.1 -0.1 l 0.05,-0.15 v -0.1 -0.15 l 0.05,-0.1 V 38.3 l 0.1,-0.1 v -0.15 l 0.05,-0.1 0.1,-0.15 0.1,-0.1 0.15,-0.1 0.3,-0.05 V 37.5 l 0.25,0.1 0.2,0.1 v 0.1 l 0.1,0.15 0.1,0.1 v 0.05 l 0.1,0.15 0.05,0.1 0.05,0.15 v 0.1 l 0.05,0.1 v 0.15 0.1 0.15 0.1 0.1 0.4 0.1 0.15 0.1 0.1 0.05 0.1 0.15 l 0.05,0.1 v 0.15 0.1 0.15 0.1 0.15 0.1 0.1 0.25 0.1 0.05 0.1 l 0.05,0.15 v 0.1 0.15 0.1 0.15 0.1 0.15 l 0.05,0.1 v 0.1 0.15 0.1 L 48,43.4 v 0.1 0.15 0.1 0.15 0.1 0.15 0.1 l 0.05,0.1 v 0.15 l 0.05,0.1 v 0.15 l 0.05,0.1 V 45 45.1 l 0.05,0.15 v 0.1 0.15 l 0.05,0.1 v 0.1 0.15 0.1 0.15 0.1 0.15 0.1 0.15 0.1 0.15 l 0.05,0.1 0.05,0.1 0.05,0.15 v 0.1 0.15 l 0.05,0.1 v 0.15 0.1 0.15 l 0.05,0.1 v 0.15 0.1 0.1 l 0.05,0.15 v 0.1 0.15 l 0.05,0.1 v 0.15 0.1 0.15 0.1 0.15 0.1 0.1 0.15 0.1 0.15 0.1 l 0.05,0.15 v 0.1 0.15 0.1 0.15 0.1 0.1 0.15 0.1 0.15 0.1 l 0.05,0.15 v 0.1 0.15 0.1 0.15 0.1 0.15 0.1 0.1 0.15 0.1 0.15 0.1 0.15 0.1 0.15 0.1 0.15 0.1 0.1 0.15 0.1 0.15 0.1 0.15 0.1 0.15 0.1 0.15 0.1 0.1 0.15 0.1 0.15 0.1 0.15 0.1 0.15 0.1 0.15 0.1 0.1 0.15 0.1 m -5.5,0 h -3.45 v -0.1 -0.15 -0.1 L 39.7,56.55 V 56.4 56.3 56.15 56.05 55.9 l 0.05,-0.1 v -0.15 -0.1 -0.15 -0.1 -0.1 -0.15 l 0.05,-0.1 V 54.8 54.7 54.55 54.45 54.3 54.2 54.05 l 0.05,-0.1 v -0.1 -0.15 l 0.05,-0.1 v -0.15 -0.1 -0.15 -0.1 l 0.05,-0.15 V 52.85 52.7 L 40,52.6 v -0.1 l 0.05,-0.15 v -0.1 L 40.1,52.1 V 52 51.85 51.75 51.6 51.5 51.35 51.25 51.1 51 50.9 l 0.05,-0.15 v -0.1 L 40.2,50.5 v -0.1 -0.15 -0.1 L 40.25,50 v -0.1 -0.15 l 0.05,-0.1 0.05,-0.1 V 49.4 49.3 49.15 l 0.05,-0.1 V 48.9 48.8 l 0.05,-0.15 v -0.1 -0.15 l 0.05,-0.1 v -0.1 -0.15 -0.1 -0.15 l 0.05,-0.1 v -0.15 -0.1 -0.15 -0.1 -0.15 -0.1 -0.1 -0.15 -0.1 -0.15 -0.1 -0.15 -0.1 -0.15 -0.1 -0.15 -0.1 -0.1 -0.15 -0.1 -0.15 L 40.6,45 v -0.15 -0.1 -0.15 -0.1 -0.15 -0.1 l 0.05,-0.1 V 44 43.9 43.75 43.65 43.5 43.4 43.25 43.15 43 42.9 42.8 l 0.05,-0.15 v -0.1 -0.15 -0.1 -0.15 -0.1 -0.15 -0.1 -0.15 -0.1 l 0.05,-0.1 V 41.3 41.2 41.05 40.95 40.8 40.7 l 0.05,-0.15 v -0.1 -0.15 -0.1 -0.15 -0.1 l 0.05,-0.1 V 39.7 l 0.05,-0.1 0.05,-0.15 0.05,-0.1 0.1,-0.15 0.1,-0.05 0.05,-0.05 h 0.2 v -0.05 l 0.25,0.1 0.2,0.1 0.05,0.15 0.05,0.1 0.05,0.1 0.05,0.15 v 0.1 L 42.15,40 v 0.1 0.15 0.1 0.15 0.1 l 0.05,0.15 v 0.1 0.15 0.1 0.1 0.15 0.1 l 0.05,0.15 v 0.1 0.15 0.1 0.15 0.1 0.15 0.1 0.1 0.15 l 0.05,0.1 v 0.15 0.1 0.15 0.1 0.15 0.1 0.15 0.1 0.1 0.15 0.1 l 0.05,0.15 v 0.1 0.15 0.1 0.15 0.1 0.15 0.1 0.1 0.15 0.1 0.15 0.1 0.15 0.1 0.15 0.1 0.15 0.1 0.1 0.15 l 0.05,0.1 v 0.15 0.1 0.15 0.1 0.15 0.1 0.15 l 0.05,0.1 v 0.1 0.15 0.1 0.15 0.1 l 0.05,0.15 v 0.1 l 0.05,0.15 v 0.1 0.15 l 0.05,0.1 v 0.1 0.15 0.1 l 0.05,0.15 v 0.1 l 0.05,0.15 v 0.1 l 0.05,0.15 v 0.1 0.15 0.1 l 0.05,0.1 v 0.15 0.1 0.15 0.1 0.15 0.1 l 0.05,0.15 v 0.1 0.15 0.1 0.15 0.1 0.1 l 0.05,0.15 0.05,0.1 v 0.15 0.1 L 43,52.9 V 53 l 0.05,0.15 v 0.1 0.15 0.1 0.1 l 0.05,0.15 v 0.1 0.15 l 0.05,0.1 v 0.15 0.1 0.15 0.1 0.15 0.1 0.1 l 0.05,0.15 v 0.1 0.15 0.1 0.15 0.1 0.15 0.1 l 0.05,0.15 v 0.1 0.1 0.15 l -0.05,0.1 v 0.15 0.1 0.15 0.05 m -8.1,0 H 30.45 L 30.4,56.9 30.35,56.75 v -0.1 L 30.3,56.55 30.25,56.4 v -0.1 -0.15 -0.1 L 30.2,55.9 V 55.8 55.65 55.55 55.4 55.3 55.2 55.05 54.95 54.8 54.7 54.55 54.45 54.3 54.2 54.05 53.95 53.85 53.7 53.6 53.45 53.35 53.2 53.1 52.95 52.85 52.7 52.6 52.5 52.35 52.25 52.1 52 51.85 51.75 51.6 51.5 51.35 51.25 51.1 51 50.9 50.75 50.65 50.5 50.4 50.25 l 0.05,-0.1 V 50 49.9 49.75 49.65 49.55 L 30.3,49.4 v -0.1 -0.15 -0.1 l 0.05,-0.15 v -0.1 -0.15 -0.1 L 30.4,48.4 v -0.1 -0.1 -0.15 l 0.05,-0.1 V 47.8 47.7 47.55 47.45 L 30.5,47.3 v -0.1 -0.15 -0.1 -0.1 l 0.05,-0.15 v -0.1 -0.15 -0.1 -0.15 -0.1 l 0.05,-0.15 v -0.1 -0.15 -0.1 -0.1 l 0.05,-0.15 V 45.25 45.1 45 44.85 44.75 44.6 l 0.05,-0.1 v -0.15 l 0.05,-0.1 v -0.1 L 30.8,44 v -0.1 -0.15 l 0.05,-0.1 V 43.5 43.4 43.25 43.15 43 l 0.05,-0.1 v -0.1 l 0.05,-0.15 v -0.1 L 31,42.4 31.05,42.3 v -0.15 l 0.05,-0.1 v -0.15 -0.1 -0.15 -0.1 l 0.05,-0.1 V 41.3 41.2 l 0.05,-0.15 0.05,-0.1 0.05,-0.15 v -0.1 l 0.05,-0.15 0.1,-0.1 0.05,-0.15 0.05,-0.1 0.15,-0.15 0.1,-0.1 0.15,-0.1 0.2,-0.15 0.3,-0.1 0.45,-0.05 V 39.5 l 0.45,0.1 0.25,0.1 0.2,0.15 0.15,0.1 0.1,0.1 0.05,0.15 0.1,0.1 0.05,0.15 v 0.1 l 0.05,0.15 v 0.1 l 0.05,0.15 v 0.1 l 0.05,0.15 0.05,0.1 v 0.15 0.1 l 0.05,0.1 v 0.15 0.1 0.15 0.1 l 0.05,0.15 v 0.1 l 0.05,0.15 0.05,0.1 0.05,0.15 v 0.1 0.1 0.15 0.1 0.15 l 0.05,0.1 v 0.15 0.1 l 0.05,0.15 v 0.1 0.15 l 0.05,0.1 v 0.1 l 0.05,0.15 v 0.1 l 0.05,0.15 v 0.1 0.15 0.1 0.15 0.1 0.15 L 35,45.6 v 0.1 0.15 0.1 l 0.05,0.15 v 0.1 0.15 0.1 0.15 0.1 0.15 l 0.05,0.1 v 0.1 0.15 0.1 l 0.05,0.15 v 0.1 0.15 0.1 0.15 0.1 0.15 l 0.05,0.1 v 0.1 0.15 l 0.05,0.1 v 0.15 0.1 0.15 l 0.05,0.1 v 0.15 0.1 0.15 l 0.05,0.1 v 0.1 0.15 0.1 0.15 l 0.05,0.1 v 0.15 0.1 0.15 0.1 0.15 0.1 0.1 0.15 0.1 0.15 0.1 0.15 0.1 0.15 0.1 0.15 0.1 0.15 0.1 0.1 0.15 0.1 0.15 0.1 0.15 0.1 0.15 0.1 0.15 0.1 0.1 0.15 0.1 0.15 0.1 0.15 0.1 0.15 0.1 0.15 0.1 0.1 0.15 0.1 0.15 0.1 l -0.05,0.15 v 0.1 0.15 l -0.05,0.1 v 0.15 l -0.05,0.1 -0.05,0.1 -0.05,0.15 -0.05,0.1 m -8.45,0 H 22.9 L 22.85,56.85 22.8,56.75 V 56.6 56.5 L 22.75,56.35 V 56.25 56.1 56 55.85 l 0.05,-0.1 V 55.65 55.5 55.4 55.25 55.15 55 l 0.05,-0.1 v -0.15 -0.1 -0.15 -0.1 l 0.05,-0.1 v -0.15 -0.1 -0.15 -0.1 -0.15 l 0.05,-0.1 V 53.4 53.3 L 23,53.15 v -0.1 -0.1 l 0.05,-0.15 v -0.1 -0.15 -0.1 -0.15 -0.1 -0.15 l 0.05,-0.1 v -0.15 -0.1 -0.15 -0.1 l 0.05,-0.1 V 51.2 51.1 50.95 50.85 L 23.2,50.7 v -0.1 -0.15 -0.1 -0.15 -0.1 l 0.05,-0.1 0.05,-0.15 0.05,-0.1 0.05,-0.15 v -0.1 -0.15 -0.1 L 23.45,49.1 V 49 48.85 48.75 48.65 48.5 48.4 48.25 48.15 48 47.9 47.75 47.65 47.5 47.4 47.3 l 0.05,-0.15 v -0.1 -0.15 l 0.05,-0.1 v -0.15 -0.1 L 23.6,46.4 v -0.1 -0.15 -0.1 -0.1 -0.15 -0.1 -0.15 l 0.05,-0.1 V 45.3 45.2 45.05 44.95 44.8 44.7 44.6 44.45 44.35 44.2 44.1 43.95 43.85 43.7 43.6 43.45 43.35 43.25 43.1 L 23.7,43 v -0.15 -0.1 -0.15 -0.1 -0.15 l 0.05,-0.1 V 42.1 42 l 0.05,-0.1 v -0.15 l 0.05,-0.1 V 41.5 L 23.9,41.4 V 41.25 41.15 41 l 0.05,-0.1 v -0.15 -0.1 L 24,40.55 V 40.4 l 0.05,-0.1 0.05,-0.15 0.1,-0.1 0.15,-0.15 0.2,-0.05 H 24.8 V 39.8 l 0.3,0.05 0.2,0.15 0.1,0.1 0.05,0.15 0.05,0.1 0.05,0.15 v 0.1 l 0.05,0.15 v 0.1 0.15 l 0.05,0.1 v 0.1 l 0.05,0.15 v 0.1 0.15 0.1 l 0.05,0.15 v 0.1 l 0.05,0.15 v 0.1 0.15 l 0.05,0.1 v 0.1 0.15 0.1 0.15 0.1 l 0.05,0.15 v 0.1 0.15 0.1 0.15 0.1 0.1 0.15 0.1 0.15 0.1 0.15 0.1 0.15 0.1 0.15 0.1 0.1 0.15 0.1 l 0.05,0.15 v 0.1 0.15 0.1 0.15 0.1 0.15 0.1 L 26,46.6 v 0.15 0.1 L 26.05,47 v 0.1 0.15 l 0.05,0.1 v 0.15 0.1 0.15 0.1 0.1 l 0.05,0.15 v 0.1 0.15 0.1 0.15 0.1 0.15 0.1 0.15 0.1 0.1 0.15 0.1 0.15 l 0.05,0.1 0.05,0.15 0.05,0.1 0.05,0.15 v 0.1 0.15 0.1 0.1 0.15 l 0.05,0.1 v 0.15 0.1 0.15 0.1 l 0.05,0.15 v 0.1 0.15 0.1 0.15 l 0.05,0.1 v 0.1 0.15 0.1 0.15 0.1 0.15 l 0.05,0.1 0.05,0.15 v 0.1 0.15 0.1 0.1 l 0.05,0.15 v 0.1 0.15 0.1 0.15 0.1 l 0.05,0.15 v 0.1 0.15 0.1 0.1 l 0.05,0.15 v 0.1 0.15 0.1 0.15 0.1 0.15 l 0.05,0.1 v 0.15 0.1 l -0.05,0.1 v 0.15 0.1 L 26.7,56.7 v 0.1 l -0.05,0.15 V 57 M 20.9,57 H 16.55 V 56.85 56.75 56.6 56.5 56.35 56.25 56.1 56 55.85 55.75 55.65 55.5 55.4 55.25 55.15 55 54.9 54.75 54.65 54.5 54.4 54.3 54.15 54.05 53.9 53.8 53.65 53.55 53.4 53.3 53.15 53.05 52.95 52.8 52.7 52.55 52.45 52.3 52.2 52.05 51.95 L 16.6,51.8 v -0.1 -0.15 -0.1 -0.1 -0.15 -0.1 -0.15 -0.1 -0.15 -0.1 l 0.05,-0.15 V 50.35 50.2 50.1 50 49.85 49.75 49.6 49.5 49.35 49.25 49.1 49 48.85 48.75 48.65 48.5 48.4 48.25 48.15 48 l 0.05,-0.1 v -0.15 -0.1 -0.15 -0.1 -0.1 l 0.05,-0.15 v -0.1 -0.15 l 0.05,-0.1 v -0.15 -0.1 -0.15 l 0.05,-0.1 v -0.15 -0.1 -0.1 L 16.9,45.8 v -0.1 -0.15 -0.1 -0.15 -0.1 -0.15 -0.1 L 16.95,44.8 V 44.7 L 17,44.6 17.05,44.45 17.1,44.35 V 44.2 44.1 43.95 l 0.05,-0.1 V 43.7 l 0.05,-0.1 v -0.15 l 0.05,-0.1 v -0.1 L 17.3,43.1 V 43 l 0.05,-0.15 v -0.1 -0.15 l 0.05,-0.1 v -0.15 -0.1 L 17.45,42.1 V 42 l 0.05,-0.1 0.05,-0.15 v -0.1 -0.15 -0.1 l 0.05,-0.15 0.05,-0.1 V 41 l 0.05,-0.1 v -0.15 l 0.05,-0.1 v -0.1 L 17.8,40.4 v -0.1 l 0.05,-0.15 v -0.1 -0.15 l 0.05,-0.1 v -0.15 l 0.05,-0.1 V 39.4 39.3 L 18,39.15 v -0.1 -0.1 -0.15 -0.1 -0.15 -0.1 -0.15 l 0.05,-0.1 v -0.15 -0.1 L 18,37.8 v -0.1 -0.1 -0.15 -0.1 -0.15 l 0.1,-0.1 0.15,-0.15 0.1,-0.05 h 0.2 v -0.05 l 0.2,0.05 0.2,0.05 0.2,0.15 0.05,0.1 0.05,0.15 0.05,0.1 v 0.15 l 0.05,0.1 v 0.1 0.15 0.1 0.15 l 0.05,0.1 v 0.15 0.1 l 0.05,0.15 v 0.1 0.15 0.1 0.1 l 0.05,0.15 v 0.1 0.15 l 0.05,0.1 v 0.15 0.1 l 0.05,0.15 v 0.1 0.15 l 0.05,0.1 v 0.15 l 0.05,0.1 v 0.1 l 0.05,0.15 0.05,0.1 v 0.15 0.1 l 0.05,0.15 v 0.1 l 0.05,0.15 v 0.1 0.15 L 19.95,42 20,42.1 v 0.15 l 0.05,0.1 v 0.15 0.1 0.15 0.1 l 0.05,0.15 0.05,0.1 0.05,0.15 v 0.1 0.1 l 0.05,0.15 v 0.1 0.15 l 0.05,0.1 v 0.15 l 0.05,0.1 v 0.15 l 0.05,0.1 0.05,0.15 v 0.1 l 0.05,0.1 v 0.15 0.1 0.15 0.1 l 0.05,0.15 v 0.1 0.15 0.1 0.15 l 0.05,0.1 v 0.1 0.15 0.1 l 0.05,0.15 v 0.1 0.15 0.1 l 0.05,0.15 v 0.1 0.15 0.1 0.1 0.15 0.1 0.15 l 0.05,0.1 v 0.15 0.1 0.15 0.1 0.15 0.1 0.1 0.15 l 0.05,0.1 v 0.15 0.1 0.15 0.1 0.15 0.1 0.15 0.1 0.1 0.15 0.1 0.15 l 0.05,0.1 v 0.15 0.1 0.15 0.1 0.15 0.1 0.1 0.15 0.1 l 0.05,0.15 v 0.1 0.15 0.1 0.15 0.1 0.15 0.1 0.15 0.1 0.1 0.15 0.1 0.15 0.1 0.15 0.1 0.15 0.1 0.15 0.1 0.1 0.15 0.1 0.15 0.1 0.15 0.1 0.15 0.1 0.15 0.1 0.1 0.15 0.1 0.15 0.1 0.15 0.1 0.15 0.1 0.15"
         fill="#ffffff"
         fill-rule="evenodd"
         stroke="none"
         id="path5" />
      <path
         d="m 27.2,20.95 -3.25,-0.4 q -2.05,0.2 -3.6,2.1 -1.25,1.5 -1.5,3.9 -0.1,1.2 0.25,2.1 l 1.15,1.4 q 1.6,1.4 5.35,3.1 3.95,1.7 5.5,3 l 0.45,0.35 0.7,0.2 0.85,-0.3 0.3,-0.25 q 1.55,-1.3 5.5,-3 3.75,-1.7 5.35,-3.1 l 1.15,-1.4 q 0.35,-0.9 0.25,-2.1 -0.25,-2.4 -1.5,-3.9 -1.55,-1.9 -3.6,-2.1 l -3.25,0.4 q -1.8,0.45 -2.8,1.15 l -1.2,0.95 -0.2,0.15 v 0.25 l -0.55,0.1 h -0.3 -0.3 L 31.4,23.45 V 23.2 L 31.2,23.05 30,22.1 Q 29,21.4 27.2,20.95 M 25.7,38.2 21.15,36.05 Q 18.85,34.9 16.8,33 15.4,31.7 14.85,30.5 14.4,29.45 14.3,27.6 q -0.1,-4.5 2.2,-7.65 2.55,-3.45 6.8,-3.9 l 4,0.3 q 1.6,0.5 2.9,1.4 v -0.1 -0.1 -0.15 -0.1 -0.15 -0.1 -0.15 -0.1 -0.15 -0.1 -0.15 -0.1 l 0.05,-0.15 v -0.1 -0.1 -0.15 -0.1 -0.15 -0.1 -0.15 -0.1 -0.15 -0.1 -0.15 -0.1 -0.1 -0.15 -0.1 -0.15 -0.1 -0.15 -0.1 -0.15 L 30.3,13.6 V 13.45 13.35 13.25 13.1 13 12.85 12.75 12.6 12.5 12.35 12.25 12.1 12 11.9 11.75 11.65 11.5 11.4 11.25 11.15 l -0.65,0.5 -0.65,0.5 -0.8,0.45 q -0.6,0.15 -1,-0.25 -0.25,-0.2 -0.35,-0.6 v -0.8 L 27.1,10.2 27.8,8.75 29.45,5.9 30.3,4.6 31.4,3.35 Q 32.6,2.4 34.2,4.6 l 0.85,1.3 1.65,2.85 0.7,1.45 0.25,0.75 v 0.8 l -0.35,0.6 q -0.4,0.4 -1,0.25 l -0.8,-0.45 -0.65,-0.5 -0.65,-0.5 v 0.1 0.15 0.1 0.15 0.1 0.15 0.1 0.1 0.15 0.1 0.15 0.1 0.15 0.1 0.15 0.1 0.15 0.1 0.1 0.15 l 0.05,0.1 v 0.15 0.1 0.15 0.1 0.15 0.1 0.15 0.1 0.1 0.15 0.1 0.15 0.1 0.15 0.1 0.15 0.1 0.15 0.1 0.1 l 0.05,0.15 v 0.1 0.15 0.1 0.15 0.1 0.15 0.1 0.15 0.1 0.15 0.1 0.1 q 1.3,-0.9 2.9,-1.4 l 4,-0.3 q 4.25,0.45 6.8,3.9 2.3,3.15 2.2,7.65 -0.1,1.85 -0.55,2.9 -0.55,1.2 -1.95,2.5 -2.05,1.9 -4.35,3.05 L 38.8,38.2 q -1.65,0.75 -3.15,1.85 l 0.65,0.55 3.15,4.05 0.45,0.85 q 0.35,1 -0.5,1.5 l -1.6,-0.15 -0.7,-0.55 1.05,1 1.4,2.15 q 0.35,0.5 0.25,0.95 -0.1,0.7 -0.6,0.75 L 38.55,51 37.25,50.45 Q 35.8,49.95 34.75,49.2 L 34.3,48.9 34.25,49 34.1,49.1 34,49.25 l -0.15,0.1 -0.1,0.15 -0.2,0.1 -0.25,0.15 -0.2,0.05 v 0.05 l -0.15,0.05 -0.2,0.05 h -0.1 L 32.3,50 H 32.25 32.2 l -0.35,-0.05 h -0.1 L 31.55,49.9 31.4,49.85 V 49.8 L 31.2,49.75 30.95,49.6 30.75,49.5 30.65,49.35 30.5,49.25 30.4,49.1 30.25,49 30.2,48.9 29.75,49.2 q -1.05,0.75 -2.5,1.25 L 25.95,51 25.3,51.15 Q 24.8,51.1 24.7,50.4 24.6,49.95 24.95,49.45 l 1.4,-2.15 1.05,-1 -0.7,0.55 -1.6,0.15 q -0.85,-0.5 -0.5,-1.5 0.15,-0.5 0.45,-0.85 l 3.15,-4.05 0.65,-0.55 q -1.5,-1.1 -3.15,-1.85"
         fill="#000000"
         fill-rule="evenodd"
         stroke="none"
         id="path6" />
    </g>
    <g
       id="shape2"
       transform="translate(1.5,1.5)">
      <path
         d="M 0,23.8 V 0 H 64.1 V 23.8 57.55 H 0 Z"
         fill="none"
         stroke="#000000"
         stroke-linecap="round"
         stroke-linejoin="round"
         stroke-width="3"
         id="path7" />
    </g>
  </defs>
</svg>
