<?xml version="1.0" encoding="UTF-8" standalone="no"?>
<svg
   ffdec:objectType="frame"
   height="60.549999"
   width="67.099998"
   version="1.1"
   id="svg8"
   sodipodi:docname="174.svg"
   xmlns:inkscape="http://www.inkscape.org/namespaces/inkscape"
   xmlns:sodipodi="http://sodipodi.sourceforge.net/DTD/sodipodi-0.dtd"
   xmlns:xlink="http://www.w3.org/1999/xlink"
   xmlns="http://www.w3.org/2000/svg"
   xmlns:svg="http://www.w3.org/2000/svg"
   xmlns:ffdec="https://www.free-decompiler.com/flash">
  <sodipodi:namedview
     id="namedview8"
     pagecolor="#ffffff"
     bordercolor="#000000"
     borderopacity="0.25"
     inkscape:showpageshadow="2"
     inkscape:pageopacity="0.0"
     inkscape:pagecheckerboard="0"
     inkscape:deskcolor="#d1d1d1"
     fit-margin-top="5"
     fit-margin-left="5"
     fit-margin-right="5"
     fit-margin-bottom="5" />
  <g
     transform="translate(1.5,1.5)"
     id="g3">
    <use
       ffdec:characterId="516"
       height="57.549999"
       width="64.099998"
       xlink:href="#shape0"
       id="use1" />
    <use
       ffdec:characterId="682"
       height="60.049999"
       transform="translate(-1.35,-1.45)"
       width="65.699997"
       xlink:href="#shape1"
       id="use2" />
    <use
       ffdec:characterId="518"
       height="60.549999"
       transform="translate(-1.5,-1.5)"
       width="67.099998"
       xlink:href="#shape2"
       id="use3" />
  </g>
  <defs
     id="defs8">
    <g
       id="shape0">
      <path
         d="M 53.6,0 H 64.1 V 57.55 H 53.6 28.25 0 V 0 H 28.25 53.6 V 57.55 0 M 28.25,0 V 57.55 0"
         fill="#ffffff"
         fill-rule="evenodd"
         stroke="none"
         id="path3" />
    </g>
    <g
       id="shape1"
       transform="translate(1.35,1.45)">
      <path
         d="M 36.75,14.55 36.35,12.5 36.05,10.4 34.7,0.75 v -1 l 0.7,-0.5 0.8,0.2 q 0.3,0.35 0.4,1.1 L 36.95,0.5 H 37.1 Q 37,1.05 37.05,1.8 l 1.6,13.7 0.2,0.6 q 0.25,0.35 0.5,0.2 l 0.3,-0.6 0.55,-5.4 -0.05,-7.65 0.05,-1.9 -0.05,-0.3 h 2.5 4.05 V 0.4 h 2.4 l 1.25,0.05 h 2.6 7.95 0.7 l 0.2,0.05 0.1,-0.05 0.35,-0.1 h 0.25 l 0.25,-0.05 0.1,-0.05 h 0.2 0.3 l 0.35,0.05 0.2,0.1 0.15,0.1 0.1,0.1 v 0.1 l 0.1,0.1 0.05,0.1 V 1 l 0.05,0.1 v 0.15 0.1 0.1 l -0.05,0.1 v 0.1 l -0.05,0.1 -0.1,0.1 L 64.1,1.95 64,2.05 63.85,2.15 63.7,2.2 63.6,2.25 63.35,2.3 h -0.2 v 0.05 0.1 0.1 0.1 0.1 l 0.05,0.1 v 0.1 0.1 0.1 0.1 0.1 0.1 0.1 0.1 0.1 V 3.9 4 4.1 4.2 4.3 4.4 4.5 4.6 4.7 4.8 4.9 5 v 0.1 0.1 0.1 0.1 0.15 0.1 0.1 0.1 0.1 0.1 0.1 0.1 0.1 0.1 0.1 0.1 0.1 0.1 0.1 0.15 0.1 0.1 0.1 0.1 0.1 0.1 0.1 0.1 0.1 0.1 0.1 0.1 0.1 0.1 0.15 0.1 0.1 0.1 0.1 0.1 0.1 0.1 0.1 0.1 0.1 0.1 0.1 0.1 0.1 0.1 0.15 0.1 0.1 0.1 0.1 0.1 0.1 0.1 0.1 0.1 0.1 0.1 0.1 0.1 0.1 0.15 0.1 0.1 0.1 0.1 0.1 0.1 0.1 0.1 0.1 0.1 0.1 0.1 0.1 l 0.05,0.1 v 0.1 0.15 0.1 0.1 0.1 0.1 0.1 0.1 0.1 0.1 0.1 0.1 0.1 0.1 0.1 0.1 0.15 0.1 0.1 0.1 0.1 0.1 0.1 0.1 0.1 0.1 0.1 0.1 0.1 0.1 0.1 0.15 0.1 0.1 0.1 0.1 0.1 0.1 0.1 0.1 0.1 0.1 0.1 0.1 0.1 0.1 0.1 0.15 0.1 0.1 0.1 0.1 0.1 0.1 0.1 0.1 0.1 0.1 0.1 0.1 0.1 0.1 0.15 0.1 0.1 0.1 0.1 0.1 0.1 0.1 0.1 0.1 0.1 0.1 0.1 0.1 0.1 0.1 0.15 0.1 0.1 0.1 0.1 0.1 0.1 0.1 0.1 0.1 0.1 0.1 0.1 0.1 0.1 0.15 0.1 0.1 0.1 0.1 0.1 0.1 0.1 0.1 0.1 0.1 0.1 0.1 0.1 0.1 0.15 0.1 0.1 0.1 0.1 0.1 0.1 0.1 0.1 0.1 0.1 0.1 0.1 0.1 0.1 0.1 0.15 0.1 0.1 0.1 0.1 0.1 0.1 0.1 0.1 0.1 0.1 0.1 0.1 0.1 l 0.05,0.1 v 0.15 0.1 0.1 0.1 0.1 0.1 0.1 0.1 0.1 0.1 0.1 0.1 0.1 0.1 0.1 0.1 0.15 0.1 0.1 0.1 0.1 0.1 0.1 0.1 0.1 0.1 0.1 0.1 0.1 0.1 0.1 0.15 0.1 0.1 0.1 0.1 0.1 0.1 0.1 0.1 0.1 0.1 0.1 0.1 0.1 0.1 0.15 0.1 0.1 0.1 0.1 0.1 0.1 0.1 0.1 0.1 0.1 0.1 0.1 0.1 0.1 0.1 0.15 0.1 0.1 0.1 0.1 0.1 0.1 0.1 0.1 0.1 0.1 0.1 0.1 0.1 0.1 0.15 0.1 0.1 0.1 0.1 0.1 0.1 0.1 0.1 0.1 0.1 0.1 0.1 0.1 0.1 0.1 0.15 0.1 0.1 0.1 0.1 0.1 0.1 0.1 0.1 0.1 0.1 0.1 0.1 0.1 0.1 0.15 0.1 0.1 0.1 0.1 0.1 0.1 0.1 0.1 0.1 0.1 0.1 0.1 0.1 0.1 0.15 0.1 0.1 0.1 0.1 0.1 0.1 0.1 0.1 0.1 0.1 0.1 0.1 0.1 0.1 0.1 0.15 0.1 0.1 0.1 0.1 0.1 0.1 0.1 0.1 0.1 0.1 0.1 0.1 0.1 0.1 0.15 0.1 0.1 0.1 0.1 0.1 0.1 0.1 0.1 0.1 0.1 0.1 0.1 0.1 0.1 0.1 0.15 0.1 0.1 0.1 0.1 l 0.05,0.1 v 0.1 0.1 0.1 0.1 0.1 0.1 0.1 0.1 0.1 0.15 0.1 0.1 0.1 0.1 l -0.05,0.1 v 0.1 0.1 0.1 0.1 0.1 0.1 0.1 0.1 0.1 0.15 0.1 0.1 0.1 0.1 0.1 0.1 0.1 0.1 0.1 0.1 0.1 0.1 0.1 0.1 0.1 0.15 0.1 0.1 0.1 0.1 l 0.05,0.1 v 0.1 0.1 0.1 0.1 0.1 0.1 0.1 0.1 0.1 L 63.3,51.6 v 0.1 0.1 0.1 0.1 0.1 0.1 0.1 0.1 0.1 0.1 0.1 0.1 0.1 0.1 0.1 0.15 0.1 0.1 0.1 0.1 0.1 0.1 0.1 0.1 0.1 0.1 0.1 0.1 0.1 0.1 0.15 0.1 0.1 0.1 0.1 0.1 0.1 0.1 0.1 0.1 l -0.05,0.1 -0.05,0.1 V 56 l -0.1,0.1 -0.05,0.1 -0.1,0.1 -0.15,0.15 -0.2,0.1 L 62.25,56.6 62,56.55 61.9,56.6 61.65,56.65 61.4,56.7 60.35,56.75 H 56.6 44.9 36.55 L 27.05,56.8 9.4,56.85 H 6 L 3.35,56.8 3.1,56.75 H 2.5 L 2.25,56.7 2.1,56.75 1.9,56.85 1.65,56.9 1.45,56.85 1.25,56.75 1.05,56.65 0.9,56.55 0.8,56.45 0.75,56.35 0.7,56.25 0.65,56.15 0.6,56.05 0.55,55.95 v -0.1 -0.1 -0.1 -0.1 -0.1 -0.1 V 55.2 55.1 55 54.9 54.8 54.7 54.6 54.5 54.4 54.3 54.2 54.1 54 v -0.1 -0.1 -0.15 -0.1 -0.1 -0.1 -0.1 -0.1 -0.1 -0.1 -0.1 -0.1 -0.1 -0.1 -0.1 -0.1 -0.1 -0.1 V 52 51.9 51.8 51.7 51.6 51.5 51.4 51.3 51.2 51.1 51 v -0.1 -0.1 -0.1 -0.1 -0.15 -0.1 -0.1 -0.1 -0.1 -0.1 -0.1 -0.1 -0.1 -0.1 -0.1 -0.1 -0.1 -0.1 -0.1 -0.1 -0.15 -0.1 -0.1 -0.1 -0.1 -0.1 -0.1 -0.1 -0.1 -0.1 -0.1 -0.1 -0.1 -0.1 -0.1 -0.15 -0.1 -0.1 -0.1 -0.1 -0.1 -0.1 -0.1 -0.1 -0.1 -0.1 -0.1 -0.1 -0.1 -0.1 -0.1 -0.15 -0.1 -0.1 L 0.6,45.3 V 45.2 45.1 45 44.9 44.8 44.7 L 0.65,44.6 V 44.5 44.4 44.3 44.2 L 0.7,44.05 v -0.1 -0.1 -0.05 H 1.35 L 9.3,43.65 q 5,-0.2 7.95,-0.05 l 1.95,0.05 q 0.75,0.15 0.75,-0.35 -0.05,-0.35 -0.6,-0.45 L 12.35,42.2 4.6,41.1 1.85,40.55 0.45,40.4 0,39.5 Q -0.05,39.05 0.25,38.65 0.5,38.2 0.9,38.05 l 1.6,0.05 1.25,0.2 2.15,0.45 11.95,1.95 8.65,1.6 h 0.4 q 0.3,0 0.2,-0.3 l -7.25,-2.3 -0.15,-0.25 -0.4,-0.85 0.1,-0.5 2,0.6 q 9.15,2.75 13.55,3.7 l 3.8,0.35 q 0.9,-0.1 1.2,-0.6 Q 40.25,41.7 40,41.1 L 39.35,40.2 38.6,39.7 38.75,39.65 38.7,37.85 38.25,33.4 37.6,30 37.3,28.85 36.7,27.5 36.3,26.4 33.45,16.2 33.3,15.25 l 0.1,-0.45 0.05,-0.25 0.25,-0.15 0.2,-0.1 0.2,0.35 0.5,0.95 1.4,3.5 1.5,3 q 0.1,0.35 0.35,0.35 L 38.2,22.2 V 21.7 L 37.3,17 36.75,14.55 m -14,4.3 -0.4,1.1 -0.2,1.35 -0.5,1.75 -0.45,1.3 q -0.2,0.8 -0.7,0.85 -0.55,0.15 -0.85,-0.55 V 23.6 Q 20,21.7 21.3,18.1 l 0.35,-0.55 0.55,-0.2 q 0.3,0.1 0.4,0.6 l 0.15,0.9 m -0.6,6.05 0.9,-2.9 0.25,-0.5 0.75,0.05 0.3,0.75 -0.1,0.45 0.95,0.15 0.5,1.15 0.85,1.35 q 0.65,0.8 0.75,1.45 v 0.5 l 1.35,0.9 q 1.55,1.15 1.6,2.4 0.1,0.55 -0.25,0.95 -0.3,0.35 -0.8,0.4 l -0.9,-0.25 -0.8,-0.85 -2.3,-1.85 -2.65,-2.1 -0.6,-0.65 q -0.15,-0.4 0.2,-1.4 M 18.95,12.55 Q 18.35,12.9 17.45,12.2 16.3,11.35 15.7,10.05 L 15.45,9.4 14.6,8.05 l -3.55,-5 -0.6,-1.1 Q 10.1,0.8 11,0 q 0.8,-0.8 2,-0.4 0.85,0.3 1.75,1.85 l 1.8,3.1 1.7,3.25 0.75,2.2 0.2,0.7 0.15,1 q 0,0.55 -0.4,0.85 M 0.45,1.35 Q 0.55,0.65 1.2,0.2 l 1.35,-0.25 q 0.9,0.15 1.9,1.55 l 3.75,4.8 2.5,2.8 2.15,3 1.1,1.75 0.65,1.55 q 0.2,0.9 -0.1,1.2 l -0.8,0.1 -0.1,0.05 q -0.25,0.15 -1,-0.45 L 10.9,15.15 9.3,13.6 4.3,8.35 1.3,5.15 Q 0.45,3.95 0.35,3.55 0.15,2.7 0.5,2.25 L 0.45,1.35 M 11.55,21.6 11,21.55 10.7,21.45 10.55,21.35 9.75,20.85 8.1,19.6 7.6,19.3 6.85,18.8 3.95,16.85 1,14.9 q -1.1,-0.8 -1.1,-1.6 l 0.3,-0.85 -1,-1.4 q -0.25,-0.8 0.25,-1.45 0.6,-0.7 1.35,-0.7 1.05,0 2.4,1.55 l 6.4,7.25 2.05,2.7 0.25,0.65 q 0,0.45 -0.35,0.55 m 7.8,-4.65 -0.3,1.2 -0.3,0.95 -0.25,0.6 -0.25,1 -0.3,0.7 L 17.8,22.25 17.5,23 16.45,23.15 15.9,22.6 13.35,19.45 13.1,19.05 q -0.1,-0.5 0.3,-0.8 0.5,-0.3 0.85,0 0.2,-1.2 1.1,-2.25 0.55,-0.45 0.85,-0.45 h 0.5 l 0.25,-0.3 0.65,-1.3 q 0.55,-0.75 1.2,-0.7 0.5,0 0.85,0.45 l 0.15,0.95 -0.3,0.95 -0.15,1.35"
         fill="#999999"
         fill-rule="evenodd"
         stroke="none"
         id="path4" />
      <path
         d="m 37.1,0.5 0.3,-0.9 0.85,-0.55 1.05,0.15 q 0.65,0.45 0.85,1.25 l 0.05,0.3 -0.05,1.9 0.05,7.65 -0.55,5.4 -0.3,0.6 q -0.25,0.15 -0.5,-0.2 L 38.65,15.5 37.05,1.8 Q 37,1.05 37.1,0.5 M 0.7,43.8 0.05,43.6 Q -1,43.3 -1.1,42.1 q -0.1,-1.2 1,-1.6 l 0.55,-0.1 1.4,0.15 2.75,0.55 7.75,1.1 7,0.65 q 0.55,0.1 0.6,0.45 0,0.5 -0.75,0.35 L 17.25,43.6 Q 14.3,43.45 9.3,43.65 L 1.35,43.8 H 0.7 M 3.75,38.3 Q 2.65,38 2.05,37.55 L 1.7,37.05 Q 1.6,36.75 1.9,36.45 2.45,35.9 3.95,36.1 l 7.85,1.25 5.15,1.3 2.55,0.9 0.35,0.15 7.25,2.3 q 0.1,0.3 -0.2,0.3 H 26.5 L 17.85,40.7 5.9,38.75 3.75,38.3 M 19.4,38.1 16.55,37.2 q -1,-0.35 -0.9,-0.9 0,-0.45 0.55,-0.55 h 0.75 L 35.7,38.9 q 1.8,0.3 2.9,0.8 l 0.75,0.5 0.65,0.9 q 0.25,0.6 -0.05,1.05 -0.3,0.5 -1.2,0.6 L 34.95,42.4 Q 30.55,41.45 21.4,38.7 l -2,-0.6 M 33.9,14.3 Q 32.75,12 32.2,9.6 31.9,8.5 32.15,7.85 32.4,7.35 32.9,7.1 l 1.05,0.05 q 0.35,0.2 0.7,1.15 l 1.9,5.5 0.2,0.75 0.55,2.45 0.9,4.7 v 0.5 l -0.35,0.25 q -0.25,0 -0.35,-0.35 L 36,19.1 34.6,15.6 34.1,14.65 33.9,14.3"
         fill="#ffffff"
         fill-rule="evenodd"
         stroke="none"
         id="path5" />
      <path
         d="m 18.3,-1.3 q 1,-0.45 2.05,0.5 l 1.2,1.9 4.5,10.6 q 3.75,8.8 5.6,14.25 l 0.15,0.75 q 0,0.45 -0.45,0.55 L 29.45,24.05 23.15,12 21.1,7.85 19.45,4.15 18.45,2.9 17.55,1.55 Q 17.25,0.75 17.4,-0.1 17.6,-1 18.3,-1.3 M 29.05,14.75 28.7,14.25 28.15,12.9 27.05,9.9 24.2,2 23.9,0.8 q 0,-0.5 0.3,-0.9 0.3,-0.45 0.8,-0.55 1.05,-0.35 1.75,0.6 l 0.4,1.1 2.2,10.4 0.25,2.6 -0.1,0.5 q -0.2,0.3 -0.45,0.2 m 30.55,1.6 -1.3,2.2 -0.5,0.55 -0.7,0.15 Q 56.6,19.2 56.5,18.55 L 56.45,17.6 57.3,12.55 q 0.1,-1.25 0.35,-1.85 0.5,-1.05 1.5,-1.2 1.05,-0.25 1.85,0.45 0.85,0.8 0.75,1.8 l -0.8,2.4 -0.85,1.45 -0.5,0.75 M 55.3,26.8 q 1.35,1.55 1.5,3.95 0.15,1.55 -0.5,4.2 -0.4,1.85 -1.2,3.05 -1.05,1.8 -3.15,2.8 l -3.9,0.9 q 1.05,1.55 1.7,3.55 Q 51,48.6 50.85,52.4 50.8,54.2 50.4,55.45 50,57.2 48.9,57.9 48,58.55 46.1,58.6 L 38.95,58 Q 35.7,57.6 34.15,57 32.9,56.5 32.3,55.7 l -0.15,-0.25 -1.2,-0.3 q -2.3,-0.9 -3.6,-3.2 -1.2,-2.25 -0.75,-4.65 l 0.1,-0.95 -0.4,-0.8 Q 25.8,45.25 25,45.8 l -1.85,1.25 q -1.15,0.7 -2.1,0.7 -1.6,0.05 -2.4,-1.3 -0.7,-1 -0.6,-2.6 0.1,-1.25 0.55,-2 0.4,-0.65 1.6,-1.6 l 1,-0.05 q 0.25,0.25 -0.05,0.6 l -0.55,0.45 q -1.05,0.7 -1.2,1.95 -0.2,1.3 0.65,2.3 0.4,0.4 0.8,0.4 l 0.65,-0.25 2.1,-1.7 q 1.3,-0.95 2.3,-1.15 1.4,-0.3 2.6,0.6 1.15,0.9 1.3,2.35 l -0.2,2.3 q 0,1.25 0.6,2.3 l 1.35,1.5 q 0,-3.35 1.25,-6.55 1.55,-3.85 4.45,-6.55 l 1.45,-1.1 q -0.6,-0.8 -0.9,-1.8 -0.75,-2 -0.35,-4.4 0.4,-2.25 1.7,-4.15 1.05,-1.5 2.35,-2.5 l -0.15,-0.4 q -0.5,-1.65 0.4,-3.3 0.65,-1.4 2.1,-2.7 1,-0.85 1.8,-1.05 l 1.8,-0.1 q 2.65,0.25 3.75,1.15 1.5,1 2,3.65 l 0.1,1.15 v 0.6 l -0.1,0.5 -0.2,0.65 q 1.65,1.05 2.3,1.85 m -0.85,-5.3 q 0.15,-0.6 0.6,-1.05 0.5,-0.45 1.1,-0.5 0.6,-0.05 1.15,0.35 0.6,0.3 0.75,0.9 0.2,0.6 -0.05,1.2 l -0.75,1 Q 56,24.15 55,23.15 54.35,22.45 54.45,21.5 M 53.95,34 q 0.1,-0.8 -0.35,-1.6 -0.5,-0.7 -1.25,-1.05 l -1.6,-0.05 q -0.8,0.25 -1.3,0.9 -0.5,0.65 -0.5,1.55 0.05,0.9 0.6,1.5 0.55,0.65 1.55,0.8 l 1.7,-0.3 q 1,-0.6 1.15,-1.75 m -34.5,-7.1 2.4,1.4 2.4,1.3 q 3.75,2 5.6,2.6 Q 26.4,27.05 23.2,21.25 l -1.9,-3.5 -2.65,-3.75 -1.75,1.8 -3.55,4.25 -0.25,0.45 0.15,0.4 q 0.55,1.25 1.85,2.5 l 2.4,2.05 1.95,1.45 m 12.2,8.7 -1.85,-0.3 Q 27.45,34.4 22.95,32.1 18.6,29.9 16.25,28.25 12.6,25.65 10.9,22.75 9.75,20.9 10.25,19.6 10.4,19.05 11.1,18.35 L 13.8,15.25 11.95,14.1 11.2,13.45 9.75,12 9.05,11.05 8.25,9.55 8.1,8.3 q 0,-1.2 0.3,-2 0.55,-1.2 1.8,-1.65 l 2.45,-0.3 q 1.1,0.1 1.75,0.6 l 0.75,0.9 q 1.85,2.8 2.8,5.05 l 0.1,0.2 1.35,-0.15 q 0.45,0.2 0.9,0.95 2.4,3.55 5.95,10.2 4,7.45 5.75,10.3 1,1.6 1.2,2.5 l -0.15,0.55 h -0.5 l -0.9,0.15 M 0.6,25.15 q -2,-1.3 -1.95,-2.7 0.05,-0.7 0.65,-1.25 0.6,-0.5 1.3,-0.45 0.7,0.05 1.6,0.7 9,5.7 17.55,10.1 2.55,1.25 3.95,2.45 l 0.3,0.4 -0.15,0.45 -0.4,-0.05 -5.95,-2.5 -6,-2.45 -5.6,-2.1 Q 2.7,26.5 0.6,25.15 m 1.75,3.05 9.3,3.35 0.85,0.45 0.2,0.25 -0.2,0.25 H 12.15 L 1.35,30.9 Q 0.05,30.7 -0.4,30.2 -1.05,29.4 -0.55,28.45 -0.05,27.6 1,27.7 l 1.35,0.5"
         fill="#000000"
         fill-rule="evenodd"
         stroke="none"
         id="path6" />
      <path
         d="m 53.95,34 q -0.15,1.15 -1.15,1.75 l -1.7,0.3 q -1,-0.15 -1.55,-0.8 -0.55,-0.6 -0.6,-1.5 0,-0.9 0.5,-1.55 0.5,-0.65 1.3,-0.9 l 1.6,0.05 q 0.75,0.35 1.25,1.05 0.45,0.8 0.35,1.6"
         fill="#ffffff"
         fill-rule="evenodd"
         stroke="none"
         id="path7" />
    </g>
    <g
       id="shape2"
       transform="translate(1.5,1.5)">
      <path
         d="M 0,23.8 V 0 H 64.1 V 23.8 57.55 H 0 Z"
         fill="none"
         stroke="#000000"
         stroke-linecap="round"
         stroke-linejoin="round"
         stroke-width="3"
         id="path8" />
    </g>
  </defs>
</svg>
