<?xml version="1.0" encoding="UTF-8" standalone="no"?>
<svg
   ffdec:objectType="frame"
   height="60.549999"
   width="67.099998"
   version="1.1"
   id="svg8"
   sodipodi:docname="558.svg"
   xmlns:inkscape="http://www.inkscape.org/namespaces/inkscape"
   xmlns:sodipodi="http://sodipodi.sourceforge.net/DTD/sodipodi-0.dtd"
   xmlns:xlink="http://www.w3.org/1999/xlink"
   xmlns="http://www.w3.org/2000/svg"
   xmlns:svg="http://www.w3.org/2000/svg"
   xmlns:ffdec="https://www.free-decompiler.com/flash">
  <sodipodi:namedview
     id="namedview8"
     pagecolor="#ffffff"
     bordercolor="#000000"
     borderopacity="0.25"
     inkscape:showpageshadow="2"
     inkscape:pageopacity="0.0"
     inkscape:pagecheckerboard="0"
     inkscape:deskcolor="#d1d1d1"
     fit-margin-top="5"
     fit-margin-left="5"
     fit-margin-right="5"
     fit-margin-bottom="5" />
  <g
     transform="translate(1.5,1.5)"
     id="g3">
    <use
       ffdec:characterId="516"
       height="57.549999"
       width="64.099998"
       xlink:href="#shape0"
       id="use1" />
    <use
       ffdec:characterId="1054"
       height="48.75"
       transform="translate(0,5.35)"
       width="61.950001"
       xlink:href="#shape1"
       id="use2" />
    <use
       ffdec:characterId="518"
       height="60.549999"
       transform="translate(-1.5,-1.5)"
       width="67.099998"
       xlink:href="#shape2"
       id="use3" />
  </g>
  <defs
     id="defs8">
    <g
       id="shape0">
      <path
         d="M 53.6,0 H 64.1 V 57.55 H 53.6 28.25 0 V 0 H 28.25 53.6 V 57.55 0 M 28.25,0 V 57.55 0"
         fill="#ffffff"
         fill-rule="evenodd"
         stroke="none"
         id="path3" />
    </g>
    <g
       id="shape1"
       transform="translate(0,-5.35)">
      <path
         d="M 52.3,24.85 V 23.5 q -0.25,-1.1 -1.1,-1.8 -1.4,-1.15 -3.15,-0.6 -1.75,0.65 -2.15,2.4 -0.2,0.8 0.1,1.7 0.25,0.85 0.85,1.4 1.4,1.3 3.25,0.7 l 1.45,-0.95 q 0.6,-0.65 0.75,-1.5 m -1.05,11.9 q -2.5,-0.05 -4.4,-1.4 L 46.8,35.3 45.9,34.85 45.55,34.6 q -8.15,7.3 -14.95,14 -1.2,1.2 -2.05,1.35 -1,0.15 -1.8,-0.55 -0.75,-0.75 -0.65,-1.75 0.1,-1.3 2.05,-2.85 l 6.4,-5.15 q -4.4,2.6 -8.45,5.9 -1.4,1.2 -2.3,1.35 L 22.2,46.65 Q 21.4,46.25 21,45.5 20.65,44.75 20.8,43.9 20.95,43 21.55,42.4 20.35,43 19.3,42.8 18,42.55 17.6,41.35 L 17.15,40.2 Q 16.9,39.95 16.4,39.95 h -0.9 l -0.95,-0.7 Q 14.2,38.65 14.3,38 q 0.1,-1.1 1.2,-2.25 h 0.05 q -0.25,-0.6 -0.15,-1.35 0.15,-0.95 0.75,-1.65 0.75,-0.9 3.05,-1.85 4.25,-1.7 6.6,-2.15 l 6.05,-0.65 10.25,0.35 q -0.45,-2.7 0.15,-5.1 L 42,22.9 40.6,19.8 40.3,18.75 q -0.15,-1.2 0.95,-1.9 l 1.35,-0.4 3.7,-0.55 2.6,-0.05 0.3,-0.1 3.15,-0.55 q 2.4,-0.1 4.05,0.55 2,0.75 3.45,2.6 1.4,1.8 1.85,4 0.8,3.8 -1,8.45 l -0.5,1.25 -1.15,1.8 q -1.7,2.05 -4.7,2.5 l -3.1,0.4 m 9.4,-11.85 q -1.15,-0.85 -2.5,-0.25 -1.35,0.6 -1.45,2.05 -0.15,1.5 1.05,2.3 l 2.6,0.15 q 1.35,-0.65 1.35,-2.2 0,-1.3 -1.05,-2.05 m -10.6,5.25 1,0.3 1.5,-0.35 h 0.05 l 0.4,0.7 0.8,0.8 q 0.7,0.55 2,0.25 L 56.5,31.6 56.65,30.95 56.3,30.65 55.85,30.5 55.45,30 55.05,29.3 54.5,28.55 Q 54.25,28.35 54,28.3 L 53.75,28.1 53.1,28 52.4,28.3 q -1.35,0.75 -2.8,0.35 l -0.45,-0.1 q -0.5,0.1 -0.4,0.65 0.05,0.4 0.5,0.65 l 0.8,0.3 M 10.1,17 h 6.2 0.25 l 0.2,0.05 h 3.75 l 0.25,0.05 h 1.35 2.3 l 0.7,0.05 h 0.4 l 0.45,0.05 h 0.25 l 0.1,0.05 h 0.35 l 0.45,0.05 h 0.3 l 0.25,0.05 h 0.25 1.75 L 30,17.4 h 0.25 l 0.2,0.05 h 2.05 l 0.45,0.05 h 0.25 l 0.2,0.05 h 0.4 l 0.25,0.05 h 0.25 0.4 l 0.3,0.05 h 0.7 0.3 0.2 l 0.15,0.05 0.15,0.1 0.05,0.05 0.1,0.05 0.1,0.1 0.05,0.05 v 0.1 l 0.05,0.05 0.05,0.05 0.05,0.1 v 0.1 0.1 0.1 l -0.05,0.1 v 0.05 l -0.05,0.1 -0.05,0.05 V 19 l -0.05,0.1 -0.1,0.05 -0.1,0.05 -0.05,0.1 -0.2,0.05 -0.1,0.05 H 36 35.7 35 l -0.3,0.05 H 34.5 L 34.15,19.5 H 34 l -0.6,0.05 H 33.15 V 19.6 H 32.5 l -1.85,0.05 H 30.45 30 l -0.1,0.05 h -2 l -0.1,0.05 H 27.6 L 27.35,19.8 H 26.9 l -0.45,0.05 H 26.3 L 26.2,19.9 H 25.75 25.3 l -0.9,0.05 H 22.1 L 20.85,20 H 20.6 l -3.85,0.05 -0.2,0.05 H 10.1 L 9.6,20.05 8.85,20 H 8.8 l -0.2,0.05 h -2 L 6.45,20 6.25,19.9 6.05,19.85 6,19.8 H 5.95 L 5.75,19.75 Q 4.1,19.35 3.4,17.5 2.9,16.15 3.05,14.15 L 3.2,13.3 4,11.7 4.5,11.2 6.6,9.45 Q 7.45,8.85 8.1,8.7 L 8.95,8.75 Q 9.4,8.9 9.5,9.4 L 9,10.2 8.15,10.8 7.35,11.5 Q 6.8,12.15 6.4,13.45 l -0.25,0.9 0.05,0.8 0.25,1 0.35,0.55 0.55,0.25 0.3,0.1 H 8.4 8.65 8.85 9.6 L 9.85,17 h 0.25 m 6.55,5.45 h 6.65 l 0.35,0.05 h 0.3 l 0.1,0.05 h 0.55 l 2,0.05 H 28 l 0.55,0.05 h 0.2 L 29,22.7 h 0.3 0.55 l 0.7,0.05 h 1.4 0.35 0.6 l 0.35,0.05 h 0.3 l 0.1,0.05 h 0.1 l 0.15,0.05 h 0.05 l 0.1,0.05 h 0.2 2.45 L 37.1,23 h 0.25 l 0.35,0.05 h 0.2 l 0.25,0.05 h 0.05 l 0.15,0.05 h 0.2 l 0.1,0.05 h 0.1 0.1 l 0.2,0.05 0.15,0.1 0.1,0.05 0.15,0.05 0.1,0.1 0.05,0.05 0.05,0.1 v 0.05 l 0.05,0.05 0.05,0.1 v 0.1 0.1 0.1 l -0.05,0.1 v 0.05 l -0.05,0.1 v 0.05 l -0.05,0.05 -0.05,0.1 -0.1,0.05 -0.15,0.05 -0.1,0.1 L 39.05,24.9 39,24.95 H 38.95 L 38.8,25 H 38.65 L 38.4,25.05 H 38.35 L 38.2,25.1 h -0.3 l -0.15,0.05 h -0.1 L 37.1,25.2 h -0.2 -2.4 l -0.35,0.05 h -0.2 V 25.3 H 33.8 l -0.05,0.05 h -0.2 l -0.2,0.05 H 33.2 l -0.9,0.05 H 31.95 30.75 30.1 29.55 L 29.1,25.5 h -0.15 l -0.4,0.05 h -0.6 l -1.1,0.05 H 24.6 l -0.5,0.05 H 23.95 L 23.6,25.7 h -0.3 -6.65 -1.1 v -0.05 h -0.4 L 14.8,25.6 H 14.6 L 14.4,25.55 H 14.3 L 14.15,25.5 H 13.5 10.65 3.35 2.65 1 V 22.75 H 1.2 L 1.45,22.7 h 0.1 0.2 0.5 0.3 0.1 1 6.75 3.1 l 0.8,-0.05 h 0.1 l 0.2,-0.05 h 0.2 l 0.3,-0.05 h 0.35 l 0.1,-0.05 h 0.25 0.85 V 22.45 M 7.8,43.95 6.8,44.65 5.55,44.6 Q 4.3,44.2 3.8,42.9 3.4,42.05 3.4,40.45 q 0.1,-2.6 1.4,-4.95 1.8,-3.2 5.7,-5.3 1.3,-0.7 2.1,-0.8 l 1.55,0.25 q 0.75,0.3 0.95,0.8 0.4,0.75 -0.25,1.55 l -1.25,1.05 q -3.1,2.1 -4.25,4.3 -1,1.85 -1.1,4.5 0,1.5 -0.45,2.1"
         fill="#999999"
         fill-rule="evenodd"
         stroke="none"
         id="path4" />
      <path
         d="m 52.3,24.85 q -0.15,0.85 -0.75,1.5 L 50.1,27.3 q -1.85,0.6 -3.25,-0.7 -0.6,-0.55 -0.85,-1.4 -0.3,-0.9 -0.1,-1.7 0.4,-1.75 2.15,-2.4 1.75,-0.55 3.15,0.6 0.85,0.7 1.1,1.8 v 1.35 m -2.25,5.3 -0.8,-0.3 q -0.45,-0.25 -0.5,-0.65 -0.1,-0.55 0.4,-0.65 l 0.45,0.1 q 1.45,0.4 2.8,-0.35 l 0.7,-0.3 0.65,0.1 0.25,0.2 q 0.25,0.05 0.5,0.25 l 0.55,0.75 0.4,0.7 0.4,0.5 0.45,0.15 0.35,0.3 -0.15,0.65 -0.7,0.25 q -1.3,0.3 -2,-0.25 L 53,30.8 52.6,30.1 h -0.05 l -1.5,0.35 -1,-0.3 m 10.6,-5.25 q 1.05,0.75 1.05,2.05 0,1.55 -1.35,2.2 L 57.75,29 q -1.2,-0.8 -1.05,-2.3 0.1,-1.45 1.45,-2.05 1.35,-0.6 2.5,0.25"
         fill="#ffffff"
         fill-rule="evenodd"
         stroke="none"
         id="path5" />
      <path
         d="m 11.85,27.95 q -1.7,-2.5 -2,-5.65 Q 9.6,20.3 10,18.35 L 9.95,18.25 Q 8.8,16.1 8.5,13.7 8.3,12.7 8.45,11.95 8.6,10.95 9.25,10.4 9.7,10 11.15,9.65 l 1.6,-0.35 3.8,0.2 q 1.25,-0.7 2.6,-1.15 l 2.8,-0.5 2.2,0.2 0.65,-0.45 1.75,-1.05 1.1,-0.75 2.7,0.05 0.9,1.4 0.8,2 q 0.6,1.95 0.75,4 v 1.3 q 0.95,2.55 0.85,5.5 -0.2,3.6 -2.1,6.5 -1.9,2.9 -5.15,4.5 -2.5,1.25 -5.2,1.4 l 0.55,5.2 0.45,-0.05 q 1.95,0 2.75,1.35 l 0.4,0.75 0.25,0.85 0.3,1.2 Q 26,43 25.65,43.95 l -0.9,1.85 -0.95,1.7 0.4,0.25 0.9,1 q 0.3,0.7 0.1,1.35 -0.3,1.25 -1.75,1.5 L 21,51.35 l -0.25,-0.1 -0.2,0.55 q -0.5,0.95 -1.7,1.3 -1.1,0.25 -2.1,-0.35 Q 15.8,52.2 15.5,51.35 L 15.15,51.4 14.7,52.25 14.4,52.6 14,52.95 13.3,53.4 11.55,53.55 10.6,53.35 9.95,52.85 9.75,52.6 9.6,52.7 8.3,53.45 7.25,53.95 6.6,54.1 5.9,54 5.3,53.8 Q 4.55,53.45 4.4,52.65 V 51.9 l 0.15,-0.5 0.5,-0.8 -1.2,-1.35 Q 2.35,47.1 2.05,44.8 1.7,42.2 3,40.15 l 0.9,-1.1 q 0.9,-0.8 2.1,-1 L 6.35,38 5.2,33.9 4.7,33 Q 4.35,32.55 3.85,32.65 L 3.15,33.2 2,34.6 0.6,35.55 0,35.7 v -6.75 l 0.9,-0.7 q 1.8,-1.05 3.8,-0.4 1.9,0.55 3.2,2.25 1.15,1.45 1.75,4.05 L 13.1,29.5 11.85,27.95 M 19,16.5 q -0.9,-1.1 -2.25,-1.35 -1.35,-0.15 -2.5,0.6 -0.85,0.6 -1.2,1.6 -0.35,1.05 -0.1,2 0.2,1.15 1.3,2 0.95,0.75 2.3,0.65 1.1,-0.15 1.9,-0.8 1.05,-0.95 1.2,-2.25 Q 19.8,17.65 19,16.5 m 3.65,7.6 0.05,-0.05 0.9,0.15 q 2.05,0.15 3.8,-1.05 l 0.25,-0.3 q 0.2,-0.45 -0.4,-0.55 L 26.5,22.4 25.8,22.35 24.9,22.2 24.2,21.85 23,21.65 q -0.35,0.05 -0.6,0.25 l -0.3,0.1 -0.75,0.75 q -1.25,1.35 -2.55,1.4 l -0.95,0.1 Q 18,25 19.2,25.4 l 0.85,0.1 q 1.1,0 2.6,-1.4 m 1.75,-4.85 0.05,0.2 1.3,-0.2 1.6,0.1 3.15,0.5 Q 30.75,19 30.5,18.1 30.3,17.3 29.6,16.6 28.95,16.05 28.1,15.85 L 26.4,16 q -0.8,0.3 -1.35,1 -0.55,0.75 -0.65,1.6 v 0.65"
         fill="#000000"
         fill-rule="evenodd"
         stroke="none"
         id="path6" />
      <path
         d="M 24.4,19.25 V 18.6 q 0.1,-0.85 0.65,-1.6 0.55,-0.7 1.35,-1 l 1.7,-0.15 q 0.85,0.2 1.5,0.75 0.7,0.7 0.9,1.5 0.25,0.9 0,1.75 l -3.15,-0.5 -1.6,-0.1 -1.3,0.2 -0.05,-0.2 m -1.75,4.85 q -1.5,1.4 -2.6,1.4 L 19.2,25.4 Q 18,25 17.85,24.25 l 0.95,-0.1 q 1.3,-0.05 2.55,-1.4 L 22.1,22 22.4,21.9 q 0.25,-0.2 0.6,-0.25 l 1.2,0.2 0.7,0.35 0.9,0.15 0.7,0.05 0.75,-0.1 q 0.6,0.1 0.4,0.55 l -0.25,0.3 q -1.75,1.2 -3.8,1.05 L 22.7,24.05 22.65,24.1 M 19,16.5 q 0.8,1.15 0.65,2.45 -0.15,1.3 -1.2,2.25 -0.8,0.65 -1.9,0.8 -1.35,0.1 -2.3,-0.65 -1.1,-0.85 -1.3,-2 -0.25,-0.95 0.1,-2 0.35,-1 1.2,-1.6 1.15,-0.75 2.5,-0.6 1.35,0.25 2.25,1.35"
         fill="#ffffff"
         fill-rule="evenodd"
         stroke="none"
         id="path7" />
    </g>
    <g
       id="shape2"
       transform="translate(1.5,1.5)">
      <path
         d="M 0,23.8 V 0 H 64.1 V 23.8 57.55 H 0 Z"
         fill="none"
         stroke="#000000"
         stroke-linecap="round"
         stroke-linejoin="round"
         stroke-width="3"
         id="path8" />
    </g>
  </defs>
</svg>
