<?xml version="1.0" encoding="UTF-8" standalone="no"?>
<svg
   ffdec:objectType="frame"
   height="60.549999"
   width="67.099998"
   version="1.1"
   id="svg6"
   sodipodi:docname="141.svg"
   xmlns:inkscape="http://www.inkscape.org/namespaces/inkscape"
   xmlns:sodipodi="http://sodipodi.sourceforge.net/DTD/sodipodi-0.dtd"
   xmlns:xlink="http://www.w3.org/1999/xlink"
   xmlns="http://www.w3.org/2000/svg"
   xmlns:svg="http://www.w3.org/2000/svg"
   xmlns:ffdec="https://www.free-decompiler.com/flash">
  <sodipodi:namedview
     id="namedview6"
     pagecolor="#ffffff"
     bordercolor="#000000"
     borderopacity="0.25"
     inkscape:showpageshadow="2"
     inkscape:pageopacity="0.0"
     inkscape:pagecheckerboard="0"
     inkscape:deskcolor="#d1d1d1"
     fit-margin-top="5"
     fit-margin-left="5"
     fit-margin-right="5"
     fit-margin-bottom="5" />
  <g
     transform="translate(1.5,1.5)"
     id="g3">
    <use
       ffdec:characterId="516"
       height="57.549999"
       width="64.099998"
       xlink:href="#shape0"
       id="use1" />
    <use
       ffdec:characterId="651"
       height="51.900002"
       transform="translate(-0.05,3.15)"
       width="64.050003"
       xlink:href="#shape1"
       id="use2" />
    <use
       ffdec:characterId="518"
       height="60.549999"
       transform="translate(-1.5,-1.5)"
       width="67.099998"
       xlink:href="#shape2"
       id="use3" />
  </g>
  <defs
     id="defs6">
    <g
       id="shape0">
      <path
         d="M 53.6,0 H 64.1 V 57.55 H 53.6 28.25 0 V 0 H 28.25 53.6 V 57.55 0 M 28.25,0 V 57.55 0"
         fill="#ffffff"
         fill-rule="evenodd"
         stroke="none"
         id="path3" />
    </g>
    <g
       id="shape1"
       transform="translate(0.05,-3.15)">
      <path
         d="m 42.75,16.75 0.15,-0.6 -0.35,-0.9 -1.1,-1.65 q -0.6,-0.8 -0.7,-1.3 -0.1,-0.4 0.1,-1.25 0.4,-1.45 1.5,-2.4 L 43.2,7.6 43.05,6.85 42.45,5.3 q -0.3,-0.6 -0.05,-0.95 0.2,-0.3 0.65,-0.2 l 0.65,0.4 q 1.45,1.2 1.75,2.8 0.35,1.9 -0.95,3.05 l -0.35,0.5 0.2,0.4 1.25,1.6 0.9,1.7 0.15,1.4 q -0.1,2.6 -1.85,3.7 l -1.75,0.15 Q 42.6,19.5 42.5,18.7 q -0.15,-1 0.25,-1.95 M 31.9,39.7 30.8,39.2 29.3,38.95 24.25,38.7 q -2.15,0.1 -3,-0.5 -1.1,-0.8 -1.5,-3.45 -0.2,-1.9 0.2,-2.75 0.25,-0.5 1.8,-1.8 l 1.8,-1.45 2.55,-0.2 q 4.45,0.05 9.75,-3.25 1.4,-0.85 2.1,-0.85 1,0 1.8,0.9 l 1.15,1.75 1.3,2.55 q 0.8,1.6 1.35,2.3 l 0.8,1.15 q 0.35,0.65 0.2,1.25 l -0.45,0.85 -0.6,1.2 q -0.45,0.95 -1.7,1.55 l -2.25,0.8 q -0.95,0.3 -1.75,0.75 l 1.15,-0.2 1.35,-0.25 1.3,-0.45 q 1.25,-0.2 2,0.65 0.75,0.9 0.35,2.05 -0.55,1.15 -2.55,1.55 l -6.85,0.7 -7,-0.3 -5,-0.4 -2.05,-0.3 q -1.2,-0.45 -1.65,-1.25 -0.6,-1.15 0.2,-1.95 0.7,-0.75 2.45,-0.45 l 8.75,0.8 1.75,0.05 -0.1,-0.05 m 1.25,-24.4 -0.3,-0.35 q -0.9,-0.6 -1.15,-1.4 -0.15,-0.4 -0.15,-1.2 0,-0.9 0.15,-1.35 0.4,-1.5 2.3,-2.7 l 0.75,-0.6 q 0.3,-0.35 0.2,-1.05 L 34.55,5.6 33.8,4 33.7,3.4 q 0.15,-0.35 0.55,-0.25 0.3,0 0.55,0.25 l 1,1.1 q 0.9,1.25 1.15,2.35 0.35,1.45 -0.2,2.5 l -0.95,1.3 q -0.45,0.45 -0.45,0.9 0,0.35 0.35,0.7 l 0.65,0.6 q 0.6,0.7 0.7,1.9 0.1,1.3 -0.3,2.15 -0.4,1.1 -1.4,1.7 l -1.6,0.1 q -0.65,-0.3 -0.85,-1.25 -0.05,-0.7 0.2,-1.6 l 0.05,-0.55 m -6.2,6.05 q -0.45,0.85 -1.6,0.65 -1.55,-0.25 -2,-1.95 -0.3,-1.5 0.65,-2.8 l 0.15,-0.4 -0.2,-0.3 q -0.6,-0.5 -0.85,-1 -0.85,-1.5 0.15,-3.3 0.6,-1.15 2.35,-2.6 L 25.95,9.25 25.85,8.5 24.8,6.9 24.55,6.55 Q 24.4,6.05 24.95,5.8 l 0.9,0.15 1.55,1.5 q 0.65,0.65 0.9,1.7 0.15,1.1 -0.5,1.9 l -0.7,0.7 q -0.35,0.35 -0.6,0.85 -0.3,0.4 -0.3,0.7 l 0.45,0.75 0.9,0.9 0.6,1 q 0.25,0.85 -0.3,1.95 l -1.1,1.65 q 0.5,1.1 0.2,1.8"
         fill="#767676"
         fill-rule="evenodd"
         stroke="none"
         id="path4" />
      <path
         d="m 28,24.4 1.75,-0.75 7,-3.75 q 1.75,-0.95 2.7,-0.5 l 1.45,1.45 1.2,1.4 1.3,1.4 2.35,3.15 2.05,3.4 q 0.9,1.55 0.85,2.3 -0.05,0.95 -1.1,2.2 l -1.2,1.45 h 1 l 1.55,0.15 q 1.85,0.45 2.65,1.65 0.9,1.4 0.2,3.3 -0.6,1.45 -2.2,2.6 -1.55,1.2 -3.85,1.9 l -4.3,0.9 q -12.3,1.7 -24,-0.9 -2.75,-0.55 -4.15,-1.55 -0.95,-0.7 -1.45,-1.7 -0.55,-1.1 -0.35,-2.2 0.4,-1.75 2.5,-2.95 1.65,-0.95 3.45,-1.25 -0.65,-0.95 -0.75,-1.7 -0.1,-1.1 1.1,-2.9 l 3.4,-5.05 Q 22.1,25.1 22.8,24.7 l 2.55,-0.3 H 28 m 35.95,30.65 -1.3,-0.3 Q 62.1,54.4 61.45,53.35 60.75,51.9 60,49.35 L 58.75,45.3 58.05,43.35 57.85,42.5 Q 56.35,38.3 56.1,38.3 L 54.6,38.15 54,37.9 l -0.7,-0.6 -0.6,-0.75 -0.45,-2 -0.25,-0.3 -0.05,-0.8 q 0.2,-0.55 0.75,-0.4 l 0.55,0.65 0.4,0.9 0.35,0.65 q 1.6,1.65 1.15,-0.65 L 54.4,31.65 V 31.3 q 0.1,-0.35 0.55,-0.35 L 55,30.85 q 0.35,0.1 0.6,0.35 l 0.3,0.55 1.85,3.6 0.2,0.25 0.15,-0.1 0.25,-0.15 L 58.2,35 58,34.5 57.7,33.8 57.1,32.3 q -0.05,-0.5 0.25,-0.65 0.2,-0.25 0.65,-0.2 l 0.7,0.25 0.85,1.2 0.45,1.1 0.4,1.75 -0.05,0.6 -0.35,0.5 -0.7,0.65 -0.6,0.25 -0.25,0.05 3.8,6.7 1.75,3.4 v 7.15 H 63.95 M 43.2,39.7 q -1.8,1.8 -2.6,2.2 -1.35,0.65 -4.1,0.65 L 31,42.25 23.15,41.7 q -1.25,-0.1 -1.8,-0.4 -0.75,-0.4 -1.5,-1.55 l -1.35,-2 q -2.2,0.6 -4.15,2.3 Q 13.8,40.6 13.9,41 l 0.5,0.65 q 2.4,1.6 6.75,2.35 10.35,1.75 20.5,0.2 4.9,-0.65 7.15,-2.65 l 0.8,-1.15 q 0.3,-0.7 -0.1,-1.2 -0.35,-0.5 -1.6,-0.6 l -2.55,-0.2 -0.9,-0.1 -1.25,1.4 M 1.1,53.5 Q 0.65,54.45 0,54.85 l -0.05,0.05 v -6.7 l 2.5,-3.9 1.3,-1.9 6.3,-9.3 q 0.3,-0.8 0.7,-1.1 0.6,-0.45 1.05,-0.35 0.65,-0.15 0.9,0.55 v 1.05 q -0.2,1.3 -1.15,3.35 L 10,40.1 9.05,42.8 7.5,45.5 6.6,46.3 4.7,46.45 1.1,53.5 M 38.8,38.75 40.1,37.8 q 2.65,-2.65 4.75,-5.4 -2.55,-5.2 -6.45,-9.15 l -3.6,5.9 v 0.2 l -0.1,0.4 -0.1,0.3 -0.05,0.4 0.05,0.15 2.45,5.85 1.05,2.5 0.7,-0.2 m -15,-10.05 -3.55,5.3 2.9,4 7.1,0.4 6.15,0.5 q -1.5,-4.15 -3,-7.3 l -0.1,-0.25 -0.2,0.05 -2.65,0.3 -2.2,0.15 -1.2,0.25 -1.8,-0.05 0.3,-0.35 0.3,-0.1 0.1,-0.15 0.3,-0.15 7,-2.3 h 0.05 l 0.05,-0.05 1.6,-1.85 2.95,-4.15 q -4,1.85 -7.35,3.9 -1.4,0.85 -2.15,1 l -1.5,0.1 -1.5,-0.15 -0.95,0.2 q -0.35,0.15 -0.65,0.7"
         fill="#000000"
         fill-rule="evenodd"
         stroke="none"
         id="path5" />
    </g>
    <g
       id="shape2"
       transform="translate(1.5,1.5)">
      <path
         d="M 0,23.8 V 0 H 64.1 V 23.8 57.55 H 0 Z"
         fill="none"
         stroke="#000000"
         stroke-linecap="round"
         stroke-linejoin="round"
         stroke-width="3"
         id="path6" />
    </g>
  </defs>
</svg>
