<?xml version="1.0" encoding="UTF-8" standalone="no"?>
<svg
   ffdec:objectType="frame"
   height="60.549999"
   width="67.099998"
   version="1.1"
   id="svg8"
   sodipodi:docname="243.svg"
   xmlns:inkscape="http://www.inkscape.org/namespaces/inkscape"
   xmlns:sodipodi="http://sodipodi.sourceforge.net/DTD/sodipodi-0.dtd"
   xmlns:xlink="http://www.w3.org/1999/xlink"
   xmlns="http://www.w3.org/2000/svg"
   xmlns:svg="http://www.w3.org/2000/svg"
   xmlns:ffdec="https://www.free-decompiler.com/flash">
  <sodipodi:namedview
     id="namedview8"
     pagecolor="#ffffff"
     bordercolor="#000000"
     borderopacity="0.25"
     inkscape:showpageshadow="2"
     inkscape:pageopacity="0.0"
     inkscape:pagecheckerboard="0"
     inkscape:deskcolor="#d1d1d1"
     fit-margin-top="5"
     fit-margin-left="5"
     fit-margin-right="5"
     fit-margin-bottom="5" />
  <g
     transform="translate(1.5,1.5)"
     id="g3">
    <use
       ffdec:characterId="516"
       height="57.549999"
       width="64.099998"
       xlink:href="#shape0"
       id="use1" />
    <use
       ffdec:characterId="748"
       height="57.900002"
       width="64.099998"
       xlink:href="#shape1"
       id="use2" />
    <use
       ffdec:characterId="518"
       height="60.549999"
       transform="translate(-1.5,-1.5)"
       width="67.099998"
       xlink:href="#shape2"
       id="use3" />
  </g>
  <defs
     id="defs8">
    <g
       id="shape0">
      <path
         d="M 53.6,0 H 64.1 V 57.55 H 53.6 28.25 0 V 0 H 28.25 53.6 V 57.55 0 M 28.25,0 V 57.55 0"
         fill="#ffffff"
         fill-rule="evenodd"
         stroke="none"
         id="path3" />
    </g>
    <g
       id="shape1">
      <path
         d="m 28.35,57.55 -0.25,-0.4 -0.4,-0.75 -4.6,-9 -0.5,-0.95 -2.5,-4.95 -0.95,0.05 -0.9,0.05 h -0.4 l -2.5,0.15 -0.3,0.05 H 13.95 13.7 L 12.35,41.85 10.7,42 8,42.1 5.55,42.25 H 5.1 L 4.55,42.3 H 4.05 3.3 3.2 L 2.9,42.35 2.55,42.25 2.2,42.3 H 1.9 L 1.7,42.25 H 1.55 l -0.2,-0.1 -0.1,-0.1 q -0.15,0 -0.2,-0.15 H 0.95 L 0.8,41.85 0.7,41.8 0.6,41.6 0.5,41.5 0.4,41.45 V 41.3 L 0.3,41.2 V 41.1 L 0.2,41.05 0.15,41 0.2,40.95 0.15,40.8 0.2,40.7 V 40.45 L 0.15,40.25 V 40.1 40 L 0.2,39.85 H 0.15 L 0.2,39.75 0.25,39.6 H 0.3 L 0.4,39.45 0.45,39.3 0.5,39.2 V 39.1 H 0.45 0.35 L 0.25,39.05 0.1,38.95 V 36 l 0.05,-0.05 0.2,-0.3 0.2,-0.1 0.1,-0.2 0.3,-0.2 0.6,-0.4 L 1.9,34.6 2.2,34.3 2.65,34.05 4,33.1 4.5,32.85 5.25,32.35 q 4,-2.6 7.8,-4.95 L 11.95,25.25 11.55,24.3 11.15,23.6 10.9,22.95 9.15,19.55 7.3,15.95 6,13.4 5.8,13.1 5.25,11.9 5.1,11.7 4.4,10.25 3.5,8.55 2.05,5.8 0.75,3.2 0.5,2.7 0.2,2.15 0.1,1.95 V 0.4 h 6.8 l 1.15,0.75 2.75,1.75 1.7,1.05 1.35,0.9 0.2,0.2 1.2,0.7 0.3,0.15 2.5,1.6 3.45,2.3 q 1.7,1.1 3.45,2.05 l 0.55,0.4 0.7,0.45 q 0.5,0.35 0.95,0.5 l 2.95,1.85 1.35,0.85 0.55,-0.3 0.55,0.3 1.35,-0.85 2.95,-1.85 0.95,-0.5 0.7,-0.45 0.55,-0.4 3.45,-2.05 3.45,-2.3 2.5,-1.6 0.3,-0.15 q 0.55,-0.4 1.2,-0.7 l 0.2,-0.2 1.35,-0.9 1.7,-1.05 2.75,-1.75 1.2,-0.75 h 6.75 v 1.55 l -0.1,0.2 -0.3,0.55 -0.25,0.5 -1.3,2.6 -1.45,2.75 -0.9,1.7 -0.7,1.45 -0.15,0.2 -0.55,1.2 -0.2,0.3 -1.3,2.55 -1.85,3.6 -1.75,3.4 -0.25,0.65 -0.4,0.7 -0.4,0.95 -1.1,2.15 7.8,4.95 0.75,0.5 0.5,0.25 1.35,0.95 0.45,0.25 0.3,0.3 0.35,0.15 0.6,0.4 0.3,0.2 0.1,0.2 0.2,0.1 0.2,0.3 0.05,0.05 v 2.95 l -0.15,0.1 -0.1,0.05 h -0.1 -0.05 v 0.1 l 0.05,0.1 0.05,0.15 0.1,0.15 h 0.05 l 0.05,0.15 0.05,0.1 H 63.8 L 63.85,40 v 0.1 0.15 l -0.05,0.2 v 0.25 l 0.05,0.1 -0.05,0.15 0.05,0.05 -0.05,0.05 -0.1,0.05 v 0.1 l -0.1,0.1 v 0.15 l -0.1,0.05 -0.1,0.1 -0.1,0.2 -0.1,0.05 -0.15,0.05 h -0.1 l -0.2,0.15 -0.1,0.1 -0.2,0.1 H 62.3 l -0.2,0.05 h -0.3 l -0.35,-0.05 -0.35,0.1 -0.3,-0.05 h -0.1 -0.75 -0.5 L 58.9,42.25 H 58.45 L 56,42.1 53.3,42 51.65,41.85 50.3,41.8 h -0.25 -1.1 l -0.3,-0.05 -2.5,-0.15 h -0.4 l -0.9,-0.05 -0.95,-0.05 -2.5,4.95 -0.5,0.95 -4.6,9 -0.4,0.75 -0.2,0.4 -0.05,0.05 -0.15,0.3 h -6.95 l -0.2,-0.3 v -0.05 m 21,-34.35 0.45,-0.9 0.45,-0.75 0.25,-0.55 1.75,-3.45 1.85,-3.6 1.25,-2.6 0.15,-0.3 0.5,-1.2 0.15,-0.25 0.7,-1.4 0.9,-1.75 1.25,-2.55 -1.55,0.95 -2.75,1.6 -1.65,1.1 -1.4,0.9 -0.3,0.15 Q 50.7,8.85 50.2,9.25 l -0.3,0.1 -2.5,1.6 -3.5,2.2 -3.5,2.15 -0.5,0.25 -0.75,0.65 -0.8,0.5 -2.3,1.4 0.65,0.45 11.4,7.05 1.25,-2.4 m -1.65,10.6 -1.95,4.05 h 0.55 l 2.45,0.1 0.3,-0.1 1.1,-0.05 0.25,0.05 1.35,0.1 1.7,0.05 2.6,0.05 2.5,0.05 0.5,0.1 h 0.5 0.45 l 0.8,0.05 h 0.1 L 61.2,38.2 61.55,38.3 61.1,38 60.65,37.95 60.35,37.7 59.95,37.45 58.6,36.65 58,36.45 57.35,35.9 49.15,30.95 47.7,33.8 M 44.95,31.75 46.3,29.1 35.2,22.05 32.55,20.4 32,20.75 31.45,20.4 28.8,22.05 17.7,29.1 19.05,31.75 22,37.6 24.5,37.55 h 0.45 l 0.8,-0.05 0.85,-0.05 2.85,-0.2 2.55,-0.05 2.55,0.05 2.85,0.2 0.85,0.05 0.8,0.05 H 39.5 L 42,37.6 44.95,31.75 M 16.3,33.8 14.85,30.95 6.65,35.9 6,36.45 5.4,36.65 4.05,37.45 3.65,37.7 3.35,37.95 2.9,38 Q 2.7,38.1 2.45,38.3 L 2.8,38.2 3.1,38.25 H 3.2 L 4,38.2 h 0.45 0.5 l 0.5,-0.1 2.5,-0.05 2.6,-0.05 1.7,-0.05 1.35,-0.1 0.25,-0.05 1.1,0.05 0.3,0.1 2.45,-0.1 h 0.55 L 16.3,33.8 m -1.65,-10.6 1.25,2.4 11.4,-7.05 0.65,-0.45 -2.3,-1.4 -0.8,-0.5 -0.75,-0.65 -0.5,-0.25 -3.5,-2.15 -3.5,-2.2 -2.5,-1.6 -0.3,-0.1 Q 13.3,8.85 12.65,8.6 L 12.35,8.45 10.95,7.55 9.3,6.45 6.55,4.85 5,3.9 6.25,6.45 7.15,8.2 7.85,9.6 8,9.85 l 0.5,1.2 0.15,0.3 1.25,2.6 1.85,3.6 1.75,3.45 0.25,0.55 0.45,0.75 0.45,0.9 m 17.4,34.25 0.2,-0.45 0.7,-1.4 0.2,-0.55 0.4,-0.75 4.5,-9.05 0.5,-0.95 1.55,-3 H 39.45 38.9 38.2 L 37.35,41.35 34.5,41.25 32,41.1 29.5,41.25 26.65,41.35 25.8,41.3 H 25.1 24.55 23.9 l 1.55,3 0.5,0.95 4.5,9.05 0.4,0.75 0.2,0.55 0.7,1.4 0.2,0.45 0.05,0.1 0.05,-0.1"
         fill="#999999"
         fill-rule="evenodd"
         stroke="none"
         id="path4" />
      <path
         d="m 35.7,57.55 0.2,-0.4 0.4,-0.75 4.6,-9 0.5,-0.95 2.5,-4.95 0.95,0.05 0.9,0.05 h 0.4 l 2.5,0.15 0.3,0.05 h 1.1 0.25 l 1.35,0.05 1.65,0.15 2.7,0.1 2.45,0.15 h 0.45 l 0.55,0.05 h 0.5 0.75 0.1 l 0.3,0.05 0.35,-0.1 0.35,0.05 h 0.3 l 0.2,-0.05 h 0.15 l 0.2,-0.1 0.1,-0.1 0.2,-0.15 h 0.1 l 0.15,-0.05 0.1,-0.05 0.1,-0.2 0.1,-0.1 0.1,-0.05 V 41.3 l 0.1,-0.1 V 41.1 L 63.8,41.05 63.85,41 63.8,40.95 63.85,40.8 63.8,40.7 v -0.25 l 0.05,-0.2 V 40.1 40 L 63.8,39.85 h 0.05 L 63.8,39.75 63.75,39.6 H 63.7 L 63.6,39.45 63.55,39.3 63.5,39.2 v -0.1 h 0.05 0.1 l 0.1,-0.05 0.15,-0.1 V 36 l -0.05,-0.05 -0.2,-0.3 -0.2,-0.1 -0.1,-0.2 -0.3,-0.2 -0.6,-0.4 L 62.1,34.6 61.8,34.3 61.35,34.05 60,33.1 l -0.5,-0.25 -0.75,-0.5 -7.8,-4.95 1.1,-2.15 0.4,-0.95 0.4,-0.7 0.25,-0.65 1.75,-3.4 1.85,-3.6 1.3,-2.55 0.2,-0.3 0.55,-1.2 0.15,-0.2 0.7,-1.45 0.9,-1.7 1.45,-2.75 1.3,-2.6 0.25,-0.5 0.3,-0.55 0.1,-0.2 V 0.4 h -6.75 l -1.2,0.75 -2.75,1.75 -1.7,1.05 -1.35,0.9 -0.2,0.2 q -0.65,0.3 -1.2,0.7 l -0.3,0.15 -2.5,1.6 -3.45,2.3 -3.45,2.05 -0.55,0.4 -0.7,0.45 -0.95,0.5 L 33.9,15.05 32.55,15.9 32,15.6 31.45,15.9 30.1,15.05 27.15,13.2 Q 26.7,13.05 26.2,12.7 l -0.7,-0.45 -0.55,-0.4 Q 23.2,10.9 21.5,9.8 L 18.05,7.5 15.55,5.9 15.25,5.75 14.05,5.05 13.85,4.85 12.5,3.95 10.8,2.9 8.05,1.15 6.9,0.4 H 0.1 v 1.55 l 0.1,0.2 0.3,0.55 0.25,0.5 1.3,2.6 1.45,2.75 0.9,1.7 0.7,1.45 0.15,0.2 0.55,1.2 0.2,0.3 1.3,2.55 1.85,3.6 1.75,3.4 0.25,0.65 0.4,0.7 0.4,0.95 1.1,2.15 q -3.8,2.35 -7.8,4.95 L 4.5,32.85 4,33.1 2.65,34.05 2.2,34.3 l -0.3,0.3 -0.35,0.15 -0.6,0.4 -0.3,0.2 -0.1,0.2 -0.2,0.1 -0.2,0.3 L 0.1,36 v 2.95 l 0.15,0.1 0.1,0.05 h 0.1 0.05 v 0.1 L 0.45,39.3 0.4,39.45 0.3,39.6 H 0.25 L 0.2,39.75 0.15,39.85 H 0.2 L 0.15,40 v 0.1 0.15 l 0.05,0.2 V 40.7 L 0.15,40.8 0.2,40.95 0.15,41 0.2,41.05 0.3,41.1 v 0.1 l 0.1,0.1 v 0.15 l 0.1,0.05 0.1,0.1 0.1,0.2 0.1,0.05 0.15,0.05 h 0.1 q 0.05,0.15 0.2,0.15 l 0.1,0.1 0.2,0.1 H 1.7 l 0.2,0.05 h 0.3 l 0.35,-0.05 0.35,0.1 0.3,-0.05 h 0.1 0.75 0.5 L 5.1,42.25 H 5.55 L 8,42.1 10.7,42 12.35,41.85 13.7,41.8 h 0.25 1.1 l 0.3,-0.05 2.5,-0.15 h 0.4 l 0.9,-0.05 0.95,-0.05 2.5,4.95 0.5,0.95 4.6,9 0.4,0.75 0.25,0.4 H 0 V 0 H 64.1 V 57.55 H 35.7 M 44.95,31.75 42,37.6 39.5,37.55 H 39.05 L 38.25,37.5 37.4,37.45 34.55,37.25 32,37.2 l -2.55,0.05 -2.85,0.2 -0.85,0.05 -0.8,0.05 H 24.5 L 22,37.6 19.05,31.75 17.7,29.1 28.8,22.05 31.45,20.4 32,20.75 l 0.55,-0.35 2.65,1.65 11.1,7.05 -1.35,2.65 m 2.75,2.05 1.45,-2.85 8.2,4.95 0.65,0.55 0.6,0.2 1.35,0.8 0.4,0.25 0.3,0.25 0.45,0.05 0.45,0.3 -0.35,-0.1 -0.3,0.05 H 60.8 L 60,38.2 h -0.45 -0.5 l -0.5,-0.1 -2.5,-0.05 -2.6,-0.05 -1.7,-0.05 -1.35,-0.1 -0.25,-0.05 -1.1,0.05 -0.3,0.1 -2.45,-0.1 H 45.75 L 47.7,33.8 m 1.65,-10.6 -1.25,2.4 -11.4,-7.05 -0.65,-0.45 2.3,-1.4 0.8,-0.5 0.75,-0.65 0.5,-0.25 3.5,-2.15 3.5,-2.2 2.5,-1.6 0.3,-0.1 q 0.5,-0.4 1.15,-0.65 l 0.3,-0.15 1.4,-0.9 1.65,-1.1 2.75,-1.6 L 59,3.9 57.75,6.45 56.85,8.2 56.15,9.6 56,9.85 l -0.5,1.2 -0.15,0.3 -1.25,2.6 -1.85,3.6 -1.75,3.45 -0.25,0.55 -0.45,0.75 -0.45,0.9 m -34.7,0 L 14.2,22.3 13.75,21.55 13.5,21 11.75,17.55 9.9,13.95 8.65,11.35 8.5,11.05 8,9.85 7.85,9.6 7.15,8.2 6.25,6.45 5,3.9 l 1.55,0.95 2.75,1.6 1.65,1.1 1.4,0.9 0.3,0.15 q 0.65,0.25 1.15,0.65 l 0.3,0.1 2.5,1.6 3.5,2.2 3.5,2.15 0.5,0.25 0.75,0.65 0.8,0.5 2.3,1.4 -0.65,0.45 -11.4,7.05 -1.25,-2.4 m 1.65,10.6 1.95,4.05 H 17.7 l -2.45,0.1 -0.3,-0.1 -1.1,-0.05 -0.25,0.05 -1.35,0.1 -1.7,0.05 -2.6,0.05 -2.5,0.05 -0.5,0.1 H 4.45 4 L 3.2,38.25 H 3.1 L 2.8,38.2 2.45,38.3 Q 2.7,38.1 2.9,38 l 0.45,-0.05 0.3,-0.25 0.4,-0.25 1.35,-0.8 0.6,-0.2 0.65,-0.55 8.2,-4.95 1.45,2.85 m 15.75,23.65 -0.05,0.1 -0.05,-0.1 -0.2,-0.45 -0.7,-1.4 -0.2,-0.55 -0.4,-0.75 -4.5,-9.05 -0.5,-0.95 -1.55,-3 h 0.65 0.55 0.7 l 0.85,0.05 2.85,-0.1 2.5,-0.15 2.5,0.15 2.85,0.1 0.85,-0.05 h 0.7 0.55 0.65 l -1.55,3 -0.5,0.95 -4.5,9.05 -0.4,0.75 -0.2,0.55 -0.7,1.4 -0.2,0.45"
         fill="#ffffff"
         fill-rule="evenodd"
         stroke="none"
         id="path5" />
      <path
         d="M 45.75,17.3 45.6,16.25 45.3,15.2 45.05,14.65 q -0.05,-0.3 0.2,-0.55 0.4,-0.15 0.65,0 l 0.35,0.3 q 1.7,2.3 2,4 0.2,1.2 -0.2,2.6 l -1,2 q -0.7,1.25 -0.75,2.05 l -0.05,1 Q 46,26.75 45.3,26.85 44.65,27 44.15,26.45 l -0.3,-0.75 q -0.7,-2.6 0.45,-5 l 0.9,-1.6 q 0.55,-1 0.55,-1.8 m -8,-1.35 q 1.75,-2.05 4.3,-3.55 0.85,-0.35 1.1,-0.35 0.75,0 0.9,0.55 0.15,0.45 -0.6,1.3 -2.2,2.45 -2.05,6.3 0.25,3.2 2.25,6.3 l 2,2.95 q 1.3,1.8 1.85,3.05 1.35,2.55 1.5,5.55 0.15,3 -1.6,7.75 -1.75,4.7 -4.8,6.5 -3.05,1.75 -5.1,2.45 -2.05,0.7 -4.25,0.65 l -3.5,-0.05 q -3.45,0.05 -6.6,-1.65 -3.2,-1.75 -5.1,-4.6 -3.1,-4.7 -2.35,-11.2 0.35,-3.75 2.2,-8.1 l 0.5,-1.85 1.7,-4.3 Q 20.9,21 19.65,19.2 19.1,18.4 19.15,18.05 19.25,17.3 20.1,17.2 l 1.3,0.25 q 1.45,0.65 2.35,1.4 L 24.7,20 q -0.3,-5.8 0.85,-9.65 0.9,-2.8 2.6,-5.05 Q 29.9,2.9 32.4,1.75 L 33.6,1.7 q 0.4,0.4 0.1,1 l -0.65,0.85 q -1.55,1.85 -0.8,4.75 0.35,1.65 2.2,4.6 1.9,3 2.25,4.45 v 0.05 l 1.05,-1.45 m -8.9,12.85 q -2.05,3.35 -2.45,6.7 -0.35,-1.55 -0.25,-2.75 l 0.25,-2.7 -0.2,-1 q -0.35,-0.55 -0.85,-0.4 -0.4,0.05 -0.65,0.65 l -0.15,0.9 q -0.1,1.05 -0.95,3.05 l -1.05,2.4 Q 20.8,39.75 21,42 l 0.7,3.35 0.35,0.7 q 0.25,0.85 0.85,1.7 1.3,2.1 3.1,3.1 1.45,0.8 3.2,1.1 l 3.55,0.35 q 4.05,-0.2 7.7,-3.3 1.95,-1.75 2.65,-3.5 0.5,-1.25 0.5,-3.05 0,-2.15 -0.85,-3.85 Q 41.7,36.35 39.45,35 L 36.7,33.65 q -2.35,-1.4 -3.2,-4.05 l -0.6,-2.65 q -0.3,-1.6 -0.85,-2.5 l -1,-0.9 q -0.85,-0.3 -1.2,0.35 -0.15,0.35 -0.05,0.8 l 0.2,0.75 q 0.2,0.8 -0.25,1.75 l -0.9,1.6 m -5.95,-16.3 -0.55,0.95 -0.05,0.8 0.1,1.45 -0.25,0.45 -0.4,-0.05 -1.2,-1.2 -0.35,-0.65 q -0.35,-0.4 -0.4,-0.95 -0.15,-0.35 0,-1.2 l 0.35,-1.35 0.5,-1.1 L 20.95,8.8 20.7,7.9 20.65,7 21.1,6.5 21.75,6.4 22.45,6.9 Q 23.6,8.3 23.6,10 l -0.1,1.25 -0.6,1.25 m 14.25,17.4 1.65,1.35 h 0.4 q 0.25,-0.1 0.1,-0.35 L 38.85,30.2 38.7,29.9 38.55,29.2 v -1.5 l 0.35,-2.2 -0.2,-1.75 -0.15,-0.6 -0.3,-0.6 q -0.35,-0.5 -1,-0.35 -0.6,0.25 -0.6,0.9 l 0.1,1.05 Q 35.2,27 37.15,29.9 m 1.25,13.7 h 0.1 l 0.25,0.05 0.15,0.15 0.05,0.05 0.1,0.15 0.05,0.05 v 0.05 l 0.05,0.15 0.05,0.05 0.05,0.15 v 0.05 l 0.05,0.05 v 0.15 0.15 0.1 0.1 0.1 0.05 l -0.05,0.1 -0.05,0.1 v 0.1 l -0.05,0.1 -0.05,0.05 v 0.1 l -0.1,0.1 -0.1,0.1 -0.05,0.05 -0.1,0.05 -0.05,0.1 h -0.2 -0.05 -0.4 -0.1 -1.35 -0.4 -0.05 -0.1 -0.1 -0.05 -0.85 L 35,46.25 h -0.1 l -0.25,0.4 -0.15,0.3 -0.4,0.8 -0.25,0.6 -0.2,0.3 -0.35,0.55 -0.1,0.2 -0.5,1.05 -0.1,0.15 v 0.1 l -0.05,0.05 -0.05,0.1 v 0.05 l -0.05,0.05 h -0.1 l -0.05,0.1 H 32.2 L 32.15,51.1 32.1,51.15 32,51.1 v 0.05 H 31.95 L 31.9,51.2 H 31.85 L 31.8,51.15 H 31.75 L 31.7,51.1 31.65,51.15 31.6,51.1 31.55,51.05 H 31.4 v -0.1 H 31.3 L 31.25,50.9 31.2,50.85 v -0.1 L 31.15,50.7 31.1,50.6 h 0.05 L 31.1,50.5 31.05,50.45 30.5,49.4 30.45,49.2 30.1,48.65 l -0.2,-0.3 -0.25,-0.6 -0.4,-0.8 -0.2,-0.3 -0.2,-0.4 h -0.1 L 28.7,46.2 h -0.95 -0.2 -0.1 -0.4 L 26.5,46.15 H 26.3 L 25.9,46.2 H 25.7 25.45 25.4 L 25.2,46.15 25.05,46 24.95,45.95 24.9,45.85 24.85,45.75 24.8,45.65 24.7,45.6 v -0.1 l -0.05,-0.1 v -0.1 -0.15 -0.1 -0.1 l -0.05,-0.1 0.05,-0.1 V 44.7 44.55 44.45 L 24.7,44.3 v -0.05 l 0.05,-0.15 0.1,-0.05 V 44 l 0.1,-0.15 0.1,-0.05 0.1,-0.15 0.1,-0.05 h 0.15 l 0.25,-0.15 1.15,-0.7 0.2,-0.1 0.35,-0.3 -0.4,-1.1 -0.1,-0.25 -0.2,-0.5 -0.95,-2.55 v -0.1 L 25.6,37.6 v -0.15 -0.15 -0.15 -0.1 -0.2 l 0.05,-0.1 v -0.1 l 0.05,-0.1 0.05,-0.05 v -0.15 h 0.05 l 0.05,-0.05 0.05,-0.1 h 0.05 l 0.05,-0.05 0.1,-0.05 0.05,-0.05 0.05,-0.1 h 0.1 0.05 0.15 v 0.1 h 0.1 0.1 l 0.05,0.1 0.05,0.05 0.05,-0.05 h 0.1 l 0.15,0.15 0.05,0.05 1.9,1.25 0.4,0.25 0.2,0.05 2.2,1.5 0.05,0.05 0.05,-0.05 2.2,-1.5 0.15,-0.05 0.45,-0.25 1.85,-1.25 0.1,-0.05 0.15,-0.15 h 0.1 0.05 l 0.05,-0.1 h 0.1 0.05 l 0.05,-0.1 h 0.1 0.1 0.05 l 0.1,0.1 0.05,0.05 0.1,0.05 0.05,0.05 h 0.05 l 0.05,0.1 0.05,0.05 0.05,0.15 0.05,0.05 v 0.1 l 0.05,0.1 v 0.1 0.2 0.1 0.15 0.15 0.15 l -0.05,0.25 -0.05,0.1 -0.9,2.55 -0.2,0.5 -0.1,0.25 -0.35,1.05 0.35,0.35 0.2,0.1 1.15,0.7 0.25,0.15"
         fill="#000000"
         fill-rule="evenodd"
         stroke="none"
         id="path6" />
      <path
         d="m 28.85,28.8 0.9,-1.6 Q 30.2,26.25 30,25.45 L 29.8,24.7 q -0.1,-0.45 0.05,-0.8 0.35,-0.65 1.2,-0.35 l 1,0.9 q 0.55,0.9 0.85,2.5 l 0.6,2.65 q 0.85,2.65 3.2,4.05 L 39.45,35 q 2.25,1.35 3.3,3.6 0.85,1.7 0.85,3.85 0,1.8 -0.5,3.05 -0.7,1.75 -2.65,3.5 -3.65,3.1 -7.7,3.3 L 29.2,51.95 q -1.75,-0.3 -3.2,-1.1 -1.8,-1 -3.1,-3.1 -0.6,-0.85 -0.85,-1.7 L 21.7,45.35 21,42 q -0.2,-2.25 1.55,-6.35 l 1.05,-2.4 q 0.85,-2 0.95,-3.05 l 0.15,-0.9 q 0.25,-0.6 0.65,-0.65 0.5,-0.15 0.85,0.4 l 0.2,1 -0.25,2.7 q -0.1,1.2 0.25,2.75 0.4,-3.35 2.45,-6.7 m 8.3,1.1 Q 35.2,27 36.75,24.15 l -0.1,-1.05 q 0,-0.65 0.6,-0.9 0.65,-0.15 1,0.35 l 0.3,0.6 0.15,0.6 0.2,1.75 -0.35,2.2 v 1.5 l 0.15,0.7 0.15,0.3 0.45,0.7 q 0.15,0.25 -0.1,0.35 H 38.8 L 37.15,29.9 M 38.4,43.6 38.15,43.45 37,42.75 36.8,42.65 36.45,42.3 36.8,41.25 36.9,41 37.1,40.5 38,37.95 38.05,37.85 38.1,37.6 v -0.15 -0.15 -0.15 -0.1 -0.2 -0.1 l -0.05,-0.1 v -0.1 L 38,36.5 37.95,36.35 37.9,36.3 37.85,36.2 H 37.8 l -0.05,-0.05 -0.1,-0.05 -0.05,-0.05 -0.1,-0.1 h -0.05 -0.1 -0.1 l -0.05,0.1 h -0.05 -0.1 L 37,36.15 h -0.05 -0.1 l -0.15,0.15 -0.1,0.05 -1.85,1.25 -0.45,0.25 -0.15,0.05 -2.2,1.5 -0.05,0.05 -0.05,-0.05 -2.2,-1.5 -0.2,-0.05 -0.4,-0.25 -1.9,-1.25 -0.05,-0.05 -0.15,-0.15 h -0.1 L 26.8,36.2 26.75,36.15 26.7,36.05 h -0.1 -0.1 v -0.1 H 26.35 26.3 26.2 L 26.15,36.05 26.1,36.1 26,36.15 25.95,36.2 H 25.9 l -0.05,0.1 -0.05,0.05 h -0.05 v 0.15 l -0.05,0.05 -0.05,0.1 v 0.1 l -0.05,0.1 v 0.2 0.1 0.15 0.15 0.15 l 0.1,0.25 v 0.1 l 0.95,2.55 0.2,0.5 0.1,0.25 0.4,1.1 -0.35,0.3 -0.2,0.1 -1.15,0.7 -0.25,0.15 h -0.15 l -0.1,0.05 -0.1,0.15 -0.1,0.05 -0.1,0.15 v 0.05 l -0.1,0.05 -0.05,0.15 v 0.05 l -0.05,0.15 v 0.1 0.15 0.05 l -0.05,0.1 0.05,0.1 v 0.1 0.1 0.15 0.1 l 0.05,0.1 v 0.1 l 0.1,0.05 0.05,0.1 0.05,0.1 0.05,0.1 0.1,0.05 0.15,0.15 0.2,0.05 h 0.05 0.25 0.2 l 0.4,-0.05 h 0.2 l 0.55,0.05 h 0.4 0.1 0.2 0.95 l 0.05,0.05 h 0.1 l 0.2,0.4 0.2,0.3 0.4,0.8 0.25,0.6 0.2,0.3 0.35,0.55 0.05,0.2 0.55,1.05 0.05,0.05 0.05,0.1 H 31.1 l 0.05,0.1 0.05,0.05 v 0.1 l 0.05,0.05 0.05,0.05 h 0.1 v 0.1 h 0.15 l 0.05,0.05 0.05,0.05 0.05,-0.05 0.05,0.05 h 0.05 l 0.05,0.05 h 0.05 l 0.05,-0.05 H 32 V 51.1 l 0.1,0.05 0.05,-0.05 0.05,-0.05 h 0.1 l 0.05,-0.1 h 0.1 L 32.5,50.9 v -0.05 l 0.05,-0.1 0.05,-0.05 v -0.1 l 0.1,-0.15 0.5,-1.05 0.1,-0.2 0.35,-0.55 0.2,-0.3 0.25,-0.6 0.4,-0.8 0.15,-0.3 0.25,-0.4 H 35 l 0.05,-0.1 h 0.85 0.05 0.1 0.1 0.05 0.4 1.35 0.1 0.4 0.05 0.2 l 0.05,-0.1 0.1,-0.05 0.05,-0.05 0.1,-0.1 0.1,-0.1 v -0.1 l 0.05,-0.05 0.05,-0.1 v -0.1 l 0.05,-0.1 0.05,-0.1 v -0.05 -0.1 -0.1 -0.1 -0.15 -0.15 L 39.25,44.5 V 44.45 L 39.2,44.3 39.15,44.25 39.1,44.1 V 44.05 L 39.05,44 38.95,43.85 38.9,43.8 38.75,43.65 38.5,43.6 h -0.1"
         fill="#ffffff"
         fill-rule="evenodd"
         stroke="none"
         id="path7" />
    </g>
    <g
       id="shape2"
       transform="translate(1.5,1.5)">
      <path
         d="M 0,23.8 V 0 H 64.1 V 23.8 57.55 H 0 Z"
         fill="none"
         stroke="#000000"
         stroke-linecap="round"
         stroke-linejoin="round"
         stroke-width="3"
         id="path8" />
    </g>
  </defs>
</svg>
