<?xml version="1.0" encoding="UTF-8" standalone="no"?>
<svg
   ffdec:objectType="frame"
   height="44.349998"
   width="78.599998"
   version="1.1"
   id="svg12"
   sodipodi:docname="193.svg"
   xmlns:inkscape="http://www.inkscape.org/namespaces/inkscape"
   xmlns:sodipodi="http://sodipodi.sourceforge.net/DTD/sodipodi-0.dtd"
   xmlns:xlink="http://www.w3.org/1999/xlink"
   xmlns="http://www.w3.org/2000/svg"
   xmlns:svg="http://www.w3.org/2000/svg"
   xmlns:ffdec="https://www.free-decompiler.com/flash">
  <sodipodi:namedview
     id="namedview12"
     pagecolor="#ffffff"
     bordercolor="#000000"
     borderopacity="0.25"
     inkscape:showpageshadow="2"
     inkscape:pageopacity="0.0"
     inkscape:pagecheckerboard="0"
     inkscape:deskcolor="#d1d1d1"
     fit-margin-top="5"
     fit-margin-left="5"
     fit-margin-right="5"
     fit-margin-bottom="5" />
  <g
     transform="translate(2,2.05)"
     id="g3">
    <use
       ffdec:characterId="1"
       height="42.700001"
       transform="translate(-1.75,-2)"
       width="76.449997"
       xlink:href="#shape0"
       id="use1" />
    <use
       ffdec:characterId="190"
       height="41.299999"
       transform="translate(-0.4,-0.7)"
       width="76.150002"
       xlink:href="#shape1"
       id="use2" />
    <use
       ffdec:characterId="3"
       height="44.349998"
       transform="translate(-2,-2.05)"
       width="78.599998"
       xlink:href="#shape2"
       id="use3" />
  </g>
  <defs
     id="defs12">
    <g
       id="shape0"
       transform="translate(1.75,2)">
      <path
         d="M 2.8,0 V -0.4 H 5.4 V 0 H 9.7 V 19.45 0 H 20.55 L 19.3,19.45 H 9.7 0.25 V 0 H 2.8"
         fill="#ffffff"
         fill-rule="evenodd"
         stroke="none"
         id="path3" />
      <path
         d="M 0.25,19.45 H 9.7 19.3 L 18.7,28.6 16,28.5 10.95,27.95 9.7,27.8 Q 7.45,27.6 5.85,27.75 4.05,27.9 1.5,28.6 0.75,28.8 0.25,29.15 v -9.7 m 9.45,0 v 8.35 -8.35"
         fill="#121212"
         fill-rule="evenodd"
         stroke="none"
         id="path4" />
      <path
         d="m 9.7,27.8 1.25,0.15 5.05,0.55 2.7,0.1 h 1.05 l 3.75,0.15 q 2.45,0.3 3.6,1.25 0.6,0.5 0.6,1.1 0,0.65 -0.8,1 l -1.3,0.2 -7.15,0.15 -5.6,-0.3 L 9.7,31.75 7.95,31.6 3.1,31.95 0.95,32.3 0.25,32.1 -0.35,31.55 -0.5,31.3 V 29.9 L 0.25,29.15 Q 0.75,28.8 1.5,28.6 4.05,27.9 5.85,27.75 7.45,27.6 9.7,27.8 v 3.95 -3.95"
         fill="#999999"
         fill-rule="evenodd"
         stroke="none"
         id="path5" />
      <path
         d="M 2.8,0 H 0.25 M 9.7,0 H 5.4 m 16.15,0 h 10.7 M 20.55,0 H 9.7"
         fill="none"
         stroke="#666666"
         stroke-linecap="round"
         stroke-linejoin="round"
         stroke-width="4"
         id="path6" />
      <path
         d="m 9.7,-0.4 h 65 V 40.5 H 47.05 L 45.5,40.7 27,40.65 25.95,40.5 H 9.7 -0.5 V -0.4 H 9.7 V 40.5 -0.4"
         fill="#ffffff"
         fill-rule="evenodd"
         stroke="none"
         id="path7" />
    </g>
    <g
       id="shape1"
       transform="translate(0.4,0.7)">
      <path
         d="m 16.15,24.9 h 4.15 l 1,0.05 h 0.85 l 4,0.05 h 4.65 l 4.2,0.05 h 2.4 l 2.55,0.05 h 1.8 l 1.3,0.05 h 2.05 l 3.4,0.05 h 2.2 l 2.7,0.05 h 5.75 L 60.3,25.3 H 61 l 0.85,0.05 h 0.6 l 0.9,0.05 Q 63.5,25 63.9,24.7 L 65,24.1 q 2,-0.8 3.1,-0.9 h 1.4 l -0.25,-0.6 q -0.8,-1.9 -0.7,-2.6 0,-0.55 0.3,-0.85 l 0.35,-0.3 1.1,-0.55 -0.45,-1.65 -0.3,-1.4 L 69.1,13.65 69,13.2 68.5,11.9 q -0.25,-0.6 0.3,-1.15 0.55,-0.45 1.2,-0.2 l 0.75,0.8 0.9,3.2 0.35,3.1 0.75,-0.05 0.6,0.2 0.5,0.7 0.25,1.05 0.1,0.95 q 0.5,0.1 0.8,0.4 0.55,0.65 0.1,1.25 l -0.7,0.55 q 0.75,0.25 1.15,0.95 0.3,0.7 0.1,1.45 l -0.8,0.95 v 0.05 0.1 0.05 0.1 0.1 L 74.8,26.5 v 0.1 l -0.05,0.05 -0.05,0.1 -0.1,0.05 -0.1,0.1 -0.15,0.05 -0.1,0.05 -0.05,0.05 v 0.05 l 0.05,0.1 v 0.05 0.1 0.05 0.1 0.05 0.1 0.05 0.1 0.1 0.05 0.1 0.05 0.1 0.05 0.1 0.05 0.1 0.1 0.05 0.1 0.05 0.1 0.05 0.1 0.05 0.1 0.05 0.1 0.1 0.05 0.1 0.05 0.1 0.05 0.1 0.05 0.1 0.1 0.05 0.1 0.05 0.1 l 0.05,0.05 v 0.1 0.05 0.1 0.1 0.05 0.1 0.05 0.1 0.05 0.1 0.05 0.1 0.05 0.1 0.1 0.05 0.1 0.05 0.1 0.05 0.1 0.05 0.1 0.1 l 0.05,0.05 v 0.1 0.05 0.1 0.05 0.1 l 0.05,0.05 v 0.1 0.1 0.05 0.1 0.05 0.1 0.05 0.1 0.05 0.1 0.1 0.05 0.1 0.05 0.1 0.05 0.1 0.05 0.1 l 0.05,0.05 v 0.1 0.1 0.05 0.1 0.05 0.1 0.05 0.1 0.05 0.1 0.1 0.05 0.1 0.05 0.1 0.05 0.1 0.05 0.1 0.1 0.05 0.1 0.05 0.1 0.05 0.1 0.05 0.1 0.1 0.05 0.1 0.05 0.1 0.05 0.1 0.05 0.1 0.05 0.1 l 0.05,0.1 v 0.05 0.1 0.05 0.1 0.05 l -0.05,0.1 v 0.05 0.1 0.1 0.05 0.1 0.05 0.1 0.05 0.1 0.05 0.1 0.1 0.1 h 0.2 l 0.15,0.05 0.15,0.1 0.1,0.05 v 1.3 H -0.2 V 24.9 H 0.35 L 0.3,24.45 0.25,23 0,20.75 -0.4,18.5 q -0.1,-1.35 0.3,-2.05 0,-0.9 0.8,-1.2 l 1,-0.1 h 0.1 l 1.25,-0.05 0.7,0.2 0.3,-1.2 0.1,-0.2 L 3.5,13.4 Q 3,12.9 2.95,12.25 2.9,11.6 3.3,11.05 3.7,10.5 4.35,10.3 L 5.6,10.45 6.3,11 6.5,10.85 7.7,10.75 Q 8.3,10.9 8.65,11.4 9,11.9 8.9,12.55 8.85,13.2 8.4,13.6 l -0.85,0.45 h -1 L 6.5,14.1 5.65,16.45 7.1,17.65 8,18.9 l 1.5,2.95 0.2,0.25 0.45,0.05 q 1.3,-0.1 2.3,0.7 0.95,0.75 1.3,2.05 h 2.4 m 56.8,-4.5 -0.15,-0.6 -0.2,-0.65 -0.5,0.1 0.05,0.1 0.45,1 0.15,0.35 0.25,-0.1 -0.05,-0.2 m -2.55,-0.25 0.55,1.25 0.2,0.55 0.55,-0.6 -0.65,-1.65 -0.65,0.45 M 48.2,17.4 47.8,17.25 Q 47.3,17.15 47,17.4 l -0.7,0.8 Q 45.4,19.25 44,19 42.65,18.75 42.1,17.5 41.6,16.25 42.25,15.1 L 42.8,14.4 Q 44.05,13 45.35,12.6 L 47.4,12.5 47.65,11.95 49.4,9.1 49.55,8.9 49.4,8.75 48.9,8.15 Q 48.65,7.8 48.55,7.3 48.3,6.2 48.95,5.3 49.6,4.35 50.7,4.2 q 1.15,-0.15 2,0.55 l 0.5,0.6 0.2,0.25 h 0.9 q 0.8,0.15 1.3,0.7 0.5,0.6 0.6,1.4 l -0.35,1.45 q -0.4,0.65 -1.2,0.95 l -1.5,0.05 -0.4,-0.15 -2.5,3 -0.25,0.3 q 0.8,0.5 1.05,1.35 l 0.15,0.8 v 1.05 q -0.15,0.9 -0.9,1.3 -0.9,0.45 -1.6,0 l -0.5,-0.4 m 0.9,16.05 Q 34.15,34.6 19.2,33.3 19.35,32.6 18.55,32.2 L 17.2,31.95 13.3,32.1 q -2,0.3 -2.4,1.35 -0.2,0.55 0.05,1.2 0.25,0.6 0.8,1 0.65,0.5 2.35,0.8 l 12.4,1.25 q 5.3,0.2 12.55,0 11.35,-0.3 17.65,-1.65 1.5,-0.3 2.3,-0.8 1.3,-0.8 1.2,-2 0,-1.15 -1.3,-1.9 -0.8,-0.45 -2.35,-0.55 l -4.95,0.25 q -3,0.3 -3.7,1.7 l 1.2,0.7"
         fill="#767676"
         fill-rule="evenodd"
         stroke="none"
         id="path8" />
      <path
         d="m 49.1,33.45 -1.2,-0.7 q 0.7,-1.4 3.7,-1.7 l 4.95,-0.25 q 1.55,0.1 2.35,0.55 1.3,0.75 1.3,1.9 0.1,1.2 -1.2,2 -0.8,0.5 -2.3,0.8 -6.3,1.35 -17.65,1.65 -7.25,0.2 -12.55,0 L 14.1,36.45 q -1.7,-0.3 -2.35,-0.8 -0.55,-0.4 -0.8,-1 Q 10.7,34 10.9,33.45 11.3,32.4 13.3,32.1 l 3.9,-0.15 1.35,0.25 q 0.8,0.4 0.65,1.1 14.95,1.3 29.9,0.15"
         fill="#ffffff"
         fill-rule="evenodd"
         stroke="none"
         id="path9" />
      <path
         d="M 16.95,26.2 15.7,25.3 q -0.65,-1.05 -0.15,-2.25 0.4,-0.95 1.6,-1.65 l 1.25,-0.8 0.65,-0.95 1.6,-2.65 q 2.3,-3.35 5.95,-5.4 3.65,-2.1 7.7,-2.4 4.45,-0.25 7.7,1.6 1.75,1 3,2.6 l 1.25,2.3 0.45,0.25 0.2,0.15 q 1.85,-0.85 4.05,-0.75 1.8,0.1 3.3,0.85 l 0.95,-1.15 2.5,-2.7 0.25,-0.25 -0.2,-0.3 -0.25,-0.5 -0.2,-0.6 -0.05,-0.5 q 0,-0.8 0.5,-1.55 0.45,-0.7 1.2,-1.05 L 60.5,7.35 q 0.85,0.1 1.5,0.6 l 0.65,0.75 0.45,1.35 0.4,0.05 q 1.05,0.25 1.65,1.05 l 0.35,0.65 0.2,0.6 q 0.35,1.5 -0.75,2.6 -1.05,1.15 -2.55,0.9 -1.15,-0.2 -1.8,-0.95 l -1.2,0.9 -1.65,1.35 -1.2,1.05 0.5,1.15 q 0.6,1.75 0.05,3.65 -0.45,1.45 -1.7,3.25 l -1.35,1.6 q 1.15,0.65 1.55,1.55 l 0.35,1.4 H 56 L 56.2,31 q 0.65,0.1 0.95,0.4 0.45,0.4 0.45,1.1 -0.05,0.7 -0.5,1.15 -0.7,0.7 -2.25,1 L 49.6,35.45 49.15,35.5 48,35.65 42.9,35.9 h -0.3 l -1.4,0.05 H 40.7 40.55 39.35 38.6 37.2 Q 28.75,36 24,35.7 L 23.1,35.65 16.65,35 Q 13.9,34.5 13.55,32.9 13.2,31.45 14.7,30.2 15.65,29.45 16.6,29.45 16.55,28.4 17,27.5 l 0.7,-1 -0.75,-0.3 m 47.25,-4.65 4.3,9.6 0.45,1.25 0.25,0.2 1.05,1.45 1,1.5 q 0.3,-2.1 1.75,-3.55 0.65,-0.65 1.2,-0.6 l 0.75,0.45 0.1,0.2 v 0.8 l -0.2,0.5 -0.3,0.95 0.05,1.05 0.15,1.35 0.15,0.65 0.15,0.3 V 40.6 H 69.2 l -0.1,-0.2 -0.1,-0.3 -0.35,0.2 -0.3,0.3 h -15.1 l -0.1,-0.2 Q 53,39.7 53.4,39.1 q 0.4,-0.45 1.4,-0.75 l 1.7,-0.1 0.85,0.5 0.3,0.3 1.2,-0.85 0.65,-0.25 0.75,-0.15 3.95,0.15 q 0.5,0.15 1,0.55 l 0.05,-0.05 Q 65.8,38 66.75,37.8 l 1.15,-0.2 q -0.5,-1.45 -0.7,-2.85 l -1.3,-0.2 q -0.75,-0.4 -1.25,-1.25 l -0.7,-1.6 q -1.45,-3.15 -1.85,-4.85 -0.4,-1.5 -0.4,-4.05 -0.1,-1 0.2,-1.6 0.5,-0.95 1.3,-0.75 0.6,0.1 1,1.1 M 7.15,33.35 6.85,35.2 q 1.25,0.25 2.1,1.3 l 0.35,0.3 0.35,0.1 2.4,0.4 q 0.9,0.25 1.45,0.8 0.7,0.7 0.6,1.5 l -0.4,0.75 -0.4,0.25 h -0.8 l -0.25,-0.05 -2.5,-0.1 -0.2,0.15 H 1.35 L 1.45,40.05 1.4,40 Q 0.65,39.7 0.3,38.85 L 0.05,38.15 -0.2,37.8 v -5.3 q 1,-0.15 1.7,0.3 L 1.85,33.05 3,34.2 4.2,30.6 4.5,29.7 5.5,27.35 3.8,26.7 2.8,25.5 v -0.85 l 0.35,-1.45 1.8,-4 0.4,-0.45 0.65,-0.05 0.25,0.6 -0.1,1.1 -0.25,0.85 -0.8,2.7 v 0.4 l 0.45,0.3 0.1,0.05 0.55,-2.05 1.8,-4.4 0.3,-0.4 0.5,0.05 0.25,0.4 0.1,0.3 -0.05,0.6 -0.4,2.2 v 0.4 l -0.7,3.15 -0.05,0.2 0.7,0.05 0.9,-3.5 0.55,-1.65 0.45,-0.6 0.7,-0.05 0.3,0.55 0.1,1.1 -0.65,3.75 -0.5,1.85 q -0.55,1 -1.4,1.2 L 7.9,27.8 7.15,33.35"
         fill="#000000"
         fill-rule="evenodd"
         stroke="none"
         id="path10" />
      <path
         d="M 25.25,4.4 Q 24.8,3.65 24.9,2.25 l 0.1,-0.5 0.3,-0.6 1.1,-1.45 0.55,-0.3 0.55,0.25 V 0.1 l -0.25,0.45 q -0.55,0.8 -0.7,1.6 V 2.9 l 0.6,0.55 0.95,0.65 q 0.8,0.8 1,2.25 V 7.3 L 28.9,8.65 28.15,9.8 26.85,9.95 Q 26.35,9.75 26.15,9.2 26,8.7 26.2,8.15 L 26.4,7.7 Q 26.85,6.8 26.65,6.1 L 26,5.2 25.25,4.4 M 33.1,3.1 33.8,2.2 34.5,1.6 35,1.05 35.5,0.3 35.4,-0.3 q 0,-0.4 0.4,-0.4 l 0.4,0.55 Q 36.4,0.7 36.1,2 l -0.25,0.85 -0.75,1.3 q -0.3,0.9 0.2,1.65 l 0.4,0.5 q 0.45,0.75 -0.05,1.4 -0.45,0.7 -1.3,0.55 L 33.4,7.7 32.8,6.7 32.55,5.85 32.5,4.75 32.6,4.1 l 0.5,-1 m 9.15,2.05 q 0.85,-1.4 1.4,-1.8 l 0.55,-0.4 0.5,-0.4 q 0.45,-0.5 0.35,-1.1 L 44.75,0.5 q -0.2,-0.65 0.25,-0.95 0.45,-0.35 0.95,0.2 l 0.45,0.95 0.15,0.9 q 0.1,0.9 -0.4,1.85 l -1.3,1.8 q -0.4,0.6 -0.45,1.05 -0.15,0.6 0.15,1.15 l 0.35,0.4 q 0.4,0.55 0.3,1.2 -0.1,0.7 -0.65,1 L 43.3,10.2 42.3,9.45 Q 41.6,8.5 41.8,6.75 L 41.9,5.9 42.25,5.15 M 20.65,8.2 q -0.6,1 -0.85,2.15 -0.1,0.9 0.1,1.25 l 0.85,1.2 q 0.25,0.7 -0.1,1.3 -0.45,0.6 -1.1,0.6 L 18.65,14.5 17.85,13.85 17.3,13.05 16.8,11.9 16.85,10.95 17.4,9.2 Q 17.7,8.4 17.95,8.05 L 18.8,7.2 19.9,6.2 20.45,5.4 V 4.95 L 20.2,4.1 19.9,3.5 Q 19.8,3.1 19.95,2.9 l 0.7,-0.15 0.5,0.5 q 0.6,0.85 0.65,1.85 0.1,1.05 -0.4,1.95 L 20.65,8.2"
         fill="#767676"
         fill-rule="evenodd"
         stroke="none"
         id="path11" />
    </g>
    <g
       id="shape2"
       transform="translate(2,2.05)">
      <path
         d="M -0.5,-0.4 V -0.55 H 75.1 V -0.4 40.8 H -0.5 Z"
         fill="none"
         stroke="#000000"
         stroke-linecap="round"
         stroke-linejoin="round"
         stroke-width="3"
         id="path12" />
    </g>
  </defs>
</svg>
