<?xml version="1.0" encoding="UTF-8" standalone="no"?>
<svg
   ffdec:objectType="frame"
   height="60.549999"
   width="67.099998"
   version="1.1"
   id="svg6"
   sodipodi:docname="200.svg"
   xmlns:inkscape="http://www.inkscape.org/namespaces/inkscape"
   xmlns:sodipodi="http://sodipodi.sourceforge.net/DTD/sodipodi-0.dtd"
   xmlns:xlink="http://www.w3.org/1999/xlink"
   xmlns="http://www.w3.org/2000/svg"
   xmlns:svg="http://www.w3.org/2000/svg"
   xmlns:ffdec="https://www.free-decompiler.com/flash">
  <sodipodi:namedview
     id="namedview6"
     pagecolor="#ffffff"
     bordercolor="#000000"
     borderopacity="0.25"
     inkscape:showpageshadow="2"
     inkscape:pageopacity="0.0"
     inkscape:pagecheckerboard="0"
     inkscape:deskcolor="#d1d1d1"
     fit-margin-top="5"
     fit-margin-left="5"
     fit-margin-right="5"
     fit-margin-bottom="5" />
  <g
     transform="translate(1.5,1.5)"
     id="g3">
    <use
       ffdec:characterId="516"
       height="57.549999"
       width="64.099998"
       xlink:href="#shape0"
       id="use1" />
    <use
       ffdec:characterId="708"
       height="44.849998"
       transform="translate(6.75,8.85)"
       width="41.650002"
       xlink:href="#shape1"
       id="use2" />
    <use
       ffdec:characterId="518"
       height="60.549999"
       transform="translate(-1.5,-1.5)"
       width="67.099998"
       xlink:href="#shape2"
       id="use3" />
  </g>
  <defs
     id="defs6">
    <g
       id="shape0">
      <path
         d="M 53.6,0 H 64.1 V 57.55 H 53.6 28.25 0 V 0 H 28.25 53.6 V 57.55 0 M 28.25,0 V 57.55 0"
         fill="#ffffff"
         fill-rule="evenodd"
         stroke="none"
         id="path3" />
    </g>
    <g
       id="shape1"
       transform="translate(-6.75,-8.85)">
      <path
         d="M 29.6,26.3 28,26 26.65,25.1 Q 25.8,24.35 25.3,24.15 l -1.75,-0.2 q -1.1,-0.1 -1.6,-0.65 L 21.4,22.5 20.7,22 q -0.4,-0.6 0.05,-1.1 l 0.8,-0.85 q 2.9,-2.1 5.75,-4.25 1.65,-1.3 2.8,-1.6 1.6,-0.55 3.3,0 0.7,0.2 1.6,0.75 l 1.5,0.95 2.4,1.3 2.35,1.4 q 1.55,1.15 1.5,2.4 -0.1,1.15 -2.15,2.2 l -5.15,2.75 -2.05,0.45 -0.85,-0.2 -0.8,0.4 -1.05,0.05 -1.1,-0.35 m -2.85,15.15 -0.6,-0.6 -0.65,-0.15 q -1.15,-0.15 -1.6,-1.3 -0.45,0.05 -0.95,-0.3 L 22.1,38.5 21,37.85 Q 19.75,37 19.35,34.65 l -0.55,-5.8 q -0.1,-1.25 0.2,-1.8 0.65,-0.9 1.85,-0.8 0.85,0.05 1.95,0.7 l 3.25,1.9 q 1.9,1.1 3.35,1.6 1.1,0.3 1.55,0.7 0.8,0.65 1.1,2.65 l 0.1,0.65 0.55,-1.15 q -0.4,-0.2 -0.5,-0.7 -0.1,-0.55 0.15,-0.95 0.35,-0.6 1.4,-1.2 l 7.4,-3.65 q 0.8,-0.4 1.35,-0.4 0.8,-0.1 1.45,0.55 0.6,0.7 0.7,2.45 l 0.2,4.55 q 0.1,1.75 -0.3,2.5 l -1.35,1.4 1.55,-0.5 q 0.8,-0.1 1.05,0.3 0.4,0.65 -0.75,1.45 l -18.6,13.35 q -1.55,1.15 -2.55,1.25 -0.95,0.1 -2.65,-0.6 -5,-2 -12.35,-5.95 -1.55,-0.8 -1.95,-1.65 -0.3,-0.7 -0.1,-1.6 0.1,-0.5 0.55,-1.65 0.7,-2 0.7,-4.1 0,-2.15 0.5,-2.9 0.55,-0.75 2.35,-1.3 l 3.35,-1.05 1.8,-0.4 q 1.1,0 1.7,0.65 0.45,0.55 0.4,1.35 -0.05,0.75 -0.5,1.35 l -0.05,0.1 1.1,0.85 q 0.7,0.7 0.55,1.55 0.5,0.1 1,0.6 l 0.8,0.9 2.15,1.25 0.7,0.3 0.8,-0.1 q 1.3,-0.1 2,0.85 l 0.65,0.7 H 28 l -1.25,-1.4 m 4.5,1.8 -0.35,0.2 0.45,0.95 0.05,0.35 2.15,-1.4 0.6,-0.35 Q 33.3,42.5 32.7,41.6 l -0.25,-0.5 q -0.2,1.45 -1.2,2.15"
         fill="#999999"
         fill-rule="evenodd"
         stroke="none"
         id="path4" />
      <path
         d="m 16.05,18.65 q 0.35,-0.7 1.2,-1.3 1.35,-1.1 3.6,-2.45 l 3.8,-2.2 q 4.1,-2.65 5.2,-3.2 Q 31,8.95 31.9,8.85 H 32 32.1 V 8.9 q 0.9,0.05 2.05,0.6 1.1,0.55 5.2,3.2 l 3.8,2.2 q 2.25,1.35 3.6,2.45 0.85,0.6 1.2,1.3 l 0.2,0.9 0.25,16.15 -0.35,1.25 q -0.45,0.85 -1.5,1.75 -1.9,1.6 -5.5,3.6 l -5.7,3.3 q -1.6,1.05 -2.4,1.05 h -1.9 q -0.8,0 -2.4,-1.05 l -5.7,-3.3 q -3.6,-2 -5.5,-3.6 -1.05,-0.9 -1.5,-1.75 l -0.35,-1.25 0.25,-16.15 0.2,-0.9 m 19.5,10.35 -2.3,0.85 v 0.05 0.1 0.1 0.1 0.15 0.1 0.15 0.1 0.1 0.1 0.15 0.1 0.15 0.1 0.1 0.1 0.15 0.1 0.15 0.1 0.1 0.1 0.15 0.1 0.1 0.1 0.15 0.1 0.15 0.1 0.1 0.1 0.15 0.1 0.15 0.1 0.1 0.1 0.15 0.1 0.15 0.1 0.1 0.1 0.15 0.1 0.15 l 0.05,0.1 v 0.1 0.1 0.15 0.1 0.15 0.1 0.1 0.1 0.15 0.1 0.1 0.1 0.15 0.1 0.15 0.1 0.1 0.1 0.15 0.1 0.15 0.1 0.1 0.1 l 0.05,0.05 v 0.1 0.1 0.15 0.1 0.1 0.1 0.15 0.1 0.15 0.1 0.1 0.1 0.15 0.1 0.15 0.1 l 0.05,0.05 v 0.05 0.1 0.15 0.1 0.1 l 0.05,0.1 v 0.15 0.1 0.15 0.1 0.1 0.1 0.15 0.1 0.15 0.1 0.1 0.1 0.1 l 4.75,-2.7 5.25,-3 q 1.1,-0.8 1.4,-1.45 l 0.2,-1.35 v -9.9 L 45.4,23.5 q -2.7,1.85 -9.85,5.5 m 8.3,-1.4 q -0.1,0.6 -0.8,0.85 l -0.9,0.1 -0.75,-0.35 q -0.35,-0.3 -0.35,-0.8 0,-0.45 0.3,-0.8 l 0.8,-0.45 q 0.5,-0.15 1,0 l 0.6,0.55 q 0.3,0.45 0.1,0.9 m -2.5,3.85 -0.15,-0.55 0.1,-0.4 q 0.1,-0.65 1,-0.95 l 0.9,-0.05 q 0.55,0.2 0.85,0.5 0.55,0.6 -0.05,1.4 -0.45,0.75 -1.3,0.6 l -1.05,-0.25 -0.3,-0.3 m 1.25,4.15 -0.4,-0.2 q -0.9,-0.5 -0.5,-1.4 0.35,-0.9 1.35,-0.95 0.6,0 1.05,0.3 0.45,0.35 0.5,0.85 0,0.55 -0.4,0.9 -0.4,0.45 -1,0.55 L 42.6,35.6 M 27.45,16.95 q 0.2,-0.25 0.5,-0.4 0.2,-0.15 0.4,-0.15 0.7,-0.25 1.35,0.35 l 0.45,0.8 L 30,18.5 q -0.4,0.85 -1.35,0.75 -0.95,0 -1.2,-0.8 -0.3,-0.45 -0.2,-1.05 l 0.2,-0.45 m -1.1,2.9 q 0,0.75 -0.4,1.15 -0.55,0.65 -1.35,0.5 -0.85,-0.1 -1.2,-0.85 -0.5,-0.9 0.2,-1.7 0.65,-0.8 1.7,-0.45 0.95,0.3 1.05,1.35 m 13,0.9 Q 38.7,21 38.15,20.5 l -0.5,-0.7 q -0.15,-0.5 0.05,-0.9 0.15,-0.45 0.6,-0.7 l 0.95,-0.2 0.8,0.45 0.4,0.9 -0.3,0.85 q -0.3,0.45 -0.8,0.55 M 27.25,15.5 q -4.7,2.5 -7.05,4.4 3.4,2.3 10.7,6 l 0.7,0.2 0.15,0.1 0.6,-0.1 h 0.05 l 0.7,-0.2 q 7.3,-3.7 10.7,-6 Q 41.45,18 36.75,15.5 L 32.6,13.25 32.1,13.05 H 32 31.9 l -0.5,0.2 -4.15,2.25 m 3.6,0.35 q 0.05,-0.5 0.4,-0.9 0.35,-0.4 0.85,-0.45 l 0.95,0.2 q 0.45,0.3 0.55,0.8 l 0.05,0.65 -0.15,0.6 -0.55,0.55 -0.85,0.1 -0.55,-0.35 -0.5,-0.5 -0.15,-0.35 -0.05,-0.35 m 3.6,4.8 q 0.2,-0.25 0.5,-0.4 0.2,-0.15 0.4,-0.15 0.7,-0.25 1.35,0.35 l 0.45,0.8 L 37,22.2 q -0.4,0.85 -1.35,0.75 -0.95,0 -1.2,-0.8 -0.3,-0.45 -0.2,-1.05 l 0.2,-0.45 M 30.85,24 v -0.45 q 0.15,-1.05 1.2,-1.2 1,-0.2 1.5,0.7 0.25,0.5 0.15,1.05 -0.15,0.6 -0.65,0.9 L 32,25.15 31.05,24.55 30.85,24 m -2.4,5 Q 21.3,25.35 18.6,23.5 l 0.35,0.25 v 9.9 l 0.2,1.35 1.4,1.45 5.25,3 4.75,2.7 v -0.1 -0.1 -0.1 -0.1 -0.15 -0.1 -0.15 -0.1 -0.1 -0.1 -0.15 -0.1 -0.15 l 0.05,-0.1 v -0.1 -0.1 -0.15 -0.1 -0.05 L 30.65,40 v -0.1 -0.15 -0.1 -0.15 -0.1 -0.1 -0.1 -0.15 -0.1 -0.15 -0.1 -0.1 -0.1 -0.15 -0.1 -0.1 L 30.7,38.1 v -0.1 -0.1 -0.1 -0.15 -0.1 -0.15 -0.1 -0.1 -0.1 -0.15 -0.1 -0.15 -0.1 -0.1 -0.1 -0.15 -0.1 -0.1 -0.1 -0.15 -0.1 -0.15 -0.1 -0.1 l 0.05,-0.1 V 35.1 35 v -0.15 -0.1 -0.1 -0.1 -0.15 -0.1 -0.15 -0.1 -0.1 -0.1 -0.15 -0.1 -0.15 -0.1 -0.1 -0.1 V 33 32.9 32.75 32.65 32.55 32.45 32.3 32.2 32.1 32 31.85 31.75 31.6 31.5 31.4 31.3 31.15 31.05 30.9 30.8 30.7 30.6 30.45 30.35 30.2 30.1 30 29.9 29.85 L 28.45,29 m -6.95,6.75 -0.6,0.1 q -0.6,0 -1,-0.4 -0.4,-0.35 -0.4,-0.9 0.05,-0.5 0.5,-0.85 0.45,-0.4 1.05,-0.4 1,-0.1 1.35,0.75 0.4,0.9 -0.5,1.45 l -0.4,0.25 m 1.25,-4.3 -0.3,0.35 -1.05,0.35 Q 20.55,32.4 20.1,31.7 19.5,31 20.05,30.3 l 0.85,-0.55 0.9,-0.05 q 0.9,0.25 1,0.85 l 0.1,0.35 -0.15,0.55 m 12.5,1 -0.6,-0.65 q -0.2,-0.45 0,-0.85 l 0.65,-0.7 1,-0.15 0.55,0.2 0.5,0.4 0.25,0.65 -0.35,0.7 -0.55,0.3 -0.7,0.25 -0.45,-0.05 -0.3,-0.1 M 34.6,35.55 34.5,35 34.6,34.65 q 0.1,-0.65 0.95,-0.9 l 0.95,-0.1 0.75,0.5 q 0.6,0.6 0.05,1.35 -0.45,0.75 -1.3,0.65 l -1.05,-0.2 -0.35,-0.4 m -7.1,1.65 1.7,0.1 q 0.85,0.65 0.45,1.5 -0.35,0.9 -1.45,0.95 -0.8,0.1 -1.35,-0.5 -0.55,-0.5 -0.2,-1.25 0.15,-0.45 0.85,-0.8 m 2,-2.25 -0.35,0.35 q -0.45,0.4 -1.05,0.35 -0.85,0.2 -1.3,-0.5 -0.55,-0.65 0.05,-1.35 0.25,-0.35 0.75,-0.55 l 0.95,-0.05 q 0.85,0.2 0.95,0.85 l 0.1,0.35 -0.1,0.55 m -9.25,-7.1 q -0.2,-0.4 0.1,-0.85 l 0.6,-0.6 1,-0.15 0.8,0.4 0.3,0.8 -0.35,0.8 q -0.25,0.3 -0.75,0.45 l -0.9,-0.05 q -0.7,-0.2 -0.8,-0.8 m 8.6,4.05 -0.3,0.15 -0.45,0.05 -0.7,-0.15 -0.55,-0.2 q -0.4,-0.4 -0.35,-0.7 0,-0.4 0.25,-0.7 l 0.5,-0.4 0.55,-0.25 q 0.5,-0.15 1,0 l 0.65,0.65 q 0.2,0.4 0,0.85 l -0.6,0.7 m 7.75,5.7 q 0.7,0.3 0.85,0.75 0.35,0.7 -0.2,1.25 -0.55,0.65 -1.35,0.65 -1.1,0.05 -1.45,-0.8 -0.4,-0.85 0.45,-1.6 0.7,-0.6 1.7,-0.25"
         fill="#000000"
         fill-rule="evenodd"
         stroke="none"
         id="path5" />
    </g>
    <g
       id="shape2"
       transform="translate(1.5,1.5)">
      <path
         d="M 0,23.8 V 0 H 64.1 V 23.8 57.55 H 0 Z"
         fill="none"
         stroke="#000000"
         stroke-linecap="round"
         stroke-linejoin="round"
         stroke-width="3"
         id="path6" />
    </g>
  </defs>
</svg>
