<?xml version="1.0" encoding="UTF-8" standalone="no"?>
<svg
   ffdec:objectType="frame"
   height="60.549999"
   width="67.099998"
   version="1.1"
   id="svg9"
   sodipodi:docname="270.svg"
   xmlns:inkscape="http://www.inkscape.org/namespaces/inkscape"
   xmlns:sodipodi="http://sodipodi.sourceforge.net/DTD/sodipodi-0.dtd"
   xmlns:xlink="http://www.w3.org/1999/xlink"
   xmlns="http://www.w3.org/2000/svg"
   xmlns:svg="http://www.w3.org/2000/svg"
   xmlns:ffdec="https://www.free-decompiler.com/flash">
  <sodipodi:namedview
     id="namedview9"
     pagecolor="#ffffff"
     bordercolor="#000000"
     borderopacity="0.25"
     inkscape:showpageshadow="2"
     inkscape:pageopacity="0.0"
     inkscape:pagecheckerboard="0"
     inkscape:deskcolor="#d1d1d1"
     fit-margin-top="5"
     fit-margin-left="5"
     fit-margin-right="5"
     fit-margin-bottom="5" />
  <g
     transform="translate(1.5,1.5)"
     id="g3">
    <use
       ffdec:characterId="516"
       height="57.549999"
       width="64.099998"
       xlink:href="#shape0"
       id="use1" />
    <use
       ffdec:characterId="773"
       height="59"
       transform="translate(0.05,-0.1)"
       width="64.099998"
       xlink:href="#shape1"
       id="use2" />
    <use
       ffdec:characterId="518"
       height="60.549999"
       transform="translate(-1.5,-1.5)"
       width="67.099998"
       xlink:href="#shape2"
       id="use3" />
  </g>
  <defs
     id="defs9">
    <g
       id="shape0">
      <path
         d="M 53.6,0 H 64.1 V 57.55 H 53.6 28.25 0 V 0 H 28.25 53.6 V 57.55 0 M 28.25,0 V 57.55 0"
         fill="#ffffff"
         fill-rule="evenodd"
         stroke="none"
         id="path3" />
    </g>
    <g
       id="shape1"
       transform="translate(-0.05,0.1)">
      <path
         d="m 34.2,11.75 q -0.85,0.2 -1.05,0.35 l -0.75,0.5 -0.35,0.4 -0.2,0.45 -0.05,0.1 -0.45,0.25 h -0.1 L 30.8,13.55 30.75,13.45 30.55,13 30.2,12.6 29.45,12.1 28.4,11.75 Q 26.5,11.35 25.6,10.65 24.85,10 24.65,9.25 L 24.6,8.3 q 0,-1.8 0.6,-2.4 0.6,-0.65 2.05,-0.75 1.75,-0.1 2.8,0.45 L 31.3,6.65 Q 31.95,5.95 32.55,5.6 33.6,5.05 35.35,5.15 36.8,5.25 37.4,5.9 38,6.5 38,8.3 l -0.05,0.95 q -0.2,0.75 -0.95,1.4 -0.9,0.7 -2.8,1.1"
         fill="#000000"
         fill-rule="evenodd"
         stroke="none"
         id="path4" />
      <path
         d="m 5.35,0 h 5.7 q 2.2,0.5 4.5,1.8 l 2.2,1.45 Q 15.55,3.2 13.45,4 9.5,5.6 6.25,10.25 5,12 4.65,13.35 q -0.45,1.55 0,4.1 0.65,4.1 2,6.05 1.25,1.8 4.1,3.55 l 2.1,1.15 Q 3.5,25 0.05,22.75 v -20 l 2.2,-1.5 Q 3.75,0.4 5.35,0 M 27.2,0 h 8.1 Q 33.15,2.25 31.25,5.1 29.3,2.25 27.2,0 m 24.25,0 h 5.75 q 1.55,0.4 3.05,1.25 1.8,0.9 3.85,3.15 v 17.1 l -1.55,1.2 Q 59.2,24.85 50.25,28 l 1.7,-0.95 Q 54.8,25.3 56.05,23.5 57.4,21.55 58,17.45 58.5,14.9 58,13.35 57.7,12 56.45,10.25 53.2,5.6 49.25,4 47.05,3.15 44.75,3.25 L 46.95,1.8 Q 49.25,0.5 51.45,0 M 64.1,32.15 V 56.4 H 0.05 V 33 q 3.4,1.65 7.1,2.85 l 10.9,2.95 q 6.25,2.1 9.2,6.1 1.2,1.5 1.85,3.35 l 0.55,2.1 0.15,0.4 q 0.25,0.8 0.65,1.1 l 0.8,0.25 0.8,-0.25 0.65,-1.1 q 0,-0.25 0.15,-0.4 l 0.55,-2.1 q 0.65,-1.85 1.85,-3.35 2.9,-4 9.2,-6.1 l 10.9,-2.95 q 4.6,-1.5 8.75,-3.7 m -30.9,-4.3 q -1.25,0.95 -2.05,2.35 -0.8,-1.4 -2.05,-2.35 -1.5,-1.2 -4.8,-2.35 -3.6,-1.25 -4.9,-2.1 l -1.15,-1 -0.7,-1.6 q -0.3,-1.4 -0.2,-1.9 0.1,-0.55 0.7,-1.45 1.2,-1.6 2.2,-2.1 2.3,-1.3 5,0.2 2,1.1 3.5,3.85 0.7,1.2 1.1,1.4 l 1.1,0.15 0.2,-0.05 0.2,0.05 1.1,-0.15 1.1,-1.4 q 1.5,-2.75 3.5,-3.85 2.7,-1.5 5,-0.2 1,0.5 2.2,2.1 l 0.7,1.45 -0.2,1.9 -0.7,1.6 -1.15,1 q -1.3,0.85 -4.9,2.1 -3.3,1.15 -4.8,2.35 m 9.3,-15.9 -4.4,-0.3 q 1.2,-1.2 2.55,-1.95 4.25,-2.35 7.9,-0.3 1.6,0.75 3.45,3.3 0.95,1.4 1.15,2.3 0.15,0.75 -0.35,3 -0.4,1.55 -1.1,2.5 l -1.8,1.6 -2.65,1.4 q 0.5,-1.2 0.8,-3.05 0.3,-1.6 0,-2.6 Q 47.85,17 47.05,15.9 45,12.95 42.5,11.95 m -22.7,0 q -2.5,1 -4.55,3.95 -0.8,1.1 -1,1.95 -0.3,1 0,2.6 0.25,1.7 0.7,2.8 L 12.8,22.1 11,20.5 Q 10.3,19.55 9.9,18 9.4,15.75 9.55,15 q 0.2,-0.9 1.1,-2.3 1.9,-2.55 3.5,-3.3 3.6,-2.05 7.9,0.3 1.4,0.8 2.65,2.1 l -4.9,0.15 m 12,27.4 0.4,-0.6 0.1,-0.25 0.3,-1.25 q 0.4,-1.1 1.1,-2 1.75,-2.35 5.45,-3.6 l 5,-1.3 q -4.8,2.05 -7.45,4.2 -3.3,2.5 -5.45,6.25 Q 29.1,37.05 25.8,34.55 23.05,32.35 18,30.2 l 5.55,1.45 q 3.7,1.25 5.45,3.6 l 1.1,2 0.3,1.25 0.1,0.25 0.35,0.6 0.5,0.2 0.45,-0.2"
         fill="#999999"
         fill-rule="evenodd"
         stroke="none"
         id="path5" />
      <path
         d="M 0.05,2.75 V -0.1 h 5.7 L 5.35,0 q -1.6,0.4 -3.1,1.25 l -2.2,1.5 M 11.05,0 10.6,-0.1 H 27.1 L 27.2,0 q 2.1,2.25 4.05,5.1 1.9,-2.85 4.05,-5.1 l 0.1,-0.1 H 51.9 L 51.45,0 q -2.2,0.5 -4.5,1.8 l -2.2,1.45 q 2.3,-0.1 4.5,0.75 3.95,1.6 7.2,6.25 1.25,1.75 1.55,3.1 0.5,1.55 0,4.1 -0.6,4.1 -1.95,6.05 -1.25,1.8 -4.1,3.55 L 50.25,28 q 8.95,-3.15 12.3,-5.3 l 1.55,-1.2 0.05,-0.05 V 32.1 l -0.05,0.05 q -4.15,2.2 -8.75,3.7 l -10.9,2.95 q -6.3,2.1 -9.2,6.1 -1.2,1.5 -1.85,3.35 l -0.55,2.1 q -0.15,0.15 -0.15,0.4 l -0.65,1.1 -0.8,0.25 -0.8,-0.25 q -0.4,-0.3 -0.65,-1.1 l -0.15,-0.4 -0.55,-2.1 Q 28.45,46.4 27.25,44.9 24.3,40.9 18.05,38.8 L 7.15,35.85 Q 3.45,34.65 0.05,33 V 22.75 Q 3.5,25 12.85,28.2 l -2.1,-1.15 Q 7.9,25.3 6.65,23.5 5.3,21.55 4.65,17.45 4.2,14.9 4.65,13.35 5,12 6.25,10.25 9.5,5.6 13.45,4 15.55,3.2 17.75,3.25 L 15.55,1.8 Q 13.25,0.5 11.05,0 M 57.2,0 56.75,-0.1 h 7.4 V 4.45 L 64.1,4.4 Q 62.05,2.15 60.25,1.25 58.75,0.4 57.2,0 M 42.5,11.95 q 2.5,1 4.55,3.95 0.8,1.1 1,1.95 0.3,1 0,2.6 -0.3,1.85 -0.8,3.05 l 2.65,-1.4 1.8,-1.6 Q 52.4,19.55 52.8,18 53.3,15.75 53.15,15 52.95,14.1 52,12.7 50.15,10.15 48.55,9.4 44.9,7.35 40.65,9.7 39.3,10.45 38.1,11.65 l 4.4,0.3 m -9.3,15.9 q 1.5,-1.2 4.8,-2.35 3.6,-1.25 4.9,-2.1 l 1.15,-1 0.7,-1.6 0.2,-1.9 -0.7,-1.45 q -1.2,-1.6 -2.2,-2.1 -2.3,-1.3 -5,0.2 -2,1.1 -3.5,3.85 l -1.1,1.4 -1.1,0.15 -0.2,-0.05 -0.2,0.05 -1.1,-0.15 q -0.4,-0.2 -1.1,-1.4 -1.5,-2.75 -3.5,-3.85 -2.7,-1.5 -5,-0.2 -1,0.5 -2.2,2.1 -0.6,0.9 -0.7,1.45 -0.1,0.5 0.2,1.9 l 0.7,1.6 1.15,1 q 1.3,0.85 4.9,2.1 3.3,1.15 4.8,2.35 1.25,0.95 2.05,2.35 0.8,-1.4 2.05,-2.35 m 1,-16.1 q 1.9,-0.4 2.8,-1.1 0.75,-0.65 0.95,-1.4 L 38,8.3 Q 38,6.5 37.4,5.9 36.8,5.25 35.35,5.15 33.6,5.05 32.55,5.6 31.95,5.95 31.3,6.65 L 30.05,5.6 Q 29,5.05 27.25,5.15 25.8,5.25 25.2,5.9 24.6,6.5 24.6,8.3 l 0.05,0.95 q 0.2,0.75 0.95,1.4 0.9,0.7 2.8,1.1 l 1.05,0.35 0.75,0.5 0.35,0.4 0.2,0.45 0.05,0.1 0.45,0.25 h 0.1 l 0.45,-0.25 0.05,-0.1 0.2,-0.45 0.35,-0.4 0.75,-0.5 q 0.2,-0.15 1.05,-0.35 m -14.4,0.2 4.9,-0.15 q -1.25,-1.3 -2.65,-2.1 -4.3,-2.35 -7.9,-0.3 -1.6,0.75 -3.5,3.3 -0.9,1.4 -1.1,2.3 -0.15,0.75 0.35,3 0.4,1.55 1.1,2.5 l 1.8,1.6 2.15,1.15 q -0.45,-1.1 -0.7,-2.8 -0.3,-1.6 0,-2.6 0.2,-0.85 1,-1.95 2.05,-2.95 4.55,-3.95 m 12,27.4 -0.45,0.2 -0.5,-0.2 -0.35,-0.6 -0.1,-0.25 -0.3,-1.25 -1.1,-2 Q 27.25,32.9 23.55,31.65 L 18,30.2 q 5.05,2.15 7.8,4.35 3.3,2.5 5.45,6.25 2.15,-3.75 5.45,-6.25 2.65,-2.15 7.45,-4.2 l -5,1.3 q -3.7,1.25 -5.45,3.6 -0.7,0.9 -1.1,2 l -0.3,1.25 -0.1,0.25 -0.4,0.6"
         fill="#ffffff"
         fill-rule="evenodd"
         stroke="none"
         id="path6" />
      <path
         d="m 16.9,18.4 0.15,-0.1 q 3.85,-2.45 6.55,-3.25 4.05,-1.2 7.2,0 1.75,0.65 3.05,2.05 1.3,1.45 1.65,3.2 0.3,1.5 -0.25,3.75 -0.55,2.1 -1.7,3.9 3,-2.25 7.15,-3.15 4.15,-0.85 8.8,-0.1 l 0.5,-0.5 4.1,-2.8 q 0.9,-0.6 1.4,-0.7 l 1,0.1 q 0.5,0.2 0.7,0.65 l 1.45,6.55 0.1,0.35 q 4,3.4 4.75,10.55 0.25,2.4 0,4.3 -0.4,2.5 -1.6,4.6 l -1.65,2.55 0.05,0.1 1.35,5 0.15,2.25 -0.6,0.9 q -0.5,0.4 -1,0.3 -0.45,-0.05 -1.1,-0.7 L 57.5,56.65 56.95,56.3 56.45,56.45 54.4,57.4 53.5,57.7 52.4,57.55 51.45,57.2 50.5,57 49.3,56.95 49.05,56.8 q -4.65,0.95 -9.95,0 l -1.75,-0.35 -0.05,0.2 -0.35,0.45 -0.5,0.25 -1.15,0.2 -0.4,-0.05 -0.2,-0.1 -0.3,0.15 -1,0.3 q -0.65,0 -0.9,-0.55 -0.35,-0.5 -0.1,-1.05 L 33.35,55 31,53.6 Q 26.95,50.75 26.15,46.55 25.9,45.4 25.95,44 L 25.7,43.9 24.8,43.15 24,42.3 22.55,40.7 22.05,40.2 q -0.6,-0.6 -0.7,-1 -0.25,-0.85 0.55,-1.4 0.1,-0.1 0.65,-0.3 l 1.7,-0.85 3.8,-1.3 q 1,-2.2 1.95,-3.55 l -1.2,0.85 Q 23.25,36.6 15.75,40.3 10.65,42.85 1.9,46.55 L 1.8,46.6 0.35,46.65 0.05,46.5 V 44.55 L 0.4,44.3 0.9,44 8.1,40.65 q 1.5,-0.7 2.75,-1.25 l 5.6,-3.1 Q 22.2,33 26.75,29.6 l 2.15,-1.7 -0.55,-0.65 q -0.5,-1.2 0.5,-2.05 0.45,-0.35 1.05,-0.3 0.55,0 0.95,0.3 l 0.85,-2.4 q 0.4,-1.45 0.1,-2.3 -0.55,-1.7 -3.05,-2.2 l -3.4,0.1 Q 23.9,18.7 21.55,20 17.2,22.45 12.3,26.15 L 3.6,33.2 2.95,33.7 2.5,34 2.1,34.35 1.25,35.05 0.7,35.2 0.2,35.05 0.05,34.95 v -3.6 l 0.7,-0.7 Q 9.8,23.05 16.4,18.75 l 0.5,-0.35 m 16.8,25.05 q -0.4,-0.15 -0.75,0.4 -0.2,0.45 -0.05,0.95 0.45,1.95 2.85,2.7 l 4.35,-0.15 q 2.2,-0.85 3.35,-2.85 l 3.2,0.55 q 1.7,-0.15 3.1,-1.05 2.85,-1.8 3.6,-5.4 0.2,-1 -0.15,-1.5 -0.3,-0.55 -1.05,-0.45 -0.7,0.1 -0.95,0.75 -0.2,0.35 -0.25,1.2 l -0.6,1.35 Q 49.2,41.6 47.8,42.15 L 44.5,42 q -0.95,-0.65 -1.35,-0.65 -0.5,0 -0.95,0.55 l -0.55,0.95 q -1.1,1.95 -3.4,2.3 -2.25,0.35 -3.9,-1.3 L 33.7,43.45 M 53.05,32.05 49.9,31.9 49.35,32 q -2.05,0.45 -3.2,0.9 -1.15,0.5 -1.5,1.2 -0.25,0.45 -0.1,1 0.1,0.55 0.5,0.9 L 47,36.05 47.5,35.7 q 0.2,-0.2 0.55,-0.3 1.9,-0.9 3.15,-1.25 l 2.5,-0.65 0.35,-0.55 q 0,-0.4 -0.35,-0.65 -0.15,-0.15 -0.65,-0.25 m -29,-10.9 0.05,-0.5 q 0,-0.2 0.15,-0.45 0.25,-0.45 0.8,-0.65 0.6,-0.2 1.1,0 l 0.8,0.7 q 0.25,0.5 0.15,1.05 l -0.55,0.9 q -0.5,0.35 -1,0.3 -0.55,0 -1,-0.4 -0.4,-0.4 -0.5,-0.95 m 1.7,5.65 -0.45,1.1 -0.5,0.6 -0.75,0.5 -1.65,0.4 -0.8,-0.25 q -1.1,-0.55 -1.5,-1.4 -0.35,-0.85 0.15,-2.4 l 0.55,-0.6 0.4,-0.3 q 0.7,-0.45 1.05,-0.5 l 0.6,-0.05 1.2,0.15 0.7,0.45 0.75,0.9 0.2,0.7 0.05,0.7 m 1.9,-3.85 V 22.3 q 0.15,-0.65 0.75,-1.1 0.75,-0.5 1.6,-0.2 0.85,0.35 1.05,1.15 0.35,1.05 -0.45,1.8 -0.85,0.75 -1.85,0.35 -0.9,-0.3 -1.1,-1.35 m 1.85,20.8 0.8,0.1 0.65,-0.55 0.65,-0.6 q 0.6,-0.5 0.95,-0.65 l 1.15,-0.3 1.7,-0.6 Q 36.3,40.8 36.3,39.8 L 35.95,39.05 Q 35.65,38.7 35.25,38.7 H 34.9 l -0.65,0.2 -2.1,0.85 -0.95,0.5 -0.45,0.35 -0.7,0.7 -0.5,0.7 q -0.2,0.3 -0.3,1.1 l 0.25,0.65"
         fill="#000000"
         fill-rule="evenodd"
         stroke="none"
         id="path7" />
      <path
         d="m 37.9,16.3 2.85,-2.25 1,-0.6 3.1,-1.7 q 1.35,-0.9 2,-0.95 0.65,-0.05 1.2,0.35 0.55,0.35 0.75,0.95 0.2,0.6 0,1.25 l -0.7,1 q -0.4,0.35 -1,0.5 l -4.3,1.9 -4.45,1.55 -1.45,0.35 -0.5,0.05 -0.3,-0.35 0.1,-0.3 1.7,-1.75 m 10.25,7.45 -4.65,-0.15 -2.1,-0.2 -1.45,-0.15 -2,-0.4 -0.9,-0.3 q -0.3,-0.45 0.2,-0.95 0.35,-0.25 0.95,-0.35 5.75,-1.2 10.3,-1.45 l 1.15,0.05 q 0.85,0.15 1.3,0.85 0.5,0.75 0.25,1.55 -0.3,0.85 -1.25,1.2 l -1.8,0.3 M 24,42.3 l 0.05,1.75 -0.25,1.7 0.1,2.6 -0.05,0.65 q -0.15,1 -1.1,1.45 L 20.9,50.3 q -0.85,-0.7 -0.8,-1.65 l 0.3,-1.05 0.35,-1.1 0.2,-1.1 0.4,-0.95 1.2,-3.75 1.45,1.6 m -23.6,2 v -0.05 -1.3 L 0.5,38.8 Q 0.4,36.6 0.7,35.2 L 1.25,35.05 2.1,34.35 2.5,34 2.95,33.7 3.6,33.2 12.3,26.15 q 4.9,-3.7 9.25,-6.15 2.35,-1.3 3.8,-1.6 l 3.4,-0.1 q 2.5,0.5 3.05,2.2 0.3,0.85 -0.1,2.3 l -0.85,2.4 q -0.4,-0.3 -0.95,-0.3 -0.6,-0.05 -1.05,0.3 -1,0.85 -0.5,2.05 l 0.55,0.65 -2.15,1.7 Q 22.2,33 16.45,36.3 l -5.6,3.1 Q 9.6,39.95 8.1,40.65 L 0.9,44 0.4,44.3 m 16,-25.55 h -0.25 l -0.8,-0.15 -1.7,0.1 -4.95,0.1 -2.75,-0.15 -1.2,0.1 Q 4.05,18.7 3.5,18.1 2.95,17.5 3,16.8 3,16.05 3.55,15.5 4.1,14.95 4.8,14.9 l 1.25,0.2 2.5,0.45 6.15,1.05 q 1.5,0.35 1.9,0.75 0.65,0.55 0.3,1.05 l -0.5,0.35 m 36.65,13.3 q 0.5,0.1 0.65,0.25 0.35,0.25 0.35,0.65 L 53.7,33.5 51.2,34.15 Q 49.95,34.5 48.05,35.4 47.7,35.5 47.5,35.7 L 47,36.05 45.05,36 q -0.4,-0.35 -0.5,-0.9 -0.15,-0.55 0.1,-1 0.35,-0.7 1.5,-1.2 1.15,-0.45 3.2,-0.9 l 0.55,-0.1 3.15,0.15 m -19.35,11.4 0.65,0.4 q 1.65,1.65 3.9,1.3 2.3,-0.35 3.4,-2.3 L 42.2,41.9 q 0.45,-0.55 0.95,-0.55 0.4,0 1.35,0.65 l 3.3,0.15 q 1.4,-0.55 2.55,-2.2 l 0.6,-1.35 q 0.05,-0.85 0.25,-1.2 0.25,-0.65 0.95,-0.75 0.75,-0.1 1.05,0.45 0.35,0.5 0.15,1.5 -0.75,3.6 -3.6,5.4 -1.4,0.9 -3.1,1.05 l -3.2,-0.55 q -1.15,2 -3.35,2.85 l -4.35,0.15 q -2.4,-0.75 -2.85,-2.7 -0.15,-0.5 0.05,-0.95 0.35,-0.55 0.75,-0.4 M 16.55,8.5 l 2.35,3.8 0.95,2.1 0.5,0.85 -0.05,0.45 -0.4,0.25 -0.35,-0.15 -3.05,-2.3 -1.7,-1.65 -1.4,-0.9 q -0.85,-0.6 -1,-1.3 V 9 l 0.15,-0.7 q 0.3,-0.7 1,-1 l 1.4,-0.05 0.9,0.55 0.7,0.7 m 11.1,14.45 q 0.2,1.05 1.1,1.35 1,0.4 1.85,-0.35 0.8,-0.75 0.45,-1.8 -0.2,-0.8 -1.05,-1.15 -0.85,-0.3 -1.6,0.2 -0.6,0.45 -0.75,1.1 v 0.65 m -1.9,3.85 -0.05,-0.7 -0.2,-0.7 -0.75,-0.9 -0.7,-0.45 -1.2,-0.15 -0.6,0.05 Q 21.9,24 21.2,24.45 l -0.4,0.3 -0.55,0.6 q -0.5,1.55 -0.15,2.4 0.4,0.85 1.5,1.4 l 0.8,0.25 1.65,-0.4 0.75,-0.5 0.5,-0.6 0.45,-1.1 m -1.7,-5.65 q 0.1,0.55 0.5,0.95 0.45,0.4 1,0.4 0.5,0.05 1,-0.3 l 0.55,-0.9 q 0.1,-0.55 -0.15,-1.05 l -0.8,-0.7 q -0.5,-0.2 -1.1,0 -0.55,0.2 -0.8,0.65 -0.15,0.25 -0.15,0.45 l -0.05,0.5 m -5.6,20.65 -0.7,0.85 -0.35,0.45 -1.15,0.95 -2.1,2.25 -0.55,0.55 Q 13.1,47.2 12.45,47.15 11.8,47.05 11.4,46.65 11,46.2 10.95,45.55 10.9,44.9 11.25,44.4 l 0.7,-0.65 5.7,-3.5 1.7,-0.85 0.9,0.1 q 0.25,0.3 -0.1,0.75 l -0.8,0.85 -0.9,0.7 M 29.5,43.75 29.25,43.1 q 0.1,-0.8 0.3,-1.1 l 0.5,-0.7 0.7,-0.7 0.45,-0.35 0.95,-0.5 2.1,-0.85 0.65,-0.2 h 0.35 q 0.4,0 0.7,0.35 l 0.35,0.75 q 0,1 -0.9,1.35 l -1.7,0.6 -1.15,0.3 Q 32.2,42.2 31.6,42.7 l -0.65,0.6 -0.65,0.55 -0.8,-0.1"
         fill="#ffffff"
         fill-rule="evenodd"
         stroke="none"
         id="path8" />
    </g>
    <g
       id="shape2"
       transform="translate(1.5,1.5)">
      <path
         d="M 0,23.8 V 0 H 64.1 V 23.8 57.55 H 0 Z"
         fill="none"
         stroke="#000000"
         stroke-linecap="round"
         stroke-linejoin="round"
         stroke-width="3"
         id="path9" />
    </g>
  </defs>
</svg>
