<?xml version="1.0" encoding="UTF-8" standalone="no"?>
<svg
   ffdec:objectType="frame"
   height="60.549999"
   width="67.099998"
   version="1.1"
   id="svg11"
   sodipodi:docname="161.svg"
   xmlns:inkscape="http://www.inkscape.org/namespaces/inkscape"
   xmlns:sodipodi="http://sodipodi.sourceforge.net/DTD/sodipodi-0.dtd"
   xmlns:xlink="http://www.w3.org/1999/xlink"
   xmlns="http://www.w3.org/2000/svg"
   xmlns:svg="http://www.w3.org/2000/svg"
   xmlns:ffdec="https://www.free-decompiler.com/flash">
  <sodipodi:namedview
     id="namedview11"
     pagecolor="#ffffff"
     bordercolor="#000000"
     borderopacity="0.25"
     inkscape:showpageshadow="2"
     inkscape:pageopacity="0.0"
     inkscape:pagecheckerboard="0"
     inkscape:deskcolor="#d1d1d1"
     fit-margin-top="5"
     fit-margin-left="5"
     fit-margin-right="5"
     fit-margin-bottom="5" />
  <g
     transform="translate(1.5,1.5)"
     id="g3">
    <use
       ffdec:characterId="516"
       height="57.549999"
       width="64.099998"
       xlink:href="#shape0"
       id="use1" />
    <use
       ffdec:characterId="671"
       height="56.099998"
       transform="translate(-0.85,1.9)"
       width="64.800003"
       xlink:href="#shape1"
       id="use2" />
    <use
       ffdec:characterId="518"
       height="60.549999"
       transform="translate(-1.5,-1.5)"
       width="67.099998"
       xlink:href="#shape2"
       id="use3" />
  </g>
  <defs
     id="defs11">
    <g
       id="shape0">
      <path
         d="M 53.6,0 H 64.1 V 57.55 H 53.6 28.25 0 V 0 H 28.25 53.6 V 57.55 0 M 28.25,0 V 57.55 0"
         fill="#ffffff"
         fill-rule="evenodd"
         stroke="none"
         id="path3" />
    </g>
    <g
       id="shape1"
       transform="translate(0.85,-1.9)">
      <path
         d="m 52.15,11.8 q 0.75,-0.55 1.15,-0.5 l 0.65,0.3 0.55,0.4 0.25,1.2 -0.25,0.85 q -0.25,0.35 -1,0.55 l -1.2,0.1 Q 51.5,14.6 51.35,14 v -0.65 q 0,-0.65 0.25,-1.05 l 0.55,-0.5 M 12.3,45.6 12.15,45.55 9.35,45.85 Q 7.6,46.3 6.7,45.85 5.6,45.25 5,42.75 L 3.4,37.8 q -1.5,0.25 -2.8,-1.55 -1.55,-2.2 -1.45,-5.2 0.05,-2.1 1.1,-5.2 l -0.4,-0.5 q -0.7,-1 -0.35,-2.5 l 1.15,-2.3 Q 3,16.95 6.4,14.8 7.1,14.35 8.45,13.75 L 9.4,13 q 1.6,-1.05 3.85,-1.65 l 4.25,-0.85 1.1,-0.1 3.05,-0.15 H 21.7 L 21.9,9.1 21.6,8.35 21.2,6.35 21.1,5.55 Q 20.9,3.95 21.3,3.3 21.7,2.7 22.4,2.45 l 1.4,-0.25 4.6,0.4 q 3.1,-1 6.75,-0.55 2.45,0.25 4.3,1.2 l 1.1,0.65 2.35,-0.2 1.95,0.2 q 0.65,0.3 1,0.95 l 0.25,1.35 -0.35,1.05 -0.4,1.4 -0.45,1.4 -0.35,0.85 q 0.15,1.95 -0.55,4 l -0.1,0.25 2.1,2.4 q 2.05,2.7 3.2,6.5 l 0.75,0.3 q 1.25,0.65 2.25,2.9 2.35,5.6 2.6,12.8 v 0.05 q 0.1,0.65 -0.45,1.8 -0.7,1.7 -1.05,3.35 l -0.3,1.05 -1.05,0.85 -2.1,1.2 q -0.7,0.6 -1.25,1.5 l -0.95,0.95 -0.65,0.05 -0.3,0.1 -0.55,0.15 -1.15,0.3 -0.4,0.1 -0.65,0.3 -1.6,0.35 -0.95,-0.2 -0.6,-0.25 -0.1,-0.1 h -0.1 q -0.55,-0.1 -0.85,0.25 L 39.6,52.4 q -0.1,0.75 -0.8,0.75 h -0.05 l 0.1,0.55 1,1.35 0.6,0.45 q 0.9,0.6 2.3,0.5 l 2.9,-0.45 h 0.3 l 0.65,0.2 0.4,0.25 1,0.6 0.6,0.25 -0.9,0.35 q -2,0.8 -3.2,0.8 -2,0.1 -2.95,-1.25 -1,0.5 -2.5,-0.4 L 38.4,55.95 36.95,55.5 Q 36.2,55.2 35,54 l -1.25,-1.65 q -0.45,-1.15 0.05,-2.4 0.45,-1.25 1.55,-1.9 2,-1.15 4.85,-0.35 l 1.2,0.3 h 0.65 l 0.65,-0.05 0.75,0.25 0.75,0.05 0.9,-0.6 q 1.4,-1.4 3.5,-1.95 1.25,-6.85 -0.5,-13.2 H 48.05 L 46.65,32.25 46.1,31.85 45,32.3 q -1.25,0.15 -2.5,-0.95 l -1.9,-1.95 -1.75,-1.15 -1.4,-0.1 -2.2,-0.35 -1.35,-0.4 -1.55,0.35 -3.15,1.15 q -1.1,0.4 -1.5,0.85 l -0.55,1.15 -1.55,4.65 q -2.45,7.1 -2.9,11.05 L 22.35,46.7 21,47.65 q -0.8,0.6 -1.4,0.8 l -1.25,0.15 -1.2,0.25 q -1.3,0.5 -1.3,2 0.1,1.4 1.35,2 l 1.4,0.25 q 1.95,0.1 3.2,-0.55 l 0.85,-0.5 1,-0.8 0.5,-0.75 0.5,-1.05 2.1,0.95 q 1.9,0.75 2.45,1.3 1,0.95 0.75,2.4 -0.2,1.2 -1.6,2.45 Q 27,57.7 25.7,57.9 L 24.2,57.8 22.65,57.5 20.8,57.45 h -1.9 q -2.35,-0.2 -3.2,-1.7 -0.3,-0.65 -0.35,-1.6 l 0.1,-1.65 q 0,-1.85 -0.4,-3.3 -0.75,-2.95 -2.6,-3.55 l 0.5,0.1 q 1.45,0.15 2.1,-1.05 l 0.2,-0.4 0.2,-0.65 0.1,-1.45 0.15,-0.55 0.05,-0.15 0.35,-0.65 1.5,1.1 1.8,-6.3 q -0.8,0 -1.5,-0.6 L 17.6,34.9 17.3,35 Q 16,36 14.45,35.3 13,34.7 12.85,33.2 l 0.5,-0.45 0.7,-1 0.75,-0.7 0.7,-0.45 q 1,0.7 2.25,0.35 1.45,-0.45 2,-2.15 l 0.1,1.1 v 0.65 l -0.45,0.9 q -0.2,0.8 0.1,1.55 l 0.25,0.5 0.3,1.15 -0.3,1.75 q 0,1 0.7,1.7 0.7,0.7 1.75,0.55 0.7,-0.15 1.3,-0.75 l 0.85,-1.3 0.25,-0.65 0.1,-0.85 V 33.15 Q 24.55,32 23.95,31.05 l 0.55,-2.2 V 27.3 q -0.2,-1.5 -1.5,-2.6 -1.35,-1.2 -3.15,-1.35 -1.75,-0.15 -3.3,0.9 -1.05,0.7 -1.65,1.9 L 14.25,26.2 13,26.55 q -1.4,0.7 -2.7,2.15 L 9.7,28.5 7,28.7 6.3,29.2 q -2,1.85 -1.95,4.3 l 0.05,0.6 0.55,1.2 0.45,0.7 0.35,0.35 q 0.9,-0.1 1.3,0.65 l 0.4,1.5 0.3,0.45 0.7,1.2 Q 9,41.2 10.1,41.7 l 0.7,0.4 0.35,0.35 h 0.1 l -0.05,0.1 0.25,0.9 -0.2,0.95 q 0.3,0.85 1.05,1.2 m 41.45,4.2 -1.2,3.2 -0.05,0.2 0.05,-0.5 0.05,-1.5 q 0.15,-0.45 0.65,-0.9 l 0.5,-0.5 M 52.1,54 51.2,55.25 51,54.85 51.8,54.3 52.1,54 M 42.4,12.4 Q 43.4,12 43.7,11 43.95,9.9 43.6,9 42.95,7.2 41,6.95 l -1.65,0.2 q -0.9,0.35 -1.4,1.05 -0.55,0.7 -0.6,1.55 -0.1,0.9 0.5,1.25 l 2.05,1.05 q 1.45,0.7 2.5,0.35 m 0.05,8.2 -1.2,-1.65 q -0.85,0.65 -2.05,1.3 l 0.4,0.15 1.45,0.5 1.35,-0.1 0.15,-0.05 -0.1,-0.15 m 20.7,10.6 -0.8,0.85 L 61.5,32.5 59.95,32.15 59.2,31.7 q -0.3,-0.35 -0.3,-0.85 0,-0.5 0.3,-0.85 l 1.1,-0.8 q 1.2,-0.65 1.75,-0.5 0.7,0.2 1.05,1.1 0.35,0.8 0.05,1.4 M 24.45,10.6 q 0.7,1.1 1.95,1.5 1.35,0.4 2.6,-0.3 1.25,-0.7 1.65,-2 Q 31.1,8.15 30.05,6.75 29.55,6.1 28.9,5.8 L 28.4,5.55 Q 27.05,5.1 25.7,5.8 24.4,6.55 24,7.95 q -0.35,1.4 0.45,2.65 m 7.5,4.35 1.9,-0.25 q 0.55,0.65 1.5,0.7 1.35,0.15 2.1,-0.95 0.85,-1.1 0.15,-2.3 -0.2,-0.5 -0.6,-0.55 l -0.2,-0.05 q 0.15,0.55 -0.15,1.1 l -0.75,0.65 -1.1,-0.25 -0.4,-0.5 v -0.3 h -0.15 l -0.25,0.2 -1.15,0.5 -1.1,-0.3 -0.45,-0.25 q -0.45,-0.35 -0.45,-1 l -0.3,0.2 q -0.9,0.8 -0.35,2.1 0.45,1.1 1.75,1.25 M 8.95,8.9 Q 8.85,8.55 9.3,7.75 l 0.6,-1 q 0.5,-0.85 1,-1.1 l 1,0.1 q 0.55,0.25 0.65,0.8 l 0.1,0.65 0.45,0.55 q 0.25,0.4 -0.2,1.35 L 12.55,9.8 Q 12,10.75 11.45,10.75 L 10.65,10.4 9.75,9.8 Q 9.1,9.4 8.95,8.9 M 6.9,25.85 v 0.1 L 7.25,26.4 H 7.3 l 0.65,0.55 h 0.4 Q 10.45,24.1 13.9,23.3 L 13.85,22.25 13.3,21.2 Q 12.4,19.55 12.65,18.15 9,20.5 6.6,25.6 l 0.3,0.25 m 3.95,8.15 -0.2,-0.5 0.9,0.1 -0.1,0.05 -0.6,0.35"
         fill="#767676"
         fill-rule="evenodd"
         stroke="none"
         id="path4" />
      <path
         d="m 54.8,40.1 1.05,-0.65 h 0.6 q 0.65,0.1 0.85,0.8 0.25,0.6 -0.2,1.2 l -0.3,0.4 0.15,0.4 0.1,0.9 -0.05,2.7 -0.2,0.55 -0.35,0.6 v 0.35 q -0.05,1.05 -1.35,1.7 l -0.9,0.4 q -0.2,0.1 -0.45,0.35 l -0.5,0.5 q -0.5,0.45 -0.65,0.9 l -0.05,1.5 -0.05,0.5 -0.4,0.8 -0.3,0.3 -0.8,0.55 0.2,0.4 v 0.2 q 0,0.9 -0.8,1.35 L 48.8,56.9 48.6,56.85 48,56.6 47,56 46.6,55.75 45.95,55.55 h -0.3 L 42.75,56 q -1.4,0.1 -2.3,-0.5 l -0.6,-0.45 -1,-1.35 -0.1,-0.55 h 0.05 q 0.7,0 0.8,-0.75 l 0.15,-0.55 q 0.3,-0.35 0.85,-0.25 h 0.1 l 0.1,0.1 0.6,0.25 0.95,0.2 1.6,-0.35 0.65,-0.3 0.4,-0.1 1.15,-0.3 0.55,-0.15 0.3,-0.1 0.65,-0.05 0.95,-0.95 q 0.55,-0.9 1.25,-1.5 l 2.1,-1.2 1.05,-0.85 0.3,-1.05 q 0.35,-1.65 1.05,-3.35 0.55,-1.15 0.45,-1.8 m -32.1,6.5 1.2,0.05 q 1.1,0.4 1,1.8 l -0.25,1 -0.5,1.05 -0.5,0.75 -1,0.8 -0.85,0.5 q -1.25,0.65 -3.2,0.55 l -1.4,-0.25 q -1.25,-0.6 -1.35,-2 0,-1.5 1.3,-2 l 1.2,-0.25 1.25,-0.15 q 0.6,-0.2 1.4,-0.8 L 22.35,46.7 22.7,46.6 M 12.45,45.65 H 12.4 L 12.3,45.6 q -0.75,-0.35 -1.05,-1.2 l 0.2,-0.95 -0.25,-0.9 0.05,-0.1 h -0.1 L 10.8,42.1 10.1,41.7 Q 9,41.2 8.45,40.15 L 7.75,38.95 7.45,38.5 7.05,37 Q 6.65,36.25 5.75,36.35 L 5.4,36 4.95,35.3 4.4,34.1 4.35,33.5 Q 4.3,31.05 6.3,29.2 l 0.7,-0.5 2.7,-0.2 0.6,0.2 q 1.3,-1.45 2.7,-2.15 l 1.25,-0.35 0.65,-0.05 q 0.6,-1.2 1.65,-1.9 1.55,-1.05 3.3,-0.9 1.8,0.15 3.15,1.35 1.3,1.1 1.5,2.6 v 1.55 l -0.55,2.2 q 0.6,0.95 0.75,2.1 v 1.95 l -0.1,0.85 -0.25,0.65 -0.85,1.3 q -0.6,0.6 -1.3,0.75 -1.05,0.15 -1.75,-0.55 -0.7,-0.7 -0.7,-1.7 L 20.05,34.65 19.75,33.5 19.5,33 q -0.3,-0.75 -0.1,-1.55 l 0.45,-0.9 V 29.9 l -0.1,-1.1 q -0.55,1.7 -2,2.15 Q 16.5,31.3 15.5,30.6 l -0.7,0.45 -0.75,0.7 -0.7,1 -0.5,0.45 -0.85,0.35 -0.45,0.05 -0.9,-0.1 0.2,0.5 v 0.25 q 0.45,0.5 0.5,1.15 l 0.05,0.7 0.45,0.5 1.4,0.8 1.3,0.45 q 0.75,0.3 1.1,0.7 0.55,0.6 0.55,1.45 l -0.1,0.85 -0.35,0.65 -0.05,0.15 -0.15,0.55 -0.1,1.45 -0.2,0.65 -0.2,0.4 q -0.65,1.2 -2.1,1.05 l -0.5,-0.1 M 42.4,12.4 q -1.05,0.35 -2.5,-0.35 L 37.85,11 q -0.6,-0.35 -0.5,-1.25 0.05,-0.85 0.6,-1.55 0.5,-0.7 1.4,-1.05 L 41,6.95 q 1.95,0.25 2.6,2.05 0.35,0.9 0.1,2 -0.3,1 -1.3,1.4 M 31.95,14.95 Q 30.65,14.8 30.2,13.7 29.65,12.4 30.55,11.6 l 0.3,-0.2 q 0,0.65 0.45,1 l 0.45,0.25 1.1,0.3 1.15,-0.5 0.25,-0.2 h 0.15 v 0.3 l 0.4,0.5 1.1,0.25 0.75,-0.65 q 0.3,-0.55 0.15,-1.1 L 37,11.6 q 0.4,0.05 0.6,0.55 0.7,1.2 -0.15,2.3 -0.75,1.1 -2.1,0.95 -0.95,-0.05 -1.5,-0.7 l -1.9,0.25 M 24.45,10.6 Q 23.65,9.35 24,7.95 24.4,6.55 25.7,5.8 27.05,5.1 28.4,5.55 l 0.5,0.25 q 0.65,0.3 1.15,0.95 1.05,1.4 0.6,3.05 -0.4,1.3 -1.65,2 -1.25,0.7 -2.6,0.3 -1.25,-0.4 -1.95,-1.5"
         fill="#ffffff"
         fill-rule="evenodd"
         stroke="none"
         id="path5" />
      <path
         d="m 50.65,30.45 -1.05,-1 -2.8,-3.8 q -1,-1.45 -0.9,-2.25 0.05,-0.7 1,-1.85 l 2.3,-3.4 0.75,-1.1 q 0.3,-0.25 1,-0.55 1.8,-0.8 2.75,-1.05 l 2.95,-0.6 0.95,-0.1 q 0.6,0.05 1.25,0.55 l 1.05,1 1,1.15 q 0.25,0.5 0.15,1.35 -0.05,2.8 0.45,5.5 l 0.1,1.25 -1,1.4 q -2.15,2.15 -2.55,2.8 l -0.7,0.95 -1.6,0.3 -3.1,-0.3 -2,-0.25 m -8.9,-6.6 -0.8,-0.2 -0.6,-0.4 -0.65,-0.2 -0.8,-0.7 -0.3,-1.05 -0.1,-0.7 -0.2,-1 0.1,-0.95 0.6,-0.85 0.9,-0.85 0.7,-0.35 1.5,-0.8 q 0.9,-0.55 1.3,-0.5 l 0.85,0.55 q 0.9,1.05 1.15,2.05 l 0.2,0.55 0.4,1 -0.55,0.9 -0.55,1.05 -0.8,1.05 -0.8,0.8 -0.65,0.5 -0.9,0.1 M 43.5,19.7 V 19.5 L 43.45,19.1 43,17.85 q -0.7,0.5 -1.55,0.8 -0.8,0.2 -1.1,0.5 l 0.3,0.65 0.05,0.4 0.15,0.6 0.35,0.3 0.1,0.05 q 0.7,0.4 1.15,0.45 l 0.25,-0.6 0.05,-0.15 0.5,-0.8 0.25,-0.35 m 14.9,5.25 0.35,-0.3 -0.45,-5.3 -0.1,-0.5 -0.35,-0.4 -0.6,-0.55 -0.9,0.1 H 55.4 l -1.55,0.2 h -1.1 l -1.05,0.3 -0.25,0.2 -0.3,0.6 -1.15,1.85 -1.2,1.8 0.35,0.45 2.85,3.8 0.2,0.2 0.45,0.15 2.55,0.3 0.45,-0.05 0.3,-0.25 1.15,-1.4 1.3,-1.2 m -4,18.85 q 0.25,-1.8 1.25,-3.25 l 0.5,-0.6 q -1.5,-1.6 -1.15,-3.85 0.15,-1.4 1.2,-2.55 1.1,-1.1 2.55,-1.1 1.2,0 2.25,0.8 l 0.8,0.75 0.8,1.15 q 0.6,1.15 0.6,2.3 l 0.75,0.6 V 50.4 l -1.7,1.05 -0.35,0.1 q 0.35,1.2 0.15,2.5 -0.3,2.1 -1.85,3.65 H 50.05 L 49.4,57 48.75,55.75 48.55,55.6 47.85,55 q -0.4,-0.4 -0.75,-0.5 l -1.55,0.2 -1.6,0.7 H 42.7 L 42,55.3 Q 40.75,54.95 40.35,53.8 L 40.2,52.9 v -0.55 q 0.1,-0.25 0.4,-0.25 l 0.3,0.25 0.55,0.7 1.85,0.15 1,-0.7 q 1.1,-0.85 2.2,-1.05 l 2.2,0.2 Q 49.2,50.3 50.3,49.1 L 51.55,48 q 1.6,-1.25 2.9,-1.45 Q 54.15,45.2 54.4,43.8 M 30.2,57.05 q -0.65,0.6 -1.6,0.4 -1.05,-0.25 -1.25,-1.4 -0.05,-0.5 0.5,-1.8 l 0.5,-1 0.45,-0.75 -2.6,-0.15 q -1,-0.3 -2.15,-1.55 -1.75,-1.85 -2.1,-3.05 -0.2,-0.7 -0.05,-1.35 0.2,-0.75 0.8,-1.05 h 0.05 l 0.2,-2.15 0.15,-1.25 0.25,-0.95 0.4,-1.75 0.4,-1.35 0.1,-1.35 1.2,-5.65 q 0.2,-1.1 0.5,-1.55 0.35,-0.6 1.4,-1.2 l 6.8,-4.4 q 1.5,-0.95 2.4,-0.9 0.9,0.1 2.25,1.35 2.95,2.75 4,4.6 l 0.65,0.8 1,0.2 2.8,0.05 q 1.85,0.1 2.45,0.7 0.45,0.4 0.8,2 0.6,3.8 1.65,7.45 0.5,1.85 0.2,2.7 l -1.15,1.6 q -3.1,3 -7.45,5.9 -1.3,0.9 -2.2,0.9 l -1.2,-0.4 -1.15,-0.65 -1.05,-0.2 0.9,1.1 1.35,3.35 0.4,1.1 0.25,1.35 q 0,0.7 -0.45,0.95 h -1.05 l -0.25,-0.15 -0.6,-0.75 -0.05,-0.15 -2.1,-3.35 -4.5,0.9 -0.3,0.05 -0.5,0.2 -0.15,0.35 -0.25,0.9 -0.05,0.2 -0.4,0.9 -0.2,0.25 M 47.35,34.4 47.1,33.4 44.65,33.3 q -1.7,0.25 -2.45,0 -0.95,-0.35 -1.65,-1.5 l -1.2,-2.15 q -0.75,-1.15 -2.6,-2.7 -0.4,-0.4 -0.75,-0.4 l -0.7,0.25 -6.05,3.8 q -1,0.6 -1.3,1.1 L 27.5,33.1 26.55,36.65 26.6,37 v 0.05 l -0.25,1.3 -0.45,1.8 Q 25.25,43 25.4,45.8 v 0.05 l 0.15,0.85 0.75,1.05 0.7,0.65 0.5,0.3 1.3,0.25 2.6,0.2 h 0.3 l 1.1,-0.1 0.3,-0.1 0.8,-0.55 0.4,-0.3 1.1,-0.9 q 0.65,-0.5 1,-0.6 v -0.05 l 1.35,-0.2 q 1.2,0 2.75,0.75 0.7,0.4 1.15,0.35 L 42.5,47.1 q 3.3,-2.1 5.9,-4.65 l 0.6,-0.8 -0.1,-1.1 -1.55,-6.15 m 11.1,6.2 q -0.4,0.15 -0.85,0.5 -1.1,0.95 -1,2.45 0.1,1.5 1.35,2.3 1.2,0.8 2.6,0.3 0.9,-0.25 1.6,-1.25 0.5,-0.85 0.45,-1.7 L 62.35,42.25 62.1,41.7 q -0.65,-0.9 -1.65,-1.2 l -2,0.1 M 5.35,17.3 5.6,16.45 6.65,15.55 q 1.95,-1.1 2.85,-1.3 l 1.7,-0.35 1.65,-0.2 Q 13.6,14 14,15.4 l 1.3,6.45 0.05,0.9 -0.55,1 -1,0.8 q -1.45,1.05 -2.5,2.5 L 10.35,28.2 Q 9.7,28.75 9.05,28.75 L 7.85,28.3 Q 6.65,27.6 6.2,27.15 L 5.2,26.1 4.05,24.85 Q 3.4,24.1 3.3,23.35 3.2,22.45 3.9,21.05 L 5.35,17.3 m 6.8,1.15 -0.4,-1.65 -1.45,0.25 -2.25,0.95 -0.3,0.2 -0.3,0.45 -1.55,3.95 0.85,0.85 0.5,0.5 1.15,1.1 0.25,0.2 0.45,0.2 0.5,-0.1 0.65,-0.3 0.3,-0.4 0.65,-0.7 1.9,-1.5 L 12.65,21 12.45,19.95 12.4,19.8 12.25,19.05 12.15,18.45 M 0.1,37.65 -0.65,36.55 q -0.2,-0.65 0.2,-1.3 l 1,-0.85 q 0.8,-0.2 2.4,0.55 2.5,1.2 3.2,2.5 L 6.8,39.7 7.55,44.4 8.6,43.7 q 0.65,-0.6 1.05,-0.75 l 1.75,0.2 1.45,1.05 4.45,3.4 1.25,1.25 q 0.25,0.7 -0.3,2.45 L 17.3,55.35 16.7,56.7 Q 16.05,57.35 15.35,57.05 15,56.9 14.8,56.35 l -0.1,-0.25 0.1,-1.2 0.65,-3.05 0.3,-1.6 -2.1,-1.6 L 12.4,47.7 10.3,46.05 8.75,47.2 7.6,48.05 7.2,48.35 6,48.7 Q 5.25,48.55 4.8,47.65 L 4.55,46.05 4.45,45 3.95,41.6 3.9,41.15 3.85,41 3.55,39.85 3.35,39.5 2.6,38.9 0.7,38.05 0.1,37.65"
         fill="#000000"
         fill-rule="evenodd"
         stroke="none"
         id="path6" />
      <path
         d="m 43.5,19.7 -0.2,-0.15 q -0.5,-0.45 -1.25,-0.4 -0.7,0.05 -1.25,0.5 l -0.15,0.15 -0.3,-0.65 q 0.3,-0.3 1.1,-0.5 0.85,-0.3 1.55,-0.8 l 0.45,1.25 0.05,0.4 v 0.2 m 5.65,3.7 -0.35,-0.45 1.2,-1.8 1.15,-1.85 0.3,-0.6 0.25,-0.2 1.05,-0.3 h 1.1 L 55.4,18 h 0.95 l 0.9,-0.1 0.6,0.55 0.35,0.4 0.1,0.5 0.45,5.3 -0.35,0.3 -0.1,-0.7 -0.6,-1.7 -0.35,-0.9 L 57.2,20.2 Q 57,19.55 56.4,19.15 55.8,18.75 55.1,18.8 l -1.4,0.5 -1.4,0.45 q -0.85,0.35 -1.2,0.8 l -0.5,0.85 -1.45,2 M 38.7,56.8 38.4,57.3 38,57.7 h -2.4 l -0.75,-0.8 0.75,-0.15 0.45,0.35 0.35,0.15 0.65,-0.2 0.45,-0.7 V 55.5 L 37.3,54.95 Q 37.15,54.2 36.2,53.9 h -1.6 l -2,0.3 h -0.55 l 4.5,-0.9 2.1,3.35 0.05,0.15 M 47.35,34.4 45.15,34.2 43.2,34.4 41.25,34.25 39.1,30.5 q -1,-1.6 -1.85,-2 l -2.55,0.05 q -1.1,0.4 -3.2,1.75 -2.2,1.45 -2.9,2.4 -0.65,0.85 -1.65,3.35 l -0.35,1 V 37 l -0.05,-0.35 0.95,-3.55 0.45,-1.4 q 0.3,-0.5 1.3,-1.1 L 35.3,26.8 36,26.55 q 0.35,0 0.75,0.4 1.85,1.55 2.6,2.7 l 1.2,2.15 q 0.7,1.15 1.65,1.5 0.75,0.25 2.45,0 l 2.45,0.1 0.25,1 m -11.95,12.8 0.95,-4.6 0.1,1.45 -0.1,1.25 v 1.2 l 0.05,0.1 q -0.35,0.1 -1,0.6 m 23.05,-6.6 2,-0.1 q 1,0.3 1.65,1.2 l 0.25,0.55 0.25,0.95 q 0.05,0.85 -0.45,1.7 -0.7,1 -1.6,1.25 -1.4,0.5 -2.6,-0.3 -1.25,-0.8 -1.35,-2.3 -0.1,-1.5 1,-2.45 0.45,-0.35 0.85,-0.5 M 6.75,23.45 5.9,22.6 7.45,18.65 7.75,18.2 8.05,18 10.3,17.05 11.75,16.8 12.15,18.45 11.6,18.1 10.25,17.95 9.5,18.2 l -1,0.6 -1.15,0.9 q -0.6,0.65 -0.75,1.25 -0.15,0.65 0.05,1.2 l 0.2,0.6 -0.1,0.6 v 0.1 M 0.2,40.75 -0.05,40.55 -0.5,39.5 q -0.15,-1.15 0.6,-1.85 l 0.6,0.4 1.9,0.85 0.75,0.6 0.2,0.35 -0.9,-0.4 q -1.4,-0.35 -2.2,0.8 l -0.25,0.5 m 8.55,6.45 1.55,-1.15 2.1,1.65 -0.35,-0.15 -1.5,0.2 -0.4,-0.25 -1.3,-0.3 h -0.1 m 4.9,1.45 2.1,1.6 -0.3,1.6 -1,-2 -0.8,-1.2"
         fill="#ffffff"
         fill-rule="evenodd"
         stroke="none"
         id="path7" />
      <path
         d="m 40.65,19.8 0.15,-0.15 q 0.55,-0.45 1.25,-0.5 0.75,-0.05 1.25,0.4 l 0.2,0.15 -0.25,0.35 -0.5,0.8 L 42.7,21 42.45,21.6 Q 42,21.55 41.3,21.15 L 41.2,21.1 40.85,20.8 40.7,20.2 40.65,19.8 m 8.5,3.6 1.45,-2 0.5,-0.85 q 0.35,-0.45 1.2,-0.8 l 1.4,-0.45 1.4,-0.5 q 0.7,-0.05 1.3,0.35 0.6,0.4 0.8,1.05 l 0.15,1.45 0.35,0.9 0.6,1.7 0.1,0.7 -1.3,1.2 -1.15,1.4 -0.3,0.25 -0.45,0.05 -2.55,-0.3 L 52.2,27.4 52,27.2 49.15,23.4 m -14.3,33.5 -0.45,0.1 -1.7,0.6 -0.3,0.1 h -1.45 l -0.7,-0.55 -0.05,-0.1 0.2,-0.25 0.4,-0.9 0.05,-0.2 0.25,-0.9 0.15,-0.35 0.5,-0.2 0.3,-0.05 h 0.55 l 2,-0.3 h 1.6 q 0.95,0.3 1.1,1.05 l 0.2,0.55 v 0.85 l -0.45,0.7 -0.65,0.2 -0.35,-0.15 -0.45,-0.35 -0.75,0.15 m -8.25,-19.85 0.35,-1 q 1,-2.5 1.65,-3.35 0.7,-0.95 2.9,-2.4 2.1,-1.35 3.2,-1.75 l 2.55,-0.05 q 0.85,0.4 1.85,2 l 2.15,3.75 1.95,0.15 1.95,-0.2 2.2,0.2 1.55,6.15 0.1,1.1 -0.6,0.8 Q 45.8,45 42.5,47.1 l -0.85,0.35 Q 41.2,47.5 40.5,47.1 38.95,46.35 37.75,46.35 l -1.35,0.2 v 0.05 l -0.05,-0.1 v -1.2 l 0.1,-1.25 -0.1,-1.45 -0.95,4.6 -1.1,0.9 -0.4,0.3 -0.8,0.55 -0.3,0.1 -1.1,0.1 H 31.4 L 28.8,48.95 27.5,48.7 27,48.4 26.3,47.45 Q 26.1,46.9 26.2,45.85 H 25.45 25.4 V 45.8 Q 25.25,43 25.9,40.15 l 0.45,-1.8 0.25,-1.3 M 6.75,23.45 v -0.1 l 0.1,-0.6 -0.2,-0.6 Q 6.45,21.6 6.6,20.95 6.75,20.35 7.35,19.7 l 1.15,-0.9 1,-0.6 0.75,-0.25 1.35,0.15 0.55,0.35 0.1,0.6 0.15,0.75 0.05,0.15 0.2,1.05 0.45,1.45 -1.9,1.5 -0.65,0.7 -0.3,0.4 -0.65,0.3 -0.5,0.1 -0.45,-0.2 -0.25,-0.2 -1.15,-1.1 -0.5,-0.5 m 8.05,32.9 -0.3,0.4 q -0.55,0.65 -1.25,0.5 -0.35,-0.05 -0.7,-0.5 l -0.2,-0.25 q -0.85,0.6 -2.1,0.7 L 9.2,57.15 8.15,57.1 5.95,57.2 3.75,57.4 1.55,57.05 Q 0.35,56.55 0.05,55.5 L 0,54.35 l 0.2,-1.2 0.1,-2 -0.3,-7.9 q -0.15,-1.6 0.2,-2.5 l 0.25,-0.5 q 0.8,-1.15 2.2,-0.8 l 0.9,0.4 0.3,1.15 0.05,0.15 0.05,0.45 0.5,3.4 0.1,1.05 0.25,1.6 q 0.45,0.9 1.2,1.05 l 1.2,-0.35 0.4,-0.3 1.15,-0.85 h 0.1 l 1.3,0.3 0.4,0.25 1.5,-0.2 0.35,0.15 1.25,0.95 0.8,1.2 1,2 -0.65,3.05 -0.1,1.2 0.1,0.25"
         fill="#767676"
         fill-rule="evenodd"
         stroke="none"
         id="path8" />
      <path
         d="M 10.35,40.85 Q 9.15,39.85 8.6,38.9 7.85,37.7 7.75,36.3 L 7.3,36.2 Q 6.25,35.85 5.6,35.1 L 5,34.15 Q 4.85,33.8 4.85,33.25 4.85,32 5.6,31 q 0.8,-1 2,-1.25 l 1.85,0.2 0.55,0.35 v -0.05 q 1.55,-1.85 3.6,-2.6 l 1.85,-0.45 q 0.45,-1.15 1.5,-1.95 1.7,-1.3 3.55,-1 0.95,0.15 1.7,0.8 0.8,0.6 1.1,1.5 0.35,1.05 0.05,2.15 -0.2,0.95 -1,1.95 l -0.1,0.15 q 0.85,1.5 0.85,3.45 l -0.3,2.15 0.45,0.15 q 1.1,0.45 2.45,1.5 l 1.45,1.5 Q 28,41 28,43.2 28.05,45 27.7,46.3 l 0.25,-0.1 q 2.7,-1.05 3.5,-3.35 l 0.4,-1.65 q 0.7,-2.3 2.75,-3.65 0.55,-0.35 1,-0.35 l 0.5,0.2 0.2,0.45 q 0,0.45 -0.55,0.8 l -1.2,1.2 -0.55,0.9 -0.05,1.05 q 0.1,2.2 -0.55,3.65 l -1.05,1.5 q -1.45,1.65 -3.4,2.45 -2.05,0.9 -4.1,0.6 l -0.25,-0.05 -1.2,0.65 -1.85,0.75 -2.05,0.1 Q 17.35,51.2 15.6,50.05 13.7,48.85 12.9,47 11.95,44.85 12.6,42.25 L 12.4,42.2 10.35,40.85 m -0.25,-7.7 q -0.7,0.25 -1.2,0.8 -0.55,0.6 -0.65,1.3 -0.1,0.7 0.2,1.45 0.3,0.7 0.9,1.1 l 2.8,0.15 Q 13.6,37.1 13.5,35.5 13.45,34.8 13,34.15 12.55,33.5 11.9,33.25 L 10.85,33 10.1,33.15 m 8.55,3.7 Q 18.6,36.4 18.2,36.1 17.75,35.8 17.25,35.8 l -1.05,0.4 -0.05,-0.15 q -0.25,-0.5 -0.85,-0.6 l -0.1,0.05 q -0.25,0 -0.45,0.2 -0.3,0.3 -0.2,0.75 l 0.25,0.55 -1.05,1.1 -0.2,0.75 q 0,0.45 0.35,0.6 0.55,0.2 1.05,-0.4 L 15.8,38.2 h 0.85 l 1.3,-0.25 q 0.7,-0.35 0.7,-1.1 m 1.95,-2.95 0.15,-0.3 q 0.9,-1.2 0.3,-2.65 -0.3,-0.8 -0.95,-1.25 l -0.5,0.15 -2.65,0.1 -0.4,-0.15 -0.2,0.15 q -1.1,1.1 -0.85,2.55 l 0.4,1.05 q 0.85,1.25 2.25,1.35 1.5,0.1 2.45,-1"
         fill="#000000"
         fill-rule="evenodd"
         stroke="none"
         id="path9" />
      <path
         d="m 20.6,33.9 q -0.95,1.1 -2.45,1 -1.4,-0.1 -2.25,-1.35 L 15.5,32.5 q -0.25,-1.45 0.85,-2.55 l 0.2,-0.15 0.4,0.15 2.65,-0.1 0.5,-0.15 q 0.65,0.45 0.95,1.25 0.6,1.45 -0.3,2.65 l -0.15,0.3 m -1.95,2.95 q 0,0.75 -0.7,1.1 l -1.3,0.25 H 15.8 l -0.85,0.85 q -0.5,0.6 -1.05,0.4 -0.35,-0.15 -0.35,-0.6 L 13.75,38.1 14.8,37 14.55,36.45 q -0.1,-0.45 0.2,-0.75 0.2,-0.2 0.45,-0.2 l 0.1,-0.05 q 0.6,0.1 0.85,0.6 l 0.05,0.15 1.05,-0.4 q 0.5,0 0.95,0.3 0.4,0.3 0.45,0.75 M 10.1,33.15 10.85,33 11.9,33.25 q 0.65,0.25 1.1,0.9 0.45,0.65 0.5,1.35 0.1,1.6 -1.35,2.45 L 9.35,37.8 q -0.6,-0.4 -0.9,-1.1 -0.3,-0.75 -0.2,-1.45 0.1,-0.7 0.65,-1.3 0.5,-0.55 1.2,-0.8"
         fill="#ffffff"
         fill-rule="evenodd"
         stroke="none"
         id="path10" />
    </g>
    <g
       id="shape2"
       transform="translate(1.5,1.5)">
      <path
         d="M 0,23.8 V 0 H 64.1 V 23.8 57.55 H 0 Z"
         fill="none"
         stroke="#000000"
         stroke-linecap="round"
         stroke-linejoin="round"
         stroke-width="3"
         id="path11" />
    </g>
  </defs>
</svg>
