<?xml version="1.0" encoding="UTF-8" standalone="no"?>
<svg
   ffdec:objectType="frame"
   height="60.549999"
   width="67.099998"
   version="1.1"
   id="svg8"
   sodipodi:docname="288.svg"
   xmlns:inkscape="http://www.inkscape.org/namespaces/inkscape"
   xmlns:sodipodi="http://sodipodi.sourceforge.net/DTD/sodipodi-0.dtd"
   xmlns:xlink="http://www.w3.org/1999/xlink"
   xmlns="http://www.w3.org/2000/svg"
   xmlns:svg="http://www.w3.org/2000/svg"
   xmlns:ffdec="https://www.free-decompiler.com/flash">
  <sodipodi:namedview
     id="namedview8"
     pagecolor="#ffffff"
     bordercolor="#000000"
     borderopacity="0.25"
     inkscape:showpageshadow="2"
     inkscape:pageopacity="0.0"
     inkscape:pagecheckerboard="0"
     inkscape:deskcolor="#d1d1d1"
     fit-margin-top="5"
     fit-margin-left="5"
     fit-margin-right="5"
     fit-margin-bottom="5" />
  <g
     transform="translate(1.5,1.5)"
     id="g3">
    <use
       ffdec:characterId="516"
       height="57.549999"
       width="64.099998"
       xlink:href="#shape0"
       id="use1" />
    <use
       ffdec:characterId="791"
       height="57.299999"
       transform="translate(-0.1,-0.2)"
       width="63.5"
       xlink:href="#shape1"
       id="use2" />
    <use
       ffdec:characterId="518"
       height="60.549999"
       transform="translate(-1.5,-1.5)"
       width="67.099998"
       xlink:href="#shape2"
       id="use3" />
  </g>
  <defs
     id="defs8">
    <g
       id="shape0">
      <path
         d="M 53.6,0 H 64.1 V 57.55 H 53.6 28.25 0 V 0 H 28.25 53.6 V 57.55 0 M 28.25,0 V 57.55 0"
         fill="#ffffff"
         fill-rule="evenodd"
         stroke="none"
         id="path3" />
    </g>
    <g
       id="shape1"
       transform="translate(0.1,0.2)">
      <path
         d="m 63.15,55.05 0.05,0.1 0.1,0.1 v 0.1 l 0.05,0.1 0.05,0.1 v 0.1 0.15 0.1 0.1 l -0.05,0.1 -0.05,0.1 v 0.1 l -0.1,0.1 -0.05,0.1 -0.1,0.1 -0.1,0.1 -0.15,0.1 -0.2,0.1 -0.4,0.05 H 60.85 60.2 l -0.75,0.05 -1.1,0.05 h -1.7 l -5.8,0.05 H 47.8 43.9 42.65 l -2.1,-0.05 H 39.7 L 38.55,57 33.05,56.95 H 31.4 L 30.1,56.9 29.45,56.85 h -0.9 -0.2 L 33.7,23.05 36.05,30.4 32.9,-0.15 h 0.15 V -0.2 h 1.4 1.65 0.2 0.55 0.3 3.6 l 12.3,0.05 1.3,0.05 h 0.4 l 0.7,0.05 L 56.2,0 h 0.85 L 57.5,0.05 58,0.1 h 0.55 l 0.6,0.05 0.55,0.05 h 0.4 l 0.35,0.05 0.6,0.05 h 0.4 l 0.25,0.05 0.15,0.05 h 0.25 l 0.2,-0.05 h 0.05 l 0.25,0.05 0.15,0.1 0.15,0.1 0.05,0.1 0.05,0.15 0.05,0.1 v 0.1 l 0.05,0.1 0.05,0.1 0.05,0.1 0.1,0.1 v 0.1 0.1 0.1 l 0.05,0.1 v 0.1 l -0.05,0.1 v 0.1 0.1 0.1 0.1 0.1 0.1 0.1 0.1 0.1 0.1 0.1 0.1 0.1 0.1 0.1 0.1 V 3.8 3.9 4 4.1 4.2 4.3 4.4 4.5 4.6 4.7 4.8 4.9 5 5.1 5.2 5.3 5.4 5.5 5.6 5.7 5.8 5.9 6 v 0.1 0.1 0.1 0.1 0.1 0.1 0.1 0.15 0.1 0.1 0.1 0.1 0.1 0.1 0.1 0.1 0.1 0.1 0.1 0.1 0.1 0.1 0.1 0.1 0.1 0.1 0.1 0.1 0.1 0.1 0.1 0.1 0.1 0.1 0.1 0.1 0.15 0.1 0.1 0.1 0.1 0.1 0.1 0.1 0.1 0.1 0.1 0.1 0.1 0.1 0.1 0.1 0.1 0.1 0.1 0.1 0.1 0.1 0.1 0.1 0.1 0.1 0.1 0.1 0.1 0.1 0.15 0.1 0.1 0.1 0.1 0.1 0.1 0.1 0.1 0.1 0.1 0.1 0.1 0.1 0.1 0.1 0.1 0.1 0.1 0.1 0.1 0.1 0.1 0.1 0.1 0.1 0.1 0.1 0.1 0.15 0.1 0.1 0.1 0.1 0.1 0.1 0.1 0.1 0.1 0.1 0.1 0.1 0.1 0.1 0.1 0.1 0.1 0.1 0.1 0.1 0.1 0.1 0.1 0.1 0.1 0.1 0.1 0.1 0.1 0.15 0.1 0.1 0.1 0.1 0.1 0.1 0.1 0.1 0.1 0.1 0.1 0.1 0.1 0.1 0.1 0.1 0.1 0.1 0.1 0.1 0.1 0.1 0.1 0.1 0.1 0.1 0.1 0.1 0.15 0.1 0.1 0.1 0.1 0.1 0.1 0.1 0.1 0.1 0.1 0.1 0.1 0.1 0.1 0.1 0.1 0.1 0.1 0.1 0.1 0.1 0.1 0.1 0.1 0.1 0.1 0.1 0.1 0.1 0.15 0.1 0.1 0.1 0.1 0.1 0.1 0.1 0.1 0.1 0.1 0.1 0.1 0.1 0.1 0.1 0.1 0.1 0.1 0.1 0.1 0.1 0.1 0.1 0.1 0.1 0.1 l 0.05,0.1 v 0.1 0.15 0.1 0.1 0.1 0.1 0.1 0.1 0.1 0.1 0.1 0.1 0.1 0.1 0.1 0.1 0.1 0.1 0.1 0.1 0.1 0.1 0.1 0.1 0.1 0.1 0.1 0.1 0.1 0.1 0.1 0.15 0.1 0.1 0.1 0.1 0.1 0.1 0.1 0.1 0.1 0.1 0.1 0.1 0.1 0.1 0.1 0.1 0.1 0.1 0.1 0.1 0.1 0.1 0.1 0.1 0.1 0.1 0.1 0.1 0.15 0.1 0.1 0.1 0.1 0.1 0.1 0.1 0.1 0.1 0.1 0.1 0.1 0.1 0.1 0.1 0.1 0.1 0.1 0.1 0.1 0.1 0.1 0.1 0.1 0.1 0.1 0.1 0.1 0.1 0.15 0.1 0.1 0.1 0.1 0.1 0.1 0.1 0.1 0.1 0.1 0.1 0.1 0.1 0.1 0.1 0.1 0.1 0.1 0.1 0.1 0.1 0.1 0.1 0.1 0.1 0.1 0.1 0.1 0.15 0.1 0.1 0.1 0.1 0.1 0.1 0.1 0.1 0.1 0.1 0.1 0.1 0.1 0.1 0.1 0.1 0.1 0.1 0.1 0.1 0.1 0.1 0.1 0.1 0.1 0.1 0.1 0.1 0.1 0.15 0.1 0.1 0.1 0.1 0.1 0.1 0.1 0.1 0.1 0.1 0.1 0.1 0.1 0.1 0.1 0.1 0.1 0.1 0.1 0.1 0.1 0.1 0.1 0.1 0.1 0.1 0.1 0.1 0.15 0.1 0.1 0.1 0.1 0.1 0.1 0.1 0.1 0.1 0.1 0.1 0.1 0.1 0.1 0.1 0.1 0.1 0.1 0.1 0.1 0.1 0.1 0.1 0.1 0.1 0.1 0.1 0.1 0.1 0.15 0.1 0.1 0.1 0.1 0.1 0.1 0.1 0.1 0.1 0.1 0.1 0.1 0.1 0.1 0.1 0.1 0.1 0.1 0.1 0.1 0.1 l -0.05,0.1 v 0.1 0.1 0.1 0.1 0.1 0.1 0.15 0.1 0.1 0.1 0.1 0.1 0.1 0.1 0.1 0.1 0.1 0.1 L 63.25,53 v 0.1 0.1 0.1 0.1 l -0.05,0.1 v 0.1 0.1 0.1 l -0.05,0.1 v 0.1 0.1 0.1 0.1 0.1 0.1 0.1 l -0.05,0.1 v 0.15 0.1 0.05 l 0.05,0.05 M 48,14.95 l -1,0.2 q -0.8,0.3 -1.55,0.9 -1,0.75 -1.45,2 l -0.2,1.8 q -0.1,0.6 0.05,1 l 0.25,0.65 0.8,1.3 -0.15,0.45 -0.05,1.05 q 0.1,0.7 0.65,1 l 1.2,0.15 0.35,-0.15 0.6,0.5 1.2,0.05 q 0.6,-0.25 0.75,-0.9 l 0.05,-0.55 0.6,0.65 q 0.8,0.45 1.5,-0.35 0.45,-0.55 0.35,-1.6 l -0.2,-0.75 0.05,-0.05 q 1.4,-1.4 1.3,-3.3 l -0.2,-1.05 -0.95,-1.3 Q 50.7,15.4 49.85,15.15 L 48,14.95 m -0.6,-1.35 1.35,0.1 Q 49.5,13.3 49.35,12.45 49.3,12 48.85,11.7 48.45,11.4 48,11.45 q -0.6,0.1 -0.85,0.6 -0.3,0.5 -0.1,1.05 l 0.35,0.5 M 47.95,10 q 0.15,0.3 0.5,0.2 0.4,-0.15 0.4,-0.9 L 49.5,6.45 Q 49.7,5.55 49.45,4.95 49.1,4 48.05,4.1 46.95,4.2 46.8,5.2 v 1.1 q 0.3,1.7 0.65,2.45 l 0.4,0.85 0.1,0.4 M 47.2,21.6 Q 46.8,22 46.25,22 45.7,21.95 45.25,21.55 44.6,20.8 44.9,20 45.15,19.1 46.15,19 47,18.9 47.5,19.7 l 0.2,0.65 -0.15,0.7 -0.35,0.55 m 2.3,-2.4 q 0.25,-0.55 0.85,-0.75 l 1.15,0.05 q 0.55,0.25 0.8,0.85 0.25,0.6 0,1.1 l -0.8,0.85 -1.15,0.05 q -0.65,-0.25 -0.9,-0.9 -0.3,-0.6 0.05,-1.25 M 23.35,8.75 l -1.55,0.9 -1,0.5 Q 20.6,10.85 20,11 19.35,11.2 18.75,10.45 L 18.45,9.95 17.75,9.7 Q 16.25,9.5 15.95,8.75 15.7,8.2 16.1,7.45 16.65,6.45 17.7,6 l 2.15,-0.15 q 0.5,0.15 0.85,0.45 0.85,-0.7 1.85,-0.7 0.9,0 1.25,0.6 l 0.25,1.05 q -0.1,0.9 -0.7,1.5"
         fill="#999999"
         fill-rule="evenodd"
         stroke="none"
         id="path4" />
      <path
         d="M 47.95,10 47.85,9.6 47.45,8.75 Q 47.1,8 46.8,6.3 V 5.2 q 0.15,-1 1.25,-1.1 1.05,-0.1 1.4,0.85 0.25,0.6 0.05,1.5 L 48.85,9.3 q 0,0.75 -0.4,0.9 -0.35,0.1 -0.5,-0.2 m -0.55,3.6 -0.35,-0.5 q -0.2,-0.55 0.1,-1.05 0.25,-0.5 0.85,-0.6 0.45,-0.05 0.85,0.25 0.45,0.3 0.5,0.75 0.15,0.85 -0.6,1.25 L 47.4,13.6 m 0.6,1.35 1.85,0.2 q 0.85,0.25 2.1,1.5 l 0.95,1.3 0.2,1.05 q 0.1,1.9 -1.3,3.3 l -0.05,0.05 0.2,0.75 q 0.1,1.05 -0.35,1.6 -0.7,0.8 -1.5,0.35 L 49.5,24.4 49.45,24.95 Q 49.3,25.6 48.7,25.85 L 47.5,25.8 46.9,25.3 46.55,25.45 45.35,25.3 Q 44.8,25 44.7,24.3 l 0.05,-1.05 0.15,-0.45 -0.8,-1.3 -0.25,-0.65 q -0.15,-0.4 -0.05,-1 l 0.2,-1.8 q 0.45,-1.25 1.45,-2 0.75,-0.6 1.55,-0.9 l 1,-0.2 m 1.5,4.25 q -0.35,0.65 -0.05,1.25 0.25,0.65 0.9,0.9 l 1.15,-0.05 0.8,-0.85 q 0.25,-0.5 0,-1.1 -0.25,-0.6 -0.8,-0.85 l -1.15,-0.05 q -0.6,0.2 -0.85,0.75 m -2.3,2.4 0.35,-0.55 0.15,-0.7 -0.2,-0.65 Q 47,18.9 46.15,19 q -1,0.1 -1.25,1 -0.3,0.8 0.35,1.55 0.45,0.4 1,0.45 0.55,0 0.95,-0.4"
         fill="#ffffff"
         fill-rule="evenodd"
         stroke="none"
         id="path5" />
      <path
         d="m 52.4,38.95 -0.5,0.85 0.4,0.4 0.75,1.35 q 0.35,0.95 0.5,3.05 l 0.5,-0.1 2.25,0.3 0.85,0.5 0.45,0.45 0.1,0.55 0.05,0.8 -0.25,0.7 -0.8,0.95 -0.9,0.6 1.75,0.1 0.55,0.05 0.35,0.35 -0.15,0.5 -0.45,0.15 -2.05,0.1 -1.25,-0.15 Q 53.7,49.9 53.95,49.05 54,48.6 54.6,48 L 55.65,47.25 55.85,47 55.65,46.8 55.2,46.7 54.3,46.65 53.45,46.95 53.4,47 q -0.4,1.2 -1.5,2 -0.6,0.45 -1.8,0.9 l -3.15,0.7 -1.5,-0.15 -1.35,-0.25 -1.6,-0.75 q -1.35,-1 -1.8,-2.1 -0.7,-1.5 -0.25,-3.85 0.55,-2.3 1.7,-3.7 l -1.1,-1.3 Q 40,36.75 40.5,34.5 L 40.35,34.45 39.55,33.9 Q 38.9,33.3 38.8,32.4 38.65,31.55 38.9,30.65 l 0.3,-0.85 q 0.25,-0.45 0.8,-0.8 1.4,-0.9 3.05,-1 h 0.5 q 0.85,0.1 1.5,0.8 l 0.6,1.05 1,-0.15 2.35,0.2 0.75,-0.75 q 0.85,-0.7 1.6,-0.8 l 1.05,-0.05 1.35,0.15 q 1.5,0.4 2.1,1.9 l 0.15,0.7 -0.05,0.6 -0.45,1.6 q -0.3,0.75 -1,1.3 l -1.35,0.8 -0.25,1.9 -0.5,1.7 M 48.15,37.7 47.9,37.55 47.05,37.2 46.85,36.6 46.75,36.15 Q 46.6,35.9 46.35,36 l -0.1,0.45 -0.4,1.3 v 0.3 H 45.8 l -0.55,0.7 -0.25,0.35 0.15,0.25 0.25,0.05 0.2,-0.15 q 0.45,-0.45 0.8,-0.65 h 0.15 l 0.4,-0.25 0.15,0.1 0.6,0.15 0.5,0.05 h 0.2 q 0.3,0 0.2,-0.35 L 48.15,37.7 M 41.3,35.2 q 0.2,0.55 0.8,0.9 0.95,0.5 1.75,-0.15 0.8,-0.65 0.7,-1.65 l -0.2,-0.65 q -0.3,-0.6 -0.95,-0.85 l -1.3,0.15 q -0.55,0.3 -0.8,1 -0.25,0.65 0,1.25 m 10.9,-2 -0.6,-1.05 q -0.5,-0.4 -1.1,-0.45 -0.6,-0.05 -1.15,0.25 l -0.8,0.9 q -0.25,0.55 -0.15,1.2 0.15,0.65 0.6,1.05 l 1.1,0.5 1.15,-0.25 0.6,-0.45 0.4,-0.95 L 52.2,33.2 M 30.7,23.35 q 0.1,3.5 -1.3,6 -1.2,2.2 -3.35,3.6 l 0.1,1.5 q 0,0.6 0.15,0.8 0.15,0.2 0.65,0.4 1.8,0.7 2.45,2.55 l 0.3,1.3 0.15,1.85 q -0.15,1.75 -2.45,3.85 0.45,0.65 0.3,1.5 -0.1,0.85 -0.75,1.35 -0.8,0.65 -2.75,0.55 l -0.85,-0.05 -0.15,0.25 -1.25,1.45 -1.8,0.2 -1.05,-0.2 q -1.05,0.9 -2.85,0.5 -1.4,-0.4 -1.9,-1.2 H 14.2 l -1.3,0.35 -1.55,0.2 q -1.25,0 -1.8,-0.4 L 8.75,48.9 Q 8.35,48.4 8.3,48 8.15,47.15 8.8,46.4 L 7.55,44.75 6.95,43.5 Q 4.7,44.2 3.5,44.9 l -2.1,1.5 0.85,-0.15 1.7,-0.1 q 0.9,0.05 1.7,0.5 0.8,0.5 1.05,1.3 0.4,1.4 -0.7,2.4 -0.9,0.9 -2.35,1.05 L 0.95,51.1 -0.1,50.9 V 42.7 Q 0.75,42.1 1.75,41.6 3.3,40.85 6.6,39.85 L 7.25,39.7 7.7,38.85 Q 8.55,37.65 9.75,37 l 1.05,-0.9 0.15,-0.8 0.3,-1.05 0.55,-1.15 -1.4,-1.05 Q 8.85,30.7 8.05,28.85 7.25,26.9 7.45,24.95 7.55,23.85 8.15,22.2 L 9.2,20.05 9.7,19.4 9.1,18.45 q -0.15,-0.4 -0.15,-1.35 0,-1.25 0.15,-1.85 l 0.95,-2 0.4,-1.1 q 0.2,-0.7 0.5,-1.1 0.45,-0.55 1.25,-0.7 0.7,-0.1 1.35,0.4 l 0.8,1 1,1.9 0.75,1 6.8,-0.2 0.35,-0.35 2.4,-2.65 q 0.75,-1.15 1.3,-1.4 0.5,-0.2 1,0 0.55,0.15 0.8,0.6 l 0.35,1.25 0.5,1.75 0.4,1.75 0.1,1.25 0.1,0.85 -0.05,0.75 0.1,0.7 0.1,1 v 0.25 q 0.35,1.4 0.35,3.15 m -14.25,4.9 -0.6,-0.05 -0.6,-0.1 -0.55,-0.35 -0.25,-0.35 0.05,-0.45 q 0,-0.35 -0.4,-0.55 -0.4,-0.1 -0.65,0.25 -0.15,0.25 -0.15,0.55 l 0.05,0.85 0.4,0.65 0.8,0.75 0.95,0.25 0.9,0.1 0.4,-0.05 0.1,0.25 0.75,0.6 0.5,0.15 0.7,0.1 1.05,-0.4 0.65,-0.6 0.5,0.05 q 1.2,0.05 2.45,-0.9 l 0.85,-0.85 q 0.4,-0.35 0.3,-0.75 l -0.4,-0.45 -0.6,0.05 -0.6,0.45 q -0.9,1 -1.85,0.95 L 20.35,28.2 19.9,27.95 H 19.85 L 19.7,27.8 19.4,27.15 q -0.3,-0.45 -0.9,-0.3 l -1,0.9 -0.45,0.3 -0.6,0.2 m -3.8,-2.45 q 0.7,0.05 1.3,-0.5 0.6,-0.55 0.65,-1.3 0.1,-0.65 -0.35,-1.35 Q 13.5,21.55 12.2,21.9 11,22.2 10.75,23.55 10.6,24.8 11.7,25.5 l 0.95,0.3 m 12.3,-0.4 q 1.3,0.5 2.25,-0.55 0.9,-1.05 0.2,-2.3 l -0.95,-0.8 -1.2,-0.1 q -0.6,0.1 -1.05,0.6 -0.4,0.45 -0.5,1.1 -0.05,0.65 0.3,1.25 0.35,0.6 0.95,0.8"
         fill="#000000"
         fill-rule="evenodd"
         stroke="none"
         id="path6" />
      <path
         d="m 52.2,33.2 0.05,0.75 -0.4,0.95 -0.6,0.45 L 50.1,35.6 49,35.1 q -0.45,-0.4 -0.6,-1.05 -0.1,-0.65 0.15,-1.2 l 0.8,-0.9 q 0.55,-0.3 1.15,-0.25 0.6,0.05 1.1,0.45 l 0.6,1.05 m -10.9,2 q -0.25,-0.6 0,-1.25 0.25,-0.7 0.8,-1 l 1.3,-0.15 q 0.65,0.25 0.95,0.85 l 0.2,0.65 q 0.1,1 -0.7,1.65 -0.8,0.65 -1.75,0.15 -0.6,-0.35 -0.8,-0.9 m 6.85,2.5 0.45,0.6 q 0.1,0.35 -0.2,0.35 h -0.2 l -0.5,-0.05 -0.6,-0.15 -0.15,-0.1 -0.4,0.25 H 46.4 q -0.35,0.2 -0.8,0.65 L 45.4,39.4 45.15,39.35 45,39.1 l 0.25,-0.35 0.55,-0.7 h 0.05 v -0.3 l 0.4,-1.3 0.1,-0.45 q 0.25,-0.1 0.4,0.15 l 0.1,0.45 0.2,0.6 0.85,0.35 0.25,0.15 M 24.95,25.4 Q 24.35,25.2 24,24.6 23.65,24 23.7,23.35 q 0.1,-0.65 0.5,-1.1 0.45,-0.5 1.05,-0.6 l 1.2,0.1 0.95,0.8 q 0.7,1.25 -0.2,2.3 -0.95,1.05 -2.25,0.55 M 12.65,25.8 11.7,25.5 Q 10.6,24.8 10.75,23.55 11,22.2 12.2,21.9 q 1.3,-0.35 2.05,0.75 0.45,0.7 0.35,1.35 -0.05,0.75 -0.65,1.3 -0.6,0.55 -1.3,0.5 m 3.8,2.45 0.6,-0.2 0.45,-0.3 1,-0.9 q 0.6,-0.15 0.9,0.3 l 0.3,0.65 0.15,0.15 h 0.05 l 0.45,0.25 0.85,0.2 q 0.95,0.05 1.85,-0.95 l 0.6,-0.45 0.6,-0.05 0.4,0.45 q 0.1,0.4 -0.3,0.75 L 23.5,29 q -1.25,0.95 -2.45,0.9 l -0.5,-0.05 -0.65,0.6 -1.05,0.4 -0.7,-0.1 L 17.65,30.6 16.9,30 16.8,29.75 16.4,29.8 15.5,29.7 14.55,29.45 13.75,28.7 13.35,28.05 13.3,27.2 q 0,-0.3 0.15,-0.55 0.25,-0.35 0.65,-0.25 0.4,0.2 0.4,0.55 l -0.05,0.45 0.25,0.35 0.55,0.35 0.6,0.1 0.6,0.05"
         fill="#ffffff"
         fill-rule="evenodd"
         stroke="none"
         id="path7" />
    </g>
    <g
       id="shape2"
       transform="translate(1.5,1.5)">
      <path
         d="M 0,23.8 V 0 H 64.1 V 23.8 57.55 H 0 Z"
         fill="none"
         stroke="#000000"
         stroke-linecap="round"
         stroke-linejoin="round"
         stroke-width="3"
         id="path8" />
    </g>
  </defs>
</svg>
