<?xml version="1.0" encoding="UTF-8" standalone="no"?>
<svg
   ffdec:objectType="frame"
   height="44.428001"
   width="78.599998"
   version="1.1"
   id="svg11"
   sodipodi:docname="308.svg"
   xmlns:inkscape="http://www.inkscape.org/namespaces/inkscape"
   xmlns:sodipodi="http://sodipodi.sourceforge.net/DTD/sodipodi-0.dtd"
   xmlns:xlink="http://www.w3.org/1999/xlink"
   xmlns="http://www.w3.org/2000/svg"
   xmlns:svg="http://www.w3.org/2000/svg"
   xmlns:ffdec="https://www.free-decompiler.com/flash">
  <sodipodi:namedview
     id="namedview11"
     pagecolor="#ffffff"
     bordercolor="#000000"
     borderopacity="0.25"
     inkscape:showpageshadow="2"
     inkscape:pageopacity="0.0"
     inkscape:pagecheckerboard="0"
     inkscape:deskcolor="#d1d1d1"
     fit-margin-top="5"
     fit-margin-left="5"
     fit-margin-right="5"
     fit-margin-bottom="5" />
  <g
     transform="translate(2,2.05)"
     id="g3">
    <use
       ffdec:characterId="1"
       height="42.700001"
       transform="translate(-1.75,-2)"
       width="76.449997"
       xlink:href="#shape0"
       id="use1" />
    <use
       ffdec:characterId="301"
       height="42.950001"
       transform="translate(-0.3,-0.55)"
       width="71.800003"
       xlink:href="#shape1"
       id="use2" />
    <use
       ffdec:characterId="3"
       height="44.349998"
       transform="translate(-2,-2.05)"
       width="78.599998"
       xlink:href="#shape2"
       id="use3" />
  </g>
  <defs
     id="defs11">
    <g
       id="shape0"
       transform="translate(1.75,2)">
      <path
         d="M 2.8,0 V -0.4 H 5.4 V 0 H 9.7 V 19.45 0 H 20.55 L 19.3,19.45 H 9.7 0.25 V 0 H 2.8"
         fill="#ffffff"
         fill-rule="evenodd"
         stroke="none"
         id="path3" />
      <path
         d="M 0.25,19.45 H 9.7 19.3 L 18.7,28.6 16,28.5 10.95,27.95 9.7,27.8 Q 7.45,27.6 5.85,27.75 4.05,27.9 1.5,28.6 0.75,28.8 0.25,29.15 v -9.7 m 9.45,0 v 8.35 -8.35"
         fill="#121212"
         fill-rule="evenodd"
         stroke="none"
         id="path4" />
      <path
         d="m 9.7,27.8 1.25,0.15 5.05,0.55 2.7,0.1 h 1.05 l 3.75,0.15 q 2.45,0.3 3.6,1.25 0.6,0.5 0.6,1.1 0,0.65 -0.8,1 l -1.3,0.2 -7.15,0.15 -5.6,-0.3 L 9.7,31.75 7.95,31.6 3.1,31.95 0.95,32.3 0.25,32.1 -0.35,31.55 -0.5,31.3 V 29.9 L 0.25,29.15 Q 0.75,28.8 1.5,28.6 4.05,27.9 5.85,27.75 7.45,27.6 9.7,27.8 v 3.95 -3.95"
         fill="#999999"
         fill-rule="evenodd"
         stroke="none"
         id="path5" />
      <path
         d="M 2.8,0 H 0.25 M 9.7,0 H 5.4 m 16.15,0 h 10.7 M 20.55,0 H 9.7"
         fill="none"
         stroke="#666666"
         stroke-linecap="round"
         stroke-linejoin="round"
         stroke-width="4"
         id="path6" />
      <path
         d="m 9.7,-0.4 h 65 V 40.5 H 47.05 L 45.5,40.7 27,40.65 25.95,40.5 H 9.7 -0.5 V -0.4 H 9.7 V 40.5 -0.4"
         fill="#ffffff"
         fill-rule="evenodd"
         stroke="none"
         id="path7" />
    </g>
    <g
       id="shape1"
       transform="translate(0.3,0.55)">
      <path
         d="m 10.7,16.95 q 0.1,1.35 -1,2 l -0.5,0.25 1.2,0.8 1.65,0.7 1.55,0.1 1.5,-0.1 q 2,0 2.75,1.15 -0.15,1 -1.45,1.55 -1.8,0.9 -3.9,0.85 -2.15,-0.05 -3.95,-1 Q 6.6,22.2 5.05,20.15 4.15,19.1 3.6,18.05 L 1.8,13.25 Q 0.2,8.95 0.05,6.65 0.05,6.15 0.35,6.2 L 0.55,6.4 2.4,9.95 4.75,14.2 Q 3.35,10.9 2.5,8.2 L 1.6,5.3 0.6,2.85 -0.2,0.35 q -0.25,-0.8 0.3,-0.9 l 0.65,0.5 3.6,6.35 1.4,2.25 1.4,2 2.85,4.65 q 0.65,1.2 0.7,1.75 m 33.25,4.05 -0.55,0.35 -0.5,0.15 -0.45,-0.15 -0.4,-0.75 0.35,-0.7 0.95,-0.4 0.5,-0.1 0.5,0.25 0.2,0.55 -0.6,0.8 m 12.75,5.8 0.1,0.25 q 0.2,0.4 0,0.85 l -0.65,0.7 -1.7,-0.15 Q 53.5,28 53.6,27.1 q 0.05,-0.4 0.45,-0.75 l 0.75,-0.6 0.9,-0.75 1.1,-0.1 q 0.4,0.15 0.4,0.75 l -0.3,0.8 -0.2,0.35 m -4.45,13 -0.5,0.4 -0.6,0.15 -0.7,0.05 L 50,40.35 H 49.35 46.8 L 46.25,40.3 q -0.8,-0.3 -0.85,-1 l -0.9,0.6 -1.9,0.6 -2.05,0.15 -4.4,0.35 -4.45,0.05 q -1.95,-0.1 -2.65,-1.1 -0.5,-0.7 -0.2,-1.6 0.25,-0.9 1.05,-1.2 l 1.2,-0.15 1.15,0.1 1.55,-0.25 v -0.4 q 0.1,-0.65 0.55,-1.1 l 0.5,-0.5 0.2,-0.95 -0.2,-1.85 V 31.9 l -0.8,-0.45 Q 33.2,30.8 33.1,29.7 l 0.1,-0.8 0.35,-0.65 0.8,-1.1 2.35,-2.7 q 0.75,-0.95 1.35,-1 l 0.9,0.15 0.6,0.25 q 0.55,0.45 0.55,0.95 0.1,0.7 -0.5,0.95 l -0.45,0.2 q -0.35,0.15 -0.6,0.7 0.75,0.75 0.65,1.9 l 0.75,-0.2 1.65,-0.25 q 1.45,-0.05 3.65,1.65 l 1.95,2.15 h 0.35 L 50,32 q -0.45,-0.25 -0.6,-0.75 -0.15,-0.55 0.15,-0.95 0.6,-0.85 1.8,-0.45 1.7,0.4 2.2,2.05 l 0.3,1.45 0.15,1.3 -0.3,1.15 q -0.6,0.85 -2.25,0.85 l -3.9,-0.4 -0.85,1.5 H 47 l 0.95,0.1 1.25,0.15 0.45,0.2 1.35,0.35 0.85,0.2 0.4,0.45 v 0.6 M 25.9,12.3 q -0.45,0.4 -1.3,0.2 -0.65,-0.2 -2.2,-1.2 L 18.3,8.55 Q 13.75,6.25 11.65,4.75 L 8.55,2.45 8.35,2.25 Q 8.3,2.1 8.55,2 L 8.9,1.95 12.6,3 17.8,4.85 q 2.9,1.05 4.55,2.15 2.35,1.45 3.5,3.6 0.55,1.15 0.05,1.7 M 2.15,0.15 q 0.15,-0.3 0.6,-0.2 L 3.3,0.3 Q 8,4.05 12.75,6.45 L 15.6,8 l 2.6,2.05 3.35,3.3 0.9,1.6 q 0.25,1.05 -0.4,1.7 -0.6,0.45 -1.45,0.3 -0.65,-0.15 -1.35,-0.65 l -1.7,-1.2 -8.3,-7 -1.5,-1.4 Q 3.8,2.85 2.35,1 1.9,0.45 2.15,0.15 m 27.35,33.9 q 0.25,-0.75 1,-1.15 l 0.95,-0.2 1.55,0.25 0.8,0.75 q 0.45,0.75 0,1.55 -0.45,0.7 -1.7,1 l -1.75,-0.1 q -0.55,-0.25 -0.8,-0.9 -0.25,-0.6 -0.05,-1.2"
         fill="#999999"
         fill-rule="evenodd"
         stroke="none"
         id="path8" />
      <path
         d="m 31.2,12.9 q 0.9,0.8 0.9,2.1 v 0.3 l -0.2,0.95 -0.6,0.9 -0.75,0.65 -0.4,0.25 -0.55,0.2 q -1.1,0.25 -2.25,-0.35 -1.6,-0.8 -1.7,-2.75 0,-1.9 1.65,-2.8 l 1.15,-0.4 q 0.65,1.1 1.85,1.15 l 0.9,-0.2 m 24.1,1.55 q 0,-0.75 0.45,-1.55 0.55,-0.85 1.5,-1.35 l 1.9,-0.3 q 1,0.15 1.8,0.85 0.8,0.7 1.05,1.7 l -0.05,1.7 Q 61.7,16.4 61.1,17 l -0.75,0.6 -0.5,-0.45 q -1.2,-0.8 -2.75,-0.95 l -1,0.15 -0.25,0.15 -0.05,-0.1 Q 55.25,15.45 55.3,14.45 M 50.9,10.8 q 0.3,1.55 -0.65,2.8 l -1,0.85 -0.45,-0.8 q -1,-1.05 -3.45,-1.05 l -0.75,0.05 -0.15,-1.4 q 0.1,-1.35 1.1,-2.2 0.95,-0.9 2.3,-0.8 1.1,0 2,0.75 0.8,0.65 1.05,1.8 m 0.3,4.45 -0.4,0.4 q -0.3,0.3 -0.25,0.5 0.1,0.45 0.65,0.2 0.55,-0.3 0.65,-0.3 l 0.5,0.1 0.3,0.45 v 0.3 l 0.5,0.35 0.45,0.15 0.35,-0.25 -0.1,-0.4 Q 53.7,16.25 54,15.85 l 0.85,-0.05 0.25,0.75 v 0.6 l -0.05,0.8 -1.1,0.85 Q 52.5,19.05 51.7,17.9 L 51.65,17.75 Q 50.3,18.1 49.65,17.5 49.3,17.15 49.2,16.65 l 0.05,-0.55 0.2,-0.75 q 0.25,-0.55 0.9,-0.7 l 0.6,0.05 q 0.35,0.15 0.25,0.55 M 21.5,17.7 q -0.8,0.85 -1.95,0.95 -1.1,0.15 -2.1,-0.5 -1.3,-0.95 -1.3,-2.55 l 0.05,-0.75 0.85,-0.15 0.9,-0.4 0.75,-0.5 0.8,-0.85 0.3,-0.45 0.7,0.2 q 1.2,0.55 1.7,1.85 0.25,0.8 0.1,1.65 -0.2,0.9 -0.8,1.5 m 0.8,0.75 0.95,-0.15 H 23.7 V 18.15 L 23.75,18 v -0.25 l 0.15,-0.6 0.2,-0.25 h 0.4 l 0.3,0.1 0.15,0.25 0.05,0.95 v 0.15 l 0.7,0.1 q 0.45,0.1 0.7,0.5 v 0.45 l -0.3,0.3 -0.7,-0.05 Q 24.2,19.3 23.3,20 l -0.75,0.45 Q 22,20.7 21.5,20.2 q -0.35,-0.5 -0.1,-1.1 0.35,-0.5 0.9,-0.65"
         fill="#ffffff"
         fill-rule="evenodd"
         stroke="none"
         id="path9" />
      <path
         d="m 29.6,18.25 -0.4,0.5 q -1.3,1.7 -3.25,2.8 l -1.8,0.7 -1.7,0.2 -2.05,-0.1 q -0.75,-0.15 -1.45,-0.5 -0.8,0.65 -1.9,1.1 -1.8,0.75 -4.35,0.65 L 10.55,23.25 8.7,22.15 6.6,19.95 Q 5.95,19.05 5.65,18.1 L 5.45,15.75 5.75,13.6 Q 6.45,11.15 8.4,9.7 L 8.55,8.65 Q 8.45,7.95 8.1,7.85 L 7.4,7.95 4.9,8.45 Q 3.4,8.35 2.65,7.45 2.15,6.95 2,6.15 L 1.9,4.65 Q 2,3.8 2.35,3.05 2.8,2.05 3.75,1 l 1.65,-1.25 0.95,-0.3 q 0.7,0.1 0.6,0.65 L 6.35,0.85 Q 5.3,1.7 4.3,4.15 4,4.85 4.25,5.3 q 0.3,0.6 1.2,0.4 l 1.2,-0.6 q 1.25,-0.6 2.6,-0.4 0.9,0.2 1.45,0.65 0.8,0.6 1.2,1.85 l 0.2,1.1 h 1.05 Q 13.2,7 13.8,5.8 q 0.75,-1.3 2,-2.05 0.8,-0.55 1.5,-0.6 h 1.3 L 20,3.4 q 1.35,0.5 1.8,1.8 h 1.3 q 1.15,0.05 2.2,0.45 0.75,-0.65 1.8,-0.9 l 1.3,-0.15 1.4,0.1 q 1,0.15 1.75,0.75 1.45,1.05 1.75,2.7 0.35,1.75 -0.65,3.1 l -0.6,0.75 -0.55,0.7 -0.3,0.2 -0.9,0.2 q -1.2,-0.05 -1.85,-1.15 l -1.15,0.4 q -1.65,0.9 -1.65,2.8 0.1,1.95 1.7,2.75 1.15,0.6 2.25,0.35 M 32.1,15 32.65,14.55 q 2.3,-1.7 5.3,-1.3 2.3,0.35 4.85,2.35 l -0.05,-0.4 q -0.1,-2.1 0.35,-3.55 0.45,-1.5 1.55,-2.95 L 44.6,8.5 V 7.55 Q 44.8,6.3 46.55,3.6 l 1.4,-2.25 q 0.7,-1.3 1.5,-1.65 1,-0.4 1.85,0.25 0.8,0.7 1.3,2.8 l 0.2,0.4 2.25,-0.05 2.85,0.75 q 1.9,0.65 3.35,1.45 l 0.2,-0.2 1.15,-1.6 q 0.6,-1.1 1.15,-1.55 0.95,-0.75 1.85,-0.3 0.8,0.3 1.1,1.75 0.35,1.4 0.35,4.3 L 67,10 q -0.15,2.95 -0.95,4.6 l -0.35,1.8 q -1,4 -3.7,6.35 l -0.85,0.7 q 2.6,0 4.65,0.7 3.3,1.1 4.85,3.75 1.55,2.45 0.35,4.45 -0.75,1.2 -3.15,2.1 l -3.35,1 -2.7,0.8 q -2,0.8 -3.35,2.65 l -1.05,1.35 q -0.7,0.55 -1.45,0.55 -0.4,0.3 -0.9,0.4 -1,0.25 -1.75,-0.5 -0.8,-0.75 -0.75,-2.7 l -0.7,-0.05 -3.6,-0.7 -1.05,1.65 q 0.75,0.4 0.75,1.2 l -0.15,0.5 -0.5,0.25 q -0.95,0.2 -1.55,0 -0.85,-0.15 -1.2,-0.9 -0.25,-0.65 0,-1.2 l 0.6,-1.1 1.15,-1.6 q 0.4,-0.7 0.9,-0.75 l 0.75,0.1 2.05,0.5 2.35,0.4 0.25,0.1 q 0.15,-1.95 0.4,-3 l 0.5,-1.7 0.3,-1.25 0.05,-0.2 H 53.8 L 52.75,29.9 51.9,29.65 50.7,32.35 49.95,33.45 47.7,33.3 45,31.8 q -1,-0.55 -3.1,-1.35 l -2.35,-0.9 q -1.25,-0.5 -1.6,-1.15 -0.35,-0.7 0.15,-2 0.8,-2.2 2.2,-3.85 l -1,-0.4 -0.25,-0.1 -3.1,2.6 q -1,1 -1.85,2.15 l -0.3,0.4 q -1,1.35 -1.7,2.8 l 0.3,0.1 2.85,1.35 q 0.9,0.4 1.05,0.8 l 0.15,0.6 -0.05,0.85 -0.3,0.65 -1.55,2.95 Q 34,38.35 33.1,38.25 L 32.35,38 30.5,37.45 30.3,37.4 l 0.1,1.1 0.4,2 q -0.15,1.25 -1.35,1.75 -1.25,0.4 -2.2,-0.45 -0.5,-0.45 -0.9,-1.8 -0.85,-3.85 1.2,-8.85 1.05,-2.5 2.65,-4.7 -0.3,-0.7 -0.3,-1.9 L 29.8,21.6 q -0.1,-1.3 0.05,-2.35 l 0.3,-1.2 0.4,-0.25 0.75,-0.65 0.6,-0.9 0.2,-0.95 V 15 M 64,7.2 V 7.25 7.3 7.2 m -12.8,8.05 q 0.1,-0.4 -0.25,-0.55 l -0.6,-0.05 q -0.65,0.15 -0.9,0.7 l -0.2,0.75 -0.05,0.55 q 0.1,0.5 0.45,0.85 0.65,0.6 2,0.25 l 0.05,0.15 q 0.8,1.15 2.25,0.9 l 1.1,-0.85 0.05,-0.8 v -0.6 L 54.85,15.8 54,15.85 q -0.3,0.4 -0.15,0.9 l 0.1,0.4 -0.35,0.25 -0.45,-0.15 -0.5,-0.35 v -0.3 l -0.3,-0.45 -0.5,-0.1 q -0.1,0 -0.65,0.3 -0.55,0.25 -0.65,-0.2 -0.05,-0.2 0.25,-0.5 l 0.4,-0.4 M 50.9,10.8 Q 50.65,9.65 49.85,9 q -0.9,-0.75 -2,-0.75 -1.35,-0.1 -2.3,0.8 -1,0.85 -1.1,2.2 l 0.15,1.4 0.75,-0.05 q 2.45,0 3.45,1.05 l 0.45,0.8 1,-0.85 q 0.95,-1.25 0.65,-2.8 m 4.4,3.65 q -0.05,1 0.5,1.95 l 0.05,0.1 0.25,-0.15 1,-0.15 q 1.55,0.15 2.75,0.95 l 0.5,0.45 0.75,-0.6 q 0.6,-0.6 0.85,-1.5 L 62,13.8 q -0.25,-1 -1.05,-1.7 -0.8,-0.7 -1.8,-0.85 l -1.9,0.3 q -0.95,0.5 -1.5,1.35 -0.45,0.8 -0.45,1.55 M 44.1,20.1 43.85,19.7 q -1.75,0.55 -3.25,1.4 l 0.55,0.6 q 1.35,-1.2 2.95,-1.6 m 9.85,6.65 -1.25,1.5 0.2,0.1 1.5,0.7 0.5,-1.2 q 0.75,-1.65 1.55,-2.7 l -0.7,0.05 -0.9,0.65 -0.9,0.9 m 9.45,1.65 -3.1,-0.7 -2.2,-0.65 q -1.3,3.45 -1.65,7.05 1.25,-1.1 2.6,-1.75 0.85,-0.35 3,-1 l 4.2,-1.2 Q 65.6,29 63.4,28.4 M 22.3,18.45 q -0.55,0.15 -0.9,0.65 -0.25,0.6 0.1,1.1 0.5,0.5 1.05,0.25 L 23.3,20 q 0.9,-0.7 2.1,-0.35 l 0.7,0.05 0.3,-0.3 v -0.45 q -0.25,-0.4 -0.7,-0.5 L 25,18.35 V 18.2 L 24.95,17.25 24.8,17 24.5,16.9 h -0.4 l -0.2,0.25 -0.15,0.6 V 18 L 23.7,18.15 V 18.3 H 23.25 L 22.3,18.45 M 21.5,17.7 q 0.6,-0.6 0.8,-1.5 0.15,-0.85 -0.1,-1.65 -0.5,-1.3 -1.7,-1.85 l -0.7,-0.2 -0.3,0.45 -0.8,0.85 -0.75,0.5 -0.9,0.4 -0.85,0.15 -0.05,0.75 q 0,1.6 1.3,2.55 1,0.65 2.1,0.5 1.15,-0.1 1.95,-0.95 m 2.75,6.75 q 0.1,-0.85 0.8,-1.25 l 1.45,0.1 q 0.6,0.35 0.95,1.35 l 0.7,2 q 0.25,0.7 0,1.15 -0.35,0.45 -0.9,0.25 L 26.4,27.55 24.95,26.1 q -0.7,-1 -0.7,-1.65 m 15.45,-6 0.3,-0.1 -0.7,-0.4 q -1.1,-0.65 -1.85,-0.7 -0.95,-0.15 -2.05,0.6 -0.8,0.45 -1.15,1.2 -0.3,0.65 -0.2,1.55 l 0.25,1.45 q 2.45,-2.2 5.4,-3.6 m -18,16.05 2.25,0.45 0.35,0.2 q 0.2,0.2 0,0.65 l -0.55,0.4 -1.3,0.25 -3.9,0.5 -1.4,0.35 -0.55,0.35 -1.3,0.2 q -0.7,-0.1 -1.15,-0.6 -0.45,-0.5 -0.55,-1.15 -0.1,-0.7 0.25,-1.3 l 1,-0.85 1.25,-0.15 0.8,0.3 2.8,0.4 h 2 m 1.35,-2.95 -4.2,-0.8 q -1.2,-0.25 -1.45,-1.5 -0.25,-1.2 0.85,-1.95 l 2.15,0.1 0.6,0.6 1.4,0.9 0.6,0.2 1.9,0.95 0.7,0.8 q 0.2,0.7 -0.3,0.95 h -0.9 l -0.75,-0.05 -0.6,-0.2 m 7.55,2.8 -0.15,0.9 1.75,0.4 h 0.4 l 0.25,-0.3 1.05,-2.05 Q 32.55,32.6 31.35,31.75 30.9,33 30.6,34.35"
         fill="#000000"
         fill-rule="evenodd"
         stroke="none"
         id="path10" />
    </g>
    <g
       id="shape2"
       transform="translate(2,2.05)">
      <path
         d="M -0.5,-0.4 V -0.55 H 75.1 V -0.4 40.8 H -0.5 Z"
         fill="none"
         stroke="#000000"
         stroke-linecap="round"
         stroke-linejoin="round"
         stroke-width="3"
         id="path11" />
    </g>
  </defs>
</svg>
