<?xml version="1.0" encoding="UTF-8" standalone="no"?>
<svg
   ffdec:objectType="frame"
   height="44.349998"
   width="78.599998"
   version="1.1"
   id="svg12"
   sodipodi:docname="45.svg"
   xmlns:inkscape="http://www.inkscape.org/namespaces/inkscape"
   xmlns:sodipodi="http://sodipodi.sourceforge.net/DTD/sodipodi-0.dtd"
   xmlns:xlink="http://www.w3.org/1999/xlink"
   xmlns="http://www.w3.org/2000/svg"
   xmlns:svg="http://www.w3.org/2000/svg"
   xmlns:ffdec="https://www.free-decompiler.com/flash">
  <sodipodi:namedview
     id="namedview12"
     pagecolor="#ffffff"
     bordercolor="#000000"
     borderopacity="0.25"
     inkscape:showpageshadow="2"
     inkscape:pageopacity="0.0"
     inkscape:pagecheckerboard="0"
     inkscape:deskcolor="#d1d1d1"
     fit-margin-top="5"
     fit-margin-left="5"
     fit-margin-right="5"
     fit-margin-bottom="5" />
  <g
     transform="translate(2,2.05)"
     id="g3">
    <use
       ffdec:characterId="1"
       height="42.700001"
       transform="translate(-1.75,-2)"
       width="76.449997"
       xlink:href="#shape0"
       id="use1" />
    <use
       ffdec:characterId="45"
       height="42.650002"
       transform="translate(-1.6,-1.45)"
       width="77.099998"
       xlink:href="#shape1"
       id="use2" />
    <use
       ffdec:characterId="3"
       height="44.349998"
       transform="translate(-2,-2.05)"
       width="78.599998"
       xlink:href="#shape2"
       id="use3" />
  </g>
  <defs
     id="defs12">
    <g
       id="shape0"
       transform="translate(1.75,2)">
      <path
         d="M 2.8,0 V -0.4 H 5.4 V 0 H 9.7 V 19.45 0 H 20.55 L 19.3,19.45 H 9.7 0.25 V 0 H 2.8"
         fill="#ffffff"
         fill-rule="evenodd"
         stroke="none"
         id="path3" />
      <path
         d="M 0.25,19.45 H 9.7 19.3 L 18.7,28.6 16,28.5 10.95,27.95 9.7,27.8 Q 7.45,27.6 5.85,27.75 4.05,27.9 1.5,28.6 0.75,28.8 0.25,29.15 v -9.7 m 9.45,0 v 8.35 -8.35"
         fill="#121212"
         fill-rule="evenodd"
         stroke="none"
         id="path4" />
      <path
         d="m 9.7,27.8 1.25,0.15 5.05,0.55 2.7,0.1 h 1.05 l 3.75,0.15 q 2.45,0.3 3.6,1.25 0.6,0.5 0.6,1.1 0,0.65 -0.8,1 l -1.3,0.2 -7.15,0.15 -5.6,-0.3 L 9.7,31.75 7.95,31.6 3.1,31.95 0.95,32.3 0.25,32.1 -0.35,31.55 -0.5,31.3 V 29.9 L 0.25,29.15 Q 0.75,28.8 1.5,28.6 4.05,27.9 5.85,27.75 7.45,27.6 9.7,27.8 v 3.95 -3.95"
         fill="#999999"
         fill-rule="evenodd"
         stroke="none"
         id="path5" />
      <path
         d="M 2.8,0 H 0.25 M 9.7,0 H 5.4 m 16.15,0 h 10.7 M 20.55,0 H 9.7"
         fill="none"
         stroke="#666666"
         stroke-linecap="round"
         stroke-linejoin="round"
         stroke-width="4"
         id="path6" />
      <path
         d="m 9.7,-0.4 h 65 V 40.5 H 47.05 L 45.5,40.7 27,40.65 25.95,40.5 H 9.7 -0.5 V -0.4 H 9.7 V 40.5 -0.4"
         fill="#ffffff"
         fill-rule="evenodd"
         stroke="none"
         id="path7" />
    </g>
    <g
       id="shape1"
       transform="translate(1.6,1.45)">
      <path
         d="M 21.5,1.5 21.45,1 q 0,-0.65 0.7,-0.95 l 1.25,-0.15 1.25,0.15 1.55,-0.1 1.5,-0.1 q 0.9,0.1 1.3,0.7 0.25,0.45 0.15,1.5 l -0.3,1 -0.3,0.35 -0.2,0.35 -1.2,1.75 q -0.8,1 -1.55,1 -0.5,0 -0.9,-0.3 L 21.9,4.3 21.05,3.7 Q 20.65,3.2 20.8,2.8 l 0.3,-0.3 h 0.55 l 0.95,0.05 1.85,0.1 0.05,0.45 0.95,2.35 q 0.3,0.6 0.65,0.65 0.45,0 0.55,-0.55 L 26.5,4.75 25.45,2.65 25.3,2.3 25.4,2.05 26,1.4 26.6,0.7 V 0.25 L 26.25,0 25.75,0.35 24.8,1.65 24.6,1.95 24.05,1.85 21.8,1.5 H 21.5 M 34.6,4.35 34,4.7 Q 33.25,5.05 32.6,4.7 31.85,4.4 31.7,3.6 L 31.6,3.25 31.2,2.75 Q 30.6,2.1 31.05,1.3 l 0.65,-0.6 1.75,-1.3 q 0.55,-0.25 1.1,0 0.75,-0.85 1.85,-0.85 1.15,0 1.7,0.95 h 0.05 l 1.05,0.55 q 0.95,0.75 0.9,1.5 -0.05,0.6 -0.7,1.15 L 38.6,3.5 Q 37.75,4.35 37.2,4.3 36.55,4.25 36.3,3.7 35.15,4 34.6,4.35 M 6.9,0.2 7.6,0.55 8.05,1.45 7.55,2.55 Q 7.2,3.3 7,4.95 L 6,8.75 V 8.8 L 5.95,8.7 5.85,8.05 4.3,4.15 Q 4.25,3.65 4.6,3.2 4.9,2.6 5.35,2.15 L 5.5,1.85 5.75,1.55 6.35,0.8 6.8,0.5 6.9,0.2 M 5.2,9 4.8,8.8 H 4.05 L 2.6,9.1 0.75,9.05 -0.2,8.9 Q -0.7,8.65 -0.8,8.1 L -0.75,7.3 -0.9,6.1 -0.85,4.4 -0.7,2.75 v -1.2 l -0.05,-1 0.45,-0.9 0.85,-0.3 q 2.7,-0.4 5.45,0.5 l -0.15,0.1 -1.1,1.9 -0.6,0.8 -0.5,0.6 -0.25,0.3 Q 3.25,3.85 3.55,4.6 L 4.95,8.1 5.2,9 M 67,0.2 l 0.1,0.3 0.45,0.3 0.6,0.75 0.25,0.3 0.15,0.3 0.75,1.05 q 0.35,0.45 0.3,0.95 L 68.05,8.05 67.95,8.7 67.9,8.8 V 8.75 l -1,-3.8 Q 66.7,3.3 66.35,2.55 l -0.5,-1.1 Q 65.85,1 66.3,0.55 L 67,0.2 m 1.7,8.8 0.25,-0.9 1.4,-3.5 0.15,-1.05 -0.25,-0.3 -0.5,-0.6 -0.6,-0.8 -1.1,-1.9 -0.15,-0.1 q 2.75,-0.9 5.45,-0.5 l 0.85,0.3 0.45,0.9 -0.05,1 v 1.2 L 74.75,4.4 74.8,6.1 74.65,7.3 74.7,8.1 Q 74.6,8.65 74.1,8.9 L 73.15,9.05 71.3,9.1 69.85,8.8 H 69.1 L 68.7,9 M 52.8,2.5 53.1,2.8 q 0.15,0.4 -0.25,0.9 L 52,4.3 49.2,6.2 48.3,6.5 q -0.75,0 -1.55,-1 l -1.2,-1.75 -0.2,-0.35 -0.3,-0.35 -0.3,-1 Q 44.65,1 44.9,0.55 q 0.4,-0.6 1.3,-0.7 l 1.5,0.1 1.55,0.1 1.25,-0.15 1.25,0.15 q 0.7,0.3 0.7,0.95 L 52.4,1.5 H 52.1 L 49.85,1.85 49.3,1.95 49.1,1.65 48.15,0.35 47.65,0 47.3,0.25 V 0.7 l 0.6,0.7 0.6,0.65 0.1,0.25 -0.15,0.35 -1.05,2.1 -0.15,0.8 Q 47.35,6.1 47.8,6.1 L 48.45,5.45 49.4,3.1 49.45,2.65 51.3,2.55 52.25,2.5 h 0.55 m 7.9,-0.8 0.6,0.35 1.15,1 1.3,0.8 L 65,4.6 q 0.3,0.45 0,1.6 l -1.35,4.35 -0.15,1.1 0.1,0.8 -0.3,-0.35 -1,-1.45 L 61.35,9.2 60.6,8.05 60.7,7.5 V 6.35 L 60.85,3.65 60.7,1.7 m 2,11.65 h -0.1 -1.45 q -0.75,0 -2.6,0.65 L 57.2,14.1 56.55,13.4 54.25,10.95 53.05,9.3 Q 52.05,7.9 51.9,7 51.75,6.4 51.95,5.95 52.1,5.6 52.75,5.15 L 55.2,3.3 q 0.65,-0.45 1.1,-0.45 0.5,0.1 0.9,0.65 l 0.75,0.9 1.1,-1.4 0.4,-0.85 0.25,-0.3 0.1,1.95 -0.2,4.4 0.05,0.65 0.4,0.4 q 0.7,0.75 1.4,2 l 1.05,1.8 0.2,0.3 m 4.95,-2.25 0.4,0.15 q 1.7,0.8 3.2,1.7 l 0.65,0.65 -0.2,1.25 -1.7,3.7 -0.8,0.8 -0.25,0.1 v -0.2 l -0.05,-0.8 0.15,-2 0.2,-1.35 -0.65,-1.8 -0.95,-2.2 M 67.7,18.95 67.65,18.9 Q 65.45,17.8 64.7,16.65 64.15,15.9 64.35,15.3 V 15.15 14.8 l 1.45,-2.65 q 0.45,-0.9 0.95,-1.1 l 1.25,3.6 0.15,0.8 -0.1,0.55 -0.25,2.1 -0.1,0.85 m -7.25,-3.4 0.9,0.45 2.4,1.6 q 1.6,0.95 2.4,1.6 l 0.65,0.65 q 0.3,0.45 0.2,1.3 l -0.7,3.15 -0.85,3.1 -0.2,1.1 -0.05,0.1 -0.05,-0.1 -4.6,-5 -0.35,-0.3 0.05,-1.8 0.2,-5.85 m 3.7,13.85 -0.95,-0.05 q -0.4,0.05 -1.4,0.7 l -1.45,0.45 -1.3,-0.85 -2.6,-1.7 -1.3,-0.75 Q 54.8,26.85 54.7,25.55 54.6,22.5 54.85,19.4 q 0.1,-1.05 0.65,-1.15 l 0.4,0.8 2.95,-3 0.55,-0.5 0.1,0.7 0.1,6.25 V 23 l -3.8,-0.15 q -0.4,0 -0.4,0.2 l 0.25,0.3 H 56 l 1,0.25 1,0.05 1.45,0.15 0.25,0.05 0.05,0.15 0.2,0.1 4.2,5.3 m 4,-0.65 Q 67.6,28.3 67.5,27.85 67.35,27.3 67.75,26.3 q 0.95,-2.45 2.15,-4.5 0.5,-1 1.15,-1.2 l 1.7,0.2 1.5,0.45 q 0.9,0.35 1.1,1.05 0.15,0.45 -0.2,1.75 -0.45,1.6 -0.15,4.05 l 0.5,4.1 -0.15,3.05 q -0.2,1.9 -0.1,3 l -0.1,1.7 Q 74.7,40.8 73.15,41 L 70.8,41.05 68.5,40.9 65.45,40.95 62.4,41 59.75,40.75 h -2.6 l -1.3,0.15 q -0.7,0 -1.1,-0.35 l -0.1,-0.05 -0.2,0.1 q -1,0.5 -1.85,-0.25 l -1.85,-2.3 -0.45,-0.7 q -0.4,-0.9 0.2,-1.75 l 0.45,-0.45 0.25,-0.45 0.85,-1.15 0.5,-0.6 0.25,-0.55 0.2,-0.15 0.3,-0.8 q 0.5,-1.35 1.25,-1.5 l 1.3,0.25 4.85,2.2 1.15,-0.95 1.1,-0.4 0.05,0.2 0.95,2.7 0.75,1.95 0.1,0.4 -0.1,0.2 -2.45,3.5 -0.2,0.35 0.15,0.5 0.55,0.1 0.65,-0.75 0.9,-1.25 0.55,-0.95 0.65,-0.8 0.05,-0.05 1.5,0.4 4.3,1.05 1.75,0.75 0.8,0.05 q 0.35,-0.15 0.35,-0.45 L 74,38.4 l -0.5,-0.25 -5.2,-1.3 -2.45,-0.45 -0.1,-0.25 -1,-2.65 -1,-2.5 h 0.05 q 0.4,0.05 1.2,0.45 l 1.55,0.7 0.25,0.15 1.35,-2.6 0.4,0.05 q 0.3,0 0.45,0.2 l 0.65,0.15 3.25,1.25 0.5,0.15 q 0.3,0 0.45,-0.2 0.3,-0.4 -0.05,-0.7 l -0.3,-0.25 -1.4,-0.5 -0.3,-0.2 -1.3,-0.3 -1.65,-0.4 -0.7,-0.2 M 45.6,40.9 44.8,40.85 43.8,40.9 42.35,41.05 40.8,41.2 Q 39.85,41.1 39.5,40.5 L 39.3,39.2 39.5,38 q 0.25,-0.55 1,-0.9 l 1.3,-0.3 0.8,-0.1 0.7,-0.15 0.5,-0.65 0.75,-0.1 q 1.25,0.2 2.5,0.85 l 0.55,0.4 0.2,0.3 q 0.7,0.4 1,1.1 0.25,0.85 -0.25,1.45 l -0.15,0.15 -0.15,0.45 q -0.35,0.6 -1,0.6 l -0.9,-0.2 H 45.6 M 14.2,1.85 14.45,2.15 14.85,3 q 0.4,0.85 1.1,1.4 L 16.7,3.5 q 0.4,-0.55 0.9,-0.65 0.45,0 1.1,0.45 l 2.45,1.85 0.8,0.8 Q 22.15,6.4 22,7 21.85,7.9 20.85,9.3 l -1.2,1.65 Q 18,12.5 17.35,13.4 L 16.7,14.1 15.35,14 12.75,13.35 H 11.3 11.2 l 0.2,-0.3 1.05,-1.8 1.4,-2 0.4,-0.4 L 14.3,8.2 14.1,3.8 14.2,1.85 m -3.9,10.6 0.1,-0.8 -0.15,-1.1 L 8.9,6.2 Q 8.6,5.05 8.9,4.6 9.05,4.35 10.15,3.85 l 1.3,-0.8 1.15,-1 q 0.3,-0.25 0.6,-0.35 -0.15,1 -0.15,1.95 l 0.15,2.7 V 7.5 l 0.1,0.55 -0.75,1.15 -0.95,1.45 -1,1.45 -0.3,0.35 m -5.35,7 -0.25,-0.1 -0.8,-0.8 -1.7,-3.7 Q 1.85,13.95 2,13.6 l 0.65,-0.65 q 1.5,-0.9 3.2,-1.7 l 0.4,-0.15 -0.95,2.2 -0.65,1.8 0.2,1.35 0.15,2 -0.05,0.8 v 0.2 m 2.2,-8.4 q 0.5,0.2 0.95,1.1 l 1.45,2.65 v 0.35 0.15 Q 9.75,15.9 9.2,16.65 8.45,17.8 6.25,18.9 L 6.2,18.95 6.1,18.1 5.85,16 5.75,15.45 5.9,14.65 7.15,11.05 m 3.8,20 1.1,0.4 1.15,0.95 4.85,-2.2 1.3,-0.25 q 0.75,0.15 1.25,1.5 l 1.35,3.5 0.1,0.3 0.4,0.35 0.3,0.75 q 0,0.5 -1,1.4 l -1.95,1.85 -0.65,0.95 q -0.4,0.35 -1.1,0.35 l -1.3,-0.15 h -2.6 L 11.5,41 8.45,40.95 5.4,40.9 3.1,41.05 0.75,41 q -1.55,-0.2 -2,-1.05 l -0.1,-1.7 q 0.1,-1.1 -0.1,-3 L -1.6,32.2 -1.1,28.1 q 0.3,-2.45 -0.15,-4.05 l -0.2,-1.75 q 0.2,-0.7 1.1,-1.05 l 1.5,-0.45 1.7,-0.2 Q 3.5,20.8 4,21.8 l 2.15,4.5 q 0.4,1 0.25,1.55 l -0.65,0.9 -0.7,0.2 -1.65,0.4 -1.3,0.3 -0.3,0.2 -1.4,0.5 -0.3,0.25 q -0.35,0.3 -0.05,0.7 L 0.5,31.5 1,31.35 4.25,30.1 4.9,29.95 q 0.15,-0.2 0.45,-0.2 L 5.75,29.7 7.1,32.3 7.35,32.15 8.9,31.45 Q 9.7,31.05 10.1,31 h 0.05 l -1,2.5 -1,2.65 -0.1,0.25 -2.45,0.45 -5.2,1.3 Q 0,38.25 -0.1,38.4 L -0.35,38.95 0,39.4 0.8,39.35 Q 1.95,38.8 2.55,38.6 l 4.3,-1.05 1.5,-0.4 0.05,0.05 0.65,0.8 0.55,0.95 0.9,1.25 0.65,0.75 0.55,-0.1 0.15,-0.5 L 11.65,40 9.2,36.5 9.1,36.3 l 0.1,-0.4 0.75,-1.95 0.95,-2.7 0.05,-0.2 M 8.7,28.6 8.65,28.5 8.45,27.4 7.6,24.3 Q 7,22.35 6.9,21.15 6.8,20.3 7.1,19.85 7.35,19.45 7.75,19.2 l 2.4,-1.6 2.4,-1.6 0.9,-0.45 0.2,5.85 0.05,1.8 -0.35,0.3 -4.6,5 -0.05,0.1 m 5.8,-13.05 0.55,0.5 2.95,3 0.4,-0.8 q 0.55,0.1 0.65,1.15 0.25,3.1 0.15,6.15 -0.1,1.3 -0.45,1.65 l -1.3,0.75 q -1.6,0.75 -2.6,1.7 l -1.3,0.85 q -0.6,0.1 -1.45,-0.45 -1,-0.65 -1.4,-0.7 l -0.95,0.05 4.2,-5.3 0.2,-0.1 0.05,-0.15 0.25,-0.05 1.45,-0.15 1,-0.05 1,-0.25 h 0.35 l 0.25,-0.3 q 0,-0.2 -0.4,-0.2 L 14.3,23 v -0.5 q -0.1,-3.6 0.1,-6.25 l 0.1,-0.7 M 28.3,40.9 h -0.75 l -0.9,0.2 q -0.65,0 -1,-0.6 L 25.5,40.05 25.35,39.9 q -0.5,-0.6 -0.25,-1.45 0.3,-0.7 1,-1.1 l 0.2,-0.3 0.55,-0.4 Q 28.1,36 29.35,35.8 l 0.75,0.1 0.5,0.65 0.7,0.15 0.8,0.1 1.3,0.3 q 0.75,0.35 1,0.9 l 0.2,1.2 -0.2,1.3 q -0.35,0.6 -1.3,0.7 l -1.55,-0.15 -1.45,-0.15 -1,-0.05 -0.8,0.05"
         fill="#999999"
         fill-rule="evenodd"
         stroke="none"
         id="path8" />
      <path
         d="M 21.1,2.5 21,2.45 20.75,2 Q 20.7,1.75 20.95,1.55 L 21.5,1.5 h 0.3 l 2.25,0.35 0.55,0.1 0.2,-0.3 0.95,-1.3 L 26.25,0 26.6,0.25 V 0.7 L 26,1.4 25.4,2.05 25.3,2.3 l 0.15,0.35 1.05,2.1 0.15,0.8 Q 26.55,6.1 26.1,6.1 25.75,6.05 25.45,5.45 L 24.5,3.1 24.45,2.65 22.6,2.55 21.65,2.5 H 21.1 M 6,-0.15 6.6,-0.2 6.9,0.2 6.8,0.5 6.35,0.8 5.75,1.55 5.5,1.85 5.35,2.15 Q 4.9,2.6 4.6,3.2 4.25,3.65 4.3,4.15 L 5.85,8.05 5.95,8.7 6,8.8 6.1,9.05 6.05,9.4 5.55,9.45 5.3,9.3 5.2,9 4.95,8.1 3.55,4.6 Q 3.25,3.85 3.4,3.55 l 0.25,-0.3 0.5,-0.6 0.6,-0.8 1.1,-1.9 0.15,-0.1 m 61,0.35 0.3,-0.4 0.6,0.05 0.15,0.1 1.1,1.9 0.6,0.8 0.5,0.6 0.25,0.3 L 70.35,4.6 68.95,8.1 68.7,9 68.6,9.3 68.35,9.45 67.85,9.4 67.8,9.05 67.9,8.8 67.95,8.7 68.05,8.05 69.6,4.15 Q 69.65,3.65 69.3,3.2 L 68.55,2.15 68.4,1.85 68.15,1.55 67.55,0.8 67.1,0.5 67,0.2 M 52.8,2.5 H 52.25 L 51.3,2.55 49.45,2.65 49.4,3.1 48.45,5.45 47.8,6.1 q -0.45,0 -0.55,-0.55 L 47.4,4.75 48.45,2.65 48.6,2.3 48.5,2.05 47.9,1.4 47.3,0.7 V 0.25 L 47.65,0 l 0.5,0.35 0.95,1.3 0.2,0.3 0.55,-0.1 2.25,-0.35 h 0.3 L 52.95,1.55 53.15,2 52.9,2.45 52.8,2.5 m 7.9,-0.8 0.15,1.95 -0.15,2.7 V 7.5 l -0.1,0.55 0.75,1.15 0.95,1.45 1,1.45 0.3,0.35 0.1,0.1 q 0.2,0.35 0.05,0.75 -0.2,0.45 -0.6,0.35 l -0.45,-0.3 -0.2,-0.3 -1.05,-1.8 q -0.7,-1.25 -1.4,-2 L 59.65,8.85 59.6,8.2 59.8,3.8 59.7,1.85 V 1.75 L 59.8,1.2 q 0.1,-0.35 0.45,-0.25 0.35,0 0.45,0.75 m 6.95,9.4 0.95,2.2 0.65,1.8 -0.2,1.35 -0.15,2 0.05,0.8 v 0.2 0.3 q -0.1,0.4 -0.55,0.5 -0.5,0 -0.65,-0.4 l -0.05,-0.9 0.1,-0.85 0.25,-2.1 0.1,-0.55 -0.15,-0.8 -1.25,-3.6 -0.2,-0.7 q 0,-0.35 0.25,-0.4 l 0.45,0.35 0.4,0.8 m -7.2,4.45 -0.2,5.85 -0.05,1.8 0.35,0.3 4.6,5 0.05,0.1 q 0.45,0.45 0.4,0.85 l -0.3,0.45 -0.55,0.05 -0.5,-0.45 -0.1,-0.1 -4.2,-5.3 L 59.75,24 59.7,23.85 59.45,23.8 58,23.65 57,23.6 56,23.35 h -0.35 l -0.25,-0.3 q 0,-0.2 0.4,-0.2 L 59.6,23 v -0.5 l -0.1,-6.25 -0.1,-0.7 v -0.3 l 0.5,-0.45 q 0.4,0 0.55,0.4 v 0.35 m 7.7,13.2 0.7,0.2 1.65,0.4 1.3,0.3 0.3,0.2 1.4,0.5 0.3,0.25 q 0.35,0.3 0.05,0.7 -0.15,0.2 -0.45,0.2 L 72.9,31.35 69.65,30.1 69,29.95 q -0.15,-0.2 -0.45,-0.2 L 68.15,29.7 67.1,29.25 67,29 q -0.1,-0.2 0.15,-0.3 l 0.4,-0.05 0.6,0.1 m -4.4,2.25 1,2.5 1,2.65 0.1,0.25 2.45,0.45 5.2,1.3 0.5,0.25 0.25,0.55 q 0,0.3 -0.35,0.45 l -0.8,-0.05 -1.75,-0.75 -4.3,-1.05 -1.5,-0.4 -0.05,0.05 -0.65,0.8 -0.55,0.95 -0.9,1.25 -0.65,0.75 -0.55,-0.1 -0.15,-0.5 0.2,-0.35 2.45,-3.5 0.1,-0.2 -0.1,-0.4 -0.75,-1.95 -0.95,-2.7 -0.05,-0.2 -0.05,-0.25 0.3,-0.35 0.5,0.4 0.05,0.15 M 11.2,13.35 10.75,13.65 10.15,13.3 Q 10,12.9 10.2,12.55 l 0.1,-0.1 0.3,-0.35 1,-1.45 L 12.55,9.2 13.3,8.05 13.2,7.5 V 6.35 l -0.15,-2.7 q 0,-0.95 0.15,-1.95 0.1,-0.75 0.45,-0.75 l 0.45,0.25 0.1,0.55 v 0.1 l -0.1,1.95 0.2,4.4 -0.05,0.65 -0.4,0.4 -1.4,2 -1.05,1.8 -0.2,0.3 M 6.25,11.1 6.65,10.3 Q 6.85,9.85 7.1,9.95 l 0.25,0.4 -0.2,0.7 -1.25,3.6 -0.15,0.8 0.1,0.55 0.25,2.1 0.1,0.85 V 19.3 L 6.15,19.85 Q 6,20.25 5.5,20.25 5.05,20.15 4.95,19.75 v -0.3 -0.2 L 5,18.45 4.85,16.45 4.65,15.1 5.3,13.3 6.25,11.1 m -0.5,17.65 0.6,-0.1 0.4,0.05 Q 7,28.8 6.9,29 l -0.1,0.25 -1.05,0.45 -0.4,0.05 q -0.3,0 -0.45,0.2 L 4.25,30.1 1,31.35 0.5,31.5 0.05,31.3 q -0.3,-0.4 0.05,-0.7 l 0.3,-0.25 1.4,-0.5 0.3,-0.2 1.3,-0.3 1.65,-0.4 0.7,-0.2 m 4.4,2.25 0.05,-0.15 0.5,-0.4 0.3,0.35 -0.05,0.25 -0.05,0.2 -0.95,2.7 -0.75,1.95 -0.1,0.4 0.1,0.2 2.45,3.5 0.2,0.35 -0.15,0.5 -0.55,0.1 L 10.5,40.2 9.6,38.95 9.05,38 8.4,37.2 8.35,37.15 6.85,37.55 2.55,38.6 Q 1.95,38.8 0.8,39.35 L 0,39.4 -0.35,38.95 -0.1,38.4 Q 0,38.25 0.4,38.15 l 5.2,-1.3 2.45,-0.45 0.1,-0.25 1,-2.65 1,-2.5 m 3.3,-15.45 V 15.2 Q 13.6,14.8 14,14.8 l 0.5,0.45 v 0.3 l -0.1,0.7 Q 14.2,18.9 14.3,22.5 V 23 l 3.8,-0.15 q 0.4,0 0.4,0.2 l -0.25,0.3 H 17.9 l -1,0.25 -1,0.05 -1.45,0.15 -0.25,0.05 -0.05,0.15 -0.2,0.1 -4.2,5.3 -0.1,0.1 -0.5,0.45 L 8.6,29.9 8.3,29.45 Q 8.25,29.05 8.7,28.6 l 0.05,-0.1 4.6,-5 0.35,-0.3 -0.05,-1.8 -0.2,-5.85"
         fill="#ffffff"
         fill-rule="evenodd"
         stroke="none"
         id="path9" />
      <path
         d="m 53.15,21.3 v 1.95 l -0.35,2 -0.1,0.7 -1.2,0.5 h -0.05 l -0.35,0.15 -1.85,0.55 -1.5,0.2 0.15,-1.05 -0.15,-3.05 v -0.4 l 0.2,-0.2 0.1,-0.1 0.1,-0.05 4.2,-3.3 0.8,-0.35 -0.05,0.5 0.05,1.95 m -11.5,3.05 -0.55,-1.85 -0.55,-1.05 -0.1,-0.75 0.15,-0.3 0.25,-0.45 0.2,0.2 1,0.45 3,1.6 0.95,0.4 0.1,0.05 0.15,0.05 0.25,0.8 0.25,1.3 0.25,1.8 0.25,0.55 0.05,0.15 h -0.2 l -4.4,-1.8 -0.75,-0.45 -0.3,-0.7 m 3.75,-9.8 h 0.25 l 0.05,-0.05 0.45,0.05 q 0.65,0.05 1.45,0.55 1.95,1.3 3.6,2 l 1.05,0.55 0.6,0.3 -0.25,0.15 -0.65,0.5 q -1,0.5 -2.4,1.45 l -2,1.35 -0.35,0.15 h -0.4 l -0.3,-0.05 -2.1,-1.35 -1.35,-0.8 -1.2,-0.75 -0.2,-0.1 0.35,-0.7 0.85,-0.95 0.95,-0.9 0.1,-0.1 0.15,-0.35 0.25,-0.35 q 0.5,-0.5 1.05,-0.6 H 45.4 M 20.85,24.8 20.9,23.75 20.95,21.3 21,19.35 V 18.7 l 0.2,-0.65 0.65,-0.4 1.05,-0.55 q 1.65,-0.7 3.6,-2 0.85,-0.5 1.5,-0.55 l -0.15,0.9 -0.5,3.25 -0.15,0.8 -0.1,1.4 -0.1,0.25 q -0.25,0.05 -0.55,0.25 l -4.75,3.05 -0.8,0.6 -0.05,-0.25 m 7.9,-10.25 q 0.4,0.15 0.85,0.55 l 0.7,0.85 0.95,0.9 0.85,0.95 0.85,1.65 0.6,1.05 -0.45,0.1 -1.55,0.3 -2.75,0.35 -0.1,-0.1 -0.2,-0.1 v -2.2 l 0.05,-3.5 0.15,-0.8 h 0.05 M 24.85,27.15 23,26.6 21.85,26.1 21.35,25.75 21.2,25.6 l 1.55,-0.7 0.6,-0.25 q 0.4,0 0.45,-0.2 L 25.15,24 26,23.55 l 1.6,-0.8 0.4,-0.2 0.15,-0.05 1.1,-0.1 0.95,-0.2 0.8,-0.05 2.3,-0.4 -0.2,0.4 -0.65,2.2 -0.3,0.7 -0.75,0.45 -4.4,1.8 h -0.55 l -1.6,-0.15"
         fill="#999999"
         fill-rule="evenodd"
         stroke="none"
         id="path10" />
      <path
         d="m 24.9,36.75 q -3.7,-1.6 -5.3,-3.4 -2.9,-3.15 -2.9,-9.35 0,-5.4 2.15,-10.2 l -0.2,-0.65 v -0.1 l -0.5,-1.1 -0.4,-1.6 L 17.5,9.85 16.65,6.7 Q 16.1,4.8 16.05,3.4 l 0.2,-1.2 q 0.4,-0.75 1.2,-0.9 l 1.2,0.1 q 2.5,0.65 6.5,2.9 l 1.25,0.65 q 4.75,-3 11.1,-3.1 4.3,-0.1 7.6,1.4 1.6,0.7 3.25,1.95 1.2,-0.7 3.55,-1.5 l 3.65,-1.35 1.75,-0.7 q 1.2,-0.2 1.75,0.45 0.6,0.65 0.4,1.8 l -0.2,0.8 -3.6,9.05 0.25,0.6 q 0.65,1.5 1,4.1 0.6,4.85 -0.7,9.2 -1.45,4.7 -4.85,7.5 -5.25,4.3 -15.85,3.9 l -5.4,-0.6 Q 27.9,38 24.9,36.75 m 20.5,-22.2 h -0.05 q -0.55,0.1 -1.05,0.6 l -0.25,0.35 -0.15,0.35 -0.1,0.1 -0.95,0.9 -0.85,0.95 -0.35,0.7 0.2,0.1 1.2,0.75 1.35,0.8 2.1,1.35 0.3,0.05 h 0.4 l 0.35,-0.15 2,-1.35 q 1.4,-0.95 2.4,-1.45 l 0.65,-0.5 0.25,-0.15 -0.6,-0.3 -1.05,-0.55 q -1.65,-0.7 -3.6,-2 -0.8,-0.5 -1.45,-0.55 L 45.7,14.5 45.65,14.55 H 45.4 m -3.75,9.8 0.3,0.7 0.75,0.45 4.4,1.8 h 0.2 L 47.25,27.15 47,26.6 46.75,24.8 46.5,23.5 46.25,22.7 46.1,22.65 46,22.6 l -0.95,-0.4 -3,-1.6 -1,-0.45 -0.2,-0.2 -0.25,0.45 -0.15,0.3 0.1,0.75 0.55,1.05 0.55,1.85 m 11.5,-3.05 -0.05,-1.95 0.05,-0.5 -0.8,0.35 -4.2,3.3 -0.1,0.05 -0.1,0.1 -0.2,0.2 v 0.4 l 0.15,3.05 -0.15,1.05 1.5,-0.2 1.85,-0.55 0.35,-0.15 h 0.05 l 1.2,-0.5 0.1,-0.7 0.35,-2 V 21.3 m -28.3,5.85 1.6,0.15 H 27 l 4.4,-1.8 0.75,-0.45 0.3,-0.7 0.65,-2.2 0.2,-0.4 -2.3,0.4 -0.8,0.05 -0.95,0.2 -1.1,0.1 -0.15,0.05 -0.4,0.2 -1.6,0.8 -0.85,0.45 -1.35,0.45 q -0.05,0.2 -0.45,0.2 l -0.6,0.25 -1.55,0.7 0.15,0.15 0.5,0.35 1.15,0.5 1.85,0.55 m 3.9,-12.6 H 28.7 l -0.15,0.8 -0.05,3.5 v 2.2 l 0.2,0.1 0.1,0.1 2.75,-0.35 1.55,-0.3 0.45,-0.1 -0.6,-1.05 L 32.1,17.8 31.25,16.85 30.3,15.95 29.6,15.1 q -0.45,-0.4 -0.85,-0.55 m -7.9,10.25 0.05,0.25 0.8,-0.6 4.75,-3.05 q 0.3,-0.2 0.55,-0.25 l 0.1,-0.25 0.1,-1.4 0.15,-0.8 0.5,-3.25 0.15,-0.9 q -0.65,0.05 -1.5,0.55 -1.95,1.3 -3.6,2 l -1.05,0.55 -0.65,0.4 -0.2,0.65 v 0.65 l -0.05,1.95 -0.05,2.45 -0.05,1.05"
         fill="#000000"
         fill-rule="evenodd"
         stroke="none"
         id="path11" />
    </g>
    <g
       id="shape2"
       transform="translate(2,2.05)">
      <path
         d="M -0.5,-0.4 V -0.55 H 75.1 V -0.4 40.8 H -0.5 Z"
         fill="none"
         stroke="#000000"
         stroke-linecap="round"
         stroke-linejoin="round"
         stroke-width="3"
         id="path12" />
    </g>
  </defs>
</svg>
