<?xml version="1.0" encoding="UTF-8" standalone="no"?>
<svg
   ffdec:objectType="frame"
   height="60.549999"
   width="67.099998"
   version="1.1"
   id="svg9"
   sodipodi:docname="427.svg"
   xmlns:inkscape="http://www.inkscape.org/namespaces/inkscape"
   xmlns:sodipodi="http://sodipodi.sourceforge.net/DTD/sodipodi-0.dtd"
   xmlns:xlink="http://www.w3.org/1999/xlink"
   xmlns="http://www.w3.org/2000/svg"
   xmlns:svg="http://www.w3.org/2000/svg"
   xmlns:ffdec="https://www.free-decompiler.com/flash">
  <sodipodi:namedview
     id="namedview9"
     pagecolor="#ffffff"
     bordercolor="#000000"
     borderopacity="0.25"
     inkscape:showpageshadow="2"
     inkscape:pageopacity="0.0"
     inkscape:pagecheckerboard="0"
     inkscape:deskcolor="#d1d1d1"
     fit-margin-top="5"
     fit-margin-left="5"
     fit-margin-right="5"
     fit-margin-bottom="5" />
  <g
     transform="translate(1.5,1.5)"
     id="g3">
    <use
       ffdec:characterId="516"
       height="57.549999"
       width="64.099998"
       xlink:href="#shape0"
       id="use1" />
    <use
       ffdec:characterId="926"
       height="57.599998"
       transform="translate(0.9,0.15)"
       width="63.400002"
       xlink:href="#shape1"
       id="use2" />
    <use
       ffdec:characterId="518"
       height="60.549999"
       transform="translate(-1.5,-1.5)"
       width="67.099998"
       xlink:href="#shape2"
       id="use3" />
  </g>
  <defs
     id="defs9">
    <g
       id="shape0">
      <path
         d="M 53.6,0 H 64.1 V 57.55 H 53.6 28.25 0 V 0 H 28.25 53.6 V 57.55 0 M 28.25,0 V 57.55 0"
         fill="#ffffff"
         fill-rule="evenodd"
         stroke="none"
         id="path3" />
    </g>
    <g
       id="shape1"
       transform="translate(-0.9,-0.15)">
      <path
         d="m 60.05,7.8 0.7,-1 0.15,-0.4 -0.25,-0.6 q -0.95,-1.7 -0.7,-2.95 0.1,-0.6 0.7,-1.4 l 0.4,-0.5 0.35,-0.8 h 1.7 L 63.15,0.3 Q 63.4,1.15 63,1.85 61.95,2.95 61.95,3.7 l 0.4,1.15 q 0.45,0.95 0.4,1.95 -0.15,1 -0.85,1.85 l -1.15,1.2 q -0.3,0.4 -0.1,1.05 l 0.2,0.55 -0.1,0.55 -0.8,-0.1 Q 59.6,11.6 59.4,10.9 L 59.25,9.7 V 8.85 L 59.6,8.3 60.05,7.8 M 55.6,23.85 55.75,24.4 55.4,24.75 54.9,24.7 Q 54.5,24.5 54.4,23.8 54.2,22 55.9,20.55 l 0.55,-0.7 -0.1,-0.6 L 56,18.7 q -0.5,-0.65 -0.45,-1.55 0.05,-0.9 0.6,-1.55 l 0.5,-0.85 q 0,-0.45 -0.75,-1 -1.35,-1.1 -1.5,-2.85 0,-0.85 0.25,-1.15 L 55.1,9.25 55.55,8.7 Q 55.85,8.05 55.3,7.35 L 54.3,6.4 Q 53.45,5.55 53.3,4.65 53.05,3.5 53.75,2.7 L 54.4,1.75 54.1,1.1 Q 53.7,0.6 53.6,0.15 h 2.35 l 0.4,0.6 q 0.45,0.85 0.35,1.5 -0.1,0.65 -0.95,1.6 l -0.25,0.55 0.2,0.4 1.25,1.25 q 0.6,0.8 0.6,2.3 0,1 -0.35,1.45 l -0.75,1.05 q -0.2,0.7 0.45,1.45 l 1.1,1.15 q 0.4,0.6 0.4,1.4 0,0.75 -0.45,1.35 l -0.6,0.7 Q 57,17.35 57,17.7 l 0.55,1.05 q 0.6,1.05 0.25,1.85 l -1.35,1.5 q -1.05,0.85 -0.85,1.75 m 5.8,22.45 q -1.6,1.25 -3.15,2.05 -2.55,1.25 -5.8,1.65 l -4.15,0.15 q -4.9,-0.6 -8.55,-4.8 -1.5,-1.7 -2.6,-3.85 -1.7,-1.8 -2.6,-5.15 L 33.45,32.2 Q 32.75,29.8 31.8,28.3 L 29,25.1 26.05,22 Q 23.1,18.3 22.45,11.45 22.3,9.3 22.45,8 L 22.5,6.5 q 0.4,-3.4 2.35,-6.35 h 22.6 q 1.85,2.5 2.7,4.8 l 1.25,4.3 1.15,6 q 0.45,3.3 0.15,6 -0.25,2.1 -1.3,6.25 -0.65,3.8 0.2,6.25 0.65,1.9 2.05,2.3 l 1.7,-0.05 1.7,-0.7 q 1.6,-0.7 2,-1.15 l 0.8,-1.65 q 0.3,-0.85 1.4,-2.35 1.15,-1.35 2.2,-1.95 l 0.1,-0.05 V 45.5 l -0.3,-0.05 -0.55,-0.2 -1.3,1.05 M 36.8,25.75 q 0.2,3.35 0.95,5.05 0.5,0.9 0.9,1.2 0.7,0.5 1.4,0.2 0.5,-0.15 0.9,-1.05 l 0.6,-1.95 0.9,1.95 q 0.85,1.65 1.45,2.1 l 1.25,0.45 q 0.7,0 1.1,-0.45 0.6,-0.6 0.4,-1.75 l -0.35,-2 -0.5,-1.95 -0.75,-4.8 q -0.35,-3 -0.9,-4.7 l -1.7,-3.65 -2,-3.5 Q 39.25,8.6 38.5,7.9 37.8,7.25 36.95,7.05 l -1.7,0.2 q -1.6,0.8 -1.4,3.55 0.1,1.6 0.95,4.05 l 1.25,4.05 q 0.55,2.25 0.75,6.85 m 4.3,-18.6 0.5,0.45 1,0.8 0.45,0.85 0.45,0.85 0.5,0.4 0.5,0.5 0.35,0.65 q 0.4,0.65 1.1,0.7 l 0.05,0.5 0.1,0.45 0.2,1.7 0.15,0.8 0.05,0.25 -0.05,0.2 v 1.35 l 0.4,1.2 q 0.5,0.7 1.1,0.45 l 0.3,-0.3 0.2,-0.45 q 0.35,-1.05 0,-2.35 -0.3,-0.25 -0.3,-0.85 l -0.4,-0.65 -0.25,-0.55 -0.25,-0.4 -0.1,-0.35 -0.5,-0.95 v -0.05 h 0.1 0.4 L 47.55,11.7 47.8,10.8 47.65,9.35 46.2,4.7 45.9,3.95 44.05,1.95 43.4,1.25 q -0.7,-0.5 -1.8,-0.2 -1.35,0.4 -1.7,1.3 -0.2,0.5 -0.05,1.25 l 0.2,1.3 0.15,0.9 0.9,1.35 m 15.35,23 0.4,-0.5 0.5,-1 0.5,-1.75 q 0.3,-1.05 0.8,-1.6 l 0.6,-0.55 0.7,-0.15 h 0.9 l 0.7,0.5 0.15,0.3 q 0.1,0.25 0.3,0.15 0.25,-0.5 1.1,-0.7 l 1.05,0.2 0.1,0.9 -0.3,0.8 -1.15,1.05 -1.55,0.05 q -0.6,-0.2 -1.45,-1.25 -0.35,0.3 -0.65,1.15 l -1.1,3 -0.7,0.8 -1.75,0.25 Q 54.55,31.65 54.05,30.9 53.4,29.85 54.1,28.75 L 54.35,28 54.2,27.7 q -0.2,-0.5 0.1,-0.85 0.4,-0.4 0.85,0 l 0.5,0.8 q 0.2,1 -0.25,1.7 l -0.1,0.4 0.25,0.2 q 0.6,0.3 0.9,0.2 m -28.4,-16.65 1.25,1.05 1.65,-0.1 q 0.8,-0.5 0.9,-1.45 l -0.2,-1.2 q -0.4,-1.3 -0.3,-3.05 l 0.15,-0.6 0.25,-0.4 q 0.9,-1 1.2,-2.15 Q 33.3,4.25 32.6,3.2 L 31.95,2.5 Q 31.05,1.7 30,1.55 28.85,1.3 27.95,2.1 l -0.65,1 -1.2,2.45 Q 25.95,6.05 25.95,7 l 0.1,1.8 q 0.25,0.95 0.75,1.75 l 0.25,0.55 0.1,1 q 0.1,0.6 0.9,1.4 M 17.9,13.1 17.55,12.5 Q 16.6,11.55 16.85,9.95 17.05,8.75 18,7.55 18.7,6.5 18.5,5.85 l -0.7,-1 Q 17.4,4.15 18.1,2.9 l 1.1,-1.2 1,-1.1 0.05,-0.45 h 1.2 q -0.05,1.25 -0.5,1.9 l -1,0.95 q -0.65,0.6 -0.75,1.1 0.7,0.55 1,1.5 0.25,0.95 -0.1,1.8 l -0.95,1.75 q -0.4,1 -0.15,1.55 l 0.75,1.05 q 0.75,1 0.15,2.15 l -0.5,1 0.15,0.9 0.35,0.9 q 0.1,0.6 -0.3,0.9 L 19,17.85 q -0.65,0 -1.2,-0.5 -0.5,-0.5 -0.65,-1.15 -0.45,-1.45 0.55,-2.8 l 0.2,-0.3 M 9.8,1 q 0.55,-0.6 1,-0.85 h 1 l 0.15,0.2 -0.2,0.6 -0.45,0.5 -0.4,0.6 -0.05,1 Q 10.8,3.4 10.35,3.65 L 9.55,4.1 Q 9.05,4.2 8.85,4.45 8.55,4.8 8.9,5.55 L 9.15,6.1 9.25,6.5 9,7.3 8.4,8 7.8,8.15 7.25,8.05 Q 6.9,7.85 7.1,7.55 L 7.45,7.4 7.75,7.2 7.95,6.55 7.65,5.9 7.4,5.1 7.35,4.25 Q 7.45,3.65 7.9,3.2 8.35,2.7 8.95,2.6 L 9.45,2.35 9.5,2 9.8,1 m 2.65,8.25 -0.2,0.9 0.55,0.8 q 1.25,1.25 1.35,2.05 0.1,0.8 -0.85,2.2 -0.95,1.45 -0.9,2.25 0.05,0.6 0.85,1.85 0.8,1.2 0.55,1.95 l -0.65,1.05 q -0.5,0.65 -0.55,1.05 -0.05,0.4 0.2,0.85 l 0.5,0.85 0.45,1.6 q 0.1,0.6 -0.25,0.8 L 12.6,27.35 11.95,26.75 11.4,26.1 10.45,24.95 Q 10.2,24.5 10.2,23.7 10.3,21.9 11.35,20.85 10.15,19.5 10,18.45 9.95,17.75 10.15,17 10.6,14.95 12.2,13.35 l -0.8,-0.95 -0.85,-1 Q 10,10.4 10.65,9 L 12.1,7 12.35,6.5 12.2,5.9 q -0.25,-0.8 0.15,-1.3 0.25,-0.25 0.6,-0.25 0.4,0 0.55,0.3 l 0.15,0.75 0.3,0.75 q 0.25,0.75 -0.4,1.7 l -1.1,1.4 m -9.2,10 q -0.1,-0.4 0.4,-1.1 l 1.75,-2.1 q 0.35,1 -0.2,3.15 v 1.05 l -0.25,1 -0.65,1.05 q -0.1,0.45 0.2,1.1 l 0.45,1.05 q 0.1,0.6 -0.3,1.65 -0.45,1.1 -0.35,1.65 0.05,0.45 0.45,1 L 5.5,29.7 q 0.45,0.65 0.5,1.5 0.05,0.85 -0.4,1.5 l -0.65,1.1 q -0.05,0.75 0.9,1.35 l 0.2,0.15 0.15,-0.2 0.55,0.05 q 0.45,0.3 0.7,1 Q 7.95,37.7 6.9,39 l -0.4,0.55 v 0.75 l 0.2,0.65 q 0.2,0.3 1.15,0.65 0.95,0.45 1.25,1.1 0.4,0.8 0.1,1.65 l -0.5,0.8 q -0.3,0.6 -0.1,1.25 0.2,0.65 0.7,1.05 l 0.9,0.55 1.45,1.05 q 0.75,0.8 0.25,1.7 l -0.6,-0.5 Q 10.95,49.8 9.95,49.5 L 8.45,49 Q 7.8,48.65 7.3,47.85 L 7,47.3 6.95,47.2 q -0.4,-0.65 -0.4,-1.4 0,-0.55 0.25,-0.95 L 7.1,43.95 7.15,43.7 6.9,43.5 Q 5.35,42.95 4.9,42.2 4.25,41.6 4.1,40.75 3.75,39.3 5.55,37.2 3.45,36.35 2.85,34 2.65,33.15 3,32.6 l 1.05,-1.1 q 0.15,-0.45 -0.2,-1 L 3.1,29.55 Q 2.5,28.8 2.4,27.8 2.3,26.75 2.75,25.9 L 3.15,25.05 3,24.2 2.6,23.3 Q 2.05,21.85 3.05,20.65 l 0.45,-0.7 -0.25,-0.7 m 8.6,33.9 1,1.1 0.65,1.25 0.85,0.85 q 0.45,0.65 0.1,1.1 l -0.7,0.3 q -0.95,0.1 -1.75,-0.5 -0.8,-0.6 -1.05,-1.5 L 10.7,55.15 9.95,55 8,55.2 Q 6.85,55.3 6.25,54.55 5.6,53.7 6.05,52.45 L 5.85,52.05 4.65,51.5 3.6,50.6 Q 3.2,50.05 3.2,48.85 l 0.1,-0.6 q 0.25,-0.35 0.55,-0.2 l 0.25,0.4 -0.05,0.5 Q 4.1,49.8 5.2,50.2 l 1.7,0.6 q 1.05,0.75 0.9,1.95 V 53 l 0.25,0.1 1.9,-0.2 q 1.15,-0.15 1.9,0.25 m 8.7,-0.55 q -1.8,0.4 -3.25,-0.8 -0.7,-0.55 -0.95,-1.4 -0.2,-1 0.55,-1.55 l -1,-0.45 -1,-0.4 q -1.25,-0.55 -1.4,-1.9 -0.25,-1.35 0.75,-2.25 l -1.6,-1.3 -0.55,-0.8 -0.45,-0.85 q -0.3,-1.05 0.85,-2.7 l 0.75,-0.7 q 0.55,-0.15 0.9,0.4 0.3,0.35 0.2,0.95 0,0.75 -0.5,1.5 l 1,1.35 0.75,0.55 0.6,0.65 q 0.6,1.1 -0.4,2.45 l -0.25,0.5 q 0,0.45 0.7,0.7 1.2,0.6 1.4,0.75 0.75,0.55 0.75,1.3 l -0.35,1.15 q -0.3,0.4 -0.3,0.7 l 0.25,0.6 q 0.55,0.6 1.4,0.7 l 1.1,0.1 0.35,0.25 -0.05,0.35 -0.25,0.15 M 32.9,36.05 32.85,36.9 32.5,37.65 32.15,38.1 31.6,38.2 Q 31.3,38 31.3,37.5 V 36.95 L 30.45,37.45 29.6,37.3 29.05,36.65 28.95,35.9 V 33.5 L 29,33.4 q -0.25,-0.85 -0.15,-1.95 l -0.1,-1.05 -0.45,-0.55 -0.5,-0.5 q -0.5,-0.65 -0.4,-1.6 0,-0.7 0.35,-1.05 0.15,-0.15 0.35,-0.15 0.3,-0.05 0.55,0.2 l 0.45,0.45 0.4,0.6 0.75,0.6 q 0.6,0.6 0.8,1.3 l 0.25,1.5 -0.05,0.5 -0.15,0.8 0.15,0.05 0.7,0.6 0.6,0.75 0.2,1.05 0.2,0.55 -0.05,0.55 m 16.4,16.75 0.8,-0.55 q 0.5,-0.35 0.9,-0.4 l 1.1,0.3 1.05,0.4 q 1.15,0.25 2.55,-0.7 l 0.75,-0.4 q 0.5,-0.15 0.8,0.2 0.25,0.4 -0.1,0.85 l -0.7,0.5 q -2.6,1.4 -4.15,0.9 l -0.7,-0.2 q -0.4,0 -1.05,0.55 -1.2,0.9 -2.75,1.05 -1.15,0.1 -1.85,-0.4 l -0.5,-0.4 -0.6,-0.3 q -0.35,-0.05 -1,0.4 -1.35,0.7 -2.7,0 -1.35,-0.75 -1.5,-2.2 l -1.85,0.25 q -1.1,-0.1 -1.65,-0.95 -0.5,-0.75 -0.3,-2.4 0.1,-0.8 0.55,-0.85 l 0.5,0.25 0.75,1.1 0.3,0.5 h 0.5 l 2.45,0.15 q 0.45,0.3 0.75,1.05 l 0.45,1.2 0.85,-0.15 0.8,-0.3 1.5,-0.05 q 0.8,0.15 1.35,0.7 0.4,0.4 0.55,0.45 l 0.7,0.05 1.45,-0.6"
         fill="#999999"
         fill-rule="evenodd"
         stroke="none"
         id="path4" />
      <path
         d="M 41.1,7.15 40.2,5.8 40.05,4.9 39.85,3.6 Q 39.7,2.85 39.9,2.35 q 0.35,-0.9 1.7,-1.3 1.1,-0.3 1.8,0.2 l 0.65,0.7 1.85,2 0.3,0.75 1.45,4.65 0.15,1.45 -0.25,0.9 -0.4,0.65 h -0.4 -0.1 v 0.05 l 0.5,0.95 0.1,0.35 0.25,0.4 0.25,0.55 0.4,0.65 q 0,0.6 0.3,0.85 0.35,1.3 0,2.35 l -0.2,0.45 -0.3,0.3 q -0.6,0.25 -1.1,-0.45 l -0.4,-1.2 V 16.25 L 46.5,16.05 46.45,15.8 46.3,15 46.1,13.3 46,12.85 45.95,12.35 q -0.7,-0.05 -1.1,-0.7 L 44.5,11 44,10.5 43.5,10.1 43.05,9.25 42.6,8.4 41.6,7.6 41.1,7.15 m -4.3,18.6 Q 36.6,21.15 36.05,18.9 L 34.8,14.85 Q 33.95,12.4 33.85,10.8 33.65,8.05 35.25,7.25 l 1.7,-0.2 q 0.85,0.2 1.55,0.85 0.75,0.7 1.95,3 l 2,3.5 1.7,3.65 q 0.55,1.7 0.9,4.7 l 0.75,4.8 0.5,1.95 0.35,2 q 0.2,1.15 -0.4,1.75 -0.4,0.45 -1.1,0.45 L 43.9,33.25 q -0.6,-0.45 -1.45,-2.1 l -0.9,-1.95 -0.6,1.95 q -0.4,0.9 -0.9,1.05 -0.7,0.3 -1.4,-0.2 -0.4,-0.3 -0.9,-1.2 Q 37,29.1 36.8,25.75 M 28.05,13.5 q -0.8,-0.8 -0.9,-1.4 l -0.1,-1 -0.25,-0.55 Q 26.3,9.75 26.05,8.8 L 25.95,7 q 0,-0.95 0.15,-1.45 l 1.2,-2.45 0.65,-1 Q 28.85,1.3 30,1.55 31.05,1.7 31.95,2.5 l 0.65,0.7 q 0.7,1.05 0.35,2.4 -0.3,1.15 -1.2,2.15 l -0.25,0.4 -0.15,0.6 q -0.1,1.75 0.3,3.05 l 0.2,1.2 q -0.1,0.95 -0.9,1.45 l -1.65,0.1 -1.25,-1.05 m -13.25,16.2 0.15,-0.15 0.4,-0.2 q 0.7,-0.2 1,0.5 l 0.05,0.65 v 0.05 l -0.05,0.7 -0.1,0.05 -0.15,1.8 -0.05,0.6 0.2,1.5 v 0.45 L 16,36.5 q -0.5,0.7 -1.35,0.6 -0.95,-0.15 -1.1,-1 l 0.2,-1.5 0.15,-1.2 0.05,-0.65 0.1,-0.5 0.15,-1.05 0.15,-0.5 0.3,-0.9 0.15,-0.1"
         fill="#ffffff"
         fill-rule="evenodd"
         stroke="none"
         id="path5" />
      <path
         d="m 16.4,30.55 1.8,0.6 q 0.9,0.3 1.05,0.7 0.2,0.45 -0.15,0.9 -0.35,0.35 -0.9,0.5 h -0.95 l -1.15,-0.15 0.15,-1.8 0.1,-0.05 0.05,-0.7 M 13.95,32.75 13.4,32.7 Q 12.85,32.6 12.55,32.3 12.15,31.95 12,31.4 11.85,30.85 12.05,30.35 12.5,29.4 13.4,29.3 q 0.75,-0.15 1.4,0.4 l -0.15,0.1 -0.3,0.9 -0.15,0.5 -0.15,1.05 -0.1,0.5"
         fill="#000000"
         fill-rule="evenodd"
         stroke="none"
         id="path6" />
      <path
         d="M 9.8,36.85 9.45,36.25 7.85,36.3 7.35,36.25 6.95,36.2 Q 6.3,36.15 5.4,35.6 2.85,34.15 2.3,32 L 2.1,30.5 Q 2,28.1 2.45,27.05 2.6,26.4 3.3,25.55 l 0.95,-1.1 0.3,-0.3 0.4,-0.3 0.65,-0.55 q 1.05,-0.8 2.1,-0.85 l 1.4,0.1 0.9,0.2 1,0.25 q 0.65,0.3 1.1,0.7 l 1.6,-1.2 -0.3,-1.15 q -0.2,-1.8 0.75,-3.65 0.5,-1.4 1.5,-2.25 l 0.3,-0.2 q 1.65,-1.35 3.9,-1.35 2.3,0.1 4.1,1.65 l 0.75,0.75 0.55,1.05 0.5,1.4 q 0.5,1.6 0,2.95 l -0.1,0.3 1.8,1.7 q 2.35,2.6 2.75,5.25 0.2,1.6 -0.2,3.45 l -0.75,2.7 q 1.15,0.5 2.25,1.4 l 2.5,2.05 3.55,3.25 q 0.95,0.95 1.55,2 l 0.55,-0.25 3.6,-1.9 1.2,-0.8 0.35,-0.25 0.9,-0.7 q 1.8,-1.35 2.85,-1.05 0.65,0.2 1.25,1 l 0.9,1.4 0.5,0.45 0.55,-0.15 q 2.55,-1.2 5.85,-2 0.85,-0.1 1.05,0.2 0.3,0.45 -0.25,1.1 -0.85,1 -3.05,1.9 -2.45,1.1 -3.3,1.75 -0.95,0.85 -1.5,0.85 -0.7,0.05 -1.75,-1.1 l -1.1,-1.35 -8.3,6 q -0.4,1.25 -1.25,2.35 -2.3,2.95 -6.7,3.55 l -3.6,-0.15 -0.7,-0.25 -1.5,-0.55 -2,-1.3 q -0.8,-0.7 -1.5,-2.25 L 21,47.6 20.4,45.9 20,43.5 19.8,41.6 q -4.95,0.5 -7.7,-1.8 L 9.8,36.85 M 27,28.15 q 0.4,-0.85 0.3,-1.85 -0.1,-1 -0.65,-1.75 -0.55,-0.8 -1.5,-1.15 l -1.85,-0.25 -0.4,0.1 -0.15,0.05 H 22.7 q -0.6,0.2 -1.1,0.65 l -0.5,0.55 -0.2,0.9 q -0.1,1 0.2,1.4 0.4,0.5 1.35,0.6 l 0.9,0.05 0.75,-0.4 q 0.5,-0.6 -0.05,-1.25 L 23.5,25.9 22.9,26 q -0.6,-0.1 -0.6,-0.85 0.1,-0.7 0.65,-0.9 l 0.95,-0.15 0.7,0.1 0.5,0.35 q 0.6,0.6 0.85,1.5 l -0.25,1.9 -0.65,0.7 q -1.1,1.1 -3,0.95 1.3,0.8 2.8,0.4 Q 26.3,29.5 27,28.15 M 3.75,11.75 2.4,11 Q 1.2,10.05 0.95,9.1 0.8,8.05 1.45,7.25 q 0.6,-0.75 1.6,-1 1.6,-0.4 2.3,0.5 l 0.4,0.7 0.4,1 0.7,1.25 0.95,0.9 q 0.6,0.6 0.65,1.1 L 8.2,13 q -0.45,1.3 -0.75,2.6 0.3,0.3 1.1,0.45 l 1.05,0.4 0.55,0.4 0.15,0.65 q -0.15,0.4 -1,0.4 L 6.4,17.8 5.3,17.45 Q 4.8,17.1 4.7,16.25 L 4.85,14.9 5.4,12.9 5.45,12.6 4.6,11.95 3.75,11.75 m 7.95,6.8 q 0.8,0.75 0.4,1.75 -0.45,1.05 -1.5,0.95 -0.9,0 -1.25,-0.75 L 9.2,20.2 Q 9,19.5 9.3,19 l 0.2,-0.25 0.4,-0.35 1.7,0.1 0.05,0.05 H 11.7 M 24.6,32.75 23.75,32.25 23,31.9 21.75,31.95 q -0.65,0.4 -0.8,0.95 l -0.1,0.8 v 0.9 l 0.55,1.25 1.8,3 0.4,0.5 0.4,0.6 0.5,0.5 0.05,0.05 0.05,-0.55 0.05,-0.3 0.25,-0.45 0.35,-0.45 Q 26,37.95 27.1,37.7 L 27.95,37.85 27.55,36.8 26.8,35.5 26,34.55 25.35,33.6 24.6,32.75 m -9.6,-4.4 -0.4,0.3 -0.1,0.5 -0.25,2.2 H 14.1 l -1.45,-0.1 -1.4,0.15 q -0.65,0.4 -0.65,1.2 0,0.75 0.7,1.1 l 1.1,0.2 1.7,-0.25 v 0.2 L 14,34.3 v 0.55 q 0,0.65 0.25,0.95 0.25,0.3 0.65,0.4 0.8,0.2 1.2,-0.45 l 0.15,-0.6 0.2,-1.8 L 17.4,33.2 18,33 18.45,32.7 18.7,32.4 18.65,31.9 18.25,31.55 Q 17.85,31.3 17.3,31.2 L 16.25,31.15 16.1,29.3 15.95,28.7 q -0.2,-0.45 -0.7,-0.45 L 15,28.35"
         fill="#000000"
         fill-rule="evenodd"
         stroke="none"
         id="path7" />
      <path
         d="m 27,28.15 q -0.7,1.35 -2.15,1.85 -1.5,0.4 -2.8,-0.4 1.9,0.15 3,-0.95 l 0.65,-0.7 0.25,-1.9 q -0.25,-0.9 -0.85,-1.5 l -0.5,-0.35 -0.7,-0.1 -0.95,0.15 q -0.55,0.2 -0.65,0.9 0,0.75 0.6,0.85 l 0.6,-0.1 0.55,-0.1 q 0.55,0.65 0.05,1.25 l -0.75,0.4 -0.9,-0.05 Q 21.5,27.3 21.1,26.8 20.8,26.4 20.9,25.4 l 0.2,-0.9 0.5,-0.55 q 0.5,-0.45 1.1,-0.65 h 0.05 l 0.15,-0.05 0.4,-0.1 1.85,0.25 q 0.95,0.35 1.5,1.15 0.55,0.75 0.65,1.75 0.1,1 -0.3,1.85 M 9.5,18.75 10,18.15 h 0.05 l 0.45,-0.2 0.5,-0.1 q 0.6,0 1,0.35 l 0.5,0.7 Q 12.1,18.6 11.7,18.55 H 11.65 L 11.6,18.5 9.9,18.4 9.5,18.75 m 5.5,9.6 0.25,-0.1 q 0.5,0 0.7,0.45 l 0.15,0.6 0.15,1.85 1.05,0.05 q 0.55,0.1 0.95,0.35 l 0.4,0.35 0.05,0.5 -0.25,0.3 -0.45,0.3 -0.6,0.2 -0.95,0.15 -0.2,1.8 -0.15,0.6 Q 15.7,36.4 14.9,36.2 14.5,36.1 14.25,35.8 14,35.5 14,34.85 V 34.3 l 0.1,-0.45 v -0.2 l -1.7,0.25 -1.1,-0.2 q -0.7,-0.35 -0.7,-1.1 0,-0.8 0.65,-1.2 l 1.4,-0.15 1.45,0.1 h 0.15 l 0.25,-2.2 0.1,-0.5 0.4,-0.3 m 9.6,4.4 0.75,0.85 0.65,0.95 0.8,0.95 0.75,1.3 0.4,1.05 -0.85,-0.15 q -1.1,0.25 -1.85,1.05 l -0.35,0.45 -0.25,0.45 -0.05,0.3 -0.05,0.55 -0.05,-0.05 -0.5,-0.5 -0.4,-0.6 -0.4,-0.5 -1.8,-3 -0.55,-1.25 v -0.9 l 0.1,-0.8 q 0.15,-0.55 0.8,-0.95 L 23,31.9 l 0.75,0.35 0.85,0.5"
         fill="#ffffff"
         fill-rule="evenodd"
         stroke="none"
         id="path8" />
    </g>
    <g
       id="shape2"
       transform="translate(1.5,1.5)">
      <path
         d="M 0,23.8 V 0 H 64.1 V 23.8 57.55 H 0 Z"
         fill="none"
         stroke="#000000"
         stroke-linecap="round"
         stroke-linejoin="round"
         stroke-width="3"
         id="path9" />
    </g>
  </defs>
</svg>
