<?xml version="1.0" encoding="UTF-8" standalone="no"?>
<svg
   ffdec:objectType="frame"
   height="44.349998"
   width="78.599998"
   version="1.1"
   id="svg12"
   sodipodi:docname="217.svg"
   xmlns:inkscape="http://www.inkscape.org/namespaces/inkscape"
   xmlns:sodipodi="http://sodipodi.sourceforge.net/DTD/sodipodi-0.dtd"
   xmlns:xlink="http://www.w3.org/1999/xlink"
   xmlns="http://www.w3.org/2000/svg"
   xmlns:svg="http://www.w3.org/2000/svg"
   xmlns:ffdec="https://www.free-decompiler.com/flash">
  <sodipodi:namedview
     id="namedview12"
     pagecolor="#ffffff"
     bordercolor="#000000"
     borderopacity="0.25"
     inkscape:showpageshadow="2"
     inkscape:pageopacity="0.0"
     inkscape:pagecheckerboard="0"
     inkscape:deskcolor="#d1d1d1"
     fit-margin-top="5"
     fit-margin-left="5"
     fit-margin-right="5"
     fit-margin-bottom="5" />
  <g
     transform="translate(2,2.05)"
     id="g3">
    <use
       ffdec:characterId="1"
       height="42.700001"
       transform="translate(-1.75,-2)"
       width="76.449997"
       xlink:href="#shape0"
       id="use1" />
    <use
       ffdec:characterId="213"
       height="37.200001"
       transform="translate(0.25,1.25)"
       width="73.75"
       xlink:href="#shape1"
       id="use2" />
    <use
       ffdec:characterId="3"
       height="44.349998"
       transform="translate(-2,-2.05)"
       width="78.599998"
       xlink:href="#shape2"
       id="use3" />
  </g>
  <defs
     id="defs12">
    <g
       id="shape0"
       transform="translate(1.75,2)">
      <path
         d="M 2.8,0 V -0.4 H 5.4 V 0 H 9.7 V 19.45 0 H 20.55 L 19.3,19.45 H 9.7 0.25 V 0 H 2.8"
         fill="#ffffff"
         fill-rule="evenodd"
         stroke="none"
         id="path3" />
      <path
         d="M 0.25,19.45 H 9.7 19.3 L 18.7,28.6 16,28.5 10.95,27.95 9.7,27.8 Q 7.45,27.6 5.85,27.75 4.05,27.9 1.5,28.6 0.75,28.8 0.25,29.15 v -9.7 m 9.45,0 v 8.35 -8.35"
         fill="#121212"
         fill-rule="evenodd"
         stroke="none"
         id="path4" />
      <path
         d="m 9.7,27.8 1.25,0.15 5.05,0.55 2.7,0.1 h 1.05 l 3.75,0.15 q 2.45,0.3 3.6,1.25 0.6,0.5 0.6,1.1 0,0.65 -0.8,1 l -1.3,0.2 -7.15,0.15 -5.6,-0.3 L 9.7,31.75 7.95,31.6 3.1,31.95 0.95,32.3 0.25,32.1 -0.35,31.55 -0.5,31.3 V 29.9 L 0.25,29.15 Q 0.75,28.8 1.5,28.6 4.05,27.9 5.85,27.75 7.45,27.6 9.7,27.8 v 3.95 -3.95"
         fill="#999999"
         fill-rule="evenodd"
         stroke="none"
         id="path5" />
      <path
         d="M 2.8,0 H 0.25 M 9.7,0 H 5.4 m 16.15,0 h 10.7 M 20.55,0 H 9.7"
         fill="none"
         stroke="#666666"
         stroke-linecap="round"
         stroke-linejoin="round"
         stroke-width="4"
         id="path6" />
      <path
         d="m 9.7,-0.4 h 65 V 40.5 H 47.05 L 45.5,40.7 27,40.65 25.95,40.5 H 9.7 -0.5 V -0.4 H 9.7 V 40.5 -0.4"
         fill="#ffffff"
         fill-rule="evenodd"
         stroke="none"
         id="path7" />
    </g>
    <g
       id="shape1"
       transform="translate(-0.25,-1.25)">
      <path
         d="M 65.25,20.35 Q 65.65,20.2 66,20.8 l 0.8,1.35 H 67 l 0.4,0.1 0.9,0.75 0.3,0.5 0.45,2.8 v 0.9 L 68.75,28 Q 68.4,28.7 67.6,28.7 L 67,28.55 66.05,27.75 65.55,27 64.75,25.35 64.7,24.6 64.6,24.2 v -0.95 l 0.55,-0.45 q 0.3,-0.05 0.65,0.25 l 0.3,1.6 h 0.1 L 66.15,24.2 q -0.2,-1.3 -0.95,-2.8 l -0.2,-0.55 0.25,-0.5 m -29.4,8.85 q 0.35,0.45 1,0.5 0.6,-0.05 1,-0.5 l 0.25,-0.85 0.15,-0.9 q 0.3,-1.2 1.55,-1.5 -0.05,-1.05 0.75,-1.8 1.1,-1.05 2.5,-0.6 1,0.35 1.65,1.45 l 0.95,1.75 q 0.7,2.2 0.05,3.85 l -0.65,1.1 0.15,0.05 0.65,0.45 0.55,0.55 0.35,-0.1 0.75,-0.05 0.75,-0.1 0.65,0.35 0.15,0.75 -0.6,0.95 -0.1,0.15 0.4,0.95 q 0.25,0.65 -0.15,1 L 48,36.7 47.45,36.4 46.4,35.65 h -0.05 l -0.15,0.55 -0.75,0.55 q -0.6,0.2 -0.75,-0.35 L 44.6,36 44.55,34.8 44.5,34.65 43.7,33.6 43.55,33.25 40.6,34.8 l 0.15,0.25 0.15,0.45 0.15,0.95 -0.1,0.65 -0.55,0.9 -0.6,0.35 q -0.55,0.2 -1.05,0 l -0.55,-0.3 -0.05,0.05 q -0.45,0.35 -0.9,0.3 l -0.4,-0.05 -0.4,0.05 Q 36,38.45 35.55,38.1 l -0.05,-0.05 -0.55,0.3 q -0.55,0.2 -1.05,0 L 33.3,38 32.75,37.1 32.6,36.45 l 0.2,-0.95 0.15,-0.45 0.1,-0.25 q -1.65,-0.45 -2.9,-1.55 l -0.2,0.35 -0.8,1.05 L 29.1,34.8 29.05,36 29,36.4 q -0.15,0.55 -0.8,0.35 L 27.5,36.2 27.3,35.65 26.25,36.4 25.7,36.7 25.1,36.65 q -0.45,-0.35 -0.15,-1 l 0.4,-0.95 -0.1,-0.15 -0.6,-0.95 q -0.05,-0.4 0.15,-0.75 0.3,-0.3 0.65,-0.35 l 0.75,0.1 0.7,0.05 0.4,0.1 0.55,-0.55 q 0.5,-0.4 0.65,-0.45 L 28.65,31.7 28,30.6 q -0.7,-1.65 0.05,-3.85 0.35,-1.1 1,-1.75 0.55,-1.1 1.6,-1.45 1.4,-0.45 2.45,0.6 0.8,0.75 0.8,1.8 1.25,0.3 1.55,1.5 l 0.15,0.9 q 0.05,0.5 0.25,0.85 m 26,4 q -0.1,-0.35 0.1,-0.5 l 0.55,0.05 0.1,0.25 0.45,0.6 0.55,0.6 0.2,0.15 q -0.25,-0.3 -0.05,-0.75 0.15,-0.4 0.6,-0.5 l 1.35,0.3 1.3,0.75 1.05,0.9 0.15,0.9 -0.05,0.9 -0.55,0.65 -1.3,0.1 -0.7,-0.05 -0.45,-0.2 Q 63.9,36.9 63.25,36.4 L 62.6,35.8 q -0.4,-0.65 0,-1.2 l -0.4,-0.7 -0.35,-0.7 m -8.65,-5.75 0.15,0.2 0.15,0.25 0.25,0.3 0.1,0.1 h 0.05 l 0.2,0.05 h 0.1 L 53.45,27.2 53.4,26.75 q 0.05,-0.3 0.3,-0.3 l 0.45,0.15 0.35,0.25 q 0.85,0.5 1.2,0.95 l 0.55,1.2 0.15,0.65 -0.05,0.8 -0.1,0.85 L 55.8,32 55,32.2 54.3,32.15 53.7,31.8 52.15,30.55 51.8,30.2 51.5,29.7 51,28.3 v -0.5 l 0.1,-0.55 0.2,-0.3 -0.55,-0.9 -0.05,-0.5 q 0.15,-0.4 0.5,-0.45 0.2,0 0.4,0.15 l 0.4,0.3 0.75,1.2 0.45,0.7 M 8.45,20.35 8.7,20.85 8.5,21.4 Q 7.75,22.9 7.55,24.2 L 7.5,24.65 h 0.1 l 0.3,-1.6 Q 8.25,22.75 8.55,22.8 L 9.1,23.25 V 24.2 L 9,24.6 8.95,25.35 8.15,27 7.65,27.75 6.7,28.55 6.1,28.7 Q 5.3,28.7 4.95,28 4.75,27.8 4.65,27.2 V 26.3 Q 4.75,24.4 5.1,23.5 L 5.4,23 6.3,22.25 6.7,22.15 H 6.9 L 7.7,20.8 q 0.35,-0.6 0.75,-0.45 m 12.05,7.1 0.45,-0.7 0.75,-1.2 0.4,-0.3 0.4,-0.15 q 0.35,0.05 0.5,0.45 l -0.05,0.5 -0.55,0.9 0.2,0.3 0.1,0.55 v 0.5 l -0.5,1.4 -0.3,0.5 -0.35,0.35 L 20,31.8 19.4,32.15 18.7,32.2 17.9,32 17.45,31.3 17.35,30.45 17.3,29.65 17.45,29 q 0.2,-0.7 0.55,-1.2 l 1.2,-0.95 0.35,-0.25 0.45,-0.15 0.3,0.3 -0.05,0.45 -0.75,1.15 h 0.1 l 0.2,-0.05 h 0.05 l 0.1,-0.1 0.25,-0.3 0.15,-0.25 0.15,-0.2 m -8.65,5.75 -0.35,0.7 -0.4,0.7 q 0.4,0.55 0,1.2 l -0.65,0.6 Q 9.8,36.9 8.55,37.35 L 8.1,37.55 7.4,37.6 6.1,37.5 5.55,36.85 5.5,35.95 q 0,-0.5 0.15,-0.9 L 6.7,34.15 8,33.4 q 0.95,-0.45 1.35,-0.3 l 0.6,0.5 q 0.2,0.45 -0.05,0.75 l 0.2,-0.15 0.55,-0.6 0.45,-0.6 0.1,-0.25 0.55,-0.05 0.1,0.5"
         fill="#767676"
         fill-rule="evenodd"
         stroke="none"
         id="path8" />
      <path
         d="m 36.55,30.75 q -2.7,0.15 -5.7,-1.3 -4,-1.9 -5.25,-5.05 -0.45,-1 -0.5,-2.3 -1.55,-0.45 -2.15,-2.15 -1.65,2.35 -3.1,2.5 -0.9,0.05 -1.7,-0.6 -0.75,-0.65 -0.85,-1.6 -1.65,1.1 -2.55,1.3 -1.65,0.5 -2.65,-0.6 -0.7,-0.75 -0.6,-1.9 L 11.6,18.35 9.55,19.2 6.4,19 Q 5.4,18.4 5.3,17.2 5.2,16 6.1,15.25 4.65,15.2 3.35,14.55 2.05,13.9 1.2,12.8 0.25,11.6 0.25,10.35 0.15,8.8 1.3,8 2,7.55 3.2,7.55 L 5.3,7.7 Q 7.25,7.8 10.7,6.65 15.45,5.1 18.1,3.75 19.7,2.9 20.55,2.8 21.7,2.7 23.1,3.55 25.55,5.15 27,9.1 l 1.05,3.3 0.3,0.85 Q 28.8,12.9 29.4,12.5 L 31,11.55 Q 31.65,11.2 32.45,11 33.1,10.65 33.9,10.45 34.9,10 35.8,9.9 l 1.3,-0.05 1.3,0.05 q 0.95,0.1 1.95,0.55 l 1.4,0.55 1.45,0.55 1.65,0.95 1.05,0.75 0.3,-0.85 1.05,-3.3 Q 48.7,5.15 51.1,3.55 52.55,2.7 53.65,2.8 q 0.9,0.1 2.5,0.95 2.65,1.35 7.4,2.9 3.4,1.15 5.35,1.05 L 71,7.55 q 1.2,0 1.9,0.45 1.2,0.8 1.1,2.35 0,1.25 -1,2.45 -0.85,1.1 -2.15,1.75 -1.3,0.65 -2.7,0.7 Q 69,16 68.9,17.2 68.85,18.4 67.85,19 l -3.15,0.2 -2.05,-0.85 0.1,0.7 q 0.1,1.15 -0.6,1.9 -1.05,1.1 -2.65,0.6 -0.9,-0.2 -2.6,-1.3 -0.05,0.95 -0.8,1.6 -0.8,0.65 -1.75,0.6 -1.45,-0.15 -3.05,-2.5 -0.6,1.7 -2.2,2.15 -0.05,1.3 -0.45,2.3 -1.25,3.15 -5.25,5.05 -3.05,1.45 -5.75,1.3 L 37.1,30.7 36.55,30.75 m 5.6,-11.95 q -0.1,1.4 1.05,2.35 1.05,0.95 2.5,0.7 1.85,-0.25 2.5,-2.05 0.25,-0.8 0.1,-1.65 -0.15,-0.8 -0.65,-1.35 l -0.7,0.15 -1.85,0.45 -1.85,0.6 -0.7,0.15 -0.3,0.1 -0.1,0.55 m -7.55,6.6 1.65,2.95 q 0.25,0.3 0.8,0.3 h 0.1 0.1 l 0.8,-0.3 1.65,-2.95 q 1.05,-1.4 1,-2.05 V 22.9 l 0.2,-0.7 q 0.4,-1.25 -1.45,-2 l -2.3,-0.4 -2.3,0.4 q -1.85,0.75 -1.45,2 l 0.2,0.7 v 0.45 q -0.05,0.65 1,2.05 m -2,-6 0.1,-0.95 -0.45,-0.15 -3.4,-1.05 -1.55,-0.65 q -0.65,0.6 -0.75,1.6 l -0.05,0.45 q 0,1.7 1.35,2.55 1.35,0.9 2.85,0.35 1.5,-0.6 1.9,-2.15"
         fill="#000000"
         fill-rule="evenodd"
         stroke="none"
         id="path9" />
      <path
         d="m 42.15,18.8 0.1,-0.55 0.3,-0.1 0.7,-0.15 1.85,-0.6 1.85,-0.45 0.7,-0.15 q 0.5,0.55 0.65,1.35 0.15,0.85 -0.1,1.65 -0.65,1.8 -2.5,2.05 -1.45,0.25 -2.5,-0.7 Q 42.05,20.2 42.15,18.8 M 32.6,19.4 Q 32.2,20.95 30.7,21.55 29.2,22.1 27.85,21.2 26.5,20.35 26.5,18.65 l 0.05,-0.45 q 0.1,-1 0.75,-1.6 l 1.55,0.65 3.4,1.05 0.45,0.15 -0.1,0.95"
         fill="#ffffff"
         fill-rule="evenodd"
         stroke="none"
         id="path10" />
      <path
         d="m 35.85,9.05 h -2.5 L 32.8,9 Q 32.4,8.8 32.2,8.2 L 31.6,6.85 30.55,5.2 30.2,4.35 30,4 Q 29.65,3.45 30,2.85 30.5,2.25 31.1,2.5 l 0.1,0.05 h 0.1 q 0.45,0.05 1.15,0.6 l 0.95,0.35 0.25,0.1 2.45,-2 0.4,-0.25 0.5,-0.1 0.5,0.1 0.4,0.25 2.45,2 0.25,-0.1 0.95,-0.35 q 0.7,-0.55 1.15,-0.6 h 0.1 L 42.9,2.5 Q 43.5,2.25 44,2.85 44.35,3.45 44,4 L 43.8,4.35 43.45,5.2 42.4,6.85 41.8,8.2 Q 41.6,8.8 41.2,9 l -0.55,0.05 h -2.5 L 37,8.9 35.85,9.05 M 34.6,25.4 Q 33.55,24 33.6,23.35 V 22.9 l -0.2,-0.7 q -0.4,-1.25 1.45,-2 l 2.3,-0.4 2.3,0.4 q 1.85,0.75 1.45,2 l -0.2,0.7 v 0.45 q 0.05,0.65 -1,2.05 l -1.65,2.95 -0.8,0.3 h -0.1 -0.1 q -0.55,0 -0.8,-0.3 L 34.6,25.4"
         fill="#767676"
         fill-rule="evenodd"
         stroke="none"
         id="path11" />
    </g>
    <g
       id="shape2"
       transform="translate(2,2.05)">
      <path
         d="M -0.5,-0.4 V -0.55 H 75.1 V -0.4 40.8 H -0.5 Z"
         fill="none"
         stroke="#000000"
         stroke-linecap="round"
         stroke-linejoin="round"
         stroke-width="3"
         id="path12" />
    </g>
  </defs>
</svg>
