<?xml version="1.0" encoding="UTF-8" standalone="no"?>
<svg
   ffdec:objectType="frame"
   height="44.349998"
   width="78.650002"
   version="1.1"
   id="svg11"
   sodipodi:docname="345.svg"
   xmlns:inkscape="http://www.inkscape.org/namespaces/inkscape"
   xmlns:sodipodi="http://sodipodi.sourceforge.net/DTD/sodipodi-0.dtd"
   xmlns:xlink="http://www.w3.org/1999/xlink"
   xmlns="http://www.w3.org/2000/svg"
   xmlns:svg="http://www.w3.org/2000/svg"
   xmlns:ffdec="https://www.free-decompiler.com/flash">
  <sodipodi:namedview
     id="namedview11"
     pagecolor="#ffffff"
     bordercolor="#000000"
     borderopacity="0.25"
     inkscape:showpageshadow="2"
     inkscape:pageopacity="0.0"
     inkscape:pagecheckerboard="0"
     inkscape:deskcolor="#d1d1d1"
     fit-margin-top="5"
     fit-margin-left="5"
     fit-margin-right="5"
     fit-margin-bottom="5" />
  <g
     transform="translate(2,2.05)"
     id="g3">
    <use
       ffdec:characterId="1"
       height="42.700001"
       transform="translate(-1.75,-2)"
       width="76.449997"
       xlink:href="#shape0"
       id="use1" />
    <use
       ffdec:characterId="324"
       height="41.25"
       transform="translate(-1.95,-0.2)"
       width="78.599998"
       xlink:href="#shape1"
       id="use2" />
    <use
       ffdec:characterId="3"
       height="44.349998"
       transform="translate(-2,-2.05)"
       width="78.599998"
       xlink:href="#shape2"
       id="use3" />
  </g>
  <defs
     id="defs11">
    <g
       id="shape0"
       transform="translate(1.75,2)">
      <path
         d="M 2.8,0 V -0.4 H 5.4 V 0 H 9.7 V 19.45 0 H 20.55 L 19.3,19.45 H 9.7 0.25 V 0 H 2.8"
         fill="#ffffff"
         fill-rule="evenodd"
         stroke="none"
         id="path3" />
      <path
         d="M 0.25,19.45 H 9.7 19.3 L 18.7,28.6 16,28.5 10.95,27.95 9.7,27.8 Q 7.45,27.6 5.85,27.75 4.05,27.9 1.5,28.6 0.75,28.8 0.25,29.15 v -9.7 m 9.45,0 v 8.35 -8.35"
         fill="#121212"
         fill-rule="evenodd"
         stroke="none"
         id="path4" />
      <path
         d="m 9.7,27.8 1.25,0.15 5.05,0.55 2.7,0.1 h 1.05 l 3.75,0.15 q 2.45,0.3 3.6,1.25 0.6,0.5 0.6,1.1 0,0.65 -0.8,1 l -1.3,0.2 -7.15,0.15 -5.6,-0.3 L 9.7,31.75 7.95,31.6 3.1,31.95 0.95,32.3 0.25,32.1 -0.35,31.55 -0.5,31.3 V 29.9 L 0.25,29.15 Q 0.75,28.8 1.5,28.6 4.05,27.9 5.85,27.75 7.45,27.6 9.7,27.8 v 3.95 -3.95"
         fill="#999999"
         fill-rule="evenodd"
         stroke="none"
         id="path5" />
      <path
         d="M 2.8,0 H 0.25 M 9.7,0 H 5.4 m 16.15,0 h 10.7 M 20.55,0 H 9.7"
         fill="none"
         stroke="#666666"
         stroke-linecap="round"
         stroke-linejoin="round"
         stroke-width="4"
         id="path6" />
      <path
         d="m 9.7,-0.4 h 65 V 40.5 H 47.05 L 45.5,40.7 27,40.65 25.95,40.5 H 9.7 -0.5 V -0.4 H 9.7 V 40.5 -0.4"
         fill="#ffffff"
         fill-rule="evenodd"
         stroke="none"
         id="path7" />
    </g>
    <g
       id="shape1"
       transform="translate(1.95,0.2)">
      <path
         d="m 70.6,0.3 q 1.8,-0.7 2.8,-0.45 0.75,0.15 1.2,0.8 1,0 1.6,0.65 0.45,0.55 0.45,1.35 0,0.8 -0.45,1.4 l -0.75,0.9 Q 75.5,5.7 74.8,6.5 74.35,7 72.95,7.65 l -9.1,4.15 -16.45,7.25 8.8,3.9 q 12.65,5.65 17.65,8.2 2.2,1.1 2.55,2.4 0.2,0.8 -0.3,1.6 l 0.5,2.9 q 0.1,2.3 -1.1,2.85 -1,0.5 -2.8,-0.55 L 57.75,32.15 52.6,29.5 37.35,23.2 22.1,29.5 16.95,32.15 Q 10.7,35.45 2,40.35 0.2,41.4 -0.8,40.9 -2,40.35 -1.9,38.05 q 0.15,-1.7 0.5,-2.9 -0.5,-0.8 -0.3,-1.6 0.35,-1.3 2.55,-2.4 5,-2.55 17.65,-8.2 L 27.35,19.05 10.85,11.8 1.75,7.65 -0.1,6.5 Q -0.8,5.7 -0.75,4.95 L -1.5,4.05 Q -1.95,3.45 -1.95,2.65 -1.95,1.85 -1.5,1.3 -0.9,0.65 0.1,0.65 0.55,0 1.3,-0.15 2.3,-0.4 4.1,0.3 10.6,2.85 26.9,10 L 37.35,14.65 47.8,10 Q 64.1,2.85 70.6,0.3 m -1.7,19.2 q 0.7,-0.3 0.65,-0.8 L 69.2,18.3 68.55,18.2 q -0.85,0.2 -1.3,0.65 0.25,0.45 0.15,1.25 l 1.5,-0.6 m -5.1,2.65 q -0.9,-0.55 -1.05,-1.6 v -0.9 l -0.15,-0.1 -0.85,-0.8 Q 61.3,17.8 62.1,16.4 l 1.2,-1.45 q 0.85,-0.65 1.75,-0.6 0.6,0 1.4,0.45 l 1.25,1.05 0.15,0.55 1,-0.1 q 1.2,0.1 1.75,0.65 0.6,0.6 0.6,1.75 L 71,20.05 69.65,21.3 q -1.6,0.85 -3.1,0.75 -0.45,0.45 -1.25,0.5 -0.85,0.05 -1.5,-0.4 m 1.45,-4.2 0.65,-0.7 V 17.2 Q 65.7,16.55 64.95,16.65 64.4,16.75 64,17.3 l -0.1,0.35 0.25,0.3 0.15,0.1 0.95,-0.1 M 9.6,18.5 10.35,19.25 11,18.2 q 0.4,-0.8 0.2,-1.35 l -1.3,0.2 q -0.65,0.3 -1,0.9 L 8.75,18.25 9.6,18.5 M 10.5,21.2 9.85,22.25 7.4,22.35 6.75,21.9 6.4,21.95 H 4.75 Q 3.75,21.75 3.4,21.1 3,20.6 3.1,19.45 L 3.3,18.2 q 0.35,-1.15 1.8,-1.6 l 2.2,0.15 0.15,0.1 q 0.55,-0.75 1.4,-1.2 1.2,-0.7 2.5,-0.5 l 1,0.4 0.45,0.9 q 0.3,1.65 -0.65,2.95 l -1.55,1.3 -0.1,0.5 M 5.8,18.55 q -0.7,0.25 -0.8,1 l 0.1,0.3 0.45,0.1 L 6.3,19.8 Q 6.45,19.1 6.9,18.7 L 5.8,18.55"
         fill="#999999"
         fill-rule="evenodd"
         stroke="none"
         id="path8" />
      <path
         d="m 24.9,37.35 q -3.7,-1.6 -5.3,-3.4 -2.9,-3.15 -2.9,-9.35 0,-5.4 2.15,-10.2 l -0.2,-0.65 v -0.1 l -0.5,-1.1 -0.4,-1.6 L 17.5,10.45 16.65,7.3 Q 16.1,5.4 16.05,4 l 0.2,-1.2 q 0.4,-0.75 1.2,-0.9 l 1.2,0.1 q 2.5,0.65 6.5,2.9 l 1.25,0.65 q 4.75,-3 11.1,-3.1 4.3,-0.1 7.6,1.4 1.6,0.7 3.25,1.95 1.2,-0.7 3.55,-1.5 l 3.65,-1.35 1.75,-0.7 q 1.2,-0.2 1.75,0.45 0.6,0.65 0.4,1.8 l -0.2,0.8 -3.6,9.05 0.25,0.6 q 0.65,1.5 1,4.1 0.6,4.85 -0.7,9.2 -1.45,4.7 -4.85,7.5 -5.25,4.3 -15.85,3.9 l -5.4,-0.6 Q 27.9,38.6 24.9,37.35 M 50.2,14.25 48.15,15.7 47.35,15 45.7,13.7 q -0.7,-0.45 -1.3,-0.3 -0.8,0.25 -0.95,0.95 -0.15,0.7 0.55,1.4 l 1.25,1.05 0.5,0.6 -0.95,0.6 -0.9,0.6 -0.4,0.95 q -0.1,0.6 0.15,1.15 0.25,0.6 0.9,0.9 l 1.2,0.1 0.85,-0.45 1.5,-1.15 1.4,1.55 0.45,0.8 q 0.35,0.55 1.1,0.75 l 1.3,-0.2 q 0.6,-0.35 0.85,-1.05 0.2,-0.7 -0.05,-1.35 -0.25,-0.5 -1.5,-1.55 l -1.3,-1.25 0.05,-0.05 1.25,-1.1 q 0.7,-0.7 0.85,-1.45 l -0.15,-0.8 -0.6,-0.55 q -0.5,-0.2 -1.55,0.4 m -25.9,0 q -1.05,-0.6 -1.55,-0.4 -0.35,0.1 -0.6,0.55 -0.2,0.35 -0.15,0.8 0.15,0.75 0.85,1.45 l 1.25,1.1 0.05,0.05 -1.3,1.25 -1.5,1.55 q -0.25,0.65 -0.05,1.35 0.25,0.7 0.85,1.05 l 1.3,0.2 q 0.75,-0.2 1.1,-0.75 l 0.45,-0.8 1.4,-1.55 1.5,1.15 0.85,0.45 1.2,-0.1 0.9,-0.9 L 31,19.55 30.6,18.6 29.7,18 l -0.95,-0.6 0.5,-0.6 1.25,-1.05 q 0.7,-0.7 0.55,-1.4 -0.15,-0.7 -0.95,-0.95 -0.6,-0.15 -1.3,0.3 l -1.65,1.3 -0.8,0.7 -2.05,-1.45 m 11.45,14.5 1.35,-1.25 0.15,-0.15 0.15,0.15 1.35,1.25 1.05,0.75 q 2.8,1.75 7.15,1.2 l 2.3,-0.5 0.9,-0.55 1.45,-1.4 0.65,-1 q 0.5,-1.05 -0.3,-2 Q 51.3,24.5 50.7,24.9 l -0.5,0.65 q -0.8,1.25 -2.45,1.75 l -3,0.25 -2.1,-0.4 q -0.95,-0.4 -2.25,-1.6 l -0.85,-0.9 -0.3,-0.55 V 24.05 Q 39.4,23 38.95,22.35 38.55,21.7 37.75,21.6 h -0.5 -0.5 q -0.8,0.1 -1.2,0.75 -0.45,0.65 -0.3,1.7 v 0.05 l -0.3,0.55 -0.85,0.9 -2.25,1.6 -2.1,0.4 -3,-0.25 Q 25.1,26.8 24.3,25.55 L 23.8,24.9 q -0.6,-0.4 -1.25,0.35 -0.8,0.95 -0.3,2 l 0.65,1 1.45,1.4 0.9,0.55 2.3,0.5 q 4.35,0.55 7.15,-1.2 l 1.05,-0.75"
         fill="#000000"
         fill-rule="evenodd"
         stroke="none"
         id="path9" />
      <path
         d="m 50.2,14.25 q 1.05,-0.6 1.55,-0.4 l 0.6,0.55 0.15,0.8 q -0.15,0.75 -0.85,1.45 l -1.25,1.1 -0.05,0.05 1.3,1.25 q 1.25,1.05 1.5,1.55 0.25,0.65 0.05,1.35 -0.25,0.7 -0.85,1.05 l -1.3,0.2 Q 50.3,23 49.95,22.45 l -0.45,-0.8 -1.4,-1.55 -1.5,1.15 -0.85,0.45 -1.2,-0.1 Q 43.9,21.3 43.65,20.7 43.4,20.15 43.5,19.55 L 43.9,18.6 44.8,18 45.75,17.4 45.25,16.8 44,15.75 q -0.7,-0.7 -0.55,-1.4 0.15,-0.7 0.95,-0.95 0.6,-0.15 1.3,0.3 l 1.65,1.3 0.8,0.7 2.05,-1.45 M 35.75,28.75 34.7,29.5 q -2.8,1.75 -7.15,1.2 l -2.3,-0.5 -0.9,-0.55 -1.45,-1.4 -0.65,-1 q -0.5,-1.05 0.3,-2 0.65,-0.75 1.25,-0.35 l 0.5,0.65 q 0.8,1.25 2.45,1.75 l 3,0.25 2.1,-0.4 2.25,-1.6 0.85,-0.9 0.3,-0.55 v -0.05 q -0.15,-1.05 0.3,-1.7 0.4,-0.65 1.2,-0.75 h 0.5 0.5 q 0.8,0.1 1.2,0.75 0.45,0.65 0.3,1.7 v 0.05 l 0.3,0.55 0.85,0.9 q 1.3,1.2 2.25,1.6 l 2.1,0.4 3,-0.25 q 1.65,-0.5 2.45,-1.75 l 0.5,-0.65 q 0.6,-0.4 1.25,0.35 0.8,0.95 0.3,2 l -0.65,1 -1.45,1.4 -0.9,0.55 -2.3,0.5 Q 42.6,31.25 39.8,29.5 L 38.75,28.75 37.4,27.5 37.25,27.35 37.1,27.5 35.75,28.75 M 24.3,14.25 26.35,15.7 27.15,15 28.8,13.7 q 0.7,-0.45 1.3,-0.3 0.8,0.25 0.95,0.95 0.15,0.7 -0.55,1.4 l -1.25,1.05 -0.5,0.6 0.95,0.6 0.9,0.6 0.4,0.95 -0.15,1.15 -0.9,0.9 -1.2,0.1 -0.85,-0.45 -1.5,-1.15 -1.4,1.55 -0.45,0.8 Q 24.2,23 23.45,23.2 L 22.15,23 q -0.6,-0.35 -0.85,-1.05 -0.2,-0.7 0.05,-1.35 l 1.5,-1.55 1.3,-1.25 -0.05,-0.05 -1.25,-1.1 q -0.7,-0.7 -0.85,-1.45 -0.05,-0.45 0.15,-0.8 0.25,-0.45 0.6,-0.55 0.5,-0.2 1.55,0.4"
         fill="#ffffff"
         fill-rule="evenodd"
         stroke="none"
         id="path10" />
    </g>
    <g
       id="shape2"
       transform="translate(2,2.05)">
      <path
         d="M -0.5,-0.4 V -0.55 H 75.1 V -0.4 40.8 H -0.5 Z"
         fill="none"
         stroke="#000000"
         stroke-linecap="round"
         stroke-linejoin="round"
         stroke-width="3"
         id="path11" />
    </g>
  </defs>
</svg>
