<?xml version="1.0" encoding="UTF-8" standalone="no"?>
<svg
   ffdec:objectType="frame"
   height="60.549999"
   width="67.099998"
   version="1.1"
   id="svg7"
   sodipodi:docname="751.svg"
   xmlns:inkscape="http://www.inkscape.org/namespaces/inkscape"
   xmlns:sodipodi="http://sodipodi.sourceforge.net/DTD/sodipodi-0.dtd"
   xmlns:xlink="http://www.w3.org/1999/xlink"
   xmlns="http://www.w3.org/2000/svg"
   xmlns:svg="http://www.w3.org/2000/svg"
   xmlns:ffdec="https://www.free-decompiler.com/flash">
  <sodipodi:namedview
     id="namedview7"
     pagecolor="#ffffff"
     bordercolor="#000000"
     borderopacity="0.25"
     inkscape:showpageshadow="2"
     inkscape:pageopacity="0.0"
     inkscape:pagecheckerboard="0"
     inkscape:deskcolor="#d1d1d1"
     fit-margin-top="5"
     fit-margin-left="5"
     fit-margin-right="5"
     fit-margin-bottom="5" />
  <g
     transform="translate(1.5,1.5)"
     id="g3">
    <use
       ffdec:characterId="516"
       height="57.549999"
       width="64.099998"
       xlink:href="#shape0"
       id="use1" />
    <use
       ffdec:characterId="1240"
       height="50.400002"
       transform="translate(-0.35,8.1)"
       width="57.900002"
       xlink:href="#shape1"
       id="use2" />
    <use
       ffdec:characterId="518"
       height="60.549999"
       transform="translate(-1.5,-1.5)"
       width="67.099998"
       xlink:href="#shape2"
       id="use3" />
  </g>
  <defs
     id="defs7">
    <g
       id="shape0">
      <path
         d="M 53.6,0 H 64.1 V 57.55 H 53.6 28.25 0 V 0 H 28.25 53.6 V 57.55 0 M 28.25,0 V 57.55 0"
         fill="#ffffff"
         fill-rule="evenodd"
         stroke="none"
         id="path3" />
    </g>
    <g
       id="shape1"
       transform="translate(0.35,-8.1)">
      <path
         d="m 3.8,42.15 q 9.65,-15.3 22.2,-20.1 3.1,-1.15 8.45,-2.4 l 3.6,-0.85 q 1.6,-0.35 1.75,0.6 0.1,0.7 -1.2,1.15 -4.25,1.4 -6.95,2.4 0.25,0.4 -0.05,0.9 l -0.85,0.85 -0.8,0.65 0.55,0.35 q 0.45,0.4 0.45,0.9 0,1.05 -1.85,1.8 -2.45,0.9 -4.55,1.85 l -1.35,1.3 q 0.4,-0.05 0.75,0.25 l 0.45,0.65 0.15,-0.1 q 1.5,-1 2.4,-1.1 0.7,-0.05 1.3,0.3 0.65,0.35 0.8,0.95 l 0.05,0.35 Q 34.25,29.75 39.5,28 l 1.45,0.15 q 0.25,0.35 0,0.85 l 0.6,-0.05 q 0.6,0.1 0.8,0.35 0.4,0.4 0.2,1 -0.15,0.85 -1.45,1.75 l -0.6,0.45 0.6,-0.15 1.45,0.1 q 0.4,0.35 0.3,1.1 -0.15,0.75 -0.9,1.5 l -1.45,1 q -1.55,0.95 -2.95,2.2 l -1.75,1.55 -3.8,2.95 -0.35,0.2 -0.4,-0.1 q -0.15,-0.2 0,-0.45 l 0.4,-0.35 0.45,-0.6 0.4,-0.7 5.8,-6.75 0.1,-0.1 -2.45,1.4 -4.5,2.55 -3.1,2.7 -1.1,0.7 q -0.85,0.2 -1.25,-0.3 -0.35,-0.5 -0.1,-1.1 l 0.6,-0.95 q 1.6,-2 2.85,-3.1 l -2.4,1.55 Q 21.8,40.9 16.65,46.3 12.75,50.35 7.75,56.7 6.8,57.85 6.1,57.85 L 5.4,57.6 5.3,57.7 Q 4.9,58.2 4.35,58.4 L 3.2,58.3 Q 2.6,57.95 2.55,57.05 2.5,56.25 2.85,55.4 q 1.4,-3.85 4.1,-8.15 1.7,-2.75 5.25,-7.5 1.85,-2.55 3.2,-4.05 l 1.95,-1.9 q -1.55,0.9 -2.75,1.8 -2.5,1.85 -4.65,4.15 L 7.4,42.9 3.95,47.4 3.35,48.05 2.95,48.55 1.85,50.6 1.1,51.35 0.5,51.7 -0.1,51.6 q -0.4,-0.3 -0.15,-1 L 0.1,49.55 0.7,48.25 2.9,44.45 2.95,44.4 V 44.2 Q 3,43.45 3.8,42.15 M 24.45,18.3 q 2.9,-1.25 4.45,-1.25 L 30,17.3 q 0.6,0.4 0.5,1.1 0,0.6 -0.55,1.05 l -1.25,0.45 -2.8,0.7 -1.75,0.7 q -3.1,1.45 -3.85,1.85 l -7.45,4.8 -0.65,0.15 2.2,-2.5 q 3.25,-3.5 5.95,-5.2 1.15,-0.75 2.75,-1.5 l 1.35,-0.6 m 3.6,6 -0.95,0.4 -0.5,1 2.1,-1.65 -0.65,0.25 m -17,30.7 1.35,-1.75 2.5,-3.2 Q 18,46.3 21.65,43.55 22.3,43 22.75,43 l 0.8,0.3 q 0.35,0.3 0.35,0.7 0.05,0.5 -0.45,1.3 l -5.15,8 -1.3,1.95 q -0.9,1.35 -1.05,1.85 l -0.25,0.7 -0.55,0.4 -0.45,-0.3 -0.1,-0.55 -0.85,0.25 -0.9,0.15 -0.95,0.3 q -0.55,0.1 -1.05,-0.3 Q 10.35,57.35 10.3,56.8 10.25,56 11.05,55"
         fill="#999999"
         fill-rule="evenodd"
         stroke="none"
         id="path4" />
      <path
         d="m 55.9,20.4 q -1.15,4.25 -3.4,6.5 -1.1,1 -2.35,1.65 l 0.55,0.2 q 1.1,0.3 1.6,0.7 0.85,0.7 0.85,1.7 0.1,0.95 -0.8,1.75 -1,0.75 -2.4,0.4 -0.8,-0.15 -2.3,-1 l -3.75,-2.05 -0.85,0.9 1.35,1.35 2.35,2.25 1.15,0.9 q 1.2,1.2 0.75,2.7 l -0.85,1.2 q -0.6,0.5 -1.35,0.5 -1,-0.05 -2,-0.9 L 41.9,36.5 39.7,33.45 38.15,34.1 36.6,34.55 h -0.05 q -3.45,1.35 -5.95,1.6 l -0.85,0.1 -0.45,2.8 -0.3,1.1 q -0.7,2.15 -1.7,3.55 -1.2,1.65 -2.9,2.55 l -1.85,0.45 q -1.15,0 -1.8,-0.65 -0.55,-0.55 -0.7,-1.4 -0.15,-0.8 0.15,-1.5 l 0.75,-1 q 1,-0.95 2.4,-1.4 l 1.3,-0.55 0.6,-1.6 0.65,-2.2 0.1,-0.65 -1.35,-0.6 -1.85,-1.1 -0.75,0.95 -2.55,2.55 q -2.25,1.55 -5.8,1.4 -1.25,-0.1 -1.75,-0.6 -0.45,-0.45 -0.55,-1.5 -0.1,-0.7 0.1,-1.15 0.35,-0.85 1.45,-1.2 l 2.9,-0.15 1.45,-0.1 0.75,-0.5 2.4,-2.05 q -0.5,-0.95 -0.6,-2.15 -0.1,-1.6 0.55,-3.05 l 0.7,-1.25 -0.8,-0.7 -0.9,-0.75 -1.25,-0.75 -1.3,-1.2 Q 14.6,19.5 14.15,17.75 13.9,16.8 13.9,15.45 l 0.25,-1.5 q 0.3,-0.8 1.15,-1.25 0.8,-0.45 1.75,-0.4 0.9,0 1.6,0.5 1.05,0.75 1.35,2.75 l 0.25,1.6 0.9,2.05 q 0.9,1.6 1.65,2.25 l 1.15,0.8 0.55,-0.45 q 1.65,-1.1 3,-1.55 l 4.3,-0.6 h 0.15 l 1.55,-0.1 1.8,0.3 0.2,0.05 V 19.45 Q 35.6,17.9 35.85,16.7 L 36.1,16.05 35.7,14.7 35.35,12.95 35.15,11.1 35.3,10.5 Q 35.6,9.75 36.6,9.55 L 38.25,9.7 Q 39.3,9.95 40,10.35 l 0.7,0.35 q 1.3,-0.95 2.8,-1.45 2.95,-1 6.15,-0.1 1.55,0.4 2.65,1.1 l 0.7,0.5 1.35,-1.5 1,-0.9 q 0.7,-0.45 1.3,-0.15 0.65,0.2 0.85,1.05 v 1.45 q -0.4,3.65 -1.15,5.25 l -0.05,0.1 q 0.2,1.85 -0.4,4.35 M 53.35,20.15 Q 54,20 54.45,19.45 l 0.5,-1.2 q 0.1,-0.6 -0.2,-1.15 L 53.9,16.2 q -1.25,-0.7 -2.35,0.15 -1.15,0.85 -0.8,2.2 0.15,0.9 0.95,1.35 0.8,0.5 1.65,0.25 m -6.5,1.6 -0.2,0.55 -0.5,0.45 Q 45.4,23.3 44.9,23.3 l -0.8,-0.1 -0.65,0.15 q -0.4,0.4 0.05,0.95 0.3,0.3 0.95,0.4 l 1.7,-0.1 q 0.9,-0.25 1.2,-1 1.15,0.9 2.45,0.75 0.9,-0.1 1.3,-0.7 l 0.15,-0.75 -0.4,-0.6 q -0.3,-0.15 -1.1,0 L 48.8,22.15 48.45,21.6 q -0.25,-0.5 -0.85,-0.4 -0.45,0 -0.75,0.55 M 43.95,19.5 Q 44.15,18.7 43.7,17.95 43.25,17.25 42.5,17 l -1.55,0.15 q -0.8,0.4 -1.05,1.15 -0.25,0.65 -0.05,1.35 0.25,0.75 0.8,1.15 l 1.3,0.35 q 0.8,0 1.3,-0.45 0.55,-0.45 0.7,-1.2"
         fill="#000000"
         fill-rule="evenodd"
         stroke="none"
         id="path5" />
      <path
         d="m 43.95,19.5 q -0.15,0.75 -0.7,1.2 -0.5,0.45 -1.3,0.45 l -1.3,-0.35 q -0.55,-0.4 -0.8,-1.15 -0.2,-0.7 0.05,-1.35 0.25,-0.75 1.05,-1.15 L 42.5,17 q 0.75,0.25 1.2,0.95 0.45,0.75 0.25,1.55 m 2.9,2.25 q 0.3,-0.55 0.75,-0.55 0.6,-0.1 0.85,0.4 l 0.35,0.55 0.95,0.15 q 0.8,-0.15 1.1,0 l 0.4,0.6 -0.15,0.75 q -0.4,0.6 -1.3,0.7 -1.3,0.15 -2.45,-0.75 -0.3,0.75 -1.2,1 l -1.7,0.1 Q 43.8,24.6 43.5,24.3 43.05,23.75 43.45,23.35 l 0.65,-0.15 0.8,0.1 q 0.5,0 1.25,-0.55 l 0.5,-0.45 0.2,-0.55 m 6.5,-1.6 Q 52.5,20.4 51.7,19.9 50.9,19.45 50.75,18.55 50.4,17.2 51.55,16.35 52.65,15.5 53.9,16.2 l 0.85,0.9 q 0.3,0.55 0.2,1.15 l -0.5,1.2 Q 54,20 53.35,20.15"
         fill="#ffffff"
         fill-rule="evenodd"
         stroke="none"
         id="path6" />
    </g>
    <g
       id="shape2"
       transform="translate(1.5,1.5)">
      <path
         d="M 0,23.8 V 0 H 64.1 V 23.8 57.55 H 0 Z"
         fill="none"
         stroke="#000000"
         stroke-linecap="round"
         stroke-linejoin="round"
         stroke-width="3"
         id="path7" />
    </g>
  </defs>
</svg>
