<?xml version="1.0" encoding="UTF-8" standalone="no"?>
<svg
   ffdec:objectType="frame"
   height="60.799999"
   width="67.099998"
   version="1.1"
   id="svg7"
   sodipodi:docname="257.svg"
   xmlns:inkscape="http://www.inkscape.org/namespaces/inkscape"
   xmlns:sodipodi="http://sodipodi.sourceforge.net/DTD/sodipodi-0.dtd"
   xmlns:xlink="http://www.w3.org/1999/xlink"
   xmlns="http://www.w3.org/2000/svg"
   xmlns:svg="http://www.w3.org/2000/svg"
   xmlns:ffdec="https://www.free-decompiler.com/flash">
  <sodipodi:namedview
     id="namedview7"
     pagecolor="#ffffff"
     bordercolor="#000000"
     borderopacity="0.25"
     inkscape:showpageshadow="2"
     inkscape:pageopacity="0.0"
     inkscape:pagecheckerboard="0"
     inkscape:deskcolor="#d1d1d1"
     fit-margin-top="5"
     fit-margin-left="5"
     fit-margin-right="5"
     fit-margin-bottom="5" />
  <g
     transform="translate(1.5,1.75)"
     id="g3">
    <use
       ffdec:characterId="516"
       height="57.549999"
       width="64.099998"
       xlink:href="#shape0"
       id="use1" />
    <use
       ffdec:characterId="762"
       height="59.25"
       transform="translate(-1.45,-1.75)"
       width="66.25"
       xlink:href="#shape1"
       id="use2" />
    <use
       ffdec:characterId="518"
       height="60.549999"
       transform="translate(-1.5,-1.5)"
       width="67.099998"
       xlink:href="#shape2"
       id="use3" />
  </g>
  <defs
     id="defs7">
    <g
       id="shape0">
      <path
         d="M 53.6,0 H 64.1 V 57.55 H 53.6 28.25 0 V 0 H 28.25 53.6 V 57.55 0 M 28.25,0 V 57.55 0"
         fill="#ffffff"
         fill-rule="evenodd"
         stroke="none"
         id="path3" />
    </g>
    <g
       id="shape1"
       transform="translate(1.45,1.75)">
      <path
         d="M 0.05,-0.9 H 0.9 q 0.8,-0.7 1.75,-0.5 l 1,0.15 0.95,-0.15 q 0.85,-0.15 1.7,0.45 L 6.4,-0.9 H 3.2 L 2.2,4.25 0,14.35 V 13.2 l -0.8,-1.3 q -0.35,-1 -0.1,-2.35 L -0.75,8.6 -1.05,7.85 Q -1.55,6.75 -1.45,5.3 L -1,2.75 Q -0.5,1 0,0.2 v -0.8 l 0.05,-0.3 m 7.65,0 H 7.95 L 8.1,-0.95 8.55,-0.9 H 11 L 10,4.25 6.45,20.5 6.4,20.9 5.75,22.85 5.65,23.15 5.5,23.4 4.65,24.7 4.3,25.15 2.75,27.3 2.6,27.5 l -1.35,2 -0.8,1.2 v 1.35 l -0.35,0.45 0.1,0.65 0.15,-0.2 0.1,-0.65 v 3.8 L 0.95,35.45 0.9,37.2 0.15,38.65 0.1,38.7 0,38.85 v 4.2 L 0.45,42.4 0.7,42.1 0.95,41.75 2.4,39.5 2.7,38.95 Q 3.4,37.55 3.5,36.2 L 3.35,32.95 3.3,32.6 7.5,27.4 7.75,27.15 7.85,27 8.75,35.45 8.7,37.2 8.15,38.4 7.9,38.7 4.35,43.9 2.85,46.3 2.6,46.7 2.1,47.5 1.85,48 1.8,48.05 0.7,48.5 0.65,48.55 0,49.4 v 0.5 l 0.9,-0.4 -0.45,0.75 v 0.7 L 0,51.15 v 0.4 L -0.55,50.8 -0.6,50.6 q -0.15,-0.85 0.05,-1.5 L -0.2,48.15 0,47.8 V 47.7 L -0.1,47.55 Q -1.15,46.85 -1.25,45.3 -1.3,44.15 -0.3,42.55 L -0.8,40.8 -0.75,39.1 -0.6,37.35 -0.55,35.5 -0.2,33.75 0,33.45 V 27.5 L -0.35,27.4 -1,26.55 -1.1,25.3 q 0,-2.95 1.1,-8.45 v 9.7 L 1,25.15 2.2,23.4 2.35,23.15 V 22.9 L 2.25,22.3 2.5,21.1 2.55,20.8 3.5,17.2 4,15.3 5.45,10.1 6.7,4.25 7.45,0.6 7.65,-0.65 7.7,-0.9 m 8.05,0.35 h 1.2 l -1.5,2.25 -0.1,0.15 -0.2,0.35 0.35,-1.65 0.25,-1.1 m 3.75,0 h 0.1 L 19.5,-0.9 h 3 l 0.1,0.35 h 0.05 l -0.05,0.1 -1.2,1.8 -1,1.55 -3.05,4.85 q -2.9,4.85 -5.25,9.6 l -1.3,2.75 q -0.5,1.35 -0.3,1.9 l 0.35,0.7 0.75,0.7 4.3,3.3 4.2,3.55 2.8,2.5 0.55,0.45 -1.2,1.35 -1.4,1.6 -0.8,0.95 -0.65,0.8 -6.3,7.7 -10.2,4.4 0.5,-0.7 0.55,-0.75 0.4,-0.5 5.6,-2.45 6.3,-7.7 0.65,-0.8 0.8,-0.95 1.4,-1.6 1.2,-1.35 -0.55,-0.45 -2.8,-2.5 -4.2,-3.55 -2.45,-1.9 -0.1,-1 -0.05,-0.5 -0.1,-1 0.25,-1.2 0.05,-0.3 1.45,-5.5 1.7,-6.35 1.95,-3.25 2.45,-3.85 0.55,-0.8 1.05,-1.6 m 5.55,-0.35 h 3.15 l 0.1,0.35 h 2.15 l -1.5,2.25 -0.1,0.15 -1.9,2.95 -0.4,0.65 -0.15,0.25 -1.65,2.75 -0.1,0.15 -2,3.6 -0.6,1.05 -2.15,4.1 -1.3,2.75 q -0.5,1.35 -0.3,1.9 l 0.35,0.7 0.75,0.7 4.3,3.3 4.2,3.55 1.3,1.1 1.5,1.4 0.25,0.2 0.3,0.25 -0.8,0.85 -0.4,0.5 -1.4,1.6 -0.8,0.95 -0.65,0.8 -2.05,2.5 -4.25,5.2 -11.35,4.85 -0.5,0.2 -1.5,0.65 -1.8,1.85 -0.55,0.6 -0.4,0.6 L 2.65,57.2 2.4,57.5 H 0 v -1.2 l 1.5,-1.95 0.4,-0.6 1.5,-1.8 Q 3.85,51.5 4.25,51.3 l 1.7,-0.7 0.3,-0.15 3.95,-1.65 0.55,-0.3 v 0.05 l 6.85,-2.95 4.85,-5.95 1.45,-1.75 0.65,-0.8 0.8,-0.95 1.4,-1.6 1.2,-1.35 -0.55,-0.45 -1.3,-1.2 -1.5,-1.3 L 20.4,26.7 16.1,23.4 15.35,22.7 15,22 q -0.2,-0.55 0.3,-1.9 l 1.3,-2.75 3.2,-6 1.85,-3.2 1.65,-2.8 0.5,-0.8 0.1,-0.1 1.75,-2.75 0.6,-0.85 0.9,-1.4 h -2 l -0.1,-0.35 m 7.4,0.35 L 32.4,-0.9 H 36 l 3.3,13.75 0.2,1.5 -0.05,0.35 -0.25,0.7 -0.1,0.25 -0.7,1.8 -0.9,-0.85 -0.7,1.5 -0.85,2.1 L 34.6,18.9 35.8,15.65 36,15.15 35.8,15 q -1.2,-1.05 -1.55,-1.9 l -0.2,-0.7 -0.2,-1.1 -0.05,-0.4 -0.15,-1.85 1.55,-9.6 H 32.45 M 39.4,-0.9 h 1.7 l 0.15,1.1 0.05,0.15 0.75,5.85 0.3,2.8 0.15,1.9 q 0.1,1.35 0.45,2.2 0.35,0.85 1.55,1.9 l 7.85,7.4 v 0.8 l -2.05,3.75 -4.4,8.1 -1.55,2.2 -2.75,4.7 0.45,0.65 0.95,1.55 5.5,6.3 0.05,0.3 -0.05,0.55 -0.05,0.2 -0.45,0.8 -2.6,4.15 -0.2,0.05 -2.6,0.5 -2.65,0.2 -0.6,0.1 -0.05,0.05 -0.8,0.15 h -3.15 l 0.85,-0.2 0.6,-0.1 2.65,-0.2 h 0.05 l 2.55,-0.5 0.7,-0.25 3.15,-5.15 -2.3,-2.65 -1.75,-2.05 -2,-2.25 Q 38.95,43.4 38.9,42.75 V 42.6 42.45 l 0.2,-0.7 8.05,-14.8 1.9,-3.45 L 49.5,22.7 41.65,15.3 41.9,14.9 42,13.5 41.9,12.85 41.35,9.65 41.05,8.2 39.4,-0.9 m 6.2,0 h 3.3 l 0.15,1.1 0.55,3.95 0.25,2.05 0.3,2.8 0.15,1.9 q 0.1,1.35 0.45,2.2 0.35,0.85 1.55,1.9 l 8.15,7.7 -0.45,0.8 -1.9,3.45 V 27 l -8.05,14.75 -0.2,0.7 v 0.15 0.15 q 0.05,0.65 0.95,1.4 l 2,2.25 1.3,1.6 0.2,0.2 0.25,0.25 2.3,2.65 -0.15,0.35 -3,4.8 Q 53.4,56.3 53,56.5 l -1.1,0.35 -1.5,0.15 -2.65,0.2 -0.6,0.1 -0.85,0.2 h -3.45 l 1,-0.2 0.6,-0.1 2.65,-0.2 1.15,-0.1 1.45,-0.4 q 0.4,-0.2 0.7,-0.25 l 3.15,-5.15 -6.6,-7.45 q -0.45,-0.6 -0.4,-1.05 v -0.15 l 0.2,-0.7 L 54.8,26.95 57.15,22.7 55.5,21.15 49,15 48.8,14.8 48,14 47.45,13.1 Q 47.1,12.25 47,10.9 L 46.85,9 46.55,6.2 46.4,4.75 45.75,0.2 45.6,-0.9 m 11.45,0 0.05,-0.05 q 0.75,-0.65 1.65,-0.65 0.8,0 1.5,0.6 l -0.15,0.05 -0.05,0.05 h 0.35 l 0.1,0.05 V -0.9 h 0.4 l -1.25,12.1 1.5,1.95 1.6,1.65 1.95,2.2 0.05,0.7 q -0.1,1.2 -0.9,1.8 L 63.3,19.85 V 17.7 L 62.85,18.45 62.4,17.9 59.75,14.8 58.15,13.15 56.65,11.2 57.9,-0.9 h -0.85 m 4.05,-0.55 1.25,-0.25 q 0.5,0.15 0.8,0.6 -0.65,-0.5 -1.4,-0.5 l -0.65,0.15 m 2.2,25.55 h 0.25 q 0.8,0.15 1.25,0.85 v 2.8 l -3.55,5.35 -2.95,4.15 -2.75,4.7 0.85,1.1 0.75,1.05 4.15,4.85 0.35,0.35 q 0.8,0.8 0.85,1.45 l -0.05,0.55 -0.05,0.2 -0.45,0.8 -3.25,5.2 h -3 l 3.25,-5.2 0.45,-0.8 0.05,-0.2 0.05,-0.55 Q 59.45,50.1 58.65,49.3 L 58.3,48.95 54.15,44.1 53.4,43.05 52.55,41.95 55.3,37.25 58.25,33.1 63.3,25.45 V 24.1 M 32.9,57.5 h -1.2 l 0.1,-0.35 2.1,-0.15 2.6,-0.5 q 0.4,-0.2 0.7,-0.25 l 3.15,-5.15 -2.3,-2.65 -1.75,-2.05 -0.05,-0.05 0.9,-2.3 0.15,0.1 2,2.25 1.75,2.05 1.95,2.25 v 0.05 l -0.05,0.55 -0.05,0.2 -0.45,0.8 -2.55,4.05 -0.4,0.15 -2.6,0.5 -2.65,0.2 -0.6,0.1 -0.75,0.2 m -21.5,0 H 8.1 l 2.25,-2.8 2.9,-3.65 5.3,-2.55 -4.9,6.2 -2.25,2.8 M 0,54.85 V 54 L 0.6,53.5 1.55,52.9 0.15,54.7 0,54.85 m 40.7,-38.05 6.1,5.75 v 0.4 L 46.5,23.5 44.6,26.95 43.95,28.2 43.9,28.05 V 27.9 27.85 q -0.25,-0.7 -1.1,-1.45 l -0.6,-0.55 1.3,-2.35 0.45,-0.8 -4.1,-3.9 0.25,-0.7 0.6,-1.3 M 10.75,29.7 10.5,27 l 3.9,3.25 2.8,2.5 0.25,0.2 0.3,0.25 -0.8,0.85 -0.4,0.5 -1.4,1.6 -0.8,0.95 -0.65,0.8 -6.3,7.7 -2,0.85 2.85,-4.05 1.95,-2.9 0.9,-2.05 0.25,-0.35 0.8,-0.95 1.4,-1.6 0.4,-0.5 0.8,-0.85 -0.3,-0.25 -0.25,-0.2 -1.5,-1.4 -1.3,-1.1 -0.65,-0.55"
         fill="#999999"
         fill-rule="evenodd"
         stroke="none"
         id="path4" />
      <path
         d="M 6.4,-0.9 H 7.7 L 7.65,-0.65 7.45,0.6 6.7,4.25 5.45,10.1 4,15.3 3.5,17.2 2.55,20.8 2.5,21.1 l -0.25,1.2 0.1,0.6 v 0.25 L 2.2,23.4 1,25.15 0,26.55 v -9.7 -2.5 l 2.2,-10.1 1,-5.15 h 3.2 m 10.55,0.35 h 2.55 l -1.05,1.6 -0.55,0.8 -2.45,3.85 -1.95,3.25 1.65,-6.75 0.2,-0.35 0.1,-0.15 1.5,-2.25 M 22.5,-0.9 h 2.55 l 0.1,0.35 h 2 l -0.9,1.4 -0.6,0.85 -1.75,2.75 -0.1,0.1 -0.5,0.8 -1.65,2.8 -1.85,3.2 -3.2,6 -1.3,2.75 Q 14.8,21.45 15,22 l 0.35,0.7 0.75,0.7 4.3,3.3 4.2,3.55 1.5,1.3 1.3,1.2 0.55,0.45 -1.2,1.35 -1.4,1.6 -0.8,0.95 -0.65,0.8 -1.45,1.75 -4.85,5.95 -6.85,2.95 V 48.5 l -0.55,0.3 -3.95,1.65 -0.3,0.15 -1.7,0.7 Q 3.85,51.5 3.4,51.95 L 1.9,53.75 1.5,54.35 0,56.3 V 54.85 L 0.15,54.7 1.55,52.9 0.6,53.5 0,54 v -2.45 -0.4 l 0.45,-0.2 v 1.9 L 1.85,51.3 2.9,50 l 10.2,-4.4 6.3,-7.7 0.65,-0.8 0.8,-0.95 1.4,-1.6 1.2,-1.35 L 22.9,32.75 20.1,30.25 15.9,26.7 11.6,23.4 10.85,22.7 10.5,22 q -0.2,-0.55 0.3,-1.9 l 1.3,-2.75 q 2.35,-4.75 5.25,-9.6 l 3.05,-4.85 1,-1.55 1.2,-1.8 0.05,-0.1 H 22.6 L 22.5,-0.9 m 5.7,0 h 3.4 l 0.1,0.35 H 30.45 28.3 L 28.2,-0.9 m 12.9,0 h 4.5 l 0.15,1.1 0.65,4.55 0.15,1.45 0.3,2.8 0.15,1.9 q 0.1,1.35 0.45,2.2 L 48,14 l 0.8,0.8 0.2,0.2 6.5,6.15 v 4.3 l -5.05,7.65 -2.95,4.15 -2.75,4.7 0.85,1.1 0.75,1.05 4.15,4.85 0.35,0.35 q 0.8,0.8 0.85,1.45 l -0.05,0.55 -0.05,0.2 -0.45,0.8 -2.9,4.6 -1.15,0.1 -2.65,0.2 -0.6,0.1 -1,0.2 H 38.5 l 0.8,-0.15 0.05,-0.05 0.6,-0.1 2.65,-0.2 2.6,-0.5 0.2,-0.05 0.5,-0.2 L 49.05,51.1 48.5,50.45 43,44.15 42.05,42.6 v -0.15 l 0.2,-0.7 3.65,-6.7 4.4,-8.1 2.05,-3.75 0.3,-0.5 -0.3,-0.3 L 44.5,15 Q 43.3,13.95 42.95,13.1 42.6,12.25 42.5,10.9 L 42.35,9 42.05,6.2 41.3,0.35 41.25,0.2 41.1,-0.9 M 60.25,-1 61.1,-1.45 61.75,-1.6 q 0.75,0 1.4,0.5 l 0.25,0.2 0.1,0.05 0.55,-0.6 0.75,-0.3 v 18.9 L 64.7,17 62.75,14.8 61.15,13.15 59.65,11.2 60.9,-0.9 H 60.5 60.4 60.05 L 60.1,-0.95 60.25,-1 M 64.8,27.75 V 57.5 h -6.1 l 3.25,-5.2 0.45,-0.8 0.05,-0.2 0.05,-0.55 Q 62.45,50.1 61.65,49.3 L 61.3,48.95 57.15,44.1 56.4,43.05 55.55,41.95 58.3,37.25 61.25,33.1 64.8,27.75 M 35.35,57.5 H 32.9 l 0.75,-0.2 0.6,-0.1 2.65,-0.2 2.6,-0.5 0.4,-0.15 0.3,-0.1 L 43.35,51.1 43,50.7 41.05,48.45 39.3,46.4 l -2,-2.25 -0.15,-0.1 0.25,-0.65 q 2.7,-6.65 4.65,-10.75 L 43.35,30 q 0.65,-1 0.6,-1.8 l 0.65,-1.25 1.9,-3.45 0.3,-0.55 0.15,-0.25 -0.15,-0.15 -6.1,-5.75 0.3,-0.6 0.2,-0.35 0.45,-0.55 7.85,7.4 -0.45,0.8 -1.9,3.45 -8.05,14.8 -0.2,0.7 v 0.15 0.15 q 0.05,0.65 0.95,1.4 l 2,2.25 1.75,2.05 2.3,2.65 -3.15,5.15 -0.7,0.25 -2.55,0.5 h -0.05 l -2.65,0.2 -0.6,0.1 -0.85,0.2 M 8.1,57.5 H 4.9 L 5.85,56.25 Q 7.2,54.4 8.4,53.5 l 2.3,-1.3 2.55,-1.15 -2.9,3.65 -2.25,2.8 M 0,-0.6 V -0.9 H 0.05 L 0,-0.6 m 33.85,11.9 0.2,1.1 0.05,0.45 0.1,0.65 -0.1,1.4 -0.7,0.95 -0.2,0.35 -0.5,1 -0.35,-0.2 1.2,-7.35 0.3,1.65 m -23.55,13.5 2.45,1.9 4.2,3.55 2.8,2.5 0.55,0.45 -1.2,1.35 -1.4,1.6 -0.8,0.95 -0.65,0.8 -6.3,7.7 -5.6,2.45 1.05,-1.6 2,-0.85 6.3,-7.7 0.65,-0.8 0.8,-0.95 1.4,-1.6 0.4,-0.5 0.8,-0.85 -0.3,-0.25 -0.25,-0.2 -2.8,-2.5 L 10.5,27 10.3,24.8 m -7,7.8 0.05,0.35 0.15,3.25 Q 3.4,37.55 2.7,38.95 L 2.4,39.5 0.95,41.75 0.7,42.1 0.45,42.4 0,43.05 v -4.2 L 0.1,38.7 0.15,38.65 0.9,37.2 0.95,35.45 3.3,32.6 M 0.9,49.5 0,49.9 V 49.4 L 0.65,48.55 0.7,48.5 1.8,48.05 1.65,48.25 1.25,48.9 0.9,49.5"
         fill="#ffffff"
         fill-rule="evenodd"
         stroke="none"
         id="path5" />
      <path
         d="m 11,-0.9 h 4.8 l -0.05,0.35 -0.25,1.1 -0.35,1.65 -1.65,6.75 -1.7,6.35 -1.45,5.5 -0.05,0.3 -0.25,1.2 0.1,1 0.05,0.5 0.1,1 0.2,2.2 0.25,2.7 0.2,2.2 q 0.5,2.9 0.35,4.3 l -0.2,1.25 -0.9,2.05 -1.95,2.9 -2.85,4.05 -1.05,1.6 -0.4,0.5 L 3.4,49.3 2.9,50 1.85,51.3 0.45,52.85 v -1.9 -0.7 L 0.9,49.5 1.25,48.9 1.65,48.25 1.8,48.05 1.85,48 2.1,47.5 2.6,46.7 2.85,46.3 4.35,43.9 7.9,38.7 8.15,38.4 8.7,37.2 8.75,35.45 7.85,27 7.75,27.15 7.5,27.4 3.3,32.6 0.95,35.45 0.45,36.1 V 32.3 32.05 30.7 L 1.25,29.5 2.6,27.5 2.75,27.3 4.3,25.15 4.65,24.7 5.5,23.4 5.65,23.15 5.75,22.85 6.4,20.9 6.45,20.5 10,4.25 11,-0.9 m 20.7,0.35 h 0.75 2.75 l -1.55,9.6 -0.1,0.6 -1.2,7.35 0.35,0.2 1.9,1.7 1.35,1.3 0.2,0.2 0.85,0.8 0.1,-0.35 1.3,-3.4 0.7,-1.8 0.1,-0.25 0.25,-0.7 0.05,-0.35 -0.2,-1.5 L 36,-0.9 h 3.4 l 1.65,9.1 0.3,1.45 0.55,3.2 0.1,0.65 -0.1,1.4 -0.25,0.4 -0.45,0.55 -0.2,0.35 -0.3,0.6 -0.6,1.3 -0.25,0.7 -1.55,3.55 0.85,0.8 3.05,2.7 0.6,0.55 q 0.85,0.75 1.1,1.45 v 0.05 0.15 l 0.05,0.15 Q 44,29 43.35,30 l -1.3,2.65 Q 40.1,36.75 37.4,43.4 l -0.25,0.65 -0.9,2.3 -4.35,10.55 -0.1,0.25 -0.1,0.35 H 11.4 l 2.25,-2.8 4.9,-6.2 -5.3,2.55 -2.55,1.15 -2.3,1.3 Q 7.2,54.4 5.85,56.25 L 4.9,57.5 H 2.4 l 0.25,-0.3 2.15,-2.85 0.4,-0.6 0.55,-0.6 1.8,-1.85 1.5,-0.65 0.5,-0.2 11.35,-4.85 4.25,-5.2 2.05,-2.5 0.65,-0.8 0.8,-0.95 1.4,-1.6 0.4,-0.5 0.8,-0.85 -0.3,-0.25 -0.25,-0.2 -1.5,-1.4 -1.3,-1.1 L 23.7,26.7 19.4,23.4 18.65,22.7 18.3,22 q -0.2,-0.55 0.3,-1.9 l 1.3,-2.75 2.15,-4.1 0.6,-1.05 2,-3.6 0.1,-0.15 1.65,-2.75 0.15,-0.25 0.4,-0.65 1.9,-2.95 0.1,-0.15 1.5,-2.25 H 31.7 M 48.9,-0.9 h 8.15 0.85 l -1.25,12.1 1.5,1.95 1.6,1.65 2.65,3.1 0.45,0.55 0.45,-0.75 v 2.15 4.25 1.35 l -5.05,7.65 -2.95,4.15 -2.75,4.7 0.85,1.1 0.75,1.05 4.15,4.85 0.35,0.35 q 0.8,0.8 0.85,1.45 l -0.05,0.55 -0.05,0.2 -0.45,0.8 -3.25,5.2 h -9.4 l 0.85,-0.2 0.6,-0.1 L 50.4,57 51.9,56.85 53,56.5 q 0.4,-0.2 0.7,-0.25 l 3,-4.8 0.15,-0.35 -2.3,-2.65 L 54.3,48.2 54.1,48 52.8,46.4 50.8,44.15 Q 49.9,43.4 49.85,42.75 V 42.6 42.45 l 0.2,-0.7 L 58.1,27 V 26.95 L 60,23.5 60.45,22.7 52.3,15 Q 51.1,13.95 50.75,13.1 50.4,12.25 50.3,10.9 L 50.15,9 49.85,6.2 49.6,4.15 49.05,0.2 48.9,-0.9"
         fill="#000000"
         fill-rule="evenodd"
         stroke="none"
         id="path6" />
    </g>
    <g
       id="shape2"
       transform="translate(1.5,1.5)">
      <path
         d="M 0,23.8 V 0 H 64.1 V 23.8 57.55 H 0 Z"
         fill="none"
         stroke="#000000"
         stroke-linecap="round"
         stroke-linejoin="round"
         stroke-width="3"
         id="path7" />
    </g>
  </defs>
</svg>
