<?xml version="1.0" encoding="UTF-8" standalone="no"?>
<svg
   ffdec:objectType="frame"
   height="60.549999"
   width="67.099998"
   version="1.1"
   id="svg6"
   sodipodi:docname="459.svg"
   xmlns:inkscape="http://www.inkscape.org/namespaces/inkscape"
   xmlns:sodipodi="http://sodipodi.sourceforge.net/DTD/sodipodi-0.dtd"
   xmlns:xlink="http://www.w3.org/1999/xlink"
   xmlns="http://www.w3.org/2000/svg"
   xmlns:svg="http://www.w3.org/2000/svg"
   xmlns:ffdec="https://www.free-decompiler.com/flash">
  <sodipodi:namedview
     id="namedview6"
     pagecolor="#ffffff"
     bordercolor="#000000"
     borderopacity="0.25"
     inkscape:showpageshadow="2"
     inkscape:pageopacity="0.0"
     inkscape:pagecheckerboard="0"
     inkscape:deskcolor="#d1d1d1"
     fit-margin-top="5"
     fit-margin-left="5"
     fit-margin-right="5"
     fit-margin-bottom="5" />
  <g
     transform="translate(1.5,1.5)"
     id="g3">
    <use
       ffdec:characterId="516"
       height="57.549999"
       width="64.099998"
       xlink:href="#shape0"
       id="use1" />
    <use
       ffdec:characterId="957"
       height="54.75"
       transform="translate(1.15,1.95)"
       width="62.599998"
       xlink:href="#shape1"
       id="use2" />
    <use
       ffdec:characterId="518"
       height="60.549999"
       transform="translate(-1.5,-1.5)"
       width="67.099998"
       xlink:href="#shape2"
       id="use3" />
  </g>
  <defs
     id="defs6">
    <g
       id="shape0">
      <path
         d="M 53.6,0 H 64.1 V 57.55 H 53.6 28.25 0 V 0 H 28.25 53.6 V 57.55 0 M 28.25,0 V 57.55 0"
         fill="#ffffff"
         fill-rule="evenodd"
         stroke="none"
         id="path3" />
    </g>
    <g
       id="shape1"
       transform="translate(-1.15,-1.95)">
      <path
         d="m 59.1,7.85 0.35,0.55 0.4,0.3 0.55,1.2 0.15,0.95 0.05,1.9 0.3,0.6 v 0.75 q -0.15,0.65 -0.75,0.9 l -1.2,-0.05 q -0.6,-0.35 -0.8,-1.25 l -0.3,-1.55 -0.1,-0.6 V 10.7 L 57.65,10.4 57.45,8.5 57.4,8.05 57.5,7.7 Q 57.45,7.15 57.55,6.9 57.7,6.55 58.1,6.55 l 0.6,0.35 0.4,0.95 m -3.25,10.3 Q 54.8,18.1 54.35,16.9 l -0.15,-0.45 -0.1,0.85 -0.7,0.5 q -0.75,0.1 -1,-0.5 L 52.2,15.6 51.35,15.1 51.1,14.5 50.9,14.05 50.8,13.6 q 0,-0.35 0.25,-0.75 0.4,-0.9 0.9,-1.05 h 0.1 l 0.15,-1.25 0.35,-0.4 0.2,-0.05 q 0.25,0 0.45,0.3 l 0.2,0.6 0.2,1.55 q 0,0.8 0.15,1.15 l 0.15,0.35 v 0.4 l 0.1,0.75 0.1,0.2 v -0.6 -1 L 53.95,13 53.8,10.8 54,9.3 53.25,9.55 52.55,9.35 52.15,8.9 49.05,6.5 48.1,6 Q 47.8,5.8 48,5.5 l 0.25,-0.25 q 0.6,-0.25 1.45,0 l 1.35,0.5 0.8,0.2 L 53.7,7 54.05,7.25 54.15,7.4 54.3,6.7 54.35,6.65 54.1,6.45 52.3,5.2 51.55,4.8 50.85,4.55 49.7,3.95 48.7,3.4 47.65,3.2 q -0.3,-0.1 -0.3,-0.4 0,-0.3 0.6,-0.4 l 1.3,-0.2 0.55,0.05 1.5,0.15 0.55,-0.05 0.9,0.25 q 0.7,0.25 1.9,1.05 l 1,0.7 q 0.65,0.4 0.9,0.8 0.4,0.65 -0.05,1.35 l -0.25,0.35 0.1,0.7 0.5,3.6 0.5,2.35 V 15 l 0.25,0.85 q 0.15,0.9 -0.3,1.6 -0.6,0.75 -1.45,0.7 M 44.2,8.65 43.75,9.05 42.1,9.2 q -4.85,-0.3 -9.35,1.05 l -4.6,1.7 -5.2,2.1 q -0.35,0 -0.25,-0.45 L 23,13.15 Q 27.6,9.2 34.3,7.65 L 36,7.35 q 3.8,-0.55 7.5,0.55 0.85,0.25 0.7,0.75 m 12.8,34.5 0.55,0.25 0.3,-1.4 0.3,-2.4 -0.1,-4.1 -0.1,-0.4 v -0.5 l -0.2,-0.65 -0.05,-0.6 Q 58.05,33 58.5,33.2 l 0.6,0.7 0.75,1.65 0.75,2.7 0.15,0.8 0.2,0.7 0.05,0.6 -0.15,2.2 -0.4,1.5 L 59.3,45 58.6,44.95 v 0.35 l 0.2,0.95 0.05,0.9 q -0.2,0.9 -1.05,1 -0.85,0.15 -1.3,-0.65 l -0.55,-3.15 v -0.7 q 0.1,-0.4 0.4,-0.55 L 57,43.15 m -2.4,6.6 -0.4,-1.65 -0.95,-3.45 -0.2,-0.4 -0.1,-2 L 53,41.9 q 0.15,-0.4 0.65,-0.5 l 0.45,0.15 0.15,-0.75 0.55,-1 0.45,-0.95 0.5,-3 q 0,-0.35 0.2,-0.4 l 0.1,-0.05 0.5,0.55 0.1,0.5 0.3,2 -0.05,0.9 0.05,0.25 -0.05,0.55 -0.1,0.45 -0.15,1 q -0.15,0.8 -0.95,1.05 -0.8,0.2 -1.25,-0.3 l 0.2,0.3 0.55,1 1.6,5.8 L 56.75,50.3 56.25,51 55.5,51.15 54.85,50.7 54.6,49.75 M 51.7,50.8 51.55,50.3 51.4,49.2 51.05,49.15 q -0.8,-0.15 -1.2,-0.9 l -0.3,-0.45 -0.7,-0.3 -0.3,-0.35 -0.6,-0.25 -0.7,-0.75 -0.2,-1.05 0.05,-0.7 q 0.1,-0.3 0.55,-0.75 l 1.1,-1.05 0.65,-0.55 0.45,-0.3 L 50,41.4 q 0.15,-0.4 0.6,-0.5 0.15,-0.3 0.5,-0.3 0.4,-0.1 0.7,0.4 l 0.3,0.75 1.7,7.1 0.15,1.5 q -0.1,0.9 -0.8,1.15 -0.6,0.2 -1.1,-0.2 L 51.7,50.8 M 29.55,6.5 31.25,5.55 32.95,5 Q 35.1,4.35 36.1,4.4 l 1,0.15 q 1.05,0.1 1.3,0.75 -0.25,0.4 -0.95,0.65 L 36.3,6.1 33.7,6.6 32.35,6.9 31.4,7.2 l -2.55,1.15 -1,0.4 -0.3,-0.4 0.25,-0.3 0.55,-0.45 0.3,-0.4 0.9,-0.7 m -16.7,2.1 q 0.1,-0.25 0.45,-0.3 l 0.55,0.1 0.4,0.45 1.05,2.3 q 0.3,0.9 0,1.4 -0.25,0.55 -0.95,0.55 -0.6,0 -0.95,-0.5 -0.25,-0.35 -0.35,-1.15 L 12.8,9.2 Q 12.7,8.8 12.85,8.6 M 10.5,5.5 11.2,6.9 q 0.65,1.5 0.75,3.2 l 0.05,0.65 0.15,0.5 0.15,1.05 0.3,1.05 0.15,1.1 Q 12.7,15.1 12.15,15.5 11.6,15.95 10.95,15.9 10.3,15.85 9.8,15.4 9.3,14.95 9.2,14.3 V 12.4 L 9,10.8 V 9.75 L 8.8,7.65 8.9,6.35 9,5.95 V 5.4 L 9.45,4.9 10.1,4.95 10.5,5.5 M 4.85,12.6 4.45,12.4 3.6,16.6 q -0.35,1.6 -0.4,2.8 l 0.05,2.8 0.4,2.8 0.05,0.45 -0.35,0.3 -0.3,-0.3 -0.5,-1.1 -0.2,-0.95 -0.3,-1 Q 1.1,19.85 1.2,16.45 1.25,15.05 1.65,12.25 1.9,10.65 2.5,9.95 L 2.7,9.35 3.05,8.55 3.2,7.85 3.3,6.8 Q 3.55,6.05 4.25,5.75 l 1.4,-0.1 Q 5.65,4.95 6.3,4.7 7,4.45 7.4,5.1 l 0.2,1 0.55,4 0.05,1.2 q -0.15,0.85 -0.75,1.3 v 0.8 l -0.3,1.6 -0.3,0.95 -0.25,1 -0.3,0.45 -0.1,0.75 -0.2,0.3 -0.05,0.4 -0.15,0.6 -0.15,1.4 -0.3,1.3 Q 5.2,22.3 5.05,22.05 L 4.85,21.75 4.55,17.5 4.6,16.75 4.7,15.5 5,14.6 5.1,13.7 5.55,12.85 4.85,12.6 m 4.85,34.05 -0.05,-3.4 0.2,-0.65 0.5,-0.35 0.55,-0.2 0.95,0.2 q 0.4,0.25 0.5,0.8 l 0.1,0.45 0.4,0.6 0.85,1.4 0.4,0.55 0.4,0.25 q 0.55,0.4 0.55,1.1 l -0.5,1.15 -1.2,1 -1,0.65 -1.15,0.1 Q 10.1,50.1 9.95,49.15 v -0.8 l -0.1,-0.5 -0.05,-0.7 -0.1,-0.5 m -4.45,-2.1 q 0.6,0.05 0.8,0.95 0.2,0.7 0.2,2.85 l -0.2,1.2 q -0.25,0.5 -0.85,0.5 -0.6,0 -0.85,-0.5 L 4.15,48.5 4.3,45.85 4.55,45 5.25,44.55 m 2.95,-0.95 0.3,0.75 0.15,2 L 9,48.3 9.55,51.8 9.2,52.9 h 0.05 q 0.75,0.1 1.1,0.6 l 0.25,0.4 1.35,0.65 0.5,0.35 1.15,0.25 0.45,0.2 0.5,0.1 L 15,55.6 15.15,56 15,56.25 14.6,56.55 13.65,56.7 11,56.55 10.3,56.35 9.05,55.85 8.15,55.15 Q 7.75,54.65 7.8,54.1 7.8,53.8 7.95,53.55 H 7.8 Q 6.9,53.45 6.55,52.65 L 6.35,51.4 6.6,44.35 6.75,43.7 7.45,43.25 q 0.45,0 0.75,0.35 m 11.95,7.15 q 0.35,-0.2 0.95,0.3 l 1.2,0.75 1.45,0.4 2.45,0.5 2.55,0.35 4.4,-0.45 2.35,-0.4 q 0.45,0 0.65,0.3 l -0.05,0.55 -0.75,0.7 q -2.4,1.5 -6.2,1.5 L 25.45,54.8 Q 21.8,54.05 20.2,51.85 L 19.95,51.3 q -0.1,-0.4 0.2,-0.55 m 8.9,1.35 -1.35,-0.2 H 27.15 L 25.4,51.4 24.3,50.85 23.25,50.15 23.05,50 q -0.1,-0.15 0.2,-0.35 l 1.1,-0.05 1.1,0.45 1.35,0.2 4.35,0.35 1.45,0.2 0.3,0.3 -0.15,0.35 q -0.65,0.6 -2,0.7 L 29.05,52.1 M 14.1,53.85 12.4,53.4 Q 11.05,52.95 11,51.9 11,51.3 11.45,51 l 1,-0.1 0.55,0.45 0.35,0.5 q 0.6,1 1.1,1.25 l 0.9,0.25 q 0.65,0.1 0.9,0.3 l 0.1,0.15 -0.3,0.2 -1.95,-0.15"
         fill="#767676"
         fill-rule="evenodd"
         stroke="none"
         id="path4" />
      <path
         d="m 46.6,12.7 q 1.8,-0.7 3.25,-2 L 52.2,8.3 53.6,6.4 54.3,4.95 q 0.55,-0.8 1.3,-0.9 l 1.15,0.35 1.4,0.8 q 3.9,2.35 5.4,7.25 0.3,1.15 0.1,1.6 l -1.05,1 -7.7,5 -1.55,0.25 q -0.6,-0.2 -0.95,-1.35 -0.9,-2.6 -2.25,-4.5 l -1.8,1.9 q -1.2,1.2 -2.3,1.1 -1.5,-0.15 -1.9,-1.5 -0.4,-1.35 0.65,-2.35 0.55,-0.4 1.8,-0.9 M 59.1,9.2 Q 57.9,7.4 56.05,6.5 55.7,6.95 55.1,8.25 l -0.95,1.55 -3.1,3.5 2.85,4.2 1.85,-1.35 4.6,-3.1 L 60.7,12.7 60.6,12.2 59.55,10 59.1,9.2 m -1.25,1.75 0.4,-0.15 0.5,0.05 0.4,0.2 q 0.6,0.55 0.25,1.35 -0.55,0.7 -1.25,0.4 l -0.5,-0.45 Q 57.4,12.1 57.45,11.7 57.5,11.25 57.85,10.95 M 25.55,36.7 q 3,-3.2 6.75,-4.85 4.05,-1.85 8,-1.45 2.7,0.2 3.25,1.8 0.65,1.75 -1.5,3.6 -1.45,1.25 -4.95,2.85 -6,2.6 -9.85,2.8 l -1.5,0.25 q -0.9,0.25 -0.9,1.1 -0.05,1 1.5,1.5 2.8,0.9 8,0.1 l 8.1,-0.55 q -1.2,1.3 -3.9,2.25 -5.05,1.8 -9.55,1.75 -3.25,0 -5.2,-1.35 Q 22.65,45.7 22.15,44.35 21.6,43 22.05,41.75 L 18.4,41.45 Q 16.3,40.95 15.35,39.55 14.6,38.5 14.5,37 q -0.15,-1.65 0.45,-3.25 0.55,-1.65 1.75,-2.8 -3.95,-1.05 -4.65,-3 -0.5,-1.35 0.2,-3 0.55,-1.1 1.8,-2.45 4.85,-5.15 12.2,-8.2 6,-2.6 14.2,-3.95 l 4.65,-0.2 q 0.5,0.1 0.65,0.3 0.3,0.5 -0.15,0.95 l -0.95,0.45 q -10.1,2.7 -15.4,5.1 -8.4,3.8 -13.1,9.4 2.4,1.15 4.05,0.6 0.9,-0.25 2.6,-1.85 3.9,-3.35 11.25,-5.8 6.9,-2.35 10.9,-0.75 1.05,0.4 1.7,1.15 0.75,0.8 0.7,1.75 -0.1,1.1 -1.7,2.3 -3.45,2.45 -9.35,4.25 -6.7,1.95 -12.95,2.75 -1.5,0.2 -2.05,0.5 -0.7,0.35 -1.5,1.25 -1.05,1.2 -1.6,2.45 -0.65,1.3 -0.3,2.15 0.45,1.15 2.8,1.35 2.35,0.2 3.35,-0.35 l 1.5,-1.4 m 24.2,0.15 q 1.15,1.55 2.75,2.6 1.2,0.8 2.95,1.65 l 2.2,0.85 1.6,0.3 q 0.85,0.35 1.15,1.05 l -0.05,1.2 -0.4,1.55 q -1.25,4.35 -5.6,7.1 -1,0.55 -1.5,0.5 L 51.6,52.9 44.8,46.7 q -0.75,-0.85 -0.7,-1.4 0.05,-0.6 1.1,-1.25 2.3,-1.55 3.75,-3.35 l -2.3,-1.25 Q 45.2,38.6 45,37.5 44.75,36.05 46,35.3 l 2.4,0.05 1.35,1.5 M 56.35,48 q 1.45,-1.65 1.8,-3.65 l -1.9,-0.45 -1.8,-0.55 -0.9,-0.5 -0.65,-0.25 -2.55,-1.3 q -1.55,2.1 -3.4,3.8 l 1.85,1.45 4.15,3.65 0.45,0.25 0.45,-0.2 1.85,-1.6 0.65,-0.65 m -2.05,-0.75 0.25,0.35 0.15,0.45 -0.1,0.5 Q 54.2,49.25 53.35,49.1 52.5,48.8 52.6,48 l 0.3,-0.6 q 0.25,-0.3 0.6,-0.35 l 0.8,0.2 M 27.85,25.95 37,23.6 q 3.3,-1.05 5.05,-2.05 -1.65,-0.15 -4.7,0.65 -3.65,1.1 -6.8,2.4 l -2.7,1.35 M 5.2,7.6 Q 3.75,9.25 3.4,11.25 l 1.9,0.45 q 1.2,0.2 1.8,0.55 L 8,12.75 8.65,13 11.2,14.3 q 1.55,-2.1 3.4,-3.8 L 12.75,9.05 8.6,5.4 8.15,5.15 7.7,5.35 5.85,6.95 5.2,7.6 m 6.6,11.15 Q 10.65,17.2 9.05,16.15 L 6.1,14.5 Q 4.45,13.8 3.9,13.65 L 2.3,13.35 Q 1.45,13 1.15,12.3 L 1.2,11.1 1.6,9.55 Q 2.85,5.2 7.2,2.45 8.2,1.9 8.7,1.95 L 9.95,2.7 q 4.4,3.75 6.8,6.2 0.75,0.85 0.7,1.4 -0.05,0.6 -1.1,1.25 -2.3,1.55 -3.75,3.35 l 2.3,1.25 q 1.45,0.85 1.65,1.95 0.25,1.45 -1,2.2 l -2.4,-0.05 -1.35,-1.5 M 7.25,8.35 7,8 Q 6.85,7.85 6.85,7.55 l 0.1,-0.5 Q 7.35,6.35 8.2,6.5 9.05,6.8 8.95,7.6 L 8.65,8.2 8.05,8.55 7.25,8.35 M 18.2,48.2 q -1.9,0.4 -3.5,1.5 -1.2,0.8 -2.65,2.05 L 10.4,53.4 9.45,54.8 Q 8.8,55.4 8.05,55.45 L 6.95,54.9 5.7,53.9 Q 2.2,51.05 1.4,46 1.3,44.8 1.5,44.4 l 1.2,-0.85 q 5.2,-2.6 8.4,-3.8 l 1.55,-0.1 q 0.5,0.3 0.7,1.5 0.55,2.75 1.6,4.75 l 2.1,-1.6 q 1.3,-1 2.45,-0.7 1.4,0.3 1.6,1.75 0.25,1.35 -1,2.2 L 18.2,48.2 M 5.35,49.85 q 0.9,2 2.65,3.05 l 1.15,-1.55 1.2,-1.45 0.8,-0.6 0.5,-0.5 2.2,-1.8 q -1.3,-2.25 -2.15,-4.65 l -2.05,1.15 -5,2.35 q -0.3,0.1 -0.4,0.3 v 0.5 l 0.75,2.3 0.35,0.9 M 6.85,48.25 6.4,48.35 5.95,48.3 5.55,48 q -0.5,-0.6 0,-1.35 Q 6.1,46 6.8,46.4 l 0.45,0.5 0.05,0.7 -0.45,0.65 m 29.45,-12.8 1.55,-0.75 1.9,-1.25 -3.65,0.2 q -1.6,0.35 -4.6,2 -1.6,0.9 -2.25,1.55 l -0.95,0.9 2.4,-0.5 1.7,-0.55 2.75,-1.1 1.15,-0.5"
         fill="#000000"
         fill-rule="evenodd"
         stroke="none"
         id="path5" />
    </g>
    <g
       id="shape2"
       transform="translate(1.5,1.5)">
      <path
         d="M 0,23.8 V 0 H 64.1 V 23.8 57.55 H 0 Z"
         fill="none"
         stroke="#000000"
         stroke-linecap="round"
         stroke-linejoin="round"
         stroke-width="3"
         id="path6" />
    </g>
  </defs>
</svg>
