<?xml version="1.0" encoding="UTF-8" standalone="no"?>
<svg
   ffdec:objectType="frame"
   height="44.349998"
   width="78.599998"
   version="1.1"
   id="svg11"
   sodipodi:docname="87.svg"
   xmlns:inkscape="http://www.inkscape.org/namespaces/inkscape"
   xmlns:sodipodi="http://sodipodi.sourceforge.net/DTD/sodipodi-0.dtd"
   xmlns:xlink="http://www.w3.org/1999/xlink"
   xmlns="http://www.w3.org/2000/svg"
   xmlns:svg="http://www.w3.org/2000/svg"
   xmlns:ffdec="https://www.free-decompiler.com/flash">
  <sodipodi:namedview
     id="namedview11"
     pagecolor="#ffffff"
     bordercolor="#000000"
     borderopacity="0.25"
     inkscape:showpageshadow="2"
     inkscape:pageopacity="0.0"
     inkscape:pagecheckerboard="0"
     inkscape:deskcolor="#d1d1d1"
     fit-margin-top="5"
     fit-margin-left="5"
     fit-margin-right="5"
     fit-margin-bottom="5" />
  <g
     transform="translate(2,2.05)"
     id="g3">
    <use
       ffdec:characterId="1"
       height="42.700001"
       transform="translate(-1.75,-2)"
       width="76.449997"
       xlink:href="#shape0"
       id="use1" />
    <use
       ffdec:characterId="85"
       height="39.650002"
       transform="translate(-0.65,2.3)"
       width="74.199997"
       xlink:href="#shape1"
       id="use2" />
    <use
       ffdec:characterId="3"
       height="44.349998"
       transform="translate(-2,-2.05)"
       width="78.599998"
       xlink:href="#shape2"
       id="use3" />
  </g>
  <defs
     id="defs11">
    <g
       id="shape0"
       transform="translate(1.75,2)">
      <path
         d="M 2.8,0 V -0.4 H 5.4 V 0 H 9.7 V 19.45 0 H 20.55 L 19.3,19.45 H 9.7 0.25 V 0 H 2.8"
         fill="#ffffff"
         fill-rule="evenodd"
         stroke="none"
         id="path3" />
      <path
         d="M 0.25,19.45 H 9.7 19.3 L 18.7,28.6 16,28.5 10.95,27.95 9.7,27.8 Q 7.45,27.6 5.85,27.75 4.05,27.9 1.5,28.6 0.75,28.8 0.25,29.15 v -9.7 m 9.45,0 v 8.35 -8.35"
         fill="#121212"
         fill-rule="evenodd"
         stroke="none"
         id="path4" />
      <path
         d="m 9.7,27.8 1.25,0.15 5.05,0.55 2.7,0.1 h 1.05 l 3.75,0.15 q 2.45,0.3 3.6,1.25 0.6,0.5 0.6,1.1 0,0.65 -0.8,1 l -1.3,0.2 -7.15,0.15 -5.6,-0.3 L 9.7,31.75 7.95,31.6 3.1,31.95 0.95,32.3 0.25,32.1 -0.35,31.55 -0.5,31.3 V 29.9 L 0.25,29.15 Q 0.75,28.8 1.5,28.6 4.05,27.9 5.85,27.75 7.45,27.6 9.7,27.8 v 3.95 -3.95"
         fill="#999999"
         fill-rule="evenodd"
         stroke="none"
         id="path5" />
      <path
         d="M 2.8,0 H 0.25 M 9.7,0 H 5.4 m 16.15,0 h 10.7 M 20.55,0 H 9.7"
         fill="none"
         stroke="#666666"
         stroke-linecap="round"
         stroke-linejoin="round"
         stroke-width="4"
         id="path6" />
      <path
         d="m 9.7,-0.4 h 65 V 40.5 H 47.05 L 45.5,40.7 27,40.65 25.95,40.5 H 9.7 -0.5 V -0.4 H 9.7 V 40.5 -0.4"
         fill="#ffffff"
         fill-rule="evenodd"
         stroke="none"
         id="path7" />
    </g>
    <g
       id="shape1"
       transform="translate(0.65,-2.3)">
      <path
         d="M 67.3,5.8 67.5,7 q 0.1,1.6 -0.9,2.15 L 65.45,9.45 63.65,9.2 62.35,8.65 Q 60.4,7.9 57.15,7.6 L 56,7.3 q -0.95,-0.55 -0.6,-1.75 0.2,-0.85 1.2,-1.5 1,-0.6 3.05,-0.9 l 3.8,-0.3 1.2,0.25 0.95,0.6 0.3,0.25 -0.5,0.25 -0.35,1.05 -0.2,0.6 Q 64.75,6.75 65.6,7 66.35,7.25 66.9,6.55 L 67.25,5.8 h 0.05 m -7.1,19.9 q -1.3,-0.25 -1.85,-0.9 -0.3,-0.4 -0.5,-1.2 l -0.3,-1.3 q -0.5,-1.4 -1.9,-1.9 -1.1,-0.35 -1.35,-0.65 -0.5,-0.6 -0.15,-1.3 0.2,-0.6 0.9,-1.05 l 0.15,-0.1 h -0.1 q -0.6,-0.1 -1.1,-0.6 -0.4,-0.5 -0.5,-1.1 -0.05,-0.65 0.25,-1.3 0.35,-0.6 0.95,-0.85 1.4,-0.5 2.3,0.55 0.9,1.1 0.25,2.35 l -0.1,0.15 3.1,-0.25 1.05,0.05 1.05,0.3 q 2,0.65 2.9,1.5 l 1.25,1.65 0.55,1.6 -1.05,0.25 -0.45,0.25 -0.3,0.5 q -0.2,0.55 0.1,0.85 l 0.3,0.2 -0.45,1.15 -1.25,0.9 -0.05,0.05 q 0.55,-0.4 0.55,-0.85 0,-0.3 -0.4,-0.7 -0.55,-0.5 -1.35,-0.4 -0.75,0.1 -1.4,0.55 -0.8,0.6 -1.05,1.35 L 60.2,25.7 M 53.7,4.95 q 0.25,0.7 -0.15,1.25 -0.5,0.55 -1.2,0.4 -0.3,0 -0.6,-0.3 Q 51.45,6.05 51.4,5.6 51.35,5.1 51.55,4.75 52,4.1 52.7,4.2 q 0.75,0.1 1,0.75 M 45,24.65 q -0.1,-0.55 0.05,-0.95 0.25,-0.6 0.8,-0.85 l 1.2,-0.1 q 0.5,0.15 0.8,0.6 L 48.15,24.3 47.8,25.25 47,25.8 H 46 L 45.25,25.15 45,24.65 m 6.25,-7.3 -0.3,-0.1 L 50.55,17 Q 50.4,16.85 50.4,16.55 l 0.1,-0.65 q 0.15,-0.3 0.55,-0.3 l 0.2,-0.05 q 0.6,0 0.8,0.65 l -0.05,0.65 -0.45,0.4 -0.3,0.1 M 44,36.45 Q 43.45,35.9 43.25,35.1 43,34.15 43.5,33 43.8,32.2 44.65,31.15 L 45.45,30 45.4,28.25 q -0.1,-1.2 0.55,-1.6 l 1.55,-0.1 q 1.5,0.4 2.1,0.8 l 1.1,1 0.55,0.85 0.1,0.65 0.55,0.75 0.35,0.6 q 0.65,1.45 0.5,2.9 l -0.1,0.7 -1.35,-0.5 -1.65,0.1 -0.6,0.6 -0.15,0.4 -0.15,-0.65 Q 48.4,34.25 47.9,34.1 l -1.05,-0.15 q -0.95,0 -1.65,0.35 -0.75,0.4 -1.15,1.15 -0.2,0.6 -0.05,1 m 5.2,-0.25 h -0.75 l 0.45,-0.75 0.05,0.35 0.25,0.4 m -1.75,0.3 Q 47,37 46.35,37.15 l -1.3,-0.1 1,-0.45 1.2,-0.1 h 0.2 M 29.4,5.7 29.45,6.3 Q 29.3,7.05 28.5,7.15 27.7,7.25 27.35,6.45 27.1,5.7 27.75,5.2 l 1.3,0.05 0.35,0.45 m -14.8,-1 2.25,-0.65 2.9,-0.3 1.25,0.3 q 2.9,0.8 5,2.55 l 0.65,0.65 q 0.25,0.45 0.1,1 -0.15,0.55 -0.6,0.8 L 24.95,9.1 23.6,8.5 22.45,8.35 19.9,8.65 Q 19.2,9 18.1,10.1 q -1.2,1 -2,1 -0.95,0.1 -1.7,-0.65 -0.6,-0.65 -0.6,-1.7 l -0.05,-0.9 q 0.9,0.05 1.3,-0.7 0.4,-0.55 0.1,-1.5 L 14.75,4.85 14.6,4.7 M -0.05,31.2 Q -0.8,30.55 -0.65,29.6 -0.45,28.45 1,27.75 L 0.85,27.5 -0.2,26.6 -0.55,25.5 q 0.05,-0.6 0.45,-1 0.9,-0.85 2.4,-0.15 0.65,0.3 1.05,0.8 0.55,0.6 0.75,1.6 L 5.9,26.6 8.2,26.95 8.25,26.9 10.2,26.75 q 1,0.2 1.65,0.9 l 0.8,0.05 q 1,-1.6 1.65,-2.25 1.2,-1.1 2.5,-1.1 l 0.6,0.05 v -0.25 q 0,-1.6 1.15,-2.9 l 1.05,-1.05 1.15,-0.9 0.1,-0.05 0.1,-1.3 0.15,-0.55 0.45,-0.6 0.7,-0.65 q 0.4,-0.35 0.95,-0.5 1.05,-0.45 1.8,-0.5 h 1 q 0.6,0.15 0.75,0.7 0.2,0.4 -0.15,0.95 l 0.7,0.15 q 0.5,0.3 0.5,0.75 -0.05,0.45 -0.5,0.7 L 27,18.55 v 0.5 l -0.45,0.55 -0.65,0.1 -1.05,0.4 0.15,1.15 0.15,0.3 -0.05,0.3 v 0.1 L 25.45,22 q 0.85,0.15 1.25,0.7 l 0.95,-0.35 1.15,-0.15 2.3,0.25 1.1,0.5 q 0.8,0.65 0.7,1.85 l -0.85,1.85 -1.25,1.15 -0.75,0.4 -1.15,0.25 -1.8,0.15 -1.2,-0.05 -0.4,-0.1 q -0.9,0.9 -2.3,0.75 h -0.15 l -0.6,0.6 -0.4,0.3 -1.3,0.8 -0.1,0.45 -0.45,1.3 -1.55,1.4 -0.45,0.4 -0.2,0.6 -0.3,0.65 -0.7,0.65 -0.75,0.55 -1.1,0.5 -0.4,1.65 -0.1,0.3 q 0.2,0.35 0.05,0.75 -0.15,0.75 -0.85,0.9 L 13.15,40.9 11.6,40.8 9.6,40.95 4.2,41.3 1.5,41 Q 1,40.65 0.55,39.45 0,37.7 -0.3,34.6 -0.5,32.4 -0.1,31.4 L 0,31.25 -0.05,31.2 m 8.6,-7.85 0.2,-0.65 q 0.4,-0.75 1.35,-0.95 l 1.1,0.2 q 1.05,0.6 0.95,1.7 -0.1,1.15 -1.1,1.6 -1.05,0.4 -1.9,-0.35 -0.7,-0.55 -0.6,-1.55 m 30.6,3.9 -0.05,0.25 -0.2,0.3 -0.55,0.05 h -0.1 L 38,27.6 V 27.5 L 37.95,27.35 V 27.2 l 0.2,-0.4 0.4,-0.1 v -0.05 l 0.5,0.3 0.1,0.3 m -15.4,3.95 q 1.25,0.25 1.9,1.35 0.65,1.2 -0.05,2.3 -0.45,0.75 -1.5,1 -0.9,0.15 -1.75,-0.3 l -1.1,-0.95 q -0.6,-0.95 -0.2,-2 0.4,-1.05 1.5,-1.35 l 1.2,-0.05 m 3.9,1.5 q -0.4,0.15 -0.8,-0.25 L 26.6,32 v -0.25 l 0.2,-0.5 q 0.3,-0.35 0.8,-0.35 l 0.7,0.45 0.15,0.4 -0.25,0.65 -0.55,0.3"
         fill="#999999"
         fill-rule="evenodd"
         stroke="none"
         id="path8" />
      <path
         d="m 65.9,3.95 h 0.5 l 0.6,0.1 0.55,0.35 q 0.4,0.4 0,1 L 67.3,5.8 H 67.25 L 66.9,6.55 Q 66.35,7.25 65.6,7 64.75,6.75 64.85,5.85 l 0.2,-0.6 0.35,-1.05 0.5,-0.25 m 1.15,17.4 0.1,-0.05 Q 68,21.2 68.2,22.05 l -0.05,0.7 -0.5,0.5 -0.8,0.15 -0.75,0.05 -0.45,-0.05 -0.3,-0.2 q -0.3,-0.3 -0.1,-0.85 l 0.3,-0.5 0.45,-0.25 1.05,-0.25 m -3.15,4.15 -1,0.5 -0.2,0.25 0.05,0.35 -0.15,0.75 Q 62.35,27.75 61.95,27.8 61,28.05 60.45,27.15 60,26.5 60.2,25.7 l 0.05,-0.25 q 0.25,-0.75 1.05,-1.35 0.65,-0.45 1.4,-0.55 0.8,-0.1 1.35,0.4 0.4,0.4 0.4,0.7 0,0.45 -0.55,0.85 m -11.25,9.3 0.8,0.65 q 0.4,0.5 0.4,1.15 0,0.7 -0.45,1.1 l -0.75,0.25 -0.6,-0.35 -0.55,-0.55 -1.4,-0.45 -0.9,-0.4 -0.25,-0.4 -0.05,-0.35 -0.45,0.75 -0.1,0.05 -0.9,0.25 h -0.2 l -1.2,0.1 -1,0.45 h -0.3 Q 44.25,37 44,36.45 q -0.15,-0.4 0.05,-1 0.4,-0.75 1.15,-1.15 0.7,-0.35 1.65,-0.35 l 1.05,0.15 q 0.5,0.15 0.85,0.65 l 0.15,0.65 0.15,-0.4 0.6,-0.6 1.65,-0.1 1.35,0.5 M 13.75,7.85 13.15,7.7 12.5,7.5 11.9,7.25 Q 11.45,6.8 11.95,6.25 11.5,5.5 11.8,4.9 12,4.35 12.8,4.15 l 1.3,0.25 0.5,0.3 0.15,0.15 0.4,0.8 q 0.3,0.95 -0.1,1.5 -0.4,0.75 -1.3,0.7"
         fill="#ffffff"
         fill-rule="evenodd"
         stroke="none"
         id="path9" />
      <path
         d="m 70.45,3.7 1.25,0.75 1,0.95 0.65,1.4 q 0.3,0.95 0.2,1.5 L 73.25,9.1 72.8,10.15 72,10.9 71,11.45 67.8,11.25 67,10.9 65.85,10.95 64.15,10.7 Q 63.3,10.35 63.05,9.5 L 63.1,8.15 63.15,7.4 63.5,6.75 63.55,6.7 63.1,5.95 Q 62.95,5.5 63.15,4.85 63.3,4 63.8,3.35 q 1,-1.2 3.05,-1 l 1.35,0.3 0.75,0.8 1.5,0.25 M 70.9,8.6 71.2,7.75 71.1,7.2 70.8,6.35 70.35,5.9 70.05,5.35 69.35,4.85 68.7,4.6 68.2,4.7 67.75,4.45 l -0.4,-0.3 -0.7,-0.1 -0.9,0.15 q -0.45,0.25 -0.6,0.65 -0.05,0.3 0.2,0.85 0.9,-0.8 2.15,-0.85 1,-0.05 1.85,0.5 0.85,0.6 1.15,1.5 L 70.7,8.35 70.65,8.9 70.9,8.6 M 54.95,5.65 56.85,5.1 60.25,4.7 q 1.05,0.1 1.45,1 0.4,1 -0.25,1.75 Q 60.8,8.25 59.8,8 L 59.05,7.7 57.4,7.5 56.6,7.65 55.9,7.7 55.1,7.85 53.5,8.15 52.85,8.1 52.8,7.7 53,7.35 53.1,7 53.45,6.65 q 0.75,-0.65 1.5,-1 m -1.2,12.65 h -0.9 q -0.2,0 -0.3,-0.15 -0.15,-0.2 0.2,-0.45 0.2,-0.3 0.55,-0.45 l 1.25,-0.65 1.4,-0.3 2.1,0.05 1.5,0.4 1.35,0.45 0.4,0.5 0.4,0.75 q 0.35,1.1 -0.6,1.85 -0.9,0.75 -1.9,0.15 l -1,-1 -0.25,-0.25 -0.25,-0.15 q -1.65,-0.75 -3.4,-0.9 h -0.25 l -0.3,0.15 m 12.35,1.8 1.15,0.05 q 1.35,0.25 2.15,1 0.45,0.45 0.55,1.05 0.15,0.65 -0.1,1.15 1.45,1.6 1.1,3.95 -0.4,2.2 -2.3,3.4 -1.05,0.75 -2.25,0.8 L 64.6,31.1 63.35,30.3 Q 62.7,29.75 62.75,29.35 61.2,29.5 59.95,28.65 59.25,28.3 59,27.7 l -0.2,-0.9 q 0,-1.4 0.4,-2.4 0.35,-0.9 0.95,-1.3 l 0.3,-0.15 q 0.25,-0.35 0.85,-0.5 l 1.65,-0.2 0.5,-0.1 0.3,-0.4 q 0.45,-1.05 1.55,-1.1 0.25,-0.35 0.8,-0.55 m -5.05,4.85 -0.3,0.55 -0.15,0.9 q 0,0.35 0.15,0.55 l 0.35,0.2 0.15,0.05 0.05,-0.65 q 0.1,-0.7 0.35,-1.15 0.4,-0.65 1.05,-0.85 l 0.55,-0.25 0.15,-0.1 -1.25,0.1 -0.7,0.3 -0.4,0.35 m 7,-2.4 q 0,-0.5 -0.75,-0.7 l -0.8,-0.25 -0.45,0.35 q -0.5,0.25 -0.6,0.35 l -0.2,0.4 q 0.15,-0.2 0.35,-0.25 l 0.6,-0.05 q 1.25,0 1.7,0.55 l 0.05,0.05 0.1,-0.45 m -34.15,3 q -1.35,0.6 -2.5,0.45 -1.45,-0.25 -2.05,-1.3 l -5.4,3.1 q -1.6,1 -2.6,1.15 -1.75,0.3 -2.6,-0.9 -0.6,-0.8 -0.4,-2.1 0.35,-2 2.05,-3.6 1.2,-1.2 3.45,-2.45 l 0.6,-0.6 -0.25,-0.95 q -0.45,-1 -0.15,-2.2 0.35,-1.15 1.2,-2 1.1,-1.1 4,-2.3 0.15,-3.55 3.7,-6.3 3.65,-2.9 8,-2.9 2.2,0 4.25,0.85 2.05,0.85 3.55,2.4 1.5,1.6 2.2,3.7 0.65,2.15 0.25,4.25 -0.35,1.6 -1.35,3.45 -2,3.75 -5.1,5.8 -3.65,2.4 -7.45,1.95 l -1.85,-0.1 -1.55,0.6 m 11.5,-18 Q 43.15,6 40.3,6.25 36.55,6.5 34.05,9.3 q -1.3,1.4 -1.5,2.9 l -0.05,0.4 0.1,0.65 q 0.35,-1 1.85,-2.5 2.05,-1.9 3.8,-2.75 2.45,-1.15 4.55,-0.65 1.25,0.3 2.8,1.3 1.45,1.05 2.1,2.1 -0.5,-1.9 -2.3,-3.2 m 3.8,23.2 q -0.4,1 -1.5,1.1 -1.05,0 -1.55,-0.95 l -0.2,-1.8 Q 45.85,27.35 45,25.95 l -0.35,-0.7 q 0,-0.4 0.4,-0.65 l 0.8,-0.15 q 0.6,0.15 1.3,1.05 l 1.2,1.4 0.8,1.3 0.2,1.45 -0.15,1.1 M 45.85,41.9 q -1.6,-0.1 -2.7,-0.6 l -1.4,-0.95 Q 41,39.55 40.9,38.8 40.8,37.95 41.4,37.2 l 0.6,-0.8 0.1,-0.9 q 0.1,-1.6 1.5,-2.5 1.25,-0.8 2.9,-0.65 1.6,0.2 2.35,1.15 1.4,-0.6 3.45,-0.05 l 1,0.45 q 0.75,0.45 1.2,1.6 l 0.2,1.2 q 0,1.15 -1.05,2.75 l -0.55,0.8 Q 52.4,41 50.75,41.5 l -2,0.35 -2.9,0.05 m 7.35,-4.95 -0.1,-0.7 -0.4,-0.7 Q 52.2,35 51,34.9 L 49.9,35 h 0.5 q 1.15,0 1.85,0.65 0.8,0.6 0.9,1.45 l 0.05,-0.15 m -6.1,-2.4 -0.5,-0.2 -1.4,0.2 q -0.7,0.2 -0.9,0.7 -0.1,0.25 -0.05,0.7 l 0.05,-0.05 1,-0.3 0.8,-0.4 1.3,-0.4 -0.3,-0.25 M 21.8,3.85 23.35,3.9 q 0.7,0.15 1.6,0.9 0.7,0.5 1.2,1.1 l 0.9,1.65 0.4,1.4 q 0,0.65 -0.3,0.9 l -1,-0.1 -0.7,-0.85 Q 24.25,7.1 22.25,7 L 19.7,6.95 q -1,-0.5 -1,-1.6 0.1,-1.15 1.15,-1.5 l 0.95,-0.1 1,0.1 m 8.3,11.05 q -1.55,0.4 -2.6,1.45 -0.35,0.35 -0.4,0.6 V 17 l 0.95,0.35 q 0.2,-0.65 0.95,-1.3 l 1.2,-0.9 0.2,-0.05 0.35,-0.3 -0.65,0.1 M 10,3.8 h 0.75 L 11.3,3.3 q 0.45,-0.4 1.5,-0.4 l 1.8,0.05 q 1.05,0.25 1.55,0.9 0.4,0.5 0.45,1.4 l -0.05,1.5 0.05,0.45 0.15,0.35 0.5,1.7 -0.35,1.1 -0.85,1.05 -0.85,0.45 -1.85,0.3 -0.8,0.05 -0.8,0.7 q -0.5,0.45 -1.6,0.9 L 9.05,14.1 7.1,13.75 5.8,13.1 5.2,12.25 Q 4.85,11.65 4.85,11.1 L 5.25,9.6 Q 4.2,9 4.2,7.85 l 0.25,-1 Q 5.05,5.25 6.65,4.3 8.2,3.5 10,3.8 m 4.8,2.1 Q 14.9,5.2 14.5,4.85 L 13.75,4.7 h -0.6 L 12.6,4.8 12.55,4.9 13.2,5.05 q 0.65,0.2 1.1,0.75 L 14.75,6.4 14.8,5.9 M 7.8,6 6.8,6.9 6.45,7.45 6.35,7.75 6.6,8.05 6.9,8.25 6.95,8.1 7.15,7.65 7.5,7.1 8.05,6.5 8.8,6 9.1,5.75 7.8,6 m 5.3,19 -0.05,0.5 0.45,0.25 0.15,0.05 Q 13.5,25.25 13.7,24.65 L 14,24 13.1,25 m -2.05,1.4 Q 10.9,26.15 11,25.75 l 0.05,-0.9 0.1,-0.4 0.4,-0.7 0.4,-0.5 1.25,-1.1 q 0.6,-0.45 2.35,-1.2 l 0.6,-0.2 h 0.65 l 1.55,0.2 q 0.4,0.1 0.6,0.45 l 0.15,0.55 0.05,0.9 -0.75,1.45 -0.65,0.75 -0.7,0.6 -0.4,0.55 q -1.15,1.4 -2.35,1.85 -1.15,0.35 -2,0 -1.05,-0.5 -1.2,-1.5 L 11.05,26.4 m 3.5,4.75 q 0.65,0.6 0.35,1.95 -0.4,1.55 -1.8,2.45 l -1.2,0.55 -2.35,0.15 -1,-0.65 q -0.45,-0.5 -0.4,-1.1 0,-0.7 0.7,-1.4 l 1.2,-1 1.55,-1.2 1.55,-0.3 q 1,0.1 1.4,0.55 m -4.65,3 0.3,0.3 q -0.05,-0.4 0.05,-0.75 L 9.9,34.15 M 25.5,29.1 q -0.15,-0.6 0.3,-1.2 0.35,-0.4 0.85,-0.55 l 1,0.1 0.75,0.75 0.1,1 Q 28.4,29.7 27.95,30 L 27,30.35 Q 26.5,30.35 26.05,30 25.6,29.65 25.5,29.1"
         fill="#000000"
         fill-rule="evenodd"
         stroke="none"
         id="path10" />
    </g>
    <g
       id="shape2"
       transform="translate(2,2.05)">
      <path
         d="M -0.5,-0.4 V -0.55 H 75.1 V -0.4 40.8 H -0.5 Z"
         fill="none"
         stroke="#000000"
         stroke-linecap="round"
         stroke-linejoin="round"
         stroke-width="3"
         id="path11" />
    </g>
  </defs>
</svg>
