<?xml version="1.0" encoding="UTF-8" standalone="no"?>
<svg
   ffdec:objectType="frame"
   height="60.549999"
   width="67.099998"
   version="1.1"
   id="svg8"
   sodipodi:docname="189.svg"
   xmlns:inkscape="http://www.inkscape.org/namespaces/inkscape"
   xmlns:sodipodi="http://sodipodi.sourceforge.net/DTD/sodipodi-0.dtd"
   xmlns:xlink="http://www.w3.org/1999/xlink"
   xmlns="http://www.w3.org/2000/svg"
   xmlns:svg="http://www.w3.org/2000/svg"
   xmlns:ffdec="https://www.free-decompiler.com/flash">
  <sodipodi:namedview
     id="namedview8"
     pagecolor="#ffffff"
     bordercolor="#000000"
     borderopacity="0.25"
     inkscape:showpageshadow="2"
     inkscape:pageopacity="0.0"
     inkscape:pagecheckerboard="0"
     inkscape:deskcolor="#d1d1d1"
     fit-margin-top="5"
     fit-margin-left="5"
     fit-margin-right="5"
     fit-margin-bottom="5" />
  <g
     transform="translate(1.5,1.5)"
     id="g3">
    <use
       ffdec:characterId="516"
       height="57.549999"
       width="64.099998"
       xlink:href="#shape0"
       id="use1" />
    <use
       ffdec:characterId="697"
       height="53.849998"
       transform="translate(-1.1,1.85)"
       width="63.200001"
       xlink:href="#shape1"
       id="use2" />
    <use
       ffdec:characterId="518"
       height="60.549999"
       transform="translate(-1.5,-1.5)"
       width="67.099998"
       xlink:href="#shape2"
       id="use3" />
  </g>
  <defs
     id="defs8">
    <g
       id="shape0">
      <path
         d="M 53.6,0 H 64.1 V 57.55 H 53.6 28.25 0 V 0 H 28.25 53.6 V 57.55 0 M 28.25,0 V 57.55 0"
         fill="#ffffff"
         fill-rule="evenodd"
         stroke="none"
         id="path3" />
    </g>
    <g
       id="shape1"
       transform="translate(1.1,-1.85)">
      <path
         d="m 48,4.7 q 0.9,-0.5 2.65,-0.6 l 1.95,0.1 2.25,0.75 1.25,0.55 1.4,-0.05 1.15,-1.4 0.3,-0.7 0.2,-0.95 q 0.4,-0.4 0.9,0.1 L 60.3,3.4 60,4.95 59.35,6.25 Q 58.2,7.75 56,7.5 L 54.4,7.1 52.8,6.8 50.8,6.95 Q 49.75,7.2 49.45,7.4 49.25,7.5 49.2,7.7 l 0.15,0.9 q 0.2,0.55 0,1.15 l -0.75,0.85 -1.15,0.15 q -0.6,-0.15 -0.9,-0.7 L 46,8.35 Q 45.9,7.9 46.1,7 46.7,5.45 48,4.7 m 3.1,6.8 q 1.75,-0.35 2.35,0.3 0.5,0.5 0.4,1.35 l -0.35,1.4 -0.75,3.3 -1,3.15 q -1.8,4.1 -7.1,6.2 l -4.3,1.15 -0.35,0.7 -0.4,0.6 q -0.65,0.95 -1.65,1.3 l -1.2,0.3 -1,-0.2 -0.6,-0.15 Q 34.35,30.7 34.05,30.4 33.6,30.05 33.7,29.35 L 33.85,29 33.65,28.95 Q 32.85,28.7 32.5,27.75 32.2,26.8 32.7,26.1 33,25.65 33.85,24.95 l 0.65,-1.2 q 1.4,-2.9 2.25,-4.25 l 1.2,-1.85 Q 39.4,15.8 41.6,14.65 45,12.7 51.1,11.5 M 38.05,3.95 38.8,3.4 40.55,2.7 42.5,2.5 l 1,0.1 0.7,0.1 q 0.55,0.1 0.35,0.55 -0.05,0.3 -0.75,0.4 -2.25,0.1 -3.35,0.75 L 39.5,5.25 41,6.6 q 0.75,0.85 0.95,1.7 0.25,1.1 -0.35,1.85 l -1.15,0.7 -1.9,-0.05 Q 37.9,10.35 38,9.55 38,8.85 38.65,8.35 L 37.7,7.25 q -0.45,-0.6 -0.5,-1.1 l 0.1,-0.7 0.25,-0.85 0.5,-0.65 m 21.9,31.35 q -0.7,2.75 -2.6,3.85 -0.75,0.45 -1.5,0.5 L 54.4,39.4 q -0.8,-0.4 -1,-1.65 l -1.65,0.4 q -0.95,0.1 -1.45,-0.65 -0.25,-0.35 -0.25,-1 -0.1,-1.6 0.55,-2.25 0.85,-0.9 2.2,-0.65 1.2,0.2 2.05,1.1 0.9,0.95 0.95,2.15 0.6,0.05 1.15,-0.95 1.05,-2.2 0.8,-4.85 l -0.1,-1.8 q 0.05,-0.65 0.55,-1.75 0.5,-1.1 1.25,-1.65 0.65,-0.4 1.85,-0.6 0.65,-0.1 0.75,0.2 Q 62.2,25.8 61.8,26 l -0.6,0.2 q -1.2,0.55 -1.3,2.1 l 0.3,2.6 q 0.3,2.15 -0.25,4.4 m -4.05,12 0.05,-0.45 q -0.2,-0.3 -0.5,-0.1 l -0.4,0.4 -0.9,0.55 q -0.65,0 -1,-0.7 -0.25,-0.65 0,-1.3 l 0.8,-1.1 0.65,-0.5 q 0.75,-0.35 1.8,0 0.95,0.25 1.6,0.9 0.6,0.6 0.7,1.75 0.05,0.9 -0.4,1.85 l -1.4,1.95 -0.15,0.35 v 0.3 l 0.35,0.55 h 0.4 l 1.2,-0.35 0.65,-0.25 0.45,-0.25 0.1,-0.55 q 0.1,-0.2 0.35,-0.2 l 0.4,0.05 q 0.35,0.25 0.25,0.8 -0.1,0.65 -1.25,1.4 -1.3,0.75 -2.25,0.8 -1.4,0.1 -2.1,-0.9 -0.35,-0.55 -0.45,-1.65 l 0.1,-1.05 0.6,-1.4 0.35,-0.9 M 15.25,5.3 Q 15.35,4.65 15.6,4.25 L 16,3.8 l 0.6,-0.5 0.5,0.15 0.15,0.5 -0.4,0.6 q -0.3,0.3 -0.3,0.7 l 0.1,0.5 0.6,0.1 L 17.8,5.5 21.3,2.55 22.35,2.1 23.9,1.9 q 0.85,0.15 1.3,0.7 0.6,0.55 0.6,1.45 0,0.75 -0.5,1.5 l -0.1,0.25 0.1,0.25 q 0.4,0.5 0.25,1.1 L 24.8,8.05 23.65,8.1 Q 22.75,7.9 22.35,7.3 22.05,6.95 22.05,6.15 L 22.3,4.95 20.05,6.35 18.5,7.3 16.7,7.55 Q 15.6,7.4 15.3,6.45 15.15,5.95 15.25,5.3 M 8,9.45 7.25,10.55 Q 6.85,11.2 6.8,11.7 6.7,12.05 6.95,12.35 l 0.5,0.35 0.7,0.55 q 0.45,0.55 0.3,1.3 -0.05,0.7 -0.75,1.1 L 5.7,15.6 Q 3.9,14.8 3.8,12.8 L 3.9,11.7 Q 4.15,10.1 5.05,9.15 L 5.9,8.4 6.7,7.5 7.05,6.65 6.9,5.95 6,4.7 Q 5.45,4.15 5.5,3.85 5.6,3.4 6.05,3.4 l 0.7,0.15 q 1.05,0.5 1.5,1.5 L 8.7,6.45 8.8,7.3 8.6,8.25 8,9.45 m 13.7,24.3 q -1.85,0.75 -4.6,0.85 -3.3,0.2 -5.6,-0.8 L 9.1,32.5 7.55,31.45 6.75,30.2 Q 6,28.8 5.9,28.15 5.7,26.75 6.55,26.05 6.95,25.7 8.05,25.5 l 2.9,-0.6 8.35,-0.25 q 3.1,0.3 4.75,1.55 0.75,0.55 0.4,1.05 l 0.4,0.25 0.1,-0.25 q 0.3,-0.5 0.95,-0.3 0.4,0.1 0.8,0.7 0.65,1.05 0.15,2.3 -0.4,0.9 -1.75,1.75 l -1.3,0.8 q -0.85,0.75 -2.1,1.25 M 2.2,39.1 2.5,37.5 2.9,35.85 q 0.2,-0.9 0.55,-1.45 0.35,-0.5 1,-0.9 l 2.5,-0.2 q 1.6,0.65 1.85,2.85 0.1,1.1 -0.25,1.6 l -1,0.7 L 6.4,38.35 5.85,37.85 5.65,37 5.6,35.75 q -0.4,0 -0.6,0.4 l -0.25,0.7 -0.95,3.3 -0.5,1.05 -0.9,0.7 -1.75,0.1 -1.1,-0.3 -0.6,-0.5 q -0.2,-0.55 0.25,-0.7 l 0.5,0.05 0.45,0.2 H 0.7 L 1.45,40.6 1.95,40.1 2.05,39.55 2.2,39.1 m 25.1,-0.45 1.3,-0.85 1.6,-0.1 1.65,0.25 q 1.05,0.4 1.8,1.7 0.85,1.4 1.1,3.75 0.25,2.05 0,3.6 -0.3,1.3 -1.2,3.2 l -0.7,1.25 -1.05,1.05 q -2.5,2.3 -4.45,2.75 -1.5,0.4 -2.2,-0.5 l -0.8,-0.55 -1.1,-1.1 q -1.5,-1.7 -1.85,-2.7 l -0.2,-0.7 -0.1,-0.85 0.15,-1 0.2,-0.8 q 0.45,-0.55 1,-0.1 0.3,0.25 0.4,1.05 L 22.9,48.15 23,45.1 q 0.1,-0.9 0.35,-1.25 L 23.75,43.5 24,42.7 q 0.3,-0.7 1.05,-1.55 1.05,-1.4 2.25,-2.5 m -13.2,12.5 1.15,-0.4 2.4,-0.2 q 0.8,0.2 1.45,0.8 0.85,0.65 1.05,1.35 0.25,1.1 -0.8,1.7 L 17.5,54.35 q -0.65,-0.5 -1,-0.65 l -0.9,-0.05 q -0.75,0.05 -1.75,0.6 L 12.1,55.1 q -1.35,0.6 -2.85,0.6 L 7.1,55.5 Q 5.25,55.2 4.65,54.4 4.35,53.95 4.15,53.3 3.9,52.55 4.25,52.4 q 0.2,-0.2 0.6,0 l 0.4,0.45 0.8,0.7 1.3,0.3 2.1,-0.1 q 1,-0.2 2.35,-1.15 l 2.3,-1.45"
         fill="#999999"
         fill-rule="evenodd"
         stroke="none"
         id="path4" />
      <path
         d="m 44.3,29.1 1.3,0.8 q -0.1,0.2 -0.05,0.45 0.1,0.85 0.95,0.85 0.7,0.1 0.95,-0.6 l 0.05,-0.45 0.1,0.25 0.3,0.35 0.75,0.15 0.3,-0.3 0.15,-0.35 -0.05,-0.55 0.05,-0.05 0.55,0.3 0.75,-0.2 0.45,-0.65 V 28.65 Q 50.7,28.1 50.3,27.95 v -0.2 l 0.1,-0.6 -0.65,0.15 q -0.5,-0.1 -0.75,-0.4 -0.45,-0.45 -0.2,-1.2 0.4,-0.65 1.05,-0.6 l 0.55,0.2 -0.05,-0.2 q -0.25,-0.9 -0.9,-1.25 -0.5,-0.35 -1.6,-0.35 l -1.2,0.05 -0.5,0.1 -0.7,0.35 -1.15,0.8 q -0.8,0.8 -0.9,2.15 l 0.05,0.55 0.15,0.5 0.7,1.1 M 35,22.9 q -0.4,0.15 -0.85,0.45 h 0.25 q 1.75,0.15 2.6,1.05 l 0.3,-0.45 0.55,-0.8 q 0.35,-0.45 0.8,-0.5 l 0.9,0.3 0.75,0.6 0.4,0.25 0.3,-0.4 q -3.15,-1.6 -6,-0.5 m -6.1,12.85 q 1.5,1.55 1.8,3.8 0.25,2.15 -0.55,4.15 l -0.85,1.5 -1.65,1.3 q -2.2,1.45 -4,1.65 L 21.35,48.1 19.8,47.85 19.5,47.7 19.35,48 q -0.3,0.6 -1.45,1.1 -3.4,1.6 -7.2,2.05 L 8.6,51.45 7,51.8 Q 6.05,51.9 5.55,51.25 5.25,50.9 5.25,50.1 L 5.5,48.45 5.85,46.8 q 0.7,-3 1.3,-4.5 1.2,-2.8 3.9,-5.5 L 11.15,36.75 11.1,36.7 Q 9.15,33.5 8.9,31.25 8.75,29.7 9.2,27.7 q 0.65,-3.4 1.95,-5.2 1.3,-1.75 4.2,-3.05 l -1,-0.25 q -1.55,-0.1 -3.7,0.9 L 9.1,20.45 Q 8.45,20.3 8.35,19.65 8.25,19.1 8.7,18.25 L 9.4,17 l 0.65,-0.8 2.5,-2.4 q 1.9,-1.45 3.55,-1.75 h 2.4 l 0.15,0.05 q -0.3,-1.7 0.3,-2.45 0.75,-0.95 2.2,-0.7 1.05,0.2 1.95,1.3 l 0.75,0.95 0.4,0.4 q 0.7,-1.35 2.7,-2.7 l 1,-0.6 1.15,-0.4 2.95,-0.5 1.25,0.15 q 1.15,0.3 2.3,1.85 0.45,0.45 0.4,0.95 Q 35.85,11 35.1,11 h -1.25 q -0.6,0.05 -1.4,0.5 l -1.25,0.85 q 3.95,-1.15 7.8,0.75 3.1,1.55 4.4,4.5 0.6,1.35 0.85,3.6 2.1,-0.7 4.8,-0.1 1.3,0.3 1.95,0.8 l 1.2,1.2 0.85,1.45 q 0.5,1.15 0.5,2.95 l -0.2,1.55 q -0.3,1.2 -1.3,2.35 l -2.1,1.85 -1.15,0.8 -1.65,0.45 -0.4,0.05 q 1.7,1.15 2.6,2.75 l 0.8,1.85 q 2.6,7.5 1,14.45 l -0.7,1.5 q -0.8,0.75 -2.75,0.45 -3.75,-0.6 -7.95,-2 -1.4,-0.4 -2.4,-0.95 -1.8,-1 -3.05,-2.8 Q 33.05,48.1 32.6,46 31.95,43.3 32.55,40 L 31.9,39.6 q -1.05,-0.75 -1.3,-2.35 -0.2,-0.9 0.05,-1.95 l -1.05,-0.25 -0.2,-0.2 -0.6,0.8 0.1,0.1 m 16.25,-7.2 Q 44.8,28.25 44.7,27.7 l 0.1,-0.65 q 0.2,-0.5 0.7,-0.75 l 1,-0.1 0.8,0.6 q 0.3,0.5 0.2,1 -0.15,0.8 -0.95,1.1 -0.8,0.25 -1.4,-0.35 m -8.8,0.25 -0.9,-0.65 -0.7,-0.85 q -0.05,-0.45 0.3,-0.9 l 0.65,-0.6 -0.5,-0.2 -1.15,0.15 -0.6,0.55 0.05,0.3 0.65,0.9 q 1,1.15 1.4,2.65 l 0.1,0.55 q 0.1,0.95 -0.4,1.8 l -0.7,0.9 0.1,0.1 0.25,0.25 0.2,-0.1 q 3.45,-0.95 6.2,-0.8 l -0.75,-1.05 -0.6,0.15 q -0.55,0.1 -0.8,0.3 l -0.55,0.45 -0.85,0.05 q -0.45,-0.1 -0.6,-0.5 l -0.1,-0.6 -0.35,-2.05 -0.35,-0.8 m -1.55,8.65 q -0.2,0.3 -0.3,0.95 l -0.05,0.75 q -0.4,4.25 0.4,6.4 l 1.55,2.85 0.9,1.15 1.4,0.9 3.8,1.2 3.95,1.05 2.6,0.45 q 0.55,-4.1 0.5,-5.8 -0.1,-2.6 -1.2,-6.45 L 47.3,38.15 q -1.5,-2.4 -4.85,-2.9 L 36.7,35.7 h -0.05 l 1.15,0.65 1.6,1.55 0.85,1 1.1,1.9 1.25,2.45 0.15,0.4 0.35,0.7 0.25,1.8 v 0.15 l -0.15,0.1 -0.2,-0.1 -0.15,-0.4 -0.4,-1.1 -2,-3.25 -0.85,-1.4 -1.15,-1.1 Q 37.65,38.3 36.9,37.85 36.25,37.4 35.4,37.25 L 35.05,37.2 34.8,37.45 m -7.8,-22.7 0.8,1 0.4,-1 v -0.1 q 0,-2.3 2.35,-3.95 1.15,-0.8 2.4,-1.2 -0.75,-0.2 -1.85,0 -2.45,0.5 -3.7,1.2 -1.15,0.6 -2.2,1.75 l 1.8,2.3 m -6.5,6.6 q -1.7,-0.05 -3.7,0.9 -2.55,1.1 -3.45,2.75 l -0.8,2.2 q -0.9,3.65 -0.05,5.45 1.5,-4.1 5.25,-6.4 1.4,-0.85 2.35,-1 l 2.75,-0.15 2.45,0.2 q 1.15,0.2 1.9,0.8 l 0.9,0.05 -0.05,-0.35 q 0,-1.05 0.9,-2.2 2.15,-2.8 5.45,-3.7 3.4,-0.95 6.6,0.35 -0.2,-1.55 -1.4,-2.8 -0.85,-0.95 -2.6,-1.75 -2.4,-0.95 -4.45,-0.6 -2.4,0.45 -3.65,2.3 l 0.3,1.05 0.1,-0.1 q 2.25,-1.7 5,-1.05 l 0.85,0.4 q 0.45,0.45 0.2,0.8 -0.25,0.4 -1.05,0.4 l -2.85,0.55 -0.7,0.35 -1.05,0.7 -0.45,0.45 -1.35,1.95 -0.35,0.85 -0.15,0.15 -0.1,0.3 -0.25,0.2 q -0.2,0 -0.3,-0.15 V 24.2 l -0.6,-0.1 -0.9,-0.45 -1.9,-0.5 -1.85,0.15 -1.2,0.2 -1.4,0.35 -1.45,0.55 q -0.1,0.35 -0.45,0.35 -0.2,-0.3 0.15,-0.65 1.25,-1.55 3.95,-2.55 L 21.55,21.4 20.5,21.35 m 2.7,-4.1 0.8,1.4 0.25,0.95 0.6,0.75 1.1,-0.15 0.6,-0.35 0.5,-0.6 q 0.2,-0.4 -0.2,-1 l -0.65,-0.75 -2.65,-3.25 -2.7,-2.9 q -0.1,0.4 0.3,1.15 l 0.15,0.6 1.9,4.15 M 19.5,14.7 19.2,13.8 h -0.4 l -2.85,0.45 q -0.7,0.3 -1.4,0.75 l -2.65,2.25 1.35,-0.15 1.9,-0.05 q 1.4,0.25 3,1.2 l 0.2,0.15 2,-0.25 -0.2,-0.3 -1.1,-1.4 q -1.2,-1.05 -2.25,-0.9 -0.25,-0.1 0.15,-0.25 l 0.55,-0.25 1.5,0.05 0.75,0.2 -0.25,-0.6 m 1.45,12.95 q -0.9,0.35 -2.15,1.4 -1.4,1.15 -2.05,2.05 -0.8,1.2 -1.2,3 l 0.45,-0.2 1.7,-0.2 0.9,-0.05 0.05,-0.05 0.7,-0.5 0.75,-0.9 0.4,-0.8 1.5,-0.1 0.25,0.05 q -0.5,-0.95 -0.35,-2.1 0.1,-1.2 0.9,-1.95 l -1.85,0.35 m -4.3,17.4 -0.45,-1.7 q -0.35,-2.55 0.1,-4.15 0.3,-0.8 0.75,-1.5 l 0.95,-1.3 0.65,-0.6 -0.1,-0.1 -0.1,-0.15 -0.4,-0.05 -2.65,0.1 -0.15,0.05 -0.1,0.95 -0.5,1.5 -0.95,0.45 -1.1,-0.25 -0.8,-0.65 -1.7,2.5 Q 9.2,41.6 8.85,42.8 l -1.25,6.3 4.95,-0.85 q 2.85,-0.55 4.7,-1.55 l 0.5,-0.2 -1.1,-1.45 m 5.4,-4.1 v 0.15 q 0.15,0.7 -0.35,1.2 -0.7,0.6 -1.45,0.3 l -0.7,-0.7 -0.1,-0.45 0.05,-0.4 v -0.3 l 0.4,-0.75 1.55,-0.1 0.45,0.45 0.15,0.6 m -2.9,-2 -0.4,0.75 -0.2,0.9 q -0.1,1.05 0.15,1.65 0.35,0.85 1.15,1.35 l -0.1,0.3 q -0.1,0.5 0.25,0.85 l 0.6,0.35 0.9,-0.2 0.3,-0.2 v 0.1 l 0.3,0.6 0.65,0.25 q 0.6,0.05 1,-0.35 l 0.4,-0.75 q 0.4,0.4 1.05,0.25 L 26,43.95 V 43.4 l -0.25,-0.6 0.35,-0.45 q 1,-1.2 1.1,-2 0.3,-1.65 -1.2,-2.7 l -1.1,-0.6 -0.75,-0.3 -1.1,-0.05 h -0.9 q -0.95,0.15 -1.75,0.8 l -1.25,1.45 m 20.1,-12.3 q 0.15,-0.9 0.65,-1.75 l -0.8,-0.4 -0.85,1.25 -0.95,1.2 0.95,1.1 0.35,1.1 0.2,0.95 0.85,-0.25 q -0.65,-1.9 -0.4,-3.2 m -10.15,1.55 -1.35,-0.1 0.1,0.3 0.45,0.7 1,0.7 1.55,-0.35 0.35,-0.25 0.2,-0.4 0.1,-0.85 -0.05,-0.65 -0.2,-0.55 Q 30.5,28.1 29.1,28.2 M 24.65,31 25.5,30.45 q 0.4,-0.35 0.95,-0.25 0.6,0.15 0.9,0.95 l 0.45,0.8 0.6,0.25 1.4,0.25 0.5,0.15 2,-0.95 0.5,-0.45 -0.05,-0.9 -0.45,0.55 -1.25,0.6 -0.55,0.2 -1.05,0.05 -0.8,-0.05 -0.6,-0.3 -0.9,-0.95 -0.55,-0.75 -0.3,-0.85 -0.05,-0.25 -0.4,0.1 q -1.1,0.4 -1.3,0.55 -0.6,0.6 -0.2,1.8 L 24.4,31.15 24.65,31 m 8.8,5 V 35.8 L 33.15,35.65 33,35.6 q 0,0.6 0.35,1.05 L 33.45,36 m -10.1,-2.3 3,0.4 1.3,0.65 0.65,-1.05 q -1.5,-0.15 -2.25,-1.55 -1.7,1.1 -3.2,0.95 L 21.7,33 20.95,34.25 q 1.15,-0.45 2.4,-0.55 m 0.4,6.7 Q 23.65,39.8 24,39.4 24.35,39 24.8,39 l 0.1,-0.05 q 1.1,-0.3 1.7,0.65 0.6,0.95 -0.1,1.8 -0.7,0.85 -1.75,0.5 -1,-0.35 -1,-1.5"
         fill="#000000"
         fill-rule="evenodd"
         stroke="none"
         id="path5" />
      <path
         d="m 20.5,21.35 1.05,0.05 -0.45,0.15 q -2.7,1 -3.95,2.55 -0.35,0.35 -0.15,0.65 0.35,0 0.45,-0.35 l 1.45,-0.55 1.4,-0.35 1.2,-0.2 1.85,-0.15 1.9,0.5 0.9,0.45 0.6,0.1 v 0.05 q 0.1,0.15 0.3,0.15 l 0.25,-0.2 0.1,-0.3 0.15,-0.15 0.35,-0.85 1.35,-1.95 0.45,-0.45 1.05,-0.7 0.7,-0.35 2.85,-0.55 q 0.8,0 1.05,-0.4 0.25,-0.35 -0.2,-0.8 L 34.3,17.3 q -2.75,-0.65 -5,1.05 l -0.1,0.1 -0.3,-1.05 q 1.25,-1.85 3.65,-2.3 2.05,-0.35 4.45,0.6 1.75,0.8 2.6,1.75 1.2,1.25 1.4,2.8 -3.2,-1.3 -6.6,-0.35 -3.3,0.9 -5.45,3.7 -0.9,1.15 -0.9,2.2 l 0.05,0.35 -0.9,-0.05 q -0.75,-0.6 -1.9,-0.8 l -2.45,-0.2 -2.75,0.15 q -0.95,0.15 -2.35,1 -3.75,2.3 -5.25,6.4 -0.85,-1.8 0.05,-5.45 l 0.8,-2.2 q 0.9,-1.65 3.45,-2.75 2,-0.95 3.7,-0.9 m 6.5,-6.6 -1.8,-2.3 q 1.05,-1.15 2.2,-1.75 1.25,-0.7 3.7,-1.2 1.1,-0.2 1.85,0 -1.25,0.4 -2.4,1.2 -2.35,1.65 -2.35,3.95 v 0.1 l -0.4,1 -0.8,-1 m 7.8,22.7 0.25,-0.25 0.35,0.05 q 0.85,0.15 1.5,0.6 0.75,0.45 1.55,1.2 l 1.15,1.1 0.85,1.4 2,3.25 0.4,1.1 0.15,0.4 0.2,0.1 0.15,-0.1 v -0.15 l -0.25,-1.8 -0.35,-0.7 -0.15,-0.4 -1.25,-2.45 -1.1,-1.9 -0.85,-1 -1.6,-1.55 -1.15,-0.65 h 0.05 l 5.75,-0.45 q 3.35,0.5 4.85,2.9 l 1.05,2.75 q 1.1,3.85 1.2,6.45 0.05,1.7 -0.5,5.8 l -2.6,-0.45 -3.95,-1.05 -3.8,-1.2 -1.4,-0.9 -0.9,-1.15 -1.55,-2.85 q -0.8,-2.15 -0.4,-6.4 L 34.5,38.4 q 0.1,-0.65 0.3,-0.95 M 19.5,14.7 19.75,15.3 19,15.1 17.5,15.05 16.95,15.3 q -0.4,0.15 -0.15,0.25 1.05,-0.15 2.25,0.9 l 1.1,1.4 0.2,0.3 -2,0.25 -0.2,-0.15 q -1.6,-0.95 -3,-1.2 L 13.25,17.1 11.9,17.25 14.55,15 q 0.7,-0.45 1.4,-0.75 L 18.8,13.8 h 0.4 l 0.3,0.9 m -2.85,30.35 1.1,1.45 -0.5,0.2 q -1.85,1 -4.7,1.55 L 7.6,49.1 8.85,42.8 Q 9.2,41.6 10.1,40.15 l 1.7,-2.5 0.8,0.65 1.1,0.25 0.95,-0.45 0.5,-1.5 0.1,-0.95 0.15,-0.05 2.65,-0.1 0.4,0.05 0.1,0.15 0.1,0.1 -0.65,0.6 -0.95,1.3 q -0.45,0.7 -0.75,1.5 -0.45,1.6 -0.1,4.15 l 0.45,1.7 M 29.1,28.2 q 1.4,-0.1 2.15,-1.45 l 0.2,0.55 0.05,0.65 -0.1,0.85 -0.2,0.4 -0.35,0.25 -1.55,0.35 -1,-0.7 -0.45,-0.7 -0.1,-0.3 1.35,0.1 m 10.15,-1.55 q -0.25,1.3 0.4,3.2 l -0.85,0.25 -0.2,-0.95 -0.35,-1.1 -0.95,-1.1 0.95,-1.2 0.85,-1.25 0.8,0.4 q -0.5,0.85 -0.65,1.75 m -15.9,7.05 q -1.25,0.1 -2.4,0.55 L 21.7,33 l 1.15,0.1 q 1.5,0.15 3.2,-0.95 0.75,1.4 2.25,1.55 l -0.65,1.05 -1.3,-0.65 -3,-0.4"
         fill="#999999"
         fill-rule="evenodd"
         stroke="none"
         id="path6" />
      <path
         d="M 44.3,29.1 43.6,28 43.45,27.5 43.4,26.95 q 0.1,-1.35 0.9,-2.15 l 1.15,-0.8 0.7,-0.35 0.5,-0.1 1.2,-0.05 q 1.1,0 1.6,0.35 0.65,0.35 0.9,1.25 l 0.05,0.2 -0.55,-0.2 q -0.65,-0.05 -1.05,0.6 -0.25,0.75 0.2,1.2 0.25,0.3 0.75,0.4 l 0.65,-0.15 -0.1,0.6 v 0.2 q 0.4,0.15 0.55,0.7 v 0.45 l -0.45,0.65 -0.75,0.2 -0.55,-0.3 -0.05,0.05 0.05,0.55 -0.15,0.35 -0.3,0.3 -0.75,-0.15 -0.3,-0.35 -0.1,-0.25 -0.05,0.45 q -0.25,0.7 -0.95,0.6 -0.85,0 -0.95,-0.85 Q 45.5,30.1 45.6,29.9 l -1.3,-0.8 m 0.85,-0.55 q 0.6,0.6 1.4,0.35 0.8,-0.3 0.95,-1.1 0.1,-0.5 -0.2,-1 l -0.8,-0.6 -1,0.1 q -0.5,0.25 -0.7,0.75 l -0.1,0.65 q 0.1,0.55 0.45,0.85 M 22.05,40.95 21.9,40.35 21.45,39.9 19.9,40 19.5,40.75 v 0.3 l -0.05,0.4 0.1,0.45 0.7,0.7 q 0.75,0.3 1.45,-0.3 0.5,-0.5 0.35,-1.2 v -0.15 m -2.9,-2 1.25,-1.45 q 0.8,-0.65 1.75,-0.8 h 0.9 l 1.1,0.05 0.75,0.3 1.1,0.6 q 1.5,1.05 1.2,2.7 -0.1,0.8 -1.1,2 L 25.75,42.8 26,43.4 v 0.55 l -0.8,0.85 q -0.65,0.15 -1.05,-0.25 l -0.4,0.75 q -0.4,0.4 -1,0.35 L 22.1,45.4 21.8,44.8 V 44.7 L 21.5,44.9 20.6,45.1 20,44.75 Q 19.65,44.4 19.75,43.9 l 0.1,-0.3 q -0.8,-0.5 -1.15,-1.35 -0.25,-0.6 -0.15,-1.65 l 0.2,-0.9 0.4,-0.75 m 4.6,1.45 q 0,1.15 1,1.5 1.05,0.35 1.75,-0.5 0.7,-0.85 0.1,-1.8 Q 26,38.65 24.9,38.95 L 24.8,39 q -0.45,0 -0.8,0.4 -0.35,0.4 -0.25,1"
         fill="#ffffff"
         fill-rule="evenodd"
         stroke="none"
         id="path7" />
    </g>
    <g
       id="shape2"
       transform="translate(1.5,1.5)">
      <path
         d="M 0,23.8 V 0 H 64.1 V 23.8 57.55 H 0 Z"
         fill="none"
         stroke="#000000"
         stroke-linecap="round"
         stroke-linejoin="round"
         stroke-width="3"
         id="path8" />
    </g>
  </defs>
</svg>
