<?xml version="1.0" encoding="UTF-8" standalone="no"?>
<svg
   ffdec:objectType="frame"
   height="60.924999"
   width="67.099998"
   version="1.1"
   id="svg7"
   sodipodi:docname="450.svg"
   xmlns:inkscape="http://www.inkscape.org/namespaces/inkscape"
   xmlns:sodipodi="http://sodipodi.sourceforge.net/DTD/sodipodi-0.dtd"
   xmlns:xlink="http://www.w3.org/1999/xlink"
   xmlns="http://www.w3.org/2000/svg"
   xmlns:svg="http://www.w3.org/2000/svg"
   xmlns:ffdec="https://www.free-decompiler.com/flash">
  <sodipodi:namedview
     id="namedview7"
     pagecolor="#ffffff"
     bordercolor="#000000"
     borderopacity="0.25"
     inkscape:showpageshadow="2"
     inkscape:pageopacity="0.0"
     inkscape:pagecheckerboard="0"
     inkscape:deskcolor="#d1d1d1"
     fit-margin-top="5"
     fit-margin-left="5"
     fit-margin-right="5"
     fit-margin-bottom="5" />
  <g
     transform="translate(1.5,1.5)"
     id="g3">
    <use
       ffdec:characterId="516"
       height="57.549999"
       width="64.099998"
       xlink:href="#shape0"
       id="use1" />
    <use
       ffdec:characterId="948"
       height="60"
       transform="translate(-0.85,-0.6)"
       width="66.300003"
       xlink:href="#shape1"
       id="use2" />
    <use
       ffdec:characterId="518"
       height="60.549999"
       transform="translate(-1.5,-1.5)"
       width="67.099998"
       xlink:href="#shape2"
       id="use3" />
  </g>
  <defs
     id="defs7">
    <g
       id="shape0">
      <path
         d="M 53.6,0 H 64.1 V 57.55 H 53.6 28.25 0 V 0 H 28.25 53.6 V 57.55 0 M 28.25,0 V 57.55 0"
         fill="#ffffff"
         fill-rule="evenodd"
         stroke="none"
         id="path3" />
    </g>
    <g
       id="shape1"
       transform="translate(0.85,0.6)">
      <path
         d="m 48.2,12.1 q 0.8,0 1.05,0.7 0.3,0.65 -0.25,1.3 -0.6,0.5 -1.3,0.2 Q 47,13.95 47,13.2 l 0.4,-0.8 q 0.35,-0.35 0.8,-0.3 m -5.55,2.45 2.3,-0.05 q 1.15,0.65 1.3,1.95 0.25,1.15 -0.5,2.15 -0.8,1.05 -2,0.8 -0.55,-0.1 -1,-0.5 Q 42.3,18.5 42.2,17.95 L 42.1,17.5 41.9,16.95 Q 41.65,16.3 41.85,15.6 42.1,14.9 42.65,14.55 M 50.9,22.25 49.55,21 48.05,19.5 47.7,19.15 Q 47.6,18.8 48.1,18.7 l 0.65,0.15 1.55,0.55 1.65,0.55 0.35,0.2 0.15,-0.4 q 1.35,-2.65 2.75,-4.2 1.95,-2.1 4.15,-2.8 h 0.2 l 0.05,0.25 -0.2,0.2 -1.45,1.25 -0.85,0.95 -0.75,1.2 q -2.3,4 -2.35,6.8 l 0.25,3.1 q 0.1,1.1 -0.15,1.6 -0.35,0.9 -1.35,1 -1.05,0.1 -1.6,-0.7 -0.45,-0.65 -0.35,-2.2 0.1,-1.95 0.55,-3.65 l -0.45,-0.3 m 3.45,0.65 0.9,-2.1 0.5,-0.9 1.5,-2.2 0.95,-0.8 0.1,0.3 -0.2,0.35 -1,1.7 -0.55,1.7 -0.15,0.85 0.15,2.1 q 0.1,1.3 -0.25,2.05 l -0.5,0.6 Q 55.25,26.85 54.7,26.3 54.35,26 54.25,25.25 v -1.7 l 0.1,-0.65 M 42.7,34.5 43.05,34.25 q 0.55,-0.2 0.9,0.25 l 0.1,0.55 -0.1,0.25 -0.4,0.35 -0.5,-0.05 q -0.6,-0.25 -0.4,-0.9 l 0.05,-0.2 m -0.95,6.75 q 0.05,-1.3 1.1,-2.4 l 0.55,-0.45 1.1,-0.6 0.15,-1.3 0.55,-1.15 0.75,-1.2 q 0.65,-0.9 1.35,-1.3 l 1.8,0.1 q 0.75,0.6 0.5,1.5 -0.25,0.85 -1.25,0.95 H 47.9 q -0.5,0.1 -0.95,0.5 l -0.65,0.85 -0.4,0.85 q 0.55,0.1 1.05,0.6 1,0.8 1.1,2.25 V 41.2 L 47.6,42 q -1.25,1.7 -3,1.75 l -0.8,-0.1 -0.75,-0.35 -1,-1.05 -0.3,-1 m 6.85,-4.15 0.55,-0.2 q 0.75,0 0.75,0.65 l -0.1,0.35 0.3,0.8 q 0.15,0.5 -0.1,1 -0.45,0.55 -1.05,0.35 -0.7,-0.2 -0.85,-0.75 -0.2,-0.4 0,-1.15 0.2,-0.8 0.5,-1.05 m -0.45,7.6 0.4,-0.2 0.35,0.1 0.25,0.2 q 0.2,0.3 0,0.55 l -0.1,0.2 L 48.5,45.8 48,45.45 Q 47.85,45.2 48.05,44.8 l 0.1,-0.1 M 20.3,11.5 Q 21,12 22.55,12 26.5,11.95 30.95,10.2 32.75,9.5 33.9,8.75 L 36.6,6.6 38.65,4.8 q -0.85,2.65 -3.25,4.8 -1.8,1.7 -4.85,3.25 -2.75,1.4 -4.85,1.85 -2.8,0.6 -5.05,-0.35 -1,-0.4 -1.55,-1.05 -0.65,-0.85 -0.6,-1.75 0,-0.4 0.3,-0.65 l 0.85,0.05 0.65,0.55 M 23.65,9.45 22.3,8.65 22.15,8.2 q 0,-0.35 0.5,-0.35 l 0.65,0.25 1.45,0.2 1.1,0.05 q 2.4,-0.1 5.85,-1.7 l 3.9,-1.95 -1.55,1.9 -1,0.75 -0.85,0.6 -0.9,0.5 q -2.95,1.35 -4.9,1.4 l -2.75,-0.4 m -8.8,17.6 -1.3,-1 -0.9,-1.45 -0.2,-0.5 -0.15,-0.85 -0.45,-0.1 -1.1,0.15 -1,-0.25 -0.6,-0.85 q -0.2,-0.5 0,-1 0.15,-0.55 0.6,-0.85 0.45,-0.3 1,-0.25 0.6,0.05 0.95,0.4 l 0.6,0.55 0.45,0.2 0.05,0.05 0.3,-0.55 0.55,-0.65 -0.9,-1.55 -0.3,-0.5 -0.2,-0.5 -0.75,-1.2 -0.3,-0.55 -0.6,-0.45 q -0.9,-0.7 -0.55,-1.75 0.25,-1.1 1.4,-1.2 1.05,-0.15 1.65,0.85 l 0.3,1 q 0.45,2.5 1.4,5 L 15.5,19 17,19.2 q 0.8,0.3 1.1,0.95 l 0.2,0.75 q 0,0.55 -0.55,1.3 1.45,0.75 1.35,2.35 0,0.7 -0.4,1.35 l -1.05,0.95 -1.8,0.35 -1,-0.15 M 7.5,30.25 Q 4.7,28.65 2.7,28.25 0.75,27.9 0.1,27.5 0.3,26.95 1.6,26.75 4,26.55 5.2,26.8 l 1.45,0.5 q 3.8,1.45 5.45,2.95 l 2.1,2.35 1.05,1.45 0.15,0.65 q 0,0.5 -0.4,0.5 l -0.65,-0.25 -3.95,-3 -2.9,-1.7 M 7.4,34.7 3.65,32.1 Q 2.95,31.65 1.55,31.2 0.45,30.85 0.2,30.55 0.9,30.05 1.6,30.1 l 1.15,0.2 1.2,0.25 1.1,0.1 1.1,0.4 3.15,1.55 0.8,0.55 0.55,0.8 0.55,1.1 Q 11.35,35.7 11.05,36.2 10.6,36.8 10,36.65 L 9.2,35.85 7.4,34.7 m 10.25,9.95 Q 16.8,44.35 16.9,43.6 l 0.25,-0.6 0.6,-0.35 0.15,-0.05 q 0.8,0.1 0.95,0.75 0.2,0.35 0,0.7 -0.35,0.8 -1.2,0.6 m 9.5,-1.3 q 1,0.15 1.5,1.05 l 0.3,1.7 -0.05,1.75 q -0.4,4.2 -1.5,6.35 L 26.25,55.6 23.5,55.55 Q 22.3,54.8 21.8,53.3 21.5,52.4 21.4,50.45 V 50.4 l -0.6,0.1 -9.1,2.25 -1.4,0.55 Q 9.65,53.4 9.1,52.9 8.55,52.4 8.55,51.7 8.55,51.05 9.1,50.5 9.65,50 10.3,50.05 l 0.95,0.15 1.25,-0.2 1.35,-0.05 1.7,-0.3 1.65,0.2 h 1.45 l 2.8,-0.25 0.1,-1.35 -1.5,-0.2 -3.8,-0.8 -0.25,-0.2 q -0.2,-0.1 -0.1,-0.3 l 1.1,-0.3 1.85,-0.25 0.8,-0.2 2.95,-0.45 1.05,-1.2 q 0.65,-0.6 1.4,-0.85 l 1.05,-0.15 h 1.05 m -4,-2.45 0.1,0.1 0.05,0.15 -0.1,0.4 -0.2,0.2 -0.5,0.15 Q 21.9,41.8 21.9,41.25 L 21.95,41 22,40.9 q 0.3,-0.35 0.6,-0.3 v -0.05 l 0.4,0.15 0.15,0.2"
         fill="#999999"
         fill-rule="evenodd"
         stroke="none"
         id="path4" />
      <path
         d="M 29.35,-0.25 29.8,-0.3 q 0.65,0 0.95,1.1 1.1,3.8 -1.3,7.85 -2.05,3.3 -6.05,5.35 -2.4,1.3 -4.1,1 -1.05,-0.2 -1.95,-0.95 l -0.1,0.05 -0.75,0.15 q -1.25,0.1 -2.2,-0.65 -0.5,-0.4 -0.3,-0.8 0.05,-0.2 0.45,-0.3 l 0.55,0.1 1.2,0.1 -0.45,-1 h -0.6 l -1,-0.3 -0.4,-0.4 Q 13,10.2 13.15,9.45 13.25,9.1 13.55,9.1 l 0.4,0.3 1,0.25 L 15.5,9.6 15.6,8.8 15.65,8.75 15,8.35 Q 13.9,7.5 14.05,6.25 l 0.2,-0.7 Q 14.4,5.05 14.7,5.1 l 0.25,0.25 0.1,0.4 q 0.15,0.35 0.65,0.5 l 0.8,0.15 0.35,0.1 0.1,-0.15 Q 17.9,5.3 19.25,4.8 L 21.7,4.2 q 3.05,-0.75 4.15,-2.6 l 0.5,-0.95 q 0.25,-0.55 0.6,-0.85 0.75,-0.6 1.7,-0.25 l 0.7,0.2 M 57,24.35 q 2.2,-0.6 4.7,-3.45 L 63.05,19 q 0.25,-0.6 0.5,-0.65 0.4,-0.1 0.5,0.4 v 0.7 L 63.5,21.3 q 1.2,-0.1 1.75,0.85 0.3,0.55 0.2,1.45 -0.2,2.3 -1.6,4.6 -1,1.65 -3.2,3.75 Q 58.2,34.3 55.85,35 L 53,35.1 q -1.05,-0.25 -1.8,-0.8 l -2.25,-0.2 -0.6,-0.45 -0.2,-0.75 q 0.1,-0.35 0.3,-0.4 l 0.6,0.15 h 0.8 L 49.5,31.5 49.15,31.45 q -0.95,-0.15 -1.45,-1 -0.45,-0.85 -0.15,-1.65 0,-0.3 0.25,-0.3 l 0.2,0.15 0.5,0.65 0.8,0.3 0.2,0.05 0.1,-0.7 0.15,-0.55 -0.3,-0.2 Q 48.8,27.55 48.8,26.7 l 0.1,-0.65 0.25,-0.5 0.3,-0.3 0.35,0.1 v 0.5 q 0.05,0.3 0.6,0.4 l 0.35,0.1 1.2,-1 Q 52.8,24.85 54.4,24.7 L 57,24.35 m -7.3,-6.9 -0.05,0.3 -3.7,-1.25 0.1,-0.1 q 1.3,-1 3.1,-1.8 0.7,1.55 0.55,2.85 M 25.45,39 Q 23.7,38.35 21.8,36.7 19.15,34.5 18.05,32.25 l -0.4,-1 H 17.6 q -1.3,0.15 -2.8,-0.65 -2,-1 -2.75,-2.9 L 12,27.55 11.6,26 11.55,24.85 15.75,24.7 15.6,23.7 15.55,23.6 15.05,22 16.8,21.9 v -0.1 -0.25 q -0.15,-1.85 -0.15,-3.7 l 1.2,-0.4 2.5,0.1 1.15,0.7 q 1.65,-1.8 3.55,-2.7 2.8,-1.4 7.45,-1.3 l 2.1,0.15 0.6,-0.65 q 2.9,-2.65 5.4,-2.75 2.35,-0.1 3.95,1.5 l 1.45,1.9 0.45,0.8 q -1.8,0.8 -3.1,1.8 l -0.1,0.1 3.7,1.25 -0.45,1.2 -0.85,1.45 q -0.7,0.95 -1.95,1.5 0.55,2.4 0.3,5.1 -0.4,4.95 -3.25,7.9 -1.9,2.05 -4.95,3.15 l 1.6,3.1 q 1.9,4.3 2.65,7.8 L 40.65,49 q 1.2,-1.2 1.3,-3.5 v -1.95 l -0.05,-1.9 q 0,-2.1 0.75,-3.6 l 0.2,-0.4 1.95,2 0.4,0.25 h 0.05 l 0.45,0.4 0.05,0.55 -0.55,0.95 v 0.45 l 0.55,0.7 v 1.35 q 0.1,2.05 -0.35,3.85 -0.45,2 -1.25,3.1 -1.2,1.65 -3.6,2.7 v 0.25 q -0.2,3.1 -1.75,4.05 -0.55,0.35 -2.25,0.7 -6.8,0.95 -10.95,0 -1.65,-0.35 -2.4,-1.05 -1,-0.85 -1.25,-2.3 -0.1,-0.65 -0.05,-1.75 l 2.4,0.05 0.2,-1.9 h 1.3 q 1.45,-0.1 2.4,-0.7 l -1,-0.8 -2.4,-2.4 q 0.35,-0.35 1,-0.6 l 1.1,-0.4 -0.2,-0.7 h -0.05 l -2.35,-4.5 0.65,-1.25 1,-1.5 -0.5,-0.15 m 25.6,-2.95 q 1.2,0.2 2.1,1 0.85,0.85 1.15,2 0.3,1.1 -0.15,2.35 -0.4,1.15 -1.4,1.8 -0.1,0.3 0.25,0.65 l 0.7,0.2 1.25,-0.8 q 1,-0.7 2.25,-0.35 1.3,0.3 1.8,1.35 0.6,1.15 0.05,2.05 -0.35,0.45 -0.85,0.55 l -1,-0.25 -0.7,-0.95 q -0.9,1.2 -2.55,1.4 -1.65,0.2 -2.85,-0.7 -1.2,-0.95 -1.4,-2.6 -0.3,-1.65 0.65,-2.85 0.5,-0.6 0.15,-0.85 l -0.6,0.05 -0.6,0.4 -1.2,1.8 h -0.05 l -0.25,0.4 -0.1,-0.85 0.25,-0.35 v -0.1 l 0.55,-1.75 0.15,-0.3 -0.7,-2.7 q 1.5,-0.85 3.1,-0.6 M 32.9,25.1 q -0.1,1 0.9,1.45 l 0.85,0.15 -0.95,1.4 q -0.2,0.6 0.2,0.85 l 0.6,0.05 0.5,-0.35 1.25,-1.2 0.6,0.35 1.4,0.5 0.7,-0.2 L 39.2,27.4 39,26.65 38.75,26.4 38.35,26.05 38.1,25.9 38.3,25.7 q 0.5,-0.4 0.4,-1.1 -0.2,-0.65 -0.7,-0.85 l -1.05,0.05 -0.4,0.35 -0.35,0.5 -0.4,-0.25 q -0.55,-0.5 -0.9,-0.65 -0.7,-0.3 -1.35,0.15 -0.65,0.4 -0.65,1.2 m -8.55,5.6 q 1.4,-0.4 1.95,-1.75 0.55,-1.25 0,-2.55 -0.55,-1.35 -1.95,-1.75 L 22.75,24.55 22,24.8 q -0.8,0.4 -1.3,1.2 -0.5,0.8 -0.45,1.7 -0.05,1.2 0.85,2.2 0.95,0.95 2.2,0.95 L 24.35,30.7 M 8.7,24.5 q -1.3,-2.95 -0.3,-5.7 0.3,-0.9 1,-1.9 l 0.35,-0.4 0.1,-0.15 2,3.1 0.15,0.2 0.05,0.1 -1.45,1 1.2,1.1 0.1,0.05 0.65,0.8 -3.6,2.25 L 8.7,24.5 M 11.8,43 Q 10.5,43.2 9.05,43.85 7.7,44.45 6,45.8 L 4,47.6 2.25,49.95 0.6,52.5 q -0.35,0.6 -0.65,0.3 L -0.1,52.35 q 0.3,-1.4 0.9,-2.75 -1.1,-0.15 -1.55,-1.45 -0.25,-0.8 0.05,-2.2 1.05,-6.1 5.55,-10.65 3.1,-3.2 6.2,-3.15 1.85,0 3.45,1.05 l 0.05,-0.05 1.5,-0.1 1.15,0.4 0.45,0.5 -0.3,0.35 -0.45,-0.15 -0.85,0.4 0.7,0.9 q 1.25,-0.2 2,0.5 l 0.75,1 0.2,0.55 -0.25,0.5 -0.65,-0.1 -0.5,-0.45 -0.7,-0.1 0.1,0.6 V 39 q 0.45,0.1 0.85,0.45 1,0.85 0.75,2.1 L 18.85,42 18.5,41.55 l -0.95,-0.7 -0.55,0.1 -1.05,1 -2,0.75 -2.15,0.3 m 6.05,11.95 q -3.05,-6.1 -3.4,-10.7 l 4.3,2.75 v -0.05 l 0.55,0.5 -0.75,0.9 q -0.45,0.55 -0.55,1 l 3.25,0.9 1.25,0.2 q -0.5,1 -1.7,1.8 -0.6,0.25 -1.15,0.65 l 0.8,1.75 -2.15,1.15 -0.45,-0.85 m 13.35,-22.4 1.35,0.3 q 0.75,0.25 1.1,0.8 l 0.3,0.35 0.45,0.1 0.25,-0.3 0.1,-0.85 -0.2,-0.45 -0.3,-0.55 q -0.5,-0.75 -1.5,-1.1 l -1.5,-0.3 V 30.5 l -0.65,-1.25 -0.1,-0.4 -0.3,-0.2 -0.2,0.05 -0.25,0.75 -0.05,0.45 -0.15,0.3 -0.1,0.55 -1.15,0.4 -1.85,1.4 -0.35,0.55 q -0.25,0.8 0.4,1.2 l 1.3,-0.1 0.5,-0.65 0.85,-0.55 q 0.6,-0.3 0.95,-0.35 l 1.1,-0.1"
         fill="#000000"
         fill-rule="evenodd"
         stroke="none"
         id="path5" />
      <path
         d="m 24.35,30.7 -1.05,0.15 q -1.25,0 -2.2,-0.95 -0.9,-1 -0.85,-2.2 Q 20.2,26.8 20.7,26 21.2,25.2 22,24.8 l 0.75,-0.25 1.6,0.1 q 1.4,0.4 1.95,1.75 0.55,1.3 0,2.55 -0.55,1.35 -1.95,1.75 m 8.55,-5.6 q 0,-0.8 0.65,-1.2 0.65,-0.45 1.35,-0.15 0.35,0.15 0.9,0.65 l 0.4,0.25 0.35,-0.5 0.4,-0.35 1.05,-0.05 q 0.5,0.2 0.7,0.85 0.1,0.7 -0.4,1.1 l -0.2,0.2 0.25,0.15 0.4,0.35 0.25,0.25 0.2,0.75 -0.25,0.7 -0.7,0.2 -1.4,-0.5 -0.6,-0.35 L 35,28.65 34.5,29 33.9,28.95 Q 33.5,28.7 33.7,28.1 l 0.95,-1.4 -0.85,-0.15 q -1,-0.45 -0.9,-1.45 m -1.7,7.45 -1.1,0.1 Q 29.75,32.7 29.15,33 l -0.85,0.55 -0.5,0.65 -1.3,0.1 q -0.65,-0.4 -0.4,-1.2 l 0.35,-0.55 1.85,-1.4 1.15,-0.4 0.1,-0.55 0.15,-0.3 0.05,-0.45 0.25,-0.75 0.2,-0.05 0.3,0.2 0.1,0.4 0.65,1.25 v 0.05 l 1.5,0.3 q 1,0.35 1.5,1.1 l 0.3,0.55 0.2,0.45 -0.1,0.85 -0.25,0.3 -0.45,-0.1 -0.3,-0.35 q -0.35,-0.55 -1.1,-0.8 l -1.35,-0.3"
         fill="#ffffff"
         fill-rule="evenodd"
         stroke="none"
         id="path6" />
    </g>
    <g
       id="shape2"
       transform="translate(1.5,1.5)">
      <path
         d="M 0,23.8 V 0 H 64.1 V 23.8 57.55 H 0 Z"
         fill="none"
         stroke="#000000"
         stroke-linecap="round"
         stroke-linejoin="round"
         stroke-width="3"
         id="path7" />
    </g>
  </defs>
</svg>
