<?xml version="1.0" encoding="UTF-8" standalone="no"?>
<svg
   ffdec:objectType="frame"
   height="60.549999"
   width="67.099998"
   version="1.1"
   id="svg10"
   sodipodi:docname="610.svg"
   xmlns:inkscape="http://www.inkscape.org/namespaces/inkscape"
   xmlns:sodipodi="http://sodipodi.sourceforge.net/DTD/sodipodi-0.dtd"
   xmlns:xlink="http://www.w3.org/1999/xlink"
   xmlns="http://www.w3.org/2000/svg"
   xmlns:svg="http://www.w3.org/2000/svg"
   xmlns:ffdec="https://www.free-decompiler.com/flash">
  <sodipodi:namedview
     id="namedview10"
     pagecolor="#ffffff"
     bordercolor="#000000"
     borderopacity="0.25"
     inkscape:showpageshadow="2"
     inkscape:pageopacity="0.0"
     inkscape:pagecheckerboard="0"
     inkscape:deskcolor="#d1d1d1"
     fit-margin-top="5"
     fit-margin-left="5"
     fit-margin-right="5"
     fit-margin-bottom="5" />
  <g
     transform="translate(1.5,1.5)"
     id="g3">
    <use
       ffdec:characterId="516"
       height="57.549999"
       width="64.099998"
       xlink:href="#shape0"
       id="use1" />
    <use
       ffdec:characterId="1102"
       height="57.25"
       transform="translate(-0.35)"
       width="64.699997"
       xlink:href="#shape1"
       id="use2" />
    <use
       ffdec:characterId="518"
       height="60.549999"
       transform="translate(-1.5,-1.5)"
       width="67.099998"
       xlink:href="#shape2"
       id="use3" />
  </g>
  <defs
     id="defs10">
    <g
       id="shape0">
      <path
         d="M 53.6,0 H 64.1 V 57.55 H 53.6 28.25 0 V 0 H 28.25 53.6 V 57.55 0 M 28.25,0 V 57.55 0"
         fill="#ffffff"
         fill-rule="evenodd"
         stroke="none"
         id="path3" />
    </g>
    <g
       id="shape1"
       transform="translate(0.35)">
      <path
         d="m 25.9,52.65 0.05,3.5 0.15,1.1 H 0 V 0 h 64.1 v 29.5 l -1.5,0.15 -0.3,-0.1 -0.2,-0.05 -1.55,0.15 -1.05,0.65 -0.15,0.05 Q 57.65,31.6 56.5,33.6 L 49.6,33.1 51.1,31 q 1.15,-1.9 1.7,-4.3 l 0.45,-2.75 0.1,-1.7 v -0.3 l 0.7,-1.15 0.6,-0.75 1.3,-2.05 0.5,-0.95 q 0.2,-0.65 0,-1.35 -0.3,-0.75 -0.85,-1.15 -0.5,-0.35 -1.8,-0.6 L 51.95,13.45 52,13.3 q 0.15,-0.7 -0.1,-1.35 -0.4,-0.75 -1,-1.05 -0.55,-0.3 -1.85,-0.45 L 47.6,10.25 45.85,9.2 44.1,8.5 Q 42.55,7.3 40.65,6.6 37.8,5.6 35,5.8 l -3.3,0.15 -2.3,0.6 -1.65,0.75 -2.25,-0.35 -1.3,0.1 -0.7,-0.1 -1.65,0.2 q -0.9,0.4 -1.1,1.3 -0.2,0.55 -0.05,1.7 l 1.1,5.6 -0.5,2 q -0.2,2.05 0.1,5.15 0.3,2.5 0.85,3.9 0.85,2.15 2.7,3.85 l 0.45,0.4 -10.9,4.4 q -1.45,0.6 -1.9,1.25 -0.75,1 -0.35,2.2 0.5,1.25 1.75,1.45 l 0.4,0.05 q 0.5,0.8 1.5,0.95 l 1.45,-0.15 0.15,-0.05 0.05,-0.05 1.55,-0.85 0.1,-0.05 0.3,-0.1 0.25,-0.1 q -3.15,4.35 -4.65,6.85 -0.85,1.15 -0.85,2.1 -0.05,0.7 0.3,1.35 0.4,0.65 1.05,0.85 l 0.85,0.15 1.05,0.85 1,0.15 0.55,-0.1 0.25,0.05 h 0.2 l 0.05,0.1 1.25,0.8 0.4,0.1 1.65,-0.05 0.65,-0.1 2.4,-0.45 m 38.45,-19.3 v 3.4 l -0.95,-0.2 q -0.8,-0.55 -0.75,-1.5 0,-0.95 0.8,-1.5 l 0.7,-0.2 h 0.2 m 0,5.85 v 4.4 l -0.1,0.05 q -0.75,0.8 -1.75,0.7 -0.95,0 -1.7,-0.7 Q 60.3,43.15 60.1,42.5 59.95,42 60.05,41 l 0.05,-0.45 q 0.15,-0.75 0.75,-1.4 1.35,-1.2 2.75,-0.5 l 0.55,0.35 0.2,0.2 m -29.8,17.95 0.05,-1.65 -0.3,-3.85 3.05,-0.2 q 2.15,0.05 2.8,-0.6 l 0.5,-0.9 0.15,-1.25 0.6,-9.05 2.3,0.8 q 1.85,0.65 6.35,2.8 l 5.05,2.45 7.65,3.75 1.35,0.05 v 7.75 H 34.55 v -0.1 m 8.8,-28.8 -0.85,-0.5 q -1.5,-1 -1.7,-2.3 l -0.05,-1.05 0.05,-0.2 1.3,-0.4 1.5,-0.85 q 1.55,-1.05 2.5,-2.1 l 0.15,-0.2 q 1.45,0.65 1.95,2.35 l 0.15,1 q 0.1,1.15 -0.4,2.25 -0.5,1.1 -1.45,1.7 l -0.85,0.35 -1,0.1 -1.3,-0.15 m 17.3,9.55 Q 59.95,37.8 59.75,37 V 36.5 L 59.9,36 q 0.3,-0.6 0.95,-0.7 0.7,-0.1 1.15,0.6 0.4,0.6 0.05,1.35 -0.3,0.7 -1.05,0.7 L 60.65,37.9"
         fill="#ffffff"
         fill-rule="evenodd"
         stroke="none"
         id="path4" />
      <path
         d="m 14.4,40.4 -0.25,-0.5 q -0.4,-1.2 0.35,-2.2 0.45,-0.65 1.9,-1.25 l 10.9,-4.4 -0.45,-0.4 Q 25,29.95 24.15,27.8 23.6,26.4 23.3,23.9 23,20.8 23.2,18.75 l 0.5,-2 -1.1,-5.6 q -0.15,-1.15 0.05,-1.7 0.2,-0.9 1.1,-1.3 l 1.65,-0.2 0.7,0.1 3.05,0.55 0.5,-0.3 q 0.8,-0.45 1.65,-0.75 l 2.3,-0.6 3.3,-0.15 q 1.8,0.15 3.65,0.8 1.9,0.7 3.45,1.9 0.9,0.65 1.7,1.5 l 1.8,0.25 1.45,0.2 q 1.3,0.15 1.85,0.45 0.6,0.3 1,1.05 0.25,0.65 0.1,1.35 l -0.05,0.15 -0.35,0.85 -1.05,2.2 -0.55,0.8 -0.55,1.2 v 0.3 l 0.1,1.65 -0.2,2.8 q -0.3,2.5 -1.25,4.5 -0.7,1.8 -2.05,3.05 -1.1,1.05 -2.85,1.8 l 14.45,1.1 0.75,0.05 0.1,-0.15 q 1.15,-2 2.85,-3.25 L 61.4,31.3 q 0.7,-0.5 1.05,-0.65 L 64,30.5 l 0.2,0.05 0.15,0.05 v 2.75 h -0.2 l -0.7,0.2 q -0.8,0.55 -0.8,1.5 -0.05,0.95 0.75,1.5 l 0.95,0.2 V 39.2 L 64.15,39 63.6,38.65 q -1.4,-0.7 -2.75,0.5 -0.6,0.65 -0.75,1.4 L 60.05,41 q -0.1,1 0.05,1.5 0.2,0.65 0.7,1.15 0.75,0.7 1.7,0.7 1,0.1 1.75,-0.7 l 0.1,-0.05 v 1.55 l -1.45,0.65 -1.35,0.1 -8,-2.95 L 48.3,41 41.65,38.9 39.3,38.35 39.65,47.4 v 1.3 l -0.4,0.95 q -0.6,0.65 -2.75,0.8 l -2.45,0.45 0.45,5.6 0.05,0.65 v 0.1 h -6.7 v -0.1 l -0.1,-4.85 -1.85,0.35 -2.4,0.45 -0.65,0.1 -1.65,0.05 -0.4,-0.1 -1.25,-0.8 -0.05,-0.1 -0.1,-0.1 -0.05,-0.1 -0.05,0.05 -0.25,0.1 -0.55,0.1 -1,-0.15 -1.05,-0.85 q -0.35,-0.65 -0.3,-1.35 0,-0.95 0.85,-2.1 1.5,-2.5 4.65,-6.85 l 0.8,-1.1 1.3,-1.8 -2.35,1 q -1.75,0.8 -2.2,1.1 l -0.1,0.05 -1.55,0.85 -0.05,0.05 -0.15,0.05 -1.45,0.15 Q 14.9,41.2 14.4,40.4 M 60.65,37.9 61,37.95 q 0.75,0 1.05,-0.7 Q 62.4,36.5 62,35.9 61.55,35.2 60.85,35.3 60.2,35.4 59.9,36 l -0.15,0.5 V 37 q 0.2,0.8 0.9,0.9 m -17.3,-9.55 1.3,0.15 1,-0.1 0.85,-0.35 q 0.95,-0.6 1.45,-1.7 0.5,-1.1 0.4,-2.25 l -0.15,-1 q -0.5,-1.7 -1.95,-2.35 l -0.15,0.2 q -0.95,1.05 -2.5,2.1 l -1.5,0.85 -1.3,0.4 -0.05,0.2 0.05,1.05 q 0.2,1.3 1.7,2.3 l 0.85,0.5"
         fill="#000000"
         fill-rule="evenodd"
         stroke="none"
         id="path5" />
      <path
         d="M 24.55,7.9 26.9,7.55 q 3.55,-0.25 6.85,1.35 2.85,1.45 4.75,3.9 l 3.2,0.85 q 1.3,0.25 1.8,0.6 l 0.85,1.15 q 0.2,0.7 0,1.35 l -0.5,0.95 -1.3,2.05 -0.6,0.75 -0.7,1.15 v 0.3 l -0.1,1.7 -0.45,2.75 q -0.55,2.4 -1.7,4.3 -0.95,1.75 -2.4,2.85 -1.2,0.95 -3,1.5 l 14.2,2.55 0.8,0.15 Q 50,35.8 51.85,34.7 l 1.3,-0.6 1.7,0.1 1.75,1.05 0.35,0.4 q 0.7,0.95 1.1,2.25 0.45,1.6 0.2,3.25 -0.3,2.35 -1.7,4.5 l -0.85,1.15 -1.65,1.55 q -1.7,1.15 -3.4,0.8 L 43,45.4 Q 40.15,44 37.95,42.95 33.45,40.8 31.6,40.15 l -1.45,-0.5 0.1,0.8 q 0.2,2.7 0,7.55 -0.2,5.25 -0.1,7.55 l -0.05,1.7 H 11.65 L 11.2,56.2 10.75,55.35 q -0.5,-1 0,-2.75 L 10.8,52.4 9.75,52.3 Q 8.45,51.9 8.05,50.95 L 6.2,50.85 q -0.65,-0.3 -0.95,-1 -0.3,-0.7 -0.15,-1.35 0.1,-0.95 1.05,-2 2.3,-3.05 7.75,-9 L 11.45,38.25 9,39.15 7.4,39.8 5.75,39.9 Q 4.5,39.55 4.15,38.3 3.85,37.05 4.7,36.15 5.25,35.55 6.75,35.1 L 18,31.8 17.6,31.4 q -1.65,-1.9 -2.25,-4.1 -0.4,-1.45 -0.45,-3.95 0,-3.15 0.45,-5.15 l 0.7,-1.95 q -0.4,-2.6 -0.55,-5.7 0,-1.15 0.25,-1.65 0.3,-0.9 1.2,-1.2 0.5,-0.15 1.65,0 l 3.7,1 2.25,-0.8 M 18.1,23.6 q -0.1,1.75 0.25,2.5 l 0.75,1.1 0.8,0.6 0.9,0.25 3.05,-0.25 q 1.7,-0.65 2.15,-2.25 h 0.05 q -0.9,-0.8 -1.45,-1.8 l -0.75,-1.7 -0.65,-2.3 -0.5,-0.1 q -1.35,-0.25 -2.55,0.55 -0.9,0.6 -1.65,1.85 l -0.3,0.8 -0.1,0.75 m 15.65,7.65 1.3,0.15 1,-0.1 0.85,-0.35 q 0.95,-0.6 1.45,-1.7 0.5,-1.1 0.4,-2.25 L 38.6,26 q -0.5,-1.7 -1.95,-2.35 l -0.15,0.2 -2.5,2.1 -1.5,0.85 -1.3,0.4 -0.05,0.2 0.05,1.05 q 0.2,1.3 1.7,2.3 l 0.85,0.5 m 23.3,7.8 q -0.5,0 -0.85,0.25 -0.3,0.25 -0.45,0.75 -0.1,0.45 0.1,0.85 l 0.55,0.65 0.8,0.1 q 0.45,-0.1 0.7,-0.5 l 0.25,-0.85 -0.35,-0.85 -0.75,-0.4 m -1.5,4.25 q -0.2,-0.75 -1,-1.4 L 54,41.55 q -1.4,-0.7 -2.75,0.5 -0.6,0.65 -0.75,1.4 l -0.05,0.45 q -0.1,1 0.05,1.5 0.2,0.65 0.7,1.15 0.75,0.7 1.7,0.7 1,0.1 1.75,-0.7 l 0.45,-0.5 0.5,-1.2 0.05,-0.75 -0.1,-0.8 m -4.5,-2.5 0.35,0.05 q 0.75,0 1.05,-0.7 Q 52.8,39.4 52.4,38.8 51.95,38.1 51.25,38.2 50.6,38.3 50.3,38.9 l -0.15,0.5 v 0.5 q 0.2,0.8 0.9,0.9 m 3.5,-4.55 -0.7,0.2 q -0.8,0.55 -0.8,1.5 -0.05,0.95 0.75,1.5 l 1.6,-0.05 q 0.5,-0.3 0.65,-0.95 L 56,37.25 q -0.4,-1 -1.45,-1"
         fill="#767676"
         fill-rule="evenodd"
         stroke="none"
         id="path6" />
      <path
         d="m 54.55,36.25 q 1.05,0 1.45,1 l 0.05,1.2 Q 55.9,39.1 55.4,39.4 l -1.6,0.05 q -0.8,-0.55 -0.75,-1.5 0,-0.95 0.8,-1.5 l 0.7,-0.2 m -3.5,4.55 q -0.7,-0.1 -0.9,-0.9 v -0.5 l 0.15,-0.5 q 0.3,-0.6 0.95,-0.7 0.7,-0.1 1.15,0.6 0.4,0.6 0.05,1.35 -0.3,0.7 -1.05,0.7 L 51.05,40.8 m 4.5,2.5 0.1,0.8 -0.05,0.75 -0.5,1.2 -0.45,0.5 q -0.75,0.8 -1.75,0.7 -0.95,0 -1.7,-0.7 -0.5,-0.5 -0.7,-1.15 -0.15,-0.5 -0.05,-1.5 l 0.05,-0.45 q 0.15,-0.75 0.75,-1.4 1.35,-1.2 2.75,-0.5 l 0.55,0.35 q 0.8,0.65 1,1.4 m 1.5,-4.25 0.75,0.4 0.35,0.85 -0.25,0.85 q -0.25,0.4 -0.7,0.5 l -0.8,-0.1 -0.55,-0.65 q -0.2,-0.4 -0.1,-0.85 0.15,-0.5 0.45,-0.75 0.35,-0.25 0.85,-0.25 m -23.3,-7.8 -0.85,-0.5 q -1.5,-1 -1.7,-2.3 l -0.05,-1.05 0.05,-0.2 1.3,-0.4 1.5,-0.85 2.5,-2.1 0.15,-0.2 Q 38.1,24.3 38.6,26 l 0.15,1 q 0.1,1.15 -0.4,2.25 -0.5,1.1 -1.45,1.7 l -0.85,0.35 -1,0.1 -1.3,-0.15 M 18.1,23.6 l 0.1,-0.75 0.3,-0.8 q 0.75,-1.25 1.65,-1.85 1.2,-0.8 2.55,-0.55 l 0.5,0.1 0.65,2.3 0.75,1.7 q 0.55,1 1.45,1.8 H 26 q -0.45,1.6 -2.15,2.25 L 20.8,28.05 19.9,27.8 19.1,27.2 18.35,26.1 Q 18,25.35 18.1,23.6"
         fill="#ffffff"
         fill-rule="evenodd"
         stroke="none"
         id="path7" />
      <path
         d="m 12.3,7.2 q 4.25,-0.2 8.15,1.7 3.45,1.7 5.7,4.6 l 3.85,1 q 1.55,0.3 2.15,0.75 0.65,0.45 0.95,1.3 0.25,0.8 0,1.55 l -0.6,1.1 -1.6,2.4 -0.75,0.9 -0.8,1.25 v 0.35 l -0.2,2 -0.55,3.2 q -0.7,2.75 -2.1,4.95 -1.2,2.05 -2.95,3.3 -1.45,1.1 -3.6,1.65 l 17,3.2 1,0.2 q 1.7,-2.25 3.95,-3.5 1.05,-0.55 1.6,-0.7 l 2.05,0.15 q 1.2,0.45 2,1.25 1.2,1.2 1.8,3.15 0.45,1.85 0.15,3.75 -0.45,3.45 -3.15,6.5 L 44.3,55 q -2,1.3 -4.1,0.9 L 31.05,51.4 Q 20.75,46.35 17.4,45.15 l -2.7,-1 -0.9,10.5 q -0.1,1.8 -0.8,2.5 l -0.1,0.1 H -0.35 V 35.6 L 1.15,35.2 0.7,34.75 -0.35,33.45 V 7.5 L 0.3,7.2 2.25,7.25 6.7,8.5 Q 9.15,7.3 12.3,7.2 m 7.9,28.65 1.55,0.15 1.2,-0.1 1,-0.4 q 1.15,-0.65 1.75,-1.85 0.6,-1.2 0.5,-2.5 L 26,30.05 Q 25.4,28.2 23.7,27.5 l -0.2,0.2 -3,2.3 -1.75,0.95 -1.55,0.45 -0.05,0.2 0.05,1.15 q 0.25,1.45 2,2.55 l 1,0.55 M 1.6,27.45 q -0.1,1.9 0.3,2.75 0.3,0.7 0.9,1.2 l 0.95,0.65 1.05,0.25 3.65,-0.25 q 2,-0.7 2.55,-2.45 l 0.05,-0.05 Q 10,28.7 9.35,27.6 L 8.45,25.75 7.65,23.2 7.05,23.1 q -1.6,-0.25 -3,0.6 -1.1,0.65 -1.95,2.05 L 1.7,26.6 1.6,27.45 m 46.35,16.95 -1,0.25 q -0.4,0.3 -0.55,0.85 -0.1,0.5 0.1,0.95 0.2,0.45 0.7,0.7 l 0.95,0.1 q 0.5,-0.1 0.8,-0.55 0.35,-0.45 0.3,-0.95 l -0.4,-0.9 -0.9,-0.45 m -7.15,1.9 0.4,0.05 q 0.9,0 1.3,-0.75 0.4,-0.8 -0.1,-1.5 -0.5,-0.75 -1.35,-0.65 -0.75,0.1 -1.15,0.8 l -0.15,0.55 v 0.5 q 0.2,0.9 1.05,1 m 5.35,2.75 q -0.2,-0.8 -1.2,-1.55 L 44.3,47.15 q -1.65,-0.8 -3.25,0.55 -0.7,0.7 -0.9,1.5 l -0.05,0.5 q -0.1,1.1 0.05,1.65 0.25,0.7 0.85,1.25 0.9,0.8 2,0.8 1.2,0.1 2.1,-0.75 l 0.5,-0.6 q 0.5,-0.5 0.6,-1.3 l 0.05,-0.8 -0.1,-0.9 M 45,41.3 44.15,41.55 q -0.95,0.6 -0.95,1.65 -0.1,1.05 0.9,1.65 L 46,44.8 46.75,43.75 Q 46.95,43.05 46.7,42.4 46.2,41.3 45,41.3"
         fill="#000000"
         fill-rule="evenodd"
         stroke="none"
         id="path8" />
      <path
         d="m 45,41.3 q 1.2,0 1.7,1.1 0.25,0.65 0.05,1.35 L 46,44.8 44.1,44.85 q -1,-0.6 -0.9,-1.65 0,-1.05 0.95,-1.65 L 45,41.3 m 1.15,7.75 0.1,0.9 -0.05,0.8 q -0.1,0.8 -0.6,1.3 l -0.5,0.6 Q 44.2,53.5 43,53.4 41.9,53.4 41,52.6 40.4,52.05 40.15,51.35 40,50.8 40.1,49.7 l 0.05,-0.5 q 0.2,-0.8 0.9,-1.5 1.6,-1.35 3.25,-0.55 l 0.65,0.35 q 1,0.75 1.2,1.55 M 40.8,46.3 q -0.85,-0.1 -1.05,-1 v -0.5 l 0.15,-0.55 q 0.4,-0.7 1.15,-0.8 0.85,-0.1 1.35,0.65 0.5,0.7 0.1,1.5 -0.4,0.75 -1.3,0.75 L 40.8,46.3 m 7.15,-1.9 0.9,0.45 0.4,0.9 q 0.05,0.5 -0.3,0.95 -0.3,0.45 -0.8,0.55 L 47.2,47.15 Q 46.7,46.9 46.5,46.45 46.3,46 46.4,45.5 q 0.15,-0.55 0.55,-0.85 l 1,-0.25 M 1.6,27.45 1.7,26.6 2.1,25.75 q 0.85,-1.4 1.95,-2.05 1.4,-0.85 3,-0.6 l 0.6,0.1 0.8,2.55 0.9,1.85 q 0.65,1.1 1.7,1.95 L 11,29.6 q -0.55,1.75 -2.55,2.45 L 4.8,32.3 3.75,32.05 2.8,31.4 Q 2.2,30.9 1.9,30.2 1.5,29.35 1.6,27.45 m 18.6,8.4 -1,-0.55 q -1.75,-1.1 -2,-2.55 L 17.15,31.6 17.2,31.4 18.75,30.95 20.5,30 l 3,-2.3 0.2,-0.2 q 1.7,0.7 2.3,2.55 l 0.2,1.1 q 0.1,1.3 -0.5,2.5 -0.6,1.2 -1.75,1.85 l -1,0.4 -1.2,0.1 -1.55,-0.15"
         fill="#ffffff"
         fill-rule="evenodd"
         stroke="none"
         id="path9" />
    </g>
    <g
       id="shape2"
       transform="translate(1.5,1.5)">
      <path
         d="M 0,23.8 V 0 H 64.1 V 23.8 57.55 H 0 Z"
         fill="none"
         stroke="#000000"
         stroke-linecap="round"
         stroke-linejoin="round"
         stroke-width="3"
         id="path10" />
    </g>
  </defs>
</svg>
