<?xml version="1.0" encoding="UTF-8" standalone="no"?>
<svg
   ffdec:objectType="frame"
   height="60.549999"
   width="67.099998"
   version="1.1"
   id="svg6"
   sodipodi:docname="819.svg"
   xmlns:inkscape="http://www.inkscape.org/namespaces/inkscape"
   xmlns:sodipodi="http://sodipodi.sourceforge.net/DTD/sodipodi-0.dtd"
   xmlns:xlink="http://www.w3.org/1999/xlink"
   xmlns="http://www.w3.org/2000/svg"
   xmlns:svg="http://www.w3.org/2000/svg"
   xmlns:ffdec="https://www.free-decompiler.com/flash">
  <sodipodi:namedview
     id="namedview6"
     pagecolor="#ffffff"
     bordercolor="#000000"
     borderopacity="0.25"
     inkscape:showpageshadow="2"
     inkscape:pageopacity="0.0"
     inkscape:pagecheckerboard="0"
     inkscape:deskcolor="#d1d1d1"
     fit-margin-top="5"
     fit-margin-left="5"
     fit-margin-right="5"
     fit-margin-bottom="5" />
  <g
     transform="translate(1.5,1.5)"
     id="g3">
    <use
       ffdec:characterId="516"
       height="57.549999"
       width="64.099998"
       xlink:href="#shape0"
       id="use1" />
    <use
       ffdec:characterId="1307"
       height="51.75"
       transform="translate(3.1,3.05)"
       width="58.400002"
       xlink:href="#shape1"
       id="use2" />
    <use
       ffdec:characterId="518"
       height="60.549999"
       transform="translate(-1.5,-1.5)"
       width="67.099998"
       xlink:href="#shape2"
       id="use3" />
  </g>
  <defs
     id="defs6">
    <g
       id="shape0">
      <path
         d="M 53.6,0 H 64.1 V 57.55 H 53.6 28.25 0 V 0 H 28.25 53.6 V 57.55 0 M 28.25,0 V 57.55 0"
         fill="#ffffff"
         fill-rule="evenodd"
         stroke="none"
         id="path3" />
    </g>
    <g
       id="shape1"
       transform="translate(-3.1,-3.05)">
      <path
         d="m 57.8,21.9 q 1.2,-0.55 1.75,-0.3 0.55,0.2 0.3,1.1 -0.2,1.25 -1.6,1.85 l -2.5,0.3 Q 53.65,24.6 51.8,23.8 l -0.75,-0.25 -0.8,0.2 q -4.5,1.8 -8.85,4.05 l -1.9,0.55 q -0.55,0 -0.95,-0.35 -0.4,-0.4 -0.35,-0.9 0.05,-0.5 0.85,-1.1 4.9,-3.8 10.35,-6.1 1.2,-0.5 1.95,-0.5 l 1.5,0.3 q 1,1.3 2.35,2.05 l 2.6,0.15 M 37.05,5.6 q 1.5,1.2 1.75,2.45 V 9.5 l -0.25,1.25 -0.35,0.7 -0.8,1.65 Q 37.1,14 37.3,14.9 L 37.65,15.85 37.6,17 36.9,17.8 Q 36,18.35 35,17.55 34.25,16.9 34.1,15.75 l 0.1,-2 L 34.35,13 Q 34.6,12 35.4,10.85 L 36.35,9.35 36.7,8.55 36.55,7.95 36.15,7.1 35.8,6.65 Q 35.45,6.15 35.7,5.7 35.95,5.15 36.5,5.25 l 0.55,0.35 m -7.5,3.25 -0.8,1.6 -0.1,1.15 0.2,1.25 0.75,1.3 0.7,1.3 q 0.2,0.95 -0.4,1.4 -0.3,0.3 -0.8,0.3 L 28.25,16.95 27,15.7 26.25,14.25 q -0.3,-0.7 -0.3,-1.9 0,-1.65 0.3,-2.4 0.2,-0.6 1.3,-2.3 L 28.2,6.15 27.85,4.85 27.6,4.05 q -0.1,-0.7 0.15,-0.9 L 28.5,3.2 q 0.55,0.25 1,1.05 0.6,1 0.65,2.3 0,1.25 -0.6,2.3 M 19.2,6.65 q 0.2,-0.7 -0.1,-1.9 L 18.95,4.2 18.6,3.65 Q 18.6,3.4 19,3.4 l 0.4,0.25 0.9,0.75 q 1,1.1 1.1,2.65 0.1,1.4 -0.55,2.8 -0.5,0.9 -0.55,1.3 v 0.75 l 0.4,1.7 0.55,1.1 -0.15,1.1 -0.85,0.8 q -1.1,0.5 -2.1,-0.5 l -0.5,-0.7 q -1.1,-2 -0.4,-4.65 0.15,-0.7 0.45,-1.3 L 18.45,8.3 Q 19.1,7.4 19.2,6.65 M 10.9,3.25 Q 11.25,3.2 11.8,3.9 l 0.9,1.15 0.8,2.2 0.1,1.2 -0.45,1.3 -1.45,3.1 q -0.6,1.95 0.05,3.35 l 0.8,1.5 q 0.25,0.9 -0.05,1.55 -0.35,0.85 -1.2,0.95 -0.95,0.1 -2,-1.15 L 8.65,18.1 Q 7.35,16.05 8.05,13.2 8.6,10.9 10.55,8.8 L 11.1,8.05 11.25,7.1 10.75,4.8 10.45,3.95 q 0,-0.6 0.45,-0.7 M 39.7,30.4 q 0.25,2.2 -2.25,4.95 -1.45,1.4 -1.8,2.3 Q 35.5,38.2 35.5,39 v 1.35 q -0.15,2 -2.25,5.2 -1.6,2.35 -2.6,3.15 -2.2,1.95 -5.9,2.65 -2.6,0.45 -4.8,0.1 -3.35,-0.5 -6.35,-2.9 -1.55,-1.3 -2.35,-2.6 Q 10.45,44.6 9.95,42.4 9,37.75 9.8,34.6 q 0.85,-3.4 3.8,-6.05 2.45,-2.2 6.15,-3.8 1.95,-0.7 3.2,-0.55 0.9,0.05 2.1,0.75 l 2.05,1.05 1.35,0.2 1.3,-0.75 q 1.95,-1.4 5.25,-0.8 1.2,0.3 1.75,0.8 0.85,0.85 0.4,1.7 1,0.4 1.7,1.25 0.7,0.9 0.85,2"
         fill="#999999"
         fill-rule="evenodd"
         stroke="none"
         id="path4" />
      <path
         d="m 37.85,40.45 -0.2,2.2 q -0.3,3.2 -3.05,6 -1.95,2.05 -5.55,4.1 Q 27,54 25.65,54.4 l -4.4,0.3 -4.45,-0.85 Q 12.45,52.85 10.3,51.4 8,49.8 5.65,45.8 4.35,43.7 3.75,41.9 2.5,38.2 3.6,33.9 q 0.9,-3.6 3.35,-7.3 1.65,-2.4 3.2,-3.7 1.5,-1.35 4.8,-2.95 3.4,-1.5 6.05,-1.85 3.55,-0.45 6.1,1 0.65,0.4 1.05,0.35 l 0.8,-0.4 q 0.8,-0.5 1.65,-0.5 V 18.5 l 2.55,-0.35 q 1.6,0.1 2.9,0.95 l 0.15,0.05 0.6,0.25 1.5,1.1 0.7,0.5 0.55,-0.2 1.5,-0.85 0.7,-0.4 0.1,-0.2 2.2,-1.5 Q 44.25,17.8 44.4,17.7 43.7,16.55 43.55,15.25 43.3,13.7 43.8,12.2 44.25,10.65 45.45,9.55 46.6,8.4 48.15,7.95 L 50.2,7.65 52,8 q 1.35,0.55 2.1,1.65 l 0.95,2.15 0.2,1.3 -0.05,0.55 q 1.6,-0.15 2.7,0.35 2.5,1.1 3.3,4.5 0.5,1.9 0.2,3.4 -0.3,1.65 -1.55,2.85 -1.2,1.25 -2.95,1.6 l -3.3,-0.2 Q 51.95,25.6 50.75,24.4 l -3.75,2.05 -0.1,0.1 -1.2,1 -1.9,1.15 -0.45,0.35 -0.15,0.65 q -0.55,4.1 -2.25,6.35 l -1.4,1.55 -1.2,1.25 -0.2,0.25 -0.3,1.35 m 3.5,-14.3 2.1,-1.45 h 0.15 l 5.75,-3 0.95,-0.4 1,-0.6 0.15,0.1 0.6,0.25 0.45,0.45 1.75,1.4 1.15,0.2 1,0.05 q 1.45,-0.15 2.2,-1.6 0.65,-1.2 0.15,-2.7 -0.2,-0.7 -0.8,-1.25 -0.9,-0.95 -2.25,-1.25 -1.35,-0.2 -2.7,0 L 52.75,16.3 52.6,16.2 52.3,15.7 52.4,15.05 q 0.1,-0.9 -0.2,-1.9 -0.4,-1.2 -1.3,-1.6 -0.4,-0.25 -1.3,-0.35 h -0.65 l -0.5,0.1 q -1.2,0.55 -1.5,1.4 l -0.15,0.6 -0.15,1.55 0.5,1.65 0.95,1.65 0.05,0.05 -1.45,1.1 -2.4,1.8 -2.05,1.7 -1.45,0.75 -0.15,0.05 -0.8,1.6 -1.05,1.75 1,-0.15 0.8,0.05 0.75,-0.7 M 20.45,48.4 Q 19.75,49 18.85,48.7 17.9,48.3 17.7,47.45 17.55,47 17.75,45.75 L 18.1,40.7 20.85,25.75 q 0.15,-0.95 0.4,-1.25 0.5,-0.8 1.2,-0.6 0.6,0.2 0.8,0.9 V 26 L 21.6,41.25 21.35,46.1 q -0.15,1.7 -0.9,2.3 M 8.2,39.2 q 0.2,1.05 1.15,3.15 2.05,4 4.05,5.45 1.45,0.95 4.05,1.65 2.75,0.85 4.4,0.9 2.75,0.15 5.45,-1.3 2.4,-1.25 4.5,-3.6 1.25,-1.3 1.55,-2.3 l 0.35,-1.75 0.1,-1.85 q 0.2,-1.9 1,-3.15 0.75,-1.3 2.1,-1.9 l 0.25,-0.3 1.2,-1.95 0.55,-1.55 0.2,-0.65 -0.2,-0.15 -2,-0.8 -1,-0.4 -0.1,-0.15 -0.1,-0.1 q -0.3,-0.4 -0.2,-0.8 l 0.4,-0.8 0.15,-0.35 0.2,-0.3 0.35,-0.65 0.65,-1.35 h -0.2 L 36.1,23.75 34.65,23.6 h -1.6 l -0.75,-0.05 -1.1,-0.1 -0.85,0.35 -0.8,0.5 -2.85,-0.1 -2.75,-1.1 -3.1,0.05 -2.95,1 q -2.15,0.9 -3.25,1.65 -3.55,2.3 -5.6,7.4 -1.35,3.5 -0.85,6 m 2.6,3.35 Q 10.7,42 10.9,41.2 l 2.5,-11.8 q 0.25,-1.1 0.55,-1.6 l 0.5,-0.7 0.8,-0.2 q 0.65,0.25 0.65,1.35 l -0.2,2.25 q -0.35,2.45 -0.6,7.45 l -0.55,3.9 -0.4,1.3 -0.85,0.75 -1.05,0.15 -0.95,-0.5 q -0.4,-0.45 -0.5,-1 m 23.5,-8.45 -0.35,0.8 q -0.4,0.4 -0.8,0.3 l -0.3,-0.15 Q 32.4,34.8 32.35,34.25 L 32.3,33.65 32.2,32 32.05,26.9 q 0,-0.7 0.15,-1.05 0.4,-0.9 1.4,-0.75 1,0.15 1.1,1.15 l 0.05,0.4 -0.35,6.8 -0.1,0.65 m -6.2,12.3 q -0.7,0.5 -1.5,0.3 -0.85,-0.3 -1,-1.1 -0.2,-0.45 -0.05,-1.5 l 0.35,-3.15 0.2,-3.2 q 0.1,-2.65 0.8,-7.8 l 0.35,-2.1 q 0.05,-1.1 0.5,-1.65 0.25,-0.35 0.75,-0.45 l 0.75,0.1 q 0.4,0.45 0.35,1.55 -0.25,3.15 -0.35,6.9 l -0.05,4 -0.25,5.75 q -0.15,1.8 -0.85,2.35"
         fill="#000000"
         fill-rule="evenodd"
         stroke="none"
         id="path5" />
    </g>
    <g
       id="shape2"
       transform="translate(1.5,1.5)">
      <path
         d="M 0,23.8 V 0 H 64.1 V 23.8 57.55 H 0 Z"
         fill="none"
         stroke="#000000"
         stroke-linecap="round"
         stroke-linejoin="round"
         stroke-width="3"
         id="path6" />
    </g>
  </defs>
</svg>
