<?xml version="1.0" encoding="UTF-8" standalone="no"?>
<svg
   ffdec:objectType="frame"
   height="60.549999"
   width="67.104347"
   version="1.1"
   id="svg7"
   sodipodi:docname="766.svg"
   xmlns:inkscape="http://www.inkscape.org/namespaces/inkscape"
   xmlns:sodipodi="http://sodipodi.sourceforge.net/DTD/sodipodi-0.dtd"
   xmlns:xlink="http://www.w3.org/1999/xlink"
   xmlns="http://www.w3.org/2000/svg"
   xmlns:svg="http://www.w3.org/2000/svg"
   xmlns:ffdec="https://www.free-decompiler.com/flash">
  <sodipodi:namedview
     id="namedview7"
     pagecolor="#ffffff"
     bordercolor="#000000"
     borderopacity="0.25"
     inkscape:showpageshadow="2"
     inkscape:pageopacity="0.0"
     inkscape:pagecheckerboard="0"
     inkscape:deskcolor="#d1d1d1"
     fit-margin-top="5"
     fit-margin-left="5"
     fit-margin-right="5"
     fit-margin-bottom="5" />
  <g
     transform="translate(1.5,1.5)"
     id="g3">
    <use
       ffdec:characterId="516"
       height="57.549999"
       width="64.099998"
       xlink:href="#shape0"
       id="use1" />
    <use
       ffdec:characterId="1255"
       height="55.599998"
       transform="translate(-1.1,3.45)"
       width="66.699997"
       xlink:href="#shape1"
       id="use2" />
    <use
       ffdec:characterId="518"
       height="60.549999"
       transform="translate(-1.5,-1.5)"
       width="67.099998"
       xlink:href="#shape2"
       id="use3" />
  </g>
  <defs
     id="defs7">
    <g
       id="shape0">
      <path
         d="M 53.6,0 H 64.1 V 57.55 H 53.6 28.25 0 V 0 H 28.25 53.6 V 57.55 0 M 28.25,0 V 57.55 0"
         fill="#ffffff"
         fill-rule="evenodd"
         stroke="none"
         id="path3" />
    </g>
    <g
       id="shape1"
       transform="translate(1.1,-3.45)">
      <path
         d="m 63.85,32.2 q 0.2,4.3 -0.2,6.35 l -0.6,2.9 q -0.1,0.8 0.15,3.7 l 0.1,4.1 q 0,2.5 0.4,4.05 l 0.4,1.95 Q 64.2,56.35 63.65,57 62.8,57.95 60,57.4 L 53.95,57.1 43.9,57.25 27.3,57.2 21.25,57.5 18.8,58 q -1.65,0 -2.1,-1.2 -0.45,-1.4 1.65,-3.05 L 31.9,43.25 31.25,43.2 28.1,42.55 13.95,37.8 13.1,37 12.95,36.6 q 0.05,-0.3 0.6,-0.3 l 4.25,0.95 9.1,2.05 -2.3,-1 -2.85,-0.85 Q 14.75,35.5 5.9,31.4 L 1.8,29.05 Q 0.75,28.2 0.7,27.35 0.6,26.9 0.95,26.65 L 2,26.7 13.05,30.9 q 3.8,1.4 7.45,2.4 l 3.15,0.85 5.05,1.95 q 3.15,1.3 5.05,1.8 l 1.5,0.45 q 0.85,0.3 1.35,0.75 l 0.3,0.35 1.25,-0.9 L 36.1,38 Q 34.95,37.55 18,31.65 7.05,27.9 0.4,24.25 -1,23.5 -1.1,22.65 -1.2,22 -0.65,21.5 q 0.5,-0.5 1.2,-0.6 1,-0.1 2.6,0.65 7.1,3.15 16.35,6.25 l 3.9,1.3 -2.45,-1 -6.05,-2.4 Q 11.6,24.2 9.35,22.5 8.95,22.2 9.05,21.95 l 0.7,-0.1 11.65,4.05 q 6.7,2.4 11.3,4.8 l 2.1,1 0.45,-1.5 q 0.9,-2.75 1.3,-3.55 l 0.9,-1.95 0.65,-2.1 0.15,-0.75 q 0.2,-0.65 0.9,-1.75 l 0.45,-0.75 0.35,-0.4 0.5,0.05 v 0.4 l -0.15,0.4 0.05,0.7 -0.2,0.85 -0.3,1.6 -0.3,1.6 0.25,-0.5 3.05,-6.25 0.4,-0.75 -0.25,0.1 -1.75,-0.1 Q 40.3,16.4 40.6,15.45 l 0.45,-0.95 0.15,-0.6 q 0.15,-1.05 0.6,-2.1 L 41.05,11.6 40.2,11.4 39.4,11 Q 38.9,10.6 38.9,9.85 38.85,9.1 39.35,8.7 39.8,8.25 40.85,8.15 H 42.5 L 44.6,7.8 q 1.35,-0.1 2,0.5 0.4,0.35 0.45,0.9 L 46.9,10 q 0.35,-0.25 0.85,-0.2 0.65,-0.05 1.15,0.25 l 0.55,-1 0.4,-0.25 0.3,-0.4 q -0.3,-0.3 -0.25,-0.75 0,-0.45 0.3,-0.8 0.45,-0.5 1.5,-0.8 l 2,-0.2 q 1.25,0.3 1.3,1.35 0,0.75 -0.9,1.65 l -1.75,1.6 0.35,2.15 0.25,1.3 q -0.1,1.25 -1.25,1.6 l -1.45,-0.1 -3.8,10.15 2.4,-3.05 1.3,-1.3 0.3,-0.45 q 0.2,-0.3 0.5,-0.35 l 0.25,0.3 -0.1,0.45 -1,1.25 -0.3,0.5 -1.25,2.65 -0.55,1.2 -0.4,0.5 -0.4,1.2 -0.75,1.25 -0.55,0.35 q -0.6,0.1 -1.05,-0.2 l -1.4,3.65 -1.05,1.8 14.65,-10.9 1.7,-1.75 0.35,-1.1 0.4,-1.15 q 0.55,-0.8 1.55,-0.85 1.05,-0.05 1.7,0.65 0.55,0.65 0.65,2.5 l 0.45,9.5 m -19.4,-20 1.4,-1.3 0.6,-0.5 0.1,-0.1 -0.45,0.15 q -0.5,0.2 -0.65,0.3 l -0.7,0.8 -0.3,0.25 v 0.4 m -4.25,23.55 -0.2,-0.1 0.15,0.9 -0.05,0.5 1.9,-1.45 -1.8,0.15 m -6.4,6.05 -0.4,-0.1 0.05,0.4 0.35,-0.3 m 16.7,10.55 -0.35,0.45 h 0.35 v -0.45"
         fill="#999999"
         fill-rule="evenodd"
         stroke="none"
         id="path4" />
      <path
         d="m 17,57.9 -0.35,-0.05 q -1.45,1 -2.5,1.15 -0.9,0.15 -1.7,-0.3 -0.85,-0.45 -1,-1.25 -0.3,-1.4 1.7,-3.05 6.1,-5.2 18.1,-14.55 L 18.4,35.3 Q 10.7,32.35 4.95,29.25 L 4.65,29 4.7,28.8 4.85,28.75 6.55,29 l 12.4,4.1 q 9.2,3.1 13.9,4.3 l 1.1,0.35 1.5,-1.2 L 14,29.5 5.8,26.55 Q 1.5,24.75 -0.35,22.65 -0.8,22.2 -0.6,21.9 l 0.5,-0.25 q 0.8,-0.05 2.45,0.95 2.7,1.6 8.45,3.3 l 13.8,4.15 q 6.35,1.85 10.9,3.4 l 4.65,-9.7 Q 40.6,22.7 41,22.1 l 0.7,-1.15 0.2,-0.25 h 0.35 q -0.05,0.7 -0.6,1.3 l -2.45,8.05 -1.5,3.5 -0.15,0.7 0.2,0.1 q 0.3,-0.95 1.1,-2.45 l 3,-5.9 q 2.2,-5.6 3.75,-8.2 l 0.5,-0.5 q 0.35,-0.2 0.7,0 l 0.45,0.55 q 0.25,0.65 -0.2,1.45 l -0.8,1.25 Q 45.9,21.35 45.6,23 l -0.6,1.35 -0.3,1.5 -1.05,2.25 -1.15,2.9 8.4,-6.85 5.25,-4.4 q 3.1,-2.45 5.5,-4.1 1.4,-1 2.45,-0.9 1.1,0.25 1.45,1.35 0.25,1.2 -0.65,1.85 0.9,0.75 0.35,1.9 l -0.45,0.75 -0.25,-0.25 -0.8,-0.2 q -0.35,0.1 -1.15,0.75 l -0.1,0.05 -1.3,1 -0.45,0.3 -2,1.5 -0.75,0.6 -0.9,0.65 -1.55,1.15 -3.6,2.4 Q 46.9,32 38.35,39.1 35.9,41.15 33.4,43.15 l -15,11.45 q -1,0.8 -1.35,1.35 -0.6,1 -0.15,1.8 L 17,57.9 M 51.2,9.45 50.95,9.7 q -0.1,0.25 0.1,0.5 l 0.25,1.9 Q 51,13.25 50,13.35 49.55,13.4 48.65,12.9 47.75,12.4 47.3,12.5 l -0.9,0.5 -1,0.8 -0.65,0.75 Q 43.9,15.3 42.85,15 l -0.8,-0.6 Q 41.75,13.95 41.8,13.45 L 42.15,12.5 42.9,10.65 Q 41.65,10.65 41.35,9.6 41.15,9.15 41.3,8.65 41.4,8.1 41.8,7.8 42.35,7.25 43.8,7.25 L 44.4,7.1 44.8,6.5 45.55,4.9 q 0.4,-0.8 1.2,-1.25 l 1.65,0.1 0.7,0.85 0.55,1.3 1.9,-0.65 1.2,-0.2 q 0.65,0 1.1,0.6 0.35,0.6 0.2,1.25 -0.25,0.7 -1.25,1.4 l -1.6,1.15"
         fill="#000000"
         fill-rule="evenodd"
         stroke="none"
         id="path5" />
      <path
         d="m 64.8,20.6 0.1,0.35 -0.45,0.85 -0.2,0.2 v 0.15 Q 64.4,22.7 64,23.45 l -1.3,1.2 q -1.9,1.4 -3.75,2.75 -6.6,5.65 -16.4,13.1 -16.2,12.3 -21.45,16.7 l -2.05,1.3 -1.2,-0.05 Q 17.3,58.3 17,57.9 l -0.1,-0.15 q -0.45,-0.8 0.15,-1.8 0.35,-0.55 1.35,-1.35 l 15,-11.45 q 2.5,-2 4.95,-4.05 8.55,-7.1 13.6,-10.55 l 3.6,-2.4 1.55,-1.15 0.9,-0.65 0.75,-0.6 2,-1.5 0.45,-0.3 1.3,-1 0.1,-0.05 q 0.8,-0.65 1.15,-0.75 l 0.8,0.2 0.25,0.25"
         fill="#999999"
         fill-rule="evenodd"
         stroke="none"
         id="path6" />
    </g>
    <g
       id="shape2"
       transform="translate(1.5,1.5)">
      <path
         d="M 0,23.8 V 0 H 64.1 V 23.8 57.55 H 0 Z"
         fill="none"
         stroke="#000000"
         stroke-linecap="round"
         stroke-linejoin="round"
         stroke-width="3"
         id="path7" />
    </g>
  </defs>
</svg>
