<?xml version="1.0" encoding="UTF-8" standalone="no"?>
<svg xmlns:ffdec="https://www.free-decompiler.com/flash" xmlns:xlink="http://www.w3.org/1999/xlink" ffdec:objectType="frame" height="70.55px" width="71.35px" xmlns="http://www.w3.org/2000/svg">
  <g transform="matrix(1.0, 0.0, 0.0, 1.0, 3.45, 10.4)">
    <use ffdec:characterId="516" height="57.55" transform="matrix(1.0, 0.0, 0.0, 1.0, 0.0, 0.0)" width="64.1" xlink:href="#shape0"/>
    <use ffdec:characterId="526" height="58.45" transform="matrix(1.0, 0.0, 0.0, 1.0, 0.0, 0.0)" width="65.8" xlink:href="#shape1"/>
    <use ffdec:characterId="518" height="60.55" transform="matrix(1.0, 0.0, 0.0, 1.0, 0.0, 0.0)" width="67.1" xlink:href="#shape2"/>
  </g>
  <defs>
    <g id="shape0">
      <path d="M53.6 0.0 L64.1 0.0 64.1 57.55 53.6 57.55 28.25 57.55 0.0 57.55 0.0 0.0 28.25 0.0 53.6 0.0 53.6 57.55 53.6 0.0 M28.25 0.0 L28.25 57.55 28.25 0.0" fill="#ffffff" fill-rule="evenodd" stroke="none"/>
    </g>
    <g id="shape1">
      <path d="M18.45 0.2 L20.05 0.1 Q20.7 0.5 21.1 1.85 L23.75 10.1 Q24.2 11.4 23.65 11.85 L23.3 12.05 Q22.85 12.65 21.95 12.3 L20.8 11.45 15.9 6.2 14.95 5.5 14.25 4.6 12.8 3.25 11.2 2.2 Q10.3 1.4 10.5 0.55 10.55 -0.15 11.45 -0.55 L12.95 -0.4 14.1 0.5 14.7 1.1 14.9 1.1 16.4 1.0 17.45 0.35 18.3 0.4 18.45 0.2 M53.05 -0.1 Q53.65 0.3 53.25 1.1 L52.4 2.05 51.45 3.25 48.3 6.8 Q47.95 7.15 47.7 7.1 47.35 6.95 47.45 6.6 L47.7 6.05 51.45 0.7 52.1 -0.05 53.05 -0.1 M50.7 6.95 L52.75 4.8 54.0 3.75 54.75 3.2 55.35 2.6 57.5 0.7 58.35 -0.1 Q58.95 -0.55 59.45 -0.4 L60.1 0.05 60.25 0.85 60.15 1.1 60.85 0.85 62.25 0.65 Q63.2 0.65 63.65 1.15 64.15 1.65 63.95 2.65 L63.45 4.15 63.25 5.0 62.8 5.75 61.75 6.25 Q61.05 6.45 57.95 7.95 L54.0 9.6 49.8 11.1 48.8 11.45 Q48.15 11.45 48.05 10.9 L48.05 10.8 47.6 10.5 49.1 8.35 49.6 7.85 50.7 6.95 M64.35 19.0 Q64.3 19.45 63.65 19.65 L63.3 19.75 63.25 20.2 62.75 20.85 63.45 21.2 63.95 21.8 63.95 22.15 63.75 22.45 63.15 22.45 Q60.95 21.95 59.95 21.35 L58.7 20.6 57.0 20.25 Q55.85 19.95 55.95 19.1 56.2 18.8 56.6 18.65 L56.6 18.55 Q56.7 18.2 57.55 18.2 L58.75 17.95 59.9 17.7 61.25 17.85 62.55 17.7 63.85 17.9 Q64.6 18.35 64.35 19.0 M60.95 51.9 L58.45 47.85 52.2 39.05 49.3 33.8 49.0 33.05 Q48.9 32.55 49.35 32.35 49.8 32.15 50.35 32.85 L61.15 46.6 63.05 49.4 63.9 50.9 64.8 52.15 Q65.0 52.8 64.65 53.4 L63.65 54.15 Q62.7 54.2 61.95 53.45 L60.95 51.9 M43.95 39.7 Q43.85 38.85 44.3 38.7 44.7 38.55 45.0 39.1 L45.05 39.2 45.1 39.2 Q45.65 39.35 45.65 40.2 L45.85 42.7 46.05 43.4 46.4 45.15 46.7 46.9 47.0 48.2 47.15 49.5 47.45 50.65 48.65 54.6 48.95 56.1 Q48.85 57.35 47.85 57.5 47.0 57.65 46.35 56.7 L45.85 57.45 Q45.15 58.05 44.45 57.75 43.65 57.35 43.75 56.3 L44.0 54.7 44.1 53.25 44.15 49.6 43.95 48.5 Q43.8 47.75 43.9 46.25 L44.25 40.8 43.95 39.7 M59.5 56.2 L56.85 51.1 53.85 46.65 52.85 44.95 51.9 43.75 Q51.4 43.0 51.25 42.35 L50.8 41.45 50.55 41.15 Q51.15 40.9 51.75 41.5 L52.5 42.6 55.15 46.4 56.6 48.25 57.65 49.45 58.35 50.2 58.8 51.15 59.6 52.65 61.4 55.9 Q61.95 57.0 61.5 57.45 L60.85 57.65 60.2 57.4 59.5 56.2 M24.4 0.1 Q25.05 -0.1 25.65 0.65 26.25 1.4 26.35 2.85 L26.5 5.3 26.7 6.45 26.65 7.45 26.65 8.4 26.8 9.2 Q26.8 9.75 26.35 9.75 25.95 9.75 25.75 9.15 L25.55 7.75 25.3 6.35 24.8 5.15 24.75 4.05 24.7 2.95 24.0 1.5 Q23.85 1.1 23.95 0.7 24.05 0.25 24.4 0.1 M-0.05 11.2 L-0.85 10.65 -0.9 10.0 -0.55 9.45 0.75 9.35 1.7 9.75 3.2 9.9 4.15 10.45 5.1 11.0 6.3 11.15 8.0 11.75 13.9 13.85 14.5 14.15 16.65 14.45 Q17.3 14.55 17.45 14.85 17.65 15.3 17.15 15.6 L16.3 15.8 14.0 15.55 11.9 15.6 10.3 15.3 8.65 14.95 6.15 14.85 1.9 14.95 0.65 14.7 Q-0.1 14.4 -0.1 13.7 -0.15 13.25 0.15 12.9 0.45 12.5 0.9 12.4 L0.3 11.75 0.2 11.3 -0.05 11.2 M-0.7 31.85 Q-0.95 31.2 -0.25 30.8 L1.0 30.55 3.0 30.55 7.55 30.7 7.85 30.9 8.1 31.0 Q6.55 32.1 3.5 33.35 L0.2 34.75 -0.6 34.8 Q-0.95 34.55 -0.75 34.05 L-0.2 33.5 Q1.2 32.45 2.9 31.75 L1.4 31.95 0.3 32.3 Q-0.45 32.3 -0.7 31.85 M27.05 45.75 L27.15 45.75 27.35 44.85 27.6 44.3 27.85 43.95 28.3 43.85 Q28.6 44.05 28.4 44.55 L28.15 45.25 28.2 45.7 28.05 46.45 Q27.95 46.85 28.0 47.6 L27.75 48.4 27.7 49.1 27.35 50.25 27.25 50.6 27.35 51.7 26.9 54.3 26.95 55.1 26.75 56.45 26.4 57.0 25.85 57.25 25.2 57.1 24.7 57.55 23.95 57.65 Q23.15 57.4 23.25 56.35 L23.8 54.9 Q24.45 53.6 25.1 50.55 25.7 47.65 26.5 46.25 26.7 45.75 27.05 45.75 M37.3 43.15 L37.55 42.4 38.05 38.55 Q38.05 37.8 38.35 37.45 L38.65 37.25 Q39.1 37.35 39.2 37.9 L39.3 38.8 39.45 39.8 39.45 40.75 39.15 41.75 39.15 42.7 39.0 44.95 39.1 46.7 39.1 48.45 38.95 49.35 39.0 50.65 38.75 52.35 38.7 52.7 38.85 54.75 38.85 56.0 38.25 56.85 37.25 57.1 Q36.7 57.05 36.35 56.6 L36.2 56.4 Q35.45 56.05 35.45 54.95 35.4 54.35 35.8 53.15 L36.4 51.0 36.65 49.95 36.8 46.4 37.0 45.65 37.3 43.15" fill="#999999" fill-rule="evenodd" stroke="none"/>
      <path d="M21.4 23.8 Q20.35 22.95 20.35 21.05 20.25 17.7 22.65 15.3 25.1 12.9 28.45 13.0 28.8 11.55 30.3 10.3 31.85 9.0 33.95 8.5 L38.05 8.3 Q42.05 8.8 45.4 11.85 47.15 13.35 47.9 14.85 L48.55 17.05 Q49.05 19.2 49.0 21.0 48.9 24.65 46.8 27.65 46.9 28.7 46.35 29.75 45.6 31.2 44.15 31.95 43.1 32.5 42.25 32.45 L41.95 32.4 41.75 32.75 Q40.3 34.7 39.05 35.35 37.55 36.0 35.5 35.85 L33.55 35.45 32.95 35.25 Q31.55 34.65 31.2 33.4 L31.05 33.25 Q31.0 33.2 30.9 33.3 L29.4 34.4 28.35 35.05 26.95 35.2 25.65 34.95 24.85 34.35 24.4 34.7 22.7 35.85 Q21.2 36.6 19.15 36.6 17.4 36.5 16.8 35.8 16.25 35.2 16.35 34.1 16.4 33.5 16.8 32.4 L17.2 31.25 Q17.35 30.6 17.65 30.1 L18.4 29.05 Q18.85 27.95 19.25 27.55 L20.15 26.75 21.05 25.75 22.05 25.0 22.95 24.35 Q21.9 24.15 21.4 23.8 M31.45 14.1 L31.25 15.3 31.1 15.85 31.2 15.95 31.45 16.35 31.8 16.6 32.25 16.2 Q33.4 14.45 36.7 13.85 L39.1 13.65 Q40.7 13.75 43.1 15.2 44.6 16.05 45.4 17.0 L45.3 16.65 Q44.95 15.7 43.65 14.6 41.3 12.5 38.75 11.8 L35.95 11.5 Q34.45 11.65 33.2 12.25 31.8 13.0 31.45 14.1 M28.65 25.15 L28.5 25.25 27.7 25.2 27.0 25.4 Q26.55 25.65 26.35 26.15 25.95 26.95 26.55 28.25 27.05 29.3 27.75 29.7 28.55 30.3 29.55 30.05 L30.5 29.45 30.85 29.25 31.5 28.85 34.8 26.95 35.35 27.85 Q36.15 29.25 36.95 29.5 L38.25 29.3 39.1 28.3 Q39.6 27.25 39.0 25.6 L38.75 25.1 39.45 24.9 40.65 24.8 41.65 24.5 Q42.15 24.0 42.1 23.2 L41.95 22.5 Q42.1 21.8 41.75 21.15 L40.7 20.3 Q40.25 19.85 39.6 19.8 38.6 19.65 38.1 20.6 L37.9 20.65 36.25 21.45 35.6 20.5 Q34.8 19.1 34.3 18.8 L32.45 18.65 Q31.55 19.1 31.5 20.15 31.35 20.95 32.15 22.3 L32.65 23.2 30.65 24.0 28.65 25.15 M28.3 16.35 Q26.2 16.1 24.75 17.65 23.45 19.1 23.45 21.25 L25.3 21.75 Q25.25 20.75 25.6 19.6 26.1 18.2 27.15 17.25 L28.4 16.4 28.3 16.35 M16.0 26.0 L15.9 25.05 15.25 24.65 13.9 24.35 12.45 24.45 Q12.05 24.7 11.8 25.1 L11.35 25.8 Q11.7 25.6 12.25 25.5 L14.3 25.65 15.3 26.55 15.65 27.05 16.0 26.0 M13.7 21.85 Q15.35 22.05 16.35 22.5 17.75 23.2 18.1 24.5 18.35 25.35 18.0 26.55 17.7 27.85 16.8 28.75 L15.4 29.8 15.05 30.05 14.55 30.45 13.4 30.8 11.45 31.0 Q10.45 30.75 9.7 30.1 9.0 29.6 8.75 29.0 8.5 28.5 8.5 27.05 8.5 25.8 8.8 25.1 9.05 24.4 10.0 23.35 10.9 22.35 11.55 22.05 L13.7 21.85 M12.3 34.15 L12.7 34.05 12.8 34.05 Q13.25 34.05 13.6 34.4 L14.0 35.2 Q14.05 35.65 13.7 36.05 13.4 36.45 12.95 36.5 L12.1 36.35 Q11.65 36.1 11.55 35.65 11.45 35.2 11.65 34.75 11.9 34.3 12.3 34.15 M18.55 47.05 L16.8 46.85 Q15.8 46.5 15.4 45.8 15.15 45.35 15.15 44.3 15.15 43.25 15.45 42.65 L16.5 41.7 Q19.5 39.6 21.6 39.95 22.6 40.15 22.9 40.7 23.2 41.1 23.3 42.05 L23.2 43.8 22.25 45.4 21.05 46.6 18.55 47.05 M19.0 42.95 L18.65 42.9 18.3 43.1 17.85 43.5 Q17.65 43.8 17.7 44.05 L19.15 44.05 19.3 44.05 Q19.3 43.4 19.6 42.9 L19.0 42.95 M28.65 40.2 L28.6 39.35 28.85 38.5 29.6 37.7 Q30.25 37.3 30.95 37.3 31.8 37.3 32.5 37.95 33.2 38.6 33.25 39.45 33.35 40.35 32.75 41.1 L31.3 41.95 Q30.45 42.1 29.65 41.6 28.9 41.05 28.65 40.2 M6.65 49.9 Q7.65 49.6 8.5 50.35 L9.0 51.15 Q9.35 52.25 8.55 53.05 7.8 53.8 6.7 53.55 5.6 53.2 5.35 52.15 5.2 51.5 5.6 50.8 6.0 50.15 6.65 49.9" fill="#000000" fill-rule="evenodd" stroke="none"/>
      <path d="M28.65 25.15 L30.65 24.0 32.65 23.2 32.15 22.3 Q31.35 20.95 31.5 20.15 31.55 19.1 32.45 18.65 L34.3 18.8 Q34.8 19.1 35.6 20.5 L36.25 21.45 37.9 20.65 38.1 20.6 Q38.6 19.65 39.6 19.8 40.25 19.85 40.7 20.3 L41.75 21.15 Q42.1 21.8 41.95 22.5 L42.1 23.2 Q42.15 24.0 41.65 24.5 L40.65 24.8 39.45 24.9 38.75 25.1 39.0 25.6 Q39.6 27.25 39.1 28.3 L38.25 29.3 36.95 29.5 Q36.15 29.25 35.35 27.85 L34.8 26.95 31.5 28.85 30.85 29.25 30.5 29.45 29.55 30.05 Q28.55 30.3 27.75 29.7 27.05 29.3 26.55 28.25 25.95 26.95 26.35 26.15 26.55 25.65 27.0 25.4 L27.7 25.2 28.5 25.25 28.65 25.15" fill="#ffffff" fill-rule="evenodd" stroke="none"/>
    </g>
    <g id="shape2">
      <path d="M0.0 23.8 L0.0 0.0 64.1 0.0 64.1 23.8 64.1 57.55 0.0 57.55 0.0 23.8 Z" fill="none" stroke="#000000" stroke-linecap="round" stroke-linejoin="round" stroke-width="3.0"/>
    </g>
  </defs>
</svg>
