<?xml version="1.0" encoding="UTF-8" standalone="no"?>
<svg
   ffdec:objectType="frame"
   height="60.549999"
   width="67.099998"
   version="1.1"
   id="svg6"
   sodipodi:docname="65.svg"
   xmlns:inkscape="http://www.inkscape.org/namespaces/inkscape"
   xmlns:sodipodi="http://sodipodi.sourceforge.net/DTD/sodipodi-0.dtd"
   xmlns:xlink="http://www.w3.org/1999/xlink"
   xmlns="http://www.w3.org/2000/svg"
   xmlns:svg="http://www.w3.org/2000/svg"
   xmlns:ffdec="https://www.free-decompiler.com/flash">
  <sodipodi:namedview
     id="namedview6"
     pagecolor="#ffffff"
     bordercolor="#000000"
     borderopacity="0.25"
     inkscape:showpageshadow="2"
     inkscape:pageopacity="0.0"
     inkscape:pagecheckerboard="0"
     inkscape:deskcolor="#d1d1d1"
     fit-margin-top="5"
     fit-margin-left="5"
     fit-margin-right="5"
     fit-margin-bottom="5" />
  <g
     transform="translate(1.5,1.5)"
     id="g3">
    <use
       ffdec:characterId="516"
       height="57.549999"
       width="64.099998"
       xlink:href="#shape0"
       id="use1" />
    <use
       ffdec:characterId="577"
       height="49.400002"
       transform="translate(0,8.15)"
       width="64.099998"
       xlink:href="#shape1"
       id="use2" />
    <use
       ffdec:characterId="518"
       height="60.549999"
       transform="translate(-1.5,-1.5)"
       width="67.099998"
       xlink:href="#shape2"
       id="use3" />
  </g>
  <defs
     id="defs6">
    <g
       id="shape0">
      <path
         d="M 53.6,0 H 64.1 V 57.55 H 53.6 28.25 0 V 0 H 28.25 53.6 V 57.55 0 M 28.25,0 V 57.55 0"
         fill="#ffffff"
         fill-rule="evenodd"
         stroke="none"
         id="path3" />
    </g>
    <g
       id="shape1"
       transform="translate(0,-8.15)">
      <path
         d="m 0,34.95 h 3.8 l 0.15,-0.2 q 0.5,-0.5 0.8,-0.65 l 1.5,-0.2 1.1,0.1 0.45,0.15 0.5,-0.15 1.4,-0.1 1.4,0.3 1.05,0.3 0.5,0.45 h 2.7 q 0.3,-0.55 0.95,-1.15 0.75,-0.75 1.55,-1.15 L 18.7,32.4 18.5,31 Q 18.25,30.25 16.85,28.75 L 15.65,28 q -0.75,-0.1 -1.8,0.85 -1.9,1.8 -3.7,2.65 L 5.7,31.8 5.6,31.75 5.15,32.1 H 4.7 Q 4.25,32 4.05,31.75 q -0.4,-0.4 -0.2,-1 L 3.95,30.6 3.85,30.5 Q 3.1,29.6 3.05,28.45 3,26.95 4.25,25.25 L 5.15,24.2 Q 4.8,23.85 4.8,23.55 l 0.1,-0.35 0.5,-0.3 0.6,0.25 0.3,0.3 0.05,0.15 2.2,0.1 q 0.55,0.25 0.9,0.7 0.4,0.55 0.3,1.1 -0.1,0.55 -0.7,0.85 L 7.95,26.4 6.9,26.05 6.25,26.5 5.65,27.3 q -0.2,0.5 0.1,1.05 l 0.8,0.75 2.1,-0.1 1.85,-1.05 q 0.05,-0.05 1.65,-1.35 1.7,-1.35 3.2,-1.45 0,-0.6 0.3,-0.9 0.5,-0.6 1.05,-0.35 l 0.4,0.3 0.1,0.9 v 0.5 q 0.75,0.35 1.5,1.1 1,-1.25 2.25,-2.05 l 1.15,-0.6 1.65,-0.6 2.3,-0.1 1.5,0.55 0.9,0.55 0.9,0.95 0.9,1.05 q 0.4,0.7 0.6,1.95 l 0.05,0.4 q 1.8,-0.65 4,-0.55 3.05,0.1 5.55,1.6 l 1.6,1.3 q 0.75,0.9 1.15,2.45 l 1.05,-1 q 1.9,-2 2.5,-4.35 L 47,26.75 47.1,25.3 q -0.15,-1.7 -1.7,-2.7 l -0.35,1.1 -0.55,1.25 q -0.85,1.4 -2.4,1.85 l -3,-0.15 Q 37.9,26.2 37.45,25.4 37.05,24.7 37.15,24.1 L 37.1,23.85 q -0.3,-2.05 1.65,-3.55 1.45,-1.1 3.8,-1.2 h 0.55 v -1.95 q 0.1,-1.1 0.75,-2.05 L 43.2,14.45 Q 42.9,13.8 43.35,13.5 l 0.35,-0.2 0.55,-0.05 0.5,0.3 0.25,0.25 q 0.9,-0.75 2,-1 l 1.75,0.05 q 1,0.35 1,1.3 0.05,0.6 -0.45,1.1 -0.45,0.45 -1.1,0.55 l -0.85,0.1 q -0.45,0.05 -0.75,0.25 -0.65,0.35 -0.85,1.3 l -0.05,1.6 v 0.45 l 0.35,0.15 1.85,1.35 0.1,-0.05 0.4,-0.3 0.65,-0.05 0.3,0.25 -0.15,0.45 -0.4,0.3 -0.2,0.3 0.15,0.2 q 1,1.6 1.1,3.55 l 0.05,0.5 h 0.3 l 0.5,0.2 0.25,0.3 q 0.25,0.6 -0.35,1 L 49.7,28 q -0.4,2.3 -1.95,4.7 l -0.7,1 q 0.5,0.15 1.05,0.4 l 0.9,0.55 0.2,-0.25 0.65,-0.5 q 0.9,-0.45 2.6,-0.35 l 2.85,0.55 0.95,0.45 0.45,0.4 h 7.4 v 22.6 H 0 v -22.6 m 41.65,-12.9 q -1.6,0.4 -1.9,1.4 v 0.15 q 0.95,0.5 1.7,0.2 0.6,-0.3 1,-1.35 l 0.2,-0.5 -1,0.1 m -11.4,11.8 0.9,1.05 0.05,0.05 h 2.15 l 0.2,-0.25 1,-0.55 1.95,-0.95 1.25,-0.25 0.75,-0.05 0.4,0.05 -0.65,-0.5 q -0.95,-0.6 -2.1,-0.9 -1.7,-0.45 -3.55,0 -1.85,0.45 -3.15,1.65 l 0.8,0.65 m -7.7,-0.95 0.65,0.7 0.35,0.55 0.1,-0.1 1.45,-1 0.9,-0.35 0.25,-0.45 q 0.95,-1.4 2.5,-2.4 l -0.3,-0.9 -0.35,-1.1 -0.7,-0.65 -0.5,-0.65 -0.7,-0.3 -0.8,-0.4 -1.25,0.05 q -2.45,0.6 -3.9,2.55 l 0.35,0.6 q 0.6,1.15 0.5,3.3 0.9,0.15 1.45,0.55"
         fill="#999999"
         fill-rule="evenodd"
         stroke="none"
         id="path4" />
      <path
         d="M 15.15,8.85 16.9,9.1 17.05,9 q 0.85,-0.35 1.9,-0.6 h 0.1 q 0.3,-0.2 0.55,-0.25 0.45,0 0.65,0.25 0.25,0.4 -0.05,0.75 l -0.5,0.65 -1,1.7 -0.05,0.25 q -0.2,1 -0.95,1.35 l -0.95,0.2 -0.95,0.15 q -0.95,0.35 -1.35,1.4 -0.45,1 -0.05,2 0.25,0.75 0.75,1 l 0.55,0.2 0.9,-1.8 0.05,-0.3 q 0,-0.4 0.3,-0.65 0.3,-0.3 0.7,-0.15 l 0.3,0.65 0.05,0.35 v 0.35 l 0.15,0.35 0.05,0.85 3.95,-1.5 1.5,-0.6 0.25,-1.4 0.05,-0.05 V 14 q 0.2,-0.9 0.9,-0.8 0.55,0 1,1 l 0.3,0.65 1.6,-0.1 2,0.45 0.05,-0.1 0.45,-1 q 0.45,-0.55 0.9,-0.3 0.4,0.25 0.3,1.05 l -0.05,0.7 2.55,0.5 2,0.7 1.15,-1.25 q 0.35,-0.45 0.7,-0.55 0.7,-0.35 1.15,0.3 0.45,0.65 0.05,1.65 l -0.65,1.4 q 1.3,1.1 2.3,2.75 l 1.25,2.5 h 0.05 l 1.1,-0.5 q 0.8,-0.3 1.1,0.25 l 0.15,0.6 -0.3,0.55 -0.15,0.1 -0.1,0.15 -0.65,0.9 -0.4,0.35 -0.15,0.1 q 0.25,1.55 0.15,3.25 -0.25,5.4 -3.6,9.35 v 0.05 l 2.95,-0.05 1.7,-1.2 1.75,-1.9 L 45.45,35.5 45,34.65 44.65,34.2 44.55,33.65 Q 44.7,33.3 45.1,33.3 l 0.7,0.1 0.85,0.15 0.2,-0.45 q 0.55,-0.95 1.55,-1.8 0.9,-0.8 1.85,-1.2 V 29.65 L 50.4,29 v -0.6 q 0,-0.35 0.15,-0.55 l 0.7,-0.05 0.35,0.65 0.45,0.75 0.25,0.4 0.3,-0.05 q 2.65,-0.1 4.1,1.85 0.7,0.95 0.75,2.2 v 0.15 l 1.1,0.1 q 0.5,0.1 0.65,0.35 0.25,0.3 -0.1,0.65 l -0.55,0.15 -0.75,0.05 -0.55,0.1 -0.1,0.05 -0.35,0.55 -1.15,0.95 -1.45,0.05 q -0.8,-0.3 -1.05,-1.15 -0.25,-0.9 0.4,-1.55 l 0.15,-0.35 -0.25,-0.25 -1.7,0.1 q -0.45,0.2 -0.85,0.5 l -0.05,0.35 0.35,1.3 -0.05,0.5 -0.5,0.05 -0.4,-0.3 -0.45,-0.5 -0.45,0.7 -0.85,1.55 -2.15,2.5 -0.1,0.15 0.05,0.35 0.35,0.65 0.2,0.6 q 0,0.6 -0.6,0.75 l -1,-0.1 Q 44.8,42.4 44.4,42 l -0.1,-0.1 -2.1,0.7 -4.55,-0.25 -1.4,-0.5 -0.15,0.1 -2.15,1.75 -1.55,0.8 q -2.5,1.2 -4.25,1.5 l -2.45,0.2 q -2.95,0 -4.55,-1.1 -0.6,-0.45 -0.9,-1.05 -0.75,-0.3 -0.95,-0.85 -0.25,-0.75 0.5,-1.4 L 19.9,41.3 20.45,40 20.4,39.9 19.85,39 19.65,38.5 q -0.05,-0.3 0.2,-0.5 0.2,-0.25 0.5,-0.25 l 0.4,0.15 0.55,0.15 0.35,0.25 1.3,-1.2 q 1.4,-1.1 3.15,-1.6 v -0.2 l 0.1,-0.45 0.1,-0.55 0.4,-0.4 0.55,0.05 0.55,0.6 0.45,0.5 3.65,0.15 1.75,0.65 1.2,-1.35 q 1.25,-1.5 1.8,-3.15 l -0.1,-0.1 -0.4,-0.45 -0.7,-0.2 q -0.6,-0.25 -0.6,-0.8 0,-0.65 0.65,-0.75 h 0.05 L 36.2,28.9 36.95,28.7 Q 36.9,26.9 36,24.85 l -1.3,-2.5 q -0.05,2.9 -1.55,5.55 l -0.3,0.45 -0.55,0.75 0.4,0.75 0.6,1.4 v 0.35 q -0.1,0.35 -0.5,0.35 L 32.2,31.7 30.95,30.3 30.2,30.75 q -1.8,1 -3.7,0.9 -2,-0.1 -3.6,-1.4 l -0.25,-0.2 -2.1,0.75 -0.65,0.05 -0.3,0.1 -0.3,-0.25 -0.05,-0.4 0.35,-0.55 1.45,-1.4 q -0.75,-1.3 -0.75,-3.4 l -0.65,-0.3 -0.75,-0.3 q -0.4,-0.3 -0.3,-0.7 l 0.2,-0.4 1,-0.5 0.4,-0.25 0.4,-0.1 0.35,-0.85 H 21 q -3.1,1.05 -5,1.1 h -0.8 l -0.3,0.55 -0.35,1.25 q -0.25,0.85 -0.95,0.9 -0.4,0.05 -0.75,-0.25 -0.4,-0.3 -0.5,-0.75 L 12.25,22.6 12.2,21.85 Q 10.9,21.2 10.1,20.1 L 9.35,18.7 8.8,18.55 H 7.95 l -0.4,-0.4 Q 7.4,17.8 7.6,17.55 l 0.65,-0.4 0.7,-0.45 q -0.1,-1.55 0.3,-2.9 L 9.1,13.55 8.4,12.45 7.6,11.75 Q 7.3,11.35 7.4,10.8 7.5,10.2 7.95,10 L 9,9.85 l 2.3,0.6 q 1.6,-1.5 3.85,-1.6 m 35.1,32.15 -0.5,0.5 -0.45,0.3 q -0.75,0.2 -1.1,-0.5 -0.3,-0.6 0.15,-1.2 0.4,-0.45 1.5,-0.95 0.45,-0.35 0.6,-0.4 0.35,-0.15 0.65,0 l 0.35,0.4 -0.25,0.65 -0.5,0.5 -0.45,0.7 M 26.05,26.95 27,27.2 28.05,26.9 28.9,26.3 28.75,26.05 28.4,25.3 v -0.35 q 0.15,-0.15 0.4,-0.15 h 1.05 l 0.25,-0.85 v -1.6 l -0.8,-0.7 Q 28.7,21.2 27.95,21.4 l -0.35,0.3 q -2.1,2.4 -2.3,4.05 -0.1,0.45 0.05,0.7 l 0.7,0.5 M 12,35.9 q -0.55,0.3 -0.6,0.7 l 0.05,0.5 -0.25,0.85 -0.7,0.55 Q 9.6,38.75 8.85,38.1 L 8.3,37.25 7.7,37.3 6.75,37.2 Q 6.2,36.85 6.45,36.3 6.65,36 7.2,35.9 l 1.2,-0.4 1,-1.6 q 0.55,-0.65 1.05,-0.95 0.65,-0.5 1.3,-0.7 l 1.15,-0.2 h 0.35 l 0.35,-1.4 q 0.15,-0.6 0.55,-0.45 l 0.3,0.4 0.4,1.5 q 1.15,0.25 2.05,1.25 0.85,1 1.25,2.45 0.4,1.3 0.3,2.6 l -0.35,2.35 -0.55,1 -0.65,0.8 -1.4,0.1 q -0.7,-0.3 -0.8,-1.15 l 0.15,-1.1 0.25,-1.15 v -0.8 L 14.7,36.4 14.15,35.65 13.15,35.5 12,35.9 m 2.8,9.05 0.6,0.35 0.9,0.75 q 0.65,0.65 0.7,1.05 0.1,0.9 -0.75,1.15 -0.75,0.25 -1.35,-0.4 l -0.35,-0.65 -0.2,-0.7 v -0.55 l -0.15,-0.5 q -0.1,-0.3 0.1,-0.5 h 0.5 m 22,0.2 -0.3,0.6 -0.85,0.75 h -0.6 L 34.6,46.05 34.5,45.6 Q 34.4,44.9 35,44.5 l 1.05,-0.55 0.5,-0.15 q 0.3,-0.1 0.45,0.15 l 0.1,0.35 -0.15,0.3 -0.15,0.55"
         fill="#000000"
         fill-rule="evenodd"
         stroke="none"
         id="path5" />
    </g>
    <g
       id="shape2"
       transform="translate(1.5,1.5)">
      <path
         d="M 0,23.8 V 0 H 64.1 V 23.8 57.55 H 0 Z"
         fill="none"
         stroke="#000000"
         stroke-linecap="round"
         stroke-linejoin="round"
         stroke-width="3"
         id="path6" />
    </g>
  </defs>
</svg>
