<?xml version="1.0" encoding="UTF-8" standalone="no"?>
<svg
   ffdec:objectType="frame"
   height="60.549999"
   width="67.099998"
   version="1.1"
   id="svg6"
   sodipodi:docname="78.svg"
   xmlns:inkscape="http://www.inkscape.org/namespaces/inkscape"
   xmlns:sodipodi="http://sodipodi.sourceforge.net/DTD/sodipodi-0.dtd"
   xmlns:xlink="http://www.w3.org/1999/xlink"
   xmlns="http://www.w3.org/2000/svg"
   xmlns:svg="http://www.w3.org/2000/svg"
   xmlns:ffdec="https://www.free-decompiler.com/flash">
  <sodipodi:namedview
     id="namedview6"
     pagecolor="#ffffff"
     bordercolor="#000000"
     borderopacity="0.25"
     inkscape:showpageshadow="2"
     inkscape:pageopacity="0.0"
     inkscape:pagecheckerboard="0"
     inkscape:deskcolor="#d1d1d1"
     fit-margin-top="5"
     fit-margin-left="5"
     fit-margin-right="5"
     fit-margin-bottom="5" />
  <g
     transform="translate(1.5,1.5)"
     id="g3">
    <use
       ffdec:characterId="516"
       height="57.549999"
       width="64.099998"
       xlink:href="#shape0"
       id="use1" />
    <use
       ffdec:characterId="590"
       height="53.75"
       transform="translate(-0.15,4.5)"
       width="57.299999"
       xlink:href="#shape1"
       id="use2" />
    <use
       ffdec:characterId="518"
       height="60.549999"
       transform="translate(-1.5,-1.5)"
       width="67.099998"
       xlink:href="#shape2"
       id="use3" />
  </g>
  <defs
     id="defs6">
    <g
       id="shape0">
      <path
         d="M 53.6,0 H 64.1 V 57.55 H 53.6 28.25 0 V 0 H 28.25 53.6 V 57.55 0 M 28.25,0 V 57.55 0"
         fill="#ffffff"
         fill-rule="evenodd"
         stroke="none"
         id="path3" />
    </g>
    <g
       id="shape1"
       transform="translate(0.15,-4.5)">
      <path
         d="m 43.7,11.85 q 0.2,-0.3 0.45,-0.25 h 0.05 l 0.05,-0.05 q 0.5,0.2 0.65,0.45 0.15,0.35 -0.05,0.7 l -0.25,0.25 -0.2,0.1 H 44.15 L 43.7,12.85 43.55,12.6 43.5,12.1 43.7,11.85 m -3.75,5.4 0.05,-0.6 -0.8,-0.05 q -0.6,-0.2 -1,-0.85 -0.35,-0.6 -0.25,-1.25 l 0.2,-0.75 q 0.45,-1 1.7,-1 1.1,0.1 1.65,1.15 0.25,0.7 0.1,1.35 h 0.25 q 0.6,0.1 1.05,0.5 l 0.55,1 -0.25,1.1 q -0.3,0.6 -0.85,0.8 L 41.2,18.7 Q 40.6,18.5 40.25,18 l -0.3,-0.75 m 8.55,3.45 q 1,-0.3 1.8,0.55 0.7,0.8 0.3,1.9 -0.35,0.8 -1,1 l -1.1,0.05 q -0.6,-0.15 -0.95,-0.65 -0.75,-1.1 0,-2.2 0.45,-0.5 0.95,-0.65 m 5.55,-2.6 -0.1,0.2 -0.25,0.1 -0.6,-0.05 Q 52.7,18 52.85,17.5 L 53,17.3 q 0.25,-0.25 0.5,-0.15 V 17.1 q 0.25,0 0.4,0.15 l 0.15,0.25 0.1,0.3 -0.1,0.3 m 2.8,7.6 q 0.45,0.45 0.25,1.05 -0.2,0.65 -0.8,0.65 l -0.6,-0.1 -0.4,-0.25 q -0.45,-0.55 -0.2,-1.1 0.25,-0.65 0.95,-0.65 0.5,0 0.8,0.4 M 40.4,36.2 39.4,35.15 38.25,33.7 Q 37.9,33.15 37.7,32.2 l -0.1,-2.2 0.05,-0.95 0.2,-0.75 q -0.1,-1.55 0.2,-2.25 0.4,-0.95 1.45,-1.05 0.95,-0.15 1.65,0.6 l 0.3,0.2 0.25,-0.1 0.9,-0.35 0.95,0.1 q 0.55,0.4 0.45,1 l 0.15,0.55 0.2,0.25 v 0.45 l -0.4,0.8 q -0.65,1 -0.65,2 v 1.05 l -0.05,1.05 -0.1,0.45 0.15,0.6 v 1.45 l -0.05,0.6 q -0.3,0.65 -1.1,0.75 H 41.8 41.6 L 40.4,36.2 M 30.3,6 30,5.85 29.85,5.6 29.8,5.35 29.85,5 30,4.75 Q 30.2,4.5 30.65,4.5 L 31.1,4.65 31.3,5.3 31.05,5.85 30.3,6 m 2.65,3.8 V 9.6 L 32.7,9.65 Q 31.65,9.8 31.05,8.9 L 30.9,8.65 30.6,9.2 29.9,9.75 29.05,10 q -1,0 -1.4,-0.9 -0.4,-0.8 0.1,-1.65 0.55,-0.8 1.5,-0.8 0.9,0 1.4,0.75 l 0.15,0.25 0.1,-0.4 0.4,-0.7 Q 31.65,6.2 32.15,6.1 l 1.1,0.25 0.7,0.8 0.1,0.55 0.05,0.35 0.5,-0.1 q 1,0 1.5,0.65 0.45,0.5 0.35,1.25 -0.05,0.65 -0.6,1.05 -0.5,0.45 -1.15,0.45 -0.65,0 -1.15,-0.45 -0.5,-0.45 -0.6,-1.1 m -1.35,1.55 0.2,0.1 0.1,0.15 v 0.5 l -0.1,0.15 -0.2,0.1 L 31.3,12.3 31.05,12.1 31,11.8 v -0.2 l 0.15,-0.15 0.45,-0.1 M 37,10.3 q 0.35,-0.2 0.75,-0.25 L 37.4,9.7 q -0.25,-0.5 -0.1,-0.95 0.05,-0.4 0.55,-0.7 l 1.25,0.1 q 0.6,0.35 0.5,1.1 -0.15,0.85 -0.95,1 l 0.15,0.1 q 0.9,0.75 0.5,1.75 -0.45,1.05 -1.55,0.95 -1.2,-0.2 -1.35,-1.25 L 36.45,11.05 37,10.3 M 24.3,6.7 24.35,6.3 24.55,5.85 q 0.3,-0.4 0.8,-0.55 l 0.95,0.1 0.65,0.65 Q 27.15,6.55 27,7 L 26.45,7.75 25.55,8 Q 25.05,7.95 24.7,7.55 24.35,7.2 24.3,6.7 m 1.8,4.1 q 0,0.6 -0.6,0.95 l -1.1,-0.05 -0.6,-0.6 -0.3,-0.6 -1.1,0.1 -0.9,-0.25 -0.4,0.85 v 0.05 0.15 q 0,0.7 -0.45,0.9 l -0.05,0.05 0.4,1.15 -0.35,1.3 -0.85,1.05 -2.45,0.05 q 1.2,1.15 0.6,2.9 -0.5,1.6 -2.5,2.25 L 13.8,21.1 12.6,20.3 Q 12.2,19.85 12.1,19.25 H 12.05 L 11.6,19.2 q -0.5,-0.05 -0.85,-0.5 -0.35,-0.55 -0.2,-1 l 0.55,-0.65 0.85,-0.05 0.4,0.15 0.4,-0.6 q -0.65,-0.5 -0.5,-1.35 0.1,-0.95 1.05,-1.3 l 1.25,0.1 0.9,0.55 0.35,0.5 h 0.05 L 16,15.1 Q 15.4,14.5 15.2,13.7 15,12.9 15.35,12.05 15.7,11.3 16.4,10.9 16.2,10.25 16.5,9.6 16.7,9.05 17.25,8.65 l 1.1,-0.45 1.7,-0.15 0.3,0.1 0.05,-0.25 q 0.35,-1.1 1.5,-1.2 l 0.8,0.1 q 0.55,0.2 1.05,0.7 l 0.65,0.85 0.15,0.55 0.6,0.25 0.65,0.7 0.3,0.95 m 10.95,7.95 -0.35,-0.2 -0.15,-0.2 V 18 l 0.05,-0.35 0.2,-0.25 0.4,-0.15 h 0.05 l 0.05,-0.05 0.55,0.2 0.25,0.35 0.05,0.3 -0.15,0.4 -0.4,0.3 h -0.55 m -3.95,3.85 -0.35,0.15 -1.05,0.3 q -0.7,-0.1 -0.7,-0.7 0.05,-0.3 0.45,-0.6 l 0.7,-0.6 0.4,-0.4 0.85,-1 0.85,-0.15 Q 34.7,19.7 35,20 l 0.85,1.55 0.55,1.35 0.25,0.55 0.2,0.9 0.1,1.15 v 0.95 q -0.15,1.1 -1.3,1.35 -1.1,0.25 -1.7,-0.7 L 33.6,26.3 33.5,24.65 33.1,22.6 M 14.55,10.1 q -0.3,0.4 -0.9,0.4 -0.5,0 -0.85,-0.45 -0.45,-0.6 -0.1,-1.2 0.35,-0.7 1.05,-0.6 0.75,0 1,0.65 0.25,0.75 -0.2,1.2 m -8.8,8 q 0.65,0.1 0.75,0.7 l 0.05,0.4 v 0.35 L 6.4,19.85 Q 6.05,20.3 5.55,20 L 4.95,19.35 4.9,18.8 Q 5,18.15 5.65,18.15 L 5.75,18.1 M 3.1,23.4 Q 3.3,23.05 3.7,22.95 L 4.4,22.9 4.95,23.45 5,24.2 4.65,24.7 4.25,24.85 H 3.6 L 3.25,24.6 Q 2.75,24 3.1,23.4 M 9.2,20.8 Q 9.3,20 10,19.75 l 0.8,-0.1 q 0.8,0.15 1.2,0.8 l 0.2,0.5 h 0.5 q 0.9,0.1 1.5,0.5 0.7,0.55 0.95,1.45 0.2,0.95 -0.25,1.75 l -0.7,0.85 v 0.4 l -0.15,0.65 q 0.5,0.8 0.5,1.8 L 14.1,30.4 q -0.65,1.45 -1.95,1.8 l -0.15,0.05 -0.2,0.95 -0.65,2.3 0.75,0.9 0.65,1.45 V 39 l 0.2,0.95 q 0.5,1.7 -0.2,3.25 l -0.9,1.25 -2.05,1.9 0.1,0.1 0.7,0.5 q 1,0.9 1.5,2.15 l 0.25,0.85 0.2,0.75 -0.1,0.7 -0.85,2.15 -0.2,0.35 0.15,0.3 q 1.1,1.2 0.75,2.4 -0.35,1.1 -1.4,1.35 -1,0.3 -1.75,-0.4 -0.45,0.35 -1,0.5 L 6.35,58.25 4.7,58.1 2.35,57.95 Q 1.05,57.8 0.35,56.8 0,56.25 -0.1,54.9 -0.35,50 0.75,40.3 L 1.1,37.8 0.7,37.35 Q -0.05,36.2 0.35,34.85 0.7,33.7 1.9,32.75 3.05,31.8 4,31.6 L 4.3,31 q 0.4,-0.7 1,-1.1 L 4.9,28.95 q -0.35,-1.35 0.25,-2.3 0.7,-1.2 2.35,-1.3 l 0.65,0.05 q 0,-0.45 0.3,-0.9 Q 8.1,24.1 8.2,23.45 L 8.55,22.65 9.2,22.1 9.75,21.95 Q 9.2,21.55 9.2,20.8 m 8.2,2.55 V 23.3 q 0.25,0 0.45,0.3 l 0.05,0.5 -0.2,0.25 -0.4,0.1 -0.35,-0.2 -0.1,-0.2 v -0.2 q -0.1,-0.15 0.1,-0.35 0.15,-0.25 0.45,-0.15 M 16.55,36.3 Q 16,37.6 14.5,37.75 13.05,37.85 12.25,36.7 11.5,35.45 12.1,34.2 12.3,33.7 12.85,33.35 13.3,33.1 13.9,33 l 1.45,0.15 q 0.95,0.4 1.25,1.3 0.35,1 -0.05,1.85 m 2.9,1.7 H 19.2 L 18.6,37.6 Q 18.35,37.05 18.85,36.7 19,36.55 19.2,36.55 h 0.05 L 19.3,36.5 20,37 l 0.05,0.15 v 0.3 L 19.7,37.85 19.45,38 m -4.3,2.75 0.6,-0.15 0.4,0.05 q 0.45,0.15 0.55,0.65 0.1,0.55 -0.45,0.75 l -0.4,0.1 -0.55,-0.05 q -0.4,-0.25 -0.4,-0.7 v -0.3 l 0.25,-0.35 m 20.6,-4.05 0.8,-0.05 q 1.2,0.25 1.6,1.4 0.2,0.7 -0.1,1.35 l -0.9,1 -1.35,0.15 q -0.75,-0.15 -1.15,-0.7 -0.4,-0.55 -0.4,-1.3 0.05,-0.7 0.45,-1.25 0.45,-0.45 1.05,-0.6 m -5.9,-1.5 q 1.35,-0.15 1.95,1 0.25,0.55 0.15,1.15 l -0.5,1 -1.05,0.5 -1.15,-0.2 Q 28.05,38 28.3,36.7 q 0.1,-0.55 0.55,-1 0.45,-0.4 1,-0.5 M 32,42 l 0.1,0.1 0.05,0.1 v 0.2 l -0.05,0.35 -0.3,0.3 -0.25,0.1 -0.2,-0.05 -0.3,-0.15 -0.2,-0.25 q -0.2,-0.25 0,-0.55 l 0.2,-0.25 0.45,-0.15 V 41.7 L 32,42"
         fill="#999999"
         fill-rule="evenodd"
         stroke="none"
         id="path4" />
      <path
         d="m 46.95,34.45 0.6,-1.5 Q 48,32.3 48.9,32.3 q 0.9,0 1.3,0.65 0.5,0.7 0.3,1.65 l -0.35,1.45 0.45,0.1 q 0.95,0.2 1.05,1.05 l -0.05,0.75 0.25,0.85 -0.35,0.9 -0.65,0.55 q -0.35,0 -0.55,-0.4 l -0.4,-0.6 -1,-0.25 -1.05,0.15 -0.5,-0.05 -0.8,0.4 q -1.6,0.8 -3.3,1 l -0.3,0.95 -1.05,0.65 -2.8,0.5 q -0.7,0 -0.9,-0.4 -0.2,-0.4 0.05,-0.85 l 0.65,-0.6 0.7,-0.5 h -0.05 q -3.6,-0.85 -5.9,-3.85 l -1,-1.8 -0.15,-0.65 -0.15,-0.1 -0.65,-0.7 -0.55,-0.85 -1.95,-2.7 -1.2,1 q -0.7,0.5 -1.65,0.25 L 25.9,30.5 q -0.15,-0.25 0.05,-0.55 l 0.4,-0.5 q 1.05,-1.05 1.5,-2.4 0.5,-1.25 0.7,-1.45 0.5,-0.6 1.5,-0.5 l 0.75,0.25 q 0.35,0.2 0.95,1.5 l 0.75,1.2 0.25,-1.2 q 0.7,-2.25 2.45,-4 1.75,-1.75 4,-2.5 L 43.9,20 q 2.4,0.35 4.35,1.7 1.6,1.1 2.3,2.55 0.8,1.9 0,3.35 l -0.2,0.35 -0.55,1.1 h -0.7 l -0.35,-0.45 -0.1,-0.25 -0.15,0.25 -0.25,0.4 -0.2,0.4 -0.3,0.5 -0.95,0.1 -0.4,-0.55 -0.2,-0.7 -0.15,-0.4 -0.35,0.4 -0.3,0.5 -0.4,0.55 -0.9,0.15 -0.65,-0.55 -0.2,-0.8 -0.65,-1.25 q -1.05,-0.15 -1.95,0 l -0.95,0.4 -0.55,0.65 -0.7,1.45 -0.1,0.7 q -0.1,1.3 0.5,2.2 l 0.55,0.75 1.05,0.8 q 0.95,0.65 1.65,0.65 1.05,-0.05 1.95,-1.45 0.5,-0.8 0.9,-1 0.7,-0.25 1.25,0.3 0.7,0.55 0.6,1.75 l -0.05,0.25 0.2,-0.35 M 40.7,15 l 0.3,0.65 0.15,0.55 0.3,0.65 0.15,0.65 q 0,0.65 -0.55,0.95 l -1.1,-0.1 -0.45,-0.8 -0.05,-0.95 V 16.05 L 39.3,15.45 V 14.7 q 0.25,-0.5 0.85,-0.3 L 40.7,15 M 27.95,8.55 Q 27.8,8.1 28.15,7.75 l 0.65,-0.5 q 1.4,-0.6 3,-0.5 1.05,0 1.5,0.5 0.6,0.6 0.15,1.4 -0.4,0.7 -1.3,0.5 L 31,8.65 29.9,8.85 28.85,9.1 q -0.75,0 -0.9,-0.55 M 38.1,9.4 q 0.85,0.5 1.3,1.25 l 0.3,0.75 q 0.1,0.75 -0.6,1.1 -0.75,0.4 -1.25,-0.2 l -0.5,-0.8 -0.4,-0.85 -0.55,-0.5 Q 36,9.75 36.15,9.45 l 0.4,-0.4 H 37.2 L 38.1,9.4 M 24.7,9.9 q -0.15,0.45 -0.8,0.75 l -2.3,1.4 -0.95,0.35 q -0.6,0.1 -0.95,-0.35 -0.4,-0.5 -0.25,-1 0.15,-0.75 1.5,-1.35 l 1.2,-0.55 q 1,-0.5 1.6,-0.45 0.45,0.1 0.75,0.45 0.3,0.35 0.2,0.75 m -11.6,9.15 q -0.75,-0.4 -0.55,-1.3 0.05,-0.5 0.65,-1.3 l 2.05,-2 1,-0.5 q 0.7,-0.1 1,0.4 0.25,0.35 0.05,0.85 l -0.45,0.8 -1.6,2 -0.9,0.9 -1.25,0.15 m -3.35,4.6 0.75,-0.45 q 0.5,-0.15 0.8,0.3 L 11.15,24.35 9.3,28.55 8.7,29.25 8,29.3 7.4,28.85 Q 7.15,28.4 7.6,27.3 8.7,24.7 9.75,23.65 M 5.6,35.7 6.05,34.5 q 0.55,-0.65 1.1,-0.35 0.5,0.3 0.5,1.25 l -0.25,2 0.1,1.15 q -0.1,0.75 -0.55,1.15 -0.3,0.4 -0.8,0.4 -0.4,0 -0.7,-0.35 L 5.1,38.95 5.6,35.7 M 7.05,47.9 7,48.9 Q 6.9,50 6.05,50.15 5.5,50.25 5.1,49.85 4.75,49.6 4.55,49 4.1,47.55 4.9,45.6 5,45.15 5.25,44.9 5.5,44.6 5.95,44.6 6.5,44.75 6.7,45.5 L 7,46.55 7.05,47.9"
         fill="#000000"
         fill-rule="evenodd"
         stroke="none"
         id="path5" />
    </g>
    <g
       id="shape2"
       transform="translate(1.5,1.5)">
      <path
         d="M 0,23.8 V 0 H 64.1 V 23.8 57.55 H 0 Z"
         fill="none"
         stroke="#000000"
         stroke-linecap="round"
         stroke-linejoin="round"
         stroke-width="3"
         id="path6" />
    </g>
  </defs>
</svg>
