<?xml version="1.0" encoding="UTF-8" standalone="no"?>
<svg
   ffdec:objectType="frame"
   height="60.549999"
   width="67.45385"
   version="1.1"
   id="svg7"
   sodipodi:docname="126.svg"
   xmlns:inkscape="http://www.inkscape.org/namespaces/inkscape"
   xmlns:sodipodi="http://sodipodi.sourceforge.net/DTD/sodipodi-0.dtd"
   xmlns:xlink="http://www.w3.org/1999/xlink"
   xmlns="http://www.w3.org/2000/svg"
   xmlns:svg="http://www.w3.org/2000/svg"
   xmlns:ffdec="https://www.free-decompiler.com/flash">
  <sodipodi:namedview
     id="namedview7"
     pagecolor="#ffffff"
     bordercolor="#000000"
     borderopacity="0.25"
     inkscape:showpageshadow="2"
     inkscape:pageopacity="0.0"
     inkscape:pagecheckerboard="0"
     inkscape:deskcolor="#d1d1d1"
     fit-margin-top="5"
     fit-margin-left="5"
     fit-margin-right="5"
     fit-margin-bottom="5" />
  <g
     transform="translate(1.8538462,1.5)"
     id="g3">
    <use
       ffdec:characterId="516"
       height="57.549999"
       width="64.099998"
       xlink:href="#shape0"
       id="use1" />
    <use
       ffdec:characterId="636"
       height="59.099998"
       transform="translate(-1.85,-0.7)"
       width="66"
       xlink:href="#shape1"
       id="use2" />
    <use
       ffdec:characterId="518"
       height="60.549999"
       transform="translate(-1.5,-1.5)"
       width="67.099998"
       xlink:href="#shape2"
       id="use3" />
  </g>
  <defs
     id="defs7">
    <g
       id="shape0">
      <path
         d="M 53.6,0 H 64.1 V 57.55 H 53.6 28.25 0 V 0 H 28.25 53.6 V 57.55 0 M 28.25,0 V 57.55 0"
         fill="#ffffff"
         fill-rule="evenodd"
         stroke="none"
         id="path3" />
    </g>
    <g
       id="shape1"
       transform="translate(1.85,0.7)">
      <path
         d="m 0.1,35.55 v -0.1 -0.1 -0.1 -0.1 -0.1 -0.1 -0.1 -0.1 -0.1 -0.1 -0.1 -0.1 -0.1 -0.1 V 34 33.9 33.8 33.7 33.6 33.5 33.4 33.3 33.2 33.1 33 v -0.1 -0.1 -0.1 -0.1 -0.1 -0.15 -0.1 -0.1 -0.1 -0.1 -0.1 -0.1 -0.1 -0.1 -0.1 -0.1 -0.1 -0.1 -0.1 -0.1 -0.15 -0.1 -0.1 -0.1 -0.1 l 0.05,-0.1 v -0.1 -0.1 -0.1 -0.1 -0.1 -0.1 -0.1 -0.1 -0.1 -0.15 -0.1 -0.1 -0.1 -0.1 -0.1 -0.1 -0.1 -0.1 -0.1 -0.1 -0.1 -0.1 -0.1 -0.1 -0.1 -0.15 -0.1 -0.1 -0.1 -0.1 -0.1 -0.1 -0.1 -0.1 -0.1 -0.1 -0.1 -0.1 -0.1 -0.1 -0.15 -0.1 -0.1 -0.1 -0.1 -0.1 -0.1 -0.1 -0.1 -0.1 -0.1 -0.1 -0.1 -0.1 -0.1 -0.1 V 24.4 24.3 24.2 24.1 24 23.9 23.8 23.7 23.6 23.5 23.4 23.3 23.2 23.1 23 v -0.15 -0.1 -0.1 -0.1 -0.1 -0.1 -0.1 -0.1 -0.1 -0.1 -0.1 -0.1 -0.1 -0.1 -0.1 V 21.3 21.2 21.1 21 20.9 20.8 20.7 20.6 20.5 20.4 20.3 20.2 20.1 20 v -0.1 -0.1 -0.15 -0.1 -0.1 -0.1 -0.1 -0.1 -0.1 -0.1 -0.1 -0.1 -0.1 -0.1 -0.1 -0.1 -0.1 V 18.1 18 17.9 17.8 17.7 17.6 17.5 17.4 17.3 17.2 17.1 17 16.9 16.8 16.7 L 0.2,16.6 v -0.15 -0.1 -0.1 -0.1 -0.1 -0.1 -0.1 -0.1 -0.1 -0.1 -0.1 -0.1 -0.1 -0.1 -0.1 -0.15 -0.1 -0.1 -0.1 -0.1 -0.1 -0.1 -0.1 -0.1 -0.1 -0.1 -0.1 -0.1 -0.1 -0.1 -0.15 -0.1 -0.1 -0.1 -0.1 -0.1 -0.1 -0.1 -0.1 -0.1 -0.1 -0.1 -0.1 -0.1 l 0.05,-0.1 V 11.85 11.7 11.6 11.5 11.4 11.3 11.2 11.1 11 10.9 10.8 10.7 10.6 10.5 10.4 10.3 10.15 10.05 9.95 9.85 L 0.3,9.75 V 9.65 9.55 9.45 9.35 9.25 9.15 9.05 8.95 8.85 8.75 8.65 8.5 8.4 8.3 8.2 8.1 8 7.9 7.8 7.7 7.6 7.5 7.4 7.3 7.2 7.1 6.95 6.85 6.75 6.65 6.55 6.45 6.35 6.25 6.15 6.05 5.95 5.85 5.75 5.65 5.55 5.4 5.3 5.2 5.1 5 4.9 4.8 4.7 4.6 4.5 4.4 4.3 L 0.35,4.2 V 4.1 4 3.9 3.75 L 0.4,3.65 V 3.55 3.45 3.35 3.25 3.15 3.05 L 0.45,2.95 V 2.85 2.75 L 0.5,2.65 V 2.55 2.45 2.35 2.2 L 0.55,2.1 V 2 1.9 L 0.6,1.8 V 1.7 1.6 L 0.65,1.5 V 1.4 1.3 L 0.7,1.2 V 1.1 L 0.8,1 0.85,0.9 0.95,0.8 1.05,0.7 1.15,0.55 1.3,0.45 1.5,0.4 H 1.75 V 0.35 L 1.8,0.4 1.9,0.45 2.05,0.35 H 2.35 2.9 5.25 6 V 0.3 h 9.25 l 3.7,0.05 h 3.35 l 0.9,0.05 1.05,0.05 h 1.15 l 0.85,0.05 1.2,0.05 h 0.95 l 0.25,0.05 h 0.15 0.15 0.25 l 0.1,-0.05 h 0.3 0.15 0.45 0.25 l 0.2,0.05 0.25,0.1 H 31 l 0.3,-0.8 q 0.45,-0.6 1.1,-0.6 0.75,0 1.05,0.65 l 0.15,0.7 q 0.25,0.2 0.1,0.6 L 33.55,1.7 33.4,2.35 32.75,4.35 32.5,4.9 30.7,4.85 26.3,4.75 25.6,4.6 q -0.9,0 -1.05,0.75 -0.15,0.6 0.25,1.25 l 0.85,1.05 1.25,1.9 1.05,1.5 0.05,0.05 0.05,0.15 -3.3,2.65 -2.15,1.6 -1.4,0.85 q -0.65,0.35 -0.85,0.6 -0.2,0.3 -0.15,0.7 0.05,0.4 0.35,0.6 l 0.95,0.35 5.75,0.75 -0.65,0.85 -1.75,1.95 -3.65,4.65 -5.95,6.7 -8.05,8.9 -4.45,4.75 -1.25,1 q -0.85,0.5 -1.5,0 -0.9,-0.5 -0.5,-1.8 l 0.05,-0.15 h 0.4 q 0.7,-0.15 1.7,-1.25 l 4.6,-4.85 4.65,-4.8 5.05,-5.95 4.8,-5.85 0.05,-0.45 -0.4,0.1 L 0.1,42 v -0.05 -0.1 -0.1 -0.1 -0.1 -0.1 -0.1 -0.1 -0.1 -0.1 -0.1 -0.1 -0.1 -0.1 -0.1 -0.1 V 40.3 40.2 40.1 40 39.9 39.8 39.7 39.6 39.5 39.4 39.3 39.2 39.1 39 v -0.1 -0.15 -0.1 -0.1 -0.1 -0.1 -0.1 -0.1 -0.1 L 1.4,38 l 0.8,-0.75 2.05,-2 1.1,-1.1 1.1,-1.3 1.8,-1.8 3.25,-2.6 0.35,-0.35 q 0.1,-0.35 -0.15,-0.35 h -0.25 l -3.15,1.85 -3.1,2 -1.4,0.8 -1,0.75 -2.7,2.4 m 33.6,-12.4 q -0.15,-1.35 0.55,-2.95 0.7,-1.9 2.1,-3.7 l 1.3,-1.6 0.3,-2.5 q 0,-0.45 0.15,-0.9 l 0.45,-0.9 q 0.65,-0.95 1.6,-1.4 l 2.1,-0.05 0.7,0.5 2.9,-0.6 2.9,-0.35 3.1,-0.05 1.9,0.1 q 1.55,0.4 2.15,2 0.5,1.6 -0.5,2.9 l -0.6,0.75 -0.25,1.1 q -0.25,3.5 -1.5,5.85 -1.7,3.1 -4.6,3.75 l -2.15,0.3 -1.85,0.75 -1.85,0.55 -1.25,0.1 -1.55,0.6 -1.45,0.05 -0.2,0.4 q -0.55,1 -1.65,0.9 -1.15,-0.1 -1.6,-1.1 l -0.2,-1.2 0.1,-1.2 q -0.95,-0.7 -1.1,-2.1 m 23.95,7.15 q 0.55,0.1 1.35,0.5 l 2.6,1.3 q 1.45,0.75 1.8,1.4 l 0.3,0.8 0.05,0.05 v 0.1 l 0.05,0.1 0.05,0.1 v 0.1 l 0.05,0.1 0.05,0.1 0.05,0.1 v 0.1 l 0.05,0.1 v 0.1 0.1 l 0.05,0.1 v 0.15 0.1 0.1 0.1 0.1 0.1 0.1 0.1 0.1 0.1 0.1 0.1 0.1 0.1 0.1 0.1 0.15 0.1 0.1 0.1 0.1 0.1 0.1 0.1 0.1 0.1 0.1 0.1 0.1 0.1 0.1 0.15 0.1 0.1 0.1 0.1 0.1 0.1 0.1 0.1 0.1 0.1 L 64.05,40 v 0.1 0.1 0.1 0.15 0.1 0.1 0.1 0.1 0.1 0.1 0.1 0.1 0.1 0.1 0.1 0.1 0.1 0.1 l 0.05,0.1 v 0.15 0.1 0.1 0.1 0.1 0.1 0.1 0.1 0.1 0.1 0.1 0.1 0.1 0.1 0.1 0.15 0.1 0.1 0.1 0.1 0.1 0.1 0.1 0.1 0.1 0.1 0.1 0.1 0.1 0.1 0.1 0.15 0.1 0.1 0.1 0.1 0.1 0.1 0.1 0.1 0.1 0.1 0.1 0.1 0.1 0.1 0.15 0.1 0.1 0.1 0.1 0.1 0.1 0.1 0.1 0.1 0.1 0.1 0.1 0.1 0.1 0.15 0.1 0.1 0.1 0.1 0.1 0.1 0.1 0.1 0.1 0.1 0.1 0.1 0.1 0.1 0.1 0.15 0.1 0.1 0.1 0.1 0.1 0.1 0.1 0.1 0.1 0.1 0.1 0.1 0.1 0.1 0.15 0.1 0.1 l 0.05,0.1 v 0.1 0.1 0.1 0.1 0.1 0.1 0.1 0.1 0.1 0.1 0.1 0.1 0.15 0.1 0.1 0.1 0.1 0.1 0.1 0.1 0.1 0.1 0.1 0.1 0.1 0.1 0.1 0.15 0.1 L 64.1,55 v 0.1 0.1 0.1 0.1 0.1 0.1 L 64.05,55.7 64,55.8 v 0.15 0.1 0.1 l -0.05,0.1 -0.05,0.1 v 0.1 l -0.05,0.1 -0.1,0.1 -0.05,0.1 -0.05,0.15 -0.1,0.1 -0.1,0.1 -0.15,0.1 -0.2,0.1 -0.15,0.05 -0.15,0.05 -0.3,0.05 H 56.7 L 50.65,57.4 49.05,57.35 48.3,57.3 H 45.7 L 43.6,57.25 39.45,57.2 H 38.6 37.8 L 37.9,57 43.7,48.5 44,48 43.85,47.55 43.4,47.4 42.65,48 42,48.5 l -4.05,4.05 -1.6,1.7 -0.75,0.8 -0.6,0.65 -0.5,0.7 q -0.1,0.4 -0.05,0.75 h -0.6 L 32.7,57.1 h -1 l 8.1,-9.4 2,-2.45 3.85,-5 q 0.55,-0.8 0.05,-1.1 -0.3,-0.1 -0.75,0.25 -1.3,0.95 -4.3,4.2 l -5.6,5.65 -5.75,5.5 q -1.3,1.2 -1.25,2.1 l 0.15,0.6 -1,0.65 L 25.55,58 Q 25.1,57.7 25,57.05 q -0.1,-0.6 0.2,-1.15 0.3,-0.7 1.55,-1.75 4.65,-3.75 9.65,-8.9 l 8.85,-9.75 q 2.2,-2.55 3.75,-3.85 l 0.8,-0.5 0.05,-0.1 0.25,0.55 1.65,3.4 0.7,1.1 q 0.5,0.5 1.15,0.35 h 0.1 0.05 V 36.4 l 0.45,-0.45 0.05,-0.1 1.2,-1.7 1.15,-2.05 1.05,-1.8"
         fill="#999999"
         fill-rule="evenodd"
         stroke="none"
         id="path4" />
      <path
         d="m 32.5,4.9 0.85,0.15 q 0.4,0.1 0.65,0.3 l 0.3,0.6 -0.4,0.55 -0.65,0.2 -2.65,0.2 h -2.65 l 0.75,1.3 0.55,0.65 0.35,0.7 0.45,0.55 0.25,0.45 0.2,0.5 0.1,0.2 0.45,0.8 q 0.15,0.65 -0.45,1.1 l -1.2,0.05 -0.5,-0.35 -0.05,0.05 0.3,0.3 v 0.5 l -0.4,0.45 q -1.7,1.3 -3.6,1.6 l -0.9,0.75 2.25,0.2 2.2,0.3 q 0.55,0.2 0.8,0.5 l 0.2,0.7 -0.25,0.65 q -0.25,0.4 -0.9,0.5 H 27.5 27.25 L 21.5,18.6 20.55,18.25 q -0.3,-0.2 -0.35,-0.6 -0.05,-0.4 0.15,-0.7 0.2,-0.25 0.85,-0.6 l 1.4,-0.85 2.15,-1.6 3.3,-2.65 L 28,11.1 27.95,11.05 26.9,9.55 25.65,7.65 24.8,6.6 Q 24.4,5.95 24.55,5.35 24.7,4.6 25.6,4.6 l 0.7,0.15 4.4,0.1 1.8,0.05 M -0.45,46.2 -1.3,45.8 Q -1.9,45.3 -1.85,44.6 -1.8,43.75 -0.6,42.65 L 0.1,42 20.4,23.15 l 0.4,-0.1 -0.05,0.45 -4.8,5.85 -5.05,5.95 -4.65,4.8 -4.6,4.85 q -1,1.1 -1.7,1.25 h -0.4 m 0.55,-8.15 -0.15,-0.1 q -0.7,-0.5 -0.55,-1.35 l 0.55,-0.9 0.15,-0.15 2.7,-2.4 1,-0.75 1.4,-0.8 3.1,-2 3.15,-1.85 h 0.25 q 0.25,0 0.15,0.35 l -0.35,0.35 -3.25,2.6 -1.8,1.8 -1.1,1.3 -1.1,1.1 -2.05,2 L 1.4,38 0.1,38.05 m 49.75,-7 -0.15,-1 q 0.05,-0.4 0.4,-0.7 l 0.7,-0.2 0.7,0.7 2.3,3.85 q 0.85,-2.1 2.2,-4.05 l 0.7,-0.7 0.9,0.05 q 0.35,0.35 0.15,1 l -0.1,0.3 -1.05,1.8 -1.15,2.05 -1.2,1.7 -0.05,0.1 -0.45,0.45 -0.05,0.05 H 53.6 Q 52.95,36.6 52.45,36.1 L 51.75,35 50.1,31.6 49.85,31.05 M 37.8,57.2 36.35,58.35 Q 35.4,58.6 34.85,57.95 34.5,57.6 34.45,57.15 34.4,56.8 34.5,56.4 l 0.5,-0.7 0.6,-0.65 0.75,-0.8 1.6,-1.7 L 42,48.5 42.65,48 43.4,47.4 43.85,47.55 44,48 43.7,48.5 37.9,57 37.8,57.2 m -6.1,-0.1 -0.35,0.35 -1.35,0.9 q -0.65,0.2 -1.3,-0.3 l -0.5,-0.6 -0.15,-0.6 Q 28,55.95 29.3,54.75 l 5.75,-5.5 5.6,-5.65 q 3,-3.25 4.3,-4.2 0.45,-0.35 0.75,-0.25 0.5,0.3 -0.05,1.1 l -3.85,5 -2,2.45 -8.1,9.4"
         fill="#ffffff"
         fill-rule="evenodd"
         stroke="none"
         id="path5" />
      <path
         d="m 57.7,8.45 v 6.25 q -0.05,3.6 -0.5,6.15 -0.3,1.65 -1.15,2.35 l -1.1,0.45 q -0.8,0.25 -1.15,0.45 -0.5,0.35 -1,1.35 l -0.9,1.45 q -0.75,0.75 -2.2,1.2 l -6.55,1.35 -6.55,1.15 -1.65,0.3 Q 33.9,30.8 33.45,30.2 33.1,29.75 33.1,28.75 L 32.5,20.6 q -0.1,-2.1 0.65,-2.8 l 1.6,-0.8 0.65,-0.45 0.35,-1.05 0.95,-4.9 q 0.35,-1.35 0.65,-1.7 0.5,-0.6 1.5,-0.85 l 1.8,-0.25 3.7,-0.6 3.7,-0.95 7.55,-0.45 q 1.4,0.3 1.85,1.1 l 0.25,1.55 m -4,11.7 0.25,-0.6 Q 54.7,14.2 54.2,9 l -7.7,0.75 -2,0.4 -1.4,0.35 0.75,5 0.2,0.4 0.45,0.15 q 0.75,0.1 1.85,0.75 l 1.75,0.95 1.15,0.4 1.35,0.7 2.6,1.65 0.5,-0.35 M 41.2,10.3 q -1,-0.2 -1.55,0.35 l -1,6.05 -0.1,1 0.2,-0.05 3.55,-0.7 v -0.2 q 0,-0.4 0.25,-0.6 Q 42.4,15.8 42.4,15.25 V 14.3 L 42.1,12.7 Q 42,12.1 42.25,10.5 L 41.2,10.3 m -1.4,16.25 8.1,-1.6 1.4,-0.65 0.7,-0.8 0.55,-0.95 0.7,-0.8 -2.25,-1.3 -2.45,-1.1 -1.25,-0.7 Q 44.6,18.2 44,18.05 L 43.5,17.95 41,18.7 q -1.65,0.35 -2.45,0.75 L 37.7,19.8 q -0.55,0 -0.85,-0.4 l -0.25,0.05 q -0.65,0.2 -0.85,0.6 l -0.1,0.85 0.5,6.25 3.65,-0.6 m 5.6,4.5 -0.25,0.4 -9.65,9.3 L 23.95,52.2 Q 22.8,53.35 22,53.4 21.05,53.5 20.45,52.7 19.9,51.9 20.2,51 q 0.3,-0.7 1.25,-1.6 l 9.1,-8.05 Q 36.8,35.9 44.4,30.95 l 0.55,-0.2 q 0.35,-0.1 0.45,0.3 m -38,17.1 Q 6.85,47.4 7.3,46.3 7.6,45.6 8.45,44.75 L 20.8,31.6 25.2,26.65 29.9,22 l 0.45,-0.05 -0.1,0.3 -7,10.05 -5.9,7 q -3.8,4.3 -5.7,7.1 -1.05,1.6 -1.8,2 -0.6,0.35 -1.3,0.3 Q 7.8,48.65 7.4,48.15 M 31.75,34 q -0.6,0.45 -1.25,1.45 l -4.55,5.9 q -6.6,7.8 -13.7,15.05 l -1.55,1.2 -1,0.2 -0.9,-0.4 Q 8.05,56.65 8.5,55.5 L 9.7,53.85 Q 23.8,39.35 31,33.15 l 0.7,-0.45 q 0.55,-0.1 0.65,0.3 0.15,0.4 -0.6,1"
         fill="#000000"
         fill-rule="evenodd"
         stroke="none"
         id="path6" />
    </g>
    <g
       id="shape2"
       transform="translate(1.5,1.5)">
      <path
         d="M 0,23.8 V 0 H 64.1 V 23.8 57.55 H 0 Z"
         fill="none"
         stroke="#000000"
         stroke-linecap="round"
         stroke-linejoin="round"
         stroke-width="3"
         id="path7" />
    </g>
  </defs>
</svg>
