<?xml version="1.0" encoding="UTF-8" standalone="no"?>
<svg
   ffdec:objectType="frame"
   height="60.549999"
   width="67.099998"
   version="1.1"
   id="svg7"
   sodipodi:docname="227.svg"
   xmlns:inkscape="http://www.inkscape.org/namespaces/inkscape"
   xmlns:sodipodi="http://sodipodi.sourceforge.net/DTD/sodipodi-0.dtd"
   xmlns:xlink="http://www.w3.org/1999/xlink"
   xmlns="http://www.w3.org/2000/svg"
   xmlns:svg="http://www.w3.org/2000/svg"
   xmlns:ffdec="https://www.free-decompiler.com/flash">
  <sodipodi:namedview
     id="namedview7"
     pagecolor="#ffffff"
     bordercolor="#000000"
     borderopacity="0.25"
     inkscape:showpageshadow="2"
     inkscape:pageopacity="0.0"
     inkscape:pagecheckerboard="0"
     inkscape:deskcolor="#d1d1d1"
     fit-margin-top="5"
     fit-margin-left="5"
     fit-margin-right="5"
     fit-margin-bottom="5" />
  <g
     transform="translate(1.5,1.5)"
     id="g3">
    <use
       ffdec:characterId="516"
       height="57.549999"
       width="64.099998"
       xlink:href="#shape0"
       id="use1" />
    <use
       ffdec:characterId="732"
       height="54.549999"
       transform="translate(0.95,2.65)"
       width="61.950001"
       xlink:href="#shape1"
       id="use2" />
    <use
       ffdec:characterId="518"
       height="60.549999"
       transform="translate(-1.5,-1.5)"
       width="67.099998"
       xlink:href="#shape2"
       id="use3" />
  </g>
  <defs
     id="defs7">
    <g
       id="shape0">
      <path
         d="M 53.6,0 H 64.1 V 57.55 H 53.6 28.25 0 V 0 H 28.25 53.6 V 57.55 0 M 28.25,0 V 57.55 0"
         fill="#ffffff"
         fill-rule="evenodd"
         stroke="none"
         id="path3" />
    </g>
    <g
       id="shape1"
       transform="translate(-0.95,-2.65)">
      <path
         d="M 0.95,3.9 V 2.65 h 3.3 31.3 23.8 3.55 V 3.9 H 59.35 4.25 0.95 M 62.9,18 H 61.85 61.2 L 60.6,17.85 59.4,18 h -0.05 -0.3 L 53.2,18.05 47.65,18.1 H 43.4 l -3,0.05 -4.5,0.05 h -2.05 l -2.95,0.05 -1.65,0.05 h -1.1 -3.65 -0.45 -0.6 -0.45 -0.35 -0.5 -1.4 -0.2 -0.85 -1.55 -0.6 -2.25 l -0.3,0.1 -0.15,0.1 -0.05,0.1 -0.1,0.1 v 0.1 l -0.05,0.1 v 0.1 0.1 l 0.05,0.1 v 0.1 l 0.1,0.1 0.05,0.1 0.15,0.15 0.3,0.05 h 2.25 0.6 1.55 0.85 0.2 1.4 0.5 0.35 0.45 0.6 0.45 3.65 l 1.1,0.05 h 1.65 l 2.95,0.05 2.05,0.05 h 4.5 l 3,0.05 4.25,0.05 H 53.2 L 58,20 q -0.05,0.6 0.3,1.25 0.7,1.25 2.05,1.15 1.4,0 2,-1.25 l 0.25,-1.1 h 0.3 v 20.8 H 59.35 30.1 L 16.5,40.8 4.25,40.75 h -3.3 v -0.9 l 2.4,-0.05 h 0.9 L 9.2,39.75 h 5.55 L 19,39.7 22,39.65 h 4.5 l 2.05,-0.05 2.95,-0.05 h 1.65 l 1.1,-0.05 h 3.65 0.45 0.6 0.45 0.35 0.5 1.4 0.2 0.85 1.55 0.6 2.25 l 0.3,-0.05 0.15,-0.15 0.05,-0.1 0.1,-0.1 V 39 l 0.05,-0.1 V 38.8 38.7 L 47.7,38.6 V 38.5 L 47.6,38.4 47.55,38.3 47.4,38.2 47.1,38.1 h -2.25 -0.6 -1.55 -0.85 -0.2 -1.4 -0.5 -0.35 -0.45 -0.6 -0.45 -3.65 -1.1 L 31.5,38.05 28.55,38 H 26.5 L 22,37.95 19,37.9 H 14.75 L 9.2,37.85 H 8.55 L 8.6,37.3 8.35,36.4 7.4,35.55 6.15,35.45 Q 5.5,35.65 5.1,36.2 4.7,36.75 4.75,37.4 l 0.1,0.45 H 4.25 L 3.35,37.8 H 0.95 V 16.75 h 3.3 L 16.5,16.7 30.1,16.65 H 59.35 62.9 V 18 m 0,24.55 v 1.4 H 59.35 4.25 0.95 V 42.7 h 3.3 L 16.5,42.65 30.1,42.6 59.35,42.55 H 62.9 M 0.95,14.8 v -1.25 h 3.3 55.1 3.55 v 1.4 H 59.35 L 30.1,14.9 16.5,14.85 4.25,14.8 H 0.95 M 59.9,36.25 h -0.35 l -0.35,0.2 q -0.25,0.2 -0.35,0.65 l 0.15,0.35 0.05,0.15 0.55,0.35 q 0.45,0.05 0.8,-0.3 L 60.55,36.8 60.5,36.7 q -0.2,-0.35 -0.6,-0.45 m -11.1,-6.1 q 0.25,1.35 1.65,1.8 1.45,0.35 2.35,-0.8 0.8,-0.95 0.3,-2.25 -0.5,-1.25 -1.8,-1.4 -1.35,-0.15 -2.1,0.95 -0.55,0.75 -0.4,1.7 M 60.6,29.5 60.8,29.4 61.05,28.95 61,28.75 60.9,28.5 60.6,28.4 h -0.25 l -0.15,0.1 -0.1,0.15 -0.1,0.3 0.05,0.2 0.2,0.2 0.35,0.15 M 0.95,53.75 h 3.3 55.1 3.55 V 55 H 59.35 35.55 4.25 0.95 V 53.75 M 32.65,29.45 31.7,30 31.15,29.45 30.75,29.2 30.4,29.3 30.15,29.65 q -0.05,0.4 0.2,0.85 l 0.3,0.35 -0.3,0.25 -0.7,0.75 q -0.3,0.6 -0.05,0.95 l 0.7,0.45 0.8,-0.25 0.25,-0.2 0.35,0.4 1,-0.05 q 0.6,-0.4 0.4,-1.3 l -0.4,-0.65 0.7,-0.8 0.25,-0.5 -0.15,-0.5 -0.85,0.05 M 9.25,32.4 8.95,32.3 v 0.05 q -0.3,-0.1 -0.4,0.15 L 8.5,32.65 v 0.05 l -0.05,0.1 0.1,0.25 q 0.1,0.2 0.4,0.2 L 9.3,33.1 9.4,32.75 9.35,32.6 9.25,32.4 m 8.6,0.15 q 0,-0.5 -0.5,-1 l 0.85,-0.7 q 0.65,-0.65 0.3,-1.15 -0.2,-0.3 -0.7,-0.2 l -0.7,0.3 -0.75,0.55 -0.8,-0.65 -0.7,-0.2 -0.5,0.45 q -0.1,0.2 0.15,0.7 l 0.45,0.7 -0.9,0.7 -0.75,0.9 q -0.1,0.45 0.25,0.8 0.35,0.4 0.75,0.35 l 0.75,-0.45 0.6,-0.7 0.2,-0.25 q 0.65,0.75 1.15,0.7 l 0.6,-0.25 0.25,-0.6 M 11.5,18.4 l -0.35,0.25 -0.1,0.35 0.1,0.45 0.3,0.2 0.35,0.05 0.45,-0.3 0.1,-0.4 -0.15,-0.4 q -0.25,-0.4 -0.7,-0.2 m -3.9,2.75 v -0.4 L 8.25,20.55 8.6,20.15 8.3,19.75 7.8,19.65 7.55,19.7 7.5,19.15 7.2,18.55 Q 6.8,18.35 6.6,18.75 6.45,18.9 6.45,19.4 v 0.25 H 6.35 L 5.45,19.6 q -0.65,0.2 -0.65,0.8 0,0.7 0.65,0.85 L 6.2,21.2 6.35,21.15 6.4,21.75 Q 6.6,22.2 7,22.2 l 0.5,-0.4 0.1,-0.65 m 15.1,2.95 q 0.45,-0.9 0.05,-2 -0.4,-1.15 -1.55,-1.55 l -1.75,0.2 q -0.85,0.45 -1.2,1.3 -0.5,1.3 0.3,2.35 0.8,1.15 2.15,1.05 1.3,-0.1 2,-1.35"
         fill="#999999"
         fill-rule="evenodd"
         stroke="none"
         id="path4" />
      <path
         d="m 62.9,3.9 v 6.55 H 59.35 35.55 4.25 0.95 V 3.9 h 3.3 55.1 3.55 m 0,14.1 v 2.05 h -0.3 l -0.25,1.1 q -0.6,1.25 -2,1.25 Q 59,22.5 58.3,21.25 57.95,20.6 58,20 L 53.2,19.95 H 47.65 L 43.4,19.9 40.4,19.85 H 35.9 L 33.85,19.8 30.9,19.75 H 29.25 L 28.15,19.7 H 24.5 24.05 23.45 23 22.65 22.15 20.75 20.55 19.7 18.15 17.55 15.3 L 15,19.65 14.85,19.5 14.8,19.4 14.7,19.3 V 19.2 L 14.65,19.1 V 19 18.9 l 0.05,-0.1 v -0.1 l 0.1,-0.1 0.05,-0.1 0.15,-0.1 0.3,-0.1 h 2.25 0.6 1.55 0.85 0.2 1.4 0.5 0.35 0.45 0.6 0.45 3.65 1.1 l 1.65,-0.05 2.95,-0.05 h 2.05 l 4.5,-0.05 3,-0.05 h 4.25 L 53.2,18.05 59.05,18 h 0.3 0.05 l 1.2,-0.15 0.6,0.15 h 0.65 1.05 m 0,22.85 v 1.7 H 59.35 L 30.1,42.6 16.5,42.65 4.25,42.7 h -3.3 v -1.95 h 3.3 l 12.25,0.05 13.6,0.05 h 29.25 3.55 m 0,3.1 V 45.8 H 59.35 4.25 0.95 v -1.85 h 3.3 55.1 3.55 M 0.95,39.85 V 37.8 h 2.4 l 0.9,0.05 h 0.6 L 4.75,37.4 Q 4.7,36.75 5.1,36.2 5.5,35.65 6.15,35.45 l 1.25,0.1 0.95,0.85 0.25,0.9 -0.05,0.55 H 9.2 l 5.55,0.05 H 19 l 3,0.05 4.5,0.05 h 2.05 l 2.95,0.05 1.65,0.05 h 1.1 3.65 0.45 0.6 0.45 0.35 0.5 1.4 0.2 0.85 1.55 0.6 2.25 l 0.3,0.1 0.15,0.1 0.05,0.1 0.1,0.1 v 0.1 l 0.05,0.1 v 0.1 0.1 L 47.7,39 v 0.1 l -0.1,0.1 -0.05,0.1 -0.15,0.15 -0.3,0.05 h -2.25 -0.6 -1.55 -0.85 -0.2 -1.4 -0.5 -0.35 -0.45 -0.6 -0.45 -3.65 l -1.1,0.05 H 31.5 L 28.55,39.6 26.5,39.65 H 22 l -3,0.05 -4.25,0.05 H 9.2 L 4.25,39.8 h -0.9 l -2.4,0.05 m 0,-23.1 V 14.8 h 3.3 l 12.25,0.05 13.6,0.05 29.25,0.05 h 3.55 v 1.7 H 59.35 30.1 L 16.5,16.7 4.25,16.75 h -3.3 m 0,-3.2 V 11.7 h 3.3 55.1 3.55 v 1.85 H 59.35 4.25 0.95 m 59.65,15.95 -0.35,-0.15 -0.2,-0.2 -0.05,-0.2 0.1,-0.3 0.1,-0.15 0.15,-0.1 h 0.25 l 0.3,0.1 0.1,0.25 0.05,0.2 -0.25,0.45 -0.2,0.1 m -11.8,0.65 q -0.15,-0.95 0.4,-1.7 0.75,-1.1 2.1,-0.95 1.3,0.15 1.8,1.4 0.5,1.3 -0.3,2.25 -0.9,1.15 -2.35,0.8 -1.4,-0.45 -1.65,-1.8 m 11.1,6.1 q 0.4,0.1 0.6,0.45 l 0.05,0.1 -0.15,0.85 Q 60.05,38 59.6,37.95 L 59.05,37.6 59,37.45 58.85,37.1 q 0.1,-0.45 0.35,-0.65 l 0.35,-0.2 H 59.9 M 0.95,53.75 v -6.7 h 3.3 31.3 23.8 3.55 v 6.7 H 59.35 4.25 0.95 M 62.9,55 v 2.2 H 0.95 V 55 h 3.3 31.3 23.8 3.55 M 22.7,24.1 q -0.7,1.25 -2,1.35 -1.35,0.1 -2.15,-1.05 -0.8,-1.05 -0.3,-2.35 0.35,-0.85 1.2,-1.3 l 1.75,-0.2 q 1.15,0.4 1.55,1.55 0.4,1.1 -0.05,2 M 7.6,21.15 7.5,21.8 7,22.2 q -0.4,0 -0.6,-0.45 L 6.35,21.15 6.2,21.2 5.45,21.25 Q 4.8,21.1 4.8,20.4 q 0,-0.6 0.65,-0.8 l 0.9,0.05 h 0.1 V 19.4 q 0,-0.5 0.15,-0.65 0.2,-0.4 0.6,-0.2 l 0.3,0.6 0.05,0.55 0.25,-0.05 0.5,0.1 0.3,0.4 -0.35,0.4 -0.65,0.2 v 0.4 m 3.9,-2.75 q 0.45,-0.2 0.7,0.2 l 0.15,0.4 -0.1,0.4 -0.45,0.3 -0.35,-0.05 -0.3,-0.2 -0.1,-0.45 0.1,-0.35 0.35,-0.25 m 6.35,14.15 -0.25,0.6 -0.6,0.25 q -0.5,0.05 -1.15,-0.7 l -0.2,0.25 -0.6,0.7 -0.75,0.45 Q 13.9,34.15 13.55,33.75 13.2,33.4 13.3,32.95 l 0.75,-0.9 0.9,-0.7 -0.45,-0.7 q -0.25,-0.5 -0.15,-0.7 l 0.5,-0.45 0.7,0.2 0.8,0.65 0.75,-0.55 0.7,-0.3 q 0.5,-0.1 0.7,0.2 0.35,0.5 -0.3,1.15 l -0.85,0.7 q 0.5,0.5 0.5,1 m -8.6,-0.15 0.1,0.2 0.05,0.15 -0.1,0.35 -0.35,0.15 q -0.3,0 -0.4,-0.2 L 8.45,32.8 8.5,32.7 V 32.65 L 8.55,32.5 q 0.1,-0.25 0.4,-0.15 V 32.3 l 0.3,0.1 m 23.4,-2.95 0.85,-0.05 0.15,0.5 -0.25,0.5 -0.7,0.8 0.4,0.65 q 0.2,0.9 -0.4,1.3 l -1,0.05 -0.35,-0.4 -0.25,0.2 -0.8,0.25 -0.7,-0.45 q -0.25,-0.35 0.05,-0.95 l 0.7,-0.75 0.3,-0.25 -0.3,-0.35 q -0.25,-0.45 -0.2,-0.85 l 0.25,-0.35 0.35,-0.1 0.4,0.25 0.55,0.55 0.95,-0.55"
         fill="#ffffff"
         fill-rule="evenodd"
         stroke="none"
         id="path5" />
      <path
         d="M 50.75,16.95 V 16.9 H 50 l -0.5,-0.05 h -0.3 l -0.75,-0.05 -2.6,-0.05 h -1.1 L 44.2,16.7 43.9,16.65 H 42.1 L 38.9,16.6 38.1,16.55 H 35.95 L 35.4,16.5 35.15,16.45 34.95,16.4 h -0.1 l -0.4,-0.05 -0.9,-0.05 H 32.5 l -1,-0.05 -0.35,-0.05 h -0.7 l -1.1,-0.05 -0.9,-0.05 H 26.7 L 24.45,16.05 22.2,16 H 20.1 L 19.2,15.95 17.7,15.9 16.55,15.85 H 15.7 L 14.55,15.8 13.3,15.75 H 11.65 L 10.75,15.7 9.15,15.65 H 8.7 L 7.05,15.6 6.75,15.55 H 6.55 L 6.35,15.5 6.25,15.45 6.15,15.4 6.1,15.3 v -0.1 -0.1 l 0.15,-0.1 0.3,-0.1 0.2,-0.05 h 0.3 L 8.7,14.8 9.15,14.75 h 1.6 l 0.9,-0.05 1.65,-0.05 h 1.25 l 1.15,-0.05 0.85,-0.05 h 1.15 l 1.5,-0.05 0.9,-0.05 h 2.1 l 2.25,-0.05 2.25,-0.05 1.75,-0.05 h 0.9 l 1.1,-0.05 0.7,-0.05 h 0.35 l 1,-0.05 1.05,-0.05 h 0.9 l 0.4,-0.05 0.1,-0.05 h 0.2 l 0.25,-0.05 0.55,-0.05 h 2.15 l 0.8,-0.05 3.2,-0.05 1.8,-0.05 h 0.3 l 0.55,-0.05 1.1,-0.05 h 2.6 L 49.2,13.6 49.5,13.55 H 50 l 0.75,-0.05 h 0.9 l 0.3,0.05 h 0.2 l 0.15,0.1 0.2,0.1 0.15,0.1 0.15,0.1 0.1,0.1 0.1,0.1 0.05,0.1 0.05,0.1 0.05,0.1 0.05,0.1 0.05,0.1 0.05,0.1 v 0.1 L 53.35,15 v 0.1 0.1 0.1 0.1 0.1 l -0.05,0.1 -0.05,0.1 v 0.1 l -0.05,0.1 -0.05,0.1 -0.05,0.1 -0.05,0.1 -0.1,0.1 -0.1,0.1 -0.1,0.15 -0.15,0.1 -0.15,0.1 -0.25,0.1 -0.25,0.05 -0.3,0.05 h -0.9 m -3.7,-10.8 q 0.1,-1.7 1.75,-2.5 1.45,-0.7 3.2,-0.3 2.05,0.4 3.05,1.8 1.2,1.65 0.45,3.65 -0.65,1.9 -2.6,2.55 l -1.65,0.35 q -1.6,0.2 -5.6,0 L 39.1,10.8 38.8,10.6 q -0.05,-0.2 0.35,-0.35 L 43.35,9.8 48.45,9.4 51.7,8.6 Q 52.5,8.2 52.55,7.65 52.6,7.15 52.15,6.8 L 51.3,6.4 q -0.9,-0.3 -1.35,0 0.25,0.4 0.1,0.9 L 49.5,8.05 Q 48.6,8.65 47.7,7.85 46.95,7.2 47.05,6.15 m -5.15,17 -0.55,-0.2 q -0.3,-0.2 -0.3,-0.55 0,-0.2 0.35,-0.8 L 40.85,21.1 Q 40.5,20.55 41,19.95 q 0.5,-0.4 1.15,-0.25 l 0.4,0.15 0.95,-1.15 0.5,-0.3 q 0.3,-0.1 0.55,0.15 0.25,0.3 -0.1,0.95 l -0.7,1.15 0.95,0.75 0.35,0.45 q 0.2,0.3 0.05,0.55 l -0.55,0.3 -0.65,-0.15 -0.95,-0.35 -0.2,0.4 q -0.35,0.55 -0.85,0.55 m 14.25,2.4 0.15,0.15 0.55,0.55 0.45,0.45 0.4,-0.2 0.5,0.2 q 0.2,0.3 0.05,0.55 l -0.35,0.55 -0.35,0.45 -0.5,0.4 L 56.5,29 h -0.6 l -0.15,-0.55 0.2,-0.4 -0.45,-0.45 -0.55,-0.55 -0.15,-0.15 0.05,-0.05 -0.1,-0.1 v 0.8 l 0.1,0.2 0.05,0.05 q 0.3,0.3 0.2,0.7 l -0.2,0.2 -0.4,0.2 -1,-0.3 0.05,-0.05 -0.2,-0.4 0.1,-0.2 -0.1,-0.1 -0.1,-1 -0.05,-0.65 -0.3,0.3 -0.1,0.1 -0.1,0.1 -0.05,0.05 -0.1,0.1 -0.1,0.1 -0.05,0.05 -0.1,0.1 -0.1,0.1 -0.05,0.05 -0.1,0.1 -0.15,0.15 h -0.1 l -0.15,0.15 0.2,0.2 0.45,0.65 q 0.05,0.55 -0.5,0.6 -0.4,0.1 -0.95,-0.45 L 50.3,28 49.6,27.4 q -0.6,-0.6 -0.45,-0.95 0.05,-0.55 0.6,-0.5 l 0.65,0.45 0.2,0.2 0.15,-0.15 0.05,-0.05 -0.05,-0.15 0.1,-0.1 0.1,-0.1 L 51,26 h 0.2 l 0.1,-0.1 0.05,-0.05 0.1,-0.1 0.1,-0.1 0.05,-0.05 0.1,-0.1 0.1,-0.1 0.3,-0.3 -0.7,-0.1 -1,-0.1 -0.1,-0.1 -0.15,0.15 -0.45,-0.25 -0.05,0.05 -0.25,-0.55 -0.05,-0.45 0.2,-0.4 0.2,-0.2 q 0.35,-0.15 0.7,0.2 l 0.1,0.1 h 0.1 l 0.9,0.1 -0.15,-0.15 -0.05,0.05 -0.1,-0.1 -0.6,-0.6 L 50.2,22.3 50.15,22.25 49.8,22.5 49.25,22.35 q -0.15,-0.35 0,-0.6 L 49.6,21.2 50.45,20.35 Q 50.75,20.05 51,20 l 0.55,0.05 0.2,0.5 -0.25,0.35 0.05,0.05 0.45,0.45 0.6,0.6 0.1,0.1 -0.05,0.05 0.15,0.15 q -0.2,-0.6 -0.1,-0.9 v -0.1 l -0.1,-0.1 q -0.35,-0.35 -0.2,-0.7 l 0.2,-0.2 0.4,-0.2 0.45,0.05 0.55,0.25 -0.05,0.05 0.25,0.45 -0.15,0.15 0.1,0.1 0.1,1 0.1,0.7 0.1,-0.1 0.15,-0.15 0.05,-0.05 0.1,-0.1 0.1,-0.1 0.05,-0.05 0.1,-0.1 0.1,-0.1 0.05,-0.05 0.1,-0.1 -0.05,-0.15 0.1,-0.1 0.15,-0.15 h 0.2 l 0.05,-0.05 0.1,-0.1 -0.2,-0.2 q -0.45,-0.45 -0.4,-0.7 -0.1,-0.5 0.5,-0.6 0.35,-0.15 0.95,0.45 l 0.6,0.7 0.65,0.55 q 0.55,0.55 0.45,0.95 -0.1,0.6 -0.6,0.5 l -0.7,-0.4 -0.2,-0.2 -0.1,0.1 v 0.1 l -0.1,0.1 -0.15,0.15 -0.1,0.1 -0.05,0.05 -0.1,0.1 -0.05,0.05 -0.1,0.1 -0.1,0.1 -0.05,0.05 -0.1,0.1 -0.1,0.1 -0.05,0.05 -0.15,0.15 -0.1,0.1 0.65,0.05 1,0.1 0.1,0.1 0.2,-0.1 q 0.3,0 0.4,0.2 l 0.05,-0.05 0.2,0.5 0.1,0.5 -0.2,0.4 -0.2,0.2 q -0.4,0.1 -0.7,-0.2 L 57,25.6 56.8,25.5 56.15,25.55 56,25.5 l 0.1,0.1 0.05,-0.05 M 54.05,38.2 Q 53.5,38.5 53,38.2 52.45,37.9 52.45,37.3 52.4,36.75 52.9,36.15 L 52.8,36.1 52.05,35.3 Q 51.7,34.45 52.3,33.85 52.55,33.6 53,33.55 l 0.7,0.15 0.7,0.7 0.05,0.05 1.25,-1.35 q 0.4,-0.4 0.65,-0.5 l 0.8,0.1 q 0.35,0.45 -0.2,1.2 l -1.15,1.85 0.9,0.95 q 0.4,0.6 0.15,0.9 -0.2,0.35 -0.8,0.25 l -1.25,-0.5 -0.05,0.05 -0.7,0.8 M 41.35,29.15 Q 41.5,28.5 41.75,28.3 H 41.9 L 41.85,28.1 Q 41.65,27.4 42,27.05 l 1.05,-0.1 0.9,1.05 -0.1,0.7 -0.3,0.2 0.1,0.15 -0.5,1.2 -0.45,0.85 0.2,-0.05 0.25,-0.05 0.15,-0.05 0.2,-0.05 h 0.1 l 0.15,-0.05 0.2,-0.05 0.2,-0.05 0.2,-0.1 0.15,-0.15 0.15,-0.05 0.15,-0.05 0.2,-0.05 0.1,0.1 h 0.2 L 45.4,30.4 45.25,30.05 Q 45.1,29.2 45.3,28.9 q 0.3,-0.55 0.95,-0.3 0.55,0.1 0.8,1.1 l 0.25,1.25 0.35,1.05 q 0.35,1.15 -0.1,1.45 -0.4,0.6 -1,0.2 -0.35,-0.15 -0.55,-1 l -0.1,-0.3 Q 45.85,32.3 45.8,32.4 l -0.15,0.05 -0.1,0.1 -0.2,0.05 -0.1,0.1 h -0.2 l -0.15,-0.05 -0.2,0.1 h -0.1 l -0.1,0.05 -0.2,0.05 -0.1,0.05 h -0.15 l -0.2,0.05 -0.15,0.1 h -0.25 l -0.1,0.05 h -0.1 l 0.75,0.5 1.05,0.8 0.1,0.25 0.3,-0.05 0.4,0.55 0.05,-0.05 -0.15,0.75 -0.2,0.6 -0.45,0.3 -0.45,0.05 Q 44.2,36.8 44,36.2 L 43.95,36 43.8,35.85 l -0.7,-0.4 0.05,0.25 0.25,1.1 0.2,0.75 h 0.05 l 0.5,0.1 0.55,0.5 -0.45,0.7 -0.65,0.45 -1.65,0.45 -0.75,-0.1 q -0.5,0 -0.75,-0.35 l 0.2,-0.65 0.45,-0.4 0.05,-0.05 -0.2,-0.75 -0.35,-1.05 -0.05,-0.25 0.1,-0.05 -0.05,-0.2 -0.45,0.95 -0.15,0.2 0.05,0.2 q 0.2,0.6 -0.25,0.85 l -0.3,0.15 H 38.9 L 37.95,37.2 q -0.1,-0.25 0.15,-0.6 l 0.2,-0.1 v -0.25 q 0,-0.45 0.45,-1.25 l 0.45,-0.8 -0.1,0.05 -0.2,0.05 -0.2,0.05 -0.15,0.05 h -0.1 l -0.15,0.1 h -0.15 l -0.2,0.05 -0.15,0.1 -0.15,-0.05 -0.1,0.05 -0.15,0.15 h -0.1 -0.2 l -0.15,0.05 H 36.8 36.65 l -0.2,0.05 0.05,0.3 q 0.25,0.85 0,1.1 -0.2,0.65 -0.9,0.4 -0.45,-0.1 -0.8,-1.25 L 34.55,34.4 34.2,33.15 q -0.25,-1 0.15,-1.35 0.4,-0.55 0.9,-0.25 0.35,0.15 0.55,1.05 l 0.15,0.35 0.2,-0.05 0.1,-0.05 0.15,-0.2 0.15,-0.05 0.2,-0.05 q 0.05,0.15 0.25,0.1 l 0.1,-0.05 0.2,-0.05 h 0.1 l 0.2,-0.05 0.2,-0.1 h 0.1 0.05 l 0.2,-0.05 0.2,-0.05 0.2,-0.05 0.1,-0.05 -0.85,-0.6 -1,-0.7 -0.05,-0.2 H 36.5 l -0.45,-0.55 0.05,-0.75 0.2,-0.65 0.85,-0.4 q 0.55,0.1 0.75,0.8 l 0.05,0.2 L 38.1,29.3 39,30 38.9,29.7 v 0.1 l -0.15,-0.25 -0.2,-1 L 38.3,27.7 37.75,27.65 37.2,27.1 q 0.05,-0.5 0.4,-0.7 0.2,-0.2 0.7,-0.35 l 1.65,-0.45 0.75,-0.05 q 0.5,0 0.75,0.4 l -0.25,0.8 -0.35,0.3 0.15,0.85 0.3,0.95 0.05,0.3 h -0.1 l 0.05,0.2 0.05,-0.2 m 1.75,6.3 -0.25,-0.15 0.05,0.2 0.2,-0.05 m 7.65,5.15 h 0.9 l 0.3,0.05 0.25,0.05 0.25,0.1 0.15,0.1 0.15,0.1 0.1,0.15 0.1,0.1 0.1,0.1 0.05,0.1 0.05,0.1 0.05,0.1 0.05,0.1 v 0.1 l 0.05,0.1 0.05,0.1 v 0.1 0.1 0.1 0.1 0.1 L 53.3,42.7 v 0.1 l -0.05,0.1 -0.05,0.1 -0.05,0.1 -0.05,0.1 -0.05,0.1 -0.05,0.1 -0.1,0.1 -0.1,0.1 -0.15,0.1 -0.15,0.1 -0.2,0.1 -0.15,0.1 h -0.2 l -0.3,0.05 h -0.9 L 50,44 H 49.5 L 49.2,43.95 48.45,43.9 h -2.6 L 44.75,43.85 44.2,43.8 H 43.9 L 42.1,43.75 38.9,43.7 38.1,43.65 H 35.95 L 35.4,43.6 35.15,43.55 h -0.2 l -0.1,-0.05 -0.4,-0.05 h -0.9 l -1.05,-0.05 -1,-0.05 h -0.35 l -0.7,-0.05 -1.1,-0.05 h -0.9 L 26.7,43.2 24.45,43.15 22.2,43.1 H 20.1 L 19.2,43.05 17.7,43 H 16.55 L 15.7,42.95 14.55,42.9 H 13.3 L 11.65,42.85 10.75,42.8 H 9.15 L 8.7,42.75 7.05,42.7 h -0.3 l -0.2,-0.05 -0.3,-0.1 -0.15,-0.1 v -0.1 -0.1 l 0.05,-0.1 0.1,-0.05 0.1,-0.05 0.2,-0.05 h 0.2 L 7.05,41.95 8.7,41.9 h 0.45 l 1.6,-0.05 0.9,-0.05 h 1.65 l 1.25,-0.05 1.15,-0.05 h 0.85 l 1.15,-0.05 1.5,-0.05 0.9,-0.05 h 2.1 l 2.25,-0.05 2.25,-0.05 h 1.75 l 0.9,-0.05 1.1,-0.05 h 0.7 l 0.35,-0.05 1,-0.05 h 1.05 l 0.9,-0.05 0.4,-0.05 h 0.1 L 35.15,41.1 35.4,41.05 35.95,41 h 2.15 l 0.8,-0.05 3.2,-0.05 h 1.8 l 0.3,-0.05 0.55,-0.05 h 1.1 l 2.6,-0.05 0.75,-0.05 h 0.3 L 50,40.65 h 0.75 V 40.6 m -3.7,10.8 q -0.1,-1.05 0.65,-1.7 0.9,-0.8 1.8,-0.2 0.4,0.2 0.55,0.75 0.15,0.5 -0.1,0.9 0.45,0.3 1.35,0 l 0.85,-0.4 Q 52.6,50.4 52.55,49.9 52.5,49.35 51.7,48.95 l -3.25,-0.8 -5.1,-0.4 -4.2,-0.45 -0.35,-0.35 0.3,-0.2 6.55,-0.9 q 4,-0.2 5.6,0 l 1.65,0.35 q 1.95,0.65 2.6,2.55 0.75,2 -0.45,3.65 -1,1.4 -3.05,1.8 -1.75,0.4 -3.2,-0.3 -1.65,-0.8 -1.75,-2.5 M 25.85,8.7 q -0.6,0 -1,-0.45 Q 24.45,7.8 24.35,7.2 24.2,5.9 25.2,4.9 26,4.05 27.35,3.65 q 2.35,-0.6 4.2,0.5 2.05,1.3 1.95,3.6 0,1.1 -0.6,2.1 -0.65,1.05 -1.65,1.6 -0.9,0.5 -2.6,0.65 L 18.05,12.7 4.7,12.35 4.45,12.3 4.4,12.15 l 0.1,-0.1 16.75,-1.65 7.4,-1 Q 30.25,8.8 30.2,7.95 30.15,7.2 28.8,6.85 l -1.45,0.2 q 0.25,0.6 -0.3,1.2 -0.5,0.55 -1.2,0.45 m 3.3,17.4 -0.05,0.65 0.1,0.15 0.05,0.1 0.25,0.65 -0.2,0.25 -0.4,0.2 -1,-0.3 0.05,-0.1 q -0.25,0 -0.25,-0.4 l 0.1,-0.15 -0.1,-0.1 Q 27.6,26.7 27.65,26 L 27.6,25.4 27.3,25.7 27.25,25.8 27.1,25.85 27,25.9 26.95,26 26.85,26.15 H 26.8 l -0.1,0.15 -0.1,0.1 -0.05,0.05 -0.15,0.1 -0.1,0.15 h -0.1 l -0.15,0.15 0.15,0.2 0.45,0.65 q 0.05,0.55 -0.45,0.6 -0.4,0.1 -1,-0.5 l -0.5,-0.6 -0.75,-0.6 q -0.55,-0.6 -0.4,-0.95 0,-0.55 0.55,-0.55 l 0.7,0.5 0.25,0.2 0.05,-0.15 0.1,-0.05 -0.1,-0.2 0.15,-0.05 0.05,-0.15 0.1,-0.05 0.2,0.05 0.1,-0.15 h 0.05 l 0.05,-0.1 0.1,-0.15 0.2,-0.1 0.1,-0.1 0.3,-0.3 -0.65,-0.1 -1.05,-0.1 -0.1,-0.15 -0.15,0.2 Q 24.2,24.1 24.1,23.9 H 24 l -0.2,-0.5 -0.1,-0.45 0.4,-0.6 q 0.4,-0.15 0.7,0.15 l 0.15,0.15 H 25 l 0.95,0.1 -0.1,-0.15 -0.1,0.05 L 25.6,22.5 25.05,21.9 24.6,21.5 24.5,21.4 24.2,21.7 23.6,21.55 Q 23.5,21.2 23.65,21 l 0.35,-0.6 0.8,-0.9 0.6,-0.35 0.5,0.05 0.25,0.55 -0.25,0.35 v 0.05 l 0.5,0.45 0.6,0.6 0.1,0.1 H 27 l 0.2,0.2 Q 27,20.9 27.1,20.6 V 20.5 L 27,20.4 q -0.4,-0.35 -0.2,-0.7 l 0.2,-0.25 0.4,-0.15 0.45,0.05 0.6,0.2 -0.1,0.05 0.25,0.5 -0.25,0.15 0.15,0.05 0.1,1 0.15,0.75 0.05,-0.1 0.2,-0.2 0.15,-0.1 0.05,-0.1 0.1,-0.05 0.1,-0.1 0.1,-0.1 0.05,-0.05 0.05,-0.1 V 21 l 0.1,-0.05 0.15,-0.2 H 30 L 30.1,20.7 30.2,20.6 30,20.4 29.6,19.7 q -0.1,-0.5 0.5,-0.65 0.3,-0.1 0.9,0.45 l 0.6,0.75 0.7,0.55 q 0.55,0.5 0.4,0.95 -0.1,0.6 -0.6,0.45 -0.2,0.1 -0.7,-0.35 l -0.15,-0.2 -0.15,0.1 v 0.05 l -0.05,0.1 -0.15,0.15 -0.1,0.15 -0.1,0.05 -0.05,0.1 -0.05,0.05 -0.1,0.1 -0.1,0.1 -0.1,0.05 -0.05,0.1 -0.15,0.1 -0.2,0.2 -0.05,0.1 0.7,0.05 0.9,0.1 0.15,0.1 0.25,-0.15 0.35,0.25 v -0.05 l 0.2,0.45 0.1,0.55 -0.15,0.4 -0.2,0.2 -0.75,-0.2 0.05,-0.1 -0.25,-0.05 -0.65,0.05 0.1,0.15 0.55,0.5 0.5,0.45 0.4,-0.15 0.45,0.2 q 0.25,0.25 0.05,0.55 L 32.25,27 31.9,27.4 31.4,27.85 30.9,28.2 h -0.55 l -0.25,-0.55 0.2,-0.4 -0.35,-0.45 -0.65,-0.55 -0.15,-0.15 0.05,-0.05 -0.1,-0.1 0.05,0.15 m -13.65,-2.65 -0.65,0.9 -0.7,0.65 0.35,0.4 q 0.8,1.05 0.25,1.9 -0.4,0.55 -1.1,0.55 -0.65,0 -1.1,-0.6 V 27.2 H 12.5 l -0.55,0.85 -1.05,0.2 Q 10.35,28.1 10.25,27.4 10.15,26.75 11.2,25.8 l 0.35,-0.3 -0.15,-0.2 q -0.35,-0.5 -0.4,-1 -0.1,-1 0.5,-1.25 0.5,-0.15 0.95,0.2 l 0.7,0.7 0.15,0.15 0.55,-0.45 q 0.5,-0.4 1.15,-0.75 l 0.5,0.05 v 0.5 M 3.6,29.1 3.5,28.7 q 0,-0.25 0.25,-0.35 h 0.5 L 4.9,29.1 5.05,29.4 6,29.1 q 0.6,0.15 0.4,0.85 L 5.75,30.7 5.7,30.75 5.8,30.95 5.9,31.6 5.55,32.45 4.65,32.6 4.15,32.15 3.9,31.8 H 3.8 L 3.1,31.65 2.7,31.1 Q 2.55,30.25 3.25,29.85 L 3.6,29.7 v -0.6 m 22.25,19.75 q 0.7,-0.1 1.2,0.45 0.55,0.6 0.3,1.2 l 1.45,0.2 q 1.35,-0.35 1.4,-1.1 0.05,-0.85 -1.55,-1.45 -2.2,-0.65 -7.4,-1 L 4.5,45.5 4.4,45.4 4.45,45.25 4.7,45.2 l 13.35,-0.35 10.6,0.6 q 1.7,0.15 2.6,0.65 1,0.55 1.65,1.6 0.6,1 0.6,2.1 0.1,2.3 -1.95,3.6 -1.85,1.1 -4.2,0.5 -1.35,-0.4 -2.15,-1.25 -1,-1 -0.85,-2.3 0.1,-0.6 0.5,-1.05 0.4,-0.45 1,-0.45 m -3.6,-17.3 0.6,0.4 1,1.35 1.2,-0.4 0.75,-0.1 q 0.5,0.1 0.65,0.45 0.2,0.45 -0.25,0.9 L 25.35,34.7 Q 25.1,34.8 24.8,35 v 0.05 q 0.4,0.8 0.4,1.3 0,0.55 -0.45,0.95 l -1,0.3 q -0.7,-0.05 -1.05,-0.9 l -0.1,-0.3 q -0.75,0.65 -1.35,0.6 -0.85,0 -1.1,-0.8 -0.25,-0.75 0.3,-1.3 l 0.9,-0.55 0.7,-0.3 -0.4,-1.2 q -0.2,-0.5 -0.1,-0.85 0.1,-0.55 0.7,-0.45"
         fill="#000000"
         fill-rule="evenodd"
         stroke="none"
         id="path6" />
    </g>
    <g
       id="shape2"
       transform="translate(1.5,1.5)">
      <path
         d="M 0,23.8 V 0 H 64.1 V 23.8 57.55 H 0 Z"
         fill="none"
         stroke="#000000"
         stroke-linecap="round"
         stroke-linejoin="round"
         stroke-width="3"
         id="path7" />
    </g>
  </defs>
</svg>
