<?xml version="1.0" encoding="UTF-8" standalone="no"?>
<svg
   ffdec:objectType="frame"
   height="60.549999"
   width="67.099998"
   version="1.1"
   id="svg6"
   sodipodi:docname="779.svg"
   xmlns:inkscape="http://www.inkscape.org/namespaces/inkscape"
   xmlns:sodipodi="http://sodipodi.sourceforge.net/DTD/sodipodi-0.dtd"
   xmlns:xlink="http://www.w3.org/1999/xlink"
   xmlns="http://www.w3.org/2000/svg"
   xmlns:svg="http://www.w3.org/2000/svg"
   xmlns:ffdec="https://www.free-decompiler.com/flash">
  <sodipodi:namedview
     id="namedview6"
     pagecolor="#ffffff"
     bordercolor="#000000"
     borderopacity="0.25"
     inkscape:showpageshadow="2"
     inkscape:pageopacity="0.0"
     inkscape:pagecheckerboard="0"
     inkscape:deskcolor="#d1d1d1"
     fit-margin-top="5"
     fit-margin-left="5"
     fit-margin-right="5"
     fit-margin-bottom="5" />
  <g
     transform="translate(1.5,1.5)"
     id="g3">
    <use
       ffdec:characterId="516"
       height="57.549999"
       width="64.099998"
       xlink:href="#shape0"
       id="use1" />
    <use
       ffdec:characterId="1267"
       height="57"
       transform="translate(0.25,0.05)"
       width="63.700001"
       xlink:href="#shape1"
       id="use2" />
    <use
       ffdec:characterId="518"
       height="60.549999"
       transform="translate(-1.5,-1.5)"
       width="67.099998"
       xlink:href="#shape2"
       id="use3" />
  </g>
  <defs
     id="defs6">
    <g
       id="shape0">
      <path
         d="M 53.6,0 H 64.1 V 57.55 H 53.6 28.25 0 V 0 H 28.25 53.6 V 57.55 0 M 28.25,0 V 57.55 0"
         fill="#ffffff"
         fill-rule="evenodd"
         stroke="none"
         id="path3" />
    </g>
    <g
       id="shape1"
       transform="translate(-0.25,-0.05)">
      <path
         d="m 60.2,0.05 h 1.15 0.2 0.45 0.25 l 0.2,0.05 0.15,0.05 0.2,0.05 0.15,0.05 0.1,0.05 0.05,0.1 0.1,0.05 0.05,0.05 0.1,0.1 v 0.05 l 0.05,0.05 0.05,0.05 0.05,0.1 V 0.9 L 63.55,0.95 63.6,1 v 0.1 l 0.05,0.05 v 0.1 0.1 0.15 0.1 0.1 0.1 0.05 L 63.7,1.9 V 2 l 0.05,0.05 v 0.05 0.1 0.15 0.1 0.15 0.1 0.15 0.1 0.1 0.1 0.15 0.1 0.05 L 63.8,3.5 v 0.05 0.1 0.15 0.1 0.15 0.1 0.1 0.1 0.15 0.1 l 0.05,0.05 V 4.75 4.85 5 5.1 5.2 5.3 5.45 5.55 L 63.9,5.6 v 0.1 0.1 0.15 0.1 0.15 0.1 0.1 0.1 0.15 0.1 0.15 0.1 0.15 0.1 0.1 0.1 0.15 0.1 0.15 0.1 0.15 0.1 0.15 0.1 0.1 0.1 0.15 0.1 0.15 0.1 0.15 0.1 0.1 0.1 0.15 0.1 0.15 0.1 0.15 0.1 0.15 0.1 0.1 0.1 0.15 0.1 0.15 0.1 0.15 0.1 0.1 0.1 0.15 0.1 0.15 0.1 0.15 0.1 0.15 0.1 0.1 0.1 0.15 0.1 0.15 0.1 0.15 0.1 0.15 0.1 0.1 0.1 0.15 0.1 0.15 0.1 0.15 0.1 0.1 0.1 0.15 0.1 0.15 0.1 0.15 0.1 0.15 0.1 0.1 0.1 0.15 0.1 0.15 0.1 0.15 0.1 0.1 0.1 0.15 0.1 0.15 0.1 0.15 0.1 0.15 0.1 0.1 0.1 0.15 0.1 0.15 0.1 0.15 0.1 0.1 0.1 0.15 0.1 0.15 0.1 0.15 0.1 0.15 0.1 0.1 0.1 0.15 0.1 0.15 0.1 0.15 0.1 0.1 0.1 0.15 0.1 0.15 0.1 0.15 0.1 0.15 0.1 0.1 0.1 0.15 0.1 0.15 0.1 0.15 0.1 0.1 0.1 0.15 0.1 0.15 0.1 0.15 0.1 0.15 0.1 0.1 0.1 0.15 0.1 0.15 0.1 0.15 0.1 0.1 0.1 0.15 0.1 0.15 0.1 0.15 0.1 0.15 0.1 0.1 0.1 0.15 0.1 0.15 0.1 0.15 0.1 0.15 0.1 0.1 0.1 0.15 0.1 0.15 0.1 0.15 0.1 0.1 0.1 0.15 0.1 0.15 0.1 0.15 0.1 0.15 0.1 0.1 0.1 0.15 0.1 0.15 0.1 0.15 0.1 0.1 0.1 0.15 0.1 0.15 0.1 0.15 0.1 0.15 0.1 0.1 0.1 0.15 0.1 0.15 0.1 0.15 0.1 0.1 0.1 0.15 0.1 0.15 0.1 0.15 0.1 0.15 0.1 0.1 0.1 0.15 0.1 0.15 0.1 0.15 0.1 0.1 0.1 0.15 0.1 0.15 0.1 0.15 0.1 0.15 0.1 0.1 0.1 0.15 0.1 0.15 0.1 0.15 0.1 0.1 0.1 0.15 0.1 0.15 0.1 0.15 0.1 0.15 0.1 0.1 0.1 0.15 0.1 0.15 0.1 0.15 0.1 0.1 0.1 0.15 0.1 0.15 0.1 0.15 0.1 0.15 0.1 0.1 0.1 0.15 0.1 0.15 0.1 0.15 0.1 0.15 0.1 0.1 0.1 0.15 0.1 0.15 0.1 0.15 0.1 0.1 0.1 0.15 0.1 0.15 0.1 0.15 0.1 0.15 0.1 0.1 0.1 0.15 0.1 0.15 0.1 0.15 0.1 0.1 0.1 0.15 0.1 0.15 0.1 0.15 0.1 0.15 0.1 0.1 0.1 0.15 0.1 0.15 0.1 0.15 0.1 0.1 0.1 0.15 0.1 0.15 0.1 0.15 0.1 0.15 0.1 0.1 0.1 0.15 0.1 0.15 0.1 0.15 0.1 0.1 0.1 0.15 0.1 0.15 0.1 0.15 0.1 l 0.05,0.05 v 0.1 0.1 0.1 0.1 0.15 0.1 0.15 0.1 0.15 0.1 0.1 0.1 0.15 0.1 0.15 0.1 0.15 0.1 0.15 0.1 0.1 0.1 0.15 0.1 0.15 0.1 0.15 0.1 0.1 0.1 0.15 0.1 0.05 L 63.9,54.4 v 0.05 0.1 0.15 0.1 0.15 0.1 0.1 l -0.05,0.1 v 0.1 L 63.8,55.4 v 0.1 l -0.05,0.05 v 0.2 0.1 0.05 l -0.05,0.05 v 0.1 l -0.05,0.05 v 0.05 l -0.05,0.05 -0.05,0.1 -0.05,0.05 -0.1,0.05 -0.05,0.05 -0.15,0.1 -0.1,0.05 -0.15,0.05 -0.15,0.05 -0.1,0.05 -0.15,0.05 H 62.5 l -0.1,0.05 h -0.25 -1.4 l -2,0.05 h -6.6 -1.55 -4.85 l -4.1,0.05 H 39.4 L 38.65,57 H 37.4 32.7 l -1.8,0.05 H 29.6 11.1 10.4 L 10.1,57 H 9.35 4.9 4.2 2.85 2.2 2.05 1.85 L 1.65,56.95 1.5,56.9 1.35,56.85 1.25,56.75 1.15,56.65 1.05,56.6 1,56.5 0.9,56.4 0.85,56.3 V 56.25 L 0.8,56.2 v -0.05 l -0.05,-0.1 v -0.1 L 0.7,55.9 v -0.1 -0.15 -0.1 -0.1 l 0.05,-0.1 v -0.1 L 0.8,55.2 V 55.1 55.05 L 0.85,55 0.9,54.95 0.95,54.85 1,54.8 1.05,54.75 1.1,54.7 1.15,54.65 V 54.55 54.5 L 1.1,54.45 V 54.4 54.3 54.25 L 1.05,54.2 V 54.15 54.05 53.9 53.8 L 1,53.75 V 53.7 53.6 53.45 53.35 53.2 53.1 L 0.95,53.05 v -0.1 -0.1 -0.15 -0.1 -0.05 L 0.9,52.5 V 52.4 52.25 52.15 52 51.9 51.75 51.65 51.55 51.45 51.3 51.2 51.05 50.95 50.8 50.7 L 0.85,50.65 v -0.1 -0.1 -0.1 -0.1 -0.15 -0.1 -0.15 -0.1 -0.15 -0.1 -0.15 -0.1 -0.1 -0.1 -0.15 -0.1 -0.15 -0.1 -0.15 -0.1 -0.05 L 0.8,48.2 V 48.1 47.95 47.85 47.7 47.6 47.45 47.35 47.2 47.1 47 46.9 46.75 46.65 46.55 L 0.75,46.5 v -0.1 -0.15 -0.1 -0.1 -0.1 -0.15 -0.1 -0.15 L 0.7,45.45 V 45.3 45.2 45.05 44.95 44.85 44.75 44.6 44.5 44.35 44.25 44.1 44 43.9 43.8 43.65 43.55 43.4 43.3 43.15 43.05 42.9 42.8 42.7 42.6 42.45 42.35 42.2 L 0.65,42.1 v -0.15 -0.1 -0.1 -0.1 V 41.5 41.4 41.25 41.15 41 40.9 40.75 40.65 40.55 40.45 40.3 40.2 40.05 39.95 39.8 39.7 39.6 39.5 39.35 39.25 39.1 39 38.85 38.75 38.6 38.5 38.4 38.3 38.15 38.05 37.9 37.8 37.7 L 0.6,37.65 v -0.1 -0.1 -0.1 -0.15 -0.1 -0.15 -0.1 -0.15 -0.1 -0.15 -0.1 -0.1 -0.1 V 36 35.9 35.8 L 0.55,35.75 v -0.1 -0.15 -0.1 -0.15 -0.1 -0.1 -0.1 V 34.8 34.7 34.55 34.45 34.3 34.2 34.1 34 33.85 33.75 33.6 33.5 33.35 33.25 33.1 33 v -0.1 -0.1 -0.15 -0.1 -0.15 -0.1 -0.15 -0.1 -0.1 -0.1 -0.15 -0.1 -0.15 -0.1 -0.15 -0.1 -0.15 -0.1 -0.1 -0.1 V 30.5 30.4 30.25 30.15 30 29.9 29.8 29.7 29.55 29.45 29.3 29.2 29.05 28.95 28.8 28.7 28.6 28.5 28.35 28.25 28.1 28 v -0.15 -0.1 -0.1 -0.1 -0.15 -0.1 -0.15 -0.1 -0.15 -0.1 -0.15 -0.1 -0.1 -0.1 -0.15 -0.1 -0.15 -0.1 -0.15 -0.1 -0.1 -0.1 -0.15 -0.1 -0.15 -0.1 -0.15 -0.1 -0.15 -0.1 -0.1 -0.1 -0.15 -0.1 -0.15 -0.1 -0.15 -0.1 -0.1 -0.1 -0.15 -0.1 -0.15 -0.1 -0.15 -0.1 -0.15 -0.1 -0.1 -0.1 -0.15 -0.1 -0.05 L 0.5,21.7 v -0.05 -0.1 -0.15 -0.1 -0.15 -0.1 -0.1 -0.1 V 20.7 20.6 20.45 20.35 20.2 20.1 20 19.9 19.75 19.65 19.5 19.4 19.25 19.15 19 18.9 18.8 18.7 18.55 18.45 18.3 18.2 18.05 17.95 17.85 17.75 17.6 17.5 17.35 17.25 17.1 17 16.85 16.75 16.65 16.55 16.4 16.3 16.15 16.05 15.9 15.8 15.7 15.6 15.45 15.35 15.2 15.1 14.95 14.85 14.7 14.6 14.5 14.4 14.25 14.15 14 13.9 13.75 13.65 13.55 13.45 13.3 13.2 13.05 12.95 12.9 L 0.55,12.85 V 12.8 12.7 12.55 12.45 12.35 12.25 12.1 12 11.85 11.75 11.6 11.5 11.4 11.3 11.15 11.05 10.9 10.8 10.65 10.55 10.4 10.3 10.2 10.1 10 L 0.6,9.95 V 9.85 9.7 9.6 9.45 9.35 9.25 9.15 9 8.9 L 0.65,8.85 V 8.75 8.65 8.5 8.4 8.25 8.15 8.05 7.95 7.8 7.7 L 0.7,7.65 V 7.55 7.45 7.3 7.2 7.05 6.95 6.85 6.75 6.6 L 0.75,6.5 V 6.35 6.25 6.1 6 5.95 L 0.7,5.9 V 5.8 5.65 5.55 5.4 5.3 5.15 5.05 4.9 4.8 4.7 4.6 4.45 4.35 4.2 4.1 3.95 3.85 3.75 3.65 3.5 3.4 3.25 L 0.75,3.15 V 3 2.9 2.75 2.65 2.55 2.45 2.4 L 0.65,2.35 0.6,2.25 0.5,2.2 0.45,2.15 0.4,2.05 V 2 L 0.35,1.95 0.3,1.9 V 1.8 L 0.25,1.75 V 1.65 1.55 1.4 1.3 1.25 L 0.3,1.2 V 1.1 L 0.4,1 V 0.95 L 0.45,0.85 0.5,0.8 0.6,0.75 0.65,0.7 0.8,0.6 0.9,0.55 1.05,0.5 h 0.2 L 1.3,0.45 H 1.5 1.95 2.1 L 2.2,0.4 H 2.3 L 2.5,0.35 H 2.65 L 2.85,0.3 h 0.3 0.4 L 3.9,0.25 H 4.45 L 5.9,0.2 h 4 0.4 1.95 2.35 1.8 l 1.05,0.05 H 18.3 L 19,0.3 H 24.7 27.35 29 L 32,0.25 H 42.1 L 45.15,0.2 h 9.65 0.35 l 0.7,-0.05 h 1.9 l 0.7,-0.05 h 0.3 l 0.2,-0.05 H 60.2 M 61.1,20.8 V 20.7 20.55 20.45 20.3 20.2 20.05 19.95 19.8 L 59.5,18.7 Q 50.2,9.5 38.4,6.3 q -0.7,1.75 -2,2.9 v 0.05 q 0.05,0.5 -0.3,0.95 -0.35,0.45 -0.9,0.65 -0.85,0.25 -2.1,0 l -7,-1.05 q -4,-0.45 -6.95,0.05 -0.2,2.95 -1.4,4 -0.55,0.55 -2.35,1.05 l -3.8,1 -3.75,1.65 q 1.3,10.5 1.45,15.9 l 0.15,3.75 q 0.05,1.4 0.4,3.15 0.9,5.35 2.35,9.8 l 0.3,1.1 Q 14.4,50 16.85,49.3 l 3.1,-0.45 2.05,0.2 5,0.7 q 4.05,0.7 7.7,2.25 0.7,-2.55 2,-4.55 0.4,-0.6 0.8,-0.6 0.4,-0.05 0.65,0.35 l 0.1,0.15 1.8,-0.05 3.2,0.55 h 0.9 l 0.55,-0.7 q 1.05,-2.3 2.9,-5.25 l 3.2,-5.1 3.85,-6.65 3.95,-6.6 1.55,-2.1 q 0.45,-0.5 0.95,-0.65"
         fill="#999999"
         fill-rule="evenodd"
         stroke="none"
         id="path4" />
      <path
         d="m 18.75,51.15 -4.95,1.5 -1.7,-0.1 q -0.65,-0.4 -0.85,-2 L 10.4,46.95 9.3,43.5 Q 7.8,38.55 7.2,31.3 L 6.3,18.8 Q 6.2,17.05 6.65,16.45 7.1,15.9 8.3,15.5 L 17.35,12.55 17.5,12.5 18,9.8 q 0.2,-1 0.55,-1.35 0.55,-0.5 1.75,-0.5 L 30,8.5 30.8,8.6 31,8.55 q 2.45,-0.75 3.4,0.3 l 0.25,0.35 0.7,0.15 1.85,-3.15 q 0.75,-1.15 1.3,-1.4 l 1.55,0.05 1.5,0.85 q 0.55,0.35 4.6,2.3 3.6,1.8 7.6,4.7 l 7.05,5.55 1.05,1.35 q 0.2,0.75 -0.75,2.15 -5.75,8 -10.65,17.35 -3.35,6.75 -5.1,9.4 -0.7,1.15 -1.45,1.35 l -1.75,-0.2 -4.25,-1.4 -0.75,-0.3 -0.25,0.9 -0.7,2.6 -0.65,1 q -0.5,0.3 -1.65,0 -4.3,-1.1 -11.95,-1.95 L 21,50.4 18.75,51.15 m 20.55,-6.5 0.05,0.5 3.4,1.4 q 5.7,-10.7 9.4,-16.75 3.15,-5.2 6.2,-9.4 -8.2,-6.65 -14,-9.55 L 38.95,7.8 37.6,9.75 39.65,10.1 43,10.7 q 1.1,0.2 1.45,0.7 0.3,0.45 0.2,1.55 l -0.55,3.95 -0.45,3.45 1,-0.6 1.2,0.1 0.1,0.75 -0.3,0.75 -0.2,1.9 0.3,3.45 L 46,28 q 0.25,2.4 -1.55,3.85 l -1.05,0.6 -1.55,-0.2 -0.25,-0.15 -1.75,6.3 -0.9,3.1 0.35,3.15 m 3.4,-3.15 q 0.1,-0.4 -0.25,-0.55 l -0.6,0.35 0.55,0.55 0.2,0.2 0.1,-0.55 m -2.6,0.45 0.85,-1.4 q 0.55,-0.65 1.35,-0.8 l 0.85,0.1 0.6,0.95 0.15,0.8 -0.2,0.7 -0.5,1.1 -0.3,0.55 -0.55,0.2 q -0.4,-0.1 -0.4,-0.6 l 0.25,-0.75 0.05,-0.1 -0.3,-0.2 -0.25,-0.2 -0.4,-0.15 -0.15,-0.1 -0.05,0.05 -0.35,0.55 -0.6,0.05 Q 39.9,42.5 40.1,41.95 m -15.95,4.8 6.35,-1.1 6.25,-1.4 0.05,-0.3 -0.05,-0.7 -0.15,-1.15 -0.45,-2.9 -1.4,-11.45 q -1.1,-9.6 -2.4,-15.7 L 30.9,11.8 30.55,11.75 Q 19.35,14.4 9.05,18 q 0.75,9.75 1.4,14.5 1.05,8.05 2.9,14.25 l 0.75,2.95 8.05,-2.4 h 0.05 l 0.2,-0.05 0.95,-0.3 0.8,-0.2 m 12.3,-27.35 1.3,11.15 0.35,3.1 0.75,-2.85 1.05,-5.65 1.65,-11.35 -6.1,-1.15 1,6.75 m -16.35,-8.8 -0.3,1.25 3.4,-1 -3.1,-0.25 m -7.15,10.05 q -0.15,-0.5 -0.4,-0.45 l -0.4,0.65 -0.05,0.3 0.25,-0.1 0.65,-0.2 -0.05,-0.2 m -1.45,-1.1 q 0.35,-0.5 1,-0.55 0.65,-0.1 1.1,0.3 l 0.55,1.1 0.35,1 0.15,0.95 q -0.1,0.6 -0.65,0.6 -0.45,-0.05 -0.7,-0.9 v -0.1 L 12.95,22.1 12,22.45 h -0.05 v 1 L 11.9,23.8 q -0.2,0.2 -0.4,0 l -0.3,-0.3 -0.3,-0.95 q -0.1,-0.7 0.15,-1.8 0.25,-0.95 0.45,-1.2 m 9.1,18 -1.4,0.05 -0.85,-0.45 -0.9,-0.8 q -0.5,-0.75 -0.3,-2.4 0.2,-1.2 0.7,-2.3 l 0.65,-1.7 0.3,-1.8 0.25,-2.2 q 0.1,-0.6 0.35,-0.75 0.1,-0.15 0.35,-0.2 0.45,-0.05 1,0.75 l 1.1,1.25 1.95,1.4 1.95,1.4 0.6,0.8 q 1.15,1.55 1,2.7 -0.3,1.55 -2.15,1.9 l -0.7,0.1 0.75,1.05 0.2,0.4 q 0.2,0.55 -0.15,0.85 L 24.15,38.15 23.5,38.2 Q 22.9,38.05 22.95,37.4 L 22.9,37.3 Q 22.65,36.9 22.8,36.35 V 36.3 q -0.75,0.85 -2.2,1.25 m 14.25,5.55 q -0.3,-0.1 -0.6,-0.95 h -0.1 -0.7 q -0.1,0 -0.35,0.15 l 0.2,1 -0.1,0.5 -0.5,-0.05 Q 32.4,43.5 32.3,42.85 31.8,41 32.45,40 l 0.65,-0.55 q 0.65,-0.3 1.35,0.4 l 0.75,1.25 0.35,0.85 0.15,0.65 -0.3,0.45 -0.55,0.05 M 33.8,41 33.25,40.6 33,41.3 v 0.35 L 33.55,41.4 33.75,41.25 33.9,41.2 33.8,41 m -3.05,7.35 -1.35,0.2 q 2.55,0.55 4.6,1.25 h 0.25 l 0.15,-0.2 q 0.25,-1 0.65,-1.95 l -4.3,0.7"
         fill="#000000"
         fill-rule="evenodd"
         stroke="none"
         id="path5" />
    </g>
    <g
       id="shape2"
       transform="translate(1.5,1.5)">
      <path
         d="M 0,23.8 V 0 H 64.1 V 23.8 57.55 H 0 Z"
         fill="none"
         stroke="#000000"
         stroke-linecap="round"
         stroke-linejoin="round"
         stroke-width="3"
         id="path6" />
    </g>
  </defs>
</svg>
