<?xml version="1.0" encoding="UTF-8" standalone="no"?>
<svg
   ffdec:objectType="frame"
   height="44.349998"
   width="78.599998"
   version="1.1"
   id="svg11"
   sodipodi:docname="287.svg"
   xmlns:inkscape="http://www.inkscape.org/namespaces/inkscape"
   xmlns:sodipodi="http://sodipodi.sourceforge.net/DTD/sodipodi-0.dtd"
   xmlns:xlink="http://www.w3.org/1999/xlink"
   xmlns="http://www.w3.org/2000/svg"
   xmlns:svg="http://www.w3.org/2000/svg"
   xmlns:ffdec="https://www.free-decompiler.com/flash">
  <sodipodi:namedview
     id="namedview11"
     pagecolor="#ffffff"
     bordercolor="#000000"
     borderopacity="0.25"
     inkscape:showpageshadow="2"
     inkscape:pageopacity="0.0"
     inkscape:pagecheckerboard="0"
     inkscape:deskcolor="#d1d1d1"
     fit-margin-top="5"
     fit-margin-left="5"
     fit-margin-right="5"
     fit-margin-bottom="5" />
  <g
     transform="translate(2,2.05)"
     id="g3">
    <use
       ffdec:characterId="1"
       height="42.700001"
       transform="translate(-1.75,-2)"
       width="76.449997"
       xlink:href="#shape0"
       id="use1" />
    <use
       ffdec:characterId="281"
       height="42.150002"
       transform="translate(-0.55,-0.95)"
       width="75.849998"
       xlink:href="#shape1"
       id="use2" />
    <use
       ffdec:characterId="3"
       height="44.349998"
       transform="translate(-2,-2.05)"
       width="78.599998"
       xlink:href="#shape2"
       id="use3" />
  </g>
  <defs
     id="defs11">
    <g
       id="shape0"
       transform="translate(1.75,2)">
      <path
         d="M 2.8,0 V -0.4 H 5.4 V 0 H 9.7 V 19.45 0 H 20.55 L 19.3,19.45 H 9.7 0.25 V 0 H 2.8"
         fill="#ffffff"
         fill-rule="evenodd"
         stroke="none"
         id="path3" />
      <path
         d="M 0.25,19.45 H 9.7 19.3 L 18.7,28.6 16,28.5 10.95,27.95 9.7,27.8 Q 7.45,27.6 5.85,27.75 4.05,27.9 1.5,28.6 0.75,28.8 0.25,29.15 v -9.7 m 9.45,0 v 8.35 -8.35"
         fill="#121212"
         fill-rule="evenodd"
         stroke="none"
         id="path4" />
      <path
         d="m 9.7,27.8 1.25,0.15 5.05,0.55 2.7,0.1 h 1.05 l 3.75,0.15 q 2.45,0.3 3.6,1.25 0.6,0.5 0.6,1.1 0,0.65 -0.8,1 l -1.3,0.2 -7.15,0.15 -5.6,-0.3 L 9.7,31.75 7.95,31.6 3.1,31.95 0.95,32.3 0.25,32.1 -0.35,31.55 -0.5,31.3 V 29.9 L 0.25,29.15 Q 0.75,28.8 1.5,28.6 4.05,27.9 5.85,27.75 7.45,27.6 9.7,27.8 v 3.95 -3.95"
         fill="#999999"
         fill-rule="evenodd"
         stroke="none"
         id="path5" />
      <path
         d="M 2.8,0 H 0.25 M 9.7,0 H 5.4 m 16.15,0 h 10.7 M 20.55,0 H 9.7"
         fill="none"
         stroke="#666666"
         stroke-linecap="round"
         stroke-linejoin="round"
         stroke-width="4"
         id="path6" />
      <path
         d="m 9.7,-0.4 h 65 V 40.5 H 47.05 L 45.5,40.7 27,40.65 25.95,40.5 H 9.7 -0.5 V -0.4 H 9.7 V 40.5 -0.4"
         fill="#ffffff"
         fill-rule="evenodd"
         stroke="none"
         id="path7" />
    </g>
    <g
       id="shape1"
       transform="translate(0.55,0.95)">
      <path
         d="m 22.05,5.95 0.3,-1 -0.1,-1 Q 22,1.35 22.05,0.05 l 0.15,-1 h 30.35 l 0.15,1 -0.2,3.9 -0.15,1 0.35,1 q 0.7,2.4 0.35,4.95 -0.35,2.5 -1.75,4.6 -1.6,2.4 -4.35,3.9 l -1.55,0.7 h 0.05 q 0.85,0.75 2.8,2.1 4,2.65 6.65,3.85 3.8,1.8 7.25,1.85 0.75,-2.1 2.45,-3.55 1.8,-1.55 3.9,-1.6 1.7,0 3.4,1.05 2.65,1.7 3.25,4.65 0.65,3.05 -1.4,5.4 -1.65,1.8 -4.2,2.35 -2.2,0.5 -4.95,0.05 l -4,-0.75 q -5.75,-1.5 -9.4,-4 l -1.65,-1.25 q 1.55,4.7 2.65,10.95 H 22.55 q 1.1,-6.25 2.65,-10.95 l -1.65,1.25 q -3.65,2.5 -9.45,4 l -3.95,0.75 Q 7.35,36.7 5.2,36.2 2.6,35.65 0.95,33.85 q -2,-2.35 -1.35,-5.4 0.55,-2.95 3.25,-4.65 1.7,-1.05 3.4,-1.05 2.1,0.05 3.9,1.6 1.7,1.45 2.45,3.55 3.4,-0.05 7.25,-1.85 2.65,-1.2 6.65,-3.85 l 2.8,-2.1 h 0.05 L 27.8,19.4 Q 25.05,17.9 23.45,15.5 22.05,13.4 21.7,10.9 21.35,8.35 22.05,5.95"
         fill="#999999"
         fill-rule="evenodd"
         stroke="none"
         id="path8" />
      <path
         d="M 25.55,10.2 25.8,9.45 25.7,8.7 25.55,5.7 25.75,4.05 26,3 q 0.3,-0.75 1.15,-1 l 1.55,0.05 2.65,0.6 0.65,0.2 Q 34.05,2 36.3,1.9 V 1.85 h 0.45 1.1 0.45 V 1.9 q 2.3,0.15 4.3,0.95 L 43.25,2.65 45.9,2.05 47.45,2 q 0.85,0.25 1.15,1 l 0.25,1.05 0.2,1.65 -0.15,3 -0.1,0.75 0.25,0.75 q 0.55,1.85 0.3,3.8 -0.3,1.95 -1.35,3.55 -1.25,1.85 -3.35,3 l -1.2,0.55 h 0.05 l 2.15,1.6 q 3.1,2.05 5.1,2.95 2.95,1.4 5.55,1.45 0.6,-1.65 1.9,-2.75 1.4,-1.2 3,-1.25 1.3,0 2.6,0.85 2.05,1.3 2.5,3.55 0.5,2.35 -1.05,4.15 -1.25,1.4 -3.25,1.8 -1.65,0.4 -3.8,0.05 L 55.15,32.9 Q 50.7,31.75 47.9,29.85 L 46.65,28.9 q 1.2,3.6 2.05,8.45 0.35,2.25 -0.05,3.35 H 26 q -0.45,-1.1 -0.1,-3.35 0.85,-4.85 2.05,-8.45 l -1.25,0.95 q -2.8,1.9 -7.25,3.05 l -3.05,0.6 q -2.15,0.35 -3.8,-0.05 -2,-0.4 -3.25,-1.8 -1.55,-1.8 -1.05,-4.15 0.45,-2.25 2.5,-3.55 1.3,-0.85 2.6,-0.85 1.6,0.05 3,1.25 1.3,1.1 1.9,2.75 2.6,-0.05 5.55,-1.45 l 5.1,-2.95 2.15,-1.6 h 0.05 l -1.2,-0.55 Q 27.85,19.4 26.6,17.55 25.55,15.95 25.25,14 25,12.05 25.55,10.2 m 2.25,3.2 -0.25,1.3 q -0.05,0.9 0.5,1.75 0.5,0.85 1.35,1.3 l 0.85,0.3 0.95,0.05 q 1.45,0 2.25,-0.5 l 0.75,-0.65 q 1.15,-1.3 1.1,-2.85 l -0.65,-0.15 q -2.1,-0.5 -3.35,-1.7 -0.7,-0.6 -0.9,-1.3 l -0.05,-0.2 q -0.95,0.2 -1.65,1 -0.55,0.65 -0.9,1.65 m 11.95,10.25 q -1.25,-0.7 -3.65,-0.3 l -1.65,0.4 q -2.2,0.8 -3.3,3.2 -0.9,1.9 -1,4.6 0,1.75 0.4,2.7 0.45,1.05 2,2.4 l 1.55,1.05 q 1.15,0.6 3,0.75 L 40.35,38 q 1.75,-0.7 2.4,-2.15 l 0.5,-1.6 q 0.4,-1.6 -0.05,-2.4 l -0.3,0.8 -0.45,0.8 -0.2,0.35 -0.9,1.05 -1.4,1 -2.1,0.15 q -1.45,-0.05 -2.6,-0.9 l -0.85,-0.75 -1,-1.55 0.05,-1.1 q 0.2,-1.95 0.65,-3.1 0.4,-0.95 0.95,-1.4 0.3,-0.25 1.35,-0.55 1.25,-0.3 1.85,0 l 0.75,0.7 q 0.7,1.2 0.4,2.55 -0.2,0.85 -0.75,1.1 L 38,30.95 q -0.35,-0.2 -0.3,-0.55 l 0.25,-0.5 0.45,-1.2 Q 38.35,28.25 37.95,27.9 37.5,27.6 37,27.65 q -0.9,0.05 -1.6,1.05 -0.7,1 -0.65,2.25 0.05,1.3 0.85,2.2 1.1,1.25 2.8,1.15 1.7,-0.1 2.75,-1.3 L 41.9,31.9 Q 42.85,30.2 42.55,28.1 42.3,26 40.95,24.55 40.3,23.9 39.75,23.65 M 39.65,17.85 38.9,17.5 V 17.35 L 38.65,16.6 38.5,16 38.15,15.55 H 37.8 l -0.25,0.3 -0.05,0.3 -0.35,0.7 -0.1,0.35 v 0.15 l -0.7,0.25 -0.2,0.05 -0.45,0.3 -0.2,0.2 -0.3,0.15 -0.25,0.25 v 0.1 l -0.1,0.15 -0.1,0.2 v 0.15 l 0.15,0.1 0.15,0.05 0.2,-0.15 h 0.25 l 0.7,-0.25 h 0.3 l 0.3,-0.05 1,-0.35 0.15,-0.05 0.3,0.1 0.75,0.2 0.2,0.1 h 0.25 l 0.7,0.25 0.35,0.05 0.2,-0.25 h 0.05 L 40.7,18.6 40.5,18.45 40.1,18.25 40,18.1 39.8,18.05 39.65,17.85 M 46.4,11.7 q -0.8,-0.55 -1.7,-0.7 -0.25,0.85 -1.6,1.65 -1.5,1 -2.95,1.35 -0.2,0.85 0.05,1.7 l 0.4,0.8 1.1,0.9 q 1.35,0.75 2.7,0.7 1.25,0 2.2,-0.85 1,-0.75 1.3,-2 l 0.05,-0.65 q 0.1,-1.7 -1.55,-2.9"
         fill="#000000"
         fill-rule="evenodd"
         stroke="none"
         id="path9" />
      <path
         d="m 46.4,11.7 q 1.65,1.2 1.55,2.9 l -0.05,0.65 q -0.3,1.25 -1.3,2 -0.95,0.85 -2.2,0.85 -1.35,0.05 -2.7,-0.7 l -1.1,-0.9 -0.4,-0.8 q -0.25,-0.85 -0.05,-1.7 1.45,-0.35 2.95,-1.35 1.35,-0.8 1.6,-1.65 0.9,0.15 1.7,0.7 m -6.75,6.15 0.15,0.2 0.2,0.05 0.1,0.15 0.4,0.2 0.2,0.15 0.05,0.3 H 40.7 l -0.2,0.25 -0.35,-0.05 -0.7,-0.25 H 39.2 l -0.2,-0.1 -0.75,-0.2 -0.3,-0.1 -0.15,0.05 -1,0.35 -0.3,0.05 h -0.3 l -0.7,0.25 h -0.25 l -0.2,0.15 -0.15,-0.05 -0.15,-0.1 V 19 l 0.1,-0.2 0.1,-0.15 v -0.1 l 0.25,-0.25 0.3,-0.15 0.2,-0.2 0.45,-0.3 0.2,-0.05 0.7,-0.25 V 17.2 l 0.1,-0.35 0.35,-0.7 0.05,-0.3 0.25,-0.3 h 0.35 l 0.35,0.45 0.15,0.6 0.25,0.75 v 0.15 l 0.75,0.35 m 0.1,5.8 q 0.55,0.25 1.2,0.9 1.35,1.45 1.6,3.55 0.3,2.1 -0.65,3.8 L 41.15,33 q -1.05,1.2 -2.75,1.3 -1.7,0.1 -2.8,-1.15 -0.8,-0.9 -0.85,-2.2 -0.05,-1.25 0.65,-2.25 0.7,-1 1.6,-1.05 0.5,-0.05 0.95,0.25 0.4,0.35 0.45,0.8 l -0.45,1.2 -0.25,0.5 q -0.05,0.35 0.3,0.55 L 38.65,31 Q 39.2,30.75 39.4,29.9 39.7,28.55 39,27.35 l -0.75,-0.7 q -0.6,-0.3 -1.85,0 -1.05,0.3 -1.35,0.55 -0.55,0.45 -0.95,1.4 -0.45,1.15 -0.65,3.1 l -0.05,1.1 1,1.55 0.85,0.75 q 1.15,0.85 2.6,0.9 l 2.1,-0.15 1.4,-1 0.9,-1.05 0.2,-0.35 0.45,-0.8 0.3,-0.8 q 0.45,0.8 0.05,2.4 l -0.5,1.6 Q 42.1,37.3 40.35,38 l -3.25,0.45 q -1.85,-0.15 -3,-0.75 l -1.55,-1.05 q -1.55,-1.35 -2,-2.4 -0.4,-0.95 -0.4,-2.7 0.1,-2.7 1,-4.6 1.1,-2.4 3.3,-3.2 l 1.65,-0.4 q 2.4,-0.4 3.65,0.3 M 27.8,13.4 q 0.35,-1 0.9,-1.65 0.7,-0.8 1.65,-1 l 0.05,0.2 q 0.2,0.7 0.9,1.3 1.25,1.2 3.35,1.7 l 0.65,0.15 q 0.05,1.55 -1.1,2.85 l -0.75,0.65 q -0.8,0.5 -2.25,0.5 L 30.25,18.05 29.4,17.75 Q 28.55,17.3 28.05,16.45 27.5,15.6 27.55,14.7 l 0.25,-1.3"
         fill="#ffffff"
         fill-rule="evenodd"
         stroke="none"
         id="path10" />
    </g>
    <g
       id="shape2"
       transform="translate(2,2.05)">
      <path
         d="M -0.5,-0.4 V -0.55 H 75.1 V -0.4 40.8 H -0.5 Z"
         fill="none"
         stroke="#000000"
         stroke-linecap="round"
         stroke-linejoin="round"
         stroke-width="3"
         id="path11" />
    </g>
  </defs>
</svg>
