<?xml version="1.0" encoding="UTF-8" standalone="no"?>
<svg
   ffdec:objectType="frame"
   height="60.549999"
   width="67.099998"
   version="1.1"
   id="svg6"
   sodipodi:docname="448.svg"
   xmlns:inkscape="http://www.inkscape.org/namespaces/inkscape"
   xmlns:sodipodi="http://sodipodi.sourceforge.net/DTD/sodipodi-0.dtd"
   xmlns:xlink="http://www.w3.org/1999/xlink"
   xmlns="http://www.w3.org/2000/svg"
   xmlns:svg="http://www.w3.org/2000/svg"
   xmlns:ffdec="https://www.free-decompiler.com/flash">
  <sodipodi:namedview
     id="namedview6"
     pagecolor="#ffffff"
     bordercolor="#000000"
     borderopacity="0.25"
     inkscape:showpageshadow="2"
     inkscape:pageopacity="0.0"
     inkscape:pagecheckerboard="0"
     inkscape:deskcolor="#d1d1d1"
     fit-margin-top="5"
     fit-margin-left="5"
     fit-margin-right="5"
     fit-margin-bottom="5" />
  <g
     transform="translate(1.5,1.5)"
     id="g3">
    <use
       ffdec:characterId="516"
       height="57.549999"
       width="64.099998"
       xlink:href="#shape0"
       id="use1" />
    <use
       ffdec:characterId="946"
       height="57.700001"
       transform="translate(-0.2,-0.3)"
       width="64.650002"
       xlink:href="#shape1"
       id="use2" />
    <use
       ffdec:characterId="518"
       height="60.549999"
       transform="translate(-1.5,-1.5)"
       width="67.099998"
       xlink:href="#shape2"
       id="use3" />
  </g>
  <defs
     id="defs6">
    <g
       id="shape0">
      <path
         d="M 53.6,0 H 64.1 V 57.55 H 53.6 28.25 0 V 0 H 28.25 53.6 V 57.55 0 M 28.25,0 V 57.55 0"
         fill="#ffffff"
         fill-rule="evenodd"
         stroke="none"
         id="path3" />
    </g>
    <g
       id="shape1"
       transform="translate(0.2,0.3)">
      <path
         d="m 60.4,3.2 0.5,-0.15 q 0.7,-0.1 1.15,0.45 0.5,0.6 0.35,1.25 l -0.45,0.8 -0.9,0.35 -0.9,-0.3 Q 59.75,5.25 59.65,4.8 59.55,4.3 59.75,3.85 60,3.4 60.4,3.2 m -0.85,8.5 q 0.9,-1.25 2.35,-1 1.55,0.25 1.95,1.75 0.2,0.7 -0.1,1.45 -0.25,0.75 -0.85,1.15 -0.6,0.45 -1.4,0.45 l -1.4,-0.45 q -0.75,-0.55 -0.9,-1.55 -0.15,-1 0.35,-1.8 m -19.2,35.6 -0.95,1.2 0.6,0.25 q 0.55,-0.85 1.85,-1.1 l 1.85,0.1 q 1,0.45 1.15,1.35 l 0.05,0.3 q 0.7,-0.45 1.4,-0.45 h 0.95 l 1.15,0.2 -1.25,-1.1 q -0.55,-0.8 -0.5,-1.7 0.1,-1.2 1.1,-1.85 l 2.1,-0.2 0.95,0.65 0.1,-0.2 0.25,-0.55 0.05,-0.7 q 0,-0.8 0.5,-1.55 0.5,-0.7 1.3,-0.95 l 0.7,-0.1 0.3,-1 0.5,-0.6 L 53.7,34 47.75,20.6 q -1,-2.05 -0.45,-3.25 0.35,-0.7 1.15,-1 l 1.5,0.05 q 0.65,0.35 1,1.2 l 0.2,0.5 -1.1,-6.2 -0.5,-2.1 -0.4,-1.05 -0.3,-1.05 q 0,-0.85 0.6,-1.45 0.6,-0.65 1.4,-0.7 0.8,-0.05 1.45,0.5 0.7,0.55 0.8,1.35 l -0.05,1.05 -0.2,1.05 0.05,1.9 0.6,6.9 1.4,9.45 0.25,1.7 L 58,37.3 57.95,35.9 V 32.85 L 57.7,27.65 57.3,24.6 q -0.4,-2.3 0.25,-3.3 0.35,-0.55 1.05,-0.8 l 1.3,-0.05 q 0.65,0.2 1.05,0.75 0.45,0.55 0.45,1.2 l -0.2,1.4 q -0.25,0.85 -0.55,2.75 L 59.7,33.05 59.75,32.9 60,32.55 q 0.8,-0.9 1.65,-0.9 l 0.9,0.2 0.75,0.55 0.3,0.85 -0.35,1.55 -0.45,1.1 -0.7,0.9 0.45,0.65 0.35,1.3 0.15,1.4 0.15,0.7 -0.05,0.7 -0.4,1.45 0.05,0.1 0.45,0.55 0.35,0.35 q 0.45,0.5 0.5,1.25 l -0.35,1.3 -0.05,0.05 -1.4,1.5 -1.1,0.4 -0.7,-0.05 -0.05,0.4 q -0.1,1.3 -1.3,2 L 56.75,50.8 Q 55.9,50.4 55.4,49.35 L 55.25,48.9 54.3,49.15 h -0.6 l -0.55,0.15 v 0.15 1.2 L 53,51.25 q -0.4,0.75 -1.35,0.45 -0.5,-0.1 -1.3,-0.8 l -0.45,-0.4 0.2,0.7 -0.05,0.75 -0.25,0.6 -0.7,0.85 -0.4,0.45 -0.3,-0.1 H 47.8 47.1 L 46.7,53.9 44.65,53.8 44,53.25 l -2,-0.2 -3.7,-0.6 q -1.65,-0.5 -2.15,-1.4 -0.4,-0.7 -0.15,-1.5 0.2,-0.6 0.75,-0.95 l -0.8,-0.9 q -1.4,-0.1 -1.9,0.3 l -0.5,0.75 -0.55,0.75 -1.35,0.25 -1.45,0.1 Q 29.85,50 29.35,50.4 l -0.8,0.65 -2.35,0.05 q -1,-0.6 -1.1,-1.7 H 25.05 L 24.3,49.3 q -3.65,-2.85 -9.35,-4.65 -3.9,-1.2 -4.75,-1.6 L 8.4,42.25 6.85,41.55 Q 6.15,41 5.95,40.05 5.7,39.1 6.2,38.3 6.65,37.5 7.6,37.25 l 1.75,0.2 1.3,1.05 2.6,1.7 q 7.05,3.8 9.85,6.15 1.65,1.3 2,2.5 0.15,-1.35 1.8,-2.3 l 3,-1.35 1.55,-0.9 0.35,-0.2 -0.45,-0.6 -0.15,-0.3 -0.7,-0.9 -0.2,-0.25 -0.3,-0.2 q -0.75,-0.4 -0.65,-1.25 0,-0.5 0.3,-0.8 0.35,-0.35 0.8,-0.35 l 0.1,-0.05 q 0.6,0 1,0.5 0.35,0.5 0.15,1.1 l 1,2.65 0.4,-0.15 3.85,-0.1 1.15,-0.05 0.7,-0.45 q 0.85,-0.6 1.75,-0.65 l 1.35,-0.1 0.95,-0.55 0.95,-0.55 1.05,-0.35 0.2,-0.25 -0.35,-1.15 -0.15,-1.15 -0.45,-3.1 -0.5,-1.2 -0.7,-0.8 q -0.65,-1 0,-1.95 0.7,-0.95 1.8,-0.7 1.15,0.25 1.35,1.4 L 46,32.9 46.1,34 46.85,33.95 q 0.7,0.1 1.1,0.6 0.45,0.6 0.35,1.3 -0.05,0.65 -0.65,1.15 l -0.9,0.4 -0.4,0.05 0.1,1.4 q 0.35,-0.2 0.75,-0.3 1.3,-0.3 2.25,0.35 1.05,0.8 0.85,1.7 -0.15,0.75 -0.85,0.9 -0.7,0.25 -1.2,-0.25 -0.3,0.3 -0.3,1 l -0.2,1.1 q -0.25,0.5 -1.1,0.85 l -1.35,0.5 -1.25,1.2 q -0.75,0.75 -1.5,0.75 L 41.9,46.5 h -0.7 l -0.85,0.8 M 55.55,8 55.15,6.5 55.1,5.6 55.15,5 q 0.15,-0.85 1.1,-0.95 0.9,-0.1 1.25,0.7 L 57.7,5.65 57.5,6.5 57.2,6.9 56.9,7.65 56.25,10.6 56,10.75 q -0.3,0 -0.3,-0.35 V 9.9 Q 55.45,9.05 55.5,8.6 L 55.55,8.25 V 8 m -9.7,-3.55 q -0.5,-0.4 -0.7,-0.95 -0.3,-0.8 0,-1.65 0.25,-0.65 0.9,-1.05 0.6,-0.4 1.3,-0.35 0.7,0.05 1.3,0.5 Q 49.2,1.4 49.4,2.1 L 49.35,3.5 48.5,4.55 45.85,4.45 M 43.25,11 42.9,12.15 42.25,12.8 q -0.05,1 -0.5,1.75 l -0.2,0.5 0.1,0.5 q 0.4,0.8 0.4,1.6 0.1,0.85 -0.4,1.55 l -0.85,0.8 -0.55,2.35 -0.55,1.3 q -0.9,1.85 -1.9,2.35 -0.5,2.15 -1.6,2.85 l -2.5,0.05 -0.55,-0.45 -0.2,0.15 -1.5,0.45 q -0.8,-0.05 -1.45,-0.7 -0.5,-0.6 -0.5,-1.35 0,-0.75 0.5,-1.35 0.45,-0.5 1.4,-0.8 l 1.7,-0.1 0.2,-0.85 0.7,-0.95 1,-0.8 q 1.6,-1.3 2.55,-3.25 L 37.8,17.85 37.35,16.65 37.3,16.4 37.2,16.35 36.7,15.95 35.2,14.85 35.05,14.8 H 34.8 q -1.25,0.2 -1.85,-0.9 -0.6,-1.1 0.25,-2.05 0.85,-0.95 2.05,-0.45 l 0.8,0.7 0.25,1.05 1.05,1.35 0.1,-0.25 0.45,-0.6 L 39.25,12.3 39.7,12.1 39.6,12 39,11.2 Q 38.6,10.5 38.6,9.7 l 0.25,-1.45 0.3,-0.55 1.15,-1.1 1.55,-0.15 0.5,0.35 0.7,0.6 q 0.75,0.8 0.3,1.95 L 43.2,9.7 43.25,11 m -0.4,4.7 q -0.4,-1.45 -0.15,-2.15 0.4,-0.95 1.45,-1.1 1,-0.1 1.6,0.75 l 0.45,1.85 q 0.35,5.7 1.6,11.45 l 0.3,1.95 -0.2,0.5 q -0.2,0.1 -0.35,-0.15 l -1.05,-1.75 -0.45,-1.3 -1.45,-5.05 -1.75,-5 m 14.95,2.1 -0.75,-0.35 q -0.3,-0.35 -0.3,-0.8 0,-0.6 0.5,-0.95 l 1.2,-0.05 q 0.65,0.4 0.55,1.1 0,0.5 -0.4,0.8 l -0.8,0.25 m 1.3,18.7 q 0.2,-0.15 0.5,-0.2 l -0.3,-0.8 -0.2,1 M 40.5,37.1 40,36.35 q -0.6,-1 0.05,-1.7 0.25,-0.4 0.75,-0.45 0.5,-0.1 0.85,0.2 l 0.5,1 0.05,1.3 -0.15,1.6 L 41.8,40.15 41.6,39.9 41,38.45 40.5,37.1 M 36.2,9.15 Q 35.9,8.6 36.1,8.05 36.15,7.75 36.5,7.4 L 38,7.3 Q 38.85,7.75 38.65,8.65 38.5,9.6 37.6,9.75 36.7,9.9 36.2,9.15 M 22.7,9.05 q 0.6,-0.7 1.45,-0.6 0.9,0.2 1.2,1 l -0.05,1.35 -1.65,10.1 -1.1,5.6 -0.2,0.45 -0.4,0.1 -0.2,-0.45 0.05,-3.85 0.2,-4.25 q 0,-1.55 0.15,-3.15 l 0.2,-2.75 -0.1,-2.4 q 0.1,-0.7 0.45,-1.15 m 11.15,9.1 0.1,0.4 -0.1,0.45 Q 33.5,19.5 32.9,19.25 32.35,19 32.55,18.35 l 0.05,-0.2 q 0.3,-0.3 0.55,-0.3 l 0.1,-0.05 q 0.4,0.1 0.6,0.35 M 13.4,5.5 q -0.6,-0.6 -1.05,-1.75 -0.3,-0.7 -0.3,-1.15 0,-0.7 0.45,-1.15 0.35,-0.35 0.8,-0.25 0.4,0.05 1.55,0.95 l 0.85,0.55 0.8,0.65 q 0.65,0.8 0.25,1.8 l -0.25,0.5 q 0.25,0.55 -0.05,1.6 V 7.7 l 0.2,0.2 0.4,0.5 0.4,1 0.1,0.75 q 0.05,0.55 -0.3,1.05 l -0.75,0.6 0.7,0.75 q 0.65,0.95 0.65,1.7 0,1.4 -1.15,1.95 l -2.3,-0.1 -0.75,-0.85 q -0.25,-0.5 -0.25,-1.2 0,-1.1 0.6,-1.95 l 0.7,-0.6 -0.35,-0.45 -0.25,-0.4 -0.45,-0.4 -0.4,-0.45 -1,0.35 q -1.25,0.4 -1.85,0.8 l -1.25,0.7 Q 8.65,11.75 8.2,11.45 7.75,11.15 7.8,10.65 7.8,9.9 8.75,9.6 L 10.25,9.4 11.8,9.15 12.75,8.85 13,8.8 13.35,7.1 13.65,6.15 13.8,5.85 13.4,5.5 M 9.9,21.9 9.4,21.6 9.35,21.25 9.45,20.95 Q 9.6,20.7 9.95,20.7 v -0.05 q 0.3,0 0.5,0.3 0.2,0.3 0.05,0.55 l -0.05,0.2 -0.25,0.2 H 9.9 m 5.4,-2.15 -0.05,-0.55 q 0,-0.95 1,-1.2 0.9,-0.25 1.5,0.55 0.5,0.85 -0.05,1.6 l -0.05,0.1 0.25,0.5 q 0.2,0.6 -0.05,1.1 l -0.7,0.9 L 15.6,24 14.75,24.3 Q 14.3,24.25 14.05,23.85 13.8,23.4 13.9,23 l 0.35,-0.75 0.4,-1 0.55,-0.9 0.25,-0.2 -0.15,-0.4 M 11.35,14.1 q 0.65,0 0.95,0.65 0.25,0.6 -0.25,1.1 -0.45,0.45 -1.1,0.2 -0.55,-0.25 -0.65,-0.9 0,-0.35 0.25,-0.65 0.3,-0.3 0.65,-0.35 l 0.15,-0.05 m 14.05,24.05 0.25,1.1 -0.15,0.6 q -0.35,0.25 -0.6,-0.1 L 24.55,39.2 23.75,38.3 22.8,37.55 q -0.9,-0.8 -1.9,-2.4 L 18.35,31 16.8,29.05 15.85,27.95 Q 14.7,26.7 14.7,25.8 q 0,-0.85 0.65,-1.4 0.65,-0.55 1.5,-0.4 1.1,0.25 1.85,1.7 l 1.25,2.9 2.65,3.8 1.4,2.75 0.6,1.55 0.8,1.45 m -10.65,-8.8 -0.2,-0.1 -0.3,-0.4 q -0.1,-0.45 0.25,-0.7 0.45,-0.4 0.85,0 0.5,0.4 0.2,0.85 -0.25,0.55 -0.8,0.35 M 2.9,30.5 q -0.1,-0.75 0.3,-1.35 0.65,-1.15 2.05,-1 1.3,0.1 1.85,1.4 0.4,1.25 -0.5,2.25 L 5.55,32.4 4.35,32.35 Q 3,31.9 2.9,30.5 m 1.15,4.85 q 0.45,0.6 0,1.15 -0.4,0.55 -1.1,0.4 -0.6,-0.25 -0.7,-0.95 l 0.05,-0.2 q 0.1,-0.7 0.85,-0.8 0.6,-0.1 0.9,0.4 m -2.9,8.3 -0.3,-0.55 V 42.35 Q 1.2,41.2 2.3,41.3 q 0.5,0 0.9,0.35 0.4,0.3 0.45,0.8 l -0.1,0.9 -0.7,0.7 -0.9,0.1 Q 1.45,44 1.15,43.65 m 15.4,-2.55 q -0.85,0.25 -1.5,-0.35 -0.6,-0.6 -0.45,-1.45 0.15,-0.85 0.8,-1.15 0.75,-0.35 1.4,0 l 0.65,0.7 q 0.35,0.7 0.05,1.35 l -0.95,0.9 M 8.2,48.8 q 1.15,-0.85 3.15,-0.35 l 3.4,1 3.4,1.05 3.85,0.8 7.2,1.15 q 4.05,0.75 7,1.9 0.4,0.1 0.6,0.3 0.3,0.4 0.05,0.65 l -0.8,0.1 -0.55,-0.15 0.05,0.65 -0.35,0.4 H 34.65 L 34.3,56.1 33.85,56.05 Q 31.9,56.1 29.35,56.8 L 28.6,57 27.45,57.4 H 26.4 l -0.8,-0.65 -0.2,-0.65 -6.55,0.3 -1.55,0.1 -1.4,0.15 -1.45,0.25 Q 13.6,57 13.05,56.6 12.55,56.25 12.45,55.65 12.35,55 12.8,54.55 13.35,54 14.7,54.1 h 0.65 l 2.4,0.35 3.35,0.2 q 2.45,-0.05 3.45,0.05 L 25.8,54.8 26.7,54.15 11.45,53.1 Q 8.65,53 7.8,51.9 7.25,51.2 7.4,50.25 7.5,49.3 8.2,48.8 m 21.35,-14.45 -0.05,-0.3 -1.1,-2.15 -0.1,-0.4 -0.45,-1 q -0.3,-0.5 -0.3,-1.05 0,-0.45 0.3,-0.8 l 0.75,-0.4 0.85,0.15 0.55,0.6 0.15,0.65 v 0.6 l 0.6,3.35 -0.05,1 -0.35,0.3 -0.8,-0.55 m -3.15,8.4 q 0.4,-0.4 0.95,-0.15 0.55,0.25 0.45,0.9 -0.1,0.55 -0.7,0.65 -0.6,0.1 -0.9,-0.45 -0.25,-0.5 0.2,-0.95 m 9.2,-3 q -0.05,-0.45 0.25,-0.85 0.3,-0.35 0.75,-0.45 l 0.9,0.2 0.55,0.65 q 0.25,0.85 -0.35,1.35 -0.6,0.6 -1.35,0.25 -0.85,-0.35 -0.75,-1.15"
         fill="#999999"
         fill-rule="evenodd"
         stroke="none"
         id="path4" />
      <path
         d="M 21.2,48.35 Q 18.3,50.7 14.7,52.1 L 10.2,52.3 9.3,51.55 Q 8.75,51.2 8.55,50.65 8.05,49.35 8.85,47.95 9.45,47 10.9,46 12.95,44.65 15.55,43.75 L 18,43 l 2.4,-0.85 2.25,-1.05 1.25,-1 1.8,-1.45 1.8,-1.7 0.35,-0.3 -1.4,-1.25 -1.05,-1.25 q -0.55,2.1 -1.6,2.75 l -1.55,0.3 -0.3,-0.05 0.45,0.35 1.2,1.2 q 0.35,0.65 0.15,1 -0.25,0.4 -0.7,0.3 l -0.75,-0.2 -3.25,-2.05 -2.1,-1.6 -0.8,-0.7 -1.1,-0.35 q -0.75,-0.25 -1.2,-1 l -0.15,-0.35 0.1,0.6 q 0.25,1.45 -0.15,2.5 Q 13,38.6 11.2,39.1 9.35,39.6 7.95,38.5 7.1,37.8 6.5,36.5 L 5.85,34.9 5.65,33.2 4.8,29.05 Q 4.1,28.5 3.55,27.15 1.4,22.05 -0.2,14.6 V 3.8 Q 0.3,3.5 0.95,3.25 l 3.7,-1.7 Q 6.85,0.45 8.35,0 L 9.3,-0.3 h 6.95 v 0.05 q 1.65,2.5 2.4,6.1 0.55,2.65 0.8,6.65 l 0.1,2.35 0.35,-0.4 q 0.5,-0.4 1.2,-0.5 L 19.7,9 Q 19.15,7.6 19.3,6.9 19.55,5.85 20.55,5.6 21.7,5.45 22.2,6.3 l 0.3,1.15 0.55,4.05 0.1,3.5 0.25,0.5 -0.05,1.4 -0.05,0.25 0.3,4.5 0.3,-0.85 1.3,-7.2 Q 26.1,7.95 26.3,3.4 26.4,2.2 26.65,1.7 27.2,0.8 28.45,0.55 l 2.15,0.05 6.75,1.1 q 3.7,0.85 6.35,2.2 1.15,0.55 1.6,1.2 0.45,0.7 0.45,2.65 l -0.25,3.7 -0.8,3.65 q -0.95,4.1 -2.05,6.25 l -0.7,1.2 q 3.25,1.8 5.85,4.75 l 0.45,-0.9 q 0.45,-0.45 1.1,-0.55 l 1.15,0.2 q 0.6,0.35 0.8,0.95 l 0.2,1.3 0.4,1.45 q 2.35,6.65 3.05,11.6 l 0.4,3.35 0.1,0.65 -1.15,-12.9 -0.2,-0.1 Q 53.4,32 53,31.3 q -0.35,-0.65 -0.25,-1.5 0.1,-0.85 0.6,-1.4 l 0.4,-0.3 -1,-7.4 -0.45,-2.5 q -0.55,-2.15 -0.15,-3.1 0.4,-1.15 1.6,-1.4 1.25,-0.25 2.05,0.6 0.8,0.7 1,2.25 l 0.1,3.4 -0.25,3.35 -0.1,4.7 0.55,0.5 0.2,-0.05 1.5,0.25 q 0.7,0.4 1.05,1.1 0.35,0.75 0.2,1.55 l -0.4,1.25 q -0.15,0.55 -0.15,1.8 v 0.2 q 0.4,-0.65 1.2,-0.85 1.15,-0.25 2,0.55 0.6,0.6 0.65,1.4 0.8,0.25 1.1,1 v 2.55 q -0.45,2 -1.15,3 l -0.5,0.85 -0.8,3.25 0.05,0.05 0.8,0.5 q 0.55,0.5 0.65,1.4 l -0.05,1.2 q 0.6,0.4 0.85,1.05 l 0.15,0.65 v 1.7 l -0.55,2.6 q -0.55,1.25 -1.45,1.9 H 48.7 l -0.3,-0.3 -0.15,-0.25 -0.1,0.05 -0.65,0.2 -0.5,0.3 h -5.65 l -0.1,-0.2 h -0.9 l -1.6,0.2 h -6.2 q -0.15,-0.55 -0.05,-1.1 0.2,-0.8 0.75,-1.35 0.4,-0.35 1.3,-0.75 L 35,54 31.9,53.5 29.65,53.15 29.3,54 q -0.65,1 -1.75,1.2 -1.15,0.15 -2,-0.45 Q 24.6,54 24.5,52.9 l -0.05,-0.4 0.15,-0.75 0.1,-0.2 -1.35,-0.8 Q 22,49.8 21.2,48.35 M 59.75,22.6 59.9,22.55 q 0.9,-0.35 1.4,0.35 0.6,0.7 0.15,1.5 -0.5,0.75 -1.35,0.6 -0.9,-0.3 -1,-1.1 -0.15,-0.85 0.65,-1.3 m 0.1,-5.05 -0.2,-1.3 -0.25,-4.05 q 0,-1.4 -0.45,-2.15 l -0.4,-0.7 Q 58.3,8.85 58.4,8.25 58.5,7.7 58.9,7.3 59.3,6.9 59.9,6.85 L 61,7 q 0.5,0.25 0.75,0.8 l 0.15,1.1 -0.3,0.7 -0.3,0.5 -0.1,0.6 -0.25,4.4 -0.25,1.55 -0.25,1.1 L 60.1,18 Q 59.85,17.9 59.85,17.55 M 54.55,6.1 54.15,6.4 53.1,6.45 52.75,6.2 52.4,5.4 q 0,-0.45 0.25,-0.8 0.25,-0.35 0.7,-0.45 l 0.85,0.15 0.55,0.65 v 0.8 L 54.55,6.1 M 38.7,21.3 39.6,19.15 41.15,14.1 q 1.05,-3.8 0.9,-6.05 L 41.85,7.4 41.15,6.95 37.85,5.85 33.5,5.1 29.15,4.2 l -1.05,8 -1,5.05 q -0.4,4.95 -1.35,8 l -0.1,0.35 q 4.05,1.15 6.85,1.25 l 2.2,-0.35 0.85,-0.7 0.8,-0.85 0.95,-0.85 0.8,-1 0.6,-1.8 m 9.2,1.15 -0.25,-0.5 L 46.6,18.3 45.95,16.55 45.3,15.2 q -0.3,-1.1 0.65,-2 0.95,-0.75 2.05,-0.25 1.05,0.5 1.15,1.75 l -0.05,0.7 0.15,1.05 0.15,1.85 0.05,1.6 v 0.7 l -0.1,0.7 -0.1,1.25 L 49,23.1 q -0.2,0.3 -0.55,0.2 L 48,22.9 47.9,22.45 m 2.7,1.2 q 0.35,-0.25 0.75,-0.2 l 0.5,0.15 q 0.75,0.5 0.4,1.35 l -0.75,0.6 q -0.9,0.2 -1.25,-0.6 -0.15,-0.35 -0.05,-0.7 l 0.4,-0.6 m -11.1,5.9 q 0.1,-1 1.1,-1.35 1,-0.35 1.75,0.4 0.7,0.75 0.35,1.75 -0.35,0.9 -1.2,1.05 -0.85,0.25 -1.55,-0.45 -0.6,-0.6 -0.45,-1.4 m 12.9,20.3 -3.05,-3.9 -0.1,-0.1 -0.35,-0.35 -0.55,0.4 0.6,1.2 1.45,3.6 q 0.9,-0.45 1.9,-0.45 h 0.4 l -0.3,-0.4 m -10.85,-0.45 -4.25,1.5 0.45,0.15 2.5,0.9 0.05,-0.3 q 0.35,-0.85 1,-1.4 0.5,-0.4 1,-0.55 l -0.1,-0.55 -0.65,0.25 m -12.5,-1.1 q 4.65,0.25 10.65,-1.95 5.65,-2.05 8.35,-4.75 1.5,-1.6 1.6,-2.9 0.1,-1.05 -0.65,-2.75 -3.3,-7.75 -8.65,-10.3 -3.3,6 -9.65,12.1 l -4.15,3.45 -0.65,0.6 -2.3,2.1 q 0.8,2.55 2,3.45 1.25,0.85 3.45,0.95 M 60.9,42.9 60.55,41.1 Q 60.4,40.25 60.5,38.5 l 0.05,-0.7 -1,-0.75 0.15,8.85 0.55,-0.15 h 0.4 l 0.3,0.1 -0.05,-2.95 m -7.75,2.35 -0.25,-1.1 -0.2,0.4 -0.55,0.8 1.55,2.25 -0.55,-2.35 m 3.8,1.5 0.05,1.45 q 0.45,-0.9 1.1,-1.45 L 56.6,36.6 q 0.1,6.3 0.35,10.15 M 30.75,5.9 31.45,5.85 q 0.55,0.1 0.95,0.6 l 0.35,1.1 -0.55,1 -1,0.45 Q 30.65,9 30.15,8.6 29.7,8.2 29.6,7.65 29.5,7.1 29.85,6.55 30.2,6.05 30.75,5.9 m -4.9,-1 q 0.1,0.7 -0.3,1.15 l -0.9,0.6 -1,-0.1 L 22.9,5.8 q -0.25,-0.55 -0.1,-1.05 0.1,-0.5 0.55,-0.85 0.5,-0.35 1,-0.3 1.25,0.1 1.5,1.3 m -6.1,17 q 0.7,0.3 1.55,1.35 l 1.05,1.85 0.05,0.1 0.35,-1.05 -0.85,-5.85 -0.6,0.05 q -0.7,0 -1.25,-0.4 l -0.45,-0.35 -0.2,4.2 0.35,0.1 m -8.05,2.3 1.65,-0.65 1.95,-0.65 1,-0.5 0.25,-0.95 Q 16.7,18.7 16.25,14 L 15.9,9.7 15.25,5.6 Q 14.7,3.35 13.6,1.85 11.05,2.6 6.5,4.85 L 2.25,6.9 2.9,9.95 q 0.6,4.1 1.9,8.2 l 2.6,6.8 2.15,-0.3 2.15,-0.45 M 6.3,9.8 5.1,9.65 4.4,9.15 Q 3.65,8.15 4.35,7 L 5.25,6.35 6.35,6.3 Q 6.9,6.5 7.25,6.95 L 7.6,8 7.3,9.1 6.3,9.8 M 19.85,32.85 21,29.4 l -0.15,-0.15 -2.6,-2.1 q -1.1,-0.8 -1.45,-1.35 l -0.15,-0.3 -0.95,0.2 q -0.75,0.2 -1.65,0.8 l -1.6,1.05 -1.5,0.75 0.35,0.5 1.05,1.6 0.75,1.55 0.45,1.4 V 32.6 q 0.1,-0.75 0.7,-1.35 0.6,-0.55 1.4,-0.65 0.8,-0.05 1.5,0.4 0.65,0.5 0.9,1.25 l 0.25,0.85 0.45,0.65 0.8,0.95 q -0.05,-0.8 0.3,-1.85 M 6.8,42.8 Q 6.65,42.25 6.9,41.7 7.1,41.1 7.6,40.85 l 1.15,-0.2 0.95,0.5 q 0.45,0.45 0.45,1.05 l 0.1,0.9 0.45,0.3 0.4,0.25 -0.05,0.6 -0.6,0.35 Q 9.2,45.05 7.85,44.15 7,43.55 6.8,42.8 M 5.6,44.2 6,45 5.8,45.85 5.5,46.25 Q 4.95,46.65 4.3,46.5 3.65,46.35 3.35,45.7 3.15,45.25 3.3,44.75 3.45,44.25 3.85,44 4.8,43.4 5.6,44.2 M 31.55,30.2 26.2,29.5 26.1,30.35 26,31 l 2.75,3.9 0.3,0.5 4.55,-5.3 -2.05,0.1 M 22.2,55.5 q -0.5,0.45 -1.25,0.5 -0.7,0 -1.25,-0.4 -1.05,-0.75 -0.7,-2.1 0.2,-0.55 0.7,-0.95 0.5,-0.4 1.1,-0.4 l 1.15,0.3 0.75,0.9 q 0.25,0.55 0.1,1.15 l -0.6,1 M 10.5,55.2 Q 9.6,55.2 9.25,54.35 9.15,54 9.3,53.6 L 9.8,53 q 0.7,-0.5 1.45,0.15 l 0.35,0.8 -0.25,0.8 -0.85,0.45 m 37.85,-2.7 0.2,-0.25 -1.65,-2 -0.15,0.2 -0.9,0.8 0.3,1.3 h 0.75 l 1.25,0.4 0.2,-0.45"
         fill="#000000"
         fill-rule="evenodd"
         stroke="none"
         id="path5" />
    </g>
    <g
       id="shape2"
       transform="translate(1.5,1.5)">
      <path
         d="M 0,23.8 V 0 H 64.1 V 23.8 57.55 H 0 Z"
         fill="none"
         stroke="#000000"
         stroke-linecap="round"
         stroke-linejoin="round"
         stroke-width="3"
         id="path6" />
    </g>
  </defs>
</svg>
