<?xml version="1.0" encoding="UTF-8" standalone="no"?>
<svg
   ffdec:objectType="frame"
   height="44.349998"
   width="78.599998"
   version="1.1"
   id="svg11"
   sodipodi:docname="294.svg"
   xmlns:inkscape="http://www.inkscape.org/namespaces/inkscape"
   xmlns:sodipodi="http://sodipodi.sourceforge.net/DTD/sodipodi-0.dtd"
   xmlns:xlink="http://www.w3.org/1999/xlink"
   xmlns="http://www.w3.org/2000/svg"
   xmlns:svg="http://www.w3.org/2000/svg"
   xmlns:ffdec="https://www.free-decompiler.com/flash">
  <sodipodi:namedview
     id="namedview11"
     pagecolor="#ffffff"
     bordercolor="#000000"
     borderopacity="0.25"
     inkscape:showpageshadow="2"
     inkscape:pageopacity="0.0"
     inkscape:pagecheckerboard="0"
     inkscape:deskcolor="#d1d1d1"
     fit-margin-top="5"
     fit-margin-left="5"
     fit-margin-right="5"
     fit-margin-bottom="5" />
  <g
     transform="translate(2,2.05)"
     id="g3">
    <use
       ffdec:characterId="1"
       height="42.700001"
       transform="translate(-1.75,-2)"
       width="76.449997"
       xlink:href="#shape0"
       id="use1" />
    <use
       ffdec:characterId="288"
       height="42.349998"
       transform="translate(-1.85,-0.4)"
       width="76.900002"
       xlink:href="#shape1"
       id="use2" />
    <use
       ffdec:characterId="3"
       height="44.349998"
       transform="translate(-2,-2.05)"
       width="78.599998"
       xlink:href="#shape2"
       id="use3" />
  </g>
  <defs
     id="defs11">
    <g
       id="shape0"
       transform="translate(1.75,2)">
      <path
         d="M 2.8,0 V -0.4 H 5.4 V 0 H 9.7 V 19.45 0 H 20.55 L 19.3,19.45 H 9.7 0.25 V 0 H 2.8"
         fill="#ffffff"
         fill-rule="evenodd"
         stroke="none"
         id="path3" />
      <path
         d="M 0.25,19.45 H 9.7 19.3 L 18.7,28.6 16,28.5 10.95,27.95 9.7,27.8 Q 7.45,27.6 5.85,27.75 4.05,27.9 1.5,28.6 0.75,28.8 0.25,29.15 v -9.7 m 9.45,0 v 8.35 -8.35"
         fill="#121212"
         fill-rule="evenodd"
         stroke="none"
         id="path4" />
      <path
         d="m 9.7,27.8 1.25,0.15 5.05,0.55 2.7,0.1 h 1.05 l 3.75,0.15 q 2.45,0.3 3.6,1.25 0.6,0.5 0.6,1.1 0,0.65 -0.8,1 l -1.3,0.2 -7.15,0.15 -5.6,-0.3 L 9.7,31.75 7.95,31.6 3.1,31.95 0.95,32.3 0.25,32.1 -0.35,31.55 -0.5,31.3 V 29.9 L 0.25,29.15 Q 0.75,28.8 1.5,28.6 4.05,27.9 5.85,27.75 7.45,27.6 9.7,27.8 v 3.95 -3.95"
         fill="#999999"
         fill-rule="evenodd"
         stroke="none"
         id="path5" />
      <path
         d="M 2.8,0 H 0.25 M 9.7,0 H 5.4 m 16.15,0 h 10.7 M 20.55,0 H 9.7"
         fill="none"
         stroke="#666666"
         stroke-linecap="round"
         stroke-linejoin="round"
         stroke-width="4"
         id="path6" />
      <path
         d="m 9.7,-0.4 h 65 V 40.5 H 47.05 L 45.5,40.7 27,40.65 25.95,40.5 H 9.7 -0.5 V -0.4 H 9.7 V 40.5 -0.4"
         fill="#ffffff"
         fill-rule="evenodd"
         stroke="none"
         id="path7" />
    </g>
    <g
       id="shape1"
       transform="translate(1.85,0.4)">
      <path
         d="M 57.85,-0.25 58.8,-0.4 q 0.65,0.1 0.65,0.6 0.05,0.45 -0.8,0.9 -4,1.9 -9.95,5.75 L 38.95,13 q -1.6,0.85 -2.4,0.7 -0.85,-0.15 -1.3,-1 -0.5,-0.85 -0.15,-1.65 0.4,-0.9 2.2,-1.75 L 43.65,6 Q 47.5,3.95 50.1,3.05 l 2.9,-1 2.45,-1.15 2.4,-1.15 M 73.3,0.2 74,0.1 q 0.45,0.1 0.45,0.5 l -0.55,0.55 -7.4,4.3 q -10.15,6.35 -12.75,8 -1.3,0.75 -1.9,0.75 -0.75,-0.05 -1.3,-0.65 -0.5,-0.6 -0.45,-1.3 0.1,-1.2 2.15,-2.4 3.5,-1.95 7.3,-3.75 L 66.7,2.8 71.1,0.9 73.3,0.2 m 1,4.7 -2.7,2.3 -2.3,1.55 -2.4,1.5 L 57.35,16 55.8,16.45 Q 55.3,16.4 54.95,16 q -0.35,-0.4 -0.4,-0.9 0,-0.65 0.55,-1.3 0.5,-0.5 1.2,-0.85 2.55,-1.5 6.8,-3.45 l 3.7,-1.75 q 5,-2.3 7,-2.95 l 0.5,0.1 M 45.55,32.3 Q 45.1,32 45,31.45 q -0.1,-0.6 0.15,-1.05 0.35,-0.7 1.5,-1.5 2.8,-1.85 7.8,-4.3 L 67.25,18.2 73.8,15 q 0.35,-0.25 0.75,-0.2 0.6,0 0.5,0.5 l -0.4,0.5 Q 63.2,24.05 49.8,31.15 l -2.7,1.2 -1.55,-0.05 m 4.35,-0.2 5.65,-3.5 10.95,-5.7 q 3.25,-1.7 5.3,-2.05 l 0.3,0.05 -0.15,0.35 -13.65,9.25 q 2.9,-1.25 4.6,-1.35 l 0.6,0.1 0.4,0.45 -0.5,0.65 -2.4,1.5 -8.05,4.1 q -1,0.5 -1.55,0.45 l -0.9,-0.65 -0.2,-0.5 H 50.15 Q 48.8,35.35 48.5,34.3 48.3,33.7 48.8,33 l 1.1,-0.9 m 1,-31.4 -5.4,2.95 -9.1,5.25 -1.6,1 Q 34.05,10.05 33.4,9.55 32.8,8.95 32.95,8.2 33.1,7.2 34.8,6.35 37.75,4.9 42.65,3.05 l 8,-3.05 0.7,0.05 Q 51.6,0.45 50.9,0.7 M 30.75,9 31.9,9.9 q 3.4,3.95 3.1,11.65 -0.1,2.5 -0.55,4.45 -1.4,5.7 -6.15,8.95 -4.75,3.35 -10.55,2.65 -2.6,-0.35 -3.8,-1.5 -0.7,-0.6 -0.5,-1.15 0.25,-0.5 0.85,-0.5 l 1.05,0.2 8.75,-0.25 q 4.35,-1.6 6.75,-5.6 0.9,-1.45 1.25,-2.9 0.75,-2.65 0.4,-6.5 -0.3,-3.1 -1.15,-5.2 L 30.3,12.95 28.1,10.3 Q 25.8,8.15 22.25,7.65 l -6.4,0.5 q -2,0.55 -3.3,1.2 -1.35,0.7 -3.4,2.55 -1.8,1.7 -2.5,2.95 -0.8,1.45 -1.3,4.4 -0.5,3.5 -0.65,6 l -0.15,1 Q 4.3,26.8 3.8,26.8 3.25,26.75 2.9,25.75 q -0.65,-2.2 -0.25,-6 0.4,-4.5 1.6,-6.6 0.55,-0.9 2.65,-3 Q 9.35,7.8 10.95,6.9 13.05,5.7 16,5.1 l 7.55,-0.2 q 4.1,0.75 6.65,3.5 L 30.7,9 h 0.05 m -4.6,7.75 q -0.1,-0.1 -0.9,-0.35 -1.55,-0.4 -2.6,-1.5 l -1.35,-1.05 -1,-0.05 q -4.1,0.5 -7.55,4.2 -0.85,0.95 -1.25,1.8 -0.45,0.85 -0.55,2.05 -0.15,1 0,1.95 0.2,1.05 0.95,2.25 l 1.4,2.05 q 0.75,1.05 0.75,1.8 l 5.7,0.2 q 3,-0.3 4.25,-1.2 l 1.4,-1.4 q 1.45,-1.95 1.95,-3.7 0.7,-2.15 0.2,-4.15 l -0.8,-2.05 -0.6,-0.85 m -16.35,20.3 2.4,0.1 2.85,1.1 2.95,0.65 3.8,-0.5 q 3.85,-0.95 6.4,-2.3 3.2,-1.6 5.1,-4.3 l 1.35,-2.55 q 1.45,-3.3 1.5,-6.95 l 0.05,-2.25 0.15,-0.45 q 0.15,-0.25 0.35,-0.2 l 0.3,0.4 q 0.7,2.05 0.3,5.6 l -0.4,3.2 q -1.1,4.95 -5.55,8.4 -3.6,2.8 -9.2,4.25 -6.65,1.65 -11,-0.55 -1.25,-0.65 -1.7,-1.5 -0.3,-0.55 -0.2,-1.15 0.1,-0.65 0.55,-1 M 16.2,34.3 Q 13.3,34.1 12.05,32.65 L 11.3,31.7 10.1,31 Q 8.85,30.25 7.75,28.85 6.65,27.3 6.1,25.45 5.45,23 5.95,20.4 q 0.5,-2.55 2,-4.75 2.9,-4.15 8.15,-5.95 4.95,-1.75 8.75,-0.1 2.2,0.95 4.15,3.3 3.05,3.8 3.1,8.4 0,4.45 -3.05,8.5 -2.1,2.8 -4.55,3.65 L 20.85,34.1 16.2,34.3 M 4.75,33.1 3.85,33.25 Q 2.55,33 1.45,31.8 -0.6,29.7 -1.1,26.2 q -0.3,-2.1 0,-6.25 0.3,-3.7 0.95,-5.45 0.6,-1.55 1.85,-3.2 2.75,-3.75 6.6,-6.05 4.05,-2.4 8.4,-2.6 L 18.75,3 Q 12.65,3.8 7.5,8.3 3.35,12 2.35,16.2 L 1.9,19.5 q -0.3,5.05 0.75,7.45 l 1.4,2.6 Q 4.9,31.1 5,32.25 L 4.75,33.1"
         fill="#999999"
         fill-rule="evenodd"
         stroke="none"
         id="path8" />
      <path
         d="m 49.45,20.7 -1.2,-0.1 q -1.15,-0.25 -1.8,-1.05 -0.7,-0.85 -0.7,-1.95 l 0.15,-1.2 0.4,-1.1 0.6,-0.9 -0.1,-1.15 q 0.05,-1 0.95,-1.9 l 0.7,-0.6 L 49.6,9.8 Q 50.9,8.95 52.15,9 53.8,9.1 54.3,10.45 l 0.15,0.5 Q 55.9,9.6 56.9,9.05 58.85,7.9 61.05,7.8 l 7.6,-3.65 1.95,-0.8 h 0.9 Q 72.1,3.45 72,4 L 71.4,4.65 65.9,7.8 64.65,8.7 64.8,8.9 q 0.65,0.7 0.75,1.55 0.05,0.75 -0.3,1.75 -0.65,1.8 -2.35,2.9 l -3,1.25 -3.95,1.05 -0.5,0.1 -0.6,1 -2.3,1.8 q -0.8,0.45 -1.4,0.5 l -1.7,-0.1 m -1.9,8.1 3.6,-0.65 1,0.05 q 0.7,-1.05 2.3,-2 1.25,-0.8 2.35,-1.25 l 0.2,-0.6 q 0.35,-0.7 1.2,-1.5 L 58.85,22.3 61.2,21 63.25,20.85 64.3,21.1 q 0.8,0.4 1,1.2 0.2,0.9 -0.35,1.85 l -1.35,1.4 0.45,-0.1 0.65,-0.05 h 1.05 q 0.95,0.2 1.55,1.05 0.45,0.6 0.4,1.35 -0.05,0.7 -0.55,1.25 l -0.85,0.55 -2.7,1.1 -0.95,0.2 H 62.4 L 62.3,31 q -1.1,1.15 -2.9,1.45 l -2.85,-0.1 -0.55,0.7 -1.3,1.25 1.35,-0.45 2.5,-0.75 0.65,0.05 -0.1,0.55 -0.55,0.3 -1.6,1.05 Q 56.2,35.5 55.4,35.9 l -4.05,1.55 -2.75,0.25 -0.55,-0.15 -3,-0.3 Q 43,36.5 42.75,34.45 l 0.15,-1.55 0.45,-1.3 q 0.55,-0.75 1.95,-1.7 l 1,-0.7 1.25,-0.4 M 30.35,6.8 Q 30.2,6.45 30.2,5.95 30.2,3.9 32.1,2.6 33.7,1.55 35.95,1.55 L 36.9,1.6 q 0.65,0.15 1.1,0.55 l 0.25,0.2 Q 38.45,2.2 38.8,2.1 l 0.55,-0.15 h 1 L 41.3,2 41.95,2.25 42.8,2.9 q 0.55,0.7 0.45,1.6 l -0.1,0.65 -0.3,0.6 L 42.4,6.2 Q 41.4,7 39.6,7 H 39.25 L 39,7.55 38.5,8.3 38.85,8.9 39.2,9.6 43.85,8 Q 45.05,7.45 45.4,7.35 L 46.8,7 q 0.6,-0.1 0.8,0.2 0.15,0.25 -0.1,0.6 l -0.55,0.35 -3.55,1.65 -4.35,2.8 -0.2,0.25 -0.8,0.75 -0.9,0.55 -2.05,0.3 -2.8,-0.3 -1.05,-0.5 L 30.3,13 Q 29.35,12.15 29.2,10.85 29,9.8 29.35,8.4 L 29.75,7.55 30.4,6.9 30.35,6.8 m 7.4,-1.4 q 0.85,-0.9 0.3,-2.1 -0.6,-1.2 -1.9,-1.1 -1.3,0.15 -1.7,1.35 -0.35,1.3 0.6,2.05 0.35,0.35 0.9,0.45 L 36.75,6 q 0.55,-0.05 1,-0.6 m 21.3,24.8 q 0.15,0.45 0.65,0.6 l 0.85,-0.05 1.1,-0.6 q 0.45,-0.65 -0.1,-1.2 -0.3,-0.35 -0.9,-0.35 l -0.95,0.35 -0.55,0.55 -0.1,0.7 m 0.3,-4.85 q -0.4,-0.4 -1.2,-0.3 Q 57.7,25.1 57,25.5 l -0.55,0.45 q -0.45,0.55 -0.1,1.15 0.3,0.6 1.05,0.6 l 0.9,-0.25 q 0.85,-0.3 1.1,-0.65 l 0.25,-0.75 -0.3,-0.7 M 52.4,14.6 q -0.65,-0.85 -1.7,-0.6 -1.1,0.25 -1.2,1.4 -0.1,0.95 0.65,1.45 l 1.6,0.2 q 0.85,-0.4 0.95,-1.35 0.1,-0.65 -0.3,-1.1 M 24.45,10.8 q 1.35,0.7 2.45,2 l 0.7,0.7 q 1.35,1.45 2.15,3.15 l 0.4,0.1 0.95,0.45 0.9,0.35 q 1.45,0.65 2.3,1.85 l 0.25,0.5 q 0.5,1.15 -0.3,2.1 l -1,0.8 -2.9,1.8 -0.15,0.4 0.6,0.6 q 0.6,0.95 0.2,2.65 l -0.1,0.95 0.2,0.85 q 0.25,0.7 0.15,1.9 -0.15,2.6 -1.3,4.5 -1.3,2.25 -3.45,3.15 -1.2,0.5 -2.6,0.65 Q 19.3,40.9 16.6,39.7 14.1,38.6 13,36.55 l -1.6,3.05 -0.9,1.35 q -1,0.9 -2.3,0.5 Q 6.95,41.1 6.55,39.8 5.2,41.35 4.2,41.55 3.35,41.7 2.55,41.15 1.75,40.6 1.6,39.75 0.1,40.35 -1.05,39.25 L -1.75,38 q -0.2,-0.7 0.05,-1.4 l 0.7,-1 q -0.25,-0.7 0,-1.45 0.3,-1 1.5,-2 l 3.35,-2.4 Q 3.25,29.5 2.75,29.1 0.75,27.55 0.4,24.75 0.05,22.5 1,19.7 1.85,16.85 3.5,15.15 5.55,12.95 8.1,12.8 h 0.05 l 1.3,-1.25 q 0.8,-0.65 1.7,-0.65 1.2,-0.1 1.9,0.75 L 13.75,11.2 14.5,9.4 Q 15,8.2 15.4,7.65 16.05,6.75 16.85,6.4 17.8,5.9 18.7,6.4 l 0.8,0.65 2.55,2.9 q 1.35,0.25 2.4,0.85 M 7.8,23.25 Q 7.5,21.35 7.6,20.4 L 7.4,20.25 6.75,19.85 6.3,19.2 q -1.25,1.95 -1.35,4.2 -0.1,1.3 0.4,1.95 0.6,0.85 2.3,0.95 h 1 Q 8.1,24.95 7.8,23.25 m 9.75,5.15 0.05,-0.3 q -0.1,-0.95 -1.05,-2.05 l 0.6,-0.75 q 0.15,-0.45 -0.05,-0.8 -0.2,-0.45 -0.7,-0.45 -0.3,0.1 -0.35,0.15 l -0.4,0.25 -0.2,0.35 H 15.4 l -0.35,-0.3 q -0.85,-0.75 -1.5,-0.7 -0.65,0 -1,0.7 -0.25,0.65 0.2,1.2 0.25,0.35 1.1,0.65 1.35,0.55 2.4,1.65 l 0.95,0.6 0.35,-0.2 M 14.5,22 15.35,21.5 14.8,20.6 Q 13.95,19.05 14.1,17.35 L 14.25,16.2 13.3,16.1 q -0.9,0 -1.6,0.45 -0.8,0.65 -1.1,1.55 l -0.05,0.25 0.75,0.3 1.45,0.95 0.7,0.8 0.6,0.9 0.3,0.75 L 14.5,22 m 9.2,10.2 q -2.85,1.45 -6.3,0.9 l -1.2,-0.25 0.15,0.8 q 0.6,1.65 2.75,2.2 1.2,0.3 3.65,0 1.9,-0.2 2.7,-0.85 0.75,-0.65 1.3,-2.8 L 25.7,32 l -1,-0.3 -1,0.5 m 2.25,-5.65 v -0.3 l -1.65,-0.05 -2.7,-0.55 -1.05,-0.3 -0.25,0.55 -0.05,0.45 0.6,0.2 0.45,0.3 0.8,0.5 0.65,0.6 0.4,0.6 0.45,0.95 q 0.8,-0.15 1.45,-0.8 0.9,-0.9 0.9,-2.15"
         fill="#000000"
         fill-rule="evenodd"
         stroke="none"
         id="path9" />
      <path
         d="m 52.4,14.6 q 0.4,0.45 0.3,1.1 -0.1,0.95 -0.95,1.35 l -1.6,-0.2 q -0.75,-0.5 -0.65,-1.45 0.1,-1.15 1.2,-1.4 1.05,-0.25 1.7,0.6 m 6.95,10.75 0.3,0.7 -0.25,0.75 q -0.25,0.35 -1.1,0.65 l -0.9,0.25 q -0.75,0 -1.05,-0.6 -0.35,-0.6 0.1,-1.15 L 57,25.5 q 0.7,-0.4 1.15,-0.45 0.8,-0.1 1.2,0.3 m -0.3,4.85 0.1,-0.7 0.55,-0.55 0.95,-0.35 q 0.6,0 0.9,0.35 0.55,0.55 0.1,1.2 l -1.1,0.6 -0.85,0.05 Q 59.2,30.65 59.05,30.2 M 37.75,5.4 q -0.45,0.55 -1,0.6 l -0.8,0.05 Q 35.4,5.95 35.05,5.6 34.1,4.85 34.45,3.55 q 0.4,-1.2 1.7,-1.35 1.3,-0.1 1.9,1.1 0.55,1.2 -0.3,2.1 M 14.5,22 l -0.15,0.05 -0.3,-0.75 -0.6,-0.9 -0.7,-0.8 -1.45,-0.95 -0.75,-0.3 0.05,-0.25 q 0.3,-0.9 1.1,-1.55 0.7,-0.45 1.6,-0.45 l 0.95,0.1 -0.15,1.15 q -0.15,1.7 0.7,3.25 l 0.55,0.9 -0.85,0.5 m 3.05,6.4 -0.35,0.2 -0.95,-0.6 q -1.05,-1.1 -2.4,-1.65 -0.85,-0.3 -1.1,-0.65 -0.45,-0.55 -0.2,-1.2 0.35,-0.7 1,-0.7 0.65,-0.05 1.5,0.7 l 0.35,0.3 h 0.05 l 0.2,-0.35 0.4,-0.25 q 0.05,-0.05 0.35,-0.15 0.5,0 0.7,0.45 0.2,0.35 0.05,0.8 l -0.6,0.75 q 0.95,1.1 1.05,2.05 l -0.05,0.3 m 8.4,-1.85 q 0,1.25 -0.9,2.15 -0.65,0.65 -1.45,0.8 l -0.45,-0.95 -0.4,-0.6 -0.65,-0.6 -0.8,-0.5 -0.45,-0.3 -0.6,-0.2 0.05,-0.45 0.25,-0.55 1.05,0.3 2.7,0.55 1.65,0.05 v 0.3"
         fill="#ffffff"
         fill-rule="evenodd"
         stroke="none"
         id="path10" />
    </g>
    <g
       id="shape2"
       transform="translate(2,2.05)">
      <path
         d="M -0.5,-0.4 V -0.55 H 75.1 V -0.4 40.8 H -0.5 Z"
         fill="none"
         stroke="#000000"
         stroke-linecap="round"
         stroke-linejoin="round"
         stroke-width="3"
         id="path11" />
    </g>
  </defs>
</svg>
