<?xml version="1.0" encoding="UTF-8" standalone="no"?>
<svg
   ffdec:objectType="frame"
   height="60.549999"
   width="67.099998"
   version="1.1"
   id="svg6"
   sodipodi:docname="767.svg"
   xmlns:inkscape="http://www.inkscape.org/namespaces/inkscape"
   xmlns:sodipodi="http://sodipodi.sourceforge.net/DTD/sodipodi-0.dtd"
   xmlns:xlink="http://www.w3.org/1999/xlink"
   xmlns="http://www.w3.org/2000/svg"
   xmlns:svg="http://www.w3.org/2000/svg"
   xmlns:ffdec="https://www.free-decompiler.com/flash">
  <sodipodi:namedview
     id="namedview6"
     pagecolor="#ffffff"
     bordercolor="#000000"
     borderopacity="0.25"
     inkscape:showpageshadow="2"
     inkscape:pageopacity="0.0"
     inkscape:pagecheckerboard="0"
     inkscape:deskcolor="#d1d1d1"
     fit-margin-top="5"
     fit-margin-left="5"
     fit-margin-right="5"
     fit-margin-bottom="5" />
  <g
     transform="translate(1.5,1.5)"
     id="g3">
    <use
       ffdec:characterId="516"
       height="57.549999"
       width="64.099998"
       xlink:href="#shape0"
       id="use1" />
    <use
       ffdec:characterId="1256"
       height="59.650002"
       transform="translate(-0.85,-1.05)"
       width="65.050003"
       xlink:href="#shape1"
       id="use2" />
    <use
       ffdec:characterId="518"
       height="60.549999"
       transform="translate(-1.5,-1.5)"
       width="67.099998"
       xlink:href="#shape2"
       id="use3" />
  </g>
  <defs
     id="defs6">
    <g
       id="shape0">
      <path
         d="M 53.6,0 H 64.1 V 57.55 H 53.6 28.25 0 V 0 H 28.25 53.6 V 57.55 0 M 28.25,0 V 57.55 0"
         fill="#ffffff"
         fill-rule="evenodd"
         stroke="none"
         id="path3" />
    </g>
    <g
       id="shape1"
       transform="translate(0.85,1.05)">
      <path
         d="m 20.1,-0.4 q 0.6,0.4 0.8,1.45 l 0.25,1.4 h 0.3 L 23,2.7 q 0.9,0.4 0.95,1.15 l -0.35,1 q -0.4,0.45 -1,0.6 l -1.25,0.1 V 6 q 0.1,1.05 -0.15,1.7 -0.4,0.85 -1.35,1 Q 18.9,8.8 18.3,8.1 17.8,7.45 17.9,6.05 L 17.45,6.1 Q 15.4,6.3 14.7,5 14.45,4.45 14.6,3.8 14.8,3.15 15.3,2.8 15.7,2.55 16.65,2.45 L 18.15,2.35 18.1,1.4 q 0,-1 0.15,-1.3 0.25,-0.5 0.85,-0.65 l 1,0.15 M 0.2,4.15 Q -0.65,3.55 -0.55,2.5 -0.45,1.55 0.4,0.95 1.1,0.45 2.2,0.2 l 5.7,-0.4 3.95,0.1 q 1.45,0 1.85,0.65 0.45,0.65 -0.05,1.95 -4.8,13.3 -7.8,23.05 l -0.8,1.8 q -0.7,1 -1.65,1.05 H 3.2 q 0,0.5 0.15,0.9 l 8.5,0.9 4.05,0.2 4.3,-0.75 6.6,-1.65 0.25,-0.05 -0.55,-0.4 q -0.55,-0.6 -0.65,-2.15 v -0.65 l -1,0.05 q -0.65,-0.1 -1.1,-0.7 -0.4,-0.6 -0.3,-1.3 0.3,-1.4 2.2,-1.8 v -1.05 l 0.2,-1.25 q 0.25,-0.7 0.9,-0.85 0.75,-0.15 1.3,0.65 l 0.45,1.4 0.15,0.75 1.15,-0.05 1.15,-0.1 q 0.65,0 1,0.45 0.55,0.7 -0.15,1.6 -0.55,0.55 -1.5,0.8 l -1.1,0.3 0.2,1.85 q 0,1.3 -0.35,1.85 l -0.3,0.35 0.55,0.05 q 0.85,0.3 1.15,1.25 0.25,0.8 -0.1,1.5 0.4,-0.15 0.8,0 l 1.15,1.15 0.45,1.05 0.85,-0.15 1.6,0.2 0.45,0.75 -0.2,0.8 q -0.35,0.45 -1.35,0.65 l -0.55,0.2 0.3,0.95 0.25,1.65 Q 33.75,38.9 32.55,39 31.45,39.15 30.8,38.1 30.45,37.6 30.35,36.8 L 30.3,36.2 h -0.8 q -1.15,-0.35 -1.15,-1.45 0.1,-0.95 1.05,-1.4 l 0.3,-0.1 q -0.45,-1.3 -0.4,-1.7 l 0.05,-0.1 -0.35,0.15 -1.4,0.8 q -0.8,0.7 -1.55,2.25 l -5.05,10 5.55,0.7 L 27,45.4 26.6,44.6 26.55,43.55 H 26.2 Q 25.65,43.5 25.25,43 q -0.4,-0.45 -0.4,-1 0,-0.55 0.4,-1 0.4,-0.45 0.95,-0.55 h 0.6 v -0.4 q 0.1,-0.85 0.3,-1.2 0.35,-0.5 1,-0.55 0.65,-0.05 1,0.35 0.4,0.45 0.5,1.65 l 0.05,0.4 h 0.25 l 1.25,0.3 q 0.75,0.35 0.65,1 -0.05,0.65 -0.85,0.95 l -1.05,0.1 v 0.1 q 0.3,1 0.2,1.5 -0.2,0.9 -0.9,1.25 L 29,46 q 0.85,0.6 0.85,1.6 -0.05,0.7 -0.95,1.7 l -1.85,1.8 q -1,1.05 -1.55,1.95 L 24.65,54.8 23.5,56.35 Q 22.35,57.4 19.2,57.4 L 11.45,57.15 3.8,57.6 1.9,57.75 Q 0.85,57.7 0.3,57.1 q -0.4,-0.45 -0.6,-2 -1.3,-17.65 0.55,-28.55 0.2,-1.05 0.6,-1.6 v -3.7 -1.3 L 0.55,17.9 0.1,10.65 Q 0,7.75 0.2,5.6 L 0.45,4.35 0.2,4.15 m 43.85,-4.5 q 0.3,-0.35 0.8,-0.35 0.5,-0.05 0.85,0.25 0.75,0.6 0.45,2.5 l -0.05,0.4 1.6,0.2 Q 48.8,3 48.85,3.9 48.9,4.85 47.8,5.35 l -1.75,0.2 -0.1,0.9 Q 45.65,7.6 44.9,8 L 43.65,8.1 Q 43,7.9 42.7,7.35 42.45,6.85 42.55,5.75 40.75,5.9 40.05,5.2 39.55,4.7 39.6,3.9 q 0.05,-0.8 0.6,-1.25 0.55,-0.4 1.35,-0.5 h 1.8 L 43.7,0.6 Q 43.8,0 44.05,-0.35 M 30.5,53.75 35.1,50.2 40.95,44.95 36.1,41.45 Q 34.6,40.45 34.35,39.4 34,38.2 35,37 l 2.05,-1.6 q 9.05,-5.8 16.15,-13.55 -2.35,-1.55 -3.7,-2.2 -2.15,-1 -4.05,-1 H 43.3 Q 42,18.5 41.55,17.5 q -0.3,-0.65 0,-1.3 -0.6,-0.2 -1,-0.7 L 39.6,15.65 37.75,15.7 37.6,15.65 q -0.55,-0.1 -0.95,-0.5 -0.45,-0.65 -0.3,-1.25 0.2,-0.6 0.95,-1.1 1,-0.6 2.1,-0.65 L 39.25,11.4 39.2,10.2 q 0.15,-0.7 0.9,-0.9 l 1.3,0.15 q 0.75,0.4 1.35,1.95 L 43,12 q 0.85,0.5 0.65,1.55 l -0.05,0.2 0.1,0.45 0.2,-0.1 q 2.95,-1.8 6.55,-5.65 l 5.95,-6.3 q 1.55,-1.45 2.75,-1.8 l 1.7,-0.15 q 1.65,-0.1 2.35,0.45 1.25,0.8 0.9,3.8 Q 61.7,24 63.25,43.4 l 0.3,6.45 q -0.1,2.45 0.1,3.2 l 0.3,1.05 0.05,1.05 q -0.35,1.5 -3.15,1.5 l -13.8,0.3 -7.45,0.25 -7.4,0.85 -2.55,0.15 Q 29,58.05 28.5,57.6 28,57.15 27.95,56.55 q -0.1,-0.9 0.75,-1.65 0.5,-0.45 1.8,-1.15 M 46.2,19.5 q 0.65,-0.4 1.35,-0.25 0.7,0.25 0.95,0.95 0.2,0.65 -0.2,1.8 L 47.65,23.7 46.8,25 q -0.7,0.55 -1.45,0 -0.5,-0.35 -0.6,-1.1 l 0.1,-1.2 0.3,-1.5 q 0.4,-1.3 1.05,-1.7 m -6.3,2.65 q 0.45,0.5 0.15,1.85 l -0.1,0.45 0.3,0.05 1,0.4 0.75,0.85 -0.05,1 q -0.45,0.8 -1.9,0.6 l -0.85,-0.2 -0.35,1 -0.55,1.2 q -0.6,0.8 -1.7,0.7 -1.05,-0.15 -1.3,-1.2 -0.15,-0.7 0.35,-1.8 l 0.2,-0.4 -1.1,-0.35 Q 34.1,25.95 33.95,25.35 33.8,24.85 34.1,24.3 l 0.8,-0.75 2.15,-0.05 0.15,0.05 q 0.4,-1 0.9,-1.4 0.4,-0.3 0.9,-0.35 0.6,0 0.9,0.35 M 30.6,3.2 q 0.7,-0.15 1.3,0.5 l 0.55,1.35 0.1,0.4 0.9,0.05 2,0.3 0.85,0.4 0.35,1 q 0,0.6 -0.5,0.95 L 34.7,8.65 32.65,8.9 v 0.25 l 0.1,1.95 q -0.1,1.15 -0.8,1.7 l -1.25,0.3 q -0.75,-0.05 -1.15,-0.6 -0.5,-0.6 -0.5,-2.25 L 29.1,9.3 28.2,9.45 q -1.2,0 -1.7,-1 -0.55,-1.1 0.2,-1.9 Q 27.25,5.9 28.75,5.7 L 29.3,5.65 29.35,5.25 29.65,4 Q 30,3.35 30.6,3.2 m -13.9,8.85 q 1.2,-0.2 2.05,1.1 l 0.65,1.6 q 1,-0.4 1.8,-0.45 l 0.9,0.05 0.6,0.55 0.05,0.8 -0.4,0.6 -0.95,0.6 -0.85,0.35 v 0.05 l 0.25,0.5 q 0.55,1.5 0,2.55 l -1.25,0.9 -1.6,-0.2 q -0.6,-0.4 -1.15,-1.65 l -0.7,0.35 -0.5,0.6 -0.75,0.4 Q 13.75,20.9 13,20.1 q -0.75,-0.85 -0.35,-1.9 0.3,-0.9 1.35,-1.35 0.55,-0.3 1.8,-0.65 l -0.05,-0.1 q -0.5,-1.5 -0.4,-2.3 0.2,-1.5 1.35,-1.75 m -1.25,17.1 q -0.6,0.8 -1.5,0.7 -0.9,-0.1 -1.45,-0.75 h -0.75 q -1,0 -1.7,-0.6 Q 9.5,27.95 9.6,27.1 9.65,26.25 10.3,25.85 l 1.35,-0.4 0.6,-0.05 v -0.25 l -0.1,-1.2 q 0.15,-0.8 0.85,-1.2 l 1.45,-0.05 q 0.8,0.3 1.15,1.45 l 0.2,1 0.85,0.05 1.45,0.3 q 0.85,0.45 0.9,1.15 0.15,0.65 -0.35,1.2 -0.5,0.55 -1.2,0.7 L 16.1,28.7 h -0.35 l -0.3,0.45 m 18.7,13.8 0.3,-0.85 q 0.5,-0.65 1.25,-0.6 0.9,0.15 1.1,1.4 l -0.1,1.85 -0.1,1.7 -0.7,1.5 q -0.8,0.7 -1.55,0.2 -0.65,-0.4 -0.65,-1.8 -0.1,-1.1 0.05,-1.9 l 0.4,-1.5"
         fill="#999999"
         fill-rule="evenodd"
         stroke="none"
         id="path4" />
      <path
         d="M 49.3,22.55 46.65,21.5 42.4,20.75 38.1,20.35 Q 36.35,20.05 36,19.1 35.7,18.35 36.2,17.6 l 1.05,-1.2 Q 48.55,6.15 54.5,1.55 q 2,-1.5 3.1,-2.05 l 1.8,-0.15 q 0.65,0.5 0.25,1.45 l -1.1,1.15 Q 49,9.8 41.6,17.05 q 3.1,0.15 6.3,1 l 4.65,1.5 q 1.3,0.4 1.7,0.95 l 0.35,0.6 0.15,0.3 q 0.25,0.85 -0.9,1.9 -1.85,1.8 -4.6,3.85 l -3.75,2.7 -4.45,3.9 -5.55,5.15 4.35,2 1.8,1.1 q 0.95,0.9 0.75,1.9 l -0.2,0.6 -0.55,0.7 -3.35,3.05 -5.35,4.15 q -3.1,2.5 -5.05,4.55 l -1.4,1.25 q -0.95,0.6 -1.85,0.25 l -0.35,-0.2 q -0.5,-0.05 -0.9,-0.4 -0.55,-0.45 -0.65,-1.15 -0.1,-0.9 0.9,-2.4 l 1.9,-2.7 3.5,-4.3 -7.3,-0.95 -1.9,-0.5 Q 18.75,45.4 18.6,44.4 18.5,43.6 19.45,42.25 l 4,-5.45 q 2.8,-3.7 5.8,-7.1 L 18.65,30.65 12.1,31 5.5,31.35 Q 3.3,31.55 2.55,30.6 1.85,29.7 2.6,27.55 L 12.55,0.3 Q 13,-0.9 13.6,-1 l 0.8,0.2 0.5,0.75 q 0.15,0.7 -0.2,1.8 -3.45,12.5 -8.05,25.7 l 23,-1.55 2.75,0.15 0.4,0.2 h 0.05 q 0.4,-0.05 0.75,0.25 l 0.3,0.7 -0.25,0.8 -0.1,0.25 -0.55,0.7 -9.7,13.95 7.4,1 q 1.25,0.2 1.75,0.6 0.55,0.45 0.55,1.25 v 0.4 l -0.5,1.15 -2.2,3.15 2.25,-1.65 3.7,-2.7 2.25,-1.6 q -2.35,-1.65 -5.65,-2.65 -2,-0.55 -2.45,-1.5 -0.45,-0.95 0.25,-1.95 l 1.4,-1.45 8.55,-7.4 Q 42.25,28 45.9,25.65 L 50,22.8 49.3,22.55"
         fill="#000000"
         fill-rule="evenodd"
         stroke="none"
         id="path5" />
    </g>
    <g
       id="shape2"
       transform="translate(1.5,1.5)">
      <path
         d="M 0,23.8 V 0 H 64.1 V 23.8 57.55 H 0 Z"
         fill="none"
         stroke="#000000"
         stroke-linecap="round"
         stroke-linejoin="round"
         stroke-width="3"
         id="path6" />
    </g>
  </defs>
</svg>
