<?xml version="1.0" encoding="UTF-8" standalone="no"?>
<svg
   ffdec:objectType="frame"
   height="60.549999"
   width="67.300003"
   version="1.1"
   id="svg9"
   sodipodi:docname="430.svg"
   xmlns:inkscape="http://www.inkscape.org/namespaces/inkscape"
   xmlns:sodipodi="http://sodipodi.sourceforge.net/DTD/sodipodi-0.dtd"
   xmlns:xlink="http://www.w3.org/1999/xlink"
   xmlns="http://www.w3.org/2000/svg"
   xmlns:svg="http://www.w3.org/2000/svg"
   xmlns:ffdec="https://www.free-decompiler.com/flash">
  <sodipodi:namedview
     id="namedview9"
     pagecolor="#ffffff"
     bordercolor="#000000"
     borderopacity="0.25"
     inkscape:showpageshadow="2"
     inkscape:pageopacity="0.0"
     inkscape:pagecheckerboard="0"
     inkscape:deskcolor="#d1d1d1"
     fit-margin-top="5"
     fit-margin-left="5"
     fit-margin-right="5"
     fit-margin-bottom="5" />
  <g
     transform="translate(1.7,1.5)"
     id="g3">
    <use
       ffdec:characterId="516"
       height="57.549999"
       width="64.099998"
       xlink:href="#shape0"
       id="use1" />
    <use
       ffdec:characterId="929"
       height="54.5"
       transform="translate(-1.7,3.35)"
       width="66.349998"
       xlink:href="#shape1"
       id="use2" />
    <use
       ffdec:characterId="518"
       height="60.549999"
       transform="translate(-1.5,-1.5)"
       width="67.099998"
       xlink:href="#shape2"
       id="use3" />
  </g>
  <defs
     id="defs9">
    <g
       id="shape0">
      <path
         d="M 53.6,0 H 64.1 V 57.55 H 53.6 28.25 0 V 0 H 28.25 53.6 V 57.55 0 M 28.25,0 V 57.55 0"
         fill="#ffffff"
         fill-rule="evenodd"
         stroke="none"
         id="path3" />
    </g>
    <g
       id="shape1"
       transform="translate(1.7,-3.35)">
      <path
         d="M 50.2,13.95 Q 48.3,11.05 45.35,9.15 43.75,8.05 42,7.6 q -1.9,-0.45 -5.1,0 -2.8,0.5 -4,1.05 -1.7,0.8 -3.7,2.6 -3.95,3.7 -5.8,8.1 -0.75,1.85 -1.55,5 l -1.3,5.1 q -0.75,2.2 -1.95,2.6 L 17,31.8 Q 16.25,31.35 15.85,30.55 15.3,29.3 15.6,27.15 l 0.5,-2.65 -0.35,0.25 -1.05,-1.1 Q 14.1,22.8 13.85,21.4 12.95,16.8 15.9,12.35 18.2,8.85 22.95,6 26.25,4.15 29.2,3.4 29.7,3.3 29.75,3.55 l -0.25,0.4 -3.2,2.1 q -3.2,2.4 -5.35,5.85 -1.9,3.05 -2.7,6.45 L 18.9,17.1 q 2.55,-4.75 6.55,-8.45 3,-2.85 5.9,-3.95 2.1,-0.8 4.9,-0.95 4.45,-0.35 7.55,1.2 4.55,2.3 7.25,9.75 L 50.2,13.95 M 26.05,51.65 25.6,51.1 25.05,50.3 q -0.35,-0.6 -0.3,-1.5 l -0.3,0.2 -1.7,0.25 q -1.2,-0.45 -1.5,-2.9 -0.5,-4.35 -0.6,-8.75 -0.2,-3.7 0.2,-6.35 0.3,-2.2 1.2,-5.2 1.7,-5.85 3.85,-9.45 2.95,-4.85 7.2,-7.1 2.35,-1.2 4.9,-1.4 2.7,-0.25 5,0.65 3.65,1.5 6.8,5.95 2.9,4.2 4.4,9.1 1.5,4.9 1.4,9.95 l -0.15,0.55 -0.5,-0.1 -0.35,-0.55 q -3.05,-10.2 -7.25,-15.5 l -0.2,-0.25 0.2,0.35 2,4.45 q 1.45,3.95 1.55,5.9 0,0.55 -0.3,0.55 L 50.25,28.7 q -0.3,-1.15 -1.65,-3.35 -3.1,-4.8 -5.15,-6.95 -1.95,-2.05 -3.6,-2.2 l -2.5,0.45 q -1.5,0.65 -2.2,1.25 l -1.8,2 q -3.15,4.6 -3.6,10 l 0.55,-1.25 q 2.25,-5.15 4.25,-7.6 1.25,-1.4 2.2,-2.05 l 0.55,-0.2 q 0.35,0 0.4,0.25 l -0.1,0.4 q -1.15,2.6 -2.85,8 l -2.7,8.65 -1.2,2.3 q -1.2,2.1 -2.4,3.25 -0.85,0.8 -1.7,1.25 l -0.05,0.5 -0.1,1.2 0.8,-0.5 q 0.25,-0.75 0.9,-1.3 1.05,-0.9 2.7,-0.65 1.25,0.2 2.65,1.15 1.4,0.95 1.95,1.9 l 0.45,1.3 q 0.5,2.3 -0.1,4.4 l -0.7,1.5 q 0.7,0.7 0.45,1.6 -0.15,0.6 -0.7,1 l -1.2,0.25 -0.5,-0.1 h -0.05 l -0.6,0.85 -0.6,0.25 H 31.7 l -1,-0.45 Q 30.3,55.4 30.25,54.85 L 30.3,54.5 29.25,54.1 28.3,53.35 q 1.05,-0.15 1.6,-1.2 0.5,-1.2 -0.4,-2.2 -0.9,-0.9 -2.2,-0.5 -0.65,0.25 -1,0.9 -0.35,0.65 -0.25,1.3 m 33.6,-15.7 0.05,0.15 1,1.15 1,0.45 0.65,0.2 0.55,0.05 0.6,0.05 q 0.55,0.05 0.95,0.65 0.3,0.45 0.15,1.1 l -0.4,0.55 q -0.35,0.4 -1.05,0.4 l -2.2,-0.45 Q 60,39.85 59,39.1 l -0.65,-0.5 -0.45,-0.55 -0.7,-1.2 q -0.15,-0.5 0.05,-1.15 l 0.2,-0.6 0.35,-0.5 -0.4,-0.85 q -0.15,-0.6 0.05,-1.4 l 0.3,-0.85 0.85,-0.9 q 0.65,-0.4 1.7,-0.4 l 1.05,0.1 q 0.6,0.15 0.75,0.7 l -0.15,0.7 Q 61.7,32.05 61.3,32.1 L 60.6,32 q -0.5,-0.1 -0.7,0.25 -0.15,0.25 0.05,0.55 l 0.3,0.55 0.1,0.2 h 0.25 l 1.55,0.1 1.2,0.45 0.7,0.5 q 0.45,0.55 0,1.1 Q 63.7,36.3 63,36.15 L 62.5,35.95 62.1,35.9 61.55,35.75 60.7,35.7 h -0.85 l -0.2,0.25 M 48.7,45.3 q -0.4,-0.95 -0.4,-2.05 0,-2.3 1.45,-4 1,-1 1.9,-1.3 l 2.05,-0.25 2.15,0.25 q 0.85,0.25 1.55,0.7 l 1.15,0.85 q 1.15,1.3 1.25,3.65 0.1,1.45 -0.3,2.8 -0.5,1.4 -1.55,2.3 -0.65,0.45 -1.7,0.8 l -0.7,0.25 -0.2,0.4 -0.55,0.55 -0.8,0.2 -0.4,-0.1 -0.2,0.1 -1.05,0.25 q -0.65,-0.1 -1,-0.5 L 51,49.7 50.95,49.3 50,49.2 49.1,48.45 q -0.3,-0.5 -0.15,-1.15 0.05,-0.5 0.4,-0.8 l -0.3,-0.5 0.15,0.2 0.8,0.3 q 1.05,0.1 1.4,-0.9 Q 51.85,44.75 51,44 50.25,43.35 49.35,43.85 48.6,44.35 48.7,45.3 m -8.15,-3 Q 40.15,42.85 39.4,42.9 38.7,43 38.25,42.5 37.8,42 37.9,41.25 37.95,40.55 38.45,40 l 0.5,-0.65 -0.15,-1.3 -0.3,-1.15 q -0.1,-0.95 0.4,-1.2 0.45,-0.2 0.9,0.25 l 0.45,0.9 0.9,2.35 0.15,0.25 0.65,0.3 0.25,0.5 0.15,0.45 -0.1,0.55 Q 42,41.95 41.2,42.05 H 40.7 L 40.55,42.3 M 46.8,56.8 Q 45.95,57.35 45,56.55 L 43.6,55.2 42.1,54.15 42,54.1 q -0.6,0.7 -1.65,0.8 -1,0.1 -1.8,-0.55 -0.85,-0.7 -0.7,-1.65 0.1,-0.85 0.7,-1.4 0.65,-0.65 1.6,-0.8 v -0.2 q 0.1,-1.05 0.5,-1.5 0.7,-0.75 2,-0.65 1.1,0.2 1.5,0.65 0.75,0.85 0.3,1.95 l -0.2,0.45 0.6,0.85 1.25,2.05 0.75,0.75 0.45,0.9 q 0.1,0.7 -0.5,1.05 m 6.55,-10.95 q -0.05,0.7 0.4,1.3 0.4,0.6 1.05,0.8 l 1.35,-0.1 1,-0.85 q 0.35,-0.6 0.2,-1.3 -0.1,-0.75 -0.65,-1.2 -0.75,-0.6 -1.6,-0.45 -0.9,0.1 -1.4,0.85 -0.25,0.4 -0.35,0.95 M 1.9,31.75 2.9,31 3.6,30.9 Q 4.1,31 4,31.35 L 3.75,31.85 3.4,32.6 3.05,33.1 2.9,33.9 q -0.1,0.5 0.05,0.65 l 0.4,0.1 Q 4,34.6 4.6,34.15 L 5.65,33.2 6.15,32.75 7.5,32.6 q 0.7,0.3 0.85,1.05 L 8.1,34.7 7.4,35.5 5.5,36.95 4.4,37.4 1.85,37.15 1.2,36.75 0.65,35.9 Q 0.4,35.3 0.45,34.9 L 0.65,34 Q 0.9,33.2 1.2,32.75 l 0.7,-1 m 5.85,7.15 q 0.85,-0.1 1.3,0.3 l 0.35,0.45 q 0.45,1 -0.45,1.9 -0.8,0.7 -1.9,0.7 L 6.5,43.3 6.15,43.9 5.85,44.4 6,44.6 q 0.6,0.9 0,1.75 L 5.1,46.85 4.25,46.8 3.7,46.95 2.65,46.85 Q 1.7,46.35 1.85,45.25 1.9,44.3 2.9,43.7 l 1.15,-0.2 0.9,-1.45 -0.5,-0.6 q -0.55,-0.9 -0.15,-1.9 0.45,-0.85 1.2,-1 l 0.85,0.1 Q 6.7,38.7 7.1,39 l 0.65,-0.1 m 19.1,-5.3 H 26.8 l -0.2,2.5 1.25,-2.2 -1,-0.3 m 8.1,13.5 q -0.5,-0.8 -1.5,-1.2 -1,-0.35 -1.9,0 -0.9,0.4 -1.4,1.3 -0.5,0.95 -0.3,1.9 0.25,0.95 1.05,1.55 0.85,0.65 1.8,0.6 1,-0.05 1.75,-0.8 0.75,-0.7 0.85,-1.7 0.05,-0.8 -0.35,-1.65 m 29.1,4 q 0.2,0.7 -0.6,1.35 -0.4,0.3 -1.4,0.6 -1.75,0.55 -2.4,0.85 l -0.45,0.2 -0.05,0.3 -0.05,0.65 -0.6,0.75 q -1,0.7 -1.7,0.2 -0.6,-0.35 -0.5,-1.25 l 0.2,-0.7 -0.75,-0.4 L 55.2,53 55.15,52.25 55.35,51.5 q 0.2,-0.45 0.65,-0.65 l 1.7,-0.15 1.05,0.8 2.3,-0.95 1.7,-0.4 q 1.15,0 1.3,0.95"
         fill="#999999"
         fill-rule="evenodd"
         stroke="none"
         id="path4" />
      <path
         d="m 2,49.15 q 0.75,-0.7 2.25,-1.25 l 3.7,-0.8 3.75,-0.75 3.35,-0.75 q 0.75,0 1.1,0.3 l 0.45,0.7 -0.15,0.8 -1,0.75 -1.5,1 -1.6,0.7 -5.45,2 Q 5.6,52.25 5.05,52.6 L 4.1,53.5 3.2,54.35 2.8,54.7 1.65,56.15 Q 0.8,57 0.2,57.1 -0.45,57.25 -1.1,56.75 -1.7,56.2 -1.7,55.5 L -1.1,54.2 -1.05,54.15 -1.15,53 -0.65,51.65 0.1,50.95 0.95,50.3 2,49.15"
         fill="#000000"
         fill-rule="evenodd"
         stroke="none"
         id="path5" />
      <path
         d="M 28.3,53.35 H 28 q -0.7,0 -1.25,-0.5 -0.6,-0.5 -0.7,-1.15 v -0.05 q -0.1,-0.65 0.25,-1.3 0.35,-0.65 1,-0.9 1.3,-0.4 2.2,0.5 0.9,1 0.4,2.2 -0.55,1.05 -1.6,1.2 M 49.05,46 48.85,45.8 48.7,45.4 v -0.1 q -0.1,-0.95 0.65,-1.45 0.9,-0.5 1.65,0.15 0.85,0.75 0.4,1.6 -0.35,1 -1.4,0.9 L 49.2,46.2 49.05,46 m 4.3,-0.15 q 0.1,-0.55 0.35,-0.95 0.5,-0.75 1.4,-0.85 0.85,-0.15 1.6,0.45 0.55,0.45 0.65,1.2 0.15,0.7 -0.2,1.3 l -1,0.85 -1.35,0.1 q -0.65,-0.2 -1.05,-0.8 -0.45,-0.6 -0.4,-1.3 m -18.4,1.25 q 0.4,0.85 0.35,1.65 -0.1,1 -0.85,1.7 -0.75,0.75 -1.75,0.8 -0.95,0.05 -1.8,-0.6 -0.8,-0.6 -1.05,-1.55 -0.2,-0.95 0.3,-1.9 0.5,-0.9 1.4,-1.3 0.9,-0.35 1.9,0 1,0.4 1.5,1.2"
         fill="#ffffff"
         fill-rule="evenodd"
         stroke="none"
         id="path6" />
      <path
         d="m 24.6,57.3 -0.5,0.55 H 7.2 l -0.65,-0.7 q -0.7,-1.1 1.6,-8.8 l 0.65,-1.5 2,-4.1 0.65,-1.1 -0.5,-0.7 -4.4,-6.35 Q 5.15,32.6 4.95,31.35 4.7,29.6 5.8,27.5 q 1,-1.9 3.75,-4.85 1.45,-1.55 1.7,-2.6 0.2,-1 -0.45,-3.15 -0.6,-2.1 -0.3,-3.15 0.4,-1.25 1.8,-1.95 1.3,-0.6 2.8,-0.5 l 4.3,0.8 q 1,-0.1 1.85,0.4 l 1.4,0.4 q 1.15,0.6 2.4,2.2 2.55,3.25 3.9,7.45 l 0.95,3.7 1.1,3.65 0.7,1.75 q 0.35,1.05 0.3,1.85 -0.15,2 -2.15,3.65 l -3.65,2.3 -0.7,0.5 0.2,1 3.05,-1.8 1.15,-0.45 2.5,-1.8 q 1.85,-1.6 3.25,-4.3 l 2.1,-5.1 q 0.5,-1.55 1.15,-2.2 1.1,-1 2.5,-0.6 1.3,0.35 1.75,1.65 l 1.35,0.9 q 2.2,1.8 3.9,4.05 l 1.7,2.3 q 1.5,1.95 1.85,2.75 0.95,1.85 0.85,4.45 l -0.65,4.65 -1.05,5.2 q -0.3,1.7 -0.9,2.5 -0.4,0.55 -1.05,0.75 -0.65,0.25 -1.25,0 -0.75,-0.35 -1.05,-1.45 l -0.05,-1.8 q 0.15,-2.75 -0.25,-5.7 L 46.25,43.7 45.1,42.1 q -3,-3.25 -4.65,-4.3 l -1.3,-0.95 H 39.1 l -2.45,3 -4.3,3.3 -4.35,2.95 -0.55,0.55 1.4,3.95 q 1,-1.8 2.75,-3.8 l 1.3,-1.3 0.05,-0.1 q 1.25,-1.45 2.65,-2 l 3.45,-0.2 q 1.8,0.45 2.9,1.8 1.15,1.3 1,2.85 l 0.05,0.8 0.55,0.45 q 1.3,0.9 0.95,2.55 -0.45,1.55 -1.9,1.95 -1.45,0.45 -2.8,-0.45 -0.9,-0.6 -1.3,-1.7 L 38.35,50 38.4,48.55 38.35,48 q -0.1,-0.3 -0.6,-0.5 l -0.3,-0.15 -0.4,0.15 q -0.8,0.45 -2.05,1.8 -2.75,3.15 -3.2,5.2 l -0.4,1.75 -1.1,1.15 h -0.05 l -0.35,0.45 h -3.05 l -0.2,-0.25 q -1,0 -1.8,-0.7 l -0.25,0.4 m 1.9,-25.45 q 0.05,-0.95 -0.45,-1.8 -0.5,-0.8 -1.35,-1.2 l -0.85,-0.2 -0.5,0.75 -1.3,1 -0.75,0.6 -0.75,0.45 0.15,1.05 q 0.25,1.05 1.1,1.6 h 0.8 l 2.15,0.3 1.15,-0.95 q 0.5,-0.65 0.6,-1.6 m -17.25,0 Q 9,32.7 9.3,33.6 q 0.25,0.9 0.95,1.45 l 0.4,0.25 0.05,-0.05 q 0.8,-0.35 2.1,-0.45 l 1.45,-0.05 0.5,-0.8 Q 15.15,33.1 15,32.2 v -0.1 l -0.15,-0.05 q -1.15,-0.25 -2.3,-1.5 l -0.7,-0.8 q -0.65,0.05 -1.25,0.4 -1.05,0.65 -1.35,1.7"
         fill="#000000"
         fill-rule="evenodd"
         stroke="none"
         id="path7" />
      <path
         d="m 9.25,31.85 q 0.3,-1.05 1.35,-1.7 0.6,-0.35 1.25,-0.4 l 0.7,0.8 q 1.15,1.25 2.3,1.5 L 15,32.1 v 0.1 q 0.15,0.9 -0.25,1.75 l -0.5,0.8 -1.45,0.05 q -1.3,0.1 -2.1,0.45 l -0.05,0.05 -0.4,-0.25 Q 9.55,34.5 9.3,33.6 9,32.7 9.25,31.85 m 17.25,0 q -0.1,0.95 -0.6,1.6 L 24.75,34.4 22.6,34.1 H 21.8 Q 20.95,33.55 20.7,32.5 L 20.55,31.45 21.3,31 l 0.75,-0.6 1.3,-1 0.5,-0.75 0.85,0.2 q 0.85,0.4 1.35,1.2 0.5,0.85 0.45,1.8"
         fill="#ffffff"
         fill-rule="evenodd"
         stroke="none"
         id="path8" />
    </g>
    <g
       id="shape2"
       transform="translate(1.5,1.5)">
      <path
         d="M 0,23.8 V 0 H 64.1 V 23.8 57.55 H 0 Z"
         fill="none"
         stroke="#000000"
         stroke-linecap="round"
         stroke-linejoin="round"
         stroke-width="3"
         id="path9" />
    </g>
  </defs>
</svg>
