<?xml version="1.0" encoding="UTF-8" standalone="no"?>
<svg
   ffdec:objectType="frame"
   height="60.549999"
   width="67.099998"
   version="1.1"
   id="svg10"
   sodipodi:docname="776.svg"
   xmlns:inkscape="http://www.inkscape.org/namespaces/inkscape"
   xmlns:sodipodi="http://sodipodi.sourceforge.net/DTD/sodipodi-0.dtd"
   xmlns:xlink="http://www.w3.org/1999/xlink"
   xmlns="http://www.w3.org/2000/svg"
   xmlns:svg="http://www.w3.org/2000/svg"
   xmlns:ffdec="https://www.free-decompiler.com/flash">
  <sodipodi:namedview
     id="namedview10"
     pagecolor="#ffffff"
     bordercolor="#000000"
     borderopacity="0.25"
     inkscape:showpageshadow="2"
     inkscape:pageopacity="0.0"
     inkscape:pagecheckerboard="0"
     inkscape:deskcolor="#d1d1d1"
     fit-margin-top="5"
     fit-margin-left="5"
     fit-margin-right="5"
     fit-margin-bottom="5" />
  <g
     transform="translate(1.5,1.5)"
     id="g3">
    <use
       ffdec:characterId="516"
       height="57.549999"
       width="64.099998"
       xlink:href="#shape0"
       id="use1" />
    <use
       ffdec:characterId="1264"
       height="47"
       transform="translate(-1.05,4.55)"
       width="55.5"
       xlink:href="#shape1"
       id="use2" />
    <use
       ffdec:characterId="518"
       height="60.549999"
       transform="translate(-1.5,-1.5)"
       width="67.099998"
       xlink:href="#shape2"
       id="use3" />
  </g>
  <defs
     id="defs10">
    <g
       id="shape0">
      <path
         d="M 53.6,0 H 64.1 V 57.55 H 53.6 28.25 0 V 0 H 28.25 53.6 V 57.55 0 M 28.25,0 V 57.55 0"
         fill="#ffffff"
         fill-rule="evenodd"
         stroke="none"
         id="path3" />
    </g>
    <g
       id="shape1"
       transform="translate(1.05,-4.55)">
      <path
         d="m 49.2,13.7 q -0.45,-0.35 -0.15,-1.1 l 0.85,-1.3 0.95,-1.25 0.8,-1.45 q 0.9,-0.8 1.9,-0.35 l 0.7,0.7 0.15,0.95 q -0.1,0.6 -1.05,1.45 -2.25,1.8 -3.1,2.25 l -1.05,0.1 m -2.1,-0.9 -0.75,1.8 -0.5,0.6 -0.5,-0.15 -0.3,-0.5 Q 44.9,14.35 44.9,14 L 44.75,6.9 q 0,-1.1 0.4,-1.6 0.4,-0.45 0.9,-0.6 1.25,-0.4 2.15,0.4 0.95,0.95 0.45,2.15 l -0.35,0.6 -0.1,0.7 -0.35,1.75 -0.25,0.8 -0.25,0.55 -0.25,1.15 m -5.3,-0.1 -0.75,0.25 q -0.3,-0.05 -0.7,-0.45 l -0.7,-0.95 -0.4,-0.75 -0.9,-0.85 Q 37.9,9.45 37.95,8.75 38,8 38.5,7.6 39.05,7.2 39.75,7.3 40.45,7.4 40.8,8 l 0.35,1.25 0.7,2.8 -0.05,0.65 m -0.8,24.1 7.6,-3.75 -3.45,6.4 h 8.4 l -6.3,4.05 5.55,3.75 h -8.75 l 2.4,4.3 L 33,48.9 l 1.8,-5.3 -5.3,-3.55 5.05,-5.8 q 1.7,-0.9 2.85,-2.5 0.25,-0.3 3.6,5.05 m -4.65,7.85 -1.55,-1.05 1.55,1.05"
         fill="#999999"
         fill-rule="evenodd"
         stroke="none"
         id="path4" />
      <path
         d="m 47.9,25.35 q 0.9,-1.35 2.5,-1.2 1,0.1 1.6,0.75 0.45,0.45 0.6,1.05 0.2,0.85 -0.15,1.65 -0.35,0.85 -1.1,1.25 l -1.6,0.3 Q 48.9,29 48.3,28.45 q -0.6,-0.6 -0.7,-1.5 -0.1,-0.9 0.3,-1.6"
         fill="#ffffff"
         fill-rule="evenodd"
         stroke="none"
         id="path5" />
      <path
         d="m 39.55,16.3 q -0.15,0.45 -1,0.55 L 37.4,17 q 2.95,3.3 2.6,7 l -0.5,2.2 -0.75,2.25 -4.05,4.6 -2.45,0.9 q -3.2,0.7 -6.35,-0.5 -1.4,-0.5 -2.35,-1.3 -1.25,-1.1 -1.8,-2.9 -0.35,-1.1 -0.35,-2.3 l -0.2,-0.2 q -0.9,-1.1 -1,-3.25 l 0.1,-2.9 q -0.6,0.05 -1,1 l -1.25,2.45 q -0.6,1.25 -1.25,1.6 L 15.65,25.9 14.6,25.65 q -0.85,-0.45 -1.15,-2.15 -0.1,-0.85 0.3,-0.95 0.4,-0.2 0.6,0.3 l 0.25,0.65 0.4,0.7 0.75,0.1 0.35,-0.7 q 0.8,-3.2 1.5,-4.6 0.65,-1.25 1.45,-1.6 l 1.75,-0.2 1.5,0.3 q 1.1,0.55 1.55,1.95 l 0.05,0.2 0.6,-0.7 q 2.4,-2.8 6.3,-4 l 2.6,-0.5 q 2.95,-0.4 5.25,0.55 0.5,0.2 0.75,0.5 l 0.15,0.8 M 41,36.8 q -3.35,-5.35 -3.6,-5.05 -1.15,1.6 -2.85,2.5 l 4.05,-4.6 -0.55,1.15 q -0.1,0.1 2.95,6"
         fill="#000000"
         fill-rule="evenodd"
         stroke="none"
         id="path6" />
      <path
         d="m 34.8,43.6 -5.3,-3.55 -1.25,1.45 m 6.3,-7.25 -5.05,5.8 m 9.1,-10.4 -4.05,4.6 m 0.25,9.35 1.55,1.05"
         fill="none"
         stroke="#999999"
         stroke-linecap="round"
         stroke-linejoin="round"
         stroke-width="1"
         id="path7" />
      <path
         d="M 34.1,33.55 Q 33.4,32.5 33.15,31 q -0.3,-1.6 -0.1,-3.1 0.2,-1.6 1.05,-3.85 -0.9,-0.3 -1.3,-0.7 L 31.9,22 31.25,20.55 q -0.45,-1.65 0.25,-3.3 0.6,-1.45 2.1,-2.6 l 1.25,-0.65 1.1,-0.15 q 4,0 7.15,3.75 l 0.35,0.05 2.9,0.65 0.15,-0.35 q 0.55,-0.75 2,-1.25 l 0.55,-0.2 1.1,-0.3 q 1.05,-0.15 2.1,0.55 1.3,0.85 1.85,2.25 l 0.2,0.75 0.05,0.95 -0.25,1.5 -0.6,1.1 -1,1.5 q 0.5,0.8 0.4,1.55 l -0.15,0.8 q 0.15,1.85 -0.4,3.7 -0.6,1.95 -1.95,3.5 -2.75,3.2 -7.05,3.45 -4.2,0.25 -7.55,-2.4 -1.1,-0.95 -1.7,-1.85 m 2.1,-7.7 0.05,1 q 0.1,0.65 0.45,1.15 0.35,0.5 1.15,0.75 0.7,0.25 1.5,0 L 40.6,27.9 q 0.5,-0.6 0.55,-1.4 0.1,-0.8 -0.3,-1.5 -0.35,-0.65 -1.1,-1 l -1.5,-0.2 q -0.8,0.1 -1.35,0.7 -0.6,0.6 -0.7,1.35 m 5.95,7 0.6,-0.6 0.3,-0.4 0.55,-0.3 0.65,1.3 0.35,0.55 0.6,0.05 q 0.25,-0.15 0.15,-0.7 L 44.95,30.7 44.6,30 l 0.2,-0.55 -0.1,-0.55 0.05,-0.4 -0.1,-0.45 -0.45,-0.6 -0.55,0.1 -0.35,0.45 -0.4,0.95 -0.1,0.45 v 0.15 l -0.3,0.15 -0.45,0.55 -0.4,0.65 -0.4,0.5 -0.3,0.6 q -0.15,0.45 0.05,0.8 0.25,0.45 0.7,0.35 l 0.45,-0.3 M 47.65,26 q -0.35,0.65 -0.25,1.35 0.1,0.8 0.65,1.4 l 1.3,0.75 1.55,-0.15 q 0.75,-0.3 1.15,-1 0.4,-0.65 0.3,-1.5 -0.05,-0.8 -0.55,-1.4 -0.85,-1 -2.2,-0.85 -1.35,0.15 -1.95,1.4 M 38.6,48.1 q -0.7,1.4 -3.05,2.25 -3.3,1.2 -9.85,1.1 L 16,51.3 13.3,50.95 Q 12.15,50.4 10.8,48.55 L 5.4,42.1 0.1,35.55 l -1,-1.7 Q -1.25,32.7 -0.65,31.9 -0.2,31.35 0.7,31.25 H 0.85 Q 0.5,30.45 0.4,29.1 L -0.2,20.5 0,19.65 0.15,19.55 0.1,19.45 q -0.6,-1.1 -0.6,-1.75 l 0.25,-0.85 -0.05,-0.1 q -0.35,-1 0.05,-1.7 0.55,-0.9 1.7,-0.6 0.7,0.1 1.7,0.9 l 2.1,2.6 3.3,4.75 7.7,11.5 1.05,1.75 2.1,2.55 q 1.4,-0.7 2.9,-1.05 l 3.35,-0.6 4.25,-0.2 q 2.25,0.2 4.3,1.3 2,1.05 3.45,2.8 l 1,1.7 q 0.4,0.95 0.5,2.6 0.1,1.45 -0.2,2.25 l -0.05,0.05 -0.3,0.75"
         fill="#000000"
         fill-rule="evenodd"
         stroke="none"
         id="path8" />
      <path
         d="m 47.65,26 q 0.6,-1.25 1.95,-1.4 1.35,-0.15 2.2,0.85 0.5,0.6 0.55,1.4 0.1,0.85 -0.3,1.5 -0.4,0.7 -1.15,1 l -1.55,0.15 -1.3,-0.75 Q 47.5,28.15 47.4,27.35 47.3,26.65 47.65,26 m -5.5,6.85 -0.45,0.3 Q 41.25,33.25 41,32.8 40.8,32.45 40.95,32 l 0.3,-0.6 0.4,-0.5 0.4,-0.65 0.45,-0.55 0.3,-0.15 V 29.4 l 0.1,-0.45 0.4,-0.95 0.35,-0.45 0.55,-0.1 0.45,0.6 0.1,0.45 -0.05,0.4 0.1,0.55 -0.2,0.55 0.35,0.7 0.4,2.05 q 0.1,0.55 -0.15,0.7 l -0.6,-0.05 -0.35,-0.55 -0.65,-1.3 -0.55,0.3 -0.3,0.4 -0.6,0.6 m -5.95,-7 q 0.1,-0.75 0.7,-1.35 0.55,-0.6 1.35,-0.7 l 1.5,0.2 q 0.75,0.35 1.1,1 0.4,0.7 0.3,1.5 -0.05,0.8 -0.55,1.4 l -1.25,0.85 q -0.8,0.25 -1.5,0 Q 37.05,28.5 36.7,28 36.35,27.5 36.25,26.85 l -0.05,-1"
         fill="#ffffff"
         fill-rule="evenodd"
         stroke="none"
         id="path9" />
    </g>
    <g
       id="shape2"
       transform="translate(1.5,1.5)">
      <path
         d="M 0,23.8 V 0 H 64.1 V 23.8 57.55 H 0 Z"
         fill="none"
         stroke="#000000"
         stroke-linecap="round"
         stroke-linejoin="round"
         stroke-width="3"
         id="path10" />
    </g>
  </defs>
</svg>
