<?xml version="1.0" encoding="UTF-8" standalone="no"?>
<svg
   ffdec:objectType="frame"
   height="60.549999"
   width="67.099998"
   version="1.1"
   id="svg8"
   sodipodi:docname="727.svg"
   xmlns:inkscape="http://www.inkscape.org/namespaces/inkscape"
   xmlns:sodipodi="http://sodipodi.sourceforge.net/DTD/sodipodi-0.dtd"
   xmlns:xlink="http://www.w3.org/1999/xlink"
   xmlns="http://www.w3.org/2000/svg"
   xmlns:svg="http://www.w3.org/2000/svg"
   xmlns:ffdec="https://www.free-decompiler.com/flash">
  <sodipodi:namedview
     id="namedview8"
     pagecolor="#ffffff"
     bordercolor="#000000"
     borderopacity="0.25"
     inkscape:showpageshadow="2"
     inkscape:pageopacity="0.0"
     inkscape:pagecheckerboard="0"
     inkscape:deskcolor="#d1d1d1"
     fit-margin-top="5"
     fit-margin-left="5"
     fit-margin-right="5"
     fit-margin-bottom="5" />
  <g
     transform="translate(1.5,1.5)"
     id="g3">
    <use
       ffdec:characterId="516"
       height="57.549999"
       width="64.099998"
       xlink:href="#shape0"
       id="use1" />
    <use
       ffdec:characterId="1217"
       height="57.400002"
       transform="translate(-1.1,-0.2)"
       width="65.25"
       xlink:href="#shape1"
       id="use2" />
    <use
       ffdec:characterId="518"
       height="60.549999"
       transform="translate(-1.5,-1.5)"
       width="67.099998"
       xlink:href="#shape2"
       id="use3" />
  </g>
  <defs
     id="defs8">
    <g
       id="shape0">
      <path
         d="M 53.6,0 H 64.1 V 57.55 H 53.6 28.25 0 V 0 H 28.25 53.6 V 57.55 0 M 28.25,0 V 57.55 0"
         fill="#ffffff"
         fill-rule="evenodd"
         stroke="none"
         id="path3" />
    </g>
    <g
       id="shape1"
       transform="translate(1.1,0.2)">
      <path
         d="m 39.95,29.15 0.5,-0.5 0.45,-0.55 0.05,-0.9 -0.15,-0.95 q 0,-1.15 1.3,-1.9 0.7,-0.45 2.2,-1.05 0.35,-2.45 0.85,-4.15 0.35,-1.5 1,-2.35 1,-1.2 2.3,-0.9 0.85,0.2 1.25,1.05 0.4,0.85 0.25,1.75 l -0.65,1.8 -0.4,1.7 -0.2,0.95 0.45,0.65 q 0.9,1.35 1.85,4 l -0.65,-3.65 -0.25,-1.2 0.25,-1.35 0.6,-2.25 0.3,-1 0.15,-0.95 q 0.25,-0.7 0.85,-0.95 l 1.05,-0.3 1.35,-0.6 2.05,0.1 0.65,0.8 q 0.2,0.55 0,1.05 l -0.2,0.3 0.15,1.15 0.05,3 q 0,3.3 -1.1,5 l -0.75,0.7 -0.25,0.1 0.1,0.85 q 0.35,2.1 -0.1,2.9 -0.35,0.65 -1.2,0.9 l -1.5,-0.15 -0.2,-0.1 0.05,0.6 -0.2,0.9 -0.1,0.95 q -0.25,1.1 -1.05,1.85 l -0.7,0.5 -1.3,3.15 L 49,40.25 48.95,40.5 Q 48.6,42 47.2,42.4 45.75,42.9 44.65,41.8 l -1.1,-1.9 -1.5,-2.3 -1.5,-2.35 q -0.8,-1.4 -1.05,-2.6 -0.65,-2.3 0.45,-3.5 M 7.75,36.6 Q 3.15,34.85 2,31.45 L 1.7,29.85 1.6,29.75 0.4,27.8 q -0.75,-1.45 -1.1,-4.15 l -0.25,-1.35 -0.1,-1.75 q 0.35,-1.2 1.4,-1.6 l 1.35,-0.2 1.45,0.1 1.7,-0.05 0.35,-0.4 q 2.45,-2.6 5.9,-3.2 l 3,-0.2 1.65,-3.2 0.6,-0.9 q 0.65,-0.65 1.5,-0.55 0.85,0.1 1.4,0.8 l 1.35,2.9 1,2.75 0.25,1.05 0.55,0.65 q -0.3,-0.95 0.35,-1.8 0.8,-0.95 2.05,-0.95 h 1.1 l 0.9,-0.15 1.35,-0.05 2.15,0.05 1,0.25 1.15,0.1 q 0.65,0.15 1.1,0.55 0.3,-0.65 1.35,-1.15 1.85,-1.05 4,-1.35 l 1.55,0.15 q 0.6,0.3 0.7,1.1 0,0.75 -0.6,1.2 l 0.35,0.55 0.25,-0.85 0.25,-0.6 0.75,-0.85 1.1,-0.2 q 0.65,0.2 0.85,0.7 l 0.35,0.8 0.1,0.95 -0.1,1.5 -0.1,0.4 -0.05,0.6 -0.3,1.95 -0.25,0.55 q -0.5,0.9 -1.55,0.9 -1.05,0 -1.45,-0.75 l -0.05,0.45 q -0.25,2.2 -0.95,4 l -1,1.75 q -0.95,1 -3.45,1.6 l -2.95,0.7 q -0.85,0.2 -1.4,0.5 l -1.25,0.95 -1.5,0.3 q -0.85,-0.1 -1.4,-0.65 -0.5,-0.5 -1,-1.8 l -0.7,-2.35 -0.45,1.95 0.25,0.3 q 0.5,0.75 0.6,1.75 l 0.15,0.7 0.65,1.05 0.25,0.8 0.5,0.4 0.6,0.8 h 0.25 q 0.9,0.1 1.25,0.35 l 0.55,0.6 0.15,-0.7 0.4,-1.05 0.75,-1.1 1.1,-1 q 0.85,-0.45 1.8,-0.55 l 1.65,0.05 1.2,0.75 q 2.1,1.7 3.35,4.25 l 0.8,1.6 1.4,1.85 q 0.8,1.1 0.9,2 0.15,1.25 -0.7,2.1 -0.85,0.85 -2.35,0.65 L 37.8,44.25 35.95,43.15 34.2,42 l -1,-1 -1.25,-0.7 q -2.15,-1.25 -2.35,-2.9 -0.65,1.55 -1.9,1.95 l -0.95,0.2 -1.75,0.4 -1.2,0.15 -0.65,0.15 q 0.8,1.75 1.2,3.25 l 0.65,3.45 0.4,2.9 0.3,3.35 q 0.05,1.85 -0.45,3.25 L 24.9,57.2 h -5.7 l -0.4,-0.1 -0.95,0.1 h -7.4 L 10.1,56.4 q -0.2,-1.15 0.55,-3.1 l 1.4,-4.55 -2.2,2.4 Q 8.3,52.2 6.4,52.3 4.25,52.4 3.2,51 2.6,50.15 2.6,48.65 q 0,-1.1 0.35,-1.95 0.7,-1.75 2.5,-2.3 1.65,-0.6 3.4,0.3 l 0.4,0.1 0.15,-0.2 q 1.3,-2.45 1.9,-5.05 l 0.4,-1.6 0.15,-0.45 Q 9.8,37.35 7.75,36.6 M 33,20 q -0.95,0.55 -2.05,0.55 L 28.75,20.3 27.5,20.35 26.25,20.4 Q 25.2,20.4 24.1,20 l -1,-0.55 q 1.05,1.55 1.55,3.3 0.35,-0.6 1.05,-0.95 1.05,-0.55 2.6,-0.45 l 1.5,0.1 1.7,-0.35 1.7,-0.45 0.15,-0.8 L 33,20 m -29.15,9.2 -0.1,0.05 q -0.4,1.3 0,2.55 l 0.05,0.05 0.85,1.1 Q 6.15,34.2 7.9,33.45 9.65,32.7 9.8,30.8 V 30.05 Q 9.6,28.95 8.9,28.25 L 7.45,28.6 Q 6.2,28.7 5.3,28.2 L 4.9,27.95 4.25,28.5 3.85,29.2 m 16.2,-2.85 q 0.4,-0.85 0.3,-1.8 -0.15,-1 -0.75,-1.7 -0.6,-0.7 -1.55,-1 -0.95,-0.25 -1.85,0 l -0.1,0.05 -0.15,0.55 -0.3,1.05 q -0.5,1.25 -1.6,2.25 l 0.25,0.65 q 0.4,0.85 1.2,1.35 L 16.1,28 q 1.6,0.6 2.95,-0.45 l 0.8,-0.85 0.2,-0.35"
         fill="#999999"
         fill-rule="evenodd"
         stroke="none"
         id="path4" />
      <path
         d="m 20.05,26.35 -0.2,0.35 -0.8,0.85 Q 17.7,28.6 16.1,28 l -0.6,-0.25 q -0.8,-0.5 -1.2,-1.35 l -0.25,-0.65 q 1.1,-1 1.6,-2.25 l 0.3,-1.05 0.15,-0.55 0.1,-0.05 q 0.9,-0.25 1.85,0 0.95,0.3 1.55,1 0.6,0.7 0.75,1.7 0.1,0.95 -0.3,1.8 M 3.85,29.2 4.25,28.5 4.9,27.95 5.3,28.2 q 0.9,0.5 2.15,0.4 L 8.9,28.25 q 0.7,0.7 0.9,1.8 V 30.8 Q 9.65,32.7 7.9,33.45 6.15,34.2 4.65,32.95 L 3.8,31.85 3.75,31.8 q -0.4,-1.25 0,-2.55 l 0.1,-0.05"
         fill="#ffffff"
         fill-rule="evenodd"
         stroke="none"
         id="path5" />
      <path
         d="m 60.2,20.4 q -0.2,3.75 -0.65,5.45 l -0.9,3.6 Q 58.2,31.3 55.7,36 l -2.05,2.7 -2.6,3.4 L 48,45.6 45.85,47.35 43.7,49 42.35,50.15 q -0.8,0.6 -1.6,0.55 -1,0 -2.5,-1.35 L 33.3,44.9 Q 28.35,40.35 26,36.85 20.6,29.15 19.75,18.25 19.4,14.9 19.7,12.55 19.9,11 20.25,10.35 20.9,9.15 21.9,8.9 22.85,8.65 24.1,9.25 l 2.1,1 6.35,0.3 q 3.1,-0.5 4.35,-1.25 L 39.6,7.45 Q 41.4,6.5 42.8,7.1 l 1.6,1.3 q 1.35,1.2 4.75,2.45 2.45,0.75 3.5,0.5 0.85,-0.25 2,-1.3 1.35,-1.1 2,-1.35 1.4,-0.6 2.4,0.35 0.45,0.45 0.75,1.55 0.5,2.15 0.55,4.85 L 60.2,20.4 m -14.1,20.35 3.95,-4.6 2.15,-3 Q 50,27.5 48.3,24.3 l -0.35,-0.85 0.05,-1.5 1.1,-4.75 0.35,-1.35 0.05,-0.2 -3,-0.95 -0.1,-0.05 -0.05,0.05 -0.1,0.55 -1.5,4.5 -0.8,2.75 -0.25,0.7 -0.4,0.3 -0.25,0.15 -0.9,0.25 -0.75,0.1 -0.25,2.55 -0.15,0.9 -0.65,0.65 -2.5,2.2 v 0.1 l 1.4,2.7 3.9,5.35 0.8,1.45 1.25,1.75 0.9,-0.9 m -4.1,-27.8 -0.05,2.25 -0.35,6.9 0.45,-0.05 0.25,0.05 0.05,-0.05 0.1,-0.35 0.85,-3.3 0.15,-0.45 0.4,-1.75 0.3,-0.4 0.15,-0.8 0.3,-0.85 0.15,-0.25 -2.7,-1.45 -0.05,0.5 m 4.95,8.4 Q 47.4,22 46.9,22.6 L 46.25,23 45.75,22.95 Q 45,22.75 45,21.9 45.05,21 45.9,20.9 H 46 q 0.55,0 0.95,0.45 m 5.85,1.2 q 0.5,0.6 0.3,1.3 -0.3,0.7 -1.05,0.8 l -0.6,-0.05 -0.7,-0.5 -0.2,-0.5 v -0.7 q 0.3,-0.75 1.15,-0.75 0.6,-0.1 1.1,0.4 m 0.85,6.65 1.5,-4.2 q 0.7,-2.3 0.9,-5.3 l 0.1,-5.4 q -1.95,1.45 -4.7,1.4 H 51.4 l -0.15,1.15 -1.5,5.75 q -0.25,0.55 -0.15,1 l 0.3,0.9 q 1.6,3.05 3.05,6.65 v 0.05 l 0.7,-2 m -11,2.7 q -0.3,-0.35 -0.05,-0.85 l 0.6,-0.65 1.2,-0.9 q 0.15,-0.15 0.95,-0.55 l 0.9,-0.6 L 47,27.8 q 0.65,-0.25 0.85,0.25 0.05,0.4 -0.5,0.8 l -2.8,2.55 -0.85,0.75 q -0.75,0.3 -1.05,-0.25 m 2.7,5.05 q -0.1,-0.4 0.4,-1.15 l 1.45,-3.2 0.4,-0.7 0.7,-0.15 0.5,0.45 q 0.15,0.55 -0.35,1.2 L 47,36.45 q -0.25,0.85 -0.7,1 l -0.55,-0.05 -0.4,-0.45 m -4.1,4.35 q 0.75,0.45 0.4,1.3 l -0.3,0.35 -1.05,0.2 q -0.65,-0.2 -0.8,-0.85 -0.1,-0.55 0.4,-1.05 l 1.35,0.05 M 31.6,36.05 q 3.9,4.55 8.65,8.5 0.5,0.35 0.7,0.35 l 0.6,-0.2 2.15,-1.65 -0.1,-0.05 -1.45,-2.85 -5,-8.25 -0.3,-0.5 -0.95,-0.3 -0.25,0.05 q -4.15,0.6 -5.7,2.75 l -0.05,0.1 1.7,2.05 m -4.45,-19.3 -0.05,0.2 -0.4,0.6 -0.7,0.1 q -0.65,-0.25 -0.6,-0.95 0.15,-0.55 0.75,-0.65 0.65,-0.15 0.95,0.5 l 0.05,0.2 m 8.9,-2.35 -2,0.4 L 34,19 33.85,19.9 33,20.6 28,20.9 25.85,21.15 25,21.4 q 0.9,5.2 3.45,10.15 l 0.25,0.5 0.9,-1 q 0.3,-0.2 1.55,-0.85 1.65,-0.75 2.85,-1 l 2.1,-0.05 0.35,0.1 0.2,-0.2 2.05,-1.75 0.85,-0.9 0.2,-0.95 0.1,-2 0.25,-6.05 -0.2,-4.5 v -0.05 q -2,1.05 -3.85,1.55 m -3.85,0.65 -7.7,-0.3 q -0.05,2.2 0.2,4.4 l 2.05,-0.05 2.2,-0.1 q 3.25,0 3.35,-0.65 v -3.3 h -0.1 m 3.9,7.95 -0.85,1.45 0.45,0.25 0.6,0.4 q 0.4,0.35 0.3,0.65 -0.1,0.5 -0.65,0.5 L 35.1,26 34.6,25.65 33.85,26.9 33.2,27.75 32.25,27.65 q -0.55,-0.25 -0.4,-0.9 l 0.9,-1.35 0.45,-0.5 -0.3,-0.2 q -0.85,-0.6 -0.6,-1.35 0.25,-0.65 0.9,-0.45 l 0.8,0.55 0.1,0.1 0.35,-0.65 1.15,-1.75 0.15,-0.3 0.9,-1 L 37,19.45 37.65,19.4 38,19.95 37.7,20.4 36.75,22.3 36.1,23 m -1.35,9.05 0.9,0.15 0.7,0.65 q 0.3,0.85 -0.2,1.4 -0.65,0.8 -1.6,0.4 -0.95,-0.4 -0.9,-1.4 0.15,-1 1.1,-1.2"
         fill="#000000"
         fill-rule="evenodd"
         stroke="none"
         id="path6" />
      <path
         d="M 31.1,9.35 Q 30.8,9.3 30.5,8.9 L 29.5,7.55 29.2,6.8 28.8,6.35 28.2,5.2 25.8,1.3 Q 25.25,0.5 25.1,-0.2 h 4.4 l 0.65,1.75 0.3,0.6 0.35,1.35 0.4,1 0.15,0.8 0.35,1.2 0.2,1.3 0.05,1.05 q -0.2,0.7 -0.85,0.5 M 18.9,9.05 Q 18.6,9.1 18.2,8.75 L 16.9,7.7 16.4,7.05 15.9,6.75 15.05,5.75 11.7,2.6 q -1,-0.85 -1.25,-1.75 -0.15,-0.5 0.1,-1.05 h 4.1 l 0.05,0.1 1.25,1.85 0.45,0.5 0.7,1.25 0.65,0.85 0.35,0.7 0.65,1.1 0.5,1.2 0.35,1 q -0.05,0.7 -0.7,0.7 m 43.2,0 q -0.65,0 -0.7,-0.7 l 0.35,-1 0.5,-1.2 0.65,-1.1 0.35,-0.7 0.65,-0.85 0.25,-0.45 v 4.6 L 64.1,7.7 q -0.4,0.5 -1.3,1.05 -0.4,0.35 -0.7,0.3 m -12.2,0.3 q -0.65,0.2 -0.85,-0.5 L 49.1,7.8 49.3,6.5 49.65,5.3 49.8,4.5 l 0.4,-1 0.35,-1.35 0.3,-0.6 0.65,-1.75 h 4.4 l -0.7,1.5 -2.4,3.9 -0.6,1.15 -0.4,0.45 -0.3,0.75 -1,1.35 q -0.3,0.4 -0.6,0.45 m -1,37.9 0.6,0.45 1,1.35 0.3,0.75 0.4,0.45 0.6,1.15 2.4,3.9 q 0.7,1.05 0.75,1.9 h -4.3 l -0.05,-0.05 -0.75,-2.1 -0.3,-0.6 -0.35,-1.35 -0.4,-1 -0.15,-0.8 -0.35,-1.2 -0.2,-1.3 -0.05,-1.05 q 0.2,-0.7 0.85,-0.5 m 6.2,-7.9 q 0.3,-0.05 0.7,0.3 l 1.3,1.05 0.5,0.65 0.5,0.3 0.85,1 3.35,3.15 q 1,0.85 1.25,1.75 l -0.15,1.25 -0.85,1 -1.3,0.2 -1.15,-0.45 -0.8,-1.05 -1.25,-1.85 -0.45,-0.5 -0.7,-1.25 -0.65,-0.85 -0.35,-0.7 -0.65,-1.1 -0.5,-1.2 -0.35,-1 q 0.05,-0.7 0.7,-0.7 m -28,1.1 q 0.65,0 0.7,0.7 l -0.35,1 -0.5,1.2 -0.65,1.1 -0.35,0.7 -0.65,0.85 -0.7,1.25 -0.45,0.5 -1.25,1.85 -0.8,1.05 q -0.5,0.4 -1.15,0.45 l -1.3,-0.2 q -0.6,-0.4 -0.85,-1 -0.3,-0.65 -0.15,-1.25 0.25,-0.9 1.25,-1.75 l 3.35,-3.15 0.85,-1 0.5,-0.3 0.5,-0.65 1.3,-1.05 q 0.4,-0.35 0.7,-0.3 m 6.4,7.3 q 0.65,-0.2 0.85,0.5 l -0.05,1.05 -0.2,1.3 -0.35,1.2 -0.15,0.8 -0.4,1 -0.35,1.35 -0.3,0.6 -0.6,1.65 h -4.4 q 0.15,-0.65 0.65,-1.4 l 2.4,-3.9 0.6,-1.15 0.4,-0.45 0.3,-0.75 q 0.25,-0.6 1,-1.35 0.3,-0.4 0.6,-0.45"
         fill="#999999"
         fill-rule="evenodd"
         stroke="none"
         id="path7" />
    </g>
    <g
       id="shape2"
       transform="translate(1.5,1.5)">
      <path
         d="M 0,23.8 V 0 H 64.1 V 23.8 57.55 H 0 Z"
         fill="none"
         stroke="#000000"
         stroke-linecap="round"
         stroke-linejoin="round"
         stroke-width="3"
         id="path8" />
    </g>
  </defs>
</svg>
