<?xml version="1.0" encoding="UTF-8" standalone="no"?>
<svg
   ffdec:objectType="frame"
   height="60.549999"
   width="67.099998"
   version="1.1"
   id="svg8"
   sodipodi:docname="371.svg"
   xmlns:inkscape="http://www.inkscape.org/namespaces/inkscape"
   xmlns:sodipodi="http://sodipodi.sourceforge.net/DTD/sodipodi-0.dtd"
   xmlns:xlink="http://www.w3.org/1999/xlink"
   xmlns="http://www.w3.org/2000/svg"
   xmlns:svg="http://www.w3.org/2000/svg"
   xmlns:ffdec="https://www.free-decompiler.com/flash">
  <sodipodi:namedview
     id="namedview8"
     pagecolor="#ffffff"
     bordercolor="#000000"
     borderopacity="0.25"
     inkscape:showpageshadow="2"
     inkscape:pageopacity="0.0"
     inkscape:pagecheckerboard="0"
     inkscape:deskcolor="#d1d1d1"
     fit-margin-top="5"
     fit-margin-left="5"
     fit-margin-right="5"
     fit-margin-bottom="5" />
  <g
     transform="translate(1.5,1.5)"
     id="g3">
    <use
       ffdec:characterId="516"
       height="57.549999"
       width="64.099998"
       xlink:href="#shape0"
       id="use1" />
    <use
       ffdec:characterId="872"
       height="47.849998"
       transform="translate(-1.1,9.35)"
       width="64.849998"
       xlink:href="#shape1"
       id="use2" />
    <use
       ffdec:characterId="518"
       height="60.549999"
       transform="translate(-1.5,-1.5)"
       width="67.099998"
       xlink:href="#shape2"
       id="use3" />
  </g>
  <defs
     id="defs8">
    <g
       id="shape0">
      <path
         d="M 53.6,0 H 64.1 V 57.55 H 53.6 28.25 0 V 0 H 28.25 53.6 V 57.55 0 M 28.25,0 V 57.55 0"
         fill="#ffffff"
         fill-rule="evenodd"
         stroke="none"
         id="path3" />
    </g>
    <g
       id="shape1"
       transform="translate(1.1,-9.35)">
      <path
         d="m 53.4,17.7 h 0.35 l 0.3,0.1 h 0.1 0.2 0.15 0.1 l 0.1,0.05 h 0.1 L 55,17.9 h 0.1 l 0.1,0.05 h 0.1 L 55.4,18 h 0.1 l 0.05,0.05 0.15,0.05 0.1,0.05 h 0.1 0.1 l 0.1,0.1 0.1,0.05 0.15,0.05 0.05,0.1 0.1,0.05 v 0.05 l 0.1,0.05 0.05,0.1 0.05,0.1 0.1,0.05 0.05,0.05 0.05,0.05 V 19 l 0.05,0.05 v 0.15 l -0.05,0.05 0.05,0.1 H 57 v 0.05 0.1 l 0.05,0.1 -0.05,0.05 -0.05,0.1 H 57 v 0.05 l -0.05,0.1 -0.05,0.05 v 0.15 0.05 l -0.05,0.1 v 0.05 l -0.1,0.05 -0.05,0.15 v 0.05 h -0.05 l -0.05,0.1 -0.05,0.05 -0.1,0.1 -0.05,0.05 -0.05,0.1 -0.05,0.05 -0.05,0.05 -0.1,0.05 -0.1,0.1 -0.05,0.05 q 0.55,0.05 0.75,0.25 0.5,0.35 0.3,0.95 -0.2,0.85 -1.3,1.3 L 54.2,24 47.3,23.95 40.65,23.35 37.5,22.85 q -0.45,-0.2 -0.15,-0.4 l 1.6,-0.3 V 22.1 H 38.8 l -0.05,-0.05 h -0.1 -0.2 -0.1 L 38.15,22 38.05,21.95 h -0.1 V 21.9 h -0.1 L 37.8,21.85 h -0.15 v -0.1 H 37.55 37.4 L 37.35,21.7 37.2,21.65 h -0.05 -0.1 -0.1 V 21.6 H 36.8 L 36.7,21.55 H 36.65 36.3 L 36.2,21.5 H 35.9 L 35.75,21.45 H 35.7 L 35.65,21.4 H 35.6 l -0.3,-0.1 h -0.15 l -0.3,-0.05 h -0.25 -0.1 -1 -0.25 l -0.8,-0.05 h -0.2 L 31.6,21.15 H 29.9 L 29.8,21.1 29.75,21.05 H 29.7 L 29.55,21 29.4,20.95 h -0.05 l -0.1,-0.1 -0.2,-0.05 h -0.1 -0.1 L 28.9,20.75 H 28.8 V 20.7 H 28.65 28.5 28.45 l -0.1,-0.05 -0.05,-0.1 H 28.25 L 28.2,20.5 v -0.15 l 0.05,-0.1 0.05,-0.1 V 20.1 l 0.1,-0.15 0.1,-0.05 0.1,-0.1 0.1,-0.05 h 0.05 L 29,19.7 29.2,19.65 29.35,19.6 h 0.05 l 0.1,-0.1 h 0.1 l 0.2,-0.05 0.15,-0.05 0.15,-0.05 h 0.1 l 0.15,-0.05 0.15,-0.05 h 0.05 L 30.7,19.2 h 0.15 l 1.7,-0.05 h 0.55 l 0.3,-0.1 h 0.75 0.45 L 35.4,19 h 0.15 l 0.25,-0.05 h 0.35 0.25 0.2 L 36.75,18.9 H 36.8 L 37,18.85 h 0.25 0.2 l 0.1,-0.05 h 0.25 l 0.15,-0.05 h 0.1 l 0.1,-0.05 0.2,-0.1 0.15,-0.05 H 38.15 37.9 L 37.8,18.5 H 37.75 L 37.6,18.45 H 37.5 L 37.45,18.4 h -0.3 V 18.35 L 37,18.3 h -0.15 l -0.3,-0.05 h -0.1 L 36.2,18.15 H 36.1 35.3 34.85 34.3 L 34.15,18.1 34.1,18.05 H 34.05 33.8 33.7 L 33.5,18 33.35,17.95 V 17.85 17.8 H 33.3 l 0.05,-0.15 v -0.1 l 0.05,-0.1 0.1,-0.05 0.15,-0.15 0.05,-0.05 0.2,-0.05 0.05,-0.05 h 0.4 l 0.2,-0.05 H 34.6 L 34.65,17 h 0.15 0.6 0.4 0.9 0.15 l 0.25,-0.05 h 0.15 l 0.2,-0.05 h 0.1 l 0.1,-0.1 h 0.15 0.05 l 0.1,-0.05 h 0.2 L 38.3,16.7 h 0.05 l 0.15,-0.05 h 0.2 l 0.2,-0.05 h 0.2 0.4 l 0.05,-0.1 h 0.15 0.1 l 0.1,-0.05 h 0.15 l 0.05,-0.1 h 0.1 l 0.1,-0.05 h 0.1 l 0.1,-0.05 0.3,-0.05 h 0.1 0.2 0.1 l 0.05,-0.05 H 41.4 L 41.5,16.1 40.1,15.8 Q 40,15.6 40.55,15.4 l 3.6,-0.5 7.15,-0.6 q 3.95,-0.25 6.95,-0.05 l 1.35,0.25 q 0.7,0.45 0.2,1.3 -0.3,0.65 -1.1,0.95 L 57.75,17 57.8,17.05 h -4.35 l -0.05,0.1 -0.05,0.05 v 0.15 0.05 l -0.05,0.1 -0.05,0.1 -0.05,0.1 h 0.2 m 1.15,18.15 -0.3,1.05 -0.15,1.1 -0.35,0.75 -0.95,1.4 -0.45,0.2 Q 52.1,40.2 52.2,39.8 52.45,38.2 52.15,36.75 l -0.05,-1.3 q 0.1,-0.45 0.55,-0.7 l 0.85,-0.2 q 0.45,0.1 0.75,0.45 l 0.3,0.85 m -3.4,5.5 0.1,1.25 V 43 l -0.3,0.3 q -0.35,0 -0.4,-0.2 L 50.4,42.6 50.2,42.25 50.15,41.95 50,41.6 49.95,41.15 49.5,40.3 48.05,38.5 47.2,37.65 46.75,37.3 q -0.7,-0.6 -0.45,-1.55 0.25,-0.95 1.15,-1.1 0.95,-0.15 1.5,0.55 l 0.3,0.4 0.3,0.65 0.75,1.55 0.5,1.45 0.1,0.75 v 0.45 l 0.25,0.9 M 39.9,37.75 h 0.2 0.35 0.15 l 0.3,0.05 h 0.3 l 0.1,0.05 0.15,0.05 0.2,0.05 0.15,0.05 0.1,0.1 0.15,0.05 0.05,0.05 0.1,0.1 0.1,0.05 0.05,0.05 0.05,0.1 0.05,0.05 0.05,0.1 0.05,0.05 0.05,0.05 v 0.1 l 0.05,0.05 0.05,0.05 v 0.1 l 0.05,0.05 v 0.05 0.1 l 0.05,0.05 v 0.1 0.1 0.1 0.1 0.1 0.1 0.1 l -0.05,0.05 v 0.1 L 42.7,40.2 v 0.05 l -0.05,0.1 -0.05,0.05 v 0.05 l -0.05,0.1 -0.05,0.05 -0.05,0.1 -0.05,0.05 -0.05,0.05 -0.05,0.1 -0.05,0.05 -0.1,0.05 -0.1,0.1 -0.1,0.05 -0.1,0.05 -0.15,0.1 -0.1,0.05 0.05,0.05 v 0.05 l 0.05,0.05 0.05,0.1 v 0.05 l 0.05,0.05 v 0.1 0.05 l 0.05,0.1 v 0.1 0.1 0.1 0.1 0.05 l -0.05,0.05 v 0.1 0.05 l -0.05,0.1 v 0.05 L 41.7,42.8 v 0.1 L 41.65,42.95 41.6,43 41.55,43.1 v 0.05 l -0.05,0.05 -0.05,0.1 -0.1,0.05 -0.05,0.1 -0.05,0.05 -0.1,0.05 -0.1,0.1 -0.1,0.05 -0.1,0.05 -0.2,0.1 -0.1,0.05 h -0.1 l -0.1,0.05 H 40.3 L 40.1,44 H 38.9 38.65 38.3 L 37.5,43.95 37,43.9 H 36.75 L 36.3,43.85 H 34.95 34.75 33.7 L 32.15,43.9 H 30.9 l -3.05,0.05 H 25.3 24.35 19.15 L 16.8,43.9 H 16.6 L 16.4,43.85 H 16 L 15.1,43.8 h -1.15 l -0.4,-0.05 H 13.15 12.8 L 12.55,43.7 h -0.4 L 11.7,43.65 H 11.5 L 11.4,43.6 10.9,43.55 H 10.5 L 10.1,43.5 H 9.85 L 9.35,43.45 H 9.2 9.1 L 8.8,43.4 H 8.4 L 8.05,43.35 H 6.85 L 6.55,43.3 H 6.35 L 6.15,43.25 H 5.35 L 4.65,43.2 H 4.3 3.9 3.15 3.05 L 2.75,43.15 H 2.65 L 2.35,43.1 H 1.95 L 1.8,43.05 1.5,43 1.3,42.95 1.1,42.9 1,42.85 0.95,42.8 0.85,42.75 0.7,42.7 0.6,42.65 0.55,42.6 0.45,42.55 H 0.2 V 42.5 L 0.05,42.45 -0.05,42.4 -0.1,42.35 -0.15,42.25 v -0.1 l 0.05,-0.1 V 42 L -0.05,41.95 0.05,41.9 0.1,41.85 H 0.2 L 0.3,41.8 0.55,41.75 0.65,41.7 0.7,41.65 0.9,41.55 1,41.5 H 1.05 L 1.2,41.45 1.3,41.4 H 1.35 L 1.5,41.35 H 1.6 L 1.8,41.3 h 0.15 l 0.2,-0.05 h 0.4 l 0.2,-0.05 h 0.1 0.2 l 0.3,-0.05 H 3.9 4.3 4.65 l 0.9,-0.05 h 0.6 l 0.4,-0.05 h 0.2 L 7.05,41 H 8.1 L 8.5,40.95 H 8.8 9.1 L 9.35,40.9 H 9.6 l 0.25,-0.05 h 0.5 l 0.4,-0.05 h 0.4 l 0.25,-0.05 h 0.1 l 0.2,-0.05 h 0.25 0.45 l 0.3,-0.05 h 0.35 L 13.4,40.6 h 0.4 l 0.4,-0.05 h 1.15 l 0.9,-0.05 h 0.25 l 0.25,-0.05 h 0.3 1.75 L 18.65,40.4 H 18.4 l -0.45,-0.05 h -0.1 V 40.3 L 17.6,40.25 17.35,40.2 H 17.1 L 17,40.15 H 16.6 16.5 16.2 16.15 L 15.35,40.1 15.3,40.05 15.25,40 H 15.2 L 15,39.95 14.95,39.9 14.8,39.8 14.7,39.75 v -0.1 -0.1 l 0.1,-0.1 0.1,-0.05 0.1,-0.05 0.2,-0.1 0.15,-0.05 0.2,-0.05 h 0.3 0.15 0.2 l 0.15,-0.05 h 0.15 0.1 0.4 l 0.25,-0.05 h 0.2 L 17.6,39 l 0.25,-0.05 0.1,-0.05 h 0.15 0.45 l 0.2,-0.05 h 0.15 l 0.2,-0.05 h 1.05 l 0.15,-0.05 h 0.1 l 0.15,-0.05 h 0.1 l 0.2,-0.05 h 0.45 0.5 l 0.4,-0.05 h 0.55 l 0.2,-0.05 h 0.25 l 0.25,-0.05 h 0.4 l 0.4,-0.05 h 0.3 L 24.6,38.4 h 0.1 0.25 l 0.4,-0.05 h 0.2 L 25.9,38.3 h 0.5 l 0.3,-0.05 h 0.25 l 1.5,-0.05 h 1.25 l 1.15,-0.05 h 0.45 0.1 0.25 0.4 l 0.4,-0.05 h 0.75 l 0.25,-0.05 H 33.5 L 33.6,38 h 0.1 l 0.2,-0.05 h 0.25 l 0.5,-0.05 h 0.45 0.25 l 0.05,-0.05 h 0.1 l 0.1,-0.05 h 0.3 4 V 37.75 M 20.65,44.6 h 3.5 l 0.4,0.05 h 0.3 L 25,44.7 h 0.1 l 0.15,0.05 h 0.35 0.25 l 0.3,0.05 h 0.25 l 0.1,0.05 h 0.2 l 0.1,0.05 h 0.1 L 27,44.95 27.15,45 h 0.15 l 0.05,0.05 0.15,0.05 0.15,0.05 0.2,0.1 0.1,0.05 0.2,0.05 0.1,0.1 0.15,0.05 0.05,0.05 0.1,0.1 0.1,0.05 0.05,0.05 0.05,0.1 0.05,0.05 0.05,0.1 0.05,0.05 0.05,0.05 v 0.1 l 0.05,0.05 0.05,0.05 v 0.1 l 0.05,0.05 v 0.05 0.1 0.05 0.1 0.1 0.1 0.05 l -0.05,0.05 v 0.1 L 29,47.2 28.95,47.3 v 0.05 l -0.05,0.05 -0.05,0.1 -0.05,0.05 h 0.65 L 29.9,47.5 h 0.45 l 0.55,-0.05 h 2.05 l 1.7,-0.05 h 0.3 l 0.15,-0.05 h 0.15 0.3 V 47.3 h 1.6 l 0.35,0.05 h 0.3 L 38,47.4 h 0.15 l 0.1,0.05 0.15,0.05 0.2,0.05 0.15,0.05 0.1,0.1 0.1,0.05 0.1,0.05 0.1,0.1 0.1,0.05 0.05,0.1 0.05,0.05 0.05,0.05 0.1,0.1 0.05,0.05 v 0.05 l 0.05,0.1 0.05,0.05 0.05,0.05 v 0.1 l 0.05,0.05 0.05,0.1 v 0.1 l 0.05,0.1 v 0.05 l 0.05,0.05 v 0.1 0.1 l 0.05,0.1 v 0.05 0.1 0.1 0.1 H 40 l 0.05,0.05 0.1,0.1 0.05,0.05 0.05,0.1 0.05,0.05 0.05,0.05 0.05,0.1 0.05,0.05 v 0.05 l 0.05,0.1 v 0.05 l 0.05,0.1 v 0.1 0.1 0.1 0.1 0.15 h 0.25 0.15 1.4 l 0.5,0.05 h 1.35 l 0.25,0.05 h 0.15 l 0.05,0.05 h 0.1 L 44.9,51.35 44.95,51.3 46,50 l 1.05,-2.35 0.2,-0.6 0.25,-0.45 q 0.05,-0.5 0.2,-0.7 l 0.45,-0.55 q 0.8,0.3 1.2,1.6 l 0.2,1.65 -0.6,2 -1.3,2.25 q -0.95,1.1 -2.15,1.4 l -0.45,0.1 H 45 l -0.35,0.05 h -0.2 v 0.05 H 42.8 L 42.35,54.5 H 41.2 40.55 39.75 L 38.1,54.45 H 37.45 L 37,54.4 h -0.2 -1 l -0.3,-0.05 -0.15,-0.05 -0.5,-0.05 h -0.9 L 33,54.2 H 31.95 L 31.8,54.15 h -0.25 -0.3 L 30.9,54.1 H 30.65 L 30.2,54.05 H 29.75 L 29.6,54 H 29.5 L 29.4,53.95 29.05,53.9 h -0.2 -0.2 L 28.5,53.85 H 28.3 V 53.8 h -0.35 l -0.4,-0.05 h -0.2 L 27,53.7 H 25.95 L 25.6,53.65 H 25.35 L 24.8,53.6 H 22 21.25 19.6 16.55 L 15.9,53.55 H 15.3 L 14.9,53.5 h -0.4 l -0.15,-0.05 h -0.1 L 14.2,53.4 H 14 v -0.05 h -0.15 -0.1 V 53.3 l -0.1,-0.05 -0.1,-0.05 h -0.2 L 12.75,53.15 12.6,53.1 12.5,53.05 12.45,53 12.4,52.9 v -0.1 -0.1 l 0.05,-0.05 0.05,-0.05 0.1,-0.05 0.05,-0.05 h 0.1 L 13.4,52.45 13.6,52.4 13.75,52.35 13.9,52.3 H 14 l 0.1,-0.05 h 0.1 l 0.15,-0.05 h 0.15 l 0.15,-0.05 h 0.25 l 0.45,-0.05 h 0.55 0.65 l 3.2,-0.05 h 1.3 1.1 2.8 L 25.55,52 h 0.2 l 0.2,-0.05 H 27 l 0.55,-0.05 h 0.2 L 26.9,51.85 H 26.1 25.5 22.75 21.8 L 19.1,51.8 h -1.4 l -1.85,0.05 h -0.2 -0.3 l -2.2,0.05 H 11.7 8.45 7.7 L 6.85,51.85 H 5.8 5.6 L 5.5,51.8 H 5.1 L 4.95,51.75 H 4.8 L 4.65,51.7 4.4,51.65 4.3,51.6 H 4.25 4.15 V 51.55 L 4,51.5 3.8,51.45 3.75,51.4 3.65,51.35 3.5,51.3 H 3.45 V 51.25 H 3.2 L 3.05,51.2 H 2.9 L 2.8,51.15 H 2.75 2.45 L 2.4,51.1 2.35,51 V 50.95 50.85 50.8 L 2.45,50.75 2.6,50.7 2.65,50.65 2.7,50.6 h 0.1 l 0.15,0.05 H 3.15 3.3 L 3.45,50.6 h 0.1 L 3.75,50.5 3.8,50.45 4,50.35 4.2,50.3 4.3,50.25 H 4.35 L 4.45,50.2 H 4.6 L 4.8,50.15 H 4.9 L 5.1,50.1 H 5.3 L 5.5,50.05 H 5.75 6 L 7.05,50 h 0.7 l 0.7,-0.05 H 11.7 L 13.15,50 h 0.1 V 49.9 49.8 49.75 L 13.3,49.7 v -0.1 -0.05 l 0.05,-0.05 0.05,-0.1 v -0.05 l 0.05,-0.05 0.05,-0.1 0.1,-0.05 0.05,-0.1 0.15,-0.05 0.15,-0.05 0.15,-0.05 0.1,-0.05 0.15,-0.05 0.05,-0.05 0.15,-0.05 0.1,-0.05 h -0.2 L 14.2,48.6 h -0.05 l -0.5,-0.05 h -0.4 -0.8 l -1.5,-0.05 h -0.4 V 48.45 H 9.9 L 9.2,48.4 H 8.9 L 7.75,48.35 H 4.7 L 3.9,48.3 H 3.7 3.2 L 3.1,48.25 H 2.6 L 2.5,48.2 H 2.25 L 2,48.15 H 1.75 L 1.6,48.1 H 1.5 V 48.05 H 1.25 1 V 48 H 0.95 L 0.75,47.95 H 0.7 L 0.65,47.9 H 0.5 L 0.3,47.85 0.15,47.8 -0.05,47.75 -0.15,47.7 -0.25,47.6 -0.35,47.5 -0.45,47.4 -0.5,47.35 -0.55,47.3 V 47.2 L -0.6,47.15 V 47.05 47 l -0.05,-0.05 v -0.1 -0.1 -0.1 -0.05 -0.1 -0.1 L -0.6,46.3 V 46.25 L -0.55,46.2 V 46.1 L -0.5,46.05 -0.4,46 -0.35,45.9 -0.3,45.85 -0.25,45.75 -0.1,45.7 0,45.65 0.1,45.6 0.2,45.55 0.35,45.5 0.5,45.45 0.7,45.4 h 0.2 0.05 0.2 0.2 0.15 L 1.6,45.35 H 1.75 L 1.9,45.3 h 0.15 l 0.2,-0.05 H 2.5 2.85 L 3.1,45.2 H 3.45 L 3.9,45.15 H 4.15 L 4.7,45.1 H 7.75 L 9,45.05 H 9.45 L 10.15,45 h 0.4 0.25 l 0.45,-0.05 h 1.2 l 0.8,-0.05 h 0.7 l 0.2,-0.05 h 0.3 l 0.3,-0.05 h 0.65 l 0.65,-0.05 h 0.8 1.15 l 1.2,-0.05 h 0.6 l 0.15,-0.05 h 0.3 0.4 V 44.6"
         fill="#999999"
         fill-rule="evenodd"
         stroke="none"
         id="path4" />
      <path
         d="m 52.7,16.2 q 0.3,-0.45 0.7,-0.65 0.7,-0.6 1.65,-0.7 L 55.1,14.4 q 0.25,-0.9 0.95,-1.5 0.85,-0.65 1.95,-0.6 1.1,0 1.8,0.75 0.75,0.75 0.8,1.85 0.05,1.1 -0.6,1.9 l -0.15,0.25 q 0.45,0.85 0.45,1.9 l -0.1,0.95 0.25,0.3 q 0.85,0.95 0.35,2.05 -0.35,1.1 -1.6,1.4 -1.15,0.15 -1.95,-0.6 -1.3,0.6 -2.55,0.45 -1.2,-0.1 -2.05,-0.7 l -0.1,0.05 q -0.95,0.65 -1.7,0.9 -1.6,0.55 -3.3,0.05 -1.65,-0.5 -1.95,-1 -0.35,-0.6 -1.4,-1.1 -1.15,-0.25 -1.5,0 l -1.65,0.65 -2.25,0.15 -1.1,-0.45 -0.85,-1.1 -0.2,-0.7 q 0,-0.5 0.5,-0.85 l 0.9,-0.05 0.8,1 0.3,0.05 0.65,-0.05 0.65,-0.35 1.45,-1 1.2,-0.4 1.4,-0.1 0.3,0.05 q 0.3,-1.45 1.25,-2.3 1.4,-1.3 3.2,-1 1.25,-0.1 2.5,0.75 l 0.8,0.35 0.15,-0.15 m 3.8,3.55 -0.6,0.15 0.15,0.7 0.1,0.7 q 0.05,0.65 -0.3,1.15 l -0.05,0.1 0.2,0.1 0.6,0.05 q 0.55,-0.05 0.95,-0.5 l 0.35,-1 q 0,-0.55 -0.45,-1 -0.4,-0.4 -0.95,-0.45 M 54.55,16.8 q -0.15,1.1 0.8,1.65 1.05,0.5 1.8,-0.25 l 0.5,-0.85 q 0.1,-0.55 -0.15,-0.95 -0.5,-1 -1.65,-0.85 -1.05,0.2 -1.3,1.25 M 49.5,42.75 q 0.6,1.4 0.5,3 0,2.35 -1.1,4.1 -0.95,1.5 -2.75,2.25 -1.65,0.75 -3.5,0.6 -2.95,-0.25 -4.9,-2.1 -0.95,-0.9 -1.35,-1.95 l -4.9,0.95 q 0.45,0.9 0.2,1.95 l -0.55,1.15 q -0.65,0.95 -1.7,1.35 l -1.3,0.2 -4.5,0.3 -3.1,0.05 Q 20.3,55.7 19.3,55.95 18.25,56.3 17.45,55.45 16.7,54.6 17.1,53.55 l 0.55,-0.8 q 0.4,-0.9 0.8,-1.1 l 1.1,-0.15 1.2,0.2 h 1.7 l 2.7,-0.1 2.6,-0.2 0.55,-0.3 q 0.1,-0.35 -0.4,-0.8 l -0.2,-0.15 -4.7,0.45 -2.75,-0.1 -2,-0.75 -9.15,1.8 Q 7.35,51.8 6.35,52.4 l -1.6,1.05 Q 3.8,54.05 3,54.05 2.2,54.05 1.55,53.45 0.85,52.95 0.7,52.15 0.55,51.3 1.05,50.5 1.5,49.75 2.3,49.3 q 1,-0.5 3.4,-0.7 l 6.1,-0.35 4.15,-0.2 L 16.5,48 Q 15.6,46.6 15.95,45.1 L 10.9,45.5 4.2,46.35 2.25,46.7 0.35,46.35 Q -1.1,45.65 -1.1,44.1 -1.2,42.5 0.25,41.85 L 1.9,41.55 3.7,41.7 5.45,41.6 Q 8,41.5 13.1,41.75 l 5.2,0.15 0.35,-0.15 q 1.45,-0.7 4.35,-0.85 2.2,-0.1 6.65,0.15 L 37.3,42 q 0.6,-1 1.75,-1.75 l 0.05,0.05 v -0.05 q 0,-1 0.15,-1.55 0.15,-0.8 0.75,-1.2 l 1.75,-0.2 1.65,0.75 2.45,1.4 0.1,0.15 0.5,0.2 q 2.1,0.95 3.05,2.95 m -7.35,4.8 q 0.4,0.7 1.2,1.05 l 1.55,0.1 0.8,-0.4 -0.05,-0.1 -0.4,-0.8 -0.3,-0.9 -0.1,-0.8 v -0.45 l 0.15,-1.1 -0.3,-0.1 q -0.8,-0.15 -1.55,0.25 -0.75,0.4 -1.1,1.1 -0.45,1.1 0.1,2.15 m 12.15,0.3 Q 53.95,47.2 53.95,46.55 L 53.8,46.45 Q 53.15,46.3 52.6,45.85 L 52.2,45.4 51.9,44.85 q -0.3,-1 0,-1.95 l 0.15,-0.45 0.25,-0.35 q 0.4,-0.6 1.05,-0.9 1.2,-0.55 2.4,0.25 l 0.7,0.65 0.1,0.2 1.55,-0.3 v -0.1 l 0.35,-0.7 q 0.75,-1.1 2.15,-1.1 l 0.05,-0.05 q 1.45,0 2.1,0.95 l 0.4,0.85 q 0.25,1 -0.3,1.8 l 0.05,0.1 0.3,0.75 -0.3,0.8 -0.5,0.4 q 0.2,1.25 -0.5,2.35 l -0.45,0.6 -0.4,0.45 0.7,1.1 q 1,1.8 0.45,3.85 l -0.5,1.15 -0.6,0.7 q -1.2,1 -2.8,1.25 L 57,57.2 55.75,57.1 q -0.6,-0.15 -1.05,-0.5 l -0.9,-0.65 -0.65,-1 -0.55,-0.05 -0.35,0.05 q -0.3,0.1 -0.45,0.3 l -0.45,0.4 -0.4,0.3 -0.95,0.15 -1.25,-0.3 -0.4,-0.3 -0.7,-0.95 v -0.3 L 47.5,53.9 q 0,-0.25 0.15,-0.35 0.65,-0.1 1.05,0.25 l 0.3,0.3 0.75,0.2 h 0.3 l 0.25,-0.25 q 1.05,-1.1 2.35,-1.25 l 0.05,-0.7 0.2,-0.95 q 0.45,-1.55 2,-2.45 l -0.6,-0.85 m 5.25,-3.2 q -0.55,0.7 -0.1,1.5 0.45,0.8 1.35,0.7 0.95,-0.1 1.25,-0.9 L 62.1,45.8 q -0.9,0.05 -1.6,-0.9 l -0.3,-0.5 -0.05,-0.2 -0.6,0.45 M 55.5,47 l 1.65,0.05 q 0.85,-0.6 0.6,-1.6 L 57.3,44.7 57.1,44.55 v 0.05 q -0.05,1.05 -1.05,1.7 l -0.9,0.4 0.35,0.3 M 7.65,16.3 q 0.25,-1.2 1,-2.4 L 8.6,13.85 8.3,12.8 Q 8,10.95 8.25,10.45 8.55,9.8 9.25,9.5 l 1.65,-0.1 1.3,0.2 1.15,0.2 q 1.5,-0.55 3,-0.4 2.55,0.35 4.15,2.6 1.55,2.15 1.2,4.85 l -0.5,2.05 1.1,-0.15 q 0.3,0 0.5,-0.2 l 0.25,-0.8 q 0.25,-1.05 1.3,-1.65 1,-0.55 2.1,-0.45 1.45,0.3 2.1,1.4 0.35,0.75 0.35,1.95 l -0.2,2 q -0.65,2.2 -1.95,2.5 l -2.45,0.25 -4.7,-0.15 -9.15,0.1 h -0.1 L 9.15,25.5 8.55,26.95 8,28.45 Q 7.5,29.4 6.5,29.8 l -2,0.1 q -1,-0.25 -1.65,-1.15 l -0.35,-0.6 -0.45,0.3 -2.4,0.1 V 23 L 0.1,22.6 q 4.05,-3.3 7.2,-4.8 l 0.3,-0.1 0.05,-1.4 m 7.3,1.15 q 0.15,0.6 0.55,1.05 l 0.75,-0.15 2.15,0.1 0.25,0.05 0.5,-0.75 L 18.55,17.4 16.8,16.2 16,15.35 15.85,15.2 q -0.5,0.3 -0.75,0.85 -0.35,0.65 -0.15,1.4"
         fill="#000000"
         fill-rule="evenodd"
         stroke="none"
         id="path5" />
      <path
         d="m 54.55,16.8 q 0.25,-1.05 1.3,-1.25 1.15,-0.15 1.65,0.85 0.25,0.4 0.15,0.95 l -0.5,0.85 q -0.75,0.75 -1.8,0.25 -0.95,-0.55 -0.8,-1.65 m 1.95,2.95 q 0.55,0.05 0.95,0.45 0.45,0.45 0.45,1 l -0.35,1 q -0.4,0.45 -0.95,0.5 l -0.6,-0.05 -0.2,-0.1 0.05,-0.1 q 0.35,-0.5 0.3,-1.15 l -0.1,-0.7 -0.15,-0.7 0.6,-0.15 m -14.35,27.8 q -0.55,-1.05 -0.1,-2.15 0.35,-0.7 1.1,-1.1 0.75,-0.4 1.55,-0.25 l 0.3,0.1 -0.15,1.1 v 0.45 l 0.1,0.8 0.3,0.9 0.4,0.8 0.05,0.1 -0.8,0.4 -1.55,-0.1 q -0.8,-0.35 -1.2,-1.05 M 55.5,47 l -0.35,-0.3 0.9,-0.4 q 1,-0.65 1.05,-1.7 v -0.05 l 0.2,0.15 0.45,0.75 q 0.25,1 -0.6,1.6 L 55.5,47 m 4.05,-2.35 0.6,-0.45 0.05,0.2 0.3,0.5 q 0.7,0.95 1.6,0.9 l -0.05,0.15 q -0.3,0.8 -1.25,0.9 -0.9,0.1 -1.35,-0.7 -0.45,-0.8 0.1,-1.5 m -44.6,-27.2 q -0.2,-0.75 0.15,-1.4 0.25,-0.55 0.75,-0.85 l 0.15,0.15 0.8,0.85 1.75,1.2 0.6,0.35 -0.5,0.75 -0.25,-0.05 -2.15,-0.1 -0.75,0.15 q -0.4,-0.45 -0.55,-1.05"
         fill="#ffffff"
         fill-rule="evenodd"
         stroke="none"
         id="path6" />
      <path
         d="m 45.5,26.65 h 16.9 0.5 l 0.85,0.05 v 4.1 H 62.9 62.75 45.15 37.75 L 29.3,30.75 H 22.75 L 0.1,30.7 v -4 h 0.3 22.35 6.55 l 8.45,-0.05 h 7.75"
         fill="#000000"
         fill-rule="evenodd"
         stroke="none"
         id="path7" />
    </g>
    <g
       id="shape2"
       transform="translate(1.5,1.5)">
      <path
         d="M 0,23.8 V 0 H 64.1 V 23.8 57.55 H 0 Z"
         fill="none"
         stroke="#000000"
         stroke-linecap="round"
         stroke-linejoin="round"
         stroke-width="3"
         id="path8" />
    </g>
  </defs>
</svg>
