<?xml version="1.0" encoding="UTF-8" standalone="no"?>
<svg
   ffdec:objectType="frame"
   height="44.349998"
   width="78.599998"
   version="1.1"
   id="svg13"
   sodipodi:docname="114.svg"
   xmlns:inkscape="http://www.inkscape.org/namespaces/inkscape"
   xmlns:sodipodi="http://sodipodi.sourceforge.net/DTD/sodipodi-0.dtd"
   xmlns:xlink="http://www.w3.org/1999/xlink"
   xmlns="http://www.w3.org/2000/svg"
   xmlns:svg="http://www.w3.org/2000/svg"
   xmlns:ffdec="https://www.free-decompiler.com/flash">
  <sodipodi:namedview
     id="namedview13"
     pagecolor="#ffffff"
     bordercolor="#000000"
     borderopacity="0.25"
     inkscape:showpageshadow="2"
     inkscape:pageopacity="0.0"
     inkscape:pagecheckerboard="0"
     inkscape:deskcolor="#d1d1d1"
     fit-margin-top="5"
     fit-margin-left="5"
     fit-margin-right="5"
     fit-margin-bottom="5" />
  <g
     transform="translate(2,2.05)"
     id="g3">
    <use
       ffdec:characterId="1"
       height="42.700001"
       transform="translate(-1.75,-2)"
       width="76.449997"
       xlink:href="#shape0"
       id="use1" />
    <use
       ffdec:characterId="115"
       height="42.200001"
       transform="translate(-1,-0.9)"
       width="76.599998"
       xlink:href="#shape1"
       id="use2" />
    <use
       ffdec:characterId="3"
       height="44.349998"
       transform="translate(-2,-2.05)"
       width="78.599998"
       xlink:href="#shape2"
       id="use3" />
  </g>
  <defs
     id="defs13">
    <g
       id="shape0"
       transform="translate(1.75,2)">
      <path
         d="M 2.8,0 V -0.4 H 5.4 V 0 H 9.7 V 19.45 0 H 20.55 L 19.3,19.45 H 9.7 0.25 V 0 H 2.8"
         fill="#ffffff"
         fill-rule="evenodd"
         stroke="none"
         id="path3" />
      <path
         d="M 0.25,19.45 H 9.7 19.3 L 18.7,28.6 16,28.5 10.95,27.95 9.7,27.8 Q 7.45,27.6 5.85,27.75 4.05,27.9 1.5,28.6 0.75,28.8 0.25,29.15 v -9.7 m 9.45,0 v 8.35 -8.35"
         fill="#121212"
         fill-rule="evenodd"
         stroke="none"
         id="path4" />
      <path
         d="m 9.7,27.8 1.25,0.15 5.05,0.55 2.7,0.1 h 1.05 l 3.75,0.15 q 2.45,0.3 3.6,1.25 0.6,0.5 0.6,1.1 0,0.65 -0.8,1 l -1.3,0.2 -7.15,0.15 -5.6,-0.3 L 9.7,31.75 7.95,31.6 3.1,31.95 0.95,32.3 0.25,32.1 -0.35,31.55 -0.5,31.3 V 29.9 L 0.25,29.15 Q 0.75,28.8 1.5,28.6 4.05,27.9 5.85,27.75 7.45,27.6 9.7,27.8 v 3.95 -3.95"
         fill="#999999"
         fill-rule="evenodd"
         stroke="none"
         id="path5" />
      <path
         d="M 2.8,0 H 0.25 M 9.7,0 H 5.4 m 16.15,0 h 10.7 M 20.55,0 H 9.7"
         fill="none"
         stroke="#666666"
         stroke-linecap="round"
         stroke-linejoin="round"
         stroke-width="4"
         id="path6" />
      <path
         d="m 9.7,-0.4 h 65 V 40.5 H 47.05 L 45.5,40.7 27,40.65 25.95,40.5 H 9.7 -0.5 V -0.4 H 9.7 V 40.5 -0.4"
         fill="#ffffff"
         fill-rule="evenodd"
         stroke="none"
         id="path7" />
    </g>
    <g
       id="shape1"
       transform="translate(1,0.9)">
      <path
         d="M 15.4,40.8 H -0.5 V -0.4 H 75.1 V 40.8 H 48.3 l -1.1,-7.3 -1.05,-4.05 4.4,0.45 6,0.55 3.4,-0.45 q 0.9,-0.5 1.4,-1.45 0.45,-1 0.35,-2 -0.15,-1 -0.8,-1.85 -0.65,-0.9 -1.6,-1.25 L 57.25,23 Q 54.6,22.8 52,23 L 49.75,23.35 50.3,22.4 Q 51,20.95 51,19.1 L 51.05,18.7 50.7,15.95 50.6,15.6 q 1.75,-2.4 2.3,-5.45 0.2,-0.8 0,-1.35 -0.25,-1.15 -1.35,-1.45 l -1,-0.1 -5.45,0.3 -0.3,0.05 Q 43.3,6.7 40.95,6.15 l -2.9,-0.4 V 5.7 H 37.3 37.05 l -2.9,0.45 Q 31.8,6.7 30.3,7.6 L 30,7.55 l -5.45,-0.3 -1,0.1 q -1.1,0.3 -1.35,1.45 -0.2,0.55 0,1.35 0.55,3.05 2.3,5.45 l -0.1,0.35 q -0.4,1.8 -0.35,2.75 l 0.05,0.4 q 0,1.85 0.7,3.3 L 25.35,23.35 23.1,23 q -2.6,-0.2 -5.25,0 l -2.05,0.45 q -0.95,0.35 -1.6,1.25 -0.65,0.85 -0.8,1.85 -0.1,1 0.35,2 0.5,0.95 1.4,1.45 l 3.4,0.45 6,-0.55 4.4,-0.45 q -0.6,1.9 -1.05,4.05 l -0.25,1.4 q -1.6,-0.2 -4.05,0.55 l -2.9,1.15 q -1.3,0.55 -2,0.5 l 0.1,-0.05 1.25,-0.55 q 1.1,-0.6 1.55,-1.55 0.55,-1.1 0.1,-2.2 -0.45,-1.05 -1.7,-1.4 l -2.3,-0.1 q -1.5,0.35 -2.45,1.1 -0.65,0.5 -1.4,1.5 -0.45,0.65 -0.8,1.6 -0.35,1.25 0.1,2.6 0.4,1.3 1.45,2.2 l 0.8,0.55 m 11.45,0 H 21.7 l 1.7,-0.75 q 2.15,-0.9 3.6,-0.75 l -0.15,1.5"
         fill="#999999"
         fill-rule="evenodd"
         stroke="none"
         id="path8" />
      <path
         d="m 48.3,40.8 v 0.1 H 26.85 V 40.8 L 27,39.3 q -1.45,-0.15 -3.6,0.75 l -1.7,0.75 -0.15,0.05 -0.1,0.05 h -5.9 L 15.4,40.8 14.6,40.25 q -1.05,-0.9 -1.45,-2.2 -0.45,-1.35 -0.1,-2.6 0.35,-0.95 0.8,-1.6 0.75,-1 1.4,-1.5 0.95,-0.75 2.45,-1.1 l 2.3,0.1 q 1.25,0.35 1.7,1.4 0.45,1.1 -0.1,2.2 -0.45,0.95 -1.55,1.55 l -1.25,0.55 -0.1,0.05 q 0.7,0.05 2,-0.5 l 2.9,-1.15 q 2.45,-0.75 4.05,-0.55 l 0.25,-1.4 q 0.45,-2.15 1.05,-4.05 l -4.4,0.45 -6,0.55 -3.4,-0.45 q -0.9,-0.5 -1.4,-1.45 -0.45,-1 -0.35,-2 0.15,-1 0.8,-1.85 0.65,-0.9 1.6,-1.25 L 17.85,23 q 2.65,-0.2 5.25,0 L 25.35,23.35 24.8,22.4 Q 24.1,20.95 24.1,19.1 L 24.05,18.7 Q 24,17.75 24.4,15.95 L 24.5,15.6 Q 22.75,13.2 22.2,10.15 22,9.35 22.2,8.8 22.45,7.65 23.55,7.35 l 1,-0.1 5.45,0.3 0.3,0.05 q 1.5,-0.9 3.85,-1.45 l 2.9,-0.45 h 0.25 0.75 v 0.05 l 2.9,0.4 Q 43.3,6.7 44.8,7.6 l 0.3,-0.05 5.45,-0.3 1,0.1 q 1.1,0.3 1.35,1.45 0.2,0.55 0,1.35 -0.55,3.05 -2.3,5.45 l 0.1,0.35 0.35,2.75 -0.05,0.4 q 0,1.85 -0.7,3.3 L 49.75,23.35 52,23 q 2.6,-0.2 5.25,0 l 2.05,0.45 q 0.95,0.35 1.6,1.25 0.65,0.85 0.8,1.85 0.1,1 -0.35,2 -0.5,0.95 -1.4,1.45 l -3.4,0.45 -6,-0.55 -4.4,-0.45 1.05,4.05 1.1,7.3"
         fill="#000000"
         fill-rule="evenodd"
         stroke="none"
         id="path9" />
      <path
         d="M 15.4,40.8 H -0.5 V -0.4 H 75.1 V 40.8 H 48.3 m -21.45,0 H 21.7"
         fill="none"
         stroke="#999999"
         stroke-linecap="round"
         stroke-linejoin="round"
         stroke-width="1"
         id="path10" />
      <path
         d="M 38,8.95 H 37.9 L 37.2,8.45 Q 37,8.1 36.95,7.55 H 36.7 36.65 L 35.8,7.6 35.4,7.5 35.35,7.45 Q 34.9,7.2 34.8,6.6 34.7,5.95 35.15,5.5 L 35.4,5.35 35.8,5.25 36.1,5.2 36.95,5.3 V 5.25 L 37.1,4.55 Q 37.35,3.9 37.9,3.8 H 38 V 3.85 L 38.2,3.8 h 0.15 0.1 Q 39,3.9 39.3,4.55 l 0.1,0.7 V 5.3 l 0.9,-0.1 0.3,0.05 q 0.35,0 0.6,0.25 0.45,0.45 0.35,1.1 Q 41.45,7.25 41,7.5 L 40.6,7.6 39.7,7.55 H 39.65 39.4 l -0.25,0.9 -0.7,0.5 h -0.1 L 38.2,9 38,8.95"
         fill="#000000"
         fill-rule="evenodd"
         stroke="none"
         id="path11" />
      <path
         d="m 67.4,17.65 q -0.15,-0.8 -0.5,-1.05 l -0.85,-0.1 -1.1,0.1 -0.5,0.35 -0.75,0.75 -0.75,0.25 q -0.4,-0.1 -0.65,-0.5 l -0.1,-0.5 -0.4,-0.65 -0.65,-0.15 q -0.6,0.05 -1.25,0.7 -0.6,0.5 -0.7,0.9 -0.3,0.65 0.1,1.1 l 0.4,0.25 1,0.45 1,0.3 0.5,0.5 0.2,0.15 0.15,-0.15 0.55,-0.4 q 1.15,-0.45 1.95,-0.5 l 0.75,-0.1 1.05,-0.65 0.35,-0.4 0.2,-0.65 m -5.1,5.2 q -0.45,0.05 -0.8,-0.3 L 60.95,21.9 q -0.3,-0.3 -1,-0.55 l -1.05,-0.4 -1.1,-0.8 -0.6,-0.75 -0.1,-0.9 0.2,-1.4 0.6,-1.05 q 1.1,-1.45 2.6,-1.8 l 1.6,0.05 1.3,0.9 0.25,0.2 0.25,-0.1 q 0.6,-0.5 2,-0.5 1.7,0.1 2.4,0.9 l 0.55,1.2 0.15,0.8 q 0,1.25 -1,2.25 -0.85,0.85 -2.05,1.1 l -1.55,0.2 q -1,0.1 -1.4,0.7 l -0.7,0.9 M 38,8.95 38.2,9 38.35,8.95 h 0.1 l 0.7,-0.5 0.25,-0.9 h 0.25 0.05 L 40.6,7.6 41,7.5 Q 41.45,7.25 41.55,6.6 41.65,5.95 41.2,5.5 40.95,5.25 40.6,5.25 L 40.3,5.2 39.4,5.3 V 5.25 L 39.3,4.55 Q 39,3.9 38.45,3.8 H 38.35 38.2 L 38,3.85 V 3.8 h -0.1 q -0.55,0.1 -0.8,0.75 l -0.15,0.7 V 5.3 L 36.1,5.2 35.8,5.25 35.4,5.35 35.15,5.5 q -0.45,0.45 -0.35,1.1 0.1,0.6 0.55,0.85 l 0.05,0.05 0.4,0.1 0.85,-0.05 h 0.05 0.25 Q 37,8.1 37.2,8.45 l 0.7,0.5 H 38 m -1.55,0.8 -4.55,0.65 -1.75,0.15 Q 29.4,10.3 29.3,9.5 l 0.2,-1.15 q 0.7,-2 1.65,-3.1 0.95,-1.1 2.65,-1.9 1.5,-0.65 3.15,-0.9 l 1,-0.1 h 0.4 l 1,0.1 3.15,0.9 q 1.7,0.8 2.65,1.9 0.95,1.1 1.65,3.1 L 47,9.5 q -0.1,0.8 -0.85,1.05 L 44.4,10.4 39.85,9.75 l -1.9,-0.1 -1.5,0.1 m 12.75,5.8 q 0.5,1.35 -0.65,2.4 -0.6,0.55 -1.45,0.5 -0.9,-0.05 -1.45,-0.6 -0.6,-0.6 -0.65,-1.55 0,-0.9 0.55,-1.55 0.5,-0.5 0.9,-0.6 l 1.65,0.1 q 0.85,0.4 1.1,1.3 M 35.5,20.1 q 0.35,0 0.95,-0.4 l 0.7,-0.55 0.7,-0.6 0.9,0.1 0.6,0.75 q 0.35,0.5 0.85,0.65 l 1.05,-0.15 0.45,-0.55 0.2,-0.65 -0.05,-1.05 q 0,-0.65 0.5,-0.8 0.5,-0.15 0.9,0.45 0.65,0.85 0.35,2.2 L 43,21.05 q -0.8,1.1 -2.4,1.2 L 39.4,22.1 q -0.8,-0.2 -1.45,-0.95 -1.45,1.1 -2.3,1.15 l -1,-0.1 -0.7,-0.25 -0.85,-0.65 q -0.55,-0.6 -0.6,-1.2 v -0.7 q 0.2,-1.4 0.9,-2.05 0.5,-0.4 1,-0.35 l 0.45,0.3 0.05,0.5 -0.35,0.4 -0.35,0.65 v 0.6 q 0.1,0.3 0.65,0.5 L 35.5,20.1 M 30.7,16 q 0.1,0.65 -0.2,1.3 l -0.9,0.95 -1.2,0.25 q -0.65,-0.05 -1.15,-0.55 -0.55,-0.45 -0.7,-1.1 -0.15,-0.65 0.1,-1.3 0.3,-0.65 0.85,-1 l 1.3,-0.3 q 0.7,0.05 1.2,0.5 0.55,0.55 0.7,1.25 m -18.6,6.85 -0.7,-0.9 Q 11,21.35 10,21.25 l -1.55,-0.2 q -1.2,-0.25 -2.05,-1.1 -1,-1 -1,-2.25 l 0.15,-0.8 q 0.2,-0.8 0.55,-1.2 0.7,-0.8 2.4,-0.9 1.4,0 2,0.5 l 0.25,0.1 0.25,-0.2 q 0.5,-0.65 1.3,-0.9 l 1.6,-0.05 q 1.5,0.35 2.6,1.8 l 0.6,1.05 0.2,1.4 -0.1,0.9 -0.6,0.75 -1.1,0.8 -1.05,0.4 -1,0.55 -0.55,0.65 -0.8,0.3 m -5.1,-5.2 0.2,0.65 0.35,0.4 1.05,0.65 0.75,0.1 1.95,0.5 0.55,0.4 0.15,0.15 0.2,-0.15 0.5,-0.5 1,-0.3 1,-0.45 0.4,-0.25 q 0.4,-0.45 0.1,-1.1 l -0.7,-0.9 Q 13.85,16.2 13.25,16.15 12.9,16.05 12.6,16.3 l -0.4,0.65 -0.1,0.5 -0.65,0.5 L 10.7,17.7 9.95,16.95 9.45,16.6 8.35,16.5 7.5,16.6 Q 7.15,16.85 7,17.65"
         fill="#ffffff"
         fill-rule="evenodd"
         stroke="none"
         id="path12" />
    </g>
    <g
       id="shape2"
       transform="translate(2,2.05)">
      <path
         d="M -0.5,-0.4 V -0.55 H 75.1 V -0.4 40.8 H -0.5 Z"
         fill="none"
         stroke="#000000"
         stroke-linecap="round"
         stroke-linejoin="round"
         stroke-width="3"
         id="path13" />
    </g>
  </defs>
</svg>
