<?xml version="1.0" encoding="UTF-8" standalone="no"?>
<svg
   ffdec:objectType="frame"
   height="60.549999"
   width="67.099998"
   version="1.1"
   id="svg7"
   sodipodi:docname="265.svg"
   xmlns:inkscape="http://www.inkscape.org/namespaces/inkscape"
   xmlns:sodipodi="http://sodipodi.sourceforge.net/DTD/sodipodi-0.dtd"
   xmlns:xlink="http://www.w3.org/1999/xlink"
   xmlns="http://www.w3.org/2000/svg"
   xmlns:svg="http://www.w3.org/2000/svg"
   xmlns:ffdec="https://www.free-decompiler.com/flash">
  <sodipodi:namedview
     id="namedview7"
     pagecolor="#ffffff"
     bordercolor="#000000"
     borderopacity="0.25"
     inkscape:showpageshadow="2"
     inkscape:pageopacity="0.0"
     inkscape:pagecheckerboard="0"
     inkscape:deskcolor="#d1d1d1"
     fit-margin-top="5"
     fit-margin-left="5"
     fit-margin-right="5"
     fit-margin-bottom="5" />
  <g
     transform="translate(1.5,1.5)"
     id="g3">
    <use
       ffdec:characterId="516"
       height="57.549999"
       width="64.099998"
       xlink:href="#shape0"
       id="use1" />
    <use
       ffdec:characterId="770"
       height="56.150002"
       transform="translate(-0.25,1.6)"
       width="64.400002"
       xlink:href="#shape1"
       id="use2" />
    <use
       ffdec:characterId="518"
       height="60.549999"
       transform="translate(-1.5,-1.5)"
       width="67.099998"
       xlink:href="#shape2"
       id="use3" />
  </g>
  <defs
     id="defs7">
    <g
       id="shape0">
      <path
         d="M 53.6,0 H 64.1 V 57.55 H 53.6 28.25 0 V 0 H 28.25 53.6 V 57.55 0 M 28.25,0 V 57.55 0"
         fill="#ffffff"
         fill-rule="evenodd"
         stroke="none"
         id="path3" />
    </g>
    <g
       id="shape1"
       transform="translate(0.25,-1.6)">
      <path
         d="M 14.85,39.05 14.8,39 14.7,38.95 14.65,38.9 14.6,38.85 14.55,38.75 14.5,38.7 14.45,38.65 14.35,38.55 14.3,38.5 V 38.4 L 14.25,38.35 14.2,38.3 V 38.25 L 14.15,38.2 v -0.05 l -0.05,-0.1 v -0.1 L 14.05,37.9 V 37.85 37.75 37.5 37.4 L 14,37.35 V 37.15 37.05 36.8 36.7 36.45 36.35 36.1 36 35.8 L 13.95,35.75 V 35.65 35.4 35.3 35.05 34.95 34.7 34.6 34.35 34.25 34 33.9 33.7 33.6 33.35 33.25 33 32.9 32.65 32.55 32.3 32.2 32.05 L 14,32 V 31.95 31.85 31.6 31.5 31.25 31.15 30.9 30.8 30.55 30.45 30.2 30.1 29.85 29.75 29.5 29.4 29.2 29.1 28.85 28.75 28.5 28.4 28.15 28.05 27.8 27.7 27.45 27.35 27.1 27 26.75 26.65 26.4 26.3 l 0.05,-0.05 v -0.2 -0.1 -0.25 L 14.1,25.6 V 25.35 25.25 25 24.9 24.85 L 14.15,24.8 V 24.7 24.6 24.35 24.25 24 23.9 23.65 23.55 23.3 23.2 22.95 22.85 22.6 22.5 22.25 22.15 21.9 21.8 21.55 l 0.05,-0.1 V 21.2 21.1 20.85 20.75 20.55 20.45 20.2 20.1 19.85 19.75 19.5 19.4 19.15 19.05 18.8 18.7 18.45 18.35 18.1 18 17.75 l 0.05,-0.1 v -0.25 -0.1 -0.25 -0.1 -0.25 -0.1 -0.25 -0.1 -0.2 -0.1 L 14.3,15.9 V 15.7 15.6 15.35 15.25 15 14.9 14.65 14.55 14.3 14.2 14 l 0.05,-0.05 V 13.85 13.6 13.5 13.25 13.15 12.9 12.8 12.55 12.45 12.2 12.1 11.9 11.8 11.55 11.45 11.2 11.1 10.85 10.75 10.5 10.4 10.15 10.05 9.8 9.7 9.45 9.35 9.1 9 8.75 8.65 8.4 8.3 8.05 7.95 7.7 7.6 7.4 7.3 7.05 6.95 6.7 6.6 6.35 6.25 6 5.9 5.8 L 14.4,5.75 V 5.65 5.55 5.3 5.2 4.95 4.85 4.75 L 14.35,4.7 V 4.6 L 14.3,4.5 V 4.25 4.15 4 L 14.35,3.95 V 3.9 3.8 3.75 L 14.4,3.7 V 3.55 L 14.45,3.45 14.5,3.4 V 3.35 L 14.55,3.3 14.6,3.25 V 3.2 3.1 L 14.65,3.05 14.7,3 V 2.95 L 14.75,2.9 V 2.75 2.65 2.55 L 14.8,2.5 14.85,2.45 V 2.4 L 14.9,2.3 15,2.2 15.05,2.15 15.1,2.1 15.15,2.05 15.2,1.95 15.35,1.9 15.5,1.85 15.65,1.8 h 0.15 0.45 0.8 l 0.3,0.05 h 0.15 0.2 0.15 0.2 l 0.3,-0.05 h 0.25 l 0.1,-0.05 h 0.2 0.1 1.2 0.15 0.1 1.05 0.85 0.7 0.2 0.05 0.55 1.25 L 25.65,1.7 h 3.7 6.35 0.25 l 0.35,0.05 h 4.9 1.35 6.1 l 1.3,-0.05 h 0.2 l 0.2,-0.05 H 51.85 53 L 53.1,1.6 h 0.2 0.2 2.65 0.45 0.45 l 0.2,0.05 h 0.15 0.1 l 0.15,0.05 h 0.2 L 58,1.75 h 0.35 0.2 l 0.2,0.05 h 0.1 l 0.1,0.05 h 0.1 0.1 l 0.1,0.05 h 0.1 l 0.1,0.05 0.05,-0.05 h 0.1 0.15 V 1.85 h 0.05 0.1 0.05 l 0.2,0.05 h 0.05 l 0.1,0.05 0.15,0.05 0.1,0.05 0.1,0.05 0.05,0.1 0.05,0.05 0.05,0.05 0.05,0.05 V 2.4 H 60.9 L 60.95,2.45 61,2.5 61.05,2.55 61.1,2.65 V 2.7 L 61.15,2.75 61.2,2.8 V 2.85 L 61.25,2.9 61.3,3 v 0.15 l 0.05,0.05 v 0.05 0.1 0.25 0.1 0.25 0.1 0.25 0.1 0.2 0.1 0.25 0.1 0.25 0.1 0.25 0.1 0.25 0.1 0.25 0.1 0.25 0.1 0.25 0.1 0.25 0.1 0.25 0.1 0.25 0.1 0.25 0.1 0.25 0.1 0.2 0.1 0.25 0.1 0.25 0.1 0.25 0.1 0.25 0.1 0.25 0.1 0.25 0.1 0.25 0.1 0.25 0.1 0.25 0.1 0.25 0.1 0.25 0.1 0.2 0.1 0.25 0.1 0.25 0.1 0.25 0.1 l 0.05,0.05 v 0.2 0.1 0.25 0.1 0.25 0.1 0.25 0.1 0.25 0.1 0.25 0.1 0.25 0.1 0.25 l 0.05,0.1 v 0.25 0.1 0.2 0.1 0.25 0.1 0.25 0.1 0.25 0.1 0.25 0.1 0.25 0.1 0.25 0.1 0.25 0.1 0.25 0.1 0.25 0.1 0.25 0.1 0.25 0.1 0.25 0.1 0.2 0.1 0.25 0.1 0.25 l 0.05,0.1 v 0.25 0.1 0.25 0.1 0.25 0.1 0.25 l 0.05,0.1 v 0.25 0.1 0.05 l 0.05,0.05 v 0.15 0.1 0.1 l 0.05,0.05 v 0.1 0.1 0.25 0.1 0.25 0.1 0.2 0.1 0.25 0.1 0.25 0.1 0.25 0.1 0.25 0.1 0.15 l 0.05,0.05 v 0.05 0.1 0.25 0.1 0.25 0.1 0.25 0.1 0.25 0.1 0.25 0.1 0.25 0.1 0.25 0.1 0.2 0.1 0.25 0.1 0.25 0.1 0.25 0.1 0.25 0.1 0.25 l 0.05,0.1 v 0.25 0.1 0.25 0.1 0.25 0.1 0.25 0.1 0.25 0.1 0.25 0.1 0.25 0.1 0.2 0.1 0.25 0.1 0.25 0.1 0.25 0.1 0.25 0.1 0.25 0.1 0.1 l 0.05,0.05 v 0.1 0.1 0.25 0.1 0.1 l -0.05,0.05 v 0.1 0.1 l -0.05,0.05 v 0.05 l -0.05,0.05 v 0.05 l -0.05,0.05 -0.05,0.1 v 0.05 l -0.05,0.05 -0.05,0.05 v 0.05 L 61.4,38.9 61.35,39 61.3,39.05 61.2,39.1 61.15,39.15 61.1,39.2 61,39.25 l -0.05,0.1 -0.1,0.05 -0.15,0.05 -0.15,0.05 -0.1,0.05 H 60.4 l -0.1,0.05 h -0.1 l -0.3,0.05 -0.25,-0.05 h -0.1 l -0.1,-0.05 h -0.1 l -0.2,-0.1 -0.1,-0.05 -0.1,-0.05 h -1 -0.45 -1.15 -0.6 l -0.8,0.05 h -0.9 L 54,39.35 h -0.7 -0.45 -0.7 L 48.5,39.4 H 45.2 L 38.7,39.35 H 35.45 34.2 L 29.3,39.3 H 29.1 L 27.95,39.25 H 25.75 23 20.95 l -0.9,0.05 h -0.3 l -0.45,0.05 h -0.2 -0.25 l -0.4,0.05 H 18 l -0.3,0.05 H 16.1 L 16,39.4 h -0.4 v -0.05 h -0.1 -0.1 l -0.1,-0.05 -0.15,-0.05 -0.1,-0.05 -0.1,-0.1 -0.1,-0.05 m 43.6,-34.3 -0.5,0.05 h -0.25 -1 -1.15 L 54.3,4.85 h -0.45 l -0.6,0.05 h -8.8 l -9.9,0.05 H 29.95 28.2 L 27.35,5 h -0.2 l -0.6,0.05 h -9.3 V 5.3 5.4 5.65 5.75 6 6.1 6.35 6.45 6.7 6.8 7.05 7.15 7.4 7.5 7.75 7.85 8.1 8.2 8.45 8.55 8.8 8.9 9.1 9.2 9.4 l 0.05,0.05 v 0.1 0.25 0.1 0.25 0.1 0.25 0.1 0.25 0.1 0.25 0.1 0.25 0.1 0.25 0.1 0.25 0.1 0.25 0.1 0.25 0.1 0.2 0.1 0.25 0.1 0.25 l 0.05,0.1 v 0.25 0.1 0.25 0.1 0.25 0.1 0.25 0.1 0.25 0.1 0.25 0.1 0.1 l 0.05,0.05 v 0.1 0.1 0.25 0.1 0.25 0.1 0.25 0.1 0.2 0.1 0.25 0.1 0.25 0.1 0.25 0.1 0.25 0.1 0.25 0.1 0.25 0.1 0.25 0.1 0.25 l 0.05,0.1 v 0.25 0.1 0.25 0.1 0.25 0.1 0.25 0.1 0.2 0.1 l 0.05,0.05 v 0.2 0.1 0.25 0.1 0.25 0.1 0.25 0.1 0.25 0.1 0.25 0.1 0.25 0.1 0.25 0.1 0.1 l 0.05,0.05 v 0.1 0.1 0.25 0.1 0.1 L 17.6,26 v 0.1 0.1 0.2 0.1 0.25 0.1 0.25 0.1 0.25 0.1 0.1 l 0.05,0.05 v 0.1 0.1 0.25 0.1 0.25 0.1 0.25 0.1 0.25 0.1 0.25 0.1 0.25 0.1 0.25 0.1 0.25 0.1 0.2 0.1 0.25 0.1 0.25 0.1 0.25 0.1 l 0.05,0.05 v 0.2 0.1 0.25 0.1 0.25 0.1 0.25 0.1 0.25 0.1 0.25 0.1 0.25 0.1 0.25 0.1 0.25 0.1 0.2 0.1 0.2 l -0.05,0.05 v 0.1 0.25 0.1 0.15 h 0.3 l 0.25,0.05 h 0.45 l 0.25,0.05 h 0.45 0.35 l 0.35,0.05 h 0.7 l 2.3,0.05 h 2.7 l 2.2,-0.05 h 1.15 l 0.4,-0.05 h 4.7 1.45 L 38.7,36.4 h 6.55 3.05 3.65 1.1 0.05 l 0.2,0.05 h 0.05 L 54,36.4 h 0.25 0.5 1.05 0.55 0.95 0.65 0.15 V 36.1 36 35.75 35.65 35.4 35.3 35.05 34.95 34.7 34.6 34.35 34.25 34 33.9 33.7 33.6 33.35 33.25 33 32.9 32.7 l 0.05,-0.05 v -0.1 -0.25 -0.1 -0.25 -0.1 -0.25 -0.1 -0.25 -0.1 -0.25 -0.1 -0.25 -0.1 -0.25 -0.1 -0.25 -0.1 -0.25 -0.1 -0.2 -0.1 -0.25 -0.1 -0.25 -0.1 -0.25 -0.1 L 58.2,28 V 27.8 27.7 27.45 27.35 27.1 27 26.75 26.65 26.4 26.3 26.05 25.95 25.7 25.6 25.35 25.25 L 58.25,25.2 V 25 24.9 24.85 L 58.3,24.8 v -0.1 -0.1 -0.2 l 0.05,-0.05 V 24.25 24 23.9 23.65 23.55 23.3 23.2 22.95 22.85 22.6 22.5 22.25 22.15 21.9 21.8 21.55 21.45 21.2 21.1 20.9 l 0.05,-0.05 v -0.1 -0.2 -0.1 V 20.2 20.1 19.85 19.75 19.5 19.4 19.15 19.05 18.8 18.7 18.45 18.35 18.1 18 17.75 17.65 17.4 17.3 17.15 l 0.05,-0.05 v -0.05 -0.1 -0.25 -0.1 -0.25 -0.1 -0.2 -0.1 V 15.7 15.6 15.35 15.25 15 14.9 14.65 14.55 14.3 14.2 13.95 13.85 13.6 13.5 13.25 13.15 12.9 12.8 12.55 12.45 12.2 12.1 11.9 11.8 11.55 11.45 11.2 11.1 10.85 10.75 10.5 10.4 10.15 10.05 9.8 9.7 9.45 9.35 9.1 9 8.75 8.65 8.4 8.3 8.15 L 58.5,8.1 V 8.05 7.95 7.7 7.6 L 58.45,7.55 V 7.4 7.3 7.05 6.95 6.7 6.6 6.35 6.25 6 5.9 5.7 L 58.5,5.65 V 5.55 5.3 5.2 4.95 4.85 4.75 H 58.45 M 47.6,16.45 47.3,16.4 46.95,16.5 q -0.95,0.75 -0.8,1.85 l 0.05,0.75 -0.4,0.5 -0.65,0.05 q -0.55,-0.2 -0.7,-1.05 -0.45,-1.6 0,-2.5 0.35,-0.95 1.5,-1.7 0.6,-0.4 0.85,-0.5 1.15,-0.4 2.6,0.6 l 0.75,0.7 q 0.5,0.7 0.5,1.95 -0.05,1.9 -2,4.95 l 1.05,-0.05 1.05,0.1 0.7,0.35 0.45,0.75 -0.05,0.8 q -0.35,0.9 -1.3,0.9 H 48 l -0.95,0.15 -1,0.15 q -0.5,-0.1 -0.7,-0.6 Q 45.1,24.2 45.5,23.2 46,21.85 46.35,21.25 l 0.95,-1.7 0.75,-1.75 0.05,-0.9 -0.5,-0.45 m -8.4,0.8 q 0.35,-0.4 1.05,-0.5 l 1.15,0.05 q 0.8,0.1 1.1,0.4 0.25,0.3 0.15,0.7 l -0.4,0.6 -0.65,0.2 -0.7,0.3 -0.75,0.1 q -0.75,0 -1,-0.65 -0.35,-0.65 0.05,-1.2 m 2.4,2.45 1.1,0.15 q 0.65,0.2 0.65,0.8 l -0.25,0.7 -1.25,0.85 -1.95,0.1 q -0.8,-0.15 -1,-0.95 -0.2,-0.8 0.5,-1.25 0.35,-0.3 1.25,-0.4 h 0.95 m 12.75,1.95 -0.65,0.05 q -0.35,-0.15 -0.4,-0.5 v -0.4 l -0.2,-1.45 -0.05,-3 -0.2,-1.15 q -0.05,-0.55 0.35,-1 0.35,-0.45 0.95,-0.35 0.75,0.05 0.95,0.85 l 0.05,0.55 -0.25,4.5 -0.25,1.3 -0.3,0.6 m -0.9,2.9 -0.35,-0.25 q -0.3,-0.45 -0.2,-1 0.2,-0.8 1.05,-0.9 0.9,-0.1 1.2,0.75 0.35,0.7 -0.35,1.35 l -1.35,0.05 M 37,32.4 36.45,32.25 q -0.25,-0.35 0.3,-0.6 l 0.6,-0.5 Q 32.1,31.3 26.9,30 q -1.25,-0.3 -1.4,-0.95 -0.15,-0.55 0.35,-1 0.3,-0.35 0.95,-0.55 1.5,-0.55 5.55,-0.55 l 14.3,-0.35 6.45,0.45 q 0.45,0.1 0.5,0.35 0,0.4 -0.6,0.5 l -14.4,1.6 q 2.7,0.55 5.75,1.6 0.15,0.3 -0.5,0.45 L 37,32.4 m -12.1,-13.35 0.05,-1 -0.35,0.25 -0.6,0.1 -0.5,-0.35 q -0.25,-0.4 -0.15,-0.95 0.2,-1 1.1,-2.25 l 0.5,-0.65 1.55,-0.05 0.4,0.45 0.3,0.45 0.15,1.1 0.2,1.95 0.4,4.2 v 0.05 l 0.65,0.4 0.4,0.7 q 0.35,0.4 0.15,0.95 -0.2,0.45 -0.9,0.7 l -0.25,0.1 -0.3,0.1 -0.15,0.05 -1.5,0.2 -1.65,-0.05 q -1,-0.25 -1,-1.1 v -0.2 -0.3 q 0,-0.5 0.45,-0.85 0.35,-0.25 0.85,-0.45 h 0.1 v -0.4 l 0.15,-2.6 -0.05,-0.55 m 5.25,2.5 -0.05,-0.5 h -0.5 q -0.4,-0.05 -0.7,-0.4 -0.3,-0.35 -0.3,-0.8 0,-0.45 0.3,-0.8 0.3,-0.35 0.7,-0.45 l 0.55,-0.1 v -0.9 l 0.4,-0.6 q 0.3,-0.25 0.7,-0.2 0.5,0.05 0.9,0.75 l 0.15,0.6 -0.1,0.5 v 0.05 l 0.55,0.1 0.5,0.8 -0.35,0.85 -0.5,0.25 v 0.25 q -0.1,0.85 -0.7,1.15 l -0.9,0.05 q -0.45,-0.2 -0.65,-0.6 m 6.55,-5.85 0.2,2.9 0.15,3.85 q 0.6,0.05 1,0.45 0.55,0.4 0.55,1.2 -0.1,0.75 -0.65,1.15 l -2,0.35 -1.3,-0.05 q -1.1,0 -1.55,-0.45 -0.55,-0.5 -0.15,-1.15 0.2,-0.5 1.05,-0.85 L 34.25,23 34.3,17.3 33.5,17.1 q -0.55,-0.3 -0.45,-0.85 0,-0.4 0.5,-1.1 l 0.55,-0.65 0.7,-0.6 0.9,-0.1 0.7,0.45 q 0.45,0.6 0.25,1.15 l 0.05,0.3"
         fill="#767676"
         fill-rule="evenodd"
         stroke="none"
         id="path4" />
      <path
         d="m 41.8,50.25 q 0,-1.45 0.5,-2.9 L 42.2,47 42.15,45.6 42.25,42.3 Q 42.6,40.4 44,39.65 l 2,-0.15 0.8,0.35 1.3,0.6 q 2.55,-1.4 5.75,-1.15 2.25,0.2 4.25,1.25 l 1.6,-0.7 2.1,-0.2 q 0.8,0.15 1.4,0.7 0.65,0.6 0.8,1.35 l 0.05,1.6 -0.1,2.05 -0.4,1.3 0.55,2.55 q 0.2,2.05 -0.6,4.3 -0.7,1.95 -2.1,3.35 l -0.65,0.6 H 44.9 q -0.9,-0.7 -1.5,-1.7 -0.75,-1.25 -1.15,-2.9 -0.4,-1.3 -0.45,-2.6 m -14.3,-9.7 3.15,-0.4 q 2.65,0 4.35,0.7 l 0.85,0.4 q 0.4,-0.2 1.85,-0.65 l 1.55,-0.15 q 0.7,0.1 1.25,0.55 0.55,0.5 0.7,1.15 l 0.15,0.9 0.05,1.1 -0.25,3.1 -0.2,1.1 0.2,1.8 q 0.2,3.35 -1.4,6.1 l -1,1.5 h -17 q -1.3,-1.2 -1.95,-2.9 -1,-2.7 0,-5.8 -0.55,-0.85 -0.75,-2.1 l -0.15,-2.4 0.05,-0.75 q 0.1,-0.95 0.75,-1.6 0.75,-0.65 1.65,-0.75 l 1.45,0.15 0.95,0.1 1.15,0.3 q 1.3,-1.05 2.6,-1.45 m -11.75,-29.3 0.1,0.05 q 1.15,-0.65 1.8,-0.8 1.15,-0.25 2,0.25 0.9,0.55 1.05,1.5 l 0.05,0.7 v 5.15 l -0.15,1.15 v 0.1 0.15 q 0.35,3.35 -1.1,6.75 l -1.45,2.65 2.6,-0.55 1,-0.3 0.85,-0.65 q 1.75,-1.6 3.95,-1.35 l 0.7,0.15 0.75,-0.5 q 0.7,-0.4 1.2,-0.4 0.6,-0.05 1.1,0.35 0.55,0.4 0.65,1 0.1,0.6 -0.2,1.15 l -0.8,0.75 q 0.35,0.95 0.1,2.05 -0.3,1.1 -1.15,1.75 -0.95,0.7 -3.4,0.8 l -1.65,-0.05 -0.9,-0.15 -1.5,0.15 -9.9,1.55 0.55,6.8 1.1,-0.4 2.8,-0.5 q 1.05,0.1 1.6,0.5 0.8,0.5 0.95,1.35 v 0.95 L 18.2,46 l -0.35,2.7 0.05,0.15 0.15,0.6 0.2,1.25 q 0.05,1.4 -0.4,3.5 l -0.45,1.65 -0.7,1.4 H -0.25 V 43.9 L -0.1,43.75 0.6,40.7 -0.25,40.65 V 31.8 L 1.2,31.2 2.5,30.75 2,30.35 Q 0.45,29.1 -0.25,27.1 V 11.45 q 0.65,-0.5 1.6,-0.4 1,0.15 1.95,0.85 l 0.35,0.35 q 2.3,-1.8 5.3,-2.05 l 3.55,0.2 q 2.15,0.3 3.25,0.85 m -5.55,17.6 1.45,-0.8 0.15,0.1 0.25,0.1 -0.35,0.3 -1,0.65 H 9.65 L 9.15,29.1 H 9.1 l 1,-0.15 0.1,-0.1 m 4.55,-0.45 q 0.85,-0.15 1.5,-0.6 L 16.6,27.6 16.9,27.25 17.25,26.2 17.1,25.85 16.95,25.9 Q 16,26.4 14.7,26.3 13.95,26.2 13.5,25.9 l -0.35,-0.25 -0.2,-0.1 -0.8,-0.3 -0.65,0.05 -0.9,0.9 -1.45,1.25 -0.6,0.35 -0.7,0.1 -1.2,-0.05 -0.2,0.25 -0.1,0.15 -0.05,0.45 0.4,1.2 0.4,0.5 0.6,0.5 2.05,0.65 0.6,0.1 0.85,-0.2 0.75,-0.35 0.55,-0.35 0.65,-0.55 1.05,-1.25 0.15,-0.45 0.4,-0.1 m 3.45,-4.3 0.45,-0.25 0.4,-0.35 0.55,-0.85 0.15,-0.5 q 0.4,-1.7 -0.9,-2.95 -1.3,-1.15 -3,-0.55 -1.7,0.65 -1.95,2.4 -0.1,0.8 0.25,1.55 0.35,0.8 1,1.25 0.65,0.5 1.5,0.55 0.85,0.1 1.55,-0.3 M 2.45,24.55 Q 3.2,26.1 4.85,26.35 5.6,25.6 6.9,25.5 l 0.65,0.05 0.4,-0.5 Q 9,23.55 8.35,21.9 7.6,20.2 5.8,19.95 4,19.7 2.85,21.1 1.95,22.25 2.2,23.6 l 0.25,0.95"
         fill="#000000"
         fill-rule="evenodd"
         stroke="none"
         id="path5" />
      <path
         d="M 2.45,24.55 2.2,23.6 Q 1.95,22.25 2.85,21.1 4,19.7 5.8,19.95 7.6,20.2 8.35,21.9 9,23.55 7.95,25.05 L 7.55,25.55 6.9,25.5 Q 5.6,25.6 4.85,26.35 3.2,26.1 2.45,24.55 M 18.2,24.1 q -0.7,0.4 -1.55,0.3 -0.85,-0.05 -1.5,-0.55 -0.65,-0.45 -1,-1.25 -0.35,-0.75 -0.25,-1.55 0.25,-1.75 1.95,-2.4 1.7,-0.6 3,0.55 1.3,1.25 0.9,2.95 l -0.15,0.5 -0.55,0.85 -0.4,0.35 -0.45,0.25 m -3.45,4.3 -0.4,0.1 -0.15,0.45 -1.05,1.25 -0.65,0.55 -0.55,0.35 -0.75,0.35 -0.85,0.2 -0.6,-0.1 L 7.7,30.9 7.1,30.4 6.7,29.9 6.3,28.7 l 0.05,-0.45 0.1,-0.15 0.2,-0.25 1.2,0.05 0.7,-0.1 0.6,-0.35 1.45,-1.25 0.9,-0.9 0.65,-0.05 0.8,0.3 0.2,0.1 0.35,0.25 q 0.45,0.3 1.2,0.4 1.3,0.1 2.25,-0.4 l 0.15,-0.05 0.15,0.35 -0.35,1.05 -0.3,0.35 -0.35,0.2 q -0.65,0.45 -1.5,0.6 m -4.55,0.45 -0.1,0.1 -1,0.15 h 0.05 l 0.5,0.1 h 1.05 l 1,-0.65 0.35,-0.3 -0.25,-0.1 -0.15,-0.1 -1.45,0.8"
         fill="#ffffff"
         fill-rule="evenodd"
         stroke="none"
         id="path6" />
    </g>
    <g
       id="shape2"
       transform="translate(1.5,1.5)">
      <path
         d="M 0,23.8 V 0 H 64.1 V 23.8 57.55 H 0 Z"
         fill="none"
         stroke="#000000"
         stroke-linecap="round"
         stroke-linejoin="round"
         stroke-width="3"
         id="path7" />
    </g>
  </defs>
</svg>
