<?xml version="1.0" encoding="UTF-8" standalone="no"?>
<svg
   ffdec:objectType="frame"
   height="60.549999"
   width="67.099998"
   version="1.1"
   id="svg6"
   sodipodi:docname="6.svg"
   xmlns:inkscape="http://www.inkscape.org/namespaces/inkscape"
   xmlns:sodipodi="http://sodipodi.sourceforge.net/DTD/sodipodi-0.dtd"
   xmlns:xlink="http://www.w3.org/1999/xlink"
   xmlns="http://www.w3.org/2000/svg"
   xmlns:svg="http://www.w3.org/2000/svg"
   xmlns:ffdec="https://www.free-decompiler.com/flash">
  <sodipodi:namedview
     id="namedview6"
     pagecolor="#ffffff"
     bordercolor="#000000"
     borderopacity="0.25"
     inkscape:showpageshadow="2"
     inkscape:pageopacity="0.0"
     inkscape:pagecheckerboard="0"
     inkscape:deskcolor="#d1d1d1"
     fit-margin-top="5"
     fit-margin-left="5"
     fit-margin-right="5"
     fit-margin-bottom="5" />
  <g
     transform="translate(1.5,1.5)"
     id="g3">
    <use
       ffdec:characterId="516"
       height="57.549999"
       width="64.099998"
       xlink:href="#shape0"
       id="use1" />
    <use
       ffdec:characterId="523"
       height="55"
       transform="translate(-0.1,4.15)"
       width="53.900002"
       xlink:href="#shape1"
       id="use2" />
    <use
       ffdec:characterId="518"
       height="60.549999"
       transform="translate(-1.5,-1.5)"
       width="67.099998"
       xlink:href="#shape2"
       id="use3" />
  </g>
  <defs
     id="defs6">
    <g
       id="shape0">
      <path
         d="M 53.6,0 H 64.1 V 57.55 H 53.6 28.25 0 V 0 H 28.25 53.6 V 57.55 0 M 28.25,0 V 57.55 0"
         fill="#ffffff"
         fill-rule="evenodd"
         stroke="none"
         id="path3" />
    </g>
    <g
       id="shape1"
       transform="translate(0.1,-4.15)">
      <path
         d="m 45.6,34.4 -0.45,0.65 -0.7,0.2 Q 43.6,35.1 43.4,33.7 L 42.1,27.75 41.3,24.6 Q 40.85,23.15 39,19.7 l -1.7,-2.45 -0.9,0.1 q -1.75,0.15 -2.9,-0.9 -0.65,-0.55 -1,-1.35 l -1.35,-0.05 -1.35,1.4 -1.55,1.2 Q 27.3,18.15 26.2,18 24.75,17.9 23.55,16.95 l -1.35,1.35 0.4,1.45 0.45,-0.05 q 0.6,0 1.1,0.4 0.5,0.45 0.65,1 0.1,0.6 -0.2,1.15 L 23.75,23.1 22.6,23.15 21.65,22.5 21.5,22.2 q -0.9,0.6 -1.75,0.6 L 19.2,22.75 q -0.35,0.85 -0.6,2.45 l -0.85,2.9 -0.2,0.45 q 0.9,1.25 0.35,3.5 -0.45,1.35 -1.2,2.05 -1.2,1.1 -2.8,0.7 l -0.2,3.35 v 2 q 0.3,-0.6 1.1,-1.35 0.9,-0.65 1.3,-0.75 L 17,38 l 1,0.1 q 0.65,0.3 0.85,1.2 L 18.8,40.8 18.5,41.75 17.7,43 q -0.5,0.6 -0.95,0.65 L 16,43.45 Q 15.45,43.4 14.95,43 l -0.6,-0.6 -0.5,-0.3 -0.3,-0.4 q -0.15,1.45 -0.5,2.3 2.6,0.95 3.3,4.15 0.35,1.55 0.1,3.7 h 0.4 l 0.05,-0.1 q 0.25,-0.35 0.65,-0.35 l 0.1,-0.05 q 0.45,0.1 0.65,0.35 l 0.15,0.5 -0.05,0.35 0.65,0.7 q 0.75,0.95 0.9,1.8 v 1 l 0.75,0.9 q 0.55,0.65 0.4,1.1 -0.15,0.5 -0.75,0.5 l -1.05,-0.3 -0.45,-0.4 -0.6,0.5 Q 17.5,58.85 16,59.05 L 10.25,58.85 4.5,57.9 2.8,57.55 1.35,56.7 Q 0.6,55.85 0.5,53.9 0,48.55 0.05,41.7 L 0.3,29.5 q 0.1,-3.15 0.3,-4.75 0.1,-1.2 0.5,-1.9 L 0.75,22.7 Q 0.25,22.4 0.15,21.75 0.1,21.15 0.4,20.6 0.75,20 1.6,19.55 L 0.9,19.3 0,18.3 q -0.25,-0.65 0.05,-1.35 0.25,-0.7 0.9,-1 l 0.9,-0.2 Q 3.1,15.85 3.6,16.7 3.95,17.25 3.8,18 L 3.6,18.6 4.35,18.1 4.6,17.85 Q 4.15,17.2 4.3,16.25 4.45,15.1 5.45,14.1 q 1.1,-1.25 2.7,-1.75 l 2.1,-0.2 q 0.2,-1.4 1.25,-2.65 1.35,-1.65 3.45,-2.55 L 15.15,6.9 Q 15.9,6.3 16.45,6.15 H 17.5 L 19.05,5.8 22.65,5.25 Q 23.6,4.45 25.25,4.3 L 27.1,4.4 29.55,4.35 30.3,4.2 h 1.45 1.7 Q 34.4,4.25 35,4.6 l 1.3,1.5 0.2,0.4 1.55,1.05 3,2.75 2,1.85 0.65,0.2 q 0.7,0.35 1.1,1.2 l 0.25,0.95 q 1.3,1.95 1.75,4.1 l 0.3,3.95 V 24 24.05 q 0.2,1.05 0,2.65 l -0.3,1.7 -0.5,3.5 -0.4,1.1 -0.25,0.25 -0.05,1.15 M 49.9,14 q 0.4,0.25 0.5,0.75 l -0.1,0.95 -0.65,0.65 -0.9,0.1 Q 48.2,16.3 47.9,15.85 L 47.7,15.3 q -0.1,-0.85 0.6,-1.35 L 49.9,14 M 49,27.3 q 0.3,-0.3 0.75,-0.45 l 0.5,-0.05 0.1,-0.05 q 0.65,0 1.2,0.45 0.55,0.4 0.65,1.05 0.1,0.65 -0.2,1.25 l -0.9,0.9 -1.3,0.05 -1,-0.75 Q 48.45,29.2 48.5,28.5 48.55,27.8 49,27.3 M 32.6,8.7 33.15,8.25 32.45,8.15 32.6,8.7 m -0.9,10.25 q 0,-0.45 0.3,-0.85 l 0.4,-0.3 0.35,-0.1 h 0.45 q 0.2,0 0.4,0.15 l 0.55,0.65 v 0.85 L 33.6,20 32.75,20.15 Q 31.8,20 31.7,18.95 M 8,10.3 H 7.5 Q 6.95,10.1 6.85,9.3 L 7.05,8.6 Q 7.3,8.25 7.7,8.25 L 7.9,8.2 q 0.85,0 1.05,0.85 0.2,0.85 -0.6,1.2 L 8,10.3 M 19.6,28.75 19.15,28.5 q -0.3,-0.2 -0.3,-0.7 -0.1,-0.5 0.25,-0.85 0.35,-0.4 0.8,-0.35 l 0.05,-0.05 q 0.85,0 1.05,0.95 0.2,0.9 -0.7,1.25 H 19.6 M 35.8,31 v -0.45 l 0.05,-0.25 0.1,-0.2 0.35,-0.25 0.3,-0.05 0.75,0.45 q 0.25,0.45 0,0.85 L 37,31.4 36.75,31.55 q -0.45,0.05 -0.8,-0.3 L 35.8,31 M 20.3,49.35 20.7,48.8 q 0.35,-0.35 0.65,-0.3 l 0.1,-0.05 q 0.85,0.2 1.05,0.6 l 0.1,0.55 -0.2,0.8 q -0.4,0.7 -1.25,0.4 -0.75,-0.25 -0.9,-1.05 l 0.05,-0.4"
         fill="#999999"
         fill-rule="evenodd"
         stroke="none"
         id="path4" />
      <path
         d="m 42.6,14.65 q 0,0.6 -0.5,0.85 L 41.25,15.45 40.5,14.85 39.9,14.2 39.65,13.75 39.3,13.3 39.2,12.65 v -0.5 L 38.9,11.8 q -0.35,-0.65 0.1,-1.25 0.4,-0.6 1.15,-0.4 0.4,0.1 0.8,0.5 0.85,0.65 1.3,1.4 0.5,0.8 0.35,1.45 l -0.1,0.35 0.1,0.8 m 0.45,7.65 -0.1,-0.9 q -0.4,-1.1 -0.3,-1.65 0.15,-0.65 0.8,-0.8 0.45,-0.3 1,0 l 0.55,0.55 0.8,1.15 0.25,1.25 q 0.2,1.5 -0.35,2.05 L 45.05,24.35 45,24.4 44.35,24.65 Q 43.9,24.55 43.7,24.1 l -0.15,-0.5 -0.2,-0.5 -0.3,-0.8 m -2.4,2.15 -0.75,-0.1 Q 39.4,24.1 39.25,23.55 39.1,23 39.45,22.55 39.8,22 40.4,22.1 q 0.75,0 1.05,0.65 0.25,0.4 0.05,0.95 l -0.4,0.5 -0.45,0.25 m 9.4,-2.3 q 0.3,0.95 -0.45,1.5 -0.75,0.5 -1.55,0 -0.8,-0.6 -0.45,-1.5 0.25,-0.9 1.25,-0.9 V 21.2 l 0.85,0.4 0.35,0.55 m -5.7,9.1 Q 43.05,31.4 42,30.6 q -0.55,-0.4 -0.75,-0.95 -0.25,-0.7 0,-1.2 0.25,-0.5 0.95,-0.85 1.15,-0.6 2.1,-0.5 0.7,0.1 1,0.45 0.45,0.45 0.45,1.55 0,1.3 -0.55,1.8 l -0.85,0.35 m -3.7,5.75 -0.7,0.85 -0.55,1.35 q -0.3,1.15 -0.05,1.65 l 0.4,0.6 0.4,0.25 q 0,-0.8 0.15,-1.25 l 0.8,-1.85 q 0.65,-1.55 1.1,-1.95 l 0.95,-0.55 q -1.5,-0.15 -2.5,0.9 m -3,6.75 Q 36.6,42.85 36.45,41.25 36.3,40 36.75,38.45 36.9,37.7 37.2,37.1 l 1.1,-1.4 1.7,-1.55 q 1.05,-0.75 2.15,-0.7 l 1.35,-0.05 0.6,-0.65 q 0.7,-0.85 1.75,-1.15 1.1,-0.35 2.1,0 0.9,0.35 1.5,1 1.05,0.95 1.4,2.2 0.35,1.4 -0.3,2.55 l 2.15,1.65 0.65,1.45 q 0.8,2.45 0.25,4.35 -0.3,1.1 -1.1,1.95 -0.85,0.8 -1.9,1 l -1.15,0.15 -1.25,0.8 q -1.4,1 -4.45,0.6 -2.15,-0.3 -3.35,-1 -1.8,-1.15 -1.8,-2.9 l -0.05,-0.75 -0.9,-0.9 m 10.05,-9.1 q -0.6,-0.6 -1.1,-0.55 -0.5,0.1 -0.9,0.95 l -0.05,0.15 h 0.3 l 2.1,0.25 0.2,0.1 -0.55,-0.9 m 2.7,9.6 -0.05,0.15 0.4,-1 -0.35,0.85 M 30.35,7.3 31.3,7.2 32.2,7.45 33.8,7.6 q 1,0.3 1,1.05 l 0.15,0.45 -0.1,0.75 -0.7,0.6 -0.95,0.1 -0.85,-0.2 L 31.8,9.85 31,9.6 Q 30.15,9.2 29.95,8.6 29.8,8.25 29.9,7.9 L 30.35,7.3 M 23,9.05 24.1,8.7 h 0.95 q 0.75,0.2 1,0.6 0.3,0.35 0.1,0.8 L 26,10.35 V 10.4 L 25.2,11 h -0.5 l -0.5,0.35 -0.7,0.1 q -0.9,0 -1.3,-0.55 Q 21.95,10.6 21.95,10.15 22,9.65 22.3,9.4 L 23,9.05 m -7,5.4 q 0.15,-0.75 0.8,-1 l 0.6,-0.2 0.5,-0.3 q 0.6,-0.3 0.95,0 l 0.4,0.65 q 0.35,0.25 0.35,0.75 l -1,1.4 -0.45,0.9 q -0.45,0.55 -1.05,0.3 l -0.85,-0.7 -0.4,-0.55 q -0.15,-0.5 0.1,-1.1 L 16,14.55 v -0.1 m -4.65,7.05 0.5,-0.55 0.55,-0.4 0.8,0.05 0.5,0.6 0.05,0.1 0.2,0.45 q 0.15,0.45 -0.3,1.45 l -0.7,1.45 -0.5,0.8 -1.2,0.1 q -0.5,-0.3 -0.6,-1 l -0.2,-0.6 q 0.1,-0.7 0.35,-1.25 l 0.35,-0.6 0.2,-0.6 M 7.7,33.3 8,32.55 V 31.5 q 0.05,-0.45 0.4,-0.75 0.35,-0.35 0.8,-0.35 0.7,0 1.05,0.75 l 0.1,1.3 -0.2,1 L 9.85,34.2 9.6,35.35 8.8,35.9 Q 8.3,36 7.85,35.55 q -0.3,-0.4 -0.3,-1.2 0,-0.5 0.15,-1.05 M 6.6,44.55 6.7,43 q 0.25,-0.85 0.95,-1.15 l 1.15,0.1 0.65,0.9 -0.2,1.5 -0.1,0.95 q -0.2,0.9 -1.05,1 -0.85,0.2 -1.3,-0.6 L 6.6,44.55"
         fill="#000000"
         fill-rule="evenodd"
         stroke="none"
         id="path5" />
    </g>
    <g
       id="shape2"
       transform="translate(1.5,1.5)">
      <path
         d="M 0,23.8 V 0 H 64.1 V 23.8 57.55 H 0 Z"
         fill="none"
         stroke="#000000"
         stroke-linecap="round"
         stroke-linejoin="round"
         stroke-width="3"
         id="path6" />
    </g>
  </defs>
</svg>
