<?xml version="1.0" encoding="UTF-8" standalone="no"?>
<svg
   ffdec:objectType="frame"
   height="60.549999"
   width="67.099998"
   version="1.1"
   id="svg7"
   sodipodi:docname="755.svg"
   xmlns:inkscape="http://www.inkscape.org/namespaces/inkscape"
   xmlns:sodipodi="http://sodipodi.sourceforge.net/DTD/sodipodi-0.dtd"
   xmlns:xlink="http://www.w3.org/1999/xlink"
   xmlns="http://www.w3.org/2000/svg"
   xmlns:svg="http://www.w3.org/2000/svg"
   xmlns:ffdec="https://www.free-decompiler.com/flash">
  <sodipodi:namedview
     id="namedview7"
     pagecolor="#ffffff"
     bordercolor="#000000"
     borderopacity="0.25"
     inkscape:showpageshadow="2"
     inkscape:pageopacity="0.0"
     inkscape:pagecheckerboard="0"
     inkscape:deskcolor="#d1d1d1"
     fit-margin-top="5"
     fit-margin-left="5"
     fit-margin-right="5"
     fit-margin-bottom="5" />
  <g
     transform="translate(1.5,1.5)"
     id="g3">
    <use
       ffdec:characterId="516"
       height="57.549999"
       width="64.099998"
       xlink:href="#shape0"
       id="use1" />
    <use
       ffdec:characterId="1244"
       height="57.25"
       transform="translate(0.05,0.25)"
       width="64.5"
       xlink:href="#shape1"
       id="use2" />
    <use
       ffdec:characterId="518"
       height="60.549999"
       transform="translate(-1.5,-1.5)"
       width="67.099998"
       xlink:href="#shape2"
       id="use3" />
  </g>
  <defs
     id="defs7">
    <g
       id="shape0">
      <path
         d="M 53.6,0 H 64.1 V 57.55 H 53.6 28.25 0 V 0 H 28.25 53.6 V 57.55 0 M 28.25,0 V 57.55 0"
         fill="#ffffff"
         fill-rule="evenodd"
         stroke="none"
         id="path3" />
    </g>
    <g
       id="shape1"
       transform="translate(-0.05,-0.25)">
      <path
         d="m 39.55,14.15 -1.9,0.45 -1.1,0.65 -0.45,1 q -0.45,0.75 -1.15,0.65 -0.5,-0.05 -0.8,-0.5 -0.3,-0.45 -0.25,-0.95 0.05,-0.8 0.85,-1.7 l 1.15,-1 q 0.85,-0.55 2.4,-0.85 l 1.3,-0.15 q 1.5,-0.05 3,0.85 l 0.8,0.65 0.6,0.8 0.95,1.55 0.15,1.3 -0.1,1.2 -0.3,0.95 -0.6,1.2 q -1.3,2.05 -3.4,2.1 -1.25,0.05 -2.6,-0.7 -1,-0.5 -1.55,-1.25 Q 36.05,19.7 36,18.75 35.95,17.8 36.35,17 q 0.4,-0.8 1.25,-1.25 0.8,-0.5 1.7,-0.55 1,0 1.8,0.5 l 0.6,0.8 v 1 L 41,18.3 39.95,18.15 q -0.2,-0.2 -0.15,-0.55 0.05,-0.3 0.25,-0.45 l -0.95,-0.05 -0.75,0.55 -0.1,0.55 0.3,0.45 1.15,0.8 1.35,0.1 q 0.8,-0.3 1.25,-1.2 l 0.3,-0.65 0.25,-0.9 -0.35,-1.05 q -0.95,-1.6 -2.95,-1.6 m -12.8,24.35 2.45,0.3 2.35,0.6 q 2.1,0.85 3.1,3.1 1,2.2 0.3,4.35 2.35,-1.2 3.05,-3.7 0.75,-2.45 -0.55,-4.8 -0.7,-1.15 -0.7,-1.6 0.05,-0.85 1.5,-1.85 2.75,-1.85 4.7,-4.45 2,-2.7 2.8,-5.75 0.85,-3.15 0.35,-6.4 -0.55,-3.3 -2.4,-5.9 -2.2,-3.05 -5.85,-4.55 -3.6,-1.5 -7.4,-1.05 -3.7,0.45 -6.95,2.65 -3.2,2.2 -5.15,5.5 l -0.8,1.6 0.3,-0.55 q 0.5,-0.7 0.9,-1.05 0.5,-0.4 1.15,-0.75 l 1.35,-0.6 1.85,-0.15 1.7,0.25 1.35,0.7 1.2,1 q 0.5,0.6 0.7,2 l 0.1,1.25 -0.1,0.9 -0.2,0.8 Q 27.6,21.3 26.6,22.3 l -1.55,1.3 q -0.9,0.6 -1.9,0.5 l -1.8,-0.6 -1,-0.65 q -0.6,-0.7 -0.6,-1.45 l 0.2,-1.05 0.6,-1.45 q 0.45,-0.7 1.2,-0.85 h 0.9 q 0.7,0 1,0.3 l 0.3,0.45 -0.1,0.5 -1,0.25 -0.7,0.5 q -0.3,0.4 -0.05,0.65 l 0.65,0.2 0.6,0.25 0.7,-0.15 0.85,-0.85 0.45,-0.8 0.15,-0.75 q 0.1,-1 -0.2,-1.4 Q 25,16.8 24.35,16.55 L 23.3,16.2 Q 21.6,16 20.1,17.65 l -0.5,0.8 -0.15,0.8 q -0.25,0.8 -1.1,0.9 -0.8,0 -1.2,-0.65 l -0.2,-0.85 0.05,-0.8 q -0.75,2 -1,4.2 -0.45,3.75 0.5,7.5 0.5,2.05 1.35,3.4 0.9,1.4 2.4,2.65 2.8,2.25 6.5,2.9 M 25,50.6 q 1.05,-2 3.1,-3 l 2.4,-1.05 q 1.4,-0.75 1.45,-2 -1,-1.5 -3.45,-2.25 l -4.2,-0.75 q -3.75,-0.8 -6.7,-3.35 -3.05,-2.6 -4.35,-6.2 -0.6,-1.7 -0.95,-3.9 -0.75,-5.65 1,-11 1.8,-5.55 5.85,-9.15 2.4,-2.05 5.1,-3.25 2.75,-1.2 5.45,-1.55 2.2,-0.3 4.4,0 1.95,0.25 3.9,0.95 3.35,1.2 6.05,3.6 2.7,2.45 4.05,5.7 2.45,5.75 0.6,12.35 -1.7,5.95 -6.6,10.6 -0.8,0.8 -1,1.3 -0.15,0.5 0.2,2.15 0.7,3.25 -1.05,6.35 -1.75,3.1 -4.9,4.1 l -3.75,0.8 q -2.25,0.5 -3.35,1.5 l -1,1.05 -0.4,0.3 h -1.5 L 25.1,53.7 q -0.45,-0.4 -0.55,-1 -0.15,-1 0.45,-2.1 m 9.3,-19.5 -1.1,-0.6 q -0.65,-0.35 -1.15,-0.3 -0.55,0 -1.35,0.7 l -1.1,1 q -0.9,0.65 -1.95,0.4 -1.15,-0.35 -1.5,-1.3 -0.25,-0.5 -0.25,-1.3 0.1,-1.3 0.75,-2.35 0.65,-0.95 1.7,-1.75 1.6,-1.35 2.95,-1.7 v -1 q 0.1,-0.85 0.5,-1.15 l 1,0.05 0.5,1.1 0.2,0.95 q 1.15,0.25 2.3,1.2 l 1.25,1.3 q 1.1,1.4 1.25,2.3 0.3,1.7 -0.9,2.35 l -1.45,0.3 -1.65,-0.2"
         fill="#000000"
         fill-rule="evenodd"
         stroke="none"
         id="path4" />
      <path
         d="m 57.6,5.15 q 0.55,-0.45 0.85,-0.45 0.7,0.1 0.6,0.7 L 58.75,6 57.5,6.95 56.05,7.55 55,7.75 q -0.55,0 -1.1,-0.45 L 53.5,6.95 53.1,6.75 52.65,6.65 q -0.2,0.05 -0.3,0.4 L 51.7,8.6 50.85,9.75 49.65,10.1 Q 48.25,10.2 47.6,9.35 L 47.3,8.3 Q 47.15,6.6 48.2,5.45 l 0.95,-0.8 q 0.6,-0.4 0.95,-0.5 l 1.6,-0.1 1.9,0.25 1.05,0.65 0.8,0.8 0.35,0.35 0.45,-0.05 1.35,-0.9 m -2.6,17.3 -0.55,0.7 q -0.3,0.25 -1.1,0.35 -0.95,0 -1.55,-0.4 -0.85,-0.55 -0.9,-1.35 v -0.8 l 0.1,-0.9 q 0.2,-0.65 0.75,-1.3 0.65,-0.9 1.6,-1.35 l 2.05,-0.15 q 0.9,0.2 1.9,0.85 l 0.65,0.5 0.25,-0.1 0.1,-0.35 0.25,-0.35 0.05,-0.8 q 0,-0.4 0.3,-0.65 l 0.7,-0.15 q 0.45,0.2 0.55,0.95 L 60,18.55 59.45,19.7 q -0.65,0.85 -1.8,0.95 l -1.7,-0.45 -0.25,-0.05 -0.1,0.1 Q 55.45,20.5 55.45,20.9 L 55.4,21.55 55,22.45 M 47.1,39.3 q -0.75,0.4 -1.55,0 -0.5,-0.25 -0.7,-0.6 l -0.2,-0.85 q 0,-0.8 0.15,-1.15 0.3,-0.9 1.25,-1.35 l 1.85,-0.4 q 1.35,0 2.45,0.6 1.2,0.65 1.65,1.85 0.4,1.2 -0.15,2.9 -0.45,1.4 -0.35,1.85 l 2.5,-0.65 0.5,-0.05 0.3,0.35 -0.65,0.7 q -1.05,0.6 -1.85,0.7 -1.15,0.2 -1.85,-0.45 l -0.4,-0.6 -0.15,-0.6 -0.15,-1.05 v -0.95 q -0.15,-1 -1.1,-1.35 l -0.7,0.05 -0.25,0.4 -0.6,0.65 M 11.4,6.3 q 1.05,0.6 1.25,2.6 0.1,1.15 -0.15,1.8 -0.45,1 -1.3,1.15 L 10.25,11.65 9.55,10.9 Q 9.1,10.15 9.3,8.9 L 8.5,9.15 7.7,9.45 Q 7.05,9.55 6.45,9 5.9,8.5 5.8,7.8 5.65,6.95 6.3,5.05 L 6.55,4.65 Q 6.8,4.45 7,4.75 l -0.15,0.4 q -0.4,0.55 -0.4,1.3 0,0.75 0.45,1.3 L 7.3,8 7.75,7.65 Q 8.45,6.6 9.35,6.25 L 11.4,6.3 m -7.1,19.2 0.25,0.65 q 0.35,0.6 0.75,0.6 0.5,0.1 0.7,-0.45 l 0.3,-0.85 q 0.4,-1.5 1.8,-2.1 1.5,-0.6 2.65,0.45 0.55,0.5 0.65,1.25 0.1,0.75 -0.3,1.35 L 9.95,27.15 Q 9.2,27.3 8.65,26.85 8.35,27.9 7.4,28.55 6.2,29.3 4.75,28.9 l -1,-0.7 Q 3.5,27.95 3.4,27.4 3.1,26.4 3.45,25.15 l 0.3,-0.5 q 0.35,-0.2 0.55,0 l 0.1,0.4 -0.1,0.45 m 6.15,22.05 Q 10,48.95 8.4,49.2 L 7.6,49.45 7.25,49.65 6.75,49.7 6.2,49.65 5.65,49.7 q -0.4,0 -0.35,-0.3 0,-0.2 0.3,-0.3 1.1,-0.5 2.35,-0.9 l 0.7,-0.25 0.45,-0.6 -0.2,-0.8 Q 8.15,45 8.45,43.25 l 0.3,-0.9 0.85,-0.9 0.6,-0.5 q 0.85,-0.6 2,-0.5 l 1.75,0.5 1.15,1 q 0.3,0.45 0.25,1.05 -0.05,0.6 -0.45,1 -0.85,0.85 -2,0.55 l -0.85,-0.3 -0.9,0.1 Q 10.9,44.6 10.9,45.2 v 0.9 l -0.45,1.45"
         fill="#ffffff"
         fill-rule="evenodd"
         stroke="none"
         id="path5" />
      <path
         d="m 2.15,0.25 h 2.55 0.15 33.3 l 3.05,0.05 0.9,0.05 1.75,0.05 7.35,0.05 h 1.45 2.85 l 2.45,0.05 4.35,0.05 0.4,0.1 0.3,0.15 0.15,0.15 0.1,0.15 0.1,0.15 0.05,0.1 0.05,0.15 V 1.65 1.8 1.95 L 63.4,2.1 63.35,2.2 63.4,2.35 63.45,2.5 V 2.6 2.75 2.9 3.05 3.2 3.35 3.5 3.65 3.75 3.9 4.05 4.2 4.35 4.5 4.65 4.8 4.9 5.05 5.2 5.35 5.5 5.65 5.8 5.95 6.1 6.2 6.35 6.5 6.65 6.8 6.95 7.1 7.25 7.35 7.5 7.65 7.8 7.95 8.1 8.25 8.4 8.55 8.65 8.8 8.95 9.1 9.25 9.4 9.55 9.7 v 0.1 0.15 0.15 0.15 0.15 0.15 0.15 0.15 0.15 0.1 0.15 0.15 0.15 0.15 0.15 0.15 0.15 0.1 0.15 0.15 0.15 0.15 0.15 0.15 0.15 0.1 0.15 0.15 0.15 0.15 0.15 0.15 0.15 0.15 0.1 0.15 0.15 0.15 0.15 0.15 0.15 0.15 0.1 0.15 0.15 0.15 0.15 0.15 0.15 0.15 0.15 0.1 0.15 0.15 0.15 0.15 0.15 0.15 0.15 0.1 0.15 0.15 0.15 0.15 0.15 0.15 0.15 0.1 0.15 0.15 0.15 0.15 0.15 0.15 0.15 0.15 0.1 0.15 0.15 0.15 0.15 0.15 0.15 0.15 0.1 0.15 0.15 0.15 0.15 0.15 0.15 0.15 0.15 0.1 0.15 0.15 0.15 0.15 0.15 0.15 0.15 0.1 0.15 0.15 0.15 0.15 0.15 0.15 0.15 0.15 0.1 0.15 0.15 0.15 0.15 0.15 0.15 0.15 0.1 0.15 0.15 0.15 0.15 0.15 0.15 0.15 0.1 0.15 0.15 0.15 0.15 0.15 0.15 0.15 0.15 0.1 0.15 0.15 0.15 0.15 0.15 0.15 0.15 0.1 0.15 0.15 0.15 0.15 0.15 0.15 0.15 0.15 0.1 0.15 0.15 0.15 0.15 0.15 0.15 0.15 0.1 0.15 0.15 0.15 0.15 0.15 0.15 0.15 0.15 0.1 0.15 0.15 0.15 0.15 0.15 0.15 0.15 0.1 0.15 0.15 0.15 0.15 0.15 0.15 0.15 0.1 0.15 0.15 0.15 0.15 0.15 0.15 0.15 0.15 0.1 0.15 0.15 0.15 0.15 0.15 0.15 0.15 0.1 0.15 0.15 0.15 0.15 0.15 0.15 0.15 0.15 0.1 0.15 0.15 0.15 0.15 0.15 0.15 0.15 0.1 0.15 0.15 0.15 0.15 0.15 0.15 0.15 0.15 0.1 0.15 0.15 0.15 0.15 0.15 0.15 0.15 0.1 0.15 0.15 0.15 0.15 0.15 0.15 0.15 0.1 0.15 0.15 0.15 0.15 0.15 l -0.05,0.15 v 0.15 0.15 0.1 0.15 0.15 0.15 0.15 0.15 0.15 0.15 0.1 0.15 0.15 0.15 0.15 0.15 0.15 0.15 0.15 0.1 l -0.05,0.15 v 0.15 0.15 0.15 0.15 0.15 0.15 0.1 0.15 0.15 0.15 0.15 0.15 0.15 0.15 L 63.3,51 v 0.15 0.15 0.15 0.15 0.15 0.15 0.15 0.15 0.1 l -0.05,0.15 v 0.15 0.15 0.15 0.15 L 63.2,53.2 v 0.15 l -0.05,0.1 v 0.15 l -0.05,0.15 v 0.15 h 0.05 l 0.5,0.1 0.3,0.15 0.2,0.15 0.1,0.15 0.05,0.15 0.1,0.1 0.05,0.15 0.05,0.15 0.05,0.15 v 0.15 0.15 0.15 l -0.05,0.15 -0.05,0.1 -0.05,0.15 -0.1,0.15 -0.05,0.15 -0.15,0.15 -0.25,0.15 -0.2,0.1 -0.15,0.05 -0.35,0.05 H 62.85 58.1 49.9 46.15 43.5 33.15 31.85 21.45 5 L 3.6,56.75 3.05,56.7 3,56.75 2.9,56.9 2.8,57.05 2.6,57.15 2.4,57.3 2.25,57.4 2.1,57.45 1.7,57.5 1.2,57.4 0.9,57.25 0.7,57.1 0.55,57 0.4,56.85 0.3,56.7 0.25,56.55 0.2,56.4 0.15,56.25 V 56.1 L 0.1,55.95 V 55.85 55.7 55.55 55.4 55.25 55.1 54.95 54.8 54.65 54.55 54.4 54.25 54.1 53.95 53.8 53.65 53.5 53.4 53.25 53.1 52.95 52.8 52.65 52.5 52.35 52.25 52.1 51.95 51.8 51.65 L 0.05,51.5 V 51.35 51.2 51.05 50.95 50.8 50.65 50.5 50.35 L 0.1,50.2 V 50.05 49.9 49.8 49.65 49.5 49.35 49.2 49.05 48.9 48.75 48.6 48.5 48.35 48.2 48.05 47.9 47.75 47.6 47.45 47.35 47.2 47.05 46.9 46.75 46.6 46.45 46.3 46.15 46.05 45.9 45.75 45.6 45.45 45.3 45.15 45 44.9 44.75 44.6 44.45 44.3 44.15 44 43.85 43.75 43.6 43.45 43.3 43.15 43 42.85 42.7 42.55 42.45 42.3 42.15 42 41.85 41.7 41.55 41.4 41.3 41.15 41 40.85 40.7 40.55 40.4 40.25 40.1 40 39.85 39.7 39.55 39.4 39.25 39.1 38.95 38.85 38.7 38.55 38.4 38.25 38.1 37.95 37.8 37.65 37.55 37.4 37.25 37.1 36.95 36.8 36.65 36.5 36.4 36.25 36.1 35.95 35.8 35.65 35.5 35.35 35.25 35.1 L 0.15,34.95 V 34.8 34.65 34.5 34.35 34.2 34.05 33.95 33.8 33.65 33.5 33.35 33.2 33.05 32.9 32.8 32.65 32.5 32.35 32.2 L 0.2,32.05 V 31.9 31.75 31.6 31.5 31.35 31.2 31.05 30.9 30.75 30.6 30.45 30.35 30.2 30.05 29.9 29.75 29.6 29.45 29.3 29.2 29.05 28.9 28.75 28.6 28.45 28.3 28.15 28 27.9 27.75 27.6 27.45 27.3 27.15 27 26.85 26.75 26.6 26.45 26.3 26.15 26 25.85 25.7 25.55 25.45 25.3 25.15 25 24.85 24.7 24.55 24.4 24.3 24.15 24 23.85 23.7 23.55 23.4 L 0.25,23.25 V 23.1 23 22.85 22.7 22.55 22.4 22.25 22.1 21.95 21.85 21.7 21.55 21.4 21.25 21.1 20.95 20.8 20.7 20.55 20.4 20.25 20.1 19.95 19.8 19.65 19.5 19.4 19.25 19.1 18.95 18.8 18.65 18.5 18.35 18.25 18.1 17.95 17.8 17.65 17.5 17.35 17.2 17.05 16.95 16.8 16.65 16.5 16.35 16.2 16.05 L 0.3,15.9 V 15.8 15.65 15.5 15.35 15.2 15.05 14.9 14.75 14.6 14.5 14.35 14.2 14.05 13.9 13.75 13.6 13.45 13.35 13.2 13.05 12.9 12.75 12.6 12.45 12.3 12.2 12.05 11.9 11.75 11.6 11.45 11.3 11.15 11 10.9 10.75 10.6 10.45 10.3 10.15 10 9.85 9.75 9.6 9.45 9.3 9.15 9 8.85 8.7 8.55 8.45 8.3 8.15 8 7.85 7.7 7.55 7.4 7.3 7.15 7 6.85 6.7 6.55 6.4 6.25 6.15 6 5.85 5.7 5.55 5.4 5.25 L 0.35,5.1 V 4.95 4.85 4.7 4.55 4.4 4.25 4.1 3.95 3.8 3.7 3.55 3.4 3.25 L 0.4,3.1 V 2.95 L 0.45,2.8 0.5,2.65 0.6,2.5 0.7,2.4 0.75,2.25 0.8,2.2 0.75,2.05 V 1.9 L 0.7,1.75 0.75,1.6 V 1.45 1.3 L 0.8,1.2 0.9,1.05 0.95,0.9 1.1,0.75 1.2,0.6 1.4,0.45 1.65,0.35 1.8,0.3 H 2.15 V 0.25 M 57.6,5.15 56.25,6.05 55.8,6.1 55.45,5.75 54.65,4.95 53.6,4.3 51.7,4.05 50.1,4.15 q -0.35,0.1 -0.95,0.5 L 48.2,5.45 Q 47.15,6.6 47.3,8.3 l 0.3,1.05 q 0.65,0.85 2.05,0.75 L 50.85,9.75 51.7,8.6 52.35,7.05 q 0.1,-0.35 0.3,-0.4 l 0.45,0.1 0.4,0.2 0.4,0.35 Q 54.45,7.75 55,7.75 L 56.05,7.55 57.5,6.95 58.75,6 59.05,5.4 q 0.1,-0.6 -0.6,-0.7 -0.3,0 -0.85,0.45 m -2.6,17.3 0.4,-0.9 0.05,-0.65 q 0,-0.4 0.15,-0.65 l 0.1,-0.1 0.25,0.05 1.7,0.45 q 1.15,-0.1 1.8,-0.95 L 60,18.55 60.15,17.15 Q 60.05,16.4 59.6,16.2 l -0.7,0.15 Q 58.6,16.6 58.6,17 l -0.05,0.8 -0.25,0.35 -0.1,0.35 -0.25,0.1 -0.65,-0.5 q -1,-0.65 -1.9,-0.85 l -2.05,0.15 q -0.95,0.45 -1.6,1.35 -0.55,0.65 -0.75,1.3 l -0.1,0.9 v 0.8 q 0.05,0.8 0.9,1.35 0.6,0.4 1.55,0.4 0.8,-0.1 1.1,-0.35 L 55,22.45 M 25,50.6 q -0.6,1.1 -0.45,2.1 0.1,0.6 0.55,1 l 0.25,0.2 h 1.5 l 0.4,-0.3 1,-1.05 q 1.1,-1 3.35,-1.5 l 3.75,-0.8 q 3.15,-1 4.9,-4.1 1.75,-3.1 1.05,-6.35 -0.35,-1.65 -0.2,-2.15 0.2,-0.5 1,-1.3 Q 47,31.7 48.7,25.75 50.55,19.15 48.1,13.4 46.75,10.15 44.05,7.7 41.35,5.3 38,4.1 36.05,3.4 34.1,3.15 31.9,2.85 29.7,3.15 27,3.5 24.25,4.7 q -2.7,1.2 -5.1,3.25 -4.05,3.6 -5.85,9.15 -1.75,5.35 -1,11 0.35,2.2 0.95,3.9 1.3,3.6 4.35,6.2 2.95,2.55 6.7,3.35 l 4.2,0.75 q 2.45,0.75 3.45,2.25 -0.05,1.25 -1.45,2 l -2.4,1.05 q -2.05,1 -3.1,3 m 22.1,-11.3 0.6,-0.65 0.25,-0.4 0.7,-0.05 q 0.95,0.35 1.1,1.35 v 0.95 l 0.15,1.05 0.15,0.6 0.4,0.6 q 0.7,0.65 1.85,0.45 0.8,-0.1 1.85,-0.7 L 54.8,41.8 54.5,41.45 54,41.5 51.5,42.15 Q 51.4,41.7 51.85,40.3 52.4,38.6 52,37.4 q -0.45,-1.2 -1.65,-1.85 -1.1,-0.6 -2.45,-0.6 l -1.85,0.4 q -0.95,0.45 -1.25,1.35 -0.15,0.35 -0.15,1.15 l 0.2,0.85 q 0.2,0.35 0.7,0.6 0.8,0.4 1.55,0 M 10.45,47.55 10.9,46.1 v -0.9 q 0,-0.6 0.25,-0.85 l 0.9,-0.1 0.85,0.3 q 1.15,0.3 2,-0.55 0.4,-0.4 0.45,-1 0.05,-0.6 -0.25,-1.05 l -1.15,-1 -1.75,-0.5 q -1.15,-0.1 -2,0.5 l -0.6,0.5 -0.85,0.9 -0.3,0.9 Q 8.15,45 8.9,46.55 l 0.2,0.8 -0.45,0.6 -0.7,0.25 Q 6.7,48.6 5.6,49.1 5.3,49.2 5.3,49.4 5.25,49.7 5.65,49.7 L 6.2,49.65 6.75,49.7 7.25,49.65 7.6,49.45 8.4,49.2 Q 10,48.95 10.45,47.55 M 4.3,25.5 4.4,25.05 4.3,24.65 q -0.2,-0.2 -0.55,0 l -0.3,0.5 Q 3.1,26.4 3.4,27.4 q 0.1,0.55 0.35,0.8 l 1,0.7 q 1.45,0.4 2.65,-0.35 0.95,-0.65 1.25,-1.7 0.55,0.45 1.3,0.3 L 11.1,26.4 Q 11.5,25.8 11.4,25.05 11.3,24.3 10.75,23.8 9.6,22.75 8.1,23.35 6.7,23.95 6.3,25.45 L 6,26.3 q -0.2,0.55 -0.7,0.45 -0.4,0 -0.75,-0.6 L 4.3,25.5 M 11.4,6.3 9.35,6.25 Q 8.45,6.6 7.75,7.65 L 7.3,8 6.9,7.75 Q 6.45,7.2 6.45,6.45 6.45,5.7 6.85,5.15 L 7,4.75 Q 6.8,4.45 6.55,4.65 L 6.3,5.05 Q 5.65,6.95 5.8,7.8 5.9,8.5 6.45,9 7.05,9.55 7.7,9.45 L 8.5,9.15 9.3,8.9 q -0.2,1.25 0.25,2 l 0.7,0.75 0.95,0.2 q 0.85,-0.15 1.3,-1.15 0.25,-0.65 0.15,-1.8 -0.2,-2 -1.25,-2.6"
         fill="#999999"
         fill-rule="evenodd"
         stroke="none"
         id="path6" />
    </g>
    <g
       id="shape2"
       transform="translate(1.5,1.5)">
      <path
         d="M 0,23.8 V 0 H 64.1 V 23.8 57.55 H 0 Z"
         fill="none"
         stroke="#000000"
         stroke-linecap="round"
         stroke-linejoin="round"
         stroke-width="3"
         id="path7" />
    </g>
  </defs>
</svg>
