<?xml version="1.0" encoding="UTF-8" standalone="no"?>
<svg
   ffdec:objectType="frame"
   height="60.549999"
   width="67.608696"
   version="1.1"
   id="svg7"
   sodipodi:docname="150.svg"
   xmlns:inkscape="http://www.inkscape.org/namespaces/inkscape"
   xmlns:sodipodi="http://sodipodi.sourceforge.net/DTD/sodipodi-0.dtd"
   xmlns:xlink="http://www.w3.org/1999/xlink"
   xmlns="http://www.w3.org/2000/svg"
   xmlns:svg="http://www.w3.org/2000/svg"
   xmlns:ffdec="https://www.free-decompiler.com/flash">
  <sodipodi:namedview
     id="namedview7"
     pagecolor="#ffffff"
     bordercolor="#000000"
     borderopacity="0.25"
     inkscape:showpageshadow="2"
     inkscape:pageopacity="0.0"
     inkscape:pagecheckerboard="0"
     inkscape:deskcolor="#d1d1d1"
     fit-margin-top="5"
     fit-margin-left="5"
     fit-margin-right="5"
     fit-margin-bottom="5" />
  <g
     transform="translate(1.5,1.5)"
     id="g3">
    <use
       ffdec:characterId="516"
       height="57.549999"
       width="64.099998"
       xlink:href="#shape0"
       id="use1" />
    <use
       ffdec:characterId="660"
       height="56.450001"
       transform="translate(-0.25,1.8)"
       width="66.349998"
       xlink:href="#shape1"
       id="use2" />
    <use
       ffdec:characterId="518"
       height="60.549999"
       transform="translate(-1.5,-1.5)"
       width="67.099998"
       xlink:href="#shape2"
       id="use3" />
  </g>
  <defs
     id="defs7">
    <g
       id="shape0">
      <path
         d="M 53.6,0 H 64.1 V 57.55 H 53.6 28.25 0 V 0 H 28.25 53.6 V 57.55 0 M 28.25,0 V 57.55 0"
         fill="#ffffff"
         fill-rule="evenodd"
         stroke="none"
         id="path3" />
    </g>
    <g
       id="shape1"
       transform="translate(0.25,-1.8)">
      <path
         d="m 21.65,32.05 -0.95,0.2 -0.65,0.05 Q 19.6,32.05 20,31.45 l 0.8,-0.85 3.55,-2.5 3.75,-2.35 0.5,-0.2 0.15,-0.3 Q 29,24.95 29.5,24.9 l 0.8,0.25 q 0.45,0.3 1,1.4 l 1.05,3.05 13.2,-7.65 3.3,-1.5 q 1.95,-0.9 3.15,-1.7 1.6,-0.95 1.8,-1 l 1.25,-0.05 6,-4 q 1.65,-1.15 2.65,-0.85 0.7,0.25 1,0.9 0.35,0.7 0.1,1.35 l -0.6,0.8 0.3,0.3 q 0.5,0.6 0.4,1.45 -0.1,0.85 -0.7,1.4 l -0.5,0.4 0.15,0.45 Q 64,20.7 63.6,21.3 l -1.8,1.2 -21.55,8.25 -7.8,2.45 -1.8,0.15 Q 29.95,33.1 29.25,32 l -1,-1.6 -0.15,0.05 -1.75,0.9 -1.3,0.4 -1.35,0.35 -1,0.15 -0.4,-0.45 -0.65,0.25 m 6.95,8 q -3.35,1.2 -4.15,1.55 l -1.75,0.75 -0.7,0.15 0.3,-0.8 0.1,-1.25 2.85,-1.2 -0.6,-0.25 q -1.1,-0.35 -1.2,-0.65 -0.15,-0.45 0.25,-0.8 L 23.75,37.5 23.8,37 q 0.1,-0.5 0.5,-0.75 l 1.35,-0.2 1.4,0.25 1.3,0.15 0.55,0.15 0.3,-0.15 q 2.75,-1.4 4.65,-1.3 l 1.65,0.35 q 2.5,0.6 3.55,1.3 l 0.9,0.5 h 0.3 0.5 l 0.65,-0.05 h 3.55 l 3.3,-1.4 1.75,-0.5 q 1.05,-0.1 2.75,0.8 1.85,0.95 2.75,1 l 1.6,-0.25 1.55,-0.45 Q 60.3,36 63.35,36.4 l 1.8,0.4 q 1.05,0.55 0.95,1.45 -0.05,0.8 -0.9,1.25 l -1.55,0.3 v 0.1 l 0.45,0.2 0.5,0.85 -0.25,0.95 q -0.5,0.6 -1.7,0.7 l -5.55,0.8 -1.6,-0.05 -1.1,-0.9 q -1.5,-1.65 -3.65,-3 -0.5,-0.3 -0.8,-0.35 L 49,39.4 48.55,39.6 48.5,39.65 h -0.05 q -2.1,0.95 -5.6,1.95 l -4,1.15 -0.15,0.05 -0.5,0.35 -1.3,-0.15 -2.65,-3.2 -0.8,-1.2 -2.7,0.8 q -0.3,0.3 -0.9,0.4 H 29.4 l -0.8,0.25 m -25.4,6.5 3.1,0.4 q 2.35,0.85 3.85,3.75 L 25.5,47.3 q 1.6,-0.45 2.3,0.2 L 28,47.55 29.85,48.9 31.4,50.45 32.15,51 33,50.9 q 4.85,-1.5 15.05,-3.2 1.4,-0.2 2.05,0 l 1.4,1 6.15,6.4 0.8,1.25 q 0.3,0.85 -0.15,1.4 L 57.4,58.25 56.3,58 q -0.5,-0.25 -1.5,-1.5 l -0.1,0.05 -0.45,0.05 H 54.2 L 53.9,56.55 H 53.65 53.55 53.3 52.65 51.85 51.6 L 49.5,56.5 48.85,56.45 h -0.7 l -1,0.05 h -1.5 L 44.5,56.45 H 43.9 40.3 39.5 L 39.05,56.5 38.6,56.55 H 38.35 L 38.2,56.6 v 0.05 H 37.65 L 35.5,56.7 H 33.45 31.6 26.2 l -1,-0.05 H 24.4 L 24.3,56.6 23.7,56.55 h -0.55 l -1,-0.05 -0.95,-0.05 H 20.55 L 20.3,56.4 H 20 L 19.55,56.35 19,56.3 H 18.8 L 18.3,56.25 17.95,56.2 H 17.5 L 16.9,56.15 16.7,56.1 H 16.25 L 15.85,56.05 15.05,56 h -0.2 -2.1 -0.05 l -0.5,0.05 -0.55,0.05 H 11.2 l -0.1,0.05 -0.35,0.05 h -0.5 L 9.85,56.25 9.5,56.3 H 9.25 L 8.9,56.35 H 8.1 7.3 L 6.65,56.4 6.4,56.45 H 5.9 L 5.4,56.5 5.25,56.55 H 4.7 L 4,56.6 3.35,56.65 H 3.25 L 3.1,56.7 h -3.35 v -10 L 3.2,46.55 m 15.35,-41 1,1.15 0.15,0.2 0.15,-0.1 q 0.5,-0.4 0.9,-0.45 0.75,0 1.05,0.65 0.2,0.55 -0.15,1.7 l -0.05,1.1 0.15,2.55 0.05,0.85 0.1,0.55 q 0.05,0.55 -0.25,0.95 -0.3,0.45 -0.8,0.55 L 19.25,14.95 17.4,14.1 16.1,13.4 14.85,12.9 Q 14.15,12.25 14.6,11.25 L 15.75,10.1 15.65,9.95 15.3,9.45 14.75,9.35 Q 13.8,9.45 12.9,11.1 l -0.55,1.2 q -0.4,1.15 -0.5,3.15 l -0.05,2.15 0.2,3 v 0.55 L 11.6,21.5 11.15,21.15 10.2,19.65 9.25,16.9 Q 8.7,14.6 9.05,12.2 9.4,9.8 10.65,7.8 l 1.1,-1.4 Q 13.2,4.95 15,4.65 q 2,-0.3 3.55,0.9 m -3.3,29.6 q 0.65,-0.3 1.25,-0.65 l 0.35,-0.25 h 0.45 q 0.25,0.1 0.15,0.35 l -0.2,0.2 -0.6,0.75 -1,0.75 -0.6,-0.15 Q 14.8,35.9 14.9,35.6 l 0.35,-0.45"
         fill="#767676"
         fill-rule="evenodd"
         stroke="none"
         id="path4" />
      <path
         d="m 52.2,21.25 q 0.7,-1.45 1.65,-2.1 V 18.9 q 0.1,-0.6 -0.15,-0.95 l -0.4,-0.6 -1.4,-1.25 q -0.85,-0.75 -1.15,-1.5 -0.35,-0.7 -0.25,-1.55 0,-1.4 0.8,-2.5 L 52.05,9.7 51.7,8.65 51.4,8.25 50.8,8.1 49.05,8.05 Q 47.4,8.05 46.7,7.5 46,7 45.8,5.9 V 4 l 0.05,-1.2 0.25,-0.85 0.5,-0.1 q 0.35,0.05 0.45,0.35 v 0.7 q -0.1,1.1 0.2,1.9 l 0.7,0.75 1.2,-0.3 Q 49.85,4.9 51.1,4.8 l 1.45,0.1 q 1.05,0.35 1.75,1.55 l 0.5,0.85 0.55,1.15 q 2.6,0 4.1,1.45 l 0.9,1.2 q 1.8,2.95 1.2,6.1 -0.25,1.55 -1.15,2.9 l 0.5,0.85 q 1.05,2 0.65,4 l -0.7,1.85 0.25,0.95 q 0.2,1.3 -0.75,2.6 L 59.1,31.6 56.65,31.55 q -1.15,-0.7 -1.25,-2.1 l 0.1,-0.75 -0.5,-0.15 -0.6,-0.2 -1.1,0.9 Q 51.7,30.1 50.35,29 q -0.6,-0.45 -0.85,-1.2 -0.3,-0.75 -0.15,-1.5 0.2,-0.75 0.75,-1.4 l 1.35,-1.05 h 0.05 q 0.1,-1.35 0.7,-2.6 m -7.55,-4.35 0.6,0.85 q 0.8,1.45 0.2,2.85 -0.65,1.65 -2.3,1.55 l -0.7,-0.1 -1.3,0.7 -0.6,0.15 -0.4,1.25 q -0.8,1.35 -2.3,1.8 l -2.9,-0.2 Q 33.8,25.2 33.4,24.2 33.05,23.45 33.15,22.5 33.4,21.25 33.75,20.75 L 34,20.45 33.75,19.9 33.65,19.15 33.35,19.5 31.7,21 q -2.25,1.5 -4.9,0.65 l -0.65,-0.3 v 0.2 l 0.25,0.5 1.45,1.45 0.8,0.6 q 0.5,0.55 0.5,1.65 l -0.1,1.4 q -0.35,0.8 -1.15,1.2 l -1.7,0.2 h -0.35 l -1.2,-0.15 q -0.35,-0.2 -0.4,-0.6 -0.05,-0.45 0.2,-0.7 0.4,-0.4 1.1,-0.3 L 26.75,26.75 27,26.5 V 26.2 L 26.95,25.85 26.85,25.55 26.6,25.5 Q 25.25,25.35 24.3,24.3 23.45,23.45 23.15,22 v -0.55 l -0.05,-0.7 v -0.3 q 0.1,-2.8 0.8,-4.25 0.45,-3 2.8,-5.1 2.25,-1.95 5.35,-2.25 l 2,0.1 Q 35,9.1 36.85,10 l 1.6,1.05 q 0.6,0.55 0.85,1.3 1.65,0.05 2.7,0.8 0.95,0.65 1.55,1.7 l -0.75,-0.1 q -0.65,0.05 -1.1,0.45 -0.45,0.4 -0.5,1 -0.1,0.65 0.25,1.2 0.3,0.5 0.95,0.7 l 1.15,-0.05 q 0.9,-0.3 1.1,-1.15 m 13.8,6 q -0.55,0.4 -0.65,1.15 -0.05,0.65 0.4,1.3 0.4,0.45 1,0.5 l 1.15,-0.15 q 0.9,-0.55 0.75,-1.55 0,-0.75 -0.6,-1.2 -0.35,-0.35 -1,-0.35 -0.6,0 -1.05,0.3 m -6.4,-0.05 q 0,0.6 0.5,1.1 0.45,0.5 1.15,0.55 0.75,0.05 1.3,-0.4 L 55.65,23 q 0.1,-0.7 -0.25,-1.3 -0.3,-0.55 -0.95,-0.75 -0.75,-0.3 -1.3,0 -0.85,0.3 -1.1,1.25 v 0.65 M 28.2,45.1 Q 27.4,45 27.25,44.7 27.1,44.25 27.45,43.9 l 0.8,-0.45 1.6,-0.5 0.4,-0.2 q 0.85,-0.4 2.65,-0.8 l 3.15,-0.55 3.15,-0.3 1,0.25 q 0.55,0.35 0.75,1 0.2,0.6 0,1.2 l -0.7,0.9 -1.2,0.25 -0.8,0.05 H 38.1 37.4 l -9.2,0.35 m 7.7,-25.35 q 0.4,0.5 1.05,0.6 l 1.2,-0.25 q 0.5,-0.35 0.65,-1 0.2,-0.65 -0.15,-1.2 -0.35,-0.7 -1.15,-0.8 -0.85,-0.3 -1.55,0.55 -0.65,0.7 -0.3,1.6 l 0.25,0.5 M 28.3,41 q -0.25,0.05 -0.35,-0.1 l -0.15,-0.5 0.65,-0.85 2.3,-1.85 2.1,-1.3 2.05,-1.2 0.7,-0.35 0.9,0.1 0.75,0.7 0.05,0.9 -0.45,0.8 -0.7,0.4 -3.5,1.75 L 31,40.3 29.95,40.7 28.3,41 m -14.7,0.9 q -0.1,-0.65 0.2,-1.15 0.35,-0.55 1,-0.8 0.65,-0.2 1.3,0 0.6,0.2 0.95,0.85 0.3,0.6 0.2,1.25 -0.15,0.65 -0.7,1.05 l -1.2,0.45 Q 14.7,43.5 14.2,43.05 13.65,42.55 13.6,41.9 m 3,-3.25 q 0,-1 0.85,-1.55 0.5,-0.35 1.1,-0.25 0.65,0.05 1.1,0.45 0.45,0.4 0.55,1.05 Q 20.3,39 20,39.5 L 19.15,40.25 18,40.4 17,39.75 q -0.4,-0.5 -0.4,-1.1 m 1.1,-4.75 q 0.25,0.6 0.05,1.3 l -0.8,0.95 -2,-0.15 q -1,-0.8 -0.55,-1.9 0.35,-1.15 1.55,-1.25 0.5,-0.05 1,0.25 l 0.75,0.8 m -4.35,2.1 0.4,0.6 0.25,0.8 0.05,1.25 q -0.15,0.95 -0.9,1.7 -0.7,0.7 -1.65,0.95 L 9.4,41.2 Q 8.65,40.85 8.3,40.35 L 7.75,39.6 7.4,38.8 7.3,37.4 7.35,36.8 7.6,36.2 8.05,35.45 q 1.05,-1.2 2.75,-0.95 1.45,0.2 2.55,1.5 M 4.8,30.45 Q 2.7,29.75 0.65,27.5 l -0.9,-1 v -4.9 l 0.65,0.5 0.65,1.25 q 0.7,1.6 2.05,2.7 1.4,1.15 3.05,1.4 l 4.25,-0.3 q 5.55,-0.8 9.45,1.1 2.85,1.4 4.6,4.35 1.75,2.85 1.75,6.1 0,2.5 -1.1,4.55 -1.7,3.15 -5.8,4.7 -2.85,1 -7.55,1.1 -7.3,0 -12,-2.25 v -4.35 q 1.5,0.8 3.25,1.4 5.4,1.85 11.9,0.95 4.25,-0.6 5.95,-2.65 1.2,-1.45 1.25,-3.55 0,-2 -1,-3.75 -1.3,-2.4 -3.65,-3.4 -2,-0.85 -6.25,-0.6 l -6.4,-0.4"
         fill="#000000"
         fill-rule="evenodd"
         stroke="none"
         id="path5" />
      <path
         d="m 43.55,14.85 0.4,0.2 q 0.85,0.6 0.7,1.65 v 0.2 q -0.2,0.85 -1.1,1.15 L 42.4,18.1 q -0.65,-0.2 -0.95,-0.7 -0.35,-0.55 -0.25,-1.2 0.05,-0.6 0.5,-1 0.45,-0.4 1.1,-0.45 l 0.75,0.1 m 8.5,8 V 22.2 q 0.25,-0.95 1.1,-1.25 0.55,-0.3 1.3,0 0.65,0.2 0.95,0.75 0.35,0.6 0.25,1.3 L 55,24.1 q -0.55,0.45 -1.3,0.4 -0.7,-0.05 -1.15,-0.55 -0.5,-0.5 -0.5,-1.1 m 6.4,0.05 q 0.45,-0.3 1.05,-0.3 0.65,0 1,0.35 0.6,0.45 0.6,1.2 0.15,1 -0.75,1.55 l -1.15,0.15 q -0.6,-0.05 -1,-0.5 -0.45,-0.65 -0.4,-1.3 0.1,-0.75 0.65,-1.15 M 35.9,19.75 35.65,19.25 q -0.35,-0.9 0.3,-1.6 0.7,-0.85 1.55,-0.55 0.8,0.1 1.15,0.8 0.35,0.55 0.15,1.2 -0.15,0.65 -0.65,1 l -1.2,0.25 q -0.65,-0.1 -1.05,-0.6"
         fill="#ffffff"
         fill-rule="evenodd"
         stroke="none"
         id="path6" />
    </g>
    <g
       id="shape2"
       transform="translate(1.5,1.5)">
      <path
         d="M 0,23.8 V 0 H 64.1 V 23.8 57.55 H 0 Z"
         fill="none"
         stroke="#000000"
         stroke-linecap="round"
         stroke-linejoin="round"
         stroke-width="3"
         id="path7" />
    </g>
  </defs>
</svg>
