<?xml version="1.0" encoding="UTF-8" standalone="no"?>
<svg
   ffdec:objectType="frame"
   height="60.549999"
   width="67.099998"
   version="1.1"
   id="svg6"
   sodipodi:docname="541.svg"
   xmlns:inkscape="http://www.inkscape.org/namespaces/inkscape"
   xmlns:sodipodi="http://sodipodi.sourceforge.net/DTD/sodipodi-0.dtd"
   xmlns:xlink="http://www.w3.org/1999/xlink"
   xmlns="http://www.w3.org/2000/svg"
   xmlns:svg="http://www.w3.org/2000/svg"
   xmlns:ffdec="https://www.free-decompiler.com/flash">
  <sodipodi:namedview
     id="namedview6"
     pagecolor="#ffffff"
     bordercolor="#000000"
     borderopacity="0.25"
     inkscape:showpageshadow="2"
     inkscape:pageopacity="0.0"
     inkscape:pagecheckerboard="0"
     inkscape:deskcolor="#d1d1d1"
     fit-margin-top="5"
     fit-margin-left="5"
     fit-margin-right="5"
     fit-margin-bottom="5" />
  <g
     transform="translate(1.5,1.5)"
     id="g3">
    <use
       ffdec:characterId="516"
       height="57.549999"
       width="64.099998"
       xlink:href="#shape0"
       id="use1" />
    <use
       ffdec:characterId="1037"
       height="53.900002"
       transform="translate(0.65,3.65)"
       width="62.950001"
       xlink:href="#shape1"
       id="use2" />
    <use
       ffdec:characterId="518"
       height="60.549999"
       transform="translate(-1.5,-1.5)"
       width="67.099998"
       xlink:href="#shape2"
       id="use3" />
  </g>
  <defs
     id="defs6">
    <g
       id="shape0">
      <path
         d="M 53.6,0 H 64.1 V 57.55 H 53.6 28.25 0 V 0 H 28.25 53.6 V 57.55 0 M 28.25,0 V 57.55 0"
         fill="#ffffff"
         fill-rule="evenodd"
         stroke="none"
         id="path3" />
    </g>
    <g
       id="shape1"
       transform="translate(-0.65,-3.65)">
      <path
         d="m 56.4,3.65 q 0.6,0 0.95,0.55 l 0.3,0.25 2.3,-0.4 0.4,0.15 0.15,0.3 q 0,2.4 -1.45,4.3 -1.15,1.45 -2.85,1.9 H 56.15 L 55.2,10.6 Q 52.4,9.3 52.15,6.25 l 0.1,-0.75 q -0.1,-0.3 0.15,-0.65 0.45,-0.7 1.3,-0.4 1.05,0.35 1.9,-0.3 L 55.8,4 55.85,3.95 q 0.2,-0.3 0.55,-0.3 m 0.25,5.8 1,-1.15 0.9,-1.2 0.15,-0.5 0.15,-0.5 0.1,-0.15 q -1.7,0.3 -2.55,-0.6 -1.1,1.15 -2.8,0.8 0.7,2.15 2.9,3.35 l 0.05,0.05 0.1,-0.1 M 49.5,6 49.55,6.05 49.7,6 50.45,6.65 q 1.45,0.05 1.05,1.3 l -0.55,0.55 -0.25,0.05 -0.55,1 Q 49.8,9.9 49.5,9.45 L 49.2,8.8 H 48.8 Q 47.7,8.75 47.7,7.75 47.7,6.9 48.55,6.8 l 0.4,0.1 V 6.75 L 49.2,6.2 49.3,6.05 h 0.05 L 49.5,6 m 4.95,26.6 q 3.3,1 4.5,4.3 1.45,4 -0.3,7.85 Q 58,46.1 56.75,46.95 53.8,48.8 50.35,47.9 49.6,47.7 49,48.25 48.2,49 48.15,50.1 l 0.15,0.65 0.15,0.8 0.05,0.35 -0.05,0.1 -0.15,0.2 -0.15,0.1 q -1,-0.2 -1.3,-1.35 -0.85,-3.5 2.2,-5.5 0.75,-0.45 1.65,-0.5 l 1.5,0.1 q 2.95,0.35 3.9,-2.25 0.45,-1.25 0.2,-2.55 -0.4,-1.8 -1.55,-3.35 -2.4,-0.35 -2.2,-2.6 0.05,-0.95 0.9,-1.4 0.5,-0.3 1,-0.3 M 31.2,19.3 q 2.15,0.35 1.6,2.3 l -1,4.1 q -0.2,1.1 -0.95,1.85 l -0.1,0.2 -0.2,0.25 -0.15,0.15 -0.15,0.45 -0.25,0.8 -0.05,0.15 0.3,1.95 0.15,-0.45 q 0.65,-2.3 1.6,-4.5 l 1.3,-3.15 1.05,-2.2 q -0.05,-0.65 0.4,-1.1 0.5,-0.55 1.15,-0.55 1.65,0.55 2.5,2.15 l 0.6,0.9 4.45,6.7 q 0.6,0.9 0.8,1.9 0.35,1.75 -0.5,3.3 l -1.8,3.65 -1.9,3.45 Q 38.7,43.7 36.5,42.55 L 35.8,41.9 V 41.85 L 35.45,41.9 Q 33.7,44 31.5,42.4 l -0.6,-0.6 q -1.55,1.5 -3.75,0.5 -2.05,-1 -4.3,-1.7 L 21.9,40.35 q -2.05,-0.4 -2.15,-2.4 V 35.1 q 0.05,-2 0.4,-3.95 0.4,-2.2 2.6,-3.05 1.65,-0.65 3,-1.75 l -0.9,-4.4 q -0.05,-0.4 0.2,-0.75 1.05,-1.25 2.8,-1.35 l 2.3,-0.35 1.05,-0.2 m -8,-8.95 q 1.65,0.45 1.35,2.2 -0.75,3.9 -4.8,4.45 -1.2,0.15 -2.35,0.6 -1,0.4 -1.6,1.2 -2.5,3.3 -2.6,7.5 0,1.35 0.3,2.6 l 0.25,1.25 v 0.05 0.15 L 13.7,30.4 13.65,30.45 13.6,30.5 13.3,30.65 13.15,30.6 12.9,30.4 12.75,30.15 v -0.1 q -1.4,-1.65 -1.4,-3.9 0,-2.25 0.45,-4.5 l 0.8,-2.55 q 1.35,-3.45 4.75,-4.9 L 19,13.8 q 1,-0.1 1.9,-0.7 l 1.35,-2.3 q 0.4,-0.45 0.95,-0.45 M 9.75,37.6 q 2.4,0.6 4.15,2.45 2.8,3 1.95,6.9 l -0.95,2.1 -2.2,2.75 -0.4,0.65 q -0.1,1 0.1,1.95 0.35,1.45 1.2,2.7 v 0.1 l -0.05,0.15 -0.05,0.05 -0.05,0.05 -0.1,0.05 -0.2,0.05 q -3.05,-1.75 -2.6,-5.35 0.25,-2.4 1.8,-4.35 l 0.25,-0.3 0.05,-0.4 0.1,-0.55 V 46.15 Q 11.85,43.4 9.2,42 7.15,40.9 7.95,38.9 q 0.35,-1 1.4,-1.2 l 0.4,-0.1 M 21.6,50.5 q 2.55,0.05 2.85,2.3 0.1,1.1 -0.8,1.7 -1.5,0.95 -3,0 l -0.4,-0.1 -0.05,0.05 -0.1,0.05 v 0.1 0.1 l -0.05,0.2 -0.1,0.1 v 0.05 0.1 0.15 0.15 0.05 l 0.05,0.05 0.1,0.25 0.1,0.2 0.1,0.2 v 0.2 l -0.05,0.15 -0.35,0.3 -0.15,0.05 q -2.35,-1 -1.55,-3.5 0.65,-1.95 2.6,-2.75 l 0.8,-0.15"
         fill="#999999"
         fill-rule="evenodd"
         stroke="none"
         id="path4" />
      <path
         d="m 35.35,11.95 q 1.65,0.45 2.55,2.1 l 1.1,1.75 2.5,3.55 1.1,-1.9 0.25,-0.7 0.5,-1.2 0.95,-2.3 q 0.8,-1.65 2.55,-1.85 l 0.75,-0.05 7.85,1.85 6.6,0.2 0.45,0.1 q 1.65,1 0.8,2.8 -0.5,1 -1.35,1.6 0.3,1.7 -1.35,2.5 l -0.95,0.35 Q 59.6,22 58.2,22.8 q -0.7,0.4 -1.55,0.4 l -1,0.05 Q 53.15,23.5 51,22.5 v 0.25 q -0.05,0.65 -0.6,1 -1.6,0.95 -3.05,-0.25 L 47.2,23.35 46.6,24 q 0.05,0.4 -0.5,0.95 -0.35,0.35 -0.8,0 l -0.05,-0.05 -0.05,0.05 0.15,0.15 1.95,2.7 0.55,0.8 q 1.25,1.7 -0.05,3.6 l -1.1,1.65 q -1.85,2.7 -3.55,5.6 l 1.05,1.3 0.25,0.6 0.85,-0.3 2.15,-0.35 q 0.5,-0.05 0.8,0.3 l 0.15,0.3 q -0.1,0.95 -1.15,1.3 -0.3,0.1 -0.5,0.3 l 0.5,0.75 0.45,0.8 Q 47.65,45.3 46.9,44.9 L 46.05,44.5 45.7,44.45 45.6,44.6 q -0.4,0.85 -1.15,1.25 -0.6,0.4 -0.85,-0.3 -0.45,-1.3 0.1,-2.25 l -0.05,-0.1 -2,-1.4 -1.3,1.45 -0.7,0.3 q -2.15,0.1 -3.95,1.05 l -3.8,1.65 Q 30.85,46.6 29.9,46 L 27.1,44.35 Q 24.15,42.9 20.95,42.1 l -0.35,0.6 -1.2,1.6 0.3,0.5 0.05,0.5 0.05,0.1 v 0.2 0.25 l 0.05,0.1 0.1,0.2 v 0.25 l 0.05,0.1 0.1,0.2 0.05,0.25 q -0.45,1.25 -1.5,0.1 l -0.5,-0.65 -0.6,0.95 -0.05,0.35 q 0,0.45 -0.35,0.65 h -0.2 L 16.6,48.3 q -0.55,-1.2 -0.25,-2.45 l -1.05,-0.2 q -0.75,-0.2 -1.05,-0.85 -0.4,-0.85 0.55,-1.05 l 2.5,-0.6 0.4,0.05 0.7,-1.75 q -2.05,-0.7 -3.3,-2.5 L 14.85,38.2 q -0.2,-4.05 -0.1,-8.1 L 14.7,28.95 q -0.2,-1.55 0.65,-2.7 L 16.25,25.4 17.1,24.85 17,24.8 15.05,24.85 q -1,-0.35 -1.35,-1 -1.35,1.75 -3.85,1.3 Q 8.5,25 8.25,23.65 7.2,24.1 5.9,23.65 4.25,23.05 3.7,21.5 3.45,20.75 3.65,20 L 3.05,19.75 Q 0.75,19.25 0.65,17 0.6,15.95 1.15,15.15 1.7,14.3 2.75,14.1 8.7,13.2 14.5,11.35 q 0.75,-0.3 1.55,-0.5 L 17,10.45 q 1.65,0.3 2.55,1.9 l 0.5,0.75 q 1.35,1.85 2.1,3.95 0.6,-0.4 1.2,-0.65 l 12,-4.45 m 17.45,16.4 q 3.2,-0.1 6.15,0.95 0.5,0.15 0.45,0.65 l -0.05,0.35 q 0.25,0.5 0.05,1.25 -0.25,1.3 -0.35,2.7 l -0.5,3.45 q -0.2,0.95 -1.15,1.05 -1.75,1.55 -3.05,-0.35 -0.25,-0.35 -0.2,-0.8 0.3,-2.2 2.75,-1.95 l 0.2,-1.8 -2.15,0.2 -1.75,-0.35 -0.05,0.8 q -0.05,1.1 -0.6,2 l -0.25,0.35 q -0.7,1.85 -2.8,1.05 -0.7,-0.25 -0.95,-1 -0.5,-1.85 1.3,-2.55 l 0.75,-0.3 0.05,-0.25 0.2,-0.5 q 0.15,-1.9 0.9,-3.65 -0.15,-1 1.05,-1.3 m 0.85,2.3 -0.25,1.3 3.8,0.35 h 0.1 l 0.25,-1.35 -3.85,-0.4 -0.05,0.1 m -26.1,-12.1 q -2.05,0.7 -3.9,1.8 l 0.8,3.4 q 0.15,0.45 -0.2,0.85 -1.05,1.15 -2.5,1.8 l -3.55,2.1 0.1,3.25 q -0.1,1.9 -0.05,3.8 l -0.05,1.8 q 2.15,1.3 4.7,1.65 l 1.9,0.5 5.35,1.8 V 40.7 L 30.05,40.05 30.1,39.7 30.05,39.65 30,39.5 V 39.45 39.2 38.95 L 29.95,38.7 29.9,38.45 29.7,37.8 29.65,37.4 29.4,36.45 29.3,36 l 0.1,-0.4 0.2,-0.15 q 0.5,0.4 0.6,1.05 l 0.05,0.45 1.95,4.35 0.2,0.65 q 2.3,-0.95 4.8,-1.5 l 0.75,-0.1 h 0.65 l 2.45,-3.9 3.45,-5.65 0.3,-0.6 -2.6,-3.8 q -1.95,-2.75 -3.55,-5.7 l -2,-2.9 -1.05,-1.6 -1,2.25 -0.9,2.25 -0.25,1 -0.35,0.75 -0.85,2.6 -0.55,1.2 -0.1,0.05 -0.1,0.1 -0.15,-0.1 -0.1,-0.05 -0.1,-0.8 q 0.05,-0.4 0.25,-0.75 v -0.2 l 0.05,-0.2 0.05,-0.1 0.05,-0.3 0.05,-0.5 0.1,-0.15 V 23.2 l 0.1,-0.1 v -0.25 l 0.1,-0.4 V 22.4 l 0.1,-0.85 0.3,-0.8 0.25,-1.3 0.35,-0.9 q 0.15,-1.1 0.45,-2.1 l -5.8,2.1 M 26.4,7.8 l -0.45,2 q 0.65,0.6 0.1,1.8 -0.6,1.3 -2.05,1.3 -1.8,0.05 -2,-1.7 -0.15,-1.9 1.65,-2.4 l 0.85,0.15 0.55,-3.5 q 0.1,-0.6 0.55,-1 0.15,-0.2 0.35,-0.2 0.2,-0.35 0.65,-0.4 2.25,0.35 2.95,2.3 L 29.45,6.7 Q 28.85,7.55 27.9,7 L 26.55,7.1 26.4,7.8 M 7.7,33.55 q -1.65,0.6 -3.05,1.7 l 0.3,0.8 1.9,-0.65 1.4,-0.9 L 7.7,33.55 M 8.3,31.1 q 1.15,0.3 1.4,1.55 l 0.15,0.45 q 1.2,2.55 1.8,5.3 0.85,0.8 -0.25,1.95 -0.4,0.4 -0.95,0.4 Q 8.5,40.7 8.6,38.9 8.7,37.75 9.45,37.35 l -0.8,-1.85 -3.1,1.9 q 0.75,1.6 1.8,3.05 l 0.1,0.7 Q 7.15,42.35 6.2,42.6 L 5.9,42.85 4.85,43.1 Q 3.25,42.85 3.5,41.3 3.6,40.45 4.15,40 L 4.3,39.75 2.25,35.3 Q 1.95,34.65 2.5,34.25 L 4.8,32.5 q 1.6,-1.15 3.5,-1.4 m 30,-3.65 q 2.2,0.35 1.9,2.5 -0.15,1 -1.2,1.35 -1.8,0.65 -2.55,-1.1 -0.55,-1.25 0.45,-2.2 0.6,-0.55 1.4,-0.55 m -1.95,-2.6 0.7,0.3 0.15,0.25 v 0.15 0.1 l -4.45,4.1 0.25,0.55 0.5,1.05 1.45,3.1 V 34.6 L 35,34.7 v 0.2 0.05 L 34.95,35 34.9,35.05 34.85,35.15 34.8,35.2 34.6,35.25 34.45,35.2 34.3,35.15 34.25,35.05 34.2,35 q -2.9,-2 -5,-4.8 l -0.15,-0.6 0.1,-0.5 q 0,-0.5 0.5,-0.95 0.9,-0.8 1.95,-1.25 l 3.8,-1.75 q 0.5,-0.25 0.95,-0.3 m -12.3,2.65 q 2.2,0.35 1.9,2.45 Q 25.8,31 24.8,31.35 22.95,32 22.25,30.25 21.7,29 22.7,28.05 23.3,27.5 24.05,27.5 m 1.7,19.65 0.1,0.2 -0.05,0.6 -0.25,0.5 -1.8,3.35 q 0.8,0.6 0.7,1.9 -0.05,0.95 -0.95,1.35 -1.25,0.5 -2.1,-0.5 -0.4,-0.5 -0.35,-1 -0.1,-0.3 -0.05,-0.75 0.1,-0.6 0.45,-1.05 l 2,-2.7 Q 22.65,48.7 22.55,47.8 22.4,46.7 23.5,46.55 l 0.3,0.05 0.15,0.05 q 1,-0.25 1.5,0.25 l 0.3,0.25"
         fill="#000000"
         fill-rule="evenodd"
         stroke="none"
         id="path5" />
    </g>
    <g
       id="shape2"
       transform="translate(1.5,1.5)">
      <path
         d="M 0,23.8 V 0 H 64.1 V 23.8 57.55 H 0 Z"
         fill="none"
         stroke="#000000"
         stroke-linecap="round"
         stroke-linejoin="round"
         stroke-width="3"
         id="path6" />
    </g>
  </defs>
</svg>
