<?xml version="1.0" encoding="UTF-8" standalone="no"?>
<svg
   ffdec:objectType="frame"
   height="60.549999"
   width="67.099998"
   version="1.1"
   id="svg7"
   sodipodi:docname="692.svg"
   xmlns:inkscape="http://www.inkscape.org/namespaces/inkscape"
   xmlns:sodipodi="http://sodipodi.sourceforge.net/DTD/sodipodi-0.dtd"
   xmlns:xlink="http://www.w3.org/1999/xlink"
   xmlns="http://www.w3.org/2000/svg"
   xmlns:svg="http://www.w3.org/2000/svg"
   xmlns:ffdec="https://www.free-decompiler.com/flash">
  <sodipodi:namedview
     id="namedview7"
     pagecolor="#ffffff"
     bordercolor="#000000"
     borderopacity="0.25"
     inkscape:showpageshadow="2"
     inkscape:pageopacity="0.0"
     inkscape:pagecheckerboard="0"
     inkscape:deskcolor="#d1d1d1"
     fit-margin-top="5"
     fit-margin-left="5"
     fit-margin-right="5"
     fit-margin-bottom="5" />
  <g
     transform="translate(1.5,1.5)"
     id="g3">
    <use
       ffdec:characterId="516"
       height="57.549999"
       width="64.099998"
       xlink:href="#shape0"
       id="use1" />
    <use
       ffdec:characterId="1182"
       height="52.299999"
       transform="translate(2.8,4.55)"
       width="54.700001"
       xlink:href="#shape1"
       id="use2" />
    <use
       ffdec:characterId="518"
       height="60.549999"
       transform="translate(-1.5,-1.5)"
       width="67.099998"
       xlink:href="#shape2"
       id="use3" />
  </g>
  <defs
     id="defs7">
    <g
       id="shape0">
      <path
         d="M 53.6,0 H 64.1 V 57.55 H 53.6 28.25 0 V 0 H 28.25 53.6 V 57.55 0 M 28.25,0 V 57.55 0"
         fill="#ffffff"
         fill-rule="evenodd"
         stroke="none"
         id="path3" />
    </g>
    <g
       id="shape1"
       transform="translate(-2.8,-4.55)">
      <path
         d="m 45.9,40.85 -0.6,-0.8 Q 44.75,39.2 43.8,38.65 L 39.65,37 Q 38.95,36.75 38.9,36.25 38.75,35.35 39.75,35 l 1.7,0.05 2.4,1.15 0.4,0.4 0.55,0.4 1.2,1.3 0.75,1.1 0.1,0.55 0.25,0.5 -0.05,0.55 v 0.45 L 46.3,41.4 45.9,40.85 m 4.45,10.3 q -0.15,-0.4 0,-1.05 l 0.15,-1.1 -0.1,-2.8 -0.9,-4.75 -1.7,-4 q -0.25,-0.65 0,-0.85 l 0.55,0.1 0.3,0.4 1.1,1.95 0.45,0.5 1,1.55 0.2,1.4 0.55,1.8 0.35,4 v 0.8 q -0.1,0.95 -1.4,2.25 l -0.25,0.15 -0.3,-0.35 m -9.55,-1.45 1.3,0.2 0.3,0.5 0.1,0.35 0.1,-1 0.05,-1.95 -0.15,-1.1 -1.1,-3.1 -0.75,-1.4 -0.9,-0.85 Q 39.4,40.85 39.4,40.3 L 39.45,40.05 39.4,40 q -0.8,-0.75 -0.65,-1.25 0.1,-0.45 0.65,-0.55 l 0.9,0.05 q 0.6,0.25 1.6,1 l 0.15,0.05 q 1.15,0.65 1.95,2.15 l 1.1,2.65 q 1.15,2.65 1.35,3.8 l 0.05,1.4 -0.25,3.2 -0.7,2.05 -0.85,1.45 -0.95,0.85 h -4.8 L 38.8,56.4 q -0.15,-0.75 0.3,-1.35 h -0.75 q -1.35,0 -1.7,-1 -0.15,-0.3 0,-0.75 l 0.1,-0.8 q 0.05,-1 0.2,-1.45 0.2,-0.95 0.8,-1.15 l 1.3,-0.15 1.75,-0.05 m 8.25,2.25 Q 48.85,54 48.4,54.9 l -0.9,1.5 -0.4,0.45 h -1.5 l 0.1,-0.15 0.75,-1.25 0.15,-0.45 0.25,-0.4 0.35,-1.05 0.25,-1.3 0.25,-4 q 0,-0.95 0.3,-1.15 l 0.65,-0.2 0.55,0.55 0.05,0.55 -0.05,3.2 -0.15,0.75 M 18.35,24.65 20.5,24.6 q 1.3,0.2 1.95,0.9 l 0.6,0.55 0.6,0.1 h 1.5 q 0.95,-0.2 1.8,-0.8 L 28.1,24.3 27.8,24.05 q -0.5,-0.7 -0.25,-2.1 l 0.1,-1.6 -0.2,-0.1 -0.4,-0.15 -0.15,-0.05 q -0.3,-0.2 -0.45,-0.9 l -0.4,-3.3 q -0.1,-0.95 0.05,-1.35 0.35,-0.7 1.4,-0.7 1.15,-0.05 2.3,0.95 0.65,0.6 1.4,2 1.4,2.2 1.65,4 L 32.8,22.1 q -0.25,2 -1.5,3.8 Q 30,27.8 28.15,28.7 26.1,29.8 23,30 l -2,0.05 0.4,0.4 q 0.45,0.7 0.15,1.5 -0.25,0.85 -0.95,1.3 -1.2,0.75 -3.25,0.4 -2.3,-0.3 -4.15,-1.5 -2,-1.3 -3,-3.15 -1.3,-2.4 -1.15,-6.05 0,-3.9 1.35,-6.8 1.7,-3.55 4.85,-4.9 H 15.1 Q 12.7,12 11.5,13.05 L 10.4,14.1 Q 9,15.85 8.5,16.9 7.9,18.3 7.8,20.35 L 7.7,23.9 q 0,1.05 -0.45,1.4 L 7.4,25.45 Q 6.65,25.45 6.2,24.7 5.85,24.15 5.75,23.3 5.3,20.55 5.9,18 6.55,15.2 8.25,13.3 l 1.8,-1.7 1.55,-1.05 q 2.45,-1.35 5.25,-1 1.1,0.15 1.55,0.55 l 0.3,0.45 -0.05,0.2 q 1.05,0.15 1.05,1 0.05,0.5 -0.55,0.95 l -1.1,0.6 q -1.7,0.8 -2.7,2.8 -0.8,1.5 -1.1,3.7 -0.2,2 -0.05,4.2 0.15,1.8 0.8,2.8 l 0.75,0.85 -0.2,-0.65 q -0.2,-0.9 0.5,-1.6 0.7,-0.65 2.3,-0.75 M 19.7,22.6 18,23.05 Q 17.2,23.1 16.6,22.6 16,22.15 15.9,21.45 v -1.1 l 0.15,-1.05 0.6,-1.35 0.45,-0.7 2.95,-3 0.65,-0.55 1,-0.4 2,-0.05 q 0.6,0.15 0.8,0.65 l 0.05,0.5 v 2.5 1.15 q 0,0.6 -0.4,1 l -0.95,0.45 -1,0.25 -0.35,0.95 -0.95,1.45 -1.2,0.45 M 3.85,21.05 q 0.3,1.15 0.2,1.55 l -0.1,0.4 0.1,1.95 0.1,0.55 1.05,3.2 0.9,1.75 0.3,0.7 q 0.1,0.4 -0.15,0.7 L 5.6,32.25 4.9,32.1 4,30.85 3.1,27.8 2.9,26.85 V 26.3 L 2.8,25.75 3.05,22.9 3.35,22 l 0.2,-1.05 0.3,0.1 m 19.45,14 -0.9,0.7 L 21,36.45 19.9,36.6 14.1,36.05 13.15,35.7 11.6,34.75 10.55,33.5 Q 9.35,32.2 9.4,31.25 l 0.4,0.15 0.85,0.5 q 2.6,1.45 4.2,1.95 l 1.65,0.4 2.9,0.2 1.5,-0.4 2.1,0.05 0.45,0.3 q 0.2,0.3 -0.15,0.65 m 15,10.3 0.5,0.55 1.3,1.55 q 0.2,0.45 0,0.85 -0.4,0.4 -0.95,0.25 l -0.3,-0.15 -0.35,0.3 -2.05,0.25 h -0.7 l -0.1,0.8 v 1.95 l 0.1,1.2 q 0.45,0.75 -0.1,1.45 -0.5,0.75 -1.35,0.6 Q 33.45,54.8 33.15,54 33,53.85 33,53.3 L 32.9,47.55 33,46.5 q 0.4,-1 1.6,-1.4 l 2.2,-0.15 q 1.1,0 1.5,0.4"
         fill="#999999"
         fill-rule="evenodd"
         stroke="none"
         id="path4" />
      <path
         d="m 24.65,36.85 q -3.4,-1.8 -5.7,-5.45 L 17.4,30.9 q -2.55,-0.95 -3.8,-2.85 -1.25,-1.8 -1.25,-4.4 -0.05,-1.85 0.5,-4.65 0.6,-2.7 1.1,-3.8 0.85,-1.6 2.25,-2.7 0.15,-2.15 0.95,-5.35 0.25,-1.25 0.7,-1.75 0.7,-0.95 1.9,-0.85 L 21.3,5 25.5,6.85 Q 27,6.05 29,5.4 q 4.3,-1.25 8.55,-0.65 3.9,0.5 6.75,2.5 2,-1.3 4.1,-2.15 L 50,4.7 q 1.4,0 2,1.25 l 0.3,1.35 q 0.45,5.35 -0.35,9.95 l -0.35,1.4 0.1,0.85 q 0.2,1.75 -0.2,4.65 -0.6,4.35 -2.2,6.55 l -0.1,0.2 q -0.95,1.8 -2.45,3.2 l -0.85,0.75 -2.35,1.6 q -1.8,0.9 -3.85,1.4 l 0.05,0.05 q -0.3,0.05 -0.55,0.25 h 0.2 l 1.9,1.45 2.35,1.8 q 1,0.55 3.25,1.05 l 0.45,0.05 0.35,-0.4 0.85,-1.3 q 0.9,-1 1.45,-1.25 0.9,-0.5 2.15,-0.6 1.5,-0.1 2.8,0.5 1.45,0.65 2.05,1.8 0.5,0.95 0.5,2.25 l -0.3,1.8 q -0.45,1.25 -1.75,2.2 -1.2,0.8 -2.75,1.05 -2.5,0.3 -5.85,-0.9 -2.2,-0.7 -3.95,-1.6 l 0.95,2.25 h 0.05 l 0.1,0.35 v 0.1 l 0.3,1.6 q 0.15,1.85 -0.3,3 -0.5,1.55 -1.6,2.4 v 0.7 0.4 H 20.7 l -0.1,-0.4 Q 20.35,55.5 21,53.55 l 1,-3.65 0.4,-1 q 0.4,-1.25 1.15,-2.75 l -4,1.65 q -3.35,1.15 -5.8,0.85 -1.6,-0.25 -2.8,-1.05 -1.3,-0.9 -1.75,-2.2 -0.3,-0.7 -0.3,-1.8 0,-1.3 0.5,-2.2 0.6,-1.2 2.05,-1.8 1.3,-0.65 2.8,-0.55 1.3,0.15 2.2,0.6 l 1.4,1.25 0.85,1.3 0.4,0.4 0.4,-0.05 Q 21.8,42.1 22.75,41.5 L 25.1,39.7 27,38.25 q 0.2,-0.2 0.45,-0.3 -1.5,-0.45 -2.8,-1.1 M 44,19.25 h -0.15 l -0.2,0.4 -1.2,1.6 -0.65,0.6 -0.55,0.3 q -1.2,0.7 -1.95,0.75 l -0.45,0.05 -0.05,0.95 0.15,0.95 0.5,0.85 q 1.05,1.45 2.55,1.8 l 2.65,-0.3 0.9,-0.35 0.9,-0.75 q 0.95,-0.95 1.2,-1.95 L 47.7,23.2 Q 47.45,21.05 46,19.95 45.3,19.45 44.4,19.3 L 44,19.25 m -9.45,35.35 0.05,0.05 h 0.05 l -0.05,-0.9 0.1,-4.3 0.2,-0.7 0.25,-0.4 q 0.2,-0.2 0.8,-0.35 l 1.65,-0.2 3.4,-0.25 -0.3,-0.65 -1.1,-0.85 -0.7,-1.1 -0.35,-0.2 -1.2,-0.3 -1.85,-0.2 -1.65,0.05 -0.9,0.85 q -0.65,0.9 -0.75,2.35 l 0.1,2.45 0.2,1.6 0.2,1.1 0.7,1 q 0.5,0.7 1.15,0.95 M 23.4,12.35 q -3.5,0 -5.55,1.8 -1.55,1.35 -2.3,4.15 -0.6,1.85 -0.6,4.15 l 4.8,-0.25 0.45,0.05 V 22.1 q 0.2,-1.15 1.1,-2.1 l 0.65,-0.5 0.75,-0.2 0.65,-0.35 0.5,-0.05 -0.1,-4.5 0.15,-1 V 12.7 L 24,12.35 h -0.6 m -0.55,12 1.4,0.3 1.55,-0.35 q 1.1,-0.7 0.95,-1.85 0,-1.2 -1.1,-1.75 l -1.3,-0.25 -1.2,0.15 q -0.6,0.25 -0.95,0.85 -0.4,0.5 -0.4,1.15 0.1,1.2 1.05,1.75 M 28.55,13 H 28.5 l -2.8,-0.45 -0.15,0.8 v 0.4 l -0.15,3 0.05,2.25 h 0.4 q 0.4,0.05 1.2,0.45 0.6,0.35 0.6,0.7 l 0.4,0.45 0.35,1.2 q 0.15,1.1 -0.05,2 -0.5,1.55 -2.5,2.3 l -0.9,0.2 h -1.4 l -1.05,-0.2 -1.3,-0.75 -0.8,-1.1 -0.1,-0.3 h -0.2 l -5.05,0.15 0.6,2 q 0.7,1.4 2.65,2.45 l 1.3,0.5 h 0.2 l 2.5,0.05 1.55,-0.05 q 2.8,0 5.05,-1.25 2.8,-1.65 3.8,-4.7 1.05,-2.95 -0.3,-5.9 -1.1,-2.6 -3.85,-4.2 m 3.5,17 -0.55,-0.2 h -0.35 l -0.3,-0.7 q -0.15,-0.5 -0.7,-0.6 -0.6,-0.2 -1.05,0.45 -0.65,0.85 0,2.05 l 0.45,0.5 q 0.4,0.4 1.05,0.6 l 1.45,0.35 q 0.9,0 2.35,-0.95 0.5,0.5 1.45,0.65 L 37.7,32.1 38.65,31.5 39.6,30.75 Q 40,30.2 39.8,29.7 39.7,29.1 39.1,29 l -1.05,0.1 -0.4,0.35 q -0.55,0.4 -0.95,0.4 -0.5,0.1 -1.05,-0.45 L 35,28.95 33.7,29.05 33.15,29.5 32.6,29.8 32.05,30 m 6.4,24.65 q 1.65,-0.1 2.35,-0.6 0.9,-0.7 1,-1.9 l -0.1,-2.2 -0.25,-1.3 -2.7,0.25 -1,0.05 -1.05,0.15 -0.45,0.15 -0.15,0.3 -0.05,4.1 0.05,0.45 0.15,0.55 0.1,0.05 2.1,-0.05"
         fill="#000000"
         fill-rule="evenodd"
         stroke="none"
         id="path5" />
      <path
         d="m 44,19.25 0.4,0.05 q 0.9,0.15 1.6,0.65 1.45,1.1 1.7,3.25 l -0.05,0.95 q -0.25,1 -1.2,1.95 l -0.9,0.75 -0.9,0.35 L 42,27.5 Q 40.5,27.15 39.45,25.7 L 38.95,24.85 38.8,23.9 38.85,22.95 39.3,22.9 q 0.75,-0.05 1.95,-0.75 l 0.55,-0.3 0.65,-0.6 1.2,-1.6 0.2,-0.4 H 44 M 32.05,30 l 0.55,-0.2 0.55,-0.3 0.55,-0.45 1.3,-0.1 0.65,0.45 q 0.55,0.55 1.05,0.45 0.4,0 0.95,-0.4 L 38.05,29.1 39.1,29 q 0.6,0.1 0.7,0.7 0.2,0.5 -0.2,1.05 l -0.95,0.75 -0.95,0.6 -1.85,0.05 Q 34.9,32 34.4,31.5 32.95,32.45 32.05,32.45 L 30.6,32.1 Q 29.95,31.9 29.55,31.5 L 29.1,31 q -0.65,-1.2 0,-2.05 0.45,-0.65 1.05,-0.45 0.55,0.1 0.7,0.6 l 0.3,0.7 h 0.35 l 0.55,0.2"
         fill="#ffffff"
         fill-rule="evenodd"
         stroke="none"
         id="path6" />
    </g>
    <g
       id="shape2"
       transform="translate(1.5,1.5)">
      <path
         d="M 0,23.8 V 0 H 64.1 V 23.8 57.55 H 0 Z"
         fill="none"
         stroke="#000000"
         stroke-linecap="round"
         stroke-linejoin="round"
         stroke-width="3"
         id="path7" />
    </g>
  </defs>
</svg>
