<?xml version="1.0" encoding="UTF-8" standalone="no"?>
<svg
   ffdec:objectType="frame"
   height="44.349998"
   width="78.599998"
   version="1.1"
   id="svg11"
   sodipodi:docname="263.svg"
   xmlns:inkscape="http://www.inkscape.org/namespaces/inkscape"
   xmlns:sodipodi="http://sodipodi.sourceforge.net/DTD/sodipodi-0.dtd"
   xmlns:xlink="http://www.w3.org/1999/xlink"
   xmlns="http://www.w3.org/2000/svg"
   xmlns:svg="http://www.w3.org/2000/svg"
   xmlns:ffdec="https://www.free-decompiler.com/flash">
  <sodipodi:namedview
     id="namedview11"
     pagecolor="#ffffff"
     bordercolor="#000000"
     borderopacity="0.25"
     inkscape:showpageshadow="2"
     inkscape:pageopacity="0.0"
     inkscape:pagecheckerboard="0"
     inkscape:deskcolor="#d1d1d1"
     fit-margin-top="5"
     fit-margin-left="5"
     fit-margin-right="5"
     fit-margin-bottom="5" />
  <g
     transform="translate(2,2.05)"
     id="g3">
    <use
       ffdec:characterId="1"
       height="42.700001"
       transform="translate(-1.75,-2)"
       width="76.449997"
       xlink:href="#shape0"
       id="use1" />
    <use
       ffdec:characterId="258"
       height="43.400002"
       transform="translate(-1.45,-2)"
       width="76.75"
       xlink:href="#shape1"
       id="use2" />
    <use
       ffdec:characterId="3"
       height="44.349998"
       transform="translate(-2,-2.05)"
       width="78.599998"
       xlink:href="#shape2"
       id="use3" />
  </g>
  <defs
     id="defs11">
    <g
       id="shape0"
       transform="translate(1.75,2)">
      <path
         d="M 2.8,0 V -0.4 H 5.4 V 0 H 9.7 V 19.45 0 H 20.55 L 19.3,19.45 H 9.7 0.25 V 0 H 2.8"
         fill="#ffffff"
         fill-rule="evenodd"
         stroke="none"
         id="path3" />
      <path
         d="M 0.25,19.45 H 9.7 19.3 L 18.7,28.6 16,28.5 10.95,27.95 9.7,27.8 Q 7.45,27.6 5.85,27.75 4.05,27.9 1.5,28.6 0.75,28.8 0.25,29.15 v -9.7 m 9.45,0 v 8.35 -8.35"
         fill="#121212"
         fill-rule="evenodd"
         stroke="none"
         id="path4" />
      <path
         d="m 9.7,27.8 1.25,0.15 5.05,0.55 2.7,0.1 h 1.05 l 3.75,0.15 q 2.45,0.3 3.6,1.25 0.6,0.5 0.6,1.1 0,0.65 -0.8,1 l -1.3,0.2 -7.15,0.15 -5.6,-0.3 L 9.7,31.75 7.95,31.6 3.1,31.95 0.95,32.3 0.25,32.1 -0.35,31.55 -0.5,31.3 V 29.9 L 0.25,29.15 Q 0.75,28.8 1.5,28.6 4.05,27.9 5.85,27.75 7.45,27.6 9.7,27.8 v 3.95 -3.95"
         fill="#999999"
         fill-rule="evenodd"
         stroke="none"
         id="path5" />
      <path
         d="M 2.8,0 H 0.25 M 9.7,0 H 5.4 m 16.15,0 h 10.7 M 20.55,0 H 9.7"
         fill="none"
         stroke="#666666"
         stroke-linecap="round"
         stroke-linejoin="round"
         stroke-width="4"
         id="path6" />
      <path
         d="m 9.7,-0.4 h 65 V 40.5 H 47.05 L 45.5,40.7 27,40.65 25.95,40.5 H 9.7 -0.5 V -0.4 H 9.7 V 40.5 -0.4"
         fill="#ffffff"
         fill-rule="evenodd"
         stroke="none"
         id="path7" />
    </g>
    <g
       id="shape1"
       transform="translate(1.45,2)">
      <path
         d="m 28.25,22.35 -0.05,-0.55 -3.65,0.45 -6.6,1.1 -16.25,3.1 -2.5,-0.2 Q -1.45,25.9 -1.45,25.1 -1.55,24.55 -1.1,24.15 V 24.1 l -0.1,-1.55 0.4,-2.95 -0.4,-2.75 0.1,-1.55 v -0.05 q -0.45,-0.4 -0.35,-0.95 0,-0.8 0.65,-1.15 l 2.5,-0.2 16.25,3.1 6.6,1.1 3.65,0.45 0.05,-0.55 0.15,-0.5 L 15.5,11.1 Q 7.45,7.25 -0.2,2.85 L -1.05,2.15 Q -1.5,1.5 -1.2,0.85 L -0.35,0.15 0,-0.7 q 0.45,-0.45 1.1,-0.5 l 1,0.15 1.05,0.3 1.65,-0.1 6.8,0.1 0.85,0.05 0.2,-0.45 q 0.55,-0.75 1.45,-0.6 l 1.1,0.45 1.15,0.9 8.75,7.25 6.35,5.7 0.65,-0.45 Q 31.1,10.8 30.45,9.4 29.15,7.55 27.8,5.15 L 25.35,1.1 Q 24.7,0 24.7,-0.45 q 0,-0.85 0.85,-1.35 l 1.7,0.1 0.5,0.5 0.25,-0.05 1,0.15 0.25,-0.15 1.55,-0.3 0.4,-0.1 0.35,-0.05 0.35,-0.05 0.95,0.05 q 0.9,0.2 1.2,1.35 l 0.1,1.8 0.2,1.2 0.4,2 1.15,4.05 0.65,1.95 v 0.05 l 0.3,-0.05 H 37 l 0.3,0.05 v -0.05 l 0.65,-1.95 1.15,-4.05 0.4,-2 0.15,-1.2 q 0,-1.4 0.15,-1.8 0.3,-1.15 1.2,-1.35 l 0.95,-0.05 0.35,0.05 0.35,0.05 0.4,0.1 1.55,0.3 0.25,0.15 1,-0.15 0.25,0.05 0.5,-0.5 1.7,-0.1 q 0.85,0.5 0.85,1.35 L 48.5,1.1 46.05,5.15 43.4,9.4 l -1.65,2.7 0.65,0.45 6.35,-5.7 8.75,-7.25 1.15,-0.9 1.1,-0.45 q 0.9,-0.15 1.45,0.6 l 0.2,0.45 0.8,-0.05 6.85,-0.1 1.65,0.1 1.05,-0.3 1,-0.15 q 0.65,0.05 1.1,0.5 l 0.35,0.85 0.8,0.7 q 0.35,0.65 -0.1,1.3 l -0.85,0.7 q -7.65,4.4 -15.7,8.25 l -12.9,5.45 0.15,0.5 0.05,0.55 3.65,-0.45 6.6,-1.1 16.25,-3.1 2.5,0.2 q 0.65,0.35 0.65,1.15 0.1,0.55 -0.35,0.95 v 0.05 q 0.2,0.35 0.05,1.55 L 74.65,19.6 75,22.55 q 0.15,1.2 -0.05,1.55 v 0.05 q 0.45,0.4 0.35,0.95 0,0.8 -0.65,1.15 l -2.5,0.2 -16.25,-3.1 -6.6,-1.1 -3.65,-0.45 -0.05,0.55 -0.15,0.5 12.9,5.45 q 8.05,3.85 15.7,8.25 l 0.85,0.7 q 0.45,0.65 0.1,1.3 l -0.8,0.7 -0.35,0.85 q -0.45,0.45 -1.1,0.5 l -1,-0.15 -1.05,-0.3 -1.65,0.1 -6.85,-0.1 -0.8,-0.05 -0.2,0.45 q -0.55,0.75 -1.45,0.6 L 58.65,40.7 57.5,39.8 48.75,32.55 42.4,26.85 41.75,27.3 q 1,1.3 1.65,2.7 l 2.65,4.25 2.45,4.05 0.65,1.55 q 0,0.85 -0.85,1.35 l -1.7,-0.1 -0.5,-0.5 -0.25,0.05 -1,-0.15 -0.25,0.15 -1.55,0.3 -0.4,0.1 L 42.3,41.1 41.95,41.15 41,41.1 q -0.9,-0.2 -1.2,-1.35 -0.15,-0.4 -0.15,-1.8 l -0.15,-1.2 -0.4,-2 L 37.95,30.7 37.3,28.75 V 28.7 L 37,28.75 h -0.05 -0.1 l -0.3,-0.05 v 0.05 l -0.65,1.95 -1.15,4.05 -0.4,2 -0.2,1.2 -0.1,1.8 q -0.3,1.15 -1.2,1.35 L 31.9,41.15 31.55,41.1 31.2,41.05 30.8,40.95 29.25,40.65 29,40.5 l -1,0.15 -0.25,-0.05 -0.5,0.5 -1.7,0.1 q -0.85,-0.5 -0.85,-1.35 0,-0.45 0.65,-1.55 l 2.45,-4.05 q 1.35,-2.4 2.65,-4.25 0.65,-1.4 1.65,-2.7 l -0.65,-0.45 -6.35,5.7 -8.75,7.25 -1.15,0.9 -1.1,0.45 q -0.9,0.15 -1.45,-0.6 l -0.2,-0.45 -0.85,0.05 -6.8,0.1 -1.65,-0.1 -1.05,0.3 -1,0.15 Q 0.45,40.55 0,40.1 l -0.35,-0.85 -0.85,-0.7 q -0.3,-0.65 0.15,-1.3 l 0.85,-0.7 q 7.65,-4.4 15.7,-8.25 l 12.9,-5.45 -0.15,-0.5"
         fill="#999999"
         fill-rule="evenodd"
         stroke="none"
         id="path8" />
      <path
         d="M 25.95,18.5 25.35,17.15 25.2,16.7 21,11.15 19.05,8.5 17.2,10.15 15.95,10.4 q -1.05,0 -1.7,-0.4 -1.15,-0.6 -1.5,-2.05 -0.3,-1.3 0.35,-2.5 0.8,-1.8 2.65,-2.4 1.9,-0.6 3.45,0.55 l 1.05,1.05 4.65,6.45 V 10.9 L 25,10.65 23.9,8.7 23,6.15 22.7,4.25 v -1 q 0.1,-0.6 0.65,-1 L 24.4,1.95 24.8,2.05 24.9,2 q 0.55,-0.05 1.55,0.35 l 0.9,0.4 2,0.65 Q 30.1,2.75 30.8,2.5 31.5,2.15 32.65,1.95 l 1.05,-0.1 1.05,-0.15 0.2,-0.05 h 0.2 1.65 0.3 l 2.3,0.3 q 1.15,0.2 1.85,0.55 0.75,0.25 1.45,0.9 l 2,-0.65 0.9,-0.4 1.55,-0.35 0.1,0.05 0.4,-0.1 1.05,0.3 q 0.55,0.4 0.65,1 v 1 l -0.3,1.9 -0.9,2.55 -1.1,1.95 0.1,0.25 v 0.2 L 51.8,4.65 52.85,3.6 q 1.55,-1.15 3.45,-0.55 1.85,0.6 2.65,2.4 0.65,1.2 0.35,2.5 -0.35,1.45 -1.5,2.05 -0.65,0.4 -1.7,0.4 L 54.85,10.15 Q 54.05,9.85 53,8.5 l -1.95,2.65 -4.2,5.55 -0.15,0.45 -0.6,1.35 q -1.1,1.9 -3.15,3.2 l -0.05,0.1 -0.9,1 -0.6,0.65 0.65,3.5 2.5,-2.2 1.4,-0.75 1.35,-0.2 1.35,0.2 q 0.65,0.2 1.15,0.8 1.6,1.65 1.15,4.2 -0.45,2.2 -2.4,3.7 L 47.05,33.65 45,34.8 q 0.9,1.65 1,2.3 0.2,1.6 -0.85,2.25 -0.5,0.35 -1.55,0.35 -1.15,0 -1.7,-0.6 L 41.5,38.55 41.25,37.9 40.4,36.25 40,35.3 38.45,36.1 37,36.3 36.85,37.4 36.8,39.45 36.5,40 35.65,40.55 h -1 L 33.95,40.4 33.1,39.7 32.9,39.25 V 38.7 l -0.1,-0.85 0.05,-0.8 -0.05,-0.8 v -0.4 l -1.6,0.8 -2.5,0.5 -2.25,-0.1 -1.55,-0.75 -1.65,-1.3 -1.2,-1.75 -1,-1.95 -1.3,-1.65 -0.4,-0.3 -0.5,-0.05 q -0.5,0.1 -0.85,0.3 -0.7,0.4 -1.1,1.65 l -0.65,1.9 q -0.8,1.4 -2.35,1.4 l -1.35,-0.4 Q 11.9,33.7 11.6,33.05 l -0.2,-1.35 0.2,-1.4 0.8,-1.55 q 0.9,-1.4 2.25,-2.4 1.55,-1.1 3.05,-1.25 2.1,-0.15 3.65,1.1 l 0.9,0.85 q 1.65,1.8 2.7,4.05 l 0.7,1.4 0.95,0.9 1,0.55 1.3,0.05 1.7,-0.35 Q 29.65,32 29.8,28.95 30,26 30.65,23.45 l -0.6,-0.65 -0.9,-1 -0.05,-0.1 Q 27.05,20.4 25.95,18.5 M 42.6,12.4 42,12.2 40.85,13.4 q -1.6,1.3 -3,1.85 -0.1,0.9 0.05,1.35 l 0.5,0.9 0.4,0.45 0.65,0.35 0.65,0.25 0.55,0.05 1.8,-0.2 q 1.3,-0.5 1.8,-2.15 l 0.15,-1.4 -0.1,-0.7 -0.2,-0.5 Q 43.55,12.8 42.6,12.4 m 4.2,17.35 0.25,-0.3 0.45,-0.75 0.15,-0.9 -0.15,-0.4 -0.1,-0.15 -0.15,-0.05 -0.45,0.05 -0.95,0.65 -0.4,0.25 -0.15,0.25 -0.35,0.3 -1.35,1.55 -0.2,0.3 -1.4,1.8 v 0.1 l 0.4,-0.15 0.9,-0.45 0.7,-0.25 0.4,-0.2 1.6,-1 0.8,-0.65 m -19,-13.05 0.45,1.05 0.85,1 1.1,0.35 1,0.15 q 1.05,0 2.05,-1.2 l 0.6,-1.15 v -0.3 l 0.15,-0.75 0.05,-0.25 -1.7,-0.65 -1.8,-1.45 -0.6,-0.65 -0.35,0.2 -0.55,0.3 -0.9,0.95 -0.3,0.6 -0.1,0.95 0.05,0.85"
         fill="#000000"
         fill-rule="evenodd"
         stroke="none"
         id="path9" />
      <path
         d="m 42.6,12.4 q 0.95,0.4 1.5,1.25 l 0.2,0.5 0.1,0.7 -0.15,1.4 q -0.5,1.65 -1.8,2.15 L 40.65,18.6 40.1,18.55 39.45,18.3 38.8,17.95 38.4,17.5 37.9,16.6 q -0.15,-0.45 -0.05,-1.35 1.4,-0.55 3,-1.85 l 1.15,-1.2 0.6,0.2 m -14.8,4.3 -0.05,-0.85 0.1,-0.95 0.3,-0.6 0.9,-0.95 0.55,-0.3 0.35,-0.2 0.6,0.65 1.8,1.45 1.7,0.65 -0.05,0.25 -0.15,0.75 v 0.3 l -0.6,1.15 q -1,1.2 -2.05,1.2 l -1,-0.15 -1.1,-0.35 -0.85,-1 -0.45,-1.05"
         fill="#ffffff"
         fill-rule="evenodd"
         stroke="none"
         id="path10" />
    </g>
    <g
       id="shape2"
       transform="translate(2,2.05)">
      <path
         d="M -0.5,-0.4 V -0.55 H 75.1 V -0.4 40.8 H -0.5 Z"
         fill="none"
         stroke="#000000"
         stroke-linecap="round"
         stroke-linejoin="round"
         stroke-width="3"
         id="path11" />
    </g>
  </defs>
</svg>
