<?xml version="1.0" encoding="UTF-8" standalone="no"?>
<svg
   ffdec:objectType="frame"
   height="60.549999"
   width="67.099998"
   version="1.1"
   id="svg8"
   sodipodi:docname="836.svg"
   xmlns:inkscape="http://www.inkscape.org/namespaces/inkscape"
   xmlns:sodipodi="http://sodipodi.sourceforge.net/DTD/sodipodi-0.dtd"
   xmlns:xlink="http://www.w3.org/1999/xlink"
   xmlns="http://www.w3.org/2000/svg"
   xmlns:svg="http://www.w3.org/2000/svg"
   xmlns:ffdec="https://www.free-decompiler.com/flash">
  <sodipodi:namedview
     id="namedview8"
     pagecolor="#ffffff"
     bordercolor="#000000"
     borderopacity="0.25"
     inkscape:showpageshadow="2"
     inkscape:pageopacity="0.0"
     inkscape:pagecheckerboard="0"
     inkscape:deskcolor="#d1d1d1"
     fit-margin-top="5"
     fit-margin-left="5"
     fit-margin-right="5"
     fit-margin-bottom="5" />
  <g
     transform="translate(1.5,1.5)"
     id="g4">
    <use
       ffdec:characterId="516"
       height="57.549999"
       width="64.099998"
       xlink:href="#shape0"
       id="use1" />
    <use
       ffdec:characterId="1321"
       height="60.400002"
       transform="translate(-0.95,-1.25)"
       width="66.199997"
       xlink:href="#shape1"
       id="use2" />
    <use
       ffdec:characterId="1325"
       height="47.150002"
       transform="translate(9.4,5.1)"
       width="41.599998"
       xlink:href="#shape2"
       id="use3" />
    <use
       ffdec:characterId="518"
       height="60.549999"
       transform="translate(-1.5,-1.5)"
       width="67.099998"
       xlink:href="#shape3"
       id="use4" />
  </g>
  <defs
     id="defs8">
    <g
       id="shape0">
      <path
         d="M 53.6,0 H 64.1 V 57.55 H 53.6 28.25 0 V 0 H 28.25 53.6 V 57.55 0 M 28.25,0 V 57.55 0"
         fill="#ffffff"
         fill-rule="evenodd"
         stroke="none"
         id="path4" />
    </g>
    <g
       id="shape1"
       transform="translate(0.95,1.25)">
      <path
         d="m 19.9,-1 q 1.5,0.2 1.55,1 0.05,0.8 -1.85,1.05 l -3.65,0.6 Q 14.2,1.95 10.15,4.1 6.1,6.25 3.9,11.05 q -2.25,4.8 -2.5,9.7 l -0.2,5.45 0.1,0.75 -0.25,0.2 -0.6,-0.1 q -0.8,-0.5 -1.4,-1.35 V 12.35 l 0.45,-1.2 -0.45,-0.5 V 0.8 l 0.3,-0.25 q 0.55,-0.5 1.5,-0.5 l 0.9,0.1 0.75,-0.1 2.4,-0.2 1.55,0.2 q 0.65,0.2 1.1,0.75 v 0.05 q 1.45,-0.9 3.1,-1.4 L 19.9,-1 m 24.5,0 9.25,0.45 q 1.65,0.5 3.1,1.4 V 0.8 q 0.45,-0.55 1.1,-0.75 l 1.55,-0.2 2.4,0.2 0.75,0.1 0.9,-0.1 q 0.95,0 1.5,0.5 l 0.3,0.25 v 9.85 l -0.45,0.5 0.45,1.2 V 25.7 l -1.4,1.35 -0.6,0.1 L 63,26.95 63.1,26.2 62.9,20.75 Q 62.65,15.85 60.4,11.05 58.2,6.25 54.15,4.1 50.1,1.95 48.35,1.65 L 44.7,1.05 Q 42.8,0.8 42.85,0 42.9,-0.8 44.4,-1 m 0,59.9 q -1.5,-0.2 -1.55,-1 -0.05,-0.8 1.85,-1.05 l 3.65,-0.6 q 1.75,-0.3 5.8,-2.45 4.05,-2.15 6.25,-6.95 2.25,-4.8 2.5,-9.7 L 63.1,31.7 63,30.95 q 0,-0.15 0.25,-0.2 l 0.6,0.1 q 0.8,0.5 1.4,1.35 v 13.35 l -0.45,1.2 0.45,0.5 v 9.85 l -0.3,0.25 q -0.55,0.5 -1.5,0.5 l -0.9,-0.1 -0.75,0.1 -2.4,0.2 -1.55,-0.2 q -0.65,-0.2 -1.1,-0.75 v -0.05 q -1.45,0.9 -3.1,1.4 L 44.4,58.9 m -24.5,0 -9.25,-0.45 Q 9,57.95 7.55,57.05 v 0.05 q -0.45,0.55 -1.1,0.75 l -1.55,0.2 -2.4,-0.2 -0.75,-0.1 -0.9,0.1 q -0.95,0 -1.5,-0.5 l -0.3,-0.25 v -9.85 l 0.45,-0.5 -0.45,-1.2 V 32.2 q 0.6,-0.85 1.4,-1.35 l 0.6,-0.1 0.25,0.2 -0.1,0.75 0.2,5.45 q 0.25,4.9 2.5,9.7 2.2,4.8 6.25,6.95 4.05,2.15 5.8,2.45 l 3.65,0.6 q 1.9,0.25 1.85,1.05 -0.05,0.8 -1.55,1"
         fill="#999999"
         fill-rule="evenodd"
         stroke="none"
         id="path5" />
    </g>
    <g
       id="shape2"
       transform="translate(-9.4,-5.1)">
      <path
         d="M 18.1,9.45 Q 17.45,9.05 17.15,8.3 16.8,7.5 17.1,6.8 q 0.3,-0.7 1.1,-1.1 0.75,-0.4 1.6,-0.35 1.35,0.1 3.1,1.3 1.5,0.95 2.3,1.95 1.35,1.55 1.8,3.7 0.5,2 0.1,4 -0.45,1.85 -1.45,3.45 1.85,1.7 4.35,5.05 l 3.3,-2.5 3.3,-2.15 q -0.45,-1 -0.6,-1.9 -0.2,-1.15 0.25,-2 0.2,-0.5 1.05,-1.25 L 37.75,14.6 37.3,13.75 37,13.15 35.85,13.4 34.15,13.2 Q 33.45,12.85 33,12.15 32.55,11.4 32.65,10.6 q 0,-0.5 0.3,-1.1 l 0.5,-0.8 0.4,-0.45 3.3,-2.35 q 1.8,-0.95 2.9,-0.75 1.35,0.2 1.95,1.6 0.5,1.3 -0.45,2.4 L 42,9.65 42.4,10.2 42.7,10 q 0.65,-0.45 1.45,-0.35 0.8,0.1 1.35,0.55 0.6,0.4 1.2,1.45 l 1.9,3.5 1.45,3.9 0.4,1.5 -0.05,0.55 0.25,0.95 0.35,3.35 q -0.15,4.15 -3.25,6.9 L 47,32.75 q -0.6,0.15 -0.8,-0.3 -0.15,-0.25 0,-0.9 1.1,-3.1 0.85,-6.4 L 46.9,23.7 q -1.95,0.9 -2.55,1.3 -1.15,0.85 -1.9,1.05 -1,0.3 -2,-0.35 L 39.95,25.2 35,31.45 40.7,39 q 1.5,-0.75 3.3,-0.45 1.9,0.25 3.15,1.5 0.95,0.9 1.8,2.6 1.9,4.2 0.2,7 -1.15,1.8 -3.85,2.4 -1.8,0.45 -3.65,0 -1.9,-0.5 -3.3,-1.7 Q 36.9,49.15 36.4,47.3 35.8,45.4 36.35,43.75 L 36.6,43 35.65,41.65 33.15,37.8 31.55,35.65 q -4.35,5 -8.4,8.85 L 21,46.25 q -1.35,0.75 -2.95,0.6 -1.65,-0.05 -3,-0.9 -1.35,-0.9 -2.05,-2.35 -0.75,-1.5 -0.5,-3 0.25,-2 2.4,-4.25 l 4.55,-3.75 6.3,-4.7 -2.8,-3.8 -0.8,-1.1 -1.8,0.75 -2.6,0.1 Q 15.6,23.7 14.15,23.05 12.3,22.2 10.95,20.1 8.95,17 9.5,13.45 q 0.2,-1.5 0.95,-2.25 0.55,-0.55 1.2,-0.5 0.55,0.05 0.95,0.6 l 0.4,1.1 0.1,0.65 0.85,2.25 0.7,1.35 1.3,0.95 1.35,0.6 q 1.9,0.5 3.4,-0.8 1.45,-1.35 1.2,-3.25 l -0.85,-2.2 q -0.7,-1.3 -1.6,-1.9 l -0.2,-0.1 -1.15,-0.5 m 26.55,33.85 -1.5,-0.4 -1.1,0.15 Q 41.4,43.3 40.9,44 l -0.4,0.8 -0.1,0.55 0.1,1.3 q 0.15,0.7 0.6,1.1 v 0.1 q 0.7,0.7 1.6,0.85 l 0.55,0.05 0.75,-0.1 q 1.55,-0.15 1.95,-1.7 l 0.05,-1 q 0,-1.2 -0.6,-1.9 L 44.65,43.3"
         fill="#000000"
         fill-rule="evenodd"
         stroke="none"
         id="path6" />
      <path
         d="m 44.65,43.3 0.75,0.75 q 0.6,0.7 0.6,1.9 l -0.05,1 q -0.4,1.55 -1.95,1.7 l -0.75,0.1 -0.55,-0.05 q -0.9,-0.15 -1.6,-0.85 v -0.1 q -0.45,-0.4 -0.6,-1.1 l -0.1,-1.3 0.1,-0.55 0.4,-0.8 q 0.5,-0.7 1.15,-0.95 l 1.1,-0.15 1.5,0.4"
         fill="#ffffff"
         fill-rule="evenodd"
         stroke="none"
         id="path7" />
    </g>
    <g
       id="shape3"
       transform="translate(1.5,1.5)">
      <path
         d="M 0,23.8 V 0 H 64.1 V 23.8 57.55 H 0 Z"
         fill="none"
         stroke="#000000"
         stroke-linecap="round"
         stroke-linejoin="round"
         stroke-width="3"
         id="path8" />
    </g>
  </defs>
</svg>
