<?xml version="1.0" encoding="UTF-8" standalone="no"?>
<svg
   ffdec:objectType="frame"
   height="60.549999"
   width="67.099998"
   version="1.1"
   id="svg8"
   sodipodi:docname="775.svg"
   xmlns:inkscape="http://www.inkscape.org/namespaces/inkscape"
   xmlns:sodipodi="http://sodipodi.sourceforge.net/DTD/sodipodi-0.dtd"
   xmlns:xlink="http://www.w3.org/1999/xlink"
   xmlns="http://www.w3.org/2000/svg"
   xmlns:svg="http://www.w3.org/2000/svg"
   xmlns:ffdec="https://www.free-decompiler.com/flash">
  <sodipodi:namedview
     id="namedview8"
     pagecolor="#ffffff"
     bordercolor="#000000"
     borderopacity="0.25"
     inkscape:showpageshadow="2"
     inkscape:pageopacity="0.0"
     inkscape:pagecheckerboard="0"
     inkscape:deskcolor="#d1d1d1"
     fit-margin-top="5"
     fit-margin-left="5"
     fit-margin-right="5"
     fit-margin-bottom="5" />
  <g
     transform="translate(1.5,1.5)"
     id="g3">
    <use
       ffdec:characterId="516"
       height="57.549999"
       width="64.099998"
       xlink:href="#shape0"
       id="use1" />
    <use
       ffdec:characterId="1263"
       height="51.950001"
       transform="translate(9.35,1.2)"
       width="51.400002"
       xlink:href="#shape1"
       id="use2" />
    <use
       ffdec:characterId="518"
       height="60.549999"
       transform="translate(-1.5,-1.5)"
       width="67.099998"
       xlink:href="#shape2"
       id="use3" />
  </g>
  <defs
     id="defs8">
    <g
       id="shape0">
      <path
         d="M 53.6,0 H 64.1 V 57.55 H 53.6 28.25 0 V 0 H 28.25 53.6 V 57.55 0 M 28.25,0 V 57.55 0"
         fill="#ffffff"
         fill-rule="evenodd"
         stroke="none"
         id="path3" />
    </g>
    <g
       id="shape1"
       transform="translate(-9.35,-1.2)">
      <path
         d="m 17.95,25.3 q -1.3,-1.85 -1.55,-3.8 l -1.35,0.35 q -1.85,0.25 -3.45,-0.9 -1.5,-1.05 -2.05,-2.9 -0.8,-2.95 1.35,-5.9 0.6,-0.8 1.5,-1.5 2.3,-1.8 5.2,-1.75 1.7,0 2.75,0.85 L 20.4,9.8 20.75,9.45 q 1.75,-1.65 3,-2.3 2,-1.05 5.35,-1.3 2.65,-0.3 4.55,0.05 l 0.1,-0.45 Q 34.65,2.6 37.55,1.6 L 39.5,1.25 Q 42.1,1.05 43.55,2 l 1.55,1.6 q 1.1,1.5 1.4,2.35 0.55,1.45 0.35,2.75 -0.3,1.75 -2.1,3.15 l -1.9,1.05 0.85,2.55 q 0.6,2.7 0.1,5.6 l -1.05,3.35 q -1.15,2.3 -3.35,3.8 1.7,1.45 3.05,3.55 l 1.65,3.5 0.05,-0.15 q 0.4,-0.95 1.15,-1.95 1.75,-2.35 4.35,-2.7 2.95,-0.4 4.75,1.6 0.9,1.05 1.1,2.4 0.2,1.35 -0.45,2.5 l -0.6,1.4 0.35,0.7 0.75,0.35 Q 56.3,39.55 57.1,39 l 0.65,-0.95 -0.2,-0.85 Q 57.35,36.65 57.5,36.35 L 58,36 l 0.65,0.05 q 0.55,0.4 0.7,1.1 0.2,1.05 -0.25,2.1 -0.5,1 -1.4,1.6 -1,0.65 -2.2,0.7 Q 54.25,41.6 53.3,41 52.3,40.4 51.85,39.2 51.4,38.05 51.8,36.95 l 0.55,-1.25 q 0.2,-0.85 -0.2,-1.3 -0.35,-0.35 -1,-0.35 -1.45,0.05 -2.6,1.9 -0.7,1.2 -1.85,5.05 -0.95,3.15 -2.25,4.6 -1.2,2.8 -4.5,4.55 -2.75,1.4 -7.35,1.85 -4.8,0.4 -9.35,-0.2 -2.5,-0.25 -4.1,-1 -1.75,-0.75 -3.05,-2.25 -1.25,-1.5 -1.8,-3.35 -1.1,-4.05 1.65,-9.3 L 18.45,31.75 20.7,28 Q 19.05,26.85 17.95,25.3 M 23.3,22.85 24,22.5 25.2,21.3 q 0.35,-0.65 0.35,-2.1 V 18.75 H 24.8 q -1.65,-0.1 -2.6,-0.8 -0.7,-0.55 -1,-1.45 l -0.1,-0.4 -0.15,0.05 q -1.2,0.45 -2.1,1.65 l -0.25,0.5 -0.15,0.65 q -0.1,1.2 0.05,1.75 0.15,0.6 0.85,1.35 l 0.75,0.6 2.55,0.3 0.65,-0.1 m 6,-2.2 -0.2,0.45 -0.45,0.2 -1.45,0.4 -0.5,0.2 q -0.4,0.45 0.15,1 0.4,0.4 1.05,0.5 l 1.15,-0.1 1.15,-0.4 1.05,-1.2 0.05,-0.15 q 1.4,0.55 2.85,-0.3 0.8,-0.55 1.1,-1.35 L 35.3,19.35 34.95,19 34.45,19.05 34,19.6 q -0.35,0.35 -1.15,0.35 L 32.3,19.9 31.85,19.6 31.6,19.5 V 19.45 L 31.1,18.5 30.8,18.1 30.2,18.05 q -0.35,0.2 -0.5,0.45 -0.45,0.7 0,1.65 l -0.4,0.5 M 35.2,10.95 35,11 q 0.05,1.6 -0.75,3.1 l -1.4,1.8 0.3,0.45 0.65,0.75 q 1.25,1 2.9,0.75 1.55,-0.3 2.65,-1.5 L 40,15.2 40.05,14.45 q 0,-1.3 -0.35,-1.85 l -1.1,-1.15 -0.75,-0.4 -0.95,-0.2 -1.7,0.1 m -5.8,19.6 -3.65,-0.45 -0.25,0.3 q 0.95,0.55 1.05,1.7 0.35,-0.35 1.15,-0.45 l 1.25,-0.25 1,-0.8 -0.55,-0.05"
         fill="#999999"
         fill-rule="evenodd"
         stroke="none"
         id="path4" />
      <path
         d="m 35.2,10.95 1.7,-0.1 0.95,0.2 0.75,0.4 1.1,1.15 q 0.35,0.55 0.35,1.85 L 40,15.2 39.35,16.35 q -1.1,1.2 -2.65,1.5 -1.65,0.25 -2.9,-0.75 l -0.65,-0.75 -0.3,-0.45 1.4,-1.8 Q 35.05,12.6 35,11 l 0.2,-0.05 m -5.9,9.7 0.4,-0.5 q -0.45,-0.95 0,-1.65 0.15,-0.25 0.5,-0.45 l 0.6,0.05 0.3,0.4 0.5,0.95 v 0.05 l 0.25,0.1 0.45,0.3 0.55,0.05 q 0.8,0 1.15,-0.35 l 0.45,-0.55 0.5,-0.05 0.35,0.35 -0.05,0.55 q -0.3,0.8 -1.1,1.35 -1.45,0.85 -2.85,0.3 l -0.05,0.15 -1.05,1.2 -1.15,0.4 -1.15,0.1 q -0.65,-0.1 -1.05,-0.5 -0.55,-0.55 -0.15,-1 l 0.5,-0.2 1.45,-0.4 0.45,-0.2 0.2,-0.45 m -6,2.2 -0.65,0.1 -2.55,-0.3 -0.75,-0.6 Q 18.65,21.3 18.5,20.7 18.35,20.15 18.45,18.95 l 0.15,-0.65 0.25,-0.5 q 0.9,-1.2 2.1,-1.65 l 0.15,-0.05 0.1,0.4 q 0.3,0.9 1,1.45 0.95,0.7 2.6,0.8 h 0.75 v 0.45 q 0,1.45 -0.35,2.1 l -1.2,1.2 -0.7,0.35"
         fill="#ffffff"
         fill-rule="evenodd"
         stroke="none"
         id="path5" />
      <path
         d="m 57.95,16.05 1.55,0.05 q 0.95,0.15 1.2,0.9 0.25,0.8 -0.7,2.1 l -2.3,3.15 q -1.4,2 -1.95,3.1 l -1.1,1.85 q -0.9,0.95 -1.9,0.75 -0.7,-0.2 -1.55,-1.5 l -5.25,-8.5 -0.6,-0.8 q -0.2,-0.45 0.1,-0.95 0.25,-0.45 0.75,-0.65 l 2,-0.1 1.6,0.2 V 14.7 l -0.05,-1.75 q -0.1,-1 1,-1.45 l 1.25,-0.2 3.25,-0.05 1.2,0.1 q 0.7,0.25 1,0.85 0.3,0.55 0.1,1.3 l -0.2,0.55 -0.15,1.2 -0.05,0.85 0.8,-0.05 m -7.9,-7.7 Q 50.3,8.1 51.2,8 l 3.45,-0.4 1.15,-0.2 1.1,0.15 q 0.75,0.3 1,1.1 0.25,0.8 -0.3,1.45 -0.45,0.55 -1.4,0.75 L 54.55,10.75 51.8,10.3 Q 50.75,10.2 50.3,9.8 49.95,9.55 49.9,9.1 49.8,8.65 50.05,8.35 m -27.55,25.1 -1.6,-0.7 q -1.5,-0.85 -1.7,-2.35 -0.15,-0.95 0.65,-2.7 0.65,-1.35 1,-1.75 0.65,-0.9 1.6,-1.25 l 1.65,-0.2 2.15,0.3 q 0.85,0.35 1.5,1.15 0.55,0.7 0.65,1.65 l 3.4,-0.35 1.65,0.2 q 0.35,-0.55 0.85,-1 1.5,-1.15 3.2,-0.95 1.65,0.15 2.9,1.5 l 0.75,1.25 q 0.4,1.2 -0.2,2.6 -0.5,1.25 -1.55,2.15 l -1.45,1 -0.05,0.95 q -0.15,1.95 -1.2,3.55 l -0.8,1.05 0.45,0.8 q 1.15,2.25 1.1,5 l 2.2,0.3 q 0.8,0.2 1.4,0.75 l 0.65,0.8 0.45,0.85 q 0.15,0.5 -0.1,1.2 l -0.45,1.2 q 1.05,0.35 3.15,-0.5 l 0.95,-0.5 0.5,-0.4 0.65,-0.05 q 0.3,0.2 0.2,0.55 L 46.8,50.1 45,51.45 43.65,52.1 40.9,52.2 q -1.1,-0.25 -1.5,-1 -0.4,-0.65 0.05,-2.3 L 37,48.85 36.85,48.95 Q 36.25,50.4 35.1,51.4 33,53.15 28.6,53.15 L 26.65,52.9 25.05,52.15 23.45,51.4 Q 22.9,50.9 22.3,49.8 l -0.65,-1.6 v -1.4 q 0.4,-3.9 2.7,-6.45 l -0.95,-1.1 q -1.1,-1.4 -1.3,-2.35 v -1.65 l 0.4,-1.8 q 0.05,0.75 0.6,1.45 0.75,0.85 1.85,0.85 1,0.05 1.75,-0.7 0.8,-0.7 0.85,-1.7 0.05,-1 -0.65,-1.75 -0.7,-0.8 -1.65,-0.9 -1,-0.05 -1.8,0.6 -0.85,0.7 -0.95,1.65 v 0.5 m 5.75,3.45 q -0.3,0.3 -0.25,0.5 l 0.4,0.25 0.45,-0.2 1.3,-0.7 0.25,-0.2 0.3,0.25 0.3,0.2 0.4,0.35 q 0.4,0.4 0.75,0.25 L 32.2,37.4 V 37.1 L 32,36.8 V 36.15 L 31.55,35.6 31.35,35.3 31.2,35.15 V 35.1 l -0.25,-1.1 -0.1,-0.3 -0.3,-0.15 q -0.25,0 -0.35,0.2 l -0.1,0.3 -0.2,0.95 v 0.1 l -0.2,0.05 -0.75,0.85 -0.7,0.9 m 8.95,-5.5 q -0.25,-0.75 -0.9,-1.2 -0.65,-0.5 -1.45,-0.5 -0.75,0.05 -1.4,0.5 -0.7,0.5 -0.9,1.2 -0.25,0.7 -0.05,1.5 0.25,0.75 0.85,1.25 0.6,0.45 1.4,0.5 l 1.45,-0.4 q 0.7,-0.45 1,-1.25 0.25,-0.85 0,-1.6"
         fill="#000000"
         fill-rule="evenodd"
         stroke="none"
         id="path6" />
      <path
         d="m 22.5,33.45 v -0.5 q 0.1,-0.95 0.95,-1.65 0.8,-0.65 1.8,-0.6 0.95,0.1 1.65,0.9 0.7,0.75 0.65,1.75 -0.05,1 -0.85,1.7 -0.75,0.75 -1.75,0.7 -1.1,0 -1.85,-0.85 -0.55,-0.7 -0.6,-1.45 M 37.2,31.4 q 0.25,0.75 0,1.6 -0.3,0.8 -1,1.25 l -1.45,0.4 q -0.8,-0.05 -1.4,-0.5 -0.6,-0.5 -0.85,-1.25 -0.2,-0.8 0.05,-1.5 0.2,-0.7 0.9,-1.2 0.65,-0.45 1.4,-0.5 0.8,0 1.45,0.5 0.65,0.45 0.9,1.2 m -8.95,5.5 0.7,-0.9 0.75,-0.85 0.2,-0.05 V 35 l 0.2,-0.95 0.1,-0.3 q 0.1,-0.2 0.35,-0.2 l 0.3,0.15 0.1,0.3 0.25,1.1 v 0.05 l 0.15,0.15 0.2,0.3 0.45,0.55 v 0.65 l 0.2,0.3 v 0.3 l -0.05,0.2 Q 31.8,37.75 31.4,37.35 L 31,37 l -0.3,-0.2 -0.3,-0.25 -0.25,0.2 -1.3,0.7 -0.45,0.2 L 28,37.4 q -0.05,-0.2 0.25,-0.5"
         fill="#ffffff"
         fill-rule="evenodd"
         stroke="none"
         id="path7" />
    </g>
    <g
       id="shape2"
       transform="translate(1.5,1.5)">
      <path
         d="M 0,23.8 V 0 H 64.1 V 23.8 57.55 H 0 Z"
         fill="none"
         stroke="#000000"
         stroke-linecap="round"
         stroke-linejoin="round"
         stroke-width="3"
         id="path8" />
    </g>
  </defs>
</svg>
