<?xml version="1.0" encoding="UTF-8" standalone="no"?>
<svg
   ffdec:objectType="frame"
   height="60.549999"
   width="68.788239"
   version="1.1"
   id="svg9"
   sodipodi:docname="247.svg"
   xmlns:inkscape="http://www.inkscape.org/namespaces/inkscape"
   xmlns:sodipodi="http://sodipodi.sourceforge.net/DTD/sodipodi-0.dtd"
   xmlns:xlink="http://www.w3.org/1999/xlink"
   xmlns="http://www.w3.org/2000/svg"
   xmlns:svg="http://www.w3.org/2000/svg"
   xmlns:ffdec="https://www.free-decompiler.com/flash">
  <sodipodi:namedview
     id="namedview9"
     pagecolor="#ffffff"
     bordercolor="#000000"
     borderopacity="0.25"
     inkscape:showpageshadow="2"
     inkscape:pageopacity="0.0"
     inkscape:pagecheckerboard="0"
     inkscape:deskcolor="#d1d1d1"
     fit-margin-top="5"
     fit-margin-left="5"
     fit-margin-right="5"
     fit-margin-bottom="5" />
  <g
     transform="translate(3.1882353,1.5)"
     id="g3">
    <use
       ffdec:characterId="516"
       height="57.549999"
       width="64.099998"
       xlink:href="#shape0"
       id="use1" />
    <use
       ffdec:characterId="752"
       height="46.5"
       transform="translate(-3.2,0.65)"
       width="67"
       xlink:href="#shape1"
       id="use2" />
    <use
       ffdec:characterId="518"
       height="60.549999"
       transform="translate(-1.5,-1.5)"
       width="67.099998"
       xlink:href="#shape2"
       id="use3" />
  </g>
  <defs
     id="defs9">
    <g
       id="shape0">
      <path
         d="M 53.6,0 H 64.1 V 57.55 H 53.6 28.25 0 V 0 H 28.25 53.6 V 57.55 0 M 28.25,0 V 57.55 0"
         fill="#ffffff"
         fill-rule="evenodd"
         stroke="none"
         id="path3" />
    </g>
    <g
       id="shape1"
       transform="translate(3.2,-0.65)">
      <path
         d="m 31.55,44.6 -0.8,0.2 -0.45,-0.2 -0.4,-0.35 -2.9,-2.7 -0.55,-0.5 v 0.45 l -0.2,0.55 v 0.45 l -0.2,2.1 -0.05,0.3 -0.5,1.15 -0.45,-0.1 -0.2,-0.4 -0.1,-0.55 0.05,-0.4 0.2,-2.75 0.15,-1 V 40.2 L 25.2,40.1 24.9,39.15 24.55,38.05 23.05,34 22.65,32.75 22.2,33 q -2.75,1 -4,1.75 L 17,35.35 15.75,35.2 Q 15.4,34.9 15.2,33.95 l -0.8,-1.8 -2.8,-5.3 -2.2,-4.55 -2,2.4 -2.5,2.65 -2.95,3.95 -1.5,2 -1.6,1.8 Q -1.7,35.65 -2,35.3 L -2.05,34.8 -1.4,33.3 0.5,30.1 1.7,28.3 0.5,29.45 -2.4,32 -3,32.15 q -0.4,-0.25 0.05,-0.8 L 0.5,26.3 q 4.25,-5.8 9.4,-10.7 1.5,-1.45 6.35,-5.75 0.85,-0.65 1.3,-0.6 0.7,0.1 1.25,1.4 0.8,2.05 2.55,5.1 l 2.8,4.95 1.8,-1.85 6.45,-5.8 q 0.5,-0.4 0.8,-0.4 0.35,0 0.9,0.55 l 3.45,2.6 0.9,0.55 V 16.3 l 3.9,-5.4 1,-1.5 0.6,-0.6 L 44.6,8.65 46.55,8.6 47.1,8.65 V 8.6 L 48.55,4.85 48.85,4.2 49.45,3.75 49.9,3.7 50.8,3.4 52.5,2.6 52.75,2.55 53,2.7 52.75,3 51.1,3.9 50.25,4.55 50.05,4.95 48.75,8.7 48.7,8.85 h 1.1 L 51.15,8.7 52.4,9 q 0.35,0.25 0.2,0.5 -0.05,0.2 -0.4,0.2 L 50.75,9.85 48,10 l -2.75,0.15 -0.6,0.15 -0.3,0.3 -1.55,2.5 -2.55,4.4 0.9,0.7 q 0.6,0.5 0.7,0.95 l -0.15,0.9 q -0.3,0.4 -0.8,0.4 L 40,20.1 l -0.8,-0.75 -0.7,-0.7 -0.2,-0.1 -0.35,-0.35 -1.6,-1.2 -2.9,-2.2 -0.35,-0.2 -0.35,0.2 -6.25,5.3 -1.9,1.6 1.8,4.4 q 2.3,4.1 3.7,6 l 0.4,0.35 0.65,-0.1 Q 34.2,31 39.45,29.4 L 41,29.15 q 0.6,0.1 1.6,0.8 l 4.05,3 0.65,0.65 q 0.35,0.45 0.05,0.85 -0.25,0.5 -0.9,0.3 -0.35,-0.05 -0.9,-0.5 L 41.35,31.1 Q 41,30.75 40.6,30.7 l -1.1,0.15 -6.7,2.55 q -1.2,0.55 -1.55,0.85 l -0.6,0.6 q -0.4,0.35 -0.8,0.4 -0.75,0.05 -1.5,-0.9 -1.5,-1.8 -2.9,-5.1 H 25.4 Q 24.75,29.05 24.35,28 L 22.2,22.35 19.6,17.15 Q 18,14.2 17.3,12.4 l -0.7,1 q -3.05,3.45 -6.2,7.5 l 1.45,2.5 5.1,8.95 4.05,-1.3 1.2,-0.45 q 0.75,-0.1 1.15,0.45 l 0.15,0.7 0.05,0.1 2.75,6.2 0.4,0.75 0.65,0.45 1.9,1.65 1.9,1.8 0.75,1.1 -0.35,0.8"
         fill="#ffffff"
         fill-rule="evenodd"
         stroke="none"
         id="path4" />
      <path
         d="m 0.5,26.3 v -0.15 -0.1 -0.15 -0.1 -0.15 -0.1 -0.05 -0.1 -0.15 -0.1 -0.15 -0.1 -0.3 -0.1 -0.1 -0.1 -0.15 -0.1 -0.1 -0.1 -0.1 -0.1 -0.15 -0.1 -0.3 -0.1 -0.15 -0.1 -0.15 -0.1 -0.3 -0.1 -0.15 -0.1 -0.1 -0.1 -0.1 -0.1 V 21.3 21.2 21.1 21 20.7 20.6 20.45 20.35 20.2 20.1 20.05 l 0.05,-0.1 v -0.15 -0.1 -0.15 -0.1 -0.1 -0.1 -0.1 -0.1 -0.15 -0.1 -0.1 -0.1 -0.35 -0.1 -0.1 -0.1 -0.15 -0.1 -0.1 -0.1 -0.1 -0.1 -0.15 -0.1 -0.3 -0.1 -0.15 -0.1 -0.1 -0.1 -0.1 -0.1 -0.15 -0.1 -0.1 -0.1 -0.15 -0.1 -0.1 -0.1 -0.1 -0.1 -0.15 -0.1 -0.3 -0.1 -0.15 -0.1 -0.1 -0.1 -0.1 -0.1 -0.15 -0.1 -0.1 -0.1 -0.35 -0.1 -0.1 -0.1 -0.15 -0.1 -0.1 -0.1 -0.1 -0.1 -0.15 -0.1 -0.1 L 0.6,11.45 V 11.35 11.3 11.2 11.05 10.95 10.8 10.7 10.4 10.3 10.2 10.1 9.95 9.85 9.75 9.65 9.55 9.45 9.3 9.2 8.9 8.8 8.7 L 0.65,8.65 V 8.55 8.4 8.3 8 7.9 7.75 7.65 7.55 7.45 7.35 7.25 7.1 7 6.9 6.8 6.5 6.4 6.25 6.15 6 5.9 5.85 5.75 5.6 5.5 5.35 5.25 5.15 5.05 4.95 4.85 4.7 4.6 4.5 4.4 4.3 4.2 4.05 3.95 3.85 3.75 3.6 3.5 3.4 3.3 3.2 L 0.7,3.1 V 2.95 2.85 2.6 L 0.75,2.55 V 2.45 2.35 L 0.8,2.3 V 2.2 L 0.85,2.15 V 2.1 2 1.9 1.8 1.65 1.55 L 0.9,1.5 V 1.45 L 0.95,1.35 V 1.3 L 1,1.25 1.05,1.2 1.1,1.15 1.2,1.05 1.3,1 1.4,0.9 1.5,0.85 1.6,0.8 H 1.65 L 1.7,0.75 H 1.8 2 V 0.7 H 2.25 L 2.5,0.75 h 0.8 0.25 1.95 19.75 7.1 1.25 5.35 L 40.7,0.8 h 1.35 L 44,0.85 h 0.75 1.15 l 2.5,0.05 h 4.3 2.6 2.3 l 2.1,0.05 h 0.25 0.95 0.7 L 61.9,1 61.95,0.95 62,0.9 62.1,0.85 62.2,0.75 62.3,0.7 h 0.05 0.1 0.2 V 0.65 L 62.9,0.7 h 0.15 l 0.15,0.1 0.05,0.05 0.1,0.05 0.1,0.1 0.1,0.1 0.05,0.05 0.05,0.05 V 1.25 L 63.7,1.3 v 0.05 l 0.05,0.1 V 1.55 1.65 1.8 1.9 2 2.1 2.2 2.3 2.45 L 63.7,2.55 63.75,2.6 V 2.75 L 63.7,2.8 v 0.05 0.1 0.15 0.1 l 0.05,0.05 V 3.3 3.4 3.5 3.6 3.65 L 63.7,3.7 v 0.05 0.1 0.1 l 0.05,0.1 v 0.15 0.1 0.1 0.1 0.1 0.1 0.15 0.1 0.1 0.1 0.1 0.1 V 5.5 5.6 5.75 5.85 5.9 6 6.15 6.25 6.4 6.5 6.8 6.9 7 v 0.1 0.15 0.1 0.1 0.1 0.1 0.1 V 7.9 8 8.3 8.4 8.55 l 0.05,0.1 v 0.15 0.1 0.3 0.1 0.15 0.1 0.1 0.1 0.1 0.1 0.15 0.1 0.1 0.1 0.3 0.1 0.15 0.1 0.15 0.1 0.05 0.1 0.15 0.1 0.15 0.1 0.1 0.1 0.1 0.1 0.15 0.1 0.1 0.1 0.05 l -0.05,0.05 v 0.25 0.1 0.05 l 0.05,0.05 v 0.1 0.1 l -0.05,0.05 v 0.1 0.1 0.1 0.1 0.1 0.15 0.1 0.3 0.1 0.15 0.1 0.1 0.1 0.1 0.1 0.15 0.1 0.1 0.1 0.15 0.1 0.1 0.1 0.1 0.1 0.15 0.1 0.3 0.1 0.15 0.1 0.1 0.1 0.1 0.1 0.15 0.1 0.1 0.1 0.35 0.1 0.1 0.1 0.15 0.1 0.1 0.1 0.1 0.1 0.15 0.1 0.15 0.1 0.05 0.1 0.15 0.1 0.15 0.1 0.3 0.1 0.1 0.1 0.15 0.1 0.1 0.1 0.1 0.1 0.15 0.1 0.3 0.1 0.15 0.1 0.15 0.1 0.3 0.1 0.15 0.1 0.1 0.1 0.1 0.1 0.15 0.1 0.1 0.1 0.3 0.1 0.15 0.1 0.15 0.1 0.05 0.1 0.15 0.1 0.15 0.1 0.1 0.1 0.1 0.1 0.15 0.1 0.1 0.1 0.1 0.1 0.15 0.1 0.1 0.1 0.15 0.1 0.05 0.1 0.15 0.1 0.15 0.1 0.3 0.1 0.15 0.1 0.1 0.1 0.1 0.1 0.15 0.1 0.1 0.1 0.35 0.1 0.1 0.1 0.15 0.1 0.1 0.1 0.1 0.1 0.15 0.1 0.1 0.1 0.1 0.1 0.15 0.1 0.1 0.1 0.35 0.1 0.1 0.1 0.15 0.1 0.1 0.1 0.1 0.1 0.15 0.1 0.3 0.1 0.15 0.1 0.15 0.1 0.3 0.1 0.1 0.1 0.15 0.1 0.1 0.1 0.1 0.1 0.15 0.1 0.3 0.1 0.15 0.1 0.15 0.1 0.05 0.1 0.15 0.1 0.15 0.1 0.1 0.1 0.1 0.1 0.1 0.1 0.15 0.1 0.3 0.1 0.15 0.1 0.15 0.1 0.05 0.1 0.15 0.1 0.15 l -0.05,0.1 v 0.3 0.1 0.15 0.1 0.1 0.1 0.1 0.1 0.15 0.1 0.1 0.1 0.15 0.1 l -0.05,0.05 v 0.1 0.15 0.1 0.15 0.1 0.2 L 63.6,43 v 0.05 0.1 0.1 l -0.05,0.05 v 0.05 l 0.05,0.05 v 0.05 l 0.05,0.1 v 0.25 l -0.05,0.05 v 0.1 0.05 l -0.05,0.05 -0.05,0.05 v 0.1 l -0.05,0.05 -0.05,0.05 -0.05,0.1 -0.1,0.05 -0.1,0.05 -0.1,0.1 -0.1,0.05 -0.15,0.05 H 62.75 L 62.5,44.75 H 62 L 61.8,44.7 h -0.25 -0.1 -0.2 -0.15 -1.15 l -0.4,0.05 H 59.4 57.6 55.75 L 54.8,44.7 h -1.25 l -0.2,-0.05 H 53.1 52.35 52.1 l -1,-0.05 h -0.55 -0.3 -4.2 -3.7 -1.4 -4.9 -4.4 -0.1 l 0.35,-0.8 -0.75,-1.1 -1.9,-1.8 -1.9,-1.65 -0.65,-0.45 -0.4,-0.75 -2.75,-6.2 -0.05,-0.1 -0.15,-0.7 Q 22.95,30.5 22.2,30.6 l -1.2,0.45 -4.05,1.3 -5.1,-8.95 -1.45,-2.5 q 3.15,-4.05 6.2,-7.5 l 0.7,-1 q 0.7,1.8 2.3,4.75 l 2.6,5.2 2.15,5.65 q 0.4,1.05 1.05,1.25 h 0.05 q 1.4,3.3 2.9,5.1 0.75,0.95 1.5,0.9 0.4,-0.05 0.8,-0.4 l 0.6,-0.6 q 0.35,-0.3 1.55,-0.85 l 6.7,-2.55 1.1,-0.15 q 0.4,0.05 0.75,0.4 l 4.2,3.15 q 0.55,0.45 0.9,0.5 0.65,0.2 0.9,-0.3 0.3,-0.4 -0.05,-0.85 l -0.65,-0.65 -4.05,-3 q -1,-0.7 -1.6,-0.8 l -1.55,0.25 q -5.25,1.6 -8.3,2.95 l -0.65,0.1 -0.4,-0.35 q -1.4,-1.9 -3.7,-6 l -1.8,-4.4 1.9,-1.6 6.25,-5.3 0.35,-0.2 0.35,0.2 2.9,2.2 1.6,1.2 0.35,0.35 0.2,0.1 0.7,0.7 0.8,0.75 0.9,0.35 q 0.5,0 0.8,-0.4 l 0.15,-0.9 q -0.1,-0.45 -0.7,-0.95 l -0.9,-0.7 2.55,-4.4 1.55,-2.5 0.3,-0.3 0.6,-0.15 L 48,10 50.75,9.85 52.2,9.7 q 0.35,0 0.4,-0.2 Q 52.75,9.25 52.4,9 L 51.15,8.7 49.8,8.85 H 48.7 L 48.75,8.7 50.05,4.95 50.25,4.55 51.1,3.9 52.75,3 53,2.7 52.75,2.55 52.5,2.6 50.8,3.4 49.9,3.7 49.45,3.75 48.85,4.2 48.55,4.85 47.1,8.6 V 8.65 L 46.55,8.6 44.6,8.65 43.95,8.8 l -0.6,0.6 -1,1.5 -3.9,5.4 v 0.05 L 37.55,15.8 34.1,13.2 q -0.55,-0.55 -0.9,-0.55 -0.3,0 -0.8,0.4 l -6.45,5.8 -1.8,1.85 -2.8,-4.95 Q 19.6,12.7 18.8,10.65 18.25,9.35 17.55,9.25 17.1,9.2 16.25,9.85 11.4,14.15 9.9,15.6 4.75,20.5 0.5,26.3 m 29.8,18.3 h -4.05 -0.2 l 0.2,-2.1 v -0.45 l 0.2,-0.55 v -0.45 l 0.55,0.5 2.9,2.7 0.4,0.35 m -5.5,0 H 20.45 19.95 16.5 15.95 15.1 L 13.4,44.55 H 10.35 7.55 4.8 L 3.8,44.5 H 3.35 2.95 L 2.65,44.45 H 2.45 2.25 2.1 L 1.95,44.4 H 1.85 1.7 L 1.6,44.35 H 1.5 1.4 1.25 1.05 L 0.85,44.3 0.7,44.25 0.65,44.2 0.6,44.1 0.55,44.05 0.5,44 V 43.95 43.85 43.8 L 0.45,43.75 0.5,43.7 v -0.1 l 0.05,-0.05 v -0.1 L 0.65,43.4 0.75,43.35 0.7,43.3 V 43.25 L 0.65,43.2 0.6,43.15 0.55,43.05 V 43 L 0.5,42.95 0.45,42.9 V 42.8 L 0.4,42.75 v -0.1 -0.15 -0.1 -0.15 -0.1 -0.05 -0.1 -0.15 -0.1 -0.1 -0.1 -0.15 -0.1 -0.1 -0.1 -0.1 -0.1 -0.15 -0.1 -0.3 -0.1 -0.15 -0.1 -0.15 -0.1 -0.05 -0.1 -0.15 -0.1 -0.15 -0.1 -0.3 -0.1 -0.15 -0.1 -0.1 -0.1 -0.1 -0.1 -0.1 -0.1 -0.15 -0.1 -0.15 -0.1 -0.05 -0.1 -0.15 -0.1 -0.15 -0.1 -0.3 -0.1 -0.15 l 0.05,-0.1 v -0.1 -0.1 -0.1 -0.1 -0.15 -0.1 -0.1 -0.1 -0.3 -0.1 -0.15 -0.1 -0.15 -0.1 -0.3 -0.1 -0.15 -0.1 -0.1 -0.1 -0.1 -0.05 l 1.5,-2 2.95,-3.95 2.5,-2.65 2,-2.4 2.2,4.55 2.8,5.3 0.8,1.8 q 0.2,0.95 0.55,1.25 l 1.25,0.15 1.2,-0.6 Q 19.45,34 22.2,33 l 0.45,-0.25 0.4,1.25 1.5,4.05 0.35,1.1 0.3,0.95 -0.05,0.1 v 0.65 l -0.15,1 -0.2,2.75 M 0.5,30.1 v -0.05 -0.1 -0.1 -0.1 -0.15 -0.1 -0.05 L 1.7,28.3 0.5,30.1"
         fill="#999999"
         fill-rule="evenodd"
         stroke="none"
         id="path5" />
      <path
         d="M 40.35,17.95 42,16.8 l 1.15,-0.4 2.75,0.05 q 1.5,0.35 2,0.7 l 0.5,0.35 2.15,-0.55 V 16.4 q 0.2,-1.2 1.05,-2.05 0.95,-0.95 2.1,-1 l 1.45,0.05 q 0.8,0.1 1.45,0.45 1.05,0.6 1.85,2.15 L 59,17.15 59.1,18.1 V 20 l -0.4,1.1 q 1.15,2.4 1.05,4.8 0,2.6 -1.45,4.7 -1.3,1.85 -3.65,2.8 L 54,33.65 q 2,3.95 0.75,8.4 -0.9,2.9 -2.8,4.05 -2.1,1.35 -6.15,0.8 L 42.2,46.1 41.95,46 q -3,0.65 -5.35,-0.1 l -1.7,-0.6 q -0.65,0 -1.75,0.35 L 30.5,46.5 27.1,47.15 Q 25,46.9 24.35,45.35 24,44.8 24.4,44.4 q 0.4,-0.15 0.75,0 0.2,0.05 0.6,0.35 l 2.65,-0.1 1.2,-0.75 1.2,-0.85 q 2.95,-1.95 5.85,-1.5 l 2.2,0.5 -0.05,-1.15 0.05,-0.8 q 0.05,-0.7 0.25,-1.25 l 0.65,-1.25 0.6,-0.8 0.2,0.25 0.75,1 0.3,0.25 q 0.45,0.2 0.65,-0.25 0.2,-0.25 0,-0.75 L 41.75,36.75 41.6,36.4 41.25,35.8 Q 43.2,33.85 45,32.7 l 0.5,-0.3 -0.1,-0.1 -0.85,-0.75 Q 43.4,30.5 42.85,29.1 L 42.6,28.4 Q 42.3,27 42.4,25.55 L 42.25,25.5 H 42.2 q -1.85,-0.3 -2.85,-1.65 l -0.55,-0.8 -0.05,-0.25 -0.05,-0.85 0.1,-1.15 0.3,-1.3 0.35,-0.6 q 0.85,0.35 1.65,0.95 l 0.25,0.2 0.2,1.05 0.25,0.35 0.4,-0.05 0.2,-0.4 -0.1,-0.9 0.1,-0.8 q -0.05,-0.25 -0.9,-0.6 l -1.1,-0.75 h -0.05 m 9.45,13.55 0.9,-0.3 -0.95,-3.55 -1.25,0.75 -0.1,0.2 -0.35,0.6 -0.1,0.75 0.05,0.5 0.3,0.45 q 0.6,0.7 1.5,0.6 M 54.8,28 54.5,27.9 54.25,28.45 53.8,30 v 0.2 l 1.1,-0.35 0.45,-0.2 0.1,-0.1 0.15,-0.3 V 29.1 L 55.5,28.7 55.45,28.6 54.8,28 m -3.4,-0.65 -0.7,0.1 0.05,0.15 0.7,2.3 0.45,0.75 0.9,-0.2 h 0.15 L 53.7,27.6 53.3,27.5 53,26.7 52.2,26.3 52,26.35 l -0.45,0.3 -0.15,0.5 v 0.2 M 57,21.3 55.4,21.15 q -0.85,0.25 -1.35,0.85 -0.5,0.6 -0.6,1.5 -0.05,0.85 0.4,1.55 l 0.45,0.5 0.3,-0.35 1.05,-0.4 2.5,0.05 h 0.05 l 0.3,-1.25 q 0,-1.65 -1.5,-2.3 m -7.9,4.3 0.3,-0.05 -0.35,-0.9 -0.2,0.35 -0.4,0.3 -3.45,1.25 -0.6,0.1 -0.3,-0.05 -0.25,0.1 -0.2,0.05 0.5,1 0.15,-0.2 0.5,-0.25 4.3,-1.7 M 27.3,33.85 27.35,33.3 H 25.2 l -1.25,-0.15 q -0.5,-0.3 -0.6,-0.85 l -0.05,-0.4 0.05,-2.2 0.2,-1.05 q 0.3,-0.7 1.1,-0.7 l 0.4,0.05 1.85,-0.1 0.75,0.05 0.05,-1.1 0.25,-1.25 q 0.45,-0.95 1.55,-0.9 0.65,0.05 1.4,0.65 l 3.55,3.8 q 0.85,1.1 0.75,1.8 -0.05,0.7 -1.2,1.6 l -1.85,1.55 -2.4,1.7 -0.8,0.35 q -0.6,0.1 -1.1,-0.3 -0.5,-0.35 -0.55,-1 v -1"
         fill="#000000"
         fill-rule="evenodd"
         stroke="none"
         id="path6" />
      <path
         d="m 40.35,36.8 -0.3,-0.5 -0.6,-0.85 -0.45,-0.75 0.9,-3.45 0.4,-1 0.4,-0.35 0.55,0.05 0.1,0.85 -0.8,3.4 -0.05,0.45 0.25,0.35 0.15,0.25 0.35,0.55 0.35,0.6 0.15,0.35 0.5,0.55 q 0.2,0.5 0,0.75 -0.2,0.45 -0.65,0.25 l -0.3,-0.25 -0.75,-1 -0.2,-0.25 M 39.1,18.75 39,18.7 q -0.8,-0.45 -0.75,-0.85 0,-0.3 0.35,-0.5 l 0.65,-0.05 1.1,0.65 h 0.05 l 1.1,0.75 q 0.85,0.35 0.9,0.6 l -0.1,0.8 0.1,0.9 -0.2,0.4 -0.4,0.05 -0.25,-0.35 -0.2,-1.05 -0.25,-0.2 Q 40.3,19.25 39.45,18.9 L 39.1,18.75 M 57,21.3 q 1.5,0.65 1.5,2.3 l -0.3,1.25 h -0.05 l -2.5,-0.05 -1.05,0.4 -0.3,0.35 -0.45,-0.5 q -0.45,-0.7 -0.4,-1.55 0.1,-0.9 0.6,-1.5 0.5,-0.6 1.35,-0.85 L 57,21.3 m -5.6,6.05 v -0.2 l 0.15,-0.5 0.45,-0.3 0.2,-0.05 0.8,0.4 0.3,0.8 0.4,0.1 -0.75,2.85 H 52.8 l -0.9,0.2 -0.45,-0.75 -0.7,-2.3 -0.05,-0.15 0.7,-0.1 m 3.4,0.65 0.65,0.6 0.05,0.1 0.1,0.4 v 0.15 l -0.15,0.3 -0.1,0.1 -0.45,0.2 -1.1,0.35 V 30 l 0.45,-1.55 0.25,-0.55 0.3,0.1 m -5,3.5 q -0.9,0.1 -1.5,-0.6 l -0.3,-0.45 -0.05,-0.5 0.1,-0.75 0.35,-0.6 0.1,-0.2 1.25,-0.75 0.95,3.55 -0.9,0.3 m -0.7,-5.9 -4.3,1.7 -0.5,0.25 -0.15,0.2 -0.5,-1 0.2,-0.05 0.25,-0.1 0.3,0.05 0.6,-0.1 3.45,-1.25 0.4,-0.3 0.2,-0.35 0.35,0.9 -0.3,0.05"
         fill="#ffffff"
         fill-rule="evenodd"
         stroke="none"
         id="path7" />
      <path
         d="m 38.85,40.1 h -0.1 L 38.55,40.05 38.3,40 H 38.05 37.8 l -0.05,-0.05 h -0.1 L 37.55,39.9 H 37.3 L 36.95,39.85 H 36.5 36.15 L 35.95,39.8 H 35.8 l -0.2,-0.05 h -0.35 -0.6 L 34.4,39.7 H 34.05 L 33.8,39.65 H 33.4 L 33.2,39.6 h -0.15 -0.1 L 32.8,39.55 H 32.65 L 32.4,39.5 H 32.1 L 31.85,39.45 H 31.7 31.55 L 31.4,39.4 H 31.3 L 31.2,39.35 H 30.85 L 30.7,39.3 H 30.5 L 30.4,39.25 30.3,39.2 30.2,39.15 H 30.1 L 29.75,39.1 29.6,39.05 29.55,39 v -0.1 l 0.05,-0.1 v -0.05 h 0.05 0.1 L 30.1,38.7 30.25,38.65 30.3,38.6 h 0.15 l 0.1,-0.05 0.15,-0.05 h 0.15 l 0.35,-0.05 h 0.1 0.1 l 0.15,-0.05 h 0.15 l 0.15,-0.05 h 0.25 l 0.3,-0.05 h 0.25 0.15 l 0.15,-0.05 h 0.1 L 33.2,38.2 h 0.2 0.4 l 0.25,-0.05 h 0.35 l 0.25,-0.05 h 0.6 l 0.35,-0.05 h 0.2 0.15 L 36.15,38 h 0.35 l 0.45,-0.05 h 0.35 l 0.25,-0.05 h 0.1 0.1 l 0.05,-0.05 h 0.25 L 38.3,37.8 h 0.25 l 0.2,-0.05 0.15,-0.05 h 0.15 l 0.15,-0.05 h 0.1 l 0.15,-0.05 h 0.15 0.15 L 39.1,38.85 Q 38.9,39.4 38.85,40.1 M 42.2,25.5 H 42 41.85 L 41.7,25.45 H 41.6 L 41.55,25.4 h -0.1 l -0.1,-0.05 H 41.25 41 L 40.8,25.3 h -0.25 l -0.2,-0.05 H 40.2 L 40.1,25.2 H 40 39.95 l -0.1,-0.05 h -0.2 L 39.45,25.1 H 39.25 39 L 38.9,25.05 H 38.75 L 38.6,25 h -0.15 l -0.1,-0.05 H 38.3 38.15 L 38.1,24.9 H 38 l -0.25,-0.05 h -0.2 L 37.4,24.8 H 37.2 37 L 36.85,24.75 H 36.7 L 36.55,24.7 h -0.1 L 36.2,24.65 h -0.15 -0.1 L 35.75,24.6 H 35.5 L 35.35,24.55 H 35.2 L 35.05,24.5 H 34.9 34.6 34.5 L 34.35,24.55 34.3,24.5 H 34.1 L 33.95,24.45 33.9,24.4 h -0.25 l -0.1,-0.05 H 33.5 L 33.35,24.3 33.25,24.2 33.2,24.1 v -0.15 l 0.05,-0.1 V 23.8 l 0.1,-0.05 0.05,-0.05 0.1,-0.05 h 0.05 0.1 l 0.3,-0.05 0.05,-0.1 0.1,-0.05 0.1,-0.05 h 0.15 l 0.15,-0.05 h 0.15 L 34.9,23.3 h 0.15 l 0.15,-0.05 h 0.15 0.15 l 0.25,-0.05 h 0.2 l 0.1,-0.05 h 0.15 l 0.25,-0.05 h 0.1 0.15 l 0.15,-0.05 H 37 L 37.2,23 h 0.2 l 0.15,-0.05 h 0.2 0.25 l 0.1,-0.05 h 0.05 l 0.15,-0.05 h 0.05 l 0.1,-0.05 h 0.15 0.15 l 0.05,0.25 0.55,0.8 q 1,1.35 2.85,1.65 m -3.4,-4.7 h -0.5 l -0.45,-0.05 h -0.2 L 37.2,20.7 h -0.6 -0.55 l -0.3,-0.05 h -0.3 l -0.4,-0.05 h -0.2 l -0.2,-0.05 H 34.5 34.05 L 33.3,20.5 h -0.35 l -0.2,-0.05 H 32.6 L 32.45,20.4 h -0.2 -0.2 L 31.9,20.35 H 31.6 L 31.4,20.3 H 31.2 31.05 L 30.9,20.25 H 30.8 L 30.75,20.2 h -0.1 l -0.1,-0.05 H 30.5 30.4 L 30.25,20.1 30.2,20.05 29.85,20 H 29.8 L 29.65,19.95 29.6,19.9 29.55,19.85 v -0.1 -0.05 l 0.05,-0.05 0.05,-0.1 h 0.15 l 0.05,-0.05 0.35,-0.05 h 0.1 l 0.1,-0.05 h 0.1 l 0.05,-0.05 h 0.1 l 0.1,-0.05 h 0.05 0.1 l 0.15,-0.05 h 0.15 l 0.2,-0.05 h 0.2 l 0.3,-0.05 h 0.15 0.2 l 0.2,-0.05 h 0.15 l 0.15,-0.05 h 0.2 L 33.3,19 h 0.75 0.45 l 0.15,-0.05 h 0.2 l 0.2,-0.05 h 0.4 l 0.3,-0.05 h 0.3 0.55 l 0.6,-0.05 h 0.45 l 0.2,-0.05 h 0.45 0.6 0.2 l 0.35,0.15 -0.35,0.6 -0.3,1.3"
         fill="#999999"
         fill-rule="evenodd"
         stroke="none"
         id="path8" />
    </g>
    <g
       id="shape2"
       transform="translate(1.5,1.5)">
      <path
         d="M 0,23.8 V 0 H 64.1 V 23.8 57.55 H 0 Z"
         fill="none"
         stroke="#000000"
         stroke-linecap="round"
         stroke-linejoin="round"
         stroke-width="3"
         id="path9" />
    </g>
  </defs>
</svg>
