<?xml version="1.0" encoding="UTF-8" standalone="no"?>
<svg
   ffdec:objectType="frame"
   height="60.549999"
   width="67.099998"
   version="1.1"
   id="svg7"
   sodipodi:docname="175.svg"
   xmlns:inkscape="http://www.inkscape.org/namespaces/inkscape"
   xmlns:sodipodi="http://sodipodi.sourceforge.net/DTD/sodipodi-0.dtd"
   xmlns:xlink="http://www.w3.org/1999/xlink"
   xmlns="http://www.w3.org/2000/svg"
   xmlns:svg="http://www.w3.org/2000/svg"
   xmlns:ffdec="https://www.free-decompiler.com/flash">
  <sodipodi:namedview
     id="namedview7"
     pagecolor="#ffffff"
     bordercolor="#000000"
     borderopacity="0.25"
     inkscape:showpageshadow="2"
     inkscape:pageopacity="0.0"
     inkscape:pagecheckerboard="0"
     inkscape:deskcolor="#d1d1d1"
     fit-margin-top="5"
     fit-margin-left="5"
     fit-margin-right="5"
     fit-margin-bottom="5" />
  <g
     transform="translate(1.5,1.5)"
     id="g3">
    <use
       ffdec:characterId="516"
       height="57.549999"
       width="64.099998"
       xlink:href="#shape0"
       id="use1" />
    <use
       ffdec:characterId="683"
       height="56.299999"
       transform="translate(-0.35,2)"
       width="57.650002"
       xlink:href="#shape1"
       id="use2" />
    <use
       ffdec:characterId="518"
       height="60.549999"
       transform="translate(-1.5,-1.5)"
       width="67.099998"
       xlink:href="#shape2"
       id="use3" />
  </g>
  <defs
     id="defs7">
    <g
       id="shape0">
      <path
         d="M 53.6,0 H 64.1 V 57.55 H 53.6 28.25 0 V 0 H 28.25 53.6 V 57.55 0 M 28.25,0 V 57.55 0"
         fill="#ffffff"
         fill-rule="evenodd"
         stroke="none"
         id="path3" />
    </g>
    <g
       id="shape1"
       transform="translate(0.35,-2)">
      <path
         d="m 34,27.9 -0.6,-1.35 q -0.1,-0.85 0.05,-1.25 0.2,-0.5 0.8,-0.75 l 1.1,-0.05 0.85,0.75 q 0.35,0.55 0.25,1.15 l -0.25,1 -0.2,1.35 -0.05,0.8 -0.5,0.5 L 34.8,29.6 34.55,28.85 34,27.9 M 12.2,13.05 Q 11.65,12.6 10.45,12.25 L 8.6,11.55 7.4,10.5 6.4,9.5 6.1,8.3 Q 6.1,6.8 6.75,5.95 7.25,5.25 8.25,4.75 9.2,4.2 10.4,3.95 L 10.35,3.85 Q 10.15,3.5 10.3,3 l 0.45,-0.7 1.65,0.1 q 0.4,0.4 0.4,0.95 l -0.1,0.55 0.5,0.15 1.35,1.2 Q 15.3,6.2 15.1,6.9 L 14.6,7.5 13.75,7.65 12.5,7.05 10.85,7.1 q -0.65,0.15 -1.5,0.85 0.5,0.65 1.55,1.1 l 1.85,0.65 q 1.55,0.7 2.4,2.15 0.9,1.55 0.45,3.15 -0.35,1.4 -2.05,2.8 l -1.15,0.75 v 0.1 q 0.2,0.55 0.05,1.05 -0.25,0.95 -1.15,1.1 -0.9,0.15 -1.5,-0.6 -0.45,-0.7 -0.15,-1.45 l -1.2,-0.2 Q 7.55,18.25 6.85,17.45 6.2,16.65 6,15.65 5.8,14.75 6.05,14.2 q 0.25,-0.85 1,-1 l 1.15,0.2 q 0.55,0.4 0.7,1.05 l 0.15,0.65 0.3,0.55 0.8,0.25 Q 11.7,16 12.5,14.6 l 0.2,-0.65 q -0.05,-0.45 -0.5,-0.9 m 10.6,21.2 -1.9,0.3 q -6.5,0.3 -9.7,0.2 l -4,-0.2 -4,0.1 -1.15,0.05 Q 1.4,34.65 1.05,34.3 0.4,33.8 0.5,32.6 l 0.3,-1.8 0.05,-1.2 0.3,-1.15 q 0.4,-0.85 1.6,-1.2 l 2,-0.25 3.3,-0.35 3.35,-0.3 3.65,-0.05 6.05,-0.4 5.95,0.6 q 1.25,0.4 1.75,0.9 0.85,0.85 0.6,1.85 -0.35,0.9 -1.6,1.35 l -2,0.7 -1.5,1.55 q -0.85,1.1 -1.5,1.4 m 3.7,0.05 q 0.6,-1.6 2.15,-1.9 l 1.55,0.05 q 1.25,0.2 1.8,1 0.35,0.5 0.35,1.2 L 32.1,35.9 30.95,37 q -0.8,0.6 -1.4,0.7 -0.8,0.2 -1.8,-0.35 l -1,-0.8 Q 26.1,35.6 26.5,34.3 m 6.5,5.65 1.4,-0.55 0.55,0.05 q 0.25,0.2 -0.1,0.65 l -1.2,1.5 -1.45,1.6 -0.95,0.45 Q 30.35,43.8 29.8,43 29.3,42.25 29.7,41.4 29.95,40.85 30.6,40.5 31.4,40 31.9,40 L 33,39.95"
         fill="#999999"
         fill-rule="evenodd"
         stroke="none"
         id="path4" />
      <path
         d="m 50.85,10.6 q 0.45,-0.4 2,-0.6 1.4,-0.2 1.8,-0.9 L 54.8,8.55 54.55,8.15 Q 53.6,7.1 52.2,6.95 l -1,0.1 L 50.85,7.3 50.7,7.75 Q 50.65,8.45 50.05,9 49.45,9.5 48.75,9.5 48,9.55 47.4,9.05 46.8,8.5 46.7,7.8 46.55,6.85 47.3,5.75 q 0.45,-0.6 1.05,-1.05 1.7,-1.3 4,-1.05 2.1,0.3 3.75,1.8 0.8,0.7 1.05,1.45 l 0.15,1.3 q 0.1,1.6 -0.6,2.65 l -0.8,0.8 q -1.1,0.8 -2.4,0.95 L 52.35,12.75 52,12.95 V 13.4 L 52.05,14.35 51.4,15 Q 51,15.05 50.45,14.4 49.6,12.95 50.25,11.45 50.5,10.9 50.85,10.6 m -0.8,6.25 Q 50.4,16.25 51.2,16 h 0.75 q 0.55,0.1 1,0.55 0.45,0.45 0.5,1 0.1,0.55 -0.2,1.1 L 52.4,19.4 51.3,19.55 50.3,19 q -0.85,-0.95 -0.25,-2.15 m -12.8,21.1 q -1.1,-1.35 -1.3,-2.7 L 36,33.15 q 0.45,-2.6 1.5,-4.15 0.55,-0.9 1.45,-1.8 l 0.1,-0.1 -0.7,-0.95 q -0.5,-1.05 -0.25,-2.4 0.35,-2.6 2.85,-4.3 1.75,-1.2 3.9,-1.3 l 1.5,0.15 1.4,0.5 q 1.4,0.7 1.9,1.5 l 0.55,1.05 0.55,1.4 0.05,0.4 q 1.85,0.5 3.3,1.6 2.65,2.05 3,4.9 l 0.05,2.4 -0.55,3.35 q -0.85,2.8 -3.2,4.8 -2.15,1.8 -4.7,2.25 l 1.4,1.7 q 1.55,2.15 2.25,4.2 0.8,2.6 0.15,4.7 l -1.05,2.35 q -0.75,1.25 -1.5,1.7 L 47.8,57.75 37.05,58.2 Q 35.4,58.1 34.75,57.65 L 34.2,57.2 33.95,57.25 32.2,57.15 Q 31.45,56.9 30.85,56.1 29.5,54.5 29.35,53.25 l -0.1,-1.45 -0.3,-2.1 q -0.6,-0.3 -1.4,0.4 l -0.85,1.25 -1.65,1.9 -1.6,0.9 q -1.55,0.5 -2.95,-0.4 -1.4,-1 -1.55,-2.6 l 0.1,-1.5 q 0.2,-1.4 0.55,-2 l 1.05,-1.2 Q 21.2,46 21.5,46.2 q 0.35,0.2 0.05,0.7 l -0.5,0.55 q -0.7,0.75 -0.5,2.15 0,0.6 0.3,1.2 0.3,0.65 0.9,0.8 0.9,0.25 1.75,-0.6 l 1.25,-1.65 1.3,-1.6 q 1,-0.85 2.45,-1.1 l 1.7,0.1 q 1.05,0.35 1.65,1.75 L 32.4,50.95 32.65,52.4 33,53 q -0.1,-4.7 1.85,-9.25 1.45,-3.3 3.55,-4.6 l -1.15,-1.2 m 11.15,-6.7 q 0,0.85 0.55,1.5 0.5,0.7 1.3,0.9 l 1.65,-0.15 1.15,-1.1 q 0.35,-0.75 0.2,-1.6 -0.2,-0.85 -0.8,-1.4 Q 51.8,28.9 50.9,28.85 50.05,28.8 49.35,29.3 48.4,30 48.4,31.25 M 34,19.2 l -2.15,0.4 -2.2,0.05 -1.55,0.15 -3.45,-0.05 -0.9,-0.05 -0.05,0.2 -0.25,1 q -0.3,0.6 -0.75,0.65 -0.6,0.15 -1.5,-0.75 l -1.4,-1.1 -0.9,-0.8 q -0.2,-0.55 0.05,-1.2 l 0.7,-0.95 1.7,-1.3 q 1.2,-0.6 1.9,-0.5 0.5,0.05 0.85,0.45 l 0.35,0.85 -0.15,0.45 2.2,0.2 5.2,0.7 2.4,0.5 0.45,0.45 L 34,19.2 M 23.3,33.85 q 0.15,-1.1 0.55,-1.95 -0.55,0.85 -1.65,0.95 -1.25,0.1 -1.9,-0.9 -0.65,-1.1 -0.2,-2.1 0.55,-1.1 1.8,-1.25 1.2,-0.1 1.9,0.95 0.55,0.8 0.35,1.8 l 0.1,-0.3 0.7,-0.9 q -0.5,-0.35 -0.5,-1.05 l 0.05,-0.45 q 0.15,-0.7 0.85,-0.85 0.95,-0.35 1.55,0.45 l 0.3,0.7 0.55,-0.15 1.5,-0.15 -0.1,-0.2 -1,-0.65 Q 24.25,26.5 18.6,26.7 L 13.8,27 8.95,27.25 5.55,27.3 2.15,27.65 Q 0.7,28 0.35,27.3 0,26.65 0.7,26.15 1,25.85 1.9,25.65 l 5.25,-0.75 3.4,-0.35 8.5,-0.7 8.35,0.65 q 2.3,0.5 3.3,1.3 1.7,1.25 1.55,3.05 l -0.1,0.5 0.15,0.1 q 1.45,0.95 1.8,2.4 0.5,1.9 -0.9,4.35 L 32,37.9 q -1.75,1.65 -3.95,1.5 -2.3,-0.1 -3.8,-1.8 L 23.6,36.55 21.8,36.7 2.05,37.5 0.3,37.25 q -0.9,-0.6 -0.55,-1.65 0.3,-0.7 1.15,-0.95 l 1.55,-0.2 5.35,-0.2 Q 17.85,33.9 23.3,34.1 v -0.25 m 2.25,8 q 0.7,0.4 0.6,1 l -0.8,0.7 -1.1,-0.05 h -1.4 L 15.1,44.25 14.85,44.3 14.8,45.15 14.05,46 12.95,46.15 12.3,45.75 12,45.5 11.65,45.3 10.1,44.7 9.35,44.3 q -0.65,-0.55 -0.4,-1.4 0.15,-0.5 0.7,-1 l 2.2,-1.85 0.4,-0.4 1.05,-0.75 q 0.9,-0.4 1.6,0.3 0.55,0.65 0.4,1.45 l 1.8,0.05 3.3,0.25 3,0.3 2.15,0.6 M 27.5,36.7 q 1.2,0.5 2.5,-0.35 1.05,-0.7 1.55,-2.1 l 0.25,-0.9 0.05,-0.8 q -0.2,-1.05 -1.7,-1.45 l -2.9,0.15 q -0.75,0.5 -1.1,1.5 -0.45,1.1 -0.15,2.25 0.4,1.25 1.5,1.7 M 27.2,35.25 Q 26.65,34.8 26.65,33.7 l 0.1,-0.7 0.4,-0.45 Q 27.7,32 28.4,31.9 v -0.2 l 0.25,-0.3 0.4,-0.1 0.05,-0.05 q 0.35,0 0.45,0.4 L 29.5,32 l 0.6,0.45 v 0.4 l -0.3,0.2 -0.55,-0.15 h -0.1 -0.45 -0.05 l -0.45,0.15 q -0.35,0.2 -0.25,0.55 l 0.55,0.45 0.75,0.2 q 0.6,0.4 0.25,1 -0.3,0.45 -1,0.4 L 28.45,35.85 28.3,36 28,36.15 q -0.3,0 -0.4,-0.25 -0.15,-0.15 -0.15,-0.45 l -0.25,-0.2"
         fill="#000000"
         fill-rule="evenodd"
         stroke="none"
         id="path5" />
      <path
         d="m 48.4,31.25 q 0,-1.25 0.95,-1.95 0.7,-0.5 1.55,-0.45 0.9,0.05 1.55,0.55 0.6,0.55 0.8,1.4 0.15,0.85 -0.2,1.6 l -1.15,1.1 -1.65,0.15 q -0.8,-0.2 -1.3,-0.9 -0.55,-0.65 -0.55,-1.5"
         fill="#ffffff"
         fill-rule="evenodd"
         stroke="none"
         id="path6" />
    </g>
    <g
       id="shape2"
       transform="translate(1.5,1.5)">
      <path
         d="M 0,23.8 V 0 H 64.1 V 23.8 57.55 H 0 Z"
         fill="none"
         stroke="#000000"
         stroke-linecap="round"
         stroke-linejoin="round"
         stroke-width="3"
         id="path7" />
    </g>
  </defs>
</svg>
