<?xml version="1.0" encoding="UTF-8" standalone="no"?>
<svg
   ffdec:objectType="frame"
   height="60.549999"
   width="67.800003"
   version="1.1"
   id="svg8"
   sodipodi:docname="548.svg"
   xmlns:inkscape="http://www.inkscape.org/namespaces/inkscape"
   xmlns:sodipodi="http://sodipodi.sourceforge.net/DTD/sodipodi-0.dtd"
   xmlns:xlink="http://www.w3.org/1999/xlink"
   xmlns="http://www.w3.org/2000/svg"
   xmlns:svg="http://www.w3.org/2000/svg"
   xmlns:ffdec="https://www.free-decompiler.com/flash">
  <sodipodi:namedview
     id="namedview8"
     pagecolor="#ffffff"
     bordercolor="#000000"
     borderopacity="0.25"
     inkscape:showpageshadow="2"
     inkscape:pageopacity="0.0"
     inkscape:pagecheckerboard="0"
     inkscape:deskcolor="#d1d1d1"
     fit-margin-top="5"
     fit-margin-left="5"
     fit-margin-right="5"
     fit-margin-bottom="5" />
  <g
     transform="translate(1.5,1.5)"
     id="g3">
    <use
       ffdec:characterId="516"
       height="57.549999"
       width="64.099998"
       xlink:href="#shape0"
       id="use1" />
    <use
       ffdec:characterId="1044"
       height="54.150002"
       transform="translate(1.45,3.15)"
       width="64.849998"
       xlink:href="#shape1"
       id="use2" />
    <use
       ffdec:characterId="518"
       height="60.549999"
       transform="translate(-1.5,-1.5)"
       width="67.099998"
       xlink:href="#shape2"
       id="use3" />
  </g>
  <defs
     id="defs8">
    <g
       id="shape0">
      <path
         d="M 53.6,0 H 64.1 V 57.55 H 53.6 28.25 0 V 0 H 28.25 53.6 V 57.55 0 M 28.25,0 V 57.55 0"
         fill="#ffffff"
         fill-rule="evenodd"
         stroke="none"
         id="path3" />
    </g>
    <g
       id="shape1"
       transform="translate(-1.45,-3.15)">
      <path
         d="m 60.7,5.35 0.15,0.6 q 0.1,0.2 0.75,0.3 0.7,0.25 0.95,0.85 0.25,0.7 -0.15,1.25 L 61.45,9 60.55,9.1 Q 59.95,9 59.75,8.55 L 59.65,7.7 59.45,6.6 h -0.3 Q 58.4,6.6 58,6.25 57.45,5.7 57.7,5.15 L 58.4,4.5 59.1,4 q 0.45,-0.2 0.7,0.15 h 0.25 L 60.6,4.6 60.7,5.35 M 24.2,26.45 22.8,24.8 19.65,22.15 18.3,22.4 q -0.45,-0.1 -1.2,-0.55 l -0.5,-0.4 -0.15,0.05 0.05,0.15 0.35,0.55 0.6,0.55 0.4,0.65 0.1,0.05 v 1 L 17.9,24.5 q -0.3,0.65 -0.95,0.85 l -1.2,-0.15 -0.55,-0.5 -0.15,0.6 q -0.35,0.8 -1.3,0.8 -0.9,0.1 -1.4,-0.75 L 12.1,24.6 Q 11.4,23.95 11.55,22.95 L 11.7,22.4 v -0.2 l 0.1,-0.7 -0.35,0.2 -0.25,0.45 v 0.05 l -0.1,0.35 v 0.35 l 0.15,0.35 q 0.55,0.9 -0.05,1.75 -0.75,0.95 -1.75,0.6 l -1,-0.8 Q 8.1,24.4 8,23.8 L 8.05,23.15 7.6,22.75 Q 7.35,22.55 7.25,22.2 L 6.65,21.05 6.55,20.3 Q 6.45,18.85 6.8,18.25 L 7.2,17.65 6.5,17.4 5.45,16.5 4.8,15.45 Q 4.6,14.9 4.75,14.2 4.9,13.5 5.45,13.05 L 6,12.85 Q 6.05,12 7.05,11.55 6.8,10.95 6.85,10.55 L 7.1,9.8 7.35,9.4 7.25,9.3 q -0.15,-0.5 0,-1 0.1,-0.5 0.5,-0.8 L 8.15,7.25 8.65,7.2 8.75,7.15 9.55,7.25 9.3,6.55 Q 9.3,6 9.65,5.6 10.05,5.2 10.6,5.15 l 1,0.2 0.3,0.15 Q 12.35,4.6 13.35,4.85 13.75,4.95 14,5.3 L 14.2,6 Q 14.7,6 15.15,6.35 15.2,6 15.4,5.8 q 0.4,-0.5 0.95,-0.6 0.6,-0.05 1.1,0.3 l 0.75,0.9 q 0.5,-0.35 1.5,-0.2 1.25,0.3 1.6,0.9 l 0.4,0.8 0.15,0.65 v 0.9 q 0.3,0.05 0.65,0.35 l 0.35,0.4 0.15,0.35 0.2,0.5 0.05,0.5 q 0.3,1.05 0.1,1.7 L 23.2,13.7 23,14 l 0.4,0.5 q 0.4,0.5 0.15,1.15 -0.35,0.7 -1,0.6 l -0.95,-0.4 q -0.2,0 -0.45,0.2 l -0.2,0.2 1.15,0.75 q 1.35,1.05 2.8,2.85 l 2.35,3.25 q 0.2,-2.2 1.1,-4.2 Q 29,17.45 30,16.3 l 0.2,-3.85 q 0.15,-0.6 0.75,-0.95 0.6,-0.35 1.25,-0.2 l 0.8,0.35 0.05,0.05 1.3,0.5 0.85,0.55 0.5,0.35 1.4,-0.25 1.4,0.15 1.4,0.3 2.75,0.45 1.75,0.7 q 3,-1 4.7,-0.65 0.55,0.1 0.85,0.35 0.75,0.5 0.5,1.45 l -1,3.75 0.4,1.85 v 1.6 q -0.25,2.75 -1,4.65 l -0.15,0.45 2.35,-1.05 0.55,-0.7 0.1,-0.05 -0.95,-0.15 q -0.5,-0.4 -0.5,-1.1 0,-0.55 0.6,-1.05 -0.1,-0.5 0.15,-1.05 0.1,-0.6 0.6,-0.9 l 1.1,-0.45 0.45,-0.05 0.8,-0.15 0.65,0.1 V 20.55 Q 54.4,19.8 54.7,19.3 l 0.65,-0.5 0.5,-0.1 q 0.4,-0.35 0.95,-0.3 0.45,0.05 0.7,0.35 l 0.45,0.15 0.4,0.25 0.4,0.35 0.05,-0.4 0.5,-0.6 0.25,-0.1 v -0.3 l 0.3,-0.5 Q 60.4,17 60.9,17.05 L 61,17 q 0.9,0 1.35,0.85 l 0.05,0.05 0.2,0.55 0.05,0.5 q 0.3,-0.3 0.75,-0.4 1,-0.15 1.55,0.75 l 0.2,0.7 -0.55,1.9 -0.35,0.7 -0.4,0.55 0.5,0.05 q 0.35,0.05 0.7,0.4 l 0.4,0.7 q 0.25,1.05 -0.1,1.6 l -0.35,0.3 0.1,1.95 0.7,1.2 q 0.3,0.2 0.4,0.95 l 0.1,1.1 -0.25,1.1 -1.05,1.25 -0.4,0.35 -1.3,0.3 -0.25,0.9 -0.4,0.6 -0.6,0.6 -0.45,0.25 -0.65,0.1 -1,-0.15 -0.6,0.5 q -1,0.8 -1.75,0.65 -0.45,0 -1.05,-0.4 l -0.3,-0.35 -0.1,-0.05 V 36.7 Q 55.45,36.15 55.3,35.15 L 55.25,34.8 55.05,35.2 54,35.8 q -0.6,0.1 -1.1,-0.35 l -0.3,-0.3 -0.2,-0.4 -0.05,-0.5 0.05,-2 0.1,-0.35 -1.75,0.35 -2.6,0.75 -2,0.45 -3.7,1.05 -1.05,0.5 -0.45,6.05 -0.15,2.05 -0.2,5.15 q 0.8,-1.6 1.9,-3.15 0.9,-1.3 1.7,-1.75 0.95,-0.6 2.55,-0.65 2.15,-0.1 3.3,1 l 1.1,1.55 1.25,1.35 0.55,0.15 0.4,-0.5 q 0.45,-0.75 1.2,-1.25 0.75,-0.45 1.65,-0.5 1.95,-0.15 3.05,1.45 1.2,1.8 0.1,4.4 -0.65,1.3 -1.65,2.05 -1.7,1.25 -4.45,1 -2.05,-0.25 -3.2,-1.05 -1.75,-1.3 -3,-5.1 -0.4,-0.05 -1,0.55 -1.3,1.4 -2.7,3.8 l -2.25,4.05 -0.25,0.45 v 0.7 H 26.3 L 25.75,54.9 25.1,53.25 q 0.2,-1.3 0.55,-2.65 l 0.4,-0.45 2.25,-3.6 q 2.1,-4.6 1.55,-7.95 L 29.8,38.4 31.45,33.9 31.3,33.7 29.3,31.55 29,29.65 28.45,27.3 q -0.6,-1.35 -1.8,-1.55 -0.95,-0.3 -2.15,0.45 l -0.3,0.25 m -9.15,1.05 0.05,-0.1 0.2,-0.35 q -0.05,-0.45 0.05,-0.65 0.1,-0.2 0.35,-0.2 l 0.4,0.2 0.35,0.8 0.35,0.3 H 15.05 M 62.35,21.3 62.5,21 62.35,20.65 62.3,20.7 61.85,21.6 61.7,21.85 62.35,21.3 m -6.5,-8 0.25,-1.15 0.45,-0.9 -0.7,-0.05 -0.7,-0.3 h -0.3 l -0.3,1.25 0.5,0.25 q 0,0.2 0.3,0.45 l 0.1,0.4 -0.1,0.6 q -0.25,0.5 -0.9,0.5 L 53.8,14.2 Q 53.45,14 53.45,13.7 L 53.1,13.3 53.15,12.65 53.8,10.2 Q 53.85,9.7 54.1,9.6 L 54.15,9.5 54.9,9.25 q 0.85,-0.1 1.4,0.3 l 0.45,0.35 0.3,0.05 0.5,0.25 0.05,0.3 -0.25,0.5 -0.15,1.15 v 0.15 q 0.05,0.05 0.25,0.1 l 0.65,0.25 0.45,0.5 v 0.6 l -0.2,0.45 -0.75,0.35 -0.85,-0.2 -0.5,-0.25 -0.15,-0.3 -0.25,-0.5 M 48,7.15 q 0.25,0.05 0.35,0.15 h 0.15 l 0.35,0.2 0.65,0.7 0.35,0.75 -0.25,0.6 -0.65,0.2 L 48.4,9.5 47.7,9.35 47.55,9.55 47.3,10.1 47.25,10.45 47.1,10.6 v 0.2 l -0.3,0.55 -0.4,0.3 -1.45,0.25 -0.35,-0.05 -0.45,-0.3 -0.3,-0.45 -0.05,-0.3 q 0,-0.6 0.15,-0.8 0.4,-0.8 1.25,-0.8 L 46.15,9.35 46.2,9.2 46.35,8.9 46.7,8.5 46.85,8.05 47.1,7.7 47.4,7.4 47.6,7.25 48,7.15 m -4.55,11.3 q -0.7,0.35 -1.05,0.8 -1.15,1.3 -0.6,2.95 l 0.35,0.7 0.4,0.05 1.1,0.4 L 45,24.2 45.7,24 q 0.8,-0.25 1.25,-0.85 1.15,-1.45 0.45,-3.05 l -0.05,-0.05 q -0.2,-0.7 -0.85,-1.15 -0.9,-0.65 -1.85,-0.65 l -1.2,0.2 m 8.8,-1.2 q 0.4,-0.05 1.05,0.35 l 0.8,1.1 q 0.25,0.65 0,1.3 l -0.35,0.55 -0.85,-0.1 -0.7,-0.6 -0.5,-0.2 -0.5,-0.55 q -0.2,-0.45 -0.1,-0.8 0.15,-0.95 1.15,-1.05 m 1.9,6.7 h 0.05 l 0.1,-0.1 -0.35,-0.15 -0.5,-0.05 0.7,0.3 M 57,21.8 l 0.8,-0.25 -0.15,-0.1 -0.3,-0.1 -0.7,-0.15 -0.05,0.45 v 0.3 L 57,21.8 m -1.85,11.85 0.05,0.6 q 0,-0.65 0.25,-1.25 l -0.25,-0.25 -0.05,0.9 m 2.7,1.05 0.1,-0.65 -0.6,-0.15 -0.1,0.35 0.6,0.45 m 3,-1 -0.3,0.15 v 0.5 0.65 l 0.05,-0.05 0.3,-0.45 0.1,-0.4 0.05,-0.45 -0.2,0.05 M 33.8,23.85 q 0.25,0.9 0.75,1.35 l -0.2,0.6 v 0.55 l -0.05,1.35 0.4,1.35 0.5,0.75 1,0.85 1.2,0.25 1.15,-0.15 Q 39.2,30.55 39.7,30 l 0.25,-0.35 0.7,-1.15 0.3,-1.55 v -0.2 l 0.4,-0.05 0.35,-0.1 0.1,-0.15 0.2,-0.05 0.55,-0.5 0.15,-0.25 0.2,-0.3 L 43.1,25.1 42.65,24.75 42.6,24.7 42.25,25 42,25.2 q -0.25,0.2 -0.55,0.2 l -0.3,-0.05 -0.3,0.05 -0.6,-0.15 -0.6,-0.75 -0.1,-0.3 L 39,23.55 q -0.5,-0.3 -1.15,0 l -0.4,0.4 -0.6,0.25 -0.9,-0.05 q -0.9,-0.2 -1.15,-0.5 l -0.1,-0.3 -0.55,-0.2 -0.35,0.2 v 0.5 m 29,14.05 v 1 q -0.05,0.8 -0.9,1.35 l -1.1,0.45 -1.1,-0.25 q -0.65,-0.55 -0.4,-1.3 0.1,-0.8 0.95,-0.9 h 0.8 l 0.75,-0.1 0.45,-0.3 0.55,0.05 M 37.8,7.35 37.55,8.5 37.1,9.05 36.2,9.2 q -1.05,0 -1.35,-0.45 L 34.7,8.1 q 0,-0.65 0.35,-1.1 0.35,-0.5 1,-0.5 L 36,5.4 34.55,5.55 33.8,5.65 33.75,5.7 q -0.05,0.6 0.2,1.4 l 0.3,0.95 q -0.1,0.9 -1,1.05 Q 32.5,9.25 31.8,8.65 L 31.4,8.2 31.35,7.55 31.55,6.8 Q 31.8,6.3 32.7,6.2 L 32.65,5.05 32.6,4.9 q -0.25,-0.6 0.15,-1.1 0.4,-0.55 1.7,-0.65 L 36.3,3.2 q 0.75,0.1 1,0.35 0.3,0.35 0.3,1.05 V 4.95 5.1 6.45 l 0.2,0.9 m -16.9,5 0.15,0.65 0.45,-0.45 0.2,-0.55 -0.45,-0.05 -0.35,0.4 m 5.6,-4.3 q 0.85,-0.1 1.35,0.6 0.45,0.7 0.1,1.45 -0.5,0.8 -1.25,0.65 L 26,10.55 25.35,10.3 24.5,10.05 q -0.15,-0.25 0.1,-0.7 0.8,-1.3 1.9,-1.3 m 9.85,9.85 -0.2,-0.4 q -0.95,-1.4 -2.6,-1.3 -1.65,0.1 -2.5,1.5 -0.8,1.5 0.05,2.9 l 0.45,0.7 q 1.15,-0.4 2.35,0 l 1.25,0.5 1,-1.05 0.2,-0.35 0.05,-0.05 q 0.55,-1.25 0,-2.4 L 36.35,17.9 M 12.1,8.65 12,8.2 11.45,7.9 H 10.7 l 0.6,0.75 0.1,0.4 0.7,-0.4 M 19.15,9.75 19.2,9.8 19.25,9.6 19.2,9.25 q -0.1,-0.2 -0.45,-0.3 l -0.05,0.4 0.45,0.4 m -9.7,0.55 -0.05,-0.05 -0.05,0.2 -0.5,0.7 V 11.2 L 9.05,11.25 9.6,10.55 9.45,10.3 M 7.8,14.55 7.3,14.35 7.5,15.1 7.75,15.15 7.8,14.55 M 8.75,20.4 8.8,20.5 9,20 9.2,19.75 8.95,19.5 Q 8.7,19.8 8.7,20.05 l 0.05,0.35 m 28.15,5.45 0.85,-0.3 0.45,0.3 0.4,0.2 1.15,0.5 -0.2,0.15 -0.5,0.95 -0.35,0.55 -0.35,0.5 -0.85,0.15 -0.9,-0.6 -0.35,-0.9 -0.35,-0.8 q -0.05,-0.25 0.05,-0.5 l 0.05,-0.3 0.9,0.1"
         fill="#999999"
         fill-rule="evenodd"
         stroke="none"
         id="path4" />
      <path
         d="m 43.45,18.45 1.2,-0.2 q 0.95,0 1.85,0.65 0.65,0.45 0.85,1.15 l 0.05,0.05 q 0.7,1.6 -0.45,3.05 -0.45,0.6 -1.25,0.85 l -0.7,0.2 -1.35,-0.85 -1.1,-0.4 -0.4,-0.05 -0.35,-0.7 q -0.55,-1.65 0.6,-2.95 0.35,-0.45 1.05,-0.8 m -9.65,5.4 v -0.5 l 0.35,-0.2 0.55,0.2 0.1,0.3 q 0.25,0.3 1.15,0.5 l 0.9,0.05 0.6,-0.25 0.4,-0.4 q 0.65,-0.3 1.15,0 l 0.55,0.65 0.1,0.3 0.6,0.75 0.6,0.15 0.3,-0.05 0.3,0.05 q 0.3,0 0.55,-0.2 l 0.25,-0.2 0.35,-0.3 0.05,0.05 0.45,0.35 -0.2,0.25 -0.2,0.3 -0.15,0.25 -0.55,0.5 -0.2,0.05 -0.1,0.15 -0.35,0.1 -0.4,0.05 v 0.2 l -0.3,1.55 -0.7,1.15 L 39.7,30 q -0.5,0.55 -1.15,0.75 L 37.4,30.9 36.2,30.65 35.2,29.8 34.7,29.05 34.3,27.7 34.35,26.35 V 25.8 l 0.2,-0.6 q -0.5,-0.45 -0.75,-1.35 m 2.55,-5.95 0.05,0.05 q 0.55,1.15 0,2.4 l -0.05,0.05 -0.2,0.35 -1,1.05 -1.25,-0.5 q -1.2,-0.4 -2.35,0 L 31.1,20.6 q -0.85,-1.4 -0.05,-2.9 0.85,-1.4 2.5,-1.5 1.65,-0.1 2.6,1.3 l 0.2,0.4 M 10.6,45.45 q -0.4,0.4 -1.1,0.65 L 7.2,46.15 Q 6,45.75 5.4,44.75 L 5.2,44.35 Q 4.3,42.6 5.4,40.9 6,40 6.9,39.6 l 0.7,0.85 q 1.7,1.7 3.3,2.3 l 0.9,0.25 -0.45,1.55 -0.75,0.9 m 1.05,0.95 0.5,0.4 0.9,0.1 v 0.05 0.25 l -0.1,0.3 -0.15,0.7 -0.1,0.75 -0.45,-0.1 q -0.6,-0.1 -1.05,-0.45 l -0.6,-0.8 q -0.2,-0.6 0.15,-1 0.35,-0.45 0.9,-0.2 m 3.6,-0.35 q 0.75,-0.15 1.5,0 l 0.15,0.05 -0.05,0.05 -0.25,1.65 -0.1,0.05 -0.2,1.35 -0.1,1.35 -0.05,0.35 -0.05,0.25 q -1.1,-0.5 -1.95,-1.4 l -0.3,-0.3 0.05,-0.4 v -0.7 l 0.2,-0.6 0.05,-0.55 0.3,-0.7 0.05,-0.15 0.75,-0.3 m 2.4,5.55 H 17.5 l 0.1,-0.4 0.05,-0.5 -0.1,-2.25 0.1,-1.15 0.1,-0.3 v -0.4 l 0.1,-0.2 1.55,-0.05 1,2.95 0.2,0.5 v 0.3 l 0.15,0.4 0.1,0.55 0.1,0.2 q -1.6,0.7 -3.3,0.35 M 36.9,25.85 36,25.75 l -0.05,0.3 q -0.1,0.25 -0.05,0.5 l 0.35,0.8 0.35,0.9 0.9,0.6 0.85,-0.15 0.35,-0.5 0.35,-0.55 0.5,-0.95 0.2,-0.15 -1.15,-0.5 -0.4,-0.2 -0.45,-0.3 -0.85,0.3 m -9.95,16.75 -0.25,0.6 -0.45,0.6 -0.6,0.55 -0.1,-0.05 -0.9,-0.4 -0.65,-0.15 -1.8,-0.15 -1.25,0.1 -0.2,-0.3 -0.5,-1.05 q 1.65,-0.9 3.35,-2.8 l 0.85,-1.4 q 0.9,0.2 1.55,0.8 0.95,0.85 1.1,2.15 0.15,0.75 -0.15,1.5 m -3.25,3.65 q 0.55,0.9 0.2,2.1 -0.35,1 -1.25,1.8 l -0.6,0.5 -0.05,-0.5 q -0.3,-0.6 -0.2,-0.9 l -0.1,-0.05 -0.95,-3.4 0.6,-0.25 h 1.7 l 0.65,0.7"
         fill="#ffffff"
         fill-rule="evenodd"
         stroke="none"
         id="path5" />
      <path
         d="m 26.3,56.8 v 0.15 L 26.25,57.3 H 5.6 Q 5.55,56.25 6.2,54.75 l 1.7,-3.4 -1.7,-1.3 Q 3.85,48 3,45.3 2.45,43.35 2.6,40.95 2.75,38.65 3.65,36.55 L 1.95,33.8 q -0.4,-0.7 -0.45,-1.4 -0.15,-1.1 0.3,-2 0.5,-1 1.45,-1.35 L 5,29 l 1.65,0.55 1.6,0.65 1.1,-0.8 q 2.05,-1.3 3.8,-1.65 l 1.9,-0.25 h 1.75 0.05 q 2.8,0.1 4.1,0.65 l 1.65,-0.75 1.6,-0.95 0.3,-0.25 q 1.2,-0.75 2.15,-0.45 1.2,0.2 1.8,1.55 l 0.55,2.35 0.3,1.9 0.15,1.05 0.35,3.4 -0.05,2.15 0.05,0.25 0.05,0.2 q 0.55,3.35 -1.55,7.95 l -2.25,3.6 -0.4,0.45 -1.3,1.2 0.75,1.45 0.65,1.65 0.55,1.9 m -8.65,-5.2 q 1.7,0.35 3.3,-0.35 l -0.1,-0.2 -0.1,-0.55 -0.15,-0.4 v -0.3 l -0.2,-0.5 -1,-2.95 -1.55,0.05 -0.1,0.2 V 47 l -0.1,0.3 -0.1,1.15 0.1,2.25 -0.05,0.5 -0.1,0.4 h 0.15 m -2.4,-5.55 -0.75,0.3 -0.05,0.15 -0.3,0.7 -0.05,0.55 -0.2,0.6 v 0.7 l -0.05,0.4 0.3,0.3 q 0.85,0.9 1.95,1.4 l 0.05,-0.25 0.05,-0.35 0.1,-1.35 0.2,-1.35 0.1,-0.05 0.25,-1.65 0.05,-0.05 -0.15,-0.05 q -0.75,-0.15 -1.5,0 m -3.6,0.35 q -0.55,-0.25 -0.9,0.2 -0.35,0.4 -0.15,1 l 0.6,0.8 q 0.45,0.35 1.05,0.45 l 0.45,0.1 0.1,-0.75 0.15,-0.7 0.1,-0.3 V 46.95 46.9 l -0.9,-0.1 -0.5,-0.4 M 10.6,45.45 11.35,44.55 11.8,43 10.9,42.75 Q 9.3,42.15 7.6,40.45 L 6.9,39.6 Q 6,40 5.4,40.9 4.3,42.6 5.2,44.35 l 0.2,0.4 q 0.6,1 1.8,1.4 L 9.5,46.1 q 0.7,-0.25 1.1,-0.65 m 13.1,0.8 -0.65,-0.7 h -1.7 l -0.6,0.25 0.95,3.4 0.1,0.05 q -0.1,0.3 0.2,0.9 l 0.05,0.5 0.6,-0.5 q 0.9,-0.8 1.25,-1.8 0.35,-1.2 -0.2,-2.1 m 3.25,-3.65 q 0.3,-0.75 0.15,-1.5 -0.15,-1.3 -1.1,-2.15 -0.65,-0.6 -1.55,-0.8 l -0.85,1.4 q -1.7,1.9 -3.35,2.8 l 0.5,1.05 0.2,0.3 1.25,-0.1 1.8,0.15 0.65,0.15 0.9,0.4 0.1,0.05 0.6,-0.55 0.45,-0.6 0.25,-0.6"
         fill="#000000"
         fill-rule="evenodd"
         stroke="none"
         id="path6" />
      <path
         d="m 13.2,36.5 -0.1,0.55 q 0.05,0.45 0.35,0.7 l 0.6,0.45 1.1,-0.5 1,-0.7 L 16,36.65 15.4,35.8 14.9,35.6 q -1.1,-0.1 -1.7,0.9 m 3.45,2.5 -1.35,0.85 -1.05,0.3 -0.9,0.05 Q 12,40.05 11.4,38.75 11.2,38.1 11.15,37.1 q 0.1,-1.4 0.65,-2.15 l 0.65,-0.65 q 1.15,-0.95 2.2,-0.95 1.15,-0.15 2.05,0.7 0.75,0.6 1.3,1.85 l 1.6,-0.95 q 0.35,-0.35 0.65,-0.25 0.3,0.2 0.15,0.6 l -0.4,0.45 -1.65,1.75 0.2,0.5 q 0.3,0.35 0.55,0.3 l 0.35,-0.2 0.5,-0.1 q 0.35,0 0.35,0.5 l -0.25,0.55 q -0.55,0.7 -1.5,0.75 -1,0 -1.55,-0.75 l -0.15,-0.1 -0.2,0.05"
         fill="#999999"
         fill-rule="evenodd"
         stroke="none"
         id="path7" />
    </g>
    <g
       id="shape2"
       transform="translate(1.5,1.5)">
      <path
         d="M 0,23.8 V 0 H 64.1 V 23.8 57.55 H 0 Z"
         fill="none"
         stroke="#000000"
         stroke-linecap="round"
         stroke-linejoin="round"
         stroke-width="3"
         id="path8" />
    </g>
  </defs>
</svg>
